{
    "mood": "happy",
    "instruments": {
        "Acoustic Grand Piano": [
            {
                "start_time": 9.8568182,
                "end_time": 9.9909091,
                "pitch": 82,
                "velocity": 80,
                "duration": 0.1340909,
                "tempo": 120.0
            },
            {
                "start_time": 10.0090909,
                "end_time": 10.1431818,
                "pitch": 82,
                "velocity": 80,
                "duration": 0.1340909,
                "tempo": 120.0
            },
            {
                "start_time": 10.1590909,
                "end_time": 10.4454545,
                "pitch": 81,
                "velocity": 80,
                "duration": 0.2863636,
                "tempo": 120.0
            },
            {
                "start_time": 10.4636364,
                "end_time": 10.5954545,
                "pitch": 82,
                "velocity": 80,
                "duration": 0.1318182,
                "tempo": 120.0
            },
            {
                "start_time": 10.6113636,
                "end_time": 10.8931818,
                "pitch": 84,
                "velocity": 80,
                "duration": 0.2818182,
                "tempo": 120.0
            },
            {
                "start_time": 10.9090909,
                "end_time": 11.0409091,
                "pitch": 84,
                "velocity": 80,
                "duration": 0.1318182,
                "tempo": 120.0
            },
            {
                "start_time": 11.0568182,
                "end_time": 11.3409091,
                "pitch": 82,
                "velocity": 80,
                "duration": 0.2840909,
                "tempo": 120.0
            },
            {
                "start_time": 11.3568182,
                "end_time": 11.6409091,
                "pitch": 81,
                "velocity": 80,
                "duration": 0.2840909,
                "tempo": 120.0
            },
            {
                "start_time": 11.6568182,
                "end_time": 11.7931818,
                "pitch": 82,
                "velocity": 80,
                "duration": 0.1363636,
                "tempo": 120.0
            },
            {
                "start_time": 11.8090909,
                "end_time": 12.1,
                "pitch": 77,
                "velocity": 80,
                "duration": 0.2909091,
                "tempo": 120.0
            },
            {
                "start_time": 12.1159091,
                "end_time": 12.2522727,
                "pitch": 77,
                "velocity": 80,
                "duration": 0.1363636,
                "tempo": 120.0
            },
            {
                "start_time": 12.2704545,
                "end_time": 12.8522727,
                "pitch": 77,
                "velocity": 80,
                "duration": 0.5818182,
                "tempo": 120.0
            },
            {
                "start_time": 12.8704545,
                "end_time": 13.0022727,
                "pitch": 79,
                "velocity": 80,
                "duration": 0.1318182,
                "tempo": 120.0
            },
            {
                "start_time": 13.0181818,
                "end_time": 13.8977273,
                "pitch": 77,
                "velocity": 80,
                "duration": 0.8795455,
                "tempo": 120.0
            },
            {
                "start_time": 13.9136364,
                "end_time": 14.0477273,
                "pitch": 76,
                "velocity": 80,
                "duration": 0.1340909,
                "tempo": 120.0
            },
            {
                "start_time": 14.0636364,
                "end_time": 14.2,
                "pitch": 77,
                "velocity": 80,
                "duration": 0.1363636,
                "tempo": 120.0
            },
            {
                "start_time": 14.2159091,
                "end_time": 14.3522727,
                "pitch": 79,
                "velocity": 80,
                "duration": 0.1363636,
                "tempo": 120.0
            },
            {
                "start_time": 14.675,
                "end_time": 14.8068182,
                "pitch": 84,
                "velocity": 80,
                "duration": 0.1318182,
                "tempo": 120.0
            },
            {
                "start_time": 14.825,
                "end_time": 14.9568182,
                "pitch": 84,
                "velocity": 80,
                "duration": 0.1318182,
                "tempo": 120.0
            },
            {
                "start_time": 14.9727273,
                "end_time": 15.2522727,
                "pitch": 83,
                "velocity": 80,
                "duration": 0.2795455,
                "tempo": 120.0
            },
            {
                "start_time": 15.2704545,
                "end_time": 15.4045455,
                "pitch": 84,
                "velocity": 80,
                "duration": 0.1340909,
                "tempo": 120.0
            },
            {
                "start_time": 15.4227273,
                "end_time": 15.7113636,
                "pitch": 87,
                "velocity": 80,
                "duration": 0.2886364,
                "tempo": 120.0
            },
            {
                "start_time": 15.7295455,
                "end_time": 15.8636364,
                "pitch": 87,
                "velocity": 80,
                "duration": 0.1340909,
                "tempo": 120.0
            },
            {
                "start_time": 15.8818182,
                "end_time": 16.1681818,
                "pitch": 87,
                "velocity": 80,
                "duration": 0.2863636,
                "tempo": 120.0
            },
            {
                "start_time": 16.1840909,
                "end_time": 16.3204545,
                "pitch": 87,
                "velocity": 80,
                "duration": 0.1363636,
                "tempo": 120.0
            },
            {
                "start_time": 16.3363636,
                "end_time": 16.6204545,
                "pitch": 86,
                "velocity": 80,
                "duration": 0.2840909,
                "tempo": 120.0
            },
            {
                "start_time": 16.6386364,
                "end_time": 16.7704545,
                "pitch": 84,
                "velocity": 80,
                "duration": 0.1318182,
                "tempo": 120.0
            },
            {
                "start_time": 17.0886364,
                "end_time": 17.3681818,
                "pitch": 86,
                "velocity": 80,
                "duration": 0.2795455,
                "tempo": 120.0
            },
            {
                "start_time": 17.3840909,
                "end_time": 17.6659091,
                "pitch": 86,
                "velocity": 80,
                "duration": 0.2818182,
                "tempo": 120.0
            },
            {
                "start_time": 17.6818182,
                "end_time": 17.8181818,
                "pitch": 84,
                "velocity": 80,
                "duration": 0.1363636,
                "tempo": 120.0
            },
            {
                "start_time": 17.8340909,
                "end_time": 18.125,
                "pitch": 89,
                "velocity": 80,
                "duration": 0.2909091,
                "tempo": 120.0
            },
            {
                "start_time": 18.1409091,
                "end_time": 18.2772727,
                "pitch": 89,
                "velocity": 80,
                "duration": 0.1363636,
                "tempo": 120.0
            },
            {
                "start_time": 18.2931818,
                "end_time": 18.4272727,
                "pitch": 89,
                "velocity": 80,
                "duration": 0.1340909,
                "tempo": 120.0
            },
            {
                "start_time": 18.7431818,
                "end_time": 18.8772727,
                "pitch": 89,
                "velocity": 80,
                "duration": 0.1340909,
                "tempo": 120.0
            },
            {
                "start_time": 18.8931818,
                "end_time": 19.0295455,
                "pitch": 87,
                "velocity": 80,
                "duration": 0.1363636,
                "tempo": 120.0
            },
            {
                "start_time": 19.0454545,
                "end_time": 19.1795455,
                "pitch": 86,
                "velocity": 80,
                "duration": 0.1340909,
                "tempo": 120.0
            },
            {
                "start_time": 19.5,
                "end_time": 19.6318182,
                "pitch": 82,
                "velocity": 80,
                "duration": 0.1318182,
                "tempo": 120.0
            },
            {
                "start_time": 19.6477273,
                "end_time": 19.7795455,
                "pitch": 82,
                "velocity": 80,
                "duration": 0.1318182,
                "tempo": 120.0
            },
            {
                "start_time": 19.7977273,
                "end_time": 20.0772727,
                "pitch": 81,
                "velocity": 80,
                "duration": 0.2795455,
                "tempo": 120.0
            },
            {
                "start_time": 20.0931818,
                "end_time": 20.2272727,
                "pitch": 82,
                "velocity": 80,
                "duration": 0.1340909,
                "tempo": 120.0
            },
            {
                "start_time": 20.2431818,
                "end_time": 20.5272727,
                "pitch": 84,
                "velocity": 80,
                "duration": 0.2840909,
                "tempo": 120.0
            },
            {
                "start_time": 20.5431818,
                "end_time": 20.6772727,
                "pitch": 84,
                "velocity": 80,
                "duration": 0.1340909,
                "tempo": 120.0
            },
            {
                "start_time": 20.6931818,
                "end_time": 20.9840909,
                "pitch": 82,
                "velocity": 80,
                "duration": 0.2909091,
                "tempo": 120.0
            },
            {
                "start_time": 21.0,
                "end_time": 21.2886364,
                "pitch": 81,
                "velocity": 80,
                "duration": 0.2886364,
                "tempo": 120.0
            },
            {
                "start_time": 21.3068182,
                "end_time": 21.4386364,
                "pitch": 82,
                "velocity": 80,
                "duration": 0.1318182,
                "tempo": 120.0
            },
            {
                "start_time": 21.4568182,
                "end_time": 21.7386364,
                "pitch": 77,
                "velocity": 80,
                "duration": 0.2818182,
                "tempo": 120.0
            },
            {
                "start_time": 21.7568182,
                "end_time": 21.8886364,
                "pitch": 77,
                "velocity": 80,
                "duration": 0.1318182,
                "tempo": 120.0
            },
            {
                "start_time": 21.9068182,
                "end_time": 22.4840909,
                "pitch": 77,
                "velocity": 80,
                "duration": 0.5772727,
                "tempo": 120.0
            },
            {
                "start_time": 22.5,
                "end_time": 22.6340909,
                "pitch": 79,
                "velocity": 80,
                "duration": 0.1340909,
                "tempo": 120.0
            },
            {
                "start_time": 22.6522727,
                "end_time": 23.5409091,
                "pitch": 77,
                "velocity": 80,
                "duration": 0.8886364,
                "tempo": 120.0
            },
            {
                "start_time": 23.5568182,
                "end_time": 23.6909091,
                "pitch": 76,
                "velocity": 80,
                "duration": 0.1340909,
                "tempo": 120.0
            },
            {
                "start_time": 23.7068182,
                "end_time": 23.8431818,
                "pitch": 77,
                "velocity": 80,
                "duration": 0.1363636,
                "tempo": 120.0
            },
            {
                "start_time": 23.8590909,
                "end_time": 23.9954545,
                "pitch": 79,
                "velocity": 80,
                "duration": 0.1363636,
                "tempo": 120.0
            },
            {
                "start_time": 24.3181818,
                "end_time": 24.45,
                "pitch": 84,
                "velocity": 80,
                "duration": 0.1318182,
                "tempo": 120.0
            },
            {
                "start_time": 24.4659091,
                "end_time": 24.6,
                "pitch": 84,
                "velocity": 80,
                "duration": 0.1340909,
                "tempo": 120.0
            },
            {
                "start_time": 24.6159091,
                "end_time": 24.8954545,
                "pitch": 83,
                "velocity": 80,
                "duration": 0.2795455,
                "tempo": 120.0
            },
            {
                "start_time": 24.9136364,
                "end_time": 25.0477273,
                "pitch": 84,
                "velocity": 80,
                "duration": 0.1340909,
                "tempo": 120.0
            },
            {
                "start_time": 25.0659091,
                "end_time": 25.3545455,
                "pitch": 87,
                "velocity": 80,
                "duration": 0.2886364,
                "tempo": 120.0
            },
            {
                "start_time": 25.3704545,
                "end_time": 25.5068182,
                "pitch": 87,
                "velocity": 80,
                "duration": 0.1363636,
                "tempo": 120.0
            },
            {
                "start_time": 25.525,
                "end_time": 25.8090909,
                "pitch": 87,
                "velocity": 80,
                "duration": 0.2840909,
                "tempo": 120.0
            },
            {
                "start_time": 25.825,
                "end_time": 25.9590909,
                "pitch": 87,
                "velocity": 80,
                "duration": 0.1340909,
                "tempo": 120.0
            },
            {
                "start_time": 25.975,
                "end_time": 26.2568182,
                "pitch": 86,
                "velocity": 80,
                "duration": 0.2818182,
                "tempo": 120.0
            },
            {
                "start_time": 26.2727273,
                "end_time": 26.4045455,
                "pitch": 84,
                "velocity": 80,
                "duration": 0.1318182,
                "tempo": 120.0
            },
            {
                "start_time": 26.4227273,
                "end_time": 27.6113636,
                "pitch": 82,
                "velocity": 80,
                "duration": 1.1886364,
                "tempo": 120.0
            },
            {
                "start_time": 38.8045455,
                "end_time": 38.9363636,
                "pitch": 82,
                "velocity": 80,
                "duration": 0.1318182,
                "tempo": 120.0
            },
            {
                "start_time": 38.9522727,
                "end_time": 39.0840909,
                "pitch": 82,
                "velocity": 80,
                "duration": 0.1318182,
                "tempo": 120.0
            },
            {
                "start_time": 39.1,
                "end_time": 39.3818182,
                "pitch": 81,
                "velocity": 80,
                "duration": 0.2818182,
                "tempo": 120.0
            },
            {
                "start_time": 39.3977273,
                "end_time": 39.5318182,
                "pitch": 82,
                "velocity": 80,
                "duration": 0.1340909,
                "tempo": 120.0
            },
            {
                "start_time": 39.55,
                "end_time": 39.8363636,
                "pitch": 84,
                "velocity": 80,
                "duration": 0.2863636,
                "tempo": 120.0
            },
            {
                "start_time": 39.8522727,
                "end_time": 39.9863636,
                "pitch": 84,
                "velocity": 80,
                "duration": 0.1340909,
                "tempo": 120.0
            },
            {
                "start_time": 40.0045455,
                "end_time": 40.2909091,
                "pitch": 82,
                "velocity": 80,
                "duration": 0.2863636,
                "tempo": 120.0
            },
            {
                "start_time": 40.3068182,
                "end_time": 40.5931818,
                "pitch": 81,
                "velocity": 80,
                "duration": 0.2863636,
                "tempo": 120.0
            },
            {
                "start_time": 40.6090909,
                "end_time": 40.7431818,
                "pitch": 82,
                "velocity": 80,
                "duration": 0.1340909,
                "tempo": 120.0
            },
            {
                "start_time": 40.7590909,
                "end_time": 41.0431818,
                "pitch": 77,
                "velocity": 80,
                "duration": 0.2840909,
                "tempo": 120.0
            },
            {
                "start_time": 41.0590909,
                "end_time": 41.1931818,
                "pitch": 77,
                "velocity": 80,
                "duration": 0.1340909,
                "tempo": 120.0
            },
            {
                "start_time": 41.2090909,
                "end_time": 41.8,
                "pitch": 77,
                "velocity": 80,
                "duration": 0.5909091,
                "tempo": 120.0
            },
            {
                "start_time": 41.8159091,
                "end_time": 41.95,
                "pitch": 79,
                "velocity": 80,
                "duration": 0.1340909,
                "tempo": 120.0
            },
            {
                "start_time": 41.9681818,
                "end_time": 42.8590909,
                "pitch": 77,
                "velocity": 80,
                "duration": 0.8909091,
                "tempo": 120.0
            },
            {
                "start_time": 42.8772727,
                "end_time": 43.0113636,
                "pitch": 76,
                "velocity": 80,
                "duration": 0.1340909,
                "tempo": 120.0
            },
            {
                "start_time": 43.0272727,
                "end_time": 43.1636364,
                "pitch": 77,
                "velocity": 80,
                "duration": 0.1363636,
                "tempo": 120.0
            },
            {
                "start_time": 43.1818182,
                "end_time": 43.3181818,
                "pitch": 79,
                "velocity": 80,
                "duration": 0.1363636,
                "tempo": 120.0
            },
            {
                "start_time": 43.6409091,
                "end_time": 43.7727273,
                "pitch": 84,
                "velocity": 80,
                "duration": 0.1318182,
                "tempo": 120.0
            },
            {
                "start_time": 43.7886364,
                "end_time": 43.9204545,
                "pitch": 84,
                "velocity": 80,
                "duration": 0.1318182,
                "tempo": 120.0
            },
            {
                "start_time": 43.9363636,
                "end_time": 44.2181818,
                "pitch": 83,
                "velocity": 80,
                "duration": 0.2818182,
                "tempo": 120.0
            },
            {
                "start_time": 44.2340909,
                "end_time": 44.3681818,
                "pitch": 84,
                "velocity": 80,
                "duration": 0.1340909,
                "tempo": 120.0
            },
            {
                "start_time": 44.3863636,
                "end_time": 44.6727273,
                "pitch": 87,
                "velocity": 80,
                "duration": 0.2863636,
                "tempo": 120.0
            },
            {
                "start_time": 44.6886364,
                "end_time": 44.8227273,
                "pitch": 87,
                "velocity": 80,
                "duration": 0.1340909,
                "tempo": 120.0
            },
            {
                "start_time": 44.8409091,
                "end_time": 45.1272727,
                "pitch": 87,
                "velocity": 80,
                "duration": 0.2863636,
                "tempo": 120.0
            },
            {
                "start_time": 45.1431818,
                "end_time": 45.2772727,
                "pitch": 87,
                "velocity": 80,
                "duration": 0.1340909,
                "tempo": 120.0
            },
            {
                "start_time": 45.2954545,
                "end_time": 45.5818182,
                "pitch": 86,
                "velocity": 80,
                "duration": 0.2863636,
                "tempo": 120.0
            },
            {
                "start_time": 45.5977273,
                "end_time": 45.7318182,
                "pitch": 84,
                "velocity": 80,
                "duration": 0.1340909,
                "tempo": 120.0
            },
            {
                "start_time": 46.0522727,
                "end_time": 46.3386364,
                "pitch": 86,
                "velocity": 80,
                "duration": 0.2863636,
                "tempo": 120.0
            },
            {
                "start_time": 46.3568182,
                "end_time": 46.6409091,
                "pitch": 86,
                "velocity": 80,
                "duration": 0.2840909,
                "tempo": 120.0
            },
            {
                "start_time": 46.6590909,
                "end_time": 46.7909091,
                "pitch": 84,
                "velocity": 80,
                "duration": 0.1318182,
                "tempo": 120.0
            },
            {
                "start_time": 46.8090909,
                "end_time": 47.0909091,
                "pitch": 89,
                "velocity": 80,
                "duration": 0.2818182,
                "tempo": 120.0
            },
            {
                "start_time": 47.1090909,
                "end_time": 47.2409091,
                "pitch": 89,
                "velocity": 80,
                "duration": 0.1318182,
                "tempo": 120.0
            },
            {
                "start_time": 47.2590909,
                "end_time": 47.3931818,
                "pitch": 89,
                "velocity": 80,
                "duration": 0.1340909,
                "tempo": 120.0
            },
            {
                "start_time": 47.7136364,
                "end_time": 47.8477273,
                "pitch": 89,
                "velocity": 80,
                "duration": 0.1340909,
                "tempo": 120.0
            },
            {
                "start_time": 47.8659091,
                "end_time": 48.0,
                "pitch": 87,
                "velocity": 80,
                "duration": 0.1340909,
                "tempo": 120.0
            },
            {
                "start_time": 48.0181818,
                "end_time": 48.1545455,
                "pitch": 86,
                "velocity": 80,
                "duration": 0.1363636,
                "tempo": 120.0
            },
            {
                "start_time": 48.4772727,
                "end_time": 48.6090909,
                "pitch": 82,
                "velocity": 80,
                "duration": 0.1318182,
                "tempo": 120.0
            },
            {
                "start_time": 48.625,
                "end_time": 48.7568182,
                "pitch": 82,
                "velocity": 80,
                "duration": 0.1318182,
                "tempo": 120.0
            },
            {
                "start_time": 48.775,
                "end_time": 49.0545455,
                "pitch": 81,
                "velocity": 80,
                "duration": 0.2795455,
                "tempo": 120.0
            },
            {
                "start_time": 49.0704545,
                "end_time": 49.2045455,
                "pitch": 82,
                "velocity": 80,
                "duration": 0.1340909,
                "tempo": 120.0
            },
            {
                "start_time": 49.2227273,
                "end_time": 49.5090909,
                "pitch": 84,
                "velocity": 80,
                "duration": 0.2863636,
                "tempo": 120.0
            },
            {
                "start_time": 49.525,
                "end_time": 49.6590909,
                "pitch": 84,
                "velocity": 80,
                "duration": 0.1340909,
                "tempo": 120.0
            },
            {
                "start_time": 49.6772727,
                "end_time": 49.9659091,
                "pitch": 82,
                "velocity": 80,
                "duration": 0.2886364,
                "tempo": 120.0
            },
            {
                "start_time": 49.9840909,
                "end_time": 50.2727273,
                "pitch": 81,
                "velocity": 80,
                "duration": 0.2886364,
                "tempo": 120.0
            },
            {
                "start_time": 50.2886364,
                "end_time": 50.4204545,
                "pitch": 82,
                "velocity": 80,
                "duration": 0.1318182,
                "tempo": 120.0
            },
            {
                "start_time": 50.4386364,
                "end_time": 50.7181818,
                "pitch": 77,
                "velocity": 80,
                "duration": 0.2795455,
                "tempo": 120.0
            },
            {
                "start_time": 50.7340909,
                "end_time": 50.8659091,
                "pitch": 77,
                "velocity": 80,
                "duration": 0.1318182,
                "tempo": 120.0
            },
            {
                "start_time": 50.8840909,
                "end_time": 51.4772727,
                "pitch": 77,
                "velocity": 80,
                "duration": 0.5931818,
                "tempo": 120.0
            },
            {
                "start_time": 51.4954545,
                "end_time": 51.6272727,
                "pitch": 79,
                "velocity": 80,
                "duration": 0.1318182,
                "tempo": 120.0
            },
            {
                "start_time": 51.6431818,
                "end_time": 52.5272727,
                "pitch": 77,
                "velocity": 80,
                "duration": 0.8840909,
                "tempo": 120.0
            },
            {
                "start_time": 52.5431818,
                "end_time": 52.6795455,
                "pitch": 76,
                "velocity": 80,
                "duration": 0.1363636,
                "tempo": 120.0
            },
            {
                "start_time": 52.6954545,
                "end_time": 52.8318182,
                "pitch": 77,
                "velocity": 80,
                "duration": 0.1363636,
                "tempo": 120.0
            },
            {
                "start_time": 52.8477273,
                "end_time": 52.9840909,
                "pitch": 79,
                "velocity": 80,
                "duration": 0.1363636,
                "tempo": 120.0
            },
            {
                "start_time": 53.3068182,
                "end_time": 53.4386364,
                "pitch": 84,
                "velocity": 80,
                "duration": 0.1318182,
                "tempo": 120.0
            },
            {
                "start_time": 53.4568182,
                "end_time": 53.5886364,
                "pitch": 84,
                "velocity": 80,
                "duration": 0.1318182,
                "tempo": 120.0
            },
            {
                "start_time": 53.6045455,
                "end_time": 53.8840909,
                "pitch": 83,
                "velocity": 80,
                "duration": 0.2795455,
                "tempo": 120.0
            },
            {
                "start_time": 53.9022727,
                "end_time": 54.0363636,
                "pitch": 84,
                "velocity": 80,
                "duration": 0.1340909,
                "tempo": 120.0
            },
            {
                "start_time": 54.0545455,
                "end_time": 54.3431818,
                "pitch": 87,
                "velocity": 80,
                "duration": 0.2886364,
                "tempo": 120.0
            },
            {
                "start_time": 54.3613636,
                "end_time": 54.4954545,
                "pitch": 87,
                "velocity": 80,
                "duration": 0.1340909,
                "tempo": 120.0
            },
            {
                "start_time": 54.5136364,
                "end_time": 54.8,
                "pitch": 87,
                "velocity": 80,
                "duration": 0.2863636,
                "tempo": 120.0
            },
            {
                "start_time": 54.8159091,
                "end_time": 54.9522727,
                "pitch": 87,
                "velocity": 80,
                "duration": 0.1363636,
                "tempo": 120.0
            },
            {
                "start_time": 54.9681818,
                "end_time": 55.2522727,
                "pitch": 86,
                "velocity": 80,
                "duration": 0.2840909,
                "tempo": 120.0
            },
            {
                "start_time": 55.2681818,
                "end_time": 55.4,
                "pitch": 84,
                "velocity": 80,
                "duration": 0.1318182,
                "tempo": 120.0
            },
            {
                "start_time": 55.4159091,
                "end_time": 56.6,
                "pitch": 82,
                "velocity": 80,
                "duration": 1.1840909,
                "tempo": 120.0
            }
        ],
        "Acoustic Bass": [
            {
                "start_time": 0.0113636,
                "end_time": 0.0772727,
                "pitch": 39,
                "velocity": 51,
                "duration": 0.0659091,
                "tempo": 120.0
            },
            {
                "start_time": 0.0886364,
                "end_time": 0.1772727,
                "pitch": 51,
                "velocity": 51,
                "duration": 0.0886364,
                "tempo": 120.0
            },
            {
                "start_time": 0.1909091,
                "end_time": 0.3227273,
                "pitch": 39,
                "velocity": 51,
                "duration": 0.1318182,
                "tempo": 120.0
            },
            {
                "start_time": 0.3409091,
                "end_time": 0.4727273,
                "pitch": 51,
                "velocity": 51,
                "duration": 0.1318182,
                "tempo": 120.0
            },
            {
                "start_time": 0.4909091,
                "end_time": 0.6227273,
                "pitch": 39,
                "velocity": 51,
                "duration": 0.1318182,
                "tempo": 120.0
            },
            {
                "start_time": 0.6409091,
                "end_time": 0.7727273,
                "pitch": 51,
                "velocity": 51,
                "duration": 0.1318182,
                "tempo": 120.0
            },
            {
                "start_time": 0.7909091,
                "end_time": 0.925,
                "pitch": 39,
                "velocity": 51,
                "duration": 0.1340909,
                "tempo": 120.0
            },
            {
                "start_time": 0.9431818,
                "end_time": 1.0795455,
                "pitch": 51,
                "velocity": 51,
                "duration": 0.1363636,
                "tempo": 120.0
            },
            {
                "start_time": 1.0954545,
                "end_time": 1.2318182,
                "pitch": 39,
                "velocity": 51,
                "duration": 0.1363636,
                "tempo": 120.0
            },
            {
                "start_time": 1.25,
                "end_time": 1.3840909,
                "pitch": 51,
                "velocity": 51,
                "duration": 0.1340909,
                "tempo": 120.0
            },
            {
                "start_time": 1.4022727,
                "end_time": 1.5340909,
                "pitch": 39,
                "velocity": 51,
                "duration": 0.1318182,
                "tempo": 120.0
            },
            {
                "start_time": 1.55,
                "end_time": 1.6818182,
                "pitch": 51,
                "velocity": 51,
                "duration": 0.1318182,
                "tempo": 120.0
            },
            {
                "start_time": 1.7,
                "end_time": 1.8318182,
                "pitch": 39,
                "velocity": 51,
                "duration": 0.1318182,
                "tempo": 120.0
            },
            {
                "start_time": 1.8477273,
                "end_time": 1.9795455,
                "pitch": 48,
                "velocity": 51,
                "duration": 0.1318182,
                "tempo": 120.0
            },
            {
                "start_time": 1.9954545,
                "end_time": 2.1318182,
                "pitch": 50,
                "velocity": 51,
                "duration": 0.1363636,
                "tempo": 120.0
            },
            {
                "start_time": 2.1477273,
                "end_time": 2.2818182,
                "pitch": 51,
                "velocity": 51,
                "duration": 0.1340909,
                "tempo": 120.0
            },
            {
                "start_time": 2.3,
                "end_time": 2.4340909,
                "pitch": 41,
                "velocity": 51,
                "duration": 0.1340909,
                "tempo": 120.0
            },
            {
                "start_time": 2.45,
                "end_time": 2.5863636,
                "pitch": 53,
                "velocity": 51,
                "duration": 0.1363636,
                "tempo": 120.0
            },
            {
                "start_time": 2.6022727,
                "end_time": 2.7386364,
                "pitch": 41,
                "velocity": 51,
                "duration": 0.1363636,
                "tempo": 120.0
            },
            {
                "start_time": 2.7545455,
                "end_time": 2.8909091,
                "pitch": 53,
                "velocity": 51,
                "duration": 0.1363636,
                "tempo": 120.0
            },
            {
                "start_time": 2.9090909,
                "end_time": 3.0431818,
                "pitch": 41,
                "velocity": 51,
                "duration": 0.1340909,
                "tempo": 120.0
            },
            {
                "start_time": 3.0613636,
                "end_time": 3.1977273,
                "pitch": 53,
                "velocity": 51,
                "duration": 0.1363636,
                "tempo": 120.0
            },
            {
                "start_time": 3.2136364,
                "end_time": 3.3454545,
                "pitch": 41,
                "velocity": 51,
                "duration": 0.1318182,
                "tempo": 120.0
            },
            {
                "start_time": 3.3636364,
                "end_time": 3.4954545,
                "pitch": 53,
                "velocity": 51,
                "duration": 0.1318182,
                "tempo": 120.0
            },
            {
                "start_time": 3.5113636,
                "end_time": 3.6431818,
                "pitch": 41,
                "velocity": 51,
                "duration": 0.1318182,
                "tempo": 120.0
            },
            {
                "start_time": 3.6590909,
                "end_time": 3.7909091,
                "pitch": 53,
                "velocity": 51,
                "duration": 0.1318182,
                "tempo": 120.0
            },
            {
                "start_time": 3.8090909,
                "end_time": 3.9431818,
                "pitch": 41,
                "velocity": 51,
                "duration": 0.1340909,
                "tempo": 120.0
            },
            {
                "start_time": 3.9590909,
                "end_time": 4.0954545,
                "pitch": 53,
                "velocity": 51,
                "duration": 0.1363636,
                "tempo": 120.0
            },
            {
                "start_time": 4.1113636,
                "end_time": 4.2454545,
                "pitch": 41,
                "velocity": 51,
                "duration": 0.1340909,
                "tempo": 120.0
            },
            {
                "start_time": 4.2636364,
                "end_time": 4.3977273,
                "pitch": 55,
                "velocity": 51,
                "duration": 0.1340909,
                "tempo": 120.0
            },
            {
                "start_time": 4.4136364,
                "end_time": 4.55,
                "pitch": 53,
                "velocity": 51,
                "duration": 0.1363636,
                "tempo": 120.0
            },
            {
                "start_time": 4.5659091,
                "end_time": 4.7,
                "pitch": 51,
                "velocity": 51,
                "duration": 0.1340909,
                "tempo": 120.0
            },
            {
                "start_time": 4.7181818,
                "end_time": 4.8522727,
                "pitch": 39,
                "velocity": 51,
                "duration": 0.1340909,
                "tempo": 120.0
            },
            {
                "start_time": 4.8681818,
                "end_time": 5.0045455,
                "pitch": 51,
                "velocity": 51,
                "duration": 0.1363636,
                "tempo": 120.0
            },
            {
                "start_time": 5.0204545,
                "end_time": 5.1568182,
                "pitch": 39,
                "velocity": 51,
                "duration": 0.1363636,
                "tempo": 120.0
            },
            {
                "start_time": 5.1727273,
                "end_time": 5.3090909,
                "pitch": 51,
                "velocity": 51,
                "duration": 0.1363636,
                "tempo": 120.0
            },
            {
                "start_time": 5.3272727,
                "end_time": 5.4636364,
                "pitch": 39,
                "velocity": 51,
                "duration": 0.1363636,
                "tempo": 120.0
            },
            {
                "start_time": 5.4795455,
                "end_time": 5.6159091,
                "pitch": 51,
                "velocity": 51,
                "duration": 0.1363636,
                "tempo": 120.0
            },
            {
                "start_time": 5.6318182,
                "end_time": 5.7681818,
                "pitch": 39,
                "velocity": 51,
                "duration": 0.1363636,
                "tempo": 120.0
            },
            {
                "start_time": 5.7840909,
                "end_time": 5.9181818,
                "pitch": 51,
                "velocity": 51,
                "duration": 0.1340909,
                "tempo": 120.0
            },
            {
                "start_time": 5.9363636,
                "end_time": 6.0704545,
                "pitch": 39,
                "velocity": 51,
                "duration": 0.1340909,
                "tempo": 120.0
            },
            {
                "start_time": 6.0863636,
                "end_time": 6.2227273,
                "pitch": 51,
                "velocity": 51,
                "duration": 0.1363636,
                "tempo": 120.0
            },
            {
                "start_time": 6.2386364,
                "end_time": 6.3704545,
                "pitch": 39,
                "velocity": 51,
                "duration": 0.1318182,
                "tempo": 120.0
            },
            {
                "start_time": 6.3863636,
                "end_time": 6.5181818,
                "pitch": 51,
                "velocity": 51,
                "duration": 0.1318182,
                "tempo": 120.0
            },
            {
                "start_time": 6.5363636,
                "end_time": 6.6681818,
                "pitch": 39,
                "velocity": 51,
                "duration": 0.1318182,
                "tempo": 120.0
            },
            {
                "start_time": 6.6840909,
                "end_time": 6.8159091,
                "pitch": 48,
                "velocity": 51,
                "duration": 0.1318182,
                "tempo": 120.0
            },
            {
                "start_time": 6.8318182,
                "end_time": 6.9659091,
                "pitch": 50,
                "velocity": 51,
                "duration": 0.1340909,
                "tempo": 120.0
            },
            {
                "start_time": 6.9818182,
                "end_time": 7.1159091,
                "pitch": 51,
                "velocity": 51,
                "duration": 0.1340909,
                "tempo": 120.0
            },
            {
                "start_time": 7.1318182,
                "end_time": 7.2659091,
                "pitch": 41,
                "velocity": 51,
                "duration": 0.1340909,
                "tempo": 120.0
            },
            {
                "start_time": 7.2818182,
                "end_time": 7.3159091,
                "pitch": 41,
                "velocity": 51,
                "duration": 0.0340909,
                "tempo": 120.0
            },
            {
                "start_time": 7.8863636,
                "end_time": 8.0227273,
                "pitch": 41,
                "velocity": 51,
                "duration": 0.1363636,
                "tempo": 120.0
            },
            {
                "start_time": 8.0386364,
                "end_time": 8.0727273,
                "pitch": 41,
                "velocity": 51,
                "duration": 0.0340909,
                "tempo": 120.0
            },
            {
                "start_time": 8.65,
                "end_time": 8.9318182,
                "pitch": 46,
                "velocity": 51,
                "duration": 0.2818182,
                "tempo": 120.0
            },
            {
                "start_time": 8.9477273,
                "end_time": 9.2295455,
                "pitch": 46,
                "velocity": 51,
                "duration": 0.2818182,
                "tempo": 120.0
            },
            {
                "start_time": 9.2454545,
                "end_time": 9.5340909,
                "pitch": 46,
                "velocity": 51,
                "duration": 0.2886364,
                "tempo": 120.0
            },
            {
                "start_time": 9.55,
                "end_time": 9.6863636,
                "pitch": 39,
                "velocity": 51,
                "duration": 0.1363636,
                "tempo": 120.0
            },
            {
                "start_time": 9.7045455,
                "end_time": 9.8409091,
                "pitch": 39,
                "velocity": 51,
                "duration": 0.1363636,
                "tempo": 120.0
            },
            {
                "start_time": 9.8568182,
                "end_time": 9.9909091,
                "pitch": 51,
                "velocity": 51,
                "duration": 0.1340909,
                "tempo": 120.0
            },
            {
                "start_time": 10.0090909,
                "end_time": 10.1431818,
                "pitch": 39,
                "velocity": 51,
                "duration": 0.1340909,
                "tempo": 120.0
            },
            {
                "start_time": 10.1590909,
                "end_time": 10.2954545,
                "pitch": 39,
                "velocity": 51,
                "duration": 0.1363636,
                "tempo": 120.0
            },
            {
                "start_time": 10.3113636,
                "end_time": 10.4454545,
                "pitch": 51,
                "velocity": 51,
                "duration": 0.1340909,
                "tempo": 120.0
            },
            {
                "start_time": 10.4636364,
                "end_time": 10.5954545,
                "pitch": 39,
                "velocity": 51,
                "duration": 0.1318182,
                "tempo": 120.0
            },
            {
                "start_time": 10.6113636,
                "end_time": 10.7431818,
                "pitch": 51,
                "velocity": 51,
                "duration": 0.1318182,
                "tempo": 120.0
            },
            {
                "start_time": 10.7590909,
                "end_time": 10.8931818,
                "pitch": 39,
                "velocity": 51,
                "duration": 0.1340909,
                "tempo": 120.0
            },
            {
                "start_time": 10.9090909,
                "end_time": 11.0409091,
                "pitch": 39,
                "velocity": 51,
                "duration": 0.1318182,
                "tempo": 120.0
            },
            {
                "start_time": 11.0568182,
                "end_time": 11.1909091,
                "pitch": 51,
                "velocity": 51,
                "duration": 0.1340909,
                "tempo": 120.0
            },
            {
                "start_time": 11.2068182,
                "end_time": 11.3409091,
                "pitch": 39,
                "velocity": 51,
                "duration": 0.1340909,
                "tempo": 120.0
            },
            {
                "start_time": 11.3568182,
                "end_time": 11.4909091,
                "pitch": 39,
                "velocity": 51,
                "duration": 0.1340909,
                "tempo": 120.0
            },
            {
                "start_time": 11.5068182,
                "end_time": 11.6409091,
                "pitch": 51,
                "velocity": 51,
                "duration": 0.1340909,
                "tempo": 120.0
            },
            {
                "start_time": 11.6568182,
                "end_time": 11.7931818,
                "pitch": 39,
                "velocity": 51,
                "duration": 0.1363636,
                "tempo": 120.0
            },
            {
                "start_time": 11.8090909,
                "end_time": 11.9454545,
                "pitch": 51,
                "velocity": 51,
                "duration": 0.1363636,
                "tempo": 120.0
            },
            {
                "start_time": 11.9636364,
                "end_time": 12.1,
                "pitch": 34,
                "velocity": 51,
                "duration": 0.1363636,
                "tempo": 120.0
            },
            {
                "start_time": 12.1159091,
                "end_time": 12.2522727,
                "pitch": 34,
                "velocity": 51,
                "duration": 0.1363636,
                "tempo": 120.0
            },
            {
                "start_time": 12.2704545,
                "end_time": 12.4022727,
                "pitch": 46,
                "velocity": 51,
                "duration": 0.1318182,
                "tempo": 120.0
            },
            {
                "start_time": 12.4204545,
                "end_time": 12.5522727,
                "pitch": 34,
                "velocity": 51,
                "duration": 0.1318182,
                "tempo": 120.0
            },
            {
                "start_time": 12.5704545,
                "end_time": 12.7022727,
                "pitch": 34,
                "velocity": 51,
                "duration": 0.1318182,
                "tempo": 120.0
            },
            {
                "start_time": 12.7204545,
                "end_time": 12.8522727,
                "pitch": 46,
                "velocity": 51,
                "duration": 0.1318182,
                "tempo": 120.0
            },
            {
                "start_time": 12.8704545,
                "end_time": 13.0022727,
                "pitch": 34,
                "velocity": 51,
                "duration": 0.1318182,
                "tempo": 120.0
            },
            {
                "start_time": 13.0181818,
                "end_time": 13.15,
                "pitch": 34,
                "velocity": 51,
                "duration": 0.1318182,
                "tempo": 120.0
            },
            {
                "start_time": 13.1659091,
                "end_time": 13.2977273,
                "pitch": 34,
                "velocity": 51,
                "duration": 0.1318182,
                "tempo": 120.0
            },
            {
                "start_time": 13.3159091,
                "end_time": 13.4477273,
                "pitch": 34,
                "velocity": 51,
                "duration": 0.1318182,
                "tempo": 120.0
            },
            {
                "start_time": 13.4636364,
                "end_time": 13.5977273,
                "pitch": 46,
                "velocity": 51,
                "duration": 0.1340909,
                "tempo": 120.0
            },
            {
                "start_time": 13.6136364,
                "end_time": 13.7477273,
                "pitch": 34,
                "velocity": 51,
                "duration": 0.1340909,
                "tempo": 120.0
            },
            {
                "start_time": 13.7636364,
                "end_time": 13.8977273,
                "pitch": 48,
                "velocity": 51,
                "duration": 0.1340909,
                "tempo": 120.0
            },
            {
                "start_time": 13.9136364,
                "end_time": 14.0477273,
                "pitch": 34,
                "velocity": 51,
                "duration": 0.1340909,
                "tempo": 120.0
            },
            {
                "start_time": 14.0636364,
                "end_time": 14.2,
                "pitch": 46,
                "velocity": 51,
                "duration": 0.1363636,
                "tempo": 120.0
            },
            {
                "start_time": 14.2159091,
                "end_time": 14.3522727,
                "pitch": 34,
                "velocity": 51,
                "duration": 0.1363636,
                "tempo": 120.0
            },
            {
                "start_time": 14.3704545,
                "end_time": 14.5045455,
                "pitch": 41,
                "velocity": 51,
                "duration": 0.1340909,
                "tempo": 120.0
            },
            {
                "start_time": 14.5227273,
                "end_time": 14.6590909,
                "pitch": 41,
                "velocity": 51,
                "duration": 0.1363636,
                "tempo": 120.0
            },
            {
                "start_time": 14.675,
                "end_time": 14.8068182,
                "pitch": 53,
                "velocity": 51,
                "duration": 0.1318182,
                "tempo": 120.0
            },
            {
                "start_time": 14.825,
                "end_time": 14.9568182,
                "pitch": 41,
                "velocity": 51,
                "duration": 0.1318182,
                "tempo": 120.0
            },
            {
                "start_time": 14.9727273,
                "end_time": 15.1045455,
                "pitch": 41,
                "velocity": 51,
                "duration": 0.1318182,
                "tempo": 120.0
            },
            {
                "start_time": 15.1204545,
                "end_time": 15.2522727,
                "pitch": 53,
                "velocity": 51,
                "duration": 0.1318182,
                "tempo": 120.0
            },
            {
                "start_time": 15.2704545,
                "end_time": 15.4045455,
                "pitch": 41,
                "velocity": 51,
                "duration": 0.1340909,
                "tempo": 120.0
            },
            {
                "start_time": 15.4227273,
                "end_time": 15.5590909,
                "pitch": 53,
                "velocity": 51,
                "duration": 0.1363636,
                "tempo": 120.0
            },
            {
                "start_time": 15.575,
                "end_time": 15.7113636,
                "pitch": 41,
                "velocity": 51,
                "duration": 0.1363636,
                "tempo": 120.0
            },
            {
                "start_time": 15.7295455,
                "end_time": 15.8636364,
                "pitch": 41,
                "velocity": 51,
                "duration": 0.1340909,
                "tempo": 120.0
            },
            {
                "start_time": 15.8818182,
                "end_time": 16.0159091,
                "pitch": 53,
                "velocity": 51,
                "duration": 0.1340909,
                "tempo": 120.0
            },
            {
                "start_time": 16.0340909,
                "end_time": 16.1681818,
                "pitch": 41,
                "velocity": 51,
                "duration": 0.1340909,
                "tempo": 120.0
            },
            {
                "start_time": 16.1840909,
                "end_time": 16.3204545,
                "pitch": 53,
                "velocity": 51,
                "duration": 0.1363636,
                "tempo": 120.0
            },
            {
                "start_time": 16.3363636,
                "end_time": 16.4704545,
                "pitch": 41,
                "velocity": 51,
                "duration": 0.1340909,
                "tempo": 120.0
            },
            {
                "start_time": 16.4886364,
                "end_time": 16.6204545,
                "pitch": 55,
                "velocity": 51,
                "duration": 0.1318182,
                "tempo": 120.0
            },
            {
                "start_time": 16.6386364,
                "end_time": 16.7704545,
                "pitch": 53,
                "velocity": 51,
                "duration": 0.1318182,
                "tempo": 120.0
            },
            {
                "start_time": 16.7886364,
                "end_time": 16.9204545,
                "pitch": 38,
                "velocity": 51,
                "duration": 0.1318182,
                "tempo": 120.0
            },
            {
                "start_time": 16.9386364,
                "end_time": 17.0704545,
                "pitch": 38,
                "velocity": 51,
                "duration": 0.1318182,
                "tempo": 120.0
            },
            {
                "start_time": 17.0886364,
                "end_time": 17.2204545,
                "pitch": 34,
                "velocity": 51,
                "duration": 0.1318182,
                "tempo": 120.0
            },
            {
                "start_time": 17.2363636,
                "end_time": 17.3681818,
                "pitch": 34,
                "velocity": 51,
                "duration": 0.1318182,
                "tempo": 120.0
            },
            {
                "start_time": 17.3840909,
                "end_time": 17.5159091,
                "pitch": 46,
                "velocity": 51,
                "duration": 0.1318182,
                "tempo": 120.0
            },
            {
                "start_time": 17.5340909,
                "end_time": 17.6659091,
                "pitch": 34,
                "velocity": 51,
                "duration": 0.1318182,
                "tempo": 120.0
            },
            {
                "start_time": 17.6818182,
                "end_time": 17.9704545,
                "pitch": 46,
                "velocity": 51,
                "duration": 0.2886364,
                "tempo": 120.0
            },
            {
                "start_time": 17.9886364,
                "end_time": 18.125,
                "pitch": 41,
                "velocity": 51,
                "duration": 0.1363636,
                "tempo": 120.0
            },
            {
                "start_time": 18.1409091,
                "end_time": 18.2772727,
                "pitch": 41,
                "velocity": 51,
                "duration": 0.1363636,
                "tempo": 120.0
            },
            {
                "start_time": 18.2931818,
                "end_time": 18.4272727,
                "pitch": 53,
                "velocity": 51,
                "duration": 0.1340909,
                "tempo": 120.0
            },
            {
                "start_time": 18.4431818,
                "end_time": 18.5772727,
                "pitch": 53,
                "velocity": 51,
                "duration": 0.1340909,
                "tempo": 120.0
            },
            {
                "start_time": 18.5931818,
                "end_time": 18.7272727,
                "pitch": 56,
                "velocity": 51,
                "duration": 0.1340909,
                "tempo": 120.0
            },
            {
                "start_time": 18.7431818,
                "end_time": 18.8772727,
                "pitch": 56,
                "velocity": 51,
                "duration": 0.1340909,
                "tempo": 120.0
            },
            {
                "start_time": 18.8931818,
                "end_time": 19.0295455,
                "pitch": 53,
                "velocity": 51,
                "duration": 0.1363636,
                "tempo": 120.0
            },
            {
                "start_time": 19.0454545,
                "end_time": 19.1795455,
                "pitch": 53,
                "velocity": 51,
                "duration": 0.1340909,
                "tempo": 120.0
            },
            {
                "start_time": 19.1977273,
                "end_time": 19.3318182,
                "pitch": 39,
                "velocity": 51,
                "duration": 0.1340909,
                "tempo": 120.0
            },
            {
                "start_time": 19.3477273,
                "end_time": 19.4840909,
                "pitch": 39,
                "velocity": 51,
                "duration": 0.1363636,
                "tempo": 120.0
            },
            {
                "start_time": 19.5,
                "end_time": 19.6318182,
                "pitch": 51,
                "velocity": 51,
                "duration": 0.1318182,
                "tempo": 120.0
            },
            {
                "start_time": 19.6477273,
                "end_time": 19.7795455,
                "pitch": 39,
                "velocity": 51,
                "duration": 0.1318182,
                "tempo": 120.0
            },
            {
                "start_time": 19.7977273,
                "end_time": 19.9295455,
                "pitch": 39,
                "velocity": 51,
                "duration": 0.1318182,
                "tempo": 120.0
            },
            {
                "start_time": 19.9454545,
                "end_time": 20.0772727,
                "pitch": 51,
                "velocity": 51,
                "duration": 0.1318182,
                "tempo": 120.0
            },
            {
                "start_time": 20.0931818,
                "end_time": 20.2272727,
                "pitch": 39,
                "velocity": 51,
                "duration": 0.1340909,
                "tempo": 120.0
            },
            {
                "start_time": 20.2431818,
                "end_time": 20.3772727,
                "pitch": 51,
                "velocity": 51,
                "duration": 0.1340909,
                "tempo": 120.0
            },
            {
                "start_time": 20.3931818,
                "end_time": 20.5272727,
                "pitch": 39,
                "velocity": 51,
                "duration": 0.1340909,
                "tempo": 120.0
            },
            {
                "start_time": 20.5431818,
                "end_time": 20.6772727,
                "pitch": 39,
                "velocity": 51,
                "duration": 0.1340909,
                "tempo": 120.0
            },
            {
                "start_time": 20.6931818,
                "end_time": 20.8295455,
                "pitch": 51,
                "velocity": 51,
                "duration": 0.1363636,
                "tempo": 120.0
            },
            {
                "start_time": 20.8477273,
                "end_time": 20.9840909,
                "pitch": 39,
                "velocity": 51,
                "duration": 0.1363636,
                "tempo": 120.0
            },
            {
                "start_time": 21.0,
                "end_time": 21.1363636,
                "pitch": 39,
                "velocity": 51,
                "duration": 0.1363636,
                "tempo": 120.0
            },
            {
                "start_time": 21.1522727,
                "end_time": 21.2886364,
                "pitch": 51,
                "velocity": 51,
                "duration": 0.1363636,
                "tempo": 120.0
            },
            {
                "start_time": 21.3068182,
                "end_time": 21.4386364,
                "pitch": 39,
                "velocity": 51,
                "duration": 0.1318182,
                "tempo": 120.0
            },
            {
                "start_time": 21.4568182,
                "end_time": 21.5886364,
                "pitch": 51,
                "velocity": 51,
                "duration": 0.1318182,
                "tempo": 120.0
            },
            {
                "start_time": 21.6068182,
                "end_time": 21.7386364,
                "pitch": 34,
                "velocity": 51,
                "duration": 0.1318182,
                "tempo": 120.0
            },
            {
                "start_time": 21.7568182,
                "end_time": 21.8886364,
                "pitch": 34,
                "velocity": 51,
                "duration": 0.1318182,
                "tempo": 120.0
            },
            {
                "start_time": 21.9068182,
                "end_time": 22.0386364,
                "pitch": 46,
                "velocity": 51,
                "duration": 0.1318182,
                "tempo": 120.0
            },
            {
                "start_time": 22.0545455,
                "end_time": 22.1863636,
                "pitch": 34,
                "velocity": 51,
                "duration": 0.1318182,
                "tempo": 120.0
            },
            {
                "start_time": 22.2022727,
                "end_time": 22.3363636,
                "pitch": 34,
                "velocity": 51,
                "duration": 0.1340909,
                "tempo": 120.0
            },
            {
                "start_time": 22.3522727,
                "end_time": 22.4840909,
                "pitch": 46,
                "velocity": 51,
                "duration": 0.1318182,
                "tempo": 120.0
            },
            {
                "start_time": 22.5,
                "end_time": 22.6340909,
                "pitch": 34,
                "velocity": 51,
                "duration": 0.1340909,
                "tempo": 120.0
            },
            {
                "start_time": 22.6522727,
                "end_time": 22.7863636,
                "pitch": 34,
                "velocity": 51,
                "duration": 0.1340909,
                "tempo": 120.0
            },
            {
                "start_time": 22.8045455,
                "end_time": 22.9386364,
                "pitch": 34,
                "velocity": 51,
                "duration": 0.1340909,
                "tempo": 120.0
            },
            {
                "start_time": 22.9545455,
                "end_time": 23.0886364,
                "pitch": 34,
                "velocity": 51,
                "duration": 0.1340909,
                "tempo": 120.0
            },
            {
                "start_time": 23.1068182,
                "end_time": 23.2409091,
                "pitch": 46,
                "velocity": 51,
                "duration": 0.1340909,
                "tempo": 120.0
            },
            {
                "start_time": 23.2568182,
                "end_time": 23.3909091,
                "pitch": 34,
                "velocity": 51,
                "duration": 0.1340909,
                "tempo": 120.0
            },
            {
                "start_time": 23.4068182,
                "end_time": 23.5409091,
                "pitch": 48,
                "velocity": 51,
                "duration": 0.1340909,
                "tempo": 120.0
            },
            {
                "start_time": 23.5568182,
                "end_time": 23.6909091,
                "pitch": 34,
                "velocity": 51,
                "duration": 0.1340909,
                "tempo": 120.0
            },
            {
                "start_time": 23.7068182,
                "end_time": 23.8431818,
                "pitch": 46,
                "velocity": 51,
                "duration": 0.1363636,
                "tempo": 120.0
            },
            {
                "start_time": 23.8590909,
                "end_time": 23.9954545,
                "pitch": 34,
                "velocity": 51,
                "duration": 0.1363636,
                "tempo": 120.0
            },
            {
                "start_time": 24.0113636,
                "end_time": 24.1477273,
                "pitch": 41,
                "velocity": 51,
                "duration": 0.1363636,
                "tempo": 120.0
            },
            {
                "start_time": 24.1659091,
                "end_time": 24.3022727,
                "pitch": 41,
                "velocity": 51,
                "duration": 0.1363636,
                "tempo": 120.0
            },
            {
                "start_time": 24.3181818,
                "end_time": 24.45,
                "pitch": 53,
                "velocity": 51,
                "duration": 0.1318182,
                "tempo": 120.0
            },
            {
                "start_time": 24.4659091,
                "end_time": 24.6,
                "pitch": 41,
                "velocity": 51,
                "duration": 0.1340909,
                "tempo": 120.0
            },
            {
                "start_time": 24.6159091,
                "end_time": 24.7477273,
                "pitch": 41,
                "velocity": 51,
                "duration": 0.1318182,
                "tempo": 120.0
            },
            {
                "start_time": 24.7636364,
                "end_time": 24.8954545,
                "pitch": 53,
                "velocity": 51,
                "duration": 0.1318182,
                "tempo": 120.0
            },
            {
                "start_time": 24.9136364,
                "end_time": 25.0477273,
                "pitch": 41,
                "velocity": 51,
                "duration": 0.1340909,
                "tempo": 120.0
            },
            {
                "start_time": 25.0659091,
                "end_time": 25.2022727,
                "pitch": 53,
                "velocity": 51,
                "duration": 0.1363636,
                "tempo": 120.0
            },
            {
                "start_time": 25.2181818,
                "end_time": 25.3545455,
                "pitch": 41,
                "velocity": 51,
                "duration": 0.1363636,
                "tempo": 120.0
            },
            {
                "start_time": 25.3704545,
                "end_time": 25.5068182,
                "pitch": 41,
                "velocity": 51,
                "duration": 0.1363636,
                "tempo": 120.0
            },
            {
                "start_time": 25.525,
                "end_time": 25.6590909,
                "pitch": 53,
                "velocity": 51,
                "duration": 0.1340909,
                "tempo": 120.0
            },
            {
                "start_time": 25.675,
                "end_time": 25.8090909,
                "pitch": 41,
                "velocity": 51,
                "duration": 0.1340909,
                "tempo": 120.0
            },
            {
                "start_time": 25.825,
                "end_time": 25.9590909,
                "pitch": 55,
                "velocity": 51,
                "duration": 0.1340909,
                "tempo": 120.0
            },
            {
                "start_time": 25.975,
                "end_time": 26.1090909,
                "pitch": 53,
                "velocity": 51,
                "duration": 0.1340909,
                "tempo": 120.0
            },
            {
                "start_time": 26.125,
                "end_time": 26.2568182,
                "pitch": 51,
                "velocity": 51,
                "duration": 0.1318182,
                "tempo": 120.0
            },
            {
                "start_time": 26.2727273,
                "end_time": 26.4045455,
                "pitch": 53,
                "velocity": 51,
                "duration": 0.1318182,
                "tempo": 120.0
            },
            {
                "start_time": 26.4227273,
                "end_time": 26.5545455,
                "pitch": 39,
                "velocity": 51,
                "duration": 0.1318182,
                "tempo": 120.0
            },
            {
                "start_time": 26.5704545,
                "end_time": 26.7022727,
                "pitch": 39,
                "velocity": 51,
                "duration": 0.1318182,
                "tempo": 120.0
            },
            {
                "start_time": 26.7181818,
                "end_time": 26.8545455,
                "pitch": 51,
                "velocity": 51,
                "duration": 0.1363636,
                "tempo": 120.0
            },
            {
                "start_time": 26.8704545,
                "end_time": 27.0045455,
                "pitch": 39,
                "velocity": 51,
                "duration": 0.1340909,
                "tempo": 120.0
            },
            {
                "start_time": 27.0227273,
                "end_time": 27.1568182,
                "pitch": 51,
                "velocity": 51,
                "duration": 0.1340909,
                "tempo": 120.0
            },
            {
                "start_time": 27.1727273,
                "end_time": 27.3090909,
                "pitch": 39,
                "velocity": 51,
                "duration": 0.1363636,
                "tempo": 120.0
            },
            {
                "start_time": 27.325,
                "end_time": 27.4590909,
                "pitch": 51,
                "velocity": 51,
                "duration": 0.1340909,
                "tempo": 120.0
            },
            {
                "start_time": 27.4772727,
                "end_time": 27.6113636,
                "pitch": 39,
                "velocity": 51,
                "duration": 0.1340909,
                "tempo": 120.0
            },
            {
                "start_time": 27.6272727,
                "end_time": 27.7636364,
                "pitch": 51,
                "velocity": 51,
                "duration": 0.1363636,
                "tempo": 120.0
            },
            {
                "start_time": 28.2318182,
                "end_time": 28.5136364,
                "pitch": 36,
                "velocity": 51,
                "duration": 0.2818182,
                "tempo": 120.0
            },
            {
                "start_time": 28.5318182,
                "end_time": 28.8181818,
                "pitch": 38,
                "velocity": 51,
                "duration": 0.2863636,
                "tempo": 120.0
            },
            {
                "start_time": 28.8340909,
                "end_time": 28.9681818,
                "pitch": 39,
                "velocity": 51,
                "duration": 0.1340909,
                "tempo": 120.0
            },
            {
                "start_time": 28.9863636,
                "end_time": 29.1204545,
                "pitch": 51,
                "velocity": 51,
                "duration": 0.1340909,
                "tempo": 120.0
            },
            {
                "start_time": 29.1363636,
                "end_time": 29.2704545,
                "pitch": 39,
                "velocity": 51,
                "duration": 0.1340909,
                "tempo": 120.0
            },
            {
                "start_time": 29.2863636,
                "end_time": 29.4204545,
                "pitch": 51,
                "velocity": 51,
                "duration": 0.1340909,
                "tempo": 120.0
            },
            {
                "start_time": 29.4363636,
                "end_time": 29.5704545,
                "pitch": 39,
                "velocity": 51,
                "duration": 0.1340909,
                "tempo": 120.0
            },
            {
                "start_time": 29.5863636,
                "end_time": 29.7204545,
                "pitch": 51,
                "velocity": 51,
                "duration": 0.1340909,
                "tempo": 120.0
            },
            {
                "start_time": 29.7363636,
                "end_time": 29.8727273,
                "pitch": 39,
                "velocity": 51,
                "duration": 0.1363636,
                "tempo": 120.0
            },
            {
                "start_time": 29.8886364,
                "end_time": 30.0227273,
                "pitch": 51,
                "velocity": 51,
                "duration": 0.1340909,
                "tempo": 120.0
            },
            {
                "start_time": 30.0409091,
                "end_time": 30.175,
                "pitch": 39,
                "velocity": 51,
                "duration": 0.1340909,
                "tempo": 120.0
            },
            {
                "start_time": 30.1909091,
                "end_time": 30.3272727,
                "pitch": 51,
                "velocity": 51,
                "duration": 0.1363636,
                "tempo": 120.0
            },
            {
                "start_time": 30.3431818,
                "end_time": 30.4772727,
                "pitch": 39,
                "velocity": 51,
                "duration": 0.1340909,
                "tempo": 120.0
            },
            {
                "start_time": 30.4954545,
                "end_time": 30.6295455,
                "pitch": 51,
                "velocity": 51,
                "duration": 0.1340909,
                "tempo": 120.0
            },
            {
                "start_time": 30.6454545,
                "end_time": 30.7818182,
                "pitch": 39,
                "velocity": 51,
                "duration": 0.1363636,
                "tempo": 120.0
            },
            {
                "start_time": 30.7977273,
                "end_time": 30.9318182,
                "pitch": 48,
                "velocity": 51,
                "duration": 0.1340909,
                "tempo": 120.0
            },
            {
                "start_time": 30.95,
                "end_time": 31.0818182,
                "pitch": 50,
                "velocity": 51,
                "duration": 0.1318182,
                "tempo": 120.0
            },
            {
                "start_time": 31.1,
                "end_time": 31.2318182,
                "pitch": 51,
                "velocity": 51,
                "duration": 0.1318182,
                "tempo": 120.0
            },
            {
                "start_time": 31.25,
                "end_time": 31.3818182,
                "pitch": 41,
                "velocity": 51,
                "duration": 0.1318182,
                "tempo": 120.0
            },
            {
                "start_time": 31.4,
                "end_time": 31.5318182,
                "pitch": 53,
                "velocity": 51,
                "duration": 0.1318182,
                "tempo": 120.0
            },
            {
                "start_time": 31.55,
                "end_time": 31.6840909,
                "pitch": 41,
                "velocity": 51,
                "duration": 0.1340909,
                "tempo": 120.0
            },
            {
                "start_time": 31.7022727,
                "end_time": 31.8386364,
                "pitch": 53,
                "velocity": 51,
                "duration": 0.1363636,
                "tempo": 120.0
            },
            {
                "start_time": 31.8545455,
                "end_time": 31.9909091,
                "pitch": 41,
                "velocity": 51,
                "duration": 0.1363636,
                "tempo": 120.0
            },
            {
                "start_time": 32.0090909,
                "end_time": 32.1431818,
                "pitch": 53,
                "velocity": 51,
                "duration": 0.1340909,
                "tempo": 120.0
            },
            {
                "start_time": 32.1613636,
                "end_time": 32.2954545,
                "pitch": 41,
                "velocity": 51,
                "duration": 0.1340909,
                "tempo": 120.0
            },
            {
                "start_time": 32.3136364,
                "end_time": 32.4477273,
                "pitch": 53,
                "velocity": 51,
                "duration": 0.1340909,
                "tempo": 120.0
            },
            {
                "start_time": 32.4636364,
                "end_time": 32.6,
                "pitch": 41,
                "velocity": 51,
                "duration": 0.1363636,
                "tempo": 120.0
            },
            {
                "start_time": 32.6159091,
                "end_time": 32.75,
                "pitch": 53,
                "velocity": 51,
                "duration": 0.1340909,
                "tempo": 120.0
            },
            {
                "start_time": 32.7681818,
                "end_time": 32.9,
                "pitch": 41,
                "velocity": 51,
                "duration": 0.1318182,
                "tempo": 120.0
            },
            {
                "start_time": 32.9181818,
                "end_time": 33.05,
                "pitch": 53,
                "velocity": 51,
                "duration": 0.1318182,
                "tempo": 120.0
            },
            {
                "start_time": 33.0681818,
                "end_time": 33.2,
                "pitch": 41,
                "velocity": 51,
                "duration": 0.1318182,
                "tempo": 120.0
            },
            {
                "start_time": 33.2181818,
                "end_time": 33.35,
                "pitch": 55,
                "velocity": 51,
                "duration": 0.1318182,
                "tempo": 120.0
            },
            {
                "start_time": 33.3681818,
                "end_time": 33.5,
                "pitch": 53,
                "velocity": 51,
                "duration": 0.1318182,
                "tempo": 120.0
            },
            {
                "start_time": 33.5159091,
                "end_time": 33.6477273,
                "pitch": 51,
                "velocity": 51,
                "duration": 0.1318182,
                "tempo": 120.0
            },
            {
                "start_time": 33.6636364,
                "end_time": 33.7954545,
                "pitch": 39,
                "velocity": 51,
                "duration": 0.1318182,
                "tempo": 120.0
            },
            {
                "start_time": 33.8136364,
                "end_time": 33.9454545,
                "pitch": 51,
                "velocity": 51,
                "duration": 0.1318182,
                "tempo": 120.0
            },
            {
                "start_time": 33.9613636,
                "end_time": 34.0977273,
                "pitch": 39,
                "velocity": 51,
                "duration": 0.1363636,
                "tempo": 120.0
            },
            {
                "start_time": 34.1136364,
                "end_time": 34.25,
                "pitch": 51,
                "velocity": 51,
                "duration": 0.1363636,
                "tempo": 120.0
            },
            {
                "start_time": 34.2681818,
                "end_time": 34.4022727,
                "pitch": 39,
                "velocity": 51,
                "duration": 0.1340909,
                "tempo": 120.0
            },
            {
                "start_time": 34.4204545,
                "end_time": 34.5568182,
                "pitch": 51,
                "velocity": 51,
                "duration": 0.1363636,
                "tempo": 120.0
            },
            {
                "start_time": 34.5727273,
                "end_time": 34.7045455,
                "pitch": 39,
                "velocity": 51,
                "duration": 0.1318182,
                "tempo": 120.0
            },
            {
                "start_time": 34.7227273,
                "end_time": 34.8545455,
                "pitch": 51,
                "velocity": 51,
                "duration": 0.1318182,
                "tempo": 120.0
            },
            {
                "start_time": 34.8704545,
                "end_time": 35.0022727,
                "pitch": 39,
                "velocity": 51,
                "duration": 0.1318182,
                "tempo": 120.0
            },
            {
                "start_time": 35.0181818,
                "end_time": 35.15,
                "pitch": 51,
                "velocity": 51,
                "duration": 0.1318182,
                "tempo": 120.0
            },
            {
                "start_time": 35.1681818,
                "end_time": 35.3022727,
                "pitch": 39,
                "velocity": 51,
                "duration": 0.1340909,
                "tempo": 120.0
            },
            {
                "start_time": 35.3204545,
                "end_time": 35.4568182,
                "pitch": 51,
                "velocity": 51,
                "duration": 0.1363636,
                "tempo": 120.0
            },
            {
                "start_time": 35.4727273,
                "end_time": 35.6090909,
                "pitch": 39,
                "velocity": 51,
                "duration": 0.1363636,
                "tempo": 120.0
            },
            {
                "start_time": 35.6272727,
                "end_time": 35.7613636,
                "pitch": 48,
                "velocity": 51,
                "duration": 0.1340909,
                "tempo": 120.0
            },
            {
                "start_time": 35.7795455,
                "end_time": 35.9113636,
                "pitch": 50,
                "velocity": 51,
                "duration": 0.1318182,
                "tempo": 120.0
            },
            {
                "start_time": 35.9272727,
                "end_time": 36.0590909,
                "pitch": 51,
                "velocity": 51,
                "duration": 0.1318182,
                "tempo": 120.0
            },
            {
                "start_time": 36.0772727,
                "end_time": 36.2090909,
                "pitch": 41,
                "velocity": 51,
                "duration": 0.1318182,
                "tempo": 120.0
            },
            {
                "start_time": 36.225,
                "end_time": 36.3568182,
                "pitch": 53,
                "velocity": 51,
                "duration": 0.1318182,
                "tempo": 120.0
            },
            {
                "start_time": 36.3727273,
                "end_time": 36.5090909,
                "pitch": 41,
                "velocity": 51,
                "duration": 0.1363636,
                "tempo": 120.0
            },
            {
                "start_time": 36.525,
                "end_time": 36.6590909,
                "pitch": 53,
                "velocity": 51,
                "duration": 0.1340909,
                "tempo": 120.0
            },
            {
                "start_time": 36.6772727,
                "end_time": 36.8113636,
                "pitch": 41,
                "velocity": 51,
                "duration": 0.1340909,
                "tempo": 120.0
            },
            {
                "start_time": 36.8272727,
                "end_time": 36.9636364,
                "pitch": 53,
                "velocity": 51,
                "duration": 0.1363636,
                "tempo": 120.0
            },
            {
                "start_time": 36.9795455,
                "end_time": 37.1159091,
                "pitch": 41,
                "velocity": 51,
                "duration": 0.1363636,
                "tempo": 120.0
            },
            {
                "start_time": 37.1318182,
                "end_time": 37.2681818,
                "pitch": 53,
                "velocity": 51,
                "duration": 0.1363636,
                "tempo": 120.0
            },
            {
                "start_time": 37.2863636,
                "end_time": 37.4227273,
                "pitch": 41,
                "velocity": 51,
                "duration": 0.1363636,
                "tempo": 120.0
            },
            {
                "start_time": 37.4386364,
                "end_time": 37.575,
                "pitch": 53,
                "velocity": 51,
                "duration": 0.1363636,
                "tempo": 120.0
            },
            {
                "start_time": 37.5909091,
                "end_time": 37.7272727,
                "pitch": 41,
                "velocity": 51,
                "duration": 0.1363636,
                "tempo": 120.0
            },
            {
                "start_time": 37.7431818,
                "end_time": 37.8772727,
                "pitch": 53,
                "velocity": 51,
                "duration": 0.1340909,
                "tempo": 120.0
            },
            {
                "start_time": 37.8954545,
                "end_time": 38.0295455,
                "pitch": 41,
                "velocity": 51,
                "duration": 0.1340909,
                "tempo": 120.0
            },
            {
                "start_time": 38.0454545,
                "end_time": 38.1818182,
                "pitch": 55,
                "velocity": 51,
                "duration": 0.1363636,
                "tempo": 120.0
            },
            {
                "start_time": 38.1977273,
                "end_time": 38.3318182,
                "pitch": 53,
                "velocity": 51,
                "duration": 0.1340909,
                "tempo": 120.0
            },
            {
                "start_time": 38.35,
                "end_time": 38.4840909,
                "pitch": 51,
                "velocity": 51,
                "duration": 0.1340909,
                "tempo": 120.0
            },
            {
                "start_time": 38.5,
                "end_time": 38.6363636,
                "pitch": 39,
                "velocity": 51,
                "duration": 0.1363636,
                "tempo": 120.0
            },
            {
                "start_time": 38.6522727,
                "end_time": 38.7863636,
                "pitch": 39,
                "velocity": 51,
                "duration": 0.1340909,
                "tempo": 120.0
            },
            {
                "start_time": 38.8045455,
                "end_time": 38.9363636,
                "pitch": 51,
                "velocity": 51,
                "duration": 0.1318182,
                "tempo": 120.0
            },
            {
                "start_time": 38.9522727,
                "end_time": 39.0840909,
                "pitch": 39,
                "velocity": 51,
                "duration": 0.1318182,
                "tempo": 120.0
            },
            {
                "start_time": 39.1,
                "end_time": 39.2318182,
                "pitch": 39,
                "velocity": 51,
                "duration": 0.1318182,
                "tempo": 120.0
            },
            {
                "start_time": 39.25,
                "end_time": 39.3818182,
                "pitch": 51,
                "velocity": 51,
                "duration": 0.1318182,
                "tempo": 120.0
            },
            {
                "start_time": 39.3977273,
                "end_time": 39.5318182,
                "pitch": 39,
                "velocity": 51,
                "duration": 0.1340909,
                "tempo": 120.0
            },
            {
                "start_time": 39.55,
                "end_time": 39.6840909,
                "pitch": 51,
                "velocity": 51,
                "duration": 0.1340909,
                "tempo": 120.0
            },
            {
                "start_time": 39.7,
                "end_time": 39.8363636,
                "pitch": 39,
                "velocity": 51,
                "duration": 0.1363636,
                "tempo": 120.0
            },
            {
                "start_time": 39.8522727,
                "end_time": 39.9863636,
                "pitch": 39,
                "velocity": 51,
                "duration": 0.1340909,
                "tempo": 120.0
            },
            {
                "start_time": 40.0045455,
                "end_time": 40.1386364,
                "pitch": 51,
                "velocity": 51,
                "duration": 0.1340909,
                "tempo": 120.0
            },
            {
                "start_time": 40.1545455,
                "end_time": 40.2909091,
                "pitch": 39,
                "velocity": 51,
                "duration": 0.1363636,
                "tempo": 120.0
            },
            {
                "start_time": 40.3068182,
                "end_time": 40.4409091,
                "pitch": 39,
                "velocity": 51,
                "duration": 0.1340909,
                "tempo": 120.0
            },
            {
                "start_time": 40.4590909,
                "end_time": 40.5931818,
                "pitch": 51,
                "velocity": 51,
                "duration": 0.1340909,
                "tempo": 120.0
            },
            {
                "start_time": 40.6090909,
                "end_time": 40.7431818,
                "pitch": 39,
                "velocity": 51,
                "duration": 0.1340909,
                "tempo": 120.0
            },
            {
                "start_time": 40.7590909,
                "end_time": 40.8931818,
                "pitch": 51,
                "velocity": 51,
                "duration": 0.1340909,
                "tempo": 120.0
            },
            {
                "start_time": 40.9090909,
                "end_time": 41.0431818,
                "pitch": 34,
                "velocity": 51,
                "duration": 0.1340909,
                "tempo": 120.0
            },
            {
                "start_time": 41.0590909,
                "end_time": 41.1931818,
                "pitch": 34,
                "velocity": 51,
                "duration": 0.1340909,
                "tempo": 120.0
            },
            {
                "start_time": 41.2090909,
                "end_time": 41.3454545,
                "pitch": 46,
                "velocity": 51,
                "duration": 0.1363636,
                "tempo": 120.0
            },
            {
                "start_time": 41.3613636,
                "end_time": 41.4954545,
                "pitch": 34,
                "velocity": 51,
                "duration": 0.1340909,
                "tempo": 120.0
            },
            {
                "start_time": 41.5136364,
                "end_time": 41.6477273,
                "pitch": 34,
                "velocity": 51,
                "duration": 0.1340909,
                "tempo": 120.0
            },
            {
                "start_time": 41.6636364,
                "end_time": 41.8,
                "pitch": 46,
                "velocity": 51,
                "duration": 0.1363636,
                "tempo": 120.0
            },
            {
                "start_time": 41.8159091,
                "end_time": 41.95,
                "pitch": 34,
                "velocity": 51,
                "duration": 0.1340909,
                "tempo": 120.0
            },
            {
                "start_time": 41.9681818,
                "end_time": 42.1022727,
                "pitch": 34,
                "velocity": 51,
                "duration": 0.1340909,
                "tempo": 120.0
            },
            {
                "start_time": 42.1181818,
                "end_time": 42.2545455,
                "pitch": 34,
                "velocity": 51,
                "duration": 0.1363636,
                "tempo": 120.0
            },
            {
                "start_time": 42.2704545,
                "end_time": 42.4045455,
                "pitch": 34,
                "velocity": 51,
                "duration": 0.1340909,
                "tempo": 120.0
            },
            {
                "start_time": 42.4227273,
                "end_time": 42.5568182,
                "pitch": 46,
                "velocity": 51,
                "duration": 0.1340909,
                "tempo": 120.0
            },
            {
                "start_time": 42.5727273,
                "end_time": 42.7090909,
                "pitch": 34,
                "velocity": 51,
                "duration": 0.1363636,
                "tempo": 120.0
            },
            {
                "start_time": 42.725,
                "end_time": 42.8590909,
                "pitch": 48,
                "velocity": 51,
                "duration": 0.1340909,
                "tempo": 120.0
            },
            {
                "start_time": 42.8772727,
                "end_time": 43.0113636,
                "pitch": 34,
                "velocity": 51,
                "duration": 0.1340909,
                "tempo": 120.0
            },
            {
                "start_time": 43.0272727,
                "end_time": 43.1636364,
                "pitch": 46,
                "velocity": 51,
                "duration": 0.1363636,
                "tempo": 120.0
            },
            {
                "start_time": 43.1818182,
                "end_time": 43.3181818,
                "pitch": 34,
                "velocity": 51,
                "duration": 0.1363636,
                "tempo": 120.0
            },
            {
                "start_time": 43.3340909,
                "end_time": 43.4704545,
                "pitch": 41,
                "velocity": 51,
                "duration": 0.1363636,
                "tempo": 120.0
            },
            {
                "start_time": 43.4863636,
                "end_time": 43.6227273,
                "pitch": 41,
                "velocity": 51,
                "duration": 0.1363636,
                "tempo": 120.0
            },
            {
                "start_time": 43.6409091,
                "end_time": 43.7727273,
                "pitch": 53,
                "velocity": 51,
                "duration": 0.1318182,
                "tempo": 120.0
            },
            {
                "start_time": 43.7886364,
                "end_time": 43.9204545,
                "pitch": 41,
                "velocity": 51,
                "duration": 0.1318182,
                "tempo": 120.0
            },
            {
                "start_time": 43.9363636,
                "end_time": 44.0704545,
                "pitch": 41,
                "velocity": 51,
                "duration": 0.1340909,
                "tempo": 120.0
            },
            {
                "start_time": 44.0863636,
                "end_time": 44.2181818,
                "pitch": 53,
                "velocity": 51,
                "duration": 0.1318182,
                "tempo": 120.0
            },
            {
                "start_time": 44.2340909,
                "end_time": 44.3681818,
                "pitch": 41,
                "velocity": 51,
                "duration": 0.1340909,
                "tempo": 120.0
            },
            {
                "start_time": 44.3863636,
                "end_time": 44.5204545,
                "pitch": 53,
                "velocity": 51,
                "duration": 0.1340909,
                "tempo": 120.0
            },
            {
                "start_time": 44.5386364,
                "end_time": 44.6727273,
                "pitch": 41,
                "velocity": 51,
                "duration": 0.1340909,
                "tempo": 120.0
            },
            {
                "start_time": 44.6886364,
                "end_time": 44.8227273,
                "pitch": 41,
                "velocity": 51,
                "duration": 0.1340909,
                "tempo": 120.0
            },
            {
                "start_time": 44.8409091,
                "end_time": 44.975,
                "pitch": 53,
                "velocity": 51,
                "duration": 0.1340909,
                "tempo": 120.0
            },
            {
                "start_time": 44.9931818,
                "end_time": 45.1272727,
                "pitch": 41,
                "velocity": 51,
                "duration": 0.1340909,
                "tempo": 120.0
            },
            {
                "start_time": 45.1431818,
                "end_time": 45.2772727,
                "pitch": 53,
                "velocity": 51,
                "duration": 0.1340909,
                "tempo": 120.0
            },
            {
                "start_time": 45.2954545,
                "end_time": 45.4295455,
                "pitch": 41,
                "velocity": 51,
                "duration": 0.1340909,
                "tempo": 120.0
            },
            {
                "start_time": 45.4477273,
                "end_time": 45.5818182,
                "pitch": 55,
                "velocity": 51,
                "duration": 0.1340909,
                "tempo": 120.0
            },
            {
                "start_time": 45.5977273,
                "end_time": 45.7318182,
                "pitch": 53,
                "velocity": 51,
                "duration": 0.1340909,
                "tempo": 120.0
            },
            {
                "start_time": 45.75,
                "end_time": 45.8840909,
                "pitch": 38,
                "velocity": 51,
                "duration": 0.1340909,
                "tempo": 120.0
            },
            {
                "start_time": 45.9022727,
                "end_time": 46.0363636,
                "pitch": 38,
                "velocity": 51,
                "duration": 0.1340909,
                "tempo": 120.0
            },
            {
                "start_time": 46.0522727,
                "end_time": 46.1863636,
                "pitch": 34,
                "velocity": 51,
                "duration": 0.1340909,
                "tempo": 120.0
            },
            {
                "start_time": 46.2045455,
                "end_time": 46.3386364,
                "pitch": 34,
                "velocity": 51,
                "duration": 0.1340909,
                "tempo": 120.0
            },
            {
                "start_time": 46.3568182,
                "end_time": 46.4909091,
                "pitch": 46,
                "velocity": 51,
                "duration": 0.1340909,
                "tempo": 120.0
            },
            {
                "start_time": 46.5068182,
                "end_time": 46.6409091,
                "pitch": 34,
                "velocity": 51,
                "duration": 0.1340909,
                "tempo": 120.0
            },
            {
                "start_time": 46.6590909,
                "end_time": 46.9409091,
                "pitch": 46,
                "velocity": 51,
                "duration": 0.2818182,
                "tempo": 120.0
            },
            {
                "start_time": 46.9590909,
                "end_time": 47.0909091,
                "pitch": 41,
                "velocity": 51,
                "duration": 0.1318182,
                "tempo": 120.0
            },
            {
                "start_time": 47.1090909,
                "end_time": 47.2409091,
                "pitch": 41,
                "velocity": 51,
                "duration": 0.1318182,
                "tempo": 120.0
            },
            {
                "start_time": 47.2590909,
                "end_time": 47.3931818,
                "pitch": 53,
                "velocity": 51,
                "duration": 0.1340909,
                "tempo": 120.0
            },
            {
                "start_time": 47.4113636,
                "end_time": 47.5454545,
                "pitch": 53,
                "velocity": 51,
                "duration": 0.1340909,
                "tempo": 120.0
            },
            {
                "start_time": 47.5613636,
                "end_time": 47.6954545,
                "pitch": 56,
                "velocity": 51,
                "duration": 0.1340909,
                "tempo": 120.0
            },
            {
                "start_time": 47.7136364,
                "end_time": 47.8477273,
                "pitch": 56,
                "velocity": 51,
                "duration": 0.1340909,
                "tempo": 120.0
            },
            {
                "start_time": 47.8659091,
                "end_time": 48.0,
                "pitch": 53,
                "velocity": 51,
                "duration": 0.1340909,
                "tempo": 120.0
            },
            {
                "start_time": 48.0181818,
                "end_time": 48.1545455,
                "pitch": 53,
                "velocity": 51,
                "duration": 0.1363636,
                "tempo": 120.0
            },
            {
                "start_time": 48.1704545,
                "end_time": 48.3068182,
                "pitch": 39,
                "velocity": 51,
                "duration": 0.1363636,
                "tempo": 120.0
            },
            {
                "start_time": 48.325,
                "end_time": 48.4590909,
                "pitch": 39,
                "velocity": 51,
                "duration": 0.1340909,
                "tempo": 120.0
            },
            {
                "start_time": 48.4772727,
                "end_time": 48.6090909,
                "pitch": 51,
                "velocity": 51,
                "duration": 0.1318182,
                "tempo": 120.0
            },
            {
                "start_time": 48.625,
                "end_time": 48.7568182,
                "pitch": 39,
                "velocity": 51,
                "duration": 0.1318182,
                "tempo": 120.0
            },
            {
                "start_time": 48.775,
                "end_time": 48.9068182,
                "pitch": 39,
                "velocity": 51,
                "duration": 0.1318182,
                "tempo": 120.0
            },
            {
                "start_time": 48.9227273,
                "end_time": 49.0545455,
                "pitch": 51,
                "velocity": 51,
                "duration": 0.1318182,
                "tempo": 120.0
            },
            {
                "start_time": 49.0704545,
                "end_time": 49.2045455,
                "pitch": 39,
                "velocity": 51,
                "duration": 0.1340909,
                "tempo": 120.0
            },
            {
                "start_time": 49.2227273,
                "end_time": 49.3568182,
                "pitch": 51,
                "velocity": 51,
                "duration": 0.1340909,
                "tempo": 120.0
            },
            {
                "start_time": 49.375,
                "end_time": 49.5090909,
                "pitch": 39,
                "velocity": 51,
                "duration": 0.1340909,
                "tempo": 120.0
            },
            {
                "start_time": 49.525,
                "end_time": 49.6590909,
                "pitch": 39,
                "velocity": 51,
                "duration": 0.1340909,
                "tempo": 120.0
            },
            {
                "start_time": 49.6772727,
                "end_time": 49.8136364,
                "pitch": 51,
                "velocity": 51,
                "duration": 0.1363636,
                "tempo": 120.0
            },
            {
                "start_time": 49.8295455,
                "end_time": 49.9659091,
                "pitch": 39,
                "velocity": 51,
                "duration": 0.1363636,
                "tempo": 120.0
            },
            {
                "start_time": 49.9840909,
                "end_time": 50.1181818,
                "pitch": 39,
                "velocity": 51,
                "duration": 0.1340909,
                "tempo": 120.0
            },
            {
                "start_time": 50.1363636,
                "end_time": 50.2727273,
                "pitch": 51,
                "velocity": 51,
                "duration": 0.1363636,
                "tempo": 120.0
            },
            {
                "start_time": 50.2886364,
                "end_time": 50.4204545,
                "pitch": 39,
                "velocity": 51,
                "duration": 0.1318182,
                "tempo": 120.0
            },
            {
                "start_time": 50.4386364,
                "end_time": 50.5704545,
                "pitch": 51,
                "velocity": 51,
                "duration": 0.1318182,
                "tempo": 120.0
            },
            {
                "start_time": 50.5863636,
                "end_time": 50.7181818,
                "pitch": 34,
                "velocity": 51,
                "duration": 0.1318182,
                "tempo": 120.0
            },
            {
                "start_time": 50.7340909,
                "end_time": 50.8659091,
                "pitch": 34,
                "velocity": 51,
                "duration": 0.1318182,
                "tempo": 120.0
            },
            {
                "start_time": 50.8840909,
                "end_time": 51.0181818,
                "pitch": 46,
                "velocity": 51,
                "duration": 0.1340909,
                "tempo": 120.0
            },
            {
                "start_time": 51.0363636,
                "end_time": 51.1727273,
                "pitch": 34,
                "velocity": 51,
                "duration": 0.1363636,
                "tempo": 120.0
            },
            {
                "start_time": 51.1886364,
                "end_time": 51.325,
                "pitch": 34,
                "velocity": 51,
                "duration": 0.1363636,
                "tempo": 120.0
            },
            {
                "start_time": 51.3431818,
                "end_time": 51.4772727,
                "pitch": 46,
                "velocity": 51,
                "duration": 0.1340909,
                "tempo": 120.0
            },
            {
                "start_time": 51.4954545,
                "end_time": 51.6272727,
                "pitch": 34,
                "velocity": 51,
                "duration": 0.1318182,
                "tempo": 120.0
            },
            {
                "start_time": 51.6431818,
                "end_time": 51.775,
                "pitch": 34,
                "velocity": 51,
                "duration": 0.1318182,
                "tempo": 120.0
            },
            {
                "start_time": 51.7931818,
                "end_time": 51.925,
                "pitch": 34,
                "velocity": 51,
                "duration": 0.1318182,
                "tempo": 120.0
            },
            {
                "start_time": 51.9409091,
                "end_time": 52.0727273,
                "pitch": 34,
                "velocity": 51,
                "duration": 0.1318182,
                "tempo": 120.0
            },
            {
                "start_time": 52.0886364,
                "end_time": 52.225,
                "pitch": 46,
                "velocity": 51,
                "duration": 0.1363636,
                "tempo": 120.0
            },
            {
                "start_time": 52.2409091,
                "end_time": 52.375,
                "pitch": 34,
                "velocity": 51,
                "duration": 0.1340909,
                "tempo": 120.0
            },
            {
                "start_time": 52.3931818,
                "end_time": 52.5272727,
                "pitch": 48,
                "velocity": 51,
                "duration": 0.1340909,
                "tempo": 120.0
            },
            {
                "start_time": 52.5431818,
                "end_time": 52.6795455,
                "pitch": 34,
                "velocity": 51,
                "duration": 0.1363636,
                "tempo": 120.0
            },
            {
                "start_time": 52.6954545,
                "end_time": 52.8318182,
                "pitch": 46,
                "velocity": 51,
                "duration": 0.1363636,
                "tempo": 120.0
            },
            {
                "start_time": 52.8477273,
                "end_time": 52.9840909,
                "pitch": 34,
                "velocity": 51,
                "duration": 0.1363636,
                "tempo": 120.0
            },
            {
                "start_time": 53.0022727,
                "end_time": 53.1363636,
                "pitch": 41,
                "velocity": 51,
                "duration": 0.1340909,
                "tempo": 120.0
            },
            {
                "start_time": 53.1545455,
                "end_time": 53.2909091,
                "pitch": 41,
                "velocity": 51,
                "duration": 0.1363636,
                "tempo": 120.0
            },
            {
                "start_time": 53.3068182,
                "end_time": 53.4386364,
                "pitch": 53,
                "velocity": 51,
                "duration": 0.1318182,
                "tempo": 120.0
            },
            {
                "start_time": 53.4568182,
                "end_time": 53.5886364,
                "pitch": 41,
                "velocity": 51,
                "duration": 0.1318182,
                "tempo": 120.0
            },
            {
                "start_time": 53.6045455,
                "end_time": 53.7363636,
                "pitch": 41,
                "velocity": 51,
                "duration": 0.1318182,
                "tempo": 120.0
            },
            {
                "start_time": 53.7522727,
                "end_time": 53.8840909,
                "pitch": 53,
                "velocity": 51,
                "duration": 0.1318182,
                "tempo": 120.0
            },
            {
                "start_time": 53.9022727,
                "end_time": 54.0363636,
                "pitch": 41,
                "velocity": 51,
                "duration": 0.1340909,
                "tempo": 120.0
            },
            {
                "start_time": 54.0545455,
                "end_time": 54.1909091,
                "pitch": 53,
                "velocity": 51,
                "duration": 0.1363636,
                "tempo": 120.0
            },
            {
                "start_time": 54.2068182,
                "end_time": 54.3431818,
                "pitch": 41,
                "velocity": 51,
                "duration": 0.1363636,
                "tempo": 120.0
            },
            {
                "start_time": 54.3613636,
                "end_time": 54.4954545,
                "pitch": 41,
                "velocity": 51,
                "duration": 0.1340909,
                "tempo": 120.0
            },
            {
                "start_time": 54.5136364,
                "end_time": 54.6477273,
                "pitch": 53,
                "velocity": 51,
                "duration": 0.1340909,
                "tempo": 120.0
            },
            {
                "start_time": 54.6659091,
                "end_time": 54.8,
                "pitch": 41,
                "velocity": 51,
                "duration": 0.1340909,
                "tempo": 120.0
            },
            {
                "start_time": 54.8159091,
                "end_time": 54.9522727,
                "pitch": 55,
                "velocity": 51,
                "duration": 0.1363636,
                "tempo": 120.0
            },
            {
                "start_time": 54.9681818,
                "end_time": 55.1022727,
                "pitch": 53,
                "velocity": 51,
                "duration": 0.1340909,
                "tempo": 120.0
            },
            {
                "start_time": 55.1204545,
                "end_time": 55.2522727,
                "pitch": 51,
                "velocity": 51,
                "duration": 0.1318182,
                "tempo": 120.0
            },
            {
                "start_time": 55.2681818,
                "end_time": 55.4,
                "pitch": 53,
                "velocity": 51,
                "duration": 0.1318182,
                "tempo": 120.0
            },
            {
                "start_time": 55.4159091,
                "end_time": 55.5477273,
                "pitch": 39,
                "velocity": 51,
                "duration": 0.1318182,
                "tempo": 120.0
            },
            {
                "start_time": 55.5659091,
                "end_time": 55.6977273,
                "pitch": 39,
                "velocity": 51,
                "duration": 0.1318182,
                "tempo": 120.0
            },
            {
                "start_time": 55.7136364,
                "end_time": 55.8477273,
                "pitch": 51,
                "velocity": 51,
                "duration": 0.1340909,
                "tempo": 120.0
            },
            {
                "start_time": 55.8636364,
                "end_time": 55.9977273,
                "pitch": 39,
                "velocity": 51,
                "duration": 0.1340909,
                "tempo": 120.0
            },
            {
                "start_time": 56.0136364,
                "end_time": 56.1477273,
                "pitch": 51,
                "velocity": 51,
                "duration": 0.1340909,
                "tempo": 120.0
            },
            {
                "start_time": 56.1636364,
                "end_time": 56.2977273,
                "pitch": 39,
                "velocity": 51,
                "duration": 0.1340909,
                "tempo": 120.0
            },
            {
                "start_time": 56.3136364,
                "end_time": 56.4477273,
                "pitch": 51,
                "velocity": 51,
                "duration": 0.1340909,
                "tempo": 120.0
            },
            {
                "start_time": 56.4659091,
                "end_time": 56.6,
                "pitch": 39,
                "velocity": 51,
                "duration": 0.1340909,
                "tempo": 120.0
            },
            {
                "start_time": 56.6159091,
                "end_time": 56.7522727,
                "pitch": 39,
                "velocity": 51,
                "duration": 0.1363636,
                "tempo": 120.0
            },
            {
                "start_time": 57.225,
                "end_time": 57.5159091,
                "pitch": 39,
                "velocity": 51,
                "duration": 0.2909091,
                "tempo": 120.0
            },
            {
                "start_time": 57.5318182,
                "end_time": 57.8181818,
                "pitch": 40,
                "velocity": 51,
                "duration": 0.2863636,
                "tempo": 120.0
            },
            {
                "start_time": 57.8340909,
                "end_time": 57.9704545,
                "pitch": 53,
                "velocity": 51,
                "duration": 0.1363636,
                "tempo": 120.0
            },
            {
                "start_time": 57.9863636,
                "end_time": 58.1204545,
                "pitch": 53,
                "velocity": 51,
                "duration": 0.1340909,
                "tempo": 120.0
            },
            {
                "start_time": 58.1386364,
                "end_time": 58.2727273,
                "pitch": 51,
                "velocity": 51,
                "duration": 0.1340909,
                "tempo": 120.0
            },
            {
                "start_time": 58.2886364,
                "end_time": 58.575,
                "pitch": 48,
                "velocity": 51,
                "duration": 0.2863636,
                "tempo": 120.0
            },
            {
                "start_time": 58.5931818,
                "end_time": 58.7272727,
                "pitch": 53,
                "velocity": 51,
                "duration": 0.1340909,
                "tempo": 120.0
            },
            {
                "start_time": 58.7431818,
                "end_time": 58.8795455,
                "pitch": 51,
                "velocity": 51,
                "duration": 0.1363636,
                "tempo": 120.0
            },
            {
                "start_time": 58.8954545,
                "end_time": 59.0295455,
                "pitch": 48,
                "velocity": 51,
                "duration": 0.1340909,
                "tempo": 120.0
            },
            {
                "start_time": 59.0477273,
                "end_time": 59.1818182,
                "pitch": 53,
                "velocity": 51,
                "duration": 0.1340909,
                "tempo": 120.0
            },
            {
                "start_time": 59.1977273,
                "end_time": 59.3340909,
                "pitch": 53,
                "velocity": 51,
                "duration": 0.1363636,
                "tempo": 120.0
            },
            {
                "start_time": 59.35,
                "end_time": 59.4840909,
                "pitch": 51,
                "velocity": 51,
                "duration": 0.1340909,
                "tempo": 120.0
            },
            {
                "start_time": 59.5022727,
                "end_time": 59.7886364,
                "pitch": 48,
                "velocity": 51,
                "duration": 0.2863636,
                "tempo": 120.0
            },
            {
                "start_time": 59.8045455,
                "end_time": 59.9386364,
                "pitch": 53,
                "velocity": 51,
                "duration": 0.1340909,
                "tempo": 120.0
            },
            {
                "start_time": 59.9568182,
                "end_time": 60.0886364,
                "pitch": 51,
                "velocity": 51,
                "duration": 0.1318182,
                "tempo": 120.0
            },
            {
                "start_time": 60.1045455,
                "end_time": 60.2363636,
                "pitch": 48,
                "velocity": 51,
                "duration": 0.1318182,
                "tempo": 120.0
            },
            {
                "start_time": 60.2522727,
                "end_time": 60.3840909,
                "pitch": 51,
                "velocity": 51,
                "duration": 0.1318182,
                "tempo": 120.0
            },
            {
                "start_time": 60.4022727,
                "end_time": 60.5340909,
                "pitch": 51,
                "velocity": 51,
                "duration": 0.1318182,
                "tempo": 120.0
            },
            {
                "start_time": 60.55,
                "end_time": 60.6863636,
                "pitch": 50,
                "velocity": 51,
                "duration": 0.1363636,
                "tempo": 120.0
            },
            {
                "start_time": 60.7022727,
                "end_time": 60.9931818,
                "pitch": 46,
                "velocity": 51,
                "duration": 0.2909091,
                "tempo": 120.0
            },
            {
                "start_time": 61.0090909,
                "end_time": 61.1454545,
                "pitch": 46,
                "velocity": 51,
                "duration": 0.1363636,
                "tempo": 120.0
            },
            {
                "start_time": 61.1613636,
                "end_time": 61.2931818,
                "pitch": 50,
                "velocity": 51,
                "duration": 0.1318182,
                "tempo": 120.0
            },
            {
                "start_time": 61.3113636,
                "end_time": 61.4431818,
                "pitch": 46,
                "velocity": 51,
                "duration": 0.1318182,
                "tempo": 120.0
            },
            {
                "start_time": 61.4590909,
                "end_time": 61.5909091,
                "pitch": 51,
                "velocity": 51,
                "duration": 0.1318182,
                "tempo": 120.0
            },
            {
                "start_time": 61.6068182,
                "end_time": 61.7386364,
                "pitch": 51,
                "velocity": 51,
                "duration": 0.1318182,
                "tempo": 120.0
            },
            {
                "start_time": 61.7568182,
                "end_time": 61.8931818,
                "pitch": 50,
                "velocity": 51,
                "duration": 0.1363636,
                "tempo": 120.0
            },
            {
                "start_time": 61.9090909,
                "end_time": 62.1977273,
                "pitch": 46,
                "velocity": 51,
                "duration": 0.2886364,
                "tempo": 120.0
            },
            {
                "start_time": 62.2159091,
                "end_time": 62.3522727,
                "pitch": 46,
                "velocity": 51,
                "duration": 0.1363636,
                "tempo": 120.0
            },
            {
                "start_time": 62.3681818,
                "end_time": 62.5,
                "pitch": 51,
                "velocity": 51,
                "duration": 0.1318182,
                "tempo": 120.0
            },
            {
                "start_time": 62.5159091,
                "end_time": 62.5340909,
                "pitch": 53,
                "velocity": 51,
                "duration": 0.0181818,
                "tempo": 120.0
            },
            {
                "start_time": 62.55,
                "end_time": 62.6477273,
                "pitch": 53,
                "velocity": 51,
                "duration": 0.0977273,
                "tempo": 120.0
            },
            {
                "start_time": 62.6659091,
                "end_time": 62.7977273,
                "pitch": 53,
                "velocity": 51,
                "duration": 0.1318182,
                "tempo": 120.0
            },
            {
                "start_time": 62.8136364,
                "end_time": 62.9454545,
                "pitch": 53,
                "velocity": 51,
                "duration": 0.1318182,
                "tempo": 120.0
            },
            {
                "start_time": 62.9613636,
                "end_time": 63.0977273,
                "pitch": 51,
                "velocity": 51,
                "duration": 0.1363636,
                "tempo": 120.0
            },
            {
                "start_time": 63.1136364,
                "end_time": 63.4,
                "pitch": 48,
                "velocity": 51,
                "duration": 0.2863636,
                "tempo": 120.0
            },
            {
                "start_time": 63.4159091,
                "end_time": 63.5522727,
                "pitch": 53,
                "velocity": 51,
                "duration": 0.1363636,
                "tempo": 120.0
            },
            {
                "start_time": 63.5681818,
                "end_time": 63.7022727,
                "pitch": 51,
                "velocity": 51,
                "duration": 0.1340909,
                "tempo": 120.0
            },
            {
                "start_time": 63.7204545,
                "end_time": 63.8545455,
                "pitch": 48,
                "velocity": 51,
                "duration": 0.1340909,
                "tempo": 120.0
            },
            {
                "start_time": 63.8704545,
                "end_time": 64.0068182,
                "pitch": 53,
                "velocity": 51,
                "duration": 0.1363636,
                "tempo": 120.0
            },
            {
                "start_time": 64.0227273,
                "end_time": 64.1568182,
                "pitch": 53,
                "velocity": 51,
                "duration": 0.1340909,
                "tempo": 120.0
            },
            {
                "start_time": 64.175,
                "end_time": 64.3113636,
                "pitch": 51,
                "velocity": 51,
                "duration": 0.1363636,
                "tempo": 120.0
            },
            {
                "start_time": 64.3272727,
                "end_time": 64.6159091,
                "pitch": 48,
                "velocity": 51,
                "duration": 0.2886364,
                "tempo": 120.0
            },
            {
                "start_time": 64.6340909,
                "end_time": 64.7704545,
                "pitch": 53,
                "velocity": 51,
                "duration": 0.1363636,
                "tempo": 120.0
            },
            {
                "start_time": 64.7863636,
                "end_time": 64.9181818,
                "pitch": 51,
                "velocity": 51,
                "duration": 0.1318182,
                "tempo": 120.0
            },
            {
                "start_time": 64.9340909,
                "end_time": 65.0659091,
                "pitch": 48,
                "velocity": 51,
                "duration": 0.1318182,
                "tempo": 120.0
            },
            {
                "start_time": 65.0840909,
                "end_time": 65.2159091,
                "pitch": 51,
                "velocity": 51,
                "duration": 0.1318182,
                "tempo": 120.0
            },
            {
                "start_time": 65.2318182,
                "end_time": 65.3636364,
                "pitch": 51,
                "velocity": 51,
                "duration": 0.1318182,
                "tempo": 120.0
            },
            {
                "start_time": 65.3795455,
                "end_time": 65.5159091,
                "pitch": 50,
                "velocity": 51,
                "duration": 0.1363636,
                "tempo": 120.0
            },
            {
                "start_time": 65.5340909,
                "end_time": 65.8227273,
                "pitch": 46,
                "velocity": 51,
                "duration": 0.2886364,
                "tempo": 120.0
            },
            {
                "start_time": 65.8386364,
                "end_time": 65.975,
                "pitch": 46,
                "velocity": 51,
                "duration": 0.1363636,
                "tempo": 120.0
            },
            {
                "start_time": 65.9931818,
                "end_time": 66.125,
                "pitch": 50,
                "velocity": 51,
                "duration": 0.1318182,
                "tempo": 120.0
            },
            {
                "start_time": 66.1409091,
                "end_time": 66.2727273,
                "pitch": 46,
                "velocity": 51,
                "duration": 0.1318182,
                "tempo": 120.0
            },
            {
                "start_time": 66.2886364,
                "end_time": 66.5704545,
                "pitch": 46,
                "velocity": 51,
                "duration": 0.2818182,
                "tempo": 120.0
            },
            {
                "start_time": 66.5863636,
                "end_time": 66.8704545,
                "pitch": 46,
                "velocity": 51,
                "duration": 0.2840909,
                "tempo": 120.0
            },
            {
                "start_time": 66.8863636,
                "end_time": 67.1704545,
                "pitch": 48,
                "velocity": 51,
                "duration": 0.2840909,
                "tempo": 120.0
            },
            {
                "start_time": 67.1863636,
                "end_time": 67.475,
                "pitch": 50,
                "velocity": 51,
                "duration": 0.2886364,
                "tempo": 120.0
            },
            {
                "start_time": 67.4931818,
                "end_time": 67.7818182,
                "pitch": 48,
                "velocity": 51,
                "duration": 0.2886364,
                "tempo": 120.0
            },
            {
                "start_time": 67.7977273,
                "end_time": 68.0795455,
                "pitch": 48,
                "velocity": 51,
                "duration": 0.2818182,
                "tempo": 120.0
            },
            {
                "start_time": 68.0954545,
                "end_time": 68.2272727,
                "pitch": 43,
                "velocity": 51,
                "duration": 0.1318182,
                "tempo": 120.0
            },
            {
                "start_time": 68.2431818,
                "end_time": 68.525,
                "pitch": 48,
                "velocity": 51,
                "duration": 0.2818182,
                "tempo": 120.0
            },
            {
                "start_time": 68.5431818,
                "end_time": 68.675,
                "pitch": 48,
                "velocity": 51,
                "duration": 0.1318182,
                "tempo": 120.0
            },
            {
                "start_time": 68.6931818,
                "end_time": 68.825,
                "pitch": 46,
                "velocity": 51,
                "duration": 0.1318182,
                "tempo": 120.0
            },
            {
                "start_time": 68.8431818,
                "end_time": 68.975,
                "pitch": 46,
                "velocity": 51,
                "duration": 0.1318182,
                "tempo": 120.0
            },
            {
                "start_time": 68.9931818,
                "end_time": 69.1272727,
                "pitch": 41,
                "velocity": 51,
                "duration": 0.1340909,
                "tempo": 120.0
            },
            {
                "start_time": 69.1431818,
                "end_time": 69.4295455,
                "pitch": 46,
                "velocity": 51,
                "duration": 0.2863636,
                "tempo": 120.0
            },
            {
                "start_time": 69.4477273,
                "end_time": 69.5818182,
                "pitch": 46,
                "velocity": 51,
                "duration": 0.1340909,
                "tempo": 120.0
            },
            {
                "start_time": 69.5977273,
                "end_time": 69.7318182,
                "pitch": 41,
                "velocity": 51,
                "duration": 0.1340909,
                "tempo": 120.0
            },
            {
                "start_time": 69.7477273,
                "end_time": 69.8818182,
                "pitch": 46,
                "velocity": 51,
                "duration": 0.1340909,
                "tempo": 120.0
            },
            {
                "start_time": 69.8977273,
                "end_time": 70.0318182,
                "pitch": 44,
                "velocity": 51,
                "duration": 0.1340909,
                "tempo": 120.0
            },
            {
                "start_time": 70.0477273,
                "end_time": 70.1818182,
                "pitch": 44,
                "velocity": 51,
                "duration": 0.1340909,
                "tempo": 120.0
            },
            {
                "start_time": 70.1977273,
                "end_time": 70.3318182,
                "pitch": 39,
                "velocity": 51,
                "duration": 0.1340909,
                "tempo": 120.0
            },
            {
                "start_time": 70.3477273,
                "end_time": 70.6318182,
                "pitch": 44,
                "velocity": 51,
                "duration": 0.2840909,
                "tempo": 120.0
            },
            {
                "start_time": 70.6477273,
                "end_time": 70.7818182,
                "pitch": 44,
                "velocity": 51,
                "duration": 0.1340909,
                "tempo": 120.0
            },
            {
                "start_time": 70.7977273,
                "end_time": 70.9340909,
                "pitch": 39,
                "velocity": 51,
                "duration": 0.1363636,
                "tempo": 120.0
            },
            {
                "start_time": 70.95,
                "end_time": 71.0840909,
                "pitch": 44,
                "velocity": 51,
                "duration": 0.1340909,
                "tempo": 120.0
            },
            {
                "start_time": 71.1022727,
                "end_time": 71.2363636,
                "pitch": 46,
                "velocity": 51,
                "duration": 0.1340909,
                "tempo": 120.0
            },
            {
                "start_time": 71.2522727,
                "end_time": 71.3886364,
                "pitch": 46,
                "velocity": 51,
                "duration": 0.1363636,
                "tempo": 120.0
            },
            {
                "start_time": 71.4045455,
                "end_time": 71.5386364,
                "pitch": 41,
                "velocity": 51,
                "duration": 0.1340909,
                "tempo": 120.0
            },
            {
                "start_time": 71.5545455,
                "end_time": 71.8386364,
                "pitch": 46,
                "velocity": 51,
                "duration": 0.2840909,
                "tempo": 120.0
            },
            {
                "start_time": 71.8545455,
                "end_time": 71.9886364,
                "pitch": 46,
                "velocity": 51,
                "duration": 0.1340909,
                "tempo": 120.0
            },
            {
                "start_time": 72.0045455,
                "end_time": 72.2909091,
                "pitch": 46,
                "velocity": 51,
                "duration": 0.2863636,
                "tempo": 120.0
            },
            {
                "start_time": 72.3068182,
                "end_time": 72.4431818,
                "pitch": 48,
                "velocity": 51,
                "duration": 0.1363636,
                "tempo": 120.0
            },
            {
                "start_time": 72.4590909,
                "end_time": 72.5931818,
                "pitch": 48,
                "velocity": 51,
                "duration": 0.1340909,
                "tempo": 120.0
            },
            {
                "start_time": 72.6113636,
                "end_time": 72.7431818,
                "pitch": 43,
                "velocity": 51,
                "duration": 0.1318182,
                "tempo": 120.0
            },
            {
                "start_time": 72.7613636,
                "end_time": 73.0431818,
                "pitch": 48,
                "velocity": 51,
                "duration": 0.2818182,
                "tempo": 120.0
            },
            {
                "start_time": 73.0613636,
                "end_time": 73.1931818,
                "pitch": 48,
                "velocity": 51,
                "duration": 0.1318182,
                "tempo": 120.0
            },
            {
                "start_time": 73.2113636,
                "end_time": 73.3431818,
                "pitch": 43,
                "velocity": 51,
                "duration": 0.1318182,
                "tempo": 120.0
            },
            {
                "start_time": 73.3613636,
                "end_time": 73.4931818,
                "pitch": 48,
                "velocity": 51,
                "duration": 0.1318182,
                "tempo": 120.0
            },
            {
                "start_time": 73.5113636,
                "end_time": 73.6431818,
                "pitch": 46,
                "velocity": 51,
                "duration": 0.1318182,
                "tempo": 120.0
            },
            {
                "start_time": 73.6613636,
                "end_time": 73.7931818,
                "pitch": 46,
                "velocity": 51,
                "duration": 0.1318182,
                "tempo": 120.0
            },
            {
                "start_time": 73.8113636,
                "end_time": 73.9454545,
                "pitch": 41,
                "velocity": 51,
                "duration": 0.1340909,
                "tempo": 120.0
            },
            {
                "start_time": 73.9613636,
                "end_time": 74.2477273,
                "pitch": 46,
                "velocity": 51,
                "duration": 0.2863636,
                "tempo": 120.0
            },
            {
                "start_time": 74.2659091,
                "end_time": 74.4,
                "pitch": 46,
                "velocity": 51,
                "duration": 0.1340909,
                "tempo": 120.0
            },
            {
                "start_time": 74.4159091,
                "end_time": 74.55,
                "pitch": 41,
                "velocity": 51,
                "duration": 0.1340909,
                "tempo": 120.0
            },
            {
                "start_time": 74.5659091,
                "end_time": 74.6,
                "pitch": 46,
                "velocity": 51,
                "duration": 0.0340909,
                "tempo": 120.0
            },
            {
                "start_time": 75.0159091,
                "end_time": 75.3022727,
                "pitch": 44,
                "velocity": 51,
                "duration": 0.2863636,
                "tempo": 120.0
            },
            {
                "start_time": 75.3204545,
                "end_time": 75.6068182,
                "pitch": 44,
                "velocity": 51,
                "duration": 0.2863636,
                "tempo": 120.0
            },
            {
                "start_time": 75.6227273,
                "end_time": 75.9068182,
                "pitch": 44,
                "velocity": 51,
                "duration": 0.2840909,
                "tempo": 120.0
            },
            {
                "start_time": 75.9227273,
                "end_time": 76.2068182,
                "pitch": 53,
                "velocity": 51,
                "duration": 0.2840909,
                "tempo": 120.0
            },
            {
                "start_time": 76.2227273,
                "end_time": 76.5068182,
                "pitch": 53,
                "velocity": 51,
                "duration": 0.2840909,
                "tempo": 120.0
            },
            {
                "start_time": 76.5227273,
                "end_time": 76.8068182,
                "pitch": 51,
                "velocity": 51,
                "duration": 0.2840909,
                "tempo": 120.0
            },
            {
                "start_time": 76.8227273,
                "end_time": 77.1113636,
                "pitch": 53,
                "velocity": 51,
                "duration": 0.2886364,
                "tempo": 120.0
            },
            {
                "start_time": 77.1295455,
                "end_time": 77.2659091,
                "pitch": 39,
                "velocity": 51,
                "duration": 0.1363636,
                "tempo": 120.0
            },
            {
                "start_time": 77.2818182,
                "end_time": 77.4181818,
                "pitch": 51,
                "velocity": 51,
                "duration": 0.1363636,
                "tempo": 120.0
            },
            {
                "start_time": 77.4340909,
                "end_time": 77.5659091,
                "pitch": 39,
                "velocity": 51,
                "duration": 0.1318182,
                "tempo": 120.0
            },
            {
                "start_time": 77.5840909,
                "end_time": 77.7159091,
                "pitch": 51,
                "velocity": 51,
                "duration": 0.1318182,
                "tempo": 120.0
            }
        ],
        "Trumpet": [
            {
                "start_time": 57.8340909,
                "end_time": 58.1204545,
                "pitch": 84,
                "velocity": 80,
                "duration": 0.2863636,
                "tempo": 120.0
            },
            {
                "start_time": 58.1386364,
                "end_time": 58.2727273,
                "pitch": 83,
                "velocity": 80,
                "duration": 0.1340909,
                "tempo": 120.0
            },
            {
                "start_time": 58.2886364,
                "end_time": 58.575,
                "pitch": 82,
                "velocity": 80,
                "duration": 0.2863636,
                "tempo": 120.0
            },
            {
                "start_time": 58.5931818,
                "end_time": 58.7272727,
                "pitch": 84,
                "velocity": 80,
                "duration": 0.1340909,
                "tempo": 120.0
            },
            {
                "start_time": 58.7431818,
                "end_time": 58.8795455,
                "pitch": 83,
                "velocity": 80,
                "duration": 0.1363636,
                "tempo": 120.0
            },
            {
                "start_time": 58.8954545,
                "end_time": 59.0295455,
                "pitch": 82,
                "velocity": 80,
                "duration": 0.1340909,
                "tempo": 120.0
            },
            {
                "start_time": 59.0477273,
                "end_time": 59.3340909,
                "pitch": 84,
                "velocity": 80,
                "duration": 0.2863636,
                "tempo": 120.0
            },
            {
                "start_time": 59.35,
                "end_time": 59.4840909,
                "pitch": 84,
                "velocity": 80,
                "duration": 0.1340909,
                "tempo": 120.0
            },
            {
                "start_time": 59.5022727,
                "end_time": 59.7886364,
                "pitch": 82,
                "velocity": 80,
                "duration": 0.2863636,
                "tempo": 120.0
            },
            {
                "start_time": 59.8045455,
                "end_time": 59.9386364,
                "pitch": 82,
                "velocity": 80,
                "duration": 0.1340909,
                "tempo": 120.0
            },
            {
                "start_time": 59.9568182,
                "end_time": 60.0886364,
                "pitch": 83,
                "velocity": 80,
                "duration": 0.1318182,
                "tempo": 120.0
            },
            {
                "start_time": 60.1045455,
                "end_time": 60.2363636,
                "pitch": 84,
                "velocity": 80,
                "duration": 0.1318182,
                "tempo": 120.0
            },
            {
                "start_time": 60.2522727,
                "end_time": 60.5340909,
                "pitch": 87,
                "velocity": 80,
                "duration": 0.2818182,
                "tempo": 120.0
            },
            {
                "start_time": 60.55,
                "end_time": 60.8386364,
                "pitch": 87,
                "velocity": 80,
                "duration": 0.2886364,
                "tempo": 120.0
            },
            {
                "start_time": 60.8568182,
                "end_time": 61.1454545,
                "pitch": 87,
                "velocity": 80,
                "duration": 0.2886364,
                "tempo": 120.0
            },
            {
                "start_time": 61.1613636,
                "end_time": 61.2931818,
                "pitch": 82,
                "velocity": 80,
                "duration": 0.1318182,
                "tempo": 120.0
            },
            {
                "start_time": 61.3113636,
                "end_time": 61.5909091,
                "pitch": 79,
                "velocity": 80,
                "duration": 0.2795455,
                "tempo": 120.0
            },
            {
                "start_time": 61.6068182,
                "end_time": 61.7386364,
                "pitch": 79,
                "velocity": 80,
                "duration": 0.1318182,
                "tempo": 120.0
            },
            {
                "start_time": 61.7568182,
                "end_time": 62.0454545,
                "pitch": 79,
                "velocity": 80,
                "duration": 0.2886364,
                "tempo": 120.0
            },
            {
                "start_time": 62.0613636,
                "end_time": 62.3522727,
                "pitch": 79,
                "velocity": 80,
                "duration": 0.2909091,
                "tempo": 120.0
            },
            {
                "start_time": 62.3681818,
                "end_time": 62.6477273,
                "pitch": 82,
                "velocity": 80,
                "duration": 0.2795455,
                "tempo": 120.0
            },
            {
                "start_time": 62.6659091,
                "end_time": 62.9454545,
                "pitch": 84,
                "velocity": 80,
                "duration": 0.2795455,
                "tempo": 120.0
            },
            {
                "start_time": 62.9613636,
                "end_time": 63.0977273,
                "pitch": 83,
                "velocity": 80,
                "duration": 0.1363636,
                "tempo": 120.0
            },
            {
                "start_time": 63.1136364,
                "end_time": 63.4,
                "pitch": 82,
                "velocity": 80,
                "duration": 0.2863636,
                "tempo": 120.0
            },
            {
                "start_time": 63.4159091,
                "end_time": 63.5522727,
                "pitch": 84,
                "velocity": 80,
                "duration": 0.1363636,
                "tempo": 120.0
            },
            {
                "start_time": 63.5681818,
                "end_time": 63.7022727,
                "pitch": 83,
                "velocity": 80,
                "duration": 0.1340909,
                "tempo": 120.0
            },
            {
                "start_time": 63.7204545,
                "end_time": 63.8545455,
                "pitch": 82,
                "velocity": 80,
                "duration": 0.1340909,
                "tempo": 120.0
            },
            {
                "start_time": 63.8704545,
                "end_time": 64.1568182,
                "pitch": 84,
                "velocity": 80,
                "duration": 0.2863636,
                "tempo": 120.0
            },
            {
                "start_time": 64.175,
                "end_time": 64.3113636,
                "pitch": 84,
                "velocity": 80,
                "duration": 0.1363636,
                "tempo": 120.0
            },
            {
                "start_time": 64.3272727,
                "end_time": 64.6159091,
                "pitch": 82,
                "velocity": 80,
                "duration": 0.2886364,
                "tempo": 120.0
            },
            {
                "start_time": 64.6340909,
                "end_time": 64.7704545,
                "pitch": 82,
                "velocity": 80,
                "duration": 0.1363636,
                "tempo": 120.0
            },
            {
                "start_time": 64.7863636,
                "end_time": 64.9181818,
                "pitch": 83,
                "velocity": 80,
                "duration": 0.1318182,
                "tempo": 120.0
            },
            {
                "start_time": 64.9340909,
                "end_time": 65.0659091,
                "pitch": 84,
                "velocity": 80,
                "duration": 0.1318182,
                "tempo": 120.0
            },
            {
                "start_time": 65.0840909,
                "end_time": 65.3636364,
                "pitch": 87,
                "velocity": 80,
                "duration": 0.2795455,
                "tempo": 120.0
            },
            {
                "start_time": 65.3795455,
                "end_time": 65.6704545,
                "pitch": 87,
                "velocity": 80,
                "duration": 0.2909091,
                "tempo": 120.0
            },
            {
                "start_time": 65.6863636,
                "end_time": 65.975,
                "pitch": 87,
                "velocity": 80,
                "duration": 0.2886364,
                "tempo": 120.0
            },
            {
                "start_time": 65.9931818,
                "end_time": 66.125,
                "pitch": 89,
                "velocity": 80,
                "duration": 0.1318182,
                "tempo": 120.0
            },
            {
                "start_time": 66.1409091,
                "end_time": 67.0204545,
                "pitch": 89,
                "velocity": 80,
                "duration": 0.8795455,
                "tempo": 120.0
            },
            {
                "start_time": 67.0363636,
                "end_time": 67.1704545,
                "pitch": 89,
                "velocity": 80,
                "duration": 0.1340909,
                "tempo": 120.0
            },
            {
                "start_time": 67.1863636,
                "end_time": 67.3227273,
                "pitch": 86,
                "velocity": 80,
                "duration": 0.1363636,
                "tempo": 120.0
            },
            {
                "start_time": 67.3386364,
                "end_time": 67.475,
                "pitch": 85,
                "velocity": 80,
                "duration": 0.1363636,
                "tempo": 120.0
            }
        ],
        "Vibraphone": [
            {
                "start_time": 67.4931818,
                "end_time": 67.7818182,
                "pitch": 84,
                "velocity": 80,
                "duration": 0.2886364,
                "tempo": 120.0
            },
            {
                "start_time": 67.7977273,
                "end_time": 68.0795455,
                "pitch": 84,
                "velocity": 80,
                "duration": 0.2818182,
                "tempo": 120.0
            },
            {
                "start_time": 68.0954545,
                "end_time": 68.2272727,
                "pitch": 84,
                "velocity": 80,
                "duration": 0.1318182,
                "tempo": 120.0
            },
            {
                "start_time": 68.2431818,
                "end_time": 68.525,
                "pitch": 87,
                "velocity": 80,
                "duration": 0.2818182,
                "tempo": 120.0
            },
            {
                "start_time": 68.5431818,
                "end_time": 68.825,
                "pitch": 82,
                "velocity": 80,
                "duration": 0.2818182,
                "tempo": 120.0
            },
            {
                "start_time": 68.8431818,
                "end_time": 69.1272727,
                "pitch": 82,
                "velocity": 80,
                "duration": 0.2840909,
                "tempo": 120.0
            },
            {
                "start_time": 69.1431818,
                "end_time": 69.2795455,
                "pitch": 82,
                "velocity": 80,
                "duration": 0.1363636,
                "tempo": 120.0
            },
            {
                "start_time": 69.2954545,
                "end_time": 69.5818182,
                "pitch": 89,
                "velocity": 80,
                "duration": 0.2863636,
                "tempo": 120.0
            },
            {
                "start_time": 69.5977273,
                "end_time": 69.8818182,
                "pitch": 87,
                "velocity": 80,
                "duration": 0.2840909,
                "tempo": 120.0
            },
            {
                "start_time": 69.8977273,
                "end_time": 70.1818182,
                "pitch": 80,
                "velocity": 80,
                "duration": 0.2840909,
                "tempo": 120.0
            },
            {
                "start_time": 70.1977273,
                "end_time": 70.4818182,
                "pitch": 80,
                "velocity": 80,
                "duration": 0.2840909,
                "tempo": 120.0
            },
            {
                "start_time": 70.4977273,
                "end_time": 70.7818182,
                "pitch": 84,
                "velocity": 80,
                "duration": 0.2840909,
                "tempo": 120.0
            },
            {
                "start_time": 70.7977273,
                "end_time": 70.9340909,
                "pitch": 80,
                "velocity": 80,
                "duration": 0.1363636,
                "tempo": 120.0
            },
            {
                "start_time": 70.95,
                "end_time": 71.2363636,
                "pitch": 79,
                "velocity": 80,
                "duration": 0.2863636,
                "tempo": 120.0
            },
            {
                "start_time": 71.2522727,
                "end_time": 71.3886364,
                "pitch": 79,
                "velocity": 80,
                "duration": 0.1363636,
                "tempo": 120.0
            },
            {
                "start_time": 71.4045455,
                "end_time": 71.6886364,
                "pitch": 79,
                "velocity": 80,
                "duration": 0.2840909,
                "tempo": 120.0
            },
            {
                "start_time": 71.7045455,
                "end_time": 71.9886364,
                "pitch": 80,
                "velocity": 80,
                "duration": 0.2840909,
                "tempo": 120.0
            },
            {
                "start_time": 72.0045455,
                "end_time": 72.2909091,
                "pitch": 82,
                "velocity": 80,
                "duration": 0.2863636,
                "tempo": 120.0
            },
            {
                "start_time": 72.3068182,
                "end_time": 72.5931818,
                "pitch": 84,
                "velocity": 80,
                "duration": 0.2863636,
                "tempo": 120.0
            },
            {
                "start_time": 72.6113636,
                "end_time": 72.8931818,
                "pitch": 84,
                "velocity": 80,
                "duration": 0.2818182,
                "tempo": 120.0
            },
            {
                "start_time": 72.9113636,
                "end_time": 73.1931818,
                "pitch": 87,
                "velocity": 80,
                "duration": 0.2818182,
                "tempo": 120.0
            },
            {
                "start_time": 73.2113636,
                "end_time": 73.3431818,
                "pitch": 84,
                "velocity": 80,
                "duration": 0.1318182,
                "tempo": 120.0
            },
            {
                "start_time": 73.3613636,
                "end_time": 73.6431818,
                "pitch": 82,
                "velocity": 80,
                "duration": 0.2818182,
                "tempo": 120.0
            },
            {
                "start_time": 73.6613636,
                "end_time": 73.7931818,
                "pitch": 82,
                "velocity": 80,
                "duration": 0.1318182,
                "tempo": 120.0
            },
            {
                "start_time": 73.8113636,
                "end_time": 74.0977273,
                "pitch": 82,
                "velocity": 80,
                "duration": 0.2863636,
                "tempo": 120.0
            },
            {
                "start_time": 74.1136364,
                "end_time": 74.4,
                "pitch": 87,
                "velocity": 80,
                "duration": 0.2863636,
                "tempo": 120.0
            },
            {
                "start_time": 74.4159091,
                "end_time": 74.7,
                "pitch": 89,
                "velocity": 80,
                "duration": 0.2840909,
                "tempo": 120.0
            },
            {
                "start_time": 74.7159091,
                "end_time": 75.3545455,
                "pitch": 87,
                "velocity": 80,
                "duration": 0.6386364,
                "tempo": 120.0
            },
            {
                "start_time": 75.9227273,
                "end_time": 76.5068182,
                "pitch": 86,
                "velocity": 80,
                "duration": 0.5840909,
                "tempo": 120.0
            },
            {
                "start_time": 76.5227273,
                "end_time": 76.8068182,
                "pitch": 84,
                "velocity": 80,
                "duration": 0.2840909,
                "tempo": 120.0
            },
            {
                "start_time": 76.8227273,
                "end_time": 77.1113636,
                "pitch": 86,
                "velocity": 80,
                "duration": 0.2886364,
                "tempo": 120.0
            }
        ],
        "Electric Guitar (clean)": [
            {
                "start_time": 0.0113636,
                "end_time": 0.1772727,
                "pitch": 79,
                "velocity": 40,
                "duration": 0.1659091,
                "tempo": 120.0
            },
            {
                "start_time": 0.1909091,
                "end_time": 0.4727273,
                "pitch": 79,
                "velocity": 40,
                "duration": 0.2818182,
                "tempo": 120.0
            },
            {
                "start_time": 0.4909091,
                "end_time": 0.7727273,
                "pitch": 79,
                "velocity": 40,
                "duration": 0.2818182,
                "tempo": 120.0
            },
            {
                "start_time": 0.7909091,
                "end_time": 1.0795455,
                "pitch": 79,
                "velocity": 40,
                "duration": 0.2886364,
                "tempo": 120.0
            },
            {
                "start_time": 1.0954545,
                "end_time": 1.2318182,
                "pitch": 79,
                "velocity": 40,
                "duration": 0.1363636,
                "tempo": 120.0
            },
            {
                "start_time": 1.25,
                "end_time": 1.3840909,
                "pitch": 79,
                "velocity": 40,
                "duration": 0.1340909,
                "tempo": 120.0
            },
            {
                "start_time": 1.4022727,
                "end_time": 1.5340909,
                "pitch": 79,
                "velocity": 40,
                "duration": 0.1318182,
                "tempo": 120.0
            },
            {
                "start_time": 1.55,
                "end_time": 2.2818182,
                "pitch": 79,
                "velocity": 40,
                "duration": 0.7318182,
                "tempo": 120.0
            },
            {
                "start_time": 2.3,
                "end_time": 2.5863636,
                "pitch": 80,
                "velocity": 40,
                "duration": 0.2863636,
                "tempo": 120.0
            },
            {
                "start_time": 2.6022727,
                "end_time": 2.8909091,
                "pitch": 80,
                "velocity": 40,
                "duration": 0.2886364,
                "tempo": 120.0
            },
            {
                "start_time": 2.9090909,
                "end_time": 3.1977273,
                "pitch": 80,
                "velocity": 40,
                "duration": 0.2886364,
                "tempo": 120.0
            },
            {
                "start_time": 3.2136364,
                "end_time": 3.4954545,
                "pitch": 80,
                "velocity": 40,
                "duration": 0.2818182,
                "tempo": 120.0
            },
            {
                "start_time": 3.5113636,
                "end_time": 3.6431818,
                "pitch": 82,
                "velocity": 40,
                "duration": 0.1318182,
                "tempo": 120.0
            },
            {
                "start_time": 3.6590909,
                "end_time": 3.7909091,
                "pitch": 80,
                "velocity": 40,
                "duration": 0.1318182,
                "tempo": 120.0
            },
            {
                "start_time": 3.8090909,
                "end_time": 3.9431818,
                "pitch": 79,
                "velocity": 40,
                "duration": 0.1340909,
                "tempo": 120.0
            },
            {
                "start_time": 3.9590909,
                "end_time": 4.7,
                "pitch": 80,
                "velocity": 40,
                "duration": 0.7409091,
                "tempo": 120.0
            },
            {
                "start_time": 4.7181818,
                "end_time": 5.0045455,
                "pitch": 79,
                "velocity": 40,
                "duration": 0.2863636,
                "tempo": 120.0
            },
            {
                "start_time": 5.0204545,
                "end_time": 5.3090909,
                "pitch": 79,
                "velocity": 40,
                "duration": 0.2886364,
                "tempo": 120.0
            },
            {
                "start_time": 5.3272727,
                "end_time": 5.6159091,
                "pitch": 79,
                "velocity": 40,
                "duration": 0.2886364,
                "tempo": 120.0
            },
            {
                "start_time": 5.6318182,
                "end_time": 5.9181818,
                "pitch": 79,
                "velocity": 40,
                "duration": 0.2863636,
                "tempo": 120.0
            },
            {
                "start_time": 5.9363636,
                "end_time": 6.0704545,
                "pitch": 79,
                "velocity": 40,
                "duration": 0.1340909,
                "tempo": 120.0
            },
            {
                "start_time": 6.0863636,
                "end_time": 6.2227273,
                "pitch": 79,
                "velocity": 40,
                "duration": 0.1363636,
                "tempo": 120.0
            },
            {
                "start_time": 6.2386364,
                "end_time": 6.3704545,
                "pitch": 79,
                "velocity": 40,
                "duration": 0.1318182,
                "tempo": 120.0
            },
            {
                "start_time": 6.3863636,
                "end_time": 7.1159091,
                "pitch": 79,
                "velocity": 40,
                "duration": 0.7295455,
                "tempo": 120.0
            },
            {
                "start_time": 7.1318182,
                "end_time": 7.2659091,
                "pitch": 80,
                "velocity": 40,
                "duration": 0.1340909,
                "tempo": 120.0
            },
            {
                "start_time": 7.2818182,
                "end_time": 7.3159091,
                "pitch": 80,
                "velocity": 40,
                "duration": 0.0340909,
                "tempo": 120.0
            },
            {
                "start_time": 7.8863636,
                "end_time": 8.0227273,
                "pitch": 80,
                "velocity": 40,
                "duration": 0.1363636,
                "tempo": 120.0
            },
            {
                "start_time": 8.0386364,
                "end_time": 8.0727273,
                "pitch": 80,
                "velocity": 40,
                "duration": 0.0340909,
                "tempo": 120.0
            },
            {
                "start_time": 8.65,
                "end_time": 8.9318182,
                "pitch": 82,
                "velocity": 40,
                "duration": 0.2818182,
                "tempo": 120.0
            },
            {
                "start_time": 8.9477273,
                "end_time": 9.2295455,
                "pitch": 82,
                "velocity": 40,
                "duration": 0.2818182,
                "tempo": 120.0
            },
            {
                "start_time": 9.2454545,
                "end_time": 9.5340909,
                "pitch": 82,
                "velocity": 40,
                "duration": 0.2886364,
                "tempo": 120.0
            },
            {
                "start_time": 9.55,
                "end_time": 9.6863636,
                "pitch": 79,
                "velocity": 40,
                "duration": 0.1363636,
                "tempo": 120.0
            },
            {
                "start_time": 9.7045455,
                "end_time": 9.8409091,
                "pitch": 79,
                "velocity": 40,
                "duration": 0.1363636,
                "tempo": 120.0
            },
            {
                "start_time": 9.8568182,
                "end_time": 9.9909091,
                "pitch": 75,
                "velocity": 40,
                "duration": 0.1340909,
                "tempo": 120.0
            },
            {
                "start_time": 10.0090909,
                "end_time": 10.1431818,
                "pitch": 75,
                "velocity": 40,
                "duration": 0.1340909,
                "tempo": 120.0
            },
            {
                "start_time": 10.1590909,
                "end_time": 10.2954545,
                "pitch": 70,
                "velocity": 40,
                "duration": 0.1363636,
                "tempo": 120.0
            },
            {
                "start_time": 10.3113636,
                "end_time": 10.4454545,
                "pitch": 70,
                "velocity": 40,
                "duration": 0.1340909,
                "tempo": 120.0
            },
            {
                "start_time": 10.4636364,
                "end_time": 10.5954545,
                "pitch": 75,
                "velocity": 40,
                "duration": 0.1318182,
                "tempo": 120.0
            },
            {
                "start_time": 10.6113636,
                "end_time": 10.7431818,
                "pitch": 75,
                "velocity": 40,
                "duration": 0.1318182,
                "tempo": 120.0
            },
            {
                "start_time": 10.7590909,
                "end_time": 10.8931818,
                "pitch": 79,
                "velocity": 40,
                "duration": 0.1340909,
                "tempo": 120.0
            },
            {
                "start_time": 10.9090909,
                "end_time": 11.0409091,
                "pitch": 79,
                "velocity": 40,
                "duration": 0.1318182,
                "tempo": 120.0
            },
            {
                "start_time": 11.0568182,
                "end_time": 11.1909091,
                "pitch": 75,
                "velocity": 40,
                "duration": 0.1340909,
                "tempo": 120.0
            },
            {
                "start_time": 11.2068182,
                "end_time": 11.3409091,
                "pitch": 75,
                "velocity": 40,
                "duration": 0.1340909,
                "tempo": 120.0
            },
            {
                "start_time": 11.3568182,
                "end_time": 11.4909091,
                "pitch": 70,
                "velocity": 40,
                "duration": 0.1340909,
                "tempo": 120.0
            },
            {
                "start_time": 11.5068182,
                "end_time": 11.6409091,
                "pitch": 70,
                "velocity": 40,
                "duration": 0.1340909,
                "tempo": 120.0
            },
            {
                "start_time": 11.6568182,
                "end_time": 11.7931818,
                "pitch": 75,
                "velocity": 40,
                "duration": 0.1363636,
                "tempo": 120.0
            },
            {
                "start_time": 11.8090909,
                "end_time": 11.9454545,
                "pitch": 75,
                "velocity": 40,
                "duration": 0.1363636,
                "tempo": 120.0
            },
            {
                "start_time": 11.9636364,
                "end_time": 12.1,
                "pitch": 77,
                "velocity": 40,
                "duration": 0.1363636,
                "tempo": 120.0
            },
            {
                "start_time": 12.1159091,
                "end_time": 12.2522727,
                "pitch": 77,
                "velocity": 40,
                "duration": 0.1363636,
                "tempo": 120.0
            },
            {
                "start_time": 12.2704545,
                "end_time": 12.4022727,
                "pitch": 74,
                "velocity": 40,
                "duration": 0.1318182,
                "tempo": 120.0
            },
            {
                "start_time": 12.4204545,
                "end_time": 12.5522727,
                "pitch": 74,
                "velocity": 40,
                "duration": 0.1318182,
                "tempo": 120.0
            },
            {
                "start_time": 12.5704545,
                "end_time": 12.7022727,
                "pitch": 70,
                "velocity": 40,
                "duration": 0.1318182,
                "tempo": 120.0
            },
            {
                "start_time": 12.7204545,
                "end_time": 12.8522727,
                "pitch": 70,
                "velocity": 40,
                "duration": 0.1318182,
                "tempo": 120.0
            },
            {
                "start_time": 12.8704545,
                "end_time": 13.0022727,
                "pitch": 74,
                "velocity": 40,
                "duration": 0.1318182,
                "tempo": 120.0
            },
            {
                "start_time": 13.0181818,
                "end_time": 13.15,
                "pitch": 74,
                "velocity": 40,
                "duration": 0.1318182,
                "tempo": 120.0
            },
            {
                "start_time": 13.1659091,
                "end_time": 13.2977273,
                "pitch": 77,
                "velocity": 40,
                "duration": 0.1318182,
                "tempo": 120.0
            },
            {
                "start_time": 13.3159091,
                "end_time": 13.4477273,
                "pitch": 77,
                "velocity": 40,
                "duration": 0.1318182,
                "tempo": 120.0
            },
            {
                "start_time": 13.4636364,
                "end_time": 13.5977273,
                "pitch": 80,
                "velocity": 40,
                "duration": 0.1340909,
                "tempo": 120.0
            },
            {
                "start_time": 13.6136364,
                "end_time": 13.7477273,
                "pitch": 80,
                "velocity": 40,
                "duration": 0.1340909,
                "tempo": 120.0
            },
            {
                "start_time": 13.7636364,
                "end_time": 13.8977273,
                "pitch": 79,
                "velocity": 40,
                "duration": 0.1340909,
                "tempo": 120.0
            },
            {
                "start_time": 13.9136364,
                "end_time": 14.0477273,
                "pitch": 79,
                "velocity": 40,
                "duration": 0.1340909,
                "tempo": 120.0
            },
            {
                "start_time": 14.0636364,
                "end_time": 14.2,
                "pitch": 77,
                "velocity": 40,
                "duration": 0.1363636,
                "tempo": 120.0
            },
            {
                "start_time": 14.2159091,
                "end_time": 14.3522727,
                "pitch": 77,
                "velocity": 40,
                "duration": 0.1363636,
                "tempo": 120.0
            },
            {
                "start_time": 14.3704545,
                "end_time": 14.5045455,
                "pitch": 77,
                "velocity": 40,
                "duration": 0.1340909,
                "tempo": 120.0
            },
            {
                "start_time": 14.5227273,
                "end_time": 14.6590909,
                "pitch": 77,
                "velocity": 40,
                "duration": 0.1363636,
                "tempo": 120.0
            },
            {
                "start_time": 14.675,
                "end_time": 14.8068182,
                "pitch": 75,
                "velocity": 40,
                "duration": 0.1318182,
                "tempo": 120.0
            },
            {
                "start_time": 14.825,
                "end_time": 14.9568182,
                "pitch": 75,
                "velocity": 40,
                "duration": 0.1318182,
                "tempo": 120.0
            },
            {
                "start_time": 14.9727273,
                "end_time": 15.1045455,
                "pitch": 74,
                "velocity": 40,
                "duration": 0.1318182,
                "tempo": 120.0
            },
            {
                "start_time": 15.1204545,
                "end_time": 15.2522727,
                "pitch": 74,
                "velocity": 40,
                "duration": 0.1318182,
                "tempo": 120.0
            },
            {
                "start_time": 15.2704545,
                "end_time": 15.4045455,
                "pitch": 72,
                "velocity": 40,
                "duration": 0.1340909,
                "tempo": 120.0
            },
            {
                "start_time": 15.4227273,
                "end_time": 15.5590909,
                "pitch": 72,
                "velocity": 40,
                "duration": 0.1363636,
                "tempo": 120.0
            },
            {
                "start_time": 15.575,
                "end_time": 15.7113636,
                "pitch": 77,
                "velocity": 40,
                "duration": 0.1363636,
                "tempo": 120.0
            },
            {
                "start_time": 15.7295455,
                "end_time": 15.8636364,
                "pitch": 77,
                "velocity": 40,
                "duration": 0.1340909,
                "tempo": 120.0
            },
            {
                "start_time": 15.8818182,
                "end_time": 16.0159091,
                "pitch": 75,
                "velocity": 40,
                "duration": 0.1340909,
                "tempo": 120.0
            },
            {
                "start_time": 16.0340909,
                "end_time": 16.1681818,
                "pitch": 75,
                "velocity": 40,
                "duration": 0.1340909,
                "tempo": 120.0
            },
            {
                "start_time": 16.1840909,
                "end_time": 16.3204545,
                "pitch": 74,
                "velocity": 40,
                "duration": 0.1363636,
                "tempo": 120.0
            },
            {
                "start_time": 16.3363636,
                "end_time": 16.4704545,
                "pitch": 74,
                "velocity": 40,
                "duration": 0.1340909,
                "tempo": 120.0
            },
            {
                "start_time": 16.4886364,
                "end_time": 16.6204545,
                "pitch": 72,
                "velocity": 40,
                "duration": 0.1318182,
                "tempo": 120.0
            },
            {
                "start_time": 16.6386364,
                "end_time": 16.7704545,
                "pitch": 72,
                "velocity": 40,
                "duration": 0.1318182,
                "tempo": 120.0
            },
            {
                "start_time": 16.7886364,
                "end_time": 16.9204545,
                "pitch": 70,
                "velocity": 40,
                "duration": 0.1318182,
                "tempo": 120.0
            },
            {
                "start_time": 16.9386364,
                "end_time": 17.0704545,
                "pitch": 70,
                "velocity": 40,
                "duration": 0.1318182,
                "tempo": 120.0
            },
            {
                "start_time": 17.0886364,
                "end_time": 17.2204545,
                "pitch": 74,
                "velocity": 40,
                "duration": 0.1318182,
                "tempo": 120.0
            },
            {
                "start_time": 17.2363636,
                "end_time": 17.3681818,
                "pitch": 74,
                "velocity": 40,
                "duration": 0.1318182,
                "tempo": 120.0
            },
            {
                "start_time": 17.3840909,
                "end_time": 17.5159091,
                "pitch": 77,
                "velocity": 40,
                "duration": 0.1318182,
                "tempo": 120.0
            },
            {
                "start_time": 17.5340909,
                "end_time": 17.6659091,
                "pitch": 77,
                "velocity": 40,
                "duration": 0.1318182,
                "tempo": 120.0
            },
            {
                "start_time": 17.6818182,
                "end_time": 17.8181818,
                "pitch": 74,
                "velocity": 40,
                "duration": 0.1363636,
                "tempo": 120.0
            },
            {
                "start_time": 17.8340909,
                "end_time": 17.9704545,
                "pitch": 77,
                "velocity": 40,
                "duration": 0.1363636,
                "tempo": 120.0
            },
            {
                "start_time": 17.9886364,
                "end_time": 18.125,
                "pitch": 72,
                "velocity": 40,
                "duration": 0.1363636,
                "tempo": 120.0
            },
            {
                "start_time": 18.1409091,
                "end_time": 18.2772727,
                "pitch": 72,
                "velocity": 40,
                "duration": 0.1363636,
                "tempo": 120.0
            },
            {
                "start_time": 18.2931818,
                "end_time": 18.4272727,
                "pitch": 77,
                "velocity": 40,
                "duration": 0.1340909,
                "tempo": 120.0
            },
            {
                "start_time": 18.4431818,
                "end_time": 18.5772727,
                "pitch": 77,
                "velocity": 40,
                "duration": 0.1340909,
                "tempo": 120.0
            },
            {
                "start_time": 18.5931818,
                "end_time": 18.7272727,
                "pitch": 80,
                "velocity": 40,
                "duration": 0.1340909,
                "tempo": 120.0
            },
            {
                "start_time": 18.7431818,
                "end_time": 18.8772727,
                "pitch": 80,
                "velocity": 40,
                "duration": 0.1340909,
                "tempo": 120.0
            },
            {
                "start_time": 18.8931818,
                "end_time": 19.0295455,
                "pitch": 79,
                "velocity": 40,
                "duration": 0.1363636,
                "tempo": 120.0
            },
            {
                "start_time": 19.0454545,
                "end_time": 19.1795455,
                "pitch": 77,
                "velocity": 40,
                "duration": 0.1340909,
                "tempo": 120.0
            },
            {
                "start_time": 19.1977273,
                "end_time": 19.3318182,
                "pitch": 79,
                "velocity": 40,
                "duration": 0.1340909,
                "tempo": 120.0
            },
            {
                "start_time": 19.3477273,
                "end_time": 19.4840909,
                "pitch": 79,
                "velocity": 40,
                "duration": 0.1363636,
                "tempo": 120.0
            },
            {
                "start_time": 19.5,
                "end_time": 19.6318182,
                "pitch": 75,
                "velocity": 40,
                "duration": 0.1318182,
                "tempo": 120.0
            },
            {
                "start_time": 19.6477273,
                "end_time": 19.7795455,
                "pitch": 75,
                "velocity": 40,
                "duration": 0.1318182,
                "tempo": 120.0
            },
            {
                "start_time": 19.7977273,
                "end_time": 19.9295455,
                "pitch": 70,
                "velocity": 40,
                "duration": 0.1318182,
                "tempo": 120.0
            },
            {
                "start_time": 19.9454545,
                "end_time": 20.0772727,
                "pitch": 70,
                "velocity": 40,
                "duration": 0.1318182,
                "tempo": 120.0
            },
            {
                "start_time": 20.0931818,
                "end_time": 20.2272727,
                "pitch": 75,
                "velocity": 40,
                "duration": 0.1340909,
                "tempo": 120.0
            },
            {
                "start_time": 20.2431818,
                "end_time": 20.3772727,
                "pitch": 75,
                "velocity": 40,
                "duration": 0.1340909,
                "tempo": 120.0
            },
            {
                "start_time": 20.3931818,
                "end_time": 20.5272727,
                "pitch": 79,
                "velocity": 40,
                "duration": 0.1340909,
                "tempo": 120.0
            },
            {
                "start_time": 20.5431818,
                "end_time": 20.6772727,
                "pitch": 79,
                "velocity": 40,
                "duration": 0.1340909,
                "tempo": 120.0
            },
            {
                "start_time": 20.6931818,
                "end_time": 20.8295455,
                "pitch": 75,
                "velocity": 40,
                "duration": 0.1363636,
                "tempo": 120.0
            },
            {
                "start_time": 20.8477273,
                "end_time": 20.9840909,
                "pitch": 75,
                "velocity": 40,
                "duration": 0.1363636,
                "tempo": 120.0
            },
            {
                "start_time": 21.0,
                "end_time": 21.1363636,
                "pitch": 70,
                "velocity": 40,
                "duration": 0.1363636,
                "tempo": 120.0
            },
            {
                "start_time": 21.1522727,
                "end_time": 21.2886364,
                "pitch": 70,
                "velocity": 40,
                "duration": 0.1363636,
                "tempo": 120.0
            },
            {
                "start_time": 21.3068182,
                "end_time": 21.4386364,
                "pitch": 75,
                "velocity": 40,
                "duration": 0.1318182,
                "tempo": 120.0
            },
            {
                "start_time": 21.4568182,
                "end_time": 21.5886364,
                "pitch": 75,
                "velocity": 40,
                "duration": 0.1318182,
                "tempo": 120.0
            },
            {
                "start_time": 21.6068182,
                "end_time": 21.7386364,
                "pitch": 77,
                "velocity": 40,
                "duration": 0.1318182,
                "tempo": 120.0
            },
            {
                "start_time": 21.7568182,
                "end_time": 21.8886364,
                "pitch": 77,
                "velocity": 40,
                "duration": 0.1318182,
                "tempo": 120.0
            },
            {
                "start_time": 21.9068182,
                "end_time": 22.0386364,
                "pitch": 74,
                "velocity": 40,
                "duration": 0.1318182,
                "tempo": 120.0
            },
            {
                "start_time": 22.0545455,
                "end_time": 22.1863636,
                "pitch": 74,
                "velocity": 40,
                "duration": 0.1318182,
                "tempo": 120.0
            },
            {
                "start_time": 22.2022727,
                "end_time": 22.3363636,
                "pitch": 70,
                "velocity": 40,
                "duration": 0.1340909,
                "tempo": 120.0
            },
            {
                "start_time": 22.3522727,
                "end_time": 22.4840909,
                "pitch": 70,
                "velocity": 40,
                "duration": 0.1318182,
                "tempo": 120.0
            },
            {
                "start_time": 22.5,
                "end_time": 22.6340909,
                "pitch": 74,
                "velocity": 40,
                "duration": 0.1340909,
                "tempo": 120.0
            },
            {
                "start_time": 22.6522727,
                "end_time": 22.7863636,
                "pitch": 74,
                "velocity": 40,
                "duration": 0.1340909,
                "tempo": 120.0
            },
            {
                "start_time": 22.8045455,
                "end_time": 22.9386364,
                "pitch": 77,
                "velocity": 40,
                "duration": 0.1340909,
                "tempo": 120.0
            },
            {
                "start_time": 22.9545455,
                "end_time": 23.0886364,
                "pitch": 77,
                "velocity": 40,
                "duration": 0.1340909,
                "tempo": 120.0
            },
            {
                "start_time": 23.1068182,
                "end_time": 23.2409091,
                "pitch": 80,
                "velocity": 40,
                "duration": 0.1340909,
                "tempo": 120.0
            },
            {
                "start_time": 23.2568182,
                "end_time": 23.3909091,
                "pitch": 80,
                "velocity": 40,
                "duration": 0.1340909,
                "tempo": 120.0
            },
            {
                "start_time": 23.4068182,
                "end_time": 23.5409091,
                "pitch": 79,
                "velocity": 40,
                "duration": 0.1340909,
                "tempo": 120.0
            },
            {
                "start_time": 23.5568182,
                "end_time": 23.6909091,
                "pitch": 79,
                "velocity": 40,
                "duration": 0.1340909,
                "tempo": 120.0
            },
            {
                "start_time": 23.7068182,
                "end_time": 23.8431818,
                "pitch": 77,
                "velocity": 40,
                "duration": 0.1363636,
                "tempo": 120.0
            },
            {
                "start_time": 23.8590909,
                "end_time": 23.9954545,
                "pitch": 77,
                "velocity": 40,
                "duration": 0.1363636,
                "tempo": 120.0
            },
            {
                "start_time": 24.0113636,
                "end_time": 24.1477273,
                "pitch": 70,
                "velocity": 40,
                "duration": 0.1363636,
                "tempo": 120.0
            },
            {
                "start_time": 24.1659091,
                "end_time": 24.3022727,
                "pitch": 70,
                "velocity": 40,
                "duration": 0.1363636,
                "tempo": 120.0
            },
            {
                "start_time": 24.3181818,
                "end_time": 24.45,
                "pitch": 72,
                "velocity": 40,
                "duration": 0.1318182,
                "tempo": 120.0
            },
            {
                "start_time": 24.4659091,
                "end_time": 24.6,
                "pitch": 72,
                "velocity": 40,
                "duration": 0.1340909,
                "tempo": 120.0
            },
            {
                "start_time": 24.6159091,
                "end_time": 24.7477273,
                "pitch": 74,
                "velocity": 40,
                "duration": 0.1318182,
                "tempo": 120.0
            },
            {
                "start_time": 24.7636364,
                "end_time": 24.8954545,
                "pitch": 74,
                "velocity": 40,
                "duration": 0.1318182,
                "tempo": 120.0
            },
            {
                "start_time": 24.9136364,
                "end_time": 25.0477273,
                "pitch": 75,
                "velocity": 40,
                "duration": 0.1340909,
                "tempo": 120.0
            },
            {
                "start_time": 25.0659091,
                "end_time": 25.2022727,
                "pitch": 75,
                "velocity": 40,
                "duration": 0.1363636,
                "tempo": 120.0
            },
            {
                "start_time": 25.2181818,
                "end_time": 25.3545455,
                "pitch": 77,
                "velocity": 40,
                "duration": 0.1363636,
                "tempo": 120.0
            },
            {
                "start_time": 25.3704545,
                "end_time": 25.5068182,
                "pitch": 77,
                "velocity": 40,
                "duration": 0.1363636,
                "tempo": 120.0
            },
            {
                "start_time": 25.525,
                "end_time": 25.6590909,
                "pitch": 75,
                "velocity": 40,
                "duration": 0.1340909,
                "tempo": 120.0
            },
            {
                "start_time": 25.675,
                "end_time": 25.8090909,
                "pitch": 75,
                "velocity": 40,
                "duration": 0.1340909,
                "tempo": 120.0
            },
            {
                "start_time": 25.825,
                "end_time": 25.9590909,
                "pitch": 74,
                "velocity": 40,
                "duration": 0.1340909,
                "tempo": 120.0
            },
            {
                "start_time": 25.975,
                "end_time": 26.1090909,
                "pitch": 74,
                "velocity": 40,
                "duration": 0.1340909,
                "tempo": 120.0
            },
            {
                "start_time": 26.125,
                "end_time": 26.2568182,
                "pitch": 72,
                "velocity": 40,
                "duration": 0.1318182,
                "tempo": 120.0
            },
            {
                "start_time": 26.2727273,
                "end_time": 26.4045455,
                "pitch": 72,
                "velocity": 40,
                "duration": 0.1318182,
                "tempo": 120.0
            },
            {
                "start_time": 26.4227273,
                "end_time": 26.5545455,
                "pitch": 70,
                "velocity": 40,
                "duration": 0.1318182,
                "tempo": 120.0
            },
            {
                "start_time": 26.5704545,
                "end_time": 26.7022727,
                "pitch": 70,
                "velocity": 40,
                "duration": 0.1318182,
                "tempo": 120.0
            },
            {
                "start_time": 26.7181818,
                "end_time": 26.8545455,
                "pitch": 74,
                "velocity": 40,
                "duration": 0.1363636,
                "tempo": 120.0
            },
            {
                "start_time": 26.8704545,
                "end_time": 27.0045455,
                "pitch": 74,
                "velocity": 40,
                "duration": 0.1340909,
                "tempo": 120.0
            },
            {
                "start_time": 27.0227273,
                "end_time": 27.1568182,
                "pitch": 77,
                "velocity": 40,
                "duration": 0.1340909,
                "tempo": 120.0
            },
            {
                "start_time": 27.1727273,
                "end_time": 27.3090909,
                "pitch": 77,
                "velocity": 40,
                "duration": 0.1363636,
                "tempo": 120.0
            },
            {
                "start_time": 27.325,
                "end_time": 27.4590909,
                "pitch": 74,
                "velocity": 40,
                "duration": 0.1340909,
                "tempo": 120.0
            },
            {
                "start_time": 27.4772727,
                "end_time": 27.6113636,
                "pitch": 77,
                "velocity": 40,
                "duration": 0.1340909,
                "tempo": 120.0
            },
            {
                "start_time": 27.6272727,
                "end_time": 27.6613636,
                "pitch": 75,
                "velocity": 40,
                "duration": 0.0340909,
                "tempo": 120.0
            },
            {
                "start_time": 28.2318182,
                "end_time": 28.5136364,
                "pitch": 72,
                "velocity": 40,
                "duration": 0.2818182,
                "tempo": 120.0
            },
            {
                "start_time": 28.5318182,
                "end_time": 28.8181818,
                "pitch": 74,
                "velocity": 40,
                "duration": 0.2863636,
                "tempo": 120.0
            },
            {
                "start_time": 28.8340909,
                "end_time": 29.1204545,
                "pitch": 79,
                "velocity": 40,
                "duration": 0.2863636,
                "tempo": 120.0
            },
            {
                "start_time": 29.1363636,
                "end_time": 29.4204545,
                "pitch": 79,
                "velocity": 40,
                "duration": 0.2840909,
                "tempo": 120.0
            },
            {
                "start_time": 29.4363636,
                "end_time": 29.7204545,
                "pitch": 79,
                "velocity": 40,
                "duration": 0.2840909,
                "tempo": 120.0
            },
            {
                "start_time": 29.7363636,
                "end_time": 30.0227273,
                "pitch": 79,
                "velocity": 40,
                "duration": 0.2863636,
                "tempo": 120.0
            },
            {
                "start_time": 30.0409091,
                "end_time": 30.175,
                "pitch": 79,
                "velocity": 40,
                "duration": 0.1340909,
                "tempo": 120.0
            },
            {
                "start_time": 30.1909091,
                "end_time": 30.3272727,
                "pitch": 79,
                "velocity": 40,
                "duration": 0.1363636,
                "tempo": 120.0
            },
            {
                "start_time": 30.3431818,
                "end_time": 30.4772727,
                "pitch": 79,
                "velocity": 40,
                "duration": 0.1340909,
                "tempo": 120.0
            },
            {
                "start_time": 30.4954545,
                "end_time": 31.2318182,
                "pitch": 79,
                "velocity": 40,
                "duration": 0.7363636,
                "tempo": 120.0
            },
            {
                "start_time": 31.25,
                "end_time": 31.5318182,
                "pitch": 80,
                "velocity": 40,
                "duration": 0.2818182,
                "tempo": 120.0
            },
            {
                "start_time": 31.55,
                "end_time": 31.8386364,
                "pitch": 80,
                "velocity": 40,
                "duration": 0.2886364,
                "tempo": 120.0
            },
            {
                "start_time": 31.8545455,
                "end_time": 32.1431818,
                "pitch": 80,
                "velocity": 40,
                "duration": 0.2886364,
                "tempo": 120.0
            },
            {
                "start_time": 32.1613636,
                "end_time": 32.4477273,
                "pitch": 80,
                "velocity": 40,
                "duration": 0.2863636,
                "tempo": 120.0
            },
            {
                "start_time": 32.4636364,
                "end_time": 32.6,
                "pitch": 82,
                "velocity": 40,
                "duration": 0.1363636,
                "tempo": 120.0
            },
            {
                "start_time": 32.6159091,
                "end_time": 32.75,
                "pitch": 80,
                "velocity": 40,
                "duration": 0.1340909,
                "tempo": 120.0
            },
            {
                "start_time": 32.7681818,
                "end_time": 32.9,
                "pitch": 79,
                "velocity": 40,
                "duration": 0.1318182,
                "tempo": 120.0
            },
            {
                "start_time": 32.9181818,
                "end_time": 33.6477273,
                "pitch": 80,
                "velocity": 40,
                "duration": 0.7295455,
                "tempo": 120.0
            },
            {
                "start_time": 33.6636364,
                "end_time": 33.9454545,
                "pitch": 79,
                "velocity": 40,
                "duration": 0.2818182,
                "tempo": 120.0
            },
            {
                "start_time": 33.9613636,
                "end_time": 34.25,
                "pitch": 79,
                "velocity": 40,
                "duration": 0.2886364,
                "tempo": 120.0
            },
            {
                "start_time": 34.2681818,
                "end_time": 34.5568182,
                "pitch": 79,
                "velocity": 40,
                "duration": 0.2886364,
                "tempo": 120.0
            },
            {
                "start_time": 34.5727273,
                "end_time": 34.8545455,
                "pitch": 79,
                "velocity": 40,
                "duration": 0.2818182,
                "tempo": 120.0
            },
            {
                "start_time": 34.8704545,
                "end_time": 35.0022727,
                "pitch": 79,
                "velocity": 40,
                "duration": 0.1318182,
                "tempo": 120.0
            },
            {
                "start_time": 35.0181818,
                "end_time": 35.15,
                "pitch": 79,
                "velocity": 40,
                "duration": 0.1318182,
                "tempo": 120.0
            },
            {
                "start_time": 35.1681818,
                "end_time": 35.3022727,
                "pitch": 79,
                "velocity": 40,
                "duration": 0.1340909,
                "tempo": 120.0
            },
            {
                "start_time": 35.3204545,
                "end_time": 36.0590909,
                "pitch": 79,
                "velocity": 40,
                "duration": 0.7386364,
                "tempo": 120.0
            },
            {
                "start_time": 36.0772727,
                "end_time": 36.3568182,
                "pitch": 80,
                "velocity": 40,
                "duration": 0.2795455,
                "tempo": 120.0
            },
            {
                "start_time": 36.3727273,
                "end_time": 36.6590909,
                "pitch": 80,
                "velocity": 40,
                "duration": 0.2863636,
                "tempo": 120.0
            },
            {
                "start_time": 36.6772727,
                "end_time": 36.9636364,
                "pitch": 80,
                "velocity": 40,
                "duration": 0.2863636,
                "tempo": 120.0
            },
            {
                "start_time": 36.9795455,
                "end_time": 37.2681818,
                "pitch": 80,
                "velocity": 40,
                "duration": 0.2886364,
                "tempo": 120.0
            },
            {
                "start_time": 37.2863636,
                "end_time": 37.4227273,
                "pitch": 82,
                "velocity": 40,
                "duration": 0.1363636,
                "tempo": 120.0
            },
            {
                "start_time": 37.4386364,
                "end_time": 37.575,
                "pitch": 80,
                "velocity": 40,
                "duration": 0.1363636,
                "tempo": 120.0
            },
            {
                "start_time": 37.5909091,
                "end_time": 37.7272727,
                "pitch": 79,
                "velocity": 40,
                "duration": 0.1363636,
                "tempo": 120.0
            },
            {
                "start_time": 37.7431818,
                "end_time": 38.4840909,
                "pitch": 80,
                "velocity": 40,
                "duration": 0.7409091,
                "tempo": 120.0
            },
            {
                "start_time": 38.5,
                "end_time": 38.6363636,
                "pitch": 79,
                "velocity": 40,
                "duration": 0.1363636,
                "tempo": 120.0
            },
            {
                "start_time": 38.6522727,
                "end_time": 38.7863636,
                "pitch": 79,
                "velocity": 40,
                "duration": 0.1340909,
                "tempo": 120.0
            },
            {
                "start_time": 38.8045455,
                "end_time": 38.9363636,
                "pitch": 75,
                "velocity": 40,
                "duration": 0.1318182,
                "tempo": 120.0
            },
            {
                "start_time": 38.9522727,
                "end_time": 39.0840909,
                "pitch": 75,
                "velocity": 40,
                "duration": 0.1318182,
                "tempo": 120.0
            },
            {
                "start_time": 39.1,
                "end_time": 39.2318182,
                "pitch": 70,
                "velocity": 40,
                "duration": 0.1318182,
                "tempo": 120.0
            },
            {
                "start_time": 39.25,
                "end_time": 39.3818182,
                "pitch": 70,
                "velocity": 40,
                "duration": 0.1318182,
                "tempo": 120.0
            },
            {
                "start_time": 39.3977273,
                "end_time": 39.5318182,
                "pitch": 75,
                "velocity": 40,
                "duration": 0.1340909,
                "tempo": 120.0
            },
            {
                "start_time": 39.55,
                "end_time": 39.6840909,
                "pitch": 75,
                "velocity": 40,
                "duration": 0.1340909,
                "tempo": 120.0
            },
            {
                "start_time": 39.7,
                "end_time": 39.8363636,
                "pitch": 79,
                "velocity": 40,
                "duration": 0.1363636,
                "tempo": 120.0
            },
            {
                "start_time": 39.8522727,
                "end_time": 39.9863636,
                "pitch": 79,
                "velocity": 40,
                "duration": 0.1340909,
                "tempo": 120.0
            },
            {
                "start_time": 40.0045455,
                "end_time": 40.1386364,
                "pitch": 75,
                "velocity": 40,
                "duration": 0.1340909,
                "tempo": 120.0
            },
            {
                "start_time": 40.1545455,
                "end_time": 40.2909091,
                "pitch": 75,
                "velocity": 40,
                "duration": 0.1363636,
                "tempo": 120.0
            },
            {
                "start_time": 40.3068182,
                "end_time": 40.4409091,
                "pitch": 70,
                "velocity": 40,
                "duration": 0.1340909,
                "tempo": 120.0
            },
            {
                "start_time": 40.4590909,
                "end_time": 40.5931818,
                "pitch": 70,
                "velocity": 40,
                "duration": 0.1340909,
                "tempo": 120.0
            },
            {
                "start_time": 40.6090909,
                "end_time": 40.7431818,
                "pitch": 75,
                "velocity": 40,
                "duration": 0.1340909,
                "tempo": 120.0
            },
            {
                "start_time": 40.7590909,
                "end_time": 40.8931818,
                "pitch": 75,
                "velocity": 40,
                "duration": 0.1340909,
                "tempo": 120.0
            },
            {
                "start_time": 40.9090909,
                "end_time": 41.0431818,
                "pitch": 77,
                "velocity": 40,
                "duration": 0.1340909,
                "tempo": 120.0
            },
            {
                "start_time": 41.0590909,
                "end_time": 41.1931818,
                "pitch": 77,
                "velocity": 40,
                "duration": 0.1340909,
                "tempo": 120.0
            },
            {
                "start_time": 41.2090909,
                "end_time": 41.3454545,
                "pitch": 74,
                "velocity": 40,
                "duration": 0.1363636,
                "tempo": 120.0
            },
            {
                "start_time": 41.3613636,
                "end_time": 41.4954545,
                "pitch": 74,
                "velocity": 40,
                "duration": 0.1340909,
                "tempo": 120.0
            },
            {
                "start_time": 41.5136364,
                "end_time": 41.6477273,
                "pitch": 70,
                "velocity": 40,
                "duration": 0.1340909,
                "tempo": 120.0
            },
            {
                "start_time": 41.6636364,
                "end_time": 41.8,
                "pitch": 70,
                "velocity": 40,
                "duration": 0.1363636,
                "tempo": 120.0
            },
            {
                "start_time": 41.8159091,
                "end_time": 41.95,
                "pitch": 74,
                "velocity": 40,
                "duration": 0.1340909,
                "tempo": 120.0
            },
            {
                "start_time": 41.9681818,
                "end_time": 42.1022727,
                "pitch": 74,
                "velocity": 40,
                "duration": 0.1340909,
                "tempo": 120.0
            },
            {
                "start_time": 42.1181818,
                "end_time": 42.2545455,
                "pitch": 77,
                "velocity": 40,
                "duration": 0.1363636,
                "tempo": 120.0
            },
            {
                "start_time": 42.2704545,
                "end_time": 42.4045455,
                "pitch": 77,
                "velocity": 40,
                "duration": 0.1340909,
                "tempo": 120.0
            },
            {
                "start_time": 42.4227273,
                "end_time": 42.5568182,
                "pitch": 80,
                "velocity": 40,
                "duration": 0.1340909,
                "tempo": 120.0
            },
            {
                "start_time": 42.5727273,
                "end_time": 42.7090909,
                "pitch": 80,
                "velocity": 40,
                "duration": 0.1363636,
                "tempo": 120.0
            },
            {
                "start_time": 42.725,
                "end_time": 42.8590909,
                "pitch": 79,
                "velocity": 40,
                "duration": 0.1340909,
                "tempo": 120.0
            },
            {
                "start_time": 42.8772727,
                "end_time": 43.0113636,
                "pitch": 79,
                "velocity": 40,
                "duration": 0.1340909,
                "tempo": 120.0
            },
            {
                "start_time": 43.0272727,
                "end_time": 43.1636364,
                "pitch": 77,
                "velocity": 40,
                "duration": 0.1363636,
                "tempo": 120.0
            },
            {
                "start_time": 43.1818182,
                "end_time": 43.3181818,
                "pitch": 77,
                "velocity": 40,
                "duration": 0.1363636,
                "tempo": 120.0
            },
            {
                "start_time": 43.3340909,
                "end_time": 43.4704545,
                "pitch": 77,
                "velocity": 40,
                "duration": 0.1363636,
                "tempo": 120.0
            },
            {
                "start_time": 43.4863636,
                "end_time": 43.6227273,
                "pitch": 77,
                "velocity": 40,
                "duration": 0.1363636,
                "tempo": 120.0
            },
            {
                "start_time": 43.6409091,
                "end_time": 43.7727273,
                "pitch": 75,
                "velocity": 40,
                "duration": 0.1318182,
                "tempo": 120.0
            },
            {
                "start_time": 43.7886364,
                "end_time": 43.9204545,
                "pitch": 75,
                "velocity": 40,
                "duration": 0.1318182,
                "tempo": 120.0
            },
            {
                "start_time": 43.9363636,
                "end_time": 44.0704545,
                "pitch": 74,
                "velocity": 40,
                "duration": 0.1340909,
                "tempo": 120.0
            },
            {
                "start_time": 44.0863636,
                "end_time": 44.2181818,
                "pitch": 74,
                "velocity": 40,
                "duration": 0.1318182,
                "tempo": 120.0
            },
            {
                "start_time": 44.2340909,
                "end_time": 44.3681818,
                "pitch": 72,
                "velocity": 40,
                "duration": 0.1340909,
                "tempo": 120.0
            },
            {
                "start_time": 44.3863636,
                "end_time": 44.5204545,
                "pitch": 72,
                "velocity": 40,
                "duration": 0.1340909,
                "tempo": 120.0
            },
            {
                "start_time": 44.5386364,
                "end_time": 44.6727273,
                "pitch": 77,
                "velocity": 40,
                "duration": 0.1340909,
                "tempo": 120.0
            },
            {
                "start_time": 44.6886364,
                "end_time": 44.8227273,
                "pitch": 77,
                "velocity": 40,
                "duration": 0.1340909,
                "tempo": 120.0
            },
            {
                "start_time": 44.8409091,
                "end_time": 44.975,
                "pitch": 75,
                "velocity": 40,
                "duration": 0.1340909,
                "tempo": 120.0
            },
            {
                "start_time": 44.9931818,
                "end_time": 45.1272727,
                "pitch": 75,
                "velocity": 40,
                "duration": 0.1340909,
                "tempo": 120.0
            },
            {
                "start_time": 45.1431818,
                "end_time": 45.2772727,
                "pitch": 74,
                "velocity": 40,
                "duration": 0.1340909,
                "tempo": 120.0
            },
            {
                "start_time": 45.2954545,
                "end_time": 45.4295455,
                "pitch": 74,
                "velocity": 40,
                "duration": 0.1340909,
                "tempo": 120.0
            },
            {
                "start_time": 45.4477273,
                "end_time": 45.5818182,
                "pitch": 72,
                "velocity": 40,
                "duration": 0.1340909,
                "tempo": 120.0
            },
            {
                "start_time": 45.5977273,
                "end_time": 45.7318182,
                "pitch": 72,
                "velocity": 40,
                "duration": 0.1340909,
                "tempo": 120.0
            },
            {
                "start_time": 45.75,
                "end_time": 45.8840909,
                "pitch": 70,
                "velocity": 40,
                "duration": 0.1340909,
                "tempo": 120.0
            },
            {
                "start_time": 45.9022727,
                "end_time": 46.0363636,
                "pitch": 70,
                "velocity": 40,
                "duration": 0.1340909,
                "tempo": 120.0
            },
            {
                "start_time": 46.0522727,
                "end_time": 46.1863636,
                "pitch": 74,
                "velocity": 40,
                "duration": 0.1340909,
                "tempo": 120.0
            },
            {
                "start_time": 46.2045455,
                "end_time": 46.3386364,
                "pitch": 74,
                "velocity": 40,
                "duration": 0.1340909,
                "tempo": 120.0
            },
            {
                "start_time": 46.3568182,
                "end_time": 46.4909091,
                "pitch": 77,
                "velocity": 40,
                "duration": 0.1340909,
                "tempo": 120.0
            },
            {
                "start_time": 46.5068182,
                "end_time": 46.6409091,
                "pitch": 77,
                "velocity": 40,
                "duration": 0.1340909,
                "tempo": 120.0
            },
            {
                "start_time": 46.6590909,
                "end_time": 46.7909091,
                "pitch": 74,
                "velocity": 40,
                "duration": 0.1318182,
                "tempo": 120.0
            },
            {
                "start_time": 46.8090909,
                "end_time": 46.9409091,
                "pitch": 77,
                "velocity": 40,
                "duration": 0.1318182,
                "tempo": 120.0
            },
            {
                "start_time": 46.9590909,
                "end_time": 47.0909091,
                "pitch": 72,
                "velocity": 40,
                "duration": 0.1318182,
                "tempo": 120.0
            },
            {
                "start_time": 47.1090909,
                "end_time": 47.2409091,
                "pitch": 72,
                "velocity": 40,
                "duration": 0.1318182,
                "tempo": 120.0
            },
            {
                "start_time": 47.2590909,
                "end_time": 47.3931818,
                "pitch": 77,
                "velocity": 40,
                "duration": 0.1340909,
                "tempo": 120.0
            },
            {
                "start_time": 47.4113636,
                "end_time": 47.5454545,
                "pitch": 77,
                "velocity": 40,
                "duration": 0.1340909,
                "tempo": 120.0
            },
            {
                "start_time": 47.5613636,
                "end_time": 47.6954545,
                "pitch": 80,
                "velocity": 40,
                "duration": 0.1340909,
                "tempo": 120.0
            },
            {
                "start_time": 47.7136364,
                "end_time": 47.8477273,
                "pitch": 80,
                "velocity": 40,
                "duration": 0.1340909,
                "tempo": 120.0
            },
            {
                "start_time": 47.8659091,
                "end_time": 48.0,
                "pitch": 79,
                "velocity": 40,
                "duration": 0.1340909,
                "tempo": 120.0
            },
            {
                "start_time": 48.0181818,
                "end_time": 48.1545455,
                "pitch": 77,
                "velocity": 40,
                "duration": 0.1363636,
                "tempo": 120.0
            },
            {
                "start_time": 48.1704545,
                "end_time": 48.3068182,
                "pitch": 79,
                "velocity": 40,
                "duration": 0.1363636,
                "tempo": 120.0
            },
            {
                "start_time": 48.325,
                "end_time": 48.4590909,
                "pitch": 79,
                "velocity": 40,
                "duration": 0.1340909,
                "tempo": 120.0
            },
            {
                "start_time": 48.4772727,
                "end_time": 48.6090909,
                "pitch": 75,
                "velocity": 40,
                "duration": 0.1318182,
                "tempo": 120.0
            },
            {
                "start_time": 48.625,
                "end_time": 48.7568182,
                "pitch": 75,
                "velocity": 40,
                "duration": 0.1318182,
                "tempo": 120.0
            },
            {
                "start_time": 48.775,
                "end_time": 48.9068182,
                "pitch": 70,
                "velocity": 40,
                "duration": 0.1318182,
                "tempo": 120.0
            },
            {
                "start_time": 48.9227273,
                "end_time": 49.0545455,
                "pitch": 70,
                "velocity": 40,
                "duration": 0.1318182,
                "tempo": 120.0
            },
            {
                "start_time": 49.0704545,
                "end_time": 49.2045455,
                "pitch": 75,
                "velocity": 40,
                "duration": 0.1340909,
                "tempo": 120.0
            },
            {
                "start_time": 49.2227273,
                "end_time": 49.3568182,
                "pitch": 75,
                "velocity": 40,
                "duration": 0.1340909,
                "tempo": 120.0
            },
            {
                "start_time": 49.375,
                "end_time": 49.5090909,
                "pitch": 79,
                "velocity": 40,
                "duration": 0.1340909,
                "tempo": 120.0
            },
            {
                "start_time": 49.525,
                "end_time": 49.6590909,
                "pitch": 79,
                "velocity": 40,
                "duration": 0.1340909,
                "tempo": 120.0
            },
            {
                "start_time": 49.6772727,
                "end_time": 49.8136364,
                "pitch": 75,
                "velocity": 40,
                "duration": 0.1363636,
                "tempo": 120.0
            },
            {
                "start_time": 49.8295455,
                "end_time": 49.9659091,
                "pitch": 75,
                "velocity": 40,
                "duration": 0.1363636,
                "tempo": 120.0
            },
            {
                "start_time": 49.9840909,
                "end_time": 50.1181818,
                "pitch": 70,
                "velocity": 40,
                "duration": 0.1340909,
                "tempo": 120.0
            },
            {
                "start_time": 50.1363636,
                "end_time": 50.2727273,
                "pitch": 70,
                "velocity": 40,
                "duration": 0.1363636,
                "tempo": 120.0
            },
            {
                "start_time": 50.2886364,
                "end_time": 50.4204545,
                "pitch": 75,
                "velocity": 40,
                "duration": 0.1318182,
                "tempo": 120.0
            },
            {
                "start_time": 50.4386364,
                "end_time": 50.5704545,
                "pitch": 75,
                "velocity": 40,
                "duration": 0.1318182,
                "tempo": 120.0
            },
            {
                "start_time": 50.5863636,
                "end_time": 50.7181818,
                "pitch": 77,
                "velocity": 40,
                "duration": 0.1318182,
                "tempo": 120.0
            },
            {
                "start_time": 50.7340909,
                "end_time": 50.8659091,
                "pitch": 77,
                "velocity": 40,
                "duration": 0.1318182,
                "tempo": 120.0
            },
            {
                "start_time": 50.8840909,
                "end_time": 51.0181818,
                "pitch": 74,
                "velocity": 40,
                "duration": 0.1340909,
                "tempo": 120.0
            },
            {
                "start_time": 51.0363636,
                "end_time": 51.1727273,
                "pitch": 74,
                "velocity": 40,
                "duration": 0.1363636,
                "tempo": 120.0
            },
            {
                "start_time": 51.1886364,
                "end_time": 51.325,
                "pitch": 70,
                "velocity": 40,
                "duration": 0.1363636,
                "tempo": 120.0
            },
            {
                "start_time": 51.3431818,
                "end_time": 51.4772727,
                "pitch": 70,
                "velocity": 40,
                "duration": 0.1340909,
                "tempo": 120.0
            },
            {
                "start_time": 51.4954545,
                "end_time": 51.6272727,
                "pitch": 74,
                "velocity": 40,
                "duration": 0.1318182,
                "tempo": 120.0
            },
            {
                "start_time": 51.6431818,
                "end_time": 51.775,
                "pitch": 74,
                "velocity": 40,
                "duration": 0.1318182,
                "tempo": 120.0
            },
            {
                "start_time": 51.7931818,
                "end_time": 51.925,
                "pitch": 77,
                "velocity": 40,
                "duration": 0.1318182,
                "tempo": 120.0
            },
            {
                "start_time": 51.9409091,
                "end_time": 52.0727273,
                "pitch": 77,
                "velocity": 40,
                "duration": 0.1318182,
                "tempo": 120.0
            },
            {
                "start_time": 52.0886364,
                "end_time": 52.225,
                "pitch": 80,
                "velocity": 40,
                "duration": 0.1363636,
                "tempo": 120.0
            },
            {
                "start_time": 52.2409091,
                "end_time": 52.375,
                "pitch": 80,
                "velocity": 40,
                "duration": 0.1340909,
                "tempo": 120.0
            },
            {
                "start_time": 52.3931818,
                "end_time": 52.5272727,
                "pitch": 79,
                "velocity": 40,
                "duration": 0.1340909,
                "tempo": 120.0
            },
            {
                "start_time": 52.5431818,
                "end_time": 52.6795455,
                "pitch": 79,
                "velocity": 40,
                "duration": 0.1363636,
                "tempo": 120.0
            },
            {
                "start_time": 52.6954545,
                "end_time": 52.8318182,
                "pitch": 77,
                "velocity": 40,
                "duration": 0.1363636,
                "tempo": 120.0
            },
            {
                "start_time": 52.8477273,
                "end_time": 52.9840909,
                "pitch": 77,
                "velocity": 40,
                "duration": 0.1363636,
                "tempo": 120.0
            },
            {
                "start_time": 53.0022727,
                "end_time": 53.1363636,
                "pitch": 70,
                "velocity": 40,
                "duration": 0.1340909,
                "tempo": 120.0
            },
            {
                "start_time": 53.1545455,
                "end_time": 53.2909091,
                "pitch": 70,
                "velocity": 40,
                "duration": 0.1363636,
                "tempo": 120.0
            },
            {
                "start_time": 53.3068182,
                "end_time": 53.4386364,
                "pitch": 72,
                "velocity": 40,
                "duration": 0.1318182,
                "tempo": 120.0
            },
            {
                "start_time": 53.4568182,
                "end_time": 53.5886364,
                "pitch": 72,
                "velocity": 40,
                "duration": 0.1318182,
                "tempo": 120.0
            },
            {
                "start_time": 53.6045455,
                "end_time": 53.7363636,
                "pitch": 74,
                "velocity": 40,
                "duration": 0.1318182,
                "tempo": 120.0
            },
            {
                "start_time": 53.7522727,
                "end_time": 53.8840909,
                "pitch": 74,
                "velocity": 40,
                "duration": 0.1318182,
                "tempo": 120.0
            },
            {
                "start_time": 53.9022727,
                "end_time": 54.0363636,
                "pitch": 75,
                "velocity": 40,
                "duration": 0.1340909,
                "tempo": 120.0
            },
            {
                "start_time": 54.0545455,
                "end_time": 54.1909091,
                "pitch": 75,
                "velocity": 40,
                "duration": 0.1363636,
                "tempo": 120.0
            },
            {
                "start_time": 54.2068182,
                "end_time": 54.3431818,
                "pitch": 77,
                "velocity": 40,
                "duration": 0.1363636,
                "tempo": 120.0
            },
            {
                "start_time": 54.3613636,
                "end_time": 54.4954545,
                "pitch": 77,
                "velocity": 40,
                "duration": 0.1340909,
                "tempo": 120.0
            },
            {
                "start_time": 54.5136364,
                "end_time": 54.6477273,
                "pitch": 75,
                "velocity": 40,
                "duration": 0.1340909,
                "tempo": 120.0
            },
            {
                "start_time": 54.6659091,
                "end_time": 54.8,
                "pitch": 75,
                "velocity": 40,
                "duration": 0.1340909,
                "tempo": 120.0
            },
            {
                "start_time": 54.8159091,
                "end_time": 54.9522727,
                "pitch": 74,
                "velocity": 40,
                "duration": 0.1363636,
                "tempo": 120.0
            },
            {
                "start_time": 54.9681818,
                "end_time": 55.1022727,
                "pitch": 74,
                "velocity": 40,
                "duration": 0.1340909,
                "tempo": 120.0
            },
            {
                "start_time": 55.1204545,
                "end_time": 55.2522727,
                "pitch": 72,
                "velocity": 40,
                "duration": 0.1318182,
                "tempo": 120.0
            },
            {
                "start_time": 55.2681818,
                "end_time": 55.4,
                "pitch": 72,
                "velocity": 40,
                "duration": 0.1318182,
                "tempo": 120.0
            },
            {
                "start_time": 55.4159091,
                "end_time": 55.5477273,
                "pitch": 70,
                "velocity": 40,
                "duration": 0.1318182,
                "tempo": 120.0
            },
            {
                "start_time": 55.5659091,
                "end_time": 55.6977273,
                "pitch": 70,
                "velocity": 40,
                "duration": 0.1318182,
                "tempo": 120.0
            },
            {
                "start_time": 55.7136364,
                "end_time": 55.8477273,
                "pitch": 74,
                "velocity": 40,
                "duration": 0.1340909,
                "tempo": 120.0
            },
            {
                "start_time": 55.8636364,
                "end_time": 55.9977273,
                "pitch": 74,
                "velocity": 40,
                "duration": 0.1340909,
                "tempo": 120.0
            },
            {
                "start_time": 56.0136364,
                "end_time": 56.1477273,
                "pitch": 77,
                "velocity": 40,
                "duration": 0.1340909,
                "tempo": 120.0
            },
            {
                "start_time": 56.1636364,
                "end_time": 56.2977273,
                "pitch": 77,
                "velocity": 40,
                "duration": 0.1340909,
                "tempo": 120.0
            },
            {
                "start_time": 56.3136364,
                "end_time": 56.4477273,
                "pitch": 74,
                "velocity": 40,
                "duration": 0.1340909,
                "tempo": 120.0
            },
            {
                "start_time": 56.4659091,
                "end_time": 56.6,
                "pitch": 77,
                "velocity": 40,
                "duration": 0.1340909,
                "tempo": 120.0
            },
            {
                "start_time": 56.6159091,
                "end_time": 56.65,
                "pitch": 75,
                "velocity": 40,
                "duration": 0.0340909,
                "tempo": 120.0
            },
            {
                "start_time": 57.225,
                "end_time": 57.5159091,
                "pitch": 72,
                "velocity": 40,
                "duration": 0.2909091,
                "tempo": 120.0
            },
            {
                "start_time": 57.5318182,
                "end_time": 57.8181818,
                "pitch": 74,
                "velocity": 40,
                "duration": 0.2863636,
                "tempo": 120.0
            },
            {
                "start_time": 57.8340909,
                "end_time": 58.1204545,
                "pitch": 80,
                "velocity": 40,
                "duration": 0.2863636,
                "tempo": 120.0
            },
            {
                "start_time": 58.1386364,
                "end_time": 58.2727273,
                "pitch": 79,
                "velocity": 40,
                "duration": 0.1340909,
                "tempo": 120.0
            },
            {
                "start_time": 58.2886364,
                "end_time": 58.575,
                "pitch": 77,
                "velocity": 40,
                "duration": 0.2863636,
                "tempo": 120.0
            },
            {
                "start_time": 58.5931818,
                "end_time": 58.7272727,
                "pitch": 80,
                "velocity": 40,
                "duration": 0.1340909,
                "tempo": 120.0
            },
            {
                "start_time": 58.7431818,
                "end_time": 58.8795455,
                "pitch": 79,
                "velocity": 40,
                "duration": 0.1363636,
                "tempo": 120.0
            },
            {
                "start_time": 58.8954545,
                "end_time": 59.0295455,
                "pitch": 77,
                "velocity": 40,
                "duration": 0.1340909,
                "tempo": 120.0
            },
            {
                "start_time": 59.0477273,
                "end_time": 59.3340909,
                "pitch": 80,
                "velocity": 40,
                "duration": 0.2863636,
                "tempo": 120.0
            },
            {
                "start_time": 59.35,
                "end_time": 59.4840909,
                "pitch": 80,
                "velocity": 40,
                "duration": 0.1340909,
                "tempo": 120.0
            },
            {
                "start_time": 59.5022727,
                "end_time": 59.7886364,
                "pitch": 77,
                "velocity": 40,
                "duration": 0.2863636,
                "tempo": 120.0
            },
            {
                "start_time": 59.8045455,
                "end_time": 59.9386364,
                "pitch": 77,
                "velocity": 40,
                "duration": 0.1340909,
                "tempo": 120.0
            },
            {
                "start_time": 59.9568182,
                "end_time": 60.0886364,
                "pitch": 79,
                "velocity": 40,
                "duration": 0.1318182,
                "tempo": 120.0
            },
            {
                "start_time": 60.1045455,
                "end_time": 60.2363636,
                "pitch": 80,
                "velocity": 40,
                "duration": 0.1318182,
                "tempo": 120.0
            },
            {
                "start_time": 60.2522727,
                "end_time": 60.5340909,
                "pitch": 84,
                "velocity": 40,
                "duration": 0.2818182,
                "tempo": 120.0
            },
            {
                "start_time": 60.55,
                "end_time": 60.8386364,
                "pitch": 84,
                "velocity": 40,
                "duration": 0.2886364,
                "tempo": 120.0
            },
            {
                "start_time": 60.8568182,
                "end_time": 61.1454545,
                "pitch": 84,
                "velocity": 40,
                "duration": 0.2886364,
                "tempo": 120.0
            },
            {
                "start_time": 61.1613636,
                "end_time": 61.2931818,
                "pitch": 79,
                "velocity": 40,
                "duration": 0.1318182,
                "tempo": 120.0
            },
            {
                "start_time": 61.3113636,
                "end_time": 61.5909091,
                "pitch": 75,
                "velocity": 40,
                "duration": 0.2795455,
                "tempo": 120.0
            },
            {
                "start_time": 61.6068182,
                "end_time": 61.7386364,
                "pitch": 75,
                "velocity": 40,
                "duration": 0.1318182,
                "tempo": 120.0
            },
            {
                "start_time": 61.7568182,
                "end_time": 62.0454545,
                "pitch": 75,
                "velocity": 40,
                "duration": 0.2886364,
                "tempo": 120.0
            },
            {
                "start_time": 62.0613636,
                "end_time": 62.3522727,
                "pitch": 75,
                "velocity": 40,
                "duration": 0.2909091,
                "tempo": 120.0
            },
            {
                "start_time": 62.3681818,
                "end_time": 62.6477273,
                "pitch": 79,
                "velocity": 40,
                "duration": 0.2795455,
                "tempo": 120.0
            },
            {
                "start_time": 62.6659091,
                "end_time": 62.9454545,
                "pitch": 80,
                "velocity": 40,
                "duration": 0.2795455,
                "tempo": 120.0
            },
            {
                "start_time": 62.9613636,
                "end_time": 63.0977273,
                "pitch": 79,
                "velocity": 40,
                "duration": 0.1363636,
                "tempo": 120.0
            },
            {
                "start_time": 63.1136364,
                "end_time": 63.4,
                "pitch": 77,
                "velocity": 40,
                "duration": 0.2863636,
                "tempo": 120.0
            },
            {
                "start_time": 63.4159091,
                "end_time": 63.5522727,
                "pitch": 80,
                "velocity": 40,
                "duration": 0.1363636,
                "tempo": 120.0
            },
            {
                "start_time": 63.5681818,
                "end_time": 63.7022727,
                "pitch": 79,
                "velocity": 40,
                "duration": 0.1340909,
                "tempo": 120.0
            },
            {
                "start_time": 63.7204545,
                "end_time": 63.8545455,
                "pitch": 77,
                "velocity": 40,
                "duration": 0.1340909,
                "tempo": 120.0
            },
            {
                "start_time": 63.8704545,
                "end_time": 64.1568182,
                "pitch": 80,
                "velocity": 40,
                "duration": 0.2863636,
                "tempo": 120.0
            },
            {
                "start_time": 64.175,
                "end_time": 64.3113636,
                "pitch": 80,
                "velocity": 40,
                "duration": 0.1363636,
                "tempo": 120.0
            },
            {
                "start_time": 64.3272727,
                "end_time": 64.6159091,
                "pitch": 77,
                "velocity": 40,
                "duration": 0.2886364,
                "tempo": 120.0
            },
            {
                "start_time": 64.6340909,
                "end_time": 64.7704545,
                "pitch": 77,
                "velocity": 40,
                "duration": 0.1363636,
                "tempo": 120.0
            },
            {
                "start_time": 64.7863636,
                "end_time": 64.9181818,
                "pitch": 79,
                "velocity": 40,
                "duration": 0.1318182,
                "tempo": 120.0
            },
            {
                "start_time": 64.9340909,
                "end_time": 65.0659091,
                "pitch": 80,
                "velocity": 40,
                "duration": 0.1318182,
                "tempo": 120.0
            },
            {
                "start_time": 65.0840909,
                "end_time": 65.3636364,
                "pitch": 84,
                "velocity": 40,
                "duration": 0.2795455,
                "tempo": 120.0
            },
            {
                "start_time": 65.3795455,
                "end_time": 65.6704545,
                "pitch": 84,
                "velocity": 40,
                "duration": 0.2909091,
                "tempo": 120.0
            },
            {
                "start_time": 65.6863636,
                "end_time": 65.975,
                "pitch": 84,
                "velocity": 40,
                "duration": 0.2886364,
                "tempo": 120.0
            },
            {
                "start_time": 65.9931818,
                "end_time": 66.125,
                "pitch": 86,
                "velocity": 40,
                "duration": 0.1318182,
                "tempo": 120.0
            },
            {
                "start_time": 66.1409091,
                "end_time": 66.4204545,
                "pitch": 86,
                "velocity": 40,
                "duration": 0.2795455,
                "tempo": 120.0
            },
            {
                "start_time": 77.4340909,
                "end_time": 77.7159091,
                "pitch": 79,
                "velocity": 40,
                "duration": 0.2818182,
                "tempo": 120.0
            }
        ],
        "Clarinet": [
            {
                "start_time": 66.4386364,
                "end_time": 66.4886364,
                "pitch": 74,
                "velocity": 80,
                "duration": 0.05,
                "tempo": 120.0
            },
            {
                "start_time": 66.4886364,
                "end_time": 66.5204545,
                "pitch": 71,
                "velocity": 80,
                "duration": 0.0318182,
                "tempo": 120.0
            },
            {
                "start_time": 66.5204545,
                "end_time": 66.5704545,
                "pitch": 74,
                "velocity": 80,
                "duration": 0.05,
                "tempo": 120.0
            },
            {
                "start_time": 66.5704545,
                "end_time": 66.5863636,
                "pitch": 71,
                "velocity": 80,
                "duration": 0.0159091,
                "tempo": 120.0
            },
            {
                "start_time": 66.5863636,
                "end_time": 66.6363636,
                "pitch": 74,
                "velocity": 80,
                "duration": 0.05,
                "tempo": 120.0
            },
            {
                "start_time": 66.6363636,
                "end_time": 66.6704545,
                "pitch": 71,
                "velocity": 80,
                "duration": 0.0340909,
                "tempo": 120.0
            },
            {
                "start_time": 66.6704545,
                "end_time": 66.7022727,
                "pitch": 69,
                "velocity": 80,
                "duration": 0.0318182,
                "tempo": 120.0
            },
            {
                "start_time": 66.7022727,
                "end_time": 66.7363636,
                "pitch": 67,
                "velocity": 80,
                "duration": 0.0340909,
                "tempo": 120.0
            },
            {
                "start_time": 66.7363636,
                "end_time": 66.7863636,
                "pitch": 74,
                "velocity": 80,
                "duration": 0.05,
                "tempo": 120.0
            },
            {
                "start_time": 66.7863636,
                "end_time": 66.8204545,
                "pitch": 71,
                "velocity": 80,
                "duration": 0.0340909,
                "tempo": 120.0
            },
            {
                "start_time": 66.8204545,
                "end_time": 66.8522727,
                "pitch": 69,
                "velocity": 80,
                "duration": 0.0318182,
                "tempo": 120.0
            },
            {
                "start_time": 66.8522727,
                "end_time": 66.8863636,
                "pitch": 67,
                "velocity": 80,
                "duration": 0.0340909,
                "tempo": 120.0
            },
            {
                "start_time": 66.8863636,
                "end_time": 66.9204545,
                "pitch": 69,
                "velocity": 80,
                "duration": 0.0340909,
                "tempo": 120.0
            },
            {
                "start_time": 66.9204545,
                "end_time": 66.9704545,
                "pitch": 67,
                "velocity": 80,
                "duration": 0.05,
                "tempo": 120.0
            },
            {
                "start_time": 66.9704545,
                "end_time": 67.0204545,
                "pitch": 64,
                "velocity": 80,
                "duration": 0.05,
                "tempo": 120.0
            },
            {
                "start_time": 67.0204545,
                "end_time": 67.0363636,
                "pitch": 62,
                "velocity": 80,
                "duration": 0.0159091,
                "tempo": 120.0
            },
            {
                "start_time": 67.0363636,
                "end_time": 67.0704545,
                "pitch": 69,
                "velocity": 80,
                "duration": 0.0340909,
                "tempo": 120.0
            },
            {
                "start_time": 67.0704545,
                "end_time": 67.1204545,
                "pitch": 67,
                "velocity": 80,
                "duration": 0.05,
                "tempo": 120.0
            },
            {
                "start_time": 67.1204545,
                "end_time": 67.1704545,
                "pitch": 64,
                "velocity": 80,
                "duration": 0.05,
                "tempo": 120.0
            },
            {
                "start_time": 67.1704545,
                "end_time": 67.1863636,
                "pitch": 62,
                "velocity": 80,
                "duration": 0.0159091,
                "tempo": 120.0
            },
            {
                "start_time": 67.1863636,
                "end_time": 67.4931818,
                "pitch": 66,
                "velocity": 80,
                "duration": 0.3068182,
                "tempo": 120.0
            },
            {
                "start_time": 67.4931818,
                "end_time": 67.7818182,
                "pitch": 80,
                "velocity": 80,
                "duration": 0.2886364,
                "tempo": 120.0
            },
            {
                "start_time": 67.7977273,
                "end_time": 68.0795455,
                "pitch": 80,
                "velocity": 40,
                "duration": 0.2818182,
                "tempo": 120.0
            },
            {
                "start_time": 68.0954545,
                "end_time": 68.2272727,
                "pitch": 80,
                "velocity": 40,
                "duration": 0.1318182,
                "tempo": 120.0
            },
            {
                "start_time": 68.2431818,
                "end_time": 68.525,
                "pitch": 84,
                "velocity": 40,
                "duration": 0.2818182,
                "tempo": 120.0
            },
            {
                "start_time": 68.5431818,
                "end_time": 68.825,
                "pitch": 79,
                "velocity": 40,
                "duration": 0.2818182,
                "tempo": 120.0
            },
            {
                "start_time": 68.8431818,
                "end_time": 69.1272727,
                "pitch": 79,
                "velocity": 40,
                "duration": 0.2840909,
                "tempo": 120.0
            },
            {
                "start_time": 69.1431818,
                "end_time": 69.2795455,
                "pitch": 79,
                "velocity": 40,
                "duration": 0.1363636,
                "tempo": 120.0
            },
            {
                "start_time": 69.2954545,
                "end_time": 69.5818182,
                "pitch": 86,
                "velocity": 40,
                "duration": 0.2863636,
                "tempo": 120.0
            },
            {
                "start_time": 69.5977273,
                "end_time": 69.8818182,
                "pitch": 84,
                "velocity": 40,
                "duration": 0.2840909,
                "tempo": 120.0
            },
            {
                "start_time": 69.8977273,
                "end_time": 70.1818182,
                "pitch": 77,
                "velocity": 40,
                "duration": 0.2840909,
                "tempo": 120.0
            },
            {
                "start_time": 70.1977273,
                "end_time": 70.4818182,
                "pitch": 77,
                "velocity": 40,
                "duration": 0.2840909,
                "tempo": 120.0
            },
            {
                "start_time": 70.4977273,
                "end_time": 70.7818182,
                "pitch": 80,
                "velocity": 40,
                "duration": 0.2840909,
                "tempo": 120.0
            },
            {
                "start_time": 70.7977273,
                "end_time": 70.9340909,
                "pitch": 77,
                "velocity": 40,
                "duration": 0.1363636,
                "tempo": 120.0
            },
            {
                "start_time": 70.95,
                "end_time": 71.2363636,
                "pitch": 75,
                "velocity": 40,
                "duration": 0.2863636,
                "tempo": 120.0
            },
            {
                "start_time": 71.2522727,
                "end_time": 71.3886364,
                "pitch": 75,
                "velocity": 40,
                "duration": 0.1363636,
                "tempo": 120.0
            },
            {
                "start_time": 71.4045455,
                "end_time": 71.6886364,
                "pitch": 75,
                "velocity": 40,
                "duration": 0.2840909,
                "tempo": 120.0
            },
            {
                "start_time": 71.7045455,
                "end_time": 71.9886364,
                "pitch": 77,
                "velocity": 40,
                "duration": 0.2840909,
                "tempo": 120.0
            },
            {
                "start_time": 72.0045455,
                "end_time": 72.2909091,
                "pitch": 79,
                "velocity": 40,
                "duration": 0.2863636,
                "tempo": 120.0
            },
            {
                "start_time": 72.3068182,
                "end_time": 72.5931818,
                "pitch": 80,
                "velocity": 40,
                "duration": 0.2863636,
                "tempo": 120.0
            },
            {
                "start_time": 72.6113636,
                "end_time": 72.8931818,
                "pitch": 80,
                "velocity": 40,
                "duration": 0.2818182,
                "tempo": 120.0
            },
            {
                "start_time": 72.9113636,
                "end_time": 73.1931818,
                "pitch": 84,
                "velocity": 40,
                "duration": 0.2818182,
                "tempo": 120.0
            },
            {
                "start_time": 73.2113636,
                "end_time": 73.3431818,
                "pitch": 80,
                "velocity": 40,
                "duration": 0.1318182,
                "tempo": 120.0
            },
            {
                "start_time": 73.3613636,
                "end_time": 73.6431818,
                "pitch": 79,
                "velocity": 40,
                "duration": 0.2818182,
                "tempo": 120.0
            },
            {
                "start_time": 73.6613636,
                "end_time": 73.7931818,
                "pitch": 79,
                "velocity": 40,
                "duration": 0.1318182,
                "tempo": 120.0
            },
            {
                "start_time": 73.8113636,
                "end_time": 74.0977273,
                "pitch": 79,
                "velocity": 40,
                "duration": 0.2863636,
                "tempo": 120.0
            },
            {
                "start_time": 74.1136364,
                "end_time": 74.4,
                "pitch": 82,
                "velocity": 40,
                "duration": 0.2863636,
                "tempo": 120.0
            },
            {
                "start_time": 74.4159091,
                "end_time": 74.7,
                "pitch": 84,
                "velocity": 40,
                "duration": 0.2840909,
                "tempo": 120.0
            },
            {
                "start_time": 74.7159091,
                "end_time": 75.5727273,
                "pitch": 82,
                "velocity": 40,
                "duration": 0.8568182,
                "tempo": 120.0
            },
            {
                "start_time": 75.9227273,
                "end_time": 75.9727273,
                "pitch": 74,
                "velocity": 80,
                "duration": 0.05,
                "tempo": 120.0
            },
            {
                "start_time": 75.9727273,
                "end_time": 76.0068182,
                "pitch": 71,
                "velocity": 80,
                "duration": 0.0340909,
                "tempo": 120.0
            },
            {
                "start_time": 76.0068182,
                "end_time": 76.0386364,
                "pitch": 69,
                "velocity": 80,
                "duration": 0.0318182,
                "tempo": 120.0
            },
            {
                "start_time": 76.0386364,
                "end_time": 76.0727273,
                "pitch": 67,
                "velocity": 80,
                "duration": 0.0340909,
                "tempo": 120.0
            },
            {
                "start_time": 76.0727273,
                "end_time": 76.1068182,
                "pitch": 69,
                "velocity": 80,
                "duration": 0.0340909,
                "tempo": 120.0
            },
            {
                "start_time": 76.1068182,
                "end_time": 76.1568182,
                "pitch": 67,
                "velocity": 80,
                "duration": 0.05,
                "tempo": 120.0
            },
            {
                "start_time": 76.1568182,
                "end_time": 76.2068182,
                "pitch": 64,
                "velocity": 80,
                "duration": 0.05,
                "tempo": 120.0
            },
            {
                "start_time": 76.2068182,
                "end_time": 76.2227273,
                "pitch": 62,
                "velocity": 80,
                "duration": 0.0159091,
                "tempo": 120.0
            },
            {
                "start_time": 76.2227273,
                "end_time": 76.3727273,
                "pitch": 66,
                "velocity": 80,
                "duration": 0.15,
                "tempo": 120.0
            },
            {
                "start_time": 76.3727273,
                "end_time": 76.4227273,
                "pitch": 74,
                "velocity": 80,
                "duration": 0.05,
                "tempo": 120.0
            },
            {
                "start_time": 76.4227273,
                "end_time": 76.4568182,
                "pitch": 71,
                "velocity": 80,
                "duration": 0.0340909,
                "tempo": 120.0
            },
            {
                "start_time": 76.4568182,
                "end_time": 76.4886364,
                "pitch": 69,
                "velocity": 80,
                "duration": 0.0318182,
                "tempo": 120.0
            },
            {
                "start_time": 76.4886364,
                "end_time": 76.5227273,
                "pitch": 67,
                "velocity": 80,
                "duration": 0.0340909,
                "tempo": 120.0
            },
            {
                "start_time": 76.5227273,
                "end_time": 76.5568182,
                "pitch": 69,
                "velocity": 80,
                "duration": 0.0340909,
                "tempo": 120.0
            },
            {
                "start_time": 76.5568182,
                "end_time": 76.6068182,
                "pitch": 67,
                "velocity": 80,
                "duration": 0.05,
                "tempo": 120.0
            },
            {
                "start_time": 76.6068182,
                "end_time": 76.6568182,
                "pitch": 64,
                "velocity": 80,
                "duration": 0.05,
                "tempo": 120.0
            },
            {
                "start_time": 76.6568182,
                "end_time": 76.6727273,
                "pitch": 62,
                "velocity": 80,
                "duration": 0.0159091,
                "tempo": 120.0
            },
            {
                "start_time": 76.6727273,
                "end_time": 76.8227273,
                "pitch": 66,
                "velocity": 80,
                "duration": 0.15,
                "tempo": 120.0
            },
            {
                "start_time": 76.8227273,
                "end_time": 76.8727273,
                "pitch": 74,
                "velocity": 80,
                "duration": 0.05,
                "tempo": 120.0
            },
            {
                "start_time": 76.8727273,
                "end_time": 76.9068182,
                "pitch": 71,
                "velocity": 80,
                "duration": 0.0340909,
                "tempo": 120.0
            },
            {
                "start_time": 76.9068182,
                "end_time": 76.9409091,
                "pitch": 69,
                "velocity": 80,
                "duration": 0.0340909,
                "tempo": 120.0
            },
            {
                "start_time": 76.9409091,
                "end_time": 76.975,
                "pitch": 67,
                "velocity": 80,
                "duration": 0.0340909,
                "tempo": 120.0
            },
            {
                "start_time": 76.975,
                "end_time": 77.0090909,
                "pitch": 69,
                "velocity": 80,
                "duration": 0.0340909,
                "tempo": 120.0
            },
            {
                "start_time": 77.0090909,
                "end_time": 77.0613636,
                "pitch": 67,
                "velocity": 80,
                "duration": 0.0522727,
                "tempo": 120.0
            },
            {
                "start_time": 77.0613636,
                "end_time": 77.1113636,
                "pitch": 64,
                "velocity": 80,
                "duration": 0.05,
                "tempo": 120.0
            }
        ]
    }
}