{
    "mood": "happy",
    "instruments": {
        "Electric Guitar (clean)": [
            {
                "start_time": 0.6409091,
                "end_time": 1.0363636,
                "pitch": 32,
                "velocity": 64,
                "duration": 0.3954545,
                "tempo": 120.0
            },
            {
                "start_time": 1.0545455,
                "end_time": 1.2431818,
                "pitch": 32,
                "velocity": 64,
                "duration": 0.1886364,
                "tempo": 120.0
            },
            {
                "start_time": 1.2590909,
                "end_time": 1.4659091,
                "pitch": 32,
                "velocity": 64,
                "duration": 0.2068182,
                "tempo": 120.0
            },
            {
                "start_time": 1.5,
                "end_time": 1.6727273,
                "pitch": 27,
                "velocity": 64,
                "duration": 0.1727273,
                "tempo": 120.0
            },
            {
                "start_time": 1.6886364,
                "end_time": 1.8772727,
                "pitch": 27,
                "velocity": 64,
                "duration": 0.1886364,
                "tempo": 120.0
            },
            {
                "start_time": 1.8954545,
                "end_time": 2.2886364,
                "pitch": 30,
                "velocity": 64,
                "duration": 0.3931818,
                "tempo": 120.0
            },
            {
                "start_time": 2.3045455,
                "end_time": 2.7068182,
                "pitch": 32,
                "velocity": 64,
                "duration": 0.4022727,
                "tempo": 120.0
            },
            {
                "start_time": 2.7227273,
                "end_time": 2.9113636,
                "pitch": 32,
                "velocity": 64,
                "duration": 0.1886364,
                "tempo": 120.0
            },
            {
                "start_time": 2.9272727,
                "end_time": 3.1340909,
                "pitch": 32,
                "velocity": 64,
                "duration": 0.2068182,
                "tempo": 120.0
            },
            {
                "start_time": 3.1522727,
                "end_time": 3.3363636,
                "pitch": 27,
                "velocity": 64,
                "duration": 0.1840909,
                "tempo": 120.0
            },
            {
                "start_time": 3.3681818,
                "end_time": 3.5363636,
                "pitch": 27,
                "velocity": 64,
                "duration": 0.1681818,
                "tempo": 120.0
            },
            {
                "start_time": 3.5522727,
                "end_time": 3.9545455,
                "pitch": 30,
                "velocity": 64,
                "duration": 0.4022727,
                "tempo": 120.0
            },
            {
                "start_time": 3.9863636,
                "end_time": 4.3704545,
                "pitch": 32,
                "velocity": 64,
                "duration": 0.3840909,
                "tempo": 120.0
            },
            {
                "start_time": 4.3886364,
                "end_time": 4.5772727,
                "pitch": 32,
                "velocity": 64,
                "duration": 0.1886364,
                "tempo": 120.0
            },
            {
                "start_time": 4.5931818,
                "end_time": 4.8,
                "pitch": 32,
                "velocity": 64,
                "duration": 0.2068182,
                "tempo": 120.0
            },
            {
                "start_time": 4.8181818,
                "end_time": 5.0022727,
                "pitch": 27,
                "velocity": 64,
                "duration": 0.1840909,
                "tempo": 120.0
            },
            {
                "start_time": 5.0340909,
                "end_time": 5.2181818,
                "pitch": 27,
                "velocity": 64,
                "duration": 0.1840909,
                "tempo": 120.0
            },
            {
                "start_time": 5.2340909,
                "end_time": 5.6295455,
                "pitch": 30,
                "velocity": 64,
                "duration": 0.3954545,
                "tempo": 120.0
            },
            {
                "start_time": 5.6477273,
                "end_time": 6.0409091,
                "pitch": 32,
                "velocity": 64,
                "duration": 0.3931818,
                "tempo": 120.0
            },
            {
                "start_time": 6.0568182,
                "end_time": 6.2454545,
                "pitch": 32,
                "velocity": 64,
                "duration": 0.1886364,
                "tempo": 120.0
            },
            {
                "start_time": 6.2613636,
                "end_time": 6.4681818,
                "pitch": 32,
                "velocity": 64,
                "duration": 0.2068182,
                "tempo": 120.0
            },
            {
                "start_time": 6.4863636,
                "end_time": 6.675,
                "pitch": 27,
                "velocity": 64,
                "duration": 0.1886364,
                "tempo": 120.0
            },
            {
                "start_time": 6.6909091,
                "end_time": 6.8977273,
                "pitch": 27,
                "velocity": 64,
                "duration": 0.2068182,
                "tempo": 120.0
            },
            {
                "start_time": 6.9159091,
                "end_time": 7.3,
                "pitch": 30,
                "velocity": 64,
                "duration": 0.3840909,
                "tempo": 120.0
            },
            {
                "start_time": 7.3340909,
                "end_time": 7.7090909,
                "pitch": 37,
                "velocity": 64,
                "duration": 0.375,
                "tempo": 120.0
            },
            {
                "start_time": 7.7431818,
                "end_time": 7.9318182,
                "pitch": 37,
                "velocity": 64,
                "duration": 0.1886364,
                "tempo": 120.0
            },
            {
                "start_time": 7.9477273,
                "end_time": 8.1363636,
                "pitch": 37,
                "velocity": 64,
                "duration": 0.1886364,
                "tempo": 120.0
            },
            {
                "start_time": 8.1545455,
                "end_time": 8.3431818,
                "pitch": 32,
                "velocity": 64,
                "duration": 0.1886364,
                "tempo": 120.0
            },
            {
                "start_time": 8.3613636,
                "end_time": 8.5659091,
                "pitch": 32,
                "velocity": 64,
                "duration": 0.2045455,
                "tempo": 120.0
            },
            {
                "start_time": 8.6,
                "end_time": 8.9795455,
                "pitch": 35,
                "velocity": 64,
                "duration": 0.3795455,
                "tempo": 120.0
            },
            {
                "start_time": 9.0136364,
                "end_time": 9.3977273,
                "pitch": 37,
                "velocity": 64,
                "duration": 0.3840909,
                "tempo": 120.0
            },
            {
                "start_time": 9.4318182,
                "end_time": 9.6113636,
                "pitch": 37,
                "velocity": 64,
                "duration": 0.1795455,
                "tempo": 120.0
            },
            {
                "start_time": 9.6272727,
                "end_time": 9.8090909,
                "pitch": 37,
                "velocity": 64,
                "duration": 0.1818182,
                "tempo": 120.0
            },
            {
                "start_time": 9.825,
                "end_time": 10.0068182,
                "pitch": 32,
                "velocity": 64,
                "duration": 0.1818182,
                "tempo": 120.0
            },
            {
                "start_time": 10.025,
                "end_time": 10.225,
                "pitch": 32,
                "velocity": 64,
                "duration": 0.2,
                "tempo": 120.0
            },
            {
                "start_time": 10.2590909,
                "end_time": 10.6545455,
                "pitch": 35,
                "velocity": 64,
                "duration": 0.3954545,
                "tempo": 120.0
            },
            {
                "start_time": 10.6704545,
                "end_time": 11.0545455,
                "pitch": 32,
                "velocity": 64,
                "duration": 0.3840909,
                "tempo": 120.0
            },
            {
                "start_time": 11.0727273,
                "end_time": 11.2727273,
                "pitch": 32,
                "velocity": 64,
                "duration": 0.2,
                "tempo": 120.0
            },
            {
                "start_time": 11.2886364,
                "end_time": 11.4727273,
                "pitch": 32,
                "velocity": 64,
                "duration": 0.1840909,
                "tempo": 120.0
            },
            {
                "start_time": 11.4886364,
                "end_time": 11.6954545,
                "pitch": 27,
                "velocity": 64,
                "duration": 0.2068182,
                "tempo": 120.0
            },
            {
                "start_time": 11.7113636,
                "end_time": 11.9022727,
                "pitch": 27,
                "velocity": 64,
                "duration": 0.1909091,
                "tempo": 120.0
            },
            {
                "start_time": 11.9181818,
                "end_time": 12.3204545,
                "pitch": 30,
                "velocity": 64,
                "duration": 0.4022727,
                "tempo": 120.0
            },
            {
                "start_time": 12.3363636,
                "end_time": 12.7318182,
                "pitch": 32,
                "velocity": 64,
                "duration": 0.3954545,
                "tempo": 120.0
            },
            {
                "start_time": 12.7477273,
                "end_time": 12.9454545,
                "pitch": 32,
                "velocity": 64,
                "duration": 0.1977273,
                "tempo": 120.0
            },
            {
                "start_time": 12.9772727,
                "end_time": 13.1431818,
                "pitch": 32,
                "velocity": 64,
                "duration": 0.1659091,
                "tempo": 120.0
            },
            {
                "start_time": 13.1590909,
                "end_time": 13.3636364,
                "pitch": 27,
                "velocity": 64,
                "duration": 0.2045455,
                "tempo": 120.0
            },
            {
                "start_time": 13.3818182,
                "end_time": 13.5704545,
                "pitch": 27,
                "velocity": 64,
                "duration": 0.1886364,
                "tempo": 120.0
            },
            {
                "start_time": 13.5863636,
                "end_time": 13.9886364,
                "pitch": 30,
                "velocity": 64,
                "duration": 0.4022727,
                "tempo": 120.0
            },
            {
                "start_time": 14.0045455,
                "end_time": 14.4159091,
                "pitch": 39,
                "velocity": 64,
                "duration": 0.4113636,
                "tempo": 120.0
            },
            {
                "start_time": 14.4340909,
                "end_time": 14.6181818,
                "pitch": 39,
                "velocity": 64,
                "duration": 0.1840909,
                "tempo": 120.0
            },
            {
                "start_time": 14.6340909,
                "end_time": 14.8181818,
                "pitch": 39,
                "velocity": 64,
                "duration": 0.1840909,
                "tempo": 120.0
            },
            {
                "start_time": 14.8340909,
                "end_time": 15.0318182,
                "pitch": 39,
                "velocity": 64,
                "duration": 0.1977273,
                "tempo": 120.0
            },
            {
                "start_time": 15.0477273,
                "end_time": 15.2272727,
                "pitch": 39,
                "velocity": 64,
                "duration": 0.1795455,
                "tempo": 120.0
            },
            {
                "start_time": 15.2454545,
                "end_time": 15.4318182,
                "pitch": 38,
                "velocity": 64,
                "duration": 0.1863636,
                "tempo": 120.0
            },
            {
                "start_time": 15.4840909,
                "end_time": 15.6568182,
                "pitch": 38,
                "velocity": 64,
                "duration": 0.1727273,
                "tempo": 120.0
            },
            {
                "start_time": 15.6727273,
                "end_time": 15.8613636,
                "pitch": 37,
                "velocity": 64,
                "duration": 0.1886364,
                "tempo": 120.0
            },
            {
                "start_time": 15.8795455,
                "end_time": 16.0863636,
                "pitch": 37,
                "velocity": 64,
                "duration": 0.2068182,
                "tempo": 120.0
            },
            {
                "start_time": 16.1022727,
                "end_time": 16.2863636,
                "pitch": 37,
                "velocity": 64,
                "duration": 0.1840909,
                "tempo": 120.0
            },
            {
                "start_time": 16.3045455,
                "end_time": 16.4863636,
                "pitch": 37,
                "velocity": 64,
                "duration": 0.1818182,
                "tempo": 120.0
            },
            {
                "start_time": 16.7159091,
                "end_time": 16.8954545,
                "pitch": 37,
                "velocity": 64,
                "duration": 0.1795455,
                "tempo": 120.0
            },
            {
                "start_time": 16.9113636,
                "end_time": 17.1159091,
                "pitch": 37,
                "velocity": 64,
                "duration": 0.2045455,
                "tempo": 120.0
            },
            {
                "start_time": 17.1340909,
                "end_time": 17.3227273,
                "pitch": 37,
                "velocity": 64,
                "duration": 0.1886364,
                "tempo": 120.0
            },
            {
                "start_time": 17.3568182,
                "end_time": 17.7522727,
                "pitch": 32,
                "velocity": 64,
                "duration": 0.3954545,
                "tempo": 120.0
            },
            {
                "start_time": 17.7681818,
                "end_time": 17.9568182,
                "pitch": 32,
                "velocity": 64,
                "duration": 0.1886364,
                "tempo": 120.0
            },
            {
                "start_time": 17.975,
                "end_time": 18.1818182,
                "pitch": 32,
                "velocity": 64,
                "duration": 0.2068182,
                "tempo": 120.0
            },
            {
                "start_time": 18.2159091,
                "end_time": 18.3818182,
                "pitch": 27,
                "velocity": 64,
                "duration": 0.1659091,
                "tempo": 120.0
            },
            {
                "start_time": 18.4,
                "end_time": 18.5840909,
                "pitch": 27,
                "velocity": 64,
                "duration": 0.1840909,
                "tempo": 120.0
            },
            {
                "start_time": 18.6,
                "end_time": 18.8,
                "pitch": 30,
                "velocity": 64,
                "duration": 0.2,
                "tempo": 120.0
            },
            {
                "start_time": 18.8159091,
                "end_time": 19.0,
                "pitch": 31,
                "velocity": 64,
                "duration": 0.1840909,
                "tempo": 120.0
            },
            {
                "start_time": 19.0340909,
                "end_time": 19.2022727,
                "pitch": 32,
                "velocity": 64,
                "duration": 0.1681818,
                "tempo": 120.0
            },
            {
                "start_time": 19.2181818,
                "end_time": 19.4181818,
                "pitch": 27,
                "velocity": 64,
                "duration": 0.2,
                "tempo": 120.0
            },
            {
                "start_time": 19.4340909,
                "end_time": 19.6227273,
                "pitch": 27,
                "velocity": 64,
                "duration": 0.1886364,
                "tempo": 120.0
            },
            {
                "start_time": 19.6409091,
                "end_time": 19.8477273,
                "pitch": 27,
                "velocity": 64,
                "duration": 0.2068182,
                "tempo": 120.0
            },
            {
                "start_time": 19.8818182,
                "end_time": 20.0477273,
                "pitch": 27,
                "velocity": 64,
                "duration": 0.1659091,
                "tempo": 120.0
            },
            {
                "start_time": 20.0659091,
                "end_time": 20.2477273,
                "pitch": 27,
                "velocity": 64,
                "duration": 0.1818182,
                "tempo": 120.0
            },
            {
                "start_time": 20.2659091,
                "end_time": 20.4613636,
                "pitch": 27,
                "velocity": 64,
                "duration": 0.1954545,
                "tempo": 120.0
            },
            {
                "start_time": 20.4772727,
                "end_time": 20.6590909,
                "pitch": 27,
                "velocity": 64,
                "duration": 0.1818182,
                "tempo": 120.0
            },
            {
                "start_time": 20.675,
                "end_time": 21.0863636,
                "pitch": 32,
                "velocity": 64,
                "duration": 0.4113636,
                "tempo": 120.0
            },
            {
                "start_time": 21.1022727,
                "end_time": 21.5045455,
                "pitch": 32,
                "velocity": 64,
                "duration": 0.4022727,
                "tempo": 120.0
            },
            {
                "start_time": 21.5204545,
                "end_time": 21.9159091,
                "pitch": 32,
                "velocity": 64,
                "duration": 0.3954545,
                "tempo": 120.0
            },
            {
                "start_time": 21.95,
                "end_time": 22.3454545,
                "pitch": 32,
                "velocity": 64,
                "duration": 0.3954545,
                "tempo": 120.0
            },
            {
                "start_time": 22.3636364,
                "end_time": 22.9568182,
                "pitch": 39,
                "velocity": 64,
                "duration": 0.5931818,
                "tempo": 120.0
            },
            {
                "start_time": 22.9727273,
                "end_time": 23.5909091,
                "pitch": 39,
                "velocity": 40,
                "duration": 0.6181818,
                "tempo": 120.0
            },
            {
                "start_time": 23.6068182,
                "end_time": 23.9931818,
                "pitch": 39,
                "velocity": 40,
                "duration": 0.3863636,
                "tempo": 120.0
            },
            {
                "start_time": 24.025,
                "end_time": 24.4090909,
                "pitch": 32,
                "velocity": 64,
                "duration": 0.3840909,
                "tempo": 120.0
            },
            {
                "start_time": 24.4272727,
                "end_time": 24.8386364,
                "pitch": 32,
                "velocity": 64,
                "duration": 0.4113636,
                "tempo": 120.0
            },
            {
                "start_time": 24.8545455,
                "end_time": 25.2681818,
                "pitch": 32,
                "velocity": 64,
                "duration": 0.4136364,
                "tempo": 120.0
            },
            {
                "start_time": 25.2840909,
                "end_time": 25.6795455,
                "pitch": 32,
                "velocity": 64,
                "duration": 0.3954545,
                "tempo": 120.0
            },
            {
                "start_time": 25.6977273,
                "end_time": 26.3045455,
                "pitch": 39,
                "velocity": 64,
                "duration": 0.6068182,
                "tempo": 120.0
            },
            {
                "start_time": 26.3227273,
                "end_time": 26.9227273,
                "pitch": 39,
                "velocity": 40,
                "duration": 0.6,
                "tempo": 120.0
            },
            {
                "start_time": 26.9409091,
                "end_time": 27.3590909,
                "pitch": 39,
                "velocity": 40,
                "duration": 0.4181818,
                "tempo": 120.0
            },
            {
                "start_time": 27.3954545,
                "end_time": 27.7613636,
                "pitch": 25,
                "velocity": 64,
                "duration": 0.3659091,
                "tempo": 120.0
            },
            {
                "start_time": 27.7954545,
                "end_time": 28.1795455,
                "pitch": 25,
                "velocity": 64,
                "duration": 0.3840909,
                "tempo": 120.0
            },
            {
                "start_time": 28.1977273,
                "end_time": 28.5977273,
                "pitch": 25,
                "velocity": 64,
                "duration": 0.4,
                "tempo": 120.0
            },
            {
                "start_time": 28.6318182,
                "end_time": 29.0272727,
                "pitch": 25,
                "velocity": 64,
                "duration": 0.3954545,
                "tempo": 120.0
            },
            {
                "start_time": 29.0431818,
                "end_time": 29.6409091,
                "pitch": 39,
                "velocity": 64,
                "duration": 0.5977273,
                "tempo": 120.0
            },
            {
                "start_time": 29.6568182,
                "end_time": 30.2636364,
                "pitch": 39,
                "velocity": 40,
                "duration": 0.6068182,
                "tempo": 120.0
            },
            {
                "start_time": 30.2795455,
                "end_time": 30.6704545,
                "pitch": 39,
                "velocity": 40,
                "duration": 0.3909091,
                "tempo": 120.0
            },
            {
                "start_time": 30.7022727,
                "end_time": 31.1068182,
                "pitch": 32,
                "velocity": 64,
                "duration": 0.4045455,
                "tempo": 120.0
            },
            {
                "start_time": 31.125,
                "end_time": 31.5204545,
                "pitch": 32,
                "velocity": 64,
                "duration": 0.3954545,
                "tempo": 120.0
            },
            {
                "start_time": 31.5363636,
                "end_time": 31.9272727,
                "pitch": 32,
                "velocity": 64,
                "duration": 0.3909091,
                "tempo": 120.0
            },
            {
                "start_time": 31.9431818,
                "end_time": 32.3545455,
                "pitch": 32,
                "velocity": 64,
                "duration": 0.4113636,
                "tempo": 120.0
            },
            {
                "start_time": 32.3727273,
                "end_time": 32.9818182,
                "pitch": 39,
                "velocity": 64,
                "duration": 0.6090909,
                "tempo": 120.0
            },
            {
                "start_time": 32.9977273,
                "end_time": 33.5931818,
                "pitch": 39,
                "velocity": 40,
                "duration": 0.5954545,
                "tempo": 120.0
            },
            {
                "start_time": 33.6090909,
                "end_time": 34.0,
                "pitch": 39,
                "velocity": 40,
                "duration": 0.3909091,
                "tempo": 120.0
            },
            {
                "start_time": 34.0340909,
                "end_time": 34.4363636,
                "pitch": 27,
                "velocity": 64,
                "duration": 0.4022727,
                "tempo": 120.0
            },
            {
                "start_time": 35.7,
                "end_time": 36.0954545,
                "pitch": 25,
                "velocity": 64,
                "duration": 0.3954545,
                "tempo": 120.0
            },
            {
                "start_time": 37.3659091,
                "end_time": 37.7704545,
                "pitch": 32,
                "velocity": 64,
                "duration": 0.4045455,
                "tempo": 120.0
            },
            {
                "start_time": 39.0159091,
                "end_time": 39.4363636,
                "pitch": 32,
                "velocity": 64,
                "duration": 0.4204545,
                "tempo": 120.0
            }
        ],
        "Clarinet": [
            {
                "start_time": 0.0,
                "end_time": 0.1795455,
                "pitch": 51,
                "velocity": 51,
                "duration": 0.1795455,
                "tempo": 120.0
            },
            {
                "start_time": 0.1954545,
                "end_time": 0.4,
                "pitch": 54,
                "velocity": 51,
                "duration": 0.2045455,
                "tempo": 120.0
            },
            {
                "start_time": 0.4181818,
                "end_time": 0.6068182,
                "pitch": 55,
                "velocity": 51,
                "duration": 0.1886364,
                "tempo": 120.0
            },
            {
                "start_time": 0.6409091,
                "end_time": 1.2431818,
                "pitch": 56,
                "velocity": 51,
                "duration": 0.6022727,
                "tempo": 120.0
            },
            {
                "start_time": 1.2772727,
                "end_time": 1.8772727,
                "pitch": 59,
                "velocity": 51,
                "duration": 0.6,
                "tempo": 120.0
            },
            {
                "start_time": 1.9113636,
                "end_time": 2.2886364,
                "pitch": 61,
                "velocity": 51,
                "duration": 0.3772727,
                "tempo": 120.0
            },
            {
                "start_time": 2.3227273,
                "end_time": 2.9113636,
                "pitch": 63,
                "velocity": 51,
                "duration": 0.5886364,
                "tempo": 120.0
            },
            {
                "start_time": 2.9454545,
                "end_time": 3.5363636,
                "pitch": 61,
                "velocity": 51,
                "duration": 0.5909091,
                "tempo": 120.0
            },
            {
                "start_time": 3.5704545,
                "end_time": 3.9545455,
                "pitch": 59,
                "velocity": 51,
                "duration": 0.3840909,
                "tempo": 120.0
            },
            {
                "start_time": 3.9863636,
                "end_time": 4.5772727,
                "pitch": 56,
                "velocity": 51,
                "duration": 0.5909091,
                "tempo": 120.0
            },
            {
                "start_time": 4.6113636,
                "end_time": 5.2181818,
                "pitch": 59,
                "velocity": 51,
                "duration": 0.6068182,
                "tempo": 120.0
            },
            {
                "start_time": 5.2522727,
                "end_time": 5.6295455,
                "pitch": 63,
                "velocity": 51,
                "duration": 0.3772727,
                "tempo": 120.0
            },
            {
                "start_time": 5.6636364,
                "end_time": 6.2454545,
                "pitch": 66,
                "velocity": 51,
                "duration": 0.5818182,
                "tempo": 120.0
            },
            {
                "start_time": 6.2795455,
                "end_time": 6.8977273,
                "pitch": 65,
                "velocity": 51,
                "duration": 0.6181818,
                "tempo": 120.0
            },
            {
                "start_time": 6.9318182,
                "end_time": 7.3,
                "pitch": 63,
                "velocity": 51,
                "duration": 0.3681818,
                "tempo": 120.0
            },
            {
                "start_time": 7.3340909,
                "end_time": 7.9318182,
                "pitch": 61,
                "velocity": 51,
                "duration": 0.5977273,
                "tempo": 120.0
            },
            {
                "start_time": 7.9659091,
                "end_time": 8.5659091,
                "pitch": 64,
                "velocity": 51,
                "duration": 0.6,
                "tempo": 120.0
            },
            {
                "start_time": 8.6,
                "end_time": 8.9795455,
                "pitch": 66,
                "velocity": 51,
                "duration": 0.3795455,
                "tempo": 120.0
            },
            {
                "start_time": 9.0295455,
                "end_time": 9.6113636,
                "pitch": 68,
                "velocity": 51,
                "duration": 0.5818182,
                "tempo": 120.0
            },
            {
                "start_time": 9.6431818,
                "end_time": 10.225,
                "pitch": 66,
                "velocity": 51,
                "duration": 0.5818182,
                "tempo": 120.0
            },
            {
                "start_time": 10.2590909,
                "end_time": 10.6545455,
                "pitch": 64,
                "velocity": 51,
                "duration": 0.3954545,
                "tempo": 120.0
            },
            {
                "start_time": 10.6886364,
                "end_time": 11.2727273,
                "pitch": 59,
                "velocity": 51,
                "duration": 0.5840909,
                "tempo": 120.0
            },
            {
                "start_time": 11.3068182,
                "end_time": 11.9022727,
                "pitch": 63,
                "velocity": 51,
                "duration": 0.5954545,
                "tempo": 120.0
            },
            {
                "start_time": 11.9363636,
                "end_time": 12.3204545,
                "pitch": 68,
                "velocity": 51,
                "duration": 0.3840909,
                "tempo": 120.0
            },
            {
                "start_time": 12.3522727,
                "end_time": 12.9454545,
                "pitch": 68,
                "velocity": 51,
                "duration": 0.5931818,
                "tempo": 120.0
            },
            {
                "start_time": 12.9772727,
                "end_time": 13.5704545,
                "pitch": 70,
                "velocity": 51,
                "duration": 0.5931818,
                "tempo": 120.0
            },
            {
                "start_time": 13.6045455,
                "end_time": 13.9886364,
                "pitch": 68,
                "velocity": 51,
                "duration": 0.3840909,
                "tempo": 120.0
            },
            {
                "start_time": 14.0227273,
                "end_time": 14.6181818,
                "pitch": 67,
                "velocity": 51,
                "duration": 0.5954545,
                "tempo": 120.0
            },
            {
                "start_time": 14.6522727,
                "end_time": 15.2272727,
                "pitch": 67,
                "velocity": 51,
                "duration": 0.575,
                "tempo": 120.0
            },
            {
                "start_time": 15.2613636,
                "end_time": 15.6568182,
                "pitch": 66,
                "velocity": 51,
                "duration": 0.3954545,
                "tempo": 120.0
            },
            {
                "start_time": 15.6909091,
                "end_time": 16.2863636,
                "pitch": 64,
                "velocity": 51,
                "duration": 0.5954545,
                "tempo": 120.0
            },
            {
                "start_time": 16.3204545,
                "end_time": 16.8954545,
                "pitch": 63,
                "velocity": 51,
                "duration": 0.575,
                "tempo": 120.0
            },
            {
                "start_time": 16.9272727,
                "end_time": 17.3227273,
                "pitch": 64,
                "velocity": 51,
                "duration": 0.3954545,
                "tempo": 120.0
            },
            {
                "start_time": 17.3568182,
                "end_time": 17.9568182,
                "pitch": 56,
                "velocity": 51,
                "duration": 0.6,
                "tempo": 120.0
            },
            {
                "start_time": 17.9931818,
                "end_time": 18.5840909,
                "pitch": 59,
                "velocity": 51,
                "duration": 0.5909091,
                "tempo": 120.0
            },
            {
                "start_time": 18.6159091,
                "end_time": 19.0,
                "pitch": 61,
                "velocity": 51,
                "duration": 0.3840909,
                "tempo": 120.0
            },
            {
                "start_time": 19.0340909,
                "end_time": 19.6227273,
                "pitch": 63,
                "velocity": 51,
                "duration": 0.5886364,
                "tempo": 120.0
            },
            {
                "start_time": 19.6568182,
                "end_time": 20.2477273,
                "pitch": 67,
                "velocity": 51,
                "duration": 0.5909091,
                "tempo": 120.0
            },
            {
                "start_time": 20.2818182,
                "end_time": 20.6590909,
                "pitch": 63,
                "velocity": 51,
                "duration": 0.3772727,
                "tempo": 120.0
            },
            {
                "start_time": 20.6909091,
                "end_time": 21.0863636,
                "pitch": 56,
                "velocity": 51,
                "duration": 0.3954545,
                "tempo": 120.0
            },
            {
                "start_time": 21.1204545,
                "end_time": 21.5045455,
                "pitch": 56,
                "velocity": 51,
                "duration": 0.3840909,
                "tempo": 120.0
            },
            {
                "start_time": 21.5386364,
                "end_time": 21.9159091,
                "pitch": 56,
                "velocity": 51,
                "duration": 0.3772727,
                "tempo": 120.0
            },
            {
                "start_time": 21.9681818,
                "end_time": 22.3454545,
                "pitch": 56,
                "velocity": 51,
                "duration": 0.3772727,
                "tempo": 120.0
            },
            {
                "start_time": 24.025,
                "end_time": 24.4090909,
                "pitch": 59,
                "velocity": 51,
                "duration": 0.3840909,
                "tempo": 120.0
            },
            {
                "start_time": 24.4431818,
                "end_time": 24.8386364,
                "pitch": 59,
                "velocity": 51,
                "duration": 0.3954545,
                "tempo": 120.0
            },
            {
                "start_time": 24.8727273,
                "end_time": 25.2681818,
                "pitch": 59,
                "velocity": 51,
                "duration": 0.3954545,
                "tempo": 120.0
            },
            {
                "start_time": 25.3022727,
                "end_time": 25.6795455,
                "pitch": 59,
                "velocity": 51,
                "duration": 0.3772727,
                "tempo": 120.0
            },
            {
                "start_time": 27.3954545,
                "end_time": 27.7613636,
                "pitch": 64,
                "velocity": 51,
                "duration": 0.3659091,
                "tempo": 120.0
            },
            {
                "start_time": 27.7954545,
                "end_time": 28.1795455,
                "pitch": 64,
                "velocity": 51,
                "duration": 0.3840909,
                "tempo": 120.0
            },
            {
                "start_time": 28.2136364,
                "end_time": 28.5977273,
                "pitch": 64,
                "velocity": 51,
                "duration": 0.3840909,
                "tempo": 120.0
            },
            {
                "start_time": 28.6318182,
                "end_time": 29.0272727,
                "pitch": 64,
                "velocity": 51,
                "duration": 0.3954545,
                "tempo": 120.0
            },
            {
                "start_time": 30.7022727,
                "end_time": 31.1068182,
                "pitch": 63,
                "velocity": 51,
                "duration": 0.4045455,
                "tempo": 120.0
            },
            {
                "start_time": 31.1409091,
                "end_time": 31.5204545,
                "pitch": 63,
                "velocity": 51,
                "duration": 0.3795455,
                "tempo": 120.0
            },
            {
                "start_time": 31.5545455,
                "end_time": 31.9272727,
                "pitch": 63,
                "velocity": 51,
                "duration": 0.3727273,
                "tempo": 120.0
            },
            {
                "start_time": 31.9613636,
                "end_time": 32.3545455,
                "pitch": 63,
                "velocity": 51,
                "duration": 0.3931818,
                "tempo": 120.0
            },
            {
                "start_time": 34.0340909,
                "end_time": 34.4363636,
                "pitch": 68,
                "velocity": 51,
                "duration": 0.4022727,
                "tempo": 120.0
            },
            {
                "start_time": 35.7,
                "end_time": 36.0954545,
                "pitch": 63,
                "velocity": 51,
                "duration": 0.3954545,
                "tempo": 120.0
            },
            {
                "start_time": 37.3659091,
                "end_time": 37.7704545,
                "pitch": 63,
                "velocity": 51,
                "duration": 0.4045455,
                "tempo": 120.0
            },
            {
                "start_time": 39.0340909,
                "end_time": 39.4363636,
                "pitch": 59,
                "velocity": 51,
                "duration": 0.4022727,
                "tempo": 120.0
            },
            {
                "start_time": 40.1068182,
                "end_time": 40.2954545,
                "pitch": 51,
                "velocity": 51,
                "duration": 0.1886364,
                "tempo": 120.0
            },
            {
                "start_time": 40.3136364,
                "end_time": 40.4977273,
                "pitch": 54,
                "velocity": 51,
                "duration": 0.1840909,
                "tempo": 120.0
            },
            {
                "start_time": 40.5136364,
                "end_time": 40.6977273,
                "pitch": 55,
                "velocity": 51,
                "duration": 0.1840909,
                "tempo": 120.0
            }
        ],
        "Lead 2 (sawtooth)": [
            {
                "start_time": 0.0477273,
                "end_time": 0.2113636,
                "pitch": 51,
                "velocity": 51,
                "duration": 0.1636364,
                "tempo": 120.0
            },
            {
                "start_time": 0.2454545,
                "end_time": 0.4340909,
                "pitch": 54,
                "velocity": 51,
                "duration": 0.1886364,
                "tempo": 120.0
            },
            {
                "start_time": 0.4704545,
                "end_time": 0.625,
                "pitch": 55,
                "velocity": 51,
                "duration": 0.1545455,
                "tempo": 120.0
            },
            {
                "start_time": 0.625,
                "end_time": 0.6590909,
                "pitch": 55,
                "velocity": 51,
                "duration": 0.0340909,
                "tempo": 120.0
            },
            {
                "start_time": 0.675,
                "end_time": 0.8477273,
                "pitch": 55,
                "velocity": 51,
                "duration": 0.1727273,
                "tempo": 120.0
            },
            {
                "start_time": 0.8818182,
                "end_time": 1.0704545,
                "pitch": 56,
                "velocity": 51,
                "duration": 0.1886364,
                "tempo": 120.0
            },
            {
                "start_time": 1.1045455,
                "end_time": 1.2772727,
                "pitch": 56,
                "velocity": 51,
                "duration": 0.1727273,
                "tempo": 120.0
            },
            {
                "start_time": 1.3113636,
                "end_time": 1.5181818,
                "pitch": 56,
                "velocity": 51,
                "duration": 0.2068182,
                "tempo": 120.0
            },
            {
                "start_time": 1.5340909,
                "end_time": 1.7068182,
                "pitch": 56,
                "velocity": 51,
                "duration": 0.1727273,
                "tempo": 120.0
            },
            {
                "start_time": 1.7409091,
                "end_time": 1.9113636,
                "pitch": 54,
                "velocity": 51,
                "duration": 0.1704545,
                "tempo": 120.0
            },
            {
                "start_time": 1.9454545,
                "end_time": 2.125,
                "pitch": 51,
                "velocity": 51,
                "duration": 0.1795455,
                "tempo": 120.0
            },
            {
                "start_time": 2.3545455,
                "end_time": 2.5386364,
                "pitch": 68,
                "velocity": 51,
                "duration": 0.1840909,
                "tempo": 120.0
            },
            {
                "start_time": 2.5727273,
                "end_time": 2.7386364,
                "pitch": 56,
                "velocity": 51,
                "duration": 0.1659091,
                "tempo": 120.0
            },
            {
                "start_time": 2.7727273,
                "end_time": 2.9454545,
                "pitch": 56,
                "velocity": 51,
                "duration": 0.1727273,
                "tempo": 120.0
            },
            {
                "start_time": 2.9795455,
                "end_time": 3.1863636,
                "pitch": 56,
                "velocity": 51,
                "duration": 0.2068182,
                "tempo": 120.0
            },
            {
                "start_time": 3.2022727,
                "end_time": 3.3681818,
                "pitch": 56,
                "velocity": 51,
                "duration": 0.1659091,
                "tempo": 120.0
            },
            {
                "start_time": 3.4022727,
                "end_time": 3.5704545,
                "pitch": 59,
                "velocity": 51,
                "duration": 0.1681818,
                "tempo": 120.0
            },
            {
                "start_time": 3.6204545,
                "end_time": 3.7863636,
                "pitch": 56,
                "velocity": 51,
                "duration": 0.1659091,
                "tempo": 120.0
            },
            {
                "start_time": 4.0204545,
                "end_time": 4.2045455,
                "pitch": 54,
                "velocity": 51,
                "duration": 0.1840909,
                "tempo": 120.0
            },
            {
                "start_time": 4.2386364,
                "end_time": 4.4045455,
                "pitch": 56,
                "velocity": 51,
                "duration": 0.1659091,
                "tempo": 120.0
            },
            {
                "start_time": 4.4386364,
                "end_time": 4.6113636,
                "pitch": 56,
                "velocity": 51,
                "duration": 0.1727273,
                "tempo": 120.0
            },
            {
                "start_time": 4.6454545,
                "end_time": 4.8340909,
                "pitch": 56,
                "velocity": 51,
                "duration": 0.1886364,
                "tempo": 120.0
            },
            {
                "start_time": 4.8681818,
                "end_time": 5.0522727,
                "pitch": 56,
                "velocity": 51,
                "duration": 0.1840909,
                "tempo": 120.0
            },
            {
                "start_time": 5.0681818,
                "end_time": 5.2522727,
                "pitch": 54,
                "velocity": 51,
                "duration": 0.1840909,
                "tempo": 120.0
            },
            {
                "start_time": 5.2863636,
                "end_time": 5.4590909,
                "pitch": 51,
                "velocity": 51,
                "duration": 0.1727273,
                "tempo": 120.0
            },
            {
                "start_time": 5.4931818,
                "end_time": 5.6636364,
                "pitch": 51,
                "velocity": 51,
                "duration": 0.1704545,
                "tempo": 120.0
            },
            {
                "start_time": 5.6977273,
                "end_time": 5.8931818,
                "pitch": 54,
                "velocity": 51,
                "duration": 0.1954545,
                "tempo": 120.0
            },
            {
                "start_time": 5.9090909,
                "end_time": 6.0727273,
                "pitch": 56,
                "velocity": 51,
                "duration": 0.1636364,
                "tempo": 120.0
            },
            {
                "start_time": 6.1068182,
                "end_time": 6.2977273,
                "pitch": 56,
                "velocity": 51,
                "duration": 0.1909091,
                "tempo": 120.0
            },
            {
                "start_time": 6.3318182,
                "end_time": 6.5022727,
                "pitch": 59,
                "velocity": 51,
                "duration": 0.1704545,
                "tempo": 120.0
            },
            {
                "start_time": 6.5363636,
                "end_time": 6.725,
                "pitch": 61,
                "velocity": 51,
                "duration": 0.1886364,
                "tempo": 120.0
            },
            {
                "start_time": 6.7431818,
                "end_time": 6.9318182,
                "pitch": 59,
                "velocity": 51,
                "duration": 0.1886364,
                "tempo": 120.0
            },
            {
                "start_time": 6.9659091,
                "end_time": 7.1318182,
                "pitch": 56,
                "velocity": 51,
                "duration": 0.1659091,
                "tempo": 120.0
            },
            {
                "start_time": 7.1659091,
                "end_time": 7.3340909,
                "pitch": 54,
                "velocity": 51,
                "duration": 0.1681818,
                "tempo": 120.0
            },
            {
                "start_time": 7.3659091,
                "end_time": 7.5613636,
                "pitch": 59,
                "velocity": 51,
                "duration": 0.1954545,
                "tempo": 120.0
            },
            {
                "start_time": 7.5795455,
                "end_time": 7.7431818,
                "pitch": 61,
                "velocity": 51,
                "duration": 0.1636364,
                "tempo": 120.0
            },
            {
                "start_time": 7.7772727,
                "end_time": 7.9659091,
                "pitch": 61,
                "velocity": 51,
                "duration": 0.1886364,
                "tempo": 120.0
            },
            {
                "start_time": 8.0,
                "end_time": 8.1727273,
                "pitch": 61,
                "velocity": 51,
                "duration": 0.1727273,
                "tempo": 120.0
            },
            {
                "start_time": 8.2068182,
                "end_time": 8.3772727,
                "pitch": 61,
                "velocity": 51,
                "duration": 0.1704545,
                "tempo": 120.0
            },
            {
                "start_time": 8.4113636,
                "end_time": 8.6,
                "pitch": 59,
                "velocity": 51,
                "duration": 0.1886364,
                "tempo": 120.0
            },
            {
                "start_time": 8.6363636,
                "end_time": 8.8068182,
                "pitch": 56,
                "velocity": 51,
                "duration": 0.1704545,
                "tempo": 120.0
            },
            {
                "start_time": 8.8409091,
                "end_time": 9.0295455,
                "pitch": 54,
                "velocity": 51,
                "duration": 0.1886364,
                "tempo": 120.0
            },
            {
                "start_time": 9.0636364,
                "end_time": 9.2318182,
                "pitch": 56,
                "velocity": 51,
                "duration": 0.1681818,
                "tempo": 120.0
            },
            {
                "start_time": 9.4636364,
                "end_time": 9.6431818,
                "pitch": 59,
                "velocity": 51,
                "duration": 0.1795455,
                "tempo": 120.0
            },
            {
                "start_time": 9.875,
                "end_time": 10.0409091,
                "pitch": 61,
                "velocity": 51,
                "duration": 0.1659091,
                "tempo": 120.0
            },
            {
                "start_time": 10.2931818,
                "end_time": 10.4636364,
                "pitch": 62,
                "velocity": 51,
                "duration": 0.1704545,
                "tempo": 120.0
            },
            {
                "start_time": 10.7204545,
                "end_time": 10.8886364,
                "pitch": 62,
                "velocity": 51,
                "duration": 0.1681818,
                "tempo": 120.0
            },
            {
                "start_time": 10.9227273,
                "end_time": 11.1045455,
                "pitch": 61,
                "velocity": 51,
                "duration": 0.1818182,
                "tempo": 120.0
            },
            {
                "start_time": 11.1227273,
                "end_time": 11.3068182,
                "pitch": 59,
                "velocity": 51,
                "duration": 0.1840909,
                "tempo": 120.0
            },
            {
                "start_time": 11.3386364,
                "end_time": 11.5068182,
                "pitch": 56,
                "velocity": 51,
                "duration": 0.1681818,
                "tempo": 120.0
            },
            {
                "start_time": 11.5409091,
                "end_time": 11.7295455,
                "pitch": 54,
                "velocity": 51,
                "duration": 0.1886364,
                "tempo": 120.0
            },
            {
                "start_time": 11.7636364,
                "end_time": 11.9522727,
                "pitch": 56,
                "velocity": 51,
                "duration": 0.1886364,
                "tempo": 120.0
            },
            {
                "start_time": 11.9681818,
                "end_time": 12.1363636,
                "pitch": 56,
                "velocity": 51,
                "duration": 0.1681818,
                "tempo": 120.0
            },
            {
                "start_time": 12.3886364,
                "end_time": 12.5590909,
                "pitch": 54,
                "velocity": 51,
                "duration": 0.1704545,
                "tempo": 120.0
            },
            {
                "start_time": 12.5931818,
                "end_time": 12.7977273,
                "pitch": 56,
                "velocity": 51,
                "duration": 0.2045455,
                "tempo": 120.0
            },
            {
                "start_time": 12.8136364,
                "end_time": 12.9772727,
                "pitch": 56,
                "velocity": 51,
                "duration": 0.1636364,
                "tempo": 120.0
            },
            {
                "start_time": 13.0113636,
                "end_time": 13.175,
                "pitch": 56,
                "velocity": 51,
                "duration": 0.1636364,
                "tempo": 120.0
            },
            {
                "start_time": 13.2090909,
                "end_time": 13.3977273,
                "pitch": 56,
                "velocity": 51,
                "duration": 0.1886364,
                "tempo": 120.0
            },
            {
                "start_time": 13.4318182,
                "end_time": 13.6045455,
                "pitch": 66,
                "velocity": 51,
                "duration": 0.1727273,
                "tempo": 120.0
            },
            {
                "start_time": 13.6363636,
                "end_time": 13.8045455,
                "pitch": 56,
                "velocity": 51,
                "duration": 0.1681818,
                "tempo": 120.0
            },
            {
                "start_time": 14.0568182,
                "end_time": 14.2272727,
                "pitch": 63,
                "velocity": 51,
                "duration": 0.1704545,
                "tempo": 120.0
            },
            {
                "start_time": 14.2613636,
                "end_time": 14.45,
                "pitch": 63,
                "velocity": 51,
                "duration": 0.1886364,
                "tempo": 120.0
            },
            {
                "start_time": 14.4840909,
                "end_time": 14.6522727,
                "pitch": 63,
                "velocity": 51,
                "duration": 0.1681818,
                "tempo": 120.0
            },
            {
                "start_time": 14.8840909,
                "end_time": 15.0636364,
                "pitch": 63,
                "velocity": 51,
                "duration": 0.1795455,
                "tempo": 120.0
            },
            {
                "start_time": 15.2954545,
                "end_time": 15.4840909,
                "pitch": 62,
                "velocity": 51,
                "duration": 0.1886364,
                "tempo": 120.0
            },
            {
                "start_time": 15.725,
                "end_time": 15.8977273,
                "pitch": 61,
                "velocity": 51,
                "duration": 0.1727273,
                "tempo": 120.0
            },
            {
                "start_time": 15.9318182,
                "end_time": 16.1204545,
                "pitch": 60,
                "velocity": 51,
                "duration": 0.1886364,
                "tempo": 120.0
            },
            {
                "start_time": 16.1522727,
                "end_time": 16.3363636,
                "pitch": 61,
                "velocity": 51,
                "duration": 0.1840909,
                "tempo": 120.0
            },
            {
                "start_time": 16.3545455,
                "end_time": 16.5204545,
                "pitch": 60,
                "velocity": 51,
                "duration": 0.1659091,
                "tempo": 120.0
            },
            {
                "start_time": 16.5704545,
                "end_time": 16.7318182,
                "pitch": 61,
                "velocity": 51,
                "duration": 0.1613636,
                "tempo": 120.0
            },
            {
                "start_time": 16.7636364,
                "end_time": 16.9272727,
                "pitch": 60,
                "velocity": 51,
                "duration": 0.1636364,
                "tempo": 120.0
            },
            {
                "start_time": 16.9613636,
                "end_time": 17.15,
                "pitch": 59,
                "velocity": 51,
                "duration": 0.1886364,
                "tempo": 120.0
            },
            {
                "start_time": 17.3909091,
                "end_time": 17.5636364,
                "pitch": 66,
                "velocity": 51,
                "duration": 0.1727273,
                "tempo": 120.0
            },
            {
                "start_time": 17.5977273,
                "end_time": 17.7863636,
                "pitch": 56,
                "velocity": 51,
                "duration": 0.1886364,
                "tempo": 120.0
            },
            {
                "start_time": 17.8204545,
                "end_time": 17.9931818,
                "pitch": 56,
                "velocity": 51,
                "duration": 0.1727273,
                "tempo": 120.0
            },
            {
                "start_time": 18.0272727,
                "end_time": 18.2159091,
                "pitch": 56,
                "velocity": 51,
                "duration": 0.1886364,
                "tempo": 120.0
            },
            {
                "start_time": 18.25,
                "end_time": 18.4159091,
                "pitch": 56,
                "velocity": 51,
                "duration": 0.1659091,
                "tempo": 120.0
            },
            {
                "start_time": 18.45,
                "end_time": 18.6159091,
                "pitch": 54,
                "velocity": 51,
                "duration": 0.1659091,
                "tempo": 120.0
            },
            {
                "start_time": 18.65,
                "end_time": 18.8340909,
                "pitch": 51,
                "velocity": 51,
                "duration": 0.1840909,
                "tempo": 120.0
            },
            {
                "start_time": 19.0681818,
                "end_time": 19.2522727,
                "pitch": 56,
                "velocity": 51,
                "duration": 0.1840909,
                "tempo": 120.0
            },
            {
                "start_time": 19.2840909,
                "end_time": 19.4522727,
                "pitch": 51,
                "velocity": 51,
                "duration": 0.1681818,
                "tempo": 120.0
            },
            {
                "start_time": 19.4863636,
                "end_time": 19.6568182,
                "pitch": 51,
                "velocity": 51,
                "duration": 0.1704545,
                "tempo": 120.0
            },
            {
                "start_time": 19.6931818,
                "end_time": 19.8977273,
                "pitch": 51,
                "velocity": 51,
                "duration": 0.2045455,
                "tempo": 120.0
            },
            {
                "start_time": 19.9136364,
                "end_time": 20.0818182,
                "pitch": 54,
                "velocity": 51,
                "duration": 0.1681818,
                "tempo": 120.0
            },
            {
                "start_time": 20.1159091,
                "end_time": 20.2818182,
                "pitch": 51,
                "velocity": 51,
                "duration": 0.1659091,
                "tempo": 120.0
            },
            {
                "start_time": 20.3136364,
                "end_time": 20.4954545,
                "pitch": 54,
                "velocity": 51,
                "duration": 0.1818182,
                "tempo": 120.0
            },
            {
                "start_time": 20.5272727,
                "end_time": 20.7090909,
                "pitch": 55,
                "velocity": 51,
                "duration": 0.1818182,
                "tempo": 120.0
            },
            {
                "start_time": 20.725,
                "end_time": 21.1204545,
                "pitch": 56,
                "velocity": 51,
                "duration": 0.3954545,
                "tempo": 120.0
            },
            {
                "start_time": 21.1545455,
                "end_time": 21.5545455,
                "pitch": 56,
                "velocity": 51,
                "duration": 0.4,
                "tempo": 120.0
            },
            {
                "start_time": 21.5727273,
                "end_time": 21.9681818,
                "pitch": 56,
                "velocity": 51,
                "duration": 0.3954545,
                "tempo": 120.0
            },
            {
                "start_time": 22.0022727,
                "end_time": 22.3795455,
                "pitch": 56,
                "velocity": 51,
                "duration": 0.3772727,
                "tempo": 120.0
            },
            {
                "start_time": 24.0590909,
                "end_time": 24.4431818,
                "pitch": 56,
                "velocity": 51,
                "duration": 0.3840909,
                "tempo": 120.0
            },
            {
                "start_time": 24.4772727,
                "end_time": 24.8727273,
                "pitch": 56,
                "velocity": 51,
                "duration": 0.3954545,
                "tempo": 120.0
            },
            {
                "start_time": 24.9068182,
                "end_time": 25.3022727,
                "pitch": 56,
                "velocity": 51,
                "duration": 0.3954545,
                "tempo": 120.0
            },
            {
                "start_time": 25.3363636,
                "end_time": 25.7318182,
                "pitch": 56,
                "velocity": 51,
                "duration": 0.3954545,
                "tempo": 120.0
            },
            {
                "start_time": 27.4272727,
                "end_time": 27.8136364,
                "pitch": 61,
                "velocity": 51,
                "duration": 0.3863636,
                "tempo": 120.0
            },
            {
                "start_time": 27.8295455,
                "end_time": 28.2136364,
                "pitch": 61,
                "velocity": 51,
                "duration": 0.3840909,
                "tempo": 120.0
            },
            {
                "start_time": 28.2477273,
                "end_time": 28.6477273,
                "pitch": 61,
                "velocity": 51,
                "duration": 0.4,
                "tempo": 120.0
            },
            {
                "start_time": 28.6659091,
                "end_time": 29.0613636,
                "pitch": 61,
                "velocity": 51,
                "duration": 0.3954545,
                "tempo": 120.0
            },
            {
                "start_time": 30.7386364,
                "end_time": 31.1590909,
                "pitch": 56,
                "velocity": 51,
                "duration": 0.4204545,
                "tempo": 120.0
            },
            {
                "start_time": 31.1772727,
                "end_time": 31.5545455,
                "pitch": 56,
                "velocity": 51,
                "duration": 0.3772727,
                "tempo": 120.0
            },
            {
                "start_time": 31.5863636,
                "end_time": 31.9613636,
                "pitch": 56,
                "velocity": 51,
                "duration": 0.375,
                "tempo": 120.0
            },
            {
                "start_time": 31.9954545,
                "end_time": 32.3909091,
                "pitch": 56,
                "velocity": 51,
                "duration": 0.3954545,
                "tempo": 120.0
            },
            {
                "start_time": 34.0681818,
                "end_time": 34.4727273,
                "pitch": 63,
                "velocity": 51,
                "duration": 0.4045455,
                "tempo": 120.0
            },
            {
                "start_time": 35.7340909,
                "end_time": 36.1295455,
                "pitch": 61,
                "velocity": 51,
                "duration": 0.3954545,
                "tempo": 120.0
            },
            {
                "start_time": 37.4022727,
                "end_time": 37.8045455,
                "pitch": 56,
                "velocity": 51,
                "duration": 0.4022727,
                "tempo": 120.0
            },
            {
                "start_time": 39.0681818,
                "end_time": 39.4727273,
                "pitch": 56,
                "velocity": 51,
                "duration": 0.4045455,
                "tempo": 120.0
            },
            {
                "start_time": 40.1409091,
                "end_time": 40.3295455,
                "pitch": 51,
                "velocity": 51,
                "duration": 0.1886364,
                "tempo": 120.0
            },
            {
                "start_time": 40.3636364,
                "end_time": 40.5318182,
                "pitch": 54,
                "velocity": 51,
                "duration": 0.1681818,
                "tempo": 120.0
            },
            {
                "start_time": 40.5636364,
                "end_time": 40.7159091,
                "pitch": 55,
                "velocity": 51,
                "duration": 0.1522727,
                "tempo": 120.0
            }
        ]
    }
}