{
    "mood": "happy",
    "instruments": {
        "Clarinet": [
            {
                "start_time": 0.0,
                "end_time": 0.1,
                "pitch": 70,
                "velocity": 80,
                "duration": 0.1,
                "tempo": 120.0
            },
            {
                "start_time": 0.25,
                "end_time": 0.3659091,
                "pitch": 67,
                "velocity": 80,
                "duration": 0.1159091,
                "tempo": 120.0
            },
            {
                "start_time": 0.3840909,
                "end_time": 0.5,
                "pitch": 70,
                "velocity": 80,
                "duration": 0.1159091,
                "tempo": 120.0
            },
            {
                "start_time": 0.65,
                "end_time": 1.1659091,
                "pitch": 72,
                "velocity": 80,
                "duration": 0.5159091,
                "tempo": 120.0
            },
            {
                "start_time": 1.1840909,
                "end_time": 1.3159091,
                "pitch": 74,
                "velocity": 80,
                "duration": 0.1318182,
                "tempo": 120.0
            },
            {
                "start_time": 1.5840909,
                "end_time": 1.7,
                "pitch": 70,
                "velocity": 80,
                "duration": 0.1159091,
                "tempo": 120.0
            },
            {
                "start_time": 1.8522727,
                "end_time": 1.9681818,
                "pitch": 67,
                "velocity": 80,
                "duration": 0.1159091,
                "tempo": 120.0
            },
            {
                "start_time": 1.9863636,
                "end_time": 2.1022727,
                "pitch": 70,
                "velocity": 80,
                "duration": 0.1159091,
                "tempo": 120.0
            },
            {
                "start_time": 2.2522727,
                "end_time": 2.7704545,
                "pitch": 72,
                "velocity": 80,
                "duration": 0.5181818,
                "tempo": 120.0
            },
            {
                "start_time": 2.7863636,
                "end_time": 3.0431818,
                "pitch": 75,
                "velocity": 80,
                "duration": 0.2568182,
                "tempo": 120.0
            },
            {
                "start_time": 3.0590909,
                "end_time": 3.1795455,
                "pitch": 77,
                "velocity": 80,
                "duration": 0.1204545,
                "tempo": 120.0
            },
            {
                "start_time": 3.1977273,
                "end_time": 3.4409091,
                "pitch": 78,
                "velocity": 80,
                "duration": 0.2431818,
                "tempo": 120.0
            },
            {
                "start_time": 3.4590909,
                "end_time": 3.5727273,
                "pitch": 77,
                "velocity": 80,
                "duration": 0.1136364,
                "tempo": 120.0
            },
            {
                "start_time": 3.5886364,
                "end_time": 3.8340909,
                "pitch": 75,
                "velocity": 80,
                "duration": 0.2454545,
                "tempo": 120.0
            },
            {
                "start_time": 3.85,
                "end_time": 4.2340909,
                "pitch": 77,
                "velocity": 80,
                "duration": 0.3840909,
                "tempo": 120.0
            },
            {
                "start_time": 4.25,
                "end_time": 4.3681818,
                "pitch": 75,
                "velocity": 80,
                "duration": 0.1181818,
                "tempo": 120.0
            },
            {
                "start_time": 4.3840909,
                "end_time": 4.6477273,
                "pitch": 73,
                "velocity": 80,
                "duration": 0.2636364,
                "tempo": 120.0
            },
            {
                "start_time": 4.6659091,
                "end_time": 4.7886364,
                "pitch": 77,
                "velocity": 80,
                "duration": 0.1227273,
                "tempo": 120.0
            },
            {
                "start_time": 4.8068182,
                "end_time": 4.9909091,
                "pitch": 75,
                "velocity": 80,
                "duration": 0.1840909,
                "tempo": 120.0
            },
            {
                "start_time": 5.2090909,
                "end_time": 5.3886364,
                "pitch": 70,
                "velocity": 80,
                "duration": 0.1795455,
                "tempo": 120.0
            },
            {
                "start_time": 5.6022727,
                "end_time": 5.7886364,
                "pitch": 63,
                "velocity": 80,
                "duration": 0.1863636,
                "tempo": 120.0
            }
        ],
        "Electric Guitar (clean)": [
            {
                "start_time": 0.0,
                "end_time": 0.3659091,
                "pitch": 51,
                "velocity": 51,
                "duration": 0.3659091,
                "tempo": 120.0
            },
            {
                "start_time": 0.3840909,
                "end_time": 0.7659091,
                "pitch": 46,
                "velocity": 51,
                "duration": 0.3818182,
                "tempo": 120.0
            },
            {
                "start_time": 0.7840909,
                "end_time": 1.1659091,
                "pitch": 44,
                "velocity": 51,
                "duration": 0.3818182,
                "tempo": 120.0
            },
            {
                "start_time": 1.1840909,
                "end_time": 1.5659091,
                "pitch": 46,
                "velocity": 51,
                "duration": 0.3818182,
                "tempo": 120.0
            },
            {
                "start_time": 1.5840909,
                "end_time": 1.9681818,
                "pitch": 51,
                "velocity": 51,
                "duration": 0.3840909,
                "tempo": 120.0
            },
            {
                "start_time": 1.9863636,
                "end_time": 2.3704545,
                "pitch": 46,
                "velocity": 51,
                "duration": 0.3840909,
                "tempo": 120.0
            },
            {
                "start_time": 2.3863636,
                "end_time": 2.7704545,
                "pitch": 44,
                "velocity": 51,
                "duration": 0.3840909,
                "tempo": 120.0
            },
            {
                "start_time": 2.7863636,
                "end_time": 3.1795455,
                "pitch": 46,
                "velocity": 51,
                "duration": 0.3931818,
                "tempo": 120.0
            },
            {
                "start_time": 3.1977273,
                "end_time": 3.5727273,
                "pitch": 54,
                "velocity": 51,
                "duration": 0.375,
                "tempo": 120.0
            },
            {
                "start_time": 3.5886364,
                "end_time": 3.9636364,
                "pitch": 49,
                "velocity": 51,
                "duration": 0.375,
                "tempo": 120.0
            },
            {
                "start_time": 3.9818182,
                "end_time": 4.3681818,
                "pitch": 46,
                "velocity": 51,
                "duration": 0.3863636,
                "tempo": 120.0
            },
            {
                "start_time": 4.3840909,
                "end_time": 4.7886364,
                "pitch": 46,
                "velocity": 51,
                "duration": 0.4045455,
                "tempo": 120.0
            },
            {
                "start_time": 4.8068182,
                "end_time": 5.1931818,
                "pitch": 51,
                "velocity": 51,
                "duration": 0.3863636,
                "tempo": 120.0
            },
            {
                "start_time": 5.2090909,
                "end_time": 5.5840909,
                "pitch": 46,
                "velocity": 51,
                "duration": 0.375,
                "tempo": 120.0
            },
            {
                "start_time": 5.6022727,
                "end_time": 5.9954545,
                "pitch": 51,
                "velocity": 51,
                "duration": 0.3931818,
                "tempo": 120.0
            }
        ],
        "Flute": [
            {
                "start_time": 0.0,
                "end_time": 0.3840909,
                "pitch": 63,
                "velocity": 25,
                "duration": 0.3840909,
                "tempo": 120.0
            },
            {
                "start_time": 0.4,
                "end_time": 0.7840909,
                "pitch": 58,
                "velocity": 25,
                "duration": 0.3840909,
                "tempo": 120.0
            },
            {
                "start_time": 0.8,
                "end_time": 1.1840909,
                "pitch": 56,
                "velocity": 25,
                "duration": 0.3840909,
                "tempo": 120.0
            },
            {
                "start_time": 1.2,
                "end_time": 1.5840909,
                "pitch": 58,
                "velocity": 25,
                "duration": 0.3840909,
                "tempo": 120.0
            },
            {
                "start_time": 1.6,
                "end_time": 1.9863636,
                "pitch": 63,
                "velocity": 25,
                "duration": 0.3863636,
                "tempo": 120.0
            },
            {
                "start_time": 2.0022727,
                "end_time": 2.3863636,
                "pitch": 58,
                "velocity": 25,
                "duration": 0.3840909,
                "tempo": 120.0
            },
            {
                "start_time": 2.4022727,
                "end_time": 2.7863636,
                "pitch": 56,
                "velocity": 25,
                "duration": 0.3840909,
                "tempo": 120.0
            },
            {
                "start_time": 2.8022727,
                "end_time": 3.1977273,
                "pitch": 58,
                "velocity": 25,
                "duration": 0.3954545,
                "tempo": 120.0
            },
            {
                "start_time": 3.2136364,
                "end_time": 3.5886364,
                "pitch": 66,
                "velocity": 25,
                "duration": 0.375,
                "tempo": 120.0
            },
            {
                "start_time": 3.6045455,
                "end_time": 3.9818182,
                "pitch": 61,
                "velocity": 25,
                "duration": 0.3772727,
                "tempo": 120.0
            },
            {
                "start_time": 3.9977273,
                "end_time": 4.3840909,
                "pitch": 58,
                "velocity": 25,
                "duration": 0.3863636,
                "tempo": 120.0
            },
            {
                "start_time": 4.4022727,
                "end_time": 4.8068182,
                "pitch": 58,
                "velocity": 25,
                "duration": 0.4045455,
                "tempo": 120.0
            },
            {
                "start_time": 4.8227273,
                "end_time": 5.2090909,
                "pitch": 63,
                "velocity": 25,
                "duration": 0.3863636,
                "tempo": 120.0
            },
            {
                "start_time": 5.225,
                "end_time": 5.6022727,
                "pitch": 58,
                "velocity": 25,
                "duration": 0.3772727,
                "tempo": 120.0
            },
            {
                "start_time": 5.6181818,
                "end_time": 6.0113636,
                "pitch": 63,
                "velocity": 25,
                "duration": 0.3931818,
                "tempo": 120.0
            }
        ]
    }
}