{
    "mood": "happy",
    "instruments": {
        "Violin": [
            {
                "start_time": 0.0,
                "end_time": 0.1590909,
                "pitch": 52,
                "velocity": 80,
                "duration": 0.1590909,
                "tempo": 120.0
            },
            {
                "start_time": 0.1590909,
                "end_time": 0.6113636,
                "pitch": 52,
                "velocity": 80,
                "duration": 0.4522727,
                "tempo": 120.0
            },
            {
                "start_time": 0.6113636,
                "end_time": 0.9113636,
                "pitch": 49,
                "velocity": 80,
                "duration": 0.3,
                "tempo": 120.0
            },
            {
                "start_time": 0.6113636,
                "end_time": 1.2113636,
                "pitch": 52,
                "velocity": 80,
                "duration": 0.6,
                "tempo": 120.0
            },
            {
                "start_time": 0.9113636,
                "end_time": 1.2113636,
                "pitch": 52,
                "velocity": 80,
                "duration": 0.3,
                "tempo": 120.0
            },
            {
                "start_time": 1.2113636,
                "end_time": 1.225,
                "pitch": 52,
                "velocity": 80,
                "duration": 0.0136364,
                "tempo": 120.0
            },
            {
                "start_time": 1.225,
                "end_time": 1.3636364,
                "pitch": 50,
                "velocity": 80,
                "duration": 0.1386364,
                "tempo": 120.0
            },
            {
                "start_time": 1.3636364,
                "end_time": 1.8227273,
                "pitch": 50,
                "velocity": 80,
                "duration": 0.4590909,
                "tempo": 120.0
            },
            {
                "start_time": 1.8227273,
                "end_time": 2.1204545,
                "pitch": 47,
                "velocity": 80,
                "duration": 0.2977273,
                "tempo": 120.0
            },
            {
                "start_time": 1.8227273,
                "end_time": 2.7136364,
                "pitch": 50,
                "velocity": 80,
                "duration": 0.8909091,
                "tempo": 120.0
            },
            {
                "start_time": 2.1204545,
                "end_time": 2.7136364,
                "pitch": 50,
                "velocity": 80,
                "duration": 0.5931818,
                "tempo": 120.0
            },
            {
                "start_time": 2.7136364,
                "end_time": 2.8613636,
                "pitch": 52,
                "velocity": 80,
                "duration": 0.1477273,
                "tempo": 120.0
            },
            {
                "start_time": 2.8613636,
                "end_time": 3.1636364,
                "pitch": 52,
                "velocity": 80,
                "duration": 0.3022727,
                "tempo": 120.0
            },
            {
                "start_time": 3.1636364,
                "end_time": 3.3181818,
                "pitch": 54,
                "velocity": 80,
                "duration": 0.1545455,
                "tempo": 120.0
            },
            {
                "start_time": 3.3181818,
                "end_time": 3.3318182,
                "pitch": 54,
                "velocity": 80,
                "duration": 0.0136364,
                "tempo": 120.0
            },
            {
                "start_time": 3.1636364,
                "end_time": 4.2295455,
                "pitch": 52,
                "velocity": 80,
                "duration": 1.0659091,
                "tempo": 120.0
            },
            {
                "start_time": 3.3318182,
                "end_time": 4.2295455,
                "pitch": 52,
                "velocity": 80,
                "duration": 0.8977273,
                "tempo": 120.0
            },
            {
                "start_time": 4.2295455,
                "end_time": 4.8454545,
                "pitch": 45,
                "velocity": 80,
                "duration": 0.6159091,
                "tempo": 120.0
            },
            {
                "start_time": 2.7136364,
                "end_time": 5.1590909,
                "pitch": 50,
                "velocity": 80,
                "duration": 2.4454545,
                "tempo": 120.0
            },
            {
                "start_time": 4.8454545,
                "end_time": 5.1590909,
                "pitch": 50,
                "velocity": 80,
                "duration": 0.3136364,
                "tempo": 120.0
            },
            {
                "start_time": 5.1590909,
                "end_time": 5.4704545,
                "pitch": 50,
                "velocity": 80,
                "duration": 0.3113636,
                "tempo": 120.0
            },
            {
                "start_time": 5.4704545,
                "end_time": 5.7681818,
                "pitch": 50,
                "velocity": 80,
                "duration": 0.2977273,
                "tempo": 120.0
            },
            {
                "start_time": 5.7681818,
                "end_time": 5.9159091,
                "pitch": 50,
                "velocity": 80,
                "duration": 0.1477273,
                "tempo": 120.0
            },
            {
                "start_time": 4.2295455,
                "end_time": 6.0659091,
                "pitch": 52,
                "velocity": 80,
                "duration": 1.8363636,
                "tempo": 120.0
            },
            {
                "start_time": 5.9159091,
                "end_time": 6.0659091,
                "pitch": 52,
                "velocity": 80,
                "duration": 0.15,
                "tempo": 120.0
            },
            {
                "start_time": 6.0659091,
                "end_time": 6.1295455,
                "pitch": 52,
                "velocity": 80,
                "duration": 0.0636364,
                "tempo": 120.0
            },
            {
                "start_time": 6.1295455,
                "end_time": 6.6704545,
                "pitch": 54,
                "velocity": 80,
                "duration": 0.5409091,
                "tempo": 120.0
            },
            {
                "start_time": 6.6704545,
                "end_time": 6.7340909,
                "pitch": 53,
                "velocity": 80,
                "duration": 0.0636364,
                "tempo": 120.0
            },
            {
                "start_time": 6.7340909,
                "end_time": 6.8,
                "pitch": 55,
                "velocity": 80,
                "duration": 0.0659091,
                "tempo": 120.0
            },
            {
                "start_time": 6.8,
                "end_time": 6.8204545,
                "pitch": 55,
                "velocity": 80,
                "duration": 0.0204545,
                "tempo": 120.0
            },
            {
                "start_time": 6.8204545,
                "end_time": 6.9704545,
                "pitch": 55,
                "velocity": 80,
                "duration": 0.15,
                "tempo": 120.0
            },
            {
                "start_time": 6.9704545,
                "end_time": 6.9840909,
                "pitch": 54,
                "velocity": 80,
                "duration": 0.0136364,
                "tempo": 120.0
            },
            {
                "start_time": 6.9840909,
                "end_time": 7.1204545,
                "pitch": 52,
                "velocity": 80,
                "duration": 0.1363636,
                "tempo": 120.0
            },
            {
                "start_time": 5.9159091,
                "end_time": 7.2704545,
                "pitch": 50,
                "velocity": 80,
                "duration": 1.3545455,
                "tempo": 120.0
            },
            {
                "start_time": 7.1204545,
                "end_time": 7.2704545,
                "pitch": 50,
                "velocity": 80,
                "duration": 0.15,
                "tempo": 120.0
            },
            {
                "start_time": 7.2704545,
                "end_time": 7.8954545,
                "pitch": 50,
                "velocity": 80,
                "duration": 0.625,
                "tempo": 120.0
            },
            {
                "start_time": 0.9113636,
                "end_time": 8.4886364,
                "pitch": 49,
                "velocity": 80,
                "duration": 7.5772727,
                "tempo": 120.0
            },
            {
                "start_time": 7.8954545,
                "end_time": 8.4886364,
                "pitch": 49,
                "velocity": 80,
                "duration": 0.5931818,
                "tempo": 120.0
            },
            {
                "start_time": 4.8454545,
                "end_time": 9.7068182,
                "pitch": 45,
                "velocity": 80,
                "duration": 4.8613636,
                "tempo": 120.0
            },
            {
                "start_time": 8.4886364,
                "end_time": 9.7068182,
                "pitch": 45,
                "velocity": 80,
                "duration": 1.2181818,
                "tempo": 120.0
            },
            {
                "start_time": 9.7068182,
                "end_time": 9.7704545,
                "pitch": 57,
                "velocity": 80,
                "duration": 0.0636364,
                "tempo": 120.0
            },
            {
                "start_time": 9.7704545,
                "end_time": 10.0113636,
                "pitch": 59,
                "velocity": 80,
                "duration": 0.2409091,
                "tempo": 120.0
            },
            {
                "start_time": 10.0113636,
                "end_time": 10.3181818,
                "pitch": 59,
                "velocity": 80,
                "duration": 0.3068182,
                "tempo": 120.0
            },
            {
                "start_time": 10.3181818,
                "end_time": 10.4681818,
                "pitch": 59,
                "velocity": 80,
                "duration": 0.15,
                "tempo": 120.0
            },
            {
                "start_time": 10.4681818,
                "end_time": 10.4818182,
                "pitch": 59,
                "velocity": 80,
                "duration": 0.0136364,
                "tempo": 120.0
            },
            {
                "start_time": 10.4818182,
                "end_time": 10.6181818,
                "pitch": 57,
                "velocity": 80,
                "duration": 0.1363636,
                "tempo": 120.0
            },
            {
                "start_time": 10.6181818,
                "end_time": 10.6818182,
                "pitch": 57,
                "velocity": 80,
                "duration": 0.0636364,
                "tempo": 120.0
            },
            {
                "start_time": 10.6818182,
                "end_time": 10.7681818,
                "pitch": 59,
                "velocity": 80,
                "duration": 0.0863636,
                "tempo": 120.0
            },
            {
                "start_time": 10.7681818,
                "end_time": 10.9181818,
                "pitch": 61,
                "velocity": 80,
                "duration": 0.15,
                "tempo": 120.0
            },
            {
                "start_time": 10.9181818,
                "end_time": 11.5181818,
                "pitch": 61,
                "velocity": 80,
                "duration": 0.6,
                "tempo": 120.0
            },
            {
                "start_time": 11.5181818,
                "end_time": 12.1181818,
                "pitch": 57,
                "velocity": 80,
                "duration": 0.6,
                "tempo": 120.0
            },
            {
                "start_time": 7.1204545,
                "end_time": 12.4204545,
                "pitch": 52,
                "velocity": 80,
                "duration": 5.3,
                "tempo": 120.0
            },
            {
                "start_time": 12.1181818,
                "end_time": 12.4204545,
                "pitch": 52,
                "velocity": 80,
                "duration": 0.3022727,
                "tempo": 120.0
            },
            {
                "start_time": 12.4204545,
                "end_time": 12.725,
                "pitch": 57,
                "velocity": 80,
                "duration": 0.3045455,
                "tempo": 120.0
            },
            {
                "start_time": 12.725,
                "end_time": 12.7886364,
                "pitch": 55,
                "velocity": 80,
                "duration": 0.0636364,
                "tempo": 120.0
            },
            {
                "start_time": 6.7340909,
                "end_time": 12.7886364,
                "pitch": 67,
                "velocity": 80,
                "duration": 6.0545455,
                "tempo": 120.0
            },
            {
                "start_time": 6.8,
                "end_time": 12.8545455,
                "pitch": 0,
                "velocity": 80,
                "duration": 6.0545455,
                "tempo": 120.0
            },
            {
                "start_time": 12.7886364,
                "end_time": 12.8545455,
                "pitch": 55,
                "velocity": 80,
                "duration": 0.0659091,
                "tempo": 120.0
            },
            {
                "start_time": 12.8545455,
                "end_time": 12.9204545,
                "pitch": 55,
                "velocity": 80,
                "duration": 0.0659091,
                "tempo": 120.0
            },
            {
                "start_time": 12.7886364,
                "end_time": 12.9204545,
                "pitch": 67,
                "velocity": 80,
                "duration": 0.1318182,
                "tempo": 120.0
            },
            {
                "start_time": 12.8545455,
                "end_time": 12.9886364,
                "pitch": 0,
                "velocity": 80,
                "duration": 0.1340909,
                "tempo": 120.0
            },
            {
                "start_time": 12.9204545,
                "end_time": 12.9886364,
                "pitch": 55,
                "velocity": 80,
                "duration": 0.0681818,
                "tempo": 120.0
            },
            {
                "start_time": 12.9886364,
                "end_time": 13.0409091,
                "pitch": 55,
                "velocity": 80,
                "duration": 0.0522727,
                "tempo": 120.0
            },
            {
                "start_time": 12.9204545,
                "end_time": 13.0409091,
                "pitch": 67,
                "velocity": 80,
                "duration": 0.1204545,
                "tempo": 120.0
            },
            {
                "start_time": 10.7681818,
                "end_time": 13.3409091,
                "pitch": 59,
                "velocity": 80,
                "duration": 2.5727273,
                "tempo": 120.0
            },
            {
                "start_time": 13.0409091,
                "end_time": 13.3409091,
                "pitch": 59,
                "velocity": 80,
                "duration": 0.3,
                "tempo": 120.0
            },
            {
                "start_time": 13.3409091,
                "end_time": 13.3545455,
                "pitch": 59,
                "velocity": 80,
                "duration": 0.0136364,
                "tempo": 120.0
            },
            {
                "start_time": 13.3545455,
                "end_time": 14.5590909,
                "pitch": 57,
                "velocity": 80,
                "duration": 1.2045455,
                "tempo": 120.0
            },
            {
                "start_time": 14.5590909,
                "end_time": 15.1659091,
                "pitch": 57,
                "velocity": 80,
                "duration": 0.6068182,
                "tempo": 120.0
            },
            {
                "start_time": 15.1659091,
                "end_time": 15.2295455,
                "pitch": 57,
                "velocity": 80,
                "duration": 0.0636364,
                "tempo": 120.0
            },
            {
                "start_time": 15.2295455,
                "end_time": 15.4636364,
                "pitch": 59,
                "velocity": 80,
                "duration": 0.2340909,
                "tempo": 120.0
            },
            {
                "start_time": 15.4636364,
                "end_time": 15.7659091,
                "pitch": 61,
                "velocity": 80,
                "duration": 0.3022727,
                "tempo": 120.0
            },
            {
                "start_time": 15.7659091,
                "end_time": 16.3772727,
                "pitch": 61,
                "velocity": 80,
                "duration": 0.6113636,
                "tempo": 120.0
            },
            {
                "start_time": 11.5181818,
                "end_time": 16.6772727,
                "pitch": 62,
                "velocity": 80,
                "duration": 5.1590909,
                "tempo": 120.0
            },
            {
                "start_time": 16.3772727,
                "end_time": 16.6772727,
                "pitch": 62,
                "velocity": 80,
                "duration": 0.3,
                "tempo": 120.0
            },
            {
                "start_time": 15.4636364,
                "end_time": 16.9772727,
                "pitch": 59,
                "velocity": 80,
                "duration": 1.5136364,
                "tempo": 120.0
            },
            {
                "start_time": 16.6772727,
                "end_time": 16.9772727,
                "pitch": 59,
                "velocity": 80,
                "duration": 0.3,
                "tempo": 120.0
            },
            {
                "start_time": 16.9772727,
                "end_time": 16.9909091,
                "pitch": 59,
                "velocity": 80,
                "duration": 0.0136364,
                "tempo": 120.0
            },
            {
                "start_time": 12.1181818,
                "end_time": 17.9068182,
                "pitch": 45,
                "velocity": 80,
                "duration": 5.7886364,
                "tempo": 120.0
            },
            {
                "start_time": 16.9909091,
                "end_time": 17.9068182,
                "pitch": 57,
                "velocity": 80,
                "duration": 0.9159091,
                "tempo": 120.0
            },
            {
                "start_time": 17.9068182,
                "end_time": 18.2136364,
                "pitch": 54,
                "velocity": 80,
                "duration": 0.3068182,
                "tempo": 120.0
            },
            {
                "start_time": 18.2136364,
                "end_time": 19.4022727,
                "pitch": 54,
                "velocity": 80,
                "duration": 1.1886364,
                "tempo": 120.0
            }
        ]
    }
}