{
    "mood": "happy",
    "instruments": {
        "Acoustic Bass": [
            {
                "start_time": 0.0272727,
                "end_time": 0.2931818,
                "pitch": 43,
                "velocity": 101,
                "duration": 0.2659091,
                "tempo": 120.0
            },
            {
                "start_time": 0.2931818,
                "end_time": 0.4931818,
                "pitch": 55,
                "velocity": 101,
                "duration": 0.2,
                "tempo": 120.0
            },
            {
                "start_time": 0.4931818,
                "end_time": 0.5613636,
                "pitch": 55,
                "velocity": 101,
                "duration": 0.0681818,
                "tempo": 120.0
            },
            {
                "start_time": 0.5613636,
                "end_time": 0.6954545,
                "pitch": 50,
                "velocity": 101,
                "duration": 0.1340909,
                "tempo": 120.0
            },
            {
                "start_time": 0.6954545,
                "end_time": 1.1045455,
                "pitch": 55,
                "velocity": 101,
                "duration": 0.4090909,
                "tempo": 120.0
            },
            {
                "start_time": 0.5613636,
                "end_time": 1.3545455,
                "pitch": 43,
                "velocity": 101,
                "duration": 0.7931818,
                "tempo": 120.0
            },
            {
                "start_time": 1.1045455,
                "end_time": 1.3545455,
                "pitch": 43,
                "velocity": 101,
                "duration": 0.25,
                "tempo": 120.0
            },
            {
                "start_time": 1.3545455,
                "end_time": 1.5545455,
                "pitch": 55,
                "velocity": 101,
                "duration": 0.2,
                "tempo": 120.0
            },
            {
                "start_time": 1.5545455,
                "end_time": 1.6227273,
                "pitch": 55,
                "velocity": 101,
                "duration": 0.0681818,
                "tempo": 120.0
            },
            {
                "start_time": 1.6227273,
                "end_time": 1.7545455,
                "pitch": 50,
                "velocity": 101,
                "duration": 0.1318182,
                "tempo": 120.0
            },
            {
                "start_time": 0.6954545,
                "end_time": 1.7545455,
                "pitch": 62,
                "velocity": 101,
                "duration": 1.0590909,
                "tempo": 120.0
            },
            {
                "start_time": 1.7545455,
                "end_time": 2.1477273,
                "pitch": 55,
                "velocity": 101,
                "duration": 0.3931818,
                "tempo": 120.0
            },
            {
                "start_time": 2.1477273,
                "end_time": 2.3977273,
                "pitch": 40,
                "velocity": 101,
                "duration": 0.25,
                "tempo": 120.0
            },
            {
                "start_time": 2.3977273,
                "end_time": 2.5977273,
                "pitch": 52,
                "velocity": 101,
                "duration": 0.2,
                "tempo": 120.0
            },
            {
                "start_time": 2.5977273,
                "end_time": 2.6659091,
                "pitch": 52,
                "velocity": 101,
                "duration": 0.0681818,
                "tempo": 120.0
            },
            {
                "start_time": 2.6659091,
                "end_time": 2.7954545,
                "pitch": 47,
                "velocity": 101,
                "duration": 0.1295455,
                "tempo": 120.0
            },
            {
                "start_time": 2.6659091,
                "end_time": 3.1909091,
                "pitch": 52,
                "velocity": 101,
                "duration": 0.525,
                "tempo": 120.0
            },
            {
                "start_time": 2.7954545,
                "end_time": 3.1909091,
                "pitch": 52,
                "velocity": 101,
                "duration": 0.3954545,
                "tempo": 120.0
            },
            {
                "start_time": 3.1909091,
                "end_time": 3.4409091,
                "pitch": 40,
                "velocity": 101,
                "duration": 0.25,
                "tempo": 120.0
            },
            {
                "start_time": 3.4409091,
                "end_time": 3.6409091,
                "pitch": 52,
                "velocity": 101,
                "duration": 0.2,
                "tempo": 120.0
            },
            {
                "start_time": 3.6409091,
                "end_time": 3.7068182,
                "pitch": 52,
                "velocity": 101,
                "duration": 0.0659091,
                "tempo": 120.0
            },
            {
                "start_time": 2.7954545,
                "end_time": 3.8386364,
                "pitch": 47,
                "velocity": 101,
                "duration": 1.0431818,
                "tempo": 120.0
            },
            {
                "start_time": 3.7068182,
                "end_time": 3.8386364,
                "pitch": 47,
                "velocity": 101,
                "duration": 0.1318182,
                "tempo": 120.0
            },
            {
                "start_time": 3.7068182,
                "end_time": 4.2340909,
                "pitch": 52,
                "velocity": 101,
                "duration": 0.5272727,
                "tempo": 120.0
            },
            {
                "start_time": 3.8386364,
                "end_time": 4.2340909,
                "pitch": 52,
                "velocity": 101,
                "duration": 0.3954545,
                "tempo": 120.0
            },
            {
                "start_time": 4.2340909,
                "end_time": 4.4840909,
                "pitch": 45,
                "velocity": 101,
                "duration": 0.25,
                "tempo": 120.0
            },
            {
                "start_time": 4.4840909,
                "end_time": 4.6840909,
                "pitch": 57,
                "velocity": 101,
                "duration": 0.2,
                "tempo": 120.0
            },
            {
                "start_time": 4.6840909,
                "end_time": 4.75,
                "pitch": 57,
                "velocity": 101,
                "duration": 0.0659091,
                "tempo": 120.0
            },
            {
                "start_time": 4.2340909,
                "end_time": 4.8818182,
                "pitch": 52,
                "velocity": 101,
                "duration": 0.6477273,
                "tempo": 120.0
            },
            {
                "start_time": 4.75,
                "end_time": 4.8818182,
                "pitch": 52,
                "velocity": 101,
                "duration": 0.1318182,
                "tempo": 120.0
            },
            {
                "start_time": 4.8818182,
                "end_time": 5.2772727,
                "pitch": 57,
                "velocity": 101,
                "duration": 0.3954545,
                "tempo": 120.0
            },
            {
                "start_time": 4.75,
                "end_time": 5.5272727,
                "pitch": 45,
                "velocity": 101,
                "duration": 0.7772727,
                "tempo": 120.0
            },
            {
                "start_time": 5.2772727,
                "end_time": 5.5272727,
                "pitch": 45,
                "velocity": 101,
                "duration": 0.25,
                "tempo": 120.0
            },
            {
                "start_time": 5.5272727,
                "end_time": 5.7272727,
                "pitch": 57,
                "velocity": 101,
                "duration": 0.2,
                "tempo": 120.0
            },
            {
                "start_time": 5.7272727,
                "end_time": 5.7931818,
                "pitch": 57,
                "velocity": 101,
                "duration": 0.0659091,
                "tempo": 120.0
            },
            {
                "start_time": 5.7954545,
                "end_time": 5.925,
                "pitch": 52,
                "velocity": 101,
                "duration": 0.1295455,
                "tempo": 120.0
            },
            {
                "start_time": 4.8818182,
                "end_time": 5.925,
                "pitch": 64,
                "velocity": 101,
                "duration": 1.0431818,
                "tempo": 120.0
            },
            {
                "start_time": 5.925,
                "end_time": 6.3181818,
                "pitch": 57,
                "velocity": 101,
                "duration": 0.3931818,
                "tempo": 120.0
            },
            {
                "start_time": 6.3181818,
                "end_time": 6.5704545,
                "pitch": 38,
                "velocity": 101,
                "duration": 0.2522727,
                "tempo": 120.0
            },
            {
                "start_time": 6.5704545,
                "end_time": 6.7681818,
                "pitch": 50,
                "velocity": 101,
                "duration": 0.1977273,
                "tempo": 120.0
            },
            {
                "start_time": 6.7681818,
                "end_time": 6.8363636,
                "pitch": 50,
                "velocity": 101,
                "duration": 0.0681818,
                "tempo": 120.0
            },
            {
                "start_time": 5.7954545,
                "end_time": 6.9681818,
                "pitch": 45,
                "velocity": 101,
                "duration": 1.1727273,
                "tempo": 120.0
            },
            {
                "start_time": 6.8363636,
                "end_time": 6.9681818,
                "pitch": 45,
                "velocity": 101,
                "duration": 0.1318182,
                "tempo": 120.0
            },
            {
                "start_time": 6.8363636,
                "end_time": 7.3613636,
                "pitch": 50,
                "velocity": 101,
                "duration": 0.525,
                "tempo": 120.0
            },
            {
                "start_time": 6.9681818,
                "end_time": 7.3613636,
                "pitch": 50,
                "velocity": 101,
                "duration": 0.3931818,
                "tempo": 120.0
            },
            {
                "start_time": 7.3613636,
                "end_time": 7.6113636,
                "pitch": 38,
                "velocity": 101,
                "duration": 0.25,
                "tempo": 120.0
            },
            {
                "start_time": 7.6113636,
                "end_time": 7.8113636,
                "pitch": 50,
                "velocity": 101,
                "duration": 0.2,
                "tempo": 120.0
            },
            {
                "start_time": 7.8113636,
                "end_time": 7.8772727,
                "pitch": 50,
                "velocity": 101,
                "duration": 0.0659091,
                "tempo": 120.0
            },
            {
                "start_time": 6.9681818,
                "end_time": 8.0068182,
                "pitch": 45,
                "velocity": 101,
                "duration": 1.0386364,
                "tempo": 120.0
            },
            {
                "start_time": 7.8795455,
                "end_time": 8.0068182,
                "pitch": 45,
                "velocity": 101,
                "duration": 0.1272727,
                "tempo": 120.0
            },
            {
                "start_time": 7.8795455,
                "end_time": 8.3954545,
                "pitch": 50,
                "velocity": 101,
                "duration": 0.5159091,
                "tempo": 120.0
            },
            {
                "start_time": 8.0068182,
                "end_time": 8.3954545,
                "pitch": 50,
                "velocity": 101,
                "duration": 0.3886364,
                "tempo": 120.0
            },
            {
                "start_time": 1.6227273,
                "end_time": 8.65,
                "pitch": 43,
                "velocity": 101,
                "duration": 7.0272727,
                "tempo": 120.0
            },
            {
                "start_time": 8.3954545,
                "end_time": 8.65,
                "pitch": 43,
                "velocity": 101,
                "duration": 0.2545455,
                "tempo": 120.0
            },
            {
                "start_time": 8.65,
                "end_time": 8.8545455,
                "pitch": 55,
                "velocity": 101,
                "duration": 0.2045455,
                "tempo": 120.0
            },
            {
                "start_time": 8.8545455,
                "end_time": 8.9227273,
                "pitch": 55,
                "velocity": 101,
                "duration": 0.0681818,
                "tempo": 120.0
            },
            {
                "start_time": 8.3954545,
                "end_time": 9.0545455,
                "pitch": 50,
                "velocity": 101,
                "duration": 0.6590909,
                "tempo": 120.0
            },
            {
                "start_time": 8.9227273,
                "end_time": 9.0545455,
                "pitch": 50,
                "velocity": 101,
                "duration": 0.1318182,
                "tempo": 120.0
            },
            {
                "start_time": 1.7545455,
                "end_time": 9.0545455,
                "pitch": 62,
                "velocity": 101,
                "duration": 7.3,
                "tempo": 120.0
            },
            {
                "start_time": 9.0545455,
                "end_time": 9.4477273,
                "pitch": 55,
                "velocity": 101,
                "duration": 0.3931818,
                "tempo": 120.0
            },
            {
                "start_time": 8.9227273,
                "end_time": 9.6977273,
                "pitch": 43,
                "velocity": 101,
                "duration": 0.775,
                "tempo": 120.0
            },
            {
                "start_time": 9.4477273,
                "end_time": 9.6977273,
                "pitch": 43,
                "velocity": 101,
                "duration": 0.25,
                "tempo": 120.0
            },
            {
                "start_time": 9.6977273,
                "end_time": 9.8977273,
                "pitch": 55,
                "velocity": 101,
                "duration": 0.2,
                "tempo": 120.0
            },
            {
                "start_time": 9.8977273,
                "end_time": 9.9659091,
                "pitch": 55,
                "velocity": 101,
                "duration": 0.0681818,
                "tempo": 120.0
            },
            {
                "start_time": 9.9659091,
                "end_time": 10.0954545,
                "pitch": 50,
                "velocity": 101,
                "duration": 0.1295455,
                "tempo": 120.0
            },
            {
                "start_time": 9.0545455,
                "end_time": 10.0977273,
                "pitch": 62,
                "velocity": 101,
                "duration": 1.0431818,
                "tempo": 120.0
            },
            {
                "start_time": 2.1477273,
                "end_time": 10.4909091,
                "pitch": 31,
                "velocity": 101,
                "duration": 8.3431818,
                "tempo": 120.0
            },
            {
                "start_time": 10.0977273,
                "end_time": 10.4909091,
                "pitch": 55,
                "velocity": 101,
                "duration": 0.3931818,
                "tempo": 120.0
            },
            {
                "start_time": 10.4909091,
                "end_time": 10.7409091,
                "pitch": 40,
                "velocity": 101,
                "duration": 0.25,
                "tempo": 120.0
            },
            {
                "start_time": 10.7409091,
                "end_time": 10.9409091,
                "pitch": 52,
                "velocity": 101,
                "duration": 0.2,
                "tempo": 120.0
            },
            {
                "start_time": 10.9409091,
                "end_time": 11.0090909,
                "pitch": 52,
                "velocity": 101,
                "duration": 0.0681818,
                "tempo": 120.0
            },
            {
                "start_time": 3.8386364,
                "end_time": 11.1386364,
                "pitch": 47,
                "velocity": 101,
                "duration": 7.3,
                "tempo": 120.0
            },
            {
                "start_time": 11.0090909,
                "end_time": 11.1386364,
                "pitch": 47,
                "velocity": 101,
                "duration": 0.1295455,
                "tempo": 120.0
            },
            {
                "start_time": 11.0090909,
                "end_time": 11.5340909,
                "pitch": 52,
                "velocity": 101,
                "duration": 0.525,
                "tempo": 120.0
            },
            {
                "start_time": 11.1386364,
                "end_time": 11.5340909,
                "pitch": 52,
                "velocity": 101,
                "duration": 0.3954545,
                "tempo": 120.0
            },
            {
                "start_time": 11.5340909,
                "end_time": 11.7840909,
                "pitch": 40,
                "velocity": 101,
                "duration": 0.25,
                "tempo": 120.0
            },
            {
                "start_time": 11.7840909,
                "end_time": 11.9840909,
                "pitch": 52,
                "velocity": 101,
                "duration": 0.2,
                "tempo": 120.0
            },
            {
                "start_time": 11.9840909,
                "end_time": 12.0522727,
                "pitch": 52,
                "velocity": 101,
                "duration": 0.0681818,
                "tempo": 120.0
            },
            {
                "start_time": 11.1386364,
                "end_time": 12.1818182,
                "pitch": 47,
                "velocity": 101,
                "duration": 1.0431818,
                "tempo": 120.0
            },
            {
                "start_time": 12.0522727,
                "end_time": 12.1818182,
                "pitch": 47,
                "velocity": 101,
                "duration": 0.1295455,
                "tempo": 120.0
            },
            {
                "start_time": 12.0522727,
                "end_time": 12.5772727,
                "pitch": 52,
                "velocity": 101,
                "duration": 0.525,
                "tempo": 120.0
            },
            {
                "start_time": 12.1818182,
                "end_time": 12.5772727,
                "pitch": 52,
                "velocity": 101,
                "duration": 0.3954545,
                "tempo": 120.0
            },
            {
                "start_time": 8.0068182,
                "end_time": 12.8272727,
                "pitch": 45,
                "velocity": 101,
                "duration": 4.8204545,
                "tempo": 120.0
            },
            {
                "start_time": 12.5772727,
                "end_time": 12.8272727,
                "pitch": 45,
                "velocity": 101,
                "duration": 0.25,
                "tempo": 120.0
            },
            {
                "start_time": 12.8272727,
                "end_time": 13.0272727,
                "pitch": 57,
                "velocity": 101,
                "duration": 0.2,
                "tempo": 120.0
            },
            {
                "start_time": 13.0272727,
                "end_time": 13.0931818,
                "pitch": 57,
                "velocity": 101,
                "duration": 0.0659091,
                "tempo": 120.0
            },
            {
                "start_time": 12.5772727,
                "end_time": 13.225,
                "pitch": 52,
                "velocity": 101,
                "duration": 0.6477273,
                "tempo": 120.0
            },
            {
                "start_time": 13.0931818,
                "end_time": 13.225,
                "pitch": 52,
                "velocity": 101,
                "duration": 0.1318182,
                "tempo": 120.0
            },
            {
                "start_time": 5.925,
                "end_time": 13.225,
                "pitch": 64,
                "velocity": 101,
                "duration": 7.3,
                "tempo": 120.0
            },
            {
                "start_time": 13.225,
                "end_time": 13.6181818,
                "pitch": 57,
                "velocity": 101,
                "duration": 0.3931818,
                "tempo": 120.0
            },
            {
                "start_time": 13.0931818,
                "end_time": 13.8681818,
                "pitch": 45,
                "velocity": 101,
                "duration": 0.775,
                "tempo": 120.0
            },
            {
                "start_time": 13.6204545,
                "end_time": 13.8681818,
                "pitch": 45,
                "velocity": 101,
                "duration": 0.2477273,
                "tempo": 120.0
            },
            {
                "start_time": 13.8681818,
                "end_time": 14.0681818,
                "pitch": 57,
                "velocity": 101,
                "duration": 0.2,
                "tempo": 120.0
            },
            {
                "start_time": 14.0681818,
                "end_time": 14.1363636,
                "pitch": 57,
                "velocity": 101,
                "duration": 0.0681818,
                "tempo": 120.0
            },
            {
                "start_time": 14.1363636,
                "end_time": 14.2681818,
                "pitch": 52,
                "velocity": 101,
                "duration": 0.1318182,
                "tempo": 120.0
            },
            {
                "start_time": 13.225,
                "end_time": 14.2681818,
                "pitch": 64,
                "velocity": 101,
                "duration": 1.0431818,
                "tempo": 120.0
            },
            {
                "start_time": 6.3181818,
                "end_time": 14.6613636,
                "pitch": 33,
                "velocity": 101,
                "duration": 8.3431818,
                "tempo": 120.0
            },
            {
                "start_time": 14.2681818,
                "end_time": 14.6613636,
                "pitch": 57,
                "velocity": 101,
                "duration": 0.3931818,
                "tempo": 120.0
            },
            {
                "start_time": 14.6613636,
                "end_time": 14.9136364,
                "pitch": 38,
                "velocity": 101,
                "duration": 0.2522727,
                "tempo": 120.0
            },
            {
                "start_time": 14.9136364,
                "end_time": 15.1113636,
                "pitch": 50,
                "velocity": 101,
                "duration": 0.1977273,
                "tempo": 120.0
            },
            {
                "start_time": 15.1113636,
                "end_time": 15.1795455,
                "pitch": 50,
                "velocity": 101,
                "duration": 0.0681818,
                "tempo": 120.0
            },
            {
                "start_time": 14.1363636,
                "end_time": 15.3090909,
                "pitch": 45,
                "velocity": 101,
                "duration": 1.1727273,
                "tempo": 120.0
            },
            {
                "start_time": 15.1795455,
                "end_time": 15.3090909,
                "pitch": 45,
                "velocity": 101,
                "duration": 0.1295455,
                "tempo": 120.0
            },
            {
                "start_time": 15.1795455,
                "end_time": 15.7045455,
                "pitch": 50,
                "velocity": 101,
                "duration": 0.525,
                "tempo": 120.0
            },
            {
                "start_time": 15.3090909,
                "end_time": 15.7045455,
                "pitch": 50,
                "velocity": 101,
                "duration": 0.3954545,
                "tempo": 120.0
            },
            {
                "start_time": 15.7045455,
                "end_time": 15.9545455,
                "pitch": 38,
                "velocity": 101,
                "duration": 0.25,
                "tempo": 120.0
            },
            {
                "start_time": 15.9545455,
                "end_time": 16.1545455,
                "pitch": 50,
                "velocity": 101,
                "duration": 0.2,
                "tempo": 120.0
            },
            {
                "start_time": 16.1545455,
                "end_time": 16.2227273,
                "pitch": 50,
                "velocity": 101,
                "duration": 0.0681818,
                "tempo": 120.0
            },
            {
                "start_time": 15.3090909,
                "end_time": 16.3522727,
                "pitch": 45,
                "velocity": 101,
                "duration": 1.0431818,
                "tempo": 120.0
            },
            {
                "start_time": 16.2227273,
                "end_time": 16.3522727,
                "pitch": 45,
                "velocity": 101,
                "duration": 0.1295455,
                "tempo": 120.0
            },
            {
                "start_time": 9.9659091,
                "end_time": 16.7477273,
                "pitch": 43,
                "velocity": 101,
                "duration": 6.7818182,
                "tempo": 120.0
            },
            {
                "start_time": 16.2227273,
                "end_time": 16.7477273,
                "pitch": 50,
                "velocity": 101,
                "duration": 0.525,
                "tempo": 120.0
            },
            {
                "start_time": 16.3522727,
                "end_time": 16.7477273,
                "pitch": 50,
                "velocity": 101,
                "duration": 0.3954545,
                "tempo": 120.0
            }
        ]
    }
}