{
    "mood": "happy",
    "instruments": {
        "Trumpet": [
            {
                "start_time": 0.0159091,
                "end_time": 0.3772727,
                "pitch": 55,
                "velocity": 51,
                "duration": 0.3613636,
                "tempo": 120.0
            },
            {
                "start_time": 0.5886364,
                "end_time": 0.9636364,
                "pitch": 57,
                "velocity": 51,
                "duration": 0.375,
                "tempo": 120.0
            },
            {
                "start_time": 1.3727273,
                "end_time": 2.3659091,
                "pitch": 59,
                "velocity": 51,
                "duration": 0.9931818,
                "tempo": 120.0
            },
            {
                "start_time": 3.1863636,
                "end_time": 3.5795455,
                "pitch": 55,
                "velocity": 51,
                "duration": 0.3931818,
                "tempo": 120.0
            },
            {
                "start_time": 3.7977273,
                "end_time": 4.1772727,
                "pitch": 57,
                "velocity": 51,
                "duration": 0.3795455,
                "tempo": 120.0
            },
            {
                "start_time": 4.5840909,
                "end_time": 6.3818182,
                "pitch": 64,
                "velocity": 51,
                "duration": 1.7977273,
                "tempo": 120.0
            },
            {
                "start_time": 6.3977273,
                "end_time": 6.7909091,
                "pitch": 55,
                "velocity": 51,
                "duration": 0.3931818,
                "tempo": 120.0
            },
            {
                "start_time": 7.0090909,
                "end_time": 7.3886364,
                "pitch": 57,
                "velocity": 51,
                "duration": 0.3795455,
                "tempo": 120.0
            },
            {
                "start_time": 7.7977273,
                "end_time": 8.7818182,
                "pitch": 59,
                "velocity": 51,
                "duration": 0.9840909,
                "tempo": 120.0
            },
            {
                "start_time": 9.0045455,
                "end_time": 9.1931818,
                "pitch": 60,
                "velocity": 51,
                "duration": 0.1886364,
                "tempo": 120.0
            },
            {
                "start_time": 9.2090909,
                "end_time": 9.3977273,
                "pitch": 64,
                "velocity": 51,
                "duration": 0.1886364,
                "tempo": 120.0
            },
            {
                "start_time": 9.4159091,
                "end_time": 12.5977273,
                "pitch": 66,
                "velocity": 51,
                "duration": 3.1818182,
                "tempo": 120.0
            },
            {
                "start_time": 12.6159091,
                "end_time": 15.975,
                "pitch": 67,
                "velocity": 51,
                "duration": 3.3590909,
                "tempo": 120.0
            }
        ],
        "Electric Guitar (clean)": [
            {
                "start_time": 0.0159091,
                "end_time": 0.3772727,
                "pitch": 36,
                "velocity": 64,
                "duration": 0.3613636,
                "tempo": 120.0
            },
            {
                "start_time": 0.5886364,
                "end_time": 0.9636364,
                "pitch": 38,
                "velocity": 64,
                "duration": 0.375,
                "tempo": 120.0
            },
            {
                "start_time": 1.3727273,
                "end_time": 1.7545455,
                "pitch": 40,
                "velocity": 64,
                "duration": 0.3818182,
                "tempo": 120.0
            },
            {
                "start_time": 1.7704545,
                "end_time": 1.9545455,
                "pitch": 52,
                "velocity": 64,
                "duration": 0.1840909,
                "tempo": 120.0
            },
            {
                "start_time": 1.9727273,
                "end_time": 2.1613636,
                "pitch": 50,
                "velocity": 64,
                "duration": 0.1886364,
                "tempo": 120.0
            },
            {
                "start_time": 2.1772727,
                "end_time": 2.3659091,
                "pitch": 48,
                "velocity": 64,
                "duration": 0.1886364,
                "tempo": 120.0
            },
            {
                "start_time": 2.3818182,
                "end_time": 2.5704545,
                "pitch": 43,
                "velocity": 64,
                "duration": 0.1886364,
                "tempo": 120.0
            },
            {
                "start_time": 2.5886364,
                "end_time": 2.7772727,
                "pitch": 50,
                "velocity": 64,
                "duration": 0.1886364,
                "tempo": 120.0
            },
            {
                "start_time": 2.7931818,
                "end_time": 2.9727273,
                "pitch": 48,
                "velocity": 64,
                "duration": 0.1795455,
                "tempo": 120.0
            },
            {
                "start_time": 2.9909091,
                "end_time": 3.1704545,
                "pitch": 47,
                "velocity": 64,
                "duration": 0.1795455,
                "tempo": 120.0
            },
            {
                "start_time": 3.1863636,
                "end_time": 3.5795455,
                "pitch": 36,
                "velocity": 64,
                "duration": 0.3931818,
                "tempo": 120.0
            },
            {
                "start_time": 3.7977273,
                "end_time": 4.1772727,
                "pitch": 38,
                "velocity": 64,
                "duration": 0.3795455,
                "tempo": 120.0
            },
            {
                "start_time": 4.3886364,
                "end_time": 4.5681818,
                "pitch": 35,
                "velocity": 64,
                "duration": 0.1795455,
                "tempo": 120.0
            },
            {
                "start_time": 4.5840909,
                "end_time": 4.9659091,
                "pitch": 40,
                "velocity": 64,
                "duration": 0.3818182,
                "tempo": 120.0
            },
            {
                "start_time": 4.9818182,
                "end_time": 5.3727273,
                "pitch": 43,
                "velocity": 64,
                "duration": 0.3909091,
                "tempo": 120.0
            },
            {
                "start_time": 5.3886364,
                "end_time": 5.5772727,
                "pitch": 55,
                "velocity": 64,
                "duration": 0.1886364,
                "tempo": 120.0
            },
            {
                "start_time": 5.5954545,
                "end_time": 5.7772727,
                "pitch": 45,
                "velocity": 64,
                "duration": 0.1818182,
                "tempo": 120.0
            },
            {
                "start_time": 5.7954545,
                "end_time": 5.9772727,
                "pitch": 57,
                "velocity": 64,
                "duration": 0.1818182,
                "tempo": 120.0
            },
            {
                "start_time": 5.9954545,
                "end_time": 6.1795455,
                "pitch": 47,
                "velocity": 64,
                "duration": 0.1840909,
                "tempo": 120.0
            },
            {
                "start_time": 6.1954545,
                "end_time": 6.3818182,
                "pitch": 59,
                "velocity": 64,
                "duration": 0.1863636,
                "tempo": 120.0
            },
            {
                "start_time": 6.3977273,
                "end_time": 6.7909091,
                "pitch": 36,
                "velocity": 64,
                "duration": 0.3931818,
                "tempo": 120.0
            },
            {
                "start_time": 7.0090909,
                "end_time": 7.3886364,
                "pitch": 38,
                "velocity": 64,
                "duration": 0.3795455,
                "tempo": 120.0
            },
            {
                "start_time": 7.7977273,
                "end_time": 8.1772727,
                "pitch": 40,
                "velocity": 64,
                "duration": 0.3795455,
                "tempo": 120.0
            },
            {
                "start_time": 8.1954545,
                "end_time": 8.3795455,
                "pitch": 48,
                "velocity": 64,
                "duration": 0.1840909,
                "tempo": 120.0
            },
            {
                "start_time": 8.3954545,
                "end_time": 8.5795455,
                "pitch": 35,
                "velocity": 64,
                "duration": 0.1840909,
                "tempo": 120.0
            },
            {
                "start_time": 8.5977273,
                "end_time": 8.7818182,
                "pitch": 47,
                "velocity": 64,
                "duration": 0.1840909,
                "tempo": 120.0
            },
            {
                "start_time": 8.7977273,
                "end_time": 8.9863636,
                "pitch": 45,
                "velocity": 64,
                "duration": 0.1886364,
                "tempo": 120.0
            },
            {
                "start_time": 9.0045455,
                "end_time": 9.1931818,
                "pitch": 45,
                "velocity": 64,
                "duration": 0.1886364,
                "tempo": 120.0
            },
            {
                "start_time": 9.2090909,
                "end_time": 9.3977273,
                "pitch": 48,
                "velocity": 64,
                "duration": 0.1886364,
                "tempo": 120.0
            },
            {
                "start_time": 9.4159091,
                "end_time": 9.6045455,
                "pitch": 50,
                "velocity": 64,
                "duration": 0.1886364,
                "tempo": 120.0
            },
            {
                "start_time": 9.6204545,
                "end_time": 9.7954545,
                "pitch": 50,
                "velocity": 64,
                "duration": 0.175,
                "tempo": 120.0
            },
            {
                "start_time": 9.8113636,
                "end_time": 9.9863636,
                "pitch": 50,
                "velocity": 64,
                "duration": 0.175,
                "tempo": 120.0
            },
            {
                "start_time": 10.0022727,
                "end_time": 10.1863636,
                "pitch": 50,
                "velocity": 64,
                "duration": 0.1840909,
                "tempo": 120.0
            },
            {
                "start_time": 10.2045455,
                "end_time": 10.3886364,
                "pitch": 50,
                "velocity": 64,
                "duration": 0.1840909,
                "tempo": 120.0
            },
            {
                "start_time": 10.4045455,
                "end_time": 10.5909091,
                "pitch": 50,
                "velocity": 64,
                "duration": 0.1863636,
                "tempo": 120.0
            },
            {
                "start_time": 10.6068182,
                "end_time": 10.7909091,
                "pitch": 50,
                "velocity": 64,
                "duration": 0.1840909,
                "tempo": 120.0
            },
            {
                "start_time": 10.8068182,
                "end_time": 10.9909091,
                "pitch": 50,
                "velocity": 64,
                "duration": 0.1840909,
                "tempo": 120.0
            },
            {
                "start_time": 11.0068182,
                "end_time": 11.1909091,
                "pitch": 50,
                "velocity": 64,
                "duration": 0.1840909,
                "tempo": 120.0
            },
            {
                "start_time": 11.2068182,
                "end_time": 11.3931818,
                "pitch": 50,
                "velocity": 64,
                "duration": 0.1863636,
                "tempo": 120.0
            },
            {
                "start_time": 11.4090909,
                "end_time": 11.5931818,
                "pitch": 50,
                "velocity": 64,
                "duration": 0.1840909,
                "tempo": 120.0
            },
            {
                "start_time": 11.6113636,
                "end_time": 11.8,
                "pitch": 50,
                "velocity": 64,
                "duration": 0.1886364,
                "tempo": 120.0
            },
            {
                "start_time": 11.8159091,
                "end_time": 12.0045455,
                "pitch": 50,
                "velocity": 64,
                "duration": 0.1886364,
                "tempo": 120.0
            },
            {
                "start_time": 12.0204545,
                "end_time": 12.2,
                "pitch": 50,
                "velocity": 64,
                "duration": 0.1795455,
                "tempo": 120.0
            },
            {
                "start_time": 12.2181818,
                "end_time": 12.3977273,
                "pitch": 50,
                "velocity": 64,
                "duration": 0.1795455,
                "tempo": 120.0
            },
            {
                "start_time": 12.4136364,
                "end_time": 12.5977273,
                "pitch": 50,
                "velocity": 64,
                "duration": 0.1840909,
                "tempo": 120.0
            },
            {
                "start_time": 12.6159091,
                "end_time": 12.8,
                "pitch": 50,
                "velocity": 64,
                "duration": 0.1840909,
                "tempo": 120.0
            },
            {
                "start_time": 12.8159091,
                "end_time": 13.0045455,
                "pitch": 48,
                "velocity": 80,
                "duration": 0.1886364,
                "tempo": 120.0
            },
            {
                "start_time": 13.0227273,
                "end_time": 13.2090909,
                "pitch": 48,
                "velocity": 80,
                "duration": 0.1863636,
                "tempo": 120.0
            },
            {
                "start_time": 13.2272727,
                "end_time": 13.4068182,
                "pitch": 48,
                "velocity": 80,
                "duration": 0.1795455,
                "tempo": 120.0
            },
            {
                "start_time": 13.4227273,
                "end_time": 14.0045455,
                "pitch": 47,
                "velocity": 80,
                "duration": 0.5818182,
                "tempo": 120.0
            },
            {
                "start_time": 14.0227273,
                "end_time": 14.4159091,
                "pitch": 45,
                "velocity": 80,
                "duration": 0.3931818,
                "tempo": 120.0
            },
            {
                "start_time": 14.4318182,
                "end_time": 15.975,
                "pitch": 43,
                "velocity": 80,
                "duration": 1.5431818,
                "tempo": 120.0
            }
        ],
        "Lead 2 (sawtooth)": [
            {
                "start_time": 0.0159091,
                "end_time": 0.3772727,
                "pitch": 55,
                "velocity": 51,
                "duration": 0.3613636,
                "tempo": 120.0
            },
            {
                "start_time": 0.5886364,
                "end_time": 0.9636364,
                "pitch": 57,
                "velocity": 51,
                "duration": 0.375,
                "tempo": 120.0
            },
            {
                "start_time": 1.3727273,
                "end_time": 1.9545455,
                "pitch": 59,
                "velocity": 51,
                "duration": 0.5818182,
                "tempo": 120.0
            },
            {
                "start_time": 1.9727273,
                "end_time": 2.3659091,
                "pitch": 76,
                "velocity": 51,
                "duration": 0.3931818,
                "tempo": 120.0
            },
            {
                "start_time": 2.3818182,
                "end_time": 2.4681818,
                "pitch": 76,
                "velocity": 51,
                "duration": 0.0863636,
                "tempo": 120.0
            },
            {
                "start_time": 2.4863636,
                "end_time": 2.675,
                "pitch": 76,
                "velocity": 51,
                "duration": 0.1886364,
                "tempo": 120.0
            },
            {
                "start_time": 2.6909091,
                "end_time": 2.7772727,
                "pitch": 76,
                "velocity": 51,
                "duration": 0.0863636,
                "tempo": 120.0
            },
            {
                "start_time": 2.7931818,
                "end_time": 2.9727273,
                "pitch": 76,
                "velocity": 51,
                "duration": 0.1795455,
                "tempo": 120.0
            },
            {
                "start_time": 2.9909091,
                "end_time": 3.1704545,
                "pitch": 76,
                "velocity": 51,
                "duration": 0.1795455,
                "tempo": 120.0
            },
            {
                "start_time": 3.1863636,
                "end_time": 3.5795455,
                "pitch": 55,
                "velocity": 51,
                "duration": 0.3931818,
                "tempo": 120.0
            },
            {
                "start_time": 3.7977273,
                "end_time": 4.1772727,
                "pitch": 57,
                "velocity": 51,
                "duration": 0.3795455,
                "tempo": 120.0
            },
            {
                "start_time": 4.5840909,
                "end_time": 5.1681818,
                "pitch": 64,
                "velocity": 51,
                "duration": 0.5840909,
                "tempo": 120.0
            },
            {
                "start_time": 5.1840909,
                "end_time": 5.2704545,
                "pitch": 76,
                "velocity": 51,
                "duration": 0.0863636,
                "tempo": 120.0
            },
            {
                "start_time": 5.2863636,
                "end_time": 5.475,
                "pitch": 76,
                "velocity": 51,
                "duration": 0.1886364,
                "tempo": 120.0
            },
            {
                "start_time": 5.4931818,
                "end_time": 5.6772727,
                "pitch": 76,
                "velocity": 51,
                "duration": 0.1840909,
                "tempo": 120.0
            },
            {
                "start_time": 5.6954545,
                "end_time": 5.7772727,
                "pitch": 76,
                "velocity": 51,
                "duration": 0.0818182,
                "tempo": 120.0
            },
            {
                "start_time": 5.7954545,
                "end_time": 5.9772727,
                "pitch": 76,
                "velocity": 51,
                "duration": 0.1818182,
                "tempo": 120.0
            },
            {
                "start_time": 5.9954545,
                "end_time": 6.0795455,
                "pitch": 76,
                "velocity": 51,
                "duration": 0.0840909,
                "tempo": 120.0
            },
            {
                "start_time": 6.0954545,
                "end_time": 6.2795455,
                "pitch": 76,
                "velocity": 51,
                "duration": 0.1840909,
                "tempo": 120.0
            },
            {
                "start_time": 6.2977273,
                "end_time": 6.3818182,
                "pitch": 76,
                "velocity": 51,
                "duration": 0.0840909,
                "tempo": 120.0
            },
            {
                "start_time": 6.4136364,
                "end_time": 6.7909091,
                "pitch": 55,
                "velocity": 51,
                "duration": 0.3772727,
                "tempo": 120.0
            },
            {
                "start_time": 7.0090909,
                "end_time": 7.3886364,
                "pitch": 57,
                "velocity": 51,
                "duration": 0.3795455,
                "tempo": 120.0
            },
            {
                "start_time": 7.7977273,
                "end_time": 8.3795455,
                "pitch": 59,
                "velocity": 51,
                "duration": 0.5818182,
                "tempo": 120.0
            },
            {
                "start_time": 8.3954545,
                "end_time": 8.7818182,
                "pitch": 76,
                "velocity": 51,
                "duration": 0.3863636,
                "tempo": 120.0
            },
            {
                "start_time": 8.7977273,
                "end_time": 8.8840909,
                "pitch": 76,
                "velocity": 51,
                "duration": 0.0863636,
                "tempo": 120.0
            },
            {
                "start_time": 8.9022727,
                "end_time": 8.9863636,
                "pitch": 76,
                "velocity": 51,
                "duration": 0.0840909,
                "tempo": 120.0
            },
            {
                "start_time": 9.0045455,
                "end_time": 9.1931818,
                "pitch": 67,
                "velocity": 51,
                "duration": 0.1886364,
                "tempo": 120.0
            },
            {
                "start_time": 9.2090909,
                "end_time": 9.3977273,
                "pitch": 69,
                "velocity": 51,
                "duration": 0.1886364,
                "tempo": 120.0
            },
            {
                "start_time": 9.4159091,
                "end_time": 12.5977273,
                "pitch": 74,
                "velocity": 51,
                "duration": 3.1818182,
                "tempo": 120.0
            },
            {
                "start_time": 12.6159091,
                "end_time": 15.975,
                "pitch": 74,
                "velocity": 51,
                "duration": 3.3590909,
                "tempo": 120.0
            }
        ]
    }
}