{
    "mood": "happy",
    "instruments": {
        "Trumpet": [
            {
                "start_time": 1.575,
                "end_time": 3.1840909,
                "pitch": 83,
                "velocity": 64,
                "duration": 1.6090909,
                "tempo": 120.0
            },
            {
                "start_time": 3.2,
                "end_time": 3.4181818,
                "pitch": 81,
                "velocity": 64,
                "duration": 0.2181818,
                "tempo": 120.0
            },
            {
                "start_time": 3.4363636,
                "end_time": 5.2840909,
                "pitch": 78,
                "velocity": 64,
                "duration": 1.8477273,
                "tempo": 120.0
            },
            {
                "start_time": 5.3,
                "end_time": 6.9136364,
                "pitch": 83,
                "velocity": 64,
                "duration": 1.6136364,
                "tempo": 120.0
            },
            {
                "start_time": 6.9318182,
                "end_time": 7.1431818,
                "pitch": 81,
                "velocity": 64,
                "duration": 0.2113636,
                "tempo": 120.0
            },
            {
                "start_time": 7.1590909,
                "end_time": 9.0022727,
                "pitch": 78,
                "velocity": 64,
                "duration": 1.8431818,
                "tempo": 120.0
            },
            {
                "start_time": 9.0204545,
                "end_time": 10.6340909,
                "pitch": 83,
                "velocity": 64,
                "duration": 1.6136364,
                "tempo": 120.0
            },
            {
                "start_time": 10.65,
                "end_time": 10.8681818,
                "pitch": 81,
                "velocity": 64,
                "duration": 0.2181818,
                "tempo": 120.0
            },
            {
                "start_time": 10.8840909,
                "end_time": 11.5613636,
                "pitch": 78,
                "velocity": 64,
                "duration": 0.6772727,
                "tempo": 120.0
            },
            {
                "start_time": 11.5772727,
                "end_time": 12.5,
                "pitch": 79,
                "velocity": 64,
                "duration": 0.9227273,
                "tempo": 120.0
            },
            {
                "start_time": 12.5159091,
                "end_time": 12.7295455,
                "pitch": 81,
                "velocity": 64,
                "duration": 0.2136364,
                "tempo": 120.0
            },
            {
                "start_time": 12.7454545,
                "end_time": 14.8227273,
                "pitch": 83,
                "velocity": 64,
                "duration": 2.0772727,
                "tempo": 120.0
            },
            {
                "start_time": 19.0272727,
                "end_time": 20.4068182,
                "pitch": 66,
                "velocity": 64,
                "duration": 1.3795455,
                "tempo": 120.0
            },
            {
                "start_time": 20.6522727,
                "end_time": 20.7522727,
                "pitch": 66,
                "velocity": 64,
                "duration": 0.1,
                "tempo": 120.0
            },
            {
                "start_time": 22.7659091,
                "end_time": 23.1977273,
                "pitch": 66,
                "velocity": 64,
                "duration": 0.4318182,
                "tempo": 120.0
            },
            {
                "start_time": 23.4431818,
                "end_time": 23.6545455,
                "pitch": 69,
                "velocity": 64,
                "duration": 0.2113636,
                "tempo": 120.0
            },
            {
                "start_time": 23.6727273,
                "end_time": 23.775,
                "pitch": 66,
                "velocity": 64,
                "duration": 0.1022727,
                "tempo": 120.0
            },
            {
                "start_time": 24.3840909,
                "end_time": 24.4795455,
                "pitch": 66,
                "velocity": 64,
                "duration": 0.0954545,
                "tempo": 120.0
            },
            {
                "start_time": 26.4840909,
                "end_time": 26.9159091,
                "pitch": 66,
                "velocity": 64,
                "duration": 0.4318182,
                "tempo": 120.0
            },
            {
                "start_time": 27.1659091,
                "end_time": 27.3840909,
                "pitch": 69,
                "velocity": 64,
                "duration": 0.2181818,
                "tempo": 120.0
            },
            {
                "start_time": 27.4,
                "end_time": 27.4977273,
                "pitch": 66,
                "velocity": 64,
                "duration": 0.0977273,
                "tempo": 120.0
            },
            {
                "start_time": 28.0931818,
                "end_time": 28.1931818,
                "pitch": 66,
                "velocity": 64,
                "duration": 0.1,
                "tempo": 120.0
            },
            {
                "start_time": 37.1704545,
                "end_time": 44.6136364,
                "pitch": 83,
                "velocity": 64,
                "duration": 7.4431818,
                "tempo": 120.0
            }
        ],
        "Acoustic Bass": [
            {
                "start_time": 0.0136364,
                "end_time": 0.1977273,
                "pitch": 47,
                "velocity": 64,
                "duration": 0.1840909,
                "tempo": 120.0
            },
            {
                "start_time": 0.2136364,
                "end_time": 0.4318182,
                "pitch": 47,
                "velocity": 64,
                "duration": 0.2181818,
                "tempo": 120.0
            },
            {
                "start_time": 0.45,
                "end_time": 0.6477273,
                "pitch": 47,
                "velocity": 64,
                "duration": 0.1977273,
                "tempo": 120.0
            },
            {
                "start_time": 0.6636364,
                "end_time": 0.8613636,
                "pitch": 42,
                "velocity": 64,
                "duration": 0.1977273,
                "tempo": 120.0
            },
            {
                "start_time": 0.8772727,
                "end_time": 1.0954545,
                "pitch": 45,
                "velocity": 64,
                "duration": 0.2181818,
                "tempo": 120.0
            },
            {
                "start_time": 1.1113636,
                "end_time": 1.3295455,
                "pitch": 45,
                "velocity": 64,
                "duration": 0.2181818,
                "tempo": 120.0
            },
            {
                "start_time": 1.575,
                "end_time": 1.7886364,
                "pitch": 42,
                "velocity": 64,
                "duration": 0.2136364,
                "tempo": 120.0
            },
            {
                "start_time": 1.8045455,
                "end_time": 2.0227273,
                "pitch": 47,
                "velocity": 64,
                "duration": 0.2181818,
                "tempo": 120.0
            },
            {
                "start_time": 2.0386364,
                "end_time": 2.2568182,
                "pitch": 47,
                "velocity": 64,
                "duration": 0.2181818,
                "tempo": 120.0
            },
            {
                "start_time": 2.2727273,
                "end_time": 2.4909091,
                "pitch": 47,
                "velocity": 64,
                "duration": 0.2181818,
                "tempo": 120.0
            },
            {
                "start_time": 2.5090909,
                "end_time": 2.725,
                "pitch": 42,
                "velocity": 64,
                "duration": 0.2159091,
                "tempo": 120.0
            },
            {
                "start_time": 2.7431818,
                "end_time": 2.9545455,
                "pitch": 45,
                "velocity": 64,
                "duration": 0.2113636,
                "tempo": 120.0
            },
            {
                "start_time": 2.9727273,
                "end_time": 3.1840909,
                "pitch": 45,
                "velocity": 64,
                "duration": 0.2113636,
                "tempo": 120.0
            },
            {
                "start_time": 3.2,
                "end_time": 3.4181818,
                "pitch": 42,
                "velocity": 64,
                "duration": 0.2181818,
                "tempo": 120.0
            },
            {
                "start_time": 3.4363636,
                "end_time": 3.6522727,
                "pitch": 45,
                "velocity": 64,
                "duration": 0.2159091,
                "tempo": 120.0
            },
            {
                "start_time": 3.6704545,
                "end_time": 3.8886364,
                "pitch": 47,
                "velocity": 64,
                "duration": 0.2181818,
                "tempo": 120.0
            },
            {
                "start_time": 3.9045455,
                "end_time": 4.1227273,
                "pitch": 47,
                "velocity": 64,
                "duration": 0.2181818,
                "tempo": 120.0
            },
            {
                "start_time": 4.1386364,
                "end_time": 4.3522727,
                "pitch": 47,
                "velocity": 64,
                "duration": 0.2136364,
                "tempo": 120.0
            },
            {
                "start_time": 4.3681818,
                "end_time": 4.5795455,
                "pitch": 59,
                "velocity": 64,
                "duration": 0.2113636,
                "tempo": 120.0
            },
            {
                "start_time": 4.5977273,
                "end_time": 4.8136364,
                "pitch": 50,
                "velocity": 64,
                "duration": 0.2159091,
                "tempo": 120.0
            },
            {
                "start_time": 4.8318182,
                "end_time": 5.2840909,
                "pitch": 45,
                "velocity": 64,
                "duration": 0.4522727,
                "tempo": 120.0
            },
            {
                "start_time": 5.3,
                "end_time": 5.7477273,
                "pitch": 47,
                "velocity": 64,
                "duration": 0.4477273,
                "tempo": 120.0
            },
            {
                "start_time": 5.7636364,
                "end_time": 5.9772727,
                "pitch": 47,
                "velocity": 64,
                "duration": 0.2136364,
                "tempo": 120.0
            },
            {
                "start_time": 5.9931818,
                "end_time": 6.2113636,
                "pitch": 47,
                "velocity": 64,
                "duration": 0.2181818,
                "tempo": 120.0
            },
            {
                "start_time": 6.2272727,
                "end_time": 6.4454545,
                "pitch": 42,
                "velocity": 64,
                "duration": 0.2181818,
                "tempo": 120.0
            },
            {
                "start_time": 6.4613636,
                "end_time": 6.6795455,
                "pitch": 45,
                "velocity": 64,
                "duration": 0.2181818,
                "tempo": 120.0
            },
            {
                "start_time": 6.6977273,
                "end_time": 6.9136364,
                "pitch": 45,
                "velocity": 64,
                "duration": 0.2159091,
                "tempo": 120.0
            },
            {
                "start_time": 7.1590909,
                "end_time": 7.3727273,
                "pitch": 46,
                "velocity": 64,
                "duration": 0.2136364,
                "tempo": 120.0
            },
            {
                "start_time": 7.3886364,
                "end_time": 7.6068182,
                "pitch": 47,
                "velocity": 64,
                "duration": 0.2181818,
                "tempo": 120.0
            },
            {
                "start_time": 7.6227273,
                "end_time": 7.8409091,
                "pitch": 47,
                "velocity": 64,
                "duration": 0.2181818,
                "tempo": 120.0
            },
            {
                "start_time": 7.8590909,
                "end_time": 8.075,
                "pitch": 47,
                "velocity": 64,
                "duration": 0.2159091,
                "tempo": 120.0
            },
            {
                "start_time": 8.0931818,
                "end_time": 8.3113636,
                "pitch": 42,
                "velocity": 64,
                "duration": 0.2181818,
                "tempo": 120.0
            },
            {
                "start_time": 8.3272727,
                "end_time": 8.5409091,
                "pitch": 45,
                "velocity": 64,
                "duration": 0.2136364,
                "tempo": 120.0
            },
            {
                "start_time": 8.5568182,
                "end_time": 8.7681818,
                "pitch": 45,
                "velocity": 64,
                "duration": 0.2113636,
                "tempo": 120.0
            },
            {
                "start_time": 9.0204545,
                "end_time": 9.2386364,
                "pitch": 42,
                "velocity": 64,
                "duration": 0.2181818,
                "tempo": 120.0
            },
            {
                "start_time": 9.2545455,
                "end_time": 9.4727273,
                "pitch": 47,
                "velocity": 64,
                "duration": 0.2181818,
                "tempo": 120.0
            },
            {
                "start_time": 9.4886364,
                "end_time": 9.7068182,
                "pitch": 47,
                "velocity": 64,
                "duration": 0.2181818,
                "tempo": 120.0
            },
            {
                "start_time": 9.7227273,
                "end_time": 9.9363636,
                "pitch": 47,
                "velocity": 64,
                "duration": 0.2136364,
                "tempo": 120.0
            },
            {
                "start_time": 9.9522727,
                "end_time": 10.1659091,
                "pitch": 42,
                "velocity": 64,
                "duration": 0.2136364,
                "tempo": 120.0
            },
            {
                "start_time": 10.1818182,
                "end_time": 10.4,
                "pitch": 45,
                "velocity": 64,
                "duration": 0.2181818,
                "tempo": 120.0
            },
            {
                "start_time": 10.4159091,
                "end_time": 10.6340909,
                "pitch": 45,
                "velocity": 64,
                "duration": 0.2181818,
                "tempo": 120.0
            },
            {
                "start_time": 10.65,
                "end_time": 10.8681818,
                "pitch": 42,
                "velocity": 64,
                "duration": 0.2181818,
                "tempo": 120.0
            },
            {
                "start_time": 10.8840909,
                "end_time": 11.1022727,
                "pitch": 45,
                "velocity": 64,
                "duration": 0.2181818,
                "tempo": 120.0
            },
            {
                "start_time": 11.1204545,
                "end_time": 11.3318182,
                "pitch": 47,
                "velocity": 64,
                "duration": 0.2113636,
                "tempo": 120.0
            },
            {
                "start_time": 11.3477273,
                "end_time": 11.5613636,
                "pitch": 47,
                "velocity": 64,
                "duration": 0.2136364,
                "tempo": 120.0
            },
            {
                "start_time": 11.5772727,
                "end_time": 11.7954545,
                "pitch": 47,
                "velocity": 64,
                "duration": 0.2181818,
                "tempo": 120.0
            },
            {
                "start_time": 11.8113636,
                "end_time": 12.0295455,
                "pitch": 59,
                "velocity": 64,
                "duration": 0.2181818,
                "tempo": 120.0
            },
            {
                "start_time": 12.0477273,
                "end_time": 12.2636364,
                "pitch": 50,
                "velocity": 64,
                "duration": 0.2159091,
                "tempo": 120.0
            },
            {
                "start_time": 12.2818182,
                "end_time": 12.7295455,
                "pitch": 45,
                "velocity": 64,
                "duration": 0.4477273,
                "tempo": 120.0
            },
            {
                "start_time": 12.7454545,
                "end_time": 13.1909091,
                "pitch": 47,
                "velocity": 64,
                "duration": 0.4454545,
                "tempo": 120.0
            },
            {
                "start_time": 13.2090909,
                "end_time": 13.4272727,
                "pitch": 47,
                "velocity": 64,
                "duration": 0.2181818,
                "tempo": 120.0
            },
            {
                "start_time": 13.4431818,
                "end_time": 13.6613636,
                "pitch": 47,
                "velocity": 64,
                "duration": 0.2181818,
                "tempo": 120.0
            },
            {
                "start_time": 13.6772727,
                "end_time": 13.8954545,
                "pitch": 42,
                "velocity": 64,
                "duration": 0.2181818,
                "tempo": 120.0
            },
            {
                "start_time": 13.9113636,
                "end_time": 14.125,
                "pitch": 45,
                "velocity": 64,
                "duration": 0.2136364,
                "tempo": 120.0
            },
            {
                "start_time": 14.1409091,
                "end_time": 14.3545455,
                "pitch": 45,
                "velocity": 64,
                "duration": 0.2136364,
                "tempo": 120.0
            },
            {
                "start_time": 14.6045455,
                "end_time": 14.8227273,
                "pitch": 46,
                "velocity": 64,
                "duration": 0.2181818,
                "tempo": 120.0
            },
            {
                "start_time": 14.8386364,
                "end_time": 15.0613636,
                "pitch": 47,
                "velocity": 64,
                "duration": 0.2227273,
                "tempo": 120.0
            },
            {
                "start_time": 15.0795455,
                "end_time": 15.3022727,
                "pitch": 47,
                "velocity": 64,
                "duration": 0.2227273,
                "tempo": 120.0
            },
            {
                "start_time": 15.3181818,
                "end_time": 15.5272727,
                "pitch": 47,
                "velocity": 64,
                "duration": 0.2090909,
                "tempo": 120.0
            },
            {
                "start_time": 15.5431818,
                "end_time": 15.75,
                "pitch": 42,
                "velocity": 64,
                "duration": 0.2068182,
                "tempo": 120.0
            },
            {
                "start_time": 15.7659091,
                "end_time": 15.9840909,
                "pitch": 45,
                "velocity": 64,
                "duration": 0.2181818,
                "tempo": 120.0
            },
            {
                "start_time": 16.0022727,
                "end_time": 16.2181818,
                "pitch": 45,
                "velocity": 64,
                "duration": 0.2159091,
                "tempo": 120.0
            },
            {
                "start_time": 16.4636364,
                "end_time": 16.6772727,
                "pitch": 42,
                "velocity": 64,
                "duration": 0.2136364,
                "tempo": 120.0
            },
            {
                "start_time": 16.6931818,
                "end_time": 16.9113636,
                "pitch": 47,
                "velocity": 64,
                "duration": 0.2181818,
                "tempo": 120.0
            },
            {
                "start_time": 16.9295455,
                "end_time": 17.1454545,
                "pitch": 47,
                "velocity": 64,
                "duration": 0.2159091,
                "tempo": 120.0
            },
            {
                "start_time": 17.1636364,
                "end_time": 17.3818182,
                "pitch": 47,
                "velocity": 64,
                "duration": 0.2181818,
                "tempo": 120.0
            },
            {
                "start_time": 17.3977273,
                "end_time": 17.6159091,
                "pitch": 42,
                "velocity": 64,
                "duration": 0.2181818,
                "tempo": 120.0
            },
            {
                "start_time": 17.6318182,
                "end_time": 17.8454545,
                "pitch": 45,
                "velocity": 64,
                "duration": 0.2136364,
                "tempo": 120.0
            },
            {
                "start_time": 17.8613636,
                "end_time": 18.0727273,
                "pitch": 45,
                "velocity": 64,
                "duration": 0.2113636,
                "tempo": 120.0
            },
            {
                "start_time": 18.0909091,
                "end_time": 18.3068182,
                "pitch": 42,
                "velocity": 64,
                "duration": 0.2159091,
                "tempo": 120.0
            },
            {
                "start_time": 18.325,
                "end_time": 18.5431818,
                "pitch": 45,
                "velocity": 64,
                "duration": 0.2181818,
                "tempo": 120.0
            },
            {
                "start_time": 18.5590909,
                "end_time": 18.7772727,
                "pitch": 47,
                "velocity": 64,
                "duration": 0.2181818,
                "tempo": 120.0
            },
            {
                "start_time": 18.7931818,
                "end_time": 19.0113636,
                "pitch": 47,
                "velocity": 64,
                "duration": 0.2181818,
                "tempo": 120.0
            },
            {
                "start_time": 19.0272727,
                "end_time": 19.2409091,
                "pitch": 47,
                "velocity": 64,
                "duration": 0.2136364,
                "tempo": 120.0
            },
            {
                "start_time": 19.2568182,
                "end_time": 19.4704545,
                "pitch": 59,
                "velocity": 64,
                "duration": 0.2136364,
                "tempo": 120.0
            },
            {
                "start_time": 19.4863636,
                "end_time": 19.7045455,
                "pitch": 50,
                "velocity": 64,
                "duration": 0.2181818,
                "tempo": 120.0
            },
            {
                "start_time": 19.7204545,
                "end_time": 20.1727273,
                "pitch": 45,
                "velocity": 64,
                "duration": 0.4522727,
                "tempo": 120.0
            },
            {
                "start_time": 20.1909091,
                "end_time": 20.6363636,
                "pitch": 47,
                "velocity": 64,
                "duration": 0.4454545,
                "tempo": 120.0
            },
            {
                "start_time": 20.6522727,
                "end_time": 20.8659091,
                "pitch": 47,
                "velocity": 64,
                "duration": 0.2136364,
                "tempo": 120.0
            },
            {
                "start_time": 20.8818182,
                "end_time": 21.1,
                "pitch": 47,
                "velocity": 64,
                "duration": 0.2181818,
                "tempo": 120.0
            },
            {
                "start_time": 21.1159091,
                "end_time": 21.3340909,
                "pitch": 42,
                "velocity": 64,
                "duration": 0.2181818,
                "tempo": 120.0
            },
            {
                "start_time": 21.3522727,
                "end_time": 21.5681818,
                "pitch": 45,
                "velocity": 64,
                "duration": 0.2159091,
                "tempo": 120.0
            },
            {
                "start_time": 21.5863636,
                "end_time": 21.8045455,
                "pitch": 45,
                "velocity": 64,
                "duration": 0.2181818,
                "tempo": 120.0
            },
            {
                "start_time": 22.05,
                "end_time": 22.2613636,
                "pitch": 46,
                "velocity": 64,
                "duration": 0.2113636,
                "tempo": 120.0
            },
            {
                "start_time": 22.2795455,
                "end_time": 22.5045455,
                "pitch": 47,
                "velocity": 64,
                "duration": 0.225,
                "tempo": 120.0
            },
            {
                "start_time": 22.5204545,
                "end_time": 22.7477273,
                "pitch": 47,
                "velocity": 64,
                "duration": 0.2272727,
                "tempo": 120.0
            },
            {
                "start_time": 22.7659091,
                "end_time": 22.9727273,
                "pitch": 47,
                "velocity": 64,
                "duration": 0.2068182,
                "tempo": 120.0
            },
            {
                "start_time": 22.9886364,
                "end_time": 23.1977273,
                "pitch": 42,
                "velocity": 64,
                "duration": 0.2090909,
                "tempo": 120.0
            },
            {
                "start_time": 23.2136364,
                "end_time": 23.4272727,
                "pitch": 45,
                "velocity": 64,
                "duration": 0.2136364,
                "tempo": 120.0
            },
            {
                "start_time": 23.4431818,
                "end_time": 23.6545455,
                "pitch": 45,
                "velocity": 64,
                "duration": 0.2113636,
                "tempo": 120.0
            },
            {
                "start_time": 23.9159091,
                "end_time": 24.1409091,
                "pitch": 42,
                "velocity": 64,
                "duration": 0.225,
                "tempo": 120.0
            },
            {
                "start_time": 24.1590909,
                "end_time": 24.3659091,
                "pitch": 47,
                "velocity": 64,
                "duration": 0.2068182,
                "tempo": 120.0
            },
            {
                "start_time": 24.3840909,
                "end_time": 24.5909091,
                "pitch": 47,
                "velocity": 64,
                "duration": 0.2068182,
                "tempo": 120.0
            },
            {
                "start_time": 24.6068182,
                "end_time": 24.8204545,
                "pitch": 47,
                "velocity": 64,
                "duration": 0.2136364,
                "tempo": 120.0
            },
            {
                "start_time": 24.8363636,
                "end_time": 25.05,
                "pitch": 42,
                "velocity": 64,
                "duration": 0.2136364,
                "tempo": 120.0
            },
            {
                "start_time": 25.0659091,
                "end_time": 25.2840909,
                "pitch": 45,
                "velocity": 64,
                "duration": 0.2181818,
                "tempo": 120.0
            },
            {
                "start_time": 25.3,
                "end_time": 25.5181818,
                "pitch": 45,
                "velocity": 64,
                "duration": 0.2181818,
                "tempo": 120.0
            },
            {
                "start_time": 25.5340909,
                "end_time": 25.7522727,
                "pitch": 42,
                "velocity": 64,
                "duration": 0.2181818,
                "tempo": 120.0
            },
            {
                "start_time": 25.7681818,
                "end_time": 25.9863636,
                "pitch": 45,
                "velocity": 64,
                "duration": 0.2181818,
                "tempo": 120.0
            },
            {
                "start_time": 26.0022727,
                "end_time": 26.225,
                "pitch": 47,
                "velocity": 64,
                "duration": 0.2227273,
                "tempo": 120.0
            },
            {
                "start_time": 26.2431818,
                "end_time": 26.4659091,
                "pitch": 47,
                "velocity": 64,
                "duration": 0.2227273,
                "tempo": 120.0
            },
            {
                "start_time": 26.4840909,
                "end_time": 26.6909091,
                "pitch": 47,
                "velocity": 64,
                "duration": 0.2068182,
                "tempo": 120.0
            },
            {
                "start_time": 26.7068182,
                "end_time": 26.9159091,
                "pitch": 59,
                "velocity": 64,
                "duration": 0.2090909,
                "tempo": 120.0
            },
            {
                "start_time": 26.9318182,
                "end_time": 27.1477273,
                "pitch": 50,
                "velocity": 64,
                "duration": 0.2159091,
                "tempo": 120.0
            },
            {
                "start_time": 27.1659091,
                "end_time": 27.6136364,
                "pitch": 45,
                "velocity": 64,
                "duration": 0.4477273,
                "tempo": 120.0
            },
            {
                "start_time": 27.6295455,
                "end_time": 28.075,
                "pitch": 47,
                "velocity": 64,
                "duration": 0.4454545,
                "tempo": 120.0
            },
            {
                "start_time": 28.0931818,
                "end_time": 28.3113636,
                "pitch": 47,
                "velocity": 64,
                "duration": 0.2181818,
                "tempo": 120.0
            },
            {
                "start_time": 28.3272727,
                "end_time": 28.5454545,
                "pitch": 47,
                "velocity": 64,
                "duration": 0.2181818,
                "tempo": 120.0
            },
            {
                "start_time": 28.5613636,
                "end_time": 28.7795455,
                "pitch": 42,
                "velocity": 64,
                "duration": 0.2181818,
                "tempo": 120.0
            },
            {
                "start_time": 28.7954545,
                "end_time": 29.0090909,
                "pitch": 45,
                "velocity": 64,
                "duration": 0.2136364,
                "tempo": 120.0
            },
            {
                "start_time": 29.025,
                "end_time": 29.2386364,
                "pitch": 45,
                "velocity": 64,
                "duration": 0.2136364,
                "tempo": 120.0
            },
            {
                "start_time": 29.4886364,
                "end_time": 29.7068182,
                "pitch": 46,
                "velocity": 64,
                "duration": 0.2181818,
                "tempo": 120.0
            },
            {
                "start_time": 29.7227273,
                "end_time": 29.825,
                "pitch": 33,
                "velocity": 64,
                "duration": 0.1022727,
                "tempo": 120.0
            },
            {
                "start_time": 29.8431818,
                "end_time": 29.9454545,
                "pitch": 35,
                "velocity": 64,
                "duration": 0.1022727,
                "tempo": 120.0
            },
            {
                "start_time": 29.9636364,
                "end_time": 30.0659091,
                "pitch": 35,
                "velocity": 64,
                "duration": 0.1022727,
                "tempo": 120.0
            },
            {
                "start_time": 30.0840909,
                "end_time": 30.1863636,
                "pitch": 35,
                "velocity": 64,
                "duration": 0.1022727,
                "tempo": 120.0
            },
            {
                "start_time": 30.2045455,
                "end_time": 30.3022727,
                "pitch": 35,
                "velocity": 64,
                "duration": 0.0977273,
                "tempo": 120.0
            },
            {
                "start_time": 30.3181818,
                "end_time": 30.4159091,
                "pitch": 35,
                "velocity": 64,
                "duration": 0.0977273,
                "tempo": 120.0
            },
            {
                "start_time": 30.4318182,
                "end_time": 30.5318182,
                "pitch": 35,
                "velocity": 64,
                "duration": 0.1,
                "tempo": 120.0
            },
            {
                "start_time": 30.5477273,
                "end_time": 30.6454545,
                "pitch": 35,
                "velocity": 64,
                "duration": 0.0977273,
                "tempo": 120.0
            },
            {
                "start_time": 30.6613636,
                "end_time": 30.7590909,
                "pitch": 35,
                "velocity": 64,
                "duration": 0.0977273,
                "tempo": 120.0
            },
            {
                "start_time": 30.7772727,
                "end_time": 30.875,
                "pitch": 35,
                "velocity": 64,
                "duration": 0.0977273,
                "tempo": 120.0
            },
            {
                "start_time": 30.8909091,
                "end_time": 30.9886364,
                "pitch": 35,
                "velocity": 64,
                "duration": 0.0977273,
                "tempo": 120.0
            },
            {
                "start_time": 31.0045455,
                "end_time": 31.1045455,
                "pitch": 35,
                "velocity": 64,
                "duration": 0.1,
                "tempo": 120.0
            },
            {
                "start_time": 31.1204545,
                "end_time": 31.5886364,
                "pitch": 38,
                "velocity": 64,
                "duration": 0.4681818,
                "tempo": 120.0
            },
            {
                "start_time": 31.6068182,
                "end_time": 31.7068182,
                "pitch": 33,
                "velocity": 64,
                "duration": 0.1,
                "tempo": 120.0
            },
            {
                "start_time": 31.7227273,
                "end_time": 31.8204545,
                "pitch": 35,
                "velocity": 64,
                "duration": 0.0977273,
                "tempo": 120.0
            },
            {
                "start_time": 31.8363636,
                "end_time": 31.9340909,
                "pitch": 35,
                "velocity": 64,
                "duration": 0.0977273,
                "tempo": 120.0
            },
            {
                "start_time": 31.9522727,
                "end_time": 32.05,
                "pitch": 35,
                "velocity": 64,
                "duration": 0.0977273,
                "tempo": 120.0
            },
            {
                "start_time": 32.0659091,
                "end_time": 32.1613636,
                "pitch": 35,
                "velocity": 64,
                "duration": 0.0954545,
                "tempo": 120.0
            },
            {
                "start_time": 32.1772727,
                "end_time": 32.275,
                "pitch": 35,
                "velocity": 64,
                "duration": 0.0977273,
                "tempo": 120.0
            },
            {
                "start_time": 32.2909091,
                "end_time": 32.3863636,
                "pitch": 35,
                "velocity": 64,
                "duration": 0.0954545,
                "tempo": 120.0
            },
            {
                "start_time": 32.4022727,
                "end_time": 32.4977273,
                "pitch": 35,
                "velocity": 64,
                "duration": 0.0954545,
                "tempo": 120.0
            },
            {
                "start_time": 32.5136364,
                "end_time": 32.6136364,
                "pitch": 35,
                "velocity": 64,
                "duration": 0.1,
                "tempo": 120.0
            },
            {
                "start_time": 32.6318182,
                "end_time": 32.7318182,
                "pitch": 35,
                "velocity": 64,
                "duration": 0.1,
                "tempo": 120.0
            },
            {
                "start_time": 32.7477273,
                "end_time": 32.85,
                "pitch": 35,
                "velocity": 64,
                "duration": 0.1022727,
                "tempo": 120.0
            },
            {
                "start_time": 32.8659091,
                "end_time": 32.9659091,
                "pitch": 35,
                "velocity": 64,
                "duration": 0.1,
                "tempo": 120.0
            },
            {
                "start_time": 32.9818182,
                "end_time": 33.2045455,
                "pitch": 40,
                "velocity": 64,
                "duration": 0.2227273,
                "tempo": 120.0
            },
            {
                "start_time": 33.2227273,
                "end_time": 33.4454545,
                "pitch": 38,
                "velocity": 64,
                "duration": 0.2227273,
                "tempo": 120.0
            },
            {
                "start_time": 33.4636364,
                "end_time": 33.5636364,
                "pitch": 33,
                "velocity": 64,
                "duration": 0.1,
                "tempo": 120.0
            },
            {
                "start_time": 33.5795455,
                "end_time": 33.6818182,
                "pitch": 35,
                "velocity": 64,
                "duration": 0.1022727,
                "tempo": 120.0
            },
            {
                "start_time": 33.6977273,
                "end_time": 33.7977273,
                "pitch": 35,
                "velocity": 64,
                "duration": 0.1,
                "tempo": 120.0
            },
            {
                "start_time": 33.8159091,
                "end_time": 33.9159091,
                "pitch": 35,
                "velocity": 64,
                "duration": 0.1,
                "tempo": 120.0
            },
            {
                "start_time": 33.9318182,
                "end_time": 34.0272727,
                "pitch": 35,
                "velocity": 64,
                "duration": 0.0954545,
                "tempo": 120.0
            },
            {
                "start_time": 34.0454545,
                "end_time": 34.1409091,
                "pitch": 35,
                "velocity": 64,
                "duration": 0.0954545,
                "tempo": 120.0
            },
            {
                "start_time": 34.1568182,
                "end_time": 34.2522727,
                "pitch": 35,
                "velocity": 64,
                "duration": 0.0954545,
                "tempo": 120.0
            },
            {
                "start_time": 34.2681818,
                "end_time": 34.3636364,
                "pitch": 35,
                "velocity": 64,
                "duration": 0.0954545,
                "tempo": 120.0
            },
            {
                "start_time": 34.3795455,
                "end_time": 34.4795455,
                "pitch": 35,
                "velocity": 64,
                "duration": 0.1,
                "tempo": 120.0
            },
            {
                "start_time": 34.4977273,
                "end_time": 34.5977273,
                "pitch": 35,
                "velocity": 64,
                "duration": 0.1,
                "tempo": 120.0
            },
            {
                "start_time": 34.6136364,
                "end_time": 34.7159091,
                "pitch": 35,
                "velocity": 64,
                "duration": 0.1022727,
                "tempo": 120.0
            },
            {
                "start_time": 34.7318182,
                "end_time": 34.8318182,
                "pitch": 35,
                "velocity": 64,
                "duration": 0.1,
                "tempo": 120.0
            },
            {
                "start_time": 34.85,
                "end_time": 34.9477273,
                "pitch": 35,
                "velocity": 64,
                "duration": 0.0977273,
                "tempo": 120.0
            },
            {
                "start_time": 34.9636364,
                "end_time": 35.2909091,
                "pitch": 38,
                "velocity": 64,
                "duration": 0.3272727,
                "tempo": 120.0
            },
            {
                "start_time": 35.3068182,
                "end_time": 35.4068182,
                "pitch": 33,
                "velocity": 64,
                "duration": 0.1,
                "tempo": 120.0
            },
            {
                "start_time": 35.425,
                "end_time": 35.525,
                "pitch": 35,
                "velocity": 64,
                "duration": 0.1,
                "tempo": 120.0
            },
            {
                "start_time": 35.5409091,
                "end_time": 35.6431818,
                "pitch": 35,
                "velocity": 64,
                "duration": 0.1022727,
                "tempo": 120.0
            },
            {
                "start_time": 35.6590909,
                "end_time": 35.7590909,
                "pitch": 35,
                "velocity": 64,
                "duration": 0.1,
                "tempo": 120.0
            },
            {
                "start_time": 35.7772727,
                "end_time": 35.8772727,
                "pitch": 35,
                "velocity": 64,
                "duration": 0.1,
                "tempo": 120.0
            },
            {
                "start_time": 35.8931818,
                "end_time": 35.9931818,
                "pitch": 42,
                "velocity": 64,
                "duration": 0.1,
                "tempo": 120.0
            },
            {
                "start_time": 36.0113636,
                "end_time": 36.1113636,
                "pitch": 35,
                "velocity": 64,
                "duration": 0.1,
                "tempo": 120.0
            },
            {
                "start_time": 36.1272727,
                "end_time": 36.2295455,
                "pitch": 35,
                "velocity": 64,
                "duration": 0.1022727,
                "tempo": 120.0
            },
            {
                "start_time": 36.2454545,
                "end_time": 36.3477273,
                "pitch": 40,
                "velocity": 64,
                "duration": 0.1022727,
                "tempo": 120.0
            },
            {
                "start_time": 36.3636364,
                "end_time": 36.4659091,
                "pitch": 35,
                "velocity": 64,
                "duration": 0.1022727,
                "tempo": 120.0
            },
            {
                "start_time": 36.4840909,
                "end_time": 36.5863636,
                "pitch": 35,
                "velocity": 64,
                "duration": 0.1022727,
                "tempo": 120.0
            },
            {
                "start_time": 36.6022727,
                "end_time": 36.7045455,
                "pitch": 38,
                "velocity": 64,
                "duration": 0.1022727,
                "tempo": 120.0
            },
            {
                "start_time": 36.7204545,
                "end_time": 36.8181818,
                "pitch": 35,
                "velocity": 64,
                "duration": 0.0977273,
                "tempo": 120.0
            },
            {
                "start_time": 36.8340909,
                "end_time": 36.9295455,
                "pitch": 35,
                "velocity": 64,
                "duration": 0.0954545,
                "tempo": 120.0
            },
            {
                "start_time": 36.9454545,
                "end_time": 37.0409091,
                "pitch": 33,
                "velocity": 64,
                "duration": 0.0954545,
                "tempo": 120.0
            },
            {
                "start_time": 37.0568182,
                "end_time": 37.1522727,
                "pitch": 35,
                "velocity": 64,
                "duration": 0.0954545,
                "tempo": 120.0
            },
            {
                "start_time": 37.1704545,
                "end_time": 37.2704545,
                "pitch": 33,
                "velocity": 64,
                "duration": 0.1,
                "tempo": 120.0
            },
            {
                "start_time": 37.2886364,
                "end_time": 37.3909091,
                "pitch": 35,
                "velocity": 64,
                "duration": 0.1022727,
                "tempo": 120.0
            },
            {
                "start_time": 37.4068182,
                "end_time": 37.5090909,
                "pitch": 35,
                "velocity": 64,
                "duration": 0.1022727,
                "tempo": 120.0
            },
            {
                "start_time": 37.525,
                "end_time": 37.6272727,
                "pitch": 35,
                "velocity": 64,
                "duration": 0.1022727,
                "tempo": 120.0
            },
            {
                "start_time": 37.6454545,
                "end_time": 37.7409091,
                "pitch": 35,
                "velocity": 64,
                "duration": 0.0954545,
                "tempo": 120.0
            },
            {
                "start_time": 37.7568182,
                "end_time": 37.8522727,
                "pitch": 35,
                "velocity": 64,
                "duration": 0.0954545,
                "tempo": 120.0
            },
            {
                "start_time": 37.8681818,
                "end_time": 37.9659091,
                "pitch": 35,
                "velocity": 64,
                "duration": 0.0977273,
                "tempo": 120.0
            },
            {
                "start_time": 37.9818182,
                "end_time": 38.0772727,
                "pitch": 35,
                "velocity": 64,
                "duration": 0.0954545,
                "tempo": 120.0
            },
            {
                "start_time": 38.0931818,
                "end_time": 38.1931818,
                "pitch": 35,
                "velocity": 64,
                "duration": 0.1,
                "tempo": 120.0
            },
            {
                "start_time": 38.2090909,
                "end_time": 38.3113636,
                "pitch": 35,
                "velocity": 64,
                "duration": 0.1022727,
                "tempo": 120.0
            },
            {
                "start_time": 38.3272727,
                "end_time": 38.4272727,
                "pitch": 35,
                "velocity": 64,
                "duration": 0.1,
                "tempo": 120.0
            },
            {
                "start_time": 38.4454545,
                "end_time": 38.5454545,
                "pitch": 35,
                "velocity": 64,
                "duration": 0.1,
                "tempo": 120.0
            },
            {
                "start_time": 38.5613636,
                "end_time": 39.0136364,
                "pitch": 38,
                "velocity": 64,
                "duration": 0.4522727,
                "tempo": 120.0
            },
            {
                "start_time": 39.0318182,
                "end_time": 39.1340909,
                "pitch": 33,
                "velocity": 64,
                "duration": 0.1022727,
                "tempo": 120.0
            },
            {
                "start_time": 39.15,
                "end_time": 39.2545455,
                "pitch": 35,
                "velocity": 64,
                "duration": 0.1045455,
                "tempo": 120.0
            },
            {
                "start_time": 39.2704545,
                "end_time": 39.3727273,
                "pitch": 35,
                "velocity": 64,
                "duration": 0.1022727,
                "tempo": 120.0
            },
            {
                "start_time": 39.3909091,
                "end_time": 39.4931818,
                "pitch": 35,
                "velocity": 64,
                "duration": 0.1022727,
                "tempo": 120.0
            },
            {
                "start_time": 39.5113636,
                "end_time": 39.6068182,
                "pitch": 35,
                "velocity": 64,
                "duration": 0.0954545,
                "tempo": 120.0
            },
            {
                "start_time": 39.6227273,
                "end_time": 39.7181818,
                "pitch": 35,
                "velocity": 64,
                "duration": 0.0954545,
                "tempo": 120.0
            },
            {
                "start_time": 39.7340909,
                "end_time": 39.8295455,
                "pitch": 35,
                "velocity": 64,
                "duration": 0.0954545,
                "tempo": 120.0
            },
            {
                "start_time": 39.8477273,
                "end_time": 39.9431818,
                "pitch": 35,
                "velocity": 64,
                "duration": 0.0954545,
                "tempo": 120.0
            },
            {
                "start_time": 39.9590909,
                "end_time": 40.0590909,
                "pitch": 35,
                "velocity": 64,
                "duration": 0.1,
                "tempo": 120.0
            },
            {
                "start_time": 40.075,
                "end_time": 40.1772727,
                "pitch": 35,
                "velocity": 64,
                "duration": 0.1022727,
                "tempo": 120.0
            },
            {
                "start_time": 40.1931818,
                "end_time": 40.2931818,
                "pitch": 35,
                "velocity": 64,
                "duration": 0.1,
                "tempo": 120.0
            },
            {
                "start_time": 40.3113636,
                "end_time": 40.4113636,
                "pitch": 35,
                "velocity": 64,
                "duration": 0.1,
                "tempo": 120.0
            },
            {
                "start_time": 40.4272727,
                "end_time": 40.6409091,
                "pitch": 40,
                "velocity": 64,
                "duration": 0.2136364,
                "tempo": 120.0
            },
            {
                "start_time": 40.6568182,
                "end_time": 40.8681818,
                "pitch": 38,
                "velocity": 64,
                "duration": 0.2113636,
                "tempo": 120.0
            },
            {
                "start_time": 40.8863636,
                "end_time": 40.9886364,
                "pitch": 33,
                "velocity": 64,
                "duration": 0.1022727,
                "tempo": 120.0
            },
            {
                "start_time": 41.0068182,
                "end_time": 41.1113636,
                "pitch": 35,
                "velocity": 64,
                "duration": 0.1045455,
                "tempo": 120.0
            },
            {
                "start_time": 41.1295455,
                "end_time": 41.2340909,
                "pitch": 35,
                "velocity": 64,
                "duration": 0.1045455,
                "tempo": 120.0
            },
            {
                "start_time": 41.25,
                "end_time": 41.3545455,
                "pitch": 35,
                "velocity": 64,
                "duration": 0.1045455,
                "tempo": 120.0
            },
            {
                "start_time": 41.3727273,
                "end_time": 41.4681818,
                "pitch": 35,
                "velocity": 64,
                "duration": 0.0954545,
                "tempo": 120.0
            },
            {
                "start_time": 41.4840909,
                "end_time": 41.5818182,
                "pitch": 35,
                "velocity": 64,
                "duration": 0.0977273,
                "tempo": 120.0
            },
            {
                "start_time": 41.5977273,
                "end_time": 41.6931818,
                "pitch": 35,
                "velocity": 64,
                "duration": 0.0954545,
                "tempo": 120.0
            },
            {
                "start_time": 41.7090909,
                "end_time": 41.8045455,
                "pitch": 35,
                "velocity": 64,
                "duration": 0.0954545,
                "tempo": 120.0
            },
            {
                "start_time": 41.8204545,
                "end_time": 41.9181818,
                "pitch": 35,
                "velocity": 64,
                "duration": 0.0977273,
                "tempo": 120.0
            },
            {
                "start_time": 41.9363636,
                "end_time": 42.0340909,
                "pitch": 35,
                "velocity": 64,
                "duration": 0.0977273,
                "tempo": 120.0
            },
            {
                "start_time": 42.05,
                "end_time": 42.1477273,
                "pitch": 35,
                "velocity": 64,
                "duration": 0.0977273,
                "tempo": 120.0
            },
            {
                "start_time": 42.1636364,
                "end_time": 42.2636364,
                "pitch": 35,
                "velocity": 64,
                "duration": 0.1,
                "tempo": 120.0
            },
            {
                "start_time": 42.2795455,
                "end_time": 42.3795455,
                "pitch": 35,
                "velocity": 64,
                "duration": 0.1,
                "tempo": 120.0
            },
            {
                "start_time": 42.3954545,
                "end_time": 42.7318182,
                "pitch": 38,
                "velocity": 64,
                "duration": 0.3363636,
                "tempo": 120.0
            },
            {
                "start_time": 42.7477273,
                "end_time": 42.8477273,
                "pitch": 33,
                "velocity": 64,
                "duration": 0.1,
                "tempo": 120.0
            },
            {
                "start_time": 42.8659091,
                "end_time": 42.9659091,
                "pitch": 35,
                "velocity": 64,
                "duration": 0.1,
                "tempo": 120.0
            },
            {
                "start_time": 42.9818182,
                "end_time": 43.0840909,
                "pitch": 35,
                "velocity": 64,
                "duration": 0.1022727,
                "tempo": 120.0
            },
            {
                "start_time": 43.1,
                "end_time": 43.2,
                "pitch": 35,
                "velocity": 64,
                "duration": 0.1,
                "tempo": 120.0
            },
            {
                "start_time": 43.2159091,
                "end_time": 43.3159091,
                "pitch": 35,
                "velocity": 64,
                "duration": 0.1,
                "tempo": 120.0
            },
            {
                "start_time": 43.3318182,
                "end_time": 43.4295455,
                "pitch": 42,
                "velocity": 64,
                "duration": 0.0977273,
                "tempo": 120.0
            },
            {
                "start_time": 43.4454545,
                "end_time": 43.5431818,
                "pitch": 35,
                "velocity": 64,
                "duration": 0.0977273,
                "tempo": 120.0
            },
            {
                "start_time": 43.5613636,
                "end_time": 43.6590909,
                "pitch": 35,
                "velocity": 64,
                "duration": 0.0977273,
                "tempo": 120.0
            },
            {
                "start_time": 43.675,
                "end_time": 43.775,
                "pitch": 40,
                "velocity": 64,
                "duration": 0.1,
                "tempo": 120.0
            },
            {
                "start_time": 43.7931818,
                "end_time": 43.8931818,
                "pitch": 35,
                "velocity": 64,
                "duration": 0.1,
                "tempo": 120.0
            },
            {
                "start_time": 43.9090909,
                "end_time": 44.0090909,
                "pitch": 35,
                "velocity": 64,
                "duration": 0.1,
                "tempo": 120.0
            },
            {
                "start_time": 44.0272727,
                "end_time": 44.1272727,
                "pitch": 38,
                "velocity": 64,
                "duration": 0.1,
                "tempo": 120.0
            },
            {
                "start_time": 44.1431818,
                "end_time": 44.2454545,
                "pitch": 35,
                "velocity": 64,
                "duration": 0.1022727,
                "tempo": 120.0
            },
            {
                "start_time": 44.2613636,
                "end_time": 44.3613636,
                "pitch": 35,
                "velocity": 64,
                "duration": 0.1,
                "tempo": 120.0
            },
            {
                "start_time": 44.3795455,
                "end_time": 44.4795455,
                "pitch": 33,
                "velocity": 64,
                "duration": 0.1,
                "tempo": 120.0
            },
            {
                "start_time": 44.4954545,
                "end_time": 44.5954545,
                "pitch": 35,
                "velocity": 64,
                "duration": 0.1,
                "tempo": 120.0
            },
            {
                "start_time": 46.0068182,
                "end_time": 46.1068182,
                "pitch": 40,
                "velocity": 64,
                "duration": 0.1,
                "tempo": 120.0
            },
            {
                "start_time": 46.1227273,
                "end_time": 46.225,
                "pitch": 38,
                "velocity": 64,
                "duration": 0.1022727,
                "tempo": 120.0
            },
            {
                "start_time": 46.2409091,
                "end_time": 46.3409091,
                "pitch": 37,
                "velocity": 64,
                "duration": 0.1,
                "tempo": 120.0
            },
            {
                "start_time": 46.3590909,
                "end_time": 46.4590909,
                "pitch": 33,
                "velocity": 64,
                "duration": 0.1,
                "tempo": 120.0
            },
            {
                "start_time": 46.475,
                "end_time": 46.6931818,
                "pitch": 47,
                "velocity": 64,
                "duration": 0.2181818,
                "tempo": 120.0
            },
            {
                "start_time": 46.7090909,
                "end_time": 46.9272727,
                "pitch": 47,
                "velocity": 64,
                "duration": 0.2181818,
                "tempo": 120.0
            },
            {
                "start_time": 46.9431818,
                "end_time": 47.1568182,
                "pitch": 47,
                "velocity": 64,
                "duration": 0.2136364,
                "tempo": 120.0
            },
            {
                "start_time": 47.1727273,
                "end_time": 47.2886364,
                "pitch": 42,
                "velocity": 64,
                "duration": 0.1159091,
                "tempo": 120.0
            }
        ],
        "Violin": [
            {
                "start_time": 1.625,
                "end_time": 3.2340909,
                "pitch": 83,
                "velocity": 80,
                "duration": 1.6090909,
                "tempo": 120.0
            },
            {
                "start_time": 3.25,
                "end_time": 3.4681818,
                "pitch": 81,
                "velocity": 80,
                "duration": 0.2181818,
                "tempo": 120.0
            },
            {
                "start_time": 3.4863636,
                "end_time": 5.3340909,
                "pitch": 78,
                "velocity": 80,
                "duration": 1.8477273,
                "tempo": 120.0
            },
            {
                "start_time": 5.35,
                "end_time": 6.9636364,
                "pitch": 83,
                "velocity": 80,
                "duration": 1.6136364,
                "tempo": 120.0
            },
            {
                "start_time": 6.9795455,
                "end_time": 7.1931818,
                "pitch": 81,
                "velocity": 80,
                "duration": 0.2136364,
                "tempo": 120.0
            },
            {
                "start_time": 7.2090909,
                "end_time": 9.0545455,
                "pitch": 78,
                "velocity": 80,
                "duration": 1.8454545,
                "tempo": 120.0
            },
            {
                "start_time": 9.0704545,
                "end_time": 10.6840909,
                "pitch": 83,
                "velocity": 80,
                "duration": 1.6136364,
                "tempo": 120.0
            },
            {
                "start_time": 10.7,
                "end_time": 10.9181818,
                "pitch": 81,
                "velocity": 80,
                "duration": 0.2181818,
                "tempo": 120.0
            },
            {
                "start_time": 10.9363636,
                "end_time": 11.6113636,
                "pitch": 78,
                "velocity": 80,
                "duration": 0.675,
                "tempo": 120.0
            },
            {
                "start_time": 11.6272727,
                "end_time": 12.5477273,
                "pitch": 79,
                "velocity": 80,
                "duration": 0.9204545,
                "tempo": 120.0
            },
            {
                "start_time": 12.5659091,
                "end_time": 12.7772727,
                "pitch": 81,
                "velocity": 80,
                "duration": 0.2113636,
                "tempo": 120.0
            },
            {
                "start_time": 12.7931818,
                "end_time": 14.8727273,
                "pitch": 83,
                "velocity": 80,
                "duration": 2.0795455,
                "tempo": 120.0
            },
            {
                "start_time": 19.0772727,
                "end_time": 20.4568182,
                "pitch": 71,
                "velocity": 80,
                "duration": 1.3795455,
                "tempo": 120.0
            },
            {
                "start_time": 20.7022727,
                "end_time": 20.8,
                "pitch": 71,
                "velocity": 80,
                "duration": 0.0977273,
                "tempo": 120.0
            },
            {
                "start_time": 22.8136364,
                "end_time": 23.2454545,
                "pitch": 71,
                "velocity": 80,
                "duration": 0.4318182,
                "tempo": 120.0
            },
            {
                "start_time": 23.4909091,
                "end_time": 23.7068182,
                "pitch": 74,
                "velocity": 80,
                "duration": 0.2159091,
                "tempo": 120.0
            },
            {
                "start_time": 23.7227273,
                "end_time": 23.8272727,
                "pitch": 71,
                "velocity": 80,
                "duration": 0.1045455,
                "tempo": 120.0
            },
            {
                "start_time": 24.4318182,
                "end_time": 24.5272727,
                "pitch": 71,
                "velocity": 80,
                "duration": 0.0954545,
                "tempo": 120.0
            },
            {
                "start_time": 26.5318182,
                "end_time": 26.9636364,
                "pitch": 71,
                "velocity": 80,
                "duration": 0.4318182,
                "tempo": 120.0
            },
            {
                "start_time": 27.2159091,
                "end_time": 27.4318182,
                "pitch": 74,
                "velocity": 80,
                "duration": 0.2159091,
                "tempo": 120.0
            },
            {
                "start_time": 27.45,
                "end_time": 27.5477273,
                "pitch": 71,
                "velocity": 80,
                "duration": 0.0977273,
                "tempo": 120.0
            },
            {
                "start_time": 28.1431818,
                "end_time": 28.2431818,
                "pitch": 71,
                "velocity": 80,
                "duration": 0.1,
                "tempo": 120.0
            },
            {
                "start_time": 29.775,
                "end_time": 31.1545455,
                "pitch": 71,
                "velocity": 80,
                "duration": 1.3795455,
                "tempo": 120.0
            },
            {
                "start_time": 31.1704545,
                "end_time": 31.6409091,
                "pitch": 74,
                "velocity": 80,
                "duration": 0.4704545,
                "tempo": 120.0
            },
            {
                "start_time": 31.6568182,
                "end_time": 33.0159091,
                "pitch": 71,
                "velocity": 80,
                "duration": 1.3590909,
                "tempo": 120.0
            },
            {
                "start_time": 33.0340909,
                "end_time": 33.2568182,
                "pitch": 76,
                "velocity": 80,
                "duration": 0.2227273,
                "tempo": 120.0
            },
            {
                "start_time": 33.275,
                "end_time": 33.4977273,
                "pitch": 74,
                "velocity": 80,
                "duration": 0.2227273,
                "tempo": 120.0
            },
            {
                "start_time": 33.5136364,
                "end_time": 34.9954545,
                "pitch": 71,
                "velocity": 80,
                "duration": 1.4818182,
                "tempo": 120.0
            },
            {
                "start_time": 35.0136364,
                "end_time": 35.3409091,
                "pitch": 74,
                "velocity": 80,
                "duration": 0.3272727,
                "tempo": 120.0
            },
            {
                "start_time": 35.3568182,
                "end_time": 35.9272727,
                "pitch": 71,
                "velocity": 80,
                "duration": 0.5704545,
                "tempo": 120.0
            },
            {
                "start_time": 35.9431818,
                "end_time": 36.0431818,
                "pitch": 78,
                "velocity": 80,
                "duration": 0.1,
                "tempo": 120.0
            },
            {
                "start_time": 36.2954545,
                "end_time": 36.3977273,
                "pitch": 76,
                "velocity": 80,
                "duration": 0.1022727,
                "tempo": 120.0
            },
            {
                "start_time": 36.6545455,
                "end_time": 36.7545455,
                "pitch": 74,
                "velocity": 80,
                "duration": 0.1,
                "tempo": 120.0
            },
            {
                "start_time": 36.9931818,
                "end_time": 37.0886364,
                "pitch": 69,
                "velocity": 80,
                "duration": 0.0954545,
                "tempo": 120.0
            },
            {
                "start_time": 37.1045455,
                "end_time": 37.2022727,
                "pitch": 71,
                "velocity": 80,
                "duration": 0.0977273,
                "tempo": 120.0
            },
            {
                "start_time": 37.2204545,
                "end_time": 38.5954545,
                "pitch": 71,
                "velocity": 80,
                "duration": 1.375,
                "tempo": 120.0
            },
            {
                "start_time": 38.6113636,
                "end_time": 39.0636364,
                "pitch": 74,
                "velocity": 80,
                "duration": 0.4522727,
                "tempo": 120.0
            },
            {
                "start_time": 39.0818182,
                "end_time": 40.4590909,
                "pitch": 71,
                "velocity": 80,
                "duration": 1.3772727,
                "tempo": 120.0
            },
            {
                "start_time": 40.4772727,
                "end_time": 40.6886364,
                "pitch": 76,
                "velocity": 80,
                "duration": 0.2113636,
                "tempo": 120.0
            },
            {
                "start_time": 40.7045455,
                "end_time": 40.9181818,
                "pitch": 74,
                "velocity": 80,
                "duration": 0.2136364,
                "tempo": 120.0
            },
            {
                "start_time": 40.9363636,
                "end_time": 42.4295455,
                "pitch": 71,
                "velocity": 80,
                "duration": 1.4931818,
                "tempo": 120.0
            },
            {
                "start_time": 42.4454545,
                "end_time": 42.7818182,
                "pitch": 74,
                "velocity": 80,
                "duration": 0.3363636,
                "tempo": 120.0
            },
            {
                "start_time": 42.7977273,
                "end_time": 43.3636364,
                "pitch": 71,
                "velocity": 80,
                "duration": 0.5659091,
                "tempo": 120.0
            },
            {
                "start_time": 43.3795455,
                "end_time": 43.4795455,
                "pitch": 78,
                "velocity": 80,
                "duration": 0.1,
                "tempo": 120.0
            },
            {
                "start_time": 43.725,
                "end_time": 43.825,
                "pitch": 76,
                "velocity": 80,
                "duration": 0.1,
                "tempo": 120.0
            },
            {
                "start_time": 44.0772727,
                "end_time": 44.1772727,
                "pitch": 74,
                "velocity": 80,
                "duration": 0.1,
                "tempo": 120.0
            },
            {
                "start_time": 44.4295455,
                "end_time": 44.5295455,
                "pitch": 69,
                "velocity": 80,
                "duration": 0.1,
                "tempo": 120.0
            },
            {
                "start_time": 44.5454545,
                "end_time": 44.6477273,
                "pitch": 71,
                "velocity": 80,
                "duration": 0.1022727,
                "tempo": 120.0
            }
        ]
    }
}