{
    "mood": "happy",
    "instruments": {
        "Trumpet": [
            {
                "start_time": 11.2636364,
                "end_time": 12.0318182,
                "pitch": 68,
                "velocity": 40,
                "duration": 0.7681818,
                "tempo": 120.0
            },
            {
                "start_time": 12.0477273,
                "end_time": 12.8340909,
                "pitch": 68,
                "velocity": 40,
                "duration": 0.7863636,
                "tempo": 120.0
            },
            {
                "start_time": 12.85,
                "end_time": 14.4590909,
                "pitch": 75,
                "velocity": 40,
                "duration": 1.6090909,
                "tempo": 120.0
            },
            {
                "start_time": 49.7727273,
                "end_time": 50.5409091,
                "pitch": 68,
                "velocity": 40,
                "duration": 0.7681818,
                "tempo": 120.0
            },
            {
                "start_time": 50.5568182,
                "end_time": 51.3431818,
                "pitch": 68,
                "velocity": 40,
                "duration": 0.7863636,
                "tempo": 120.0
            },
            {
                "start_time": 51.3590909,
                "end_time": 52.9681818,
                "pitch": 75,
                "velocity": 40,
                "duration": 1.6090909,
                "tempo": 120.0
            }
        ],
        "Electric Guitar (clean)": [
            {
                "start_time": 0.2,
                "end_time": 0.3840909,
                "pitch": 39,
                "velocity": 51,
                "duration": 0.1840909,
                "tempo": 120.0
            },
            {
                "start_time": 0.4,
                "end_time": 0.5840909,
                "pitch": 42,
                "velocity": 51,
                "duration": 0.1840909,
                "tempo": 120.0
            },
            {
                "start_time": 0.6022727,
                "end_time": 0.7863636,
                "pitch": 43,
                "velocity": 51,
                "duration": 0.1840909,
                "tempo": 120.0
            },
            {
                "start_time": 0.8022727,
                "end_time": 0.9863636,
                "pitch": 44,
                "velocity": 51,
                "duration": 0.1840909,
                "tempo": 120.0
            },
            {
                "start_time": 1.0022727,
                "end_time": 1.1863636,
                "pitch": 42,
                "velocity": 51,
                "duration": 0.1840909,
                "tempo": 120.0
            },
            {
                "start_time": 1.2022727,
                "end_time": 1.3954545,
                "pitch": 39,
                "velocity": 51,
                "duration": 0.1931818,
                "tempo": 120.0
            },
            {
                "start_time": 1.4136364,
                "end_time": 1.6068182,
                "pitch": 34,
                "velocity": 51,
                "duration": 0.1931818,
                "tempo": 120.0
            },
            {
                "start_time": 1.625,
                "end_time": 2.0,
                "pitch": 32,
                "velocity": 51,
                "duration": 0.375,
                "tempo": 120.0
            },
            {
                "start_time": 2.0159091,
                "end_time": 2.2045455,
                "pitch": 35,
                "velocity": 51,
                "duration": 0.1886364,
                "tempo": 120.0
            },
            {
                "start_time": 2.2204545,
                "end_time": 2.4090909,
                "pitch": 32,
                "velocity": 51,
                "duration": 0.1886364,
                "tempo": 120.0
            },
            {
                "start_time": 2.4272727,
                "end_time": 2.6113636,
                "pitch": 35,
                "velocity": 51,
                "duration": 0.1840909,
                "tempo": 120.0
            },
            {
                "start_time": 2.6272727,
                "end_time": 2.8113636,
                "pitch": 39,
                "velocity": 51,
                "duration": 0.1840909,
                "tempo": 120.0
            },
            {
                "start_time": 2.8272727,
                "end_time": 3.0113636,
                "pitch": 32,
                "velocity": 51,
                "duration": 0.1840909,
                "tempo": 120.0
            },
            {
                "start_time": 3.0272727,
                "end_time": 3.2113636,
                "pitch": 30,
                "velocity": 51,
                "duration": 0.1840909,
                "tempo": 120.0
            },
            {
                "start_time": 3.2272727,
                "end_time": 3.6045455,
                "pitch": 32,
                "velocity": 51,
                "duration": 0.3772727,
                "tempo": 120.0
            },
            {
                "start_time": 3.6204545,
                "end_time": 3.8068182,
                "pitch": 35,
                "velocity": 51,
                "duration": 0.1863636,
                "tempo": 120.0
            },
            {
                "start_time": 3.825,
                "end_time": 4.0136364,
                "pitch": 32,
                "velocity": 51,
                "duration": 0.1886364,
                "tempo": 120.0
            },
            {
                "start_time": 4.0295455,
                "end_time": 4.2136364,
                "pitch": 35,
                "velocity": 51,
                "duration": 0.1840909,
                "tempo": 120.0
            },
            {
                "start_time": 4.2295455,
                "end_time": 4.4136364,
                "pitch": 39,
                "velocity": 51,
                "duration": 0.1840909,
                "tempo": 120.0
            },
            {
                "start_time": 4.4295455,
                "end_time": 4.6159091,
                "pitch": 30,
                "velocity": 51,
                "duration": 0.1863636,
                "tempo": 120.0
            },
            {
                "start_time": 4.6318182,
                "end_time": 4.8159091,
                "pitch": 31,
                "velocity": 51,
                "duration": 0.1840909,
                "tempo": 120.0
            },
            {
                "start_time": 4.8340909,
                "end_time": 5.6181818,
                "pitch": 32,
                "velocity": 51,
                "duration": 0.7840909,
                "tempo": 120.0
            },
            {
                "start_time": 5.6363636,
                "end_time": 6.4227273,
                "pitch": 32,
                "velocity": 51,
                "duration": 0.7863636,
                "tempo": 120.0
            },
            {
                "start_time": 6.4386364,
                "end_time": 6.825,
                "pitch": 32,
                "velocity": 51,
                "duration": 0.3863636,
                "tempo": 120.0
            },
            {
                "start_time": 6.8409091,
                "end_time": 7.025,
                "pitch": 35,
                "velocity": 51,
                "duration": 0.1840909,
                "tempo": 120.0
            },
            {
                "start_time": 7.0431818,
                "end_time": 7.2272727,
                "pitch": 34,
                "velocity": 51,
                "duration": 0.1840909,
                "tempo": 120.0
            },
            {
                "start_time": 7.2431818,
                "end_time": 7.4272727,
                "pitch": 32,
                "velocity": 51,
                "duration": 0.1840909,
                "tempo": 120.0
            },
            {
                "start_time": 7.4431818,
                "end_time": 7.6272727,
                "pitch": 39,
                "velocity": 51,
                "duration": 0.1840909,
                "tempo": 120.0
            },
            {
                "start_time": 7.6431818,
                "end_time": 7.8272727,
                "pitch": 30,
                "velocity": 51,
                "duration": 0.1840909,
                "tempo": 120.0
            },
            {
                "start_time": 7.8454545,
                "end_time": 8.0295455,
                "pitch": 31,
                "velocity": 51,
                "duration": 0.1840909,
                "tempo": 120.0
            },
            {
                "start_time": 8.0454545,
                "end_time": 8.4227273,
                "pitch": 32,
                "velocity": 51,
                "duration": 0.3772727,
                "tempo": 120.0
            },
            {
                "start_time": 8.4386364,
                "end_time": 8.6272727,
                "pitch": 35,
                "velocity": 51,
                "duration": 0.1886364,
                "tempo": 120.0
            },
            {
                "start_time": 8.6431818,
                "end_time": 8.8318182,
                "pitch": 32,
                "velocity": 51,
                "duration": 0.1886364,
                "tempo": 120.0
            },
            {
                "start_time": 8.85,
                "end_time": 9.0340909,
                "pitch": 35,
                "velocity": 51,
                "duration": 0.1840909,
                "tempo": 120.0
            },
            {
                "start_time": 9.05,
                "end_time": 9.2363636,
                "pitch": 39,
                "velocity": 51,
                "duration": 0.1863636,
                "tempo": 120.0
            },
            {
                "start_time": 9.2522727,
                "end_time": 9.4363636,
                "pitch": 32,
                "velocity": 51,
                "duration": 0.1840909,
                "tempo": 120.0
            },
            {
                "start_time": 9.4522727,
                "end_time": 9.6386364,
                "pitch": 30,
                "velocity": 51,
                "duration": 0.1863636,
                "tempo": 120.0
            },
            {
                "start_time": 9.6545455,
                "end_time": 10.0318182,
                "pitch": 32,
                "velocity": 51,
                "duration": 0.3772727,
                "tempo": 120.0
            },
            {
                "start_time": 10.0477273,
                "end_time": 10.2340909,
                "pitch": 35,
                "velocity": 51,
                "duration": 0.1863636,
                "tempo": 120.0
            },
            {
                "start_time": 10.2522727,
                "end_time": 10.4409091,
                "pitch": 32,
                "velocity": 51,
                "duration": 0.1886364,
                "tempo": 120.0
            },
            {
                "start_time": 10.4568182,
                "end_time": 10.6431818,
                "pitch": 35,
                "velocity": 51,
                "duration": 0.1863636,
                "tempo": 120.0
            },
            {
                "start_time": 10.6590909,
                "end_time": 10.8431818,
                "pitch": 39,
                "velocity": 51,
                "duration": 0.1840909,
                "tempo": 120.0
            },
            {
                "start_time": 10.8613636,
                "end_time": 11.0454545,
                "pitch": 30,
                "velocity": 51,
                "duration": 0.1840909,
                "tempo": 120.0
            },
            {
                "start_time": 11.0613636,
                "end_time": 11.2454545,
                "pitch": 31,
                "velocity": 51,
                "duration": 0.1840909,
                "tempo": 120.0
            },
            {
                "start_time": 11.2636364,
                "end_time": 12.0318182,
                "pitch": 32,
                "velocity": 51,
                "duration": 0.7681818,
                "tempo": 120.0
            },
            {
                "start_time": 12.0477273,
                "end_time": 12.8340909,
                "pitch": 32,
                "velocity": 51,
                "duration": 0.7863636,
                "tempo": 120.0
            },
            {
                "start_time": 12.85,
                "end_time": 13.2431818,
                "pitch": 32,
                "velocity": 51,
                "duration": 0.3931818,
                "tempo": 120.0
            },
            {
                "start_time": 13.2613636,
                "end_time": 13.45,
                "pitch": 35,
                "velocity": 51,
                "duration": 0.1886364,
                "tempo": 120.0
            },
            {
                "start_time": 13.4659091,
                "end_time": 13.6545455,
                "pitch": 34,
                "velocity": 51,
                "duration": 0.1886364,
                "tempo": 120.0
            },
            {
                "start_time": 13.6727273,
                "end_time": 13.8568182,
                "pitch": 32,
                "velocity": 51,
                "duration": 0.1840909,
                "tempo": 120.0
            },
            {
                "start_time": 13.8727273,
                "end_time": 14.0568182,
                "pitch": 39,
                "velocity": 51,
                "duration": 0.1840909,
                "tempo": 120.0
            },
            {
                "start_time": 14.0727273,
                "end_time": 14.2568182,
                "pitch": 30,
                "velocity": 51,
                "duration": 0.1840909,
                "tempo": 120.0
            },
            {
                "start_time": 14.2727273,
                "end_time": 14.4590909,
                "pitch": 31,
                "velocity": 51,
                "duration": 0.1863636,
                "tempo": 120.0
            },
            {
                "start_time": 14.475,
                "end_time": 14.6590909,
                "pitch": 40,
                "velocity": 51,
                "duration": 0.1840909,
                "tempo": 120.0
            },
            {
                "start_time": 14.8772727,
                "end_time": 15.0568182,
                "pitch": 40,
                "velocity": 51,
                "duration": 0.1795455,
                "tempo": 120.0
            },
            {
                "start_time": 15.075,
                "end_time": 15.2545455,
                "pitch": 40,
                "velocity": 51,
                "duration": 0.1795455,
                "tempo": 120.0
            },
            {
                "start_time": 15.475,
                "end_time": 15.6636364,
                "pitch": 40,
                "velocity": 51,
                "duration": 0.1886364,
                "tempo": 120.0
            },
            {
                "start_time": 15.6795455,
                "end_time": 15.8636364,
                "pitch": 42,
                "velocity": 51,
                "duration": 0.1840909,
                "tempo": 120.0
            },
            {
                "start_time": 15.8795455,
                "end_time": 16.0636364,
                "pitch": 44,
                "velocity": 51,
                "duration": 0.1840909,
                "tempo": 120.0
            },
            {
                "start_time": 16.0795455,
                "end_time": 16.2613636,
                "pitch": 40,
                "velocity": 51,
                "duration": 0.1818182,
                "tempo": 120.0
            },
            {
                "start_time": 16.4727273,
                "end_time": 16.6568182,
                "pitch": 40,
                "velocity": 51,
                "duration": 0.1840909,
                "tempo": 120.0
            },
            {
                "start_time": 16.6727273,
                "end_time": 16.8568182,
                "pitch": 40,
                "velocity": 51,
                "duration": 0.1840909,
                "tempo": 120.0
            },
            {
                "start_time": 17.0727273,
                "end_time": 17.2568182,
                "pitch": 40,
                "velocity": 51,
                "duration": 0.1840909,
                "tempo": 120.0
            },
            {
                "start_time": 17.2727273,
                "end_time": 17.4613636,
                "pitch": 39,
                "velocity": 51,
                "duration": 0.1886364,
                "tempo": 120.0
            },
            {
                "start_time": 17.4772727,
                "end_time": 17.6659091,
                "pitch": 37,
                "velocity": 51,
                "duration": 0.1886364,
                "tempo": 120.0
            },
            {
                "start_time": 17.6840909,
                "end_time": 18.2704545,
                "pitch": 32,
                "velocity": 51,
                "duration": 0.5863636,
                "tempo": 120.0
            },
            {
                "start_time": 18.2863636,
                "end_time": 18.4704545,
                "pitch": 32,
                "velocity": 51,
                "duration": 0.1840909,
                "tempo": 120.0
            },
            {
                "start_time": 18.6818182,
                "end_time": 18.8613636,
                "pitch": 32,
                "velocity": 51,
                "duration": 0.1795455,
                "tempo": 120.0
            },
            {
                "start_time": 18.8795455,
                "end_time": 19.0659091,
                "pitch": 35,
                "velocity": 51,
                "duration": 0.1863636,
                "tempo": 120.0
            },
            {
                "start_time": 19.0840909,
                "end_time": 19.2727273,
                "pitch": 39,
                "velocity": 51,
                "duration": 0.1886364,
                "tempo": 120.0
            },
            {
                "start_time": 19.2886364,
                "end_time": 19.4681818,
                "pitch": 32,
                "velocity": 51,
                "duration": 0.1795455,
                "tempo": 120.0
            },
            {
                "start_time": 19.6818182,
                "end_time": 19.8636364,
                "pitch": 32,
                "velocity": 51,
                "duration": 0.1818182,
                "tempo": 120.0
            },
            {
                "start_time": 19.8818182,
                "end_time": 20.0636364,
                "pitch": 32,
                "velocity": 51,
                "duration": 0.1818182,
                "tempo": 120.0
            },
            {
                "start_time": 20.2818182,
                "end_time": 20.4681818,
                "pitch": 35,
                "velocity": 51,
                "duration": 0.1863636,
                "tempo": 120.0
            },
            {
                "start_time": 20.4840909,
                "end_time": 20.6727273,
                "pitch": 42,
                "velocity": 51,
                "duration": 0.1886364,
                "tempo": 120.0
            },
            {
                "start_time": 20.6886364,
                "end_time": 20.8772727,
                "pitch": 41,
                "velocity": 51,
                "duration": 0.1886364,
                "tempo": 120.0
            },
            {
                "start_time": 20.8954545,
                "end_time": 21.075,
                "pitch": 40,
                "velocity": 51,
                "duration": 0.1795455,
                "tempo": 120.0
            },
            {
                "start_time": 21.2863636,
                "end_time": 21.4704545,
                "pitch": 40,
                "velocity": 51,
                "duration": 0.1840909,
                "tempo": 120.0
            },
            {
                "start_time": 21.4886364,
                "end_time": 21.6727273,
                "pitch": 40,
                "velocity": 51,
                "duration": 0.1840909,
                "tempo": 120.0
            },
            {
                "start_time": 21.8886364,
                "end_time": 22.0727273,
                "pitch": 40,
                "velocity": 51,
                "duration": 0.1840909,
                "tempo": 120.0
            },
            {
                "start_time": 22.0886364,
                "end_time": 22.2772727,
                "pitch": 42,
                "velocity": 51,
                "duration": 0.1886364,
                "tempo": 120.0
            },
            {
                "start_time": 22.2954545,
                "end_time": 22.4818182,
                "pitch": 44,
                "velocity": 51,
                "duration": 0.1863636,
                "tempo": 120.0
            },
            {
                "start_time": 22.5,
                "end_time": 22.6795455,
                "pitch": 40,
                "velocity": 51,
                "duration": 0.1795455,
                "tempo": 120.0
            },
            {
                "start_time": 22.8931818,
                "end_time": 23.075,
                "pitch": 40,
                "velocity": 51,
                "duration": 0.1818182,
                "tempo": 120.0
            },
            {
                "start_time": 23.0931818,
                "end_time": 23.275,
                "pitch": 40,
                "velocity": 51,
                "duration": 0.1818182,
                "tempo": 120.0
            },
            {
                "start_time": 23.4931818,
                "end_time": 23.6772727,
                "pitch": 40,
                "velocity": 51,
                "duration": 0.1840909,
                "tempo": 120.0
            },
            {
                "start_time": 23.6954545,
                "end_time": 23.8772727,
                "pitch": 39,
                "velocity": 51,
                "duration": 0.1818182,
                "tempo": 120.0
            },
            {
                "start_time": 23.8954545,
                "end_time": 24.0772727,
                "pitch": 37,
                "velocity": 51,
                "duration": 0.1818182,
                "tempo": 120.0
            },
            {
                "start_time": 24.0954545,
                "end_time": 24.2818182,
                "pitch": 32,
                "velocity": 51,
                "duration": 0.1863636,
                "tempo": 120.0
            },
            {
                "start_time": 24.3,
                "end_time": 24.4886364,
                "pitch": 32,
                "velocity": 51,
                "duration": 0.1886364,
                "tempo": 120.0
            },
            {
                "start_time": 24.6954545,
                "end_time": 24.8727273,
                "pitch": 32,
                "velocity": 51,
                "duration": 0.1772727,
                "tempo": 120.0
            },
            {
                "start_time": 25.0886364,
                "end_time": 25.2727273,
                "pitch": 37,
                "velocity": 51,
                "duration": 0.1840909,
                "tempo": 120.0
            },
            {
                "start_time": 25.2909091,
                "end_time": 25.4727273,
                "pitch": 37,
                "velocity": 51,
                "duration": 0.1818182,
                "tempo": 120.0
            },
            {
                "start_time": 25.4909091,
                "end_time": 25.6727273,
                "pitch": 37,
                "velocity": 51,
                "duration": 0.1818182,
                "tempo": 120.0
            },
            {
                "start_time": 25.6909091,
                "end_time": 25.8818182,
                "pitch": 39,
                "velocity": 51,
                "duration": 0.1909091,
                "tempo": 120.0
            },
            {
                "start_time": 25.9,
                "end_time": 26.0931818,
                "pitch": 39,
                "velocity": 51,
                "duration": 0.1931818,
                "tempo": 120.0
            },
            {
                "start_time": 26.1113636,
                "end_time": 26.2863636,
                "pitch": 39,
                "velocity": 51,
                "duration": 0.175,
                "tempo": 120.0
            },
            {
                "start_time": 26.3022727,
                "end_time": 26.4772727,
                "pitch": 39,
                "velocity": 51,
                "duration": 0.175,
                "tempo": 120.0
            },
            {
                "start_time": 26.6931818,
                "end_time": 26.8772727,
                "pitch": 39,
                "velocity": 51,
                "duration": 0.1840909,
                "tempo": 120.0
            },
            {
                "start_time": 26.8931818,
                "end_time": 27.0818182,
                "pitch": 42,
                "velocity": 51,
                "duration": 0.1886364,
                "tempo": 120.0
            },
            {
                "start_time": 27.1,
                "end_time": 27.2863636,
                "pitch": 43,
                "velocity": 51,
                "duration": 0.1863636,
                "tempo": 120.0
            },
            {
                "start_time": 27.3045455,
                "end_time": 27.4886364,
                "pitch": 44,
                "velocity": 51,
                "duration": 0.1840909,
                "tempo": 120.0
            },
            {
                "start_time": 27.5068182,
                "end_time": 27.8863636,
                "pitch": 39,
                "velocity": 51,
                "duration": 0.3795455,
                "tempo": 120.0
            },
            {
                "start_time": 27.9045455,
                "end_time": 28.2840909,
                "pitch": 32,
                "velocity": 51,
                "duration": 0.3795455,
                "tempo": 120.0
            },
            {
                "start_time": 28.3,
                "end_time": 28.4840909,
                "pitch": 35,
                "velocity": 51,
                "duration": 0.1840909,
                "tempo": 120.0
            },
            {
                "start_time": 28.5,
                "end_time": 28.6931818,
                "pitch": 37,
                "velocity": 51,
                "duration": 0.1931818,
                "tempo": 120.0
            },
            {
                "start_time": 28.7090909,
                "end_time": 28.9045455,
                "pitch": 35,
                "velocity": 51,
                "duration": 0.1954545,
                "tempo": 120.0
            },
            {
                "start_time": 28.9204545,
                "end_time": 29.4931818,
                "pitch": 35,
                "velocity": 51,
                "duration": 0.5727273,
                "tempo": 120.0
            },
            {
                "start_time": 29.5090909,
                "end_time": 29.6886364,
                "pitch": 34,
                "velocity": 51,
                "duration": 0.1795455,
                "tempo": 120.0
            },
            {
                "start_time": 29.9159091,
                "end_time": 30.1090909,
                "pitch": 39,
                "velocity": 51,
                "duration": 0.1931818,
                "tempo": 120.0
            },
            {
                "start_time": 30.1272727,
                "end_time": 30.3068182,
                "pitch": 42,
                "velocity": 51,
                "duration": 0.1795455,
                "tempo": 120.0
            },
            {
                "start_time": 30.325,
                "end_time": 30.5045455,
                "pitch": 43,
                "velocity": 51,
                "duration": 0.1795455,
                "tempo": 120.0
            },
            {
                "start_time": 30.5204545,
                "end_time": 30.7022727,
                "pitch": 44,
                "velocity": 51,
                "duration": 0.1818182,
                "tempo": 120.0
            },
            {
                "start_time": 30.7204545,
                "end_time": 31.1,
                "pitch": 39,
                "velocity": 51,
                "duration": 0.3795455,
                "tempo": 120.0
            },
            {
                "start_time": 31.1159091,
                "end_time": 31.4954545,
                "pitch": 32,
                "velocity": 51,
                "duration": 0.3795455,
                "tempo": 120.0
            },
            {
                "start_time": 31.5113636,
                "end_time": 31.6954545,
                "pitch": 35,
                "velocity": 51,
                "duration": 0.1840909,
                "tempo": 120.0
            },
            {
                "start_time": 31.7113636,
                "end_time": 31.9,
                "pitch": 37,
                "velocity": 51,
                "duration": 0.1886364,
                "tempo": 120.0
            },
            {
                "start_time": 31.9181818,
                "end_time": 32.1045455,
                "pitch": 35,
                "velocity": 51,
                "duration": 0.1863636,
                "tempo": 120.0
            },
            {
                "start_time": 32.1227273,
                "end_time": 32.7022727,
                "pitch": 35,
                "velocity": 51,
                "duration": 0.5795455,
                "tempo": 120.0
            },
            {
                "start_time": 32.7181818,
                "end_time": 32.8977273,
                "pitch": 34,
                "velocity": 51,
                "duration": 0.1795455,
                "tempo": 120.0
            },
            {
                "start_time": 33.1204545,
                "end_time": 33.3090909,
                "pitch": 39,
                "velocity": 51,
                "duration": 0.1886364,
                "tempo": 120.0
            },
            {
                "start_time": 33.325,
                "end_time": 33.5136364,
                "pitch": 42,
                "velocity": 51,
                "duration": 0.1886364,
                "tempo": 120.0
            },
            {
                "start_time": 33.5318182,
                "end_time": 33.7204545,
                "pitch": 43,
                "velocity": 51,
                "duration": 0.1886364,
                "tempo": 120.0
            },
            {
                "start_time": 33.7363636,
                "end_time": 33.9204545,
                "pitch": 32,
                "velocity": 51,
                "duration": 0.1840909,
                "tempo": 120.0
            },
            {
                "start_time": 33.9363636,
                "end_time": 34.1204545,
                "pitch": 34,
                "velocity": 51,
                "duration": 0.1840909,
                "tempo": 120.0
            },
            {
                "start_time": 34.1363636,
                "end_time": 34.3181818,
                "pitch": 35,
                "velocity": 51,
                "duration": 0.1818182,
                "tempo": 120.0
            },
            {
                "start_time": 34.3340909,
                "end_time": 34.5136364,
                "pitch": 38,
                "velocity": 51,
                "duration": 0.1795455,
                "tempo": 120.0
            },
            {
                "start_time": 34.5295455,
                "end_time": 34.7136364,
                "pitch": 39,
                "velocity": 51,
                "duration": 0.1840909,
                "tempo": 120.0
            },
            {
                "start_time": 34.7295455,
                "end_time": 34.9136364,
                "pitch": 43,
                "velocity": 51,
                "duration": 0.1840909,
                "tempo": 120.0
            },
            {
                "start_time": 34.9295455,
                "end_time": 35.1090909,
                "pitch": 44,
                "velocity": 51,
                "duration": 0.1795455,
                "tempo": 120.0
            },
            {
                "start_time": 35.125,
                "end_time": 35.3045455,
                "pitch": 46,
                "velocity": 51,
                "duration": 0.1795455,
                "tempo": 120.0
            },
            {
                "start_time": 35.3204545,
                "end_time": 35.5090909,
                "pitch": 47,
                "velocity": 51,
                "duration": 0.1886364,
                "tempo": 120.0
            },
            {
                "start_time": 35.5272727,
                "end_time": 35.7159091,
                "pitch": 49,
                "velocity": 51,
                "duration": 0.1886364,
                "tempo": 120.0
            },
            {
                "start_time": 35.7318182,
                "end_time": 35.9159091,
                "pitch": 46,
                "velocity": 51,
                "duration": 0.1840909,
                "tempo": 120.0
            },
            {
                "start_time": 35.9318182,
                "end_time": 36.1159091,
                "pitch": 44,
                "velocity": 51,
                "duration": 0.1840909,
                "tempo": 120.0
            },
            {
                "start_time": 36.1318182,
                "end_time": 36.3113636,
                "pitch": 43,
                "velocity": 51,
                "duration": 0.1795455,
                "tempo": 120.0
            },
            {
                "start_time": 36.3272727,
                "end_time": 36.5090909,
                "pitch": 39,
                "velocity": 51,
                "duration": 0.1818182,
                "tempo": 120.0
            },
            {
                "start_time": 36.525,
                "end_time": 36.7113636,
                "pitch": 43,
                "velocity": 51,
                "duration": 0.1863636,
                "tempo": 120.0
            },
            {
                "start_time": 36.7295455,
                "end_time": 36.9181818,
                "pitch": 46,
                "velocity": 51,
                "duration": 0.1886364,
                "tempo": 120.0
            },
            {
                "start_time": 37.1409091,
                "end_time": 37.3295455,
                "pitch": 44,
                "velocity": 51,
                "duration": 0.1886364,
                "tempo": 120.0
            },
            {
                "start_time": 37.5454545,
                "end_time": 37.7295455,
                "pitch": 44,
                "velocity": 51,
                "duration": 0.1840909,
                "tempo": 120.0
            },
            {
                "start_time": 37.9454545,
                "end_time": 38.1295455,
                "pitch": 44,
                "velocity": 51,
                "duration": 0.1840909,
                "tempo": 120.0
            },
            {
                "start_time": 38.3477273,
                "end_time": 38.5318182,
                "pitch": 44,
                "velocity": 51,
                "duration": 0.1840909,
                "tempo": 120.0
            },
            {
                "start_time": 38.55,
                "end_time": 38.7318182,
                "pitch": 38,
                "velocity": 51,
                "duration": 0.1818182,
                "tempo": 120.0
            },
            {
                "start_time": 38.75,
                "end_time": 38.9318182,
                "pitch": 39,
                "velocity": 51,
                "duration": 0.1818182,
                "tempo": 120.0
            },
            {
                "start_time": 38.95,
                "end_time": 39.1295455,
                "pitch": 42,
                "velocity": 51,
                "duration": 0.1795455,
                "tempo": 120.0
            },
            {
                "start_time": 39.1454545,
                "end_time": 39.325,
                "pitch": 43,
                "velocity": 51,
                "duration": 0.1795455,
                "tempo": 120.0
            },
            {
                "start_time": 39.3409091,
                "end_time": 39.5204545,
                "pitch": 44,
                "velocity": 51,
                "duration": 0.1795455,
                "tempo": 120.0
            },
            {
                "start_time": 39.5363636,
                "end_time": 39.7181818,
                "pitch": 42,
                "velocity": 51,
                "duration": 0.1818182,
                "tempo": 120.0
            },
            {
                "start_time": 39.7340909,
                "end_time": 39.925,
                "pitch": 39,
                "velocity": 51,
                "duration": 0.1909091,
                "tempo": 120.0
            },
            {
                "start_time": 39.9431818,
                "end_time": 40.1363636,
                "pitch": 34,
                "velocity": 51,
                "duration": 0.1931818,
                "tempo": 120.0
            },
            {
                "start_time": 40.1545455,
                "end_time": 40.5409091,
                "pitch": 32,
                "velocity": 51,
                "duration": 0.3863636,
                "tempo": 120.0
            },
            {
                "start_time": 40.5590909,
                "end_time": 40.7409091,
                "pitch": 35,
                "velocity": 51,
                "duration": 0.1818182,
                "tempo": 120.0
            },
            {
                "start_time": 40.7590909,
                "end_time": 40.9409091,
                "pitch": 32,
                "velocity": 51,
                "duration": 0.1818182,
                "tempo": 120.0
            },
            {
                "start_time": 40.9590909,
                "end_time": 41.1409091,
                "pitch": 35,
                "velocity": 51,
                "duration": 0.1818182,
                "tempo": 120.0
            },
            {
                "start_time": 41.1590909,
                "end_time": 41.3409091,
                "pitch": 39,
                "velocity": 51,
                "duration": 0.1818182,
                "tempo": 120.0
            },
            {
                "start_time": 41.3590909,
                "end_time": 41.5409091,
                "pitch": 32,
                "velocity": 51,
                "duration": 0.1818182,
                "tempo": 120.0
            },
            {
                "start_time": 41.5590909,
                "end_time": 41.7409091,
                "pitch": 30,
                "velocity": 51,
                "duration": 0.1818182,
                "tempo": 120.0
            },
            {
                "start_time": 41.7590909,
                "end_time": 42.1340909,
                "pitch": 32,
                "velocity": 51,
                "duration": 0.375,
                "tempo": 120.0
            },
            {
                "start_time": 42.15,
                "end_time": 42.3386364,
                "pitch": 35,
                "velocity": 51,
                "duration": 0.1886364,
                "tempo": 120.0
            },
            {
                "start_time": 42.3545455,
                "end_time": 42.5431818,
                "pitch": 32,
                "velocity": 51,
                "duration": 0.1886364,
                "tempo": 120.0
            },
            {
                "start_time": 42.5613636,
                "end_time": 42.7454545,
                "pitch": 35,
                "velocity": 51,
                "duration": 0.1840909,
                "tempo": 120.0
            },
            {
                "start_time": 42.7613636,
                "end_time": 42.9454545,
                "pitch": 39,
                "velocity": 51,
                "duration": 0.1840909,
                "tempo": 120.0
            },
            {
                "start_time": 42.9613636,
                "end_time": 43.1454545,
                "pitch": 30,
                "velocity": 51,
                "duration": 0.1840909,
                "tempo": 120.0
            },
            {
                "start_time": 43.1613636,
                "end_time": 43.3454545,
                "pitch": 31,
                "velocity": 51,
                "duration": 0.1840909,
                "tempo": 120.0
            },
            {
                "start_time": 43.3613636,
                "end_time": 44.1454545,
                "pitch": 32,
                "velocity": 51,
                "duration": 0.7840909,
                "tempo": 120.0
            },
            {
                "start_time": 44.1613636,
                "end_time": 44.9477273,
                "pitch": 32,
                "velocity": 51,
                "duration": 0.7863636,
                "tempo": 120.0
            },
            {
                "start_time": 44.9636364,
                "end_time": 45.3477273,
                "pitch": 32,
                "velocity": 51,
                "duration": 0.3840909,
                "tempo": 120.0
            },
            {
                "start_time": 45.3636364,
                "end_time": 45.5477273,
                "pitch": 35,
                "velocity": 51,
                "duration": 0.1840909,
                "tempo": 120.0
            },
            {
                "start_time": 45.5636364,
                "end_time": 45.7477273,
                "pitch": 34,
                "velocity": 51,
                "duration": 0.1840909,
                "tempo": 120.0
            },
            {
                "start_time": 45.7636364,
                "end_time": 45.9477273,
                "pitch": 32,
                "velocity": 51,
                "duration": 0.1840909,
                "tempo": 120.0
            },
            {
                "start_time": 45.9636364,
                "end_time": 46.1477273,
                "pitch": 39,
                "velocity": 51,
                "duration": 0.1840909,
                "tempo": 120.0
            },
            {
                "start_time": 46.1636364,
                "end_time": 46.3477273,
                "pitch": 30,
                "velocity": 51,
                "duration": 0.1840909,
                "tempo": 120.0
            },
            {
                "start_time": 46.3659091,
                "end_time": 46.55,
                "pitch": 31,
                "velocity": 51,
                "duration": 0.1840909,
                "tempo": 120.0
            },
            {
                "start_time": 46.5659091,
                "end_time": 46.9431818,
                "pitch": 32,
                "velocity": 51,
                "duration": 0.3772727,
                "tempo": 120.0
            },
            {
                "start_time": 46.9590909,
                "end_time": 47.1454545,
                "pitch": 35,
                "velocity": 51,
                "duration": 0.1863636,
                "tempo": 120.0
            },
            {
                "start_time": 47.1636364,
                "end_time": 47.3522727,
                "pitch": 32,
                "velocity": 51,
                "duration": 0.1886364,
                "tempo": 120.0
            },
            {
                "start_time": 47.3681818,
                "end_time": 47.5522727,
                "pitch": 35,
                "velocity": 51,
                "duration": 0.1840909,
                "tempo": 120.0
            },
            {
                "start_time": 47.5704545,
                "end_time": 47.7522727,
                "pitch": 39,
                "velocity": 51,
                "duration": 0.1818182,
                "tempo": 120.0
            },
            {
                "start_time": 47.7704545,
                "end_time": 47.9522727,
                "pitch": 32,
                "velocity": 51,
                "duration": 0.1818182,
                "tempo": 120.0
            },
            {
                "start_time": 47.9704545,
                "end_time": 48.1522727,
                "pitch": 30,
                "velocity": 51,
                "duration": 0.1818182,
                "tempo": 120.0
            },
            {
                "start_time": 48.1704545,
                "end_time": 48.5454545,
                "pitch": 32,
                "velocity": 51,
                "duration": 0.375,
                "tempo": 120.0
            },
            {
                "start_time": 48.5613636,
                "end_time": 48.75,
                "pitch": 35,
                "velocity": 51,
                "duration": 0.1886364,
                "tempo": 120.0
            },
            {
                "start_time": 48.7659091,
                "end_time": 48.9545455,
                "pitch": 32,
                "velocity": 51,
                "duration": 0.1886364,
                "tempo": 120.0
            },
            {
                "start_time": 48.9727273,
                "end_time": 49.1568182,
                "pitch": 35,
                "velocity": 51,
                "duration": 0.1840909,
                "tempo": 120.0
            },
            {
                "start_time": 49.1727273,
                "end_time": 49.3568182,
                "pitch": 39,
                "velocity": 51,
                "duration": 0.1840909,
                "tempo": 120.0
            },
            {
                "start_time": 49.3727273,
                "end_time": 49.5568182,
                "pitch": 30,
                "velocity": 51,
                "duration": 0.1840909,
                "tempo": 120.0
            },
            {
                "start_time": 49.5727273,
                "end_time": 49.7568182,
                "pitch": 31,
                "velocity": 51,
                "duration": 0.1840909,
                "tempo": 120.0
            },
            {
                "start_time": 49.7727273,
                "end_time": 50.5409091,
                "pitch": 32,
                "velocity": 51,
                "duration": 0.7681818,
                "tempo": 120.0
            },
            {
                "start_time": 50.5568182,
                "end_time": 51.3431818,
                "pitch": 32,
                "velocity": 51,
                "duration": 0.7863636,
                "tempo": 120.0
            },
            {
                "start_time": 51.3590909,
                "end_time": 51.7522727,
                "pitch": 32,
                "velocity": 51,
                "duration": 0.3931818,
                "tempo": 120.0
            },
            {
                "start_time": 51.7704545,
                "end_time": 51.9590909,
                "pitch": 35,
                "velocity": 51,
                "duration": 0.1886364,
                "tempo": 120.0
            },
            {
                "start_time": 51.975,
                "end_time": 52.1636364,
                "pitch": 34,
                "velocity": 51,
                "duration": 0.1886364,
                "tempo": 120.0
            },
            {
                "start_time": 52.1818182,
                "end_time": 52.3659091,
                "pitch": 32,
                "velocity": 51,
                "duration": 0.1840909,
                "tempo": 120.0
            },
            {
                "start_time": 52.3840909,
                "end_time": 52.5681818,
                "pitch": 39,
                "velocity": 51,
                "duration": 0.1840909,
                "tempo": 120.0
            },
            {
                "start_time": 52.5840909,
                "end_time": 52.7681818,
                "pitch": 30,
                "velocity": 51,
                "duration": 0.1840909,
                "tempo": 120.0
            },
            {
                "start_time": 52.7840909,
                "end_time": 52.9681818,
                "pitch": 31,
                "velocity": 51,
                "duration": 0.1840909,
                "tempo": 120.0
            },
            {
                "start_time": 52.9840909,
                "end_time": 53.1681818,
                "pitch": 40,
                "velocity": 51,
                "duration": 0.1840909,
                "tempo": 120.0
            },
            {
                "start_time": 53.3840909,
                "end_time": 53.5636364,
                "pitch": 40,
                "velocity": 51,
                "duration": 0.1795455,
                "tempo": 120.0
            },
            {
                "start_time": 53.5818182,
                "end_time": 53.7613636,
                "pitch": 40,
                "velocity": 51,
                "duration": 0.1795455,
                "tempo": 120.0
            },
            {
                "start_time": 53.9772727,
                "end_time": 54.1590909,
                "pitch": 40,
                "velocity": 51,
                "duration": 0.1818182,
                "tempo": 120.0
            },
            {
                "start_time": 54.1772727,
                "end_time": 54.3636364,
                "pitch": 42,
                "velocity": 51,
                "duration": 0.1863636,
                "tempo": 120.0
            },
            {
                "start_time": 54.3818182,
                "end_time": 54.5704545,
                "pitch": 44,
                "velocity": 51,
                "duration": 0.1886364,
                "tempo": 120.0
            },
            {
                "start_time": 54.5863636,
                "end_time": 54.7681818,
                "pitch": 40,
                "velocity": 51,
                "duration": 0.1818182,
                "tempo": 120.0
            },
            {
                "start_time": 54.9795455,
                "end_time": 55.1636364,
                "pitch": 40,
                "velocity": 51,
                "duration": 0.1840909,
                "tempo": 120.0
            },
            {
                "start_time": 55.1818182,
                "end_time": 55.3659091,
                "pitch": 40,
                "velocity": 51,
                "duration": 0.1840909,
                "tempo": 120.0
            },
            {
                "start_time": 55.5818182,
                "end_time": 55.7659091,
                "pitch": 40,
                "velocity": 51,
                "duration": 0.1840909,
                "tempo": 120.0
            },
            {
                "start_time": 55.7818182,
                "end_time": 55.9704545,
                "pitch": 39,
                "velocity": 51,
                "duration": 0.1886364,
                "tempo": 120.0
            },
            {
                "start_time": 55.9863636,
                "end_time": 56.175,
                "pitch": 37,
                "velocity": 51,
                "duration": 0.1886364,
                "tempo": 120.0
            },
            {
                "start_time": 56.1931818,
                "end_time": 56.7727273,
                "pitch": 32,
                "velocity": 51,
                "duration": 0.5795455,
                "tempo": 120.0
            },
            {
                "start_time": 56.7909091,
                "end_time": 56.9772727,
                "pitch": 32,
                "velocity": 51,
                "duration": 0.1863636,
                "tempo": 120.0
            },
            {
                "start_time": 57.1954545,
                "end_time": 57.3795455,
                "pitch": 32,
                "velocity": 51,
                "duration": 0.1840909,
                "tempo": 120.0
            },
            {
                "start_time": 57.3954545,
                "end_time": 57.5795455,
                "pitch": 35,
                "velocity": 51,
                "duration": 0.1840909,
                "tempo": 120.0
            },
            {
                "start_time": 57.5954545,
                "end_time": 57.7795455,
                "pitch": 39,
                "velocity": 51,
                "duration": 0.1840909,
                "tempo": 120.0
            },
            {
                "start_time": 57.7954545,
                "end_time": 57.975,
                "pitch": 32,
                "velocity": 51,
                "duration": 0.1795455,
                "tempo": 120.0
            },
            {
                "start_time": 58.1886364,
                "end_time": 58.3704545,
                "pitch": 32,
                "velocity": 51,
                "duration": 0.1818182,
                "tempo": 120.0
            },
            {
                "start_time": 58.3886364,
                "end_time": 58.5704545,
                "pitch": 32,
                "velocity": 51,
                "duration": 0.1818182,
                "tempo": 120.0
            },
            {
                "start_time": 58.7886364,
                "end_time": 58.9704545,
                "pitch": 35,
                "velocity": 51,
                "duration": 0.1818182,
                "tempo": 120.0
            },
            {
                "start_time": 58.9886364,
                "end_time": 59.175,
                "pitch": 42,
                "velocity": 51,
                "duration": 0.1863636,
                "tempo": 120.0
            },
            {
                "start_time": 59.1931818,
                "end_time": 59.3818182,
                "pitch": 41,
                "velocity": 51,
                "duration": 0.1886364,
                "tempo": 120.0
            },
            {
                "start_time": 59.3977273,
                "end_time": 59.5795455,
                "pitch": 40,
                "velocity": 51,
                "duration": 0.1818182,
                "tempo": 120.0
            },
            {
                "start_time": 59.7909091,
                "end_time": 59.975,
                "pitch": 40,
                "velocity": 51,
                "duration": 0.1840909,
                "tempo": 120.0
            },
            {
                "start_time": 59.9909091,
                "end_time": 60.175,
                "pitch": 40,
                "velocity": 51,
                "duration": 0.1840909,
                "tempo": 120.0
            },
            {
                "start_time": 60.3909091,
                "end_time": 60.575,
                "pitch": 40,
                "velocity": 51,
                "duration": 0.1840909,
                "tempo": 120.0
            },
            {
                "start_time": 60.5909091,
                "end_time": 60.7795455,
                "pitch": 42,
                "velocity": 51,
                "duration": 0.1886364,
                "tempo": 120.0
            },
            {
                "start_time": 60.7954545,
                "end_time": 60.9840909,
                "pitch": 44,
                "velocity": 51,
                "duration": 0.1886364,
                "tempo": 120.0
            },
            {
                "start_time": 61.0022727,
                "end_time": 61.1818182,
                "pitch": 40,
                "velocity": 51,
                "duration": 0.1795455,
                "tempo": 120.0
            },
            {
                "start_time": 61.3931818,
                "end_time": 61.5772727,
                "pitch": 40,
                "velocity": 51,
                "duration": 0.1840909,
                "tempo": 120.0
            },
            {
                "start_time": 61.5931818,
                "end_time": 61.7772727,
                "pitch": 40,
                "velocity": 51,
                "duration": 0.1840909,
                "tempo": 120.0
            },
            {
                "start_time": 61.9931818,
                "end_time": 62.1772727,
                "pitch": 40,
                "velocity": 51,
                "duration": 0.1840909,
                "tempo": 120.0
            },
            {
                "start_time": 62.1931818,
                "end_time": 62.3772727,
                "pitch": 39,
                "velocity": 51,
                "duration": 0.1840909,
                "tempo": 120.0
            },
            {
                "start_time": 62.3931818,
                "end_time": 62.5772727,
                "pitch": 37,
                "velocity": 51,
                "duration": 0.1840909,
                "tempo": 120.0
            },
            {
                "start_time": 62.5931818,
                "end_time": 62.7818182,
                "pitch": 32,
                "velocity": 51,
                "duration": 0.1886364,
                "tempo": 120.0
            },
            {
                "start_time": 62.7977273,
                "end_time": 62.9863636,
                "pitch": 32,
                "velocity": 51,
                "duration": 0.1886364,
                "tempo": 120.0
            },
            {
                "start_time": 63.1954545,
                "end_time": 63.3704545,
                "pitch": 32,
                "velocity": 51,
                "duration": 0.175,
                "tempo": 120.0
            },
            {
                "start_time": 63.5886364,
                "end_time": 63.7727273,
                "pitch": 37,
                "velocity": 51,
                "duration": 0.1840909,
                "tempo": 120.0
            },
            {
                "start_time": 63.7886364,
                "end_time": 63.9727273,
                "pitch": 37,
                "velocity": 51,
                "duration": 0.1840909,
                "tempo": 120.0
            },
            {
                "start_time": 63.9886364,
                "end_time": 64.1727273,
                "pitch": 37,
                "velocity": 51,
                "duration": 0.1840909,
                "tempo": 120.0
            },
            {
                "start_time": 64.1886364,
                "end_time": 64.3818182,
                "pitch": 39,
                "velocity": 51,
                "duration": 0.1931818,
                "tempo": 120.0
            },
            {
                "start_time": 64.4,
                "end_time": 64.5931818,
                "pitch": 39,
                "velocity": 51,
                "duration": 0.1931818,
                "tempo": 120.0
            },
            {
                "start_time": 64.6113636,
                "end_time": 64.7863636,
                "pitch": 39,
                "velocity": 51,
                "duration": 0.175,
                "tempo": 120.0
            },
            {
                "start_time": 64.8022727,
                "end_time": 64.9772727,
                "pitch": 39,
                "velocity": 51,
                "duration": 0.175,
                "tempo": 120.0
            },
            {
                "start_time": 65.1931818,
                "end_time": 65.375,
                "pitch": 39,
                "velocity": 51,
                "duration": 0.1818182,
                "tempo": 120.0
            },
            {
                "start_time": 65.3931818,
                "end_time": 65.5840909,
                "pitch": 42,
                "velocity": 51,
                "duration": 0.1909091,
                "tempo": 120.0
            },
            {
                "start_time": 65.6022727,
                "end_time": 65.7954545,
                "pitch": 43,
                "velocity": 51,
                "duration": 0.1931818,
                "tempo": 120.0
            },
            {
                "start_time": 65.8136364,
                "end_time": 65.9954545,
                "pitch": 44,
                "velocity": 51,
                "duration": 0.1818182,
                "tempo": 120.0
            },
            {
                "start_time": 66.0113636,
                "end_time": 66.3863636,
                "pitch": 39,
                "velocity": 51,
                "duration": 0.375,
                "tempo": 120.0
            },
            {
                "start_time": 66.4022727,
                "end_time": 66.7840909,
                "pitch": 32,
                "velocity": 51,
                "duration": 0.3818182,
                "tempo": 120.0
            },
            {
                "start_time": 66.8,
                "end_time": 66.9840909,
                "pitch": 35,
                "velocity": 51,
                "duration": 0.1840909,
                "tempo": 120.0
            },
            {
                "start_time": 67.0022727,
                "end_time": 67.1909091,
                "pitch": 37,
                "velocity": 51,
                "duration": 0.1886364,
                "tempo": 120.0
            },
            {
                "start_time": 67.2068182,
                "end_time": 67.3954545,
                "pitch": 35,
                "velocity": 51,
                "duration": 0.1886364,
                "tempo": 120.0
            },
            {
                "start_time": 67.4113636,
                "end_time": 67.9931818,
                "pitch": 35,
                "velocity": 51,
                "duration": 0.5818182,
                "tempo": 120.0
            },
            {
                "start_time": 68.0090909,
                "end_time": 68.1886364,
                "pitch": 34,
                "velocity": 51,
                "duration": 0.1795455,
                "tempo": 120.0
            },
            {
                "start_time": 68.4090909,
                "end_time": 68.5977273,
                "pitch": 39,
                "velocity": 51,
                "duration": 0.1886364,
                "tempo": 120.0
            },
            {
                "start_time": 68.6159091,
                "end_time": 68.8,
                "pitch": 42,
                "velocity": 51,
                "duration": 0.1840909,
                "tempo": 120.0
            },
            {
                "start_time": 68.8159091,
                "end_time": 69.0,
                "pitch": 43,
                "velocity": 51,
                "duration": 0.1840909,
                "tempo": 120.0
            },
            {
                "start_time": 69.0159091,
                "end_time": 69.2,
                "pitch": 44,
                "velocity": 51,
                "duration": 0.1840909,
                "tempo": 120.0
            },
            {
                "start_time": 69.2159091,
                "end_time": 69.5977273,
                "pitch": 39,
                "velocity": 51,
                "duration": 0.3818182,
                "tempo": 120.0
            },
            {
                "start_time": 69.6136364,
                "end_time": 69.9931818,
                "pitch": 32,
                "velocity": 51,
                "duration": 0.3795455,
                "tempo": 120.0
            },
            {
                "start_time": 70.0113636,
                "end_time": 70.1931818,
                "pitch": 35,
                "velocity": 51,
                "duration": 0.1818182,
                "tempo": 120.0
            },
            {
                "start_time": 70.2113636,
                "end_time": 70.3977273,
                "pitch": 37,
                "velocity": 51,
                "duration": 0.1863636,
                "tempo": 120.0
            },
            {
                "start_time": 70.4159091,
                "end_time": 70.6045455,
                "pitch": 35,
                "velocity": 51,
                "duration": 0.1886364,
                "tempo": 120.0
            },
            {
                "start_time": 70.6204545,
                "end_time": 71.2,
                "pitch": 35,
                "velocity": 51,
                "duration": 0.5795455,
                "tempo": 120.0
            },
            {
                "start_time": 71.2181818,
                "end_time": 71.3977273,
                "pitch": 34,
                "velocity": 51,
                "duration": 0.1795455,
                "tempo": 120.0
            },
            {
                "start_time": 71.6181818,
                "end_time": 71.8068182,
                "pitch": 39,
                "velocity": 51,
                "duration": 0.1886364,
                "tempo": 120.0
            },
            {
                "start_time": 71.825,
                "end_time": 72.0113636,
                "pitch": 42,
                "velocity": 51,
                "duration": 0.1863636,
                "tempo": 120.0
            },
            {
                "start_time": 72.0295455,
                "end_time": 72.2181818,
                "pitch": 43,
                "velocity": 51,
                "duration": 0.1886364,
                "tempo": 120.0
            },
            {
                "start_time": 72.2340909,
                "end_time": 72.4181818,
                "pitch": 32,
                "velocity": 51,
                "duration": 0.1840909,
                "tempo": 120.0
            },
            {
                "start_time": 72.4363636,
                "end_time": 72.6181818,
                "pitch": 34,
                "velocity": 51,
                "duration": 0.1818182,
                "tempo": 120.0
            },
            {
                "start_time": 72.6363636,
                "end_time": 72.8159091,
                "pitch": 35,
                "velocity": 51,
                "duration": 0.1795455,
                "tempo": 120.0
            },
            {
                "start_time": 72.8318182,
                "end_time": 73.0113636,
                "pitch": 38,
                "velocity": 51,
                "duration": 0.1795455,
                "tempo": 120.0
            },
            {
                "start_time": 73.0272727,
                "end_time": 73.2113636,
                "pitch": 39,
                "velocity": 51,
                "duration": 0.1840909,
                "tempo": 120.0
            },
            {
                "start_time": 73.2295455,
                "end_time": 73.4136364,
                "pitch": 43,
                "velocity": 51,
                "duration": 0.1840909,
                "tempo": 120.0
            },
            {
                "start_time": 73.4295455,
                "end_time": 73.6136364,
                "pitch": 44,
                "velocity": 51,
                "duration": 0.1840909,
                "tempo": 120.0
            },
            {
                "start_time": 73.6295455,
                "end_time": 73.8136364,
                "pitch": 46,
                "velocity": 51,
                "duration": 0.1840909,
                "tempo": 120.0
            },
            {
                "start_time": 73.8295455,
                "end_time": 74.0159091,
                "pitch": 47,
                "velocity": 51,
                "duration": 0.1863636,
                "tempo": 120.0
            },
            {
                "start_time": 74.0318182,
                "end_time": 74.2159091,
                "pitch": 49,
                "velocity": 51,
                "duration": 0.1840909,
                "tempo": 120.0
            },
            {
                "start_time": 74.2340909,
                "end_time": 74.4181818,
                "pitch": 46,
                "velocity": 51,
                "duration": 0.1840909,
                "tempo": 120.0
            },
            {
                "start_time": 74.4340909,
                "end_time": 74.6181818,
                "pitch": 44,
                "velocity": 51,
                "duration": 0.1840909,
                "tempo": 120.0
            },
            {
                "start_time": 74.6363636,
                "end_time": 74.8181818,
                "pitch": 43,
                "velocity": 51,
                "duration": 0.1818182,
                "tempo": 120.0
            },
            {
                "start_time": 74.8363636,
                "end_time": 75.0181818,
                "pitch": 39,
                "velocity": 51,
                "duration": 0.1818182,
                "tempo": 120.0
            },
            {
                "start_time": 75.0363636,
                "end_time": 75.2204545,
                "pitch": 43,
                "velocity": 51,
                "duration": 0.1840909,
                "tempo": 120.0
            },
            {
                "start_time": 75.2363636,
                "end_time": 75.4204545,
                "pitch": 46,
                "velocity": 51,
                "duration": 0.1840909,
                "tempo": 120.0
            },
            {
                "start_time": 75.6431818,
                "end_time": 75.8318182,
                "pitch": 44,
                "velocity": 51,
                "duration": 0.1886364,
                "tempo": 120.0
            },
            {
                "start_time": 76.05,
                "end_time": 76.2340909,
                "pitch": 44,
                "velocity": 51,
                "duration": 0.1840909,
                "tempo": 120.0
            },
            {
                "start_time": 76.4522727,
                "end_time": 76.6363636,
                "pitch": 44,
                "velocity": 51,
                "duration": 0.1840909,
                "tempo": 120.0
            },
            {
                "start_time": 76.8522727,
                "end_time": 77.0386364,
                "pitch": 44,
                "velocity": 51,
                "duration": 0.1863636,
                "tempo": 120.0
            },
            {
                "start_time": 77.0545455,
                "end_time": 77.2386364,
                "pitch": 38,
                "velocity": 51,
                "duration": 0.1840909,
                "tempo": 120.0
            },
            {
                "start_time": 77.2545455,
                "end_time": 77.4386364,
                "pitch": 39,
                "velocity": 51,
                "duration": 0.1840909,
                "tempo": 120.0
            },
            {
                "start_time": 77.4545455,
                "end_time": 77.6340909,
                "pitch": 42,
                "velocity": 51,
                "duration": 0.1795455,
                "tempo": 120.0
            },
            {
                "start_time": 77.65,
                "end_time": 77.8318182,
                "pitch": 43,
                "velocity": 51,
                "duration": 0.1818182,
                "tempo": 120.0
            },
            {
                "start_time": 77.8477273,
                "end_time": 78.0318182,
                "pitch": 38,
                "velocity": 51,
                "duration": 0.1840909,
                "tempo": 120.0
            },
            {
                "start_time": 78.0477273,
                "end_time": 78.2318182,
                "pitch": 39,
                "velocity": 51,
                "duration": 0.1840909,
                "tempo": 120.0
            },
            {
                "start_time": 78.25,
                "end_time": 78.4340909,
                "pitch": 42,
                "velocity": 51,
                "duration": 0.1840909,
                "tempo": 120.0
            },
            {
                "start_time": 78.45,
                "end_time": 78.6363636,
                "pitch": 43,
                "velocity": 51,
                "duration": 0.1863636,
                "tempo": 120.0
            },
            {
                "start_time": 78.6522727,
                "end_time": 78.8409091,
                "pitch": 38,
                "velocity": 51,
                "duration": 0.1886364,
                "tempo": 120.0
            },
            {
                "start_time": 78.8568182,
                "end_time": 79.0454545,
                "pitch": 39,
                "velocity": 51,
                "duration": 0.1886364,
                "tempo": 120.0
            },
            {
                "start_time": 79.0636364,
                "end_time": 79.2431818,
                "pitch": 42,
                "velocity": 51,
                "duration": 0.1795455,
                "tempo": 120.0
            },
            {
                "start_time": 79.2590909,
                "end_time": 79.4386364,
                "pitch": 43,
                "velocity": 51,
                "duration": 0.1795455,
                "tempo": 120.0
            },
            {
                "start_time": 79.4545455,
                "end_time": 79.6340909,
                "pitch": 44,
                "velocity": 51,
                "duration": 0.1795455,
                "tempo": 120.0
            },
            {
                "start_time": 79.6522727,
                "end_time": 79.8318182,
                "pitch": 42,
                "velocity": 51,
                "duration": 0.1795455,
                "tempo": 120.0
            },
            {
                "start_time": 79.8477273,
                "end_time": 80.0386364,
                "pitch": 39,
                "velocity": 51,
                "duration": 0.1909091,
                "tempo": 120.0
            },
            {
                "start_time": 80.0568182,
                "end_time": 80.25,
                "pitch": 34,
                "velocity": 51,
                "duration": 0.1931818,
                "tempo": 120.0
            },
            {
                "start_time": 80.2681818,
                "end_time": 80.4659091,
                "pitch": 32,
                "velocity": 51,
                "duration": 0.1977273,
                "tempo": 120.0
            }
        ],
        "Oboe": [
            {
                "start_time": 1.6409091,
                "end_time": 1.8045455,
                "pitch": 63,
                "velocity": 40,
                "duration": 0.1636364,
                "tempo": 120.0
            },
            {
                "start_time": 1.8204545,
                "end_time": 2.0,
                "pitch": 63,
                "velocity": 40,
                "duration": 0.1795455,
                "tempo": 120.0
            },
            {
                "start_time": 2.2204545,
                "end_time": 2.4090909,
                "pitch": 63,
                "velocity": 40,
                "duration": 0.1886364,
                "tempo": 120.0
            },
            {
                "start_time": 2.6272727,
                "end_time": 2.8113636,
                "pitch": 63,
                "velocity": 40,
                "duration": 0.1840909,
                "tempo": 120.0
            },
            {
                "start_time": 3.2272727,
                "end_time": 3.4068182,
                "pitch": 63,
                "velocity": 40,
                "duration": 0.1795455,
                "tempo": 120.0
            },
            {
                "start_time": 3.4227273,
                "end_time": 3.6045455,
                "pitch": 63,
                "velocity": 40,
                "duration": 0.1818182,
                "tempo": 120.0
            },
            {
                "start_time": 3.825,
                "end_time": 4.0136364,
                "pitch": 63,
                "velocity": 40,
                "duration": 0.1886364,
                "tempo": 120.0
            },
            {
                "start_time": 4.2295455,
                "end_time": 4.4136364,
                "pitch": 63,
                "velocity": 40,
                "duration": 0.1840909,
                "tempo": 120.0
            },
            {
                "start_time": 4.6318182,
                "end_time": 4.8159091,
                "pitch": 63,
                "velocity": 40,
                "duration": 0.1840909,
                "tempo": 120.0
            },
            {
                "start_time": 4.8340909,
                "end_time": 5.0181818,
                "pitch": 63,
                "velocity": 40,
                "duration": 0.1840909,
                "tempo": 120.0
            },
            {
                "start_time": 5.0340909,
                "end_time": 5.2181818,
                "pitch": 63,
                "velocity": 40,
                "duration": 0.1840909,
                "tempo": 120.0
            },
            {
                "start_time": 5.6363636,
                "end_time": 5.8204545,
                "pitch": 63,
                "velocity": 40,
                "duration": 0.1840909,
                "tempo": 120.0
            },
            {
                "start_time": 5.8363636,
                "end_time": 6.0227273,
                "pitch": 63,
                "velocity": 40,
                "duration": 0.1863636,
                "tempo": 120.0
            },
            {
                "start_time": 6.4386364,
                "end_time": 7.2272727,
                "pitch": 56,
                "velocity": 40,
                "duration": 0.7886364,
                "tempo": 120.0
            },
            {
                "start_time": 7.2431818,
                "end_time": 8.0295455,
                "pitch": 56,
                "velocity": 40,
                "duration": 0.7863636,
                "tempo": 120.0
            },
            {
                "start_time": 8.0454545,
                "end_time": 8.2272727,
                "pitch": 63,
                "velocity": 40,
                "duration": 0.1818182,
                "tempo": 120.0
            },
            {
                "start_time": 8.2431818,
                "end_time": 8.4227273,
                "pitch": 63,
                "velocity": 40,
                "duration": 0.1795455,
                "tempo": 120.0
            },
            {
                "start_time": 8.6431818,
                "end_time": 8.8318182,
                "pitch": 63,
                "velocity": 40,
                "duration": 0.1886364,
                "tempo": 120.0
            },
            {
                "start_time": 9.05,
                "end_time": 9.2363636,
                "pitch": 63,
                "velocity": 40,
                "duration": 0.1863636,
                "tempo": 120.0
            },
            {
                "start_time": 9.6545455,
                "end_time": 9.8340909,
                "pitch": 63,
                "velocity": 40,
                "duration": 0.1795455,
                "tempo": 120.0
            },
            {
                "start_time": 9.85,
                "end_time": 10.0318182,
                "pitch": 63,
                "velocity": 40,
                "duration": 0.1818182,
                "tempo": 120.0
            },
            {
                "start_time": 10.2522727,
                "end_time": 10.4409091,
                "pitch": 63,
                "velocity": 40,
                "duration": 0.1886364,
                "tempo": 120.0
            },
            {
                "start_time": 10.6590909,
                "end_time": 10.8431818,
                "pitch": 63,
                "velocity": 40,
                "duration": 0.1840909,
                "tempo": 120.0
            },
            {
                "start_time": 11.0613636,
                "end_time": 11.2454545,
                "pitch": 63,
                "velocity": 40,
                "duration": 0.1840909,
                "tempo": 120.0
            },
            {
                "start_time": 40.1727273,
                "end_time": 40.3409091,
                "pitch": 63,
                "velocity": 40,
                "duration": 0.1681818,
                "tempo": 120.0
            },
            {
                "start_time": 40.3568182,
                "end_time": 40.5409091,
                "pitch": 63,
                "velocity": 40,
                "duration": 0.1840909,
                "tempo": 120.0
            },
            {
                "start_time": 40.7590909,
                "end_time": 40.9409091,
                "pitch": 63,
                "velocity": 40,
                "duration": 0.1818182,
                "tempo": 120.0
            },
            {
                "start_time": 41.1590909,
                "end_time": 41.3409091,
                "pitch": 63,
                "velocity": 40,
                "duration": 0.1818182,
                "tempo": 120.0
            },
            {
                "start_time": 41.7590909,
                "end_time": 41.9386364,
                "pitch": 63,
                "velocity": 40,
                "duration": 0.1795455,
                "tempo": 120.0
            },
            {
                "start_time": 41.9545455,
                "end_time": 42.1340909,
                "pitch": 63,
                "velocity": 40,
                "duration": 0.1795455,
                "tempo": 120.0
            },
            {
                "start_time": 42.3545455,
                "end_time": 42.5431818,
                "pitch": 63,
                "velocity": 40,
                "duration": 0.1886364,
                "tempo": 120.0
            },
            {
                "start_time": 42.7613636,
                "end_time": 42.9454545,
                "pitch": 63,
                "velocity": 40,
                "duration": 0.1840909,
                "tempo": 120.0
            },
            {
                "start_time": 43.1613636,
                "end_time": 43.3454545,
                "pitch": 63,
                "velocity": 40,
                "duration": 0.1840909,
                "tempo": 120.0
            },
            {
                "start_time": 43.3613636,
                "end_time": 43.5454545,
                "pitch": 63,
                "velocity": 40,
                "duration": 0.1840909,
                "tempo": 120.0
            },
            {
                "start_time": 43.5613636,
                "end_time": 43.7454545,
                "pitch": 63,
                "velocity": 40,
                "duration": 0.1840909,
                "tempo": 120.0
            },
            {
                "start_time": 44.1613636,
                "end_time": 44.3454545,
                "pitch": 63,
                "velocity": 40,
                "duration": 0.1840909,
                "tempo": 120.0
            },
            {
                "start_time": 44.3613636,
                "end_time": 44.5477273,
                "pitch": 63,
                "velocity": 40,
                "duration": 0.1863636,
                "tempo": 120.0
            },
            {
                "start_time": 44.9636364,
                "end_time": 45.7477273,
                "pitch": 56,
                "velocity": 40,
                "duration": 0.7840909,
                "tempo": 120.0
            },
            {
                "start_time": 45.7636364,
                "end_time": 46.55,
                "pitch": 56,
                "velocity": 40,
                "duration": 0.7863636,
                "tempo": 120.0
            },
            {
                "start_time": 46.5659091,
                "end_time": 46.7454545,
                "pitch": 63,
                "velocity": 40,
                "duration": 0.1795455,
                "tempo": 120.0
            },
            {
                "start_time": 46.7636364,
                "end_time": 46.9431818,
                "pitch": 63,
                "velocity": 40,
                "duration": 0.1795455,
                "tempo": 120.0
            },
            {
                "start_time": 47.1636364,
                "end_time": 47.3522727,
                "pitch": 63,
                "velocity": 40,
                "duration": 0.1886364,
                "tempo": 120.0
            },
            {
                "start_time": 47.5704545,
                "end_time": 47.7522727,
                "pitch": 63,
                "velocity": 40,
                "duration": 0.1818182,
                "tempo": 120.0
            },
            {
                "start_time": 48.1704545,
                "end_time": 48.35,
                "pitch": 63,
                "velocity": 40,
                "duration": 0.1795455,
                "tempo": 120.0
            },
            {
                "start_time": 48.3659091,
                "end_time": 48.5454545,
                "pitch": 63,
                "velocity": 40,
                "duration": 0.1795455,
                "tempo": 120.0
            },
            {
                "start_time": 48.7659091,
                "end_time": 48.9545455,
                "pitch": 63,
                "velocity": 40,
                "duration": 0.1886364,
                "tempo": 120.0
            },
            {
                "start_time": 49.1727273,
                "end_time": 49.3568182,
                "pitch": 63,
                "velocity": 40,
                "duration": 0.1840909,
                "tempo": 120.0
            },
            {
                "start_time": 49.5727273,
                "end_time": 49.7568182,
                "pitch": 63,
                "velocity": 40,
                "duration": 0.1840909,
                "tempo": 120.0
            },
            {
                "start_time": 80.2863636,
                "end_time": 80.45,
                "pitch": 63,
                "velocity": 40,
                "duration": 0.1636364,
                "tempo": 120.0
            }
        ],
        "Clarinet": [
            {
                "start_time": 14.4909091,
                "end_time": 14.8613636,
                "pitch": 64,
                "velocity": 51,
                "duration": 0.3704545,
                "tempo": 120.0
            },
            {
                "start_time": 14.8772727,
                "end_time": 15.0568182,
                "pitch": 61,
                "velocity": 51,
                "duration": 0.1795455,
                "tempo": 120.0
            },
            {
                "start_time": 15.075,
                "end_time": 15.4568182,
                "pitch": 68,
                "velocity": 51,
                "duration": 0.3818182,
                "tempo": 120.0
            },
            {
                "start_time": 15.475,
                "end_time": 15.6636364,
                "pitch": 68,
                "velocity": 51,
                "duration": 0.1886364,
                "tempo": 120.0
            },
            {
                "start_time": 15.6795455,
                "end_time": 15.8636364,
                "pitch": 64,
                "velocity": 51,
                "duration": 0.1840909,
                "tempo": 120.0
            },
            {
                "start_time": 15.8795455,
                "end_time": 16.0636364,
                "pitch": 61,
                "velocity": 51,
                "duration": 0.1840909,
                "tempo": 120.0
            },
            {
                "start_time": 16.0795455,
                "end_time": 16.4568182,
                "pitch": 64,
                "velocity": 51,
                "duration": 0.3772727,
                "tempo": 120.0
            },
            {
                "start_time": 16.4727273,
                "end_time": 16.6568182,
                "pitch": 61,
                "velocity": 51,
                "duration": 0.1840909,
                "tempo": 120.0
            },
            {
                "start_time": 16.6727273,
                "end_time": 17.0568182,
                "pitch": 68,
                "velocity": 51,
                "duration": 0.3840909,
                "tempo": 120.0
            },
            {
                "start_time": 17.0727273,
                "end_time": 17.2568182,
                "pitch": 68,
                "velocity": 51,
                "duration": 0.1840909,
                "tempo": 120.0
            },
            {
                "start_time": 17.2727273,
                "end_time": 17.4613636,
                "pitch": 70,
                "velocity": 51,
                "duration": 0.1886364,
                "tempo": 120.0
            },
            {
                "start_time": 17.4772727,
                "end_time": 17.6659091,
                "pitch": 71,
                "velocity": 51,
                "duration": 0.1886364,
                "tempo": 120.0
            },
            {
                "start_time": 17.6840909,
                "end_time": 17.8681818,
                "pitch": 75,
                "velocity": 51,
                "duration": 0.1840909,
                "tempo": 120.0
            },
            {
                "start_time": 17.8840909,
                "end_time": 18.0704545,
                "pitch": 71,
                "velocity": 51,
                "duration": 0.1863636,
                "tempo": 120.0
            },
            {
                "start_time": 18.2863636,
                "end_time": 18.8613636,
                "pitch": 68,
                "velocity": 51,
                "duration": 0.575,
                "tempo": 120.0
            },
            {
                "start_time": 18.8795455,
                "end_time": 19.2727273,
                "pitch": 75,
                "velocity": 51,
                "duration": 0.3931818,
                "tempo": 120.0
            },
            {
                "start_time": 19.2886364,
                "end_time": 19.4681818,
                "pitch": 78,
                "velocity": 51,
                "duration": 0.1795455,
                "tempo": 120.0
            },
            {
                "start_time": 19.4863636,
                "end_time": 19.6659091,
                "pitch": 71,
                "velocity": 51,
                "duration": 0.1795455,
                "tempo": 120.0
            },
            {
                "start_time": 19.8818182,
                "end_time": 20.4681818,
                "pitch": 68,
                "velocity": 51,
                "duration": 0.5863636,
                "tempo": 120.0
            },
            {
                "start_time": 20.4840909,
                "end_time": 20.8772727,
                "pitch": 63,
                "velocity": 51,
                "duration": 0.3931818,
                "tempo": 120.0
            },
            {
                "start_time": 20.8954545,
                "end_time": 21.2704545,
                "pitch": 64,
                "velocity": 51,
                "duration": 0.375,
                "tempo": 120.0
            },
            {
                "start_time": 21.2863636,
                "end_time": 21.4704545,
                "pitch": 61,
                "velocity": 51,
                "duration": 0.1840909,
                "tempo": 120.0
            },
            {
                "start_time": 21.4886364,
                "end_time": 21.8727273,
                "pitch": 68,
                "velocity": 51,
                "duration": 0.3840909,
                "tempo": 120.0
            },
            {
                "start_time": 21.8886364,
                "end_time": 22.0727273,
                "pitch": 68,
                "velocity": 51,
                "duration": 0.1840909,
                "tempo": 120.0
            },
            {
                "start_time": 22.0886364,
                "end_time": 22.2772727,
                "pitch": 64,
                "velocity": 51,
                "duration": 0.1886364,
                "tempo": 120.0
            },
            {
                "start_time": 22.2954545,
                "end_time": 22.4818182,
                "pitch": 61,
                "velocity": 51,
                "duration": 0.1863636,
                "tempo": 120.0
            },
            {
                "start_time": 22.5,
                "end_time": 22.8772727,
                "pitch": 64,
                "velocity": 51,
                "duration": 0.3772727,
                "tempo": 120.0
            },
            {
                "start_time": 22.8931818,
                "end_time": 23.075,
                "pitch": 61,
                "velocity": 51,
                "duration": 0.1818182,
                "tempo": 120.0
            },
            {
                "start_time": 23.0931818,
                "end_time": 23.4772727,
                "pitch": 68,
                "velocity": 51,
                "duration": 0.3840909,
                "tempo": 120.0
            },
            {
                "start_time": 23.4931818,
                "end_time": 23.6772727,
                "pitch": 68,
                "velocity": 51,
                "duration": 0.1840909,
                "tempo": 120.0
            },
            {
                "start_time": 23.6954545,
                "end_time": 23.8772727,
                "pitch": 70,
                "velocity": 51,
                "duration": 0.1818182,
                "tempo": 120.0
            },
            {
                "start_time": 23.8954545,
                "end_time": 24.0772727,
                "pitch": 71,
                "velocity": 51,
                "duration": 0.1818182,
                "tempo": 120.0
            },
            {
                "start_time": 24.0954545,
                "end_time": 25.6727273,
                "pitch": 56,
                "velocity": 51,
                "duration": 1.5772727,
                "tempo": 120.0
            },
            {
                "start_time": 25.6909091,
                "end_time": 26.2863636,
                "pitch": 55,
                "velocity": 51,
                "duration": 0.5954545,
                "tempo": 120.0
            },
            {
                "start_time": 26.3022727,
                "end_time": 26.4772727,
                "pitch": 55,
                "velocity": 51,
                "duration": 0.175,
                "tempo": 120.0
            },
            {
                "start_time": 26.6931818,
                "end_time": 26.8772727,
                "pitch": 63,
                "velocity": 51,
                "duration": 0.1840909,
                "tempo": 120.0
            },
            {
                "start_time": 26.8931818,
                "end_time": 27.0818182,
                "pitch": 66,
                "velocity": 51,
                "duration": 0.1886364,
                "tempo": 120.0
            },
            {
                "start_time": 27.1,
                "end_time": 27.2863636,
                "pitch": 67,
                "velocity": 51,
                "duration": 0.1863636,
                "tempo": 120.0
            },
            {
                "start_time": 53.0022727,
                "end_time": 53.3681818,
                "pitch": 64,
                "velocity": 51,
                "duration": 0.3659091,
                "tempo": 120.0
            },
            {
                "start_time": 53.3840909,
                "end_time": 53.5636364,
                "pitch": 61,
                "velocity": 51,
                "duration": 0.1795455,
                "tempo": 120.0
            },
            {
                "start_time": 53.5818182,
                "end_time": 53.9590909,
                "pitch": 68,
                "velocity": 51,
                "duration": 0.3772727,
                "tempo": 120.0
            },
            {
                "start_time": 53.9772727,
                "end_time": 54.1590909,
                "pitch": 68,
                "velocity": 51,
                "duration": 0.1818182,
                "tempo": 120.0
            },
            {
                "start_time": 54.1772727,
                "end_time": 54.3636364,
                "pitch": 64,
                "velocity": 51,
                "duration": 0.1863636,
                "tempo": 120.0
            },
            {
                "start_time": 54.3818182,
                "end_time": 54.5704545,
                "pitch": 61,
                "velocity": 51,
                "duration": 0.1886364,
                "tempo": 120.0
            },
            {
                "start_time": 54.5863636,
                "end_time": 54.9636364,
                "pitch": 64,
                "velocity": 51,
                "duration": 0.3772727,
                "tempo": 120.0
            },
            {
                "start_time": 54.9795455,
                "end_time": 55.1636364,
                "pitch": 61,
                "velocity": 51,
                "duration": 0.1840909,
                "tempo": 120.0
            },
            {
                "start_time": 55.1818182,
                "end_time": 55.5659091,
                "pitch": 68,
                "velocity": 51,
                "duration": 0.3840909,
                "tempo": 120.0
            },
            {
                "start_time": 55.5818182,
                "end_time": 55.7659091,
                "pitch": 68,
                "velocity": 51,
                "duration": 0.1840909,
                "tempo": 120.0
            },
            {
                "start_time": 55.7818182,
                "end_time": 55.9704545,
                "pitch": 70,
                "velocity": 51,
                "duration": 0.1886364,
                "tempo": 120.0
            },
            {
                "start_time": 55.9863636,
                "end_time": 56.175,
                "pitch": 71,
                "velocity": 51,
                "duration": 0.1886364,
                "tempo": 120.0
            },
            {
                "start_time": 56.1931818,
                "end_time": 56.3727273,
                "pitch": 75,
                "velocity": 51,
                "duration": 0.1795455,
                "tempo": 120.0
            },
            {
                "start_time": 56.3886364,
                "end_time": 56.5681818,
                "pitch": 71,
                "velocity": 51,
                "duration": 0.1795455,
                "tempo": 120.0
            },
            {
                "start_time": 56.7909091,
                "end_time": 57.3795455,
                "pitch": 68,
                "velocity": 51,
                "duration": 0.5886364,
                "tempo": 120.0
            },
            {
                "start_time": 57.3954545,
                "end_time": 57.7795455,
                "pitch": 75,
                "velocity": 51,
                "duration": 0.3840909,
                "tempo": 120.0
            },
            {
                "start_time": 57.7954545,
                "end_time": 57.975,
                "pitch": 78,
                "velocity": 51,
                "duration": 0.1795455,
                "tempo": 120.0
            },
            {
                "start_time": 57.9931818,
                "end_time": 58.1727273,
                "pitch": 71,
                "velocity": 51,
                "duration": 0.1795455,
                "tempo": 120.0
            },
            {
                "start_time": 58.3886364,
                "end_time": 58.9704545,
                "pitch": 68,
                "velocity": 51,
                "duration": 0.5818182,
                "tempo": 120.0
            },
            {
                "start_time": 58.9886364,
                "end_time": 59.3818182,
                "pitch": 63,
                "velocity": 51,
                "duration": 0.3931818,
                "tempo": 120.0
            },
            {
                "start_time": 59.3977273,
                "end_time": 59.775,
                "pitch": 64,
                "velocity": 51,
                "duration": 0.3772727,
                "tempo": 120.0
            },
            {
                "start_time": 59.7909091,
                "end_time": 59.975,
                "pitch": 61,
                "velocity": 51,
                "duration": 0.1840909,
                "tempo": 120.0
            },
            {
                "start_time": 59.9909091,
                "end_time": 60.375,
                "pitch": 68,
                "velocity": 51,
                "duration": 0.3840909,
                "tempo": 120.0
            },
            {
                "start_time": 60.3909091,
                "end_time": 60.575,
                "pitch": 68,
                "velocity": 51,
                "duration": 0.1840909,
                "tempo": 120.0
            },
            {
                "start_time": 60.5909091,
                "end_time": 60.7795455,
                "pitch": 64,
                "velocity": 51,
                "duration": 0.1886364,
                "tempo": 120.0
            },
            {
                "start_time": 60.7954545,
                "end_time": 60.9840909,
                "pitch": 61,
                "velocity": 51,
                "duration": 0.1886364,
                "tempo": 120.0
            },
            {
                "start_time": 61.0022727,
                "end_time": 61.3772727,
                "pitch": 64,
                "velocity": 51,
                "duration": 0.375,
                "tempo": 120.0
            },
            {
                "start_time": 61.3931818,
                "end_time": 61.5772727,
                "pitch": 61,
                "velocity": 51,
                "duration": 0.1840909,
                "tempo": 120.0
            },
            {
                "start_time": 61.5931818,
                "end_time": 61.9772727,
                "pitch": 68,
                "velocity": 51,
                "duration": 0.3840909,
                "tempo": 120.0
            },
            {
                "start_time": 61.9931818,
                "end_time": 62.1772727,
                "pitch": 68,
                "velocity": 51,
                "duration": 0.1840909,
                "tempo": 120.0
            },
            {
                "start_time": 62.1931818,
                "end_time": 62.3772727,
                "pitch": 70,
                "velocity": 51,
                "duration": 0.1840909,
                "tempo": 120.0
            },
            {
                "start_time": 62.3931818,
                "end_time": 62.5772727,
                "pitch": 71,
                "velocity": 51,
                "duration": 0.1840909,
                "tempo": 120.0
            },
            {
                "start_time": 62.5931818,
                "end_time": 64.1727273,
                "pitch": 56,
                "velocity": 51,
                "duration": 1.5795455,
                "tempo": 120.0
            },
            {
                "start_time": 64.1886364,
                "end_time": 64.7863636,
                "pitch": 55,
                "velocity": 51,
                "duration": 0.5977273,
                "tempo": 120.0
            },
            {
                "start_time": 64.8022727,
                "end_time": 64.9772727,
                "pitch": 55,
                "velocity": 51,
                "duration": 0.175,
                "tempo": 120.0
            },
            {
                "start_time": 65.1931818,
                "end_time": 65.375,
                "pitch": 63,
                "velocity": 51,
                "duration": 0.1818182,
                "tempo": 120.0
            },
            {
                "start_time": 65.3931818,
                "end_time": 65.5840909,
                "pitch": 66,
                "velocity": 51,
                "duration": 0.1909091,
                "tempo": 120.0
            },
            {
                "start_time": 65.6022727,
                "end_time": 65.7954545,
                "pitch": 67,
                "velocity": 51,
                "duration": 0.1931818,
                "tempo": 120.0
            }
        ],
        "Lead 2 (sawtooth)": [
            {
                "start_time": 27.3045455,
                "end_time": 28.9045455,
                "pitch": 68,
                "velocity": 51,
                "duration": 1.6,
                "tempo": 120.0
            },
            {
                "start_time": 28.9204545,
                "end_time": 29.4931818,
                "pitch": 74,
                "velocity": 51,
                "duration": 0.5727273,
                "tempo": 120.0
            },
            {
                "start_time": 29.5090909,
                "end_time": 29.6886364,
                "pitch": 75,
                "velocity": 51,
                "duration": 0.1795455,
                "tempo": 120.0
            },
            {
                "start_time": 30.5204545,
                "end_time": 32.1045455,
                "pitch": 68,
                "velocity": 51,
                "duration": 1.5840909,
                "tempo": 120.0
            },
            {
                "start_time": 32.1227273,
                "end_time": 32.7022727,
                "pitch": 74,
                "velocity": 51,
                "duration": 0.5795455,
                "tempo": 120.0
            },
            {
                "start_time": 32.7181818,
                "end_time": 32.8977273,
                "pitch": 75,
                "velocity": 51,
                "duration": 0.1795455,
                "tempo": 120.0
            },
            {
                "start_time": 33.7363636,
                "end_time": 33.9204545,
                "pitch": 68,
                "velocity": 51,
                "duration": 0.1840909,
                "tempo": 120.0
            },
            {
                "start_time": 33.9363636,
                "end_time": 34.1204545,
                "pitch": 70,
                "velocity": 51,
                "duration": 0.1840909,
                "tempo": 120.0
            },
            {
                "start_time": 34.1363636,
                "end_time": 34.3181818,
                "pitch": 71,
                "velocity": 51,
                "duration": 0.1818182,
                "tempo": 120.0
            },
            {
                "start_time": 34.3340909,
                "end_time": 34.5136364,
                "pitch": 74,
                "velocity": 51,
                "duration": 0.1795455,
                "tempo": 120.0
            },
            {
                "start_time": 34.5295455,
                "end_time": 34.7136364,
                "pitch": 75,
                "velocity": 51,
                "duration": 0.1840909,
                "tempo": 120.0
            },
            {
                "start_time": 34.7295455,
                "end_time": 34.9136364,
                "pitch": 79,
                "velocity": 51,
                "duration": 0.1840909,
                "tempo": 120.0
            },
            {
                "start_time": 34.9295455,
                "end_time": 35.1090909,
                "pitch": 80,
                "velocity": 51,
                "duration": 0.1795455,
                "tempo": 120.0
            },
            {
                "start_time": 35.125,
                "end_time": 35.3045455,
                "pitch": 82,
                "velocity": 51,
                "duration": 0.1795455,
                "tempo": 120.0
            },
            {
                "start_time": 35.3204545,
                "end_time": 35.5090909,
                "pitch": 83,
                "velocity": 51,
                "duration": 0.1886364,
                "tempo": 120.0
            },
            {
                "start_time": 35.5272727,
                "end_time": 35.7159091,
                "pitch": 85,
                "velocity": 51,
                "duration": 0.1886364,
                "tempo": 120.0
            },
            {
                "start_time": 35.7318182,
                "end_time": 35.9159091,
                "pitch": 82,
                "velocity": 51,
                "duration": 0.1840909,
                "tempo": 120.0
            },
            {
                "start_time": 35.9318182,
                "end_time": 36.1159091,
                "pitch": 80,
                "velocity": 51,
                "duration": 0.1840909,
                "tempo": 120.0
            },
            {
                "start_time": 36.1318182,
                "end_time": 36.3113636,
                "pitch": 79,
                "velocity": 51,
                "duration": 0.1795455,
                "tempo": 120.0
            },
            {
                "start_time": 36.3272727,
                "end_time": 36.5090909,
                "pitch": 75,
                "velocity": 51,
                "duration": 0.1818182,
                "tempo": 120.0
            },
            {
                "start_time": 36.525,
                "end_time": 36.7113636,
                "pitch": 79,
                "velocity": 51,
                "duration": 0.1863636,
                "tempo": 120.0
            },
            {
                "start_time": 36.7295455,
                "end_time": 36.9181818,
                "pitch": 82,
                "velocity": 51,
                "duration": 0.1886364,
                "tempo": 120.0
            },
            {
                "start_time": 37.1409091,
                "end_time": 37.3295455,
                "pitch": 80,
                "velocity": 51,
                "duration": 0.1886364,
                "tempo": 120.0
            },
            {
                "start_time": 37.5454545,
                "end_time": 37.7295455,
                "pitch": 82,
                "velocity": 51,
                "duration": 0.1840909,
                "tempo": 120.0
            },
            {
                "start_time": 37.9454545,
                "end_time": 38.1295455,
                "pitch": 83,
                "velocity": 51,
                "duration": 0.1840909,
                "tempo": 120.0
            },
            {
                "start_time": 38.3477273,
                "end_time": 38.5318182,
                "pitch": 85,
                "velocity": 51,
                "duration": 0.1840909,
                "tempo": 120.0
            },
            {
                "start_time": 38.55,
                "end_time": 40.1363636,
                "pitch": 75,
                "velocity": 51,
                "duration": 1.5863636,
                "tempo": 120.0
            },
            {
                "start_time": 65.8136364,
                "end_time": 67.3954545,
                "pitch": 68,
                "velocity": 51,
                "duration": 1.5818182,
                "tempo": 120.0
            },
            {
                "start_time": 67.4113636,
                "end_time": 67.9931818,
                "pitch": 74,
                "velocity": 51,
                "duration": 0.5818182,
                "tempo": 120.0
            },
            {
                "start_time": 68.0090909,
                "end_time": 68.1886364,
                "pitch": 75,
                "velocity": 51,
                "duration": 0.1795455,
                "tempo": 120.0
            },
            {
                "start_time": 69.0159091,
                "end_time": 70.6045455,
                "pitch": 68,
                "velocity": 51,
                "duration": 1.5886364,
                "tempo": 120.0
            },
            {
                "start_time": 70.6204545,
                "end_time": 71.2,
                "pitch": 74,
                "velocity": 51,
                "duration": 0.5795455,
                "tempo": 120.0
            },
            {
                "start_time": 71.2181818,
                "end_time": 71.3977273,
                "pitch": 75,
                "velocity": 51,
                "duration": 0.1795455,
                "tempo": 120.0
            },
            {
                "start_time": 72.2340909,
                "end_time": 72.4181818,
                "pitch": 68,
                "velocity": 51,
                "duration": 0.1840909,
                "tempo": 120.0
            },
            {
                "start_time": 72.4363636,
                "end_time": 72.6181818,
                "pitch": 70,
                "velocity": 51,
                "duration": 0.1818182,
                "tempo": 120.0
            },
            {
                "start_time": 72.6363636,
                "end_time": 72.8159091,
                "pitch": 71,
                "velocity": 51,
                "duration": 0.1795455,
                "tempo": 120.0
            },
            {
                "start_time": 72.8318182,
                "end_time": 73.0113636,
                "pitch": 74,
                "velocity": 51,
                "duration": 0.1795455,
                "tempo": 120.0
            },
            {
                "start_time": 73.0272727,
                "end_time": 73.2113636,
                "pitch": 75,
                "velocity": 51,
                "duration": 0.1840909,
                "tempo": 120.0
            },
            {
                "start_time": 73.2295455,
                "end_time": 73.4136364,
                "pitch": 79,
                "velocity": 51,
                "duration": 0.1840909,
                "tempo": 120.0
            },
            {
                "start_time": 73.4295455,
                "end_time": 73.6136364,
                "pitch": 80,
                "velocity": 51,
                "duration": 0.1840909,
                "tempo": 120.0
            },
            {
                "start_time": 73.6295455,
                "end_time": 73.8136364,
                "pitch": 82,
                "velocity": 51,
                "duration": 0.1840909,
                "tempo": 120.0
            },
            {
                "start_time": 73.8295455,
                "end_time": 74.0159091,
                "pitch": 83,
                "velocity": 51,
                "duration": 0.1863636,
                "tempo": 120.0
            },
            {
                "start_time": 74.0318182,
                "end_time": 74.2159091,
                "pitch": 85,
                "velocity": 51,
                "duration": 0.1840909,
                "tempo": 120.0
            },
            {
                "start_time": 74.2340909,
                "end_time": 74.4181818,
                "pitch": 82,
                "velocity": 51,
                "duration": 0.1840909,
                "tempo": 120.0
            },
            {
                "start_time": 74.4340909,
                "end_time": 74.6181818,
                "pitch": 80,
                "velocity": 51,
                "duration": 0.1840909,
                "tempo": 120.0
            },
            {
                "start_time": 74.6363636,
                "end_time": 74.8181818,
                "pitch": 79,
                "velocity": 51,
                "duration": 0.1818182,
                "tempo": 120.0
            },
            {
                "start_time": 74.8363636,
                "end_time": 75.0181818,
                "pitch": 75,
                "velocity": 51,
                "duration": 0.1818182,
                "tempo": 120.0
            },
            {
                "start_time": 75.0363636,
                "end_time": 75.2204545,
                "pitch": 79,
                "velocity": 51,
                "duration": 0.1840909,
                "tempo": 120.0
            },
            {
                "start_time": 75.2363636,
                "end_time": 75.4204545,
                "pitch": 82,
                "velocity": 51,
                "duration": 0.1840909,
                "tempo": 120.0
            },
            {
                "start_time": 75.6431818,
                "end_time": 75.8318182,
                "pitch": 80,
                "velocity": 51,
                "duration": 0.1886364,
                "tempo": 120.0
            },
            {
                "start_time": 76.05,
                "end_time": 76.2340909,
                "pitch": 82,
                "velocity": 51,
                "duration": 0.1840909,
                "tempo": 120.0
            },
            {
                "start_time": 76.4522727,
                "end_time": 76.6363636,
                "pitch": 83,
                "velocity": 51,
                "duration": 0.1840909,
                "tempo": 120.0
            },
            {
                "start_time": 76.8522727,
                "end_time": 77.0386364,
                "pitch": 85,
                "velocity": 51,
                "duration": 0.1863636,
                "tempo": 120.0
            },
            {
                "start_time": 77.0545455,
                "end_time": 77.4386364,
                "pitch": 74,
                "velocity": 51,
                "duration": 0.3840909,
                "tempo": 120.0
            },
            {
                "start_time": 77.8477273,
                "end_time": 78.2318182,
                "pitch": 74,
                "velocity": 51,
                "duration": 0.3840909,
                "tempo": 120.0
            },
            {
                "start_time": 78.6522727,
                "end_time": 79.0454545,
                "pitch": 74,
                "velocity": 51,
                "duration": 0.3931818,
                "tempo": 120.0
            }
        ]
    }
}