{
    "mood": "happy",
    "instruments": {
        "Electric Guitar (clean)": [
            {
                "start_time": 0.2409091,
                "end_time": 0.6613636,
                "pitch": 63,
                "velocity": 51,
                "duration": 0.4204545,
                "tempo": 120.0
            },
            {
                "start_time": 0.6795455,
                "end_time": 0.9545455,
                "pitch": 63,
                "velocity": 51,
                "duration": 0.275,
                "tempo": 120.0
            },
            {
                "start_time": 0.9704545,
                "end_time": 1.2545455,
                "pitch": 63,
                "velocity": 51,
                "duration": 0.2840909,
                "tempo": 120.0
            },
            {
                "start_time": 1.2727273,
                "end_time": 1.5545455,
                "pitch": 59,
                "velocity": 51,
                "duration": 0.2818182,
                "tempo": 120.0
            },
            {
                "start_time": 1.5727273,
                "end_time": 1.8659091,
                "pitch": 60,
                "velocity": 51,
                "duration": 0.2931818,
                "tempo": 120.0
            },
            {
                "start_time": 1.8818182,
                "end_time": 2.1568182,
                "pitch": 62,
                "velocity": 51,
                "duration": 0.275,
                "tempo": 120.0
            },
            {
                "start_time": 2.1727273,
                "end_time": 2.4590909,
                "pitch": 59,
                "velocity": 51,
                "duration": 0.2863636,
                "tempo": 120.0
            },
            {
                "start_time": 2.475,
                "end_time": 2.9590909,
                "pitch": 55,
                "velocity": 51,
                "duration": 0.4840909,
                "tempo": 120.0
            },
            {
                "start_time": 2.9772727,
                "end_time": 3.8613636,
                "pitch": 55,
                "velocity": 51,
                "duration": 0.8840909,
                "tempo": 120.0
            },
            {
                "start_time": 3.8772727,
                "end_time": 3.9272727,
                "pitch": 62,
                "velocity": 51,
                "duration": 0.05,
                "tempo": 120.0
            },
            {
                "start_time": 4.2886364,
                "end_time": 4.5318182,
                "pitch": 62,
                "velocity": 51,
                "duration": 0.2431818,
                "tempo": 120.0
            },
            {
                "start_time": 4.8818182,
                "end_time": 4.9659091,
                "pitch": 56,
                "velocity": 51,
                "duration": 0.0840909,
                "tempo": 120.0
            },
            {
                "start_time": 5.4909091,
                "end_time": 5.5727273,
                "pitch": 56,
                "velocity": 51,
                "duration": 0.0818182,
                "tempo": 120.0
            },
            {
                "start_time": 6.2886364,
                "end_time": 6.3681818,
                "pitch": 55,
                "velocity": 51,
                "duration": 0.0795455,
                "tempo": 120.0
            },
            {
                "start_time": 6.6954545,
                "end_time": 7.2704545,
                "pitch": 55,
                "velocity": 51,
                "duration": 0.575,
                "tempo": 120.0
            },
            {
                "start_time": 7.2863636,
                "end_time": 7.8795455,
                "pitch": 57,
                "velocity": 51,
                "duration": 0.5931818,
                "tempo": 120.0
            },
            {
                "start_time": 7.8977273,
                "end_time": 8.4704545,
                "pitch": 60,
                "velocity": 51,
                "duration": 0.5727273,
                "tempo": 120.0
            },
            {
                "start_time": 8.6886364,
                "end_time": 9.0727273,
                "pitch": 62,
                "velocity": 51,
                "duration": 0.3840909,
                "tempo": 120.0
            },
            {
                "start_time": 9.0886364,
                "end_time": 9.1727273,
                "pitch": 63,
                "velocity": 51,
                "duration": 0.0840909,
                "tempo": 120.0
            },
            {
                "start_time": 9.3909091,
                "end_time": 9.4409091,
                "pitch": 65,
                "velocity": 51,
                "duration": 0.05,
                "tempo": 120.0
            },
            {
                "start_time": 9.8931818,
                "end_time": 10.2772727,
                "pitch": 63,
                "velocity": 51,
                "duration": 0.3840909,
                "tempo": 120.0
            },
            {
                "start_time": 10.2931818,
                "end_time": 10.5772727,
                "pitch": 63,
                "velocity": 51,
                "duration": 0.2840909,
                "tempo": 120.0
            },
            {
                "start_time": 10.5931818,
                "end_time": 10.8795455,
                "pitch": 63,
                "velocity": 51,
                "duration": 0.2863636,
                "tempo": 120.0
            },
            {
                "start_time": 10.8954545,
                "end_time": 11.1795455,
                "pitch": 59,
                "velocity": 51,
                "duration": 0.2840909,
                "tempo": 120.0
            },
            {
                "start_time": 11.1954545,
                "end_time": 11.4886364,
                "pitch": 60,
                "velocity": 51,
                "duration": 0.2931818,
                "tempo": 120.0
            },
            {
                "start_time": 11.5068182,
                "end_time": 11.7818182,
                "pitch": 62,
                "velocity": 51,
                "duration": 0.275,
                "tempo": 120.0
            },
            {
                "start_time": 11.7977273,
                "end_time": 12.0818182,
                "pitch": 59,
                "velocity": 51,
                "duration": 0.2840909,
                "tempo": 120.0
            },
            {
                "start_time": 12.0977273,
                "end_time": 12.5818182,
                "pitch": 55,
                "velocity": 51,
                "duration": 0.4840909,
                "tempo": 120.0
            },
            {
                "start_time": 12.5977273,
                "end_time": 13.4840909,
                "pitch": 55,
                "velocity": 51,
                "duration": 0.8863636,
                "tempo": 120.0
            },
            {
                "start_time": 13.5022727,
                "end_time": 13.5840909,
                "pitch": 62,
                "velocity": 51,
                "duration": 0.0818182,
                "tempo": 120.0
            },
            {
                "start_time": 13.9113636,
                "end_time": 14.4886364,
                "pitch": 62,
                "velocity": 51,
                "duration": 0.5772727,
                "tempo": 120.0
            },
            {
                "start_time": 14.5045455,
                "end_time": 14.5886364,
                "pitch": 56,
                "velocity": 51,
                "duration": 0.0840909,
                "tempo": 120.0
            },
            {
                "start_time": 15.1068182,
                "end_time": 15.1909091,
                "pitch": 56,
                "velocity": 51,
                "duration": 0.0840909,
                "tempo": 120.0
            },
            {
                "start_time": 15.9136364,
                "end_time": 15.9931818,
                "pitch": 55,
                "velocity": 51,
                "duration": 0.0795455,
                "tempo": 120.0
            },
            {
                "start_time": 16.3204545,
                "end_time": 16.7454545,
                "pitch": 55,
                "velocity": 51,
                "duration": 0.425,
                "tempo": 120.0
            },
            {
                "start_time": 17.2136364,
                "end_time": 17.5068182,
                "pitch": 58,
                "velocity": 51,
                "duration": 0.2931818,
                "tempo": 120.0
            },
            {
                "start_time": 17.525,
                "end_time": 17.8,
                "pitch": 60,
                "velocity": 51,
                "duration": 0.275,
                "tempo": 120.0
            },
            {
                "start_time": 17.8159091,
                "end_time": 18.1,
                "pitch": 62,
                "velocity": 51,
                "duration": 0.2840909,
                "tempo": 120.0
            },
            {
                "start_time": 18.1181818,
                "end_time": 18.7136364,
                "pitch": 63,
                "velocity": 51,
                "duration": 0.5954545,
                "tempo": 120.0
            },
            {
                "start_time": 18.7295455,
                "end_time": 19.0545455,
                "pitch": 62,
                "velocity": 51,
                "duration": 0.325,
                "tempo": 120.0
            },
            {
                "start_time": 19.5227273,
                "end_time": 19.9090909,
                "pitch": 63,
                "velocity": 51,
                "duration": 0.3863636,
                "tempo": 120.0
            },
            {
                "start_time": 19.925,
                "end_time": 20.2181818,
                "pitch": 63,
                "velocity": 51,
                "duration": 0.2931818,
                "tempo": 120.0
            },
            {
                "start_time": 20.2363636,
                "end_time": 20.3181818,
                "pitch": 60,
                "velocity": 51,
                "duration": 0.0818182,
                "tempo": 120.0
            },
            {
                "start_time": 20.7295455,
                "end_time": 21.1136364,
                "pitch": 63,
                "velocity": 51,
                "duration": 0.3840909,
                "tempo": 120.0
            },
            {
                "start_time": 21.1295455,
                "end_time": 21.4159091,
                "pitch": 63,
                "velocity": 51,
                "duration": 0.2863636,
                "tempo": 120.0
            },
            {
                "start_time": 21.4318182,
                "end_time": 21.5159091,
                "pitch": 60,
                "velocity": 51,
                "duration": 0.0840909,
                "tempo": 120.0
            },
            {
                "start_time": 21.9340909,
                "end_time": 22.3181818,
                "pitch": 63,
                "velocity": 51,
                "duration": 0.3840909,
                "tempo": 120.0
            },
            {
                "start_time": 22.3340909,
                "end_time": 22.6204545,
                "pitch": 63,
                "velocity": 51,
                "duration": 0.2863636,
                "tempo": 120.0
            },
            {
                "start_time": 22.6363636,
                "end_time": 22.7204545,
                "pitch": 58,
                "velocity": 51,
                "duration": 0.0840909,
                "tempo": 120.0
            },
            {
                "start_time": 23.1386364,
                "end_time": 23.4295455,
                "pitch": 55,
                "velocity": 51,
                "duration": 0.2909091,
                "tempo": 120.0
            },
            {
                "start_time": 23.4454545,
                "end_time": 23.5318182,
                "pitch": 56,
                "velocity": 51,
                "duration": 0.0863636,
                "tempo": 120.0
            },
            {
                "start_time": 23.55,
                "end_time": 23.6318182,
                "pitch": 58,
                "velocity": 51,
                "duration": 0.0818182,
                "tempo": 120.0
            },
            {
                "start_time": 23.8409091,
                "end_time": 23.9272727,
                "pitch": 55,
                "velocity": 51,
                "duration": 0.0863636,
                "tempo": 120.0
            },
            {
                "start_time": 24.3454545,
                "end_time": 24.7272727,
                "pitch": 63,
                "velocity": 51,
                "duration": 0.3818182,
                "tempo": 120.0
            },
            {
                "start_time": 24.7454545,
                "end_time": 25.0272727,
                "pitch": 63,
                "velocity": 51,
                "duration": 0.2818182,
                "tempo": 120.0
            },
            {
                "start_time": 25.0454545,
                "end_time": 25.1272727,
                "pitch": 60,
                "velocity": 51,
                "duration": 0.0818182,
                "tempo": 120.0
            },
            {
                "start_time": 25.5477273,
                "end_time": 25.9318182,
                "pitch": 63,
                "velocity": 51,
                "duration": 0.3840909,
                "tempo": 120.0
            },
            {
                "start_time": 25.95,
                "end_time": 26.2340909,
                "pitch": 63,
                "velocity": 51,
                "duration": 0.2840909,
                "tempo": 120.0
            },
            {
                "start_time": 26.25,
                "end_time": 26.3340909,
                "pitch": 60,
                "velocity": 51,
                "duration": 0.0840909,
                "tempo": 120.0
            },
            {
                "start_time": 26.7522727,
                "end_time": 27.1363636,
                "pitch": 67,
                "velocity": 51,
                "duration": 0.3840909,
                "tempo": 120.0
            },
            {
                "start_time": 27.1545455,
                "end_time": 27.9386364,
                "pitch": 63,
                "velocity": 51,
                "duration": 0.7840909,
                "tempo": 120.0
            },
            {
                "start_time": 27.9545455,
                "end_time": 28.3477273,
                "pitch": 60,
                "velocity": 51,
                "duration": 0.3931818,
                "tempo": 120.0
            },
            {
                "start_time": 28.3659091,
                "end_time": 28.6681818,
                "pitch": 58,
                "velocity": 51,
                "duration": 0.3022727,
                "tempo": 120.0
            },
            {
                "start_time": 29.1590909,
                "end_time": 29.2431818,
                "pitch": 60,
                "velocity": 51,
                "duration": 0.0840909,
                "tempo": 120.0
            },
            {
                "start_time": 29.5613636,
                "end_time": 30.3454545,
                "pitch": 60,
                "velocity": 51,
                "duration": 0.7840909,
                "tempo": 120.0
            },
            {
                "start_time": 30.3636364,
                "end_time": 30.4477273,
                "pitch": 63,
                "velocity": 51,
                "duration": 0.0840909,
                "tempo": 120.0
            },
            {
                "start_time": 30.775,
                "end_time": 31.2,
                "pitch": 63,
                "velocity": 51,
                "duration": 0.425,
                "tempo": 120.0
            },
            {
                "start_time": 31.5681818,
                "end_time": 31.9522727,
                "pitch": 55,
                "velocity": 51,
                "duration": 0.3840909,
                "tempo": 120.0
            },
            {
                "start_time": 31.9704545,
                "end_time": 32.1590909,
                "pitch": 58,
                "velocity": 51,
                "duration": 0.1886364,
                "tempo": 120.0
            },
            {
                "start_time": 32.1772727,
                "end_time": 32.2636364,
                "pitch": 63,
                "velocity": 51,
                "duration": 0.0863636,
                "tempo": 120.0
            },
            {
                "start_time": 32.475,
                "end_time": 32.5568182,
                "pitch": 58,
                "velocity": 51,
                "duration": 0.0818182,
                "tempo": 120.0
            },
            {
                "start_time": 32.7727273,
                "end_time": 32.8568182,
                "pitch": 55,
                "velocity": 51,
                "duration": 0.0840909,
                "tempo": 120.0
            },
            {
                "start_time": 33.0727273,
                "end_time": 33.1568182,
                "pitch": 51,
                "velocity": 51,
                "duration": 0.0840909,
                "tempo": 120.0
            },
            {
                "start_time": 33.1727273,
                "end_time": 33.2068182,
                "pitch": 62,
                "velocity": 51,
                "duration": 0.0340909,
                "tempo": 120.0
            },
            {
                "start_time": 33.3727273,
                "end_time": 33.4068182,
                "pitch": 62,
                "velocity": 51,
                "duration": 0.0340909,
                "tempo": 120.0
            }
        ],
        "Lead 2 (sawtooth)": [
            {
                "start_time": 0.0,
                "end_time": 0.5613636,
                "pitch": 55,
                "velocity": 64,
                "duration": 0.5613636,
                "tempo": 120.0
            },
            {
                "start_time": 0.5795455,
                "end_time": 0.9545455,
                "pitch": 58,
                "velocity": 64,
                "duration": 0.375,
                "tempo": 120.0
            },
            {
                "start_time": 0.9704545,
                "end_time": 1.2545455,
                "pitch": 67,
                "velocity": 64,
                "duration": 0.2840909,
                "tempo": 120.0
            },
            {
                "start_time": 1.2727273,
                "end_time": 1.5545455,
                "pitch": 65,
                "velocity": 64,
                "duration": 0.2818182,
                "tempo": 120.0
            },
            {
                "start_time": 1.5727273,
                "end_time": 1.8659091,
                "pitch": 63,
                "velocity": 64,
                "duration": 0.2931818,
                "tempo": 120.0
            },
            {
                "start_time": 1.8818182,
                "end_time": 2.1568182,
                "pitch": 62,
                "velocity": 64,
                "duration": 0.275,
                "tempo": 120.0
            },
            {
                "start_time": 2.1727273,
                "end_time": 2.4590909,
                "pitch": 63,
                "velocity": 64,
                "duration": 0.2863636,
                "tempo": 120.0
            },
            {
                "start_time": 2.475,
                "end_time": 2.9590909,
                "pitch": 62,
                "velocity": 64,
                "duration": 0.4840909,
                "tempo": 120.0
            },
            {
                "start_time": 2.9772727,
                "end_time": 4.3704545,
                "pitch": 60,
                "velocity": 64,
                "duration": 1.3931818,
                "tempo": 120.0
            },
            {
                "start_time": 4.8818182,
                "end_time": 5.1659091,
                "pitch": 63,
                "velocity": 64,
                "duration": 0.2840909,
                "tempo": 120.0
            },
            {
                "start_time": 5.1818182,
                "end_time": 5.475,
                "pitch": 60,
                "velocity": 64,
                "duration": 0.2931818,
                "tempo": 120.0
            },
            {
                "start_time": 5.4909091,
                "end_time": 5.7681818,
                "pitch": 63,
                "velocity": 64,
                "duration": 0.2772727,
                "tempo": 120.0
            },
            {
                "start_time": 5.7840909,
                "end_time": 6.0772727,
                "pitch": 60,
                "velocity": 64,
                "duration": 0.2931818,
                "tempo": 120.0
            },
            {
                "start_time": 6.0931818,
                "end_time": 6.2704545,
                "pitch": 63,
                "velocity": 64,
                "duration": 0.1772727,
                "tempo": 120.0
            },
            {
                "start_time": 6.2886364,
                "end_time": 6.5386364,
                "pitch": 60,
                "velocity": 64,
                "duration": 0.25,
                "tempo": 120.0
            },
            {
                "start_time": 6.575,
                "end_time": 6.6772727,
                "pitch": 63,
                "velocity": 64,
                "duration": 0.1022727,
                "tempo": 120.0
            },
            {
                "start_time": 7.1863636,
                "end_time": 7.2704545,
                "pitch": 63,
                "velocity": 64,
                "duration": 0.0840909,
                "tempo": 120.0
            },
            {
                "start_time": 7.2863636,
                "end_time": 7.5704545,
                "pitch": 65,
                "velocity": 64,
                "duration": 0.2840909,
                "tempo": 120.0
            },
            {
                "start_time": 7.5863636,
                "end_time": 7.8795455,
                "pitch": 63,
                "velocity": 64,
                "duration": 0.2931818,
                "tempo": 120.0
            },
            {
                "start_time": 7.8977273,
                "end_time": 8.1727273,
                "pitch": 65,
                "velocity": 64,
                "duration": 0.275,
                "tempo": 120.0
            },
            {
                "start_time": 8.1886364,
                "end_time": 8.4704545,
                "pitch": 67,
                "velocity": 64,
                "duration": 0.2818182,
                "tempo": 120.0
            },
            {
                "start_time": 8.4886364,
                "end_time": 8.6386364,
                "pitch": 65,
                "velocity": 64,
                "duration": 0.15,
                "tempo": 120.0
            },
            {
                "start_time": 8.6727273,
                "end_time": 8.9386364,
                "pitch": 58,
                "velocity": 64,
                "duration": 0.2659091,
                "tempo": 120.0
            },
            {
                "start_time": 8.9727273,
                "end_time": 9.675,
                "pitch": 58,
                "velocity": 64,
                "duration": 0.7022727,
                "tempo": 120.0
            },
            {
                "start_time": 9.6909091,
                "end_time": 10.1772727,
                "pitch": 55,
                "velocity": 64,
                "duration": 0.4863636,
                "tempo": 120.0
            },
            {
                "start_time": 10.1931818,
                "end_time": 10.5772727,
                "pitch": 58,
                "velocity": 64,
                "duration": 0.3840909,
                "tempo": 120.0
            },
            {
                "start_time": 10.5931818,
                "end_time": 10.8795455,
                "pitch": 67,
                "velocity": 64,
                "duration": 0.2863636,
                "tempo": 120.0
            },
            {
                "start_time": 10.8954545,
                "end_time": 11.1795455,
                "pitch": 65,
                "velocity": 64,
                "duration": 0.2840909,
                "tempo": 120.0
            },
            {
                "start_time": 11.1954545,
                "end_time": 11.4886364,
                "pitch": 63,
                "velocity": 64,
                "duration": 0.2931818,
                "tempo": 120.0
            },
            {
                "start_time": 11.5068182,
                "end_time": 11.7818182,
                "pitch": 62,
                "velocity": 64,
                "duration": 0.275,
                "tempo": 120.0
            },
            {
                "start_time": 11.7977273,
                "end_time": 12.0818182,
                "pitch": 63,
                "velocity": 64,
                "duration": 0.2840909,
                "tempo": 120.0
            },
            {
                "start_time": 12.0977273,
                "end_time": 12.5818182,
                "pitch": 62,
                "velocity": 64,
                "duration": 0.4840909,
                "tempo": 120.0
            },
            {
                "start_time": 12.5977273,
                "end_time": 13.9931818,
                "pitch": 60,
                "velocity": 64,
                "duration": 1.3954545,
                "tempo": 120.0
            },
            {
                "start_time": 14.5045455,
                "end_time": 14.7568182,
                "pitch": 63,
                "velocity": 64,
                "duration": 0.2522727,
                "tempo": 120.0
            },
            {
                "start_time": 14.7909091,
                "end_time": 15.0568182,
                "pitch": 60,
                "velocity": 64,
                "duration": 0.2659091,
                "tempo": 120.0
            },
            {
                "start_time": 15.0909091,
                "end_time": 15.3909091,
                "pitch": 63,
                "velocity": 64,
                "duration": 0.3,
                "tempo": 120.0
            },
            {
                "start_time": 15.4090909,
                "end_time": 15.7022727,
                "pitch": 60,
                "velocity": 64,
                "duration": 0.2931818,
                "tempo": 120.0
            },
            {
                "start_time": 15.7181818,
                "end_time": 15.8977273,
                "pitch": 63,
                "velocity": 64,
                "duration": 0.1795455,
                "tempo": 120.0
            },
            {
                "start_time": 15.9136364,
                "end_time": 16.2,
                "pitch": 60,
                "velocity": 64,
                "duration": 0.2863636,
                "tempo": 120.0
            },
            {
                "start_time": 16.2159091,
                "end_time": 16.3022727,
                "pitch": 63,
                "velocity": 64,
                "duration": 0.0863636,
                "tempo": 120.0
            },
            {
                "start_time": 16.8136364,
                "end_time": 16.8954545,
                "pitch": 63,
                "velocity": 64,
                "duration": 0.0818182,
                "tempo": 120.0
            },
            {
                "start_time": 16.9136364,
                "end_time": 17.1977273,
                "pitch": 65,
                "velocity": 64,
                "duration": 0.2840909,
                "tempo": 120.0
            },
            {
                "start_time": 17.2136364,
                "end_time": 17.5068182,
                "pitch": 67,
                "velocity": 64,
                "duration": 0.2931818,
                "tempo": 120.0
            },
            {
                "start_time": 17.525,
                "end_time": 17.8,
                "pitch": 68,
                "velocity": 64,
                "duration": 0.275,
                "tempo": 120.0
            },
            {
                "start_time": 17.8159091,
                "end_time": 18.1,
                "pitch": 70,
                "velocity": 64,
                "duration": 0.2840909,
                "tempo": 120.0
            },
            {
                "start_time": 18.1181818,
                "end_time": 18.7136364,
                "pitch": 72,
                "velocity": 64,
                "duration": 0.5954545,
                "tempo": 120.0
            },
            {
                "start_time": 18.7295455,
                "end_time": 19.3068182,
                "pitch": 70,
                "velocity": 64,
                "duration": 0.5772727,
                "tempo": 120.0
            },
            {
                "start_time": 19.3227273,
                "end_time": 20.2181818,
                "pitch": 68,
                "velocity": 64,
                "duration": 0.8954545,
                "tempo": 120.0
            },
            {
                "start_time": 20.2363636,
                "end_time": 20.5113636,
                "pitch": 70,
                "velocity": 64,
                "duration": 0.275,
                "tempo": 120.0
            },
            {
                "start_time": 20.5272727,
                "end_time": 20.8113636,
                "pitch": 72,
                "velocity": 64,
                "duration": 0.2840909,
                "tempo": 120.0
            },
            {
                "start_time": 20.8295455,
                "end_time": 21.1136364,
                "pitch": 70,
                "velocity": 64,
                "duration": 0.2840909,
                "tempo": 120.0
            },
            {
                "start_time": 21.1295455,
                "end_time": 21.4159091,
                "pitch": 68,
                "velocity": 64,
                "duration": 0.2863636,
                "tempo": 120.0
            },
            {
                "start_time": 21.4318182,
                "end_time": 21.7159091,
                "pitch": 72,
                "velocity": 64,
                "duration": 0.2840909,
                "tempo": 120.0
            },
            {
                "start_time": 21.7340909,
                "end_time": 22.3181818,
                "pitch": 70,
                "velocity": 64,
                "duration": 0.5840909,
                "tempo": 120.0
            },
            {
                "start_time": 22.3340909,
                "end_time": 22.9204545,
                "pitch": 67,
                "velocity": 64,
                "duration": 0.5863636,
                "tempo": 120.0
            },
            {
                "start_time": 22.9386364,
                "end_time": 23.4295455,
                "pitch": 63,
                "velocity": 64,
                "duration": 0.4909091,
                "tempo": 120.0
            },
            {
                "start_time": 23.4454545,
                "end_time": 23.825,
                "pitch": 67,
                "velocity": 64,
                "duration": 0.3795455,
                "tempo": 120.0
            },
            {
                "start_time": 23.8409091,
                "end_time": 24.0818182,
                "pitch": 63,
                "velocity": 64,
                "duration": 0.2409091,
                "tempo": 120.0
            },
            {
                "start_time": 24.4431818,
                "end_time": 25.0272727,
                "pitch": 68,
                "velocity": 64,
                "duration": 0.5840909,
                "tempo": 120.0
            },
            {
                "start_time": 25.0454545,
                "end_time": 25.3295455,
                "pitch": 70,
                "velocity": 64,
                "duration": 0.2840909,
                "tempo": 120.0
            },
            {
                "start_time": 25.3454545,
                "end_time": 25.6318182,
                "pitch": 72,
                "velocity": 64,
                "duration": 0.2863636,
                "tempo": 120.0
            },
            {
                "start_time": 25.6477273,
                "end_time": 25.9318182,
                "pitch": 70,
                "velocity": 64,
                "duration": 0.2840909,
                "tempo": 120.0
            },
            {
                "start_time": 25.95,
                "end_time": 26.2340909,
                "pitch": 68,
                "velocity": 64,
                "duration": 0.2840909,
                "tempo": 120.0
            },
            {
                "start_time": 26.25,
                "end_time": 26.5340909,
                "pitch": 72,
                "velocity": 64,
                "duration": 0.2840909,
                "tempo": 120.0
            },
            {
                "start_time": 26.55,
                "end_time": 27.1363636,
                "pitch": 75,
                "velocity": 64,
                "duration": 0.5863636,
                "tempo": 120.0
            },
            {
                "start_time": 27.1545455,
                "end_time": 27.7386364,
                "pitch": 70,
                "velocity": 64,
                "duration": 0.5840909,
                "tempo": 120.0
            },
            {
                "start_time": 27.7545455,
                "end_time": 28.3477273,
                "pitch": 79,
                "velocity": 64,
                "duration": 0.5931818,
                "tempo": 120.0
            },
            {
                "start_time": 28.3659091,
                "end_time": 28.9431818,
                "pitch": 76,
                "velocity": 64,
                "duration": 0.5772727,
                "tempo": 120.0
            },
            {
                "start_time": 28.9590909,
                "end_time": 29.8545455,
                "pitch": 77,
                "velocity": 64,
                "duration": 0.8954545,
                "tempo": 120.0
            },
            {
                "start_time": 29.8704545,
                "end_time": 29.9522727,
                "pitch": 77,
                "velocity": 64,
                "duration": 0.0818182,
                "tempo": 120.0
            },
            {
                "start_time": 29.9681818,
                "end_time": 30.05,
                "pitch": 71,
                "velocity": 64,
                "duration": 0.0818182,
                "tempo": 120.0
            },
            {
                "start_time": 30.0659091,
                "end_time": 30.1454545,
                "pitch": 72,
                "velocity": 64,
                "duration": 0.0795455,
                "tempo": 120.0
            },
            {
                "start_time": 30.1613636,
                "end_time": 30.3454545,
                "pitch": 83,
                "velocity": 64,
                "duration": 0.1840909,
                "tempo": 120.0
            },
            {
                "start_time": 30.3636364,
                "end_time": 30.6545455,
                "pitch": 82,
                "velocity": 64,
                "duration": 0.2909091,
                "tempo": 120.0
            },
            {
                "start_time": 30.6704545,
                "end_time": 30.9522727,
                "pitch": 80,
                "velocity": 64,
                "duration": 0.2818182,
                "tempo": 120.0
            },
            {
                "start_time": 30.9681818,
                "end_time": 31.2159091,
                "pitch": 79,
                "velocity": 64,
                "duration": 0.2477273,
                "tempo": 120.0
            },
            {
                "start_time": 31.25,
                "end_time": 32.5568182,
                "pitch": 75,
                "velocity": 64,
                "duration": 1.3068182,
                "tempo": 120.0
            }
        ],
        "Synth Bass 1": [
            {
                "start_time": 0.0,
                "end_time": 0.3522727,
                "pitch": 39,
                "velocity": 51,
                "duration": 0.3522727,
                "tempo": 120.0
            },
            {
                "start_time": 0.375,
                "end_time": 0.6613636,
                "pitch": 43,
                "velocity": 51,
                "duration": 0.2863636,
                "tempo": 120.0
            },
            {
                "start_time": 0.6795455,
                "end_time": 0.9227273,
                "pitch": 46,
                "velocity": 51,
                "duration": 0.2431818,
                "tempo": 120.0
            },
            {
                "start_time": 0.9545455,
                "end_time": 1.1545455,
                "pitch": 42,
                "velocity": 51,
                "duration": 0.2,
                "tempo": 120.0
            },
            {
                "start_time": 1.1704545,
                "end_time": 1.2545455,
                "pitch": 43,
                "velocity": 51,
                "duration": 0.0840909,
                "tempo": 120.0
            },
            {
                "start_time": 1.2727273,
                "end_time": 1.4545455,
                "pitch": 43,
                "velocity": 51,
                "duration": 0.1818182,
                "tempo": 120.0
            },
            {
                "start_time": 1.4727273,
                "end_time": 1.5545455,
                "pitch": 43,
                "velocity": 51,
                "duration": 0.0818182,
                "tempo": 120.0
            },
            {
                "start_time": 1.5727273,
                "end_time": 1.8659091,
                "pitch": 47,
                "velocity": 51,
                "duration": 0.2931818,
                "tempo": 120.0
            },
            {
                "start_time": 1.8818182,
                "end_time": 2.1568182,
                "pitch": 50,
                "velocity": 51,
                "duration": 0.275,
                "tempo": 120.0
            },
            {
                "start_time": 2.1727273,
                "end_time": 2.4590909,
                "pitch": 53,
                "velocity": 51,
                "duration": 0.2863636,
                "tempo": 120.0
            },
            {
                "start_time": 2.475,
                "end_time": 2.7590909,
                "pitch": 51,
                "velocity": 51,
                "duration": 0.2840909,
                "tempo": 120.0
            },
            {
                "start_time": 2.775,
                "end_time": 3.0590909,
                "pitch": 46,
                "velocity": 51,
                "duration": 0.2840909,
                "tempo": 120.0
            },
            {
                "start_time": 3.0772727,
                "end_time": 3.3590909,
                "pitch": 43,
                "velocity": 51,
                "duration": 0.2818182,
                "tempo": 120.0
            },
            {
                "start_time": 3.3772727,
                "end_time": 3.6590909,
                "pitch": 36,
                "velocity": 51,
                "duration": 0.2818182,
                "tempo": 120.0
            },
            {
                "start_time": 3.6772727,
                "end_time": 3.9613636,
                "pitch": 34,
                "velocity": 51,
                "duration": 0.2840909,
                "tempo": 120.0
            },
            {
                "start_time": 3.9772727,
                "end_time": 4.2704545,
                "pitch": 38,
                "velocity": 51,
                "duration": 0.2931818,
                "tempo": 120.0
            },
            {
                "start_time": 4.2886364,
                "end_time": 4.5636364,
                "pitch": 41,
                "velocity": 51,
                "duration": 0.275,
                "tempo": 120.0
            },
            {
                "start_time": 4.5795455,
                "end_time": 4.8636364,
                "pitch": 38,
                "velocity": 51,
                "duration": 0.2840909,
                "tempo": 120.0
            },
            {
                "start_time": 4.8818182,
                "end_time": 5.1659091,
                "pitch": 44,
                "velocity": 51,
                "duration": 0.2840909,
                "tempo": 120.0
            },
            {
                "start_time": 5.1818182,
                "end_time": 5.475,
                "pitch": 36,
                "velocity": 51,
                "duration": 0.2931818,
                "tempo": 120.0
            },
            {
                "start_time": 5.4909091,
                "end_time": 5.7681818,
                "pitch": 39,
                "velocity": 51,
                "duration": 0.2772727,
                "tempo": 120.0
            },
            {
                "start_time": 5.7840909,
                "end_time": 6.0772727,
                "pitch": 44,
                "velocity": 51,
                "duration": 0.2931818,
                "tempo": 120.0
            },
            {
                "start_time": 6.0931818,
                "end_time": 6.3681818,
                "pitch": 43,
                "velocity": 51,
                "duration": 0.275,
                "tempo": 120.0
            },
            {
                "start_time": 6.3840909,
                "end_time": 6.6772727,
                "pitch": 34,
                "velocity": 51,
                "duration": 0.2931818,
                "tempo": 120.0
            },
            {
                "start_time": 6.6954545,
                "end_time": 6.9386364,
                "pitch": 38,
                "velocity": 51,
                "duration": 0.2431818,
                "tempo": 120.0
            },
            {
                "start_time": 6.9704545,
                "end_time": 7.2704545,
                "pitch": 34,
                "velocity": 51,
                "duration": 0.3,
                "tempo": 120.0
            },
            {
                "start_time": 7.2863636,
                "end_time": 7.5704545,
                "pitch": 41,
                "velocity": 51,
                "duration": 0.2840909,
                "tempo": 120.0
            },
            {
                "start_time": 7.5863636,
                "end_time": 7.8795455,
                "pitch": 45,
                "velocity": 51,
                "duration": 0.2931818,
                "tempo": 120.0
            },
            {
                "start_time": 7.8977273,
                "end_time": 8.1727273,
                "pitch": 48,
                "velocity": 51,
                "duration": 0.275,
                "tempo": 120.0
            },
            {
                "start_time": 8.1886364,
                "end_time": 8.3704545,
                "pitch": 53,
                "velocity": 51,
                "duration": 0.1818182,
                "tempo": 120.0
            },
            {
                "start_time": 8.3886364,
                "end_time": 8.6727273,
                "pitch": 51,
                "velocity": 51,
                "duration": 0.2840909,
                "tempo": 120.0
            },
            {
                "start_time": 8.6886364,
                "end_time": 8.7727273,
                "pitch": 51,
                "velocity": 51,
                "duration": 0.0840909,
                "tempo": 120.0
            },
            {
                "start_time": 8.7886364,
                "end_time": 9.0727273,
                "pitch": 50,
                "velocity": 51,
                "duration": 0.2840909,
                "tempo": 120.0
            },
            {
                "start_time": 9.0886364,
                "end_time": 9.375,
                "pitch": 48,
                "velocity": 51,
                "duration": 0.2863636,
                "tempo": 120.0
            },
            {
                "start_time": 9.3909091,
                "end_time": 9.675,
                "pitch": 46,
                "velocity": 51,
                "duration": 0.2840909,
                "tempo": 120.0
            },
            {
                "start_time": 9.6909091,
                "end_time": 9.9431818,
                "pitch": 39,
                "velocity": 51,
                "duration": 0.2522727,
                "tempo": 120.0
            },
            {
                "start_time": 9.975,
                "end_time": 10.2772727,
                "pitch": 43,
                "velocity": 51,
                "duration": 0.3022727,
                "tempo": 120.0
            },
            {
                "start_time": 10.2931818,
                "end_time": 10.5772727,
                "pitch": 46,
                "velocity": 51,
                "duration": 0.2840909,
                "tempo": 120.0
            },
            {
                "start_time": 10.5931818,
                "end_time": 10.7772727,
                "pitch": 42,
                "velocity": 51,
                "duration": 0.1840909,
                "tempo": 120.0
            },
            {
                "start_time": 10.7954545,
                "end_time": 10.8795455,
                "pitch": 43,
                "velocity": 51,
                "duration": 0.0840909,
                "tempo": 120.0
            },
            {
                "start_time": 10.8954545,
                "end_time": 11.0795455,
                "pitch": 43,
                "velocity": 51,
                "duration": 0.1840909,
                "tempo": 120.0
            },
            {
                "start_time": 11.0954545,
                "end_time": 11.1795455,
                "pitch": 43,
                "velocity": 51,
                "duration": 0.0840909,
                "tempo": 120.0
            },
            {
                "start_time": 11.1954545,
                "end_time": 11.4886364,
                "pitch": 47,
                "velocity": 51,
                "duration": 0.2931818,
                "tempo": 120.0
            },
            {
                "start_time": 11.5068182,
                "end_time": 11.7818182,
                "pitch": 50,
                "velocity": 51,
                "duration": 0.275,
                "tempo": 120.0
            },
            {
                "start_time": 11.7977273,
                "end_time": 12.0818182,
                "pitch": 53,
                "velocity": 51,
                "duration": 0.2840909,
                "tempo": 120.0
            },
            {
                "start_time": 12.0977273,
                "end_time": 12.3818182,
                "pitch": 51,
                "velocity": 51,
                "duration": 0.2840909,
                "tempo": 120.0
            },
            {
                "start_time": 12.3977273,
                "end_time": 12.6818182,
                "pitch": 46,
                "velocity": 51,
                "duration": 0.2840909,
                "tempo": 120.0
            },
            {
                "start_time": 12.6977273,
                "end_time": 12.9840909,
                "pitch": 43,
                "velocity": 51,
                "duration": 0.2863636,
                "tempo": 120.0
            },
            {
                "start_time": 13.0,
                "end_time": 13.2840909,
                "pitch": 36,
                "velocity": 51,
                "duration": 0.2840909,
                "tempo": 120.0
            },
            {
                "start_time": 13.3022727,
                "end_time": 13.5840909,
                "pitch": 34,
                "velocity": 51,
                "duration": 0.2818182,
                "tempo": 120.0
            },
            {
                "start_time": 13.6022727,
                "end_time": 13.8954545,
                "pitch": 38,
                "velocity": 51,
                "duration": 0.2931818,
                "tempo": 120.0
            },
            {
                "start_time": 13.9113636,
                "end_time": 14.1863636,
                "pitch": 41,
                "velocity": 51,
                "duration": 0.275,
                "tempo": 120.0
            },
            {
                "start_time": 14.2045455,
                "end_time": 14.4886364,
                "pitch": 38,
                "velocity": 51,
                "duration": 0.2840909,
                "tempo": 120.0
            },
            {
                "start_time": 14.5045455,
                "end_time": 14.7909091,
                "pitch": 44,
                "velocity": 51,
                "duration": 0.2863636,
                "tempo": 120.0
            },
            {
                "start_time": 14.8068182,
                "end_time": 15.0909091,
                "pitch": 36,
                "velocity": 51,
                "duration": 0.2840909,
                "tempo": 120.0
            },
            {
                "start_time": 15.1068182,
                "end_time": 15.3909091,
                "pitch": 39,
                "velocity": 51,
                "duration": 0.2840909,
                "tempo": 120.0
            },
            {
                "start_time": 15.4090909,
                "end_time": 15.7022727,
                "pitch": 44,
                "velocity": 51,
                "duration": 0.2931818,
                "tempo": 120.0
            },
            {
                "start_time": 15.7181818,
                "end_time": 15.9931818,
                "pitch": 43,
                "velocity": 51,
                "duration": 0.275,
                "tempo": 120.0
            },
            {
                "start_time": 16.0090909,
                "end_time": 16.3022727,
                "pitch": 34,
                "velocity": 51,
                "duration": 0.2931818,
                "tempo": 120.0
            },
            {
                "start_time": 16.3204545,
                "end_time": 16.5636364,
                "pitch": 38,
                "velocity": 51,
                "duration": 0.2431818,
                "tempo": 120.0
            },
            {
                "start_time": 16.5954545,
                "end_time": 16.8954545,
                "pitch": 34,
                "velocity": 51,
                "duration": 0.3,
                "tempo": 120.0
            },
            {
                "start_time": 16.9136364,
                "end_time": 17.1977273,
                "pitch": 41,
                "velocity": 51,
                "duration": 0.2840909,
                "tempo": 120.0
            },
            {
                "start_time": 17.2136364,
                "end_time": 17.5068182,
                "pitch": 44,
                "velocity": 51,
                "duration": 0.2931818,
                "tempo": 120.0
            },
            {
                "start_time": 17.525,
                "end_time": 17.8,
                "pitch": 48,
                "velocity": 51,
                "duration": 0.275,
                "tempo": 120.0
            },
            {
                "start_time": 17.8159091,
                "end_time": 18.0,
                "pitch": 53,
                "velocity": 51,
                "duration": 0.1840909,
                "tempo": 120.0
            },
            {
                "start_time": 18.0181818,
                "end_time": 18.3022727,
                "pitch": 51,
                "velocity": 51,
                "duration": 0.2840909,
                "tempo": 120.0
            },
            {
                "start_time": 18.3181818,
                "end_time": 18.4022727,
                "pitch": 51,
                "velocity": 51,
                "duration": 0.0840909,
                "tempo": 120.0
            },
            {
                "start_time": 18.4204545,
                "end_time": 18.7136364,
                "pitch": 50,
                "velocity": 51,
                "duration": 0.2931818,
                "tempo": 120.0
            },
            {
                "start_time": 18.7295455,
                "end_time": 19.0045455,
                "pitch": 48,
                "velocity": 51,
                "duration": 0.275,
                "tempo": 120.0
            },
            {
                "start_time": 19.0204545,
                "end_time": 19.3068182,
                "pitch": 46,
                "velocity": 51,
                "duration": 0.2863636,
                "tempo": 120.0
            },
            {
                "start_time": 19.3227273,
                "end_time": 19.8090909,
                "pitch": 44,
                "velocity": 51,
                "duration": 0.4863636,
                "tempo": 120.0
            },
            {
                "start_time": 19.825,
                "end_time": 19.9090909,
                "pitch": 44,
                "velocity": 51,
                "duration": 0.0840909,
                "tempo": 120.0
            },
            {
                "start_time": 19.925,
                "end_time": 20.1159091,
                "pitch": 48,
                "velocity": 51,
                "duration": 0.1909091,
                "tempo": 120.0
            },
            {
                "start_time": 20.1318182,
                "end_time": 20.4136364,
                "pitch": 51,
                "velocity": 51,
                "duration": 0.2818182,
                "tempo": 120.0
            },
            {
                "start_time": 20.4295455,
                "end_time": 20.7113636,
                "pitch": 56,
                "velocity": 51,
                "duration": 0.2818182,
                "tempo": 120.0
            },
            {
                "start_time": 20.7295455,
                "end_time": 20.8113636,
                "pitch": 56,
                "velocity": 51,
                "duration": 0.0818182,
                "tempo": 120.0
            },
            {
                "start_time": 20.8295455,
                "end_time": 21.1136364,
                "pitch": 51,
                "velocity": 51,
                "duration": 0.2840909,
                "tempo": 120.0
            },
            {
                "start_time": 21.1295455,
                "end_time": 21.3159091,
                "pitch": 48,
                "velocity": 51,
                "duration": 0.1863636,
                "tempo": 120.0
            },
            {
                "start_time": 21.3318182,
                "end_time": 21.5159091,
                "pitch": 51,
                "velocity": 51,
                "duration": 0.1840909,
                "tempo": 120.0
            },
            {
                "start_time": 22.3340909,
                "end_time": 22.6204545,
                "pitch": 46,
                "velocity": 51,
                "duration": 0.2863636,
                "tempo": 120.0
            },
            {
                "start_time": 22.6363636,
                "end_time": 22.9204545,
                "pitch": 43,
                "velocity": 51,
                "duration": 0.2840909,
                "tempo": 120.0
            },
            {
                "start_time": 22.9386364,
                "end_time": 23.2227273,
                "pitch": 51,
                "velocity": 51,
                "duration": 0.2840909,
                "tempo": 120.0
            },
            {
                "start_time": 23.2386364,
                "end_time": 23.4295455,
                "pitch": 46,
                "velocity": 51,
                "duration": 0.1909091,
                "tempo": 120.0
            },
            {
                "start_time": 23.4454545,
                "end_time": 23.7272727,
                "pitch": 46,
                "velocity": 51,
                "duration": 0.2818182,
                "tempo": 120.0
            },
            {
                "start_time": 23.7454545,
                "end_time": 23.825,
                "pitch": 46,
                "velocity": 51,
                "duration": 0.0795455,
                "tempo": 120.0
            },
            {
                "start_time": 23.8409091,
                "end_time": 24.0318182,
                "pitch": 46,
                "velocity": 51,
                "duration": 0.1909091,
                "tempo": 120.0
            },
            {
                "start_time": 24.0477273,
                "end_time": 24.1340909,
                "pitch": 48,
                "velocity": 51,
                "duration": 0.0863636,
                "tempo": 120.0
            },
            {
                "start_time": 24.1522727,
                "end_time": 24.6272727,
                "pitch": 44,
                "velocity": 51,
                "duration": 0.475,
                "tempo": 120.0
            },
            {
                "start_time": 24.6431818,
                "end_time": 24.7272727,
                "pitch": 44,
                "velocity": 51,
                "duration": 0.0840909,
                "tempo": 120.0
            },
            {
                "start_time": 24.7454545,
                "end_time": 24.8954545,
                "pitch": 48,
                "velocity": 51,
                "duration": 0.15,
                "tempo": 120.0
            },
            {
                "start_time": 24.9272727,
                "end_time": 25.2295455,
                "pitch": 51,
                "velocity": 51,
                "duration": 0.3022727,
                "tempo": 120.0
            },
            {
                "start_time": 25.2454545,
                "end_time": 25.5295455,
                "pitch": 56,
                "velocity": 51,
                "duration": 0.2840909,
                "tempo": 120.0
            },
            {
                "start_time": 25.5477273,
                "end_time": 25.6318182,
                "pitch": 56,
                "velocity": 51,
                "duration": 0.0840909,
                "tempo": 120.0
            },
            {
                "start_time": 25.6477273,
                "end_time": 25.9318182,
                "pitch": 51,
                "velocity": 51,
                "duration": 0.2840909,
                "tempo": 120.0
            },
            {
                "start_time": 25.95,
                "end_time": 26.2340909,
                "pitch": 48,
                "velocity": 51,
                "duration": 0.2840909,
                "tempo": 120.0
            },
            {
                "start_time": 26.25,
                "end_time": 26.7340909,
                "pitch": 44,
                "velocity": 51,
                "duration": 0.4840909,
                "tempo": 120.0
            },
            {
                "start_time": 26.7522727,
                "end_time": 26.8022727,
                "pitch": 51,
                "velocity": 51,
                "duration": 0.05,
                "tempo": 120.0
            },
            {
                "start_time": 27.1545455,
                "end_time": 27.4477273,
                "pitch": 46,
                "velocity": 51,
                "duration": 0.2931818,
                "tempo": 120.0
            },
            {
                "start_time": 27.4636364,
                "end_time": 27.7386364,
                "pitch": 43,
                "velocity": 51,
                "duration": 0.275,
                "tempo": 120.0
            },
            {
                "start_time": 27.7545455,
                "end_time": 28.0386364,
                "pitch": 51,
                "velocity": 51,
                "duration": 0.2840909,
                "tempo": 120.0
            },
            {
                "start_time": 28.0545455,
                "end_time": 28.3477273,
                "pitch": 48,
                "velocity": 51,
                "duration": 0.2931818,
                "tempo": 120.0
            },
            {
                "start_time": 28.3659091,
                "end_time": 28.55,
                "pitch": 46,
                "velocity": 51,
                "duration": 0.1840909,
                "tempo": 120.0
            },
            {
                "start_time": 28.5681818,
                "end_time": 28.9431818,
                "pitch": 46,
                "velocity": 51,
                "duration": 0.375,
                "tempo": 120.0
            },
            {
                "start_time": 28.9590909,
                "end_time": 29.0431818,
                "pitch": 44,
                "velocity": 51,
                "duration": 0.0840909,
                "tempo": 120.0
            },
            {
                "start_time": 29.4613636,
                "end_time": 29.5431818,
                "pitch": 44,
                "velocity": 51,
                "duration": 0.0818182,
                "tempo": 120.0
            },
            {
                "start_time": 29.5613636,
                "end_time": 29.7159091,
                "pitch": 51,
                "velocity": 51,
                "duration": 0.1545455,
                "tempo": 120.0
            },
            {
                "start_time": 29.75,
                "end_time": 30.0159091,
                "pitch": 44,
                "velocity": 51,
                "duration": 0.2659091,
                "tempo": 120.0
            },
            {
                "start_time": 30.05,
                "end_time": 30.1454545,
                "pitch": 56,
                "velocity": 51,
                "duration": 0.0954545,
                "tempo": 120.0
            },
            {
                "start_time": 30.1613636,
                "end_time": 30.4477273,
                "pitch": 44,
                "velocity": 51,
                "duration": 0.2863636,
                "tempo": 120.0
            },
            {
                "start_time": 30.4636364,
                "end_time": 30.7568182,
                "pitch": 47,
                "velocity": 51,
                "duration": 0.2931818,
                "tempo": 120.0
            },
            {
                "start_time": 30.775,
                "end_time": 30.9522727,
                "pitch": 50,
                "velocity": 51,
                "duration": 0.1772727,
                "tempo": 120.0
            },
            {
                "start_time": 30.9681818,
                "end_time": 31.25,
                "pitch": 51,
                "velocity": 51,
                "duration": 0.2818182,
                "tempo": 120.0
            },
            {
                "start_time": 31.2659091,
                "end_time": 31.8522727,
                "pitch": 51,
                "velocity": 51,
                "duration": 0.5863636,
                "tempo": 120.0
            },
            {
                "start_time": 31.8704545,
                "end_time": 31.9522727,
                "pitch": 51,
                "velocity": 51,
                "duration": 0.0818182,
                "tempo": 120.0
            },
            {
                "start_time": 31.9704545,
                "end_time": 32.1590909,
                "pitch": 55,
                "velocity": 51,
                "duration": 0.1886364,
                "tempo": 120.0
            },
            {
                "start_time": 32.1772727,
                "end_time": 32.2636364,
                "pitch": 58,
                "velocity": 51,
                "duration": 0.0863636,
                "tempo": 120.0
            },
            {
                "start_time": 32.475,
                "end_time": 32.5568182,
                "pitch": 55,
                "velocity": 51,
                "duration": 0.0818182,
                "tempo": 120.0
            },
            {
                "start_time": 32.7727273,
                "end_time": 32.8568182,
                "pitch": 51,
                "velocity": 51,
                "duration": 0.0840909,
                "tempo": 120.0
            },
            {
                "start_time": 33.0727273,
                "end_time": 33.1568182,
                "pitch": 46,
                "velocity": 51,
                "duration": 0.0840909,
                "tempo": 120.0
            },
            {
                "start_time": 33.1727273,
                "end_time": 33.2568182,
                "pitch": 58,
                "velocity": 51,
                "duration": 0.0840909,
                "tempo": 120.0
            },
            {
                "start_time": 33.3727273,
                "end_time": 33.4227273,
                "pitch": 58,
                "velocity": 51,
                "duration": 0.05,
                "tempo": 120.0
            }
        ]
    }
}