{
    "mood": "happy",
    "instruments": {
        "Oboe": [
            {
                "start_time": 34.5909091,
                "end_time": 34.675,
                "pitch": 72,
                "velocity": 51,
                "duration": 0.0840909,
                "tempo": 120.0
            },
            {
                "start_time": 34.8931818,
                "end_time": 34.975,
                "pitch": 70,
                "velocity": 51,
                "duration": 0.0818182,
                "tempo": 120.0
            },
            {
                "start_time": 34.9931818,
                "end_time": 35.4772727,
                "pitch": 68,
                "velocity": 51,
                "duration": 0.4840909,
                "tempo": 120.0
            },
            {
                "start_time": 35.4931818,
                "end_time": 35.7772727,
                "pitch": 65,
                "velocity": 51,
                "duration": 0.2840909,
                "tempo": 120.0
            },
            {
                "start_time": 35.7931818,
                "end_time": 35.8772727,
                "pitch": 68,
                "velocity": 51,
                "duration": 0.0840909,
                "tempo": 120.0
            },
            {
                "start_time": 36.0931818,
                "end_time": 36.9295455,
                "pitch": 68,
                "velocity": 51,
                "duration": 0.8363636,
                "tempo": 120.0
            },
            {
                "start_time": 36.9977273,
                "end_time": 37.0795455,
                "pitch": 63,
                "velocity": 51,
                "duration": 0.0818182,
                "tempo": 120.0
            },
            {
                "start_time": 37.0977273,
                "end_time": 37.2795455,
                "pitch": 65,
                "velocity": 51,
                "duration": 0.1818182,
                "tempo": 120.0
            },
            {
                "start_time": 37.2977273,
                "end_time": 38.2818182,
                "pitch": 68,
                "velocity": 51,
                "duration": 0.9840909,
                "tempo": 120.0
            },
            {
                "start_time": 38.5,
                "end_time": 39.3840909,
                "pitch": 68,
                "velocity": 51,
                "duration": 0.8840909,
                "tempo": 120.0
            },
            {
                "start_time": 39.4022727,
                "end_time": 39.4840909,
                "pitch": 72,
                "velocity": 51,
                "duration": 0.0818182,
                "tempo": 120.0
            },
            {
                "start_time": 39.7022727,
                "end_time": 39.7840909,
                "pitch": 70,
                "velocity": 51,
                "duration": 0.0818182,
                "tempo": 120.0
            },
            {
                "start_time": 39.8022727,
                "end_time": 40.2818182,
                "pitch": 68,
                "velocity": 51,
                "duration": 0.4795455,
                "tempo": 120.0
            },
            {
                "start_time": 40.3,
                "end_time": 40.5863636,
                "pitch": 65,
                "velocity": 51,
                "duration": 0.2863636,
                "tempo": 120.0
            },
            {
                "start_time": 40.6045455,
                "end_time": 40.6863636,
                "pitch": 68,
                "velocity": 51,
                "duration": 0.0818182,
                "tempo": 120.0
            },
            {
                "start_time": 40.9045455,
                "end_time": 41.5909091,
                "pitch": 68,
                "velocity": 51,
                "duration": 0.6863636,
                "tempo": 120.0
            },
            {
                "start_time": 41.6068182,
                "end_time": 41.7909091,
                "pitch": 75,
                "velocity": 51,
                "duration": 0.1840909,
                "tempo": 120.0
            },
            {
                "start_time": 41.8068182,
                "end_time": 41.8909091,
                "pitch": 75,
                "velocity": 51,
                "duration": 0.0840909,
                "tempo": 120.0
            },
            {
                "start_time": 42.1068182,
                "end_time": 42.1909091,
                "pitch": 72,
                "velocity": 51,
                "duration": 0.0840909,
                "tempo": 120.0
            },
            {
                "start_time": 42.4,
                "end_time": 43.0931818,
                "pitch": 68,
                "velocity": 51,
                "duration": 0.6931818,
                "tempo": 120.0
            },
            {
                "start_time": 43.4090909,
                "end_time": 43.5931818,
                "pitch": 72,
                "velocity": 51,
                "duration": 0.1840909,
                "tempo": 120.0
            },
            {
                "start_time": 43.6090909,
                "end_time": 43.6931818,
                "pitch": 73,
                "velocity": 51,
                "duration": 0.0840909,
                "tempo": 120.0
            },
            {
                "start_time": 43.7090909,
                "end_time": 43.8931818,
                "pitch": 72,
                "velocity": 51,
                "duration": 0.1840909,
                "tempo": 120.0
            },
            {
                "start_time": 43.9113636,
                "end_time": 43.9954545,
                "pitch": 68,
                "velocity": 51,
                "duration": 0.0840909,
                "tempo": 120.0
            },
            {
                "start_time": 44.5090909,
                "end_time": 44.7977273,
                "pitch": 65,
                "velocity": 51,
                "duration": 0.2886364,
                "tempo": 120.0
            },
            {
                "start_time": 44.8136364,
                "end_time": 44.8977273,
                "pitch": 68,
                "velocity": 51,
                "duration": 0.0840909,
                "tempo": 120.0
            },
            {
                "start_time": 44.9136364,
                "end_time": 45.0977273,
                "pitch": 65,
                "velocity": 51,
                "duration": 0.1840909,
                "tempo": 120.0
            },
            {
                "start_time": 45.1136364,
                "end_time": 45.1977273,
                "pitch": 68,
                "velocity": 51,
                "duration": 0.0840909,
                "tempo": 120.0
            },
            {
                "start_time": 45.7113636,
                "end_time": 45.7977273,
                "pitch": 58,
                "velocity": 51,
                "duration": 0.0863636,
                "tempo": 120.0
            },
            {
                "start_time": 45.8159091,
                "end_time": 45.9,
                "pitch": 63,
                "velocity": 51,
                "duration": 0.0840909,
                "tempo": 120.0
            },
            {
                "start_time": 45.9159091,
                "end_time": 46.0,
                "pitch": 60,
                "velocity": 51,
                "duration": 0.0840909,
                "tempo": 120.0
            },
            {
                "start_time": 46.0159091,
                "end_time": 46.1,
                "pitch": 63,
                "velocity": 51,
                "duration": 0.0840909,
                "tempo": 120.0
            },
            {
                "start_time": 46.1159091,
                "end_time": 46.2,
                "pitch": 65,
                "velocity": 51,
                "duration": 0.0840909,
                "tempo": 120.0
            },
            {
                "start_time": 46.2159091,
                "end_time": 46.3,
                "pitch": 63,
                "velocity": 51,
                "duration": 0.0840909,
                "tempo": 120.0
            },
            {
                "start_time": 46.3159091,
                "end_time": 46.4,
                "pitch": 65,
                "velocity": 51,
                "duration": 0.0840909,
                "tempo": 120.0
            },
            {
                "start_time": 46.4159091,
                "end_time": 46.5,
                "pitch": 68,
                "velocity": 51,
                "duration": 0.0840909,
                "tempo": 120.0
            },
            {
                "start_time": 46.5159091,
                "end_time": 46.6,
                "pitch": 65,
                "velocity": 51,
                "duration": 0.0840909,
                "tempo": 120.0
            },
            {
                "start_time": 46.6159091,
                "end_time": 46.7,
                "pitch": 70,
                "velocity": 51,
                "duration": 0.0840909,
                "tempo": 120.0
            },
            {
                "start_time": 46.7159091,
                "end_time": 46.85,
                "pitch": 72,
                "velocity": 51,
                "duration": 0.1340909,
                "tempo": 120.0
            },
            {
                "start_time": 46.9181818,
                "end_time": 47.9022727,
                "pitch": 68,
                "velocity": 51,
                "duration": 0.9840909,
                "tempo": 120.0
            },
            {
                "start_time": 47.9204545,
                "end_time": 48.0022727,
                "pitch": 70,
                "velocity": 51,
                "duration": 0.0818182,
                "tempo": 120.0
            },
            {
                "start_time": 48.0204545,
                "end_time": 48.1022727,
                "pitch": 72,
                "velocity": 51,
                "duration": 0.0818182,
                "tempo": 120.0
            },
            {
                "start_time": 48.1204545,
                "end_time": 48.2022727,
                "pitch": 73,
                "velocity": 51,
                "duration": 0.0818182,
                "tempo": 120.0
            },
            {
                "start_time": 48.2204545,
                "end_time": 48.4045455,
                "pitch": 75,
                "velocity": 51,
                "duration": 0.1840909,
                "tempo": 120.0
            },
            {
                "start_time": 48.4204545,
                "end_time": 48.5045455,
                "pitch": 77,
                "velocity": 51,
                "duration": 0.0840909,
                "tempo": 120.0
            },
            {
                "start_time": 48.7159091,
                "end_time": 48.7954545,
                "pitch": 80,
                "velocity": 51,
                "duration": 0.0795455,
                "tempo": 120.0
            },
            {
                "start_time": 49.3204545,
                "end_time": 49.4068182,
                "pitch": 72,
                "velocity": 51,
                "duration": 0.0863636,
                "tempo": 120.0
            },
            {
                "start_time": 49.4227273,
                "end_time": 49.6068182,
                "pitch": 75,
                "velocity": 51,
                "duration": 0.1840909,
                "tempo": 120.0
            },
            {
                "start_time": 49.6227273,
                "end_time": 49.7068182,
                "pitch": 77,
                "velocity": 51,
                "duration": 0.0840909,
                "tempo": 120.0
            },
            {
                "start_time": 49.925,
                "end_time": 50.0090909,
                "pitch": 80,
                "velocity": 51,
                "duration": 0.0840909,
                "tempo": 120.0
            },
            {
                "start_time": 50.225,
                "end_time": 50.3090909,
                "pitch": 75,
                "velocity": 51,
                "duration": 0.0840909,
                "tempo": 120.0
            },
            {
                "start_time": 50.525,
                "end_time": 50.6090909,
                "pitch": 77,
                "velocity": 51,
                "duration": 0.0840909,
                "tempo": 120.0
            },
            {
                "start_time": 50.8272727,
                "end_time": 50.9090909,
                "pitch": 80,
                "velocity": 51,
                "duration": 0.0818182,
                "tempo": 120.0
            },
            {
                "start_time": 51.1272727,
                "end_time": 51.2090909,
                "pitch": 75,
                "velocity": 51,
                "duration": 0.0818182,
                "tempo": 120.0
            },
            {
                "start_time": 51.2272727,
                "end_time": 51.4113636,
                "pitch": 83,
                "velocity": 51,
                "duration": 0.1840909,
                "tempo": 120.0
            },
            {
                "start_time": 51.4272727,
                "end_time": 51.5113636,
                "pitch": 82,
                "velocity": 51,
                "duration": 0.0840909,
                "tempo": 120.0
            },
            {
                "start_time": 51.7272727,
                "end_time": 53.0136364,
                "pitch": 80,
                "velocity": 51,
                "duration": 1.2863636,
                "tempo": 120.0
            },
            {
                "start_time": 53.0318182,
                "end_time": 53.4386364,
                "pitch": 67,
                "velocity": 51,
                "duration": 0.4068182,
                "tempo": 120.0
            },
            {
                "start_time": 53.4386364,
                "end_time": 53.5204545,
                "pitch": 67,
                "velocity": 51,
                "duration": 0.0818182,
                "tempo": 120.0
            },
            {
                "start_time": 53.5204545,
                "end_time": 53.6159091,
                "pitch": 67,
                "velocity": 51,
                "duration": 0.0954545,
                "tempo": 120.0
            },
            {
                "start_time": 53.6318182,
                "end_time": 54.2159091,
                "pitch": 72,
                "velocity": 51,
                "duration": 0.5840909,
                "tempo": 120.0
            },
            {
                "start_time": 54.2318182,
                "end_time": 54.3704545,
                "pitch": 68,
                "velocity": 51,
                "duration": 0.1386364,
                "tempo": 120.0
            },
            {
                "start_time": 54.5431818,
                "end_time": 54.7204545,
                "pitch": 65,
                "velocity": 51,
                "duration": 0.1772727,
                "tempo": 120.0
            },
            {
                "start_time": 54.7363636,
                "end_time": 54.8681818,
                "pitch": 65,
                "velocity": 51,
                "duration": 0.1318182,
                "tempo": 120.0
            },
            {
                "start_time": 55.0363636,
                "end_time": 55.1181818,
                "pitch": 63,
                "velocity": 51,
                "duration": 0.0818182,
                "tempo": 120.0
            },
            {
                "start_time": 55.1363636,
                "end_time": 55.2681818,
                "pitch": 65,
                "velocity": 51,
                "duration": 0.1318182,
                "tempo": 120.0
            },
            {
                "start_time": 55.3363636,
                "end_time": 55.7454545,
                "pitch": 67,
                "velocity": 51,
                "duration": 0.4090909,
                "tempo": 120.0
            },
            {
                "start_time": 55.7454545,
                "end_time": 55.8272727,
                "pitch": 67,
                "velocity": 51,
                "duration": 0.0818182,
                "tempo": 120.0
            },
            {
                "start_time": 55.8272727,
                "end_time": 56.0227273,
                "pitch": 67,
                "velocity": 51,
                "duration": 0.1954545,
                "tempo": 120.0
            },
            {
                "start_time": 56.0386364,
                "end_time": 56.6227273,
                "pitch": 72,
                "velocity": 51,
                "duration": 0.5840909,
                "tempo": 120.0
            },
            {
                "start_time": 56.6386364,
                "end_time": 56.8295455,
                "pitch": 75,
                "velocity": 51,
                "duration": 0.1909091,
                "tempo": 120.0
            },
            {
                "start_time": 56.8454545,
                "end_time": 56.9818182,
                "pitch": 68,
                "velocity": 51,
                "duration": 0.1363636,
                "tempo": 120.0
            },
            {
                "start_time": 57.1431818,
                "end_time": 57.275,
                "pitch": 65,
                "velocity": 51,
                "duration": 0.1318182,
                "tempo": 120.0
            },
            {
                "start_time": 57.4431818,
                "end_time": 57.575,
                "pitch": 63,
                "velocity": 51,
                "duration": 0.1318182,
                "tempo": 120.0
            },
            {
                "start_time": 57.7431818,
                "end_time": 57.825,
                "pitch": 65,
                "velocity": 51,
                "duration": 0.0818182,
                "tempo": 120.0
            },
            {
                "start_time": 57.8431818,
                "end_time": 58.25,
                "pitch": 67,
                "velocity": 51,
                "duration": 0.4068182,
                "tempo": 120.0
            },
            {
                "start_time": 58.25,
                "end_time": 58.3318182,
                "pitch": 67,
                "velocity": 51,
                "duration": 0.0818182,
                "tempo": 120.0
            },
            {
                "start_time": 58.3318182,
                "end_time": 58.4272727,
                "pitch": 67,
                "velocity": 51,
                "duration": 0.0954545,
                "tempo": 120.0
            },
            {
                "start_time": 58.4454545,
                "end_time": 59.0295455,
                "pitch": 72,
                "velocity": 51,
                "duration": 0.5840909,
                "tempo": 120.0
            },
            {
                "start_time": 59.0454545,
                "end_time": 59.1840909,
                "pitch": 68,
                "velocity": 51,
                "duration": 0.1386364,
                "tempo": 120.0
            },
            {
                "start_time": 59.3568182,
                "end_time": 59.5340909,
                "pitch": 65,
                "velocity": 51,
                "duration": 0.1772727,
                "tempo": 120.0
            },
            {
                "start_time": 59.55,
                "end_time": 59.9318182,
                "pitch": 65,
                "velocity": 51,
                "duration": 0.3818182,
                "tempo": 120.0
            },
            {
                "start_time": 59.9477273,
                "end_time": 60.0318182,
                "pitch": 65,
                "velocity": 51,
                "duration": 0.0840909,
                "tempo": 120.0
            },
            {
                "start_time": 60.0477273,
                "end_time": 60.1318182,
                "pitch": 67,
                "velocity": 51,
                "duration": 0.0840909,
                "tempo": 120.0
            },
            {
                "start_time": 60.1477273,
                "end_time": 60.2318182,
                "pitch": 68,
                "velocity": 51,
                "duration": 0.0840909,
                "tempo": 120.0
            },
            {
                "start_time": 60.2477273,
                "end_time": 61.0431818,
                "pitch": 70,
                "velocity": 51,
                "duration": 0.7954545,
                "tempo": 120.0
            },
            {
                "start_time": 61.0590909,
                "end_time": 61.1431818,
                "pitch": 70,
                "velocity": 51,
                "duration": 0.0840909,
                "tempo": 120.0
            },
            {
                "start_time": 61.1590909,
                "end_time": 61.3431818,
                "pitch": 68,
                "velocity": 51,
                "duration": 0.1840909,
                "tempo": 120.0
            },
            {
                "start_time": 61.3590909,
                "end_time": 61.6431818,
                "pitch": 70,
                "velocity": 51,
                "duration": 0.2840909,
                "tempo": 120.0
            },
            {
                "start_time": 61.7613636,
                "end_time": 61.8454545,
                "pitch": 65,
                "velocity": 51,
                "duration": 0.0840909,
                "tempo": 120.0
            },
            {
                "start_time": 61.8613636,
                "end_time": 61.9454545,
                "pitch": 67,
                "velocity": 51,
                "duration": 0.0840909,
                "tempo": 120.0
            },
            {
                "start_time": 61.9613636,
                "end_time": 62.0454545,
                "pitch": 68,
                "velocity": 51,
                "duration": 0.0840909,
                "tempo": 120.0
            },
            {
                "start_time": 62.0613636,
                "end_time": 62.2454545,
                "pitch": 69,
                "velocity": 51,
                "duration": 0.1840909,
                "tempo": 120.0
            },
            {
                "start_time": 62.2613636,
                "end_time": 62.3454545,
                "pitch": 70,
                "velocity": 51,
                "duration": 0.0840909,
                "tempo": 120.0
            },
            {
                "start_time": 62.3613636,
                "end_time": 62.5386364,
                "pitch": 72,
                "velocity": 51,
                "duration": 0.1772727,
                "tempo": 120.0
            },
            {
                "start_time": 62.5568182,
                "end_time": 63.8386364,
                "pitch": 75,
                "velocity": 51,
                "duration": 1.2818182,
                "tempo": 120.0
            },
            {
                "start_time": 64.1568182,
                "end_time": 64.3409091,
                "pitch": 77,
                "velocity": 51,
                "duration": 0.1840909,
                "tempo": 120.0
            },
            {
                "start_time": 64.3568182,
                "end_time": 64.4409091,
                "pitch": 75,
                "velocity": 51,
                "duration": 0.0840909,
                "tempo": 120.0
            },
            {
                "start_time": 64.4568182,
                "end_time": 64.6409091,
                "pitch": 77,
                "velocity": 51,
                "duration": 0.1840909,
                "tempo": 120.0
            },
            {
                "start_time": 64.6568182,
                "end_time": 64.7409091,
                "pitch": 75,
                "velocity": 51,
                "duration": 0.0840909,
                "tempo": 120.0
            },
            {
                "start_time": 64.7568182,
                "end_time": 64.9409091,
                "pitch": 80,
                "velocity": 51,
                "duration": 0.1840909,
                "tempo": 120.0
            },
            {
                "start_time": 64.9568182,
                "end_time": 65.0409091,
                "pitch": 80,
                "velocity": 51,
                "duration": 0.0840909,
                "tempo": 120.0
            }
        ],
        "Acoustic Grand Piano": [
            {
                "start_time": 4.4931818,
                "end_time": 4.5795455,
                "pitch": 63,
                "velocity": 51,
                "duration": 0.0863636,
                "tempo": 120.0
            },
            {
                "start_time": 4.5977273,
                "end_time": 4.7818182,
                "pitch": 65,
                "velocity": 51,
                "duration": 0.1840909,
                "tempo": 120.0
            },
            {
                "start_time": 4.7977273,
                "end_time": 6.0818182,
                "pitch": 68,
                "velocity": 51,
                "duration": 1.2840909,
                "tempo": 120.0
            },
            {
                "start_time": 6.6,
                "end_time": 6.6818182,
                "pitch": 68,
                "velocity": 51,
                "duration": 0.0818182,
                "tempo": 120.0
            },
            {
                "start_time": 6.7,
                "end_time": 6.8818182,
                "pitch": 65,
                "velocity": 51,
                "duration": 0.1818182,
                "tempo": 120.0
            },
            {
                "start_time": 6.9,
                "end_time": 6.9818182,
                "pitch": 63,
                "velocity": 51,
                "duration": 0.0818182,
                "tempo": 120.0
            },
            {
                "start_time": 7.0,
                "end_time": 7.1818182,
                "pitch": 60,
                "velocity": 51,
                "duration": 0.1818182,
                "tempo": 120.0
            },
            {
                "start_time": 7.2,
                "end_time": 9.2863636,
                "pitch": 56,
                "velocity": 51,
                "duration": 2.0863636,
                "tempo": 120.0
            },
            {
                "start_time": 9.3022727,
                "end_time": 9.3863636,
                "pitch": 63,
                "velocity": 51,
                "duration": 0.0840909,
                "tempo": 120.0
            },
            {
                "start_time": 9.4045455,
                "end_time": 9.5863636,
                "pitch": 65,
                "velocity": 51,
                "duration": 0.1818182,
                "tempo": 120.0
            },
            {
                "start_time": 9.6045455,
                "end_time": 11.3431818,
                "pitch": 68,
                "velocity": 51,
                "duration": 1.7386364,
                "tempo": 120.0
            },
            {
                "start_time": 11.4090909,
                "end_time": 11.4931818,
                "pitch": 68,
                "velocity": 51,
                "duration": 0.0840909,
                "tempo": 120.0
            },
            {
                "start_time": 11.5090909,
                "end_time": 11.6931818,
                "pitch": 65,
                "velocity": 51,
                "duration": 0.1840909,
                "tempo": 120.0
            },
            {
                "start_time": 11.7113636,
                "end_time": 11.7954545,
                "pitch": 63,
                "velocity": 51,
                "duration": 0.0840909,
                "tempo": 120.0
            },
            {
                "start_time": 11.8113636,
                "end_time": 11.9954545,
                "pitch": 60,
                "velocity": 51,
                "duration": 0.1840909,
                "tempo": 120.0
            },
            {
                "start_time": 12.0113636,
                "end_time": 13.3,
                "pitch": 56,
                "velocity": 51,
                "duration": 1.2886364,
                "tempo": 120.0
            },
            {
                "start_time": 13.6159091,
                "end_time": 13.65,
                "pitch": 68,
                "velocity": 51,
                "duration": 0.0340909,
                "tempo": 120.0
            },
            {
                "start_time": 13.6659091,
                "end_time": 13.7,
                "pitch": 69,
                "velocity": 51,
                "duration": 0.0340909,
                "tempo": 120.0
            },
            {
                "start_time": 13.7159091,
                "end_time": 13.8,
                "pitch": 70,
                "velocity": 51,
                "duration": 0.0840909,
                "tempo": 120.0
            },
            {
                "start_time": 13.8159091,
                "end_time": 13.9,
                "pitch": 72,
                "velocity": 51,
                "duration": 0.0840909,
                "tempo": 120.0
            },
            {
                "start_time": 13.9181818,
                "end_time": 14.05,
                "pitch": 73,
                "velocity": 51,
                "duration": 0.1318182,
                "tempo": 120.0
            },
            {
                "start_time": 14.1181818,
                "end_time": 14.2,
                "pitch": 75,
                "velocity": 51,
                "duration": 0.0818182,
                "tempo": 120.0
            },
            {
                "start_time": 14.2181818,
                "end_time": 14.4022727,
                "pitch": 77,
                "velocity": 51,
                "duration": 0.1840909,
                "tempo": 120.0
            },
            {
                "start_time": 14.4181818,
                "end_time": 16.1568182,
                "pitch": 80,
                "velocity": 51,
                "duration": 1.7386364,
                "tempo": 120.0
            },
            {
                "start_time": 16.225,
                "end_time": 16.3090909,
                "pitch": 80,
                "velocity": 51,
                "duration": 0.0840909,
                "tempo": 120.0
            },
            {
                "start_time": 16.325,
                "end_time": 16.5090909,
                "pitch": 77,
                "velocity": 51,
                "duration": 0.1840909,
                "tempo": 120.0
            },
            {
                "start_time": 16.5272727,
                "end_time": 16.6090909,
                "pitch": 75,
                "velocity": 51,
                "duration": 0.0818182,
                "tempo": 120.0
            },
            {
                "start_time": 16.6272727,
                "end_time": 16.8090909,
                "pitch": 72,
                "velocity": 51,
                "duration": 0.1818182,
                "tempo": 120.0
            },
            {
                "start_time": 16.8272727,
                "end_time": 18.5659091,
                "pitch": 68,
                "velocity": 51,
                "duration": 1.7386364,
                "tempo": 120.0
            },
            {
                "start_time": 18.6318182,
                "end_time": 18.7159091,
                "pitch": 63,
                "velocity": 51,
                "duration": 0.0840909,
                "tempo": 120.0
            },
            {
                "start_time": 18.7340909,
                "end_time": 18.9181818,
                "pitch": 65,
                "velocity": 51,
                "duration": 0.1840909,
                "tempo": 120.0
            },
            {
                "start_time": 18.9340909,
                "end_time": 19.0181818,
                "pitch": 68,
                "velocity": 51,
                "duration": 0.0840909,
                "tempo": 120.0
            },
            {
                "start_time": 19.0340909,
                "end_time": 19.2181818,
                "pitch": 75,
                "velocity": 51,
                "duration": 0.1840909,
                "tempo": 120.0
            },
            {
                "start_time": 19.2363636,
                "end_time": 21.1272727,
                "pitch": 80,
                "velocity": 51,
                "duration": 1.8909091,
                "tempo": 120.0
            },
            {
                "start_time": 21.1431818,
                "end_time": 21.3772727,
                "pitch": 83,
                "velocity": 51,
                "duration": 0.2340909,
                "tempo": 120.0
            },
            {
                "start_time": 21.3931818,
                "end_time": 21.4772727,
                "pitch": 82,
                "velocity": 51,
                "duration": 0.0840909,
                "tempo": 120.0
            },
            {
                "start_time": 21.6454545,
                "end_time": 22.9340909,
                "pitch": 80,
                "velocity": 51,
                "duration": 1.2886364,
                "tempo": 120.0
            },
            {
                "start_time": 23.2409091,
                "end_time": 23.275,
                "pitch": 68,
                "velocity": 51,
                "duration": 0.0340909,
                "tempo": 120.0
            },
            {
                "start_time": 23.2931818,
                "end_time": 23.3272727,
                "pitch": 69,
                "velocity": 51,
                "duration": 0.0340909,
                "tempo": 120.0
            },
            {
                "start_time": 23.3454545,
                "end_time": 23.4318182,
                "pitch": 70,
                "velocity": 51,
                "duration": 0.0863636,
                "tempo": 120.0
            },
            {
                "start_time": 23.4477273,
                "end_time": 23.5340909,
                "pitch": 72,
                "velocity": 51,
                "duration": 0.0863636,
                "tempo": 120.0
            },
            {
                "start_time": 23.5522727,
                "end_time": 23.7363636,
                "pitch": 73,
                "velocity": 51,
                "duration": 0.1840909,
                "tempo": 120.0
            },
            {
                "start_time": 23.7522727,
                "end_time": 23.8363636,
                "pitch": 75,
                "velocity": 51,
                "duration": 0.0840909,
                "tempo": 120.0
            },
            {
                "start_time": 23.8545455,
                "end_time": 24.0386364,
                "pitch": 80,
                "velocity": 51,
                "duration": 0.1840909,
                "tempo": 120.0
            },
            {
                "start_time": 24.0545455,
                "end_time": 24.1386364,
                "pitch": 80,
                "velocity": 51,
                "duration": 0.0840909,
                "tempo": 120.0
            },
            {
                "start_time": 24.1545455,
                "end_time": 24.4386364,
                "pitch": 80,
                "velocity": 51,
                "duration": 0.2840909,
                "tempo": 120.0
            },
            {
                "start_time": 24.4545455,
                "end_time": 24.7409091,
                "pitch": 80,
                "velocity": 32,
                "duration": 0.2863636,
                "tempo": 120.0
            },
            {
                "start_time": 24.7568182,
                "end_time": 25.0409091,
                "pitch": 80,
                "velocity": 32,
                "duration": 0.2840909,
                "tempo": 120.0
            },
            {
                "start_time": 25.0590909,
                "end_time": 25.3431818,
                "pitch": 80,
                "velocity": 40,
                "duration": 0.2840909,
                "tempo": 120.0
            },
            {
                "start_time": 25.3590909,
                "end_time": 25.6454545,
                "pitch": 80,
                "velocity": 40,
                "duration": 0.2863636,
                "tempo": 120.0
            },
            {
                "start_time": 25.6613636,
                "end_time": 25.9454545,
                "pitch": 80,
                "velocity": 40,
                "duration": 0.2840909,
                "tempo": 120.0
            },
            {
                "start_time": 25.9613636,
                "end_time": 26.2454545,
                "pitch": 80,
                "velocity": 40,
                "duration": 0.2840909,
                "tempo": 120.0
            },
            {
                "start_time": 26.2636364,
                "end_time": 26.5477273,
                "pitch": 80,
                "velocity": 40,
                "duration": 0.2840909,
                "tempo": 120.0
            },
            {
                "start_time": 26.5636364,
                "end_time": 26.85,
                "pitch": 80,
                "velocity": 40,
                "duration": 0.2863636,
                "tempo": 120.0
            },
            {
                "start_time": 26.8659091,
                "end_time": 27.15,
                "pitch": 80,
                "velocity": 40,
                "duration": 0.2840909,
                "tempo": 120.0
            },
            {
                "start_time": 27.1681818,
                "end_time": 27.45,
                "pitch": 80,
                "velocity": 40,
                "duration": 0.2818182,
                "tempo": 120.0
            },
            {
                "start_time": 27.4681818,
                "end_time": 27.7522727,
                "pitch": 80,
                "velocity": 40,
                "duration": 0.2840909,
                "tempo": 120.0
            },
            {
                "start_time": 27.7681818,
                "end_time": 28.0522727,
                "pitch": 80,
                "velocity": 40,
                "duration": 0.2840909,
                "tempo": 120.0
            },
            {
                "start_time": 28.0704545,
                "end_time": 28.3545455,
                "pitch": 80,
                "velocity": 40,
                "duration": 0.2840909,
                "tempo": 120.0
            },
            {
                "start_time": 28.3727273,
                "end_time": 28.6568182,
                "pitch": 80,
                "velocity": 40,
                "duration": 0.2840909,
                "tempo": 120.0
            },
            {
                "start_time": 28.6727273,
                "end_time": 28.9568182,
                "pitch": 80,
                "velocity": 40,
                "duration": 0.2840909,
                "tempo": 120.0
            },
            {
                "start_time": 28.9727273,
                "end_time": 29.2568182,
                "pitch": 80,
                "velocity": 40,
                "duration": 0.2840909,
                "tempo": 120.0
            },
            {
                "start_time": 29.275,
                "end_time": 29.5590909,
                "pitch": 80,
                "velocity": 40,
                "duration": 0.2840909,
                "tempo": 120.0
            },
            {
                "start_time": 29.5772727,
                "end_time": 29.8613636,
                "pitch": 80,
                "velocity": 40,
                "duration": 0.2840909,
                "tempo": 120.0
            },
            {
                "start_time": 29.8772727,
                "end_time": 30.1613636,
                "pitch": 80,
                "velocity": 40,
                "duration": 0.2840909,
                "tempo": 120.0
            },
            {
                "start_time": 30.1795455,
                "end_time": 30.4636364,
                "pitch": 80,
                "velocity": 40,
                "duration": 0.2840909,
                "tempo": 120.0
            },
            {
                "start_time": 30.4795455,
                "end_time": 30.7636364,
                "pitch": 80,
                "velocity": 40,
                "duration": 0.2840909,
                "tempo": 120.0
            },
            {
                "start_time": 30.7818182,
                "end_time": 31.0659091,
                "pitch": 80,
                "velocity": 40,
                "duration": 0.2840909,
                "tempo": 120.0
            },
            {
                "start_time": 31.0818182,
                "end_time": 31.3659091,
                "pitch": 80,
                "velocity": 40,
                "duration": 0.2840909,
                "tempo": 120.0
            },
            {
                "start_time": 31.3840909,
                "end_time": 31.6681818,
                "pitch": 80,
                "velocity": 40,
                "duration": 0.2840909,
                "tempo": 120.0
            },
            {
                "start_time": 31.6840909,
                "end_time": 31.9681818,
                "pitch": 80,
                "velocity": 40,
                "duration": 0.2840909,
                "tempo": 120.0
            },
            {
                "start_time": 31.9840909,
                "end_time": 32.2704545,
                "pitch": 80,
                "velocity": 40,
                "duration": 0.2863636,
                "tempo": 120.0
            },
            {
                "start_time": 32.2863636,
                "end_time": 32.5704545,
                "pitch": 80,
                "velocity": 40,
                "duration": 0.2840909,
                "tempo": 120.0
            },
            {
                "start_time": 32.5886364,
                "end_time": 32.8704545,
                "pitch": 80,
                "velocity": 32,
                "duration": 0.2818182,
                "tempo": 120.0
            },
            {
                "start_time": 32.8886364,
                "end_time": 33.1704545,
                "pitch": 80,
                "velocity": 32,
                "duration": 0.2818182,
                "tempo": 120.0
            },
            {
                "start_time": 33.1886364,
                "end_time": 33.4727273,
                "pitch": 80,
                "velocity": 32,
                "duration": 0.2840909,
                "tempo": 120.0
            },
            {
                "start_time": 33.4886364,
                "end_time": 33.6727273,
                "pitch": 80,
                "velocity": 25,
                "duration": 0.1840909,
                "tempo": 120.0
            },
            {
                "start_time": 33.6886364,
                "end_time": 65.075,
                "pitch": 68,
                "velocity": 25,
                "duration": 31.3863636,
                "tempo": 120.0
            },
            {
                "start_time": 65.075,
                "end_time": 65.3431818,
                "pitch": 80,
                "velocity": 25,
                "duration": 0.2681818,
                "tempo": 120.0
            },
            {
                "start_time": 65.3590909,
                "end_time": 65.6431818,
                "pitch": 80,
                "velocity": 32,
                "duration": 0.2840909,
                "tempo": 120.0
            },
            {
                "start_time": 65.6590909,
                "end_time": 65.9431818,
                "pitch": 80,
                "velocity": 32,
                "duration": 0.2840909,
                "tempo": 120.0
            },
            {
                "start_time": 65.9590909,
                "end_time": 66.2431818,
                "pitch": 80,
                "velocity": 40,
                "duration": 0.2840909,
                "tempo": 120.0
            },
            {
                "start_time": 66.2590909,
                "end_time": 66.5431818,
                "pitch": 80,
                "velocity": 40,
                "duration": 0.2840909,
                "tempo": 120.0
            },
            {
                "start_time": 66.5590909,
                "end_time": 66.8431818,
                "pitch": 80,
                "velocity": 40,
                "duration": 0.2840909,
                "tempo": 120.0
            },
            {
                "start_time": 66.8613636,
                "end_time": 67.1431818,
                "pitch": 80,
                "velocity": 40,
                "duration": 0.2818182,
                "tempo": 120.0
            },
            {
                "start_time": 67.1613636,
                "end_time": 67.4431818,
                "pitch": 80,
                "velocity": 40,
                "duration": 0.2818182,
                "tempo": 120.0
            },
            {
                "start_time": 67.4613636,
                "end_time": 67.7431818,
                "pitch": 80,
                "velocity": 40,
                "duration": 0.2818182,
                "tempo": 120.0
            },
            {
                "start_time": 67.7613636,
                "end_time": 68.0431818,
                "pitch": 80,
                "velocity": 40,
                "duration": 0.2818182,
                "tempo": 120.0
            },
            {
                "start_time": 68.0613636,
                "end_time": 68.3454545,
                "pitch": 80,
                "velocity": 40,
                "duration": 0.2840909,
                "tempo": 120.0
            },
            {
                "start_time": 68.3613636,
                "end_time": 68.6454545,
                "pitch": 80,
                "velocity": 40,
                "duration": 0.2840909,
                "tempo": 120.0
            },
            {
                "start_time": 68.6613636,
                "end_time": 68.9454545,
                "pitch": 80,
                "velocity": 40,
                "duration": 0.2840909,
                "tempo": 120.0
            },
            {
                "start_time": 68.9613636,
                "end_time": 69.2454545,
                "pitch": 80,
                "velocity": 40,
                "duration": 0.2840909,
                "tempo": 120.0
            },
            {
                "start_time": 69.2613636,
                "end_time": 69.5454545,
                "pitch": 80,
                "velocity": 40,
                "duration": 0.2840909,
                "tempo": 120.0
            },
            {
                "start_time": 69.5613636,
                "end_time": 69.8477273,
                "pitch": 80,
                "velocity": 40,
                "duration": 0.2863636,
                "tempo": 120.0
            },
            {
                "start_time": 69.8636364,
                "end_time": 70.1477273,
                "pitch": 80,
                "velocity": 40,
                "duration": 0.2840909,
                "tempo": 120.0
            },
            {
                "start_time": 70.1636364,
                "end_time": 70.4477273,
                "pitch": 80,
                "velocity": 40,
                "duration": 0.2840909,
                "tempo": 120.0
            },
            {
                "start_time": 70.4636364,
                "end_time": 70.7477273,
                "pitch": 80,
                "velocity": 40,
                "duration": 0.2840909,
                "tempo": 120.0
            },
            {
                "start_time": 70.7636364,
                "end_time": 71.0477273,
                "pitch": 80,
                "velocity": 40,
                "duration": 0.2840909,
                "tempo": 120.0
            },
            {
                "start_time": 71.0636364,
                "end_time": 71.3477273,
                "pitch": 80,
                "velocity": 40,
                "duration": 0.2840909,
                "tempo": 120.0
            },
            {
                "start_time": 71.3659091,
                "end_time": 71.6477273,
                "pitch": 80,
                "velocity": 40,
                "duration": 0.2818182,
                "tempo": 120.0
            },
            {
                "start_time": 71.6659091,
                "end_time": 71.9477273,
                "pitch": 80,
                "velocity": 40,
                "duration": 0.2818182,
                "tempo": 120.0
            },
            {
                "start_time": 71.9659091,
                "end_time": 72.2477273,
                "pitch": 80,
                "velocity": 40,
                "duration": 0.2818182,
                "tempo": 120.0
            },
            {
                "start_time": 72.2659091,
                "end_time": 72.5477273,
                "pitch": 80,
                "velocity": 40,
                "duration": 0.2818182,
                "tempo": 120.0
            },
            {
                "start_time": 72.5659091,
                "end_time": 72.85,
                "pitch": 80,
                "velocity": 40,
                "duration": 0.2840909,
                "tempo": 120.0
            },
            {
                "start_time": 72.8659091,
                "end_time": 73.15,
                "pitch": 80,
                "velocity": 40,
                "duration": 0.2840909,
                "tempo": 120.0
            },
            {
                "start_time": 73.1659091,
                "end_time": 73.45,
                "pitch": 80,
                "velocity": 40,
                "duration": 0.2840909,
                "tempo": 120.0
            },
            {
                "start_time": 73.4659091,
                "end_time": 73.75,
                "pitch": 80,
                "velocity": 32,
                "duration": 0.2840909,
                "tempo": 120.0
            },
            {
                "start_time": 73.7659091,
                "end_time": 74.05,
                "pitch": 80,
                "velocity": 32,
                "duration": 0.2840909,
                "tempo": 120.0
            },
            {
                "start_time": 74.0659091,
                "end_time": 74.3522727,
                "pitch": 80,
                "velocity": 32,
                "duration": 0.2863636,
                "tempo": 120.0
            },
            {
                "start_time": 74.3681818,
                "end_time": 74.5522727,
                "pitch": 80,
                "velocity": 25,
                "duration": 0.1840909,
                "tempo": 120.0
            }
        ],
        "Synth Bass 1": [
            {
                "start_time": 4.4931818,
                "end_time": 4.5795455,
                "pitch": 39,
                "velocity": 51,
                "duration": 0.0863636,
                "tempo": 120.0
            },
            {
                "start_time": 4.5977273,
                "end_time": 4.8818182,
                "pitch": 41,
                "velocity": 51,
                "duration": 0.2840909,
                "tempo": 120.0
            },
            {
                "start_time": 4.8977273,
                "end_time": 5.0818182,
                "pitch": 44,
                "velocity": 51,
                "duration": 0.1840909,
                "tempo": 120.0
            },
            {
                "start_time": 5.3977273,
                "end_time": 5.7818182,
                "pitch": 44,
                "velocity": 51,
                "duration": 0.3840909,
                "tempo": 120.0
            },
            {
                "start_time": 5.7977273,
                "end_time": 5.9818182,
                "pitch": 41,
                "velocity": 51,
                "duration": 0.1840909,
                "tempo": 120.0
            },
            {
                "start_time": 5.9977273,
                "end_time": 6.0818182,
                "pitch": 39,
                "velocity": 51,
                "duration": 0.0840909,
                "tempo": 120.0
            },
            {
                "start_time": 6.3,
                "end_time": 6.5818182,
                "pitch": 44,
                "velocity": 51,
                "duration": 0.2818182,
                "tempo": 120.0
            },
            {
                "start_time": 6.6,
                "end_time": 6.6818182,
                "pitch": 41,
                "velocity": 51,
                "duration": 0.0818182,
                "tempo": 120.0
            },
            {
                "start_time": 6.7,
                "end_time": 6.9818182,
                "pitch": 44,
                "velocity": 51,
                "duration": 0.2818182,
                "tempo": 120.0
            },
            {
                "start_time": 7.0,
                "end_time": 7.1818182,
                "pitch": 41,
                "velocity": 51,
                "duration": 0.1818182,
                "tempo": 120.0
            },
            {
                "start_time": 7.2,
                "end_time": 7.2818182,
                "pitch": 39,
                "velocity": 51,
                "duration": 0.0818182,
                "tempo": 120.0
            },
            {
                "start_time": 7.3,
                "end_time": 7.4840909,
                "pitch": 44,
                "velocity": 51,
                "duration": 0.1840909,
                "tempo": 120.0
            },
            {
                "start_time": 7.8,
                "end_time": 8.1840909,
                "pitch": 44,
                "velocity": 51,
                "duration": 0.3840909,
                "tempo": 120.0
            },
            {
                "start_time": 8.2,
                "end_time": 8.3840909,
                "pitch": 41,
                "velocity": 51,
                "duration": 0.1840909,
                "tempo": 120.0
            },
            {
                "start_time": 8.4,
                "end_time": 8.4840909,
                "pitch": 39,
                "velocity": 51,
                "duration": 0.0840909,
                "tempo": 120.0
            },
            {
                "start_time": 8.7022727,
                "end_time": 8.9863636,
                "pitch": 44,
                "velocity": 51,
                "duration": 0.2840909,
                "tempo": 120.0
            },
            {
                "start_time": 9.0022727,
                "end_time": 9.0863636,
                "pitch": 41,
                "velocity": 51,
                "duration": 0.0840909,
                "tempo": 120.0
            },
            {
                "start_time": 9.1022727,
                "end_time": 9.3863636,
                "pitch": 44,
                "velocity": 51,
                "duration": 0.2840909,
                "tempo": 120.0
            },
            {
                "start_time": 9.4045455,
                "end_time": 9.5863636,
                "pitch": 41,
                "velocity": 51,
                "duration": 0.1818182,
                "tempo": 120.0
            },
            {
                "start_time": 9.6045455,
                "end_time": 9.6863636,
                "pitch": 39,
                "velocity": 51,
                "duration": 0.0818182,
                "tempo": 120.0
            },
            {
                "start_time": 9.7045455,
                "end_time": 9.8886364,
                "pitch": 44,
                "velocity": 51,
                "duration": 0.1840909,
                "tempo": 120.0
            },
            {
                "start_time": 10.2068182,
                "end_time": 10.5909091,
                "pitch": 44,
                "velocity": 51,
                "duration": 0.3840909,
                "tempo": 120.0
            },
            {
                "start_time": 10.6068182,
                "end_time": 10.7909091,
                "pitch": 41,
                "velocity": 51,
                "duration": 0.1840909,
                "tempo": 120.0
            },
            {
                "start_time": 10.8068182,
                "end_time": 10.8909091,
                "pitch": 39,
                "velocity": 51,
                "duration": 0.0840909,
                "tempo": 120.0
            },
            {
                "start_time": 11.1090909,
                "end_time": 11.3931818,
                "pitch": 44,
                "velocity": 51,
                "duration": 0.2840909,
                "tempo": 120.0
            },
            {
                "start_time": 11.4090909,
                "end_time": 11.4931818,
                "pitch": 41,
                "velocity": 51,
                "duration": 0.0840909,
                "tempo": 120.0
            },
            {
                "start_time": 11.5090909,
                "end_time": 11.7954545,
                "pitch": 44,
                "velocity": 51,
                "duration": 0.2863636,
                "tempo": 120.0
            },
            {
                "start_time": 11.8113636,
                "end_time": 11.9954545,
                "pitch": 41,
                "velocity": 51,
                "duration": 0.1840909,
                "tempo": 120.0
            },
            {
                "start_time": 12.0113636,
                "end_time": 12.0954545,
                "pitch": 39,
                "velocity": 51,
                "duration": 0.0840909,
                "tempo": 120.0
            },
            {
                "start_time": 12.1113636,
                "end_time": 12.2954545,
                "pitch": 44,
                "velocity": 51,
                "duration": 0.1840909,
                "tempo": 120.0
            },
            {
                "start_time": 12.6136364,
                "end_time": 12.9977273,
                "pitch": 44,
                "velocity": 51,
                "duration": 0.3840909,
                "tempo": 120.0
            },
            {
                "start_time": 13.0136364,
                "end_time": 13.1977273,
                "pitch": 41,
                "velocity": 51,
                "duration": 0.1840909,
                "tempo": 120.0
            },
            {
                "start_time": 13.2159091,
                "end_time": 13.3,
                "pitch": 39,
                "velocity": 51,
                "duration": 0.0840909,
                "tempo": 120.0
            },
            {
                "start_time": 13.5159091,
                "end_time": 13.8,
                "pitch": 44,
                "velocity": 51,
                "duration": 0.2840909,
                "tempo": 120.0
            },
            {
                "start_time": 13.8159091,
                "end_time": 13.9,
                "pitch": 41,
                "velocity": 51,
                "duration": 0.0840909,
                "tempo": 120.0
            },
            {
                "start_time": 13.9181818,
                "end_time": 14.2,
                "pitch": 44,
                "velocity": 51,
                "duration": 0.2818182,
                "tempo": 120.0
            },
            {
                "start_time": 14.2181818,
                "end_time": 14.4022727,
                "pitch": 41,
                "velocity": 51,
                "duration": 0.1840909,
                "tempo": 120.0
            },
            {
                "start_time": 14.4181818,
                "end_time": 14.5022727,
                "pitch": 39,
                "velocity": 51,
                "duration": 0.0840909,
                "tempo": 120.0
            },
            {
                "start_time": 14.5181818,
                "end_time": 14.7022727,
                "pitch": 44,
                "velocity": 51,
                "duration": 0.1840909,
                "tempo": 120.0
            },
            {
                "start_time": 15.0136364,
                "end_time": 15.4045455,
                "pitch": 44,
                "velocity": 51,
                "duration": 0.3909091,
                "tempo": 120.0
            },
            {
                "start_time": 15.4227273,
                "end_time": 15.6045455,
                "pitch": 41,
                "velocity": 51,
                "duration": 0.1818182,
                "tempo": 120.0
            },
            {
                "start_time": 15.6227273,
                "end_time": 15.7045455,
                "pitch": 39,
                "velocity": 51,
                "duration": 0.0818182,
                "tempo": 120.0
            },
            {
                "start_time": 15.9227273,
                "end_time": 16.2068182,
                "pitch": 44,
                "velocity": 51,
                "duration": 0.2840909,
                "tempo": 120.0
            },
            {
                "start_time": 16.225,
                "end_time": 16.3090909,
                "pitch": 41,
                "velocity": 51,
                "duration": 0.0840909,
                "tempo": 120.0
            },
            {
                "start_time": 16.325,
                "end_time": 16.6090909,
                "pitch": 44,
                "velocity": 51,
                "duration": 0.2840909,
                "tempo": 120.0
            },
            {
                "start_time": 16.6272727,
                "end_time": 16.8090909,
                "pitch": 41,
                "velocity": 51,
                "duration": 0.1818182,
                "tempo": 120.0
            },
            {
                "start_time": 16.8272727,
                "end_time": 16.9090909,
                "pitch": 39,
                "velocity": 51,
                "duration": 0.0818182,
                "tempo": 120.0
            },
            {
                "start_time": 16.9272727,
                "end_time": 17.1113636,
                "pitch": 44,
                "velocity": 51,
                "duration": 0.1840909,
                "tempo": 120.0
            },
            {
                "start_time": 17.4227273,
                "end_time": 17.8136364,
                "pitch": 44,
                "velocity": 51,
                "duration": 0.3909091,
                "tempo": 120.0
            },
            {
                "start_time": 17.8295455,
                "end_time": 18.0136364,
                "pitch": 41,
                "velocity": 51,
                "duration": 0.1840909,
                "tempo": 120.0
            },
            {
                "start_time": 18.0318182,
                "end_time": 18.1159091,
                "pitch": 39,
                "velocity": 51,
                "duration": 0.0840909,
                "tempo": 120.0
            },
            {
                "start_time": 18.3318182,
                "end_time": 18.6159091,
                "pitch": 44,
                "velocity": 51,
                "duration": 0.2840909,
                "tempo": 120.0
            },
            {
                "start_time": 18.6318182,
                "end_time": 18.7159091,
                "pitch": 41,
                "velocity": 51,
                "duration": 0.0840909,
                "tempo": 120.0
            },
            {
                "start_time": 18.7340909,
                "end_time": 19.0181818,
                "pitch": 44,
                "velocity": 51,
                "duration": 0.2840909,
                "tempo": 120.0
            },
            {
                "start_time": 19.0340909,
                "end_time": 19.2181818,
                "pitch": 41,
                "velocity": 51,
                "duration": 0.1840909,
                "tempo": 120.0
            },
            {
                "start_time": 19.2363636,
                "end_time": 19.3181818,
                "pitch": 39,
                "velocity": 51,
                "duration": 0.0818182,
                "tempo": 120.0
            },
            {
                "start_time": 19.3363636,
                "end_time": 19.5204545,
                "pitch": 44,
                "velocity": 51,
                "duration": 0.1840909,
                "tempo": 120.0
            },
            {
                "start_time": 19.8318182,
                "end_time": 20.2227273,
                "pitch": 44,
                "velocity": 51,
                "duration": 0.3909091,
                "tempo": 120.0
            },
            {
                "start_time": 20.2386364,
                "end_time": 20.4227273,
                "pitch": 41,
                "velocity": 51,
                "duration": 0.1840909,
                "tempo": 120.0
            },
            {
                "start_time": 20.4409091,
                "end_time": 20.525,
                "pitch": 39,
                "velocity": 51,
                "duration": 0.0840909,
                "tempo": 120.0
            },
            {
                "start_time": 20.7409091,
                "end_time": 21.0272727,
                "pitch": 44,
                "velocity": 51,
                "duration": 0.2863636,
                "tempo": 120.0
            },
            {
                "start_time": 21.0431818,
                "end_time": 21.1272727,
                "pitch": 41,
                "velocity": 51,
                "duration": 0.0840909,
                "tempo": 120.0
            },
            {
                "start_time": 21.1431818,
                "end_time": 21.4272727,
                "pitch": 44,
                "velocity": 51,
                "duration": 0.2840909,
                "tempo": 120.0
            },
            {
                "start_time": 21.4431818,
                "end_time": 21.6272727,
                "pitch": 41,
                "velocity": 51,
                "duration": 0.1840909,
                "tempo": 120.0
            },
            {
                "start_time": 21.6454545,
                "end_time": 21.7295455,
                "pitch": 39,
                "velocity": 51,
                "duration": 0.0840909,
                "tempo": 120.0
            },
            {
                "start_time": 21.7454545,
                "end_time": 21.9295455,
                "pitch": 44,
                "velocity": 51,
                "duration": 0.1840909,
                "tempo": 120.0
            },
            {
                "start_time": 22.2409091,
                "end_time": 22.6227273,
                "pitch": 44,
                "velocity": 51,
                "duration": 0.3818182,
                "tempo": 120.0
            },
            {
                "start_time": 22.6386364,
                "end_time": 22.8295455,
                "pitch": 41,
                "velocity": 51,
                "duration": 0.1909091,
                "tempo": 120.0
            },
            {
                "start_time": 22.8477273,
                "end_time": 22.9340909,
                "pitch": 39,
                "velocity": 51,
                "duration": 0.0863636,
                "tempo": 120.0
            },
            {
                "start_time": 23.1431818,
                "end_time": 23.4318182,
                "pitch": 44,
                "velocity": 51,
                "duration": 0.2886364,
                "tempo": 120.0
            },
            {
                "start_time": 23.4477273,
                "end_time": 23.5340909,
                "pitch": 41,
                "velocity": 51,
                "duration": 0.0863636,
                "tempo": 120.0
            },
            {
                "start_time": 23.5522727,
                "end_time": 23.8363636,
                "pitch": 44,
                "velocity": 51,
                "duration": 0.2840909,
                "tempo": 120.0
            },
            {
                "start_time": 23.8545455,
                "end_time": 24.0386364,
                "pitch": 56,
                "velocity": 51,
                "duration": 0.1840909,
                "tempo": 120.0
            },
            {
                "start_time": 24.0545455,
                "end_time": 24.1386364,
                "pitch": 56,
                "velocity": 51,
                "duration": 0.0840909,
                "tempo": 120.0
            },
            {
                "start_time": 24.6568182,
                "end_time": 25.0409091,
                "pitch": 44,
                "velocity": 51,
                "duration": 0.3840909,
                "tempo": 120.0
            },
            {
                "start_time": 25.0590909,
                "end_time": 25.2431818,
                "pitch": 41,
                "velocity": 51,
                "duration": 0.1840909,
                "tempo": 120.0
            },
            {
                "start_time": 25.2590909,
                "end_time": 25.3431818,
                "pitch": 39,
                "velocity": 51,
                "duration": 0.0840909,
                "tempo": 120.0
            },
            {
                "start_time": 25.5613636,
                "end_time": 25.8454545,
                "pitch": 44,
                "velocity": 51,
                "duration": 0.2840909,
                "tempo": 120.0
            },
            {
                "start_time": 25.8613636,
                "end_time": 25.9454545,
                "pitch": 41,
                "velocity": 51,
                "duration": 0.0840909,
                "tempo": 120.0
            },
            {
                "start_time": 25.9613636,
                "end_time": 26.2454545,
                "pitch": 44,
                "velocity": 51,
                "duration": 0.2840909,
                "tempo": 120.0
            },
            {
                "start_time": 26.2636364,
                "end_time": 26.4477273,
                "pitch": 41,
                "velocity": 51,
                "duration": 0.1840909,
                "tempo": 120.0
            },
            {
                "start_time": 26.4636364,
                "end_time": 26.5477273,
                "pitch": 39,
                "velocity": 51,
                "duration": 0.0840909,
                "tempo": 120.0
            },
            {
                "start_time": 26.5636364,
                "end_time": 26.7477273,
                "pitch": 44,
                "velocity": 51,
                "duration": 0.1840909,
                "tempo": 120.0
            },
            {
                "start_time": 27.0659091,
                "end_time": 27.45,
                "pitch": 44,
                "velocity": 51,
                "duration": 0.3840909,
                "tempo": 120.0
            },
            {
                "start_time": 27.4681818,
                "end_time": 27.6522727,
                "pitch": 41,
                "velocity": 51,
                "duration": 0.1840909,
                "tempo": 120.0
            },
            {
                "start_time": 27.6681818,
                "end_time": 27.7522727,
                "pitch": 39,
                "velocity": 51,
                "duration": 0.0840909,
                "tempo": 120.0
            },
            {
                "start_time": 27.9704545,
                "end_time": 28.2545455,
                "pitch": 44,
                "velocity": 51,
                "duration": 0.2840909,
                "tempo": 120.0
            },
            {
                "start_time": 28.2704545,
                "end_time": 28.3545455,
                "pitch": 41,
                "velocity": 51,
                "duration": 0.0840909,
                "tempo": 120.0
            },
            {
                "start_time": 28.3727273,
                "end_time": 28.6568182,
                "pitch": 44,
                "velocity": 51,
                "duration": 0.2840909,
                "tempo": 120.0
            },
            {
                "start_time": 28.6727273,
                "end_time": 28.8568182,
                "pitch": 41,
                "velocity": 51,
                "duration": 0.1840909,
                "tempo": 120.0
            },
            {
                "start_time": 28.8727273,
                "end_time": 28.9568182,
                "pitch": 39,
                "velocity": 51,
                "duration": 0.0840909,
                "tempo": 120.0
            },
            {
                "start_time": 28.9727273,
                "end_time": 29.1568182,
                "pitch": 44,
                "velocity": 51,
                "duration": 0.1840909,
                "tempo": 120.0
            },
            {
                "start_time": 29.475,
                "end_time": 29.8613636,
                "pitch": 44,
                "velocity": 51,
                "duration": 0.3863636,
                "tempo": 120.0
            },
            {
                "start_time": 29.8772727,
                "end_time": 30.0613636,
                "pitch": 41,
                "velocity": 51,
                "duration": 0.1840909,
                "tempo": 120.0
            },
            {
                "start_time": 30.0795455,
                "end_time": 30.1613636,
                "pitch": 39,
                "velocity": 51,
                "duration": 0.0818182,
                "tempo": 120.0
            },
            {
                "start_time": 30.3795455,
                "end_time": 30.6636364,
                "pitch": 44,
                "velocity": 51,
                "duration": 0.2840909,
                "tempo": 120.0
            },
            {
                "start_time": 30.6795455,
                "end_time": 30.7636364,
                "pitch": 41,
                "velocity": 51,
                "duration": 0.0840909,
                "tempo": 120.0
            },
            {
                "start_time": 30.7818182,
                "end_time": 31.0659091,
                "pitch": 44,
                "velocity": 51,
                "duration": 0.2840909,
                "tempo": 120.0
            },
            {
                "start_time": 31.0818182,
                "end_time": 31.2659091,
                "pitch": 41,
                "velocity": 51,
                "duration": 0.1840909,
                "tempo": 120.0
            },
            {
                "start_time": 31.2840909,
                "end_time": 31.3659091,
                "pitch": 39,
                "velocity": 51,
                "duration": 0.0818182,
                "tempo": 120.0
            },
            {
                "start_time": 31.3840909,
                "end_time": 31.5681818,
                "pitch": 44,
                "velocity": 51,
                "duration": 0.1840909,
                "tempo": 120.0
            },
            {
                "start_time": 31.8840909,
                "end_time": 32.2704545,
                "pitch": 44,
                "velocity": 51,
                "duration": 0.3863636,
                "tempo": 120.0
            },
            {
                "start_time": 32.2863636,
                "end_time": 32.4704545,
                "pitch": 41,
                "velocity": 51,
                "duration": 0.1840909,
                "tempo": 120.0
            },
            {
                "start_time": 32.4886364,
                "end_time": 32.5704545,
                "pitch": 39,
                "velocity": 51,
                "duration": 0.0818182,
                "tempo": 120.0
            },
            {
                "start_time": 32.7886364,
                "end_time": 33.0704545,
                "pitch": 44,
                "velocity": 51,
                "duration": 0.2818182,
                "tempo": 120.0
            },
            {
                "start_time": 33.0886364,
                "end_time": 33.1704545,
                "pitch": 41,
                "velocity": 51,
                "duration": 0.0818182,
                "tempo": 120.0
            },
            {
                "start_time": 33.1886364,
                "end_time": 33.4727273,
                "pitch": 44,
                "velocity": 51,
                "duration": 0.2840909,
                "tempo": 120.0
            },
            {
                "start_time": 33.4886364,
                "end_time": 33.6727273,
                "pitch": 41,
                "velocity": 51,
                "duration": 0.1840909,
                "tempo": 120.0
            },
            {
                "start_time": 33.6886364,
                "end_time": 33.7727273,
                "pitch": 44,
                "velocity": 51,
                "duration": 0.0840909,
                "tempo": 120.0
            },
            {
                "start_time": 33.7886364,
                "end_time": 34.275,
                "pitch": 44,
                "velocity": 51,
                "duration": 0.4863636,
                "tempo": 120.0
            },
            {
                "start_time": 34.2909091,
                "end_time": 34.675,
                "pitch": 44,
                "velocity": 51,
                "duration": 0.3840909,
                "tempo": 120.0
            },
            {
                "start_time": 34.6909091,
                "end_time": 34.775,
                "pitch": 39,
                "velocity": 51,
                "duration": 0.0840909,
                "tempo": 120.0
            },
            {
                "start_time": 34.7909091,
                "end_time": 34.875,
                "pitch": 41,
                "velocity": 51,
                "duration": 0.0840909,
                "tempo": 120.0
            },
            {
                "start_time": 34.8931818,
                "end_time": 34.975,
                "pitch": 44,
                "velocity": 51,
                "duration": 0.0818182,
                "tempo": 120.0
            },
            {
                "start_time": 35.1931818,
                "end_time": 35.4772727,
                "pitch": 46,
                "velocity": 51,
                "duration": 0.2840909,
                "tempo": 120.0
            },
            {
                "start_time": 35.4931818,
                "end_time": 36.0772727,
                "pitch": 46,
                "velocity": 51,
                "duration": 0.5840909,
                "tempo": 120.0
            },
            {
                "start_time": 36.0931818,
                "end_time": 36.1772727,
                "pitch": 44,
                "velocity": 51,
                "duration": 0.0840909,
                "tempo": 120.0
            },
            {
                "start_time": 36.1931818,
                "end_time": 36.3795455,
                "pitch": 49,
                "velocity": 51,
                "duration": 0.1863636,
                "tempo": 120.0
            },
            {
                "start_time": 36.6954545,
                "end_time": 37.0795455,
                "pitch": 49,
                "velocity": 51,
                "duration": 0.3840909,
                "tempo": 120.0
            },
            {
                "start_time": 37.0977273,
                "end_time": 37.1795455,
                "pitch": 48,
                "velocity": 51,
                "duration": 0.0818182,
                "tempo": 120.0
            },
            {
                "start_time": 37.1977273,
                "end_time": 37.2795455,
                "pitch": 47,
                "velocity": 51,
                "duration": 0.0818182,
                "tempo": 120.0
            },
            {
                "start_time": 37.2977273,
                "end_time": 37.3795455,
                "pitch": 46,
                "velocity": 51,
                "duration": 0.0818182,
                "tempo": 120.0
            },
            {
                "start_time": 37.5977273,
                "end_time": 37.8818182,
                "pitch": 44,
                "velocity": 51,
                "duration": 0.2840909,
                "tempo": 120.0
            },
            {
                "start_time": 37.8977273,
                "end_time": 38.4840909,
                "pitch": 44,
                "velocity": 51,
                "duration": 0.5863636,
                "tempo": 120.0
            },
            {
                "start_time": 38.5,
                "end_time": 38.5840909,
                "pitch": 41,
                "velocity": 51,
                "duration": 0.0840909,
                "tempo": 120.0
            },
            {
                "start_time": 38.6,
                "end_time": 38.7840909,
                "pitch": 44,
                "velocity": 51,
                "duration": 0.1840909,
                "tempo": 120.0
            },
            {
                "start_time": 39.1,
                "end_time": 39.4840909,
                "pitch": 44,
                "velocity": 51,
                "duration": 0.3840909,
                "tempo": 120.0
            },
            {
                "start_time": 39.5022727,
                "end_time": 39.5840909,
                "pitch": 39,
                "velocity": 51,
                "duration": 0.0818182,
                "tempo": 120.0
            },
            {
                "start_time": 39.6022727,
                "end_time": 39.6840909,
                "pitch": 41,
                "velocity": 51,
                "duration": 0.0818182,
                "tempo": 120.0
            },
            {
                "start_time": 39.7022727,
                "end_time": 39.7840909,
                "pitch": 44,
                "velocity": 51,
                "duration": 0.0818182,
                "tempo": 120.0
            },
            {
                "start_time": 39.9954545,
                "end_time": 40.2818182,
                "pitch": 46,
                "velocity": 51,
                "duration": 0.2863636,
                "tempo": 120.0
            },
            {
                "start_time": 40.3,
                "end_time": 40.8886364,
                "pitch": 46,
                "velocity": 51,
                "duration": 0.5886364,
                "tempo": 120.0
            },
            {
                "start_time": 40.9045455,
                "end_time": 40.9886364,
                "pitch": 44,
                "velocity": 51,
                "duration": 0.0840909,
                "tempo": 120.0
            },
            {
                "start_time": 41.0045455,
                "end_time": 41.1886364,
                "pitch": 49,
                "velocity": 51,
                "duration": 0.1840909,
                "tempo": 120.0
            },
            {
                "start_time": 41.5068182,
                "end_time": 41.8909091,
                "pitch": 49,
                "velocity": 51,
                "duration": 0.3840909,
                "tempo": 120.0
            },
            {
                "start_time": 41.9068182,
                "end_time": 41.9909091,
                "pitch": 48,
                "velocity": 51,
                "duration": 0.0840909,
                "tempo": 120.0
            },
            {
                "start_time": 42.0068182,
                "end_time": 42.0909091,
                "pitch": 47,
                "velocity": 51,
                "duration": 0.0840909,
                "tempo": 120.0
            },
            {
                "start_time": 42.1068182,
                "end_time": 42.1909091,
                "pitch": 46,
                "velocity": 51,
                "duration": 0.0840909,
                "tempo": 120.0
            },
            {
                "start_time": 42.4,
                "end_time": 42.6886364,
                "pitch": 44,
                "velocity": 51,
                "duration": 0.2886364,
                "tempo": 120.0
            },
            {
                "start_time": 42.7045455,
                "end_time": 43.2931818,
                "pitch": 44,
                "velocity": 51,
                "duration": 0.5886364,
                "tempo": 120.0
            },
            {
                "start_time": 43.3090909,
                "end_time": 43.3931818,
                "pitch": 41,
                "velocity": 51,
                "duration": 0.0840909,
                "tempo": 120.0
            },
            {
                "start_time": 43.4090909,
                "end_time": 43.5931818,
                "pitch": 44,
                "velocity": 51,
                "duration": 0.1840909,
                "tempo": 120.0
            },
            {
                "start_time": 43.9113636,
                "end_time": 44.2863636,
                "pitch": 44,
                "velocity": 51,
                "duration": 0.375,
                "tempo": 120.0
            },
            {
                "start_time": 44.3022727,
                "end_time": 44.3886364,
                "pitch": 39,
                "velocity": 51,
                "duration": 0.0863636,
                "tempo": 120.0
            },
            {
                "start_time": 44.4068182,
                "end_time": 44.4931818,
                "pitch": 41,
                "velocity": 51,
                "duration": 0.0863636,
                "tempo": 120.0
            },
            {
                "start_time": 44.5090909,
                "end_time": 44.5954545,
                "pitch": 44,
                "velocity": 51,
                "duration": 0.0863636,
                "tempo": 120.0
            },
            {
                "start_time": 44.8136364,
                "end_time": 45.0977273,
                "pitch": 46,
                "velocity": 51,
                "duration": 0.2840909,
                "tempo": 120.0
            },
            {
                "start_time": 45.1136364,
                "end_time": 45.6931818,
                "pitch": 46,
                "velocity": 51,
                "duration": 0.5795455,
                "tempo": 120.0
            },
            {
                "start_time": 45.7113636,
                "end_time": 45.7977273,
                "pitch": 44,
                "velocity": 51,
                "duration": 0.0863636,
                "tempo": 120.0
            },
            {
                "start_time": 45.8159091,
                "end_time": 46.0,
                "pitch": 49,
                "velocity": 51,
                "duration": 0.1840909,
                "tempo": 120.0
            },
            {
                "start_time": 46.3159091,
                "end_time": 46.7,
                "pitch": 49,
                "velocity": 51,
                "duration": 0.3840909,
                "tempo": 120.0
            },
            {
                "start_time": 46.7159091,
                "end_time": 46.8,
                "pitch": 48,
                "velocity": 51,
                "duration": 0.0840909,
                "tempo": 120.0
            },
            {
                "start_time": 46.8181818,
                "end_time": 46.9,
                "pitch": 47,
                "velocity": 51,
                "duration": 0.0818182,
                "tempo": 120.0
            },
            {
                "start_time": 46.9181818,
                "end_time": 47.0022727,
                "pitch": 46,
                "velocity": 51,
                "duration": 0.0840909,
                "tempo": 120.0
            },
            {
                "start_time": 47.2181818,
                "end_time": 47.5022727,
                "pitch": 44,
                "velocity": 51,
                "duration": 0.2840909,
                "tempo": 120.0
            },
            {
                "start_time": 47.5181818,
                "end_time": 48.1022727,
                "pitch": 44,
                "velocity": 51,
                "duration": 0.5840909,
                "tempo": 120.0
            },
            {
                "start_time": 48.1204545,
                "end_time": 48.2022727,
                "pitch": 41,
                "velocity": 51,
                "duration": 0.0818182,
                "tempo": 120.0
            },
            {
                "start_time": 48.2204545,
                "end_time": 48.4045455,
                "pitch": 44,
                "velocity": 51,
                "duration": 0.1840909,
                "tempo": 120.0
            },
            {
                "start_time": 48.7159091,
                "end_time": 49.0954545,
                "pitch": 44,
                "velocity": 51,
                "duration": 0.3795455,
                "tempo": 120.0
            },
            {
                "start_time": 49.1113636,
                "end_time": 49.1977273,
                "pitch": 39,
                "velocity": 51,
                "duration": 0.0863636,
                "tempo": 120.0
            },
            {
                "start_time": 49.2159091,
                "end_time": 49.3022727,
                "pitch": 41,
                "velocity": 51,
                "duration": 0.0863636,
                "tempo": 120.0
            },
            {
                "start_time": 49.3204545,
                "end_time": 49.4068182,
                "pitch": 44,
                "velocity": 51,
                "duration": 0.0863636,
                "tempo": 120.0
            },
            {
                "start_time": 49.6227273,
                "end_time": 49.9068182,
                "pitch": 46,
                "velocity": 51,
                "duration": 0.2840909,
                "tempo": 120.0
            },
            {
                "start_time": 49.925,
                "end_time": 50.5090909,
                "pitch": 46,
                "velocity": 51,
                "duration": 0.5840909,
                "tempo": 120.0
            },
            {
                "start_time": 50.525,
                "end_time": 50.6090909,
                "pitch": 44,
                "velocity": 51,
                "duration": 0.0840909,
                "tempo": 120.0
            },
            {
                "start_time": 50.6272727,
                "end_time": 50.8090909,
                "pitch": 49,
                "velocity": 51,
                "duration": 0.1818182,
                "tempo": 120.0
            },
            {
                "start_time": 51.1272727,
                "end_time": 51.5113636,
                "pitch": 49,
                "velocity": 51,
                "duration": 0.3840909,
                "tempo": 120.0
            },
            {
                "start_time": 51.5272727,
                "end_time": 51.6113636,
                "pitch": 48,
                "velocity": 51,
                "duration": 0.0840909,
                "tempo": 120.0
            },
            {
                "start_time": 51.6272727,
                "end_time": 51.7113636,
                "pitch": 47,
                "velocity": 51,
                "duration": 0.0840909,
                "tempo": 120.0
            },
            {
                "start_time": 51.7272727,
                "end_time": 51.8113636,
                "pitch": 46,
                "velocity": 51,
                "duration": 0.0840909,
                "tempo": 120.0
            },
            {
                "start_time": 52.0295455,
                "end_time": 52.3136364,
                "pitch": 44,
                "velocity": 51,
                "duration": 0.2840909,
                "tempo": 120.0
            },
            {
                "start_time": 52.3295455,
                "end_time": 52.9136364,
                "pitch": 44,
                "velocity": 51,
                "duration": 0.5840909,
                "tempo": 120.0
            },
            {
                "start_time": 52.9295455,
                "end_time": 53.0136364,
                "pitch": 41,
                "velocity": 51,
                "duration": 0.0840909,
                "tempo": 120.0
            },
            {
                "start_time": 53.0318182,
                "end_time": 53.2204545,
                "pitch": 48,
                "velocity": 51,
                "duration": 0.1886364,
                "tempo": 120.0
            },
            {
                "start_time": 53.5363636,
                "end_time": 53.9159091,
                "pitch": 48,
                "velocity": 51,
                "duration": 0.3795455,
                "tempo": 120.0
            },
            {
                "start_time": 53.9318182,
                "end_time": 54.0159091,
                "pitch": 48,
                "velocity": 51,
                "duration": 0.0840909,
                "tempo": 120.0
            },
            {
                "start_time": 54.0318182,
                "end_time": 54.1159091,
                "pitch": 46,
                "velocity": 51,
                "duration": 0.0840909,
                "tempo": 120.0
            },
            {
                "start_time": 54.1318182,
                "end_time": 54.2159091,
                "pitch": 44,
                "velocity": 51,
                "duration": 0.0840909,
                "tempo": 120.0
            },
            {
                "start_time": 54.2318182,
                "end_time": 54.4227273,
                "pitch": 41,
                "velocity": 51,
                "duration": 0.1909091,
                "tempo": 120.0
            },
            {
                "start_time": 54.7363636,
                "end_time": 55.2181818,
                "pitch": 41,
                "velocity": 51,
                "duration": 0.4818182,
                "tempo": 120.0
            },
            {
                "start_time": 55.2363636,
                "end_time": 55.3181818,
                "pitch": 39,
                "velocity": 51,
                "duration": 0.0818182,
                "tempo": 120.0
            },
            {
                "start_time": 55.3363636,
                "end_time": 55.4181818,
                "pitch": 41,
                "velocity": 51,
                "duration": 0.0818182,
                "tempo": 120.0
            },
            {
                "start_time": 55.4363636,
                "end_time": 55.625,
                "pitch": 48,
                "velocity": 51,
                "duration": 0.1886364,
                "tempo": 120.0
            },
            {
                "start_time": 55.9409091,
                "end_time": 56.3204545,
                "pitch": 48,
                "velocity": 51,
                "duration": 0.3795455,
                "tempo": 120.0
            },
            {
                "start_time": 56.3386364,
                "end_time": 56.4204545,
                "pitch": 48,
                "velocity": 51,
                "duration": 0.0818182,
                "tempo": 120.0
            },
            {
                "start_time": 56.4386364,
                "end_time": 56.5227273,
                "pitch": 46,
                "velocity": 51,
                "duration": 0.0840909,
                "tempo": 120.0
            },
            {
                "start_time": 56.5386364,
                "end_time": 56.6227273,
                "pitch": 44,
                "velocity": 51,
                "duration": 0.0840909,
                "tempo": 120.0
            },
            {
                "start_time": 56.6386364,
                "end_time": 56.8295455,
                "pitch": 41,
                "velocity": 51,
                "duration": 0.1909091,
                "tempo": 120.0
            },
            {
                "start_time": 57.1431818,
                "end_time": 57.625,
                "pitch": 41,
                "velocity": 51,
                "duration": 0.4818182,
                "tempo": 120.0
            },
            {
                "start_time": 57.6431818,
                "end_time": 57.725,
                "pitch": 39,
                "velocity": 51,
                "duration": 0.0818182,
                "tempo": 120.0
            },
            {
                "start_time": 57.7431818,
                "end_time": 57.825,
                "pitch": 41,
                "velocity": 51,
                "duration": 0.0818182,
                "tempo": 120.0
            },
            {
                "start_time": 57.8431818,
                "end_time": 58.0318182,
                "pitch": 48,
                "velocity": 51,
                "duration": 0.1886364,
                "tempo": 120.0
            },
            {
                "start_time": 58.3477273,
                "end_time": 58.7272727,
                "pitch": 48,
                "velocity": 51,
                "duration": 0.3795455,
                "tempo": 120.0
            },
            {
                "start_time": 58.7454545,
                "end_time": 58.8272727,
                "pitch": 48,
                "velocity": 51,
                "duration": 0.0818182,
                "tempo": 120.0
            },
            {
                "start_time": 58.8454545,
                "end_time": 58.9295455,
                "pitch": 46,
                "velocity": 51,
                "duration": 0.0840909,
                "tempo": 120.0
            },
            {
                "start_time": 58.9454545,
                "end_time": 59.0295455,
                "pitch": 44,
                "velocity": 51,
                "duration": 0.0840909,
                "tempo": 120.0
            },
            {
                "start_time": 59.0454545,
                "end_time": 59.2363636,
                "pitch": 41,
                "velocity": 51,
                "duration": 0.1909091,
                "tempo": 120.0
            },
            {
                "start_time": 59.55,
                "end_time": 60.0318182,
                "pitch": 41,
                "velocity": 51,
                "duration": 0.4818182,
                "tempo": 120.0
            },
            {
                "start_time": 60.0477273,
                "end_time": 60.1318182,
                "pitch": 39,
                "velocity": 51,
                "duration": 0.0840909,
                "tempo": 120.0
            },
            {
                "start_time": 60.1477273,
                "end_time": 60.2318182,
                "pitch": 41,
                "velocity": 51,
                "duration": 0.0840909,
                "tempo": 120.0
            },
            {
                "start_time": 60.2477273,
                "end_time": 60.5409091,
                "pitch": 42,
                "velocity": 51,
                "duration": 0.2931818,
                "tempo": 120.0
            },
            {
                "start_time": 60.5590909,
                "end_time": 60.8409091,
                "pitch": 42,
                "velocity": 51,
                "duration": 0.2818182,
                "tempo": 120.0
            },
            {
                "start_time": 60.8590909,
                "end_time": 61.1431818,
                "pitch": 42,
                "velocity": 51,
                "duration": 0.2840909,
                "tempo": 120.0
            },
            {
                "start_time": 61.1590909,
                "end_time": 61.3431818,
                "pitch": 42,
                "velocity": 51,
                "duration": 0.1840909,
                "tempo": 120.0
            },
            {
                "start_time": 61.3590909,
                "end_time": 61.4431818,
                "pitch": 42,
                "velocity": 51,
                "duration": 0.0840909,
                "tempo": 120.0
            },
            {
                "start_time": 61.4590909,
                "end_time": 61.7454545,
                "pitch": 42,
                "velocity": 51,
                "duration": 0.2863636,
                "tempo": 120.0
            },
            {
                "start_time": 61.7613636,
                "end_time": 62.0454545,
                "pitch": 42,
                "velocity": 51,
                "duration": 0.2840909,
                "tempo": 120.0
            },
            {
                "start_time": 62.0613636,
                "end_time": 62.2454545,
                "pitch": 42,
                "velocity": 51,
                "duration": 0.1840909,
                "tempo": 120.0
            },
            {
                "start_time": 62.2613636,
                "end_time": 62.3454545,
                "pitch": 42,
                "velocity": 51,
                "duration": 0.0840909,
                "tempo": 120.0
            },
            {
                "start_time": 62.3613636,
                "end_time": 62.4431818,
                "pitch": 42,
                "velocity": 51,
                "duration": 0.0818182,
                "tempo": 120.0
            },
            {
                "start_time": 62.4590909,
                "end_time": 62.5386364,
                "pitch": 46,
                "velocity": 51,
                "duration": 0.0795455,
                "tempo": 120.0
            },
            {
                "start_time": 62.5568182,
                "end_time": 62.6363636,
                "pitch": 49,
                "velocity": 51,
                "duration": 0.0795455,
                "tempo": 120.0
            },
            {
                "start_time": 62.6522727,
                "end_time": 62.9454545,
                "pitch": 51,
                "velocity": 51,
                "duration": 0.2931818,
                "tempo": 120.0
            },
            {
                "start_time": 62.9636364,
                "end_time": 63.2386364,
                "pitch": 51,
                "velocity": 51,
                "duration": 0.275,
                "tempo": 120.0
            },
            {
                "start_time": 63.2545455,
                "end_time": 63.5386364,
                "pitch": 51,
                "velocity": 51,
                "duration": 0.2840909,
                "tempo": 120.0
            },
            {
                "start_time": 63.5568182,
                "end_time": 63.7386364,
                "pitch": 51,
                "velocity": 51,
                "duration": 0.1818182,
                "tempo": 120.0
            },
            {
                "start_time": 63.7568182,
                "end_time": 63.8386364,
                "pitch": 51,
                "velocity": 51,
                "duration": 0.0818182,
                "tempo": 120.0
            },
            {
                "start_time": 63.8568182,
                "end_time": 63.9386364,
                "pitch": 51,
                "velocity": 51,
                "duration": 0.0818182,
                "tempo": 120.0
            },
            {
                "start_time": 63.9568182,
                "end_time": 64.0409091,
                "pitch": 51,
                "velocity": 51,
                "duration": 0.0840909,
                "tempo": 120.0
            },
            {
                "start_time": 64.0568182,
                "end_time": 64.1409091,
                "pitch": 51,
                "velocity": 51,
                "duration": 0.0840909,
                "tempo": 120.0
            },
            {
                "start_time": 64.1568182,
                "end_time": 64.3409091,
                "pitch": 51,
                "velocity": 51,
                "duration": 0.1840909,
                "tempo": 120.0
            },
            {
                "start_time": 64.3568182,
                "end_time": 64.4409091,
                "pitch": 51,
                "velocity": 51,
                "duration": 0.0840909,
                "tempo": 120.0
            },
            {
                "start_time": 64.4568182,
                "end_time": 64.7409091,
                "pitch": 51,
                "velocity": 51,
                "duration": 0.2840909,
                "tempo": 120.0
            },
            {
                "start_time": 64.7568182,
                "end_time": 64.9409091,
                "pitch": 56,
                "velocity": 51,
                "duration": 0.1840909,
                "tempo": 120.0
            },
            {
                "start_time": 64.9568182,
                "end_time": 65.0409091,
                "pitch": 56,
                "velocity": 51,
                "duration": 0.0840909,
                "tempo": 120.0
            },
            {
                "start_time": 65.5590909,
                "end_time": 65.9431818,
                "pitch": 44,
                "velocity": 51,
                "duration": 0.3840909,
                "tempo": 120.0
            },
            {
                "start_time": 65.9590909,
                "end_time": 66.1431818,
                "pitch": 41,
                "velocity": 51,
                "duration": 0.1840909,
                "tempo": 120.0
            },
            {
                "start_time": 66.1590909,
                "end_time": 66.2431818,
                "pitch": 39,
                "velocity": 51,
                "duration": 0.0840909,
                "tempo": 120.0
            },
            {
                "start_time": 66.4590909,
                "end_time": 66.7431818,
                "pitch": 44,
                "velocity": 51,
                "duration": 0.2840909,
                "tempo": 120.0
            },
            {
                "start_time": 66.7590909,
                "end_time": 66.8431818,
                "pitch": 41,
                "velocity": 51,
                "duration": 0.0840909,
                "tempo": 120.0
            },
            {
                "start_time": 66.8613636,
                "end_time": 67.1431818,
                "pitch": 44,
                "velocity": 51,
                "duration": 0.2818182,
                "tempo": 120.0
            },
            {
                "start_time": 67.1613636,
                "end_time": 67.3431818,
                "pitch": 41,
                "velocity": 51,
                "duration": 0.1818182,
                "tempo": 120.0
            },
            {
                "start_time": 67.3613636,
                "end_time": 67.4431818,
                "pitch": 39,
                "velocity": 51,
                "duration": 0.0818182,
                "tempo": 120.0
            },
            {
                "start_time": 67.4613636,
                "end_time": 67.6431818,
                "pitch": 44,
                "velocity": 51,
                "duration": 0.1818182,
                "tempo": 120.0
            },
            {
                "start_time": 67.9613636,
                "end_time": 68.3454545,
                "pitch": 44,
                "velocity": 51,
                "duration": 0.3840909,
                "tempo": 120.0
            },
            {
                "start_time": 68.3613636,
                "end_time": 68.5454545,
                "pitch": 41,
                "velocity": 51,
                "duration": 0.1840909,
                "tempo": 120.0
            },
            {
                "start_time": 68.5613636,
                "end_time": 68.6454545,
                "pitch": 39,
                "velocity": 51,
                "duration": 0.0840909,
                "tempo": 120.0
            },
            {
                "start_time": 68.8613636,
                "end_time": 69.1454545,
                "pitch": 44,
                "velocity": 51,
                "duration": 0.2840909,
                "tempo": 120.0
            },
            {
                "start_time": 69.1613636,
                "end_time": 69.2454545,
                "pitch": 41,
                "velocity": 51,
                "duration": 0.0840909,
                "tempo": 120.0
            },
            {
                "start_time": 69.2613636,
                "end_time": 69.5454545,
                "pitch": 44,
                "velocity": 51,
                "duration": 0.2840909,
                "tempo": 120.0
            },
            {
                "start_time": 69.5613636,
                "end_time": 69.7454545,
                "pitch": 41,
                "velocity": 51,
                "duration": 0.1840909,
                "tempo": 120.0
            },
            {
                "start_time": 69.7636364,
                "end_time": 69.8477273,
                "pitch": 39,
                "velocity": 51,
                "duration": 0.0840909,
                "tempo": 120.0
            },
            {
                "start_time": 69.8636364,
                "end_time": 70.0477273,
                "pitch": 44,
                "velocity": 51,
                "duration": 0.1840909,
                "tempo": 120.0
            },
            {
                "start_time": 70.3636364,
                "end_time": 70.7477273,
                "pitch": 44,
                "velocity": 51,
                "duration": 0.3840909,
                "tempo": 120.0
            },
            {
                "start_time": 70.7636364,
                "end_time": 70.9477273,
                "pitch": 41,
                "velocity": 51,
                "duration": 0.1840909,
                "tempo": 120.0
            },
            {
                "start_time": 70.9636364,
                "end_time": 71.0477273,
                "pitch": 39,
                "velocity": 51,
                "duration": 0.0840909,
                "tempo": 120.0
            },
            {
                "start_time": 71.2636364,
                "end_time": 71.5477273,
                "pitch": 44,
                "velocity": 51,
                "duration": 0.2840909,
                "tempo": 120.0
            },
            {
                "start_time": 71.5659091,
                "end_time": 71.6477273,
                "pitch": 41,
                "velocity": 51,
                "duration": 0.0818182,
                "tempo": 120.0
            },
            {
                "start_time": 71.6659091,
                "end_time": 71.9477273,
                "pitch": 44,
                "velocity": 51,
                "duration": 0.2818182,
                "tempo": 120.0
            },
            {
                "start_time": 71.9659091,
                "end_time": 72.1477273,
                "pitch": 41,
                "velocity": 51,
                "duration": 0.1818182,
                "tempo": 120.0
            },
            {
                "start_time": 72.1659091,
                "end_time": 72.2477273,
                "pitch": 39,
                "velocity": 51,
                "duration": 0.0818182,
                "tempo": 120.0
            },
            {
                "start_time": 72.2659091,
                "end_time": 72.4477273,
                "pitch": 44,
                "velocity": 51,
                "duration": 0.1818182,
                "tempo": 120.0
            },
            {
                "start_time": 72.7659091,
                "end_time": 73.15,
                "pitch": 44,
                "velocity": 51,
                "duration": 0.3840909,
                "tempo": 120.0
            },
            {
                "start_time": 73.1659091,
                "end_time": 73.35,
                "pitch": 41,
                "velocity": 51,
                "duration": 0.1840909,
                "tempo": 120.0
            },
            {
                "start_time": 73.3659091,
                "end_time": 73.45,
                "pitch": 39,
                "velocity": 51,
                "duration": 0.0840909,
                "tempo": 120.0
            },
            {
                "start_time": 73.6659091,
                "end_time": 73.95,
                "pitch": 44,
                "velocity": 51,
                "duration": 0.2840909,
                "tempo": 120.0
            },
            {
                "start_time": 73.9659091,
                "end_time": 74.05,
                "pitch": 41,
                "velocity": 51,
                "duration": 0.0840909,
                "tempo": 120.0
            },
            {
                "start_time": 74.0659091,
                "end_time": 74.3522727,
                "pitch": 44,
                "velocity": 51,
                "duration": 0.2863636,
                "tempo": 120.0
            },
            {
                "start_time": 74.3681818,
                "end_time": 74.5522727,
                "pitch": 41,
                "velocity": 51,
                "duration": 0.1840909,
                "tempo": 120.0
            }
        ]
    }
}