{
    "mood": "happy",
    "instruments": {
        "Clarinet": [
            {
                "start_time": 0.0,
                "end_time": 0.0295455,
                "pitch": 75,
                "velocity": 80,
                "duration": 0.0295455,
                "tempo": 120.0
            },
            {
                "start_time": 0.0477273,
                "end_time": 2.3431818,
                "pitch": 76,
                "velocity": 80,
                "duration": 2.2954545,
                "tempo": 120.0
            },
            {
                "start_time": 2.6522727,
                "end_time": 2.7545455,
                "pitch": 72,
                "velocity": 80,
                "duration": 0.1022727,
                "tempo": 120.0
            },
            {
                "start_time": 2.7886364,
                "end_time": 2.8227273,
                "pitch": 74,
                "velocity": 80,
                "duration": 0.0340909,
                "tempo": 120.0
            },
            {
                "start_time": 3.0568182,
                "end_time": 4.7522727,
                "pitch": 69,
                "velocity": 80,
                "duration": 1.6954545,
                "tempo": 120.0
            },
            {
                "start_time": 6.2295455,
                "end_time": 6.3681818,
                "pitch": 64,
                "velocity": 80,
                "duration": 0.1386364,
                "tempo": 120.0
            },
            {
                "start_time": 6.4022727,
                "end_time": 6.6295455,
                "pitch": 67,
                "velocity": 80,
                "duration": 0.2272727,
                "tempo": 120.0
            },
            {
                "start_time": 6.6636364,
                "end_time": 6.7613636,
                "pitch": 69,
                "velocity": 80,
                "duration": 0.0977273,
                "tempo": 120.0
            },
            {
                "start_time": 8.3909091,
                "end_time": 8.5590909,
                "pitch": 72,
                "velocity": 80,
                "duration": 0.1681818,
                "tempo": 120.0
            },
            {
                "start_time": 8.6590909,
                "end_time": 8.8272727,
                "pitch": 69,
                "velocity": 80,
                "duration": 0.1681818,
                "tempo": 120.0
            },
            {
                "start_time": 9.0727273,
                "end_time": 9.2454545,
                "pitch": 74,
                "velocity": 80,
                "duration": 0.1727273,
                "tempo": 120.0
            },
            {
                "start_time": 9.475,
                "end_time": 10.7886364,
                "pitch": 72,
                "velocity": 80,
                "duration": 1.3136364,
                "tempo": 120.0
            },
            {
                "start_time": 10.8227273,
                "end_time": 11.05,
                "pitch": 74,
                "velocity": 80,
                "duration": 0.2272727,
                "tempo": 120.0
            },
            {
                "start_time": 11.0840909,
                "end_time": 11.1818182,
                "pitch": 69,
                "velocity": 80,
                "duration": 0.0977273,
                "tempo": 120.0
            },
            {
                "start_time": 11.5727273,
                "end_time": 11.7068182,
                "pitch": 75,
                "velocity": 80,
                "duration": 0.1340909,
                "tempo": 120.0
            },
            {
                "start_time": 11.7409091,
                "end_time": 11.8409091,
                "pitch": 76,
                "velocity": 80,
                "duration": 0.1,
                "tempo": 120.0
            },
            {
                "start_time": 11.875,
                "end_time": 11.975,
                "pitch": 75,
                "velocity": 80,
                "duration": 0.1,
                "tempo": 120.0
            },
            {
                "start_time": 12.0090909,
                "end_time": 12.1136364,
                "pitch": 74,
                "velocity": 80,
                "duration": 0.1045455,
                "tempo": 120.0
            },
            {
                "start_time": 12.15,
                "end_time": 12.2204545,
                "pitch": 73,
                "velocity": 80,
                "duration": 0.0704545,
                "tempo": 120.0
            },
            {
                "start_time": 12.2545455,
                "end_time": 12.3954545,
                "pitch": 72,
                "velocity": 80,
                "duration": 0.1409091,
                "tempo": 120.0
            },
            {
                "start_time": 12.4318182,
                "end_time": 12.6,
                "pitch": 69,
                "velocity": 80,
                "duration": 0.1681818,
                "tempo": 120.0
            },
            {
                "start_time": 12.7,
                "end_time": 12.8,
                "pitch": 67,
                "velocity": 80,
                "duration": 0.1,
                "tempo": 120.0
            },
            {
                "start_time": 12.8340909,
                "end_time": 13.0636364,
                "pitch": 69,
                "velocity": 80,
                "duration": 0.2295455,
                "tempo": 120.0
            },
            {
                "start_time": 13.0954545,
                "end_time": 13.1931818,
                "pitch": 72,
                "velocity": 80,
                "duration": 0.0977273,
                "tempo": 120.0
            },
            {
                "start_time": 13.2272727,
                "end_time": 13.3931818,
                "pitch": 64,
                "velocity": 80,
                "duration": 0.1659091,
                "tempo": 120.0
            },
            {
                "start_time": 14.6931818,
                "end_time": 14.7909091,
                "pitch": 63,
                "velocity": 80,
                "duration": 0.0977273,
                "tempo": 120.0
            },
            {
                "start_time": 14.825,
                "end_time": 15.0636364,
                "pitch": 64,
                "velocity": 80,
                "duration": 0.2386364,
                "tempo": 120.0
            },
            {
                "start_time": 15.0977273,
                "end_time": 15.2,
                "pitch": 63,
                "velocity": 80,
                "duration": 0.1022727,
                "tempo": 120.0
            },
            {
                "start_time": 15.2340909,
                "end_time": 15.4068182,
                "pitch": 62,
                "velocity": 80,
                "duration": 0.1727273,
                "tempo": 120.0
            },
            {
                "start_time": 15.5090909,
                "end_time": 15.6113636,
                "pitch": 60,
                "velocity": 80,
                "duration": 0.1022727,
                "tempo": 120.0
            },
            {
                "start_time": 15.6454545,
                "end_time": 15.8090909,
                "pitch": 62,
                "velocity": 80,
                "duration": 0.1636364,
                "tempo": 120.0
            },
            {
                "start_time": 15.9068182,
                "end_time": 16.0045455,
                "pitch": 64,
                "velocity": 80,
                "duration": 0.0977273,
                "tempo": 120.0
            },
            {
                "start_time": 16.3068182,
                "end_time": 17.6113636,
                "pitch": 57,
                "velocity": 80,
                "duration": 1.3045455,
                "tempo": 120.0
            },
            {
                "start_time": 18.0363636,
                "end_time": 18.1363636,
                "pitch": 52,
                "velocity": 80,
                "duration": 0.1,
                "tempo": 120.0
            },
            {
                "start_time": 18.1704545,
                "end_time": 18.2704545,
                "pitch": 55,
                "velocity": 80,
                "duration": 0.1,
                "tempo": 120.0
            },
            {
                "start_time": 18.3022727,
                "end_time": 18.4022727,
                "pitch": 57,
                "velocity": 80,
                "duration": 0.1,
                "tempo": 120.0
            },
            {
                "start_time": 18.4363636,
                "end_time": 18.5068182,
                "pitch": 55,
                "velocity": 80,
                "duration": 0.0704545,
                "tempo": 120.0
            },
            {
                "start_time": 18.5409091,
                "end_time": 18.6818182,
                "pitch": 57,
                "velocity": 80,
                "duration": 0.1409091,
                "tempo": 120.0
            },
            {
                "start_time": 18.7181818,
                "end_time": 18.8227273,
                "pitch": 60,
                "velocity": 80,
                "duration": 0.1045455,
                "tempo": 120.0
            },
            {
                "start_time": 18.8590909,
                "end_time": 18.9590909,
                "pitch": 57,
                "velocity": 80,
                "duration": 0.1,
                "tempo": 120.0
            },
            {
                "start_time": 18.9909091,
                "end_time": 19.0909091,
                "pitch": 60,
                "velocity": 80,
                "duration": 0.1,
                "tempo": 120.0
            },
            {
                "start_time": 19.125,
                "end_time": 19.225,
                "pitch": 62,
                "velocity": 80,
                "duration": 0.1,
                "tempo": 120.0
            },
            {
                "start_time": 19.2590909,
                "end_time": 19.6181818,
                "pitch": 64,
                "velocity": 80,
                "duration": 0.3590909,
                "tempo": 120.0
            },
            {
                "start_time": 20.05,
                "end_time": 20.4272727,
                "pitch": 65,
                "velocity": 101,
                "duration": 0.3772727,
                "tempo": 120.0
            },
            {
                "start_time": 21.1159091,
                "end_time": 21.2795455,
                "pitch": 69,
                "velocity": 101,
                "duration": 0.1636364,
                "tempo": 120.0
            },
            {
                "start_time": 21.5204545,
                "end_time": 21.6227273,
                "pitch": 67,
                "velocity": 101,
                "duration": 0.1022727,
                "tempo": 120.0
            },
            {
                "start_time": 21.7931818,
                "end_time": 21.8954545,
                "pitch": 64,
                "velocity": 101,
                "duration": 0.1022727,
                "tempo": 120.0
            },
            {
                "start_time": 22.0681818,
                "end_time": 22.1659091,
                "pitch": 62,
                "velocity": 101,
                "duration": 0.0977273,
                "tempo": 120.0
            },
            {
                "start_time": 22.3295455,
                "end_time": 22.4272727,
                "pitch": 64,
                "velocity": 101,
                "duration": 0.0977273,
                "tempo": 120.0
            },
            {
                "start_time": 22.5931818,
                "end_time": 23.6386364,
                "pitch": 60,
                "velocity": 101,
                "duration": 1.0454545,
                "tempo": 120.0
            },
            {
                "start_time": 23.6727273,
                "end_time": 23.9022727,
                "pitch": 57,
                "velocity": 101,
                "duration": 0.2295455,
                "tempo": 120.0
            },
            {
                "start_time": 23.9340909,
                "end_time": 24.0318182,
                "pitch": 60,
                "velocity": 80,
                "duration": 0.0977273,
                "tempo": 120.0
            },
            {
                "start_time": 24.1954545,
                "end_time": 24.2931818,
                "pitch": 69,
                "velocity": 80,
                "duration": 0.0977273,
                "tempo": 120.0
            },
            {
                "start_time": 24.4568182,
                "end_time": 24.5613636,
                "pitch": 69,
                "velocity": 80,
                "duration": 0.1045455,
                "tempo": 120.0
            },
            {
                "start_time": 25.0,
                "end_time": 25.0977273,
                "pitch": 71,
                "velocity": 80,
                "duration": 0.0977273,
                "tempo": 120.0
            },
            {
                "start_time": 25.2613636,
                "end_time": 25.3636364,
                "pitch": 71,
                "velocity": 80,
                "duration": 0.1022727,
                "tempo": 120.0
            }
        ],
        "Trumpet": [
            {
                "start_time": 0.3795455,
                "end_time": 0.6090909,
                "pitch": 64,
                "velocity": 51,
                "duration": 0.2295455,
                "tempo": 120.0
            },
            {
                "start_time": 0.6409091,
                "end_time": 0.7386364,
                "pitch": 64,
                "velocity": 51,
                "duration": 0.0977273,
                "tempo": 120.0
            },
            {
                "start_time": 1.1818182,
                "end_time": 1.4113636,
                "pitch": 64,
                "velocity": 51,
                "duration": 0.2295455,
                "tempo": 120.0
            },
            {
                "start_time": 1.4454545,
                "end_time": 1.5431818,
                "pitch": 64,
                "velocity": 51,
                "duration": 0.0977273,
                "tempo": 120.0
            },
            {
                "start_time": 2.3772727,
                "end_time": 3.1568182,
                "pitch": 64,
                "velocity": 51,
                "duration": 0.7795455,
                "tempo": 120.0
            },
            {
                "start_time": 3.5818182,
                "end_time": 3.8159091,
                "pitch": 64,
                "velocity": 51,
                "duration": 0.2340909,
                "tempo": 120.0
            },
            {
                "start_time": 3.8477273,
                "end_time": 3.9477273,
                "pitch": 64,
                "velocity": 51,
                "duration": 0.1,
                "tempo": 120.0
            },
            {
                "start_time": 4.3931818,
                "end_time": 4.6204545,
                "pitch": 64,
                "velocity": 51,
                "duration": 0.2272727,
                "tempo": 120.0
            },
            {
                "start_time": 4.6545455,
                "end_time": 4.7522727,
                "pitch": 64,
                "velocity": 51,
                "duration": 0.0977273,
                "tempo": 120.0
            },
            {
                "start_time": 5.5795455,
                "end_time": 6.3681818,
                "pitch": 67,
                "velocity": 51,
                "duration": 0.7886364,
                "tempo": 120.0
            },
            {
                "start_time": 6.7931818,
                "end_time": 7.0295455,
                "pitch": 65,
                "velocity": 51,
                "duration": 0.2363636,
                "tempo": 120.0
            },
            {
                "start_time": 7.0613636,
                "end_time": 7.1636364,
                "pitch": 65,
                "velocity": 51,
                "duration": 0.1022727,
                "tempo": 120.0
            },
            {
                "start_time": 7.6068182,
                "end_time": 7.8363636,
                "pitch": 65,
                "velocity": 51,
                "duration": 0.2295455,
                "tempo": 120.0
            },
            {
                "start_time": 7.8681818,
                "end_time": 7.9659091,
                "pitch": 65,
                "velocity": 51,
                "duration": 0.0977273,
                "tempo": 120.0
            },
            {
                "start_time": 8.7909091,
                "end_time": 9.5727273,
                "pitch": 65,
                "velocity": 51,
                "duration": 0.7818182,
                "tempo": 120.0
            },
            {
                "start_time": 10.0090909,
                "end_time": 10.2431818,
                "pitch": 65,
                "velocity": 51,
                "duration": 0.2340909,
                "tempo": 120.0
            },
            {
                "start_time": 10.2772727,
                "end_time": 10.3772727,
                "pitch": 65,
                "velocity": 51,
                "duration": 0.1,
                "tempo": 120.0
            },
            {
                "start_time": 10.8227273,
                "end_time": 11.05,
                "pitch": 65,
                "velocity": 51,
                "duration": 0.2272727,
                "tempo": 120.0
            },
            {
                "start_time": 11.0840909,
                "end_time": 11.1818182,
                "pitch": 65,
                "velocity": 51,
                "duration": 0.0977273,
                "tempo": 120.0
            },
            {
                "start_time": 12.0090909,
                "end_time": 12.8,
                "pitch": 69,
                "velocity": 51,
                "duration": 0.7909091,
                "tempo": 120.0
            },
            {
                "start_time": 13.2272727,
                "end_time": 13.4613636,
                "pitch": 64,
                "velocity": 51,
                "duration": 0.2340909,
                "tempo": 120.0
            },
            {
                "start_time": 13.4954545,
                "end_time": 13.5954545,
                "pitch": 64,
                "velocity": 51,
                "duration": 0.1,
                "tempo": 120.0
            },
            {
                "start_time": 14.0409091,
                "end_time": 14.2681818,
                "pitch": 64,
                "velocity": 51,
                "duration": 0.2272727,
                "tempo": 120.0
            },
            {
                "start_time": 14.3022727,
                "end_time": 14.4,
                "pitch": 64,
                "velocity": 51,
                "duration": 0.0977273,
                "tempo": 120.0
            },
            {
                "start_time": 15.2340909,
                "end_time": 16.0045455,
                "pitch": 64,
                "velocity": 51,
                "duration": 0.7704545,
                "tempo": 120.0
            },
            {
                "start_time": 16.4409091,
                "end_time": 16.675,
                "pitch": 64,
                "velocity": 51,
                "duration": 0.2340909,
                "tempo": 120.0
            },
            {
                "start_time": 16.7068182,
                "end_time": 16.8068182,
                "pitch": 64,
                "velocity": 51,
                "duration": 0.1,
                "tempo": 120.0
            },
            {
                "start_time": 17.2522727,
                "end_time": 17.4795455,
                "pitch": 64,
                "velocity": 51,
                "duration": 0.2272727,
                "tempo": 120.0
            },
            {
                "start_time": 17.5136364,
                "end_time": 17.6113636,
                "pitch": 64,
                "velocity": 51,
                "duration": 0.0977273,
                "tempo": 120.0
            },
            {
                "start_time": 18.4363636,
                "end_time": 19.225,
                "pitch": 67,
                "velocity": 51,
                "duration": 0.7886364,
                "tempo": 120.0
            },
            {
                "start_time": 19.5204545,
                "end_time": 20.0181818,
                "pitch": 60,
                "velocity": 51,
                "duration": 0.4977273,
                "tempo": 120.0
            },
            {
                "start_time": 20.325,
                "end_time": 20.8204545,
                "pitch": 60,
                "velocity": 51,
                "duration": 0.4954545,
                "tempo": 120.0
            },
            {
                "start_time": 21.6568182,
                "end_time": 22.4272727,
                "pitch": 65,
                "velocity": 51,
                "duration": 0.7704545,
                "tempo": 120.0
            },
            {
                "start_time": 22.8590909,
                "end_time": 23.0954545,
                "pitch": 65,
                "velocity": 51,
                "duration": 0.2363636,
                "tempo": 120.0
            },
            {
                "start_time": 23.1272727,
                "end_time": 23.2295455,
                "pitch": 65,
                "velocity": 51,
                "duration": 0.1022727,
                "tempo": 120.0
            },
            {
                "start_time": 23.6727273,
                "end_time": 23.9022727,
                "pitch": 65,
                "velocity": 51,
                "duration": 0.2295455,
                "tempo": 120.0
            },
            {
                "start_time": 23.9340909,
                "end_time": 24.0318182,
                "pitch": 65,
                "velocity": 51,
                "duration": 0.0977273,
                "tempo": 120.0
            },
            {
                "start_time": 24.1954545,
                "end_time": 24.3590909,
                "pitch": 65,
                "velocity": 51,
                "duration": 0.1636364,
                "tempo": 120.0
            },
            {
                "start_time": 24.4568182,
                "end_time": 24.5613636,
                "pitch": 65,
                "velocity": 51,
                "duration": 0.1045455,
                "tempo": 120.0
            },
            {
                "start_time": 25.0,
                "end_time": 25.1613636,
                "pitch": 67,
                "velocity": 51,
                "duration": 0.1613636,
                "tempo": 120.0
            },
            {
                "start_time": 25.2613636,
                "end_time": 25.3636364,
                "pitch": 67,
                "velocity": 51,
                "duration": 0.1022727,
                "tempo": 120.0
            }
        ],
        "Acoustic Bass": [
            {
                "start_time": 0.0136364,
                "end_time": 0.2136364,
                "pitch": 33,
                "velocity": 51,
                "duration": 0.2,
                "tempo": 120.0
            },
            {
                "start_time": 0.2477273,
                "end_time": 0.3477273,
                "pitch": 33,
                "velocity": 51,
                "duration": 0.1,
                "tempo": 120.0
            },
            {
                "start_time": 0.3795455,
                "end_time": 0.6090909,
                "pitch": 36,
                "velocity": 51,
                "duration": 0.2295455,
                "tempo": 120.0
            },
            {
                "start_time": 0.6409091,
                "end_time": 0.7386364,
                "pitch": 36,
                "velocity": 51,
                "duration": 0.0977273,
                "tempo": 120.0
            },
            {
                "start_time": 0.7727273,
                "end_time": 1.0113636,
                "pitch": 33,
                "velocity": 51,
                "duration": 0.2386364,
                "tempo": 120.0
            },
            {
                "start_time": 1.0454545,
                "end_time": 1.1477273,
                "pitch": 31,
                "velocity": 51,
                "duration": 0.1022727,
                "tempo": 120.0
            },
            {
                "start_time": 1.1818182,
                "end_time": 1.4113636,
                "pitch": 32,
                "velocity": 51,
                "duration": 0.2295455,
                "tempo": 120.0
            },
            {
                "start_time": 1.4454545,
                "end_time": 1.5431818,
                "pitch": 33,
                "velocity": 51,
                "duration": 0.0977273,
                "tempo": 120.0
            },
            {
                "start_time": 3.1886364,
                "end_time": 3.4181818,
                "pitch": 33,
                "velocity": 51,
                "duration": 0.2295455,
                "tempo": 120.0
            },
            {
                "start_time": 3.45,
                "end_time": 3.55,
                "pitch": 33,
                "velocity": 51,
                "duration": 0.1,
                "tempo": 120.0
            },
            {
                "start_time": 3.5818182,
                "end_time": 3.8159091,
                "pitch": 36,
                "velocity": 51,
                "duration": 0.2340909,
                "tempo": 120.0
            },
            {
                "start_time": 3.8477273,
                "end_time": 3.9477273,
                "pitch": 36,
                "velocity": 51,
                "duration": 0.1,
                "tempo": 120.0
            },
            {
                "start_time": 3.9818182,
                "end_time": 4.2204545,
                "pitch": 33,
                "velocity": 51,
                "duration": 0.2386364,
                "tempo": 120.0
            },
            {
                "start_time": 4.2545455,
                "end_time": 4.3227273,
                "pitch": 31,
                "velocity": 51,
                "duration": 0.0681818,
                "tempo": 120.0
            },
            {
                "start_time": 4.3590909,
                "end_time": 4.6204545,
                "pitch": 32,
                "velocity": 51,
                "duration": 0.2613636,
                "tempo": 120.0
            },
            {
                "start_time": 4.6545455,
                "end_time": 4.7522727,
                "pitch": 33,
                "velocity": 51,
                "duration": 0.0977273,
                "tempo": 120.0
            },
            {
                "start_time": 5.8545455,
                "end_time": 5.9568182,
                "pitch": 28,
                "velocity": 51,
                "duration": 0.1022727,
                "tempo": 120.0
            },
            {
                "start_time": 5.9909091,
                "end_time": 6.0931818,
                "pitch": 31,
                "velocity": 51,
                "duration": 0.1022727,
                "tempo": 120.0
            },
            {
                "start_time": 6.1272727,
                "end_time": 6.2295455,
                "pitch": 32,
                "velocity": 51,
                "duration": 0.1022727,
                "tempo": 120.0
            },
            {
                "start_time": 6.2636364,
                "end_time": 6.3681818,
                "pitch": 33,
                "velocity": 51,
                "duration": 0.1045455,
                "tempo": 120.0
            },
            {
                "start_time": 6.4022727,
                "end_time": 6.6295455,
                "pitch": 38,
                "velocity": 51,
                "duration": 0.2272727,
                "tempo": 120.0
            },
            {
                "start_time": 6.6636364,
                "end_time": 6.7613636,
                "pitch": 38,
                "velocity": 51,
                "duration": 0.0977273,
                "tempo": 120.0
            },
            {
                "start_time": 6.7931818,
                "end_time": 7.0295455,
                "pitch": 41,
                "velocity": 51,
                "duration": 0.2363636,
                "tempo": 120.0
            },
            {
                "start_time": 7.0613636,
                "end_time": 7.1636364,
                "pitch": 41,
                "velocity": 51,
                "duration": 0.1022727,
                "tempo": 120.0
            },
            {
                "start_time": 7.1954545,
                "end_time": 7.4363636,
                "pitch": 38,
                "velocity": 51,
                "duration": 0.2409091,
                "tempo": 120.0
            },
            {
                "start_time": 7.4704545,
                "end_time": 7.5727273,
                "pitch": 36,
                "velocity": 51,
                "duration": 0.1022727,
                "tempo": 120.0
            },
            {
                "start_time": 7.6068182,
                "end_time": 7.8363636,
                "pitch": 37,
                "velocity": 51,
                "duration": 0.2295455,
                "tempo": 120.0
            },
            {
                "start_time": 7.8681818,
                "end_time": 7.9659091,
                "pitch": 38,
                "velocity": 51,
                "duration": 0.0977273,
                "tempo": 120.0
            },
            {
                "start_time": 9.6068182,
                "end_time": 9.8409091,
                "pitch": 38,
                "velocity": 51,
                "duration": 0.2340909,
                "tempo": 120.0
            },
            {
                "start_time": 9.875,
                "end_time": 9.975,
                "pitch": 38,
                "velocity": 51,
                "duration": 0.1,
                "tempo": 120.0
            },
            {
                "start_time": 10.0090909,
                "end_time": 10.2431818,
                "pitch": 41,
                "velocity": 51,
                "duration": 0.2340909,
                "tempo": 120.0
            },
            {
                "start_time": 10.2772727,
                "end_time": 10.3772727,
                "pitch": 41,
                "velocity": 51,
                "duration": 0.1,
                "tempo": 120.0
            },
            {
                "start_time": 10.4113636,
                "end_time": 10.65,
                "pitch": 38,
                "velocity": 51,
                "duration": 0.2386364,
                "tempo": 120.0
            },
            {
                "start_time": 10.6840909,
                "end_time": 10.7886364,
                "pitch": 36,
                "velocity": 51,
                "duration": 0.1045455,
                "tempo": 120.0
            },
            {
                "start_time": 10.8227273,
                "end_time": 11.05,
                "pitch": 37,
                "velocity": 51,
                "duration": 0.2272727,
                "tempo": 120.0
            },
            {
                "start_time": 11.0840909,
                "end_time": 11.1818182,
                "pitch": 38,
                "velocity": 51,
                "duration": 0.0977273,
                "tempo": 120.0
            },
            {
                "start_time": 11.475,
                "end_time": 11.8409091,
                "pitch": 45,
                "velocity": 51,
                "duration": 0.3659091,
                "tempo": 120.0
            },
            {
                "start_time": 11.875,
                "end_time": 11.975,
                "pitch": 45,
                "velocity": 51,
                "duration": 0.1,
                "tempo": 120.0
            },
            {
                "start_time": 12.0090909,
                "end_time": 12.1136364,
                "pitch": 44,
                "velocity": 51,
                "duration": 0.1045455,
                "tempo": 120.0
            },
            {
                "start_time": 12.15,
                "end_time": 12.2545455,
                "pitch": 43,
                "velocity": 51,
                "duration": 0.1045455,
                "tempo": 120.0
            },
            {
                "start_time": 12.2909091,
                "end_time": 12.3954545,
                "pitch": 41,
                "velocity": 51,
                "duration": 0.1045455,
                "tempo": 120.0
            },
            {
                "start_time": 12.4318182,
                "end_time": 12.6659091,
                "pitch": 36,
                "velocity": 51,
                "duration": 0.2340909,
                "tempo": 120.0
            },
            {
                "start_time": 12.7,
                "end_time": 12.8,
                "pitch": 38,
                "velocity": 51,
                "duration": 0.1,
                "tempo": 120.0
            },
            {
                "start_time": 12.8340909,
                "end_time": 13.0636364,
                "pitch": 33,
                "velocity": 51,
                "duration": 0.2295455,
                "tempo": 120.0
            },
            {
                "start_time": 13.0954545,
                "end_time": 13.1931818,
                "pitch": 33,
                "velocity": 51,
                "duration": 0.0977273,
                "tempo": 120.0
            },
            {
                "start_time": 13.2272727,
                "end_time": 13.4613636,
                "pitch": 36,
                "velocity": 51,
                "duration": 0.2340909,
                "tempo": 120.0
            },
            {
                "start_time": 13.4954545,
                "end_time": 13.5954545,
                "pitch": 36,
                "velocity": 51,
                "duration": 0.1,
                "tempo": 120.0
            },
            {
                "start_time": 13.6295455,
                "end_time": 13.8681818,
                "pitch": 33,
                "velocity": 51,
                "duration": 0.2386364,
                "tempo": 120.0
            },
            {
                "start_time": 13.9022727,
                "end_time": 14.0045455,
                "pitch": 31,
                "velocity": 51,
                "duration": 0.1022727,
                "tempo": 120.0
            },
            {
                "start_time": 14.0409091,
                "end_time": 14.2681818,
                "pitch": 32,
                "velocity": 51,
                "duration": 0.2272727,
                "tempo": 120.0
            },
            {
                "start_time": 14.3022727,
                "end_time": 14.4,
                "pitch": 33,
                "velocity": 51,
                "duration": 0.0977273,
                "tempo": 120.0
            },
            {
                "start_time": 16.0386364,
                "end_time": 16.2727273,
                "pitch": 33,
                "velocity": 51,
                "duration": 0.2340909,
                "tempo": 120.0
            },
            {
                "start_time": 16.3068182,
                "end_time": 16.4068182,
                "pitch": 33,
                "velocity": 51,
                "duration": 0.1,
                "tempo": 120.0
            },
            {
                "start_time": 16.4409091,
                "end_time": 16.675,
                "pitch": 36,
                "velocity": 51,
                "duration": 0.2340909,
                "tempo": 120.0
            },
            {
                "start_time": 16.7068182,
                "end_time": 16.8068182,
                "pitch": 36,
                "velocity": 51,
                "duration": 0.1,
                "tempo": 120.0
            },
            {
                "start_time": 16.8409091,
                "end_time": 17.0795455,
                "pitch": 33,
                "velocity": 51,
                "duration": 0.2386364,
                "tempo": 120.0
            },
            {
                "start_time": 17.1136364,
                "end_time": 17.2181818,
                "pitch": 31,
                "velocity": 51,
                "duration": 0.1045455,
                "tempo": 120.0
            },
            {
                "start_time": 17.2522727,
                "end_time": 17.4795455,
                "pitch": 32,
                "velocity": 51,
                "duration": 0.2272727,
                "tempo": 120.0
            },
            {
                "start_time": 17.5136364,
                "end_time": 17.6113636,
                "pitch": 33,
                "velocity": 51,
                "duration": 0.0977273,
                "tempo": 120.0
            },
            {
                "start_time": 18.7181818,
                "end_time": 18.8227273,
                "pitch": 28,
                "velocity": 51,
                "duration": 0.1045455,
                "tempo": 120.0
            },
            {
                "start_time": 18.8590909,
                "end_time": 18.9590909,
                "pitch": 31,
                "velocity": 51,
                "duration": 0.1,
                "tempo": 120.0
            },
            {
                "start_time": 18.9909091,
                "end_time": 19.0909091,
                "pitch": 32,
                "velocity": 51,
                "duration": 0.1,
                "tempo": 120.0
            },
            {
                "start_time": 19.125,
                "end_time": 19.225,
                "pitch": 33,
                "velocity": 51,
                "duration": 0.1,
                "tempo": 120.0
            },
            {
                "start_time": 19.2590909,
                "end_time": 19.4863636,
                "pitch": 38,
                "velocity": 51,
                "duration": 0.2272727,
                "tempo": 120.0
            },
            {
                "start_time": 19.5204545,
                "end_time": 19.6181818,
                "pitch": 38,
                "velocity": 51,
                "duration": 0.0977273,
                "tempo": 120.0
            },
            {
                "start_time": 19.65,
                "end_time": 19.8840909,
                "pitch": 41,
                "velocity": 51,
                "duration": 0.2340909,
                "tempo": 120.0
            },
            {
                "start_time": 19.9181818,
                "end_time": 20.0181818,
                "pitch": 41,
                "velocity": 51,
                "duration": 0.1,
                "tempo": 120.0
            },
            {
                "start_time": 20.05,
                "end_time": 20.2909091,
                "pitch": 38,
                "velocity": 51,
                "duration": 0.2409091,
                "tempo": 120.0
            },
            {
                "start_time": 20.325,
                "end_time": 20.4272727,
                "pitch": 36,
                "velocity": 51,
                "duration": 0.1022727,
                "tempo": 120.0
            },
            {
                "start_time": 20.4613636,
                "end_time": 20.6909091,
                "pitch": 37,
                "velocity": 51,
                "duration": 0.2295455,
                "tempo": 120.0
            },
            {
                "start_time": 20.7227273,
                "end_time": 20.8204545,
                "pitch": 38,
                "velocity": 51,
                "duration": 0.0977273,
                "tempo": 120.0
            },
            {
                "start_time": 22.4590909,
                "end_time": 22.6931818,
                "pitch": 38,
                "velocity": 51,
                "duration": 0.2340909,
                "tempo": 120.0
            },
            {
                "start_time": 22.7272727,
                "end_time": 22.8272727,
                "pitch": 38,
                "velocity": 51,
                "duration": 0.1,
                "tempo": 120.0
            },
            {
                "start_time": 22.8590909,
                "end_time": 23.0954545,
                "pitch": 41,
                "velocity": 51,
                "duration": 0.2363636,
                "tempo": 120.0
            },
            {
                "start_time": 23.1272727,
                "end_time": 23.2295455,
                "pitch": 41,
                "velocity": 51,
                "duration": 0.1022727,
                "tempo": 120.0
            },
            {
                "start_time": 23.2636364,
                "end_time": 23.5022727,
                "pitch": 38,
                "velocity": 51,
                "duration": 0.2386364,
                "tempo": 120.0
            },
            {
                "start_time": 23.5363636,
                "end_time": 23.6386364,
                "pitch": 36,
                "velocity": 51,
                "duration": 0.1022727,
                "tempo": 120.0
            },
            {
                "start_time": 23.6727273,
                "end_time": 23.9022727,
                "pitch": 37,
                "velocity": 51,
                "duration": 0.2295455,
                "tempo": 120.0
            },
            {
                "start_time": 23.9340909,
                "end_time": 24.0318182,
                "pitch": 38,
                "velocity": 51,
                "duration": 0.0977273,
                "tempo": 120.0
            },
            {
                "start_time": 24.1954545,
                "end_time": 24.3590909,
                "pitch": 67,
                "velocity": 51,
                "duration": 0.1636364,
                "tempo": 120.0
            },
            {
                "start_time": 24.4568182,
                "end_time": 24.5613636,
                "pitch": 67,
                "velocity": 51,
                "duration": 0.1045455,
                "tempo": 120.0
            },
            {
                "start_time": 25.0,
                "end_time": 25.1613636,
                "pitch": 69,
                "velocity": 51,
                "duration": 0.1613636,
                "tempo": 120.0
            },
            {
                "start_time": 25.2613636,
                "end_time": 25.3636364,
                "pitch": 69,
                "velocity": 51,
                "duration": 0.1022727,
                "tempo": 120.0
            }
        ]
    }
}