{
    "mood": "happy",
    "instruments": {
        "Electric Guitar (clean)": [
            {
                "start_time": 0.3,
                "end_time": 0.3659091,
                "pitch": 42,
                "velocity": 51,
                "duration": 0.0659091,
                "tempo": 120.0
            },
            {
                "start_time": 0.4,
                "end_time": 0.75,
                "pitch": 42,
                "velocity": 51,
                "duration": 0.35,
                "tempo": 120.0
            },
            {
                "start_time": 0.7818182,
                "end_time": 0.8840909,
                "pitch": 35,
                "velocity": 51,
                "duration": 0.1022727,
                "tempo": 120.0
            },
            {
                "start_time": 1.0045455,
                "end_time": 1.0909091,
                "pitch": 35,
                "velocity": 51,
                "duration": 0.0863636,
                "tempo": 120.0
            },
            {
                "start_time": 1.2909091,
                "end_time": 1.5522727,
                "pitch": 42,
                "velocity": 51,
                "duration": 0.2613636,
                "tempo": 120.0
            },
            {
                "start_time": 1.5840909,
                "end_time": 1.8590909,
                "pitch": 38,
                "velocity": 51,
                "duration": 0.275,
                "tempo": 120.0
            },
            {
                "start_time": 1.8931818,
                "end_time": 1.9613636,
                "pitch": 45,
                "velocity": 51,
                "duration": 0.0681818,
                "tempo": 120.0
            },
            {
                "start_time": 1.9954545,
                "end_time": 2.3613636,
                "pitch": 45,
                "velocity": 51,
                "duration": 0.3659091,
                "tempo": 120.0
            },
            {
                "start_time": 2.3954545,
                "end_time": 2.4954545,
                "pitch": 38,
                "velocity": 51,
                "duration": 0.1,
                "tempo": 120.0
            },
            {
                "start_time": 2.6136364,
                "end_time": 2.6977273,
                "pitch": 38,
                "velocity": 51,
                "duration": 0.0840909,
                "tempo": 120.0
            },
            {
                "start_time": 2.8954545,
                "end_time": 3.1568182,
                "pitch": 45,
                "velocity": 51,
                "duration": 0.2613636,
                "tempo": 120.0
            },
            {
                "start_time": 3.1886364,
                "end_time": 3.4704545,
                "pitch": 40,
                "velocity": 51,
                "duration": 0.2818182,
                "tempo": 120.0
            },
            {
                "start_time": 3.5068182,
                "end_time": 3.5772727,
                "pitch": 47,
                "velocity": 51,
                "duration": 0.0704545,
                "tempo": 120.0
            },
            {
                "start_time": 3.6113636,
                "end_time": 3.9704545,
                "pitch": 47,
                "velocity": 51,
                "duration": 0.3590909,
                "tempo": 120.0
            },
            {
                "start_time": 4.0045455,
                "end_time": 4.1045455,
                "pitch": 40,
                "velocity": 51,
                "duration": 0.1,
                "tempo": 120.0
            },
            {
                "start_time": 4.2227273,
                "end_time": 4.3068182,
                "pitch": 40,
                "velocity": 51,
                "duration": 0.0840909,
                "tempo": 120.0
            },
            {
                "start_time": 4.5045455,
                "end_time": 4.7659091,
                "pitch": 47,
                "velocity": 51,
                "duration": 0.2613636,
                "tempo": 120.0
            },
            {
                "start_time": 4.7977273,
                "end_time": 4.8681818,
                "pitch": 38,
                "velocity": 51,
                "duration": 0.0704545,
                "tempo": 120.0
            },
            {
                "start_time": 5.0045455,
                "end_time": 5.0727273,
                "pitch": 38,
                "velocity": 51,
                "duration": 0.0681818,
                "tempo": 120.0
            },
            {
                "start_time": 5.3090909,
                "end_time": 5.5795455,
                "pitch": 37,
                "velocity": 51,
                "duration": 0.2704545,
                "tempo": 120.0
            },
            {
                "start_time": 5.6113636,
                "end_time": 5.7113636,
                "pitch": 38,
                "velocity": 51,
                "duration": 0.1,
                "tempo": 120.0
            },
            {
                "start_time": 5.8295455,
                "end_time": 6.0795455,
                "pitch": 33,
                "velocity": 51,
                "duration": 0.25,
                "tempo": 120.0
            },
            {
                "start_time": 6.1136364,
                "end_time": 6.3818182,
                "pitch": 35,
                "velocity": 51,
                "duration": 0.2681818,
                "tempo": 120.0
            },
            {
                "start_time": 6.4159091,
                "end_time": 6.6886364,
                "pitch": 38,
                "velocity": 51,
                "duration": 0.2727273,
                "tempo": 120.0
            },
            {
                "start_time": 6.7227273,
                "end_time": 6.7909091,
                "pitch": 45,
                "velocity": 51,
                "duration": 0.0681818,
                "tempo": 120.0
            },
            {
                "start_time": 6.825,
                "end_time": 7.1840909,
                "pitch": 45,
                "velocity": 51,
                "duration": 0.3590909,
                "tempo": 120.0
            },
            {
                "start_time": 7.2181818,
                "end_time": 7.4863636,
                "pitch": 38,
                "velocity": 51,
                "duration": 0.2681818,
                "tempo": 120.0
            },
            {
                "start_time": 7.5204545,
                "end_time": 7.5863636,
                "pitch": 45,
                "velocity": 51,
                "duration": 0.0659091,
                "tempo": 120.0
            },
            {
                "start_time": 7.6204545,
                "end_time": 7.9795455,
                "pitch": 45,
                "velocity": 51,
                "duration": 0.3590909,
                "tempo": 120.0
            },
            {
                "start_time": 8.0136364,
                "end_time": 8.2863636,
                "pitch": 40,
                "velocity": 51,
                "duration": 0.2727273,
                "tempo": 120.0
            },
            {
                "start_time": 8.3204545,
                "end_time": 8.3886364,
                "pitch": 47,
                "velocity": 51,
                "duration": 0.0681818,
                "tempo": 120.0
            },
            {
                "start_time": 8.4227273,
                "end_time": 8.7931818,
                "pitch": 47,
                "velocity": 51,
                "duration": 0.3704545,
                "tempo": 120.0
            },
            {
                "start_time": 8.825,
                "end_time": 9.0931818,
                "pitch": 40,
                "velocity": 51,
                "duration": 0.2681818,
                "tempo": 120.0
            },
            {
                "start_time": 9.125,
                "end_time": 9.1931818,
                "pitch": 47,
                "velocity": 51,
                "duration": 0.0681818,
                "tempo": 120.0
            },
            {
                "start_time": 9.225,
                "end_time": 9.5954545,
                "pitch": 47,
                "velocity": 51,
                "duration": 0.3704545,
                "tempo": 120.0
            },
            {
                "start_time": 9.6295455,
                "end_time": 9.9022727,
                "pitch": 38,
                "velocity": 51,
                "duration": 0.2727273,
                "tempo": 120.0
            },
            {
                "start_time": 9.9363636,
                "end_time": 10.0045455,
                "pitch": 45,
                "velocity": 51,
                "duration": 0.0681818,
                "tempo": 120.0
            },
            {
                "start_time": 10.0386364,
                "end_time": 10.3977273,
                "pitch": 45,
                "velocity": 51,
                "duration": 0.3590909,
                "tempo": 120.0
            },
            {
                "start_time": 10.4318182,
                "end_time": 10.7,
                "pitch": 38,
                "velocity": 51,
                "duration": 0.2681818,
                "tempo": 120.0
            },
            {
                "start_time": 10.7340909,
                "end_time": 10.8,
                "pitch": 45,
                "velocity": 51,
                "duration": 0.0659091,
                "tempo": 120.0
            },
            {
                "start_time": 10.8340909,
                "end_time": 11.2,
                "pitch": 45,
                "velocity": 51,
                "duration": 0.3659091,
                "tempo": 120.0
            },
            {
                "start_time": 11.2340909,
                "end_time": 11.5090909,
                "pitch": 40,
                "velocity": 51,
                "duration": 0.275,
                "tempo": 120.0
            },
            {
                "start_time": 11.5431818,
                "end_time": 11.6113636,
                "pitch": 47,
                "velocity": 51,
                "duration": 0.0681818,
                "tempo": 120.0
            },
            {
                "start_time": 11.6454545,
                "end_time": 12.0045455,
                "pitch": 47,
                "velocity": 51,
                "duration": 0.3590909,
                "tempo": 120.0
            },
            {
                "start_time": 12.0363636,
                "end_time": 12.3045455,
                "pitch": 40,
                "velocity": 51,
                "duration": 0.2681818,
                "tempo": 120.0
            },
            {
                "start_time": 12.3386364,
                "end_time": 12.4068182,
                "pitch": 47,
                "velocity": 51,
                "duration": 0.0681818,
                "tempo": 120.0
            },
            {
                "start_time": 12.4386364,
                "end_time": 12.8090909,
                "pitch": 47,
                "velocity": 51,
                "duration": 0.3704545,
                "tempo": 120.0
            },
            {
                "start_time": 12.8431818,
                "end_time": 13.1159091,
                "pitch": 31,
                "velocity": 51,
                "duration": 0.2727273,
                "tempo": 120.0
            },
            {
                "start_time": 13.15,
                "end_time": 13.2181818,
                "pitch": 38,
                "velocity": 51,
                "duration": 0.0681818,
                "tempo": 120.0
            },
            {
                "start_time": 13.2522727,
                "end_time": 13.6113636,
                "pitch": 38,
                "velocity": 51,
                "duration": 0.3590909,
                "tempo": 120.0
            },
            {
                "start_time": 13.6454545,
                "end_time": 13.9136364,
                "pitch": 31,
                "velocity": 51,
                "duration": 0.2681818,
                "tempo": 120.0
            },
            {
                "start_time": 13.9477273,
                "end_time": 14.0136364,
                "pitch": 38,
                "velocity": 51,
                "duration": 0.0659091,
                "tempo": 120.0
            },
            {
                "start_time": 14.0477273,
                "end_time": 14.2159091,
                "pitch": 38,
                "velocity": 51,
                "duration": 0.1681818,
                "tempo": 120.0
            },
            {
                "start_time": 14.25,
                "end_time": 14.4181818,
                "pitch": 31,
                "velocity": 51,
                "duration": 0.1681818,
                "tempo": 120.0
            },
            {
                "start_time": 14.45,
                "end_time": 14.725,
                "pitch": 38,
                "velocity": 51,
                "duration": 0.275,
                "tempo": 120.0
            },
            {
                "start_time": 14.7590909,
                "end_time": 14.8272727,
                "pitch": 45,
                "velocity": 51,
                "duration": 0.0681818,
                "tempo": 120.0
            },
            {
                "start_time": 14.8613636,
                "end_time": 15.2204545,
                "pitch": 45,
                "velocity": 51,
                "duration": 0.3590909,
                "tempo": 120.0
            },
            {
                "start_time": 15.2545455,
                "end_time": 15.5227273,
                "pitch": 38,
                "velocity": 51,
                "duration": 0.2681818,
                "tempo": 120.0
            },
            {
                "start_time": 15.5545455,
                "end_time": 15.6227273,
                "pitch": 45,
                "velocity": 51,
                "duration": 0.0681818,
                "tempo": 120.0
            },
            {
                "start_time": 15.6568182,
                "end_time": 15.825,
                "pitch": 45,
                "velocity": 51,
                "duration": 0.1681818,
                "tempo": 120.0
            },
            {
                "start_time": 15.8568182,
                "end_time": 16.025,
                "pitch": 38,
                "velocity": 51,
                "duration": 0.1681818,
                "tempo": 120.0
            },
            {
                "start_time": 16.0590909,
                "end_time": 16.3340909,
                "pitch": 36,
                "velocity": 51,
                "duration": 0.275,
                "tempo": 120.0
            },
            {
                "start_time": 16.3681818,
                "end_time": 16.4363636,
                "pitch": 43,
                "velocity": 51,
                "duration": 0.0681818,
                "tempo": 120.0
            },
            {
                "start_time": 16.4704545,
                "end_time": 16.8295455,
                "pitch": 43,
                "velocity": 51,
                "duration": 0.3590909,
                "tempo": 120.0
            },
            {
                "start_time": 16.8613636,
                "end_time": 17.1363636,
                "pitch": 36,
                "velocity": 51,
                "duration": 0.275,
                "tempo": 120.0
            },
            {
                "start_time": 17.1704545,
                "end_time": 17.2386364,
                "pitch": 43,
                "velocity": 51,
                "duration": 0.0681818,
                "tempo": 120.0
            },
            {
                "start_time": 17.2727273,
                "end_time": 17.4363636,
                "pitch": 43,
                "velocity": 51,
                "duration": 0.1636364,
                "tempo": 120.0
            },
            {
                "start_time": 17.4681818,
                "end_time": 17.6318182,
                "pitch": 36,
                "velocity": 51,
                "duration": 0.1636364,
                "tempo": 120.0
            },
            {
                "start_time": 17.6636364,
                "end_time": 17.9318182,
                "pitch": 33,
                "velocity": 51,
                "duration": 0.2681818,
                "tempo": 120.0
            },
            {
                "start_time": 17.9636364,
                "end_time": 18.0318182,
                "pitch": 40,
                "velocity": 51,
                "duration": 0.0681818,
                "tempo": 120.0
            },
            {
                "start_time": 18.0636364,
                "end_time": 18.4318182,
                "pitch": 40,
                "velocity": 51,
                "duration": 0.3681818,
                "tempo": 120.0
            },
            {
                "start_time": 18.4636364,
                "end_time": 18.7340909,
                "pitch": 33,
                "velocity": 51,
                "duration": 0.2704545,
                "tempo": 120.0
            },
            {
                "start_time": 18.7659091,
                "end_time": 18.8340909,
                "pitch": 40,
                "velocity": 51,
                "duration": 0.0681818,
                "tempo": 120.0
            },
            {
                "start_time": 18.8681818,
                "end_time": 19.0340909,
                "pitch": 40,
                "velocity": 51,
                "duration": 0.1659091,
                "tempo": 120.0
            },
            {
                "start_time": 19.0681818,
                "end_time": 19.2340909,
                "pitch": 33,
                "velocity": 51,
                "duration": 0.1659091,
                "tempo": 120.0
            },
            {
                "start_time": 19.2681818,
                "end_time": 19.5409091,
                "pitch": 38,
                "velocity": 51,
                "duration": 0.2727273,
                "tempo": 120.0
            },
            {
                "start_time": 19.575,
                "end_time": 19.6431818,
                "pitch": 45,
                "velocity": 51,
                "duration": 0.0681818,
                "tempo": 120.0
            },
            {
                "start_time": 19.6772727,
                "end_time": 20.0363636,
                "pitch": 45,
                "velocity": 51,
                "duration": 0.3590909,
                "tempo": 120.0
            },
            {
                "start_time": 20.0704545,
                "end_time": 20.3363636,
                "pitch": 38,
                "velocity": 51,
                "duration": 0.2659091,
                "tempo": 120.0
            },
            {
                "start_time": 20.3704545,
                "end_time": 20.4363636,
                "pitch": 45,
                "velocity": 51,
                "duration": 0.0659091,
                "tempo": 120.0
            },
            {
                "start_time": 20.4704545,
                "end_time": 20.8386364,
                "pitch": 45,
                "velocity": 51,
                "duration": 0.3681818,
                "tempo": 120.0
            },
            {
                "start_time": 20.8727273,
                "end_time": 21.1386364,
                "pitch": 40,
                "velocity": 51,
                "duration": 0.2659091,
                "tempo": 120.0
            },
            {
                "start_time": 21.1727273,
                "end_time": 21.2386364,
                "pitch": 47,
                "velocity": 51,
                "duration": 0.0659091,
                "tempo": 120.0
            },
            {
                "start_time": 21.2727273,
                "end_time": 21.6409091,
                "pitch": 47,
                "velocity": 51,
                "duration": 0.3681818,
                "tempo": 120.0
            },
            {
                "start_time": 21.675,
                "end_time": 21.9409091,
                "pitch": 40,
                "velocity": 51,
                "duration": 0.2659091,
                "tempo": 120.0
            },
            {
                "start_time": 21.975,
                "end_time": 22.0409091,
                "pitch": 47,
                "velocity": 51,
                "duration": 0.0659091,
                "tempo": 120.0
            },
            {
                "start_time": 22.075,
                "end_time": 22.4409091,
                "pitch": 47,
                "velocity": 51,
                "duration": 0.3659091,
                "tempo": 120.0
            },
            {
                "start_time": 22.475,
                "end_time": 22.75,
                "pitch": 38,
                "velocity": 51,
                "duration": 0.275,
                "tempo": 120.0
            },
            {
                "start_time": 22.7840909,
                "end_time": 22.8522727,
                "pitch": 45,
                "velocity": 51,
                "duration": 0.0681818,
                "tempo": 120.0
            },
            {
                "start_time": 22.8863636,
                "end_time": 23.2454545,
                "pitch": 45,
                "velocity": 51,
                "duration": 0.3590909,
                "tempo": 120.0
            },
            {
                "start_time": 23.2772727,
                "end_time": 23.5477273,
                "pitch": 38,
                "velocity": 51,
                "duration": 0.2704545,
                "tempo": 120.0
            },
            {
                "start_time": 23.5795455,
                "end_time": 23.6477273,
                "pitch": 45,
                "velocity": 51,
                "duration": 0.0681818,
                "tempo": 120.0
            },
            {
                "start_time": 23.6818182,
                "end_time": 24.0477273,
                "pitch": 45,
                "velocity": 51,
                "duration": 0.3659091,
                "tempo": 120.0
            },
            {
                "start_time": 24.0818182,
                "end_time": 24.3545455,
                "pitch": 40,
                "velocity": 51,
                "duration": 0.2727273,
                "tempo": 120.0
            },
            {
                "start_time": 24.3886364,
                "end_time": 24.4568182,
                "pitch": 47,
                "velocity": 51,
                "duration": 0.0681818,
                "tempo": 120.0
            },
            {
                "start_time": 24.4909091,
                "end_time": 24.85,
                "pitch": 47,
                "velocity": 51,
                "duration": 0.3590909,
                "tempo": 120.0
            },
            {
                "start_time": 24.8840909,
                "end_time": 25.15,
                "pitch": 40,
                "velocity": 51,
                "duration": 0.2659091,
                "tempo": 120.0
            },
            {
                "start_time": 25.1840909,
                "end_time": 25.25,
                "pitch": 47,
                "velocity": 51,
                "duration": 0.0659091,
                "tempo": 120.0
            },
            {
                "start_time": 25.2840909,
                "end_time": 25.6522727,
                "pitch": 47,
                "velocity": 51,
                "duration": 0.3681818,
                "tempo": 120.0
            },
            {
                "start_time": 25.6863636,
                "end_time": 25.9613636,
                "pitch": 31,
                "velocity": 51,
                "duration": 0.275,
                "tempo": 120.0
            },
            {
                "start_time": 25.9954545,
                "end_time": 26.0636364,
                "pitch": 38,
                "velocity": 51,
                "duration": 0.0681818,
                "tempo": 120.0
            },
            {
                "start_time": 26.0977273,
                "end_time": 26.4568182,
                "pitch": 38,
                "velocity": 51,
                "duration": 0.3590909,
                "tempo": 120.0
            },
            {
                "start_time": 26.4886364,
                "end_time": 26.7568182,
                "pitch": 31,
                "velocity": 51,
                "duration": 0.2681818,
                "tempo": 120.0
            },
            {
                "start_time": 26.7909091,
                "end_time": 26.8590909,
                "pitch": 38,
                "velocity": 51,
                "duration": 0.0681818,
                "tempo": 120.0
            },
            {
                "start_time": 26.8909091,
                "end_time": 27.0590909,
                "pitch": 38,
                "velocity": 51,
                "duration": 0.1681818,
                "tempo": 120.0
            },
            {
                "start_time": 27.0909091,
                "end_time": 27.2590909,
                "pitch": 31,
                "velocity": 51,
                "duration": 0.1681818,
                "tempo": 120.0
            },
            {
                "start_time": 27.2909091,
                "end_time": 27.5659091,
                "pitch": 38,
                "velocity": 51,
                "duration": 0.275,
                "tempo": 120.0
            },
            {
                "start_time": 27.6,
                "end_time": 27.6681818,
                "pitch": 45,
                "velocity": 51,
                "duration": 0.0681818,
                "tempo": 120.0
            },
            {
                "start_time": 27.7022727,
                "end_time": 28.0613636,
                "pitch": 45,
                "velocity": 51,
                "duration": 0.3590909,
                "tempo": 120.0
            },
            {
                "start_time": 28.0954545,
                "end_time": 28.3613636,
                "pitch": 38,
                "velocity": 51,
                "duration": 0.2659091,
                "tempo": 120.0
            },
            {
                "start_time": 28.3954545,
                "end_time": 28.4613636,
                "pitch": 45,
                "velocity": 51,
                "duration": 0.0659091,
                "tempo": 120.0
            },
            {
                "start_time": 28.4954545,
                "end_time": 28.6636364,
                "pitch": 45,
                "velocity": 51,
                "duration": 0.1681818,
                "tempo": 120.0
            },
            {
                "start_time": 28.6954545,
                "end_time": 28.8636364,
                "pitch": 38,
                "velocity": 51,
                "duration": 0.1681818,
                "tempo": 120.0
            },
            {
                "start_time": 28.8977273,
                "end_time": 29.1636364,
                "pitch": 36,
                "velocity": 51,
                "duration": 0.2659091,
                "tempo": 120.0
            },
            {
                "start_time": 29.1977273,
                "end_time": 29.2636364,
                "pitch": 43,
                "velocity": 51,
                "duration": 0.0659091,
                "tempo": 120.0
            },
            {
                "start_time": 29.2977273,
                "end_time": 29.6659091,
                "pitch": 43,
                "velocity": 51,
                "duration": 0.3681818,
                "tempo": 120.0
            },
            {
                "start_time": 29.7,
                "end_time": 29.9659091,
                "pitch": 36,
                "velocity": 51,
                "duration": 0.2659091,
                "tempo": 120.0
            },
            {
                "start_time": 30.0,
                "end_time": 30.0659091,
                "pitch": 43,
                "velocity": 51,
                "duration": 0.0659091,
                "tempo": 120.0
            },
            {
                "start_time": 30.1,
                "end_time": 30.2659091,
                "pitch": 43,
                "velocity": 51,
                "duration": 0.1659091,
                "tempo": 120.0
            },
            {
                "start_time": 30.3,
                "end_time": 30.4659091,
                "pitch": 36,
                "velocity": 51,
                "duration": 0.1659091,
                "tempo": 120.0
            },
            {
                "start_time": 30.5,
                "end_time": 30.7681818,
                "pitch": 33,
                "velocity": 51,
                "duration": 0.2681818,
                "tempo": 120.0
            },
            {
                "start_time": 30.8022727,
                "end_time": 30.8704545,
                "pitch": 40,
                "velocity": 51,
                "duration": 0.0681818,
                "tempo": 120.0
            },
            {
                "start_time": 30.9022727,
                "end_time": 31.2704545,
                "pitch": 40,
                "velocity": 51,
                "duration": 0.3681818,
                "tempo": 120.0
            },
            {
                "start_time": 31.3022727,
                "end_time": 31.5636364,
                "pitch": 33,
                "velocity": 51,
                "duration": 0.2613636,
                "tempo": 120.0
            },
            {
                "start_time": 31.5977273,
                "end_time": 31.6613636,
                "pitch": 40,
                "velocity": 51,
                "duration": 0.0636364,
                "tempo": 120.0
            },
            {
                "start_time": 31.6954545,
                "end_time": 31.8659091,
                "pitch": 40,
                "velocity": 51,
                "duration": 0.1704545,
                "tempo": 120.0
            },
            {
                "start_time": 31.9,
                "end_time": 32.0727273,
                "pitch": 33,
                "velocity": 51,
                "duration": 0.1727273,
                "tempo": 120.0
            },
            {
                "start_time": 32.1068182,
                "end_time": 32.3795455,
                "pitch": 38,
                "velocity": 51,
                "duration": 0.2727273,
                "tempo": 120.0
            },
            {
                "start_time": 32.4136364,
                "end_time": 32.4818182,
                "pitch": 45,
                "velocity": 51,
                "duration": 0.0681818,
                "tempo": 120.0
            },
            {
                "start_time": 32.5159091,
                "end_time": 32.875,
                "pitch": 45,
                "velocity": 51,
                "duration": 0.3590909,
                "tempo": 120.0
            },
            {
                "start_time": 32.9090909,
                "end_time": 33.175,
                "pitch": 38,
                "velocity": 51,
                "duration": 0.2659091,
                "tempo": 120.0
            },
            {
                "start_time": 33.2090909,
                "end_time": 33.275,
                "pitch": 45,
                "velocity": 51,
                "duration": 0.0659091,
                "tempo": 120.0
            },
            {
                "start_time": 33.3090909,
                "end_time": 33.475,
                "pitch": 50,
                "velocity": 51,
                "duration": 0.1659091,
                "tempo": 120.0
            },
            {
                "start_time": 33.5090909,
                "end_time": 33.675,
                "pitch": 45,
                "velocity": 51,
                "duration": 0.1659091,
                "tempo": 120.0
            },
            {
                "start_time": 33.7090909,
                "end_time": 33.9772727,
                "pitch": 33,
                "velocity": 51,
                "duration": 0.2681818,
                "tempo": 120.0
            },
            {
                "start_time": 34.0113636,
                "end_time": 34.0772727,
                "pitch": 40,
                "velocity": 51,
                "duration": 0.0659091,
                "tempo": 120.0
            },
            {
                "start_time": 34.1113636,
                "end_time": 34.4772727,
                "pitch": 40,
                "velocity": 51,
                "duration": 0.3659091,
                "tempo": 120.0
            },
            {
                "start_time": 34.5113636,
                "end_time": 34.6136364,
                "pitch": 33,
                "velocity": 51,
                "duration": 0.1022727,
                "tempo": 120.0
            },
            {
                "start_time": 34.7340909,
                "end_time": 34.8204545,
                "pitch": 33,
                "velocity": 51,
                "duration": 0.0863636,
                "tempo": 120.0
            },
            {
                "start_time": 35.0159091,
                "end_time": 35.2704545,
                "pitch": 40,
                "velocity": 51,
                "duration": 0.2545455,
                "tempo": 120.0
            },
            {
                "start_time": 35.3022727,
                "end_time": 35.5840909,
                "pitch": 38,
                "velocity": 51,
                "duration": 0.2818182,
                "tempo": 120.0
            },
            {
                "start_time": 35.6204545,
                "end_time": 35.6909091,
                "pitch": 45,
                "velocity": 51,
                "duration": 0.0704545,
                "tempo": 120.0
            },
            {
                "start_time": 35.725,
                "end_time": 36.0840909,
                "pitch": 45,
                "velocity": 51,
                "duration": 0.3590909,
                "tempo": 120.0
            },
            {
                "start_time": 36.1181818,
                "end_time": 36.3840909,
                "pitch": 38,
                "velocity": 51,
                "duration": 0.2659091,
                "tempo": 120.0
            },
            {
                "start_time": 36.4181818,
                "end_time": 36.4840909,
                "pitch": 45,
                "velocity": 51,
                "duration": 0.0659091,
                "tempo": 120.0
            },
            {
                "start_time": 36.5181818,
                "end_time": 36.6840909,
                "pitch": 50,
                "velocity": 51,
                "duration": 0.1659091,
                "tempo": 120.0
            },
            {
                "start_time": 36.7181818,
                "end_time": 36.8840909,
                "pitch": 45,
                "velocity": 51,
                "duration": 0.1659091,
                "tempo": 120.0
            },
            {
                "start_time": 36.9181818,
                "end_time": 37.1840909,
                "pitch": 33,
                "velocity": 51,
                "duration": 0.2659091,
                "tempo": 120.0
            },
            {
                "start_time": 37.2181818,
                "end_time": 37.2840909,
                "pitch": 40,
                "velocity": 51,
                "duration": 0.0659091,
                "tempo": 120.0
            },
            {
                "start_time": 37.3181818,
                "end_time": 37.6840909,
                "pitch": 40,
                "velocity": 51,
                "duration": 0.3659091,
                "tempo": 120.0
            },
            {
                "start_time": 37.7181818,
                "end_time": 37.8181818,
                "pitch": 33,
                "velocity": 51,
                "duration": 0.1,
                "tempo": 120.0
            },
            {
                "start_time": 37.9363636,
                "end_time": 38.0204545,
                "pitch": 33,
                "velocity": 51,
                "duration": 0.0840909,
                "tempo": 120.0
            },
            {
                "start_time": 38.2181818,
                "end_time": 38.4795455,
                "pitch": 40,
                "velocity": 51,
                "duration": 0.2613636,
                "tempo": 120.0
            },
            {
                "start_time": 38.5113636,
                "end_time": 38.7931818,
                "pitch": 38,
                "velocity": 51,
                "duration": 0.2818182,
                "tempo": 120.0
            },
            {
                "start_time": 38.8295455,
                "end_time": 38.9,
                "pitch": 45,
                "velocity": 51,
                "duration": 0.0704545,
                "tempo": 120.0
            },
            {
                "start_time": 38.9340909,
                "end_time": 39.2931818,
                "pitch": 45,
                "velocity": 51,
                "duration": 0.3590909,
                "tempo": 120.0
            },
            {
                "start_time": 39.325,
                "end_time": 39.5931818,
                "pitch": 38,
                "velocity": 51,
                "duration": 0.2681818,
                "tempo": 120.0
            },
            {
                "start_time": 39.625,
                "end_time": 39.6931818,
                "pitch": 45,
                "velocity": 51,
                "duration": 0.0681818,
                "tempo": 120.0
            },
            {
                "start_time": 39.725,
                "end_time": 39.8931818,
                "pitch": 50,
                "velocity": 51,
                "duration": 0.1681818,
                "tempo": 120.0
            },
            {
                "start_time": 39.9272727,
                "end_time": 40.0954545,
                "pitch": 45,
                "velocity": 51,
                "duration": 0.1681818,
                "tempo": 120.0
            },
            {
                "start_time": 40.1295455,
                "end_time": 40.3954545,
                "pitch": 33,
                "velocity": 51,
                "duration": 0.2659091,
                "tempo": 120.0
            },
            {
                "start_time": 40.4295455,
                "end_time": 40.4954545,
                "pitch": 40,
                "velocity": 51,
                "duration": 0.0659091,
                "tempo": 120.0
            },
            {
                "start_time": 40.5295455,
                "end_time": 40.8954545,
                "pitch": 40,
                "velocity": 51,
                "duration": 0.3659091,
                "tempo": 120.0
            },
            {
                "start_time": 40.9295455,
                "end_time": 41.0318182,
                "pitch": 33,
                "velocity": 51,
                "duration": 0.1022727,
                "tempo": 120.0
            },
            {
                "start_time": 41.1522727,
                "end_time": 41.2363636,
                "pitch": 33,
                "velocity": 51,
                "duration": 0.0840909,
                "tempo": 120.0
            },
            {
                "start_time": 41.4340909,
                "end_time": 41.6886364,
                "pitch": 40,
                "velocity": 51,
                "duration": 0.2545455,
                "tempo": 120.0
            },
            {
                "start_time": 41.7204545,
                "end_time": 42.0022727,
                "pitch": 36,
                "velocity": 51,
                "duration": 0.2818182,
                "tempo": 120.0
            },
            {
                "start_time": 42.0363636,
                "end_time": 42.1068182,
                "pitch": 43,
                "velocity": 51,
                "duration": 0.0704545,
                "tempo": 120.0
            },
            {
                "start_time": 42.1431818,
                "end_time": 42.5022727,
                "pitch": 43,
                "velocity": 51,
                "duration": 0.3590909,
                "tempo": 120.0
            },
            {
                "start_time": 42.5340909,
                "end_time": 42.8,
                "pitch": 36,
                "velocity": 51,
                "duration": 0.2659091,
                "tempo": 120.0
            },
            {
                "start_time": 42.8340909,
                "end_time": 42.9,
                "pitch": 43,
                "velocity": 51,
                "duration": 0.0659091,
                "tempo": 120.0
            },
            {
                "start_time": 42.9340909,
                "end_time": 43.1,
                "pitch": 43,
                "velocity": 51,
                "duration": 0.1659091,
                "tempo": 120.0
            },
            {
                "start_time": 43.1340909,
                "end_time": 43.3,
                "pitch": 36,
                "velocity": 51,
                "duration": 0.1659091,
                "tempo": 120.0
            },
            {
                "start_time": 43.3340909,
                "end_time": 43.5954545,
                "pitch": 33,
                "velocity": 51,
                "duration": 0.2613636,
                "tempo": 120.0
            },
            {
                "start_time": 43.6272727,
                "end_time": 43.6931818,
                "pitch": 40,
                "velocity": 51,
                "duration": 0.0659091,
                "tempo": 120.0
            },
            {
                "start_time": 43.7272727,
                "end_time": 43.8977273,
                "pitch": 40,
                "velocity": 51,
                "duration": 0.1704545,
                "tempo": 120.0
            },
            {
                "start_time": 44.1363636,
                "end_time": 44.3,
                "pitch": 33,
                "velocity": 51,
                "duration": 0.1636364,
                "tempo": 120.0
            },
            {
                "start_time": 44.3318182,
                "end_time": 44.4954545,
                "pitch": 37,
                "velocity": 51,
                "duration": 0.1636364,
                "tempo": 120.0
            },
            {
                "start_time": 44.5295455,
                "end_time": 44.6977273,
                "pitch": 38,
                "velocity": 51,
                "duration": 0.1681818,
                "tempo": 120.0
            },
            {
                "start_time": 44.7318182,
                "end_time": 44.8977273,
                "pitch": 40,
                "velocity": 51,
                "duration": 0.1659091,
                "tempo": 120.0
            },
            {
                "start_time": 44.9318182,
                "end_time": 45.0022727,
                "pitch": 38,
                "velocity": 51,
                "duration": 0.0704545,
                "tempo": 120.0
            },
            {
                "start_time": 45.0386364,
                "end_time": 45.1090909,
                "pitch": 38,
                "velocity": 51,
                "duration": 0.0704545,
                "tempo": 120.0
            },
            {
                "start_time": 45.55,
                "end_time": 45.6159091,
                "pitch": 38,
                "velocity": 51,
                "duration": 0.0659091,
                "tempo": 120.0
            },
            {
                "start_time": 45.6477273,
                "end_time": 45.7136364,
                "pitch": 38,
                "velocity": 51,
                "duration": 0.0659091,
                "tempo": 120.0
            },
            {
                "start_time": 45.9477273,
                "end_time": 46.0136364,
                "pitch": 42,
                "velocity": 51,
                "duration": 0.0659091,
                "tempo": 120.0
            },
            {
                "start_time": 46.0477273,
                "end_time": 46.1159091,
                "pitch": 43,
                "velocity": 51,
                "duration": 0.0681818,
                "tempo": 120.0
            },
            {
                "start_time": 46.15,
                "end_time": 46.5159091,
                "pitch": 45,
                "velocity": 51,
                "duration": 0.3659091,
                "tempo": 120.0
            },
            {
                "start_time": 46.55,
                "end_time": 46.6181818,
                "pitch": 38,
                "velocity": 51,
                "duration": 0.0681818,
                "tempo": 120.0
            },
            {
                "start_time": 46.6522727,
                "end_time": 46.7204545,
                "pitch": 38,
                "velocity": 51,
                "duration": 0.0681818,
                "tempo": 120.0
            },
            {
                "start_time": 47.1545455,
                "end_time": 47.2204545,
                "pitch": 38,
                "velocity": 51,
                "duration": 0.0659091,
                "tempo": 120.0
            },
            {
                "start_time": 47.2545455,
                "end_time": 47.3181818,
                "pitch": 38,
                "velocity": 51,
                "duration": 0.0636364,
                "tempo": 120.0
            },
            {
                "start_time": 47.3522727,
                "end_time": 47.5227273,
                "pitch": 38,
                "velocity": 51,
                "duration": 0.1704545,
                "tempo": 120.0
            },
            {
                "start_time": 47.5568182,
                "end_time": 47.7272727,
                "pitch": 30,
                "velocity": 51,
                "duration": 0.1704545,
                "tempo": 120.0
            },
            {
                "start_time": 47.7613636,
                "end_time": 47.9204545,
                "pitch": 31,
                "velocity": 51,
                "duration": 0.1590909,
                "tempo": 120.0
            },
            {
                "start_time": 47.9522727,
                "end_time": 48.1113636,
                "pitch": 33,
                "velocity": 51,
                "duration": 0.1590909,
                "tempo": 120.0
            },
            {
                "start_time": 48.1431818,
                "end_time": 48.2136364,
                "pitch": 38,
                "velocity": 51,
                "duration": 0.0704545,
                "tempo": 120.0
            },
            {
                "start_time": 48.25,
                "end_time": 48.3181818,
                "pitch": 38,
                "velocity": 51,
                "duration": 0.0681818,
                "tempo": 120.0
            },
            {
                "start_time": 48.7659091,
                "end_time": 48.8318182,
                "pitch": 38,
                "velocity": 51,
                "duration": 0.0659091,
                "tempo": 120.0
            },
            {
                "start_time": 48.8659091,
                "end_time": 48.9318182,
                "pitch": 38,
                "velocity": 51,
                "duration": 0.0659091,
                "tempo": 120.0
            },
            {
                "start_time": 49.1613636,
                "end_time": 49.2272727,
                "pitch": 42,
                "velocity": 51,
                "duration": 0.0659091,
                "tempo": 120.0
            },
            {
                "start_time": 49.2590909,
                "end_time": 49.325,
                "pitch": 43,
                "velocity": 51,
                "duration": 0.0659091,
                "tempo": 120.0
            },
            {
                "start_time": 49.3568182,
                "end_time": 49.725,
                "pitch": 45,
                "velocity": 51,
                "duration": 0.3681818,
                "tempo": 120.0
            },
            {
                "start_time": 49.7568182,
                "end_time": 49.8272727,
                "pitch": 38,
                "velocity": 51,
                "duration": 0.0704545,
                "tempo": 120.0
            },
            {
                "start_time": 49.8613636,
                "end_time": 49.9295455,
                "pitch": 38,
                "velocity": 51,
                "duration": 0.0681818,
                "tempo": 120.0
            },
            {
                "start_time": 50.3681818,
                "end_time": 50.4363636,
                "pitch": 38,
                "velocity": 51,
                "duration": 0.0681818,
                "tempo": 120.0
            },
            {
                "start_time": 50.4681818,
                "end_time": 50.5363636,
                "pitch": 38,
                "velocity": 51,
                "duration": 0.0681818,
                "tempo": 120.0
            },
            {
                "start_time": 50.5681818,
                "end_time": 50.7318182,
                "pitch": 38,
                "velocity": 51,
                "duration": 0.1636364,
                "tempo": 120.0
            },
            {
                "start_time": 50.7636364,
                "end_time": 50.9272727,
                "pitch": 30,
                "velocity": 51,
                "duration": 0.1636364,
                "tempo": 120.0
            },
            {
                "start_time": 50.9613636,
                "end_time": 51.1272727,
                "pitch": 31,
                "velocity": 51,
                "duration": 0.1659091,
                "tempo": 120.0
            },
            {
                "start_time": 51.1613636,
                "end_time": 51.3272727,
                "pitch": 33,
                "velocity": 51,
                "duration": 0.1659091,
                "tempo": 120.0
            },
            {
                "start_time": 51.3613636,
                "end_time": 51.4295455,
                "pitch": 38,
                "velocity": 51,
                "duration": 0.0681818,
                "tempo": 120.0
            },
            {
                "start_time": 51.4636364,
                "end_time": 51.5318182,
                "pitch": 38,
                "velocity": 51,
                "duration": 0.0681818,
                "tempo": 120.0
            },
            {
                "start_time": 51.9681818,
                "end_time": 52.0340909,
                "pitch": 38,
                "velocity": 51,
                "duration": 0.0659091,
                "tempo": 120.0
            },
            {
                "start_time": 52.0659091,
                "end_time": 52.1318182,
                "pitch": 38,
                "velocity": 51,
                "duration": 0.0659091,
                "tempo": 120.0
            },
            {
                "start_time": 52.3590909,
                "end_time": 52.425,
                "pitch": 42,
                "velocity": 51,
                "duration": 0.0659091,
                "tempo": 120.0
            },
            {
                "start_time": 52.4568182,
                "end_time": 52.5227273,
                "pitch": 43,
                "velocity": 51,
                "duration": 0.0659091,
                "tempo": 120.0
            },
            {
                "start_time": 52.5568182,
                "end_time": 52.9340909,
                "pitch": 45,
                "velocity": 51,
                "duration": 0.3772727,
                "tempo": 120.0
            },
            {
                "start_time": 52.9659091,
                "end_time": 53.0340909,
                "pitch": 38,
                "velocity": 51,
                "duration": 0.0681818,
                "tempo": 120.0
            },
            {
                "start_time": 53.0659091,
                "end_time": 53.1340909,
                "pitch": 38,
                "velocity": 51,
                "duration": 0.0681818,
                "tempo": 120.0
            },
            {
                "start_time": 53.5727273,
                "end_time": 53.6409091,
                "pitch": 38,
                "velocity": 51,
                "duration": 0.0681818,
                "tempo": 120.0
            },
            {
                "start_time": 53.675,
                "end_time": 53.7431818,
                "pitch": 38,
                "velocity": 51,
                "duration": 0.0681818,
                "tempo": 120.0
            },
            {
                "start_time": 53.7772727,
                "end_time": 53.9409091,
                "pitch": 38,
                "velocity": 51,
                "duration": 0.1636364,
                "tempo": 120.0
            },
            {
                "start_time": 53.9727273,
                "end_time": 54.1363636,
                "pitch": 30,
                "velocity": 51,
                "duration": 0.1636364,
                "tempo": 120.0
            },
            {
                "start_time": 54.1704545,
                "end_time": 54.3363636,
                "pitch": 31,
                "velocity": 51,
                "duration": 0.1659091,
                "tempo": 120.0
            },
            {
                "start_time": 54.3704545,
                "end_time": 54.5363636,
                "pitch": 33,
                "velocity": 51,
                "duration": 0.1659091,
                "tempo": 120.0
            },
            {
                "start_time": 54.5704545,
                "end_time": 54.6386364,
                "pitch": 38,
                "velocity": 51,
                "duration": 0.0681818,
                "tempo": 120.0
            },
            {
                "start_time": 54.6727273,
                "end_time": 54.7409091,
                "pitch": 38,
                "velocity": 51,
                "duration": 0.0681818,
                "tempo": 120.0
            },
            {
                "start_time": 55.1772727,
                "end_time": 55.2409091,
                "pitch": 38,
                "velocity": 51,
                "duration": 0.0636364,
                "tempo": 120.0
            },
            {
                "start_time": 55.275,
                "end_time": 55.3409091,
                "pitch": 38,
                "velocity": 51,
                "duration": 0.0659091,
                "tempo": 120.0
            },
            {
                "start_time": 55.5681818,
                "end_time": 55.6340909,
                "pitch": 42,
                "velocity": 51,
                "duration": 0.0659091,
                "tempo": 120.0
            },
            {
                "start_time": 55.6659091,
                "end_time": 55.7318182,
                "pitch": 43,
                "velocity": 51,
                "duration": 0.0659091,
                "tempo": 120.0
            },
            {
                "start_time": 55.7659091,
                "end_time": 56.1409091,
                "pitch": 45,
                "velocity": 51,
                "duration": 0.375,
                "tempo": 120.0
            },
            {
                "start_time": 56.175,
                "end_time": 56.2454545,
                "pitch": 38,
                "velocity": 51,
                "duration": 0.0704545,
                "tempo": 120.0
            },
            {
                "start_time": 56.2795455,
                "end_time": 56.3477273,
                "pitch": 38,
                "velocity": 51,
                "duration": 0.0681818,
                "tempo": 120.0
            },
            {
                "start_time": 56.7818182,
                "end_time": 56.8477273,
                "pitch": 38,
                "velocity": 51,
                "duration": 0.0659091,
                "tempo": 120.0
            },
            {
                "start_time": 56.8818182,
                "end_time": 56.9454545,
                "pitch": 38,
                "velocity": 51,
                "duration": 0.0636364,
                "tempo": 120.0
            },
            {
                "start_time": 56.9795455,
                "end_time": 57.0454545,
                "pitch": 38,
                "velocity": 51,
                "duration": 0.0659091,
                "tempo": 120.0
            },
            {
                "start_time": 57.0795455,
                "end_time": 57.1454545,
                "pitch": 40,
                "velocity": 51,
                "duration": 0.0659091,
                "tempo": 120.0
            },
            {
                "start_time": 57.2795455,
                "end_time": 57.3454545,
                "pitch": 42,
                "velocity": 51,
                "duration": 0.0659091,
                "tempo": 120.0
            },
            {
                "start_time": 57.4772727,
                "end_time": 57.5409091,
                "pitch": 43,
                "velocity": 51,
                "duration": 0.0636364,
                "tempo": 120.0
            },
            {
                "start_time": 57.6727273,
                "end_time": 57.7386364,
                "pitch": 45,
                "velocity": 51,
                "duration": 0.0659091,
                "tempo": 120.0
            }
        ],
        "Acoustic Guitar (nylon)": [
            {
                "start_time": 0.0659091,
                "end_time": 1.0227273,
                "pitch": 63,
                "velocity": 51,
                "duration": 0.9568182,
                "tempo": 120.0
            },
            {
                "start_time": 1.0568182,
                "end_time": 1.4204545,
                "pitch": 64,
                "velocity": 51,
                "duration": 0.3636364,
                "tempo": 120.0
            },
            {
                "start_time": 1.4545455,
                "end_time": 1.6181818,
                "pitch": 63,
                "velocity": 51,
                "duration": 0.1636364,
                "tempo": 120.0
            },
            {
                "start_time": 1.6522727,
                "end_time": 3.225,
                "pitch": 66,
                "velocity": 51,
                "duration": 1.5727273,
                "tempo": 120.0
            },
            {
                "start_time": 3.2590909,
                "end_time": 4.2386364,
                "pitch": 68,
                "velocity": 51,
                "duration": 0.9795455,
                "tempo": 120.0
            },
            {
                "start_time": 4.2727273,
                "end_time": 4.6340909,
                "pitch": 69,
                "velocity": 51,
                "duration": 0.3613636,
                "tempo": 120.0
            },
            {
                "start_time": 4.6681818,
                "end_time": 4.8318182,
                "pitch": 68,
                "velocity": 51,
                "duration": 0.1636364,
                "tempo": 120.0
            },
            {
                "start_time": 4.8681818,
                "end_time": 4.9363636,
                "pitch": 66,
                "velocity": 51,
                "duration": 0.0681818,
                "tempo": 120.0
            },
            {
                "start_time": 4.9704545,
                "end_time": 5.0386364,
                "pitch": 67,
                "velocity": 51,
                "duration": 0.0681818,
                "tempo": 120.0
            },
            {
                "start_time": 5.0727273,
                "end_time": 5.1409091,
                "pitch": 66,
                "velocity": 51,
                "duration": 0.0681818,
                "tempo": 120.0
            },
            {
                "start_time": 5.175,
                "end_time": 5.2431818,
                "pitch": 64,
                "velocity": 51,
                "duration": 0.0681818,
                "tempo": 120.0
            },
            {
                "start_time": 5.2772727,
                "end_time": 5.3431818,
                "pitch": 62,
                "velocity": 51,
                "duration": 0.0659091,
                "tempo": 120.0
            },
            {
                "start_time": 5.3772727,
                "end_time": 5.4454545,
                "pitch": 66,
                "velocity": 51,
                "duration": 0.0681818,
                "tempo": 120.0
            },
            {
                "start_time": 5.4772727,
                "end_time": 5.5454545,
                "pitch": 64,
                "velocity": 51,
                "duration": 0.0681818,
                "tempo": 120.0
            },
            {
                "start_time": 5.5795455,
                "end_time": 5.6454545,
                "pitch": 60,
                "velocity": 51,
                "duration": 0.0659091,
                "tempo": 120.0
            },
            {
                "start_time": 5.6795455,
                "end_time": 5.8454545,
                "pitch": 62,
                "velocity": 51,
                "duration": 0.1659091,
                "tempo": 120.0
            },
            {
                "start_time": 6.4840909,
                "end_time": 6.5522727,
                "pitch": 56,
                "velocity": 51,
                "duration": 0.0681818,
                "tempo": 120.0
            },
            {
                "start_time": 6.5863636,
                "end_time": 8.0477273,
                "pitch": 57,
                "velocity": 51,
                "duration": 1.4613636,
                "tempo": 120.0
            },
            {
                "start_time": 8.0818182,
                "end_time": 8.4568182,
                "pitch": 62,
                "velocity": 51,
                "duration": 0.375,
                "tempo": 120.0
            },
            {
                "start_time": 8.4909091,
                "end_time": 8.6590909,
                "pitch": 61,
                "velocity": 51,
                "duration": 0.1681818,
                "tempo": 120.0
            },
            {
                "start_time": 8.6909091,
                "end_time": 9.4613636,
                "pitch": 59,
                "velocity": 51,
                "duration": 0.7704545,
                "tempo": 120.0
            },
            {
                "start_time": 9.4954545,
                "end_time": 9.5613636,
                "pitch": 54,
                "velocity": 51,
                "duration": 0.0659091,
                "tempo": 120.0
            },
            {
                "start_time": 9.5954545,
                "end_time": 9.6636364,
                "pitch": 55,
                "velocity": 51,
                "duration": 0.0681818,
                "tempo": 120.0
            },
            {
                "start_time": 9.6977273,
                "end_time": 11.2681818,
                "pitch": 57,
                "velocity": 51,
                "duration": 1.5704545,
                "tempo": 120.0
            },
            {
                "start_time": 11.3022727,
                "end_time": 11.6772727,
                "pitch": 62,
                "velocity": 51,
                "duration": 0.375,
                "tempo": 120.0
            },
            {
                "start_time": 11.7090909,
                "end_time": 11.8727273,
                "pitch": 61,
                "velocity": 51,
                "duration": 0.1636364,
                "tempo": 120.0
            },
            {
                "start_time": 11.9068182,
                "end_time": 12.8772727,
                "pitch": 64,
                "velocity": 51,
                "duration": 0.9704545,
                "tempo": 120.0
            },
            {
                "start_time": 12.9113636,
                "end_time": 12.9795455,
                "pitch": 66,
                "velocity": 51,
                "duration": 0.0681818,
                "tempo": 120.0
            },
            {
                "start_time": 13.1159091,
                "end_time": 13.1840909,
                "pitch": 67,
                "velocity": 51,
                "duration": 0.0681818,
                "tempo": 120.0
            },
            {
                "start_time": 13.3181818,
                "end_time": 13.3840909,
                "pitch": 66,
                "velocity": 51,
                "duration": 0.0659091,
                "tempo": 120.0
            },
            {
                "start_time": 13.5136364,
                "end_time": 13.5795455,
                "pitch": 64,
                "velocity": 51,
                "duration": 0.0659091,
                "tempo": 120.0
            },
            {
                "start_time": 13.6113636,
                "end_time": 13.6795455,
                "pitch": 62,
                "velocity": 51,
                "duration": 0.0681818,
                "tempo": 120.0
            },
            {
                "start_time": 13.8136364,
                "end_time": 13.8795455,
                "pitch": 67,
                "velocity": 51,
                "duration": 0.0659091,
                "tempo": 120.0
            },
            {
                "start_time": 14.0136364,
                "end_time": 14.0818182,
                "pitch": 66,
                "velocity": 51,
                "duration": 0.0681818,
                "tempo": 120.0
            },
            {
                "start_time": 14.1159091,
                "end_time": 14.1818182,
                "pitch": 64,
                "velocity": 51,
                "duration": 0.0659091,
                "tempo": 120.0
            },
            {
                "start_time": 14.3159091,
                "end_time": 14.4840909,
                "pitch": 62,
                "velocity": 51,
                "duration": 0.1681818,
                "tempo": 120.0
            },
            {
                "start_time": 14.5181818,
                "end_time": 14.5886364,
                "pitch": 61,
                "velocity": 51,
                "duration": 0.0704545,
                "tempo": 120.0
            },
            {
                "start_time": 14.725,
                "end_time": 14.7931818,
                "pitch": 62,
                "velocity": 51,
                "duration": 0.0681818,
                "tempo": 120.0
            },
            {
                "start_time": 14.9272727,
                "end_time": 14.9909091,
                "pitch": 64,
                "velocity": 51,
                "duration": 0.0636364,
                "tempo": 120.0
            },
            {
                "start_time": 15.1227273,
                "end_time": 15.1886364,
                "pitch": 59,
                "velocity": 51,
                "duration": 0.0659091,
                "tempo": 120.0
            },
            {
                "start_time": 15.2204545,
                "end_time": 15.2863636,
                "pitch": 61,
                "velocity": 51,
                "duration": 0.0659091,
                "tempo": 120.0
            },
            {
                "start_time": 15.4204545,
                "end_time": 15.4886364,
                "pitch": 62,
                "velocity": 51,
                "duration": 0.0681818,
                "tempo": 120.0
            },
            {
                "start_time": 15.6227273,
                "end_time": 15.6909091,
                "pitch": 64,
                "velocity": 51,
                "duration": 0.0681818,
                "tempo": 120.0
            },
            {
                "start_time": 15.7227273,
                "end_time": 16.0931818,
                "pitch": 69,
                "velocity": 51,
                "duration": 0.3704545,
                "tempo": 120.0
            },
            {
                "start_time": 16.1272727,
                "end_time": 16.4022727,
                "pitch": 59,
                "velocity": 51,
                "duration": 0.275,
                "tempo": 120.0
            },
            {
                "start_time": 16.4363636,
                "end_time": 16.6977273,
                "pitch": 61,
                "velocity": 51,
                "duration": 0.2613636,
                "tempo": 120.0
            },
            {
                "start_time": 16.7318182,
                "end_time": 16.8954545,
                "pitch": 62,
                "velocity": 51,
                "duration": 0.1636364,
                "tempo": 120.0
            },
            {
                "start_time": 16.9295455,
                "end_time": 17.2045455,
                "pitch": 64,
                "velocity": 51,
                "duration": 0.275,
                "tempo": 120.0
            },
            {
                "start_time": 17.2386364,
                "end_time": 17.5,
                "pitch": 62,
                "velocity": 51,
                "duration": 0.2613636,
                "tempo": 120.0
            },
            {
                "start_time": 17.5340909,
                "end_time": 17.6977273,
                "pitch": 61,
                "velocity": 51,
                "duration": 0.1636364,
                "tempo": 120.0
            },
            {
                "start_time": 17.7318182,
                "end_time": 18.2977273,
                "pitch": 69,
                "velocity": 51,
                "duration": 0.5659091,
                "tempo": 120.0
            },
            {
                "start_time": 18.3318182,
                "end_time": 18.3977273,
                "pitch": 67,
                "velocity": 51,
                "duration": 0.0659091,
                "tempo": 120.0
            },
            {
                "start_time": 18.4318182,
                "end_time": 18.4977273,
                "pitch": 66,
                "velocity": 51,
                "duration": 0.0659091,
                "tempo": 120.0
            },
            {
                "start_time": 18.5318182,
                "end_time": 19.3022727,
                "pitch": 64,
                "velocity": 51,
                "duration": 0.7704545,
                "tempo": 120.0
            },
            {
                "start_time": 19.3363636,
                "end_time": 19.4045455,
                "pitch": 56,
                "velocity": 51,
                "duration": 0.0681818,
                "tempo": 120.0
            },
            {
                "start_time": 19.4386364,
                "end_time": 20.9068182,
                "pitch": 57,
                "velocity": 51,
                "duration": 1.4681818,
                "tempo": 120.0
            },
            {
                "start_time": 20.9386364,
                "end_time": 21.3068182,
                "pitch": 62,
                "velocity": 51,
                "duration": 0.3681818,
                "tempo": 120.0
            },
            {
                "start_time": 21.3409091,
                "end_time": 21.5068182,
                "pitch": 61,
                "velocity": 51,
                "duration": 0.1659091,
                "tempo": 120.0
            },
            {
                "start_time": 21.5409091,
                "end_time": 22.3090909,
                "pitch": 59,
                "velocity": 51,
                "duration": 0.7681818,
                "tempo": 120.0
            },
            {
                "start_time": 22.3409091,
                "end_time": 22.4090909,
                "pitch": 54,
                "velocity": 51,
                "duration": 0.0681818,
                "tempo": 120.0
            },
            {
                "start_time": 22.4409091,
                "end_time": 22.5090909,
                "pitch": 55,
                "velocity": 51,
                "duration": 0.0681818,
                "tempo": 120.0
            },
            {
                "start_time": 22.5431818,
                "end_time": 24.1159091,
                "pitch": 57,
                "velocity": 51,
                "duration": 1.5727273,
                "tempo": 120.0
            },
            {
                "start_time": 24.15,
                "end_time": 24.525,
                "pitch": 62,
                "velocity": 51,
                "duration": 0.375,
                "tempo": 120.0
            },
            {
                "start_time": 24.5568182,
                "end_time": 24.7204545,
                "pitch": 61,
                "velocity": 51,
                "duration": 0.1636364,
                "tempo": 120.0
            },
            {
                "start_time": 24.7522727,
                "end_time": 25.7204545,
                "pitch": 64,
                "velocity": 51,
                "duration": 0.9681818,
                "tempo": 120.0
            },
            {
                "start_time": 25.7545455,
                "end_time": 25.8227273,
                "pitch": 66,
                "velocity": 51,
                "duration": 0.0681818,
                "tempo": 120.0
            },
            {
                "start_time": 25.9613636,
                "end_time": 26.0295455,
                "pitch": 67,
                "velocity": 51,
                "duration": 0.0681818,
                "tempo": 120.0
            },
            {
                "start_time": 26.1613636,
                "end_time": 26.2272727,
                "pitch": 66,
                "velocity": 51,
                "duration": 0.0659091,
                "tempo": 120.0
            },
            {
                "start_time": 26.3590909,
                "end_time": 26.4227273,
                "pitch": 64,
                "velocity": 51,
                "duration": 0.0636364,
                "tempo": 120.0
            },
            {
                "start_time": 26.4568182,
                "end_time": 26.5227273,
                "pitch": 62,
                "velocity": 51,
                "duration": 0.0659091,
                "tempo": 120.0
            },
            {
                "start_time": 26.6568182,
                "end_time": 26.725,
                "pitch": 67,
                "velocity": 51,
                "duration": 0.0681818,
                "tempo": 120.0
            },
            {
                "start_time": 26.8590909,
                "end_time": 26.925,
                "pitch": 66,
                "velocity": 51,
                "duration": 0.0659091,
                "tempo": 120.0
            },
            {
                "start_time": 26.9590909,
                "end_time": 27.025,
                "pitch": 64,
                "velocity": 51,
                "duration": 0.0659091,
                "tempo": 120.0
            },
            {
                "start_time": 27.1590909,
                "end_time": 27.3272727,
                "pitch": 62,
                "velocity": 51,
                "duration": 0.1681818,
                "tempo": 120.0
            },
            {
                "start_time": 27.3613636,
                "end_time": 27.4636364,
                "pitch": 61,
                "velocity": 51,
                "duration": 0.1022727,
                "tempo": 120.0
            },
            {
                "start_time": 27.4977273,
                "end_time": 27.6,
                "pitch": 62,
                "velocity": 51,
                "duration": 0.1022727,
                "tempo": 120.0
            },
            {
                "start_time": 27.6340909,
                "end_time": 27.7340909,
                "pitch": 64,
                "velocity": 51,
                "duration": 0.1,
                "tempo": 120.0
            },
            {
                "start_time": 27.7681818,
                "end_time": 27.8659091,
                "pitch": 59,
                "velocity": 51,
                "duration": 0.0977273,
                "tempo": 120.0
            },
            {
                "start_time": 27.8977273,
                "end_time": 27.9977273,
                "pitch": 61,
                "velocity": 51,
                "duration": 0.1,
                "tempo": 120.0
            },
            {
                "start_time": 28.0295455,
                "end_time": 28.1272727,
                "pitch": 62,
                "velocity": 51,
                "duration": 0.0977273,
                "tempo": 120.0
            },
            {
                "start_time": 28.1613636,
                "end_time": 28.2613636,
                "pitch": 64,
                "velocity": 51,
                "duration": 0.1,
                "tempo": 120.0
            },
            {
                "start_time": 28.2954545,
                "end_time": 28.3954545,
                "pitch": 67,
                "velocity": 51,
                "duration": 0.1,
                "tempo": 120.0
            },
            {
                "start_time": 28.4272727,
                "end_time": 28.5295455,
                "pitch": 64,
                "velocity": 51,
                "duration": 0.1022727,
                "tempo": 120.0
            },
            {
                "start_time": 28.5613636,
                "end_time": 28.6636364,
                "pitch": 66,
                "velocity": 51,
                "duration": 0.1022727,
                "tempo": 120.0
            },
            {
                "start_time": 28.6954545,
                "end_time": 28.7977273,
                "pitch": 64,
                "velocity": 51,
                "duration": 0.1022727,
                "tempo": 120.0
            },
            {
                "start_time": 28.8295455,
                "end_time": 28.9318182,
                "pitch": 62,
                "velocity": 51,
                "duration": 0.1022727,
                "tempo": 120.0
            },
            {
                "start_time": 28.9636364,
                "end_time": 29.9340909,
                "pitch": 61,
                "velocity": 51,
                "duration": 0.9704545,
                "tempo": 120.0
            },
            {
                "start_time": 29.9659091,
                "end_time": 30.3340909,
                "pitch": 69,
                "velocity": 51,
                "duration": 0.3681818,
                "tempo": 120.0
            },
            {
                "start_time": 30.3659091,
                "end_time": 30.5340909,
                "pitch": 67,
                "velocity": 51,
                "duration": 0.1681818,
                "tempo": 120.0
            },
            {
                "start_time": 30.5681818,
                "end_time": 31.1363636,
                "pitch": 66,
                "velocity": 51,
                "duration": 0.5681818,
                "tempo": 120.0
            },
            {
                "start_time": 31.1704545,
                "end_time": 31.2363636,
                "pitch": 67,
                "velocity": 51,
                "duration": 0.0659091,
                "tempo": 120.0
            },
            {
                "start_time": 31.2704545,
                "end_time": 31.3340909,
                "pitch": 66,
                "velocity": 51,
                "duration": 0.0636364,
                "tempo": 120.0
            },
            {
                "start_time": 31.3681818,
                "end_time": 32.1409091,
                "pitch": 64,
                "velocity": 51,
                "duration": 0.7727273,
                "tempo": 120.0
            },
            {
                "start_time": 32.175,
                "end_time": 32.4477273,
                "pitch": 55,
                "velocity": 51,
                "duration": 0.2727273,
                "tempo": 120.0
            },
            {
                "start_time": 32.4818182,
                "end_time": 32.7454545,
                "pitch": 54,
                "velocity": 51,
                "duration": 0.2636364,
                "tempo": 120.0
            },
            {
                "start_time": 32.7772727,
                "end_time": 32.9431818,
                "pitch": 52,
                "velocity": 51,
                "duration": 0.1659091,
                "tempo": 120.0
            },
            {
                "start_time": 32.975,
                "end_time": 33.5431818,
                "pitch": 50,
                "velocity": 51,
                "duration": 0.5681818,
                "tempo": 120.0
            },
            {
                "start_time": 33.575,
                "end_time": 33.6431818,
                "pitch": 59,
                "velocity": 51,
                "duration": 0.0681818,
                "tempo": 120.0
            },
            {
                "start_time": 33.675,
                "end_time": 33.7431818,
                "pitch": 61,
                "velocity": 51,
                "duration": 0.0681818,
                "tempo": 120.0
            },
            {
                "start_time": 33.7772727,
                "end_time": 34.3454545,
                "pitch": 62,
                "velocity": 51,
                "duration": 0.5681818,
                "tempo": 120.0
            },
            {
                "start_time": 34.3772727,
                "end_time": 34.4113636,
                "pitch": 61,
                "velocity": 51,
                "duration": 0.0340909,
                "tempo": 120.0
            },
            {
                "start_time": 34.4454545,
                "end_time": 34.4772727,
                "pitch": 62,
                "velocity": 51,
                "duration": 0.0318182,
                "tempo": 120.0
            },
            {
                "start_time": 34.5113636,
                "end_time": 34.5454545,
                "pitch": 61,
                "velocity": 51,
                "duration": 0.0340909,
                "tempo": 120.0
            },
            {
                "start_time": 34.5795455,
                "end_time": 35.3386364,
                "pitch": 50,
                "velocity": 51,
                "duration": 0.7590909,
                "tempo": 120.0
            },
            {
                "start_time": 35.3727273,
                "end_time": 35.7568182,
                "pitch": 66,
                "velocity": 51,
                "duration": 0.3840909,
                "tempo": 120.0
            },
            {
                "start_time": 35.7909091,
                "end_time": 35.9545455,
                "pitch": 62,
                "velocity": 51,
                "duration": 0.1636364,
                "tempo": 120.0
            },
            {
                "start_time": 35.9863636,
                "end_time": 36.35,
                "pitch": 64,
                "velocity": 51,
                "duration": 0.3636364,
                "tempo": 120.0
            },
            {
                "start_time": 36.3840909,
                "end_time": 36.75,
                "pitch": 66,
                "velocity": 51,
                "duration": 0.3659091,
                "tempo": 120.0
            },
            {
                "start_time": 36.7840909,
                "end_time": 36.95,
                "pitch": 67,
                "velocity": 51,
                "duration": 0.1659091,
                "tempo": 120.0
            },
            {
                "start_time": 36.9840909,
                "end_time": 37.55,
                "pitch": 64,
                "velocity": 51,
                "duration": 0.5659091,
                "tempo": 120.0
            },
            {
                "start_time": 37.5840909,
                "end_time": 37.75,
                "pitch": 57,
                "velocity": 51,
                "duration": 0.1659091,
                "tempo": 120.0
            },
            {
                "start_time": 37.7840909,
                "end_time": 38.5477273,
                "pitch": 57,
                "velocity": 51,
                "duration": 0.7636364,
                "tempo": 120.0
            },
            {
                "start_time": 38.5818182,
                "end_time": 38.8636364,
                "pitch": 67,
                "velocity": 51,
                "duration": 0.2818182,
                "tempo": 120.0
            },
            {
                "start_time": 38.9,
                "end_time": 39.1613636,
                "pitch": 66,
                "velocity": 51,
                "duration": 0.2613636,
                "tempo": 120.0
            },
            {
                "start_time": 39.1954545,
                "end_time": 39.3590909,
                "pitch": 64,
                "velocity": 51,
                "duration": 0.1636364,
                "tempo": 120.0
            },
            {
                "start_time": 39.3931818,
                "end_time": 39.5590909,
                "pitch": 62,
                "velocity": 51,
                "duration": 0.1659091,
                "tempo": 120.0
            },
            {
                "start_time": 39.5931818,
                "end_time": 39.9613636,
                "pitch": 69,
                "velocity": 51,
                "duration": 0.3681818,
                "tempo": 120.0
            },
            {
                "start_time": 39.9954545,
                "end_time": 40.1613636,
                "pitch": 66,
                "velocity": 51,
                "duration": 0.1659091,
                "tempo": 120.0
            },
            {
                "start_time": 40.1954545,
                "end_time": 40.7613636,
                "pitch": 67,
                "velocity": 51,
                "duration": 0.5659091,
                "tempo": 120.0
            },
            {
                "start_time": 40.7954545,
                "end_time": 40.8295455,
                "pitch": 66,
                "velocity": 51,
                "duration": 0.0340909,
                "tempo": 120.0
            },
            {
                "start_time": 40.8613636,
                "end_time": 40.8954545,
                "pitch": 67,
                "velocity": 51,
                "duration": 0.0340909,
                "tempo": 120.0
            },
            {
                "start_time": 40.9295455,
                "end_time": 40.9636364,
                "pitch": 66,
                "velocity": 51,
                "duration": 0.0340909,
                "tempo": 120.0
            },
            {
                "start_time": 40.9977273,
                "end_time": 41.7545455,
                "pitch": 64,
                "velocity": 51,
                "duration": 0.7568182,
                "tempo": 120.0
            },
            {
                "start_time": 41.7909091,
                "end_time": 42.0727273,
                "pitch": 64,
                "velocity": 51,
                "duration": 0.2818182,
                "tempo": 120.0
            },
            {
                "start_time": 42.1068182,
                "end_time": 42.3704545,
                "pitch": 66,
                "velocity": 51,
                "duration": 0.2636364,
                "tempo": 120.0
            },
            {
                "start_time": 42.4045455,
                "end_time": 42.5681818,
                "pitch": 67,
                "velocity": 51,
                "duration": 0.1636364,
                "tempo": 120.0
            },
            {
                "start_time": 42.6,
                "end_time": 42.8681818,
                "pitch": 62,
                "velocity": 51,
                "duration": 0.2681818,
                "tempo": 120.0
            },
            {
                "start_time": 42.9,
                "end_time": 43.1681818,
                "pitch": 64,
                "velocity": 51,
                "duration": 0.2681818,
                "tempo": 120.0
            },
            {
                "start_time": 43.2,
                "end_time": 43.3659091,
                "pitch": 66,
                "velocity": 51,
                "duration": 0.1659091,
                "tempo": 120.0
            },
            {
                "start_time": 43.4,
                "end_time": 43.9659091,
                "pitch": 66,
                "velocity": 51,
                "duration": 0.5659091,
                "tempo": 120.0
            },
            {
                "start_time": 44.0,
                "end_time": 44.0681818,
                "pitch": 67,
                "velocity": 51,
                "duration": 0.0681818,
                "tempo": 120.0
            },
            {
                "start_time": 44.1045455,
                "end_time": 44.1704545,
                "pitch": 66,
                "velocity": 51,
                "duration": 0.0659091,
                "tempo": 120.0
            },
            {
                "start_time": 44.2022727,
                "end_time": 44.9681818,
                "pitch": 64,
                "velocity": 51,
                "duration": 0.7659091,
                "tempo": 120.0
            },
            {
                "start_time": 45.0022727,
                "end_time": 45.0727273,
                "pitch": 62,
                "velocity": 51,
                "duration": 0.0704545,
                "tempo": 120.0
            },
            {
                "start_time": 45.2136364,
                "end_time": 45.2840909,
                "pitch": 57,
                "velocity": 51,
                "duration": 0.0704545,
                "tempo": 120.0
            },
            {
                "start_time": 45.4181818,
                "end_time": 45.4840909,
                "pitch": 64,
                "velocity": 51,
                "duration": 0.0659091,
                "tempo": 120.0
            },
            {
                "start_time": 45.6159091,
                "end_time": 45.6795455,
                "pitch": 57,
                "velocity": 51,
                "duration": 0.0636364,
                "tempo": 120.0
            },
            {
                "start_time": 45.7136364,
                "end_time": 45.7795455,
                "pitch": 66,
                "velocity": 51,
                "duration": 0.0659091,
                "tempo": 120.0
            },
            {
                "start_time": 45.9136364,
                "end_time": 45.9818182,
                "pitch": 57,
                "velocity": 51,
                "duration": 0.0681818,
                "tempo": 120.0
            },
            {
                "start_time": 46.0136364,
                "end_time": 46.0818182,
                "pitch": 64,
                "velocity": 51,
                "duration": 0.0681818,
                "tempo": 120.0
            },
            {
                "start_time": 46.1159091,
                "end_time": 46.1818182,
                "pitch": 57,
                "velocity": 51,
                "duration": 0.0659091,
                "tempo": 120.0
            },
            {
                "start_time": 46.2159091,
                "end_time": 46.2818182,
                "pitch": 62,
                "velocity": 51,
                "duration": 0.0659091,
                "tempo": 120.0
            },
            {
                "start_time": 46.4159091,
                "end_time": 46.4818182,
                "pitch": 57,
                "velocity": 51,
                "duration": 0.0659091,
                "tempo": 120.0
            },
            {
                "start_time": 46.6181818,
                "end_time": 46.6863636,
                "pitch": 62,
                "velocity": 51,
                "duration": 0.0681818,
                "tempo": 120.0
            },
            {
                "start_time": 46.8227273,
                "end_time": 46.8909091,
                "pitch": 57,
                "velocity": 51,
                "duration": 0.0681818,
                "tempo": 120.0
            },
            {
                "start_time": 47.025,
                "end_time": 47.0909091,
                "pitch": 64,
                "velocity": 51,
                "duration": 0.0659091,
                "tempo": 120.0
            },
            {
                "start_time": 47.2204545,
                "end_time": 47.2863636,
                "pitch": 57,
                "velocity": 51,
                "duration": 0.0659091,
                "tempo": 120.0
            },
            {
                "start_time": 47.3181818,
                "end_time": 47.3863636,
                "pitch": 66,
                "velocity": 51,
                "duration": 0.0681818,
                "tempo": 120.0
            },
            {
                "start_time": 47.5227273,
                "end_time": 47.5909091,
                "pitch": 66,
                "velocity": 51,
                "duration": 0.0681818,
                "tempo": 120.0
            },
            {
                "start_time": 47.625,
                "end_time": 47.6931818,
                "pitch": 67,
                "velocity": 51,
                "duration": 0.0681818,
                "tempo": 120.0
            },
            {
                "start_time": 47.7272727,
                "end_time": 47.7931818,
                "pitch": 66,
                "velocity": 51,
                "duration": 0.0659091,
                "tempo": 120.0
            },
            {
                "start_time": 47.825,
                "end_time": 47.9840909,
                "pitch": 64,
                "velocity": 51,
                "duration": 0.1590909,
                "tempo": 120.0
            },
            {
                "start_time": 48.0159091,
                "end_time": 48.1795455,
                "pitch": 62,
                "velocity": 51,
                "duration": 0.1636364,
                "tempo": 120.0
            },
            {
                "start_time": 48.2136364,
                "end_time": 48.2840909,
                "pitch": 62,
                "velocity": 51,
                "duration": 0.0704545,
                "tempo": 120.0
            },
            {
                "start_time": 48.425,
                "end_time": 48.4954545,
                "pitch": 57,
                "velocity": 51,
                "duration": 0.0704545,
                "tempo": 120.0
            },
            {
                "start_time": 48.6318182,
                "end_time": 48.7,
                "pitch": 64,
                "velocity": 51,
                "duration": 0.0681818,
                "tempo": 120.0
            },
            {
                "start_time": 48.8318182,
                "end_time": 48.9,
                "pitch": 57,
                "velocity": 51,
                "duration": 0.0681818,
                "tempo": 120.0
            },
            {
                "start_time": 48.9318182,
                "end_time": 48.9977273,
                "pitch": 66,
                "velocity": 51,
                "duration": 0.0659091,
                "tempo": 120.0
            },
            {
                "start_time": 49.1295455,
                "end_time": 49.1954545,
                "pitch": 57,
                "velocity": 51,
                "duration": 0.0659091,
                "tempo": 120.0
            },
            {
                "start_time": 49.2272727,
                "end_time": 49.2931818,
                "pitch": 64,
                "velocity": 51,
                "duration": 0.0659091,
                "tempo": 120.0
            },
            {
                "start_time": 49.325,
                "end_time": 49.3909091,
                "pitch": 57,
                "velocity": 51,
                "duration": 0.0659091,
                "tempo": 120.0
            },
            {
                "start_time": 49.425,
                "end_time": 49.4909091,
                "pitch": 62,
                "velocity": 51,
                "duration": 0.0659091,
                "tempo": 120.0
            },
            {
                "start_time": 49.625,
                "end_time": 49.6909091,
                "pitch": 57,
                "velocity": 51,
                "duration": 0.0659091,
                "tempo": 120.0
            },
            {
                "start_time": 49.8272727,
                "end_time": 49.8954545,
                "pitch": 62,
                "velocity": 51,
                "duration": 0.0681818,
                "tempo": 120.0
            },
            {
                "start_time": 50.0318182,
                "end_time": 50.1,
                "pitch": 57,
                "velocity": 51,
                "duration": 0.0681818,
                "tempo": 120.0
            },
            {
                "start_time": 50.2363636,
                "end_time": 50.3022727,
                "pitch": 64,
                "velocity": 51,
                "duration": 0.0659091,
                "tempo": 120.0
            },
            {
                "start_time": 50.4363636,
                "end_time": 50.5022727,
                "pitch": 57,
                "velocity": 51,
                "duration": 0.0659091,
                "tempo": 120.0
            },
            {
                "start_time": 50.5363636,
                "end_time": 50.6022727,
                "pitch": 66,
                "velocity": 51,
                "duration": 0.0659091,
                "tempo": 120.0
            },
            {
                "start_time": 50.7318182,
                "end_time": 50.7977273,
                "pitch": 57,
                "velocity": 51,
                "duration": 0.0659091,
                "tempo": 120.0
            },
            {
                "start_time": 50.8295455,
                "end_time": 50.8954545,
                "pitch": 64,
                "velocity": 51,
                "duration": 0.0659091,
                "tempo": 120.0
            },
            {
                "start_time": 50.9272727,
                "end_time": 50.9954545,
                "pitch": 57,
                "velocity": 51,
                "duration": 0.0681818,
                "tempo": 120.0
            },
            {
                "start_time": 51.0272727,
                "end_time": 51.3954545,
                "pitch": 64,
                "velocity": 51,
                "duration": 0.3681818,
                "tempo": 120.0
            },
            {
                "start_time": 51.4295455,
                "end_time": 51.4977273,
                "pitch": 62,
                "velocity": 51,
                "duration": 0.0681818,
                "tempo": 120.0
            },
            {
                "start_time": 51.6340909,
                "end_time": 51.7045455,
                "pitch": 57,
                "velocity": 51,
                "duration": 0.0704545,
                "tempo": 120.0
            },
            {
                "start_time": 51.8363636,
                "end_time": 51.9022727,
                "pitch": 64,
                "velocity": 51,
                "duration": 0.0659091,
                "tempo": 120.0
            },
            {
                "start_time": 52.0340909,
                "end_time": 52.0977273,
                "pitch": 57,
                "velocity": 51,
                "duration": 0.0636364,
                "tempo": 120.0
            },
            {
                "start_time": 52.1318182,
                "end_time": 52.1954545,
                "pitch": 66,
                "velocity": 51,
                "duration": 0.0636364,
                "tempo": 120.0
            },
            {
                "start_time": 52.3272727,
                "end_time": 52.3931818,
                "pitch": 57,
                "velocity": 51,
                "duration": 0.0659091,
                "tempo": 120.0
            },
            {
                "start_time": 52.425,
                "end_time": 52.4909091,
                "pitch": 64,
                "velocity": 51,
                "duration": 0.0659091,
                "tempo": 120.0
            },
            {
                "start_time": 52.5227273,
                "end_time": 52.5909091,
                "pitch": 57,
                "velocity": 51,
                "duration": 0.0681818,
                "tempo": 120.0
            },
            {
                "start_time": 52.625,
                "end_time": 52.6931818,
                "pitch": 62,
                "velocity": 51,
                "duration": 0.0681818,
                "tempo": 120.0
            },
            {
                "start_time": 52.8295455,
                "end_time": 52.8977273,
                "pitch": 57,
                "velocity": 51,
                "duration": 0.0681818,
                "tempo": 120.0
            },
            {
                "start_time": 53.0340909,
                "end_time": 53.1,
                "pitch": 62,
                "velocity": 51,
                "duration": 0.0659091,
                "tempo": 120.0
            },
            {
                "start_time": 53.2340909,
                "end_time": 53.3,
                "pitch": 57,
                "velocity": 51,
                "duration": 0.0659091,
                "tempo": 120.0
            },
            {
                "start_time": 53.4363636,
                "end_time": 53.5045455,
                "pitch": 64,
                "velocity": 51,
                "duration": 0.0681818,
                "tempo": 120.0
            },
            {
                "start_time": 53.6409091,
                "end_time": 53.7090909,
                "pitch": 57,
                "velocity": 51,
                "duration": 0.0681818,
                "tempo": 120.0
            },
            {
                "start_time": 53.7431818,
                "end_time": 53.8090909,
                "pitch": 66,
                "velocity": 51,
                "duration": 0.0659091,
                "tempo": 120.0
            },
            {
                "start_time": 53.9409091,
                "end_time": 54.0068182,
                "pitch": 66,
                "velocity": 51,
                "duration": 0.0659091,
                "tempo": 120.0
            },
            {
                "start_time": 54.0386364,
                "end_time": 54.1045455,
                "pitch": 67,
                "velocity": 51,
                "duration": 0.0659091,
                "tempo": 120.0
            },
            {
                "start_time": 54.1363636,
                "end_time": 54.2022727,
                "pitch": 66,
                "velocity": 51,
                "duration": 0.0659091,
                "tempo": 120.0
            },
            {
                "start_time": 54.2363636,
                "end_time": 54.4022727,
                "pitch": 64,
                "velocity": 51,
                "duration": 0.1659091,
                "tempo": 120.0
            },
            {
                "start_time": 54.4363636,
                "end_time": 54.6045455,
                "pitch": 62,
                "velocity": 51,
                "duration": 0.1681818,
                "tempo": 120.0
            },
            {
                "start_time": 54.6386364,
                "end_time": 54.7068182,
                "pitch": 62,
                "velocity": 51,
                "duration": 0.0681818,
                "tempo": 120.0
            },
            {
                "start_time": 54.8431818,
                "end_time": 54.9113636,
                "pitch": 57,
                "velocity": 51,
                "duration": 0.0681818,
                "tempo": 120.0
            },
            {
                "start_time": 55.0454545,
                "end_time": 55.1113636,
                "pitch": 64,
                "velocity": 51,
                "duration": 0.0659091,
                "tempo": 120.0
            },
            {
                "start_time": 55.2409091,
                "end_time": 55.3068182,
                "pitch": 57,
                "velocity": 51,
                "duration": 0.0659091,
                "tempo": 120.0
            },
            {
                "start_time": 55.3409091,
                "end_time": 55.4045455,
                "pitch": 66,
                "velocity": 51,
                "duration": 0.0636364,
                "tempo": 120.0
            },
            {
                "start_time": 55.5363636,
                "end_time": 55.6022727,
                "pitch": 57,
                "velocity": 51,
                "duration": 0.0659091,
                "tempo": 120.0
            },
            {
                "start_time": 55.6340909,
                "end_time": 55.7,
                "pitch": 64,
                "velocity": 51,
                "duration": 0.0659091,
                "tempo": 120.0
            },
            {
                "start_time": 55.7318182,
                "end_time": 55.8,
                "pitch": 57,
                "velocity": 51,
                "duration": 0.0681818,
                "tempo": 120.0
            },
            {
                "start_time": 55.8340909,
                "end_time": 55.9022727,
                "pitch": 62,
                "velocity": 51,
                "duration": 0.0681818,
                "tempo": 120.0
            },
            {
                "start_time": 56.0386364,
                "end_time": 56.1068182,
                "pitch": 57,
                "velocity": 51,
                "duration": 0.0681818,
                "tempo": 120.0
            },
            {
                "start_time": 56.2454545,
                "end_time": 56.3136364,
                "pitch": 62,
                "velocity": 51,
                "duration": 0.0681818,
                "tempo": 120.0
            },
            {
                "start_time": 56.45,
                "end_time": 56.5181818,
                "pitch": 57,
                "velocity": 51,
                "duration": 0.0681818,
                "tempo": 120.0
            },
            {
                "start_time": 56.6522727,
                "end_time": 56.7181818,
                "pitch": 64,
                "velocity": 51,
                "duration": 0.0659091,
                "tempo": 120.0
            },
            {
                "start_time": 56.8477273,
                "end_time": 56.9136364,
                "pitch": 57,
                "velocity": 51,
                "duration": 0.0659091,
                "tempo": 120.0
            },
            {
                "start_time": 57.0454545,
                "end_time": 57.1113636,
                "pitch": 55,
                "velocity": 51,
                "duration": 0.0659091,
                "tempo": 120.0
            },
            {
                "start_time": 57.1454545,
                "end_time": 57.2113636,
                "pitch": 57,
                "velocity": 51,
                "duration": 0.0659091,
                "tempo": 120.0
            },
            {
                "start_time": 57.3454545,
                "end_time": 57.4113636,
                "pitch": 59,
                "velocity": 51,
                "duration": 0.0659091,
                "tempo": 120.0
            },
            {
                "start_time": 57.5409091,
                "end_time": 57.6068182,
                "pitch": 61,
                "velocity": 51,
                "duration": 0.0659091,
                "tempo": 120.0
            },
            {
                "start_time": 57.7386364,
                "end_time": 57.7704545,
                "pitch": 64,
                "velocity": 51,
                "duration": 0.0318182,
                "tempo": 120.0
            }
        ]
    }
}