{
    "mood": "happy",
    "instruments": {
        "Clarinet": [
            {
                "start_time": 0.1,
                "end_time": 0.1659091,
                "pitch": 72,
                "velocity": 64,
                "duration": 0.0659091,
                "tempo": 120.0
            },
            {
                "start_time": 0.3,
                "end_time": 0.3659091,
                "pitch": 64,
                "velocity": 64,
                "duration": 0.0659091,
                "tempo": 120.0
            },
            {
                "start_time": 0.4,
                "end_time": 0.4659091,
                "pitch": 67,
                "velocity": 64,
                "duration": 0.0659091,
                "tempo": 120.0
            },
            {
                "start_time": 0.6,
                "end_time": 0.6659091,
                "pitch": 60,
                "velocity": 64,
                "duration": 0.0659091,
                "tempo": 120.0
            },
            {
                "start_time": 0.7,
                "end_time": 0.7659091,
                "pitch": 64,
                "velocity": 64,
                "duration": 0.0659091,
                "tempo": 120.0
            },
            {
                "start_time": 0.9,
                "end_time": 0.9659091,
                "pitch": 67,
                "velocity": 64,
                "duration": 0.0659091,
                "tempo": 120.0
            },
            {
                "start_time": 1.0,
                "end_time": 1.0659091,
                "pitch": 72,
                "velocity": 64,
                "duration": 0.0659091,
                "tempo": 120.0
            },
            {
                "start_time": 1.2,
                "end_time": 1.2659091,
                "pitch": 64,
                "velocity": 64,
                "duration": 0.0659091,
                "tempo": 120.0
            },
            {
                "start_time": 1.3,
                "end_time": 1.3659091,
                "pitch": 67,
                "velocity": 64,
                "duration": 0.0659091,
                "tempo": 120.0
            },
            {
                "start_time": 1.5,
                "end_time": 1.5659091,
                "pitch": 60,
                "velocity": 64,
                "duration": 0.0659091,
                "tempo": 120.0
            },
            {
                "start_time": 1.6,
                "end_time": 1.6681818,
                "pitch": 69,
                "velocity": 64,
                "duration": 0.0681818,
                "tempo": 120.0
            },
            {
                "start_time": 1.7022727,
                "end_time": 1.7704545,
                "pitch": 72,
                "velocity": 64,
                "duration": 0.0681818,
                "tempo": 120.0
            },
            {
                "start_time": 1.9090909,
                "end_time": 1.9772727,
                "pitch": 65,
                "velocity": 64,
                "duration": 0.0681818,
                "tempo": 120.0
            },
            {
                "start_time": 2.0113636,
                "end_time": 2.075,
                "pitch": 69,
                "velocity": 64,
                "duration": 0.0636364,
                "tempo": 120.0
            },
            {
                "start_time": 2.2068182,
                "end_time": 2.2727273,
                "pitch": 60,
                "velocity": 64,
                "duration": 0.0659091,
                "tempo": 120.0
            },
            {
                "start_time": 2.3045455,
                "end_time": 2.3704545,
                "pitch": 65,
                "velocity": 64,
                "duration": 0.0659091,
                "tempo": 120.0
            },
            {
                "start_time": 2.5045455,
                "end_time": 2.575,
                "pitch": 69,
                "velocity": 64,
                "duration": 0.0704545,
                "tempo": 120.0
            },
            {
                "start_time": 2.6090909,
                "end_time": 2.6772727,
                "pitch": 72,
                "velocity": 64,
                "duration": 0.0681818,
                "tempo": 120.0
            },
            {
                "start_time": 2.8136364,
                "end_time": 2.8772727,
                "pitch": 65,
                "velocity": 64,
                "duration": 0.0636364,
                "tempo": 120.0
            },
            {
                "start_time": 2.9113636,
                "end_time": 2.9772727,
                "pitch": 69,
                "velocity": 64,
                "duration": 0.0659091,
                "tempo": 120.0
            },
            {
                "start_time": 3.1068182,
                "end_time": 3.1727273,
                "pitch": 60,
                "velocity": 64,
                "duration": 0.0659091,
                "tempo": 120.0
            },
            {
                "start_time": 3.2045455,
                "end_time": 3.275,
                "pitch": 67,
                "velocity": 64,
                "duration": 0.0704545,
                "tempo": 120.0
            },
            {
                "start_time": 3.3090909,
                "end_time": 3.3772727,
                "pitch": 72,
                "velocity": 64,
                "duration": 0.0681818,
                "tempo": 120.0
            },
            {
                "start_time": 3.5136364,
                "end_time": 3.5818182,
                "pitch": 64,
                "velocity": 64,
                "duration": 0.0681818,
                "tempo": 120.0
            },
            {
                "start_time": 3.6159091,
                "end_time": 3.6818182,
                "pitch": 67,
                "velocity": 64,
                "duration": 0.0659091,
                "tempo": 120.0
            },
            {
                "start_time": 3.8113636,
                "end_time": 3.8772727,
                "pitch": 60,
                "velocity": 64,
                "duration": 0.0659091,
                "tempo": 120.0
            },
            {
                "start_time": 3.9090909,
                "end_time": 3.975,
                "pitch": 64,
                "velocity": 64,
                "duration": 0.0659091,
                "tempo": 120.0
            },
            {
                "start_time": 4.1090909,
                "end_time": 4.175,
                "pitch": 67,
                "velocity": 64,
                "duration": 0.0659091,
                "tempo": 120.0
            },
            {
                "start_time": 4.2090909,
                "end_time": 4.275,
                "pitch": 72,
                "velocity": 64,
                "duration": 0.0659091,
                "tempo": 120.0
            },
            {
                "start_time": 4.4090909,
                "end_time": 4.475,
                "pitch": 64,
                "velocity": 64,
                "duration": 0.0659091,
                "tempo": 120.0
            },
            {
                "start_time": 4.5090909,
                "end_time": 4.575,
                "pitch": 67,
                "velocity": 64,
                "duration": 0.0659091,
                "tempo": 120.0
            },
            {
                "start_time": 4.7090909,
                "end_time": 4.775,
                "pitch": 60,
                "velocity": 64,
                "duration": 0.0659091,
                "tempo": 120.0
            },
            {
                "start_time": 4.8090909,
                "end_time": 4.8772727,
                "pitch": 65,
                "velocity": 64,
                "duration": 0.0681818,
                "tempo": 120.0
            },
            {
                "start_time": 4.9113636,
                "end_time": 4.9795455,
                "pitch": 67,
                "velocity": 64,
                "duration": 0.0681818,
                "tempo": 120.0
            },
            {
                "start_time": 5.1159091,
                "end_time": 5.1840909,
                "pitch": 71,
                "velocity": 64,
                "duration": 0.0681818,
                "tempo": 120.0
            },
            {
                "start_time": 5.2181818,
                "end_time": 5.2840909,
                "pitch": 74,
                "velocity": 64,
                "duration": 0.0659091,
                "tempo": 120.0
            },
            {
                "start_time": 5.4136364,
                "end_time": 5.4795455,
                "pitch": 67,
                "velocity": 64,
                "duration": 0.0659091,
                "tempo": 120.0
            },
            {
                "start_time": 5.5136364,
                "end_time": 5.5772727,
                "pitch": 71,
                "velocity": 64,
                "duration": 0.0636364,
                "tempo": 120.0
            },
            {
                "start_time": 5.7113636,
                "end_time": 5.7795455,
                "pitch": 62,
                "velocity": 64,
                "duration": 0.0681818,
                "tempo": 120.0
            },
            {
                "start_time": 5.8113636,
                "end_time": 5.8795455,
                "pitch": 65,
                "velocity": 64,
                "duration": 0.0681818,
                "tempo": 120.0
            },
            {
                "start_time": 6.0136364,
                "end_time": 6.0818182,
                "pitch": 59,
                "velocity": 64,
                "duration": 0.0681818,
                "tempo": 120.0
            },
            {
                "start_time": 6.1136364,
                "end_time": 6.1818182,
                "pitch": 67,
                "velocity": 64,
                "duration": 0.0681818,
                "tempo": 120.0
            },
            {
                "start_time": 6.3159091,
                "end_time": 6.3818182,
                "pitch": 62,
                "velocity": 64,
                "duration": 0.0659091,
                "tempo": 120.0
            },
            {
                "start_time": 6.4159091,
                "end_time": 6.4840909,
                "pitch": 64,
                "velocity": 64,
                "duration": 0.0681818,
                "tempo": 120.0
            },
            {
                "start_time": 6.5204545,
                "end_time": 6.5886364,
                "pitch": 65,
                "velocity": 64,
                "duration": 0.0681818,
                "tempo": 120.0
            },
            {
                "start_time": 6.725,
                "end_time": 6.7931818,
                "pitch": 63,
                "velocity": 64,
                "duration": 0.0681818,
                "tempo": 120.0
            },
            {
                "start_time": 6.8272727,
                "end_time": 6.8931818,
                "pitch": 64,
                "velocity": 64,
                "duration": 0.0659091,
                "tempo": 120.0
            },
            {
                "start_time": 7.0227273,
                "end_time": 7.0886364,
                "pitch": 64,
                "velocity": 64,
                "duration": 0.0659091,
                "tempo": 120.0
            },
            {
                "start_time": 7.1204545,
                "end_time": 7.1863636,
                "pitch": 65,
                "velocity": 64,
                "duration": 0.0659091,
                "tempo": 120.0
            },
            {
                "start_time": 7.3227273,
                "end_time": 7.3909091,
                "pitch": 63,
                "velocity": 64,
                "duration": 0.0681818,
                "tempo": 120.0
            },
            {
                "start_time": 7.425,
                "end_time": 7.4931818,
                "pitch": 64,
                "velocity": 64,
                "duration": 0.0681818,
                "tempo": 120.0
            },
            {
                "start_time": 7.6295455,
                "end_time": 7.7272727,
                "pitch": 64,
                "velocity": 64,
                "duration": 0.0977273,
                "tempo": 120.0
            },
            {
                "start_time": 7.7590909,
                "end_time": 7.8590909,
                "pitch": 66,
                "velocity": 64,
                "duration": 0.1,
                "tempo": 120.0
            },
            {
                "start_time": 7.8909091,
                "end_time": 7.9886364,
                "pitch": 68,
                "velocity": 64,
                "duration": 0.0977273,
                "tempo": 120.0
            },
            {
                "start_time": 8.0227273,
                "end_time": 8.0909091,
                "pitch": 69,
                "velocity": 64,
                "duration": 0.0681818,
                "tempo": 120.0
            },
            {
                "start_time": 8.125,
                "end_time": 8.1931818,
                "pitch": 72,
                "velocity": 64,
                "duration": 0.0681818,
                "tempo": 120.0
            },
            {
                "start_time": 8.3295455,
                "end_time": 8.3977273,
                "pitch": 68,
                "velocity": 64,
                "duration": 0.0681818,
                "tempo": 120.0
            },
            {
                "start_time": 8.4318182,
                "end_time": 8.4977273,
                "pitch": 69,
                "velocity": 64,
                "duration": 0.0659091,
                "tempo": 120.0
            },
            {
                "start_time": 8.6272727,
                "end_time": 8.6931818,
                "pitch": 69,
                "velocity": 64,
                "duration": 0.0659091,
                "tempo": 120.0
            },
            {
                "start_time": 8.725,
                "end_time": 8.7909091,
                "pitch": 72,
                "velocity": 64,
                "duration": 0.0659091,
                "tempo": 120.0
            },
            {
                "start_time": 8.9272727,
                "end_time": 8.9954545,
                "pitch": 68,
                "velocity": 64,
                "duration": 0.0681818,
                "tempo": 120.0
            },
            {
                "start_time": 9.0295455,
                "end_time": 9.0977273,
                "pitch": 69,
                "velocity": 64,
                "duration": 0.0681818,
                "tempo": 120.0
            },
            {
                "start_time": 9.2340909,
                "end_time": 9.3318182,
                "pitch": 69,
                "velocity": 64,
                "duration": 0.0977273,
                "tempo": 120.0
            },
            {
                "start_time": 9.3659091,
                "end_time": 9.4636364,
                "pitch": 71,
                "velocity": 64,
                "duration": 0.0977273,
                "tempo": 120.0
            },
            {
                "start_time": 9.4954545,
                "end_time": 9.5931818,
                "pitch": 72,
                "velocity": 64,
                "duration": 0.0977273,
                "tempo": 120.0
            },
            {
                "start_time": 9.6272727,
                "end_time": 9.6954545,
                "pitch": 77,
                "velocity": 64,
                "duration": 0.0681818,
                "tempo": 120.0
            },
            {
                "start_time": 9.7295455,
                "end_time": 9.7977273,
                "pitch": 74,
                "velocity": 64,
                "duration": 0.0681818,
                "tempo": 120.0
            },
            {
                "start_time": 9.9363636,
                "end_time": 10.0045455,
                "pitch": 78,
                "velocity": 64,
                "duration": 0.0681818,
                "tempo": 120.0
            },
            {
                "start_time": 10.0363636,
                "end_time": 10.1022727,
                "pitch": 75,
                "velocity": 64,
                "duration": 0.0659091,
                "tempo": 120.0
            },
            {
                "start_time": 10.2340909,
                "end_time": 10.2977273,
                "pitch": 79,
                "velocity": 64,
                "duration": 0.0636364,
                "tempo": 120.0
            },
            {
                "start_time": 10.3318182,
                "end_time": 10.3977273,
                "pitch": 76,
                "velocity": 64,
                "duration": 0.0659091,
                "tempo": 120.0
            },
            {
                "start_time": 10.5295455,
                "end_time": 10.5977273,
                "pitch": 78,
                "velocity": 64,
                "duration": 0.0681818,
                "tempo": 120.0
            },
            {
                "start_time": 10.6318182,
                "end_time": 10.6977273,
                "pitch": 75,
                "velocity": 64,
                "duration": 0.0659091,
                "tempo": 120.0
            },
            {
                "start_time": 10.8318182,
                "end_time": 10.9,
                "pitch": 77,
                "velocity": 64,
                "duration": 0.0681818,
                "tempo": 120.0
            },
            {
                "start_time": 10.9318182,
                "end_time": 11.0,
                "pitch": 74,
                "velocity": 64,
                "duration": 0.0681818,
                "tempo": 120.0
            },
            {
                "start_time": 11.1318182,
                "end_time": 11.2,
                "pitch": 75,
                "velocity": 64,
                "duration": 0.0681818,
                "tempo": 120.0
            },
            {
                "start_time": 11.2318182,
                "end_time": 14.4181818,
                "pitch": 76,
                "velocity": 64,
                "duration": 3.1863636,
                "tempo": 120.0
            },
            {
                "start_time": 14.4522727,
                "end_time": 14.5204545,
                "pitch": 60,
                "velocity": 64,
                "duration": 0.0681818,
                "tempo": 120.0
            },
            {
                "start_time": 14.5545455,
                "end_time": 14.6227273,
                "pitch": 65,
                "velocity": 64,
                "duration": 0.0681818,
                "tempo": 120.0
            },
            {
                "start_time": 14.7590909,
                "end_time": 14.8272727,
                "pitch": 62,
                "velocity": 64,
                "duration": 0.0681818,
                "tempo": 120.0
            },
            {
                "start_time": 14.8613636,
                "end_time": 14.9272727,
                "pitch": 67,
                "velocity": 64,
                "duration": 0.0659091,
                "tempo": 120.0
            },
            {
                "start_time": 15.0568182,
                "end_time": 15.1227273,
                "pitch": 64,
                "velocity": 64,
                "duration": 0.0659091,
                "tempo": 120.0
            },
            {
                "start_time": 15.1568182,
                "end_time": 15.2204545,
                "pitch": 69,
                "velocity": 64,
                "duration": 0.0636364,
                "tempo": 120.0
            },
            {
                "start_time": 15.3545455,
                "end_time": 15.4227273,
                "pitch": 65,
                "velocity": 64,
                "duration": 0.0681818,
                "tempo": 120.0
            },
            {
                "start_time": 15.4568182,
                "end_time": 15.5227273,
                "pitch": 71,
                "velocity": 64,
                "duration": 0.0659091,
                "tempo": 120.0
            },
            {
                "start_time": 15.6568182,
                "end_time": 15.725,
                "pitch": 67,
                "velocity": 64,
                "duration": 0.0681818,
                "tempo": 120.0
            },
            {
                "start_time": 15.7568182,
                "end_time": 15.825,
                "pitch": 71,
                "velocity": 64,
                "duration": 0.0681818,
                "tempo": 120.0
            },
            {
                "start_time": 15.9590909,
                "end_time": 16.0272727,
                "pitch": 74,
                "velocity": 64,
                "duration": 0.0681818,
                "tempo": 120.0
            },
            {
                "start_time": 16.0590909,
                "end_time": 16.4295455,
                "pitch": 72,
                "velocity": 64,
                "duration": 0.3704545,
                "tempo": 120.0
            },
            {
                "start_time": 16.5613636,
                "end_time": 16.6295455,
                "pitch": 66,
                "velocity": 64,
                "duration": 0.0681818,
                "tempo": 120.0
            },
            {
                "start_time": 16.6613636,
                "end_time": 16.7295455,
                "pitch": 67,
                "velocity": 64,
                "duration": 0.0681818,
                "tempo": 120.0
            },
            {
                "start_time": 16.7613636,
                "end_time": 16.8295455,
                "pitch": 64,
                "velocity": 64,
                "duration": 0.0681818,
                "tempo": 120.0
            },
            {
                "start_time": 16.8613636,
                "end_time": 17.2318182,
                "pitch": 60,
                "velocity": 64,
                "duration": 0.3704545,
                "tempo": 120.0
            }
        ],
        "Electric Guitar (clean)": [
            {
                "start_time": 0.4,
                "end_time": 0.7659091,
                "pitch": 40,
                "velocity": 40,
                "duration": 0.3659091,
                "tempo": 120.0
            },
            {
                "start_time": 0.8,
                "end_time": 1.1659091,
                "pitch": 43,
                "velocity": 40,
                "duration": 0.3659091,
                "tempo": 120.0
            },
            {
                "start_time": 1.2,
                "end_time": 1.3,
                "pitch": 43,
                "velocity": 40,
                "duration": 0.1,
                "tempo": 120.0
            },
            {
                "start_time": 1.3340909,
                "end_time": 1.4340909,
                "pitch": 45,
                "velocity": 40,
                "duration": 0.1,
                "tempo": 120.0
            },
            {
                "start_time": 1.4659091,
                "end_time": 1.5659091,
                "pitch": 47,
                "velocity": 40,
                "duration": 0.1,
                "tempo": 120.0
            },
            {
                "start_time": 1.6,
                "end_time": 1.9772727,
                "pitch": 48,
                "velocity": 40,
                "duration": 0.3772727,
                "tempo": 120.0
            },
            {
                "start_time": 2.0113636,
                "end_time": 2.3704545,
                "pitch": 45,
                "velocity": 40,
                "duration": 0.3590909,
                "tempo": 120.0
            },
            {
                "start_time": 2.4022727,
                "end_time": 2.7795455,
                "pitch": 41,
                "velocity": 40,
                "duration": 0.3772727,
                "tempo": 120.0
            },
            {
                "start_time": 2.8136364,
                "end_time": 2.9113636,
                "pitch": 48,
                "velocity": 40,
                "duration": 0.0977273,
                "tempo": 120.0
            },
            {
                "start_time": 2.9431818,
                "end_time": 3.0409091,
                "pitch": 47,
                "velocity": 40,
                "duration": 0.0977273,
                "tempo": 120.0
            },
            {
                "start_time": 3.075,
                "end_time": 3.1727273,
                "pitch": 45,
                "velocity": 40,
                "duration": 0.0977273,
                "tempo": 120.0
            },
            {
                "start_time": 3.2045455,
                "end_time": 3.5818182,
                "pitch": 43,
                "velocity": 40,
                "duration": 0.3772727,
                "tempo": 120.0
            },
            {
                "start_time": 3.6159091,
                "end_time": 3.975,
                "pitch": 48,
                "velocity": 40,
                "duration": 0.3590909,
                "tempo": 120.0
            },
            {
                "start_time": 4.0090909,
                "end_time": 4.375,
                "pitch": 40,
                "velocity": 40,
                "duration": 0.3659091,
                "tempo": 120.0
            },
            {
                "start_time": 4.4090909,
                "end_time": 4.775,
                "pitch": 43,
                "velocity": 40,
                "duration": 0.3659091,
                "tempo": 120.0
            },
            {
                "start_time": 4.8090909,
                "end_time": 5.1840909,
                "pitch": 41,
                "velocity": 40,
                "duration": 0.375,
                "tempo": 120.0
            },
            {
                "start_time": 5.2181818,
                "end_time": 5.5772727,
                "pitch": 43,
                "velocity": 40,
                "duration": 0.3590909,
                "tempo": 120.0
            },
            {
                "start_time": 5.6113636,
                "end_time": 5.9795455,
                "pitch": 31,
                "velocity": 40,
                "duration": 0.3681818,
                "tempo": 120.0
            },
            {
                "start_time": 6.0136364,
                "end_time": 6.1136364,
                "pitch": 31,
                "velocity": 40,
                "duration": 0.1,
                "tempo": 120.0
            },
            {
                "start_time": 6.1477273,
                "end_time": 6.2477273,
                "pitch": 35,
                "velocity": 40,
                "duration": 0.1,
                "tempo": 120.0
            },
            {
                "start_time": 6.2818182,
                "end_time": 6.3818182,
                "pitch": 38,
                "velocity": 40,
                "duration": 0.1,
                "tempo": 120.0
            },
            {
                "start_time": 6.4159091,
                "end_time": 6.7931818,
                "pitch": 40,
                "velocity": 40,
                "duration": 0.3772727,
                "tempo": 120.0
            },
            {
                "start_time": 6.8272727,
                "end_time": 7.1863636,
                "pitch": 44,
                "velocity": 40,
                "duration": 0.3590909,
                "tempo": 120.0
            },
            {
                "start_time": 7.2204545,
                "end_time": 7.5954545,
                "pitch": 47,
                "velocity": 40,
                "duration": 0.375,
                "tempo": 120.0
            },
            {
                "start_time": 7.6295455,
                "end_time": 7.9886364,
                "pitch": 44,
                "velocity": 40,
                "duration": 0.3590909,
                "tempo": 120.0
            },
            {
                "start_time": 8.0227273,
                "end_time": 8.3977273,
                "pitch": 40,
                "velocity": 40,
                "duration": 0.375,
                "tempo": 120.0
            },
            {
                "start_time": 8.4318182,
                "end_time": 8.7909091,
                "pitch": 45,
                "velocity": 40,
                "duration": 0.3590909,
                "tempo": 120.0
            },
            {
                "start_time": 8.825,
                "end_time": 9.2022727,
                "pitch": 48,
                "velocity": 40,
                "duration": 0.3772727,
                "tempo": 120.0
            },
            {
                "start_time": 9.2340909,
                "end_time": 9.5931818,
                "pitch": 45,
                "velocity": 40,
                "duration": 0.3590909,
                "tempo": 120.0
            },
            {
                "start_time": 9.7295455,
                "end_time": 9.7977273,
                "pitch": 41,
                "velocity": 40,
                "duration": 0.0681818,
                "tempo": 120.0
            },
            {
                "start_time": 10.0363636,
                "end_time": 10.1022727,
                "pitch": 42,
                "velocity": 40,
                "duration": 0.0659091,
                "tempo": 120.0
            },
            {
                "start_time": 10.3318182,
                "end_time": 10.3977273,
                "pitch": 43,
                "velocity": 40,
                "duration": 0.0659091,
                "tempo": 120.0
            },
            {
                "start_time": 10.6318182,
                "end_time": 10.6977273,
                "pitch": 42,
                "velocity": 40,
                "duration": 0.0659091,
                "tempo": 120.0
            },
            {
                "start_time": 10.9318182,
                "end_time": 11.0,
                "pitch": 41,
                "velocity": 40,
                "duration": 0.0681818,
                "tempo": 120.0
            },
            {
                "start_time": 11.2318182,
                "end_time": 12.0045455,
                "pitch": 40,
                "velocity": 40,
                "duration": 0.7727273,
                "tempo": 120.0
            },
            {
                "start_time": 12.0386364,
                "end_time": 12.4068182,
                "pitch": 44,
                "velocity": 40,
                "duration": 0.3681818,
                "tempo": 120.0
            },
            {
                "start_time": 12.4409091,
                "end_time": 12.8090909,
                "pitch": 47,
                "velocity": 40,
                "duration": 0.3681818,
                "tempo": 120.0
            },
            {
                "start_time": 12.8431818,
                "end_time": 13.6136364,
                "pitch": 40,
                "velocity": 40,
                "duration": 0.7704545,
                "tempo": 120.0
            },
            {
                "start_time": 13.6454545,
                "end_time": 14.0159091,
                "pitch": 38,
                "velocity": 40,
                "duration": 0.3704545,
                "tempo": 120.0
            },
            {
                "start_time": 14.0477273,
                "end_time": 14.4181818,
                "pitch": 37,
                "velocity": 40,
                "duration": 0.3704545,
                "tempo": 120.0
            },
            {
                "start_time": 14.4522727,
                "end_time": 14.5204545,
                "pitch": 36,
                "velocity": 40,
                "duration": 0.0681818,
                "tempo": 120.0
            },
            {
                "start_time": 14.5545455,
                "end_time": 14.6227273,
                "pitch": 41,
                "velocity": 40,
                "duration": 0.0681818,
                "tempo": 120.0
            },
            {
                "start_time": 14.8613636,
                "end_time": 14.9272727,
                "pitch": 43,
                "velocity": 40,
                "duration": 0.0659091,
                "tempo": 120.0
            },
            {
                "start_time": 15.1568182,
                "end_time": 15.2204545,
                "pitch": 45,
                "velocity": 40,
                "duration": 0.0636364,
                "tempo": 120.0
            },
            {
                "start_time": 15.3545455,
                "end_time": 15.4227273,
                "pitch": 47,
                "velocity": 40,
                "duration": 0.0681818,
                "tempo": 120.0
            },
            {
                "start_time": 15.6568182,
                "end_time": 15.825,
                "pitch": 47,
                "velocity": 40,
                "duration": 0.1681818,
                "tempo": 120.0
            },
            {
                "start_time": 16.0590909,
                "end_time": 16.4295455,
                "pitch": 48,
                "velocity": 40,
                "duration": 0.3704545,
                "tempo": 120.0
            },
            {
                "start_time": 16.5613636,
                "end_time": 16.6295455,
                "pitch": 51,
                "velocity": 40,
                "duration": 0.0681818,
                "tempo": 120.0
            },
            {
                "start_time": 16.6613636,
                "end_time": 16.7295455,
                "pitch": 40,
                "velocity": 40,
                "duration": 0.0681818,
                "tempo": 120.0
            },
            {
                "start_time": 16.7613636,
                "end_time": 16.8295455,
                "pitch": 48,
                "velocity": 40,
                "duration": 0.0681818,
                "tempo": 120.0
            },
            {
                "start_time": 16.8613636,
                "end_time": 17.2318182,
                "pitch": 36,
                "velocity": 40,
                "duration": 0.3704545,
                "tempo": 120.0
            }
        ],
        "Oboe": [
            {
                "start_time": 0.1,
                "end_time": 0.1659091,
                "pitch": 55,
                "velocity": 64,
                "duration": 0.0659091,
                "tempo": 120.0
            },
            {
                "start_time": 0.3,
                "end_time": 0.3659091,
                "pitch": 48,
                "velocity": 64,
                "duration": 0.0659091,
                "tempo": 120.0
            },
            {
                "start_time": 0.4,
                "end_time": 0.4659091,
                "pitch": 52,
                "velocity": 64,
                "duration": 0.0659091,
                "tempo": 120.0
            },
            {
                "start_time": 0.6,
                "end_time": 0.6659091,
                "pitch": 43,
                "velocity": 64,
                "duration": 0.0659091,
                "tempo": 120.0
            },
            {
                "start_time": 0.7,
                "end_time": 0.7659091,
                "pitch": 48,
                "velocity": 64,
                "duration": 0.0659091,
                "tempo": 120.0
            },
            {
                "start_time": 0.9,
                "end_time": 0.9659091,
                "pitch": 52,
                "velocity": 64,
                "duration": 0.0659091,
                "tempo": 120.0
            },
            {
                "start_time": 1.0,
                "end_time": 1.0659091,
                "pitch": 55,
                "velocity": 64,
                "duration": 0.0659091,
                "tempo": 120.0
            },
            {
                "start_time": 1.2,
                "end_time": 1.2659091,
                "pitch": 48,
                "velocity": 64,
                "duration": 0.0659091,
                "tempo": 120.0
            },
            {
                "start_time": 1.3,
                "end_time": 1.3659091,
                "pitch": 52,
                "velocity": 64,
                "duration": 0.0659091,
                "tempo": 120.0
            },
            {
                "start_time": 1.5,
                "end_time": 1.5659091,
                "pitch": 43,
                "velocity": 64,
                "duration": 0.0659091,
                "tempo": 120.0
            },
            {
                "start_time": 1.6,
                "end_time": 1.6681818,
                "pitch": 53,
                "velocity": 64,
                "duration": 0.0681818,
                "tempo": 120.0
            },
            {
                "start_time": 1.7022727,
                "end_time": 1.7704545,
                "pitch": 57,
                "velocity": 64,
                "duration": 0.0681818,
                "tempo": 120.0
            },
            {
                "start_time": 1.9090909,
                "end_time": 1.9772727,
                "pitch": 48,
                "velocity": 64,
                "duration": 0.0681818,
                "tempo": 120.0
            },
            {
                "start_time": 2.0113636,
                "end_time": 2.075,
                "pitch": 53,
                "velocity": 64,
                "duration": 0.0636364,
                "tempo": 120.0
            },
            {
                "start_time": 2.2068182,
                "end_time": 2.2727273,
                "pitch": 45,
                "velocity": 64,
                "duration": 0.0659091,
                "tempo": 120.0
            },
            {
                "start_time": 2.3045455,
                "end_time": 2.3704545,
                "pitch": 48,
                "velocity": 64,
                "duration": 0.0659091,
                "tempo": 120.0
            },
            {
                "start_time": 2.5045455,
                "end_time": 2.575,
                "pitch": 53,
                "velocity": 64,
                "duration": 0.0704545,
                "tempo": 120.0
            },
            {
                "start_time": 2.6090909,
                "end_time": 2.6772727,
                "pitch": 57,
                "velocity": 64,
                "duration": 0.0681818,
                "tempo": 120.0
            },
            {
                "start_time": 2.8136364,
                "end_time": 2.8772727,
                "pitch": 48,
                "velocity": 64,
                "duration": 0.0636364,
                "tempo": 120.0
            },
            {
                "start_time": 2.9113636,
                "end_time": 2.9772727,
                "pitch": 53,
                "velocity": 64,
                "duration": 0.0659091,
                "tempo": 120.0
            },
            {
                "start_time": 3.1068182,
                "end_time": 3.1727273,
                "pitch": 45,
                "velocity": 64,
                "duration": 0.0659091,
                "tempo": 120.0
            },
            {
                "start_time": 3.2045455,
                "end_time": 3.275,
                "pitch": 52,
                "velocity": 64,
                "duration": 0.0704545,
                "tempo": 120.0
            },
            {
                "start_time": 3.3090909,
                "end_time": 3.3772727,
                "pitch": 55,
                "velocity": 64,
                "duration": 0.0681818,
                "tempo": 120.0
            },
            {
                "start_time": 3.5136364,
                "end_time": 3.5818182,
                "pitch": 48,
                "velocity": 64,
                "duration": 0.0681818,
                "tempo": 120.0
            },
            {
                "start_time": 3.6159091,
                "end_time": 3.6818182,
                "pitch": 52,
                "velocity": 64,
                "duration": 0.0659091,
                "tempo": 120.0
            },
            {
                "start_time": 3.8113636,
                "end_time": 3.8772727,
                "pitch": 43,
                "velocity": 64,
                "duration": 0.0659091,
                "tempo": 120.0
            },
            {
                "start_time": 3.9090909,
                "end_time": 3.975,
                "pitch": 48,
                "velocity": 64,
                "duration": 0.0659091,
                "tempo": 120.0
            },
            {
                "start_time": 4.1090909,
                "end_time": 4.175,
                "pitch": 52,
                "velocity": 64,
                "duration": 0.0659091,
                "tempo": 120.0
            },
            {
                "start_time": 4.2090909,
                "end_time": 4.275,
                "pitch": 53,
                "velocity": 64,
                "duration": 0.0659091,
                "tempo": 120.0
            },
            {
                "start_time": 4.4090909,
                "end_time": 4.475,
                "pitch": 48,
                "velocity": 64,
                "duration": 0.0659091,
                "tempo": 120.0
            },
            {
                "start_time": 4.5090909,
                "end_time": 4.575,
                "pitch": 52,
                "velocity": 64,
                "duration": 0.0659091,
                "tempo": 120.0
            },
            {
                "start_time": 4.7090909,
                "end_time": 4.775,
                "pitch": 43,
                "velocity": 64,
                "duration": 0.0659091,
                "tempo": 120.0
            },
            {
                "start_time": 4.8090909,
                "end_time": 4.8772727,
                "pitch": 50,
                "velocity": 64,
                "duration": 0.0681818,
                "tempo": 120.0
            },
            {
                "start_time": 4.9113636,
                "end_time": 4.9795455,
                "pitch": 52,
                "velocity": 64,
                "duration": 0.0681818,
                "tempo": 120.0
            },
            {
                "start_time": 5.1159091,
                "end_time": 5.1840909,
                "pitch": 55,
                "velocity": 64,
                "duration": 0.0681818,
                "tempo": 120.0
            },
            {
                "start_time": 5.2181818,
                "end_time": 5.2840909,
                "pitch": 59,
                "velocity": 64,
                "duration": 0.0659091,
                "tempo": 120.0
            },
            {
                "start_time": 5.4136364,
                "end_time": 5.4795455,
                "pitch": 50,
                "velocity": 64,
                "duration": 0.0659091,
                "tempo": 120.0
            },
            {
                "start_time": 5.5136364,
                "end_time": 5.5772727,
                "pitch": 55,
                "velocity": 64,
                "duration": 0.0636364,
                "tempo": 120.0
            },
            {
                "start_time": 5.7113636,
                "end_time": 5.7795455,
                "pitch": 47,
                "velocity": 64,
                "duration": 0.0681818,
                "tempo": 120.0
            },
            {
                "start_time": 5.8113636,
                "end_time": 5.8795455,
                "pitch": 50,
                "velocity": 64,
                "duration": 0.0681818,
                "tempo": 120.0
            },
            {
                "start_time": 6.0136364,
                "end_time": 6.0818182,
                "pitch": 43,
                "velocity": 64,
                "duration": 0.0681818,
                "tempo": 120.0
            },
            {
                "start_time": 6.1136364,
                "end_time": 6.1818182,
                "pitch": 50,
                "velocity": 64,
                "duration": 0.0681818,
                "tempo": 120.0
            },
            {
                "start_time": 6.3159091,
                "end_time": 6.3818182,
                "pitch": 47,
                "velocity": 64,
                "duration": 0.0659091,
                "tempo": 120.0
            },
            {
                "start_time": 6.4159091,
                "end_time": 7.9886364,
                "pitch": 44,
                "velocity": 64,
                "duration": 1.5727273,
                "tempo": 120.0
            },
            {
                "start_time": 8.0227273,
                "end_time": 9.5931818,
                "pitch": 45,
                "velocity": 64,
                "duration": 1.5704545,
                "tempo": 120.0
            },
            {
                "start_time": 9.6272727,
                "end_time": 9.6954545,
                "pitch": 65,
                "velocity": 64,
                "duration": 0.0681818,
                "tempo": 120.0
            },
            {
                "start_time": 9.9363636,
                "end_time": 10.0045455,
                "pitch": 66,
                "velocity": 64,
                "duration": 0.0681818,
                "tempo": 120.0
            },
            {
                "start_time": 10.2340909,
                "end_time": 10.2977273,
                "pitch": 67,
                "velocity": 64,
                "duration": 0.0636364,
                "tempo": 120.0
            },
            {
                "start_time": 10.5295455,
                "end_time": 10.5977273,
                "pitch": 66,
                "velocity": 64,
                "duration": 0.0681818,
                "tempo": 120.0
            },
            {
                "start_time": 10.8318182,
                "end_time": 10.9,
                "pitch": 65,
                "velocity": 64,
                "duration": 0.0681818,
                "tempo": 120.0
            },
            {
                "start_time": 11.2318182,
                "end_time": 11.3,
                "pitch": 64,
                "velocity": 64,
                "duration": 0.0681818,
                "tempo": 120.0
            },
            {
                "start_time": 11.3340909,
                "end_time": 11.4,
                "pitch": 65,
                "velocity": 64,
                "duration": 0.0659091,
                "tempo": 120.0
            },
            {
                "start_time": 11.4340909,
                "end_time": 11.5,
                "pitch": 64,
                "velocity": 64,
                "duration": 0.0659091,
                "tempo": 120.0
            },
            {
                "start_time": 11.5340909,
                "end_time": 11.6022727,
                "pitch": 63,
                "velocity": 64,
                "duration": 0.0681818,
                "tempo": 120.0
            },
            {
                "start_time": 11.6363636,
                "end_time": 11.7022727,
                "pitch": 64,
                "velocity": 64,
                "duration": 0.0659091,
                "tempo": 120.0
            },
            {
                "start_time": 11.7363636,
                "end_time": 11.8022727,
                "pitch": 65,
                "velocity": 64,
                "duration": 0.0659091,
                "tempo": 120.0
            },
            {
                "start_time": 11.8363636,
                "end_time": 11.9045455,
                "pitch": 64,
                "velocity": 64,
                "duration": 0.0681818,
                "tempo": 120.0
            },
            {
                "start_time": 11.9363636,
                "end_time": 12.0045455,
                "pitch": 63,
                "velocity": 64,
                "duration": 0.0681818,
                "tempo": 120.0
            },
            {
                "start_time": 12.0386364,
                "end_time": 12.1045455,
                "pitch": 64,
                "velocity": 64,
                "duration": 0.0659091,
                "tempo": 120.0
            },
            {
                "start_time": 12.1386364,
                "end_time": 12.2068182,
                "pitch": 65,
                "velocity": 64,
                "duration": 0.0681818,
                "tempo": 120.0
            },
            {
                "start_time": 12.2386364,
                "end_time": 12.3068182,
                "pitch": 66,
                "velocity": 64,
                "duration": 0.0681818,
                "tempo": 120.0
            },
            {
                "start_time": 12.3409091,
                "end_time": 12.4068182,
                "pitch": 67,
                "velocity": 64,
                "duration": 0.0659091,
                "tempo": 120.0
            },
            {
                "start_time": 12.4409091,
                "end_time": 12.5068182,
                "pitch": 68,
                "velocity": 64,
                "duration": 0.0659091,
                "tempo": 120.0
            },
            {
                "start_time": 12.5409091,
                "end_time": 12.6090909,
                "pitch": 67,
                "velocity": 64,
                "duration": 0.0681818,
                "tempo": 120.0
            },
            {
                "start_time": 12.6431818,
                "end_time": 12.7090909,
                "pitch": 66,
                "velocity": 64,
                "duration": 0.0659091,
                "tempo": 120.0
            },
            {
                "start_time": 12.7431818,
                "end_time": 12.8090909,
                "pitch": 65,
                "velocity": 64,
                "duration": 0.0659091,
                "tempo": 120.0
            },
            {
                "start_time": 12.8431818,
                "end_time": 12.9090909,
                "pitch": 64,
                "velocity": 64,
                "duration": 0.0659091,
                "tempo": 120.0
            },
            {
                "start_time": 12.9431818,
                "end_time": 13.0090909,
                "pitch": 65,
                "velocity": 64,
                "duration": 0.0659091,
                "tempo": 120.0
            },
            {
                "start_time": 13.0431818,
                "end_time": 13.1090909,
                "pitch": 64,
                "velocity": 64,
                "duration": 0.0659091,
                "tempo": 120.0
            },
            {
                "start_time": 13.1431818,
                "end_time": 13.2090909,
                "pitch": 63,
                "velocity": 64,
                "duration": 0.0659091,
                "tempo": 120.0
            },
            {
                "start_time": 13.2431818,
                "end_time": 13.3113636,
                "pitch": 64,
                "velocity": 64,
                "duration": 0.0681818,
                "tempo": 120.0
            },
            {
                "start_time": 13.3431818,
                "end_time": 13.4113636,
                "pitch": 65,
                "velocity": 64,
                "duration": 0.0681818,
                "tempo": 120.0
            },
            {
                "start_time": 13.4454545,
                "end_time": 13.5113636,
                "pitch": 64,
                "velocity": 64,
                "duration": 0.0659091,
                "tempo": 120.0
            },
            {
                "start_time": 13.5454545,
                "end_time": 13.6136364,
                "pitch": 63,
                "velocity": 64,
                "duration": 0.0681818,
                "tempo": 120.0
            },
            {
                "start_time": 13.6454545,
                "end_time": 13.7136364,
                "pitch": 64,
                "velocity": 64,
                "duration": 0.0681818,
                "tempo": 120.0
            },
            {
                "start_time": 13.7477273,
                "end_time": 13.8136364,
                "pitch": 65,
                "velocity": 64,
                "duration": 0.0659091,
                "tempo": 120.0
            },
            {
                "start_time": 13.8477273,
                "end_time": 13.9136364,
                "pitch": 64,
                "velocity": 64,
                "duration": 0.0659091,
                "tempo": 120.0
            },
            {
                "start_time": 13.9477273,
                "end_time": 14.0159091,
                "pitch": 63,
                "velocity": 64,
                "duration": 0.0681818,
                "tempo": 120.0
            },
            {
                "start_time": 14.0477273,
                "end_time": 14.1159091,
                "pitch": 64,
                "velocity": 64,
                "duration": 0.0681818,
                "tempo": 120.0
            },
            {
                "start_time": 14.15,
                "end_time": 14.2159091,
                "pitch": 63,
                "velocity": 64,
                "duration": 0.0659091,
                "tempo": 120.0
            },
            {
                "start_time": 14.25,
                "end_time": 14.3181818,
                "pitch": 62,
                "velocity": 64,
                "duration": 0.0681818,
                "tempo": 120.0
            },
            {
                "start_time": 14.35,
                "end_time": 14.4181818,
                "pitch": 61,
                "velocity": 64,
                "duration": 0.0681818,
                "tempo": 120.0
            },
            {
                "start_time": 14.5545455,
                "end_time": 14.6227273,
                "pitch": 57,
                "velocity": 64,
                "duration": 0.0681818,
                "tempo": 120.0
            },
            {
                "start_time": 14.8613636,
                "end_time": 14.9272727,
                "pitch": 59,
                "velocity": 64,
                "duration": 0.0659091,
                "tempo": 120.0
            },
            {
                "start_time": 15.1568182,
                "end_time": 15.2204545,
                "pitch": 60,
                "velocity": 64,
                "duration": 0.0636364,
                "tempo": 120.0
            },
            {
                "start_time": 15.4568182,
                "end_time": 15.5227273,
                "pitch": 62,
                "velocity": 64,
                "duration": 0.0659091,
                "tempo": 120.0
            },
            {
                "start_time": 15.7568182,
                "end_time": 15.825,
                "pitch": 65,
                "velocity": 64,
                "duration": 0.0681818,
                "tempo": 120.0
            },
            {
                "start_time": 16.0590909,
                "end_time": 16.4295455,
                "pitch": 64,
                "velocity": 64,
                "duration": 0.3704545,
                "tempo": 120.0
            },
            {
                "start_time": 16.5613636,
                "end_time": 16.6295455,
                "pitch": 54,
                "velocity": 64,
                "duration": 0.0681818,
                "tempo": 120.0
            },
            {
                "start_time": 16.6613636,
                "end_time": 16.7295455,
                "pitch": 55,
                "velocity": 64,
                "duration": 0.0681818,
                "tempo": 120.0
            },
            {
                "start_time": 16.7613636,
                "end_time": 16.8295455,
                "pitch": 52,
                "velocity": 64,
                "duration": 0.0681818,
                "tempo": 120.0
            },
            {
                "start_time": 16.8613636,
                "end_time": 17.2318182,
                "pitch": 48,
                "velocity": 64,
                "duration": 0.3704545,
                "tempo": 120.0
            }
        ]
    }
}