{
    "mood": "happy",
    "instruments": {
        "Acoustic Grand Piano": [
            {
                "start_time": 26.0295455,
                "end_time": 26.0636364,
                "pitch": 85,
                "velocity": 64,
                "duration": 0.0340909,
                "tempo": 120.0
            },
            {
                "start_time": 26.0954545,
                "end_time": 26.2636364,
                "pitch": 86,
                "velocity": 64,
                "duration": 0.1681818,
                "tempo": 120.0
            },
            {
                "start_time": 26.2954545,
                "end_time": 26.4590909,
                "pitch": 85,
                "velocity": 64,
                "duration": 0.1636364,
                "tempo": 120.0
            },
            {
                "start_time": 26.4909091,
                "end_time": 26.8590909,
                "pitch": 86,
                "velocity": 64,
                "duration": 0.3681818,
                "tempo": 120.0
            },
            {
                "start_time": 26.8931818,
                "end_time": 27.2613636,
                "pitch": 81,
                "velocity": 64,
                "duration": 0.3681818,
                "tempo": 120.0
            },
            {
                "start_time": 27.2954545,
                "end_time": 27.8681818,
                "pitch": 84,
                "velocity": 64,
                "duration": 0.5727273,
                "tempo": 120.0
            },
            {
                "start_time": 27.9022727,
                "end_time": 28.0681818,
                "pitch": 86,
                "velocity": 64,
                "duration": 0.1659091,
                "tempo": 120.0
            },
            {
                "start_time": 28.1022727,
                "end_time": 28.8681818,
                "pitch": 84,
                "velocity": 64,
                "duration": 0.7659091,
                "tempo": 120.0
            },
            {
                "start_time": 28.9,
                "end_time": 29.1659091,
                "pitch": 89,
                "velocity": 64,
                "duration": 0.2659091,
                "tempo": 120.0
            },
            {
                "start_time": 29.2,
                "end_time": 29.2681818,
                "pitch": 88,
                "velocity": 64,
                "duration": 0.0681818,
                "tempo": 120.0
            },
            {
                "start_time": 29.3022727,
                "end_time": 29.4727273,
                "pitch": 89,
                "velocity": 64,
                "duration": 0.1704545,
                "tempo": 120.0
            },
            {
                "start_time": 29.5068182,
                "end_time": 29.6704545,
                "pitch": 88,
                "velocity": 64,
                "duration": 0.1636364,
                "tempo": 120.0
            },
            {
                "start_time": 29.7022727,
                "end_time": 30.0704545,
                "pitch": 89,
                "velocity": 64,
                "duration": 0.3681818,
                "tempo": 120.0
            },
            {
                "start_time": 30.1045455,
                "end_time": 30.4727273,
                "pitch": 90,
                "velocity": 64,
                "duration": 0.3681818,
                "tempo": 120.0
            },
            {
                "start_time": 30.5045455,
                "end_time": 31.0795455,
                "pitch": 91,
                "velocity": 64,
                "duration": 0.575,
                "tempo": 120.0
            },
            {
                "start_time": 31.1113636,
                "end_time": 31.275,
                "pitch": 93,
                "velocity": 64,
                "duration": 0.1636364,
                "tempo": 120.0
            },
            {
                "start_time": 31.3068182,
                "end_time": 31.675,
                "pitch": 91,
                "velocity": 64,
                "duration": 0.3681818,
                "tempo": 120.0
            },
            {
                "start_time": 31.7090909,
                "end_time": 31.8818182,
                "pitch": 89,
                "velocity": 64,
                "duration": 0.1727273,
                "tempo": 120.0
            },
            {
                "start_time": 31.9159091,
                "end_time": 32.0818182,
                "pitch": 88,
                "velocity": 64,
                "duration": 0.1659091,
                "tempo": 120.0
            },
            {
                "start_time": 32.1159091,
                "end_time": 32.4136364,
                "pitch": 86,
                "velocity": 64,
                "duration": 0.2977273,
                "tempo": 120.0
            },
            {
                "start_time": 32.4454545,
                "end_time": 32.4772727,
                "pitch": 85,
                "velocity": 64,
                "duration": 0.0318182,
                "tempo": 120.0
            },
            {
                "start_time": 32.5113636,
                "end_time": 32.675,
                "pitch": 86,
                "velocity": 64,
                "duration": 0.1636364,
                "tempo": 120.0
            },
            {
                "start_time": 32.7068182,
                "end_time": 32.875,
                "pitch": 85,
                "velocity": 64,
                "duration": 0.1681818,
                "tempo": 120.0
            },
            {
                "start_time": 32.9068182,
                "end_time": 33.275,
                "pitch": 86,
                "velocity": 64,
                "duration": 0.3681818,
                "tempo": 120.0
            },
            {
                "start_time": 33.3068182,
                "end_time": 33.675,
                "pitch": 81,
                "velocity": 64,
                "duration": 0.3681818,
                "tempo": 120.0
            },
            {
                "start_time": 33.7090909,
                "end_time": 34.2772727,
                "pitch": 84,
                "velocity": 64,
                "duration": 0.5681818,
                "tempo": 120.0
            },
            {
                "start_time": 34.3090909,
                "end_time": 34.4772727,
                "pitch": 86,
                "velocity": 64,
                "duration": 0.1681818,
                "tempo": 120.0
            },
            {
                "start_time": 34.5090909,
                "end_time": 35.2840909,
                "pitch": 84,
                "velocity": 64,
                "duration": 0.775,
                "tempo": 120.0
            },
            {
                "start_time": 35.3159091,
                "end_time": 35.5795455,
                "pitch": 89,
                "velocity": 64,
                "duration": 0.2636364,
                "tempo": 120.0
            },
            {
                "start_time": 35.6136364,
                "end_time": 35.6795455,
                "pitch": 88,
                "velocity": 64,
                "duration": 0.0659091,
                "tempo": 120.0
            },
            {
                "start_time": 35.7136364,
                "end_time": 35.8818182,
                "pitch": 89,
                "velocity": 64,
                "duration": 0.1681818,
                "tempo": 120.0
            },
            {
                "start_time": 35.9159091,
                "end_time": 36.0818182,
                "pitch": 88,
                "velocity": 64,
                "duration": 0.1659091,
                "tempo": 120.0
            },
            {
                "start_time": 36.1159091,
                "end_time": 36.4818182,
                "pitch": 89,
                "velocity": 64,
                "duration": 0.3659091,
                "tempo": 120.0
            },
            {
                "start_time": 36.5159091,
                "end_time": 36.8818182,
                "pitch": 90,
                "velocity": 64,
                "duration": 0.3659091,
                "tempo": 120.0
            },
            {
                "start_time": 36.9159091,
                "end_time": 37.6863636,
                "pitch": 91,
                "velocity": 64,
                "duration": 0.7704545,
                "tempo": 120.0
            }
        ],
        "Oboe": [
            {
                "start_time": 0.2,
                "end_time": 0.3659091,
                "pitch": 36,
                "velocity": 51,
                "duration": 0.1659091,
                "tempo": 120.0
            },
            {
                "start_time": 0.4,
                "end_time": 0.5659091,
                "pitch": 36,
                "velocity": 51,
                "duration": 0.1659091,
                "tempo": 120.0
            },
            {
                "start_time": 0.6,
                "end_time": 0.7659091,
                "pitch": 31,
                "velocity": 51,
                "duration": 0.1659091,
                "tempo": 120.0
            },
            {
                "start_time": 0.8,
                "end_time": 0.9659091,
                "pitch": 36,
                "velocity": 51,
                "duration": 0.1659091,
                "tempo": 120.0
            },
            {
                "start_time": 1.0,
                "end_time": 1.1659091,
                "pitch": 35,
                "velocity": 51,
                "duration": 0.1659091,
                "tempo": 120.0
            },
            {
                "start_time": 1.2,
                "end_time": 1.3659091,
                "pitch": 36,
                "velocity": 51,
                "duration": 0.1659091,
                "tempo": 120.0
            },
            {
                "start_time": 1.4,
                "end_time": 1.5659091,
                "pitch": 37,
                "velocity": 51,
                "duration": 0.1659091,
                "tempo": 120.0
            },
            {
                "start_time": 1.6,
                "end_time": 1.7659091,
                "pitch": 38,
                "velocity": 51,
                "duration": 0.1659091,
                "tempo": 120.0
            },
            {
                "start_time": 1.8,
                "end_time": 1.9681818,
                "pitch": 38,
                "velocity": 51,
                "duration": 0.1681818,
                "tempo": 120.0
            },
            {
                "start_time": 2.0022727,
                "end_time": 2.1681818,
                "pitch": 38,
                "velocity": 51,
                "duration": 0.1659091,
                "tempo": 120.0
            },
            {
                "start_time": 2.2022727,
                "end_time": 2.375,
                "pitch": 33,
                "velocity": 51,
                "duration": 0.1727273,
                "tempo": 120.0
            },
            {
                "start_time": 2.4090909,
                "end_time": 2.5795455,
                "pitch": 38,
                "velocity": 51,
                "duration": 0.1704545,
                "tempo": 120.0
            },
            {
                "start_time": 2.6136364,
                "end_time": 2.7772727,
                "pitch": 41,
                "velocity": 51,
                "duration": 0.1636364,
                "tempo": 120.0
            },
            {
                "start_time": 2.8090909,
                "end_time": 2.9727273,
                "pitch": 40,
                "velocity": 51,
                "duration": 0.1636364,
                "tempo": 120.0
            },
            {
                "start_time": 3.0045455,
                "end_time": 3.1727273,
                "pitch": 38,
                "velocity": 51,
                "duration": 0.1681818,
                "tempo": 120.0
            },
            {
                "start_time": 3.2045455,
                "end_time": 3.3727273,
                "pitch": 41,
                "velocity": 51,
                "duration": 0.1681818,
                "tempo": 120.0
            },
            {
                "start_time": 3.4045455,
                "end_time": 3.5727273,
                "pitch": 41,
                "velocity": 51,
                "duration": 0.1681818,
                "tempo": 120.0
            },
            {
                "start_time": 3.6045455,
                "end_time": 3.7727273,
                "pitch": 41,
                "velocity": 51,
                "duration": 0.1681818,
                "tempo": 120.0
            },
            {
                "start_time": 3.8045455,
                "end_time": 3.9727273,
                "pitch": 36,
                "velocity": 51,
                "duration": 0.1681818,
                "tempo": 120.0
            },
            {
                "start_time": 4.0045455,
                "end_time": 4.1727273,
                "pitch": 41,
                "velocity": 51,
                "duration": 0.1681818,
                "tempo": 120.0
            },
            {
                "start_time": 4.2045455,
                "end_time": 4.3727273,
                "pitch": 40,
                "velocity": 51,
                "duration": 0.1681818,
                "tempo": 120.0
            },
            {
                "start_time": 4.4045455,
                "end_time": 4.5727273,
                "pitch": 41,
                "velocity": 51,
                "duration": 0.1681818,
                "tempo": 120.0
            },
            {
                "start_time": 4.6068182,
                "end_time": 4.7727273,
                "pitch": 42,
                "velocity": 51,
                "duration": 0.1659091,
                "tempo": 120.0
            },
            {
                "start_time": 4.8068182,
                "end_time": 4.975,
                "pitch": 43,
                "velocity": 51,
                "duration": 0.1681818,
                "tempo": 120.0
            },
            {
                "start_time": 5.0090909,
                "end_time": 5.1772727,
                "pitch": 43,
                "velocity": 51,
                "duration": 0.1681818,
                "tempo": 120.0
            },
            {
                "start_time": 5.2090909,
                "end_time": 5.3772727,
                "pitch": 43,
                "velocity": 51,
                "duration": 0.1681818,
                "tempo": 120.0
            },
            {
                "start_time": 5.4113636,
                "end_time": 5.5818182,
                "pitch": 40,
                "velocity": 51,
                "duration": 0.1704545,
                "tempo": 120.0
            },
            {
                "start_time": 5.6159091,
                "end_time": 5.65,
                "pitch": 43,
                "velocity": 51,
                "duration": 0.0340909,
                "tempo": 120.0
            },
            {
                "start_time": 5.9204545,
                "end_time": 6.0818182,
                "pitch": 43,
                "velocity": 51,
                "duration": 0.1613636,
                "tempo": 120.0
            },
            {
                "start_time": 6.1159091,
                "end_time": 6.1318182,
                "pitch": 40,
                "velocity": 51,
                "duration": 0.0159091,
                "tempo": 120.0
            },
            {
                "start_time": 6.1636364,
                "end_time": 6.3840909,
                "pitch": 38,
                "velocity": 51,
                "duration": 0.2204545,
                "tempo": 120.0
            },
            {
                "start_time": 6.4204545,
                "end_time": 6.5909091,
                "pitch": 36,
                "velocity": 51,
                "duration": 0.1704545,
                "tempo": 120.0
            },
            {
                "start_time": 6.625,
                "end_time": 6.7863636,
                "pitch": 36,
                "velocity": 51,
                "duration": 0.1613636,
                "tempo": 120.0
            },
            {
                "start_time": 6.8204545,
                "end_time": 6.9840909,
                "pitch": 36,
                "velocity": 51,
                "duration": 0.1636364,
                "tempo": 120.0
            },
            {
                "start_time": 7.0159091,
                "end_time": 7.1840909,
                "pitch": 31,
                "velocity": 51,
                "duration": 0.1681818,
                "tempo": 120.0
            },
            {
                "start_time": 7.2181818,
                "end_time": 7.3863636,
                "pitch": 36,
                "velocity": 51,
                "duration": 0.1681818,
                "tempo": 120.0
            },
            {
                "start_time": 7.4181818,
                "end_time": 7.5863636,
                "pitch": 35,
                "velocity": 51,
                "duration": 0.1681818,
                "tempo": 120.0
            },
            {
                "start_time": 7.6181818,
                "end_time": 7.7863636,
                "pitch": 36,
                "velocity": 51,
                "duration": 0.1681818,
                "tempo": 120.0
            },
            {
                "start_time": 7.8204545,
                "end_time": 7.9863636,
                "pitch": 37,
                "velocity": 51,
                "duration": 0.1659091,
                "tempo": 120.0
            },
            {
                "start_time": 8.0204545,
                "end_time": 8.1886364,
                "pitch": 38,
                "velocity": 51,
                "duration": 0.1681818,
                "tempo": 120.0
            },
            {
                "start_time": 8.2227273,
                "end_time": 8.3886364,
                "pitch": 38,
                "velocity": 51,
                "duration": 0.1659091,
                "tempo": 120.0
            },
            {
                "start_time": 8.4227273,
                "end_time": 8.5886364,
                "pitch": 38,
                "velocity": 51,
                "duration": 0.1659091,
                "tempo": 120.0
            },
            {
                "start_time": 8.6227273,
                "end_time": 8.7909091,
                "pitch": 33,
                "velocity": 51,
                "duration": 0.1681818,
                "tempo": 120.0
            },
            {
                "start_time": 8.8227273,
                "end_time": 8.9909091,
                "pitch": 38,
                "velocity": 51,
                "duration": 0.1681818,
                "tempo": 120.0
            },
            {
                "start_time": 9.025,
                "end_time": 9.1931818,
                "pitch": 41,
                "velocity": 51,
                "duration": 0.1681818,
                "tempo": 120.0
            },
            {
                "start_time": 9.225,
                "end_time": 9.3931818,
                "pitch": 40,
                "velocity": 51,
                "duration": 0.1681818,
                "tempo": 120.0
            },
            {
                "start_time": 9.4272727,
                "end_time": 9.5954545,
                "pitch": 38,
                "velocity": 51,
                "duration": 0.1681818,
                "tempo": 120.0
            },
            {
                "start_time": 9.6295455,
                "end_time": 9.7954545,
                "pitch": 41,
                "velocity": 51,
                "duration": 0.1659091,
                "tempo": 120.0
            },
            {
                "start_time": 9.8295455,
                "end_time": 9.9977273,
                "pitch": 41,
                "velocity": 51,
                "duration": 0.1681818,
                "tempo": 120.0
            },
            {
                "start_time": 10.0295455,
                "end_time": 10.1977273,
                "pitch": 41,
                "velocity": 51,
                "duration": 0.1681818,
                "tempo": 120.0
            },
            {
                "start_time": 10.2295455,
                "end_time": 10.4022727,
                "pitch": 36,
                "velocity": 51,
                "duration": 0.1727273,
                "tempo": 120.0
            },
            {
                "start_time": 10.4363636,
                "end_time": 10.6068182,
                "pitch": 43,
                "velocity": 51,
                "duration": 0.1704545,
                "tempo": 120.0
            },
            {
                "start_time": 10.6409091,
                "end_time": 10.8045455,
                "pitch": 43,
                "velocity": 51,
                "duration": 0.1636364,
                "tempo": 120.0
            },
            {
                "start_time": 10.8363636,
                "end_time": 11.0,
                "pitch": 40,
                "velocity": 51,
                "duration": 0.1636364,
                "tempo": 120.0
            },
            {
                "start_time": 11.0318182,
                "end_time": 11.2,
                "pitch": 40,
                "velocity": 51,
                "duration": 0.1681818,
                "tempo": 120.0
            },
            {
                "start_time": 11.2340909,
                "end_time": 11.25,
                "pitch": 36,
                "velocity": 51,
                "duration": 0.0159091,
                "tempo": 120.0
            },
            {
                "start_time": 11.5022727,
                "end_time": 11.6022727,
                "pitch": 36,
                "velocity": 51,
                "duration": 0.1,
                "tempo": 120.0
            },
            {
                "start_time": 11.6363636,
                "end_time": 11.8045455,
                "pitch": 36,
                "velocity": 51,
                "duration": 0.1681818,
                "tempo": 120.0
            },
            {
                "start_time": 11.8386364,
                "end_time": 12.0045455,
                "pitch": 33,
                "velocity": 51,
                "duration": 0.1659091,
                "tempo": 120.0
            },
            {
                "start_time": 12.0386364,
                "end_time": 12.0886364,
                "pitch": 36,
                "velocity": 51,
                "duration": 0.05,
                "tempo": 120.0
            },
            {
                "start_time": 12.8477273,
                "end_time": 13.0181818,
                "pitch": 36,
                "velocity": 51,
                "duration": 0.1704545,
                "tempo": 120.0
            },
            {
                "start_time": 13.0522727,
                "end_time": 13.2136364,
                "pitch": 36,
                "velocity": 51,
                "duration": 0.1613636,
                "tempo": 120.0
            },
            {
                "start_time": 13.2477273,
                "end_time": 13.4113636,
                "pitch": 36,
                "velocity": 51,
                "duration": 0.1636364,
                "tempo": 120.0
            },
            {
                "start_time": 13.4431818,
                "end_time": 13.6113636,
                "pitch": 31,
                "velocity": 51,
                "duration": 0.1681818,
                "tempo": 120.0
            },
            {
                "start_time": 13.6454545,
                "end_time": 13.8136364,
                "pitch": 36,
                "velocity": 51,
                "duration": 0.1681818,
                "tempo": 120.0
            },
            {
                "start_time": 13.8454545,
                "end_time": 14.0136364,
                "pitch": 35,
                "velocity": 51,
                "duration": 0.1681818,
                "tempo": 120.0
            },
            {
                "start_time": 14.0454545,
                "end_time": 14.2136364,
                "pitch": 36,
                "velocity": 51,
                "duration": 0.1681818,
                "tempo": 120.0
            },
            {
                "start_time": 14.2454545,
                "end_time": 14.4136364,
                "pitch": 37,
                "velocity": 51,
                "duration": 0.1681818,
                "tempo": 120.0
            },
            {
                "start_time": 14.4477273,
                "end_time": 14.6159091,
                "pitch": 38,
                "velocity": 51,
                "duration": 0.1681818,
                "tempo": 120.0
            },
            {
                "start_time": 14.65,
                "end_time": 14.8159091,
                "pitch": 38,
                "velocity": 51,
                "duration": 0.1659091,
                "tempo": 120.0
            },
            {
                "start_time": 14.85,
                "end_time": 15.0181818,
                "pitch": 38,
                "velocity": 51,
                "duration": 0.1681818,
                "tempo": 120.0
            },
            {
                "start_time": 15.0522727,
                "end_time": 15.2204545,
                "pitch": 33,
                "velocity": 51,
                "duration": 0.1681818,
                "tempo": 120.0
            },
            {
                "start_time": 15.2522727,
                "end_time": 15.4204545,
                "pitch": 38,
                "velocity": 51,
                "duration": 0.1681818,
                "tempo": 120.0
            },
            {
                "start_time": 15.4545455,
                "end_time": 15.6227273,
                "pitch": 41,
                "velocity": 51,
                "duration": 0.1681818,
                "tempo": 120.0
            },
            {
                "start_time": 15.6568182,
                "end_time": 15.8227273,
                "pitch": 40,
                "velocity": 51,
                "duration": 0.1659091,
                "tempo": 120.0
            },
            {
                "start_time": 15.8568182,
                "end_time": 16.0227273,
                "pitch": 38,
                "velocity": 51,
                "duration": 0.1659091,
                "tempo": 120.0
            },
            {
                "start_time": 16.0568182,
                "end_time": 16.2227273,
                "pitch": 41,
                "velocity": 51,
                "duration": 0.1659091,
                "tempo": 120.0
            },
            {
                "start_time": 16.2568182,
                "end_time": 16.425,
                "pitch": 41,
                "velocity": 51,
                "duration": 0.1681818,
                "tempo": 120.0
            },
            {
                "start_time": 16.4590909,
                "end_time": 16.6272727,
                "pitch": 41,
                "velocity": 51,
                "duration": 0.1681818,
                "tempo": 120.0
            },
            {
                "start_time": 16.6590909,
                "end_time": 16.8318182,
                "pitch": 36,
                "velocity": 51,
                "duration": 0.1727273,
                "tempo": 120.0
            },
            {
                "start_time": 16.8659091,
                "end_time": 17.0363636,
                "pitch": 41,
                "velocity": 51,
                "duration": 0.1704545,
                "tempo": 120.0
            },
            {
                "start_time": 17.0704545,
                "end_time": 17.2340909,
                "pitch": 40,
                "velocity": 51,
                "duration": 0.1636364,
                "tempo": 120.0
            },
            {
                "start_time": 17.2659091,
                "end_time": 17.4295455,
                "pitch": 41,
                "velocity": 51,
                "duration": 0.1636364,
                "tempo": 120.0
            },
            {
                "start_time": 17.4636364,
                "end_time": 17.6295455,
                "pitch": 42,
                "velocity": 51,
                "duration": 0.1659091,
                "tempo": 120.0
            },
            {
                "start_time": 17.6636364,
                "end_time": 17.8295455,
                "pitch": 43,
                "velocity": 51,
                "duration": 0.1659091,
                "tempo": 120.0
            },
            {
                "start_time": 17.8636364,
                "end_time": 18.0318182,
                "pitch": 43,
                "velocity": 51,
                "duration": 0.1681818,
                "tempo": 120.0
            },
            {
                "start_time": 18.0636364,
                "end_time": 18.2318182,
                "pitch": 43,
                "velocity": 51,
                "duration": 0.1681818,
                "tempo": 120.0
            },
            {
                "start_time": 18.2659091,
                "end_time": 18.4318182,
                "pitch": 40,
                "velocity": 51,
                "duration": 0.1659091,
                "tempo": 120.0
            },
            {
                "start_time": 18.4659091,
                "end_time": 18.4977273,
                "pitch": 43,
                "velocity": 51,
                "duration": 0.0318182,
                "tempo": 120.0
            },
            {
                "start_time": 18.7659091,
                "end_time": 18.9318182,
                "pitch": 43,
                "velocity": 51,
                "duration": 0.1659091,
                "tempo": 120.0
            },
            {
                "start_time": 18.9659091,
                "end_time": 18.9818182,
                "pitch": 40,
                "velocity": 51,
                "duration": 0.0159091,
                "tempo": 120.0
            },
            {
                "start_time": 19.0159091,
                "end_time": 19.2363636,
                "pitch": 38,
                "velocity": 51,
                "duration": 0.2204545,
                "tempo": 120.0
            },
            {
                "start_time": 19.2704545,
                "end_time": 19.4431818,
                "pitch": 36,
                "velocity": 51,
                "duration": 0.1727273,
                "tempo": 120.0
            },
            {
                "start_time": 19.475,
                "end_time": 19.6386364,
                "pitch": 36,
                "velocity": 51,
                "duration": 0.1636364,
                "tempo": 120.0
            },
            {
                "start_time": 19.6727273,
                "end_time": 19.8340909,
                "pitch": 36,
                "velocity": 51,
                "duration": 0.1613636,
                "tempo": 120.0
            },
            {
                "start_time": 19.8681818,
                "end_time": 20.0363636,
                "pitch": 31,
                "velocity": 51,
                "duration": 0.1681818,
                "tempo": 120.0
            },
            {
                "start_time": 20.0704545,
                "end_time": 20.2386364,
                "pitch": 36,
                "velocity": 51,
                "duration": 0.1681818,
                "tempo": 120.0
            },
            {
                "start_time": 20.2704545,
                "end_time": 20.4386364,
                "pitch": 35,
                "velocity": 51,
                "duration": 0.1681818,
                "tempo": 120.0
            },
            {
                "start_time": 20.4704545,
                "end_time": 20.6386364,
                "pitch": 36,
                "velocity": 51,
                "duration": 0.1681818,
                "tempo": 120.0
            },
            {
                "start_time": 20.6704545,
                "end_time": 20.8386364,
                "pitch": 37,
                "velocity": 51,
                "duration": 0.1681818,
                "tempo": 120.0
            },
            {
                "start_time": 20.8704545,
                "end_time": 21.0386364,
                "pitch": 38,
                "velocity": 51,
                "duration": 0.1681818,
                "tempo": 120.0
            },
            {
                "start_time": 21.0704545,
                "end_time": 21.2386364,
                "pitch": 38,
                "velocity": 51,
                "duration": 0.1681818,
                "tempo": 120.0
            },
            {
                "start_time": 21.2727273,
                "end_time": 21.4409091,
                "pitch": 38,
                "velocity": 51,
                "duration": 0.1681818,
                "tempo": 120.0
            },
            {
                "start_time": 21.4727273,
                "end_time": 21.6409091,
                "pitch": 33,
                "velocity": 51,
                "duration": 0.1681818,
                "tempo": 120.0
            },
            {
                "start_time": 21.6727273,
                "end_time": 21.8409091,
                "pitch": 38,
                "velocity": 51,
                "duration": 0.1681818,
                "tempo": 120.0
            },
            {
                "start_time": 21.8727273,
                "end_time": 22.0409091,
                "pitch": 41,
                "velocity": 51,
                "duration": 0.1681818,
                "tempo": 120.0
            },
            {
                "start_time": 22.075,
                "end_time": 22.2431818,
                "pitch": 40,
                "velocity": 51,
                "duration": 0.1681818,
                "tempo": 120.0
            },
            {
                "start_time": 22.2772727,
                "end_time": 22.4431818,
                "pitch": 38,
                "velocity": 51,
                "duration": 0.1659091,
                "tempo": 120.0
            },
            {
                "start_time": 22.4772727,
                "end_time": 22.6431818,
                "pitch": 41,
                "velocity": 51,
                "duration": 0.1659091,
                "tempo": 120.0
            },
            {
                "start_time": 22.6772727,
                "end_time": 22.8431818,
                "pitch": 41,
                "velocity": 51,
                "duration": 0.1659091,
                "tempo": 120.0
            },
            {
                "start_time": 22.8772727,
                "end_time": 23.0431818,
                "pitch": 41,
                "velocity": 51,
                "duration": 0.1659091,
                "tempo": 120.0
            },
            {
                "start_time": 23.0772727,
                "end_time": 23.2431818,
                "pitch": 36,
                "velocity": 51,
                "duration": 0.1659091,
                "tempo": 120.0
            },
            {
                "start_time": 23.2772727,
                "end_time": 23.4454545,
                "pitch": 43,
                "velocity": 51,
                "duration": 0.1681818,
                "tempo": 120.0
            },
            {
                "start_time": 23.4795455,
                "end_time": 23.6454545,
                "pitch": 43,
                "velocity": 51,
                "duration": 0.1659091,
                "tempo": 120.0
            },
            {
                "start_time": 23.6795455,
                "end_time": 23.8454545,
                "pitch": 40,
                "velocity": 51,
                "duration": 0.1659091,
                "tempo": 120.0
            },
            {
                "start_time": 23.8795455,
                "end_time": 24.0477273,
                "pitch": 40,
                "velocity": 51,
                "duration": 0.1681818,
                "tempo": 120.0
            },
            {
                "start_time": 24.0795455,
                "end_time": 24.1136364,
                "pitch": 36,
                "velocity": 51,
                "duration": 0.0340909,
                "tempo": 120.0
            },
            {
                "start_time": 24.3818182,
                "end_time": 24.4477273,
                "pitch": 36,
                "velocity": 51,
                "duration": 0.0659091,
                "tempo": 120.0
            },
            {
                "start_time": 24.4818182,
                "end_time": 24.6477273,
                "pitch": 36,
                "velocity": 51,
                "duration": 0.1659091,
                "tempo": 120.0
            },
            {
                "start_time": 24.6818182,
                "end_time": 24.8477273,
                "pitch": 33,
                "velocity": 51,
                "duration": 0.1659091,
                "tempo": 120.0
            },
            {
                "start_time": 24.8818182,
                "end_time": 24.9318182,
                "pitch": 36,
                "velocity": 51,
                "duration": 0.05,
                "tempo": 120.0
            },
            {
                "start_time": 25.6863636,
                "end_time": 25.7022727,
                "pitch": 38,
                "velocity": 51,
                "duration": 0.0159091,
                "tempo": 120.0
            },
            {
                "start_time": 25.9954545,
                "end_time": 26.0636364,
                "pitch": 38,
                "velocity": 51,
                "duration": 0.0681818,
                "tempo": 120.0
            },
            {
                "start_time": 26.0954545,
                "end_time": 26.2636364,
                "pitch": 38,
                "velocity": 51,
                "duration": 0.1681818,
                "tempo": 120.0
            },
            {
                "start_time": 26.2954545,
                "end_time": 26.4590909,
                "pitch": 33,
                "velocity": 51,
                "duration": 0.1636364,
                "tempo": 120.0
            },
            {
                "start_time": 26.7909091,
                "end_time": 26.8590909,
                "pitch": 38,
                "velocity": 51,
                "duration": 0.0681818,
                "tempo": 120.0
            },
            {
                "start_time": 26.8931818,
                "end_time": 27.0659091,
                "pitch": 38,
                "velocity": 51,
                "duration": 0.1727273,
                "tempo": 120.0
            },
            {
                "start_time": 27.0977273,
                "end_time": 27.2613636,
                "pitch": 37,
                "velocity": 51,
                "duration": 0.1636364,
                "tempo": 120.0
            },
            {
                "start_time": 27.2954545,
                "end_time": 27.3113636,
                "pitch": 36,
                "velocity": 51,
                "duration": 0.0159091,
                "tempo": 120.0
            },
            {
                "start_time": 27.5931818,
                "end_time": 27.6613636,
                "pitch": 36,
                "velocity": 51,
                "duration": 0.0681818,
                "tempo": 120.0
            },
            {
                "start_time": 27.6954545,
                "end_time": 27.8681818,
                "pitch": 36,
                "velocity": 51,
                "duration": 0.1727273,
                "tempo": 120.0
            },
            {
                "start_time": 27.9022727,
                "end_time": 28.0681818,
                "pitch": 31,
                "velocity": 51,
                "duration": 0.1659091,
                "tempo": 120.0
            },
            {
                "start_time": 28.1022727,
                "end_time": 28.3681818,
                "pitch": 36,
                "velocity": 51,
                "duration": 0.2659091,
                "tempo": 120.0
            },
            {
                "start_time": 28.4022727,
                "end_time": 28.4704545,
                "pitch": 36,
                "velocity": 51,
                "duration": 0.0681818,
                "tempo": 120.0
            },
            {
                "start_time": 28.5022727,
                "end_time": 28.6704545,
                "pitch": 36,
                "velocity": 51,
                "duration": 0.1681818,
                "tempo": 120.0
            },
            {
                "start_time": 28.7045455,
                "end_time": 28.8681818,
                "pitch": 40,
                "velocity": 51,
                "duration": 0.1636364,
                "tempo": 120.0
            },
            {
                "start_time": 28.9,
                "end_time": 28.9318182,
                "pitch": 41,
                "velocity": 51,
                "duration": 0.0318182,
                "tempo": 120.0
            },
            {
                "start_time": 29.2,
                "end_time": 29.2681818,
                "pitch": 41,
                "velocity": 51,
                "duration": 0.0681818,
                "tempo": 120.0
            },
            {
                "start_time": 29.3022727,
                "end_time": 29.4727273,
                "pitch": 41,
                "velocity": 51,
                "duration": 0.1704545,
                "tempo": 120.0
            },
            {
                "start_time": 29.5068182,
                "end_time": 29.6704545,
                "pitch": 36,
                "velocity": 51,
                "duration": 0.1636364,
                "tempo": 120.0
            },
            {
                "start_time": 29.7022727,
                "end_time": 29.7340909,
                "pitch": 41,
                "velocity": 51,
                "duration": 0.0318182,
                "tempo": 120.0
            },
            {
                "start_time": 30.0022727,
                "end_time": 30.0704545,
                "pitch": 41,
                "velocity": 51,
                "duration": 0.0681818,
                "tempo": 120.0
            },
            {
                "start_time": 30.1045455,
                "end_time": 30.275,
                "pitch": 41,
                "velocity": 51,
                "duration": 0.1704545,
                "tempo": 120.0
            },
            {
                "start_time": 30.3090909,
                "end_time": 30.4727273,
                "pitch": 42,
                "velocity": 51,
                "duration": 0.1636364,
                "tempo": 120.0
            },
            {
                "start_time": 30.5045455,
                "end_time": 30.5386364,
                "pitch": 43,
                "velocity": 51,
                "duration": 0.0340909,
                "tempo": 120.0
            },
            {
                "start_time": 30.8045455,
                "end_time": 30.8727273,
                "pitch": 43,
                "velocity": 51,
                "duration": 0.0681818,
                "tempo": 120.0
            },
            {
                "start_time": 30.9068182,
                "end_time": 31.0795455,
                "pitch": 43,
                "velocity": 51,
                "duration": 0.1727273,
                "tempo": 120.0
            },
            {
                "start_time": 31.1113636,
                "end_time": 31.275,
                "pitch": 38,
                "velocity": 51,
                "duration": 0.1636364,
                "tempo": 120.0
            },
            {
                "start_time": 31.3068182,
                "end_time": 31.3409091,
                "pitch": 43,
                "velocity": 51,
                "duration": 0.0340909,
                "tempo": 120.0
            },
            {
                "start_time": 31.6068182,
                "end_time": 31.675,
                "pitch": 43,
                "velocity": 51,
                "duration": 0.0681818,
                "tempo": 120.0
            },
            {
                "start_time": 31.7090909,
                "end_time": 31.8818182,
                "pitch": 43,
                "velocity": 51,
                "duration": 0.1727273,
                "tempo": 120.0
            },
            {
                "start_time": 31.9159091,
                "end_time": 31.9818182,
                "pitch": 41,
                "velocity": 51,
                "duration": 0.0659091,
                "tempo": 120.0
            },
            {
                "start_time": 32.0159091,
                "end_time": 32.0818182,
                "pitch": 40,
                "velocity": 51,
                "duration": 0.0659091,
                "tempo": 120.0
            },
            {
                "start_time": 32.1159091,
                "end_time": 32.1318182,
                "pitch": 38,
                "velocity": 51,
                "duration": 0.0159091,
                "tempo": 120.0
            },
            {
                "start_time": 32.4136364,
                "end_time": 32.4772727,
                "pitch": 38,
                "velocity": 51,
                "duration": 0.0636364,
                "tempo": 120.0
            },
            {
                "start_time": 32.5113636,
                "end_time": 32.675,
                "pitch": 38,
                "velocity": 51,
                "duration": 0.1636364,
                "tempo": 120.0
            },
            {
                "start_time": 32.7068182,
                "end_time": 32.875,
                "pitch": 33,
                "velocity": 51,
                "duration": 0.1681818,
                "tempo": 120.0
            },
            {
                "start_time": 33.2068182,
                "end_time": 33.275,
                "pitch": 38,
                "velocity": 51,
                "duration": 0.0681818,
                "tempo": 120.0
            },
            {
                "start_time": 33.3068182,
                "end_time": 33.475,
                "pitch": 38,
                "velocity": 51,
                "duration": 0.1681818,
                "tempo": 120.0
            },
            {
                "start_time": 33.5068182,
                "end_time": 33.675,
                "pitch": 37,
                "velocity": 51,
                "duration": 0.1681818,
                "tempo": 120.0
            },
            {
                "start_time": 33.7090909,
                "end_time": 33.725,
                "pitch": 36,
                "velocity": 51,
                "duration": 0.0159091,
                "tempo": 120.0
            },
            {
                "start_time": 34.0090909,
                "end_time": 34.0772727,
                "pitch": 36,
                "velocity": 51,
                "duration": 0.0681818,
                "tempo": 120.0
            },
            {
                "start_time": 34.1090909,
                "end_time": 34.2772727,
                "pitch": 36,
                "velocity": 51,
                "duration": 0.1681818,
                "tempo": 120.0
            },
            {
                "start_time": 34.3090909,
                "end_time": 34.4772727,
                "pitch": 31,
                "velocity": 51,
                "duration": 0.1681818,
                "tempo": 120.0
            },
            {
                "start_time": 34.5090909,
                "end_time": 34.7795455,
                "pitch": 36,
                "velocity": 51,
                "duration": 0.2704545,
                "tempo": 120.0
            },
            {
                "start_time": 34.8136364,
                "end_time": 34.8818182,
                "pitch": 36,
                "velocity": 51,
                "duration": 0.0681818,
                "tempo": 120.0
            },
            {
                "start_time": 34.9159091,
                "end_time": 35.0863636,
                "pitch": 36,
                "velocity": 51,
                "duration": 0.1704545,
                "tempo": 120.0
            },
            {
                "start_time": 35.1204545,
                "end_time": 35.2840909,
                "pitch": 40,
                "velocity": 51,
                "duration": 0.1636364,
                "tempo": 120.0
            },
            {
                "start_time": 35.3159091,
                "end_time": 35.35,
                "pitch": 41,
                "velocity": 51,
                "duration": 0.0340909,
                "tempo": 120.0
            },
            {
                "start_time": 35.6136364,
                "end_time": 35.6795455,
                "pitch": 41,
                "velocity": 51,
                "duration": 0.0659091,
                "tempo": 120.0
            },
            {
                "start_time": 35.7136364,
                "end_time": 35.8818182,
                "pitch": 41,
                "velocity": 51,
                "duration": 0.1681818,
                "tempo": 120.0
            },
            {
                "start_time": 35.9159091,
                "end_time": 36.0818182,
                "pitch": 36,
                "velocity": 51,
                "duration": 0.1659091,
                "tempo": 120.0
            },
            {
                "start_time": 36.1159091,
                "end_time": 36.1477273,
                "pitch": 41,
                "velocity": 51,
                "duration": 0.0318182,
                "tempo": 120.0
            },
            {
                "start_time": 36.4159091,
                "end_time": 36.4818182,
                "pitch": 41,
                "velocity": 51,
                "duration": 0.0659091,
                "tempo": 120.0
            },
            {
                "start_time": 36.5159091,
                "end_time": 36.6818182,
                "pitch": 41,
                "velocity": 51,
                "duration": 0.1659091,
                "tempo": 120.0
            },
            {
                "start_time": 36.7159091,
                "end_time": 36.8818182,
                "pitch": 42,
                "velocity": 51,
                "duration": 0.1659091,
                "tempo": 120.0
            },
            {
                "start_time": 36.9159091,
                "end_time": 36.9659091,
                "pitch": 43,
                "velocity": 51,
                "duration": 0.05,
                "tempo": 120.0
            },
            {
                "start_time": 37.2159091,
                "end_time": 37.2818182,
                "pitch": 43,
                "velocity": 51,
                "duration": 0.0659091,
                "tempo": 120.0
            },
            {
                "start_time": 37.3159091,
                "end_time": 37.4818182,
                "pitch": 43,
                "velocity": 51,
                "duration": 0.1659091,
                "tempo": 120.0
            },
            {
                "start_time": 37.5159091,
                "end_time": 37.6863636,
                "pitch": 38,
                "velocity": 51,
                "duration": 0.1704545,
                "tempo": 120.0
            },
            {
                "start_time": 37.7204545,
                "end_time": 38.1272727,
                "pitch": 43,
                "velocity": 51,
                "duration": 0.4068182,
                "tempo": 120.0
            },
            {
                "start_time": 38.5272727,
                "end_time": 38.6931818,
                "pitch": 36,
                "velocity": 51,
                "duration": 0.1659091,
                "tempo": 120.0
            },
            {
                "start_time": 38.725,
                "end_time": 38.8886364,
                "pitch": 36,
                "velocity": 51,
                "duration": 0.1636364,
                "tempo": 120.0
            },
            {
                "start_time": 38.9227273,
                "end_time": 39.0863636,
                "pitch": 36,
                "velocity": 51,
                "duration": 0.1636364,
                "tempo": 120.0
            },
            {
                "start_time": 39.1181818,
                "end_time": 39.2840909,
                "pitch": 31,
                "velocity": 51,
                "duration": 0.1659091,
                "tempo": 120.0
            },
            {
                "start_time": 39.3181818,
                "end_time": 39.4840909,
                "pitch": 36,
                "velocity": 51,
                "duration": 0.1659091,
                "tempo": 120.0
            },
            {
                "start_time": 39.5181818,
                "end_time": 39.6863636,
                "pitch": 35,
                "velocity": 51,
                "duration": 0.1681818,
                "tempo": 120.0
            },
            {
                "start_time": 39.7204545,
                "end_time": 39.8886364,
                "pitch": 36,
                "velocity": 51,
                "duration": 0.1681818,
                "tempo": 120.0
            },
            {
                "start_time": 39.9204545,
                "end_time": 40.0886364,
                "pitch": 37,
                "velocity": 51,
                "duration": 0.1681818,
                "tempo": 120.0
            },
            {
                "start_time": 40.1204545,
                "end_time": 40.2886364,
                "pitch": 38,
                "velocity": 51,
                "duration": 0.1681818,
                "tempo": 120.0
            },
            {
                "start_time": 40.3204545,
                "end_time": 40.4886364,
                "pitch": 38,
                "velocity": 51,
                "duration": 0.1681818,
                "tempo": 120.0
            },
            {
                "start_time": 40.5204545,
                "end_time": 40.6886364,
                "pitch": 38,
                "velocity": 51,
                "duration": 0.1681818,
                "tempo": 120.0
            },
            {
                "start_time": 40.7204545,
                "end_time": 40.8886364,
                "pitch": 33,
                "velocity": 51,
                "duration": 0.1681818,
                "tempo": 120.0
            },
            {
                "start_time": 40.9204545,
                "end_time": 41.0886364,
                "pitch": 38,
                "velocity": 51,
                "duration": 0.1681818,
                "tempo": 120.0
            },
            {
                "start_time": 41.1204545,
                "end_time": 41.2886364,
                "pitch": 41,
                "velocity": 51,
                "duration": 0.1681818,
                "tempo": 120.0
            },
            {
                "start_time": 41.3204545,
                "end_time": 41.4886364,
                "pitch": 40,
                "velocity": 51,
                "duration": 0.1681818,
                "tempo": 120.0
            },
            {
                "start_time": 41.5204545,
                "end_time": 41.6886364,
                "pitch": 38,
                "velocity": 51,
                "duration": 0.1681818,
                "tempo": 120.0
            },
            {
                "start_time": 41.7227273,
                "end_time": 41.8909091,
                "pitch": 41,
                "velocity": 51,
                "duration": 0.1681818,
                "tempo": 120.0
            },
            {
                "start_time": 41.925,
                "end_time": 42.0909091,
                "pitch": 41,
                "velocity": 51,
                "duration": 0.1659091,
                "tempo": 120.0
            },
            {
                "start_time": 42.125,
                "end_time": 42.2909091,
                "pitch": 41,
                "velocity": 51,
                "duration": 0.1659091,
                "tempo": 120.0
            },
            {
                "start_time": 42.325,
                "end_time": 42.4954545,
                "pitch": 36,
                "velocity": 51,
                "duration": 0.1704545,
                "tempo": 120.0
            },
            {
                "start_time": 42.5295455,
                "end_time": 42.7,
                "pitch": 43,
                "velocity": 51,
                "duration": 0.1704545,
                "tempo": 120.0
            },
            {
                "start_time": 42.7340909,
                "end_time": 42.8977273,
                "pitch": 43,
                "velocity": 51,
                "duration": 0.1636364,
                "tempo": 120.0
            },
            {
                "start_time": 42.9295455,
                "end_time": 43.0931818,
                "pitch": 40,
                "velocity": 51,
                "duration": 0.1636364,
                "tempo": 120.0
            },
            {
                "start_time": 43.1272727,
                "end_time": 43.2931818,
                "pitch": 40,
                "velocity": 51,
                "duration": 0.1659091,
                "tempo": 120.0
            },
            {
                "start_time": 43.3272727,
                "end_time": 43.5954545,
                "pitch": 36,
                "velocity": 51,
                "duration": 0.2681818,
                "tempo": 120.0
            },
            {
                "start_time": 43.6295455,
                "end_time": 43.6977273,
                "pitch": 36,
                "velocity": 51,
                "duration": 0.0681818,
                "tempo": 120.0
            },
            {
                "start_time": 43.7318182,
                "end_time": 43.9045455,
                "pitch": 36,
                "velocity": 51,
                "duration": 0.1727273,
                "tempo": 120.0
            },
            {
                "start_time": 43.9386364,
                "end_time": 44.1045455,
                "pitch": 31,
                "velocity": 51,
                "duration": 0.1659091,
                "tempo": 120.0
            },
            {
                "start_time": 44.1386364,
                "end_time": 44.4522727,
                "pitch": 36,
                "velocity": 51,
                "duration": 0.3136364,
                "tempo": 120.0
            }
        ],
        "Vibraphone": [
            {
                "start_time": 0.6159091,
                "end_time": 0.7840909,
                "pitch": 79,
                "velocity": 51,
                "duration": 0.1681818,
                "tempo": 120.0
            },
            {
                "start_time": 0.8159091,
                "end_time": 1.1840909,
                "pitch": 79,
                "velocity": 51,
                "duration": 0.3681818,
                "tempo": 120.0
            },
            {
                "start_time": 1.2159091,
                "end_time": 1.5840909,
                "pitch": 76,
                "velocity": 51,
                "duration": 0.3681818,
                "tempo": 120.0
            },
            {
                "start_time": 1.6159091,
                "end_time": 2.1863636,
                "pitch": 77,
                "velocity": 51,
                "duration": 0.5704545,
                "tempo": 120.0
            },
            {
                "start_time": 2.2204545,
                "end_time": 2.3909091,
                "pitch": 74,
                "velocity": 51,
                "duration": 0.1704545,
                "tempo": 120.0
            },
            {
                "start_time": 2.425,
                "end_time": 2.7931818,
                "pitch": 74,
                "velocity": 51,
                "duration": 0.3681818,
                "tempo": 120.0
            },
            {
                "start_time": 3.2227273,
                "end_time": 3.7886364,
                "pitch": 84,
                "velocity": 51,
                "duration": 0.5659091,
                "tempo": 120.0
            },
            {
                "start_time": 3.8227273,
                "end_time": 3.9886364,
                "pitch": 84,
                "velocity": 51,
                "duration": 0.1659091,
                "tempo": 120.0
            },
            {
                "start_time": 4.0227273,
                "end_time": 4.3886364,
                "pitch": 84,
                "velocity": 51,
                "duration": 0.3659091,
                "tempo": 120.0
            },
            {
                "start_time": 4.4227273,
                "end_time": 4.7909091,
                "pitch": 81,
                "velocity": 51,
                "duration": 0.3681818,
                "tempo": 120.0
            },
            {
                "start_time": 4.8227273,
                "end_time": 5.3954545,
                "pitch": 83,
                "velocity": 51,
                "duration": 0.5727273,
                "tempo": 120.0
            },
            {
                "start_time": 5.4295455,
                "end_time": 5.6,
                "pitch": 79,
                "velocity": 51,
                "duration": 0.1704545,
                "tempo": 120.0
            },
            {
                "start_time": 5.6340909,
                "end_time": 6.1636364,
                "pitch": 79,
                "velocity": 51,
                "duration": 0.5295455,
                "tempo": 120.0
            },
            {
                "start_time": 6.4363636,
                "end_time": 7.0,
                "pitch": 79,
                "velocity": 51,
                "duration": 0.5636364,
                "tempo": 120.0
            },
            {
                "start_time": 7.0340909,
                "end_time": 7.2022727,
                "pitch": 79,
                "velocity": 51,
                "duration": 0.1681818,
                "tempo": 120.0
            },
            {
                "start_time": 7.2340909,
                "end_time": 7.6022727,
                "pitch": 79,
                "velocity": 51,
                "duration": 0.3681818,
                "tempo": 120.0
            },
            {
                "start_time": 7.6363636,
                "end_time": 8.0045455,
                "pitch": 76,
                "velocity": 51,
                "duration": 0.3681818,
                "tempo": 120.0
            },
            {
                "start_time": 8.0363636,
                "end_time": 8.6045455,
                "pitch": 76,
                "velocity": 51,
                "duration": 0.5681818,
                "tempo": 120.0
            },
            {
                "start_time": 8.6386364,
                "end_time": 8.8068182,
                "pitch": 72,
                "velocity": 51,
                "duration": 0.1681818,
                "tempo": 120.0
            },
            {
                "start_time": 8.8409091,
                "end_time": 9.2090909,
                "pitch": 72,
                "velocity": 51,
                "duration": 0.3681818,
                "tempo": 120.0
            },
            {
                "start_time": 9.6454545,
                "end_time": 9.9636364,
                "pitch": 84,
                "velocity": 51,
                "duration": 0.3181818,
                "tempo": 120.0
            },
            {
                "start_time": 10.2477273,
                "end_time": 10.4181818,
                "pitch": 84,
                "velocity": 51,
                "duration": 0.1704545,
                "tempo": 120.0
            },
            {
                "start_time": 10.4522727,
                "end_time": 10.8204545,
                "pitch": 86,
                "velocity": 51,
                "duration": 0.3681818,
                "tempo": 120.0
            },
            {
                "start_time": 10.8522727,
                "end_time": 11.2181818,
                "pitch": 84,
                "velocity": 51,
                "duration": 0.3659091,
                "tempo": 120.0
            },
            {
                "start_time": 11.25,
                "end_time": 12.2204545,
                "pitch": 81,
                "velocity": 51,
                "duration": 0.9704545,
                "tempo": 120.0
            },
            {
                "start_time": 12.2545455,
                "end_time": 12.8818182,
                "pitch": 69,
                "velocity": 51,
                "duration": 0.6272727,
                "tempo": 120.0
            },
            {
                "start_time": 12.8818182,
                "end_time": 13.4272727,
                "pitch": 79,
                "velocity": 51,
                "duration": 0.5454545,
                "tempo": 120.0
            },
            {
                "start_time": 13.4613636,
                "end_time": 13.6295455,
                "pitch": 79,
                "velocity": 51,
                "duration": 0.1681818,
                "tempo": 120.0
            },
            {
                "start_time": 13.6613636,
                "end_time": 14.0295455,
                "pitch": 79,
                "velocity": 51,
                "duration": 0.3681818,
                "tempo": 120.0
            },
            {
                "start_time": 14.0636364,
                "end_time": 14.4318182,
                "pitch": 76,
                "velocity": 51,
                "duration": 0.3681818,
                "tempo": 120.0
            },
            {
                "start_time": 14.4636364,
                "end_time": 15.0340909,
                "pitch": 77,
                "velocity": 51,
                "duration": 0.5704545,
                "tempo": 120.0
            },
            {
                "start_time": 15.0681818,
                "end_time": 15.2363636,
                "pitch": 74,
                "velocity": 51,
                "duration": 0.1681818,
                "tempo": 120.0
            },
            {
                "start_time": 15.2704545,
                "end_time": 15.6386364,
                "pitch": 74,
                "velocity": 51,
                "duration": 0.3681818,
                "tempo": 120.0
            },
            {
                "start_time": 16.0727273,
                "end_time": 16.6431818,
                "pitch": 84,
                "velocity": 51,
                "duration": 0.5704545,
                "tempo": 120.0
            },
            {
                "start_time": 16.6772727,
                "end_time": 16.8477273,
                "pitch": 84,
                "velocity": 51,
                "duration": 0.1704545,
                "tempo": 120.0
            },
            {
                "start_time": 16.8818182,
                "end_time": 17.25,
                "pitch": 84,
                "velocity": 51,
                "duration": 0.3681818,
                "tempo": 120.0
            },
            {
                "start_time": 17.2818182,
                "end_time": 17.6454545,
                "pitch": 81,
                "velocity": 51,
                "duration": 0.3636364,
                "tempo": 120.0
            },
            {
                "start_time": 17.6795455,
                "end_time": 18.2477273,
                "pitch": 83,
                "velocity": 51,
                "duration": 0.5681818,
                "tempo": 120.0
            },
            {
                "start_time": 18.2818182,
                "end_time": 18.4477273,
                "pitch": 79,
                "velocity": 51,
                "duration": 0.1659091,
                "tempo": 120.0
            },
            {
                "start_time": 18.4818182,
                "end_time": 19.0159091,
                "pitch": 79,
                "velocity": 51,
                "duration": 0.5340909,
                "tempo": 120.0
            },
            {
                "start_time": 19.2886364,
                "end_time": 19.8522727,
                "pitch": 79,
                "velocity": 51,
                "duration": 0.5636364,
                "tempo": 120.0
            },
            {
                "start_time": 19.8840909,
                "end_time": 20.0522727,
                "pitch": 79,
                "velocity": 51,
                "duration": 0.1681818,
                "tempo": 120.0
            },
            {
                "start_time": 20.0863636,
                "end_time": 20.4545455,
                "pitch": 79,
                "velocity": 51,
                "duration": 0.3681818,
                "tempo": 120.0
            },
            {
                "start_time": 20.4886364,
                "end_time": 20.8545455,
                "pitch": 76,
                "velocity": 51,
                "duration": 0.3659091,
                "tempo": 120.0
            },
            {
                "start_time": 20.8886364,
                "end_time": 21.4568182,
                "pitch": 76,
                "velocity": 51,
                "duration": 0.5681818,
                "tempo": 120.0
            },
            {
                "start_time": 21.4909091,
                "end_time": 21.6568182,
                "pitch": 72,
                "velocity": 51,
                "duration": 0.1659091,
                "tempo": 120.0
            },
            {
                "start_time": 21.6909091,
                "end_time": 22.0590909,
                "pitch": 72,
                "velocity": 51,
                "duration": 0.3681818,
                "tempo": 120.0
            },
            {
                "start_time": 22.4931818,
                "end_time": 22.8090909,
                "pitch": 84,
                "velocity": 51,
                "duration": 0.3159091,
                "tempo": 120.0
            },
            {
                "start_time": 23.0931818,
                "end_time": 23.2613636,
                "pitch": 84,
                "velocity": 51,
                "duration": 0.1681818,
                "tempo": 120.0
            },
            {
                "start_time": 23.2954545,
                "end_time": 23.6613636,
                "pitch": 86,
                "velocity": 51,
                "duration": 0.3659091,
                "tempo": 120.0
            },
            {
                "start_time": 23.6954545,
                "end_time": 24.0636364,
                "pitch": 84,
                "velocity": 51,
                "duration": 0.3681818,
                "tempo": 120.0
            },
            {
                "start_time": 24.0977273,
                "end_time": 24.6659091,
                "pitch": 79,
                "velocity": 51,
                "duration": 0.5681818,
                "tempo": 120.0
            },
            {
                "start_time": 24.6977273,
                "end_time": 25.7204545,
                "pitch": 69,
                "velocity": 51,
                "duration": 1.0227273,
                "tempo": 120.0
            },
            {
                "start_time": 25.7204545,
                "end_time": 25.7727273,
                "pitch": 81,
                "velocity": 51,
                "duration": 0.0522727,
                "tempo": 120.0
            },
            {
                "start_time": 25.8090909,
                "end_time": 25.8795455,
                "pitch": 77,
                "velocity": 51,
                "duration": 0.0704545,
                "tempo": 120.0
            },
            {
                "start_time": 25.9136364,
                "end_time": 26.0795455,
                "pitch": 74,
                "velocity": 51,
                "duration": 0.1659091,
                "tempo": 120.0
            },
            {
                "start_time": 26.1136364,
                "end_time": 26.2795455,
                "pitch": 81,
                "velocity": 51,
                "duration": 0.1659091,
                "tempo": 120.0
            },
            {
                "start_time": 26.3113636,
                "end_time": 26.475,
                "pitch": 77,
                "velocity": 51,
                "duration": 0.1636364,
                "tempo": 120.0
            },
            {
                "start_time": 26.5090909,
                "end_time": 26.5727273,
                "pitch": 81,
                "velocity": 51,
                "duration": 0.0636364,
                "tempo": 120.0
            },
            {
                "start_time": 26.6068182,
                "end_time": 26.6704545,
                "pitch": 77,
                "velocity": 51,
                "duration": 0.0636364,
                "tempo": 120.0
            },
            {
                "start_time": 26.7045455,
                "end_time": 26.8772727,
                "pitch": 74,
                "velocity": 51,
                "duration": 0.1727273,
                "tempo": 120.0
            },
            {
                "start_time": 26.9113636,
                "end_time": 27.0818182,
                "pitch": 81,
                "velocity": 51,
                "duration": 0.1704545,
                "tempo": 120.0
            },
            {
                "start_time": 27.1136364,
                "end_time": 27.2772727,
                "pitch": 77,
                "velocity": 51,
                "duration": 0.1636364,
                "tempo": 120.0
            },
            {
                "start_time": 27.3113636,
                "end_time": 27.375,
                "pitch": 79,
                "velocity": 51,
                "duration": 0.0636364,
                "tempo": 120.0
            },
            {
                "start_time": 27.4090909,
                "end_time": 27.475,
                "pitch": 76,
                "velocity": 51,
                "duration": 0.0659091,
                "tempo": 120.0
            },
            {
                "start_time": 27.5090909,
                "end_time": 27.6795455,
                "pitch": 72,
                "velocity": 51,
                "duration": 0.1704545,
                "tempo": 120.0
            },
            {
                "start_time": 27.7136364,
                "end_time": 27.8840909,
                "pitch": 79,
                "velocity": 51,
                "duration": 0.1704545,
                "tempo": 120.0
            },
            {
                "start_time": 27.9181818,
                "end_time": 28.0840909,
                "pitch": 76,
                "velocity": 51,
                "duration": 0.1659091,
                "tempo": 120.0
            },
            {
                "start_time": 28.1181818,
                "end_time": 28.1840909,
                "pitch": 79,
                "velocity": 51,
                "duration": 0.0659091,
                "tempo": 120.0
            },
            {
                "start_time": 28.2181818,
                "end_time": 28.2840909,
                "pitch": 76,
                "velocity": 51,
                "duration": 0.0659091,
                "tempo": 120.0
            },
            {
                "start_time": 28.3181818,
                "end_time": 28.4863636,
                "pitch": 72,
                "velocity": 51,
                "duration": 0.1681818,
                "tempo": 120.0
            },
            {
                "start_time": 28.5204545,
                "end_time": 28.6863636,
                "pitch": 76,
                "velocity": 51,
                "duration": 0.1659091,
                "tempo": 120.0
            },
            {
                "start_time": 28.7204545,
                "end_time": 28.8840909,
                "pitch": 79,
                "velocity": 51,
                "duration": 0.1636364,
                "tempo": 120.0
            },
            {
                "start_time": 28.9159091,
                "end_time": 28.9818182,
                "pitch": 84,
                "velocity": 51,
                "duration": 0.0659091,
                "tempo": 120.0
            },
            {
                "start_time": 29.0136364,
                "end_time": 29.0795455,
                "pitch": 81,
                "velocity": 51,
                "duration": 0.0659091,
                "tempo": 120.0
            },
            {
                "start_time": 29.1136364,
                "end_time": 29.2840909,
                "pitch": 77,
                "velocity": 51,
                "duration": 0.1704545,
                "tempo": 120.0
            },
            {
                "start_time": 29.3181818,
                "end_time": 29.4909091,
                "pitch": 84,
                "velocity": 51,
                "duration": 0.1727273,
                "tempo": 120.0
            },
            {
                "start_time": 29.5227273,
                "end_time": 29.6863636,
                "pitch": 81,
                "velocity": 51,
                "duration": 0.1636364,
                "tempo": 120.0
            },
            {
                "start_time": 29.7181818,
                "end_time": 29.7840909,
                "pitch": 84,
                "velocity": 51,
                "duration": 0.0659091,
                "tempo": 120.0
            },
            {
                "start_time": 29.8159091,
                "end_time": 29.8818182,
                "pitch": 81,
                "velocity": 51,
                "duration": 0.0659091,
                "tempo": 120.0
            },
            {
                "start_time": 29.9159091,
                "end_time": 30.0863636,
                "pitch": 77,
                "velocity": 51,
                "duration": 0.1704545,
                "tempo": 120.0
            },
            {
                "start_time": 30.1227273,
                "end_time": 30.2931818,
                "pitch": 81,
                "velocity": 51,
                "duration": 0.1704545,
                "tempo": 120.0
            },
            {
                "start_time": 30.325,
                "end_time": 30.4886364,
                "pitch": 84,
                "velocity": 51,
                "duration": 0.1636364,
                "tempo": 120.0
            },
            {
                "start_time": 30.5204545,
                "end_time": 30.6840909,
                "pitch": 86,
                "velocity": 51,
                "duration": 0.1636364,
                "tempo": 120.0
            },
            {
                "start_time": 30.7181818,
                "end_time": 30.8909091,
                "pitch": 83,
                "velocity": 51,
                "duration": 0.1727273,
                "tempo": 120.0
            },
            {
                "start_time": 30.925,
                "end_time": 31.0954545,
                "pitch": 79,
                "velocity": 51,
                "duration": 0.1704545,
                "tempo": 120.0
            },
            {
                "start_time": 31.1272727,
                "end_time": 31.2909091,
                "pitch": 83,
                "velocity": 51,
                "duration": 0.1636364,
                "tempo": 120.0
            },
            {
                "start_time": 31.325,
                "end_time": 31.4886364,
                "pitch": 89,
                "velocity": 51,
                "duration": 0.1636364,
                "tempo": 120.0
            },
            {
                "start_time": 31.5204545,
                "end_time": 31.6931818,
                "pitch": 88,
                "velocity": 51,
                "duration": 0.1727273,
                "tempo": 120.0
            },
            {
                "start_time": 31.7272727,
                "end_time": 31.8977273,
                "pitch": 86,
                "velocity": 51,
                "duration": 0.1704545,
                "tempo": 120.0
            },
            {
                "start_time": 31.9318182,
                "end_time": 32.0977273,
                "pitch": 83,
                "velocity": 51,
                "duration": 0.1659091,
                "tempo": 120.0
            },
            {
                "start_time": 32.1318182,
                "end_time": 32.1977273,
                "pitch": 81,
                "velocity": 51,
                "duration": 0.0659091,
                "tempo": 120.0
            },
            {
                "start_time": 32.2318182,
                "end_time": 32.2977273,
                "pitch": 77,
                "velocity": 51,
                "duration": 0.0659091,
                "tempo": 120.0
            },
            {
                "start_time": 32.3318182,
                "end_time": 32.4954545,
                "pitch": 74,
                "velocity": 51,
                "duration": 0.1636364,
                "tempo": 120.0
            },
            {
                "start_time": 32.5272727,
                "end_time": 32.6909091,
                "pitch": 81,
                "velocity": 51,
                "duration": 0.1636364,
                "tempo": 120.0
            },
            {
                "start_time": 32.725,
                "end_time": 32.8909091,
                "pitch": 77,
                "velocity": 51,
                "duration": 0.1659091,
                "tempo": 120.0
            },
            {
                "start_time": 32.925,
                "end_time": 32.9909091,
                "pitch": 81,
                "velocity": 51,
                "duration": 0.0659091,
                "tempo": 120.0
            },
            {
                "start_time": 33.025,
                "end_time": 33.0909091,
                "pitch": 77,
                "velocity": 51,
                "duration": 0.0659091,
                "tempo": 120.0
            },
            {
                "start_time": 33.125,
                "end_time": 33.2909091,
                "pitch": 74,
                "velocity": 51,
                "duration": 0.1659091,
                "tempo": 120.0
            },
            {
                "start_time": 33.325,
                "end_time": 33.4909091,
                "pitch": 81,
                "velocity": 51,
                "duration": 0.1659091,
                "tempo": 120.0
            },
            {
                "start_time": 33.525,
                "end_time": 33.6909091,
                "pitch": 77,
                "velocity": 51,
                "duration": 0.1659091,
                "tempo": 120.0
            },
            {
                "start_time": 33.725,
                "end_time": 33.7931818,
                "pitch": 79,
                "velocity": 51,
                "duration": 0.0681818,
                "tempo": 120.0
            },
            {
                "start_time": 33.8272727,
                "end_time": 33.8931818,
                "pitch": 76,
                "velocity": 51,
                "duration": 0.0659091,
                "tempo": 120.0
            },
            {
                "start_time": 33.9272727,
                "end_time": 34.0931818,
                "pitch": 72,
                "velocity": 51,
                "duration": 0.1659091,
                "tempo": 120.0
            },
            {
                "start_time": 34.1272727,
                "end_time": 34.2931818,
                "pitch": 79,
                "velocity": 51,
                "duration": 0.1659091,
                "tempo": 120.0
            },
            {
                "start_time": 34.3272727,
                "end_time": 34.4931818,
                "pitch": 76,
                "velocity": 51,
                "duration": 0.1659091,
                "tempo": 120.0
            },
            {
                "start_time": 34.5272727,
                "end_time": 34.5931818,
                "pitch": 79,
                "velocity": 51,
                "duration": 0.0659091,
                "tempo": 120.0
            },
            {
                "start_time": 34.6272727,
                "end_time": 34.6931818,
                "pitch": 76,
                "velocity": 51,
                "duration": 0.0659091,
                "tempo": 120.0
            },
            {
                "start_time": 34.7272727,
                "end_time": 34.8977273,
                "pitch": 72,
                "velocity": 51,
                "duration": 0.1704545,
                "tempo": 120.0
            },
            {
                "start_time": 34.9318182,
                "end_time": 35.1045455,
                "pitch": 76,
                "velocity": 51,
                "duration": 0.1727273,
                "tempo": 120.0
            },
            {
                "start_time": 35.1363636,
                "end_time": 35.3,
                "pitch": 79,
                "velocity": 51,
                "duration": 0.1636364,
                "tempo": 120.0
            },
            {
                "start_time": 35.3318182,
                "end_time": 35.3977273,
                "pitch": 84,
                "velocity": 51,
                "duration": 0.0659091,
                "tempo": 120.0
            },
            {
                "start_time": 35.4295455,
                "end_time": 35.4954545,
                "pitch": 81,
                "velocity": 51,
                "duration": 0.0659091,
                "tempo": 120.0
            },
            {
                "start_time": 35.5295455,
                "end_time": 35.6977273,
                "pitch": 77,
                "velocity": 51,
                "duration": 0.1681818,
                "tempo": 120.0
            },
            {
                "start_time": 35.7318182,
                "end_time": 35.8977273,
                "pitch": 81,
                "velocity": 51,
                "duration": 0.1659091,
                "tempo": 120.0
            },
            {
                "start_time": 35.9318182,
                "end_time": 36.0977273,
                "pitch": 84,
                "velocity": 51,
                "duration": 0.1659091,
                "tempo": 120.0
            },
            {
                "start_time": 36.1318182,
                "end_time": 36.1977273,
                "pitch": 84,
                "velocity": 51,
                "duration": 0.0659091,
                "tempo": 120.0
            },
            {
                "start_time": 36.2318182,
                "end_time": 36.2977273,
                "pitch": 81,
                "velocity": 51,
                "duration": 0.0659091,
                "tempo": 120.0
            },
            {
                "start_time": 36.3318182,
                "end_time": 36.4977273,
                "pitch": 77,
                "velocity": 51,
                "duration": 0.1659091,
                "tempo": 120.0
            },
            {
                "start_time": 36.5318182,
                "end_time": 36.6977273,
                "pitch": 84,
                "velocity": 51,
                "duration": 0.1659091,
                "tempo": 120.0
            },
            {
                "start_time": 36.7318182,
                "end_time": 36.8977273,
                "pitch": 81,
                "velocity": 51,
                "duration": 0.1659091,
                "tempo": 120.0
            },
            {
                "start_time": 36.9318182,
                "end_time": 37.0977273,
                "pitch": 88,
                "velocity": 51,
                "duration": 0.1659091,
                "tempo": 120.0
            },
            {
                "start_time": 37.1318182,
                "end_time": 37.2977273,
                "pitch": 86,
                "velocity": 51,
                "duration": 0.1659091,
                "tempo": 120.0
            },
            {
                "start_time": 37.3318182,
                "end_time": 37.4977273,
                "pitch": 84,
                "velocity": 51,
                "duration": 0.1659091,
                "tempo": 120.0
            },
            {
                "start_time": 37.5318182,
                "end_time": 38.5590909,
                "pitch": 69,
                "velocity": 51,
                "duration": 1.0272727,
                "tempo": 120.0
            },
            {
                "start_time": 38.5590909,
                "end_time": 39.1022727,
                "pitch": 79,
                "velocity": 51,
                "duration": 0.5431818,
                "tempo": 120.0
            },
            {
                "start_time": 39.1340909,
                "end_time": 39.3022727,
                "pitch": 79,
                "velocity": 51,
                "duration": 0.1681818,
                "tempo": 120.0
            },
            {
                "start_time": 39.3340909,
                "end_time": 39.7022727,
                "pitch": 76,
                "velocity": 51,
                "duration": 0.3681818,
                "tempo": 120.0
            },
            {
                "start_time": 39.7363636,
                "end_time": 40.1045455,
                "pitch": 72,
                "velocity": 51,
                "duration": 0.3681818,
                "tempo": 120.0
            },
            {
                "start_time": 40.1386364,
                "end_time": 40.7045455,
                "pitch": 76,
                "velocity": 51,
                "duration": 0.5659091,
                "tempo": 120.0
            },
            {
                "start_time": 40.7386364,
                "end_time": 40.9045455,
                "pitch": 72,
                "velocity": 51,
                "duration": 0.1659091,
                "tempo": 120.0
            },
            {
                "start_time": 40.9386364,
                "end_time": 41.2204545,
                "pitch": 72,
                "velocity": 51,
                "duration": 0.2818182,
                "tempo": 120.0
            },
            {
                "start_time": 41.6886364,
                "end_time": 42.2568182,
                "pitch": 84,
                "velocity": 51,
                "duration": 0.5681818,
                "tempo": 120.0
            },
            {
                "start_time": 42.2909091,
                "end_time": 42.5136364,
                "pitch": 84,
                "velocity": 51,
                "duration": 0.2227273,
                "tempo": 120.0
            },
            {
                "start_time": 42.5477273,
                "end_time": 42.9136364,
                "pitch": 81,
                "velocity": 51,
                "duration": 0.3659091,
                "tempo": 120.0
            },
            {
                "start_time": 42.9477273,
                "end_time": 43.3090909,
                "pitch": 83,
                "velocity": 51,
                "duration": 0.3613636,
                "tempo": 120.0
            },
            {
                "start_time": 43.3431818,
                "end_time": 43.7159091,
                "pitch": 79,
                "velocity": 51,
                "duration": 0.3727273,
                "tempo": 120.0
            }
        ],
        "Acoustic Guitar (nylon)": [
            {
                "start_time": 12.8636364,
                "end_time": 24.7159091,
                "pitch": 79,
                "velocity": 51,
                "duration": 11.8522727,
                "tempo": 120.0
            },
            {
                "start_time": 24.7159091,
                "end_time": 24.7318182,
                "pitch": 67,
                "velocity": 51,
                "duration": 0.0159091,
                "tempo": 120.0
            },
            {
                "start_time": 24.7318182,
                "end_time": 24.7818182,
                "pitch": 66,
                "velocity": 51,
                "duration": 0.05,
                "tempo": 120.0
            },
            {
                "start_time": 24.7818182,
                "end_time": 24.7977273,
                "pitch": 63,
                "velocity": 51,
                "duration": 0.0159091,
                "tempo": 120.0
            },
            {
                "start_time": 24.7977273,
                "end_time": 24.8318182,
                "pitch": 69,
                "velocity": 51,
                "duration": 0.0340909,
                "tempo": 120.0
            },
            {
                "start_time": 24.8318182,
                "end_time": 24.8659091,
                "pitch": 66,
                "velocity": 51,
                "duration": 0.0340909,
                "tempo": 120.0
            },
            {
                "start_time": 24.8659091,
                "end_time": 24.8977273,
                "pitch": 63,
                "velocity": 51,
                "duration": 0.0318182,
                "tempo": 120.0
            },
            {
                "start_time": 24.8977273,
                "end_time": 24.9659091,
                "pitch": 66,
                "velocity": 51,
                "duration": 0.0681818,
                "tempo": 120.0
            },
            {
                "start_time": 24.9659091,
                "end_time": 25.0159091,
                "pitch": 64,
                "velocity": 51,
                "duration": 0.05,
                "tempo": 120.0
            },
            {
                "start_time": 25.0159091,
                "end_time": 25.0818182,
                "pitch": 61,
                "velocity": 51,
                "duration": 0.0659091,
                "tempo": 120.0
            },
            {
                "start_time": 25.0818182,
                "end_time": 25.0977273,
                "pitch": 58,
                "velocity": 51,
                "duration": 0.0159091,
                "tempo": 120.0
            },
            {
                "start_time": 25.0977273,
                "end_time": 25.1636364,
                "pitch": 66,
                "velocity": 51,
                "duration": 0.0659091,
                "tempo": 120.0
            },
            {
                "start_time": 25.1636364,
                "end_time": 25.2113636,
                "pitch": 64,
                "velocity": 51,
                "duration": 0.0477273,
                "tempo": 120.0
            },
            {
                "start_time": 25.2113636,
                "end_time": 25.2613636,
                "pitch": 61,
                "velocity": 51,
                "duration": 0.05,
                "tempo": 120.0
            },
            {
                "start_time": 25.2613636,
                "end_time": 25.2772727,
                "pitch": 58,
                "velocity": 51,
                "duration": 0.0159091,
                "tempo": 120.0
            },
            {
                "start_time": 25.2772727,
                "end_time": 25.3590909,
                "pitch": 64,
                "velocity": 51,
                "duration": 0.0818182,
                "tempo": 120.0
            },
            {
                "start_time": 25.3590909,
                "end_time": 25.425,
                "pitch": 62,
                "velocity": 51,
                "duration": 0.0659091,
                "tempo": 120.0
            },
            {
                "start_time": 25.425,
                "end_time": 25.4909091,
                "pitch": 60,
                "velocity": 51,
                "duration": 0.0659091,
                "tempo": 120.0
            },
            {
                "start_time": 25.4909091,
                "end_time": 25.5795455,
                "pitch": 64,
                "velocity": 51,
                "duration": 0.0886364,
                "tempo": 120.0
            },
            {
                "start_time": 25.5795455,
                "end_time": 25.65,
                "pitch": 62,
                "velocity": 51,
                "duration": 0.0704545,
                "tempo": 120.0
            },
            {
                "start_time": 25.65,
                "end_time": 25.6863636,
                "pitch": 59,
                "velocity": 51,
                "duration": 0.0363636,
                "tempo": 120.0
            },
            {
                "start_time": 25.7022727,
                "end_time": 37.55,
                "pitch": 81,
                "velocity": 51,
                "duration": 11.8477273,
                "tempo": 120.0
            },
            {
                "start_time": 37.55,
                "end_time": 37.5681818,
                "pitch": 67,
                "velocity": 51,
                "duration": 0.0181818,
                "tempo": 120.0
            },
            {
                "start_time": 37.5681818,
                "end_time": 37.6181818,
                "pitch": 66,
                "velocity": 51,
                "duration": 0.05,
                "tempo": 120.0
            },
            {
                "start_time": 37.6181818,
                "end_time": 37.6363636,
                "pitch": 63,
                "velocity": 51,
                "duration": 0.0181818,
                "tempo": 120.0
            },
            {
                "start_time": 37.6363636,
                "end_time": 37.6704545,
                "pitch": 69,
                "velocity": 51,
                "duration": 0.0340909,
                "tempo": 120.0
            },
            {
                "start_time": 37.6704545,
                "end_time": 37.7045455,
                "pitch": 66,
                "velocity": 51,
                "duration": 0.0340909,
                "tempo": 120.0
            },
            {
                "start_time": 37.7045455,
                "end_time": 37.7204545,
                "pitch": 63,
                "velocity": 51,
                "duration": 0.0159091,
                "tempo": 120.0
            },
            {
                "start_time": 37.7204545,
                "end_time": 37.7386364,
                "pitch": 67,
                "velocity": 51,
                "duration": 0.0181818,
                "tempo": 120.0
            },
            {
                "start_time": 37.7386364,
                "end_time": 37.8068182,
                "pitch": 66,
                "velocity": 51,
                "duration": 0.0681818,
                "tempo": 120.0
            },
            {
                "start_time": 37.8068182,
                "end_time": 37.8590909,
                "pitch": 64,
                "velocity": 51,
                "duration": 0.0522727,
                "tempo": 120.0
            },
            {
                "start_time": 37.8590909,
                "end_time": 37.9272727,
                "pitch": 61,
                "velocity": 51,
                "duration": 0.0681818,
                "tempo": 120.0
            },
            {
                "start_time": 37.9272727,
                "end_time": 37.9431818,
                "pitch": 58,
                "velocity": 51,
                "duration": 0.0159091,
                "tempo": 120.0
            },
            {
                "start_time": 37.9431818,
                "end_time": 38.0090909,
                "pitch": 66,
                "velocity": 51,
                "duration": 0.0659091,
                "tempo": 120.0
            },
            {
                "start_time": 38.0090909,
                "end_time": 38.0590909,
                "pitch": 64,
                "velocity": 51,
                "duration": 0.05,
                "tempo": 120.0
            },
            {
                "start_time": 38.0590909,
                "end_time": 38.1272727,
                "pitch": 61,
                "velocity": 51,
                "duration": 0.0681818,
                "tempo": 120.0
            },
            {
                "start_time": 38.1272727,
                "end_time": 38.2090909,
                "pitch": 64,
                "velocity": 51,
                "duration": 0.0818182,
                "tempo": 120.0
            },
            {
                "start_time": 38.2090909,
                "end_time": 38.2772727,
                "pitch": 62,
                "velocity": 51,
                "duration": 0.0681818,
                "tempo": 120.0
            },
            {
                "start_time": 38.2772727,
                "end_time": 38.3431818,
                "pitch": 60,
                "velocity": 51,
                "duration": 0.0659091,
                "tempo": 120.0
            },
            {
                "start_time": 38.3431818,
                "end_time": 38.4272727,
                "pitch": 64,
                "velocity": 51,
                "duration": 0.0840909,
                "tempo": 120.0
            },
            {
                "start_time": 38.4272727,
                "end_time": 38.4931818,
                "pitch": 62,
                "velocity": 51,
                "duration": 0.0659091,
                "tempo": 120.0
            },
            {
                "start_time": 38.4931818,
                "end_time": 38.5272727,
                "pitch": 59,
                "velocity": 51,
                "duration": 0.0340909,
                "tempo": 120.0
            },
            {
                "start_time": 38.5431818,
                "end_time": 43.7659091,
                "pitch": 79,
                "velocity": 51,
                "duration": 5.2227273,
                "tempo": 120.0
            },
            {
                "start_time": 43.7659091,
                "end_time": 43.7840909,
                "pitch": 67,
                "velocity": 51,
                "duration": 0.0181818,
                "tempo": 120.0
            },
            {
                "start_time": 43.7840909,
                "end_time": 43.8363636,
                "pitch": 66,
                "velocity": 51,
                "duration": 0.0522727,
                "tempo": 120.0
            },
            {
                "start_time": 43.8363636,
                "end_time": 43.8522727,
                "pitch": 63,
                "velocity": 51,
                "duration": 0.0159091,
                "tempo": 120.0
            },
            {
                "start_time": 43.8522727,
                "end_time": 43.8863636,
                "pitch": 69,
                "velocity": 51,
                "duration": 0.0340909,
                "tempo": 120.0
            },
            {
                "start_time": 43.8863636,
                "end_time": 43.9386364,
                "pitch": 66,
                "velocity": 51,
                "duration": 0.0522727,
                "tempo": 120.0
            },
            {
                "start_time": 43.9386364,
                "end_time": 43.9545455,
                "pitch": 63,
                "velocity": 51,
                "duration": 0.0159091,
                "tempo": 120.0
            },
            {
                "start_time": 43.9545455,
                "end_time": 44.0204545,
                "pitch": 69,
                "velocity": 51,
                "duration": 0.0659091,
                "tempo": 120.0
            },
            {
                "start_time": 44.0204545,
                "end_time": 44.0386364,
                "pitch": 67,
                "velocity": 51,
                "duration": 0.0181818,
                "tempo": 120.0
            },
            {
                "start_time": 44.0386364,
                "end_time": 44.0886364,
                "pitch": 67,
                "velocity": 51,
                "duration": 0.05,
                "tempo": 120.0
            },
            {
                "start_time": 44.0886364,
                "end_time": 44.1386364,
                "pitch": 64,
                "velocity": 51,
                "duration": 0.05,
                "tempo": 120.0
            },
            {
                "start_time": 44.1386364,
                "end_time": 44.1545455,
                "pitch": 67,
                "velocity": 51,
                "duration": 0.0159091,
                "tempo": 120.0
            },
            {
                "start_time": 44.1545455,
                "end_time": 44.1886364,
                "pitch": 66,
                "velocity": 51,
                "duration": 0.0340909,
                "tempo": 120.0
            },
            {
                "start_time": 44.1886364,
                "end_time": 44.2386364,
                "pitch": 62,
                "velocity": 51,
                "duration": 0.05,
                "tempo": 120.0
            },
            {
                "start_time": 44.2386364,
                "end_time": 44.2545455,
                "pitch": 58,
                "velocity": 51,
                "duration": 0.0159091,
                "tempo": 120.0
            },
            {
                "start_time": 44.2545455,
                "end_time": 44.2886364,
                "pitch": 66,
                "velocity": 51,
                "duration": 0.0340909,
                "tempo": 120.0
            },
            {
                "start_time": 44.2886364,
                "end_time": 44.3363636,
                "pitch": 62,
                "velocity": 51,
                "duration": 0.0477273,
                "tempo": 120.0
            },
            {
                "start_time": 44.3363636,
                "end_time": 44.3545455,
                "pitch": 58,
                "velocity": 51,
                "duration": 0.0181818,
                "tempo": 120.0
            },
            {
                "start_time": 44.3545455,
                "end_time": 44.4181818,
                "pitch": 66,
                "velocity": 51,
                "duration": 0.0636364,
                "tempo": 120.0
            },
            {
                "start_time": 44.4181818,
                "end_time": 44.4681818,
                "pitch": 64,
                "velocity": 51,
                "duration": 0.05,
                "tempo": 120.0
            },
            {
                "start_time": 44.4681818,
                "end_time": 44.5340909,
                "pitch": 61,
                "velocity": 51,
                "duration": 0.0659091,
                "tempo": 120.0
            },
            {
                "start_time": 44.5340909,
                "end_time": 44.55,
                "pitch": 58,
                "velocity": 51,
                "duration": 0.0159091,
                "tempo": 120.0
            },
            {
                "start_time": 44.55,
                "end_time": 44.5977273,
                "pitch": 63,
                "velocity": 51,
                "duration": 0.0477273,
                "tempo": 120.0
            },
            {
                "start_time": 44.5977273,
                "end_time": 44.6477273,
                "pitch": 60,
                "velocity": 51,
                "duration": 0.05,
                "tempo": 120.0
            },
            {
                "start_time": 44.6477273,
                "end_time": 44.6977273,
                "pitch": 63,
                "velocity": 51,
                "duration": 0.05,
                "tempo": 120.0
            },
            {
                "start_time": 44.6977273,
                "end_time": 44.7454545,
                "pitch": 60,
                "velocity": 51,
                "duration": 0.0477273,
                "tempo": 120.0
            },
            {
                "start_time": 44.7454545,
                "end_time": 44.8272727,
                "pitch": 64,
                "velocity": 51,
                "duration": 0.0818182,
                "tempo": 120.0
            },
            {
                "start_time": 44.8272727,
                "end_time": 44.8931818,
                "pitch": 62,
                "velocity": 51,
                "duration": 0.0659091,
                "tempo": 120.0
            },
            {
                "start_time": 44.8931818,
                "end_time": 44.925,
                "pitch": 59,
                "velocity": 51,
                "duration": 0.0318182,
                "tempo": 120.0
            }
        ]
    }
}