{
    "mood": "happy",
    "instruments": {
        "Oboe": [
            {
                "start_time": 51.0068182,
                "end_time": 51.2454545,
                "pitch": 62,
                "velocity": 64,
                "duration": 0.2386364,
                "tempo": 120.0
            },
            {
                "start_time": 51.2772727,
                "end_time": 51.5113636,
                "pitch": 64,
                "velocity": 64,
                "duration": 0.2340909,
                "tempo": 120.0
            },
            {
                "start_time": 51.5454545,
                "end_time": 52.45,
                "pitch": 66,
                "velocity": 64,
                "duration": 0.9045455,
                "tempo": 120.0
            },
            {
                "start_time": 52.4840909,
                "end_time": 52.5840909,
                "pitch": 61,
                "velocity": 64,
                "duration": 0.1,
                "tempo": 120.0
            },
            {
                "start_time": 52.6181818,
                "end_time": 52.8568182,
                "pitch": 66,
                "velocity": 64,
                "duration": 0.2386364,
                "tempo": 120.0
            },
            {
                "start_time": 52.8909091,
                "end_time": 53.125,
                "pitch": 64,
                "velocity": 64,
                "duration": 0.2340909,
                "tempo": 120.0
            },
            {
                "start_time": 53.1590909,
                "end_time": 53.3909091,
                "pitch": 62,
                "velocity": 64,
                "duration": 0.2318182,
                "tempo": 120.0
            },
            {
                "start_time": 53.425,
                "end_time": 53.6636364,
                "pitch": 61,
                "velocity": 64,
                "duration": 0.2386364,
                "tempo": 120.0
            },
            {
                "start_time": 53.6977273,
                "end_time": 54.4704545,
                "pitch": 62,
                "velocity": 64,
                "duration": 0.7727273,
                "tempo": 120.0
            },
            {
                "start_time": 54.5045455,
                "end_time": 55.0045455,
                "pitch": 59,
                "velocity": 64,
                "duration": 0.5,
                "tempo": 120.0
            },
            {
                "start_time": 55.1704545,
                "end_time": 55.2727273,
                "pitch": 59,
                "velocity": 64,
                "duration": 0.1022727,
                "tempo": 120.0
            },
            {
                "start_time": 55.3045455,
                "end_time": 55.5386364,
                "pitch": 61,
                "velocity": 64,
                "duration": 0.2340909,
                "tempo": 120.0
            },
            {
                "start_time": 55.5727273,
                "end_time": 55.8113636,
                "pitch": 62,
                "velocity": 64,
                "duration": 0.2386364,
                "tempo": 120.0
            },
            {
                "start_time": 55.8454545,
                "end_time": 56.6181818,
                "pitch": 64,
                "velocity": 64,
                "duration": 0.7727273,
                "tempo": 120.0
            },
            {
                "start_time": 56.65,
                "end_time": 56.8840909,
                "pitch": 59,
                "velocity": 64,
                "duration": 0.2340909,
                "tempo": 120.0
            },
            {
                "start_time": 56.9181818,
                "end_time": 57.1522727,
                "pitch": 64,
                "velocity": 64,
                "duration": 0.2340909,
                "tempo": 120.0
            },
            {
                "start_time": 57.1863636,
                "end_time": 57.4227273,
                "pitch": 62,
                "velocity": 64,
                "duration": 0.2363636,
                "tempo": 120.0
            },
            {
                "start_time": 57.4568182,
                "end_time": 57.6954545,
                "pitch": 61,
                "velocity": 64,
                "duration": 0.2386364,
                "tempo": 120.0
            },
            {
                "start_time": 57.7295455,
                "end_time": 57.9636364,
                "pitch": 59,
                "velocity": 64,
                "duration": 0.2340909,
                "tempo": 120.0
            },
            {
                "start_time": 57.9954545,
                "end_time": 58.7636364,
                "pitch": 61,
                "velocity": 64,
                "duration": 0.7681818,
                "tempo": 120.0
            },
            {
                "start_time": 58.7977273,
                "end_time": 59.0363636,
                "pitch": 62,
                "velocity": 64,
                "duration": 0.2386364,
                "tempo": 120.0
            },
            {
                "start_time": 59.0704545,
                "end_time": 59.7090909,
                "pitch": 64,
                "velocity": 64,
                "duration": 0.6386364,
                "tempo": 120.0
            },
            {
                "start_time": 59.7431818,
                "end_time": 59.8431818,
                "pitch": 61,
                "velocity": 64,
                "duration": 0.1,
                "tempo": 120.0
            },
            {
                "start_time": 59.8772727,
                "end_time": 59.9772727,
                "pitch": 62,
                "velocity": 64,
                "duration": 0.1,
                "tempo": 120.0
            },
            {
                "start_time": 60.0113636,
                "end_time": 60.1136364,
                "pitch": 64,
                "velocity": 64,
                "duration": 0.1022727,
                "tempo": 120.0
            },
            {
                "start_time": 60.1477273,
                "end_time": 61.0545455,
                "pitch": 66,
                "velocity": 64,
                "duration": 0.9068182,
                "tempo": 120.0
            },
            {
                "start_time": 61.0886364,
                "end_time": 61.1886364,
                "pitch": 61,
                "velocity": 64,
                "duration": 0.1,
                "tempo": 120.0
            },
            {
                "start_time": 61.2227273,
                "end_time": 61.4545455,
                "pitch": 66,
                "velocity": 64,
                "duration": 0.2318182,
                "tempo": 120.0
            },
            {
                "start_time": 61.4886364,
                "end_time": 61.7272727,
                "pitch": 64,
                "velocity": 64,
                "duration": 0.2386364,
                "tempo": 120.0
            },
            {
                "start_time": 61.7613636,
                "end_time": 62.0,
                "pitch": 62,
                "velocity": 64,
                "duration": 0.2386364,
                "tempo": 120.0
            },
            {
                "start_time": 62.0318182,
                "end_time": 62.2659091,
                "pitch": 61,
                "velocity": 64,
                "duration": 0.2340909,
                "tempo": 120.0
            },
            {
                "start_time": 62.3,
                "end_time": 63.0681818,
                "pitch": 62,
                "velocity": 64,
                "duration": 0.7681818,
                "tempo": 120.0
            },
            {
                "start_time": 63.1022727,
                "end_time": 63.6022727,
                "pitch": 59,
                "velocity": 64,
                "duration": 0.5,
                "tempo": 120.0
            },
            {
                "start_time": 63.7727273,
                "end_time": 63.875,
                "pitch": 59,
                "velocity": 64,
                "duration": 0.1022727,
                "tempo": 120.0
            },
            {
                "start_time": 63.9090909,
                "end_time": 64.1454545,
                "pitch": 61,
                "velocity": 64,
                "duration": 0.2363636,
                "tempo": 120.0
            },
            {
                "start_time": 64.1795455,
                "end_time": 64.4136364,
                "pitch": 62,
                "velocity": 64,
                "duration": 0.2340909,
                "tempo": 120.0
            },
            {
                "start_time": 64.4477273,
                "end_time": 65.2159091,
                "pitch": 64,
                "velocity": 64,
                "duration": 0.7681818,
                "tempo": 120.0
            },
            {
                "start_time": 65.2477273,
                "end_time": 65.4863636,
                "pitch": 59,
                "velocity": 64,
                "duration": 0.2386364,
                "tempo": 120.0
            },
            {
                "start_time": 65.5204545,
                "end_time": 65.7590909,
                "pitch": 64,
                "velocity": 64,
                "duration": 0.2386364,
                "tempo": 120.0
            },
            {
                "start_time": 65.7931818,
                "end_time": 66.0272727,
                "pitch": 59,
                "velocity": 64,
                "duration": 0.2340909,
                "tempo": 120.0
            },
            {
                "start_time": 66.0590909,
                "end_time": 66.2931818,
                "pitch": 66,
                "velocity": 64,
                "duration": 0.2340909,
                "tempo": 120.0
            },
            {
                "start_time": 66.3272727,
                "end_time": 67.6386364,
                "pitch": 64,
                "velocity": 64,
                "duration": 1.3113636,
                "tempo": 120.0
            }
        ],
        "Acoustic Bass": [
            {
                "start_time": 3.2977273,
                "end_time": 3.3977273,
                "pitch": 45,
                "velocity": 51,
                "duration": 0.1,
                "tempo": 120.0
            },
            {
                "start_time": 3.5636364,
                "end_time": 3.6636364,
                "pitch": 45,
                "velocity": 51,
                "duration": 0.1,
                "tempo": 120.0
            },
            {
                "start_time": 3.8318182,
                "end_time": 3.9318182,
                "pitch": 45,
                "velocity": 51,
                "duration": 0.1,
                "tempo": 120.0
            },
            {
                "start_time": 3.9659091,
                "end_time": 4.0659091,
                "pitch": 45,
                "velocity": 51,
                "duration": 0.1,
                "tempo": 120.0
            },
            {
                "start_time": 7.725,
                "end_time": 7.8272727,
                "pitch": 29,
                "velocity": 51,
                "duration": 0.1022727,
                "tempo": 120.0
            },
            {
                "start_time": 7.9977273,
                "end_time": 8.1,
                "pitch": 29,
                "velocity": 51,
                "duration": 0.1022727,
                "tempo": 120.0
            },
            {
                "start_time": 8.2681818,
                "end_time": 8.3681818,
                "pitch": 31,
                "velocity": 51,
                "duration": 0.1,
                "tempo": 120.0
            },
            {
                "start_time": 8.4022727,
                "end_time": 8.5022727,
                "pitch": 33,
                "velocity": 51,
                "duration": 0.1,
                "tempo": 120.0
            },
            {
                "start_time": 11.8954545,
                "end_time": 11.9954545,
                "pitch": 45,
                "velocity": 51,
                "duration": 0.1,
                "tempo": 120.0
            },
            {
                "start_time": 12.1613636,
                "end_time": 12.2636364,
                "pitch": 45,
                "velocity": 51,
                "duration": 0.1022727,
                "tempo": 120.0
            },
            {
                "start_time": 12.4295455,
                "end_time": 12.5295455,
                "pitch": 45,
                "velocity": 51,
                "duration": 0.1,
                "tempo": 120.0
            },
            {
                "start_time": 12.5636364,
                "end_time": 12.6659091,
                "pitch": 45,
                "velocity": 51,
                "duration": 0.1022727,
                "tempo": 120.0
            },
            {
                "start_time": 15.2545455,
                "end_time": 15.7545455,
                "pitch": 38,
                "velocity": 51,
                "duration": 0.5,
                "tempo": 120.0
            },
            {
                "start_time": 15.7886364,
                "end_time": 16.0272727,
                "pitch": 38,
                "velocity": 51,
                "duration": 0.2386364,
                "tempo": 120.0
            },
            {
                "start_time": 16.0613636,
                "end_time": 16.2977273,
                "pitch": 40,
                "velocity": 51,
                "duration": 0.2363636,
                "tempo": 120.0
            },
            {
                "start_time": 17.1340909,
                "end_time": 17.6454545,
                "pitch": 38,
                "velocity": 51,
                "duration": 0.5113636,
                "tempo": 120.0
            },
            {
                "start_time": 17.6772727,
                "end_time": 18.0454545,
                "pitch": 38,
                "velocity": 51,
                "duration": 0.3681818,
                "tempo": 120.0
            },
            {
                "start_time": 18.0795455,
                "end_time": 18.1795455,
                "pitch": 33,
                "velocity": 51,
                "duration": 0.1,
                "tempo": 120.0
            },
            {
                "start_time": 18.2136364,
                "end_time": 18.4454545,
                "pitch": 38,
                "velocity": 51,
                "duration": 0.2318182,
                "tempo": 120.0
            },
            {
                "start_time": 18.4795455,
                "end_time": 18.7181818,
                "pitch": 33,
                "velocity": 51,
                "duration": 0.2386364,
                "tempo": 120.0
            },
            {
                "start_time": 18.7522727,
                "end_time": 18.9909091,
                "pitch": 38,
                "velocity": 51,
                "duration": 0.2386364,
                "tempo": 120.0
            },
            {
                "start_time": 19.0227273,
                "end_time": 19.2568182,
                "pitch": 33,
                "velocity": 51,
                "duration": 0.2340909,
                "tempo": 120.0
            },
            {
                "start_time": 19.2909091,
                "end_time": 19.7909091,
                "pitch": 33,
                "velocity": 51,
                "duration": 0.5,
                "tempo": 120.0
            },
            {
                "start_time": 19.825,
                "end_time": 20.3295455,
                "pitch": 28,
                "velocity": 51,
                "duration": 0.5045455,
                "tempo": 120.0
            },
            {
                "start_time": 20.3636364,
                "end_time": 20.6022727,
                "pitch": 33,
                "velocity": 51,
                "duration": 0.2386364,
                "tempo": 120.0
            },
            {
                "start_time": 20.6363636,
                "end_time": 20.8704545,
                "pitch": 28,
                "velocity": 51,
                "duration": 0.2340909,
                "tempo": 120.0
            },
            {
                "start_time": 20.9045455,
                "end_time": 21.1363636,
                "pitch": 33,
                "velocity": 51,
                "duration": 0.2318182,
                "tempo": 120.0
            },
            {
                "start_time": 21.1704545,
                "end_time": 21.4045455,
                "pitch": 28,
                "velocity": 51,
                "duration": 0.2340909,
                "tempo": 120.0
            },
            {
                "start_time": 21.4386364,
                "end_time": 21.9431818,
                "pitch": 33,
                "velocity": 51,
                "duration": 0.5045455,
                "tempo": 120.0
            },
            {
                "start_time": 21.9772727,
                "end_time": 22.4818182,
                "pitch": 28,
                "velocity": 51,
                "duration": 0.5045455,
                "tempo": 120.0
            },
            {
                "start_time": 22.5159091,
                "end_time": 22.75,
                "pitch": 33,
                "velocity": 51,
                "duration": 0.2340909,
                "tempo": 120.0
            },
            {
                "start_time": 22.7840909,
                "end_time": 23.0181818,
                "pitch": 28,
                "velocity": 51,
                "duration": 0.2340909,
                "tempo": 120.0
            },
            {
                "start_time": 23.05,
                "end_time": 23.2840909,
                "pitch": 33,
                "velocity": 51,
                "duration": 0.2340909,
                "tempo": 120.0
            },
            {
                "start_time": 23.3181818,
                "end_time": 23.5568182,
                "pitch": 37,
                "velocity": 51,
                "duration": 0.2386364,
                "tempo": 120.0
            },
            {
                "start_time": 23.5909091,
                "end_time": 24.0954545,
                "pitch": 38,
                "velocity": 51,
                "duration": 0.5045455,
                "tempo": 120.0
            },
            {
                "start_time": 24.1295455,
                "end_time": 24.6295455,
                "pitch": 33,
                "velocity": 51,
                "duration": 0.5,
                "tempo": 120.0
            },
            {
                "start_time": 24.6636364,
                "end_time": 24.8977273,
                "pitch": 38,
                "velocity": 51,
                "duration": 0.2340909,
                "tempo": 120.0
            },
            {
                "start_time": 24.9295455,
                "end_time": 25.1636364,
                "pitch": 38,
                "velocity": 51,
                "duration": 0.2340909,
                "tempo": 120.0
            },
            {
                "start_time": 25.1977273,
                "end_time": 25.4318182,
                "pitch": 33,
                "velocity": 51,
                "duration": 0.2340909,
                "tempo": 120.0
            },
            {
                "start_time": 25.4659091,
                "end_time": 25.7022727,
                "pitch": 38,
                "velocity": 51,
                "duration": 0.2363636,
                "tempo": 120.0
            },
            {
                "start_time": 25.7363636,
                "end_time": 26.2431818,
                "pitch": 38,
                "velocity": 51,
                "duration": 0.5068182,
                "tempo": 120.0
            },
            {
                "start_time": 26.2772727,
                "end_time": 26.7818182,
                "pitch": 33,
                "velocity": 51,
                "duration": 0.5045455,
                "tempo": 120.0
            },
            {
                "start_time": 26.8159091,
                "end_time": 27.0545455,
                "pitch": 38,
                "velocity": 51,
                "duration": 0.2386364,
                "tempo": 120.0
            },
            {
                "start_time": 27.0863636,
                "end_time": 27.3204545,
                "pitch": 33,
                "velocity": 51,
                "duration": 0.2340909,
                "tempo": 120.0
            },
            {
                "start_time": 27.3545455,
                "end_time": 27.5886364,
                "pitch": 38,
                "velocity": 51,
                "duration": 0.2340909,
                "tempo": 120.0
            },
            {
                "start_time": 27.6227273,
                "end_time": 27.8545455,
                "pitch": 33,
                "velocity": 51,
                "duration": 0.2318182,
                "tempo": 120.0
            },
            {
                "start_time": 27.8886364,
                "end_time": 28.3931818,
                "pitch": 33,
                "velocity": 51,
                "duration": 0.5045455,
                "tempo": 120.0
            },
            {
                "start_time": 28.4272727,
                "end_time": 28.9340909,
                "pitch": 28,
                "velocity": 51,
                "duration": 0.5068182,
                "tempo": 120.0
            },
            {
                "start_time": 28.9681818,
                "end_time": 29.2,
                "pitch": 33,
                "velocity": 51,
                "duration": 0.2318182,
                "tempo": 120.0
            },
            {
                "start_time": 29.2340909,
                "end_time": 29.4681818,
                "pitch": 28,
                "velocity": 51,
                "duration": 0.2340909,
                "tempo": 120.0
            },
            {
                "start_time": 29.5022727,
                "end_time": 29.7363636,
                "pitch": 33,
                "velocity": 51,
                "duration": 0.2340909,
                "tempo": 120.0
            },
            {
                "start_time": 29.7681818,
                "end_time": 30.0022727,
                "pitch": 33,
                "velocity": 51,
                "duration": 0.2340909,
                "tempo": 120.0
            },
            {
                "start_time": 30.0363636,
                "end_time": 30.5409091,
                "pitch": 33,
                "velocity": 51,
                "duration": 0.5045455,
                "tempo": 120.0
            },
            {
                "start_time": 30.575,
                "end_time": 31.0863636,
                "pitch": 28,
                "velocity": 51,
                "duration": 0.5113636,
                "tempo": 120.0
            },
            {
                "start_time": 31.1204545,
                "end_time": 31.625,
                "pitch": 37,
                "velocity": 51,
                "duration": 0.5045455,
                "tempo": 120.0
            },
            {
                "start_time": 31.6590909,
                "end_time": 32.1590909,
                "pitch": 33,
                "velocity": 51,
                "duration": 0.5,
                "tempo": 120.0
            },
            {
                "start_time": 32.1931818,
                "end_time": 32.4272727,
                "pitch": 38,
                "velocity": 51,
                "duration": 0.2340909,
                "tempo": 120.0
            },
            {
                "start_time": 32.4590909,
                "end_time": 32.9613636,
                "pitch": 38,
                "velocity": 51,
                "duration": 0.5022727,
                "tempo": 120.0
            },
            {
                "start_time": 32.9954545,
                "end_time": 33.2318182,
                "pitch": 33,
                "velocity": 51,
                "duration": 0.2363636,
                "tempo": 120.0
            },
            {
                "start_time": 33.2659091,
                "end_time": 33.5045455,
                "pitch": 38,
                "velocity": 51,
                "duration": 0.2386364,
                "tempo": 120.0
            },
            {
                "start_time": 34.0727273,
                "end_time": 34.3068182,
                "pitch": 33,
                "velocity": 51,
                "duration": 0.2340909,
                "tempo": 120.0
            },
            {
                "start_time": 34.3409091,
                "end_time": 34.8454545,
                "pitch": 38,
                "velocity": 51,
                "duration": 0.5045455,
                "tempo": 120.0
            },
            {
                "start_time": 34.8795455,
                "end_time": 35.2522727,
                "pitch": 38,
                "velocity": 51,
                "duration": 0.3727273,
                "tempo": 120.0
            },
            {
                "start_time": 35.2840909,
                "end_time": 35.3840909,
                "pitch": 33,
                "velocity": 51,
                "duration": 0.1,
                "tempo": 120.0
            },
            {
                "start_time": 35.4181818,
                "end_time": 35.6522727,
                "pitch": 38,
                "velocity": 51,
                "duration": 0.2340909,
                "tempo": 120.0
            },
            {
                "start_time": 35.6863636,
                "end_time": 35.9181818,
                "pitch": 33,
                "velocity": 51,
                "duration": 0.2318182,
                "tempo": 120.0
            },
            {
                "start_time": 35.9522727,
                "end_time": 36.1863636,
                "pitch": 38,
                "velocity": 51,
                "duration": 0.2340909,
                "tempo": 120.0
            },
            {
                "start_time": 36.2204545,
                "end_time": 36.4590909,
                "pitch": 33,
                "velocity": 51,
                "duration": 0.2386364,
                "tempo": 120.0
            },
            {
                "start_time": 36.4909091,
                "end_time": 36.9977273,
                "pitch": 33,
                "velocity": 51,
                "duration": 0.5068182,
                "tempo": 120.0
            },
            {
                "start_time": 37.0318182,
                "end_time": 37.5318182,
                "pitch": 28,
                "velocity": 51,
                "duration": 0.5,
                "tempo": 120.0
            },
            {
                "start_time": 37.5659091,
                "end_time": 37.8,
                "pitch": 33,
                "velocity": 51,
                "duration": 0.2340909,
                "tempo": 120.0
            },
            {
                "start_time": 37.8318182,
                "end_time": 38.0659091,
                "pitch": 28,
                "velocity": 51,
                "duration": 0.2340909,
                "tempo": 120.0
            },
            {
                "start_time": 38.1,
                "end_time": 38.3340909,
                "pitch": 33,
                "velocity": 51,
                "duration": 0.2340909,
                "tempo": 120.0
            },
            {
                "start_time": 38.3681818,
                "end_time": 38.6045455,
                "pitch": 28,
                "velocity": 51,
                "duration": 0.2363636,
                "tempo": 120.0
            },
            {
                "start_time": 38.6386364,
                "end_time": 39.1454545,
                "pitch": 33,
                "velocity": 51,
                "duration": 0.5068182,
                "tempo": 120.0
            },
            {
                "start_time": 39.1772727,
                "end_time": 39.6840909,
                "pitch": 28,
                "velocity": 51,
                "duration": 0.5068182,
                "tempo": 120.0
            },
            {
                "start_time": 39.7181818,
                "end_time": 39.9545455,
                "pitch": 33,
                "velocity": 51,
                "duration": 0.2363636,
                "tempo": 120.0
            },
            {
                "start_time": 39.9886364,
                "end_time": 40.2227273,
                "pitch": 28,
                "velocity": 51,
                "duration": 0.2340909,
                "tempo": 120.0
            },
            {
                "start_time": 40.2568182,
                "end_time": 40.4909091,
                "pitch": 33,
                "velocity": 51,
                "duration": 0.2340909,
                "tempo": 120.0
            },
            {
                "start_time": 40.5227273,
                "end_time": 40.7613636,
                "pitch": 37,
                "velocity": 51,
                "duration": 0.2386364,
                "tempo": 120.0
            },
            {
                "start_time": 40.7954545,
                "end_time": 41.3022727,
                "pitch": 38,
                "velocity": 51,
                "duration": 0.5068182,
                "tempo": 120.0
            },
            {
                "start_time": 41.3340909,
                "end_time": 41.8363636,
                "pitch": 33,
                "velocity": 51,
                "duration": 0.5022727,
                "tempo": 120.0
            },
            {
                "start_time": 41.8681818,
                "end_time": 42.1022727,
                "pitch": 38,
                "velocity": 51,
                "duration": 0.2340909,
                "tempo": 120.0
            },
            {
                "start_time": 42.1363636,
                "end_time": 42.3704545,
                "pitch": 38,
                "velocity": 51,
                "duration": 0.2340909,
                "tempo": 120.0
            },
            {
                "start_time": 42.4045455,
                "end_time": 42.6363636,
                "pitch": 33,
                "velocity": 51,
                "duration": 0.2318182,
                "tempo": 120.0
            },
            {
                "start_time": 42.6704545,
                "end_time": 42.9090909,
                "pitch": 38,
                "velocity": 51,
                "duration": 0.2386364,
                "tempo": 120.0
            },
            {
                "start_time": 42.9431818,
                "end_time": 43.4477273,
                "pitch": 38,
                "velocity": 51,
                "duration": 0.5045455,
                "tempo": 120.0
            },
            {
                "start_time": 43.4818182,
                "end_time": 43.9818182,
                "pitch": 33,
                "velocity": 51,
                "duration": 0.5,
                "tempo": 120.0
            },
            {
                "start_time": 44.0159091,
                "end_time": 44.25,
                "pitch": 38,
                "velocity": 51,
                "duration": 0.2340909,
                "tempo": 120.0
            },
            {
                "start_time": 44.2840909,
                "end_time": 44.5204545,
                "pitch": 33,
                "velocity": 51,
                "duration": 0.2363636,
                "tempo": 120.0
            },
            {
                "start_time": 44.5545455,
                "end_time": 44.7931818,
                "pitch": 38,
                "velocity": 51,
                "duration": 0.2386364,
                "tempo": 120.0
            },
            {
                "start_time": 44.8272727,
                "end_time": 45.0613636,
                "pitch": 33,
                "velocity": 51,
                "duration": 0.2340909,
                "tempo": 120.0
            },
            {
                "start_time": 45.0954545,
                "end_time": 45.5954545,
                "pitch": 33,
                "velocity": 51,
                "duration": 0.5,
                "tempo": 120.0
            },
            {
                "start_time": 45.6295455,
                "end_time": 46.1295455,
                "pitch": 28,
                "velocity": 51,
                "duration": 0.5,
                "tempo": 120.0
            },
            {
                "start_time": 46.1636364,
                "end_time": 46.3977273,
                "pitch": 33,
                "velocity": 51,
                "duration": 0.2340909,
                "tempo": 120.0
            },
            {
                "start_time": 46.4318182,
                "end_time": 46.6681818,
                "pitch": 28,
                "velocity": 51,
                "duration": 0.2363636,
                "tempo": 120.0
            },
            {
                "start_time": 46.7022727,
                "end_time": 46.9409091,
                "pitch": 33,
                "velocity": 51,
                "duration": 0.2386364,
                "tempo": 120.0
            },
            {
                "start_time": 46.975,
                "end_time": 47.2090909,
                "pitch": 33,
                "velocity": 51,
                "duration": 0.2340909,
                "tempo": 120.0
            },
            {
                "start_time": 47.2409091,
                "end_time": 47.7477273,
                "pitch": 33,
                "velocity": 51,
                "duration": 0.5068182,
                "tempo": 120.0
            },
            {
                "start_time": 47.7818182,
                "end_time": 48.2863636,
                "pitch": 28,
                "velocity": 51,
                "duration": 0.5045455,
                "tempo": 120.0
            },
            {
                "start_time": 48.3204545,
                "end_time": 48.8204545,
                "pitch": 37,
                "velocity": 51,
                "duration": 0.5,
                "tempo": 120.0
            },
            {
                "start_time": 48.8545455,
                "end_time": 49.3590909,
                "pitch": 33,
                "velocity": 51,
                "duration": 0.5045455,
                "tempo": 120.0
            },
            {
                "start_time": 49.3931818,
                "end_time": 49.6318182,
                "pitch": 38,
                "velocity": 51,
                "duration": 0.2386364,
                "tempo": 120.0
            },
            {
                "start_time": 49.6659091,
                "end_time": 50.1659091,
                "pitch": 38,
                "velocity": 51,
                "duration": 0.5,
                "tempo": 120.0
            },
            {
                "start_time": 50.2,
                "end_time": 50.4340909,
                "pitch": 33,
                "velocity": 51,
                "duration": 0.2340909,
                "tempo": 120.0
            },
            {
                "start_time": 50.4659091,
                "end_time": 50.9727273,
                "pitch": 38,
                "velocity": 51,
                "duration": 0.5068182,
                "tempo": 120.0
            },
            {
                "start_time": 51.0068182,
                "end_time": 51.2454545,
                "pitch": 38,
                "velocity": 51,
                "duration": 0.2386364,
                "tempo": 120.0
            },
            {
                "start_time": 51.2772727,
                "end_time": 51.5113636,
                "pitch": 40,
                "velocity": 51,
                "duration": 0.2340909,
                "tempo": 120.0
            },
            {
                "start_time": 51.5454545,
                "end_time": 52.0454545,
                "pitch": 42,
                "velocity": 51,
                "duration": 0.5,
                "tempo": 120.0
            },
            {
                "start_time": 52.0795455,
                "end_time": 52.45,
                "pitch": 42,
                "velocity": 51,
                "duration": 0.3704545,
                "tempo": 120.0
            },
            {
                "start_time": 52.4840909,
                "end_time": 52.5840909,
                "pitch": 37,
                "velocity": 51,
                "duration": 0.1,
                "tempo": 120.0
            },
            {
                "start_time": 52.6181818,
                "end_time": 52.8568182,
                "pitch": 42,
                "velocity": 51,
                "duration": 0.2386364,
                "tempo": 120.0
            },
            {
                "start_time": 52.8909091,
                "end_time": 53.125,
                "pitch": 37,
                "velocity": 51,
                "duration": 0.2340909,
                "tempo": 120.0
            },
            {
                "start_time": 53.1590909,
                "end_time": 53.3909091,
                "pitch": 42,
                "velocity": 51,
                "duration": 0.2318182,
                "tempo": 120.0
            },
            {
                "start_time": 53.425,
                "end_time": 53.6636364,
                "pitch": 37,
                "velocity": 51,
                "duration": 0.2386364,
                "tempo": 120.0
            },
            {
                "start_time": 53.6977273,
                "end_time": 54.2022727,
                "pitch": 38,
                "velocity": 51,
                "duration": 0.5045455,
                "tempo": 120.0
            },
            {
                "start_time": 54.2363636,
                "end_time": 54.7363636,
                "pitch": 35,
                "velocity": 51,
                "duration": 0.5,
                "tempo": 120.0
            },
            {
                "start_time": 54.7704545,
                "end_time": 55.2727273,
                "pitch": 38,
                "velocity": 51,
                "duration": 0.5022727,
                "tempo": 120.0
            },
            {
                "start_time": 55.3045455,
                "end_time": 55.5386364,
                "pitch": 35,
                "velocity": 51,
                "duration": 0.2340909,
                "tempo": 120.0
            },
            {
                "start_time": 55.5727273,
                "end_time": 55.8113636,
                "pitch": 38,
                "velocity": 51,
                "duration": 0.2386364,
                "tempo": 120.0
            },
            {
                "start_time": 55.8454545,
                "end_time": 56.35,
                "pitch": 40,
                "velocity": 51,
                "duration": 0.5045455,
                "tempo": 120.0
            },
            {
                "start_time": 56.3840909,
                "end_time": 56.8840909,
                "pitch": 35,
                "velocity": 51,
                "duration": 0.5,
                "tempo": 120.0
            },
            {
                "start_time": 56.9181818,
                "end_time": 57.1522727,
                "pitch": 40,
                "velocity": 51,
                "duration": 0.2340909,
                "tempo": 120.0
            },
            {
                "start_time": 57.1863636,
                "end_time": 57.4227273,
                "pitch": 35,
                "velocity": 51,
                "duration": 0.2363636,
                "tempo": 120.0
            },
            {
                "start_time": 57.4568182,
                "end_time": 57.6954545,
                "pitch": 40,
                "velocity": 51,
                "duration": 0.2386364,
                "tempo": 120.0
            },
            {
                "start_time": 57.7295455,
                "end_time": 57.9636364,
                "pitch": 35,
                "velocity": 51,
                "duration": 0.2340909,
                "tempo": 120.0
            },
            {
                "start_time": 57.9954545,
                "end_time": 58.4977273,
                "pitch": 37,
                "velocity": 51,
                "duration": 0.5022727,
                "tempo": 120.0
            },
            {
                "start_time": 58.5295455,
                "end_time": 59.0363636,
                "pitch": 32,
                "velocity": 51,
                "duration": 0.5068182,
                "tempo": 120.0
            },
            {
                "start_time": 59.0704545,
                "end_time": 59.3090909,
                "pitch": 37,
                "velocity": 51,
                "duration": 0.2386364,
                "tempo": 120.0
            },
            {
                "start_time": 59.3409091,
                "end_time": 59.575,
                "pitch": 37,
                "velocity": 51,
                "duration": 0.2340909,
                "tempo": 120.0
            },
            {
                "start_time": 59.6090909,
                "end_time": 59.8431818,
                "pitch": 38,
                "velocity": 51,
                "duration": 0.2340909,
                "tempo": 120.0
            },
            {
                "start_time": 59.8772727,
                "end_time": 60.1136364,
                "pitch": 40,
                "velocity": 51,
                "duration": 0.2363636,
                "tempo": 120.0
            },
            {
                "start_time": 60.1477273,
                "end_time": 60.6545455,
                "pitch": 42,
                "velocity": 51,
                "duration": 0.5068182,
                "tempo": 120.0
            },
            {
                "start_time": 60.6863636,
                "end_time": 61.0545455,
                "pitch": 42,
                "velocity": 51,
                "duration": 0.3681818,
                "tempo": 120.0
            },
            {
                "start_time": 61.0886364,
                "end_time": 61.1886364,
                "pitch": 37,
                "velocity": 51,
                "duration": 0.1,
                "tempo": 120.0
            },
            {
                "start_time": 61.2227273,
                "end_time": 61.4545455,
                "pitch": 42,
                "velocity": 51,
                "duration": 0.2318182,
                "tempo": 120.0
            },
            {
                "start_time": 61.4886364,
                "end_time": 61.7272727,
                "pitch": 37,
                "velocity": 51,
                "duration": 0.2386364,
                "tempo": 120.0
            },
            {
                "start_time": 61.7613636,
                "end_time": 62.0,
                "pitch": 42,
                "velocity": 51,
                "duration": 0.2386364,
                "tempo": 120.0
            },
            {
                "start_time": 62.0318182,
                "end_time": 62.2659091,
                "pitch": 37,
                "velocity": 51,
                "duration": 0.2340909,
                "tempo": 120.0
            },
            {
                "start_time": 62.3,
                "end_time": 62.8,
                "pitch": 38,
                "velocity": 51,
                "duration": 0.5,
                "tempo": 120.0
            },
            {
                "start_time": 62.8340909,
                "end_time": 63.3363636,
                "pitch": 35,
                "velocity": 51,
                "duration": 0.5022727,
                "tempo": 120.0
            },
            {
                "start_time": 63.3681818,
                "end_time": 63.875,
                "pitch": 38,
                "velocity": 51,
                "duration": 0.5068182,
                "tempo": 120.0
            },
            {
                "start_time": 63.9090909,
                "end_time": 64.1454545,
                "pitch": 35,
                "velocity": 51,
                "duration": 0.2363636,
                "tempo": 120.0
            },
            {
                "start_time": 64.1795455,
                "end_time": 64.4136364,
                "pitch": 38,
                "velocity": 51,
                "duration": 0.2340909,
                "tempo": 120.0
            },
            {
                "start_time": 64.4477273,
                "end_time": 64.9477273,
                "pitch": 40,
                "velocity": 51,
                "duration": 0.5,
                "tempo": 120.0
            },
            {
                "start_time": 64.9818182,
                "end_time": 65.4863636,
                "pitch": 35,
                "velocity": 51,
                "duration": 0.5045455,
                "tempo": 120.0
            },
            {
                "start_time": 65.5204545,
                "end_time": 65.7590909,
                "pitch": 40,
                "velocity": 51,
                "duration": 0.2386364,
                "tempo": 120.0
            },
            {
                "start_time": 65.7931818,
                "end_time": 66.0272727,
                "pitch": 35,
                "velocity": 51,
                "duration": 0.2340909,
                "tempo": 120.0
            },
            {
                "start_time": 66.0590909,
                "end_time": 66.2931818,
                "pitch": 40,
                "velocity": 51,
                "duration": 0.2340909,
                "tempo": 120.0
            },
            {
                "start_time": 66.3272727,
                "end_time": 66.5613636,
                "pitch": 35,
                "velocity": 51,
                "duration": 0.2340909,
                "tempo": 120.0
            },
            {
                "start_time": 66.5931818,
                "end_time": 66.8272727,
                "pitch": 37,
                "velocity": 51,
                "duration": 0.2340909,
                "tempo": 120.0
            },
            {
                "start_time": 66.8613636,
                "end_time": 67.1,
                "pitch": 37,
                "velocity": 51,
                "duration": 0.2386364,
                "tempo": 120.0
            },
            {
                "start_time": 67.1340909,
                "end_time": 67.3704545,
                "pitch": 37,
                "velocity": 51,
                "duration": 0.2363636,
                "tempo": 120.0
            },
            {
                "start_time": 67.4045455,
                "end_time": 67.5045455,
                "pitch": 38,
                "velocity": 51,
                "duration": 0.1,
                "tempo": 120.0
            },
            {
                "start_time": 67.5386364,
                "end_time": 67.6386364,
                "pitch": 40,
                "velocity": 51,
                "duration": 0.1,
                "tempo": 120.0
            }
        ],
        "Synth Bass 1": [
            {
                "start_time": 0.2045455,
                "end_time": 0.4386364,
                "pitch": 86,
                "velocity": 64,
                "duration": 0.2340909,
                "tempo": 120.0
            },
            {
                "start_time": 2.0863636,
                "end_time": 2.3181818,
                "pitch": 86,
                "velocity": 64,
                "duration": 0.2318182,
                "tempo": 120.0
            },
            {
                "start_time": 2.3522727,
                "end_time": 2.5909091,
                "pitch": 86,
                "velocity": 64,
                "duration": 0.2386364,
                "tempo": 120.0
            },
            {
                "start_time": 4.2318182,
                "end_time": 4.4659091,
                "pitch": 86,
                "velocity": 64,
                "duration": 0.2340909,
                "tempo": 120.0
            },
            {
                "start_time": 4.5,
                "end_time": 4.7386364,
                "pitch": 86,
                "velocity": 64,
                "duration": 0.2386364,
                "tempo": 120.0
            },
            {
                "start_time": 6.3840909,
                "end_time": 6.6227273,
                "pitch": 86,
                "velocity": 64,
                "duration": 0.2386364,
                "tempo": 120.0
            },
            {
                "start_time": 6.6568182,
                "end_time": 6.8909091,
                "pitch": 86,
                "velocity": 64,
                "duration": 0.2340909,
                "tempo": 120.0
            },
            {
                "start_time": 8.5363636,
                "end_time": 8.7704545,
                "pitch": 86,
                "velocity": 64,
                "duration": 0.2340909,
                "tempo": 120.0
            },
            {
                "start_time": 8.8045455,
                "end_time": 9.0409091,
                "pitch": 86,
                "velocity": 64,
                "duration": 0.2363636,
                "tempo": 120.0
            },
            {
                "start_time": 10.6886364,
                "end_time": 10.9272727,
                "pitch": 86,
                "velocity": 64,
                "duration": 0.2386364,
                "tempo": 120.0
            },
            {
                "start_time": 10.9590909,
                "end_time": 11.1931818,
                "pitch": 86,
                "velocity": 64,
                "duration": 0.2340909,
                "tempo": 120.0
            },
            {
                "start_time": 12.8363636,
                "end_time": 13.0727273,
                "pitch": 86,
                "velocity": 64,
                "duration": 0.2363636,
                "tempo": 120.0
            },
            {
                "start_time": 13.1068182,
                "end_time": 13.3409091,
                "pitch": 86,
                "velocity": 64,
                "duration": 0.2340909,
                "tempo": 120.0
            },
            {
                "start_time": 16.3159091,
                "end_time": 17.3772727,
                "pitch": 58,
                "velocity": 64,
                "duration": 1.0613636,
                "tempo": 120.0
            },
            {
                "start_time": 17.4113636,
                "end_time": 17.6454545,
                "pitch": 86,
                "velocity": 64,
                "duration": 0.2340909,
                "tempo": 120.0
            },
            {
                "start_time": 17.6772727,
                "end_time": 17.9113636,
                "pitch": 81,
                "velocity": 64,
                "duration": 0.2340909,
                "tempo": 120.0
            },
            {
                "start_time": 17.9454545,
                "end_time": 18.1795455,
                "pitch": 86,
                "velocity": 64,
                "duration": 0.2340909,
                "tempo": 120.0
            },
            {
                "start_time": 18.3454545,
                "end_time": 18.5818182,
                "pitch": 86,
                "velocity": 64,
                "duration": 0.2363636,
                "tempo": 120.0
            },
            {
                "start_time": 18.6159091,
                "end_time": 18.7181818,
                "pitch": 86,
                "velocity": 64,
                "duration": 0.1022727,
                "tempo": 120.0
            },
            {
                "start_time": 18.7522727,
                "end_time": 18.9909091,
                "pitch": 81,
                "velocity": 64,
                "duration": 0.2386364,
                "tempo": 120.0
            },
            {
                "start_time": 19.0227273,
                "end_time": 19.2568182,
                "pitch": 86,
                "velocity": 64,
                "duration": 0.2340909,
                "tempo": 120.0
            },
            {
                "start_time": 19.2909091,
                "end_time": 19.525,
                "pitch": 88,
                "velocity": 64,
                "duration": 0.2340909,
                "tempo": 120.0
            },
            {
                "start_time": 19.5590909,
                "end_time": 19.7909091,
                "pitch": 88,
                "velocity": 64,
                "duration": 0.2318182,
                "tempo": 120.0
            },
            {
                "start_time": 19.825,
                "end_time": 20.0590909,
                "pitch": 81,
                "velocity": 64,
                "duration": 0.2340909,
                "tempo": 120.0
            },
            {
                "start_time": 20.0931818,
                "end_time": 20.3295455,
                "pitch": 88,
                "velocity": 64,
                "duration": 0.2363636,
                "tempo": 120.0
            },
            {
                "start_time": 20.5,
                "end_time": 20.7363636,
                "pitch": 88,
                "velocity": 64,
                "duration": 0.2363636,
                "tempo": 120.0
            },
            {
                "start_time": 20.7704545,
                "end_time": 20.8704545,
                "pitch": 88,
                "velocity": 64,
                "duration": 0.1,
                "tempo": 120.0
            },
            {
                "start_time": 20.9045455,
                "end_time": 21.1363636,
                "pitch": 81,
                "velocity": 64,
                "duration": 0.2318182,
                "tempo": 120.0
            },
            {
                "start_time": 21.1704545,
                "end_time": 21.4045455,
                "pitch": 88,
                "velocity": 64,
                "duration": 0.2340909,
                "tempo": 120.0
            },
            {
                "start_time": 21.4386364,
                "end_time": 21.6727273,
                "pitch": 88,
                "velocity": 64,
                "duration": 0.2340909,
                "tempo": 120.0
            },
            {
                "start_time": 21.7045455,
                "end_time": 21.9431818,
                "pitch": 88,
                "velocity": 64,
                "duration": 0.2386364,
                "tempo": 120.0
            },
            {
                "start_time": 21.9772727,
                "end_time": 22.2159091,
                "pitch": 81,
                "velocity": 64,
                "duration": 0.2386364,
                "tempo": 120.0
            },
            {
                "start_time": 22.25,
                "end_time": 22.4818182,
                "pitch": 88,
                "velocity": 64,
                "duration": 0.2318182,
                "tempo": 120.0
            },
            {
                "start_time": 22.65,
                "end_time": 22.8840909,
                "pitch": 88,
                "velocity": 64,
                "duration": 0.2340909,
                "tempo": 120.0
            },
            {
                "start_time": 22.9181818,
                "end_time": 23.0181818,
                "pitch": 88,
                "velocity": 64,
                "duration": 0.1,
                "tempo": 120.0
            },
            {
                "start_time": 23.05,
                "end_time": 23.2840909,
                "pitch": 81,
                "velocity": 64,
                "duration": 0.2340909,
                "tempo": 120.0
            },
            {
                "start_time": 23.3181818,
                "end_time": 23.5568182,
                "pitch": 88,
                "velocity": 64,
                "duration": 0.2386364,
                "tempo": 120.0
            },
            {
                "start_time": 23.5909091,
                "end_time": 23.8272727,
                "pitch": 86,
                "velocity": 64,
                "duration": 0.2363636,
                "tempo": 120.0
            },
            {
                "start_time": 23.8613636,
                "end_time": 24.0954545,
                "pitch": 86,
                "velocity": 64,
                "duration": 0.2340909,
                "tempo": 120.0
            },
            {
                "start_time": 24.1295455,
                "end_time": 24.3636364,
                "pitch": 81,
                "velocity": 64,
                "duration": 0.2340909,
                "tempo": 120.0
            },
            {
                "start_time": 24.3954545,
                "end_time": 24.6295455,
                "pitch": 86,
                "velocity": 64,
                "duration": 0.2340909,
                "tempo": 120.0
            },
            {
                "start_time": 24.7977273,
                "end_time": 25.0318182,
                "pitch": 86,
                "velocity": 64,
                "duration": 0.2340909,
                "tempo": 120.0
            },
            {
                "start_time": 25.0636364,
                "end_time": 25.1636364,
                "pitch": 86,
                "velocity": 64,
                "duration": 0.1,
                "tempo": 120.0
            },
            {
                "start_time": 25.1977273,
                "end_time": 25.4318182,
                "pitch": 81,
                "velocity": 64,
                "duration": 0.2340909,
                "tempo": 120.0
            },
            {
                "start_time": 25.4659091,
                "end_time": 25.7022727,
                "pitch": 86,
                "velocity": 64,
                "duration": 0.2363636,
                "tempo": 120.0
            },
            {
                "start_time": 25.7363636,
                "end_time": 25.975,
                "pitch": 86,
                "velocity": 64,
                "duration": 0.2386364,
                "tempo": 120.0
            },
            {
                "start_time": 26.0090909,
                "end_time": 26.2431818,
                "pitch": 86,
                "velocity": 64,
                "duration": 0.2340909,
                "tempo": 120.0
            },
            {
                "start_time": 26.2772727,
                "end_time": 26.5090909,
                "pitch": 81,
                "velocity": 64,
                "duration": 0.2318182,
                "tempo": 120.0
            },
            {
                "start_time": 26.5431818,
                "end_time": 26.7818182,
                "pitch": 86,
                "velocity": 64,
                "duration": 0.2386364,
                "tempo": 120.0
            },
            {
                "start_time": 26.9522727,
                "end_time": 27.1863636,
                "pitch": 86,
                "velocity": 64,
                "duration": 0.2340909,
                "tempo": 120.0
            },
            {
                "start_time": 27.2204545,
                "end_time": 27.3204545,
                "pitch": 86,
                "velocity": 64,
                "duration": 0.1,
                "tempo": 120.0
            },
            {
                "start_time": 27.3545455,
                "end_time": 27.5886364,
                "pitch": 81,
                "velocity": 64,
                "duration": 0.2340909,
                "tempo": 120.0
            },
            {
                "start_time": 27.6227273,
                "end_time": 27.8545455,
                "pitch": 86,
                "velocity": 64,
                "duration": 0.2318182,
                "tempo": 120.0
            },
            {
                "start_time": 27.8886364,
                "end_time": 28.1227273,
                "pitch": 88,
                "velocity": 64,
                "duration": 0.2340909,
                "tempo": 120.0
            },
            {
                "start_time": 28.1568182,
                "end_time": 28.3931818,
                "pitch": 88,
                "velocity": 64,
                "duration": 0.2363636,
                "tempo": 120.0
            },
            {
                "start_time": 28.4272727,
                "end_time": 28.6659091,
                "pitch": 81,
                "velocity": 64,
                "duration": 0.2386364,
                "tempo": 120.0
            },
            {
                "start_time": 28.7,
                "end_time": 28.9340909,
                "pitch": 88,
                "velocity": 64,
                "duration": 0.2340909,
                "tempo": 120.0
            },
            {
                "start_time": 29.1,
                "end_time": 29.3340909,
                "pitch": 88,
                "velocity": 64,
                "duration": 0.2340909,
                "tempo": 120.0
            },
            {
                "start_time": 29.3681818,
                "end_time": 29.4681818,
                "pitch": 88,
                "velocity": 64,
                "duration": 0.1,
                "tempo": 120.0
            },
            {
                "start_time": 29.5022727,
                "end_time": 29.7363636,
                "pitch": 81,
                "velocity": 64,
                "duration": 0.2340909,
                "tempo": 120.0
            },
            {
                "start_time": 29.7681818,
                "end_time": 30.0022727,
                "pitch": 88,
                "velocity": 64,
                "duration": 0.2340909,
                "tempo": 120.0
            },
            {
                "start_time": 30.0363636,
                "end_time": 30.2704545,
                "pitch": 88,
                "velocity": 64,
                "duration": 0.2340909,
                "tempo": 120.0
            },
            {
                "start_time": 30.3022727,
                "end_time": 30.5409091,
                "pitch": 88,
                "velocity": 64,
                "duration": 0.2386364,
                "tempo": 120.0
            },
            {
                "start_time": 30.575,
                "end_time": 30.8136364,
                "pitch": 81,
                "velocity": 64,
                "duration": 0.2386364,
                "tempo": 120.0
            },
            {
                "start_time": 30.8477273,
                "end_time": 31.0863636,
                "pitch": 88,
                "velocity": 64,
                "duration": 0.2386364,
                "tempo": 120.0
            },
            {
                "start_time": 31.2545455,
                "end_time": 31.4909091,
                "pitch": 88,
                "velocity": 64,
                "duration": 0.2363636,
                "tempo": 120.0
            },
            {
                "start_time": 31.525,
                "end_time": 31.625,
                "pitch": 88,
                "velocity": 64,
                "duration": 0.1,
                "tempo": 120.0
            },
            {
                "start_time": 31.6590909,
                "end_time": 31.8931818,
                "pitch": 81,
                "velocity": 64,
                "duration": 0.2340909,
                "tempo": 120.0
            },
            {
                "start_time": 31.925,
                "end_time": 32.1590909,
                "pitch": 88,
                "velocity": 64,
                "duration": 0.2340909,
                "tempo": 120.0
            },
            {
                "start_time": 32.1931818,
                "end_time": 32.4272727,
                "pitch": 86,
                "velocity": 64,
                "duration": 0.2340909,
                "tempo": 120.0
            },
            {
                "start_time": 32.4590909,
                "end_time": 32.6931818,
                "pitch": 86,
                "velocity": 64,
                "duration": 0.2340909,
                "tempo": 120.0
            },
            {
                "start_time": 32.7272727,
                "end_time": 32.9613636,
                "pitch": 81,
                "velocity": 64,
                "duration": 0.2340909,
                "tempo": 120.0
            },
            {
                "start_time": 32.9954545,
                "end_time": 33.0954545,
                "pitch": 86,
                "velocity": 64,
                "duration": 0.1,
                "tempo": 120.0
            },
            {
                "start_time": 33.1295455,
                "end_time": 33.2318182,
                "pitch": 86,
                "velocity": 64,
                "duration": 0.1022727,
                "tempo": 120.0
            },
            {
                "start_time": 33.5204545,
                "end_time": 34.5727273,
                "pitch": 58,
                "velocity": 64,
                "duration": 1.0522727,
                "tempo": 120.0
            },
            {
                "start_time": 34.6068182,
                "end_time": 34.8454545,
                "pitch": 86,
                "velocity": 64,
                "duration": 0.2386364,
                "tempo": 120.0
            },
            {
                "start_time": 34.8795455,
                "end_time": 35.1181818,
                "pitch": 81,
                "velocity": 64,
                "duration": 0.2386364,
                "tempo": 120.0
            },
            {
                "start_time": 35.15,
                "end_time": 35.3840909,
                "pitch": 86,
                "velocity": 64,
                "duration": 0.2340909,
                "tempo": 120.0
            },
            {
                "start_time": 35.5522727,
                "end_time": 35.7863636,
                "pitch": 86,
                "velocity": 64,
                "duration": 0.2340909,
                "tempo": 120.0
            },
            {
                "start_time": 35.8181818,
                "end_time": 35.9181818,
                "pitch": 86,
                "velocity": 64,
                "duration": 0.1,
                "tempo": 120.0
            },
            {
                "start_time": 35.9522727,
                "end_time": 36.1863636,
                "pitch": 81,
                "velocity": 64,
                "duration": 0.2340909,
                "tempo": 120.0
            },
            {
                "start_time": 36.2204545,
                "end_time": 36.4590909,
                "pitch": 86,
                "velocity": 64,
                "duration": 0.2386364,
                "tempo": 120.0
            },
            {
                "start_time": 36.4909091,
                "end_time": 36.7295455,
                "pitch": 88,
                "velocity": 64,
                "duration": 0.2386364,
                "tempo": 120.0
            },
            {
                "start_time": 36.7636364,
                "end_time": 36.9977273,
                "pitch": 88,
                "velocity": 64,
                "duration": 0.2340909,
                "tempo": 120.0
            },
            {
                "start_time": 37.0318182,
                "end_time": 37.2636364,
                "pitch": 81,
                "velocity": 64,
                "duration": 0.2318182,
                "tempo": 120.0
            },
            {
                "start_time": 37.2977273,
                "end_time": 37.5318182,
                "pitch": 88,
                "velocity": 64,
                "duration": 0.2340909,
                "tempo": 120.0
            },
            {
                "start_time": 37.7,
                "end_time": 37.9318182,
                "pitch": 88,
                "velocity": 64,
                "duration": 0.2318182,
                "tempo": 120.0
            },
            {
                "start_time": 37.9659091,
                "end_time": 38.0659091,
                "pitch": 88,
                "velocity": 64,
                "duration": 0.1,
                "tempo": 120.0
            },
            {
                "start_time": 38.1,
                "end_time": 38.3340909,
                "pitch": 81,
                "velocity": 64,
                "duration": 0.2340909,
                "tempo": 120.0
            },
            {
                "start_time": 38.3681818,
                "end_time": 38.6045455,
                "pitch": 88,
                "velocity": 64,
                "duration": 0.2363636,
                "tempo": 120.0
            },
            {
                "start_time": 38.6386364,
                "end_time": 38.8772727,
                "pitch": 88,
                "velocity": 64,
                "duration": 0.2386364,
                "tempo": 120.0
            },
            {
                "start_time": 38.9113636,
                "end_time": 39.1454545,
                "pitch": 88,
                "velocity": 64,
                "duration": 0.2340909,
                "tempo": 120.0
            },
            {
                "start_time": 39.1772727,
                "end_time": 39.4113636,
                "pitch": 81,
                "velocity": 64,
                "duration": 0.2340909,
                "tempo": 120.0
            },
            {
                "start_time": 39.4454545,
                "end_time": 39.6840909,
                "pitch": 88,
                "velocity": 64,
                "duration": 0.2386364,
                "tempo": 120.0
            },
            {
                "start_time": 39.8522727,
                "end_time": 40.0886364,
                "pitch": 88,
                "velocity": 64,
                "duration": 0.2363636,
                "tempo": 120.0
            },
            {
                "start_time": 40.1227273,
                "end_time": 40.2227273,
                "pitch": 88,
                "velocity": 64,
                "duration": 0.1,
                "tempo": 120.0
            },
            {
                "start_time": 40.2568182,
                "end_time": 40.4909091,
                "pitch": 81,
                "velocity": 64,
                "duration": 0.2340909,
                "tempo": 120.0
            },
            {
                "start_time": 40.5227273,
                "end_time": 40.7613636,
                "pitch": 88,
                "velocity": 64,
                "duration": 0.2386364,
                "tempo": 120.0
            },
            {
                "start_time": 40.7954545,
                "end_time": 41.0340909,
                "pitch": 86,
                "velocity": 64,
                "duration": 0.2386364,
                "tempo": 120.0
            },
            {
                "start_time": 41.0681818,
                "end_time": 41.3022727,
                "pitch": 86,
                "velocity": 64,
                "duration": 0.2340909,
                "tempo": 120.0
            },
            {
                "start_time": 41.3340909,
                "end_time": 41.5681818,
                "pitch": 81,
                "velocity": 64,
                "duration": 0.2340909,
                "tempo": 120.0
            },
            {
                "start_time": 41.6022727,
                "end_time": 41.8363636,
                "pitch": 86,
                "velocity": 64,
                "duration": 0.2340909,
                "tempo": 120.0
            },
            {
                "start_time": 42.0022727,
                "end_time": 42.2363636,
                "pitch": 86,
                "velocity": 64,
                "duration": 0.2340909,
                "tempo": 120.0
            },
            {
                "start_time": 42.2704545,
                "end_time": 42.3704545,
                "pitch": 86,
                "velocity": 64,
                "duration": 0.1,
                "tempo": 120.0
            },
            {
                "start_time": 42.4045455,
                "end_time": 42.6363636,
                "pitch": 81,
                "velocity": 64,
                "duration": 0.2318182,
                "tempo": 120.0
            },
            {
                "start_time": 42.6704545,
                "end_time": 42.9090909,
                "pitch": 86,
                "velocity": 64,
                "duration": 0.2386364,
                "tempo": 120.0
            },
            {
                "start_time": 42.9431818,
                "end_time": 43.1818182,
                "pitch": 86,
                "velocity": 64,
                "duration": 0.2386364,
                "tempo": 120.0
            },
            {
                "start_time": 43.2136364,
                "end_time": 43.4477273,
                "pitch": 86,
                "velocity": 64,
                "duration": 0.2340909,
                "tempo": 120.0
            },
            {
                "start_time": 43.4818182,
                "end_time": 43.7159091,
                "pitch": 81,
                "velocity": 64,
                "duration": 0.2340909,
                "tempo": 120.0
            },
            {
                "start_time": 43.75,
                "end_time": 43.9818182,
                "pitch": 86,
                "velocity": 64,
                "duration": 0.2318182,
                "tempo": 120.0
            },
            {
                "start_time": 44.15,
                "end_time": 44.3863636,
                "pitch": 86,
                "velocity": 64,
                "duration": 0.2363636,
                "tempo": 120.0
            },
            {
                "start_time": 44.4204545,
                "end_time": 44.5204545,
                "pitch": 86,
                "velocity": 64,
                "duration": 0.1,
                "tempo": 120.0
            },
            {
                "start_time": 44.5545455,
                "end_time": 44.7931818,
                "pitch": 81,
                "velocity": 64,
                "duration": 0.2386364,
                "tempo": 120.0
            },
            {
                "start_time": 44.8272727,
                "end_time": 45.0613636,
                "pitch": 86,
                "velocity": 64,
                "duration": 0.2340909,
                "tempo": 120.0
            },
            {
                "start_time": 45.0954545,
                "end_time": 45.3272727,
                "pitch": 88,
                "velocity": 64,
                "duration": 0.2318182,
                "tempo": 120.0
            },
            {
                "start_time": 45.3613636,
                "end_time": 45.5954545,
                "pitch": 88,
                "velocity": 64,
                "duration": 0.2340909,
                "tempo": 120.0
            },
            {
                "start_time": 45.6295455,
                "end_time": 45.8636364,
                "pitch": 81,
                "velocity": 64,
                "duration": 0.2340909,
                "tempo": 120.0
            },
            {
                "start_time": 45.8954545,
                "end_time": 46.1295455,
                "pitch": 88,
                "velocity": 64,
                "duration": 0.2340909,
                "tempo": 120.0
            },
            {
                "start_time": 46.2977273,
                "end_time": 46.5318182,
                "pitch": 88,
                "velocity": 64,
                "duration": 0.2340909,
                "tempo": 120.0
            },
            {
                "start_time": 46.5659091,
                "end_time": 46.6681818,
                "pitch": 88,
                "velocity": 64,
                "duration": 0.1022727,
                "tempo": 120.0
            },
            {
                "start_time": 46.7022727,
                "end_time": 46.9409091,
                "pitch": 81,
                "velocity": 64,
                "duration": 0.2386364,
                "tempo": 120.0
            },
            {
                "start_time": 46.975,
                "end_time": 47.2090909,
                "pitch": 88,
                "velocity": 64,
                "duration": 0.2340909,
                "tempo": 120.0
            },
            {
                "start_time": 47.2409091,
                "end_time": 47.475,
                "pitch": 88,
                "velocity": 64,
                "duration": 0.2340909,
                "tempo": 120.0
            },
            {
                "start_time": 47.5090909,
                "end_time": 47.7477273,
                "pitch": 88,
                "velocity": 64,
                "duration": 0.2386364,
                "tempo": 120.0
            },
            {
                "start_time": 47.7818182,
                "end_time": 48.0181818,
                "pitch": 81,
                "velocity": 64,
                "duration": 0.2363636,
                "tempo": 120.0
            },
            {
                "start_time": 48.0522727,
                "end_time": 48.2863636,
                "pitch": 88,
                "velocity": 64,
                "duration": 0.2340909,
                "tempo": 120.0
            },
            {
                "start_time": 48.4545455,
                "end_time": 48.6863636,
                "pitch": 88,
                "velocity": 64,
                "duration": 0.2318182,
                "tempo": 120.0
            },
            {
                "start_time": 48.7204545,
                "end_time": 48.8204545,
                "pitch": 88,
                "velocity": 64,
                "duration": 0.1,
                "tempo": 120.0
            },
            {
                "start_time": 48.8545455,
                "end_time": 49.0886364,
                "pitch": 81,
                "velocity": 64,
                "duration": 0.2340909,
                "tempo": 120.0
            },
            {
                "start_time": 49.1227273,
                "end_time": 49.3590909,
                "pitch": 88,
                "velocity": 64,
                "duration": 0.2363636,
                "tempo": 120.0
            },
            {
                "start_time": 49.3931818,
                "end_time": 49.6318182,
                "pitch": 86,
                "velocity": 64,
                "duration": 0.2386364,
                "tempo": 120.0
            },
            {
                "start_time": 49.6659091,
                "end_time": 50.1659091,
                "pitch": 86,
                "velocity": 64,
                "duration": 0.5,
                "tempo": 120.0
            },
            {
                "start_time": 50.2,
                "end_time": 50.4340909,
                "pitch": 93,
                "velocity": 64,
                "duration": 0.2340909,
                "tempo": 120.0
            },
            {
                "start_time": 50.4659091,
                "end_time": 50.7,
                "pitch": 86,
                "velocity": 64,
                "duration": 0.2340909,
                "tempo": 120.0
            },
            {
                "start_time": 50.7181818,
                "end_time": 51.7795455,
                "pitch": 58,
                "velocity": 64,
                "duration": 1.0613636,
                "tempo": 120.0
            },
            {
                "start_time": 51.8136364,
                "end_time": 52.0454545,
                "pitch": 91,
                "velocity": 64,
                "duration": 0.2318182,
                "tempo": 120.0
            },
            {
                "start_time": 52.0795455,
                "end_time": 52.3136364,
                "pitch": 90,
                "velocity": 64,
                "duration": 0.2340909,
                "tempo": 120.0
            },
            {
                "start_time": 52.3477273,
                "end_time": 52.5840909,
                "pitch": 88,
                "velocity": 64,
                "duration": 0.2363636,
                "tempo": 120.0
            },
            {
                "start_time": 52.6181818,
                "end_time": 52.8568182,
                "pitch": 90,
                "velocity": 64,
                "duration": 0.2386364,
                "tempo": 120.0
            },
            {
                "start_time": 52.8909091,
                "end_time": 53.125,
                "pitch": 88,
                "velocity": 64,
                "duration": 0.2340909,
                "tempo": 120.0
            },
            {
                "start_time": 53.1590909,
                "end_time": 53.3909091,
                "pitch": 86,
                "velocity": 64,
                "duration": 0.2318182,
                "tempo": 120.0
            },
            {
                "start_time": 53.425,
                "end_time": 53.6636364,
                "pitch": 88,
                "velocity": 64,
                "duration": 0.2386364,
                "tempo": 120.0
            },
            {
                "start_time": 53.6977273,
                "end_time": 53.9363636,
                "pitch": 86,
                "velocity": 64,
                "duration": 0.2386364,
                "tempo": 120.0
            },
            {
                "start_time": 53.9681818,
                "end_time": 54.2022727,
                "pitch": 88,
                "velocity": 64,
                "duration": 0.2340909,
                "tempo": 120.0
            },
            {
                "start_time": 54.2363636,
                "end_time": 54.4704545,
                "pitch": 90,
                "velocity": 64,
                "duration": 0.2340909,
                "tempo": 120.0
            },
            {
                "start_time": 54.5045455,
                "end_time": 54.7363636,
                "pitch": 88,
                "velocity": 64,
                "duration": 0.2318182,
                "tempo": 120.0
            },
            {
                "start_time": 54.7704545,
                "end_time": 55.0045455,
                "pitch": 86,
                "velocity": 64,
                "duration": 0.2340909,
                "tempo": 120.0
            },
            {
                "start_time": 55.0386364,
                "end_time": 55.2727273,
                "pitch": 85,
                "velocity": 64,
                "duration": 0.2340909,
                "tempo": 120.0
            },
            {
                "start_time": 55.3045455,
                "end_time": 55.5386364,
                "pitch": 86,
                "velocity": 64,
                "duration": 0.2340909,
                "tempo": 120.0
            },
            {
                "start_time": 55.5727273,
                "end_time": 55.8113636,
                "pitch": 85,
                "velocity": 64,
                "duration": 0.2386364,
                "tempo": 120.0
            },
            {
                "start_time": 55.8454545,
                "end_time": 56.0818182,
                "pitch": 88,
                "velocity": 64,
                "duration": 0.2363636,
                "tempo": 120.0
            },
            {
                "start_time": 56.1159091,
                "end_time": 56.35,
                "pitch": 90,
                "velocity": 64,
                "duration": 0.2340909,
                "tempo": 120.0
            },
            {
                "start_time": 56.3840909,
                "end_time": 56.6181818,
                "pitch": 88,
                "velocity": 64,
                "duration": 0.2340909,
                "tempo": 120.0
            },
            {
                "start_time": 56.65,
                "end_time": 56.8840909,
                "pitch": 86,
                "velocity": 64,
                "duration": 0.2340909,
                "tempo": 120.0
            },
            {
                "start_time": 56.9181818,
                "end_time": 57.1522727,
                "pitch": 88,
                "velocity": 64,
                "duration": 0.2340909,
                "tempo": 120.0
            },
            {
                "start_time": 57.1863636,
                "end_time": 57.4227273,
                "pitch": 86,
                "velocity": 64,
                "duration": 0.2363636,
                "tempo": 120.0
            },
            {
                "start_time": 57.4568182,
                "end_time": 57.6954545,
                "pitch": 85,
                "velocity": 64,
                "duration": 0.2386364,
                "tempo": 120.0
            },
            {
                "start_time": 57.7295455,
                "end_time": 57.9636364,
                "pitch": 86,
                "velocity": 64,
                "duration": 0.2340909,
                "tempo": 120.0
            },
            {
                "start_time": 57.9954545,
                "end_time": 58.2295455,
                "pitch": 85,
                "velocity": 64,
                "duration": 0.2340909,
                "tempo": 120.0
            },
            {
                "start_time": 58.2636364,
                "end_time": 58.4977273,
                "pitch": 85,
                "velocity": 64,
                "duration": 0.2340909,
                "tempo": 120.0
            },
            {
                "start_time": 58.5295455,
                "end_time": 58.7636364,
                "pitch": 86,
                "velocity": 64,
                "duration": 0.2340909,
                "tempo": 120.0
            },
            {
                "start_time": 58.7977273,
                "end_time": 59.0363636,
                "pitch": 86,
                "velocity": 64,
                "duration": 0.2386364,
                "tempo": 120.0
            },
            {
                "start_time": 59.0704545,
                "end_time": 59.3090909,
                "pitch": 88,
                "velocity": 64,
                "duration": 0.2386364,
                "tempo": 120.0
            },
            {
                "start_time": 59.3409091,
                "end_time": 59.575,
                "pitch": 86,
                "velocity": 64,
                "duration": 0.2340909,
                "tempo": 120.0
            },
            {
                "start_time": 59.6090909,
                "end_time": 59.8431818,
                "pitch": 88,
                "velocity": 64,
                "duration": 0.2340909,
                "tempo": 120.0
            },
            {
                "start_time": 59.8772727,
                "end_time": 60.1136364,
                "pitch": 88,
                "velocity": 64,
                "duration": 0.2363636,
                "tempo": 120.0
            },
            {
                "start_time": 60.1477273,
                "end_time": 60.3863636,
                "pitch": 90,
                "velocity": 64,
                "duration": 0.2386364,
                "tempo": 120.0
            },
            {
                "start_time": 60.4204545,
                "end_time": 60.6545455,
                "pitch": 91,
                "velocity": 64,
                "duration": 0.2340909,
                "tempo": 120.0
            },
            {
                "start_time": 60.6863636,
                "end_time": 60.9204545,
                "pitch": 90,
                "velocity": 64,
                "duration": 0.2340909,
                "tempo": 120.0
            },
            {
                "start_time": 60.9545455,
                "end_time": 61.1886364,
                "pitch": 88,
                "velocity": 64,
                "duration": 0.2340909,
                "tempo": 120.0
            },
            {
                "start_time": 61.2227273,
                "end_time": 61.4545455,
                "pitch": 90,
                "velocity": 64,
                "duration": 0.2318182,
                "tempo": 120.0
            },
            {
                "start_time": 61.4886364,
                "end_time": 61.7272727,
                "pitch": 88,
                "velocity": 64,
                "duration": 0.2386364,
                "tempo": 120.0
            },
            {
                "start_time": 61.7613636,
                "end_time": 62.0,
                "pitch": 86,
                "velocity": 64,
                "duration": 0.2386364,
                "tempo": 120.0
            },
            {
                "start_time": 62.0318182,
                "end_time": 62.2659091,
                "pitch": 88,
                "velocity": 64,
                "duration": 0.2340909,
                "tempo": 120.0
            },
            {
                "start_time": 62.3,
                "end_time": 62.5340909,
                "pitch": 86,
                "velocity": 64,
                "duration": 0.2340909,
                "tempo": 120.0
            },
            {
                "start_time": 62.5681818,
                "end_time": 62.8,
                "pitch": 88,
                "velocity": 64,
                "duration": 0.2318182,
                "tempo": 120.0
            },
            {
                "start_time": 62.8340909,
                "end_time": 63.0681818,
                "pitch": 90,
                "velocity": 64,
                "duration": 0.2340909,
                "tempo": 120.0
            },
            {
                "start_time": 63.1022727,
                "end_time": 63.3363636,
                "pitch": 88,
                "velocity": 64,
                "duration": 0.2340909,
                "tempo": 120.0
            },
            {
                "start_time": 63.3681818,
                "end_time": 63.6022727,
                "pitch": 86,
                "velocity": 64,
                "duration": 0.2340909,
                "tempo": 120.0
            },
            {
                "start_time": 63.6363636,
                "end_time": 63.875,
                "pitch": 85,
                "velocity": 64,
                "duration": 0.2386364,
                "tempo": 120.0
            },
            {
                "start_time": 63.9090909,
                "end_time": 64.1454545,
                "pitch": 86,
                "velocity": 64,
                "duration": 0.2363636,
                "tempo": 120.0
            },
            {
                "start_time": 64.1795455,
                "end_time": 64.4136364,
                "pitch": 85,
                "velocity": 64,
                "duration": 0.2340909,
                "tempo": 120.0
            },
            {
                "start_time": 64.4477273,
                "end_time": 64.6818182,
                "pitch": 88,
                "velocity": 64,
                "duration": 0.2340909,
                "tempo": 120.0
            },
            {
                "start_time": 64.7136364,
                "end_time": 64.9477273,
                "pitch": 90,
                "velocity": 64,
                "duration": 0.2340909,
                "tempo": 120.0
            },
            {
                "start_time": 64.9818182,
                "end_time": 65.2159091,
                "pitch": 88,
                "velocity": 64,
                "duration": 0.2340909,
                "tempo": 120.0
            },
            {
                "start_time": 65.2477273,
                "end_time": 65.4863636,
                "pitch": 86,
                "velocity": 64,
                "duration": 0.2386364,
                "tempo": 120.0
            },
            {
                "start_time": 65.5204545,
                "end_time": 65.7590909,
                "pitch": 88,
                "velocity": 64,
                "duration": 0.2386364,
                "tempo": 120.0
            },
            {
                "start_time": 65.7931818,
                "end_time": 66.0272727,
                "pitch": 86,
                "velocity": 64,
                "duration": 0.2340909,
                "tempo": 120.0
            },
            {
                "start_time": 66.0590909,
                "end_time": 66.2931818,
                "pitch": 85,
                "velocity": 64,
                "duration": 0.2340909,
                "tempo": 120.0
            },
            {
                "start_time": 66.3272727,
                "end_time": 66.5613636,
                "pitch": 86,
                "velocity": 64,
                "duration": 0.2340909,
                "tempo": 120.0
            },
            {
                "start_time": 66.5931818,
                "end_time": 66.8272727,
                "pitch": 85,
                "velocity": 64,
                "duration": 0.2340909,
                "tempo": 120.0
            },
            {
                "start_time": 66.8613636,
                "end_time": 67.1,
                "pitch": 85,
                "velocity": 64,
                "duration": 0.2386364,
                "tempo": 120.0
            },
            {
                "start_time": 67.1340909,
                "end_time": 67.3704545,
                "pitch": 86,
                "velocity": 64,
                "duration": 0.2363636,
                "tempo": 120.0
            },
            {
                "start_time": 67.4045455,
                "end_time": 67.6386364,
                "pitch": 88,
                "velocity": 64,
                "duration": 0.2340909,
                "tempo": 120.0
            },
            {
                "start_time": 67.6727273,
                "end_time": 67.9068182,
                "pitch": 88,
                "velocity": 64,
                "duration": 0.2340909,
                "tempo": 120.0
            }
        ],
        "Acoustic Guitar (nylon)": [
            {
                "start_time": 17.1340909,
                "end_time": 33.5386364,
                "pitch": 86,
                "velocity": 64,
                "duration": 16.4045455,
                "tempo": 120.0
            },
            {
                "start_time": 33.5386364,
                "end_time": 33.6227273,
                "pitch": 58,
                "velocity": 64,
                "duration": 0.0840909,
                "tempo": 120.0
            },
            {
                "start_time": 33.6227273,
                "end_time": 33.6545455,
                "pitch": 55,
                "velocity": 64,
                "duration": 0.0318182,
                "tempo": 120.0
            },
            {
                "start_time": 33.6545455,
                "end_time": 33.7227273,
                "pitch": 55,
                "velocity": 64,
                "duration": 0.0681818,
                "tempo": 120.0
            },
            {
                "start_time": 33.7227273,
                "end_time": 33.7886364,
                "pitch": 53,
                "velocity": 64,
                "duration": 0.0659091,
                "tempo": 120.0
            },
            {
                "start_time": 33.7886364,
                "end_time": 33.8727273,
                "pitch": 58,
                "velocity": 64,
                "duration": 0.0840909,
                "tempo": 120.0
            },
            {
                "start_time": 33.8727273,
                "end_time": 33.9227273,
                "pitch": 56,
                "velocity": 64,
                "duration": 0.05,
                "tempo": 120.0
            },
            {
                "start_time": 33.9227273,
                "end_time": 33.9886364,
                "pitch": 55,
                "velocity": 64,
                "duration": 0.0659091,
                "tempo": 120.0
            },
            {
                "start_time": 33.9886364,
                "end_time": 34.0568182,
                "pitch": 53,
                "velocity": 64,
                "duration": 0.0681818,
                "tempo": 120.0
            },
            {
                "start_time": 34.0568182,
                "end_time": 34.1727273,
                "pitch": 52,
                "velocity": 64,
                "duration": 0.1159091,
                "tempo": 120.0
            },
            {
                "start_time": 34.1727273,
                "end_time": 34.2727273,
                "pitch": 50,
                "velocity": 64,
                "duration": 0.1,
                "tempo": 120.0
            },
            {
                "start_time": 34.2727273,
                "end_time": 34.3227273,
                "pitch": 48,
                "velocity": 64,
                "duration": 0.05,
                "tempo": 120.0
            },
            {
                "start_time": 34.3409091,
                "end_time": 50.7340909,
                "pitch": 86,
                "velocity": 64,
                "duration": 16.3931818,
                "tempo": 120.0
            },
            {
                "start_time": 50.7340909,
                "end_time": 50.7863636,
                "pitch": 57,
                "velocity": 64,
                "duration": 0.0522727,
                "tempo": 120.0
            },
            {
                "start_time": 50.7863636,
                "end_time": 50.8204545,
                "pitch": 54,
                "velocity": 64,
                "duration": 0.0340909,
                "tempo": 120.0
            },
            {
                "start_time": 50.8204545,
                "end_time": 50.8522727,
                "pitch": 52,
                "velocity": 64,
                "duration": 0.0318182,
                "tempo": 120.0
            },
            {
                "start_time": 50.8522727,
                "end_time": 50.9045455,
                "pitch": 58,
                "velocity": 64,
                "duration": 0.0522727,
                "tempo": 120.0
            },
            {
                "start_time": 50.9045455,
                "end_time": 50.9204545,
                "pitch": 55,
                "velocity": 64,
                "duration": 0.0159091,
                "tempo": 120.0
            },
            {
                "start_time": 50.9204545,
                "end_time": 50.9545455,
                "pitch": 54,
                "velocity": 64,
                "duration": 0.0340909,
                "tempo": 120.0
            },
            {
                "start_time": 50.9545455,
                "end_time": 50.9886364,
                "pitch": 52,
                "velocity": 64,
                "duration": 0.0340909,
                "tempo": 120.0
            },
            {
                "start_time": 50.9886364,
                "end_time": 51.0068182,
                "pitch": 55,
                "velocity": 64,
                "duration": 0.0181818,
                "tempo": 120.0
            },
            {
                "start_time": 51.0068182,
                "end_time": 51.075,
                "pitch": 54,
                "velocity": 64,
                "duration": 0.0681818,
                "tempo": 120.0
            },
            {
                "start_time": 51.075,
                "end_time": 51.1431818,
                "pitch": 52,
                "velocity": 64,
                "duration": 0.0681818,
                "tempo": 120.0
            },
            {
                "start_time": 51.1431818,
                "end_time": 51.1931818,
                "pitch": 50,
                "velocity": 64,
                "duration": 0.05,
                "tempo": 120.0
            },
            {
                "start_time": 51.1931818,
                "end_time": 51.2454545,
                "pitch": 48,
                "velocity": 64,
                "duration": 0.0522727,
                "tempo": 120.0
            },
            {
                "start_time": 51.2454545,
                "end_time": 51.2613636,
                "pitch": 46,
                "velocity": 64,
                "duration": 0.0159091,
                "tempo": 120.0
            },
            {
                "start_time": 51.2613636,
                "end_time": 51.3772727,
                "pitch": 52,
                "velocity": 64,
                "duration": 0.1159091,
                "tempo": 120.0
            },
            {
                "start_time": 51.3772727,
                "end_time": 51.4795455,
                "pitch": 50,
                "velocity": 64,
                "duration": 0.1022727,
                "tempo": 120.0
            },
            {
                "start_time": 51.4795455,
                "end_time": 51.5295455,
                "pitch": 48,
                "velocity": 64,
                "duration": 0.05,
                "tempo": 120.0
            },
            {
                "start_time": 51.5454545,
                "end_time": 67.9386364,
                "pitch": 90,
                "velocity": 64,
                "duration": 16.3931818,
                "tempo": 120.0
            },
            {
                "start_time": 67.9386364,
                "end_time": 67.9886364,
                "pitch": 57,
                "velocity": 64,
                "duration": 0.05,
                "tempo": 120.0
            },
            {
                "start_time": 67.9886364,
                "end_time": 68.0227273,
                "pitch": 54,
                "velocity": 64,
                "duration": 0.0340909,
                "tempo": 120.0
            },
            {
                "start_time": 68.0227273,
                "end_time": 68.0568182,
                "pitch": 52,
                "velocity": 64,
                "duration": 0.0340909,
                "tempo": 120.0
            },
            {
                "start_time": 68.0568182,
                "end_time": 68.1068182,
                "pitch": 58,
                "velocity": 64,
                "duration": 0.05,
                "tempo": 120.0
            },
            {
                "start_time": 68.1068182,
                "end_time": 68.1227273,
                "pitch": 55,
                "velocity": 64,
                "duration": 0.0159091,
                "tempo": 120.0
            },
            {
                "start_time": 68.1227273,
                "end_time": 68.1568182,
                "pitch": 54,
                "velocity": 64,
                "duration": 0.0340909,
                "tempo": 120.0
            },
            {
                "start_time": 68.1568182,
                "end_time": 68.1909091,
                "pitch": 52,
                "velocity": 64,
                "duration": 0.0340909,
                "tempo": 120.0
            },
            {
                "start_time": 68.1909091,
                "end_time": 68.2068182,
                "pitch": 55,
                "velocity": 64,
                "duration": 0.0159091,
                "tempo": 120.0
            },
            {
                "start_time": 68.2068182,
                "end_time": 68.2409091,
                "pitch": 54,
                "velocity": 64,
                "duration": 0.0340909,
                "tempo": 120.0
            },
            {
                "start_time": 68.2409091,
                "end_time": 68.2727273,
                "pitch": 52,
                "velocity": 64,
                "duration": 0.0318182,
                "tempo": 120.0
            },
            {
                "start_time": 68.2727273,
                "end_time": 68.3068182,
                "pitch": 49,
                "velocity": 64,
                "duration": 0.0340909,
                "tempo": 120.0
            },
            {
                "start_time": 68.3068182,
                "end_time": 68.3227273,
                "pitch": 46,
                "velocity": 64,
                "duration": 0.0159091,
                "tempo": 120.0
            },
            {
                "start_time": 68.3227273,
                "end_time": 68.3409091,
                "pitch": 55,
                "velocity": 64,
                "duration": 0.0181818,
                "tempo": 120.0
            },
            {
                "start_time": 68.3409091,
                "end_time": 68.3727273,
                "pitch": 54,
                "velocity": 64,
                "duration": 0.0318182,
                "tempo": 120.0
            },
            {
                "start_time": 68.3727273,
                "end_time": 68.4068182,
                "pitch": 52,
                "velocity": 64,
                "duration": 0.0340909,
                "tempo": 120.0
            },
            {
                "start_time": 68.4068182,
                "end_time": 68.4409091,
                "pitch": 49,
                "velocity": 64,
                "duration": 0.0340909,
                "tempo": 120.0
            },
            {
                "start_time": 68.4409091,
                "end_time": 68.4568182,
                "pitch": 46,
                "velocity": 64,
                "duration": 0.0159091,
                "tempo": 120.0
            },
            {
                "start_time": 68.4568182,
                "end_time": 68.575,
                "pitch": 52,
                "velocity": 64,
                "duration": 0.1181818,
                "tempo": 120.0
            },
            {
                "start_time": 68.575,
                "end_time": 68.675,
                "pitch": 50,
                "velocity": 64,
                "duration": 0.1,
                "tempo": 120.0
            },
            {
                "start_time": 68.675,
                "end_time": 68.725,
                "pitch": 48,
                "velocity": 64,
                "duration": 0.05,
                "tempo": 120.0
            }
        ]
    }
}