{
    "mood": "happy",
    "instruments": {
        "Lead 2 (sawtooth)": [
            {
                "start_time": 7.3681818,
                "end_time": 7.4704545,
                "pitch": 73,
                "velocity": 64,
                "duration": 0.1022727,
                "tempo": 120.0
            },
            {
                "start_time": 7.5204545,
                "end_time": 7.6204545,
                "pitch": 73,
                "velocity": 64,
                "duration": 0.1,
                "tempo": 120.0
            },
            {
                "start_time": 7.6704545,
                "end_time": 7.9204545,
                "pitch": 74,
                "velocity": 64,
                "duration": 0.25,
                "tempo": 120.0
            },
            {
                "start_time": 7.9704545,
                "end_time": 8.0704545,
                "pitch": 76,
                "velocity": 64,
                "duration": 0.1,
                "tempo": 120.0
            },
            {
                "start_time": 8.1204545,
                "end_time": 8.2227273,
                "pitch": 81,
                "velocity": 64,
                "duration": 0.1022727,
                "tempo": 120.0
            },
            {
                "start_time": 8.2727273,
                "end_time": 8.825,
                "pitch": 79,
                "velocity": 64,
                "duration": 0.5522727,
                "tempo": 120.0
            },
            {
                "start_time": 8.875,
                "end_time": 9.6431818,
                "pitch": 78,
                "velocity": 64,
                "duration": 0.7681818,
                "tempo": 120.0
            },
            {
                "start_time": 9.6431818,
                "end_time": 9.725,
                "pitch": 73,
                "velocity": 64,
                "duration": 0.0818182,
                "tempo": 120.0
            },
            {
                "start_time": 9.775,
                "end_time": 9.875,
                "pitch": 73,
                "velocity": 64,
                "duration": 0.1,
                "tempo": 120.0
            },
            {
                "start_time": 9.925,
                "end_time": 10.025,
                "pitch": 73,
                "velocity": 64,
                "duration": 0.1,
                "tempo": 120.0
            },
            {
                "start_time": 10.075,
                "end_time": 10.325,
                "pitch": 74,
                "velocity": 64,
                "duration": 0.25,
                "tempo": 120.0
            },
            {
                "start_time": 10.375,
                "end_time": 10.4772727,
                "pitch": 76,
                "velocity": 64,
                "duration": 0.1022727,
                "tempo": 120.0
            },
            {
                "start_time": 10.5272727,
                "end_time": 10.6272727,
                "pitch": 81,
                "velocity": 64,
                "duration": 0.1,
                "tempo": 120.0
            },
            {
                "start_time": 10.6772727,
                "end_time": 11.2318182,
                "pitch": 79,
                "velocity": 64,
                "duration": 0.5545455,
                "tempo": 120.0
            },
            {
                "start_time": 11.2818182,
                "end_time": 12.0477273,
                "pitch": 78,
                "velocity": 64,
                "duration": 0.7659091,
                "tempo": 120.0
            },
            {
                "start_time": 12.0477273,
                "end_time": 12.1318182,
                "pitch": 73,
                "velocity": 64,
                "duration": 0.0840909,
                "tempo": 120.0
            },
            {
                "start_time": 12.1818182,
                "end_time": 12.2818182,
                "pitch": 73,
                "velocity": 64,
                "duration": 0.1,
                "tempo": 120.0
            },
            {
                "start_time": 12.3318182,
                "end_time": 12.4318182,
                "pitch": 73,
                "velocity": 64,
                "duration": 0.1,
                "tempo": 120.0
            },
            {
                "start_time": 12.4818182,
                "end_time": 12.7318182,
                "pitch": 74,
                "velocity": 64,
                "duration": 0.25,
                "tempo": 120.0
            },
            {
                "start_time": 12.7818182,
                "end_time": 12.8818182,
                "pitch": 76,
                "velocity": 64,
                "duration": 0.1,
                "tempo": 120.0
            },
            {
                "start_time": 12.9318182,
                "end_time": 13.0318182,
                "pitch": 81,
                "velocity": 64,
                "duration": 0.1,
                "tempo": 120.0
            },
            {
                "start_time": 13.0818182,
                "end_time": 13.6340909,
                "pitch": 79,
                "velocity": 64,
                "duration": 0.5522727,
                "tempo": 120.0
            },
            {
                "start_time": 13.6840909,
                "end_time": 14.4545455,
                "pitch": 78,
                "velocity": 64,
                "duration": 0.7704545,
                "tempo": 120.0
            },
            {
                "start_time": 14.4545455,
                "end_time": 14.6886364,
                "pitch": 72,
                "velocity": 64,
                "duration": 0.2340909,
                "tempo": 120.0
            },
            {
                "start_time": 14.7386364,
                "end_time": 14.8386364,
                "pitch": 74,
                "velocity": 64,
                "duration": 0.1,
                "tempo": 120.0
            },
            {
                "start_time": 14.8886364,
                "end_time": 14.9886364,
                "pitch": 76,
                "velocity": 64,
                "duration": 0.1,
                "tempo": 120.0
            },
            {
                "start_time": 15.0386364,
                "end_time": 15.2886364,
                "pitch": 74,
                "velocity": 64,
                "duration": 0.25,
                "tempo": 120.0
            },
            {
                "start_time": 15.3386364,
                "end_time": 15.5886364,
                "pitch": 72,
                "velocity": 64,
                "duration": 0.25,
                "tempo": 120.0
            },
            {
                "start_time": 15.6386364,
                "end_time": 15.7386364,
                "pitch": 71,
                "velocity": 64,
                "duration": 0.1,
                "tempo": 120.0
            },
            {
                "start_time": 15.7886364,
                "end_time": 15.8886364,
                "pitch": 71,
                "velocity": 64,
                "duration": 0.1,
                "tempo": 120.0
            },
            {
                "start_time": 15.9386364,
                "end_time": 16.0409091,
                "pitch": 72,
                "velocity": 64,
                "duration": 0.1022727,
                "tempo": 120.0
            },
            {
                "start_time": 16.0931818,
                "end_time": 16.1954545,
                "pitch": 74,
                "velocity": 64,
                "duration": 0.1022727,
                "tempo": 120.0
            },
            {
                "start_time": 16.85,
                "end_time": 16.95,
                "pitch": 73,
                "velocity": 64,
                "duration": 0.1,
                "tempo": 120.0
            },
            {
                "start_time": 17.0,
                "end_time": 17.1,
                "pitch": 73,
                "velocity": 64,
                "duration": 0.1,
                "tempo": 120.0
            },
            {
                "start_time": 17.15,
                "end_time": 17.2477273,
                "pitch": 73,
                "velocity": 64,
                "duration": 0.0977273,
                "tempo": 120.0
            },
            {
                "start_time": 17.2977273,
                "end_time": 17.5454545,
                "pitch": 74,
                "velocity": 64,
                "duration": 0.2477273,
                "tempo": 120.0
            },
            {
                "start_time": 17.5954545,
                "end_time": 17.6954545,
                "pitch": 76,
                "velocity": 64,
                "duration": 0.1,
                "tempo": 120.0
            },
            {
                "start_time": 17.7454545,
                "end_time": 17.8454545,
                "pitch": 81,
                "velocity": 64,
                "duration": 0.1,
                "tempo": 120.0
            },
            {
                "start_time": 17.8977273,
                "end_time": 18.45,
                "pitch": 79,
                "velocity": 64,
                "duration": 0.5522727,
                "tempo": 120.0
            },
            {
                "start_time": 18.5,
                "end_time": 19.2704545,
                "pitch": 78,
                "velocity": 64,
                "duration": 0.7704545,
                "tempo": 120.0
            },
            {
                "start_time": 19.2704545,
                "end_time": 19.3545455,
                "pitch": 73,
                "velocity": 64,
                "duration": 0.0840909,
                "tempo": 120.0
            },
            {
                "start_time": 19.4068182,
                "end_time": 19.5068182,
                "pitch": 73,
                "velocity": 64,
                "duration": 0.1,
                "tempo": 120.0
            },
            {
                "start_time": 19.5568182,
                "end_time": 19.6568182,
                "pitch": 73,
                "velocity": 64,
                "duration": 0.1,
                "tempo": 120.0
            },
            {
                "start_time": 19.7068182,
                "end_time": 19.9568182,
                "pitch": 74,
                "velocity": 64,
                "duration": 0.25,
                "tempo": 120.0
            },
            {
                "start_time": 20.0068182,
                "end_time": 20.1068182,
                "pitch": 76,
                "velocity": 64,
                "duration": 0.1,
                "tempo": 120.0
            },
            {
                "start_time": 20.1568182,
                "end_time": 20.2590909,
                "pitch": 81,
                "velocity": 64,
                "duration": 0.1022727,
                "tempo": 120.0
            },
            {
                "start_time": 20.3090909,
                "end_time": 20.8636364,
                "pitch": 79,
                "velocity": 64,
                "duration": 0.5545455,
                "tempo": 120.0
            },
            {
                "start_time": 20.9159091,
                "end_time": 21.6840909,
                "pitch": 78,
                "velocity": 64,
                "duration": 0.7681818,
                "tempo": 120.0
            },
            {
                "start_time": 21.6840909,
                "end_time": 21.7681818,
                "pitch": 73,
                "velocity": 64,
                "duration": 0.0840909,
                "tempo": 120.0
            },
            {
                "start_time": 21.8181818,
                "end_time": 21.9181818,
                "pitch": 73,
                "velocity": 64,
                "duration": 0.1,
                "tempo": 120.0
            },
            {
                "start_time": 21.9704545,
                "end_time": 22.0704545,
                "pitch": 73,
                "velocity": 64,
                "duration": 0.1,
                "tempo": 120.0
            },
            {
                "start_time": 22.1204545,
                "end_time": 22.3727273,
                "pitch": 74,
                "velocity": 64,
                "duration": 0.2522727,
                "tempo": 120.0
            },
            {
                "start_time": 22.425,
                "end_time": 22.525,
                "pitch": 76,
                "velocity": 64,
                "duration": 0.1,
                "tempo": 120.0
            },
            {
                "start_time": 22.575,
                "end_time": 22.675,
                "pitch": 81,
                "velocity": 64,
                "duration": 0.1,
                "tempo": 120.0
            },
            {
                "start_time": 22.725,
                "end_time": 23.2772727,
                "pitch": 79,
                "velocity": 64,
                "duration": 0.5522727,
                "tempo": 120.0
            },
            {
                "start_time": 23.3272727,
                "end_time": 24.1022727,
                "pitch": 78,
                "velocity": 64,
                "duration": 0.775,
                "tempo": 120.0
            },
            {
                "start_time": 24.1022727,
                "end_time": 24.3363636,
                "pitch": 72,
                "velocity": 64,
                "duration": 0.2340909,
                "tempo": 120.0
            },
            {
                "start_time": 24.3863636,
                "end_time": 24.4863636,
                "pitch": 74,
                "velocity": 64,
                "duration": 0.1,
                "tempo": 120.0
            },
            {
                "start_time": 24.5363636,
                "end_time": 24.6363636,
                "pitch": 76,
                "velocity": 64,
                "duration": 0.1,
                "tempo": 120.0
            },
            {
                "start_time": 24.6863636,
                "end_time": 24.9363636,
                "pitch": 74,
                "velocity": 64,
                "duration": 0.25,
                "tempo": 120.0
            },
            {
                "start_time": 24.9886364,
                "end_time": 25.2409091,
                "pitch": 72,
                "velocity": 64,
                "duration": 0.2522727,
                "tempo": 120.0
            },
            {
                "start_time": 25.2909091,
                "end_time": 25.3909091,
                "pitch": 71,
                "velocity": 64,
                "duration": 0.1,
                "tempo": 120.0
            },
            {
                "start_time": 25.4431818,
                "end_time": 25.7,
                "pitch": 71,
                "velocity": 64,
                "duration": 0.2568182,
                "tempo": 120.0
            },
            {
                "start_time": 25.7522727,
                "end_time": 26.0136364,
                "pitch": 72,
                "velocity": 64,
                "duration": 0.2613636,
                "tempo": 120.0
            },
            {
                "start_time": 26.0636364,
                "end_time": 26.3159091,
                "pitch": 72,
                "velocity": 64,
                "duration": 0.2522727,
                "tempo": 120.0
            },
            {
                "start_time": 26.3659091,
                "end_time": 26.4636364,
                "pitch": 74,
                "velocity": 64,
                "duration": 0.0977273,
                "tempo": 120.0
            }
        ],
        "Vibraphone": [
            {
                "start_time": 0.0454545,
                "end_time": 0.1113636,
                "pitch": 73,
                "velocity": 64,
                "duration": 0.0659091,
                "tempo": 120.0
            },
            {
                "start_time": 0.1454545,
                "end_time": 0.2272727,
                "pitch": 73,
                "velocity": 64,
                "duration": 0.0818182,
                "tempo": 120.0
            },
            {
                "start_time": 0.2772727,
                "end_time": 0.3795455,
                "pitch": 73,
                "velocity": 64,
                "duration": 0.1022727,
                "tempo": 120.0
            },
            {
                "start_time": 0.4295455,
                "end_time": 0.6818182,
                "pitch": 71,
                "velocity": 64,
                "duration": 0.2522727,
                "tempo": 120.0
            },
            {
                "start_time": 0.7318182,
                "end_time": 0.9818182,
                "pitch": 69,
                "velocity": 64,
                "duration": 0.25,
                "tempo": 120.0
            },
            {
                "start_time": 1.0318182,
                "end_time": 1.1318182,
                "pitch": 67,
                "velocity": 64,
                "duration": 0.1,
                "tempo": 120.0
            },
            {
                "start_time": 1.1818182,
                "end_time": 1.2818182,
                "pitch": 71,
                "velocity": 64,
                "duration": 0.1,
                "tempo": 120.0
            },
            {
                "start_time": 1.3318182,
                "end_time": 1.4318182,
                "pitch": 71,
                "velocity": 64,
                "duration": 0.1,
                "tempo": 120.0
            },
            {
                "start_time": 1.4818182,
                "end_time": 1.5795455,
                "pitch": 71,
                "velocity": 64,
                "duration": 0.0977273,
                "tempo": 120.0
            },
            {
                "start_time": 1.6295455,
                "end_time": 1.8772727,
                "pitch": 69,
                "velocity": 64,
                "duration": 0.2477273,
                "tempo": 120.0
            },
            {
                "start_time": 1.9272727,
                "end_time": 2.1818182,
                "pitch": 67,
                "velocity": 64,
                "duration": 0.2545455,
                "tempo": 120.0
            },
            {
                "start_time": 2.2318182,
                "end_time": 2.3340909,
                "pitch": 66,
                "velocity": 64,
                "duration": 0.1022727,
                "tempo": 120.0
            },
            {
                "start_time": 2.3840909,
                "end_time": 2.4863636,
                "pitch": 67,
                "velocity": 64,
                "duration": 0.1022727,
                "tempo": 120.0
            },
            {
                "start_time": 2.9931818,
                "end_time": 3.0931818,
                "pitch": 67,
                "velocity": 64,
                "duration": 0.1,
                "tempo": 120.0
            },
            {
                "start_time": 3.1454545,
                "end_time": 3.2454545,
                "pitch": 66,
                "velocity": 64,
                "duration": 0.1,
                "tempo": 120.0
            },
            {
                "start_time": 3.2954545,
                "end_time": 3.3977273,
                "pitch": 64,
                "velocity": 64,
                "duration": 0.1022727,
                "tempo": 120.0
            },
            {
                "start_time": 3.4477273,
                "end_time": 3.5477273,
                "pitch": 67,
                "velocity": 64,
                "duration": 0.1,
                "tempo": 120.0
            },
            {
                "start_time": 4.3340909,
                "end_time": 4.4340909,
                "pitch": 71,
                "velocity": 64,
                "duration": 0.1,
                "tempo": 120.0
            },
            {
                "start_time": 4.4863636,
                "end_time": 4.5909091,
                "pitch": 69,
                "velocity": 64,
                "duration": 0.1045455,
                "tempo": 120.0
            },
            {
                "start_time": 4.6431818,
                "end_time": 4.7477273,
                "pitch": 67,
                "velocity": 64,
                "duration": 0.1045455,
                "tempo": 120.0
            },
            {
                "start_time": 4.8,
                "end_time": 5.4363636,
                "pitch": 66,
                "velocity": 64,
                "duration": 0.6363636,
                "tempo": 120.0
            },
            {
                "start_time": 5.4704545,
                "end_time": 5.7363636,
                "pitch": 62,
                "velocity": 64,
                "duration": 0.2659091,
                "tempo": 120.0
            },
            {
                "start_time": 5.7704545,
                "end_time": 5.9590909,
                "pitch": 62,
                "velocity": 64,
                "duration": 0.1886364,
                "tempo": 120.0
            },
            {
                "start_time": 6.0090909,
                "end_time": 7.0818182,
                "pitch": 66,
                "velocity": 64,
                "duration": 1.0727273,
                "tempo": 120.0
            },
            {
                "start_time": 7.0818182,
                "end_time": 7.1159091,
                "pitch": 66,
                "velocity": 64,
                "duration": 0.0340909,
                "tempo": 120.0
            },
            {
                "start_time": 7.1681818,
                "end_time": 8.925,
                "pitch": 73,
                "velocity": 64,
                "duration": 1.7568182,
                "tempo": 120.0
            },
            {
                "start_time": 8.975,
                "end_time": 9.075,
                "pitch": 74,
                "velocity": 64,
                "duration": 0.1,
                "tempo": 120.0
            },
            {
                "start_time": 9.125,
                "end_time": 9.225,
                "pitch": 73,
                "velocity": 64,
                "duration": 0.1,
                "tempo": 120.0
            },
            {
                "start_time": 9.275,
                "end_time": 9.375,
                "pitch": 71,
                "velocity": 64,
                "duration": 0.1,
                "tempo": 120.0
            },
            {
                "start_time": 9.425,
                "end_time": 9.525,
                "pitch": 69,
                "velocity": 64,
                "duration": 0.1,
                "tempo": 120.0
            },
            {
                "start_time": 9.575,
                "end_time": 11.3318182,
                "pitch": 73,
                "velocity": 64,
                "duration": 1.7568182,
                "tempo": 120.0
            },
            {
                "start_time": 11.3818182,
                "end_time": 11.6318182,
                "pitch": 74,
                "velocity": 64,
                "duration": 0.25,
                "tempo": 120.0
            },
            {
                "start_time": 11.6818182,
                "end_time": 11.9318182,
                "pitch": 73,
                "velocity": 64,
                "duration": 0.25,
                "tempo": 120.0
            },
            {
                "start_time": 11.9818182,
                "end_time": 13.7340909,
                "pitch": 73,
                "velocity": 64,
                "duration": 1.7522727,
                "tempo": 120.0
            },
            {
                "start_time": 13.7863636,
                "end_time": 13.8863636,
                "pitch": 74,
                "velocity": 64,
                "duration": 0.1,
                "tempo": 120.0
            },
            {
                "start_time": 13.9363636,
                "end_time": 14.0386364,
                "pitch": 73,
                "velocity": 64,
                "duration": 0.1022727,
                "tempo": 120.0
            },
            {
                "start_time": 14.0886364,
                "end_time": 14.1886364,
                "pitch": 71,
                "velocity": 64,
                "duration": 0.1,
                "tempo": 120.0
            },
            {
                "start_time": 14.2386364,
                "end_time": 14.3386364,
                "pitch": 69,
                "velocity": 64,
                "duration": 0.1,
                "tempo": 120.0
            },
            {
                "start_time": 14.3886364,
                "end_time": 14.6386364,
                "pitch": 72,
                "velocity": 64,
                "duration": 0.25,
                "tempo": 120.0
            },
            {
                "start_time": 14.6886364,
                "end_time": 14.7886364,
                "pitch": 74,
                "velocity": 64,
                "duration": 0.1,
                "tempo": 120.0
            },
            {
                "start_time": 14.8386364,
                "end_time": 14.9386364,
                "pitch": 76,
                "velocity": 64,
                "duration": 0.1,
                "tempo": 120.0
            },
            {
                "start_time": 14.9886364,
                "end_time": 15.2386364,
                "pitch": 74,
                "velocity": 64,
                "duration": 0.25,
                "tempo": 120.0
            },
            {
                "start_time": 15.2886364,
                "end_time": 15.5386364,
                "pitch": 72,
                "velocity": 64,
                "duration": 0.25,
                "tempo": 120.0
            },
            {
                "start_time": 15.5886364,
                "end_time": 18.4659091,
                "pitch": 69,
                "velocity": 64,
                "duration": 2.8772727,
                "tempo": 120.0
            },
            {
                "start_time": 18.4659091,
                "end_time": 18.55,
                "pitch": 73,
                "velocity": 64,
                "duration": 0.0840909,
                "tempo": 120.0
            },
            {
                "start_time": 18.6,
                "end_time": 18.7,
                "pitch": 74,
                "velocity": 64,
                "duration": 0.1,
                "tempo": 120.0
            },
            {
                "start_time": 18.75,
                "end_time": 18.85,
                "pitch": 73,
                "velocity": 64,
                "duration": 0.1,
                "tempo": 120.0
            },
            {
                "start_time": 18.9,
                "end_time": 19.0022727,
                "pitch": 71,
                "velocity": 64,
                "duration": 0.1022727,
                "tempo": 120.0
            },
            {
                "start_time": 19.0522727,
                "end_time": 19.1522727,
                "pitch": 69,
                "velocity": 64,
                "duration": 0.1,
                "tempo": 120.0
            },
            {
                "start_time": 19.2045455,
                "end_time": 20.9659091,
                "pitch": 73,
                "velocity": 64,
                "duration": 1.7613636,
                "tempo": 120.0
            },
            {
                "start_time": 21.0159091,
                "end_time": 21.2681818,
                "pitch": 74,
                "velocity": 64,
                "duration": 0.2522727,
                "tempo": 120.0
            },
            {
                "start_time": 21.3181818,
                "end_time": 21.5681818,
                "pitch": 73,
                "velocity": 64,
                "duration": 0.25,
                "tempo": 120.0
            },
            {
                "start_time": 21.6181818,
                "end_time": 23.3772727,
                "pitch": 73,
                "velocity": 64,
                "duration": 1.7590909,
                "tempo": 120.0
            },
            {
                "start_time": 23.4272727,
                "end_time": 23.5295455,
                "pitch": 74,
                "velocity": 64,
                "duration": 0.1022727,
                "tempo": 120.0
            },
            {
                "start_time": 23.5795455,
                "end_time": 23.6795455,
                "pitch": 73,
                "velocity": 64,
                "duration": 0.1,
                "tempo": 120.0
            },
            {
                "start_time": 23.7318182,
                "end_time": 23.8318182,
                "pitch": 71,
                "velocity": 64,
                "duration": 0.1,
                "tempo": 120.0
            },
            {
                "start_time": 23.8818182,
                "end_time": 23.9840909,
                "pitch": 69,
                "velocity": 64,
                "duration": 0.1022727,
                "tempo": 120.0
            },
            {
                "start_time": 24.0340909,
                "end_time": 24.2863636,
                "pitch": 72,
                "velocity": 64,
                "duration": 0.2522727,
                "tempo": 120.0
            },
            {
                "start_time": 24.3363636,
                "end_time": 24.4363636,
                "pitch": 74,
                "velocity": 64,
                "duration": 0.1,
                "tempo": 120.0
            },
            {
                "start_time": 24.4863636,
                "end_time": 24.5863636,
                "pitch": 76,
                "velocity": 64,
                "duration": 0.1,
                "tempo": 120.0
            },
            {
                "start_time": 24.6363636,
                "end_time": 24.8863636,
                "pitch": 74,
                "velocity": 64,
                "duration": 0.25,
                "tempo": 120.0
            },
            {
                "start_time": 24.9363636,
                "end_time": 25.1886364,
                "pitch": 72,
                "velocity": 64,
                "duration": 0.2522727,
                "tempo": 120.0
            }
        ],
        "Trumpet": [
            {
                "start_time": 27.5727273,
                "end_time": 27.8386364,
                "pitch": 79,
                "velocity": 64,
                "duration": 0.2659091,
                "tempo": 120.0
            },
            {
                "start_time": 27.8727273,
                "end_time": 27.9886364,
                "pitch": 81,
                "velocity": 64,
                "duration": 0.1159091,
                "tempo": 120.0
            },
            {
                "start_time": 28.0227273,
                "end_time": 28.1409091,
                "pitch": 82,
                "velocity": 64,
                "duration": 0.1181818,
                "tempo": 120.0
            },
            {
                "start_time": 28.175,
                "end_time": 28.4431818,
                "pitch": 81,
                "velocity": 64,
                "duration": 0.2681818,
                "tempo": 120.0
            },
            {
                "start_time": 28.4772727,
                "end_time": 28.5954545,
                "pitch": 79,
                "velocity": 64,
                "duration": 0.1181818,
                "tempo": 120.0
            },
            {
                "start_time": 28.6272727,
                "end_time": 29.9522727,
                "pitch": 77,
                "velocity": 64,
                "duration": 1.325,
                "tempo": 120.0
            },
            {
                "start_time": 29.9863636,
                "end_time": 30.2568182,
                "pitch": 75,
                "velocity": 64,
                "duration": 0.2704545,
                "tempo": 120.0
            },
            {
                "start_time": 30.2909091,
                "end_time": 30.4068182,
                "pitch": 77,
                "velocity": 64,
                "duration": 0.1159091,
                "tempo": 120.0
            },
            {
                "start_time": 30.4409091,
                "end_time": 30.5568182,
                "pitch": 79,
                "velocity": 64,
                "duration": 0.1159091,
                "tempo": 120.0
            },
            {
                "start_time": 30.5909091,
                "end_time": 30.8568182,
                "pitch": 77,
                "velocity": 64,
                "duration": 0.2659091,
                "tempo": 120.0
            },
            {
                "start_time": 30.8909091,
                "end_time": 31.0068182,
                "pitch": 75,
                "velocity": 64,
                "duration": 0.1159091,
                "tempo": 120.0
            },
            {
                "start_time": 31.0409091,
                "end_time": 32.3659091,
                "pitch": 74,
                "velocity": 64,
                "duration": 1.325,
                "tempo": 120.0
            },
            {
                "start_time": 32.4,
                "end_time": 32.6681818,
                "pitch": 72,
                "velocity": 64,
                "duration": 0.2681818,
                "tempo": 120.0
            },
            {
                "start_time": 32.7022727,
                "end_time": 32.8204545,
                "pitch": 74,
                "velocity": 64,
                "duration": 0.1181818,
                "tempo": 120.0
            },
            {
                "start_time": 32.8545455,
                "end_time": 32.9704545,
                "pitch": 75,
                "velocity": 64,
                "duration": 0.1159091,
                "tempo": 120.0
            },
            {
                "start_time": 33.0045455,
                "end_time": 33.275,
                "pitch": 74,
                "velocity": 64,
                "duration": 0.2704545,
                "tempo": 120.0
            },
            {
                "start_time": 33.3090909,
                "end_time": 33.425,
                "pitch": 72,
                "velocity": 64,
                "duration": 0.1159091,
                "tempo": 120.0
            },
            {
                "start_time": 33.4590909,
                "end_time": 34.9340909,
                "pitch": 74,
                "velocity": 64,
                "duration": 1.475,
                "tempo": 120.0
            },
            {
                "start_time": 34.9681818,
                "end_time": 35.0863636,
                "pitch": 72,
                "velocity": 64,
                "duration": 0.1181818,
                "tempo": 120.0
            },
            {
                "start_time": 35.1204545,
                "end_time": 35.3886364,
                "pitch": 72,
                "velocity": 64,
                "duration": 0.2681818,
                "tempo": 120.0
            },
            {
                "start_time": 35.4227273,
                "end_time": 35.6931818,
                "pitch": 74,
                "velocity": 64,
                "duration": 0.2704545,
                "tempo": 120.0
            },
            {
                "start_time": 35.7272727,
                "end_time": 35.8613636,
                "pitch": 74,
                "velocity": 64,
                "duration": 0.1340909,
                "tempo": 120.0
            },
            {
                "start_time": 39.8113636,
                "end_time": 39.9295455,
                "pitch": 79,
                "velocity": 64,
                "duration": 0.1181818,
                "tempo": 120.0
            },
            {
                "start_time": 39.9636364,
                "end_time": 40.2295455,
                "pitch": 75,
                "velocity": 64,
                "duration": 0.2659091,
                "tempo": 120.0
            },
            {
                "start_time": 40.2636364,
                "end_time": 40.5295455,
                "pitch": 70,
                "velocity": 64,
                "duration": 0.2659091,
                "tempo": 120.0
            },
            {
                "start_time": 40.5636364,
                "end_time": 40.8318182,
                "pitch": 70,
                "velocity": 64,
                "duration": 0.2681818,
                "tempo": 120.0
            },
            {
                "start_time": 40.8659091,
                "end_time": 42.0431818,
                "pitch": 72,
                "velocity": 64,
                "duration": 1.1772727,
                "tempo": 120.0
            },
            {
                "start_time": 42.0772727,
                "end_time": 42.3136364,
                "pitch": 74,
                "velocity": 64,
                "duration": 0.2363636,
                "tempo": 120.0
            },
            {
                "start_time": 42.3818182,
                "end_time": 42.4977273,
                "pitch": 74,
                "velocity": 64,
                "duration": 0.1159091,
                "tempo": 120.0
            },
            {
                "start_time": 42.5318182,
                "end_time": 42.8022727,
                "pitch": 75,
                "velocity": 64,
                "duration": 0.2704545,
                "tempo": 120.0
            },
            {
                "start_time": 42.8363636,
                "end_time": 42.9522727,
                "pitch": 74,
                "velocity": 64,
                "duration": 0.1159091,
                "tempo": 120.0
            },
            {
                "start_time": 42.9863636,
                "end_time": 43.2545455,
                "pitch": 75,
                "velocity": 64,
                "duration": 0.2681818,
                "tempo": 120.0
            },
            {
                "start_time": 43.2863636,
                "end_time": 44.6136364,
                "pitch": 77,
                "velocity": 64,
                "duration": 1.3272727,
                "tempo": 120.0
            },
            {
                "start_time": 44.6477273,
                "end_time": 44.7659091,
                "pitch": 77,
                "velocity": 64,
                "duration": 0.1181818,
                "tempo": 120.0
            },
            {
                "start_time": 44.8,
                "end_time": 44.9181818,
                "pitch": 77,
                "velocity": 64,
                "duration": 0.1181818,
                "tempo": 120.0
            },
            {
                "start_time": 44.9522727,
                "end_time": 45.0704545,
                "pitch": 77,
                "velocity": 64,
                "duration": 0.1181818,
                "tempo": 120.0
            },
            {
                "start_time": 45.1045455,
                "end_time": 45.275,
                "pitch": 77,
                "velocity": 64,
                "duration": 0.1704545,
                "tempo": 120.0
            }
        ],
        "Electric Guitar (clean)": [
            {
                "start_time": 0.0886364,
                "end_time": 0.1659091,
                "pitch": 57,
                "velocity": 40,
                "duration": 0.0772727,
                "tempo": 120.0
            },
            {
                "start_time": 0.1931818,
                "end_time": 0.3113636,
                "pitch": 57,
                "velocity": 40,
                "duration": 0.1181818,
                "tempo": 120.0
            },
            {
                "start_time": 0.3454545,
                "end_time": 0.6136364,
                "pitch": 57,
                "velocity": 40,
                "duration": 0.2681818,
                "tempo": 120.0
            },
            {
                "start_time": 0.6477273,
                "end_time": 0.9159091,
                "pitch": 57,
                "velocity": 40,
                "duration": 0.2681818,
                "tempo": 120.0
            },
            {
                "start_time": 0.95,
                "end_time": 1.0659091,
                "pitch": 57,
                "velocity": 40,
                "duration": 0.1159091,
                "tempo": 120.0
            },
            {
                "start_time": 1.1,
                "end_time": 1.2159091,
                "pitch": 55,
                "velocity": 40,
                "duration": 0.1159091,
                "tempo": 120.0
            },
            {
                "start_time": 1.25,
                "end_time": 1.3659091,
                "pitch": 55,
                "velocity": 40,
                "duration": 0.1159091,
                "tempo": 120.0
            },
            {
                "start_time": 1.4,
                "end_time": 1.5136364,
                "pitch": 55,
                "velocity": 40,
                "duration": 0.1136364,
                "tempo": 120.0
            },
            {
                "start_time": 1.5477273,
                "end_time": 1.8113636,
                "pitch": 55,
                "velocity": 40,
                "duration": 0.2636364,
                "tempo": 120.0
            },
            {
                "start_time": 1.8454545,
                "end_time": 2.1136364,
                "pitch": 55,
                "velocity": 40,
                "duration": 0.2681818,
                "tempo": 120.0
            },
            {
                "start_time": 2.1477273,
                "end_time": 2.2659091,
                "pitch": 55,
                "velocity": 40,
                "duration": 0.1181818,
                "tempo": 120.0
            },
            {
                "start_time": 2.3,
                "end_time": 2.4181818,
                "pitch": 50,
                "velocity": 40,
                "duration": 0.1181818,
                "tempo": 120.0
            },
            {
                "start_time": 2.9090909,
                "end_time": 3.0272727,
                "pitch": 50,
                "velocity": 40,
                "duration": 0.1181818,
                "tempo": 120.0
            },
            {
                "start_time": 3.0613636,
                "end_time": 3.1772727,
                "pitch": 49,
                "velocity": 40,
                "duration": 0.1159091,
                "tempo": 120.0
            },
            {
                "start_time": 3.2113636,
                "end_time": 3.3295455,
                "pitch": 47,
                "velocity": 40,
                "duration": 0.1181818,
                "tempo": 120.0
            },
            {
                "start_time": 3.3636364,
                "end_time": 3.4818182,
                "pitch": 45,
                "velocity": 40,
                "duration": 0.1181818,
                "tempo": 120.0
            },
            {
                "start_time": 4.2545455,
                "end_time": 4.3659091,
                "pitch": 50,
                "velocity": 40,
                "duration": 0.1113636,
                "tempo": 120.0
            },
            {
                "start_time": 4.4,
                "end_time": 4.5204545,
                "pitch": 49,
                "velocity": 40,
                "duration": 0.1204545,
                "tempo": 120.0
            },
            {
                "start_time": 4.5568182,
                "end_time": 4.6772727,
                "pitch": 47,
                "velocity": 40,
                "duration": 0.1204545,
                "tempo": 120.0
            },
            {
                "start_time": 4.7136364,
                "end_time": 4.8340909,
                "pitch": 45,
                "velocity": 40,
                "duration": 0.1204545,
                "tempo": 120.0
            },
            {
                "start_time": 5.4704545,
                "end_time": 5.7363636,
                "pitch": 50,
                "velocity": 40,
                "duration": 0.2659091,
                "tempo": 120.0
            },
            {
                "start_time": 5.7704545,
                "end_time": 5.8909091,
                "pitch": 50,
                "velocity": 40,
                "duration": 0.1204545,
                "tempo": 120.0
            },
            {
                "start_time": 5.925,
                "end_time": 6.0431818,
                "pitch": 50,
                "velocity": 40,
                "duration": 0.1181818,
                "tempo": 120.0
            },
            {
                "start_time": 7.1340909,
                "end_time": 7.2522727,
                "pitch": 49,
                "velocity": 40,
                "duration": 0.1181818,
                "tempo": 120.0
            },
            {
                "start_time": 7.2840909,
                "end_time": 7.4022727,
                "pitch": 49,
                "velocity": 40,
                "duration": 0.1181818,
                "tempo": 120.0
            },
            {
                "start_time": 7.4363636,
                "end_time": 7.6704545,
                "pitch": 49,
                "velocity": 40,
                "duration": 0.2340909,
                "tempo": 120.0
            },
            {
                "start_time": 7.7204545,
                "end_time": 7.9022727,
                "pitch": 45,
                "velocity": 40,
                "duration": 0.1818182,
                "tempo": 120.0
            },
            {
                "start_time": 7.9363636,
                "end_time": 8.0022727,
                "pitch": 45,
                "velocity": 40,
                "duration": 0.0659091,
                "tempo": 120.0
            },
            {
                "start_time": 8.0363636,
                "end_time": 8.1545455,
                "pitch": 57,
                "velocity": 40,
                "duration": 0.1181818,
                "tempo": 120.0
            },
            {
                "start_time": 8.1886364,
                "end_time": 8.7590909,
                "pitch": 55,
                "velocity": 40,
                "duration": 0.5704545,
                "tempo": 120.0
            },
            {
                "start_time": 8.7931818,
                "end_time": 8.9090909,
                "pitch": 54,
                "velocity": 40,
                "duration": 0.1159091,
                "tempo": 120.0
            },
            {
                "start_time": 8.9431818,
                "end_time": 9.0590909,
                "pitch": 55,
                "velocity": 40,
                "duration": 0.1159091,
                "tempo": 120.0
            },
            {
                "start_time": 9.0931818,
                "end_time": 9.325,
                "pitch": 54,
                "velocity": 40,
                "duration": 0.2318182,
                "tempo": 120.0
            },
            {
                "start_time": 9.3931818,
                "end_time": 9.5090909,
                "pitch": 50,
                "velocity": 40,
                "duration": 0.1159091,
                "tempo": 120.0
            },
            {
                "start_time": 9.5431818,
                "end_time": 9.6590909,
                "pitch": 49,
                "velocity": 40,
                "duration": 0.1159091,
                "tempo": 120.0
            },
            {
                "start_time": 9.6931818,
                "end_time": 9.8090909,
                "pitch": 49,
                "velocity": 40,
                "duration": 0.1159091,
                "tempo": 120.0
            },
            {
                "start_time": 9.8431818,
                "end_time": 10.1090909,
                "pitch": 49,
                "velocity": 40,
                "duration": 0.2659091,
                "tempo": 120.0
            },
            {
                "start_time": 10.1431818,
                "end_time": 10.3590909,
                "pitch": 45,
                "velocity": 40,
                "duration": 0.2159091,
                "tempo": 120.0
            },
            {
                "start_time": 10.3931818,
                "end_time": 10.4090909,
                "pitch": 45,
                "velocity": 40,
                "duration": 0.0159091,
                "tempo": 120.0
            },
            {
                "start_time": 10.4431818,
                "end_time": 10.5613636,
                "pitch": 57,
                "velocity": 40,
                "duration": 0.1181818,
                "tempo": 120.0
            },
            {
                "start_time": 10.5931818,
                "end_time": 11.0818182,
                "pitch": 55,
                "velocity": 40,
                "duration": 0.4886364,
                "tempo": 120.0
            },
            {
                "start_time": 11.1318182,
                "end_time": 11.5659091,
                "pitch": 54,
                "velocity": 40,
                "duration": 0.4340909,
                "tempo": 120.0
            },
            {
                "start_time": 11.5977273,
                "end_time": 11.6159091,
                "pitch": 52,
                "velocity": 40,
                "duration": 0.0181818,
                "tempo": 120.0
            },
            {
                "start_time": 11.6477273,
                "end_time": 11.9159091,
                "pitch": 50,
                "velocity": 40,
                "duration": 0.2681818,
                "tempo": 120.0
            },
            {
                "start_time": 11.9477273,
                "end_time": 12.0659091,
                "pitch": 49,
                "velocity": 40,
                "duration": 0.1181818,
                "tempo": 120.0
            },
            {
                "start_time": 12.0977273,
                "end_time": 12.2159091,
                "pitch": 49,
                "velocity": 40,
                "duration": 0.1181818,
                "tempo": 120.0
            },
            {
                "start_time": 12.2477273,
                "end_time": 12.5159091,
                "pitch": 49,
                "velocity": 40,
                "duration": 0.2681818,
                "tempo": 120.0
            },
            {
                "start_time": 12.5477273,
                "end_time": 12.7159091,
                "pitch": 45,
                "velocity": 40,
                "duration": 0.1681818,
                "tempo": 120.0
            },
            {
                "start_time": 12.7477273,
                "end_time": 12.8159091,
                "pitch": 45,
                "velocity": 40,
                "duration": 0.0681818,
                "tempo": 120.0
            },
            {
                "start_time": 12.8477273,
                "end_time": 12.9659091,
                "pitch": 57,
                "velocity": 40,
                "duration": 0.1181818,
                "tempo": 120.0
            },
            {
                "start_time": 12.9977273,
                "end_time": 13.5659091,
                "pitch": 55,
                "velocity": 40,
                "duration": 0.5681818,
                "tempo": 120.0
            },
            {
                "start_time": 13.6,
                "end_time": 13.7181818,
                "pitch": 54,
                "velocity": 40,
                "duration": 0.1181818,
                "tempo": 120.0
            },
            {
                "start_time": 13.7522727,
                "end_time": 13.8704545,
                "pitch": 55,
                "velocity": 40,
                "duration": 0.1181818,
                "tempo": 120.0
            },
            {
                "start_time": 13.9022727,
                "end_time": 14.1704545,
                "pitch": 54,
                "velocity": 40,
                "duration": 0.2681818,
                "tempo": 120.0
            },
            {
                "start_time": 14.2386364,
                "end_time": 14.3204545,
                "pitch": 52,
                "velocity": 40,
                "duration": 0.0818182,
                "tempo": 120.0
            },
            {
                "start_time": 14.3545455,
                "end_time": 14.4704545,
                "pitch": 48,
                "velocity": 40,
                "duration": 0.1159091,
                "tempo": 120.0
            },
            {
                "start_time": 14.5045455,
                "end_time": 14.6204545,
                "pitch": 48,
                "velocity": 40,
                "duration": 0.1159091,
                "tempo": 120.0
            },
            {
                "start_time": 14.6545455,
                "end_time": 14.7704545,
                "pitch": 48,
                "velocity": 40,
                "duration": 0.1159091,
                "tempo": 120.0
            },
            {
                "start_time": 14.8045455,
                "end_time": 14.9204545,
                "pitch": 48,
                "velocity": 40,
                "duration": 0.1159091,
                "tempo": 120.0
            },
            {
                "start_time": 14.9545455,
                "end_time": 15.0704545,
                "pitch": 45,
                "velocity": 40,
                "duration": 0.1159091,
                "tempo": 120.0
            },
            {
                "start_time": 15.1045455,
                "end_time": 15.2204545,
                "pitch": 45,
                "velocity": 40,
                "duration": 0.1159091,
                "tempo": 120.0
            },
            {
                "start_time": 15.2545455,
                "end_time": 15.3704545,
                "pitch": 45,
                "velocity": 40,
                "duration": 0.1159091,
                "tempo": 120.0
            },
            {
                "start_time": 15.4045455,
                "end_time": 15.5204545,
                "pitch": 45,
                "velocity": 40,
                "duration": 0.1159091,
                "tempo": 120.0
            },
            {
                "start_time": 15.5545455,
                "end_time": 15.6704545,
                "pitch": 50,
                "velocity": 40,
                "duration": 0.1159091,
                "tempo": 120.0
            },
            {
                "start_time": 15.7045455,
                "end_time": 15.8204545,
                "pitch": 50,
                "velocity": 40,
                "duration": 0.1159091,
                "tempo": 120.0
            },
            {
                "start_time": 15.8545455,
                "end_time": 15.9727273,
                "pitch": 50,
                "velocity": 40,
                "duration": 0.1181818,
                "tempo": 120.0
            },
            {
                "start_time": 16.0068182,
                "end_time": 16.1272727,
                "pitch": 50,
                "velocity": 40,
                "duration": 0.1204545,
                "tempo": 120.0
            },
            {
                "start_time": 16.7659091,
                "end_time": 16.8840909,
                "pitch": 49,
                "velocity": 40,
                "duration": 0.1181818,
                "tempo": 120.0
            },
            {
                "start_time": 16.9159091,
                "end_time": 17.0340909,
                "pitch": 49,
                "velocity": 40,
                "duration": 0.1181818,
                "tempo": 120.0
            },
            {
                "start_time": 17.0659091,
                "end_time": 17.2977273,
                "pitch": 49,
                "velocity": 40,
                "duration": 0.2318182,
                "tempo": 120.0
            },
            {
                "start_time": 17.3477273,
                "end_time": 17.5295455,
                "pitch": 45,
                "velocity": 40,
                "duration": 0.1818182,
                "tempo": 120.0
            },
            {
                "start_time": 17.5613636,
                "end_time": 17.6272727,
                "pitch": 45,
                "velocity": 40,
                "duration": 0.0659091,
                "tempo": 120.0
            },
            {
                "start_time": 17.6613636,
                "end_time": 17.7795455,
                "pitch": 57,
                "velocity": 40,
                "duration": 0.1181818,
                "tempo": 120.0
            },
            {
                "start_time": 17.8113636,
                "end_time": 18.3840909,
                "pitch": 55,
                "velocity": 40,
                "duration": 0.5727273,
                "tempo": 120.0
            },
            {
                "start_time": 18.4159091,
                "end_time": 18.5340909,
                "pitch": 54,
                "velocity": 40,
                "duration": 0.1181818,
                "tempo": 120.0
            },
            {
                "start_time": 18.5659091,
                "end_time": 18.6840909,
                "pitch": 55,
                "velocity": 40,
                "duration": 0.1181818,
                "tempo": 120.0
            },
            {
                "start_time": 18.7159091,
                "end_time": 18.9522727,
                "pitch": 54,
                "velocity": 40,
                "duration": 0.2363636,
                "tempo": 120.0
            },
            {
                "start_time": 19.0181818,
                "end_time": 19.1363636,
                "pitch": 50,
                "velocity": 40,
                "duration": 0.1181818,
                "tempo": 120.0
            },
            {
                "start_time": 19.1704545,
                "end_time": 19.2886364,
                "pitch": 49,
                "velocity": 40,
                "duration": 0.1181818,
                "tempo": 120.0
            },
            {
                "start_time": 19.3204545,
                "end_time": 19.4386364,
                "pitch": 49,
                "velocity": 40,
                "duration": 0.1181818,
                "tempo": 120.0
            },
            {
                "start_time": 19.4727273,
                "end_time": 19.7386364,
                "pitch": 49,
                "velocity": 40,
                "duration": 0.2659091,
                "tempo": 120.0
            },
            {
                "start_time": 19.7727273,
                "end_time": 19.9886364,
                "pitch": 45,
                "velocity": 40,
                "duration": 0.2159091,
                "tempo": 120.0
            },
            {
                "start_time": 20.0227273,
                "end_time": 20.0386364,
                "pitch": 45,
                "velocity": 40,
                "duration": 0.0159091,
                "tempo": 120.0
            },
            {
                "start_time": 20.0727273,
                "end_time": 20.1909091,
                "pitch": 57,
                "velocity": 40,
                "duration": 0.1181818,
                "tempo": 120.0
            },
            {
                "start_time": 20.225,
                "end_time": 20.7136364,
                "pitch": 55,
                "velocity": 40,
                "duration": 0.4886364,
                "tempo": 120.0
            },
            {
                "start_time": 20.7636364,
                "end_time": 21.2,
                "pitch": 54,
                "velocity": 40,
                "duration": 0.4363636,
                "tempo": 120.0
            },
            {
                "start_time": 21.2340909,
                "end_time": 21.2522727,
                "pitch": 52,
                "velocity": 40,
                "duration": 0.0181818,
                "tempo": 120.0
            },
            {
                "start_time": 21.2840909,
                "end_time": 21.5522727,
                "pitch": 50,
                "velocity": 40,
                "duration": 0.2681818,
                "tempo": 120.0
            },
            {
                "start_time": 21.5840909,
                "end_time": 21.7022727,
                "pitch": 49,
                "velocity": 40,
                "duration": 0.1181818,
                "tempo": 120.0
            },
            {
                "start_time": 21.7340909,
                "end_time": 21.8522727,
                "pitch": 49,
                "velocity": 40,
                "duration": 0.1181818,
                "tempo": 120.0
            },
            {
                "start_time": 21.8840909,
                "end_time": 22.1545455,
                "pitch": 49,
                "velocity": 40,
                "duration": 0.2704545,
                "tempo": 120.0
            },
            {
                "start_time": 22.1886364,
                "end_time": 22.3568182,
                "pitch": 45,
                "velocity": 40,
                "duration": 0.1681818,
                "tempo": 120.0
            },
            {
                "start_time": 22.3909091,
                "end_time": 22.4568182,
                "pitch": 45,
                "velocity": 40,
                "duration": 0.0659091,
                "tempo": 120.0
            },
            {
                "start_time": 22.4909091,
                "end_time": 22.6068182,
                "pitch": 57,
                "velocity": 40,
                "duration": 0.1159091,
                "tempo": 120.0
            },
            {
                "start_time": 22.6409091,
                "end_time": 23.2090909,
                "pitch": 55,
                "velocity": 40,
                "duration": 0.5681818,
                "tempo": 120.0
            },
            {
                "start_time": 23.2431818,
                "end_time": 23.3613636,
                "pitch": 54,
                "velocity": 40,
                "duration": 0.1181818,
                "tempo": 120.0
            },
            {
                "start_time": 23.3931818,
                "end_time": 23.5113636,
                "pitch": 55,
                "velocity": 40,
                "duration": 0.1181818,
                "tempo": 120.0
            },
            {
                "start_time": 23.5454545,
                "end_time": 23.8159091,
                "pitch": 54,
                "velocity": 40,
                "duration": 0.2704545,
                "tempo": 120.0
            },
            {
                "start_time": 23.8818182,
                "end_time": 23.9659091,
                "pitch": 52,
                "velocity": 40,
                "duration": 0.0840909,
                "tempo": 120.0
            },
            {
                "start_time": 24.0,
                "end_time": 24.1181818,
                "pitch": 48,
                "velocity": 40,
                "duration": 0.1181818,
                "tempo": 120.0
            },
            {
                "start_time": 24.1522727,
                "end_time": 24.2704545,
                "pitch": 48,
                "velocity": 40,
                "duration": 0.1181818,
                "tempo": 120.0
            },
            {
                "start_time": 24.3022727,
                "end_time": 24.4204545,
                "pitch": 48,
                "velocity": 40,
                "duration": 0.1181818,
                "tempo": 120.0
            },
            {
                "start_time": 24.4522727,
                "end_time": 24.5704545,
                "pitch": 48,
                "velocity": 40,
                "duration": 0.1181818,
                "tempo": 120.0
            },
            {
                "start_time": 24.6022727,
                "end_time": 24.7204545,
                "pitch": 45,
                "velocity": 40,
                "duration": 0.1181818,
                "tempo": 120.0
            },
            {
                "start_time": 24.7522727,
                "end_time": 24.8704545,
                "pitch": 45,
                "velocity": 40,
                "duration": 0.1181818,
                "tempo": 120.0
            },
            {
                "start_time": 24.9022727,
                "end_time": 25.0204545,
                "pitch": 45,
                "velocity": 40,
                "duration": 0.1181818,
                "tempo": 120.0
            },
            {
                "start_time": 25.0545455,
                "end_time": 25.1727273,
                "pitch": 45,
                "velocity": 40,
                "duration": 0.1181818,
                "tempo": 120.0
            },
            {
                "start_time": 25.2068182,
                "end_time": 25.325,
                "pitch": 47,
                "velocity": 40,
                "duration": 0.1181818,
                "tempo": 120.0
            },
            {
                "start_time": 25.3568182,
                "end_time": 25.6318182,
                "pitch": 47,
                "velocity": 40,
                "duration": 0.275,
                "tempo": 120.0
            },
            {
                "start_time": 25.6659091,
                "end_time": 25.9431818,
                "pitch": 48,
                "velocity": 40,
                "duration": 0.2772727,
                "tempo": 120.0
            },
            {
                "start_time": 25.9772727,
                "end_time": 26.25,
                "pitch": 48,
                "velocity": 40,
                "duration": 0.2727273,
                "tempo": 120.0
            },
            {
                "start_time": 26.2818182,
                "end_time": 26.3977273,
                "pitch": 50,
                "velocity": 40,
                "duration": 0.1159091,
                "tempo": 120.0
            },
            {
                "start_time": 26.4318182,
                "end_time": 26.5454545,
                "pitch": 51,
                "velocity": 40,
                "duration": 0.1136364,
                "tempo": 120.0
            },
            {
                "start_time": 26.5795455,
                "end_time": 26.6954545,
                "pitch": 51,
                "velocity": 40,
                "duration": 0.1159091,
                "tempo": 120.0
            },
            {
                "start_time": 26.975,
                "end_time": 26.9931818,
                "pitch": 48,
                "velocity": 40,
                "duration": 0.0181818,
                "tempo": 120.0
            },
            {
                "start_time": 27.025,
                "end_time": 27.1409091,
                "pitch": 51,
                "velocity": 40,
                "duration": 0.1159091,
                "tempo": 120.0
            },
            {
                "start_time": 27.1727273,
                "end_time": 27.2886364,
                "pitch": 51,
                "velocity": 40,
                "duration": 0.1159091,
                "tempo": 120.0
            },
            {
                "start_time": 27.5727273,
                "end_time": 27.5886364,
                "pitch": 48,
                "velocity": 40,
                "duration": 0.0159091,
                "tempo": 120.0
            },
            {
                "start_time": 27.6227273,
                "end_time": 27.7386364,
                "pitch": 51,
                "velocity": 40,
                "duration": 0.1159091,
                "tempo": 120.0
            },
            {
                "start_time": 27.7727273,
                "end_time": 27.8886364,
                "pitch": 51,
                "velocity": 40,
                "duration": 0.1159091,
                "tempo": 120.0
            },
            {
                "start_time": 28.175,
                "end_time": 28.1909091,
                "pitch": 48,
                "velocity": 40,
                "duration": 0.0159091,
                "tempo": 120.0
            },
            {
                "start_time": 28.225,
                "end_time": 28.3431818,
                "pitch": 51,
                "velocity": 40,
                "duration": 0.1181818,
                "tempo": 120.0
            },
            {
                "start_time": 28.3772727,
                "end_time": 28.6454545,
                "pitch": 51,
                "velocity": 40,
                "duration": 0.2681818,
                "tempo": 120.0
            },
            {
                "start_time": 28.6772727,
                "end_time": 28.7954545,
                "pitch": 53,
                "velocity": 40,
                "duration": 0.1181818,
                "tempo": 120.0
            },
            {
                "start_time": 28.8272727,
                "end_time": 28.9454545,
                "pitch": 50,
                "velocity": 40,
                "duration": 0.1181818,
                "tempo": 120.0
            },
            {
                "start_time": 28.9772727,
                "end_time": 29.0954545,
                "pitch": 50,
                "velocity": 40,
                "duration": 0.1181818,
                "tempo": 120.0
            },
            {
                "start_time": 29.3818182,
                "end_time": 29.3977273,
                "pitch": 46,
                "velocity": 40,
                "duration": 0.0159091,
                "tempo": 120.0
            },
            {
                "start_time": 29.4318182,
                "end_time": 29.55,
                "pitch": 50,
                "velocity": 40,
                "duration": 0.1181818,
                "tempo": 120.0
            },
            {
                "start_time": 29.5840909,
                "end_time": 29.7,
                "pitch": 50,
                "velocity": 40,
                "duration": 0.1159091,
                "tempo": 120.0
            },
            {
                "start_time": 30.0386364,
                "end_time": 30.1545455,
                "pitch": 48,
                "velocity": 40,
                "duration": 0.1159091,
                "tempo": 120.0
            },
            {
                "start_time": 30.1886364,
                "end_time": 30.3068182,
                "pitch": 48,
                "velocity": 40,
                "duration": 0.1181818,
                "tempo": 120.0
            },
            {
                "start_time": 30.5909091,
                "end_time": 30.6068182,
                "pitch": 43,
                "velocity": 40,
                "duration": 0.0159091,
                "tempo": 120.0
            },
            {
                "start_time": 30.6409091,
                "end_time": 30.7568182,
                "pitch": 48,
                "velocity": 40,
                "duration": 0.1159091,
                "tempo": 120.0
            },
            {
                "start_time": 30.7909091,
                "end_time": 30.9068182,
                "pitch": 48,
                "velocity": 40,
                "duration": 0.1159091,
                "tempo": 120.0
            },
            {
                "start_time": 31.2431818,
                "end_time": 31.3613636,
                "pitch": 46,
                "velocity": 40,
                "duration": 0.1181818,
                "tempo": 120.0
            },
            {
                "start_time": 31.3954545,
                "end_time": 31.5136364,
                "pitch": 46,
                "velocity": 40,
                "duration": 0.1181818,
                "tempo": 120.0
            },
            {
                "start_time": 31.7954545,
                "end_time": 31.8136364,
                "pitch": 43,
                "velocity": 40,
                "duration": 0.0181818,
                "tempo": 120.0
            },
            {
                "start_time": 31.8454545,
                "end_time": 31.9636364,
                "pitch": 46,
                "velocity": 40,
                "duration": 0.1181818,
                "tempo": 120.0
            },
            {
                "start_time": 31.9954545,
                "end_time": 32.1136364,
                "pitch": 46,
                "velocity": 40,
                "duration": 0.1181818,
                "tempo": 120.0
            },
            {
                "start_time": 32.45,
                "end_time": 32.5681818,
                "pitch": 48,
                "velocity": 40,
                "duration": 0.1181818,
                "tempo": 120.0
            },
            {
                "start_time": 32.6022727,
                "end_time": 32.7181818,
                "pitch": 48,
                "velocity": 40,
                "duration": 0.1159091,
                "tempo": 120.0
            },
            {
                "start_time": 33.0045455,
                "end_time": 33.0227273,
                "pitch": 45,
                "velocity": 40,
                "duration": 0.0181818,
                "tempo": 120.0
            },
            {
                "start_time": 33.0568182,
                "end_time": 33.1727273,
                "pitch": 48,
                "velocity": 40,
                "duration": 0.1159091,
                "tempo": 120.0
            },
            {
                "start_time": 33.2068182,
                "end_time": 33.325,
                "pitch": 48,
                "velocity": 40,
                "duration": 0.1181818,
                "tempo": 120.0
            },
            {
                "start_time": 33.6613636,
                "end_time": 33.7795455,
                "pitch": 50,
                "velocity": 40,
                "duration": 0.1181818,
                "tempo": 120.0
            },
            {
                "start_time": 33.8136364,
                "end_time": 33.9318182,
                "pitch": 50,
                "velocity": 40,
                "duration": 0.1181818,
                "tempo": 120.0
            },
            {
                "start_time": 34.2136364,
                "end_time": 34.2318182,
                "pitch": 46,
                "velocity": 40,
                "duration": 0.0181818,
                "tempo": 120.0
            },
            {
                "start_time": 34.2636364,
                "end_time": 34.3818182,
                "pitch": 50,
                "velocity": 40,
                "duration": 0.1181818,
                "tempo": 120.0
            },
            {
                "start_time": 34.4136364,
                "end_time": 34.5318182,
                "pitch": 50,
                "velocity": 40,
                "duration": 0.1181818,
                "tempo": 120.0
            },
            {
                "start_time": 35.0204545,
                "end_time": 35.1363636,
                "pitch": 51,
                "velocity": 40,
                "duration": 0.1159091,
                "tempo": 120.0
            },
            {
                "start_time": 35.1704545,
                "end_time": 35.4409091,
                "pitch": 51,
                "velocity": 40,
                "duration": 0.2704545,
                "tempo": 120.0
            },
            {
                "start_time": 35.475,
                "end_time": 35.7431818,
                "pitch": 53,
                "velocity": 40,
                "duration": 0.2681818,
                "tempo": 120.0
            },
            {
                "start_time": 35.7772727,
                "end_time": 36.0454545,
                "pitch": 53,
                "velocity": 40,
                "duration": 0.2681818,
                "tempo": 120.0
            },
            {
                "start_time": 36.0795455,
                "end_time": 36.1977273,
                "pitch": 55,
                "velocity": 40,
                "duration": 0.1181818,
                "tempo": 120.0
            },
            {
                "start_time": 36.2318182,
                "end_time": 36.35,
                "pitch": 55,
                "velocity": 40,
                "duration": 0.1181818,
                "tempo": 120.0
            },
            {
                "start_time": 36.6363636,
                "end_time": 36.6522727,
                "pitch": 50,
                "velocity": 40,
                "duration": 0.0159091,
                "tempo": 120.0
            },
            {
                "start_time": 36.6863636,
                "end_time": 36.8045455,
                "pitch": 55,
                "velocity": 40,
                "duration": 0.1181818,
                "tempo": 120.0
            },
            {
                "start_time": 36.8386364,
                "end_time": 36.9545455,
                "pitch": 55,
                "velocity": 40,
                "duration": 0.1159091,
                "tempo": 120.0
            },
            {
                "start_time": 37.2386364,
                "end_time": 37.2545455,
                "pitch": 50,
                "velocity": 40,
                "duration": 0.0159091,
                "tempo": 120.0
            },
            {
                "start_time": 37.2886364,
                "end_time": 37.4045455,
                "pitch": 55,
                "velocity": 40,
                "duration": 0.1159091,
                "tempo": 120.0
            },
            {
                "start_time": 37.4386364,
                "end_time": 37.5545455,
                "pitch": 55,
                "velocity": 40,
                "duration": 0.1159091,
                "tempo": 120.0
            },
            {
                "start_time": 37.8409091,
                "end_time": 37.8590909,
                "pitch": 50,
                "velocity": 40,
                "duration": 0.0181818,
                "tempo": 120.0
            },
            {
                "start_time": 37.8931818,
                "end_time": 38.0090909,
                "pitch": 55,
                "velocity": 40,
                "duration": 0.1159091,
                "tempo": 120.0
            },
            {
                "start_time": 38.0431818,
                "end_time": 38.1613636,
                "pitch": 55,
                "velocity": 40,
                "duration": 0.1181818,
                "tempo": 120.0
            },
            {
                "start_time": 38.4977273,
                "end_time": 38.6159091,
                "pitch": 53,
                "velocity": 40,
                "duration": 0.1181818,
                "tempo": 120.0
            },
            {
                "start_time": 38.65,
                "end_time": 38.7681818,
                "pitch": 53,
                "velocity": 40,
                "duration": 0.1181818,
                "tempo": 120.0
            },
            {
                "start_time": 39.0545455,
                "end_time": 39.0704545,
                "pitch": 48,
                "velocity": 40,
                "duration": 0.0159091,
                "tempo": 120.0
            },
            {
                "start_time": 39.1045455,
                "end_time": 39.2227273,
                "pitch": 53,
                "velocity": 40,
                "duration": 0.1181818,
                "tempo": 120.0
            },
            {
                "start_time": 39.2568182,
                "end_time": 39.3727273,
                "pitch": 53,
                "velocity": 40,
                "duration": 0.1159091,
                "tempo": 120.0
            },
            {
                "start_time": 39.6590909,
                "end_time": 39.6772727,
                "pitch": 48,
                "velocity": 40,
                "duration": 0.0181818,
                "tempo": 120.0
            },
            {
                "start_time": 39.7113636,
                "end_time": 39.8272727,
                "pitch": 53,
                "velocity": 40,
                "duration": 0.1159091,
                "tempo": 120.0
            },
            {
                "start_time": 39.8613636,
                "end_time": 39.9795455,
                "pitch": 53,
                "velocity": 40,
                "duration": 0.1181818,
                "tempo": 120.0
            },
            {
                "start_time": 40.2636364,
                "end_time": 40.2795455,
                "pitch": 48,
                "velocity": 40,
                "duration": 0.0159091,
                "tempo": 120.0
            },
            {
                "start_time": 40.3136364,
                "end_time": 40.4295455,
                "pitch": 53,
                "velocity": 40,
                "duration": 0.1159091,
                "tempo": 120.0
            },
            {
                "start_time": 40.4636364,
                "end_time": 40.5795455,
                "pitch": 53,
                "velocity": 40,
                "duration": 0.1159091,
                "tempo": 120.0
            },
            {
                "start_time": 40.9159091,
                "end_time": 41.0340909,
                "pitch": 51,
                "velocity": 40,
                "duration": 0.1181818,
                "tempo": 120.0
            },
            {
                "start_time": 41.0681818,
                "end_time": 41.1863636,
                "pitch": 51,
                "velocity": 40,
                "duration": 0.1181818,
                "tempo": 120.0
            },
            {
                "start_time": 41.4727273,
                "end_time": 41.4886364,
                "pitch": 47,
                "velocity": 40,
                "duration": 0.0159091,
                "tempo": 120.0
            },
            {
                "start_time": 41.5227273,
                "end_time": 41.6409091,
                "pitch": 51,
                "velocity": 40,
                "duration": 0.1181818,
                "tempo": 120.0
            },
            {
                "start_time": 41.675,
                "end_time": 41.7909091,
                "pitch": 51,
                "velocity": 40,
                "duration": 0.1159091,
                "tempo": 120.0
            },
            {
                "start_time": 42.1295455,
                "end_time": 42.2454545,
                "pitch": 53,
                "velocity": 40,
                "duration": 0.1159091,
                "tempo": 120.0
            },
            {
                "start_time": 42.2795455,
                "end_time": 42.55,
                "pitch": 53,
                "velocity": 40,
                "duration": 0.2704545,
                "tempo": 120.0
            },
            {
                "start_time": 42.5840909,
                "end_time": 42.8522727,
                "pitch": 55,
                "velocity": 40,
                "duration": 0.2681818,
                "tempo": 120.0
            },
            {
                "start_time": 42.8863636,
                "end_time": 43.0045455,
                "pitch": 55,
                "velocity": 40,
                "duration": 0.1181818,
                "tempo": 120.0
            },
            {
                "start_time": 43.0363636,
                "end_time": 43.3045455,
                "pitch": 55,
                "velocity": 40,
                "duration": 0.2681818,
                "tempo": 120.0
            },
            {
                "start_time": 43.3363636,
                "end_time": 44.2772727,
                "pitch": 58,
                "velocity": 40,
                "duration": 0.9409091,
                "tempo": 120.0
            },
            {
                "start_time": 44.6977273,
                "end_time": 44.8159091,
                "pitch": 58,
                "velocity": 40,
                "duration": 0.1181818,
                "tempo": 120.0
            },
            {
                "start_time": 44.85,
                "end_time": 44.9681818,
                "pitch": 58,
                "velocity": 40,
                "duration": 0.1181818,
                "tempo": 120.0
            },
            {
                "start_time": 45.0022727,
                "end_time": 45.1227273,
                "pitch": 58,
                "velocity": 40,
                "duration": 0.1204545,
                "tempo": 120.0
            },
            {
                "start_time": 45.1568182,
                "end_time": 45.275,
                "pitch": 58,
                "velocity": 40,
                "duration": 0.1181818,
                "tempo": 120.0
            }
        ],
        "Acoustic Guitar (nylon)": [
            {
                "start_time": 16.3477273,
                "end_time": 16.3818182,
                "pitch": 69,
                "velocity": 64,
                "duration": 0.0340909,
                "tempo": 120.0
            },
            {
                "start_time": 16.3818182,
                "end_time": 16.4318182,
                "pitch": 67,
                "velocity": 64,
                "duration": 0.05,
                "tempo": 120.0
            },
            {
                "start_time": 16.4318182,
                "end_time": 16.5659091,
                "pitch": 64,
                "velocity": 64,
                "duration": 0.1340909,
                "tempo": 120.0
            },
            {
                "start_time": 16.5659091,
                "end_time": 16.6,
                "pitch": 61,
                "velocity": 64,
                "duration": 0.0340909,
                "tempo": 120.0
            },
            {
                "start_time": 16.6,
                "end_time": 16.65,
                "pitch": 58,
                "velocity": 64,
                "duration": 0.05,
                "tempo": 120.0
            },
            {
                "start_time": 16.65,
                "end_time": 16.7,
                "pitch": 63,
                "velocity": 64,
                "duration": 0.05,
                "tempo": 120.0
            },
            {
                "start_time": 16.7,
                "end_time": 16.7840909,
                "pitch": 61,
                "velocity": 64,
                "duration": 0.0840909,
                "tempo": 120.0
            },
            {
                "start_time": 16.8,
                "end_time": 25.2568182,
                "pitch": 73,
                "velocity": 64,
                "duration": 8.4568182,
                "tempo": 120.0
            },
            {
                "start_time": 25.2568182,
                "end_time": 25.2727273,
                "pitch": 66,
                "velocity": 64,
                "duration": 0.0159091,
                "tempo": 120.0
            },
            {
                "start_time": 25.2727273,
                "end_time": 25.3068182,
                "pitch": 63,
                "velocity": 64,
                "duration": 0.0340909,
                "tempo": 120.0
            },
            {
                "start_time": 25.3068182,
                "end_time": 25.325,
                "pitch": 68,
                "velocity": 64,
                "duration": 0.0181818,
                "tempo": 120.0
            },
            {
                "start_time": 25.325,
                "end_time": 25.3409091,
                "pitch": 66,
                "velocity": 64,
                "duration": 0.0159091,
                "tempo": 120.0
            },
            {
                "start_time": 25.3409091,
                "end_time": 25.3909091,
                "pitch": 63,
                "velocity": 64,
                "duration": 0.05,
                "tempo": 120.0
            },
            {
                "start_time": 25.3909091,
                "end_time": 25.425,
                "pitch": 66,
                "velocity": 64,
                "duration": 0.0340909,
                "tempo": 120.0
            },
            {
                "start_time": 25.425,
                "end_time": 25.475,
                "pitch": 63,
                "velocity": 64,
                "duration": 0.05,
                "tempo": 120.0
            },
            {
                "start_time": 25.475,
                "end_time": 25.5431818,
                "pitch": 60,
                "velocity": 64,
                "duration": 0.0681818,
                "tempo": 120.0
            },
            {
                "start_time": 25.5431818,
                "end_time": 25.6136364,
                "pitch": 63,
                "velocity": 64,
                "duration": 0.0704545,
                "tempo": 120.0
            },
            {
                "start_time": 25.6136364,
                "end_time": 25.7,
                "pitch": 61,
                "velocity": 64,
                "duration": 0.0863636,
                "tempo": 120.0
            },
            {
                "start_time": 25.7,
                "end_time": 25.7340909,
                "pitch": 67,
                "velocity": 64,
                "duration": 0.0340909,
                "tempo": 120.0
            },
            {
                "start_time": 25.7340909,
                "end_time": 25.7704545,
                "pitch": 63,
                "velocity": 64,
                "duration": 0.0363636,
                "tempo": 120.0
            },
            {
                "start_time": 25.7704545,
                "end_time": 25.7863636,
                "pitch": 68,
                "velocity": 64,
                "duration": 0.0159091,
                "tempo": 120.0
            },
            {
                "start_time": 25.7863636,
                "end_time": 25.8045455,
                "pitch": 66,
                "velocity": 64,
                "duration": 0.0181818,
                "tempo": 120.0
            },
            {
                "start_time": 25.8045455,
                "end_time": 25.8568182,
                "pitch": 63,
                "velocity": 64,
                "duration": 0.0522727,
                "tempo": 120.0
            },
            {
                "start_time": 25.8568182,
                "end_time": 25.8909091,
                "pitch": 66,
                "velocity": 64,
                "duration": 0.0340909,
                "tempo": 120.0
            },
            {
                "start_time": 25.8909091,
                "end_time": 25.9431818,
                "pitch": 63,
                "velocity": 64,
                "duration": 0.0522727,
                "tempo": 120.0
            },
            {
                "start_time": 25.9431818,
                "end_time": 26.0136364,
                "pitch": 60,
                "velocity": 64,
                "duration": 0.0704545,
                "tempo": 120.0
            },
            {
                "start_time": 26.0136364,
                "end_time": 26.0818182,
                "pitch": 63,
                "velocity": 64,
                "duration": 0.0681818,
                "tempo": 120.0
            },
            {
                "start_time": 26.0818182,
                "end_time": 26.1659091,
                "pitch": 61,
                "velocity": 64,
                "duration": 0.0840909,
                "tempo": 120.0
            },
            {
                "start_time": 26.1659091,
                "end_time": 26.2,
                "pitch": 66,
                "velocity": 64,
                "duration": 0.0340909,
                "tempo": 120.0
            },
            {
                "start_time": 26.2,
                "end_time": 26.25,
                "pitch": 63,
                "velocity": 64,
                "duration": 0.05,
                "tempo": 120.0
            },
            {
                "start_time": 26.25,
                "end_time": 26.3159091,
                "pitch": 60,
                "velocity": 64,
                "duration": 0.0659091,
                "tempo": 120.0
            },
            {
                "start_time": 26.3159091,
                "end_time": 26.3659091,
                "pitch": 63,
                "velocity": 64,
                "duration": 0.05,
                "tempo": 120.0
            },
            {
                "start_time": 26.3659091,
                "end_time": 26.4477273,
                "pitch": 61,
                "velocity": 64,
                "duration": 0.0818182,
                "tempo": 120.0
            }
        ]
    }
}