{
    "mood": "happy",
    "instruments": {
        "Oboe": [
            {
                "start_time": 0.1909091,
                "end_time": 0.4772727,
                "pitch": 72,
                "velocity": 51,
                "duration": 0.2863636,
                "tempo": 120.0
            },
            {
                "start_time": 0.4931818,
                "end_time": 0.6272727,
                "pitch": 72,
                "velocity": 51,
                "duration": 0.1340909,
                "tempo": 120.0
            },
            {
                "start_time": 0.6454545,
                "end_time": 1.0818182,
                "pitch": 72,
                "velocity": 51,
                "duration": 0.4363636,
                "tempo": 120.0
            },
            {
                "start_time": 1.1,
                "end_time": 1.3863636,
                "pitch": 70,
                "velocity": 51,
                "duration": 0.2863636,
                "tempo": 120.0
            },
            {
                "start_time": 1.4022727,
                "end_time": 1.6863636,
                "pitch": 70,
                "velocity": 51,
                "duration": 0.2840909,
                "tempo": 120.0
            },
            {
                "start_time": 1.7022727,
                "end_time": 1.8363636,
                "pitch": 70,
                "velocity": 51,
                "duration": 0.1340909,
                "tempo": 120.0
            },
            {
                "start_time": 1.8522727,
                "end_time": 2.1363636,
                "pitch": 70,
                "velocity": 51,
                "duration": 0.2840909,
                "tempo": 120.0
            },
            {
                "start_time": 2.1522727,
                "end_time": 2.2363636,
                "pitch": 70,
                "velocity": 51,
                "duration": 0.0840909,
                "tempo": 120.0
            },
            {
                "start_time": 2.6022727,
                "end_time": 2.8886364,
                "pitch": 75,
                "velocity": 51,
                "duration": 0.2863636,
                "tempo": 120.0
            },
            {
                "start_time": 2.9068182,
                "end_time": 3.0409091,
                "pitch": 75,
                "velocity": 51,
                "duration": 0.1340909,
                "tempo": 120.0
            },
            {
                "start_time": 3.0568182,
                "end_time": 3.3431818,
                "pitch": 75,
                "velocity": 51,
                "duration": 0.2863636,
                "tempo": 120.0
            },
            {
                "start_time": 3.3613636,
                "end_time": 3.6454545,
                "pitch": 77,
                "velocity": 51,
                "duration": 0.2840909,
                "tempo": 120.0
            },
            {
                "start_time": 3.6636364,
                "end_time": 3.7977273,
                "pitch": 77,
                "velocity": 51,
                "duration": 0.1340909,
                "tempo": 120.0
            },
            {
                "start_time": 3.8159091,
                "end_time": 4.1,
                "pitch": 77,
                "velocity": 51,
                "duration": 0.2840909,
                "tempo": 120.0
            },
            {
                "start_time": 4.1181818,
                "end_time": 4.2522727,
                "pitch": 77,
                "velocity": 51,
                "duration": 0.1340909,
                "tempo": 120.0
            },
            {
                "start_time": 4.2704545,
                "end_time": 4.6068182,
                "pitch": 77,
                "velocity": 51,
                "duration": 0.3363636,
                "tempo": 120.0
            },
            {
                "start_time": 5.0272727,
                "end_time": 5.3113636,
                "pitch": 72,
                "velocity": 51,
                "duration": 0.2840909,
                "tempo": 120.0
            },
            {
                "start_time": 5.3272727,
                "end_time": 5.4613636,
                "pitch": 72,
                "velocity": 51,
                "duration": 0.1340909,
                "tempo": 120.0
            },
            {
                "start_time": 5.4772727,
                "end_time": 5.7613636,
                "pitch": 72,
                "velocity": 51,
                "duration": 0.2840909,
                "tempo": 120.0
            },
            {
                "start_time": 5.7795455,
                "end_time": 6.0636364,
                "pitch": 70,
                "velocity": 51,
                "duration": 0.2840909,
                "tempo": 120.0
            },
            {
                "start_time": 6.0818182,
                "end_time": 6.2159091,
                "pitch": 70,
                "velocity": 51,
                "duration": 0.1340909,
                "tempo": 120.0
            },
            {
                "start_time": 6.2340909,
                "end_time": 6.5159091,
                "pitch": 70,
                "velocity": 51,
                "duration": 0.2818182,
                "tempo": 120.0
            },
            {
                "start_time": 6.5340909,
                "end_time": 6.6659091,
                "pitch": 70,
                "velocity": 51,
                "duration": 0.1318182,
                "tempo": 120.0
            },
            {
                "start_time": 6.6840909,
                "end_time": 6.9659091,
                "pitch": 70,
                "velocity": 51,
                "duration": 0.2818182,
                "tempo": 120.0
            },
            {
                "start_time": 6.9840909,
                "end_time": 7.0340909,
                "pitch": 70,
                "velocity": 51,
                "duration": 0.05,
                "tempo": 120.0
            },
            {
                "start_time": 7.4340909,
                "end_time": 7.7181818,
                "pitch": 77,
                "velocity": 51,
                "duration": 0.2840909,
                "tempo": 120.0
            },
            {
                "start_time": 7.7363636,
                "end_time": 7.8704545,
                "pitch": 77,
                "velocity": 51,
                "duration": 0.1340909,
                "tempo": 120.0
            },
            {
                "start_time": 7.8886364,
                "end_time": 8.3227273,
                "pitch": 77,
                "velocity": 51,
                "duration": 0.4340909,
                "tempo": 120.0
            },
            {
                "start_time": 8.3386364,
                "end_time": 8.6227273,
                "pitch": 79,
                "velocity": 51,
                "duration": 0.2840909,
                "tempo": 120.0
            },
            {
                "start_time": 8.6386364,
                "end_time": 8.7727273,
                "pitch": 79,
                "velocity": 51,
                "duration": 0.1340909,
                "tempo": 120.0
            },
            {
                "start_time": 8.7886364,
                "end_time": 9.2227273,
                "pitch": 79,
                "velocity": 51,
                "duration": 0.4340909,
                "tempo": 120.0
            },
            {
                "start_time": 9.2386364,
                "end_time": 9.3386364,
                "pitch": 79,
                "velocity": 51,
                "duration": 0.1,
                "tempo": 120.0
            },
            {
                "start_time": 9.8386364,
                "end_time": 10.2772727,
                "pitch": 80,
                "velocity": 51,
                "duration": 0.4386364,
                "tempo": 120.0
            },
            {
                "start_time": 10.2931818,
                "end_time": 10.7295455,
                "pitch": 80,
                "velocity": 51,
                "duration": 0.4363636,
                "tempo": 120.0
            },
            {
                "start_time": 10.7454545,
                "end_time": 11.1795455,
                "pitch": 84,
                "velocity": 51,
                "duration": 0.4340909,
                "tempo": 120.0
            },
            {
                "start_time": 11.1954545,
                "end_time": 11.6295455,
                "pitch": 82,
                "velocity": 51,
                "duration": 0.4340909,
                "tempo": 120.0
            },
            {
                "start_time": 11.6454545,
                "end_time": 12.2295455,
                "pitch": 80,
                "velocity": 51,
                "duration": 0.5840909,
                "tempo": 120.0
            },
            {
                "start_time": 12.2454545,
                "end_time": 12.5295455,
                "pitch": 75,
                "velocity": 51,
                "duration": 0.2840909,
                "tempo": 120.0
            },
            {
                "start_time": 12.5454545,
                "end_time": 12.8295455,
                "pitch": 75,
                "velocity": 51,
                "duration": 0.2840909,
                "tempo": 120.0
            },
            {
                "start_time": 12.8454545,
                "end_time": 12.9795455,
                "pitch": 77,
                "velocity": 51,
                "duration": 0.1340909,
                "tempo": 120.0
            },
            {
                "start_time": 12.9977273,
                "end_time": 13.8840909,
                "pitch": 79,
                "velocity": 51,
                "duration": 0.8863636,
                "tempo": 120.0
            },
            {
                "start_time": 13.9022727,
                "end_time": 14.0340909,
                "pitch": 79,
                "velocity": 51,
                "duration": 0.1318182,
                "tempo": 120.0
            },
            {
                "start_time": 14.0522727,
                "end_time": 14.1840909,
                "pitch": 77,
                "velocity": 51,
                "duration": 0.1318182,
                "tempo": 120.0
            },
            {
                "start_time": 14.2022727,
                "end_time": 14.3340909,
                "pitch": 75,
                "velocity": 51,
                "duration": 0.1318182,
                "tempo": 120.0
            },
            {
                "start_time": 14.3522727,
                "end_time": 15.2340909,
                "pitch": 68,
                "velocity": 51,
                "duration": 0.8818182,
                "tempo": 120.0
            },
            {
                "start_time": 15.2522727,
                "end_time": 15.5340909,
                "pitch": 75,
                "velocity": 51,
                "duration": 0.2818182,
                "tempo": 120.0
            },
            {
                "start_time": 15.5522727,
                "end_time": 16.1363636,
                "pitch": 75,
                "velocity": 51,
                "duration": 0.5840909,
                "tempo": 120.0
            },
            {
                "start_time": 16.1545455,
                "end_time": 16.4409091,
                "pitch": 74,
                "velocity": 51,
                "duration": 0.2863636,
                "tempo": 120.0
            },
            {
                "start_time": 16.4568182,
                "end_time": 17.0409091,
                "pitch": 72,
                "velocity": 51,
                "duration": 0.5840909,
                "tempo": 120.0
            },
            {
                "start_time": 17.0568182,
                "end_time": 17.3431818,
                "pitch": 70,
                "velocity": 51,
                "duration": 0.2863636,
                "tempo": 120.0
            },
            {
                "start_time": 17.3613636,
                "end_time": 17.6454545,
                "pitch": 70,
                "velocity": 51,
                "duration": 0.2840909,
                "tempo": 120.0
            },
            {
                "start_time": 17.6636364,
                "end_time": 17.95,
                "pitch": 72,
                "velocity": 51,
                "duration": 0.2863636,
                "tempo": 120.0
            },
            {
                "start_time": 17.9659091,
                "end_time": 17.9840909,
                "pitch": 74,
                "velocity": 51,
                "duration": 0.0181818,
                "tempo": 120.0
            },
            {
                "start_time": 18.0,
                "end_time": 18.1,
                "pitch": 79,
                "velocity": 51,
                "duration": 0.1,
                "tempo": 120.0
            },
            {
                "start_time": 18.1181818,
                "end_time": 18.2522727,
                "pitch": 77,
                "velocity": 51,
                "duration": 0.1340909,
                "tempo": 120.0
            },
            {
                "start_time": 18.2681818,
                "end_time": 18.4022727,
                "pitch": 75,
                "velocity": 51,
                "duration": 0.1340909,
                "tempo": 120.0
            },
            {
                "start_time": 18.4181818,
                "end_time": 18.6977273,
                "pitch": 74,
                "velocity": 51,
                "duration": 0.2795455,
                "tempo": 120.0
            },
            {
                "start_time": 18.7136364,
                "end_time": 18.8477273,
                "pitch": 74,
                "velocity": 51,
                "duration": 0.1340909,
                "tempo": 120.0
            },
            {
                "start_time": 18.8636364,
                "end_time": 19.4590909,
                "pitch": 77,
                "velocity": 51,
                "duration": 0.5954545,
                "tempo": 120.0
            },
            {
                "start_time": 19.475,
                "end_time": 19.575,
                "pitch": 80,
                "velocity": 51,
                "duration": 0.1,
                "tempo": 120.0
            },
            {
                "start_time": 19.925,
                "end_time": 20.3613636,
                "pitch": 80,
                "velocity": 51,
                "duration": 0.4363636,
                "tempo": 120.0
            },
            {
                "start_time": 20.3795455,
                "end_time": 20.8159091,
                "pitch": 84,
                "velocity": 51,
                "duration": 0.4363636,
                "tempo": 120.0
            },
            {
                "start_time": 20.8340909,
                "end_time": 21.2704545,
                "pitch": 82,
                "velocity": 51,
                "duration": 0.4363636,
                "tempo": 120.0
            },
            {
                "start_time": 21.2886364,
                "end_time": 21.4886364,
                "pitch": 80,
                "velocity": 51,
                "duration": 0.2,
                "tempo": 120.0
            },
            {
                "start_time": 21.8886364,
                "end_time": 21.9204545,
                "pitch": 75,
                "velocity": 51,
                "duration": 0.0318182,
                "tempo": 120.0
            },
            {
                "start_time": 22.3431818,
                "end_time": 22.6272727,
                "pitch": 75,
                "velocity": 51,
                "duration": 0.2840909,
                "tempo": 120.0
            },
            {
                "start_time": 22.6431818,
                "end_time": 22.7772727,
                "pitch": 77,
                "velocity": 51,
                "duration": 0.1340909,
                "tempo": 120.0
            },
            {
                "start_time": 22.7931818,
                "end_time": 23.5318182,
                "pitch": 79,
                "velocity": 51,
                "duration": 0.7386364,
                "tempo": 120.0
            },
            {
                "start_time": 23.5477273,
                "end_time": 23.6818182,
                "pitch": 79,
                "velocity": 51,
                "duration": 0.1340909,
                "tempo": 120.0
            },
            {
                "start_time": 23.7,
                "end_time": 23.8340909,
                "pitch": 77,
                "velocity": 51,
                "duration": 0.1340909,
                "tempo": 120.0
            },
            {
                "start_time": 23.8522727,
                "end_time": 24.2886364,
                "pitch": 75,
                "velocity": 51,
                "duration": 0.4363636,
                "tempo": 120.0
            },
            {
                "start_time": 24.3068182,
                "end_time": 24.8886364,
                "pitch": 68,
                "velocity": 51,
                "duration": 0.5818182,
                "tempo": 120.0
            },
            {
                "start_time": 24.9068182,
                "end_time": 25.1909091,
                "pitch": 72,
                "velocity": 51,
                "duration": 0.2840909,
                "tempo": 120.0
            },
            {
                "start_time": 25.2090909,
                "end_time": 25.7954545,
                "pitch": 75,
                "velocity": 51,
                "duration": 0.5863636,
                "tempo": 120.0
            },
            {
                "start_time": 25.8113636,
                "end_time": 26.0954545,
                "pitch": 74,
                "velocity": 51,
                "duration": 0.2840909,
                "tempo": 120.0
            },
            {
                "start_time": 26.1113636,
                "end_time": 26.3977273,
                "pitch": 72,
                "velocity": 51,
                "duration": 0.2863636,
                "tempo": 120.0
            },
            {
                "start_time": 26.4159091,
                "end_time": 27.3068182,
                "pitch": 70,
                "velocity": 51,
                "duration": 0.8909091,
                "tempo": 120.0
            },
            {
                "start_time": 27.325,
                "end_time": 27.6068182,
                "pitch": 75,
                "velocity": 51,
                "duration": 0.2818182,
                "tempo": 120.0
            },
            {
                "start_time": 27.625,
                "end_time": 28.2045455,
                "pitch": 75,
                "velocity": 51,
                "duration": 0.5795455,
                "tempo": 120.0
            },
            {
                "start_time": 28.2204545,
                "end_time": 28.8068182,
                "pitch": 70,
                "velocity": 51,
                "duration": 0.5863636,
                "tempo": 120.0
            },
            {
                "start_time": 28.825,
                "end_time": 30.1909091,
                "pitch": 72,
                "velocity": 51,
                "duration": 1.3659091,
                "tempo": 120.0
            }
        ],
        "Acoustic Bass": [
            {
                "start_time": 0.0022727,
                "end_time": 0.0795455,
                "pitch": 60,
                "velocity": 40,
                "duration": 0.0772727,
                "tempo": 120.0
            },
            {
                "start_time": 0.0909091,
                "end_time": 0.1795455,
                "pitch": 48,
                "velocity": 40,
                "duration": 0.0886364,
                "tempo": 120.0
            },
            {
                "start_time": 0.1909091,
                "end_time": 0.325,
                "pitch": 48,
                "velocity": 40,
                "duration": 0.1340909,
                "tempo": 120.0
            },
            {
                "start_time": 0.3431818,
                "end_time": 0.4772727,
                "pitch": 60,
                "velocity": 40,
                "duration": 0.1340909,
                "tempo": 120.0
            },
            {
                "start_time": 0.4931818,
                "end_time": 0.6272727,
                "pitch": 48,
                "velocity": 40,
                "duration": 0.1340909,
                "tempo": 120.0
            },
            {
                "start_time": 0.6454545,
                "end_time": 0.7795455,
                "pitch": 48,
                "velocity": 40,
                "duration": 0.1340909,
                "tempo": 120.0
            },
            {
                "start_time": 0.7977273,
                "end_time": 0.9318182,
                "pitch": 60,
                "velocity": 40,
                "duration": 0.1340909,
                "tempo": 120.0
            },
            {
                "start_time": 0.9477273,
                "end_time": 1.0818182,
                "pitch": 48,
                "velocity": 40,
                "duration": 0.1340909,
                "tempo": 120.0
            },
            {
                "start_time": 1.1,
                "end_time": 1.2340909,
                "pitch": 58,
                "velocity": 40,
                "duration": 0.1340909,
                "tempo": 120.0
            },
            {
                "start_time": 1.2522727,
                "end_time": 1.3863636,
                "pitch": 46,
                "velocity": 40,
                "duration": 0.1340909,
                "tempo": 120.0
            },
            {
                "start_time": 1.4022727,
                "end_time": 1.5363636,
                "pitch": 46,
                "velocity": 40,
                "duration": 0.1340909,
                "tempo": 120.0
            },
            {
                "start_time": 1.5522727,
                "end_time": 1.6863636,
                "pitch": 58,
                "velocity": 40,
                "duration": 0.1340909,
                "tempo": 120.0
            },
            {
                "start_time": 1.7022727,
                "end_time": 1.8363636,
                "pitch": 46,
                "velocity": 40,
                "duration": 0.1340909,
                "tempo": 120.0
            },
            {
                "start_time": 1.8522727,
                "end_time": 1.9863636,
                "pitch": 46,
                "velocity": 40,
                "duration": 0.1340909,
                "tempo": 120.0
            },
            {
                "start_time": 2.0022727,
                "end_time": 2.1363636,
                "pitch": 58,
                "velocity": 40,
                "duration": 0.1340909,
                "tempo": 120.0
            },
            {
                "start_time": 2.1522727,
                "end_time": 2.2863636,
                "pitch": 46,
                "velocity": 40,
                "duration": 0.1340909,
                "tempo": 120.0
            },
            {
                "start_time": 2.3022727,
                "end_time": 2.4363636,
                "pitch": 51,
                "velocity": 40,
                "duration": 0.1340909,
                "tempo": 120.0
            },
            {
                "start_time": 2.4522727,
                "end_time": 2.5863636,
                "pitch": 51,
                "velocity": 40,
                "duration": 0.1340909,
                "tempo": 120.0
            },
            {
                "start_time": 2.6022727,
                "end_time": 2.7363636,
                "pitch": 63,
                "velocity": 40,
                "duration": 0.1340909,
                "tempo": 120.0
            },
            {
                "start_time": 2.7545455,
                "end_time": 2.8886364,
                "pitch": 51,
                "velocity": 40,
                "duration": 0.1340909,
                "tempo": 120.0
            },
            {
                "start_time": 2.9068182,
                "end_time": 3.0409091,
                "pitch": 51,
                "velocity": 40,
                "duration": 0.1340909,
                "tempo": 120.0
            },
            {
                "start_time": 3.0568182,
                "end_time": 3.1909091,
                "pitch": 63,
                "velocity": 40,
                "duration": 0.1340909,
                "tempo": 120.0
            },
            {
                "start_time": 3.2090909,
                "end_time": 3.3431818,
                "pitch": 51,
                "velocity": 40,
                "duration": 0.1340909,
                "tempo": 120.0
            },
            {
                "start_time": 3.3613636,
                "end_time": 3.4954545,
                "pitch": 51,
                "velocity": 40,
                "duration": 0.1340909,
                "tempo": 120.0
            },
            {
                "start_time": 3.5113636,
                "end_time": 3.6454545,
                "pitch": 65,
                "velocity": 40,
                "duration": 0.1340909,
                "tempo": 120.0
            },
            {
                "start_time": 3.6636364,
                "end_time": 3.7977273,
                "pitch": 65,
                "velocity": 40,
                "duration": 0.1340909,
                "tempo": 120.0
            },
            {
                "start_time": 3.8159091,
                "end_time": 3.95,
                "pitch": 53,
                "velocity": 40,
                "duration": 0.1340909,
                "tempo": 120.0
            },
            {
                "start_time": 3.9659091,
                "end_time": 4.1,
                "pitch": 65,
                "velocity": 40,
                "duration": 0.1340909,
                "tempo": 120.0
            },
            {
                "start_time": 4.1181818,
                "end_time": 4.2522727,
                "pitch": 53,
                "velocity": 40,
                "duration": 0.1340909,
                "tempo": 120.0
            },
            {
                "start_time": 4.2704545,
                "end_time": 4.4045455,
                "pitch": 65,
                "velocity": 40,
                "duration": 0.1340909,
                "tempo": 120.0
            },
            {
                "start_time": 4.4204545,
                "end_time": 4.5545455,
                "pitch": 53,
                "velocity": 40,
                "duration": 0.1340909,
                "tempo": 120.0
            },
            {
                "start_time": 4.5727273,
                "end_time": 4.7068182,
                "pitch": 65,
                "velocity": 40,
                "duration": 0.1340909,
                "tempo": 120.0
            },
            {
                "start_time": 4.725,
                "end_time": 4.8590909,
                "pitch": 60,
                "velocity": 40,
                "duration": 0.1340909,
                "tempo": 120.0
            },
            {
                "start_time": 4.875,
                "end_time": 5.0090909,
                "pitch": 48,
                "velocity": 40,
                "duration": 0.1340909,
                "tempo": 120.0
            },
            {
                "start_time": 5.0272727,
                "end_time": 5.1613636,
                "pitch": 48,
                "velocity": 40,
                "duration": 0.1340909,
                "tempo": 120.0
            },
            {
                "start_time": 5.1772727,
                "end_time": 5.3113636,
                "pitch": 60,
                "velocity": 40,
                "duration": 0.1340909,
                "tempo": 120.0
            },
            {
                "start_time": 5.3272727,
                "end_time": 5.4613636,
                "pitch": 48,
                "velocity": 40,
                "duration": 0.1340909,
                "tempo": 120.0
            },
            {
                "start_time": 5.4772727,
                "end_time": 5.6113636,
                "pitch": 48,
                "velocity": 40,
                "duration": 0.1340909,
                "tempo": 120.0
            },
            {
                "start_time": 5.6272727,
                "end_time": 5.7613636,
                "pitch": 60,
                "velocity": 40,
                "duration": 0.1340909,
                "tempo": 120.0
            },
            {
                "start_time": 5.7795455,
                "end_time": 5.9136364,
                "pitch": 48,
                "velocity": 40,
                "duration": 0.1340909,
                "tempo": 120.0
            },
            {
                "start_time": 5.9295455,
                "end_time": 6.0636364,
                "pitch": 58,
                "velocity": 40,
                "duration": 0.1340909,
                "tempo": 120.0
            },
            {
                "start_time": 6.0818182,
                "end_time": 6.2159091,
                "pitch": 46,
                "velocity": 40,
                "duration": 0.1340909,
                "tempo": 120.0
            },
            {
                "start_time": 6.2340909,
                "end_time": 6.3659091,
                "pitch": 46,
                "velocity": 40,
                "duration": 0.1318182,
                "tempo": 120.0
            },
            {
                "start_time": 6.3840909,
                "end_time": 6.5159091,
                "pitch": 58,
                "velocity": 40,
                "duration": 0.1318182,
                "tempo": 120.0
            },
            {
                "start_time": 6.5340909,
                "end_time": 6.6659091,
                "pitch": 46,
                "velocity": 40,
                "duration": 0.1318182,
                "tempo": 120.0
            },
            {
                "start_time": 6.6840909,
                "end_time": 6.8159091,
                "pitch": 46,
                "velocity": 40,
                "duration": 0.1318182,
                "tempo": 120.0
            },
            {
                "start_time": 6.8340909,
                "end_time": 6.9659091,
                "pitch": 58,
                "velocity": 40,
                "duration": 0.1318182,
                "tempo": 120.0
            },
            {
                "start_time": 6.9840909,
                "end_time": 7.1159091,
                "pitch": 46,
                "velocity": 40,
                "duration": 0.1318182,
                "tempo": 120.0
            },
            {
                "start_time": 7.1340909,
                "end_time": 7.2659091,
                "pitch": 53,
                "velocity": 40,
                "duration": 0.1318182,
                "tempo": 120.0
            },
            {
                "start_time": 7.2840909,
                "end_time": 7.4159091,
                "pitch": 53,
                "velocity": 40,
                "duration": 0.1318182,
                "tempo": 120.0
            },
            {
                "start_time": 7.4340909,
                "end_time": 7.5681818,
                "pitch": 65,
                "velocity": 40,
                "duration": 0.1340909,
                "tempo": 120.0
            },
            {
                "start_time": 7.5840909,
                "end_time": 7.7181818,
                "pitch": 53,
                "velocity": 40,
                "duration": 0.1340909,
                "tempo": 120.0
            },
            {
                "start_time": 7.7363636,
                "end_time": 7.8704545,
                "pitch": 53,
                "velocity": 40,
                "duration": 0.1340909,
                "tempo": 120.0
            },
            {
                "start_time": 7.8886364,
                "end_time": 8.0227273,
                "pitch": 65,
                "velocity": 40,
                "duration": 0.1340909,
                "tempo": 120.0
            },
            {
                "start_time": 8.0386364,
                "end_time": 8.1727273,
                "pitch": 53,
                "velocity": 40,
                "duration": 0.1340909,
                "tempo": 120.0
            },
            {
                "start_time": 8.1886364,
                "end_time": 8.3227273,
                "pitch": 65,
                "velocity": 40,
                "duration": 0.1340909,
                "tempo": 120.0
            },
            {
                "start_time": 8.3386364,
                "end_time": 8.4727273,
                "pitch": 55,
                "velocity": 40,
                "duration": 0.1340909,
                "tempo": 120.0
            },
            {
                "start_time": 8.4886364,
                "end_time": 8.6227273,
                "pitch": 55,
                "velocity": 40,
                "duration": 0.1340909,
                "tempo": 120.0
            },
            {
                "start_time": 8.6386364,
                "end_time": 8.7727273,
                "pitch": 67,
                "velocity": 40,
                "duration": 0.1340909,
                "tempo": 120.0
            },
            {
                "start_time": 8.7886364,
                "end_time": 8.9227273,
                "pitch": 55,
                "velocity": 40,
                "duration": 0.1340909,
                "tempo": 120.0
            },
            {
                "start_time": 8.9386364,
                "end_time": 9.0727273,
                "pitch": 55,
                "velocity": 40,
                "duration": 0.1340909,
                "tempo": 120.0
            },
            {
                "start_time": 9.0886364,
                "end_time": 9.2227273,
                "pitch": 67,
                "velocity": 40,
                "duration": 0.1340909,
                "tempo": 120.0
            },
            {
                "start_time": 9.2386364,
                "end_time": 9.3727273,
                "pitch": 55,
                "velocity": 40,
                "duration": 0.1340909,
                "tempo": 120.0
            },
            {
                "start_time": 9.3886364,
                "end_time": 9.5227273,
                "pitch": 67,
                "velocity": 40,
                "duration": 0.1340909,
                "tempo": 120.0
            },
            {
                "start_time": 9.5386364,
                "end_time": 9.5568182,
                "pitch": 56,
                "velocity": 40,
                "duration": 0.0181818,
                "tempo": 120.0
            },
            {
                "start_time": 9.5727273,
                "end_time": 9.6727273,
                "pitch": 56,
                "velocity": 40,
                "duration": 0.1,
                "tempo": 120.0
            },
            {
                "start_time": 9.6886364,
                "end_time": 9.8227273,
                "pitch": 51,
                "velocity": 40,
                "duration": 0.1340909,
                "tempo": 120.0
            },
            {
                "start_time": 9.8386364,
                "end_time": 9.9727273,
                "pitch": 51,
                "velocity": 40,
                "duration": 0.1340909,
                "tempo": 120.0
            },
            {
                "start_time": 9.9909091,
                "end_time": 10.2772727,
                "pitch": 44,
                "velocity": 40,
                "duration": 0.2863636,
                "tempo": 120.0
            },
            {
                "start_time": 10.2931818,
                "end_time": 10.4272727,
                "pitch": 44,
                "velocity": 40,
                "duration": 0.1340909,
                "tempo": 120.0
            },
            {
                "start_time": 10.4454545,
                "end_time": 10.5795455,
                "pitch": 51,
                "velocity": 40,
                "duration": 0.1340909,
                "tempo": 120.0
            },
            {
                "start_time": 10.5954545,
                "end_time": 10.7295455,
                "pitch": 56,
                "velocity": 40,
                "duration": 0.1340909,
                "tempo": 120.0
            },
            {
                "start_time": 10.7454545,
                "end_time": 10.8795455,
                "pitch": 56,
                "velocity": 40,
                "duration": 0.1340909,
                "tempo": 120.0
            },
            {
                "start_time": 10.8954545,
                "end_time": 11.1795455,
                "pitch": 56,
                "velocity": 40,
                "duration": 0.2840909,
                "tempo": 120.0
            },
            {
                "start_time": 11.1954545,
                "end_time": 11.4795455,
                "pitch": 58,
                "velocity": 40,
                "duration": 0.2840909,
                "tempo": 120.0
            },
            {
                "start_time": 11.4954545,
                "end_time": 11.6295455,
                "pitch": 56,
                "velocity": 40,
                "duration": 0.1340909,
                "tempo": 120.0
            },
            {
                "start_time": 11.6454545,
                "end_time": 11.9295455,
                "pitch": 51,
                "velocity": 40,
                "duration": 0.2840909,
                "tempo": 120.0
            },
            {
                "start_time": 11.9454545,
                "end_time": 12.0795455,
                "pitch": 63,
                "velocity": 40,
                "duration": 0.1340909,
                "tempo": 120.0
            },
            {
                "start_time": 12.0954545,
                "end_time": 12.1113636,
                "pitch": 63,
                "velocity": 40,
                "duration": 0.0159091,
                "tempo": 120.0
            },
            {
                "start_time": 12.1295455,
                "end_time": 12.5295455,
                "pitch": 58,
                "velocity": 40,
                "duration": 0.4,
                "tempo": 120.0
            },
            {
                "start_time": 12.5454545,
                "end_time": 12.8295455,
                "pitch": 51,
                "velocity": 40,
                "duration": 0.2840909,
                "tempo": 120.0
            },
            {
                "start_time": 12.8454545,
                "end_time": 12.9795455,
                "pitch": 51,
                "velocity": 40,
                "duration": 0.1340909,
                "tempo": 120.0
            },
            {
                "start_time": 12.9977273,
                "end_time": 13.1318182,
                "pitch": 55,
                "velocity": 40,
                "duration": 0.1340909,
                "tempo": 120.0
            },
            {
                "start_time": 13.1477273,
                "end_time": 13.2818182,
                "pitch": 58,
                "velocity": 40,
                "duration": 0.1340909,
                "tempo": 120.0
            },
            {
                "start_time": 13.3,
                "end_time": 13.4340909,
                "pitch": 63,
                "velocity": 40,
                "duration": 0.1340909,
                "tempo": 120.0
            },
            {
                "start_time": 13.4522727,
                "end_time": 13.5840909,
                "pitch": 63,
                "velocity": 40,
                "duration": 0.1318182,
                "tempo": 120.0
            },
            {
                "start_time": 13.6022727,
                "end_time": 13.8840909,
                "pitch": 63,
                "velocity": 40,
                "duration": 0.2818182,
                "tempo": 120.0
            },
            {
                "start_time": 13.9022727,
                "end_time": 14.0340909,
                "pitch": 58,
                "velocity": 40,
                "duration": 0.1318182,
                "tempo": 120.0
            },
            {
                "start_time": 14.0522727,
                "end_time": 14.3340909,
                "pitch": 51,
                "velocity": 40,
                "duration": 0.2818182,
                "tempo": 120.0
            },
            {
                "start_time": 14.3522727,
                "end_time": 14.4840909,
                "pitch": 56,
                "velocity": 40,
                "duration": 0.1318182,
                "tempo": 120.0
            },
            {
                "start_time": 14.5022727,
                "end_time": 14.5340909,
                "pitch": 56,
                "velocity": 40,
                "duration": 0.0318182,
                "tempo": 120.0
            },
            {
                "start_time": 14.9522727,
                "end_time": 15.0840909,
                "pitch": 56,
                "velocity": 40,
                "duration": 0.1318182,
                "tempo": 120.0
            },
            {
                "start_time": 15.1022727,
                "end_time": 15.3840909,
                "pitch": 56,
                "velocity": 40,
                "duration": 0.2818182,
                "tempo": 120.0
            },
            {
                "start_time": 15.4022727,
                "end_time": 15.6840909,
                "pitch": 44,
                "velocity": 40,
                "duration": 0.2818182,
                "tempo": 120.0
            },
            {
                "start_time": 15.7022727,
                "end_time": 15.8340909,
                "pitch": 44,
                "velocity": 40,
                "duration": 0.1318182,
                "tempo": 120.0
            },
            {
                "start_time": 15.8522727,
                "end_time": 15.9863636,
                "pitch": 44,
                "velocity": 40,
                "duration": 0.1340909,
                "tempo": 120.0
            },
            {
                "start_time": 16.0022727,
                "end_time": 16.1363636,
                "pitch": 44,
                "velocity": 40,
                "duration": 0.1340909,
                "tempo": 120.0
            },
            {
                "start_time": 16.1545455,
                "end_time": 16.2886364,
                "pitch": 51,
                "velocity": 40,
                "duration": 0.1340909,
                "tempo": 120.0
            },
            {
                "start_time": 16.3068182,
                "end_time": 16.4409091,
                "pitch": 56,
                "velocity": 40,
                "duration": 0.1340909,
                "tempo": 120.0
            },
            {
                "start_time": 16.4568182,
                "end_time": 16.5909091,
                "pitch": 51,
                "velocity": 40,
                "duration": 0.1340909,
                "tempo": 120.0
            },
            {
                "start_time": 16.6068182,
                "end_time": 17.0409091,
                "pitch": 56,
                "velocity": 40,
                "duration": 0.4340909,
                "tempo": 120.0
            },
            {
                "start_time": 17.0568182,
                "end_time": 17.1909091,
                "pitch": 58,
                "velocity": 40,
                "duration": 0.1340909,
                "tempo": 120.0
            },
            {
                "start_time": 17.2090909,
                "end_time": 17.4954545,
                "pitch": 58,
                "velocity": 40,
                "duration": 0.2863636,
                "tempo": 120.0
            },
            {
                "start_time": 17.5113636,
                "end_time": 17.6454545,
                "pitch": 46,
                "velocity": 40,
                "duration": 0.1340909,
                "tempo": 120.0
            },
            {
                "start_time": 17.6636364,
                "end_time": 17.7977273,
                "pitch": 46,
                "velocity": 40,
                "duration": 0.1340909,
                "tempo": 120.0
            },
            {
                "start_time": 17.8159091,
                "end_time": 17.95,
                "pitch": 46,
                "velocity": 40,
                "duration": 0.1340909,
                "tempo": 120.0
            },
            {
                "start_time": 17.9659091,
                "end_time": 18.1,
                "pitch": 58,
                "velocity": 40,
                "duration": 0.1340909,
                "tempo": 120.0
            },
            {
                "start_time": 18.1181818,
                "end_time": 18.2522727,
                "pitch": 58,
                "velocity": 40,
                "duration": 0.1340909,
                "tempo": 120.0
            },
            {
                "start_time": 18.2681818,
                "end_time": 18.4022727,
                "pitch": 60,
                "velocity": 40,
                "duration": 0.1340909,
                "tempo": 120.0
            },
            {
                "start_time": 18.4181818,
                "end_time": 18.55,
                "pitch": 58,
                "velocity": 40,
                "duration": 0.1318182,
                "tempo": 120.0
            },
            {
                "start_time": 18.5659091,
                "end_time": 18.6977273,
                "pitch": 60,
                "velocity": 40,
                "duration": 0.1318182,
                "tempo": 120.0
            },
            {
                "start_time": 18.7136364,
                "end_time": 18.8477273,
                "pitch": 58,
                "velocity": 40,
                "duration": 0.1340909,
                "tempo": 120.0
            },
            {
                "start_time": 18.8636364,
                "end_time": 19.0,
                "pitch": 60,
                "velocity": 40,
                "duration": 0.1363636,
                "tempo": 120.0
            },
            {
                "start_time": 19.0159091,
                "end_time": 19.1522727,
                "pitch": 58,
                "velocity": 40,
                "duration": 0.1363636,
                "tempo": 120.0
            },
            {
                "start_time": 19.1681818,
                "end_time": 19.3045455,
                "pitch": 56,
                "velocity": 40,
                "duration": 0.1363636,
                "tempo": 120.0
            },
            {
                "start_time": 19.3227273,
                "end_time": 19.6090909,
                "pitch": 56,
                "velocity": 40,
                "duration": 0.2863636,
                "tempo": 120.0
            },
            {
                "start_time": 19.625,
                "end_time": 19.9090909,
                "pitch": 44,
                "velocity": 40,
                "duration": 0.2840909,
                "tempo": 120.0
            },
            {
                "start_time": 19.925,
                "end_time": 20.3613636,
                "pitch": 44,
                "velocity": 40,
                "duration": 0.4363636,
                "tempo": 120.0
            },
            {
                "start_time": 20.3795455,
                "end_time": 20.5136364,
                "pitch": 51,
                "velocity": 40,
                "duration": 0.1340909,
                "tempo": 120.0
            },
            {
                "start_time": 20.5295455,
                "end_time": 20.8159091,
                "pitch": 56,
                "velocity": 40,
                "duration": 0.2863636,
                "tempo": 120.0
            },
            {
                "start_time": 20.8340909,
                "end_time": 21.1181818,
                "pitch": 56,
                "velocity": 40,
                "duration": 0.2840909,
                "tempo": 120.0
            },
            {
                "start_time": 21.1363636,
                "end_time": 21.2704545,
                "pitch": 51,
                "velocity": 40,
                "duration": 0.1340909,
                "tempo": 120.0
            },
            {
                "start_time": 21.2886364,
                "end_time": 21.8704545,
                "pitch": 44,
                "velocity": 40,
                "duration": 0.5818182,
                "tempo": 120.0
            },
            {
                "start_time": 21.8886364,
                "end_time": 22.0227273,
                "pitch": 63,
                "velocity": 40,
                "duration": 0.1340909,
                "tempo": 120.0
            },
            {
                "start_time": 22.0386364,
                "end_time": 22.325,
                "pitch": 63,
                "velocity": 40,
                "duration": 0.2863636,
                "tempo": 120.0
            },
            {
                "start_time": 22.3431818,
                "end_time": 22.6272727,
                "pitch": 63,
                "velocity": 40,
                "duration": 0.2840909,
                "tempo": 120.0
            },
            {
                "start_time": 22.6431818,
                "end_time": 22.7772727,
                "pitch": 63,
                "velocity": 40,
                "duration": 0.1340909,
                "tempo": 120.0
            },
            {
                "start_time": 22.7931818,
                "end_time": 22.9272727,
                "pitch": 63,
                "velocity": 40,
                "duration": 0.1340909,
                "tempo": 120.0
            },
            {
                "start_time": 22.9431818,
                "end_time": 23.0772727,
                "pitch": 51,
                "velocity": 40,
                "duration": 0.1340909,
                "tempo": 120.0
            },
            {
                "start_time": 23.0931818,
                "end_time": 23.2272727,
                "pitch": 55,
                "velocity": 40,
                "duration": 0.1340909,
                "tempo": 120.0
            },
            {
                "start_time": 23.2454545,
                "end_time": 23.3795455,
                "pitch": 58,
                "velocity": 40,
                "duration": 0.1340909,
                "tempo": 120.0
            },
            {
                "start_time": 23.3977273,
                "end_time": 23.5318182,
                "pitch": 63,
                "velocity": 40,
                "duration": 0.1340909,
                "tempo": 120.0
            },
            {
                "start_time": 23.5477273,
                "end_time": 23.6818182,
                "pitch": 58,
                "velocity": 40,
                "duration": 0.1340909,
                "tempo": 120.0
            },
            {
                "start_time": 23.7,
                "end_time": 23.8340909,
                "pitch": 55,
                "velocity": 40,
                "duration": 0.1340909,
                "tempo": 120.0
            },
            {
                "start_time": 23.8522727,
                "end_time": 23.9863636,
                "pitch": 51,
                "velocity": 40,
                "duration": 0.1340909,
                "tempo": 120.0
            },
            {
                "start_time": 24.0022727,
                "end_time": 24.1363636,
                "pitch": 44,
                "velocity": 40,
                "duration": 0.1340909,
                "tempo": 120.0
            },
            {
                "start_time": 24.1545455,
                "end_time": 24.4386364,
                "pitch": 44,
                "velocity": 40,
                "duration": 0.2840909,
                "tempo": 120.0
            },
            {
                "start_time": 24.4568182,
                "end_time": 24.5886364,
                "pitch": 44,
                "velocity": 40,
                "duration": 0.1318182,
                "tempo": 120.0
            },
            {
                "start_time": 24.6068182,
                "end_time": 24.7386364,
                "pitch": 44,
                "velocity": 40,
                "duration": 0.1318182,
                "tempo": 120.0
            },
            {
                "start_time": 24.7568182,
                "end_time": 25.0409091,
                "pitch": 56,
                "velocity": 40,
                "duration": 0.2840909,
                "tempo": 120.0
            },
            {
                "start_time": 25.0568182,
                "end_time": 25.1909091,
                "pitch": 56,
                "velocity": 40,
                "duration": 0.1340909,
                "tempo": 120.0
            },
            {
                "start_time": 25.2090909,
                "end_time": 25.3431818,
                "pitch": 56,
                "velocity": 40,
                "duration": 0.1340909,
                "tempo": 120.0
            },
            {
                "start_time": 25.3613636,
                "end_time": 25.4954545,
                "pitch": 55,
                "velocity": 40,
                "duration": 0.1340909,
                "tempo": 120.0
            },
            {
                "start_time": 25.5113636,
                "end_time": 25.6454545,
                "pitch": 56,
                "velocity": 40,
                "duration": 0.1340909,
                "tempo": 120.0
            },
            {
                "start_time": 25.6613636,
                "end_time": 25.7954545,
                "pitch": 55,
                "velocity": 40,
                "duration": 0.1340909,
                "tempo": 120.0
            },
            {
                "start_time": 25.8113636,
                "end_time": 25.9454545,
                "pitch": 56,
                "velocity": 40,
                "duration": 0.1340909,
                "tempo": 120.0
            },
            {
                "start_time": 25.9613636,
                "end_time": 26.0954545,
                "pitch": 55,
                "velocity": 40,
                "duration": 0.1340909,
                "tempo": 120.0
            },
            {
                "start_time": 26.1113636,
                "end_time": 26.2454545,
                "pitch": 53,
                "velocity": 40,
                "duration": 0.1340909,
                "tempo": 120.0
            },
            {
                "start_time": 26.2636364,
                "end_time": 26.3477273,
                "pitch": 51,
                "velocity": 40,
                "duration": 0.0840909,
                "tempo": 120.0
            },
            {
                "start_time": 26.7181818,
                "end_time": 26.8522727,
                "pitch": 46,
                "velocity": 40,
                "duration": 0.1340909,
                "tempo": 120.0
            },
            {
                "start_time": 26.8704545,
                "end_time": 27.0045455,
                "pitch": 46,
                "velocity": 40,
                "duration": 0.1340909,
                "tempo": 120.0
            },
            {
                "start_time": 27.0204545,
                "end_time": 27.1545455,
                "pitch": 58,
                "velocity": 40,
                "duration": 0.1340909,
                "tempo": 120.0
            },
            {
                "start_time": 27.1727273,
                "end_time": 27.3068182,
                "pitch": 46,
                "velocity": 40,
                "duration": 0.1340909,
                "tempo": 120.0
            },
            {
                "start_time": 27.325,
                "end_time": 27.4568182,
                "pitch": 58,
                "velocity": 40,
                "duration": 0.1318182,
                "tempo": 120.0
            },
            {
                "start_time": 27.475,
                "end_time": 27.6068182,
                "pitch": 46,
                "velocity": 40,
                "duration": 0.1318182,
                "tempo": 120.0
            },
            {
                "start_time": 27.625,
                "end_time": 27.7568182,
                "pitch": 58,
                "velocity": 40,
                "duration": 0.1318182,
                "tempo": 120.0
            },
            {
                "start_time": 27.775,
                "end_time": 27.9068182,
                "pitch": 58,
                "velocity": 40,
                "duration": 0.1318182,
                "tempo": 120.0
            },
            {
                "start_time": 27.925,
                "end_time": 28.0568182,
                "pitch": 58,
                "velocity": 40,
                "duration": 0.1318182,
                "tempo": 120.0
            },
            {
                "start_time": 28.0727273,
                "end_time": 28.2045455,
                "pitch": 58,
                "velocity": 40,
                "duration": 0.1318182,
                "tempo": 120.0
            },
            {
                "start_time": 28.2204545,
                "end_time": 28.3522727,
                "pitch": 58,
                "velocity": 40,
                "duration": 0.1318182,
                "tempo": 120.0
            },
            {
                "start_time": 28.3704545,
                "end_time": 28.5022727,
                "pitch": 58,
                "velocity": 40,
                "duration": 0.1318182,
                "tempo": 120.0
            },
            {
                "start_time": 28.5181818,
                "end_time": 28.6545455,
                "pitch": 58,
                "velocity": 40,
                "duration": 0.1363636,
                "tempo": 120.0
            },
            {
                "start_time": 28.6704545,
                "end_time": 28.8068182,
                "pitch": 58,
                "velocity": 40,
                "duration": 0.1363636,
                "tempo": 120.0
            },
            {
                "start_time": 28.825,
                "end_time": 29.2659091,
                "pitch": 48,
                "velocity": 40,
                "duration": 0.4409091,
                "tempo": 120.0
            },
            {
                "start_time": 29.2818182,
                "end_time": 29.5681818,
                "pitch": 48,
                "velocity": 40,
                "duration": 0.2863636,
                "tempo": 120.0
            },
            {
                "start_time": 29.5840909,
                "end_time": 29.7204545,
                "pitch": 48,
                "velocity": 40,
                "duration": 0.1363636,
                "tempo": 120.0
            },
            {
                "start_time": 29.7363636,
                "end_time": 29.8704545,
                "pitch": 48,
                "velocity": 40,
                "duration": 0.1340909,
                "tempo": 120.0
            },
            {
                "start_time": 29.8886364,
                "end_time": 30.0227273,
                "pitch": 48,
                "velocity": 40,
                "duration": 0.1340909,
                "tempo": 120.0
            },
            {
                "start_time": 30.0386364,
                "end_time": 30.7431818,
                "pitch": 48,
                "velocity": 40,
                "duration": 0.7045455,
                "tempo": 120.0
            },
            {
                "start_time": 31.2454545,
                "end_time": 31.3795455,
                "pitch": 60,
                "velocity": 40,
                "duration": 0.1340909,
                "tempo": 120.0
            },
            {
                "start_time": 31.3977273,
                "end_time": 31.5409091,
                "pitch": 48,
                "velocity": 40,
                "duration": 0.1431818,
                "tempo": 120.0
            }
        ],
        "Vibraphone": [
            {
                "start_time": 0.0136364,
                "end_time": 0.025,
                "pitch": 72,
                "velocity": 51,
                "duration": 0.0113636,
                "tempo": 120.0
            },
            {
                "start_time": 0.0477273,
                "end_time": 0.0795455,
                "pitch": 76,
                "velocity": 51,
                "duration": 0.0318182,
                "tempo": 120.0
            },
            {
                "start_time": 0.0909091,
                "end_time": 0.125,
                "pitch": 77,
                "velocity": 51,
                "duration": 0.0340909,
                "tempo": 120.0
            },
            {
                "start_time": 0.1477273,
                "end_time": 0.1795455,
                "pitch": 79,
                "velocity": 51,
                "duration": 0.0318182,
                "tempo": 120.0
            },
            {
                "start_time": 0.1909091,
                "end_time": 0.2409091,
                "pitch": 72,
                "velocity": 51,
                "duration": 0.05,
                "tempo": 120.0
            },
            {
                "start_time": 0.275,
                "end_time": 0.325,
                "pitch": 76,
                "velocity": 51,
                "duration": 0.05,
                "tempo": 120.0
            },
            {
                "start_time": 0.3431818,
                "end_time": 0.3931818,
                "pitch": 77,
                "velocity": 51,
                "duration": 0.05,
                "tempo": 120.0
            },
            {
                "start_time": 0.4272727,
                "end_time": 0.4772727,
                "pitch": 79,
                "velocity": 51,
                "duration": 0.05,
                "tempo": 120.0
            },
            {
                "start_time": 0.4931818,
                "end_time": 0.5431818,
                "pitch": 72,
                "velocity": 51,
                "duration": 0.05,
                "tempo": 120.0
            },
            {
                "start_time": 0.5772727,
                "end_time": 0.6272727,
                "pitch": 76,
                "velocity": 51,
                "duration": 0.05,
                "tempo": 120.0
            },
            {
                "start_time": 0.6454545,
                "end_time": 0.6954545,
                "pitch": 77,
                "velocity": 51,
                "duration": 0.05,
                "tempo": 120.0
            },
            {
                "start_time": 0.7295455,
                "end_time": 0.7795455,
                "pitch": 79,
                "velocity": 51,
                "duration": 0.05,
                "tempo": 120.0
            },
            {
                "start_time": 0.7977273,
                "end_time": 0.8477273,
                "pitch": 72,
                "velocity": 51,
                "duration": 0.05,
                "tempo": 120.0
            },
            {
                "start_time": 0.8818182,
                "end_time": 0.9318182,
                "pitch": 76,
                "velocity": 51,
                "duration": 0.05,
                "tempo": 120.0
            },
            {
                "start_time": 0.9477273,
                "end_time": 0.9977273,
                "pitch": 77,
                "velocity": 51,
                "duration": 0.05,
                "tempo": 120.0
            },
            {
                "start_time": 1.0318182,
                "end_time": 1.0818182,
                "pitch": 79,
                "velocity": 51,
                "duration": 0.05,
                "tempo": 120.0
            },
            {
                "start_time": 1.1,
                "end_time": 1.15,
                "pitch": 70,
                "velocity": 51,
                "duration": 0.05,
                "tempo": 120.0
            },
            {
                "start_time": 1.1840909,
                "end_time": 1.2340909,
                "pitch": 74,
                "velocity": 51,
                "duration": 0.05,
                "tempo": 120.0
            },
            {
                "start_time": 1.2522727,
                "end_time": 1.3022727,
                "pitch": 76,
                "velocity": 51,
                "duration": 0.05,
                "tempo": 120.0
            },
            {
                "start_time": 1.3363636,
                "end_time": 1.3863636,
                "pitch": 77,
                "velocity": 51,
                "duration": 0.05,
                "tempo": 120.0
            },
            {
                "start_time": 1.4022727,
                "end_time": 1.4522727,
                "pitch": 70,
                "velocity": 51,
                "duration": 0.05,
                "tempo": 120.0
            },
            {
                "start_time": 1.4863636,
                "end_time": 1.5363636,
                "pitch": 74,
                "velocity": 51,
                "duration": 0.05,
                "tempo": 120.0
            },
            {
                "start_time": 1.5522727,
                "end_time": 1.6022727,
                "pitch": 76,
                "velocity": 51,
                "duration": 0.05,
                "tempo": 120.0
            },
            {
                "start_time": 1.6363636,
                "end_time": 1.6863636,
                "pitch": 77,
                "velocity": 51,
                "duration": 0.05,
                "tempo": 120.0
            },
            {
                "start_time": 1.7022727,
                "end_time": 1.7522727,
                "pitch": 70,
                "velocity": 51,
                "duration": 0.05,
                "tempo": 120.0
            },
            {
                "start_time": 1.7863636,
                "end_time": 1.8363636,
                "pitch": 74,
                "velocity": 51,
                "duration": 0.05,
                "tempo": 120.0
            },
            {
                "start_time": 1.8522727,
                "end_time": 1.9022727,
                "pitch": 76,
                "velocity": 51,
                "duration": 0.05,
                "tempo": 120.0
            },
            {
                "start_time": 1.9363636,
                "end_time": 1.9863636,
                "pitch": 77,
                "velocity": 51,
                "duration": 0.05,
                "tempo": 120.0
            },
            {
                "start_time": 2.0022727,
                "end_time": 2.0522727,
                "pitch": 70,
                "velocity": 51,
                "duration": 0.05,
                "tempo": 120.0
            },
            {
                "start_time": 2.0863636,
                "end_time": 2.1363636,
                "pitch": 74,
                "velocity": 51,
                "duration": 0.05,
                "tempo": 120.0
            },
            {
                "start_time": 2.1522727,
                "end_time": 2.2022727,
                "pitch": 76,
                "velocity": 51,
                "duration": 0.05,
                "tempo": 120.0
            },
            {
                "start_time": 2.2363636,
                "end_time": 2.2863636,
                "pitch": 77,
                "velocity": 51,
                "duration": 0.05,
                "tempo": 120.0
            },
            {
                "start_time": 2.3022727,
                "end_time": 2.3522727,
                "pitch": 75,
                "velocity": 51,
                "duration": 0.05,
                "tempo": 120.0
            },
            {
                "start_time": 2.3863636,
                "end_time": 2.4363636,
                "pitch": 79,
                "velocity": 51,
                "duration": 0.05,
                "tempo": 120.0
            },
            {
                "start_time": 2.4522727,
                "end_time": 2.5022727,
                "pitch": 80,
                "velocity": 51,
                "duration": 0.05,
                "tempo": 120.0
            },
            {
                "start_time": 2.5363636,
                "end_time": 2.5863636,
                "pitch": 82,
                "velocity": 51,
                "duration": 0.05,
                "tempo": 120.0
            },
            {
                "start_time": 2.6022727,
                "end_time": 2.6522727,
                "pitch": 75,
                "velocity": 51,
                "duration": 0.05,
                "tempo": 120.0
            },
            {
                "start_time": 2.6863636,
                "end_time": 2.7363636,
                "pitch": 79,
                "velocity": 51,
                "duration": 0.05,
                "tempo": 120.0
            },
            {
                "start_time": 2.7545455,
                "end_time": 2.8045455,
                "pitch": 80,
                "velocity": 51,
                "duration": 0.05,
                "tempo": 120.0
            },
            {
                "start_time": 2.8386364,
                "end_time": 2.8886364,
                "pitch": 82,
                "velocity": 51,
                "duration": 0.05,
                "tempo": 120.0
            },
            {
                "start_time": 2.9068182,
                "end_time": 2.9568182,
                "pitch": 75,
                "velocity": 51,
                "duration": 0.05,
                "tempo": 120.0
            },
            {
                "start_time": 2.9909091,
                "end_time": 3.0409091,
                "pitch": 79,
                "velocity": 51,
                "duration": 0.05,
                "tempo": 120.0
            },
            {
                "start_time": 3.0568182,
                "end_time": 3.1068182,
                "pitch": 80,
                "velocity": 51,
                "duration": 0.05,
                "tempo": 120.0
            },
            {
                "start_time": 3.1409091,
                "end_time": 3.1909091,
                "pitch": 82,
                "velocity": 51,
                "duration": 0.05,
                "tempo": 120.0
            },
            {
                "start_time": 3.2090909,
                "end_time": 3.2590909,
                "pitch": 75,
                "velocity": 51,
                "duration": 0.05,
                "tempo": 120.0
            },
            {
                "start_time": 3.2931818,
                "end_time": 3.3431818,
                "pitch": 79,
                "velocity": 51,
                "duration": 0.05,
                "tempo": 120.0
            },
            {
                "start_time": 3.3613636,
                "end_time": 3.4113636,
                "pitch": 80,
                "velocity": 51,
                "duration": 0.05,
                "tempo": 120.0
            },
            {
                "start_time": 3.4454545,
                "end_time": 3.4954545,
                "pitch": 82,
                "velocity": 51,
                "duration": 0.05,
                "tempo": 120.0
            },
            {
                "start_time": 3.5113636,
                "end_time": 3.5613636,
                "pitch": 77,
                "velocity": 51,
                "duration": 0.05,
                "tempo": 120.0
            },
            {
                "start_time": 3.5954545,
                "end_time": 3.6454545,
                "pitch": 81,
                "velocity": 51,
                "duration": 0.05,
                "tempo": 120.0
            },
            {
                "start_time": 3.6636364,
                "end_time": 3.7136364,
                "pitch": 82,
                "velocity": 51,
                "duration": 0.05,
                "tempo": 120.0
            },
            {
                "start_time": 3.7477273,
                "end_time": 3.7977273,
                "pitch": 84,
                "velocity": 51,
                "duration": 0.05,
                "tempo": 120.0
            },
            {
                "start_time": 3.8159091,
                "end_time": 3.8659091,
                "pitch": 77,
                "velocity": 51,
                "duration": 0.05,
                "tempo": 120.0
            },
            {
                "start_time": 3.9,
                "end_time": 3.95,
                "pitch": 81,
                "velocity": 51,
                "duration": 0.05,
                "tempo": 120.0
            },
            {
                "start_time": 3.9659091,
                "end_time": 4.0159091,
                "pitch": 82,
                "velocity": 51,
                "duration": 0.05,
                "tempo": 120.0
            },
            {
                "start_time": 4.05,
                "end_time": 4.1,
                "pitch": 84,
                "velocity": 51,
                "duration": 0.05,
                "tempo": 120.0
            },
            {
                "start_time": 4.1181818,
                "end_time": 4.1681818,
                "pitch": 77,
                "velocity": 51,
                "duration": 0.05,
                "tempo": 120.0
            },
            {
                "start_time": 4.2022727,
                "end_time": 4.2522727,
                "pitch": 81,
                "velocity": 51,
                "duration": 0.05,
                "tempo": 120.0
            },
            {
                "start_time": 4.2704545,
                "end_time": 4.3204545,
                "pitch": 82,
                "velocity": 51,
                "duration": 0.05,
                "tempo": 120.0
            },
            {
                "start_time": 4.3545455,
                "end_time": 4.4045455,
                "pitch": 84,
                "velocity": 51,
                "duration": 0.05,
                "tempo": 120.0
            },
            {
                "start_time": 4.4204545,
                "end_time": 4.4704545,
                "pitch": 86,
                "velocity": 51,
                "duration": 0.05,
                "tempo": 120.0
            },
            {
                "start_time": 4.5045455,
                "end_time": 4.5545455,
                "pitch": 84,
                "velocity": 51,
                "duration": 0.05,
                "tempo": 120.0
            },
            {
                "start_time": 4.5727273,
                "end_time": 4.6227273,
                "pitch": 82,
                "velocity": 51,
                "duration": 0.05,
                "tempo": 120.0
            },
            {
                "start_time": 4.6568182,
                "end_time": 4.7068182,
                "pitch": 81,
                "velocity": 51,
                "duration": 0.05,
                "tempo": 120.0
            },
            {
                "start_time": 4.725,
                "end_time": 4.775,
                "pitch": 72,
                "velocity": 51,
                "duration": 0.05,
                "tempo": 120.0
            },
            {
                "start_time": 4.8090909,
                "end_time": 4.8590909,
                "pitch": 76,
                "velocity": 51,
                "duration": 0.05,
                "tempo": 120.0
            },
            {
                "start_time": 4.875,
                "end_time": 4.925,
                "pitch": 77,
                "velocity": 51,
                "duration": 0.05,
                "tempo": 120.0
            },
            {
                "start_time": 4.9590909,
                "end_time": 5.0090909,
                "pitch": 79,
                "velocity": 51,
                "duration": 0.05,
                "tempo": 120.0
            },
            {
                "start_time": 5.0272727,
                "end_time": 5.0772727,
                "pitch": 72,
                "velocity": 51,
                "duration": 0.05,
                "tempo": 120.0
            },
            {
                "start_time": 5.1113636,
                "end_time": 5.1613636,
                "pitch": 76,
                "velocity": 51,
                "duration": 0.05,
                "tempo": 120.0
            },
            {
                "start_time": 5.1772727,
                "end_time": 5.2272727,
                "pitch": 77,
                "velocity": 51,
                "duration": 0.05,
                "tempo": 120.0
            },
            {
                "start_time": 5.2613636,
                "end_time": 5.3113636,
                "pitch": 79,
                "velocity": 51,
                "duration": 0.05,
                "tempo": 120.0
            },
            {
                "start_time": 5.3272727,
                "end_time": 5.3772727,
                "pitch": 72,
                "velocity": 51,
                "duration": 0.05,
                "tempo": 120.0
            },
            {
                "start_time": 5.4113636,
                "end_time": 5.4613636,
                "pitch": 76,
                "velocity": 51,
                "duration": 0.05,
                "tempo": 120.0
            },
            {
                "start_time": 5.4772727,
                "end_time": 5.5272727,
                "pitch": 77,
                "velocity": 51,
                "duration": 0.05,
                "tempo": 120.0
            },
            {
                "start_time": 5.5613636,
                "end_time": 5.6113636,
                "pitch": 79,
                "velocity": 51,
                "duration": 0.05,
                "tempo": 120.0
            },
            {
                "start_time": 5.6272727,
                "end_time": 5.6772727,
                "pitch": 72,
                "velocity": 51,
                "duration": 0.05,
                "tempo": 120.0
            },
            {
                "start_time": 5.7113636,
                "end_time": 5.7613636,
                "pitch": 76,
                "velocity": 51,
                "duration": 0.05,
                "tempo": 120.0
            },
            {
                "start_time": 5.7795455,
                "end_time": 5.8295455,
                "pitch": 77,
                "velocity": 51,
                "duration": 0.05,
                "tempo": 120.0
            },
            {
                "start_time": 5.8636364,
                "end_time": 5.9136364,
                "pitch": 79,
                "velocity": 51,
                "duration": 0.05,
                "tempo": 120.0
            },
            {
                "start_time": 5.9295455,
                "end_time": 5.9795455,
                "pitch": 70,
                "velocity": 51,
                "duration": 0.05,
                "tempo": 120.0
            },
            {
                "start_time": 6.0136364,
                "end_time": 6.0636364,
                "pitch": 74,
                "velocity": 51,
                "duration": 0.05,
                "tempo": 120.0
            },
            {
                "start_time": 6.0818182,
                "end_time": 6.1318182,
                "pitch": 76,
                "velocity": 51,
                "duration": 0.05,
                "tempo": 120.0
            },
            {
                "start_time": 6.1659091,
                "end_time": 6.2159091,
                "pitch": 77,
                "velocity": 51,
                "duration": 0.05,
                "tempo": 120.0
            },
            {
                "start_time": 6.2340909,
                "end_time": 6.2840909,
                "pitch": 70,
                "velocity": 51,
                "duration": 0.05,
                "tempo": 120.0
            },
            {
                "start_time": 6.3159091,
                "end_time": 6.3659091,
                "pitch": 74,
                "velocity": 51,
                "duration": 0.05,
                "tempo": 120.0
            },
            {
                "start_time": 6.3840909,
                "end_time": 6.4340909,
                "pitch": 76,
                "velocity": 51,
                "duration": 0.05,
                "tempo": 120.0
            },
            {
                "start_time": 6.4659091,
                "end_time": 6.5159091,
                "pitch": 77,
                "velocity": 51,
                "duration": 0.05,
                "tempo": 120.0
            },
            {
                "start_time": 6.5340909,
                "end_time": 6.5840909,
                "pitch": 70,
                "velocity": 51,
                "duration": 0.05,
                "tempo": 120.0
            },
            {
                "start_time": 6.6159091,
                "end_time": 6.6659091,
                "pitch": 74,
                "velocity": 51,
                "duration": 0.05,
                "tempo": 120.0
            },
            {
                "start_time": 6.6840909,
                "end_time": 6.7340909,
                "pitch": 76,
                "velocity": 51,
                "duration": 0.05,
                "tempo": 120.0
            },
            {
                "start_time": 6.7659091,
                "end_time": 6.8159091,
                "pitch": 77,
                "velocity": 51,
                "duration": 0.05,
                "tempo": 120.0
            },
            {
                "start_time": 6.8340909,
                "end_time": 6.8840909,
                "pitch": 70,
                "velocity": 51,
                "duration": 0.05,
                "tempo": 120.0
            },
            {
                "start_time": 6.9159091,
                "end_time": 6.9659091,
                "pitch": 74,
                "velocity": 51,
                "duration": 0.05,
                "tempo": 120.0
            },
            {
                "start_time": 6.9840909,
                "end_time": 7.0340909,
                "pitch": 76,
                "velocity": 51,
                "duration": 0.05,
                "tempo": 120.0
            },
            {
                "start_time": 7.0659091,
                "end_time": 7.1159091,
                "pitch": 77,
                "velocity": 51,
                "duration": 0.05,
                "tempo": 120.0
            },
            {
                "start_time": 7.1340909,
                "end_time": 7.1840909,
                "pitch": 77,
                "velocity": 51,
                "duration": 0.05,
                "tempo": 120.0
            },
            {
                "start_time": 7.2159091,
                "end_time": 7.2659091,
                "pitch": 81,
                "velocity": 51,
                "duration": 0.05,
                "tempo": 120.0
            },
            {
                "start_time": 7.2840909,
                "end_time": 7.3340909,
                "pitch": 82,
                "velocity": 51,
                "duration": 0.05,
                "tempo": 120.0
            },
            {
                "start_time": 7.3659091,
                "end_time": 7.4159091,
                "pitch": 84,
                "velocity": 51,
                "duration": 0.05,
                "tempo": 120.0
            },
            {
                "start_time": 7.4340909,
                "end_time": 7.4840909,
                "pitch": 77,
                "velocity": 51,
                "duration": 0.05,
                "tempo": 120.0
            },
            {
                "start_time": 7.5181818,
                "end_time": 7.5681818,
                "pitch": 81,
                "velocity": 51,
                "duration": 0.05,
                "tempo": 120.0
            },
            {
                "start_time": 7.5840909,
                "end_time": 7.6340909,
                "pitch": 82,
                "velocity": 51,
                "duration": 0.05,
                "tempo": 120.0
            },
            {
                "start_time": 7.6681818,
                "end_time": 7.7181818,
                "pitch": 84,
                "velocity": 51,
                "duration": 0.05,
                "tempo": 120.0
            },
            {
                "start_time": 7.7363636,
                "end_time": 7.7863636,
                "pitch": 77,
                "velocity": 51,
                "duration": 0.05,
                "tempo": 120.0
            },
            {
                "start_time": 7.8204545,
                "end_time": 7.8704545,
                "pitch": 81,
                "velocity": 51,
                "duration": 0.05,
                "tempo": 120.0
            },
            {
                "start_time": 7.8886364,
                "end_time": 7.9386364,
                "pitch": 82,
                "velocity": 51,
                "duration": 0.05,
                "tempo": 120.0
            },
            {
                "start_time": 7.9727273,
                "end_time": 8.0227273,
                "pitch": 84,
                "velocity": 51,
                "duration": 0.05,
                "tempo": 120.0
            },
            {
                "start_time": 8.0386364,
                "end_time": 8.0886364,
                "pitch": 77,
                "velocity": 51,
                "duration": 0.05,
                "tempo": 120.0
            },
            {
                "start_time": 8.1227273,
                "end_time": 8.1727273,
                "pitch": 81,
                "velocity": 51,
                "duration": 0.05,
                "tempo": 120.0
            },
            {
                "start_time": 8.1886364,
                "end_time": 8.2386364,
                "pitch": 82,
                "velocity": 51,
                "duration": 0.05,
                "tempo": 120.0
            },
            {
                "start_time": 8.2727273,
                "end_time": 8.3227273,
                "pitch": 84,
                "velocity": 51,
                "duration": 0.05,
                "tempo": 120.0
            },
            {
                "start_time": 8.3386364,
                "end_time": 8.3886364,
                "pitch": 79,
                "velocity": 51,
                "duration": 0.05,
                "tempo": 120.0
            },
            {
                "start_time": 8.4227273,
                "end_time": 8.4727273,
                "pitch": 82,
                "velocity": 51,
                "duration": 0.05,
                "tempo": 120.0
            },
            {
                "start_time": 8.4886364,
                "end_time": 8.5386364,
                "pitch": 83,
                "velocity": 51,
                "duration": 0.05,
                "tempo": 120.0
            },
            {
                "start_time": 8.5727273,
                "end_time": 8.6227273,
                "pitch": 84,
                "velocity": 51,
                "duration": 0.05,
                "tempo": 120.0
            },
            {
                "start_time": 8.6386364,
                "end_time": 8.6886364,
                "pitch": 79,
                "velocity": 51,
                "duration": 0.05,
                "tempo": 120.0
            },
            {
                "start_time": 8.7227273,
                "end_time": 8.7727273,
                "pitch": 83,
                "velocity": 51,
                "duration": 0.05,
                "tempo": 120.0
            },
            {
                "start_time": 8.7886364,
                "end_time": 8.8386364,
                "pitch": 84,
                "velocity": 51,
                "duration": 0.05,
                "tempo": 120.0
            },
            {
                "start_time": 8.8727273,
                "end_time": 8.9227273,
                "pitch": 86,
                "velocity": 51,
                "duration": 0.05,
                "tempo": 120.0
            },
            {
                "start_time": 8.9386364,
                "end_time": 8.9886364,
                "pitch": 79,
                "velocity": 51,
                "duration": 0.05,
                "tempo": 120.0
            },
            {
                "start_time": 9.0227273,
                "end_time": 9.0727273,
                "pitch": 83,
                "velocity": 51,
                "duration": 0.05,
                "tempo": 120.0
            },
            {
                "start_time": 9.0886364,
                "end_time": 9.1386364,
                "pitch": 84,
                "velocity": 51,
                "duration": 0.05,
                "tempo": 120.0
            },
            {
                "start_time": 9.1727273,
                "end_time": 9.2227273,
                "pitch": 86,
                "velocity": 51,
                "duration": 0.05,
                "tempo": 120.0
            },
            {
                "start_time": 9.2386364,
                "end_time": 9.2886364,
                "pitch": 87,
                "velocity": 51,
                "duration": 0.05,
                "tempo": 120.0
            },
            {
                "start_time": 9.3227273,
                "end_time": 9.3727273,
                "pitch": 86,
                "velocity": 51,
                "duration": 0.05,
                "tempo": 120.0
            },
            {
                "start_time": 9.3886364,
                "end_time": 9.5227273,
                "pitch": 84,
                "velocity": 51,
                "duration": 0.1340909,
                "tempo": 120.0
            },
            {
                "start_time": 9.5386364,
                "end_time": 9.9727273,
                "pitch": 80,
                "velocity": 51,
                "duration": 0.4340909,
                "tempo": 120.0
            },
            {
                "start_time": 9.9909091,
                "end_time": 10.4272727,
                "pitch": 75,
                "velocity": 51,
                "duration": 0.4363636,
                "tempo": 120.0
            },
            {
                "start_time": 10.4454545,
                "end_time": 11.6295455,
                "pitch": 68,
                "velocity": 51,
                "duration": 1.1840909,
                "tempo": 120.0
            },
            {
                "start_time": 11.6454545,
                "end_time": 11.8795455,
                "pitch": 80,
                "velocity": 51,
                "duration": 0.2340909,
                "tempo": 120.0
            },
            {
                "start_time": 12.2454545,
                "end_time": 13.1318182,
                "pitch": 75,
                "velocity": 51,
                "duration": 0.8863636,
                "tempo": 120.0
            },
            {
                "start_time": 13.1477273,
                "end_time": 14.3340909,
                "pitch": 82,
                "velocity": 51,
                "duration": 1.1863636,
                "tempo": 120.0
            },
            {
                "start_time": 14.3522727,
                "end_time": 15.5340909,
                "pitch": 87,
                "velocity": 51,
                "duration": 1.1818182,
                "tempo": 120.0
            },
            {
                "start_time": 15.5522727,
                "end_time": 16.7909091,
                "pitch": 92,
                "velocity": 51,
                "duration": 1.2386364,
                "tempo": 120.0
            },
            {
                "start_time": 17.9659091,
                "end_time": 18.55,
                "pitch": 82,
                "velocity": 51,
                "duration": 0.5840909,
                "tempo": 120.0
            },
            {
                "start_time": 18.5659091,
                "end_time": 18.8477273,
                "pitch": 77,
                "velocity": 51,
                "duration": 0.2818182,
                "tempo": 120.0
            },
            {
                "start_time": 18.8636364,
                "end_time": 19.1522727,
                "pitch": 82,
                "velocity": 51,
                "duration": 0.2886364,
                "tempo": 120.0
            },
            {
                "start_time": 19.1681818,
                "end_time": 20.3613636,
                "pitch": 75,
                "velocity": 51,
                "duration": 1.1931818,
                "tempo": 120.0
            },
            {
                "start_time": 20.3795455,
                "end_time": 20.9681818,
                "pitch": 80,
                "velocity": 51,
                "duration": 0.5886364,
                "tempo": 120.0
            },
            {
                "start_time": 20.9840909,
                "end_time": 21.3386364,
                "pitch": 87,
                "velocity": 51,
                "duration": 0.3545455,
                "tempo": 120.0
            },
            {
                "start_time": 21.3704545,
                "end_time": 21.3886364,
                "pitch": 87,
                "velocity": 51,
                "duration": 0.0181818,
                "tempo": 120.0
            },
            {
                "start_time": 21.8886364,
                "end_time": 22.3931818,
                "pitch": 87,
                "velocity": 51,
                "duration": 0.5045455,
                "tempo": 120.0
            },
            {
                "start_time": 22.4272727,
                "end_time": 22.7772727,
                "pitch": 87,
                "velocity": 51,
                "duration": 0.35,
                "tempo": 120.0
            },
            {
                "start_time": 22.7931818,
                "end_time": 23.4818182,
                "pitch": 82,
                "velocity": 51,
                "duration": 0.6886364,
                "tempo": 120.0
            },
            {
                "start_time": 24.8386364,
                "end_time": 26.3977273,
                "pitch": 68,
                "velocity": 51,
                "duration": 1.5590909,
                "tempo": 120.0
            },
            {
                "start_time": 26.4159091,
                "end_time": 27.3068182,
                "pitch": 70,
                "velocity": 51,
                "duration": 0.8909091,
                "tempo": 120.0
            },
            {
                "start_time": 27.325,
                "end_time": 27.6068182,
                "pitch": 70,
                "velocity": 51,
                "duration": 0.2818182,
                "tempo": 120.0
            },
            {
                "start_time": 27.625,
                "end_time": 28.2045455,
                "pitch": 72,
                "velocity": 51,
                "duration": 0.5795455,
                "tempo": 120.0
            },
            {
                "start_time": 28.2204545,
                "end_time": 28.8068182,
                "pitch": 72,
                "velocity": 51,
                "duration": 0.5863636,
                "tempo": 120.0
            },
            {
                "start_time": 28.825,
                "end_time": 29.9386364,
                "pitch": 79,
                "velocity": 51,
                "duration": 1.1136364,
                "tempo": 120.0
            },
            {
                "start_time": 31.2454545,
                "end_time": 31.2954545,
                "pitch": 72,
                "velocity": 51,
                "duration": 0.05,
                "tempo": 120.0
            },
            {
                "start_time": 31.3295455,
                "end_time": 31.3795455,
                "pitch": 76,
                "velocity": 51,
                "duration": 0.05,
                "tempo": 120.0
            },
            {
                "start_time": 31.3977273,
                "end_time": 31.4477273,
                "pitch": 77,
                "velocity": 51,
                "duration": 0.05,
                "tempo": 120.0
            },
            {
                "start_time": 31.4818182,
                "end_time": 31.5409091,
                "pitch": 79,
                "velocity": 51,
                "duration": 0.0590909,
                "tempo": 120.0
            }
        ]
    }
}