{
    "mood": "happy",
    "instruments": {
        "French Horn": [
            {
                "start_time": 0.5181818,
                "end_time": 0.6022727,
                "pitch": 82,
                "velocity": 64,
                "duration": 0.0840909,
                "tempo": 120.0
            },
            {
                "start_time": 0.6204545,
                "end_time": 0.7022727,
                "pitch": 82,
                "velocity": 64,
                "duration": 0.0818182,
                "tempo": 120.0
            },
            {
                "start_time": 0.7204545,
                "end_time": 0.8045455,
                "pitch": 82,
                "velocity": 64,
                "duration": 0.0840909,
                "tempo": 120.0
            },
            {
                "start_time": 0.8204545,
                "end_time": 1.0954545,
                "pitch": 82,
                "velocity": 64,
                "duration": 0.275,
                "tempo": 120.0
            },
            {
                "start_time": 1.1113636,
                "end_time": 1.1909091,
                "pitch": 84,
                "velocity": 64,
                "duration": 0.0795455,
                "tempo": 120.0
            },
            {
                "start_time": 1.2090909,
                "end_time": 1.2886364,
                "pitch": 84,
                "velocity": 64,
                "duration": 0.0795455,
                "tempo": 120.0
            },
            {
                "start_time": 1.3045455,
                "end_time": 1.3863636,
                "pitch": 84,
                "velocity": 64,
                "duration": 0.0818182,
                "tempo": 120.0
            },
            {
                "start_time": 1.4022727,
                "end_time": 1.6931818,
                "pitch": 84,
                "velocity": 64,
                "duration": 0.2909091,
                "tempo": 120.0
            },
            {
                "start_time": 1.7090909,
                "end_time": 2.9068182,
                "pitch": 86,
                "velocity": 64,
                "duration": 1.1977273,
                "tempo": 120.0
            }
        ],
        "Acoustic Bass": [
            {
                "start_time": 0.5181818,
                "end_time": 0.6022727,
                "pitch": 39,
                "velocity": 40,
                "duration": 0.0840909,
                "tempo": 120.0
            },
            {
                "start_time": 0.6204545,
                "end_time": 0.7022727,
                "pitch": 51,
                "velocity": 40,
                "duration": 0.0818182,
                "tempo": 120.0
            },
            {
                "start_time": 0.7204545,
                "end_time": 0.8045455,
                "pitch": 39,
                "velocity": 40,
                "duration": 0.0840909,
                "tempo": 120.0
            },
            {
                "start_time": 0.8204545,
                "end_time": 1.0954545,
                "pitch": 51,
                "velocity": 40,
                "duration": 0.275,
                "tempo": 120.0
            },
            {
                "start_time": 1.1113636,
                "end_time": 1.1931818,
                "pitch": 41,
                "velocity": 40,
                "duration": 0.0818182,
                "tempo": 120.0
            },
            {
                "start_time": 1.2090909,
                "end_time": 1.2886364,
                "pitch": 53,
                "velocity": 40,
                "duration": 0.0795455,
                "tempo": 120.0
            },
            {
                "start_time": 1.3045455,
                "end_time": 1.3863636,
                "pitch": 41,
                "velocity": 40,
                "duration": 0.0818182,
                "tempo": 120.0
            },
            {
                "start_time": 1.4022727,
                "end_time": 1.6931818,
                "pitch": 53,
                "velocity": 40,
                "duration": 0.2909091,
                "tempo": 120.0
            },
            {
                "start_time": 1.7113636,
                "end_time": 2.9068182,
                "pitch": 43,
                "velocity": 40,
                "duration": 1.1954545,
                "tempo": 120.0
            }
        ],
        "Flute": [
            {
                "start_time": 0.5204545,
                "end_time": 0.6022727,
                "pitch": 79,
                "velocity": 51,
                "duration": 0.0818182,
                "tempo": 120.0
            },
            {
                "start_time": 0.6204545,
                "end_time": 0.7045455,
                "pitch": 79,
                "velocity": 51,
                "duration": 0.0840909,
                "tempo": 120.0
            },
            {
                "start_time": 0.7204545,
                "end_time": 0.8045455,
                "pitch": 79,
                "velocity": 51,
                "duration": 0.0840909,
                "tempo": 120.0
            },
            {
                "start_time": 0.8204545,
                "end_time": 1.0954545,
                "pitch": 79,
                "velocity": 51,
                "duration": 0.275,
                "tempo": 120.0
            },
            {
                "start_time": 1.1113636,
                "end_time": 1.1931818,
                "pitch": 81,
                "velocity": 51,
                "duration": 0.0818182,
                "tempo": 120.0
            },
            {
                "start_time": 1.2090909,
                "end_time": 1.2886364,
                "pitch": 81,
                "velocity": 51,
                "duration": 0.0795455,
                "tempo": 120.0
            },
            {
                "start_time": 1.3068182,
                "end_time": 1.3863636,
                "pitch": 81,
                "velocity": 51,
                "duration": 0.0795455,
                "tempo": 120.0
            },
            {
                "start_time": 1.4022727,
                "end_time": 1.6931818,
                "pitch": 81,
                "velocity": 51,
                "duration": 0.2909091,
                "tempo": 120.0
            },
            {
                "start_time": 1.7113636,
                "end_time": 2.9068182,
                "pitch": 83,
                "velocity": 51,
                "duration": 1.1954545,
                "tempo": 120.0
            }
        ],
        "Acoustic Grand Piano": [
            {
                "start_time": 0.6022727,
                "end_time": 0.6704545,
                "pitch": 82,
                "velocity": 20,
                "duration": 0.0681818,
                "tempo": 120.0
            },
            {
                "start_time": 0.7045455,
                "end_time": 0.7704545,
                "pitch": 82,
                "velocity": 20,
                "duration": 0.0659091,
                "tempo": 120.0
            },
            {
                "start_time": 0.8045455,
                "end_time": 0.8704545,
                "pitch": 82,
                "velocity": 20,
                "duration": 0.0659091,
                "tempo": 120.0
            },
            {
                "start_time": 0.9022727,
                "end_time": 1.1613636,
                "pitch": 82,
                "velocity": 20,
                "duration": 0.2590909,
                "tempo": 120.0
            },
            {
                "start_time": 1.1931818,
                "end_time": 1.2568182,
                "pitch": 84,
                "velocity": 20,
                "duration": 0.0636364,
                "tempo": 120.0
            },
            {
                "start_time": 1.2886364,
                "end_time": 1.3545455,
                "pitch": 84,
                "velocity": 20,
                "duration": 0.0659091,
                "tempo": 120.0
            },
            {
                "start_time": 1.3863636,
                "end_time": 1.4545455,
                "pitch": 84,
                "velocity": 20,
                "duration": 0.0681818,
                "tempo": 120.0
            },
            {
                "start_time": 1.4886364,
                "end_time": 1.7613636,
                "pitch": 84,
                "velocity": 20,
                "duration": 0.2727273,
                "tempo": 120.0
            },
            {
                "start_time": 1.7954545,
                "end_time": 2.975,
                "pitch": 86,
                "velocity": 20,
                "duration": 1.1795455,
                "tempo": 120.0
            }
        ]
    }
}