{
    "mood": "happy",
    "instruments": {
        "Church Organ": [
            {
                "start_time": 0.0068182,
                "end_time": 0.5909091,
                "pitch": 75,
                "velocity": 64,
                "duration": 0.5840909,
                "tempo": 120.0
            },
            {
                "start_time": 0.6068182,
                "end_time": 2.1954545,
                "pitch": 79,
                "velocity": 64,
                "duration": 1.5886364,
                "tempo": 120.0
            },
            {
                "start_time": 2.2113636,
                "end_time": 2.5909091,
                "pitch": 82,
                "velocity": 64,
                "duration": 0.3795455,
                "tempo": 120.0
            },
            {
                "start_time": 2.6068182,
                "end_time": 2.7863636,
                "pitch": 80,
                "velocity": 64,
                "duration": 0.1795455,
                "tempo": 120.0
            },
            {
                "start_time": 2.8045455,
                "end_time": 2.9863636,
                "pitch": 79,
                "velocity": 64,
                "duration": 0.1818182,
                "tempo": 120.0
            },
            {
                "start_time": 3.0045455,
                "end_time": 4.7931818,
                "pitch": 75,
                "velocity": 64,
                "duration": 1.7886364,
                "tempo": 120.0
            }
        ],
        "Acoustic Bass": [
            {
                "start_time": 0.0227273,
                "end_time": 0.5909091,
                "pitch": 39,
                "velocity": 40,
                "duration": 0.5681818,
                "tempo": 120.0
            },
            {
                "start_time": 0.6068182,
                "end_time": 0.7818182,
                "pitch": 39,
                "velocity": 40,
                "duration": 0.175,
                "tempo": 120.0
            },
            {
                "start_time": 0.7977273,
                "end_time": 0.8159091,
                "pitch": 39,
                "velocity": 40,
                "duration": 0.0181818,
                "tempo": 120.0
            },
            {
                "start_time": 1.4045455,
                "end_time": 1.5840909,
                "pitch": 34,
                "velocity": 40,
                "duration": 0.1795455,
                "tempo": 120.0
            },
            {
                "start_time": 1.6,
                "end_time": 2.1954545,
                "pitch": 39,
                "velocity": 40,
                "duration": 0.5954545,
                "tempo": 120.0
            },
            {
                "start_time": 2.2113636,
                "end_time": 2.3954545,
                "pitch": 39,
                "velocity": 40,
                "duration": 0.1840909,
                "tempo": 120.0
            },
            {
                "start_time": 2.4113636,
                "end_time": 2.4272727,
                "pitch": 39,
                "velocity": 40,
                "duration": 0.0159091,
                "tempo": 120.0
            },
            {
                "start_time": 3.0045455,
                "end_time": 3.0545455,
                "pitch": 41,
                "velocity": 40,
                "duration": 0.05,
                "tempo": 120.0
            },
            {
                "start_time": 3.0704545,
                "end_time": 3.1863636,
                "pitch": 43,
                "velocity": 40,
                "duration": 0.1159091,
                "tempo": 120.0
            },
            {
                "start_time": 3.2045455,
                "end_time": 3.7931818,
                "pitch": 39,
                "velocity": 40,
                "duration": 0.5886364,
                "tempo": 120.0
            },
            {
                "start_time": 3.8113636,
                "end_time": 3.9909091,
                "pitch": 39,
                "velocity": 40,
                "duration": 0.1795455,
                "tempo": 120.0
            },
            {
                "start_time": 4.0068182,
                "end_time": 4.0227273,
                "pitch": 39,
                "velocity": 40,
                "duration": 0.0159091,
                "tempo": 120.0
            },
            {
                "start_time": 4.6136364,
                "end_time": 4.7931818,
                "pitch": 34,
                "velocity": 40,
                "duration": 0.1795455,
                "tempo": 120.0
            },
            {
                "start_time": 4.8090909,
                "end_time": 5.4,
                "pitch": 39,
                "velocity": 40,
                "duration": 0.5909091,
                "tempo": 120.0
            },
            {
                "start_time": 5.4159091,
                "end_time": 5.5954545,
                "pitch": 39,
                "velocity": 40,
                "duration": 0.1795455,
                "tempo": 120.0
            },
            {
                "start_time": 5.6113636,
                "end_time": 5.6295455,
                "pitch": 39,
                "velocity": 40,
                "duration": 0.0181818,
                "tempo": 120.0
            },
            {
                "start_time": 6.2136364,
                "end_time": 6.2636364,
                "pitch": 41,
                "velocity": 40,
                "duration": 0.05,
                "tempo": 120.0
            },
            {
                "start_time": 6.2795455,
                "end_time": 6.3977273,
                "pitch": 43,
                "velocity": 40,
                "duration": 0.1181818,
                "tempo": 120.0
            }
        ],
        "French Horn": [
            {
                "start_time": 0.0227273,
                "end_time": 0.4,
                "pitch": 63,
                "velocity": 64,
                "duration": 0.3772727,
                "tempo": 120.0
            },
            {
                "start_time": 0.4159091,
                "end_time": 0.7818182,
                "pitch": 51,
                "velocity": 64,
                "duration": 0.3659091,
                "tempo": 120.0
            },
            {
                "start_time": 0.7977273,
                "end_time": 1.1909091,
                "pitch": 63,
                "velocity": 64,
                "duration": 0.3931818,
                "tempo": 120.0
            },
            {
                "start_time": 1.2090909,
                "end_time": 1.5840909,
                "pitch": 51,
                "velocity": 64,
                "duration": 0.375,
                "tempo": 120.0
            },
            {
                "start_time": 1.6,
                "end_time": 1.9954545,
                "pitch": 63,
                "velocity": 64,
                "duration": 0.3954545,
                "tempo": 120.0
            },
            {
                "start_time": 2.0113636,
                "end_time": 2.3954545,
                "pitch": 51,
                "velocity": 64,
                "duration": 0.3840909,
                "tempo": 120.0
            },
            {
                "start_time": 2.4113636,
                "end_time": 2.7863636,
                "pitch": 63,
                "velocity": 64,
                "duration": 0.375,
                "tempo": 120.0
            },
            {
                "start_time": 2.8045455,
                "end_time": 3.1863636,
                "pitch": 51,
                "velocity": 64,
                "duration": 0.3818182,
                "tempo": 120.0
            },
            {
                "start_time": 3.2045455,
                "end_time": 3.5977273,
                "pitch": 63,
                "velocity": 64,
                "duration": 0.3931818,
                "tempo": 120.0
            },
            {
                "start_time": 3.6136364,
                "end_time": 3.9909091,
                "pitch": 51,
                "velocity": 64,
                "duration": 0.3772727,
                "tempo": 120.0
            },
            {
                "start_time": 4.0068182,
                "end_time": 4.4,
                "pitch": 63,
                "velocity": 64,
                "duration": 0.3931818,
                "tempo": 120.0
            },
            {
                "start_time": 4.4181818,
                "end_time": 4.7931818,
                "pitch": 51,
                "velocity": 64,
                "duration": 0.375,
                "tempo": 120.0
            },
            {
                "start_time": 4.8090909,
                "end_time": 5.2022727,
                "pitch": 63,
                "velocity": 64,
                "duration": 0.3931818,
                "tempo": 120.0
            },
            {
                "start_time": 5.2204545,
                "end_time": 5.5954545,
                "pitch": 51,
                "velocity": 64,
                "duration": 0.375,
                "tempo": 120.0
            },
            {
                "start_time": 5.6113636,
                "end_time": 5.9954545,
                "pitch": 63,
                "velocity": 64,
                "duration": 0.3840909,
                "tempo": 120.0
            },
            {
                "start_time": 6.0113636,
                "end_time": 6.3977273,
                "pitch": 51,
                "velocity": 64,
                "duration": 0.3863636,
                "tempo": 120.0
            }
        ],
        "Acoustic Grand Piano": [
            {
                "start_time": 0.0227273,
                "end_time": 0.5909091,
                "pitch": 75,
                "velocity": 20,
                "duration": 0.5681818,
                "tempo": 120.0
            },
            {
                "start_time": 0.6068182,
                "end_time": 2.1954545,
                "pitch": 79,
                "velocity": 20,
                "duration": 1.5886364,
                "tempo": 120.0
            },
            {
                "start_time": 2.2113636,
                "end_time": 2.5909091,
                "pitch": 82,
                "velocity": 20,
                "duration": 0.3795455,
                "tempo": 120.0
            },
            {
                "start_time": 2.6068182,
                "end_time": 2.7863636,
                "pitch": 80,
                "velocity": 20,
                "duration": 0.1795455,
                "tempo": 120.0
            },
            {
                "start_time": 2.8045455,
                "end_time": 2.9863636,
                "pitch": 79,
                "velocity": 20,
                "duration": 0.1818182,
                "tempo": 120.0
            },
            {
                "start_time": 3.0045455,
                "end_time": 4.7931818,
                "pitch": 75,
                "velocity": 20,
                "duration": 1.7886364,
                "tempo": 120.0
            }
        ]
    }
}