{
    "mood": "happy",
    "instruments": {
        "Lead 2 (sawtooth)": [
            {
                "start_time": 0.0113636,
                "end_time": 0.0772727,
                "pitch": 73,
                "velocity": 64,
                "duration": 0.0659091,
                "tempo": 120.0
            },
            {
                "start_time": 0.0931818,
                "end_time": 0.175,
                "pitch": 76,
                "velocity": 64,
                "duration": 0.0818182,
                "tempo": 120.0
            },
            {
                "start_time": 0.1909091,
                "end_time": 0.3704545,
                "pitch": 83,
                "velocity": 64,
                "duration": 0.1795455,
                "tempo": 120.0
            },
            {
                "start_time": 0.3863636,
                "end_time": 0.5659091,
                "pitch": 82,
                "velocity": 64,
                "duration": 0.1795455,
                "tempo": 120.0
            },
            {
                "start_time": 0.5818182,
                "end_time": 0.6636364,
                "pitch": 78,
                "velocity": 64,
                "duration": 0.0818182,
                "tempo": 120.0
            },
            {
                "start_time": 0.6795455,
                "end_time": 0.8590909,
                "pitch": 80,
                "velocity": 64,
                "duration": 0.1795455,
                "tempo": 120.0
            },
            {
                "start_time": 0.875,
                "end_time": 1.0545455,
                "pitch": 73,
                "velocity": 64,
                "duration": 0.1795455,
                "tempo": 120.0
            },
            {
                "start_time": 1.0727273,
                "end_time": 1.1545455,
                "pitch": 73,
                "velocity": 64,
                "duration": 0.0818182,
                "tempo": 120.0
            },
            {
                "start_time": 1.1704545,
                "end_time": 1.2522727,
                "pitch": 76,
                "velocity": 64,
                "duration": 0.0818182,
                "tempo": 120.0
            },
            {
                "start_time": 1.2681818,
                "end_time": 1.35,
                "pitch": 73,
                "velocity": 64,
                "duration": 0.0818182,
                "tempo": 120.0
            },
            {
                "start_time": 1.3659091,
                "end_time": 1.4477273,
                "pitch": 76,
                "velocity": 64,
                "duration": 0.0818182,
                "tempo": 120.0
            },
            {
                "start_time": 1.4636364,
                "end_time": 1.5454545,
                "pitch": 78,
                "velocity": 64,
                "duration": 0.0818182,
                "tempo": 120.0
            },
            {
                "start_time": 1.5636364,
                "end_time": 1.7386364,
                "pitch": 73,
                "velocity": 64,
                "duration": 0.175,
                "tempo": 120.0
            },
            {
                "start_time": 1.775,
                "end_time": 1.9590909,
                "pitch": 76,
                "velocity": 64,
                "duration": 0.1840909,
                "tempo": 120.0
            },
            {
                "start_time": 1.9954545,
                "end_time": 2.3954545,
                "pitch": 83,
                "velocity": 64,
                "duration": 0.4,
                "tempo": 120.0
            },
            {
                "start_time": 2.4318182,
                "end_time": 2.8318182,
                "pitch": 82,
                "velocity": 64,
                "duration": 0.4,
                "tempo": 120.0
            },
            {
                "start_time": 2.8681818,
                "end_time": 3.05,
                "pitch": 78,
                "velocity": 64,
                "duration": 0.1818182,
                "tempo": 120.0
            },
            {
                "start_time": 3.0863636,
                "end_time": 3.4681818,
                "pitch": 80,
                "velocity": 64,
                "duration": 0.3818182,
                "tempo": 120.0
            },
            {
                "start_time": 3.5022727,
                "end_time": 3.6636364,
                "pitch": 73,
                "velocity": 64,
                "duration": 0.1613636,
                "tempo": 120.0
            },
            {
                "start_time": 4.8681818,
                "end_time": 5.0318182,
                "pitch": 73,
                "velocity": 64,
                "duration": 0.1636364,
                "tempo": 120.0
            },
            {
                "start_time": 5.0636364,
                "end_time": 5.2295455,
                "pitch": 76,
                "velocity": 64,
                "duration": 0.1659091,
                "tempo": 120.0
            },
            {
                "start_time": 5.2636364,
                "end_time": 5.625,
                "pitch": 83,
                "velocity": 64,
                "duration": 0.3613636,
                "tempo": 120.0
            },
            {
                "start_time": 5.6590909,
                "end_time": 6.0204545,
                "pitch": 81,
                "velocity": 64,
                "duration": 0.3613636,
                "tempo": 120.0
            },
            {
                "start_time": 6.0545455,
                "end_time": 6.2181818,
                "pitch": 78,
                "velocity": 64,
                "duration": 0.1636364,
                "tempo": 120.0
            },
            {
                "start_time": 6.2522727,
                "end_time": 6.6090909,
                "pitch": 80,
                "velocity": 64,
                "duration": 0.3568182,
                "tempo": 120.0
            },
            {
                "start_time": 6.6409091,
                "end_time": 6.9931818,
                "pitch": 73,
                "velocity": 64,
                "duration": 0.3522727,
                "tempo": 120.0
            },
            {
                "start_time": 7.025,
                "end_time": 7.1863636,
                "pitch": 73,
                "velocity": 64,
                "duration": 0.1613636,
                "tempo": 120.0
            },
            {
                "start_time": 7.2181818,
                "end_time": 7.3795455,
                "pitch": 76,
                "velocity": 64,
                "duration": 0.1613636,
                "tempo": 120.0
            },
            {
                "start_time": 7.4113636,
                "end_time": 7.5727273,
                "pitch": 73,
                "velocity": 64,
                "duration": 0.1613636,
                "tempo": 120.0
            },
            {
                "start_time": 7.6045455,
                "end_time": 7.7636364,
                "pitch": 76,
                "velocity": 64,
                "duration": 0.1590909,
                "tempo": 120.0
            },
            {
                "start_time": 7.7954545,
                "end_time": 7.9568182,
                "pitch": 78,
                "velocity": 64,
                "duration": 0.1613636,
                "tempo": 120.0
            },
            {
                "start_time": 7.9886364,
                "end_time": 8.1545455,
                "pitch": 73,
                "velocity": 64,
                "duration": 0.1659091,
                "tempo": 120.0
            },
            {
                "start_time": 8.1863636,
                "end_time": 8.3522727,
                "pitch": 76,
                "velocity": 64,
                "duration": 0.1659091,
                "tempo": 120.0
            },
            {
                "start_time": 8.3840909,
                "end_time": 8.7477273,
                "pitch": 83,
                "velocity": 64,
                "duration": 0.3636364,
                "tempo": 120.0
            },
            {
                "start_time": 8.7795455,
                "end_time": 9.1431818,
                "pitch": 81,
                "velocity": 64,
                "duration": 0.3636364,
                "tempo": 120.0
            },
            {
                "start_time": 9.175,
                "end_time": 9.3409091,
                "pitch": 78,
                "velocity": 64,
                "duration": 0.1659091,
                "tempo": 120.0
            },
            {
                "start_time": 9.3727273,
                "end_time": 9.5386364,
                "pitch": 80,
                "velocity": 64,
                "duration": 0.1659091,
                "tempo": 120.0
            },
            {
                "start_time": 9.5704545,
                "end_time": 9.7386364,
                "pitch": 80,
                "velocity": 64,
                "duration": 0.1681818,
                "tempo": 120.0
            },
            {
                "start_time": 9.7704545,
                "end_time": 9.9386364,
                "pitch": 85,
                "velocity": 64,
                "duration": 0.1681818,
                "tempo": 120.0
            },
            {
                "start_time": 11.175,
                "end_time": 11.3386364,
                "pitch": 73,
                "velocity": 64,
                "duration": 0.1636364,
                "tempo": 120.0
            },
            {
                "start_time": 11.3704545,
                "end_time": 11.5318182,
                "pitch": 76,
                "velocity": 64,
                "duration": 0.1613636,
                "tempo": 120.0
            },
            {
                "start_time": 11.5659091,
                "end_time": 11.9227273,
                "pitch": 83,
                "velocity": 64,
                "duration": 0.3568182,
                "tempo": 120.0
            },
            {
                "start_time": 11.9545455,
                "end_time": 12.3136364,
                "pitch": 82,
                "velocity": 64,
                "duration": 0.3590909,
                "tempo": 120.0
            },
            {
                "start_time": 12.3454545,
                "end_time": 12.5090909,
                "pitch": 78,
                "velocity": 64,
                "duration": 0.1636364,
                "tempo": 120.0
            },
            {
                "start_time": 12.5409091,
                "end_time": 12.8681818,
                "pitch": 80,
                "velocity": 64,
                "duration": 0.3272727,
                "tempo": 120.0
            },
            {
                "start_time": 12.8977273,
                "end_time": 13.2204545,
                "pitch": 73,
                "velocity": 64,
                "duration": 0.3227273,
                "tempo": 120.0
            },
            {
                "start_time": 13.25,
                "end_time": 13.3977273,
                "pitch": 73,
                "velocity": 64,
                "duration": 0.1477273,
                "tempo": 120.0
            },
            {
                "start_time": 13.4272727,
                "end_time": 13.575,
                "pitch": 76,
                "velocity": 64,
                "duration": 0.1477273,
                "tempo": 120.0
            },
            {
                "start_time": 13.6045455,
                "end_time": 13.75,
                "pitch": 73,
                "velocity": 64,
                "duration": 0.1454545,
                "tempo": 120.0
            },
            {
                "start_time": 13.7795455,
                "end_time": 13.9181818,
                "pitch": 76,
                "velocity": 64,
                "duration": 0.1386364,
                "tempo": 120.0
            },
            {
                "start_time": 13.9454545,
                "end_time": 14.0840909,
                "pitch": 78,
                "velocity": 64,
                "duration": 0.1386364,
                "tempo": 120.0
            },
            {
                "start_time": 14.1136364,
                "end_time": 14.2522727,
                "pitch": 73,
                "velocity": 64,
                "duration": 0.1386364,
                "tempo": 120.0
            },
            {
                "start_time": 14.2795455,
                "end_time": 14.4181818,
                "pitch": 76,
                "velocity": 64,
                "duration": 0.1386364,
                "tempo": 120.0
            },
            {
                "start_time": 14.4454545,
                "end_time": 14.75,
                "pitch": 83,
                "velocity": 64,
                "duration": 0.3045455,
                "tempo": 120.0
            },
            {
                "start_time": 14.7772727,
                "end_time": 15.0818182,
                "pitch": 82,
                "velocity": 64,
                "duration": 0.3045455,
                "tempo": 120.0
            },
            {
                "start_time": 15.1113636,
                "end_time": 15.25,
                "pitch": 78,
                "velocity": 64,
                "duration": 0.1386364,
                "tempo": 120.0
            },
            {
                "start_time": 15.2772727,
                "end_time": 15.5818182,
                "pitch": 80,
                "velocity": 64,
                "duration": 0.3045455,
                "tempo": 120.0
            },
            {
                "start_time": 15.6090909,
                "end_time": 15.7477273,
                "pitch": 73,
                "velocity": 64,
                "duration": 0.1386364,
                "tempo": 120.0
            },
            {
                "start_time": 16.8136364,
                "end_time": 16.9613636,
                "pitch": 73,
                "velocity": 64,
                "duration": 0.1477273,
                "tempo": 120.0
            },
            {
                "start_time": 16.9886364,
                "end_time": 17.1363636,
                "pitch": 76,
                "velocity": 64,
                "duration": 0.1477273,
                "tempo": 120.0
            },
            {
                "start_time": 17.1659091,
                "end_time": 17.4886364,
                "pitch": 83,
                "velocity": 64,
                "duration": 0.3227273,
                "tempo": 120.0
            },
            {
                "start_time": 17.5181818,
                "end_time": 17.8795455,
                "pitch": 82,
                "velocity": 64,
                "duration": 0.3613636,
                "tempo": 120.0
            },
            {
                "start_time": 17.9136364,
                "end_time": 18.0772727,
                "pitch": 78,
                "velocity": 64,
                "duration": 0.1636364,
                "tempo": 120.0
            },
            {
                "start_time": 18.1113636,
                "end_time": 18.4727273,
                "pitch": 80,
                "velocity": 64,
                "duration": 0.3613636,
                "tempo": 120.0
            },
            {
                "start_time": 18.5068182,
                "end_time": 18.8681818,
                "pitch": 73,
                "velocity": 64,
                "duration": 0.3613636,
                "tempo": 120.0
            },
            {
                "start_time": 18.9022727,
                "end_time": 19.0659091,
                "pitch": 73,
                "velocity": 64,
                "duration": 0.1636364,
                "tempo": 120.0
            },
            {
                "start_time": 19.1,
                "end_time": 19.2636364,
                "pitch": 76,
                "velocity": 64,
                "duration": 0.1636364,
                "tempo": 120.0
            },
            {
                "start_time": 19.2977273,
                "end_time": 19.4613636,
                "pitch": 73,
                "velocity": 64,
                "duration": 0.1636364,
                "tempo": 120.0
            },
            {
                "start_time": 19.4954545,
                "end_time": 19.6590909,
                "pitch": 76,
                "velocity": 64,
                "duration": 0.1636364,
                "tempo": 120.0
            },
            {
                "start_time": 19.6931818,
                "end_time": 19.8590909,
                "pitch": 78,
                "velocity": 64,
                "duration": 0.1659091,
                "tempo": 120.0
            },
            {
                "start_time": 19.8909091,
                "end_time": 20.0568182,
                "pitch": 73,
                "velocity": 64,
                "duration": 0.1659091,
                "tempo": 120.0
            },
            {
                "start_time": 20.0886364,
                "end_time": 20.2545455,
                "pitch": 76,
                "velocity": 64,
                "duration": 0.1659091,
                "tempo": 120.0
            },
            {
                "start_time": 20.2863636,
                "end_time": 20.65,
                "pitch": 83,
                "velocity": 64,
                "duration": 0.3636364,
                "tempo": 120.0
            },
            {
                "start_time": 20.6818182,
                "end_time": 21.0409091,
                "pitch": 82,
                "velocity": 64,
                "duration": 0.3590909,
                "tempo": 120.0
            },
            {
                "start_time": 21.0727273,
                "end_time": 21.2340909,
                "pitch": 78,
                "velocity": 64,
                "duration": 0.1613636,
                "tempo": 120.0
            },
            {
                "start_time": 21.2681818,
                "end_time": 21.625,
                "pitch": 80,
                "velocity": 64,
                "duration": 0.3568182,
                "tempo": 120.0
            },
            {
                "start_time": 21.6568182,
                "end_time": 21.8204545,
                "pitch": 73,
                "velocity": 64,
                "duration": 0.1636364,
                "tempo": 120.0
            },
            {
                "start_time": 23.0227273,
                "end_time": 24.5522727,
                "pitch": 78,
                "velocity": 64,
                "duration": 1.5295455,
                "tempo": 120.0
            },
            {
                "start_time": 24.5840909,
                "end_time": 26.1227273,
                "pitch": 76,
                "velocity": 64,
                "duration": 1.5386364,
                "tempo": 120.0
            },
            {
                "start_time": 26.1568182,
                "end_time": 27.7045455,
                "pitch": 81,
                "velocity": 64,
                "duration": 1.5477273,
                "tempo": 120.0
            },
            {
                "start_time": 27.7386364,
                "end_time": 28.2977273,
                "pitch": 80,
                "velocity": 64,
                "duration": 0.5590909,
                "tempo": 120.0
            },
            {
                "start_time": 28.3318182,
                "end_time": 29.2886364,
                "pitch": 78,
                "velocity": 64,
                "duration": 0.9568182,
                "tempo": 120.0
            },
            {
                "start_time": 29.3204545,
                "end_time": 29.4863636,
                "pitch": 73,
                "velocity": 64,
                "duration": 0.1659091,
                "tempo": 120.0
            },
            {
                "start_time": 29.5181818,
                "end_time": 29.6840909,
                "pitch": 76,
                "velocity": 64,
                "duration": 0.1659091,
                "tempo": 120.0
            },
            {
                "start_time": 29.7159091,
                "end_time": 30.0795455,
                "pitch": 83,
                "velocity": 64,
                "duration": 0.3636364,
                "tempo": 120.0
            },
            {
                "start_time": 30.1113636,
                "end_time": 30.4704545,
                "pitch": 82,
                "velocity": 64,
                "duration": 0.3590909,
                "tempo": 120.0
            },
            {
                "start_time": 30.5022727,
                "end_time": 30.6636364,
                "pitch": 78,
                "velocity": 64,
                "duration": 0.1613636,
                "tempo": 120.0
            },
            {
                "start_time": 30.6977273,
                "end_time": 31.0545455,
                "pitch": 80,
                "velocity": 64,
                "duration": 0.3568182,
                "tempo": 120.0
            },
            {
                "start_time": 31.0863636,
                "end_time": 31.4454545,
                "pitch": 73,
                "velocity": 64,
                "duration": 0.3590909,
                "tempo": 120.0
            },
            {
                "start_time": 31.4772727,
                "end_time": 31.6409091,
                "pitch": 73,
                "velocity": 64,
                "duration": 0.1636364,
                "tempo": 120.0
            },
            {
                "start_time": 31.6727273,
                "end_time": 31.8386364,
                "pitch": 76,
                "velocity": 64,
                "duration": 0.1659091,
                "tempo": 120.0
            },
            {
                "start_time": 31.8704545,
                "end_time": 32.0363636,
                "pitch": 73,
                "velocity": 64,
                "duration": 0.1659091,
                "tempo": 120.0
            },
            {
                "start_time": 32.0681818,
                "end_time": 32.2340909,
                "pitch": 76,
                "velocity": 64,
                "duration": 0.1659091,
                "tempo": 120.0
            },
            {
                "start_time": 32.2659091,
                "end_time": 32.4318182,
                "pitch": 78,
                "velocity": 64,
                "duration": 0.1659091,
                "tempo": 120.0
            },
            {
                "start_time": 32.4636364,
                "end_time": 32.6295455,
                "pitch": 73,
                "velocity": 64,
                "duration": 0.1659091,
                "tempo": 120.0
            },
            {
                "start_time": 32.6613636,
                "end_time": 32.8272727,
                "pitch": 76,
                "velocity": 64,
                "duration": 0.1659091,
                "tempo": 120.0
            },
            {
                "start_time": 32.8590909,
                "end_time": 33.2227273,
                "pitch": 83,
                "velocity": 64,
                "duration": 0.3636364,
                "tempo": 120.0
            },
            {
                "start_time": 33.2545455,
                "end_time": 33.6113636,
                "pitch": 82,
                "velocity": 64,
                "duration": 0.3568182,
                "tempo": 120.0
            },
            {
                "start_time": 33.6454545,
                "end_time": 33.8068182,
                "pitch": 78,
                "velocity": 64,
                "duration": 0.1613636,
                "tempo": 120.0
            },
            {
                "start_time": 33.8409091,
                "end_time": 34.1977273,
                "pitch": 80,
                "velocity": 64,
                "duration": 0.3568182,
                "tempo": 120.0
            },
            {
                "start_time": 34.2295455,
                "end_time": 34.3931818,
                "pitch": 73,
                "velocity": 64,
                "duration": 0.1636364,
                "tempo": 120.0
            },
            {
                "start_time": 35.6068182,
                "end_time": 35.7704545,
                "pitch": 73,
                "velocity": 64,
                "duration": 0.1636364,
                "tempo": 120.0
            },
            {
                "start_time": 35.8045455,
                "end_time": 35.9704545,
                "pitch": 76,
                "velocity": 64,
                "duration": 0.1659091,
                "tempo": 120.0
            },
            {
                "start_time": 36.0022727,
                "end_time": 36.3659091,
                "pitch": 83,
                "velocity": 64,
                "duration": 0.3636364,
                "tempo": 120.0
            },
            {
                "start_time": 36.3977273,
                "end_time": 36.7613636,
                "pitch": 82,
                "velocity": 64,
                "duration": 0.3636364,
                "tempo": 120.0
            },
            {
                "start_time": 36.7931818,
                "end_time": 36.9590909,
                "pitch": 78,
                "velocity": 64,
                "duration": 0.1659091,
                "tempo": 120.0
            },
            {
                "start_time": 36.9909091,
                "end_time": 37.3545455,
                "pitch": 80,
                "velocity": 64,
                "duration": 0.3636364,
                "tempo": 120.0
            },
            {
                "start_time": 37.3863636,
                "end_time": 37.75,
                "pitch": 73,
                "velocity": 64,
                "duration": 0.3636364,
                "tempo": 120.0
            },
            {
                "start_time": 37.7818182,
                "end_time": 37.9477273,
                "pitch": 73,
                "velocity": 64,
                "duration": 0.1659091,
                "tempo": 120.0
            },
            {
                "start_time": 37.9795455,
                "end_time": 38.1431818,
                "pitch": 76,
                "velocity": 64,
                "duration": 0.1636364,
                "tempo": 120.0
            },
            {
                "start_time": 38.175,
                "end_time": 38.3386364,
                "pitch": 73,
                "velocity": 64,
                "duration": 0.1636364,
                "tempo": 120.0
            },
            {
                "start_time": 38.3704545,
                "end_time": 38.5340909,
                "pitch": 76,
                "velocity": 64,
                "duration": 0.1636364,
                "tempo": 120.0
            },
            {
                "start_time": 38.5659091,
                "end_time": 38.7272727,
                "pitch": 78,
                "velocity": 64,
                "duration": 0.1613636,
                "tempo": 120.0
            },
            {
                "start_time": 38.7613636,
                "end_time": 38.9227273,
                "pitch": 73,
                "velocity": 64,
                "duration": 0.1613636,
                "tempo": 120.0
            },
            {
                "start_time": 38.9568182,
                "end_time": 39.1181818,
                "pitch": 76,
                "velocity": 64,
                "duration": 0.1613636,
                "tempo": 120.0
            },
            {
                "start_time": 39.15,
                "end_time": 39.5090909,
                "pitch": 83,
                "velocity": 64,
                "duration": 0.3590909,
                "tempo": 120.0
            },
            {
                "start_time": 39.5409091,
                "end_time": 39.9,
                "pitch": 82,
                "velocity": 64,
                "duration": 0.3590909,
                "tempo": 120.0
            },
            {
                "start_time": 39.9318182,
                "end_time": 40.0931818,
                "pitch": 78,
                "velocity": 64,
                "duration": 0.1613636,
                "tempo": 120.0
            },
            {
                "start_time": 40.1272727,
                "end_time": 40.4840909,
                "pitch": 80,
                "velocity": 64,
                "duration": 0.3568182,
                "tempo": 120.0
            },
            {
                "start_time": 40.5159091,
                "end_time": 40.6795455,
                "pitch": 73,
                "velocity": 64,
                "duration": 0.1636364,
                "tempo": 120.0
            }
        ],
        "French Horn": [
            {
                "start_time": 42.4863636,
                "end_time": 45.025,
                "pitch": 70,
                "velocity": 64,
                "duration": 2.5386364,
                "tempo": 120.0
            },
            {
                "start_time": 45.0568182,
                "end_time": 45.6181818,
                "pitch": 71,
                "velocity": 64,
                "duration": 0.5613636,
                "tempo": 120.0
            },
            {
                "start_time": 45.65,
                "end_time": 46.2068182,
                "pitch": 70,
                "velocity": 64,
                "duration": 0.5568182,
                "tempo": 120.0
            },
            {
                "start_time": 46.2386364,
                "end_time": 48.1681818,
                "pitch": 73,
                "velocity": 64,
                "duration": 1.9295455,
                "tempo": 120.0
            },
            {
                "start_time": 48.2,
                "end_time": 48.7613636,
                "pitch": 71,
                "velocity": 64,
                "duration": 0.5613636,
                "tempo": 120.0
            },
            {
                "start_time": 48.7931818,
                "end_time": 51.3318182,
                "pitch": 70,
                "velocity": 64,
                "duration": 2.5386364,
                "tempo": 120.0
            },
            {
                "start_time": 51.3659091,
                "end_time": 51.925,
                "pitch": 71,
                "velocity": 64,
                "duration": 0.5590909,
                "tempo": 120.0
            },
            {
                "start_time": 51.9590909,
                "end_time": 52.5181818,
                "pitch": 70,
                "velocity": 64,
                "duration": 0.5590909,
                "tempo": 120.0
            },
            {
                "start_time": 52.5522727,
                "end_time": 54.4863636,
                "pitch": 73,
                "velocity": 64,
                "duration": 1.9340909,
                "tempo": 120.0
            },
            {
                "start_time": 54.5181818,
                "end_time": 55.0727273,
                "pitch": 71,
                "velocity": 64,
                "duration": 0.5545455,
                "tempo": 120.0
            },
            {
                "start_time": 55.1045455,
                "end_time": 57.6386364,
                "pitch": 70,
                "velocity": 64,
                "duration": 2.5340909,
                "tempo": 120.0
            },
            {
                "start_time": 57.6727273,
                "end_time": 58.2318182,
                "pitch": 71,
                "velocity": 64,
                "duration": 0.5590909,
                "tempo": 120.0
            },
            {
                "start_time": 58.2659091,
                "end_time": 58.8272727,
                "pitch": 70,
                "velocity": 64,
                "duration": 0.5613636,
                "tempo": 120.0
            },
            {
                "start_time": 58.8590909,
                "end_time": 60.8045455,
                "pitch": 73,
                "velocity": 64,
                "duration": 1.9454545,
                "tempo": 120.0
            },
            {
                "start_time": 60.8363636,
                "end_time": 61.3977273,
                "pitch": 71,
                "velocity": 64,
                "duration": 0.5613636,
                "tempo": 120.0
            },
            {
                "start_time": 61.4295455,
                "end_time": 63.9477273,
                "pitch": 70,
                "velocity": 64,
                "duration": 2.5181818,
                "tempo": 120.0
            },
            {
                "start_time": 63.9795455,
                "end_time": 64.5409091,
                "pitch": 71,
                "velocity": 64,
                "duration": 0.5613636,
                "tempo": 120.0
            },
            {
                "start_time": 64.5727273,
                "end_time": 65.1295455,
                "pitch": 70,
                "velocity": 64,
                "duration": 0.5568182,
                "tempo": 120.0
            },
            {
                "start_time": 65.1613636,
                "end_time": 69.0613636,
                "pitch": 76,
                "velocity": 64,
                "duration": 3.9,
                "tempo": 120.0
            },
            {
                "start_time": 69.55,
                "end_time": 69.7931818,
                "pitch": 73,
                "velocity": 64,
                "duration": 0.2431818,
                "tempo": 120.0
            },
            {
                "start_time": 70.8613636,
                "end_time": 71.1772727,
                "pitch": 74,
                "velocity": 64,
                "duration": 0.3159091,
                "tempo": 120.0
            },
            {
                "start_time": 72.5318182,
                "end_time": 72.6772727,
                "pitch": 73,
                "velocity": 64,
                "duration": 0.1454545,
                "tempo": 120.0
            },
            {
                "start_time": 72.875,
                "end_time": 73.0181818,
                "pitch": 73,
                "velocity": 64,
                "duration": 0.1431818,
                "tempo": 120.0
            },
            {
                "start_time": 73.3863636,
                "end_time": 73.6977273,
                "pitch": 73,
                "velocity": 64,
                "duration": 0.3113636,
                "tempo": 120.0
            },
            {
                "start_time": 73.8977273,
                "end_time": 74.0590909,
                "pitch": 74,
                "velocity": 64,
                "duration": 0.1613636,
                "tempo": 120.0
            },
            {
                "start_time": 75.3590909,
                "end_time": 75.6045455,
                "pitch": 73,
                "velocity": 64,
                "duration": 0.2454545,
                "tempo": 120.0
            },
            {
                "start_time": 76.7318182,
                "end_time": 77.0636364,
                "pitch": 74,
                "velocity": 64,
                "duration": 0.3318182,
                "tempo": 120.0
            },
            {
                "start_time": 78.35,
                "end_time": 78.4977273,
                "pitch": 73,
                "velocity": 64,
                "duration": 0.1477273,
                "tempo": 120.0
            },
            {
                "start_time": 78.7022727,
                "end_time": 78.85,
                "pitch": 73,
                "velocity": 64,
                "duration": 0.1477273,
                "tempo": 120.0
            },
            {
                "start_time": 79.2318182,
                "end_time": 79.5431818,
                "pitch": 73,
                "velocity": 64,
                "duration": 0.3113636,
                "tempo": 120.0
            },
            {
                "start_time": 79.7431818,
                "end_time": 79.8840909,
                "pitch": 74,
                "velocity": 64,
                "duration": 0.1409091,
                "tempo": 120.0
            }
        ],
        "Violin": [
            {
                "start_time": 42.4863636,
                "end_time": 45.025,
                "pitch": 66,
                "velocity": 64,
                "duration": 2.5386364,
                "tempo": 120.0
            },
            {
                "start_time": 45.0568182,
                "end_time": 45.6181818,
                "pitch": 67,
                "velocity": 64,
                "duration": 0.5613636,
                "tempo": 120.0
            },
            {
                "start_time": 45.65,
                "end_time": 46.2068182,
                "pitch": 66,
                "velocity": 64,
                "duration": 0.5568182,
                "tempo": 120.0
            },
            {
                "start_time": 46.2386364,
                "end_time": 48.1681818,
                "pitch": 69,
                "velocity": 64,
                "duration": 1.9295455,
                "tempo": 120.0
            },
            {
                "start_time": 48.2,
                "end_time": 48.7613636,
                "pitch": 67,
                "velocity": 64,
                "duration": 0.5613636,
                "tempo": 120.0
            },
            {
                "start_time": 48.7931818,
                "end_time": 51.3318182,
                "pitch": 66,
                "velocity": 64,
                "duration": 2.5386364,
                "tempo": 120.0
            },
            {
                "start_time": 51.3659091,
                "end_time": 51.925,
                "pitch": 67,
                "velocity": 64,
                "duration": 0.5590909,
                "tempo": 120.0
            },
            {
                "start_time": 51.9590909,
                "end_time": 52.5181818,
                "pitch": 66,
                "velocity": 64,
                "duration": 0.5590909,
                "tempo": 120.0
            },
            {
                "start_time": 52.5522727,
                "end_time": 54.4863636,
                "pitch": 69,
                "velocity": 64,
                "duration": 1.9340909,
                "tempo": 120.0
            },
            {
                "start_time": 54.5181818,
                "end_time": 55.0727273,
                "pitch": 67,
                "velocity": 64,
                "duration": 0.5545455,
                "tempo": 120.0
            },
            {
                "start_time": 55.1045455,
                "end_time": 57.6386364,
                "pitch": 66,
                "velocity": 64,
                "duration": 2.5340909,
                "tempo": 120.0
            },
            {
                "start_time": 57.6727273,
                "end_time": 58.2318182,
                "pitch": 67,
                "velocity": 64,
                "duration": 0.5590909,
                "tempo": 120.0
            },
            {
                "start_time": 58.2659091,
                "end_time": 58.8272727,
                "pitch": 66,
                "velocity": 64,
                "duration": 0.5613636,
                "tempo": 120.0
            },
            {
                "start_time": 58.8590909,
                "end_time": 60.8045455,
                "pitch": 69,
                "velocity": 64,
                "duration": 1.9454545,
                "tempo": 120.0
            },
            {
                "start_time": 60.8363636,
                "end_time": 61.3977273,
                "pitch": 67,
                "velocity": 64,
                "duration": 0.5613636,
                "tempo": 120.0
            },
            {
                "start_time": 61.4295455,
                "end_time": 63.9477273,
                "pitch": 66,
                "velocity": 64,
                "duration": 2.5181818,
                "tempo": 120.0
            },
            {
                "start_time": 63.9795455,
                "end_time": 64.5409091,
                "pitch": 67,
                "velocity": 64,
                "duration": 0.5613636,
                "tempo": 120.0
            },
            {
                "start_time": 64.5727273,
                "end_time": 65.1295455,
                "pitch": 66,
                "velocity": 64,
                "duration": 0.5568182,
                "tempo": 120.0
            },
            {
                "start_time": 65.1613636,
                "end_time": 69.0613636,
                "pitch": 73,
                "velocity": 64,
                "duration": 3.9,
                "tempo": 120.0
            },
            {
                "start_time": 81.9590909,
                "end_time": 84.4840909,
                "pitch": 66,
                "velocity": 64,
                "duration": 2.525,
                "tempo": 120.0
            },
            {
                "start_time": 84.5159091,
                "end_time": 85.0681818,
                "pitch": 67,
                "velocity": 64,
                "duration": 0.5522727,
                "tempo": 120.0
            },
            {
                "start_time": 85.1022727,
                "end_time": 85.6590909,
                "pitch": 66,
                "velocity": 64,
                "duration": 0.5568182,
                "tempo": 120.0
            },
            {
                "start_time": 85.6909091,
                "end_time": 87.6272727,
                "pitch": 69,
                "velocity": 64,
                "duration": 1.9363636,
                "tempo": 120.0
            },
            {
                "start_time": 87.6590909,
                "end_time": 88.2113636,
                "pitch": 67,
                "velocity": 64,
                "duration": 0.5522727,
                "tempo": 120.0
            },
            {
                "start_time": 88.2454545,
                "end_time": 90.7590909,
                "pitch": 66,
                "velocity": 64,
                "duration": 2.5136364,
                "tempo": 120.0
            },
            {
                "start_time": 90.7909091,
                "end_time": 91.3522727,
                "pitch": 67,
                "velocity": 64,
                "duration": 0.5613636,
                "tempo": 120.0
            },
            {
                "start_time": 91.3840909,
                "end_time": 91.9409091,
                "pitch": 66,
                "velocity": 64,
                "duration": 0.5568182,
                "tempo": 120.0
            },
            {
                "start_time": 91.9727273,
                "end_time": 93.9022727,
                "pitch": 69,
                "velocity": 64,
                "duration": 1.9295455,
                "tempo": 120.0
            },
            {
                "start_time": 93.9340909,
                "end_time": 96.45,
                "pitch": 73,
                "velocity": 64,
                "duration": 2.5159091,
                "tempo": 120.0
            },
            {
                "start_time": 96.4659091,
                "end_time": 96.75,
                "pitch": 73,
                "velocity": 64,
                "duration": 0.2840909,
                "tempo": 120.0
            },
            {
                "start_time": 96.7659091,
                "end_time": 97.0477273,
                "pitch": 72,
                "velocity": 64,
                "duration": 0.2818182,
                "tempo": 120.0
            },
            {
                "start_time": 97.0636364,
                "end_time": 100.3727273,
                "pitch": 71,
                "velocity": 64,
                "duration": 3.3090909,
                "tempo": 120.0
            },
            {
                "start_time": 100.3909091,
                "end_time": 102.7136364,
                "pitch": 73,
                "velocity": 64,
                "duration": 2.3227273,
                "tempo": 120.0
            },
            {
                "start_time": 102.7295455,
                "end_time": 103.0136364,
                "pitch": 73,
                "velocity": 64,
                "duration": 0.2840909,
                "tempo": 120.0
            },
            {
                "start_time": 103.0318182,
                "end_time": 103.3136364,
                "pitch": 72,
                "velocity": 64,
                "duration": 0.2818182,
                "tempo": 120.0
            },
            {
                "start_time": 103.3295455,
                "end_time": 106.55,
                "pitch": 71,
                "velocity": 64,
                "duration": 3.2204545,
                "tempo": 120.0
            }
        ],
        "Electric Guitar (clean)": [
            {
                "start_time": 0.0113636,
                "end_time": 0.175,
                "pitch": 37,
                "velocity": 64,
                "duration": 0.1636364,
                "tempo": 120.0
            },
            {
                "start_time": 0.5818182,
                "end_time": 0.6636364,
                "pitch": 37,
                "velocity": 64,
                "duration": 0.0818182,
                "tempo": 120.0
            },
            {
                "start_time": 0.6795455,
                "end_time": 0.7613636,
                "pitch": 37,
                "velocity": 64,
                "duration": 0.0818182,
                "tempo": 120.0
            },
            {
                "start_time": 1.5636364,
                "end_time": 1.9590909,
                "pitch": 37,
                "velocity": 64,
                "duration": 0.3954545,
                "tempo": 120.0
            },
            {
                "start_time": 3.3045455,
                "end_time": 3.4681818,
                "pitch": 37,
                "velocity": 64,
                "duration": 0.1636364,
                "tempo": 120.0
            },
            {
                "start_time": 3.5022727,
                "end_time": 3.6636364,
                "pitch": 44,
                "velocity": 64,
                "duration": 0.1613636,
                "tempo": 120.0
            },
            {
                "start_time": 4.0863636,
                "end_time": 4.4431818,
                "pitch": 40,
                "velocity": 64,
                "duration": 0.3568182,
                "tempo": 120.0
            },
            {
                "start_time": 4.4772727,
                "end_time": 4.8340909,
                "pitch": 42,
                "velocity": 64,
                "duration": 0.3568182,
                "tempo": 120.0
            },
            {
                "start_time": 4.8681818,
                "end_time": 5.2295455,
                "pitch": 37,
                "velocity": 64,
                "duration": 0.3613636,
                "tempo": 120.0
            },
            {
                "start_time": 6.0545455,
                "end_time": 6.2181818,
                "pitch": 37,
                "velocity": 64,
                "duration": 0.1636364,
                "tempo": 120.0
            },
            {
                "start_time": 6.2522727,
                "end_time": 6.4159091,
                "pitch": 37,
                "velocity": 64,
                "duration": 0.1636364,
                "tempo": 120.0
            },
            {
                "start_time": 7.9886364,
                "end_time": 8.1545455,
                "pitch": 37,
                "velocity": 64,
                "duration": 0.1659091,
                "tempo": 120.0
            },
            {
                "start_time": 8.1863636,
                "end_time": 8.3522727,
                "pitch": 35,
                "velocity": 64,
                "duration": 0.1659091,
                "tempo": 120.0
            },
            {
                "start_time": 8.5818182,
                "end_time": 8.7477273,
                "pitch": 37,
                "velocity": 64,
                "duration": 0.1659091,
                "tempo": 120.0
            },
            {
                "start_time": 9.5704545,
                "end_time": 9.7386364,
                "pitch": 37,
                "velocity": 64,
                "duration": 0.1681818,
                "tempo": 120.0
            },
            {
                "start_time": 9.7704545,
                "end_time": 10.3386364,
                "pitch": 44,
                "velocity": 64,
                "duration": 0.5681818,
                "tempo": 120.0
            },
            {
                "start_time": 10.3727273,
                "end_time": 10.7409091,
                "pitch": 40,
                "velocity": 64,
                "duration": 0.3681818,
                "tempo": 120.0
            },
            {
                "start_time": 10.7727273,
                "end_time": 11.1409091,
                "pitch": 42,
                "velocity": 64,
                "duration": 0.3681818,
                "tempo": 120.0
            },
            {
                "start_time": 11.175,
                "end_time": 11.5318182,
                "pitch": 35,
                "velocity": 64,
                "duration": 0.3568182,
                "tempo": 120.0
            },
            {
                "start_time": 12.3454545,
                "end_time": 12.5090909,
                "pitch": 35,
                "velocity": 64,
                "duration": 0.1636364,
                "tempo": 120.0
            },
            {
                "start_time": 12.5409091,
                "end_time": 12.6931818,
                "pitch": 35,
                "velocity": 64,
                "duration": 0.1522727,
                "tempo": 120.0
            },
            {
                "start_time": 13.7795455,
                "end_time": 14.0840909,
                "pitch": 35,
                "velocity": 64,
                "duration": 0.3045455,
                "tempo": 120.0
            },
            {
                "start_time": 14.1136364,
                "end_time": 14.5840909,
                "pitch": 35,
                "velocity": 64,
                "duration": 0.4704545,
                "tempo": 120.0
            },
            {
                "start_time": 14.6113636,
                "end_time": 14.9159091,
                "pitch": 37,
                "velocity": 64,
                "duration": 0.3045455,
                "tempo": 120.0
            },
            {
                "start_time": 15.4431818,
                "end_time": 15.5818182,
                "pitch": 37,
                "velocity": 64,
                "duration": 0.1386364,
                "tempo": 120.0
            },
            {
                "start_time": 15.6090909,
                "end_time": 16.0818182,
                "pitch": 44,
                "velocity": 64,
                "duration": 0.4727273,
                "tempo": 120.0
            },
            {
                "start_time": 16.1090909,
                "end_time": 16.4318182,
                "pitch": 40,
                "velocity": 64,
                "duration": 0.3227273,
                "tempo": 120.0
            },
            {
                "start_time": 16.4613636,
                "end_time": 16.7840909,
                "pitch": 42,
                "velocity": 64,
                "duration": 0.3227273,
                "tempo": 120.0
            },
            {
                "start_time": 16.8136364,
                "end_time": 16.9613636,
                "pitch": 37,
                "velocity": 64,
                "duration": 0.1477273,
                "tempo": 120.0
            },
            {
                "start_time": 17.9136364,
                "end_time": 18.0772727,
                "pitch": 37,
                "velocity": 64,
                "duration": 0.1636364,
                "tempo": 120.0
            },
            {
                "start_time": 18.1113636,
                "end_time": 18.275,
                "pitch": 37,
                "velocity": 64,
                "duration": 0.1636364,
                "tempo": 120.0
            },
            {
                "start_time": 19.8909091,
                "end_time": 20.0568182,
                "pitch": 37,
                "velocity": 64,
                "duration": 0.1659091,
                "tempo": 120.0
            },
            {
                "start_time": 20.0886364,
                "end_time": 20.2545455,
                "pitch": 30,
                "velocity": 64,
                "duration": 0.1659091,
                "tempo": 120.0
            },
            {
                "start_time": 20.4840909,
                "end_time": 20.65,
                "pitch": 35,
                "velocity": 64,
                "duration": 0.1659091,
                "tempo": 120.0
            },
            {
                "start_time": 21.4636364,
                "end_time": 22.0159091,
                "pitch": 37,
                "velocity": 64,
                "duration": 0.5522727,
                "tempo": 120.0
            },
            {
                "start_time": 22.0477273,
                "end_time": 22.2113636,
                "pitch": 37,
                "velocity": 64,
                "duration": 0.1636364,
                "tempo": 120.0
            },
            {
                "start_time": 23.0227273,
                "end_time": 23.1863636,
                "pitch": 38,
                "velocity": 64,
                "duration": 0.1636364,
                "tempo": 120.0
            },
            {
                "start_time": 23.6090909,
                "end_time": 23.7727273,
                "pitch": 38,
                "velocity": 64,
                "duration": 0.1636364,
                "tempo": 120.0
            },
            {
                "start_time": 24.975,
                "end_time": 25.1386364,
                "pitch": 26,
                "velocity": 64,
                "duration": 0.1636364,
                "tempo": 120.0
            },
            {
                "start_time": 25.1704545,
                "end_time": 25.3318182,
                "pitch": 26,
                "velocity": 64,
                "duration": 0.1613636,
                "tempo": 120.0
            },
            {
                "start_time": 25.3659091,
                "end_time": 25.5295455,
                "pitch": 38,
                "velocity": 64,
                "duration": 0.1636364,
                "tempo": 120.0
            },
            {
                "start_time": 25.5636364,
                "end_time": 26.1227273,
                "pitch": 26,
                "velocity": 64,
                "duration": 0.5590909,
                "tempo": 120.0
            },
            {
                "start_time": 26.1568182,
                "end_time": 26.5181818,
                "pitch": 38,
                "velocity": 64,
                "duration": 0.3613636,
                "tempo": 120.0
            },
            {
                "start_time": 26.75,
                "end_time": 26.9136364,
                "pitch": 38,
                "velocity": 64,
                "duration": 0.1636364,
                "tempo": 120.0
            },
            {
                "start_time": 28.1340909,
                "end_time": 28.2977273,
                "pitch": 26,
                "velocity": 64,
                "duration": 0.1636364,
                "tempo": 120.0
            },
            {
                "start_time": 28.3318182,
                "end_time": 28.4954545,
                "pitch": 26,
                "velocity": 64,
                "duration": 0.1636364,
                "tempo": 120.0
            },
            {
                "start_time": 28.5295455,
                "end_time": 28.6954545,
                "pitch": 38,
                "velocity": 64,
                "duration": 0.1659091,
                "tempo": 120.0
            },
            {
                "start_time": 28.7272727,
                "end_time": 28.8931818,
                "pitch": 38,
                "velocity": 64,
                "duration": 0.1659091,
                "tempo": 120.0
            },
            {
                "start_time": 29.3204545,
                "end_time": 29.6840909,
                "pitch": 37,
                "velocity": 64,
                "duration": 0.3636364,
                "tempo": 120.0
            },
            {
                "start_time": 29.9136364,
                "end_time": 30.275,
                "pitch": 37,
                "velocity": 64,
                "duration": 0.3613636,
                "tempo": 120.0
            },
            {
                "start_time": 31.6727273,
                "end_time": 31.8386364,
                "pitch": 37,
                "velocity": 64,
                "duration": 0.1659091,
                "tempo": 120.0
            },
            {
                "start_time": 31.8704545,
                "end_time": 32.0363636,
                "pitch": 44,
                "velocity": 64,
                "duration": 0.1659091,
                "tempo": 120.0
            },
            {
                "start_time": 32.4636364,
                "end_time": 33.025,
                "pitch": 40,
                "velocity": 64,
                "duration": 0.5613636,
                "tempo": 120.0
            },
            {
                "start_time": 33.0568182,
                "end_time": 33.2227273,
                "pitch": 42,
                "velocity": 64,
                "duration": 0.1659091,
                "tempo": 120.0
            },
            {
                "start_time": 33.6454545,
                "end_time": 34.0022727,
                "pitch": 35,
                "velocity": 64,
                "duration": 0.3568182,
                "tempo": 120.0
            },
            {
                "start_time": 34.0363636,
                "end_time": 34.1977273,
                "pitch": 37,
                "velocity": 64,
                "duration": 0.1613636,
                "tempo": 120.0
            },
            {
                "start_time": 34.2295455,
                "end_time": 34.5886364,
                "pitch": 37,
                "velocity": 64,
                "duration": 0.3590909,
                "tempo": 120.0
            },
            {
                "start_time": 34.8159091,
                "end_time": 35.1772727,
                "pitch": 35,
                "velocity": 64,
                "duration": 0.3613636,
                "tempo": 120.0
            },
            {
                "start_time": 35.2113636,
                "end_time": 35.375,
                "pitch": 37,
                "velocity": 64,
                "duration": 0.1636364,
                "tempo": 120.0
            },
            {
                "start_time": 35.6068182,
                "end_time": 35.9704545,
                "pitch": 37,
                "velocity": 64,
                "duration": 0.3636364,
                "tempo": 120.0
            },
            {
                "start_time": 36.2,
                "end_time": 36.5636364,
                "pitch": 37,
                "velocity": 64,
                "duration": 0.3636364,
                "tempo": 120.0
            },
            {
                "start_time": 37.9795455,
                "end_time": 38.1431818,
                "pitch": 37,
                "velocity": 64,
                "duration": 0.1636364,
                "tempo": 120.0
            },
            {
                "start_time": 38.175,
                "end_time": 38.3386364,
                "pitch": 44,
                "velocity": 64,
                "duration": 0.1636364,
                "tempo": 120.0
            },
            {
                "start_time": 38.7613636,
                "end_time": 39.3136364,
                "pitch": 40,
                "velocity": 64,
                "duration": 0.5522727,
                "tempo": 120.0
            },
            {
                "start_time": 39.3454545,
                "end_time": 39.5090909,
                "pitch": 42,
                "velocity": 64,
                "duration": 0.1636364,
                "tempo": 120.0
            },
            {
                "start_time": 39.9318182,
                "end_time": 40.2886364,
                "pitch": 35,
                "velocity": 64,
                "duration": 0.3568182,
                "tempo": 120.0
            },
            {
                "start_time": 40.3227273,
                "end_time": 40.4840909,
                "pitch": 37,
                "velocity": 64,
                "duration": 0.1613636,
                "tempo": 120.0
            },
            {
                "start_time": 40.5159091,
                "end_time": 40.875,
                "pitch": 37,
                "velocity": 64,
                "duration": 0.3590909,
                "tempo": 120.0
            },
            {
                "start_time": 41.1022727,
                "end_time": 41.4636364,
                "pitch": 35,
                "velocity": 64,
                "duration": 0.3613636,
                "tempo": 120.0
            },
            {
                "start_time": 41.4977273,
                "end_time": 41.6613636,
                "pitch": 37,
                "velocity": 64,
                "duration": 0.1636364,
                "tempo": 120.0
            },
            {
                "start_time": 41.8931818,
                "end_time": 42.0590909,
                "pitch": 25,
                "velocity": 64,
                "duration": 0.1659091,
                "tempo": 120.0
            },
            {
                "start_time": 42.0909091,
                "end_time": 42.2568182,
                "pitch": 37,
                "velocity": 64,
                "duration": 0.1659091,
                "tempo": 120.0
            },
            {
                "start_time": 42.4863636,
                "end_time": 42.6522727,
                "pitch": 37,
                "velocity": 64,
                "duration": 0.1659091,
                "tempo": 120.0
            },
            {
                "start_time": 42.6840909,
                "end_time": 42.85,
                "pitch": 40,
                "velocity": 64,
                "duration": 0.1659091,
                "tempo": 120.0
            },
            {
                "start_time": 42.8818182,
                "end_time": 43.0477273,
                "pitch": 37,
                "velocity": 64,
                "duration": 0.1659091,
                "tempo": 120.0
            },
            {
                "start_time": 43.0795455,
                "end_time": 43.2454545,
                "pitch": 40,
                "velocity": 64,
                "duration": 0.1659091,
                "tempo": 120.0
            },
            {
                "start_time": 43.2772727,
                "end_time": 43.3431818,
                "pitch": 46,
                "velocity": 64,
                "duration": 0.0659091,
                "tempo": 120.0
            },
            {
                "start_time": 43.3772727,
                "end_time": 43.6409091,
                "pitch": 47,
                "velocity": 64,
                "duration": 0.2636364,
                "tempo": 120.0
            },
            {
                "start_time": 43.6727273,
                "end_time": 43.8386364,
                "pitch": 47,
                "velocity": 64,
                "duration": 0.1659091,
                "tempo": 120.0
            },
            {
                "start_time": 43.8704545,
                "end_time": 44.0363636,
                "pitch": 46,
                "velocity": 64,
                "duration": 0.1659091,
                "tempo": 120.0
            },
            {
                "start_time": 44.2659091,
                "end_time": 44.4318182,
                "pitch": 44,
                "velocity": 64,
                "duration": 0.1659091,
                "tempo": 120.0
            },
            {
                "start_time": 44.4636364,
                "end_time": 44.8272727,
                "pitch": 46,
                "velocity": 64,
                "duration": 0.3636364,
                "tempo": 120.0
            },
            {
                "start_time": 44.8590909,
                "end_time": 45.2227273,
                "pitch": 30,
                "velocity": 64,
                "duration": 0.3636364,
                "tempo": 120.0
            },
            {
                "start_time": 45.2545455,
                "end_time": 45.4204545,
                "pitch": 30,
                "velocity": 64,
                "duration": 0.1659091,
                "tempo": 120.0
            },
            {
                "start_time": 45.4522727,
                "end_time": 45.6181818,
                "pitch": 32,
                "velocity": 64,
                "duration": 0.1659091,
                "tempo": 120.0
            },
            {
                "start_time": 45.65,
                "end_time": 45.8159091,
                "pitch": 32,
                "velocity": 64,
                "duration": 0.1659091,
                "tempo": 120.0
            },
            {
                "start_time": 45.8477273,
                "end_time": 46.0113636,
                "pitch": 28,
                "velocity": 64,
                "duration": 0.1636364,
                "tempo": 120.0
            },
            {
                "start_time": 46.0431818,
                "end_time": 46.2068182,
                "pitch": 30,
                "velocity": 64,
                "duration": 0.1636364,
                "tempo": 120.0
            },
            {
                "start_time": 46.4340909,
                "end_time": 46.7909091,
                "pitch": 35,
                "velocity": 64,
                "duration": 0.3568182,
                "tempo": 120.0
            },
            {
                "start_time": 47.0204545,
                "end_time": 47.1818182,
                "pitch": 32,
                "velocity": 64,
                "duration": 0.1613636,
                "tempo": 120.0
            },
            {
                "start_time": 47.4090909,
                "end_time": 47.575,
                "pitch": 30,
                "velocity": 64,
                "duration": 0.1659091,
                "tempo": 120.0
            },
            {
                "start_time": 47.6068182,
                "end_time": 47.9704545,
                "pitch": 25,
                "velocity": 64,
                "duration": 0.3636364,
                "tempo": 120.0
            },
            {
                "start_time": 48.2,
                "end_time": 48.5636364,
                "pitch": 25,
                "velocity": 64,
                "duration": 0.3636364,
                "tempo": 120.0
            },
            {
                "start_time": 48.5954545,
                "end_time": 48.7613636,
                "pitch": 25,
                "velocity": 64,
                "duration": 0.1659091,
                "tempo": 120.0
            },
            {
                "start_time": 48.7931818,
                "end_time": 48.9590909,
                "pitch": 25,
                "velocity": 64,
                "duration": 0.1659091,
                "tempo": 120.0
            },
            {
                "start_time": 48.9909091,
                "end_time": 49.0568182,
                "pitch": 35,
                "velocity": 64,
                "duration": 0.0659091,
                "tempo": 120.0
            },
            {
                "start_time": 49.0909091,
                "end_time": 49.3545455,
                "pitch": 37,
                "velocity": 64,
                "duration": 0.2636364,
                "tempo": 120.0
            },
            {
                "start_time": 49.3863636,
                "end_time": 49.5522727,
                "pitch": 25,
                "velocity": 64,
                "duration": 0.1659091,
                "tempo": 120.0
            },
            {
                "start_time": 49.5840909,
                "end_time": 49.75,
                "pitch": 25,
                "velocity": 64,
                "duration": 0.1659091,
                "tempo": 120.0
            },
            {
                "start_time": 49.9795455,
                "end_time": 50.1454545,
                "pitch": 25,
                "velocity": 64,
                "duration": 0.1659091,
                "tempo": 120.0
            },
            {
                "start_time": 50.3772727,
                "end_time": 50.5409091,
                "pitch": 25,
                "velocity": 64,
                "duration": 0.1636364,
                "tempo": 120.0
            },
            {
                "start_time": 50.575,
                "end_time": 50.6409091,
                "pitch": 35,
                "velocity": 64,
                "duration": 0.0659091,
                "tempo": 120.0
            },
            {
                "start_time": 50.6727273,
                "end_time": 51.1340909,
                "pitch": 37,
                "velocity": 64,
                "duration": 0.4613636,
                "tempo": 120.0
            },
            {
                "start_time": 51.1681818,
                "end_time": 51.3318182,
                "pitch": 35,
                "velocity": 64,
                "duration": 0.1636364,
                "tempo": 120.0
            },
            {
                "start_time": 51.3659091,
                "end_time": 51.5295455,
                "pitch": 32,
                "velocity": 64,
                "duration": 0.1636364,
                "tempo": 120.0
            },
            {
                "start_time": 51.5636364,
                "end_time": 51.7272727,
                "pitch": 32,
                "velocity": 64,
                "duration": 0.1636364,
                "tempo": 120.0
            },
            {
                "start_time": 51.7613636,
                "end_time": 51.925,
                "pitch": 32,
                "velocity": 64,
                "duration": 0.1636364,
                "tempo": 120.0
            },
            {
                "start_time": 51.9590909,
                "end_time": 52.1227273,
                "pitch": 32,
                "velocity": 64,
                "duration": 0.1636364,
                "tempo": 120.0
            },
            {
                "start_time": 52.1568182,
                "end_time": 52.3204545,
                "pitch": 35,
                "velocity": 64,
                "duration": 0.1636364,
                "tempo": 120.0
            },
            {
                "start_time": 52.3545455,
                "end_time": 52.7159091,
                "pitch": 37,
                "velocity": 64,
                "duration": 0.3613636,
                "tempo": 120.0
            },
            {
                "start_time": 52.75,
                "end_time": 52.9136364,
                "pitch": 40,
                "velocity": 64,
                "duration": 0.1636364,
                "tempo": 120.0
            },
            {
                "start_time": 53.1454545,
                "end_time": 53.3090909,
                "pitch": 40,
                "velocity": 64,
                "duration": 0.1636364,
                "tempo": 120.0
            },
            {
                "start_time": 53.3431818,
                "end_time": 53.7045455,
                "pitch": 39,
                "velocity": 64,
                "duration": 0.3613636,
                "tempo": 120.0
            },
            {
                "start_time": 53.7386364,
                "end_time": 53.9,
                "pitch": 35,
                "velocity": 64,
                "duration": 0.1613636,
                "tempo": 120.0
            },
            {
                "start_time": 53.9340909,
                "end_time": 54.2909091,
                "pitch": 37,
                "velocity": 64,
                "duration": 0.3568182,
                "tempo": 120.0
            },
            {
                "start_time": 54.5181818,
                "end_time": 54.6818182,
                "pitch": 25,
                "velocity": 64,
                "duration": 0.1636364,
                "tempo": 120.0
            },
            {
                "start_time": 54.7136364,
                "end_time": 54.8772727,
                "pitch": 37,
                "velocity": 64,
                "duration": 0.1636364,
                "tempo": 120.0
            },
            {
                "start_time": 55.1045455,
                "end_time": 55.2659091,
                "pitch": 37,
                "velocity": 64,
                "duration": 0.1613636,
                "tempo": 120.0
            },
            {
                "start_time": 55.3,
                "end_time": 55.4636364,
                "pitch": 40,
                "velocity": 64,
                "duration": 0.1636364,
                "tempo": 120.0
            },
            {
                "start_time": 55.4977273,
                "end_time": 55.6613636,
                "pitch": 37,
                "velocity": 64,
                "duration": 0.1636364,
                "tempo": 120.0
            },
            {
                "start_time": 55.6954545,
                "end_time": 55.8590909,
                "pitch": 40,
                "velocity": 64,
                "duration": 0.1636364,
                "tempo": 120.0
            },
            {
                "start_time": 55.8931818,
                "end_time": 55.9590909,
                "pitch": 46,
                "velocity": 64,
                "duration": 0.0659091,
                "tempo": 120.0
            },
            {
                "start_time": 55.9909091,
                "end_time": 56.2545455,
                "pitch": 47,
                "velocity": 64,
                "duration": 0.2636364,
                "tempo": 120.0
            },
            {
                "start_time": 56.2886364,
                "end_time": 56.4522727,
                "pitch": 47,
                "velocity": 64,
                "duration": 0.1636364,
                "tempo": 120.0
            },
            {
                "start_time": 56.4863636,
                "end_time": 56.65,
                "pitch": 46,
                "velocity": 64,
                "duration": 0.1636364,
                "tempo": 120.0
            },
            {
                "start_time": 56.8818182,
                "end_time": 57.0454545,
                "pitch": 44,
                "velocity": 64,
                "duration": 0.1636364,
                "tempo": 120.0
            },
            {
                "start_time": 57.0795455,
                "end_time": 57.4409091,
                "pitch": 46,
                "velocity": 64,
                "duration": 0.3613636,
                "tempo": 120.0
            },
            {
                "start_time": 57.475,
                "end_time": 57.8363636,
                "pitch": 30,
                "velocity": 64,
                "duration": 0.3613636,
                "tempo": 120.0
            },
            {
                "start_time": 57.8704545,
                "end_time": 58.0340909,
                "pitch": 30,
                "velocity": 64,
                "duration": 0.1636364,
                "tempo": 120.0
            },
            {
                "start_time": 58.0681818,
                "end_time": 58.2318182,
                "pitch": 32,
                "velocity": 64,
                "duration": 0.1636364,
                "tempo": 120.0
            },
            {
                "start_time": 58.2659091,
                "end_time": 58.4318182,
                "pitch": 32,
                "velocity": 64,
                "duration": 0.1659091,
                "tempo": 120.0
            },
            {
                "start_time": 58.4636364,
                "end_time": 58.6295455,
                "pitch": 28,
                "velocity": 64,
                "duration": 0.1659091,
                "tempo": 120.0
            },
            {
                "start_time": 58.6613636,
                "end_time": 58.8272727,
                "pitch": 30,
                "velocity": 64,
                "duration": 0.1659091,
                "tempo": 120.0
            },
            {
                "start_time": 59.0568182,
                "end_time": 59.4204545,
                "pitch": 35,
                "velocity": 64,
                "duration": 0.3636364,
                "tempo": 120.0
            },
            {
                "start_time": 59.65,
                "end_time": 59.8159091,
                "pitch": 32,
                "velocity": 64,
                "duration": 0.1659091,
                "tempo": 120.0
            },
            {
                "start_time": 60.0454545,
                "end_time": 60.2113636,
                "pitch": 30,
                "velocity": 64,
                "duration": 0.1659091,
                "tempo": 120.0
            },
            {
                "start_time": 60.2431818,
                "end_time": 60.6068182,
                "pitch": 25,
                "velocity": 64,
                "duration": 0.3636364,
                "tempo": 120.0
            },
            {
                "start_time": 60.8363636,
                "end_time": 61.2,
                "pitch": 37,
                "velocity": 64,
                "duration": 0.3636364,
                "tempo": 120.0
            },
            {
                "start_time": 61.2318182,
                "end_time": 61.3977273,
                "pitch": 37,
                "velocity": 64,
                "duration": 0.1659091,
                "tempo": 120.0
            },
            {
                "start_time": 61.4295455,
                "end_time": 61.5954545,
                "pitch": 37,
                "velocity": 64,
                "duration": 0.1659091,
                "tempo": 120.0
            },
            {
                "start_time": 61.6272727,
                "end_time": 61.7909091,
                "pitch": 49,
                "velocity": 64,
                "duration": 0.1636364,
                "tempo": 120.0
            },
            {
                "start_time": 61.8227273,
                "end_time": 62.1818182,
                "pitch": 37,
                "velocity": 64,
                "duration": 0.3590909,
                "tempo": 120.0
            },
            {
                "start_time": 62.2136364,
                "end_time": 62.2795455,
                "pitch": 39,
                "velocity": 64,
                "duration": 0.0659091,
                "tempo": 120.0
            },
            {
                "start_time": 62.3113636,
                "end_time": 62.375,
                "pitch": 40,
                "velocity": 64,
                "duration": 0.0636364,
                "tempo": 120.0
            },
            {
                "start_time": 62.4090909,
                "end_time": 62.5704545,
                "pitch": 40,
                "velocity": 64,
                "duration": 0.1613636,
                "tempo": 120.0
            },
            {
                "start_time": 62.6045455,
                "end_time": 63.1568182,
                "pitch": 39,
                "velocity": 64,
                "duration": 0.5522727,
                "tempo": 120.0
            },
            {
                "start_time": 63.1886364,
                "end_time": 63.3545455,
                "pitch": 35,
                "velocity": 64,
                "duration": 0.1659091,
                "tempo": 120.0
            },
            {
                "start_time": 63.3863636,
                "end_time": 63.75,
                "pitch": 37,
                "velocity": 64,
                "duration": 0.3636364,
                "tempo": 120.0
            },
            {
                "start_time": 63.7818182,
                "end_time": 63.8477273,
                "pitch": 42,
                "velocity": 64,
                "duration": 0.0659091,
                "tempo": 120.0
            },
            {
                "start_time": 63.8818182,
                "end_time": 63.9477273,
                "pitch": 44,
                "velocity": 64,
                "duration": 0.0659091,
                "tempo": 120.0
            },
            {
                "start_time": 63.9795455,
                "end_time": 64.1454545,
                "pitch": 44,
                "velocity": 64,
                "duration": 0.1659091,
                "tempo": 120.0
            },
            {
                "start_time": 64.1772727,
                "end_time": 64.3431818,
                "pitch": 42,
                "velocity": 64,
                "duration": 0.1659091,
                "tempo": 120.0
            },
            {
                "start_time": 64.375,
                "end_time": 64.7386364,
                "pitch": 40,
                "velocity": 64,
                "duration": 0.3636364,
                "tempo": 120.0
            },
            {
                "start_time": 64.7704545,
                "end_time": 64.9340909,
                "pitch": 37,
                "velocity": 64,
                "duration": 0.1636364,
                "tempo": 120.0
            },
            {
                "start_time": 65.1613636,
                "end_time": 65.325,
                "pitch": 33,
                "velocity": 64,
                "duration": 0.1636364,
                "tempo": 120.0
            },
            {
                "start_time": 65.3568182,
                "end_time": 65.5204545,
                "pitch": 37,
                "velocity": 64,
                "duration": 0.1636364,
                "tempo": 120.0
            },
            {
                "start_time": 66.1363636,
                "end_time": 66.4545455,
                "pitch": 37,
                "velocity": 64,
                "duration": 0.3181818,
                "tempo": 120.0
            },
            {
                "start_time": 66.8272727,
                "end_time": 67.1431818,
                "pitch": 40,
                "velocity": 64,
                "duration": 0.3159091,
                "tempo": 120.0
            },
            {
                "start_time": 67.1704545,
                "end_time": 67.3159091,
                "pitch": 40,
                "velocity": 64,
                "duration": 0.1454545,
                "tempo": 120.0
            },
            {
                "start_time": 67.3431818,
                "end_time": 67.4863636,
                "pitch": 39,
                "velocity": 64,
                "duration": 0.1431818,
                "tempo": 120.0
            },
            {
                "start_time": 67.6886364,
                "end_time": 67.8318182,
                "pitch": 35,
                "velocity": 64,
                "duration": 0.1431818,
                "tempo": 120.0
            },
            {
                "start_time": 67.8590909,
                "end_time": 68.0045455,
                "pitch": 37,
                "velocity": 64,
                "duration": 0.1454545,
                "tempo": 120.0
            },
            {
                "start_time": 68.2045455,
                "end_time": 68.3477273,
                "pitch": 33,
                "velocity": 64,
                "duration": 0.1431818,
                "tempo": 120.0
            },
            {
                "start_time": 68.9090909,
                "end_time": 69.2431818,
                "pitch": 33,
                "velocity": 64,
                "duration": 0.3340909,
                "tempo": 120.0
            },
            {
                "start_time": 69.4568182,
                "end_time": 69.7931818,
                "pitch": 37,
                "velocity": 64,
                "duration": 0.3363636,
                "tempo": 120.0
            },
            {
                "start_time": 70.8613636,
                "end_time": 71.1772727,
                "pitch": 37,
                "velocity": 64,
                "duration": 0.3159091,
                "tempo": 120.0
            },
            {
                "start_time": 71.9636364,
                "end_time": 72.1204545,
                "pitch": 37,
                "velocity": 64,
                "duration": 0.1568182,
                "tempo": 120.0
            },
            {
                "start_time": 72.1522727,
                "end_time": 72.5,
                "pitch": 35,
                "velocity": 64,
                "duration": 0.3477273,
                "tempo": 120.0
            },
            {
                "start_time": 72.5318182,
                "end_time": 72.6772727,
                "pitch": 37,
                "velocity": 64,
                "duration": 0.1454545,
                "tempo": 120.0
            },
            {
                "start_time": 72.875,
                "end_time": 73.0181818,
                "pitch": 37,
                "velocity": 64,
                "duration": 0.1431818,
                "tempo": 120.0
            },
            {
                "start_time": 73.3863636,
                "end_time": 73.5272727,
                "pitch": 37,
                "velocity": 64,
                "duration": 0.1409091,
                "tempo": 120.0
            },
            {
                "start_time": 73.8977273,
                "end_time": 74.0590909,
                "pitch": 37,
                "velocity": 64,
                "duration": 0.1613636,
                "tempo": 120.0
            },
            {
                "start_time": 75.3590909,
                "end_time": 75.6045455,
                "pitch": 37,
                "velocity": 64,
                "duration": 0.2454545,
                "tempo": 120.0
            },
            {
                "start_time": 76.7318182,
                "end_time": 77.0636364,
                "pitch": 37,
                "velocity": 64,
                "duration": 0.3318182,
                "tempo": 120.0
            },
            {
                "start_time": 77.8159091,
                "end_time": 77.9659091,
                "pitch": 37,
                "velocity": 64,
                "duration": 0.15,
                "tempo": 120.0
            },
            {
                "start_time": 77.9977273,
                "end_time": 78.3204545,
                "pitch": 35,
                "velocity": 64,
                "duration": 0.3227273,
                "tempo": 120.0
            },
            {
                "start_time": 78.35,
                "end_time": 78.4977273,
                "pitch": 37,
                "velocity": 64,
                "duration": 0.1477273,
                "tempo": 120.0
            },
            {
                "start_time": 78.7022727,
                "end_time": 78.85,
                "pitch": 37,
                "velocity": 64,
                "duration": 0.1477273,
                "tempo": 120.0
            },
            {
                "start_time": 79.2318182,
                "end_time": 79.3727273,
                "pitch": 37,
                "velocity": 64,
                "duration": 0.1409091,
                "tempo": 120.0
            },
            {
                "start_time": 79.7431818,
                "end_time": 79.8840909,
                "pitch": 37,
                "velocity": 64,
                "duration": 0.1409091,
                "tempo": 120.0
            },
            {
                "start_time": 81.0795455,
                "end_time": 81.3409091,
                "pitch": 37,
                "velocity": 64,
                "duration": 0.2613636,
                "tempo": 120.0
            },
            {
                "start_time": 81.3727273,
                "end_time": 81.5363636,
                "pitch": 25,
                "velocity": 64,
                "duration": 0.1636364,
                "tempo": 120.0
            },
            {
                "start_time": 81.5681818,
                "end_time": 81.7295455,
                "pitch": 37,
                "velocity": 64,
                "duration": 0.1613636,
                "tempo": 120.0
            },
            {
                "start_time": 81.9590909,
                "end_time": 82.1204545,
                "pitch": 37,
                "velocity": 64,
                "duration": 0.1613636,
                "tempo": 120.0
            },
            {
                "start_time": 82.1522727,
                "end_time": 82.3181818,
                "pitch": 40,
                "velocity": 64,
                "duration": 0.1659091,
                "tempo": 120.0
            },
            {
                "start_time": 82.35,
                "end_time": 82.5159091,
                "pitch": 37,
                "velocity": 64,
                "duration": 0.1659091,
                "tempo": 120.0
            },
            {
                "start_time": 82.5477273,
                "end_time": 82.7136364,
                "pitch": 40,
                "velocity": 64,
                "duration": 0.1659091,
                "tempo": 120.0
            },
            {
                "start_time": 82.7454545,
                "end_time": 82.8113636,
                "pitch": 46,
                "velocity": 64,
                "duration": 0.0659091,
                "tempo": 120.0
            },
            {
                "start_time": 82.8454545,
                "end_time": 83.1090909,
                "pitch": 47,
                "velocity": 64,
                "duration": 0.2636364,
                "tempo": 120.0
            },
            {
                "start_time": 83.1409091,
                "end_time": 83.3068182,
                "pitch": 47,
                "velocity": 64,
                "duration": 0.1659091,
                "tempo": 120.0
            },
            {
                "start_time": 83.3386364,
                "end_time": 83.5045455,
                "pitch": 46,
                "velocity": 64,
                "duration": 0.1659091,
                "tempo": 120.0
            },
            {
                "start_time": 83.7340909,
                "end_time": 83.8977273,
                "pitch": 44,
                "velocity": 64,
                "duration": 0.1636364,
                "tempo": 120.0
            },
            {
                "start_time": 83.9295455,
                "end_time": 84.2886364,
                "pitch": 46,
                "velocity": 64,
                "duration": 0.3590909,
                "tempo": 120.0
            },
            {
                "start_time": 84.3204545,
                "end_time": 84.6795455,
                "pitch": 30,
                "velocity": 64,
                "duration": 0.3590909,
                "tempo": 120.0
            },
            {
                "start_time": 84.7113636,
                "end_time": 84.8727273,
                "pitch": 30,
                "velocity": 64,
                "duration": 0.1613636,
                "tempo": 120.0
            },
            {
                "start_time": 84.9068182,
                "end_time": 85.0681818,
                "pitch": 32,
                "velocity": 64,
                "duration": 0.1613636,
                "tempo": 120.0
            },
            {
                "start_time": 85.1022727,
                "end_time": 85.2636364,
                "pitch": 32,
                "velocity": 64,
                "duration": 0.1613636,
                "tempo": 120.0
            },
            {
                "start_time": 85.2954545,
                "end_time": 85.4613636,
                "pitch": 28,
                "velocity": 64,
                "duration": 0.1659091,
                "tempo": 120.0
            },
            {
                "start_time": 85.4931818,
                "end_time": 85.6590909,
                "pitch": 30,
                "velocity": 64,
                "duration": 0.1659091,
                "tempo": 120.0
            },
            {
                "start_time": 85.8886364,
                "end_time": 86.2522727,
                "pitch": 35,
                "velocity": 64,
                "duration": 0.3636364,
                "tempo": 120.0
            },
            {
                "start_time": 86.4818182,
                "end_time": 86.6477273,
                "pitch": 32,
                "velocity": 64,
                "duration": 0.1659091,
                "tempo": 120.0
            },
            {
                "start_time": 86.8795455,
                "end_time": 87.0409091,
                "pitch": 30,
                "velocity": 64,
                "duration": 0.1613636,
                "tempo": 120.0
            },
            {
                "start_time": 87.0727273,
                "end_time": 87.4318182,
                "pitch": 25,
                "velocity": 64,
                "duration": 0.3590909,
                "tempo": 120.0
            },
            {
                "start_time": 87.6590909,
                "end_time": 88.0159091,
                "pitch": 25,
                "velocity": 64,
                "duration": 0.3568182,
                "tempo": 120.0
            },
            {
                "start_time": 88.05,
                "end_time": 88.2113636,
                "pitch": 25,
                "velocity": 64,
                "duration": 0.1613636,
                "tempo": 120.0
            },
            {
                "start_time": 88.2454545,
                "end_time": 88.4068182,
                "pitch": 25,
                "velocity": 64,
                "duration": 0.1613636,
                "tempo": 120.0
            },
            {
                "start_time": 88.4386364,
                "end_time": 88.5045455,
                "pitch": 35,
                "velocity": 64,
                "duration": 0.0659091,
                "tempo": 120.0
            },
            {
                "start_time": 88.5363636,
                "end_time": 88.7977273,
                "pitch": 37,
                "velocity": 64,
                "duration": 0.2613636,
                "tempo": 120.0
            },
            {
                "start_time": 88.8295455,
                "end_time": 88.9931818,
                "pitch": 25,
                "velocity": 64,
                "duration": 0.1636364,
                "tempo": 120.0
            },
            {
                "start_time": 89.025,
                "end_time": 89.1886364,
                "pitch": 25,
                "velocity": 64,
                "duration": 0.1636364,
                "tempo": 120.0
            },
            {
                "start_time": 89.4159091,
                "end_time": 89.5772727,
                "pitch": 25,
                "velocity": 64,
                "duration": 0.1613636,
                "tempo": 120.0
            },
            {
                "start_time": 89.8045455,
                "end_time": 89.9681818,
                "pitch": 25,
                "velocity": 64,
                "duration": 0.1636364,
                "tempo": 120.0
            },
            {
                "start_time": 90.0,
                "end_time": 90.0659091,
                "pitch": 35,
                "velocity": 64,
                "duration": 0.0659091,
                "tempo": 120.0
            },
            {
                "start_time": 90.1,
                "end_time": 90.5613636,
                "pitch": 37,
                "velocity": 64,
                "duration": 0.4613636,
                "tempo": 120.0
            },
            {
                "start_time": 90.5931818,
                "end_time": 90.7590909,
                "pitch": 35,
                "velocity": 64,
                "duration": 0.1659091,
                "tempo": 120.0
            },
            {
                "start_time": 90.7909091,
                "end_time": 90.9568182,
                "pitch": 32,
                "velocity": 64,
                "duration": 0.1659091,
                "tempo": 120.0
            },
            {
                "start_time": 90.9886364,
                "end_time": 91.1545455,
                "pitch": 32,
                "velocity": 64,
                "duration": 0.1659091,
                "tempo": 120.0
            },
            {
                "start_time": 91.1863636,
                "end_time": 91.3522727,
                "pitch": 32,
                "velocity": 64,
                "duration": 0.1659091,
                "tempo": 120.0
            },
            {
                "start_time": 91.3840909,
                "end_time": 91.55,
                "pitch": 32,
                "velocity": 64,
                "duration": 0.1659091,
                "tempo": 120.0
            },
            {
                "start_time": 91.5818182,
                "end_time": 91.7454545,
                "pitch": 35,
                "velocity": 64,
                "duration": 0.1636364,
                "tempo": 120.0
            },
            {
                "start_time": 91.7772727,
                "end_time": 92.1363636,
                "pitch": 37,
                "velocity": 64,
                "duration": 0.3590909,
                "tempo": 120.0
            },
            {
                "start_time": 92.1681818,
                "end_time": 92.3318182,
                "pitch": 40,
                "velocity": 64,
                "duration": 0.1636364,
                "tempo": 120.0
            },
            {
                "start_time": 92.5590909,
                "end_time": 92.7204545,
                "pitch": 40,
                "velocity": 64,
                "duration": 0.1613636,
                "tempo": 120.0
            },
            {
                "start_time": 92.7545455,
                "end_time": 93.1113636,
                "pitch": 39,
                "velocity": 64,
                "duration": 0.3568182,
                "tempo": 120.0
            },
            {
                "start_time": 93.1431818,
                "end_time": 93.3090909,
                "pitch": 35,
                "velocity": 64,
                "duration": 0.1659091,
                "tempo": 120.0
            },
            {
                "start_time": 93.3409091,
                "end_time": 93.7045455,
                "pitch": 37,
                "velocity": 64,
                "duration": 0.3636364,
                "tempo": 120.0
            },
            {
                "start_time": 93.9340909,
                "end_time": 94.1,
                "pitch": 49,
                "velocity": 64,
                "duration": 0.1659091,
                "tempo": 120.0
            },
            {
                "start_time": 94.1272727,
                "end_time": 94.2272727,
                "pitch": 37,
                "velocity": 64,
                "duration": 0.1,
                "tempo": 120.0
            },
            {
                "start_time": 94.2477273,
                "end_time": 94.3477273,
                "pitch": 37,
                "velocity": 64,
                "duration": 0.1,
                "tempo": 120.0
            },
            {
                "start_time": 94.3681818,
                "end_time": 94.4681818,
                "pitch": 37,
                "velocity": 64,
                "duration": 0.1,
                "tempo": 120.0
            },
            {
                "start_time": 94.4886364,
                "end_time": 94.5886364,
                "pitch": 49,
                "velocity": 64,
                "duration": 0.1,
                "tempo": 120.0
            },
            {
                "start_time": 94.6090909,
                "end_time": 94.6931818,
                "pitch": 37,
                "velocity": 64,
                "duration": 0.0840909,
                "tempo": 120.0
            },
            {
                "start_time": 94.7090909,
                "end_time": 94.7931818,
                "pitch": 37,
                "velocity": 64,
                "duration": 0.0840909,
                "tempo": 120.0
            },
            {
                "start_time": 94.8090909,
                "end_time": 94.8931818,
                "pitch": 37,
                "velocity": 64,
                "duration": 0.0840909,
                "tempo": 120.0
            },
            {
                "start_time": 94.9090909,
                "end_time": 94.9931818,
                "pitch": 49,
                "velocity": 64,
                "duration": 0.0840909,
                "tempo": 120.0
            },
            {
                "start_time": 95.0090909,
                "end_time": 95.0886364,
                "pitch": 37,
                "velocity": 64,
                "duration": 0.0795455,
                "tempo": 120.0
            },
            {
                "start_time": 95.1045455,
                "end_time": 95.1840909,
                "pitch": 37,
                "velocity": 64,
                "duration": 0.0795455,
                "tempo": 120.0
            },
            {
                "start_time": 95.2,
                "end_time": 95.2795455,
                "pitch": 37,
                "velocity": 64,
                "duration": 0.0795455,
                "tempo": 120.0
            },
            {
                "start_time": 95.2954545,
                "end_time": 95.3772727,
                "pitch": 49,
                "velocity": 64,
                "duration": 0.0818182,
                "tempo": 120.0
            },
            {
                "start_time": 95.3931818,
                "end_time": 95.4727273,
                "pitch": 37,
                "velocity": 64,
                "duration": 0.0795455,
                "tempo": 120.0
            },
            {
                "start_time": 95.4909091,
                "end_time": 95.5704545,
                "pitch": 37,
                "velocity": 64,
                "duration": 0.0795455,
                "tempo": 120.0
            },
            {
                "start_time": 95.5863636,
                "end_time": 95.6204545,
                "pitch": 52,
                "velocity": 64,
                "duration": 0.0340909,
                "tempo": 120.0
            },
            {
                "start_time": 95.6363636,
                "end_time": 95.7659091,
                "pitch": 54,
                "velocity": 64,
                "duration": 0.1295455,
                "tempo": 120.0
            },
            {
                "start_time": 95.7818182,
                "end_time": 96.0522727,
                "pitch": 52,
                "velocity": 64,
                "duration": 0.2704545,
                "tempo": 120.0
            },
            {
                "start_time": 96.0681818,
                "end_time": 96.15,
                "pitch": 49,
                "velocity": 64,
                "duration": 0.0818182,
                "tempo": 120.0
            },
            {
                "start_time": 96.1659091,
                "end_time": 96.2477273,
                "pitch": 37,
                "velocity": 64,
                "duration": 0.0818182,
                "tempo": 120.0
            },
            {
                "start_time": 96.2659091,
                "end_time": 96.3477273,
                "pitch": 37,
                "velocity": 64,
                "duration": 0.0818182,
                "tempo": 120.0
            },
            {
                "start_time": 96.3659091,
                "end_time": 96.45,
                "pitch": 37,
                "velocity": 64,
                "duration": 0.0840909,
                "tempo": 120.0
            },
            {
                "start_time": 96.4659091,
                "end_time": 96.55,
                "pitch": 49,
                "velocity": 64,
                "duration": 0.0840909,
                "tempo": 120.0
            },
            {
                "start_time": 96.5659091,
                "end_time": 96.65,
                "pitch": 37,
                "velocity": 64,
                "duration": 0.0840909,
                "tempo": 120.0
            },
            {
                "start_time": 96.6659091,
                "end_time": 96.75,
                "pitch": 37,
                "velocity": 64,
                "duration": 0.0840909,
                "tempo": 120.0
            },
            {
                "start_time": 96.7659091,
                "end_time": 96.85,
                "pitch": 37,
                "velocity": 64,
                "duration": 0.0840909,
                "tempo": 120.0
            },
            {
                "start_time": 96.8659091,
                "end_time": 96.95,
                "pitch": 49,
                "velocity": 64,
                "duration": 0.0840909,
                "tempo": 120.0
            },
            {
                "start_time": 96.9659091,
                "end_time": 97.0477273,
                "pitch": 37,
                "velocity": 64,
                "duration": 0.0818182,
                "tempo": 120.0
            },
            {
                "start_time": 97.0636364,
                "end_time": 97.1454545,
                "pitch": 37,
                "velocity": 64,
                "duration": 0.0818182,
                "tempo": 120.0
            },
            {
                "start_time": 97.1613636,
                "end_time": 97.2431818,
                "pitch": 37,
                "velocity": 64,
                "duration": 0.0818182,
                "tempo": 120.0
            },
            {
                "start_time": 97.2590909,
                "end_time": 97.3409091,
                "pitch": 49,
                "velocity": 64,
                "duration": 0.0818182,
                "tempo": 120.0
            },
            {
                "start_time": 97.3568182,
                "end_time": 97.4363636,
                "pitch": 37,
                "velocity": 64,
                "duration": 0.0795455,
                "tempo": 120.0
            },
            {
                "start_time": 97.4522727,
                "end_time": 97.5318182,
                "pitch": 37,
                "velocity": 64,
                "duration": 0.0795455,
                "tempo": 120.0
            },
            {
                "start_time": 97.5477273,
                "end_time": 97.6272727,
                "pitch": 37,
                "velocity": 64,
                "duration": 0.0795455,
                "tempo": 120.0
            },
            {
                "start_time": 97.6431818,
                "end_time": 97.725,
                "pitch": 49,
                "velocity": 64,
                "duration": 0.0818182,
                "tempo": 120.0
            },
            {
                "start_time": 97.7409091,
                "end_time": 97.8227273,
                "pitch": 37,
                "velocity": 64,
                "duration": 0.0818182,
                "tempo": 120.0
            },
            {
                "start_time": 97.8409091,
                "end_time": 97.9227273,
                "pitch": 37,
                "velocity": 64,
                "duration": 0.0818182,
                "tempo": 120.0
            },
            {
                "start_time": 97.9409091,
                "end_time": 98.0227273,
                "pitch": 37,
                "velocity": 64,
                "duration": 0.0818182,
                "tempo": 120.0
            },
            {
                "start_time": 98.0409091,
                "end_time": 98.125,
                "pitch": 49,
                "velocity": 64,
                "duration": 0.0840909,
                "tempo": 120.0
            },
            {
                "start_time": 98.1409091,
                "end_time": 98.2204545,
                "pitch": 37,
                "velocity": 64,
                "duration": 0.0795455,
                "tempo": 120.0
            },
            {
                "start_time": 98.2363636,
                "end_time": 98.3159091,
                "pitch": 37,
                "velocity": 64,
                "duration": 0.0795455,
                "tempo": 120.0
            },
            {
                "start_time": 98.3318182,
                "end_time": 98.4113636,
                "pitch": 37,
                "velocity": 64,
                "duration": 0.0795455,
                "tempo": 120.0
            },
            {
                "start_time": 98.4272727,
                "end_time": 98.5068182,
                "pitch": 49,
                "velocity": 64,
                "duration": 0.0795455,
                "tempo": 120.0
            },
            {
                "start_time": 98.5227273,
                "end_time": 98.6045455,
                "pitch": 37,
                "velocity": 64,
                "duration": 0.0818182,
                "tempo": 120.0
            },
            {
                "start_time": 98.6204545,
                "end_time": 98.7022727,
                "pitch": 37,
                "velocity": 64,
                "duration": 0.0818182,
                "tempo": 120.0
            },
            {
                "start_time": 98.7204545,
                "end_time": 98.7522727,
                "pitch": 52,
                "velocity": 64,
                "duration": 0.0318182,
                "tempo": 120.0
            },
            {
                "start_time": 98.7681818,
                "end_time": 98.9,
                "pitch": 54,
                "velocity": 64,
                "duration": 0.1318182,
                "tempo": 120.0
            },
            {
                "start_time": 98.9159091,
                "end_time": 99.0909091,
                "pitch": 52,
                "velocity": 64,
                "duration": 0.175,
                "tempo": 120.0
            },
            {
                "start_time": 99.1068182,
                "end_time": 99.1863636,
                "pitch": 37,
                "velocity": 64,
                "duration": 0.0795455,
                "tempo": 120.0
            },
            {
                "start_time": 99.2022727,
                "end_time": 99.3840909,
                "pitch": 37,
                "velocity": 64,
                "duration": 0.1818182,
                "tempo": 120.0
            },
            {
                "start_time": 99.4,
                "end_time": 99.4863636,
                "pitch": 49,
                "velocity": 64,
                "duration": 0.0863636,
                "tempo": 120.0
            },
            {
                "start_time": 99.5045455,
                "end_time": 99.5909091,
                "pitch": 37,
                "velocity": 64,
                "duration": 0.0863636,
                "tempo": 120.0
            },
            {
                "start_time": 99.6068182,
                "end_time": 99.7863636,
                "pitch": 39,
                "velocity": 64,
                "duration": 0.1795455,
                "tempo": 120.0
            },
            {
                "start_time": 99.8022727,
                "end_time": 99.8795455,
                "pitch": 51,
                "velocity": 64,
                "duration": 0.0772727,
                "tempo": 120.0
            },
            {
                "start_time": 99.8954545,
                "end_time": 99.9727273,
                "pitch": 39,
                "velocity": 64,
                "duration": 0.0772727,
                "tempo": 120.0
            },
            {
                "start_time": 99.9886364,
                "end_time": 100.0659091,
                "pitch": 40,
                "velocity": 64,
                "duration": 0.0772727,
                "tempo": 120.0
            },
            {
                "start_time": 100.0818182,
                "end_time": 100.3727273,
                "pitch": 52,
                "velocity": 64,
                "duration": 0.2909091,
                "tempo": 120.0
            },
            {
                "start_time": 100.3909091,
                "end_time": 100.4772727,
                "pitch": 49,
                "velocity": 64,
                "duration": 0.0863636,
                "tempo": 120.0
            },
            {
                "start_time": 100.4931818,
                "end_time": 100.575,
                "pitch": 37,
                "velocity": 64,
                "duration": 0.0818182,
                "tempo": 120.0
            },
            {
                "start_time": 100.5909091,
                "end_time": 100.6727273,
                "pitch": 37,
                "velocity": 64,
                "duration": 0.0818182,
                "tempo": 120.0
            },
            {
                "start_time": 100.6886364,
                "end_time": 100.7704545,
                "pitch": 37,
                "velocity": 64,
                "duration": 0.0818182,
                "tempo": 120.0
            },
            {
                "start_time": 100.7863636,
                "end_time": 100.8681818,
                "pitch": 49,
                "velocity": 64,
                "duration": 0.0818182,
                "tempo": 120.0
            },
            {
                "start_time": 100.8840909,
                "end_time": 100.9636364,
                "pitch": 37,
                "velocity": 64,
                "duration": 0.0795455,
                "tempo": 120.0
            },
            {
                "start_time": 100.9795455,
                "end_time": 101.0590909,
                "pitch": 37,
                "velocity": 64,
                "duration": 0.0795455,
                "tempo": 120.0
            },
            {
                "start_time": 101.075,
                "end_time": 101.1545455,
                "pitch": 37,
                "velocity": 64,
                "duration": 0.0795455,
                "tempo": 120.0
            },
            {
                "start_time": 101.1704545,
                "end_time": 101.25,
                "pitch": 49,
                "velocity": 64,
                "duration": 0.0795455,
                "tempo": 120.0
            },
            {
                "start_time": 101.2659091,
                "end_time": 101.3477273,
                "pitch": 37,
                "velocity": 64,
                "duration": 0.0818182,
                "tempo": 120.0
            },
            {
                "start_time": 101.3636364,
                "end_time": 101.4454545,
                "pitch": 37,
                "velocity": 64,
                "duration": 0.0818182,
                "tempo": 120.0
            },
            {
                "start_time": 101.4613636,
                "end_time": 101.5431818,
                "pitch": 37,
                "velocity": 64,
                "duration": 0.0818182,
                "tempo": 120.0
            },
            {
                "start_time": 101.5590909,
                "end_time": 101.6409091,
                "pitch": 49,
                "velocity": 64,
                "duration": 0.0818182,
                "tempo": 120.0
            },
            {
                "start_time": 101.6568182,
                "end_time": 101.7386364,
                "pitch": 37,
                "velocity": 64,
                "duration": 0.0818182,
                "tempo": 120.0
            },
            {
                "start_time": 101.7545455,
                "end_time": 101.8363636,
                "pitch": 37,
                "velocity": 64,
                "duration": 0.0818182,
                "tempo": 120.0
            },
            {
                "start_time": 101.8522727,
                "end_time": 101.8840909,
                "pitch": 52,
                "velocity": 64,
                "duration": 0.0318182,
                "tempo": 120.0
            },
            {
                "start_time": 101.9,
                "end_time": 102.0318182,
                "pitch": 54,
                "velocity": 64,
                "duration": 0.1318182,
                "tempo": 120.0
            },
            {
                "start_time": 102.0477273,
                "end_time": 102.3181818,
                "pitch": 52,
                "velocity": 64,
                "duration": 0.2704545,
                "tempo": 120.0
            },
            {
                "start_time": 102.3340909,
                "end_time": 102.4136364,
                "pitch": 49,
                "velocity": 64,
                "duration": 0.0795455,
                "tempo": 120.0
            },
            {
                "start_time": 102.4295455,
                "end_time": 102.5136364,
                "pitch": 37,
                "velocity": 64,
                "duration": 0.0840909,
                "tempo": 120.0
            },
            {
                "start_time": 102.5295455,
                "end_time": 102.6136364,
                "pitch": 37,
                "velocity": 64,
                "duration": 0.0840909,
                "tempo": 120.0
            },
            {
                "start_time": 102.6295455,
                "end_time": 102.7136364,
                "pitch": 37,
                "velocity": 64,
                "duration": 0.0840909,
                "tempo": 120.0
            },
            {
                "start_time": 102.7295455,
                "end_time": 102.8136364,
                "pitch": 49,
                "velocity": 64,
                "duration": 0.0840909,
                "tempo": 120.0
            },
            {
                "start_time": 102.8295455,
                "end_time": 102.9136364,
                "pitch": 37,
                "velocity": 64,
                "duration": 0.0840909,
                "tempo": 120.0
            },
            {
                "start_time": 102.9318182,
                "end_time": 103.0136364,
                "pitch": 37,
                "velocity": 64,
                "duration": 0.0818182,
                "tempo": 120.0
            },
            {
                "start_time": 103.0318182,
                "end_time": 103.1136364,
                "pitch": 37,
                "velocity": 64,
                "duration": 0.0818182,
                "tempo": 120.0
            },
            {
                "start_time": 103.1318182,
                "end_time": 103.2136364,
                "pitch": 49,
                "velocity": 64,
                "duration": 0.0818182,
                "tempo": 120.0
            },
            {
                "start_time": 103.2318182,
                "end_time": 103.3136364,
                "pitch": 37,
                "velocity": 64,
                "duration": 0.0818182,
                "tempo": 120.0
            },
            {
                "start_time": 103.3295455,
                "end_time": 103.4113636,
                "pitch": 37,
                "velocity": 64,
                "duration": 0.0818182,
                "tempo": 120.0
            },
            {
                "start_time": 103.4272727,
                "end_time": 103.5090909,
                "pitch": 37,
                "velocity": 64,
                "duration": 0.0818182,
                "tempo": 120.0
            },
            {
                "start_time": 103.525,
                "end_time": 103.6045455,
                "pitch": 49,
                "velocity": 64,
                "duration": 0.0795455,
                "tempo": 120.0
            },
            {
                "start_time": 103.6227273,
                "end_time": 103.7022727,
                "pitch": 37,
                "velocity": 64,
                "duration": 0.0795455,
                "tempo": 120.0
            },
            {
                "start_time": 103.7181818,
                "end_time": 103.7977273,
                "pitch": 37,
                "velocity": 64,
                "duration": 0.0795455,
                "tempo": 120.0
            },
            {
                "start_time": 103.8136364,
                "end_time": 103.8931818,
                "pitch": 37,
                "velocity": 64,
                "duration": 0.0795455,
                "tempo": 120.0
            },
            {
                "start_time": 103.9090909,
                "end_time": 103.9886364,
                "pitch": 49,
                "velocity": 64,
                "duration": 0.0795455,
                "tempo": 120.0
            },
            {
                "start_time": 104.0045455,
                "end_time": 104.0863636,
                "pitch": 37,
                "velocity": 64,
                "duration": 0.0818182,
                "tempo": 120.0
            },
            {
                "start_time": 104.1022727,
                "end_time": 104.1840909,
                "pitch": 37,
                "velocity": 64,
                "duration": 0.0818182,
                "tempo": 120.0
            },
            {
                "start_time": 104.2,
                "end_time": 104.2818182,
                "pitch": 37,
                "velocity": 64,
                "duration": 0.0818182,
                "tempo": 120.0
            },
            {
                "start_time": 104.2977273,
                "end_time": 104.3795455,
                "pitch": 49,
                "velocity": 64,
                "duration": 0.0818182,
                "tempo": 120.0
            },
            {
                "start_time": 104.3954545,
                "end_time": 104.4772727,
                "pitch": 37,
                "velocity": 64,
                "duration": 0.0818182,
                "tempo": 120.0
            },
            {
                "start_time": 104.4931818,
                "end_time": 104.575,
                "pitch": 37,
                "velocity": 64,
                "duration": 0.0818182,
                "tempo": 120.0
            },
            {
                "start_time": 104.5909091,
                "end_time": 104.6727273,
                "pitch": 37,
                "velocity": 64,
                "duration": 0.0818182,
                "tempo": 120.0
            },
            {
                "start_time": 104.6886364,
                "end_time": 104.7704545,
                "pitch": 49,
                "velocity": 64,
                "duration": 0.0818182,
                "tempo": 120.0
            },
            {
                "start_time": 104.7886364,
                "end_time": 104.8681818,
                "pitch": 37,
                "velocity": 64,
                "duration": 0.0795455,
                "tempo": 120.0
            },
            {
                "start_time": 104.8840909,
                "end_time": 104.9659091,
                "pitch": 37,
                "velocity": 64,
                "duration": 0.0818182,
                "tempo": 120.0
            },
            {
                "start_time": 104.9818182,
                "end_time": 105.0159091,
                "pitch": 52,
                "velocity": 64,
                "duration": 0.0340909,
                "tempo": 120.0
            },
            {
                "start_time": 105.0318182,
                "end_time": 105.1613636,
                "pitch": 54,
                "velocity": 64,
                "duration": 0.1295455,
                "tempo": 120.0
            },
            {
                "start_time": 105.1772727,
                "end_time": 105.3477273,
                "pitch": 52,
                "velocity": 64,
                "duration": 0.1704545,
                "tempo": 120.0
            },
            {
                "start_time": 105.3636364,
                "end_time": 105.4409091,
                "pitch": 37,
                "velocity": 64,
                "duration": 0.0772727,
                "tempo": 120.0
            },
            {
                "start_time": 105.4568182,
                "end_time": 105.6204545,
                "pitch": 37,
                "velocity": 64,
                "duration": 0.1636364,
                "tempo": 120.0
            },
            {
                "start_time": 105.6340909,
                "end_time": 105.7068182,
                "pitch": 49,
                "velocity": 64,
                "duration": 0.0727273,
                "tempo": 120.0
            },
            {
                "start_time": 105.7227273,
                "end_time": 105.7954545,
                "pitch": 37,
                "velocity": 64,
                "duration": 0.0727273,
                "tempo": 120.0
            },
            {
                "start_time": 105.8113636,
                "end_time": 105.9818182,
                "pitch": 39,
                "velocity": 64,
                "duration": 0.1704545,
                "tempo": 120.0
            },
            {
                "start_time": 105.9954545,
                "end_time": 106.075,
                "pitch": 51,
                "velocity": 64,
                "duration": 0.0795455,
                "tempo": 120.0
            },
            {
                "start_time": 106.0886364,
                "end_time": 106.1681818,
                "pitch": 39,
                "velocity": 64,
                "duration": 0.0795455,
                "tempo": 120.0
            },
            {
                "start_time": 106.1818182,
                "end_time": 106.2636364,
                "pitch": 40,
                "velocity": 64,
                "duration": 0.0818182,
                "tempo": 120.0
            },
            {
                "start_time": 106.2795455,
                "end_time": 106.55,
                "pitch": 52,
                "velocity": 64,
                "duration": 0.2704545,
                "tempo": 120.0
            },
            {
                "start_time": 106.5659091,
                "end_time": 106.8295455,
                "pitch": 35,
                "velocity": 64,
                "duration": 0.2636364,
                "tempo": 120.0
            },
            {
                "start_time": 106.8454545,
                "end_time": 106.9227273,
                "pitch": 47,
                "velocity": 64,
                "duration": 0.0772727,
                "tempo": 120.0
            },
            {
                "start_time": 106.9386364,
                "end_time": 107.0227273,
                "pitch": 37,
                "velocity": 64,
                "duration": 0.0840909,
                "tempo": 120.0
            },
            {
                "start_time": 107.0386364,
                "end_time": 107.1227273,
                "pitch": 35,
                "velocity": 64,
                "duration": 0.0840909,
                "tempo": 120.0
            },
            {
                "start_time": 107.1386364,
                "end_time": 107.2227273,
                "pitch": 37,
                "velocity": 64,
                "duration": 0.0840909,
                "tempo": 120.0
            },
            {
                "start_time": 107.2386364,
                "end_time": 107.3227273,
                "pitch": 38,
                "velocity": 64,
                "duration": 0.0840909,
                "tempo": 120.0
            },
            {
                "start_time": 107.4340909,
                "end_time": 107.5136364,
                "pitch": 40,
                "velocity": 64,
                "duration": 0.0795455,
                "tempo": 120.0
            },
            {
                "start_time": 107.5295455,
                "end_time": 107.6090909,
                "pitch": 42,
                "velocity": 64,
                "duration": 0.0795455,
                "tempo": 120.0
            },
            {
                "start_time": 107.625,
                "end_time": 107.7045455,
                "pitch": 47,
                "velocity": 64,
                "duration": 0.0795455,
                "tempo": 120.0
            },
            {
                "start_time": 107.8181818,
                "end_time": 107.9,
                "pitch": 38,
                "velocity": 64,
                "duration": 0.0818182,
                "tempo": 120.0
            },
            {
                "start_time": 107.9159091,
                "end_time": 107.9977273,
                "pitch": 40,
                "velocity": 64,
                "duration": 0.0818182,
                "tempo": 120.0
            },
            {
                "start_time": 108.0136364,
                "end_time": 108.0954545,
                "pitch": 52,
                "velocity": 64,
                "duration": 0.0818182,
                "tempo": 120.0
            },
            {
                "start_time": 108.1113636,
                "end_time": 108.4045455,
                "pitch": 35,
                "velocity": 64,
                "duration": 0.2931818,
                "tempo": 120.0
            },
            {
                "start_time": 108.4204545,
                "end_time": 108.5068182,
                "pitch": 35,
                "velocity": 64,
                "duration": 0.0863636,
                "tempo": 120.0
            },
            {
                "start_time": 108.5227273,
                "end_time": 108.6068182,
                "pitch": 37,
                "velocity": 64,
                "duration": 0.0840909,
                "tempo": 120.0
            },
            {
                "start_time": 108.6227273,
                "end_time": 108.7045455,
                "pitch": 35,
                "velocity": 64,
                "duration": 0.0818182,
                "tempo": 120.0
            },
            {
                "start_time": 108.7204545,
                "end_time": 108.8022727,
                "pitch": 37,
                "velocity": 64,
                "duration": 0.0818182,
                "tempo": 120.0
            },
            {
                "start_time": 108.8181818,
                "end_time": 108.9,
                "pitch": 28,
                "velocity": 64,
                "duration": 0.0818182,
                "tempo": 120.0
            },
            {
                "start_time": 109.0090909,
                "end_time": 109.0863636,
                "pitch": 40,
                "velocity": 64,
                "duration": 0.0772727,
                "tempo": 120.0
            },
            {
                "start_time": 109.1022727,
                "end_time": 109.1795455,
                "pitch": 42,
                "velocity": 64,
                "duration": 0.0772727,
                "tempo": 120.0
            },
            {
                "start_time": 109.1954545,
                "end_time": 109.2727273,
                "pitch": 42,
                "velocity": 64,
                "duration": 0.0772727,
                "tempo": 120.0
            },
            {
                "start_time": 109.2886364,
                "end_time": 109.3727273,
                "pitch": 38,
                "velocity": 64,
                "duration": 0.0840909,
                "tempo": 120.0
            },
            {
                "start_time": 109.3886364,
                "end_time": 109.4727273,
                "pitch": 40,
                "velocity": 64,
                "duration": 0.0840909,
                "tempo": 120.0
            },
            {
                "start_time": 109.4909091,
                "end_time": 109.5727273,
                "pitch": 35,
                "velocity": 64,
                "duration": 0.0818182,
                "tempo": 120.0
            },
            {
                "start_time": 109.5909091,
                "end_time": 109.6727273,
                "pitch": 38,
                "velocity": 64,
                "duration": 0.0818182,
                "tempo": 120.0
            },
            {
                "start_time": 109.6909091,
                "end_time": 109.975,
                "pitch": 42,
                "velocity": 64,
                "duration": 0.2840909,
                "tempo": 120.0
            },
            {
                "start_time": 109.9909091,
                "end_time": 110.075,
                "pitch": 54,
                "velocity": 64,
                "duration": 0.0840909,
                "tempo": 120.0
            },
            {
                "start_time": 110.0909091,
                "end_time": 110.1704545,
                "pitch": 44,
                "velocity": 64,
                "duration": 0.0795455,
                "tempo": 120.0
            },
            {
                "start_time": 110.1863636,
                "end_time": 110.2659091,
                "pitch": 42,
                "velocity": 64,
                "duration": 0.0795455,
                "tempo": 120.0
            },
            {
                "start_time": 110.2818182,
                "end_time": 110.3613636,
                "pitch": 44,
                "velocity": 64,
                "duration": 0.0795455,
                "tempo": 120.0
            },
            {
                "start_time": 110.3772727,
                "end_time": 110.4568182,
                "pitch": 45,
                "velocity": 64,
                "duration": 0.0795455,
                "tempo": 120.0
            },
            {
                "start_time": 110.5681818,
                "end_time": 110.65,
                "pitch": 47,
                "velocity": 64,
                "duration": 0.0818182,
                "tempo": 120.0
            },
            {
                "start_time": 110.6659091,
                "end_time": 110.7454545,
                "pitch": 49,
                "velocity": 64,
                "duration": 0.0795455,
                "tempo": 120.0
            },
            {
                "start_time": 110.7613636,
                "end_time": 110.8409091,
                "pitch": 54,
                "velocity": 64,
                "duration": 0.0795455,
                "tempo": 120.0
            },
            {
                "start_time": 110.9568182,
                "end_time": 111.0409091,
                "pitch": 45,
                "velocity": 64,
                "duration": 0.0840909,
                "tempo": 120.0
            },
            {
                "start_time": 111.0568182,
                "end_time": 111.1409091,
                "pitch": 47,
                "velocity": 64,
                "duration": 0.0840909,
                "tempo": 120.0
            },
            {
                "start_time": 111.1568182,
                "end_time": 111.2409091,
                "pitch": 59,
                "velocity": 64,
                "duration": 0.0840909,
                "tempo": 120.0
            },
            {
                "start_time": 111.2568182,
                "end_time": 111.5409091,
                "pitch": 42,
                "velocity": 64,
                "duration": 0.2840909,
                "tempo": 120.0
            },
            {
                "start_time": 111.5590909,
                "end_time": 111.6409091,
                "pitch": 42,
                "velocity": 64,
                "duration": 0.0818182,
                "tempo": 120.0
            },
            {
                "start_time": 111.6590909,
                "end_time": 111.7386364,
                "pitch": 44,
                "velocity": 64,
                "duration": 0.0795455,
                "tempo": 120.0
            },
            {
                "start_time": 111.7545455,
                "end_time": 111.8340909,
                "pitch": 42,
                "velocity": 64,
                "duration": 0.0795455,
                "tempo": 120.0
            },
            {
                "start_time": 111.85,
                "end_time": 111.9295455,
                "pitch": 44,
                "velocity": 64,
                "duration": 0.0795455,
                "tempo": 120.0
            },
            {
                "start_time": 111.9454545,
                "end_time": 112.025,
                "pitch": 35,
                "velocity": 64,
                "duration": 0.0795455,
                "tempo": 120.0
            },
            {
                "start_time": 112.1363636,
                "end_time": 112.2159091,
                "pitch": 47,
                "velocity": 64,
                "duration": 0.0795455,
                "tempo": 120.0
            },
            {
                "start_time": 112.2318182,
                "end_time": 112.3113636,
                "pitch": 49,
                "velocity": 64,
                "duration": 0.0795455,
                "tempo": 120.0
            },
            {
                "start_time": 112.3272727,
                "end_time": 112.4068182,
                "pitch": 49,
                "velocity": 64,
                "duration": 0.0795455,
                "tempo": 120.0
            },
            {
                "start_time": 112.4227273,
                "end_time": 112.5068182,
                "pitch": 45,
                "velocity": 64,
                "duration": 0.0840909,
                "tempo": 120.0
            },
            {
                "start_time": 112.5227273,
                "end_time": 112.6068182,
                "pitch": 47,
                "velocity": 64,
                "duration": 0.0840909,
                "tempo": 120.0
            },
            {
                "start_time": 112.625,
                "end_time": 112.7068182,
                "pitch": 42,
                "velocity": 64,
                "duration": 0.0818182,
                "tempo": 120.0
            },
            {
                "start_time": 112.725,
                "end_time": 112.8068182,
                "pitch": 45,
                "velocity": 64,
                "duration": 0.0818182,
                "tempo": 120.0
            },
            {
                "start_time": 112.825,
                "end_time": 113.1022727,
                "pitch": 35,
                "velocity": 64,
                "duration": 0.2772727,
                "tempo": 120.0
            },
            {
                "start_time": 113.1181818,
                "end_time": 113.2,
                "pitch": 47,
                "velocity": 64,
                "duration": 0.0818182,
                "tempo": 120.0
            },
            {
                "start_time": 113.2181818,
                "end_time": 113.3,
                "pitch": 37,
                "velocity": 64,
                "duration": 0.0818182,
                "tempo": 120.0
            },
            {
                "start_time": 113.3181818,
                "end_time": 113.4,
                "pitch": 35,
                "velocity": 64,
                "duration": 0.0818182,
                "tempo": 120.0
            },
            {
                "start_time": 113.4181818,
                "end_time": 113.5022727,
                "pitch": 37,
                "velocity": 64,
                "duration": 0.0840909,
                "tempo": 120.0
            },
            {
                "start_time": 113.5181818,
                "end_time": 113.6022727,
                "pitch": 38,
                "velocity": 64,
                "duration": 0.0840909,
                "tempo": 120.0
            },
            {
                "start_time": 113.7113636,
                "end_time": 113.7886364,
                "pitch": 40,
                "velocity": 64,
                "duration": 0.0772727,
                "tempo": 120.0
            },
            {
                "start_time": 113.8045455,
                "end_time": 113.8818182,
                "pitch": 42,
                "velocity": 64,
                "duration": 0.0772727,
                "tempo": 120.0
            },
            {
                "start_time": 113.8977273,
                "end_time": 113.975,
                "pitch": 47,
                "velocity": 64,
                "duration": 0.0772727,
                "tempo": 120.0
            },
            {
                "start_time": 114.0886364,
                "end_time": 114.1704545,
                "pitch": 38,
                "velocity": 64,
                "duration": 0.0818182,
                "tempo": 120.0
            },
            {
                "start_time": 114.1863636,
                "end_time": 114.2681818,
                "pitch": 40,
                "velocity": 64,
                "duration": 0.0818182,
                "tempo": 120.0
            },
            {
                "start_time": 114.2863636,
                "end_time": 114.3681818,
                "pitch": 52,
                "velocity": 64,
                "duration": 0.0818182,
                "tempo": 120.0
            },
            {
                "start_time": 114.3840909,
                "end_time": 114.675,
                "pitch": 35,
                "velocity": 64,
                "duration": 0.2909091,
                "tempo": 120.0
            },
            {
                "start_time": 114.6931818,
                "end_time": 114.7795455,
                "pitch": 35,
                "velocity": 64,
                "duration": 0.0863636,
                "tempo": 120.0
            },
            {
                "start_time": 114.7954545,
                "end_time": 114.8772727,
                "pitch": 37,
                "velocity": 64,
                "duration": 0.0818182,
                "tempo": 120.0
            },
            {
                "start_time": 114.8931818,
                "end_time": 114.975,
                "pitch": 35,
                "velocity": 64,
                "duration": 0.0818182,
                "tempo": 120.0
            },
            {
                "start_time": 114.9909091,
                "end_time": 115.0727273,
                "pitch": 37,
                "velocity": 64,
                "duration": 0.0818182,
                "tempo": 120.0
            },
            {
                "start_time": 115.0886364,
                "end_time": 115.1704545,
                "pitch": 28,
                "velocity": 64,
                "duration": 0.0818182,
                "tempo": 120.0
            },
            {
                "start_time": 115.2795455,
                "end_time": 115.3568182,
                "pitch": 40,
                "velocity": 64,
                "duration": 0.0772727,
                "tempo": 120.0
            },
            {
                "start_time": 115.3727273,
                "end_time": 115.45,
                "pitch": 42,
                "velocity": 64,
                "duration": 0.0772727,
                "tempo": 120.0
            },
            {
                "start_time": 115.4659091,
                "end_time": 115.5431818,
                "pitch": 42,
                "velocity": 64,
                "duration": 0.0772727,
                "tempo": 120.0
            },
            {
                "start_time": 115.5590909,
                "end_time": 115.6431818,
                "pitch": 38,
                "velocity": 64,
                "duration": 0.0840909,
                "tempo": 120.0
            },
            {
                "start_time": 115.6590909,
                "end_time": 115.7431818,
                "pitch": 40,
                "velocity": 64,
                "duration": 0.0840909,
                "tempo": 120.0
            },
            {
                "start_time": 115.7590909,
                "end_time": 115.8431818,
                "pitch": 35,
                "velocity": 64,
                "duration": 0.0840909,
                "tempo": 120.0
            },
            {
                "start_time": 115.8590909,
                "end_time": 115.9431818,
                "pitch": 38,
                "velocity": 64,
                "duration": 0.0840909,
                "tempo": 120.0
            },
            {
                "start_time": 115.9590909,
                "end_time": 116.2431818,
                "pitch": 42,
                "velocity": 64,
                "duration": 0.2840909,
                "tempo": 120.0
            },
            {
                "start_time": 116.2613636,
                "end_time": 116.3431818,
                "pitch": 54,
                "velocity": 64,
                "duration": 0.0818182,
                "tempo": 120.0
            },
            {
                "start_time": 116.3613636,
                "end_time": 116.4409091,
                "pitch": 44,
                "velocity": 64,
                "duration": 0.0795455,
                "tempo": 120.0
            },
            {
                "start_time": 116.4568182,
                "end_time": 116.5363636,
                "pitch": 42,
                "velocity": 64,
                "duration": 0.0795455,
                "tempo": 120.0
            },
            {
                "start_time": 116.5522727,
                "end_time": 116.6318182,
                "pitch": 44,
                "velocity": 64,
                "duration": 0.0795455,
                "tempo": 120.0
            },
            {
                "start_time": 116.6477273,
                "end_time": 116.7272727,
                "pitch": 45,
                "velocity": 64,
                "duration": 0.0795455,
                "tempo": 120.0
            },
            {
                "start_time": 116.8386364,
                "end_time": 116.9181818,
                "pitch": 47,
                "velocity": 64,
                "duration": 0.0795455,
                "tempo": 120.0
            },
            {
                "start_time": 116.9340909,
                "end_time": 117.0136364,
                "pitch": 49,
                "velocity": 64,
                "duration": 0.0795455,
                "tempo": 120.0
            },
            {
                "start_time": 117.0295455,
                "end_time": 117.1090909,
                "pitch": 54,
                "velocity": 64,
                "duration": 0.0795455,
                "tempo": 120.0
            },
            {
                "start_time": 117.225,
                "end_time": 117.3068182,
                "pitch": 45,
                "velocity": 64,
                "duration": 0.0818182,
                "tempo": 120.0
            },
            {
                "start_time": 117.3227273,
                "end_time": 117.4045455,
                "pitch": 47,
                "velocity": 64,
                "duration": 0.0818182,
                "tempo": 120.0
            },
            {
                "start_time": 117.4204545,
                "end_time": 117.5022727,
                "pitch": 59,
                "velocity": 64,
                "duration": 0.0818182,
                "tempo": 120.0
            },
            {
                "start_time": 117.5181818,
                "end_time": 117.8113636,
                "pitch": 42,
                "velocity": 64,
                "duration": 0.2931818,
                "tempo": 120.0
            },
            {
                "start_time": 117.8272727,
                "end_time": 117.9136364,
                "pitch": 42,
                "velocity": 64,
                "duration": 0.0863636,
                "tempo": 120.0
            },
            {
                "start_time": 117.9295455,
                "end_time": 118.0113636,
                "pitch": 44,
                "velocity": 64,
                "duration": 0.0818182,
                "tempo": 120.0
            },
            {
                "start_time": 118.0272727,
                "end_time": 118.1068182,
                "pitch": 42,
                "velocity": 64,
                "duration": 0.0795455,
                "tempo": 120.0
            },
            {
                "start_time": 118.1227273,
                "end_time": 118.2022727,
                "pitch": 44,
                "velocity": 64,
                "duration": 0.0795455,
                "tempo": 120.0
            },
            {
                "start_time": 118.2181818,
                "end_time": 118.2977273,
                "pitch": 35,
                "velocity": 64,
                "duration": 0.0795455,
                "tempo": 120.0
            },
            {
                "start_time": 118.4090909,
                "end_time": 118.4886364,
                "pitch": 47,
                "velocity": 64,
                "duration": 0.0795455,
                "tempo": 120.0
            },
            {
                "start_time": 118.5045455,
                "end_time": 118.5840909,
                "pitch": 49,
                "velocity": 64,
                "duration": 0.0795455,
                "tempo": 120.0
            },
            {
                "start_time": 118.6,
                "end_time": 118.6795455,
                "pitch": 49,
                "velocity": 64,
                "duration": 0.0795455,
                "tempo": 120.0
            },
            {
                "start_time": 118.6954545,
                "end_time": 118.7795455,
                "pitch": 45,
                "velocity": 64,
                "duration": 0.0840909,
                "tempo": 120.0
            },
            {
                "start_time": 118.7954545,
                "end_time": 118.8795455,
                "pitch": 47,
                "velocity": 64,
                "duration": 0.0840909,
                "tempo": 120.0
            },
            {
                "start_time": 118.8954545,
                "end_time": 118.9795455,
                "pitch": 42,
                "velocity": 64,
                "duration": 0.0840909,
                "tempo": 120.0
            },
            {
                "start_time": 118.9977273,
                "end_time": 119.0795455,
                "pitch": 45,
                "velocity": 64,
                "duration": 0.0818182,
                "tempo": 120.0
            },
            {
                "start_time": 119.0977273,
                "end_time": 119.3727273,
                "pitch": 43,
                "velocity": 64,
                "duration": 0.275,
                "tempo": 120.0
            },
            {
                "start_time": 119.3886364,
                "end_time": 119.4704545,
                "pitch": 55,
                "velocity": 64,
                "duration": 0.0818182,
                "tempo": 120.0
            },
            {
                "start_time": 119.4863636,
                "end_time": 119.5704545,
                "pitch": 45,
                "velocity": 64,
                "duration": 0.0840909,
                "tempo": 120.0
            },
            {
                "start_time": 119.5863636,
                "end_time": 119.6704545,
                "pitch": 43,
                "velocity": 64,
                "duration": 0.0840909,
                "tempo": 120.0
            },
            {
                "start_time": 119.6863636,
                "end_time": 119.7704545,
                "pitch": 45,
                "velocity": 64,
                "duration": 0.0840909,
                "tempo": 120.0
            },
            {
                "start_time": 119.7886364,
                "end_time": 119.8704545,
                "pitch": 46,
                "velocity": 64,
                "duration": 0.0818182,
                "tempo": 120.0
            },
            {
                "start_time": 119.9795455,
                "end_time": 120.0568182,
                "pitch": 48,
                "velocity": 64,
                "duration": 0.0772727,
                "tempo": 120.0
            },
            {
                "start_time": 120.0727273,
                "end_time": 120.15,
                "pitch": 50,
                "velocity": 64,
                "duration": 0.0772727,
                "tempo": 120.0
            },
            {
                "start_time": 120.1659091,
                "end_time": 120.2431818,
                "pitch": 55,
                "velocity": 64,
                "duration": 0.0772727,
                "tempo": 120.0
            },
            {
                "start_time": 120.3590909,
                "end_time": 120.4386364,
                "pitch": 46,
                "velocity": 64,
                "duration": 0.0795455,
                "tempo": 120.0
            },
            {
                "start_time": 120.4545455,
                "end_time": 120.5363636,
                "pitch": 48,
                "velocity": 64,
                "duration": 0.0818182,
                "tempo": 120.0
            },
            {
                "start_time": 120.5522727,
                "end_time": 120.6340909,
                "pitch": 60,
                "velocity": 64,
                "duration": 0.0818182,
                "tempo": 120.0
            },
            {
                "start_time": 120.65,
                "end_time": 120.9340909,
                "pitch": 40,
                "velocity": 64,
                "duration": 0.2840909,
                "tempo": 120.0
            },
            {
                "start_time": 120.9522727,
                "end_time": 121.0340909,
                "pitch": 40,
                "velocity": 64,
                "duration": 0.0818182,
                "tempo": 120.0
            },
            {
                "start_time": 121.0522727,
                "end_time": 121.1318182,
                "pitch": 42,
                "velocity": 64,
                "duration": 0.0795455,
                "tempo": 120.0
            },
            {
                "start_time": 121.15,
                "end_time": 121.2295455,
                "pitch": 40,
                "velocity": 64,
                "duration": 0.0795455,
                "tempo": 120.0
            },
            {
                "start_time": 121.2477273,
                "end_time": 121.3272727,
                "pitch": 42,
                "velocity": 64,
                "duration": 0.0795455,
                "tempo": 120.0
            },
            {
                "start_time": 121.3454545,
                "end_time": 121.425,
                "pitch": 33,
                "velocity": 64,
                "duration": 0.0795455,
                "tempo": 120.0
            },
            {
                "start_time": 121.5409091,
                "end_time": 121.6227273,
                "pitch": 45,
                "velocity": 64,
                "duration": 0.0818182,
                "tempo": 120.0
            },
            {
                "start_time": 121.6386364,
                "end_time": 121.7204545,
                "pitch": 47,
                "velocity": 64,
                "duration": 0.0818182,
                "tempo": 120.0
            },
            {
                "start_time": 121.7363636,
                "end_time": 121.8181818,
                "pitch": 47,
                "velocity": 64,
                "duration": 0.0818182,
                "tempo": 120.0
            },
            {
                "start_time": 121.8340909,
                "end_time": 121.9159091,
                "pitch": 43,
                "velocity": 64,
                "duration": 0.0818182,
                "tempo": 120.0
            },
            {
                "start_time": 121.9318182,
                "end_time": 122.0136364,
                "pitch": 45,
                "velocity": 64,
                "duration": 0.0818182,
                "tempo": 120.0
            },
            {
                "start_time": 122.0295455,
                "end_time": 122.1113636,
                "pitch": 40,
                "velocity": 64,
                "duration": 0.0818182,
                "tempo": 120.0
            },
            {
                "start_time": 122.1272727,
                "end_time": 122.2090909,
                "pitch": 43,
                "velocity": 64,
                "duration": 0.0818182,
                "tempo": 120.0
            },
            {
                "start_time": 122.225,
                "end_time": 122.5090909,
                "pitch": 37,
                "velocity": 64,
                "duration": 0.2840909,
                "tempo": 120.0
            },
            {
                "start_time": 122.525,
                "end_time": 122.6090909,
                "pitch": 49,
                "velocity": 64,
                "duration": 0.0840909,
                "tempo": 120.0
            },
            {
                "start_time": 122.625,
                "end_time": 122.7045455,
                "pitch": 39,
                "velocity": 64,
                "duration": 0.0795455,
                "tempo": 120.0
            },
            {
                "start_time": 122.7204545,
                "end_time": 122.8,
                "pitch": 37,
                "velocity": 64,
                "duration": 0.0795455,
                "tempo": 120.0
            },
            {
                "start_time": 122.8159091,
                "end_time": 122.8977273,
                "pitch": 39,
                "velocity": 64,
                "duration": 0.0818182,
                "tempo": 120.0
            },
            {
                "start_time": 122.9136364,
                "end_time": 122.9931818,
                "pitch": 40,
                "velocity": 64,
                "duration": 0.0795455,
                "tempo": 120.0
            },
            {
                "start_time": 123.1045455,
                "end_time": 123.1840909,
                "pitch": 42,
                "velocity": 64,
                "duration": 0.0795455,
                "tempo": 120.0
            },
            {
                "start_time": 123.2,
                "end_time": 123.2795455,
                "pitch": 44,
                "velocity": 64,
                "duration": 0.0795455,
                "tempo": 120.0
            },
            {
                "start_time": 123.2954545,
                "end_time": 123.375,
                "pitch": 49,
                "velocity": 64,
                "duration": 0.0795455,
                "tempo": 120.0
            },
            {
                "start_time": 123.4909091,
                "end_time": 123.575,
                "pitch": 40,
                "velocity": 64,
                "duration": 0.0840909,
                "tempo": 120.0
            },
            {
                "start_time": 123.5909091,
                "end_time": 123.675,
                "pitch": 42,
                "velocity": 64,
                "duration": 0.0840909,
                "tempo": 120.0
            },
            {
                "start_time": 123.6909091,
                "end_time": 123.775,
                "pitch": 54,
                "velocity": 64,
                "duration": 0.0840909,
                "tempo": 120.0
            },
            {
                "start_time": 123.7931818,
                "end_time": 124.075,
                "pitch": 37,
                "velocity": 64,
                "duration": 0.2818182,
                "tempo": 120.0
            },
            {
                "start_time": 124.0931818,
                "end_time": 124.1772727,
                "pitch": 37,
                "velocity": 64,
                "duration": 0.0840909,
                "tempo": 120.0
            },
            {
                "start_time": 124.1931818,
                "end_time": 124.275,
                "pitch": 39,
                "velocity": 64,
                "duration": 0.0818182,
                "tempo": 120.0
            },
            {
                "start_time": 124.2909091,
                "end_time": 124.3727273,
                "pitch": 37,
                "velocity": 64,
                "duration": 0.0818182,
                "tempo": 120.0
            },
            {
                "start_time": 124.3886364,
                "end_time": 124.4704545,
                "pitch": 39,
                "velocity": 64,
                "duration": 0.0818182,
                "tempo": 120.0
            },
            {
                "start_time": 124.4886364,
                "end_time": 124.5704545,
                "pitch": 30,
                "velocity": 64,
                "duration": 0.0818182,
                "tempo": 120.0
            },
            {
                "start_time": 124.6795455,
                "end_time": 124.7568182,
                "pitch": 42,
                "velocity": 64,
                "duration": 0.0772727,
                "tempo": 120.0
            },
            {
                "start_time": 124.7727273,
                "end_time": 124.85,
                "pitch": 44,
                "velocity": 64,
                "duration": 0.0772727,
                "tempo": 120.0
            },
            {
                "start_time": 124.8659091,
                "end_time": 124.9431818,
                "pitch": 44,
                "velocity": 64,
                "duration": 0.0772727,
                "tempo": 120.0
            },
            {
                "start_time": 124.9590909,
                "end_time": 125.0409091,
                "pitch": 40,
                "velocity": 64,
                "duration": 0.0818182,
                "tempo": 120.0
            },
            {
                "start_time": 125.0590909,
                "end_time": 125.1431818,
                "pitch": 42,
                "velocity": 64,
                "duration": 0.0840909,
                "tempo": 120.0
            },
            {
                "start_time": 125.1590909,
                "end_time": 125.2431818,
                "pitch": 37,
                "velocity": 64,
                "duration": 0.0840909,
                "tempo": 120.0
            },
            {
                "start_time": 125.2590909,
                "end_time": 125.3431818,
                "pitch": 40,
                "velocity": 64,
                "duration": 0.0840909,
                "tempo": 120.0
            },
            {
                "start_time": 125.3590909,
                "end_time": 125.6386364,
                "pitch": 31,
                "velocity": 64,
                "duration": 0.2795455,
                "tempo": 120.0
            },
            {
                "start_time": 125.6545455,
                "end_time": 125.7363636,
                "pitch": 43,
                "velocity": 64,
                "duration": 0.0818182,
                "tempo": 120.0
            },
            {
                "start_time": 125.7522727,
                "end_time": 125.8363636,
                "pitch": 33,
                "velocity": 64,
                "duration": 0.0840909,
                "tempo": 120.0
            },
            {
                "start_time": 125.8522727,
                "end_time": 125.9363636,
                "pitch": 31,
                "velocity": 64,
                "duration": 0.0840909,
                "tempo": 120.0
            },
            {
                "start_time": 125.9522727,
                "end_time": 126.0363636,
                "pitch": 33,
                "velocity": 64,
                "duration": 0.0840909,
                "tempo": 120.0
            },
            {
                "start_time": 126.0522727,
                "end_time": 126.1363636,
                "pitch": 34,
                "velocity": 64,
                "duration": 0.0840909,
                "tempo": 120.0
            },
            {
                "start_time": 126.2454545,
                "end_time": 126.3227273,
                "pitch": 36,
                "velocity": 64,
                "duration": 0.0772727,
                "tempo": 120.0
            },
            {
                "start_time": 126.3386364,
                "end_time": 126.4159091,
                "pitch": 38,
                "velocity": 64,
                "duration": 0.0772727,
                "tempo": 120.0
            },
            {
                "start_time": 126.4318182,
                "end_time": 126.5090909,
                "pitch": 43,
                "velocity": 64,
                "duration": 0.0772727,
                "tempo": 120.0
            },
            {
                "start_time": 126.6227273,
                "end_time": 126.7068182,
                "pitch": 34,
                "velocity": 64,
                "duration": 0.0840909,
                "tempo": 120.0
            },
            {
                "start_time": 126.7227273,
                "end_time": 126.8045455,
                "pitch": 36,
                "velocity": 64,
                "duration": 0.0818182,
                "tempo": 120.0
            },
            {
                "start_time": 126.8204545,
                "end_time": 126.9022727,
                "pitch": 48,
                "velocity": 64,
                "duration": 0.0818182,
                "tempo": 120.0
            },
            {
                "start_time": 126.9181818,
                "end_time": 127.1977273,
                "pitch": 31,
                "velocity": 64,
                "duration": 0.2795455,
                "tempo": 120.0
            },
            {
                "start_time": 127.2136364,
                "end_time": 127.2954545,
                "pitch": 31,
                "velocity": 64,
                "duration": 0.0818182,
                "tempo": 120.0
            },
            {
                "start_time": 127.3113636,
                "end_time": 127.3977273,
                "pitch": 33,
                "velocity": 64,
                "duration": 0.0863636,
                "tempo": 120.0
            },
            {
                "start_time": 127.4136364,
                "end_time": 127.5,
                "pitch": 31,
                "velocity": 64,
                "duration": 0.0863636,
                "tempo": 120.0
            },
            {
                "start_time": 127.5181818,
                "end_time": 127.6022727,
                "pitch": 33,
                "velocity": 64,
                "duration": 0.0840909,
                "tempo": 120.0
            },
            {
                "start_time": 127.6204545,
                "end_time": 127.7068182,
                "pitch": 24,
                "velocity": 64,
                "duration": 0.0863636,
                "tempo": 120.0
            },
            {
                "start_time": 127.8181818,
                "end_time": 127.8977273,
                "pitch": 36,
                "velocity": 64,
                "duration": 0.0795455,
                "tempo": 120.0
            },
            {
                "start_time": 127.9136364,
                "end_time": 127.9931818,
                "pitch": 38,
                "velocity": 64,
                "duration": 0.0795455,
                "tempo": 120.0
            },
            {
                "start_time": 128.0090909,
                "end_time": 128.0886364,
                "pitch": 38,
                "velocity": 64,
                "duration": 0.0795455,
                "tempo": 120.0
            },
            {
                "start_time": 128.1068182,
                "end_time": 128.1886364,
                "pitch": 34,
                "velocity": 64,
                "duration": 0.0818182,
                "tempo": 120.0
            },
            {
                "start_time": 128.2045455,
                "end_time": 128.2863636,
                "pitch": 36,
                "velocity": 64,
                "duration": 0.0818182,
                "tempo": 120.0
            },
            {
                "start_time": 128.3022727,
                "end_time": 128.3840909,
                "pitch": 31,
                "velocity": 64,
                "duration": 0.0818182,
                "tempo": 120.0
            },
            {
                "start_time": 128.4,
                "end_time": 128.4840909,
                "pitch": 34,
                "velocity": 64,
                "duration": 0.0840909,
                "tempo": 120.0
            }
        ],
        "Harpsichord": [
            {
                "start_time": 0.0113636,
                "end_time": 0.0772727,
                "pitch": 61,
                "velocity": 64,
                "duration": 0.0659091,
                "tempo": 120.0
            },
            {
                "start_time": 0.0931818,
                "end_time": 0.175,
                "pitch": 66,
                "velocity": 64,
                "duration": 0.0818182,
                "tempo": 120.0
            },
            {
                "start_time": 0.1909091,
                "end_time": 0.2727273,
                "pitch": 71,
                "velocity": 64,
                "duration": 0.0818182,
                "tempo": 120.0
            },
            {
                "start_time": 0.2886364,
                "end_time": 0.3704545,
                "pitch": 73,
                "velocity": 64,
                "duration": 0.0818182,
                "tempo": 120.0
            },
            {
                "start_time": 0.3863636,
                "end_time": 0.4681818,
                "pitch": 76,
                "velocity": 64,
                "duration": 0.0818182,
                "tempo": 120.0
            },
            {
                "start_time": 0.4840909,
                "end_time": 0.5659091,
                "pitch": 73,
                "velocity": 64,
                "duration": 0.0818182,
                "tempo": 120.0
            },
            {
                "start_time": 0.5818182,
                "end_time": 0.6636364,
                "pitch": 71,
                "velocity": 64,
                "duration": 0.0818182,
                "tempo": 120.0
            },
            {
                "start_time": 0.6795455,
                "end_time": 0.7613636,
                "pitch": 66,
                "velocity": 64,
                "duration": 0.0818182,
                "tempo": 120.0
            },
            {
                "start_time": 0.7772727,
                "end_time": 0.8590909,
                "pitch": 61,
                "velocity": 64,
                "duration": 0.0818182,
                "tempo": 120.0
            },
            {
                "start_time": 0.875,
                "end_time": 0.9568182,
                "pitch": 66,
                "velocity": 64,
                "duration": 0.0818182,
                "tempo": 120.0
            },
            {
                "start_time": 0.9727273,
                "end_time": 1.0545455,
                "pitch": 71,
                "velocity": 64,
                "duration": 0.0818182,
                "tempo": 120.0
            },
            {
                "start_time": 1.0727273,
                "end_time": 1.1545455,
                "pitch": 73,
                "velocity": 64,
                "duration": 0.0818182,
                "tempo": 120.0
            },
            {
                "start_time": 1.1704545,
                "end_time": 1.2522727,
                "pitch": 78,
                "velocity": 64,
                "duration": 0.0818182,
                "tempo": 120.0
            },
            {
                "start_time": 1.2681818,
                "end_time": 1.35,
                "pitch": 73,
                "velocity": 64,
                "duration": 0.0818182,
                "tempo": 120.0
            },
            {
                "start_time": 1.3659091,
                "end_time": 1.4477273,
                "pitch": 71,
                "velocity": 64,
                "duration": 0.0818182,
                "tempo": 120.0
            },
            {
                "start_time": 1.4636364,
                "end_time": 1.5454545,
                "pitch": 66,
                "velocity": 64,
                "duration": 0.0818182,
                "tempo": 120.0
            },
            {
                "start_time": 1.5636364,
                "end_time": 1.7386364,
                "pitch": 61,
                "velocity": 64,
                "duration": 0.175,
                "tempo": 120.0
            },
            {
                "start_time": 1.775,
                "end_time": 1.9590909,
                "pitch": 66,
                "velocity": 64,
                "duration": 0.1840909,
                "tempo": 120.0
            },
            {
                "start_time": 1.9954545,
                "end_time": 2.1772727,
                "pitch": 71,
                "velocity": 64,
                "duration": 0.1818182,
                "tempo": 120.0
            },
            {
                "start_time": 2.2136364,
                "end_time": 2.3954545,
                "pitch": 73,
                "velocity": 64,
                "duration": 0.1818182,
                "tempo": 120.0
            },
            {
                "start_time": 2.4318182,
                "end_time": 2.6136364,
                "pitch": 76,
                "velocity": 64,
                "duration": 0.1818182,
                "tempo": 120.0
            },
            {
                "start_time": 2.65,
                "end_time": 2.8318182,
                "pitch": 73,
                "velocity": 64,
                "duration": 0.1818182,
                "tempo": 120.0
            },
            {
                "start_time": 2.8681818,
                "end_time": 3.05,
                "pitch": 71,
                "velocity": 64,
                "duration": 0.1818182,
                "tempo": 120.0
            },
            {
                "start_time": 3.0863636,
                "end_time": 3.2681818,
                "pitch": 66,
                "velocity": 64,
                "duration": 0.1818182,
                "tempo": 120.0
            },
            {
                "start_time": 3.3045455,
                "end_time": 3.4681818,
                "pitch": 61,
                "velocity": 64,
                "duration": 0.1636364,
                "tempo": 120.0
            },
            {
                "start_time": 3.5022727,
                "end_time": 3.6636364,
                "pitch": 66,
                "velocity": 64,
                "duration": 0.1613636,
                "tempo": 120.0
            },
            {
                "start_time": 3.6954545,
                "end_time": 3.8590909,
                "pitch": 71,
                "velocity": 64,
                "duration": 0.1636364,
                "tempo": 120.0
            },
            {
                "start_time": 3.8909091,
                "end_time": 4.0545455,
                "pitch": 73,
                "velocity": 64,
                "duration": 0.1636364,
                "tempo": 120.0
            },
            {
                "start_time": 4.0863636,
                "end_time": 4.25,
                "pitch": 78,
                "velocity": 64,
                "duration": 0.1636364,
                "tempo": 120.0
            },
            {
                "start_time": 4.2818182,
                "end_time": 4.4431818,
                "pitch": 73,
                "velocity": 64,
                "duration": 0.1613636,
                "tempo": 120.0
            },
            {
                "start_time": 4.4772727,
                "end_time": 4.6386364,
                "pitch": 71,
                "velocity": 64,
                "duration": 0.1613636,
                "tempo": 120.0
            },
            {
                "start_time": 4.6727273,
                "end_time": 4.8340909,
                "pitch": 66,
                "velocity": 64,
                "duration": 0.1613636,
                "tempo": 120.0
            },
            {
                "start_time": 4.8681818,
                "end_time": 5.0318182,
                "pitch": 61,
                "velocity": 64,
                "duration": 0.1636364,
                "tempo": 120.0
            },
            {
                "start_time": 5.0636364,
                "end_time": 5.2295455,
                "pitch": 66,
                "velocity": 64,
                "duration": 0.1659091,
                "tempo": 120.0
            },
            {
                "start_time": 5.2636364,
                "end_time": 5.4272727,
                "pitch": 71,
                "velocity": 64,
                "duration": 0.1636364,
                "tempo": 120.0
            },
            {
                "start_time": 5.4613636,
                "end_time": 5.625,
                "pitch": 73,
                "velocity": 64,
                "duration": 0.1636364,
                "tempo": 120.0
            },
            {
                "start_time": 5.6590909,
                "end_time": 5.8227273,
                "pitch": 76,
                "velocity": 64,
                "duration": 0.1636364,
                "tempo": 120.0
            },
            {
                "start_time": 5.8568182,
                "end_time": 6.0204545,
                "pitch": 73,
                "velocity": 64,
                "duration": 0.1636364,
                "tempo": 120.0
            },
            {
                "start_time": 6.0545455,
                "end_time": 6.2181818,
                "pitch": 71,
                "velocity": 64,
                "duration": 0.1636364,
                "tempo": 120.0
            },
            {
                "start_time": 6.2522727,
                "end_time": 6.4159091,
                "pitch": 66,
                "velocity": 64,
                "duration": 0.1636364,
                "tempo": 120.0
            },
            {
                "start_time": 6.4477273,
                "end_time": 6.6090909,
                "pitch": 61,
                "velocity": 64,
                "duration": 0.1613636,
                "tempo": 120.0
            },
            {
                "start_time": 6.6409091,
                "end_time": 6.8022727,
                "pitch": 66,
                "velocity": 64,
                "duration": 0.1613636,
                "tempo": 120.0
            },
            {
                "start_time": 6.8340909,
                "end_time": 6.9931818,
                "pitch": 71,
                "velocity": 64,
                "duration": 0.1590909,
                "tempo": 120.0
            },
            {
                "start_time": 7.025,
                "end_time": 7.1863636,
                "pitch": 73,
                "velocity": 64,
                "duration": 0.1613636,
                "tempo": 120.0
            },
            {
                "start_time": 7.2181818,
                "end_time": 7.3795455,
                "pitch": 78,
                "velocity": 64,
                "duration": 0.1613636,
                "tempo": 120.0
            },
            {
                "start_time": 7.4113636,
                "end_time": 7.5727273,
                "pitch": 73,
                "velocity": 64,
                "duration": 0.1613636,
                "tempo": 120.0
            },
            {
                "start_time": 7.6045455,
                "end_time": 7.7636364,
                "pitch": 71,
                "velocity": 64,
                "duration": 0.1590909,
                "tempo": 120.0
            },
            {
                "start_time": 7.7954545,
                "end_time": 7.9568182,
                "pitch": 66,
                "velocity": 64,
                "duration": 0.1613636,
                "tempo": 120.0
            },
            {
                "start_time": 7.9886364,
                "end_time": 8.1545455,
                "pitch": 61,
                "velocity": 64,
                "duration": 0.1659091,
                "tempo": 120.0
            },
            {
                "start_time": 8.1863636,
                "end_time": 8.3522727,
                "pitch": 66,
                "velocity": 64,
                "duration": 0.1659091,
                "tempo": 120.0
            },
            {
                "start_time": 8.3840909,
                "end_time": 8.55,
                "pitch": 71,
                "velocity": 64,
                "duration": 0.1659091,
                "tempo": 120.0
            },
            {
                "start_time": 8.5818182,
                "end_time": 8.7477273,
                "pitch": 73,
                "velocity": 64,
                "duration": 0.1659091,
                "tempo": 120.0
            },
            {
                "start_time": 8.7795455,
                "end_time": 8.9454545,
                "pitch": 76,
                "velocity": 64,
                "duration": 0.1659091,
                "tempo": 120.0
            },
            {
                "start_time": 8.9772727,
                "end_time": 9.1431818,
                "pitch": 73,
                "velocity": 64,
                "duration": 0.1659091,
                "tempo": 120.0
            },
            {
                "start_time": 9.175,
                "end_time": 9.3409091,
                "pitch": 71,
                "velocity": 64,
                "duration": 0.1659091,
                "tempo": 120.0
            },
            {
                "start_time": 9.3727273,
                "end_time": 9.5386364,
                "pitch": 66,
                "velocity": 64,
                "duration": 0.1659091,
                "tempo": 120.0
            },
            {
                "start_time": 9.5704545,
                "end_time": 9.7386364,
                "pitch": 61,
                "velocity": 64,
                "duration": 0.1681818,
                "tempo": 120.0
            },
            {
                "start_time": 9.7704545,
                "end_time": 9.9386364,
                "pitch": 66,
                "velocity": 64,
                "duration": 0.1681818,
                "tempo": 120.0
            },
            {
                "start_time": 9.9727273,
                "end_time": 10.1386364,
                "pitch": 71,
                "velocity": 64,
                "duration": 0.1659091,
                "tempo": 120.0
            },
            {
                "start_time": 10.1727273,
                "end_time": 10.3386364,
                "pitch": 73,
                "velocity": 64,
                "duration": 0.1659091,
                "tempo": 120.0
            },
            {
                "start_time": 10.3727273,
                "end_time": 10.5409091,
                "pitch": 78,
                "velocity": 64,
                "duration": 0.1681818,
                "tempo": 120.0
            },
            {
                "start_time": 10.5727273,
                "end_time": 10.7409091,
                "pitch": 73,
                "velocity": 64,
                "duration": 0.1681818,
                "tempo": 120.0
            },
            {
                "start_time": 10.7727273,
                "end_time": 10.9409091,
                "pitch": 71,
                "velocity": 64,
                "duration": 0.1681818,
                "tempo": 120.0
            },
            {
                "start_time": 10.975,
                "end_time": 11.1409091,
                "pitch": 66,
                "velocity": 64,
                "duration": 0.1659091,
                "tempo": 120.0
            },
            {
                "start_time": 11.175,
                "end_time": 11.3386364,
                "pitch": 61,
                "velocity": 64,
                "duration": 0.1636364,
                "tempo": 120.0
            },
            {
                "start_time": 11.3704545,
                "end_time": 11.5318182,
                "pitch": 66,
                "velocity": 64,
                "duration": 0.1613636,
                "tempo": 120.0
            },
            {
                "start_time": 11.5659091,
                "end_time": 11.7272727,
                "pitch": 71,
                "velocity": 64,
                "duration": 0.1613636,
                "tempo": 120.0
            },
            {
                "start_time": 11.7613636,
                "end_time": 11.9227273,
                "pitch": 73,
                "velocity": 64,
                "duration": 0.1613636,
                "tempo": 120.0
            },
            {
                "start_time": 11.9545455,
                "end_time": 12.1181818,
                "pitch": 76,
                "velocity": 64,
                "duration": 0.1636364,
                "tempo": 120.0
            },
            {
                "start_time": 12.15,
                "end_time": 12.3136364,
                "pitch": 73,
                "velocity": 64,
                "duration": 0.1636364,
                "tempo": 120.0
            },
            {
                "start_time": 12.3454545,
                "end_time": 12.5090909,
                "pitch": 71,
                "velocity": 64,
                "duration": 0.1636364,
                "tempo": 120.0
            },
            {
                "start_time": 12.5409091,
                "end_time": 12.6931818,
                "pitch": 66,
                "velocity": 64,
                "duration": 0.1522727,
                "tempo": 120.0
            },
            {
                "start_time": 12.7227273,
                "end_time": 12.8681818,
                "pitch": 61,
                "velocity": 64,
                "duration": 0.1454545,
                "tempo": 120.0
            },
            {
                "start_time": 12.8977273,
                "end_time": 13.0454545,
                "pitch": 66,
                "velocity": 64,
                "duration": 0.1477273,
                "tempo": 120.0
            },
            {
                "start_time": 13.075,
                "end_time": 13.2204545,
                "pitch": 71,
                "velocity": 64,
                "duration": 0.1454545,
                "tempo": 120.0
            },
            {
                "start_time": 13.25,
                "end_time": 13.3977273,
                "pitch": 73,
                "velocity": 64,
                "duration": 0.1477273,
                "tempo": 120.0
            },
            {
                "start_time": 13.4272727,
                "end_time": 13.575,
                "pitch": 78,
                "velocity": 64,
                "duration": 0.1477273,
                "tempo": 120.0
            },
            {
                "start_time": 13.6045455,
                "end_time": 13.75,
                "pitch": 73,
                "velocity": 64,
                "duration": 0.1454545,
                "tempo": 120.0
            },
            {
                "start_time": 13.7795455,
                "end_time": 13.9181818,
                "pitch": 71,
                "velocity": 64,
                "duration": 0.1386364,
                "tempo": 120.0
            },
            {
                "start_time": 13.9454545,
                "end_time": 14.0840909,
                "pitch": 66,
                "velocity": 64,
                "duration": 0.1386364,
                "tempo": 120.0
            },
            {
                "start_time": 14.1136364,
                "end_time": 14.2522727,
                "pitch": 61,
                "velocity": 64,
                "duration": 0.1386364,
                "tempo": 120.0
            },
            {
                "start_time": 14.2795455,
                "end_time": 14.4181818,
                "pitch": 66,
                "velocity": 64,
                "duration": 0.1386364,
                "tempo": 120.0
            },
            {
                "start_time": 14.4454545,
                "end_time": 14.5840909,
                "pitch": 71,
                "velocity": 64,
                "duration": 0.1386364,
                "tempo": 120.0
            },
            {
                "start_time": 14.6113636,
                "end_time": 14.75,
                "pitch": 73,
                "velocity": 64,
                "duration": 0.1386364,
                "tempo": 120.0
            },
            {
                "start_time": 14.7772727,
                "end_time": 14.9159091,
                "pitch": 76,
                "velocity": 64,
                "duration": 0.1386364,
                "tempo": 120.0
            },
            {
                "start_time": 14.9431818,
                "end_time": 15.0818182,
                "pitch": 73,
                "velocity": 64,
                "duration": 0.1386364,
                "tempo": 120.0
            },
            {
                "start_time": 15.1113636,
                "end_time": 15.25,
                "pitch": 71,
                "velocity": 64,
                "duration": 0.1386364,
                "tempo": 120.0
            },
            {
                "start_time": 15.2772727,
                "end_time": 15.4159091,
                "pitch": 66,
                "velocity": 64,
                "duration": 0.1386364,
                "tempo": 120.0
            },
            {
                "start_time": 15.4431818,
                "end_time": 15.5818182,
                "pitch": 61,
                "velocity": 64,
                "duration": 0.1386364,
                "tempo": 120.0
            },
            {
                "start_time": 15.6090909,
                "end_time": 15.7477273,
                "pitch": 66,
                "velocity": 64,
                "duration": 0.1386364,
                "tempo": 120.0
            },
            {
                "start_time": 15.775,
                "end_time": 15.9136364,
                "pitch": 71,
                "velocity": 64,
                "duration": 0.1386364,
                "tempo": 120.0
            },
            {
                "start_time": 15.9431818,
                "end_time": 16.0818182,
                "pitch": 73,
                "velocity": 64,
                "duration": 0.1386364,
                "tempo": 120.0
            },
            {
                "start_time": 16.1090909,
                "end_time": 16.2545455,
                "pitch": 78,
                "velocity": 64,
                "duration": 0.1454545,
                "tempo": 120.0
            },
            {
                "start_time": 16.2840909,
                "end_time": 16.4318182,
                "pitch": 73,
                "velocity": 64,
                "duration": 0.1477273,
                "tempo": 120.0
            },
            {
                "start_time": 16.4613636,
                "end_time": 16.6068182,
                "pitch": 71,
                "velocity": 64,
                "duration": 0.1454545,
                "tempo": 120.0
            },
            {
                "start_time": 16.6363636,
                "end_time": 16.7840909,
                "pitch": 66,
                "velocity": 64,
                "duration": 0.1477273,
                "tempo": 120.0
            },
            {
                "start_time": 16.8136364,
                "end_time": 16.9613636,
                "pitch": 61,
                "velocity": 64,
                "duration": 0.1477273,
                "tempo": 120.0
            },
            {
                "start_time": 16.9886364,
                "end_time": 17.1363636,
                "pitch": 66,
                "velocity": 64,
                "duration": 0.1477273,
                "tempo": 120.0
            },
            {
                "start_time": 17.1659091,
                "end_time": 17.3136364,
                "pitch": 71,
                "velocity": 64,
                "duration": 0.1477273,
                "tempo": 120.0
            },
            {
                "start_time": 17.3431818,
                "end_time": 17.4886364,
                "pitch": 73,
                "velocity": 64,
                "duration": 0.1454545,
                "tempo": 120.0
            },
            {
                "start_time": 17.5181818,
                "end_time": 17.6818182,
                "pitch": 76,
                "velocity": 64,
                "duration": 0.1636364,
                "tempo": 120.0
            },
            {
                "start_time": 17.7159091,
                "end_time": 17.8795455,
                "pitch": 73,
                "velocity": 64,
                "duration": 0.1636364,
                "tempo": 120.0
            },
            {
                "start_time": 17.9136364,
                "end_time": 18.0772727,
                "pitch": 71,
                "velocity": 64,
                "duration": 0.1636364,
                "tempo": 120.0
            },
            {
                "start_time": 18.1113636,
                "end_time": 18.275,
                "pitch": 66,
                "velocity": 64,
                "duration": 0.1636364,
                "tempo": 120.0
            },
            {
                "start_time": 18.3090909,
                "end_time": 18.4727273,
                "pitch": 61,
                "velocity": 64,
                "duration": 0.1636364,
                "tempo": 120.0
            },
            {
                "start_time": 18.5068182,
                "end_time": 18.6704545,
                "pitch": 66,
                "velocity": 64,
                "duration": 0.1636364,
                "tempo": 120.0
            },
            {
                "start_time": 18.7045455,
                "end_time": 18.8681818,
                "pitch": 71,
                "velocity": 64,
                "duration": 0.1636364,
                "tempo": 120.0
            },
            {
                "start_time": 18.9022727,
                "end_time": 19.0659091,
                "pitch": 73,
                "velocity": 64,
                "duration": 0.1636364,
                "tempo": 120.0
            },
            {
                "start_time": 19.1,
                "end_time": 19.2636364,
                "pitch": 78,
                "velocity": 64,
                "duration": 0.1636364,
                "tempo": 120.0
            },
            {
                "start_time": 19.2977273,
                "end_time": 19.4613636,
                "pitch": 73,
                "velocity": 64,
                "duration": 0.1636364,
                "tempo": 120.0
            },
            {
                "start_time": 19.4954545,
                "end_time": 19.6590909,
                "pitch": 71,
                "velocity": 64,
                "duration": 0.1636364,
                "tempo": 120.0
            },
            {
                "start_time": 19.6931818,
                "end_time": 19.8590909,
                "pitch": 66,
                "velocity": 64,
                "duration": 0.1659091,
                "tempo": 120.0
            },
            {
                "start_time": 19.8909091,
                "end_time": 20.0568182,
                "pitch": 61,
                "velocity": 64,
                "duration": 0.1659091,
                "tempo": 120.0
            },
            {
                "start_time": 20.0886364,
                "end_time": 20.2545455,
                "pitch": 66,
                "velocity": 64,
                "duration": 0.1659091,
                "tempo": 120.0
            },
            {
                "start_time": 20.2863636,
                "end_time": 20.4522727,
                "pitch": 71,
                "velocity": 64,
                "duration": 0.1659091,
                "tempo": 120.0
            },
            {
                "start_time": 20.4840909,
                "end_time": 20.65,
                "pitch": 73,
                "velocity": 64,
                "duration": 0.1659091,
                "tempo": 120.0
            },
            {
                "start_time": 20.6818182,
                "end_time": 20.8454545,
                "pitch": 76,
                "velocity": 64,
                "duration": 0.1636364,
                "tempo": 120.0
            },
            {
                "start_time": 20.8772727,
                "end_time": 21.0409091,
                "pitch": 73,
                "velocity": 64,
                "duration": 0.1636364,
                "tempo": 120.0
            },
            {
                "start_time": 21.0727273,
                "end_time": 21.2340909,
                "pitch": 71,
                "velocity": 64,
                "duration": 0.1613636,
                "tempo": 120.0
            },
            {
                "start_time": 21.2681818,
                "end_time": 21.4295455,
                "pitch": 66,
                "velocity": 64,
                "duration": 0.1613636,
                "tempo": 120.0
            },
            {
                "start_time": 21.4636364,
                "end_time": 21.625,
                "pitch": 61,
                "velocity": 64,
                "duration": 0.1613636,
                "tempo": 120.0
            },
            {
                "start_time": 21.6568182,
                "end_time": 21.8204545,
                "pitch": 66,
                "velocity": 64,
                "duration": 0.1636364,
                "tempo": 120.0
            },
            {
                "start_time": 21.8522727,
                "end_time": 22.0159091,
                "pitch": 71,
                "velocity": 64,
                "duration": 0.1636364,
                "tempo": 120.0
            },
            {
                "start_time": 22.0477273,
                "end_time": 22.2113636,
                "pitch": 73,
                "velocity": 64,
                "duration": 0.1636364,
                "tempo": 120.0
            },
            {
                "start_time": 22.2431818,
                "end_time": 22.4068182,
                "pitch": 78,
                "velocity": 64,
                "duration": 0.1636364,
                "tempo": 120.0
            },
            {
                "start_time": 22.4386364,
                "end_time": 22.6,
                "pitch": 73,
                "velocity": 64,
                "duration": 0.1613636,
                "tempo": 120.0
            },
            {
                "start_time": 22.6340909,
                "end_time": 22.7954545,
                "pitch": 71,
                "velocity": 64,
                "duration": 0.1613636,
                "tempo": 120.0
            },
            {
                "start_time": 22.8295455,
                "end_time": 22.9909091,
                "pitch": 66,
                "velocity": 64,
                "duration": 0.1613636,
                "tempo": 120.0
            },
            {
                "start_time": 23.0227273,
                "end_time": 23.1863636,
                "pitch": 61,
                "velocity": 64,
                "duration": 0.1636364,
                "tempo": 120.0
            },
            {
                "start_time": 23.2181818,
                "end_time": 23.3818182,
                "pitch": 66,
                "velocity": 64,
                "duration": 0.1636364,
                "tempo": 120.0
            },
            {
                "start_time": 23.4136364,
                "end_time": 23.5772727,
                "pitch": 71,
                "velocity": 64,
                "duration": 0.1636364,
                "tempo": 120.0
            },
            {
                "start_time": 23.6090909,
                "end_time": 23.7727273,
                "pitch": 73,
                "velocity": 64,
                "duration": 0.1636364,
                "tempo": 120.0
            },
            {
                "start_time": 23.8045455,
                "end_time": 23.9659091,
                "pitch": 76,
                "velocity": 64,
                "duration": 0.1613636,
                "tempo": 120.0
            },
            {
                "start_time": 24.0,
                "end_time": 24.1613636,
                "pitch": 73,
                "velocity": 64,
                "duration": 0.1613636,
                "tempo": 120.0
            },
            {
                "start_time": 24.1954545,
                "end_time": 24.3568182,
                "pitch": 71,
                "velocity": 64,
                "duration": 0.1613636,
                "tempo": 120.0
            },
            {
                "start_time": 24.3886364,
                "end_time": 24.5522727,
                "pitch": 66,
                "velocity": 64,
                "duration": 0.1636364,
                "tempo": 120.0
            },
            {
                "start_time": 24.5840909,
                "end_time": 24.7477273,
                "pitch": 61,
                "velocity": 64,
                "duration": 0.1636364,
                "tempo": 120.0
            },
            {
                "start_time": 24.7795455,
                "end_time": 24.9431818,
                "pitch": 66,
                "velocity": 64,
                "duration": 0.1636364,
                "tempo": 120.0
            },
            {
                "start_time": 24.975,
                "end_time": 25.1386364,
                "pitch": 71,
                "velocity": 64,
                "duration": 0.1636364,
                "tempo": 120.0
            },
            {
                "start_time": 25.1704545,
                "end_time": 25.3318182,
                "pitch": 73,
                "velocity": 64,
                "duration": 0.1613636,
                "tempo": 120.0
            },
            {
                "start_time": 25.3659091,
                "end_time": 25.5295455,
                "pitch": 78,
                "velocity": 64,
                "duration": 0.1636364,
                "tempo": 120.0
            },
            {
                "start_time": 25.5636364,
                "end_time": 25.7272727,
                "pitch": 73,
                "velocity": 64,
                "duration": 0.1636364,
                "tempo": 120.0
            },
            {
                "start_time": 25.7613636,
                "end_time": 25.925,
                "pitch": 71,
                "velocity": 64,
                "duration": 0.1636364,
                "tempo": 120.0
            },
            {
                "start_time": 25.9590909,
                "end_time": 26.1227273,
                "pitch": 66,
                "velocity": 64,
                "duration": 0.1636364,
                "tempo": 120.0
            },
            {
                "start_time": 26.1568182,
                "end_time": 26.3204545,
                "pitch": 61,
                "velocity": 64,
                "duration": 0.1636364,
                "tempo": 120.0
            },
            {
                "start_time": 26.3545455,
                "end_time": 26.5181818,
                "pitch": 66,
                "velocity": 64,
                "duration": 0.1636364,
                "tempo": 120.0
            },
            {
                "start_time": 26.5522727,
                "end_time": 26.7159091,
                "pitch": 71,
                "velocity": 64,
                "duration": 0.1636364,
                "tempo": 120.0
            },
            {
                "start_time": 26.75,
                "end_time": 26.9136364,
                "pitch": 73,
                "velocity": 64,
                "duration": 0.1636364,
                "tempo": 120.0
            },
            {
                "start_time": 26.9477273,
                "end_time": 27.1113636,
                "pitch": 76,
                "velocity": 64,
                "duration": 0.1636364,
                "tempo": 120.0
            },
            {
                "start_time": 27.1454545,
                "end_time": 27.3090909,
                "pitch": 73,
                "velocity": 64,
                "duration": 0.1636364,
                "tempo": 120.0
            },
            {
                "start_time": 27.3431818,
                "end_time": 27.5068182,
                "pitch": 71,
                "velocity": 64,
                "duration": 0.1636364,
                "tempo": 120.0
            },
            {
                "start_time": 27.5409091,
                "end_time": 27.7045455,
                "pitch": 66,
                "velocity": 64,
                "duration": 0.1636364,
                "tempo": 120.0
            },
            {
                "start_time": 27.7386364,
                "end_time": 27.9022727,
                "pitch": 61,
                "velocity": 64,
                "duration": 0.1636364,
                "tempo": 120.0
            },
            {
                "start_time": 27.9363636,
                "end_time": 28.1,
                "pitch": 66,
                "velocity": 64,
                "duration": 0.1636364,
                "tempo": 120.0
            },
            {
                "start_time": 28.1340909,
                "end_time": 28.2977273,
                "pitch": 71,
                "velocity": 64,
                "duration": 0.1636364,
                "tempo": 120.0
            },
            {
                "start_time": 28.3318182,
                "end_time": 28.4954545,
                "pitch": 73,
                "velocity": 64,
                "duration": 0.1636364,
                "tempo": 120.0
            },
            {
                "start_time": 28.5295455,
                "end_time": 28.6954545,
                "pitch": 78,
                "velocity": 64,
                "duration": 0.1659091,
                "tempo": 120.0
            },
            {
                "start_time": 28.7272727,
                "end_time": 28.8931818,
                "pitch": 73,
                "velocity": 64,
                "duration": 0.1659091,
                "tempo": 120.0
            },
            {
                "start_time": 28.925,
                "end_time": 29.0909091,
                "pitch": 71,
                "velocity": 64,
                "duration": 0.1659091,
                "tempo": 120.0
            },
            {
                "start_time": 29.1227273,
                "end_time": 29.2886364,
                "pitch": 66,
                "velocity": 64,
                "duration": 0.1659091,
                "tempo": 120.0
            },
            {
                "start_time": 29.3204545,
                "end_time": 29.4863636,
                "pitch": 73,
                "velocity": 64,
                "duration": 0.1659091,
                "tempo": 120.0
            },
            {
                "start_time": 29.5181818,
                "end_time": 29.6840909,
                "pitch": 76,
                "velocity": 64,
                "duration": 0.1659091,
                "tempo": 120.0
            },
            {
                "start_time": 29.7159091,
                "end_time": 30.0795455,
                "pitch": 83,
                "velocity": 64,
                "duration": 0.3636364,
                "tempo": 120.0
            },
            {
                "start_time": 30.1113636,
                "end_time": 30.4704545,
                "pitch": 82,
                "velocity": 64,
                "duration": 0.3590909,
                "tempo": 120.0
            },
            {
                "start_time": 30.5022727,
                "end_time": 30.6636364,
                "pitch": 78,
                "velocity": 64,
                "duration": 0.1613636,
                "tempo": 120.0
            },
            {
                "start_time": 30.6977273,
                "end_time": 31.0545455,
                "pitch": 80,
                "velocity": 64,
                "duration": 0.3568182,
                "tempo": 120.0
            },
            {
                "start_time": 31.0863636,
                "end_time": 31.4454545,
                "pitch": 73,
                "velocity": 64,
                "duration": 0.3590909,
                "tempo": 120.0
            },
            {
                "start_time": 31.4772727,
                "end_time": 31.6409091,
                "pitch": 73,
                "velocity": 64,
                "duration": 0.1636364,
                "tempo": 120.0
            },
            {
                "start_time": 31.6727273,
                "end_time": 31.8386364,
                "pitch": 76,
                "velocity": 64,
                "duration": 0.1659091,
                "tempo": 120.0
            },
            {
                "start_time": 31.8704545,
                "end_time": 32.0363636,
                "pitch": 73,
                "velocity": 64,
                "duration": 0.1659091,
                "tempo": 120.0
            },
            {
                "start_time": 32.0681818,
                "end_time": 32.2340909,
                "pitch": 76,
                "velocity": 64,
                "duration": 0.1659091,
                "tempo": 120.0
            },
            {
                "start_time": 32.2659091,
                "end_time": 32.4318182,
                "pitch": 78,
                "velocity": 64,
                "duration": 0.1659091,
                "tempo": 120.0
            },
            {
                "start_time": 32.4636364,
                "end_time": 32.6295455,
                "pitch": 73,
                "velocity": 64,
                "duration": 0.1659091,
                "tempo": 120.0
            },
            {
                "start_time": 32.6613636,
                "end_time": 32.8272727,
                "pitch": 76,
                "velocity": 64,
                "duration": 0.1659091,
                "tempo": 120.0
            },
            {
                "start_time": 32.8590909,
                "end_time": 33.2227273,
                "pitch": 83,
                "velocity": 64,
                "duration": 0.3636364,
                "tempo": 120.0
            },
            {
                "start_time": 33.2545455,
                "end_time": 33.6113636,
                "pitch": 82,
                "velocity": 64,
                "duration": 0.3568182,
                "tempo": 120.0
            },
            {
                "start_time": 33.6454545,
                "end_time": 33.8068182,
                "pitch": 78,
                "velocity": 64,
                "duration": 0.1613636,
                "tempo": 120.0
            },
            {
                "start_time": 33.8409091,
                "end_time": 34.1977273,
                "pitch": 80,
                "velocity": 64,
                "duration": 0.3568182,
                "tempo": 120.0
            },
            {
                "start_time": 34.2295455,
                "end_time": 34.3931818,
                "pitch": 73,
                "velocity": 64,
                "duration": 0.1636364,
                "tempo": 120.0
            },
            {
                "start_time": 35.6068182,
                "end_time": 35.7704545,
                "pitch": 73,
                "velocity": 64,
                "duration": 0.1636364,
                "tempo": 120.0
            },
            {
                "start_time": 35.8045455,
                "end_time": 35.9704545,
                "pitch": 76,
                "velocity": 64,
                "duration": 0.1659091,
                "tempo": 120.0
            },
            {
                "start_time": 36.0022727,
                "end_time": 36.3659091,
                "pitch": 83,
                "velocity": 64,
                "duration": 0.3636364,
                "tempo": 120.0
            },
            {
                "start_time": 36.3977273,
                "end_time": 36.7613636,
                "pitch": 82,
                "velocity": 64,
                "duration": 0.3636364,
                "tempo": 120.0
            },
            {
                "start_time": 36.7931818,
                "end_time": 36.9590909,
                "pitch": 78,
                "velocity": 64,
                "duration": 0.1659091,
                "tempo": 120.0
            },
            {
                "start_time": 36.9909091,
                "end_time": 37.3545455,
                "pitch": 80,
                "velocity": 64,
                "duration": 0.3636364,
                "tempo": 120.0
            },
            {
                "start_time": 37.3863636,
                "end_time": 37.75,
                "pitch": 73,
                "velocity": 64,
                "duration": 0.3636364,
                "tempo": 120.0
            },
            {
                "start_time": 37.7818182,
                "end_time": 37.9477273,
                "pitch": 73,
                "velocity": 64,
                "duration": 0.1659091,
                "tempo": 120.0
            },
            {
                "start_time": 37.9795455,
                "end_time": 38.1431818,
                "pitch": 76,
                "velocity": 64,
                "duration": 0.1636364,
                "tempo": 120.0
            },
            {
                "start_time": 38.175,
                "end_time": 38.3386364,
                "pitch": 73,
                "velocity": 64,
                "duration": 0.1636364,
                "tempo": 120.0
            },
            {
                "start_time": 38.3704545,
                "end_time": 38.5340909,
                "pitch": 76,
                "velocity": 64,
                "duration": 0.1636364,
                "tempo": 120.0
            },
            {
                "start_time": 38.5659091,
                "end_time": 38.7272727,
                "pitch": 78,
                "velocity": 64,
                "duration": 0.1613636,
                "tempo": 120.0
            },
            {
                "start_time": 38.7613636,
                "end_time": 38.9227273,
                "pitch": 73,
                "velocity": 64,
                "duration": 0.1613636,
                "tempo": 120.0
            },
            {
                "start_time": 38.9568182,
                "end_time": 39.1181818,
                "pitch": 76,
                "velocity": 64,
                "duration": 0.1613636,
                "tempo": 120.0
            },
            {
                "start_time": 39.15,
                "end_time": 39.5090909,
                "pitch": 83,
                "velocity": 64,
                "duration": 0.3590909,
                "tempo": 120.0
            },
            {
                "start_time": 39.5409091,
                "end_time": 39.9,
                "pitch": 82,
                "velocity": 64,
                "duration": 0.3590909,
                "tempo": 120.0
            },
            {
                "start_time": 39.9318182,
                "end_time": 40.0931818,
                "pitch": 78,
                "velocity": 64,
                "duration": 0.1613636,
                "tempo": 120.0
            },
            {
                "start_time": 40.1272727,
                "end_time": 40.4840909,
                "pitch": 80,
                "velocity": 64,
                "duration": 0.3568182,
                "tempo": 120.0
            },
            {
                "start_time": 40.5159091,
                "end_time": 40.6795455,
                "pitch": 73,
                "velocity": 64,
                "duration": 0.1636364,
                "tempo": 120.0
            }
        ]
    }
}