{
    "mood": "happy",
    "instruments": {
        "Lead 2 (sawtooth)": [
            {
                "start_time": 0.0431818,
                "end_time": 1.2727273,
                "pitch": 50,
                "velocity": 64,
                "duration": 1.2295455,
                "tempo": 120.0
            },
            {
                "start_time": 1.2727273,
                "end_time": 1.3227273,
                "pitch": 55,
                "velocity": 64,
                "duration": 0.05,
                "tempo": 120.0
            },
            {
                "start_time": 1.3227273,
                "end_time": 1.3886364,
                "pitch": 55,
                "velocity": 64,
                "duration": 0.0659091,
                "tempo": 120.0
            },
            {
                "start_time": 1.3886364,
                "end_time": 1.4568182,
                "pitch": 55,
                "velocity": 64,
                "duration": 0.0681818,
                "tempo": 120.0
            },
            {
                "start_time": 1.4568182,
                "end_time": 1.5227273,
                "pitch": 55,
                "velocity": 64,
                "duration": 0.0659091,
                "tempo": 120.0
            },
            {
                "start_time": 1.5227273,
                "end_time": 1.5886364,
                "pitch": 55,
                "velocity": 64,
                "duration": 0.0659091,
                "tempo": 120.0
            },
            {
                "start_time": 1.5886364,
                "end_time": 1.6545455,
                "pitch": 55,
                "velocity": 64,
                "duration": 0.0659091,
                "tempo": 120.0
            },
            {
                "start_time": 1.6545455,
                "end_time": 1.7181818,
                "pitch": 55,
                "velocity": 64,
                "duration": 0.0636364,
                "tempo": 120.0
            },
            {
                "start_time": 1.7181818,
                "end_time": 1.7840909,
                "pitch": 55,
                "velocity": 64,
                "duration": 0.0659091,
                "tempo": 120.0
            },
            {
                "start_time": 1.7840909,
                "end_time": 1.8477273,
                "pitch": 55,
                "velocity": 64,
                "duration": 0.0636364,
                "tempo": 120.0
            },
            {
                "start_time": 1.8477273,
                "end_time": 1.9159091,
                "pitch": 55,
                "velocity": 64,
                "duration": 0.0681818,
                "tempo": 120.0
            },
            {
                "start_time": 1.9159091,
                "end_time": 1.9818182,
                "pitch": 55,
                "velocity": 64,
                "duration": 0.0659091,
                "tempo": 120.0
            },
            {
                "start_time": 1.9818182,
                "end_time": 2.05,
                "pitch": 55,
                "velocity": 64,
                "duration": 0.0681818,
                "tempo": 120.0
            },
            {
                "start_time": 2.05,
                "end_time": 2.1159091,
                "pitch": 55,
                "velocity": 64,
                "duration": 0.0659091,
                "tempo": 120.0
            },
            {
                "start_time": 2.1159091,
                "end_time": 2.1840909,
                "pitch": 55,
                "velocity": 64,
                "duration": 0.0681818,
                "tempo": 120.0
            },
            {
                "start_time": 2.1840909,
                "end_time": 2.25,
                "pitch": 55,
                "velocity": 64,
                "duration": 0.0659091,
                "tempo": 120.0
            },
            {
                "start_time": 2.25,
                "end_time": 2.3159091,
                "pitch": 55,
                "velocity": 64,
                "duration": 0.0659091,
                "tempo": 120.0
            },
            {
                "start_time": 2.3159091,
                "end_time": 2.3840909,
                "pitch": 55,
                "velocity": 64,
                "duration": 0.0681818,
                "tempo": 120.0
            },
            {
                "start_time": 2.3840909,
                "end_time": 2.4659091,
                "pitch": 55,
                "velocity": 64,
                "duration": 0.0818182,
                "tempo": 120.0
            },
            {
                "start_time": 2.4659091,
                "end_time": 3.6704545,
                "pitch": 53,
                "velocity": 64,
                "duration": 1.2045455,
                "tempo": 120.0
            },
            {
                "start_time": 3.6704545,
                "end_time": 4.9,
                "pitch": 57,
                "velocity": 64,
                "duration": 1.2295455,
                "tempo": 120.0
            },
            {
                "start_time": 4.9,
                "end_time": 4.9522727,
                "pitch": 55,
                "velocity": 64,
                "duration": 0.0522727,
                "tempo": 120.0
            },
            {
                "start_time": 4.9522727,
                "end_time": 5.025,
                "pitch": 55,
                "velocity": 64,
                "duration": 0.0727273,
                "tempo": 120.0
            },
            {
                "start_time": 5.025,
                "end_time": 5.0954545,
                "pitch": 55,
                "velocity": 64,
                "duration": 0.0704545,
                "tempo": 120.0
            },
            {
                "start_time": 5.0954545,
                "end_time": 5.1659091,
                "pitch": 55,
                "velocity": 64,
                "duration": 0.0704545,
                "tempo": 120.0
            },
            {
                "start_time": 5.1659091,
                "end_time": 5.2363636,
                "pitch": 55,
                "velocity": 64,
                "duration": 0.0704545,
                "tempo": 120.0
            },
            {
                "start_time": 5.2363636,
                "end_time": 5.3022727,
                "pitch": 55,
                "velocity": 64,
                "duration": 0.0659091,
                "tempo": 120.0
            },
            {
                "start_time": 5.3022727,
                "end_time": 5.3704545,
                "pitch": 55,
                "velocity": 64,
                "duration": 0.0681818,
                "tempo": 120.0
            },
            {
                "start_time": 5.3704545,
                "end_time": 5.4363636,
                "pitch": 55,
                "velocity": 64,
                "duration": 0.0659091,
                "tempo": 120.0
            },
            {
                "start_time": 5.4363636,
                "end_time": 5.5022727,
                "pitch": 55,
                "velocity": 64,
                "duration": 0.0659091,
                "tempo": 120.0
            },
            {
                "start_time": 5.5022727,
                "end_time": 5.5681818,
                "pitch": 55,
                "velocity": 64,
                "duration": 0.0659091,
                "tempo": 120.0
            },
            {
                "start_time": 5.5681818,
                "end_time": 5.6318182,
                "pitch": 55,
                "velocity": 64,
                "duration": 0.0636364,
                "tempo": 120.0
            },
            {
                "start_time": 5.6318182,
                "end_time": 5.6977273,
                "pitch": 55,
                "velocity": 64,
                "duration": 0.0659091,
                "tempo": 120.0
            },
            {
                "start_time": 5.6977273,
                "end_time": 5.7613636,
                "pitch": 55,
                "velocity": 64,
                "duration": 0.0636364,
                "tempo": 120.0
            },
            {
                "start_time": 5.7613636,
                "end_time": 5.8272727,
                "pitch": 55,
                "velocity": 64,
                "duration": 0.0659091,
                "tempo": 120.0
            },
            {
                "start_time": 5.8272727,
                "end_time": 5.8954545,
                "pitch": 55,
                "velocity": 64,
                "duration": 0.0681818,
                "tempo": 120.0
            },
            {
                "start_time": 5.8954545,
                "end_time": 5.9613636,
                "pitch": 55,
                "velocity": 64,
                "duration": 0.0659091,
                "tempo": 120.0
            },
            {
                "start_time": 5.9613636,
                "end_time": 6.0272727,
                "pitch": 55,
                "velocity": 64,
                "duration": 0.0659091,
                "tempo": 120.0
            },
            {
                "start_time": 6.0272727,
                "end_time": 6.0954545,
                "pitch": 55,
                "velocity": 64,
                "duration": 0.0681818,
                "tempo": 120.0
            },
            {
                "start_time": 6.0954545,
                "end_time": 7.325,
                "pitch": 59,
                "velocity": 64,
                "duration": 1.2295455,
                "tempo": 120.0
            },
            {
                "start_time": 7.325,
                "end_time": 8.5090909,
                "pitch": 57,
                "velocity": 64,
                "duration": 1.1840909,
                "tempo": 120.0
            },
            {
                "start_time": 8.5090909,
                "end_time": 9.7477273,
                "pitch": 53,
                "velocity": 64,
                "duration": 1.2386364,
                "tempo": 120.0
            },
            {
                "start_time": 9.7477273,
                "end_time": 9.8,
                "pitch": 55,
                "velocity": 64,
                "duration": 0.0522727,
                "tempo": 120.0
            },
            {
                "start_time": 9.8,
                "end_time": 9.8727273,
                "pitch": 55,
                "velocity": 64,
                "duration": 0.0727273,
                "tempo": 120.0
            },
            {
                "start_time": 9.8727273,
                "end_time": 9.9431818,
                "pitch": 55,
                "velocity": 64,
                "duration": 0.0704545,
                "tempo": 120.0
            },
            {
                "start_time": 9.9431818,
                "end_time": 10.0136364,
                "pitch": 55,
                "velocity": 64,
                "duration": 0.0704545,
                "tempo": 120.0
            },
            {
                "start_time": 10.0136364,
                "end_time": 10.0818182,
                "pitch": 55,
                "velocity": 64,
                "duration": 0.0681818,
                "tempo": 120.0
            },
            {
                "start_time": 10.0818182,
                "end_time": 10.1477273,
                "pitch": 55,
                "velocity": 64,
                "duration": 0.0659091,
                "tempo": 120.0
            },
            {
                "start_time": 10.1477273,
                "end_time": 10.2113636,
                "pitch": 55,
                "velocity": 64,
                "duration": 0.0636364,
                "tempo": 120.0
            },
            {
                "start_time": 10.2113636,
                "end_time": 10.2772727,
                "pitch": 55,
                "velocity": 64,
                "duration": 0.0659091,
                "tempo": 120.0
            },
            {
                "start_time": 10.2772727,
                "end_time": 10.3409091,
                "pitch": 55,
                "velocity": 64,
                "duration": 0.0636364,
                "tempo": 120.0
            },
            {
                "start_time": 10.3409091,
                "end_time": 10.4090909,
                "pitch": 55,
                "velocity": 64,
                "duration": 0.0681818,
                "tempo": 120.0
            },
            {
                "start_time": 10.4090909,
                "end_time": 10.475,
                "pitch": 55,
                "velocity": 64,
                "duration": 0.0659091,
                "tempo": 120.0
            },
            {
                "start_time": 10.475,
                "end_time": 10.5409091,
                "pitch": 55,
                "velocity": 64,
                "duration": 0.0659091,
                "tempo": 120.0
            },
            {
                "start_time": 10.5409091,
                "end_time": 10.6090909,
                "pitch": 55,
                "velocity": 64,
                "duration": 0.0681818,
                "tempo": 120.0
            },
            {
                "start_time": 10.6090909,
                "end_time": 10.675,
                "pitch": 55,
                "velocity": 64,
                "duration": 0.0659091,
                "tempo": 120.0
            },
            {
                "start_time": 10.675,
                "end_time": 10.7454545,
                "pitch": 55,
                "velocity": 64,
                "duration": 0.0704545,
                "tempo": 120.0
            },
            {
                "start_time": 10.7454545,
                "end_time": 10.8136364,
                "pitch": 55,
                "velocity": 64,
                "duration": 0.0681818,
                "tempo": 120.0
            },
            {
                "start_time": 10.8136364,
                "end_time": 10.8840909,
                "pitch": 55,
                "velocity": 64,
                "duration": 0.0704545,
                "tempo": 120.0
            },
            {
                "start_time": 10.8840909,
                "end_time": 10.9681818,
                "pitch": 55,
                "velocity": 64,
                "duration": 0.0840909,
                "tempo": 120.0
            },
            {
                "start_time": 10.9681818,
                "end_time": 12.1727273,
                "pitch": 53,
                "velocity": 64,
                "duration": 1.2045455,
                "tempo": 120.0
            }
        ]
    }
}