{
    "mood": "happy",
    "instruments": {
        "Acoustic Guitar (nylon)": [
            {
                "start_time": 0.0727273,
                "end_time": 0.45,
                "pitch": 62,
                "velocity": 51,
                "duration": 0.3772727,
                "tempo": 120.0
            },
            {
                "start_time": 0.4659091,
                "end_time": 0.6272727,
                "pitch": 64,
                "velocity": 51,
                "duration": 0.1613636,
                "tempo": 120.0
            },
            {
                "start_time": 0.6272727,
                "end_time": 0.8159091,
                "pitch": 64,
                "velocity": 51,
                "duration": 0.1886364,
                "tempo": 120.0
            },
            {
                "start_time": 0.8159091,
                "end_time": 1.0068182,
                "pitch": 65,
                "velocity": 51,
                "duration": 0.1909091,
                "tempo": 120.0
            },
            {
                "start_time": 1.0068182,
                "end_time": 1.2022727,
                "pitch": 62,
                "velocity": 51,
                "duration": 0.1954545,
                "tempo": 120.0
            },
            {
                "start_time": 1.2022727,
                "end_time": 1.5431818,
                "pitch": 69,
                "velocity": 51,
                "duration": 0.3409091,
                "tempo": 120.0
            },
            {
                "start_time": 1.5590909,
                "end_time": 1.7227273,
                "pitch": 69,
                "velocity": 51,
                "duration": 0.1636364,
                "tempo": 120.0
            },
            {
                "start_time": 1.7227273,
                "end_time": 1.9113636,
                "pitch": 71,
                "velocity": 51,
                "duration": 0.1886364,
                "tempo": 120.0
            },
            {
                "start_time": 1.9113636,
                "end_time": 2.1,
                "pitch": 72,
                "velocity": 51,
                "duration": 0.1886364,
                "tempo": 120.0
            },
            {
                "start_time": 2.1,
                "end_time": 2.3022727,
                "pitch": 71,
                "velocity": 51,
                "duration": 0.2022727,
                "tempo": 120.0
            },
            {
                "start_time": 2.3022727,
                "end_time": 4.4772727,
                "pitch": 69,
                "velocity": 51,
                "duration": 2.175,
                "tempo": 120.0
            },
            {
                "start_time": 4.4772727,
                "end_time": 4.8227273,
                "pitch": 62,
                "velocity": 51,
                "duration": 0.3454545,
                "tempo": 120.0
            },
            {
                "start_time": 4.8386364,
                "end_time": 5.0022727,
                "pitch": 64,
                "velocity": 51,
                "duration": 0.1636364,
                "tempo": 120.0
            },
            {
                "start_time": 5.0022727,
                "end_time": 5.1909091,
                "pitch": 64,
                "velocity": 51,
                "duration": 0.1886364,
                "tempo": 120.0
            },
            {
                "start_time": 5.1909091,
                "end_time": 5.3795455,
                "pitch": 65,
                "velocity": 51,
                "duration": 0.1886364,
                "tempo": 120.0
            },
            {
                "start_time": 5.3795455,
                "end_time": 5.575,
                "pitch": 62,
                "velocity": 51,
                "duration": 0.1954545,
                "tempo": 120.0
            },
            {
                "start_time": 5.575,
                "end_time": 5.9181818,
                "pitch": 69,
                "velocity": 51,
                "duration": 0.3431818,
                "tempo": 120.0
            },
            {
                "start_time": 5.9340909,
                "end_time": 6.0954545,
                "pitch": 69,
                "velocity": 51,
                "duration": 0.1613636,
                "tempo": 120.0
            },
            {
                "start_time": 6.0954545,
                "end_time": 6.2840909,
                "pitch": 71,
                "velocity": 51,
                "duration": 0.1886364,
                "tempo": 120.0
            },
            {
                "start_time": 6.2840909,
                "end_time": 6.475,
                "pitch": 72,
                "velocity": 51,
                "duration": 0.1909091,
                "tempo": 120.0
            },
            {
                "start_time": 6.475,
                "end_time": 6.675,
                "pitch": 71,
                "velocity": 51,
                "duration": 0.2,
                "tempo": 120.0
            },
            {
                "start_time": 6.675,
                "end_time": 8.85,
                "pitch": 74,
                "velocity": 51,
                "duration": 2.175,
                "tempo": 120.0
            },
            {
                "start_time": 8.85,
                "end_time": 9.1954545,
                "pitch": 62,
                "velocity": 51,
                "duration": 0.3454545,
                "tempo": 120.0
            },
            {
                "start_time": 9.1954545,
                "end_time": 9.3909091,
                "pitch": 62,
                "velocity": 51,
                "duration": 0.1954545,
                "tempo": 120.0
            },
            {
                "start_time": 9.3909091,
                "end_time": 9.5681818,
                "pitch": 63,
                "velocity": 51,
                "duration": 0.1772727,
                "tempo": 120.0
            },
            {
                "start_time": 9.5681818,
                "end_time": 9.7613636,
                "pitch": 65,
                "velocity": 51,
                "duration": 0.1931818,
                "tempo": 120.0
            },
            {
                "start_time": 9.7613636,
                "end_time": 9.9522727,
                "pitch": 63,
                "velocity": 51,
                "duration": 0.1909091,
                "tempo": 120.0
            },
            {
                "start_time": 9.9522727,
                "end_time": 10.2886364,
                "pitch": 60,
                "velocity": 51,
                "duration": 0.3363636,
                "tempo": 120.0
            },
            {
                "start_time": 10.2886364,
                "end_time": 11.3818182,
                "pitch": 55,
                "velocity": 51,
                "duration": 1.0931818,
                "tempo": 120.0
            },
            {
                "start_time": 11.3818182,
                "end_time": 11.5772727,
                "pitch": 65,
                "velocity": 51,
                "duration": 0.1954545,
                "tempo": 120.0
            },
            {
                "start_time": 11.5772727,
                "end_time": 11.7522727,
                "pitch": 67,
                "velocity": 51,
                "duration": 0.175,
                "tempo": 120.0
            },
            {
                "start_time": 11.7522727,
                "end_time": 11.9477273,
                "pitch": 65,
                "velocity": 51,
                "duration": 0.1954545,
                "tempo": 120.0
            },
            {
                "start_time": 11.9477273,
                "end_time": 12.1363636,
                "pitch": 65,
                "velocity": 51,
                "duration": 0.1886364,
                "tempo": 120.0
            },
            {
                "start_time": 12.1363636,
                "end_time": 12.475,
                "pitch": 60,
                "velocity": 51,
                "duration": 0.3386364,
                "tempo": 120.0
            },
            {
                "start_time": 12.475,
                "end_time": 13.2204545,
                "pitch": 67,
                "velocity": 51,
                "duration": 0.7454545,
                "tempo": 120.0
            },
            {
                "start_time": 13.2204545,
                "end_time": 13.5704545,
                "pitch": 67,
                "velocity": 51,
                "duration": 0.35,
                "tempo": 120.0
            },
            {
                "start_time": 13.5704545,
                "end_time": 13.7704545,
                "pitch": 67,
                "velocity": 51,
                "duration": 0.2,
                "tempo": 120.0
            },
            {
                "start_time": 13.7704545,
                "end_time": 13.9431818,
                "pitch": 69,
                "velocity": 51,
                "duration": 0.1727273,
                "tempo": 120.0
            },
            {
                "start_time": 13.9431818,
                "end_time": 14.1318182,
                "pitch": 70,
                "velocity": 51,
                "duration": 0.1886364,
                "tempo": 120.0
            },
            {
                "start_time": 14.1318182,
                "end_time": 14.3227273,
                "pitch": 69,
                "velocity": 51,
                "duration": 0.1909091,
                "tempo": 120.0
            },
            {
                "start_time": 14.3227273,
                "end_time": 14.6636364,
                "pitch": 70,
                "velocity": 51,
                "duration": 0.3409091,
                "tempo": 120.0
            },
            {
                "start_time": 14.6636364,
                "end_time": 14.8636364,
                "pitch": 72,
                "velocity": 51,
                "duration": 0.2,
                "tempo": 120.0
            },
            {
                "start_time": 14.8636364,
                "end_time": 15.0295455,
                "pitch": 72,
                "velocity": 51,
                "duration": 0.1659091,
                "tempo": 120.0
            },
            {
                "start_time": 15.0295455,
                "end_time": 15.2136364,
                "pitch": 74,
                "velocity": 51,
                "duration": 0.1840909,
                "tempo": 120.0
            },
            {
                "start_time": 15.2136364,
                "end_time": 15.4136364,
                "pitch": 70,
                "velocity": 51,
                "duration": 0.2,
                "tempo": 120.0
            },
            {
                "start_time": 15.4136364,
                "end_time": 15.9431818,
                "pitch": 74,
                "velocity": 51,
                "duration": 0.5295455,
                "tempo": 120.0
            },
            {
                "start_time": 15.9431818,
                "end_time": 16.4886364,
                "pitch": 74,
                "velocity": 51,
                "duration": 0.5454545,
                "tempo": 120.0
            },
            {
                "start_time": 16.4886364,
                "end_time": 16.5045455,
                "pitch": 72,
                "velocity": 51,
                "duration": 0.0159091,
                "tempo": 120.0
            },
            {
                "start_time": 16.5045455,
                "end_time": 17.0454545,
                "pitch": 69,
                "velocity": 51,
                "duration": 0.5409091,
                "tempo": 120.0
            },
            {
                "start_time": 17.0454545,
                "end_time": 17.6295455,
                "pitch": 66,
                "velocity": 51,
                "duration": 0.5840909,
                "tempo": 120.0
            },
            {
                "start_time": 17.6295455,
                "end_time": 17.6477273,
                "pitch": 62,
                "velocity": 51,
                "duration": 0.0181818,
                "tempo": 120.0
            }
        ],
        "Acoustic Bass": [
            {
                "start_time": 0.0727273,
                "end_time": 0.2704545,
                "pitch": 43,
                "velocity": 80,
                "duration": 0.1977273,
                "tempo": 120.0
            },
            {
                "start_time": 0.2704545,
                "end_time": 0.4659091,
                "pitch": 50,
                "velocity": 80,
                "duration": 0.1954545,
                "tempo": 120.0
            },
            {
                "start_time": 0.4659091,
                "end_time": 0.6454545,
                "pitch": 43,
                "velocity": 80,
                "duration": 0.1795455,
                "tempo": 120.0
            },
            {
                "start_time": 0.6454545,
                "end_time": 0.8159091,
                "pitch": 50,
                "velocity": 80,
                "duration": 0.1704545,
                "tempo": 120.0
            },
            {
                "start_time": 0.8159091,
                "end_time": 0.8340909,
                "pitch": 50,
                "velocity": 80,
                "duration": 0.0181818,
                "tempo": 120.0
            },
            {
                "start_time": 0.8340909,
                "end_time": 1.0068182,
                "pitch": 43,
                "velocity": 80,
                "duration": 0.1727273,
                "tempo": 120.0
            },
            {
                "start_time": 1.0068182,
                "end_time": 1.2022727,
                "pitch": 50,
                "velocity": 80,
                "duration": 0.1954545,
                "tempo": 120.0
            },
            {
                "start_time": 1.2022727,
                "end_time": 1.3636364,
                "pitch": 41,
                "velocity": 80,
                "duration": 0.1613636,
                "tempo": 120.0
            },
            {
                "start_time": 1.3636364,
                "end_time": 1.5590909,
                "pitch": 48,
                "velocity": 80,
                "duration": 0.1954545,
                "tempo": 120.0
            },
            {
                "start_time": 1.5590909,
                "end_time": 1.7386364,
                "pitch": 41,
                "velocity": 80,
                "duration": 0.1795455,
                "tempo": 120.0
            },
            {
                "start_time": 1.7386364,
                "end_time": 1.9113636,
                "pitch": 48,
                "velocity": 80,
                "duration": 0.1727273,
                "tempo": 120.0
            },
            {
                "start_time": 1.9113636,
                "end_time": 1.9295455,
                "pitch": 36,
                "velocity": 80,
                "duration": 0.0181818,
                "tempo": 120.0
            },
            {
                "start_time": 1.9295455,
                "end_time": 2.1181818,
                "pitch": 41,
                "velocity": 80,
                "duration": 0.1886364,
                "tempo": 120.0
            },
            {
                "start_time": 2.1181818,
                "end_time": 2.3022727,
                "pitch": 48,
                "velocity": 80,
                "duration": 0.1840909,
                "tempo": 120.0
            },
            {
                "start_time": 2.3022727,
                "end_time": 2.4681818,
                "pitch": 43,
                "velocity": 80,
                "duration": 0.1659091,
                "tempo": 120.0
            },
            {
                "start_time": 2.4681818,
                "end_time": 2.6477273,
                "pitch": 50,
                "velocity": 80,
                "duration": 0.1795455,
                "tempo": 120.0
            },
            {
                "start_time": 2.6477273,
                "end_time": 2.8272727,
                "pitch": 43,
                "velocity": 80,
                "duration": 0.1795455,
                "tempo": 120.0
            },
            {
                "start_time": 2.8272727,
                "end_time": 3.0090909,
                "pitch": 50,
                "velocity": 80,
                "duration": 0.1818182,
                "tempo": 120.0
            },
            {
                "start_time": 3.0090909,
                "end_time": 3.1931818,
                "pitch": 43,
                "velocity": 80,
                "duration": 0.1840909,
                "tempo": 120.0
            },
            {
                "start_time": 3.1931818,
                "end_time": 3.3727273,
                "pitch": 50,
                "velocity": 80,
                "duration": 0.1795455,
                "tempo": 120.0
            },
            {
                "start_time": 3.3727273,
                "end_time": 3.5522727,
                "pitch": 41,
                "velocity": 80,
                "duration": 0.1795455,
                "tempo": 120.0
            },
            {
                "start_time": 3.5522727,
                "end_time": 3.7295455,
                "pitch": 48,
                "velocity": 80,
                "duration": 0.1772727,
                "tempo": 120.0
            },
            {
                "start_time": 3.7295455,
                "end_time": 3.9090909,
                "pitch": 41,
                "velocity": 80,
                "duration": 0.1795455,
                "tempo": 120.0
            },
            {
                "start_time": 3.9090909,
                "end_time": 4.0931818,
                "pitch": 48,
                "velocity": 80,
                "duration": 0.1840909,
                "tempo": 120.0
            },
            {
                "start_time": 4.0931818,
                "end_time": 4.2772727,
                "pitch": 41,
                "velocity": 80,
                "duration": 0.1840909,
                "tempo": 120.0
            },
            {
                "start_time": 4.2772727,
                "end_time": 4.4772727,
                "pitch": 48,
                "velocity": 80,
                "duration": 0.2,
                "tempo": 120.0
            },
            {
                "start_time": 4.4772727,
                "end_time": 4.6431818,
                "pitch": 43,
                "velocity": 80,
                "duration": 0.1659091,
                "tempo": 120.0
            },
            {
                "start_time": 4.6431818,
                "end_time": 4.8386364,
                "pitch": 50,
                "velocity": 80,
                "duration": 0.1954545,
                "tempo": 120.0
            },
            {
                "start_time": 4.8386364,
                "end_time": 5.0181818,
                "pitch": 43,
                "velocity": 80,
                "duration": 0.1795455,
                "tempo": 120.0
            },
            {
                "start_time": 5.0181818,
                "end_time": 5.1909091,
                "pitch": 50,
                "velocity": 80,
                "duration": 0.1727273,
                "tempo": 120.0
            },
            {
                "start_time": 5.1909091,
                "end_time": 5.2068182,
                "pitch": 50,
                "velocity": 80,
                "duration": 0.0159091,
                "tempo": 120.0
            },
            {
                "start_time": 5.2068182,
                "end_time": 5.3795455,
                "pitch": 43,
                "velocity": 80,
                "duration": 0.1727273,
                "tempo": 120.0
            },
            {
                "start_time": 5.3795455,
                "end_time": 5.575,
                "pitch": 50,
                "velocity": 80,
                "duration": 0.1954545,
                "tempo": 120.0
            },
            {
                "start_time": 5.575,
                "end_time": 5.7386364,
                "pitch": 41,
                "velocity": 80,
                "duration": 0.1636364,
                "tempo": 120.0
            },
            {
                "start_time": 5.7386364,
                "end_time": 5.9340909,
                "pitch": 48,
                "velocity": 80,
                "duration": 0.1954545,
                "tempo": 120.0
            },
            {
                "start_time": 5.9340909,
                "end_time": 6.1136364,
                "pitch": 41,
                "velocity": 80,
                "duration": 0.1795455,
                "tempo": 120.0
            },
            {
                "start_time": 6.1136364,
                "end_time": 6.2840909,
                "pitch": 48,
                "velocity": 80,
                "duration": 0.1704545,
                "tempo": 120.0
            },
            {
                "start_time": 6.2840909,
                "end_time": 6.3022727,
                "pitch": 36,
                "velocity": 80,
                "duration": 0.0181818,
                "tempo": 120.0
            },
            {
                "start_time": 6.3022727,
                "end_time": 6.4909091,
                "pitch": 41,
                "velocity": 80,
                "duration": 0.1886364,
                "tempo": 120.0
            },
            {
                "start_time": 6.4909091,
                "end_time": 6.675,
                "pitch": 48,
                "velocity": 80,
                "duration": 0.1840909,
                "tempo": 120.0
            },
            {
                "start_time": 6.675,
                "end_time": 6.8409091,
                "pitch": 43,
                "velocity": 80,
                "duration": 0.1659091,
                "tempo": 120.0
            },
            {
                "start_time": 6.8409091,
                "end_time": 7.0204545,
                "pitch": 50,
                "velocity": 80,
                "duration": 0.1795455,
                "tempo": 120.0
            },
            {
                "start_time": 7.0204545,
                "end_time": 7.2,
                "pitch": 43,
                "velocity": 80,
                "duration": 0.1795455,
                "tempo": 120.0
            },
            {
                "start_time": 7.2,
                "end_time": 7.3795455,
                "pitch": 50,
                "velocity": 80,
                "duration": 0.1795455,
                "tempo": 120.0
            },
            {
                "start_time": 7.3795455,
                "end_time": 7.5590909,
                "pitch": 43,
                "velocity": 80,
                "duration": 0.1795455,
                "tempo": 120.0
            },
            {
                "start_time": 7.5590909,
                "end_time": 7.7409091,
                "pitch": 50,
                "velocity": 80,
                "duration": 0.1818182,
                "tempo": 120.0
            },
            {
                "start_time": 7.7409091,
                "end_time": 7.925,
                "pitch": 41,
                "velocity": 80,
                "duration": 0.1840909,
                "tempo": 120.0
            },
            {
                "start_time": 7.925,
                "end_time": 8.1045455,
                "pitch": 48,
                "velocity": 80,
                "duration": 0.1795455,
                "tempo": 120.0
            },
            {
                "start_time": 8.1045455,
                "end_time": 8.2840909,
                "pitch": 41,
                "velocity": 80,
                "duration": 0.1795455,
                "tempo": 120.0
            },
            {
                "start_time": 8.2840909,
                "end_time": 8.4659091,
                "pitch": 48,
                "velocity": 80,
                "duration": 0.1818182,
                "tempo": 120.0
            },
            {
                "start_time": 8.4659091,
                "end_time": 8.65,
                "pitch": 41,
                "velocity": 80,
                "duration": 0.1840909,
                "tempo": 120.0
            },
            {
                "start_time": 8.65,
                "end_time": 8.85,
                "pitch": 48,
                "velocity": 80,
                "duration": 0.2,
                "tempo": 120.0
            },
            {
                "start_time": 8.85,
                "end_time": 9.3909091,
                "pitch": 48,
                "velocity": 80,
                "duration": 0.5409091,
                "tempo": 120.0
            },
            {
                "start_time": 9.3909091,
                "end_time": 9.9522727,
                "pitch": 46,
                "velocity": 80,
                "duration": 0.5613636,
                "tempo": 120.0
            },
            {
                "start_time": 9.9522727,
                "end_time": 10.4681818,
                "pitch": 48,
                "velocity": 80,
                "duration": 0.5159091,
                "tempo": 120.0
            },
            {
                "start_time": 10.4681818,
                "end_time": 11.0181818,
                "pitch": 48,
                "velocity": 80,
                "duration": 0.55,
                "tempo": 120.0
            },
            {
                "start_time": 11.0340909,
                "end_time": 11.5772727,
                "pitch": 51,
                "velocity": 80,
                "duration": 0.5431818,
                "tempo": 120.0
            },
            {
                "start_time": 11.5772727,
                "end_time": 12.1363636,
                "pitch": 51,
                "velocity": 80,
                "duration": 0.5590909,
                "tempo": 120.0
            },
            {
                "start_time": 12.1363636,
                "end_time": 12.6522727,
                "pitch": 48,
                "velocity": 80,
                "duration": 0.5159091,
                "tempo": 120.0
            },
            {
                "start_time": 12.6522727,
                "end_time": 13.2204545,
                "pitch": 48,
                "velocity": 80,
                "duration": 0.5681818,
                "tempo": 120.0
            },
            {
                "start_time": 13.2204545,
                "end_time": 13.3863636,
                "pitch": 51,
                "velocity": 80,
                "duration": 0.1659091,
                "tempo": 120.0
            },
            {
                "start_time": 13.3863636,
                "end_time": 13.5863636,
                "pitch": 51,
                "velocity": 80,
                "duration": 0.2,
                "tempo": 120.0
            },
            {
                "start_time": 13.5863636,
                "end_time": 13.7704545,
                "pitch": 46,
                "velocity": 80,
                "duration": 0.1840909,
                "tempo": 120.0
            },
            {
                "start_time": 13.7704545,
                "end_time": 13.9431818,
                "pitch": 51,
                "velocity": 80,
                "duration": 0.1727273,
                "tempo": 120.0
            },
            {
                "start_time": 13.9431818,
                "end_time": 14.1318182,
                "pitch": 51,
                "velocity": 80,
                "duration": 0.1886364,
                "tempo": 120.0
            },
            {
                "start_time": 14.1318182,
                "end_time": 14.3227273,
                "pitch": 46,
                "velocity": 80,
                "duration": 0.1909091,
                "tempo": 120.0
            },
            {
                "start_time": 14.3227273,
                "end_time": 14.4795455,
                "pitch": 39,
                "velocity": 80,
                "duration": 0.1568182,
                "tempo": 120.0
            },
            {
                "start_time": 14.4795455,
                "end_time": 14.6795455,
                "pitch": 39,
                "velocity": 80,
                "duration": 0.2,
                "tempo": 120.0
            },
            {
                "start_time": 14.6795455,
                "end_time": 14.8636364,
                "pitch": 46,
                "velocity": 80,
                "duration": 0.1840909,
                "tempo": 120.0
            },
            {
                "start_time": 14.8636364,
                "end_time": 15.0295455,
                "pitch": 39,
                "velocity": 80,
                "duration": 0.1659091,
                "tempo": 120.0
            },
            {
                "start_time": 15.0295455,
                "end_time": 15.2136364,
                "pitch": 39,
                "velocity": 80,
                "duration": 0.1840909,
                "tempo": 120.0
            },
            {
                "start_time": 15.2295455,
                "end_time": 15.4136364,
                "pitch": 46,
                "velocity": 80,
                "duration": 0.1840909,
                "tempo": 120.0
            },
            {
                "start_time": 15.4136364,
                "end_time": 15.5795455,
                "pitch": 50,
                "velocity": 80,
                "duration": 0.1659091,
                "tempo": 120.0
            },
            {
                "start_time": 15.5795455,
                "end_time": 15.7545455,
                "pitch": 48,
                "velocity": 80,
                "duration": 0.175,
                "tempo": 120.0
            },
            {
                "start_time": 15.7545455,
                "end_time": 15.9431818,
                "pitch": 45,
                "velocity": 80,
                "duration": 0.1886364,
                "tempo": 120.0
            },
            {
                "start_time": 15.9431818,
                "end_time": 16.1204545,
                "pitch": 42,
                "velocity": 80,
                "duration": 0.1772727,
                "tempo": 120.0
            },
            {
                "start_time": 16.1204545,
                "end_time": 16.3136364,
                "pitch": 42,
                "velocity": 80,
                "duration": 0.1931818,
                "tempo": 120.0
            },
            {
                "start_time": 16.3136364,
                "end_time": 16.6636364,
                "pitch": 38,
                "velocity": 80,
                "duration": 0.35,
                "tempo": 120.0
            },
            {
                "start_time": 16.6636364,
                "end_time": 16.8454545,
                "pitch": 40,
                "velocity": 80,
                "duration": 0.1818182,
                "tempo": 120.0
            },
            {
                "start_time": 16.8454545,
                "end_time": 17.0454545,
                "pitch": 38,
                "velocity": 80,
                "duration": 0.2,
                "tempo": 120.0
            },
            {
                "start_time": 17.0454545,
                "end_time": 17.2340909,
                "pitch": 42,
                "velocity": 80,
                "duration": 0.1886364,
                "tempo": 120.0
            },
            {
                "start_time": 17.2340909,
                "end_time": 17.425,
                "pitch": 43,
                "velocity": 80,
                "duration": 0.1909091,
                "tempo": 120.0
            },
            {
                "start_time": 17.425,
                "end_time": 17.6295455,
                "pitch": 43,
                "velocity": 80,
                "duration": 0.2045455,
                "tempo": 120.0
            },
            {
                "start_time": 17.6295455,
                "end_time": 17.6477273,
                "pitch": 45,
                "velocity": 80,
                "duration": 0.0181818,
                "tempo": 120.0
            }
        ]
    }
}