{
    "mood": "happy",
    "instruments": {
        "Trumpet": [
            {
                "start_time": 0.0386364,
                "end_time": 0.2704545,
                "pitch": 58,
                "velocity": 64,
                "duration": 0.2318182,
                "tempo": 120.0
            },
            {
                "start_time": 0.3886364,
                "end_time": 0.6340909,
                "pitch": 58,
                "velocity": 64,
                "duration": 0.2454545,
                "tempo": 120.0
            },
            {
                "start_time": 0.7568182,
                "end_time": 0.9931818,
                "pitch": 57,
                "velocity": 64,
                "duration": 0.2363636,
                "tempo": 120.0
            },
            {
                "start_time": 1.1090909,
                "end_time": 1.3590909,
                "pitch": 53,
                "velocity": 64,
                "duration": 0.25,
                "tempo": 120.0
            },
            {
                "start_time": 1.4931818,
                "end_time": 1.7227273,
                "pitch": 55,
                "velocity": 64,
                "duration": 0.2295455,
                "tempo": 120.0
            },
            {
                "start_time": 1.8454545,
                "end_time": 1.9136364,
                "pitch": 53,
                "velocity": 64,
                "duration": 0.0681818,
                "tempo": 120.0
            },
            {
                "start_time": 2.0318182,
                "end_time": 2.2613636,
                "pitch": 55,
                "velocity": 64,
                "duration": 0.2295455,
                "tempo": 120.0
            },
            {
                "start_time": 2.3863636,
                "end_time": 2.4340909,
                "pitch": 52,
                "velocity": 64,
                "duration": 0.0477273,
                "tempo": 120.0
            },
            {
                "start_time": 2.5613636,
                "end_time": 2.5977273,
                "pitch": 52,
                "velocity": 64,
                "duration": 0.0363636,
                "tempo": 120.0
            },
            {
                "start_time": 2.725,
                "end_time": 2.7977273,
                "pitch": 55,
                "velocity": 64,
                "duration": 0.0727273,
                "tempo": 120.0
            },
            {
                "start_time": 2.9431818,
                "end_time": 3.1681818,
                "pitch": 58,
                "velocity": 64,
                "duration": 0.225,
                "tempo": 120.0
            },
            {
                "start_time": 3.2886364,
                "end_time": 3.5318182,
                "pitch": 58,
                "velocity": 64,
                "duration": 0.2431818,
                "tempo": 120.0
            },
            {
                "start_time": 3.6454545,
                "end_time": 3.8909091,
                "pitch": 57,
                "velocity": 64,
                "duration": 0.2454545,
                "tempo": 120.0
            },
            {
                "start_time": 4.0318182,
                "end_time": 4.2568182,
                "pitch": 53,
                "velocity": 64,
                "duration": 0.225,
                "tempo": 120.0
            },
            {
                "start_time": 4.3931818,
                "end_time": 4.6272727,
                "pitch": 55,
                "velocity": 64,
                "duration": 0.2340909,
                "tempo": 120.0
            },
            {
                "start_time": 4.7454545,
                "end_time": 4.7954545,
                "pitch": 53,
                "velocity": 64,
                "duration": 0.05,
                "tempo": 120.0
            },
            {
                "start_time": 4.9113636,
                "end_time": 5.1613636,
                "pitch": 55,
                "velocity": 64,
                "duration": 0.25,
                "tempo": 120.0
            },
            {
                "start_time": 5.2909091,
                "end_time": 5.3227273,
                "pitch": 53,
                "velocity": 64,
                "duration": 0.0318182,
                "tempo": 120.0
            },
            {
                "start_time": 5.4522727,
                "end_time": 5.5045455,
                "pitch": 55,
                "velocity": 64,
                "duration": 0.0522727,
                "tempo": 120.0
            },
            {
                "start_time": 5.6454545,
                "end_time": 5.7,
                "pitch": 53,
                "velocity": 64,
                "duration": 0.0545455,
                "tempo": 120.0
            },
            {
                "start_time": 5.8386364,
                "end_time": 7.1386364,
                "pitch": 55,
                "velocity": 64,
                "duration": 1.3,
                "tempo": 120.0
            },
            {
                "start_time": 7.4522727,
                "end_time": 7.5022727,
                "pitch": 62,
                "velocity": 64,
                "duration": 0.05,
                "tempo": 120.0
            },
            {
                "start_time": 7.6227273,
                "end_time": 7.6909091,
                "pitch": 62,
                "velocity": 64,
                "duration": 0.0681818,
                "tempo": 120.0
            },
            {
                "start_time": 7.825,
                "end_time": 7.875,
                "pitch": 62,
                "velocity": 64,
                "duration": 0.05,
                "tempo": 120.0
            },
            {
                "start_time": 8.0090909,
                "end_time": 8.0431818,
                "pitch": 62,
                "velocity": 64,
                "duration": 0.0340909,
                "tempo": 120.0
            },
            {
                "start_time": 8.1840909,
                "end_time": 8.2363636,
                "pitch": 62,
                "velocity": 64,
                "duration": 0.0522727,
                "tempo": 120.0
            },
            {
                "start_time": 8.3772727,
                "end_time": 8.4272727,
                "pitch": 62,
                "velocity": 64,
                "duration": 0.05,
                "tempo": 120.0
            },
            {
                "start_time": 8.5454545,
                "end_time": 8.5954545,
                "pitch": 62,
                "velocity": 64,
                "duration": 0.05,
                "tempo": 120.0
            },
            {
                "start_time": 8.7295455,
                "end_time": 8.9636364,
                "pitch": 58,
                "velocity": 64,
                "duration": 0.2340909,
                "tempo": 120.0
            },
            {
                "start_time": 9.0795455,
                "end_time": 9.3204545,
                "pitch": 58,
                "velocity": 64,
                "duration": 0.2409091,
                "tempo": 120.0
            },
            {
                "start_time": 9.4409091,
                "end_time": 9.675,
                "pitch": 57,
                "velocity": 64,
                "duration": 0.2340909,
                "tempo": 120.0
            },
            {
                "start_time": 9.7909091,
                "end_time": 10.0431818,
                "pitch": 53,
                "velocity": 64,
                "duration": 0.2522727,
                "tempo": 120.0
            },
            {
                "start_time": 10.175,
                "end_time": 10.4045455,
                "pitch": 55,
                "velocity": 64,
                "duration": 0.2295455,
                "tempo": 120.0
            },
            {
                "start_time": 10.5295455,
                "end_time": 10.5954545,
                "pitch": 53,
                "velocity": 64,
                "duration": 0.0659091,
                "tempo": 120.0
            },
            {
                "start_time": 10.7136364,
                "end_time": 10.9454545,
                "pitch": 55,
                "velocity": 64,
                "duration": 0.2318182,
                "tempo": 120.0
            },
            {
                "start_time": 11.075,
                "end_time": 11.125,
                "pitch": 52,
                "velocity": 64,
                "duration": 0.05,
                "tempo": 120.0
            },
            {
                "start_time": 11.2545455,
                "end_time": 11.2886364,
                "pitch": 52,
                "velocity": 64,
                "duration": 0.0340909,
                "tempo": 120.0
            },
            {
                "start_time": 11.4136364,
                "end_time": 11.4840909,
                "pitch": 55,
                "velocity": 64,
                "duration": 0.0704545,
                "tempo": 120.0
            },
            {
                "start_time": 11.625,
                "end_time": 11.8477273,
                "pitch": 58,
                "velocity": 64,
                "duration": 0.2227273,
                "tempo": 120.0
            },
            {
                "start_time": 11.9681818,
                "end_time": 12.2204545,
                "pitch": 58,
                "velocity": 64,
                "duration": 0.2522727,
                "tempo": 120.0
            },
            {
                "start_time": 12.3363636,
                "end_time": 12.5772727,
                "pitch": 57,
                "velocity": 64,
                "duration": 0.2409091,
                "tempo": 120.0
            },
            {
                "start_time": 12.7159091,
                "end_time": 12.9386364,
                "pitch": 53,
                "velocity": 64,
                "duration": 0.2227273,
                "tempo": 120.0
            },
            {
                "start_time": 13.0772727,
                "end_time": 13.3113636,
                "pitch": 55,
                "velocity": 64,
                "duration": 0.2340909,
                "tempo": 120.0
            },
            {
                "start_time": 13.4272727,
                "end_time": 13.4795455,
                "pitch": 53,
                "velocity": 64,
                "duration": 0.0522727,
                "tempo": 120.0
            },
            {
                "start_time": 13.6,
                "end_time": 13.8545455,
                "pitch": 55,
                "velocity": 64,
                "duration": 0.2545455,
                "tempo": 120.0
            },
            {
                "start_time": 13.9840909,
                "end_time": 14.0159091,
                "pitch": 55,
                "velocity": 64,
                "duration": 0.0318182,
                "tempo": 120.0
            },
            {
                "start_time": 14.1454545,
                "end_time": 14.1977273,
                "pitch": 62,
                "velocity": 64,
                "duration": 0.0522727,
                "tempo": 120.0
            },
            {
                "start_time": 14.3340909,
                "end_time": 14.3863636,
                "pitch": 55,
                "velocity": 64,
                "duration": 0.0522727,
                "tempo": 120.0
            },
            {
                "start_time": 14.525,
                "end_time": 17.2727273,
                "pitch": 55,
                "velocity": 64,
                "duration": 2.7477273,
                "tempo": 120.0
            },
            {
                "start_time": 17.4136364,
                "end_time": 18.35,
                "pitch": 55,
                "velocity": 64,
                "duration": 0.9363636,
                "tempo": 120.0
            },
            {
                "start_time": 18.4659091,
                "end_time": 18.725,
                "pitch": 55,
                "velocity": 64,
                "duration": 0.2590909,
                "tempo": 120.0
            },
            {
                "start_time": 18.8613636,
                "end_time": 19.6227273,
                "pitch": 57,
                "velocity": 64,
                "duration": 0.7613636,
                "tempo": 120.0
            },
            {
                "start_time": 19.7568182,
                "end_time": 19.8068182,
                "pitch": 58,
                "velocity": 64,
                "duration": 0.05,
                "tempo": 120.0
            },
            {
                "start_time": 19.9409091,
                "end_time": 19.975,
                "pitch": 60,
                "velocity": 64,
                "duration": 0.0340909,
                "tempo": 120.0
            },
            {
                "start_time": 20.1,
                "end_time": 20.1704545,
                "pitch": 62,
                "velocity": 64,
                "duration": 0.0704545,
                "tempo": 120.0
            },
            {
                "start_time": 20.3113636,
                "end_time": 21.2522727,
                "pitch": 60,
                "velocity": 64,
                "duration": 0.9409091,
                "tempo": 120.0
            },
            {
                "start_time": 21.3909091,
                "end_time": 21.6204545,
                "pitch": 57,
                "velocity": 64,
                "duration": 0.2295455,
                "tempo": 120.0
            },
            {
                "start_time": 21.7613636,
                "end_time": 22.5295455,
                "pitch": 53,
                "velocity": 64,
                "duration": 0.7681818,
                "tempo": 120.0
            },
            {
                "start_time": 22.6636364,
                "end_time": 22.6977273,
                "pitch": 53,
                "velocity": 64,
                "duration": 0.0340909,
                "tempo": 120.0
            },
            {
                "start_time": 22.8295455,
                "end_time": 22.8818182,
                "pitch": 55,
                "velocity": 64,
                "duration": 0.0522727,
                "tempo": 120.0
            },
            {
                "start_time": 23.0204545,
                "end_time": 23.0704545,
                "pitch": 55,
                "velocity": 64,
                "duration": 0.05,
                "tempo": 120.0
            },
            {
                "start_time": 23.2090909,
                "end_time": 24.5113636,
                "pitch": 59,
                "velocity": 64,
                "duration": 1.3022727,
                "tempo": 120.0
            },
            {
                "start_time": 24.8272727,
                "end_time": 24.8795455,
                "pitch": 62,
                "velocity": 64,
                "duration": 0.0522727,
                "tempo": 120.0
            },
            {
                "start_time": 25.0022727,
                "end_time": 25.0704545,
                "pitch": 62,
                "velocity": 64,
                "duration": 0.0681818,
                "tempo": 120.0
            },
            {
                "start_time": 25.2045455,
                "end_time": 25.2545455,
                "pitch": 62,
                "velocity": 64,
                "duration": 0.05,
                "tempo": 120.0
            },
            {
                "start_time": 25.3886364,
                "end_time": 25.4227273,
                "pitch": 62,
                "velocity": 64,
                "duration": 0.0340909,
                "tempo": 120.0
            },
            {
                "start_time": 25.5636364,
                "end_time": 25.6159091,
                "pitch": 62,
                "velocity": 64,
                "duration": 0.0522727,
                "tempo": 120.0
            },
            {
                "start_time": 25.7568182,
                "end_time": 25.8090909,
                "pitch": 62,
                "velocity": 64,
                "duration": 0.0522727,
                "tempo": 120.0
            },
            {
                "start_time": 25.925,
                "end_time": 25.975,
                "pitch": 62,
                "velocity": 64,
                "duration": 0.05,
                "tempo": 120.0
            },
            {
                "start_time": 26.1090909,
                "end_time": 26.3431818,
                "pitch": 67,
                "velocity": 64,
                "duration": 0.2340909,
                "tempo": 120.0
            },
            {
                "start_time": 26.4590909,
                "end_time": 26.7,
                "pitch": 65,
                "velocity": 64,
                "duration": 0.2409091,
                "tempo": 120.0
            },
            {
                "start_time": 26.8204545,
                "end_time": 27.0545455,
                "pitch": 62,
                "velocity": 64,
                "duration": 0.2340909,
                "tempo": 120.0
            },
            {
                "start_time": 27.1727273,
                "end_time": 27.4227273,
                "pitch": 60,
                "velocity": 64,
                "duration": 0.25,
                "tempo": 120.0
            },
            {
                "start_time": 27.5568182,
                "end_time": 27.5909091,
                "pitch": 67,
                "velocity": 64,
                "duration": 0.0340909,
                "tempo": 120.0
            },
            {
                "start_time": 27.7113636,
                "end_time": 27.7272727,
                "pitch": 55,
                "velocity": 64,
                "duration": 0.0159091,
                "tempo": 120.0
            },
            {
                "start_time": 27.7272727,
                "end_time": 27.9681818,
                "pitch": 65,
                "velocity": 64,
                "duration": 0.2409091,
                "tempo": 120.0
            },
            {
                "start_time": 28.0840909,
                "end_time": 28.3159091,
                "pitch": 62,
                "velocity": 64,
                "duration": 0.2318182,
                "tempo": 120.0
            },
            {
                "start_time": 28.4454545,
                "end_time": 28.4954545,
                "pitch": 60,
                "velocity": 64,
                "duration": 0.05,
                "tempo": 120.0
            },
            {
                "start_time": 28.625,
                "end_time": 28.6613636,
                "pitch": 58,
                "velocity": 64,
                "duration": 0.0363636,
                "tempo": 120.0
            },
            {
                "start_time": 28.7886364,
                "end_time": 28.8613636,
                "pitch": 55,
                "velocity": 64,
                "duration": 0.0727273,
                "tempo": 120.0
            },
            {
                "start_time": 29.0068182,
                "end_time": 29.2318182,
                "pitch": 67,
                "velocity": 64,
                "duration": 0.225,
                "tempo": 120.0
            },
            {
                "start_time": 29.3522727,
                "end_time": 29.5954545,
                "pitch": 65,
                "velocity": 64,
                "duration": 0.2431818,
                "tempo": 120.0
            },
            {
                "start_time": 29.7090909,
                "end_time": 29.9545455,
                "pitch": 62,
                "velocity": 64,
                "duration": 0.2454545,
                "tempo": 120.0
            },
            {
                "start_time": 30.0954545,
                "end_time": 30.3136364,
                "pitch": 60,
                "velocity": 64,
                "duration": 0.2181818,
                "tempo": 120.0
            },
            {
                "start_time": 30.4454545,
                "end_time": 30.4977273,
                "pitch": 67,
                "velocity": 64,
                "duration": 0.0522727,
                "tempo": 120.0
            },
            {
                "start_time": 30.6363636,
                "end_time": 30.8568182,
                "pitch": 65,
                "velocity": 64,
                "duration": 0.2204545,
                "tempo": 120.0
            },
            {
                "start_time": 30.9704545,
                "end_time": 31.2159091,
                "pitch": 62,
                "velocity": 64,
                "duration": 0.2454545,
                "tempo": 120.0
            },
            {
                "start_time": 31.3477273,
                "end_time": 31.3818182,
                "pitch": 60,
                "velocity": 64,
                "duration": 0.0340909,
                "tempo": 120.0
            },
            {
                "start_time": 31.5159091,
                "end_time": 31.5681818,
                "pitch": 58,
                "velocity": 64,
                "duration": 0.0522727,
                "tempo": 120.0
            },
            {
                "start_time": 31.7090909,
                "end_time": 31.7613636,
                "pitch": 55,
                "velocity": 64,
                "duration": 0.0522727,
                "tempo": 120.0
            }
        ],
        "Flute": [
            {
                "start_time": 0.0386364,
                "end_time": 0.2704545,
                "pitch": 70,
                "velocity": 64,
                "duration": 0.2318182,
                "tempo": 120.0
            },
            {
                "start_time": 0.3886364,
                "end_time": 0.6340909,
                "pitch": 70,
                "velocity": 64,
                "duration": 0.2454545,
                "tempo": 120.0
            },
            {
                "start_time": 0.775,
                "end_time": 0.825,
                "pitch": 67,
                "velocity": 64,
                "duration": 0.05,
                "tempo": 120.0
            },
            {
                "start_time": 0.825,
                "end_time": 0.9590909,
                "pitch": 67,
                "velocity": 64,
                "duration": 0.1340909,
                "tempo": 120.0
            },
            {
                "start_time": 0.9590909,
                "end_time": 0.9931818,
                "pitch": 67,
                "velocity": 64,
                "duration": 0.0340909,
                "tempo": 120.0
            },
            {
                "start_time": 1.125,
                "end_time": 1.3590909,
                "pitch": 65,
                "velocity": 64,
                "duration": 0.2340909,
                "tempo": 120.0
            },
            {
                "start_time": 1.4931818,
                "end_time": 1.5454545,
                "pitch": 67,
                "velocity": 64,
                "duration": 0.0522727,
                "tempo": 120.0
            },
            {
                "start_time": 1.5454545,
                "end_time": 1.6863636,
                "pitch": 67,
                "velocity": 64,
                "duration": 0.1409091,
                "tempo": 120.0
            },
            {
                "start_time": 1.6863636,
                "end_time": 1.7227273,
                "pitch": 67,
                "velocity": 64,
                "duration": 0.0363636,
                "tempo": 120.0
            },
            {
                "start_time": 1.8636364,
                "end_time": 1.9136364,
                "pitch": 65,
                "velocity": 64,
                "duration": 0.05,
                "tempo": 120.0
            },
            {
                "start_time": 2.0477273,
                "end_time": 2.0977273,
                "pitch": 67,
                "velocity": 64,
                "duration": 0.05,
                "tempo": 120.0
            },
            {
                "start_time": 2.0977273,
                "end_time": 2.2295455,
                "pitch": 67,
                "velocity": 64,
                "duration": 0.1318182,
                "tempo": 120.0
            },
            {
                "start_time": 2.2295455,
                "end_time": 2.2613636,
                "pitch": 67,
                "velocity": 64,
                "duration": 0.0318182,
                "tempo": 120.0
            },
            {
                "start_time": 2.3863636,
                "end_time": 2.4340909,
                "pitch": 64,
                "velocity": 64,
                "duration": 0.0477273,
                "tempo": 120.0
            },
            {
                "start_time": 2.5613636,
                "end_time": 2.5977273,
                "pitch": 64,
                "velocity": 64,
                "duration": 0.0363636,
                "tempo": 120.0
            },
            {
                "start_time": 2.7431818,
                "end_time": 2.7977273,
                "pitch": 67,
                "velocity": 64,
                "duration": 0.0545455,
                "tempo": 120.0
            },
            {
                "start_time": 2.9431818,
                "end_time": 3.1681818,
                "pitch": 70,
                "velocity": 64,
                "duration": 0.225,
                "tempo": 120.0
            },
            {
                "start_time": 3.2886364,
                "end_time": 3.5318182,
                "pitch": 70,
                "velocity": 64,
                "duration": 0.2431818,
                "tempo": 120.0
            },
            {
                "start_time": 3.6454545,
                "end_time": 3.7159091,
                "pitch": 67,
                "velocity": 64,
                "duration": 0.0704545,
                "tempo": 120.0
            },
            {
                "start_time": 3.7159091,
                "end_time": 3.8568182,
                "pitch": 67,
                "velocity": 64,
                "duration": 0.1409091,
                "tempo": 120.0
            },
            {
                "start_time": 3.8568182,
                "end_time": 3.8909091,
                "pitch": 67,
                "velocity": 64,
                "duration": 0.0340909,
                "tempo": 120.0
            },
            {
                "start_time": 4.0318182,
                "end_time": 4.2568182,
                "pitch": 65,
                "velocity": 64,
                "duration": 0.225,
                "tempo": 120.0
            },
            {
                "start_time": 4.3931818,
                "end_time": 4.4431818,
                "pitch": 67,
                "velocity": 64,
                "duration": 0.05,
                "tempo": 120.0
            },
            {
                "start_time": 4.4431818,
                "end_time": 4.5772727,
                "pitch": 67,
                "velocity": 64,
                "duration": 0.1340909,
                "tempo": 120.0
            },
            {
                "start_time": 4.5772727,
                "end_time": 4.6272727,
                "pitch": 67,
                "velocity": 64,
                "duration": 0.05,
                "tempo": 120.0
            },
            {
                "start_time": 4.7454545,
                "end_time": 4.7954545,
                "pitch": 65,
                "velocity": 64,
                "duration": 0.05,
                "tempo": 120.0
            },
            {
                "start_time": 4.9295455,
                "end_time": 4.9795455,
                "pitch": 67,
                "velocity": 64,
                "duration": 0.05,
                "tempo": 120.0
            },
            {
                "start_time": 4.9795455,
                "end_time": 5.1113636,
                "pitch": 67,
                "velocity": 64,
                "duration": 0.1318182,
                "tempo": 120.0
            },
            {
                "start_time": 5.1113636,
                "end_time": 5.1613636,
                "pitch": 67,
                "velocity": 64,
                "duration": 0.05,
                "tempo": 120.0
            },
            {
                "start_time": 5.2909091,
                "end_time": 5.3227273,
                "pitch": 65,
                "velocity": 64,
                "duration": 0.0318182,
                "tempo": 120.0
            },
            {
                "start_time": 5.4522727,
                "end_time": 5.5045455,
                "pitch": 67,
                "velocity": 64,
                "duration": 0.0522727,
                "tempo": 120.0
            },
            {
                "start_time": 5.6454545,
                "end_time": 5.7,
                "pitch": 67,
                "velocity": 64,
                "duration": 0.0545455,
                "tempo": 120.0
            },
            {
                "start_time": 5.8386364,
                "end_time": 5.8886364,
                "pitch": 67,
                "velocity": 64,
                "duration": 0.05,
                "tempo": 120.0
            },
            {
                "start_time": 5.8886364,
                "end_time": 6.0227273,
                "pitch": 67,
                "velocity": 64,
                "duration": 0.1340909,
                "tempo": 120.0
            },
            {
                "start_time": 6.0227273,
                "end_time": 6.1568182,
                "pitch": 67,
                "velocity": 64,
                "duration": 0.1340909,
                "tempo": 120.0
            },
            {
                "start_time": 6.1568182,
                "end_time": 6.2909091,
                "pitch": 67,
                "velocity": 64,
                "duration": 0.1340909,
                "tempo": 120.0
            },
            {
                "start_time": 6.2909091,
                "end_time": 6.425,
                "pitch": 67,
                "velocity": 64,
                "duration": 0.1340909,
                "tempo": 120.0
            },
            {
                "start_time": 6.425,
                "end_time": 6.5568182,
                "pitch": 67,
                "velocity": 64,
                "duration": 0.1318182,
                "tempo": 120.0
            },
            {
                "start_time": 6.5568182,
                "end_time": 6.6909091,
                "pitch": 67,
                "velocity": 64,
                "duration": 0.1340909,
                "tempo": 120.0
            },
            {
                "start_time": 6.6909091,
                "end_time": 6.825,
                "pitch": 67,
                "velocity": 64,
                "duration": 0.1340909,
                "tempo": 120.0
            },
            {
                "start_time": 6.825,
                "end_time": 6.9613636,
                "pitch": 67,
                "velocity": 64,
                "duration": 0.1363636,
                "tempo": 120.0
            },
            {
                "start_time": 6.9613636,
                "end_time": 7.1022727,
                "pitch": 67,
                "velocity": 64,
                "duration": 0.1409091,
                "tempo": 120.0
            },
            {
                "start_time": 7.1022727,
                "end_time": 7.1386364,
                "pitch": 67,
                "velocity": 64,
                "duration": 0.0363636,
                "tempo": 120.0
            },
            {
                "start_time": 7.4681818,
                "end_time": 7.5022727,
                "pitch": 74,
                "velocity": 64,
                "duration": 0.0340909,
                "tempo": 120.0
            },
            {
                "start_time": 7.6409091,
                "end_time": 7.6909091,
                "pitch": 74,
                "velocity": 64,
                "duration": 0.05,
                "tempo": 120.0
            },
            {
                "start_time": 7.825,
                "end_time": 7.875,
                "pitch": 74,
                "velocity": 64,
                "duration": 0.05,
                "tempo": 120.0
            },
            {
                "start_time": 8.0090909,
                "end_time": 8.0431818,
                "pitch": 74,
                "velocity": 64,
                "duration": 0.0340909,
                "tempo": 120.0
            },
            {
                "start_time": 8.1840909,
                "end_time": 8.2363636,
                "pitch": 74,
                "velocity": 64,
                "duration": 0.0522727,
                "tempo": 120.0
            },
            {
                "start_time": 8.3772727,
                "end_time": 8.4272727,
                "pitch": 74,
                "velocity": 64,
                "duration": 0.05,
                "tempo": 120.0
            },
            {
                "start_time": 8.5613636,
                "end_time": 8.5954545,
                "pitch": 74,
                "velocity": 64,
                "duration": 0.0340909,
                "tempo": 120.0
            },
            {
                "start_time": 8.7295455,
                "end_time": 8.9636364,
                "pitch": 70,
                "velocity": 64,
                "duration": 0.2340909,
                "tempo": 120.0
            },
            {
                "start_time": 9.0795455,
                "end_time": 9.3204545,
                "pitch": 70,
                "velocity": 64,
                "duration": 0.2409091,
                "tempo": 120.0
            },
            {
                "start_time": 9.4568182,
                "end_time": 9.5090909,
                "pitch": 67,
                "velocity": 64,
                "duration": 0.0522727,
                "tempo": 120.0
            },
            {
                "start_time": 9.5090909,
                "end_time": 9.6409091,
                "pitch": 67,
                "velocity": 64,
                "duration": 0.1318182,
                "tempo": 120.0
            },
            {
                "start_time": 9.6409091,
                "end_time": 9.675,
                "pitch": 67,
                "velocity": 64,
                "duration": 0.0340909,
                "tempo": 120.0
            },
            {
                "start_time": 9.8090909,
                "end_time": 10.0431818,
                "pitch": 65,
                "velocity": 64,
                "duration": 0.2340909,
                "tempo": 120.0
            },
            {
                "start_time": 10.175,
                "end_time": 10.2295455,
                "pitch": 67,
                "velocity": 64,
                "duration": 0.0545455,
                "tempo": 120.0
            },
            {
                "start_time": 10.2295455,
                "end_time": 10.3704545,
                "pitch": 67,
                "velocity": 64,
                "duration": 0.1409091,
                "tempo": 120.0
            },
            {
                "start_time": 10.3704545,
                "end_time": 10.4045455,
                "pitch": 67,
                "velocity": 64,
                "duration": 0.0340909,
                "tempo": 120.0
            },
            {
                "start_time": 10.5454545,
                "end_time": 10.5954545,
                "pitch": 65,
                "velocity": 64,
                "duration": 0.05,
                "tempo": 120.0
            },
            {
                "start_time": 10.7295455,
                "end_time": 10.7795455,
                "pitch": 67,
                "velocity": 64,
                "duration": 0.05,
                "tempo": 120.0
            },
            {
                "start_time": 10.7795455,
                "end_time": 10.9136364,
                "pitch": 67,
                "velocity": 64,
                "duration": 0.1340909,
                "tempo": 120.0
            },
            {
                "start_time": 10.9136364,
                "end_time": 10.9454545,
                "pitch": 67,
                "velocity": 64,
                "duration": 0.0318182,
                "tempo": 120.0
            },
            {
                "start_time": 11.075,
                "end_time": 11.125,
                "pitch": 64,
                "velocity": 64,
                "duration": 0.05,
                "tempo": 120.0
            },
            {
                "start_time": 11.2545455,
                "end_time": 11.2886364,
                "pitch": 64,
                "velocity": 64,
                "duration": 0.0340909,
                "tempo": 120.0
            },
            {
                "start_time": 11.4318182,
                "end_time": 11.4840909,
                "pitch": 67,
                "velocity": 64,
                "duration": 0.0522727,
                "tempo": 120.0
            },
            {
                "start_time": 11.625,
                "end_time": 11.8477273,
                "pitch": 70,
                "velocity": 64,
                "duration": 0.2227273,
                "tempo": 120.0
            },
            {
                "start_time": 11.9681818,
                "end_time": 12.2204545,
                "pitch": 70,
                "velocity": 64,
                "duration": 0.2522727,
                "tempo": 120.0
            },
            {
                "start_time": 12.3363636,
                "end_time": 12.4045455,
                "pitch": 67,
                "velocity": 64,
                "duration": 0.0681818,
                "tempo": 120.0
            },
            {
                "start_time": 12.4045455,
                "end_time": 12.5431818,
                "pitch": 67,
                "velocity": 64,
                "duration": 0.1386364,
                "tempo": 120.0
            },
            {
                "start_time": 12.5431818,
                "end_time": 12.5772727,
                "pitch": 67,
                "velocity": 64,
                "duration": 0.0340909,
                "tempo": 120.0
            },
            {
                "start_time": 12.7159091,
                "end_time": 12.9386364,
                "pitch": 65,
                "velocity": 64,
                "duration": 0.2227273,
                "tempo": 120.0
            },
            {
                "start_time": 13.0772727,
                "end_time": 13.1272727,
                "pitch": 67,
                "velocity": 64,
                "duration": 0.05,
                "tempo": 120.0
            },
            {
                "start_time": 13.1272727,
                "end_time": 13.2613636,
                "pitch": 67,
                "velocity": 64,
                "duration": 0.1340909,
                "tempo": 120.0
            },
            {
                "start_time": 13.2613636,
                "end_time": 13.3113636,
                "pitch": 67,
                "velocity": 64,
                "duration": 0.05,
                "tempo": 120.0
            },
            {
                "start_time": 13.4272727,
                "end_time": 13.4795455,
                "pitch": 65,
                "velocity": 64,
                "duration": 0.0522727,
                "tempo": 120.0
            },
            {
                "start_time": 13.6159091,
                "end_time": 13.6681818,
                "pitch": 67,
                "velocity": 64,
                "duration": 0.0522727,
                "tempo": 120.0
            },
            {
                "start_time": 13.6681818,
                "end_time": 13.8045455,
                "pitch": 67,
                "velocity": 64,
                "duration": 0.1363636,
                "tempo": 120.0
            },
            {
                "start_time": 13.8045455,
                "end_time": 13.8545455,
                "pitch": 67,
                "velocity": 64,
                "duration": 0.05,
                "tempo": 120.0
            },
            {
                "start_time": 14.1454545,
                "end_time": 14.1977273,
                "pitch": 74,
                "velocity": 64,
                "duration": 0.0522727,
                "tempo": 120.0
            },
            {
                "start_time": 14.3340909,
                "end_time": 14.3863636,
                "pitch": 67,
                "velocity": 64,
                "duration": 0.0522727,
                "tempo": 120.0
            },
            {
                "start_time": 14.525,
                "end_time": 14.575,
                "pitch": 67,
                "velocity": 64,
                "duration": 0.05,
                "tempo": 120.0
            },
            {
                "start_time": 14.575,
                "end_time": 14.7136364,
                "pitch": 67,
                "velocity": 64,
                "duration": 0.1386364,
                "tempo": 120.0
            },
            {
                "start_time": 14.7136364,
                "end_time": 14.85,
                "pitch": 67,
                "velocity": 64,
                "duration": 0.1363636,
                "tempo": 120.0
            },
            {
                "start_time": 14.85,
                "end_time": 14.9818182,
                "pitch": 67,
                "velocity": 64,
                "duration": 0.1318182,
                "tempo": 120.0
            },
            {
                "start_time": 14.9818182,
                "end_time": 15.1113636,
                "pitch": 67,
                "velocity": 64,
                "duration": 0.1295455,
                "tempo": 120.0
            },
            {
                "start_time": 15.1113636,
                "end_time": 15.2431818,
                "pitch": 67,
                "velocity": 64,
                "duration": 0.1318182,
                "tempo": 120.0
            },
            {
                "start_time": 15.2431818,
                "end_time": 15.375,
                "pitch": 67,
                "velocity": 64,
                "duration": 0.1318182,
                "tempo": 120.0
            },
            {
                "start_time": 15.375,
                "end_time": 15.5090909,
                "pitch": 67,
                "velocity": 64,
                "duration": 0.1340909,
                "tempo": 120.0
            },
            {
                "start_time": 15.5090909,
                "end_time": 15.6477273,
                "pitch": 67,
                "velocity": 64,
                "duration": 0.1386364,
                "tempo": 120.0
            },
            {
                "start_time": 15.6477273,
                "end_time": 15.7886364,
                "pitch": 67,
                "velocity": 64,
                "duration": 0.1409091,
                "tempo": 120.0
            },
            {
                "start_time": 15.7886364,
                "end_time": 15.9295455,
                "pitch": 67,
                "velocity": 64,
                "duration": 0.1409091,
                "tempo": 120.0
            },
            {
                "start_time": 15.9295455,
                "end_time": 16.0681818,
                "pitch": 67,
                "velocity": 64,
                "duration": 0.1386364,
                "tempo": 120.0
            },
            {
                "start_time": 16.0681818,
                "end_time": 16.2045455,
                "pitch": 67,
                "velocity": 64,
                "duration": 0.1363636,
                "tempo": 120.0
            },
            {
                "start_time": 16.2045455,
                "end_time": 16.3409091,
                "pitch": 67,
                "velocity": 64,
                "duration": 0.1363636,
                "tempo": 120.0
            },
            {
                "start_time": 16.3409091,
                "end_time": 16.4704545,
                "pitch": 67,
                "velocity": 64,
                "duration": 0.1295455,
                "tempo": 120.0
            },
            {
                "start_time": 16.4704545,
                "end_time": 16.6,
                "pitch": 67,
                "velocity": 64,
                "duration": 0.1295455,
                "tempo": 120.0
            },
            {
                "start_time": 16.6,
                "end_time": 16.7340909,
                "pitch": 67,
                "velocity": 64,
                "duration": 0.1340909,
                "tempo": 120.0
            },
            {
                "start_time": 16.7340909,
                "end_time": 16.8727273,
                "pitch": 67,
                "velocity": 64,
                "duration": 0.1386364,
                "tempo": 120.0
            },
            {
                "start_time": 16.8727273,
                "end_time": 17.0090909,
                "pitch": 67,
                "velocity": 64,
                "duration": 0.1363636,
                "tempo": 120.0
            },
            {
                "start_time": 17.0090909,
                "end_time": 17.15,
                "pitch": 67,
                "velocity": 64,
                "duration": 0.1409091,
                "tempo": 120.0
            },
            {
                "start_time": 17.15,
                "end_time": 17.2727273,
                "pitch": 67,
                "velocity": 64,
                "duration": 0.1227273,
                "tempo": 120.0
            },
            {
                "start_time": 17.4136364,
                "end_time": 17.4636364,
                "pitch": 67,
                "velocity": 64,
                "duration": 0.05,
                "tempo": 120.0
            },
            {
                "start_time": 17.4636364,
                "end_time": 17.5977273,
                "pitch": 67,
                "velocity": 64,
                "duration": 0.1340909,
                "tempo": 120.0
            },
            {
                "start_time": 17.5977273,
                "end_time": 17.7318182,
                "pitch": 67,
                "velocity": 64,
                "duration": 0.1340909,
                "tempo": 120.0
            },
            {
                "start_time": 17.7318182,
                "end_time": 17.8659091,
                "pitch": 67,
                "velocity": 64,
                "duration": 0.1340909,
                "tempo": 120.0
            },
            {
                "start_time": 17.8659091,
                "end_time": 18.0,
                "pitch": 67,
                "velocity": 64,
                "duration": 0.1340909,
                "tempo": 120.0
            },
            {
                "start_time": 18.0,
                "end_time": 18.1318182,
                "pitch": 67,
                "velocity": 64,
                "duration": 0.1318182,
                "tempo": 120.0
            },
            {
                "start_time": 18.1318182,
                "end_time": 18.2659091,
                "pitch": 67,
                "velocity": 64,
                "duration": 0.1340909,
                "tempo": 120.0
            },
            {
                "start_time": 18.2659091,
                "end_time": 18.35,
                "pitch": 67,
                "velocity": 64,
                "duration": 0.0840909,
                "tempo": 120.0
            },
            {
                "start_time": 18.4840909,
                "end_time": 18.5522727,
                "pitch": 67,
                "velocity": 64,
                "duration": 0.0681818,
                "tempo": 120.0
            },
            {
                "start_time": 18.5522727,
                "end_time": 18.725,
                "pitch": 69,
                "velocity": 64,
                "duration": 0.1727273,
                "tempo": 120.0
            },
            {
                "start_time": 18.8613636,
                "end_time": 19.6227273,
                "pitch": 69,
                "velocity": 64,
                "duration": 0.7613636,
                "tempo": 120.0
            },
            {
                "start_time": 19.7568182,
                "end_time": 19.8068182,
                "pitch": 70,
                "velocity": 64,
                "duration": 0.05,
                "tempo": 120.0
            },
            {
                "start_time": 19.9409091,
                "end_time": 19.975,
                "pitch": 72,
                "velocity": 64,
                "duration": 0.0340909,
                "tempo": 120.0
            },
            {
                "start_time": 20.1159091,
                "end_time": 20.1704545,
                "pitch": 74,
                "velocity": 64,
                "duration": 0.0545455,
                "tempo": 120.0
            },
            {
                "start_time": 20.3113636,
                "end_time": 21.2522727,
                "pitch": 72,
                "velocity": 64,
                "duration": 0.9409091,
                "tempo": 120.0
            },
            {
                "start_time": 21.3909091,
                "end_time": 21.6204545,
                "pitch": 69,
                "velocity": 64,
                "duration": 0.2295455,
                "tempo": 120.0
            },
            {
                "start_time": 21.7613636,
                "end_time": 22.5295455,
                "pitch": 65,
                "velocity": 64,
                "duration": 0.7681818,
                "tempo": 120.0
            },
            {
                "start_time": 22.6636364,
                "end_time": 22.6977273,
                "pitch": 65,
                "velocity": 64,
                "duration": 0.0340909,
                "tempo": 120.0
            },
            {
                "start_time": 22.8295455,
                "end_time": 22.8818182,
                "pitch": 67,
                "velocity": 64,
                "duration": 0.0522727,
                "tempo": 120.0
            },
            {
                "start_time": 23.0204545,
                "end_time": 23.0704545,
                "pitch": 69,
                "velocity": 64,
                "duration": 0.05,
                "tempo": 120.0
            },
            {
                "start_time": 23.2090909,
                "end_time": 24.5113636,
                "pitch": 71,
                "velocity": 64,
                "duration": 1.3022727,
                "tempo": 120.0
            },
            {
                "start_time": 24.8431818,
                "end_time": 24.8795455,
                "pitch": 74,
                "velocity": 64,
                "duration": 0.0363636,
                "tempo": 120.0
            },
            {
                "start_time": 25.0204545,
                "end_time": 25.0704545,
                "pitch": 74,
                "velocity": 64,
                "duration": 0.05,
                "tempo": 120.0
            },
            {
                "start_time": 25.2045455,
                "end_time": 25.2545455,
                "pitch": 74,
                "velocity": 64,
                "duration": 0.05,
                "tempo": 120.0
            },
            {
                "start_time": 25.3886364,
                "end_time": 25.4227273,
                "pitch": 74,
                "velocity": 64,
                "duration": 0.0340909,
                "tempo": 120.0
            },
            {
                "start_time": 25.5636364,
                "end_time": 25.6159091,
                "pitch": 74,
                "velocity": 64,
                "duration": 0.0522727,
                "tempo": 120.0
            },
            {
                "start_time": 25.7568182,
                "end_time": 25.8090909,
                "pitch": 74,
                "velocity": 64,
                "duration": 0.0522727,
                "tempo": 120.0
            },
            {
                "start_time": 25.9409091,
                "end_time": 25.975,
                "pitch": 74,
                "velocity": 64,
                "duration": 0.0340909,
                "tempo": 120.0
            },
            {
                "start_time": 26.1090909,
                "end_time": 26.1590909,
                "pitch": 79,
                "velocity": 64,
                "duration": 0.05,
                "tempo": 120.0
            },
            {
                "start_time": 26.1590909,
                "end_time": 26.2931818,
                "pitch": 79,
                "velocity": 64,
                "duration": 0.1340909,
                "tempo": 120.0
            },
            {
                "start_time": 26.2931818,
                "end_time": 26.3431818,
                "pitch": 79,
                "velocity": 64,
                "duration": 0.05,
                "tempo": 120.0
            },
            {
                "start_time": 26.4590909,
                "end_time": 26.7,
                "pitch": 77,
                "velocity": 64,
                "duration": 0.2409091,
                "tempo": 120.0
            },
            {
                "start_time": 26.8386364,
                "end_time": 27.0545455,
                "pitch": 74,
                "velocity": 64,
                "duration": 0.2159091,
                "tempo": 120.0
            },
            {
                "start_time": 27.1886364,
                "end_time": 27.4227273,
                "pitch": 72,
                "velocity": 64,
                "duration": 0.2340909,
                "tempo": 120.0
            },
            {
                "start_time": 27.5568182,
                "end_time": 27.5909091,
                "pitch": 79,
                "velocity": 64,
                "duration": 0.0340909,
                "tempo": 120.0
            },
            {
                "start_time": 27.7272727,
                "end_time": 27.9681818,
                "pitch": 79,
                "velocity": 64,
                "duration": 0.2409091,
                "tempo": 120.0
            },
            {
                "start_time": 28.1,
                "end_time": 28.3159091,
                "pitch": 74,
                "velocity": 64,
                "duration": 0.2159091,
                "tempo": 120.0
            },
            {
                "start_time": 28.4454545,
                "end_time": 28.4954545,
                "pitch": 72,
                "velocity": 64,
                "duration": 0.05,
                "tempo": 120.0
            },
            {
                "start_time": 28.625,
                "end_time": 28.6613636,
                "pitch": 70,
                "velocity": 64,
                "duration": 0.0363636,
                "tempo": 120.0
            },
            {
                "start_time": 28.8068182,
                "end_time": 28.8613636,
                "pitch": 67,
                "velocity": 64,
                "duration": 0.0545455,
                "tempo": 120.0
            },
            {
                "start_time": 29.0068182,
                "end_time": 29.0590909,
                "pitch": 79,
                "velocity": 64,
                "duration": 0.0522727,
                "tempo": 120.0
            },
            {
                "start_time": 29.0590909,
                "end_time": 29.1977273,
                "pitch": 79,
                "velocity": 64,
                "duration": 0.1386364,
                "tempo": 120.0
            },
            {
                "start_time": 29.1977273,
                "end_time": 29.2318182,
                "pitch": 79,
                "velocity": 64,
                "duration": 0.0340909,
                "tempo": 120.0
            },
            {
                "start_time": 29.3522727,
                "end_time": 29.5954545,
                "pitch": 77,
                "velocity": 64,
                "duration": 0.2431818,
                "tempo": 120.0
            },
            {
                "start_time": 29.7090909,
                "end_time": 29.9545455,
                "pitch": 74,
                "velocity": 64,
                "duration": 0.2454545,
                "tempo": 120.0
            },
            {
                "start_time": 30.0954545,
                "end_time": 30.3136364,
                "pitch": 72,
                "velocity": 64,
                "duration": 0.2181818,
                "tempo": 120.0
            },
            {
                "start_time": 30.4454545,
                "end_time": 30.4977273,
                "pitch": 79,
                "velocity": 64,
                "duration": 0.0522727,
                "tempo": 120.0
            },
            {
                "start_time": 30.6363636,
                "end_time": 30.8568182,
                "pitch": 79,
                "velocity": 64,
                "duration": 0.2204545,
                "tempo": 120.0
            },
            {
                "start_time": 30.9863636,
                "end_time": 31.2159091,
                "pitch": 74,
                "velocity": 64,
                "duration": 0.2295455,
                "tempo": 120.0
            },
            {
                "start_time": 31.3477273,
                "end_time": 31.3818182,
                "pitch": 72,
                "velocity": 64,
                "duration": 0.0340909,
                "tempo": 120.0
            },
            {
                "start_time": 31.5159091,
                "end_time": 31.5681818,
                "pitch": 70,
                "velocity": 64,
                "duration": 0.0522727,
                "tempo": 120.0
            },
            {
                "start_time": 31.7090909,
                "end_time": 31.7613636,
                "pitch": 67,
                "velocity": 64,
                "duration": 0.0522727,
                "tempo": 120.0
            }
        ],
        "Acoustic Bass": [
            {
                "start_time": 0.0386364,
                "end_time": 0.2045455,
                "pitch": 36,
                "velocity": 51,
                "duration": 0.1659091,
                "tempo": 120.0
            },
            {
                "start_time": 0.2045455,
                "end_time": 0.4045455,
                "pitch": 48,
                "velocity": 51,
                "duration": 0.2,
                "tempo": 120.0
            },
            {
                "start_time": 0.4045455,
                "end_time": 0.5636364,
                "pitch": 36,
                "velocity": 51,
                "duration": 0.1590909,
                "tempo": 120.0
            },
            {
                "start_time": 0.5636364,
                "end_time": 0.775,
                "pitch": 48,
                "velocity": 51,
                "duration": 0.2113636,
                "tempo": 120.0
            },
            {
                "start_time": 0.775,
                "end_time": 0.9431818,
                "pitch": 36,
                "velocity": 51,
                "duration": 0.1681818,
                "tempo": 120.0
            },
            {
                "start_time": 0.9431818,
                "end_time": 1.125,
                "pitch": 48,
                "velocity": 51,
                "duration": 0.1818182,
                "tempo": 120.0
            },
            {
                "start_time": 1.125,
                "end_time": 1.2931818,
                "pitch": 36,
                "velocity": 51,
                "duration": 0.1681818,
                "tempo": 120.0
            },
            {
                "start_time": 1.2931818,
                "end_time": 1.4931818,
                "pitch": 48,
                "velocity": 51,
                "duration": 0.2,
                "tempo": 120.0
            },
            {
                "start_time": 1.4931818,
                "end_time": 1.6522727,
                "pitch": 36,
                "velocity": 51,
                "duration": 0.1590909,
                "tempo": 120.0
            },
            {
                "start_time": 1.6522727,
                "end_time": 1.8636364,
                "pitch": 48,
                "velocity": 51,
                "duration": 0.2113636,
                "tempo": 120.0
            },
            {
                "start_time": 1.8636364,
                "end_time": 2.0477273,
                "pitch": 36,
                "velocity": 51,
                "duration": 0.1840909,
                "tempo": 120.0
            },
            {
                "start_time": 2.0477273,
                "end_time": 2.1977273,
                "pitch": 48,
                "velocity": 51,
                "duration": 0.15,
                "tempo": 120.0
            },
            {
                "start_time": 2.1977273,
                "end_time": 2.3863636,
                "pitch": 36,
                "velocity": 51,
                "duration": 0.1886364,
                "tempo": 120.0
            },
            {
                "start_time": 2.3863636,
                "end_time": 2.5613636,
                "pitch": 48,
                "velocity": 51,
                "duration": 0.175,
                "tempo": 120.0
            },
            {
                "start_time": 2.5613636,
                "end_time": 2.7431818,
                "pitch": 36,
                "velocity": 51,
                "duration": 0.1818182,
                "tempo": 120.0
            },
            {
                "start_time": 2.7431818,
                "end_time": 2.9431818,
                "pitch": 48,
                "velocity": 51,
                "duration": 0.2,
                "tempo": 120.0
            },
            {
                "start_time": 2.9431818,
                "end_time": 3.1159091,
                "pitch": 36,
                "velocity": 51,
                "duration": 0.1727273,
                "tempo": 120.0
            },
            {
                "start_time": 3.1159091,
                "end_time": 3.3045455,
                "pitch": 48,
                "velocity": 51,
                "duration": 0.1886364,
                "tempo": 120.0
            },
            {
                "start_time": 3.3045455,
                "end_time": 3.4681818,
                "pitch": 36,
                "velocity": 51,
                "duration": 0.1636364,
                "tempo": 120.0
            },
            {
                "start_time": 3.4681818,
                "end_time": 3.6613636,
                "pitch": 48,
                "velocity": 51,
                "duration": 0.1931818,
                "tempo": 120.0
            },
            {
                "start_time": 3.6613636,
                "end_time": 3.8204545,
                "pitch": 36,
                "velocity": 51,
                "duration": 0.1590909,
                "tempo": 120.0
            },
            {
                "start_time": 3.8204545,
                "end_time": 4.0318182,
                "pitch": 48,
                "velocity": 51,
                "duration": 0.2113636,
                "tempo": 120.0
            },
            {
                "start_time": 4.0318182,
                "end_time": 4.2045455,
                "pitch": 36,
                "velocity": 51,
                "duration": 0.1727273,
                "tempo": 120.0
            },
            {
                "start_time": 4.2045455,
                "end_time": 4.3931818,
                "pitch": 48,
                "velocity": 51,
                "duration": 0.1886364,
                "tempo": 120.0
            },
            {
                "start_time": 4.3931818,
                "end_time": 4.5613636,
                "pitch": 36,
                "velocity": 51,
                "duration": 0.1681818,
                "tempo": 120.0
            },
            {
                "start_time": 4.5613636,
                "end_time": 4.7454545,
                "pitch": 48,
                "velocity": 51,
                "duration": 0.1840909,
                "tempo": 120.0
            },
            {
                "start_time": 4.7454545,
                "end_time": 4.9295455,
                "pitch": 36,
                "velocity": 51,
                "duration": 0.1840909,
                "tempo": 120.0
            },
            {
                "start_time": 4.9295455,
                "end_time": 5.0954545,
                "pitch": 48,
                "velocity": 51,
                "duration": 0.1659091,
                "tempo": 120.0
            },
            {
                "start_time": 5.0954545,
                "end_time": 5.2909091,
                "pitch": 36,
                "velocity": 51,
                "duration": 0.1954545,
                "tempo": 120.0
            },
            {
                "start_time": 5.2909091,
                "end_time": 5.4522727,
                "pitch": 48,
                "velocity": 51,
                "duration": 0.1613636,
                "tempo": 120.0
            },
            {
                "start_time": 5.4522727,
                "end_time": 5.6454545,
                "pitch": 36,
                "velocity": 51,
                "duration": 0.1931818,
                "tempo": 120.0
            },
            {
                "start_time": 5.6454545,
                "end_time": 5.8386364,
                "pitch": 48,
                "velocity": 51,
                "duration": 0.1931818,
                "tempo": 120.0
            },
            {
                "start_time": 5.8386364,
                "end_time": 5.9909091,
                "pitch": 43,
                "velocity": 51,
                "duration": 0.1522727,
                "tempo": 120.0
            },
            {
                "start_time": 5.9909091,
                "end_time": 6.1727273,
                "pitch": 55,
                "velocity": 51,
                "duration": 0.1818182,
                "tempo": 120.0
            },
            {
                "start_time": 6.1727273,
                "end_time": 6.3568182,
                "pitch": 43,
                "velocity": 51,
                "duration": 0.1840909,
                "tempo": 120.0
            },
            {
                "start_time": 6.3568182,
                "end_time": 6.525,
                "pitch": 55,
                "velocity": 51,
                "duration": 0.1681818,
                "tempo": 120.0
            },
            {
                "start_time": 6.525,
                "end_time": 6.7090909,
                "pitch": 43,
                "velocity": 51,
                "duration": 0.1840909,
                "tempo": 120.0
            },
            {
                "start_time": 6.7090909,
                "end_time": 6.8909091,
                "pitch": 55,
                "velocity": 51,
                "duration": 0.1818182,
                "tempo": 120.0
            },
            {
                "start_time": 6.8909091,
                "end_time": 7.0681818,
                "pitch": 43,
                "velocity": 51,
                "duration": 0.1772727,
                "tempo": 120.0
            },
            {
                "start_time": 7.0681818,
                "end_time": 7.2795455,
                "pitch": 55,
                "velocity": 51,
                "duration": 0.2113636,
                "tempo": 120.0
            },
            {
                "start_time": 7.2795455,
                "end_time": 7.4681818,
                "pitch": 43,
                "velocity": 51,
                "duration": 0.1886364,
                "tempo": 120.0
            },
            {
                "start_time": 7.4681818,
                "end_time": 7.6409091,
                "pitch": 55,
                "velocity": 51,
                "duration": 0.1727273,
                "tempo": 120.0
            },
            {
                "start_time": 7.6409091,
                "end_time": 7.825,
                "pitch": 43,
                "velocity": 51,
                "duration": 0.1840909,
                "tempo": 120.0
            },
            {
                "start_time": 7.825,
                "end_time": 8.0090909,
                "pitch": 55,
                "velocity": 51,
                "duration": 0.1840909,
                "tempo": 120.0
            },
            {
                "start_time": 8.0090909,
                "end_time": 8.1840909,
                "pitch": 43,
                "velocity": 51,
                "duration": 0.175,
                "tempo": 120.0
            },
            {
                "start_time": 8.1840909,
                "end_time": 8.3772727,
                "pitch": 55,
                "velocity": 51,
                "duration": 0.1931818,
                "tempo": 120.0
            },
            {
                "start_time": 8.3772727,
                "end_time": 8.5613636,
                "pitch": 43,
                "velocity": 51,
                "duration": 0.1840909,
                "tempo": 120.0
            },
            {
                "start_time": 8.5613636,
                "end_time": 8.7295455,
                "pitch": 55,
                "velocity": 51,
                "duration": 0.1681818,
                "tempo": 120.0
            },
            {
                "start_time": 8.7295455,
                "end_time": 8.8954545,
                "pitch": 36,
                "velocity": 51,
                "duration": 0.1659091,
                "tempo": 120.0
            },
            {
                "start_time": 8.8954545,
                "end_time": 9.0977273,
                "pitch": 48,
                "velocity": 51,
                "duration": 0.2022727,
                "tempo": 120.0
            },
            {
                "start_time": 9.0977273,
                "end_time": 9.2522727,
                "pitch": 36,
                "velocity": 51,
                "duration": 0.1545455,
                "tempo": 120.0
            },
            {
                "start_time": 9.2522727,
                "end_time": 9.4568182,
                "pitch": 48,
                "velocity": 51,
                "duration": 0.2045455,
                "tempo": 120.0
            },
            {
                "start_time": 9.4568182,
                "end_time": 9.625,
                "pitch": 36,
                "velocity": 51,
                "duration": 0.1681818,
                "tempo": 120.0
            },
            {
                "start_time": 9.625,
                "end_time": 9.8090909,
                "pitch": 48,
                "velocity": 51,
                "duration": 0.1840909,
                "tempo": 120.0
            },
            {
                "start_time": 9.8090909,
                "end_time": 9.975,
                "pitch": 36,
                "velocity": 51,
                "duration": 0.1659091,
                "tempo": 120.0
            },
            {
                "start_time": 9.975,
                "end_time": 10.175,
                "pitch": 48,
                "velocity": 51,
                "duration": 0.2,
                "tempo": 120.0
            },
            {
                "start_time": 10.175,
                "end_time": 10.3340909,
                "pitch": 36,
                "velocity": 51,
                "duration": 0.1590909,
                "tempo": 120.0
            },
            {
                "start_time": 10.3340909,
                "end_time": 10.5454545,
                "pitch": 48,
                "velocity": 51,
                "duration": 0.2113636,
                "tempo": 120.0
            },
            {
                "start_time": 10.5454545,
                "end_time": 10.7295455,
                "pitch": 36,
                "velocity": 51,
                "duration": 0.1840909,
                "tempo": 120.0
            },
            {
                "start_time": 10.7295455,
                "end_time": 10.8795455,
                "pitch": 48,
                "velocity": 51,
                "duration": 0.15,
                "tempo": 120.0
            },
            {
                "start_time": 10.8795455,
                "end_time": 11.075,
                "pitch": 36,
                "velocity": 51,
                "duration": 0.1954545,
                "tempo": 120.0
            },
            {
                "start_time": 11.075,
                "end_time": 11.2545455,
                "pitch": 48,
                "velocity": 51,
                "duration": 0.1795455,
                "tempo": 120.0
            },
            {
                "start_time": 11.2545455,
                "end_time": 11.4318182,
                "pitch": 36,
                "velocity": 51,
                "duration": 0.1772727,
                "tempo": 120.0
            },
            {
                "start_time": 11.4318182,
                "end_time": 11.625,
                "pitch": 48,
                "velocity": 51,
                "duration": 0.1931818,
                "tempo": 120.0
            },
            {
                "start_time": 11.625,
                "end_time": 11.7977273,
                "pitch": 36,
                "velocity": 51,
                "duration": 0.1727273,
                "tempo": 120.0
            },
            {
                "start_time": 11.7977273,
                "end_time": 11.9863636,
                "pitch": 48,
                "velocity": 51,
                "duration": 0.1886364,
                "tempo": 120.0
            },
            {
                "start_time": 11.9863636,
                "end_time": 12.1522727,
                "pitch": 36,
                "velocity": 51,
                "duration": 0.1659091,
                "tempo": 120.0
            },
            {
                "start_time": 12.1522727,
                "end_time": 12.3545455,
                "pitch": 48,
                "velocity": 51,
                "duration": 0.2022727,
                "tempo": 120.0
            },
            {
                "start_time": 12.3545455,
                "end_time": 12.5090909,
                "pitch": 36,
                "velocity": 51,
                "duration": 0.1545455,
                "tempo": 120.0
            },
            {
                "start_time": 12.5090909,
                "end_time": 12.7159091,
                "pitch": 48,
                "velocity": 51,
                "duration": 0.2068182,
                "tempo": 120.0
            },
            {
                "start_time": 12.7159091,
                "end_time": 12.8863636,
                "pitch": 36,
                "velocity": 51,
                "duration": 0.1704545,
                "tempo": 120.0
            },
            {
                "start_time": 12.8863636,
                "end_time": 13.0772727,
                "pitch": 48,
                "velocity": 51,
                "duration": 0.1909091,
                "tempo": 120.0
            },
            {
                "start_time": 13.0772727,
                "end_time": 13.2431818,
                "pitch": 36,
                "velocity": 51,
                "duration": 0.1659091,
                "tempo": 120.0
            },
            {
                "start_time": 13.2431818,
                "end_time": 13.4272727,
                "pitch": 48,
                "velocity": 51,
                "duration": 0.1840909,
                "tempo": 120.0
            },
            {
                "start_time": 13.4272727,
                "end_time": 13.6159091,
                "pitch": 36,
                "velocity": 51,
                "duration": 0.1886364,
                "tempo": 120.0
            },
            {
                "start_time": 13.6159091,
                "end_time": 13.7886364,
                "pitch": 48,
                "velocity": 51,
                "duration": 0.1727273,
                "tempo": 120.0
            },
            {
                "start_time": 13.7886364,
                "end_time": 13.9840909,
                "pitch": 36,
                "velocity": 51,
                "duration": 0.1954545,
                "tempo": 120.0
            },
            {
                "start_time": 13.9840909,
                "end_time": 14.1454545,
                "pitch": 48,
                "velocity": 51,
                "duration": 0.1613636,
                "tempo": 120.0
            },
            {
                "start_time": 14.1454545,
                "end_time": 14.3340909,
                "pitch": 36,
                "velocity": 51,
                "duration": 0.1886364,
                "tempo": 120.0
            },
            {
                "start_time": 14.3340909,
                "end_time": 14.525,
                "pitch": 48,
                "velocity": 51,
                "duration": 0.1909091,
                "tempo": 120.0
            },
            {
                "start_time": 14.525,
                "end_time": 14.6795455,
                "pitch": 43,
                "velocity": 51,
                "duration": 0.1545455,
                "tempo": 120.0
            },
            {
                "start_time": 14.6795455,
                "end_time": 14.8681818,
                "pitch": 55,
                "velocity": 51,
                "duration": 0.1886364,
                "tempo": 120.0
            },
            {
                "start_time": 14.8681818,
                "end_time": 15.0477273,
                "pitch": 43,
                "velocity": 51,
                "duration": 0.1795455,
                "tempo": 120.0
            },
            {
                "start_time": 15.0477273,
                "end_time": 15.2090909,
                "pitch": 55,
                "velocity": 51,
                "duration": 0.1613636,
                "tempo": 120.0
            },
            {
                "start_time": 15.2090909,
                "end_time": 15.3931818,
                "pitch": 43,
                "velocity": 51,
                "duration": 0.1840909,
                "tempo": 120.0
            },
            {
                "start_time": 15.3931818,
                "end_time": 15.5772727,
                "pitch": 55,
                "velocity": 51,
                "duration": 0.1840909,
                "tempo": 120.0
            },
            {
                "start_time": 15.5772727,
                "end_time": 15.7522727,
                "pitch": 43,
                "velocity": 51,
                "duration": 0.175,
                "tempo": 120.0
            },
            {
                "start_time": 15.7522727,
                "end_time": 15.9636364,
                "pitch": 55,
                "velocity": 51,
                "duration": 0.2113636,
                "tempo": 120.0
            },
            {
                "start_time": 15.9636364,
                "end_time": 16.1363636,
                "pitch": 43,
                "velocity": 51,
                "duration": 0.1727273,
                "tempo": 120.0
            },
            {
                "start_time": 16.1363636,
                "end_time": 16.3090909,
                "pitch": 55,
                "velocity": 51,
                "duration": 0.1727273,
                "tempo": 120.0
            },
            {
                "start_time": 16.3090909,
                "end_time": 16.4863636,
                "pitch": 43,
                "velocity": 51,
                "duration": 0.1772727,
                "tempo": 120.0
            },
            {
                "start_time": 16.4863636,
                "end_time": 16.6659091,
                "pitch": 55,
                "velocity": 51,
                "duration": 0.1795455,
                "tempo": 120.0
            },
            {
                "start_time": 16.6659091,
                "end_time": 16.8386364,
                "pitch": 43,
                "velocity": 51,
                "duration": 0.1727273,
                "tempo": 120.0
            },
            {
                "start_time": 16.8386364,
                "end_time": 17.0272727,
                "pitch": 55,
                "velocity": 51,
                "duration": 0.1886364,
                "tempo": 120.0
            },
            {
                "start_time": 17.0272727,
                "end_time": 17.2204545,
                "pitch": 43,
                "velocity": 51,
                "duration": 0.1931818,
                "tempo": 120.0
            },
            {
                "start_time": 17.2204545,
                "end_time": 17.4136364,
                "pitch": 55,
                "velocity": 51,
                "duration": 0.1931818,
                "tempo": 120.0
            },
            {
                "start_time": 17.4136364,
                "end_time": 17.5818182,
                "pitch": 39,
                "velocity": 51,
                "duration": 0.1681818,
                "tempo": 120.0
            },
            {
                "start_time": 17.5818182,
                "end_time": 17.7659091,
                "pitch": 51,
                "velocity": 51,
                "duration": 0.1840909,
                "tempo": 120.0
            },
            {
                "start_time": 17.7659091,
                "end_time": 17.9318182,
                "pitch": 39,
                "velocity": 51,
                "duration": 0.1659091,
                "tempo": 120.0
            },
            {
                "start_time": 17.9318182,
                "end_time": 18.1159091,
                "pitch": 51,
                "velocity": 51,
                "duration": 0.1840909,
                "tempo": 120.0
            },
            {
                "start_time": 18.1159091,
                "end_time": 18.3,
                "pitch": 39,
                "velocity": 51,
                "duration": 0.1840909,
                "tempo": 120.0
            },
            {
                "start_time": 18.3,
                "end_time": 18.4840909,
                "pitch": 51,
                "velocity": 51,
                "duration": 0.1840909,
                "tempo": 120.0
            },
            {
                "start_time": 18.4840909,
                "end_time": 18.6568182,
                "pitch": 39,
                "velocity": 51,
                "duration": 0.1727273,
                "tempo": 120.0
            },
            {
                "start_time": 18.6568182,
                "end_time": 18.8613636,
                "pitch": 51,
                "velocity": 51,
                "duration": 0.2045455,
                "tempo": 120.0
            },
            {
                "start_time": 18.8613636,
                "end_time": 19.0204545,
                "pitch": 39,
                "velocity": 51,
                "duration": 0.1590909,
                "tempo": 120.0
            },
            {
                "start_time": 19.0204545,
                "end_time": 19.2159091,
                "pitch": 51,
                "velocity": 51,
                "duration": 0.1954545,
                "tempo": 120.0
            },
            {
                "start_time": 19.2159091,
                "end_time": 19.3931818,
                "pitch": 39,
                "velocity": 51,
                "duration": 0.1772727,
                "tempo": 120.0
            },
            {
                "start_time": 19.3931818,
                "end_time": 19.5568182,
                "pitch": 51,
                "velocity": 51,
                "duration": 0.1636364,
                "tempo": 120.0
            },
            {
                "start_time": 19.5568182,
                "end_time": 19.7568182,
                "pitch": 39,
                "velocity": 51,
                "duration": 0.2,
                "tempo": 120.0
            },
            {
                "start_time": 19.7568182,
                "end_time": 19.9409091,
                "pitch": 51,
                "velocity": 51,
                "duration": 0.1840909,
                "tempo": 120.0
            },
            {
                "start_time": 19.9409091,
                "end_time": 20.1159091,
                "pitch": 39,
                "velocity": 51,
                "duration": 0.175,
                "tempo": 120.0
            },
            {
                "start_time": 20.1159091,
                "end_time": 20.3113636,
                "pitch": 51,
                "velocity": 51,
                "duration": 0.1954545,
                "tempo": 120.0
            },
            {
                "start_time": 20.3113636,
                "end_time": 20.4818182,
                "pitch": 41,
                "velocity": 51,
                "duration": 0.1704545,
                "tempo": 120.0
            },
            {
                "start_time": 20.4818182,
                "end_time": 20.6545455,
                "pitch": 53,
                "velocity": 51,
                "duration": 0.1727273,
                "tempo": 120.0
            },
            {
                "start_time": 20.6545455,
                "end_time": 20.8340909,
                "pitch": 41,
                "velocity": 51,
                "duration": 0.1795455,
                "tempo": 120.0
            },
            {
                "start_time": 20.8340909,
                "end_time": 21.0113636,
                "pitch": 53,
                "velocity": 51,
                "duration": 0.1772727,
                "tempo": 120.0
            },
            {
                "start_time": 21.0113636,
                "end_time": 21.1840909,
                "pitch": 41,
                "velocity": 51,
                "duration": 0.1727273,
                "tempo": 120.0
            },
            {
                "start_time": 21.1840909,
                "end_time": 21.3909091,
                "pitch": 53,
                "velocity": 51,
                "duration": 0.2068182,
                "tempo": 120.0
            },
            {
                "start_time": 21.3909091,
                "end_time": 21.5681818,
                "pitch": 41,
                "velocity": 51,
                "duration": 0.1772727,
                "tempo": 120.0
            },
            {
                "start_time": 21.5681818,
                "end_time": 21.7613636,
                "pitch": 53,
                "velocity": 51,
                "duration": 0.1931818,
                "tempo": 120.0
            },
            {
                "start_time": 21.7613636,
                "end_time": 21.9272727,
                "pitch": 41,
                "velocity": 51,
                "duration": 0.1659091,
                "tempo": 120.0
            },
            {
                "start_time": 21.9272727,
                "end_time": 22.1113636,
                "pitch": 53,
                "velocity": 51,
                "duration": 0.1840909,
                "tempo": 120.0
            },
            {
                "start_time": 22.1113636,
                "end_time": 22.2795455,
                "pitch": 41,
                "velocity": 51,
                "duration": 0.1681818,
                "tempo": 120.0
            },
            {
                "start_time": 22.2795455,
                "end_time": 22.4636364,
                "pitch": 53,
                "velocity": 51,
                "duration": 0.1840909,
                "tempo": 120.0
            },
            {
                "start_time": 22.4636364,
                "end_time": 22.6636364,
                "pitch": 41,
                "velocity": 51,
                "duration": 0.2,
                "tempo": 120.0
            },
            {
                "start_time": 22.6636364,
                "end_time": 22.8295455,
                "pitch": 53,
                "velocity": 51,
                "duration": 0.1659091,
                "tempo": 120.0
            },
            {
                "start_time": 22.8295455,
                "end_time": 23.0204545,
                "pitch": 41,
                "velocity": 51,
                "duration": 0.1909091,
                "tempo": 120.0
            },
            {
                "start_time": 23.0204545,
                "end_time": 23.2090909,
                "pitch": 53,
                "velocity": 51,
                "duration": 0.1886364,
                "tempo": 120.0
            },
            {
                "start_time": 23.2090909,
                "end_time": 23.3590909,
                "pitch": 43,
                "velocity": 51,
                "duration": 0.15,
                "tempo": 120.0
            },
            {
                "start_time": 23.3590909,
                "end_time": 23.5431818,
                "pitch": 55,
                "velocity": 51,
                "duration": 0.1840909,
                "tempo": 120.0
            },
            {
                "start_time": 23.5431818,
                "end_time": 23.725,
                "pitch": 43,
                "velocity": 51,
                "duration": 0.1818182,
                "tempo": 120.0
            },
            {
                "start_time": 23.725,
                "end_time": 23.8931818,
                "pitch": 55,
                "velocity": 51,
                "duration": 0.1681818,
                "tempo": 120.0
            },
            {
                "start_time": 23.8931818,
                "end_time": 24.0818182,
                "pitch": 43,
                "velocity": 51,
                "duration": 0.1886364,
                "tempo": 120.0
            },
            {
                "start_time": 24.0818182,
                "end_time": 24.2704545,
                "pitch": 55,
                "velocity": 51,
                "duration": 0.1886364,
                "tempo": 120.0
            },
            {
                "start_time": 24.2704545,
                "end_time": 24.4431818,
                "pitch": 43,
                "velocity": 51,
                "duration": 0.1727273,
                "tempo": 120.0
            },
            {
                "start_time": 24.4431818,
                "end_time": 24.65,
                "pitch": 55,
                "velocity": 51,
                "duration": 0.2068182,
                "tempo": 120.0
            },
            {
                "start_time": 24.65,
                "end_time": 24.8431818,
                "pitch": 43,
                "velocity": 51,
                "duration": 0.1931818,
                "tempo": 120.0
            },
            {
                "start_time": 24.8431818,
                "end_time": 25.0204545,
                "pitch": 55,
                "velocity": 51,
                "duration": 0.1772727,
                "tempo": 120.0
            },
            {
                "start_time": 25.0204545,
                "end_time": 25.2045455,
                "pitch": 43,
                "velocity": 51,
                "duration": 0.1840909,
                "tempo": 120.0
            },
            {
                "start_time": 25.2045455,
                "end_time": 25.3886364,
                "pitch": 55,
                "velocity": 51,
                "duration": 0.1840909,
                "tempo": 120.0
            },
            {
                "start_time": 25.3886364,
                "end_time": 25.5636364,
                "pitch": 43,
                "velocity": 51,
                "duration": 0.175,
                "tempo": 120.0
            },
            {
                "start_time": 25.5636364,
                "end_time": 25.7568182,
                "pitch": 55,
                "velocity": 51,
                "duration": 0.1931818,
                "tempo": 120.0
            },
            {
                "start_time": 25.7568182,
                "end_time": 25.9409091,
                "pitch": 43,
                "velocity": 51,
                "duration": 0.1840909,
                "tempo": 120.0
            },
            {
                "start_time": 25.9409091,
                "end_time": 26.1090909,
                "pitch": 55,
                "velocity": 51,
                "duration": 0.1681818,
                "tempo": 120.0
            },
            {
                "start_time": 26.1090909,
                "end_time": 26.275,
                "pitch": 43,
                "velocity": 51,
                "duration": 0.1659091,
                "tempo": 120.0
            },
            {
                "start_time": 26.275,
                "end_time": 26.4772727,
                "pitch": 55,
                "velocity": 51,
                "duration": 0.2022727,
                "tempo": 120.0
            },
            {
                "start_time": 26.4772727,
                "end_time": 26.6318182,
                "pitch": 43,
                "velocity": 51,
                "duration": 0.1545455,
                "tempo": 120.0
            },
            {
                "start_time": 26.6318182,
                "end_time": 26.8386364,
                "pitch": 55,
                "velocity": 51,
                "duration": 0.2068182,
                "tempo": 120.0
            },
            {
                "start_time": 26.8386364,
                "end_time": 27.0045455,
                "pitch": 43,
                "velocity": 51,
                "duration": 0.1659091,
                "tempo": 120.0
            },
            {
                "start_time": 27.0045455,
                "end_time": 27.1886364,
                "pitch": 55,
                "velocity": 51,
                "duration": 0.1840909,
                "tempo": 120.0
            },
            {
                "start_time": 27.1886364,
                "end_time": 27.3545455,
                "pitch": 43,
                "velocity": 51,
                "duration": 0.1659091,
                "tempo": 120.0
            },
            {
                "start_time": 27.3545455,
                "end_time": 27.5568182,
                "pitch": 55,
                "velocity": 51,
                "duration": 0.2022727,
                "tempo": 120.0
            },
            {
                "start_time": 27.5568182,
                "end_time": 27.7272727,
                "pitch": 43,
                "velocity": 51,
                "duration": 0.1704545,
                "tempo": 120.0
            },
            {
                "start_time": 27.7272727,
                "end_time": 27.9,
                "pitch": 55,
                "velocity": 51,
                "duration": 0.1727273,
                "tempo": 120.0
            },
            {
                "start_time": 27.9,
                "end_time": 28.1,
                "pitch": 43,
                "velocity": 51,
                "duration": 0.2,
                "tempo": 120.0
            },
            {
                "start_time": 28.1,
                "end_time": 28.2522727,
                "pitch": 55,
                "velocity": 51,
                "duration": 0.1522727,
                "tempo": 120.0
            },
            {
                "start_time": 28.2522727,
                "end_time": 28.4454545,
                "pitch": 43,
                "velocity": 51,
                "duration": 0.1931818,
                "tempo": 120.0
            },
            {
                "start_time": 28.4454545,
                "end_time": 28.625,
                "pitch": 55,
                "velocity": 51,
                "duration": 0.1795455,
                "tempo": 120.0
            },
            {
                "start_time": 28.625,
                "end_time": 28.8068182,
                "pitch": 43,
                "velocity": 51,
                "duration": 0.1818182,
                "tempo": 120.0
            },
            {
                "start_time": 28.8068182,
                "end_time": 29.0068182,
                "pitch": 55,
                "velocity": 51,
                "duration": 0.2,
                "tempo": 120.0
            },
            {
                "start_time": 29.0068182,
                "end_time": 29.1795455,
                "pitch": 43,
                "velocity": 51,
                "duration": 0.1727273,
                "tempo": 120.0
            },
            {
                "start_time": 29.1795455,
                "end_time": 29.3681818,
                "pitch": 55,
                "velocity": 51,
                "duration": 0.1886364,
                "tempo": 120.0
            },
            {
                "start_time": 29.3681818,
                "end_time": 29.5318182,
                "pitch": 43,
                "velocity": 51,
                "duration": 0.1636364,
                "tempo": 120.0
            },
            {
                "start_time": 29.5318182,
                "end_time": 29.725,
                "pitch": 55,
                "velocity": 51,
                "duration": 0.1931818,
                "tempo": 120.0
            },
            {
                "start_time": 29.725,
                "end_time": 29.8840909,
                "pitch": 43,
                "velocity": 51,
                "duration": 0.1590909,
                "tempo": 120.0
            },
            {
                "start_time": 29.8840909,
                "end_time": 30.0954545,
                "pitch": 55,
                "velocity": 51,
                "duration": 0.2113636,
                "tempo": 120.0
            },
            {
                "start_time": 30.0954545,
                "end_time": 30.2636364,
                "pitch": 43,
                "velocity": 51,
                "duration": 0.1681818,
                "tempo": 120.0
            },
            {
                "start_time": 30.2636364,
                "end_time": 30.4454545,
                "pitch": 55,
                "velocity": 51,
                "duration": 0.1818182,
                "tempo": 120.0
            },
            {
                "start_time": 30.4454545,
                "end_time": 30.6363636,
                "pitch": 43,
                "velocity": 51,
                "duration": 0.1909091,
                "tempo": 120.0
            },
            {
                "start_time": 30.6363636,
                "end_time": 30.8068182,
                "pitch": 55,
                "velocity": 51,
                "duration": 0.1704545,
                "tempo": 120.0
            },
            {
                "start_time": 30.8068182,
                "end_time": 30.9863636,
                "pitch": 43,
                "velocity": 51,
                "duration": 0.1795455,
                "tempo": 120.0
            },
            {
                "start_time": 30.9863636,
                "end_time": 31.1477273,
                "pitch": 55,
                "velocity": 51,
                "duration": 0.1613636,
                "tempo": 120.0
            },
            {
                "start_time": 31.1477273,
                "end_time": 31.3477273,
                "pitch": 43,
                "velocity": 51,
                "duration": 0.2,
                "tempo": 120.0
            },
            {
                "start_time": 31.3477273,
                "end_time": 31.5159091,
                "pitch": 55,
                "velocity": 51,
                "duration": 0.1681818,
                "tempo": 120.0
            },
            {
                "start_time": 31.5159091,
                "end_time": 31.7090909,
                "pitch": 43,
                "velocity": 51,
                "duration": 0.1931818,
                "tempo": 120.0
            },
            {
                "start_time": 31.7090909,
                "end_time": 31.9045455,
                "pitch": 55,
                "velocity": 51,
                "duration": 0.1954545,
                "tempo": 120.0
            }
        ]
    }
}