{
    "mood": "happy",
    "instruments": {
        "Acoustic Bass": [
            {
                "start_time": 0.0318182,
                "end_time": 0.2340909,
                "pitch": 38,
                "velocity": 127,
                "duration": 0.2022727,
                "tempo": 120.0
            },
            {
                "start_time": 0.2340909,
                "end_time": 0.4340909,
                "pitch": 38,
                "velocity": 127,
                "duration": 0.2,
                "tempo": 120.0
            },
            {
                "start_time": 0.4340909,
                "end_time": 0.6409091,
                "pitch": 38,
                "velocity": 127,
                "duration": 0.2068182,
                "tempo": 120.0
            },
            {
                "start_time": 0.6409091,
                "end_time": 0.8318182,
                "pitch": 38,
                "velocity": 127,
                "duration": 0.1909091,
                "tempo": 120.0
            },
            {
                "start_time": 0.8318182,
                "end_time": 1.05,
                "pitch": 38,
                "velocity": 127,
                "duration": 0.2181818,
                "tempo": 120.0
            },
            {
                "start_time": 1.05,
                "end_time": 1.2681818,
                "pitch": 38,
                "velocity": 127,
                "duration": 0.2181818,
                "tempo": 120.0
            },
            {
                "start_time": 1.2681818,
                "end_time": 1.4954545,
                "pitch": 38,
                "velocity": 127,
                "duration": 0.2272727,
                "tempo": 120.0
            },
            {
                "start_time": 1.4954545,
                "end_time": 1.7045455,
                "pitch": 38,
                "velocity": 127,
                "duration": 0.2090909,
                "tempo": 120.0
            },
            {
                "start_time": 1.7045455,
                "end_time": 1.9,
                "pitch": 38,
                "velocity": 127,
                "duration": 0.1954545,
                "tempo": 120.0
            },
            {
                "start_time": 1.9,
                "end_time": 2.0954545,
                "pitch": 38,
                "velocity": 127,
                "duration": 0.1954545,
                "tempo": 120.0
            },
            {
                "start_time": 2.0954545,
                "end_time": 2.3090909,
                "pitch": 38,
                "velocity": 127,
                "duration": 0.2136364,
                "tempo": 120.0
            },
            {
                "start_time": 2.3090909,
                "end_time": 2.5204545,
                "pitch": 38,
                "velocity": 127,
                "duration": 0.2113636,
                "tempo": 120.0
            },
            {
                "start_time": 2.5204545,
                "end_time": 2.7431818,
                "pitch": 38,
                "velocity": 127,
                "duration": 0.2227273,
                "tempo": 120.0
            },
            {
                "start_time": 2.7431818,
                "end_time": 2.9477273,
                "pitch": 38,
                "velocity": 127,
                "duration": 0.2045455,
                "tempo": 120.0
            },
            {
                "start_time": 2.9477273,
                "end_time": 3.1431818,
                "pitch": 38,
                "velocity": 127,
                "duration": 0.1954545,
                "tempo": 120.0
            },
            {
                "start_time": 3.1431818,
                "end_time": 3.3545455,
                "pitch": 38,
                "velocity": 127,
                "duration": 0.2113636,
                "tempo": 120.0
            },
            {
                "start_time": 3.3545455,
                "end_time": 3.5772727,
                "pitch": 41,
                "velocity": 127,
                "duration": 0.2227273,
                "tempo": 120.0
            },
            {
                "start_time": 3.5772727,
                "end_time": 3.7840909,
                "pitch": 41,
                "velocity": 127,
                "duration": 0.2068182,
                "tempo": 120.0
            },
            {
                "start_time": 3.7840909,
                "end_time": 3.9795455,
                "pitch": 41,
                "velocity": 127,
                "duration": 0.1954545,
                "tempo": 120.0
            },
            {
                "start_time": 3.9795455,
                "end_time": 4.175,
                "pitch": 41,
                "velocity": 127,
                "duration": 0.1954545,
                "tempo": 120.0
            },
            {
                "start_time": 4.175,
                "end_time": 4.3818182,
                "pitch": 41,
                "velocity": 127,
                "duration": 0.2068182,
                "tempo": 120.0
            },
            {
                "start_time": 4.3818182,
                "end_time": 4.575,
                "pitch": 41,
                "velocity": 127,
                "duration": 0.1931818,
                "tempo": 120.0
            },
            {
                "start_time": 4.575,
                "end_time": 4.7931818,
                "pitch": 41,
                "velocity": 127,
                "duration": 0.2181818,
                "tempo": 120.0
            },
            {
                "start_time": 4.7931818,
                "end_time": 5.0113636,
                "pitch": 41,
                "velocity": 127,
                "duration": 0.2181818,
                "tempo": 120.0
            },
            {
                "start_time": 5.0113636,
                "end_time": 5.2318182,
                "pitch": 41,
                "velocity": 127,
                "duration": 0.2204545,
                "tempo": 120.0
            },
            {
                "start_time": 5.2318182,
                "end_time": 5.4386364,
                "pitch": 41,
                "velocity": 127,
                "duration": 0.2068182,
                "tempo": 120.0
            },
            {
                "start_time": 5.4386364,
                "end_time": 5.6568182,
                "pitch": 41,
                "velocity": 127,
                "duration": 0.2181818,
                "tempo": 120.0
            },
            {
                "start_time": 5.6568182,
                "end_time": 5.8568182,
                "pitch": 41,
                "velocity": 127,
                "duration": 0.2,
                "tempo": 120.0
            },
            {
                "start_time": 5.8568182,
                "end_time": 6.0704545,
                "pitch": 41,
                "velocity": 127,
                "duration": 0.2136364,
                "tempo": 120.0
            },
            {
                "start_time": 6.0704545,
                "end_time": 6.2659091,
                "pitch": 41,
                "velocity": 127,
                "duration": 0.1954545,
                "tempo": 120.0
            },
            {
                "start_time": 6.2659091,
                "end_time": 6.4840909,
                "pitch": 41,
                "velocity": 127,
                "duration": 0.2181818,
                "tempo": 120.0
            },
            {
                "start_time": 6.4840909,
                "end_time": 6.6840909,
                "pitch": 41,
                "velocity": 127,
                "duration": 0.2,
                "tempo": 120.0
            },
            {
                "start_time": 6.6840909,
                "end_time": 6.7340909,
                "pitch": 43,
                "velocity": 127,
                "duration": 0.05,
                "tempo": 120.0
            },
            {
                "start_time": 6.7340909,
                "end_time": 6.8022727,
                "pitch": 43,
                "velocity": 127,
                "duration": 0.0681818,
                "tempo": 120.0
            },
            {
                "start_time": 6.8022727,
                "end_time": 6.8681818,
                "pitch": 43,
                "velocity": 127,
                "duration": 0.0659091,
                "tempo": 120.0
            },
            {
                "start_time": 6.8681818,
                "end_time": 6.8863636,
                "pitch": 43,
                "velocity": 127,
                "duration": 0.0181818,
                "tempo": 120.0
            },
            {
                "start_time": 6.8863636,
                "end_time": 6.9522727,
                "pitch": 43,
                "velocity": 127,
                "duration": 0.0659091,
                "tempo": 120.0
            },
            {
                "start_time": 6.9522727,
                "end_time": 7.0204545,
                "pitch": 43,
                "velocity": 127,
                "duration": 0.0681818,
                "tempo": 120.0
            },
            {
                "start_time": 7.0204545,
                "end_time": 7.1045455,
                "pitch": 43,
                "velocity": 127,
                "duration": 0.0840909,
                "tempo": 120.0
            },
            {
                "start_time": 7.1045455,
                "end_time": 7.1522727,
                "pitch": 43,
                "velocity": 127,
                "duration": 0.0477273,
                "tempo": 120.0
            },
            {
                "start_time": 7.1522727,
                "end_time": 7.2181818,
                "pitch": 43,
                "velocity": 127,
                "duration": 0.0659091,
                "tempo": 120.0
            },
            {
                "start_time": 7.2181818,
                "end_time": 7.2840909,
                "pitch": 43,
                "velocity": 127,
                "duration": 0.0659091,
                "tempo": 120.0
            },
            {
                "start_time": 7.2840909,
                "end_time": 7.3,
                "pitch": 43,
                "velocity": 127,
                "duration": 0.0159091,
                "tempo": 120.0
            },
            {
                "start_time": 7.3,
                "end_time": 7.3659091,
                "pitch": 43,
                "velocity": 127,
                "duration": 0.0659091,
                "tempo": 120.0
            },
            {
                "start_time": 7.3659091,
                "end_time": 7.4295455,
                "pitch": 43,
                "velocity": 127,
                "duration": 0.0636364,
                "tempo": 120.0
            },
            {
                "start_time": 7.4295455,
                "end_time": 7.4954545,
                "pitch": 43,
                "velocity": 127,
                "duration": 0.0659091,
                "tempo": 120.0
            },
            {
                "start_time": 7.4954545,
                "end_time": 7.5590909,
                "pitch": 43,
                "velocity": 127,
                "duration": 0.0636364,
                "tempo": 120.0
            },
            {
                "start_time": 7.5590909,
                "end_time": 7.6227273,
                "pitch": 43,
                "velocity": 127,
                "duration": 0.0636364,
                "tempo": 120.0
            },
            {
                "start_time": 7.6227273,
                "end_time": 7.6863636,
                "pitch": 43,
                "velocity": 127,
                "duration": 0.0636364,
                "tempo": 120.0
            },
            {
                "start_time": 7.6863636,
                "end_time": 7.7022727,
                "pitch": 43,
                "velocity": 127,
                "duration": 0.0159091,
                "tempo": 120.0
            },
            {
                "start_time": 7.7022727,
                "end_time": 7.7659091,
                "pitch": 43,
                "velocity": 127,
                "duration": 0.0636364,
                "tempo": 120.0
            },
            {
                "start_time": 7.7659091,
                "end_time": 7.8295455,
                "pitch": 43,
                "velocity": 127,
                "duration": 0.0636364,
                "tempo": 120.0
            },
            {
                "start_time": 7.8295455,
                "end_time": 7.8931818,
                "pitch": 43,
                "velocity": 127,
                "duration": 0.0636364,
                "tempo": 120.0
            },
            {
                "start_time": 7.8931818,
                "end_time": 7.9590909,
                "pitch": 43,
                "velocity": 127,
                "duration": 0.0659091,
                "tempo": 120.0
            },
            {
                "start_time": 7.9590909,
                "end_time": 8.0272727,
                "pitch": 43,
                "velocity": 127,
                "duration": 0.0681818,
                "tempo": 120.0
            },
            {
                "start_time": 8.0272727,
                "end_time": 8.0931818,
                "pitch": 43,
                "velocity": 127,
                "duration": 0.0659091,
                "tempo": 120.0
            },
            {
                "start_time": 8.0931818,
                "end_time": 8.1090909,
                "pitch": 43,
                "velocity": 127,
                "duration": 0.0159091,
                "tempo": 120.0
            },
            {
                "start_time": 8.1090909,
                "end_time": 8.1772727,
                "pitch": 43,
                "velocity": 127,
                "duration": 0.0681818,
                "tempo": 120.0
            },
            {
                "start_time": 8.1772727,
                "end_time": 8.2431818,
                "pitch": 43,
                "velocity": 127,
                "duration": 0.0659091,
                "tempo": 120.0
            },
            {
                "start_time": 8.2431818,
                "end_time": 8.3272727,
                "pitch": 43,
                "velocity": 127,
                "duration": 0.0840909,
                "tempo": 120.0
            },
            {
                "start_time": 8.3272727,
                "end_time": 8.3795455,
                "pitch": 43,
                "velocity": 127,
                "duration": 0.0522727,
                "tempo": 120.0
            },
            {
                "start_time": 8.3795455,
                "end_time": 8.4477273,
                "pitch": 43,
                "velocity": 127,
                "duration": 0.0681818,
                "tempo": 120.0
            },
            {
                "start_time": 8.4477273,
                "end_time": 8.5159091,
                "pitch": 43,
                "velocity": 127,
                "duration": 0.0681818,
                "tempo": 120.0
            },
            {
                "start_time": 8.5159091,
                "end_time": 8.5840909,
                "pitch": 43,
                "velocity": 127,
                "duration": 0.0681818,
                "tempo": 120.0
            },
            {
                "start_time": 8.5840909,
                "end_time": 8.6545455,
                "pitch": 43,
                "velocity": 127,
                "duration": 0.0704545,
                "tempo": 120.0
            },
            {
                "start_time": 8.6545455,
                "end_time": 8.7227273,
                "pitch": 43,
                "velocity": 127,
                "duration": 0.0681818,
                "tempo": 120.0
            },
            {
                "start_time": 8.7227273,
                "end_time": 8.7386364,
                "pitch": 43,
                "velocity": 127,
                "duration": 0.0159091,
                "tempo": 120.0
            },
            {
                "start_time": 8.7386364,
                "end_time": 8.8045455,
                "pitch": 43,
                "velocity": 127,
                "duration": 0.0659091,
                "tempo": 120.0
            },
            {
                "start_time": 8.8045455,
                "end_time": 8.8704545,
                "pitch": 43,
                "velocity": 127,
                "duration": 0.0659091,
                "tempo": 120.0
            },
            {
                "start_time": 8.8704545,
                "end_time": 8.9363636,
                "pitch": 43,
                "velocity": 127,
                "duration": 0.0659091,
                "tempo": 120.0
            },
            {
                "start_time": 8.9363636,
                "end_time": 9.0,
                "pitch": 43,
                "velocity": 127,
                "duration": 0.0636364,
                "tempo": 120.0
            },
            {
                "start_time": 9.0,
                "end_time": 9.0659091,
                "pitch": 43,
                "velocity": 127,
                "duration": 0.0659091,
                "tempo": 120.0
            },
            {
                "start_time": 9.0659091,
                "end_time": 9.1318182,
                "pitch": 43,
                "velocity": 127,
                "duration": 0.0659091,
                "tempo": 120.0
            },
            {
                "start_time": 9.1318182,
                "end_time": 9.1636364,
                "pitch": 43,
                "velocity": 127,
                "duration": 0.0318182,
                "tempo": 120.0
            },
            {
                "start_time": 9.1636364,
                "end_time": 9.2136364,
                "pitch": 43,
                "velocity": 127,
                "duration": 0.05,
                "tempo": 120.0
            },
            {
                "start_time": 9.2136364,
                "end_time": 9.2840909,
                "pitch": 43,
                "velocity": 127,
                "duration": 0.0704545,
                "tempo": 120.0
            },
            {
                "start_time": 9.2840909,
                "end_time": 9.3681818,
                "pitch": 43,
                "velocity": 127,
                "duration": 0.0840909,
                "tempo": 120.0
            },
            {
                "start_time": 9.3681818,
                "end_time": 9.4204545,
                "pitch": 43,
                "velocity": 127,
                "duration": 0.0522727,
                "tempo": 120.0
            },
            {
                "start_time": 9.4204545,
                "end_time": 9.4886364,
                "pitch": 43,
                "velocity": 127,
                "duration": 0.0681818,
                "tempo": 120.0
            },
            {
                "start_time": 9.4886364,
                "end_time": 9.5568182,
                "pitch": 43,
                "velocity": 127,
                "duration": 0.0681818,
                "tempo": 120.0
            },
            {
                "start_time": 9.5568182,
                "end_time": 9.5909091,
                "pitch": 43,
                "velocity": 127,
                "duration": 0.0340909,
                "tempo": 120.0
            },
            {
                "start_time": 9.5909091,
                "end_time": 9.6409091,
                "pitch": 43,
                "velocity": 127,
                "duration": 0.05,
                "tempo": 120.0
            },
            {
                "start_time": 9.6409091,
                "end_time": 9.7068182,
                "pitch": 43,
                "velocity": 127,
                "duration": 0.0659091,
                "tempo": 120.0
            },
            {
                "start_time": 9.7068182,
                "end_time": 9.7863636,
                "pitch": 43,
                "velocity": 127,
                "duration": 0.0795455,
                "tempo": 120.0
            },
            {
                "start_time": 9.7863636,
                "end_time": 9.8363636,
                "pitch": 43,
                "velocity": 127,
                "duration": 0.05,
                "tempo": 120.0
            },
            {
                "start_time": 9.8363636,
                "end_time": 9.9022727,
                "pitch": 43,
                "velocity": 127,
                "duration": 0.0659091,
                "tempo": 120.0
            },
            {
                "start_time": 9.9022727,
                "end_time": 9.9659091,
                "pitch": 43,
                "velocity": 127,
                "duration": 0.0636364,
                "tempo": 120.0
            },
            {
                "start_time": 9.9659091,
                "end_time": 10.0,
                "pitch": 43,
                "velocity": 127,
                "duration": 0.0340909,
                "tempo": 120.0
            },
            {
                "start_time": 10.0,
                "end_time": 10.1840909,
                "pitch": 46,
                "velocity": 127,
                "duration": 0.1840909,
                "tempo": 120.0
            },
            {
                "start_time": 10.1840909,
                "end_time": 10.4022727,
                "pitch": 46,
                "velocity": 127,
                "duration": 0.2181818,
                "tempo": 120.0
            },
            {
                "start_time": 10.4022727,
                "end_time": 10.5977273,
                "pitch": 46,
                "velocity": 127,
                "duration": 0.1954545,
                "tempo": 120.0
            },
            {
                "start_time": 10.5977273,
                "end_time": 10.8090909,
                "pitch": 46,
                "velocity": 127,
                "duration": 0.2113636,
                "tempo": 120.0
            },
            {
                "start_time": 10.8090909,
                "end_time": 11.0068182,
                "pitch": 46,
                "velocity": 127,
                "duration": 0.1977273,
                "tempo": 120.0
            },
            {
                "start_time": 11.0068182,
                "end_time": 11.2340909,
                "pitch": 46,
                "velocity": 127,
                "duration": 0.2272727,
                "tempo": 120.0
            },
            {
                "start_time": 11.2340909,
                "end_time": 11.4386364,
                "pitch": 46,
                "velocity": 127,
                "duration": 0.2045455,
                "tempo": 120.0
            },
            {
                "start_time": 11.4386364,
                "end_time": 11.6613636,
                "pitch": 46,
                "velocity": 127,
                "duration": 0.2227273,
                "tempo": 120.0
            },
            {
                "start_time": 11.6613636,
                "end_time": 11.8409091,
                "pitch": 46,
                "velocity": 127,
                "duration": 0.1795455,
                "tempo": 120.0
            },
            {
                "start_time": 11.8409091,
                "end_time": 12.0522727,
                "pitch": 46,
                "velocity": 127,
                "duration": 0.2113636,
                "tempo": 120.0
            },
            {
                "start_time": 12.0522727,
                "end_time": 12.25,
                "pitch": 46,
                "velocity": 127,
                "duration": 0.1977273,
                "tempo": 120.0
            },
            {
                "start_time": 12.25,
                "end_time": 12.4613636,
                "pitch": 46,
                "velocity": 127,
                "duration": 0.2113636,
                "tempo": 120.0
            },
            {
                "start_time": 12.4613636,
                "end_time": 12.6568182,
                "pitch": 46,
                "velocity": 127,
                "duration": 0.1954545,
                "tempo": 120.0
            },
            {
                "start_time": 12.6568182,
                "end_time": 12.8681818,
                "pitch": 46,
                "velocity": 127,
                "duration": 0.2113636,
                "tempo": 120.0
            },
            {
                "start_time": 12.8681818,
                "end_time": 13.0727273,
                "pitch": 46,
                "velocity": 127,
                "duration": 0.2045455,
                "tempo": 120.0
            },
            {
                "start_time": 13.0727273,
                "end_time": 13.3136364,
                "pitch": 46,
                "velocity": 127,
                "duration": 0.2409091,
                "tempo": 120.0
            },
            {
                "start_time": 13.3136364,
                "end_time": 13.5136364,
                "pitch": 38,
                "velocity": 127,
                "duration": 0.2,
                "tempo": 120.0
            },
            {
                "start_time": 13.5136364,
                "end_time": 13.7318182,
                "pitch": 38,
                "velocity": 127,
                "duration": 0.2181818,
                "tempo": 120.0
            },
            {
                "start_time": 13.7318182,
                "end_time": 13.9340909,
                "pitch": 38,
                "velocity": 127,
                "duration": 0.2022727,
                "tempo": 120.0
            },
            {
                "start_time": 13.9340909,
                "end_time": 14.1340909,
                "pitch": 38,
                "velocity": 127,
                "duration": 0.2,
                "tempo": 120.0
            },
            {
                "start_time": 14.1340909,
                "end_time": 14.3431818,
                "pitch": 38,
                "velocity": 127,
                "duration": 0.2090909,
                "tempo": 120.0
            },
            {
                "start_time": 14.3431818,
                "end_time": 14.55,
                "pitch": 38,
                "velocity": 127,
                "duration": 0.2068182,
                "tempo": 120.0
            },
            {
                "start_time": 14.55,
                "end_time": 14.7568182,
                "pitch": 38,
                "velocity": 127,
                "duration": 0.2068182,
                "tempo": 120.0
            },
            {
                "start_time": 14.7568182,
                "end_time": 14.9795455,
                "pitch": 38,
                "velocity": 127,
                "duration": 0.2227273,
                "tempo": 120.0
            },
            {
                "start_time": 14.9795455,
                "end_time": 15.1590909,
                "pitch": 38,
                "velocity": 127,
                "duration": 0.1795455,
                "tempo": 120.0
            },
            {
                "start_time": 15.1590909,
                "end_time": 15.3863636,
                "pitch": 38,
                "velocity": 127,
                "duration": 0.2272727,
                "tempo": 120.0
            },
            {
                "start_time": 15.3863636,
                "end_time": 15.5886364,
                "pitch": 38,
                "velocity": 127,
                "duration": 0.2022727,
                "tempo": 120.0
            },
            {
                "start_time": 15.5886364,
                "end_time": 15.8068182,
                "pitch": 38,
                "velocity": 127,
                "duration": 0.2181818,
                "tempo": 120.0
            },
            {
                "start_time": 15.8068182,
                "end_time": 16.0068182,
                "pitch": 38,
                "velocity": 127,
                "duration": 0.2,
                "tempo": 120.0
            },
            {
                "start_time": 16.0068182,
                "end_time": 16.225,
                "pitch": 38,
                "velocity": 127,
                "duration": 0.2181818,
                "tempo": 120.0
            },
            {
                "start_time": 16.225,
                "end_time": 16.4272727,
                "pitch": 38,
                "velocity": 127,
                "duration": 0.2022727,
                "tempo": 120.0
            },
            {
                "start_time": 16.4272727,
                "end_time": 16.6454545,
                "pitch": 38,
                "velocity": 127,
                "duration": 0.2181818,
                "tempo": 120.0
            },
            {
                "start_time": 16.6454545,
                "end_time": 16.8454545,
                "pitch": 41,
                "velocity": 127,
                "duration": 0.2,
                "tempo": 120.0
            },
            {
                "start_time": 16.8454545,
                "end_time": 17.0477273,
                "pitch": 41,
                "velocity": 127,
                "duration": 0.2022727,
                "tempo": 120.0
            },
            {
                "start_time": 17.0477273,
                "end_time": 17.2545455,
                "pitch": 41,
                "velocity": 127,
                "duration": 0.2068182,
                "tempo": 120.0
            },
            {
                "start_time": 17.2545455,
                "end_time": 17.4431818,
                "pitch": 41,
                "velocity": 127,
                "duration": 0.1886364,
                "tempo": 120.0
            },
            {
                "start_time": 17.4431818,
                "end_time": 17.6568182,
                "pitch": 41,
                "velocity": 127,
                "duration": 0.2136364,
                "tempo": 120.0
            },
            {
                "start_time": 17.6568182,
                "end_time": 17.8522727,
                "pitch": 41,
                "velocity": 127,
                "duration": 0.1954545,
                "tempo": 120.0
            },
            {
                "start_time": 17.8522727,
                "end_time": 18.0704545,
                "pitch": 41,
                "velocity": 127,
                "duration": 0.2181818,
                "tempo": 120.0
            },
            {
                "start_time": 18.0704545,
                "end_time": 18.2704545,
                "pitch": 41,
                "velocity": 127,
                "duration": 0.2,
                "tempo": 120.0
            },
            {
                "start_time": 18.2704545,
                "end_time": 18.4727273,
                "pitch": 41,
                "velocity": 127,
                "duration": 0.2022727,
                "tempo": 120.0
            },
            {
                "start_time": 18.4727273,
                "end_time": 18.6727273,
                "pitch": 41,
                "velocity": 127,
                "duration": 0.2,
                "tempo": 120.0
            },
            {
                "start_time": 18.6727273,
                "end_time": 18.9022727,
                "pitch": 41,
                "velocity": 127,
                "duration": 0.2295455,
                "tempo": 120.0
            },
            {
                "start_time": 18.9022727,
                "end_time": 19.0977273,
                "pitch": 41,
                "velocity": 127,
                "duration": 0.1954545,
                "tempo": 120.0
            },
            {
                "start_time": 19.0977273,
                "end_time": 19.2931818,
                "pitch": 41,
                "velocity": 127,
                "duration": 0.1954545,
                "tempo": 120.0
            },
            {
                "start_time": 19.2931818,
                "end_time": 19.4886364,
                "pitch": 41,
                "velocity": 127,
                "duration": 0.1954545,
                "tempo": 120.0
            },
            {
                "start_time": 19.4886364,
                "end_time": 19.7227273,
                "pitch": 41,
                "velocity": 127,
                "duration": 0.2340909,
                "tempo": 120.0
            },
            {
                "start_time": 19.7227273,
                "end_time": 19.925,
                "pitch": 41,
                "velocity": 127,
                "duration": 0.2022727,
                "tempo": 120.0
            },
            {
                "start_time": 19.925,
                "end_time": 19.975,
                "pitch": 43,
                "velocity": 127,
                "duration": 0.05,
                "tempo": 120.0
            },
            {
                "start_time": 19.975,
                "end_time": 20.0454545,
                "pitch": 43,
                "velocity": 127,
                "duration": 0.0704545,
                "tempo": 120.0
            },
            {
                "start_time": 20.0454545,
                "end_time": 20.1136364,
                "pitch": 43,
                "velocity": 127,
                "duration": 0.0681818,
                "tempo": 120.0
            },
            {
                "start_time": 20.1136364,
                "end_time": 20.1477273,
                "pitch": 43,
                "velocity": 127,
                "duration": 0.0340909,
                "tempo": 120.0
            },
            {
                "start_time": 20.1477273,
                "end_time": 20.1977273,
                "pitch": 43,
                "velocity": 127,
                "duration": 0.05,
                "tempo": 120.0
            },
            {
                "start_time": 20.1977273,
                "end_time": 20.2681818,
                "pitch": 43,
                "velocity": 127,
                "duration": 0.0704545,
                "tempo": 120.0
            },
            {
                "start_time": 20.2681818,
                "end_time": 20.3522727,
                "pitch": 43,
                "velocity": 127,
                "duration": 0.0840909,
                "tempo": 120.0
            },
            {
                "start_time": 20.3522727,
                "end_time": 20.4022727,
                "pitch": 43,
                "velocity": 127,
                "duration": 0.05,
                "tempo": 120.0
            },
            {
                "start_time": 20.4022727,
                "end_time": 20.4681818,
                "pitch": 43,
                "velocity": 127,
                "duration": 0.0659091,
                "tempo": 120.0
            },
            {
                "start_time": 20.4681818,
                "end_time": 20.5318182,
                "pitch": 43,
                "velocity": 127,
                "duration": 0.0636364,
                "tempo": 120.0
            },
            {
                "start_time": 20.5318182,
                "end_time": 20.5659091,
                "pitch": 43,
                "velocity": 127,
                "duration": 0.0340909,
                "tempo": 120.0
            },
            {
                "start_time": 20.5659091,
                "end_time": 20.6136364,
                "pitch": 43,
                "velocity": 127,
                "duration": 0.0477273,
                "tempo": 120.0
            },
            {
                "start_time": 20.6136364,
                "end_time": 20.6795455,
                "pitch": 43,
                "velocity": 127,
                "duration": 0.0659091,
                "tempo": 120.0
            },
            {
                "start_time": 20.6795455,
                "end_time": 20.7613636,
                "pitch": 43,
                "velocity": 127,
                "duration": 0.0818182,
                "tempo": 120.0
            },
            {
                "start_time": 20.7613636,
                "end_time": 20.8113636,
                "pitch": 43,
                "velocity": 127,
                "duration": 0.05,
                "tempo": 120.0
            },
            {
                "start_time": 20.8113636,
                "end_time": 20.8772727,
                "pitch": 43,
                "velocity": 127,
                "duration": 0.0659091,
                "tempo": 120.0
            },
            {
                "start_time": 20.8772727,
                "end_time": 20.9454545,
                "pitch": 43,
                "velocity": 127,
                "duration": 0.0681818,
                "tempo": 120.0
            },
            {
                "start_time": 20.9454545,
                "end_time": 20.9795455,
                "pitch": 43,
                "velocity": 127,
                "duration": 0.0340909,
                "tempo": 120.0
            },
            {
                "start_time": 20.9795455,
                "end_time": 21.0295455,
                "pitch": 43,
                "velocity": 127,
                "duration": 0.05,
                "tempo": 120.0
            },
            {
                "start_time": 21.0295455,
                "end_time": 21.0954545,
                "pitch": 43,
                "velocity": 127,
                "duration": 0.0659091,
                "tempo": 120.0
            },
            {
                "start_time": 21.0954545,
                "end_time": 21.1795455,
                "pitch": 43,
                "velocity": 127,
                "duration": 0.0840909,
                "tempo": 120.0
            },
            {
                "start_time": 21.1795455,
                "end_time": 21.2295455,
                "pitch": 43,
                "velocity": 127,
                "duration": 0.05,
                "tempo": 120.0
            },
            {
                "start_time": 21.2295455,
                "end_time": 21.2931818,
                "pitch": 43,
                "velocity": 127,
                "duration": 0.0636364,
                "tempo": 120.0
            },
            {
                "start_time": 21.2931818,
                "end_time": 21.3590909,
                "pitch": 43,
                "velocity": 127,
                "duration": 0.0659091,
                "tempo": 120.0
            },
            {
                "start_time": 21.3590909,
                "end_time": 21.3931818,
                "pitch": 43,
                "velocity": 127,
                "duration": 0.0340909,
                "tempo": 120.0
            },
            {
                "start_time": 21.3931818,
                "end_time": 21.4409091,
                "pitch": 43,
                "velocity": 127,
                "duration": 0.0477273,
                "tempo": 120.0
            },
            {
                "start_time": 21.4409091,
                "end_time": 21.5068182,
                "pitch": 43,
                "velocity": 127,
                "duration": 0.0659091,
                "tempo": 120.0
            },
            {
                "start_time": 21.5068182,
                "end_time": 21.5886364,
                "pitch": 43,
                "velocity": 127,
                "duration": 0.0818182,
                "tempo": 120.0
            },
            {
                "start_time": 21.5886364,
                "end_time": 21.6386364,
                "pitch": 43,
                "velocity": 127,
                "duration": 0.05,
                "tempo": 120.0
            },
            {
                "start_time": 21.6386364,
                "end_time": 21.7045455,
                "pitch": 43,
                "velocity": 127,
                "duration": 0.0659091,
                "tempo": 120.0
            },
            {
                "start_time": 21.7045455,
                "end_time": 21.7727273,
                "pitch": 43,
                "velocity": 127,
                "duration": 0.0681818,
                "tempo": 120.0
            },
            {
                "start_time": 21.7727273,
                "end_time": 21.7886364,
                "pitch": 43,
                "velocity": 127,
                "duration": 0.0159091,
                "tempo": 120.0
            },
            {
                "start_time": 21.7886364,
                "end_time": 21.8568182,
                "pitch": 43,
                "velocity": 127,
                "duration": 0.0681818,
                "tempo": 120.0
            },
            {
                "start_time": 21.8568182,
                "end_time": 21.9227273,
                "pitch": 43,
                "velocity": 127,
                "duration": 0.0659091,
                "tempo": 120.0
            },
            {
                "start_time": 21.9227273,
                "end_time": 21.9909091,
                "pitch": 43,
                "velocity": 127,
                "duration": 0.0681818,
                "tempo": 120.0
            },
            {
                "start_time": 21.9909091,
                "end_time": 22.0568182,
                "pitch": 43,
                "velocity": 127,
                "duration": 0.0659091,
                "tempo": 120.0
            },
            {
                "start_time": 22.0568182,
                "end_time": 22.1204545,
                "pitch": 43,
                "velocity": 127,
                "duration": 0.0636364,
                "tempo": 120.0
            },
            {
                "start_time": 22.1204545,
                "end_time": 22.1863636,
                "pitch": 43,
                "velocity": 127,
                "duration": 0.0659091,
                "tempo": 120.0
            },
            {
                "start_time": 22.1863636,
                "end_time": 22.2181818,
                "pitch": 43,
                "velocity": 127,
                "duration": 0.0318182,
                "tempo": 120.0
            },
            {
                "start_time": 22.2181818,
                "end_time": 22.2681818,
                "pitch": 43,
                "velocity": 127,
                "duration": 0.05,
                "tempo": 120.0
            },
            {
                "start_time": 22.2681818,
                "end_time": 22.3340909,
                "pitch": 43,
                "velocity": 127,
                "duration": 0.0659091,
                "tempo": 120.0
            },
            {
                "start_time": 22.3340909,
                "end_time": 22.4136364,
                "pitch": 43,
                "velocity": 127,
                "duration": 0.0795455,
                "tempo": 120.0
            },
            {
                "start_time": 22.4136364,
                "end_time": 22.4636364,
                "pitch": 43,
                "velocity": 127,
                "duration": 0.05,
                "tempo": 120.0
            },
            {
                "start_time": 22.4636364,
                "end_time": 22.5295455,
                "pitch": 43,
                "velocity": 127,
                "duration": 0.0659091,
                "tempo": 120.0
            },
            {
                "start_time": 22.5295455,
                "end_time": 22.5931818,
                "pitch": 43,
                "velocity": 127,
                "duration": 0.0636364,
                "tempo": 120.0
            },
            {
                "start_time": 22.5931818,
                "end_time": 22.6272727,
                "pitch": 43,
                "velocity": 127,
                "duration": 0.0340909,
                "tempo": 120.0
            },
            {
                "start_time": 22.6272727,
                "end_time": 22.675,
                "pitch": 43,
                "velocity": 127,
                "duration": 0.0477273,
                "tempo": 120.0
            },
            {
                "start_time": 22.675,
                "end_time": 22.7409091,
                "pitch": 43,
                "velocity": 127,
                "duration": 0.0659091,
                "tempo": 120.0
            },
            {
                "start_time": 22.7409091,
                "end_time": 22.8227273,
                "pitch": 43,
                "velocity": 127,
                "duration": 0.0818182,
                "tempo": 120.0
            },
            {
                "start_time": 22.8227273,
                "end_time": 22.8727273,
                "pitch": 43,
                "velocity": 127,
                "duration": 0.05,
                "tempo": 120.0
            },
            {
                "start_time": 22.8727273,
                "end_time": 22.9409091,
                "pitch": 43,
                "velocity": 127,
                "duration": 0.0681818,
                "tempo": 120.0
            },
            {
                "start_time": 22.9409091,
                "end_time": 23.0113636,
                "pitch": 43,
                "velocity": 127,
                "duration": 0.0704545,
                "tempo": 120.0
            },
            {
                "start_time": 23.0113636,
                "end_time": 23.0454545,
                "pitch": 43,
                "velocity": 127,
                "duration": 0.0340909,
                "tempo": 120.0
            },
            {
                "start_time": 23.0454545,
                "end_time": 23.0954545,
                "pitch": 43,
                "velocity": 127,
                "duration": 0.05,
                "tempo": 120.0
            },
            {
                "start_time": 23.0954545,
                "end_time": 23.1636364,
                "pitch": 43,
                "velocity": 127,
                "duration": 0.0681818,
                "tempo": 120.0
            },
            {
                "start_time": 23.1636364,
                "end_time": 23.25,
                "pitch": 43,
                "velocity": 127,
                "duration": 0.0863636,
                "tempo": 120.0
            },
            {
                "start_time": 23.25,
                "end_time": 23.4522727,
                "pitch": 45,
                "velocity": 127,
                "duration": 0.2022727,
                "tempo": 120.0
            },
            {
                "start_time": 23.4522727,
                "end_time": 23.6704545,
                "pitch": 45,
                "velocity": 127,
                "duration": 0.2181818,
                "tempo": 120.0
            },
            {
                "start_time": 23.6704545,
                "end_time": 23.8818182,
                "pitch": 45,
                "velocity": 127,
                "duration": 0.2113636,
                "tempo": 120.0
            },
            {
                "start_time": 23.8818182,
                "end_time": 24.0772727,
                "pitch": 45,
                "velocity": 127,
                "duration": 0.1954545,
                "tempo": 120.0
            },
            {
                "start_time": 24.0772727,
                "end_time": 24.2795455,
                "pitch": 45,
                "velocity": 127,
                "duration": 0.2022727,
                "tempo": 120.0
            },
            {
                "start_time": 24.2795455,
                "end_time": 24.4954545,
                "pitch": 45,
                "velocity": 127,
                "duration": 0.2159091,
                "tempo": 120.0
            },
            {
                "start_time": 24.4954545,
                "end_time": 24.7090909,
                "pitch": 45,
                "velocity": 127,
                "duration": 0.2136364,
                "tempo": 120.0
            },
            {
                "start_time": 24.7090909,
                "end_time": 24.9045455,
                "pitch": 45,
                "velocity": 127,
                "duration": 0.1954545,
                "tempo": 120.0
            },
            {
                "start_time": 24.9045455,
                "end_time": 25.1045455,
                "pitch": 45,
                "velocity": 127,
                "duration": 0.2,
                "tempo": 120.0
            },
            {
                "start_time": 25.1045455,
                "end_time": 25.3068182,
                "pitch": 45,
                "velocity": 127,
                "duration": 0.2022727,
                "tempo": 120.0
            },
            {
                "start_time": 25.3068182,
                "end_time": 25.4977273,
                "pitch": 45,
                "velocity": 127,
                "duration": 0.1909091,
                "tempo": 120.0
            },
            {
                "start_time": 25.4977273,
                "end_time": 25.7227273,
                "pitch": 45,
                "velocity": 127,
                "duration": 0.225,
                "tempo": 120.0
            },
            {
                "start_time": 25.7227273,
                "end_time": 25.925,
                "pitch": 45,
                "velocity": 127,
                "duration": 0.2022727,
                "tempo": 120.0
            },
            {
                "start_time": 25.925,
                "end_time": 26.125,
                "pitch": 45,
                "velocity": 127,
                "duration": 0.2,
                "tempo": 120.0
            },
            {
                "start_time": 26.1431818,
                "end_time": 26.3295455,
                "pitch": 45,
                "velocity": 127,
                "duration": 0.1863636,
                "tempo": 120.0
            },
            {
                "start_time": 26.3295455,
                "end_time": 26.5704545,
                "pitch": 45,
                "velocity": 127,
                "duration": 0.2409091,
                "tempo": 120.0
            },
            {
                "start_time": 26.5704545,
                "end_time": 26.7727273,
                "pitch": 38,
                "velocity": 127,
                "duration": 0.2022727,
                "tempo": 120.0
            },
            {
                "start_time": 26.7727273,
                "end_time": 26.9886364,
                "pitch": 38,
                "velocity": 127,
                "duration": 0.2159091,
                "tempo": 120.0
            },
            {
                "start_time": 26.9886364,
                "end_time": 27.1863636,
                "pitch": 38,
                "velocity": 127,
                "duration": 0.1977273,
                "tempo": 120.0
            },
            {
                "start_time": 27.1863636,
                "end_time": 27.3977273,
                "pitch": 38,
                "velocity": 127,
                "duration": 0.2113636,
                "tempo": 120.0
            },
            {
                "start_time": 27.3977273,
                "end_time": 27.5977273,
                "pitch": 38,
                "velocity": 127,
                "duration": 0.2,
                "tempo": 120.0
            },
            {
                "start_time": 27.5977273,
                "end_time": 27.8,
                "pitch": 38,
                "velocity": 127,
                "duration": 0.2022727,
                "tempo": 120.0
            },
            {
                "start_time": 27.8,
                "end_time": 28.0113636,
                "pitch": 38,
                "velocity": 127,
                "duration": 0.2113636,
                "tempo": 120.0
            },
            {
                "start_time": 28.0113636,
                "end_time": 28.225,
                "pitch": 38,
                "velocity": 127,
                "duration": 0.2136364,
                "tempo": 120.0
            },
            {
                "start_time": 28.225,
                "end_time": 28.425,
                "pitch": 38,
                "velocity": 127,
                "duration": 0.2,
                "tempo": 120.0
            },
            {
                "start_time": 28.425,
                "end_time": 28.6431818,
                "pitch": 38,
                "velocity": 127,
                "duration": 0.2181818,
                "tempo": 120.0
            },
            {
                "start_time": 28.6431818,
                "end_time": 28.8454545,
                "pitch": 38,
                "velocity": 127,
                "duration": 0.2022727,
                "tempo": 120.0
            },
            {
                "start_time": 28.8454545,
                "end_time": 29.0454545,
                "pitch": 38,
                "velocity": 127,
                "duration": 0.2,
                "tempo": 120.0
            },
            {
                "start_time": 29.0454545,
                "end_time": 29.2545455,
                "pitch": 38,
                "velocity": 127,
                "duration": 0.2090909,
                "tempo": 120.0
            },
            {
                "start_time": 29.2545455,
                "end_time": 29.4454545,
                "pitch": 38,
                "velocity": 127,
                "duration": 0.1909091,
                "tempo": 120.0
            },
            {
                "start_time": 29.4454545,
                "end_time": 29.6636364,
                "pitch": 38,
                "velocity": 127,
                "duration": 0.2181818,
                "tempo": 120.0
            },
            {
                "start_time": 29.6636364,
                "end_time": 29.8636364,
                "pitch": 38,
                "velocity": 127,
                "duration": 0.2,
                "tempo": 120.0
            },
            {
                "start_time": 29.8636364,
                "end_time": 30.0659091,
                "pitch": 38,
                "velocity": 127,
                "duration": 0.2022727,
                "tempo": 120.0
            },
            {
                "start_time": 30.0659091,
                "end_time": 30.2840909,
                "pitch": 38,
                "velocity": 127,
                "duration": 0.2181818,
                "tempo": 120.0
            },
            {
                "start_time": 30.2840909,
                "end_time": 30.4795455,
                "pitch": 38,
                "velocity": 127,
                "duration": 0.1954545,
                "tempo": 120.0
            },
            {
                "start_time": 30.4795455,
                "end_time": 30.6909091,
                "pitch": 38,
                "velocity": 127,
                "duration": 0.2113636,
                "tempo": 120.0
            },
            {
                "start_time": 30.6909091,
                "end_time": 30.8931818,
                "pitch": 38,
                "velocity": 127,
                "duration": 0.2022727,
                "tempo": 120.0
            },
            {
                "start_time": 30.8931818,
                "end_time": 31.1113636,
                "pitch": 38,
                "velocity": 127,
                "duration": 0.2181818,
                "tempo": 120.0
            },
            {
                "start_time": 31.1113636,
                "end_time": 31.3068182,
                "pitch": 38,
                "velocity": 127,
                "duration": 0.1954545,
                "tempo": 120.0
            },
            {
                "start_time": 31.3068182,
                "end_time": 31.5181818,
                "pitch": 38,
                "velocity": 127,
                "duration": 0.2113636,
                "tempo": 120.0
            },
            {
                "start_time": 31.5181818,
                "end_time": 31.7227273,
                "pitch": 38,
                "velocity": 127,
                "duration": 0.2045455,
                "tempo": 120.0
            },
            {
                "start_time": 31.7227273,
                "end_time": 31.9454545,
                "pitch": 38,
                "velocity": 127,
                "duration": 0.2227273,
                "tempo": 120.0
            },
            {
                "start_time": 31.9454545,
                "end_time": 32.1409091,
                "pitch": 38,
                "velocity": 127,
                "duration": 0.1954545,
                "tempo": 120.0
            },
            {
                "start_time": 32.1409091,
                "end_time": 32.3545455,
                "pitch": 38,
                "velocity": 127,
                "duration": 0.2136364,
                "tempo": 120.0
            },
            {
                "start_time": 32.3545455,
                "end_time": 32.5545455,
                "pitch": 38,
                "velocity": 127,
                "duration": 0.2,
                "tempo": 120.0
            },
            {
                "start_time": 32.5545455,
                "end_time": 32.7727273,
                "pitch": 38,
                "velocity": 127,
                "duration": 0.2181818,
                "tempo": 120.0
            },
            {
                "start_time": 32.7727273,
                "end_time": 32.9840909,
                "pitch": 38,
                "velocity": 127,
                "duration": 0.2113636,
                "tempo": 120.0
            },
            {
                "start_time": 32.9840909,
                "end_time": 33.1977273,
                "pitch": 36,
                "velocity": 127,
                "duration": 0.2136364,
                "tempo": 120.0
            },
            {
                "start_time": 33.1977273,
                "end_time": 33.4022727,
                "pitch": 36,
                "velocity": 127,
                "duration": 0.2045455,
                "tempo": 120.0
            },
            {
                "start_time": 33.4022727,
                "end_time": 33.625,
                "pitch": 36,
                "velocity": 127,
                "duration": 0.2227273,
                "tempo": 120.0
            },
            {
                "start_time": 33.625,
                "end_time": 33.8090909,
                "pitch": 36,
                "velocity": 127,
                "duration": 0.1840909,
                "tempo": 120.0
            },
            {
                "start_time": 33.8090909,
                "end_time": 34.0272727,
                "pitch": 36,
                "velocity": 127,
                "duration": 0.2181818,
                "tempo": 120.0
            },
            {
                "start_time": 34.0272727,
                "end_time": 34.2340909,
                "pitch": 36,
                "velocity": 127,
                "duration": 0.2068182,
                "tempo": 120.0
            },
            {
                "start_time": 34.2340909,
                "end_time": 34.425,
                "pitch": 36,
                "velocity": 127,
                "duration": 0.1909091,
                "tempo": 120.0
            },
            {
                "start_time": 34.425,
                "end_time": 34.6431818,
                "pitch": 36,
                "velocity": 127,
                "duration": 0.2181818,
                "tempo": 120.0
            },
            {
                "start_time": 34.6431818,
                "end_time": 34.8272727,
                "pitch": 36,
                "velocity": 127,
                "duration": 0.1840909,
                "tempo": 120.0
            },
            {
                "start_time": 34.8272727,
                "end_time": 35.05,
                "pitch": 36,
                "velocity": 127,
                "duration": 0.2227273,
                "tempo": 120.0
            },
            {
                "start_time": 35.05,
                "end_time": 35.2409091,
                "pitch": 36,
                "velocity": 127,
                "duration": 0.1909091,
                "tempo": 120.0
            },
            {
                "start_time": 35.2409091,
                "end_time": 35.4454545,
                "pitch": 36,
                "velocity": 127,
                "duration": 0.2045455,
                "tempo": 120.0
            },
            {
                "start_time": 35.4454545,
                "end_time": 35.6681818,
                "pitch": 36,
                "velocity": 127,
                "duration": 0.2227273,
                "tempo": 120.0
            },
            {
                "start_time": 35.6681818,
                "end_time": 35.8704545,
                "pitch": 36,
                "velocity": 127,
                "duration": 0.2022727,
                "tempo": 120.0
            },
            {
                "start_time": 35.8704545,
                "end_time": 36.0886364,
                "pitch": 36,
                "velocity": 127,
                "duration": 0.2181818,
                "tempo": 120.0
            },
            {
                "start_time": 36.0886364,
                "end_time": 36.2840909,
                "pitch": 36,
                "velocity": 127,
                "duration": 0.1954545,
                "tempo": 120.0
            },
            {
                "start_time": 36.2840909,
                "end_time": 36.4795455,
                "pitch": 36,
                "velocity": 127,
                "duration": 0.1954545,
                "tempo": 120.0
            },
            {
                "start_time": 36.4795455,
                "end_time": 36.6909091,
                "pitch": 36,
                "velocity": 127,
                "duration": 0.2113636,
                "tempo": 120.0
            },
            {
                "start_time": 36.6909091,
                "end_time": 36.9022727,
                "pitch": 36,
                "velocity": 127,
                "duration": 0.2113636,
                "tempo": 120.0
            },
            {
                "start_time": 36.9022727,
                "end_time": 37.1090909,
                "pitch": 36,
                "velocity": 127,
                "duration": 0.2068182,
                "tempo": 120.0
            },
            {
                "start_time": 37.1090909,
                "end_time": 37.3136364,
                "pitch": 36,
                "velocity": 127,
                "duration": 0.2045455,
                "tempo": 120.0
            },
            {
                "start_time": 37.3136364,
                "end_time": 37.5204545,
                "pitch": 36,
                "velocity": 127,
                "duration": 0.2068182,
                "tempo": 120.0
            },
            {
                "start_time": 37.5204545,
                "end_time": 37.7272727,
                "pitch": 36,
                "velocity": 127,
                "duration": 0.2068182,
                "tempo": 120.0
            },
            {
                "start_time": 37.7272727,
                "end_time": 37.9318182,
                "pitch": 36,
                "velocity": 127,
                "duration": 0.2045455,
                "tempo": 120.0
            },
            {
                "start_time": 37.9318182,
                "end_time": 38.1386364,
                "pitch": 36,
                "velocity": 127,
                "duration": 0.2068182,
                "tempo": 120.0
            },
            {
                "start_time": 38.1386364,
                "end_time": 38.3454545,
                "pitch": 36,
                "velocity": 127,
                "duration": 0.2068182,
                "tempo": 120.0
            },
            {
                "start_time": 38.3454545,
                "end_time": 38.55,
                "pitch": 36,
                "velocity": 127,
                "duration": 0.2045455,
                "tempo": 120.0
            },
            {
                "start_time": 38.55,
                "end_time": 38.7568182,
                "pitch": 36,
                "velocity": 127,
                "duration": 0.2068182,
                "tempo": 120.0
            },
            {
                "start_time": 38.7568182,
                "end_time": 38.9613636,
                "pitch": 36,
                "velocity": 127,
                "duration": 0.2045455,
                "tempo": 120.0
            },
            {
                "start_time": 38.9613636,
                "end_time": 39.175,
                "pitch": 36,
                "velocity": 127,
                "duration": 0.2136364,
                "tempo": 120.0
            },
            {
                "start_time": 39.175,
                "end_time": 39.3863636,
                "pitch": 36,
                "velocity": 127,
                "duration": 0.2113636,
                "tempo": 120.0
            },
            {
                "start_time": 39.3863636,
                "end_time": 39.6090909,
                "pitch": 34,
                "velocity": 127,
                "duration": 0.2227273,
                "tempo": 120.0
            },
            {
                "start_time": 39.6090909,
                "end_time": 39.8136364,
                "pitch": 34,
                "velocity": 127,
                "duration": 0.2045455,
                "tempo": 120.0
            },
            {
                "start_time": 39.8136364,
                "end_time": 40.0272727,
                "pitch": 34,
                "velocity": 127,
                "duration": 0.2136364,
                "tempo": 120.0
            },
            {
                "start_time": 40.0272727,
                "end_time": 40.2068182,
                "pitch": 34,
                "velocity": 127,
                "duration": 0.1795455,
                "tempo": 120.0
            },
            {
                "start_time": 40.2068182,
                "end_time": 40.4340909,
                "pitch": 34,
                "velocity": 127,
                "duration": 0.2272727,
                "tempo": 120.0
            },
            {
                "start_time": 40.4340909,
                "end_time": 40.6295455,
                "pitch": 34,
                "velocity": 127,
                "duration": 0.1954545,
                "tempo": 120.0
            },
            {
                "start_time": 40.6295455,
                "end_time": 40.8477273,
                "pitch": 34,
                "velocity": 127,
                "duration": 0.2181818,
                "tempo": 120.0
            },
            {
                "start_time": 40.8477273,
                "end_time": 41.05,
                "pitch": 34,
                "velocity": 127,
                "duration": 0.2022727,
                "tempo": 120.0
            },
            {
                "start_time": 41.05,
                "end_time": 41.25,
                "pitch": 34,
                "velocity": 127,
                "duration": 0.2,
                "tempo": 120.0
            },
            {
                "start_time": 41.25,
                "end_time": 41.4522727,
                "pitch": 34,
                "velocity": 127,
                "duration": 0.2022727,
                "tempo": 120.0
            },
            {
                "start_time": 41.4522727,
                "end_time": 41.6636364,
                "pitch": 34,
                "velocity": 127,
                "duration": 0.2113636,
                "tempo": 120.0
            },
            {
                "start_time": 41.6636364,
                "end_time": 41.8772727,
                "pitch": 34,
                "velocity": 127,
                "duration": 0.2136364,
                "tempo": 120.0
            },
            {
                "start_time": 41.8772727,
                "end_time": 42.0977273,
                "pitch": 34,
                "velocity": 127,
                "duration": 0.2204545,
                "tempo": 120.0
            },
            {
                "start_time": 42.0977273,
                "end_time": 42.3045455,
                "pitch": 34,
                "velocity": 127,
                "duration": 0.2068182,
                "tempo": 120.0
            },
            {
                "start_time": 42.3045455,
                "end_time": 42.5,
                "pitch": 34,
                "velocity": 127,
                "duration": 0.1954545,
                "tempo": 120.0
            },
            {
                "start_time": 42.5,
                "end_time": 42.7113636,
                "pitch": 34,
                "velocity": 127,
                "duration": 0.2113636,
                "tempo": 120.0
            },
            {
                "start_time": 42.7113636,
                "end_time": 42.8954545,
                "pitch": 34,
                "velocity": 127,
                "duration": 0.1840909,
                "tempo": 120.0
            },
            {
                "start_time": 42.8954545,
                "end_time": 43.1136364,
                "pitch": 36,
                "velocity": 127,
                "duration": 0.2181818,
                "tempo": 120.0
            },
            {
                "start_time": 43.1136364,
                "end_time": 43.3045455,
                "pitch": 36,
                "velocity": 127,
                "duration": 0.1909091,
                "tempo": 120.0
            },
            {
                "start_time": 43.3045455,
                "end_time": 43.5113636,
                "pitch": 36,
                "velocity": 127,
                "duration": 0.2068182,
                "tempo": 120.0
            },
            {
                "start_time": 43.5113636,
                "end_time": 43.7113636,
                "pitch": 36,
                "velocity": 127,
                "duration": 0.2,
                "tempo": 120.0
            },
            {
                "start_time": 43.7113636,
                "end_time": 43.9295455,
                "pitch": 36,
                "velocity": 127,
                "duration": 0.2181818,
                "tempo": 120.0
            },
            {
                "start_time": 43.9295455,
                "end_time": 44.1318182,
                "pitch": 36,
                "velocity": 127,
                "duration": 0.2022727,
                "tempo": 120.0
            },
            {
                "start_time": 44.1318182,
                "end_time": 44.3659091,
                "pitch": 36,
                "velocity": 127,
                "duration": 0.2340909,
                "tempo": 120.0
            },
            {
                "start_time": 44.3659091,
                "end_time": 44.5545455,
                "pitch": 36,
                "velocity": 127,
                "duration": 0.1886364,
                "tempo": 120.0
            },
            {
                "start_time": 44.5545455,
                "end_time": 44.7772727,
                "pitch": 36,
                "velocity": 127,
                "duration": 0.2227273,
                "tempo": 120.0
            },
            {
                "start_time": 44.7772727,
                "end_time": 44.9681818,
                "pitch": 36,
                "velocity": 127,
                "duration": 0.1909091,
                "tempo": 120.0
            },
            {
                "start_time": 44.9681818,
                "end_time": 45.175,
                "pitch": 36,
                "velocity": 127,
                "duration": 0.2068182,
                "tempo": 120.0
            },
            {
                "start_time": 45.175,
                "end_time": 45.3795455,
                "pitch": 36,
                "velocity": 127,
                "duration": 0.2045455,
                "tempo": 120.0
            },
            {
                "start_time": 45.3795455,
                "end_time": 45.6181818,
                "pitch": 36,
                "velocity": 127,
                "duration": 0.2386364,
                "tempo": 120.0
            },
            {
                "start_time": 45.6181818,
                "end_time": 45.8022727,
                "pitch": 36,
                "velocity": 127,
                "duration": 0.1840909,
                "tempo": 120.0
            },
            {
                "start_time": 45.8022727,
                "end_time": 46.0386364,
                "pitch": 36,
                "velocity": 127,
                "duration": 0.2363636,
                "tempo": 120.0
            }
        ]
    }
}