{
    "mood": "happy",
    "instruments": {
        "Clarinet": [
            {
                "start_time": 0.0,
                "end_time": 0.0886364,
                "pitch": 71,
                "velocity": 101,
                "duration": 0.0886364,
                "tempo": 120.0
            },
            {
                "start_time": 0.6204545,
                "end_time": 0.8363636,
                "pitch": 71,
                "velocity": 101,
                "duration": 0.2159091,
                "tempo": 120.0
            },
            {
                "start_time": 0.8363636,
                "end_time": 1.1886364,
                "pitch": 74,
                "velocity": 101,
                "duration": 0.3522727,
                "tempo": 120.0
            },
            {
                "start_time": 1.1886364,
                "end_time": 1.75,
                "pitch": 71,
                "velocity": 101,
                "duration": 0.5613636,
                "tempo": 120.0
            },
            {
                "start_time": 1.75,
                "end_time": 2.5090909,
                "pitch": 68,
                "velocity": 101,
                "duration": 0.7590909,
                "tempo": 120.0
            },
            {
                "start_time": 2.5090909,
                "end_time": 2.675,
                "pitch": 70,
                "velocity": 101,
                "duration": 0.1659091,
                "tempo": 120.0
            },
            {
                "start_time": 2.675,
                "end_time": 2.8590909,
                "pitch": 72,
                "velocity": 101,
                "duration": 0.1840909,
                "tempo": 120.0
            },
            {
                "start_time": 2.8590909,
                "end_time": 2.9931818,
                "pitch": 74,
                "velocity": 101,
                "duration": 0.1340909,
                "tempo": 120.0
            },
            {
                "start_time": 2.9931818,
                "end_time": 3.3318182,
                "pitch": 72,
                "velocity": 101,
                "duration": 0.3386364,
                "tempo": 120.0
            },
            {
                "start_time": 3.3318182,
                "end_time": 3.6681818,
                "pitch": 70,
                "velocity": 101,
                "duration": 0.3363636,
                "tempo": 120.0
            },
            {
                "start_time": 4.2295455,
                "end_time": 4.4477273,
                "pitch": 71,
                "velocity": 101,
                "duration": 0.2181818,
                "tempo": 120.0
            },
            {
                "start_time": 4.4477273,
                "end_time": 4.7977273,
                "pitch": 74,
                "velocity": 101,
                "duration": 0.35,
                "tempo": 120.0
            },
            {
                "start_time": 4.7977273,
                "end_time": 5.3590909,
                "pitch": 71,
                "velocity": 101,
                "duration": 0.5613636,
                "tempo": 120.0
            },
            {
                "start_time": 5.3590909,
                "end_time": 6.0409091,
                "pitch": 68,
                "velocity": 101,
                "duration": 0.6818182,
                "tempo": 120.0
            },
            {
                "start_time": 6.0409091,
                "end_time": 6.4909091,
                "pitch": 66,
                "velocity": 101,
                "duration": 0.45,
                "tempo": 120.0
            },
            {
                "start_time": 6.4909091,
                "end_time": 6.7045455,
                "pitch": 62,
                "velocity": 101,
                "duration": 0.2136364,
                "tempo": 120.0
            },
            {
                "start_time": 6.7045455,
                "end_time": 6.9431818,
                "pitch": 64,
                "velocity": 101,
                "duration": 0.2386364,
                "tempo": 120.0
            },
            {
                "start_time": 6.9431818,
                "end_time": 7.1659091,
                "pitch": 66,
                "velocity": 101,
                "duration": 0.2227273,
                "tempo": 120.0
            },
            {
                "start_time": 7.1659091,
                "end_time": 7.2795455,
                "pitch": 71,
                "velocity": 101,
                "duration": 0.1136364,
                "tempo": 120.0
            },
            {
                "start_time": 7.8454545,
                "end_time": 8.0681818,
                "pitch": 71,
                "velocity": 101,
                "duration": 0.2227273,
                "tempo": 120.0
            },
            {
                "start_time": 8.0681818,
                "end_time": 8.4113636,
                "pitch": 74,
                "velocity": 101,
                "duration": 0.3431818,
                "tempo": 120.0
            },
            {
                "start_time": 8.4113636,
                "end_time": 8.9704545,
                "pitch": 71,
                "velocity": 101,
                "duration": 0.5590909,
                "tempo": 120.0
            },
            {
                "start_time": 8.9704545,
                "end_time": 9.7295455,
                "pitch": 68,
                "velocity": 101,
                "duration": 0.7590909,
                "tempo": 120.0
            },
            {
                "start_time": 9.7295455,
                "end_time": 9.8954545,
                "pitch": 70,
                "velocity": 101,
                "duration": 0.1659091,
                "tempo": 120.0
            },
            {
                "start_time": 9.8954545,
                "end_time": 10.0795455,
                "pitch": 72,
                "velocity": 101,
                "duration": 0.1840909,
                "tempo": 120.0
            },
            {
                "start_time": 10.0795455,
                "end_time": 10.2136364,
                "pitch": 74,
                "velocity": 101,
                "duration": 0.1340909,
                "tempo": 120.0
            },
            {
                "start_time": 10.2136364,
                "end_time": 10.5522727,
                "pitch": 72,
                "velocity": 101,
                "duration": 0.3386364,
                "tempo": 120.0
            },
            {
                "start_time": 10.5522727,
                "end_time": 10.8886364,
                "pitch": 70,
                "velocity": 101,
                "duration": 0.3363636,
                "tempo": 120.0
            },
            {
                "start_time": 11.45,
                "end_time": 11.6681818,
                "pitch": 71,
                "velocity": 101,
                "duration": 0.2181818,
                "tempo": 120.0
            },
            {
                "start_time": 11.6681818,
                "end_time": 12.0181818,
                "pitch": 74,
                "velocity": 101,
                "duration": 0.35,
                "tempo": 120.0
            },
            {
                "start_time": 12.0181818,
                "end_time": 12.5795455,
                "pitch": 71,
                "velocity": 101,
                "duration": 0.5613636,
                "tempo": 120.0
            },
            {
                "start_time": 12.5795455,
                "end_time": 13.2613636,
                "pitch": 68,
                "velocity": 101,
                "duration": 0.6818182,
                "tempo": 120.0
            },
            {
                "start_time": 13.2613636,
                "end_time": 13.7113636,
                "pitch": 66,
                "velocity": 101,
                "duration": 0.45,
                "tempo": 120.0
            },
            {
                "start_time": 13.7113636,
                "end_time": 13.925,
                "pitch": 62,
                "velocity": 101,
                "duration": 0.2136364,
                "tempo": 120.0
            },
            {
                "start_time": 13.925,
                "end_time": 14.1636364,
                "pitch": 64,
                "velocity": 101,
                "duration": 0.2386364,
                "tempo": 120.0
            }
        ],
        "Harpsichord": [
            {
                "start_time": 0.0,
                "end_time": 0.075,
                "pitch": 57,
                "velocity": 51,
                "duration": 0.075,
                "tempo": 120.0
            },
            {
                "start_time": 0.0886364,
                "end_time": 0.1772727,
                "pitch": 57,
                "velocity": 51,
                "duration": 0.0886364,
                "tempo": 120.0
            },
            {
                "start_time": 0.1931818,
                "end_time": 0.3704545,
                "pitch": 54,
                "velocity": 51,
                "duration": 0.1772727,
                "tempo": 120.0
            },
            {
                "start_time": 0.3863636,
                "end_time": 0.4863636,
                "pitch": 54,
                "velocity": 51,
                "duration": 0.1,
                "tempo": 120.0
            },
            {
                "start_time": 0.5022727,
                "end_time": 0.7204545,
                "pitch": 57,
                "velocity": 51,
                "duration": 0.2181818,
                "tempo": 120.0
            },
            {
                "start_time": 0.7363636,
                "end_time": 0.9363636,
                "pitch": 59,
                "velocity": 51,
                "duration": 0.2,
                "tempo": 120.0
            },
            {
                "start_time": 0.9545455,
                "end_time": 1.0545455,
                "pitch": 62,
                "velocity": 51,
                "duration": 0.1,
                "tempo": 120.0
            },
            {
                "start_time": 1.0704545,
                "end_time": 1.2704545,
                "pitch": 57,
                "velocity": 51,
                "duration": 0.2,
                "tempo": 120.0
            },
            {
                "start_time": 1.2886364,
                "end_time": 1.3909091,
                "pitch": 57,
                "velocity": 51,
                "duration": 0.1022727,
                "tempo": 120.0
            },
            {
                "start_time": 1.4068182,
                "end_time": 1.6295455,
                "pitch": 59,
                "velocity": 51,
                "duration": 0.2227273,
                "tempo": 120.0
            },
            {
                "start_time": 1.6477273,
                "end_time": 1.8477273,
                "pitch": 54,
                "velocity": 51,
                "duration": 0.2,
                "tempo": 120.0
            },
            {
                "start_time": 1.8636364,
                "end_time": 1.9613636,
                "pitch": 57,
                "velocity": 51,
                "duration": 0.0977273,
                "tempo": 120.0
            },
            {
                "start_time": 1.9772727,
                "end_time": 2.175,
                "pitch": 57,
                "velocity": 51,
                "duration": 0.1977273,
                "tempo": 120.0
            },
            {
                "start_time": 2.1909091,
                "end_time": 2.2909091,
                "pitch": 57,
                "velocity": 51,
                "duration": 0.1,
                "tempo": 120.0
            },
            {
                "start_time": 2.3068182,
                "end_time": 2.525,
                "pitch": 57,
                "velocity": 51,
                "duration": 0.2181818,
                "tempo": 120.0
            },
            {
                "start_time": 2.5409091,
                "end_time": 2.7431818,
                "pitch": 59,
                "velocity": 51,
                "duration": 0.2022727,
                "tempo": 120.0
            },
            {
                "start_time": 2.7590909,
                "end_time": 2.8590909,
                "pitch": 62,
                "velocity": 51,
                "duration": 0.1,
                "tempo": 120.0
            },
            {
                "start_time": 2.875,
                "end_time": 3.0772727,
                "pitch": 57,
                "velocity": 51,
                "duration": 0.2022727,
                "tempo": 120.0
            },
            {
                "start_time": 3.0931818,
                "end_time": 3.1954545,
                "pitch": 57,
                "velocity": 51,
                "duration": 0.1022727,
                "tempo": 120.0
            },
            {
                "start_time": 3.2136364,
                "end_time": 3.4340909,
                "pitch": 59,
                "velocity": 51,
                "duration": 0.2204545,
                "tempo": 120.0
            },
            {
                "start_time": 3.4522727,
                "end_time": 3.6522727,
                "pitch": 54,
                "velocity": 51,
                "duration": 0.2,
                "tempo": 120.0
            },
            {
                "start_time": 3.6681818,
                "end_time": 3.7681818,
                "pitch": 57,
                "velocity": 51,
                "duration": 0.1,
                "tempo": 120.0
            },
            {
                "start_time": 3.7840909,
                "end_time": 3.9795455,
                "pitch": 57,
                "velocity": 51,
                "duration": 0.1954545,
                "tempo": 120.0
            },
            {
                "start_time": 3.9954545,
                "end_time": 4.0954545,
                "pitch": 57,
                "velocity": 51,
                "duration": 0.1,
                "tempo": 120.0
            },
            {
                "start_time": 4.1136364,
                "end_time": 4.3295455,
                "pitch": 57,
                "velocity": 51,
                "duration": 0.2159091,
                "tempo": 120.0
            },
            {
                "start_time": 4.3477273,
                "end_time": 4.5477273,
                "pitch": 59,
                "velocity": 51,
                "duration": 0.2,
                "tempo": 120.0
            },
            {
                "start_time": 4.5636364,
                "end_time": 4.6636364,
                "pitch": 62,
                "velocity": 51,
                "duration": 0.1,
                "tempo": 120.0
            },
            {
                "start_time": 4.6818182,
                "end_time": 4.8818182,
                "pitch": 57,
                "velocity": 51,
                "duration": 0.2,
                "tempo": 120.0
            },
            {
                "start_time": 4.8977273,
                "end_time": 5.0,
                "pitch": 57,
                "velocity": 51,
                "duration": 0.1022727,
                "tempo": 120.0
            },
            {
                "start_time": 5.0181818,
                "end_time": 5.2409091,
                "pitch": 59,
                "velocity": 51,
                "duration": 0.2227273,
                "tempo": 120.0
            },
            {
                "start_time": 5.2568182,
                "end_time": 5.4568182,
                "pitch": 54,
                "velocity": 51,
                "duration": 0.2,
                "tempo": 120.0
            },
            {
                "start_time": 5.475,
                "end_time": 5.5727273,
                "pitch": 57,
                "velocity": 51,
                "duration": 0.0977273,
                "tempo": 120.0
            },
            {
                "start_time": 5.5886364,
                "end_time": 5.7840909,
                "pitch": 57,
                "velocity": 51,
                "duration": 0.1954545,
                "tempo": 120.0
            },
            {
                "start_time": 5.8022727,
                "end_time": 5.9045455,
                "pitch": 57,
                "velocity": 51,
                "duration": 0.1022727,
                "tempo": 120.0
            },
            {
                "start_time": 5.9204545,
                "end_time": 6.1431818,
                "pitch": 57,
                "velocity": 51,
                "duration": 0.2227273,
                "tempo": 120.0
            },
            {
                "start_time": 6.1590909,
                "end_time": 6.3613636,
                "pitch": 59,
                "velocity": 51,
                "duration": 0.2022727,
                "tempo": 120.0
            },
            {
                "start_time": 6.3772727,
                "end_time": 6.475,
                "pitch": 62,
                "velocity": 51,
                "duration": 0.0977273,
                "tempo": 120.0
            },
            {
                "start_time": 6.4909091,
                "end_time": 6.6863636,
                "pitch": 57,
                "velocity": 51,
                "duration": 0.1954545,
                "tempo": 120.0
            },
            {
                "start_time": 6.7045455,
                "end_time": 6.8068182,
                "pitch": 57,
                "velocity": 51,
                "duration": 0.1022727,
                "tempo": 120.0
            },
            {
                "start_time": 6.8227273,
                "end_time": 7.0454545,
                "pitch": 59,
                "velocity": 51,
                "duration": 0.2227273,
                "tempo": 120.0
            },
            {
                "start_time": 7.0613636,
                "end_time": 7.2636364,
                "pitch": 54,
                "velocity": 51,
                "duration": 0.2022727,
                "tempo": 120.0
            },
            {
                "start_time": 7.2795455,
                "end_time": 7.3772727,
                "pitch": 57,
                "velocity": 51,
                "duration": 0.0977273,
                "tempo": 120.0
            },
            {
                "start_time": 7.3931818,
                "end_time": 7.5909091,
                "pitch": 57,
                "velocity": 51,
                "duration": 0.1977273,
                "tempo": 120.0
            },
            {
                "start_time": 7.6068182,
                "end_time": 7.7090909,
                "pitch": 57,
                "velocity": 51,
                "duration": 0.1022727,
                "tempo": 120.0
            },
            {
                "start_time": 7.725,
                "end_time": 7.9477273,
                "pitch": 57,
                "velocity": 51,
                "duration": 0.2227273,
                "tempo": 120.0
            },
            {
                "start_time": 7.9659091,
                "end_time": 8.1659091,
                "pitch": 59,
                "velocity": 51,
                "duration": 0.2,
                "tempo": 120.0
            },
            {
                "start_time": 8.1818182,
                "end_time": 8.2795455,
                "pitch": 62,
                "velocity": 51,
                "duration": 0.0977273,
                "tempo": 120.0
            },
            {
                "start_time": 8.2954545,
                "end_time": 8.4931818,
                "pitch": 57,
                "velocity": 51,
                "duration": 0.1977273,
                "tempo": 120.0
            },
            {
                "start_time": 8.5090909,
                "end_time": 8.6113636,
                "pitch": 57,
                "velocity": 51,
                "duration": 0.1022727,
                "tempo": 120.0
            },
            {
                "start_time": 8.6272727,
                "end_time": 8.85,
                "pitch": 59,
                "velocity": 51,
                "duration": 0.2227273,
                "tempo": 120.0
            },
            {
                "start_time": 8.8681818,
                "end_time": 9.0681818,
                "pitch": 54,
                "velocity": 51,
                "duration": 0.2,
                "tempo": 120.0
            },
            {
                "start_time": 9.0840909,
                "end_time": 9.1818182,
                "pitch": 57,
                "velocity": 51,
                "duration": 0.0977273,
                "tempo": 120.0
            },
            {
                "start_time": 9.1977273,
                "end_time": 9.3954545,
                "pitch": 57,
                "velocity": 51,
                "duration": 0.1977273,
                "tempo": 120.0
            },
            {
                "start_time": 9.4113636,
                "end_time": 9.5113636,
                "pitch": 57,
                "velocity": 51,
                "duration": 0.1,
                "tempo": 120.0
            },
            {
                "start_time": 9.5272727,
                "end_time": 9.7454545,
                "pitch": 57,
                "velocity": 51,
                "duration": 0.2181818,
                "tempo": 120.0
            },
            {
                "start_time": 9.7613636,
                "end_time": 9.9636364,
                "pitch": 59,
                "velocity": 51,
                "duration": 0.2022727,
                "tempo": 120.0
            },
            {
                "start_time": 9.9795455,
                "end_time": 10.0795455,
                "pitch": 62,
                "velocity": 51,
                "duration": 0.1,
                "tempo": 120.0
            },
            {
                "start_time": 10.0954545,
                "end_time": 10.2977273,
                "pitch": 57,
                "velocity": 51,
                "duration": 0.2022727,
                "tempo": 120.0
            },
            {
                "start_time": 10.3136364,
                "end_time": 10.4159091,
                "pitch": 57,
                "velocity": 51,
                "duration": 0.1022727,
                "tempo": 120.0
            },
            {
                "start_time": 10.4340909,
                "end_time": 10.6545455,
                "pitch": 59,
                "velocity": 51,
                "duration": 0.2204545,
                "tempo": 120.0
            },
            {
                "start_time": 10.6727273,
                "end_time": 10.8727273,
                "pitch": 54,
                "velocity": 51,
                "duration": 0.2,
                "tempo": 120.0
            },
            {
                "start_time": 10.8886364,
                "end_time": 10.9886364,
                "pitch": 57,
                "velocity": 51,
                "duration": 0.1,
                "tempo": 120.0
            },
            {
                "start_time": 11.0045455,
                "end_time": 11.2,
                "pitch": 57,
                "velocity": 51,
                "duration": 0.1954545,
                "tempo": 120.0
            },
            {
                "start_time": 11.2159091,
                "end_time": 11.3159091,
                "pitch": 57,
                "velocity": 51,
                "duration": 0.1,
                "tempo": 120.0
            },
            {
                "start_time": 11.3340909,
                "end_time": 11.55,
                "pitch": 57,
                "velocity": 51,
                "duration": 0.2159091,
                "tempo": 120.0
            },
            {
                "start_time": 11.5681818,
                "end_time": 11.7681818,
                "pitch": 59,
                "velocity": 51,
                "duration": 0.2,
                "tempo": 120.0
            },
            {
                "start_time": 11.7840909,
                "end_time": 11.8840909,
                "pitch": 62,
                "velocity": 51,
                "duration": 0.1,
                "tempo": 120.0
            },
            {
                "start_time": 11.9022727,
                "end_time": 12.1022727,
                "pitch": 57,
                "velocity": 51,
                "duration": 0.2,
                "tempo": 120.0
            },
            {
                "start_time": 12.1181818,
                "end_time": 12.2204545,
                "pitch": 57,
                "velocity": 51,
                "duration": 0.1022727,
                "tempo": 120.0
            },
            {
                "start_time": 12.2386364,
                "end_time": 12.4613636,
                "pitch": 59,
                "velocity": 51,
                "duration": 0.2227273,
                "tempo": 120.0
            },
            {
                "start_time": 12.4772727,
                "end_time": 12.6772727,
                "pitch": 54,
                "velocity": 51,
                "duration": 0.2,
                "tempo": 120.0
            },
            {
                "start_time": 12.6954545,
                "end_time": 12.7931818,
                "pitch": 57,
                "velocity": 51,
                "duration": 0.0977273,
                "tempo": 120.0
            },
            {
                "start_time": 12.8090909,
                "end_time": 13.0045455,
                "pitch": 57,
                "velocity": 51,
                "duration": 0.1954545,
                "tempo": 120.0
            },
            {
                "start_time": 13.0204545,
                "end_time": 13.1227273,
                "pitch": 57,
                "velocity": 51,
                "duration": 0.1022727,
                "tempo": 120.0
            },
            {
                "start_time": 13.1409091,
                "end_time": 13.3636364,
                "pitch": 57,
                "velocity": 51,
                "duration": 0.2227273,
                "tempo": 120.0
            },
            {
                "start_time": 13.3795455,
                "end_time": 13.5818182,
                "pitch": 59,
                "velocity": 51,
                "duration": 0.2022727,
                "tempo": 120.0
            },
            {
                "start_time": 13.5977273,
                "end_time": 13.6954545,
                "pitch": 62,
                "velocity": 51,
                "duration": 0.0977273,
                "tempo": 120.0
            },
            {
                "start_time": 13.7113636,
                "end_time": 13.9068182,
                "pitch": 57,
                "velocity": 51,
                "duration": 0.1954545,
                "tempo": 120.0
            },
            {
                "start_time": 13.925,
                "end_time": 14.0272727,
                "pitch": 57,
                "velocity": 51,
                "duration": 0.1022727,
                "tempo": 120.0
            },
            {
                "start_time": 14.0431818,
                "end_time": 14.2659091,
                "pitch": 59,
                "velocity": 51,
                "duration": 0.2227273,
                "tempo": 120.0
            },
            {
                "start_time": 14.2818182,
                "end_time": 14.5977273,
                "pitch": 54,
                "velocity": 51,
                "duration": 0.3159091,
                "tempo": 120.0
            },
            {
                "start_time": 14.6136364,
                "end_time": 14.8090909,
                "pitch": 52,
                "velocity": 51,
                "duration": 0.1954545,
                "tempo": 120.0
            },
            {
                "start_time": 14.8272727,
                "end_time": 15.0477273,
                "pitch": 52,
                "velocity": 51,
                "duration": 0.2204545,
                "tempo": 120.0
            },
            {
                "start_time": 15.0659091,
                "end_time": 15.2704545,
                "pitch": 54,
                "velocity": 51,
                "duration": 0.2045455,
                "tempo": 120.0
            },
            {
                "start_time": 15.2886364,
                "end_time": 15.3886364,
                "pitch": 54,
                "velocity": 51,
                "duration": 0.1,
                "tempo": 120.0
            },
            {
                "start_time": 16.4204545,
                "end_time": 16.625,
                "pitch": 43,
                "velocity": 51,
                "duration": 0.2045455,
                "tempo": 120.0
            },
            {
                "start_time": 16.6409091,
                "end_time": 16.8590909,
                "pitch": 43,
                "velocity": 51,
                "duration": 0.2181818,
                "tempo": 120.0
            },
            {
                "start_time": 16.875,
                "end_time": 17.0772727,
                "pitch": 43,
                "velocity": 51,
                "duration": 0.2022727,
                "tempo": 120.0
            },
            {
                "start_time": 17.0931818,
                "end_time": 17.3113636,
                "pitch": 45,
                "velocity": 51,
                "duration": 0.2181818,
                "tempo": 120.0
            },
            {
                "start_time": 17.3272727,
                "end_time": 17.5272727,
                "pitch": 45,
                "velocity": 51,
                "duration": 0.2,
                "tempo": 120.0
            },
            {
                "start_time": 17.5454545,
                "end_time": 17.7613636,
                "pitch": 47,
                "velocity": 51,
                "duration": 0.2159091,
                "tempo": 120.0
            },
            {
                "start_time": 17.7795455,
                "end_time": 18.2136364,
                "pitch": 47,
                "velocity": 51,
                "duration": 0.4340909,
                "tempo": 120.0
            },
            {
                "start_time": 18.2295455,
                "end_time": 18.4295455,
                "pitch": 52,
                "velocity": 51,
                "duration": 0.2,
                "tempo": 120.0
            },
            {
                "start_time": 18.4477273,
                "end_time": 18.6636364,
                "pitch": 52,
                "velocity": 51,
                "duration": 0.2159091,
                "tempo": 120.0
            },
            {
                "start_time": 18.6818182,
                "end_time": 18.8818182,
                "pitch": 54,
                "velocity": 51,
                "duration": 0.2,
                "tempo": 120.0
            },
            {
                "start_time": 18.8977273,
                "end_time": 18.9954545,
                "pitch": 54,
                "velocity": 51,
                "duration": 0.0977273,
                "tempo": 120.0
            },
            {
                "start_time": 20.0295455,
                "end_time": 20.2340909,
                "pitch": 43,
                "velocity": 51,
                "duration": 0.2045455,
                "tempo": 120.0
            },
            {
                "start_time": 20.2522727,
                "end_time": 20.4704545,
                "pitch": 43,
                "velocity": 51,
                "duration": 0.2181818,
                "tempo": 120.0
            },
            {
                "start_time": 20.4863636,
                "end_time": 20.6863636,
                "pitch": 43,
                "velocity": 51,
                "duration": 0.2,
                "tempo": 120.0
            },
            {
                "start_time": 20.7045455,
                "end_time": 20.9204545,
                "pitch": 45,
                "velocity": 51,
                "duration": 0.2159091,
                "tempo": 120.0
            },
            {
                "start_time": 20.9386364,
                "end_time": 21.1386364,
                "pitch": 45,
                "velocity": 51,
                "duration": 0.2,
                "tempo": 120.0
            },
            {
                "start_time": 21.1545455,
                "end_time": 21.3727273,
                "pitch": 47,
                "velocity": 51,
                "duration": 0.2181818,
                "tempo": 120.0
            },
            {
                "start_time": 21.3886364,
                "end_time": 21.8227273,
                "pitch": 47,
                "velocity": 51,
                "duration": 0.4340909,
                "tempo": 120.0
            },
            {
                "start_time": 21.8409091,
                "end_time": 22.0409091,
                "pitch": 52,
                "velocity": 51,
                "duration": 0.2,
                "tempo": 120.0
            },
            {
                "start_time": 22.0568182,
                "end_time": 22.275,
                "pitch": 52,
                "velocity": 51,
                "duration": 0.2181818,
                "tempo": 120.0
            },
            {
                "start_time": 22.2909091,
                "end_time": 22.4909091,
                "pitch": 54,
                "velocity": 51,
                "duration": 0.2,
                "tempo": 120.0
            },
            {
                "start_time": 22.5090909,
                "end_time": 22.6068182,
                "pitch": 54,
                "velocity": 51,
                "duration": 0.0977273,
                "tempo": 120.0
            },
            {
                "start_time": 23.6454545,
                "end_time": 23.8454545,
                "pitch": 43,
                "velocity": 51,
                "duration": 0.2,
                "tempo": 120.0
            },
            {
                "start_time": 23.8636364,
                "end_time": 24.0795455,
                "pitch": 43,
                "velocity": 51,
                "duration": 0.2159091,
                "tempo": 120.0
            },
            {
                "start_time": 24.0954545,
                "end_time": 24.2977273,
                "pitch": 43,
                "velocity": 51,
                "duration": 0.2022727,
                "tempo": 120.0
            },
            {
                "start_time": 24.3136364,
                "end_time": 24.5318182,
                "pitch": 45,
                "velocity": 51,
                "duration": 0.2181818,
                "tempo": 120.0
            },
            {
                "start_time": 24.5477273,
                "end_time": 24.7477273,
                "pitch": 45,
                "velocity": 51,
                "duration": 0.2,
                "tempo": 120.0
            },
            {
                "start_time": 24.7659091,
                "end_time": 24.9818182,
                "pitch": 47,
                "velocity": 51,
                "duration": 0.2159091,
                "tempo": 120.0
            },
            {
                "start_time": 25.0,
                "end_time": 25.4340909,
                "pitch": 47,
                "velocity": 51,
                "duration": 0.4340909,
                "tempo": 120.0
            },
            {
                "start_time": 25.45,
                "end_time": 25.65,
                "pitch": 52,
                "velocity": 51,
                "duration": 0.2,
                "tempo": 120.0
            },
            {
                "start_time": 25.6681818,
                "end_time": 25.8840909,
                "pitch": 52,
                "velocity": 51,
                "duration": 0.2159091,
                "tempo": 120.0
            },
            {
                "start_time": 25.9022727,
                "end_time": 26.1022727,
                "pitch": 54,
                "velocity": 51,
                "duration": 0.2,
                "tempo": 120.0
            },
            {
                "start_time": 26.1181818,
                "end_time": 26.2181818,
                "pitch": 54,
                "velocity": 51,
                "duration": 0.1,
                "tempo": 120.0
            },
            {
                "start_time": 27.2545455,
                "end_time": 27.4568182,
                "pitch": 43,
                "velocity": 51,
                "duration": 0.2022727,
                "tempo": 120.0
            },
            {
                "start_time": 27.4727273,
                "end_time": 27.6886364,
                "pitch": 43,
                "velocity": 51,
                "duration": 0.2159091,
                "tempo": 120.0
            },
            {
                "start_time": 27.7068182,
                "end_time": 27.9068182,
                "pitch": 43,
                "velocity": 51,
                "duration": 0.2,
                "tempo": 120.0
            },
            {
                "start_time": 27.9227273,
                "end_time": 28.1409091,
                "pitch": 45,
                "velocity": 51,
                "duration": 0.2181818,
                "tempo": 120.0
            },
            {
                "start_time": 28.1568182,
                "end_time": 28.3590909,
                "pitch": 45,
                "velocity": 51,
                "duration": 0.2022727,
                "tempo": 120.0
            },
            {
                "start_time": 28.375,
                "end_time": 28.5931818,
                "pitch": 47,
                "velocity": 51,
                "duration": 0.2181818,
                "tempo": 120.0
            },
            {
                "start_time": 28.6090909,
                "end_time": 28.8090909,
                "pitch": 47,
                "velocity": 51,
                "duration": 0.2,
                "tempo": 120.0
            }
        ],
        "Acoustic Bass": [
            {
                "start_time": 0.0,
                "end_time": 0.0454545,
                "pitch": 35,
                "velocity": 80,
                "duration": 0.0454545,
                "tempo": 120.0
            },
            {
                "start_time": 0.6204545,
                "end_time": 0.8204545,
                "pitch": 35,
                "velocity": 80,
                "duration": 0.2,
                "tempo": 120.0
            },
            {
                "start_time": 0.8363636,
                "end_time": 1.1704545,
                "pitch": 47,
                "velocity": 80,
                "duration": 0.3340909,
                "tempo": 120.0
            },
            {
                "start_time": 1.1886364,
                "end_time": 1.5113636,
                "pitch": 45,
                "velocity": 80,
                "duration": 0.3227273,
                "tempo": 120.0
            },
            {
                "start_time": 1.5272727,
                "end_time": 1.6295455,
                "pitch": 42,
                "velocity": 80,
                "duration": 0.1022727,
                "tempo": 120.0
            },
            {
                "start_time": 2.6431818,
                "end_time": 2.8590909,
                "pitch": 42,
                "velocity": 80,
                "duration": 0.2159091,
                "tempo": 120.0
            },
            {
                "start_time": 2.875,
                "end_time": 3.0772727,
                "pitch": 45,
                "velocity": 80,
                "duration": 0.2022727,
                "tempo": 120.0
            },
            {
                "start_time": 3.0931818,
                "end_time": 3.5386364,
                "pitch": 50,
                "velocity": 80,
                "duration": 0.4454545,
                "tempo": 120.0
            },
            {
                "start_time": 3.5545455,
                "end_time": 3.6522727,
                "pitch": 35,
                "velocity": 80,
                "duration": 0.0977273,
                "tempo": 120.0
            },
            {
                "start_time": 4.2295455,
                "end_time": 4.4295455,
                "pitch": 35,
                "velocity": 80,
                "duration": 0.2,
                "tempo": 120.0
            },
            {
                "start_time": 4.4477273,
                "end_time": 4.7818182,
                "pitch": 47,
                "velocity": 80,
                "duration": 0.3340909,
                "tempo": 120.0
            },
            {
                "start_time": 4.7977273,
                "end_time": 5.1204545,
                "pitch": 45,
                "velocity": 80,
                "duration": 0.3227273,
                "tempo": 120.0
            },
            {
                "start_time": 5.1386364,
                "end_time": 6.2454545,
                "pitch": 42,
                "velocity": 80,
                "duration": 1.1068182,
                "tempo": 120.0
            },
            {
                "start_time": 6.2613636,
                "end_time": 6.475,
                "pitch": 42,
                "velocity": 80,
                "duration": 0.2136364,
                "tempo": 120.0
            },
            {
                "start_time": 6.4909091,
                "end_time": 6.6863636,
                "pitch": 45,
                "velocity": 80,
                "duration": 0.1954545,
                "tempo": 120.0
            },
            {
                "start_time": 6.7045455,
                "end_time": 7.1477273,
                "pitch": 50,
                "velocity": 80,
                "duration": 0.4431818,
                "tempo": 120.0
            },
            {
                "start_time": 7.1659091,
                "end_time": 7.8272727,
                "pitch": 35,
                "velocity": 80,
                "duration": 0.6613636,
                "tempo": 120.0
            },
            {
                "start_time": 7.8454545,
                "end_time": 8.05,
                "pitch": 35,
                "velocity": 80,
                "duration": 0.2045455,
                "tempo": 120.0
            },
            {
                "start_time": 8.0681818,
                "end_time": 8.3931818,
                "pitch": 47,
                "velocity": 80,
                "duration": 0.325,
                "tempo": 120.0
            },
            {
                "start_time": 8.4113636,
                "end_time": 8.7295455,
                "pitch": 45,
                "velocity": 80,
                "duration": 0.3181818,
                "tempo": 120.0
            },
            {
                "start_time": 8.7477273,
                "end_time": 8.85,
                "pitch": 42,
                "velocity": 80,
                "duration": 0.1022727,
                "tempo": 120.0
            },
            {
                "start_time": 9.8613636,
                "end_time": 10.0795455,
                "pitch": 42,
                "velocity": 80,
                "duration": 0.2181818,
                "tempo": 120.0
            },
            {
                "start_time": 10.0954545,
                "end_time": 10.2977273,
                "pitch": 45,
                "velocity": 80,
                "duration": 0.2022727,
                "tempo": 120.0
            },
            {
                "start_time": 10.3136364,
                "end_time": 10.7590909,
                "pitch": 50,
                "velocity": 80,
                "duration": 0.4454545,
                "tempo": 120.0
            },
            {
                "start_time": 10.775,
                "end_time": 10.8727273,
                "pitch": 35,
                "velocity": 80,
                "duration": 0.0977273,
                "tempo": 120.0
            },
            {
                "start_time": 11.45,
                "end_time": 11.65,
                "pitch": 35,
                "velocity": 80,
                "duration": 0.2,
                "tempo": 120.0
            },
            {
                "start_time": 11.6681818,
                "end_time": 11.9522727,
                "pitch": 47,
                "velocity": 80,
                "duration": 0.2840909,
                "tempo": 120.0
            },
            {
                "start_time": 11.9681818,
                "end_time": 12.3409091,
                "pitch": 45,
                "velocity": 80,
                "duration": 0.3727273,
                "tempo": 120.0
            },
            {
                "start_time": 12.3590909,
                "end_time": 13.4659091,
                "pitch": 42,
                "velocity": 80,
                "duration": 1.1068182,
                "tempo": 120.0
            },
            {
                "start_time": 13.4818182,
                "end_time": 13.6954545,
                "pitch": 42,
                "velocity": 80,
                "duration": 0.2136364,
                "tempo": 120.0
            },
            {
                "start_time": 13.7113636,
                "end_time": 13.9068182,
                "pitch": 45,
                "velocity": 80,
                "duration": 0.1954545,
                "tempo": 120.0
            },
            {
                "start_time": 13.925,
                "end_time": 14.5977273,
                "pitch": 50,
                "velocity": 80,
                "duration": 0.6727273,
                "tempo": 120.0
            },
            {
                "start_time": 14.6136364,
                "end_time": 14.8090909,
                "pitch": 43,
                "velocity": 80,
                "duration": 0.1954545,
                "tempo": 120.0
            },
            {
                "start_time": 14.8272727,
                "end_time": 15.0477273,
                "pitch": 43,
                "velocity": 80,
                "duration": 0.2204545,
                "tempo": 120.0
            },
            {
                "start_time": 15.0659091,
                "end_time": 15.2704545,
                "pitch": 45,
                "velocity": 80,
                "duration": 0.2045455,
                "tempo": 120.0
            },
            {
                "start_time": 15.2886364,
                "end_time": 15.3886364,
                "pitch": 45,
                "velocity": 80,
                "duration": 0.1,
                "tempo": 120.0
            },
            {
                "start_time": 16.4204545,
                "end_time": 16.625,
                "pitch": 36,
                "velocity": 80,
                "duration": 0.2045455,
                "tempo": 120.0
            },
            {
                "start_time": 16.6409091,
                "end_time": 16.8590909,
                "pitch": 36,
                "velocity": 80,
                "duration": 0.2181818,
                "tempo": 120.0
            },
            {
                "start_time": 16.875,
                "end_time": 17.0772727,
                "pitch": 36,
                "velocity": 80,
                "duration": 0.2022727,
                "tempo": 120.0
            },
            {
                "start_time": 17.0931818,
                "end_time": 17.3113636,
                "pitch": 38,
                "velocity": 80,
                "duration": 0.2181818,
                "tempo": 120.0
            },
            {
                "start_time": 17.3272727,
                "end_time": 17.5272727,
                "pitch": 38,
                "velocity": 80,
                "duration": 0.2,
                "tempo": 120.0
            },
            {
                "start_time": 17.5454545,
                "end_time": 17.7613636,
                "pitch": 40,
                "velocity": 80,
                "duration": 0.2159091,
                "tempo": 120.0
            },
            {
                "start_time": 17.7795455,
                "end_time": 18.2136364,
                "pitch": 40,
                "velocity": 80,
                "duration": 0.4340909,
                "tempo": 120.0
            },
            {
                "start_time": 18.2295455,
                "end_time": 18.4295455,
                "pitch": 43,
                "velocity": 80,
                "duration": 0.2,
                "tempo": 120.0
            },
            {
                "start_time": 18.4477273,
                "end_time": 18.6636364,
                "pitch": 43,
                "velocity": 80,
                "duration": 0.2159091,
                "tempo": 120.0
            },
            {
                "start_time": 18.6818182,
                "end_time": 18.8818182,
                "pitch": 45,
                "velocity": 80,
                "duration": 0.2,
                "tempo": 120.0
            },
            {
                "start_time": 18.8977273,
                "end_time": 18.9954545,
                "pitch": 45,
                "velocity": 80,
                "duration": 0.0977273,
                "tempo": 120.0
            },
            {
                "start_time": 20.0295455,
                "end_time": 20.2340909,
                "pitch": 36,
                "velocity": 80,
                "duration": 0.2045455,
                "tempo": 120.0
            },
            {
                "start_time": 20.2522727,
                "end_time": 20.4704545,
                "pitch": 36,
                "velocity": 80,
                "duration": 0.2181818,
                "tempo": 120.0
            },
            {
                "start_time": 20.4863636,
                "end_time": 20.6863636,
                "pitch": 36,
                "velocity": 80,
                "duration": 0.2,
                "tempo": 120.0
            },
            {
                "start_time": 20.7045455,
                "end_time": 20.9204545,
                "pitch": 38,
                "velocity": 80,
                "duration": 0.2159091,
                "tempo": 120.0
            },
            {
                "start_time": 20.9386364,
                "end_time": 21.1386364,
                "pitch": 38,
                "velocity": 80,
                "duration": 0.2,
                "tempo": 120.0
            },
            {
                "start_time": 21.1545455,
                "end_time": 21.3727273,
                "pitch": 40,
                "velocity": 80,
                "duration": 0.2181818,
                "tempo": 120.0
            },
            {
                "start_time": 21.3886364,
                "end_time": 21.8227273,
                "pitch": 40,
                "velocity": 80,
                "duration": 0.4340909,
                "tempo": 120.0
            },
            {
                "start_time": 21.8409091,
                "end_time": 22.0409091,
                "pitch": 43,
                "velocity": 80,
                "duration": 0.2,
                "tempo": 120.0
            },
            {
                "start_time": 22.0568182,
                "end_time": 22.275,
                "pitch": 43,
                "velocity": 80,
                "duration": 0.2181818,
                "tempo": 120.0
            },
            {
                "start_time": 22.2909091,
                "end_time": 22.4909091,
                "pitch": 45,
                "velocity": 80,
                "duration": 0.2,
                "tempo": 120.0
            },
            {
                "start_time": 22.5090909,
                "end_time": 22.6068182,
                "pitch": 45,
                "velocity": 80,
                "duration": 0.0977273,
                "tempo": 120.0
            },
            {
                "start_time": 23.6454545,
                "end_time": 23.8454545,
                "pitch": 36,
                "velocity": 80,
                "duration": 0.2,
                "tempo": 120.0
            },
            {
                "start_time": 23.8636364,
                "end_time": 24.0795455,
                "pitch": 36,
                "velocity": 80,
                "duration": 0.2159091,
                "tempo": 120.0
            },
            {
                "start_time": 24.0954545,
                "end_time": 24.2977273,
                "pitch": 36,
                "velocity": 80,
                "duration": 0.2022727,
                "tempo": 120.0
            },
            {
                "start_time": 24.3136364,
                "end_time": 24.5318182,
                "pitch": 38,
                "velocity": 80,
                "duration": 0.2181818,
                "tempo": 120.0
            },
            {
                "start_time": 24.5477273,
                "end_time": 24.7477273,
                "pitch": 38,
                "velocity": 80,
                "duration": 0.2,
                "tempo": 120.0
            },
            {
                "start_time": 24.7659091,
                "end_time": 24.9818182,
                "pitch": 40,
                "velocity": 80,
                "duration": 0.2159091,
                "tempo": 120.0
            },
            {
                "start_time": 25.0,
                "end_time": 25.4340909,
                "pitch": 40,
                "velocity": 80,
                "duration": 0.4340909,
                "tempo": 120.0
            },
            {
                "start_time": 25.45,
                "end_time": 25.65,
                "pitch": 43,
                "velocity": 80,
                "duration": 0.2,
                "tempo": 120.0
            },
            {
                "start_time": 25.6681818,
                "end_time": 25.8840909,
                "pitch": 43,
                "velocity": 80,
                "duration": 0.2159091,
                "tempo": 120.0
            },
            {
                "start_time": 25.9022727,
                "end_time": 26.1022727,
                "pitch": 45,
                "velocity": 80,
                "duration": 0.2,
                "tempo": 120.0
            },
            {
                "start_time": 26.1181818,
                "end_time": 26.2181818,
                "pitch": 45,
                "velocity": 80,
                "duration": 0.1,
                "tempo": 120.0
            },
            {
                "start_time": 27.2545455,
                "end_time": 27.4568182,
                "pitch": 36,
                "velocity": 80,
                "duration": 0.2022727,
                "tempo": 120.0
            },
            {
                "start_time": 27.4727273,
                "end_time": 27.6886364,
                "pitch": 36,
                "velocity": 80,
                "duration": 0.2159091,
                "tempo": 120.0
            },
            {
                "start_time": 27.7068182,
                "end_time": 27.9068182,
                "pitch": 36,
                "velocity": 80,
                "duration": 0.2,
                "tempo": 120.0
            },
            {
                "start_time": 27.9227273,
                "end_time": 28.1409091,
                "pitch": 38,
                "velocity": 80,
                "duration": 0.2181818,
                "tempo": 120.0
            },
            {
                "start_time": 28.1568182,
                "end_time": 28.3590909,
                "pitch": 38,
                "velocity": 80,
                "duration": 0.2022727,
                "tempo": 120.0
            },
            {
                "start_time": 28.375,
                "end_time": 28.5931818,
                "pitch": 40,
                "velocity": 80,
                "duration": 0.2181818,
                "tempo": 120.0
            },
            {
                "start_time": 28.6090909,
                "end_time": 28.8090909,
                "pitch": 40,
                "velocity": 80,
                "duration": 0.2,
                "tempo": 120.0
            }
        ],
        "Electric Guitar (clean)": [
            {
                "start_time": 0.0,
                "end_time": 0.0159091,
                "pitch": 45,
                "velocity": 51,
                "duration": 0.0159091,
                "tempo": 120.0
            }
        ]
    }
}