{
    "mood": "happy",
    "instruments": {
        "Church Organ": [
            {
                "start_time": 0.0045455,
                "end_time": 1.7840909,
                "pitch": 74,
                "velocity": 64,
                "duration": 1.7795455,
                "tempo": 120.0
            },
            {
                "start_time": 1.8,
                "end_time": 2.3863636,
                "pitch": 74,
                "velocity": 64,
                "duration": 0.5863636,
                "tempo": 120.0
            },
            {
                "start_time": 2.4045455,
                "end_time": 4.1931818,
                "pitch": 69,
                "velocity": 64,
                "duration": 1.7886364,
                "tempo": 120.0
            },
            {
                "start_time": 4.2090909,
                "end_time": 4.3454545,
                "pitch": 76,
                "velocity": 64,
                "duration": 0.1363636,
                "tempo": 120.0
            },
            {
                "start_time": 4.3636364,
                "end_time": 4.5022727,
                "pitch": 74,
                "velocity": 64,
                "duration": 0.1386364,
                "tempo": 120.0
            },
            {
                "start_time": 4.5181818,
                "end_time": 4.6477273,
                "pitch": 71,
                "velocity": 64,
                "duration": 0.1295455,
                "tempo": 120.0
            },
            {
                "start_time": 4.6636364,
                "end_time": 6.5977273,
                "pitch": 64,
                "velocity": 64,
                "duration": 1.9340909,
                "tempo": 120.0
            },
            {
                "start_time": 6.6136364,
                "end_time": 7.0477273,
                "pitch": 66,
                "velocity": 64,
                "duration": 0.4340909,
                "tempo": 120.0
            },
            {
                "start_time": 7.0636364,
                "end_time": 9.0022727,
                "pitch": 66,
                "velocity": 64,
                "duration": 1.9386364,
                "tempo": 120.0
            },
            {
                "start_time": 9.0181818,
                "end_time": 9.6045455,
                "pitch": 69,
                "velocity": 64,
                "duration": 0.5863636,
                "tempo": 120.0
            },
            {
                "start_time": 9.6204545,
                "end_time": 11.4090909,
                "pitch": 73,
                "velocity": 64,
                "duration": 1.7886364,
                "tempo": 120.0
            },
            {
                "start_time": 11.425,
                "end_time": 12.0090909,
                "pitch": 76,
                "velocity": 64,
                "duration": 0.5840909,
                "tempo": 120.0
            },
            {
                "start_time": 12.025,
                "end_time": 13.8159091,
                "pitch": 71,
                "velocity": 64,
                "duration": 1.7909091,
                "tempo": 120.0
            },
            {
                "start_time": 13.8318182,
                "end_time": 14.2681818,
                "pitch": 69,
                "velocity": 64,
                "duration": 0.4363636,
                "tempo": 120.0
            },
            {
                "start_time": 14.2840909,
                "end_time": 16.2227273,
                "pitch": 76,
                "velocity": 64,
                "duration": 1.9386364,
                "tempo": 120.0
            },
            {
                "start_time": 16.2386364,
                "end_time": 16.5227273,
                "pitch": 76,
                "velocity": 64,
                "duration": 0.2840909,
                "tempo": 120.0
            },
            {
                "start_time": 16.5386364,
                "end_time": 16.6727273,
                "pitch": 74,
                "velocity": 64,
                "duration": 0.1340909,
                "tempo": 120.0
            },
            {
                "start_time": 16.6886364,
                "end_time": 19.2318182,
                "pitch": 73,
                "velocity": 64,
                "duration": 2.5431818,
                "tempo": 120.0
            },
            {
                "start_time": 19.25,
                "end_time": 21.0409091,
                "pitch": 74,
                "velocity": 64,
                "duration": 1.7909091,
                "tempo": 120.0
            },
            {
                "start_time": 21.0568182,
                "end_time": 21.6431818,
                "pitch": 74,
                "velocity": 64,
                "duration": 0.5863636,
                "tempo": 120.0
            },
            {
                "start_time": 21.6590909,
                "end_time": 23.4477273,
                "pitch": 69,
                "velocity": 64,
                "duration": 1.7886364,
                "tempo": 120.0
            },
            {
                "start_time": 23.4659091,
                "end_time": 23.5977273,
                "pitch": 76,
                "velocity": 64,
                "duration": 0.1318182,
                "tempo": 120.0
            },
            {
                "start_time": 23.6159091,
                "end_time": 23.7477273,
                "pitch": 74,
                "velocity": 64,
                "duration": 0.1318182,
                "tempo": 120.0
            },
            {
                "start_time": 23.7659091,
                "end_time": 23.9,
                "pitch": 71,
                "velocity": 64,
                "duration": 0.1340909,
                "tempo": 120.0
            },
            {
                "start_time": 23.9159091,
                "end_time": 25.8568182,
                "pitch": 64,
                "velocity": 64,
                "duration": 1.9409091,
                "tempo": 120.0
            },
            {
                "start_time": 25.875,
                "end_time": 26.3090909,
                "pitch": 66,
                "velocity": 64,
                "duration": 0.4340909,
                "tempo": 120.0
            },
            {
                "start_time": 26.3272727,
                "end_time": 28.2659091,
                "pitch": 66,
                "velocity": 64,
                "duration": 1.9386364,
                "tempo": 120.0
            },
            {
                "start_time": 28.2818182,
                "end_time": 28.8681818,
                "pitch": 69,
                "velocity": 64,
                "duration": 0.5863636,
                "tempo": 120.0
            },
            {
                "start_time": 28.8840909,
                "end_time": 30.675,
                "pitch": 73,
                "velocity": 64,
                "duration": 1.7909091,
                "tempo": 120.0
            },
            {
                "start_time": 30.6909091,
                "end_time": 31.2772727,
                "pitch": 76,
                "velocity": 64,
                "duration": 0.5863636,
                "tempo": 120.0
            },
            {
                "start_time": 31.2931818,
                "end_time": 33.0840909,
                "pitch": 71,
                "velocity": 64,
                "duration": 1.7909091,
                "tempo": 120.0
            },
            {
                "start_time": 33.1,
                "end_time": 33.5318182,
                "pitch": 69,
                "velocity": 64,
                "duration": 0.4318182,
                "tempo": 120.0
            },
            {
                "start_time": 33.55,
                "end_time": 35.4886364,
                "pitch": 76,
                "velocity": 64,
                "duration": 1.9386364,
                "tempo": 120.0
            },
            {
                "start_time": 35.5045455,
                "end_time": 35.7863636,
                "pitch": 76,
                "velocity": 64,
                "duration": 0.2818182,
                "tempo": 120.0
            },
            {
                "start_time": 35.8045455,
                "end_time": 35.9386364,
                "pitch": 74,
                "velocity": 64,
                "duration": 0.1340909,
                "tempo": 120.0
            },
            {
                "start_time": 35.9545455,
                "end_time": 38.4931818,
                "pitch": 73,
                "velocity": 64,
                "duration": 2.5386364,
                "tempo": 120.0
            },
            {
                "start_time": 38.5113636,
                "end_time": 39.3954545,
                "pitch": 67,
                "velocity": 64,
                "duration": 0.8840909,
                "tempo": 120.0
            },
            {
                "start_time": 39.4113636,
                "end_time": 40.9,
                "pitch": 78,
                "velocity": 64,
                "duration": 1.4886364,
                "tempo": 120.0
            },
            {
                "start_time": 40.9159091,
                "end_time": 41.8113636,
                "pitch": 69,
                "velocity": 64,
                "duration": 0.8954545,
                "tempo": 120.0
            },
            {
                "start_time": 41.8272727,
                "end_time": 43.3045455,
                "pitch": 78,
                "velocity": 64,
                "duration": 1.4772727,
                "tempo": 120.0
            },
            {
                "start_time": 43.3227273,
                "end_time": 44.2090909,
                "pitch": 71,
                "velocity": 64,
                "duration": 0.8863636,
                "tempo": 120.0
            },
            {
                "start_time": 44.225,
                "end_time": 46.4204545,
                "pitch": 78,
                "velocity": 64,
                "duration": 2.1954545,
                "tempo": 120.0
            },
            {
                "start_time": 48.1431818,
                "end_time": 49.0295455,
                "pitch": 67,
                "velocity": 64,
                "duration": 0.8863636,
                "tempo": 120.0
            },
            {
                "start_time": 49.0454545,
                "end_time": 50.5318182,
                "pitch": 78,
                "velocity": 64,
                "duration": 1.4863636,
                "tempo": 120.0
            },
            {
                "start_time": 50.55,
                "end_time": 51.4340909,
                "pitch": 69,
                "velocity": 64,
                "duration": 0.8840909,
                "tempo": 120.0
            },
            {
                "start_time": 51.4522727,
                "end_time": 52.9295455,
                "pitch": 78,
                "velocity": 64,
                "duration": 1.4772727,
                "tempo": 120.0
            },
            {
                "start_time": 52.9477273,
                "end_time": 53.8318182,
                "pitch": 71,
                "velocity": 64,
                "duration": 0.8840909,
                "tempo": 120.0
            },
            {
                "start_time": 53.8477273,
                "end_time": 56.0363636,
                "pitch": 78,
                "velocity": 64,
                "duration": 2.1886364,
                "tempo": 120.0
            }
        ],
        "Acoustic Bass": [
            {
                "start_time": 0.0227273,
                "end_time": 0.1409091,
                "pitch": 35,
                "velocity": 64,
                "duration": 0.1181818,
                "tempo": 120.0
            },
            {
                "start_time": 0.1568182,
                "end_time": 0.8909091,
                "pitch": 35,
                "velocity": 64,
                "duration": 0.7340909,
                "tempo": 120.0
            },
            {
                "start_time": 0.9090909,
                "end_time": 1.0363636,
                "pitch": 35,
                "velocity": 64,
                "duration": 0.1272727,
                "tempo": 120.0
            },
            {
                "start_time": 1.0545455,
                "end_time": 1.1340909,
                "pitch": 35,
                "velocity": 64,
                "duration": 0.0795455,
                "tempo": 120.0
            },
            {
                "start_time": 1.8,
                "end_time": 1.9340909,
                "pitch": 30,
                "velocity": 64,
                "duration": 0.1340909,
                "tempo": 120.0
            },
            {
                "start_time": 1.9522727,
                "end_time": 2.0863636,
                "pitch": 33,
                "velocity": 64,
                "duration": 0.1340909,
                "tempo": 120.0
            },
            {
                "start_time": 2.1022727,
                "end_time": 2.3863636,
                "pitch": 30,
                "velocity": 64,
                "duration": 0.2840909,
                "tempo": 120.0
            },
            {
                "start_time": 2.4045455,
                "end_time": 2.5363636,
                "pitch": 35,
                "velocity": 64,
                "duration": 0.1318182,
                "tempo": 120.0
            },
            {
                "start_time": 2.5545455,
                "end_time": 2.6363636,
                "pitch": 35,
                "velocity": 64,
                "duration": 0.0818182,
                "tempo": 120.0
            },
            {
                "start_time": 3.3159091,
                "end_time": 3.4454545,
                "pitch": 35,
                "velocity": 64,
                "duration": 0.1295455,
                "tempo": 120.0
            },
            {
                "start_time": 3.4613636,
                "end_time": 3.5431818,
                "pitch": 35,
                "velocity": 64,
                "duration": 0.0818182,
                "tempo": 120.0
            },
            {
                "start_time": 4.2090909,
                "end_time": 4.3454545,
                "pitch": 30,
                "velocity": 64,
                "duration": 0.1363636,
                "tempo": 120.0
            },
            {
                "start_time": 4.3636364,
                "end_time": 4.5022727,
                "pitch": 33,
                "velocity": 64,
                "duration": 0.1386364,
                "tempo": 120.0
            },
            {
                "start_time": 4.5181818,
                "end_time": 4.7931818,
                "pitch": 28,
                "velocity": 64,
                "duration": 0.275,
                "tempo": 120.0
            },
            {
                "start_time": 4.8090909,
                "end_time": 4.9431818,
                "pitch": 35,
                "velocity": 64,
                "duration": 0.1340909,
                "tempo": 120.0
            },
            {
                "start_time": 4.9590909,
                "end_time": 5.7045455,
                "pitch": 35,
                "velocity": 64,
                "duration": 0.7454545,
                "tempo": 120.0
            },
            {
                "start_time": 5.7204545,
                "end_time": 5.85,
                "pitch": 35,
                "velocity": 64,
                "duration": 0.1295455,
                "tempo": 120.0
            },
            {
                "start_time": 5.8659091,
                "end_time": 5.9477273,
                "pitch": 35,
                "velocity": 64,
                "duration": 0.0818182,
                "tempo": 120.0
            },
            {
                "start_time": 6.6136364,
                "end_time": 6.7477273,
                "pitch": 30,
                "velocity": 64,
                "duration": 0.1340909,
                "tempo": 120.0
            },
            {
                "start_time": 6.7636364,
                "end_time": 6.8977273,
                "pitch": 33,
                "velocity": 64,
                "duration": 0.1340909,
                "tempo": 120.0
            },
            {
                "start_time": 6.9136364,
                "end_time": 7.1977273,
                "pitch": 30,
                "velocity": 64,
                "duration": 0.2840909,
                "tempo": 120.0
            },
            {
                "start_time": 7.2159091,
                "end_time": 7.3477273,
                "pitch": 35,
                "velocity": 64,
                "duration": 0.1318182,
                "tempo": 120.0
            },
            {
                "start_time": 7.3659091,
                "end_time": 7.4477273,
                "pitch": 35,
                "velocity": 64,
                "duration": 0.0818182,
                "tempo": 120.0
            },
            {
                "start_time": 8.125,
                "end_time": 8.2545455,
                "pitch": 35,
                "velocity": 64,
                "duration": 0.1295455,
                "tempo": 120.0
            },
            {
                "start_time": 8.2704545,
                "end_time": 8.3522727,
                "pitch": 35,
                "velocity": 64,
                "duration": 0.0818182,
                "tempo": 120.0
            },
            {
                "start_time": 9.0181818,
                "end_time": 9.1568182,
                "pitch": 30,
                "velocity": 64,
                "duration": 0.1386364,
                "tempo": 120.0
            },
            {
                "start_time": 9.1727273,
                "end_time": 9.3113636,
                "pitch": 33,
                "velocity": 64,
                "duration": 0.1386364,
                "tempo": 120.0
            },
            {
                "start_time": 9.3272727,
                "end_time": 9.6045455,
                "pitch": 28,
                "velocity": 64,
                "duration": 0.2772727,
                "tempo": 120.0
            },
            {
                "start_time": 9.6204545,
                "end_time": 9.7522727,
                "pitch": 35,
                "velocity": 64,
                "duration": 0.1318182,
                "tempo": 120.0
            },
            {
                "start_time": 9.7704545,
                "end_time": 10.5136364,
                "pitch": 35,
                "velocity": 64,
                "duration": 0.7431818,
                "tempo": 120.0
            },
            {
                "start_time": 10.5318182,
                "end_time": 10.6613636,
                "pitch": 35,
                "velocity": 64,
                "duration": 0.1295455,
                "tempo": 120.0
            },
            {
                "start_time": 10.6772727,
                "end_time": 10.7590909,
                "pitch": 35,
                "velocity": 64,
                "duration": 0.0818182,
                "tempo": 120.0
            },
            {
                "start_time": 11.425,
                "end_time": 11.5613636,
                "pitch": 30,
                "velocity": 64,
                "duration": 0.1363636,
                "tempo": 120.0
            },
            {
                "start_time": 11.5795455,
                "end_time": 11.7181818,
                "pitch": 33,
                "velocity": 64,
                "duration": 0.1386364,
                "tempo": 120.0
            },
            {
                "start_time": 11.7340909,
                "end_time": 12.0090909,
                "pitch": 30,
                "velocity": 64,
                "duration": 0.275,
                "tempo": 120.0
            },
            {
                "start_time": 12.025,
                "end_time": 12.1590909,
                "pitch": 35,
                "velocity": 64,
                "duration": 0.1340909,
                "tempo": 120.0
            },
            {
                "start_time": 12.1772727,
                "end_time": 12.2613636,
                "pitch": 35,
                "velocity": 64,
                "duration": 0.0840909,
                "tempo": 120.0
            },
            {
                "start_time": 12.9386364,
                "end_time": 13.0681818,
                "pitch": 35,
                "velocity": 64,
                "duration": 0.1295455,
                "tempo": 120.0
            },
            {
                "start_time": 13.0840909,
                "end_time": 13.1659091,
                "pitch": 35,
                "velocity": 64,
                "duration": 0.0818182,
                "tempo": 120.0
            },
            {
                "start_time": 13.8318182,
                "end_time": 13.9659091,
                "pitch": 30,
                "velocity": 64,
                "duration": 0.1340909,
                "tempo": 120.0
            },
            {
                "start_time": 13.9840909,
                "end_time": 14.1181818,
                "pitch": 33,
                "velocity": 64,
                "duration": 0.1340909,
                "tempo": 120.0
            },
            {
                "start_time": 14.1340909,
                "end_time": 14.4181818,
                "pitch": 28,
                "velocity": 64,
                "duration": 0.2840909,
                "tempo": 120.0
            },
            {
                "start_time": 14.4340909,
                "end_time": 14.5681818,
                "pitch": 35,
                "velocity": 64,
                "duration": 0.1340909,
                "tempo": 120.0
            },
            {
                "start_time": 14.5840909,
                "end_time": 15.3295455,
                "pitch": 35,
                "velocity": 64,
                "duration": 0.7454545,
                "tempo": 120.0
            },
            {
                "start_time": 15.3454545,
                "end_time": 15.475,
                "pitch": 35,
                "velocity": 64,
                "duration": 0.1295455,
                "tempo": 120.0
            },
            {
                "start_time": 15.4909091,
                "end_time": 15.5727273,
                "pitch": 35,
                "velocity": 64,
                "duration": 0.0818182,
                "tempo": 120.0
            },
            {
                "start_time": 16.2386364,
                "end_time": 16.3727273,
                "pitch": 30,
                "velocity": 64,
                "duration": 0.1340909,
                "tempo": 120.0
            },
            {
                "start_time": 16.3886364,
                "end_time": 16.5227273,
                "pitch": 33,
                "velocity": 64,
                "duration": 0.1340909,
                "tempo": 120.0
            },
            {
                "start_time": 16.5386364,
                "end_time": 16.8227273,
                "pitch": 30,
                "velocity": 64,
                "duration": 0.2840909,
                "tempo": 120.0
            },
            {
                "start_time": 16.8409091,
                "end_time": 16.975,
                "pitch": 35,
                "velocity": 64,
                "duration": 0.1340909,
                "tempo": 120.0
            },
            {
                "start_time": 16.9909091,
                "end_time": 17.075,
                "pitch": 35,
                "velocity": 64,
                "duration": 0.0840909,
                "tempo": 120.0
            },
            {
                "start_time": 17.7431818,
                "end_time": 17.8772727,
                "pitch": 35,
                "velocity": 64,
                "duration": 0.1340909,
                "tempo": 120.0
            },
            {
                "start_time": 17.8931818,
                "end_time": 17.9772727,
                "pitch": 35,
                "velocity": 64,
                "duration": 0.0840909,
                "tempo": 120.0
            },
            {
                "start_time": 18.6477273,
                "end_time": 18.7818182,
                "pitch": 30,
                "velocity": 64,
                "duration": 0.1340909,
                "tempo": 120.0
            },
            {
                "start_time": 18.7977273,
                "end_time": 18.9318182,
                "pitch": 33,
                "velocity": 64,
                "duration": 0.1340909,
                "tempo": 120.0
            },
            {
                "start_time": 18.95,
                "end_time": 19.2318182,
                "pitch": 28,
                "velocity": 64,
                "duration": 0.2818182,
                "tempo": 120.0
            },
            {
                "start_time": 19.25,
                "end_time": 19.3840909,
                "pitch": 35,
                "velocity": 64,
                "duration": 0.1340909,
                "tempo": 120.0
            },
            {
                "start_time": 19.4,
                "end_time": 20.1363636,
                "pitch": 35,
                "velocity": 64,
                "duration": 0.7363636,
                "tempo": 120.0
            },
            {
                "start_time": 20.1545455,
                "end_time": 20.2886364,
                "pitch": 35,
                "velocity": 64,
                "duration": 0.1340909,
                "tempo": 120.0
            },
            {
                "start_time": 20.3045455,
                "end_time": 20.3886364,
                "pitch": 35,
                "velocity": 64,
                "duration": 0.0840909,
                "tempo": 120.0
            },
            {
                "start_time": 21.0568182,
                "end_time": 21.1909091,
                "pitch": 30,
                "velocity": 64,
                "duration": 0.1340909,
                "tempo": 120.0
            },
            {
                "start_time": 21.2068182,
                "end_time": 21.3409091,
                "pitch": 33,
                "velocity": 64,
                "duration": 0.1340909,
                "tempo": 120.0
            },
            {
                "start_time": 21.3590909,
                "end_time": 21.6431818,
                "pitch": 30,
                "velocity": 64,
                "duration": 0.2840909,
                "tempo": 120.0
            },
            {
                "start_time": 21.6590909,
                "end_time": 21.7931818,
                "pitch": 35,
                "velocity": 64,
                "duration": 0.1340909,
                "tempo": 120.0
            },
            {
                "start_time": 21.8113636,
                "end_time": 21.8954545,
                "pitch": 35,
                "velocity": 64,
                "duration": 0.0840909,
                "tempo": 120.0
            },
            {
                "start_time": 22.5727273,
                "end_time": 22.7022727,
                "pitch": 35,
                "velocity": 64,
                "duration": 0.1295455,
                "tempo": 120.0
            },
            {
                "start_time": 22.7181818,
                "end_time": 22.7977273,
                "pitch": 35,
                "velocity": 64,
                "duration": 0.0795455,
                "tempo": 120.0
            },
            {
                "start_time": 23.4659091,
                "end_time": 23.5977273,
                "pitch": 30,
                "velocity": 64,
                "duration": 0.1318182,
                "tempo": 120.0
            },
            {
                "start_time": 23.6159091,
                "end_time": 23.7477273,
                "pitch": 33,
                "velocity": 64,
                "duration": 0.1318182,
                "tempo": 120.0
            },
            {
                "start_time": 23.7659091,
                "end_time": 24.05,
                "pitch": 28,
                "velocity": 64,
                "duration": 0.2840909,
                "tempo": 120.0
            },
            {
                "start_time": 24.0659091,
                "end_time": 24.2,
                "pitch": 35,
                "velocity": 64,
                "duration": 0.1340909,
                "tempo": 120.0
            },
            {
                "start_time": 24.2181818,
                "end_time": 24.9636364,
                "pitch": 35,
                "velocity": 64,
                "duration": 0.7454545,
                "tempo": 120.0
            },
            {
                "start_time": 24.9795455,
                "end_time": 25.1090909,
                "pitch": 35,
                "velocity": 64,
                "duration": 0.1295455,
                "tempo": 120.0
            },
            {
                "start_time": 25.125,
                "end_time": 25.2068182,
                "pitch": 35,
                "velocity": 64,
                "duration": 0.0818182,
                "tempo": 120.0
            },
            {
                "start_time": 25.875,
                "end_time": 26.0090909,
                "pitch": 30,
                "velocity": 64,
                "duration": 0.1340909,
                "tempo": 120.0
            },
            {
                "start_time": 26.025,
                "end_time": 26.1590909,
                "pitch": 33,
                "velocity": 64,
                "duration": 0.1340909,
                "tempo": 120.0
            },
            {
                "start_time": 26.175,
                "end_time": 26.4613636,
                "pitch": 30,
                "velocity": 64,
                "duration": 0.2863636,
                "tempo": 120.0
            },
            {
                "start_time": 26.4772727,
                "end_time": 26.6113636,
                "pitch": 35,
                "velocity": 64,
                "duration": 0.1340909,
                "tempo": 120.0
            },
            {
                "start_time": 26.6272727,
                "end_time": 26.7113636,
                "pitch": 35,
                "velocity": 64,
                "duration": 0.0840909,
                "tempo": 120.0
            },
            {
                "start_time": 27.3886364,
                "end_time": 27.5181818,
                "pitch": 35,
                "velocity": 64,
                "duration": 0.1295455,
                "tempo": 120.0
            },
            {
                "start_time": 27.5340909,
                "end_time": 27.6159091,
                "pitch": 35,
                "velocity": 64,
                "duration": 0.0818182,
                "tempo": 120.0
            },
            {
                "start_time": 28.2818182,
                "end_time": 28.4159091,
                "pitch": 30,
                "velocity": 64,
                "duration": 0.1340909,
                "tempo": 120.0
            },
            {
                "start_time": 28.4318182,
                "end_time": 28.5659091,
                "pitch": 33,
                "velocity": 64,
                "duration": 0.1340909,
                "tempo": 120.0
            },
            {
                "start_time": 28.5840909,
                "end_time": 28.8681818,
                "pitch": 28,
                "velocity": 64,
                "duration": 0.2840909,
                "tempo": 120.0
            },
            {
                "start_time": 28.8840909,
                "end_time": 29.0181818,
                "pitch": 35,
                "velocity": 64,
                "duration": 0.1340909,
                "tempo": 120.0
            },
            {
                "start_time": 29.0363636,
                "end_time": 29.7704545,
                "pitch": 35,
                "velocity": 64,
                "duration": 0.7340909,
                "tempo": 120.0
            },
            {
                "start_time": 29.7886364,
                "end_time": 29.9227273,
                "pitch": 35,
                "velocity": 64,
                "duration": 0.1340909,
                "tempo": 120.0
            },
            {
                "start_time": 29.9386364,
                "end_time": 30.0227273,
                "pitch": 35,
                "velocity": 64,
                "duration": 0.0840909,
                "tempo": 120.0
            },
            {
                "start_time": 30.6909091,
                "end_time": 30.8295455,
                "pitch": 30,
                "velocity": 64,
                "duration": 0.1386364,
                "tempo": 120.0
            },
            {
                "start_time": 30.8454545,
                "end_time": 30.9840909,
                "pitch": 33,
                "velocity": 64,
                "duration": 0.1386364,
                "tempo": 120.0
            },
            {
                "start_time": 31.0022727,
                "end_time": 31.2772727,
                "pitch": 30,
                "velocity": 64,
                "duration": 0.275,
                "tempo": 120.0
            },
            {
                "start_time": 31.2931818,
                "end_time": 31.4272727,
                "pitch": 35,
                "velocity": 64,
                "duration": 0.1340909,
                "tempo": 120.0
            },
            {
                "start_time": 31.4431818,
                "end_time": 31.5272727,
                "pitch": 35,
                "velocity": 64,
                "duration": 0.0840909,
                "tempo": 120.0
            },
            {
                "start_time": 32.2068182,
                "end_time": 32.3363636,
                "pitch": 35,
                "velocity": 64,
                "duration": 0.1295455,
                "tempo": 120.0
            },
            {
                "start_time": 32.3522727,
                "end_time": 32.4340909,
                "pitch": 35,
                "velocity": 64,
                "duration": 0.0818182,
                "tempo": 120.0
            },
            {
                "start_time": 33.1,
                "end_time": 33.2318182,
                "pitch": 30,
                "velocity": 64,
                "duration": 0.1318182,
                "tempo": 120.0
            },
            {
                "start_time": 33.25,
                "end_time": 33.3818182,
                "pitch": 33,
                "velocity": 64,
                "duration": 0.1318182,
                "tempo": 120.0
            },
            {
                "start_time": 33.4,
                "end_time": 33.6818182,
                "pitch": 28,
                "velocity": 64,
                "duration": 0.2818182,
                "tempo": 120.0
            },
            {
                "start_time": 33.7,
                "end_time": 33.8340909,
                "pitch": 35,
                "velocity": 64,
                "duration": 0.1340909,
                "tempo": 120.0
            },
            {
                "start_time": 33.85,
                "end_time": 34.5931818,
                "pitch": 35,
                "velocity": 64,
                "duration": 0.7431818,
                "tempo": 120.0
            },
            {
                "start_time": 34.6113636,
                "end_time": 34.7409091,
                "pitch": 35,
                "velocity": 64,
                "duration": 0.1295455,
                "tempo": 120.0
            },
            {
                "start_time": 34.7568182,
                "end_time": 34.8386364,
                "pitch": 35,
                "velocity": 64,
                "duration": 0.0818182,
                "tempo": 120.0
            },
            {
                "start_time": 35.5045455,
                "end_time": 35.6363636,
                "pitch": 30,
                "velocity": 64,
                "duration": 0.1318182,
                "tempo": 120.0
            },
            {
                "start_time": 35.6545455,
                "end_time": 35.7863636,
                "pitch": 33,
                "velocity": 64,
                "duration": 0.1318182,
                "tempo": 120.0
            },
            {
                "start_time": 35.8045455,
                "end_time": 36.0886364,
                "pitch": 30,
                "velocity": 64,
                "duration": 0.2840909,
                "tempo": 120.0
            },
            {
                "start_time": 36.1045455,
                "end_time": 36.2386364,
                "pitch": 35,
                "velocity": 64,
                "duration": 0.1340909,
                "tempo": 120.0
            },
            {
                "start_time": 36.2545455,
                "end_time": 36.3386364,
                "pitch": 35,
                "velocity": 64,
                "duration": 0.0840909,
                "tempo": 120.0
            },
            {
                "start_time": 37.0068182,
                "end_time": 37.1409091,
                "pitch": 35,
                "velocity": 64,
                "duration": 0.1340909,
                "tempo": 120.0
            },
            {
                "start_time": 37.1568182,
                "end_time": 37.2409091,
                "pitch": 35,
                "velocity": 64,
                "duration": 0.0840909,
                "tempo": 120.0
            },
            {
                "start_time": 37.9090909,
                "end_time": 38.0454545,
                "pitch": 30,
                "velocity": 64,
                "duration": 0.1363636,
                "tempo": 120.0
            },
            {
                "start_time": 38.0636364,
                "end_time": 38.2022727,
                "pitch": 33,
                "velocity": 64,
                "duration": 0.1386364,
                "tempo": 120.0
            },
            {
                "start_time": 38.2181818,
                "end_time": 38.4931818,
                "pitch": 28,
                "velocity": 64,
                "duration": 0.275,
                "tempo": 120.0
            },
            {
                "start_time": 38.5113636,
                "end_time": 38.9477273,
                "pitch": 31,
                "velocity": 64,
                "duration": 0.4363636,
                "tempo": 120.0
            },
            {
                "start_time": 38.9659091,
                "end_time": 39.25,
                "pitch": 43,
                "velocity": 64,
                "duration": 0.2840909,
                "tempo": 120.0
            },
            {
                "start_time": 39.2659091,
                "end_time": 39.3954545,
                "pitch": 36,
                "velocity": 64,
                "duration": 0.1295455,
                "tempo": 120.0
            },
            {
                "start_time": 39.4113636,
                "end_time": 39.55,
                "pitch": 37,
                "velocity": 64,
                "duration": 0.1386364,
                "tempo": 120.0
            },
            {
                "start_time": 39.5681818,
                "end_time": 40.0068182,
                "pitch": 38,
                "velocity": 64,
                "duration": 0.4386364,
                "tempo": 120.0
            },
            {
                "start_time": 40.0227273,
                "end_time": 40.3068182,
                "pitch": 33,
                "velocity": 64,
                "duration": 0.2840909,
                "tempo": 120.0
            },
            {
                "start_time": 40.3227273,
                "end_time": 40.6068182,
                "pitch": 31,
                "velocity": 64,
                "duration": 0.2840909,
                "tempo": 120.0
            },
            {
                "start_time": 40.625,
                "end_time": 40.6568182,
                "pitch": 32,
                "velocity": 64,
                "duration": 0.0318182,
                "tempo": 120.0
            },
            {
                "start_time": 40.6727273,
                "end_time": 41.0477273,
                "pitch": 33,
                "velocity": 64,
                "duration": 0.375,
                "tempo": 120.0
            },
            {
                "start_time": 41.0659091,
                "end_time": 41.35,
                "pitch": 45,
                "velocity": 64,
                "duration": 0.2840909,
                "tempo": 120.0
            },
            {
                "start_time": 41.3659091,
                "end_time": 41.5,
                "pitch": 38,
                "velocity": 64,
                "duration": 0.1340909,
                "tempo": 120.0
            },
            {
                "start_time": 41.5159091,
                "end_time": 41.6545455,
                "pitch": 39,
                "velocity": 64,
                "duration": 0.1386364,
                "tempo": 120.0
            },
            {
                "start_time": 41.6727273,
                "end_time": 42.1022727,
                "pitch": 40,
                "velocity": 64,
                "duration": 0.4295455,
                "tempo": 120.0
            },
            {
                "start_time": 42.1181818,
                "end_time": 42.2568182,
                "pitch": 28,
                "velocity": 64,
                "duration": 0.1386364,
                "tempo": 120.0
            },
            {
                "start_time": 42.2727273,
                "end_time": 42.4113636,
                "pitch": 30,
                "velocity": 64,
                "duration": 0.1386364,
                "tempo": 120.0
            },
            {
                "start_time": 42.4295455,
                "end_time": 43.0045455,
                "pitch": 28,
                "velocity": 64,
                "duration": 0.575,
                "tempo": 120.0
            },
            {
                "start_time": 43.0227273,
                "end_time": 43.9159091,
                "pitch": 35,
                "velocity": 64,
                "duration": 0.8931818,
                "tempo": 120.0
            },
            {
                "start_time": 43.9340909,
                "end_time": 44.0636364,
                "pitch": 35,
                "velocity": 64,
                "duration": 0.1295455,
                "tempo": 120.0
            },
            {
                "start_time": 44.0795455,
                "end_time": 44.2090909,
                "pitch": 35,
                "velocity": 64,
                "duration": 0.1295455,
                "tempo": 120.0
            },
            {
                "start_time": 44.225,
                "end_time": 44.3636364,
                "pitch": 35,
                "velocity": 64,
                "duration": 0.1386364,
                "tempo": 120.0
            },
            {
                "start_time": 44.3795455,
                "end_time": 44.5181818,
                "pitch": 35,
                "velocity": 64,
                "duration": 0.1386364,
                "tempo": 120.0
            },
            {
                "start_time": 44.5363636,
                "end_time": 44.6636364,
                "pitch": 35,
                "velocity": 64,
                "duration": 0.1272727,
                "tempo": 120.0
            },
            {
                "start_time": 44.6818182,
                "end_time": 44.8113636,
                "pitch": 36,
                "velocity": 64,
                "duration": 0.1295455,
                "tempo": 120.0
            },
            {
                "start_time": 44.8272727,
                "end_time": 45.1113636,
                "pitch": 35,
                "velocity": 64,
                "duration": 0.2840909,
                "tempo": 120.0
            },
            {
                "start_time": 45.1272727,
                "end_time": 45.2613636,
                "pitch": 35,
                "velocity": 64,
                "duration": 0.1340909,
                "tempo": 120.0
            },
            {
                "start_time": 45.2772727,
                "end_time": 45.5613636,
                "pitch": 35,
                "velocity": 64,
                "duration": 0.2840909,
                "tempo": 120.0
            },
            {
                "start_time": 45.5772727,
                "end_time": 45.7113636,
                "pitch": 35,
                "velocity": 64,
                "duration": 0.1340909,
                "tempo": 120.0
            },
            {
                "start_time": 45.7272727,
                "end_time": 46.0204545,
                "pitch": 35,
                "velocity": 64,
                "duration": 0.2931818,
                "tempo": 120.0
            },
            {
                "start_time": 46.0386364,
                "end_time": 46.1727273,
                "pitch": 38,
                "velocity": 64,
                "duration": 0.1340909,
                "tempo": 120.0
            },
            {
                "start_time": 46.1886364,
                "end_time": 46.4681818,
                "pitch": 35,
                "velocity": 64,
                "duration": 0.2795455,
                "tempo": 120.0
            },
            {
                "start_time": 46.4840909,
                "end_time": 46.6136364,
                "pitch": 38,
                "velocity": 64,
                "duration": 0.1295455,
                "tempo": 120.0
            },
            {
                "start_time": 46.6295455,
                "end_time": 46.7681818,
                "pitch": 35,
                "velocity": 64,
                "duration": 0.1386364,
                "tempo": 120.0
            },
            {
                "start_time": 46.7840909,
                "end_time": 46.9227273,
                "pitch": 35,
                "velocity": 64,
                "duration": 0.1386364,
                "tempo": 120.0
            },
            {
                "start_time": 46.9409091,
                "end_time": 47.0704545,
                "pitch": 38,
                "velocity": 64,
                "duration": 0.1295455,
                "tempo": 120.0
            },
            {
                "start_time": 47.0863636,
                "end_time": 47.2159091,
                "pitch": 35,
                "velocity": 64,
                "duration": 0.1295455,
                "tempo": 120.0
            },
            {
                "start_time": 47.2318182,
                "end_time": 47.3659091,
                "pitch": 35,
                "velocity": 64,
                "duration": 0.1340909,
                "tempo": 120.0
            },
            {
                "start_time": 47.3818182,
                "end_time": 47.5159091,
                "pitch": 36,
                "velocity": 64,
                "duration": 0.1340909,
                "tempo": 120.0
            },
            {
                "start_time": 47.5340909,
                "end_time": 47.6659091,
                "pitch": 38,
                "velocity": 64,
                "duration": 0.1318182,
                "tempo": 120.0
            },
            {
                "start_time": 47.6840909,
                "end_time": 47.9704545,
                "pitch": 35,
                "velocity": 64,
                "duration": 0.2863636,
                "tempo": 120.0
            },
            {
                "start_time": 47.9886364,
                "end_time": 48.1272727,
                "pitch": 33,
                "velocity": 64,
                "duration": 0.1386364,
                "tempo": 120.0
            },
            {
                "start_time": 48.1431818,
                "end_time": 48.5727273,
                "pitch": 31,
                "velocity": 64,
                "duration": 0.4295455,
                "tempo": 120.0
            },
            {
                "start_time": 48.5886364,
                "end_time": 48.8727273,
                "pitch": 43,
                "velocity": 64,
                "duration": 0.2840909,
                "tempo": 120.0
            },
            {
                "start_time": 48.8909091,
                "end_time": 49.0295455,
                "pitch": 36,
                "velocity": 64,
                "duration": 0.1386364,
                "tempo": 120.0
            },
            {
                "start_time": 49.0454545,
                "end_time": 49.1795455,
                "pitch": 37,
                "velocity": 64,
                "duration": 0.1340909,
                "tempo": 120.0
            },
            {
                "start_time": 49.1954545,
                "end_time": 49.6318182,
                "pitch": 38,
                "velocity": 64,
                "duration": 0.4363636,
                "tempo": 120.0
            },
            {
                "start_time": 49.6477273,
                "end_time": 49.9318182,
                "pitch": 33,
                "velocity": 64,
                "duration": 0.2840909,
                "tempo": 120.0
            },
            {
                "start_time": 49.9477273,
                "end_time": 50.2318182,
                "pitch": 31,
                "velocity": 64,
                "duration": 0.2840909,
                "tempo": 120.0
            },
            {
                "start_time": 50.25,
                "end_time": 50.2818182,
                "pitch": 32,
                "velocity": 64,
                "duration": 0.0318182,
                "tempo": 120.0
            },
            {
                "start_time": 50.3,
                "end_time": 50.6772727,
                "pitch": 33,
                "velocity": 64,
                "duration": 0.3772727,
                "tempo": 120.0
            },
            {
                "start_time": 50.6954545,
                "end_time": 50.975,
                "pitch": 45,
                "velocity": 64,
                "duration": 0.2795455,
                "tempo": 120.0
            },
            {
                "start_time": 50.9909091,
                "end_time": 51.125,
                "pitch": 38,
                "velocity": 64,
                "duration": 0.1340909,
                "tempo": 120.0
            },
            {
                "start_time": 51.1409091,
                "end_time": 51.2795455,
                "pitch": 39,
                "velocity": 64,
                "duration": 0.1386364,
                "tempo": 120.0
            },
            {
                "start_time": 51.2977273,
                "end_time": 51.7272727,
                "pitch": 40,
                "velocity": 64,
                "duration": 0.4295455,
                "tempo": 120.0
            },
            {
                "start_time": 51.7431818,
                "end_time": 51.8818182,
                "pitch": 28,
                "velocity": 64,
                "duration": 0.1386364,
                "tempo": 120.0
            },
            {
                "start_time": 51.8977273,
                "end_time": 52.0363636,
                "pitch": 30,
                "velocity": 64,
                "duration": 0.1386364,
                "tempo": 120.0
            },
            {
                "start_time": 52.0545455,
                "end_time": 52.6295455,
                "pitch": 28,
                "velocity": 64,
                "duration": 0.575,
                "tempo": 120.0
            },
            {
                "start_time": 52.6477273,
                "end_time": 53.5409091,
                "pitch": 35,
                "velocity": 64,
                "duration": 0.8931818,
                "tempo": 120.0
            },
            {
                "start_time": 53.5568182,
                "end_time": 53.6863636,
                "pitch": 35,
                "velocity": 64,
                "duration": 0.1295455,
                "tempo": 120.0
            },
            {
                "start_time": 53.7022727,
                "end_time": 53.8318182,
                "pitch": 35,
                "velocity": 64,
                "duration": 0.1295455,
                "tempo": 120.0
            },
            {
                "start_time": 53.8477273,
                "end_time": 53.9863636,
                "pitch": 35,
                "velocity": 64,
                "duration": 0.1386364,
                "tempo": 120.0
            },
            {
                "start_time": 54.0022727,
                "end_time": 54.1409091,
                "pitch": 35,
                "velocity": 64,
                "duration": 0.1386364,
                "tempo": 120.0
            },
            {
                "start_time": 54.1590909,
                "end_time": 54.2886364,
                "pitch": 35,
                "velocity": 64,
                "duration": 0.1295455,
                "tempo": 120.0
            },
            {
                "start_time": 54.3045455,
                "end_time": 54.4340909,
                "pitch": 36,
                "velocity": 64,
                "duration": 0.1295455,
                "tempo": 120.0
            },
            {
                "start_time": 54.45,
                "end_time": 54.7340909,
                "pitch": 35,
                "velocity": 64,
                "duration": 0.2840909,
                "tempo": 120.0
            },
            {
                "start_time": 54.75,
                "end_time": 54.8840909,
                "pitch": 35,
                "velocity": 64,
                "duration": 0.1340909,
                "tempo": 120.0
            },
            {
                "start_time": 54.9,
                "end_time": 55.1840909,
                "pitch": 35,
                "velocity": 64,
                "duration": 0.2840909,
                "tempo": 120.0
            },
            {
                "start_time": 55.2022727,
                "end_time": 55.3340909,
                "pitch": 35,
                "velocity": 64,
                "duration": 0.1318182,
                "tempo": 120.0
            },
            {
                "start_time": 55.3522727,
                "end_time": 55.6454545,
                "pitch": 35,
                "velocity": 64,
                "duration": 0.2931818,
                "tempo": 120.0
            },
            {
                "start_time": 55.6613636,
                "end_time": 55.7909091,
                "pitch": 38,
                "velocity": 64,
                "duration": 0.1295455,
                "tempo": 120.0
            },
            {
                "start_time": 55.8068182,
                "end_time": 56.0863636,
                "pitch": 35,
                "velocity": 64,
                "duration": 0.2795455,
                "tempo": 120.0
            },
            {
                "start_time": 56.1022727,
                "end_time": 56.2363636,
                "pitch": 38,
                "velocity": 64,
                "duration": 0.1340909,
                "tempo": 120.0
            },
            {
                "start_time": 56.2522727,
                "end_time": 56.3863636,
                "pitch": 35,
                "velocity": 64,
                "duration": 0.1340909,
                "tempo": 120.0
            },
            {
                "start_time": 56.4045455,
                "end_time": 56.5386364,
                "pitch": 35,
                "velocity": 64,
                "duration": 0.1340909,
                "tempo": 120.0
            },
            {
                "start_time": 56.5545455,
                "end_time": 56.6886364,
                "pitch": 38,
                "velocity": 64,
                "duration": 0.1340909,
                "tempo": 120.0
            },
            {
                "start_time": 56.7045455,
                "end_time": 56.8386364,
                "pitch": 35,
                "velocity": 64,
                "duration": 0.1340909,
                "tempo": 120.0
            },
            {
                "start_time": 56.8545455,
                "end_time": 56.9886364,
                "pitch": 35,
                "velocity": 64,
                "duration": 0.1340909,
                "tempo": 120.0
            },
            {
                "start_time": 57.0045455,
                "end_time": 57.1386364,
                "pitch": 36,
                "velocity": 64,
                "duration": 0.1340909,
                "tempo": 120.0
            },
            {
                "start_time": 57.1568182,
                "end_time": 57.2886364,
                "pitch": 38,
                "velocity": 64,
                "duration": 0.1318182,
                "tempo": 120.0
            },
            {
                "start_time": 57.3068182,
                "end_time": 57.5886364,
                "pitch": 35,
                "velocity": 64,
                "duration": 0.2818182,
                "tempo": 120.0
            },
            {
                "start_time": 57.6068182,
                "end_time": 57.6386364,
                "pitch": 33,
                "velocity": 64,
                "duration": 0.0318182,
                "tempo": 120.0
            }
        ],
        "Lead 2 (sawtooth)": [
            {
                "start_time": 0.3068182,
                "end_time": 0.4363636,
                "pitch": 69,
                "velocity": 40,
                "duration": 0.1295455,
                "tempo": 120.0
            },
            {
                "start_time": 0.4522727,
                "end_time": 0.5340909,
                "pitch": 69,
                "velocity": 40,
                "duration": 0.0818182,
                "tempo": 120.0
            },
            {
                "start_time": 1.5090909,
                "end_time": 1.6386364,
                "pitch": 74,
                "velocity": 40,
                "duration": 0.1295455,
                "tempo": 120.0
            },
            {
                "start_time": 1.6545455,
                "end_time": 2.0863636,
                "pitch": 74,
                "velocity": 40,
                "duration": 0.4318182,
                "tempo": 120.0
            },
            {
                "start_time": 2.1022727,
                "end_time": 2.2363636,
                "pitch": 73,
                "velocity": 40,
                "duration": 0.1340909,
                "tempo": 120.0
            },
            {
                "start_time": 2.2522727,
                "end_time": 2.6863636,
                "pitch": 73,
                "velocity": 40,
                "duration": 0.4340909,
                "tempo": 120.0
            },
            {
                "start_time": 2.7045455,
                "end_time": 2.8386364,
                "pitch": 69,
                "velocity": 40,
                "duration": 0.1340909,
                "tempo": 120.0
            },
            {
                "start_time": 2.8545455,
                "end_time": 2.9386364,
                "pitch": 69,
                "velocity": 40,
                "duration": 0.0840909,
                "tempo": 120.0
            },
            {
                "start_time": 3.9181818,
                "end_time": 4.0477273,
                "pitch": 76,
                "velocity": 40,
                "duration": 0.1295455,
                "tempo": 120.0
            },
            {
                "start_time": 4.0636364,
                "end_time": 4.5022727,
                "pitch": 76,
                "velocity": 40,
                "duration": 0.4386364,
                "tempo": 120.0
            },
            {
                "start_time": 4.5181818,
                "end_time": 4.6477273,
                "pitch": 73,
                "velocity": 40,
                "duration": 0.1295455,
                "tempo": 120.0
            },
            {
                "start_time": 4.6636364,
                "end_time": 5.0931818,
                "pitch": 73,
                "velocity": 40,
                "duration": 0.4295455,
                "tempo": 120.0
            },
            {
                "start_time": 5.1090909,
                "end_time": 5.2431818,
                "pitch": 69,
                "velocity": 40,
                "duration": 0.1340909,
                "tempo": 120.0
            },
            {
                "start_time": 5.2590909,
                "end_time": 5.3431818,
                "pitch": 69,
                "velocity": 40,
                "duration": 0.0840909,
                "tempo": 120.0
            },
            {
                "start_time": 6.3227273,
                "end_time": 6.4522727,
                "pitch": 74,
                "velocity": 40,
                "duration": 0.1295455,
                "tempo": 120.0
            },
            {
                "start_time": 6.4681818,
                "end_time": 6.8977273,
                "pitch": 74,
                "velocity": 40,
                "duration": 0.4295455,
                "tempo": 120.0
            },
            {
                "start_time": 6.9136364,
                "end_time": 7.0477273,
                "pitch": 73,
                "velocity": 40,
                "duration": 0.1340909,
                "tempo": 120.0
            },
            {
                "start_time": 7.0636364,
                "end_time": 7.4977273,
                "pitch": 73,
                "velocity": 40,
                "duration": 0.4340909,
                "tempo": 120.0
            },
            {
                "start_time": 7.5159091,
                "end_time": 7.6477273,
                "pitch": 69,
                "velocity": 40,
                "duration": 0.1318182,
                "tempo": 120.0
            },
            {
                "start_time": 7.6659091,
                "end_time": 7.7477273,
                "pitch": 69,
                "velocity": 40,
                "duration": 0.0818182,
                "tempo": 120.0
            },
            {
                "start_time": 8.7272727,
                "end_time": 8.8568182,
                "pitch": 71,
                "velocity": 40,
                "duration": 0.1295455,
                "tempo": 120.0
            },
            {
                "start_time": 8.8727273,
                "end_time": 8.9522727,
                "pitch": 71,
                "velocity": 40,
                "duration": 0.0795455,
                "tempo": 120.0
            },
            {
                "start_time": 9.9204545,
                "end_time": 10.0545455,
                "pitch": 69,
                "velocity": 40,
                "duration": 0.1340909,
                "tempo": 120.0
            },
            {
                "start_time": 10.0704545,
                "end_time": 10.1545455,
                "pitch": 69,
                "velocity": 40,
                "duration": 0.0840909,
                "tempo": 120.0
            },
            {
                "start_time": 11.1340909,
                "end_time": 11.2636364,
                "pitch": 74,
                "velocity": 40,
                "duration": 0.1295455,
                "tempo": 120.0
            },
            {
                "start_time": 11.2795455,
                "end_time": 11.7181818,
                "pitch": 74,
                "velocity": 40,
                "duration": 0.4386364,
                "tempo": 120.0
            },
            {
                "start_time": 11.7340909,
                "end_time": 11.8636364,
                "pitch": 73,
                "velocity": 40,
                "duration": 0.1295455,
                "tempo": 120.0
            },
            {
                "start_time": 11.8795455,
                "end_time": 12.3113636,
                "pitch": 73,
                "velocity": 40,
                "duration": 0.4318182,
                "tempo": 120.0
            },
            {
                "start_time": 12.3272727,
                "end_time": 12.4613636,
                "pitch": 69,
                "velocity": 40,
                "duration": 0.1340909,
                "tempo": 120.0
            },
            {
                "start_time": 12.4772727,
                "end_time": 12.5613636,
                "pitch": 69,
                "velocity": 40,
                "duration": 0.0840909,
                "tempo": 120.0
            },
            {
                "start_time": 13.5409091,
                "end_time": 13.6704545,
                "pitch": 76,
                "velocity": 40,
                "duration": 0.1295455,
                "tempo": 120.0
            },
            {
                "start_time": 13.6863636,
                "end_time": 14.1181818,
                "pitch": 76,
                "velocity": 40,
                "duration": 0.4318182,
                "tempo": 120.0
            },
            {
                "start_time": 14.1340909,
                "end_time": 14.2681818,
                "pitch": 73,
                "velocity": 40,
                "duration": 0.1340909,
                "tempo": 120.0
            },
            {
                "start_time": 14.2840909,
                "end_time": 14.7181818,
                "pitch": 73,
                "velocity": 40,
                "duration": 0.4340909,
                "tempo": 120.0
            },
            {
                "start_time": 14.7363636,
                "end_time": 14.8681818,
                "pitch": 69,
                "velocity": 40,
                "duration": 0.1318182,
                "tempo": 120.0
            },
            {
                "start_time": 14.8863636,
                "end_time": 14.9681818,
                "pitch": 69,
                "velocity": 40,
                "duration": 0.0818182,
                "tempo": 120.0
            },
            {
                "start_time": 15.9363636,
                "end_time": 16.0704545,
                "pitch": 74,
                "velocity": 40,
                "duration": 0.1340909,
                "tempo": 120.0
            },
            {
                "start_time": 16.0886364,
                "end_time": 16.5227273,
                "pitch": 74,
                "velocity": 40,
                "duration": 0.4340909,
                "tempo": 120.0
            },
            {
                "start_time": 16.5386364,
                "end_time": 16.6727273,
                "pitch": 73,
                "velocity": 40,
                "duration": 0.1340909,
                "tempo": 120.0
            },
            {
                "start_time": 16.6886364,
                "end_time": 17.125,
                "pitch": 73,
                "velocity": 40,
                "duration": 0.4363636,
                "tempo": 120.0
            },
            {
                "start_time": 17.1409091,
                "end_time": 17.275,
                "pitch": 69,
                "velocity": 40,
                "duration": 0.1340909,
                "tempo": 120.0
            },
            {
                "start_time": 17.2931818,
                "end_time": 17.3772727,
                "pitch": 69,
                "velocity": 40,
                "duration": 0.0840909,
                "tempo": 120.0
            },
            {
                "start_time": 18.3454545,
                "end_time": 18.4795455,
                "pitch": 71,
                "velocity": 40,
                "duration": 0.1340909,
                "tempo": 120.0
            },
            {
                "start_time": 18.4977273,
                "end_time": 18.5818182,
                "pitch": 71,
                "velocity": 40,
                "duration": 0.0840909,
                "tempo": 120.0
            },
            {
                "start_time": 19.55,
                "end_time": 19.6840909,
                "pitch": 69,
                "velocity": 40,
                "duration": 0.1340909,
                "tempo": 120.0
            },
            {
                "start_time": 19.7022727,
                "end_time": 19.7863636,
                "pitch": 69,
                "velocity": 40,
                "duration": 0.0840909,
                "tempo": 120.0
            },
            {
                "start_time": 20.7659091,
                "end_time": 20.8954545,
                "pitch": 74,
                "velocity": 40,
                "duration": 0.1295455,
                "tempo": 120.0
            },
            {
                "start_time": 20.9113636,
                "end_time": 21.3409091,
                "pitch": 74,
                "velocity": 40,
                "duration": 0.4295455,
                "tempo": 120.0
            },
            {
                "start_time": 21.3590909,
                "end_time": 21.4931818,
                "pitch": 73,
                "velocity": 40,
                "duration": 0.1340909,
                "tempo": 120.0
            },
            {
                "start_time": 21.5090909,
                "end_time": 21.9454545,
                "pitch": 73,
                "velocity": 40,
                "duration": 0.4363636,
                "tempo": 120.0
            },
            {
                "start_time": 21.9613636,
                "end_time": 22.0954545,
                "pitch": 69,
                "velocity": 40,
                "duration": 0.1340909,
                "tempo": 120.0
            },
            {
                "start_time": 22.1113636,
                "end_time": 22.1954545,
                "pitch": 69,
                "velocity": 40,
                "duration": 0.0840909,
                "tempo": 120.0
            },
            {
                "start_time": 23.1727273,
                "end_time": 23.3022727,
                "pitch": 76,
                "velocity": 40,
                "duration": 0.1295455,
                "tempo": 120.0
            },
            {
                "start_time": 23.3181818,
                "end_time": 23.7477273,
                "pitch": 76,
                "velocity": 40,
                "duration": 0.4295455,
                "tempo": 120.0
            },
            {
                "start_time": 23.7659091,
                "end_time": 23.9,
                "pitch": 73,
                "velocity": 40,
                "duration": 0.1340909,
                "tempo": 120.0
            },
            {
                "start_time": 23.9159091,
                "end_time": 24.3522727,
                "pitch": 73,
                "velocity": 40,
                "duration": 0.4363636,
                "tempo": 120.0
            },
            {
                "start_time": 24.3681818,
                "end_time": 24.5022727,
                "pitch": 69,
                "velocity": 40,
                "duration": 0.1340909,
                "tempo": 120.0
            },
            {
                "start_time": 24.5181818,
                "end_time": 24.6022727,
                "pitch": 69,
                "velocity": 40,
                "duration": 0.0840909,
                "tempo": 120.0
            },
            {
                "start_time": 25.5727273,
                "end_time": 25.7068182,
                "pitch": 74,
                "velocity": 40,
                "duration": 0.1340909,
                "tempo": 120.0
            },
            {
                "start_time": 25.7227273,
                "end_time": 26.1590909,
                "pitch": 74,
                "velocity": 40,
                "duration": 0.4363636,
                "tempo": 120.0
            },
            {
                "start_time": 26.175,
                "end_time": 26.3090909,
                "pitch": 73,
                "velocity": 40,
                "duration": 0.1340909,
                "tempo": 120.0
            },
            {
                "start_time": 26.3272727,
                "end_time": 26.7613636,
                "pitch": 73,
                "velocity": 40,
                "duration": 0.4340909,
                "tempo": 120.0
            },
            {
                "start_time": 26.7772727,
                "end_time": 26.9113636,
                "pitch": 69,
                "velocity": 40,
                "duration": 0.1340909,
                "tempo": 120.0
            },
            {
                "start_time": 26.9272727,
                "end_time": 27.0113636,
                "pitch": 69,
                "velocity": 40,
                "duration": 0.0840909,
                "tempo": 120.0
            },
            {
                "start_time": 27.9818182,
                "end_time": 28.1159091,
                "pitch": 71,
                "velocity": 40,
                "duration": 0.1340909,
                "tempo": 120.0
            },
            {
                "start_time": 28.1318182,
                "end_time": 28.2159091,
                "pitch": 71,
                "velocity": 40,
                "duration": 0.0840909,
                "tempo": 120.0
            },
            {
                "start_time": 29.1863636,
                "end_time": 29.3204545,
                "pitch": 69,
                "velocity": 40,
                "duration": 0.1340909,
                "tempo": 120.0
            },
            {
                "start_time": 29.3363636,
                "end_time": 29.4204545,
                "pitch": 69,
                "velocity": 40,
                "duration": 0.0840909,
                "tempo": 120.0
            },
            {
                "start_time": 30.4,
                "end_time": 30.5295455,
                "pitch": 74,
                "velocity": 40,
                "duration": 0.1295455,
                "tempo": 120.0
            },
            {
                "start_time": 30.5454545,
                "end_time": 30.9840909,
                "pitch": 74,
                "velocity": 40,
                "duration": 0.4386364,
                "tempo": 120.0
            },
            {
                "start_time": 31.0022727,
                "end_time": 31.1318182,
                "pitch": 73,
                "velocity": 40,
                "duration": 0.1295455,
                "tempo": 120.0
            },
            {
                "start_time": 31.1477273,
                "end_time": 31.5772727,
                "pitch": 73,
                "velocity": 40,
                "duration": 0.4295455,
                "tempo": 120.0
            },
            {
                "start_time": 31.5954545,
                "end_time": 31.7295455,
                "pitch": 69,
                "velocity": 40,
                "duration": 0.1340909,
                "tempo": 120.0
            },
            {
                "start_time": 31.7454545,
                "end_time": 31.8295455,
                "pitch": 69,
                "velocity": 40,
                "duration": 0.0840909,
                "tempo": 120.0
            },
            {
                "start_time": 32.8068182,
                "end_time": 32.9363636,
                "pitch": 76,
                "velocity": 40,
                "duration": 0.1295455,
                "tempo": 120.0
            },
            {
                "start_time": 32.9545455,
                "end_time": 33.3818182,
                "pitch": 76,
                "velocity": 40,
                "duration": 0.4272727,
                "tempo": 120.0
            },
            {
                "start_time": 33.4,
                "end_time": 33.5318182,
                "pitch": 73,
                "velocity": 40,
                "duration": 0.1318182,
                "tempo": 120.0
            },
            {
                "start_time": 33.55,
                "end_time": 33.9840909,
                "pitch": 73,
                "velocity": 40,
                "duration": 0.4340909,
                "tempo": 120.0
            },
            {
                "start_time": 34.0,
                "end_time": 34.1340909,
                "pitch": 69,
                "velocity": 40,
                "duration": 0.1340909,
                "tempo": 120.0
            },
            {
                "start_time": 34.15,
                "end_time": 34.2340909,
                "pitch": 69,
                "velocity": 40,
                "duration": 0.0840909,
                "tempo": 120.0
            },
            {
                "start_time": 35.2136364,
                "end_time": 35.3431818,
                "pitch": 74,
                "velocity": 40,
                "duration": 0.1295455,
                "tempo": 120.0
            },
            {
                "start_time": 35.3590909,
                "end_time": 35.7863636,
                "pitch": 74,
                "velocity": 40,
                "duration": 0.4272727,
                "tempo": 120.0
            },
            {
                "start_time": 35.8045455,
                "end_time": 35.9386364,
                "pitch": 73,
                "velocity": 40,
                "duration": 0.1340909,
                "tempo": 120.0
            },
            {
                "start_time": 35.9545455,
                "end_time": 36.3886364,
                "pitch": 73,
                "velocity": 40,
                "duration": 0.4340909,
                "tempo": 120.0
            },
            {
                "start_time": 36.4045455,
                "end_time": 36.5386364,
                "pitch": 69,
                "velocity": 40,
                "duration": 0.1340909,
                "tempo": 120.0
            },
            {
                "start_time": 36.5545455,
                "end_time": 36.6386364,
                "pitch": 69,
                "velocity": 40,
                "duration": 0.0840909,
                "tempo": 120.0
            },
            {
                "start_time": 37.6090909,
                "end_time": 37.7409091,
                "pitch": 71,
                "velocity": 40,
                "duration": 0.1318182,
                "tempo": 120.0
            },
            {
                "start_time": 37.7590909,
                "end_time": 37.8409091,
                "pitch": 71,
                "velocity": 40,
                "duration": 0.0818182,
                "tempo": 120.0
            },
            {
                "start_time": 38.5113636,
                "end_time": 38.6431818,
                "pitch": 55,
                "velocity": 40,
                "duration": 0.1318182,
                "tempo": 120.0
            },
            {
                "start_time": 38.6613636,
                "end_time": 38.7931818,
                "pitch": 66,
                "velocity": 40,
                "duration": 0.1318182,
                "tempo": 120.0
            },
            {
                "start_time": 38.8113636,
                "end_time": 38.9477273,
                "pitch": 62,
                "velocity": 40,
                "duration": 0.1363636,
                "tempo": 120.0
            },
            {
                "start_time": 38.9659091,
                "end_time": 39.1045455,
                "pitch": 61,
                "velocity": 40,
                "duration": 0.1386364,
                "tempo": 120.0
            },
            {
                "start_time": 39.1204545,
                "end_time": 39.25,
                "pitch": 69,
                "velocity": 40,
                "duration": 0.1295455,
                "tempo": 120.0
            },
            {
                "start_time": 39.2659091,
                "end_time": 39.3954545,
                "pitch": 66,
                "velocity": 40,
                "duration": 0.1295455,
                "tempo": 120.0
            },
            {
                "start_time": 39.4113636,
                "end_time": 39.55,
                "pitch": 71,
                "velocity": 40,
                "duration": 0.1386364,
                "tempo": 120.0
            },
            {
                "start_time": 39.5681818,
                "end_time": 39.7045455,
                "pitch": 62,
                "velocity": 40,
                "duration": 0.1363636,
                "tempo": 120.0
            },
            {
                "start_time": 39.7227273,
                "end_time": 39.8568182,
                "pitch": 57,
                "velocity": 40,
                "duration": 0.1340909,
                "tempo": 120.0
            },
            {
                "start_time": 39.8727273,
                "end_time": 40.0068182,
                "pitch": 67,
                "velocity": 40,
                "duration": 0.1340909,
                "tempo": 120.0
            },
            {
                "start_time": 40.0227273,
                "end_time": 40.1568182,
                "pitch": 71,
                "velocity": 40,
                "duration": 0.1340909,
                "tempo": 120.0
            },
            {
                "start_time": 40.1727273,
                "end_time": 40.3068182,
                "pitch": 66,
                "velocity": 40,
                "duration": 0.1340909,
                "tempo": 120.0
            },
            {
                "start_time": 40.3227273,
                "end_time": 40.4568182,
                "pitch": 62,
                "velocity": 40,
                "duration": 0.1340909,
                "tempo": 120.0
            },
            {
                "start_time": 40.4727273,
                "end_time": 40.6068182,
                "pitch": 71,
                "velocity": 40,
                "duration": 0.1340909,
                "tempo": 120.0
            },
            {
                "start_time": 40.625,
                "end_time": 40.7545455,
                "pitch": 67,
                "velocity": 40,
                "duration": 0.1295455,
                "tempo": 120.0
            },
            {
                "start_time": 40.7704545,
                "end_time": 40.9,
                "pitch": 66,
                "velocity": 40,
                "duration": 0.1295455,
                "tempo": 120.0
            },
            {
                "start_time": 40.9159091,
                "end_time": 41.0477273,
                "pitch": 57,
                "velocity": 40,
                "duration": 0.1318182,
                "tempo": 120.0
            },
            {
                "start_time": 41.0659091,
                "end_time": 41.1977273,
                "pitch": 69,
                "velocity": 40,
                "duration": 0.1318182,
                "tempo": 120.0
            },
            {
                "start_time": 41.2159091,
                "end_time": 41.35,
                "pitch": 61,
                "velocity": 40,
                "duration": 0.1340909,
                "tempo": 120.0
            },
            {
                "start_time": 41.3659091,
                "end_time": 41.5,
                "pitch": 68,
                "velocity": 40,
                "duration": 0.1340909,
                "tempo": 120.0
            },
            {
                "start_time": 41.5159091,
                "end_time": 41.6545455,
                "pitch": 61,
                "velocity": 40,
                "duration": 0.1386364,
                "tempo": 120.0
            },
            {
                "start_time": 41.6727273,
                "end_time": 41.8113636,
                "pitch": 66,
                "velocity": 40,
                "duration": 0.1386364,
                "tempo": 120.0
            },
            {
                "start_time": 41.8272727,
                "end_time": 41.9568182,
                "pitch": 71,
                "velocity": 40,
                "duration": 0.1295455,
                "tempo": 120.0
            },
            {
                "start_time": 41.9727273,
                "end_time": 42.1022727,
                "pitch": 69,
                "velocity": 40,
                "duration": 0.1295455,
                "tempo": 120.0
            },
            {
                "start_time": 42.1181818,
                "end_time": 42.2568182,
                "pitch": 64,
                "velocity": 40,
                "duration": 0.1386364,
                "tempo": 120.0
            },
            {
                "start_time": 42.2727273,
                "end_time": 42.4113636,
                "pitch": 61,
                "velocity": 40,
                "duration": 0.1386364,
                "tempo": 120.0
            },
            {
                "start_time": 42.4295455,
                "end_time": 42.5590909,
                "pitch": 73,
                "velocity": 40,
                "duration": 0.1295455,
                "tempo": 120.0
            },
            {
                "start_time": 42.575,
                "end_time": 42.7045455,
                "pitch": 69,
                "velocity": 40,
                "duration": 0.1295455,
                "tempo": 120.0
            },
            {
                "start_time": 42.7204545,
                "end_time": 42.8545455,
                "pitch": 64,
                "velocity": 40,
                "duration": 0.1340909,
                "tempo": 120.0
            },
            {
                "start_time": 42.8704545,
                "end_time": 43.0045455,
                "pitch": 61,
                "velocity": 40,
                "duration": 0.1340909,
                "tempo": 120.0
            },
            {
                "start_time": 43.0227273,
                "end_time": 43.1545455,
                "pitch": 69,
                "velocity": 40,
                "duration": 0.1318182,
                "tempo": 120.0
            },
            {
                "start_time": 43.1727273,
                "end_time": 43.3045455,
                "pitch": 65,
                "velocity": 40,
                "duration": 0.1318182,
                "tempo": 120.0
            },
            {
                "start_time": 43.3227273,
                "end_time": 43.6068182,
                "pitch": 59,
                "velocity": 40,
                "duration": 0.2840909,
                "tempo": 120.0
            },
            {
                "start_time": 43.6227273,
                "end_time": 43.7613636,
                "pitch": 71,
                "velocity": 40,
                "duration": 0.1386364,
                "tempo": 120.0
            },
            {
                "start_time": 43.7795455,
                "end_time": 44.0636364,
                "pitch": 59,
                "velocity": 40,
                "duration": 0.2840909,
                "tempo": 120.0
            },
            {
                "start_time": 44.0795455,
                "end_time": 44.2090909,
                "pitch": 69,
                "velocity": 40,
                "duration": 0.1295455,
                "tempo": 120.0
            },
            {
                "start_time": 44.225,
                "end_time": 44.5181818,
                "pitch": 59,
                "velocity": 40,
                "duration": 0.2931818,
                "tempo": 120.0
            },
            {
                "start_time": 44.5363636,
                "end_time": 44.6636364,
                "pitch": 67,
                "velocity": 40,
                "duration": 0.1272727,
                "tempo": 120.0
            },
            {
                "start_time": 44.6818182,
                "end_time": 44.9613636,
                "pitch": 59,
                "velocity": 40,
                "duration": 0.2795455,
                "tempo": 120.0
            },
            {
                "start_time": 44.9772727,
                "end_time": 45.1113636,
                "pitch": 66,
                "velocity": 40,
                "duration": 0.1340909,
                "tempo": 120.0
            },
            {
                "start_time": 45.1272727,
                "end_time": 45.2613636,
                "pitch": 59,
                "velocity": 40,
                "duration": 0.1340909,
                "tempo": 120.0
            },
            {
                "start_time": 45.2772727,
                "end_time": 45.4113636,
                "pitch": 61,
                "velocity": 40,
                "duration": 0.1340909,
                "tempo": 120.0
            },
            {
                "start_time": 45.4272727,
                "end_time": 45.5613636,
                "pitch": 62,
                "velocity": 40,
                "duration": 0.1340909,
                "tempo": 120.0
            },
            {
                "start_time": 45.5772727,
                "end_time": 45.7113636,
                "pitch": 64,
                "velocity": 40,
                "duration": 0.1340909,
                "tempo": 120.0
            },
            {
                "start_time": 45.7272727,
                "end_time": 46.0204545,
                "pitch": 59,
                "velocity": 40,
                "duration": 0.2931818,
                "tempo": 120.0
            },
            {
                "start_time": 46.0386364,
                "end_time": 46.1727273,
                "pitch": 73,
                "velocity": 40,
                "duration": 0.1340909,
                "tempo": 120.0
            },
            {
                "start_time": 46.1886364,
                "end_time": 46.4681818,
                "pitch": 59,
                "velocity": 40,
                "duration": 0.2795455,
                "tempo": 120.0
            },
            {
                "start_time": 46.4840909,
                "end_time": 46.6136364,
                "pitch": 71,
                "velocity": 40,
                "duration": 0.1295455,
                "tempo": 120.0
            },
            {
                "start_time": 46.6295455,
                "end_time": 46.9227273,
                "pitch": 59,
                "velocity": 40,
                "duration": 0.2931818,
                "tempo": 120.0
            },
            {
                "start_time": 46.9409091,
                "end_time": 47.0704545,
                "pitch": 69,
                "velocity": 40,
                "duration": 0.1295455,
                "tempo": 120.0
            },
            {
                "start_time": 47.0863636,
                "end_time": 47.3159091,
                "pitch": 59,
                "velocity": 40,
                "duration": 0.2295455,
                "tempo": 120.0
            },
            {
                "start_time": 47.3318182,
                "end_time": 47.5159091,
                "pitch": 67,
                "velocity": 40,
                "duration": 0.1840909,
                "tempo": 120.0
            },
            {
                "start_time": 47.5340909,
                "end_time": 47.6659091,
                "pitch": 62,
                "velocity": 40,
                "duration": 0.1318182,
                "tempo": 120.0
            },
            {
                "start_time": 47.6840909,
                "end_time": 47.9704545,
                "pitch": 64,
                "velocity": 40,
                "duration": 0.2863636,
                "tempo": 120.0
            },
            {
                "start_time": 47.9886364,
                "end_time": 48.1272727,
                "pitch": 69,
                "velocity": 40,
                "duration": 0.1386364,
                "tempo": 120.0
            },
            {
                "start_time": 48.1431818,
                "end_time": 48.2772727,
                "pitch": 55,
                "velocity": 40,
                "duration": 0.1340909,
                "tempo": 120.0
            },
            {
                "start_time": 48.2931818,
                "end_time": 48.4272727,
                "pitch": 66,
                "velocity": 40,
                "duration": 0.1340909,
                "tempo": 120.0
            },
            {
                "start_time": 48.4431818,
                "end_time": 48.5727273,
                "pitch": 62,
                "velocity": 40,
                "duration": 0.1295455,
                "tempo": 120.0
            },
            {
                "start_time": 48.5886364,
                "end_time": 48.7181818,
                "pitch": 61,
                "velocity": 40,
                "duration": 0.1295455,
                "tempo": 120.0
            },
            {
                "start_time": 48.7363636,
                "end_time": 48.8727273,
                "pitch": 69,
                "velocity": 40,
                "duration": 0.1363636,
                "tempo": 120.0
            },
            {
                "start_time": 48.8909091,
                "end_time": 49.0295455,
                "pitch": 66,
                "velocity": 40,
                "duration": 0.1386364,
                "tempo": 120.0
            },
            {
                "start_time": 49.0454545,
                "end_time": 49.1795455,
                "pitch": 71,
                "velocity": 40,
                "duration": 0.1340909,
                "tempo": 120.0
            },
            {
                "start_time": 49.1954545,
                "end_time": 49.3295455,
                "pitch": 62,
                "velocity": 40,
                "duration": 0.1340909,
                "tempo": 120.0
            },
            {
                "start_time": 49.3454545,
                "end_time": 49.4795455,
                "pitch": 57,
                "velocity": 40,
                "duration": 0.1340909,
                "tempo": 120.0
            },
            {
                "start_time": 49.4977273,
                "end_time": 49.6318182,
                "pitch": 67,
                "velocity": 40,
                "duration": 0.1340909,
                "tempo": 120.0
            },
            {
                "start_time": 49.6477273,
                "end_time": 49.7818182,
                "pitch": 71,
                "velocity": 40,
                "duration": 0.1340909,
                "tempo": 120.0
            },
            {
                "start_time": 49.7977273,
                "end_time": 49.9318182,
                "pitch": 66,
                "velocity": 40,
                "duration": 0.1340909,
                "tempo": 120.0
            },
            {
                "start_time": 49.9477273,
                "end_time": 50.0818182,
                "pitch": 62,
                "velocity": 40,
                "duration": 0.1340909,
                "tempo": 120.0
            },
            {
                "start_time": 50.0977273,
                "end_time": 50.2318182,
                "pitch": 71,
                "velocity": 40,
                "duration": 0.1340909,
                "tempo": 120.0
            },
            {
                "start_time": 50.25,
                "end_time": 50.3818182,
                "pitch": 67,
                "velocity": 40,
                "duration": 0.1318182,
                "tempo": 120.0
            },
            {
                "start_time": 50.4,
                "end_time": 50.5318182,
                "pitch": 66,
                "velocity": 40,
                "duration": 0.1318182,
                "tempo": 120.0
            },
            {
                "start_time": 50.55,
                "end_time": 50.6772727,
                "pitch": 57,
                "velocity": 40,
                "duration": 0.1272727,
                "tempo": 120.0
            },
            {
                "start_time": 50.6954545,
                "end_time": 50.825,
                "pitch": 69,
                "velocity": 40,
                "duration": 0.1295455,
                "tempo": 120.0
            },
            {
                "start_time": 50.8409091,
                "end_time": 50.975,
                "pitch": 61,
                "velocity": 40,
                "duration": 0.1340909,
                "tempo": 120.0
            },
            {
                "start_time": 50.9909091,
                "end_time": 51.125,
                "pitch": 68,
                "velocity": 40,
                "duration": 0.1340909,
                "tempo": 120.0
            },
            {
                "start_time": 51.1409091,
                "end_time": 51.2795455,
                "pitch": 61,
                "velocity": 40,
                "duration": 0.1386364,
                "tempo": 120.0
            },
            {
                "start_time": 51.2977273,
                "end_time": 51.4340909,
                "pitch": 66,
                "velocity": 40,
                "duration": 0.1363636,
                "tempo": 120.0
            },
            {
                "start_time": 51.4522727,
                "end_time": 51.5818182,
                "pitch": 71,
                "velocity": 40,
                "duration": 0.1295455,
                "tempo": 120.0
            },
            {
                "start_time": 51.5977273,
                "end_time": 51.7272727,
                "pitch": 69,
                "velocity": 40,
                "duration": 0.1295455,
                "tempo": 120.0
            },
            {
                "start_time": 51.7431818,
                "end_time": 51.8818182,
                "pitch": 64,
                "velocity": 40,
                "duration": 0.1386364,
                "tempo": 120.0
            },
            {
                "start_time": 51.8977273,
                "end_time": 52.0363636,
                "pitch": 61,
                "velocity": 40,
                "duration": 0.1386364,
                "tempo": 120.0
            },
            {
                "start_time": 52.0545455,
                "end_time": 52.1840909,
                "pitch": 73,
                "velocity": 40,
                "duration": 0.1295455,
                "tempo": 120.0
            },
            {
                "start_time": 52.2,
                "end_time": 52.3295455,
                "pitch": 69,
                "velocity": 40,
                "duration": 0.1295455,
                "tempo": 120.0
            },
            {
                "start_time": 52.3454545,
                "end_time": 52.4795455,
                "pitch": 64,
                "velocity": 40,
                "duration": 0.1340909,
                "tempo": 120.0
            },
            {
                "start_time": 52.4954545,
                "end_time": 52.6295455,
                "pitch": 61,
                "velocity": 40,
                "duration": 0.1340909,
                "tempo": 120.0
            },
            {
                "start_time": 52.6477273,
                "end_time": 52.7795455,
                "pitch": 69,
                "velocity": 40,
                "duration": 0.1318182,
                "tempo": 120.0
            },
            {
                "start_time": 52.7977273,
                "end_time": 52.9295455,
                "pitch": 65,
                "velocity": 40,
                "duration": 0.1318182,
                "tempo": 120.0
            },
            {
                "start_time": 52.9477273,
                "end_time": 53.2295455,
                "pitch": 59,
                "velocity": 40,
                "duration": 0.2818182,
                "tempo": 120.0
            },
            {
                "start_time": 53.2477273,
                "end_time": 53.3840909,
                "pitch": 71,
                "velocity": 40,
                "duration": 0.1363636,
                "tempo": 120.0
            },
            {
                "start_time": 53.4022727,
                "end_time": 53.6863636,
                "pitch": 59,
                "velocity": 40,
                "duration": 0.2840909,
                "tempo": 120.0
            },
            {
                "start_time": 53.7022727,
                "end_time": 53.8318182,
                "pitch": 69,
                "velocity": 40,
                "duration": 0.1295455,
                "tempo": 120.0
            },
            {
                "start_time": 53.8477273,
                "end_time": 54.1409091,
                "pitch": 59,
                "velocity": 40,
                "duration": 0.2931818,
                "tempo": 120.0
            },
            {
                "start_time": 54.1590909,
                "end_time": 54.2886364,
                "pitch": 67,
                "velocity": 40,
                "duration": 0.1295455,
                "tempo": 120.0
            },
            {
                "start_time": 54.3045455,
                "end_time": 54.5840909,
                "pitch": 59,
                "velocity": 40,
                "duration": 0.2795455,
                "tempo": 120.0
            },
            {
                "start_time": 54.6,
                "end_time": 54.7340909,
                "pitch": 66,
                "velocity": 40,
                "duration": 0.1340909,
                "tempo": 120.0
            },
            {
                "start_time": 54.75,
                "end_time": 54.8840909,
                "pitch": 59,
                "velocity": 40,
                "duration": 0.1340909,
                "tempo": 120.0
            },
            {
                "start_time": 54.9,
                "end_time": 55.0340909,
                "pitch": 61,
                "velocity": 40,
                "duration": 0.1340909,
                "tempo": 120.0
            },
            {
                "start_time": 55.0522727,
                "end_time": 55.1840909,
                "pitch": 62,
                "velocity": 40,
                "duration": 0.1318182,
                "tempo": 120.0
            },
            {
                "start_time": 55.2022727,
                "end_time": 55.3340909,
                "pitch": 64,
                "velocity": 40,
                "duration": 0.1318182,
                "tempo": 120.0
            },
            {
                "start_time": 55.3522727,
                "end_time": 55.6454545,
                "pitch": 59,
                "velocity": 40,
                "duration": 0.2931818,
                "tempo": 120.0
            },
            {
                "start_time": 55.6613636,
                "end_time": 55.7909091,
                "pitch": 73,
                "velocity": 40,
                "duration": 0.1295455,
                "tempo": 120.0
            },
            {
                "start_time": 55.8068182,
                "end_time": 56.0863636,
                "pitch": 59,
                "velocity": 40,
                "duration": 0.2795455,
                "tempo": 120.0
            },
            {
                "start_time": 56.1022727,
                "end_time": 56.2363636,
                "pitch": 71,
                "velocity": 40,
                "duration": 0.1340909,
                "tempo": 120.0
            },
            {
                "start_time": 56.2522727,
                "end_time": 56.5386364,
                "pitch": 59,
                "velocity": 40,
                "duration": 0.2863636,
                "tempo": 120.0
            },
            {
                "start_time": 56.5545455,
                "end_time": 56.6886364,
                "pitch": 69,
                "velocity": 40,
                "duration": 0.1340909,
                "tempo": 120.0
            },
            {
                "start_time": 56.7045455,
                "end_time": 56.9886364,
                "pitch": 59,
                "velocity": 40,
                "duration": 0.2840909,
                "tempo": 120.0
            },
            {
                "start_time": 57.0045455,
                "end_time": 57.1386364,
                "pitch": 67,
                "velocity": 40,
                "duration": 0.1340909,
                "tempo": 120.0
            },
            {
                "start_time": 57.1568182,
                "end_time": 57.2886364,
                "pitch": 62,
                "velocity": 40,
                "duration": 0.1318182,
                "tempo": 120.0
            },
            {
                "start_time": 57.3068182,
                "end_time": 57.5886364,
                "pitch": 64,
                "velocity": 40,
                "duration": 0.2818182,
                "tempo": 120.0
            },
            {
                "start_time": 57.6068182,
                "end_time": 57.7431818,
                "pitch": 69,
                "velocity": 40,
                "duration": 0.1363636,
                "tempo": 120.0
            }
        ],
        "Vibraphone": [
            {
                "start_time": 0.1568182,
                "end_time": 0.4840909,
                "pitch": 68,
                "velocity": 40,
                "duration": 0.3272727,
                "tempo": 120.0
            },
            {
                "start_time": 1.6545455,
                "end_time": 2.0863636,
                "pitch": 71,
                "velocity": 40,
                "duration": 0.4318182,
                "tempo": 120.0
            },
            {
                "start_time": 2.1022727,
                "end_time": 2.3863636,
                "pitch": 73,
                "velocity": 40,
                "duration": 0.2840909,
                "tempo": 120.0
            },
            {
                "start_time": 2.4045455,
                "end_time": 2.5863636,
                "pitch": 71,
                "velocity": 40,
                "duration": 0.1818182,
                "tempo": 120.0
            },
            {
                "start_time": 3.3159091,
                "end_time": 3.9,
                "pitch": 68,
                "velocity": 40,
                "duration": 0.5840909,
                "tempo": 120.0
            },
            {
                "start_time": 3.9181818,
                "end_time": 4.5022727,
                "pitch": 66,
                "velocity": 40,
                "duration": 0.5840909,
                "tempo": 120.0
            },
            {
                "start_time": 4.5181818,
                "end_time": 4.7931818,
                "pitch": 68,
                "velocity": 40,
                "duration": 0.275,
                "tempo": 120.0
            },
            {
                "start_time": 4.8090909,
                "end_time": 6.3045455,
                "pitch": 68,
                "velocity": 40,
                "duration": 1.4954545,
                "tempo": 120.0
            },
            {
                "start_time": 6.3227273,
                "end_time": 6.8977273,
                "pitch": 71,
                "velocity": 40,
                "duration": 0.575,
                "tempo": 120.0
            },
            {
                "start_time": 6.9136364,
                "end_time": 7.1977273,
                "pitch": 73,
                "velocity": 40,
                "duration": 0.2840909,
                "tempo": 120.0
            },
            {
                "start_time": 7.2159091,
                "end_time": 8.1090909,
                "pitch": 71,
                "velocity": 40,
                "duration": 0.8931818,
                "tempo": 120.0
            },
            {
                "start_time": 8.125,
                "end_time": 8.7090909,
                "pitch": 68,
                "velocity": 40,
                "duration": 0.5840909,
                "tempo": 120.0
            },
            {
                "start_time": 8.7272727,
                "end_time": 9.3113636,
                "pitch": 66,
                "velocity": 40,
                "duration": 0.5840909,
                "tempo": 120.0
            },
            {
                "start_time": 9.3272727,
                "end_time": 9.6045455,
                "pitch": 68,
                "velocity": 40,
                "duration": 0.2772727,
                "tempo": 120.0
            },
            {
                "start_time": 9.6204545,
                "end_time": 9.8022727,
                "pitch": 68,
                "velocity": 40,
                "duration": 0.1818182,
                "tempo": 120.0
            },
            {
                "start_time": 11.1340909,
                "end_time": 11.5613636,
                "pitch": 73,
                "velocity": 40,
                "duration": 0.4272727,
                "tempo": 120.0
            },
            {
                "start_time": 11.5795455,
                "end_time": 12.0090909,
                "pitch": 71,
                "velocity": 40,
                "duration": 0.4295455,
                "tempo": 120.0
            },
            {
                "start_time": 12.025,
                "end_time": 12.8181818,
                "pitch": 68,
                "velocity": 40,
                "duration": 0.7931818,
                "tempo": 120.0
            },
            {
                "start_time": 13.5409091,
                "end_time": 13.9659091,
                "pitch": 64,
                "velocity": 40,
                "duration": 0.425,
                "tempo": 120.0
            },
            {
                "start_time": 13.9840909,
                "end_time": 14.5681818,
                "pitch": 66,
                "velocity": 40,
                "duration": 0.5840909,
                "tempo": 120.0
            },
            {
                "start_time": 14.5840909,
                "end_time": 15.3772727,
                "pitch": 68,
                "velocity": 40,
                "duration": 0.7931818,
                "tempo": 120.0
            },
            {
                "start_time": 16.0886364,
                "end_time": 16.5227273,
                "pitch": 73,
                "velocity": 40,
                "duration": 0.4340909,
                "tempo": 120.0
            },
            {
                "start_time": 16.5386364,
                "end_time": 16.8227273,
                "pitch": 71,
                "velocity": 40,
                "duration": 0.2840909,
                "tempo": 120.0
            },
            {
                "start_time": 16.8409091,
                "end_time": 19.3840909,
                "pitch": 68,
                "velocity": 40,
                "duration": 2.5431818,
                "tempo": 120.0
            },
            {
                "start_time": 19.4,
                "end_time": 19.7340909,
                "pitch": 68,
                "velocity": 40,
                "duration": 0.3340909,
                "tempo": 120.0
            },
            {
                "start_time": 20.9113636,
                "end_time": 21.3409091,
                "pitch": 71,
                "velocity": 40,
                "duration": 0.4295455,
                "tempo": 120.0
            },
            {
                "start_time": 21.3590909,
                "end_time": 21.6431818,
                "pitch": 73,
                "velocity": 40,
                "duration": 0.2840909,
                "tempo": 120.0
            },
            {
                "start_time": 21.6590909,
                "end_time": 21.8454545,
                "pitch": 71,
                "velocity": 40,
                "duration": 0.1863636,
                "tempo": 120.0
            },
            {
                "start_time": 22.5727273,
                "end_time": 23.1568182,
                "pitch": 68,
                "velocity": 40,
                "duration": 0.5840909,
                "tempo": 120.0
            },
            {
                "start_time": 23.1727273,
                "end_time": 23.7477273,
                "pitch": 66,
                "velocity": 40,
                "duration": 0.575,
                "tempo": 120.0
            },
            {
                "start_time": 23.7659091,
                "end_time": 24.05,
                "pitch": 68,
                "velocity": 40,
                "duration": 0.2840909,
                "tempo": 120.0
            },
            {
                "start_time": 24.0659091,
                "end_time": 25.5568182,
                "pitch": 68,
                "velocity": 40,
                "duration": 1.4909091,
                "tempo": 120.0
            },
            {
                "start_time": 25.5727273,
                "end_time": 26.1590909,
                "pitch": 71,
                "velocity": 40,
                "duration": 0.5863636,
                "tempo": 120.0
            },
            {
                "start_time": 26.175,
                "end_time": 26.4613636,
                "pitch": 73,
                "velocity": 40,
                "duration": 0.2863636,
                "tempo": 120.0
            },
            {
                "start_time": 26.4772727,
                "end_time": 27.3727273,
                "pitch": 71,
                "velocity": 40,
                "duration": 0.8954545,
                "tempo": 120.0
            },
            {
                "start_time": 27.3886364,
                "end_time": 27.9659091,
                "pitch": 68,
                "velocity": 40,
                "duration": 0.5772727,
                "tempo": 120.0
            },
            {
                "start_time": 27.9818182,
                "end_time": 28.5659091,
                "pitch": 66,
                "velocity": 40,
                "duration": 0.5840909,
                "tempo": 120.0
            },
            {
                "start_time": 28.5840909,
                "end_time": 28.8681818,
                "pitch": 68,
                "velocity": 40,
                "duration": 0.2840909,
                "tempo": 120.0
            },
            {
                "start_time": 28.8840909,
                "end_time": 29.0704545,
                "pitch": 68,
                "velocity": 40,
                "duration": 0.1863636,
                "tempo": 120.0
            },
            {
                "start_time": 30.4,
                "end_time": 30.8295455,
                "pitch": 73,
                "velocity": 40,
                "duration": 0.4295455,
                "tempo": 120.0
            },
            {
                "start_time": 30.8454545,
                "end_time": 31.2772727,
                "pitch": 71,
                "velocity": 40,
                "duration": 0.4318182,
                "tempo": 120.0
            },
            {
                "start_time": 31.2931818,
                "end_time": 32.0863636,
                "pitch": 68,
                "velocity": 40,
                "duration": 0.7931818,
                "tempo": 120.0
            },
            {
                "start_time": 32.8068182,
                "end_time": 33.2318182,
                "pitch": 64,
                "velocity": 40,
                "duration": 0.425,
                "tempo": 120.0
            },
            {
                "start_time": 33.25,
                "end_time": 33.8340909,
                "pitch": 66,
                "velocity": 40,
                "duration": 0.5840909,
                "tempo": 120.0
            },
            {
                "start_time": 33.85,
                "end_time": 34.6431818,
                "pitch": 68,
                "velocity": 40,
                "duration": 0.7931818,
                "tempo": 120.0
            },
            {
                "start_time": 35.3590909,
                "end_time": 35.7863636,
                "pitch": 73,
                "velocity": 40,
                "duration": 0.4272727,
                "tempo": 120.0
            },
            {
                "start_time": 35.8045455,
                "end_time": 36.0886364,
                "pitch": 71,
                "velocity": 40,
                "duration": 0.2840909,
                "tempo": 120.0
            },
            {
                "start_time": 36.1045455,
                "end_time": 38.4931818,
                "pitch": 68,
                "velocity": 40,
                "duration": 2.3886364,
                "tempo": 120.0
            }
        ]
    }
}