{
    "mood": "happy",
    "instruments": {
        "Acoustic Grand Piano": [
            {
                "start_time": 0.1318182,
                "end_time": 0.2090909,
                "pitch": 67,
                "velocity": 32,
                "duration": 0.0772727,
                "tempo": 120.0
            },
            {
                "start_time": 0.2409091,
                "end_time": 0.3340909,
                "pitch": 65,
                "velocity": 32,
                "duration": 0.0931818,
                "tempo": 120.0
            },
            {
                "start_time": 0.3659091,
                "end_time": 0.4590909,
                "pitch": 70,
                "velocity": 32,
                "duration": 0.0931818,
                "tempo": 120.0
            },
            {
                "start_time": 0.4886364,
                "end_time": 0.5818182,
                "pitch": 75,
                "velocity": 32,
                "duration": 0.0931818,
                "tempo": 120.0
            },
            {
                "start_time": 0.6136364,
                "end_time": 0.7068182,
                "pitch": 80,
                "velocity": 32,
                "duration": 0.0931818,
                "tempo": 120.0
            },
            {
                "start_time": 0.7386364,
                "end_time": 0.8318182,
                "pitch": 72,
                "velocity": 32,
                "duration": 0.0931818,
                "tempo": 120.0
            },
            {
                "start_time": 0.8636364,
                "end_time": 2.1545455,
                "pitch": 79,
                "velocity": 32,
                "duration": 1.2909091,
                "tempo": 120.0
            }
        ],
        "Electric Guitar (clean)": [
            {
                "start_time": 0.0181818,
                "end_time": 0.0636364,
                "pitch": 31,
                "velocity": 51,
                "duration": 0.0454545,
                "tempo": 120.0
            },
            {
                "start_time": 0.0863636,
                "end_time": 0.1545455,
                "pitch": 38,
                "velocity": 51,
                "duration": 0.0681818,
                "tempo": 120.0
            },
            {
                "start_time": 0.1795455,
                "end_time": 0.2727273,
                "pitch": 35,
                "velocity": 51,
                "duration": 0.0931818,
                "tempo": 120.0
            },
            {
                "start_time": 0.3022727,
                "end_time": 0.3954545,
                "pitch": 38,
                "velocity": 51,
                "duration": 0.0931818,
                "tempo": 120.0
            },
            {
                "start_time": 0.4272727,
                "end_time": 0.5204545,
                "pitch": 39,
                "velocity": 51,
                "duration": 0.0931818,
                "tempo": 120.0
            },
            {
                "start_time": 0.5522727,
                "end_time": 0.6454545,
                "pitch": 31,
                "velocity": 51,
                "duration": 0.0931818,
                "tempo": 120.0
            },
            {
                "start_time": 0.6772727,
                "end_time": 1.8068182,
                "pitch": 36,
                "velocity": 51,
                "duration": 1.1295455,
                "tempo": 120.0
            }
        ],
        "Vibraphone": [
            {
                "start_time": 0.0409091,
                "end_time": 0.1090909,
                "pitch": 80,
                "velocity": 32,
                "duration": 0.0681818,
                "tempo": 120.0
            },
            {
                "start_time": 0.1318182,
                "end_time": 0.2090909,
                "pitch": 80,
                "velocity": 32,
                "duration": 0.0772727,
                "tempo": 120.0
            },
            {
                "start_time": 0.2409091,
                "end_time": 0.3340909,
                "pitch": 79,
                "velocity": 32,
                "duration": 0.0931818,
                "tempo": 120.0
            },
            {
                "start_time": 0.3659091,
                "end_time": 0.4590909,
                "pitch": 80,
                "velocity": 32,
                "duration": 0.0931818,
                "tempo": 120.0
            },
            {
                "start_time": 0.4886364,
                "end_time": 0.5818182,
                "pitch": 80,
                "velocity": 32,
                "duration": 0.0931818,
                "tempo": 120.0
            },
            {
                "start_time": 0.6136364,
                "end_time": 0.7068182,
                "pitch": 79,
                "velocity": 32,
                "duration": 0.0931818,
                "tempo": 120.0
            },
            {
                "start_time": 0.7386364,
                "end_time": 2.0113636,
                "pitch": 72,
                "velocity": 32,
                "duration": 1.2727273,
                "tempo": 120.0
            }
        ]
    }
}