{
    "mood": "happy",
    "instruments": {
        "Clarinet": [
            {
                "start_time": 0.0,
                "end_time": 0.1840909,
                "pitch": 75,
                "velocity": 64,
                "duration": 0.1840909,
                "tempo": 120.0
            },
            {
                "start_time": 0.4022727,
                "end_time": 0.6477273,
                "pitch": 78,
                "velocity": 64,
                "duration": 0.2454545,
                "tempo": 120.0
            },
            {
                "start_time": 0.6636364,
                "end_time": 1.0431818,
                "pitch": 82,
                "velocity": 64,
                "duration": 0.3795455,
                "tempo": 120.0
            },
            {
                "start_time": 1.0613636,
                "end_time": 1.1772727,
                "pitch": 82,
                "velocity": 64,
                "duration": 0.1159091,
                "tempo": 120.0
            },
            {
                "start_time": 1.1931818,
                "end_time": 1.5772727,
                "pitch": 80,
                "velocity": 64,
                "duration": 0.3840909,
                "tempo": 120.0
            },
            {
                "start_time": 1.5931818,
                "end_time": 1.7795455,
                "pitch": 75,
                "velocity": 64,
                "duration": 0.1863636,
                "tempo": 120.0
            },
            {
                "start_time": 1.9954545,
                "end_time": 2.2454545,
                "pitch": 78,
                "velocity": 64,
                "duration": 0.25,
                "tempo": 120.0
            },
            {
                "start_time": 2.2636364,
                "end_time": 2.6454545,
                "pitch": 82,
                "velocity": 64,
                "duration": 0.3818182,
                "tempo": 120.0
            },
            {
                "start_time": 2.6636364,
                "end_time": 2.7795455,
                "pitch": 82,
                "velocity": 64,
                "duration": 0.1159091,
                "tempo": 120.0
            },
            {
                "start_time": 2.7954545,
                "end_time": 3.1795455,
                "pitch": 80,
                "velocity": 64,
                "duration": 0.3840909,
                "tempo": 120.0
            },
            {
                "start_time": 3.1954545,
                "end_time": 3.3818182,
                "pitch": 75,
                "velocity": 64,
                "duration": 0.1863636,
                "tempo": 120.0
            },
            {
                "start_time": 3.6,
                "end_time": 3.85,
                "pitch": 78,
                "velocity": 64,
                "duration": 0.25,
                "tempo": 120.0
            },
            {
                "start_time": 3.8659091,
                "end_time": 4.25,
                "pitch": 82,
                "velocity": 64,
                "duration": 0.3840909,
                "tempo": 120.0
            },
            {
                "start_time": 4.2659091,
                "end_time": 4.3818182,
                "pitch": 82,
                "velocity": 64,
                "duration": 0.1159091,
                "tempo": 120.0
            },
            {
                "start_time": 4.4,
                "end_time": 4.7840909,
                "pitch": 80,
                "velocity": 64,
                "duration": 0.3840909,
                "tempo": 120.0
            },
            {
                "start_time": 4.8022727,
                "end_time": 5.1863636,
                "pitch": 78,
                "velocity": 64,
                "duration": 0.3840909,
                "tempo": 120.0
            },
            {
                "start_time": 5.5931818,
                "end_time": 6.3886364,
                "pitch": 66,
                "velocity": 64,
                "duration": 0.7954545,
                "tempo": 120.0
            },
            {
                "start_time": 6.4045455,
                "end_time": 6.6568182,
                "pitch": 71,
                "velocity": 64,
                "duration": 0.2522727,
                "tempo": 120.0
            },
            {
                "start_time": 6.6727273,
                "end_time": 6.7909091,
                "pitch": 66,
                "velocity": 64,
                "duration": 0.1181818,
                "tempo": 120.0
            },
            {
                "start_time": 6.8068182,
                "end_time": 7.0568182,
                "pitch": 68,
                "velocity": 64,
                "duration": 0.25,
                "tempo": 120.0
            },
            {
                "start_time": 7.075,
                "end_time": 7.1909091,
                "pitch": 63,
                "velocity": 64,
                "duration": 0.1159091,
                "tempo": 120.0
            },
            {
                "start_time": 7.2068182,
                "end_time": 7.4590909,
                "pitch": 66,
                "velocity": 64,
                "duration": 0.2522727,
                "tempo": 120.0
            },
            {
                "start_time": 7.4772727,
                "end_time": 7.5931818,
                "pitch": 59,
                "velocity": 64,
                "duration": 0.1159091,
                "tempo": 120.0
            },
            {
                "start_time": 7.6113636,
                "end_time": 7.8613636,
                "pitch": 63,
                "velocity": 64,
                "duration": 0.25,
                "tempo": 120.0
            },
            {
                "start_time": 7.8772727,
                "end_time": 7.9931818,
                "pitch": 54,
                "velocity": 64,
                "duration": 0.1159091,
                "tempo": 120.0
            },
            {
                "start_time": 8.0113636,
                "end_time": 8.1954545,
                "pitch": 56,
                "velocity": 64,
                "duration": 0.1840909,
                "tempo": 120.0
            },
            {
                "start_time": 8.4136364,
                "end_time": 8.6659091,
                "pitch": 59,
                "velocity": 64,
                "duration": 0.2522727,
                "tempo": 120.0
            },
            {
                "start_time": 8.6818182,
                "end_time": 8.8,
                "pitch": 63,
                "velocity": 64,
                "duration": 0.1181818,
                "tempo": 120.0
            },
            {
                "start_time": 9.0840909,
                "end_time": 9.2022727,
                "pitch": 66,
                "velocity": 64,
                "duration": 0.1181818,
                "tempo": 120.0
            },
            {
                "start_time": 9.2181818,
                "end_time": 9.4681818,
                "pitch": 68,
                "velocity": 64,
                "duration": 0.25,
                "tempo": 120.0
            },
            {
                "start_time": 9.4840909,
                "end_time": 9.6022727,
                "pitch": 71,
                "velocity": 64,
                "duration": 0.1181818,
                "tempo": 120.0
            },
            {
                "start_time": 9.6181818,
                "end_time": 11.0113636,
                "pitch": 67,
                "velocity": 64,
                "duration": 1.3931818,
                "tempo": 120.0
            },
            {
                "start_time": 11.0272727,
                "end_time": 11.1113636,
                "pitch": 69,
                "velocity": 64,
                "duration": 0.0840909,
                "tempo": 120.0
            },
            {
                "start_time": 11.1295455,
                "end_time": 11.2113636,
                "pitch": 67,
                "velocity": 64,
                "duration": 0.0818182,
                "tempo": 120.0
            },
            {
                "start_time": 11.2295455,
                "end_time": 12.0159091,
                "pitch": 66,
                "velocity": 64,
                "duration": 0.7863636,
                "tempo": 120.0
            },
            {
                "start_time": 12.0318182,
                "end_time": 12.8204545,
                "pitch": 65,
                "velocity": 64,
                "duration": 0.7886364,
                "tempo": 120.0
            },
            {
                "start_time": 12.8363636,
                "end_time": 13.0886364,
                "pitch": 64,
                "velocity": 64,
                "duration": 0.2522727,
                "tempo": 120.0
            },
            {
                "start_time": 13.1068182,
                "end_time": 13.2227273,
                "pitch": 68,
                "velocity": 64,
                "duration": 0.1159091,
                "tempo": 120.0
            },
            {
                "start_time": 13.2409091,
                "end_time": 13.4909091,
                "pitch": 75,
                "velocity": 64,
                "duration": 0.25,
                "tempo": 120.0
            },
            {
                "start_time": 13.5068182,
                "end_time": 13.6227273,
                "pitch": 63,
                "velocity": 64,
                "duration": 0.1159091,
                "tempo": 120.0
            },
            {
                "start_time": 13.6409091,
                "end_time": 13.8909091,
                "pitch": 66,
                "velocity": 64,
                "duration": 0.25,
                "tempo": 120.0
            },
            {
                "start_time": 13.9090909,
                "end_time": 14.025,
                "pitch": 73,
                "velocity": 64,
                "duration": 0.1159091,
                "tempo": 120.0
            },
            {
                "start_time": 14.0431818,
                "end_time": 14.2954545,
                "pitch": 61,
                "velocity": 64,
                "duration": 0.2522727,
                "tempo": 120.0
            },
            {
                "start_time": 14.3113636,
                "end_time": 14.4295455,
                "pitch": 64,
                "velocity": 64,
                "duration": 0.1181818,
                "tempo": 120.0
            },
            {
                "start_time": 14.4454545,
                "end_time": 14.6977273,
                "pitch": 71,
                "velocity": 64,
                "duration": 0.2522727,
                "tempo": 120.0
            },
            {
                "start_time": 14.7136364,
                "end_time": 15.2340909,
                "pitch": 74,
                "velocity": 64,
                "duration": 0.5204545,
                "tempo": 120.0
            },
            {
                "start_time": 15.25,
                "end_time": 15.6340909,
                "pitch": 67,
                "velocity": 64,
                "duration": 0.3840909,
                "tempo": 120.0
            },
            {
                "start_time": 15.65,
                "end_time": 16.0363636,
                "pitch": 66,
                "velocity": 64,
                "duration": 0.3863636,
                "tempo": 120.0
            },
            {
                "start_time": 16.0522727,
                "end_time": 16.4386364,
                "pitch": 71,
                "velocity": 64,
                "duration": 0.3863636,
                "tempo": 120.0
            },
            {
                "start_time": 16.6568182,
                "end_time": 17.0409091,
                "pitch": 59,
                "velocity": 64,
                "duration": 0.3840909,
                "tempo": 120.0
            },
            {
                "start_time": 17.2590909,
                "end_time": 19.2477273,
                "pitch": 83,
                "velocity": 64,
                "duration": 1.9886364,
                "tempo": 120.0
            }
        ],
        "Electric Guitar (clean)": [
            {
                "start_time": 0.0,
                "end_time": 0.1840909,
                "pitch": 47,
                "velocity": 51,
                "duration": 0.1840909,
                "tempo": 120.0
            },
            {
                "start_time": 0.4022727,
                "end_time": 0.6477273,
                "pitch": 51,
                "velocity": 51,
                "duration": 0.2454545,
                "tempo": 120.0
            },
            {
                "start_time": 0.6636364,
                "end_time": 1.0431818,
                "pitch": 42,
                "velocity": 51,
                "duration": 0.3795455,
                "tempo": 120.0
            },
            {
                "start_time": 1.0613636,
                "end_time": 1.1772727,
                "pitch": 42,
                "velocity": 51,
                "duration": 0.1159091,
                "tempo": 120.0
            },
            {
                "start_time": 1.1931818,
                "end_time": 1.5772727,
                "pitch": 44,
                "velocity": 51,
                "duration": 0.3840909,
                "tempo": 120.0
            },
            {
                "start_time": 1.5931818,
                "end_time": 1.7795455,
                "pitch": 47,
                "velocity": 51,
                "duration": 0.1863636,
                "tempo": 120.0
            },
            {
                "start_time": 1.9954545,
                "end_time": 2.2454545,
                "pitch": 51,
                "velocity": 51,
                "duration": 0.25,
                "tempo": 120.0
            },
            {
                "start_time": 2.2636364,
                "end_time": 2.6454545,
                "pitch": 42,
                "velocity": 51,
                "duration": 0.3818182,
                "tempo": 120.0
            },
            {
                "start_time": 2.6636364,
                "end_time": 2.7795455,
                "pitch": 42,
                "velocity": 51,
                "duration": 0.1159091,
                "tempo": 120.0
            },
            {
                "start_time": 2.7954545,
                "end_time": 3.1795455,
                "pitch": 44,
                "velocity": 51,
                "duration": 0.3840909,
                "tempo": 120.0
            },
            {
                "start_time": 3.1954545,
                "end_time": 3.3818182,
                "pitch": 47,
                "velocity": 51,
                "duration": 0.1863636,
                "tempo": 120.0
            },
            {
                "start_time": 3.6,
                "end_time": 3.85,
                "pitch": 51,
                "velocity": 51,
                "duration": 0.25,
                "tempo": 120.0
            },
            {
                "start_time": 3.8659091,
                "end_time": 4.25,
                "pitch": 42,
                "velocity": 51,
                "duration": 0.3840909,
                "tempo": 120.0
            },
            {
                "start_time": 4.2659091,
                "end_time": 4.3818182,
                "pitch": 42,
                "velocity": 51,
                "duration": 0.1159091,
                "tempo": 120.0
            },
            {
                "start_time": 4.4,
                "end_time": 4.7840909,
                "pitch": 44,
                "velocity": 51,
                "duration": 0.3840909,
                "tempo": 120.0
            },
            {
                "start_time": 4.8022727,
                "end_time": 5.1863636,
                "pitch": 47,
                "velocity": 51,
                "duration": 0.3840909,
                "tempo": 120.0
            },
            {
                "start_time": 5.5931818,
                "end_time": 6.3886364,
                "pitch": 50,
                "velocity": 51,
                "duration": 0.7954545,
                "tempo": 120.0
            },
            {
                "start_time": 6.4045455,
                "end_time": 6.5886364,
                "pitch": 47,
                "velocity": 51,
                "duration": 0.1840909,
                "tempo": 120.0
            },
            {
                "start_time": 6.8068182,
                "end_time": 7.0568182,
                "pitch": 51,
                "velocity": 51,
                "duration": 0.25,
                "tempo": 120.0
            },
            {
                "start_time": 7.075,
                "end_time": 7.4590909,
                "pitch": 42,
                "velocity": 51,
                "duration": 0.3840909,
                "tempo": 120.0
            },
            {
                "start_time": 7.4772727,
                "end_time": 7.5931818,
                "pitch": 42,
                "velocity": 51,
                "duration": 0.1159091,
                "tempo": 120.0
            },
            {
                "start_time": 7.6113636,
                "end_time": 7.9931818,
                "pitch": 44,
                "velocity": 51,
                "duration": 0.3818182,
                "tempo": 120.0
            },
            {
                "start_time": 8.0113636,
                "end_time": 8.1954545,
                "pitch": 47,
                "velocity": 51,
                "duration": 0.1840909,
                "tempo": 120.0
            },
            {
                "start_time": 8.4136364,
                "end_time": 8.6659091,
                "pitch": 51,
                "velocity": 51,
                "duration": 0.2522727,
                "tempo": 120.0
            },
            {
                "start_time": 8.6818182,
                "end_time": 9.0681818,
                "pitch": 42,
                "velocity": 51,
                "duration": 0.3863636,
                "tempo": 120.0
            },
            {
                "start_time": 9.0840909,
                "end_time": 9.2022727,
                "pitch": 42,
                "velocity": 51,
                "duration": 0.1181818,
                "tempo": 120.0
            },
            {
                "start_time": 9.2181818,
                "end_time": 9.6022727,
                "pitch": 44,
                "velocity": 51,
                "duration": 0.3840909,
                "tempo": 120.0
            },
            {
                "start_time": 9.6181818,
                "end_time": 9.8022727,
                "pitch": 43,
                "velocity": 51,
                "duration": 0.1840909,
                "tempo": 120.0
            },
            {
                "start_time": 10.0204545,
                "end_time": 10.2727273,
                "pitch": 50,
                "velocity": 51,
                "duration": 0.2522727,
                "tempo": 120.0
            },
            {
                "start_time": 10.2886364,
                "end_time": 10.675,
                "pitch": 47,
                "velocity": 51,
                "duration": 0.3863636,
                "tempo": 120.0
            },
            {
                "start_time": 10.6931818,
                "end_time": 10.8090909,
                "pitch": 50,
                "velocity": 51,
                "duration": 0.1159091,
                "tempo": 120.0
            },
            {
                "start_time": 10.8272727,
                "end_time": 11.0772727,
                "pitch": 47,
                "velocity": 51,
                "duration": 0.25,
                "tempo": 120.0
            },
            {
                "start_time": 11.0954545,
                "end_time": 11.2113636,
                "pitch": 43,
                "velocity": 51,
                "duration": 0.1159091,
                "tempo": 120.0
            },
            {
                "start_time": 11.2295455,
                "end_time": 11.4795455,
                "pitch": 42,
                "velocity": 51,
                "duration": 0.25,
                "tempo": 120.0
            },
            {
                "start_time": 11.4954545,
                "end_time": 11.6136364,
                "pitch": 46,
                "velocity": 51,
                "duration": 0.1181818,
                "tempo": 120.0
            },
            {
                "start_time": 11.6295455,
                "end_time": 11.8818182,
                "pitch": 49,
                "velocity": 51,
                "duration": 0.2522727,
                "tempo": 120.0
            },
            {
                "start_time": 11.8977273,
                "end_time": 12.0159091,
                "pitch": 54,
                "velocity": 51,
                "duration": 0.1181818,
                "tempo": 120.0
            },
            {
                "start_time": 12.3,
                "end_time": 12.4181818,
                "pitch": 54,
                "velocity": 51,
                "duration": 0.1181818,
                "tempo": 120.0
            },
            {
                "start_time": 12.4340909,
                "end_time": 12.6863636,
                "pitch": 49,
                "velocity": 51,
                "duration": 0.2522727,
                "tempo": 120.0
            },
            {
                "start_time": 12.7022727,
                "end_time": 12.8204545,
                "pitch": 46,
                "velocity": 51,
                "duration": 0.1181818,
                "tempo": 120.0
            },
            {
                "start_time": 12.8363636,
                "end_time": 13.0886364,
                "pitch": 40,
                "velocity": 51,
                "duration": 0.2522727,
                "tempo": 120.0
            },
            {
                "start_time": 13.1068182,
                "end_time": 13.2227273,
                "pitch": 51,
                "velocity": 51,
                "duration": 0.1159091,
                "tempo": 120.0
            },
            {
                "start_time": 13.2409091,
                "end_time": 13.4909091,
                "pitch": 52,
                "velocity": 51,
                "duration": 0.25,
                "tempo": 120.0
            },
            {
                "start_time": 13.5068182,
                "end_time": 13.6227273,
                "pitch": 39,
                "velocity": 51,
                "duration": 0.1159091,
                "tempo": 120.0
            },
            {
                "start_time": 13.6409091,
                "end_time": 13.8909091,
                "pitch": 49,
                "velocity": 51,
                "duration": 0.25,
                "tempo": 120.0
            },
            {
                "start_time": 13.9090909,
                "end_time": 14.025,
                "pitch": 51,
                "velocity": 51,
                "duration": 0.1159091,
                "tempo": 120.0
            },
            {
                "start_time": 14.0431818,
                "end_time": 14.2954545,
                "pitch": 37,
                "velocity": 51,
                "duration": 0.2522727,
                "tempo": 120.0
            },
            {
                "start_time": 14.3113636,
                "end_time": 14.4295455,
                "pitch": 47,
                "velocity": 51,
                "duration": 0.1181818,
                "tempo": 120.0
            },
            {
                "start_time": 14.4454545,
                "end_time": 14.8318182,
                "pitch": 49,
                "velocity": 51,
                "duration": 0.3863636,
                "tempo": 120.0
            },
            {
                "start_time": 14.8477273,
                "end_time": 15.2340909,
                "pitch": 42,
                "velocity": 51,
                "duration": 0.3863636,
                "tempo": 120.0
            },
            {
                "start_time": 15.25,
                "end_time": 15.5,
                "pitch": 52,
                "velocity": 51,
                "duration": 0.25,
                "tempo": 120.0
            },
            {
                "start_time": 15.5181818,
                "end_time": 15.6340909,
                "pitch": 49,
                "velocity": 51,
                "duration": 0.1159091,
                "tempo": 120.0
            },
            {
                "start_time": 15.65,
                "end_time": 15.9022727,
                "pitch": 46,
                "velocity": 51,
                "duration": 0.2522727,
                "tempo": 120.0
            },
            {
                "start_time": 15.9181818,
                "end_time": 16.0363636,
                "pitch": 42,
                "velocity": 51,
                "duration": 0.1181818,
                "tempo": 120.0
            },
            {
                "start_time": 16.0522727,
                "end_time": 16.4386364,
                "pitch": 47,
                "velocity": 51,
                "duration": 0.3863636,
                "tempo": 120.0
            },
            {
                "start_time": 16.4568182,
                "end_time": 16.8386364,
                "pitch": 42,
                "velocity": 51,
                "duration": 0.3818182,
                "tempo": 120.0
            },
            {
                "start_time": 16.8568182,
                "end_time": 17.2409091,
                "pitch": 44,
                "velocity": 51,
                "duration": 0.3840909,
                "tempo": 120.0
            },
            {
                "start_time": 17.2590909,
                "end_time": 19.2477273,
                "pitch": 47,
                "velocity": 51,
                "duration": 1.9886364,
                "tempo": 120.0
            }
        ],
        "Oboe": [
            {
                "start_time": 0.0,
                "end_time": 0.1840909,
                "pitch": 66,
                "velocity": 40,
                "duration": 0.1840909,
                "tempo": 120.0
            },
            {
                "start_time": 0.4022727,
                "end_time": 0.6477273,
                "pitch": 71,
                "velocity": 40,
                "duration": 0.2454545,
                "tempo": 120.0
            },
            {
                "start_time": 0.6636364,
                "end_time": 1.0431818,
                "pitch": 63,
                "velocity": 40,
                "duration": 0.3795455,
                "tempo": 120.0
            },
            {
                "start_time": 1.0613636,
                "end_time": 1.1772727,
                "pitch": 63,
                "velocity": 40,
                "duration": 0.1159091,
                "tempo": 120.0
            },
            {
                "start_time": 1.1931818,
                "end_time": 1.5772727,
                "pitch": 64,
                "velocity": 40,
                "duration": 0.3840909,
                "tempo": 120.0
            },
            {
                "start_time": 1.5931818,
                "end_time": 1.7795455,
                "pitch": 66,
                "velocity": 40,
                "duration": 0.1863636,
                "tempo": 120.0
            },
            {
                "start_time": 1.9954545,
                "end_time": 2.2454545,
                "pitch": 71,
                "velocity": 40,
                "duration": 0.25,
                "tempo": 120.0
            },
            {
                "start_time": 2.2636364,
                "end_time": 2.6454545,
                "pitch": 63,
                "velocity": 40,
                "duration": 0.3818182,
                "tempo": 120.0
            },
            {
                "start_time": 2.6636364,
                "end_time": 2.7795455,
                "pitch": 63,
                "velocity": 40,
                "duration": 0.1159091,
                "tempo": 120.0
            },
            {
                "start_time": 2.7954545,
                "end_time": 3.1795455,
                "pitch": 64,
                "velocity": 40,
                "duration": 0.3840909,
                "tempo": 120.0
            },
            {
                "start_time": 3.1954545,
                "end_time": 3.3818182,
                "pitch": 66,
                "velocity": 40,
                "duration": 0.1863636,
                "tempo": 120.0
            },
            {
                "start_time": 3.6,
                "end_time": 3.85,
                "pitch": 71,
                "velocity": 40,
                "duration": 0.25,
                "tempo": 120.0
            },
            {
                "start_time": 3.8659091,
                "end_time": 4.25,
                "pitch": 63,
                "velocity": 40,
                "duration": 0.3840909,
                "tempo": 120.0
            },
            {
                "start_time": 4.2659091,
                "end_time": 4.3818182,
                "pitch": 63,
                "velocity": 40,
                "duration": 0.1159091,
                "tempo": 120.0
            },
            {
                "start_time": 4.4,
                "end_time": 4.7840909,
                "pitch": 64,
                "velocity": 40,
                "duration": 0.3840909,
                "tempo": 120.0
            },
            {
                "start_time": 4.8022727,
                "end_time": 5.1863636,
                "pitch": 63,
                "velocity": 40,
                "duration": 0.3840909,
                "tempo": 120.0
            },
            {
                "start_time": 5.5931818,
                "end_time": 6.3886364,
                "pitch": 58,
                "velocity": 40,
                "duration": 0.7954545,
                "tempo": 120.0
            },
            {
                "start_time": 6.4045455,
                "end_time": 6.6568182,
                "pitch": 75,
                "velocity": 40,
                "duration": 0.2522727,
                "tempo": 120.0
            },
            {
                "start_time": 6.6727273,
                "end_time": 6.7909091,
                "pitch": 70,
                "velocity": 40,
                "duration": 0.1181818,
                "tempo": 120.0
            },
            {
                "start_time": 6.8068182,
                "end_time": 7.0568182,
                "pitch": 71,
                "velocity": 40,
                "duration": 0.25,
                "tempo": 120.0
            },
            {
                "start_time": 7.075,
                "end_time": 7.1909091,
                "pitch": 66,
                "velocity": 40,
                "duration": 0.1159091,
                "tempo": 120.0
            },
            {
                "start_time": 7.2068182,
                "end_time": 7.4590909,
                "pitch": 68,
                "velocity": 40,
                "duration": 0.2522727,
                "tempo": 120.0
            },
            {
                "start_time": 7.4772727,
                "end_time": 7.5931818,
                "pitch": 63,
                "velocity": 40,
                "duration": 0.1159091,
                "tempo": 120.0
            },
            {
                "start_time": 7.6113636,
                "end_time": 7.8613636,
                "pitch": 66,
                "velocity": 40,
                "duration": 0.25,
                "tempo": 120.0
            },
            {
                "start_time": 7.8772727,
                "end_time": 7.9931818,
                "pitch": 59,
                "velocity": 40,
                "duration": 0.1159091,
                "tempo": 120.0
            },
            {
                "start_time": 8.0113636,
                "end_time": 8.1954545,
                "pitch": 63,
                "velocity": 40,
                "duration": 0.1840909,
                "tempo": 120.0
            },
            {
                "start_time": 8.4136364,
                "end_time": 8.6659091,
                "pitch": 66,
                "velocity": 40,
                "duration": 0.2522727,
                "tempo": 120.0
            },
            {
                "start_time": 8.6818182,
                "end_time": 8.8,
                "pitch": 71,
                "velocity": 40,
                "duration": 0.1181818,
                "tempo": 120.0
            },
            {
                "start_time": 9.0840909,
                "end_time": 9.2022727,
                "pitch": 71,
                "velocity": 40,
                "duration": 0.1181818,
                "tempo": 120.0
            },
            {
                "start_time": 9.2181818,
                "end_time": 9.4681818,
                "pitch": 73,
                "velocity": 40,
                "duration": 0.25,
                "tempo": 120.0
            },
            {
                "start_time": 9.4840909,
                "end_time": 9.6022727,
                "pitch": 75,
                "velocity": 40,
                "duration": 0.1181818,
                "tempo": 120.0
            },
            {
                "start_time": 9.6181818,
                "end_time": 10.8090909,
                "pitch": 71,
                "velocity": 40,
                "duration": 1.1909091,
                "tempo": 120.0
            },
            {
                "start_time": 10.8272727,
                "end_time": 10.9113636,
                "pitch": 76,
                "velocity": 40,
                "duration": 0.0840909,
                "tempo": 120.0
            },
            {
                "start_time": 10.9272727,
                "end_time": 11.0113636,
                "pitch": 75,
                "velocity": 40,
                "duration": 0.0840909,
                "tempo": 120.0
            },
            {
                "start_time": 11.0272727,
                "end_time": 11.1113636,
                "pitch": 73,
                "velocity": 40,
                "duration": 0.0840909,
                "tempo": 120.0
            },
            {
                "start_time": 11.1295455,
                "end_time": 11.2113636,
                "pitch": 71,
                "velocity": 40,
                "duration": 0.0818182,
                "tempo": 120.0
            },
            {
                "start_time": 11.2295455,
                "end_time": 12.4181818,
                "pitch": 70,
                "velocity": 40,
                "duration": 1.1886364,
                "tempo": 120.0
            },
            {
                "start_time": 12.4340909,
                "end_time": 12.8204545,
                "pitch": 70,
                "velocity": 40,
                "duration": 0.3863636,
                "tempo": 120.0
            },
            {
                "start_time": 12.8363636,
                "end_time": 13.0886364,
                "pitch": 64,
                "velocity": 40,
                "duration": 0.2522727,
                "tempo": 120.0
            },
            {
                "start_time": 13.1068182,
                "end_time": 13.2227273,
                "pitch": 68,
                "velocity": 40,
                "duration": 0.1159091,
                "tempo": 120.0
            },
            {
                "start_time": 13.2409091,
                "end_time": 13.4909091,
                "pitch": 71,
                "velocity": 40,
                "duration": 0.25,
                "tempo": 120.0
            },
            {
                "start_time": 13.5068182,
                "end_time": 13.6227273,
                "pitch": 63,
                "velocity": 40,
                "duration": 0.1159091,
                "tempo": 120.0
            },
            {
                "start_time": 13.6409091,
                "end_time": 13.8909091,
                "pitch": 66,
                "velocity": 40,
                "duration": 0.25,
                "tempo": 120.0
            },
            {
                "start_time": 13.9090909,
                "end_time": 14.025,
                "pitch": 70,
                "velocity": 40,
                "duration": 0.1159091,
                "tempo": 120.0
            },
            {
                "start_time": 14.0431818,
                "end_time": 14.2954545,
                "pitch": 61,
                "velocity": 40,
                "duration": 0.2522727,
                "tempo": 120.0
            },
            {
                "start_time": 14.3113636,
                "end_time": 14.4295455,
                "pitch": 64,
                "velocity": 40,
                "duration": 0.1181818,
                "tempo": 120.0
            },
            {
                "start_time": 14.4454545,
                "end_time": 14.6977273,
                "pitch": 68,
                "velocity": 40,
                "duration": 0.2522727,
                "tempo": 120.0
            },
            {
                "start_time": 14.7136364,
                "end_time": 15.2340909,
                "pitch": 75,
                "velocity": 40,
                "duration": 0.5204545,
                "tempo": 120.0
            },
            {
                "start_time": 15.25,
                "end_time": 15.6340909,
                "pitch": 64,
                "velocity": 40,
                "duration": 0.3840909,
                "tempo": 120.0
            },
            {
                "start_time": 15.65,
                "end_time": 16.0363636,
                "pitch": 64,
                "velocity": 40,
                "duration": 0.3863636,
                "tempo": 120.0
            },
            {
                "start_time": 16.0522727,
                "end_time": 16.6386364,
                "pitch": 63,
                "velocity": 40,
                "duration": 0.5863636,
                "tempo": 120.0
            },
            {
                "start_time": 16.6568182,
                "end_time": 17.2409091,
                "pitch": 63,
                "velocity": 40,
                "duration": 0.5840909,
                "tempo": 120.0
            },
            {
                "start_time": 17.2590909,
                "end_time": 19.2477273,
                "pitch": 63,
                "velocity": 40,
                "duration": 1.9886364,
                "tempo": 120.0
            }
        ]
    }
}