{
    "mood": "happy",
    "instruments": {
        "Clarinet": [
            {
                "start_time": 0.0045455,
                "end_time": 0.1977273,
                "pitch": 55,
                "velocity": 64,
                "duration": 0.1931818,
                "tempo": 120.0
            },
            {
                "start_time": 0.2136364,
                "end_time": 0.3113636,
                "pitch": 52,
                "velocity": 64,
                "duration": 0.0977273,
                "tempo": 120.0
            },
            {
                "start_time": 0.3295455,
                "end_time": 0.5386364,
                "pitch": 55,
                "velocity": 64,
                "duration": 0.2090909,
                "tempo": 120.0
            },
            {
                "start_time": 0.5545455,
                "end_time": 0.6340909,
                "pitch": 52,
                "velocity": 64,
                "duration": 0.0795455,
                "tempo": 120.0
            },
            {
                "start_time": 0.6681818,
                "end_time": 1.0818182,
                "pitch": 55,
                "velocity": 64,
                "duration": 0.4136364,
                "tempo": 120.0
            },
            {
                "start_time": 1.0977273,
                "end_time": 1.3068182,
                "pitch": 60,
                "velocity": 64,
                "duration": 0.2090909,
                "tempo": 120.0
            },
            {
                "start_time": 1.3227273,
                "end_time": 1.5272727,
                "pitch": 59,
                "velocity": 64,
                "duration": 0.2045455,
                "tempo": 120.0
            },
            {
                "start_time": 1.5454545,
                "end_time": 1.7681818,
                "pitch": 52,
                "velocity": 64,
                "duration": 0.2227273,
                "tempo": 120.0
            },
            {
                "start_time": 1.7840909,
                "end_time": 2.0022727,
                "pitch": 56,
                "velocity": 64,
                "duration": 0.2181818,
                "tempo": 120.0
            },
            {
                "start_time": 2.0204545,
                "end_time": 2.1204545,
                "pitch": 52,
                "velocity": 64,
                "duration": 0.1,
                "tempo": 120.0
            },
            {
                "start_time": 2.1363636,
                "end_time": 2.3363636,
                "pitch": 56,
                "velocity": 64,
                "duration": 0.2,
                "tempo": 120.0
            },
            {
                "start_time": 2.3545455,
                "end_time": 2.4545455,
                "pitch": 52,
                "velocity": 64,
                "duration": 0.1,
                "tempo": 120.0
            },
            {
                "start_time": 2.4704545,
                "end_time": 2.9181818,
                "pitch": 56,
                "velocity": 64,
                "duration": 0.4477273,
                "tempo": 120.0
            },
            {
                "start_time": 2.9340909,
                "end_time": 3.1295455,
                "pitch": 60,
                "velocity": 64,
                "duration": 0.1954545,
                "tempo": 120.0
            },
            {
                "start_time": 3.1477273,
                "end_time": 3.3590909,
                "pitch": 59,
                "velocity": 64,
                "duration": 0.2113636,
                "tempo": 120.0
            },
            {
                "start_time": 3.375,
                "end_time": 3.5886364,
                "pitch": 52,
                "velocity": 64,
                "duration": 0.2136364,
                "tempo": 120.0
            },
            {
                "start_time": 3.6045455,
                "end_time": 3.8090909,
                "pitch": 57,
                "velocity": 64,
                "duration": 0.2045455,
                "tempo": 120.0
            },
            {
                "start_time": 3.8431818,
                "end_time": 3.9295455,
                "pitch": 52,
                "velocity": 64,
                "duration": 0.0863636,
                "tempo": 120.0
            },
            {
                "start_time": 3.9477273,
                "end_time": 4.1659091,
                "pitch": 57,
                "velocity": 64,
                "duration": 0.2181818,
                "tempo": 120.0
            },
            {
                "start_time": 4.1818182,
                "end_time": 4.2795455,
                "pitch": 52,
                "velocity": 64,
                "duration": 0.0977273,
                "tempo": 120.0
            },
            {
                "start_time": 4.2954545,
                "end_time": 4.725,
                "pitch": 57,
                "velocity": 64,
                "duration": 0.4295455,
                "tempo": 120.0
            },
            {
                "start_time": 4.7431818,
                "end_time": 4.9590909,
                "pitch": 64,
                "velocity": 64,
                "duration": 0.2159091,
                "tempo": 120.0
            },
            {
                "start_time": 4.9772727,
                "end_time": 5.1886364,
                "pitch": 62,
                "velocity": 64,
                "duration": 0.2113636,
                "tempo": 120.0
            },
            {
                "start_time": 5.2045455,
                "end_time": 5.4022727,
                "pitch": 57,
                "velocity": 64,
                "duration": 0.1977273,
                "tempo": 120.0
            },
            {
                "start_time": 5.4340909,
                "end_time": 6.1090909,
                "pitch": 57,
                "velocity": 64,
                "duration": 0.675,
                "tempo": 120.0
            },
            {
                "start_time": 6.125,
                "end_time": 6.2068182,
                "pitch": 59,
                "velocity": 64,
                "duration": 0.0818182,
                "tempo": 120.0
            },
            {
                "start_time": 6.2386364,
                "end_time": 6.3204545,
                "pitch": 57,
                "velocity": 64,
                "duration": 0.0818182,
                "tempo": 120.0
            },
            {
                "start_time": 6.3386364,
                "end_time": 7.2409091,
                "pitch": 55,
                "velocity": 64,
                "duration": 0.9022727,
                "tempo": 120.0
            },
            {
                "start_time": 7.2568182,
                "end_time": 7.4704545,
                "pitch": 55,
                "velocity": 64,
                "duration": 0.2136364,
                "tempo": 120.0
            },
            {
                "start_time": 7.4863636,
                "end_time": 7.5840909,
                "pitch": 52,
                "velocity": 64,
                "duration": 0.0977273,
                "tempo": 120.0
            },
            {
                "start_time": 7.6022727,
                "end_time": 7.8,
                "pitch": 55,
                "velocity": 64,
                "duration": 0.1977273,
                "tempo": 120.0
            },
            {
                "start_time": 7.8318182,
                "end_time": 7.9159091,
                "pitch": 52,
                "velocity": 64,
                "duration": 0.0840909,
                "tempo": 120.0
            },
            {
                "start_time": 7.9340909,
                "end_time": 8.3795455,
                "pitch": 55,
                "velocity": 64,
                "duration": 0.4454545,
                "tempo": 120.0
            },
            {
                "start_time": 8.3954545,
                "end_time": 8.5931818,
                "pitch": 60,
                "velocity": 64,
                "duration": 0.1977273,
                "tempo": 120.0
            },
            {
                "start_time": 8.625,
                "end_time": 8.8295455,
                "pitch": 59,
                "velocity": 64,
                "duration": 0.2045455,
                "tempo": 120.0
            },
            {
                "start_time": 8.8477273,
                "end_time": 9.0704545,
                "pitch": 52,
                "velocity": 64,
                "duration": 0.2227273,
                "tempo": 120.0
            },
            {
                "start_time": 9.0863636,
                "end_time": 9.3045455,
                "pitch": 56,
                "velocity": 64,
                "duration": 0.2181818,
                "tempo": 120.0
            },
            {
                "start_time": 9.3227273,
                "end_time": 9.4045455,
                "pitch": 52,
                "velocity": 64,
                "duration": 0.0818182,
                "tempo": 120.0
            },
            {
                "start_time": 9.4386364,
                "end_time": 9.6363636,
                "pitch": 56,
                "velocity": 64,
                "duration": 0.1977273,
                "tempo": 120.0
            },
            {
                "start_time": 9.6522727,
                "end_time": 9.7477273,
                "pitch": 52,
                "velocity": 64,
                "duration": 0.0954545,
                "tempo": 120.0
            },
            {
                "start_time": 9.7636364,
                "end_time": 10.1886364,
                "pitch": 56,
                "velocity": 64,
                "duration": 0.425,
                "tempo": 120.0
            },
            {
                "start_time": 10.2204545,
                "end_time": 10.4227273,
                "pitch": 64,
                "velocity": 64,
                "duration": 0.2022727,
                "tempo": 120.0
            },
            {
                "start_time": 10.4386364,
                "end_time": 10.6568182,
                "pitch": 62,
                "velocity": 64,
                "duration": 0.2181818,
                "tempo": 120.0
            },
            {
                "start_time": 10.6727273,
                "end_time": 10.8909091,
                "pitch": 56,
                "velocity": 64,
                "duration": 0.2181818,
                "tempo": 120.0
            },
            {
                "start_time": 10.9068182,
                "end_time": 11.1136364,
                "pitch": 57,
                "velocity": 64,
                "duration": 0.2068182,
                "tempo": 120.0
            },
            {
                "start_time": 11.1295455,
                "end_time": 11.2318182,
                "pitch": 52,
                "velocity": 64,
                "duration": 0.1022727,
                "tempo": 120.0
            },
            {
                "start_time": 11.25,
                "end_time": 11.4659091,
                "pitch": 57,
                "velocity": 64,
                "duration": 0.2159091,
                "tempo": 120.0
            },
            {
                "start_time": 11.4818182,
                "end_time": 11.5772727,
                "pitch": 52,
                "velocity": 64,
                "duration": 0.0954545,
                "tempo": 120.0
            },
            {
                "start_time": 11.5931818,
                "end_time": 12.0227273,
                "pitch": 57,
                "velocity": 64,
                "duration": 0.4295455,
                "tempo": 120.0
            },
            {
                "start_time": 12.0386364,
                "end_time": 12.2613636,
                "pitch": 65,
                "velocity": 64,
                "duration": 0.2227273,
                "tempo": 120.0
            },
            {
                "start_time": 12.2795455,
                "end_time": 12.4909091,
                "pitch": 64,
                "velocity": 64,
                "duration": 0.2113636,
                "tempo": 120.0
            },
            {
                "start_time": 12.5090909,
                "end_time": 12.7045455,
                "pitch": 60,
                "velocity": 64,
                "duration": 0.1954545,
                "tempo": 120.0
            },
            {
                "start_time": 12.7204545,
                "end_time": 13.6227273,
                "pitch": 62,
                "velocity": 64,
                "duration": 0.9022727,
                "tempo": 120.0
            },
            {
                "start_time": 13.6409091,
                "end_time": 14.0727273,
                "pitch": 62,
                "velocity": 64,
                "duration": 0.4318182,
                "tempo": 120.0
            },
            {
                "start_time": 14.0886364,
                "end_time": 14.5340909,
                "pitch": 62,
                "velocity": 64,
                "duration": 0.4454545,
                "tempo": 120.0
            },
            {
                "start_time": 14.55,
                "end_time": 14.8340909,
                "pitch": 64,
                "velocity": 64,
                "duration": 0.2840909,
                "tempo": 120.0
            },
            {
                "start_time": 14.8522727,
                "end_time": 15.2204545,
                "pitch": 64,
                "velocity": 64,
                "duration": 0.3681818,
                "tempo": 120.0
            },
            {
                "start_time": 15.2363636,
                "end_time": 15.5681818,
                "pitch": 64,
                "velocity": 64,
                "duration": 0.3318182,
                "tempo": 120.0
            },
            {
                "start_time": 15.5840909,
                "end_time": 15.6840909,
                "pitch": 64,
                "velocity": 64,
                "duration": 0.1,
                "tempo": 120.0
            },
            {
                "start_time": 15.7,
                "end_time": 15.8954545,
                "pitch": 65,
                "velocity": 64,
                "duration": 0.1954545,
                "tempo": 120.0
            },
            {
                "start_time": 15.9113636,
                "end_time": 16.125,
                "pitch": 64,
                "velocity": 64,
                "duration": 0.2136364,
                "tempo": 120.0
            },
            {
                "start_time": 16.1409091,
                "end_time": 16.3545455,
                "pitch": 64,
                "velocity": 64,
                "duration": 0.2136364,
                "tempo": 120.0
            },
            {
                "start_time": 16.3704545,
                "end_time": 16.6545455,
                "pitch": 64,
                "velocity": 64,
                "duration": 0.2840909,
                "tempo": 120.0
            },
            {
                "start_time": 16.6704545,
                "end_time": 17.0340909,
                "pitch": 64,
                "velocity": 64,
                "duration": 0.3636364,
                "tempo": 120.0
            },
            {
                "start_time": 17.05,
                "end_time": 17.3659091,
                "pitch": 64,
                "velocity": 64,
                "duration": 0.3159091,
                "tempo": 120.0
            },
            {
                "start_time": 17.4,
                "end_time": 17.4840909,
                "pitch": 64,
                "velocity": 64,
                "duration": 0.0840909,
                "tempo": 120.0
            },
            {
                "start_time": 17.5022727,
                "end_time": 17.725,
                "pitch": 65,
                "velocity": 64,
                "duration": 0.2227273,
                "tempo": 120.0
            },
            {
                "start_time": 17.7409091,
                "end_time": 17.9545455,
                "pitch": 64,
                "velocity": 64,
                "duration": 0.2136364,
                "tempo": 120.0
            },
            {
                "start_time": 17.9704545,
                "end_time": 18.1659091,
                "pitch": 64,
                "velocity": 64,
                "duration": 0.1954545,
                "tempo": 120.0
            },
            {
                "start_time": 18.2,
                "end_time": 18.4909091,
                "pitch": 63,
                "velocity": 64,
                "duration": 0.2909091,
                "tempo": 120.0
            },
            {
                "start_time": 18.5068182,
                "end_time": 18.875,
                "pitch": 63,
                "velocity": 64,
                "duration": 0.3681818,
                "tempo": 120.0
            },
            {
                "start_time": 18.8909091,
                "end_time": 19.2022727,
                "pitch": 63,
                "velocity": 64,
                "duration": 0.3113636,
                "tempo": 120.0
            },
            {
                "start_time": 19.2181818,
                "end_time": 19.3159091,
                "pitch": 63,
                "velocity": 64,
                "duration": 0.0977273,
                "tempo": 120.0
            },
            {
                "start_time": 19.3318182,
                "end_time": 19.5454545,
                "pitch": 65,
                "velocity": 64,
                "duration": 0.2136364,
                "tempo": 120.0
            },
            {
                "start_time": 19.5613636,
                "end_time": 19.7613636,
                "pitch": 67,
                "velocity": 64,
                "duration": 0.2,
                "tempo": 120.0
            },
            {
                "start_time": 19.7954545,
                "end_time": 19.9954545,
                "pitch": 65,
                "velocity": 64,
                "duration": 0.2,
                "tempo": 120.0
            },
            {
                "start_time": 20.0136364,
                "end_time": 20.9159091,
                "pitch": 63,
                "velocity": 64,
                "duration": 0.9022727,
                "tempo": 120.0
            },
            {
                "start_time": 20.9318182,
                "end_time": 21.8363636,
                "pitch": 62,
                "velocity": 64,
                "duration": 0.9045455,
                "tempo": 120.0
            },
            {
                "start_time": 21.8522727,
                "end_time": 22.1318182,
                "pitch": 55,
                "velocity": 64,
                "duration": 0.2795455,
                "tempo": 120.0
            },
            {
                "start_time": 22.1477273,
                "end_time": 22.5068182,
                "pitch": 64,
                "velocity": 64,
                "duration": 0.3590909,
                "tempo": 120.0
            },
            {
                "start_time": 22.5227273,
                "end_time": 22.8545455,
                "pitch": 64,
                "velocity": 64,
                "duration": 0.3318182,
                "tempo": 120.0
            },
            {
                "start_time": 22.8727273,
                "end_time": 22.9568182,
                "pitch": 64,
                "velocity": 64,
                "duration": 0.0840909,
                "tempo": 120.0
            },
            {
                "start_time": 22.9909091,
                "end_time": 23.1977273,
                "pitch": 65,
                "velocity": 64,
                "duration": 0.2068182,
                "tempo": 120.0
            },
            {
                "start_time": 23.2136364,
                "end_time": 23.4227273,
                "pitch": 64,
                "velocity": 64,
                "duration": 0.2090909,
                "tempo": 120.0
            },
            {
                "start_time": 23.4386364,
                "end_time": 23.6454545,
                "pitch": 64,
                "velocity": 64,
                "duration": 0.2068182,
                "tempo": 120.0
            },
            {
                "start_time": 23.6613636,
                "end_time": 23.9522727,
                "pitch": 53,
                "velocity": 64,
                "duration": 0.2909091,
                "tempo": 120.0
            },
            {
                "start_time": 23.9704545,
                "end_time": 24.3363636,
                "pitch": 65,
                "velocity": 64,
                "duration": 0.3659091,
                "tempo": 120.0
            },
            {
                "start_time": 24.3522727,
                "end_time": 24.6681818,
                "pitch": 65,
                "velocity": 64,
                "duration": 0.3159091,
                "tempo": 120.0
            },
            {
                "start_time": 24.6840909,
                "end_time": 24.7863636,
                "pitch": 65,
                "velocity": 64,
                "duration": 0.1022727,
                "tempo": 120.0
            },
            {
                "start_time": 24.8045455,
                "end_time": 25.0272727,
                "pitch": 64,
                "velocity": 64,
                "duration": 0.2227273,
                "tempo": 120.0
            },
            {
                "start_time": 25.0431818,
                "end_time": 25.2568182,
                "pitch": 65,
                "velocity": 64,
                "duration": 0.2136364,
                "tempo": 120.0
            },
            {
                "start_time": 25.2727273,
                "end_time": 25.4704545,
                "pitch": 65,
                "velocity": 64,
                "duration": 0.1977273,
                "tempo": 120.0
            },
            {
                "start_time": 25.4863636,
                "end_time": 25.7795455,
                "pitch": 55,
                "velocity": 64,
                "duration": 0.2931818,
                "tempo": 120.0
            },
            {
                "start_time": 25.7954545,
                "end_time": 26.1477273,
                "pitch": 63,
                "velocity": 64,
                "duration": 0.3522727,
                "tempo": 120.0
            },
            {
                "start_time": 26.1818182,
                "end_time": 26.5045455,
                "pitch": 63,
                "velocity": 64,
                "duration": 0.3227273,
                "tempo": 120.0
            },
            {
                "start_time": 26.5204545,
                "end_time": 26.6181818,
                "pitch": 63,
                "velocity": 64,
                "duration": 0.0977273,
                "tempo": 120.0
            },
            {
                "start_time": 26.6340909,
                "end_time": 26.8477273,
                "pitch": 65,
                "velocity": 64,
                "duration": 0.2136364,
                "tempo": 120.0
            },
            {
                "start_time": 26.8636364,
                "end_time": 27.0636364,
                "pitch": 67,
                "velocity": 64,
                "duration": 0.2,
                "tempo": 120.0
            },
            {
                "start_time": 27.0818182,
                "end_time": 27.2977273,
                "pitch": 65,
                "velocity": 64,
                "duration": 0.2159091,
                "tempo": 120.0
            },
            {
                "start_time": 27.3159091,
                "end_time": 28.2181818,
                "pitch": 63,
                "velocity": 64,
                "duration": 0.9022727,
                "tempo": 120.0
            },
            {
                "start_time": 28.2340909,
                "end_time": 29.1295455,
                "pitch": 62,
                "velocity": 64,
                "duration": 0.8954545,
                "tempo": 120.0
            }
        ],
        "Acoustic Bass": [
            {
                "start_time": 0.0045455,
                "end_time": 0.1977273,
                "pitch": 48,
                "velocity": 51,
                "duration": 0.1931818,
                "tempo": 120.0
            },
            {
                "start_time": 0.2136364,
                "end_time": 0.4272727,
                "pitch": 55,
                "velocity": 51,
                "duration": 0.2136364,
                "tempo": 120.0
            },
            {
                "start_time": 0.4431818,
                "end_time": 0.6340909,
                "pitch": 48,
                "velocity": 51,
                "duration": 0.1909091,
                "tempo": 120.0
            },
            {
                "start_time": 0.6681818,
                "end_time": 0.8590909,
                "pitch": 55,
                "velocity": 51,
                "duration": 0.1909091,
                "tempo": 120.0
            },
            {
                "start_time": 0.875,
                "end_time": 1.0818182,
                "pitch": 48,
                "velocity": 51,
                "duration": 0.2068182,
                "tempo": 120.0
            },
            {
                "start_time": 1.0977273,
                "end_time": 1.3068182,
                "pitch": 55,
                "velocity": 51,
                "duration": 0.2090909,
                "tempo": 120.0
            },
            {
                "start_time": 1.3227273,
                "end_time": 1.5272727,
                "pitch": 48,
                "velocity": 51,
                "duration": 0.2045455,
                "tempo": 120.0
            },
            {
                "start_time": 1.5454545,
                "end_time": 1.7681818,
                "pitch": 55,
                "velocity": 51,
                "duration": 0.2227273,
                "tempo": 120.0
            },
            {
                "start_time": 1.7840909,
                "end_time": 2.0022727,
                "pitch": 48,
                "velocity": 51,
                "duration": 0.2181818,
                "tempo": 120.0
            },
            {
                "start_time": 2.0204545,
                "end_time": 2.2204545,
                "pitch": 56,
                "velocity": 51,
                "duration": 0.2,
                "tempo": 120.0
            },
            {
                "start_time": 2.2545455,
                "end_time": 2.4545455,
                "pitch": 48,
                "velocity": 51,
                "duration": 0.2,
                "tempo": 120.0
            },
            {
                "start_time": 2.4704545,
                "end_time": 2.6886364,
                "pitch": 56,
                "velocity": 51,
                "duration": 0.2181818,
                "tempo": 120.0
            },
            {
                "start_time": 2.7045455,
                "end_time": 2.9181818,
                "pitch": 48,
                "velocity": 51,
                "duration": 0.2136364,
                "tempo": 120.0
            },
            {
                "start_time": 2.9340909,
                "end_time": 3.1295455,
                "pitch": 56,
                "velocity": 51,
                "duration": 0.1954545,
                "tempo": 120.0
            },
            {
                "start_time": 3.1477273,
                "end_time": 3.3590909,
                "pitch": 48,
                "velocity": 51,
                "duration": 0.2113636,
                "tempo": 120.0
            },
            {
                "start_time": 3.375,
                "end_time": 3.5886364,
                "pitch": 56,
                "velocity": 51,
                "duration": 0.2136364,
                "tempo": 120.0
            },
            {
                "start_time": 3.6045455,
                "end_time": 3.8090909,
                "pitch": 48,
                "velocity": 51,
                "duration": 0.2045455,
                "tempo": 120.0
            },
            {
                "start_time": 3.8431818,
                "end_time": 4.05,
                "pitch": 57,
                "velocity": 51,
                "duration": 0.2068182,
                "tempo": 120.0
            },
            {
                "start_time": 4.0659091,
                "end_time": 4.2795455,
                "pitch": 48,
                "velocity": 51,
                "duration": 0.2136364,
                "tempo": 120.0
            },
            {
                "start_time": 4.2954545,
                "end_time": 4.5090909,
                "pitch": 57,
                "velocity": 51,
                "duration": 0.2136364,
                "tempo": 120.0
            },
            {
                "start_time": 4.525,
                "end_time": 4.725,
                "pitch": 48,
                "velocity": 51,
                "duration": 0.2,
                "tempo": 120.0
            },
            {
                "start_time": 4.7431818,
                "end_time": 4.9590909,
                "pitch": 57,
                "velocity": 51,
                "duration": 0.2159091,
                "tempo": 120.0
            },
            {
                "start_time": 4.9772727,
                "end_time": 5.1886364,
                "pitch": 48,
                "velocity": 51,
                "duration": 0.2113636,
                "tempo": 120.0
            },
            {
                "start_time": 5.2045455,
                "end_time": 5.4022727,
                "pitch": 57,
                "velocity": 51,
                "duration": 0.1977273,
                "tempo": 120.0
            },
            {
                "start_time": 5.4340909,
                "end_time": 5.6386364,
                "pitch": 55,
                "velocity": 51,
                "duration": 0.2045455,
                "tempo": 120.0
            },
            {
                "start_time": 5.6568182,
                "end_time": 5.8795455,
                "pitch": 59,
                "velocity": 51,
                "duration": 0.2227273,
                "tempo": 120.0
            },
            {
                "start_time": 5.8954545,
                "end_time": 6.1090909,
                "pitch": 55,
                "velocity": 51,
                "duration": 0.2136364,
                "tempo": 120.0
            },
            {
                "start_time": 6.125,
                "end_time": 6.3204545,
                "pitch": 59,
                "velocity": 51,
                "duration": 0.1954545,
                "tempo": 120.0
            },
            {
                "start_time": 6.3386364,
                "end_time": 6.55,
                "pitch": 50,
                "velocity": 51,
                "duration": 0.2113636,
                "tempo": 120.0
            },
            {
                "start_time": 6.5659091,
                "end_time": 6.7795455,
                "pitch": 55,
                "velocity": 51,
                "duration": 0.2136364,
                "tempo": 120.0
            },
            {
                "start_time": 6.7954545,
                "end_time": 7.0,
                "pitch": 47,
                "velocity": 51,
                "duration": 0.2045455,
                "tempo": 120.0
            },
            {
                "start_time": 7.0340909,
                "end_time": 7.2409091,
                "pitch": 50,
                "velocity": 51,
                "duration": 0.2068182,
                "tempo": 120.0
            },
            {
                "start_time": 7.2568182,
                "end_time": 7.4704545,
                "pitch": 48,
                "velocity": 51,
                "duration": 0.2136364,
                "tempo": 120.0
            },
            {
                "start_time": 7.4863636,
                "end_time": 7.7,
                "pitch": 55,
                "velocity": 51,
                "duration": 0.2136364,
                "tempo": 120.0
            },
            {
                "start_time": 7.7159091,
                "end_time": 7.9159091,
                "pitch": 48,
                "velocity": 51,
                "duration": 0.2,
                "tempo": 120.0
            },
            {
                "start_time": 7.9340909,
                "end_time": 8.15,
                "pitch": 55,
                "velocity": 51,
                "duration": 0.2159091,
                "tempo": 120.0
            },
            {
                "start_time": 8.1681818,
                "end_time": 8.3795455,
                "pitch": 48,
                "velocity": 51,
                "duration": 0.2113636,
                "tempo": 120.0
            },
            {
                "start_time": 8.3954545,
                "end_time": 8.5931818,
                "pitch": 55,
                "velocity": 51,
                "duration": 0.1977273,
                "tempo": 120.0
            },
            {
                "start_time": 8.625,
                "end_time": 8.8295455,
                "pitch": 48,
                "velocity": 51,
                "duration": 0.2045455,
                "tempo": 120.0
            },
            {
                "start_time": 8.8477273,
                "end_time": 9.0704545,
                "pitch": 55,
                "velocity": 51,
                "duration": 0.2227273,
                "tempo": 120.0
            },
            {
                "start_time": 9.0863636,
                "end_time": 9.3045455,
                "pitch": 48,
                "velocity": 51,
                "duration": 0.2181818,
                "tempo": 120.0
            },
            {
                "start_time": 9.3227273,
                "end_time": 9.5227273,
                "pitch": 56,
                "velocity": 51,
                "duration": 0.2,
                "tempo": 120.0
            },
            {
                "start_time": 9.5386364,
                "end_time": 9.7477273,
                "pitch": 48,
                "velocity": 51,
                "duration": 0.2090909,
                "tempo": 120.0
            },
            {
                "start_time": 9.7636364,
                "end_time": 9.9704545,
                "pitch": 56,
                "velocity": 51,
                "duration": 0.2068182,
                "tempo": 120.0
            },
            {
                "start_time": 9.9863636,
                "end_time": 10.1886364,
                "pitch": 48,
                "velocity": 51,
                "duration": 0.2022727,
                "tempo": 120.0
            },
            {
                "start_time": 10.2204545,
                "end_time": 10.4227273,
                "pitch": 56,
                "velocity": 51,
                "duration": 0.2022727,
                "tempo": 120.0
            },
            {
                "start_time": 10.4386364,
                "end_time": 10.6568182,
                "pitch": 48,
                "velocity": 51,
                "duration": 0.2181818,
                "tempo": 120.0
            },
            {
                "start_time": 10.6727273,
                "end_time": 10.8909091,
                "pitch": 56,
                "velocity": 51,
                "duration": 0.2181818,
                "tempo": 120.0
            },
            {
                "start_time": 10.9068182,
                "end_time": 11.1136364,
                "pitch": 53,
                "velocity": 51,
                "duration": 0.2068182,
                "tempo": 120.0
            },
            {
                "start_time": 11.1295455,
                "end_time": 11.3522727,
                "pitch": 57,
                "velocity": 51,
                "duration": 0.2227273,
                "tempo": 120.0
            },
            {
                "start_time": 11.3704545,
                "end_time": 11.5772727,
                "pitch": 48,
                "velocity": 51,
                "duration": 0.2068182,
                "tempo": 120.0
            },
            {
                "start_time": 11.5931818,
                "end_time": 11.7840909,
                "pitch": 57,
                "velocity": 51,
                "duration": 0.1909091,
                "tempo": 120.0
            },
            {
                "start_time": 11.8181818,
                "end_time": 12.0227273,
                "pitch": 53,
                "velocity": 51,
                "duration": 0.2045455,
                "tempo": 120.0
            },
            {
                "start_time": 12.0386364,
                "end_time": 12.2613636,
                "pitch": 57,
                "velocity": 51,
                "duration": 0.2227273,
                "tempo": 120.0
            },
            {
                "start_time": 12.2795455,
                "end_time": 12.4909091,
                "pitch": 48,
                "velocity": 51,
                "duration": 0.2113636,
                "tempo": 120.0
            },
            {
                "start_time": 12.5090909,
                "end_time": 12.7045455,
                "pitch": 53,
                "velocity": 51,
                "duration": 0.1954545,
                "tempo": 120.0
            },
            {
                "start_time": 12.7204545,
                "end_time": 12.9386364,
                "pitch": 55,
                "velocity": 51,
                "duration": 0.2181818,
                "tempo": 120.0
            },
            {
                "start_time": 12.9545455,
                "end_time": 13.1727273,
                "pitch": 59,
                "velocity": 51,
                "duration": 0.2181818,
                "tempo": 120.0
            },
            {
                "start_time": 13.1886364,
                "end_time": 13.3886364,
                "pitch": 55,
                "velocity": 51,
                "duration": 0.2,
                "tempo": 120.0
            },
            {
                "start_time": 13.4227273,
                "end_time": 13.6227273,
                "pitch": 59,
                "velocity": 51,
                "duration": 0.2,
                "tempo": 120.0
            },
            {
                "start_time": 13.6409091,
                "end_time": 13.8477273,
                "pitch": 50,
                "velocity": 51,
                "duration": 0.2068182,
                "tempo": 120.0
            },
            {
                "start_time": 13.8636364,
                "end_time": 14.0727273,
                "pitch": 55,
                "velocity": 51,
                "duration": 0.2090909,
                "tempo": 120.0
            },
            {
                "start_time": 14.0886364,
                "end_time": 14.2931818,
                "pitch": 47,
                "velocity": 51,
                "duration": 0.2045455,
                "tempo": 120.0
            },
            {
                "start_time": 14.3113636,
                "end_time": 14.5340909,
                "pitch": 50,
                "velocity": 51,
                "duration": 0.2227273,
                "tempo": 120.0
            },
            {
                "start_time": 14.55,
                "end_time": 14.7681818,
                "pitch": 48,
                "velocity": 51,
                "duration": 0.2181818,
                "tempo": 120.0
            },
            {
                "start_time": 14.7840909,
                "end_time": 14.9863636,
                "pitch": 55,
                "velocity": 51,
                "duration": 0.2022727,
                "tempo": 120.0
            },
            {
                "start_time": 15.0181818,
                "end_time": 15.2204545,
                "pitch": 48,
                "velocity": 51,
                "duration": 0.2022727,
                "tempo": 120.0
            },
            {
                "start_time": 15.2363636,
                "end_time": 15.4545455,
                "pitch": 55,
                "velocity": 51,
                "duration": 0.2181818,
                "tempo": 120.0
            },
            {
                "start_time": 15.4704545,
                "end_time": 15.6840909,
                "pitch": 48,
                "velocity": 51,
                "duration": 0.2136364,
                "tempo": 120.0
            },
            {
                "start_time": 15.7,
                "end_time": 15.8954545,
                "pitch": 55,
                "velocity": 51,
                "duration": 0.1954545,
                "tempo": 120.0
            },
            {
                "start_time": 15.9113636,
                "end_time": 16.125,
                "pitch": 48,
                "velocity": 51,
                "duration": 0.2136364,
                "tempo": 120.0
            },
            {
                "start_time": 16.1409091,
                "end_time": 16.3545455,
                "pitch": 55,
                "velocity": 51,
                "duration": 0.2136364,
                "tempo": 120.0
            },
            {
                "start_time": 16.3704545,
                "end_time": 16.5704545,
                "pitch": 46,
                "velocity": 51,
                "duration": 0.2,
                "tempo": 120.0
            },
            {
                "start_time": 16.6045455,
                "end_time": 16.8045455,
                "pitch": 53,
                "velocity": 51,
                "duration": 0.2,
                "tempo": 120.0
            },
            {
                "start_time": 16.8204545,
                "end_time": 17.0340909,
                "pitch": 46,
                "velocity": 51,
                "duration": 0.2136364,
                "tempo": 120.0
            },
            {
                "start_time": 17.05,
                "end_time": 17.2636364,
                "pitch": 53,
                "velocity": 51,
                "duration": 0.2136364,
                "tempo": 120.0
            },
            {
                "start_time": 17.2795455,
                "end_time": 17.4840909,
                "pitch": 46,
                "velocity": 51,
                "duration": 0.2045455,
                "tempo": 120.0
            },
            {
                "start_time": 17.5022727,
                "end_time": 17.725,
                "pitch": 53,
                "velocity": 51,
                "duration": 0.2227273,
                "tempo": 120.0
            },
            {
                "start_time": 17.7409091,
                "end_time": 17.9545455,
                "pitch": 46,
                "velocity": 51,
                "duration": 0.2136364,
                "tempo": 120.0
            },
            {
                "start_time": 17.9704545,
                "end_time": 18.1659091,
                "pitch": 53,
                "velocity": 51,
                "duration": 0.1954545,
                "tempo": 120.0
            },
            {
                "start_time": 18.2,
                "end_time": 18.4045455,
                "pitch": 44,
                "velocity": 51,
                "duration": 0.2045455,
                "tempo": 120.0
            },
            {
                "start_time": 18.4227273,
                "end_time": 18.6454545,
                "pitch": 51,
                "velocity": 51,
                "duration": 0.2227273,
                "tempo": 120.0
            },
            {
                "start_time": 18.6613636,
                "end_time": 18.875,
                "pitch": 44,
                "velocity": 51,
                "duration": 0.2136364,
                "tempo": 120.0
            },
            {
                "start_time": 18.8909091,
                "end_time": 19.0863636,
                "pitch": 51,
                "velocity": 51,
                "duration": 0.1954545,
                "tempo": 120.0
            },
            {
                "start_time": 19.1022727,
                "end_time": 19.3159091,
                "pitch": 44,
                "velocity": 51,
                "duration": 0.2136364,
                "tempo": 120.0
            },
            {
                "start_time": 19.3318182,
                "end_time": 19.5454545,
                "pitch": 51,
                "velocity": 51,
                "duration": 0.2136364,
                "tempo": 120.0
            },
            {
                "start_time": 19.5613636,
                "end_time": 19.7613636,
                "pitch": 44,
                "velocity": 51,
                "duration": 0.2,
                "tempo": 120.0
            },
            {
                "start_time": 19.7954545,
                "end_time": 19.9954545,
                "pitch": 51,
                "velocity": 51,
                "duration": 0.2,
                "tempo": 120.0
            },
            {
                "start_time": 20.0136364,
                "end_time": 20.225,
                "pitch": 43,
                "velocity": 51,
                "duration": 0.2113636,
                "tempo": 120.0
            },
            {
                "start_time": 20.2409091,
                "end_time": 20.4545455,
                "pitch": 50,
                "velocity": 51,
                "duration": 0.2136364,
                "tempo": 120.0
            },
            {
                "start_time": 20.4704545,
                "end_time": 20.675,
                "pitch": 43,
                "velocity": 51,
                "duration": 0.2045455,
                "tempo": 120.0
            },
            {
                "start_time": 20.6931818,
                "end_time": 20.9159091,
                "pitch": 50,
                "velocity": 51,
                "duration": 0.2227273,
                "tempo": 120.0
            },
            {
                "start_time": 20.9318182,
                "end_time": 21.15,
                "pitch": 43,
                "velocity": 51,
                "duration": 0.2181818,
                "tempo": 120.0
            },
            {
                "start_time": 21.1681818,
                "end_time": 21.3681818,
                "pitch": 50,
                "velocity": 51,
                "duration": 0.2,
                "tempo": 120.0
            },
            {
                "start_time": 21.4022727,
                "end_time": 21.6022727,
                "pitch": 43,
                "velocity": 51,
                "duration": 0.2,
                "tempo": 120.0
            },
            {
                "start_time": 21.6181818,
                "end_time": 21.8363636,
                "pitch": 50,
                "velocity": 51,
                "duration": 0.2181818,
                "tempo": 120.0
            },
            {
                "start_time": 21.8522727,
                "end_time": 22.0659091,
                "pitch": 48,
                "velocity": 51,
                "duration": 0.2136364,
                "tempo": 120.0
            },
            {
                "start_time": 22.0818182,
                "end_time": 22.2772727,
                "pitch": 55,
                "velocity": 51,
                "duration": 0.1954545,
                "tempo": 120.0
            },
            {
                "start_time": 22.2954545,
                "end_time": 22.5068182,
                "pitch": 48,
                "velocity": 51,
                "duration": 0.2113636,
                "tempo": 120.0
            },
            {
                "start_time": 22.5227273,
                "end_time": 22.7363636,
                "pitch": 55,
                "velocity": 51,
                "duration": 0.2136364,
                "tempo": 120.0
            },
            {
                "start_time": 22.7522727,
                "end_time": 22.9568182,
                "pitch": 48,
                "velocity": 51,
                "duration": 0.2045455,
                "tempo": 120.0
            },
            {
                "start_time": 22.9909091,
                "end_time": 23.1977273,
                "pitch": 55,
                "velocity": 51,
                "duration": 0.2068182,
                "tempo": 120.0
            },
            {
                "start_time": 23.2136364,
                "end_time": 23.4227273,
                "pitch": 48,
                "velocity": 51,
                "duration": 0.2090909,
                "tempo": 120.0
            },
            {
                "start_time": 23.4386364,
                "end_time": 23.6454545,
                "pitch": 55,
                "velocity": 51,
                "duration": 0.2068182,
                "tempo": 120.0
            },
            {
                "start_time": 23.6613636,
                "end_time": 23.8681818,
                "pitch": 46,
                "velocity": 51,
                "duration": 0.2068182,
                "tempo": 120.0
            },
            {
                "start_time": 23.8840909,
                "end_time": 24.1068182,
                "pitch": 53,
                "velocity": 51,
                "duration": 0.2227273,
                "tempo": 120.0
            },
            {
                "start_time": 24.125,
                "end_time": 24.3363636,
                "pitch": 46,
                "velocity": 51,
                "duration": 0.2113636,
                "tempo": 120.0
            },
            {
                "start_time": 24.3522727,
                "end_time": 24.55,
                "pitch": 53,
                "velocity": 51,
                "duration": 0.1977273,
                "tempo": 120.0
            },
            {
                "start_time": 24.5818182,
                "end_time": 24.7863636,
                "pitch": 46,
                "velocity": 51,
                "duration": 0.2045455,
                "tempo": 120.0
            },
            {
                "start_time": 24.8045455,
                "end_time": 25.0272727,
                "pitch": 53,
                "velocity": 51,
                "duration": 0.2227273,
                "tempo": 120.0
            },
            {
                "start_time": 25.0431818,
                "end_time": 25.2568182,
                "pitch": 46,
                "velocity": 51,
                "duration": 0.2136364,
                "tempo": 120.0
            },
            {
                "start_time": 25.2727273,
                "end_time": 25.4704545,
                "pitch": 53,
                "velocity": 51,
                "duration": 0.1977273,
                "tempo": 120.0
            },
            {
                "start_time": 25.4863636,
                "end_time": 25.6977273,
                "pitch": 44,
                "velocity": 51,
                "duration": 0.2113636,
                "tempo": 120.0
            },
            {
                "start_time": 25.7136364,
                "end_time": 25.9272727,
                "pitch": 51,
                "velocity": 51,
                "duration": 0.2136364,
                "tempo": 120.0
            },
            {
                "start_time": 25.9431818,
                "end_time": 26.1477273,
                "pitch": 44,
                "velocity": 51,
                "duration": 0.2045455,
                "tempo": 120.0
            },
            {
                "start_time": 26.1818182,
                "end_time": 26.3886364,
                "pitch": 51,
                "velocity": 51,
                "duration": 0.2068182,
                "tempo": 120.0
            },
            {
                "start_time": 26.4045455,
                "end_time": 26.6181818,
                "pitch": 44,
                "velocity": 51,
                "duration": 0.2136364,
                "tempo": 120.0
            },
            {
                "start_time": 26.6340909,
                "end_time": 26.8477273,
                "pitch": 51,
                "velocity": 51,
                "duration": 0.2136364,
                "tempo": 120.0
            },
            {
                "start_time": 26.8636364,
                "end_time": 27.0636364,
                "pitch": 44,
                "velocity": 51,
                "duration": 0.2,
                "tempo": 120.0
            },
            {
                "start_time": 27.0818182,
                "end_time": 27.2977273,
                "pitch": 51,
                "velocity": 51,
                "duration": 0.2159091,
                "tempo": 120.0
            },
            {
                "start_time": 27.3159091,
                "end_time": 27.5272727,
                "pitch": 43,
                "velocity": 51,
                "duration": 0.2113636,
                "tempo": 120.0
            },
            {
                "start_time": 27.5431818,
                "end_time": 27.7409091,
                "pitch": 50,
                "velocity": 51,
                "duration": 0.1977273,
                "tempo": 120.0
            },
            {
                "start_time": 27.7727273,
                "end_time": 27.9772727,
                "pitch": 43,
                "velocity": 51,
                "duration": 0.2045455,
                "tempo": 120.0
            },
            {
                "start_time": 27.9954545,
                "end_time": 28.2181818,
                "pitch": 50,
                "velocity": 51,
                "duration": 0.2227273,
                "tempo": 120.0
            },
            {
                "start_time": 28.2340909,
                "end_time": 28.4477273,
                "pitch": 43,
                "velocity": 51,
                "duration": 0.2136364,
                "tempo": 120.0
            },
            {
                "start_time": 28.4636364,
                "end_time": 28.6613636,
                "pitch": 50,
                "velocity": 51,
                "duration": 0.1977273,
                "tempo": 120.0
            },
            {
                "start_time": 28.6772727,
                "end_time": 28.775,
                "pitch": 43,
                "velocity": 51,
                "duration": 0.0977273,
                "tempo": 120.0
            },
            {
                "start_time": 28.7909091,
                "end_time": 28.8886364,
                "pitch": 47,
                "velocity": 51,
                "duration": 0.0977273,
                "tempo": 120.0
            },
            {
                "start_time": 28.9068182,
                "end_time": 29.0045455,
                "pitch": 50,
                "velocity": 51,
                "duration": 0.0977273,
                "tempo": 120.0
            },
            {
                "start_time": 29.0204545,
                "end_time": 29.1295455,
                "pitch": 53,
                "velocity": 51,
                "duration": 0.1090909,
                "tempo": 120.0
            }
        ],
        "Vibraphone": [
            {
                "start_time": 0.0045455,
                "end_time": 1.3068182,
                "pitch": 64,
                "velocity": 40,
                "duration": 1.3022727,
                "tempo": 120.0
            },
            {
                "start_time": 1.3227273,
                "end_time": 1.7681818,
                "pitch": 65,
                "velocity": 40,
                "duration": 0.4454545,
                "tempo": 120.0
            },
            {
                "start_time": 1.7840909,
                "end_time": 3.1295455,
                "pitch": 64,
                "velocity": 40,
                "duration": 1.3454545,
                "tempo": 120.0
            },
            {
                "start_time": 3.1477273,
                "end_time": 3.5886364,
                "pitch": 65,
                "velocity": 40,
                "duration": 0.4409091,
                "tempo": 120.0
            },
            {
                "start_time": 3.6045455,
                "end_time": 4.9590909,
                "pitch": 64,
                "velocity": 40,
                "duration": 1.3545455,
                "tempo": 120.0
            },
            {
                "start_time": 4.9772727,
                "end_time": 5.4022727,
                "pitch": 65,
                "velocity": 40,
                "duration": 0.425,
                "tempo": 120.0
            },
            {
                "start_time": 5.4340909,
                "end_time": 6.3204545,
                "pitch": 67,
                "velocity": 40,
                "duration": 0.8863636,
                "tempo": 120.0
            },
            {
                "start_time": 6.3386364,
                "end_time": 7.2409091,
                "pitch": 65,
                "velocity": 40,
                "duration": 0.9022727,
                "tempo": 120.0
            },
            {
                "start_time": 7.2568182,
                "end_time": 8.5931818,
                "pitch": 64,
                "velocity": 40,
                "duration": 1.3363636,
                "tempo": 120.0
            },
            {
                "start_time": 8.625,
                "end_time": 9.0704545,
                "pitch": 65,
                "velocity": 40,
                "duration": 0.4454545,
                "tempo": 120.0
            },
            {
                "start_time": 9.0863636,
                "end_time": 10.4227273,
                "pitch": 64,
                "velocity": 40,
                "duration": 1.3363636,
                "tempo": 120.0
            },
            {
                "start_time": 10.4386364,
                "end_time": 10.8909091,
                "pitch": 65,
                "velocity": 40,
                "duration": 0.4522727,
                "tempo": 120.0
            },
            {
                "start_time": 10.9068182,
                "end_time": 12.2613636,
                "pitch": 64,
                "velocity": 40,
                "duration": 1.3545455,
                "tempo": 120.0
            },
            {
                "start_time": 12.2795455,
                "end_time": 12.7045455,
                "pitch": 65,
                "velocity": 40,
                "duration": 0.425,
                "tempo": 120.0
            },
            {
                "start_time": 12.7204545,
                "end_time": 13.6227273,
                "pitch": 59,
                "velocity": 40,
                "duration": 0.9022727,
                "tempo": 120.0
            },
            {
                "start_time": 13.6409091,
                "end_time": 14.0727273,
                "pitch": 57,
                "velocity": 40,
                "duration": 0.4318182,
                "tempo": 120.0
            },
            {
                "start_time": 14.0886364,
                "end_time": 14.5340909,
                "pitch": 55,
                "velocity": 40,
                "duration": 0.4454545,
                "tempo": 120.0
            },
            {
                "start_time": 14.55,
                "end_time": 14.8340909,
                "pitch": 60,
                "velocity": 40,
                "duration": 0.2840909,
                "tempo": 120.0
            },
            {
                "start_time": 14.8522727,
                "end_time": 15.2204545,
                "pitch": 60,
                "velocity": 40,
                "duration": 0.3681818,
                "tempo": 120.0
            },
            {
                "start_time": 15.2363636,
                "end_time": 15.5681818,
                "pitch": 60,
                "velocity": 40,
                "duration": 0.3318182,
                "tempo": 120.0
            },
            {
                "start_time": 15.5840909,
                "end_time": 15.6840909,
                "pitch": 60,
                "velocity": 40,
                "duration": 0.1,
                "tempo": 120.0
            },
            {
                "start_time": 15.7,
                "end_time": 15.8954545,
                "pitch": 62,
                "velocity": 40,
                "duration": 0.1954545,
                "tempo": 120.0
            },
            {
                "start_time": 15.9113636,
                "end_time": 16.125,
                "pitch": 60,
                "velocity": 40,
                "duration": 0.2136364,
                "tempo": 120.0
            },
            {
                "start_time": 16.1409091,
                "end_time": 16.3545455,
                "pitch": 60,
                "velocity": 40,
                "duration": 0.2136364,
                "tempo": 120.0
            },
            {
                "start_time": 16.3704545,
                "end_time": 16.6545455,
                "pitch": 60,
                "velocity": 40,
                "duration": 0.2840909,
                "tempo": 120.0
            },
            {
                "start_time": 16.6704545,
                "end_time": 17.0340909,
                "pitch": 60,
                "velocity": 40,
                "duration": 0.3636364,
                "tempo": 120.0
            },
            {
                "start_time": 17.05,
                "end_time": 17.3659091,
                "pitch": 60,
                "velocity": 40,
                "duration": 0.3159091,
                "tempo": 120.0
            },
            {
                "start_time": 17.4,
                "end_time": 17.4840909,
                "pitch": 60,
                "velocity": 40,
                "duration": 0.0840909,
                "tempo": 120.0
            },
            {
                "start_time": 17.5022727,
                "end_time": 17.725,
                "pitch": 62,
                "velocity": 40,
                "duration": 0.2227273,
                "tempo": 120.0
            },
            {
                "start_time": 17.7409091,
                "end_time": 17.9545455,
                "pitch": 60,
                "velocity": 40,
                "duration": 0.2136364,
                "tempo": 120.0
            },
            {
                "start_time": 17.9704545,
                "end_time": 18.1659091,
                "pitch": 60,
                "velocity": 40,
                "duration": 0.1954545,
                "tempo": 120.0
            },
            {
                "start_time": 18.2,
                "end_time": 18.4909091,
                "pitch": 60,
                "velocity": 40,
                "duration": 0.2909091,
                "tempo": 120.0
            },
            {
                "start_time": 18.5068182,
                "end_time": 18.875,
                "pitch": 60,
                "velocity": 40,
                "duration": 0.3681818,
                "tempo": 120.0
            },
            {
                "start_time": 18.8909091,
                "end_time": 19.2022727,
                "pitch": 60,
                "velocity": 40,
                "duration": 0.3113636,
                "tempo": 120.0
            },
            {
                "start_time": 19.2181818,
                "end_time": 19.3159091,
                "pitch": 60,
                "velocity": 40,
                "duration": 0.0977273,
                "tempo": 120.0
            },
            {
                "start_time": 19.3318182,
                "end_time": 19.5454545,
                "pitch": 62,
                "velocity": 40,
                "duration": 0.2136364,
                "tempo": 120.0
            },
            {
                "start_time": 19.5613636,
                "end_time": 19.7613636,
                "pitch": 64,
                "velocity": 40,
                "duration": 0.2,
                "tempo": 120.0
            },
            {
                "start_time": 19.7954545,
                "end_time": 19.9954545,
                "pitch": 62,
                "velocity": 40,
                "duration": 0.2,
                "tempo": 120.0
            },
            {
                "start_time": 20.0136364,
                "end_time": 20.9159091,
                "pitch": 60,
                "velocity": 40,
                "duration": 0.9022727,
                "tempo": 120.0
            },
            {
                "start_time": 20.9318182,
                "end_time": 21.8363636,
                "pitch": 59,
                "velocity": 40,
                "duration": 0.9045455,
                "tempo": 120.0
            },
            {
                "start_time": 21.8522727,
                "end_time": 22.1318182,
                "pitch": 52,
                "velocity": 40,
                "duration": 0.2795455,
                "tempo": 120.0
            },
            {
                "start_time": 22.1477273,
                "end_time": 22.5068182,
                "pitch": 60,
                "velocity": 40,
                "duration": 0.3590909,
                "tempo": 120.0
            },
            {
                "start_time": 22.5227273,
                "end_time": 22.8545455,
                "pitch": 60,
                "velocity": 40,
                "duration": 0.3318182,
                "tempo": 120.0
            },
            {
                "start_time": 22.8727273,
                "end_time": 22.9568182,
                "pitch": 60,
                "velocity": 40,
                "duration": 0.0840909,
                "tempo": 120.0
            },
            {
                "start_time": 22.9909091,
                "end_time": 23.1977273,
                "pitch": 62,
                "velocity": 40,
                "duration": 0.2068182,
                "tempo": 120.0
            },
            {
                "start_time": 23.2136364,
                "end_time": 23.4227273,
                "pitch": 60,
                "velocity": 40,
                "duration": 0.2090909,
                "tempo": 120.0
            },
            {
                "start_time": 23.4386364,
                "end_time": 23.6454545,
                "pitch": 60,
                "velocity": 40,
                "duration": 0.2068182,
                "tempo": 120.0
            },
            {
                "start_time": 23.6613636,
                "end_time": 23.9522727,
                "pitch": 50,
                "velocity": 40,
                "duration": 0.2909091,
                "tempo": 120.0
            },
            {
                "start_time": 23.9704545,
                "end_time": 24.3363636,
                "pitch": 62,
                "velocity": 40,
                "duration": 0.3659091,
                "tempo": 120.0
            },
            {
                "start_time": 24.3522727,
                "end_time": 24.6681818,
                "pitch": 62,
                "velocity": 40,
                "duration": 0.3159091,
                "tempo": 120.0
            },
            {
                "start_time": 24.6840909,
                "end_time": 24.7863636,
                "pitch": 62,
                "velocity": 40,
                "duration": 0.1022727,
                "tempo": 120.0
            },
            {
                "start_time": 24.8045455,
                "end_time": 25.0272727,
                "pitch": 60,
                "velocity": 40,
                "duration": 0.2227273,
                "tempo": 120.0
            },
            {
                "start_time": 25.0431818,
                "end_time": 25.2568182,
                "pitch": 62,
                "velocity": 40,
                "duration": 0.2136364,
                "tempo": 120.0
            },
            {
                "start_time": 25.2727273,
                "end_time": 25.4704545,
                "pitch": 62,
                "velocity": 40,
                "duration": 0.1977273,
                "tempo": 120.0
            },
            {
                "start_time": 25.4863636,
                "end_time": 25.7795455,
                "pitch": 52,
                "velocity": 40,
                "duration": 0.2931818,
                "tempo": 120.0
            },
            {
                "start_time": 25.7954545,
                "end_time": 26.1477273,
                "pitch": 60,
                "velocity": 40,
                "duration": 0.3522727,
                "tempo": 120.0
            },
            {
                "start_time": 26.1818182,
                "end_time": 26.5045455,
                "pitch": 60,
                "velocity": 40,
                "duration": 0.3227273,
                "tempo": 120.0
            },
            {
                "start_time": 26.5204545,
                "end_time": 26.6181818,
                "pitch": 60,
                "velocity": 40,
                "duration": 0.0977273,
                "tempo": 120.0
            },
            {
                "start_time": 26.6340909,
                "end_time": 26.8477273,
                "pitch": 62,
                "velocity": 40,
                "duration": 0.2136364,
                "tempo": 120.0
            },
            {
                "start_time": 26.8636364,
                "end_time": 27.0636364,
                "pitch": 64,
                "velocity": 40,
                "duration": 0.2,
                "tempo": 120.0
            },
            {
                "start_time": 27.0818182,
                "end_time": 27.2977273,
                "pitch": 62,
                "velocity": 40,
                "duration": 0.2159091,
                "tempo": 120.0
            },
            {
                "start_time": 27.3159091,
                "end_time": 28.2181818,
                "pitch": 60,
                "velocity": 40,
                "duration": 0.9022727,
                "tempo": 120.0
            },
            {
                "start_time": 28.2340909,
                "end_time": 28.6613636,
                "pitch": 59,
                "velocity": 40,
                "duration": 0.4272727,
                "tempo": 120.0
            },
            {
                "start_time": 28.6772727,
                "end_time": 29.1295455,
                "pitch": 53,
                "velocity": 40,
                "duration": 0.4522727,
                "tempo": 120.0
            }
        ]
    }
}