{
    "mood": "happy",
    "instruments": {
        "Clarinet": [
            {
                "start_time": 0.0772727,
                "end_time": 0.6545455,
                "pitch": 78,
                "velocity": 40,
                "duration": 0.5772727,
                "tempo": 120.0
            },
            {
                "start_time": 0.6704545,
                "end_time": 1.0545455,
                "pitch": 76,
                "velocity": 40,
                "duration": 0.3840909,
                "tempo": 120.0
            },
            {
                "start_time": 1.0704545,
                "end_time": 1.2545455,
                "pitch": 76,
                "velocity": 40,
                "duration": 0.1840909,
                "tempo": 120.0
            },
            {
                "start_time": 1.2727273,
                "end_time": 1.6545455,
                "pitch": 78,
                "velocity": 40,
                "duration": 0.3818182,
                "tempo": 120.0
            },
            {
                "start_time": 1.6727273,
                "end_time": 1.8568182,
                "pitch": 79,
                "velocity": 40,
                "duration": 0.1840909,
                "tempo": 120.0
            },
            {
                "start_time": 1.8727273,
                "end_time": 2.2568182,
                "pitch": 78,
                "velocity": 40,
                "duration": 0.3840909,
                "tempo": 120.0
            },
            {
                "start_time": 2.275,
                "end_time": 2.6590909,
                "pitch": 76,
                "velocity": 40,
                "duration": 0.3840909,
                "tempo": 120.0
            },
            {
                "start_time": 2.675,
                "end_time": 2.8613636,
                "pitch": 78,
                "velocity": 40,
                "duration": 0.1863636,
                "tempo": 120.0
            },
            {
                "start_time": 2.8772727,
                "end_time": 3.2,
                "pitch": 74,
                "velocity": 40,
                "duration": 0.3227273,
                "tempo": 120.0
            },
            {
                "start_time": 3.2,
                "end_time": 3.2613636,
                "pitch": 74,
                "velocity": 40,
                "duration": 0.0613636,
                "tempo": 120.0
            },
            {
                "start_time": 3.2772727,
                "end_time": 7.0704545,
                "pitch": 70,
                "velocity": 40,
                "duration": 3.7931818,
                "tempo": 120.0
            },
            {
                "start_time": 7.0886364,
                "end_time": 7.4727273,
                "pitch": 76,
                "velocity": 40,
                "duration": 0.3840909,
                "tempo": 120.0
            },
            {
                "start_time": 7.4886364,
                "end_time": 7.675,
                "pitch": 76,
                "velocity": 40,
                "duration": 0.1863636,
                "tempo": 120.0
            },
            {
                "start_time": 7.6909091,
                "end_time": 8.0772727,
                "pitch": 78,
                "velocity": 40,
                "duration": 0.3863636,
                "tempo": 120.0
            },
            {
                "start_time": 8.0931818,
                "end_time": 8.2772727,
                "pitch": 81,
                "velocity": 40,
                "duration": 0.1840909,
                "tempo": 120.0
            },
            {
                "start_time": 8.2931818,
                "end_time": 8.6772727,
                "pitch": 79,
                "velocity": 40,
                "duration": 0.3840909,
                "tempo": 120.0
            },
            {
                "start_time": 8.6954545,
                "end_time": 9.0818182,
                "pitch": 78,
                "velocity": 40,
                "duration": 0.3863636,
                "tempo": 120.0
            },
            {
                "start_time": 9.0977273,
                "end_time": 9.2818182,
                "pitch": 79,
                "velocity": 40,
                "duration": 0.1840909,
                "tempo": 120.0
            },
            {
                "start_time": 9.3,
                "end_time": 9.6840909,
                "pitch": 76,
                "velocity": 40,
                "duration": 0.3840909,
                "tempo": 120.0
            },
            {
                "start_time": 9.7022727,
                "end_time": 13.3045455,
                "pitch": 70,
                "velocity": 40,
                "duration": 3.6022727,
                "tempo": 120.0
            },
            {
                "start_time": 13.3204545,
                "end_time": 13.5045455,
                "pitch": 67,
                "velocity": 40,
                "duration": 0.1840909,
                "tempo": 120.0
            },
            {
                "start_time": 13.5227273,
                "end_time": 13.7068182,
                "pitch": 69,
                "velocity": 40,
                "duration": 0.1840909,
                "tempo": 120.0
            },
            {
                "start_time": 13.9227273,
                "end_time": 14.5090909,
                "pitch": 74,
                "velocity": 40,
                "duration": 0.5863636,
                "tempo": 120.0
            },
            {
                "start_time": 14.525,
                "end_time": 14.7113636,
                "pitch": 67,
                "velocity": 40,
                "duration": 0.1863636,
                "tempo": 120.0
            },
            {
                "start_time": 14.7272727,
                "end_time": 14.9113636,
                "pitch": 69,
                "velocity": 40,
                "duration": 0.1840909,
                "tempo": 120.0
            },
            {
                "start_time": 15.1295455,
                "end_time": 15.3136364,
                "pitch": 71,
                "velocity": 40,
                "duration": 0.1840909,
                "tempo": 120.0
            },
            {
                "start_time": 15.5318182,
                "end_time": 15.9159091,
                "pitch": 81,
                "velocity": 40,
                "duration": 0.3840909,
                "tempo": 120.0
            },
            {
                "start_time": 15.9340909,
                "end_time": 16.1181818,
                "pitch": 79,
                "velocity": 40,
                "duration": 0.1840909,
                "tempo": 120.0
            },
            {
                "start_time": 16.1340909,
                "end_time": 16.5204545,
                "pitch": 67,
                "velocity": 40,
                "duration": 0.3863636,
                "tempo": 120.0
            },
            {
                "start_time": 16.5363636,
                "end_time": 16.9204545,
                "pitch": 66,
                "velocity": 40,
                "duration": 0.3840909,
                "tempo": 120.0
            },
            {
                "start_time": 16.9363636,
                "end_time": 17.3204545,
                "pitch": 67,
                "velocity": 40,
                "duration": 0.3840909,
                "tempo": 120.0
            },
            {
                "start_time": 17.3363636,
                "end_time": 17.7227273,
                "pitch": 69,
                "velocity": 40,
                "duration": 0.3863636,
                "tempo": 120.0
            },
            {
                "start_time": 17.7386364,
                "end_time": 18.1227273,
                "pitch": 71,
                "velocity": 40,
                "duration": 0.3840909,
                "tempo": 120.0
            },
            {
                "start_time": 18.1386364,
                "end_time": 18.525,
                "pitch": 76,
                "velocity": 40,
                "duration": 0.3863636,
                "tempo": 120.0
            },
            {
                "start_time": 18.5409091,
                "end_time": 18.925,
                "pitch": 74,
                "velocity": 40,
                "duration": 0.3840909,
                "tempo": 120.0
            },
            {
                "start_time": 18.9409091,
                "end_time": 19.325,
                "pitch": 73,
                "velocity": 40,
                "duration": 0.3840909,
                "tempo": 120.0
            },
            {
                "start_time": 19.3409091,
                "end_time": 19.9272727,
                "pitch": 78,
                "velocity": 40,
                "duration": 0.5863636,
                "tempo": 120.0
            },
            {
                "start_time": 19.9431818,
                "end_time": 20.3295455,
                "pitch": 76,
                "velocity": 40,
                "duration": 0.3863636,
                "tempo": 120.0
            },
            {
                "start_time": 20.3454545,
                "end_time": 20.5295455,
                "pitch": 76,
                "velocity": 40,
                "duration": 0.1840909,
                "tempo": 120.0
            },
            {
                "start_time": 20.5477273,
                "end_time": 20.9295455,
                "pitch": 78,
                "velocity": 40,
                "duration": 0.3818182,
                "tempo": 120.0
            },
            {
                "start_time": 20.9477273,
                "end_time": 21.1295455,
                "pitch": 79,
                "velocity": 40,
                "duration": 0.1818182,
                "tempo": 120.0
            },
            {
                "start_time": 21.1477273,
                "end_time": 21.5318182,
                "pitch": 78,
                "velocity": 40,
                "duration": 0.3840909,
                "tempo": 120.0
            },
            {
                "start_time": 21.5477273,
                "end_time": 21.9318182,
                "pitch": 76,
                "velocity": 40,
                "duration": 0.3840909,
                "tempo": 120.0
            },
            {
                "start_time": 21.95,
                "end_time": 22.1340909,
                "pitch": 78,
                "velocity": 40,
                "duration": 0.1840909,
                "tempo": 120.0
            },
            {
                "start_time": 22.15,
                "end_time": 22.5363636,
                "pitch": 74,
                "velocity": 40,
                "duration": 0.3863636,
                "tempo": 120.0
            },
            {
                "start_time": 22.5522727,
                "end_time": 26.3454545,
                "pitch": 70,
                "velocity": 40,
                "duration": 3.7931818,
                "tempo": 120.0
            },
            {
                "start_time": 26.3613636,
                "end_time": 26.7454545,
                "pitch": 76,
                "velocity": 40,
                "duration": 0.3840909,
                "tempo": 120.0
            },
            {
                "start_time": 26.7636364,
                "end_time": 26.9454545,
                "pitch": 76,
                "velocity": 40,
                "duration": 0.1818182,
                "tempo": 120.0
            },
            {
                "start_time": 26.9636364,
                "end_time": 27.3454545,
                "pitch": 78,
                "velocity": 40,
                "duration": 0.3818182,
                "tempo": 120.0
            },
            {
                "start_time": 27.3636364,
                "end_time": 27.5477273,
                "pitch": 81,
                "velocity": 40,
                "duration": 0.1840909,
                "tempo": 120.0
            },
            {
                "start_time": 27.5636364,
                "end_time": 27.95,
                "pitch": 79,
                "velocity": 40,
                "duration": 0.3863636,
                "tempo": 120.0
            },
            {
                "start_time": 27.9659091,
                "end_time": 28.35,
                "pitch": 78,
                "velocity": 40,
                "duration": 0.3840909,
                "tempo": 120.0
            },
            {
                "start_time": 28.3681818,
                "end_time": 28.5522727,
                "pitch": 79,
                "velocity": 40,
                "duration": 0.1840909,
                "tempo": 120.0
            },
            {
                "start_time": 28.5681818,
                "end_time": 28.9522727,
                "pitch": 76,
                "velocity": 40,
                "duration": 0.3840909,
                "tempo": 120.0
            },
            {
                "start_time": 28.9681818,
                "end_time": 32.5590909,
                "pitch": 70,
                "velocity": 40,
                "duration": 3.5909091,
                "tempo": 120.0
            },
            {
                "start_time": 32.5772727,
                "end_time": 32.7590909,
                "pitch": 67,
                "velocity": 40,
                "duration": 0.1818182,
                "tempo": 120.0
            },
            {
                "start_time": 32.7772727,
                "end_time": 32.9590909,
                "pitch": 69,
                "velocity": 40,
                "duration": 0.1818182,
                "tempo": 120.0
            },
            {
                "start_time": 33.1772727,
                "end_time": 33.7613636,
                "pitch": 74,
                "velocity": 40,
                "duration": 0.5840909,
                "tempo": 120.0
            },
            {
                "start_time": 33.7795455,
                "end_time": 33.9613636,
                "pitch": 67,
                "velocity": 40,
                "duration": 0.1818182,
                "tempo": 120.0
            },
            {
                "start_time": 33.9795455,
                "end_time": 34.1613636,
                "pitch": 69,
                "velocity": 40,
                "duration": 0.1818182,
                "tempo": 120.0
            },
            {
                "start_time": 34.3795455,
                "end_time": 34.5613636,
                "pitch": 71,
                "velocity": 40,
                "duration": 0.1818182,
                "tempo": 120.0
            },
            {
                "start_time": 34.7795455,
                "end_time": 35.1636364,
                "pitch": 81,
                "velocity": 40,
                "duration": 0.3840909,
                "tempo": 120.0
            },
            {
                "start_time": 35.1818182,
                "end_time": 35.3659091,
                "pitch": 79,
                "velocity": 40,
                "duration": 0.1840909,
                "tempo": 120.0
            },
            {
                "start_time": 35.3818182,
                "end_time": 35.7659091,
                "pitch": 67,
                "velocity": 40,
                "duration": 0.3840909,
                "tempo": 120.0
            },
            {
                "start_time": 35.7818182,
                "end_time": 36.1659091,
                "pitch": 66,
                "velocity": 40,
                "duration": 0.3840909,
                "tempo": 120.0
            },
            {
                "start_time": 36.1818182,
                "end_time": 36.5659091,
                "pitch": 67,
                "velocity": 40,
                "duration": 0.3840909,
                "tempo": 120.0
            },
            {
                "start_time": 36.5818182,
                "end_time": 36.9659091,
                "pitch": 69,
                "velocity": 40,
                "duration": 0.3840909,
                "tempo": 120.0
            },
            {
                "start_time": 36.9818182,
                "end_time": 37.3681818,
                "pitch": 71,
                "velocity": 40,
                "duration": 0.3863636,
                "tempo": 120.0
            },
            {
                "start_time": 37.3840909,
                "end_time": 37.7681818,
                "pitch": 76,
                "velocity": 40,
                "duration": 0.3840909,
                "tempo": 120.0
            },
            {
                "start_time": 37.7840909,
                "end_time": 38.1681818,
                "pitch": 74,
                "velocity": 40,
                "duration": 0.3840909,
                "tempo": 120.0
            },
            {
                "start_time": 38.1840909,
                "end_time": 38.5681818,
                "pitch": 73,
                "velocity": 40,
                "duration": 0.3840909,
                "tempo": 120.0
            },
            {
                "start_time": 38.5840909,
                "end_time": 40.1704545,
                "pitch": 79,
                "velocity": 40,
                "duration": 1.5863636,
                "tempo": 120.0
            },
            {
                "start_time": 40.1863636,
                "end_time": 40.7704545,
                "pitch": 81,
                "velocity": 40,
                "duration": 0.5840909,
                "tempo": 120.0
            },
            {
                "start_time": 40.7863636,
                "end_time": 41.3727273,
                "pitch": 79,
                "velocity": 40,
                "duration": 0.5863636,
                "tempo": 120.0
            },
            {
                "start_time": 41.3886364,
                "end_time": 41.7727273,
                "pitch": 79,
                "velocity": 40,
                "duration": 0.3840909,
                "tempo": 120.0
            },
            {
                "start_time": 41.7886364,
                "end_time": 43.375,
                "pitch": 78,
                "velocity": 40,
                "duration": 1.5863636,
                "tempo": 120.0
            },
            {
                "start_time": 43.3931818,
                "end_time": 43.975,
                "pitch": 79,
                "velocity": 40,
                "duration": 0.5818182,
                "tempo": 120.0
            },
            {
                "start_time": 43.9931818,
                "end_time": 44.575,
                "pitch": 78,
                "velocity": 40,
                "duration": 0.5818182,
                "tempo": 120.0
            },
            {
                "start_time": 44.5931818,
                "end_time": 44.975,
                "pitch": 78,
                "velocity": 40,
                "duration": 0.3818182,
                "tempo": 120.0
            },
            {
                "start_time": 44.9931818,
                "end_time": 46.5795455,
                "pitch": 79,
                "velocity": 40,
                "duration": 1.5863636,
                "tempo": 120.0
            },
            {
                "start_time": 46.5954545,
                "end_time": 47.1795455,
                "pitch": 81,
                "velocity": 40,
                "duration": 0.5840909,
                "tempo": 120.0
            },
            {
                "start_time": 47.1977273,
                "end_time": 47.7818182,
                "pitch": 79,
                "velocity": 40,
                "duration": 0.5840909,
                "tempo": 120.0
            },
            {
                "start_time": 47.7977273,
                "end_time": 48.1818182,
                "pitch": 79,
                "velocity": 40,
                "duration": 0.3840909,
                "tempo": 120.0
            },
            {
                "start_time": 48.1977273,
                "end_time": 49.7840909,
                "pitch": 79,
                "velocity": 40,
                "duration": 1.5863636,
                "tempo": 120.0
            },
            {
                "start_time": 49.8,
                "end_time": 50.5840909,
                "pitch": 81,
                "velocity": 40,
                "duration": 0.7840909,
                "tempo": 120.0
            },
            {
                "start_time": 50.6,
                "end_time": 51.3863636,
                "pitch": 79,
                "velocity": 40,
                "duration": 0.7863636,
                "tempo": 120.0
            },
            {
                "start_time": 51.4022727,
                "end_time": 51.9863636,
                "pitch": 78,
                "velocity": 40,
                "duration": 0.5840909,
                "tempo": 120.0
            },
            {
                "start_time": 52.0022727,
                "end_time": 52.3863636,
                "pitch": 76,
                "velocity": 40,
                "duration": 0.3840909,
                "tempo": 120.0
            },
            {
                "start_time": 52.4022727,
                "end_time": 52.5863636,
                "pitch": 76,
                "velocity": 40,
                "duration": 0.1840909,
                "tempo": 120.0
            },
            {
                "start_time": 52.6022727,
                "end_time": 52.9863636,
                "pitch": 78,
                "velocity": 40,
                "duration": 0.3840909,
                "tempo": 120.0
            },
            {
                "start_time": 53.0045455,
                "end_time": 53.1886364,
                "pitch": 79,
                "velocity": 40,
                "duration": 0.1840909,
                "tempo": 120.0
            },
            {
                "start_time": 53.2045455,
                "end_time": 53.5886364,
                "pitch": 78,
                "velocity": 40,
                "duration": 0.3840909,
                "tempo": 120.0
            },
            {
                "start_time": 53.6068182,
                "end_time": 53.9886364,
                "pitch": 76,
                "velocity": 40,
                "duration": 0.3818182,
                "tempo": 120.0
            },
            {
                "start_time": 54.0068182,
                "end_time": 54.1886364,
                "pitch": 78,
                "velocity": 40,
                "duration": 0.1818182,
                "tempo": 120.0
            },
            {
                "start_time": 54.2068182,
                "end_time": 54.5295455,
                "pitch": 74,
                "velocity": 40,
                "duration": 0.3227273,
                "tempo": 120.0
            }
        ],
        "Acoustic Bass": [
            {
                "start_time": 0.0090909,
                "end_time": 0.1931818,
                "pitch": 50,
                "velocity": 51,
                "duration": 0.1840909,
                "tempo": 120.0
            },
            {
                "start_time": 0.2090909,
                "end_time": 0.3931818,
                "pitch": 62,
                "velocity": 51,
                "duration": 0.1840909,
                "tempo": 120.0
            },
            {
                "start_time": 0.4090909,
                "end_time": 0.5909091,
                "pitch": 50,
                "velocity": 51,
                "duration": 0.1818182,
                "tempo": 120.0
            },
            {
                "start_time": 0.6068182,
                "end_time": 0.7863636,
                "pitch": 62,
                "velocity": 51,
                "duration": 0.1795455,
                "tempo": 120.0
            },
            {
                "start_time": 0.8022727,
                "end_time": 0.9863636,
                "pitch": 50,
                "velocity": 51,
                "duration": 0.1840909,
                "tempo": 120.0
            },
            {
                "start_time": 1.0045455,
                "end_time": 1.1886364,
                "pitch": 62,
                "velocity": 51,
                "duration": 0.1840909,
                "tempo": 120.0
            },
            {
                "start_time": 1.2045455,
                "end_time": 1.3886364,
                "pitch": 50,
                "velocity": 51,
                "duration": 0.1840909,
                "tempo": 120.0
            },
            {
                "start_time": 1.4045455,
                "end_time": 1.5886364,
                "pitch": 62,
                "velocity": 51,
                "duration": 0.1840909,
                "tempo": 120.0
            },
            {
                "start_time": 1.6045455,
                "end_time": 1.7886364,
                "pitch": 50,
                "velocity": 51,
                "duration": 0.1840909,
                "tempo": 120.0
            },
            {
                "start_time": 1.8068182,
                "end_time": 1.9909091,
                "pitch": 62,
                "velocity": 51,
                "duration": 0.1840909,
                "tempo": 120.0
            },
            {
                "start_time": 2.0068182,
                "end_time": 2.1909091,
                "pitch": 50,
                "velocity": 51,
                "duration": 0.1840909,
                "tempo": 120.0
            },
            {
                "start_time": 2.2068182,
                "end_time": 2.3909091,
                "pitch": 62,
                "velocity": 51,
                "duration": 0.1840909,
                "tempo": 120.0
            },
            {
                "start_time": 2.4068182,
                "end_time": 2.5931818,
                "pitch": 50,
                "velocity": 51,
                "duration": 0.1863636,
                "tempo": 120.0
            },
            {
                "start_time": 2.6090909,
                "end_time": 2.7931818,
                "pitch": 62,
                "velocity": 51,
                "duration": 0.1840909,
                "tempo": 120.0
            },
            {
                "start_time": 2.8113636,
                "end_time": 2.9931818,
                "pitch": 50,
                "velocity": 51,
                "duration": 0.1818182,
                "tempo": 120.0
            },
            {
                "start_time": 3.0113636,
                "end_time": 3.1931818,
                "pitch": 62,
                "velocity": 51,
                "duration": 0.1818182,
                "tempo": 120.0
            },
            {
                "start_time": 3.2113636,
                "end_time": 3.7931818,
                "pitch": 46,
                "velocity": 51,
                "duration": 0.5818182,
                "tempo": 120.0
            },
            {
                "start_time": 3.8113636,
                "end_time": 4.3931818,
                "pitch": 46,
                "velocity": 51,
                "duration": 0.5818182,
                "tempo": 120.0
            },
            {
                "start_time": 4.4113636,
                "end_time": 4.9954545,
                "pitch": 46,
                "velocity": 51,
                "duration": 0.5840909,
                "tempo": 120.0
            },
            {
                "start_time": 5.0136364,
                "end_time": 5.6,
                "pitch": 46,
                "velocity": 51,
                "duration": 0.5863636,
                "tempo": 120.0
            },
            {
                "start_time": 5.6159091,
                "end_time": 6.0022727,
                "pitch": 46,
                "velocity": 51,
                "duration": 0.3863636,
                "tempo": 120.0
            },
            {
                "start_time": 6.0181818,
                "end_time": 6.4022727,
                "pitch": 46,
                "velocity": 51,
                "duration": 0.3840909,
                "tempo": 120.0
            },
            {
                "start_time": 6.4181818,
                "end_time": 6.6022727,
                "pitch": 50,
                "velocity": 51,
                "duration": 0.1840909,
                "tempo": 120.0
            },
            {
                "start_time": 6.6204545,
                "end_time": 6.8045455,
                "pitch": 62,
                "velocity": 51,
                "duration": 0.1840909,
                "tempo": 120.0
            },
            {
                "start_time": 6.8204545,
                "end_time": 7.0045455,
                "pitch": 50,
                "velocity": 51,
                "duration": 0.1840909,
                "tempo": 120.0
            },
            {
                "start_time": 7.0204545,
                "end_time": 7.2045455,
                "pitch": 62,
                "velocity": 51,
                "duration": 0.1840909,
                "tempo": 120.0
            },
            {
                "start_time": 7.2204545,
                "end_time": 7.4045455,
                "pitch": 50,
                "velocity": 51,
                "duration": 0.1840909,
                "tempo": 120.0
            },
            {
                "start_time": 7.4227273,
                "end_time": 7.6068182,
                "pitch": 62,
                "velocity": 51,
                "duration": 0.1840909,
                "tempo": 120.0
            },
            {
                "start_time": 7.6227273,
                "end_time": 7.8090909,
                "pitch": 50,
                "velocity": 51,
                "duration": 0.1863636,
                "tempo": 120.0
            },
            {
                "start_time": 7.825,
                "end_time": 8.0090909,
                "pitch": 62,
                "velocity": 51,
                "duration": 0.1840909,
                "tempo": 120.0
            },
            {
                "start_time": 8.0272727,
                "end_time": 8.2090909,
                "pitch": 50,
                "velocity": 51,
                "duration": 0.1818182,
                "tempo": 120.0
            },
            {
                "start_time": 8.2272727,
                "end_time": 8.4090909,
                "pitch": 62,
                "velocity": 51,
                "duration": 0.1818182,
                "tempo": 120.0
            },
            {
                "start_time": 8.4272727,
                "end_time": 8.6113636,
                "pitch": 50,
                "velocity": 51,
                "duration": 0.1840909,
                "tempo": 120.0
            },
            {
                "start_time": 8.6272727,
                "end_time": 8.8113636,
                "pitch": 62,
                "velocity": 51,
                "duration": 0.1840909,
                "tempo": 120.0
            },
            {
                "start_time": 8.8295455,
                "end_time": 9.0136364,
                "pitch": 50,
                "velocity": 51,
                "duration": 0.1840909,
                "tempo": 120.0
            },
            {
                "start_time": 9.0295455,
                "end_time": 9.2159091,
                "pitch": 62,
                "velocity": 51,
                "duration": 0.1863636,
                "tempo": 120.0
            },
            {
                "start_time": 9.2318182,
                "end_time": 9.4159091,
                "pitch": 50,
                "velocity": 51,
                "duration": 0.1840909,
                "tempo": 120.0
            },
            {
                "start_time": 9.4340909,
                "end_time": 9.6181818,
                "pitch": 62,
                "velocity": 51,
                "duration": 0.1840909,
                "tempo": 120.0
            },
            {
                "start_time": 9.6340909,
                "end_time": 10.2181818,
                "pitch": 46,
                "velocity": 51,
                "duration": 0.5840909,
                "tempo": 120.0
            },
            {
                "start_time": 10.2363636,
                "end_time": 10.8227273,
                "pitch": 46,
                "velocity": 51,
                "duration": 0.5863636,
                "tempo": 120.0
            },
            {
                "start_time": 10.8409091,
                "end_time": 11.4272727,
                "pitch": 46,
                "velocity": 51,
                "duration": 0.5863636,
                "tempo": 120.0
            },
            {
                "start_time": 11.4431818,
                "end_time": 12.0295455,
                "pitch": 46,
                "velocity": 51,
                "duration": 0.5863636,
                "tempo": 120.0
            },
            {
                "start_time": 12.0454545,
                "end_time": 12.4318182,
                "pitch": 46,
                "velocity": 51,
                "duration": 0.3863636,
                "tempo": 120.0
            },
            {
                "start_time": 12.4477273,
                "end_time": 12.8340909,
                "pitch": 46,
                "velocity": 51,
                "duration": 0.3863636,
                "tempo": 120.0
            },
            {
                "start_time": 12.85,
                "end_time": 13.0340909,
                "pitch": 45,
                "velocity": 51,
                "duration": 0.1840909,
                "tempo": 120.0
            },
            {
                "start_time": 13.0522727,
                "end_time": 13.2363636,
                "pitch": 57,
                "velocity": 51,
                "duration": 0.1840909,
                "tempo": 120.0
            },
            {
                "start_time": 13.2522727,
                "end_time": 13.4386364,
                "pitch": 45,
                "velocity": 51,
                "duration": 0.1863636,
                "tempo": 120.0
            },
            {
                "start_time": 13.4545455,
                "end_time": 13.6386364,
                "pitch": 57,
                "velocity": 51,
                "duration": 0.1840909,
                "tempo": 120.0
            },
            {
                "start_time": 13.6568182,
                "end_time": 13.8386364,
                "pitch": 45,
                "velocity": 51,
                "duration": 0.1818182,
                "tempo": 120.0
            },
            {
                "start_time": 13.8568182,
                "end_time": 14.0386364,
                "pitch": 57,
                "velocity": 51,
                "duration": 0.1818182,
                "tempo": 120.0
            },
            {
                "start_time": 14.0568182,
                "end_time": 14.2409091,
                "pitch": 45,
                "velocity": 51,
                "duration": 0.1840909,
                "tempo": 120.0
            },
            {
                "start_time": 14.2568182,
                "end_time": 14.4409091,
                "pitch": 57,
                "velocity": 51,
                "duration": 0.1840909,
                "tempo": 120.0
            },
            {
                "start_time": 14.4590909,
                "end_time": 14.6431818,
                "pitch": 47,
                "velocity": 51,
                "duration": 0.1840909,
                "tempo": 120.0
            },
            {
                "start_time": 14.6590909,
                "end_time": 14.8454545,
                "pitch": 59,
                "velocity": 51,
                "duration": 0.1863636,
                "tempo": 120.0
            },
            {
                "start_time": 14.8613636,
                "end_time": 15.0454545,
                "pitch": 47,
                "velocity": 51,
                "duration": 0.1840909,
                "tempo": 120.0
            },
            {
                "start_time": 15.0636364,
                "end_time": 15.2477273,
                "pitch": 59,
                "velocity": 51,
                "duration": 0.1840909,
                "tempo": 120.0
            },
            {
                "start_time": 15.2636364,
                "end_time": 15.4477273,
                "pitch": 47,
                "velocity": 51,
                "duration": 0.1840909,
                "tempo": 120.0
            },
            {
                "start_time": 15.4659091,
                "end_time": 15.65,
                "pitch": 59,
                "velocity": 51,
                "duration": 0.1840909,
                "tempo": 120.0
            },
            {
                "start_time": 15.6659091,
                "end_time": 15.85,
                "pitch": 47,
                "velocity": 51,
                "duration": 0.1840909,
                "tempo": 120.0
            },
            {
                "start_time": 15.8659091,
                "end_time": 16.05,
                "pitch": 59,
                "velocity": 51,
                "duration": 0.1840909,
                "tempo": 120.0
            },
            {
                "start_time": 16.0659091,
                "end_time": 16.2522727,
                "pitch": 43,
                "velocity": 51,
                "duration": 0.1863636,
                "tempo": 120.0
            },
            {
                "start_time": 16.2681818,
                "end_time": 16.4522727,
                "pitch": 55,
                "velocity": 51,
                "duration": 0.1840909,
                "tempo": 120.0
            },
            {
                "start_time": 16.4704545,
                "end_time": 16.6522727,
                "pitch": 43,
                "velocity": 51,
                "duration": 0.1818182,
                "tempo": 120.0
            },
            {
                "start_time": 16.6704545,
                "end_time": 16.8522727,
                "pitch": 55,
                "velocity": 51,
                "duration": 0.1818182,
                "tempo": 120.0
            },
            {
                "start_time": 16.8704545,
                "end_time": 17.0522727,
                "pitch": 43,
                "velocity": 51,
                "duration": 0.1818182,
                "tempo": 120.0
            },
            {
                "start_time": 17.0704545,
                "end_time": 17.2522727,
                "pitch": 55,
                "velocity": 51,
                "duration": 0.1818182,
                "tempo": 120.0
            },
            {
                "start_time": 17.2704545,
                "end_time": 17.4545455,
                "pitch": 43,
                "velocity": 51,
                "duration": 0.1840909,
                "tempo": 120.0
            },
            {
                "start_time": 17.4704545,
                "end_time": 17.6545455,
                "pitch": 55,
                "velocity": 51,
                "duration": 0.1840909,
                "tempo": 120.0
            },
            {
                "start_time": 17.6727273,
                "end_time": 17.8545455,
                "pitch": 45,
                "velocity": 51,
                "duration": 0.1818182,
                "tempo": 120.0
            },
            {
                "start_time": 17.8727273,
                "end_time": 18.0545455,
                "pitch": 57,
                "velocity": 51,
                "duration": 0.1818182,
                "tempo": 120.0
            },
            {
                "start_time": 18.0727273,
                "end_time": 18.2568182,
                "pitch": 45,
                "velocity": 51,
                "duration": 0.1840909,
                "tempo": 120.0
            },
            {
                "start_time": 18.2727273,
                "end_time": 18.4590909,
                "pitch": 57,
                "velocity": 51,
                "duration": 0.1863636,
                "tempo": 120.0
            },
            {
                "start_time": 18.475,
                "end_time": 18.6590909,
                "pitch": 45,
                "velocity": 51,
                "duration": 0.1840909,
                "tempo": 120.0
            },
            {
                "start_time": 18.675,
                "end_time": 18.8590909,
                "pitch": 57,
                "velocity": 51,
                "duration": 0.1840909,
                "tempo": 120.0
            },
            {
                "start_time": 18.875,
                "end_time": 19.0590909,
                "pitch": 45,
                "velocity": 51,
                "duration": 0.1840909,
                "tempo": 120.0
            },
            {
                "start_time": 19.075,
                "end_time": 19.2590909,
                "pitch": 57,
                "velocity": 51,
                "duration": 0.1840909,
                "tempo": 120.0
            },
            {
                "start_time": 19.275,
                "end_time": 19.4590909,
                "pitch": 50,
                "velocity": 51,
                "duration": 0.1840909,
                "tempo": 120.0
            },
            {
                "start_time": 19.475,
                "end_time": 19.6613636,
                "pitch": 62,
                "velocity": 51,
                "duration": 0.1863636,
                "tempo": 120.0
            },
            {
                "start_time": 19.6772727,
                "end_time": 19.8613636,
                "pitch": 50,
                "velocity": 51,
                "duration": 0.1840909,
                "tempo": 120.0
            },
            {
                "start_time": 19.8772727,
                "end_time": 20.0613636,
                "pitch": 62,
                "velocity": 51,
                "duration": 0.1840909,
                "tempo": 120.0
            },
            {
                "start_time": 20.0772727,
                "end_time": 20.2613636,
                "pitch": 50,
                "velocity": 51,
                "duration": 0.1840909,
                "tempo": 120.0
            },
            {
                "start_time": 20.2795455,
                "end_time": 20.4636364,
                "pitch": 62,
                "velocity": 51,
                "duration": 0.1840909,
                "tempo": 120.0
            },
            {
                "start_time": 20.4795455,
                "end_time": 20.6636364,
                "pitch": 50,
                "velocity": 51,
                "duration": 0.1840909,
                "tempo": 120.0
            },
            {
                "start_time": 20.6795455,
                "end_time": 20.8636364,
                "pitch": 62,
                "velocity": 51,
                "duration": 0.1840909,
                "tempo": 120.0
            },
            {
                "start_time": 20.8795455,
                "end_time": 21.0636364,
                "pitch": 50,
                "velocity": 51,
                "duration": 0.1840909,
                "tempo": 120.0
            },
            {
                "start_time": 21.0795455,
                "end_time": 21.2636364,
                "pitch": 62,
                "velocity": 51,
                "duration": 0.1840909,
                "tempo": 120.0
            },
            {
                "start_time": 21.2795455,
                "end_time": 21.4636364,
                "pitch": 50,
                "velocity": 51,
                "duration": 0.1840909,
                "tempo": 120.0
            },
            {
                "start_time": 21.4818182,
                "end_time": 21.6659091,
                "pitch": 62,
                "velocity": 51,
                "duration": 0.1840909,
                "tempo": 120.0
            },
            {
                "start_time": 21.6818182,
                "end_time": 21.8659091,
                "pitch": 50,
                "velocity": 51,
                "duration": 0.1840909,
                "tempo": 120.0
            },
            {
                "start_time": 21.8818182,
                "end_time": 22.0659091,
                "pitch": 62,
                "velocity": 51,
                "duration": 0.1840909,
                "tempo": 120.0
            },
            {
                "start_time": 22.0818182,
                "end_time": 22.2681818,
                "pitch": 50,
                "velocity": 51,
                "duration": 0.1863636,
                "tempo": 120.0
            },
            {
                "start_time": 22.2840909,
                "end_time": 22.4681818,
                "pitch": 62,
                "velocity": 51,
                "duration": 0.1840909,
                "tempo": 120.0
            },
            {
                "start_time": 22.4863636,
                "end_time": 23.0681818,
                "pitch": 46,
                "velocity": 51,
                "duration": 0.5818182,
                "tempo": 120.0
            },
            {
                "start_time": 23.0863636,
                "end_time": 23.6704545,
                "pitch": 46,
                "velocity": 51,
                "duration": 0.5840909,
                "tempo": 120.0
            },
            {
                "start_time": 23.6886364,
                "end_time": 24.2727273,
                "pitch": 46,
                "velocity": 51,
                "duration": 0.5840909,
                "tempo": 120.0
            },
            {
                "start_time": 24.2886364,
                "end_time": 24.875,
                "pitch": 46,
                "velocity": 51,
                "duration": 0.5863636,
                "tempo": 120.0
            },
            {
                "start_time": 24.8909091,
                "end_time": 25.275,
                "pitch": 46,
                "velocity": 51,
                "duration": 0.3840909,
                "tempo": 120.0
            },
            {
                "start_time": 25.2909091,
                "end_time": 25.6772727,
                "pitch": 46,
                "velocity": 51,
                "duration": 0.3863636,
                "tempo": 120.0
            },
            {
                "start_time": 25.6931818,
                "end_time": 25.8772727,
                "pitch": 50,
                "velocity": 51,
                "duration": 0.1840909,
                "tempo": 120.0
            },
            {
                "start_time": 25.8931818,
                "end_time": 26.0772727,
                "pitch": 62,
                "velocity": 51,
                "duration": 0.1840909,
                "tempo": 120.0
            },
            {
                "start_time": 26.0931818,
                "end_time": 26.2772727,
                "pitch": 50,
                "velocity": 51,
                "duration": 0.1840909,
                "tempo": 120.0
            },
            {
                "start_time": 26.2954545,
                "end_time": 26.4795455,
                "pitch": 62,
                "velocity": 51,
                "duration": 0.1840909,
                "tempo": 120.0
            },
            {
                "start_time": 26.4954545,
                "end_time": 26.6795455,
                "pitch": 50,
                "velocity": 51,
                "duration": 0.1840909,
                "tempo": 120.0
            },
            {
                "start_time": 26.6954545,
                "end_time": 26.8795455,
                "pitch": 62,
                "velocity": 51,
                "duration": 0.1840909,
                "tempo": 120.0
            },
            {
                "start_time": 26.8954545,
                "end_time": 27.0795455,
                "pitch": 50,
                "velocity": 51,
                "duration": 0.1840909,
                "tempo": 120.0
            },
            {
                "start_time": 27.0954545,
                "end_time": 27.2795455,
                "pitch": 62,
                "velocity": 51,
                "duration": 0.1840909,
                "tempo": 120.0
            },
            {
                "start_time": 27.2954545,
                "end_time": 27.4818182,
                "pitch": 50,
                "velocity": 51,
                "duration": 0.1863636,
                "tempo": 120.0
            },
            {
                "start_time": 27.4977273,
                "end_time": 27.6818182,
                "pitch": 62,
                "velocity": 51,
                "duration": 0.1840909,
                "tempo": 120.0
            },
            {
                "start_time": 27.7,
                "end_time": 27.8818182,
                "pitch": 50,
                "velocity": 51,
                "duration": 0.1818182,
                "tempo": 120.0
            },
            {
                "start_time": 27.9,
                "end_time": 28.0818182,
                "pitch": 62,
                "velocity": 51,
                "duration": 0.1818182,
                "tempo": 120.0
            },
            {
                "start_time": 28.1,
                "end_time": 28.2840909,
                "pitch": 50,
                "velocity": 51,
                "duration": 0.1840909,
                "tempo": 120.0
            },
            {
                "start_time": 28.3,
                "end_time": 28.4840909,
                "pitch": 62,
                "velocity": 51,
                "duration": 0.1840909,
                "tempo": 120.0
            },
            {
                "start_time": 28.5022727,
                "end_time": 28.6840909,
                "pitch": 50,
                "velocity": 51,
                "duration": 0.1818182,
                "tempo": 120.0
            },
            {
                "start_time": 28.7022727,
                "end_time": 28.8840909,
                "pitch": 62,
                "velocity": 51,
                "duration": 0.1818182,
                "tempo": 120.0
            },
            {
                "start_time": 28.9022727,
                "end_time": 29.4863636,
                "pitch": 46,
                "velocity": 51,
                "duration": 0.5840909,
                "tempo": 120.0
            },
            {
                "start_time": 29.5022727,
                "end_time": 30.0886364,
                "pitch": 46,
                "velocity": 51,
                "duration": 0.5863636,
                "tempo": 120.0
            },
            {
                "start_time": 30.1045455,
                "end_time": 30.6909091,
                "pitch": 46,
                "velocity": 51,
                "duration": 0.5863636,
                "tempo": 120.0
            },
            {
                "start_time": 30.7068182,
                "end_time": 31.2909091,
                "pitch": 46,
                "velocity": 51,
                "duration": 0.5840909,
                "tempo": 120.0
            },
            {
                "start_time": 31.3068182,
                "end_time": 31.6931818,
                "pitch": 46,
                "velocity": 51,
                "duration": 0.3863636,
                "tempo": 120.0
            },
            {
                "start_time": 31.7090909,
                "end_time": 32.0931818,
                "pitch": 46,
                "velocity": 51,
                "duration": 0.3840909,
                "tempo": 120.0
            },
            {
                "start_time": 32.1090909,
                "end_time": 32.2931818,
                "pitch": 45,
                "velocity": 51,
                "duration": 0.1840909,
                "tempo": 120.0
            },
            {
                "start_time": 32.3090909,
                "end_time": 32.4931818,
                "pitch": 57,
                "velocity": 51,
                "duration": 0.1840909,
                "tempo": 120.0
            },
            {
                "start_time": 32.5090909,
                "end_time": 32.6931818,
                "pitch": 45,
                "velocity": 51,
                "duration": 0.1840909,
                "tempo": 120.0
            },
            {
                "start_time": 32.7090909,
                "end_time": 32.8931818,
                "pitch": 57,
                "velocity": 51,
                "duration": 0.1840909,
                "tempo": 120.0
            },
            {
                "start_time": 32.9090909,
                "end_time": 33.0931818,
                "pitch": 45,
                "velocity": 51,
                "duration": 0.1840909,
                "tempo": 120.0
            },
            {
                "start_time": 33.1113636,
                "end_time": 33.2954545,
                "pitch": 57,
                "velocity": 51,
                "duration": 0.1840909,
                "tempo": 120.0
            },
            {
                "start_time": 33.3113636,
                "end_time": 33.4954545,
                "pitch": 45,
                "velocity": 51,
                "duration": 0.1840909,
                "tempo": 120.0
            },
            {
                "start_time": 33.5113636,
                "end_time": 33.6954545,
                "pitch": 57,
                "velocity": 51,
                "duration": 0.1840909,
                "tempo": 120.0
            },
            {
                "start_time": 33.7113636,
                "end_time": 33.8954545,
                "pitch": 47,
                "velocity": 51,
                "duration": 0.1840909,
                "tempo": 120.0
            },
            {
                "start_time": 33.9113636,
                "end_time": 34.0954545,
                "pitch": 59,
                "velocity": 51,
                "duration": 0.1840909,
                "tempo": 120.0
            },
            {
                "start_time": 34.1113636,
                "end_time": 34.2954545,
                "pitch": 47,
                "velocity": 51,
                "duration": 0.1840909,
                "tempo": 120.0
            },
            {
                "start_time": 34.3113636,
                "end_time": 34.4954545,
                "pitch": 59,
                "velocity": 51,
                "duration": 0.1840909,
                "tempo": 120.0
            },
            {
                "start_time": 34.5113636,
                "end_time": 34.6954545,
                "pitch": 47,
                "velocity": 51,
                "duration": 0.1840909,
                "tempo": 120.0
            },
            {
                "start_time": 34.7113636,
                "end_time": 34.8954545,
                "pitch": 59,
                "velocity": 51,
                "duration": 0.1840909,
                "tempo": 120.0
            },
            {
                "start_time": 34.9113636,
                "end_time": 35.0977273,
                "pitch": 47,
                "velocity": 51,
                "duration": 0.1863636,
                "tempo": 120.0
            },
            {
                "start_time": 35.1136364,
                "end_time": 35.2977273,
                "pitch": 59,
                "velocity": 51,
                "duration": 0.1840909,
                "tempo": 120.0
            },
            {
                "start_time": 35.3159091,
                "end_time": 35.4977273,
                "pitch": 43,
                "velocity": 51,
                "duration": 0.1818182,
                "tempo": 120.0
            },
            {
                "start_time": 35.5159091,
                "end_time": 35.6977273,
                "pitch": 55,
                "velocity": 51,
                "duration": 0.1818182,
                "tempo": 120.0
            },
            {
                "start_time": 35.7159091,
                "end_time": 35.8977273,
                "pitch": 43,
                "velocity": 51,
                "duration": 0.1818182,
                "tempo": 120.0
            },
            {
                "start_time": 35.9159091,
                "end_time": 36.0977273,
                "pitch": 55,
                "velocity": 51,
                "duration": 0.1818182,
                "tempo": 120.0
            },
            {
                "start_time": 36.1159091,
                "end_time": 36.2977273,
                "pitch": 43,
                "velocity": 51,
                "duration": 0.1818182,
                "tempo": 120.0
            },
            {
                "start_time": 36.3159091,
                "end_time": 36.4977273,
                "pitch": 55,
                "velocity": 51,
                "duration": 0.1818182,
                "tempo": 120.0
            },
            {
                "start_time": 36.5159091,
                "end_time": 36.6977273,
                "pitch": 43,
                "velocity": 51,
                "duration": 0.1818182,
                "tempo": 120.0
            },
            {
                "start_time": 36.7159091,
                "end_time": 36.8977273,
                "pitch": 55,
                "velocity": 51,
                "duration": 0.1818182,
                "tempo": 120.0
            },
            {
                "start_time": 36.9159091,
                "end_time": 37.1,
                "pitch": 45,
                "velocity": 51,
                "duration": 0.1840909,
                "tempo": 120.0
            },
            {
                "start_time": 37.1159091,
                "end_time": 37.3,
                "pitch": 57,
                "velocity": 51,
                "duration": 0.1840909,
                "tempo": 120.0
            },
            {
                "start_time": 37.3181818,
                "end_time": 37.5,
                "pitch": 45,
                "velocity": 51,
                "duration": 0.1818182,
                "tempo": 120.0
            },
            {
                "start_time": 37.5181818,
                "end_time": 37.7,
                "pitch": 57,
                "velocity": 51,
                "duration": 0.1818182,
                "tempo": 120.0
            },
            {
                "start_time": 37.7181818,
                "end_time": 37.9,
                "pitch": 45,
                "velocity": 51,
                "duration": 0.1818182,
                "tempo": 120.0
            },
            {
                "start_time": 37.9181818,
                "end_time": 38.1,
                "pitch": 57,
                "velocity": 51,
                "duration": 0.1818182,
                "tempo": 120.0
            },
            {
                "start_time": 38.1181818,
                "end_time": 38.3,
                "pitch": 45,
                "velocity": 51,
                "duration": 0.1818182,
                "tempo": 120.0
            },
            {
                "start_time": 38.3181818,
                "end_time": 38.5,
                "pitch": 57,
                "velocity": 51,
                "duration": 0.1818182,
                "tempo": 120.0
            },
            {
                "start_time": 38.5181818,
                "end_time": 38.7,
                "pitch": 46,
                "velocity": 51,
                "duration": 0.1818182,
                "tempo": 120.0
            },
            {
                "start_time": 38.7181818,
                "end_time": 38.9,
                "pitch": 58,
                "velocity": 51,
                "duration": 0.1818182,
                "tempo": 120.0
            },
            {
                "start_time": 38.9181818,
                "end_time": 39.1022727,
                "pitch": 46,
                "velocity": 51,
                "duration": 0.1840909,
                "tempo": 120.0
            },
            {
                "start_time": 39.1181818,
                "end_time": 39.3045455,
                "pitch": 58,
                "velocity": 51,
                "duration": 0.1863636,
                "tempo": 120.0
            },
            {
                "start_time": 39.3204545,
                "end_time": 39.5045455,
                "pitch": 46,
                "velocity": 51,
                "duration": 0.1840909,
                "tempo": 120.0
            },
            {
                "start_time": 39.5204545,
                "end_time": 39.7045455,
                "pitch": 58,
                "velocity": 51,
                "duration": 0.1840909,
                "tempo": 120.0
            },
            {
                "start_time": 39.7204545,
                "end_time": 39.9045455,
                "pitch": 46,
                "velocity": 51,
                "duration": 0.1840909,
                "tempo": 120.0
            },
            {
                "start_time": 39.9204545,
                "end_time": 40.1045455,
                "pitch": 58,
                "velocity": 51,
                "duration": 0.1840909,
                "tempo": 120.0
            },
            {
                "start_time": 40.1204545,
                "end_time": 40.3045455,
                "pitch": 46,
                "velocity": 51,
                "duration": 0.1840909,
                "tempo": 120.0
            },
            {
                "start_time": 40.3204545,
                "end_time": 40.5045455,
                "pitch": 58,
                "velocity": 51,
                "duration": 0.1840909,
                "tempo": 120.0
            },
            {
                "start_time": 40.5204545,
                "end_time": 40.7045455,
                "pitch": 46,
                "velocity": 51,
                "duration": 0.1840909,
                "tempo": 120.0
            },
            {
                "start_time": 40.7204545,
                "end_time": 40.9045455,
                "pitch": 58,
                "velocity": 51,
                "duration": 0.1840909,
                "tempo": 120.0
            },
            {
                "start_time": 40.9204545,
                "end_time": 41.1045455,
                "pitch": 46,
                "velocity": 51,
                "duration": 0.1840909,
                "tempo": 120.0
            },
            {
                "start_time": 41.1227273,
                "end_time": 41.3068182,
                "pitch": 58,
                "velocity": 51,
                "duration": 0.1840909,
                "tempo": 120.0
            },
            {
                "start_time": 41.3227273,
                "end_time": 41.5068182,
                "pitch": 46,
                "velocity": 51,
                "duration": 0.1840909,
                "tempo": 120.0
            },
            {
                "start_time": 41.5227273,
                "end_time": 41.7068182,
                "pitch": 58,
                "velocity": 51,
                "duration": 0.1840909,
                "tempo": 120.0
            },
            {
                "start_time": 41.7227273,
                "end_time": 41.9068182,
                "pitch": 45,
                "velocity": 51,
                "duration": 0.1840909,
                "tempo": 120.0
            },
            {
                "start_time": 41.9227273,
                "end_time": 42.1068182,
                "pitch": 57,
                "velocity": 51,
                "duration": 0.1840909,
                "tempo": 120.0
            },
            {
                "start_time": 42.1227273,
                "end_time": 42.3068182,
                "pitch": 45,
                "velocity": 51,
                "duration": 0.1840909,
                "tempo": 120.0
            },
            {
                "start_time": 42.3227273,
                "end_time": 42.5068182,
                "pitch": 57,
                "velocity": 51,
                "duration": 0.1840909,
                "tempo": 120.0
            },
            {
                "start_time": 42.5227273,
                "end_time": 42.7068182,
                "pitch": 45,
                "velocity": 51,
                "duration": 0.1840909,
                "tempo": 120.0
            },
            {
                "start_time": 42.7227273,
                "end_time": 42.9068182,
                "pitch": 57,
                "velocity": 51,
                "duration": 0.1840909,
                "tempo": 120.0
            },
            {
                "start_time": 42.9227273,
                "end_time": 43.1068182,
                "pitch": 45,
                "velocity": 51,
                "duration": 0.1840909,
                "tempo": 120.0
            },
            {
                "start_time": 43.125,
                "end_time": 43.3090909,
                "pitch": 57,
                "velocity": 51,
                "duration": 0.1840909,
                "tempo": 120.0
            },
            {
                "start_time": 43.325,
                "end_time": 43.5090909,
                "pitch": 45,
                "velocity": 51,
                "duration": 0.1840909,
                "tempo": 120.0
            },
            {
                "start_time": 43.525,
                "end_time": 43.7090909,
                "pitch": 57,
                "velocity": 51,
                "duration": 0.1840909,
                "tempo": 120.0
            },
            {
                "start_time": 43.725,
                "end_time": 43.9090909,
                "pitch": 45,
                "velocity": 51,
                "duration": 0.1840909,
                "tempo": 120.0
            },
            {
                "start_time": 43.925,
                "end_time": 44.1090909,
                "pitch": 57,
                "velocity": 51,
                "duration": 0.1840909,
                "tempo": 120.0
            },
            {
                "start_time": 44.125,
                "end_time": 44.3090909,
                "pitch": 45,
                "velocity": 51,
                "duration": 0.1840909,
                "tempo": 120.0
            },
            {
                "start_time": 44.325,
                "end_time": 44.5090909,
                "pitch": 57,
                "velocity": 51,
                "duration": 0.1840909,
                "tempo": 120.0
            },
            {
                "start_time": 44.525,
                "end_time": 44.7090909,
                "pitch": 45,
                "velocity": 51,
                "duration": 0.1840909,
                "tempo": 120.0
            },
            {
                "start_time": 44.725,
                "end_time": 44.9090909,
                "pitch": 57,
                "velocity": 51,
                "duration": 0.1840909,
                "tempo": 120.0
            },
            {
                "start_time": 44.925,
                "end_time": 45.1113636,
                "pitch": 46,
                "velocity": 51,
                "duration": 0.1863636,
                "tempo": 120.0
            },
            {
                "start_time": 45.1272727,
                "end_time": 45.3113636,
                "pitch": 58,
                "velocity": 51,
                "duration": 0.1840909,
                "tempo": 120.0
            },
            {
                "start_time": 45.3295455,
                "end_time": 45.5113636,
                "pitch": 46,
                "velocity": 51,
                "duration": 0.1818182,
                "tempo": 120.0
            },
            {
                "start_time": 45.5295455,
                "end_time": 45.7113636,
                "pitch": 58,
                "velocity": 51,
                "duration": 0.1818182,
                "tempo": 120.0
            },
            {
                "start_time": 45.7295455,
                "end_time": 45.9113636,
                "pitch": 46,
                "velocity": 51,
                "duration": 0.1818182,
                "tempo": 120.0
            },
            {
                "start_time": 45.9295455,
                "end_time": 46.1113636,
                "pitch": 58,
                "velocity": 51,
                "duration": 0.1818182,
                "tempo": 120.0
            },
            {
                "start_time": 46.1295455,
                "end_time": 46.3113636,
                "pitch": 46,
                "velocity": 51,
                "duration": 0.1818182,
                "tempo": 120.0
            },
            {
                "start_time": 46.3295455,
                "end_time": 46.5113636,
                "pitch": 58,
                "velocity": 51,
                "duration": 0.1818182,
                "tempo": 120.0
            },
            {
                "start_time": 46.5295455,
                "end_time": 46.7113636,
                "pitch": 46,
                "velocity": 51,
                "duration": 0.1818182,
                "tempo": 120.0
            },
            {
                "start_time": 46.7295455,
                "end_time": 46.9113636,
                "pitch": 58,
                "velocity": 51,
                "duration": 0.1818182,
                "tempo": 120.0
            },
            {
                "start_time": 46.9295455,
                "end_time": 47.1136364,
                "pitch": 46,
                "velocity": 51,
                "duration": 0.1840909,
                "tempo": 120.0
            },
            {
                "start_time": 47.1295455,
                "end_time": 47.3136364,
                "pitch": 58,
                "velocity": 51,
                "duration": 0.1840909,
                "tempo": 120.0
            },
            {
                "start_time": 47.3318182,
                "end_time": 47.5136364,
                "pitch": 46,
                "velocity": 51,
                "duration": 0.1818182,
                "tempo": 120.0
            },
            {
                "start_time": 47.5318182,
                "end_time": 47.7136364,
                "pitch": 58,
                "velocity": 51,
                "duration": 0.1818182,
                "tempo": 120.0
            },
            {
                "start_time": 47.7318182,
                "end_time": 47.9136364,
                "pitch": 46,
                "velocity": 51,
                "duration": 0.1818182,
                "tempo": 120.0
            },
            {
                "start_time": 47.9318182,
                "end_time": 48.1136364,
                "pitch": 58,
                "velocity": 51,
                "duration": 0.1818182,
                "tempo": 120.0
            },
            {
                "start_time": 48.1318182,
                "end_time": 48.3136364,
                "pitch": 48,
                "velocity": 51,
                "duration": 0.1818182,
                "tempo": 120.0
            },
            {
                "start_time": 48.3318182,
                "end_time": 48.5136364,
                "pitch": 60,
                "velocity": 51,
                "duration": 0.1818182,
                "tempo": 120.0
            },
            {
                "start_time": 48.5318182,
                "end_time": 48.7136364,
                "pitch": 48,
                "velocity": 51,
                "duration": 0.1818182,
                "tempo": 120.0
            },
            {
                "start_time": 48.7318182,
                "end_time": 48.9136364,
                "pitch": 60,
                "velocity": 51,
                "duration": 0.1818182,
                "tempo": 120.0
            },
            {
                "start_time": 48.9318182,
                "end_time": 49.1159091,
                "pitch": 48,
                "velocity": 51,
                "duration": 0.1840909,
                "tempo": 120.0
            },
            {
                "start_time": 49.1318182,
                "end_time": 49.3181818,
                "pitch": 60,
                "velocity": 51,
                "duration": 0.1863636,
                "tempo": 120.0
            },
            {
                "start_time": 49.3340909,
                "end_time": 49.5181818,
                "pitch": 48,
                "velocity": 51,
                "duration": 0.1840909,
                "tempo": 120.0
            },
            {
                "start_time": 49.5340909,
                "end_time": 49.7181818,
                "pitch": 60,
                "velocity": 51,
                "duration": 0.1840909,
                "tempo": 120.0
            },
            {
                "start_time": 49.7340909,
                "end_time": 49.9181818,
                "pitch": 45,
                "velocity": 51,
                "duration": 0.1840909,
                "tempo": 120.0
            },
            {
                "start_time": 49.9340909,
                "end_time": 50.1181818,
                "pitch": 57,
                "velocity": 51,
                "duration": 0.1840909,
                "tempo": 120.0
            },
            {
                "start_time": 50.1340909,
                "end_time": 50.3181818,
                "pitch": 45,
                "velocity": 51,
                "duration": 0.1840909,
                "tempo": 120.0
            },
            {
                "start_time": 50.3340909,
                "end_time": 50.5181818,
                "pitch": 57,
                "velocity": 51,
                "duration": 0.1840909,
                "tempo": 120.0
            },
            {
                "start_time": 50.5340909,
                "end_time": 50.7181818,
                "pitch": 45,
                "velocity": 51,
                "duration": 0.1840909,
                "tempo": 120.0
            },
            {
                "start_time": 50.7340909,
                "end_time": 50.9181818,
                "pitch": 57,
                "velocity": 51,
                "duration": 0.1840909,
                "tempo": 120.0
            },
            {
                "start_time": 50.9340909,
                "end_time": 51.1181818,
                "pitch": 45,
                "velocity": 51,
                "duration": 0.1840909,
                "tempo": 120.0
            },
            {
                "start_time": 51.1340909,
                "end_time": 51.3204545,
                "pitch": 57,
                "velocity": 51,
                "duration": 0.1863636,
                "tempo": 120.0
            },
            {
                "start_time": 51.3363636,
                "end_time": 51.5204545,
                "pitch": 50,
                "velocity": 51,
                "duration": 0.1840909,
                "tempo": 120.0
            },
            {
                "start_time": 51.5363636,
                "end_time": 51.7204545,
                "pitch": 62,
                "velocity": 51,
                "duration": 0.1840909,
                "tempo": 120.0
            },
            {
                "start_time": 51.7363636,
                "end_time": 51.9204545,
                "pitch": 50,
                "velocity": 51,
                "duration": 0.1840909,
                "tempo": 120.0
            },
            {
                "start_time": 51.9363636,
                "end_time": 52.1204545,
                "pitch": 62,
                "velocity": 51,
                "duration": 0.1840909,
                "tempo": 120.0
            },
            {
                "start_time": 52.1363636,
                "end_time": 52.3204545,
                "pitch": 50,
                "velocity": 51,
                "duration": 0.1840909,
                "tempo": 120.0
            },
            {
                "start_time": 52.3363636,
                "end_time": 52.5204545,
                "pitch": 62,
                "velocity": 51,
                "duration": 0.1840909,
                "tempo": 120.0
            },
            {
                "start_time": 52.5363636,
                "end_time": 52.7204545,
                "pitch": 50,
                "velocity": 51,
                "duration": 0.1840909,
                "tempo": 120.0
            },
            {
                "start_time": 52.7363636,
                "end_time": 52.9204545,
                "pitch": 62,
                "velocity": 51,
                "duration": 0.1840909,
                "tempo": 120.0
            },
            {
                "start_time": 52.9363636,
                "end_time": 53.1204545,
                "pitch": 50,
                "velocity": 51,
                "duration": 0.1840909,
                "tempo": 120.0
            },
            {
                "start_time": 53.1386364,
                "end_time": 53.3227273,
                "pitch": 62,
                "velocity": 51,
                "duration": 0.1840909,
                "tempo": 120.0
            },
            {
                "start_time": 53.3386364,
                "end_time": 53.5227273,
                "pitch": 50,
                "velocity": 51,
                "duration": 0.1840909,
                "tempo": 120.0
            },
            {
                "start_time": 53.5386364,
                "end_time": 53.7227273,
                "pitch": 62,
                "velocity": 51,
                "duration": 0.1840909,
                "tempo": 120.0
            },
            {
                "start_time": 53.7386364,
                "end_time": 53.9227273,
                "pitch": 50,
                "velocity": 51,
                "duration": 0.1840909,
                "tempo": 120.0
            },
            {
                "start_time": 53.9386364,
                "end_time": 54.1227273,
                "pitch": 62,
                "velocity": 51,
                "duration": 0.1840909,
                "tempo": 120.0
            },
            {
                "start_time": 54.1386364,
                "end_time": 54.3227273,
                "pitch": 50,
                "velocity": 51,
                "duration": 0.1840909,
                "tempo": 120.0
            },
            {
                "start_time": 54.3386364,
                "end_time": 54.5295455,
                "pitch": 62,
                "velocity": 51,
                "duration": 0.1909091,
                "tempo": 120.0
            }
        ],
        "Vibraphone": [
            {
                "start_time": 0.0090909,
                "end_time": 0.5909091,
                "pitch": 74,
                "velocity": 40,
                "duration": 0.5818182,
                "tempo": 120.0
            },
            {
                "start_time": 0.6068182,
                "end_time": 0.9863636,
                "pitch": 73,
                "velocity": 40,
                "duration": 0.3795455,
                "tempo": 120.0
            },
            {
                "start_time": 1.0045455,
                "end_time": 1.1886364,
                "pitch": 73,
                "velocity": 40,
                "duration": 0.1840909,
                "tempo": 120.0
            },
            {
                "start_time": 1.2045455,
                "end_time": 1.5886364,
                "pitch": 74,
                "velocity": 40,
                "duration": 0.3840909,
                "tempo": 120.0
            },
            {
                "start_time": 1.6045455,
                "end_time": 1.7886364,
                "pitch": 76,
                "velocity": 40,
                "duration": 0.1840909,
                "tempo": 120.0
            },
            {
                "start_time": 1.8068182,
                "end_time": 2.1909091,
                "pitch": 74,
                "velocity": 40,
                "duration": 0.3840909,
                "tempo": 120.0
            },
            {
                "start_time": 2.2068182,
                "end_time": 2.5931818,
                "pitch": 73,
                "velocity": 40,
                "duration": 0.3863636,
                "tempo": 120.0
            },
            {
                "start_time": 2.6090909,
                "end_time": 2.7931818,
                "pitch": 74,
                "velocity": 40,
                "duration": 0.1840909,
                "tempo": 120.0
            },
            {
                "start_time": 2.8113636,
                "end_time": 3.1931818,
                "pitch": 71,
                "velocity": 40,
                "duration": 0.3818182,
                "tempo": 120.0
            },
            {
                "start_time": 3.2113636,
                "end_time": 3.2931818,
                "pitch": 70,
                "velocity": 40,
                "duration": 0.0818182,
                "tempo": 120.0
            },
            {
                "start_time": 3.3113636,
                "end_time": 3.3931818,
                "pitch": 69,
                "velocity": 40,
                "duration": 0.0818182,
                "tempo": 120.0
            },
            {
                "start_time": 3.4113636,
                "end_time": 3.4931818,
                "pitch": 70,
                "velocity": 40,
                "duration": 0.0818182,
                "tempo": 120.0
            },
            {
                "start_time": 3.5113636,
                "end_time": 3.5931818,
                "pitch": 69,
                "velocity": 40,
                "duration": 0.0818182,
                "tempo": 120.0
            },
            {
                "start_time": 3.6113636,
                "end_time": 3.7931818,
                "pitch": 70,
                "velocity": 40,
                "duration": 0.1818182,
                "tempo": 120.0
            },
            {
                "start_time": 3.8113636,
                "end_time": 3.8931818,
                "pitch": 70,
                "velocity": 40,
                "duration": 0.0818182,
                "tempo": 120.0
            },
            {
                "start_time": 3.9113636,
                "end_time": 3.9931818,
                "pitch": 69,
                "velocity": 40,
                "duration": 0.0818182,
                "tempo": 120.0
            },
            {
                "start_time": 4.0113636,
                "end_time": 4.0931818,
                "pitch": 70,
                "velocity": 40,
                "duration": 0.0818182,
                "tempo": 120.0
            },
            {
                "start_time": 4.1113636,
                "end_time": 4.1931818,
                "pitch": 69,
                "velocity": 40,
                "duration": 0.0818182,
                "tempo": 120.0
            },
            {
                "start_time": 4.2113636,
                "end_time": 4.3931818,
                "pitch": 70,
                "velocity": 40,
                "duration": 0.1818182,
                "tempo": 120.0
            },
            {
                "start_time": 4.4113636,
                "end_time": 4.4931818,
                "pitch": 70,
                "velocity": 40,
                "duration": 0.0818182,
                "tempo": 120.0
            },
            {
                "start_time": 4.5113636,
                "end_time": 4.5954545,
                "pitch": 69,
                "velocity": 40,
                "duration": 0.0840909,
                "tempo": 120.0
            },
            {
                "start_time": 4.6113636,
                "end_time": 4.6954545,
                "pitch": 70,
                "velocity": 40,
                "duration": 0.0840909,
                "tempo": 120.0
            },
            {
                "start_time": 4.7113636,
                "end_time": 4.7954545,
                "pitch": 69,
                "velocity": 40,
                "duration": 0.0840909,
                "tempo": 120.0
            },
            {
                "start_time": 4.8136364,
                "end_time": 4.9954545,
                "pitch": 70,
                "velocity": 40,
                "duration": 0.1818182,
                "tempo": 120.0
            },
            {
                "start_time": 5.0136364,
                "end_time": 5.0954545,
                "pitch": 70,
                "velocity": 40,
                "duration": 0.0818182,
                "tempo": 120.0
            },
            {
                "start_time": 5.1136364,
                "end_time": 5.1954545,
                "pitch": 69,
                "velocity": 40,
                "duration": 0.0818182,
                "tempo": 120.0
            },
            {
                "start_time": 5.2136364,
                "end_time": 5.2977273,
                "pitch": 70,
                "velocity": 40,
                "duration": 0.0840909,
                "tempo": 120.0
            },
            {
                "start_time": 5.3136364,
                "end_time": 5.3977273,
                "pitch": 69,
                "velocity": 40,
                "duration": 0.0840909,
                "tempo": 120.0
            },
            {
                "start_time": 5.4136364,
                "end_time": 5.6,
                "pitch": 70,
                "velocity": 40,
                "duration": 0.1863636,
                "tempo": 120.0
            },
            {
                "start_time": 5.6159091,
                "end_time": 5.7,
                "pitch": 70,
                "velocity": 40,
                "duration": 0.0840909,
                "tempo": 120.0
            },
            {
                "start_time": 5.7159091,
                "end_time": 5.8,
                "pitch": 69,
                "velocity": 40,
                "duration": 0.0840909,
                "tempo": 120.0
            },
            {
                "start_time": 5.8159091,
                "end_time": 5.9,
                "pitch": 70,
                "velocity": 40,
                "duration": 0.0840909,
                "tempo": 120.0
            },
            {
                "start_time": 5.9181818,
                "end_time": 6.0022727,
                "pitch": 71,
                "velocity": 40,
                "duration": 0.0840909,
                "tempo": 120.0
            },
            {
                "start_time": 6.0181818,
                "end_time": 6.1022727,
                "pitch": 72,
                "velocity": 40,
                "duration": 0.0840909,
                "tempo": 120.0
            },
            {
                "start_time": 6.1181818,
                "end_time": 6.2022727,
                "pitch": 73,
                "velocity": 40,
                "duration": 0.0840909,
                "tempo": 120.0
            },
            {
                "start_time": 6.2181818,
                "end_time": 6.3022727,
                "pitch": 74,
                "velocity": 40,
                "duration": 0.0840909,
                "tempo": 120.0
            },
            {
                "start_time": 6.3181818,
                "end_time": 6.4022727,
                "pitch": 75,
                "velocity": 40,
                "duration": 0.0840909,
                "tempo": 120.0
            },
            {
                "start_time": 6.4181818,
                "end_time": 7.0045455,
                "pitch": 74,
                "velocity": 40,
                "duration": 0.5863636,
                "tempo": 120.0
            },
            {
                "start_time": 7.0204545,
                "end_time": 7.4045455,
                "pitch": 73,
                "velocity": 40,
                "duration": 0.3840909,
                "tempo": 120.0
            },
            {
                "start_time": 7.4227273,
                "end_time": 7.6068182,
                "pitch": 73,
                "velocity": 40,
                "duration": 0.1840909,
                "tempo": 120.0
            },
            {
                "start_time": 7.6227273,
                "end_time": 8.0090909,
                "pitch": 74,
                "velocity": 40,
                "duration": 0.3863636,
                "tempo": 120.0
            },
            {
                "start_time": 8.0272727,
                "end_time": 8.2090909,
                "pitch": 78,
                "velocity": 40,
                "duration": 0.1818182,
                "tempo": 120.0
            },
            {
                "start_time": 8.2272727,
                "end_time": 8.6113636,
                "pitch": 76,
                "velocity": 40,
                "duration": 0.3840909,
                "tempo": 120.0
            },
            {
                "start_time": 8.6272727,
                "end_time": 9.0136364,
                "pitch": 74,
                "velocity": 40,
                "duration": 0.3863636,
                "tempo": 120.0
            },
            {
                "start_time": 9.0295455,
                "end_time": 9.2159091,
                "pitch": 76,
                "velocity": 40,
                "duration": 0.1863636,
                "tempo": 120.0
            },
            {
                "start_time": 9.2318182,
                "end_time": 9.6181818,
                "pitch": 73,
                "velocity": 40,
                "duration": 0.3863636,
                "tempo": 120.0
            },
            {
                "start_time": 9.6340909,
                "end_time": 9.7181818,
                "pitch": 70,
                "velocity": 40,
                "duration": 0.0840909,
                "tempo": 120.0
            },
            {
                "start_time": 9.7340909,
                "end_time": 9.8181818,
                "pitch": 69,
                "velocity": 40,
                "duration": 0.0840909,
                "tempo": 120.0
            },
            {
                "start_time": 9.8340909,
                "end_time": 9.9181818,
                "pitch": 70,
                "velocity": 40,
                "duration": 0.0840909,
                "tempo": 120.0
            },
            {
                "start_time": 9.9340909,
                "end_time": 10.0181818,
                "pitch": 69,
                "velocity": 40,
                "duration": 0.0840909,
                "tempo": 120.0
            },
            {
                "start_time": 10.0340909,
                "end_time": 10.2181818,
                "pitch": 70,
                "velocity": 40,
                "duration": 0.1840909,
                "tempo": 120.0
            },
            {
                "start_time": 10.2363636,
                "end_time": 10.3204545,
                "pitch": 70,
                "velocity": 40,
                "duration": 0.0840909,
                "tempo": 120.0
            },
            {
                "start_time": 10.3363636,
                "end_time": 10.4204545,
                "pitch": 69,
                "velocity": 40,
                "duration": 0.0840909,
                "tempo": 120.0
            },
            {
                "start_time": 10.4363636,
                "end_time": 10.5204545,
                "pitch": 70,
                "velocity": 40,
                "duration": 0.0840909,
                "tempo": 120.0
            },
            {
                "start_time": 10.5386364,
                "end_time": 10.6227273,
                "pitch": 69,
                "velocity": 40,
                "duration": 0.0840909,
                "tempo": 120.0
            },
            {
                "start_time": 10.6386364,
                "end_time": 10.8227273,
                "pitch": 70,
                "velocity": 40,
                "duration": 0.1840909,
                "tempo": 120.0
            },
            {
                "start_time": 10.8409091,
                "end_time": 10.9227273,
                "pitch": 70,
                "velocity": 40,
                "duration": 0.0818182,
                "tempo": 120.0
            },
            {
                "start_time": 10.9409091,
                "end_time": 11.025,
                "pitch": 69,
                "velocity": 40,
                "duration": 0.0840909,
                "tempo": 120.0
            },
            {
                "start_time": 11.0409091,
                "end_time": 11.125,
                "pitch": 70,
                "velocity": 40,
                "duration": 0.0840909,
                "tempo": 120.0
            },
            {
                "start_time": 11.1409091,
                "end_time": 11.225,
                "pitch": 69,
                "velocity": 40,
                "duration": 0.0840909,
                "tempo": 120.0
            },
            {
                "start_time": 11.2431818,
                "end_time": 11.4272727,
                "pitch": 70,
                "velocity": 40,
                "duration": 0.1840909,
                "tempo": 120.0
            },
            {
                "start_time": 11.4431818,
                "end_time": 11.5272727,
                "pitch": 70,
                "velocity": 40,
                "duration": 0.0840909,
                "tempo": 120.0
            },
            {
                "start_time": 11.5454545,
                "end_time": 11.6295455,
                "pitch": 69,
                "velocity": 40,
                "duration": 0.0840909,
                "tempo": 120.0
            },
            {
                "start_time": 11.6454545,
                "end_time": 11.7295455,
                "pitch": 70,
                "velocity": 40,
                "duration": 0.0840909,
                "tempo": 120.0
            },
            {
                "start_time": 11.7454545,
                "end_time": 11.8295455,
                "pitch": 69,
                "velocity": 40,
                "duration": 0.0840909,
                "tempo": 120.0
            },
            {
                "start_time": 11.8454545,
                "end_time": 12.0295455,
                "pitch": 70,
                "velocity": 40,
                "duration": 0.1840909,
                "tempo": 120.0
            },
            {
                "start_time": 12.0454545,
                "end_time": 12.1295455,
                "pitch": 70,
                "velocity": 40,
                "duration": 0.0840909,
                "tempo": 120.0
            },
            {
                "start_time": 12.1454545,
                "end_time": 12.2295455,
                "pitch": 69,
                "velocity": 40,
                "duration": 0.0840909,
                "tempo": 120.0
            },
            {
                "start_time": 12.2454545,
                "end_time": 12.3295455,
                "pitch": 68,
                "velocity": 40,
                "duration": 0.0840909,
                "tempo": 120.0
            },
            {
                "start_time": 12.3477273,
                "end_time": 12.4318182,
                "pitch": 67,
                "velocity": 40,
                "duration": 0.0840909,
                "tempo": 120.0
            },
            {
                "start_time": 12.4477273,
                "end_time": 12.5318182,
                "pitch": 66,
                "velocity": 40,
                "duration": 0.0840909,
                "tempo": 120.0
            },
            {
                "start_time": 12.5477273,
                "end_time": 12.6318182,
                "pitch": 65,
                "velocity": 40,
                "duration": 0.0840909,
                "tempo": 120.0
            },
            {
                "start_time": 12.65,
                "end_time": 12.7340909,
                "pitch": 64,
                "velocity": 40,
                "duration": 0.0840909,
                "tempo": 120.0
            },
            {
                "start_time": 12.75,
                "end_time": 12.8340909,
                "pitch": 63,
                "velocity": 40,
                "duration": 0.0840909,
                "tempo": 120.0
            },
            {
                "start_time": 12.85,
                "end_time": 13.2363636,
                "pitch": 62,
                "velocity": 40,
                "duration": 0.3863636,
                "tempo": 120.0
            },
            {
                "start_time": 13.2522727,
                "end_time": 13.4386364,
                "pitch": 64,
                "velocity": 40,
                "duration": 0.1863636,
                "tempo": 120.0
            },
            {
                "start_time": 13.4545455,
                "end_time": 13.6386364,
                "pitch": 66,
                "velocity": 40,
                "duration": 0.1840909,
                "tempo": 120.0
            },
            {
                "start_time": 13.8568182,
                "end_time": 14.4409091,
                "pitch": 74,
                "velocity": 40,
                "duration": 0.5840909,
                "tempo": 120.0
            },
            {
                "start_time": 14.4590909,
                "end_time": 14.6431818,
                "pitch": 64,
                "velocity": 40,
                "duration": 0.1840909,
                "tempo": 120.0
            },
            {
                "start_time": 14.6590909,
                "end_time": 14.8454545,
                "pitch": 66,
                "velocity": 40,
                "duration": 0.1863636,
                "tempo": 120.0
            },
            {
                "start_time": 15.0636364,
                "end_time": 15.2477273,
                "pitch": 67,
                "velocity": 40,
                "duration": 0.1840909,
                "tempo": 120.0
            },
            {
                "start_time": 15.4659091,
                "end_time": 15.85,
                "pitch": 78,
                "velocity": 40,
                "duration": 0.3840909,
                "tempo": 120.0
            },
            {
                "start_time": 15.8659091,
                "end_time": 16.05,
                "pitch": 76,
                "velocity": 40,
                "duration": 0.1840909,
                "tempo": 120.0
            },
            {
                "start_time": 16.0659091,
                "end_time": 16.4522727,
                "pitch": 64,
                "velocity": 40,
                "duration": 0.3863636,
                "tempo": 120.0
            },
            {
                "start_time": 16.4704545,
                "end_time": 16.8522727,
                "pitch": 62,
                "velocity": 40,
                "duration": 0.3818182,
                "tempo": 120.0
            },
            {
                "start_time": 16.8704545,
                "end_time": 17.2522727,
                "pitch": 64,
                "velocity": 40,
                "duration": 0.3818182,
                "tempo": 120.0
            },
            {
                "start_time": 17.2704545,
                "end_time": 17.6545455,
                "pitch": 66,
                "velocity": 40,
                "duration": 0.3840909,
                "tempo": 120.0
            },
            {
                "start_time": 17.6727273,
                "end_time": 18.0545455,
                "pitch": 67,
                "velocity": 40,
                "duration": 0.3818182,
                "tempo": 120.0
            },
            {
                "start_time": 18.0727273,
                "end_time": 18.4590909,
                "pitch": 67,
                "velocity": 40,
                "duration": 0.3863636,
                "tempo": 120.0
            },
            {
                "start_time": 18.475,
                "end_time": 18.8590909,
                "pitch": 69,
                "velocity": 40,
                "duration": 0.3840909,
                "tempo": 120.0
            },
            {
                "start_time": 18.875,
                "end_time": 19.2590909,
                "pitch": 69,
                "velocity": 40,
                "duration": 0.3840909,
                "tempo": 120.0
            },
            {
                "start_time": 19.275,
                "end_time": 19.8613636,
                "pitch": 74,
                "velocity": 40,
                "duration": 0.5863636,
                "tempo": 120.0
            },
            {
                "start_time": 19.8772727,
                "end_time": 20.2613636,
                "pitch": 73,
                "velocity": 40,
                "duration": 0.3840909,
                "tempo": 120.0
            },
            {
                "start_time": 20.2795455,
                "end_time": 20.4636364,
                "pitch": 73,
                "velocity": 40,
                "duration": 0.1840909,
                "tempo": 120.0
            },
            {
                "start_time": 20.4795455,
                "end_time": 20.8636364,
                "pitch": 74,
                "velocity": 40,
                "duration": 0.3840909,
                "tempo": 120.0
            },
            {
                "start_time": 20.8795455,
                "end_time": 21.0636364,
                "pitch": 76,
                "velocity": 40,
                "duration": 0.1840909,
                "tempo": 120.0
            },
            {
                "start_time": 21.0795455,
                "end_time": 21.4636364,
                "pitch": 74,
                "velocity": 40,
                "duration": 0.3840909,
                "tempo": 120.0
            },
            {
                "start_time": 21.4818182,
                "end_time": 21.8659091,
                "pitch": 73,
                "velocity": 40,
                "duration": 0.3840909,
                "tempo": 120.0
            },
            {
                "start_time": 21.8818182,
                "end_time": 22.0659091,
                "pitch": 74,
                "velocity": 40,
                "duration": 0.1840909,
                "tempo": 120.0
            },
            {
                "start_time": 22.0818182,
                "end_time": 22.4681818,
                "pitch": 71,
                "velocity": 40,
                "duration": 0.3863636,
                "tempo": 120.0
            },
            {
                "start_time": 22.4863636,
                "end_time": 22.5681818,
                "pitch": 70,
                "velocity": 40,
                "duration": 0.0818182,
                "tempo": 120.0
            },
            {
                "start_time": 22.5863636,
                "end_time": 22.6681818,
                "pitch": 69,
                "velocity": 40,
                "duration": 0.0818182,
                "tempo": 120.0
            },
            {
                "start_time": 22.6863636,
                "end_time": 22.7681818,
                "pitch": 70,
                "velocity": 40,
                "duration": 0.0818182,
                "tempo": 120.0
            },
            {
                "start_time": 22.7863636,
                "end_time": 22.8681818,
                "pitch": 69,
                "velocity": 40,
                "duration": 0.0818182,
                "tempo": 120.0
            },
            {
                "start_time": 22.8863636,
                "end_time": 23.0681818,
                "pitch": 70,
                "velocity": 40,
                "duration": 0.1818182,
                "tempo": 120.0
            },
            {
                "start_time": 23.0863636,
                "end_time": 23.1681818,
                "pitch": 70,
                "velocity": 40,
                "duration": 0.0818182,
                "tempo": 120.0
            },
            {
                "start_time": 23.1863636,
                "end_time": 23.2681818,
                "pitch": 69,
                "velocity": 40,
                "duration": 0.0818182,
                "tempo": 120.0
            },
            {
                "start_time": 23.2863636,
                "end_time": 23.3704545,
                "pitch": 70,
                "velocity": 40,
                "duration": 0.0840909,
                "tempo": 120.0
            },
            {
                "start_time": 23.3863636,
                "end_time": 23.4704545,
                "pitch": 69,
                "velocity": 40,
                "duration": 0.0840909,
                "tempo": 120.0
            },
            {
                "start_time": 23.4863636,
                "end_time": 23.6704545,
                "pitch": 70,
                "velocity": 40,
                "duration": 0.1840909,
                "tempo": 120.0
            },
            {
                "start_time": 23.6886364,
                "end_time": 23.7704545,
                "pitch": 70,
                "velocity": 40,
                "duration": 0.0818182,
                "tempo": 120.0
            },
            {
                "start_time": 23.7886364,
                "end_time": 23.8704545,
                "pitch": 69,
                "velocity": 40,
                "duration": 0.0818182,
                "tempo": 120.0
            },
            {
                "start_time": 23.8886364,
                "end_time": 23.9704545,
                "pitch": 70,
                "velocity": 40,
                "duration": 0.0818182,
                "tempo": 120.0
            },
            {
                "start_time": 23.9886364,
                "end_time": 24.0704545,
                "pitch": 69,
                "velocity": 40,
                "duration": 0.0818182,
                "tempo": 120.0
            },
            {
                "start_time": 24.0886364,
                "end_time": 24.2727273,
                "pitch": 70,
                "velocity": 40,
                "duration": 0.1840909,
                "tempo": 120.0
            },
            {
                "start_time": 24.2886364,
                "end_time": 24.3727273,
                "pitch": 70,
                "velocity": 40,
                "duration": 0.0840909,
                "tempo": 120.0
            },
            {
                "start_time": 24.3909091,
                "end_time": 24.475,
                "pitch": 69,
                "velocity": 40,
                "duration": 0.0840909,
                "tempo": 120.0
            },
            {
                "start_time": 24.4909091,
                "end_time": 24.575,
                "pitch": 70,
                "velocity": 40,
                "duration": 0.0840909,
                "tempo": 120.0
            },
            {
                "start_time": 24.5909091,
                "end_time": 24.675,
                "pitch": 69,
                "velocity": 40,
                "duration": 0.0840909,
                "tempo": 120.0
            },
            {
                "start_time": 24.6909091,
                "end_time": 24.875,
                "pitch": 70,
                "velocity": 40,
                "duration": 0.1840909,
                "tempo": 120.0
            },
            {
                "start_time": 24.8909091,
                "end_time": 24.975,
                "pitch": 70,
                "velocity": 40,
                "duration": 0.0840909,
                "tempo": 120.0
            },
            {
                "start_time": 24.9909091,
                "end_time": 25.075,
                "pitch": 69,
                "velocity": 40,
                "duration": 0.0840909,
                "tempo": 120.0
            },
            {
                "start_time": 25.0909091,
                "end_time": 25.175,
                "pitch": 70,
                "velocity": 40,
                "duration": 0.0840909,
                "tempo": 120.0
            },
            {
                "start_time": 25.1909091,
                "end_time": 25.275,
                "pitch": 71,
                "velocity": 40,
                "duration": 0.0840909,
                "tempo": 120.0
            },
            {
                "start_time": 25.2909091,
                "end_time": 25.375,
                "pitch": 72,
                "velocity": 40,
                "duration": 0.0840909,
                "tempo": 120.0
            },
            {
                "start_time": 25.3909091,
                "end_time": 25.475,
                "pitch": 73,
                "velocity": 40,
                "duration": 0.0840909,
                "tempo": 120.0
            },
            {
                "start_time": 25.4931818,
                "end_time": 25.575,
                "pitch": 74,
                "velocity": 40,
                "duration": 0.0818182,
                "tempo": 120.0
            },
            {
                "start_time": 25.5931818,
                "end_time": 25.6772727,
                "pitch": 75,
                "velocity": 40,
                "duration": 0.0840909,
                "tempo": 120.0
            },
            {
                "start_time": 25.6931818,
                "end_time": 26.2772727,
                "pitch": 74,
                "velocity": 40,
                "duration": 0.5840909,
                "tempo": 120.0
            },
            {
                "start_time": 26.2954545,
                "end_time": 26.6795455,
                "pitch": 73,
                "velocity": 40,
                "duration": 0.3840909,
                "tempo": 120.0
            },
            {
                "start_time": 26.6954545,
                "end_time": 26.8795455,
                "pitch": 73,
                "velocity": 40,
                "duration": 0.1840909,
                "tempo": 120.0
            },
            {
                "start_time": 26.8954545,
                "end_time": 27.2795455,
                "pitch": 74,
                "velocity": 40,
                "duration": 0.3840909,
                "tempo": 120.0
            },
            {
                "start_time": 27.2954545,
                "end_time": 27.4818182,
                "pitch": 78,
                "velocity": 40,
                "duration": 0.1863636,
                "tempo": 120.0
            },
            {
                "start_time": 27.4977273,
                "end_time": 27.8818182,
                "pitch": 76,
                "velocity": 40,
                "duration": 0.3840909,
                "tempo": 120.0
            },
            {
                "start_time": 27.9,
                "end_time": 28.2840909,
                "pitch": 74,
                "velocity": 40,
                "duration": 0.3840909,
                "tempo": 120.0
            },
            {
                "start_time": 28.3,
                "end_time": 28.4840909,
                "pitch": 76,
                "velocity": 40,
                "duration": 0.1840909,
                "tempo": 120.0
            },
            {
                "start_time": 28.5022727,
                "end_time": 28.8840909,
                "pitch": 73,
                "velocity": 40,
                "duration": 0.3818182,
                "tempo": 120.0
            },
            {
                "start_time": 28.9022727,
                "end_time": 28.9840909,
                "pitch": 70,
                "velocity": 40,
                "duration": 0.0818182,
                "tempo": 120.0
            },
            {
                "start_time": 29.0022727,
                "end_time": 29.0840909,
                "pitch": 69,
                "velocity": 40,
                "duration": 0.0818182,
                "tempo": 120.0
            },
            {
                "start_time": 29.1022727,
                "end_time": 29.1840909,
                "pitch": 70,
                "velocity": 40,
                "duration": 0.0818182,
                "tempo": 120.0
            },
            {
                "start_time": 29.2022727,
                "end_time": 29.2840909,
                "pitch": 69,
                "velocity": 40,
                "duration": 0.0818182,
                "tempo": 120.0
            },
            {
                "start_time": 29.3022727,
                "end_time": 29.4863636,
                "pitch": 70,
                "velocity": 40,
                "duration": 0.1840909,
                "tempo": 120.0
            },
            {
                "start_time": 29.5022727,
                "end_time": 29.5863636,
                "pitch": 70,
                "velocity": 40,
                "duration": 0.0840909,
                "tempo": 120.0
            },
            {
                "start_time": 29.6045455,
                "end_time": 29.6886364,
                "pitch": 69,
                "velocity": 40,
                "duration": 0.0840909,
                "tempo": 120.0
            },
            {
                "start_time": 29.7045455,
                "end_time": 29.7886364,
                "pitch": 70,
                "velocity": 40,
                "duration": 0.0840909,
                "tempo": 120.0
            },
            {
                "start_time": 29.8045455,
                "end_time": 29.8886364,
                "pitch": 69,
                "velocity": 40,
                "duration": 0.0840909,
                "tempo": 120.0
            },
            {
                "start_time": 29.9045455,
                "end_time": 30.0886364,
                "pitch": 70,
                "velocity": 40,
                "duration": 0.1840909,
                "tempo": 120.0
            },
            {
                "start_time": 30.1045455,
                "end_time": 30.1886364,
                "pitch": 70,
                "velocity": 40,
                "duration": 0.0840909,
                "tempo": 120.0
            },
            {
                "start_time": 30.2045455,
                "end_time": 30.2886364,
                "pitch": 69,
                "velocity": 40,
                "duration": 0.0840909,
                "tempo": 120.0
            },
            {
                "start_time": 30.3045455,
                "end_time": 30.3886364,
                "pitch": 70,
                "velocity": 40,
                "duration": 0.0840909,
                "tempo": 120.0
            },
            {
                "start_time": 30.4068182,
                "end_time": 30.4909091,
                "pitch": 69,
                "velocity": 40,
                "duration": 0.0840909,
                "tempo": 120.0
            },
            {
                "start_time": 30.5068182,
                "end_time": 30.6909091,
                "pitch": 70,
                "velocity": 40,
                "duration": 0.1840909,
                "tempo": 120.0
            },
            {
                "start_time": 30.7068182,
                "end_time": 30.7909091,
                "pitch": 70,
                "velocity": 40,
                "duration": 0.0840909,
                "tempo": 120.0
            },
            {
                "start_time": 30.8068182,
                "end_time": 30.8909091,
                "pitch": 69,
                "velocity": 40,
                "duration": 0.0840909,
                "tempo": 120.0
            },
            {
                "start_time": 30.9068182,
                "end_time": 30.9909091,
                "pitch": 70,
                "velocity": 40,
                "duration": 0.0840909,
                "tempo": 120.0
            },
            {
                "start_time": 31.0068182,
                "end_time": 31.0909091,
                "pitch": 69,
                "velocity": 40,
                "duration": 0.0840909,
                "tempo": 120.0
            },
            {
                "start_time": 31.1068182,
                "end_time": 31.2909091,
                "pitch": 70,
                "velocity": 40,
                "duration": 0.1840909,
                "tempo": 120.0
            },
            {
                "start_time": 31.3068182,
                "end_time": 31.3909091,
                "pitch": 70,
                "velocity": 40,
                "duration": 0.0840909,
                "tempo": 120.0
            },
            {
                "start_time": 31.4068182,
                "end_time": 31.4909091,
                "pitch": 69,
                "velocity": 40,
                "duration": 0.0840909,
                "tempo": 120.0
            },
            {
                "start_time": 31.5090909,
                "end_time": 31.5931818,
                "pitch": 68,
                "velocity": 40,
                "duration": 0.0840909,
                "tempo": 120.0
            },
            {
                "start_time": 31.6090909,
                "end_time": 31.6931818,
                "pitch": 67,
                "velocity": 40,
                "duration": 0.0840909,
                "tempo": 120.0
            },
            {
                "start_time": 31.7090909,
                "end_time": 31.7931818,
                "pitch": 66,
                "velocity": 40,
                "duration": 0.0840909,
                "tempo": 120.0
            },
            {
                "start_time": 31.8090909,
                "end_time": 31.8931818,
                "pitch": 65,
                "velocity": 40,
                "duration": 0.0840909,
                "tempo": 120.0
            },
            {
                "start_time": 31.9090909,
                "end_time": 31.9931818,
                "pitch": 64,
                "velocity": 40,
                "duration": 0.0840909,
                "tempo": 120.0
            },
            {
                "start_time": 32.0090909,
                "end_time": 32.0931818,
                "pitch": 63,
                "velocity": 40,
                "duration": 0.0840909,
                "tempo": 120.0
            },
            {
                "start_time": 32.1090909,
                "end_time": 32.4931818,
                "pitch": 62,
                "velocity": 40,
                "duration": 0.3840909,
                "tempo": 120.0
            },
            {
                "start_time": 32.5090909,
                "end_time": 32.6931818,
                "pitch": 64,
                "velocity": 40,
                "duration": 0.1840909,
                "tempo": 120.0
            },
            {
                "start_time": 32.7090909,
                "end_time": 32.8931818,
                "pitch": 66,
                "velocity": 40,
                "duration": 0.1840909,
                "tempo": 120.0
            },
            {
                "start_time": 33.1113636,
                "end_time": 33.6954545,
                "pitch": 74,
                "velocity": 40,
                "duration": 0.5840909,
                "tempo": 120.0
            },
            {
                "start_time": 33.7113636,
                "end_time": 33.8954545,
                "pitch": 64,
                "velocity": 40,
                "duration": 0.1840909,
                "tempo": 120.0
            },
            {
                "start_time": 33.9113636,
                "end_time": 34.0954545,
                "pitch": 66,
                "velocity": 40,
                "duration": 0.1840909,
                "tempo": 120.0
            },
            {
                "start_time": 34.3113636,
                "end_time": 34.4954545,
                "pitch": 67,
                "velocity": 40,
                "duration": 0.1840909,
                "tempo": 120.0
            },
            {
                "start_time": 34.7113636,
                "end_time": 35.0977273,
                "pitch": 78,
                "velocity": 40,
                "duration": 0.3863636,
                "tempo": 120.0
            },
            {
                "start_time": 35.1136364,
                "end_time": 35.2977273,
                "pitch": 76,
                "velocity": 40,
                "duration": 0.1840909,
                "tempo": 120.0
            },
            {
                "start_time": 35.3159091,
                "end_time": 35.6977273,
                "pitch": 64,
                "velocity": 40,
                "duration": 0.3818182,
                "tempo": 120.0
            },
            {
                "start_time": 35.7159091,
                "end_time": 36.0977273,
                "pitch": 62,
                "velocity": 40,
                "duration": 0.3818182,
                "tempo": 120.0
            },
            {
                "start_time": 36.1159091,
                "end_time": 36.4977273,
                "pitch": 64,
                "velocity": 40,
                "duration": 0.3818182,
                "tempo": 120.0
            },
            {
                "start_time": 36.5159091,
                "end_time": 36.8977273,
                "pitch": 66,
                "velocity": 40,
                "duration": 0.3818182,
                "tempo": 120.0
            },
            {
                "start_time": 36.9159091,
                "end_time": 37.3,
                "pitch": 67,
                "velocity": 40,
                "duration": 0.3840909,
                "tempo": 120.0
            },
            {
                "start_time": 37.3181818,
                "end_time": 37.7,
                "pitch": 67,
                "velocity": 40,
                "duration": 0.3818182,
                "tempo": 120.0
            },
            {
                "start_time": 37.7181818,
                "end_time": 38.1,
                "pitch": 69,
                "velocity": 40,
                "duration": 0.3818182,
                "tempo": 120.0
            },
            {
                "start_time": 38.1181818,
                "end_time": 38.5,
                "pitch": 69,
                "velocity": 40,
                "duration": 0.3818182,
                "tempo": 120.0
            },
            {
                "start_time": 38.5181818,
                "end_time": 39.7045455,
                "pitch": 74,
                "velocity": 40,
                "duration": 1.1863636,
                "tempo": 120.0
            },
            {
                "start_time": 39.7204545,
                "end_time": 40.1045455,
                "pitch": 70,
                "velocity": 40,
                "duration": 0.3840909,
                "tempo": 120.0
            },
            {
                "start_time": 40.1204545,
                "end_time": 40.7045455,
                "pitch": 74,
                "velocity": 40,
                "duration": 0.5840909,
                "tempo": 120.0
            },
            {
                "start_time": 40.7204545,
                "end_time": 41.3068182,
                "pitch": 74,
                "velocity": 40,
                "duration": 0.5863636,
                "tempo": 120.0
            },
            {
                "start_time": 41.3227273,
                "end_time": 41.7068182,
                "pitch": 74,
                "velocity": 40,
                "duration": 0.3840909,
                "tempo": 120.0
            },
            {
                "start_time": 41.7227273,
                "end_time": 42.9068182,
                "pitch": 74,
                "velocity": 40,
                "duration": 1.1840909,
                "tempo": 120.0
            },
            {
                "start_time": 42.9227273,
                "end_time": 43.3090909,
                "pitch": 69,
                "velocity": 40,
                "duration": 0.3863636,
                "tempo": 120.0
            },
            {
                "start_time": 43.325,
                "end_time": 43.9090909,
                "pitch": 74,
                "velocity": 40,
                "duration": 0.5840909,
                "tempo": 120.0
            },
            {
                "start_time": 43.925,
                "end_time": 44.5090909,
                "pitch": 74,
                "velocity": 40,
                "duration": 0.5840909,
                "tempo": 120.0
            },
            {
                "start_time": 44.525,
                "end_time": 44.9090909,
                "pitch": 74,
                "velocity": 40,
                "duration": 0.3840909,
                "tempo": 120.0
            },
            {
                "start_time": 44.925,
                "end_time": 46.1113636,
                "pitch": 74,
                "velocity": 40,
                "duration": 1.1863636,
                "tempo": 120.0
            },
            {
                "start_time": 46.1295455,
                "end_time": 46.5113636,
                "pitch": 70,
                "velocity": 40,
                "duration": 0.3818182,
                "tempo": 120.0
            },
            {
                "start_time": 46.5295455,
                "end_time": 47.1136364,
                "pitch": 74,
                "velocity": 40,
                "duration": 0.5840909,
                "tempo": 120.0
            },
            {
                "start_time": 47.1295455,
                "end_time": 47.7136364,
                "pitch": 74,
                "velocity": 40,
                "duration": 0.5840909,
                "tempo": 120.0
            },
            {
                "start_time": 47.7318182,
                "end_time": 48.1136364,
                "pitch": 74,
                "velocity": 40,
                "duration": 0.3818182,
                "tempo": 120.0
            },
            {
                "start_time": 48.1318182,
                "end_time": 48.9136364,
                "pitch": 75,
                "velocity": 40,
                "duration": 0.7818182,
                "tempo": 120.0
            },
            {
                "start_time": 48.9318182,
                "end_time": 49.7181818,
                "pitch": 74,
                "velocity": 40,
                "duration": 0.7863636,
                "tempo": 120.0
            },
            {
                "start_time": 49.7340909,
                "end_time": 50.5181818,
                "pitch": 73,
                "velocity": 40,
                "duration": 0.7840909,
                "tempo": 120.0
            },
            {
                "start_time": 50.5340909,
                "end_time": 51.3204545,
                "pitch": 76,
                "velocity": 40,
                "duration": 0.7863636,
                "tempo": 120.0
            },
            {
                "start_time": 51.3363636,
                "end_time": 51.9204545,
                "pitch": 74,
                "velocity": 40,
                "duration": 0.5840909,
                "tempo": 120.0
            },
            {
                "start_time": 51.9363636,
                "end_time": 52.3204545,
                "pitch": 73,
                "velocity": 40,
                "duration": 0.3840909,
                "tempo": 120.0
            },
            {
                "start_time": 52.3363636,
                "end_time": 52.5204545,
                "pitch": 73,
                "velocity": 40,
                "duration": 0.1840909,
                "tempo": 120.0
            },
            {
                "start_time": 52.5363636,
                "end_time": 52.9204545,
                "pitch": 74,
                "velocity": 40,
                "duration": 0.3840909,
                "tempo": 120.0
            },
            {
                "start_time": 52.9363636,
                "end_time": 53.1204545,
                "pitch": 76,
                "velocity": 40,
                "duration": 0.1840909,
                "tempo": 120.0
            },
            {
                "start_time": 53.1386364,
                "end_time": 53.5227273,
                "pitch": 74,
                "velocity": 40,
                "duration": 0.3840909,
                "tempo": 120.0
            },
            {
                "start_time": 53.5386364,
                "end_time": 53.9227273,
                "pitch": 73,
                "velocity": 40,
                "duration": 0.3840909,
                "tempo": 120.0
            },
            {
                "start_time": 53.9386364,
                "end_time": 54.1227273,
                "pitch": 74,
                "velocity": 40,
                "duration": 0.1840909,
                "tempo": 120.0
            },
            {
                "start_time": 54.1386364,
                "end_time": 54.5295455,
                "pitch": 71,
                "velocity": 40,
                "duration": 0.3909091,
                "tempo": 120.0
            }
        ],
        "Synth Bass 1": [
            {
                "start_time": 0.0431818,
                "end_time": 0.6227273,
                "pitch": 78,
                "velocity": 40,
                "duration": 0.5795455,
                "tempo": 120.0
            },
            {
                "start_time": 0.6386364,
                "end_time": 1.0204545,
                "pitch": 76,
                "velocity": 40,
                "duration": 0.3818182,
                "tempo": 120.0
            },
            {
                "start_time": 1.0363636,
                "end_time": 1.2227273,
                "pitch": 76,
                "velocity": 40,
                "duration": 0.1863636,
                "tempo": 120.0
            },
            {
                "start_time": 1.2386364,
                "end_time": 1.6227273,
                "pitch": 78,
                "velocity": 40,
                "duration": 0.3840909,
                "tempo": 120.0
            },
            {
                "start_time": 1.6386364,
                "end_time": 1.8227273,
                "pitch": 79,
                "velocity": 40,
                "duration": 0.1840909,
                "tempo": 120.0
            },
            {
                "start_time": 1.8409091,
                "end_time": 2.225,
                "pitch": 78,
                "velocity": 40,
                "duration": 0.3840909,
                "tempo": 120.0
            },
            {
                "start_time": 2.2409091,
                "end_time": 2.625,
                "pitch": 76,
                "velocity": 40,
                "duration": 0.3840909,
                "tempo": 120.0
            },
            {
                "start_time": 2.6431818,
                "end_time": 2.8272727,
                "pitch": 78,
                "velocity": 40,
                "duration": 0.1840909,
                "tempo": 120.0
            },
            {
                "start_time": 2.8431818,
                "end_time": 3.2,
                "pitch": 74,
                "velocity": 40,
                "duration": 0.3568182,
                "tempo": 120.0
            },
            {
                "start_time": 3.2,
                "end_time": 3.2272727,
                "pitch": 74,
                "velocity": 40,
                "duration": 0.0272727,
                "tempo": 120.0
            },
            {
                "start_time": 3.2431818,
                "end_time": 3.3272727,
                "pitch": 70,
                "velocity": 40,
                "duration": 0.0840909,
                "tempo": 120.0
            },
            {
                "start_time": 3.3431818,
                "end_time": 3.4272727,
                "pitch": 69,
                "velocity": 40,
                "duration": 0.0840909,
                "tempo": 120.0
            },
            {
                "start_time": 3.4431818,
                "end_time": 3.5272727,
                "pitch": 70,
                "velocity": 40,
                "duration": 0.0840909,
                "tempo": 120.0
            },
            {
                "start_time": 3.5431818,
                "end_time": 3.6272727,
                "pitch": 69,
                "velocity": 40,
                "duration": 0.0840909,
                "tempo": 120.0
            },
            {
                "start_time": 3.6431818,
                "end_time": 3.8272727,
                "pitch": 70,
                "velocity": 40,
                "duration": 0.1840909,
                "tempo": 120.0
            },
            {
                "start_time": 3.8431818,
                "end_time": 3.9272727,
                "pitch": 70,
                "velocity": 40,
                "duration": 0.0840909,
                "tempo": 120.0
            },
            {
                "start_time": 3.9431818,
                "end_time": 4.0272727,
                "pitch": 69,
                "velocity": 40,
                "duration": 0.0840909,
                "tempo": 120.0
            },
            {
                "start_time": 4.0431818,
                "end_time": 4.1272727,
                "pitch": 70,
                "velocity": 40,
                "duration": 0.0840909,
                "tempo": 120.0
            },
            {
                "start_time": 4.1431818,
                "end_time": 4.2272727,
                "pitch": 69,
                "velocity": 40,
                "duration": 0.0840909,
                "tempo": 120.0
            },
            {
                "start_time": 4.2431818,
                "end_time": 4.4272727,
                "pitch": 70,
                "velocity": 40,
                "duration": 0.1840909,
                "tempo": 120.0
            },
            {
                "start_time": 4.4431818,
                "end_time": 4.5272727,
                "pitch": 70,
                "velocity": 40,
                "duration": 0.0840909,
                "tempo": 120.0
            },
            {
                "start_time": 4.5454545,
                "end_time": 4.6295455,
                "pitch": 69,
                "velocity": 40,
                "duration": 0.0840909,
                "tempo": 120.0
            },
            {
                "start_time": 4.6454545,
                "end_time": 4.7295455,
                "pitch": 70,
                "velocity": 40,
                "duration": 0.0840909,
                "tempo": 120.0
            },
            {
                "start_time": 4.7454545,
                "end_time": 4.8295455,
                "pitch": 69,
                "velocity": 40,
                "duration": 0.0840909,
                "tempo": 120.0
            },
            {
                "start_time": 4.8454545,
                "end_time": 5.0295455,
                "pitch": 70,
                "velocity": 40,
                "duration": 0.1840909,
                "tempo": 120.0
            },
            {
                "start_time": 5.0454545,
                "end_time": 5.1295455,
                "pitch": 70,
                "velocity": 40,
                "duration": 0.0840909,
                "tempo": 120.0
            },
            {
                "start_time": 5.1454545,
                "end_time": 5.2295455,
                "pitch": 69,
                "velocity": 40,
                "duration": 0.0840909,
                "tempo": 120.0
            },
            {
                "start_time": 5.2454545,
                "end_time": 5.3295455,
                "pitch": 70,
                "velocity": 40,
                "duration": 0.0840909,
                "tempo": 120.0
            },
            {
                "start_time": 5.3477273,
                "end_time": 5.4318182,
                "pitch": 69,
                "velocity": 40,
                "duration": 0.0840909,
                "tempo": 120.0
            },
            {
                "start_time": 5.4477273,
                "end_time": 5.6318182,
                "pitch": 70,
                "velocity": 40,
                "duration": 0.1840909,
                "tempo": 120.0
            },
            {
                "start_time": 5.65,
                "end_time": 5.7340909,
                "pitch": 70,
                "velocity": 40,
                "duration": 0.0840909,
                "tempo": 120.0
            },
            {
                "start_time": 5.75,
                "end_time": 5.8340909,
                "pitch": 69,
                "velocity": 40,
                "duration": 0.0840909,
                "tempo": 120.0
            },
            {
                "start_time": 5.85,
                "end_time": 5.9340909,
                "pitch": 70,
                "velocity": 40,
                "duration": 0.0840909,
                "tempo": 120.0
            },
            {
                "start_time": 5.9522727,
                "end_time": 6.0340909,
                "pitch": 71,
                "velocity": 40,
                "duration": 0.0818182,
                "tempo": 120.0
            },
            {
                "start_time": 6.0522727,
                "end_time": 6.1340909,
                "pitch": 72,
                "velocity": 40,
                "duration": 0.0818182,
                "tempo": 120.0
            },
            {
                "start_time": 6.1522727,
                "end_time": 6.2340909,
                "pitch": 73,
                "velocity": 40,
                "duration": 0.0818182,
                "tempo": 120.0
            },
            {
                "start_time": 6.2522727,
                "end_time": 6.3340909,
                "pitch": 74,
                "velocity": 40,
                "duration": 0.0818182,
                "tempo": 120.0
            },
            {
                "start_time": 6.3522727,
                "end_time": 6.4340909,
                "pitch": 75,
                "velocity": 40,
                "duration": 0.0818182,
                "tempo": 120.0
            },
            {
                "start_time": 6.4522727,
                "end_time": 9.7522727,
                "pitch": 78,
                "velocity": 40,
                "duration": 3.3,
                "tempo": 120.0
            },
            {
                "start_time": 9.7681818,
                "end_time": 9.8522727,
                "pitch": 69,
                "velocity": 40,
                "duration": 0.0840909,
                "tempo": 120.0
            },
            {
                "start_time": 9.8681818,
                "end_time": 9.9522727,
                "pitch": 70,
                "velocity": 40,
                "duration": 0.0840909,
                "tempo": 120.0
            },
            {
                "start_time": 9.9681818,
                "end_time": 10.0522727,
                "pitch": 69,
                "velocity": 40,
                "duration": 0.0840909,
                "tempo": 120.0
            },
            {
                "start_time": 10.0681818,
                "end_time": 10.2522727,
                "pitch": 70,
                "velocity": 40,
                "duration": 0.1840909,
                "tempo": 120.0
            },
            {
                "start_time": 10.2704545,
                "end_time": 10.3522727,
                "pitch": 70,
                "velocity": 40,
                "duration": 0.0818182,
                "tempo": 120.0
            },
            {
                "start_time": 10.3704545,
                "end_time": 10.4545455,
                "pitch": 69,
                "velocity": 40,
                "duration": 0.0840909,
                "tempo": 120.0
            },
            {
                "start_time": 10.4704545,
                "end_time": 10.5545455,
                "pitch": 70,
                "velocity": 40,
                "duration": 0.0840909,
                "tempo": 120.0
            },
            {
                "start_time": 10.5704545,
                "end_time": 10.6545455,
                "pitch": 69,
                "velocity": 40,
                "duration": 0.0840909,
                "tempo": 120.0
            },
            {
                "start_time": 10.6727273,
                "end_time": 10.8568182,
                "pitch": 70,
                "velocity": 40,
                "duration": 0.1840909,
                "tempo": 120.0
            },
            {
                "start_time": 10.8727273,
                "end_time": 10.9568182,
                "pitch": 70,
                "velocity": 40,
                "duration": 0.0840909,
                "tempo": 120.0
            },
            {
                "start_time": 10.975,
                "end_time": 11.0590909,
                "pitch": 69,
                "velocity": 40,
                "duration": 0.0840909,
                "tempo": 120.0
            },
            {
                "start_time": 11.075,
                "end_time": 11.1590909,
                "pitch": 70,
                "velocity": 40,
                "duration": 0.0840909,
                "tempo": 120.0
            },
            {
                "start_time": 11.175,
                "end_time": 11.2590909,
                "pitch": 69,
                "velocity": 40,
                "duration": 0.0840909,
                "tempo": 120.0
            },
            {
                "start_time": 11.275,
                "end_time": 11.4613636,
                "pitch": 70,
                "velocity": 40,
                "duration": 0.1863636,
                "tempo": 120.0
            },
            {
                "start_time": 11.4772727,
                "end_time": 11.5613636,
                "pitch": 70,
                "velocity": 40,
                "duration": 0.0840909,
                "tempo": 120.0
            },
            {
                "start_time": 11.5772727,
                "end_time": 11.6613636,
                "pitch": 69,
                "velocity": 40,
                "duration": 0.0840909,
                "tempo": 120.0
            },
            {
                "start_time": 11.6795455,
                "end_time": 11.7613636,
                "pitch": 70,
                "velocity": 40,
                "duration": 0.0818182,
                "tempo": 120.0
            },
            {
                "start_time": 11.7795455,
                "end_time": 11.8613636,
                "pitch": 69,
                "velocity": 40,
                "duration": 0.0818182,
                "tempo": 120.0
            },
            {
                "start_time": 11.8795455,
                "end_time": 12.0613636,
                "pitch": 70,
                "velocity": 40,
                "duration": 0.1818182,
                "tempo": 120.0
            },
            {
                "start_time": 12.0795455,
                "end_time": 12.1636364,
                "pitch": 70,
                "velocity": 40,
                "duration": 0.0840909,
                "tempo": 120.0
            },
            {
                "start_time": 12.1795455,
                "end_time": 12.2636364,
                "pitch": 69,
                "velocity": 40,
                "duration": 0.0840909,
                "tempo": 120.0
            },
            {
                "start_time": 12.2795455,
                "end_time": 12.3636364,
                "pitch": 68,
                "velocity": 40,
                "duration": 0.0840909,
                "tempo": 120.0
            },
            {
                "start_time": 12.3818182,
                "end_time": 12.4636364,
                "pitch": 67,
                "velocity": 40,
                "duration": 0.0818182,
                "tempo": 120.0
            },
            {
                "start_time": 12.4818182,
                "end_time": 12.5659091,
                "pitch": 66,
                "velocity": 40,
                "duration": 0.0840909,
                "tempo": 120.0
            },
            {
                "start_time": 12.5818182,
                "end_time": 12.6659091,
                "pitch": 65,
                "velocity": 40,
                "duration": 0.0840909,
                "tempo": 120.0
            },
            {
                "start_time": 12.6818182,
                "end_time": 12.7659091,
                "pitch": 64,
                "velocity": 40,
                "duration": 0.0840909,
                "tempo": 120.0
            },
            {
                "start_time": 12.7840909,
                "end_time": 12.8681818,
                "pitch": 63,
                "velocity": 40,
                "duration": 0.0840909,
                "tempo": 120.0
            },
            {
                "start_time": 12.8840909,
                "end_time": 22.6022727,
                "pitch": 66,
                "velocity": 40,
                "duration": 9.7181818,
                "tempo": 120.0
            },
            {
                "start_time": 22.6181818,
                "end_time": 22.7022727,
                "pitch": 69,
                "velocity": 40,
                "duration": 0.0840909,
                "tempo": 120.0
            },
            {
                "start_time": 22.7181818,
                "end_time": 22.8022727,
                "pitch": 70,
                "velocity": 40,
                "duration": 0.0840909,
                "tempo": 120.0
            },
            {
                "start_time": 22.8181818,
                "end_time": 22.9022727,
                "pitch": 69,
                "velocity": 40,
                "duration": 0.0840909,
                "tempo": 120.0
            },
            {
                "start_time": 22.9181818,
                "end_time": 23.1022727,
                "pitch": 70,
                "velocity": 40,
                "duration": 0.1840909,
                "tempo": 120.0
            },
            {
                "start_time": 23.1181818,
                "end_time": 23.2022727,
                "pitch": 70,
                "velocity": 40,
                "duration": 0.0840909,
                "tempo": 120.0
            },
            {
                "start_time": 23.2181818,
                "end_time": 23.3022727,
                "pitch": 69,
                "velocity": 40,
                "duration": 0.0840909,
                "tempo": 120.0
            },
            {
                "start_time": 23.3181818,
                "end_time": 23.4022727,
                "pitch": 70,
                "velocity": 40,
                "duration": 0.0840909,
                "tempo": 120.0
            },
            {
                "start_time": 23.4204545,
                "end_time": 23.5045455,
                "pitch": 69,
                "velocity": 40,
                "duration": 0.0840909,
                "tempo": 120.0
            },
            {
                "start_time": 23.5204545,
                "end_time": 23.7045455,
                "pitch": 70,
                "velocity": 40,
                "duration": 0.1840909,
                "tempo": 120.0
            },
            {
                "start_time": 23.7204545,
                "end_time": 23.8045455,
                "pitch": 70,
                "velocity": 40,
                "duration": 0.0840909,
                "tempo": 120.0
            },
            {
                "start_time": 23.8204545,
                "end_time": 23.9045455,
                "pitch": 69,
                "velocity": 40,
                "duration": 0.0840909,
                "tempo": 120.0
            },
            {
                "start_time": 23.9204545,
                "end_time": 24.0045455,
                "pitch": 70,
                "velocity": 40,
                "duration": 0.0840909,
                "tempo": 120.0
            },
            {
                "start_time": 24.0204545,
                "end_time": 24.1045455,
                "pitch": 69,
                "velocity": 40,
                "duration": 0.0840909,
                "tempo": 120.0
            },
            {
                "start_time": 24.1227273,
                "end_time": 24.3068182,
                "pitch": 70,
                "velocity": 40,
                "duration": 0.1840909,
                "tempo": 120.0
            },
            {
                "start_time": 24.3227273,
                "end_time": 24.4068182,
                "pitch": 70,
                "velocity": 40,
                "duration": 0.0840909,
                "tempo": 120.0
            },
            {
                "start_time": 24.4227273,
                "end_time": 24.5068182,
                "pitch": 69,
                "velocity": 40,
                "duration": 0.0840909,
                "tempo": 120.0
            },
            {
                "start_time": 24.525,
                "end_time": 24.6068182,
                "pitch": 70,
                "velocity": 40,
                "duration": 0.0818182,
                "tempo": 120.0
            },
            {
                "start_time": 24.625,
                "end_time": 24.7068182,
                "pitch": 69,
                "velocity": 40,
                "duration": 0.0818182,
                "tempo": 120.0
            },
            {
                "start_time": 24.725,
                "end_time": 24.9068182,
                "pitch": 70,
                "velocity": 40,
                "duration": 0.1818182,
                "tempo": 120.0
            },
            {
                "start_time": 24.925,
                "end_time": 25.0068182,
                "pitch": 70,
                "velocity": 40,
                "duration": 0.0818182,
                "tempo": 120.0
            },
            {
                "start_time": 25.025,
                "end_time": 25.1068182,
                "pitch": 69,
                "velocity": 40,
                "duration": 0.0818182,
                "tempo": 120.0
            },
            {
                "start_time": 25.125,
                "end_time": 25.2068182,
                "pitch": 70,
                "velocity": 40,
                "duration": 0.0818182,
                "tempo": 120.0
            },
            {
                "start_time": 25.225,
                "end_time": 25.3068182,
                "pitch": 71,
                "velocity": 40,
                "duration": 0.0818182,
                "tempo": 120.0
            },
            {
                "start_time": 25.325,
                "end_time": 25.4090909,
                "pitch": 72,
                "velocity": 40,
                "duration": 0.0840909,
                "tempo": 120.0
            },
            {
                "start_time": 25.425,
                "end_time": 25.5090909,
                "pitch": 73,
                "velocity": 40,
                "duration": 0.0840909,
                "tempo": 120.0
            },
            {
                "start_time": 25.525,
                "end_time": 25.6090909,
                "pitch": 74,
                "velocity": 40,
                "duration": 0.0840909,
                "tempo": 120.0
            },
            {
                "start_time": 25.6272727,
                "end_time": 25.7090909,
                "pitch": 75,
                "velocity": 40,
                "duration": 0.0818182,
                "tempo": 120.0
            },
            {
                "start_time": 25.7272727,
                "end_time": 29.0181818,
                "pitch": 78,
                "velocity": 40,
                "duration": 3.2909091,
                "tempo": 120.0
            },
            {
                "start_time": 29.0340909,
                "end_time": 29.1181818,
                "pitch": 69,
                "velocity": 40,
                "duration": 0.0840909,
                "tempo": 120.0
            },
            {
                "start_time": 29.1340909,
                "end_time": 29.2181818,
                "pitch": 70,
                "velocity": 40,
                "duration": 0.0840909,
                "tempo": 120.0
            },
            {
                "start_time": 29.2340909,
                "end_time": 29.3181818,
                "pitch": 69,
                "velocity": 40,
                "duration": 0.0840909,
                "tempo": 120.0
            },
            {
                "start_time": 29.3340909,
                "end_time": 29.5204545,
                "pitch": 70,
                "velocity": 40,
                "duration": 0.1863636,
                "tempo": 120.0
            },
            {
                "start_time": 29.5363636,
                "end_time": 29.6204545,
                "pitch": 70,
                "velocity": 40,
                "duration": 0.0840909,
                "tempo": 120.0
            },
            {
                "start_time": 29.6363636,
                "end_time": 29.7204545,
                "pitch": 69,
                "velocity": 40,
                "duration": 0.0840909,
                "tempo": 120.0
            },
            {
                "start_time": 29.7386364,
                "end_time": 29.8204545,
                "pitch": 70,
                "velocity": 40,
                "duration": 0.0818182,
                "tempo": 120.0
            },
            {
                "start_time": 29.8386364,
                "end_time": 29.9204545,
                "pitch": 69,
                "velocity": 40,
                "duration": 0.0818182,
                "tempo": 120.0
            },
            {
                "start_time": 29.9386364,
                "end_time": 30.1204545,
                "pitch": 70,
                "velocity": 40,
                "duration": 0.1818182,
                "tempo": 120.0
            },
            {
                "start_time": 30.1386364,
                "end_time": 30.2227273,
                "pitch": 70,
                "velocity": 40,
                "duration": 0.0840909,
                "tempo": 120.0
            },
            {
                "start_time": 30.2386364,
                "end_time": 30.3227273,
                "pitch": 69,
                "velocity": 40,
                "duration": 0.0840909,
                "tempo": 120.0
            },
            {
                "start_time": 30.3386364,
                "end_time": 30.4227273,
                "pitch": 70,
                "velocity": 40,
                "duration": 0.0840909,
                "tempo": 120.0
            },
            {
                "start_time": 30.4409091,
                "end_time": 30.5227273,
                "pitch": 69,
                "velocity": 40,
                "duration": 0.0818182,
                "tempo": 120.0
            },
            {
                "start_time": 30.5409091,
                "end_time": 30.7227273,
                "pitch": 70,
                "velocity": 40,
                "duration": 0.1818182,
                "tempo": 120.0
            },
            {
                "start_time": 30.7409091,
                "end_time": 30.8227273,
                "pitch": 70,
                "velocity": 40,
                "duration": 0.0818182,
                "tempo": 120.0
            },
            {
                "start_time": 30.8409091,
                "end_time": 30.9227273,
                "pitch": 69,
                "velocity": 40,
                "duration": 0.0818182,
                "tempo": 120.0
            },
            {
                "start_time": 30.9409091,
                "end_time": 31.0227273,
                "pitch": 70,
                "velocity": 40,
                "duration": 0.0818182,
                "tempo": 120.0
            },
            {
                "start_time": 31.0409091,
                "end_time": 31.1227273,
                "pitch": 69,
                "velocity": 40,
                "duration": 0.0818182,
                "tempo": 120.0
            },
            {
                "start_time": 31.1409091,
                "end_time": 31.3227273,
                "pitch": 70,
                "velocity": 40,
                "duration": 0.1818182,
                "tempo": 120.0
            },
            {
                "start_time": 31.3409091,
                "end_time": 31.425,
                "pitch": 70,
                "velocity": 40,
                "duration": 0.0840909,
                "tempo": 120.0
            },
            {
                "start_time": 31.4409091,
                "end_time": 31.525,
                "pitch": 69,
                "velocity": 40,
                "duration": 0.0840909,
                "tempo": 120.0
            },
            {
                "start_time": 31.5409091,
                "end_time": 31.625,
                "pitch": 68,
                "velocity": 40,
                "duration": 0.0840909,
                "tempo": 120.0
            },
            {
                "start_time": 31.6431818,
                "end_time": 31.7272727,
                "pitch": 67,
                "velocity": 40,
                "duration": 0.0840909,
                "tempo": 120.0
            },
            {
                "start_time": 31.7431818,
                "end_time": 31.8272727,
                "pitch": 66,
                "velocity": 40,
                "duration": 0.0840909,
                "tempo": 120.0
            },
            {
                "start_time": 31.8431818,
                "end_time": 31.9272727,
                "pitch": 65,
                "velocity": 40,
                "duration": 0.0840909,
                "tempo": 120.0
            },
            {
                "start_time": 31.9431818,
                "end_time": 32.0272727,
                "pitch": 64,
                "velocity": 40,
                "duration": 0.0840909,
                "tempo": 120.0
            },
            {
                "start_time": 32.0431818,
                "end_time": 32.1272727,
                "pitch": 63,
                "velocity": 40,
                "duration": 0.0840909,
                "tempo": 120.0
            }
        ]
    }
}