{
    "mood": "happy",
    "instruments": {
        "Violin": [
            {
                "start_time": 0.0136364,
                "end_time": 0.6704545,
                "pitch": 65,
                "velocity": 127,
                "duration": 0.6568182,
                "tempo": 120.0
            },
            {
                "start_time": 0.7022727,
                "end_time": 0.9045455,
                "pitch": 70,
                "velocity": 127,
                "duration": 0.2022727,
                "tempo": 120.0
            },
            {
                "start_time": 0.9204545,
                "end_time": 1.8659091,
                "pitch": 77,
                "velocity": 127,
                "duration": 0.9454545,
                "tempo": 120.0
            },
            {
                "start_time": 1.9,
                "end_time": 2.2,
                "pitch": 75,
                "velocity": 127,
                "duration": 0.3,
                "tempo": 120.0
            },
            {
                "start_time": 2.2159091,
                "end_time": 2.5136364,
                "pitch": 73,
                "velocity": 127,
                "duration": 0.2977273,
                "tempo": 120.0
            },
            {
                "start_time": 2.5295455,
                "end_time": 2.825,
                "pitch": 72,
                "velocity": 127,
                "duration": 0.2954545,
                "tempo": 120.0
            },
            {
                "start_time": 2.8431818,
                "end_time": 3.1409091,
                "pitch": 70,
                "velocity": 127,
                "duration": 0.2977273,
                "tempo": 120.0
            },
            {
                "start_time": 3.1590909,
                "end_time": 3.4590909,
                "pitch": 72,
                "velocity": 127,
                "duration": 0.3,
                "tempo": 120.0
            },
            {
                "start_time": 3.4909091,
                "end_time": 3.7909091,
                "pitch": 68,
                "velocity": 127,
                "duration": 0.3,
                "tempo": 120.0
            },
            {
                "start_time": 3.8090909,
                "end_time": 4.5227273,
                "pitch": 66,
                "velocity": 127,
                "duration": 0.7136364,
                "tempo": 120.0
            },
            {
                "start_time": 4.5386364,
                "end_time": 4.7568182,
                "pitch": 70,
                "velocity": 127,
                "duration": 0.2181818,
                "tempo": 120.0
            },
            {
                "start_time": 4.775,
                "end_time": 5.7159091,
                "pitch": 78,
                "velocity": 127,
                "duration": 0.9409091,
                "tempo": 120.0
            },
            {
                "start_time": 5.7340909,
                "end_time": 6.0363636,
                "pitch": 77,
                "velocity": 127,
                "duration": 0.3022727,
                "tempo": 120.0
            },
            {
                "start_time": 6.0522727,
                "end_time": 6.3568182,
                "pitch": 75,
                "velocity": 127,
                "duration": 0.3045455,
                "tempo": 120.0
            },
            {
                "start_time": 6.375,
                "end_time": 6.6818182,
                "pitch": 73,
                "velocity": 127,
                "duration": 0.3068182,
                "tempo": 120.0
            },
            {
                "start_time": 6.7159091,
                "end_time": 7.6409091,
                "pitch": 72,
                "velocity": 127,
                "duration": 0.925,
                "tempo": 120.0
            },
            {
                "start_time": 7.6568182,
                "end_time": 8.3590909,
                "pitch": 65,
                "velocity": 127,
                "duration": 0.7022727,
                "tempo": 120.0
            },
            {
                "start_time": 8.3772727,
                "end_time": 8.6113636,
                "pitch": 70,
                "velocity": 127,
                "duration": 0.2340909,
                "tempo": 120.0
            },
            {
                "start_time": 8.6272727,
                "end_time": 9.5727273,
                "pitch": 77,
                "velocity": 127,
                "duration": 0.9454545,
                "tempo": 120.0
            },
            {
                "start_time": 9.5909091,
                "end_time": 9.8863636,
                "pitch": 75,
                "velocity": 127,
                "duration": 0.2954545,
                "tempo": 120.0
            },
            {
                "start_time": 9.9181818,
                "end_time": 10.2159091,
                "pitch": 73,
                "velocity": 127,
                "duration": 0.2977273,
                "tempo": 120.0
            },
            {
                "start_time": 10.2340909,
                "end_time": 10.5363636,
                "pitch": 72,
                "velocity": 127,
                "duration": 0.3022727,
                "tempo": 120.0
            },
            {
                "start_time": 10.5522727,
                "end_time": 10.8545455,
                "pitch": 70,
                "velocity": 127,
                "duration": 0.3022727,
                "tempo": 120.0
            },
            {
                "start_time": 10.8727273,
                "end_time": 11.1772727,
                "pitch": 72,
                "velocity": 127,
                "duration": 0.3045455,
                "tempo": 120.0
            },
            {
                "start_time": 11.1931818,
                "end_time": 11.5,
                "pitch": 68,
                "velocity": 127,
                "duration": 0.3068182,
                "tempo": 120.0
            },
            {
                "start_time": 11.5340909,
                "end_time": 12.2363636,
                "pitch": 66,
                "velocity": 127,
                "duration": 0.7022727,
                "tempo": 120.0
            },
            {
                "start_time": 12.2522727,
                "end_time": 12.4659091,
                "pitch": 70,
                "velocity": 127,
                "duration": 0.2136364,
                "tempo": 120.0
            },
            {
                "start_time": 12.4818182,
                "end_time": 13.4340909,
                "pitch": 78,
                "velocity": 127,
                "duration": 0.9522727,
                "tempo": 120.0
            },
            {
                "start_time": 13.4522727,
                "end_time": 13.7590909,
                "pitch": 77,
                "velocity": 127,
                "duration": 0.3068182,
                "tempo": 120.0
            },
            {
                "start_time": 13.7772727,
                "end_time": 14.0818182,
                "pitch": 75,
                "velocity": 127,
                "duration": 0.3045455,
                "tempo": 120.0
            },
            {
                "start_time": 14.0977273,
                "end_time": 14.4,
                "pitch": 73,
                "velocity": 127,
                "duration": 0.3022727,
                "tempo": 120.0
            },
            {
                "start_time": 14.4181818,
                "end_time": 15.3590909,
                "pitch": 65,
                "velocity": 127,
                "duration": 0.9409091,
                "tempo": 120.0
            },
            {
                "start_time": 80.9409091,
                "end_time": 80.975,
                "pitch": 65,
                "velocity": 127,
                "duration": 0.0340909,
                "tempo": 120.0
            }
        ],
        "Lead 2 (sawtooth)": [
            {
                "start_time": 15.3772727,
                "end_time": 15.8545455,
                "pitch": 51,
                "velocity": 64,
                "duration": 0.4772727,
                "tempo": 120.0
            },
            {
                "start_time": 15.8704545,
                "end_time": 16.5772727,
                "pitch": 53,
                "velocity": 64,
                "duration": 0.7068182,
                "tempo": 120.0
            },
            {
                "start_time": 16.5931818,
                "end_time": 16.6954545,
                "pitch": 53,
                "velocity": 64,
                "duration": 0.1022727,
                "tempo": 120.0
            },
            {
                "start_time": 16.7113636,
                "end_time": 16.8113636,
                "pitch": 54,
                "velocity": 64,
                "duration": 0.1,
                "tempo": 120.0
            },
            {
                "start_time": 16.8295455,
                "end_time": 16.9295455,
                "pitch": 53,
                "velocity": 64,
                "duration": 0.1,
                "tempo": 120.0
            },
            {
                "start_time": 16.9636364,
                "end_time": 17.0636364,
                "pitch": 51,
                "velocity": 64,
                "duration": 0.1,
                "tempo": 120.0
            },
            {
                "start_time": 17.0818182,
                "end_time": 17.1818182,
                "pitch": 49,
                "velocity": 64,
                "duration": 0.1,
                "tempo": 120.0
            },
            {
                "start_time": 17.1977273,
                "end_time": 17.3,
                "pitch": 48,
                "velocity": 64,
                "duration": 0.1022727,
                "tempo": 120.0
            },
            {
                "start_time": 17.3159091,
                "end_time": 17.775,
                "pitch": 51,
                "velocity": 64,
                "duration": 0.4590909,
                "tempo": 120.0
            },
            {
                "start_time": 17.7909091,
                "end_time": 18.2704545,
                "pitch": 53,
                "velocity": 64,
                "duration": 0.4795455,
                "tempo": 120.0
            },
            {
                "start_time": 18.4022727,
                "end_time": 18.5,
                "pitch": 48,
                "velocity": 64,
                "duration": 0.0977273,
                "tempo": 120.0
            },
            {
                "start_time": 18.6318182,
                "end_time": 18.7295455,
                "pitch": 49,
                "velocity": 64,
                "duration": 0.0977273,
                "tempo": 120.0
            },
            {
                "start_time": 18.7613636,
                "end_time": 19.2227273,
                "pitch": 49,
                "velocity": 64,
                "duration": 0.4613636,
                "tempo": 120.0
            },
            {
                "start_time": 19.2409091,
                "end_time": 19.7,
                "pitch": 51,
                "velocity": 64,
                "duration": 0.4590909,
                "tempo": 120.0
            },
            {
                "start_time": 19.7159091,
                "end_time": 20.4204545,
                "pitch": 53,
                "velocity": 64,
                "duration": 0.7045455,
                "tempo": 120.0
            },
            {
                "start_time": 20.4363636,
                "end_time": 20.5363636,
                "pitch": 53,
                "velocity": 64,
                "duration": 0.1,
                "tempo": 120.0
            },
            {
                "start_time": 20.5704545,
                "end_time": 20.6704545,
                "pitch": 54,
                "velocity": 64,
                "duration": 0.1,
                "tempo": 120.0
            },
            {
                "start_time": 20.6863636,
                "end_time": 20.7886364,
                "pitch": 53,
                "velocity": 64,
                "duration": 0.1022727,
                "tempo": 120.0
            },
            {
                "start_time": 20.8068182,
                "end_time": 20.9090909,
                "pitch": 51,
                "velocity": 64,
                "duration": 0.1022727,
                "tempo": 120.0
            },
            {
                "start_time": 20.925,
                "end_time": 21.0272727,
                "pitch": 49,
                "velocity": 64,
                "duration": 0.1022727,
                "tempo": 120.0
            },
            {
                "start_time": 21.0454545,
                "end_time": 21.1477273,
                "pitch": 48,
                "velocity": 64,
                "duration": 0.1022727,
                "tempo": 120.0
            },
            {
                "start_time": 21.1818182,
                "end_time": 21.6340909,
                "pitch": 51,
                "velocity": 64,
                "duration": 0.4522727,
                "tempo": 120.0
            },
            {
                "start_time": 21.6522727,
                "end_time": 22.1113636,
                "pitch": 53,
                "velocity": 64,
                "duration": 0.4590909,
                "tempo": 120.0
            },
            {
                "start_time": 22.1272727,
                "end_time": 22.2295455,
                "pitch": 60,
                "velocity": 64,
                "duration": 0.1022727,
                "tempo": 120.0
            },
            {
                "start_time": 22.2454545,
                "end_time": 22.3454545,
                "pitch": 66,
                "velocity": 64,
                "duration": 0.1,
                "tempo": 120.0
            },
            {
                "start_time": 22.3795455,
                "end_time": 22.4795455,
                "pitch": 65,
                "velocity": 64,
                "duration": 0.1,
                "tempo": 120.0
            },
            {
                "start_time": 22.4977273,
                "end_time": 22.5977273,
                "pitch": 63,
                "velocity": 64,
                "duration": 0.1,
                "tempo": 120.0
            },
            {
                "start_time": 22.6159091,
                "end_time": 22.7181818,
                "pitch": 61,
                "velocity": 64,
                "duration": 0.1022727,
                "tempo": 120.0
            },
            {
                "start_time": 22.7340909,
                "end_time": 22.8363636,
                "pitch": 58,
                "velocity": 64,
                "duration": 0.1022727,
                "tempo": 120.0
            },
            {
                "start_time": 22.8545455,
                "end_time": 22.9568182,
                "pitch": 61,
                "velocity": 64,
                "duration": 0.1022727,
                "tempo": 120.0
            },
            {
                "start_time": 22.9909091,
                "end_time": 23.0931818,
                "pitch": 65,
                "velocity": 64,
                "duration": 0.1022727,
                "tempo": 120.0
            },
            {
                "start_time": 38.5409091,
                "end_time": 39.0022727,
                "pitch": 51,
                "velocity": 64,
                "duration": 0.4613636,
                "tempo": 120.0
            },
            {
                "start_time": 39.0181818,
                "end_time": 39.7181818,
                "pitch": 53,
                "velocity": 64,
                "duration": 0.7,
                "tempo": 120.0
            },
            {
                "start_time": 39.7340909,
                "end_time": 39.8318182,
                "pitch": 53,
                "velocity": 64,
                "duration": 0.0977273,
                "tempo": 120.0
            },
            {
                "start_time": 39.8659091,
                "end_time": 39.9636364,
                "pitch": 54,
                "velocity": 64,
                "duration": 0.0977273,
                "tempo": 120.0
            },
            {
                "start_time": 39.9795455,
                "end_time": 40.0818182,
                "pitch": 53,
                "velocity": 64,
                "duration": 0.1022727,
                "tempo": 120.0
            },
            {
                "start_time": 40.1,
                "end_time": 40.2022727,
                "pitch": 51,
                "velocity": 64,
                "duration": 0.1022727,
                "tempo": 120.0
            },
            {
                "start_time": 40.2204545,
                "end_time": 40.3227273,
                "pitch": 49,
                "velocity": 64,
                "duration": 0.1022727,
                "tempo": 120.0
            },
            {
                "start_time": 40.3386364,
                "end_time": 40.4409091,
                "pitch": 48,
                "velocity": 64,
                "duration": 0.1022727,
                "tempo": 120.0
            },
            {
                "start_time": 40.475,
                "end_time": 40.925,
                "pitch": 51,
                "velocity": 64,
                "duration": 0.45,
                "tempo": 120.0
            },
            {
                "start_time": 40.9431818,
                "end_time": 41.4022727,
                "pitch": 53,
                "velocity": 64,
                "duration": 0.4590909,
                "tempo": 120.0
            },
            {
                "start_time": 41.5363636,
                "end_time": 41.6363636,
                "pitch": 48,
                "velocity": 64,
                "duration": 0.1,
                "tempo": 120.0
            },
            {
                "start_time": 41.7863636,
                "end_time": 41.8886364,
                "pitch": 49,
                "velocity": 64,
                "duration": 0.1022727,
                "tempo": 120.0
            },
            {
                "start_time": 41.9045455,
                "end_time": 42.3840909,
                "pitch": 49,
                "velocity": 64,
                "duration": 0.4795455,
                "tempo": 120.0
            },
            {
                "start_time": 42.4,
                "end_time": 42.8545455,
                "pitch": 51,
                "velocity": 64,
                "duration": 0.4545455,
                "tempo": 120.0
            },
            {
                "start_time": 42.8863636,
                "end_time": 43.5840909,
                "pitch": 53,
                "velocity": 64,
                "duration": 0.6977273,
                "tempo": 120.0
            },
            {
                "start_time": 43.6,
                "end_time": 43.6977273,
                "pitch": 53,
                "velocity": 64,
                "duration": 0.0977273,
                "tempo": 120.0
            },
            {
                "start_time": 43.7159091,
                "end_time": 43.8136364,
                "pitch": 54,
                "velocity": 64,
                "duration": 0.0977273,
                "tempo": 120.0
            },
            {
                "start_time": 43.8295455,
                "end_time": 43.9318182,
                "pitch": 53,
                "velocity": 64,
                "duration": 0.1022727,
                "tempo": 120.0
            },
            {
                "start_time": 43.9477273,
                "end_time": 44.0522727,
                "pitch": 51,
                "velocity": 64,
                "duration": 0.1045455,
                "tempo": 120.0
            },
            {
                "start_time": 44.0863636,
                "end_time": 44.1886364,
                "pitch": 49,
                "velocity": 64,
                "duration": 0.1022727,
                "tempo": 120.0
            },
            {
                "start_time": 44.2045455,
                "end_time": 44.3068182,
                "pitch": 48,
                "velocity": 64,
                "duration": 0.1022727,
                "tempo": 120.0
            },
            {
                "start_time": 44.325,
                "end_time": 44.7840909,
                "pitch": 51,
                "velocity": 64,
                "duration": 0.4590909,
                "tempo": 120.0
            },
            {
                "start_time": 44.8,
                "end_time": 45.2613636,
                "pitch": 53,
                "velocity": 64,
                "duration": 0.4613636,
                "tempo": 120.0
            },
            {
                "start_time": 45.2954545,
                "end_time": 45.3954545,
                "pitch": 60,
                "velocity": 64,
                "duration": 0.1,
                "tempo": 120.0
            },
            {
                "start_time": 45.4113636,
                "end_time": 45.5113636,
                "pitch": 66,
                "velocity": 64,
                "duration": 0.1,
                "tempo": 120.0
            },
            {
                "start_time": 45.5272727,
                "end_time": 45.6272727,
                "pitch": 65,
                "velocity": 64,
                "duration": 0.1,
                "tempo": 120.0
            },
            {
                "start_time": 45.6454545,
                "end_time": 45.7454545,
                "pitch": 63,
                "velocity": 64,
                "duration": 0.1,
                "tempo": 120.0
            },
            {
                "start_time": 45.7613636,
                "end_time": 45.8590909,
                "pitch": 61,
                "velocity": 64,
                "duration": 0.0977273,
                "tempo": 120.0
            },
            {
                "start_time": 45.8931818,
                "end_time": 45.9909091,
                "pitch": 58,
                "velocity": 64,
                "duration": 0.0977273,
                "tempo": 120.0
            },
            {
                "start_time": 46.0068182,
                "end_time": 46.1068182,
                "pitch": 61,
                "velocity": 64,
                "duration": 0.1,
                "tempo": 120.0
            },
            {
                "start_time": 46.1227273,
                "end_time": 46.2204545,
                "pitch": 65,
                "velocity": 64,
                "duration": 0.0977273,
                "tempo": 120.0
            }
        ],
        "Trumpet": [
            {
                "start_time": 23.1090909,
                "end_time": 23.8159091,
                "pitch": 72,
                "velocity": 64,
                "duration": 0.7068182,
                "tempo": 120.0
            },
            {
                "start_time": 23.8318182,
                "end_time": 23.9,
                "pitch": 72,
                "velocity": 64,
                "duration": 0.0681818,
                "tempo": 120.0
            },
            {
                "start_time": 23.9159091,
                "end_time": 23.9659091,
                "pitch": 73,
                "velocity": 64,
                "duration": 0.05,
                "tempo": 120.0
            },
            {
                "start_time": 24.0,
                "end_time": 24.05,
                "pitch": 72,
                "velocity": 64,
                "duration": 0.05,
                "tempo": 120.0
            },
            {
                "start_time": 24.0681818,
                "end_time": 24.7613636,
                "pitch": 70,
                "velocity": 64,
                "duration": 0.6931818,
                "tempo": 120.0
            },
            {
                "start_time": 24.7954545,
                "end_time": 24.8454545,
                "pitch": 70,
                "velocity": 64,
                "duration": 0.05,
                "tempo": 120.0
            },
            {
                "start_time": 24.8636364,
                "end_time": 24.9295455,
                "pitch": 73,
                "velocity": 64,
                "duration": 0.0659091,
                "tempo": 120.0
            },
            {
                "start_time": 24.9454545,
                "end_time": 25.0136364,
                "pitch": 77,
                "velocity": 64,
                "duration": 0.0681818,
                "tempo": 120.0
            },
            {
                "start_time": 25.0295455,
                "end_time": 25.7431818,
                "pitch": 78,
                "velocity": 64,
                "duration": 0.7136364,
                "tempo": 120.0
            },
            {
                "start_time": 25.7613636,
                "end_time": 25.8272727,
                "pitch": 70,
                "velocity": 64,
                "duration": 0.0659091,
                "tempo": 120.0
            },
            {
                "start_time": 25.8454545,
                "end_time": 25.9113636,
                "pitch": 73,
                "velocity": 64,
                "duration": 0.0659091,
                "tempo": 120.0
            },
            {
                "start_time": 25.9295455,
                "end_time": 25.9795455,
                "pitch": 77,
                "velocity": 64,
                "duration": 0.05,
                "tempo": 120.0
            },
            {
                "start_time": 26.0136364,
                "end_time": 26.7136364,
                "pitch": 80,
                "velocity": 64,
                "duration": 0.7,
                "tempo": 120.0
            },
            {
                "start_time": 26.7295455,
                "end_time": 26.7795455,
                "pitch": 70,
                "velocity": 64,
                "duration": 0.05,
                "tempo": 120.0
            },
            {
                "start_time": 26.8113636,
                "end_time": 26.8613636,
                "pitch": 73,
                "velocity": 64,
                "duration": 0.05,
                "tempo": 120.0
            },
            {
                "start_time": 26.8772727,
                "end_time": 26.9431818,
                "pitch": 77,
                "velocity": 64,
                "duration": 0.0659091,
                "tempo": 120.0
            },
            {
                "start_time": 26.9590909,
                "end_time": 27.6636364,
                "pitch": 82,
                "velocity": 64,
                "duration": 0.7045455,
                "tempo": 120.0
            },
            {
                "start_time": 27.6818182,
                "end_time": 27.7477273,
                "pitch": 70,
                "velocity": 64,
                "duration": 0.0659091,
                "tempo": 120.0
            },
            {
                "start_time": 27.7659091,
                "end_time": 27.8318182,
                "pitch": 73,
                "velocity": 64,
                "duration": 0.0659091,
                "tempo": 120.0
            },
            {
                "start_time": 27.85,
                "end_time": 27.9159091,
                "pitch": 77,
                "velocity": 64,
                "duration": 0.0659091,
                "tempo": 120.0
            },
            {
                "start_time": 27.9340909,
                "end_time": 28.6477273,
                "pitch": 84,
                "velocity": 64,
                "duration": 0.7136364,
                "tempo": 120.0
            },
            {
                "start_time": 28.6636364,
                "end_time": 28.8818182,
                "pitch": 85,
                "velocity": 64,
                "duration": 0.2181818,
                "tempo": 120.0
            },
            {
                "start_time": 28.9,
                "end_time": 29.5931818,
                "pitch": 84,
                "velocity": 64,
                "duration": 0.6931818,
                "tempo": 120.0
            },
            {
                "start_time": 29.6272727,
                "end_time": 29.8454545,
                "pitch": 85,
                "velocity": 64,
                "duration": 0.2181818,
                "tempo": 120.0
            },
            {
                "start_time": 29.8613636,
                "end_time": 30.8068182,
                "pitch": 82,
                "velocity": 64,
                "duration": 0.9454545,
                "tempo": 120.0
            },
            {
                "start_time": 30.8409091,
                "end_time": 31.2931818,
                "pitch": 85,
                "velocity": 64,
                "duration": 0.4522727,
                "tempo": 120.0
            },
            {
                "start_time": 31.3113636,
                "end_time": 31.7704545,
                "pitch": 89,
                "velocity": 64,
                "duration": 0.4590909,
                "tempo": 120.0
            },
            {
                "start_time": 31.7863636,
                "end_time": 32.2568182,
                "pitch": 84,
                "velocity": 64,
                "duration": 0.4704545,
                "tempo": 120.0
            },
            {
                "start_time": 32.2727273,
                "end_time": 32.7409091,
                "pitch": 87,
                "velocity": 64,
                "duration": 0.4681818,
                "tempo": 120.0
            },
            {
                "start_time": 32.7568182,
                "end_time": 33.2181818,
                "pitch": 82,
                "velocity": 64,
                "duration": 0.4613636,
                "tempo": 120.0
            },
            {
                "start_time": 33.2522727,
                "end_time": 33.7022727,
                "pitch": 85,
                "velocity": 64,
                "duration": 0.45,
                "tempo": 120.0
            },
            {
                "start_time": 33.7181818,
                "end_time": 33.9477273,
                "pitch": 84,
                "velocity": 64,
                "duration": 0.2295455,
                "tempo": 120.0
            },
            {
                "start_time": 33.9636364,
                "end_time": 34.4113636,
                "pitch": 82,
                "velocity": 64,
                "duration": 0.4477273,
                "tempo": 120.0
            },
            {
                "start_time": 34.4431818,
                "end_time": 34.6613636,
                "pitch": 80,
                "velocity": 64,
                "duration": 0.2181818,
                "tempo": 120.0
            },
            {
                "start_time": 34.6772727,
                "end_time": 34.7795455,
                "pitch": 85,
                "velocity": 64,
                "duration": 0.1022727,
                "tempo": 120.0
            },
            {
                "start_time": 34.7977273,
                "end_time": 34.9,
                "pitch": 89,
                "velocity": 64,
                "duration": 0.1022727,
                "tempo": 120.0
            },
            {
                "start_time": 34.9159091,
                "end_time": 35.0181818,
                "pitch": 87,
                "velocity": 64,
                "duration": 0.1022727,
                "tempo": 120.0
            },
            {
                "start_time": 35.0522727,
                "end_time": 35.1545455,
                "pitch": 85,
                "velocity": 64,
                "duration": 0.1022727,
                "tempo": 120.0
            },
            {
                "start_time": 35.1727273,
                "end_time": 35.2727273,
                "pitch": 84,
                "velocity": 64,
                "duration": 0.1,
                "tempo": 120.0
            },
            {
                "start_time": 35.2886364,
                "end_time": 35.3886364,
                "pitch": 87,
                "velocity": 64,
                "duration": 0.1,
                "tempo": 120.0
            },
            {
                "start_time": 35.4068182,
                "end_time": 35.5068182,
                "pitch": 85,
                "velocity": 64,
                "duration": 0.1,
                "tempo": 120.0
            },
            {
                "start_time": 35.5227273,
                "end_time": 35.6227273,
                "pitch": 84,
                "velocity": 64,
                "duration": 0.1,
                "tempo": 120.0
            },
            {
                "start_time": 35.6568182,
                "end_time": 35.7568182,
                "pitch": 82,
                "velocity": 64,
                "duration": 0.1,
                "tempo": 120.0
            },
            {
                "start_time": 35.7727273,
                "end_time": 35.875,
                "pitch": 85,
                "velocity": 64,
                "duration": 0.1022727,
                "tempo": 120.0
            },
            {
                "start_time": 35.8909091,
                "end_time": 35.9909091,
                "pitch": 84,
                "velocity": 64,
                "duration": 0.1,
                "tempo": 120.0
            },
            {
                "start_time": 36.0090909,
                "end_time": 36.1090909,
                "pitch": 82,
                "velocity": 64,
                "duration": 0.1,
                "tempo": 120.0
            },
            {
                "start_time": 36.1272727,
                "end_time": 36.225,
                "pitch": 80,
                "velocity": 64,
                "duration": 0.0977273,
                "tempo": 120.0
            },
            {
                "start_time": 36.2568182,
                "end_time": 36.3568182,
                "pitch": 84,
                "velocity": 64,
                "duration": 0.1,
                "tempo": 120.0
            },
            {
                "start_time": 36.3727273,
                "end_time": 36.4704545,
                "pitch": 82,
                "velocity": 64,
                "duration": 0.0977273,
                "tempo": 120.0
            },
            {
                "start_time": 36.4863636,
                "end_time": 36.5863636,
                "pitch": 80,
                "velocity": 64,
                "duration": 0.1,
                "tempo": 120.0
            },
            {
                "start_time": 36.6022727,
                "end_time": 36.7022727,
                "pitch": 78,
                "velocity": 64,
                "duration": 0.1,
                "tempo": 120.0
            },
            {
                "start_time": 36.7181818,
                "end_time": 36.8181818,
                "pitch": 82,
                "velocity": 64,
                "duration": 0.1,
                "tempo": 120.0
            },
            {
                "start_time": 36.8522727,
                "end_time": 36.9522727,
                "pitch": 80,
                "velocity": 64,
                "duration": 0.1,
                "tempo": 120.0
            },
            {
                "start_time": 36.9681818,
                "end_time": 37.0681818,
                "pitch": 78,
                "velocity": 64,
                "duration": 0.1,
                "tempo": 120.0
            },
            {
                "start_time": 37.0863636,
                "end_time": 37.1863636,
                "pitch": 77,
                "velocity": 64,
                "duration": 0.1,
                "tempo": 120.0
            },
            {
                "start_time": 37.2022727,
                "end_time": 37.3045455,
                "pitch": 80,
                "velocity": 64,
                "duration": 0.1022727,
                "tempo": 120.0
            },
            {
                "start_time": 37.3204545,
                "end_time": 37.4204545,
                "pitch": 78,
                "velocity": 64,
                "duration": 0.1,
                "tempo": 120.0
            },
            {
                "start_time": 37.4545455,
                "end_time": 37.5568182,
                "pitch": 75,
                "velocity": 64,
                "duration": 0.1022727,
                "tempo": 120.0
            },
            {
                "start_time": 37.5727273,
                "end_time": 37.6227273,
                "pitch": 75,
                "velocity": 64,
                "duration": 0.05,
                "tempo": 120.0
            },
            {
                "start_time": 37.6568182,
                "end_time": 37.7068182,
                "pitch": 77,
                "velocity": 64,
                "duration": 0.05,
                "tempo": 120.0
            },
            {
                "start_time": 37.7227273,
                "end_time": 37.7886364,
                "pitch": 78,
                "velocity": 64,
                "duration": 0.0659091,
                "tempo": 120.0
            },
            {
                "start_time": 37.8068182,
                "end_time": 37.8727273,
                "pitch": 80,
                "velocity": 64,
                "duration": 0.0659091,
                "tempo": 120.0
            },
            {
                "start_time": 37.8886364,
                "end_time": 37.9568182,
                "pitch": 82,
                "velocity": 64,
                "duration": 0.0681818,
                "tempo": 120.0
            },
            {
                "start_time": 37.9727273,
                "end_time": 38.0227273,
                "pitch": 85,
                "velocity": 64,
                "duration": 0.05,
                "tempo": 120.0
            },
            {
                "start_time": 38.0568182,
                "end_time": 38.1068182,
                "pitch": 84,
                "velocity": 64,
                "duration": 0.05,
                "tempo": 120.0
            },
            {
                "start_time": 38.125,
                "end_time": 38.1931818,
                "pitch": 82,
                "velocity": 64,
                "duration": 0.0681818,
                "tempo": 120.0
            },
            {
                "start_time": 38.2113636,
                "end_time": 38.2818182,
                "pitch": 80,
                "velocity": 64,
                "duration": 0.0704545,
                "tempo": 120.0
            },
            {
                "start_time": 38.2977273,
                "end_time": 38.3681818,
                "pitch": 78,
                "velocity": 64,
                "duration": 0.0704545,
                "tempo": 120.0
            },
            {
                "start_time": 38.3840909,
                "end_time": 38.4363636,
                "pitch": 77,
                "velocity": 64,
                "duration": 0.0522727,
                "tempo": 120.0
            },
            {
                "start_time": 38.4727273,
                "end_time": 38.525,
                "pitch": 78,
                "velocity": 64,
                "duration": 0.0522727,
                "tempo": 120.0
            }
        ],
        "French Horn": [
            {
                "start_time": 46.2363636,
                "end_time": 48.1522727,
                "pitch": 72,
                "velocity": 64,
                "duration": 1.9159091,
                "tempo": 120.0
            },
            {
                "start_time": 48.1704545,
                "end_time": 50.0727273,
                "pitch": 72,
                "velocity": 64,
                "duration": 1.9022727,
                "tempo": 120.0
            },
            {
                "start_time": 50.1068182,
                "end_time": 50.1568182,
                "pitch": 72,
                "velocity": 64,
                "duration": 0.05,
                "tempo": 120.0
            },
            {
                "start_time": 50.175,
                "end_time": 50.2431818,
                "pitch": 73,
                "velocity": 64,
                "duration": 0.0681818,
                "tempo": 120.0
            },
            {
                "start_time": 50.2613636,
                "end_time": 50.3295455,
                "pitch": 72,
                "velocity": 64,
                "duration": 0.0681818,
                "tempo": 120.0
            },
            {
                "start_time": 50.3454545,
                "end_time": 51.7522727,
                "pitch": 70,
                "velocity": 64,
                "duration": 1.4068182,
                "tempo": 120.0
            },
            {
                "start_time": 51.7681818,
                "end_time": 51.8363636,
                "pitch": 70,
                "velocity": 64,
                "duration": 0.0681818,
                "tempo": 120.0
            },
            {
                "start_time": 51.8522727,
                "end_time": 51.9204545,
                "pitch": 73,
                "velocity": 64,
                "duration": 0.0681818,
                "tempo": 120.0
            },
            {
                "start_time": 51.9363636,
                "end_time": 52.0022727,
                "pitch": 77,
                "velocity": 64,
                "duration": 0.0659091,
                "tempo": 120.0
            },
            {
                "start_time": 52.0204545,
                "end_time": 52.7318182,
                "pitch": 78,
                "velocity": 64,
                "duration": 0.7113636,
                "tempo": 120.0
            },
            {
                "start_time": 52.7477273,
                "end_time": 52.8159091,
                "pitch": 77,
                "velocity": 64,
                "duration": 0.0681818,
                "tempo": 120.0
            },
            {
                "start_time": 52.8318182,
                "end_time": 52.8818182,
                "pitch": 78,
                "velocity": 64,
                "duration": 0.05,
                "tempo": 120.0
            },
            {
                "start_time": 52.9159091,
                "end_time": 52.9659091,
                "pitch": 77,
                "velocity": 64,
                "duration": 0.05,
                "tempo": 120.0
            },
            {
                "start_time": 52.9818182,
                "end_time": 53.2772727,
                "pitch": 75,
                "velocity": 64,
                "duration": 0.2954545,
                "tempo": 120.0
            },
            {
                "start_time": 53.3090909,
                "end_time": 53.6090909,
                "pitch": 73,
                "velocity": 64,
                "duration": 0.3,
                "tempo": 120.0
            },
            {
                "start_time": 53.625,
                "end_time": 53.9272727,
                "pitch": 72,
                "velocity": 64,
                "duration": 0.3022727,
                "tempo": 120.0
            },
            {
                "start_time": 53.9454545,
                "end_time": 54.65,
                "pitch": 68,
                "velocity": 64,
                "duration": 0.7045455,
                "tempo": 120.0
            },
            {
                "start_time": 54.6659091,
                "end_time": 54.7704545,
                "pitch": 68,
                "velocity": 64,
                "duration": 0.1045455,
                "tempo": 120.0
            },
            {
                "start_time": 54.7863636,
                "end_time": 54.8886364,
                "pitch": 72,
                "velocity": 64,
                "duration": 0.1022727,
                "tempo": 120.0
            },
            {
                "start_time": 54.9227273,
                "end_time": 55.85,
                "pitch": 77,
                "velocity": 64,
                "duration": 0.9272727,
                "tempo": 120.0
            },
            {
                "start_time": 55.8659091,
                "end_time": 56.1681818,
                "pitch": 73,
                "velocity": 64,
                "duration": 0.3022727,
                "tempo": 120.0
            },
            {
                "start_time": 56.1840909,
                "end_time": 56.4863636,
                "pitch": 72,
                "velocity": 64,
                "duration": 0.3022727,
                "tempo": 120.0
            },
            {
                "start_time": 56.5204545,
                "end_time": 56.8181818,
                "pitch": 70,
                "velocity": 64,
                "duration": 0.2977273,
                "tempo": 120.0
            },
            {
                "start_time": 56.8363636,
                "end_time": 57.1431818,
                "pitch": 69,
                "velocity": 64,
                "duration": 0.3068182,
                "tempo": 120.0
            },
            {
                "start_time": 57.1590909,
                "end_time": 57.4636364,
                "pitch": 70,
                "velocity": 64,
                "duration": 0.3045455,
                "tempo": 120.0
            },
            {
                "start_time": 57.4818182,
                "end_time": 57.7818182,
                "pitch": 72,
                "velocity": 64,
                "duration": 0.3,
                "tempo": 120.0
            },
            {
                "start_time": 57.7977273,
                "end_time": 59.2227273,
                "pitch": 70,
                "velocity": 64,
                "duration": 1.425,
                "tempo": 120.0
            },
            {
                "start_time": 59.2409091,
                "end_time": 59.4613636,
                "pitch": 70,
                "velocity": 64,
                "duration": 0.2204545,
                "tempo": 120.0
            },
            {
                "start_time": 59.4795455,
                "end_time": 59.5477273,
                "pitch": 70,
                "velocity": 64,
                "duration": 0.0681818,
                "tempo": 120.0
            },
            {
                "start_time": 59.5636364,
                "end_time": 59.6318182,
                "pitch": 73,
                "velocity": 64,
                "duration": 0.0681818,
                "tempo": 120.0
            },
            {
                "start_time": 59.65,
                "end_time": 59.7,
                "pitch": 77,
                "velocity": 64,
                "duration": 0.05,
                "tempo": 120.0
            },
            {
                "start_time": 59.7340909,
                "end_time": 60.4340909,
                "pitch": 78,
                "velocity": 64,
                "duration": 0.7,
                "tempo": 120.0
            },
            {
                "start_time": 60.4522727,
                "end_time": 60.5,
                "pitch": 77,
                "velocity": 64,
                "duration": 0.0477273,
                "tempo": 120.0
            },
            {
                "start_time": 60.5340909,
                "end_time": 60.5818182,
                "pitch": 78,
                "velocity": 64,
                "duration": 0.0477273,
                "tempo": 120.0
            },
            {
                "start_time": 60.6,
                "end_time": 60.6659091,
                "pitch": 77,
                "velocity": 64,
                "duration": 0.0659091,
                "tempo": 120.0
            },
            {
                "start_time": 60.6818182,
                "end_time": 60.9818182,
                "pitch": 75,
                "velocity": 64,
                "duration": 0.3,
                "tempo": 120.0
            },
            {
                "start_time": 60.9977273,
                "end_time": 61.3,
                "pitch": 73,
                "velocity": 64,
                "duration": 0.3022727,
                "tempo": 120.0
            },
            {
                "start_time": 61.3318182,
                "end_time": 61.6340909,
                "pitch": 72,
                "velocity": 64,
                "duration": 0.3022727,
                "tempo": 120.0
            },
            {
                "start_time": 61.6522727,
                "end_time": 62.3659091,
                "pitch": 68,
                "velocity": 64,
                "duration": 0.7136364,
                "tempo": 120.0
            },
            {
                "start_time": 62.3818182,
                "end_time": 62.4818182,
                "pitch": 68,
                "velocity": 64,
                "duration": 0.1,
                "tempo": 120.0
            },
            {
                "start_time": 62.5,
                "end_time": 62.6,
                "pitch": 72,
                "velocity": 64,
                "duration": 0.1,
                "tempo": 120.0
            },
            {
                "start_time": 62.6181818,
                "end_time": 63.5590909,
                "pitch": 77,
                "velocity": 64,
                "duration": 0.9409091,
                "tempo": 120.0
            },
            {
                "start_time": 63.5772727,
                "end_time": 63.8795455,
                "pitch": 80,
                "velocity": 64,
                "duration": 0.3022727,
                "tempo": 120.0
            },
            {
                "start_time": 63.8954545,
                "end_time": 64.2,
                "pitch": 78,
                "velocity": 64,
                "duration": 0.3045455,
                "tempo": 120.0
            },
            {
                "start_time": 64.2159091,
                "end_time": 64.525,
                "pitch": 77,
                "velocity": 64,
                "duration": 0.3090909,
                "tempo": 120.0
            },
            {
                "start_time": 64.5590909,
                "end_time": 65.4840909,
                "pitch": 73,
                "velocity": 64,
                "duration": 0.925,
                "tempo": 120.0
            }
        ],
        "Church Organ": [
            {
                "start_time": 65.5,
                "end_time": 65.6,
                "pitch": 58,
                "velocity": 80,
                "duration": 0.1,
                "tempo": 120.0
            },
            {
                "start_time": 65.6181818,
                "end_time": 65.7181818,
                "pitch": 60,
                "velocity": 80,
                "duration": 0.1,
                "tempo": 120.0
            },
            {
                "start_time": 65.75,
                "end_time": 65.85,
                "pitch": 61,
                "velocity": 80,
                "duration": 0.1,
                "tempo": 120.0
            },
            {
                "start_time": 65.8681818,
                "end_time": 65.9681818,
                "pitch": 65,
                "velocity": 80,
                "duration": 0.1,
                "tempo": 120.0
            },
            {
                "start_time": 65.9840909,
                "end_time": 66.0863636,
                "pitch": 61,
                "velocity": 80,
                "duration": 0.1022727,
                "tempo": 120.0
            },
            {
                "start_time": 66.1045455,
                "end_time": 66.2068182,
                "pitch": 60,
                "velocity": 80,
                "duration": 0.1022727,
                "tempo": 120.0
            },
            {
                "start_time": 66.2227273,
                "end_time": 66.325,
                "pitch": 58,
                "velocity": 80,
                "duration": 0.1022727,
                "tempo": 120.0
            },
            {
                "start_time": 66.3590909,
                "end_time": 66.4613636,
                "pitch": 60,
                "velocity": 80,
                "duration": 0.1022727,
                "tempo": 120.0
            },
            {
                "start_time": 66.4795455,
                "end_time": 66.5795455,
                "pitch": 61,
                "velocity": 80,
                "duration": 0.1,
                "tempo": 120.0
            },
            {
                "start_time": 66.5954545,
                "end_time": 66.6954545,
                "pitch": 60,
                "velocity": 80,
                "duration": 0.1,
                "tempo": 120.0
            },
            {
                "start_time": 66.7136364,
                "end_time": 66.8136364,
                "pitch": 61,
                "velocity": 80,
                "duration": 0.1,
                "tempo": 120.0
            },
            {
                "start_time": 66.8295455,
                "end_time": 66.9295455,
                "pitch": 65,
                "velocity": 80,
                "duration": 0.1,
                "tempo": 120.0
            },
            {
                "start_time": 66.9636364,
                "end_time": 67.0636364,
                "pitch": 61,
                "velocity": 80,
                "duration": 0.1,
                "tempo": 120.0
            },
            {
                "start_time": 67.0795455,
                "end_time": 67.1818182,
                "pitch": 60,
                "velocity": 80,
                "duration": 0.1022727,
                "tempo": 120.0
            },
            {
                "start_time": 67.1977273,
                "end_time": 67.2977273,
                "pitch": 58,
                "velocity": 80,
                "duration": 0.1,
                "tempo": 120.0
            },
            {
                "start_time": 67.3159091,
                "end_time": 67.4159091,
                "pitch": 56,
                "velocity": 80,
                "duration": 0.1,
                "tempo": 120.0
            },
            {
                "start_time": 67.4340909,
                "end_time": 67.5318182,
                "pitch": 58,
                "velocity": 80,
                "duration": 0.0977273,
                "tempo": 120.0
            },
            {
                "start_time": 67.5636364,
                "end_time": 67.6636364,
                "pitch": 60,
                "velocity": 80,
                "duration": 0.1,
                "tempo": 120.0
            },
            {
                "start_time": 67.6795455,
                "end_time": 67.7772727,
                "pitch": 61,
                "velocity": 80,
                "duration": 0.0977273,
                "tempo": 120.0
            },
            {
                "start_time": 67.7931818,
                "end_time": 67.8931818,
                "pitch": 65,
                "velocity": 80,
                "duration": 0.1,
                "tempo": 120.0
            },
            {
                "start_time": 67.9090909,
                "end_time": 68.0090909,
                "pitch": 61,
                "velocity": 80,
                "duration": 0.1,
                "tempo": 120.0
            },
            {
                "start_time": 68.0272727,
                "end_time": 68.1272727,
                "pitch": 60,
                "velocity": 80,
                "duration": 0.1,
                "tempo": 120.0
            },
            {
                "start_time": 68.1613636,
                "end_time": 68.2613636,
                "pitch": 58,
                "velocity": 80,
                "duration": 0.1,
                "tempo": 120.0
            },
            {
                "start_time": 68.2772727,
                "end_time": 68.3795455,
                "pitch": 60,
                "velocity": 80,
                "duration": 0.1022727,
                "tempo": 120.0
            },
            {
                "start_time": 68.3954545,
                "end_time": 68.4977273,
                "pitch": 61,
                "velocity": 80,
                "duration": 0.1022727,
                "tempo": 120.0
            },
            {
                "start_time": 68.5136364,
                "end_time": 68.6136364,
                "pitch": 60,
                "velocity": 80,
                "duration": 0.1,
                "tempo": 120.0
            },
            {
                "start_time": 68.6318182,
                "end_time": 68.7318182,
                "pitch": 61,
                "velocity": 80,
                "duration": 0.1,
                "tempo": 120.0
            },
            {
                "start_time": 68.7659091,
                "end_time": 68.8659091,
                "pitch": 65,
                "velocity": 80,
                "duration": 0.1,
                "tempo": 120.0
            },
            {
                "start_time": 68.8840909,
                "end_time": 68.9863636,
                "pitch": 61,
                "velocity": 80,
                "duration": 0.1022727,
                "tempo": 120.0
            },
            {
                "start_time": 69.0022727,
                "end_time": 69.1045455,
                "pitch": 60,
                "velocity": 80,
                "duration": 0.1022727,
                "tempo": 120.0
            },
            {
                "start_time": 69.1227273,
                "end_time": 69.225,
                "pitch": 58,
                "velocity": 80,
                "duration": 0.1022727,
                "tempo": 120.0
            },
            {
                "start_time": 69.2409091,
                "end_time": 69.3431818,
                "pitch": 56,
                "velocity": 80,
                "duration": 0.1022727,
                "tempo": 120.0
            },
            {
                "start_time": 69.3772727,
                "end_time": 69.4795455,
                "pitch": 58,
                "velocity": 80,
                "duration": 0.1022727,
                "tempo": 120.0
            },
            {
                "start_time": 69.4954545,
                "end_time": 69.5977273,
                "pitch": 60,
                "velocity": 80,
                "duration": 0.1022727,
                "tempo": 120.0
            },
            {
                "start_time": 69.6136364,
                "end_time": 69.7136364,
                "pitch": 61,
                "velocity": 80,
                "duration": 0.1,
                "tempo": 120.0
            },
            {
                "start_time": 69.7318182,
                "end_time": 69.8318182,
                "pitch": 65,
                "velocity": 80,
                "duration": 0.1,
                "tempo": 120.0
            },
            {
                "start_time": 69.8477273,
                "end_time": 69.9477273,
                "pitch": 61,
                "velocity": 80,
                "duration": 0.1,
                "tempo": 120.0
            },
            {
                "start_time": 69.9795455,
                "end_time": 70.0772727,
                "pitch": 60,
                "velocity": 80,
                "duration": 0.0977273,
                "tempo": 120.0
            },
            {
                "start_time": 70.0954545,
                "end_time": 70.1931818,
                "pitch": 58,
                "velocity": 80,
                "duration": 0.0977273,
                "tempo": 120.0
            },
            {
                "start_time": 70.2090909,
                "end_time": 70.3090909,
                "pitch": 60,
                "velocity": 80,
                "duration": 0.1,
                "tempo": 120.0
            },
            {
                "start_time": 70.325,
                "end_time": 70.425,
                "pitch": 61,
                "velocity": 80,
                "duration": 0.1,
                "tempo": 120.0
            },
            {
                "start_time": 70.4409091,
                "end_time": 70.5409091,
                "pitch": 60,
                "velocity": 80,
                "duration": 0.1,
                "tempo": 120.0
            },
            {
                "start_time": 70.575,
                "end_time": 70.675,
                "pitch": 61,
                "velocity": 80,
                "duration": 0.1,
                "tempo": 120.0
            },
            {
                "start_time": 70.6909091,
                "end_time": 70.7909091,
                "pitch": 65,
                "velocity": 80,
                "duration": 0.1,
                "tempo": 120.0
            },
            {
                "start_time": 70.8068182,
                "end_time": 70.9090909,
                "pitch": 61,
                "velocity": 80,
                "duration": 0.1022727,
                "tempo": 120.0
            },
            {
                "start_time": 70.925,
                "end_time": 71.025,
                "pitch": 60,
                "velocity": 80,
                "duration": 0.1,
                "tempo": 120.0
            },
            {
                "start_time": 71.0431818,
                "end_time": 71.1431818,
                "pitch": 58,
                "velocity": 80,
                "duration": 0.1,
                "tempo": 120.0
            },
            {
                "start_time": 71.1772727,
                "end_time": 71.2772727,
                "pitch": 56,
                "velocity": 80,
                "duration": 0.1,
                "tempo": 120.0
            },
            {
                "start_time": 71.2954545,
                "end_time": 71.3954545,
                "pitch": 58,
                "velocity": 80,
                "duration": 0.1,
                "tempo": 120.0
            },
            {
                "start_time": 71.4113636,
                "end_time": 71.5136364,
                "pitch": 60,
                "velocity": 80,
                "duration": 0.1022727,
                "tempo": 120.0
            },
            {
                "start_time": 71.5295455,
                "end_time": 71.6318182,
                "pitch": 61,
                "velocity": 80,
                "duration": 0.1022727,
                "tempo": 120.0
            },
            {
                "start_time": 71.6477273,
                "end_time": 71.7477273,
                "pitch": 65,
                "velocity": 80,
                "duration": 0.1,
                "tempo": 120.0
            },
            {
                "start_time": 71.7818182,
                "end_time": 71.8840909,
                "pitch": 61,
                "velocity": 80,
                "duration": 0.1022727,
                "tempo": 120.0
            },
            {
                "start_time": 71.9022727,
                "end_time": 72.0045455,
                "pitch": 60,
                "velocity": 80,
                "duration": 0.1022727,
                "tempo": 120.0
            },
            {
                "start_time": 72.0204545,
                "end_time": 72.1227273,
                "pitch": 58,
                "velocity": 80,
                "duration": 0.1022727,
                "tempo": 120.0
            },
            {
                "start_time": 72.1409091,
                "end_time": 72.2431818,
                "pitch": 60,
                "velocity": 80,
                "duration": 0.1022727,
                "tempo": 120.0
            },
            {
                "start_time": 72.2590909,
                "end_time": 72.3568182,
                "pitch": 61,
                "velocity": 80,
                "duration": 0.0977273,
                "tempo": 120.0
            },
            {
                "start_time": 72.3886364,
                "end_time": 72.4840909,
                "pitch": 60,
                "velocity": 80,
                "duration": 0.0954545,
                "tempo": 120.0
            },
            {
                "start_time": 72.5,
                "end_time": 72.5954545,
                "pitch": 61,
                "velocity": 80,
                "duration": 0.0954545,
                "tempo": 120.0
            },
            {
                "start_time": 72.6113636,
                "end_time": 72.7090909,
                "pitch": 63,
                "velocity": 80,
                "duration": 0.0977273,
                "tempo": 120.0
            },
            {
                "start_time": 72.725,
                "end_time": 72.8272727,
                "pitch": 65,
                "velocity": 80,
                "duration": 0.1022727,
                "tempo": 120.0
            },
            {
                "start_time": 72.8431818,
                "end_time": 72.9454545,
                "pitch": 66,
                "velocity": 80,
                "duration": 0.1022727,
                "tempo": 120.0
            },
            {
                "start_time": 72.9795455,
                "end_time": 73.0818182,
                "pitch": 68,
                "velocity": 80,
                "duration": 0.1022727,
                "tempo": 120.0
            },
            {
                "start_time": 73.1,
                "end_time": 73.2022727,
                "pitch": 70,
                "velocity": 80,
                "duration": 0.1022727,
                "tempo": 120.0
            },
            {
                "start_time": 73.2204545,
                "end_time": 73.3204545,
                "pitch": 58,
                "velocity": 80,
                "duration": 0.1,
                "tempo": 120.0
            },
            {
                "start_time": 73.3363636,
                "end_time": 73.4386364,
                "pitch": 60,
                "velocity": 80,
                "duration": 0.1022727,
                "tempo": 120.0
            },
            {
                "start_time": 73.4545455,
                "end_time": 73.5545455,
                "pitch": 61,
                "velocity": 80,
                "duration": 0.1,
                "tempo": 120.0
            },
            {
                "start_time": 73.5886364,
                "end_time": 73.8090909,
                "pitch": 65,
                "velocity": 80,
                "duration": 0.2204545,
                "tempo": 120.0
            },
            {
                "start_time": 73.825,
                "end_time": 73.9295455,
                "pitch": 58,
                "velocity": 80,
                "duration": 0.1045455,
                "tempo": 120.0
            },
            {
                "start_time": 73.9454545,
                "end_time": 74.0477273,
                "pitch": 60,
                "velocity": 80,
                "duration": 0.1022727,
                "tempo": 120.0
            },
            {
                "start_time": 74.0659091,
                "end_time": 74.1681818,
                "pitch": 61,
                "velocity": 80,
                "duration": 0.1022727,
                "tempo": 120.0
            },
            {
                "start_time": 74.2022727,
                "end_time": 74.4204545,
                "pitch": 65,
                "velocity": 80,
                "duration": 0.2181818,
                "tempo": 120.0
            },
            {
                "start_time": 74.4363636,
                "end_time": 74.5386364,
                "pitch": 63,
                "velocity": 80,
                "duration": 0.1022727,
                "tempo": 120.0
            },
            {
                "start_time": 74.5545455,
                "end_time": 74.6545455,
                "pitch": 61,
                "velocity": 80,
                "duration": 0.1,
                "tempo": 120.0
            },
            {
                "start_time": 74.6727273,
                "end_time": 74.7704545,
                "pitch": 60,
                "velocity": 80,
                "duration": 0.0977273,
                "tempo": 120.0
            },
            {
                "start_time": 74.8045455,
                "end_time": 74.9022727,
                "pitch": 63,
                "velocity": 80,
                "duration": 0.0977273,
                "tempo": 120.0
            },
            {
                "start_time": 74.9181818,
                "end_time": 75.0159091,
                "pitch": 61,
                "velocity": 80,
                "duration": 0.0977273,
                "tempo": 120.0
            },
            {
                "start_time": 75.0340909,
                "end_time": 75.1318182,
                "pitch": 60,
                "velocity": 80,
                "duration": 0.0977273,
                "tempo": 120.0
            },
            {
                "start_time": 75.1477273,
                "end_time": 75.2477273,
                "pitch": 58,
                "velocity": 80,
                "duration": 0.1,
                "tempo": 120.0
            },
            {
                "start_time": 75.2659091,
                "end_time": 75.3659091,
                "pitch": 60,
                "velocity": 80,
                "duration": 0.1,
                "tempo": 120.0
            },
            {
                "start_time": 75.4,
                "end_time": 75.5,
                "pitch": 61,
                "velocity": 80,
                "duration": 0.1,
                "tempo": 120.0
            },
            {
                "start_time": 75.5181818,
                "end_time": 75.7340909,
                "pitch": 65,
                "velocity": 80,
                "duration": 0.2159091,
                "tempo": 120.0
            },
            {
                "start_time": 75.7522727,
                "end_time": 75.8522727,
                "pitch": 58,
                "velocity": 80,
                "duration": 0.1,
                "tempo": 120.0
            },
            {
                "start_time": 75.8681818,
                "end_time": 75.9681818,
                "pitch": 60,
                "velocity": 80,
                "duration": 0.1,
                "tempo": 120.0
            },
            {
                "start_time": 76.0022727,
                "end_time": 76.1022727,
                "pitch": 61,
                "velocity": 80,
                "duration": 0.1,
                "tempo": 120.0
            },
            {
                "start_time": 76.1181818,
                "end_time": 76.3409091,
                "pitch": 65,
                "velocity": 80,
                "duration": 0.2227273,
                "tempo": 120.0
            },
            {
                "start_time": 76.3568182,
                "end_time": 76.4590909,
                "pitch": 63,
                "velocity": 80,
                "duration": 0.1022727,
                "tempo": 120.0
            },
            {
                "start_time": 76.4772727,
                "end_time": 76.5795455,
                "pitch": 61,
                "velocity": 80,
                "duration": 0.1022727,
                "tempo": 120.0
            },
            {
                "start_time": 76.6136364,
                "end_time": 76.7136364,
                "pitch": 60,
                "velocity": 80,
                "duration": 0.1,
                "tempo": 120.0
            },
            {
                "start_time": 76.7295455,
                "end_time": 76.8295455,
                "pitch": 63,
                "velocity": 80,
                "duration": 0.1,
                "tempo": 120.0
            },
            {
                "start_time": 76.8477273,
                "end_time": 76.9477273,
                "pitch": 61,
                "velocity": 80,
                "duration": 0.1,
                "tempo": 120.0
            },
            {
                "start_time": 76.9636364,
                "end_time": 77.0636364,
                "pitch": 60,
                "velocity": 80,
                "duration": 0.1,
                "tempo": 120.0
            },
            {
                "start_time": 77.0795455,
                "end_time": 77.1795455,
                "pitch": 58,
                "velocity": 80,
                "duration": 0.1,
                "tempo": 120.0
            },
            {
                "start_time": 77.2113636,
                "end_time": 77.3090909,
                "pitch": 60,
                "velocity": 80,
                "duration": 0.0977273,
                "tempo": 120.0
            },
            {
                "start_time": 77.3272727,
                "end_time": 77.425,
                "pitch": 61,
                "velocity": 80,
                "duration": 0.0977273,
                "tempo": 120.0
            },
            {
                "start_time": 77.4409091,
                "end_time": 77.6568182,
                "pitch": 65,
                "velocity": 80,
                "duration": 0.2159091,
                "tempo": 120.0
            },
            {
                "start_time": 77.6727273,
                "end_time": 77.7727273,
                "pitch": 58,
                "velocity": 80,
                "duration": 0.1,
                "tempo": 120.0
            },
            {
                "start_time": 77.8068182,
                "end_time": 77.9068182,
                "pitch": 60,
                "velocity": 80,
                "duration": 0.1,
                "tempo": 120.0
            },
            {
                "start_time": 77.9227273,
                "end_time": 78.0227273,
                "pitch": 61,
                "velocity": 80,
                "duration": 0.1,
                "tempo": 120.0
            },
            {
                "start_time": 78.0386364,
                "end_time": 78.2568182,
                "pitch": 65,
                "velocity": 80,
                "duration": 0.2181818,
                "tempo": 120.0
            },
            {
                "start_time": 78.275,
                "end_time": 78.375,
                "pitch": 63,
                "velocity": 80,
                "duration": 0.1,
                "tempo": 120.0
            },
            {
                "start_time": 78.4090909,
                "end_time": 78.5090909,
                "pitch": 61,
                "velocity": 80,
                "duration": 0.1,
                "tempo": 120.0
            },
            {
                "start_time": 78.5272727,
                "end_time": 78.6295455,
                "pitch": 60,
                "velocity": 80,
                "duration": 0.1022727,
                "tempo": 120.0
            },
            {
                "start_time": 78.6454545,
                "end_time": 78.7477273,
                "pitch": 63,
                "velocity": 80,
                "duration": 0.1022727,
                "tempo": 120.0
            },
            {
                "start_time": 78.7659091,
                "end_time": 78.8681818,
                "pitch": 61,
                "velocity": 80,
                "duration": 0.1022727,
                "tempo": 120.0
            },
            {
                "start_time": 78.8840909,
                "end_time": 78.9863636,
                "pitch": 60,
                "velocity": 80,
                "duration": 0.1022727,
                "tempo": 120.0
            },
            {
                "start_time": 79.0204545,
                "end_time": 79.1227273,
                "pitch": 58,
                "velocity": 80,
                "duration": 0.1022727,
                "tempo": 120.0
            },
            {
                "start_time": 79.1386364,
                "end_time": 79.2409091,
                "pitch": 60,
                "velocity": 80,
                "duration": 0.1022727,
                "tempo": 120.0
            },
            {
                "start_time": 79.2568182,
                "end_time": 79.3568182,
                "pitch": 61,
                "velocity": 80,
                "duration": 0.1,
                "tempo": 120.0
            },
            {
                "start_time": 79.375,
                "end_time": 79.5909091,
                "pitch": 65,
                "velocity": 80,
                "duration": 0.2159091,
                "tempo": 120.0
            },
            {
                "start_time": 79.6227273,
                "end_time": 79.7227273,
                "pitch": 58,
                "velocity": 80,
                "duration": 0.1,
                "tempo": 120.0
            },
            {
                "start_time": 79.7386364,
                "end_time": 79.8363636,
                "pitch": 60,
                "velocity": 80,
                "duration": 0.0977273,
                "tempo": 120.0
            },
            {
                "start_time": 79.8522727,
                "end_time": 79.9522727,
                "pitch": 61,
                "velocity": 80,
                "duration": 0.1,
                "tempo": 120.0
            },
            {
                "start_time": 79.9681818,
                "end_time": 80.1863636,
                "pitch": 65,
                "velocity": 80,
                "duration": 0.2181818,
                "tempo": 120.0
            },
            {
                "start_time": 80.2204545,
                "end_time": 80.4386364,
                "pitch": 73,
                "velocity": 80,
                "duration": 0.2181818,
                "tempo": 120.0
            },
            {
                "start_time": 80.4545455,
                "end_time": 80.6727273,
                "pitch": 72,
                "velocity": 80,
                "duration": 0.2181818,
                "tempo": 120.0
            },
            {
                "start_time": 80.6909091,
                "end_time": 80.925,
                "pitch": 68,
                "velocity": 80,
                "duration": 0.2340909,
                "tempo": 120.0
            }
        ],
        "Acoustic Bass": [
            {
                "start_time": 0.0136364,
                "end_time": 0.2159091,
                "pitch": 34,
                "velocity": 64,
                "duration": 0.2022727,
                "tempo": 120.0
            },
            {
                "start_time": 0.2318182,
                "end_time": 0.3318182,
                "pitch": 34,
                "velocity": 64,
                "duration": 0.1,
                "tempo": 120.0
            },
            {
                "start_time": 0.35,
                "end_time": 0.45,
                "pitch": 34,
                "velocity": 64,
                "duration": 0.1,
                "tempo": 120.0
            },
            {
                "start_time": 0.4659091,
                "end_time": 0.6704545,
                "pitch": 34,
                "velocity": 64,
                "duration": 0.2045455,
                "tempo": 120.0
            },
            {
                "start_time": 0.7022727,
                "end_time": 0.7954545,
                "pitch": 34,
                "velocity": 64,
                "duration": 0.0931818,
                "tempo": 120.0
            },
            {
                "start_time": 0.8113636,
                "end_time": 0.9045455,
                "pitch": 34,
                "velocity": 64,
                "duration": 0.0931818,
                "tempo": 120.0
            },
            {
                "start_time": 0.9204545,
                "end_time": 1.1386364,
                "pitch": 34,
                "velocity": 64,
                "duration": 0.2181818,
                "tempo": 120.0
            },
            {
                "start_time": 1.1545455,
                "end_time": 1.2545455,
                "pitch": 34,
                "velocity": 64,
                "duration": 0.1,
                "tempo": 120.0
            },
            {
                "start_time": 1.2886364,
                "end_time": 1.3886364,
                "pitch": 34,
                "velocity": 64,
                "duration": 0.1,
                "tempo": 120.0
            },
            {
                "start_time": 1.4045455,
                "end_time": 1.6272727,
                "pitch": 34,
                "velocity": 64,
                "duration": 0.2227273,
                "tempo": 120.0
            },
            {
                "start_time": 1.6431818,
                "end_time": 1.7454545,
                "pitch": 34,
                "velocity": 64,
                "duration": 0.1022727,
                "tempo": 120.0
            },
            {
                "start_time": 1.7636364,
                "end_time": 1.8659091,
                "pitch": 34,
                "velocity": 64,
                "duration": 0.1022727,
                "tempo": 120.0
            },
            {
                "start_time": 1.9,
                "end_time": 2.1159091,
                "pitch": 34,
                "velocity": 64,
                "duration": 0.2159091,
                "tempo": 120.0
            },
            {
                "start_time": 2.1340909,
                "end_time": 2.2340909,
                "pitch": 34,
                "velocity": 64,
                "duration": 0.1,
                "tempo": 120.0
            },
            {
                "start_time": 2.25,
                "end_time": 2.35,
                "pitch": 34,
                "velocity": 64,
                "duration": 0.1,
                "tempo": 120.0
            },
            {
                "start_time": 2.3659091,
                "end_time": 2.5954545,
                "pitch": 34,
                "velocity": 64,
                "duration": 0.2295455,
                "tempo": 120.0
            },
            {
                "start_time": 2.6113636,
                "end_time": 2.7113636,
                "pitch": 34,
                "velocity": 64,
                "duration": 0.1,
                "tempo": 120.0
            },
            {
                "start_time": 2.7272727,
                "end_time": 2.825,
                "pitch": 34,
                "velocity": 64,
                "duration": 0.0977273,
                "tempo": 120.0
            },
            {
                "start_time": 2.8431818,
                "end_time": 3.0590909,
                "pitch": 34,
                "velocity": 64,
                "duration": 0.2159091,
                "tempo": 120.0
            },
            {
                "start_time": 3.0909091,
                "end_time": 3.1909091,
                "pitch": 34,
                "velocity": 64,
                "duration": 0.1,
                "tempo": 120.0
            },
            {
                "start_time": 3.2090909,
                "end_time": 3.3090909,
                "pitch": 34,
                "velocity": 64,
                "duration": 0.1,
                "tempo": 120.0
            },
            {
                "start_time": 3.325,
                "end_time": 3.5409091,
                "pitch": 34,
                "velocity": 64,
                "duration": 0.2159091,
                "tempo": 120.0
            },
            {
                "start_time": 3.5590909,
                "end_time": 3.6590909,
                "pitch": 34,
                "velocity": 64,
                "duration": 0.1,
                "tempo": 120.0
            },
            {
                "start_time": 3.6909091,
                "end_time": 3.7909091,
                "pitch": 34,
                "velocity": 64,
                "duration": 0.1,
                "tempo": 120.0
            },
            {
                "start_time": 3.8090909,
                "end_time": 4.0295455,
                "pitch": 42,
                "velocity": 64,
                "duration": 0.2204545,
                "tempo": 120.0
            },
            {
                "start_time": 4.0477273,
                "end_time": 4.15,
                "pitch": 42,
                "velocity": 64,
                "duration": 0.1022727,
                "tempo": 120.0
            },
            {
                "start_time": 4.1681818,
                "end_time": 4.2704545,
                "pitch": 42,
                "velocity": 64,
                "duration": 0.1022727,
                "tempo": 120.0
            },
            {
                "start_time": 4.3045455,
                "end_time": 4.5227273,
                "pitch": 42,
                "velocity": 64,
                "duration": 0.2181818,
                "tempo": 120.0
            },
            {
                "start_time": 4.5386364,
                "end_time": 4.6386364,
                "pitch": 42,
                "velocity": 64,
                "duration": 0.1,
                "tempo": 120.0
            },
            {
                "start_time": 4.6568182,
                "end_time": 4.7568182,
                "pitch": 42,
                "velocity": 64,
                "duration": 0.1,
                "tempo": 120.0
            },
            {
                "start_time": 4.775,
                "end_time": 5.0045455,
                "pitch": 42,
                "velocity": 64,
                "duration": 0.2295455,
                "tempo": 120.0
            },
            {
                "start_time": 5.0204545,
                "end_time": 5.1181818,
                "pitch": 42,
                "velocity": 64,
                "duration": 0.0977273,
                "tempo": 120.0
            },
            {
                "start_time": 5.1340909,
                "end_time": 5.2340909,
                "pitch": 42,
                "velocity": 64,
                "duration": 0.1,
                "tempo": 120.0
            },
            {
                "start_time": 5.25,
                "end_time": 5.4659091,
                "pitch": 42,
                "velocity": 64,
                "duration": 0.2159091,
                "tempo": 120.0
            },
            {
                "start_time": 5.5,
                "end_time": 5.6,
                "pitch": 42,
                "velocity": 64,
                "duration": 0.1,
                "tempo": 120.0
            },
            {
                "start_time": 5.6159091,
                "end_time": 5.7159091,
                "pitch": 42,
                "velocity": 64,
                "duration": 0.1,
                "tempo": 120.0
            },
            {
                "start_time": 5.7340909,
                "end_time": 5.9522727,
                "pitch": 44,
                "velocity": 64,
                "duration": 0.2181818,
                "tempo": 120.0
            },
            {
                "start_time": 5.9681818,
                "end_time": 6.0681818,
                "pitch": 44,
                "velocity": 64,
                "duration": 0.1,
                "tempo": 120.0
            },
            {
                "start_time": 6.1022727,
                "end_time": 6.2045455,
                "pitch": 44,
                "velocity": 64,
                "duration": 0.1022727,
                "tempo": 120.0
            },
            {
                "start_time": 6.2204545,
                "end_time": 6.4431818,
                "pitch": 44,
                "velocity": 64,
                "duration": 0.2227273,
                "tempo": 120.0
            },
            {
                "start_time": 6.4590909,
                "end_time": 6.5613636,
                "pitch": 44,
                "velocity": 64,
                "duration": 0.1022727,
                "tempo": 120.0
            },
            {
                "start_time": 6.5795455,
                "end_time": 6.6818182,
                "pitch": 44,
                "velocity": 64,
                "duration": 0.1022727,
                "tempo": 120.0
            },
            {
                "start_time": 6.7159091,
                "end_time": 6.9318182,
                "pitch": 44,
                "velocity": 64,
                "duration": 0.2159091,
                "tempo": 120.0
            },
            {
                "start_time": 6.9477273,
                "end_time": 7.0477273,
                "pitch": 44,
                "velocity": 64,
                "duration": 0.1,
                "tempo": 120.0
            },
            {
                "start_time": 7.0659091,
                "end_time": 7.1659091,
                "pitch": 44,
                "velocity": 64,
                "duration": 0.1,
                "tempo": 120.0
            },
            {
                "start_time": 7.1818182,
                "end_time": 7.4113636,
                "pitch": 44,
                "velocity": 64,
                "duration": 0.2295455,
                "tempo": 120.0
            },
            {
                "start_time": 7.4272727,
                "end_time": 7.5272727,
                "pitch": 44,
                "velocity": 64,
                "duration": 0.1,
                "tempo": 120.0
            },
            {
                "start_time": 7.5431818,
                "end_time": 7.6409091,
                "pitch": 44,
                "velocity": 64,
                "duration": 0.0977273,
                "tempo": 120.0
            },
            {
                "start_time": 7.6568182,
                "end_time": 7.875,
                "pitch": 34,
                "velocity": 64,
                "duration": 0.2181818,
                "tempo": 120.0
            },
            {
                "start_time": 7.9068182,
                "end_time": 8.0068182,
                "pitch": 34,
                "velocity": 64,
                "duration": 0.1,
                "tempo": 120.0
            },
            {
                "start_time": 8.025,
                "end_time": 8.125,
                "pitch": 34,
                "velocity": 64,
                "duration": 0.1,
                "tempo": 120.0
            },
            {
                "start_time": 8.1409091,
                "end_time": 8.3590909,
                "pitch": 34,
                "velocity": 64,
                "duration": 0.2181818,
                "tempo": 120.0
            },
            {
                "start_time": 8.3772727,
                "end_time": 8.4772727,
                "pitch": 34,
                "velocity": 64,
                "duration": 0.1,
                "tempo": 120.0
            },
            {
                "start_time": 8.5113636,
                "end_time": 8.6113636,
                "pitch": 34,
                "velocity": 64,
                "duration": 0.1,
                "tempo": 120.0
            },
            {
                "start_time": 8.6272727,
                "end_time": 8.85,
                "pitch": 34,
                "velocity": 64,
                "duration": 0.2227273,
                "tempo": 120.0
            },
            {
                "start_time": 8.8681818,
                "end_time": 8.9704545,
                "pitch": 34,
                "velocity": 64,
                "duration": 0.1022727,
                "tempo": 120.0
            },
            {
                "start_time": 8.9863636,
                "end_time": 9.0886364,
                "pitch": 34,
                "velocity": 64,
                "duration": 0.1022727,
                "tempo": 120.0
            },
            {
                "start_time": 9.1227273,
                "end_time": 9.3409091,
                "pitch": 34,
                "velocity": 64,
                "duration": 0.2181818,
                "tempo": 120.0
            },
            {
                "start_time": 9.3568182,
                "end_time": 9.4568182,
                "pitch": 34,
                "velocity": 64,
                "duration": 0.1,
                "tempo": 120.0
            },
            {
                "start_time": 9.4727273,
                "end_time": 9.5727273,
                "pitch": 34,
                "velocity": 64,
                "duration": 0.1,
                "tempo": 120.0
            },
            {
                "start_time": 9.5909091,
                "end_time": 9.8204545,
                "pitch": 34,
                "velocity": 64,
                "duration": 0.2295455,
                "tempo": 120.0
            },
            {
                "start_time": 9.8363636,
                "end_time": 9.9340909,
                "pitch": 34,
                "velocity": 64,
                "duration": 0.0977273,
                "tempo": 120.0
            },
            {
                "start_time": 9.95,
                "end_time": 10.05,
                "pitch": 34,
                "velocity": 64,
                "duration": 0.1,
                "tempo": 120.0
            },
            {
                "start_time": 10.0659091,
                "end_time": 10.2840909,
                "pitch": 34,
                "velocity": 64,
                "duration": 0.2181818,
                "tempo": 120.0
            },
            {
                "start_time": 10.3181818,
                "end_time": 10.4181818,
                "pitch": 34,
                "velocity": 64,
                "duration": 0.1,
                "tempo": 120.0
            },
            {
                "start_time": 10.4363636,
                "end_time": 10.5363636,
                "pitch": 34,
                "velocity": 64,
                "duration": 0.1,
                "tempo": 120.0
            },
            {
                "start_time": 10.5522727,
                "end_time": 10.7704545,
                "pitch": 34,
                "velocity": 64,
                "duration": 0.2181818,
                "tempo": 120.0
            },
            {
                "start_time": 10.7886364,
                "end_time": 10.8886364,
                "pitch": 34,
                "velocity": 64,
                "duration": 0.1,
                "tempo": 120.0
            },
            {
                "start_time": 10.9227273,
                "end_time": 11.0227273,
                "pitch": 34,
                "velocity": 64,
                "duration": 0.1,
                "tempo": 120.0
            },
            {
                "start_time": 11.0409091,
                "end_time": 11.2613636,
                "pitch": 34,
                "velocity": 64,
                "duration": 0.2204545,
                "tempo": 120.0
            },
            {
                "start_time": 11.2795455,
                "end_time": 11.3818182,
                "pitch": 34,
                "velocity": 64,
                "duration": 0.1022727,
                "tempo": 120.0
            },
            {
                "start_time": 11.3977273,
                "end_time": 11.5,
                "pitch": 34,
                "velocity": 64,
                "duration": 0.1022727,
                "tempo": 120.0
            },
            {
                "start_time": 11.5340909,
                "end_time": 11.7545455,
                "pitch": 42,
                "velocity": 64,
                "duration": 0.2204545,
                "tempo": 120.0
            },
            {
                "start_time": 11.7704545,
                "end_time": 11.8704545,
                "pitch": 42,
                "velocity": 64,
                "duration": 0.1,
                "tempo": 120.0
            },
            {
                "start_time": 11.8886364,
                "end_time": 11.9886364,
                "pitch": 42,
                "velocity": 64,
                "duration": 0.1,
                "tempo": 120.0
            },
            {
                "start_time": 12.0045455,
                "end_time": 12.2363636,
                "pitch": 42,
                "velocity": 64,
                "duration": 0.2318182,
                "tempo": 120.0
            },
            {
                "start_time": 12.2522727,
                "end_time": 12.35,
                "pitch": 42,
                "velocity": 64,
                "duration": 0.0977273,
                "tempo": 120.0
            },
            {
                "start_time": 12.3659091,
                "end_time": 12.4659091,
                "pitch": 42,
                "velocity": 64,
                "duration": 0.1,
                "tempo": 120.0
            },
            {
                "start_time": 12.4818182,
                "end_time": 12.7,
                "pitch": 42,
                "velocity": 64,
                "duration": 0.2181818,
                "tempo": 120.0
            },
            {
                "start_time": 12.7340909,
                "end_time": 12.8340909,
                "pitch": 42,
                "velocity": 64,
                "duration": 0.1,
                "tempo": 120.0
            },
            {
                "start_time": 12.85,
                "end_time": 12.9522727,
                "pitch": 42,
                "velocity": 64,
                "duration": 0.1022727,
                "tempo": 120.0
            },
            {
                "start_time": 12.9681818,
                "end_time": 13.1863636,
                "pitch": 42,
                "velocity": 64,
                "duration": 0.2181818,
                "tempo": 120.0
            },
            {
                "start_time": 13.2022727,
                "end_time": 13.3022727,
                "pitch": 42,
                "velocity": 64,
                "duration": 0.1,
                "tempo": 120.0
            },
            {
                "start_time": 13.3363636,
                "end_time": 13.4340909,
                "pitch": 42,
                "velocity": 64,
                "duration": 0.0977273,
                "tempo": 120.0
            },
            {
                "start_time": 13.4522727,
                "end_time": 13.6727273,
                "pitch": 44,
                "velocity": 64,
                "duration": 0.2204545,
                "tempo": 120.0
            },
            {
                "start_time": 13.6909091,
                "end_time": 13.7931818,
                "pitch": 44,
                "velocity": 64,
                "duration": 0.1022727,
                "tempo": 120.0
            },
            {
                "start_time": 13.8113636,
                "end_time": 13.9136364,
                "pitch": 44,
                "velocity": 64,
                "duration": 0.1022727,
                "tempo": 120.0
            },
            {
                "start_time": 13.9477273,
                "end_time": 14.1659091,
                "pitch": 44,
                "velocity": 64,
                "duration": 0.2181818,
                "tempo": 120.0
            },
            {
                "start_time": 14.1818182,
                "end_time": 14.2818182,
                "pitch": 44,
                "velocity": 64,
                "duration": 0.1,
                "tempo": 120.0
            },
            {
                "start_time": 14.3,
                "end_time": 14.4,
                "pitch": 44,
                "velocity": 64,
                "duration": 0.1,
                "tempo": 120.0
            },
            {
                "start_time": 14.4181818,
                "end_time": 14.6477273,
                "pitch": 44,
                "velocity": 64,
                "duration": 0.2295455,
                "tempo": 120.0
            },
            {
                "start_time": 14.6636364,
                "end_time": 14.7613636,
                "pitch": 44,
                "velocity": 64,
                "duration": 0.0977273,
                "tempo": 120.0
            },
            {
                "start_time": 14.7772727,
                "end_time": 14.8772727,
                "pitch": 44,
                "velocity": 64,
                "duration": 0.1,
                "tempo": 120.0
            },
            {
                "start_time": 14.8931818,
                "end_time": 15.1090909,
                "pitch": 44,
                "velocity": 64,
                "duration": 0.2159091,
                "tempo": 120.0
            },
            {
                "start_time": 15.1431818,
                "end_time": 15.2431818,
                "pitch": 44,
                "velocity": 64,
                "duration": 0.1,
                "tempo": 120.0
            },
            {
                "start_time": 15.2590909,
                "end_time": 15.3590909,
                "pitch": 44,
                "velocity": 64,
                "duration": 0.1,
                "tempo": 120.0
            },
            {
                "start_time": 15.3772727,
                "end_time": 15.8545455,
                "pitch": 39,
                "velocity": 64,
                "duration": 0.4772727,
                "tempo": 120.0
            },
            {
                "start_time": 15.8704545,
                "end_time": 16.5772727,
                "pitch": 41,
                "velocity": 64,
                "duration": 0.7068182,
                "tempo": 120.0
            },
            {
                "start_time": 16.5931818,
                "end_time": 16.6954545,
                "pitch": 41,
                "velocity": 64,
                "duration": 0.1022727,
                "tempo": 120.0
            },
            {
                "start_time": 16.7113636,
                "end_time": 16.8113636,
                "pitch": 42,
                "velocity": 64,
                "duration": 0.1,
                "tempo": 120.0
            },
            {
                "start_time": 16.8295455,
                "end_time": 16.9295455,
                "pitch": 41,
                "velocity": 64,
                "duration": 0.1,
                "tempo": 120.0
            },
            {
                "start_time": 16.9636364,
                "end_time": 17.0636364,
                "pitch": 39,
                "velocity": 64,
                "duration": 0.1,
                "tempo": 120.0
            },
            {
                "start_time": 17.0818182,
                "end_time": 17.1818182,
                "pitch": 37,
                "velocity": 64,
                "duration": 0.1,
                "tempo": 120.0
            },
            {
                "start_time": 17.1977273,
                "end_time": 17.3,
                "pitch": 36,
                "velocity": 64,
                "duration": 0.1022727,
                "tempo": 120.0
            },
            {
                "start_time": 17.3159091,
                "end_time": 17.775,
                "pitch": 39,
                "velocity": 64,
                "duration": 0.4590909,
                "tempo": 120.0
            },
            {
                "start_time": 17.7909091,
                "end_time": 18.2704545,
                "pitch": 41,
                "velocity": 64,
                "duration": 0.4795455,
                "tempo": 120.0
            },
            {
                "start_time": 18.4022727,
                "end_time": 18.5,
                "pitch": 36,
                "velocity": 64,
                "duration": 0.0977273,
                "tempo": 120.0
            },
            {
                "start_time": 18.6318182,
                "end_time": 18.7295455,
                "pitch": 37,
                "velocity": 64,
                "duration": 0.0977273,
                "tempo": 120.0
            },
            {
                "start_time": 18.7613636,
                "end_time": 19.2227273,
                "pitch": 37,
                "velocity": 64,
                "duration": 0.4613636,
                "tempo": 120.0
            },
            {
                "start_time": 19.2409091,
                "end_time": 19.7,
                "pitch": 39,
                "velocity": 64,
                "duration": 0.4590909,
                "tempo": 120.0
            },
            {
                "start_time": 19.7159091,
                "end_time": 20.4204545,
                "pitch": 41,
                "velocity": 64,
                "duration": 0.7045455,
                "tempo": 120.0
            },
            {
                "start_time": 20.4363636,
                "end_time": 20.5363636,
                "pitch": 41,
                "velocity": 64,
                "duration": 0.1,
                "tempo": 120.0
            },
            {
                "start_time": 20.5704545,
                "end_time": 20.6704545,
                "pitch": 41,
                "velocity": 64,
                "duration": 0.1,
                "tempo": 120.0
            },
            {
                "start_time": 20.6863636,
                "end_time": 20.7886364,
                "pitch": 41,
                "velocity": 64,
                "duration": 0.1022727,
                "tempo": 120.0
            },
            {
                "start_time": 20.8068182,
                "end_time": 20.9090909,
                "pitch": 39,
                "velocity": 64,
                "duration": 0.1022727,
                "tempo": 120.0
            },
            {
                "start_time": 20.925,
                "end_time": 21.0272727,
                "pitch": 37,
                "velocity": 64,
                "duration": 0.1022727,
                "tempo": 120.0
            },
            {
                "start_time": 21.0454545,
                "end_time": 21.1477273,
                "pitch": 36,
                "velocity": 64,
                "duration": 0.1022727,
                "tempo": 120.0
            },
            {
                "start_time": 21.1818182,
                "end_time": 21.6340909,
                "pitch": 39,
                "velocity": 64,
                "duration": 0.4522727,
                "tempo": 120.0
            },
            {
                "start_time": 21.6522727,
                "end_time": 22.1113636,
                "pitch": 41,
                "velocity": 64,
                "duration": 0.4590909,
                "tempo": 120.0
            },
            {
                "start_time": 22.1272727,
                "end_time": 22.3454545,
                "pitch": 41,
                "velocity": 64,
                "duration": 0.2181818,
                "tempo": 120.0
            },
            {
                "start_time": 22.3795455,
                "end_time": 22.4795455,
                "pitch": 41,
                "velocity": 64,
                "duration": 0.1,
                "tempo": 120.0
            },
            {
                "start_time": 22.4977273,
                "end_time": 22.5977273,
                "pitch": 41,
                "velocity": 64,
                "duration": 0.1,
                "tempo": 120.0
            },
            {
                "start_time": 22.6159091,
                "end_time": 22.8363636,
                "pitch": 41,
                "velocity": 64,
                "duration": 0.2204545,
                "tempo": 120.0
            },
            {
                "start_time": 22.8545455,
                "end_time": 22.9568182,
                "pitch": 41,
                "velocity": 64,
                "duration": 0.1022727,
                "tempo": 120.0
            },
            {
                "start_time": 22.9909091,
                "end_time": 23.0931818,
                "pitch": 41,
                "velocity": 64,
                "duration": 0.1022727,
                "tempo": 120.0
            },
            {
                "start_time": 23.1090909,
                "end_time": 23.3295455,
                "pitch": 34,
                "velocity": 64,
                "duration": 0.2204545,
                "tempo": 120.0
            },
            {
                "start_time": 23.3454545,
                "end_time": 23.4454545,
                "pitch": 34,
                "velocity": 64,
                "duration": 0.1,
                "tempo": 120.0
            },
            {
                "start_time": 23.4636364,
                "end_time": 23.5636364,
                "pitch": 34,
                "velocity": 64,
                "duration": 0.1,
                "tempo": 120.0
            },
            {
                "start_time": 23.5977273,
                "end_time": 23.8159091,
                "pitch": 34,
                "velocity": 64,
                "duration": 0.2181818,
                "tempo": 120.0
            },
            {
                "start_time": 23.8318182,
                "end_time": 23.9340909,
                "pitch": 34,
                "velocity": 64,
                "duration": 0.1022727,
                "tempo": 120.0
            },
            {
                "start_time": 23.95,
                "end_time": 24.05,
                "pitch": 34,
                "velocity": 64,
                "duration": 0.1,
                "tempo": 120.0
            },
            {
                "start_time": 24.0681818,
                "end_time": 24.2977273,
                "pitch": 34,
                "velocity": 64,
                "duration": 0.2295455,
                "tempo": 120.0
            },
            {
                "start_time": 24.3136364,
                "end_time": 24.4113636,
                "pitch": 34,
                "velocity": 64,
                "duration": 0.0977273,
                "tempo": 120.0
            },
            {
                "start_time": 24.4295455,
                "end_time": 24.5272727,
                "pitch": 34,
                "velocity": 64,
                "duration": 0.0977273,
                "tempo": 120.0
            },
            {
                "start_time": 24.5431818,
                "end_time": 24.7613636,
                "pitch": 34,
                "velocity": 64,
                "duration": 0.2181818,
                "tempo": 120.0
            },
            {
                "start_time": 24.7954545,
                "end_time": 24.8954545,
                "pitch": 34,
                "velocity": 64,
                "duration": 0.1,
                "tempo": 120.0
            },
            {
                "start_time": 24.9136364,
                "end_time": 25.0136364,
                "pitch": 34,
                "velocity": 64,
                "duration": 0.1,
                "tempo": 120.0
            },
            {
                "start_time": 25.0295455,
                "end_time": 25.2522727,
                "pitch": 34,
                "velocity": 64,
                "duration": 0.2227273,
                "tempo": 120.0
            },
            {
                "start_time": 25.2704545,
                "end_time": 25.3727273,
                "pitch": 34,
                "velocity": 64,
                "duration": 0.1022727,
                "tempo": 120.0
            },
            {
                "start_time": 25.4068182,
                "end_time": 25.5090909,
                "pitch": 34,
                "velocity": 64,
                "duration": 0.1022727,
                "tempo": 120.0
            },
            {
                "start_time": 25.525,
                "end_time": 25.7431818,
                "pitch": 34,
                "velocity": 64,
                "duration": 0.2181818,
                "tempo": 120.0
            },
            {
                "start_time": 25.7613636,
                "end_time": 25.8613636,
                "pitch": 34,
                "velocity": 64,
                "duration": 0.1,
                "tempo": 120.0
            },
            {
                "start_time": 25.8795455,
                "end_time": 25.9795455,
                "pitch": 34,
                "velocity": 64,
                "duration": 0.1,
                "tempo": 120.0
            },
            {
                "start_time": 26.0136364,
                "end_time": 26.2318182,
                "pitch": 34,
                "velocity": 64,
                "duration": 0.2181818,
                "tempo": 120.0
            },
            {
                "start_time": 26.2477273,
                "end_time": 26.35,
                "pitch": 34,
                "velocity": 64,
                "duration": 0.1022727,
                "tempo": 120.0
            },
            {
                "start_time": 26.3659091,
                "end_time": 26.4659091,
                "pitch": 34,
                "velocity": 64,
                "duration": 0.1,
                "tempo": 120.0
            },
            {
                "start_time": 26.4840909,
                "end_time": 26.7136364,
                "pitch": 34,
                "velocity": 64,
                "duration": 0.2295455,
                "tempo": 120.0
            },
            {
                "start_time": 26.7295455,
                "end_time": 26.8272727,
                "pitch": 34,
                "velocity": 64,
                "duration": 0.0977273,
                "tempo": 120.0
            },
            {
                "start_time": 26.8431818,
                "end_time": 26.9431818,
                "pitch": 34,
                "velocity": 64,
                "duration": 0.1,
                "tempo": 120.0
            },
            {
                "start_time": 26.9590909,
                "end_time": 27.1772727,
                "pitch": 42,
                "velocity": 64,
                "duration": 0.2181818,
                "tempo": 120.0
            },
            {
                "start_time": 27.2113636,
                "end_time": 27.3113636,
                "pitch": 42,
                "velocity": 64,
                "duration": 0.1,
                "tempo": 120.0
            },
            {
                "start_time": 27.3295455,
                "end_time": 27.4295455,
                "pitch": 42,
                "velocity": 64,
                "duration": 0.1,
                "tempo": 120.0
            },
            {
                "start_time": 27.4454545,
                "end_time": 27.6636364,
                "pitch": 42,
                "velocity": 64,
                "duration": 0.2181818,
                "tempo": 120.0
            },
            {
                "start_time": 27.6818182,
                "end_time": 27.7818182,
                "pitch": 42,
                "velocity": 64,
                "duration": 0.1,
                "tempo": 120.0
            },
            {
                "start_time": 27.8159091,
                "end_time": 27.9159091,
                "pitch": 42,
                "velocity": 64,
                "duration": 0.1,
                "tempo": 120.0
            },
            {
                "start_time": 27.9340909,
                "end_time": 28.1545455,
                "pitch": 42,
                "velocity": 64,
                "duration": 0.2204545,
                "tempo": 120.0
            },
            {
                "start_time": 28.1727273,
                "end_time": 28.275,
                "pitch": 42,
                "velocity": 64,
                "duration": 0.1022727,
                "tempo": 120.0
            },
            {
                "start_time": 28.2909091,
                "end_time": 28.3931818,
                "pitch": 42,
                "velocity": 64,
                "duration": 0.1022727,
                "tempo": 120.0
            },
            {
                "start_time": 28.4295455,
                "end_time": 28.6477273,
                "pitch": 42,
                "velocity": 64,
                "duration": 0.2181818,
                "tempo": 120.0
            },
            {
                "start_time": 28.6636364,
                "end_time": 28.7636364,
                "pitch": 42,
                "velocity": 64,
                "duration": 0.1,
                "tempo": 120.0
            },
            {
                "start_time": 28.7818182,
                "end_time": 28.8818182,
                "pitch": 42,
                "velocity": 64,
                "duration": 0.1,
                "tempo": 120.0
            },
            {
                "start_time": 28.9,
                "end_time": 29.1295455,
                "pitch": 44,
                "velocity": 64,
                "duration": 0.2295455,
                "tempo": 120.0
            },
            {
                "start_time": 29.1454545,
                "end_time": 29.2431818,
                "pitch": 44,
                "velocity": 64,
                "duration": 0.0977273,
                "tempo": 120.0
            },
            {
                "start_time": 29.2590909,
                "end_time": 29.3590909,
                "pitch": 44,
                "velocity": 64,
                "duration": 0.1,
                "tempo": 120.0
            },
            {
                "start_time": 29.375,
                "end_time": 29.5931818,
                "pitch": 44,
                "velocity": 64,
                "duration": 0.2181818,
                "tempo": 120.0
            },
            {
                "start_time": 29.6272727,
                "end_time": 29.7272727,
                "pitch": 44,
                "velocity": 64,
                "duration": 0.1,
                "tempo": 120.0
            },
            {
                "start_time": 29.7431818,
                "end_time": 29.8454545,
                "pitch": 44,
                "velocity": 64,
                "duration": 0.1022727,
                "tempo": 120.0
            },
            {
                "start_time": 29.8613636,
                "end_time": 30.0840909,
                "pitch": 44,
                "velocity": 64,
                "duration": 0.2227273,
                "tempo": 120.0
            },
            {
                "start_time": 30.1,
                "end_time": 30.2022727,
                "pitch": 44,
                "velocity": 64,
                "duration": 0.1022727,
                "tempo": 120.0
            },
            {
                "start_time": 30.2363636,
                "end_time": 30.3386364,
                "pitch": 44,
                "velocity": 64,
                "duration": 0.1022727,
                "tempo": 120.0
            },
            {
                "start_time": 30.3568182,
                "end_time": 30.5727273,
                "pitch": 44,
                "velocity": 64,
                "duration": 0.2159091,
                "tempo": 120.0
            },
            {
                "start_time": 30.5909091,
                "end_time": 30.6909091,
                "pitch": 44,
                "velocity": 64,
                "duration": 0.1,
                "tempo": 120.0
            },
            {
                "start_time": 30.7068182,
                "end_time": 30.8068182,
                "pitch": 44,
                "velocity": 64,
                "duration": 0.1,
                "tempo": 120.0
            },
            {
                "start_time": 30.8409091,
                "end_time": 31.0590909,
                "pitch": 34,
                "velocity": 64,
                "duration": 0.2181818,
                "tempo": 120.0
            },
            {
                "start_time": 31.075,
                "end_time": 31.1772727,
                "pitch": 34,
                "velocity": 64,
                "duration": 0.1022727,
                "tempo": 120.0
            },
            {
                "start_time": 31.1931818,
                "end_time": 31.2931818,
                "pitch": 34,
                "velocity": 64,
                "duration": 0.1,
                "tempo": 120.0
            },
            {
                "start_time": 31.3113636,
                "end_time": 31.5409091,
                "pitch": 34,
                "velocity": 64,
                "duration": 0.2295455,
                "tempo": 120.0
            },
            {
                "start_time": 31.5568182,
                "end_time": 31.6545455,
                "pitch": 34,
                "velocity": 64,
                "duration": 0.0977273,
                "tempo": 120.0
            },
            {
                "start_time": 31.6727273,
                "end_time": 31.7704545,
                "pitch": 34,
                "velocity": 64,
                "duration": 0.0977273,
                "tempo": 120.0
            },
            {
                "start_time": 31.7863636,
                "end_time": 32.0045455,
                "pitch": 34,
                "velocity": 64,
                "duration": 0.2181818,
                "tempo": 120.0
            },
            {
                "start_time": 32.0386364,
                "end_time": 32.1386364,
                "pitch": 34,
                "velocity": 64,
                "duration": 0.1,
                "tempo": 120.0
            },
            {
                "start_time": 32.1568182,
                "end_time": 32.2568182,
                "pitch": 34,
                "velocity": 64,
                "duration": 0.1,
                "tempo": 120.0
            },
            {
                "start_time": 32.2727273,
                "end_time": 32.4909091,
                "pitch": 34,
                "velocity": 64,
                "duration": 0.2181818,
                "tempo": 120.0
            },
            {
                "start_time": 32.5068182,
                "end_time": 32.6068182,
                "pitch": 34,
                "velocity": 64,
                "duration": 0.1,
                "tempo": 120.0
            },
            {
                "start_time": 32.6409091,
                "end_time": 32.7409091,
                "pitch": 34,
                "velocity": 64,
                "duration": 0.1,
                "tempo": 120.0
            },
            {
                "start_time": 32.7568182,
                "end_time": 32.9795455,
                "pitch": 34,
                "velocity": 64,
                "duration": 0.2227273,
                "tempo": 120.0
            },
            {
                "start_time": 32.9954545,
                "end_time": 33.0977273,
                "pitch": 34,
                "velocity": 64,
                "duration": 0.1022727,
                "tempo": 120.0
            },
            {
                "start_time": 33.1159091,
                "end_time": 33.2181818,
                "pitch": 34,
                "velocity": 64,
                "duration": 0.1022727,
                "tempo": 120.0
            },
            {
                "start_time": 33.2522727,
                "end_time": 33.4681818,
                "pitch": 34,
                "velocity": 64,
                "duration": 0.2159091,
                "tempo": 120.0
            },
            {
                "start_time": 33.4863636,
                "end_time": 33.5863636,
                "pitch": 34,
                "velocity": 64,
                "duration": 0.1,
                "tempo": 120.0
            },
            {
                "start_time": 33.6022727,
                "end_time": 33.7022727,
                "pitch": 34,
                "velocity": 64,
                "duration": 0.1,
                "tempo": 120.0
            },
            {
                "start_time": 33.7181818,
                "end_time": 33.9477273,
                "pitch": 34,
                "velocity": 64,
                "duration": 0.2295455,
                "tempo": 120.0
            },
            {
                "start_time": 33.9636364,
                "end_time": 34.0636364,
                "pitch": 34,
                "velocity": 64,
                "duration": 0.1,
                "tempo": 120.0
            },
            {
                "start_time": 34.0795455,
                "end_time": 34.1772727,
                "pitch": 34,
                "velocity": 64,
                "duration": 0.0977273,
                "tempo": 120.0
            },
            {
                "start_time": 34.1954545,
                "end_time": 34.4113636,
                "pitch": 34,
                "velocity": 64,
                "duration": 0.2159091,
                "tempo": 120.0
            },
            {
                "start_time": 34.4431818,
                "end_time": 34.5431818,
                "pitch": 34,
                "velocity": 64,
                "duration": 0.1,
                "tempo": 120.0
            },
            {
                "start_time": 34.5613636,
                "end_time": 34.6613636,
                "pitch": 34,
                "velocity": 64,
                "duration": 0.1,
                "tempo": 120.0
            },
            {
                "start_time": 34.6772727,
                "end_time": 34.9,
                "pitch": 42,
                "velocity": 64,
                "duration": 0.2227273,
                "tempo": 120.0
            },
            {
                "start_time": 34.9159091,
                "end_time": 35.0181818,
                "pitch": 42,
                "velocity": 64,
                "duration": 0.1022727,
                "tempo": 120.0
            },
            {
                "start_time": 35.0522727,
                "end_time": 35.1545455,
                "pitch": 42,
                "velocity": 64,
                "duration": 0.1022727,
                "tempo": 120.0
            },
            {
                "start_time": 35.1727273,
                "end_time": 35.3886364,
                "pitch": 42,
                "velocity": 64,
                "duration": 0.2159091,
                "tempo": 120.0
            },
            {
                "start_time": 35.4068182,
                "end_time": 35.5068182,
                "pitch": 42,
                "velocity": 64,
                "duration": 0.1,
                "tempo": 120.0
            },
            {
                "start_time": 35.5227273,
                "end_time": 35.6227273,
                "pitch": 42,
                "velocity": 64,
                "duration": 0.1,
                "tempo": 120.0
            },
            {
                "start_time": 35.6568182,
                "end_time": 35.875,
                "pitch": 42,
                "velocity": 64,
                "duration": 0.2181818,
                "tempo": 120.0
            },
            {
                "start_time": 35.8909091,
                "end_time": 35.9909091,
                "pitch": 42,
                "velocity": 64,
                "duration": 0.1,
                "tempo": 120.0
            },
            {
                "start_time": 36.0090909,
                "end_time": 36.1090909,
                "pitch": 42,
                "velocity": 64,
                "duration": 0.1,
                "tempo": 120.0
            },
            {
                "start_time": 36.1272727,
                "end_time": 36.3568182,
                "pitch": 42,
                "velocity": 64,
                "duration": 0.2295455,
                "tempo": 120.0
            },
            {
                "start_time": 36.3727273,
                "end_time": 36.4704545,
                "pitch": 42,
                "velocity": 64,
                "duration": 0.0977273,
                "tempo": 120.0
            },
            {
                "start_time": 36.4863636,
                "end_time": 36.5863636,
                "pitch": 42,
                "velocity": 64,
                "duration": 0.1,
                "tempo": 120.0
            },
            {
                "start_time": 36.6022727,
                "end_time": 36.8181818,
                "pitch": 44,
                "velocity": 64,
                "duration": 0.2159091,
                "tempo": 120.0
            },
            {
                "start_time": 36.8522727,
                "end_time": 36.9522727,
                "pitch": 44,
                "velocity": 64,
                "duration": 0.1,
                "tempo": 120.0
            },
            {
                "start_time": 36.9681818,
                "end_time": 37.0681818,
                "pitch": 44,
                "velocity": 64,
                "duration": 0.1,
                "tempo": 120.0
            },
            {
                "start_time": 37.0863636,
                "end_time": 37.3045455,
                "pitch": 44,
                "velocity": 64,
                "duration": 0.2181818,
                "tempo": 120.0
            },
            {
                "start_time": 37.3204545,
                "end_time": 37.4204545,
                "pitch": 44,
                "velocity": 64,
                "duration": 0.1,
                "tempo": 120.0
            },
            {
                "start_time": 37.4545455,
                "end_time": 37.5568182,
                "pitch": 44,
                "velocity": 64,
                "duration": 0.1022727,
                "tempo": 120.0
            },
            {
                "start_time": 37.5727273,
                "end_time": 37.7886364,
                "pitch": 44,
                "velocity": 64,
                "duration": 0.2159091,
                "tempo": 120.0
            },
            {
                "start_time": 37.8068182,
                "end_time": 37.9068182,
                "pitch": 44,
                "velocity": 64,
                "duration": 0.1,
                "tempo": 120.0
            },
            {
                "start_time": 37.9227273,
                "end_time": 38.0227273,
                "pitch": 44,
                "velocity": 64,
                "duration": 0.1,
                "tempo": 120.0
            },
            {
                "start_time": 38.0568182,
                "end_time": 38.2818182,
                "pitch": 44,
                "velocity": 64,
                "duration": 0.225,
                "tempo": 120.0
            },
            {
                "start_time": 38.2977273,
                "end_time": 38.4022727,
                "pitch": 44,
                "velocity": 64,
                "duration": 0.1045455,
                "tempo": 120.0
            },
            {
                "start_time": 38.4204545,
                "end_time": 38.525,
                "pitch": 44,
                "velocity": 64,
                "duration": 0.1045455,
                "tempo": 120.0
            },
            {
                "start_time": 38.5409091,
                "end_time": 39.0022727,
                "pitch": 39,
                "velocity": 64,
                "duration": 0.4613636,
                "tempo": 120.0
            },
            {
                "start_time": 39.0181818,
                "end_time": 39.7181818,
                "pitch": 41,
                "velocity": 64,
                "duration": 0.7,
                "tempo": 120.0
            },
            {
                "start_time": 39.7340909,
                "end_time": 39.8318182,
                "pitch": 41,
                "velocity": 64,
                "duration": 0.0977273,
                "tempo": 120.0
            },
            {
                "start_time": 39.8659091,
                "end_time": 39.9636364,
                "pitch": 42,
                "velocity": 64,
                "duration": 0.0977273,
                "tempo": 120.0
            },
            {
                "start_time": 39.9795455,
                "end_time": 40.0818182,
                "pitch": 41,
                "velocity": 64,
                "duration": 0.1022727,
                "tempo": 120.0
            },
            {
                "start_time": 40.1,
                "end_time": 40.2022727,
                "pitch": 39,
                "velocity": 64,
                "duration": 0.1022727,
                "tempo": 120.0
            },
            {
                "start_time": 40.2204545,
                "end_time": 40.3227273,
                "pitch": 37,
                "velocity": 64,
                "duration": 0.1022727,
                "tempo": 120.0
            },
            {
                "start_time": 40.3386364,
                "end_time": 40.4409091,
                "pitch": 36,
                "velocity": 64,
                "duration": 0.1022727,
                "tempo": 120.0
            },
            {
                "start_time": 40.475,
                "end_time": 40.925,
                "pitch": 39,
                "velocity": 64,
                "duration": 0.45,
                "tempo": 120.0
            },
            {
                "start_time": 40.9431818,
                "end_time": 41.4022727,
                "pitch": 41,
                "velocity": 64,
                "duration": 0.4590909,
                "tempo": 120.0
            },
            {
                "start_time": 41.5363636,
                "end_time": 41.6363636,
                "pitch": 36,
                "velocity": 64,
                "duration": 0.1,
                "tempo": 120.0
            },
            {
                "start_time": 41.7863636,
                "end_time": 41.8886364,
                "pitch": 37,
                "velocity": 64,
                "duration": 0.1022727,
                "tempo": 120.0
            },
            {
                "start_time": 41.9045455,
                "end_time": 42.3840909,
                "pitch": 37,
                "velocity": 64,
                "duration": 0.4795455,
                "tempo": 120.0
            },
            {
                "start_time": 42.4,
                "end_time": 42.8545455,
                "pitch": 39,
                "velocity": 64,
                "duration": 0.4545455,
                "tempo": 120.0
            },
            {
                "start_time": 42.8863636,
                "end_time": 43.5840909,
                "pitch": 41,
                "velocity": 64,
                "duration": 0.6977273,
                "tempo": 120.0
            },
            {
                "start_time": 43.6,
                "end_time": 43.6977273,
                "pitch": 41,
                "velocity": 64,
                "duration": 0.0977273,
                "tempo": 120.0
            },
            {
                "start_time": 43.7159091,
                "end_time": 43.8136364,
                "pitch": 41,
                "velocity": 64,
                "duration": 0.0977273,
                "tempo": 120.0
            },
            {
                "start_time": 43.8295455,
                "end_time": 43.9318182,
                "pitch": 41,
                "velocity": 64,
                "duration": 0.1022727,
                "tempo": 120.0
            },
            {
                "start_time": 43.9477273,
                "end_time": 44.0522727,
                "pitch": 39,
                "velocity": 64,
                "duration": 0.1045455,
                "tempo": 120.0
            },
            {
                "start_time": 44.0863636,
                "end_time": 44.1886364,
                "pitch": 37,
                "velocity": 64,
                "duration": 0.1022727,
                "tempo": 120.0
            },
            {
                "start_time": 44.2045455,
                "end_time": 44.3068182,
                "pitch": 36,
                "velocity": 64,
                "duration": 0.1022727,
                "tempo": 120.0
            },
            {
                "start_time": 44.325,
                "end_time": 44.7840909,
                "pitch": 39,
                "velocity": 64,
                "duration": 0.4590909,
                "tempo": 120.0
            },
            {
                "start_time": 44.8,
                "end_time": 45.2613636,
                "pitch": 41,
                "velocity": 64,
                "duration": 0.4613636,
                "tempo": 120.0
            },
            {
                "start_time": 45.2954545,
                "end_time": 45.5113636,
                "pitch": 41,
                "velocity": 64,
                "duration": 0.2159091,
                "tempo": 120.0
            },
            {
                "start_time": 45.5272727,
                "end_time": 45.6272727,
                "pitch": 41,
                "velocity": 64,
                "duration": 0.1,
                "tempo": 120.0
            },
            {
                "start_time": 45.6454545,
                "end_time": 45.7454545,
                "pitch": 41,
                "velocity": 64,
                "duration": 0.1,
                "tempo": 120.0
            },
            {
                "start_time": 45.7613636,
                "end_time": 45.9909091,
                "pitch": 41,
                "velocity": 64,
                "duration": 0.2295455,
                "tempo": 120.0
            },
            {
                "start_time": 46.0068182,
                "end_time": 46.1068182,
                "pitch": 41,
                "velocity": 64,
                "duration": 0.1,
                "tempo": 120.0
            },
            {
                "start_time": 46.1227273,
                "end_time": 46.2204545,
                "pitch": 41,
                "velocity": 64,
                "duration": 0.0977273,
                "tempo": 120.0
            },
            {
                "start_time": 46.2363636,
                "end_time": 46.4545455,
                "pitch": 36,
                "velocity": 64,
                "duration": 0.2181818,
                "tempo": 120.0
            },
            {
                "start_time": 46.4863636,
                "end_time": 46.5863636,
                "pitch": 36,
                "velocity": 64,
                "duration": 0.1,
                "tempo": 120.0
            },
            {
                "start_time": 46.6045455,
                "end_time": 46.7045455,
                "pitch": 36,
                "velocity": 64,
                "duration": 0.1,
                "tempo": 120.0
            },
            {
                "start_time": 46.7204545,
                "end_time": 46.9431818,
                "pitch": 36,
                "velocity": 64,
                "duration": 0.2227273,
                "tempo": 120.0
            },
            {
                "start_time": 46.9590909,
                "end_time": 47.0613636,
                "pitch": 36,
                "velocity": 64,
                "duration": 0.1022727,
                "tempo": 120.0
            },
            {
                "start_time": 47.0954545,
                "end_time": 47.1977273,
                "pitch": 36,
                "velocity": 64,
                "duration": 0.1022727,
                "tempo": 120.0
            },
            {
                "start_time": 47.2159091,
                "end_time": 47.4318182,
                "pitch": 36,
                "velocity": 64,
                "duration": 0.2159091,
                "tempo": 120.0
            },
            {
                "start_time": 47.45,
                "end_time": 47.55,
                "pitch": 36,
                "velocity": 64,
                "duration": 0.1,
                "tempo": 120.0
            },
            {
                "start_time": 47.5659091,
                "end_time": 47.6659091,
                "pitch": 36,
                "velocity": 64,
                "duration": 0.1,
                "tempo": 120.0
            },
            {
                "start_time": 47.7,
                "end_time": 47.9181818,
                "pitch": 36,
                "velocity": 64,
                "duration": 0.2181818,
                "tempo": 120.0
            },
            {
                "start_time": 47.9340909,
                "end_time": 48.0340909,
                "pitch": 36,
                "velocity": 64,
                "duration": 0.1,
                "tempo": 120.0
            },
            {
                "start_time": 48.0522727,
                "end_time": 48.1522727,
                "pitch": 36,
                "velocity": 64,
                "duration": 0.1,
                "tempo": 120.0
            },
            {
                "start_time": 48.1704545,
                "end_time": 48.4,
                "pitch": 39,
                "velocity": 64,
                "duration": 0.2295455,
                "tempo": 120.0
            },
            {
                "start_time": 48.4159091,
                "end_time": 48.5136364,
                "pitch": 39,
                "velocity": 64,
                "duration": 0.0977273,
                "tempo": 120.0
            },
            {
                "start_time": 48.5295455,
                "end_time": 48.6295455,
                "pitch": 39,
                "velocity": 64,
                "duration": 0.1,
                "tempo": 120.0
            },
            {
                "start_time": 48.6454545,
                "end_time": 48.8613636,
                "pitch": 39,
                "velocity": 64,
                "duration": 0.2159091,
                "tempo": 120.0
            },
            {
                "start_time": 48.8954545,
                "end_time": 48.9954545,
                "pitch": 39,
                "velocity": 64,
                "duration": 0.1,
                "tempo": 120.0
            },
            {
                "start_time": 49.0113636,
                "end_time": 49.1113636,
                "pitch": 39,
                "velocity": 64,
                "duration": 0.1,
                "tempo": 120.0
            },
            {
                "start_time": 49.1295455,
                "end_time": 49.35,
                "pitch": 39,
                "velocity": 64,
                "duration": 0.2204545,
                "tempo": 120.0
            },
            {
                "start_time": 49.3681818,
                "end_time": 49.4704545,
                "pitch": 39,
                "velocity": 64,
                "duration": 0.1022727,
                "tempo": 120.0
            },
            {
                "start_time": 49.5045455,
                "end_time": 49.6068182,
                "pitch": 39,
                "velocity": 64,
                "duration": 0.1022727,
                "tempo": 120.0
            },
            {
                "start_time": 49.6227273,
                "end_time": 49.8409091,
                "pitch": 39,
                "velocity": 64,
                "duration": 0.2181818,
                "tempo": 120.0
            },
            {
                "start_time": 49.8568182,
                "end_time": 49.9568182,
                "pitch": 39,
                "velocity": 64,
                "duration": 0.1,
                "tempo": 120.0
            },
            {
                "start_time": 49.9727273,
                "end_time": 50.0727273,
                "pitch": 39,
                "velocity": 64,
                "duration": 0.1,
                "tempo": 120.0
            },
            {
                "start_time": 50.1068182,
                "end_time": 50.3295455,
                "pitch": 34,
                "velocity": 64,
                "duration": 0.2227273,
                "tempo": 120.0
            },
            {
                "start_time": 50.3454545,
                "end_time": 50.4477273,
                "pitch": 34,
                "velocity": 64,
                "duration": 0.1022727,
                "tempo": 120.0
            },
            {
                "start_time": 50.4659091,
                "end_time": 50.5681818,
                "pitch": 34,
                "velocity": 64,
                "duration": 0.1022727,
                "tempo": 120.0
            },
            {
                "start_time": 50.5840909,
                "end_time": 50.8090909,
                "pitch": 34,
                "velocity": 64,
                "duration": 0.225,
                "tempo": 120.0
            },
            {
                "start_time": 50.825,
                "end_time": 50.9227273,
                "pitch": 34,
                "velocity": 64,
                "duration": 0.0977273,
                "tempo": 120.0
            },
            {
                "start_time": 50.9386364,
                "end_time": 51.0340909,
                "pitch": 34,
                "velocity": 64,
                "duration": 0.0954545,
                "tempo": 120.0
            },
            {
                "start_time": 51.05,
                "end_time": 51.2659091,
                "pitch": 34,
                "velocity": 64,
                "duration": 0.2159091,
                "tempo": 120.0
            },
            {
                "start_time": 51.3,
                "end_time": 51.4,
                "pitch": 34,
                "velocity": 64,
                "duration": 0.1,
                "tempo": 120.0
            },
            {
                "start_time": 51.4159091,
                "end_time": 51.5159091,
                "pitch": 34,
                "velocity": 64,
                "duration": 0.1,
                "tempo": 120.0
            },
            {
                "start_time": 51.5318182,
                "end_time": 51.7522727,
                "pitch": 34,
                "velocity": 64,
                "duration": 0.2204545,
                "tempo": 120.0
            },
            {
                "start_time": 51.7681818,
                "end_time": 51.8681818,
                "pitch": 34,
                "velocity": 64,
                "duration": 0.1,
                "tempo": 120.0
            },
            {
                "start_time": 51.9022727,
                "end_time": 52.0022727,
                "pitch": 34,
                "velocity": 64,
                "duration": 0.1,
                "tempo": 120.0
            },
            {
                "start_time": 52.0204545,
                "end_time": 52.2409091,
                "pitch": 42,
                "velocity": 64,
                "duration": 0.2204545,
                "tempo": 120.0
            },
            {
                "start_time": 52.2590909,
                "end_time": 52.3613636,
                "pitch": 42,
                "velocity": 64,
                "duration": 0.1022727,
                "tempo": 120.0
            },
            {
                "start_time": 52.3795455,
                "end_time": 52.4818182,
                "pitch": 42,
                "velocity": 64,
                "duration": 0.1022727,
                "tempo": 120.0
            },
            {
                "start_time": 52.5159091,
                "end_time": 52.7318182,
                "pitch": 42,
                "velocity": 64,
                "duration": 0.2159091,
                "tempo": 120.0
            },
            {
                "start_time": 52.7477273,
                "end_time": 52.8477273,
                "pitch": 42,
                "velocity": 64,
                "duration": 0.1,
                "tempo": 120.0
            },
            {
                "start_time": 52.8659091,
                "end_time": 52.9659091,
                "pitch": 42,
                "velocity": 64,
                "duration": 0.1,
                "tempo": 120.0
            },
            {
                "start_time": 52.9818182,
                "end_time": 53.2113636,
                "pitch": 42,
                "velocity": 64,
                "duration": 0.2295455,
                "tempo": 120.0
            },
            {
                "start_time": 53.2272727,
                "end_time": 53.3272727,
                "pitch": 42,
                "velocity": 64,
                "duration": 0.1,
                "tempo": 120.0
            },
            {
                "start_time": 53.3431818,
                "end_time": 53.4409091,
                "pitch": 42,
                "velocity": 64,
                "duration": 0.0977273,
                "tempo": 120.0
            },
            {
                "start_time": 53.4568182,
                "end_time": 53.675,
                "pitch": 42,
                "velocity": 64,
                "duration": 0.2181818,
                "tempo": 120.0
            },
            {
                "start_time": 53.7090909,
                "end_time": 53.8113636,
                "pitch": 42,
                "velocity": 64,
                "duration": 0.1022727,
                "tempo": 120.0
            },
            {
                "start_time": 53.8272727,
                "end_time": 53.9272727,
                "pitch": 42,
                "velocity": 64,
                "duration": 0.1,
                "tempo": 120.0
            },
            {
                "start_time": 53.9454545,
                "end_time": 54.1613636,
                "pitch": 44,
                "velocity": 64,
                "duration": 0.2159091,
                "tempo": 120.0
            },
            {
                "start_time": 54.1772727,
                "end_time": 54.2772727,
                "pitch": 44,
                "velocity": 64,
                "duration": 0.1,
                "tempo": 120.0
            },
            {
                "start_time": 54.3113636,
                "end_time": 54.4113636,
                "pitch": 44,
                "velocity": 64,
                "duration": 0.1,
                "tempo": 120.0
            },
            {
                "start_time": 54.4272727,
                "end_time": 54.65,
                "pitch": 44,
                "velocity": 64,
                "duration": 0.2227273,
                "tempo": 120.0
            },
            {
                "start_time": 54.6659091,
                "end_time": 54.7704545,
                "pitch": 44,
                "velocity": 64,
                "duration": 0.1045455,
                "tempo": 120.0
            },
            {
                "start_time": 54.7863636,
                "end_time": 54.8886364,
                "pitch": 44,
                "velocity": 64,
                "duration": 0.1022727,
                "tempo": 120.0
            },
            {
                "start_time": 54.9227273,
                "end_time": 55.1409091,
                "pitch": 44,
                "velocity": 64,
                "duration": 0.2181818,
                "tempo": 120.0
            },
            {
                "start_time": 55.1568182,
                "end_time": 55.2568182,
                "pitch": 44,
                "velocity": 64,
                "duration": 0.1,
                "tempo": 120.0
            },
            {
                "start_time": 55.2727273,
                "end_time": 55.3727273,
                "pitch": 44,
                "velocity": 64,
                "duration": 0.1,
                "tempo": 120.0
            },
            {
                "start_time": 55.3909091,
                "end_time": 55.6204545,
                "pitch": 44,
                "velocity": 64,
                "duration": 0.2295455,
                "tempo": 120.0
            },
            {
                "start_time": 55.6363636,
                "end_time": 55.7340909,
                "pitch": 44,
                "velocity": 64,
                "duration": 0.0977273,
                "tempo": 120.0
            },
            {
                "start_time": 55.75,
                "end_time": 55.85,
                "pitch": 44,
                "velocity": 64,
                "duration": 0.1,
                "tempo": 120.0
            },
            {
                "start_time": 55.8659091,
                "end_time": 56.0840909,
                "pitch": 42,
                "velocity": 64,
                "duration": 0.2181818,
                "tempo": 120.0
            },
            {
                "start_time": 56.1181818,
                "end_time": 56.2181818,
                "pitch": 42,
                "velocity": 64,
                "duration": 0.1,
                "tempo": 120.0
            },
            {
                "start_time": 56.2340909,
                "end_time": 56.3363636,
                "pitch": 42,
                "velocity": 64,
                "duration": 0.1022727,
                "tempo": 120.0
            },
            {
                "start_time": 56.3522727,
                "end_time": 56.5704545,
                "pitch": 42,
                "velocity": 64,
                "duration": 0.2181818,
                "tempo": 120.0
            },
            {
                "start_time": 56.5863636,
                "end_time": 56.6863636,
                "pitch": 42,
                "velocity": 64,
                "duration": 0.1,
                "tempo": 120.0
            },
            {
                "start_time": 56.7181818,
                "end_time": 56.8181818,
                "pitch": 42,
                "velocity": 64,
                "duration": 0.1,
                "tempo": 120.0
            },
            {
                "start_time": 56.8363636,
                "end_time": 57.0568182,
                "pitch": 44,
                "velocity": 64,
                "duration": 0.2204545,
                "tempo": 120.0
            },
            {
                "start_time": 57.075,
                "end_time": 57.1772727,
                "pitch": 44,
                "velocity": 64,
                "duration": 0.1022727,
                "tempo": 120.0
            },
            {
                "start_time": 57.1954545,
                "end_time": 57.2977273,
                "pitch": 44,
                "velocity": 64,
                "duration": 0.1022727,
                "tempo": 120.0
            },
            {
                "start_time": 57.3318182,
                "end_time": 57.5477273,
                "pitch": 44,
                "velocity": 64,
                "duration": 0.2159091,
                "tempo": 120.0
            },
            {
                "start_time": 57.5636364,
                "end_time": 57.6636364,
                "pitch": 44,
                "velocity": 64,
                "duration": 0.1,
                "tempo": 120.0
            },
            {
                "start_time": 57.6818182,
                "end_time": 57.7818182,
                "pitch": 44,
                "velocity": 64,
                "duration": 0.1,
                "tempo": 120.0
            },
            {
                "start_time": 57.7977273,
                "end_time": 58.0272727,
                "pitch": 34,
                "velocity": 64,
                "duration": 0.2295455,
                "tempo": 120.0
            },
            {
                "start_time": 58.0431818,
                "end_time": 58.1431818,
                "pitch": 34,
                "velocity": 64,
                "duration": 0.1,
                "tempo": 120.0
            },
            {
                "start_time": 58.1590909,
                "end_time": 58.2568182,
                "pitch": 34,
                "velocity": 64,
                "duration": 0.0977273,
                "tempo": 120.0
            },
            {
                "start_time": 58.2727273,
                "end_time": 58.4909091,
                "pitch": 34,
                "velocity": 64,
                "duration": 0.2181818,
                "tempo": 120.0
            },
            {
                "start_time": 58.5227273,
                "end_time": 58.6227273,
                "pitch": 34,
                "velocity": 64,
                "duration": 0.1,
                "tempo": 120.0
            },
            {
                "start_time": 58.6409091,
                "end_time": 58.7409091,
                "pitch": 34,
                "velocity": 64,
                "duration": 0.1,
                "tempo": 120.0
            },
            {
                "start_time": 58.7568182,
                "end_time": 58.9727273,
                "pitch": 34,
                "velocity": 64,
                "duration": 0.2159091,
                "tempo": 120.0
            },
            {
                "start_time": 58.9909091,
                "end_time": 59.0909091,
                "pitch": 34,
                "velocity": 64,
                "duration": 0.1,
                "tempo": 120.0
            },
            {
                "start_time": 59.1227273,
                "end_time": 59.2227273,
                "pitch": 34,
                "velocity": 64,
                "duration": 0.1,
                "tempo": 120.0
            },
            {
                "start_time": 59.2409091,
                "end_time": 59.4613636,
                "pitch": 34,
                "velocity": 64,
                "duration": 0.2204545,
                "tempo": 120.0
            },
            {
                "start_time": 59.4795455,
                "end_time": 59.5818182,
                "pitch": 34,
                "velocity": 64,
                "duration": 0.1022727,
                "tempo": 120.0
            },
            {
                "start_time": 59.5977273,
                "end_time": 59.7,
                "pitch": 34,
                "velocity": 64,
                "duration": 0.1022727,
                "tempo": 120.0
            },
            {
                "start_time": 59.7340909,
                "end_time": 59.9545455,
                "pitch": 42,
                "velocity": 64,
                "duration": 0.2204545,
                "tempo": 120.0
            },
            {
                "start_time": 59.9704545,
                "end_time": 60.0704545,
                "pitch": 42,
                "velocity": 64,
                "duration": 0.1,
                "tempo": 120.0
            },
            {
                "start_time": 60.0886364,
                "end_time": 60.1886364,
                "pitch": 42,
                "velocity": 64,
                "duration": 0.1,
                "tempo": 120.0
            },
            {
                "start_time": 60.2045455,
                "end_time": 60.4340909,
                "pitch": 42,
                "velocity": 64,
                "duration": 0.2295455,
                "tempo": 120.0
            },
            {
                "start_time": 60.4522727,
                "end_time": 60.55,
                "pitch": 42,
                "velocity": 64,
                "duration": 0.0977273,
                "tempo": 120.0
            },
            {
                "start_time": 60.5659091,
                "end_time": 60.6659091,
                "pitch": 42,
                "velocity": 64,
                "duration": 0.1,
                "tempo": 120.0
            },
            {
                "start_time": 60.6818182,
                "end_time": 60.8977273,
                "pitch": 42,
                "velocity": 64,
                "duration": 0.2159091,
                "tempo": 120.0
            },
            {
                "start_time": 60.9318182,
                "end_time": 61.0318182,
                "pitch": 42,
                "velocity": 64,
                "duration": 0.1,
                "tempo": 120.0
            },
            {
                "start_time": 61.0477273,
                "end_time": 61.1477273,
                "pitch": 42,
                "velocity": 64,
                "duration": 0.1,
                "tempo": 120.0
            },
            {
                "start_time": 61.1636364,
                "end_time": 61.3818182,
                "pitch": 42,
                "velocity": 64,
                "duration": 0.2181818,
                "tempo": 120.0
            },
            {
                "start_time": 61.4,
                "end_time": 61.5,
                "pitch": 42,
                "velocity": 64,
                "duration": 0.1,
                "tempo": 120.0
            },
            {
                "start_time": 61.5340909,
                "end_time": 61.6340909,
                "pitch": 42,
                "velocity": 64,
                "duration": 0.1,
                "tempo": 120.0
            },
            {
                "start_time": 61.6522727,
                "end_time": 61.8727273,
                "pitch": 44,
                "velocity": 64,
                "duration": 0.2204545,
                "tempo": 120.0
            },
            {
                "start_time": 61.8909091,
                "end_time": 61.9931818,
                "pitch": 44,
                "velocity": 64,
                "duration": 0.1022727,
                "tempo": 120.0
            },
            {
                "start_time": 62.0090909,
                "end_time": 62.1136364,
                "pitch": 44,
                "velocity": 64,
                "duration": 0.1045455,
                "tempo": 120.0
            },
            {
                "start_time": 62.1477273,
                "end_time": 62.3659091,
                "pitch": 44,
                "velocity": 64,
                "duration": 0.2181818,
                "tempo": 120.0
            },
            {
                "start_time": 62.3818182,
                "end_time": 62.4818182,
                "pitch": 44,
                "velocity": 64,
                "duration": 0.1,
                "tempo": 120.0
            },
            {
                "start_time": 62.5,
                "end_time": 62.6,
                "pitch": 44,
                "velocity": 64,
                "duration": 0.1,
                "tempo": 120.0
            },
            {
                "start_time": 62.6181818,
                "end_time": 62.8477273,
                "pitch": 44,
                "velocity": 64,
                "duration": 0.2295455,
                "tempo": 120.0
            },
            {
                "start_time": 62.8636364,
                "end_time": 62.9613636,
                "pitch": 44,
                "velocity": 64,
                "duration": 0.0977273,
                "tempo": 120.0
            },
            {
                "start_time": 62.9772727,
                "end_time": 63.0772727,
                "pitch": 44,
                "velocity": 64,
                "duration": 0.1,
                "tempo": 120.0
            },
            {
                "start_time": 63.0931818,
                "end_time": 63.3090909,
                "pitch": 44,
                "velocity": 64,
                "duration": 0.2159091,
                "tempo": 120.0
            },
            {
                "start_time": 63.3431818,
                "end_time": 63.4431818,
                "pitch": 44,
                "velocity": 64,
                "duration": 0.1,
                "tempo": 120.0
            },
            {
                "start_time": 63.4590909,
                "end_time": 63.5590909,
                "pitch": 44,
                "velocity": 64,
                "duration": 0.1,
                "tempo": 120.0
            },
            {
                "start_time": 63.5772727,
                "end_time": 63.7954545,
                "pitch": 42,
                "velocity": 64,
                "duration": 0.2181818,
                "tempo": 120.0
            },
            {
                "start_time": 63.8113636,
                "end_time": 63.9113636,
                "pitch": 42,
                "velocity": 64,
                "duration": 0.1,
                "tempo": 120.0
            },
            {
                "start_time": 63.9454545,
                "end_time": 64.0477273,
                "pitch": 42,
                "velocity": 64,
                "duration": 0.1022727,
                "tempo": 120.0
            },
            {
                "start_time": 64.0636364,
                "end_time": 64.2863636,
                "pitch": 42,
                "velocity": 64,
                "duration": 0.2227273,
                "tempo": 120.0
            },
            {
                "start_time": 64.3022727,
                "end_time": 64.4045455,
                "pitch": 42,
                "velocity": 64,
                "duration": 0.1022727,
                "tempo": 120.0
            },
            {
                "start_time": 64.4227273,
                "end_time": 64.525,
                "pitch": 42,
                "velocity": 64,
                "duration": 0.1022727,
                "tempo": 120.0
            },
            {
                "start_time": 64.5590909,
                "end_time": 64.775,
                "pitch": 44,
                "velocity": 64,
                "duration": 0.2159091,
                "tempo": 120.0
            },
            {
                "start_time": 64.7909091,
                "end_time": 64.8909091,
                "pitch": 44,
                "velocity": 64,
                "duration": 0.1,
                "tempo": 120.0
            },
            {
                "start_time": 64.9090909,
                "end_time": 65.0090909,
                "pitch": 44,
                "velocity": 64,
                "duration": 0.1,
                "tempo": 120.0
            },
            {
                "start_time": 65.025,
                "end_time": 65.2545455,
                "pitch": 44,
                "velocity": 64,
                "duration": 0.2295455,
                "tempo": 120.0
            },
            {
                "start_time": 65.2704545,
                "end_time": 65.3704545,
                "pitch": 44,
                "velocity": 64,
                "duration": 0.1,
                "tempo": 120.0
            },
            {
                "start_time": 65.3863636,
                "end_time": 65.4840909,
                "pitch": 44,
                "velocity": 64,
                "duration": 0.0977273,
                "tempo": 120.0
            },
            {
                "start_time": 65.5,
                "end_time": 65.7181818,
                "pitch": 34,
                "velocity": 64,
                "duration": 0.2181818,
                "tempo": 120.0
            },
            {
                "start_time": 65.75,
                "end_time": 65.85,
                "pitch": 34,
                "velocity": 64,
                "duration": 0.1,
                "tempo": 120.0
            },
            {
                "start_time": 65.8681818,
                "end_time": 65.9681818,
                "pitch": 34,
                "velocity": 64,
                "duration": 0.1,
                "tempo": 120.0
            },
            {
                "start_time": 65.9840909,
                "end_time": 66.2068182,
                "pitch": 34,
                "velocity": 64,
                "duration": 0.2227273,
                "tempo": 120.0
            },
            {
                "start_time": 66.2227273,
                "end_time": 66.325,
                "pitch": 34,
                "velocity": 64,
                "duration": 0.1022727,
                "tempo": 120.0
            },
            {
                "start_time": 66.3590909,
                "end_time": 66.4613636,
                "pitch": 34,
                "velocity": 64,
                "duration": 0.1022727,
                "tempo": 120.0
            },
            {
                "start_time": 66.4795455,
                "end_time": 66.6954545,
                "pitch": 34,
                "velocity": 64,
                "duration": 0.2159091,
                "tempo": 120.0
            },
            {
                "start_time": 66.7136364,
                "end_time": 66.8136364,
                "pitch": 34,
                "velocity": 64,
                "duration": 0.1,
                "tempo": 120.0
            },
            {
                "start_time": 66.8295455,
                "end_time": 66.9295455,
                "pitch": 34,
                "velocity": 64,
                "duration": 0.1,
                "tempo": 120.0
            },
            {
                "start_time": 66.9636364,
                "end_time": 67.1818182,
                "pitch": 34,
                "velocity": 64,
                "duration": 0.2181818,
                "tempo": 120.0
            },
            {
                "start_time": 67.1977273,
                "end_time": 67.2977273,
                "pitch": 34,
                "velocity": 64,
                "duration": 0.1,
                "tempo": 120.0
            },
            {
                "start_time": 67.3159091,
                "end_time": 67.4159091,
                "pitch": 34,
                "velocity": 64,
                "duration": 0.1,
                "tempo": 120.0
            },
            {
                "start_time": 67.4340909,
                "end_time": 67.6636364,
                "pitch": 42,
                "velocity": 64,
                "duration": 0.2295455,
                "tempo": 120.0
            },
            {
                "start_time": 67.6795455,
                "end_time": 67.7772727,
                "pitch": 42,
                "velocity": 64,
                "duration": 0.0977273,
                "tempo": 120.0
            },
            {
                "start_time": 67.7931818,
                "end_time": 67.8931818,
                "pitch": 42,
                "velocity": 64,
                "duration": 0.1,
                "tempo": 120.0
            },
            {
                "start_time": 67.9090909,
                "end_time": 68.1272727,
                "pitch": 42,
                "velocity": 64,
                "duration": 0.2181818,
                "tempo": 120.0
            },
            {
                "start_time": 68.1613636,
                "end_time": 68.2613636,
                "pitch": 42,
                "velocity": 64,
                "duration": 0.1,
                "tempo": 120.0
            },
            {
                "start_time": 68.2772727,
                "end_time": 68.3795455,
                "pitch": 42,
                "velocity": 64,
                "duration": 0.1022727,
                "tempo": 120.0
            },
            {
                "start_time": 68.3954545,
                "end_time": 68.6136364,
                "pitch": 42,
                "velocity": 64,
                "duration": 0.2181818,
                "tempo": 120.0
            },
            {
                "start_time": 68.6318182,
                "end_time": 68.7318182,
                "pitch": 42,
                "velocity": 64,
                "duration": 0.1,
                "tempo": 120.0
            },
            {
                "start_time": 68.7659091,
                "end_time": 68.8659091,
                "pitch": 42,
                "velocity": 64,
                "duration": 0.1,
                "tempo": 120.0
            },
            {
                "start_time": 68.8840909,
                "end_time": 69.1045455,
                "pitch": 42,
                "velocity": 64,
                "duration": 0.2204545,
                "tempo": 120.0
            },
            {
                "start_time": 69.1227273,
                "end_time": 69.225,
                "pitch": 42,
                "velocity": 64,
                "duration": 0.1022727,
                "tempo": 120.0
            },
            {
                "start_time": 69.2409091,
                "end_time": 69.3431818,
                "pitch": 42,
                "velocity": 64,
                "duration": 0.1022727,
                "tempo": 120.0
            },
            {
                "start_time": 69.3772727,
                "end_time": 69.5977273,
                "pitch": 44,
                "velocity": 64,
                "duration": 0.2204545,
                "tempo": 120.0
            },
            {
                "start_time": 69.6136364,
                "end_time": 69.7136364,
                "pitch": 44,
                "velocity": 64,
                "duration": 0.1,
                "tempo": 120.0
            },
            {
                "start_time": 69.7318182,
                "end_time": 69.8318182,
                "pitch": 44,
                "velocity": 64,
                "duration": 0.1,
                "tempo": 120.0
            },
            {
                "start_time": 69.8477273,
                "end_time": 70.0772727,
                "pitch": 44,
                "velocity": 64,
                "duration": 0.2295455,
                "tempo": 120.0
            },
            {
                "start_time": 70.0954545,
                "end_time": 70.1931818,
                "pitch": 44,
                "velocity": 64,
                "duration": 0.0977273,
                "tempo": 120.0
            },
            {
                "start_time": 70.2090909,
                "end_time": 70.3090909,
                "pitch": 44,
                "velocity": 64,
                "duration": 0.1,
                "tempo": 120.0
            },
            {
                "start_time": 70.325,
                "end_time": 70.5409091,
                "pitch": 44,
                "velocity": 64,
                "duration": 0.2159091,
                "tempo": 120.0
            },
            {
                "start_time": 70.575,
                "end_time": 70.675,
                "pitch": 44,
                "velocity": 64,
                "duration": 0.1,
                "tempo": 120.0
            },
            {
                "start_time": 70.6909091,
                "end_time": 70.7909091,
                "pitch": 44,
                "velocity": 64,
                "duration": 0.1,
                "tempo": 120.0
            },
            {
                "start_time": 70.8068182,
                "end_time": 71.025,
                "pitch": 44,
                "velocity": 64,
                "duration": 0.2181818,
                "tempo": 120.0
            },
            {
                "start_time": 71.0431818,
                "end_time": 71.1431818,
                "pitch": 44,
                "velocity": 64,
                "duration": 0.1,
                "tempo": 120.0
            },
            {
                "start_time": 71.1772727,
                "end_time": 71.2772727,
                "pitch": 44,
                "velocity": 64,
                "duration": 0.1,
                "tempo": 120.0
            },
            {
                "start_time": 71.2954545,
                "end_time": 71.5136364,
                "pitch": 34,
                "velocity": 64,
                "duration": 0.2181818,
                "tempo": 120.0
            },
            {
                "start_time": 71.5295455,
                "end_time": 71.6318182,
                "pitch": 34,
                "velocity": 64,
                "duration": 0.1022727,
                "tempo": 120.0
            },
            {
                "start_time": 71.6477273,
                "end_time": 71.7477273,
                "pitch": 34,
                "velocity": 64,
                "duration": 0.1,
                "tempo": 120.0
            },
            {
                "start_time": 71.7818182,
                "end_time": 72.0045455,
                "pitch": 34,
                "velocity": 64,
                "duration": 0.2227273,
                "tempo": 120.0
            },
            {
                "start_time": 72.0204545,
                "end_time": 72.4840909,
                "pitch": 49,
                "velocity": 64,
                "duration": 0.4636364,
                "tempo": 120.0
            },
            {
                "start_time": 72.5,
                "end_time": 72.7090909,
                "pitch": 48,
                "velocity": 64,
                "duration": 0.2090909,
                "tempo": 120.0
            },
            {
                "start_time": 72.725,
                "end_time": 72.9454545,
                "pitch": 46,
                "velocity": 64,
                "duration": 0.2204545,
                "tempo": 120.0
            },
            {
                "start_time": 72.9795455,
                "end_time": 73.2022727,
                "pitch": 44,
                "velocity": 64,
                "duration": 0.2227273,
                "tempo": 120.0
            },
            {
                "start_time": 73.2204545,
                "end_time": 73.4386364,
                "pitch": 34,
                "velocity": 64,
                "duration": 0.2181818,
                "tempo": 120.0
            },
            {
                "start_time": 73.4545455,
                "end_time": 73.5545455,
                "pitch": 34,
                "velocity": 64,
                "duration": 0.1,
                "tempo": 120.0
            },
            {
                "start_time": 73.5886364,
                "end_time": 73.6909091,
                "pitch": 34,
                "velocity": 64,
                "duration": 0.1022727,
                "tempo": 120.0
            },
            {
                "start_time": 73.7068182,
                "end_time": 73.9295455,
                "pitch": 34,
                "velocity": 64,
                "duration": 0.2227273,
                "tempo": 120.0
            },
            {
                "start_time": 73.9454545,
                "end_time": 74.0477273,
                "pitch": 34,
                "velocity": 64,
                "duration": 0.1022727,
                "tempo": 120.0
            },
            {
                "start_time": 74.0659091,
                "end_time": 74.1681818,
                "pitch": 34,
                "velocity": 64,
                "duration": 0.1022727,
                "tempo": 120.0
            },
            {
                "start_time": 74.2022727,
                "end_time": 74.4204545,
                "pitch": 34,
                "velocity": 64,
                "duration": 0.2181818,
                "tempo": 120.0
            },
            {
                "start_time": 74.4363636,
                "end_time": 74.5386364,
                "pitch": 34,
                "velocity": 64,
                "duration": 0.1022727,
                "tempo": 120.0
            },
            {
                "start_time": 74.5545455,
                "end_time": 74.6545455,
                "pitch": 34,
                "velocity": 64,
                "duration": 0.1,
                "tempo": 120.0
            },
            {
                "start_time": 74.6727273,
                "end_time": 74.9022727,
                "pitch": 34,
                "velocity": 64,
                "duration": 0.2295455,
                "tempo": 120.0
            },
            {
                "start_time": 74.9181818,
                "end_time": 75.0159091,
                "pitch": 34,
                "velocity": 64,
                "duration": 0.0977273,
                "tempo": 120.0
            },
            {
                "start_time": 75.0340909,
                "end_time": 75.1318182,
                "pitch": 34,
                "velocity": 64,
                "duration": 0.0977273,
                "tempo": 120.0
            },
            {
                "start_time": 75.1477273,
                "end_time": 75.3659091,
                "pitch": 42,
                "velocity": 64,
                "duration": 0.2181818,
                "tempo": 120.0
            },
            {
                "start_time": 75.4,
                "end_time": 75.5,
                "pitch": 42,
                "velocity": 64,
                "duration": 0.1,
                "tempo": 120.0
            },
            {
                "start_time": 75.5181818,
                "end_time": 75.6181818,
                "pitch": 42,
                "velocity": 64,
                "duration": 0.1,
                "tempo": 120.0
            },
            {
                "start_time": 75.6340909,
                "end_time": 75.8522727,
                "pitch": 42,
                "velocity": 64,
                "duration": 0.2181818,
                "tempo": 120.0
            },
            {
                "start_time": 75.8681818,
                "end_time": 75.9681818,
                "pitch": 42,
                "velocity": 64,
                "duration": 0.1,
                "tempo": 120.0
            },
            {
                "start_time": 76.0022727,
                "end_time": 76.1022727,
                "pitch": 42,
                "velocity": 64,
                "duration": 0.1,
                "tempo": 120.0
            },
            {
                "start_time": 76.1181818,
                "end_time": 76.3409091,
                "pitch": 42,
                "velocity": 64,
                "duration": 0.2227273,
                "tempo": 120.0
            },
            {
                "start_time": 76.3568182,
                "end_time": 76.4590909,
                "pitch": 42,
                "velocity": 64,
                "duration": 0.1022727,
                "tempo": 120.0
            },
            {
                "start_time": 76.4772727,
                "end_time": 76.5795455,
                "pitch": 42,
                "velocity": 64,
                "duration": 0.1022727,
                "tempo": 120.0
            },
            {
                "start_time": 76.6136364,
                "end_time": 76.8295455,
                "pitch": 42,
                "velocity": 64,
                "duration": 0.2159091,
                "tempo": 120.0
            },
            {
                "start_time": 76.8477273,
                "end_time": 76.9477273,
                "pitch": 42,
                "velocity": 64,
                "duration": 0.1,
                "tempo": 120.0
            },
            {
                "start_time": 76.9636364,
                "end_time": 77.0636364,
                "pitch": 42,
                "velocity": 64,
                "duration": 0.1,
                "tempo": 120.0
            },
            {
                "start_time": 77.0795455,
                "end_time": 77.3090909,
                "pitch": 44,
                "velocity": 64,
                "duration": 0.2295455,
                "tempo": 120.0
            },
            {
                "start_time": 77.3272727,
                "end_time": 77.425,
                "pitch": 44,
                "velocity": 64,
                "duration": 0.0977273,
                "tempo": 120.0
            },
            {
                "start_time": 77.4409091,
                "end_time": 77.5386364,
                "pitch": 44,
                "velocity": 64,
                "duration": 0.0977273,
                "tempo": 120.0
            },
            {
                "start_time": 77.5568182,
                "end_time": 77.7727273,
                "pitch": 44,
                "velocity": 64,
                "duration": 0.2159091,
                "tempo": 120.0
            },
            {
                "start_time": 77.8068182,
                "end_time": 77.9068182,
                "pitch": 44,
                "velocity": 64,
                "duration": 0.1,
                "tempo": 120.0
            },
            {
                "start_time": 77.9227273,
                "end_time": 78.0227273,
                "pitch": 44,
                "velocity": 64,
                "duration": 0.1,
                "tempo": 120.0
            },
            {
                "start_time": 78.0386364,
                "end_time": 78.2568182,
                "pitch": 44,
                "velocity": 64,
                "duration": 0.2181818,
                "tempo": 120.0
            },
            {
                "start_time": 78.275,
                "end_time": 78.375,
                "pitch": 44,
                "velocity": 64,
                "duration": 0.1,
                "tempo": 120.0
            },
            {
                "start_time": 78.4090909,
                "end_time": 78.5090909,
                "pitch": 44,
                "velocity": 64,
                "duration": 0.1,
                "tempo": 120.0
            },
            {
                "start_time": 78.5272727,
                "end_time": 78.7477273,
                "pitch": 44,
                "velocity": 64,
                "duration": 0.2204545,
                "tempo": 120.0
            },
            {
                "start_time": 78.7659091,
                "end_time": 78.8681818,
                "pitch": 44,
                "velocity": 64,
                "duration": 0.1022727,
                "tempo": 120.0
            },
            {
                "start_time": 78.8840909,
                "end_time": 78.9863636,
                "pitch": 44,
                "velocity": 64,
                "duration": 0.1022727,
                "tempo": 120.0
            },
            {
                "start_time": 79.0204545,
                "end_time": 79.2409091,
                "pitch": 34,
                "velocity": 64,
                "duration": 0.2204545,
                "tempo": 120.0
            },
            {
                "start_time": 79.2568182,
                "end_time": 79.3568182,
                "pitch": 34,
                "velocity": 64,
                "duration": 0.1,
                "tempo": 120.0
            },
            {
                "start_time": 79.375,
                "end_time": 79.475,
                "pitch": 34,
                "velocity": 64,
                "duration": 0.1,
                "tempo": 120.0
            },
            {
                "start_time": 79.4909091,
                "end_time": 79.7227273,
                "pitch": 34,
                "velocity": 64,
                "duration": 0.2318182,
                "tempo": 120.0
            },
            {
                "start_time": 79.7386364,
                "end_time": 80.1863636,
                "pitch": 49,
                "velocity": 64,
                "duration": 0.4477273,
                "tempo": 120.0
            },
            {
                "start_time": 80.2204545,
                "end_time": 80.4386364,
                "pitch": 48,
                "velocity": 64,
                "duration": 0.2181818,
                "tempo": 120.0
            },
            {
                "start_time": 80.4545455,
                "end_time": 80.6727273,
                "pitch": 46,
                "velocity": 64,
                "duration": 0.2181818,
                "tempo": 120.0
            },
            {
                "start_time": 80.6909091,
                "end_time": 80.925,
                "pitch": 44,
                "velocity": 64,
                "duration": 0.2340909,
                "tempo": 120.0
            },
            {
                "start_time": 80.9409091,
                "end_time": 80.975,
                "pitch": 34,
                "velocity": 64,
                "duration": 0.0340909,
                "tempo": 120.0
            }
        ]
    }
}