{
    "mood": "happy",
    "instruments": {
        "Trumpet": [
            {
                "start_time": 35.4204545,
                "end_time": 35.7568182,
                "pitch": 64,
                "velocity": 51,
                "duration": 0.3363636,
                "tempo": 120.0
            },
            {
                "start_time": 35.7727273,
                "end_time": 35.8727273,
                "pitch": 64,
                "velocity": 51,
                "duration": 0.1,
                "tempo": 120.0
            },
            {
                "start_time": 36.125,
                "end_time": 36.3431818,
                "pitch": 64,
                "velocity": 51,
                "duration": 0.2181818,
                "tempo": 120.0
            },
            {
                "start_time": 36.5886364,
                "end_time": 36.6863636,
                "pitch": 62,
                "velocity": 51,
                "duration": 0.0977273,
                "tempo": 120.0
            },
            {
                "start_time": 36.8181818,
                "end_time": 37.0295455,
                "pitch": 64,
                "velocity": 51,
                "duration": 0.2113636,
                "tempo": 120.0
            },
            {
                "start_time": 37.275,
                "end_time": 37.6113636,
                "pitch": 64,
                "velocity": 51,
                "duration": 0.3363636,
                "tempo": 120.0
            },
            {
                "start_time": 37.6272727,
                "end_time": 37.7272727,
                "pitch": 64,
                "velocity": 51,
                "duration": 0.1,
                "tempo": 120.0
            },
            {
                "start_time": 37.9795455,
                "end_time": 38.1977273,
                "pitch": 64,
                "velocity": 51,
                "duration": 0.2181818,
                "tempo": 120.0
            },
            {
                "start_time": 38.4477273,
                "end_time": 38.5477273,
                "pitch": 62,
                "velocity": 51,
                "duration": 0.1,
                "tempo": 120.0
            },
            {
                "start_time": 38.6818182,
                "end_time": 38.8954545,
                "pitch": 64,
                "velocity": 51,
                "duration": 0.2136364,
                "tempo": 120.0
            },
            {
                "start_time": 39.1409091,
                "end_time": 39.475,
                "pitch": 64,
                "velocity": 51,
                "duration": 0.3340909,
                "tempo": 120.0
            },
            {
                "start_time": 39.4931818,
                "end_time": 39.5931818,
                "pitch": 64,
                "velocity": 51,
                "duration": 0.1,
                "tempo": 120.0
            },
            {
                "start_time": 39.8454545,
                "end_time": 40.0613636,
                "pitch": 64,
                "velocity": 51,
                "duration": 0.2159091,
                "tempo": 120.0
            },
            {
                "start_time": 40.3136364,
                "end_time": 40.4136364,
                "pitch": 62,
                "velocity": 51,
                "duration": 0.1,
                "tempo": 120.0
            },
            {
                "start_time": 40.5477273,
                "end_time": 40.7613636,
                "pitch": 64,
                "velocity": 51,
                "duration": 0.2136364,
                "tempo": 120.0
            },
            {
                "start_time": 41.0068182,
                "end_time": 41.3409091,
                "pitch": 64,
                "velocity": 51,
                "duration": 0.3340909,
                "tempo": 120.0
            },
            {
                "start_time": 41.3568182,
                "end_time": 41.4590909,
                "pitch": 64,
                "velocity": 51,
                "duration": 0.1022727,
                "tempo": 120.0
            },
            {
                "start_time": 41.7045455,
                "end_time": 41.9159091,
                "pitch": 64,
                "velocity": 51,
                "duration": 0.2113636,
                "tempo": 120.0
            },
            {
                "start_time": 42.1681818,
                "end_time": 42.2681818,
                "pitch": 62,
                "velocity": 51,
                "duration": 0.1,
                "tempo": 120.0
            },
            {
                "start_time": 42.4022727,
                "end_time": 42.6159091,
                "pitch": 64,
                "velocity": 51,
                "duration": 0.2136364,
                "tempo": 120.0
            },
            {
                "start_time": 42.8613636,
                "end_time": 43.0772727,
                "pitch": 59,
                "velocity": 51,
                "duration": 0.2159091,
                "tempo": 120.0
            },
            {
                "start_time": 43.0954545,
                "end_time": 43.3136364,
                "pitch": 59,
                "velocity": 51,
                "duration": 0.2181818,
                "tempo": 120.0
            },
            {
                "start_time": 43.4477273,
                "end_time": 43.5477273,
                "pitch": 59,
                "velocity": 51,
                "duration": 0.1,
                "tempo": 120.0
            },
            {
                "start_time": 43.6818182,
                "end_time": 43.9,
                "pitch": 59,
                "velocity": 51,
                "duration": 0.2181818,
                "tempo": 120.0
            },
            {
                "start_time": 43.9159091,
                "end_time": 44.0159091,
                "pitch": 59,
                "velocity": 51,
                "duration": 0.1,
                "tempo": 120.0
            },
            {
                "start_time": 44.15,
                "end_time": 44.25,
                "pitch": 59,
                "velocity": 51,
                "duration": 0.1,
                "tempo": 120.0
            },
            {
                "start_time": 44.2681818,
                "end_time": 44.4840909,
                "pitch": 59,
                "velocity": 51,
                "duration": 0.2159091,
                "tempo": 120.0
            },
            {
                "start_time": 44.5022727,
                "end_time": 44.7204545,
                "pitch": 59,
                "velocity": 51,
                "duration": 0.2181818,
                "tempo": 120.0
            },
            {
                "start_time": 44.7363636,
                "end_time": 44.95,
                "pitch": 57,
                "velocity": 51,
                "duration": 0.2136364,
                "tempo": 120.0
            },
            {
                "start_time": 44.9659091,
                "end_time": 45.1772727,
                "pitch": 57,
                "velocity": 51,
                "duration": 0.2113636,
                "tempo": 120.0
            },
            {
                "start_time": 45.3113636,
                "end_time": 45.4113636,
                "pitch": 57,
                "velocity": 51,
                "duration": 0.1,
                "tempo": 120.0
            },
            {
                "start_time": 45.5454545,
                "end_time": 45.7613636,
                "pitch": 57,
                "velocity": 51,
                "duration": 0.2159091,
                "tempo": 120.0
            },
            {
                "start_time": 45.7772727,
                "end_time": 45.8772727,
                "pitch": 57,
                "velocity": 51,
                "duration": 0.1,
                "tempo": 120.0
            },
            {
                "start_time": 46.0068182,
                "end_time": 46.1045455,
                "pitch": 57,
                "velocity": 51,
                "duration": 0.0977273,
                "tempo": 120.0
            },
            {
                "start_time": 46.1227273,
                "end_time": 46.2227273,
                "pitch": 57,
                "velocity": 51,
                "duration": 0.1,
                "tempo": 120.0
            },
            {
                "start_time": 46.2386364,
                "end_time": 46.3386364,
                "pitch": 57,
                "velocity": 51,
                "duration": 0.1,
                "tempo": 120.0
            },
            {
                "start_time": 46.3568182,
                "end_time": 46.575,
                "pitch": 57,
                "velocity": 51,
                "duration": 0.2181818,
                "tempo": 120.0
            },
            {
                "start_time": 46.5909091,
                "end_time": 46.8090909,
                "pitch": 57,
                "velocity": 51,
                "duration": 0.2181818,
                "tempo": 120.0
            },
            {
                "start_time": 46.825,
                "end_time": 47.0431818,
                "pitch": 57,
                "velocity": 51,
                "duration": 0.2181818,
                "tempo": 120.0
            },
            {
                "start_time": 47.1772727,
                "end_time": 47.2772727,
                "pitch": 57,
                "velocity": 51,
                "duration": 0.1,
                "tempo": 120.0
            },
            {
                "start_time": 47.4113636,
                "end_time": 47.6272727,
                "pitch": 57,
                "velocity": 51,
                "duration": 0.2159091,
                "tempo": 120.0
            },
            {
                "start_time": 47.6431818,
                "end_time": 47.7409091,
                "pitch": 57,
                "velocity": 51,
                "duration": 0.0977273,
                "tempo": 120.0
            },
            {
                "start_time": 47.8727273,
                "end_time": 47.9704545,
                "pitch": 57,
                "velocity": 51,
                "duration": 0.0977273,
                "tempo": 120.0
            },
            {
                "start_time": 47.9863636,
                "end_time": 48.2045455,
                "pitch": 57,
                "velocity": 51,
                "duration": 0.2181818,
                "tempo": 120.0
            },
            {
                "start_time": 48.2204545,
                "end_time": 48.4386364,
                "pitch": 57,
                "velocity": 51,
                "duration": 0.2181818,
                "tempo": 120.0
            },
            {
                "start_time": 48.4568182,
                "end_time": 48.6681818,
                "pitch": 59,
                "velocity": 51,
                "duration": 0.2113636,
                "tempo": 120.0
            },
            {
                "start_time": 48.6840909,
                "end_time": 48.8977273,
                "pitch": 59,
                "velocity": 51,
                "duration": 0.2136364,
                "tempo": 120.0
            },
            {
                "start_time": 49.0318182,
                "end_time": 49.1318182,
                "pitch": 59,
                "velocity": 51,
                "duration": 0.1,
                "tempo": 120.0
            },
            {
                "start_time": 49.2659091,
                "end_time": 49.4840909,
                "pitch": 59,
                "velocity": 51,
                "duration": 0.2181818,
                "tempo": 120.0
            },
            {
                "start_time": 49.5,
                "end_time": 49.6,
                "pitch": 59,
                "velocity": 51,
                "duration": 0.1,
                "tempo": 120.0
            },
            {
                "start_time": 49.7340909,
                "end_time": 49.8363636,
                "pitch": 59,
                "velocity": 51,
                "duration": 0.1022727,
                "tempo": 120.0
            },
            {
                "start_time": 49.8522727,
                "end_time": 49.95,
                "pitch": 59,
                "velocity": 51,
                "duration": 0.0977273,
                "tempo": 120.0
            },
            {
                "start_time": 49.9659091,
                "end_time": 50.0636364,
                "pitch": 59,
                "velocity": 51,
                "duration": 0.0977273,
                "tempo": 120.0
            },
            {
                "start_time": 50.0818182,
                "end_time": 50.2931818,
                "pitch": 59,
                "velocity": 51,
                "duration": 0.2113636,
                "tempo": 120.0
            },
            {
                "start_time": 50.3090909,
                "end_time": 50.5272727,
                "pitch": 59,
                "velocity": 51,
                "duration": 0.2181818,
                "tempo": 120.0
            },
            {
                "start_time": 50.5454545,
                "end_time": 50.7613636,
                "pitch": 59,
                "velocity": 51,
                "duration": 0.2159091,
                "tempo": 120.0
            },
            {
                "start_time": 50.8954545,
                "end_time": 50.9977273,
                "pitch": 59,
                "velocity": 51,
                "duration": 0.1022727,
                "tempo": 120.0
            },
            {
                "start_time": 51.1318182,
                "end_time": 51.3454545,
                "pitch": 59,
                "velocity": 51,
                "duration": 0.2136364,
                "tempo": 120.0
            },
            {
                "start_time": 51.3636364,
                "end_time": 51.4613636,
                "pitch": 59,
                "velocity": 51,
                "duration": 0.0977273,
                "tempo": 120.0
            },
            {
                "start_time": 51.5909091,
                "end_time": 51.6909091,
                "pitch": 59,
                "velocity": 51,
                "duration": 0.1,
                "tempo": 120.0
            },
            {
                "start_time": 51.7068182,
                "end_time": 51.9295455,
                "pitch": 59,
                "velocity": 51,
                "duration": 0.2227273,
                "tempo": 120.0
            },
            {
                "start_time": 51.9454545,
                "end_time": 52.1681818,
                "pitch": 59,
                "velocity": 51,
                "duration": 0.2227273,
                "tempo": 120.0
            },
            {
                "start_time": 52.1863636,
                "end_time": 52.4,
                "pitch": 57,
                "velocity": 51,
                "duration": 0.2136364,
                "tempo": 120.0
            },
            {
                "start_time": 52.4159091,
                "end_time": 52.6272727,
                "pitch": 57,
                "velocity": 51,
                "duration": 0.2113636,
                "tempo": 120.0
            },
            {
                "start_time": 52.7613636,
                "end_time": 52.8613636,
                "pitch": 57,
                "velocity": 51,
                "duration": 0.1,
                "tempo": 120.0
            },
            {
                "start_time": 52.9954545,
                "end_time": 53.2113636,
                "pitch": 57,
                "velocity": 51,
                "duration": 0.2159091,
                "tempo": 120.0
            },
            {
                "start_time": 53.2272727,
                "end_time": 53.3272727,
                "pitch": 57,
                "velocity": 51,
                "duration": 0.1,
                "tempo": 120.0
            },
            {
                "start_time": 53.4568182,
                "end_time": 53.5545455,
                "pitch": 57,
                "velocity": 51,
                "duration": 0.0977273,
                "tempo": 120.0
            },
            {
                "start_time": 53.5727273,
                "end_time": 53.6727273,
                "pitch": 57,
                "velocity": 51,
                "duration": 0.1,
                "tempo": 120.0
            },
            {
                "start_time": 53.6886364,
                "end_time": 53.7886364,
                "pitch": 57,
                "velocity": 51,
                "duration": 0.1,
                "tempo": 120.0
            },
            {
                "start_time": 53.8068182,
                "end_time": 54.0227273,
                "pitch": 57,
                "velocity": 51,
                "duration": 0.2159091,
                "tempo": 120.0
            },
            {
                "start_time": 54.0409091,
                "end_time": 54.2522727,
                "pitch": 57,
                "velocity": 51,
                "duration": 0.2113636,
                "tempo": 120.0
            },
            {
                "start_time": 54.2704545,
                "end_time": 54.4818182,
                "pitch": 57,
                "velocity": 51,
                "duration": 0.2113636,
                "tempo": 120.0
            },
            {
                "start_time": 54.6159091,
                "end_time": 54.7159091,
                "pitch": 57,
                "velocity": 51,
                "duration": 0.1,
                "tempo": 120.0
            },
            {
                "start_time": 54.85,
                "end_time": 55.0681818,
                "pitch": 57,
                "velocity": 51,
                "duration": 0.2181818,
                "tempo": 120.0
            },
            {
                "start_time": 55.0840909,
                "end_time": 55.1863636,
                "pitch": 57,
                "velocity": 51,
                "duration": 0.1022727,
                "tempo": 120.0
            },
            {
                "start_time": 55.3204545,
                "end_time": 55.4204545,
                "pitch": 57,
                "velocity": 51,
                "duration": 0.1,
                "tempo": 120.0
            },
            {
                "start_time": 55.4363636,
                "end_time": 55.6545455,
                "pitch": 57,
                "velocity": 51,
                "duration": 0.2181818,
                "tempo": 120.0
            },
            {
                "start_time": 55.6704545,
                "end_time": 55.8886364,
                "pitch": 57,
                "velocity": 51,
                "duration": 0.2181818,
                "tempo": 120.0
            },
            {
                "start_time": 55.9068182,
                "end_time": 56.0045455,
                "pitch": 64,
                "velocity": 51,
                "duration": 0.0977273,
                "tempo": 120.0
            },
            {
                "start_time": 56.0204545,
                "end_time": 56.1181818,
                "pitch": 64,
                "velocity": 51,
                "duration": 0.0977273,
                "tempo": 120.0
            },
            {
                "start_time": 56.1340909,
                "end_time": 56.2340909,
                "pitch": 64,
                "velocity": 51,
                "duration": 0.1,
                "tempo": 120.0
            },
            {
                "start_time": 56.5977273,
                "end_time": 56.7,
                "pitch": 64,
                "velocity": 51,
                "duration": 0.1022727,
                "tempo": 120.0
            },
            {
                "start_time": 56.7159091,
                "end_time": 56.8159091,
                "pitch": 64,
                "velocity": 51,
                "duration": 0.1,
                "tempo": 120.0
            },
            {
                "start_time": 56.8318182,
                "end_time": 56.9340909,
                "pitch": 64,
                "velocity": 51,
                "duration": 0.1022727,
                "tempo": 120.0
            },
            {
                "start_time": 57.7590909,
                "end_time": 57.9772727,
                "pitch": 60,
                "velocity": 51,
                "duration": 0.2181818,
                "tempo": 120.0
            },
            {
                "start_time": 57.9954545,
                "end_time": 58.0954545,
                "pitch": 60,
                "velocity": 51,
                "duration": 0.1,
                "tempo": 120.0
            },
            {
                "start_time": 58.3431818,
                "end_time": 58.5568182,
                "pitch": 60,
                "velocity": 51,
                "duration": 0.2136364,
                "tempo": 120.0
            },
            {
                "start_time": 58.5727273,
                "end_time": 58.6704545,
                "pitch": 62,
                "velocity": 51,
                "duration": 0.0977273,
                "tempo": 120.0
            },
            {
                "start_time": 58.6863636,
                "end_time": 58.9045455,
                "pitch": 62,
                "velocity": 51,
                "duration": 0.2181818,
                "tempo": 120.0
            },
            {
                "start_time": 58.9227273,
                "end_time": 59.0227273,
                "pitch": 62,
                "velocity": 51,
                "duration": 0.1,
                "tempo": 120.0
            },
            {
                "start_time": 59.2727273,
                "end_time": 59.4909091,
                "pitch": 62,
                "velocity": 51,
                "duration": 0.2181818,
                "tempo": 120.0
            },
            {
                "start_time": 59.5090909,
                "end_time": 59.6090909,
                "pitch": 64,
                "velocity": 51,
                "duration": 0.1,
                "tempo": 120.0
            },
            {
                "start_time": 59.625,
                "end_time": 59.8386364,
                "pitch": 64,
                "velocity": 51,
                "duration": 0.2136364,
                "tempo": 120.0
            },
            {
                "start_time": 59.8545455,
                "end_time": 59.9522727,
                "pitch": 64,
                "velocity": 51,
                "duration": 0.0977273,
                "tempo": 120.0
            },
            {
                "start_time": 60.2,
                "end_time": 60.4181818,
                "pitch": 64,
                "velocity": 51,
                "duration": 0.2181818,
                "tempo": 120.0
            },
            {
                "start_time": 60.4340909,
                "end_time": 60.65,
                "pitch": 64,
                "velocity": 51,
                "duration": 0.2159091,
                "tempo": 120.0
            },
            {
                "start_time": 60.6659091,
                "end_time": 60.8795455,
                "pitch": 64,
                "velocity": 51,
                "duration": 0.2136364,
                "tempo": 120.0
            },
            {
                "start_time": 60.8954545,
                "end_time": 60.9931818,
                "pitch": 64,
                "velocity": 51,
                "duration": 0.0977273,
                "tempo": 120.0
            },
            {
                "start_time": 61.0113636,
                "end_time": 61.2272727,
                "pitch": 64,
                "velocity": 51,
                "duration": 0.2159091,
                "tempo": 120.0
            },
            {
                "start_time": 61.2454545,
                "end_time": 61.4636364,
                "pitch": 64,
                "velocity": 51,
                "duration": 0.2181818,
                "tempo": 120.0
            },
            {
                "start_time": 61.4795455,
                "end_time": 61.6977273,
                "pitch": 60,
                "velocity": 51,
                "duration": 0.2181818,
                "tempo": 120.0
            },
            {
                "start_time": 61.7136364,
                "end_time": 61.8136364,
                "pitch": 60,
                "velocity": 51,
                "duration": 0.1,
                "tempo": 120.0
            },
            {
                "start_time": 62.0659091,
                "end_time": 62.2840909,
                "pitch": 60,
                "velocity": 51,
                "duration": 0.2181818,
                "tempo": 120.0
            },
            {
                "start_time": 62.3,
                "end_time": 62.4,
                "pitch": 62,
                "velocity": 51,
                "duration": 0.1,
                "tempo": 120.0
            },
            {
                "start_time": 62.4181818,
                "end_time": 62.6295455,
                "pitch": 62,
                "velocity": 51,
                "duration": 0.2113636,
                "tempo": 120.0
            },
            {
                "start_time": 62.6477273,
                "end_time": 62.7454545,
                "pitch": 62,
                "velocity": 51,
                "duration": 0.0977273,
                "tempo": 120.0
            },
            {
                "start_time": 62.9931818,
                "end_time": 63.2113636,
                "pitch": 62,
                "velocity": 51,
                "duration": 0.2181818,
                "tempo": 120.0
            },
            {
                "start_time": 63.2272727,
                "end_time": 63.3272727,
                "pitch": 64,
                "velocity": 51,
                "duration": 0.1,
                "tempo": 120.0
            },
            {
                "start_time": 63.3454545,
                "end_time": 63.5636364,
                "pitch": 64,
                "velocity": 51,
                "duration": 0.2181818,
                "tempo": 120.0
            },
            {
                "start_time": 63.5795455,
                "end_time": 63.6795455,
                "pitch": 64,
                "velocity": 51,
                "duration": 0.1,
                "tempo": 120.0
            },
            {
                "start_time": 63.9272727,
                "end_time": 64.1409091,
                "pitch": 64,
                "velocity": 51,
                "duration": 0.2136364,
                "tempo": 120.0
            },
            {
                "start_time": 64.1568182,
                "end_time": 64.3727273,
                "pitch": 64,
                "velocity": 51,
                "duration": 0.2159091,
                "tempo": 120.0
            },
            {
                "start_time": 64.3886364,
                "end_time": 64.6068182,
                "pitch": 64,
                "velocity": 51,
                "duration": 0.2181818,
                "tempo": 120.0
            },
            {
                "start_time": 64.6227273,
                "end_time": 64.725,
                "pitch": 64,
                "velocity": 51,
                "duration": 0.1022727,
                "tempo": 120.0
            },
            {
                "start_time": 64.7409091,
                "end_time": 64.9590909,
                "pitch": 64,
                "velocity": 51,
                "duration": 0.2181818,
                "tempo": 120.0
            },
            {
                "start_time": 64.975,
                "end_time": 65.1931818,
                "pitch": 64,
                "velocity": 51,
                "duration": 0.2181818,
                "tempo": 120.0
            },
            {
                "start_time": 65.2090909,
                "end_time": 65.4227273,
                "pitch": 60,
                "velocity": 51,
                "duration": 0.2136364,
                "tempo": 120.0
            },
            {
                "start_time": 65.4386364,
                "end_time": 65.5363636,
                "pitch": 60,
                "velocity": 51,
                "duration": 0.0977273,
                "tempo": 120.0
            },
            {
                "start_time": 65.7863636,
                "end_time": 66.0022727,
                "pitch": 60,
                "velocity": 51,
                "duration": 0.2159091,
                "tempo": 120.0
            },
            {
                "start_time": 66.0204545,
                "end_time": 66.1204545,
                "pitch": 62,
                "velocity": 51,
                "duration": 0.1,
                "tempo": 120.0
            },
            {
                "start_time": 66.1363636,
                "end_time": 66.3545455,
                "pitch": 62,
                "velocity": 51,
                "duration": 0.2181818,
                "tempo": 120.0
            },
            {
                "start_time": 66.3704545,
                "end_time": 66.4727273,
                "pitch": 62,
                "velocity": 51,
                "duration": 0.1022727,
                "tempo": 120.0
            },
            {
                "start_time": 66.7204545,
                "end_time": 66.9340909,
                "pitch": 62,
                "velocity": 51,
                "duration": 0.2136364,
                "tempo": 120.0
            },
            {
                "start_time": 66.95,
                "end_time": 67.0477273,
                "pitch": 64,
                "velocity": 51,
                "duration": 0.0977273,
                "tempo": 120.0
            },
            {
                "start_time": 67.0636364,
                "end_time": 67.2818182,
                "pitch": 64,
                "velocity": 51,
                "duration": 0.2181818,
                "tempo": 120.0
            },
            {
                "start_time": 67.2977273,
                "end_time": 67.4,
                "pitch": 64,
                "velocity": 51,
                "duration": 0.1022727,
                "tempo": 120.0
            },
            {
                "start_time": 67.65,
                "end_time": 67.8681818,
                "pitch": 64,
                "velocity": 51,
                "duration": 0.2181818,
                "tempo": 120.0
            },
            {
                "start_time": 67.8840909,
                "end_time": 68.1,
                "pitch": 64,
                "velocity": 51,
                "duration": 0.2159091,
                "tempo": 120.0
            },
            {
                "start_time": 68.1159091,
                "end_time": 68.3295455,
                "pitch": 64,
                "velocity": 51,
                "duration": 0.2136364,
                "tempo": 120.0
            },
            {
                "start_time": 68.3454545,
                "end_time": 68.4431818,
                "pitch": 64,
                "velocity": 51,
                "duration": 0.0977273,
                "tempo": 120.0
            },
            {
                "start_time": 68.4613636,
                "end_time": 68.6772727,
                "pitch": 64,
                "velocity": 51,
                "duration": 0.2159091,
                "tempo": 120.0
            },
            {
                "start_time": 68.6954545,
                "end_time": 68.9136364,
                "pitch": 64,
                "velocity": 51,
                "duration": 0.2181818,
                "tempo": 120.0
            },
            {
                "start_time": 68.9295455,
                "end_time": 69.1477273,
                "pitch": 60,
                "velocity": 51,
                "duration": 0.2181818,
                "tempo": 120.0
            },
            {
                "start_time": 69.1636364,
                "end_time": 69.2636364,
                "pitch": 60,
                "velocity": 51,
                "duration": 0.1,
                "tempo": 120.0
            },
            {
                "start_time": 69.5136364,
                "end_time": 69.725,
                "pitch": 60,
                "velocity": 51,
                "duration": 0.2113636,
                "tempo": 120.0
            },
            {
                "start_time": 69.7409091,
                "end_time": 69.8409091,
                "pitch": 62,
                "velocity": 51,
                "duration": 0.1,
                "tempo": 120.0
            },
            {
                "start_time": 69.8568182,
                "end_time": 70.075,
                "pitch": 62,
                "velocity": 51,
                "duration": 0.2181818,
                "tempo": 120.0
            },
            {
                "start_time": 70.0909091,
                "end_time": 70.1909091,
                "pitch": 62,
                "velocity": 51,
                "duration": 0.1,
                "tempo": 120.0
            },
            {
                "start_time": 70.4431818,
                "end_time": 70.6613636,
                "pitch": 62,
                "velocity": 51,
                "duration": 0.2181818,
                "tempo": 120.0
            },
            {
                "start_time": 70.6772727,
                "end_time": 70.7772727,
                "pitch": 64,
                "velocity": 51,
                "duration": 0.1,
                "tempo": 120.0
            },
            {
                "start_time": 70.7954545,
                "end_time": 71.0068182,
                "pitch": 64,
                "velocity": 51,
                "duration": 0.2113636,
                "tempo": 120.0
            },
            {
                "start_time": 71.0227273,
                "end_time": 71.1227273,
                "pitch": 64,
                "velocity": 51,
                "duration": 0.1,
                "tempo": 120.0
            },
            {
                "start_time": 71.3704545,
                "end_time": 71.5886364,
                "pitch": 64,
                "velocity": 51,
                "duration": 0.2181818,
                "tempo": 120.0
            },
            {
                "start_time": 71.6045455,
                "end_time": 71.8227273,
                "pitch": 64,
                "velocity": 51,
                "duration": 0.2181818,
                "tempo": 120.0
            },
            {
                "start_time": 71.8386364,
                "end_time": 72.0568182,
                "pitch": 64,
                "velocity": 51,
                "duration": 0.2181818,
                "tempo": 120.0
            },
            {
                "start_time": 72.0727273,
                "end_time": 72.175,
                "pitch": 64,
                "velocity": 51,
                "duration": 0.1022727,
                "tempo": 120.0
            },
            {
                "start_time": 72.1909091,
                "end_time": 72.4045455,
                "pitch": 64,
                "velocity": 51,
                "duration": 0.2136364,
                "tempo": 120.0
            },
            {
                "start_time": 72.4204545,
                "end_time": 72.6318182,
                "pitch": 64,
                "velocity": 51,
                "duration": 0.2113636,
                "tempo": 120.0
            },
            {
                "start_time": 72.65,
                "end_time": 72.8659091,
                "pitch": 67,
                "velocity": 51,
                "duration": 0.2159091,
                "tempo": 120.0
            },
            {
                "start_time": 76.3681818,
                "end_time": 76.7045455,
                "pitch": 64,
                "velocity": 51,
                "duration": 0.3363636,
                "tempo": 120.0
            },
            {
                "start_time": 76.7204545,
                "end_time": 76.8204545,
                "pitch": 64,
                "velocity": 51,
                "duration": 0.1,
                "tempo": 120.0
            },
            {
                "start_time": 77.0727273,
                "end_time": 77.2909091,
                "pitch": 64,
                "velocity": 51,
                "duration": 0.2181818,
                "tempo": 120.0
            },
            {
                "start_time": 77.5409091,
                "end_time": 77.6409091,
                "pitch": 62,
                "velocity": 51,
                "duration": 0.1,
                "tempo": 120.0
            },
            {
                "start_time": 77.775,
                "end_time": 77.9886364,
                "pitch": 64,
                "velocity": 51,
                "duration": 0.2136364,
                "tempo": 120.0
            },
            {
                "start_time": 78.2340909,
                "end_time": 78.5681818,
                "pitch": 64,
                "velocity": 51,
                "duration": 0.3340909,
                "tempo": 120.0
            },
            {
                "start_time": 78.5863636,
                "end_time": 78.6863636,
                "pitch": 64,
                "velocity": 51,
                "duration": 0.1,
                "tempo": 120.0
            },
            {
                "start_time": 78.9386364,
                "end_time": 79.1545455,
                "pitch": 64,
                "velocity": 51,
                "duration": 0.2159091,
                "tempo": 120.0
            },
            {
                "start_time": 79.4068182,
                "end_time": 79.5068182,
                "pitch": 62,
                "velocity": 51,
                "duration": 0.1,
                "tempo": 120.0
            },
            {
                "start_time": 79.6409091,
                "end_time": 79.8545455,
                "pitch": 64,
                "velocity": 51,
                "duration": 0.2136364,
                "tempo": 120.0
            },
            {
                "start_time": 80.1,
                "end_time": 80.4272727,
                "pitch": 64,
                "velocity": 51,
                "duration": 0.3272727,
                "tempo": 120.0
            },
            {
                "start_time": 80.4431818,
                "end_time": 80.5409091,
                "pitch": 64,
                "velocity": 51,
                "duration": 0.0977273,
                "tempo": 120.0
            },
            {
                "start_time": 80.7931818,
                "end_time": 81.0090909,
                "pitch": 64,
                "velocity": 51,
                "duration": 0.2159091,
                "tempo": 120.0
            },
            {
                "start_time": 81.2613636,
                "end_time": 81.3613636,
                "pitch": 62,
                "velocity": 51,
                "duration": 0.1,
                "tempo": 120.0
            },
            {
                "start_time": 81.4954545,
                "end_time": 81.7090909,
                "pitch": 64,
                "velocity": 51,
                "duration": 0.2136364,
                "tempo": 120.0
            },
            {
                "start_time": 81.9545455,
                "end_time": 82.2886364,
                "pitch": 64,
                "velocity": 51,
                "duration": 0.3340909,
                "tempo": 120.0
            },
            {
                "start_time": 82.3045455,
                "end_time": 82.4068182,
                "pitch": 64,
                "velocity": 51,
                "duration": 0.1022727,
                "tempo": 120.0
            },
            {
                "start_time": 82.6568182,
                "end_time": 82.875,
                "pitch": 64,
                "velocity": 51,
                "duration": 0.2181818,
                "tempo": 120.0
            },
            {
                "start_time": 83.1272727,
                "end_time": 83.2272727,
                "pitch": 62,
                "velocity": 51,
                "duration": 0.1,
                "tempo": 120.0
            },
            {
                "start_time": 83.3613636,
                "end_time": 83.5727273,
                "pitch": 64,
                "velocity": 51,
                "duration": 0.2113636,
                "tempo": 120.0
            },
            {
                "start_time": 83.8181818,
                "end_time": 84.0363636,
                "pitch": 59,
                "velocity": 51,
                "duration": 0.2181818,
                "tempo": 120.0
            },
            {
                "start_time": 84.0545455,
                "end_time": 84.2704545,
                "pitch": 59,
                "velocity": 51,
                "duration": 0.2159091,
                "tempo": 120.0
            },
            {
                "start_time": 84.4045455,
                "end_time": 84.5068182,
                "pitch": 59,
                "velocity": 51,
                "duration": 0.1022727,
                "tempo": 120.0
            },
            {
                "start_time": 84.6386364,
                "end_time": 84.8545455,
                "pitch": 59,
                "velocity": 51,
                "duration": 0.2159091,
                "tempo": 120.0
            },
            {
                "start_time": 84.8704545,
                "end_time": 84.9704545,
                "pitch": 59,
                "velocity": 51,
                "duration": 0.1,
                "tempo": 120.0
            },
            {
                "start_time": 85.1,
                "end_time": 85.1977273,
                "pitch": 59,
                "velocity": 51,
                "duration": 0.0977273,
                "tempo": 120.0
            },
            {
                "start_time": 85.2159091,
                "end_time": 85.4318182,
                "pitch": 59,
                "velocity": 51,
                "duration": 0.2159091,
                "tempo": 120.0
            },
            {
                "start_time": 85.45,
                "end_time": 85.6681818,
                "pitch": 59,
                "velocity": 51,
                "duration": 0.2181818,
                "tempo": 120.0
            },
            {
                "start_time": 85.6840909,
                "end_time": 85.9022727,
                "pitch": 57,
                "velocity": 51,
                "duration": 0.2181818,
                "tempo": 120.0
            },
            {
                "start_time": 85.9181818,
                "end_time": 86.1363636,
                "pitch": 57,
                "velocity": 51,
                "duration": 0.2181818,
                "tempo": 120.0
            },
            {
                "start_time": 86.2704545,
                "end_time": 86.3704545,
                "pitch": 57,
                "velocity": 51,
                "duration": 0.1,
                "tempo": 120.0
            },
            {
                "start_time": 86.5045455,
                "end_time": 86.7204545,
                "pitch": 57,
                "velocity": 51,
                "duration": 0.2159091,
                "tempo": 120.0
            },
            {
                "start_time": 86.7363636,
                "end_time": 86.8340909,
                "pitch": 57,
                "velocity": 51,
                "duration": 0.0977273,
                "tempo": 120.0
            },
            {
                "start_time": 86.9659091,
                "end_time": 87.0636364,
                "pitch": 57,
                "velocity": 51,
                "duration": 0.0977273,
                "tempo": 120.0
            },
            {
                "start_time": 87.0795455,
                "end_time": 87.1818182,
                "pitch": 57,
                "velocity": 51,
                "duration": 0.1022727,
                "tempo": 120.0
            },
            {
                "start_time": 87.1977273,
                "end_time": 87.2977273,
                "pitch": 57,
                "velocity": 51,
                "duration": 0.1,
                "tempo": 120.0
            },
            {
                "start_time": 87.3159091,
                "end_time": 87.5318182,
                "pitch": 57,
                "velocity": 51,
                "duration": 0.2159091,
                "tempo": 120.0
            },
            {
                "start_time": 87.55,
                "end_time": 87.7613636,
                "pitch": 57,
                "velocity": 51,
                "duration": 0.2113636,
                "tempo": 120.0
            },
            {
                "start_time": 87.7772727,
                "end_time": 87.9909091,
                "pitch": 57,
                "velocity": 51,
                "duration": 0.2136364,
                "tempo": 120.0
            },
            {
                "start_time": 88.125,
                "end_time": 88.225,
                "pitch": 57,
                "velocity": 51,
                "duration": 0.1,
                "tempo": 120.0
            },
            {
                "start_time": 88.3590909,
                "end_time": 88.5772727,
                "pitch": 57,
                "velocity": 51,
                "duration": 0.2181818,
                "tempo": 120.0
            },
            {
                "start_time": 88.5931818,
                "end_time": 88.6931818,
                "pitch": 57,
                "velocity": 51,
                "duration": 0.1,
                "tempo": 120.0
            },
            {
                "start_time": 88.8272727,
                "end_time": 88.9295455,
                "pitch": 57,
                "velocity": 51,
                "duration": 0.1022727,
                "tempo": 120.0
            },
            {
                "start_time": 88.9454545,
                "end_time": 89.1636364,
                "pitch": 57,
                "velocity": 51,
                "duration": 0.2181818,
                "tempo": 120.0
            },
            {
                "start_time": 89.1795455,
                "end_time": 89.3977273,
                "pitch": 57,
                "velocity": 51,
                "duration": 0.2181818,
                "tempo": 120.0
            },
            {
                "start_time": 89.4136364,
                "end_time": 89.6272727,
                "pitch": 59,
                "velocity": 51,
                "duration": 0.2136364,
                "tempo": 120.0
            },
            {
                "start_time": 89.6431818,
                "end_time": 89.8568182,
                "pitch": 59,
                "velocity": 51,
                "duration": 0.2136364,
                "tempo": 120.0
            },
            {
                "start_time": 89.9909091,
                "end_time": 90.0909091,
                "pitch": 59,
                "velocity": 51,
                "duration": 0.1,
                "tempo": 120.0
            },
            {
                "start_time": 90.225,
                "end_time": 90.4409091,
                "pitch": 59,
                "velocity": 51,
                "duration": 0.2159091,
                "tempo": 120.0
            },
            {
                "start_time": 90.4568182,
                "end_time": 90.5545455,
                "pitch": 59,
                "velocity": 51,
                "duration": 0.0977273,
                "tempo": 120.0
            },
            {
                "start_time": 90.6863636,
                "end_time": 90.7840909,
                "pitch": 59,
                "velocity": 51,
                "duration": 0.0977273,
                "tempo": 120.0
            },
            {
                "start_time": 90.8,
                "end_time": 90.9,
                "pitch": 59,
                "velocity": 51,
                "duration": 0.1,
                "tempo": 120.0
            },
            {
                "start_time": 90.9159091,
                "end_time": 91.0181818,
                "pitch": 59,
                "velocity": 51,
                "duration": 0.1022727,
                "tempo": 120.0
            },
            {
                "start_time": 91.0340909,
                "end_time": 91.2522727,
                "pitch": 59,
                "velocity": 51,
                "duration": 0.2181818,
                "tempo": 120.0
            },
            {
                "start_time": 91.2681818,
                "end_time": 91.4863636,
                "pitch": 59,
                "velocity": 51,
                "duration": 0.2181818,
                "tempo": 120.0
            },
            {
                "start_time": 91.5022727,
                "end_time": 91.7204545,
                "pitch": 59,
                "velocity": 51,
                "duration": 0.2181818,
                "tempo": 120.0
            },
            {
                "start_time": 91.8545455,
                "end_time": 91.9545455,
                "pitch": 59,
                "velocity": 51,
                "duration": 0.1,
                "tempo": 120.0
            },
            {
                "start_time": 92.0886364,
                "end_time": 92.3045455,
                "pitch": 59,
                "velocity": 51,
                "duration": 0.2159091,
                "tempo": 120.0
            },
            {
                "start_time": 92.3204545,
                "end_time": 92.4204545,
                "pitch": 59,
                "velocity": 51,
                "duration": 0.1,
                "tempo": 120.0
            },
            {
                "start_time": 92.55,
                "end_time": 92.6477273,
                "pitch": 59,
                "velocity": 51,
                "duration": 0.0977273,
                "tempo": 120.0
            },
            {
                "start_time": 92.6659091,
                "end_time": 92.8818182,
                "pitch": 59,
                "velocity": 51,
                "duration": 0.2159091,
                "tempo": 120.0
            },
            {
                "start_time": 92.9,
                "end_time": 93.1181818,
                "pitch": 59,
                "velocity": 51,
                "duration": 0.2181818,
                "tempo": 120.0
            },
            {
                "start_time": 93.1340909,
                "end_time": 93.3477273,
                "pitch": 57,
                "velocity": 51,
                "duration": 0.2136364,
                "tempo": 120.0
            },
            {
                "start_time": 93.3636364,
                "end_time": 93.575,
                "pitch": 57,
                "velocity": 51,
                "duration": 0.2113636,
                "tempo": 120.0
            },
            {
                "start_time": 93.7090909,
                "end_time": 93.8090909,
                "pitch": 57,
                "velocity": 51,
                "duration": 0.1,
                "tempo": 120.0
            },
            {
                "start_time": 93.9431818,
                "end_time": 94.1613636,
                "pitch": 57,
                "velocity": 51,
                "duration": 0.2181818,
                "tempo": 120.0
            },
            {
                "start_time": 94.1772727,
                "end_time": 94.2795455,
                "pitch": 57,
                "velocity": 51,
                "duration": 0.1022727,
                "tempo": 120.0
            },
            {
                "start_time": 94.4136364,
                "end_time": 94.5136364,
                "pitch": 57,
                "velocity": 51,
                "duration": 0.1,
                "tempo": 120.0
            },
            {
                "start_time": 94.5295455,
                "end_time": 94.6295455,
                "pitch": 57,
                "velocity": 51,
                "duration": 0.1,
                "tempo": 120.0
            },
            {
                "start_time": 94.6477273,
                "end_time": 94.7477273,
                "pitch": 57,
                "velocity": 51,
                "duration": 0.1,
                "tempo": 120.0
            },
            {
                "start_time": 94.7636364,
                "end_time": 94.9818182,
                "pitch": 57,
                "velocity": 51,
                "duration": 0.2181818,
                "tempo": 120.0
            },
            {
                "start_time": 95.0,
                "end_time": 95.2113636,
                "pitch": 57,
                "velocity": 51,
                "duration": 0.2113636,
                "tempo": 120.0
            },
            {
                "start_time": 95.2272727,
                "end_time": 95.4409091,
                "pitch": 57,
                "velocity": 51,
                "duration": 0.2136364,
                "tempo": 120.0
            },
            {
                "start_time": 95.575,
                "end_time": 95.675,
                "pitch": 57,
                "velocity": 51,
                "duration": 0.1,
                "tempo": 120.0
            },
            {
                "start_time": 95.8090909,
                "end_time": 96.025,
                "pitch": 57,
                "velocity": 51,
                "duration": 0.2159091,
                "tempo": 120.0
            },
            {
                "start_time": 96.0409091,
                "end_time": 96.1386364,
                "pitch": 57,
                "velocity": 51,
                "duration": 0.0977273,
                "tempo": 120.0
            },
            {
                "start_time": 96.2704545,
                "end_time": 96.3681818,
                "pitch": 57,
                "velocity": 51,
                "duration": 0.0977273,
                "tempo": 120.0
            },
            {
                "start_time": 96.3840909,
                "end_time": 96.6022727,
                "pitch": 57,
                "velocity": 51,
                "duration": 0.2181818,
                "tempo": 120.0
            },
            {
                "start_time": 96.6181818,
                "end_time": 96.8363636,
                "pitch": 57,
                "velocity": 51,
                "duration": 0.2181818,
                "tempo": 120.0
            },
            {
                "start_time": 96.8545455,
                "end_time": 96.9545455,
                "pitch": 64,
                "velocity": 51,
                "duration": 0.1,
                "tempo": 120.0
            },
            {
                "start_time": 96.9704545,
                "end_time": 97.0704545,
                "pitch": 64,
                "velocity": 51,
                "duration": 0.1,
                "tempo": 120.0
            },
            {
                "start_time": 97.0886364,
                "end_time": 97.1886364,
                "pitch": 64,
                "velocity": 51,
                "duration": 0.1,
                "tempo": 120.0
            },
            {
                "start_time": 97.5522727,
                "end_time": 97.65,
                "pitch": 64,
                "velocity": 51,
                "duration": 0.0977273,
                "tempo": 120.0
            },
            {
                "start_time": 97.6659091,
                "end_time": 97.7636364,
                "pitch": 64,
                "velocity": 51,
                "duration": 0.0977273,
                "tempo": 120.0
            },
            {
                "start_time": 97.7795455,
                "end_time": 97.8840909,
                "pitch": 64,
                "velocity": 51,
                "duration": 0.1045455,
                "tempo": 120.0
            },
            {
                "start_time": 98.7181818,
                "end_time": 98.9318182,
                "pitch": 60,
                "velocity": 51,
                "duration": 0.2136364,
                "tempo": 120.0
            },
            {
                "start_time": 98.9477273,
                "end_time": 99.0454545,
                "pitch": 60,
                "velocity": 51,
                "duration": 0.0977273,
                "tempo": 120.0
            },
            {
                "start_time": 99.2954545,
                "end_time": 99.5113636,
                "pitch": 60,
                "velocity": 51,
                "duration": 0.2159091,
                "tempo": 120.0
            },
            {
                "start_time": 99.5295455,
                "end_time": 99.6295455,
                "pitch": 62,
                "velocity": 51,
                "duration": 0.1,
                "tempo": 120.0
            },
            {
                "start_time": 99.6454545,
                "end_time": 99.8636364,
                "pitch": 62,
                "velocity": 51,
                "duration": 0.2181818,
                "tempo": 120.0
            },
            {
                "start_time": 99.8795455,
                "end_time": 99.9818182,
                "pitch": 62,
                "velocity": 51,
                "duration": 0.1022727,
                "tempo": 120.0
            },
            {
                "start_time": 100.2295455,
                "end_time": 100.4431818,
                "pitch": 62,
                "velocity": 51,
                "duration": 0.2136364,
                "tempo": 120.0
            },
            {
                "start_time": 100.4590909,
                "end_time": 100.5568182,
                "pitch": 64,
                "velocity": 51,
                "duration": 0.0977273,
                "tempo": 120.0
            },
            {
                "start_time": 100.5727273,
                "end_time": 100.7909091,
                "pitch": 64,
                "velocity": 51,
                "duration": 0.2181818,
                "tempo": 120.0
            },
            {
                "start_time": 100.8068182,
                "end_time": 100.9090909,
                "pitch": 64,
                "velocity": 51,
                "duration": 0.1022727,
                "tempo": 120.0
            },
            {
                "start_time": 101.1590909,
                "end_time": 101.3772727,
                "pitch": 64,
                "velocity": 51,
                "duration": 0.2181818,
                "tempo": 120.0
            },
            {
                "start_time": 101.3931818,
                "end_time": 101.6090909,
                "pitch": 64,
                "velocity": 51,
                "duration": 0.2159091,
                "tempo": 120.0
            },
            {
                "start_time": 101.625,
                "end_time": 101.8386364,
                "pitch": 64,
                "velocity": 51,
                "duration": 0.2136364,
                "tempo": 120.0
            },
            {
                "start_time": 101.8545455,
                "end_time": 101.9522727,
                "pitch": 64,
                "velocity": 51,
                "duration": 0.0977273,
                "tempo": 120.0
            },
            {
                "start_time": 101.9704545,
                "end_time": 102.1863636,
                "pitch": 64,
                "velocity": 51,
                "duration": 0.2159091,
                "tempo": 120.0
            },
            {
                "start_time": 102.2045455,
                "end_time": 102.4227273,
                "pitch": 64,
                "velocity": 51,
                "duration": 0.2181818,
                "tempo": 120.0
            },
            {
                "start_time": 102.4386364,
                "end_time": 102.6568182,
                "pitch": 60,
                "velocity": 51,
                "duration": 0.2181818,
                "tempo": 120.0
            },
            {
                "start_time": 102.6727273,
                "end_time": 102.7727273,
                "pitch": 60,
                "velocity": 51,
                "duration": 0.1,
                "tempo": 120.0
            },
            {
                "start_time": 103.0227273,
                "end_time": 103.2340909,
                "pitch": 60,
                "velocity": 51,
                "duration": 0.2113636,
                "tempo": 120.0
            },
            {
                "start_time": 103.25,
                "end_time": 103.35,
                "pitch": 62,
                "velocity": 51,
                "duration": 0.1,
                "tempo": 120.0
            },
            {
                "start_time": 103.3659091,
                "end_time": 103.5840909,
                "pitch": 62,
                "velocity": 51,
                "duration": 0.2181818,
                "tempo": 120.0
            },
            {
                "start_time": 103.6,
                "end_time": 103.7,
                "pitch": 62,
                "velocity": 51,
                "duration": 0.1,
                "tempo": 120.0
            },
            {
                "start_time": 103.95,
                "end_time": 104.1613636,
                "pitch": 62,
                "velocity": 51,
                "duration": 0.2113636,
                "tempo": 120.0
            },
            {
                "start_time": 104.1772727,
                "end_time": 104.2772727,
                "pitch": 64,
                "velocity": 51,
                "duration": 0.1,
                "tempo": 120.0
            },
            {
                "start_time": 104.2931818,
                "end_time": 104.5113636,
                "pitch": 64,
                "velocity": 51,
                "duration": 0.2181818,
                "tempo": 120.0
            },
            {
                "start_time": 104.5272727,
                "end_time": 104.6272727,
                "pitch": 64,
                "velocity": 51,
                "duration": 0.1,
                "tempo": 120.0
            },
            {
                "start_time": 104.8795455,
                "end_time": 105.0977273,
                "pitch": 64,
                "velocity": 51,
                "duration": 0.2181818,
                "tempo": 120.0
            },
            {
                "start_time": 105.1136364,
                "end_time": 105.3295455,
                "pitch": 64,
                "velocity": 51,
                "duration": 0.2159091,
                "tempo": 120.0
            },
            {
                "start_time": 105.3454545,
                "end_time": 105.5568182,
                "pitch": 64,
                "velocity": 51,
                "duration": 0.2113636,
                "tempo": 120.0
            },
            {
                "start_time": 105.575,
                "end_time": 105.6727273,
                "pitch": 64,
                "velocity": 51,
                "duration": 0.0977273,
                "tempo": 120.0
            },
            {
                "start_time": 105.6886364,
                "end_time": 105.9068182,
                "pitch": 64,
                "velocity": 51,
                "duration": 0.2181818,
                "tempo": 120.0
            },
            {
                "start_time": 105.9227273,
                "end_time": 106.1409091,
                "pitch": 64,
                "velocity": 51,
                "duration": 0.2181818,
                "tempo": 120.0
            },
            {
                "start_time": 106.1568182,
                "end_time": 106.375,
                "pitch": 60,
                "velocity": 51,
                "duration": 0.2181818,
                "tempo": 120.0
            },
            {
                "start_time": 106.3931818,
                "end_time": 106.4931818,
                "pitch": 60,
                "velocity": 51,
                "duration": 0.1,
                "tempo": 120.0
            },
            {
                "start_time": 106.7431818,
                "end_time": 106.9613636,
                "pitch": 60,
                "velocity": 51,
                "duration": 0.2181818,
                "tempo": 120.0
            },
            {
                "start_time": 106.9795455,
                "end_time": 107.0795455,
                "pitch": 62,
                "velocity": 51,
                "duration": 0.1,
                "tempo": 120.0
            },
            {
                "start_time": 107.0954545,
                "end_time": 107.3090909,
                "pitch": 62,
                "velocity": 51,
                "duration": 0.2136364,
                "tempo": 120.0
            },
            {
                "start_time": 107.325,
                "end_time": 107.4227273,
                "pitch": 62,
                "velocity": 51,
                "duration": 0.0977273,
                "tempo": 120.0
            },
            {
                "start_time": 107.6704545,
                "end_time": 107.8886364,
                "pitch": 62,
                "velocity": 51,
                "duration": 0.2181818,
                "tempo": 120.0
            },
            {
                "start_time": 107.9068182,
                "end_time": 108.0068182,
                "pitch": 64,
                "velocity": 51,
                "duration": 0.1,
                "tempo": 120.0
            },
            {
                "start_time": 108.0227273,
                "end_time": 108.2409091,
                "pitch": 64,
                "velocity": 51,
                "duration": 0.2181818,
                "tempo": 120.0
            },
            {
                "start_time": 108.2568182,
                "end_time": 108.3590909,
                "pitch": 64,
                "velocity": 51,
                "duration": 0.1022727,
                "tempo": 120.0
            },
            {
                "start_time": 108.6068182,
                "end_time": 108.8181818,
                "pitch": 64,
                "velocity": 51,
                "duration": 0.2113636,
                "tempo": 120.0
            },
            {
                "start_time": 108.8363636,
                "end_time": 109.05,
                "pitch": 64,
                "velocity": 51,
                "duration": 0.2136364,
                "tempo": 120.0
            },
            {
                "start_time": 109.0681818,
                "end_time": 109.2863636,
                "pitch": 64,
                "velocity": 51,
                "duration": 0.2181818,
                "tempo": 120.0
            },
            {
                "start_time": 109.3022727,
                "end_time": 109.4022727,
                "pitch": 64,
                "velocity": 51,
                "duration": 0.1,
                "tempo": 120.0
            },
            {
                "start_time": 109.4181818,
                "end_time": 109.6363636,
                "pitch": 64,
                "velocity": 51,
                "duration": 0.2181818,
                "tempo": 120.0
            },
            {
                "start_time": 109.6545455,
                "end_time": 109.8704545,
                "pitch": 64,
                "velocity": 51,
                "duration": 0.2159091,
                "tempo": 120.0
            },
            {
                "start_time": 109.8886364,
                "end_time": 110.1,
                "pitch": 60,
                "velocity": 51,
                "duration": 0.2113636,
                "tempo": 120.0
            },
            {
                "start_time": 110.1181818,
                "end_time": 110.2159091,
                "pitch": 60,
                "velocity": 51,
                "duration": 0.0977273,
                "tempo": 120.0
            },
            {
                "start_time": 110.4636364,
                "end_time": 110.6818182,
                "pitch": 60,
                "velocity": 51,
                "duration": 0.2181818,
                "tempo": 120.0
            },
            {
                "start_time": 110.6977273,
                "end_time": 110.7977273,
                "pitch": 62,
                "velocity": 51,
                "duration": 0.1,
                "tempo": 120.0
            },
            {
                "start_time": 110.8159091,
                "end_time": 111.0340909,
                "pitch": 62,
                "velocity": 51,
                "duration": 0.2181818,
                "tempo": 120.0
            },
            {
                "start_time": 111.05,
                "end_time": 111.15,
                "pitch": 62,
                "velocity": 51,
                "duration": 0.1,
                "tempo": 120.0
            },
            {
                "start_time": 111.4,
                "end_time": 111.6113636,
                "pitch": 62,
                "velocity": 51,
                "duration": 0.2113636,
                "tempo": 120.0
            },
            {
                "start_time": 111.6272727,
                "end_time": 111.7272727,
                "pitch": 64,
                "velocity": 51,
                "duration": 0.1,
                "tempo": 120.0
            },
            {
                "start_time": 111.7431818,
                "end_time": 111.9613636,
                "pitch": 64,
                "velocity": 51,
                "duration": 0.2181818,
                "tempo": 120.0
            },
            {
                "start_time": 111.9772727,
                "end_time": 112.0772727,
                "pitch": 64,
                "velocity": 51,
                "duration": 0.1,
                "tempo": 120.0
            },
            {
                "start_time": 112.3295455,
                "end_time": 112.5477273,
                "pitch": 64,
                "velocity": 51,
                "duration": 0.2181818,
                "tempo": 120.0
            },
            {
                "start_time": 112.5636364,
                "end_time": 112.7795455,
                "pitch": 64,
                "velocity": 51,
                "duration": 0.2159091,
                "tempo": 120.0
            },
            {
                "start_time": 112.7954545,
                "end_time": 113.0068182,
                "pitch": 64,
                "velocity": 51,
                "duration": 0.2113636,
                "tempo": 120.0
            },
            {
                "start_time": 113.025,
                "end_time": 113.1227273,
                "pitch": 64,
                "velocity": 51,
                "duration": 0.0977273,
                "tempo": 120.0
            },
            {
                "start_time": 113.1386364,
                "end_time": 113.3568182,
                "pitch": 64,
                "velocity": 51,
                "duration": 0.2181818,
                "tempo": 120.0
            },
            {
                "start_time": 113.3727273,
                "end_time": 113.5909091,
                "pitch": 64,
                "velocity": 51,
                "duration": 0.2181818,
                "tempo": 120.0
            },
            {
                "start_time": 113.6068182,
                "end_time": 113.825,
                "pitch": 67,
                "velocity": 51,
                "duration": 0.2181818,
                "tempo": 120.0
            },
            {
                "start_time": 117.4454545,
                "end_time": 117.5454545,
                "pitch": 52,
                "velocity": 51,
                "duration": 0.1,
                "tempo": 120.0
            },
            {
                "start_time": 117.6795455,
                "end_time": 117.7795455,
                "pitch": 55,
                "velocity": 51,
                "duration": 0.1,
                "tempo": 120.0
            },
            {
                "start_time": 117.9068182,
                "end_time": 118.0045455,
                "pitch": 57,
                "velocity": 51,
                "duration": 0.0977273,
                "tempo": 120.0
            },
            {
                "start_time": 118.1318182,
                "end_time": 118.2272727,
                "pitch": 59,
                "velocity": 51,
                "duration": 0.0954545,
                "tempo": 120.0
            },
            {
                "start_time": 118.3613636,
                "end_time": 118.4613636,
                "pitch": 57,
                "velocity": 51,
                "duration": 0.1,
                "tempo": 120.0
            },
            {
                "start_time": 118.5954545,
                "end_time": 118.6954545,
                "pitch": 59,
                "velocity": 51,
                "duration": 0.1,
                "tempo": 120.0
            },
            {
                "start_time": 118.8272727,
                "end_time": 118.925,
                "pitch": 62,
                "velocity": 51,
                "duration": 0.0977273,
                "tempo": 120.0
            },
            {
                "start_time": 119.0568182,
                "end_time": 119.1545455,
                "pitch": 64,
                "velocity": 51,
                "duration": 0.0977273,
                "tempo": 120.0
            },
            {
                "start_time": 119.2909091,
                "end_time": 119.3931818,
                "pitch": 64,
                "velocity": 51,
                "duration": 0.1022727,
                "tempo": 120.0
            },
            {
                "start_time": 119.5295455,
                "end_time": 119.6318182,
                "pitch": 67,
                "velocity": 51,
                "duration": 0.1022727,
                "tempo": 120.0
            },
            {
                "start_time": 119.7613636,
                "end_time": 119.8590909,
                "pitch": 69,
                "velocity": 51,
                "duration": 0.0977273,
                "tempo": 120.0
            },
            {
                "start_time": 119.9909091,
                "end_time": 120.0886364,
                "pitch": 71,
                "velocity": 51,
                "duration": 0.0977273,
                "tempo": 120.0
            },
            {
                "start_time": 120.2204545,
                "end_time": 120.3181818,
                "pitch": 74,
                "velocity": 51,
                "duration": 0.0977273,
                "tempo": 120.0
            },
            {
                "start_time": 120.45,
                "end_time": 120.5477273,
                "pitch": 75,
                "velocity": 51,
                "duration": 0.0977273,
                "tempo": 120.0
            },
            {
                "start_time": 120.6818182,
                "end_time": 122.4136364,
                "pitch": 76,
                "velocity": 51,
                "duration": 1.7318182,
                "tempo": 120.0
            },
            {
                "start_time": 123.0090909,
                "end_time": 123.1136364,
                "pitch": 76,
                "velocity": 51,
                "duration": 0.1045455,
                "tempo": 120.0
            },
            {
                "start_time": 123.2522727,
                "end_time": 123.3568182,
                "pitch": 76,
                "velocity": 51,
                "duration": 0.1045455,
                "tempo": 120.0
            },
            {
                "start_time": 123.7090909,
                "end_time": 123.8068182,
                "pitch": 78,
                "velocity": 51,
                "duration": 0.0977273,
                "tempo": 120.0
            },
            {
                "start_time": 123.9386364,
                "end_time": 124.0409091,
                "pitch": 78,
                "velocity": 51,
                "duration": 0.1022727,
                "tempo": 120.0
            },
            {
                "start_time": 124.8818182,
                "end_time": 124.9795455,
                "pitch": 78,
                "velocity": 51,
                "duration": 0.0977273,
                "tempo": 120.0
            },
            {
                "start_time": 125.1113636,
                "end_time": 125.2090909,
                "pitch": 78,
                "velocity": 51,
                "duration": 0.0977273,
                "tempo": 120.0
            },
            {
                "start_time": 125.5704545,
                "end_time": 125.6681818,
                "pitch": 79,
                "velocity": 51,
                "duration": 0.0977273,
                "tempo": 120.0
            },
            {
                "start_time": 125.8022727,
                "end_time": 125.9022727,
                "pitch": 79,
                "velocity": 51,
                "duration": 0.1,
                "tempo": 120.0
            },
            {
                "start_time": 126.7386364,
                "end_time": 126.8409091,
                "pitch": 76,
                "velocity": 51,
                "duration": 0.1022727,
                "tempo": 120.0
            },
            {
                "start_time": 126.975,
                "end_time": 127.075,
                "pitch": 76,
                "velocity": 51,
                "duration": 0.1,
                "tempo": 120.0
            },
            {
                "start_time": 127.4340909,
                "end_time": 127.5318182,
                "pitch": 78,
                "velocity": 51,
                "duration": 0.0977273,
                "tempo": 120.0
            },
            {
                "start_time": 127.6659091,
                "end_time": 127.7681818,
                "pitch": 78,
                "velocity": 51,
                "duration": 0.1022727,
                "tempo": 120.0
            },
            {
                "start_time": 128.6045455,
                "end_time": 128.7045455,
                "pitch": 78,
                "velocity": 51,
                "duration": 0.1,
                "tempo": 120.0
            },
            {
                "start_time": 128.8386364,
                "end_time": 128.9386364,
                "pitch": 78,
                "velocity": 51,
                "duration": 0.1,
                "tempo": 120.0
            },
            {
                "start_time": 129.2909091,
                "end_time": 129.3886364,
                "pitch": 79,
                "velocity": 51,
                "duration": 0.0977273,
                "tempo": 120.0
            },
            {
                "start_time": 129.5204545,
                "end_time": 129.6227273,
                "pitch": 79,
                "velocity": 51,
                "duration": 0.1022727,
                "tempo": 120.0
            },
            {
                "start_time": 129.9931818,
                "end_time": 132.1977273,
                "pitch": 75,
                "velocity": 51,
                "duration": 2.2045455,
                "tempo": 120.0
            },
            {
                "start_time": 134.0681818,
                "end_time": 134.2863636,
                "pitch": 59,
                "velocity": 51,
                "duration": 0.2181818,
                "tempo": 120.0
            },
            {
                "start_time": 134.3045455,
                "end_time": 134.4045455,
                "pitch": 59,
                "velocity": 51,
                "duration": 0.1,
                "tempo": 120.0
            },
            {
                "start_time": 134.6545455,
                "end_time": 134.8727273,
                "pitch": 59,
                "velocity": 51,
                "duration": 0.2181818,
                "tempo": 120.0
            },
            {
                "start_time": 134.8909091,
                "end_time": 135.1068182,
                "pitch": 59,
                "velocity": 51,
                "duration": 0.2159091,
                "tempo": 120.0
            },
            {
                "start_time": 135.125,
                "end_time": 135.3431818,
                "pitch": 59,
                "velocity": 51,
                "duration": 0.2181818,
                "tempo": 120.0
            },
            {
                "start_time": 135.4772727,
                "end_time": 135.575,
                "pitch": 59,
                "velocity": 51,
                "duration": 0.0977273,
                "tempo": 120.0
            },
            {
                "start_time": 135.5909091,
                "end_time": 135.6886364,
                "pitch": 59,
                "velocity": 51,
                "duration": 0.0977273,
                "tempo": 120.0
            },
            {
                "start_time": 135.7045455,
                "end_time": 135.9181818,
                "pitch": 57,
                "velocity": 51,
                "duration": 0.2136364,
                "tempo": 120.0
            },
            {
                "start_time": 135.9340909,
                "end_time": 136.1522727,
                "pitch": 57,
                "velocity": 51,
                "duration": 0.2181818,
                "tempo": 120.0
            },
            {
                "start_time": 136.1681818,
                "end_time": 136.2704545,
                "pitch": 57,
                "velocity": 51,
                "duration": 0.1022727,
                "tempo": 120.0
            },
            {
                "start_time": 136.5181818,
                "end_time": 136.7318182,
                "pitch": 57,
                "velocity": 51,
                "duration": 0.2136364,
                "tempo": 120.0
            },
            {
                "start_time": 136.7477273,
                "end_time": 136.9613636,
                "pitch": 57,
                "velocity": 51,
                "duration": 0.2136364,
                "tempo": 120.0
            },
            {
                "start_time": 136.9795455,
                "end_time": 137.1977273,
                "pitch": 57,
                "velocity": 51,
                "duration": 0.2181818,
                "tempo": 120.0
            },
            {
                "start_time": 137.3295455,
                "end_time": 137.4318182,
                "pitch": 57,
                "velocity": 51,
                "duration": 0.1022727,
                "tempo": 120.0
            },
            {
                "start_time": 137.4477273,
                "end_time": 137.5477273,
                "pitch": 57,
                "velocity": 51,
                "duration": 0.1,
                "tempo": 120.0
            },
            {
                "start_time": 137.5659091,
                "end_time": 137.7818182,
                "pitch": 57,
                "velocity": 51,
                "duration": 0.2159091,
                "tempo": 120.0
            },
            {
                "start_time": 137.8,
                "end_time": 138.0113636,
                "pitch": 59,
                "velocity": 51,
                "duration": 0.2113636,
                "tempo": 120.0
            },
            {
                "start_time": 138.0295455,
                "end_time": 138.1272727,
                "pitch": 59,
                "velocity": 51,
                "duration": 0.0977273,
                "tempo": 120.0
            },
            {
                "start_time": 138.375,
                "end_time": 138.5931818,
                "pitch": 59,
                "velocity": 51,
                "duration": 0.2181818,
                "tempo": 120.0
            },
            {
                "start_time": 138.6090909,
                "end_time": 138.8295455,
                "pitch": 59,
                "velocity": 51,
                "duration": 0.2204545,
                "tempo": 120.0
            },
            {
                "start_time": 138.8477273,
                "end_time": 139.0704545,
                "pitch": 59,
                "velocity": 51,
                "duration": 0.2227273,
                "tempo": 120.0
            },
            {
                "start_time": 139.2068182,
                "end_time": 139.3022727,
                "pitch": 59,
                "velocity": 51,
                "duration": 0.0954545,
                "tempo": 120.0
            },
            {
                "start_time": 139.3181818,
                "end_time": 139.4136364,
                "pitch": 59,
                "velocity": 51,
                "duration": 0.0954545,
                "tempo": 120.0
            },
            {
                "start_time": 139.4295455,
                "end_time": 139.6386364,
                "pitch": 57,
                "velocity": 51,
                "duration": 0.2090909,
                "tempo": 120.0
            },
            {
                "start_time": 139.6545455,
                "end_time": 139.8727273,
                "pitch": 57,
                "velocity": 51,
                "duration": 0.2181818,
                "tempo": 120.0
            },
            {
                "start_time": 139.8886364,
                "end_time": 139.9886364,
                "pitch": 57,
                "velocity": 51,
                "duration": 0.1,
                "tempo": 120.0
            },
            {
                "start_time": 140.2409091,
                "end_time": 140.4590909,
                "pitch": 57,
                "velocity": 51,
                "duration": 0.2181818,
                "tempo": 120.0
            },
            {
                "start_time": 140.475,
                "end_time": 140.6909091,
                "pitch": 57,
                "velocity": 51,
                "duration": 0.2159091,
                "tempo": 120.0
            },
            {
                "start_time": 140.7068182,
                "end_time": 140.9204545,
                "pitch": 57,
                "velocity": 51,
                "duration": 0.2136364,
                "tempo": 120.0
            },
            {
                "start_time": 141.05,
                "end_time": 141.1522727,
                "pitch": 61,
                "velocity": 51,
                "duration": 0.1022727,
                "tempo": 120.0
            },
            {
                "start_time": 141.1681818,
                "end_time": 141.2681818,
                "pitch": 61,
                "velocity": 51,
                "duration": 0.1,
                "tempo": 120.0
            },
            {
                "start_time": 141.2840909,
                "end_time": 141.5022727,
                "pitch": 57,
                "velocity": 51,
                "duration": 0.2181818,
                "tempo": 120.0
            },
            {
                "start_time": 141.5204545,
                "end_time": 141.7363636,
                "pitch": 59,
                "velocity": 51,
                "duration": 0.2159091,
                "tempo": 120.0
            },
            {
                "start_time": 141.7545455,
                "end_time": 141.8545455,
                "pitch": 59,
                "velocity": 51,
                "duration": 0.1,
                "tempo": 120.0
            },
            {
                "start_time": 142.1022727,
                "end_time": 142.3159091,
                "pitch": 59,
                "velocity": 51,
                "duration": 0.2136364,
                "tempo": 120.0
            },
            {
                "start_time": 142.3318182,
                "end_time": 142.5477273,
                "pitch": 59,
                "velocity": 51,
                "duration": 0.2159091,
                "tempo": 120.0
            },
            {
                "start_time": 142.5636364,
                "end_time": 142.7818182,
                "pitch": 59,
                "velocity": 51,
                "duration": 0.2181818,
                "tempo": 120.0
            },
            {
                "start_time": 142.9159091,
                "end_time": 143.0159091,
                "pitch": 59,
                "velocity": 51,
                "duration": 0.1,
                "tempo": 120.0
            },
            {
                "start_time": 143.0340909,
                "end_time": 143.1340909,
                "pitch": 59,
                "velocity": 51,
                "duration": 0.1,
                "tempo": 120.0
            },
            {
                "start_time": 143.15,
                "end_time": 143.3681818,
                "pitch": 57,
                "velocity": 51,
                "duration": 0.2181818,
                "tempo": 120.0
            },
            {
                "start_time": 143.3840909,
                "end_time": 143.5977273,
                "pitch": 57,
                "velocity": 51,
                "duration": 0.2136364,
                "tempo": 120.0
            },
            {
                "start_time": 143.6136364,
                "end_time": 143.7113636,
                "pitch": 57,
                "velocity": 51,
                "duration": 0.0977273,
                "tempo": 120.0
            },
            {
                "start_time": 143.9613636,
                "end_time": 144.1772727,
                "pitch": 57,
                "velocity": 51,
                "duration": 0.2159091,
                "tempo": 120.0
            },
            {
                "start_time": 144.1954545,
                "end_time": 144.4136364,
                "pitch": 57,
                "velocity": 51,
                "duration": 0.2181818,
                "tempo": 120.0
            },
            {
                "start_time": 144.4295455,
                "end_time": 144.6477273,
                "pitch": 57,
                "velocity": 51,
                "duration": 0.2181818,
                "tempo": 120.0
            },
            {
                "start_time": 144.7818182,
                "end_time": 144.8795455,
                "pitch": 57,
                "velocity": 51,
                "duration": 0.0977273,
                "tempo": 120.0
            },
            {
                "start_time": 144.8954545,
                "end_time": 144.9931818,
                "pitch": 57,
                "velocity": 51,
                "duration": 0.0977273,
                "tempo": 120.0
            },
            {
                "start_time": 145.0090909,
                "end_time": 145.2227273,
                "pitch": 57,
                "velocity": 51,
                "duration": 0.2136364,
                "tempo": 120.0
            },
            {
                "start_time": 145.2386364,
                "end_time": 145.4568182,
                "pitch": 59,
                "velocity": 51,
                "duration": 0.2181818,
                "tempo": 120.0
            },
            {
                "start_time": 145.4727273,
                "end_time": 145.575,
                "pitch": 59,
                "velocity": 51,
                "duration": 0.1022727,
                "tempo": 120.0
            },
            {
                "start_time": 145.825,
                "end_time": 146.0431818,
                "pitch": 59,
                "velocity": 51,
                "duration": 0.2181818,
                "tempo": 120.0
            },
            {
                "start_time": 146.0590909,
                "end_time": 146.2772727,
                "pitch": 59,
                "velocity": 51,
                "duration": 0.2181818,
                "tempo": 120.0
            },
            {
                "start_time": 146.2954545,
                "end_time": 146.5113636,
                "pitch": 59,
                "velocity": 51,
                "duration": 0.2159091,
                "tempo": 120.0
            },
            {
                "start_time": 146.6454545,
                "end_time": 146.7454545,
                "pitch": 59,
                "velocity": 51,
                "duration": 0.1,
                "tempo": 120.0
            },
            {
                "start_time": 146.7613636,
                "end_time": 146.8590909,
                "pitch": 59,
                "velocity": 51,
                "duration": 0.0977273,
                "tempo": 120.0
            },
            {
                "start_time": 146.875,
                "end_time": 147.0886364,
                "pitch": 57,
                "velocity": 51,
                "duration": 0.2136364,
                "tempo": 120.0
            },
            {
                "start_time": 147.1045455,
                "end_time": 147.3227273,
                "pitch": 57,
                "velocity": 51,
                "duration": 0.2181818,
                "tempo": 120.0
            },
            {
                "start_time": 147.3386364,
                "end_time": 147.4386364,
                "pitch": 57,
                "velocity": 51,
                "duration": 0.1,
                "tempo": 120.0
            },
            {
                "start_time": 147.6886364,
                "end_time": 147.9,
                "pitch": 57,
                "velocity": 51,
                "duration": 0.2113636,
                "tempo": 120.0
            },
            {
                "start_time": 147.9159091,
                "end_time": 148.0159091,
                "pitch": 57,
                "velocity": 51,
                "duration": 0.1,
                "tempo": 120.0
            },
            {
                "start_time": 148.2022727,
                "end_time": 148.3363636,
                "pitch": 61,
                "velocity": 51,
                "duration": 0.1340909,
                "tempo": 120.0
            },
            {
                "start_time": 148.3545455,
                "end_time": 148.4909091,
                "pitch": 61,
                "velocity": 51,
                "duration": 0.1363636,
                "tempo": 120.0
            },
            {
                "start_time": 148.5068182,
                "end_time": 148.6545455,
                "pitch": 61,
                "velocity": 51,
                "duration": 0.1477273,
                "tempo": 120.0
            },
            {
                "start_time": 148.6704545,
                "end_time": 148.8022727,
                "pitch": 61,
                "velocity": 51,
                "duration": 0.1318182,
                "tempo": 120.0
            },
            {
                "start_time": 148.8181818,
                "end_time": 148.95,
                "pitch": 61,
                "velocity": 51,
                "duration": 0.1318182,
                "tempo": 120.0
            },
            {
                "start_time": 148.9659091,
                "end_time": 149.1795455,
                "pitch": 59,
                "velocity": 51,
                "duration": 0.2136364,
                "tempo": 120.0
            },
            {
                "start_time": 149.1954545,
                "end_time": 149.2931818,
                "pitch": 59,
                "velocity": 51,
                "duration": 0.0977273,
                "tempo": 120.0
            },
            {
                "start_time": 149.5409091,
                "end_time": 149.7590909,
                "pitch": 59,
                "velocity": 51,
                "duration": 0.2181818,
                "tempo": 120.0
            },
            {
                "start_time": 149.775,
                "end_time": 149.9931818,
                "pitch": 59,
                "velocity": 51,
                "duration": 0.2181818,
                "tempo": 120.0
            },
            {
                "start_time": 150.0113636,
                "end_time": 150.2272727,
                "pitch": 59,
                "velocity": 51,
                "duration": 0.2159091,
                "tempo": 120.0
            },
            {
                "start_time": 150.3613636,
                "end_time": 150.4613636,
                "pitch": 59,
                "velocity": 51,
                "duration": 0.1,
                "tempo": 120.0
            },
            {
                "start_time": 150.4772727,
                "end_time": 150.575,
                "pitch": 59,
                "velocity": 51,
                "duration": 0.0977273,
                "tempo": 120.0
            },
            {
                "start_time": 150.5909091,
                "end_time": 150.8045455,
                "pitch": 57,
                "velocity": 51,
                "duration": 0.2136364,
                "tempo": 120.0
            },
            {
                "start_time": 150.8204545,
                "end_time": 151.0386364,
                "pitch": 57,
                "velocity": 51,
                "duration": 0.2181818,
                "tempo": 120.0
            },
            {
                "start_time": 151.0545455,
                "end_time": 151.1545455,
                "pitch": 57,
                "velocity": 51,
                "duration": 0.1,
                "tempo": 120.0
            },
            {
                "start_time": 151.4068182,
                "end_time": 151.625,
                "pitch": 57,
                "velocity": 51,
                "duration": 0.2181818,
                "tempo": 120.0
            },
            {
                "start_time": 151.6409091,
                "end_time": 151.8590909,
                "pitch": 57,
                "velocity": 51,
                "duration": 0.2181818,
                "tempo": 120.0
            },
            {
                "start_time": 151.875,
                "end_time": 152.0931818,
                "pitch": 57,
                "velocity": 51,
                "duration": 0.2181818,
                "tempo": 120.0
            },
            {
                "start_time": 152.2272727,
                "end_time": 152.325,
                "pitch": 57,
                "velocity": 51,
                "duration": 0.0977273,
                "tempo": 120.0
            },
            {
                "start_time": 152.3409091,
                "end_time": 152.4409091,
                "pitch": 57,
                "velocity": 51,
                "duration": 0.1,
                "tempo": 120.0
            },
            {
                "start_time": 152.4568182,
                "end_time": 152.6681818,
                "pitch": 57,
                "velocity": 51,
                "duration": 0.2113636,
                "tempo": 120.0
            },
            {
                "start_time": 152.6863636,
                "end_time": 152.9022727,
                "pitch": 59,
                "velocity": 51,
                "duration": 0.2159091,
                "tempo": 120.0
            },
            {
                "start_time": 152.9204545,
                "end_time": 153.0204545,
                "pitch": 59,
                "velocity": 51,
                "duration": 0.1,
                "tempo": 120.0
            },
            {
                "start_time": 153.2681818,
                "end_time": 153.4818182,
                "pitch": 59,
                "velocity": 51,
                "duration": 0.2136364,
                "tempo": 120.0
            },
            {
                "start_time": 153.4977273,
                "end_time": 153.7136364,
                "pitch": 59,
                "velocity": 51,
                "duration": 0.2159091,
                "tempo": 120.0
            },
            {
                "start_time": 153.7295455,
                "end_time": 153.9477273,
                "pitch": 59,
                "velocity": 51,
                "duration": 0.2181818,
                "tempo": 120.0
            },
            {
                "start_time": 154.0818182,
                "end_time": 154.1818182,
                "pitch": 59,
                "velocity": 51,
                "duration": 0.1,
                "tempo": 120.0
            },
            {
                "start_time": 154.2,
                "end_time": 154.3,
                "pitch": 59,
                "velocity": 51,
                "duration": 0.1,
                "tempo": 120.0
            },
            {
                "start_time": 154.3159091,
                "end_time": 154.5340909,
                "pitch": 57,
                "velocity": 51,
                "duration": 0.2181818,
                "tempo": 120.0
            },
            {
                "start_time": 154.55,
                "end_time": 154.7636364,
                "pitch": 57,
                "velocity": 51,
                "duration": 0.2136364,
                "tempo": 120.0
            },
            {
                "start_time": 154.7795455,
                "end_time": 154.8772727,
                "pitch": 57,
                "velocity": 51,
                "duration": 0.0977273,
                "tempo": 120.0
            },
            {
                "start_time": 155.125,
                "end_time": 155.3431818,
                "pitch": 57,
                "velocity": 51,
                "duration": 0.2181818,
                "tempo": 120.0
            },
            {
                "start_time": 155.3613636,
                "end_time": 155.5772727,
                "pitch": 57,
                "velocity": 51,
                "duration": 0.2159091,
                "tempo": 120.0
            },
            {
                "start_time": 155.5954545,
                "end_time": 155.8136364,
                "pitch": 57,
                "velocity": 51,
                "duration": 0.2181818,
                "tempo": 120.0
            },
            {
                "start_time": 155.9477273,
                "end_time": 156.0454545,
                "pitch": 61,
                "velocity": 51,
                "duration": 0.0977273,
                "tempo": 120.0
            },
            {
                "start_time": 156.0613636,
                "end_time": 156.1590909,
                "pitch": 61,
                "velocity": 51,
                "duration": 0.0977273,
                "tempo": 120.0
            },
            {
                "start_time": 156.175,
                "end_time": 156.3886364,
                "pitch": 57,
                "velocity": 51,
                "duration": 0.2136364,
                "tempo": 120.0
            },
            {
                "start_time": 156.4045455,
                "end_time": 156.6227273,
                "pitch": 59,
                "velocity": 51,
                "duration": 0.2181818,
                "tempo": 120.0
            },
            {
                "start_time": 156.6386364,
                "end_time": 156.7409091,
                "pitch": 59,
                "velocity": 51,
                "duration": 0.1022727,
                "tempo": 120.0
            },
            {
                "start_time": 156.9909091,
                "end_time": 157.2090909,
                "pitch": 59,
                "velocity": 51,
                "duration": 0.2181818,
                "tempo": 120.0
            },
            {
                "start_time": 157.225,
                "end_time": 157.4431818,
                "pitch": 59,
                "velocity": 51,
                "duration": 0.2181818,
                "tempo": 120.0
            },
            {
                "start_time": 157.4613636,
                "end_time": 157.6772727,
                "pitch": 59,
                "velocity": 51,
                "duration": 0.2159091,
                "tempo": 120.0
            },
            {
                "start_time": 157.8113636,
                "end_time": 157.9113636,
                "pitch": 59,
                "velocity": 51,
                "duration": 0.1,
                "tempo": 120.0
            },
            {
                "start_time": 157.9272727,
                "end_time": 158.025,
                "pitch": 59,
                "velocity": 51,
                "duration": 0.0977273,
                "tempo": 120.0
            },
            {
                "start_time": 158.0409091,
                "end_time": 158.2545455,
                "pitch": 57,
                "velocity": 51,
                "duration": 0.2136364,
                "tempo": 120.0
            },
            {
                "start_time": 158.2704545,
                "end_time": 158.4886364,
                "pitch": 57,
                "velocity": 51,
                "duration": 0.2181818,
                "tempo": 120.0
            },
            {
                "start_time": 158.5045455,
                "end_time": 158.6045455,
                "pitch": 57,
                "velocity": 51,
                "duration": 0.1,
                "tempo": 120.0
            },
            {
                "start_time": 158.8568182,
                "end_time": 159.075,
                "pitch": 57,
                "velocity": 51,
                "duration": 0.2181818,
                "tempo": 120.0
            },
            {
                "start_time": 159.0909091,
                "end_time": 159.3068182,
                "pitch": 57,
                "velocity": 51,
                "duration": 0.2159091,
                "tempo": 120.0
            },
            {
                "start_time": 159.3227273,
                "end_time": 159.5363636,
                "pitch": 57,
                "velocity": 51,
                "duration": 0.2136364,
                "tempo": 120.0
            },
            {
                "start_time": 159.6659091,
                "end_time": 159.7659091,
                "pitch": 57,
                "velocity": 51,
                "duration": 0.1,
                "tempo": 120.0
            },
            {
                "start_time": 159.7840909,
                "end_time": 159.8840909,
                "pitch": 57,
                "velocity": 51,
                "duration": 0.1,
                "tempo": 120.0
            },
            {
                "start_time": 159.9,
                "end_time": 160.1181818,
                "pitch": 57,
                "velocity": 51,
                "duration": 0.2181818,
                "tempo": 120.0
            },
            {
                "start_time": 160.1363636,
                "end_time": 160.3477273,
                "pitch": 59,
                "velocity": 51,
                "duration": 0.2113636,
                "tempo": 120.0
            },
            {
                "start_time": 160.3636364,
                "end_time": 160.4636364,
                "pitch": 59,
                "velocity": 51,
                "duration": 0.1,
                "tempo": 120.0
            },
            {
                "start_time": 160.7113636,
                "end_time": 160.9295455,
                "pitch": 59,
                "velocity": 51,
                "duration": 0.2181818,
                "tempo": 120.0
            },
            {
                "start_time": 160.9454545,
                "end_time": 161.1636364,
                "pitch": 59,
                "velocity": 51,
                "duration": 0.2181818,
                "tempo": 120.0
            },
            {
                "start_time": 161.1795455,
                "end_time": 161.3977273,
                "pitch": 59,
                "velocity": 51,
                "duration": 0.2181818,
                "tempo": 120.0
            },
            {
                "start_time": 161.5318182,
                "end_time": 161.6295455,
                "pitch": 59,
                "velocity": 51,
                "duration": 0.0977273,
                "tempo": 120.0
            },
            {
                "start_time": 161.6454545,
                "end_time": 161.7431818,
                "pitch": 59,
                "velocity": 51,
                "duration": 0.0977273,
                "tempo": 120.0
            },
            {
                "start_time": 161.7613636,
                "end_time": 161.9727273,
                "pitch": 57,
                "velocity": 51,
                "duration": 0.2113636,
                "tempo": 120.0
            },
            {
                "start_time": 161.9886364,
                "end_time": 162.2068182,
                "pitch": 57,
                "velocity": 51,
                "duration": 0.2181818,
                "tempo": 120.0
            },
            {
                "start_time": 162.225,
                "end_time": 162.325,
                "pitch": 57,
                "velocity": 51,
                "duration": 0.1,
                "tempo": 120.0
            },
            {
                "start_time": 162.575,
                "end_time": 162.7931818,
                "pitch": 57,
                "velocity": 51,
                "duration": 0.2181818,
                "tempo": 120.0
            },
            {
                "start_time": 162.8113636,
                "end_time": 162.9113636,
                "pitch": 57,
                "velocity": 51,
                "duration": 0.1,
                "tempo": 120.0
            },
            {
                "start_time": 163.0954545,
                "end_time": 163.2295455,
                "pitch": 61,
                "velocity": 51,
                "duration": 0.1340909,
                "tempo": 120.0
            },
            {
                "start_time": 163.2454545,
                "end_time": 163.3795455,
                "pitch": 61,
                "velocity": 51,
                "duration": 0.1340909,
                "tempo": 120.0
            },
            {
                "start_time": 163.3977273,
                "end_time": 163.5477273,
                "pitch": 61,
                "velocity": 51,
                "duration": 0.15,
                "tempo": 120.0
            },
            {
                "start_time": 163.5636364,
                "end_time": 163.6977273,
                "pitch": 61,
                "velocity": 51,
                "duration": 0.1340909,
                "tempo": 120.0
            },
            {
                "start_time": 163.7159091,
                "end_time": 163.85,
                "pitch": 61,
                "velocity": 51,
                "duration": 0.1340909,
                "tempo": 120.0
            },
            {
                "start_time": 163.8659091,
                "end_time": 164.0795455,
                "pitch": 59,
                "velocity": 51,
                "duration": 0.2136364,
                "tempo": 120.0
            },
            {
                "start_time": 164.0954545,
                "end_time": 164.1931818,
                "pitch": 59,
                "velocity": 51,
                "duration": 0.0977273,
                "tempo": 120.0
            },
            {
                "start_time": 164.4386364,
                "end_time": 164.6522727,
                "pitch": 59,
                "velocity": 51,
                "duration": 0.2136364,
                "tempo": 120.0
            },
            {
                "start_time": 164.6681818,
                "end_time": 164.8818182,
                "pitch": 59,
                "velocity": 51,
                "duration": 0.2136364,
                "tempo": 120.0
            },
            {
                "start_time": 164.9,
                "end_time": 165.1181818,
                "pitch": 59,
                "velocity": 51,
                "duration": 0.2181818,
                "tempo": 120.0
            },
            {
                "start_time": 165.2522727,
                "end_time": 165.3522727,
                "pitch": 59,
                "velocity": 51,
                "duration": 0.1,
                "tempo": 120.0
            },
            {
                "start_time": 165.3681818,
                "end_time": 165.4681818,
                "pitch": 59,
                "velocity": 51,
                "duration": 0.1,
                "tempo": 120.0
            },
            {
                "start_time": 165.4863636,
                "end_time": 165.7045455,
                "pitch": 57,
                "velocity": 51,
                "duration": 0.2181818,
                "tempo": 120.0
            },
            {
                "start_time": 165.7204545,
                "end_time": 165.9318182,
                "pitch": 57,
                "velocity": 51,
                "duration": 0.2113636,
                "tempo": 120.0
            },
            {
                "start_time": 165.95,
                "end_time": 166.0477273,
                "pitch": 57,
                "velocity": 51,
                "duration": 0.0977273,
                "tempo": 120.0
            },
            {
                "start_time": 166.2954545,
                "end_time": 166.5136364,
                "pitch": 57,
                "velocity": 51,
                "duration": 0.2181818,
                "tempo": 120.0
            },
            {
                "start_time": 166.5295455,
                "end_time": 166.7477273,
                "pitch": 57,
                "velocity": 51,
                "duration": 0.2181818,
                "tempo": 120.0
            },
            {
                "start_time": 166.7636364,
                "end_time": 166.9818182,
                "pitch": 57,
                "velocity": 51,
                "duration": 0.2181818,
                "tempo": 120.0
            },
            {
                "start_time": 167.1159091,
                "end_time": 167.2136364,
                "pitch": 57,
                "velocity": 51,
                "duration": 0.0977273,
                "tempo": 120.0
            },
            {
                "start_time": 167.2318182,
                "end_time": 167.3295455,
                "pitch": 57,
                "velocity": 51,
                "duration": 0.0977273,
                "tempo": 120.0
            },
            {
                "start_time": 167.3454545,
                "end_time": 167.5590909,
                "pitch": 57,
                "velocity": 51,
                "duration": 0.2136364,
                "tempo": 120.0
            },
            {
                "start_time": 167.575,
                "end_time": 167.7931818,
                "pitch": 59,
                "velocity": 51,
                "duration": 0.2181818,
                "tempo": 120.0
            },
            {
                "start_time": 167.8090909,
                "end_time": 167.9090909,
                "pitch": 59,
                "velocity": 51,
                "duration": 0.1,
                "tempo": 120.0
            },
            {
                "start_time": 168.1613636,
                "end_time": 168.3795455,
                "pitch": 59,
                "velocity": 51,
                "duration": 0.2181818,
                "tempo": 120.0
            },
            {
                "start_time": 168.3954545,
                "end_time": 168.6136364,
                "pitch": 59,
                "velocity": 51,
                "duration": 0.2181818,
                "tempo": 120.0
            },
            {
                "start_time": 168.6295455,
                "end_time": 168.8477273,
                "pitch": 59,
                "velocity": 51,
                "duration": 0.2181818,
                "tempo": 120.0
            },
            {
                "start_time": 168.9818182,
                "end_time": 169.0795455,
                "pitch": 59,
                "velocity": 51,
                "duration": 0.0977273,
                "tempo": 120.0
            },
            {
                "start_time": 169.0954545,
                "end_time": 169.1954545,
                "pitch": 59,
                "velocity": 51,
                "duration": 0.1,
                "tempo": 120.0
            },
            {
                "start_time": 169.2113636,
                "end_time": 169.4227273,
                "pitch": 57,
                "velocity": 51,
                "duration": 0.2113636,
                "tempo": 120.0
            },
            {
                "start_time": 169.4409091,
                "end_time": 169.6568182,
                "pitch": 57,
                "velocity": 51,
                "duration": 0.2159091,
                "tempo": 120.0
            },
            {
                "start_time": 169.675,
                "end_time": 169.775,
                "pitch": 57,
                "velocity": 51,
                "duration": 0.1,
                "tempo": 120.0
            },
            {
                "start_time": 170.0227273,
                "end_time": 170.2363636,
                "pitch": 57,
                "velocity": 51,
                "duration": 0.2136364,
                "tempo": 120.0
            },
            {
                "start_time": 170.2522727,
                "end_time": 170.4681818,
                "pitch": 57,
                "velocity": 51,
                "duration": 0.2159091,
                "tempo": 120.0
            },
            {
                "start_time": 170.4840909,
                "end_time": 170.7022727,
                "pitch": 57,
                "velocity": 51,
                "duration": 0.2181818,
                "tempo": 120.0
            },
            {
                "start_time": 170.8363636,
                "end_time": 170.9363636,
                "pitch": 61,
                "velocity": 51,
                "duration": 0.1,
                "tempo": 120.0
            },
            {
                "start_time": 170.9522727,
                "end_time": 171.0545455,
                "pitch": 61,
                "velocity": 51,
                "duration": 0.1022727,
                "tempo": 120.0
            },
            {
                "start_time": 171.0704545,
                "end_time": 171.2886364,
                "pitch": 57,
                "velocity": 51,
                "duration": 0.2181818,
                "tempo": 120.0
            },
            {
                "start_time": 171.3045455,
                "end_time": 171.5181818,
                "pitch": 59,
                "velocity": 51,
                "duration": 0.2136364,
                "tempo": 120.0
            },
            {
                "start_time": 171.5340909,
                "end_time": 171.6318182,
                "pitch": 59,
                "velocity": 51,
                "duration": 0.0977273,
                "tempo": 120.0
            },
            {
                "start_time": 171.8795455,
                "end_time": 172.0977273,
                "pitch": 59,
                "velocity": 51,
                "duration": 0.2181818,
                "tempo": 120.0
            },
            {
                "start_time": 172.1159091,
                "end_time": 172.3295455,
                "pitch": 59,
                "velocity": 51,
                "duration": 0.2136364,
                "tempo": 120.0
            },
            {
                "start_time": 172.3454545,
                "end_time": 172.5590909,
                "pitch": 59,
                "velocity": 51,
                "duration": 0.2136364,
                "tempo": 120.0
            },
            {
                "start_time": 172.6909091,
                "end_time": 172.7909091,
                "pitch": 59,
                "velocity": 51,
                "duration": 0.1,
                "tempo": 120.0
            },
            {
                "start_time": 172.8068182,
                "end_time": 172.9090909,
                "pitch": 59,
                "velocity": 51,
                "duration": 0.1022727,
                "tempo": 120.0
            },
            {
                "start_time": 172.925,
                "end_time": 173.1431818,
                "pitch": 57,
                "velocity": 51,
                "duration": 0.2181818,
                "tempo": 120.0
            },
            {
                "start_time": 173.1590909,
                "end_time": 173.3772727,
                "pitch": 57,
                "velocity": 51,
                "duration": 0.2181818,
                "tempo": 120.0
            },
            {
                "start_time": 173.3931818,
                "end_time": 173.4931818,
                "pitch": 57,
                "velocity": 51,
                "duration": 0.1,
                "tempo": 120.0
            },
            {
                "start_time": 173.7454545,
                "end_time": 173.9636364,
                "pitch": 57,
                "velocity": 51,
                "duration": 0.2181818,
                "tempo": 120.0
            },
            {
                "start_time": 173.9795455,
                "end_time": 174.1954545,
                "pitch": 57,
                "velocity": 51,
                "duration": 0.2159091,
                "tempo": 120.0
            },
            {
                "start_time": 174.2113636,
                "end_time": 174.425,
                "pitch": 57,
                "velocity": 51,
                "duration": 0.2136364,
                "tempo": 120.0
            },
            {
                "start_time": 174.5545455,
                "end_time": 174.6568182,
                "pitch": 57,
                "velocity": 51,
                "duration": 0.1022727,
                "tempo": 120.0
            },
            {
                "start_time": 174.6727273,
                "end_time": 174.7727273,
                "pitch": 57,
                "velocity": 51,
                "duration": 0.1,
                "tempo": 120.0
            },
            {
                "start_time": 174.7909091,
                "end_time": 175.0068182,
                "pitch": 57,
                "velocity": 51,
                "duration": 0.2159091,
                "tempo": 120.0
            },
            {
                "start_time": 175.025,
                "end_time": 175.2431818,
                "pitch": 59,
                "velocity": 51,
                "duration": 0.2181818,
                "tempo": 120.0
            },
            {
                "start_time": 175.2590909,
                "end_time": 175.3590909,
                "pitch": 59,
                "velocity": 51,
                "duration": 0.1,
                "tempo": 120.0
            },
            {
                "start_time": 175.6068182,
                "end_time": 175.8204545,
                "pitch": 59,
                "velocity": 51,
                "duration": 0.2136364,
                "tempo": 120.0
            },
            {
                "start_time": 175.8363636,
                "end_time": 176.0522727,
                "pitch": 59,
                "velocity": 51,
                "duration": 0.2159091,
                "tempo": 120.0
            },
            {
                "start_time": 176.0681818,
                "end_time": 176.2863636,
                "pitch": 59,
                "velocity": 51,
                "duration": 0.2181818,
                "tempo": 120.0
            },
            {
                "start_time": 176.4204545,
                "end_time": 176.5204545,
                "pitch": 59,
                "velocity": 51,
                "duration": 0.1,
                "tempo": 120.0
            },
            {
                "start_time": 176.5386364,
                "end_time": 176.6386364,
                "pitch": 59,
                "velocity": 51,
                "duration": 0.1,
                "tempo": 120.0
            },
            {
                "start_time": 176.6545455,
                "end_time": 176.8727273,
                "pitch": 57,
                "velocity": 51,
                "duration": 0.2181818,
                "tempo": 120.0
            },
            {
                "start_time": 176.8886364,
                "end_time": 177.1022727,
                "pitch": 57,
                "velocity": 51,
                "duration": 0.2136364,
                "tempo": 120.0
            },
            {
                "start_time": 177.1181818,
                "end_time": 177.2159091,
                "pitch": 57,
                "velocity": 51,
                "duration": 0.0977273,
                "tempo": 120.0
            },
            {
                "start_time": 177.4659091,
                "end_time": 177.6818182,
                "pitch": 57,
                "velocity": 51,
                "duration": 0.2159091,
                "tempo": 120.0
            },
            {
                "start_time": 177.7,
                "end_time": 177.8,
                "pitch": 57,
                "velocity": 51,
                "duration": 0.1,
                "tempo": 120.0
            },
            {
                "start_time": 177.975,
                "end_time": 178.1045455,
                "pitch": 61,
                "velocity": 51,
                "duration": 0.1295455,
                "tempo": 120.0
            },
            {
                "start_time": 178.1204545,
                "end_time": 178.2477273,
                "pitch": 61,
                "velocity": 51,
                "duration": 0.1272727,
                "tempo": 120.0
            },
            {
                "start_time": 178.2636364,
                "end_time": 178.4204545,
                "pitch": 61,
                "velocity": 51,
                "duration": 0.1568182,
                "tempo": 120.0
            },
            {
                "start_time": 178.4386364,
                "end_time": 178.5772727,
                "pitch": 61,
                "velocity": 51,
                "duration": 0.1386364,
                "tempo": 120.0
            },
            {
                "start_time": 178.5954545,
                "end_time": 178.7340909,
                "pitch": 61,
                "velocity": 51,
                "duration": 0.1386364,
                "tempo": 120.0
            },
            {
                "start_time": 178.7522727,
                "end_time": 178.9636364,
                "pitch": 59,
                "velocity": 51,
                "duration": 0.2113636,
                "tempo": 120.0
            },
            {
                "start_time": 178.9795455,
                "end_time": 179.0795455,
                "pitch": 59,
                "velocity": 51,
                "duration": 0.1,
                "tempo": 120.0
            },
            {
                "start_time": 179.3272727,
                "end_time": 179.5454545,
                "pitch": 59,
                "velocity": 51,
                "duration": 0.2181818,
                "tempo": 120.0
            },
            {
                "start_time": 179.5613636,
                "end_time": 179.7772727,
                "pitch": 59,
                "velocity": 51,
                "duration": 0.2159091,
                "tempo": 120.0
            }
        ],
        "Acoustic Bass": [
            {
                "start_time": 0.0,
                "end_time": 0.2840909,
                "pitch": 40,
                "velocity": 80,
                "duration": 0.2840909,
                "tempo": 120.0
            },
            {
                "start_time": 0.2977273,
                "end_time": 0.5136364,
                "pitch": 47,
                "velocity": 80,
                "duration": 0.2159091,
                "tempo": 120.0
            },
            {
                "start_time": 0.5318182,
                "end_time": 0.7477273,
                "pitch": 38,
                "velocity": 80,
                "duration": 0.2159091,
                "tempo": 120.0
            },
            {
                "start_time": 0.7659091,
                "end_time": 1.1,
                "pitch": 37,
                "velocity": 80,
                "duration": 0.3340909,
                "tempo": 120.0
            },
            {
                "start_time": 1.1181818,
                "end_time": 1.3318182,
                "pitch": 45,
                "velocity": 80,
                "duration": 0.2136364,
                "tempo": 120.0
            },
            {
                "start_time": 1.35,
                "end_time": 1.4477273,
                "pitch": 45,
                "velocity": 80,
                "duration": 0.0977273,
                "tempo": 120.0
            },
            {
                "start_time": 1.4636364,
                "end_time": 1.5613636,
                "pitch": 37,
                "velocity": 80,
                "duration": 0.0977273,
                "tempo": 120.0
            },
            {
                "start_time": 1.5772727,
                "end_time": 1.7909091,
                "pitch": 38,
                "velocity": 80,
                "duration": 0.2136364,
                "tempo": 120.0
            },
            {
                "start_time": 1.8068182,
                "end_time": 2.1340909,
                "pitch": 40,
                "velocity": 80,
                "duration": 0.3272727,
                "tempo": 120.0
            },
            {
                "start_time": 2.15,
                "end_time": 2.3727273,
                "pitch": 47,
                "velocity": 80,
                "duration": 0.2227273,
                "tempo": 120.0
            },
            {
                "start_time": 2.3886364,
                "end_time": 2.6090909,
                "pitch": 38,
                "velocity": 80,
                "duration": 0.2204545,
                "tempo": 120.0
            },
            {
                "start_time": 2.6272727,
                "end_time": 2.725,
                "pitch": 37,
                "velocity": 80,
                "duration": 0.0977273,
                "tempo": 120.0
            },
            {
                "start_time": 3.6613636,
                "end_time": 3.9954545,
                "pitch": 40,
                "velocity": 80,
                "duration": 0.3340909,
                "tempo": 120.0
            },
            {
                "start_time": 4.0113636,
                "end_time": 4.2295455,
                "pitch": 47,
                "velocity": 80,
                "duration": 0.2181818,
                "tempo": 120.0
            },
            {
                "start_time": 4.2477273,
                "end_time": 4.4636364,
                "pitch": 38,
                "velocity": 80,
                "duration": 0.2159091,
                "tempo": 120.0
            },
            {
                "start_time": 4.4818182,
                "end_time": 4.8159091,
                "pitch": 37,
                "velocity": 80,
                "duration": 0.3340909,
                "tempo": 120.0
            },
            {
                "start_time": 4.8340909,
                "end_time": 5.0477273,
                "pitch": 45,
                "velocity": 80,
                "duration": 0.2136364,
                "tempo": 120.0
            },
            {
                "start_time": 5.0659091,
                "end_time": 5.1636364,
                "pitch": 45,
                "velocity": 80,
                "duration": 0.0977273,
                "tempo": 120.0
            },
            {
                "start_time": 5.1795455,
                "end_time": 5.2772727,
                "pitch": 37,
                "velocity": 80,
                "duration": 0.0977273,
                "tempo": 120.0
            },
            {
                "start_time": 5.2931818,
                "end_time": 5.5090909,
                "pitch": 38,
                "velocity": 80,
                "duration": 0.2159091,
                "tempo": 120.0
            },
            {
                "start_time": 5.525,
                "end_time": 5.8613636,
                "pitch": 40,
                "velocity": 80,
                "duration": 0.3363636,
                "tempo": 120.0
            },
            {
                "start_time": 5.8772727,
                "end_time": 6.0954545,
                "pitch": 47,
                "velocity": 80,
                "duration": 0.2181818,
                "tempo": 120.0
            },
            {
                "start_time": 6.1113636,
                "end_time": 6.3295455,
                "pitch": 38,
                "velocity": 80,
                "duration": 0.2181818,
                "tempo": 120.0
            },
            {
                "start_time": 6.3477273,
                "end_time": 6.4477273,
                "pitch": 37,
                "velocity": 80,
                "duration": 0.1,
                "tempo": 120.0
            },
            {
                "start_time": 6.6977273,
                "end_time": 6.9181818,
                "pitch": 37,
                "velocity": 80,
                "duration": 0.2204545,
                "tempo": 120.0
            },
            {
                "start_time": 6.9363636,
                "end_time": 7.1863636,
                "pitch": 38,
                "velocity": 80,
                "duration": 0.25,
                "tempo": 120.0
            },
            {
                "start_time": 7.2045455,
                "end_time": 7.4545455,
                "pitch": 39,
                "velocity": 80,
                "duration": 0.25,
                "tempo": 120.0
            },
            {
                "start_time": 7.475,
                "end_time": 7.8295455,
                "pitch": 40,
                "velocity": 80,
                "duration": 0.3545455,
                "tempo": 120.0
            },
            {
                "start_time": 7.8454545,
                "end_time": 8.0704545,
                "pitch": 47,
                "velocity": 80,
                "duration": 0.225,
                "tempo": 120.0
            },
            {
                "start_time": 8.0886364,
                "end_time": 8.3068182,
                "pitch": 38,
                "velocity": 80,
                "duration": 0.2181818,
                "tempo": 120.0
            },
            {
                "start_time": 8.3227273,
                "end_time": 8.6522727,
                "pitch": 37,
                "velocity": 80,
                "duration": 0.3295455,
                "tempo": 120.0
            },
            {
                "start_time": 8.6681818,
                "end_time": 8.8818182,
                "pitch": 45,
                "velocity": 80,
                "duration": 0.2136364,
                "tempo": 120.0
            },
            {
                "start_time": 8.8977273,
                "end_time": 8.9977273,
                "pitch": 45,
                "velocity": 80,
                "duration": 0.1,
                "tempo": 120.0
            },
            {
                "start_time": 9.0159091,
                "end_time": 9.1159091,
                "pitch": 37,
                "velocity": 80,
                "duration": 0.1,
                "tempo": 120.0
            },
            {
                "start_time": 9.1318182,
                "end_time": 9.35,
                "pitch": 38,
                "velocity": 80,
                "duration": 0.2181818,
                "tempo": 120.0
            },
            {
                "start_time": 9.3681818,
                "end_time": 9.7022727,
                "pitch": 40,
                "velocity": 80,
                "duration": 0.3340909,
                "tempo": 120.0
            },
            {
                "start_time": 9.7181818,
                "end_time": 9.9340909,
                "pitch": 47,
                "velocity": 80,
                "duration": 0.2159091,
                "tempo": 120.0
            },
            {
                "start_time": 9.95,
                "end_time": 10.1636364,
                "pitch": 38,
                "velocity": 80,
                "duration": 0.2136364,
                "tempo": 120.0
            },
            {
                "start_time": 10.1795455,
                "end_time": 10.2772727,
                "pitch": 37,
                "velocity": 80,
                "duration": 0.0977273,
                "tempo": 120.0
            },
            {
                "start_time": 11.2227273,
                "end_time": 11.5568182,
                "pitch": 40,
                "velocity": 80,
                "duration": 0.3340909,
                "tempo": 120.0
            },
            {
                "start_time": 11.5727273,
                "end_time": 11.7886364,
                "pitch": 47,
                "velocity": 80,
                "duration": 0.2159091,
                "tempo": 120.0
            },
            {
                "start_time": 11.8045455,
                "end_time": 12.0181818,
                "pitch": 38,
                "velocity": 80,
                "duration": 0.2136364,
                "tempo": 120.0
            },
            {
                "start_time": 12.0340909,
                "end_time": 12.3659091,
                "pitch": 37,
                "velocity": 80,
                "duration": 0.3318182,
                "tempo": 120.0
            },
            {
                "start_time": 12.3840909,
                "end_time": 12.6,
                "pitch": 45,
                "velocity": 80,
                "duration": 0.2159091,
                "tempo": 120.0
            },
            {
                "start_time": 12.6181818,
                "end_time": 12.7204545,
                "pitch": 45,
                "velocity": 80,
                "duration": 0.1022727,
                "tempo": 120.0
            },
            {
                "start_time": 12.7363636,
                "end_time": 12.8386364,
                "pitch": 37,
                "velocity": 80,
                "duration": 0.1022727,
                "tempo": 120.0
            },
            {
                "start_time": 12.8568182,
                "end_time": 13.0772727,
                "pitch": 38,
                "velocity": 80,
                "duration": 0.2204545,
                "tempo": 120.0
            },
            {
                "start_time": 13.0931818,
                "end_time": 13.4295455,
                "pitch": 40,
                "velocity": 80,
                "duration": 0.3363636,
                "tempo": 120.0
            },
            {
                "start_time": 13.4454545,
                "end_time": 13.6590909,
                "pitch": 47,
                "velocity": 80,
                "duration": 0.2136364,
                "tempo": 120.0
            },
            {
                "start_time": 13.675,
                "end_time": 13.8840909,
                "pitch": 38,
                "velocity": 80,
                "duration": 0.2090909,
                "tempo": 120.0
            },
            {
                "start_time": 13.9,
                "end_time": 13.9954545,
                "pitch": 37,
                "velocity": 80,
                "duration": 0.0954545,
                "tempo": 120.0
            },
            {
                "start_time": 14.95,
                "end_time": 15.2772727,
                "pitch": 40,
                "velocity": 80,
                "duration": 0.3272727,
                "tempo": 120.0
            },
            {
                "start_time": 15.2931818,
                "end_time": 15.5068182,
                "pitch": 47,
                "velocity": 80,
                "duration": 0.2136364,
                "tempo": 120.0
            },
            {
                "start_time": 15.525,
                "end_time": 15.7431818,
                "pitch": 38,
                "velocity": 80,
                "duration": 0.2181818,
                "tempo": 120.0
            },
            {
                "start_time": 15.7590909,
                "end_time": 16.0931818,
                "pitch": 37,
                "velocity": 80,
                "duration": 0.3340909,
                "tempo": 120.0
            },
            {
                "start_time": 16.1113636,
                "end_time": 16.3295455,
                "pitch": 45,
                "velocity": 80,
                "duration": 0.2181818,
                "tempo": 120.0
            },
            {
                "start_time": 16.3454545,
                "end_time": 16.4431818,
                "pitch": 45,
                "velocity": 80,
                "duration": 0.0977273,
                "tempo": 120.0
            },
            {
                "start_time": 16.4590909,
                "end_time": 16.5590909,
                "pitch": 37,
                "velocity": 80,
                "duration": 0.1,
                "tempo": 120.0
            },
            {
                "start_time": 16.575,
                "end_time": 16.7863636,
                "pitch": 38,
                "velocity": 80,
                "duration": 0.2113636,
                "tempo": 120.0
            },
            {
                "start_time": 16.8045455,
                "end_time": 17.1386364,
                "pitch": 40,
                "velocity": 80,
                "duration": 0.3340909,
                "tempo": 120.0
            },
            {
                "start_time": 17.1545455,
                "end_time": 17.3727273,
                "pitch": 47,
                "velocity": 80,
                "duration": 0.2181818,
                "tempo": 120.0
            },
            {
                "start_time": 17.3909091,
                "end_time": 17.6068182,
                "pitch": 38,
                "velocity": 80,
                "duration": 0.2159091,
                "tempo": 120.0
            },
            {
                "start_time": 17.625,
                "end_time": 17.725,
                "pitch": 37,
                "velocity": 80,
                "duration": 0.1,
                "tempo": 120.0
            },
            {
                "start_time": 18.6681818,
                "end_time": 18.9954545,
                "pitch": 40,
                "velocity": 80,
                "duration": 0.3272727,
                "tempo": 120.0
            },
            {
                "start_time": 19.0113636,
                "end_time": 19.2272727,
                "pitch": 47,
                "velocity": 80,
                "duration": 0.2159091,
                "tempo": 120.0
            },
            {
                "start_time": 19.2431818,
                "end_time": 19.4613636,
                "pitch": 38,
                "velocity": 80,
                "duration": 0.2181818,
                "tempo": 120.0
            },
            {
                "start_time": 19.4795455,
                "end_time": 19.8181818,
                "pitch": 37,
                "velocity": 80,
                "duration": 0.3386364,
                "tempo": 120.0
            },
            {
                "start_time": 19.8363636,
                "end_time": 20.0590909,
                "pitch": 45,
                "velocity": 80,
                "duration": 0.2227273,
                "tempo": 120.0
            },
            {
                "start_time": 20.0772727,
                "end_time": 20.175,
                "pitch": 45,
                "velocity": 80,
                "duration": 0.0977273,
                "tempo": 120.0
            },
            {
                "start_time": 20.1909091,
                "end_time": 20.2886364,
                "pitch": 37,
                "velocity": 80,
                "duration": 0.0977273,
                "tempo": 120.0
            },
            {
                "start_time": 20.3045455,
                "end_time": 20.5181818,
                "pitch": 38,
                "velocity": 80,
                "duration": 0.2136364,
                "tempo": 120.0
            },
            {
                "start_time": 20.5340909,
                "end_time": 20.8704545,
                "pitch": 40,
                "velocity": 80,
                "duration": 0.3363636,
                "tempo": 120.0
            },
            {
                "start_time": 20.8863636,
                "end_time": 21.1022727,
                "pitch": 47,
                "velocity": 80,
                "duration": 0.2159091,
                "tempo": 120.0
            },
            {
                "start_time": 21.1181818,
                "end_time": 21.3318182,
                "pitch": 38,
                "velocity": 80,
                "duration": 0.2136364,
                "tempo": 120.0
            },
            {
                "start_time": 21.3477273,
                "end_time": 21.4454545,
                "pitch": 37,
                "velocity": 80,
                "duration": 0.0977273,
                "tempo": 120.0
            },
            {
                "start_time": 22.4,
                "end_time": 22.7181818,
                "pitch": 40,
                "velocity": 80,
                "duration": 0.3181818,
                "tempo": 120.0
            },
            {
                "start_time": 22.7340909,
                "end_time": 22.95,
                "pitch": 47,
                "velocity": 80,
                "duration": 0.2159091,
                "tempo": 120.0
            },
            {
                "start_time": 22.9659091,
                "end_time": 23.1909091,
                "pitch": 38,
                "velocity": 80,
                "duration": 0.225,
                "tempo": 120.0
            },
            {
                "start_time": 23.2068182,
                "end_time": 23.5454545,
                "pitch": 37,
                "velocity": 80,
                "duration": 0.3386364,
                "tempo": 120.0
            },
            {
                "start_time": 23.5613636,
                "end_time": 23.7795455,
                "pitch": 45,
                "velocity": 80,
                "duration": 0.2181818,
                "tempo": 120.0
            },
            {
                "start_time": 23.7954545,
                "end_time": 23.8954545,
                "pitch": 45,
                "velocity": 80,
                "duration": 0.1,
                "tempo": 120.0
            },
            {
                "start_time": 23.9113636,
                "end_time": 24.0090909,
                "pitch": 37,
                "velocity": 80,
                "duration": 0.0977273,
                "tempo": 120.0
            },
            {
                "start_time": 24.025,
                "end_time": 24.2386364,
                "pitch": 38,
                "velocity": 80,
                "duration": 0.2136364,
                "tempo": 120.0
            },
            {
                "start_time": 24.2545455,
                "end_time": 24.5886364,
                "pitch": 40,
                "velocity": 80,
                "duration": 0.3340909,
                "tempo": 120.0
            },
            {
                "start_time": 24.6068182,
                "end_time": 24.8227273,
                "pitch": 47,
                "velocity": 80,
                "duration": 0.2159091,
                "tempo": 120.0
            },
            {
                "start_time": 24.8386364,
                "end_time": 25.05,
                "pitch": 38,
                "velocity": 80,
                "duration": 0.2113636,
                "tempo": 120.0
            },
            {
                "start_time": 25.0681818,
                "end_time": 25.1659091,
                "pitch": 37,
                "velocity": 80,
                "duration": 0.0977273,
                "tempo": 120.0
            },
            {
                "start_time": 26.1204545,
                "end_time": 26.4477273,
                "pitch": 40,
                "velocity": 80,
                "duration": 0.3272727,
                "tempo": 120.0
            },
            {
                "start_time": 26.4636364,
                "end_time": 26.6772727,
                "pitch": 47,
                "velocity": 80,
                "duration": 0.2136364,
                "tempo": 120.0
            },
            {
                "start_time": 26.6954545,
                "end_time": 26.9136364,
                "pitch": 38,
                "velocity": 80,
                "duration": 0.2181818,
                "tempo": 120.0
            },
            {
                "start_time": 26.9295455,
                "end_time": 27.2636364,
                "pitch": 37,
                "velocity": 80,
                "duration": 0.3340909,
                "tempo": 120.0
            },
            {
                "start_time": 27.2818182,
                "end_time": 27.5,
                "pitch": 45,
                "velocity": 80,
                "duration": 0.2181818,
                "tempo": 120.0
            },
            {
                "start_time": 27.5159091,
                "end_time": 27.6136364,
                "pitch": 45,
                "velocity": 80,
                "duration": 0.0977273,
                "tempo": 120.0
            },
            {
                "start_time": 27.6295455,
                "end_time": 27.7295455,
                "pitch": 37,
                "velocity": 80,
                "duration": 0.1,
                "tempo": 120.0
            },
            {
                "start_time": 27.7454545,
                "end_time": 27.9568182,
                "pitch": 38,
                "velocity": 80,
                "duration": 0.2113636,
                "tempo": 120.0
            },
            {
                "start_time": 27.975,
                "end_time": 28.3090909,
                "pitch": 40,
                "velocity": 80,
                "duration": 0.3340909,
                "tempo": 120.0
            },
            {
                "start_time": 28.325,
                "end_time": 28.5431818,
                "pitch": 47,
                "velocity": 80,
                "duration": 0.2181818,
                "tempo": 120.0
            },
            {
                "start_time": 28.5613636,
                "end_time": 28.7772727,
                "pitch": 38,
                "velocity": 80,
                "duration": 0.2159091,
                "tempo": 120.0
            },
            {
                "start_time": 28.7954545,
                "end_time": 28.8954545,
                "pitch": 37,
                "velocity": 80,
                "duration": 0.1,
                "tempo": 120.0
            },
            {
                "start_time": 31.5954545,
                "end_time": 34.4772727,
                "pitch": 35,
                "velocity": 80,
                "duration": 2.8818182,
                "tempo": 120.0
            },
            {
                "start_time": 34.6113636,
                "end_time": 34.7113636,
                "pitch": 43,
                "velocity": 80,
                "duration": 0.1,
                "tempo": 120.0
            },
            {
                "start_time": 34.8454545,
                "end_time": 34.9454545,
                "pitch": 42,
                "velocity": 80,
                "duration": 0.1,
                "tempo": 120.0
            },
            {
                "start_time": 35.0772727,
                "end_time": 35.175,
                "pitch": 35,
                "velocity": 80,
                "duration": 0.0977273,
                "tempo": 120.0
            },
            {
                "start_time": 35.3068182,
                "end_time": 35.4045455,
                "pitch": 38,
                "velocity": 80,
                "duration": 0.0977273,
                "tempo": 120.0
            },
            {
                "start_time": 35.4204545,
                "end_time": 35.7568182,
                "pitch": 40,
                "velocity": 80,
                "duration": 0.3363636,
                "tempo": 120.0
            },
            {
                "start_time": 35.7727273,
                "end_time": 35.8727273,
                "pitch": 40,
                "velocity": 80,
                "duration": 0.1,
                "tempo": 120.0
            },
            {
                "start_time": 36.125,
                "end_time": 36.3431818,
                "pitch": 40,
                "velocity": 80,
                "duration": 0.2181818,
                "tempo": 120.0
            },
            {
                "start_time": 36.5886364,
                "end_time": 36.6863636,
                "pitch": 38,
                "velocity": 80,
                "duration": 0.0977273,
                "tempo": 120.0
            },
            {
                "start_time": 36.8181818,
                "end_time": 37.0295455,
                "pitch": 40,
                "velocity": 80,
                "duration": 0.2113636,
                "tempo": 120.0
            },
            {
                "start_time": 37.275,
                "end_time": 37.6113636,
                "pitch": 40,
                "velocity": 80,
                "duration": 0.3363636,
                "tempo": 120.0
            },
            {
                "start_time": 37.6272727,
                "end_time": 37.7272727,
                "pitch": 40,
                "velocity": 80,
                "duration": 0.1,
                "tempo": 120.0
            },
            {
                "start_time": 37.9795455,
                "end_time": 38.1977273,
                "pitch": 40,
                "velocity": 80,
                "duration": 0.2181818,
                "tempo": 120.0
            },
            {
                "start_time": 38.4477273,
                "end_time": 38.5477273,
                "pitch": 38,
                "velocity": 80,
                "duration": 0.1,
                "tempo": 120.0
            },
            {
                "start_time": 38.6818182,
                "end_time": 38.8954545,
                "pitch": 40,
                "velocity": 80,
                "duration": 0.2136364,
                "tempo": 120.0
            },
            {
                "start_time": 38.9113636,
                "end_time": 39.125,
                "pitch": 35,
                "velocity": 80,
                "duration": 0.2136364,
                "tempo": 120.0
            },
            {
                "start_time": 39.1409091,
                "end_time": 39.475,
                "pitch": 40,
                "velocity": 80,
                "duration": 0.3340909,
                "tempo": 120.0
            },
            {
                "start_time": 39.4931818,
                "end_time": 39.5931818,
                "pitch": 40,
                "velocity": 80,
                "duration": 0.1,
                "tempo": 120.0
            },
            {
                "start_time": 39.8454545,
                "end_time": 40.0613636,
                "pitch": 40,
                "velocity": 80,
                "duration": 0.2159091,
                "tempo": 120.0
            },
            {
                "start_time": 40.3136364,
                "end_time": 40.4136364,
                "pitch": 38,
                "velocity": 80,
                "duration": 0.1,
                "tempo": 120.0
            },
            {
                "start_time": 40.5477273,
                "end_time": 40.7613636,
                "pitch": 40,
                "velocity": 80,
                "duration": 0.2136364,
                "tempo": 120.0
            },
            {
                "start_time": 41.0068182,
                "end_time": 41.3409091,
                "pitch": 40,
                "velocity": 80,
                "duration": 0.3340909,
                "tempo": 120.0
            },
            {
                "start_time": 41.3568182,
                "end_time": 41.4590909,
                "pitch": 40,
                "velocity": 80,
                "duration": 0.1022727,
                "tempo": 120.0
            },
            {
                "start_time": 41.7045455,
                "end_time": 41.9159091,
                "pitch": 40,
                "velocity": 80,
                "duration": 0.2113636,
                "tempo": 120.0
            },
            {
                "start_time": 42.1681818,
                "end_time": 42.2681818,
                "pitch": 38,
                "velocity": 80,
                "duration": 0.1,
                "tempo": 120.0
            },
            {
                "start_time": 42.4022727,
                "end_time": 42.6159091,
                "pitch": 40,
                "velocity": 80,
                "duration": 0.2136364,
                "tempo": 120.0
            },
            {
                "start_time": 42.8613636,
                "end_time": 43.1954545,
                "pitch": 40,
                "velocity": 80,
                "duration": 0.3340909,
                "tempo": 120.0
            },
            {
                "start_time": 43.2113636,
                "end_time": 43.3136364,
                "pitch": 35,
                "velocity": 80,
                "duration": 0.1022727,
                "tempo": 120.0
            },
            {
                "start_time": 43.3295455,
                "end_time": 43.6636364,
                "pitch": 35,
                "velocity": 80,
                "duration": 0.3340909,
                "tempo": 120.0
            },
            {
                "start_time": 43.6818182,
                "end_time": 43.7818182,
                "pitch": 40,
                "velocity": 80,
                "duration": 0.1,
                "tempo": 120.0
            },
            {
                "start_time": 43.7977273,
                "end_time": 44.1340909,
                "pitch": 40,
                "velocity": 80,
                "duration": 0.3363636,
                "tempo": 120.0
            },
            {
                "start_time": 44.15,
                "end_time": 44.25,
                "pitch": 35,
                "velocity": 80,
                "duration": 0.1,
                "tempo": 120.0
            },
            {
                "start_time": 44.2681818,
                "end_time": 44.4840909,
                "pitch": 35,
                "velocity": 80,
                "duration": 0.2159091,
                "tempo": 120.0
            },
            {
                "start_time": 44.5022727,
                "end_time": 44.6022727,
                "pitch": 38,
                "velocity": 80,
                "duration": 0.1,
                "tempo": 120.0
            },
            {
                "start_time": 44.6181818,
                "end_time": 44.7204545,
                "pitch": 40,
                "velocity": 80,
                "duration": 0.1022727,
                "tempo": 120.0
            },
            {
                "start_time": 44.7363636,
                "end_time": 45.0636364,
                "pitch": 38,
                "velocity": 80,
                "duration": 0.3272727,
                "tempo": 120.0
            },
            {
                "start_time": 45.0795455,
                "end_time": 45.1772727,
                "pitch": 33,
                "velocity": 80,
                "duration": 0.0977273,
                "tempo": 120.0
            },
            {
                "start_time": 45.1954545,
                "end_time": 45.5295455,
                "pitch": 33,
                "velocity": 80,
                "duration": 0.3340909,
                "tempo": 120.0
            },
            {
                "start_time": 45.5454545,
                "end_time": 45.6477273,
                "pitch": 38,
                "velocity": 80,
                "duration": 0.1022727,
                "tempo": 120.0
            },
            {
                "start_time": 45.6636364,
                "end_time": 45.9909091,
                "pitch": 38,
                "velocity": 80,
                "duration": 0.3272727,
                "tempo": 120.0
            },
            {
                "start_time": 46.0068182,
                "end_time": 46.1045455,
                "pitch": 33,
                "velocity": 80,
                "duration": 0.0977273,
                "tempo": 120.0
            },
            {
                "start_time": 46.1227273,
                "end_time": 46.2227273,
                "pitch": 33,
                "velocity": 80,
                "duration": 0.1,
                "tempo": 120.0
            },
            {
                "start_time": 46.2386364,
                "end_time": 46.3386364,
                "pitch": 40,
                "velocity": 80,
                "duration": 0.1,
                "tempo": 120.0
            },
            {
                "start_time": 46.3568182,
                "end_time": 46.4568182,
                "pitch": 38,
                "velocity": 80,
                "duration": 0.1,
                "tempo": 120.0
            },
            {
                "start_time": 46.4727273,
                "end_time": 46.575,
                "pitch": 37,
                "velocity": 80,
                "duration": 0.1022727,
                "tempo": 120.0
            },
            {
                "start_time": 46.5909091,
                "end_time": 46.925,
                "pitch": 38,
                "velocity": 80,
                "duration": 0.3340909,
                "tempo": 120.0
            },
            {
                "start_time": 46.9431818,
                "end_time": 47.0431818,
                "pitch": 33,
                "velocity": 80,
                "duration": 0.1,
                "tempo": 120.0
            },
            {
                "start_time": 47.0590909,
                "end_time": 47.3954545,
                "pitch": 33,
                "velocity": 80,
                "duration": 0.3363636,
                "tempo": 120.0
            },
            {
                "start_time": 47.4113636,
                "end_time": 47.5113636,
                "pitch": 38,
                "velocity": 80,
                "duration": 0.1,
                "tempo": 120.0
            },
            {
                "start_time": 47.5295455,
                "end_time": 47.8568182,
                "pitch": 38,
                "velocity": 80,
                "duration": 0.3272727,
                "tempo": 120.0
            },
            {
                "start_time": 47.8727273,
                "end_time": 47.9704545,
                "pitch": 33,
                "velocity": 80,
                "duration": 0.0977273,
                "tempo": 120.0
            },
            {
                "start_time": 47.9863636,
                "end_time": 48.2045455,
                "pitch": 33,
                "velocity": 80,
                "duration": 0.2181818,
                "tempo": 120.0
            },
            {
                "start_time": 48.2204545,
                "end_time": 48.3227273,
                "pitch": 38,
                "velocity": 80,
                "duration": 0.1022727,
                "tempo": 120.0
            },
            {
                "start_time": 48.3386364,
                "end_time": 48.4386364,
                "pitch": 39,
                "velocity": 80,
                "duration": 0.1,
                "tempo": 120.0
            },
            {
                "start_time": 48.4568182,
                "end_time": 48.7840909,
                "pitch": 40,
                "velocity": 80,
                "duration": 0.3272727,
                "tempo": 120.0
            },
            {
                "start_time": 48.8,
                "end_time": 48.8977273,
                "pitch": 35,
                "velocity": 80,
                "duration": 0.0977273,
                "tempo": 120.0
            },
            {
                "start_time": 48.9136364,
                "end_time": 49.25,
                "pitch": 35,
                "velocity": 80,
                "duration": 0.3363636,
                "tempo": 120.0
            },
            {
                "start_time": 49.2659091,
                "end_time": 49.3659091,
                "pitch": 40,
                "velocity": 80,
                "duration": 0.1,
                "tempo": 120.0
            },
            {
                "start_time": 49.3840909,
                "end_time": 49.7181818,
                "pitch": 40,
                "velocity": 80,
                "duration": 0.3340909,
                "tempo": 120.0
            },
            {
                "start_time": 49.7340909,
                "end_time": 49.8363636,
                "pitch": 35,
                "velocity": 80,
                "duration": 0.1022727,
                "tempo": 120.0
            },
            {
                "start_time": 49.8522727,
                "end_time": 50.0636364,
                "pitch": 35,
                "velocity": 80,
                "duration": 0.2113636,
                "tempo": 120.0
            },
            {
                "start_time": 50.0818182,
                "end_time": 50.1795455,
                "pitch": 38,
                "velocity": 80,
                "duration": 0.0977273,
                "tempo": 120.0
            },
            {
                "start_time": 50.1954545,
                "end_time": 50.2931818,
                "pitch": 40,
                "velocity": 80,
                "duration": 0.0977273,
                "tempo": 120.0
            },
            {
                "start_time": 50.3090909,
                "end_time": 50.6454545,
                "pitch": 40,
                "velocity": 80,
                "duration": 0.3363636,
                "tempo": 120.0
            },
            {
                "start_time": 50.6613636,
                "end_time": 50.7613636,
                "pitch": 35,
                "velocity": 80,
                "duration": 0.1,
                "tempo": 120.0
            },
            {
                "start_time": 50.7795455,
                "end_time": 51.1136364,
                "pitch": 35,
                "velocity": 80,
                "duration": 0.3340909,
                "tempo": 120.0
            },
            {
                "start_time": 51.1318182,
                "end_time": 51.2318182,
                "pitch": 40,
                "velocity": 80,
                "duration": 0.1,
                "tempo": 120.0
            },
            {
                "start_time": 51.2477273,
                "end_time": 51.575,
                "pitch": 40,
                "velocity": 80,
                "duration": 0.3272727,
                "tempo": 120.0
            },
            {
                "start_time": 51.5909091,
                "end_time": 51.6909091,
                "pitch": 35,
                "velocity": 80,
                "duration": 0.1,
                "tempo": 120.0
            },
            {
                "start_time": 51.7068182,
                "end_time": 51.9295455,
                "pitch": 35,
                "velocity": 80,
                "duration": 0.2227273,
                "tempo": 120.0
            },
            {
                "start_time": 51.9454545,
                "end_time": 52.05,
                "pitch": 38,
                "velocity": 80,
                "duration": 0.1045455,
                "tempo": 120.0
            },
            {
                "start_time": 52.0659091,
                "end_time": 52.1681818,
                "pitch": 40,
                "velocity": 80,
                "duration": 0.1022727,
                "tempo": 120.0
            },
            {
                "start_time": 52.1863636,
                "end_time": 52.5136364,
                "pitch": 38,
                "velocity": 80,
                "duration": 0.3272727,
                "tempo": 120.0
            },
            {
                "start_time": 52.5295455,
                "end_time": 52.6272727,
                "pitch": 33,
                "velocity": 80,
                "duration": 0.0977273,
                "tempo": 120.0
            },
            {
                "start_time": 52.6454545,
                "end_time": 52.9795455,
                "pitch": 33,
                "velocity": 80,
                "duration": 0.3340909,
                "tempo": 120.0
            },
            {
                "start_time": 52.9954545,
                "end_time": 53.0977273,
                "pitch": 38,
                "velocity": 80,
                "duration": 0.1022727,
                "tempo": 120.0
            },
            {
                "start_time": 53.1136364,
                "end_time": 53.4409091,
                "pitch": 38,
                "velocity": 80,
                "duration": 0.3272727,
                "tempo": 120.0
            },
            {
                "start_time": 53.4568182,
                "end_time": 53.5545455,
                "pitch": 43,
                "velocity": 80,
                "duration": 0.0977273,
                "tempo": 120.0
            },
            {
                "start_time": 53.5727273,
                "end_time": 53.6727273,
                "pitch": 43,
                "velocity": 80,
                "duration": 0.1,
                "tempo": 120.0
            },
            {
                "start_time": 53.6886364,
                "end_time": 53.7886364,
                "pitch": 42,
                "velocity": 80,
                "duration": 0.1,
                "tempo": 120.0
            },
            {
                "start_time": 53.8068182,
                "end_time": 54.0227273,
                "pitch": 38,
                "velocity": 80,
                "duration": 0.2159091,
                "tempo": 120.0
            },
            {
                "start_time": 54.0409091,
                "end_time": 54.3681818,
                "pitch": 38,
                "velocity": 80,
                "duration": 0.3272727,
                "tempo": 120.0
            },
            {
                "start_time": 54.3840909,
                "end_time": 54.4818182,
                "pitch": 33,
                "velocity": 80,
                "duration": 0.0977273,
                "tempo": 120.0
            },
            {
                "start_time": 54.4977273,
                "end_time": 54.8340909,
                "pitch": 33,
                "velocity": 80,
                "duration": 0.3363636,
                "tempo": 120.0
            },
            {
                "start_time": 54.85,
                "end_time": 54.95,
                "pitch": 38,
                "velocity": 80,
                "duration": 0.1,
                "tempo": 120.0
            },
            {
                "start_time": 54.9681818,
                "end_time": 55.3022727,
                "pitch": 38,
                "velocity": 80,
                "duration": 0.3340909,
                "tempo": 120.0
            },
            {
                "start_time": 55.3204545,
                "end_time": 55.4204545,
                "pitch": 33,
                "velocity": 80,
                "duration": 0.1,
                "tempo": 120.0
            },
            {
                "start_time": 55.4363636,
                "end_time": 55.6545455,
                "pitch": 33,
                "velocity": 80,
                "duration": 0.2181818,
                "tempo": 120.0
            },
            {
                "start_time": 55.6704545,
                "end_time": 55.7727273,
                "pitch": 38,
                "velocity": 80,
                "duration": 0.1022727,
                "tempo": 120.0
            },
            {
                "start_time": 55.7886364,
                "end_time": 55.8886364,
                "pitch": 39,
                "velocity": 80,
                "duration": 0.1,
                "tempo": 120.0
            },
            {
                "start_time": 55.9068182,
                "end_time": 56.0045455,
                "pitch": 40,
                "velocity": 80,
                "duration": 0.0977273,
                "tempo": 120.0
            },
            {
                "start_time": 56.0204545,
                "end_time": 56.1181818,
                "pitch": 40,
                "velocity": 80,
                "duration": 0.0977273,
                "tempo": 120.0
            },
            {
                "start_time": 56.1340909,
                "end_time": 56.2340909,
                "pitch": 40,
                "velocity": 80,
                "duration": 0.1,
                "tempo": 120.0
            },
            {
                "start_time": 56.5977273,
                "end_time": 56.7,
                "pitch": 40,
                "velocity": 80,
                "duration": 0.1022727,
                "tempo": 120.0
            },
            {
                "start_time": 56.7159091,
                "end_time": 56.8159091,
                "pitch": 40,
                "velocity": 80,
                "duration": 0.1,
                "tempo": 120.0
            },
            {
                "start_time": 56.8318182,
                "end_time": 56.9340909,
                "pitch": 40,
                "velocity": 80,
                "duration": 0.1022727,
                "tempo": 120.0
            },
            {
                "start_time": 57.7590909,
                "end_time": 58.0954545,
                "pitch": 36,
                "velocity": 80,
                "duration": 0.3363636,
                "tempo": 120.0
            },
            {
                "start_time": 58.1113636,
                "end_time": 58.2113636,
                "pitch": 43,
                "velocity": 80,
                "duration": 0.1,
                "tempo": 120.0
            },
            {
                "start_time": 58.2295455,
                "end_time": 58.3272727,
                "pitch": 43,
                "velocity": 80,
                "duration": 0.0977273,
                "tempo": 120.0
            },
            {
                "start_time": 58.3431818,
                "end_time": 58.5568182,
                "pitch": 48,
                "velocity": 80,
                "duration": 0.2136364,
                "tempo": 120.0
            },
            {
                "start_time": 58.5727273,
                "end_time": 58.6704545,
                "pitch": 43,
                "velocity": 80,
                "duration": 0.0977273,
                "tempo": 120.0
            },
            {
                "start_time": 58.6863636,
                "end_time": 59.0227273,
                "pitch": 38,
                "velocity": 80,
                "duration": 0.3363636,
                "tempo": 120.0
            },
            {
                "start_time": 59.0386364,
                "end_time": 59.1386364,
                "pitch": 45,
                "velocity": 80,
                "duration": 0.1,
                "tempo": 120.0
            },
            {
                "start_time": 59.1568182,
                "end_time": 59.2568182,
                "pitch": 45,
                "velocity": 80,
                "duration": 0.1,
                "tempo": 120.0
            },
            {
                "start_time": 59.2727273,
                "end_time": 59.4909091,
                "pitch": 50,
                "velocity": 80,
                "duration": 0.2181818,
                "tempo": 120.0
            },
            {
                "start_time": 59.5090909,
                "end_time": 59.6090909,
                "pitch": 45,
                "velocity": 80,
                "duration": 0.1,
                "tempo": 120.0
            },
            {
                "start_time": 59.625,
                "end_time": 59.9522727,
                "pitch": 40,
                "velocity": 80,
                "duration": 0.3272727,
                "tempo": 120.0
            },
            {
                "start_time": 59.9681818,
                "end_time": 60.0659091,
                "pitch": 47,
                "velocity": 80,
                "duration": 0.0977273,
                "tempo": 120.0
            },
            {
                "start_time": 60.0840909,
                "end_time": 60.1840909,
                "pitch": 47,
                "velocity": 80,
                "duration": 0.1,
                "tempo": 120.0
            },
            {
                "start_time": 60.2,
                "end_time": 60.4181818,
                "pitch": 52,
                "velocity": 80,
                "duration": 0.2181818,
                "tempo": 120.0
            },
            {
                "start_time": 60.4340909,
                "end_time": 60.65,
                "pitch": 50,
                "velocity": 80,
                "duration": 0.2159091,
                "tempo": 120.0
            },
            {
                "start_time": 60.6659091,
                "end_time": 60.7659091,
                "pitch": 47,
                "velocity": 80,
                "duration": 0.1,
                "tempo": 120.0
            },
            {
                "start_time": 60.7818182,
                "end_time": 60.8795455,
                "pitch": 47,
                "velocity": 80,
                "duration": 0.0977273,
                "tempo": 120.0
            },
            {
                "start_time": 60.8954545,
                "end_time": 60.9931818,
                "pitch": 54,
                "velocity": 80,
                "duration": 0.0977273,
                "tempo": 120.0
            },
            {
                "start_time": 61.0113636,
                "end_time": 61.4636364,
                "pitch": 52,
                "velocity": 80,
                "duration": 0.4522727,
                "tempo": 120.0
            },
            {
                "start_time": 61.4795455,
                "end_time": 61.8136364,
                "pitch": 36,
                "velocity": 80,
                "duration": 0.3340909,
                "tempo": 120.0
            },
            {
                "start_time": 61.8318182,
                "end_time": 61.9318182,
                "pitch": 43,
                "velocity": 80,
                "duration": 0.1,
                "tempo": 120.0
            },
            {
                "start_time": 61.9477273,
                "end_time": 62.05,
                "pitch": 43,
                "velocity": 80,
                "duration": 0.1022727,
                "tempo": 120.0
            },
            {
                "start_time": 62.0659091,
                "end_time": 62.2840909,
                "pitch": 48,
                "velocity": 80,
                "duration": 0.2181818,
                "tempo": 120.0
            },
            {
                "start_time": 62.3,
                "end_time": 62.4,
                "pitch": 43,
                "velocity": 80,
                "duration": 0.1,
                "tempo": 120.0
            },
            {
                "start_time": 62.4181818,
                "end_time": 62.7454545,
                "pitch": 38,
                "velocity": 80,
                "duration": 0.3272727,
                "tempo": 120.0
            },
            {
                "start_time": 62.7613636,
                "end_time": 62.8590909,
                "pitch": 45,
                "velocity": 80,
                "duration": 0.0977273,
                "tempo": 120.0
            },
            {
                "start_time": 62.875,
                "end_time": 62.9772727,
                "pitch": 45,
                "velocity": 80,
                "duration": 0.1022727,
                "tempo": 120.0
            },
            {
                "start_time": 62.9931818,
                "end_time": 63.2113636,
                "pitch": 50,
                "velocity": 80,
                "duration": 0.2181818,
                "tempo": 120.0
            },
            {
                "start_time": 63.2272727,
                "end_time": 63.3272727,
                "pitch": 45,
                "velocity": 80,
                "duration": 0.1,
                "tempo": 120.0
            },
            {
                "start_time": 63.3454545,
                "end_time": 63.6795455,
                "pitch": 40,
                "velocity": 80,
                "duration": 0.3340909,
                "tempo": 120.0
            },
            {
                "start_time": 63.6954545,
                "end_time": 63.7977273,
                "pitch": 47,
                "velocity": 80,
                "duration": 0.1022727,
                "tempo": 120.0
            },
            {
                "start_time": 63.8136364,
                "end_time": 63.9113636,
                "pitch": 47,
                "velocity": 80,
                "duration": 0.0977273,
                "tempo": 120.0
            },
            {
                "start_time": 63.9272727,
                "end_time": 64.1409091,
                "pitch": 54,
                "velocity": 80,
                "duration": 0.2136364,
                "tempo": 120.0
            },
            {
                "start_time": 64.1568182,
                "end_time": 64.4886364,
                "pitch": 52,
                "velocity": 80,
                "duration": 0.3318182,
                "tempo": 120.0
            },
            {
                "start_time": 64.5068182,
                "end_time": 64.725,
                "pitch": 52,
                "velocity": 80,
                "duration": 0.2181818,
                "tempo": 120.0
            },
            {
                "start_time": 64.7409091,
                "end_time": 64.9590909,
                "pitch": 52,
                "velocity": 80,
                "duration": 0.2181818,
                "tempo": 120.0
            },
            {
                "start_time": 64.975,
                "end_time": 65.1931818,
                "pitch": 50,
                "velocity": 80,
                "duration": 0.2181818,
                "tempo": 120.0
            },
            {
                "start_time": 65.2090909,
                "end_time": 65.5363636,
                "pitch": 36,
                "velocity": 80,
                "duration": 0.3272727,
                "tempo": 120.0
            },
            {
                "start_time": 65.5545455,
                "end_time": 65.6522727,
                "pitch": 43,
                "velocity": 80,
                "duration": 0.0977273,
                "tempo": 120.0
            },
            {
                "start_time": 65.6681818,
                "end_time": 65.7681818,
                "pitch": 43,
                "velocity": 80,
                "duration": 0.1,
                "tempo": 120.0
            },
            {
                "start_time": 65.7863636,
                "end_time": 66.0022727,
                "pitch": 48,
                "velocity": 80,
                "duration": 0.2159091,
                "tempo": 120.0
            },
            {
                "start_time": 66.0204545,
                "end_time": 66.1204545,
                "pitch": 43,
                "velocity": 80,
                "duration": 0.1,
                "tempo": 120.0
            },
            {
                "start_time": 66.1363636,
                "end_time": 66.4727273,
                "pitch": 38,
                "velocity": 80,
                "duration": 0.3363636,
                "tempo": 120.0
            },
            {
                "start_time": 66.4886364,
                "end_time": 66.5886364,
                "pitch": 45,
                "velocity": 80,
                "duration": 0.1,
                "tempo": 120.0
            },
            {
                "start_time": 66.6068182,
                "end_time": 66.7045455,
                "pitch": 45,
                "velocity": 80,
                "duration": 0.0977273,
                "tempo": 120.0
            },
            {
                "start_time": 66.7204545,
                "end_time": 66.9340909,
                "pitch": 50,
                "velocity": 80,
                "duration": 0.2136364,
                "tempo": 120.0
            },
            {
                "start_time": 66.95,
                "end_time": 67.0477273,
                "pitch": 45,
                "velocity": 80,
                "duration": 0.0977273,
                "tempo": 120.0
            },
            {
                "start_time": 67.0636364,
                "end_time": 67.4,
                "pitch": 40,
                "velocity": 80,
                "duration": 0.3363636,
                "tempo": 120.0
            },
            {
                "start_time": 67.4159091,
                "end_time": 67.5159091,
                "pitch": 47,
                "velocity": 80,
                "duration": 0.1,
                "tempo": 120.0
            },
            {
                "start_time": 67.5340909,
                "end_time": 67.6340909,
                "pitch": 47,
                "velocity": 80,
                "duration": 0.1,
                "tempo": 120.0
            },
            {
                "start_time": 67.65,
                "end_time": 67.8681818,
                "pitch": 52,
                "velocity": 80,
                "duration": 0.2181818,
                "tempo": 120.0
            },
            {
                "start_time": 67.8840909,
                "end_time": 68.1,
                "pitch": 50,
                "velocity": 80,
                "duration": 0.2159091,
                "tempo": 120.0
            },
            {
                "start_time": 68.1159091,
                "end_time": 68.2159091,
                "pitch": 47,
                "velocity": 80,
                "duration": 0.1,
                "tempo": 120.0
            },
            {
                "start_time": 68.2318182,
                "end_time": 68.3295455,
                "pitch": 47,
                "velocity": 80,
                "duration": 0.0977273,
                "tempo": 120.0
            },
            {
                "start_time": 68.3454545,
                "end_time": 68.4431818,
                "pitch": 54,
                "velocity": 80,
                "duration": 0.0977273,
                "tempo": 120.0
            },
            {
                "start_time": 68.4613636,
                "end_time": 68.9136364,
                "pitch": 52,
                "velocity": 80,
                "duration": 0.4522727,
                "tempo": 120.0
            },
            {
                "start_time": 68.9295455,
                "end_time": 69.2636364,
                "pitch": 36,
                "velocity": 80,
                "duration": 0.3340909,
                "tempo": 120.0
            },
            {
                "start_time": 69.2818182,
                "end_time": 69.3818182,
                "pitch": 43,
                "velocity": 80,
                "duration": 0.1,
                "tempo": 120.0
            },
            {
                "start_time": 69.3977273,
                "end_time": 69.4954545,
                "pitch": 43,
                "velocity": 80,
                "duration": 0.0977273,
                "tempo": 120.0
            },
            {
                "start_time": 69.5136364,
                "end_time": 69.725,
                "pitch": 48,
                "velocity": 80,
                "duration": 0.2113636,
                "tempo": 120.0
            },
            {
                "start_time": 69.7409091,
                "end_time": 69.8409091,
                "pitch": 43,
                "velocity": 80,
                "duration": 0.1,
                "tempo": 120.0
            },
            {
                "start_time": 69.8568182,
                "end_time": 70.1909091,
                "pitch": 38,
                "velocity": 80,
                "duration": 0.3340909,
                "tempo": 120.0
            },
            {
                "start_time": 70.2090909,
                "end_time": 70.3090909,
                "pitch": 45,
                "velocity": 80,
                "duration": 0.1,
                "tempo": 120.0
            },
            {
                "start_time": 70.325,
                "end_time": 70.425,
                "pitch": 45,
                "velocity": 80,
                "duration": 0.1,
                "tempo": 120.0
            },
            {
                "start_time": 70.4431818,
                "end_time": 70.6613636,
                "pitch": 50,
                "velocity": 80,
                "duration": 0.2181818,
                "tempo": 120.0
            },
            {
                "start_time": 70.6772727,
                "end_time": 70.7772727,
                "pitch": 45,
                "velocity": 80,
                "duration": 0.1,
                "tempo": 120.0
            },
            {
                "start_time": 70.7954545,
                "end_time": 71.1227273,
                "pitch": 40,
                "velocity": 80,
                "duration": 0.3272727,
                "tempo": 120.0
            },
            {
                "start_time": 71.1386364,
                "end_time": 71.2363636,
                "pitch": 47,
                "velocity": 80,
                "duration": 0.0977273,
                "tempo": 120.0
            },
            {
                "start_time": 71.2522727,
                "end_time": 71.3522727,
                "pitch": 47,
                "velocity": 80,
                "duration": 0.1,
                "tempo": 120.0
            },
            {
                "start_time": 71.3704545,
                "end_time": 71.5886364,
                "pitch": 54,
                "velocity": 80,
                "duration": 0.2181818,
                "tempo": 120.0
            },
            {
                "start_time": 71.6045455,
                "end_time": 71.9386364,
                "pitch": 52,
                "velocity": 80,
                "duration": 0.3340909,
                "tempo": 120.0
            },
            {
                "start_time": 71.9568182,
                "end_time": 72.175,
                "pitch": 52,
                "velocity": 80,
                "duration": 0.2181818,
                "tempo": 120.0
            },
            {
                "start_time": 72.1909091,
                "end_time": 72.4045455,
                "pitch": 52,
                "velocity": 80,
                "duration": 0.2136364,
                "tempo": 120.0
            },
            {
                "start_time": 72.4204545,
                "end_time": 72.6318182,
                "pitch": 50,
                "velocity": 80,
                "duration": 0.2113636,
                "tempo": 120.0
            },
            {
                "start_time": 72.65,
                "end_time": 72.8659091,
                "pitch": 52,
                "velocity": 80,
                "duration": 0.2159091,
                "tempo": 120.0
            },
            {
                "start_time": 76.3681818,
                "end_time": 76.7045455,
                "pitch": 40,
                "velocity": 80,
                "duration": 0.3363636,
                "tempo": 120.0
            },
            {
                "start_time": 76.7204545,
                "end_time": 76.8204545,
                "pitch": 40,
                "velocity": 80,
                "duration": 0.1,
                "tempo": 120.0
            },
            {
                "start_time": 77.0727273,
                "end_time": 77.2909091,
                "pitch": 40,
                "velocity": 80,
                "duration": 0.2181818,
                "tempo": 120.0
            },
            {
                "start_time": 77.5409091,
                "end_time": 77.6409091,
                "pitch": 38,
                "velocity": 80,
                "duration": 0.1,
                "tempo": 120.0
            },
            {
                "start_time": 77.775,
                "end_time": 77.9886364,
                "pitch": 40,
                "velocity": 80,
                "duration": 0.2136364,
                "tempo": 120.0
            },
            {
                "start_time": 78.2340909,
                "end_time": 78.5681818,
                "pitch": 40,
                "velocity": 80,
                "duration": 0.3340909,
                "tempo": 120.0
            },
            {
                "start_time": 78.5863636,
                "end_time": 78.6863636,
                "pitch": 40,
                "velocity": 80,
                "duration": 0.1,
                "tempo": 120.0
            },
            {
                "start_time": 78.9386364,
                "end_time": 79.1545455,
                "pitch": 40,
                "velocity": 80,
                "duration": 0.2159091,
                "tempo": 120.0
            },
            {
                "start_time": 79.4068182,
                "end_time": 79.5068182,
                "pitch": 38,
                "velocity": 80,
                "duration": 0.1,
                "tempo": 120.0
            },
            {
                "start_time": 79.6409091,
                "end_time": 79.8545455,
                "pitch": 40,
                "velocity": 80,
                "duration": 0.2136364,
                "tempo": 120.0
            },
            {
                "start_time": 79.8704545,
                "end_time": 80.0840909,
                "pitch": 35,
                "velocity": 80,
                "duration": 0.2136364,
                "tempo": 120.0
            },
            {
                "start_time": 80.1,
                "end_time": 80.4272727,
                "pitch": 40,
                "velocity": 80,
                "duration": 0.3272727,
                "tempo": 120.0
            },
            {
                "start_time": 80.4431818,
                "end_time": 80.5409091,
                "pitch": 40,
                "velocity": 80,
                "duration": 0.0977273,
                "tempo": 120.0
            },
            {
                "start_time": 80.7931818,
                "end_time": 81.0090909,
                "pitch": 40,
                "velocity": 80,
                "duration": 0.2159091,
                "tempo": 120.0
            },
            {
                "start_time": 81.2613636,
                "end_time": 81.3613636,
                "pitch": 38,
                "velocity": 80,
                "duration": 0.1,
                "tempo": 120.0
            },
            {
                "start_time": 81.4954545,
                "end_time": 81.7090909,
                "pitch": 40,
                "velocity": 80,
                "duration": 0.2136364,
                "tempo": 120.0
            },
            {
                "start_time": 81.9545455,
                "end_time": 82.2886364,
                "pitch": 40,
                "velocity": 80,
                "duration": 0.3340909,
                "tempo": 120.0
            },
            {
                "start_time": 82.3045455,
                "end_time": 82.4068182,
                "pitch": 40,
                "velocity": 80,
                "duration": 0.1022727,
                "tempo": 120.0
            },
            {
                "start_time": 82.6568182,
                "end_time": 82.875,
                "pitch": 40,
                "velocity": 80,
                "duration": 0.2181818,
                "tempo": 120.0
            },
            {
                "start_time": 83.1272727,
                "end_time": 83.2272727,
                "pitch": 38,
                "velocity": 80,
                "duration": 0.1,
                "tempo": 120.0
            },
            {
                "start_time": 83.3613636,
                "end_time": 83.5727273,
                "pitch": 40,
                "velocity": 80,
                "duration": 0.2113636,
                "tempo": 120.0
            },
            {
                "start_time": 83.8181818,
                "end_time": 84.1545455,
                "pitch": 40,
                "velocity": 80,
                "duration": 0.3363636,
                "tempo": 120.0
            },
            {
                "start_time": 84.1704545,
                "end_time": 84.2704545,
                "pitch": 35,
                "velocity": 80,
                "duration": 0.1,
                "tempo": 120.0
            },
            {
                "start_time": 84.2886364,
                "end_time": 84.6227273,
                "pitch": 35,
                "velocity": 80,
                "duration": 0.3340909,
                "tempo": 120.0
            },
            {
                "start_time": 84.6386364,
                "end_time": 84.7409091,
                "pitch": 40,
                "velocity": 80,
                "duration": 0.1022727,
                "tempo": 120.0
            },
            {
                "start_time": 84.7568182,
                "end_time": 85.0840909,
                "pitch": 40,
                "velocity": 80,
                "duration": 0.3272727,
                "tempo": 120.0
            },
            {
                "start_time": 85.1,
                "end_time": 85.1977273,
                "pitch": 35,
                "velocity": 80,
                "duration": 0.0977273,
                "tempo": 120.0
            },
            {
                "start_time": 85.2159091,
                "end_time": 85.4318182,
                "pitch": 35,
                "velocity": 80,
                "duration": 0.2159091,
                "tempo": 120.0
            },
            {
                "start_time": 85.45,
                "end_time": 85.55,
                "pitch": 38,
                "velocity": 80,
                "duration": 0.1,
                "tempo": 120.0
            },
            {
                "start_time": 85.5659091,
                "end_time": 85.6681818,
                "pitch": 40,
                "velocity": 80,
                "duration": 0.1022727,
                "tempo": 120.0
            },
            {
                "start_time": 85.6840909,
                "end_time": 86.0181818,
                "pitch": 38,
                "velocity": 80,
                "duration": 0.3340909,
                "tempo": 120.0
            },
            {
                "start_time": 86.0363636,
                "end_time": 86.1363636,
                "pitch": 33,
                "velocity": 80,
                "duration": 0.1,
                "tempo": 120.0
            },
            {
                "start_time": 86.1522727,
                "end_time": 86.4886364,
                "pitch": 33,
                "velocity": 80,
                "duration": 0.3363636,
                "tempo": 120.0
            },
            {
                "start_time": 86.5045455,
                "end_time": 86.6045455,
                "pitch": 38,
                "velocity": 80,
                "duration": 0.1,
                "tempo": 120.0
            },
            {
                "start_time": 86.6227273,
                "end_time": 86.95,
                "pitch": 38,
                "velocity": 80,
                "duration": 0.3272727,
                "tempo": 120.0
            },
            {
                "start_time": 86.9659091,
                "end_time": 87.0636364,
                "pitch": 33,
                "velocity": 80,
                "duration": 0.0977273,
                "tempo": 120.0
            },
            {
                "start_time": 87.0795455,
                "end_time": 87.1818182,
                "pitch": 33,
                "velocity": 80,
                "duration": 0.1022727,
                "tempo": 120.0
            },
            {
                "start_time": 87.1977273,
                "end_time": 87.2977273,
                "pitch": 40,
                "velocity": 80,
                "duration": 0.1,
                "tempo": 120.0
            },
            {
                "start_time": 87.3159091,
                "end_time": 87.4159091,
                "pitch": 38,
                "velocity": 80,
                "duration": 0.1,
                "tempo": 120.0
            },
            {
                "start_time": 87.4318182,
                "end_time": 87.5318182,
                "pitch": 37,
                "velocity": 80,
                "duration": 0.1,
                "tempo": 120.0
            },
            {
                "start_time": 87.55,
                "end_time": 87.8772727,
                "pitch": 38,
                "velocity": 80,
                "duration": 0.3272727,
                "tempo": 120.0
            },
            {
                "start_time": 87.8931818,
                "end_time": 87.9909091,
                "pitch": 33,
                "velocity": 80,
                "duration": 0.0977273,
                "tempo": 120.0
            },
            {
                "start_time": 88.0068182,
                "end_time": 88.3431818,
                "pitch": 33,
                "velocity": 80,
                "duration": 0.3363636,
                "tempo": 120.0
            },
            {
                "start_time": 88.3590909,
                "end_time": 88.4590909,
                "pitch": 38,
                "velocity": 80,
                "duration": 0.1,
                "tempo": 120.0
            },
            {
                "start_time": 88.4772727,
                "end_time": 88.8113636,
                "pitch": 38,
                "velocity": 80,
                "duration": 0.3340909,
                "tempo": 120.0
            },
            {
                "start_time": 88.8272727,
                "end_time": 88.9295455,
                "pitch": 33,
                "velocity": 80,
                "duration": 0.1022727,
                "tempo": 120.0
            },
            {
                "start_time": 88.9454545,
                "end_time": 89.1636364,
                "pitch": 33,
                "velocity": 80,
                "duration": 0.2181818,
                "tempo": 120.0
            },
            {
                "start_time": 89.1795455,
                "end_time": 89.2795455,
                "pitch": 38,
                "velocity": 80,
                "duration": 0.1,
                "tempo": 120.0
            },
            {
                "start_time": 89.2977273,
                "end_time": 89.3977273,
                "pitch": 39,
                "velocity": 80,
                "duration": 0.1,
                "tempo": 120.0
            },
            {
                "start_time": 89.4136364,
                "end_time": 89.7409091,
                "pitch": 40,
                "velocity": 80,
                "duration": 0.3272727,
                "tempo": 120.0
            },
            {
                "start_time": 89.7590909,
                "end_time": 89.8568182,
                "pitch": 35,
                "velocity": 80,
                "duration": 0.0977273,
                "tempo": 120.0
            },
            {
                "start_time": 89.8727273,
                "end_time": 90.2068182,
                "pitch": 35,
                "velocity": 80,
                "duration": 0.3340909,
                "tempo": 120.0
            },
            {
                "start_time": 90.225,
                "end_time": 90.325,
                "pitch": 40,
                "velocity": 80,
                "duration": 0.1,
                "tempo": 120.0
            },
            {
                "start_time": 90.3409091,
                "end_time": 90.6681818,
                "pitch": 40,
                "velocity": 80,
                "duration": 0.3272727,
                "tempo": 120.0
            },
            {
                "start_time": 90.6863636,
                "end_time": 90.7840909,
                "pitch": 35,
                "velocity": 80,
                "duration": 0.0977273,
                "tempo": 120.0
            },
            {
                "start_time": 90.8,
                "end_time": 91.0181818,
                "pitch": 35,
                "velocity": 80,
                "duration": 0.2181818,
                "tempo": 120.0
            },
            {
                "start_time": 91.0340909,
                "end_time": 91.1340909,
                "pitch": 38,
                "velocity": 80,
                "duration": 0.1,
                "tempo": 120.0
            },
            {
                "start_time": 91.1522727,
                "end_time": 91.2522727,
                "pitch": 40,
                "velocity": 80,
                "duration": 0.1,
                "tempo": 120.0
            },
            {
                "start_time": 91.2681818,
                "end_time": 91.6045455,
                "pitch": 40,
                "velocity": 80,
                "duration": 0.3363636,
                "tempo": 120.0
            },
            {
                "start_time": 91.6204545,
                "end_time": 91.7204545,
                "pitch": 35,
                "velocity": 80,
                "duration": 0.1,
                "tempo": 120.0
            },
            {
                "start_time": 91.7386364,
                "end_time": 92.0727273,
                "pitch": 35,
                "velocity": 80,
                "duration": 0.3340909,
                "tempo": 120.0
            },
            {
                "start_time": 92.0886364,
                "end_time": 92.1909091,
                "pitch": 40,
                "velocity": 80,
                "duration": 0.1022727,
                "tempo": 120.0
            },
            {
                "start_time": 92.2068182,
                "end_time": 92.5340909,
                "pitch": 40,
                "velocity": 80,
                "duration": 0.3272727,
                "tempo": 120.0
            },
            {
                "start_time": 92.55,
                "end_time": 92.6477273,
                "pitch": 35,
                "velocity": 80,
                "duration": 0.0977273,
                "tempo": 120.0
            },
            {
                "start_time": 92.6659091,
                "end_time": 92.8818182,
                "pitch": 35,
                "velocity": 80,
                "duration": 0.2159091,
                "tempo": 120.0
            },
            {
                "start_time": 92.9,
                "end_time": 93.0,
                "pitch": 38,
                "velocity": 80,
                "duration": 0.1,
                "tempo": 120.0
            },
            {
                "start_time": 93.0159091,
                "end_time": 93.1181818,
                "pitch": 40,
                "velocity": 80,
                "duration": 0.1022727,
                "tempo": 120.0
            },
            {
                "start_time": 93.1340909,
                "end_time": 93.4613636,
                "pitch": 38,
                "velocity": 80,
                "duration": 0.3272727,
                "tempo": 120.0
            },
            {
                "start_time": 93.4772727,
                "end_time": 93.575,
                "pitch": 33,
                "velocity": 80,
                "duration": 0.0977273,
                "tempo": 120.0
            },
            {
                "start_time": 93.5931818,
                "end_time": 93.9272727,
                "pitch": 33,
                "velocity": 80,
                "duration": 0.3340909,
                "tempo": 120.0
            },
            {
                "start_time": 93.9431818,
                "end_time": 94.0454545,
                "pitch": 38,
                "velocity": 80,
                "duration": 0.1022727,
                "tempo": 120.0
            },
            {
                "start_time": 94.0613636,
                "end_time": 94.3954545,
                "pitch": 38,
                "velocity": 80,
                "duration": 0.3340909,
                "tempo": 120.0
            },
            {
                "start_time": 94.4136364,
                "end_time": 94.5136364,
                "pitch": 43,
                "velocity": 80,
                "duration": 0.1,
                "tempo": 120.0
            },
            {
                "start_time": 94.5295455,
                "end_time": 94.6295455,
                "pitch": 43,
                "velocity": 80,
                "duration": 0.1,
                "tempo": 120.0
            },
            {
                "start_time": 94.6477273,
                "end_time": 94.7477273,
                "pitch": 42,
                "velocity": 80,
                "duration": 0.1,
                "tempo": 120.0
            },
            {
                "start_time": 94.7636364,
                "end_time": 94.9818182,
                "pitch": 38,
                "velocity": 80,
                "duration": 0.2181818,
                "tempo": 120.0
            },
            {
                "start_time": 95.0,
                "end_time": 95.3272727,
                "pitch": 38,
                "velocity": 80,
                "duration": 0.3272727,
                "tempo": 120.0
            },
            {
                "start_time": 95.3431818,
                "end_time": 95.4409091,
                "pitch": 33,
                "velocity": 80,
                "duration": 0.0977273,
                "tempo": 120.0
            },
            {
                "start_time": 95.4568182,
                "end_time": 95.7931818,
                "pitch": 33,
                "velocity": 80,
                "duration": 0.3363636,
                "tempo": 120.0
            },
            {
                "start_time": 95.8090909,
                "end_time": 95.9090909,
                "pitch": 38,
                "velocity": 80,
                "duration": 0.1,
                "tempo": 120.0
            },
            {
                "start_time": 95.9272727,
                "end_time": 96.2545455,
                "pitch": 38,
                "velocity": 80,
                "duration": 0.3272727,
                "tempo": 120.0
            },
            {
                "start_time": 96.2704545,
                "end_time": 96.3681818,
                "pitch": 33,
                "velocity": 80,
                "duration": 0.0977273,
                "tempo": 120.0
            },
            {
                "start_time": 96.3840909,
                "end_time": 96.6022727,
                "pitch": 33,
                "velocity": 80,
                "duration": 0.2181818,
                "tempo": 120.0
            },
            {
                "start_time": 96.6181818,
                "end_time": 96.7204545,
                "pitch": 38,
                "velocity": 80,
                "duration": 0.1022727,
                "tempo": 120.0
            },
            {
                "start_time": 96.7363636,
                "end_time": 96.8363636,
                "pitch": 39,
                "velocity": 80,
                "duration": 0.1,
                "tempo": 120.0
            },
            {
                "start_time": 96.8545455,
                "end_time": 96.9545455,
                "pitch": 40,
                "velocity": 80,
                "duration": 0.1,
                "tempo": 120.0
            },
            {
                "start_time": 96.9704545,
                "end_time": 97.0704545,
                "pitch": 40,
                "velocity": 80,
                "duration": 0.1,
                "tempo": 120.0
            },
            {
                "start_time": 97.0886364,
                "end_time": 97.1886364,
                "pitch": 40,
                "velocity": 80,
                "duration": 0.1,
                "tempo": 120.0
            },
            {
                "start_time": 97.5522727,
                "end_time": 97.65,
                "pitch": 40,
                "velocity": 80,
                "duration": 0.0977273,
                "tempo": 120.0
            },
            {
                "start_time": 97.6659091,
                "end_time": 97.7636364,
                "pitch": 40,
                "velocity": 80,
                "duration": 0.0977273,
                "tempo": 120.0
            },
            {
                "start_time": 97.7795455,
                "end_time": 97.8840909,
                "pitch": 40,
                "velocity": 80,
                "duration": 0.1045455,
                "tempo": 120.0
            },
            {
                "start_time": 98.7181818,
                "end_time": 99.0454545,
                "pitch": 36,
                "velocity": 80,
                "duration": 0.3272727,
                "tempo": 120.0
            },
            {
                "start_time": 99.0636364,
                "end_time": 99.1613636,
                "pitch": 43,
                "velocity": 80,
                "duration": 0.0977273,
                "tempo": 120.0
            },
            {
                "start_time": 99.1772727,
                "end_time": 99.2772727,
                "pitch": 43,
                "velocity": 80,
                "duration": 0.1,
                "tempo": 120.0
            },
            {
                "start_time": 99.2954545,
                "end_time": 99.5113636,
                "pitch": 48,
                "velocity": 80,
                "duration": 0.2159091,
                "tempo": 120.0
            },
            {
                "start_time": 99.5295455,
                "end_time": 99.6295455,
                "pitch": 43,
                "velocity": 80,
                "duration": 0.1,
                "tempo": 120.0
            },
            {
                "start_time": 99.6454545,
                "end_time": 99.9818182,
                "pitch": 38,
                "velocity": 80,
                "duration": 0.3363636,
                "tempo": 120.0
            },
            {
                "start_time": 99.9977273,
                "end_time": 100.0977273,
                "pitch": 45,
                "velocity": 80,
                "duration": 0.1,
                "tempo": 120.0
            },
            {
                "start_time": 100.1159091,
                "end_time": 100.2136364,
                "pitch": 45,
                "velocity": 80,
                "duration": 0.0977273,
                "tempo": 120.0
            },
            {
                "start_time": 100.2295455,
                "end_time": 100.4431818,
                "pitch": 50,
                "velocity": 80,
                "duration": 0.2136364,
                "tempo": 120.0
            },
            {
                "start_time": 100.4590909,
                "end_time": 100.5568182,
                "pitch": 45,
                "velocity": 80,
                "duration": 0.0977273,
                "tempo": 120.0
            },
            {
                "start_time": 100.5727273,
                "end_time": 100.9090909,
                "pitch": 40,
                "velocity": 80,
                "duration": 0.3363636,
                "tempo": 120.0
            },
            {
                "start_time": 100.925,
                "end_time": 101.025,
                "pitch": 47,
                "velocity": 80,
                "duration": 0.1,
                "tempo": 120.0
            },
            {
                "start_time": 101.0431818,
                "end_time": 101.1431818,
                "pitch": 47,
                "velocity": 80,
                "duration": 0.1,
                "tempo": 120.0
            },
            {
                "start_time": 101.1590909,
                "end_time": 101.3772727,
                "pitch": 52,
                "velocity": 80,
                "duration": 0.2181818,
                "tempo": 120.0
            },
            {
                "start_time": 101.3931818,
                "end_time": 101.6090909,
                "pitch": 50,
                "velocity": 80,
                "duration": 0.2159091,
                "tempo": 120.0
            },
            {
                "start_time": 101.625,
                "end_time": 101.725,
                "pitch": 47,
                "velocity": 80,
                "duration": 0.1,
                "tempo": 120.0
            },
            {
                "start_time": 101.7409091,
                "end_time": 101.8386364,
                "pitch": 47,
                "velocity": 80,
                "duration": 0.0977273,
                "tempo": 120.0
            },
            {
                "start_time": 101.8545455,
                "end_time": 101.9522727,
                "pitch": 54,
                "velocity": 80,
                "duration": 0.0977273,
                "tempo": 120.0
            },
            {
                "start_time": 101.9704545,
                "end_time": 102.4227273,
                "pitch": 52,
                "velocity": 80,
                "duration": 0.4522727,
                "tempo": 120.0
            },
            {
                "start_time": 102.4386364,
                "end_time": 102.7727273,
                "pitch": 36,
                "velocity": 80,
                "duration": 0.3340909,
                "tempo": 120.0
            },
            {
                "start_time": 102.7909091,
                "end_time": 102.8909091,
                "pitch": 43,
                "velocity": 80,
                "duration": 0.1,
                "tempo": 120.0
            },
            {
                "start_time": 102.9068182,
                "end_time": 103.0045455,
                "pitch": 43,
                "velocity": 80,
                "duration": 0.0977273,
                "tempo": 120.0
            },
            {
                "start_time": 103.0227273,
                "end_time": 103.2340909,
                "pitch": 48,
                "velocity": 80,
                "duration": 0.2113636,
                "tempo": 120.0
            },
            {
                "start_time": 103.25,
                "end_time": 103.35,
                "pitch": 43,
                "velocity": 80,
                "duration": 0.1,
                "tempo": 120.0
            },
            {
                "start_time": 103.3659091,
                "end_time": 103.7,
                "pitch": 38,
                "velocity": 80,
                "duration": 0.3340909,
                "tempo": 120.0
            },
            {
                "start_time": 103.7181818,
                "end_time": 103.8181818,
                "pitch": 45,
                "velocity": 80,
                "duration": 0.1,
                "tempo": 120.0
            },
            {
                "start_time": 103.8340909,
                "end_time": 103.9318182,
                "pitch": 45,
                "velocity": 80,
                "duration": 0.0977273,
                "tempo": 120.0
            },
            {
                "start_time": 103.95,
                "end_time": 104.1613636,
                "pitch": 50,
                "velocity": 80,
                "duration": 0.2113636,
                "tempo": 120.0
            },
            {
                "start_time": 104.1772727,
                "end_time": 104.2772727,
                "pitch": 45,
                "velocity": 80,
                "duration": 0.1,
                "tempo": 120.0
            },
            {
                "start_time": 104.2931818,
                "end_time": 104.6272727,
                "pitch": 40,
                "velocity": 80,
                "duration": 0.3340909,
                "tempo": 120.0
            },
            {
                "start_time": 104.6454545,
                "end_time": 104.7454545,
                "pitch": 47,
                "velocity": 80,
                "duration": 0.1,
                "tempo": 120.0
            },
            {
                "start_time": 104.7613636,
                "end_time": 104.8613636,
                "pitch": 47,
                "velocity": 80,
                "duration": 0.1,
                "tempo": 120.0
            },
            {
                "start_time": 104.8795455,
                "end_time": 105.0977273,
                "pitch": 54,
                "velocity": 80,
                "duration": 0.2181818,
                "tempo": 120.0
            },
            {
                "start_time": 105.1136364,
                "end_time": 105.4431818,
                "pitch": 52,
                "velocity": 80,
                "duration": 0.3295455,
                "tempo": 120.0
            },
            {
                "start_time": 105.4590909,
                "end_time": 105.6727273,
                "pitch": 52,
                "velocity": 80,
                "duration": 0.2136364,
                "tempo": 120.0
            },
            {
                "start_time": 105.6886364,
                "end_time": 105.9068182,
                "pitch": 52,
                "velocity": 80,
                "duration": 0.2181818,
                "tempo": 120.0
            },
            {
                "start_time": 105.9227273,
                "end_time": 106.1409091,
                "pitch": 50,
                "velocity": 80,
                "duration": 0.2181818,
                "tempo": 120.0
            },
            {
                "start_time": 106.1568182,
                "end_time": 106.4931818,
                "pitch": 36,
                "velocity": 80,
                "duration": 0.3363636,
                "tempo": 120.0
            },
            {
                "start_time": 106.5090909,
                "end_time": 106.6090909,
                "pitch": 43,
                "velocity": 80,
                "duration": 0.1,
                "tempo": 120.0
            },
            {
                "start_time": 106.6272727,
                "end_time": 106.7272727,
                "pitch": 43,
                "velocity": 80,
                "duration": 0.1,
                "tempo": 120.0
            },
            {
                "start_time": 106.7431818,
                "end_time": 106.9613636,
                "pitch": 48,
                "velocity": 80,
                "duration": 0.2181818,
                "tempo": 120.0
            },
            {
                "start_time": 106.9795455,
                "end_time": 107.0795455,
                "pitch": 43,
                "velocity": 80,
                "duration": 0.1,
                "tempo": 120.0
            },
            {
                "start_time": 107.0954545,
                "end_time": 107.4227273,
                "pitch": 38,
                "velocity": 80,
                "duration": 0.3272727,
                "tempo": 120.0
            },
            {
                "start_time": 107.4386364,
                "end_time": 107.5386364,
                "pitch": 45,
                "velocity": 80,
                "duration": 0.1,
                "tempo": 120.0
            },
            {
                "start_time": 107.5545455,
                "end_time": 107.6545455,
                "pitch": 45,
                "velocity": 80,
                "duration": 0.1,
                "tempo": 120.0
            },
            {
                "start_time": 107.6704545,
                "end_time": 107.8886364,
                "pitch": 50,
                "velocity": 80,
                "duration": 0.2181818,
                "tempo": 120.0
            },
            {
                "start_time": 107.9068182,
                "end_time": 108.0068182,
                "pitch": 45,
                "velocity": 80,
                "duration": 0.1,
                "tempo": 120.0
            },
            {
                "start_time": 108.0227273,
                "end_time": 108.3590909,
                "pitch": 40,
                "velocity": 80,
                "duration": 0.3363636,
                "tempo": 120.0
            },
            {
                "start_time": 108.375,
                "end_time": 108.475,
                "pitch": 47,
                "velocity": 80,
                "duration": 0.1,
                "tempo": 120.0
            },
            {
                "start_time": 108.4909091,
                "end_time": 108.5909091,
                "pitch": 47,
                "velocity": 80,
                "duration": 0.1,
                "tempo": 120.0
            },
            {
                "start_time": 108.6068182,
                "end_time": 108.8181818,
                "pitch": 52,
                "velocity": 80,
                "duration": 0.2113636,
                "tempo": 120.0
            },
            {
                "start_time": 108.8363636,
                "end_time": 109.05,
                "pitch": 50,
                "velocity": 80,
                "duration": 0.2136364,
                "tempo": 120.0
            },
            {
                "start_time": 109.0681818,
                "end_time": 109.1681818,
                "pitch": 47,
                "velocity": 80,
                "duration": 0.1,
                "tempo": 120.0
            },
            {
                "start_time": 109.1840909,
                "end_time": 109.2863636,
                "pitch": 47,
                "velocity": 80,
                "duration": 0.1022727,
                "tempo": 120.0
            },
            {
                "start_time": 109.3022727,
                "end_time": 109.4022727,
                "pitch": 54,
                "velocity": 80,
                "duration": 0.1,
                "tempo": 120.0
            },
            {
                "start_time": 109.4181818,
                "end_time": 109.8704545,
                "pitch": 52,
                "velocity": 80,
                "duration": 0.4522727,
                "tempo": 120.0
            },
            {
                "start_time": 109.8886364,
                "end_time": 110.2159091,
                "pitch": 36,
                "velocity": 80,
                "duration": 0.3272727,
                "tempo": 120.0
            },
            {
                "start_time": 110.2318182,
                "end_time": 110.3295455,
                "pitch": 43,
                "velocity": 80,
                "duration": 0.0977273,
                "tempo": 120.0
            },
            {
                "start_time": 110.3454545,
                "end_time": 110.4477273,
                "pitch": 43,
                "velocity": 80,
                "duration": 0.1022727,
                "tempo": 120.0
            },
            {
                "start_time": 110.4636364,
                "end_time": 110.6818182,
                "pitch": 48,
                "velocity": 80,
                "duration": 0.2181818,
                "tempo": 120.0
            },
            {
                "start_time": 110.6977273,
                "end_time": 110.7977273,
                "pitch": 43,
                "velocity": 80,
                "duration": 0.1,
                "tempo": 120.0
            },
            {
                "start_time": 110.8159091,
                "end_time": 111.15,
                "pitch": 38,
                "velocity": 80,
                "duration": 0.3340909,
                "tempo": 120.0
            },
            {
                "start_time": 111.1681818,
                "end_time": 111.2681818,
                "pitch": 45,
                "velocity": 80,
                "duration": 0.1,
                "tempo": 120.0
            },
            {
                "start_time": 111.2840909,
                "end_time": 111.3818182,
                "pitch": 45,
                "velocity": 80,
                "duration": 0.0977273,
                "tempo": 120.0
            },
            {
                "start_time": 111.4,
                "end_time": 111.6113636,
                "pitch": 50,
                "velocity": 80,
                "duration": 0.2113636,
                "tempo": 120.0
            },
            {
                "start_time": 111.6272727,
                "end_time": 111.7272727,
                "pitch": 45,
                "velocity": 80,
                "duration": 0.1,
                "tempo": 120.0
            },
            {
                "start_time": 111.7431818,
                "end_time": 112.0772727,
                "pitch": 40,
                "velocity": 80,
                "duration": 0.3340909,
                "tempo": 120.0
            },
            {
                "start_time": 112.0954545,
                "end_time": 112.1954545,
                "pitch": 47,
                "velocity": 80,
                "duration": 0.1,
                "tempo": 120.0
            },
            {
                "start_time": 112.2113636,
                "end_time": 112.3113636,
                "pitch": 47,
                "velocity": 80,
                "duration": 0.1,
                "tempo": 120.0
            },
            {
                "start_time": 112.3295455,
                "end_time": 112.5477273,
                "pitch": 54,
                "velocity": 80,
                "duration": 0.2181818,
                "tempo": 120.0
            },
            {
                "start_time": 112.5636364,
                "end_time": 112.8931818,
                "pitch": 52,
                "velocity": 80,
                "duration": 0.3295455,
                "tempo": 120.0
            },
            {
                "start_time": 112.9090909,
                "end_time": 113.1227273,
                "pitch": 52,
                "velocity": 80,
                "duration": 0.2136364,
                "tempo": 120.0
            },
            {
                "start_time": 113.1386364,
                "end_time": 113.3568182,
                "pitch": 52,
                "velocity": 80,
                "duration": 0.2181818,
                "tempo": 120.0
            },
            {
                "start_time": 113.3727273,
                "end_time": 113.5909091,
                "pitch": 50,
                "velocity": 80,
                "duration": 0.2181818,
                "tempo": 120.0
            },
            {
                "start_time": 113.6068182,
                "end_time": 113.825,
                "pitch": 52,
                "velocity": 80,
                "duration": 0.2181818,
                "tempo": 120.0
            },
            {
                "start_time": 117.4454545,
                "end_time": 117.5454545,
                "pitch": 40,
                "velocity": 80,
                "duration": 0.1,
                "tempo": 120.0
            },
            {
                "start_time": 117.6795455,
                "end_time": 117.7795455,
                "pitch": 43,
                "velocity": 80,
                "duration": 0.1,
                "tempo": 120.0
            },
            {
                "start_time": 117.9068182,
                "end_time": 118.0045455,
                "pitch": 45,
                "velocity": 80,
                "duration": 0.0977273,
                "tempo": 120.0
            },
            {
                "start_time": 118.1318182,
                "end_time": 118.2272727,
                "pitch": 47,
                "velocity": 80,
                "duration": 0.0954545,
                "tempo": 120.0
            },
            {
                "start_time": 118.3613636,
                "end_time": 118.4613636,
                "pitch": 45,
                "velocity": 80,
                "duration": 0.1,
                "tempo": 120.0
            },
            {
                "start_time": 118.5954545,
                "end_time": 118.6954545,
                "pitch": 47,
                "velocity": 80,
                "duration": 0.1,
                "tempo": 120.0
            },
            {
                "start_time": 118.8272727,
                "end_time": 118.925,
                "pitch": 50,
                "velocity": 80,
                "duration": 0.0977273,
                "tempo": 120.0
            },
            {
                "start_time": 119.0568182,
                "end_time": 119.1545455,
                "pitch": 52,
                "velocity": 80,
                "duration": 0.0977273,
                "tempo": 120.0
            },
            {
                "start_time": 119.2909091,
                "end_time": 119.3931818,
                "pitch": 52,
                "velocity": 80,
                "duration": 0.1022727,
                "tempo": 120.0
            },
            {
                "start_time": 119.5295455,
                "end_time": 119.6318182,
                "pitch": 55,
                "velocity": 80,
                "duration": 0.1022727,
                "tempo": 120.0
            },
            {
                "start_time": 119.7613636,
                "end_time": 119.8590909,
                "pitch": 57,
                "velocity": 80,
                "duration": 0.0977273,
                "tempo": 120.0
            },
            {
                "start_time": 119.9909091,
                "end_time": 120.0886364,
                "pitch": 59,
                "velocity": 80,
                "duration": 0.0977273,
                "tempo": 120.0
            },
            {
                "start_time": 120.2204545,
                "end_time": 120.3181818,
                "pitch": 62,
                "velocity": 80,
                "duration": 0.0977273,
                "tempo": 120.0
            },
            {
                "start_time": 120.45,
                "end_time": 120.5477273,
                "pitch": 63,
                "velocity": 80,
                "duration": 0.0977273,
                "tempo": 120.0
            },
            {
                "start_time": 120.6818182,
                "end_time": 122.4136364,
                "pitch": 64,
                "velocity": 80,
                "duration": 1.7318182,
                "tempo": 120.0
            },
            {
                "start_time": 123.0090909,
                "end_time": 123.1136364,
                "pitch": 36,
                "velocity": 80,
                "duration": 0.1045455,
                "tempo": 120.0
            },
            {
                "start_time": 123.2522727,
                "end_time": 123.3568182,
                "pitch": 48,
                "velocity": 80,
                "duration": 0.1045455,
                "tempo": 120.0
            },
            {
                "start_time": 123.7090909,
                "end_time": 123.8068182,
                "pitch": 38,
                "velocity": 80,
                "duration": 0.0977273,
                "tempo": 120.0
            },
            {
                "start_time": 123.9386364,
                "end_time": 124.0409091,
                "pitch": 50,
                "velocity": 80,
                "duration": 0.1022727,
                "tempo": 120.0
            },
            {
                "start_time": 124.8818182,
                "end_time": 124.9795455,
                "pitch": 38,
                "velocity": 80,
                "duration": 0.0977273,
                "tempo": 120.0
            },
            {
                "start_time": 125.1113636,
                "end_time": 125.2090909,
                "pitch": 50,
                "velocity": 80,
                "duration": 0.0977273,
                "tempo": 120.0
            },
            {
                "start_time": 125.5704545,
                "end_time": 125.6681818,
                "pitch": 40,
                "velocity": 80,
                "duration": 0.0977273,
                "tempo": 120.0
            },
            {
                "start_time": 125.8022727,
                "end_time": 125.9022727,
                "pitch": 52,
                "velocity": 80,
                "duration": 0.1,
                "tempo": 120.0
            },
            {
                "start_time": 126.7386364,
                "end_time": 126.8409091,
                "pitch": 36,
                "velocity": 80,
                "duration": 0.1022727,
                "tempo": 120.0
            },
            {
                "start_time": 126.975,
                "end_time": 127.075,
                "pitch": 48,
                "velocity": 80,
                "duration": 0.1,
                "tempo": 120.0
            },
            {
                "start_time": 127.4340909,
                "end_time": 127.5318182,
                "pitch": 38,
                "velocity": 80,
                "duration": 0.0977273,
                "tempo": 120.0
            },
            {
                "start_time": 127.6659091,
                "end_time": 127.7681818,
                "pitch": 50,
                "velocity": 80,
                "duration": 0.1022727,
                "tempo": 120.0
            },
            {
                "start_time": 128.6045455,
                "end_time": 128.7045455,
                "pitch": 38,
                "velocity": 80,
                "duration": 0.1,
                "tempo": 120.0
            },
            {
                "start_time": 128.8386364,
                "end_time": 128.9386364,
                "pitch": 50,
                "velocity": 80,
                "duration": 0.1,
                "tempo": 120.0
            },
            {
                "start_time": 129.2909091,
                "end_time": 129.3886364,
                "pitch": 40,
                "velocity": 80,
                "duration": 0.0977273,
                "tempo": 120.0
            },
            {
                "start_time": 129.5204545,
                "end_time": 129.6227273,
                "pitch": 52,
                "velocity": 80,
                "duration": 0.1022727,
                "tempo": 120.0
            },
            {
                "start_time": 129.9931818,
                "end_time": 132.8977273,
                "pitch": 35,
                "velocity": 80,
                "duration": 2.9045455,
                "tempo": 120.0
            },
            {
                "start_time": 133.0272727,
                "end_time": 133.125,
                "pitch": 35,
                "velocity": 80,
                "duration": 0.0977273,
                "tempo": 120.0
            },
            {
                "start_time": 133.1431818,
                "end_time": 133.2431818,
                "pitch": 35,
                "velocity": 80,
                "duration": 0.1,
                "tempo": 120.0
            },
            {
                "start_time": 133.3772727,
                "end_time": 133.4772727,
                "pitch": 47,
                "velocity": 80,
                "duration": 0.1,
                "tempo": 120.0
            },
            {
                "start_time": 133.4931818,
                "end_time": 133.5954545,
                "pitch": 35,
                "velocity": 80,
                "duration": 0.1022727,
                "tempo": 120.0
            },
            {
                "start_time": 133.6113636,
                "end_time": 133.7090909,
                "pitch": 45,
                "velocity": 80,
                "duration": 0.0977273,
                "tempo": 120.0
            },
            {
                "start_time": 133.725,
                "end_time": 133.8227273,
                "pitch": 46,
                "velocity": 80,
                "duration": 0.0977273,
                "tempo": 120.0
            },
            {
                "start_time": 133.8409091,
                "end_time": 133.9386364,
                "pitch": 47,
                "velocity": 80,
                "duration": 0.0977273,
                "tempo": 120.0
            },
            {
                "start_time": 133.9545455,
                "end_time": 134.0522727,
                "pitch": 48,
                "velocity": 80,
                "duration": 0.0977273,
                "tempo": 120.0
            },
            {
                "start_time": 134.0681818,
                "end_time": 134.4045455,
                "pitch": 40,
                "velocity": 80,
                "duration": 0.3363636,
                "tempo": 120.0
            },
            {
                "start_time": 134.4204545,
                "end_time": 134.5204545,
                "pitch": 47,
                "velocity": 80,
                "duration": 0.1,
                "tempo": 120.0
            },
            {
                "start_time": 134.5386364,
                "end_time": 134.8727273,
                "pitch": 47,
                "velocity": 80,
                "duration": 0.3340909,
                "tempo": 120.0
            },
            {
                "start_time": 134.8909091,
                "end_time": 134.9909091,
                "pitch": 52,
                "velocity": 80,
                "duration": 0.1,
                "tempo": 120.0
            },
            {
                "start_time": 135.0068182,
                "end_time": 135.3431818,
                "pitch": 52,
                "velocity": 80,
                "duration": 0.3363636,
                "tempo": 120.0
            },
            {
                "start_time": 135.3590909,
                "end_time": 135.4590909,
                "pitch": 47,
                "velocity": 80,
                "duration": 0.1,
                "tempo": 120.0
            },
            {
                "start_time": 135.4772727,
                "end_time": 135.6886364,
                "pitch": 47,
                "velocity": 80,
                "duration": 0.2113636,
                "tempo": 120.0
            },
            {
                "start_time": 135.7045455,
                "end_time": 135.9181818,
                "pitch": 40,
                "velocity": 80,
                "duration": 0.2136364,
                "tempo": 120.0
            },
            {
                "start_time": 135.9340909,
                "end_time": 136.2704545,
                "pitch": 45,
                "velocity": 80,
                "duration": 0.3363636,
                "tempo": 120.0
            },
            {
                "start_time": 136.2863636,
                "end_time": 136.3863636,
                "pitch": 52,
                "velocity": 80,
                "duration": 0.1,
                "tempo": 120.0
            },
            {
                "start_time": 136.4045455,
                "end_time": 136.7318182,
                "pitch": 52,
                "velocity": 80,
                "duration": 0.3272727,
                "tempo": 120.0
            },
            {
                "start_time": 136.7477273,
                "end_time": 136.8454545,
                "pitch": 57,
                "velocity": 80,
                "duration": 0.0977273,
                "tempo": 120.0
            },
            {
                "start_time": 136.8613636,
                "end_time": 137.1977273,
                "pitch": 57,
                "velocity": 80,
                "duration": 0.3363636,
                "tempo": 120.0
            },
            {
                "start_time": 137.2136364,
                "end_time": 137.3136364,
                "pitch": 52,
                "velocity": 80,
                "duration": 0.1,
                "tempo": 120.0
            },
            {
                "start_time": 137.3295455,
                "end_time": 137.4318182,
                "pitch": 52,
                "velocity": 80,
                "duration": 0.1022727,
                "tempo": 120.0
            },
            {
                "start_time": 137.4477273,
                "end_time": 137.7818182,
                "pitch": 45,
                "velocity": 80,
                "duration": 0.3340909,
                "tempo": 120.0
            },
            {
                "start_time": 137.8,
                "end_time": 138.1272727,
                "pitch": 40,
                "velocity": 80,
                "duration": 0.3272727,
                "tempo": 120.0
            },
            {
                "start_time": 138.1431818,
                "end_time": 138.2409091,
                "pitch": 47,
                "velocity": 80,
                "duration": 0.0977273,
                "tempo": 120.0
            },
            {
                "start_time": 138.2568182,
                "end_time": 138.5931818,
                "pitch": 47,
                "velocity": 80,
                "duration": 0.3363636,
                "tempo": 120.0
            },
            {
                "start_time": 138.6090909,
                "end_time": 138.7090909,
                "pitch": 52,
                "velocity": 80,
                "duration": 0.1,
                "tempo": 120.0
            },
            {
                "start_time": 138.7272727,
                "end_time": 139.0704545,
                "pitch": 52,
                "velocity": 80,
                "duration": 0.3431818,
                "tempo": 120.0
            },
            {
                "start_time": 139.0863636,
                "end_time": 139.1886364,
                "pitch": 47,
                "velocity": 80,
                "duration": 0.1022727,
                "tempo": 120.0
            },
            {
                "start_time": 139.2068182,
                "end_time": 139.4136364,
                "pitch": 47,
                "velocity": 80,
                "duration": 0.2068182,
                "tempo": 120.0
            },
            {
                "start_time": 139.4295455,
                "end_time": 139.6386364,
                "pitch": 40,
                "velocity": 80,
                "duration": 0.2090909,
                "tempo": 120.0
            },
            {
                "start_time": 139.6545455,
                "end_time": 139.9886364,
                "pitch": 45,
                "velocity": 80,
                "duration": 0.3340909,
                "tempo": 120.0
            },
            {
                "start_time": 140.0068182,
                "end_time": 140.1068182,
                "pitch": 52,
                "velocity": 80,
                "duration": 0.1,
                "tempo": 120.0
            },
            {
                "start_time": 140.1227273,
                "end_time": 140.4590909,
                "pitch": 52,
                "velocity": 80,
                "duration": 0.3363636,
                "tempo": 120.0
            },
            {
                "start_time": 140.475,
                "end_time": 140.575,
                "pitch": 57,
                "velocity": 80,
                "duration": 0.1,
                "tempo": 120.0
            },
            {
                "start_time": 140.5931818,
                "end_time": 140.6909091,
                "pitch": 57,
                "velocity": 80,
                "duration": 0.0977273,
                "tempo": 120.0
            },
            {
                "start_time": 140.7068182,
                "end_time": 140.8045455,
                "pitch": 55,
                "velocity": 80,
                "duration": 0.0977273,
                "tempo": 120.0
            },
            {
                "start_time": 140.8204545,
                "end_time": 140.9204545,
                "pitch": 56,
                "velocity": 80,
                "duration": 0.1,
                "tempo": 120.0
            },
            {
                "start_time": 140.9363636,
                "end_time": 141.0340909,
                "pitch": 57,
                "velocity": 80,
                "duration": 0.0977273,
                "tempo": 120.0
            },
            {
                "start_time": 141.1681818,
                "end_time": 141.2681818,
                "pitch": 50,
                "velocity": 80,
                "duration": 0.1,
                "tempo": 120.0
            },
            {
                "start_time": 141.2840909,
                "end_time": 141.3863636,
                "pitch": 51,
                "velocity": 80,
                "duration": 0.1022727,
                "tempo": 120.0
            },
            {
                "start_time": 141.4022727,
                "end_time": 141.5022727,
                "pitch": 52,
                "velocity": 80,
                "duration": 0.1,
                "tempo": 120.0
            },
            {
                "start_time": 141.5204545,
                "end_time": 141.8545455,
                "pitch": 40,
                "velocity": 80,
                "duration": 0.3340909,
                "tempo": 120.0
            },
            {
                "start_time": 141.8704545,
                "end_time": 141.9727273,
                "pitch": 47,
                "velocity": 80,
                "duration": 0.1022727,
                "tempo": 120.0
            },
            {
                "start_time": 141.9886364,
                "end_time": 142.3159091,
                "pitch": 47,
                "velocity": 80,
                "duration": 0.3272727,
                "tempo": 120.0
            },
            {
                "start_time": 142.3318182,
                "end_time": 142.4295455,
                "pitch": 52,
                "velocity": 80,
                "duration": 0.0977273,
                "tempo": 120.0
            },
            {
                "start_time": 142.4477273,
                "end_time": 142.7818182,
                "pitch": 52,
                "velocity": 80,
                "duration": 0.3340909,
                "tempo": 120.0
            },
            {
                "start_time": 142.7977273,
                "end_time": 142.9,
                "pitch": 47,
                "velocity": 80,
                "duration": 0.1022727,
                "tempo": 120.0
            },
            {
                "start_time": 142.9159091,
                "end_time": 143.1340909,
                "pitch": 47,
                "velocity": 80,
                "duration": 0.2181818,
                "tempo": 120.0
            },
            {
                "start_time": 143.15,
                "end_time": 143.3681818,
                "pitch": 40,
                "velocity": 80,
                "duration": 0.2181818,
                "tempo": 120.0
            },
            {
                "start_time": 143.3840909,
                "end_time": 143.7113636,
                "pitch": 45,
                "velocity": 80,
                "duration": 0.3272727,
                "tempo": 120.0
            },
            {
                "start_time": 143.7295455,
                "end_time": 143.8272727,
                "pitch": 52,
                "velocity": 80,
                "duration": 0.0977273,
                "tempo": 120.0
            },
            {
                "start_time": 143.8431818,
                "end_time": 144.1772727,
                "pitch": 52,
                "velocity": 80,
                "duration": 0.3340909,
                "tempo": 120.0
            },
            {
                "start_time": 144.1954545,
                "end_time": 144.2954545,
                "pitch": 57,
                "velocity": 80,
                "duration": 0.1,
                "tempo": 120.0
            },
            {
                "start_time": 144.3113636,
                "end_time": 144.6477273,
                "pitch": 57,
                "velocity": 80,
                "duration": 0.3363636,
                "tempo": 120.0
            },
            {
                "start_time": 144.6636364,
                "end_time": 144.7636364,
                "pitch": 52,
                "velocity": 80,
                "duration": 0.1,
                "tempo": 120.0
            },
            {
                "start_time": 144.7818182,
                "end_time": 144.8795455,
                "pitch": 52,
                "velocity": 80,
                "duration": 0.0977273,
                "tempo": 120.0
            },
            {
                "start_time": 144.8954545,
                "end_time": 145.2227273,
                "pitch": 45,
                "velocity": 80,
                "duration": 0.3272727,
                "tempo": 120.0
            },
            {
                "start_time": 145.2386364,
                "end_time": 145.575,
                "pitch": 40,
                "velocity": 80,
                "duration": 0.3363636,
                "tempo": 120.0
            },
            {
                "start_time": 145.5909091,
                "end_time": 145.6909091,
                "pitch": 47,
                "velocity": 80,
                "duration": 0.1,
                "tempo": 120.0
            },
            {
                "start_time": 145.7090909,
                "end_time": 146.0431818,
                "pitch": 47,
                "velocity": 80,
                "duration": 0.3340909,
                "tempo": 120.0
            },
            {
                "start_time": 146.0590909,
                "end_time": 146.1613636,
                "pitch": 52,
                "velocity": 80,
                "duration": 0.1022727,
                "tempo": 120.0
            },
            {
                "start_time": 146.1772727,
                "end_time": 146.5113636,
                "pitch": 52,
                "velocity": 80,
                "duration": 0.3340909,
                "tempo": 120.0
            },
            {
                "start_time": 146.5295455,
                "end_time": 146.6295455,
                "pitch": 47,
                "velocity": 80,
                "duration": 0.1,
                "tempo": 120.0
            },
            {
                "start_time": 146.6454545,
                "end_time": 146.7454545,
                "pitch": 47,
                "velocity": 80,
                "duration": 0.1,
                "tempo": 120.0
            },
            {
                "start_time": 146.7613636,
                "end_time": 146.8590909,
                "pitch": 45,
                "velocity": 80,
                "duration": 0.0977273,
                "tempo": 120.0
            },
            {
                "start_time": 146.875,
                "end_time": 146.9727273,
                "pitch": 46,
                "velocity": 80,
                "duration": 0.0977273,
                "tempo": 120.0
            },
            {
                "start_time": 146.9909091,
                "end_time": 147.0886364,
                "pitch": 47,
                "velocity": 80,
                "duration": 0.0977273,
                "tempo": 120.0
            },
            {
                "start_time": 147.1045455,
                "end_time": 147.4386364,
                "pitch": 45,
                "velocity": 80,
                "duration": 0.3340909,
                "tempo": 120.0
            },
            {
                "start_time": 147.4568182,
                "end_time": 147.5568182,
                "pitch": 52,
                "velocity": 80,
                "duration": 0.1,
                "tempo": 120.0
            },
            {
                "start_time": 147.5727273,
                "end_time": 147.9,
                "pitch": 52,
                "velocity": 80,
                "duration": 0.3272727,
                "tempo": 120.0
            },
            {
                "start_time": 147.9159091,
                "end_time": 148.0159091,
                "pitch": 45,
                "velocity": 80,
                "duration": 0.1,
                "tempo": 120.0
            },
            {
                "start_time": 148.0318182,
                "end_time": 148.1840909,
                "pitch": 59,
                "velocity": 80,
                "duration": 0.1522727,
                "tempo": 120.0
            },
            {
                "start_time": 148.2022727,
                "end_time": 148.3363636,
                "pitch": 59,
                "velocity": 80,
                "duration": 0.1340909,
                "tempo": 120.0
            },
            {
                "start_time": 148.3545455,
                "end_time": 148.4909091,
                "pitch": 59,
                "velocity": 80,
                "duration": 0.1363636,
                "tempo": 120.0
            },
            {
                "start_time": 148.5068182,
                "end_time": 148.6545455,
                "pitch": 57,
                "velocity": 80,
                "duration": 0.1477273,
                "tempo": 120.0
            },
            {
                "start_time": 148.6704545,
                "end_time": 148.95,
                "pitch": 50,
                "velocity": 80,
                "duration": 0.2795455,
                "tempo": 120.0
            },
            {
                "start_time": 148.9659091,
                "end_time": 149.2931818,
                "pitch": 40,
                "velocity": 80,
                "duration": 0.3272727,
                "tempo": 120.0
            },
            {
                "start_time": 149.3090909,
                "end_time": 149.4068182,
                "pitch": 47,
                "velocity": 80,
                "duration": 0.0977273,
                "tempo": 120.0
            },
            {
                "start_time": 149.425,
                "end_time": 149.7590909,
                "pitch": 47,
                "velocity": 80,
                "duration": 0.3340909,
                "tempo": 120.0
            },
            {
                "start_time": 149.775,
                "end_time": 149.8772727,
                "pitch": 52,
                "velocity": 80,
                "duration": 0.1022727,
                "tempo": 120.0
            },
            {
                "start_time": 149.8931818,
                "end_time": 150.2272727,
                "pitch": 52,
                "velocity": 80,
                "duration": 0.3340909,
                "tempo": 120.0
            },
            {
                "start_time": 150.2454545,
                "end_time": 150.3454545,
                "pitch": 47,
                "velocity": 80,
                "duration": 0.1,
                "tempo": 120.0
            },
            {
                "start_time": 150.3613636,
                "end_time": 150.575,
                "pitch": 47,
                "velocity": 80,
                "duration": 0.2136364,
                "tempo": 120.0
            },
            {
                "start_time": 150.5909091,
                "end_time": 150.8045455,
                "pitch": 40,
                "velocity": 80,
                "duration": 0.2136364,
                "tempo": 120.0
            },
            {
                "start_time": 150.8204545,
                "end_time": 151.1545455,
                "pitch": 45,
                "velocity": 80,
                "duration": 0.3340909,
                "tempo": 120.0
            },
            {
                "start_time": 151.1727273,
                "end_time": 151.2727273,
                "pitch": 52,
                "velocity": 80,
                "duration": 0.1,
                "tempo": 120.0
            },
            {
                "start_time": 151.2886364,
                "end_time": 151.625,
                "pitch": 52,
                "velocity": 80,
                "duration": 0.3363636,
                "tempo": 120.0
            },
            {
                "start_time": 151.6409091,
                "end_time": 151.7409091,
                "pitch": 57,
                "velocity": 80,
                "duration": 0.1,
                "tempo": 120.0
            },
            {
                "start_time": 151.7590909,
                "end_time": 152.0931818,
                "pitch": 57,
                "velocity": 80,
                "duration": 0.3340909,
                "tempo": 120.0
            },
            {
                "start_time": 152.1090909,
                "end_time": 152.2113636,
                "pitch": 52,
                "velocity": 80,
                "duration": 0.1022727,
                "tempo": 120.0
            },
            {
                "start_time": 152.2272727,
                "end_time": 152.325,
                "pitch": 52,
                "velocity": 80,
                "duration": 0.0977273,
                "tempo": 120.0
            },
            {
                "start_time": 152.3409091,
                "end_time": 152.6681818,
                "pitch": 45,
                "velocity": 80,
                "duration": 0.3272727,
                "tempo": 120.0
            },
            {
                "start_time": 152.6863636,
                "end_time": 153.0204545,
                "pitch": 40,
                "velocity": 80,
                "duration": 0.3340909,
                "tempo": 120.0
            },
            {
                "start_time": 153.0363636,
                "end_time": 153.1386364,
                "pitch": 47,
                "velocity": 80,
                "duration": 0.1022727,
                "tempo": 120.0
            },
            {
                "start_time": 153.1545455,
                "end_time": 153.4818182,
                "pitch": 47,
                "velocity": 80,
                "duration": 0.3272727,
                "tempo": 120.0
            },
            {
                "start_time": 153.4977273,
                "end_time": 153.5954545,
                "pitch": 52,
                "velocity": 80,
                "duration": 0.0977273,
                "tempo": 120.0
            },
            {
                "start_time": 153.6136364,
                "end_time": 153.9477273,
                "pitch": 52,
                "velocity": 80,
                "duration": 0.3340909,
                "tempo": 120.0
            },
            {
                "start_time": 153.9636364,
                "end_time": 154.0659091,
                "pitch": 47,
                "velocity": 80,
                "duration": 0.1022727,
                "tempo": 120.0
            },
            {
                "start_time": 154.0818182,
                "end_time": 154.3,
                "pitch": 47,
                "velocity": 80,
                "duration": 0.2181818,
                "tempo": 120.0
            },
            {
                "start_time": 154.3159091,
                "end_time": 154.5340909,
                "pitch": 40,
                "velocity": 80,
                "duration": 0.2181818,
                "tempo": 120.0
            },
            {
                "start_time": 154.55,
                "end_time": 154.8772727,
                "pitch": 45,
                "velocity": 80,
                "duration": 0.3272727,
                "tempo": 120.0
            },
            {
                "start_time": 154.8931818,
                "end_time": 154.9931818,
                "pitch": 52,
                "velocity": 80,
                "duration": 0.1,
                "tempo": 120.0
            },
            {
                "start_time": 155.0090909,
                "end_time": 155.3431818,
                "pitch": 52,
                "velocity": 80,
                "duration": 0.3340909,
                "tempo": 120.0
            },
            {
                "start_time": 155.3613636,
                "end_time": 155.4613636,
                "pitch": 57,
                "velocity": 80,
                "duration": 0.1,
                "tempo": 120.0
            },
            {
                "start_time": 155.4772727,
                "end_time": 155.5772727,
                "pitch": 57,
                "velocity": 80,
                "duration": 0.1,
                "tempo": 120.0
            },
            {
                "start_time": 155.5954545,
                "end_time": 155.6954545,
                "pitch": 55,
                "velocity": 80,
                "duration": 0.1,
                "tempo": 120.0
            },
            {
                "start_time": 155.7113636,
                "end_time": 155.8136364,
                "pitch": 56,
                "velocity": 80,
                "duration": 0.1022727,
                "tempo": 120.0
            },
            {
                "start_time": 155.8295455,
                "end_time": 155.9295455,
                "pitch": 57,
                "velocity": 80,
                "duration": 0.1,
                "tempo": 120.0
            },
            {
                "start_time": 156.0613636,
                "end_time": 156.1590909,
                "pitch": 50,
                "velocity": 80,
                "duration": 0.0977273,
                "tempo": 120.0
            },
            {
                "start_time": 156.175,
                "end_time": 156.275,
                "pitch": 51,
                "velocity": 80,
                "duration": 0.1,
                "tempo": 120.0
            },
            {
                "start_time": 156.2909091,
                "end_time": 156.3886364,
                "pitch": 52,
                "velocity": 80,
                "duration": 0.0977273,
                "tempo": 120.0
            },
            {
                "start_time": 156.4045455,
                "end_time": 156.7409091,
                "pitch": 40,
                "velocity": 80,
                "duration": 0.3363636,
                "tempo": 120.0
            },
            {
                "start_time": 156.7568182,
                "end_time": 156.8568182,
                "pitch": 47,
                "velocity": 80,
                "duration": 0.1,
                "tempo": 120.0
            },
            {
                "start_time": 156.875,
                "end_time": 157.2090909,
                "pitch": 47,
                "velocity": 80,
                "duration": 0.3340909,
                "tempo": 120.0
            },
            {
                "start_time": 157.225,
                "end_time": 157.3272727,
                "pitch": 52,
                "velocity": 80,
                "duration": 0.1022727,
                "tempo": 120.0
            },
            {
                "start_time": 157.3431818,
                "end_time": 157.6772727,
                "pitch": 52,
                "velocity": 80,
                "duration": 0.3340909,
                "tempo": 120.0
            },
            {
                "start_time": 157.6954545,
                "end_time": 157.7954545,
                "pitch": 47,
                "velocity": 80,
                "duration": 0.1,
                "tempo": 120.0
            },
            {
                "start_time": 157.8113636,
                "end_time": 158.025,
                "pitch": 47,
                "velocity": 80,
                "duration": 0.2136364,
                "tempo": 120.0
            },
            {
                "start_time": 158.0409091,
                "end_time": 158.2545455,
                "pitch": 40,
                "velocity": 80,
                "duration": 0.2136364,
                "tempo": 120.0
            },
            {
                "start_time": 158.2704545,
                "end_time": 158.6045455,
                "pitch": 45,
                "velocity": 80,
                "duration": 0.3340909,
                "tempo": 120.0
            },
            {
                "start_time": 158.6227273,
                "end_time": 158.7227273,
                "pitch": 52,
                "velocity": 80,
                "duration": 0.1,
                "tempo": 120.0
            },
            {
                "start_time": 158.7386364,
                "end_time": 159.075,
                "pitch": 52,
                "velocity": 80,
                "duration": 0.3363636,
                "tempo": 120.0
            },
            {
                "start_time": 159.0909091,
                "end_time": 159.1909091,
                "pitch": 57,
                "velocity": 80,
                "duration": 0.1,
                "tempo": 120.0
            },
            {
                "start_time": 159.2090909,
                "end_time": 159.5363636,
                "pitch": 57,
                "velocity": 80,
                "duration": 0.3272727,
                "tempo": 120.0
            },
            {
                "start_time": 159.5522727,
                "end_time": 159.65,
                "pitch": 52,
                "velocity": 80,
                "duration": 0.0977273,
                "tempo": 120.0
            },
            {
                "start_time": 159.6659091,
                "end_time": 159.7659091,
                "pitch": 52,
                "velocity": 80,
                "duration": 0.1,
                "tempo": 120.0
            },
            {
                "start_time": 159.7840909,
                "end_time": 160.1181818,
                "pitch": 45,
                "velocity": 80,
                "duration": 0.3340909,
                "tempo": 120.0
            },
            {
                "start_time": 160.1363636,
                "end_time": 160.4636364,
                "pitch": 40,
                "velocity": 80,
                "duration": 0.3272727,
                "tempo": 120.0
            },
            {
                "start_time": 160.4795455,
                "end_time": 160.5772727,
                "pitch": 47,
                "velocity": 80,
                "duration": 0.0977273,
                "tempo": 120.0
            },
            {
                "start_time": 160.5931818,
                "end_time": 160.9295455,
                "pitch": 47,
                "velocity": 80,
                "duration": 0.3363636,
                "tempo": 120.0
            },
            {
                "start_time": 160.9454545,
                "end_time": 161.0454545,
                "pitch": 52,
                "velocity": 80,
                "duration": 0.1,
                "tempo": 120.0
            },
            {
                "start_time": 161.0636364,
                "end_time": 161.3977273,
                "pitch": 52,
                "velocity": 80,
                "duration": 0.3340909,
                "tempo": 120.0
            },
            {
                "start_time": 161.4136364,
                "end_time": 161.5159091,
                "pitch": 47,
                "velocity": 80,
                "duration": 0.1022727,
                "tempo": 120.0
            },
            {
                "start_time": 161.5318182,
                "end_time": 161.6295455,
                "pitch": 47,
                "velocity": 80,
                "duration": 0.0977273,
                "tempo": 120.0
            },
            {
                "start_time": 161.6454545,
                "end_time": 161.7431818,
                "pitch": 45,
                "velocity": 80,
                "duration": 0.0977273,
                "tempo": 120.0
            },
            {
                "start_time": 161.7613636,
                "end_time": 161.8590909,
                "pitch": 46,
                "velocity": 80,
                "duration": 0.0977273,
                "tempo": 120.0
            },
            {
                "start_time": 161.875,
                "end_time": 161.9727273,
                "pitch": 47,
                "velocity": 80,
                "duration": 0.0977273,
                "tempo": 120.0
            },
            {
                "start_time": 161.9886364,
                "end_time": 162.325,
                "pitch": 45,
                "velocity": 80,
                "duration": 0.3363636,
                "tempo": 120.0
            },
            {
                "start_time": 162.3409091,
                "end_time": 162.4409091,
                "pitch": 52,
                "velocity": 80,
                "duration": 0.1,
                "tempo": 120.0
            },
            {
                "start_time": 162.4590909,
                "end_time": 162.7931818,
                "pitch": 52,
                "velocity": 80,
                "duration": 0.3340909,
                "tempo": 120.0
            },
            {
                "start_time": 162.8113636,
                "end_time": 162.9113636,
                "pitch": 45,
                "velocity": 80,
                "duration": 0.1,
                "tempo": 120.0
            },
            {
                "start_time": 162.9272727,
                "end_time": 163.0272727,
                "pitch": 45,
                "velocity": 80,
                "duration": 0.1,
                "tempo": 120.0
            },
            {
                "start_time": 163.1613636,
                "end_time": 163.3795455,
                "pitch": 50,
                "velocity": 80,
                "duration": 0.2181818,
                "tempo": 120.0
            },
            {
                "start_time": 163.3977273,
                "end_time": 163.6136364,
                "pitch": 51,
                "velocity": 80,
                "duration": 0.2159091,
                "tempo": 120.0
            },
            {
                "start_time": 163.6318182,
                "end_time": 163.85,
                "pitch": 52,
                "velocity": 80,
                "duration": 0.2181818,
                "tempo": 120.0
            },
            {
                "start_time": 163.8659091,
                "end_time": 164.1931818,
                "pitch": 40,
                "velocity": 80,
                "duration": 0.3272727,
                "tempo": 120.0
            },
            {
                "start_time": 164.2090909,
                "end_time": 164.3068182,
                "pitch": 47,
                "velocity": 80,
                "duration": 0.0977273,
                "tempo": 120.0
            },
            {
                "start_time": 164.325,
                "end_time": 164.6522727,
                "pitch": 47,
                "velocity": 80,
                "duration": 0.3272727,
                "tempo": 120.0
            },
            {
                "start_time": 164.6681818,
                "end_time": 164.7659091,
                "pitch": 52,
                "velocity": 80,
                "duration": 0.0977273,
                "tempo": 120.0
            },
            {
                "start_time": 164.7818182,
                "end_time": 165.1181818,
                "pitch": 52,
                "velocity": 80,
                "duration": 0.3363636,
                "tempo": 120.0
            },
            {
                "start_time": 165.1340909,
                "end_time": 165.2340909,
                "pitch": 47,
                "velocity": 80,
                "duration": 0.1,
                "tempo": 120.0
            },
            {
                "start_time": 165.2522727,
                "end_time": 165.4681818,
                "pitch": 47,
                "velocity": 80,
                "duration": 0.2159091,
                "tempo": 120.0
            },
            {
                "start_time": 165.4863636,
                "end_time": 165.7045455,
                "pitch": 40,
                "velocity": 80,
                "duration": 0.2181818,
                "tempo": 120.0
            },
            {
                "start_time": 165.7204545,
                "end_time": 166.0477273,
                "pitch": 45,
                "velocity": 80,
                "duration": 0.3272727,
                "tempo": 120.0
            },
            {
                "start_time": 166.0636364,
                "end_time": 166.1613636,
                "pitch": 52,
                "velocity": 80,
                "duration": 0.0977273,
                "tempo": 120.0
            },
            {
                "start_time": 166.1772727,
                "end_time": 166.5136364,
                "pitch": 52,
                "velocity": 80,
                "duration": 0.3363636,
                "tempo": 120.0
            },
            {
                "start_time": 166.5295455,
                "end_time": 166.6295455,
                "pitch": 57,
                "velocity": 80,
                "duration": 0.1,
                "tempo": 120.0
            },
            {
                "start_time": 166.6477273,
                "end_time": 166.9818182,
                "pitch": 57,
                "velocity": 80,
                "duration": 0.3340909,
                "tempo": 120.0
            },
            {
                "start_time": 167.0,
                "end_time": 167.1,
                "pitch": 52,
                "velocity": 80,
                "duration": 0.1,
                "tempo": 120.0
            },
            {
                "start_time": 167.1159091,
                "end_time": 167.2136364,
                "pitch": 52,
                "velocity": 80,
                "duration": 0.0977273,
                "tempo": 120.0
            },
            {
                "start_time": 167.2318182,
                "end_time": 167.5590909,
                "pitch": 45,
                "velocity": 80,
                "duration": 0.3272727,
                "tempo": 120.0
            },
            {
                "start_time": 167.575,
                "end_time": 167.9090909,
                "pitch": 40,
                "velocity": 80,
                "duration": 0.3340909,
                "tempo": 120.0
            },
            {
                "start_time": 167.9272727,
                "end_time": 168.0272727,
                "pitch": 47,
                "velocity": 80,
                "duration": 0.1,
                "tempo": 120.0
            },
            {
                "start_time": 168.0431818,
                "end_time": 168.3795455,
                "pitch": 47,
                "velocity": 80,
                "duration": 0.3363636,
                "tempo": 120.0
            },
            {
                "start_time": 168.3954545,
                "end_time": 168.4954545,
                "pitch": 52,
                "velocity": 80,
                "duration": 0.1,
                "tempo": 120.0
            },
            {
                "start_time": 168.5136364,
                "end_time": 168.8477273,
                "pitch": 52,
                "velocity": 80,
                "duration": 0.3340909,
                "tempo": 120.0
            },
            {
                "start_time": 168.8636364,
                "end_time": 168.9659091,
                "pitch": 47,
                "velocity": 80,
                "duration": 0.1022727,
                "tempo": 120.0
            },
            {
                "start_time": 168.9818182,
                "end_time": 169.1954545,
                "pitch": 47,
                "velocity": 80,
                "duration": 0.2136364,
                "tempo": 120.0
            },
            {
                "start_time": 169.2113636,
                "end_time": 169.4227273,
                "pitch": 40,
                "velocity": 80,
                "duration": 0.2113636,
                "tempo": 120.0
            },
            {
                "start_time": 169.4409091,
                "end_time": 169.775,
                "pitch": 45,
                "velocity": 80,
                "duration": 0.3340909,
                "tempo": 120.0
            },
            {
                "start_time": 169.7909091,
                "end_time": 169.8909091,
                "pitch": 52,
                "velocity": 80,
                "duration": 0.1,
                "tempo": 120.0
            },
            {
                "start_time": 169.9090909,
                "end_time": 170.2363636,
                "pitch": 52,
                "velocity": 80,
                "duration": 0.3272727,
                "tempo": 120.0
            },
            {
                "start_time": 170.2522727,
                "end_time": 170.35,
                "pitch": 57,
                "velocity": 80,
                "duration": 0.0977273,
                "tempo": 120.0
            },
            {
                "start_time": 170.3659091,
                "end_time": 170.4681818,
                "pitch": 57,
                "velocity": 80,
                "duration": 0.1022727,
                "tempo": 120.0
            },
            {
                "start_time": 170.4840909,
                "end_time": 170.5840909,
                "pitch": 55,
                "velocity": 80,
                "duration": 0.1,
                "tempo": 120.0
            },
            {
                "start_time": 170.6022727,
                "end_time": 170.7022727,
                "pitch": 56,
                "velocity": 80,
                "duration": 0.1,
                "tempo": 120.0
            },
            {
                "start_time": 170.7181818,
                "end_time": 170.8181818,
                "pitch": 57,
                "velocity": 80,
                "duration": 0.1,
                "tempo": 120.0
            },
            {
                "start_time": 170.9522727,
                "end_time": 171.0545455,
                "pitch": 50,
                "velocity": 80,
                "duration": 0.1022727,
                "tempo": 120.0
            },
            {
                "start_time": 171.0704545,
                "end_time": 171.1704545,
                "pitch": 51,
                "velocity": 80,
                "duration": 0.1,
                "tempo": 120.0
            },
            {
                "start_time": 171.1886364,
                "end_time": 171.2886364,
                "pitch": 52,
                "velocity": 80,
                "duration": 0.1,
                "tempo": 120.0
            },
            {
                "start_time": 171.3045455,
                "end_time": 171.6318182,
                "pitch": 40,
                "velocity": 80,
                "duration": 0.3272727,
                "tempo": 120.0
            },
            {
                "start_time": 171.6477273,
                "end_time": 171.7477273,
                "pitch": 47,
                "velocity": 80,
                "duration": 0.1,
                "tempo": 120.0
            },
            {
                "start_time": 171.7636364,
                "end_time": 172.0977273,
                "pitch": 47,
                "velocity": 80,
                "duration": 0.3340909,
                "tempo": 120.0
            },
            {
                "start_time": 172.1159091,
                "end_time": 172.2159091,
                "pitch": 52,
                "velocity": 80,
                "duration": 0.1,
                "tempo": 120.0
            },
            {
                "start_time": 172.2318182,
                "end_time": 172.5590909,
                "pitch": 52,
                "velocity": 80,
                "duration": 0.3272727,
                "tempo": 120.0
            },
            {
                "start_time": 172.575,
                "end_time": 172.6727273,
                "pitch": 47,
                "velocity": 80,
                "duration": 0.0977273,
                "tempo": 120.0
            },
            {
                "start_time": 172.6909091,
                "end_time": 172.9090909,
                "pitch": 47,
                "velocity": 80,
                "duration": 0.2181818,
                "tempo": 120.0
            },
            {
                "start_time": 172.925,
                "end_time": 173.1431818,
                "pitch": 40,
                "velocity": 80,
                "duration": 0.2181818,
                "tempo": 120.0
            },
            {
                "start_time": 173.1590909,
                "end_time": 173.4931818,
                "pitch": 45,
                "velocity": 80,
                "duration": 0.3340909,
                "tempo": 120.0
            },
            {
                "start_time": 173.5113636,
                "end_time": 173.6113636,
                "pitch": 52,
                "velocity": 80,
                "duration": 0.1,
                "tempo": 120.0
            },
            {
                "start_time": 173.6272727,
                "end_time": 173.9636364,
                "pitch": 52,
                "velocity": 80,
                "duration": 0.3363636,
                "tempo": 120.0
            },
            {
                "start_time": 173.9795455,
                "end_time": 174.0795455,
                "pitch": 57,
                "velocity": 80,
                "duration": 0.1,
                "tempo": 120.0
            },
            {
                "start_time": 174.0977273,
                "end_time": 174.425,
                "pitch": 57,
                "velocity": 80,
                "duration": 0.3272727,
                "tempo": 120.0
            },
            {
                "start_time": 174.4409091,
                "end_time": 174.5386364,
                "pitch": 52,
                "velocity": 80,
                "duration": 0.0977273,
                "tempo": 120.0
            },
            {
                "start_time": 174.5545455,
                "end_time": 174.6568182,
                "pitch": 52,
                "velocity": 80,
                "duration": 0.1022727,
                "tempo": 120.0
            },
            {
                "start_time": 174.6727273,
                "end_time": 175.0068182,
                "pitch": 45,
                "velocity": 80,
                "duration": 0.3340909,
                "tempo": 120.0
            },
            {
                "start_time": 175.025,
                "end_time": 175.3590909,
                "pitch": 40,
                "velocity": 80,
                "duration": 0.3340909,
                "tempo": 120.0
            },
            {
                "start_time": 175.3772727,
                "end_time": 175.4772727,
                "pitch": 47,
                "velocity": 80,
                "duration": 0.1,
                "tempo": 120.0
            },
            {
                "start_time": 175.4931818,
                "end_time": 175.8204545,
                "pitch": 47,
                "velocity": 80,
                "duration": 0.3272727,
                "tempo": 120.0
            },
            {
                "start_time": 175.8363636,
                "end_time": 175.9340909,
                "pitch": 52,
                "velocity": 80,
                "duration": 0.0977273,
                "tempo": 120.0
            },
            {
                "start_time": 175.9522727,
                "end_time": 176.2863636,
                "pitch": 52,
                "velocity": 80,
                "duration": 0.3340909,
                "tempo": 120.0
            },
            {
                "start_time": 176.3022727,
                "end_time": 176.4045455,
                "pitch": 47,
                "velocity": 80,
                "duration": 0.1022727,
                "tempo": 120.0
            },
            {
                "start_time": 176.4204545,
                "end_time": 176.5204545,
                "pitch": 47,
                "velocity": 80,
                "duration": 0.1,
                "tempo": 120.0
            },
            {
                "start_time": 176.5386364,
                "end_time": 176.6386364,
                "pitch": 45,
                "velocity": 80,
                "duration": 0.1,
                "tempo": 120.0
            },
            {
                "start_time": 176.6545455,
                "end_time": 176.7545455,
                "pitch": 46,
                "velocity": 80,
                "duration": 0.1,
                "tempo": 120.0
            },
            {
                "start_time": 176.7727273,
                "end_time": 176.8727273,
                "pitch": 47,
                "velocity": 80,
                "duration": 0.1,
                "tempo": 120.0
            },
            {
                "start_time": 176.8886364,
                "end_time": 177.2159091,
                "pitch": 45,
                "velocity": 80,
                "duration": 0.3272727,
                "tempo": 120.0
            },
            {
                "start_time": 177.2340909,
                "end_time": 177.3318182,
                "pitch": 52,
                "velocity": 80,
                "duration": 0.0977273,
                "tempo": 120.0
            },
            {
                "start_time": 177.3477273,
                "end_time": 177.6818182,
                "pitch": 52,
                "velocity": 80,
                "duration": 0.3340909,
                "tempo": 120.0
            },
            {
                "start_time": 177.7,
                "end_time": 177.8,
                "pitch": 45,
                "velocity": 80,
                "duration": 0.1,
                "tempo": 120.0
            },
            {
                "start_time": 177.8159091,
                "end_time": 177.9113636,
                "pitch": 45,
                "velocity": 80,
                "duration": 0.0954545,
                "tempo": 120.0
            },
            {
                "start_time": 178.0409091,
                "end_time": 178.2477273,
                "pitch": 50,
                "velocity": 80,
                "duration": 0.2068182,
                "tempo": 120.0
            },
            {
                "start_time": 178.2636364,
                "end_time": 178.4909091,
                "pitch": 51,
                "velocity": 80,
                "duration": 0.2272727,
                "tempo": 120.0
            },
            {
                "start_time": 178.5068182,
                "end_time": 178.7340909,
                "pitch": 52,
                "velocity": 80,
                "duration": 0.2272727,
                "tempo": 120.0
            },
            {
                "start_time": 178.7522727,
                "end_time": 179.0795455,
                "pitch": 40,
                "velocity": 80,
                "duration": 0.3272727,
                "tempo": 120.0
            },
            {
                "start_time": 179.0954545,
                "end_time": 179.1931818,
                "pitch": 47,
                "velocity": 80,
                "duration": 0.0977273,
                "tempo": 120.0
            },
            {
                "start_time": 179.2090909,
                "end_time": 179.5454545,
                "pitch": 47,
                "velocity": 80,
                "duration": 0.3363636,
                "tempo": 120.0
            },
            {
                "start_time": 179.5613636,
                "end_time": 179.6613636,
                "pitch": 52,
                "velocity": 80,
                "duration": 0.1,
                "tempo": 120.0
            }
        ],
        "Lead 2 (sawtooth)": [
            {
                "start_time": 0.0,
                "end_time": 0.1840909,
                "pitch": 76,
                "velocity": 64,
                "duration": 0.1840909,
                "tempo": 120.0
            },
            {
                "start_time": 0.1977273,
                "end_time": 0.2840909,
                "pitch": 79,
                "velocity": 64,
                "duration": 0.0863636,
                "tempo": 120.0
            },
            {
                "start_time": 0.5318182,
                "end_time": 0.7477273,
                "pitch": 74,
                "velocity": 64,
                "duration": 0.2159091,
                "tempo": 120.0
            },
            {
                "start_time": 0.7659091,
                "end_time": 0.9840909,
                "pitch": 73,
                "velocity": 64,
                "duration": 0.2181818,
                "tempo": 120.0
            },
            {
                "start_time": 1.0,
                "end_time": 1.1,
                "pitch": 76,
                "velocity": 64,
                "duration": 0.1,
                "tempo": 120.0
            },
            {
                "start_time": 1.35,
                "end_time": 1.5613636,
                "pitch": 73,
                "velocity": 64,
                "duration": 0.2113636,
                "tempo": 120.0
            },
            {
                "start_time": 1.5772727,
                "end_time": 1.7909091,
                "pitch": 74,
                "velocity": 64,
                "duration": 0.2136364,
                "tempo": 120.0
            },
            {
                "start_time": 1.8068182,
                "end_time": 2.0204545,
                "pitch": 76,
                "velocity": 64,
                "duration": 0.2136364,
                "tempo": 120.0
            },
            {
                "start_time": 2.0363636,
                "end_time": 2.1340909,
                "pitch": 79,
                "velocity": 64,
                "duration": 0.0977273,
                "tempo": 120.0
            },
            {
                "start_time": 2.3886364,
                "end_time": 2.6090909,
                "pitch": 74,
                "velocity": 64,
                "duration": 0.2204545,
                "tempo": 120.0
            },
            {
                "start_time": 2.6272727,
                "end_time": 2.725,
                "pitch": 73,
                "velocity": 64,
                "duration": 0.0977273,
                "tempo": 120.0
            },
            {
                "start_time": 3.6613636,
                "end_time": 3.8795455,
                "pitch": 76,
                "velocity": 64,
                "duration": 0.2181818,
                "tempo": 120.0
            },
            {
                "start_time": 3.8954545,
                "end_time": 3.9954545,
                "pitch": 79,
                "velocity": 64,
                "duration": 0.1,
                "tempo": 120.0
            },
            {
                "start_time": 4.2477273,
                "end_time": 4.4636364,
                "pitch": 74,
                "velocity": 64,
                "duration": 0.2159091,
                "tempo": 120.0
            },
            {
                "start_time": 4.4818182,
                "end_time": 4.7,
                "pitch": 73,
                "velocity": 64,
                "duration": 0.2181818,
                "tempo": 120.0
            },
            {
                "start_time": 4.7159091,
                "end_time": 4.8159091,
                "pitch": 76,
                "velocity": 64,
                "duration": 0.1,
                "tempo": 120.0
            },
            {
                "start_time": 5.0659091,
                "end_time": 5.2772727,
                "pitch": 73,
                "velocity": 64,
                "duration": 0.2113636,
                "tempo": 120.0
            },
            {
                "start_time": 5.2931818,
                "end_time": 5.5090909,
                "pitch": 74,
                "velocity": 64,
                "duration": 0.2159091,
                "tempo": 120.0
            },
            {
                "start_time": 5.525,
                "end_time": 5.7431818,
                "pitch": 76,
                "velocity": 64,
                "duration": 0.2181818,
                "tempo": 120.0
            },
            {
                "start_time": 5.7613636,
                "end_time": 5.8613636,
                "pitch": 79,
                "velocity": 64,
                "duration": 0.1,
                "tempo": 120.0
            },
            {
                "start_time": 5.8772727,
                "end_time": 5.9772727,
                "pitch": 83,
                "velocity": 64,
                "duration": 0.1,
                "tempo": 120.0
            },
            {
                "start_time": 6.1113636,
                "end_time": 6.3295455,
                "pitch": 74,
                "velocity": 64,
                "duration": 0.2181818,
                "tempo": 120.0
            },
            {
                "start_time": 6.3477273,
                "end_time": 6.4477273,
                "pitch": 73,
                "velocity": 64,
                "duration": 0.1,
                "tempo": 120.0
            },
            {
                "start_time": 7.475,
                "end_time": 7.7045455,
                "pitch": 76,
                "velocity": 64,
                "duration": 0.2295455,
                "tempo": 120.0
            },
            {
                "start_time": 7.7227273,
                "end_time": 7.8295455,
                "pitch": 79,
                "velocity": 64,
                "duration": 0.1068182,
                "tempo": 120.0
            },
            {
                "start_time": 8.0886364,
                "end_time": 8.3068182,
                "pitch": 74,
                "velocity": 64,
                "duration": 0.2181818,
                "tempo": 120.0
            },
            {
                "start_time": 8.3227273,
                "end_time": 8.5386364,
                "pitch": 73,
                "velocity": 64,
                "duration": 0.2159091,
                "tempo": 120.0
            },
            {
                "start_time": 8.5545455,
                "end_time": 8.6522727,
                "pitch": 76,
                "velocity": 64,
                "duration": 0.0977273,
                "tempo": 120.0
            },
            {
                "start_time": 8.8977273,
                "end_time": 9.1159091,
                "pitch": 73,
                "velocity": 64,
                "duration": 0.2181818,
                "tempo": 120.0
            },
            {
                "start_time": 9.1318182,
                "end_time": 9.35,
                "pitch": 74,
                "velocity": 64,
                "duration": 0.2181818,
                "tempo": 120.0
            },
            {
                "start_time": 9.3681818,
                "end_time": 9.5840909,
                "pitch": 76,
                "velocity": 64,
                "duration": 0.2159091,
                "tempo": 120.0
            },
            {
                "start_time": 9.6022727,
                "end_time": 9.7022727,
                "pitch": 79,
                "velocity": 64,
                "duration": 0.1,
                "tempo": 120.0
            },
            {
                "start_time": 9.95,
                "end_time": 10.1636364,
                "pitch": 74,
                "velocity": 64,
                "duration": 0.2136364,
                "tempo": 120.0
            },
            {
                "start_time": 10.1795455,
                "end_time": 10.2772727,
                "pitch": 73,
                "velocity": 64,
                "duration": 0.0977273,
                "tempo": 120.0
            },
            {
                "start_time": 11.2227273,
                "end_time": 11.4386364,
                "pitch": 76,
                "velocity": 64,
                "duration": 0.2159091,
                "tempo": 120.0
            },
            {
                "start_time": 11.4568182,
                "end_time": 11.5568182,
                "pitch": 79,
                "velocity": 64,
                "duration": 0.1,
                "tempo": 120.0
            },
            {
                "start_time": 11.8045455,
                "end_time": 12.0181818,
                "pitch": 74,
                "velocity": 64,
                "duration": 0.2136364,
                "tempo": 120.0
            },
            {
                "start_time": 12.0340909,
                "end_time": 12.25,
                "pitch": 73,
                "velocity": 64,
                "duration": 0.2159091,
                "tempo": 120.0
            },
            {
                "start_time": 12.2659091,
                "end_time": 12.3659091,
                "pitch": 76,
                "velocity": 64,
                "duration": 0.1,
                "tempo": 120.0
            },
            {
                "start_time": 12.6181818,
                "end_time": 12.8386364,
                "pitch": 73,
                "velocity": 64,
                "duration": 0.2204545,
                "tempo": 120.0
            },
            {
                "start_time": 12.8568182,
                "end_time": 13.0772727,
                "pitch": 74,
                "velocity": 64,
                "duration": 0.2204545,
                "tempo": 120.0
            },
            {
                "start_time": 13.0931818,
                "end_time": 13.3113636,
                "pitch": 76,
                "velocity": 64,
                "duration": 0.2181818,
                "tempo": 120.0
            },
            {
                "start_time": 13.3295455,
                "end_time": 13.4295455,
                "pitch": 79,
                "velocity": 64,
                "duration": 0.1,
                "tempo": 120.0
            },
            {
                "start_time": 13.4454545,
                "end_time": 13.5477273,
                "pitch": 83,
                "velocity": 64,
                "duration": 0.1022727,
                "tempo": 120.0
            },
            {
                "start_time": 13.675,
                "end_time": 13.8840909,
                "pitch": 74,
                "velocity": 64,
                "duration": 0.2090909,
                "tempo": 120.0
            },
            {
                "start_time": 13.9,
                "end_time": 13.9954545,
                "pitch": 73,
                "velocity": 64,
                "duration": 0.0954545,
                "tempo": 120.0
            },
            {
                "start_time": 14.95,
                "end_time": 15.1613636,
                "pitch": 76,
                "velocity": 64,
                "duration": 0.2113636,
                "tempo": 120.0
            },
            {
                "start_time": 15.1772727,
                "end_time": 15.2772727,
                "pitch": 79,
                "velocity": 64,
                "duration": 0.1,
                "tempo": 120.0
            },
            {
                "start_time": 15.525,
                "end_time": 15.7431818,
                "pitch": 74,
                "velocity": 64,
                "duration": 0.2181818,
                "tempo": 120.0
            },
            {
                "start_time": 15.7590909,
                "end_time": 15.9772727,
                "pitch": 73,
                "velocity": 64,
                "duration": 0.2181818,
                "tempo": 120.0
            },
            {
                "start_time": 15.9931818,
                "end_time": 16.0931818,
                "pitch": 76,
                "velocity": 64,
                "duration": 0.1,
                "tempo": 120.0
            },
            {
                "start_time": 16.3454545,
                "end_time": 16.5590909,
                "pitch": 73,
                "velocity": 64,
                "duration": 0.2136364,
                "tempo": 120.0
            },
            {
                "start_time": 16.575,
                "end_time": 16.7863636,
                "pitch": 74,
                "velocity": 64,
                "duration": 0.2113636,
                "tempo": 120.0
            },
            {
                "start_time": 16.8045455,
                "end_time": 17.0204545,
                "pitch": 76,
                "velocity": 64,
                "duration": 0.2159091,
                "tempo": 120.0
            },
            {
                "start_time": 17.0386364,
                "end_time": 17.1386364,
                "pitch": 79,
                "velocity": 64,
                "duration": 0.1,
                "tempo": 120.0
            },
            {
                "start_time": 17.3909091,
                "end_time": 17.6068182,
                "pitch": 74,
                "velocity": 64,
                "duration": 0.2159091,
                "tempo": 120.0
            },
            {
                "start_time": 17.625,
                "end_time": 17.725,
                "pitch": 73,
                "velocity": 64,
                "duration": 0.1,
                "tempo": 120.0
            },
            {
                "start_time": 18.6681818,
                "end_time": 18.8818182,
                "pitch": 76,
                "velocity": 64,
                "duration": 0.2136364,
                "tempo": 120.0
            },
            {
                "start_time": 18.8977273,
                "end_time": 18.9954545,
                "pitch": 79,
                "velocity": 64,
                "duration": 0.0977273,
                "tempo": 120.0
            },
            {
                "start_time": 19.2431818,
                "end_time": 19.4613636,
                "pitch": 74,
                "velocity": 64,
                "duration": 0.2181818,
                "tempo": 120.0
            },
            {
                "start_time": 19.4795455,
                "end_time": 19.6977273,
                "pitch": 73,
                "velocity": 64,
                "duration": 0.2181818,
                "tempo": 120.0
            },
            {
                "start_time": 19.7159091,
                "end_time": 19.8181818,
                "pitch": 76,
                "velocity": 64,
                "duration": 0.1022727,
                "tempo": 120.0
            },
            {
                "start_time": 20.0772727,
                "end_time": 20.2886364,
                "pitch": 73,
                "velocity": 64,
                "duration": 0.2113636,
                "tempo": 120.0
            },
            {
                "start_time": 20.3045455,
                "end_time": 20.5181818,
                "pitch": 74,
                "velocity": 64,
                "duration": 0.2136364,
                "tempo": 120.0
            },
            {
                "start_time": 20.5340909,
                "end_time": 20.7522727,
                "pitch": 76,
                "velocity": 64,
                "duration": 0.2181818,
                "tempo": 120.0
            },
            {
                "start_time": 20.7681818,
                "end_time": 20.8704545,
                "pitch": 79,
                "velocity": 64,
                "duration": 0.1022727,
                "tempo": 120.0
            },
            {
                "start_time": 20.8863636,
                "end_time": 20.9863636,
                "pitch": 83,
                "velocity": 64,
                "duration": 0.1,
                "tempo": 120.0
            },
            {
                "start_time": 21.1181818,
                "end_time": 21.3318182,
                "pitch": 74,
                "velocity": 64,
                "duration": 0.2136364,
                "tempo": 120.0
            },
            {
                "start_time": 21.3477273,
                "end_time": 21.4454545,
                "pitch": 73,
                "velocity": 64,
                "duration": 0.0977273,
                "tempo": 120.0
            },
            {
                "start_time": 22.4,
                "end_time": 22.6068182,
                "pitch": 76,
                "velocity": 64,
                "duration": 0.2068182,
                "tempo": 120.0
            },
            {
                "start_time": 22.6227273,
                "end_time": 22.7181818,
                "pitch": 79,
                "velocity": 64,
                "duration": 0.0954545,
                "tempo": 120.0
            },
            {
                "start_time": 22.9659091,
                "end_time": 23.1909091,
                "pitch": 74,
                "velocity": 64,
                "duration": 0.225,
                "tempo": 120.0
            },
            {
                "start_time": 23.2068182,
                "end_time": 23.4272727,
                "pitch": 73,
                "velocity": 64,
                "duration": 0.2204545,
                "tempo": 120.0
            },
            {
                "start_time": 23.4454545,
                "end_time": 23.5454545,
                "pitch": 76,
                "velocity": 64,
                "duration": 0.1,
                "tempo": 120.0
            },
            {
                "start_time": 23.7954545,
                "end_time": 24.0090909,
                "pitch": 73,
                "velocity": 64,
                "duration": 0.2136364,
                "tempo": 120.0
            },
            {
                "start_time": 24.025,
                "end_time": 24.2386364,
                "pitch": 74,
                "velocity": 64,
                "duration": 0.2136364,
                "tempo": 120.0
            },
            {
                "start_time": 24.2545455,
                "end_time": 24.4727273,
                "pitch": 76,
                "velocity": 64,
                "duration": 0.2181818,
                "tempo": 120.0
            },
            {
                "start_time": 24.4886364,
                "end_time": 24.5886364,
                "pitch": 79,
                "velocity": 64,
                "duration": 0.1,
                "tempo": 120.0
            },
            {
                "start_time": 24.8386364,
                "end_time": 25.05,
                "pitch": 74,
                "velocity": 64,
                "duration": 0.2113636,
                "tempo": 120.0
            },
            {
                "start_time": 25.0681818,
                "end_time": 25.1659091,
                "pitch": 73,
                "velocity": 64,
                "duration": 0.0977273,
                "tempo": 120.0
            },
            {
                "start_time": 26.1204545,
                "end_time": 26.3318182,
                "pitch": 76,
                "velocity": 64,
                "duration": 0.2113636,
                "tempo": 120.0
            },
            {
                "start_time": 26.3477273,
                "end_time": 26.4477273,
                "pitch": 79,
                "velocity": 64,
                "duration": 0.1,
                "tempo": 120.0
            },
            {
                "start_time": 26.6954545,
                "end_time": 26.9136364,
                "pitch": 74,
                "velocity": 64,
                "duration": 0.2181818,
                "tempo": 120.0
            },
            {
                "start_time": 26.9295455,
                "end_time": 27.1477273,
                "pitch": 73,
                "velocity": 64,
                "duration": 0.2181818,
                "tempo": 120.0
            },
            {
                "start_time": 27.1636364,
                "end_time": 27.2636364,
                "pitch": 76,
                "velocity": 64,
                "duration": 0.1,
                "tempo": 120.0
            },
            {
                "start_time": 27.5159091,
                "end_time": 27.7295455,
                "pitch": 73,
                "velocity": 64,
                "duration": 0.2136364,
                "tempo": 120.0
            },
            {
                "start_time": 27.7454545,
                "end_time": 27.9568182,
                "pitch": 74,
                "velocity": 64,
                "duration": 0.2113636,
                "tempo": 120.0
            },
            {
                "start_time": 27.975,
                "end_time": 28.1909091,
                "pitch": 76,
                "velocity": 64,
                "duration": 0.2159091,
                "tempo": 120.0
            },
            {
                "start_time": 28.2090909,
                "end_time": 28.3090909,
                "pitch": 79,
                "velocity": 64,
                "duration": 0.1,
                "tempo": 120.0
            },
            {
                "start_time": 28.325,
                "end_time": 28.4272727,
                "pitch": 83,
                "velocity": 64,
                "duration": 0.1022727,
                "tempo": 120.0
            },
            {
                "start_time": 28.5613636,
                "end_time": 28.7772727,
                "pitch": 74,
                "velocity": 64,
                "duration": 0.2159091,
                "tempo": 120.0
            },
            {
                "start_time": 28.7954545,
                "end_time": 28.8954545,
                "pitch": 73,
                "velocity": 64,
                "duration": 0.1,
                "tempo": 120.0
            },
            {
                "start_time": 31.5954545,
                "end_time": 34.9454545,
                "pitch": 47,
                "velocity": 64,
                "duration": 3.35,
                "tempo": 120.0
            },
            {
                "start_time": 35.4204545,
                "end_time": 35.7568182,
                "pitch": 64,
                "velocity": 64,
                "duration": 0.3363636,
                "tempo": 120.0
            },
            {
                "start_time": 35.7727273,
                "end_time": 35.8727273,
                "pitch": 64,
                "velocity": 64,
                "duration": 0.1,
                "tempo": 120.0
            },
            {
                "start_time": 36.125,
                "end_time": 36.3431818,
                "pitch": 64,
                "velocity": 64,
                "duration": 0.2181818,
                "tempo": 120.0
            },
            {
                "start_time": 36.5886364,
                "end_time": 36.6863636,
                "pitch": 62,
                "velocity": 64,
                "duration": 0.0977273,
                "tempo": 120.0
            },
            {
                "start_time": 36.8181818,
                "end_time": 37.0295455,
                "pitch": 64,
                "velocity": 64,
                "duration": 0.2113636,
                "tempo": 120.0
            },
            {
                "start_time": 37.275,
                "end_time": 37.6113636,
                "pitch": 64,
                "velocity": 64,
                "duration": 0.3363636,
                "tempo": 120.0
            },
            {
                "start_time": 37.6272727,
                "end_time": 37.7272727,
                "pitch": 64,
                "velocity": 64,
                "duration": 0.1,
                "tempo": 120.0
            },
            {
                "start_time": 37.9795455,
                "end_time": 38.1977273,
                "pitch": 64,
                "velocity": 64,
                "duration": 0.2181818,
                "tempo": 120.0
            },
            {
                "start_time": 38.4477273,
                "end_time": 38.5477273,
                "pitch": 62,
                "velocity": 64,
                "duration": 0.1,
                "tempo": 120.0
            },
            {
                "start_time": 38.6818182,
                "end_time": 38.8954545,
                "pitch": 64,
                "velocity": 64,
                "duration": 0.2136364,
                "tempo": 120.0
            },
            {
                "start_time": 39.1409091,
                "end_time": 39.475,
                "pitch": 64,
                "velocity": 64,
                "duration": 0.3340909,
                "tempo": 120.0
            },
            {
                "start_time": 39.4931818,
                "end_time": 39.5931818,
                "pitch": 64,
                "velocity": 64,
                "duration": 0.1,
                "tempo": 120.0
            },
            {
                "start_time": 39.8454545,
                "end_time": 40.0613636,
                "pitch": 64,
                "velocity": 64,
                "duration": 0.2159091,
                "tempo": 120.0
            },
            {
                "start_time": 40.3136364,
                "end_time": 40.4136364,
                "pitch": 62,
                "velocity": 64,
                "duration": 0.1,
                "tempo": 120.0
            },
            {
                "start_time": 40.5477273,
                "end_time": 40.7613636,
                "pitch": 64,
                "velocity": 64,
                "duration": 0.2136364,
                "tempo": 120.0
            },
            {
                "start_time": 41.0068182,
                "end_time": 41.3409091,
                "pitch": 64,
                "velocity": 64,
                "duration": 0.3340909,
                "tempo": 120.0
            },
            {
                "start_time": 41.3568182,
                "end_time": 41.4590909,
                "pitch": 64,
                "velocity": 64,
                "duration": 0.1022727,
                "tempo": 120.0
            },
            {
                "start_time": 41.7045455,
                "end_time": 41.9159091,
                "pitch": 64,
                "velocity": 64,
                "duration": 0.2113636,
                "tempo": 120.0
            },
            {
                "start_time": 42.1681818,
                "end_time": 42.2681818,
                "pitch": 62,
                "velocity": 64,
                "duration": 0.1,
                "tempo": 120.0
            },
            {
                "start_time": 42.4022727,
                "end_time": 42.6159091,
                "pitch": 64,
                "velocity": 64,
                "duration": 0.2136364,
                "tempo": 120.0
            },
            {
                "start_time": 42.8613636,
                "end_time": 43.2113636,
                "pitch": 83,
                "velocity": 64,
                "duration": 0.35,
                "tempo": 120.0
            },
            {
                "start_time": 43.2454545,
                "end_time": 43.5636364,
                "pitch": 81,
                "velocity": 64,
                "duration": 0.3181818,
                "tempo": 120.0
            },
            {
                "start_time": 43.5977273,
                "end_time": 43.7977273,
                "pitch": 86,
                "velocity": 64,
                "duration": 0.2,
                "tempo": 120.0
            },
            {
                "start_time": 43.8318182,
                "end_time": 44.15,
                "pitch": 83,
                "velocity": 64,
                "duration": 0.3181818,
                "tempo": 120.0
            },
            {
                "start_time": 44.1840909,
                "end_time": 44.5022727,
                "pitch": 81,
                "velocity": 64,
                "duration": 0.3181818,
                "tempo": 120.0
            },
            {
                "start_time": 44.5363636,
                "end_time": 44.7363636,
                "pitch": 79,
                "velocity": 64,
                "duration": 0.2,
                "tempo": 120.0
            },
            {
                "start_time": 44.7681818,
                "end_time": 45.0795455,
                "pitch": 81,
                "velocity": 64,
                "duration": 0.3113636,
                "tempo": 120.0
            },
            {
                "start_time": 45.1136364,
                "end_time": 45.4295455,
                "pitch": 78,
                "velocity": 64,
                "duration": 0.3159091,
                "tempo": 120.0
            },
            {
                "start_time": 45.4636364,
                "end_time": 46.1227273,
                "pitch": 74,
                "velocity": 64,
                "duration": 0.6590909,
                "tempo": 120.0
            },
            {
                "start_time": 46.625,
                "end_time": 46.9431818,
                "pitch": 79,
                "velocity": 64,
                "duration": 0.3181818,
                "tempo": 120.0
            },
            {
                "start_time": 46.975,
                "end_time": 47.2931818,
                "pitch": 78,
                "velocity": 64,
                "duration": 0.3181818,
                "tempo": 120.0
            },
            {
                "start_time": 47.3272727,
                "end_time": 47.5295455,
                "pitch": 81,
                "velocity": 64,
                "duration": 0.2022727,
                "tempo": 120.0
            },
            {
                "start_time": 47.5613636,
                "end_time": 47.8727273,
                "pitch": 79,
                "velocity": 64,
                "duration": 0.3113636,
                "tempo": 120.0
            },
            {
                "start_time": 47.9045455,
                "end_time": 48.2204545,
                "pitch": 78,
                "velocity": 64,
                "duration": 0.3159091,
                "tempo": 120.0
            },
            {
                "start_time": 48.2545455,
                "end_time": 48.4568182,
                "pitch": 71,
                "velocity": 64,
                "duration": 0.2022727,
                "tempo": 120.0
            },
            {
                "start_time": 48.4886364,
                "end_time": 48.8,
                "pitch": 76,
                "velocity": 64,
                "duration": 0.3113636,
                "tempo": 120.0
            },
            {
                "start_time": 48.8318182,
                "end_time": 48.9136364,
                "pitch": 78,
                "velocity": 64,
                "duration": 0.0818182,
                "tempo": 120.0
            },
            {
                "start_time": 48.9477273,
                "end_time": 49.8522727,
                "pitch": 76,
                "velocity": 64,
                "duration": 0.9045455,
                "tempo": 120.0
            },
            {
                "start_time": 50.3431818,
                "end_time": 50.6613636,
                "pitch": 83,
                "velocity": 64,
                "duration": 0.3181818,
                "tempo": 120.0
            },
            {
                "start_time": 50.6954545,
                "end_time": 51.0136364,
                "pitch": 81,
                "velocity": 64,
                "duration": 0.3181818,
                "tempo": 120.0
            },
            {
                "start_time": 51.0477273,
                "end_time": 51.2477273,
                "pitch": 86,
                "velocity": 64,
                "duration": 0.2,
                "tempo": 120.0
            },
            {
                "start_time": 51.2818182,
                "end_time": 51.5909091,
                "pitch": 83,
                "velocity": 64,
                "duration": 0.3090909,
                "tempo": 120.0
            },
            {
                "start_time": 51.625,
                "end_time": 51.9454545,
                "pitch": 81,
                "velocity": 64,
                "duration": 0.3204545,
                "tempo": 120.0
            },
            {
                "start_time": 51.9795455,
                "end_time": 52.1863636,
                "pitch": 79,
                "velocity": 64,
                "duration": 0.2068182,
                "tempo": 120.0
            },
            {
                "start_time": 52.2181818,
                "end_time": 52.5295455,
                "pitch": 81,
                "velocity": 64,
                "duration": 0.3113636,
                "tempo": 120.0
            },
            {
                "start_time": 52.5636364,
                "end_time": 52.8795455,
                "pitch": 78,
                "velocity": 64,
                "duration": 0.3159091,
                "tempo": 120.0
            },
            {
                "start_time": 52.9113636,
                "end_time": 53.5727273,
                "pitch": 74,
                "velocity": 64,
                "duration": 0.6613636,
                "tempo": 120.0
            },
            {
                "start_time": 54.0727273,
                "end_time": 54.3840909,
                "pitch": 79,
                "velocity": 64,
                "duration": 0.3113636,
                "tempo": 120.0
            },
            {
                "start_time": 54.4159091,
                "end_time": 54.7340909,
                "pitch": 78,
                "velocity": 64,
                "duration": 0.3181818,
                "tempo": 120.0
            },
            {
                "start_time": 54.7659091,
                "end_time": 54.9681818,
                "pitch": 81,
                "velocity": 64,
                "duration": 0.2022727,
                "tempo": 120.0
            },
            {
                "start_time": 55.0022727,
                "end_time": 55.3204545,
                "pitch": 79,
                "velocity": 64,
                "duration": 0.3181818,
                "tempo": 120.0
            },
            {
                "start_time": 55.3522727,
                "end_time": 55.6704545,
                "pitch": 78,
                "velocity": 64,
                "duration": 0.3181818,
                "tempo": 120.0
            },
            {
                "start_time": 55.7045455,
                "end_time": 55.7886364,
                "pitch": 71,
                "velocity": 64,
                "duration": 0.0840909,
                "tempo": 120.0
            },
            {
                "start_time": 55.8227273,
                "end_time": 55.9068182,
                "pitch": 74,
                "velocity": 64,
                "duration": 0.0840909,
                "tempo": 120.0
            },
            {
                "start_time": 55.9386364,
                "end_time": 56.25,
                "pitch": 78,
                "velocity": 64,
                "duration": 0.3113636,
                "tempo": 120.0
            },
            {
                "start_time": 56.2818182,
                "end_time": 57.4159091,
                "pitch": 76,
                "velocity": 64,
                "duration": 1.1340909,
                "tempo": 120.0
            },
            {
                "start_time": 57.45,
                "end_time": 57.7431818,
                "pitch": 74,
                "velocity": 64,
                "duration": 0.2931818,
                "tempo": 120.0
            },
            {
                "start_time": 57.7590909,
                "end_time": 58.3431818,
                "pitch": 72,
                "velocity": 64,
                "duration": 0.5840909,
                "tempo": 120.0
            },
            {
                "start_time": 58.3772727,
                "end_time": 58.5727273,
                "pitch": 74,
                "velocity": 64,
                "duration": 0.1954545,
                "tempo": 120.0
            },
            {
                "start_time": 58.6045455,
                "end_time": 58.6863636,
                "pitch": 76,
                "velocity": 64,
                "duration": 0.0818182,
                "tempo": 120.0
            },
            {
                "start_time": 58.7204545,
                "end_time": 59.1568182,
                "pitch": 74,
                "velocity": 64,
                "duration": 0.4363636,
                "tempo": 120.0
            },
            {
                "start_time": 59.1886364,
                "end_time": 59.3909091,
                "pitch": 72,
                "velocity": 64,
                "duration": 0.2022727,
                "tempo": 120.0
            },
            {
                "start_time": 59.425,
                "end_time": 59.625,
                "pitch": 71,
                "velocity": 64,
                "duration": 0.2,
                "tempo": 120.0
            },
            {
                "start_time": 59.6568182,
                "end_time": 59.9681818,
                "pitch": 69,
                "velocity": 64,
                "duration": 0.3113636,
                "tempo": 120.0
            },
            {
                "start_time": 60.0022727,
                "end_time": 60.0840909,
                "pitch": 71,
                "velocity": 64,
                "duration": 0.0818182,
                "tempo": 120.0
            },
            {
                "start_time": 60.1159091,
                "end_time": 61.0113636,
                "pitch": 67,
                "velocity": 64,
                "duration": 0.8954545,
                "tempo": 120.0
            },
            {
                "start_time": 61.5136364,
                "end_time": 62.0659091,
                "pitch": 72,
                "velocity": 64,
                "duration": 0.5522727,
                "tempo": 120.0
            },
            {
                "start_time": 62.1,
                "end_time": 62.3,
                "pitch": 74,
                "velocity": 64,
                "duration": 0.2,
                "tempo": 120.0
            },
            {
                "start_time": 62.3340909,
                "end_time": 62.4181818,
                "pitch": 76,
                "velocity": 64,
                "duration": 0.0840909,
                "tempo": 120.0
            },
            {
                "start_time": 62.45,
                "end_time": 62.875,
                "pitch": 74,
                "velocity": 64,
                "duration": 0.425,
                "tempo": 120.0
            },
            {
                "start_time": 62.9090909,
                "end_time": 63.1113636,
                "pitch": 71,
                "velocity": 64,
                "duration": 0.2022727,
                "tempo": 120.0
            },
            {
                "start_time": 63.1431818,
                "end_time": 63.3454545,
                "pitch": 79,
                "velocity": 64,
                "duration": 0.2022727,
                "tempo": 120.0
            },
            {
                "start_time": 63.3772727,
                "end_time": 63.6954545,
                "pitch": 78,
                "velocity": 64,
                "duration": 0.3181818,
                "tempo": 120.0
            },
            {
                "start_time": 63.7295455,
                "end_time": 64.8590909,
                "pitch": 76,
                "velocity": 64,
                "duration": 1.1295455,
                "tempo": 120.0
            },
            {
                "start_time": 64.8909091,
                "end_time": 65.2090909,
                "pitch": 74,
                "velocity": 64,
                "duration": 0.3181818,
                "tempo": 120.0
            },
            {
                "start_time": 65.2431818,
                "end_time": 65.7863636,
                "pitch": 72,
                "velocity": 64,
                "duration": 0.5431818,
                "tempo": 120.0
            },
            {
                "start_time": 65.8181818,
                "end_time": 66.0204545,
                "pitch": 74,
                "velocity": 64,
                "duration": 0.2022727,
                "tempo": 120.0
            },
            {
                "start_time": 66.0522727,
                "end_time": 66.1363636,
                "pitch": 76,
                "velocity": 64,
                "duration": 0.0840909,
                "tempo": 120.0
            },
            {
                "start_time": 66.1704545,
                "end_time": 66.6068182,
                "pitch": 74,
                "velocity": 64,
                "duration": 0.4363636,
                "tempo": 120.0
            },
            {
                "start_time": 66.6386364,
                "end_time": 66.8340909,
                "pitch": 72,
                "velocity": 64,
                "duration": 0.1954545,
                "tempo": 120.0
            },
            {
                "start_time": 66.8681818,
                "end_time": 67.0636364,
                "pitch": 71,
                "velocity": 64,
                "duration": 0.1954545,
                "tempo": 120.0
            },
            {
                "start_time": 67.0977273,
                "end_time": 67.4159091,
                "pitch": 69,
                "velocity": 64,
                "duration": 0.3181818,
                "tempo": 120.0
            },
            {
                "start_time": 67.45,
                "end_time": 67.5340909,
                "pitch": 71,
                "velocity": 64,
                "duration": 0.0840909,
                "tempo": 120.0
            },
            {
                "start_time": 67.5659091,
                "end_time": 68.5772727,
                "pitch": 67,
                "velocity": 64,
                "duration": 1.0113636,
                "tempo": 120.0
            },
            {
                "start_time": 68.6113636,
                "end_time": 68.9295455,
                "pitch": 71,
                "velocity": 64,
                "duration": 0.3181818,
                "tempo": 120.0
            },
            {
                "start_time": 68.9636364,
                "end_time": 69.5136364,
                "pitch": 72,
                "velocity": 64,
                "duration": 0.55,
                "tempo": 120.0
            },
            {
                "start_time": 69.5454545,
                "end_time": 69.7409091,
                "pitch": 74,
                "velocity": 64,
                "duration": 0.1954545,
                "tempo": 120.0
            },
            {
                "start_time": 69.775,
                "end_time": 69.8568182,
                "pitch": 76,
                "velocity": 64,
                "duration": 0.0818182,
                "tempo": 120.0
            },
            {
                "start_time": 69.8909091,
                "end_time": 70.325,
                "pitch": 74,
                "velocity": 64,
                "duration": 0.4340909,
                "tempo": 120.0
            },
            {
                "start_time": 70.3590909,
                "end_time": 70.5590909,
                "pitch": 71,
                "velocity": 64,
                "duration": 0.2,
                "tempo": 120.0
            },
            {
                "start_time": 70.5931818,
                "end_time": 70.7954545,
                "pitch": 79,
                "velocity": 64,
                "duration": 0.2022727,
                "tempo": 120.0
            },
            {
                "start_time": 70.8272727,
                "end_time": 71.1386364,
                "pitch": 78,
                "velocity": 64,
                "duration": 0.3113636,
                "tempo": 120.0
            },
            {
                "start_time": 71.1704545,
                "end_time": 72.1909091,
                "pitch": 76,
                "velocity": 64,
                "duration": 1.0204545,
                "tempo": 120.0
            },
            {
                "start_time": 72.65,
                "end_time": 72.8659091,
                "pitch": 67,
                "velocity": 64,
                "duration": 0.2159091,
                "tempo": 120.0
            },
            {
                "start_time": 76.3681818,
                "end_time": 76.7045455,
                "pitch": 64,
                "velocity": 64,
                "duration": 0.3363636,
                "tempo": 120.0
            },
            {
                "start_time": 76.7204545,
                "end_time": 76.8204545,
                "pitch": 64,
                "velocity": 64,
                "duration": 0.1,
                "tempo": 120.0
            },
            {
                "start_time": 77.0727273,
                "end_time": 77.2909091,
                "pitch": 64,
                "velocity": 64,
                "duration": 0.2181818,
                "tempo": 120.0
            },
            {
                "start_time": 77.5409091,
                "end_time": 77.6409091,
                "pitch": 62,
                "velocity": 64,
                "duration": 0.1,
                "tempo": 120.0
            },
            {
                "start_time": 77.775,
                "end_time": 77.9886364,
                "pitch": 64,
                "velocity": 64,
                "duration": 0.2136364,
                "tempo": 120.0
            },
            {
                "start_time": 78.2340909,
                "end_time": 78.5681818,
                "pitch": 64,
                "velocity": 64,
                "duration": 0.3340909,
                "tempo": 120.0
            },
            {
                "start_time": 78.5863636,
                "end_time": 78.6863636,
                "pitch": 64,
                "velocity": 64,
                "duration": 0.1,
                "tempo": 120.0
            },
            {
                "start_time": 78.9386364,
                "end_time": 79.1545455,
                "pitch": 64,
                "velocity": 64,
                "duration": 0.2159091,
                "tempo": 120.0
            },
            {
                "start_time": 79.4068182,
                "end_time": 79.5068182,
                "pitch": 62,
                "velocity": 64,
                "duration": 0.1,
                "tempo": 120.0
            },
            {
                "start_time": 79.6409091,
                "end_time": 79.8545455,
                "pitch": 64,
                "velocity": 64,
                "duration": 0.2136364,
                "tempo": 120.0
            },
            {
                "start_time": 80.1,
                "end_time": 80.4272727,
                "pitch": 64,
                "velocity": 64,
                "duration": 0.3272727,
                "tempo": 120.0
            },
            {
                "start_time": 80.4431818,
                "end_time": 80.5409091,
                "pitch": 64,
                "velocity": 64,
                "duration": 0.0977273,
                "tempo": 120.0
            },
            {
                "start_time": 80.7931818,
                "end_time": 81.0090909,
                "pitch": 64,
                "velocity": 64,
                "duration": 0.2159091,
                "tempo": 120.0
            },
            {
                "start_time": 81.2613636,
                "end_time": 81.3613636,
                "pitch": 62,
                "velocity": 64,
                "duration": 0.1,
                "tempo": 120.0
            },
            {
                "start_time": 81.4954545,
                "end_time": 81.7090909,
                "pitch": 64,
                "velocity": 64,
                "duration": 0.2136364,
                "tempo": 120.0
            },
            {
                "start_time": 81.9545455,
                "end_time": 82.2886364,
                "pitch": 64,
                "velocity": 64,
                "duration": 0.3340909,
                "tempo": 120.0
            },
            {
                "start_time": 82.3045455,
                "end_time": 82.4068182,
                "pitch": 64,
                "velocity": 64,
                "duration": 0.1022727,
                "tempo": 120.0
            },
            {
                "start_time": 82.6568182,
                "end_time": 82.875,
                "pitch": 64,
                "velocity": 64,
                "duration": 0.2181818,
                "tempo": 120.0
            },
            {
                "start_time": 83.1272727,
                "end_time": 83.2272727,
                "pitch": 62,
                "velocity": 64,
                "duration": 0.1,
                "tempo": 120.0
            },
            {
                "start_time": 83.3613636,
                "end_time": 83.5727273,
                "pitch": 64,
                "velocity": 64,
                "duration": 0.2113636,
                "tempo": 120.0
            },
            {
                "start_time": 83.8181818,
                "end_time": 84.1704545,
                "pitch": 83,
                "velocity": 64,
                "duration": 0.3522727,
                "tempo": 120.0
            },
            {
                "start_time": 84.2045455,
                "end_time": 84.5227273,
                "pitch": 81,
                "velocity": 64,
                "duration": 0.3181818,
                "tempo": 120.0
            },
            {
                "start_time": 84.5568182,
                "end_time": 84.7568182,
                "pitch": 86,
                "velocity": 64,
                "duration": 0.2,
                "tempo": 120.0
            },
            {
                "start_time": 84.7886364,
                "end_time": 85.1,
                "pitch": 83,
                "velocity": 64,
                "duration": 0.3113636,
                "tempo": 120.0
            },
            {
                "start_time": 85.1340909,
                "end_time": 85.45,
                "pitch": 81,
                "velocity": 64,
                "duration": 0.3159091,
                "tempo": 120.0
            },
            {
                "start_time": 85.4840909,
                "end_time": 85.6840909,
                "pitch": 79,
                "velocity": 64,
                "duration": 0.2,
                "tempo": 120.0
            },
            {
                "start_time": 85.7181818,
                "end_time": 86.0363636,
                "pitch": 81,
                "velocity": 64,
                "duration": 0.3181818,
                "tempo": 120.0
            },
            {
                "start_time": 86.0704545,
                "end_time": 86.3886364,
                "pitch": 78,
                "velocity": 64,
                "duration": 0.3181818,
                "tempo": 120.0
            },
            {
                "start_time": 86.4204545,
                "end_time": 87.0795455,
                "pitch": 74,
                "velocity": 64,
                "duration": 0.6590909,
                "tempo": 120.0
            },
            {
                "start_time": 87.5818182,
                "end_time": 87.8931818,
                "pitch": 79,
                "velocity": 64,
                "duration": 0.3113636,
                "tempo": 120.0
            },
            {
                "start_time": 87.925,
                "end_time": 88.2409091,
                "pitch": 78,
                "velocity": 64,
                "duration": 0.3159091,
                "tempo": 120.0
            },
            {
                "start_time": 88.275,
                "end_time": 88.4772727,
                "pitch": 81,
                "velocity": 64,
                "duration": 0.2022727,
                "tempo": 120.0
            },
            {
                "start_time": 88.5090909,
                "end_time": 88.8272727,
                "pitch": 79,
                "velocity": 64,
                "duration": 0.3181818,
                "tempo": 120.0
            },
            {
                "start_time": 88.8613636,
                "end_time": 89.1795455,
                "pitch": 78,
                "velocity": 64,
                "duration": 0.3181818,
                "tempo": 120.0
            },
            {
                "start_time": 89.2136364,
                "end_time": 89.4136364,
                "pitch": 71,
                "velocity": 64,
                "duration": 0.2,
                "tempo": 120.0
            },
            {
                "start_time": 89.4477273,
                "end_time": 89.7590909,
                "pitch": 76,
                "velocity": 64,
                "duration": 0.3113636,
                "tempo": 120.0
            },
            {
                "start_time": 89.7909091,
                "end_time": 89.8727273,
                "pitch": 78,
                "velocity": 64,
                "duration": 0.0818182,
                "tempo": 120.0
            },
            {
                "start_time": 89.9068182,
                "end_time": 90.8,
                "pitch": 76,
                "velocity": 64,
                "duration": 0.8931818,
                "tempo": 120.0
            },
            {
                "start_time": 91.3022727,
                "end_time": 91.6204545,
                "pitch": 83,
                "velocity": 64,
                "duration": 0.3181818,
                "tempo": 120.0
            },
            {
                "start_time": 91.6545455,
                "end_time": 91.9727273,
                "pitch": 81,
                "velocity": 64,
                "duration": 0.3181818,
                "tempo": 120.0
            },
            {
                "start_time": 92.0068182,
                "end_time": 92.2068182,
                "pitch": 86,
                "velocity": 64,
                "duration": 0.2,
                "tempo": 120.0
            },
            {
                "start_time": 92.2386364,
                "end_time": 92.55,
                "pitch": 83,
                "velocity": 64,
                "duration": 0.3113636,
                "tempo": 120.0
            },
            {
                "start_time": 92.5840909,
                "end_time": 92.9,
                "pitch": 81,
                "velocity": 64,
                "duration": 0.3159091,
                "tempo": 120.0
            },
            {
                "start_time": 92.9340909,
                "end_time": 93.1340909,
                "pitch": 79,
                "velocity": 64,
                "duration": 0.2,
                "tempo": 120.0
            },
            {
                "start_time": 93.1659091,
                "end_time": 93.4772727,
                "pitch": 81,
                "velocity": 64,
                "duration": 0.3113636,
                "tempo": 120.0
            },
            {
                "start_time": 93.5113636,
                "end_time": 93.8272727,
                "pitch": 78,
                "velocity": 64,
                "duration": 0.3159091,
                "tempo": 120.0
            },
            {
                "start_time": 93.8590909,
                "end_time": 94.5295455,
                "pitch": 74,
                "velocity": 64,
                "duration": 0.6704545,
                "tempo": 120.0
            },
            {
                "start_time": 95.0318182,
                "end_time": 95.3431818,
                "pitch": 79,
                "velocity": 64,
                "duration": 0.3113636,
                "tempo": 120.0
            },
            {
                "start_time": 95.375,
                "end_time": 95.6909091,
                "pitch": 78,
                "velocity": 64,
                "duration": 0.3159091,
                "tempo": 120.0
            },
            {
                "start_time": 95.725,
                "end_time": 95.9272727,
                "pitch": 81,
                "velocity": 64,
                "duration": 0.2022727,
                "tempo": 120.0
            },
            {
                "start_time": 95.9590909,
                "end_time": 96.2704545,
                "pitch": 79,
                "velocity": 64,
                "duration": 0.3113636,
                "tempo": 120.0
            },
            {
                "start_time": 96.3022727,
                "end_time": 96.6181818,
                "pitch": 78,
                "velocity": 64,
                "duration": 0.3159091,
                "tempo": 120.0
            },
            {
                "start_time": 96.6522727,
                "end_time": 96.7363636,
                "pitch": 71,
                "velocity": 64,
                "duration": 0.0840909,
                "tempo": 120.0
            },
            {
                "start_time": 96.7704545,
                "end_time": 96.8545455,
                "pitch": 74,
                "velocity": 64,
                "duration": 0.0840909,
                "tempo": 120.0
            },
            {
                "start_time": 96.8863636,
                "end_time": 97.2045455,
                "pitch": 78,
                "velocity": 64,
                "duration": 0.3181818,
                "tempo": 120.0
            },
            {
                "start_time": 97.2386364,
                "end_time": 98.375,
                "pitch": 76,
                "velocity": 64,
                "duration": 1.1363636,
                "tempo": 120.0
            },
            {
                "start_time": 98.4068182,
                "end_time": 98.7022727,
                "pitch": 74,
                "velocity": 64,
                "duration": 0.2954545,
                "tempo": 120.0
            },
            {
                "start_time": 98.7181818,
                "end_time": 99.2954545,
                "pitch": 72,
                "velocity": 64,
                "duration": 0.5772727,
                "tempo": 120.0
            },
            {
                "start_time": 99.3272727,
                "end_time": 99.5295455,
                "pitch": 74,
                "velocity": 64,
                "duration": 0.2022727,
                "tempo": 120.0
            },
            {
                "start_time": 99.5613636,
                "end_time": 99.6454545,
                "pitch": 76,
                "velocity": 64,
                "duration": 0.0840909,
                "tempo": 120.0
            },
            {
                "start_time": 99.6795455,
                "end_time": 100.1159091,
                "pitch": 74,
                "velocity": 64,
                "duration": 0.4363636,
                "tempo": 120.0
            },
            {
                "start_time": 100.1477273,
                "end_time": 100.3431818,
                "pitch": 72,
                "velocity": 64,
                "duration": 0.1954545,
                "tempo": 120.0
            },
            {
                "start_time": 100.3772727,
                "end_time": 100.5727273,
                "pitch": 71,
                "velocity": 64,
                "duration": 0.1954545,
                "tempo": 120.0
            },
            {
                "start_time": 100.6068182,
                "end_time": 100.925,
                "pitch": 69,
                "velocity": 64,
                "duration": 0.3181818,
                "tempo": 120.0
            },
            {
                "start_time": 100.9590909,
                "end_time": 101.0431818,
                "pitch": 71,
                "velocity": 64,
                "duration": 0.0840909,
                "tempo": 120.0
            },
            {
                "start_time": 101.075,
                "end_time": 101.9704545,
                "pitch": 67,
                "velocity": 64,
                "duration": 0.8954545,
                "tempo": 120.0
            },
            {
                "start_time": 102.4727273,
                "end_time": 103.0227273,
                "pitch": 72,
                "velocity": 64,
                "duration": 0.55,
                "tempo": 120.0
            },
            {
                "start_time": 103.0545455,
                "end_time": 103.25,
                "pitch": 74,
                "velocity": 64,
                "duration": 0.1954545,
                "tempo": 120.0
            },
            {
                "start_time": 103.2840909,
                "end_time": 103.3659091,
                "pitch": 76,
                "velocity": 64,
                "duration": 0.0818182,
                "tempo": 120.0
            },
            {
                "start_time": 103.4,
                "end_time": 103.8340909,
                "pitch": 74,
                "velocity": 64,
                "duration": 0.4340909,
                "tempo": 120.0
            },
            {
                "start_time": 103.8681818,
                "end_time": 104.0636364,
                "pitch": 71,
                "velocity": 64,
                "duration": 0.1954545,
                "tempo": 120.0
            },
            {
                "start_time": 104.0954545,
                "end_time": 104.2931818,
                "pitch": 79,
                "velocity": 64,
                "duration": 0.1977273,
                "tempo": 120.0
            },
            {
                "start_time": 104.3272727,
                "end_time": 104.6454545,
                "pitch": 78,
                "velocity": 64,
                "duration": 0.3181818,
                "tempo": 120.0
            },
            {
                "start_time": 104.6772727,
                "end_time": 105.8068182,
                "pitch": 76,
                "velocity": 64,
                "duration": 1.1295455,
                "tempo": 120.0
            },
            {
                "start_time": 105.8386364,
                "end_time": 106.1568182,
                "pitch": 74,
                "velocity": 64,
                "duration": 0.3181818,
                "tempo": 120.0
            },
            {
                "start_time": 106.1909091,
                "end_time": 106.7431818,
                "pitch": 72,
                "velocity": 64,
                "duration": 0.5522727,
                "tempo": 120.0
            },
            {
                "start_time": 106.7772727,
                "end_time": 106.9795455,
                "pitch": 74,
                "velocity": 64,
                "duration": 0.2022727,
                "tempo": 120.0
            },
            {
                "start_time": 107.0113636,
                "end_time": 107.0954545,
                "pitch": 76,
                "velocity": 64,
                "duration": 0.0840909,
                "tempo": 120.0
            },
            {
                "start_time": 107.1295455,
                "end_time": 107.5545455,
                "pitch": 74,
                "velocity": 64,
                "duration": 0.425,
                "tempo": 120.0
            },
            {
                "start_time": 107.5886364,
                "end_time": 107.7886364,
                "pitch": 72,
                "velocity": 64,
                "duration": 0.2,
                "tempo": 120.0
            },
            {
                "start_time": 107.8227273,
                "end_time": 108.0227273,
                "pitch": 71,
                "velocity": 64,
                "duration": 0.2,
                "tempo": 120.0
            },
            {
                "start_time": 108.0568182,
                "end_time": 108.375,
                "pitch": 69,
                "velocity": 64,
                "duration": 0.3181818,
                "tempo": 120.0
            },
            {
                "start_time": 108.4090909,
                "end_time": 108.4909091,
                "pitch": 71,
                "velocity": 64,
                "duration": 0.0818182,
                "tempo": 120.0
            },
            {
                "start_time": 108.525,
                "end_time": 109.5363636,
                "pitch": 67,
                "velocity": 64,
                "duration": 1.0113636,
                "tempo": 120.0
            },
            {
                "start_time": 109.5704545,
                "end_time": 109.8886364,
                "pitch": 71,
                "velocity": 64,
                "duration": 0.3181818,
                "tempo": 120.0
            },
            {
                "start_time": 109.9204545,
                "end_time": 110.4636364,
                "pitch": 72,
                "velocity": 64,
                "duration": 0.5431818,
                "tempo": 120.0
            },
            {
                "start_time": 110.4977273,
                "end_time": 110.6977273,
                "pitch": 74,
                "velocity": 64,
                "duration": 0.2,
                "tempo": 120.0
            },
            {
                "start_time": 110.7318182,
                "end_time": 110.8159091,
                "pitch": 76,
                "velocity": 64,
                "duration": 0.0840909,
                "tempo": 120.0
            },
            {
                "start_time": 110.85,
                "end_time": 111.2840909,
                "pitch": 74,
                "velocity": 64,
                "duration": 0.4340909,
                "tempo": 120.0
            },
            {
                "start_time": 111.3181818,
                "end_time": 111.5136364,
                "pitch": 71,
                "velocity": 64,
                "duration": 0.1954545,
                "tempo": 120.0
            },
            {
                "start_time": 111.5454545,
                "end_time": 111.7431818,
                "pitch": 79,
                "velocity": 64,
                "duration": 0.1977273,
                "tempo": 120.0
            },
            {
                "start_time": 111.775,
                "end_time": 112.0954545,
                "pitch": 78,
                "velocity": 64,
                "duration": 0.3204545,
                "tempo": 120.0
            },
            {
                "start_time": 112.1272727,
                "end_time": 113.1386364,
                "pitch": 76,
                "velocity": 64,
                "duration": 1.0113636,
                "tempo": 120.0
            },
            {
                "start_time": 113.6068182,
                "end_time": 113.825,
                "pitch": 67,
                "velocity": 64,
                "duration": 0.2181818,
                "tempo": 120.0
            }
        ]
    }
}