{
    "mood": "happy",
    "instruments": {
        "Flute": [
            {
                "start_time": 0.0159091,
                "end_time": 4.2204545,
                "pitch": 0,
                "velocity": 101,
                "duration": 4.2045455,
                "tempo": 120.0
            },
            {
                "start_time": 4.2545455,
                "end_time": 8.4704545,
                "pitch": 0,
                "velocity": 101,
                "duration": 4.2159091,
                "tempo": 120.0
            },
            {
                "start_time": 8.5045455,
                "end_time": 12.7227273,
                "pitch": 0,
                "velocity": 101,
                "duration": 4.2181818,
                "tempo": 120.0
            },
            {
                "start_time": 12.7568182,
                "end_time": 12.925,
                "pitch": 0,
                "velocity": 101,
                "duration": 0.1681818,
                "tempo": 120.0
            },
            {
                "start_time": 12.9568182,
                "end_time": 13.0227273,
                "pitch": 57,
                "velocity": 101,
                "duration": 0.0659091,
                "tempo": 120.0
            },
            {
                "start_time": 13.0545455,
                "end_time": 13.1204545,
                "pitch": 0,
                "velocity": 101,
                "duration": 0.0659091,
                "tempo": 120.0
            },
            {
                "start_time": 13.1522727,
                "end_time": 13.2181818,
                "pitch": 59,
                "velocity": 101,
                "duration": 0.0659091,
                "tempo": 120.0
            },
            {
                "start_time": 13.2522727,
                "end_time": 13.3181818,
                "pitch": 0,
                "velocity": 101,
                "duration": 0.0659091,
                "tempo": 120.0
            },
            {
                "start_time": 13.3522727,
                "end_time": 13.4181818,
                "pitch": 62,
                "velocity": 101,
                "duration": 0.0659091,
                "tempo": 120.0
            },
            {
                "start_time": 13.4522727,
                "end_time": 13.5204545,
                "pitch": 0,
                "velocity": 101,
                "duration": 0.0681818,
                "tempo": 120.0
            },
            {
                "start_time": 13.5545455,
                "end_time": 13.6204545,
                "pitch": 66,
                "velocity": 101,
                "duration": 0.0659091,
                "tempo": 120.0
            },
            {
                "start_time": 13.6545455,
                "end_time": 13.7227273,
                "pitch": 0,
                "velocity": 101,
                "duration": 0.0681818,
                "tempo": 120.0
            },
            {
                "start_time": 13.7568182,
                "end_time": 13.825,
                "pitch": 69,
                "velocity": 101,
                "duration": 0.0681818,
                "tempo": 120.0
            },
            {
                "start_time": 13.8590909,
                "end_time": 13.9295455,
                "pitch": 0,
                "velocity": 101,
                "duration": 0.0704545,
                "tempo": 120.0
            },
            {
                "start_time": 13.9636364,
                "end_time": 14.0318182,
                "pitch": 73,
                "velocity": 101,
                "duration": 0.0681818,
                "tempo": 120.0
            },
            {
                "start_time": 14.0636364,
                "end_time": 14.1295455,
                "pitch": 0,
                "velocity": 101,
                "duration": 0.0659091,
                "tempo": 120.0
            },
            {
                "start_time": 14.1613636,
                "end_time": 14.2272727,
                "pitch": 74,
                "velocity": 101,
                "duration": 0.0659091,
                "tempo": 120.0
            },
            {
                "start_time": 14.2613636,
                "end_time": 14.325,
                "pitch": 0,
                "velocity": 101,
                "duration": 0.0636364,
                "tempo": 120.0
            },
            {
                "start_time": 14.3590909,
                "end_time": 14.4227273,
                "pitch": 75,
                "velocity": 101,
                "duration": 0.0636364,
                "tempo": 120.0
            },
            {
                "start_time": 14.4568182,
                "end_time": 16.0363636,
                "pitch": 76,
                "velocity": 101,
                "duration": 1.5795455,
                "tempo": 120.0
            },
            {
                "start_time": 16.0704545,
                "end_time": 16.3386364,
                "pitch": 0,
                "velocity": 101,
                "duration": 0.2681818,
                "tempo": 120.0
            },
            {
                "start_time": 16.3727273,
                "end_time": 16.6409091,
                "pitch": 76,
                "velocity": 101,
                "duration": 0.2681818,
                "tempo": 120.0
            },
            {
                "start_time": 16.6727273,
                "end_time": 16.9409091,
                "pitch": 68,
                "velocity": 101,
                "duration": 0.2681818,
                "tempo": 120.0
            },
            {
                "start_time": 16.975,
                "end_time": 17.2431818,
                "pitch": 59,
                "velocity": 101,
                "duration": 0.2681818,
                "tempo": 120.0
            },
            {
                "start_time": 17.2772727,
                "end_time": 17.5431818,
                "pitch": 49,
                "velocity": 101,
                "duration": 0.2659091,
                "tempo": 120.0
            },
            {
                "start_time": 17.5772727,
                "end_time": 17.6431818,
                "pitch": 40,
                "velocity": 101,
                "duration": 0.0659091,
                "tempo": 120.0
            },
            {
                "start_time": 17.6772727,
                "end_time": 18.8454545,
                "pitch": 76,
                "velocity": 101,
                "duration": 1.1681818,
                "tempo": 120.0
            },
            {
                "start_time": 18.8795455,
                "end_time": 19.1477273,
                "pitch": 73,
                "velocity": 101,
                "duration": 0.2681818,
                "tempo": 120.0
            },
            {
                "start_time": 19.1818182,
                "end_time": 20.0522727,
                "pitch": 68,
                "velocity": 101,
                "duration": 0.8704545,
                "tempo": 120.0
            },
            {
                "start_time": 20.0840909,
                "end_time": 20.2568182,
                "pitch": 0,
                "velocity": 101,
                "duration": 0.1727273,
                "tempo": 120.0
            },
            {
                "start_time": 20.2909091,
                "end_time": 20.4613636,
                "pitch": 66,
                "velocity": 101,
                "duration": 0.1704545,
                "tempo": 120.0
            },
            {
                "start_time": 20.4954545,
                "end_time": 20.6613636,
                "pitch": 68,
                "velocity": 101,
                "duration": 0.1659091,
                "tempo": 120.0
            },
            {
                "start_time": 20.6954545,
                "end_time": 20.8613636,
                "pitch": 69,
                "velocity": 101,
                "duration": 0.1659091,
                "tempo": 120.0
            },
            {
                "start_time": 20.8954545,
                "end_time": 22.0659091,
                "pitch": 68,
                "velocity": 101,
                "duration": 1.1704545,
                "tempo": 120.0
            },
            {
                "start_time": 22.0977273,
                "end_time": 22.3659091,
                "pitch": 66,
                "velocity": 101,
                "duration": 0.2681818,
                "tempo": 120.0
            },
            {
                "start_time": 22.4,
                "end_time": 23.6613636,
                "pitch": 66,
                "velocity": 101,
                "duration": 1.2613636,
                "tempo": 120.0
            },
            {
                "start_time": 23.6954545,
                "end_time": 24.0727273,
                "pitch": 0,
                "velocity": 101,
                "duration": 0.3772727,
                "tempo": 120.0
            },
            {
                "start_time": 24.1068182,
                "end_time": 25.275,
                "pitch": 78,
                "velocity": 101,
                "duration": 1.1681818,
                "tempo": 120.0
            },
            {
                "start_time": 25.3090909,
                "end_time": 25.5704545,
                "pitch": 74,
                "velocity": 101,
                "duration": 0.2613636,
                "tempo": 120.0
            },
            {
                "start_time": 25.6022727,
                "end_time": 26.8704545,
                "pitch": 71,
                "velocity": 101,
                "duration": 1.2681818,
                "tempo": 120.0
            },
            {
                "start_time": 26.9045455,
                "end_time": 27.0727273,
                "pitch": 0,
                "velocity": 101,
                "duration": 0.1681818,
                "tempo": 120.0
            },
            {
                "start_time": 27.1045455,
                "end_time": 27.1727273,
                "pitch": 68,
                "velocity": 101,
                "duration": 0.0681818,
                "tempo": 120.0
            },
            {
                "start_time": 27.2068182,
                "end_time": 27.2727273,
                "pitch": 69,
                "velocity": 101,
                "duration": 0.0659091,
                "tempo": 120.0
            },
            {
                "start_time": 27.3068182,
                "end_time": 28.7772727,
                "pitch": 70,
                "velocity": 101,
                "duration": 1.4704545,
                "tempo": 120.0
            },
            {
                "start_time": 28.8090909,
                "end_time": 30.0818182,
                "pitch": 71,
                "velocity": 101,
                "duration": 1.2727273,
                "tempo": 120.0
            },
            {
                "start_time": 30.1159091,
                "end_time": 30.4818182,
                "pitch": 0,
                "velocity": 101,
                "duration": 0.3659091,
                "tempo": 120.0
            },
            {
                "start_time": 30.5159091,
                "end_time": 31.6954545,
                "pitch": 76,
                "velocity": 101,
                "duration": 1.1795455,
                "tempo": 120.0
            },
            {
                "start_time": 31.7295455,
                "end_time": 31.9909091,
                "pitch": 73,
                "velocity": 101,
                "duration": 0.2613636,
                "tempo": 120.0
            },
            {
                "start_time": 32.0227273,
                "end_time": 32.8886364,
                "pitch": 68,
                "velocity": 101,
                "duration": 0.8659091,
                "tempo": 120.0
            },
            {
                "start_time": 32.9204545,
                "end_time": 33.0931818,
                "pitch": 0,
                "velocity": 101,
                "duration": 0.1727273,
                "tempo": 120.0
            },
            {
                "start_time": 33.1272727,
                "end_time": 33.2977273,
                "pitch": 66,
                "velocity": 101,
                "duration": 0.1704545,
                "tempo": 120.0
            },
            {
                "start_time": 33.3318182,
                "end_time": 33.4977273,
                "pitch": 68,
                "velocity": 101,
                "duration": 0.1659091,
                "tempo": 120.0
            },
            {
                "start_time": 33.5318182,
                "end_time": 33.6977273,
                "pitch": 69,
                "velocity": 101,
                "duration": 0.1659091,
                "tempo": 120.0
            },
            {
                "start_time": 33.7318182,
                "end_time": 34.8977273,
                "pitch": 68,
                "velocity": 101,
                "duration": 1.1659091,
                "tempo": 120.0
            },
            {
                "start_time": 34.9318182,
                "end_time": 35.1931818,
                "pitch": 66,
                "velocity": 101,
                "duration": 0.2613636,
                "tempo": 120.0
            },
            {
                "start_time": 35.225,
                "end_time": 36.4931818,
                "pitch": 66,
                "velocity": 101,
                "duration": 1.2681818,
                "tempo": 120.0
            },
            {
                "start_time": 36.5272727,
                "end_time": 36.9045455,
                "pitch": 0,
                "velocity": 101,
                "duration": 0.3772727,
                "tempo": 120.0
            },
            {
                "start_time": 36.9363636,
                "end_time": 38.1068182,
                "pitch": 78,
                "velocity": 101,
                "duration": 1.1704545,
                "tempo": 120.0
            },
            {
                "start_time": 38.1409091,
                "end_time": 38.4022727,
                "pitch": 74,
                "velocity": 101,
                "duration": 0.2613636,
                "tempo": 120.0
            },
            {
                "start_time": 38.4340909,
                "end_time": 39.7113636,
                "pitch": 71,
                "velocity": 101,
                "duration": 1.2772727,
                "tempo": 120.0
            },
            {
                "start_time": 39.7454545,
                "end_time": 39.9090909,
                "pitch": 0,
                "velocity": 101,
                "duration": 0.1636364,
                "tempo": 120.0
            },
            {
                "start_time": 39.9409091,
                "end_time": 40.0068182,
                "pitch": 68,
                "velocity": 101,
                "duration": 0.0659091,
                "tempo": 120.0
            },
            {
                "start_time": 40.0386364,
                "end_time": 40.1045455,
                "pitch": 69,
                "velocity": 101,
                "duration": 0.0659091,
                "tempo": 120.0
            },
            {
                "start_time": 40.1386364,
                "end_time": 41.6090909,
                "pitch": 70,
                "velocity": 101,
                "duration": 1.4704545,
                "tempo": 120.0
            },
            {
                "start_time": 41.6431818,
                "end_time": 42.9204545,
                "pitch": 71,
                "velocity": 101,
                "duration": 1.2772727,
                "tempo": 120.0
            },
            {
                "start_time": 42.9545455,
                "end_time": 43.3227273,
                "pitch": 0,
                "velocity": 101,
                "duration": 0.3681818,
                "tempo": 120.0
            },
            {
                "start_time": 43.3568182,
                "end_time": 43.625,
                "pitch": 78,
                "velocity": 101,
                "duration": 0.2681818,
                "tempo": 120.0
            },
            {
                "start_time": 43.6568182,
                "end_time": 43.725,
                "pitch": 76,
                "velocity": 101,
                "duration": 0.0681818,
                "tempo": 120.0
            },
            {
                "start_time": 43.7568182,
                "end_time": 44.5159091,
                "pitch": 0,
                "velocity": 101,
                "duration": 0.7590909,
                "tempo": 120.0
            },
            {
                "start_time": 44.55,
                "end_time": 44.8159091,
                "pitch": 78,
                "velocity": 101,
                "duration": 0.2659091,
                "tempo": 120.0
            },
            {
                "start_time": 44.85,
                "end_time": 44.9159091,
                "pitch": 76,
                "velocity": 101,
                "duration": 0.0659091,
                "tempo": 120.0
            },
            {
                "start_time": 44.95,
                "end_time": 45.7181818,
                "pitch": 0,
                "velocity": 101,
                "duration": 0.7681818,
                "tempo": 120.0
            },
            {
                "start_time": 45.7522727,
                "end_time": 46.0181818,
                "pitch": 81,
                "velocity": 101,
                "duration": 0.2659091,
                "tempo": 120.0
            },
            {
                "start_time": 46.0522727,
                "end_time": 46.1181818,
                "pitch": 80,
                "velocity": 101,
                "duration": 0.0659091,
                "tempo": 120.0
            },
            {
                "start_time": 46.1522727,
                "end_time": 46.3227273,
                "pitch": 0,
                "velocity": 101,
                "duration": 0.1704545,
                "tempo": 120.0
            },
            {
                "start_time": 46.3568182,
                "end_time": 48.9340909,
                "pitch": 76,
                "velocity": 101,
                "duration": 2.5772727,
                "tempo": 120.0
            },
            {
                "start_time": 48.9681818,
                "end_time": 49.1318182,
                "pitch": 74,
                "velocity": 101,
                "duration": 0.1636364,
                "tempo": 120.0
            },
            {
                "start_time": 49.1636364,
                "end_time": 49.3272727,
                "pitch": 73,
                "velocity": 101,
                "duration": 0.1636364,
                "tempo": 120.0
            },
            {
                "start_time": 49.3613636,
                "end_time": 49.4272727,
                "pitch": 71,
                "velocity": 101,
                "duration": 0.0659091,
                "tempo": 120.0
            },
            {
                "start_time": 49.4613636,
                "end_time": 49.7295455,
                "pitch": 73,
                "velocity": 101,
                "duration": 0.2681818,
                "tempo": 120.0
            },
            {
                "start_time": 49.7636364,
                "end_time": 50.0295455,
                "pitch": 78,
                "velocity": 101,
                "duration": 0.2659091,
                "tempo": 120.0
            },
            {
                "start_time": 50.0636364,
                "end_time": 50.1295455,
                "pitch": 76,
                "velocity": 101,
                "duration": 0.0659091,
                "tempo": 120.0
            },
            {
                "start_time": 50.1636364,
                "end_time": 50.9295455,
                "pitch": 0,
                "velocity": 101,
                "duration": 0.7659091,
                "tempo": 120.0
            },
            {
                "start_time": 50.9636364,
                "end_time": 51.2295455,
                "pitch": 78,
                "velocity": 101,
                "duration": 0.2659091,
                "tempo": 120.0
            },
            {
                "start_time": 51.2636364,
                "end_time": 51.3295455,
                "pitch": 76,
                "velocity": 101,
                "duration": 0.0659091,
                "tempo": 120.0
            },
            {
                "start_time": 51.3636364,
                "end_time": 52.1318182,
                "pitch": 0,
                "velocity": 101,
                "duration": 0.7681818,
                "tempo": 120.0
            },
            {
                "start_time": 52.1659091,
                "end_time": 52.4318182,
                "pitch": 81,
                "velocity": 101,
                "duration": 0.2659091,
                "tempo": 120.0
            },
            {
                "start_time": 52.4659091,
                "end_time": 52.5318182,
                "pitch": 80,
                "velocity": 101,
                "duration": 0.0659091,
                "tempo": 120.0
            },
            {
                "start_time": 52.5659091,
                "end_time": 52.7363636,
                "pitch": 0,
                "velocity": 101,
                "duration": 0.1704545,
                "tempo": 120.0
            },
            {
                "start_time": 52.7704545,
                "end_time": 54.4454545,
                "pitch": 76,
                "velocity": 101,
                "duration": 1.675,
                "tempo": 120.0
            },
            {
                "start_time": 54.4795455,
                "end_time": 56.1431818,
                "pitch": 85,
                "velocity": 101,
                "duration": 1.6636364,
                "tempo": 120.0
            },
            {
                "start_time": 56.1772727,
                "end_time": 56.4431818,
                "pitch": 78,
                "velocity": 101,
                "duration": 0.2659091,
                "tempo": 120.0
            },
            {
                "start_time": 56.4772727,
                "end_time": 56.5431818,
                "pitch": 76,
                "velocity": 101,
                "duration": 0.0659091,
                "tempo": 120.0
            },
            {
                "start_time": 56.5772727,
                "end_time": 57.3454545,
                "pitch": 0,
                "velocity": 101,
                "duration": 0.7681818,
                "tempo": 120.0
            },
            {
                "start_time": 57.3795455,
                "end_time": 57.6477273,
                "pitch": 78,
                "velocity": 101,
                "duration": 0.2681818,
                "tempo": 120.0
            },
            {
                "start_time": 57.6818182,
                "end_time": 57.75,
                "pitch": 76,
                "velocity": 101,
                "duration": 0.0681818,
                "tempo": 120.0
            },
            {
                "start_time": 57.7818182,
                "end_time": 58.55,
                "pitch": 0,
                "velocity": 101,
                "duration": 0.7681818,
                "tempo": 120.0
            },
            {
                "start_time": 58.5818182,
                "end_time": 58.85,
                "pitch": 81,
                "velocity": 101,
                "duration": 0.2681818,
                "tempo": 120.0
            },
            {
                "start_time": 58.8818182,
                "end_time": 58.95,
                "pitch": 80,
                "velocity": 101,
                "duration": 0.0681818,
                "tempo": 120.0
            },
            {
                "start_time": 58.9818182,
                "end_time": 59.1545455,
                "pitch": 0,
                "velocity": 101,
                "duration": 0.1727273,
                "tempo": 120.0
            },
            {
                "start_time": 59.1886364,
                "end_time": 61.7659091,
                "pitch": 76,
                "velocity": 101,
                "duration": 2.5772727,
                "tempo": 120.0
            },
            {
                "start_time": 61.7977273,
                "end_time": 61.9613636,
                "pitch": 74,
                "velocity": 101,
                "duration": 0.1636364,
                "tempo": 120.0
            },
            {
                "start_time": 61.9954545,
                "end_time": 62.1568182,
                "pitch": 73,
                "velocity": 101,
                "duration": 0.1613636,
                "tempo": 120.0
            },
            {
                "start_time": 62.1909091,
                "end_time": 62.2568182,
                "pitch": 71,
                "velocity": 101,
                "duration": 0.0659091,
                "tempo": 120.0
            },
            {
                "start_time": 62.2909091,
                "end_time": 62.5568182,
                "pitch": 73,
                "velocity": 101,
                "duration": 0.2659091,
                "tempo": 120.0
            },
            {
                "start_time": 62.5909091,
                "end_time": 62.8568182,
                "pitch": 78,
                "velocity": 101,
                "duration": 0.2659091,
                "tempo": 120.0
            },
            {
                "start_time": 62.8909091,
                "end_time": 62.9568182,
                "pitch": 76,
                "velocity": 101,
                "duration": 0.0659091,
                "tempo": 120.0
            },
            {
                "start_time": 62.9909091,
                "end_time": 63.7590909,
                "pitch": 0,
                "velocity": 101,
                "duration": 0.7681818,
                "tempo": 120.0
            },
            {
                "start_time": 63.7931818,
                "end_time": 64.0590909,
                "pitch": 78,
                "velocity": 101,
                "duration": 0.2659091,
                "tempo": 120.0
            },
            {
                "start_time": 64.0931818,
                "end_time": 64.1590909,
                "pitch": 76,
                "velocity": 101,
                "duration": 0.0659091,
                "tempo": 120.0
            },
            {
                "start_time": 64.1931818,
                "end_time": 64.9636364,
                "pitch": 0,
                "velocity": 101,
                "duration": 0.7704545,
                "tempo": 120.0
            },
            {
                "start_time": 64.9954545,
                "end_time": 65.2636364,
                "pitch": 81,
                "velocity": 101,
                "duration": 0.2681818,
                "tempo": 120.0
            },
            {
                "start_time": 65.2954545,
                "end_time": 65.3636364,
                "pitch": 80,
                "velocity": 101,
                "duration": 0.0681818,
                "tempo": 120.0
            },
            {
                "start_time": 65.3977273,
                "end_time": 65.5681818,
                "pitch": 0,
                "velocity": 101,
                "duration": 0.1704545,
                "tempo": 120.0
            },
            {
                "start_time": 65.6022727,
                "end_time": 67.1772727,
                "pitch": 85,
                "velocity": 101,
                "duration": 1.575,
                "tempo": 120.0
            },
            {
                "start_time": 67.2113636,
                "end_time": 67.2795455,
                "pitch": 83,
                "velocity": 101,
                "duration": 0.0681818,
                "tempo": 120.0
            },
            {
                "start_time": 67.3136364,
                "end_time": 67.3818182,
                "pitch": 81,
                "velocity": 101,
                "duration": 0.0681818,
                "tempo": 120.0
            },
            {
                "start_time": 67.4136364,
                "end_time": 68.175,
                "pitch": 80,
                "velocity": 101,
                "duration": 0.7613636,
                "tempo": 120.0
            },
            {
                "start_time": 68.2068182,
                "end_time": 68.4772727,
                "pitch": 81,
                "velocity": 101,
                "duration": 0.2704545,
                "tempo": 120.0
            },
            {
                "start_time": 68.5090909,
                "end_time": 68.7727273,
                "pitch": 80,
                "velocity": 101,
                "duration": 0.2636364,
                "tempo": 120.0
            },
            {
                "start_time": 68.8068182,
                "end_time": 70.4818182,
                "pitch": 78,
                "velocity": 101,
                "duration": 1.675,
                "tempo": 120.0
            },
            {
                "start_time": 70.5159091,
                "end_time": 71.7909091,
                "pitch": 80,
                "velocity": 101,
                "duration": 1.275,
                "tempo": 120.0
            },
            {
                "start_time": 71.8227273,
                "end_time": 72.0840909,
                "pitch": 76,
                "velocity": 101,
                "duration": 0.2613636,
                "tempo": 120.0
            },
            {
                "start_time": 72.1181818,
                "end_time": 74.5909091,
                "pitch": 78,
                "velocity": 101,
                "duration": 2.4727273,
                "tempo": 120.0
            },
            {
                "start_time": 74.625,
                "end_time": 74.8931818,
                "pitch": 81,
                "velocity": 101,
                "duration": 0.2681818,
                "tempo": 120.0
            },
            {
                "start_time": 74.9272727,
                "end_time": 75.2,
                "pitch": 80,
                "velocity": 101,
                "duration": 0.2727273,
                "tempo": 120.0
            },
            {
                "start_time": 75.2340909,
                "end_time": 75.3022727,
                "pitch": 78,
                "velocity": 101,
                "duration": 0.0681818,
                "tempo": 120.0
            },
            {
                "start_time": 75.3363636,
                "end_time": 75.4045455,
                "pitch": 76,
                "velocity": 101,
                "duration": 0.0681818,
                "tempo": 120.0
            },
            {
                "start_time": 75.4386364,
                "end_time": 76.2090909,
                "pitch": 78,
                "velocity": 101,
                "duration": 0.7704545,
                "tempo": 120.0
            },
            {
                "start_time": 76.2409091,
                "end_time": 76.4090909,
                "pitch": 0,
                "velocity": 101,
                "duration": 0.1681818,
                "tempo": 120.0
            },
            {
                "start_time": 76.4431818,
                "end_time": 76.8113636,
                "pitch": 81,
                "velocity": 101,
                "duration": 0.3681818,
                "tempo": 120.0
            },
            {
                "start_time": 76.8454545,
                "end_time": 77.0136364,
                "pitch": 83,
                "velocity": 101,
                "duration": 0.1681818,
                "tempo": 120.0
            },
            {
                "start_time": 77.0477273,
                "end_time": 77.8159091,
                "pitch": 80,
                "velocity": 101,
                "duration": 0.7681818,
                "tempo": 120.0
            },
            {
                "start_time": 77.85,
                "end_time": 78.2159091,
                "pitch": 78,
                "velocity": 101,
                "duration": 0.3659091,
                "tempo": 120.0
            },
            {
                "start_time": 78.25,
                "end_time": 78.6181818,
                "pitch": 76,
                "velocity": 101,
                "duration": 0.3681818,
                "tempo": 120.0
            },
            {
                "start_time": 78.6522727,
                "end_time": 81.0295455,
                "pitch": 78,
                "velocity": 101,
                "duration": 2.3772727,
                "tempo": 120.0
            },
            {
                "start_time": 81.0636364,
                "end_time": 81.3295455,
                "pitch": 81,
                "velocity": 101,
                "duration": 0.2659091,
                "tempo": 120.0
            },
            {
                "start_time": 81.3636364,
                "end_time": 81.6318182,
                "pitch": 80,
                "velocity": 101,
                "duration": 0.2681818,
                "tempo": 120.0
            },
            {
                "start_time": 81.6636364,
                "end_time": 81.7318182,
                "pitch": 78,
                "velocity": 101,
                "duration": 0.0681818,
                "tempo": 120.0
            },
            {
                "start_time": 81.7659091,
                "end_time": 81.8318182,
                "pitch": 76,
                "velocity": 101,
                "duration": 0.0659091,
                "tempo": 120.0
            },
            {
                "start_time": 81.8659091,
                "end_time": 82.6340909,
                "pitch": 78,
                "velocity": 101,
                "duration": 0.7681818,
                "tempo": 120.0
            },
            {
                "start_time": 82.6681818,
                "end_time": 82.8363636,
                "pitch": 0,
                "velocity": 101,
                "duration": 0.1681818,
                "tempo": 120.0
            },
            {
                "start_time": 82.8704545,
                "end_time": 83.2386364,
                "pitch": 80,
                "velocity": 101,
                "duration": 0.3681818,
                "tempo": 120.0
            },
            {
                "start_time": 83.2704545,
                "end_time": 83.4386364,
                "pitch": 81,
                "velocity": 101,
                "duration": 0.1681818,
                "tempo": 120.0
            },
            {
                "start_time": 83.4704545,
                "end_time": 84.2409091,
                "pitch": 83,
                "velocity": 101,
                "duration": 0.7704545,
                "tempo": 120.0
            },
            {
                "start_time": 84.2727273,
                "end_time": 84.3409091,
                "pitch": 83,
                "velocity": 101,
                "duration": 0.0681818,
                "tempo": 120.0
            },
            {
                "start_time": 84.375,
                "end_time": 84.6431818,
                "pitch": 85,
                "velocity": 101,
                "duration": 0.2681818,
                "tempo": 120.0
            },
            {
                "start_time": 84.6772727,
                "end_time": 85.0454545,
                "pitch": 88,
                "velocity": 101,
                "duration": 0.3681818,
                "tempo": 120.0
            },
            {
                "start_time": 85.0795455,
                "end_time": 88.2568182,
                "pitch": 90,
                "velocity": 101,
                "duration": 3.1772727,
                "tempo": 120.0
            },
            {
                "start_time": 88.2909091,
                "end_time": 88.4568182,
                "pitch": 93,
                "velocity": 101,
                "duration": 0.1659091,
                "tempo": 120.0
            },
            {
                "start_time": 88.4909091,
                "end_time": 88.5590909,
                "pitch": 92,
                "velocity": 101,
                "duration": 0.0681818,
                "tempo": 120.0
            },
            {
                "start_time": 88.5909091,
                "end_time": 88.6590909,
                "pitch": 90,
                "velocity": 101,
                "duration": 0.0681818,
                "tempo": 120.0
            },
            {
                "start_time": 88.6931818,
                "end_time": 88.8613636,
                "pitch": 93,
                "velocity": 101,
                "duration": 0.1681818,
                "tempo": 120.0
            },
            {
                "start_time": 88.8931818,
                "end_time": 88.9613636,
                "pitch": 92,
                "velocity": 101,
                "duration": 0.0681818,
                "tempo": 120.0
            },
            {
                "start_time": 88.9954545,
                "end_time": 89.0613636,
                "pitch": 90,
                "velocity": 101,
                "duration": 0.0659091,
                "tempo": 120.0
            },
            {
                "start_time": 89.0954545,
                "end_time": 89.2613636,
                "pitch": 93,
                "velocity": 101,
                "duration": 0.1659091,
                "tempo": 120.0
            },
            {
                "start_time": 89.2954545,
                "end_time": 89.3613636,
                "pitch": 92,
                "velocity": 101,
                "duration": 0.0659091,
                "tempo": 120.0
            },
            {
                "start_time": 89.3954545,
                "end_time": 89.4613636,
                "pitch": 90,
                "velocity": 101,
                "duration": 0.0659091,
                "tempo": 120.0
            },
            {
                "start_time": 89.4954545,
                "end_time": 89.6636364,
                "pitch": 93,
                "velocity": 101,
                "duration": 0.1681818,
                "tempo": 120.0
            },
            {
                "start_time": 89.6954545,
                "end_time": 89.7636364,
                "pitch": 92,
                "velocity": 101,
                "duration": 0.0681818,
                "tempo": 120.0
            },
            {
                "start_time": 89.7977273,
                "end_time": 89.8636364,
                "pitch": 90,
                "velocity": 101,
                "duration": 0.0659091,
                "tempo": 120.0
            },
            {
                "start_time": 89.8977273,
                "end_time": 90.0636364,
                "pitch": 93,
                "velocity": 101,
                "duration": 0.1659091,
                "tempo": 120.0
            },
            {
                "start_time": 90.0977273,
                "end_time": 90.1636364,
                "pitch": 92,
                "velocity": 101,
                "duration": 0.0659091,
                "tempo": 120.0
            },
            {
                "start_time": 90.1977273,
                "end_time": 90.2636364,
                "pitch": 90,
                "velocity": 101,
                "duration": 0.0659091,
                "tempo": 120.0
            },
            {
                "start_time": 90.2977273,
                "end_time": 90.4659091,
                "pitch": 93,
                "velocity": 101,
                "duration": 0.1681818,
                "tempo": 120.0
            },
            {
                "start_time": 90.5,
                "end_time": 90.5659091,
                "pitch": 92,
                "velocity": 101,
                "duration": 0.0659091,
                "tempo": 120.0
            },
            {
                "start_time": 90.6,
                "end_time": 90.6659091,
                "pitch": 90,
                "velocity": 101,
                "duration": 0.0659091,
                "tempo": 120.0
            },
            {
                "start_time": 90.7,
                "end_time": 90.8681818,
                "pitch": 93,
                "velocity": 101,
                "duration": 0.1681818,
                "tempo": 120.0
            },
            {
                "start_time": 90.9022727,
                "end_time": 90.9681818,
                "pitch": 92,
                "velocity": 101,
                "duration": 0.0659091,
                "tempo": 120.0
            },
            {
                "start_time": 91.0022727,
                "end_time": 91.0704545,
                "pitch": 90,
                "velocity": 101,
                "duration": 0.0681818,
                "tempo": 120.0
            },
            {
                "start_time": 91.1022727,
                "end_time": 91.1704545,
                "pitch": 93,
                "velocity": 101,
                "duration": 0.0681818,
                "tempo": 120.0
            },
            {
                "start_time": 91.2022727,
                "end_time": 91.4704545,
                "pitch": 95,
                "velocity": 101,
                "duration": 0.2681818,
                "tempo": 120.0
            },
            {
                "start_time": 91.5022727,
                "end_time": 91.6704545,
                "pitch": 93,
                "velocity": 101,
                "duration": 0.1681818,
                "tempo": 120.0
            },
            {
                "start_time": 91.7045455,
                "end_time": 91.7727273,
                "pitch": 92,
                "velocity": 101,
                "duration": 0.0681818,
                "tempo": 120.0
            },
            {
                "start_time": 91.8045455,
                "end_time": 94.1795455,
                "pitch": 90,
                "velocity": 101,
                "duration": 2.375,
                "tempo": 120.0
            },
            {
                "start_time": 94.2136364,
                "end_time": 94.4818182,
                "pitch": 88,
                "velocity": 101,
                "duration": 0.2681818,
                "tempo": 120.0
            },
            {
                "start_time": 94.5159091,
                "end_time": 94.6840909,
                "pitch": 85,
                "velocity": 101,
                "duration": 0.1681818,
                "tempo": 120.0
            },
            {
                "start_time": 94.7159091,
                "end_time": 95.0863636,
                "pitch": 83,
                "velocity": 101,
                "duration": 0.3704545,
                "tempo": 120.0
            },
            {
                "start_time": 95.1181818,
                "end_time": 95.2863636,
                "pitch": 85,
                "velocity": 101,
                "duration": 0.1681818,
                "tempo": 120.0
            },
            {
                "start_time": 95.3181818,
                "end_time": 95.8886364,
                "pitch": 81,
                "velocity": 101,
                "duration": 0.5704545,
                "tempo": 120.0
            },
            {
                "start_time": 95.9227273,
                "end_time": 96.0886364,
                "pitch": 78,
                "velocity": 101,
                "duration": 0.1659091,
                "tempo": 120.0
            },
            {
                "start_time": 96.1227273,
                "end_time": 96.2886364,
                "pitch": 81,
                "velocity": 101,
                "duration": 0.1659091,
                "tempo": 120.0
            },
            {
                "start_time": 96.3227273,
                "end_time": 97.0931818,
                "pitch": 83,
                "velocity": 101,
                "duration": 0.7704545,
                "tempo": 120.0
            },
            {
                "start_time": 97.1272727,
                "end_time": 97.2931818,
                "pitch": 81,
                "velocity": 101,
                "duration": 0.1659091,
                "tempo": 120.0
            },
            {
                "start_time": 97.3272727,
                "end_time": 97.6954545,
                "pitch": 80,
                "velocity": 101,
                "duration": 0.3681818,
                "tempo": 120.0
            },
            {
                "start_time": 97.7295455,
                "end_time": 97.7954545,
                "pitch": 78,
                "velocity": 101,
                "duration": 0.0659091,
                "tempo": 120.0
            },
            {
                "start_time": 97.8295455,
                "end_time": 97.8954545,
                "pitch": 76,
                "velocity": 101,
                "duration": 0.0659091,
                "tempo": 120.0
            },
            {
                "start_time": 97.9295455,
                "end_time": 99.5022727,
                "pitch": 78,
                "velocity": 101,
                "duration": 1.5727273,
                "tempo": 120.0
            },
            {
                "start_time": 99.5340909,
                "end_time": 101.1090909,
                "pitch": 0,
                "velocity": 101,
                "duration": 1.575,
                "tempo": 120.0
            },
            {
                "start_time": 101.1431818,
                "end_time": 102.3136364,
                "pitch": 76,
                "velocity": 101,
                "duration": 1.1704545,
                "tempo": 120.0
            },
            {
                "start_time": 102.3454545,
                "end_time": 102.6204545,
                "pitch": 73,
                "velocity": 101,
                "duration": 0.275,
                "tempo": 120.0
            },
            {
                "start_time": 102.6545455,
                "end_time": 103.525,
                "pitch": 68,
                "velocity": 101,
                "duration": 0.8704545,
                "tempo": 120.0
            },
            {
                "start_time": 103.5590909,
                "end_time": 103.7272727,
                "pitch": 0,
                "velocity": 101,
                "duration": 0.1681818,
                "tempo": 120.0
            },
            {
                "start_time": 103.7590909,
                "end_time": 103.9272727,
                "pitch": 66,
                "velocity": 101,
                "duration": 0.1681818,
                "tempo": 120.0
            },
            {
                "start_time": 103.9590909,
                "end_time": 104.1272727,
                "pitch": 68,
                "velocity": 101,
                "duration": 0.1681818,
                "tempo": 120.0
            },
            {
                "start_time": 104.1613636,
                "end_time": 104.3295455,
                "pitch": 69,
                "velocity": 101,
                "duration": 0.1681818,
                "tempo": 120.0
            },
            {
                "start_time": 104.3636364,
                "end_time": 105.525,
                "pitch": 68,
                "velocity": 101,
                "duration": 1.1613636,
                "tempo": 120.0
            },
            {
                "start_time": 105.5568182,
                "end_time": 105.825,
                "pitch": 66,
                "velocity": 101,
                "duration": 0.2681818,
                "tempo": 120.0
            },
            {
                "start_time": 105.8590909,
                "end_time": 107.1295455,
                "pitch": 66,
                "velocity": 101,
                "duration": 1.2704545,
                "tempo": 120.0
            },
            {
                "start_time": 107.1636364,
                "end_time": 107.5295455,
                "pitch": 0,
                "velocity": 101,
                "duration": 0.3659091,
                "tempo": 120.0
            },
            {
                "start_time": 107.5636364,
                "end_time": 108.7363636,
                "pitch": 78,
                "velocity": 101,
                "duration": 1.1727273,
                "tempo": 120.0
            },
            {
                "start_time": 108.7681818,
                "end_time": 109.0431818,
                "pitch": 74,
                "velocity": 101,
                "duration": 0.275,
                "tempo": 120.0
            },
            {
                "start_time": 109.0772727,
                "end_time": 110.3409091,
                "pitch": 71,
                "velocity": 101,
                "duration": 1.2636364,
                "tempo": 120.0
            },
            {
                "start_time": 110.375,
                "end_time": 110.5454545,
                "pitch": 0,
                "velocity": 101,
                "duration": 0.1704545,
                "tempo": 120.0
            },
            {
                "start_time": 110.5795455,
                "end_time": 110.6477273,
                "pitch": 68,
                "velocity": 101,
                "duration": 0.0681818,
                "tempo": 120.0
            },
            {
                "start_time": 110.6818182,
                "end_time": 110.75,
                "pitch": 69,
                "velocity": 101,
                "duration": 0.0681818,
                "tempo": 120.0
            },
            {
                "start_time": 110.7840909,
                "end_time": 112.2545455,
                "pitch": 70,
                "velocity": 101,
                "duration": 1.4704545,
                "tempo": 120.0
            },
            {
                "start_time": 112.2886364,
                "end_time": 113.5522727,
                "pitch": 71,
                "velocity": 101,
                "duration": 1.2636364,
                "tempo": 120.0
            },
            {
                "start_time": 113.5863636,
                "end_time": 113.9613636,
                "pitch": 0,
                "velocity": 101,
                "duration": 0.375,
                "tempo": 120.0
            },
            {
                "start_time": 113.9954545,
                "end_time": 115.1681818,
                "pitch": 76,
                "velocity": 101,
                "duration": 1.1727273,
                "tempo": 120.0
            },
            {
                "start_time": 115.2022727,
                "end_time": 115.4704545,
                "pitch": 73,
                "velocity": 101,
                "duration": 0.2681818,
                "tempo": 120.0
            },
            {
                "start_time": 115.5045455,
                "end_time": 116.3636364,
                "pitch": 68,
                "velocity": 101,
                "duration": 0.8590909,
                "tempo": 120.0
            },
            {
                "start_time": 116.3954545,
                "end_time": 116.5681818,
                "pitch": 0,
                "velocity": 101,
                "duration": 0.1727273,
                "tempo": 120.0
            },
            {
                "start_time": 116.6022727,
                "end_time": 116.7727273,
                "pitch": 66,
                "velocity": 101,
                "duration": 0.1704545,
                "tempo": 120.0
            },
            {
                "start_time": 116.8068182,
                "end_time": 116.9704545,
                "pitch": 68,
                "velocity": 101,
                "duration": 0.1636364,
                "tempo": 120.0
            },
            {
                "start_time": 117.0022727,
                "end_time": 117.1659091,
                "pitch": 69,
                "velocity": 101,
                "duration": 0.1636364,
                "tempo": 120.0
            },
            {
                "start_time": 117.2,
                "end_time": 118.3795455,
                "pitch": 68,
                "velocity": 101,
                "duration": 1.1795455,
                "tempo": 120.0
            },
            {
                "start_time": 118.4113636,
                "end_time": 118.6727273,
                "pitch": 66,
                "velocity": 101,
                "duration": 0.2613636,
                "tempo": 120.0
            },
            {
                "start_time": 118.7068182,
                "end_time": 119.9772727,
                "pitch": 66,
                "velocity": 101,
                "duration": 1.2704545,
                "tempo": 120.0
            },
            {
                "start_time": 120.0090909,
                "end_time": 120.3772727,
                "pitch": 0,
                "velocity": 101,
                "duration": 0.3681818,
                "tempo": 120.0
            },
            {
                "start_time": 120.4113636,
                "end_time": 121.5909091,
                "pitch": 78,
                "velocity": 101,
                "duration": 1.1795455,
                "tempo": 120.0
            },
            {
                "start_time": 121.6227273,
                "end_time": 121.8840909,
                "pitch": 74,
                "velocity": 101,
                "duration": 0.2613636,
                "tempo": 120.0
            },
            {
                "start_time": 121.9181818,
                "end_time": 123.1886364,
                "pitch": 71,
                "velocity": 101,
                "duration": 1.2704545,
                "tempo": 120.0
            },
            {
                "start_time": 123.2204545,
                "end_time": 123.3931818,
                "pitch": 0,
                "velocity": 101,
                "duration": 0.1727273,
                "tempo": 120.0
            },
            {
                "start_time": 123.4272727,
                "end_time": 123.4954545,
                "pitch": 68,
                "velocity": 101,
                "duration": 0.0681818,
                "tempo": 120.0
            },
            {
                "start_time": 123.5295455,
                "end_time": 123.5977273,
                "pitch": 69,
                "velocity": 101,
                "duration": 0.0681818,
                "tempo": 120.0
            },
            {
                "start_time": 123.6318182,
                "end_time": 125.0954545,
                "pitch": 70,
                "velocity": 101,
                "duration": 1.4636364,
                "tempo": 120.0
            },
            {
                "start_time": 125.1295455,
                "end_time": 126.4090909,
                "pitch": 71,
                "velocity": 101,
                "duration": 1.2795455,
                "tempo": 120.0
            },
            {
                "start_time": 126.4431818,
                "end_time": 126.8136364,
                "pitch": 0,
                "velocity": 101,
                "duration": 0.3704545,
                "tempo": 120.0
            },
            {
                "start_time": 126.8454545,
                "end_time": 127.1136364,
                "pitch": 78,
                "velocity": 101,
                "duration": 0.2681818,
                "tempo": 120.0
            },
            {
                "start_time": 127.1454545,
                "end_time": 127.2136364,
                "pitch": 76,
                "velocity": 101,
                "duration": 0.0681818,
                "tempo": 120.0
            },
            {
                "start_time": 127.2454545,
                "end_time": 128.0068182,
                "pitch": 0,
                "velocity": 101,
                "duration": 0.7613636,
                "tempo": 120.0
            },
            {
                "start_time": 128.0409091,
                "end_time": 128.3068182,
                "pitch": 78,
                "velocity": 101,
                "duration": 0.2659091,
                "tempo": 120.0
            },
            {
                "start_time": 128.3409091,
                "end_time": 128.4068182,
                "pitch": 76,
                "velocity": 101,
                "duration": 0.0659091,
                "tempo": 120.0
            },
            {
                "start_time": 128.4409091,
                "end_time": 129.2136364,
                "pitch": 0,
                "velocity": 101,
                "duration": 0.7727273,
                "tempo": 120.0
            },
            {
                "start_time": 129.2454545,
                "end_time": 129.5159091,
                "pitch": 81,
                "velocity": 101,
                "duration": 0.2704545,
                "tempo": 120.0
            },
            {
                "start_time": 129.5477273,
                "end_time": 129.6159091,
                "pitch": 80,
                "velocity": 101,
                "duration": 0.0681818,
                "tempo": 120.0
            },
            {
                "start_time": 129.65,
                "end_time": 129.8204545,
                "pitch": 0,
                "velocity": 101,
                "duration": 0.1704545,
                "tempo": 120.0
            },
            {
                "start_time": 129.8545455,
                "end_time": 132.4363636,
                "pitch": 76,
                "velocity": 101,
                "duration": 2.5818182,
                "tempo": 120.0
            },
            {
                "start_time": 132.4704545,
                "end_time": 132.6340909,
                "pitch": 74,
                "velocity": 101,
                "duration": 0.1636364,
                "tempo": 120.0
            },
            {
                "start_time": 132.6659091,
                "end_time": 132.8295455,
                "pitch": 73,
                "velocity": 101,
                "duration": 0.1636364,
                "tempo": 120.0
            },
            {
                "start_time": 132.8636364,
                "end_time": 132.9295455,
                "pitch": 71,
                "velocity": 101,
                "duration": 0.0659091,
                "tempo": 120.0
            },
            {
                "start_time": 132.9636364,
                "end_time": 133.2318182,
                "pitch": 73,
                "velocity": 101,
                "duration": 0.2681818,
                "tempo": 120.0
            },
            {
                "start_time": 133.2659091,
                "end_time": 133.5340909,
                "pitch": 78,
                "velocity": 101,
                "duration": 0.2681818,
                "tempo": 120.0
            },
            {
                "start_time": 133.5681818,
                "end_time": 133.6340909,
                "pitch": 76,
                "velocity": 101,
                "duration": 0.0659091,
                "tempo": 120.0
            },
            {
                "start_time": 133.6681818,
                "end_time": 134.4363636,
                "pitch": 0,
                "velocity": 101,
                "duration": 0.7681818,
                "tempo": 120.0
            },
            {
                "start_time": 134.4704545,
                "end_time": 134.7386364,
                "pitch": 78,
                "velocity": 101,
                "duration": 0.2681818,
                "tempo": 120.0
            },
            {
                "start_time": 134.7727273,
                "end_time": 134.8409091,
                "pitch": 76,
                "velocity": 101,
                "duration": 0.0681818,
                "tempo": 120.0
            },
            {
                "start_time": 134.8727273,
                "end_time": 135.6454545,
                "pitch": 0,
                "velocity": 101,
                "duration": 0.7727273,
                "tempo": 120.0
            },
            {
                "start_time": 135.6795455,
                "end_time": 135.9454545,
                "pitch": 81,
                "velocity": 101,
                "duration": 0.2659091,
                "tempo": 120.0
            },
            {
                "start_time": 135.9795455,
                "end_time": 136.0454545,
                "pitch": 80,
                "velocity": 101,
                "duration": 0.0659091,
                "tempo": 120.0
            },
            {
                "start_time": 136.0795455,
                "end_time": 136.25,
                "pitch": 0,
                "velocity": 101,
                "duration": 0.1704545,
                "tempo": 120.0
            },
            {
                "start_time": 136.2840909,
                "end_time": 137.9613636,
                "pitch": 76,
                "velocity": 101,
                "duration": 1.6772727,
                "tempo": 120.0
            },
            {
                "start_time": 137.9954545,
                "end_time": 139.6636364,
                "pitch": 85,
                "velocity": 101,
                "duration": 1.6681818,
                "tempo": 120.0
            },
            {
                "start_time": 139.6977273,
                "end_time": 139.9636364,
                "pitch": 78,
                "velocity": 101,
                "duration": 0.2659091,
                "tempo": 120.0
            },
            {
                "start_time": 139.9977273,
                "end_time": 140.0636364,
                "pitch": 76,
                "velocity": 101,
                "duration": 0.0659091,
                "tempo": 120.0
            },
            {
                "start_time": 140.0977273,
                "end_time": 140.8704545,
                "pitch": 0,
                "velocity": 101,
                "duration": 0.7727273,
                "tempo": 120.0
            },
            {
                "start_time": 140.9045455,
                "end_time": 141.1727273,
                "pitch": 78,
                "velocity": 101,
                "duration": 0.2681818,
                "tempo": 120.0
            },
            {
                "start_time": 141.2045455,
                "end_time": 141.2727273,
                "pitch": 76,
                "velocity": 101,
                "duration": 0.0681818,
                "tempo": 120.0
            },
            {
                "start_time": 141.3068182,
                "end_time": 142.075,
                "pitch": 0,
                "velocity": 101,
                "duration": 0.7681818,
                "tempo": 120.0
            },
            {
                "start_time": 142.1090909,
                "end_time": 142.3772727,
                "pitch": 81,
                "velocity": 101,
                "duration": 0.2681818,
                "tempo": 120.0
            },
            {
                "start_time": 142.4113636,
                "end_time": 142.4772727,
                "pitch": 80,
                "velocity": 101,
                "duration": 0.0659091,
                "tempo": 120.0
            },
            {
                "start_time": 142.5113636,
                "end_time": 142.6840909,
                "pitch": 0,
                "velocity": 101,
                "duration": 0.1727273,
                "tempo": 120.0
            },
            {
                "start_time": 142.7181818,
                "end_time": 145.3,
                "pitch": 76,
                "velocity": 101,
                "duration": 2.5818182,
                "tempo": 120.0
            },
            {
                "start_time": 145.3318182,
                "end_time": 145.4954545,
                "pitch": 74,
                "velocity": 101,
                "duration": 0.1636364,
                "tempo": 120.0
            },
            {
                "start_time": 145.5295455,
                "end_time": 145.6931818,
                "pitch": 73,
                "velocity": 101,
                "duration": 0.1636364,
                "tempo": 120.0
            },
            {
                "start_time": 145.725,
                "end_time": 145.7931818,
                "pitch": 71,
                "velocity": 101,
                "duration": 0.0681818,
                "tempo": 120.0
            },
            {
                "start_time": 145.825,
                "end_time": 146.0931818,
                "pitch": 73,
                "velocity": 101,
                "duration": 0.2681818,
                "tempo": 120.0
            },
            {
                "start_time": 146.125,
                "end_time": 146.3931818,
                "pitch": 78,
                "velocity": 101,
                "duration": 0.2681818,
                "tempo": 120.0
            },
            {
                "start_time": 146.4272727,
                "end_time": 146.4954545,
                "pitch": 76,
                "velocity": 101,
                "duration": 0.0681818,
                "tempo": 120.0
            },
            {
                "start_time": 146.5272727,
                "end_time": 147.3,
                "pitch": 0,
                "velocity": 101,
                "duration": 0.7727273,
                "tempo": 120.0
            },
            {
                "start_time": 147.3340909,
                "end_time": 147.6022727,
                "pitch": 78,
                "velocity": 101,
                "duration": 0.2681818,
                "tempo": 120.0
            },
            {
                "start_time": 147.6363636,
                "end_time": 147.7022727,
                "pitch": 76,
                "velocity": 101,
                "duration": 0.0659091,
                "tempo": 120.0
            },
            {
                "start_time": 147.7363636,
                "end_time": 148.5045455,
                "pitch": 0,
                "velocity": 101,
                "duration": 0.7681818,
                "tempo": 120.0
            },
            {
                "start_time": 148.5386364,
                "end_time": 148.8068182,
                "pitch": 81,
                "velocity": 101,
                "duration": 0.2681818,
                "tempo": 120.0
            },
            {
                "start_time": 148.8409091,
                "end_time": 148.9090909,
                "pitch": 80,
                "velocity": 101,
                "duration": 0.0681818,
                "tempo": 120.0
            },
            {
                "start_time": 148.9409091,
                "end_time": 149.1136364,
                "pitch": 0,
                "velocity": 101,
                "duration": 0.1727273,
                "tempo": 120.0
            },
            {
                "start_time": 149.1477273,
                "end_time": 150.7181818,
                "pitch": 85,
                "velocity": 101,
                "duration": 1.5704545,
                "tempo": 120.0
            },
            {
                "start_time": 150.7522727,
                "end_time": 150.8204545,
                "pitch": 83,
                "velocity": 101,
                "duration": 0.0681818,
                "tempo": 120.0
            },
            {
                "start_time": 150.8545455,
                "end_time": 150.925,
                "pitch": 81,
                "velocity": 101,
                "duration": 0.0704545,
                "tempo": 120.0
            },
            {
                "start_time": 150.9568182,
                "end_time": 151.7159091,
                "pitch": 80,
                "velocity": 101,
                "duration": 0.7590909,
                "tempo": 120.0
            },
            {
                "start_time": 151.75,
                "end_time": 152.0159091,
                "pitch": 81,
                "velocity": 101,
                "duration": 0.2659091,
                "tempo": 120.0
            },
            {
                "start_time": 152.05,
                "end_time": 152.3136364,
                "pitch": 80,
                "velocity": 101,
                "duration": 0.2636364,
                "tempo": 120.0
            },
            {
                "start_time": 152.3454545,
                "end_time": 154.0227273,
                "pitch": 78,
                "velocity": 101,
                "duration": 1.6772727,
                "tempo": 120.0
            },
            {
                "start_time": 154.0568182,
                "end_time": 155.3204545,
                "pitch": 80,
                "velocity": 101,
                "duration": 1.2636364,
                "tempo": 120.0
            },
            {
                "start_time": 155.3545455,
                "end_time": 155.6227273,
                "pitch": 76,
                "velocity": 101,
                "duration": 0.2681818,
                "tempo": 120.0
            },
            {
                "start_time": 155.6545455,
                "end_time": 158.1340909,
                "pitch": 78,
                "velocity": 101,
                "duration": 2.4795455,
                "tempo": 120.0
            },
            {
                "start_time": 158.1681818,
                "end_time": 158.4363636,
                "pitch": 81,
                "velocity": 101,
                "duration": 0.2681818,
                "tempo": 120.0
            },
            {
                "start_time": 158.4704545,
                "end_time": 158.7409091,
                "pitch": 80,
                "velocity": 101,
                "duration": 0.2704545,
                "tempo": 120.0
            },
            {
                "start_time": 158.775,
                "end_time": 158.8454545,
                "pitch": 78,
                "velocity": 101,
                "duration": 0.0704545,
                "tempo": 120.0
            },
            {
                "start_time": 158.8795455,
                "end_time": 158.9477273,
                "pitch": 76,
                "velocity": 101,
                "duration": 0.0681818,
                "tempo": 120.0
            },
            {
                "start_time": 158.9818182,
                "end_time": 159.7522727,
                "pitch": 78,
                "velocity": 101,
                "duration": 0.7704545,
                "tempo": 120.0
            },
            {
                "start_time": 159.7840909,
                "end_time": 159.95,
                "pitch": 0,
                "velocity": 101,
                "duration": 0.1659091,
                "tempo": 120.0
            },
            {
                "start_time": 159.9840909,
                "end_time": 160.3522727,
                "pitch": 81,
                "velocity": 101,
                "duration": 0.3681818,
                "tempo": 120.0
            },
            {
                "start_time": 160.3863636,
                "end_time": 160.5545455,
                "pitch": 83,
                "velocity": 101,
                "duration": 0.1681818,
                "tempo": 120.0
            },
            {
                "start_time": 160.5863636,
                "end_time": 161.3590909,
                "pitch": 80,
                "velocity": 101,
                "duration": 0.7727273,
                "tempo": 120.0
            },
            {
                "start_time": 161.3931818,
                "end_time": 161.7613636,
                "pitch": 78,
                "velocity": 101,
                "duration": 0.3681818,
                "tempo": 120.0
            },
            {
                "start_time": 161.7954545,
                "end_time": 162.1613636,
                "pitch": 76,
                "velocity": 101,
                "duration": 0.3659091,
                "tempo": 120.0
            },
            {
                "start_time": 162.1954545,
                "end_time": 164.575,
                "pitch": 78,
                "velocity": 101,
                "duration": 2.3795455,
                "tempo": 120.0
            },
            {
                "start_time": 164.6090909,
                "end_time": 164.8772727,
                "pitch": 81,
                "velocity": 101,
                "duration": 0.2681818,
                "tempo": 120.0
            },
            {
                "start_time": 164.9113636,
                "end_time": 165.1795455,
                "pitch": 80,
                "velocity": 101,
                "duration": 0.2681818,
                "tempo": 120.0
            },
            {
                "start_time": 165.2113636,
                "end_time": 165.2795455,
                "pitch": 78,
                "velocity": 101,
                "duration": 0.0681818,
                "tempo": 120.0
            },
            {
                "start_time": 165.3136364,
                "end_time": 165.3795455,
                "pitch": 76,
                "velocity": 101,
                "duration": 0.0659091,
                "tempo": 120.0
            },
            {
                "start_time": 165.4136364,
                "end_time": 166.1840909,
                "pitch": 78,
                "velocity": 101,
                "duration": 0.7704545,
                "tempo": 120.0
            },
            {
                "start_time": 166.2159091,
                "end_time": 166.3840909,
                "pitch": 0,
                "velocity": 101,
                "duration": 0.1681818,
                "tempo": 120.0
            },
            {
                "start_time": 166.4181818,
                "end_time": 166.7863636,
                "pitch": 80,
                "velocity": 101,
                "duration": 0.3681818,
                "tempo": 120.0
            },
            {
                "start_time": 166.8204545,
                "end_time": 166.9886364,
                "pitch": 81,
                "velocity": 101,
                "duration": 0.1681818,
                "tempo": 120.0
            },
            {
                "start_time": 167.0227273,
                "end_time": 167.7931818,
                "pitch": 83,
                "velocity": 101,
                "duration": 0.7704545,
                "tempo": 120.0
            },
            {
                "start_time": 167.8272727,
                "end_time": 167.8931818,
                "pitch": 83,
                "velocity": 101,
                "duration": 0.0659091,
                "tempo": 120.0
            },
            {
                "start_time": 167.9272727,
                "end_time": 168.1931818,
                "pitch": 85,
                "velocity": 101,
                "duration": 0.2659091,
                "tempo": 120.0
            },
            {
                "start_time": 168.2272727,
                "end_time": 168.5954545,
                "pitch": 88,
                "velocity": 101,
                "duration": 0.3681818,
                "tempo": 120.0
            },
            {
                "start_time": 168.6295455,
                "end_time": 171.8159091,
                "pitch": 90,
                "velocity": 101,
                "duration": 3.1863636,
                "tempo": 120.0
            },
            {
                "start_time": 171.8477273,
                "end_time": 172.0159091,
                "pitch": 93,
                "velocity": 101,
                "duration": 0.1681818,
                "tempo": 120.0
            },
            {
                "start_time": 172.0477273,
                "end_time": 172.1159091,
                "pitch": 92,
                "velocity": 101,
                "duration": 0.0681818,
                "tempo": 120.0
            },
            {
                "start_time": 172.1477273,
                "end_time": 172.2159091,
                "pitch": 90,
                "velocity": 101,
                "duration": 0.0681818,
                "tempo": 120.0
            },
            {
                "start_time": 172.2477273,
                "end_time": 172.4159091,
                "pitch": 93,
                "velocity": 101,
                "duration": 0.1681818,
                "tempo": 120.0
            },
            {
                "start_time": 172.45,
                "end_time": 172.5181818,
                "pitch": 92,
                "velocity": 101,
                "duration": 0.0681818,
                "tempo": 120.0
            },
            {
                "start_time": 172.55,
                "end_time": 172.6181818,
                "pitch": 90,
                "velocity": 101,
                "duration": 0.0681818,
                "tempo": 120.0
            },
            {
                "start_time": 172.6522727,
                "end_time": 172.8181818,
                "pitch": 93,
                "velocity": 101,
                "duration": 0.1659091,
                "tempo": 120.0
            },
            {
                "start_time": 172.8522727,
                "end_time": 172.9204545,
                "pitch": 92,
                "velocity": 101,
                "duration": 0.0681818,
                "tempo": 120.0
            },
            {
                "start_time": 172.9545455,
                "end_time": 173.0204545,
                "pitch": 90,
                "velocity": 101,
                "duration": 0.0659091,
                "tempo": 120.0
            },
            {
                "start_time": 173.0545455,
                "end_time": 173.2227273,
                "pitch": 93,
                "velocity": 101,
                "duration": 0.1681818,
                "tempo": 120.0
            },
            {
                "start_time": 173.2545455,
                "end_time": 173.3227273,
                "pitch": 92,
                "velocity": 101,
                "duration": 0.0681818,
                "tempo": 120.0
            },
            {
                "start_time": 173.3568182,
                "end_time": 173.4227273,
                "pitch": 90,
                "velocity": 101,
                "duration": 0.0659091,
                "tempo": 120.0
            },
            {
                "start_time": 173.4568182,
                "end_time": 173.625,
                "pitch": 93,
                "velocity": 101,
                "duration": 0.1681818,
                "tempo": 120.0
            },
            {
                "start_time": 173.6590909,
                "end_time": 173.725,
                "pitch": 92,
                "velocity": 101,
                "duration": 0.0659091,
                "tempo": 120.0
            },
            {
                "start_time": 173.7590909,
                "end_time": 173.825,
                "pitch": 90,
                "velocity": 101,
                "duration": 0.0659091,
                "tempo": 120.0
            },
            {
                "start_time": 173.8590909,
                "end_time": 174.025,
                "pitch": 93,
                "velocity": 101,
                "duration": 0.1659091,
                "tempo": 120.0
            },
            {
                "start_time": 174.0590909,
                "end_time": 174.125,
                "pitch": 92,
                "velocity": 101,
                "duration": 0.0659091,
                "tempo": 120.0
            },
            {
                "start_time": 174.1590909,
                "end_time": 174.225,
                "pitch": 90,
                "velocity": 101,
                "duration": 0.0659091,
                "tempo": 120.0
            },
            {
                "start_time": 174.2590909,
                "end_time": 174.4272727,
                "pitch": 93,
                "velocity": 101,
                "duration": 0.1681818,
                "tempo": 120.0
            },
            {
                "start_time": 174.4613636,
                "end_time": 174.5272727,
                "pitch": 92,
                "velocity": 101,
                "duration": 0.0659091,
                "tempo": 120.0
            },
            {
                "start_time": 174.5613636,
                "end_time": 174.6295455,
                "pitch": 90,
                "velocity": 101,
                "duration": 0.0681818,
                "tempo": 120.0
            },
            {
                "start_time": 174.6613636,
                "end_time": 174.7295455,
                "pitch": 93,
                "velocity": 101,
                "duration": 0.0681818,
                "tempo": 120.0
            },
            {
                "start_time": 174.7636364,
                "end_time": 175.0318182,
                "pitch": 95,
                "velocity": 101,
                "duration": 0.2681818,
                "tempo": 120.0
            },
            {
                "start_time": 175.0659091,
                "end_time": 175.2318182,
                "pitch": 93,
                "velocity": 101,
                "duration": 0.1659091,
                "tempo": 120.0
            },
            {
                "start_time": 175.2659091,
                "end_time": 175.3340909,
                "pitch": 92,
                "velocity": 101,
                "duration": 0.0681818,
                "tempo": 120.0
            },
            {
                "start_time": 175.3659091,
                "end_time": 177.7477273,
                "pitch": 90,
                "velocity": 101,
                "duration": 2.3818182,
                "tempo": 120.0
            },
            {
                "start_time": 177.7795455,
                "end_time": 178.0477273,
                "pitch": 88,
                "velocity": 101,
                "duration": 0.2681818,
                "tempo": 120.0
            },
            {
                "start_time": 178.0818182,
                "end_time": 178.2477273,
                "pitch": 85,
                "velocity": 101,
                "duration": 0.1659091,
                "tempo": 120.0
            },
            {
                "start_time": 178.2818182,
                "end_time": 178.65,
                "pitch": 83,
                "velocity": 101,
                "duration": 0.3681818,
                "tempo": 120.0
            },
            {
                "start_time": 178.6840909,
                "end_time": 178.8522727,
                "pitch": 85,
                "velocity": 101,
                "duration": 0.1681818,
                "tempo": 120.0
            },
            {
                "start_time": 178.8840909,
                "end_time": 179.4545455,
                "pitch": 81,
                "velocity": 101,
                "duration": 0.5704545,
                "tempo": 120.0
            },
            {
                "start_time": 179.4886364,
                "end_time": 179.6568182,
                "pitch": 78,
                "velocity": 101,
                "duration": 0.1681818,
                "tempo": 120.0
            },
            {
                "start_time": 179.6909091,
                "end_time": 179.8590909,
                "pitch": 81,
                "velocity": 101,
                "duration": 0.1681818,
                "tempo": 120.0
            }
        ],
        "Acoustic Bass": [
            {
                "start_time": 0.3181818,
                "end_time": 0.3863636,
                "pitch": 52,
                "velocity": 64,
                "duration": 0.0681818,
                "tempo": 120.0
            },
            {
                "start_time": 0.4181818,
                "end_time": 0.6727273,
                "pitch": 52,
                "velocity": 64,
                "duration": 0.2545455,
                "tempo": 120.0
            },
            {
                "start_time": 0.7045455,
                "end_time": 0.7681818,
                "pitch": 45,
                "velocity": 64,
                "duration": 0.0636364,
                "tempo": 120.0
            },
            {
                "start_time": 0.8022727,
                "end_time": 1.075,
                "pitch": 45,
                "velocity": 64,
                "duration": 0.2727273,
                "tempo": 120.0
            },
            {
                "start_time": 1.1090909,
                "end_time": 1.1772727,
                "pitch": 52,
                "velocity": 64,
                "duration": 0.0681818,
                "tempo": 120.0
            },
            {
                "start_time": 1.2113636,
                "end_time": 1.4795455,
                "pitch": 52,
                "velocity": 64,
                "duration": 0.2681818,
                "tempo": 120.0
            },
            {
                "start_time": 1.5113636,
                "end_time": 1.5795455,
                "pitch": 45,
                "velocity": 64,
                "duration": 0.0681818,
                "tempo": 120.0
            },
            {
                "start_time": 1.6113636,
                "end_time": 1.8863636,
                "pitch": 45,
                "velocity": 64,
                "duration": 0.275,
                "tempo": 120.0
            },
            {
                "start_time": 1.9204545,
                "end_time": 1.9886364,
                "pitch": 52,
                "velocity": 64,
                "duration": 0.0681818,
                "tempo": 120.0
            },
            {
                "start_time": 2.0227273,
                "end_time": 2.0886364,
                "pitch": 52,
                "velocity": 64,
                "duration": 0.0659091,
                "tempo": 120.0
            },
            {
                "start_time": 2.1204545,
                "end_time": 2.1863636,
                "pitch": 45,
                "velocity": 64,
                "duration": 0.0659091,
                "tempo": 120.0
            },
            {
                "start_time": 2.2181818,
                "end_time": 2.2840909,
                "pitch": 0,
                "velocity": 64,
                "duration": 0.0659091,
                "tempo": 120.0
            },
            {
                "start_time": 2.3159091,
                "end_time": 2.3818182,
                "pitch": 45,
                "velocity": 64,
                "duration": 0.0659091,
                "tempo": 120.0
            },
            {
                "start_time": 2.4136364,
                "end_time": 2.775,
                "pitch": 0,
                "velocity": 64,
                "duration": 0.3613636,
                "tempo": 120.0
            },
            {
                "start_time": 2.8068182,
                "end_time": 3.1840909,
                "pitch": 52,
                "velocity": 64,
                "duration": 0.3772727,
                "tempo": 120.0
            },
            {
                "start_time": 3.2181818,
                "end_time": 3.4863636,
                "pitch": 41,
                "velocity": 64,
                "duration": 0.2681818,
                "tempo": 120.0
            },
            {
                "start_time": 3.5204545,
                "end_time": 3.5863636,
                "pitch": 48,
                "velocity": 64,
                "duration": 0.0659091,
                "tempo": 120.0
            },
            {
                "start_time": 3.6204545,
                "end_time": 3.8863636,
                "pitch": 48,
                "velocity": 64,
                "duration": 0.2659091,
                "tempo": 120.0
            },
            {
                "start_time": 3.9204545,
                "end_time": 3.9863636,
                "pitch": 41,
                "velocity": 64,
                "duration": 0.0659091,
                "tempo": 120.0
            },
            {
                "start_time": 4.0204545,
                "end_time": 4.2863636,
                "pitch": 41,
                "velocity": 64,
                "duration": 0.2659091,
                "tempo": 120.0
            },
            {
                "start_time": 4.3204545,
                "end_time": 4.3863636,
                "pitch": 48,
                "velocity": 64,
                "duration": 0.0659091,
                "tempo": 120.0
            },
            {
                "start_time": 4.4204545,
                "end_time": 4.6886364,
                "pitch": 48,
                "velocity": 64,
                "duration": 0.2681818,
                "tempo": 120.0
            },
            {
                "start_time": 4.7227273,
                "end_time": 4.7909091,
                "pitch": 41,
                "velocity": 64,
                "duration": 0.0681818,
                "tempo": 120.0
            },
            {
                "start_time": 4.8227273,
                "end_time": 5.0909091,
                "pitch": 41,
                "velocity": 64,
                "duration": 0.2681818,
                "tempo": 120.0
            },
            {
                "start_time": 5.1227273,
                "end_time": 5.1909091,
                "pitch": 48,
                "velocity": 64,
                "duration": 0.0681818,
                "tempo": 120.0
            },
            {
                "start_time": 5.2227273,
                "end_time": 5.2909091,
                "pitch": 48,
                "velocity": 64,
                "duration": 0.0681818,
                "tempo": 120.0
            },
            {
                "start_time": 5.325,
                "end_time": 5.3909091,
                "pitch": 41,
                "velocity": 64,
                "duration": 0.0659091,
                "tempo": 120.0
            },
            {
                "start_time": 5.425,
                "end_time": 5.4909091,
                "pitch": 0,
                "velocity": 64,
                "duration": 0.0659091,
                "tempo": 120.0
            },
            {
                "start_time": 5.525,
                "end_time": 5.5931818,
                "pitch": 41,
                "velocity": 64,
                "duration": 0.0681818,
                "tempo": 120.0
            },
            {
                "start_time": 5.625,
                "end_time": 5.9840909,
                "pitch": 0,
                "velocity": 64,
                "duration": 0.3590909,
                "tempo": 120.0
            },
            {
                "start_time": 6.0181818,
                "end_time": 6.3954545,
                "pitch": 48,
                "velocity": 64,
                "duration": 0.3772727,
                "tempo": 120.0
            },
            {
                "start_time": 6.4295455,
                "end_time": 6.6977273,
                "pitch": 45,
                "velocity": 64,
                "duration": 0.2681818,
                "tempo": 120.0
            },
            {
                "start_time": 6.7318182,
                "end_time": 6.7977273,
                "pitch": 52,
                "velocity": 64,
                "duration": 0.0659091,
                "tempo": 120.0
            },
            {
                "start_time": 6.8318182,
                "end_time": 7.0977273,
                "pitch": 52,
                "velocity": 64,
                "duration": 0.2659091,
                "tempo": 120.0
            },
            {
                "start_time": 7.1318182,
                "end_time": 7.1977273,
                "pitch": 45,
                "velocity": 64,
                "duration": 0.0659091,
                "tempo": 120.0
            },
            {
                "start_time": 7.2318182,
                "end_time": 7.5,
                "pitch": 45,
                "velocity": 64,
                "duration": 0.2681818,
                "tempo": 120.0
            },
            {
                "start_time": 7.5340909,
                "end_time": 7.6,
                "pitch": 52,
                "velocity": 64,
                "duration": 0.0659091,
                "tempo": 120.0
            },
            {
                "start_time": 7.6340909,
                "end_time": 7.9,
                "pitch": 52,
                "velocity": 64,
                "duration": 0.2659091,
                "tempo": 120.0
            },
            {
                "start_time": 7.9340909,
                "end_time": 8.0,
                "pitch": 45,
                "velocity": 64,
                "duration": 0.0659091,
                "tempo": 120.0
            },
            {
                "start_time": 8.0340909,
                "end_time": 8.3022727,
                "pitch": 45,
                "velocity": 64,
                "duration": 0.2681818,
                "tempo": 120.0
            },
            {
                "start_time": 8.3363636,
                "end_time": 8.4022727,
                "pitch": 52,
                "velocity": 64,
                "duration": 0.0659091,
                "tempo": 120.0
            },
            {
                "start_time": 8.4363636,
                "end_time": 8.5045455,
                "pitch": 52,
                "velocity": 64,
                "duration": 0.0681818,
                "tempo": 120.0
            },
            {
                "start_time": 8.5386364,
                "end_time": 8.6045455,
                "pitch": 45,
                "velocity": 64,
                "duration": 0.0659091,
                "tempo": 120.0
            },
            {
                "start_time": 8.6386364,
                "end_time": 8.7045455,
                "pitch": 0,
                "velocity": 64,
                "duration": 0.0659091,
                "tempo": 120.0
            },
            {
                "start_time": 8.7386364,
                "end_time": 8.8068182,
                "pitch": 45,
                "velocity": 64,
                "duration": 0.0681818,
                "tempo": 120.0
            },
            {
                "start_time": 8.8386364,
                "end_time": 9.1977273,
                "pitch": 0,
                "velocity": 64,
                "duration": 0.3590909,
                "tempo": 120.0
            },
            {
                "start_time": 9.2318182,
                "end_time": 9.6090909,
                "pitch": 52,
                "velocity": 64,
                "duration": 0.3772727,
                "tempo": 120.0
            },
            {
                "start_time": 9.6431818,
                "end_time": 9.9113636,
                "pitch": 41,
                "velocity": 64,
                "duration": 0.2681818,
                "tempo": 120.0
            },
            {
                "start_time": 9.9454545,
                "end_time": 10.0113636,
                "pitch": 48,
                "velocity": 64,
                "duration": 0.0659091,
                "tempo": 120.0
            },
            {
                "start_time": 10.0454545,
                "end_time": 10.3136364,
                "pitch": 48,
                "velocity": 64,
                "duration": 0.2681818,
                "tempo": 120.0
            },
            {
                "start_time": 10.3477273,
                "end_time": 10.4136364,
                "pitch": 41,
                "velocity": 64,
                "duration": 0.0659091,
                "tempo": 120.0
            },
            {
                "start_time": 10.4477273,
                "end_time": 10.7159091,
                "pitch": 41,
                "velocity": 64,
                "duration": 0.2681818,
                "tempo": 120.0
            },
            {
                "start_time": 10.75,
                "end_time": 10.8159091,
                "pitch": 48,
                "velocity": 64,
                "duration": 0.0659091,
                "tempo": 120.0
            },
            {
                "start_time": 10.85,
                "end_time": 11.1181818,
                "pitch": 48,
                "velocity": 64,
                "duration": 0.2681818,
                "tempo": 120.0
            },
            {
                "start_time": 11.1522727,
                "end_time": 11.2204545,
                "pitch": 41,
                "velocity": 64,
                "duration": 0.0681818,
                "tempo": 120.0
            },
            {
                "start_time": 11.2522727,
                "end_time": 11.5272727,
                "pitch": 41,
                "velocity": 64,
                "duration": 0.275,
                "tempo": 120.0
            },
            {
                "start_time": 11.5613636,
                "end_time": 11.6295455,
                "pitch": 48,
                "velocity": 64,
                "duration": 0.0681818,
                "tempo": 120.0
            },
            {
                "start_time": 11.6613636,
                "end_time": 11.725,
                "pitch": 48,
                "velocity": 64,
                "duration": 0.0636364,
                "tempo": 120.0
            },
            {
                "start_time": 11.7568182,
                "end_time": 11.8227273,
                "pitch": 41,
                "velocity": 64,
                "duration": 0.0659091,
                "tempo": 120.0
            },
            {
                "start_time": 11.8545455,
                "end_time": 11.9181818,
                "pitch": 0,
                "velocity": 64,
                "duration": 0.0636364,
                "tempo": 120.0
            },
            {
                "start_time": 11.95,
                "end_time": 12.0136364,
                "pitch": 41,
                "velocity": 64,
                "duration": 0.0636364,
                "tempo": 120.0
            },
            {
                "start_time": 12.0454545,
                "end_time": 12.4159091,
                "pitch": 0,
                "velocity": 64,
                "duration": 0.3704545,
                "tempo": 120.0
            },
            {
                "start_time": 12.45,
                "end_time": 12.825,
                "pitch": 48,
                "velocity": 64,
                "duration": 0.375,
                "tempo": 120.0
            },
            {
                "start_time": 12.8590909,
                "end_time": 12.925,
                "pitch": 0,
                "velocity": 64,
                "duration": 0.0659091,
                "tempo": 120.0
            },
            {
                "start_time": 12.9568182,
                "end_time": 13.0227273,
                "pitch": 40,
                "velocity": 64,
                "duration": 0.0659091,
                "tempo": 120.0
            },
            {
                "start_time": 13.0545455,
                "end_time": 13.1204545,
                "pitch": 0,
                "velocity": 64,
                "duration": 0.0659091,
                "tempo": 120.0
            },
            {
                "start_time": 13.1522727,
                "end_time": 13.2181818,
                "pitch": 40,
                "velocity": 64,
                "duration": 0.0659091,
                "tempo": 120.0
            },
            {
                "start_time": 13.2522727,
                "end_time": 13.3181818,
                "pitch": 0,
                "velocity": 64,
                "duration": 0.0659091,
                "tempo": 120.0
            },
            {
                "start_time": 13.3522727,
                "end_time": 13.4181818,
                "pitch": 40,
                "velocity": 64,
                "duration": 0.0659091,
                "tempo": 120.0
            },
            {
                "start_time": 13.4522727,
                "end_time": 13.5204545,
                "pitch": 0,
                "velocity": 64,
                "duration": 0.0681818,
                "tempo": 120.0
            },
            {
                "start_time": 13.5545455,
                "end_time": 13.6204545,
                "pitch": 40,
                "velocity": 64,
                "duration": 0.0659091,
                "tempo": 120.0
            },
            {
                "start_time": 13.6545455,
                "end_time": 13.7227273,
                "pitch": 0,
                "velocity": 64,
                "duration": 0.0681818,
                "tempo": 120.0
            },
            {
                "start_time": 13.7568182,
                "end_time": 13.825,
                "pitch": 40,
                "velocity": 64,
                "duration": 0.0681818,
                "tempo": 120.0
            },
            {
                "start_time": 13.8590909,
                "end_time": 13.9295455,
                "pitch": 0,
                "velocity": 64,
                "duration": 0.0704545,
                "tempo": 120.0
            },
            {
                "start_time": 13.9636364,
                "end_time": 14.0318182,
                "pitch": 40,
                "velocity": 64,
                "duration": 0.0681818,
                "tempo": 120.0
            },
            {
                "start_time": 14.0636364,
                "end_time": 14.1295455,
                "pitch": 0,
                "velocity": 64,
                "duration": 0.0659091,
                "tempo": 120.0
            },
            {
                "start_time": 14.1613636,
                "end_time": 14.2272727,
                "pitch": 40,
                "velocity": 64,
                "duration": 0.0659091,
                "tempo": 120.0
            },
            {
                "start_time": 14.2613636,
                "end_time": 14.325,
                "pitch": 0,
                "velocity": 64,
                "duration": 0.0636364,
                "tempo": 120.0
            },
            {
                "start_time": 14.3590909,
                "end_time": 14.4227273,
                "pitch": 40,
                "velocity": 64,
                "duration": 0.0636364,
                "tempo": 120.0
            },
            {
                "start_time": 14.4568182,
                "end_time": 17.6431818,
                "pitch": 52,
                "velocity": 64,
                "duration": 3.1863636,
                "tempo": 120.0
            },
            {
                "start_time": 17.6772727,
                "end_time": 17.9454545,
                "pitch": 45,
                "velocity": 64,
                "duration": 0.2681818,
                "tempo": 120.0
            },
            {
                "start_time": 17.9795455,
                "end_time": 18.0454545,
                "pitch": 52,
                "velocity": 64,
                "duration": 0.0659091,
                "tempo": 120.0
            },
            {
                "start_time": 18.0795455,
                "end_time": 18.3454545,
                "pitch": 52,
                "velocity": 64,
                "duration": 0.2659091,
                "tempo": 120.0
            },
            {
                "start_time": 18.3795455,
                "end_time": 18.4454545,
                "pitch": 45,
                "velocity": 64,
                "duration": 0.0659091,
                "tempo": 120.0
            },
            {
                "start_time": 18.4795455,
                "end_time": 18.7454545,
                "pitch": 45,
                "velocity": 64,
                "duration": 0.2659091,
                "tempo": 120.0
            },
            {
                "start_time": 18.7795455,
                "end_time": 18.8454545,
                "pitch": 52,
                "velocity": 64,
                "duration": 0.0659091,
                "tempo": 120.0
            },
            {
                "start_time": 18.8795455,
                "end_time": 19.1477273,
                "pitch": 52,
                "velocity": 64,
                "duration": 0.2681818,
                "tempo": 120.0
            },
            {
                "start_time": 19.1818182,
                "end_time": 19.2477273,
                "pitch": 45,
                "velocity": 64,
                "duration": 0.0659091,
                "tempo": 120.0
            },
            {
                "start_time": 19.2818182,
                "end_time": 19.5568182,
                "pitch": 45,
                "velocity": 64,
                "duration": 0.275,
                "tempo": 120.0
            },
            {
                "start_time": 19.5909091,
                "end_time": 19.6590909,
                "pitch": 52,
                "velocity": 64,
                "duration": 0.0681818,
                "tempo": 120.0
            },
            {
                "start_time": 19.6931818,
                "end_time": 19.9545455,
                "pitch": 52,
                "velocity": 64,
                "duration": 0.2613636,
                "tempo": 120.0
            },
            {
                "start_time": 19.9863636,
                "end_time": 20.0522727,
                "pitch": 45,
                "velocity": 64,
                "duration": 0.0659091,
                "tempo": 120.0
            },
            {
                "start_time": 20.0840909,
                "end_time": 20.3590909,
                "pitch": 45,
                "velocity": 64,
                "duration": 0.275,
                "tempo": 120.0
            },
            {
                "start_time": 20.3931818,
                "end_time": 20.4613636,
                "pitch": 52,
                "velocity": 64,
                "duration": 0.0681818,
                "tempo": 120.0
            },
            {
                "start_time": 20.4954545,
                "end_time": 20.6613636,
                "pitch": 52,
                "velocity": 64,
                "duration": 0.1659091,
                "tempo": 120.0
            },
            {
                "start_time": 20.6954545,
                "end_time": 20.8613636,
                "pitch": 45,
                "velocity": 64,
                "duration": 0.1659091,
                "tempo": 120.0
            },
            {
                "start_time": 20.8954545,
                "end_time": 21.1613636,
                "pitch": 42,
                "velocity": 64,
                "duration": 0.2659091,
                "tempo": 120.0
            },
            {
                "start_time": 21.1954545,
                "end_time": 21.2613636,
                "pitch": 49,
                "velocity": 64,
                "duration": 0.0659091,
                "tempo": 120.0
            },
            {
                "start_time": 21.2954545,
                "end_time": 21.5636364,
                "pitch": 49,
                "velocity": 64,
                "duration": 0.2681818,
                "tempo": 120.0
            },
            {
                "start_time": 21.5977273,
                "end_time": 21.6636364,
                "pitch": 42,
                "velocity": 64,
                "duration": 0.0659091,
                "tempo": 120.0
            },
            {
                "start_time": 21.6977273,
                "end_time": 21.9659091,
                "pitch": 42,
                "velocity": 64,
                "duration": 0.2681818,
                "tempo": 120.0
            },
            {
                "start_time": 21.9977273,
                "end_time": 22.0659091,
                "pitch": 49,
                "velocity": 64,
                "duration": 0.0681818,
                "tempo": 120.0
            },
            {
                "start_time": 22.0977273,
                "end_time": 22.3659091,
                "pitch": 49,
                "velocity": 64,
                "duration": 0.2681818,
                "tempo": 120.0
            },
            {
                "start_time": 22.4,
                "end_time": 22.4681818,
                "pitch": 42,
                "velocity": 64,
                "duration": 0.0681818,
                "tempo": 120.0
            },
            {
                "start_time": 22.5,
                "end_time": 22.7613636,
                "pitch": 42,
                "velocity": 64,
                "duration": 0.2613636,
                "tempo": 120.0
            },
            {
                "start_time": 22.7954545,
                "end_time": 22.8590909,
                "pitch": 49,
                "velocity": 64,
                "duration": 0.0636364,
                "tempo": 120.0
            },
            {
                "start_time": 22.8931818,
                "end_time": 23.1613636,
                "pitch": 49,
                "velocity": 64,
                "duration": 0.2681818,
                "tempo": 120.0
            },
            {
                "start_time": 23.1954545,
                "end_time": 23.2613636,
                "pitch": 42,
                "velocity": 64,
                "duration": 0.0659091,
                "tempo": 120.0
            },
            {
                "start_time": 23.2954545,
                "end_time": 23.5613636,
                "pitch": 42,
                "velocity": 64,
                "duration": 0.2659091,
                "tempo": 120.0
            },
            {
                "start_time": 23.5954545,
                "end_time": 23.6613636,
                "pitch": 49,
                "velocity": 64,
                "duration": 0.0659091,
                "tempo": 120.0
            },
            {
                "start_time": 23.6954545,
                "end_time": 23.8659091,
                "pitch": 49,
                "velocity": 64,
                "duration": 0.1704545,
                "tempo": 120.0
            },
            {
                "start_time": 23.9022727,
                "end_time": 24.0727273,
                "pitch": 42,
                "velocity": 64,
                "duration": 0.1704545,
                "tempo": 120.0
            },
            {
                "start_time": 24.1068182,
                "end_time": 24.3681818,
                "pitch": 47,
                "velocity": 64,
                "duration": 0.2613636,
                "tempo": 120.0
            },
            {
                "start_time": 24.4,
                "end_time": 24.4659091,
                "pitch": 54,
                "velocity": 64,
                "duration": 0.0659091,
                "tempo": 120.0
            },
            {
                "start_time": 24.4977273,
                "end_time": 24.7727273,
                "pitch": 54,
                "velocity": 64,
                "duration": 0.275,
                "tempo": 120.0
            },
            {
                "start_time": 24.8068182,
                "end_time": 24.875,
                "pitch": 47,
                "velocity": 64,
                "duration": 0.0681818,
                "tempo": 120.0
            },
            {
                "start_time": 24.9090909,
                "end_time": 25.175,
                "pitch": 47,
                "velocity": 64,
                "duration": 0.2659091,
                "tempo": 120.0
            },
            {
                "start_time": 25.2090909,
                "end_time": 25.275,
                "pitch": 54,
                "velocity": 64,
                "duration": 0.0659091,
                "tempo": 120.0
            },
            {
                "start_time": 25.3090909,
                "end_time": 25.5704545,
                "pitch": 54,
                "velocity": 64,
                "duration": 0.2613636,
                "tempo": 120.0
            },
            {
                "start_time": 25.6022727,
                "end_time": 25.6681818,
                "pitch": 47,
                "velocity": 64,
                "duration": 0.0659091,
                "tempo": 120.0
            },
            {
                "start_time": 25.7022727,
                "end_time": 25.9704545,
                "pitch": 47,
                "velocity": 64,
                "duration": 0.2681818,
                "tempo": 120.0
            },
            {
                "start_time": 26.0045455,
                "end_time": 26.0704545,
                "pitch": 54,
                "velocity": 64,
                "duration": 0.0659091,
                "tempo": 120.0
            },
            {
                "start_time": 26.1045455,
                "end_time": 26.3704545,
                "pitch": 54,
                "velocity": 64,
                "duration": 0.2659091,
                "tempo": 120.0
            },
            {
                "start_time": 26.4045455,
                "end_time": 26.4704545,
                "pitch": 47,
                "velocity": 64,
                "duration": 0.0659091,
                "tempo": 120.0
            },
            {
                "start_time": 26.5045455,
                "end_time": 26.7704545,
                "pitch": 47,
                "velocity": 64,
                "duration": 0.2659091,
                "tempo": 120.0
            },
            {
                "start_time": 26.8045455,
                "end_time": 26.8704545,
                "pitch": 54,
                "velocity": 64,
                "duration": 0.0659091,
                "tempo": 120.0
            },
            {
                "start_time": 26.9045455,
                "end_time": 27.0727273,
                "pitch": 54,
                "velocity": 64,
                "duration": 0.1681818,
                "tempo": 120.0
            },
            {
                "start_time": 27.1045455,
                "end_time": 27.2727273,
                "pitch": 47,
                "velocity": 64,
                "duration": 0.1681818,
                "tempo": 120.0
            },
            {
                "start_time": 27.3068182,
                "end_time": 27.5818182,
                "pitch": 40,
                "velocity": 64,
                "duration": 0.275,
                "tempo": 120.0
            },
            {
                "start_time": 27.6159091,
                "end_time": 27.6840909,
                "pitch": 47,
                "velocity": 64,
                "duration": 0.0681818,
                "tempo": 120.0
            },
            {
                "start_time": 27.7181818,
                "end_time": 27.9840909,
                "pitch": 47,
                "velocity": 64,
                "duration": 0.2659091,
                "tempo": 120.0
            },
            {
                "start_time": 28.0181818,
                "end_time": 28.0840909,
                "pitch": 40,
                "velocity": 64,
                "duration": 0.0659091,
                "tempo": 120.0
            },
            {
                "start_time": 28.1181818,
                "end_time": 28.3795455,
                "pitch": 40,
                "velocity": 64,
                "duration": 0.2613636,
                "tempo": 120.0
            },
            {
                "start_time": 28.4113636,
                "end_time": 28.4772727,
                "pitch": 47,
                "velocity": 64,
                "duration": 0.0659091,
                "tempo": 120.0
            },
            {
                "start_time": 28.5090909,
                "end_time": 28.7772727,
                "pitch": 47,
                "velocity": 64,
                "duration": 0.2681818,
                "tempo": 120.0
            },
            {
                "start_time": 28.8090909,
                "end_time": 28.8772727,
                "pitch": 40,
                "velocity": 64,
                "duration": 0.0681818,
                "tempo": 120.0
            },
            {
                "start_time": 28.9090909,
                "end_time": 29.1840909,
                "pitch": 40,
                "velocity": 64,
                "duration": 0.275,
                "tempo": 120.0
            },
            {
                "start_time": 29.2181818,
                "end_time": 29.2863636,
                "pitch": 47,
                "velocity": 64,
                "duration": 0.0681818,
                "tempo": 120.0
            },
            {
                "start_time": 29.3204545,
                "end_time": 29.5886364,
                "pitch": 47,
                "velocity": 64,
                "duration": 0.2681818,
                "tempo": 120.0
            },
            {
                "start_time": 29.6227273,
                "end_time": 29.6909091,
                "pitch": 40,
                "velocity": 64,
                "duration": 0.0681818,
                "tempo": 120.0
            },
            {
                "start_time": 29.7227273,
                "end_time": 29.9840909,
                "pitch": 40,
                "velocity": 64,
                "duration": 0.2613636,
                "tempo": 120.0
            },
            {
                "start_time": 30.0181818,
                "end_time": 30.0818182,
                "pitch": 47,
                "velocity": 64,
                "duration": 0.0636364,
                "tempo": 120.0
            },
            {
                "start_time": 30.1159091,
                "end_time": 30.2818182,
                "pitch": 47,
                "velocity": 64,
                "duration": 0.1659091,
                "tempo": 120.0
            },
            {
                "start_time": 30.3159091,
                "end_time": 30.4818182,
                "pitch": 52,
                "velocity": 64,
                "duration": 0.1659091,
                "tempo": 120.0
            },
            {
                "start_time": 30.5159091,
                "end_time": 30.7909091,
                "pitch": 45,
                "velocity": 64,
                "duration": 0.275,
                "tempo": 120.0
            },
            {
                "start_time": 30.825,
                "end_time": 30.8931818,
                "pitch": 52,
                "velocity": 64,
                "duration": 0.0681818,
                "tempo": 120.0
            },
            {
                "start_time": 30.925,
                "end_time": 31.1863636,
                "pitch": 52,
                "velocity": 64,
                "duration": 0.2613636,
                "tempo": 120.0
            },
            {
                "start_time": 31.2204545,
                "end_time": 31.2863636,
                "pitch": 45,
                "velocity": 64,
                "duration": 0.0659091,
                "tempo": 120.0
            },
            {
                "start_time": 31.3181818,
                "end_time": 31.5931818,
                "pitch": 45,
                "velocity": 64,
                "duration": 0.275,
                "tempo": 120.0
            },
            {
                "start_time": 31.6272727,
                "end_time": 31.6954545,
                "pitch": 52,
                "velocity": 64,
                "duration": 0.0681818,
                "tempo": 120.0
            },
            {
                "start_time": 31.7295455,
                "end_time": 31.9909091,
                "pitch": 52,
                "velocity": 64,
                "duration": 0.2613636,
                "tempo": 120.0
            },
            {
                "start_time": 32.0227273,
                "end_time": 32.0886364,
                "pitch": 45,
                "velocity": 64,
                "duration": 0.0659091,
                "tempo": 120.0
            },
            {
                "start_time": 32.1204545,
                "end_time": 32.3886364,
                "pitch": 45,
                "velocity": 64,
                "duration": 0.2681818,
                "tempo": 120.0
            },
            {
                "start_time": 32.4204545,
                "end_time": 32.4886364,
                "pitch": 52,
                "velocity": 64,
                "duration": 0.0681818,
                "tempo": 120.0
            },
            {
                "start_time": 32.5204545,
                "end_time": 32.7886364,
                "pitch": 52,
                "velocity": 64,
                "duration": 0.2681818,
                "tempo": 120.0
            },
            {
                "start_time": 32.8204545,
                "end_time": 32.8886364,
                "pitch": 45,
                "velocity": 64,
                "duration": 0.0681818,
                "tempo": 120.0
            },
            {
                "start_time": 32.9204545,
                "end_time": 33.1954545,
                "pitch": 45,
                "velocity": 64,
                "duration": 0.275,
                "tempo": 120.0
            },
            {
                "start_time": 33.2295455,
                "end_time": 33.2977273,
                "pitch": 52,
                "velocity": 64,
                "duration": 0.0681818,
                "tempo": 120.0
            },
            {
                "start_time": 33.3318182,
                "end_time": 33.4977273,
                "pitch": 52,
                "velocity": 64,
                "duration": 0.1659091,
                "tempo": 120.0
            },
            {
                "start_time": 33.5318182,
                "end_time": 33.6977273,
                "pitch": 45,
                "velocity": 64,
                "duration": 0.1659091,
                "tempo": 120.0
            },
            {
                "start_time": 33.7318182,
                "end_time": 33.9977273,
                "pitch": 42,
                "velocity": 64,
                "duration": 0.2659091,
                "tempo": 120.0
            },
            {
                "start_time": 34.0318182,
                "end_time": 34.0977273,
                "pitch": 49,
                "velocity": 64,
                "duration": 0.0659091,
                "tempo": 120.0
            },
            {
                "start_time": 34.1318182,
                "end_time": 34.3977273,
                "pitch": 49,
                "velocity": 64,
                "duration": 0.2659091,
                "tempo": 120.0
            },
            {
                "start_time": 34.4318182,
                "end_time": 34.4977273,
                "pitch": 42,
                "velocity": 64,
                "duration": 0.0659091,
                "tempo": 120.0
            },
            {
                "start_time": 34.5318182,
                "end_time": 34.7977273,
                "pitch": 42,
                "velocity": 64,
                "duration": 0.2659091,
                "tempo": 120.0
            },
            {
                "start_time": 34.8318182,
                "end_time": 34.8977273,
                "pitch": 49,
                "velocity": 64,
                "duration": 0.0659091,
                "tempo": 120.0
            },
            {
                "start_time": 34.9318182,
                "end_time": 35.1931818,
                "pitch": 49,
                "velocity": 64,
                "duration": 0.2613636,
                "tempo": 120.0
            },
            {
                "start_time": 35.225,
                "end_time": 35.2909091,
                "pitch": 42,
                "velocity": 64,
                "duration": 0.0659091,
                "tempo": 120.0
            },
            {
                "start_time": 35.325,
                "end_time": 35.5931818,
                "pitch": 42,
                "velocity": 64,
                "duration": 0.2681818,
                "tempo": 120.0
            },
            {
                "start_time": 35.6272727,
                "end_time": 35.6931818,
                "pitch": 49,
                "velocity": 64,
                "duration": 0.0659091,
                "tempo": 120.0
            },
            {
                "start_time": 35.7272727,
                "end_time": 35.9931818,
                "pitch": 49,
                "velocity": 64,
                "duration": 0.2659091,
                "tempo": 120.0
            },
            {
                "start_time": 36.0272727,
                "end_time": 36.0931818,
                "pitch": 42,
                "velocity": 64,
                "duration": 0.0659091,
                "tempo": 120.0
            },
            {
                "start_time": 36.1272727,
                "end_time": 36.3931818,
                "pitch": 42,
                "velocity": 64,
                "duration": 0.2659091,
                "tempo": 120.0
            },
            {
                "start_time": 36.4272727,
                "end_time": 36.4931818,
                "pitch": 49,
                "velocity": 64,
                "duration": 0.0659091,
                "tempo": 120.0
            },
            {
                "start_time": 36.5272727,
                "end_time": 36.6977273,
                "pitch": 49,
                "velocity": 64,
                "duration": 0.1704545,
                "tempo": 120.0
            },
            {
                "start_time": 36.7318182,
                "end_time": 36.9045455,
                "pitch": 42,
                "velocity": 64,
                "duration": 0.1727273,
                "tempo": 120.0
            },
            {
                "start_time": 36.9363636,
                "end_time": 37.1977273,
                "pitch": 47,
                "velocity": 64,
                "duration": 0.2613636,
                "tempo": 120.0
            },
            {
                "start_time": 37.2318182,
                "end_time": 37.2977273,
                "pitch": 54,
                "velocity": 64,
                "duration": 0.0659091,
                "tempo": 120.0
            },
            {
                "start_time": 37.3295455,
                "end_time": 37.6045455,
                "pitch": 54,
                "velocity": 64,
                "duration": 0.275,
                "tempo": 120.0
            },
            {
                "start_time": 37.6386364,
                "end_time": 37.7068182,
                "pitch": 47,
                "velocity": 64,
                "duration": 0.0681818,
                "tempo": 120.0
            },
            {
                "start_time": 37.7409091,
                "end_time": 38.0068182,
                "pitch": 47,
                "velocity": 64,
                "duration": 0.2659091,
                "tempo": 120.0
            },
            {
                "start_time": 38.0409091,
                "end_time": 38.1068182,
                "pitch": 54,
                "velocity": 64,
                "duration": 0.0659091,
                "tempo": 120.0
            },
            {
                "start_time": 38.1409091,
                "end_time": 38.4022727,
                "pitch": 54,
                "velocity": 64,
                "duration": 0.2613636,
                "tempo": 120.0
            },
            {
                "start_time": 38.4340909,
                "end_time": 38.5,
                "pitch": 47,
                "velocity": 64,
                "duration": 0.0659091,
                "tempo": 120.0
            },
            {
                "start_time": 38.5318182,
                "end_time": 38.8068182,
                "pitch": 47,
                "velocity": 64,
                "duration": 0.275,
                "tempo": 120.0
            },
            {
                "start_time": 38.8409091,
                "end_time": 38.9090909,
                "pitch": 54,
                "velocity": 64,
                "duration": 0.0681818,
                "tempo": 120.0
            },
            {
                "start_time": 38.9431818,
                "end_time": 39.2045455,
                "pitch": 54,
                "velocity": 64,
                "duration": 0.2613636,
                "tempo": 120.0
            },
            {
                "start_time": 39.2363636,
                "end_time": 39.3022727,
                "pitch": 47,
                "velocity": 64,
                "duration": 0.0659091,
                "tempo": 120.0
            },
            {
                "start_time": 39.3363636,
                "end_time": 39.6090909,
                "pitch": 47,
                "velocity": 64,
                "duration": 0.2727273,
                "tempo": 120.0
            },
            {
                "start_time": 39.6431818,
                "end_time": 39.7113636,
                "pitch": 54,
                "velocity": 64,
                "duration": 0.0681818,
                "tempo": 120.0
            },
            {
                "start_time": 39.7454545,
                "end_time": 39.9090909,
                "pitch": 54,
                "velocity": 64,
                "duration": 0.1636364,
                "tempo": 120.0
            },
            {
                "start_time": 39.9409091,
                "end_time": 40.1045455,
                "pitch": 47,
                "velocity": 64,
                "duration": 0.1636364,
                "tempo": 120.0
            },
            {
                "start_time": 40.1386364,
                "end_time": 40.4113636,
                "pitch": 40,
                "velocity": 64,
                "duration": 0.2727273,
                "tempo": 120.0
            },
            {
                "start_time": 40.4454545,
                "end_time": 40.5136364,
                "pitch": 47,
                "velocity": 64,
                "duration": 0.0681818,
                "tempo": 120.0
            },
            {
                "start_time": 40.5477273,
                "end_time": 40.8159091,
                "pitch": 47,
                "velocity": 64,
                "duration": 0.2681818,
                "tempo": 120.0
            },
            {
                "start_time": 40.8477273,
                "end_time": 40.9159091,
                "pitch": 40,
                "velocity": 64,
                "duration": 0.0681818,
                "tempo": 120.0
            },
            {
                "start_time": 40.9477273,
                "end_time": 41.2090909,
                "pitch": 40,
                "velocity": 64,
                "duration": 0.2613636,
                "tempo": 120.0
            },
            {
                "start_time": 41.2431818,
                "end_time": 41.3068182,
                "pitch": 47,
                "velocity": 64,
                "duration": 0.0636364,
                "tempo": 120.0
            },
            {
                "start_time": 41.3409091,
                "end_time": 41.6090909,
                "pitch": 47,
                "velocity": 64,
                "duration": 0.2681818,
                "tempo": 120.0
            },
            {
                "start_time": 41.6431818,
                "end_time": 41.7090909,
                "pitch": 40,
                "velocity": 64,
                "duration": 0.0659091,
                "tempo": 120.0
            },
            {
                "start_time": 41.7431818,
                "end_time": 42.0181818,
                "pitch": 40,
                "velocity": 64,
                "duration": 0.275,
                "tempo": 120.0
            },
            {
                "start_time": 42.0522727,
                "end_time": 42.1204545,
                "pitch": 47,
                "velocity": 64,
                "duration": 0.0681818,
                "tempo": 120.0
            },
            {
                "start_time": 42.1545455,
                "end_time": 42.4204545,
                "pitch": 47,
                "velocity": 64,
                "duration": 0.2659091,
                "tempo": 120.0
            },
            {
                "start_time": 42.4545455,
                "end_time": 42.5204545,
                "pitch": 40,
                "velocity": 64,
                "duration": 0.0659091,
                "tempo": 120.0
            },
            {
                "start_time": 42.5545455,
                "end_time": 42.8204545,
                "pitch": 40,
                "velocity": 64,
                "duration": 0.2659091,
                "tempo": 120.0
            },
            {
                "start_time": 42.8545455,
                "end_time": 42.9204545,
                "pitch": 47,
                "velocity": 64,
                "duration": 0.0659091,
                "tempo": 120.0
            },
            {
                "start_time": 42.9545455,
                "end_time": 43.1227273,
                "pitch": 47,
                "velocity": 64,
                "duration": 0.1681818,
                "tempo": 120.0
            },
            {
                "start_time": 43.1568182,
                "end_time": 43.3227273,
                "pitch": 52,
                "velocity": 64,
                "duration": 0.1659091,
                "tempo": 120.0
            },
            {
                "start_time": 43.3568182,
                "end_time": 43.625,
                "pitch": 50,
                "velocity": 64,
                "duration": 0.2681818,
                "tempo": 120.0
            },
            {
                "start_time": 43.6568182,
                "end_time": 43.725,
                "pitch": 50,
                "velocity": 64,
                "duration": 0.0681818,
                "tempo": 120.0
            },
            {
                "start_time": 43.7568182,
                "end_time": 44.5159091,
                "pitch": 0,
                "velocity": 64,
                "duration": 0.7590909,
                "tempo": 120.0
            },
            {
                "start_time": 44.55,
                "end_time": 44.8159091,
                "pitch": 50,
                "velocity": 64,
                "duration": 0.2659091,
                "tempo": 120.0
            },
            {
                "start_time": 44.85,
                "end_time": 44.9159091,
                "pitch": 50,
                "velocity": 64,
                "duration": 0.0659091,
                "tempo": 120.0
            },
            {
                "start_time": 44.95,
                "end_time": 45.7181818,
                "pitch": 0,
                "velocity": 64,
                "duration": 0.7681818,
                "tempo": 120.0
            },
            {
                "start_time": 45.7522727,
                "end_time": 46.0181818,
                "pitch": 50,
                "velocity": 64,
                "duration": 0.2659091,
                "tempo": 120.0
            },
            {
                "start_time": 46.0522727,
                "end_time": 46.1181818,
                "pitch": 50,
                "velocity": 64,
                "duration": 0.0659091,
                "tempo": 120.0
            },
            {
                "start_time": 46.1522727,
                "end_time": 46.3227273,
                "pitch": 0,
                "velocity": 64,
                "duration": 0.1704545,
                "tempo": 120.0
            },
            {
                "start_time": 46.3568182,
                "end_time": 47.925,
                "pitch": 45,
                "velocity": 64,
                "duration": 1.5681818,
                "tempo": 120.0
            },
            {
                "start_time": 47.9568182,
                "end_time": 48.025,
                "pitch": 44,
                "velocity": 64,
                "duration": 0.0681818,
                "tempo": 120.0
            },
            {
                "start_time": 48.0568182,
                "end_time": 48.125,
                "pitch": 45,
                "velocity": 64,
                "duration": 0.0681818,
                "tempo": 120.0
            },
            {
                "start_time": 48.1568182,
                "end_time": 48.325,
                "pitch": 0,
                "velocity": 64,
                "duration": 0.1681818,
                "tempo": 120.0
            },
            {
                "start_time": 48.3568182,
                "end_time": 48.425,
                "pitch": 45,
                "velocity": 64,
                "duration": 0.0681818,
                "tempo": 120.0
            },
            {
                "start_time": 48.4568182,
                "end_time": 48.525,
                "pitch": 45,
                "velocity": 64,
                "duration": 0.0681818,
                "tempo": 120.0
            },
            {
                "start_time": 48.5568182,
                "end_time": 48.6272727,
                "pitch": 45,
                "velocity": 64,
                "duration": 0.0704545,
                "tempo": 120.0
            },
            {
                "start_time": 48.6613636,
                "end_time": 48.7295455,
                "pitch": 45,
                "velocity": 64,
                "duration": 0.0681818,
                "tempo": 120.0
            },
            {
                "start_time": 48.7636364,
                "end_time": 48.9340909,
                "pitch": 0,
                "velocity": 64,
                "duration": 0.1704545,
                "tempo": 120.0
            },
            {
                "start_time": 48.9681818,
                "end_time": 49.2295455,
                "pitch": 44,
                "velocity": 64,
                "duration": 0.2613636,
                "tempo": 120.0
            },
            {
                "start_time": 49.2613636,
                "end_time": 49.3272727,
                "pitch": 45,
                "velocity": 64,
                "duration": 0.0659091,
                "tempo": 120.0
            },
            {
                "start_time": 49.3613636,
                "end_time": 49.7295455,
                "pitch": 0,
                "velocity": 64,
                "duration": 0.3681818,
                "tempo": 120.0
            },
            {
                "start_time": 49.7636364,
                "end_time": 50.0295455,
                "pitch": 50,
                "velocity": 64,
                "duration": 0.2659091,
                "tempo": 120.0
            },
            {
                "start_time": 50.0636364,
                "end_time": 50.1295455,
                "pitch": 50,
                "velocity": 64,
                "duration": 0.0659091,
                "tempo": 120.0
            },
            {
                "start_time": 50.1636364,
                "end_time": 50.9295455,
                "pitch": 0,
                "velocity": 64,
                "duration": 0.7659091,
                "tempo": 120.0
            },
            {
                "start_time": 50.9636364,
                "end_time": 51.2295455,
                "pitch": 50,
                "velocity": 64,
                "duration": 0.2659091,
                "tempo": 120.0
            },
            {
                "start_time": 51.2636364,
                "end_time": 51.3295455,
                "pitch": 50,
                "velocity": 64,
                "duration": 0.0659091,
                "tempo": 120.0
            },
            {
                "start_time": 51.3636364,
                "end_time": 52.1318182,
                "pitch": 0,
                "velocity": 64,
                "duration": 0.7681818,
                "tempo": 120.0
            },
            {
                "start_time": 52.1659091,
                "end_time": 52.4318182,
                "pitch": 50,
                "velocity": 64,
                "duration": 0.2659091,
                "tempo": 120.0
            },
            {
                "start_time": 52.4659091,
                "end_time": 52.5318182,
                "pitch": 50,
                "velocity": 64,
                "duration": 0.0659091,
                "tempo": 120.0
            },
            {
                "start_time": 52.5659091,
                "end_time": 52.7363636,
                "pitch": 0,
                "velocity": 64,
                "duration": 0.1704545,
                "tempo": 120.0
            },
            {
                "start_time": 52.7704545,
                "end_time": 54.3431818,
                "pitch": 45,
                "velocity": 64,
                "duration": 1.5727273,
                "tempo": 120.0
            },
            {
                "start_time": 54.3772727,
                "end_time": 54.4454545,
                "pitch": 44,
                "velocity": 64,
                "duration": 0.0681818,
                "tempo": 120.0
            },
            {
                "start_time": 54.4795455,
                "end_time": 54.5477273,
                "pitch": 45,
                "velocity": 64,
                "duration": 0.0681818,
                "tempo": 120.0
            },
            {
                "start_time": 54.5818182,
                "end_time": 54.7454545,
                "pitch": 0,
                "velocity": 64,
                "duration": 0.1636364,
                "tempo": 120.0
            },
            {
                "start_time": 54.7772727,
                "end_time": 54.8431818,
                "pitch": 45,
                "velocity": 64,
                "duration": 0.0659091,
                "tempo": 120.0
            },
            {
                "start_time": 54.875,
                "end_time": 55.0431818,
                "pitch": 0,
                "velocity": 64,
                "duration": 0.1681818,
                "tempo": 120.0
            },
            {
                "start_time": 55.0772727,
                "end_time": 55.1454545,
                "pitch": 45,
                "velocity": 64,
                "duration": 0.0681818,
                "tempo": 120.0
            },
            {
                "start_time": 55.1795455,
                "end_time": 55.35,
                "pitch": 0,
                "velocity": 64,
                "duration": 0.1704545,
                "tempo": 120.0
            },
            {
                "start_time": 55.3840909,
                "end_time": 55.7431818,
                "pitch": 45,
                "velocity": 64,
                "duration": 0.3590909,
                "tempo": 120.0
            },
            {
                "start_time": 55.7772727,
                "end_time": 56.1431818,
                "pitch": 0,
                "velocity": 64,
                "duration": 0.3659091,
                "tempo": 120.0
            },
            {
                "start_time": 56.1772727,
                "end_time": 56.4431818,
                "pitch": 50,
                "velocity": 64,
                "duration": 0.2659091,
                "tempo": 120.0
            },
            {
                "start_time": 56.4772727,
                "end_time": 56.5431818,
                "pitch": 50,
                "velocity": 64,
                "duration": 0.0659091,
                "tempo": 120.0
            },
            {
                "start_time": 56.5772727,
                "end_time": 57.3454545,
                "pitch": 0,
                "velocity": 64,
                "duration": 0.7681818,
                "tempo": 120.0
            },
            {
                "start_time": 57.3795455,
                "end_time": 57.6477273,
                "pitch": 50,
                "velocity": 64,
                "duration": 0.2681818,
                "tempo": 120.0
            },
            {
                "start_time": 57.6818182,
                "end_time": 57.75,
                "pitch": 50,
                "velocity": 64,
                "duration": 0.0681818,
                "tempo": 120.0
            },
            {
                "start_time": 57.7818182,
                "end_time": 58.55,
                "pitch": 0,
                "velocity": 64,
                "duration": 0.7681818,
                "tempo": 120.0
            },
            {
                "start_time": 58.5818182,
                "end_time": 58.85,
                "pitch": 50,
                "velocity": 64,
                "duration": 0.2681818,
                "tempo": 120.0
            },
            {
                "start_time": 58.8818182,
                "end_time": 58.95,
                "pitch": 50,
                "velocity": 64,
                "duration": 0.0681818,
                "tempo": 120.0
            },
            {
                "start_time": 58.9818182,
                "end_time": 59.1545455,
                "pitch": 0,
                "velocity": 64,
                "duration": 0.1727273,
                "tempo": 120.0
            },
            {
                "start_time": 59.1886364,
                "end_time": 60.7568182,
                "pitch": 45,
                "velocity": 64,
                "duration": 1.5681818,
                "tempo": 120.0
            },
            {
                "start_time": 60.7909091,
                "end_time": 60.8590909,
                "pitch": 44,
                "velocity": 64,
                "duration": 0.0681818,
                "tempo": 120.0
            },
            {
                "start_time": 60.8931818,
                "end_time": 60.9613636,
                "pitch": 45,
                "velocity": 64,
                "duration": 0.0681818,
                "tempo": 120.0
            },
            {
                "start_time": 60.9954545,
                "end_time": 61.1590909,
                "pitch": 0,
                "velocity": 64,
                "duration": 0.1636364,
                "tempo": 120.0
            },
            {
                "start_time": 61.1909091,
                "end_time": 61.2568182,
                "pitch": 57,
                "velocity": 64,
                "duration": 0.0659091,
                "tempo": 120.0
            },
            {
                "start_time": 61.2909091,
                "end_time": 61.3545455,
                "pitch": 57,
                "velocity": 64,
                "duration": 0.0636364,
                "tempo": 120.0
            },
            {
                "start_time": 61.3886364,
                "end_time": 61.4568182,
                "pitch": 57,
                "velocity": 64,
                "duration": 0.0681818,
                "tempo": 120.0
            },
            {
                "start_time": 61.4909091,
                "end_time": 61.5590909,
                "pitch": 57,
                "velocity": 64,
                "duration": 0.0681818,
                "tempo": 120.0
            },
            {
                "start_time": 61.5931818,
                "end_time": 61.7659091,
                "pitch": 0,
                "velocity": 64,
                "duration": 0.1727273,
                "tempo": 120.0
            },
            {
                "start_time": 61.7977273,
                "end_time": 62.0590909,
                "pitch": 56,
                "velocity": 64,
                "duration": 0.2613636,
                "tempo": 120.0
            },
            {
                "start_time": 62.0931818,
                "end_time": 62.1568182,
                "pitch": 57,
                "velocity": 64,
                "duration": 0.0636364,
                "tempo": 120.0
            },
            {
                "start_time": 62.1909091,
                "end_time": 62.5568182,
                "pitch": 0,
                "velocity": 64,
                "duration": 0.3659091,
                "tempo": 120.0
            },
            {
                "start_time": 62.5909091,
                "end_time": 62.8568182,
                "pitch": 50,
                "velocity": 64,
                "duration": 0.2659091,
                "tempo": 120.0
            },
            {
                "start_time": 62.8909091,
                "end_time": 62.9568182,
                "pitch": 50,
                "velocity": 64,
                "duration": 0.0659091,
                "tempo": 120.0
            },
            {
                "start_time": 62.9909091,
                "end_time": 63.7590909,
                "pitch": 0,
                "velocity": 64,
                "duration": 0.7681818,
                "tempo": 120.0
            },
            {
                "start_time": 63.7931818,
                "end_time": 64.0590909,
                "pitch": 50,
                "velocity": 64,
                "duration": 0.2659091,
                "tempo": 120.0
            },
            {
                "start_time": 64.0931818,
                "end_time": 64.1590909,
                "pitch": 50,
                "velocity": 64,
                "duration": 0.0659091,
                "tempo": 120.0
            },
            {
                "start_time": 64.1931818,
                "end_time": 64.9636364,
                "pitch": 0,
                "velocity": 64,
                "duration": 0.7704545,
                "tempo": 120.0
            },
            {
                "start_time": 64.9954545,
                "end_time": 65.2636364,
                "pitch": 50,
                "velocity": 64,
                "duration": 0.2681818,
                "tempo": 120.0
            },
            {
                "start_time": 65.2954545,
                "end_time": 65.3636364,
                "pitch": 62,
                "velocity": 64,
                "duration": 0.0681818,
                "tempo": 120.0
            },
            {
                "start_time": 65.3977273,
                "end_time": 65.5681818,
                "pitch": 0,
                "velocity": 64,
                "duration": 0.1704545,
                "tempo": 120.0
            },
            {
                "start_time": 65.6022727,
                "end_time": 67.7636364,
                "pitch": 45,
                "velocity": 64,
                "duration": 2.1613636,
                "tempo": 120.0
            },
            {
                "start_time": 67.7977273,
                "end_time": 67.9681818,
                "pitch": 45,
                "velocity": 64,
                "duration": 0.1704545,
                "tempo": 120.0
            },
            {
                "start_time": 68.0022727,
                "end_time": 68.175,
                "pitch": 0,
                "velocity": 64,
                "duration": 0.1727273,
                "tempo": 120.0
            },
            {
                "start_time": 68.2068182,
                "end_time": 68.4772727,
                "pitch": 45,
                "velocity": 64,
                "duration": 0.2704545,
                "tempo": 120.0
            },
            {
                "start_time": 68.5090909,
                "end_time": 68.7727273,
                "pitch": 44,
                "velocity": 64,
                "duration": 0.2636364,
                "tempo": 120.0
            },
            {
                "start_time": 68.8068182,
                "end_time": 70.175,
                "pitch": 42,
                "velocity": 64,
                "duration": 1.3681818,
                "tempo": 120.0
            },
            {
                "start_time": 70.2090909,
                "end_time": 70.4818182,
                "pitch": 42,
                "velocity": 64,
                "duration": 0.2727273,
                "tempo": 120.0
            },
            {
                "start_time": 70.5159091,
                "end_time": 71.7909091,
                "pitch": 40,
                "velocity": 64,
                "duration": 1.275,
                "tempo": 120.0
            },
            {
                "start_time": 71.8227273,
                "end_time": 72.0840909,
                "pitch": 40,
                "velocity": 64,
                "duration": 0.2613636,
                "tempo": 120.0
            },
            {
                "start_time": 72.1181818,
                "end_time": 72.9863636,
                "pitch": 42,
                "velocity": 64,
                "duration": 0.8681818,
                "tempo": 120.0
            },
            {
                "start_time": 73.0181818,
                "end_time": 73.8,
                "pitch": 54,
                "velocity": 64,
                "duration": 0.7818182,
                "tempo": 120.0
            },
            {
                "start_time": 73.8318182,
                "end_time": 73.8977273,
                "pitch": 0,
                "velocity": 64,
                "duration": 0.0659091,
                "tempo": 120.0
            },
            {
                "start_time": 73.9295455,
                "end_time": 73.9954545,
                "pitch": 54,
                "velocity": 64,
                "duration": 0.0659091,
                "tempo": 120.0
            },
            {
                "start_time": 74.0272727,
                "end_time": 74.0931818,
                "pitch": 0,
                "velocity": 64,
                "duration": 0.0659091,
                "tempo": 120.0
            },
            {
                "start_time": 74.125,
                "end_time": 74.1909091,
                "pitch": 54,
                "velocity": 64,
                "duration": 0.0659091,
                "tempo": 120.0
            },
            {
                "start_time": 74.225,
                "end_time": 74.2909091,
                "pitch": 0,
                "velocity": 64,
                "duration": 0.0659091,
                "tempo": 120.0
            },
            {
                "start_time": 74.325,
                "end_time": 74.3909091,
                "pitch": 54,
                "velocity": 64,
                "duration": 0.0659091,
                "tempo": 120.0
            },
            {
                "start_time": 74.425,
                "end_time": 74.4909091,
                "pitch": 0,
                "velocity": 64,
                "duration": 0.0659091,
                "tempo": 120.0
            },
            {
                "start_time": 74.525,
                "end_time": 74.5909091,
                "pitch": 54,
                "velocity": 64,
                "duration": 0.0659091,
                "tempo": 120.0
            },
            {
                "start_time": 74.625,
                "end_time": 75.4045455,
                "pitch": 0,
                "velocity": 64,
                "duration": 0.7795455,
                "tempo": 120.0
            },
            {
                "start_time": 75.4386364,
                "end_time": 75.7136364,
                "pitch": 38,
                "velocity": 64,
                "duration": 0.275,
                "tempo": 120.0
            },
            {
                "start_time": 75.7477273,
                "end_time": 76.0113636,
                "pitch": 45,
                "velocity": 64,
                "duration": 0.2636364,
                "tempo": 120.0
            },
            {
                "start_time": 76.0454545,
                "end_time": 76.1113636,
                "pitch": 50,
                "velocity": 64,
                "duration": 0.0659091,
                "tempo": 120.0
            },
            {
                "start_time": 76.1431818,
                "end_time": 76.2090909,
                "pitch": 0,
                "velocity": 64,
                "duration": 0.0659091,
                "tempo": 120.0
            },
            {
                "start_time": 76.2409091,
                "end_time": 76.5090909,
                "pitch": 50,
                "velocity": 64,
                "duration": 0.2681818,
                "tempo": 120.0
            },
            {
                "start_time": 76.5431818,
                "end_time": 76.6113636,
                "pitch": 45,
                "velocity": 64,
                "duration": 0.0681818,
                "tempo": 120.0
            },
            {
                "start_time": 76.6431818,
                "end_time": 76.8113636,
                "pitch": 45,
                "velocity": 64,
                "duration": 0.1681818,
                "tempo": 120.0
            },
            {
                "start_time": 76.8454545,
                "end_time": 76.9136364,
                "pitch": 50,
                "velocity": 64,
                "duration": 0.0681818,
                "tempo": 120.0
            },
            {
                "start_time": 76.9454545,
                "end_time": 77.0136364,
                "pitch": 0,
                "velocity": 64,
                "duration": 0.0681818,
                "tempo": 120.0
            },
            {
                "start_time": 77.0477273,
                "end_time": 77.3136364,
                "pitch": 40,
                "velocity": 64,
                "duration": 0.2659091,
                "tempo": 120.0
            },
            {
                "start_time": 77.3477273,
                "end_time": 77.6136364,
                "pitch": 47,
                "velocity": 64,
                "duration": 0.2659091,
                "tempo": 120.0
            },
            {
                "start_time": 77.6477273,
                "end_time": 77.7159091,
                "pitch": 52,
                "velocity": 64,
                "duration": 0.0681818,
                "tempo": 120.0
            },
            {
                "start_time": 77.75,
                "end_time": 77.8159091,
                "pitch": 0,
                "velocity": 64,
                "duration": 0.0659091,
                "tempo": 120.0
            },
            {
                "start_time": 77.85,
                "end_time": 78.1159091,
                "pitch": 52,
                "velocity": 64,
                "duration": 0.2659091,
                "tempo": 120.0
            },
            {
                "start_time": 78.15,
                "end_time": 78.2159091,
                "pitch": 47,
                "velocity": 64,
                "duration": 0.0659091,
                "tempo": 120.0
            },
            {
                "start_time": 78.25,
                "end_time": 78.4181818,
                "pitch": 47,
                "velocity": 64,
                "duration": 0.1681818,
                "tempo": 120.0
            },
            {
                "start_time": 78.45,
                "end_time": 78.5181818,
                "pitch": 52,
                "velocity": 64,
                "duration": 0.0681818,
                "tempo": 120.0
            },
            {
                "start_time": 78.5522727,
                "end_time": 78.6181818,
                "pitch": 0,
                "velocity": 64,
                "duration": 0.0659091,
                "tempo": 120.0
            },
            {
                "start_time": 78.6522727,
                "end_time": 78.9204545,
                "pitch": 42,
                "velocity": 64,
                "duration": 0.2681818,
                "tempo": 120.0
            },
            {
                "start_time": 78.9545455,
                "end_time": 79.2204545,
                "pitch": 49,
                "velocity": 64,
                "duration": 0.2659091,
                "tempo": 120.0
            },
            {
                "start_time": 79.2545455,
                "end_time": 79.3204545,
                "pitch": 54,
                "velocity": 64,
                "duration": 0.0659091,
                "tempo": 120.0
            },
            {
                "start_time": 79.3545455,
                "end_time": 79.4204545,
                "pitch": 0,
                "velocity": 64,
                "duration": 0.0659091,
                "tempo": 120.0
            },
            {
                "start_time": 79.4545455,
                "end_time": 79.7227273,
                "pitch": 54,
                "velocity": 64,
                "duration": 0.2681818,
                "tempo": 120.0
            },
            {
                "start_time": 79.7568182,
                "end_time": 79.825,
                "pitch": 49,
                "velocity": 64,
                "duration": 0.0681818,
                "tempo": 120.0
            },
            {
                "start_time": 79.8568182,
                "end_time": 80.025,
                "pitch": 49,
                "velocity": 64,
                "duration": 0.1681818,
                "tempo": 120.0
            },
            {
                "start_time": 80.0568182,
                "end_time": 80.125,
                "pitch": 54,
                "velocity": 64,
                "duration": 0.0681818,
                "tempo": 120.0
            },
            {
                "start_time": 80.1568182,
                "end_time": 80.225,
                "pitch": 0,
                "velocity": 64,
                "duration": 0.0681818,
                "tempo": 120.0
            },
            {
                "start_time": 80.2568182,
                "end_time": 80.525,
                "pitch": 42,
                "velocity": 64,
                "duration": 0.2681818,
                "tempo": 120.0
            },
            {
                "start_time": 80.5590909,
                "end_time": 80.8272727,
                "pitch": 49,
                "velocity": 64,
                "duration": 0.2681818,
                "tempo": 120.0
            },
            {
                "start_time": 80.8613636,
                "end_time": 80.9295455,
                "pitch": 54,
                "velocity": 64,
                "duration": 0.0681818,
                "tempo": 120.0
            },
            {
                "start_time": 80.9613636,
                "end_time": 81.0295455,
                "pitch": 0,
                "velocity": 64,
                "duration": 0.0681818,
                "tempo": 120.0
            },
            {
                "start_time": 81.0636364,
                "end_time": 81.3295455,
                "pitch": 54,
                "velocity": 64,
                "duration": 0.2659091,
                "tempo": 120.0
            },
            {
                "start_time": 81.3636364,
                "end_time": 81.4295455,
                "pitch": 49,
                "velocity": 64,
                "duration": 0.0659091,
                "tempo": 120.0
            },
            {
                "start_time": 81.4636364,
                "end_time": 81.6318182,
                "pitch": 49,
                "velocity": 64,
                "duration": 0.1681818,
                "tempo": 120.0
            },
            {
                "start_time": 81.6636364,
                "end_time": 81.7318182,
                "pitch": 54,
                "velocity": 64,
                "duration": 0.0681818,
                "tempo": 120.0
            },
            {
                "start_time": 81.7659091,
                "end_time": 81.8318182,
                "pitch": 0,
                "velocity": 64,
                "duration": 0.0659091,
                "tempo": 120.0
            },
            {
                "start_time": 81.8659091,
                "end_time": 82.1318182,
                "pitch": 38,
                "velocity": 64,
                "duration": 0.2659091,
                "tempo": 120.0
            },
            {
                "start_time": 82.1659091,
                "end_time": 82.4340909,
                "pitch": 45,
                "velocity": 64,
                "duration": 0.2681818,
                "tempo": 120.0
            },
            {
                "start_time": 82.4659091,
                "end_time": 82.5340909,
                "pitch": 50,
                "velocity": 64,
                "duration": 0.0681818,
                "tempo": 120.0
            },
            {
                "start_time": 82.5681818,
                "end_time": 82.6340909,
                "pitch": 0,
                "velocity": 64,
                "duration": 0.0659091,
                "tempo": 120.0
            },
            {
                "start_time": 82.6681818,
                "end_time": 82.9363636,
                "pitch": 50,
                "velocity": 64,
                "duration": 0.2681818,
                "tempo": 120.0
            },
            {
                "start_time": 82.9704545,
                "end_time": 83.0363636,
                "pitch": 45,
                "velocity": 64,
                "duration": 0.0659091,
                "tempo": 120.0
            },
            {
                "start_time": 83.0704545,
                "end_time": 83.2386364,
                "pitch": 45,
                "velocity": 64,
                "duration": 0.1681818,
                "tempo": 120.0
            },
            {
                "start_time": 83.2704545,
                "end_time": 83.3386364,
                "pitch": 50,
                "velocity": 64,
                "duration": 0.0681818,
                "tempo": 120.0
            },
            {
                "start_time": 83.3704545,
                "end_time": 83.4386364,
                "pitch": 0,
                "velocity": 64,
                "duration": 0.0681818,
                "tempo": 120.0
            },
            {
                "start_time": 83.4704545,
                "end_time": 83.7386364,
                "pitch": 40,
                "velocity": 64,
                "duration": 0.2681818,
                "tempo": 120.0
            },
            {
                "start_time": 83.7727273,
                "end_time": 84.0409091,
                "pitch": 47,
                "velocity": 64,
                "duration": 0.2681818,
                "tempo": 120.0
            },
            {
                "start_time": 84.0727273,
                "end_time": 84.1409091,
                "pitch": 52,
                "velocity": 64,
                "duration": 0.0681818,
                "tempo": 120.0
            },
            {
                "start_time": 84.1727273,
                "end_time": 84.2409091,
                "pitch": 0,
                "velocity": 64,
                "duration": 0.0681818,
                "tempo": 120.0
            },
            {
                "start_time": 84.2727273,
                "end_time": 84.5431818,
                "pitch": 52,
                "velocity": 64,
                "duration": 0.2704545,
                "tempo": 120.0
            },
            {
                "start_time": 84.575,
                "end_time": 84.6431818,
                "pitch": 47,
                "velocity": 64,
                "duration": 0.0681818,
                "tempo": 120.0
            },
            {
                "start_time": 84.6772727,
                "end_time": 84.8431818,
                "pitch": 47,
                "velocity": 64,
                "duration": 0.1659091,
                "tempo": 120.0
            },
            {
                "start_time": 84.8772727,
                "end_time": 84.9454545,
                "pitch": 52,
                "velocity": 64,
                "duration": 0.0681818,
                "tempo": 120.0
            },
            {
                "start_time": 84.9795455,
                "end_time": 85.0454545,
                "pitch": 0,
                "velocity": 64,
                "duration": 0.0659091,
                "tempo": 120.0
            },
            {
                "start_time": 85.0795455,
                "end_time": 85.3454545,
                "pitch": 42,
                "velocity": 64,
                "duration": 0.2659091,
                "tempo": 120.0
            },
            {
                "start_time": 85.3795455,
                "end_time": 85.6477273,
                "pitch": 49,
                "velocity": 64,
                "duration": 0.2681818,
                "tempo": 120.0
            },
            {
                "start_time": 85.6795455,
                "end_time": 85.7477273,
                "pitch": 54,
                "velocity": 64,
                "duration": 0.0681818,
                "tempo": 120.0
            },
            {
                "start_time": 85.7818182,
                "end_time": 85.8477273,
                "pitch": 0,
                "velocity": 64,
                "duration": 0.0659091,
                "tempo": 120.0
            },
            {
                "start_time": 85.8818182,
                "end_time": 86.1477273,
                "pitch": 54,
                "velocity": 64,
                "duration": 0.2659091,
                "tempo": 120.0
            },
            {
                "start_time": 86.1818182,
                "end_time": 86.2477273,
                "pitch": 49,
                "velocity": 64,
                "duration": 0.0659091,
                "tempo": 120.0
            },
            {
                "start_time": 86.2818182,
                "end_time": 86.45,
                "pitch": 49,
                "velocity": 64,
                "duration": 0.1681818,
                "tempo": 120.0
            },
            {
                "start_time": 86.4840909,
                "end_time": 86.55,
                "pitch": 54,
                "velocity": 64,
                "duration": 0.0659091,
                "tempo": 120.0
            },
            {
                "start_time": 86.5840909,
                "end_time": 86.65,
                "pitch": 0,
                "velocity": 64,
                "duration": 0.0659091,
                "tempo": 120.0
            },
            {
                "start_time": 86.6840909,
                "end_time": 86.9522727,
                "pitch": 42,
                "velocity": 64,
                "duration": 0.2681818,
                "tempo": 120.0
            },
            {
                "start_time": 86.9863636,
                "end_time": 87.2545455,
                "pitch": 49,
                "velocity": 64,
                "duration": 0.2681818,
                "tempo": 120.0
            },
            {
                "start_time": 87.2863636,
                "end_time": 87.3545455,
                "pitch": 54,
                "velocity": 64,
                "duration": 0.0681818,
                "tempo": 120.0
            },
            {
                "start_time": 87.3863636,
                "end_time": 87.4545455,
                "pitch": 0,
                "velocity": 64,
                "duration": 0.0681818,
                "tempo": 120.0
            },
            {
                "start_time": 87.4863636,
                "end_time": 87.7545455,
                "pitch": 54,
                "velocity": 64,
                "duration": 0.2681818,
                "tempo": 120.0
            },
            {
                "start_time": 87.7886364,
                "end_time": 87.8568182,
                "pitch": 49,
                "velocity": 64,
                "duration": 0.0681818,
                "tempo": 120.0
            },
            {
                "start_time": 87.8886364,
                "end_time": 88.0568182,
                "pitch": 49,
                "velocity": 64,
                "duration": 0.1681818,
                "tempo": 120.0
            },
            {
                "start_time": 88.0886364,
                "end_time": 88.1568182,
                "pitch": 54,
                "velocity": 64,
                "duration": 0.0681818,
                "tempo": 120.0
            },
            {
                "start_time": 88.1886364,
                "end_time": 88.2568182,
                "pitch": 0,
                "velocity": 64,
                "duration": 0.0681818,
                "tempo": 120.0
            },
            {
                "start_time": 88.2909091,
                "end_time": 88.5590909,
                "pitch": 38,
                "velocity": 64,
                "duration": 0.2681818,
                "tempo": 120.0
            },
            {
                "start_time": 88.5909091,
                "end_time": 88.8613636,
                "pitch": 45,
                "velocity": 64,
                "duration": 0.2704545,
                "tempo": 120.0
            },
            {
                "start_time": 88.8931818,
                "end_time": 88.9613636,
                "pitch": 50,
                "velocity": 64,
                "duration": 0.0681818,
                "tempo": 120.0
            },
            {
                "start_time": 88.9954545,
                "end_time": 89.0613636,
                "pitch": 0,
                "velocity": 64,
                "duration": 0.0659091,
                "tempo": 120.0
            },
            {
                "start_time": 89.0954545,
                "end_time": 89.3613636,
                "pitch": 50,
                "velocity": 64,
                "duration": 0.2659091,
                "tempo": 120.0
            },
            {
                "start_time": 89.3954545,
                "end_time": 89.4613636,
                "pitch": 45,
                "velocity": 64,
                "duration": 0.0659091,
                "tempo": 120.0
            },
            {
                "start_time": 89.4954545,
                "end_time": 89.6636364,
                "pitch": 45,
                "velocity": 64,
                "duration": 0.1681818,
                "tempo": 120.0
            },
            {
                "start_time": 89.6954545,
                "end_time": 89.7636364,
                "pitch": 50,
                "velocity": 64,
                "duration": 0.0681818,
                "tempo": 120.0
            },
            {
                "start_time": 89.7977273,
                "end_time": 89.8636364,
                "pitch": 0,
                "velocity": 64,
                "duration": 0.0659091,
                "tempo": 120.0
            },
            {
                "start_time": 89.8977273,
                "end_time": 90.1636364,
                "pitch": 40,
                "velocity": 64,
                "duration": 0.2659091,
                "tempo": 120.0
            },
            {
                "start_time": 90.1977273,
                "end_time": 90.4659091,
                "pitch": 47,
                "velocity": 64,
                "duration": 0.2681818,
                "tempo": 120.0
            },
            {
                "start_time": 90.5,
                "end_time": 90.5659091,
                "pitch": 52,
                "velocity": 64,
                "duration": 0.0659091,
                "tempo": 120.0
            },
            {
                "start_time": 90.6,
                "end_time": 90.6659091,
                "pitch": 0,
                "velocity": 64,
                "duration": 0.0659091,
                "tempo": 120.0
            },
            {
                "start_time": 90.7,
                "end_time": 90.9681818,
                "pitch": 52,
                "velocity": 64,
                "duration": 0.2681818,
                "tempo": 120.0
            },
            {
                "start_time": 91.0022727,
                "end_time": 91.0704545,
                "pitch": 47,
                "velocity": 64,
                "duration": 0.0681818,
                "tempo": 120.0
            },
            {
                "start_time": 91.1022727,
                "end_time": 91.2704545,
                "pitch": 47,
                "velocity": 64,
                "duration": 0.1681818,
                "tempo": 120.0
            },
            {
                "start_time": 91.3022727,
                "end_time": 91.3704545,
                "pitch": 52,
                "velocity": 64,
                "duration": 0.0681818,
                "tempo": 120.0
            },
            {
                "start_time": 91.4022727,
                "end_time": 91.4704545,
                "pitch": 0,
                "velocity": 64,
                "duration": 0.0681818,
                "tempo": 120.0
            },
            {
                "start_time": 91.5022727,
                "end_time": 91.7727273,
                "pitch": 42,
                "velocity": 64,
                "duration": 0.2704545,
                "tempo": 120.0
            },
            {
                "start_time": 91.8045455,
                "end_time": 92.0727273,
                "pitch": 49,
                "velocity": 64,
                "duration": 0.2681818,
                "tempo": 120.0
            },
            {
                "start_time": 92.1068182,
                "end_time": 92.1727273,
                "pitch": 54,
                "velocity": 64,
                "duration": 0.0659091,
                "tempo": 120.0
            },
            {
                "start_time": 92.2068182,
                "end_time": 92.2727273,
                "pitch": 0,
                "velocity": 64,
                "duration": 0.0659091,
                "tempo": 120.0
            },
            {
                "start_time": 92.3068182,
                "end_time": 92.575,
                "pitch": 54,
                "velocity": 64,
                "duration": 0.2681818,
                "tempo": 120.0
            },
            {
                "start_time": 92.6068182,
                "end_time": 92.675,
                "pitch": 49,
                "velocity": 64,
                "duration": 0.0681818,
                "tempo": 120.0
            },
            {
                "start_time": 92.7090909,
                "end_time": 92.8772727,
                "pitch": 49,
                "velocity": 64,
                "duration": 0.1681818,
                "tempo": 120.0
            },
            {
                "start_time": 92.9090909,
                "end_time": 92.9772727,
                "pitch": 54,
                "velocity": 64,
                "duration": 0.0681818,
                "tempo": 120.0
            },
            {
                "start_time": 93.0113636,
                "end_time": 93.0772727,
                "pitch": 0,
                "velocity": 64,
                "duration": 0.0659091,
                "tempo": 120.0
            },
            {
                "start_time": 93.1113636,
                "end_time": 93.3772727,
                "pitch": 42,
                "velocity": 64,
                "duration": 0.2659091,
                "tempo": 120.0
            },
            {
                "start_time": 93.4113636,
                "end_time": 93.6795455,
                "pitch": 49,
                "velocity": 64,
                "duration": 0.2681818,
                "tempo": 120.0
            },
            {
                "start_time": 93.7136364,
                "end_time": 93.7795455,
                "pitch": 54,
                "velocity": 64,
                "duration": 0.0659091,
                "tempo": 120.0
            },
            {
                "start_time": 93.8136364,
                "end_time": 93.8795455,
                "pitch": 0,
                "velocity": 64,
                "duration": 0.0659091,
                "tempo": 120.0
            },
            {
                "start_time": 93.9136364,
                "end_time": 94.1795455,
                "pitch": 54,
                "velocity": 64,
                "duration": 0.2659091,
                "tempo": 120.0
            },
            {
                "start_time": 94.2136364,
                "end_time": 94.2795455,
                "pitch": 49,
                "velocity": 64,
                "duration": 0.0659091,
                "tempo": 120.0
            },
            {
                "start_time": 94.3136364,
                "end_time": 94.4818182,
                "pitch": 49,
                "velocity": 64,
                "duration": 0.1681818,
                "tempo": 120.0
            },
            {
                "start_time": 94.5159091,
                "end_time": 94.5818182,
                "pitch": 54,
                "velocity": 64,
                "duration": 0.0659091,
                "tempo": 120.0
            },
            {
                "start_time": 94.6159091,
                "end_time": 94.6840909,
                "pitch": 0,
                "velocity": 64,
                "duration": 0.0681818,
                "tempo": 120.0
            },
            {
                "start_time": 94.7159091,
                "end_time": 94.9840909,
                "pitch": 38,
                "velocity": 64,
                "duration": 0.2681818,
                "tempo": 120.0
            },
            {
                "start_time": 95.0181818,
                "end_time": 95.2863636,
                "pitch": 45,
                "velocity": 64,
                "duration": 0.2681818,
                "tempo": 120.0
            },
            {
                "start_time": 95.3181818,
                "end_time": 95.3863636,
                "pitch": 50,
                "velocity": 64,
                "duration": 0.0681818,
                "tempo": 120.0
            },
            {
                "start_time": 95.4181818,
                "end_time": 95.4863636,
                "pitch": 0,
                "velocity": 64,
                "duration": 0.0681818,
                "tempo": 120.0
            },
            {
                "start_time": 95.5204545,
                "end_time": 95.7886364,
                "pitch": 50,
                "velocity": 64,
                "duration": 0.2681818,
                "tempo": 120.0
            },
            {
                "start_time": 95.8204545,
                "end_time": 95.8886364,
                "pitch": 45,
                "velocity": 64,
                "duration": 0.0681818,
                "tempo": 120.0
            },
            {
                "start_time": 95.9227273,
                "end_time": 96.0886364,
                "pitch": 45,
                "velocity": 64,
                "duration": 0.1659091,
                "tempo": 120.0
            },
            {
                "start_time": 96.1227273,
                "end_time": 96.1886364,
                "pitch": 50,
                "velocity": 64,
                "duration": 0.0659091,
                "tempo": 120.0
            },
            {
                "start_time": 96.2227273,
                "end_time": 96.2886364,
                "pitch": 0,
                "velocity": 64,
                "duration": 0.0659091,
                "tempo": 120.0
            },
            {
                "start_time": 96.3227273,
                "end_time": 96.5909091,
                "pitch": 40,
                "velocity": 64,
                "duration": 0.2681818,
                "tempo": 120.0
            },
            {
                "start_time": 96.625,
                "end_time": 96.8931818,
                "pitch": 47,
                "velocity": 64,
                "duration": 0.2681818,
                "tempo": 120.0
            },
            {
                "start_time": 96.925,
                "end_time": 96.9931818,
                "pitch": 52,
                "velocity": 64,
                "duration": 0.0681818,
                "tempo": 120.0
            },
            {
                "start_time": 97.0272727,
                "end_time": 97.0931818,
                "pitch": 0,
                "velocity": 64,
                "duration": 0.0659091,
                "tempo": 120.0
            },
            {
                "start_time": 97.1272727,
                "end_time": 97.3931818,
                "pitch": 52,
                "velocity": 64,
                "duration": 0.2659091,
                "tempo": 120.0
            },
            {
                "start_time": 97.4272727,
                "end_time": 97.4931818,
                "pitch": 47,
                "velocity": 64,
                "duration": 0.0659091,
                "tempo": 120.0
            },
            {
                "start_time": 97.5272727,
                "end_time": 97.6954545,
                "pitch": 47,
                "velocity": 64,
                "duration": 0.1681818,
                "tempo": 120.0
            },
            {
                "start_time": 97.7295455,
                "end_time": 97.7954545,
                "pitch": 52,
                "velocity": 64,
                "duration": 0.0659091,
                "tempo": 120.0
            },
            {
                "start_time": 97.8295455,
                "end_time": 97.8954545,
                "pitch": 0,
                "velocity": 64,
                "duration": 0.0659091,
                "tempo": 120.0
            },
            {
                "start_time": 97.9295455,
                "end_time": 98.1977273,
                "pitch": 42,
                "velocity": 64,
                "duration": 0.2681818,
                "tempo": 120.0
            },
            {
                "start_time": 98.2295455,
                "end_time": 98.4977273,
                "pitch": 49,
                "velocity": 64,
                "duration": 0.2681818,
                "tempo": 120.0
            },
            {
                "start_time": 98.5318182,
                "end_time": 98.5977273,
                "pitch": 54,
                "velocity": 64,
                "duration": 0.0659091,
                "tempo": 120.0
            },
            {
                "start_time": 98.6318182,
                "end_time": 98.7,
                "pitch": 0,
                "velocity": 64,
                "duration": 0.0681818,
                "tempo": 120.0
            },
            {
                "start_time": 98.7318182,
                "end_time": 99.0022727,
                "pitch": 54,
                "velocity": 64,
                "duration": 0.2704545,
                "tempo": 120.0
            },
            {
                "start_time": 99.0340909,
                "end_time": 99.1022727,
                "pitch": 49,
                "velocity": 64,
                "duration": 0.0681818,
                "tempo": 120.0
            },
            {
                "start_time": 99.1363636,
                "end_time": 99.3022727,
                "pitch": 49,
                "velocity": 64,
                "duration": 0.1659091,
                "tempo": 120.0
            },
            {
                "start_time": 99.3363636,
                "end_time": 99.4022727,
                "pitch": 54,
                "velocity": 64,
                "duration": 0.0659091,
                "tempo": 120.0
            },
            {
                "start_time": 99.4363636,
                "end_time": 99.5022727,
                "pitch": 0,
                "velocity": 64,
                "duration": 0.0659091,
                "tempo": 120.0
            },
            {
                "start_time": 99.5340909,
                "end_time": 99.6318182,
                "pitch": 0,
                "velocity": 64,
                "duration": 0.0977273,
                "tempo": 120.0
            },
            {
                "start_time": 99.6659091,
                "end_time": 99.7636364,
                "pitch": 42,
                "velocity": 64,
                "duration": 0.0977273,
                "tempo": 120.0
            },
            {
                "start_time": 99.7954545,
                "end_time": 99.8931818,
                "pitch": 42,
                "velocity": 64,
                "duration": 0.0977273,
                "tempo": 120.0
            },
            {
                "start_time": 99.9272727,
                "end_time": 100.0295455,
                "pitch": 42,
                "velocity": 64,
                "duration": 0.1022727,
                "tempo": 120.0
            },
            {
                "start_time": 100.0636364,
                "end_time": 100.1681818,
                "pitch": 42,
                "velocity": 64,
                "duration": 0.1045455,
                "tempo": 120.0
            },
            {
                "start_time": 100.2022727,
                "end_time": 100.3045455,
                "pitch": 42,
                "velocity": 64,
                "duration": 0.1022727,
                "tempo": 120.0
            },
            {
                "start_time": 100.3386364,
                "end_time": 100.4386364,
                "pitch": 42,
                "velocity": 64,
                "duration": 0.1,
                "tempo": 120.0
            },
            {
                "start_time": 100.4727273,
                "end_time": 101.1090909,
                "pitch": 0,
                "velocity": 64,
                "duration": 0.6363636,
                "tempo": 120.0
            },
            {
                "start_time": 101.1431818,
                "end_time": 101.4113636,
                "pitch": 45,
                "velocity": 64,
                "duration": 0.2681818,
                "tempo": 120.0
            },
            {
                "start_time": 101.4431818,
                "end_time": 101.5113636,
                "pitch": 52,
                "velocity": 64,
                "duration": 0.0681818,
                "tempo": 120.0
            },
            {
                "start_time": 101.5431818,
                "end_time": 101.8181818,
                "pitch": 52,
                "velocity": 64,
                "duration": 0.275,
                "tempo": 120.0
            },
            {
                "start_time": 101.8522727,
                "end_time": 101.9204545,
                "pitch": 45,
                "velocity": 64,
                "duration": 0.0681818,
                "tempo": 120.0
            },
            {
                "start_time": 101.9545455,
                "end_time": 102.2159091,
                "pitch": 45,
                "velocity": 64,
                "duration": 0.2613636,
                "tempo": 120.0
            },
            {
                "start_time": 102.2477273,
                "end_time": 102.3136364,
                "pitch": 52,
                "velocity": 64,
                "duration": 0.0659091,
                "tempo": 120.0
            },
            {
                "start_time": 102.3454545,
                "end_time": 102.6204545,
                "pitch": 52,
                "velocity": 64,
                "duration": 0.275,
                "tempo": 120.0
            },
            {
                "start_time": 102.6545455,
                "end_time": 102.7227273,
                "pitch": 45,
                "velocity": 64,
                "duration": 0.0681818,
                "tempo": 120.0
            },
            {
                "start_time": 102.7568182,
                "end_time": 103.0181818,
                "pitch": 45,
                "velocity": 64,
                "duration": 0.2613636,
                "tempo": 120.0
            },
            {
                "start_time": 103.05,
                "end_time": 103.1159091,
                "pitch": 52,
                "velocity": 64,
                "duration": 0.0659091,
                "tempo": 120.0
            },
            {
                "start_time": 103.15,
                "end_time": 103.4227273,
                "pitch": 52,
                "velocity": 64,
                "duration": 0.2727273,
                "tempo": 120.0
            },
            {
                "start_time": 103.4568182,
                "end_time": 103.525,
                "pitch": 45,
                "velocity": 64,
                "duration": 0.0681818,
                "tempo": 120.0
            },
            {
                "start_time": 103.5590909,
                "end_time": 103.8272727,
                "pitch": 45,
                "velocity": 64,
                "duration": 0.2681818,
                "tempo": 120.0
            },
            {
                "start_time": 103.8590909,
                "end_time": 103.9272727,
                "pitch": 52,
                "velocity": 64,
                "duration": 0.0681818,
                "tempo": 120.0
            },
            {
                "start_time": 103.9590909,
                "end_time": 104.1272727,
                "pitch": 52,
                "velocity": 64,
                "duration": 0.1681818,
                "tempo": 120.0
            },
            {
                "start_time": 104.1613636,
                "end_time": 104.3295455,
                "pitch": 45,
                "velocity": 64,
                "duration": 0.1681818,
                "tempo": 120.0
            },
            {
                "start_time": 104.3636364,
                "end_time": 104.6318182,
                "pitch": 42,
                "velocity": 64,
                "duration": 0.2681818,
                "tempo": 120.0
            },
            {
                "start_time": 104.6636364,
                "end_time": 104.7318182,
                "pitch": 49,
                "velocity": 64,
                "duration": 0.0681818,
                "tempo": 120.0
            },
            {
                "start_time": 104.7659091,
                "end_time": 105.0318182,
                "pitch": 49,
                "velocity": 64,
                "duration": 0.2659091,
                "tempo": 120.0
            },
            {
                "start_time": 105.0659091,
                "end_time": 105.1318182,
                "pitch": 42,
                "velocity": 64,
                "duration": 0.0659091,
                "tempo": 120.0
            },
            {
                "start_time": 105.1659091,
                "end_time": 105.4272727,
                "pitch": 42,
                "velocity": 64,
                "duration": 0.2613636,
                "tempo": 120.0
            },
            {
                "start_time": 105.4590909,
                "end_time": 105.525,
                "pitch": 49,
                "velocity": 64,
                "duration": 0.0659091,
                "tempo": 120.0
            },
            {
                "start_time": 105.5568182,
                "end_time": 105.825,
                "pitch": 49,
                "velocity": 64,
                "duration": 0.2681818,
                "tempo": 120.0
            },
            {
                "start_time": 105.8590909,
                "end_time": 105.9272727,
                "pitch": 42,
                "velocity": 64,
                "duration": 0.0681818,
                "tempo": 120.0
            },
            {
                "start_time": 105.9590909,
                "end_time": 106.2272727,
                "pitch": 42,
                "velocity": 64,
                "duration": 0.2681818,
                "tempo": 120.0
            },
            {
                "start_time": 106.2590909,
                "end_time": 106.3272727,
                "pitch": 49,
                "velocity": 64,
                "duration": 0.0681818,
                "tempo": 120.0
            },
            {
                "start_time": 106.3613636,
                "end_time": 106.6340909,
                "pitch": 49,
                "velocity": 64,
                "duration": 0.2727273,
                "tempo": 120.0
            },
            {
                "start_time": 106.6681818,
                "end_time": 106.7363636,
                "pitch": 42,
                "velocity": 64,
                "duration": 0.0681818,
                "tempo": 120.0
            },
            {
                "start_time": 106.7704545,
                "end_time": 107.0318182,
                "pitch": 42,
                "velocity": 64,
                "duration": 0.2613636,
                "tempo": 120.0
            },
            {
                "start_time": 107.0636364,
                "end_time": 107.1295455,
                "pitch": 49,
                "velocity": 64,
                "duration": 0.0659091,
                "tempo": 120.0
            },
            {
                "start_time": 107.1636364,
                "end_time": 107.3295455,
                "pitch": 49,
                "velocity": 64,
                "duration": 0.1659091,
                "tempo": 120.0
            },
            {
                "start_time": 107.3636364,
                "end_time": 107.5295455,
                "pitch": 42,
                "velocity": 64,
                "duration": 0.1659091,
                "tempo": 120.0
            },
            {
                "start_time": 107.5636364,
                "end_time": 107.8318182,
                "pitch": 47,
                "velocity": 64,
                "duration": 0.2681818,
                "tempo": 120.0
            },
            {
                "start_time": 107.8659091,
                "end_time": 107.9318182,
                "pitch": 54,
                "velocity": 64,
                "duration": 0.0659091,
                "tempo": 120.0
            },
            {
                "start_time": 107.9659091,
                "end_time": 108.2409091,
                "pitch": 54,
                "velocity": 64,
                "duration": 0.275,
                "tempo": 120.0
            },
            {
                "start_time": 108.275,
                "end_time": 108.3431818,
                "pitch": 47,
                "velocity": 64,
                "duration": 0.0681818,
                "tempo": 120.0
            },
            {
                "start_time": 108.375,
                "end_time": 108.6386364,
                "pitch": 47,
                "velocity": 64,
                "duration": 0.2636364,
                "tempo": 120.0
            },
            {
                "start_time": 108.6704545,
                "end_time": 108.7363636,
                "pitch": 54,
                "velocity": 64,
                "duration": 0.0659091,
                "tempo": 120.0
            },
            {
                "start_time": 108.7681818,
                "end_time": 109.0431818,
                "pitch": 54,
                "velocity": 64,
                "duration": 0.275,
                "tempo": 120.0
            },
            {
                "start_time": 109.0772727,
                "end_time": 109.1454545,
                "pitch": 47,
                "velocity": 64,
                "duration": 0.0681818,
                "tempo": 120.0
            },
            {
                "start_time": 109.1795455,
                "end_time": 109.4477273,
                "pitch": 47,
                "velocity": 64,
                "duration": 0.2681818,
                "tempo": 120.0
            },
            {
                "start_time": 109.4818182,
                "end_time": 109.5477273,
                "pitch": 54,
                "velocity": 64,
                "duration": 0.0659091,
                "tempo": 120.0
            },
            {
                "start_time": 109.5818182,
                "end_time": 109.8431818,
                "pitch": 54,
                "velocity": 64,
                "duration": 0.2613636,
                "tempo": 120.0
            },
            {
                "start_time": 109.875,
                "end_time": 109.9409091,
                "pitch": 47,
                "velocity": 64,
                "duration": 0.0659091,
                "tempo": 120.0
            },
            {
                "start_time": 109.975,
                "end_time": 110.2409091,
                "pitch": 47,
                "velocity": 64,
                "duration": 0.2659091,
                "tempo": 120.0
            },
            {
                "start_time": 110.275,
                "end_time": 110.3409091,
                "pitch": 54,
                "velocity": 64,
                "duration": 0.0659091,
                "tempo": 120.0
            },
            {
                "start_time": 110.375,
                "end_time": 110.5454545,
                "pitch": 54,
                "velocity": 64,
                "duration": 0.1704545,
                "tempo": 120.0
            },
            {
                "start_time": 110.5795455,
                "end_time": 110.75,
                "pitch": 47,
                "velocity": 64,
                "duration": 0.1704545,
                "tempo": 120.0
            },
            {
                "start_time": 110.7840909,
                "end_time": 111.0522727,
                "pitch": 40,
                "velocity": 64,
                "duration": 0.2681818,
                "tempo": 120.0
            },
            {
                "start_time": 111.0840909,
                "end_time": 111.1522727,
                "pitch": 47,
                "velocity": 64,
                "duration": 0.0681818,
                "tempo": 120.0
            },
            {
                "start_time": 111.1840909,
                "end_time": 111.4545455,
                "pitch": 47,
                "velocity": 64,
                "duration": 0.2704545,
                "tempo": 120.0
            },
            {
                "start_time": 111.4863636,
                "end_time": 111.5545455,
                "pitch": 40,
                "velocity": 64,
                "duration": 0.0681818,
                "tempo": 120.0
            },
            {
                "start_time": 111.5863636,
                "end_time": 111.8477273,
                "pitch": 40,
                "velocity": 64,
                "duration": 0.2613636,
                "tempo": 120.0
            },
            {
                "start_time": 111.8818182,
                "end_time": 111.9477273,
                "pitch": 47,
                "velocity": 64,
                "duration": 0.0659091,
                "tempo": 120.0
            },
            {
                "start_time": 111.9795455,
                "end_time": 112.2545455,
                "pitch": 47,
                "velocity": 64,
                "duration": 0.275,
                "tempo": 120.0
            },
            {
                "start_time": 112.2886364,
                "end_time": 112.3568182,
                "pitch": 40,
                "velocity": 64,
                "duration": 0.0681818,
                "tempo": 120.0
            },
            {
                "start_time": 112.3909091,
                "end_time": 112.6590909,
                "pitch": 40,
                "velocity": 64,
                "duration": 0.2681818,
                "tempo": 120.0
            },
            {
                "start_time": 112.6931818,
                "end_time": 112.7590909,
                "pitch": 47,
                "velocity": 64,
                "duration": 0.0659091,
                "tempo": 120.0
            },
            {
                "start_time": 112.7931818,
                "end_time": 113.0590909,
                "pitch": 47,
                "velocity": 64,
                "duration": 0.2659091,
                "tempo": 120.0
            },
            {
                "start_time": 113.0931818,
                "end_time": 113.1590909,
                "pitch": 40,
                "velocity": 64,
                "duration": 0.0659091,
                "tempo": 120.0
            },
            {
                "start_time": 113.1931818,
                "end_time": 113.4545455,
                "pitch": 40,
                "velocity": 64,
                "duration": 0.2613636,
                "tempo": 120.0
            },
            {
                "start_time": 113.4863636,
                "end_time": 113.5522727,
                "pitch": 47,
                "velocity": 64,
                "duration": 0.0659091,
                "tempo": 120.0
            },
            {
                "start_time": 113.5863636,
                "end_time": 113.7568182,
                "pitch": 47,
                "velocity": 64,
                "duration": 0.1704545,
                "tempo": 120.0
            },
            {
                "start_time": 113.7909091,
                "end_time": 113.9613636,
                "pitch": 52,
                "velocity": 64,
                "duration": 0.1704545,
                "tempo": 120.0
            },
            {
                "start_time": 113.9954545,
                "end_time": 114.2636364,
                "pitch": 45,
                "velocity": 64,
                "duration": 0.2681818,
                "tempo": 120.0
            },
            {
                "start_time": 114.2977273,
                "end_time": 114.3659091,
                "pitch": 52,
                "velocity": 64,
                "duration": 0.0681818,
                "tempo": 120.0
            },
            {
                "start_time": 114.4,
                "end_time": 114.6681818,
                "pitch": 52,
                "velocity": 64,
                "duration": 0.2681818,
                "tempo": 120.0
            },
            {
                "start_time": 114.7,
                "end_time": 114.7681818,
                "pitch": 45,
                "velocity": 64,
                "duration": 0.0681818,
                "tempo": 120.0
            },
            {
                "start_time": 114.8022727,
                "end_time": 115.0681818,
                "pitch": 45,
                "velocity": 64,
                "duration": 0.2659091,
                "tempo": 120.0
            },
            {
                "start_time": 115.1022727,
                "end_time": 115.1681818,
                "pitch": 52,
                "velocity": 64,
                "duration": 0.0659091,
                "tempo": 120.0
            },
            {
                "start_time": 115.2022727,
                "end_time": 115.4704545,
                "pitch": 52,
                "velocity": 64,
                "duration": 0.2681818,
                "tempo": 120.0
            },
            {
                "start_time": 115.5045455,
                "end_time": 115.5704545,
                "pitch": 45,
                "velocity": 64,
                "duration": 0.0659091,
                "tempo": 120.0
            },
            {
                "start_time": 115.6045455,
                "end_time": 115.8659091,
                "pitch": 45,
                "velocity": 64,
                "duration": 0.2613636,
                "tempo": 120.0
            },
            {
                "start_time": 115.8977273,
                "end_time": 115.9636364,
                "pitch": 52,
                "velocity": 64,
                "duration": 0.0659091,
                "tempo": 120.0
            },
            {
                "start_time": 115.9954545,
                "end_time": 116.2636364,
                "pitch": 52,
                "velocity": 64,
                "duration": 0.2681818,
                "tempo": 120.0
            },
            {
                "start_time": 116.2954545,
                "end_time": 116.3636364,
                "pitch": 45,
                "velocity": 64,
                "duration": 0.0681818,
                "tempo": 120.0
            },
            {
                "start_time": 116.3954545,
                "end_time": 116.6704545,
                "pitch": 45,
                "velocity": 64,
                "duration": 0.275,
                "tempo": 120.0
            },
            {
                "start_time": 116.7045455,
                "end_time": 116.7727273,
                "pitch": 52,
                "velocity": 64,
                "duration": 0.0681818,
                "tempo": 120.0
            },
            {
                "start_time": 116.8068182,
                "end_time": 116.9704545,
                "pitch": 52,
                "velocity": 64,
                "duration": 0.1636364,
                "tempo": 120.0
            },
            {
                "start_time": 117.0022727,
                "end_time": 117.1659091,
                "pitch": 45,
                "velocity": 64,
                "duration": 0.1636364,
                "tempo": 120.0
            },
            {
                "start_time": 117.2,
                "end_time": 117.4727273,
                "pitch": 42,
                "velocity": 64,
                "duration": 0.2727273,
                "tempo": 120.0
            },
            {
                "start_time": 117.5068182,
                "end_time": 117.575,
                "pitch": 49,
                "velocity": 64,
                "duration": 0.0681818,
                "tempo": 120.0
            },
            {
                "start_time": 117.6090909,
                "end_time": 117.8772727,
                "pitch": 49,
                "velocity": 64,
                "duration": 0.2681818,
                "tempo": 120.0
            },
            {
                "start_time": 117.9090909,
                "end_time": 117.9772727,
                "pitch": 42,
                "velocity": 64,
                "duration": 0.0681818,
                "tempo": 120.0
            },
            {
                "start_time": 118.0090909,
                "end_time": 118.2795455,
                "pitch": 42,
                "velocity": 64,
                "duration": 0.2704545,
                "tempo": 120.0
            },
            {
                "start_time": 118.3113636,
                "end_time": 118.3795455,
                "pitch": 49,
                "velocity": 64,
                "duration": 0.0681818,
                "tempo": 120.0
            },
            {
                "start_time": 118.4113636,
                "end_time": 118.6727273,
                "pitch": 49,
                "velocity": 64,
                "duration": 0.2613636,
                "tempo": 120.0
            },
            {
                "start_time": 118.7068182,
                "end_time": 118.7727273,
                "pitch": 42,
                "velocity": 64,
                "duration": 0.0659091,
                "tempo": 120.0
            },
            {
                "start_time": 118.8045455,
                "end_time": 119.0727273,
                "pitch": 42,
                "velocity": 64,
                "duration": 0.2681818,
                "tempo": 120.0
            },
            {
                "start_time": 119.1068182,
                "end_time": 119.175,
                "pitch": 49,
                "velocity": 64,
                "duration": 0.0681818,
                "tempo": 120.0
            },
            {
                "start_time": 119.2068182,
                "end_time": 119.475,
                "pitch": 49,
                "velocity": 64,
                "duration": 0.2681818,
                "tempo": 120.0
            },
            {
                "start_time": 119.5068182,
                "end_time": 119.575,
                "pitch": 42,
                "velocity": 64,
                "duration": 0.0681818,
                "tempo": 120.0
            },
            {
                "start_time": 119.6068182,
                "end_time": 119.875,
                "pitch": 42,
                "velocity": 64,
                "duration": 0.2681818,
                "tempo": 120.0
            },
            {
                "start_time": 119.9090909,
                "end_time": 119.9772727,
                "pitch": 49,
                "velocity": 64,
                "duration": 0.0681818,
                "tempo": 120.0
            },
            {
                "start_time": 120.0090909,
                "end_time": 120.1772727,
                "pitch": 49,
                "velocity": 64,
                "duration": 0.1681818,
                "tempo": 120.0
            },
            {
                "start_time": 120.2090909,
                "end_time": 120.3772727,
                "pitch": 42,
                "velocity": 64,
                "duration": 0.1681818,
                "tempo": 120.0
            },
            {
                "start_time": 120.4113636,
                "end_time": 120.6840909,
                "pitch": 47,
                "velocity": 64,
                "duration": 0.2727273,
                "tempo": 120.0
            },
            {
                "start_time": 120.7181818,
                "end_time": 120.7863636,
                "pitch": 54,
                "velocity": 64,
                "duration": 0.0681818,
                "tempo": 120.0
            },
            {
                "start_time": 120.8204545,
                "end_time": 121.0886364,
                "pitch": 54,
                "velocity": 64,
                "duration": 0.2681818,
                "tempo": 120.0
            },
            {
                "start_time": 121.1204545,
                "end_time": 121.1886364,
                "pitch": 47,
                "velocity": 64,
                "duration": 0.0681818,
                "tempo": 120.0
            },
            {
                "start_time": 121.2204545,
                "end_time": 121.4886364,
                "pitch": 47,
                "velocity": 64,
                "duration": 0.2681818,
                "tempo": 120.0
            },
            {
                "start_time": 121.5227273,
                "end_time": 121.5909091,
                "pitch": 54,
                "velocity": 64,
                "duration": 0.0681818,
                "tempo": 120.0
            },
            {
                "start_time": 121.6227273,
                "end_time": 121.8840909,
                "pitch": 54,
                "velocity": 64,
                "duration": 0.2613636,
                "tempo": 120.0
            },
            {
                "start_time": 121.9181818,
                "end_time": 121.9818182,
                "pitch": 47,
                "velocity": 64,
                "duration": 0.0636364,
                "tempo": 120.0
            },
            {
                "start_time": 122.0159091,
                "end_time": 122.2818182,
                "pitch": 47,
                "velocity": 64,
                "duration": 0.2659091,
                "tempo": 120.0
            },
            {
                "start_time": 122.3159091,
                "end_time": 122.3818182,
                "pitch": 54,
                "velocity": 64,
                "duration": 0.0659091,
                "tempo": 120.0
            },
            {
                "start_time": 122.4159091,
                "end_time": 122.6840909,
                "pitch": 54,
                "velocity": 64,
                "duration": 0.2681818,
                "tempo": 120.0
            },
            {
                "start_time": 122.7181818,
                "end_time": 122.7840909,
                "pitch": 47,
                "velocity": 64,
                "duration": 0.0659091,
                "tempo": 120.0
            },
            {
                "start_time": 122.8181818,
                "end_time": 123.0863636,
                "pitch": 47,
                "velocity": 64,
                "duration": 0.2681818,
                "tempo": 120.0
            },
            {
                "start_time": 123.1204545,
                "end_time": 123.1886364,
                "pitch": 54,
                "velocity": 64,
                "duration": 0.0681818,
                "tempo": 120.0
            },
            {
                "start_time": 123.2204545,
                "end_time": 123.3931818,
                "pitch": 54,
                "velocity": 64,
                "duration": 0.1727273,
                "tempo": 120.0
            },
            {
                "start_time": 123.4272727,
                "end_time": 123.5977273,
                "pitch": 47,
                "velocity": 64,
                "duration": 0.1704545,
                "tempo": 120.0
            },
            {
                "start_time": 123.6318182,
                "end_time": 123.9,
                "pitch": 40,
                "velocity": 64,
                "duration": 0.2681818,
                "tempo": 120.0
            },
            {
                "start_time": 123.9318182,
                "end_time": 124.0,
                "pitch": 47,
                "velocity": 64,
                "duration": 0.0681818,
                "tempo": 120.0
            },
            {
                "start_time": 124.0318182,
                "end_time": 124.3,
                "pitch": 47,
                "velocity": 64,
                "duration": 0.2681818,
                "tempo": 120.0
            },
            {
                "start_time": 124.3340909,
                "end_time": 124.4022727,
                "pitch": 40,
                "velocity": 64,
                "duration": 0.0681818,
                "tempo": 120.0
            },
            {
                "start_time": 124.4340909,
                "end_time": 124.6954545,
                "pitch": 40,
                "velocity": 64,
                "duration": 0.2613636,
                "tempo": 120.0
            },
            {
                "start_time": 124.7295455,
                "end_time": 124.7931818,
                "pitch": 47,
                "velocity": 64,
                "duration": 0.0636364,
                "tempo": 120.0
            },
            {
                "start_time": 124.8272727,
                "end_time": 125.0954545,
                "pitch": 47,
                "velocity": 64,
                "duration": 0.2681818,
                "tempo": 120.0
            },
            {
                "start_time": 125.1295455,
                "end_time": 125.1954545,
                "pitch": 40,
                "velocity": 64,
                "duration": 0.0659091,
                "tempo": 120.0
            },
            {
                "start_time": 125.2295455,
                "end_time": 125.5045455,
                "pitch": 40,
                "velocity": 64,
                "duration": 0.275,
                "tempo": 120.0
            },
            {
                "start_time": 125.5386364,
                "end_time": 125.6068182,
                "pitch": 47,
                "velocity": 64,
                "duration": 0.0681818,
                "tempo": 120.0
            },
            {
                "start_time": 125.6409091,
                "end_time": 125.9068182,
                "pitch": 47,
                "velocity": 64,
                "duration": 0.2659091,
                "tempo": 120.0
            },
            {
                "start_time": 125.9409091,
                "end_time": 126.0068182,
                "pitch": 40,
                "velocity": 64,
                "duration": 0.0659091,
                "tempo": 120.0
            },
            {
                "start_time": 126.0409091,
                "end_time": 126.3090909,
                "pitch": 40,
                "velocity": 64,
                "duration": 0.2681818,
                "tempo": 120.0
            },
            {
                "start_time": 126.3431818,
                "end_time": 126.4090909,
                "pitch": 47,
                "velocity": 64,
                "duration": 0.0659091,
                "tempo": 120.0
            },
            {
                "start_time": 126.4431818,
                "end_time": 126.6113636,
                "pitch": 47,
                "velocity": 64,
                "duration": 0.1681818,
                "tempo": 120.0
            },
            {
                "start_time": 126.6454545,
                "end_time": 126.8136364,
                "pitch": 52,
                "velocity": 64,
                "duration": 0.1681818,
                "tempo": 120.0
            },
            {
                "start_time": 126.8454545,
                "end_time": 127.1136364,
                "pitch": 50,
                "velocity": 64,
                "duration": 0.2681818,
                "tempo": 120.0
            },
            {
                "start_time": 127.1454545,
                "end_time": 127.2136364,
                "pitch": 50,
                "velocity": 64,
                "duration": 0.0681818,
                "tempo": 120.0
            },
            {
                "start_time": 127.2454545,
                "end_time": 128.0068182,
                "pitch": 0,
                "velocity": 64,
                "duration": 0.7613636,
                "tempo": 120.0
            },
            {
                "start_time": 128.0409091,
                "end_time": 128.3068182,
                "pitch": 50,
                "velocity": 64,
                "duration": 0.2659091,
                "tempo": 120.0
            },
            {
                "start_time": 128.3409091,
                "end_time": 128.4068182,
                "pitch": 50,
                "velocity": 64,
                "duration": 0.0659091,
                "tempo": 120.0
            },
            {
                "start_time": 128.4409091,
                "end_time": 129.2136364,
                "pitch": 0,
                "velocity": 64,
                "duration": 0.7727273,
                "tempo": 120.0
            },
            {
                "start_time": 129.2454545,
                "end_time": 129.5159091,
                "pitch": 50,
                "velocity": 64,
                "duration": 0.2704545,
                "tempo": 120.0
            },
            {
                "start_time": 129.5477273,
                "end_time": 129.6159091,
                "pitch": 50,
                "velocity": 64,
                "duration": 0.0681818,
                "tempo": 120.0
            },
            {
                "start_time": 129.65,
                "end_time": 129.8204545,
                "pitch": 0,
                "velocity": 64,
                "duration": 0.1704545,
                "tempo": 120.0
            },
            {
                "start_time": 129.8545455,
                "end_time": 131.4295455,
                "pitch": 45,
                "velocity": 64,
                "duration": 1.575,
                "tempo": 120.0
            },
            {
                "start_time": 131.4636364,
                "end_time": 131.5318182,
                "pitch": 44,
                "velocity": 64,
                "duration": 0.0681818,
                "tempo": 120.0
            },
            {
                "start_time": 131.5659091,
                "end_time": 131.6340909,
                "pitch": 45,
                "velocity": 64,
                "duration": 0.0681818,
                "tempo": 120.0
            },
            {
                "start_time": 131.6681818,
                "end_time": 131.8318182,
                "pitch": 0,
                "velocity": 64,
                "duration": 0.1636364,
                "tempo": 120.0
            },
            {
                "start_time": 131.8636364,
                "end_time": 131.9295455,
                "pitch": 45,
                "velocity": 64,
                "duration": 0.0659091,
                "tempo": 120.0
            },
            {
                "start_time": 131.9613636,
                "end_time": 132.0272727,
                "pitch": 45,
                "velocity": 64,
                "duration": 0.0659091,
                "tempo": 120.0
            },
            {
                "start_time": 132.0590909,
                "end_time": 132.1295455,
                "pitch": 45,
                "velocity": 64,
                "duration": 0.0704545,
                "tempo": 120.0
            },
            {
                "start_time": 132.1636364,
                "end_time": 132.2318182,
                "pitch": 45,
                "velocity": 64,
                "duration": 0.0681818,
                "tempo": 120.0
            },
            {
                "start_time": 132.2659091,
                "end_time": 132.4363636,
                "pitch": 0,
                "velocity": 64,
                "duration": 0.1704545,
                "tempo": 120.0
            },
            {
                "start_time": 132.4704545,
                "end_time": 132.7318182,
                "pitch": 44,
                "velocity": 64,
                "duration": 0.2613636,
                "tempo": 120.0
            },
            {
                "start_time": 132.7636364,
                "end_time": 132.8295455,
                "pitch": 45,
                "velocity": 64,
                "duration": 0.0659091,
                "tempo": 120.0
            },
            {
                "start_time": 132.8636364,
                "end_time": 133.2318182,
                "pitch": 0,
                "velocity": 64,
                "duration": 0.3681818,
                "tempo": 120.0
            },
            {
                "start_time": 133.2659091,
                "end_time": 133.5340909,
                "pitch": 50,
                "velocity": 64,
                "duration": 0.2681818,
                "tempo": 120.0
            },
            {
                "start_time": 133.5681818,
                "end_time": 133.6340909,
                "pitch": 50,
                "velocity": 64,
                "duration": 0.0659091,
                "tempo": 120.0
            },
            {
                "start_time": 133.6681818,
                "end_time": 134.4363636,
                "pitch": 0,
                "velocity": 64,
                "duration": 0.7681818,
                "tempo": 120.0
            },
            {
                "start_time": 134.4704545,
                "end_time": 134.7386364,
                "pitch": 50,
                "velocity": 64,
                "duration": 0.2681818,
                "tempo": 120.0
            },
            {
                "start_time": 134.7727273,
                "end_time": 134.8409091,
                "pitch": 50,
                "velocity": 64,
                "duration": 0.0681818,
                "tempo": 120.0
            },
            {
                "start_time": 134.8727273,
                "end_time": 135.6454545,
                "pitch": 0,
                "velocity": 64,
                "duration": 0.7727273,
                "tempo": 120.0
            },
            {
                "start_time": 135.6795455,
                "end_time": 135.9454545,
                "pitch": 50,
                "velocity": 64,
                "duration": 0.2659091,
                "tempo": 120.0
            },
            {
                "start_time": 135.9795455,
                "end_time": 136.0454545,
                "pitch": 50,
                "velocity": 64,
                "duration": 0.0659091,
                "tempo": 120.0
            },
            {
                "start_time": 136.0795455,
                "end_time": 136.25,
                "pitch": 0,
                "velocity": 64,
                "duration": 0.1704545,
                "tempo": 120.0
            },
            {
                "start_time": 136.2840909,
                "end_time": 137.8590909,
                "pitch": 45,
                "velocity": 64,
                "duration": 1.575,
                "tempo": 120.0
            },
            {
                "start_time": 137.8931818,
                "end_time": 137.9613636,
                "pitch": 44,
                "velocity": 64,
                "duration": 0.0681818,
                "tempo": 120.0
            },
            {
                "start_time": 137.9954545,
                "end_time": 138.0636364,
                "pitch": 45,
                "velocity": 64,
                "duration": 0.0681818,
                "tempo": 120.0
            },
            {
                "start_time": 138.0977273,
                "end_time": 138.2613636,
                "pitch": 0,
                "velocity": 64,
                "duration": 0.1636364,
                "tempo": 120.0
            },
            {
                "start_time": 138.2931818,
                "end_time": 138.3590909,
                "pitch": 45,
                "velocity": 64,
                "duration": 0.0659091,
                "tempo": 120.0
            },
            {
                "start_time": 138.3909091,
                "end_time": 138.5568182,
                "pitch": 0,
                "velocity": 64,
                "duration": 0.1659091,
                "tempo": 120.0
            },
            {
                "start_time": 138.5909091,
                "end_time": 138.6568182,
                "pitch": 45,
                "velocity": 64,
                "duration": 0.0659091,
                "tempo": 120.0
            },
            {
                "start_time": 138.6909091,
                "end_time": 138.8590909,
                "pitch": 0,
                "velocity": 64,
                "duration": 0.1681818,
                "tempo": 120.0
            },
            {
                "start_time": 138.8931818,
                "end_time": 139.2613636,
                "pitch": 45,
                "velocity": 64,
                "duration": 0.3681818,
                "tempo": 120.0
            },
            {
                "start_time": 139.2954545,
                "end_time": 139.6636364,
                "pitch": 0,
                "velocity": 64,
                "duration": 0.3681818,
                "tempo": 120.0
            },
            {
                "start_time": 139.6977273,
                "end_time": 139.9636364,
                "pitch": 50,
                "velocity": 64,
                "duration": 0.2659091,
                "tempo": 120.0
            },
            {
                "start_time": 139.9977273,
                "end_time": 140.0636364,
                "pitch": 50,
                "velocity": 64,
                "duration": 0.0659091,
                "tempo": 120.0
            },
            {
                "start_time": 140.0977273,
                "end_time": 140.8704545,
                "pitch": 0,
                "velocity": 64,
                "duration": 0.7727273,
                "tempo": 120.0
            },
            {
                "start_time": 140.9045455,
                "end_time": 141.1727273,
                "pitch": 50,
                "velocity": 64,
                "duration": 0.2681818,
                "tempo": 120.0
            },
            {
                "start_time": 141.2045455,
                "end_time": 141.2727273,
                "pitch": 50,
                "velocity": 64,
                "duration": 0.0681818,
                "tempo": 120.0
            },
            {
                "start_time": 141.3068182,
                "end_time": 142.075,
                "pitch": 0,
                "velocity": 64,
                "duration": 0.7681818,
                "tempo": 120.0
            },
            {
                "start_time": 142.1090909,
                "end_time": 142.3772727,
                "pitch": 50,
                "velocity": 64,
                "duration": 0.2681818,
                "tempo": 120.0
            },
            {
                "start_time": 142.4113636,
                "end_time": 142.4772727,
                "pitch": 50,
                "velocity": 64,
                "duration": 0.0659091,
                "tempo": 120.0
            },
            {
                "start_time": 142.5113636,
                "end_time": 142.6840909,
                "pitch": 0,
                "velocity": 64,
                "duration": 0.1727273,
                "tempo": 120.0
            },
            {
                "start_time": 142.7181818,
                "end_time": 144.2840909,
                "pitch": 45,
                "velocity": 64,
                "duration": 1.5659091,
                "tempo": 120.0
            },
            {
                "start_time": 144.3181818,
                "end_time": 144.3863636,
                "pitch": 44,
                "velocity": 64,
                "duration": 0.0681818,
                "tempo": 120.0
            },
            {
                "start_time": 144.4181818,
                "end_time": 144.4863636,
                "pitch": 45,
                "velocity": 64,
                "duration": 0.0681818,
                "tempo": 120.0
            },
            {
                "start_time": 144.5204545,
                "end_time": 144.6886364,
                "pitch": 0,
                "velocity": 64,
                "duration": 0.1681818,
                "tempo": 120.0
            },
            {
                "start_time": 144.7204545,
                "end_time": 144.7886364,
                "pitch": 57,
                "velocity": 64,
                "duration": 0.0681818,
                "tempo": 120.0
            },
            {
                "start_time": 144.8227273,
                "end_time": 144.8886364,
                "pitch": 57,
                "velocity": 64,
                "duration": 0.0659091,
                "tempo": 120.0
            },
            {
                "start_time": 144.9227273,
                "end_time": 144.9909091,
                "pitch": 57,
                "velocity": 64,
                "duration": 0.0681818,
                "tempo": 120.0
            },
            {
                "start_time": 145.025,
                "end_time": 145.0931818,
                "pitch": 57,
                "velocity": 64,
                "duration": 0.0681818,
                "tempo": 120.0
            },
            {
                "start_time": 145.1272727,
                "end_time": 145.3,
                "pitch": 0,
                "velocity": 64,
                "duration": 0.1727273,
                "tempo": 120.0
            },
            {
                "start_time": 145.3318182,
                "end_time": 145.5954545,
                "pitch": 56,
                "velocity": 64,
                "duration": 0.2636364,
                "tempo": 120.0
            },
            {
                "start_time": 145.6272727,
                "end_time": 145.6931818,
                "pitch": 57,
                "velocity": 64,
                "duration": 0.0659091,
                "tempo": 120.0
            },
            {
                "start_time": 145.725,
                "end_time": 146.0931818,
                "pitch": 0,
                "velocity": 64,
                "duration": 0.3681818,
                "tempo": 120.0
            },
            {
                "start_time": 146.125,
                "end_time": 146.3931818,
                "pitch": 50,
                "velocity": 64,
                "duration": 0.2681818,
                "tempo": 120.0
            },
            {
                "start_time": 146.4272727,
                "end_time": 146.4954545,
                "pitch": 50,
                "velocity": 64,
                "duration": 0.0681818,
                "tempo": 120.0
            },
            {
                "start_time": 146.5272727,
                "end_time": 147.3,
                "pitch": 0,
                "velocity": 64,
                "duration": 0.7727273,
                "tempo": 120.0
            },
            {
                "start_time": 147.3340909,
                "end_time": 147.6022727,
                "pitch": 50,
                "velocity": 64,
                "duration": 0.2681818,
                "tempo": 120.0
            },
            {
                "start_time": 147.6363636,
                "end_time": 147.7022727,
                "pitch": 50,
                "velocity": 64,
                "duration": 0.0659091,
                "tempo": 120.0
            },
            {
                "start_time": 147.7363636,
                "end_time": 148.5045455,
                "pitch": 0,
                "velocity": 64,
                "duration": 0.7681818,
                "tempo": 120.0
            },
            {
                "start_time": 148.5386364,
                "end_time": 148.8068182,
                "pitch": 50,
                "velocity": 64,
                "duration": 0.2681818,
                "tempo": 120.0
            },
            {
                "start_time": 148.8409091,
                "end_time": 148.9090909,
                "pitch": 62,
                "velocity": 64,
                "duration": 0.0681818,
                "tempo": 120.0
            },
            {
                "start_time": 148.9409091,
                "end_time": 149.1136364,
                "pitch": 0,
                "velocity": 64,
                "duration": 0.1727273,
                "tempo": 120.0
            },
            {
                "start_time": 149.1477273,
                "end_time": 151.3068182,
                "pitch": 45,
                "velocity": 64,
                "duration": 2.1590909,
                "tempo": 120.0
            },
            {
                "start_time": 151.3386364,
                "end_time": 151.5113636,
                "pitch": 45,
                "velocity": 64,
                "duration": 0.1727273,
                "tempo": 120.0
            },
            {
                "start_time": 151.5454545,
                "end_time": 151.7159091,
                "pitch": 0,
                "velocity": 64,
                "duration": 0.1704545,
                "tempo": 120.0
            },
            {
                "start_time": 151.75,
                "end_time": 152.0159091,
                "pitch": 45,
                "velocity": 64,
                "duration": 0.2659091,
                "tempo": 120.0
            },
            {
                "start_time": 152.05,
                "end_time": 152.3136364,
                "pitch": 44,
                "velocity": 64,
                "duration": 0.2636364,
                "tempo": 120.0
            },
            {
                "start_time": 152.3454545,
                "end_time": 153.7136364,
                "pitch": 42,
                "velocity": 64,
                "duration": 1.3681818,
                "tempo": 120.0
            },
            {
                "start_time": 153.7477273,
                "end_time": 154.0227273,
                "pitch": 42,
                "velocity": 64,
                "duration": 0.275,
                "tempo": 120.0
            },
            {
                "start_time": 154.0568182,
                "end_time": 155.3204545,
                "pitch": 40,
                "velocity": 64,
                "duration": 1.2636364,
                "tempo": 120.0
            },
            {
                "start_time": 155.3545455,
                "end_time": 155.6227273,
                "pitch": 40,
                "velocity": 64,
                "duration": 0.2681818,
                "tempo": 120.0
            },
            {
                "start_time": 155.6545455,
                "end_time": 156.525,
                "pitch": 42,
                "velocity": 64,
                "duration": 0.8704545,
                "tempo": 120.0
            },
            {
                "start_time": 156.5590909,
                "end_time": 157.3386364,
                "pitch": 54,
                "velocity": 64,
                "duration": 0.7795455,
                "tempo": 120.0
            },
            {
                "start_time": 157.3727273,
                "end_time": 157.4363636,
                "pitch": 0,
                "velocity": 64,
                "duration": 0.0636364,
                "tempo": 120.0
            },
            {
                "start_time": 157.4704545,
                "end_time": 157.5363636,
                "pitch": 54,
                "velocity": 64,
                "duration": 0.0659091,
                "tempo": 120.0
            },
            {
                "start_time": 157.5681818,
                "end_time": 157.6340909,
                "pitch": 0,
                "velocity": 64,
                "duration": 0.0659091,
                "tempo": 120.0
            },
            {
                "start_time": 157.6659091,
                "end_time": 157.7318182,
                "pitch": 54,
                "velocity": 64,
                "duration": 0.0659091,
                "tempo": 120.0
            },
            {
                "start_time": 157.7659091,
                "end_time": 157.8318182,
                "pitch": 0,
                "velocity": 64,
                "duration": 0.0659091,
                "tempo": 120.0
            },
            {
                "start_time": 157.8659091,
                "end_time": 157.9318182,
                "pitch": 54,
                "velocity": 64,
                "duration": 0.0659091,
                "tempo": 120.0
            },
            {
                "start_time": 157.9659091,
                "end_time": 158.0340909,
                "pitch": 0,
                "velocity": 64,
                "duration": 0.0681818,
                "tempo": 120.0
            },
            {
                "start_time": 158.0659091,
                "end_time": 158.1340909,
                "pitch": 54,
                "velocity": 64,
                "duration": 0.0681818,
                "tempo": 120.0
            },
            {
                "start_time": 158.1681818,
                "end_time": 158.9477273,
                "pitch": 0,
                "velocity": 64,
                "duration": 0.7795455,
                "tempo": 120.0
            },
            {
                "start_time": 158.9818182,
                "end_time": 159.2545455,
                "pitch": 38,
                "velocity": 64,
                "duration": 0.2727273,
                "tempo": 120.0
            },
            {
                "start_time": 159.2886364,
                "end_time": 159.5545455,
                "pitch": 45,
                "velocity": 64,
                "duration": 0.2659091,
                "tempo": 120.0
            },
            {
                "start_time": 159.5886364,
                "end_time": 159.6522727,
                "pitch": 50,
                "velocity": 64,
                "duration": 0.0636364,
                "tempo": 120.0
            },
            {
                "start_time": 159.6863636,
                "end_time": 159.7522727,
                "pitch": 0,
                "velocity": 64,
                "duration": 0.0659091,
                "tempo": 120.0
            },
            {
                "start_time": 159.7840909,
                "end_time": 160.05,
                "pitch": 50,
                "velocity": 64,
                "duration": 0.2659091,
                "tempo": 120.0
            },
            {
                "start_time": 160.0840909,
                "end_time": 160.15,
                "pitch": 45,
                "velocity": 64,
                "duration": 0.0659091,
                "tempo": 120.0
            },
            {
                "start_time": 160.1840909,
                "end_time": 160.3522727,
                "pitch": 45,
                "velocity": 64,
                "duration": 0.1681818,
                "tempo": 120.0
            },
            {
                "start_time": 160.3863636,
                "end_time": 160.4522727,
                "pitch": 50,
                "velocity": 64,
                "duration": 0.0659091,
                "tempo": 120.0
            },
            {
                "start_time": 160.4863636,
                "end_time": 160.5545455,
                "pitch": 0,
                "velocity": 64,
                "duration": 0.0681818,
                "tempo": 120.0
            },
            {
                "start_time": 160.5863636,
                "end_time": 160.8545455,
                "pitch": 40,
                "velocity": 64,
                "duration": 0.2681818,
                "tempo": 120.0
            },
            {
                "start_time": 160.8886364,
                "end_time": 161.1568182,
                "pitch": 47,
                "velocity": 64,
                "duration": 0.2681818,
                "tempo": 120.0
            },
            {
                "start_time": 161.1909091,
                "end_time": 161.2590909,
                "pitch": 52,
                "velocity": 64,
                "duration": 0.0681818,
                "tempo": 120.0
            },
            {
                "start_time": 161.2909091,
                "end_time": 161.3590909,
                "pitch": 0,
                "velocity": 64,
                "duration": 0.0681818,
                "tempo": 120.0
            },
            {
                "start_time": 161.3931818,
                "end_time": 161.6613636,
                "pitch": 52,
                "velocity": 64,
                "duration": 0.2681818,
                "tempo": 120.0
            },
            {
                "start_time": 161.6954545,
                "end_time": 161.7613636,
                "pitch": 47,
                "velocity": 64,
                "duration": 0.0659091,
                "tempo": 120.0
            },
            {
                "start_time": 161.7954545,
                "end_time": 161.9613636,
                "pitch": 47,
                "velocity": 64,
                "duration": 0.1659091,
                "tempo": 120.0
            },
            {
                "start_time": 161.9954545,
                "end_time": 162.0613636,
                "pitch": 52,
                "velocity": 64,
                "duration": 0.0659091,
                "tempo": 120.0
            },
            {
                "start_time": 162.0954545,
                "end_time": 162.1613636,
                "pitch": 0,
                "velocity": 64,
                "duration": 0.0659091,
                "tempo": 120.0
            },
            {
                "start_time": 162.1954545,
                "end_time": 162.4636364,
                "pitch": 42,
                "velocity": 64,
                "duration": 0.2681818,
                "tempo": 120.0
            },
            {
                "start_time": 162.4977273,
                "end_time": 162.7659091,
                "pitch": 49,
                "velocity": 64,
                "duration": 0.2681818,
                "tempo": 120.0
            },
            {
                "start_time": 162.8,
                "end_time": 162.8659091,
                "pitch": 54,
                "velocity": 64,
                "duration": 0.0659091,
                "tempo": 120.0
            },
            {
                "start_time": 162.9,
                "end_time": 162.9659091,
                "pitch": 0,
                "velocity": 64,
                "duration": 0.0659091,
                "tempo": 120.0
            },
            {
                "start_time": 163.0,
                "end_time": 163.2681818,
                "pitch": 54,
                "velocity": 64,
                "duration": 0.2681818,
                "tempo": 120.0
            },
            {
                "start_time": 163.3022727,
                "end_time": 163.3704545,
                "pitch": 49,
                "velocity": 64,
                "duration": 0.0681818,
                "tempo": 120.0
            },
            {
                "start_time": 163.4022727,
                "end_time": 163.5704545,
                "pitch": 49,
                "velocity": 64,
                "duration": 0.1681818,
                "tempo": 120.0
            },
            {
                "start_time": 163.6045455,
                "end_time": 163.6704545,
                "pitch": 54,
                "velocity": 64,
                "duration": 0.0659091,
                "tempo": 120.0
            },
            {
                "start_time": 163.7045455,
                "end_time": 163.7727273,
                "pitch": 0,
                "velocity": 64,
                "duration": 0.0681818,
                "tempo": 120.0
            },
            {
                "start_time": 163.8045455,
                "end_time": 164.0727273,
                "pitch": 42,
                "velocity": 64,
                "duration": 0.2681818,
                "tempo": 120.0
            },
            {
                "start_time": 164.1045455,
                "end_time": 164.3727273,
                "pitch": 49,
                "velocity": 64,
                "duration": 0.2681818,
                "tempo": 120.0
            },
            {
                "start_time": 164.4068182,
                "end_time": 164.475,
                "pitch": 54,
                "velocity": 64,
                "duration": 0.0681818,
                "tempo": 120.0
            },
            {
                "start_time": 164.5068182,
                "end_time": 164.575,
                "pitch": 0,
                "velocity": 64,
                "duration": 0.0681818,
                "tempo": 120.0
            },
            {
                "start_time": 164.6090909,
                "end_time": 164.8772727,
                "pitch": 54,
                "velocity": 64,
                "duration": 0.2681818,
                "tempo": 120.0
            },
            {
                "start_time": 164.9113636,
                "end_time": 164.9772727,
                "pitch": 49,
                "velocity": 64,
                "duration": 0.0659091,
                "tempo": 120.0
            },
            {
                "start_time": 165.0113636,
                "end_time": 165.1795455,
                "pitch": 49,
                "velocity": 64,
                "duration": 0.1681818,
                "tempo": 120.0
            },
            {
                "start_time": 165.2113636,
                "end_time": 165.2795455,
                "pitch": 54,
                "velocity": 64,
                "duration": 0.0681818,
                "tempo": 120.0
            },
            {
                "start_time": 165.3136364,
                "end_time": 165.3795455,
                "pitch": 0,
                "velocity": 64,
                "duration": 0.0659091,
                "tempo": 120.0
            },
            {
                "start_time": 165.4136364,
                "end_time": 165.6818182,
                "pitch": 38,
                "velocity": 64,
                "duration": 0.2681818,
                "tempo": 120.0
            },
            {
                "start_time": 165.7159091,
                "end_time": 165.9840909,
                "pitch": 45,
                "velocity": 64,
                "duration": 0.2681818,
                "tempo": 120.0
            },
            {
                "start_time": 166.0159091,
                "end_time": 166.0840909,
                "pitch": 50,
                "velocity": 64,
                "duration": 0.0681818,
                "tempo": 120.0
            },
            {
                "start_time": 166.1159091,
                "end_time": 166.1840909,
                "pitch": 0,
                "velocity": 64,
                "duration": 0.0681818,
                "tempo": 120.0
            },
            {
                "start_time": 166.2159091,
                "end_time": 166.4840909,
                "pitch": 50,
                "velocity": 64,
                "duration": 0.2681818,
                "tempo": 120.0
            },
            {
                "start_time": 166.5181818,
                "end_time": 166.5863636,
                "pitch": 45,
                "velocity": 64,
                "duration": 0.0681818,
                "tempo": 120.0
            },
            {
                "start_time": 166.6181818,
                "end_time": 166.7863636,
                "pitch": 45,
                "velocity": 64,
                "duration": 0.1681818,
                "tempo": 120.0
            },
            {
                "start_time": 166.8204545,
                "end_time": 166.8886364,
                "pitch": 50,
                "velocity": 64,
                "duration": 0.0681818,
                "tempo": 120.0
            },
            {
                "start_time": 166.9204545,
                "end_time": 166.9886364,
                "pitch": 0,
                "velocity": 64,
                "duration": 0.0681818,
                "tempo": 120.0
            },
            {
                "start_time": 167.0227273,
                "end_time": 167.2909091,
                "pitch": 40,
                "velocity": 64,
                "duration": 0.2681818,
                "tempo": 120.0
            },
            {
                "start_time": 167.325,
                "end_time": 167.5931818,
                "pitch": 47,
                "velocity": 64,
                "duration": 0.2681818,
                "tempo": 120.0
            },
            {
                "start_time": 167.625,
                "end_time": 167.6931818,
                "pitch": 52,
                "velocity": 64,
                "duration": 0.0681818,
                "tempo": 120.0
            },
            {
                "start_time": 167.7272727,
                "end_time": 167.7931818,
                "pitch": 0,
                "velocity": 64,
                "duration": 0.0659091,
                "tempo": 120.0
            },
            {
                "start_time": 167.8272727,
                "end_time": 168.0931818,
                "pitch": 52,
                "velocity": 64,
                "duration": 0.2659091,
                "tempo": 120.0
            },
            {
                "start_time": 168.1272727,
                "end_time": 168.1931818,
                "pitch": 47,
                "velocity": 64,
                "duration": 0.0659091,
                "tempo": 120.0
            },
            {
                "start_time": 168.2272727,
                "end_time": 168.3954545,
                "pitch": 47,
                "velocity": 64,
                "duration": 0.1681818,
                "tempo": 120.0
            },
            {
                "start_time": 168.4295455,
                "end_time": 168.4954545,
                "pitch": 52,
                "velocity": 64,
                "duration": 0.0659091,
                "tempo": 120.0
            },
            {
                "start_time": 168.5295455,
                "end_time": 168.5954545,
                "pitch": 0,
                "velocity": 64,
                "duration": 0.0659091,
                "tempo": 120.0
            },
            {
                "start_time": 168.6295455,
                "end_time": 168.8977273,
                "pitch": 42,
                "velocity": 64,
                "duration": 0.2681818,
                "tempo": 120.0
            },
            {
                "start_time": 168.9318182,
                "end_time": 169.2,
                "pitch": 49,
                "velocity": 64,
                "duration": 0.2681818,
                "tempo": 120.0
            },
            {
                "start_time": 169.2340909,
                "end_time": 169.3,
                "pitch": 54,
                "velocity": 64,
                "duration": 0.0659091,
                "tempo": 120.0
            },
            {
                "start_time": 169.3340909,
                "end_time": 169.4022727,
                "pitch": 0,
                "velocity": 64,
                "duration": 0.0681818,
                "tempo": 120.0
            },
            {
                "start_time": 169.4363636,
                "end_time": 169.7045455,
                "pitch": 54,
                "velocity": 64,
                "duration": 0.2681818,
                "tempo": 120.0
            },
            {
                "start_time": 169.7363636,
                "end_time": 169.8045455,
                "pitch": 49,
                "velocity": 64,
                "duration": 0.0681818,
                "tempo": 120.0
            },
            {
                "start_time": 169.8386364,
                "end_time": 170.0045455,
                "pitch": 49,
                "velocity": 64,
                "duration": 0.1659091,
                "tempo": 120.0
            },
            {
                "start_time": 170.0386364,
                "end_time": 170.1045455,
                "pitch": 54,
                "velocity": 64,
                "duration": 0.0659091,
                "tempo": 120.0
            },
            {
                "start_time": 170.1386364,
                "end_time": 170.2045455,
                "pitch": 0,
                "velocity": 64,
                "duration": 0.0659091,
                "tempo": 120.0
            },
            {
                "start_time": 170.2386364,
                "end_time": 170.5068182,
                "pitch": 42,
                "velocity": 64,
                "duration": 0.2681818,
                "tempo": 120.0
            },
            {
                "start_time": 170.5409091,
                "end_time": 170.8090909,
                "pitch": 49,
                "velocity": 64,
                "duration": 0.2681818,
                "tempo": 120.0
            },
            {
                "start_time": 170.8409091,
                "end_time": 170.9090909,
                "pitch": 54,
                "velocity": 64,
                "duration": 0.0681818,
                "tempo": 120.0
            },
            {
                "start_time": 170.9431818,
                "end_time": 171.0090909,
                "pitch": 0,
                "velocity": 64,
                "duration": 0.0659091,
                "tempo": 120.0
            },
            {
                "start_time": 171.0431818,
                "end_time": 171.3113636,
                "pitch": 54,
                "velocity": 64,
                "duration": 0.2681818,
                "tempo": 120.0
            },
            {
                "start_time": 171.3454545,
                "end_time": 171.4113636,
                "pitch": 49,
                "velocity": 64,
                "duration": 0.0659091,
                "tempo": 120.0
            },
            {
                "start_time": 171.4454545,
                "end_time": 171.6136364,
                "pitch": 49,
                "velocity": 64,
                "duration": 0.1681818,
                "tempo": 120.0
            },
            {
                "start_time": 171.6477273,
                "end_time": 171.7136364,
                "pitch": 54,
                "velocity": 64,
                "duration": 0.0659091,
                "tempo": 120.0
            },
            {
                "start_time": 171.7477273,
                "end_time": 171.8159091,
                "pitch": 0,
                "velocity": 64,
                "duration": 0.0681818,
                "tempo": 120.0
            },
            {
                "start_time": 171.8477273,
                "end_time": 172.1159091,
                "pitch": 38,
                "velocity": 64,
                "duration": 0.2681818,
                "tempo": 120.0
            },
            {
                "start_time": 172.1477273,
                "end_time": 172.4159091,
                "pitch": 45,
                "velocity": 64,
                "duration": 0.2681818,
                "tempo": 120.0
            },
            {
                "start_time": 172.45,
                "end_time": 172.5181818,
                "pitch": 50,
                "velocity": 64,
                "duration": 0.0681818,
                "tempo": 120.0
            },
            {
                "start_time": 172.55,
                "end_time": 172.6181818,
                "pitch": 0,
                "velocity": 64,
                "duration": 0.0681818,
                "tempo": 120.0
            },
            {
                "start_time": 172.6522727,
                "end_time": 172.9204545,
                "pitch": 50,
                "velocity": 64,
                "duration": 0.2681818,
                "tempo": 120.0
            },
            {
                "start_time": 172.9545455,
                "end_time": 173.0204545,
                "pitch": 45,
                "velocity": 64,
                "duration": 0.0659091,
                "tempo": 120.0
            },
            {
                "start_time": 173.0545455,
                "end_time": 173.2227273,
                "pitch": 45,
                "velocity": 64,
                "duration": 0.1681818,
                "tempo": 120.0
            },
            {
                "start_time": 173.2545455,
                "end_time": 173.3227273,
                "pitch": 50,
                "velocity": 64,
                "duration": 0.0681818,
                "tempo": 120.0
            },
            {
                "start_time": 173.3568182,
                "end_time": 173.4227273,
                "pitch": 0,
                "velocity": 64,
                "duration": 0.0659091,
                "tempo": 120.0
            },
            {
                "start_time": 173.4568182,
                "end_time": 173.725,
                "pitch": 40,
                "velocity": 64,
                "duration": 0.2681818,
                "tempo": 120.0
            },
            {
                "start_time": 173.7590909,
                "end_time": 174.025,
                "pitch": 47,
                "velocity": 64,
                "duration": 0.2659091,
                "tempo": 120.0
            },
            {
                "start_time": 174.0590909,
                "end_time": 174.125,
                "pitch": 52,
                "velocity": 64,
                "duration": 0.0659091,
                "tempo": 120.0
            },
            {
                "start_time": 174.1590909,
                "end_time": 174.225,
                "pitch": 0,
                "velocity": 64,
                "duration": 0.0659091,
                "tempo": 120.0
            },
            {
                "start_time": 174.2590909,
                "end_time": 174.5272727,
                "pitch": 52,
                "velocity": 64,
                "duration": 0.2681818,
                "tempo": 120.0
            },
            {
                "start_time": 174.5613636,
                "end_time": 174.6295455,
                "pitch": 47,
                "velocity": 64,
                "duration": 0.0681818,
                "tempo": 120.0
            },
            {
                "start_time": 174.6613636,
                "end_time": 174.8295455,
                "pitch": 47,
                "velocity": 64,
                "duration": 0.1681818,
                "tempo": 120.0
            },
            {
                "start_time": 174.8636364,
                "end_time": 174.9295455,
                "pitch": 52,
                "velocity": 64,
                "duration": 0.0659091,
                "tempo": 120.0
            },
            {
                "start_time": 174.9636364,
                "end_time": 175.0318182,
                "pitch": 0,
                "velocity": 64,
                "duration": 0.0681818,
                "tempo": 120.0
            },
            {
                "start_time": 175.0659091,
                "end_time": 175.3340909,
                "pitch": 42,
                "velocity": 64,
                "duration": 0.2681818,
                "tempo": 120.0
            },
            {
                "start_time": 175.3659091,
                "end_time": 175.6363636,
                "pitch": 49,
                "velocity": 64,
                "duration": 0.2704545,
                "tempo": 120.0
            },
            {
                "start_time": 175.6681818,
                "end_time": 175.7363636,
                "pitch": 54,
                "velocity": 64,
                "duration": 0.0681818,
                "tempo": 120.0
            },
            {
                "start_time": 175.7704545,
                "end_time": 175.8363636,
                "pitch": 0,
                "velocity": 64,
                "duration": 0.0659091,
                "tempo": 120.0
            },
            {
                "start_time": 175.8704545,
                "end_time": 176.1363636,
                "pitch": 54,
                "velocity": 64,
                "duration": 0.2659091,
                "tempo": 120.0
            },
            {
                "start_time": 176.1704545,
                "end_time": 176.2363636,
                "pitch": 49,
                "velocity": 64,
                "duration": 0.0659091,
                "tempo": 120.0
            },
            {
                "start_time": 176.2704545,
                "end_time": 176.4386364,
                "pitch": 49,
                "velocity": 64,
                "duration": 0.1681818,
                "tempo": 120.0
            },
            {
                "start_time": 176.4704545,
                "end_time": 176.5386364,
                "pitch": 54,
                "velocity": 64,
                "duration": 0.0681818,
                "tempo": 120.0
            },
            {
                "start_time": 176.5727273,
                "end_time": 176.6386364,
                "pitch": 0,
                "velocity": 64,
                "duration": 0.0659091,
                "tempo": 120.0
            },
            {
                "start_time": 176.6727273,
                "end_time": 176.9409091,
                "pitch": 42,
                "velocity": 64,
                "duration": 0.2681818,
                "tempo": 120.0
            },
            {
                "start_time": 176.975,
                "end_time": 177.2431818,
                "pitch": 49,
                "velocity": 64,
                "duration": 0.2681818,
                "tempo": 120.0
            },
            {
                "start_time": 177.2772727,
                "end_time": 177.3431818,
                "pitch": 54,
                "velocity": 64,
                "duration": 0.0659091,
                "tempo": 120.0
            },
            {
                "start_time": 177.3772727,
                "end_time": 177.4454545,
                "pitch": 0,
                "velocity": 64,
                "duration": 0.0681818,
                "tempo": 120.0
            },
            {
                "start_time": 177.4772727,
                "end_time": 177.7477273,
                "pitch": 54,
                "velocity": 64,
                "duration": 0.2704545,
                "tempo": 120.0
            },
            {
                "start_time": 177.7795455,
                "end_time": 177.8477273,
                "pitch": 49,
                "velocity": 64,
                "duration": 0.0681818,
                "tempo": 120.0
            },
            {
                "start_time": 177.8818182,
                "end_time": 178.0477273,
                "pitch": 49,
                "velocity": 64,
                "duration": 0.1659091,
                "tempo": 120.0
            },
            {
                "start_time": 178.0818182,
                "end_time": 178.1477273,
                "pitch": 54,
                "velocity": 64,
                "duration": 0.0659091,
                "tempo": 120.0
            },
            {
                "start_time": 178.1818182,
                "end_time": 178.2477273,
                "pitch": 0,
                "velocity": 64,
                "duration": 0.0659091,
                "tempo": 120.0
            },
            {
                "start_time": 178.2818182,
                "end_time": 178.55,
                "pitch": 38,
                "velocity": 64,
                "duration": 0.2681818,
                "tempo": 120.0
            },
            {
                "start_time": 178.5840909,
                "end_time": 178.8522727,
                "pitch": 45,
                "velocity": 64,
                "duration": 0.2681818,
                "tempo": 120.0
            },
            {
                "start_time": 178.8840909,
                "end_time": 178.9522727,
                "pitch": 50,
                "velocity": 64,
                "duration": 0.0681818,
                "tempo": 120.0
            },
            {
                "start_time": 178.9863636,
                "end_time": 179.0522727,
                "pitch": 0,
                "velocity": 64,
                "duration": 0.0659091,
                "tempo": 120.0
            },
            {
                "start_time": 179.0863636,
                "end_time": 179.3545455,
                "pitch": 50,
                "velocity": 64,
                "duration": 0.2681818,
                "tempo": 120.0
            },
            {
                "start_time": 179.3886364,
                "end_time": 179.4545455,
                "pitch": 45,
                "velocity": 64,
                "duration": 0.0659091,
                "tempo": 120.0
            },
            {
                "start_time": 179.4886364,
                "end_time": 179.6568182,
                "pitch": 45,
                "velocity": 64,
                "duration": 0.1681818,
                "tempo": 120.0
            },
            {
                "start_time": 179.6909091,
                "end_time": 179.7568182,
                "pitch": 50,
                "velocity": 64,
                "duration": 0.0659091,
                "tempo": 120.0
            },
            {
                "start_time": 179.7909091,
                "end_time": 179.8590909,
                "pitch": 0,
                "velocity": 64,
                "duration": 0.0681818,
                "tempo": 120.0
            }
        ],
        "Vibraphone": [
            {
                "start_time": 2.1204545,
                "end_time": 2.1863636,
                "pitch": 64,
                "velocity": 64,
                "duration": 0.0659091,
                "tempo": 120.0
            },
            {
                "start_time": 2.2181818,
                "end_time": 2.2840909,
                "pitch": 0,
                "velocity": 64,
                "duration": 0.0659091,
                "tempo": 120.0
            },
            {
                "start_time": 2.3159091,
                "end_time": 2.3818182,
                "pitch": 64,
                "velocity": 64,
                "duration": 0.0659091,
                "tempo": 120.0
            },
            {
                "start_time": 2.4136364,
                "end_time": 2.775,
                "pitch": 0,
                "velocity": 64,
                "duration": 0.3613636,
                "tempo": 120.0
            },
            {
                "start_time": 2.8068182,
                "end_time": 3.1840909,
                "pitch": 66,
                "velocity": 64,
                "duration": 0.3772727,
                "tempo": 120.0
            },
            {
                "start_time": 3.2181818,
                "end_time": 5.1909091,
                "pitch": 67,
                "velocity": 64,
                "duration": 1.9727273,
                "tempo": 120.0
            },
            {
                "start_time": 5.2227273,
                "end_time": 5.2909091,
                "pitch": 67,
                "velocity": 64,
                "duration": 0.0681818,
                "tempo": 120.0
            },
            {
                "start_time": 5.325,
                "end_time": 5.3909091,
                "pitch": 67,
                "velocity": 64,
                "duration": 0.0659091,
                "tempo": 120.0
            },
            {
                "start_time": 5.425,
                "end_time": 5.4909091,
                "pitch": 0,
                "velocity": 64,
                "duration": 0.0659091,
                "tempo": 120.0
            },
            {
                "start_time": 5.525,
                "end_time": 5.5931818,
                "pitch": 67,
                "velocity": 64,
                "duration": 0.0681818,
                "tempo": 120.0
            },
            {
                "start_time": 5.625,
                "end_time": 5.9840909,
                "pitch": 0,
                "velocity": 64,
                "duration": 0.3590909,
                "tempo": 120.0
            },
            {
                "start_time": 6.0181818,
                "end_time": 6.3954545,
                "pitch": 65,
                "velocity": 64,
                "duration": 0.3772727,
                "tempo": 120.0
            },
            {
                "start_time": 6.4295455,
                "end_time": 8.5045455,
                "pitch": 64,
                "velocity": 64,
                "duration": 2.075,
                "tempo": 120.0
            },
            {
                "start_time": 8.5386364,
                "end_time": 8.6045455,
                "pitch": 64,
                "velocity": 64,
                "duration": 0.0659091,
                "tempo": 120.0
            },
            {
                "start_time": 8.6386364,
                "end_time": 8.7045455,
                "pitch": 0,
                "velocity": 64,
                "duration": 0.0659091,
                "tempo": 120.0
            },
            {
                "start_time": 8.7386364,
                "end_time": 8.8068182,
                "pitch": 64,
                "velocity": 64,
                "duration": 0.0681818,
                "tempo": 120.0
            },
            {
                "start_time": 8.8386364,
                "end_time": 9.1977273,
                "pitch": 0,
                "velocity": 64,
                "duration": 0.3590909,
                "tempo": 120.0
            },
            {
                "start_time": 9.2318182,
                "end_time": 9.6090909,
                "pitch": 66,
                "velocity": 64,
                "duration": 0.3772727,
                "tempo": 120.0
            },
            {
                "start_time": 9.6431818,
                "end_time": 11.6295455,
                "pitch": 67,
                "velocity": 64,
                "duration": 1.9863636,
                "tempo": 120.0
            },
            {
                "start_time": 11.6613636,
                "end_time": 11.725,
                "pitch": 67,
                "velocity": 64,
                "duration": 0.0636364,
                "tempo": 120.0
            },
            {
                "start_time": 11.7568182,
                "end_time": 11.8227273,
                "pitch": 67,
                "velocity": 64,
                "duration": 0.0659091,
                "tempo": 120.0
            },
            {
                "start_time": 11.8545455,
                "end_time": 11.9181818,
                "pitch": 0,
                "velocity": 64,
                "duration": 0.0636364,
                "tempo": 120.0
            },
            {
                "start_time": 11.95,
                "end_time": 12.0136364,
                "pitch": 67,
                "velocity": 64,
                "duration": 0.0636364,
                "tempo": 120.0
            },
            {
                "start_time": 12.0454545,
                "end_time": 12.4159091,
                "pitch": 0,
                "velocity": 64,
                "duration": 0.3704545,
                "tempo": 120.0
            },
            {
                "start_time": 12.45,
                "end_time": 12.825,
                "pitch": 65,
                "velocity": 64,
                "duration": 0.375,
                "tempo": 120.0
            },
            {
                "start_time": 12.8590909,
                "end_time": 12.925,
                "pitch": 0,
                "velocity": 64,
                "duration": 0.0659091,
                "tempo": 120.0
            },
            {
                "start_time": 12.9568182,
                "end_time": 13.0227273,
                "pitch": 61,
                "velocity": 64,
                "duration": 0.0659091,
                "tempo": 120.0
            },
            {
                "start_time": 13.0545455,
                "end_time": 13.1204545,
                "pitch": 0,
                "velocity": 64,
                "duration": 0.0659091,
                "tempo": 120.0
            },
            {
                "start_time": 13.1522727,
                "end_time": 13.2181818,
                "pitch": 61,
                "velocity": 64,
                "duration": 0.0659091,
                "tempo": 120.0
            },
            {
                "start_time": 13.2522727,
                "end_time": 13.3181818,
                "pitch": 0,
                "velocity": 64,
                "duration": 0.0659091,
                "tempo": 120.0
            },
            {
                "start_time": 13.3522727,
                "end_time": 13.4181818,
                "pitch": 61,
                "velocity": 64,
                "duration": 0.0659091,
                "tempo": 120.0
            },
            {
                "start_time": 13.4522727,
                "end_time": 13.5204545,
                "pitch": 0,
                "velocity": 64,
                "duration": 0.0681818,
                "tempo": 120.0
            },
            {
                "start_time": 13.5545455,
                "end_time": 13.6204545,
                "pitch": 61,
                "velocity": 64,
                "duration": 0.0659091,
                "tempo": 120.0
            },
            {
                "start_time": 13.6545455,
                "end_time": 13.7227273,
                "pitch": 0,
                "velocity": 64,
                "duration": 0.0681818,
                "tempo": 120.0
            },
            {
                "start_time": 13.7568182,
                "end_time": 13.825,
                "pitch": 61,
                "velocity": 64,
                "duration": 0.0681818,
                "tempo": 120.0
            },
            {
                "start_time": 13.8590909,
                "end_time": 13.9295455,
                "pitch": 0,
                "velocity": 64,
                "duration": 0.0704545,
                "tempo": 120.0
            },
            {
                "start_time": 13.9636364,
                "end_time": 14.0318182,
                "pitch": 61,
                "velocity": 64,
                "duration": 0.0681818,
                "tempo": 120.0
            },
            {
                "start_time": 14.0636364,
                "end_time": 14.1295455,
                "pitch": 0,
                "velocity": 64,
                "duration": 0.0659091,
                "tempo": 120.0
            },
            {
                "start_time": 14.1613636,
                "end_time": 14.2272727,
                "pitch": 61,
                "velocity": 64,
                "duration": 0.0659091,
                "tempo": 120.0
            },
            {
                "start_time": 14.2613636,
                "end_time": 14.325,
                "pitch": 0,
                "velocity": 64,
                "duration": 0.0636364,
                "tempo": 120.0
            },
            {
                "start_time": 14.3590909,
                "end_time": 14.4227273,
                "pitch": 61,
                "velocity": 64,
                "duration": 0.0636364,
                "tempo": 120.0
            },
            {
                "start_time": 14.4568182,
                "end_time": 17.6431818,
                "pitch": 64,
                "velocity": 64,
                "duration": 3.1863636,
                "tempo": 120.0
            },
            {
                "start_time": 17.6772727,
                "end_time": 20.0522727,
                "pitch": 64,
                "velocity": 64,
                "duration": 2.375,
                "tempo": 120.0
            },
            {
                "start_time": 20.0840909,
                "end_time": 20.4613636,
                "pitch": 68,
                "velocity": 64,
                "duration": 0.3772727,
                "tempo": 120.0
            },
            {
                "start_time": 20.4954545,
                "end_time": 20.8613636,
                "pitch": 64,
                "velocity": 64,
                "duration": 0.3659091,
                "tempo": 120.0
            },
            {
                "start_time": 20.8954545,
                "end_time": 23.2613636,
                "pitch": 64,
                "velocity": 64,
                "duration": 2.3659091,
                "tempo": 120.0
            },
            {
                "start_time": 23.2954545,
                "end_time": 23.6613636,
                "pitch": 68,
                "velocity": 64,
                "duration": 0.3659091,
                "tempo": 120.0
            },
            {
                "start_time": 23.6954545,
                "end_time": 24.0727273,
                "pitch": 64,
                "velocity": 64,
                "duration": 0.3772727,
                "tempo": 120.0
            },
            {
                "start_time": 24.1068182,
                "end_time": 26.4704545,
                "pitch": 62,
                "velocity": 64,
                "duration": 2.3636364,
                "tempo": 120.0
            },
            {
                "start_time": 26.5045455,
                "end_time": 26.8704545,
                "pitch": 64,
                "velocity": 64,
                "duration": 0.3659091,
                "tempo": 120.0
            },
            {
                "start_time": 26.9045455,
                "end_time": 27.2727273,
                "pitch": 66,
                "velocity": 64,
                "duration": 0.3681818,
                "tempo": 120.0
            },
            {
                "start_time": 27.3068182,
                "end_time": 28.7772727,
                "pitch": 62,
                "velocity": 64,
                "duration": 1.4704545,
                "tempo": 120.0
            },
            {
                "start_time": 28.8090909,
                "end_time": 30.4818182,
                "pitch": 62,
                "velocity": 64,
                "duration": 1.6727273,
                "tempo": 120.0
            },
            {
                "start_time": 30.5159091,
                "end_time": 32.8886364,
                "pitch": 64,
                "velocity": 64,
                "duration": 2.3727273,
                "tempo": 120.0
            },
            {
                "start_time": 32.9204545,
                "end_time": 33.2977273,
                "pitch": 68,
                "velocity": 64,
                "duration": 0.3772727,
                "tempo": 120.0
            },
            {
                "start_time": 33.3318182,
                "end_time": 33.6977273,
                "pitch": 64,
                "velocity": 64,
                "duration": 0.3659091,
                "tempo": 120.0
            },
            {
                "start_time": 33.7318182,
                "end_time": 36.0931818,
                "pitch": 64,
                "velocity": 64,
                "duration": 2.3613636,
                "tempo": 120.0
            },
            {
                "start_time": 36.1272727,
                "end_time": 36.4931818,
                "pitch": 68,
                "velocity": 64,
                "duration": 0.3659091,
                "tempo": 120.0
            },
            {
                "start_time": 36.5272727,
                "end_time": 36.9045455,
                "pitch": 64,
                "velocity": 64,
                "duration": 0.3772727,
                "tempo": 120.0
            },
            {
                "start_time": 36.9363636,
                "end_time": 39.3022727,
                "pitch": 62,
                "velocity": 64,
                "duration": 2.3659091,
                "tempo": 120.0
            },
            {
                "start_time": 39.3363636,
                "end_time": 39.7113636,
                "pitch": 64,
                "velocity": 64,
                "duration": 0.375,
                "tempo": 120.0
            },
            {
                "start_time": 39.7454545,
                "end_time": 40.1045455,
                "pitch": 66,
                "velocity": 64,
                "duration": 0.3590909,
                "tempo": 120.0
            },
            {
                "start_time": 40.1386364,
                "end_time": 41.6090909,
                "pitch": 62,
                "velocity": 64,
                "duration": 1.4704545,
                "tempo": 120.0
            },
            {
                "start_time": 41.6431818,
                "end_time": 43.3227273,
                "pitch": 62,
                "velocity": 64,
                "duration": 1.6795455,
                "tempo": 120.0
            },
            {
                "start_time": 43.3568182,
                "end_time": 43.625,
                "pitch": 64,
                "velocity": 64,
                "duration": 0.2681818,
                "tempo": 120.0
            },
            {
                "start_time": 43.6568182,
                "end_time": 43.725,
                "pitch": 64,
                "velocity": 64,
                "duration": 0.0681818,
                "tempo": 120.0
            },
            {
                "start_time": 43.7568182,
                "end_time": 44.5159091,
                "pitch": 0,
                "velocity": 64,
                "duration": 0.7590909,
                "tempo": 120.0
            },
            {
                "start_time": 44.55,
                "end_time": 44.8159091,
                "pitch": 64,
                "velocity": 64,
                "duration": 0.2659091,
                "tempo": 120.0
            },
            {
                "start_time": 44.85,
                "end_time": 44.9159091,
                "pitch": 64,
                "velocity": 64,
                "duration": 0.0659091,
                "tempo": 120.0
            },
            {
                "start_time": 44.95,
                "end_time": 45.7181818,
                "pitch": 0,
                "velocity": 64,
                "duration": 0.7681818,
                "tempo": 120.0
            },
            {
                "start_time": 45.7522727,
                "end_time": 46.0181818,
                "pitch": 64,
                "velocity": 64,
                "duration": 0.2659091,
                "tempo": 120.0
            },
            {
                "start_time": 46.0522727,
                "end_time": 46.1181818,
                "pitch": 64,
                "velocity": 64,
                "duration": 0.0659091,
                "tempo": 120.0
            },
            {
                "start_time": 46.1522727,
                "end_time": 46.3227273,
                "pitch": 0,
                "velocity": 64,
                "duration": 0.1704545,
                "tempo": 120.0
            },
            {
                "start_time": 46.3568182,
                "end_time": 48.125,
                "pitch": 64,
                "velocity": 64,
                "duration": 1.7681818,
                "tempo": 120.0
            },
            {
                "start_time": 48.1568182,
                "end_time": 48.325,
                "pitch": 0,
                "velocity": 64,
                "duration": 0.1681818,
                "tempo": 120.0
            },
            {
                "start_time": 48.3568182,
                "end_time": 48.425,
                "pitch": 76,
                "velocity": 64,
                "duration": 0.0681818,
                "tempo": 120.0
            },
            {
                "start_time": 48.4568182,
                "end_time": 48.525,
                "pitch": 76,
                "velocity": 64,
                "duration": 0.0681818,
                "tempo": 120.0
            },
            {
                "start_time": 48.5568182,
                "end_time": 48.6272727,
                "pitch": 76,
                "velocity": 64,
                "duration": 0.0704545,
                "tempo": 120.0
            },
            {
                "start_time": 48.6613636,
                "end_time": 48.7295455,
                "pitch": 76,
                "velocity": 64,
                "duration": 0.0681818,
                "tempo": 120.0
            },
            {
                "start_time": 48.7636364,
                "end_time": 48.9340909,
                "pitch": 0,
                "velocity": 64,
                "duration": 0.1704545,
                "tempo": 120.0
            },
            {
                "start_time": 48.9681818,
                "end_time": 49.2295455,
                "pitch": 76,
                "velocity": 64,
                "duration": 0.2613636,
                "tempo": 120.0
            },
            {
                "start_time": 49.2613636,
                "end_time": 49.3272727,
                "pitch": 76,
                "velocity": 64,
                "duration": 0.0659091,
                "tempo": 120.0
            },
            {
                "start_time": 49.3613636,
                "end_time": 49.7295455,
                "pitch": 0,
                "velocity": 64,
                "duration": 0.3681818,
                "tempo": 120.0
            },
            {
                "start_time": 49.7636364,
                "end_time": 50.0295455,
                "pitch": 64,
                "velocity": 64,
                "duration": 0.2659091,
                "tempo": 120.0
            },
            {
                "start_time": 50.0636364,
                "end_time": 50.1295455,
                "pitch": 64,
                "velocity": 64,
                "duration": 0.0659091,
                "tempo": 120.0
            },
            {
                "start_time": 50.1636364,
                "end_time": 50.9295455,
                "pitch": 0,
                "velocity": 64,
                "duration": 0.7659091,
                "tempo": 120.0
            },
            {
                "start_time": 50.9636364,
                "end_time": 51.2295455,
                "pitch": 64,
                "velocity": 64,
                "duration": 0.2659091,
                "tempo": 120.0
            },
            {
                "start_time": 51.2636364,
                "end_time": 51.3295455,
                "pitch": 64,
                "velocity": 64,
                "duration": 0.0659091,
                "tempo": 120.0
            },
            {
                "start_time": 51.3636364,
                "end_time": 52.1318182,
                "pitch": 0,
                "velocity": 64,
                "duration": 0.7681818,
                "tempo": 120.0
            },
            {
                "start_time": 52.1659091,
                "end_time": 52.4318182,
                "pitch": 64,
                "velocity": 64,
                "duration": 0.2659091,
                "tempo": 120.0
            },
            {
                "start_time": 52.4659091,
                "end_time": 52.5318182,
                "pitch": 64,
                "velocity": 64,
                "duration": 0.0659091,
                "tempo": 120.0
            },
            {
                "start_time": 52.5659091,
                "end_time": 52.7363636,
                "pitch": 0,
                "velocity": 64,
                "duration": 0.1704545,
                "tempo": 120.0
            },
            {
                "start_time": 52.7704545,
                "end_time": 54.5477273,
                "pitch": 64,
                "velocity": 64,
                "duration": 1.7772727,
                "tempo": 120.0
            },
            {
                "start_time": 54.5818182,
                "end_time": 54.7454545,
                "pitch": 0,
                "velocity": 64,
                "duration": 0.1636364,
                "tempo": 120.0
            },
            {
                "start_time": 54.7772727,
                "end_time": 54.8431818,
                "pitch": 76,
                "velocity": 64,
                "duration": 0.0659091,
                "tempo": 120.0
            },
            {
                "start_time": 54.875,
                "end_time": 55.0431818,
                "pitch": 0,
                "velocity": 64,
                "duration": 0.1681818,
                "tempo": 120.0
            },
            {
                "start_time": 55.0772727,
                "end_time": 55.1454545,
                "pitch": 76,
                "velocity": 64,
                "duration": 0.0681818,
                "tempo": 120.0
            },
            {
                "start_time": 55.1795455,
                "end_time": 55.35,
                "pitch": 0,
                "velocity": 64,
                "duration": 0.1704545,
                "tempo": 120.0
            },
            {
                "start_time": 55.3840909,
                "end_time": 55.7431818,
                "pitch": 76,
                "velocity": 64,
                "duration": 0.3590909,
                "tempo": 120.0
            },
            {
                "start_time": 55.7772727,
                "end_time": 56.1431818,
                "pitch": 0,
                "velocity": 64,
                "duration": 0.3659091,
                "tempo": 120.0
            },
            {
                "start_time": 56.1772727,
                "end_time": 56.4431818,
                "pitch": 64,
                "velocity": 64,
                "duration": 0.2659091,
                "tempo": 120.0
            },
            {
                "start_time": 56.4772727,
                "end_time": 56.5431818,
                "pitch": 64,
                "velocity": 64,
                "duration": 0.0659091,
                "tempo": 120.0
            },
            {
                "start_time": 56.5772727,
                "end_time": 57.3454545,
                "pitch": 0,
                "velocity": 64,
                "duration": 0.7681818,
                "tempo": 120.0
            },
            {
                "start_time": 57.3795455,
                "end_time": 57.6477273,
                "pitch": 64,
                "velocity": 64,
                "duration": 0.2681818,
                "tempo": 120.0
            },
            {
                "start_time": 57.6818182,
                "end_time": 57.75,
                "pitch": 64,
                "velocity": 64,
                "duration": 0.0681818,
                "tempo": 120.0
            },
            {
                "start_time": 57.7818182,
                "end_time": 58.55,
                "pitch": 0,
                "velocity": 64,
                "duration": 0.7681818,
                "tempo": 120.0
            },
            {
                "start_time": 58.5818182,
                "end_time": 58.85,
                "pitch": 64,
                "velocity": 64,
                "duration": 0.2681818,
                "tempo": 120.0
            },
            {
                "start_time": 58.8818182,
                "end_time": 58.95,
                "pitch": 64,
                "velocity": 64,
                "duration": 0.0681818,
                "tempo": 120.0
            },
            {
                "start_time": 58.9818182,
                "end_time": 59.1545455,
                "pitch": 0,
                "velocity": 64,
                "duration": 0.1727273,
                "tempo": 120.0
            },
            {
                "start_time": 59.1886364,
                "end_time": 60.9613636,
                "pitch": 64,
                "velocity": 64,
                "duration": 1.7727273,
                "tempo": 120.0
            },
            {
                "start_time": 60.9954545,
                "end_time": 61.1590909,
                "pitch": 0,
                "velocity": 64,
                "duration": 0.1636364,
                "tempo": 120.0
            },
            {
                "start_time": 61.1909091,
                "end_time": 61.2568182,
                "pitch": 76,
                "velocity": 64,
                "duration": 0.0659091,
                "tempo": 120.0
            },
            {
                "start_time": 61.2909091,
                "end_time": 61.3545455,
                "pitch": 76,
                "velocity": 64,
                "duration": 0.0636364,
                "tempo": 120.0
            },
            {
                "start_time": 61.3886364,
                "end_time": 61.4568182,
                "pitch": 76,
                "velocity": 64,
                "duration": 0.0681818,
                "tempo": 120.0
            },
            {
                "start_time": 61.4909091,
                "end_time": 61.5590909,
                "pitch": 76,
                "velocity": 64,
                "duration": 0.0681818,
                "tempo": 120.0
            },
            {
                "start_time": 61.5931818,
                "end_time": 61.7659091,
                "pitch": 0,
                "velocity": 64,
                "duration": 0.1727273,
                "tempo": 120.0
            },
            {
                "start_time": 61.7977273,
                "end_time": 62.0590909,
                "pitch": 76,
                "velocity": 64,
                "duration": 0.2613636,
                "tempo": 120.0
            },
            {
                "start_time": 62.0931818,
                "end_time": 62.1568182,
                "pitch": 76,
                "velocity": 64,
                "duration": 0.0636364,
                "tempo": 120.0
            },
            {
                "start_time": 62.1909091,
                "end_time": 62.5568182,
                "pitch": 0,
                "velocity": 64,
                "duration": 0.3659091,
                "tempo": 120.0
            },
            {
                "start_time": 62.5909091,
                "end_time": 62.8568182,
                "pitch": 64,
                "velocity": 64,
                "duration": 0.2659091,
                "tempo": 120.0
            },
            {
                "start_time": 62.8909091,
                "end_time": 62.9568182,
                "pitch": 64,
                "velocity": 64,
                "duration": 0.0659091,
                "tempo": 120.0
            },
            {
                "start_time": 62.9909091,
                "end_time": 63.7590909,
                "pitch": 0,
                "velocity": 64,
                "duration": 0.7681818,
                "tempo": 120.0
            },
            {
                "start_time": 63.7931818,
                "end_time": 64.0590909,
                "pitch": 64,
                "velocity": 64,
                "duration": 0.2659091,
                "tempo": 120.0
            },
            {
                "start_time": 64.0931818,
                "end_time": 64.1590909,
                "pitch": 64,
                "velocity": 64,
                "duration": 0.0659091,
                "tempo": 120.0
            },
            {
                "start_time": 64.1931818,
                "end_time": 64.9636364,
                "pitch": 0,
                "velocity": 64,
                "duration": 0.7704545,
                "tempo": 120.0
            },
            {
                "start_time": 64.9954545,
                "end_time": 65.2636364,
                "pitch": 64,
                "velocity": 64,
                "duration": 0.2681818,
                "tempo": 120.0
            },
            {
                "start_time": 65.2954545,
                "end_time": 65.3636364,
                "pitch": 64,
                "velocity": 64,
                "duration": 0.0681818,
                "tempo": 120.0
            },
            {
                "start_time": 65.3977273,
                "end_time": 65.5681818,
                "pitch": 0,
                "velocity": 64,
                "duration": 0.1704545,
                "tempo": 120.0
            },
            {
                "start_time": 65.6022727,
                "end_time": 67.7636364,
                "pitch": 64,
                "velocity": 64,
                "duration": 2.1613636,
                "tempo": 120.0
            },
            {
                "start_time": 67.7977273,
                "end_time": 67.9681818,
                "pitch": 64,
                "velocity": 64,
                "duration": 0.1704545,
                "tempo": 120.0
            },
            {
                "start_time": 68.0022727,
                "end_time": 68.175,
                "pitch": 0,
                "velocity": 64,
                "duration": 0.1727273,
                "tempo": 120.0
            },
            {
                "start_time": 68.2068182,
                "end_time": 68.4772727,
                "pitch": 64,
                "velocity": 64,
                "duration": 0.2704545,
                "tempo": 120.0
            },
            {
                "start_time": 68.5090909,
                "end_time": 68.7727273,
                "pitch": 63,
                "velocity": 64,
                "duration": 0.2636364,
                "tempo": 120.0
            },
            {
                "start_time": 68.8068182,
                "end_time": 70.4818182,
                "pitch": 62,
                "velocity": 64,
                "duration": 1.675,
                "tempo": 120.0
            },
            {
                "start_time": 70.5159091,
                "end_time": 72.0840909,
                "pitch": 64,
                "velocity": 64,
                "duration": 1.5681818,
                "tempo": 120.0
            },
            {
                "start_time": 72.1181818,
                "end_time": 73.8,
                "pitch": 66,
                "velocity": 64,
                "duration": 1.6818182,
                "tempo": 120.0
            },
            {
                "start_time": 73.8318182,
                "end_time": 73.8977273,
                "pitch": 0,
                "velocity": 64,
                "duration": 0.0659091,
                "tempo": 120.0
            },
            {
                "start_time": 73.9295455,
                "end_time": 73.9954545,
                "pitch": 78,
                "velocity": 64,
                "duration": 0.0659091,
                "tempo": 120.0
            },
            {
                "start_time": 74.0272727,
                "end_time": 74.0931818,
                "pitch": 0,
                "velocity": 64,
                "duration": 0.0659091,
                "tempo": 120.0
            },
            {
                "start_time": 74.125,
                "end_time": 74.1909091,
                "pitch": 78,
                "velocity": 64,
                "duration": 0.0659091,
                "tempo": 120.0
            },
            {
                "start_time": 74.225,
                "end_time": 74.2909091,
                "pitch": 0,
                "velocity": 64,
                "duration": 0.0659091,
                "tempo": 120.0
            },
            {
                "start_time": 74.325,
                "end_time": 74.3909091,
                "pitch": 78,
                "velocity": 64,
                "duration": 0.0659091,
                "tempo": 120.0
            },
            {
                "start_time": 74.425,
                "end_time": 74.4909091,
                "pitch": 0,
                "velocity": 64,
                "duration": 0.0659091,
                "tempo": 120.0
            },
            {
                "start_time": 74.525,
                "end_time": 74.5909091,
                "pitch": 78,
                "velocity": 64,
                "duration": 0.0659091,
                "tempo": 120.0
            },
            {
                "start_time": 74.625,
                "end_time": 75.2,
                "pitch": 0,
                "velocity": 64,
                "duration": 0.575,
                "tempo": 120.0
            },
            {
                "start_time": 75.2340909,
                "end_time": 76.8113636,
                "pitch": 66,
                "velocity": 64,
                "duration": 1.5772727,
                "tempo": 120.0
            },
            {
                "start_time": 76.8454545,
                "end_time": 78.4181818,
                "pitch": 64,
                "velocity": 64,
                "duration": 1.5727273,
                "tempo": 120.0
            },
            {
                "start_time": 78.45,
                "end_time": 80.125,
                "pitch": 64,
                "velocity": 64,
                "duration": 1.675,
                "tempo": 120.0
            },
            {
                "start_time": 80.1568182,
                "end_time": 80.9295455,
                "pitch": 66,
                "velocity": 64,
                "duration": 0.7727273,
                "tempo": 120.0
            },
            {
                "start_time": 80.9613636,
                "end_time": 81.6318182,
                "pitch": 64,
                "velocity": 64,
                "duration": 0.6704545,
                "tempo": 120.0
            },
            {
                "start_time": 81.6636364,
                "end_time": 83.2386364,
                "pitch": 66,
                "velocity": 64,
                "duration": 1.575,
                "tempo": 120.0
            },
            {
                "start_time": 83.2704545,
                "end_time": 84.8431818,
                "pitch": 64,
                "velocity": 64,
                "duration": 1.5727273,
                "tempo": 120.0
            },
            {
                "start_time": 84.8772727,
                "end_time": 87.4545455,
                "pitch": 64,
                "velocity": 64,
                "duration": 2.5772727,
                "tempo": 120.0
            },
            {
                "start_time": 87.4863636,
                "end_time": 88.0568182,
                "pitch": 64,
                "velocity": 64,
                "duration": 0.5704545,
                "tempo": 120.0
            },
            {
                "start_time": 88.0886364,
                "end_time": 89.6636364,
                "pitch": 66,
                "velocity": 64,
                "duration": 1.575,
                "tempo": 120.0
            },
            {
                "start_time": 89.6954545,
                "end_time": 91.4704545,
                "pitch": 64,
                "velocity": 64,
                "duration": 1.775,
                "tempo": 120.0
            },
            {
                "start_time": 91.5022727,
                "end_time": 92.1727273,
                "pitch": 64,
                "velocity": 64,
                "duration": 0.6704545,
                "tempo": 120.0
            },
            {
                "start_time": 92.2068182,
                "end_time": 92.9772727,
                "pitch": 66,
                "velocity": 64,
                "duration": 0.7704545,
                "tempo": 120.0
            },
            {
                "start_time": 93.0113636,
                "end_time": 93.7795455,
                "pitch": 64,
                "velocity": 64,
                "duration": 0.7681818,
                "tempo": 120.0
            },
            {
                "start_time": 93.8136364,
                "end_time": 94.4818182,
                "pitch": 0,
                "velocity": 64,
                "duration": 0.6681818,
                "tempo": 120.0
            },
            {
                "start_time": 94.5159091,
                "end_time": 96.0886364,
                "pitch": 66,
                "velocity": 64,
                "duration": 1.5727273,
                "tempo": 120.0
            },
            {
                "start_time": 96.1227273,
                "end_time": 97.6954545,
                "pitch": 64,
                "velocity": 64,
                "duration": 1.5727273,
                "tempo": 120.0
            },
            {
                "start_time": 97.7295455,
                "end_time": 99.5022727,
                "pitch": 66,
                "velocity": 64,
                "duration": 1.7727273,
                "tempo": 120.0
            },
            {
                "start_time": 99.5340909,
                "end_time": 99.6318182,
                "pitch": 0,
                "velocity": 64,
                "duration": 0.0977273,
                "tempo": 120.0
            },
            {
                "start_time": 99.6659091,
                "end_time": 99.7636364,
                "pitch": 66,
                "velocity": 64,
                "duration": 0.0977273,
                "tempo": 120.0
            },
            {
                "start_time": 99.7954545,
                "end_time": 99.8931818,
                "pitch": 66,
                "velocity": 64,
                "duration": 0.0977273,
                "tempo": 120.0
            },
            {
                "start_time": 99.9272727,
                "end_time": 100.0295455,
                "pitch": 66,
                "velocity": 64,
                "duration": 0.1022727,
                "tempo": 120.0
            },
            {
                "start_time": 100.0636364,
                "end_time": 100.1681818,
                "pitch": 66,
                "velocity": 64,
                "duration": 0.1045455,
                "tempo": 120.0
            },
            {
                "start_time": 100.2022727,
                "end_time": 100.3045455,
                "pitch": 66,
                "velocity": 64,
                "duration": 0.1022727,
                "tempo": 120.0
            },
            {
                "start_time": 100.3386364,
                "end_time": 100.4386364,
                "pitch": 66,
                "velocity": 64,
                "duration": 0.1,
                "tempo": 120.0
            },
            {
                "start_time": 100.4727273,
                "end_time": 101.1090909,
                "pitch": 0,
                "velocity": 64,
                "duration": 0.6363636,
                "tempo": 120.0
            },
            {
                "start_time": 101.1431818,
                "end_time": 103.525,
                "pitch": 64,
                "velocity": 64,
                "duration": 2.3818182,
                "tempo": 120.0
            },
            {
                "start_time": 103.5590909,
                "end_time": 103.9272727,
                "pitch": 68,
                "velocity": 64,
                "duration": 0.3681818,
                "tempo": 120.0
            },
            {
                "start_time": 103.9590909,
                "end_time": 104.3295455,
                "pitch": 64,
                "velocity": 64,
                "duration": 0.3704545,
                "tempo": 120.0
            },
            {
                "start_time": 104.3636364,
                "end_time": 106.7363636,
                "pitch": 64,
                "velocity": 64,
                "duration": 2.3727273,
                "tempo": 120.0
            },
            {
                "start_time": 106.7704545,
                "end_time": 107.1295455,
                "pitch": 68,
                "velocity": 64,
                "duration": 0.3590909,
                "tempo": 120.0
            },
            {
                "start_time": 107.1636364,
                "end_time": 107.5295455,
                "pitch": 64,
                "velocity": 64,
                "duration": 0.3659091,
                "tempo": 120.0
            },
            {
                "start_time": 107.5636364,
                "end_time": 109.9409091,
                "pitch": 62,
                "velocity": 64,
                "duration": 2.3772727,
                "tempo": 120.0
            },
            {
                "start_time": 109.975,
                "end_time": 110.3409091,
                "pitch": 64,
                "velocity": 64,
                "duration": 0.3659091,
                "tempo": 120.0
            },
            {
                "start_time": 110.375,
                "end_time": 110.75,
                "pitch": 66,
                "velocity": 64,
                "duration": 0.375,
                "tempo": 120.0
            },
            {
                "start_time": 110.7840909,
                "end_time": 112.2545455,
                "pitch": 62,
                "velocity": 64,
                "duration": 1.4704545,
                "tempo": 120.0
            },
            {
                "start_time": 112.2886364,
                "end_time": 113.9613636,
                "pitch": 62,
                "velocity": 64,
                "duration": 1.6727273,
                "tempo": 120.0
            },
            {
                "start_time": 113.9954545,
                "end_time": 116.3636364,
                "pitch": 64,
                "velocity": 64,
                "duration": 2.3681818,
                "tempo": 120.0
            },
            {
                "start_time": 116.3954545,
                "end_time": 116.7727273,
                "pitch": 68,
                "velocity": 64,
                "duration": 0.3772727,
                "tempo": 120.0
            },
            {
                "start_time": 116.8068182,
                "end_time": 117.1659091,
                "pitch": 64,
                "velocity": 64,
                "duration": 0.3590909,
                "tempo": 120.0
            },
            {
                "start_time": 117.2,
                "end_time": 119.575,
                "pitch": 64,
                "velocity": 64,
                "duration": 2.375,
                "tempo": 120.0
            },
            {
                "start_time": 119.6068182,
                "end_time": 119.9772727,
                "pitch": 68,
                "velocity": 64,
                "duration": 0.3704545,
                "tempo": 120.0
            },
            {
                "start_time": 120.0090909,
                "end_time": 120.3772727,
                "pitch": 64,
                "velocity": 64,
                "duration": 0.3681818,
                "tempo": 120.0
            },
            {
                "start_time": 120.4113636,
                "end_time": 122.7840909,
                "pitch": 62,
                "velocity": 64,
                "duration": 2.3727273,
                "tempo": 120.0
            },
            {
                "start_time": 122.8181818,
                "end_time": 123.1886364,
                "pitch": 64,
                "velocity": 64,
                "duration": 0.3704545,
                "tempo": 120.0
            },
            {
                "start_time": 123.2204545,
                "end_time": 123.5977273,
                "pitch": 66,
                "velocity": 64,
                "duration": 0.3772727,
                "tempo": 120.0
            },
            {
                "start_time": 123.6318182,
                "end_time": 125.0954545,
                "pitch": 62,
                "velocity": 64,
                "duration": 1.4636364,
                "tempo": 120.0
            },
            {
                "start_time": 125.1295455,
                "end_time": 126.8136364,
                "pitch": 62,
                "velocity": 64,
                "duration": 1.6840909,
                "tempo": 120.0
            },
            {
                "start_time": 126.8454545,
                "end_time": 127.1136364,
                "pitch": 64,
                "velocity": 64,
                "duration": 0.2681818,
                "tempo": 120.0
            },
            {
                "start_time": 127.1454545,
                "end_time": 127.2136364,
                "pitch": 64,
                "velocity": 64,
                "duration": 0.0681818,
                "tempo": 120.0
            },
            {
                "start_time": 127.2454545,
                "end_time": 128.0068182,
                "pitch": 0,
                "velocity": 64,
                "duration": 0.7613636,
                "tempo": 120.0
            },
            {
                "start_time": 128.0409091,
                "end_time": 128.3068182,
                "pitch": 64,
                "velocity": 64,
                "duration": 0.2659091,
                "tempo": 120.0
            },
            {
                "start_time": 128.3409091,
                "end_time": 128.4068182,
                "pitch": 64,
                "velocity": 64,
                "duration": 0.0659091,
                "tempo": 120.0
            },
            {
                "start_time": 128.4409091,
                "end_time": 129.2136364,
                "pitch": 0,
                "velocity": 64,
                "duration": 0.7727273,
                "tempo": 120.0
            },
            {
                "start_time": 129.2454545,
                "end_time": 129.5159091,
                "pitch": 64,
                "velocity": 64,
                "duration": 0.2704545,
                "tempo": 120.0
            },
            {
                "start_time": 129.5477273,
                "end_time": 129.6159091,
                "pitch": 64,
                "velocity": 64,
                "duration": 0.0681818,
                "tempo": 120.0
            },
            {
                "start_time": 129.65,
                "end_time": 129.8204545,
                "pitch": 0,
                "velocity": 64,
                "duration": 0.1704545,
                "tempo": 120.0
            },
            {
                "start_time": 129.8545455,
                "end_time": 131.6340909,
                "pitch": 64,
                "velocity": 64,
                "duration": 1.7795455,
                "tempo": 120.0
            },
            {
                "start_time": 131.6681818,
                "end_time": 131.8318182,
                "pitch": 0,
                "velocity": 64,
                "duration": 0.1636364,
                "tempo": 120.0
            },
            {
                "start_time": 131.8636364,
                "end_time": 131.9295455,
                "pitch": 76,
                "velocity": 64,
                "duration": 0.0659091,
                "tempo": 120.0
            },
            {
                "start_time": 131.9613636,
                "end_time": 132.0272727,
                "pitch": 76,
                "velocity": 64,
                "duration": 0.0659091,
                "tempo": 120.0
            },
            {
                "start_time": 132.0590909,
                "end_time": 132.1295455,
                "pitch": 76,
                "velocity": 64,
                "duration": 0.0704545,
                "tempo": 120.0
            },
            {
                "start_time": 132.1636364,
                "end_time": 132.2318182,
                "pitch": 76,
                "velocity": 64,
                "duration": 0.0681818,
                "tempo": 120.0
            },
            {
                "start_time": 132.2659091,
                "end_time": 132.4363636,
                "pitch": 0,
                "velocity": 64,
                "duration": 0.1704545,
                "tempo": 120.0
            },
            {
                "start_time": 132.4704545,
                "end_time": 132.7318182,
                "pitch": 76,
                "velocity": 64,
                "duration": 0.2613636,
                "tempo": 120.0
            },
            {
                "start_time": 132.7636364,
                "end_time": 132.8295455,
                "pitch": 76,
                "velocity": 64,
                "duration": 0.0659091,
                "tempo": 120.0
            },
            {
                "start_time": 132.8636364,
                "end_time": 133.2318182,
                "pitch": 0,
                "velocity": 64,
                "duration": 0.3681818,
                "tempo": 120.0
            },
            {
                "start_time": 133.2659091,
                "end_time": 133.5340909,
                "pitch": 64,
                "velocity": 64,
                "duration": 0.2681818,
                "tempo": 120.0
            },
            {
                "start_time": 133.5681818,
                "end_time": 133.6340909,
                "pitch": 64,
                "velocity": 64,
                "duration": 0.0659091,
                "tempo": 120.0
            },
            {
                "start_time": 133.6681818,
                "end_time": 134.4363636,
                "pitch": 0,
                "velocity": 64,
                "duration": 0.7681818,
                "tempo": 120.0
            },
            {
                "start_time": 134.4704545,
                "end_time": 134.7386364,
                "pitch": 64,
                "velocity": 64,
                "duration": 0.2681818,
                "tempo": 120.0
            },
            {
                "start_time": 134.7727273,
                "end_time": 134.8409091,
                "pitch": 64,
                "velocity": 64,
                "duration": 0.0681818,
                "tempo": 120.0
            },
            {
                "start_time": 134.8727273,
                "end_time": 135.6454545,
                "pitch": 0,
                "velocity": 64,
                "duration": 0.7727273,
                "tempo": 120.0
            },
            {
                "start_time": 135.6795455,
                "end_time": 135.9454545,
                "pitch": 64,
                "velocity": 64,
                "duration": 0.2659091,
                "tempo": 120.0
            },
            {
                "start_time": 135.9795455,
                "end_time": 136.0454545,
                "pitch": 64,
                "velocity": 64,
                "duration": 0.0659091,
                "tempo": 120.0
            },
            {
                "start_time": 136.0795455,
                "end_time": 136.25,
                "pitch": 0,
                "velocity": 64,
                "duration": 0.1704545,
                "tempo": 120.0
            },
            {
                "start_time": 136.2840909,
                "end_time": 138.0636364,
                "pitch": 64,
                "velocity": 64,
                "duration": 1.7795455,
                "tempo": 120.0
            },
            {
                "start_time": 138.0977273,
                "end_time": 138.2613636,
                "pitch": 0,
                "velocity": 64,
                "duration": 0.1636364,
                "tempo": 120.0
            },
            {
                "start_time": 138.2931818,
                "end_time": 138.3590909,
                "pitch": 76,
                "velocity": 64,
                "duration": 0.0659091,
                "tempo": 120.0
            },
            {
                "start_time": 138.3909091,
                "end_time": 138.5568182,
                "pitch": 0,
                "velocity": 64,
                "duration": 0.1659091,
                "tempo": 120.0
            },
            {
                "start_time": 138.5909091,
                "end_time": 138.6568182,
                "pitch": 76,
                "velocity": 64,
                "duration": 0.0659091,
                "tempo": 120.0
            },
            {
                "start_time": 138.6909091,
                "end_time": 138.8590909,
                "pitch": 0,
                "velocity": 64,
                "duration": 0.1681818,
                "tempo": 120.0
            },
            {
                "start_time": 138.8931818,
                "end_time": 139.2613636,
                "pitch": 76,
                "velocity": 64,
                "duration": 0.3681818,
                "tempo": 120.0
            },
            {
                "start_time": 139.2954545,
                "end_time": 139.6636364,
                "pitch": 0,
                "velocity": 64,
                "duration": 0.3681818,
                "tempo": 120.0
            },
            {
                "start_time": 139.6977273,
                "end_time": 139.9636364,
                "pitch": 64,
                "velocity": 64,
                "duration": 0.2659091,
                "tempo": 120.0
            },
            {
                "start_time": 139.9977273,
                "end_time": 140.0636364,
                "pitch": 64,
                "velocity": 64,
                "duration": 0.0659091,
                "tempo": 120.0
            },
            {
                "start_time": 140.0977273,
                "end_time": 140.8704545,
                "pitch": 0,
                "velocity": 64,
                "duration": 0.7727273,
                "tempo": 120.0
            },
            {
                "start_time": 140.9045455,
                "end_time": 141.1727273,
                "pitch": 64,
                "velocity": 64,
                "duration": 0.2681818,
                "tempo": 120.0
            },
            {
                "start_time": 141.2045455,
                "end_time": 141.2727273,
                "pitch": 64,
                "velocity": 64,
                "duration": 0.0681818,
                "tempo": 120.0
            },
            {
                "start_time": 141.3068182,
                "end_time": 142.075,
                "pitch": 0,
                "velocity": 64,
                "duration": 0.7681818,
                "tempo": 120.0
            },
            {
                "start_time": 142.1090909,
                "end_time": 142.3772727,
                "pitch": 64,
                "velocity": 64,
                "duration": 0.2681818,
                "tempo": 120.0
            },
            {
                "start_time": 142.4113636,
                "end_time": 142.4772727,
                "pitch": 64,
                "velocity": 64,
                "duration": 0.0659091,
                "tempo": 120.0
            },
            {
                "start_time": 142.5113636,
                "end_time": 142.6840909,
                "pitch": 0,
                "velocity": 64,
                "duration": 0.1727273,
                "tempo": 120.0
            },
            {
                "start_time": 142.7181818,
                "end_time": 144.4863636,
                "pitch": 64,
                "velocity": 64,
                "duration": 1.7681818,
                "tempo": 120.0
            },
            {
                "start_time": 144.5204545,
                "end_time": 144.6886364,
                "pitch": 0,
                "velocity": 64,
                "duration": 0.1681818,
                "tempo": 120.0
            },
            {
                "start_time": 144.7204545,
                "end_time": 144.7886364,
                "pitch": 76,
                "velocity": 64,
                "duration": 0.0681818,
                "tempo": 120.0
            },
            {
                "start_time": 144.8227273,
                "end_time": 144.8886364,
                "pitch": 76,
                "velocity": 64,
                "duration": 0.0659091,
                "tempo": 120.0
            },
            {
                "start_time": 144.9227273,
                "end_time": 144.9909091,
                "pitch": 76,
                "velocity": 64,
                "duration": 0.0681818,
                "tempo": 120.0
            },
            {
                "start_time": 145.025,
                "end_time": 145.0931818,
                "pitch": 76,
                "velocity": 64,
                "duration": 0.0681818,
                "tempo": 120.0
            },
            {
                "start_time": 145.1272727,
                "end_time": 145.3,
                "pitch": 0,
                "velocity": 64,
                "duration": 0.1727273,
                "tempo": 120.0
            },
            {
                "start_time": 145.3318182,
                "end_time": 145.5954545,
                "pitch": 76,
                "velocity": 64,
                "duration": 0.2636364,
                "tempo": 120.0
            },
            {
                "start_time": 145.6272727,
                "end_time": 145.6931818,
                "pitch": 76,
                "velocity": 64,
                "duration": 0.0659091,
                "tempo": 120.0
            },
            {
                "start_time": 145.725,
                "end_time": 146.0931818,
                "pitch": 0,
                "velocity": 64,
                "duration": 0.3681818,
                "tempo": 120.0
            },
            {
                "start_time": 146.125,
                "end_time": 146.3931818,
                "pitch": 64,
                "velocity": 64,
                "duration": 0.2681818,
                "tempo": 120.0
            },
            {
                "start_time": 146.4272727,
                "end_time": 146.4954545,
                "pitch": 64,
                "velocity": 64,
                "duration": 0.0681818,
                "tempo": 120.0
            },
            {
                "start_time": 146.5272727,
                "end_time": 147.3,
                "pitch": 0,
                "velocity": 64,
                "duration": 0.7727273,
                "tempo": 120.0
            },
            {
                "start_time": 147.3340909,
                "end_time": 147.6022727,
                "pitch": 64,
                "velocity": 64,
                "duration": 0.2681818,
                "tempo": 120.0
            },
            {
                "start_time": 147.6363636,
                "end_time": 147.7022727,
                "pitch": 64,
                "velocity": 64,
                "duration": 0.0659091,
                "tempo": 120.0
            },
            {
                "start_time": 147.7363636,
                "end_time": 148.5045455,
                "pitch": 0,
                "velocity": 64,
                "duration": 0.7681818,
                "tempo": 120.0
            },
            {
                "start_time": 148.5386364,
                "end_time": 148.8068182,
                "pitch": 64,
                "velocity": 64,
                "duration": 0.2681818,
                "tempo": 120.0
            },
            {
                "start_time": 148.8409091,
                "end_time": 148.9090909,
                "pitch": 64,
                "velocity": 64,
                "duration": 0.0681818,
                "tempo": 120.0
            },
            {
                "start_time": 148.9409091,
                "end_time": 149.1136364,
                "pitch": 0,
                "velocity": 64,
                "duration": 0.1727273,
                "tempo": 120.0
            },
            {
                "start_time": 149.1477273,
                "end_time": 151.3068182,
                "pitch": 64,
                "velocity": 64,
                "duration": 2.1590909,
                "tempo": 120.0
            },
            {
                "start_time": 151.3386364,
                "end_time": 151.5113636,
                "pitch": 64,
                "velocity": 64,
                "duration": 0.1727273,
                "tempo": 120.0
            },
            {
                "start_time": 151.5454545,
                "end_time": 151.7159091,
                "pitch": 0,
                "velocity": 64,
                "duration": 0.1704545,
                "tempo": 120.0
            },
            {
                "start_time": 151.75,
                "end_time": 152.0159091,
                "pitch": 64,
                "velocity": 64,
                "duration": 0.2659091,
                "tempo": 120.0
            },
            {
                "start_time": 152.05,
                "end_time": 152.3136364,
                "pitch": 63,
                "velocity": 64,
                "duration": 0.2636364,
                "tempo": 120.0
            },
            {
                "start_time": 152.3454545,
                "end_time": 154.0227273,
                "pitch": 62,
                "velocity": 64,
                "duration": 1.6772727,
                "tempo": 120.0
            },
            {
                "start_time": 154.0568182,
                "end_time": 155.6227273,
                "pitch": 64,
                "velocity": 64,
                "duration": 1.5659091,
                "tempo": 120.0
            },
            {
                "start_time": 155.6545455,
                "end_time": 157.3386364,
                "pitch": 66,
                "velocity": 64,
                "duration": 1.6840909,
                "tempo": 120.0
            },
            {
                "start_time": 157.3727273,
                "end_time": 157.4363636,
                "pitch": 0,
                "velocity": 64,
                "duration": 0.0636364,
                "tempo": 120.0
            },
            {
                "start_time": 157.4704545,
                "end_time": 157.5363636,
                "pitch": 78,
                "velocity": 64,
                "duration": 0.0659091,
                "tempo": 120.0
            },
            {
                "start_time": 157.5681818,
                "end_time": 157.6340909,
                "pitch": 0,
                "velocity": 64,
                "duration": 0.0659091,
                "tempo": 120.0
            },
            {
                "start_time": 157.6659091,
                "end_time": 157.7318182,
                "pitch": 78,
                "velocity": 64,
                "duration": 0.0659091,
                "tempo": 120.0
            },
            {
                "start_time": 157.7659091,
                "end_time": 157.8318182,
                "pitch": 0,
                "velocity": 64,
                "duration": 0.0659091,
                "tempo": 120.0
            },
            {
                "start_time": 157.8659091,
                "end_time": 157.9318182,
                "pitch": 78,
                "velocity": 64,
                "duration": 0.0659091,
                "tempo": 120.0
            },
            {
                "start_time": 157.9659091,
                "end_time": 158.0340909,
                "pitch": 0,
                "velocity": 64,
                "duration": 0.0681818,
                "tempo": 120.0
            },
            {
                "start_time": 158.0659091,
                "end_time": 158.1340909,
                "pitch": 78,
                "velocity": 64,
                "duration": 0.0681818,
                "tempo": 120.0
            },
            {
                "start_time": 158.1681818,
                "end_time": 158.7409091,
                "pitch": 0,
                "velocity": 64,
                "duration": 0.5727273,
                "tempo": 120.0
            },
            {
                "start_time": 158.775,
                "end_time": 160.3522727,
                "pitch": 66,
                "velocity": 64,
                "duration": 1.5772727,
                "tempo": 120.0
            },
            {
                "start_time": 160.3863636,
                "end_time": 161.9613636,
                "pitch": 64,
                "velocity": 64,
                "duration": 1.575,
                "tempo": 120.0
            },
            {
                "start_time": 161.9954545,
                "end_time": 163.6704545,
                "pitch": 64,
                "velocity": 64,
                "duration": 1.675,
                "tempo": 120.0
            },
            {
                "start_time": 163.7045455,
                "end_time": 164.475,
                "pitch": 66,
                "velocity": 64,
                "duration": 0.7704545,
                "tempo": 120.0
            },
            {
                "start_time": 164.5068182,
                "end_time": 165.1795455,
                "pitch": 64,
                "velocity": 64,
                "duration": 0.6727273,
                "tempo": 120.0
            },
            {
                "start_time": 165.2113636,
                "end_time": 166.7863636,
                "pitch": 66,
                "velocity": 64,
                "duration": 1.575,
                "tempo": 120.0
            },
            {
                "start_time": 166.8204545,
                "end_time": 168.3954545,
                "pitch": 64,
                "velocity": 64,
                "duration": 1.575,
                "tempo": 120.0
            },
            {
                "start_time": 168.4295455,
                "end_time": 171.0090909,
                "pitch": 64,
                "velocity": 64,
                "duration": 2.5795455,
                "tempo": 120.0
            },
            {
                "start_time": 171.0431818,
                "end_time": 171.6136364,
                "pitch": 64,
                "velocity": 64,
                "duration": 0.5704545,
                "tempo": 120.0
            },
            {
                "start_time": 171.6477273,
                "end_time": 173.2227273,
                "pitch": 66,
                "velocity": 64,
                "duration": 1.575,
                "tempo": 120.0
            },
            {
                "start_time": 173.2545455,
                "end_time": 175.0318182,
                "pitch": 64,
                "velocity": 64,
                "duration": 1.7772727,
                "tempo": 120.0
            },
            {
                "start_time": 175.0659091,
                "end_time": 175.7363636,
                "pitch": 64,
                "velocity": 64,
                "duration": 0.6704545,
                "tempo": 120.0
            },
            {
                "start_time": 175.7704545,
                "end_time": 176.5386364,
                "pitch": 66,
                "velocity": 64,
                "duration": 0.7681818,
                "tempo": 120.0
            },
            {
                "start_time": 176.5727273,
                "end_time": 177.3431818,
                "pitch": 64,
                "velocity": 64,
                "duration": 0.7704545,
                "tempo": 120.0
            },
            {
                "start_time": 177.3772727,
                "end_time": 178.0477273,
                "pitch": 0,
                "velocity": 64,
                "duration": 0.6704545,
                "tempo": 120.0
            },
            {
                "start_time": 178.0818182,
                "end_time": 179.6568182,
                "pitch": 66,
                "velocity": 64,
                "duration": 1.575,
                "tempo": 120.0
            }
        ]
    }
}