{
    "mood": "happy",
    "instruments": {
        "Vibraphone": [
            {
                "start_time": 0.1363636,
                "end_time": 0.2568182,
                "pitch": 64,
                "velocity": 51,
                "duration": 0.1204545,
                "tempo": 120.0
            },
            {
                "start_time": 0.2727273,
                "end_time": 0.5204545,
                "pitch": 67,
                "velocity": 51,
                "duration": 0.2477273,
                "tempo": 120.0
            },
            {
                "start_time": 0.5363636,
                "end_time": 0.6477273,
                "pitch": 64,
                "velocity": 51,
                "duration": 0.1113636,
                "tempo": 120.0
            },
            {
                "start_time": 0.6636364,
                "end_time": 0.9113636,
                "pitch": 67,
                "velocity": 51,
                "duration": 0.2477273,
                "tempo": 120.0
            },
            {
                "start_time": 0.9295455,
                "end_time": 1.05,
                "pitch": 65,
                "velocity": 51,
                "duration": 0.1204545,
                "tempo": 120.0
            },
            {
                "start_time": 1.0659091,
                "end_time": 1.3159091,
                "pitch": 69,
                "velocity": 51,
                "duration": 0.25,
                "tempo": 120.0
            },
            {
                "start_time": 1.3340909,
                "end_time": 1.4477273,
                "pitch": 66,
                "velocity": 51,
                "duration": 0.1136364,
                "tempo": 120.0
            },
            {
                "start_time": 1.4636364,
                "end_time": 1.5795455,
                "pitch": 69,
                "velocity": 51,
                "duration": 0.1159091,
                "tempo": 120.0
            },
            {
                "start_time": 1.5954545,
                "end_time": 2.8022727,
                "pitch": 71,
                "velocity": 51,
                "duration": 1.2068182,
                "tempo": 120.0
            },
            {
                "start_time": 2.8181818,
                "end_time": 2.9295455,
                "pitch": 64,
                "velocity": 51,
                "duration": 0.1113636,
                "tempo": 120.0
            },
            {
                "start_time": 2.9454545,
                "end_time": 3.0568182,
                "pitch": 67,
                "velocity": 51,
                "duration": 0.1113636,
                "tempo": 120.0
            },
            {
                "start_time": 3.0727273,
                "end_time": 3.1840909,
                "pitch": 72,
                "velocity": 51,
                "duration": 0.1113636,
                "tempo": 120.0
            },
            {
                "start_time": 3.2,
                "end_time": 3.3204545,
                "pitch": 67,
                "velocity": 51,
                "duration": 0.1204545,
                "tempo": 120.0
            },
            {
                "start_time": 3.3363636,
                "end_time": 3.4568182,
                "pitch": 72,
                "velocity": 51,
                "duration": 0.1204545,
                "tempo": 120.0
            },
            {
                "start_time": 3.475,
                "end_time": 3.5931818,
                "pitch": 76,
                "velocity": 51,
                "duration": 0.1181818,
                "tempo": 120.0
            },
            {
                "start_time": 3.6113636,
                "end_time": 3.7272727,
                "pitch": 72,
                "velocity": 51,
                "duration": 0.1159091,
                "tempo": 120.0
            },
            {
                "start_time": 3.7454545,
                "end_time": 3.8613636,
                "pitch": 76,
                "velocity": 51,
                "duration": 0.1159091,
                "tempo": 120.0
            },
            {
                "start_time": 3.8772727,
                "end_time": 3.9954545,
                "pitch": 79,
                "velocity": 51,
                "duration": 0.1181818,
                "tempo": 120.0
            },
            {
                "start_time": 4.0113636,
                "end_time": 4.125,
                "pitch": 76,
                "velocity": 51,
                "duration": 0.1136364,
                "tempo": 120.0
            },
            {
                "start_time": 4.1409091,
                "end_time": 4.2568182,
                "pitch": 79,
                "velocity": 51,
                "duration": 0.1159091,
                "tempo": 120.0
            },
            {
                "start_time": 4.2727273,
                "end_time": 4.3863636,
                "pitch": 84,
                "velocity": 51,
                "duration": 0.1136364,
                "tempo": 120.0
            },
            {
                "start_time": 4.4022727,
                "end_time": 4.5227273,
                "pitch": 88,
                "velocity": 51,
                "duration": 0.1204545,
                "tempo": 120.0
            },
            {
                "start_time": 4.5409091,
                "end_time": 4.6590909,
                "pitch": 89,
                "velocity": 51,
                "duration": 0.1181818,
                "tempo": 120.0
            },
            {
                "start_time": 4.6772727,
                "end_time": 6.0,
                "pitch": 91,
                "velocity": 51,
                "duration": 1.3227273,
                "tempo": 120.0
            }
        ],
        "Electric Guitar (clean)": [
            {
                "start_time": 0.1363636,
                "end_time": 0.2568182,
                "pitch": 60,
                "velocity": 32,
                "duration": 0.1204545,
                "tempo": 120.0
            },
            {
                "start_time": 0.2727273,
                "end_time": 0.5204545,
                "pitch": 64,
                "velocity": 32,
                "duration": 0.2477273,
                "tempo": 120.0
            },
            {
                "start_time": 0.5363636,
                "end_time": 0.6477273,
                "pitch": 60,
                "velocity": 32,
                "duration": 0.1113636,
                "tempo": 120.0
            },
            {
                "start_time": 0.6636364,
                "end_time": 0.9113636,
                "pitch": 64,
                "velocity": 32,
                "duration": 0.2477273,
                "tempo": 120.0
            },
            {
                "start_time": 0.9295455,
                "end_time": 1.05,
                "pitch": 60,
                "velocity": 32,
                "duration": 0.1204545,
                "tempo": 120.0
            },
            {
                "start_time": 1.0659091,
                "end_time": 1.3159091,
                "pitch": 65,
                "velocity": 32,
                "duration": 0.25,
                "tempo": 120.0
            },
            {
                "start_time": 1.3340909,
                "end_time": 1.4477273,
                "pitch": 60,
                "velocity": 32,
                "duration": 0.1136364,
                "tempo": 120.0
            },
            {
                "start_time": 1.4636364,
                "end_time": 1.5795455,
                "pitch": 62,
                "velocity": 32,
                "duration": 0.1159091,
                "tempo": 120.0
            },
            {
                "start_time": 1.5954545,
                "end_time": 2.8022727,
                "pitch": 65,
                "velocity": 32,
                "duration": 1.2068182,
                "tempo": 120.0
            },
            {
                "start_time": 2.8181818,
                "end_time": 2.9295455,
                "pitch": 55,
                "velocity": 32,
                "duration": 0.1113636,
                "tempo": 120.0
            },
            {
                "start_time": 2.9454545,
                "end_time": 3.0568182,
                "pitch": 60,
                "velocity": 32,
                "duration": 0.1113636,
                "tempo": 120.0
            },
            {
                "start_time": 3.0727273,
                "end_time": 3.1840909,
                "pitch": 64,
                "velocity": 32,
                "duration": 0.1113636,
                "tempo": 120.0
            },
            {
                "start_time": 3.2,
                "end_time": 3.3204545,
                "pitch": 60,
                "velocity": 32,
                "duration": 0.1204545,
                "tempo": 120.0
            },
            {
                "start_time": 3.3363636,
                "end_time": 3.4568182,
                "pitch": 64,
                "velocity": 32,
                "duration": 0.1204545,
                "tempo": 120.0
            },
            {
                "start_time": 3.475,
                "end_time": 3.5931818,
                "pitch": 67,
                "velocity": 32,
                "duration": 0.1181818,
                "tempo": 120.0
            },
            {
                "start_time": 3.6113636,
                "end_time": 3.7272727,
                "pitch": 64,
                "velocity": 32,
                "duration": 0.1159091,
                "tempo": 120.0
            },
            {
                "start_time": 3.7454545,
                "end_time": 3.8613636,
                "pitch": 67,
                "velocity": 32,
                "duration": 0.1159091,
                "tempo": 120.0
            },
            {
                "start_time": 3.8772727,
                "end_time": 3.9954545,
                "pitch": 72,
                "velocity": 32,
                "duration": 0.1181818,
                "tempo": 120.0
            },
            {
                "start_time": 4.0113636,
                "end_time": 4.125,
                "pitch": 67,
                "velocity": 32,
                "duration": 0.1136364,
                "tempo": 120.0
            },
            {
                "start_time": 4.1409091,
                "end_time": 4.2568182,
                "pitch": 72,
                "velocity": 32,
                "duration": 0.1159091,
                "tempo": 120.0
            },
            {
                "start_time": 4.2727273,
                "end_time": 4.3863636,
                "pitch": 76,
                "velocity": 32,
                "duration": 0.1136364,
                "tempo": 120.0
            },
            {
                "start_time": 4.4022727,
                "end_time": 6.0,
                "pitch": 72,
                "velocity": 32,
                "duration": 1.5977273,
                "tempo": 120.0
            }
        ]
    }
}