{
    "mood": "happy",
    "instruments": {
        "Acoustic Grand Piano": [
            {
                "start_time": 0.0318182,
                "end_time": 0.1977273,
                "pitch": 63,
                "velocity": 51,
                "duration": 0.1659091,
                "tempo": 120.0
            },
            {
                "start_time": 0.2159091,
                "end_time": 0.2977273,
                "pitch": 63,
                "velocity": 51,
                "duration": 0.0818182,
                "tempo": 120.0
            },
            {
                "start_time": 0.3159091,
                "end_time": 0.3977273,
                "pitch": 63,
                "velocity": 51,
                "duration": 0.0818182,
                "tempo": 120.0
            },
            {
                "start_time": 0.4159091,
                "end_time": 0.5954545,
                "pitch": 63,
                "velocity": 51,
                "duration": 0.1795455,
                "tempo": 120.0
            },
            {
                "start_time": 0.6113636,
                "end_time": 0.6931818,
                "pitch": 63,
                "velocity": 51,
                "duration": 0.0818182,
                "tempo": 120.0
            },
            {
                "start_time": 0.7090909,
                "end_time": 0.7909091,
                "pitch": 63,
                "velocity": 51,
                "duration": 0.0818182,
                "tempo": 120.0
            },
            {
                "start_time": 0.8068182,
                "end_time": 0.9909091,
                "pitch": 63,
                "velocity": 51,
                "duration": 0.1840909,
                "tempo": 120.0
            },
            {
                "start_time": 1.0068182,
                "end_time": 1.0909091,
                "pitch": 63,
                "velocity": 51,
                "duration": 0.0840909,
                "tempo": 120.0
            },
            {
                "start_time": 1.1068182,
                "end_time": 1.1909091,
                "pitch": 63,
                "velocity": 51,
                "duration": 0.0840909,
                "tempo": 120.0
            },
            {
                "start_time": 1.2068182,
                "end_time": 1.2886364,
                "pitch": 63,
                "velocity": 51,
                "duration": 0.0818182,
                "tempo": 120.0
            },
            {
                "start_time": 1.3045455,
                "end_time": 1.3863636,
                "pitch": 63,
                "velocity": 51,
                "duration": 0.0818182,
                "tempo": 120.0
            },
            {
                "start_time": 1.4022727,
                "end_time": 1.5818182,
                "pitch": 63,
                "velocity": 51,
                "duration": 0.1795455,
                "tempo": 120.0
            },
            {
                "start_time": 1.8,
                "end_time": 2.1863636,
                "pitch": 62,
                "velocity": 51,
                "duration": 0.3863636,
                "tempo": 120.0
            },
            {
                "start_time": 2.2022727,
                "end_time": 2.3863636,
                "pitch": 60,
                "velocity": 51,
                "duration": 0.1840909,
                "tempo": 120.0
            },
            {
                "start_time": 2.4022727,
                "end_time": 2.5909091,
                "pitch": 62,
                "velocity": 51,
                "duration": 0.1886364,
                "tempo": 120.0
            },
            {
                "start_time": 2.6068182,
                "end_time": 2.7954545,
                "pitch": 58,
                "velocity": 51,
                "duration": 0.1886364,
                "tempo": 120.0
            },
            {
                "start_time": 2.8136364,
                "end_time": 2.9931818,
                "pitch": 60,
                "velocity": 51,
                "duration": 0.1795455,
                "tempo": 120.0
            },
            {
                "start_time": 3.0090909,
                "end_time": 3.1886364,
                "pitch": 62,
                "velocity": 51,
                "duration": 0.1795455,
                "tempo": 120.0
            },
            {
                "start_time": 9.7113636,
                "end_time": 9.9409091,
                "pitch": 72,
                "velocity": 51,
                "duration": 0.2295455,
                "tempo": 120.0
            },
            {
                "start_time": 9.9613636,
                "end_time": 10.0636364,
                "pitch": 68,
                "velocity": 51,
                "duration": 0.1022727,
                "tempo": 120.0
            },
            {
                "start_time": 10.0840909,
                "end_time": 10.3090909,
                "pitch": 70,
                "velocity": 51,
                "duration": 0.225,
                "tempo": 120.0
            },
            {
                "start_time": 10.3295455,
                "end_time": 10.8386364,
                "pitch": 72,
                "velocity": 51,
                "duration": 0.5090909,
                "tempo": 120.0
            },
            {
                "start_time": 10.8545455,
                "end_time": 10.9386364,
                "pitch": 68,
                "velocity": 51,
                "duration": 0.0840909,
                "tempo": 120.0
            },
            {
                "start_time": 10.9545455,
                "end_time": 11.1386364,
                "pitch": 70,
                "velocity": 51,
                "duration": 0.1840909,
                "tempo": 120.0
            },
            {
                "start_time": 11.1545455,
                "end_time": 11.6409091,
                "pitch": 72,
                "velocity": 51,
                "duration": 0.4863636,
                "tempo": 120.0
            },
            {
                "start_time": 11.6568182,
                "end_time": 11.7409091,
                "pitch": 68,
                "velocity": 51,
                "duration": 0.0840909,
                "tempo": 120.0
            },
            {
                "start_time": 11.7568182,
                "end_time": 11.9431818,
                "pitch": 70,
                "velocity": 51,
                "duration": 0.1863636,
                "tempo": 120.0
            },
            {
                "start_time": 11.9590909,
                "end_time": 12.2454545,
                "pitch": 72,
                "velocity": 51,
                "duration": 0.2863636,
                "tempo": 120.0
            },
            {
                "start_time": 12.2613636,
                "end_time": 12.4454545,
                "pitch": 74,
                "velocity": 51,
                "duration": 0.1840909,
                "tempo": 120.0
            },
            {
                "start_time": 12.4636364,
                "end_time": 12.6545455,
                "pitch": 72,
                "velocity": 51,
                "duration": 0.1909091,
                "tempo": 120.0
            },
            {
                "start_time": 12.6727273,
                "end_time": 12.8659091,
                "pitch": 70,
                "velocity": 51,
                "duration": 0.1931818,
                "tempo": 120.0
            },
            {
                "start_time": 12.8840909,
                "end_time": 13.0590909,
                "pitch": 68,
                "velocity": 51,
                "duration": 0.175,
                "tempo": 120.0
            },
            {
                "start_time": 13.075,
                "end_time": 13.25,
                "pitch": 70,
                "velocity": 51,
                "duration": 0.175,
                "tempo": 120.0
            },
            {
                "start_time": 13.2659091,
                "end_time": 13.35,
                "pitch": 67,
                "velocity": 51,
                "duration": 0.0840909,
                "tempo": 120.0
            },
            {
                "start_time": 13.3659091,
                "end_time": 13.5522727,
                "pitch": 68,
                "velocity": 51,
                "duration": 0.1863636,
                "tempo": 120.0
            },
            {
                "start_time": 13.5681818,
                "end_time": 14.0545455,
                "pitch": 70,
                "velocity": 51,
                "duration": 0.4863636,
                "tempo": 120.0
            },
            {
                "start_time": 14.0727273,
                "end_time": 14.1568182,
                "pitch": 67,
                "velocity": 51,
                "duration": 0.0840909,
                "tempo": 120.0
            },
            {
                "start_time": 14.175,
                "end_time": 14.3636364,
                "pitch": 68,
                "velocity": 51,
                "duration": 0.1886364,
                "tempo": 120.0
            },
            {
                "start_time": 14.3795455,
                "end_time": 14.8681818,
                "pitch": 70,
                "velocity": 51,
                "duration": 0.4886364,
                "tempo": 120.0
            },
            {
                "start_time": 14.8863636,
                "end_time": 14.9681818,
                "pitch": 67,
                "velocity": 51,
                "duration": 0.0818182,
                "tempo": 120.0
            },
            {
                "start_time": 14.9863636,
                "end_time": 15.1681818,
                "pitch": 68,
                "velocity": 51,
                "duration": 0.1818182,
                "tempo": 120.0
            },
            {
                "start_time": 15.1863636,
                "end_time": 15.4704545,
                "pitch": 70,
                "velocity": 51,
                "duration": 0.2840909,
                "tempo": 120.0
            },
            {
                "start_time": 15.4863636,
                "end_time": 15.6704545,
                "pitch": 72,
                "velocity": 51,
                "duration": 0.1840909,
                "tempo": 120.0
            },
            {
                "start_time": 15.6886364,
                "end_time": 15.875,
                "pitch": 70,
                "velocity": 51,
                "duration": 0.1863636,
                "tempo": 120.0
            },
            {
                "start_time": 15.8931818,
                "end_time": 16.0818182,
                "pitch": 68,
                "velocity": 51,
                "duration": 0.1886364,
                "tempo": 120.0
            },
            {
                "start_time": 16.0977273,
                "end_time": 16.2727273,
                "pitch": 67,
                "velocity": 51,
                "duration": 0.175,
                "tempo": 120.0
            },
            {
                "start_time": 16.2886364,
                "end_time": 16.4636364,
                "pitch": 68,
                "velocity": 51,
                "duration": 0.175,
                "tempo": 120.0
            },
            {
                "start_time": 16.4818182,
                "end_time": 16.5636364,
                "pitch": 67,
                "velocity": 51,
                "duration": 0.0818182,
                "tempo": 120.0
            },
            {
                "start_time": 16.5818182,
                "end_time": 16.7659091,
                "pitch": 68,
                "velocity": 51,
                "duration": 0.1840909,
                "tempo": 120.0
            },
            {
                "start_time": 16.7818182,
                "end_time": 16.8659091,
                "pitch": 65,
                "velocity": 51,
                "duration": 0.0840909,
                "tempo": 120.0
            },
            {
                "start_time": 16.8840909,
                "end_time": 16.9659091,
                "pitch": 67,
                "velocity": 51,
                "duration": 0.0818182,
                "tempo": 120.0
            },
            {
                "start_time": 16.9840909,
                "end_time": 17.0659091,
                "pitch": 68,
                "velocity": 51,
                "duration": 0.0818182,
                "tempo": 120.0
            },
            {
                "start_time": 17.0840909,
                "end_time": 17.2659091,
                "pitch": 70,
                "velocity": 51,
                "duration": 0.1818182,
                "tempo": 120.0
            },
            {
                "start_time": 17.2840909,
                "end_time": 17.3681818,
                "pitch": 69,
                "velocity": 51,
                "duration": 0.0840909,
                "tempo": 120.0
            },
            {
                "start_time": 17.3840909,
                "end_time": 17.5681818,
                "pitch": 70,
                "velocity": 51,
                "duration": 0.1840909,
                "tempo": 120.0
            },
            {
                "start_time": 17.5863636,
                "end_time": 17.6681818,
                "pitch": 67,
                "velocity": 51,
                "duration": 0.0818182,
                "tempo": 120.0
            },
            {
                "start_time": 17.6863636,
                "end_time": 17.7704545,
                "pitch": 68,
                "velocity": 51,
                "duration": 0.0840909,
                "tempo": 120.0
            },
            {
                "start_time": 17.7863636,
                "end_time": 17.8704545,
                "pitch": 70,
                "velocity": 51,
                "duration": 0.0840909,
                "tempo": 120.0
            },
            {
                "start_time": 17.8863636,
                "end_time": 18.0704545,
                "pitch": 72,
                "velocity": 51,
                "duration": 0.1840909,
                "tempo": 120.0
            },
            {
                "start_time": 18.0863636,
                "end_time": 18.1704545,
                "pitch": 71,
                "velocity": 51,
                "duration": 0.0840909,
                "tempo": 120.0
            },
            {
                "start_time": 18.1863636,
                "end_time": 18.3704545,
                "pitch": 72,
                "velocity": 51,
                "duration": 0.1840909,
                "tempo": 120.0
            },
            {
                "start_time": 18.3863636,
                "end_time": 18.4704545,
                "pitch": 68,
                "velocity": 51,
                "duration": 0.0840909,
                "tempo": 120.0
            },
            {
                "start_time": 18.4863636,
                "end_time": 18.5704545,
                "pitch": 70,
                "velocity": 51,
                "duration": 0.0840909,
                "tempo": 120.0
            },
            {
                "start_time": 18.5886364,
                "end_time": 18.675,
                "pitch": 72,
                "velocity": 51,
                "duration": 0.0863636,
                "tempo": 120.0
            },
            {
                "start_time": 18.6909091,
                "end_time": 18.8795455,
                "pitch": 74,
                "velocity": 51,
                "duration": 0.1886364,
                "tempo": 120.0
            },
            {
                "start_time": 18.8977273,
                "end_time": 19.0772727,
                "pitch": 75,
                "velocity": 51,
                "duration": 0.1795455,
                "tempo": 120.0
            },
            {
                "start_time": 19.0931818,
                "end_time": 19.4681818,
                "pitch": 77,
                "velocity": 51,
                "duration": 0.375,
                "tempo": 120.0
            }
        ],
        "Clarinet": [
            {
                "start_time": 0.0318182,
                "end_time": 0.2977273,
                "pitch": 82,
                "velocity": 32,
                "duration": 0.2659091,
                "tempo": 120.0
            },
            {
                "start_time": 0.3159091,
                "end_time": 0.5954545,
                "pitch": 80,
                "velocity": 32,
                "duration": 0.2795455,
                "tempo": 120.0
            },
            {
                "start_time": 0.6113636,
                "end_time": 0.7909091,
                "pitch": 74,
                "velocity": 32,
                "duration": 0.1795455,
                "tempo": 120.0
            },
            {
                "start_time": 0.8068182,
                "end_time": 1.0909091,
                "pitch": 82,
                "velocity": 32,
                "duration": 0.2840909,
                "tempo": 120.0
            },
            {
                "start_time": 1.1068182,
                "end_time": 1.3863636,
                "pitch": 80,
                "velocity": 32,
                "duration": 0.2795455,
                "tempo": 120.0
            },
            {
                "start_time": 1.4022727,
                "end_time": 1.5818182,
                "pitch": 74,
                "velocity": 32,
                "duration": 0.1795455,
                "tempo": 120.0
            },
            {
                "start_time": 1.6,
                "end_time": 1.8840909,
                "pitch": 80,
                "velocity": 32,
                "duration": 0.2840909,
                "tempo": 120.0
            },
            {
                "start_time": 1.9022727,
                "end_time": 2.0863636,
                "pitch": 79,
                "velocity": 32,
                "duration": 0.1840909,
                "tempo": 120.0
            },
            {
                "start_time": 2.1022727,
                "end_time": 2.1863636,
                "pitch": 80,
                "velocity": 32,
                "duration": 0.0840909,
                "tempo": 120.0
            },
            {
                "start_time": 2.2022727,
                "end_time": 2.3863636,
                "pitch": 84,
                "velocity": 32,
                "duration": 0.1840909,
                "tempo": 120.0
            },
            {
                "start_time": 2.4022727,
                "end_time": 2.7954545,
                "pitch": 82,
                "velocity": 32,
                "duration": 0.3931818,
                "tempo": 120.0
            }
        ],
        "Acoustic Bass": [
            {
                "start_time": 0.0318182,
                "end_time": 0.7909091,
                "pitch": 35,
                "velocity": 40,
                "duration": 0.7590909,
                "tempo": 120.0
            },
            {
                "start_time": 0.8068182,
                "end_time": 1.5818182,
                "pitch": 44,
                "velocity": 40,
                "duration": 0.775,
                "tempo": 120.0
            },
            {
                "start_time": 1.6,
                "end_time": 1.6840909,
                "pitch": 41,
                "velocity": 40,
                "duration": 0.0840909,
                "tempo": 120.0
            },
            {
                "start_time": 1.7,
                "end_time": 1.7840909,
                "pitch": 39,
                "velocity": 40,
                "duration": 0.0840909,
                "tempo": 120.0
            },
            {
                "start_time": 1.8,
                "end_time": 1.8840909,
                "pitch": 38,
                "velocity": 40,
                "duration": 0.0840909,
                "tempo": 120.0
            },
            {
                "start_time": 1.9022727,
                "end_time": 2.0863636,
                "pitch": 36,
                "velocity": 40,
                "duration": 0.1840909,
                "tempo": 120.0
            },
            {
                "start_time": 2.1022727,
                "end_time": 2.1863636,
                "pitch": 34,
                "velocity": 40,
                "duration": 0.0840909,
                "tempo": 120.0
            },
            {
                "start_time": 2.2022727,
                "end_time": 2.2863636,
                "pitch": 38,
                "velocity": 40,
                "duration": 0.0840909,
                "tempo": 120.0
            },
            {
                "start_time": 2.3022727,
                "end_time": 2.3863636,
                "pitch": 39,
                "velocity": 40,
                "duration": 0.0840909,
                "tempo": 120.0
            },
            {
                "start_time": 2.4022727,
                "end_time": 3.1886364,
                "pitch": 41,
                "velocity": 40,
                "duration": 0.7863636,
                "tempo": 120.0
            },
            {
                "start_time": 3.2045455,
                "end_time": 3.3886364,
                "pitch": 39,
                "velocity": 40,
                "duration": 0.1840909,
                "tempo": 120.0
            },
            {
                "start_time": 3.4045455,
                "end_time": 3.4886364,
                "pitch": 46,
                "velocity": 40,
                "duration": 0.0840909,
                "tempo": 120.0
            },
            {
                "start_time": 3.5045455,
                "end_time": 3.6909091,
                "pitch": 39,
                "velocity": 40,
                "duration": 0.1863636,
                "tempo": 120.0
            },
            {
                "start_time": 3.7068182,
                "end_time": 3.7931818,
                "pitch": 39,
                "velocity": 40,
                "duration": 0.0863636,
                "tempo": 120.0
            },
            {
                "start_time": 3.8090909,
                "end_time": 3.8954545,
                "pitch": 46,
                "velocity": 40,
                "duration": 0.0863636,
                "tempo": 120.0
            },
            {
                "start_time": 3.9136364,
                "end_time": 3.9977273,
                "pitch": 39,
                "velocity": 40,
                "duration": 0.0840909,
                "tempo": 120.0
            },
            {
                "start_time": 4.0159091,
                "end_time": 4.2,
                "pitch": 39,
                "velocity": 40,
                "duration": 0.1840909,
                "tempo": 120.0
            },
            {
                "start_time": 4.2159091,
                "end_time": 4.3,
                "pitch": 46,
                "velocity": 40,
                "duration": 0.0840909,
                "tempo": 120.0
            },
            {
                "start_time": 4.3159091,
                "end_time": 4.5,
                "pitch": 39,
                "velocity": 40,
                "duration": 0.1840909,
                "tempo": 120.0
            },
            {
                "start_time": 4.5159091,
                "end_time": 4.6,
                "pitch": 39,
                "velocity": 40,
                "duration": 0.0840909,
                "tempo": 120.0
            },
            {
                "start_time": 4.6181818,
                "end_time": 4.7,
                "pitch": 46,
                "velocity": 40,
                "duration": 0.0818182,
                "tempo": 120.0
            },
            {
                "start_time": 4.7181818,
                "end_time": 4.8022727,
                "pitch": 39,
                "velocity": 40,
                "duration": 0.0840909,
                "tempo": 120.0
            },
            {
                "start_time": 4.8181818,
                "end_time": 5.0022727,
                "pitch": 34,
                "velocity": 40,
                "duration": 0.1840909,
                "tempo": 120.0
            },
            {
                "start_time": 5.0204545,
                "end_time": 5.1045455,
                "pitch": 41,
                "velocity": 40,
                "duration": 0.0840909,
                "tempo": 120.0
            },
            {
                "start_time": 5.1204545,
                "end_time": 5.3045455,
                "pitch": 34,
                "velocity": 40,
                "duration": 0.1840909,
                "tempo": 120.0
            },
            {
                "start_time": 5.3204545,
                "end_time": 5.4045455,
                "pitch": 34,
                "velocity": 40,
                "duration": 0.0840909,
                "tempo": 120.0
            },
            {
                "start_time": 5.4204545,
                "end_time": 5.5045455,
                "pitch": 41,
                "velocity": 40,
                "duration": 0.0840909,
                "tempo": 120.0
            },
            {
                "start_time": 5.5204545,
                "end_time": 5.6045455,
                "pitch": 34,
                "velocity": 40,
                "duration": 0.0840909,
                "tempo": 120.0
            },
            {
                "start_time": 5.6204545,
                "end_time": 5.8045455,
                "pitch": 34,
                "velocity": 40,
                "duration": 0.1840909,
                "tempo": 120.0
            },
            {
                "start_time": 5.8227273,
                "end_time": 5.9068182,
                "pitch": 41,
                "velocity": 40,
                "duration": 0.0840909,
                "tempo": 120.0
            },
            {
                "start_time": 5.9227273,
                "end_time": 6.1068182,
                "pitch": 34,
                "velocity": 40,
                "duration": 0.1840909,
                "tempo": 120.0
            },
            {
                "start_time": 6.1227273,
                "end_time": 6.2068182,
                "pitch": 34,
                "velocity": 40,
                "duration": 0.0840909,
                "tempo": 120.0
            },
            {
                "start_time": 6.2227273,
                "end_time": 6.3068182,
                "pitch": 41,
                "velocity": 40,
                "duration": 0.0840909,
                "tempo": 120.0
            },
            {
                "start_time": 6.3227273,
                "end_time": 6.4068182,
                "pitch": 34,
                "velocity": 40,
                "duration": 0.0840909,
                "tempo": 120.0
            },
            {
                "start_time": 6.4227273,
                "end_time": 6.6090909,
                "pitch": 34,
                "velocity": 40,
                "duration": 0.1863636,
                "tempo": 120.0
            },
            {
                "start_time": 6.625,
                "end_time": 6.7090909,
                "pitch": 41,
                "velocity": 40,
                "duration": 0.0840909,
                "tempo": 120.0
            },
            {
                "start_time": 6.725,
                "end_time": 6.9113636,
                "pitch": 34,
                "velocity": 40,
                "duration": 0.1863636,
                "tempo": 120.0
            },
            {
                "start_time": 6.9272727,
                "end_time": 7.0113636,
                "pitch": 34,
                "velocity": 40,
                "duration": 0.0840909,
                "tempo": 120.0
            },
            {
                "start_time": 7.0272727,
                "end_time": 7.1113636,
                "pitch": 44,
                "velocity": 40,
                "duration": 0.0840909,
                "tempo": 120.0
            },
            {
                "start_time": 7.1295455,
                "end_time": 7.2113636,
                "pitch": 34,
                "velocity": 40,
                "duration": 0.0818182,
                "tempo": 120.0
            },
            {
                "start_time": 7.2295455,
                "end_time": 7.4136364,
                "pitch": 34,
                "velocity": 40,
                "duration": 0.1840909,
                "tempo": 120.0
            },
            {
                "start_time": 7.4295455,
                "end_time": 7.5136364,
                "pitch": 41,
                "velocity": 40,
                "duration": 0.0840909,
                "tempo": 120.0
            },
            {
                "start_time": 7.5295455,
                "end_time": 7.7136364,
                "pitch": 34,
                "velocity": 40,
                "duration": 0.1840909,
                "tempo": 120.0
            },
            {
                "start_time": 7.7295455,
                "end_time": 7.8136364,
                "pitch": 34,
                "velocity": 40,
                "duration": 0.0840909,
                "tempo": 120.0
            },
            {
                "start_time": 7.8295455,
                "end_time": 7.9136364,
                "pitch": 44,
                "velocity": 40,
                "duration": 0.0840909,
                "tempo": 120.0
            },
            {
                "start_time": 7.9318182,
                "end_time": 8.0159091,
                "pitch": 34,
                "velocity": 40,
                "duration": 0.0840909,
                "tempo": 120.0
            },
            {
                "start_time": 8.0318182,
                "end_time": 8.2159091,
                "pitch": 39,
                "velocity": 40,
                "duration": 0.1840909,
                "tempo": 120.0
            },
            {
                "start_time": 8.2318182,
                "end_time": 8.3159091,
                "pitch": 46,
                "velocity": 40,
                "duration": 0.0840909,
                "tempo": 120.0
            },
            {
                "start_time": 8.3318182,
                "end_time": 8.5136364,
                "pitch": 39,
                "velocity": 40,
                "duration": 0.1818182,
                "tempo": 120.0
            },
            {
                "start_time": 8.5295455,
                "end_time": 8.6113636,
                "pitch": 39,
                "velocity": 40,
                "duration": 0.0818182,
                "tempo": 120.0
            },
            {
                "start_time": 8.6272727,
                "end_time": 8.7090909,
                "pitch": 46,
                "velocity": 40,
                "duration": 0.0818182,
                "tempo": 120.0
            },
            {
                "start_time": 8.725,
                "end_time": 8.8068182,
                "pitch": 39,
                "velocity": 40,
                "duration": 0.0818182,
                "tempo": 120.0
            },
            {
                "start_time": 8.825,
                "end_time": 9.2181818,
                "pitch": 39,
                "velocity": 40,
                "duration": 0.3931818,
                "tempo": 120.0
            },
            {
                "start_time": 9.2340909,
                "end_time": 9.6909091,
                "pitch": 39,
                "velocity": 40,
                "duration": 0.4568182,
                "tempo": 120.0
            },
            {
                "start_time": 9.7113636,
                "end_time": 9.8159091,
                "pitch": 44,
                "velocity": 40,
                "duration": 0.1045455,
                "tempo": 120.0
            },
            {
                "start_time": 9.8363636,
                "end_time": 9.9409091,
                "pitch": 44,
                "velocity": 40,
                "duration": 0.1045455,
                "tempo": 120.0
            },
            {
                "start_time": 9.9613636,
                "end_time": 10.0636364,
                "pitch": 44,
                "velocity": 40,
                "duration": 0.1022727,
                "tempo": 120.0
            },
            {
                "start_time": 10.0840909,
                "end_time": 10.3090909,
                "pitch": 44,
                "velocity": 40,
                "duration": 0.225,
                "tempo": 120.0
            },
            {
                "start_time": 10.3295455,
                "end_time": 10.4318182,
                "pitch": 44,
                "velocity": 40,
                "duration": 0.1022727,
                "tempo": 120.0
            },
            {
                "start_time": 10.4522727,
                "end_time": 10.5363636,
                "pitch": 44,
                "velocity": 40,
                "duration": 0.0840909,
                "tempo": 120.0
            },
            {
                "start_time": 10.5522727,
                "end_time": 10.6363636,
                "pitch": 44,
                "velocity": 40,
                "duration": 0.0840909,
                "tempo": 120.0
            },
            {
                "start_time": 10.6522727,
                "end_time": 10.7363636,
                "pitch": 44,
                "velocity": 40,
                "duration": 0.0840909,
                "tempo": 120.0
            },
            {
                "start_time": 10.7545455,
                "end_time": 10.8386364,
                "pitch": 44,
                "velocity": 40,
                "duration": 0.0840909,
                "tempo": 120.0
            },
            {
                "start_time": 10.8545455,
                "end_time": 10.9386364,
                "pitch": 44,
                "velocity": 40,
                "duration": 0.0840909,
                "tempo": 120.0
            },
            {
                "start_time": 10.9545455,
                "end_time": 11.1386364,
                "pitch": 44,
                "velocity": 40,
                "duration": 0.1840909,
                "tempo": 120.0
            },
            {
                "start_time": 11.1545455,
                "end_time": 11.2386364,
                "pitch": 44,
                "velocity": 40,
                "duration": 0.0840909,
                "tempo": 120.0
            },
            {
                "start_time": 11.2545455,
                "end_time": 11.3386364,
                "pitch": 44,
                "velocity": 40,
                "duration": 0.0840909,
                "tempo": 120.0
            },
            {
                "start_time": 11.3545455,
                "end_time": 11.4386364,
                "pitch": 44,
                "velocity": 40,
                "duration": 0.0840909,
                "tempo": 120.0
            },
            {
                "start_time": 11.4568182,
                "end_time": 11.5386364,
                "pitch": 44,
                "velocity": 40,
                "duration": 0.0818182,
                "tempo": 120.0
            },
            {
                "start_time": 11.5568182,
                "end_time": 11.6409091,
                "pitch": 44,
                "velocity": 40,
                "duration": 0.0840909,
                "tempo": 120.0
            },
            {
                "start_time": 11.6568182,
                "end_time": 11.7409091,
                "pitch": 44,
                "velocity": 40,
                "duration": 0.0840909,
                "tempo": 120.0
            },
            {
                "start_time": 11.7568182,
                "end_time": 11.9431818,
                "pitch": 44,
                "velocity": 40,
                "duration": 0.1863636,
                "tempo": 120.0
            },
            {
                "start_time": 11.9590909,
                "end_time": 12.0431818,
                "pitch": 44,
                "velocity": 40,
                "duration": 0.0840909,
                "tempo": 120.0
            },
            {
                "start_time": 12.0590909,
                "end_time": 12.1431818,
                "pitch": 44,
                "velocity": 40,
                "duration": 0.0840909,
                "tempo": 120.0
            },
            {
                "start_time": 12.1613636,
                "end_time": 12.2454545,
                "pitch": 44,
                "velocity": 40,
                "duration": 0.0840909,
                "tempo": 120.0
            },
            {
                "start_time": 12.2613636,
                "end_time": 12.3454545,
                "pitch": 44,
                "velocity": 40,
                "duration": 0.0840909,
                "tempo": 120.0
            },
            {
                "start_time": 12.3613636,
                "end_time": 12.4454545,
                "pitch": 44,
                "velocity": 40,
                "duration": 0.0840909,
                "tempo": 120.0
            },
            {
                "start_time": 12.4636364,
                "end_time": 12.55,
                "pitch": 44,
                "velocity": 40,
                "duration": 0.0863636,
                "tempo": 120.0
            },
            {
                "start_time": 12.5681818,
                "end_time": 12.7613636,
                "pitch": 44,
                "velocity": 40,
                "duration": 0.1931818,
                "tempo": 120.0
            },
            {
                "start_time": 12.7795455,
                "end_time": 12.8659091,
                "pitch": 44,
                "velocity": 40,
                "duration": 0.0863636,
                "tempo": 120.0
            },
            {
                "start_time": 12.8840909,
                "end_time": 12.9636364,
                "pitch": 44,
                "velocity": 40,
                "duration": 0.0795455,
                "tempo": 120.0
            },
            {
                "start_time": 12.9795455,
                "end_time": 13.0590909,
                "pitch": 44,
                "velocity": 40,
                "duration": 0.0795455,
                "tempo": 120.0
            },
            {
                "start_time": 13.075,
                "end_time": 13.1545455,
                "pitch": 43,
                "velocity": 40,
                "duration": 0.0795455,
                "tempo": 120.0
            },
            {
                "start_time": 13.1704545,
                "end_time": 13.25,
                "pitch": 43,
                "velocity": 40,
                "duration": 0.0795455,
                "tempo": 120.0
            },
            {
                "start_time": 13.2659091,
                "end_time": 13.35,
                "pitch": 43,
                "velocity": 40,
                "duration": 0.0840909,
                "tempo": 120.0
            },
            {
                "start_time": 13.3659091,
                "end_time": 13.5522727,
                "pitch": 43,
                "velocity": 40,
                "duration": 0.1863636,
                "tempo": 120.0
            },
            {
                "start_time": 13.5681818,
                "end_time": 13.6522727,
                "pitch": 43,
                "velocity": 40,
                "duration": 0.0840909,
                "tempo": 120.0
            },
            {
                "start_time": 13.6681818,
                "end_time": 13.7522727,
                "pitch": 43,
                "velocity": 40,
                "duration": 0.0840909,
                "tempo": 120.0
            },
            {
                "start_time": 13.7704545,
                "end_time": 13.8545455,
                "pitch": 43,
                "velocity": 40,
                "duration": 0.0840909,
                "tempo": 120.0
            },
            {
                "start_time": 13.8704545,
                "end_time": 13.9545455,
                "pitch": 43,
                "velocity": 40,
                "duration": 0.0840909,
                "tempo": 120.0
            },
            {
                "start_time": 13.9704545,
                "end_time": 14.0545455,
                "pitch": 43,
                "velocity": 40,
                "duration": 0.0840909,
                "tempo": 120.0
            },
            {
                "start_time": 14.0727273,
                "end_time": 14.1568182,
                "pitch": 43,
                "velocity": 40,
                "duration": 0.0840909,
                "tempo": 120.0
            },
            {
                "start_time": 14.175,
                "end_time": 14.3636364,
                "pitch": 43,
                "velocity": 40,
                "duration": 0.1886364,
                "tempo": 120.0
            },
            {
                "start_time": 14.3795455,
                "end_time": 14.4659091,
                "pitch": 43,
                "velocity": 40,
                "duration": 0.0863636,
                "tempo": 120.0
            },
            {
                "start_time": 14.4818182,
                "end_time": 14.5659091,
                "pitch": 43,
                "velocity": 40,
                "duration": 0.0840909,
                "tempo": 120.0
            },
            {
                "start_time": 14.5840909,
                "end_time": 14.6681818,
                "pitch": 43,
                "velocity": 40,
                "duration": 0.0840909,
                "tempo": 120.0
            },
            {
                "start_time": 14.6840909,
                "end_time": 14.7681818,
                "pitch": 43,
                "velocity": 40,
                "duration": 0.0840909,
                "tempo": 120.0
            },
            {
                "start_time": 14.7840909,
                "end_time": 14.8681818,
                "pitch": 43,
                "velocity": 40,
                "duration": 0.0840909,
                "tempo": 120.0
            },
            {
                "start_time": 14.8863636,
                "end_time": 14.9681818,
                "pitch": 43,
                "velocity": 40,
                "duration": 0.0818182,
                "tempo": 120.0
            },
            {
                "start_time": 14.9863636,
                "end_time": 15.1681818,
                "pitch": 43,
                "velocity": 40,
                "duration": 0.1818182,
                "tempo": 120.0
            },
            {
                "start_time": 15.1863636,
                "end_time": 15.2681818,
                "pitch": 43,
                "velocity": 40,
                "duration": 0.0818182,
                "tempo": 120.0
            },
            {
                "start_time": 15.2863636,
                "end_time": 15.3681818,
                "pitch": 43,
                "velocity": 40,
                "duration": 0.0818182,
                "tempo": 120.0
            },
            {
                "start_time": 15.3863636,
                "end_time": 15.4704545,
                "pitch": 43,
                "velocity": 40,
                "duration": 0.0840909,
                "tempo": 120.0
            },
            {
                "start_time": 15.4863636,
                "end_time": 15.5704545,
                "pitch": 43,
                "velocity": 40,
                "duration": 0.0840909,
                "tempo": 120.0
            },
            {
                "start_time": 15.5863636,
                "end_time": 15.6704545,
                "pitch": 43,
                "velocity": 40,
                "duration": 0.0840909,
                "tempo": 120.0
            },
            {
                "start_time": 15.6886364,
                "end_time": 15.7727273,
                "pitch": 43,
                "velocity": 40,
                "duration": 0.0840909,
                "tempo": 120.0
            },
            {
                "start_time": 15.7909091,
                "end_time": 15.9795455,
                "pitch": 43,
                "velocity": 40,
                "duration": 0.1886364,
                "tempo": 120.0
            },
            {
                "start_time": 15.9954545,
                "end_time": 16.0818182,
                "pitch": 43,
                "velocity": 40,
                "duration": 0.0863636,
                "tempo": 120.0
            },
            {
                "start_time": 16.0977273,
                "end_time": 16.1772727,
                "pitch": 43,
                "velocity": 40,
                "duration": 0.0795455,
                "tempo": 120.0
            },
            {
                "start_time": 16.1931818,
                "end_time": 16.2727273,
                "pitch": 43,
                "velocity": 40,
                "duration": 0.0795455,
                "tempo": 120.0
            },
            {
                "start_time": 16.2886364,
                "end_time": 16.3681818,
                "pitch": 41,
                "velocity": 40,
                "duration": 0.0795455,
                "tempo": 120.0
            },
            {
                "start_time": 16.3840909,
                "end_time": 16.4636364,
                "pitch": 41,
                "velocity": 40,
                "duration": 0.0795455,
                "tempo": 120.0
            },
            {
                "start_time": 16.4818182,
                "end_time": 16.5636364,
                "pitch": 41,
                "velocity": 40,
                "duration": 0.0818182,
                "tempo": 120.0
            },
            {
                "start_time": 16.5818182,
                "end_time": 16.7659091,
                "pitch": 41,
                "velocity": 40,
                "duration": 0.1840909,
                "tempo": 120.0
            },
            {
                "start_time": 16.7818182,
                "end_time": 16.8659091,
                "pitch": 41,
                "velocity": 40,
                "duration": 0.0840909,
                "tempo": 120.0
            },
            {
                "start_time": 16.8840909,
                "end_time": 16.9659091,
                "pitch": 41,
                "velocity": 40,
                "duration": 0.0818182,
                "tempo": 120.0
            },
            {
                "start_time": 16.9840909,
                "end_time": 17.0659091,
                "pitch": 41,
                "velocity": 40,
                "duration": 0.0818182,
                "tempo": 120.0
            },
            {
                "start_time": 17.0840909,
                "end_time": 17.1659091,
                "pitch": 43,
                "velocity": 40,
                "duration": 0.0818182,
                "tempo": 120.0
            },
            {
                "start_time": 17.1840909,
                "end_time": 17.2659091,
                "pitch": 43,
                "velocity": 40,
                "duration": 0.0818182,
                "tempo": 120.0
            },
            {
                "start_time": 17.2840909,
                "end_time": 17.3681818,
                "pitch": 43,
                "velocity": 40,
                "duration": 0.0840909,
                "tempo": 120.0
            },
            {
                "start_time": 17.3840909,
                "end_time": 17.5681818,
                "pitch": 43,
                "velocity": 40,
                "duration": 0.1840909,
                "tempo": 120.0
            },
            {
                "start_time": 17.5863636,
                "end_time": 17.6681818,
                "pitch": 43,
                "velocity": 40,
                "duration": 0.0818182,
                "tempo": 120.0
            },
            {
                "start_time": 17.6863636,
                "end_time": 17.7704545,
                "pitch": 43,
                "velocity": 40,
                "duration": 0.0840909,
                "tempo": 120.0
            },
            {
                "start_time": 17.7863636,
                "end_time": 17.8704545,
                "pitch": 43,
                "velocity": 40,
                "duration": 0.0840909,
                "tempo": 120.0
            },
            {
                "start_time": 17.8863636,
                "end_time": 17.9704545,
                "pitch": 44,
                "velocity": 40,
                "duration": 0.0840909,
                "tempo": 120.0
            },
            {
                "start_time": 17.9863636,
                "end_time": 18.0704545,
                "pitch": 44,
                "velocity": 40,
                "duration": 0.0840909,
                "tempo": 120.0
            },
            {
                "start_time": 18.0863636,
                "end_time": 18.1704545,
                "pitch": 44,
                "velocity": 40,
                "duration": 0.0840909,
                "tempo": 120.0
            },
            {
                "start_time": 18.1863636,
                "end_time": 18.3704545,
                "pitch": 44,
                "velocity": 40,
                "duration": 0.1840909,
                "tempo": 120.0
            },
            {
                "start_time": 18.3863636,
                "end_time": 18.4704545,
                "pitch": 44,
                "velocity": 40,
                "duration": 0.0840909,
                "tempo": 120.0
            },
            {
                "start_time": 18.4863636,
                "end_time": 18.5704545,
                "pitch": 44,
                "velocity": 40,
                "duration": 0.0840909,
                "tempo": 120.0
            },
            {
                "start_time": 18.5886364,
                "end_time": 18.675,
                "pitch": 44,
                "velocity": 40,
                "duration": 0.0863636,
                "tempo": 120.0
            },
            {
                "start_time": 18.6909091,
                "end_time": 18.8795455,
                "pitch": 46,
                "velocity": 40,
                "duration": 0.1886364,
                "tempo": 120.0
            },
            {
                "start_time": 18.8977273,
                "end_time": 19.0772727,
                "pitch": 48,
                "velocity": 40,
                "duration": 0.1795455,
                "tempo": 120.0
            },
            {
                "start_time": 19.0931818,
                "end_time": 19.4681818,
                "pitch": 50,
                "velocity": 40,
                "duration": 0.375,
                "tempo": 120.0
            }
        ],
        "Vibraphone": [
            {
                "start_time": 3.2045455,
                "end_time": 3.4886364,
                "pitch": 80,
                "velocity": 32,
                "duration": 0.2840909,
                "tempo": 120.0
            },
            {
                "start_time": 3.5045455,
                "end_time": 3.9977273,
                "pitch": 79,
                "velocity": 32,
                "duration": 0.4931818,
                "tempo": 120.0
            },
            {
                "start_time": 4.0159091,
                "end_time": 4.3,
                "pitch": 80,
                "velocity": 32,
                "duration": 0.2840909,
                "tempo": 120.0
            },
            {
                "start_time": 4.3159091,
                "end_time": 4.8022727,
                "pitch": 79,
                "velocity": 32,
                "duration": 0.4863636,
                "tempo": 120.0
            },
            {
                "start_time": 4.8181818,
                "end_time": 5.1045455,
                "pitch": 79,
                "velocity": 32,
                "duration": 0.2863636,
                "tempo": 120.0
            },
            {
                "start_time": 5.1204545,
                "end_time": 5.4045455,
                "pitch": 77,
                "velocity": 32,
                "duration": 0.2840909,
                "tempo": 120.0
            },
            {
                "start_time": 5.4204545,
                "end_time": 5.6045455,
                "pitch": 79,
                "velocity": 32,
                "duration": 0.1840909,
                "tempo": 120.0
            },
            {
                "start_time": 5.6204545,
                "end_time": 6.4068182,
                "pitch": 77,
                "velocity": 32,
                "duration": 0.7863636,
                "tempo": 120.0
            },
            {
                "start_time": 6.4227273,
                "end_time": 6.7090909,
                "pitch": 79,
                "velocity": 32,
                "duration": 0.2863636,
                "tempo": 120.0
            },
            {
                "start_time": 6.725,
                "end_time": 7.2113636,
                "pitch": 77,
                "velocity": 32,
                "duration": 0.4863636,
                "tempo": 120.0
            },
            {
                "start_time": 7.2295455,
                "end_time": 7.5136364,
                "pitch": 79,
                "velocity": 32,
                "duration": 0.2840909,
                "tempo": 120.0
            },
            {
                "start_time": 7.5295455,
                "end_time": 8.0159091,
                "pitch": 77,
                "velocity": 32,
                "duration": 0.4863636,
                "tempo": 120.0
            },
            {
                "start_time": 8.0318182,
                "end_time": 8.3159091,
                "pitch": 80,
                "velocity": 32,
                "duration": 0.2840909,
                "tempo": 120.0
            },
            {
                "start_time": 8.3318182,
                "end_time": 8.6113636,
                "pitch": 79,
                "velocity": 32,
                "duration": 0.2795455,
                "tempo": 120.0
            },
            {
                "start_time": 8.6272727,
                "end_time": 8.8068182,
                "pitch": 77,
                "velocity": 32,
                "duration": 0.1795455,
                "tempo": 120.0
            },
            {
                "start_time": 8.825,
                "end_time": 9.2181818,
                "pitch": 75,
                "velocity": 32,
                "duration": 0.3931818,
                "tempo": 120.0
            },
            {
                "start_time": 9.2340909,
                "end_time": 9.6909091,
                "pitch": 80,
                "velocity": 32,
                "duration": 0.4568182,
                "tempo": 120.0
            }
        ],
        "Trumpet": [
            {
                "start_time": 9.7113636,
                "end_time": 11.0386364,
                "pitch": 65,
                "velocity": 32,
                "duration": 1.3272727,
                "tempo": 120.0
            },
            {
                "start_time": 11.0545455,
                "end_time": 11.4386364,
                "pitch": 68,
                "velocity": 32,
                "duration": 0.3840909,
                "tempo": 120.0
            },
            {
                "start_time": 11.4568182,
                "end_time": 13.0590909,
                "pitch": 72,
                "velocity": 32,
                "duration": 1.6022727,
                "tempo": 120.0
            },
            {
                "start_time": 13.075,
                "end_time": 14.2590909,
                "pitch": 70,
                "velocity": 32,
                "duration": 1.1840909,
                "tempo": 120.0
            },
            {
                "start_time": 14.2772727,
                "end_time": 14.6681818,
                "pitch": 67,
                "velocity": 32,
                "duration": 0.3909091,
                "tempo": 120.0
            },
            {
                "start_time": 14.6840909,
                "end_time": 16.2727273,
                "pitch": 74,
                "velocity": 32,
                "duration": 1.5886364,
                "tempo": 120.0
            },
            {
                "start_time": 16.2886364,
                "end_time": 16.5636364,
                "pitch": 75,
                "velocity": 32,
                "duration": 0.275,
                "tempo": 120.0
            },
            {
                "start_time": 16.5818182,
                "end_time": 16.8659091,
                "pitch": 72,
                "velocity": 32,
                "duration": 0.2840909,
                "tempo": 120.0
            },
            {
                "start_time": 16.8840909,
                "end_time": 17.0659091,
                "pitch": 65,
                "velocity": 32,
                "duration": 0.1818182,
                "tempo": 120.0
            },
            {
                "start_time": 17.0840909,
                "end_time": 17.3681818,
                "pitch": 77,
                "velocity": 32,
                "duration": 0.2840909,
                "tempo": 120.0
            },
            {
                "start_time": 17.3840909,
                "end_time": 17.6681818,
                "pitch": 74,
                "velocity": 32,
                "duration": 0.2840909,
                "tempo": 120.0
            },
            {
                "start_time": 17.6863636,
                "end_time": 17.8704545,
                "pitch": 67,
                "velocity": 32,
                "duration": 0.1840909,
                "tempo": 120.0
            },
            {
                "start_time": 17.8863636,
                "end_time": 18.1704545,
                "pitch": 79,
                "velocity": 32,
                "duration": 0.2840909,
                "tempo": 120.0
            },
            {
                "start_time": 18.1863636,
                "end_time": 18.4704545,
                "pitch": 75,
                "velocity": 32,
                "duration": 0.2840909,
                "tempo": 120.0
            },
            {
                "start_time": 18.4863636,
                "end_time": 18.675,
                "pitch": 68,
                "velocity": 32,
                "duration": 0.1886364,
                "tempo": 120.0
            },
            {
                "start_time": 18.6909091,
                "end_time": 18.9772727,
                "pitch": 80,
                "velocity": 32,
                "duration": 0.2863636,
                "tempo": 120.0
            },
            {
                "start_time": 18.9954545,
                "end_time": 19.4681818,
                "pitch": 79,
                "velocity": 32,
                "duration": 0.4727273,
                "tempo": 120.0
            }
        ]
    }
}