{
    "mood": "happy",
    "instruments": {
        "Church Organ": [
            {
                "start_time": 0.0,
                "end_time": 0.05,
                "pitch": 62,
                "velocity": 80,
                "duration": 0.05,
                "tempo": 120.0
            },
            {
                "start_time": 0.6,
                "end_time": 1.8931818,
                "pitch": 65,
                "velocity": 80,
                "duration": 1.2931818,
                "tempo": 120.0
            },
            {
                "start_time": 1.9181818,
                "end_time": 1.9931818,
                "pitch": 62,
                "velocity": 80,
                "duration": 0.075,
                "tempo": 120.0
            },
            {
                "start_time": 2.8272727,
                "end_time": 4.2613636,
                "pitch": 65,
                "velocity": 80,
                "duration": 1.4340909,
                "tempo": 120.0
            },
            {
                "start_time": 4.9386364,
                "end_time": 5.5204545,
                "pitch": 67,
                "velocity": 80,
                "duration": 0.5818182,
                "tempo": 120.0
            },
            {
                "start_time": 5.5454545,
                "end_time": 6.1136364,
                "pitch": 67,
                "velocity": 80,
                "duration": 0.5681818,
                "tempo": 120.0
            },
            {
                "start_time": 6.1386364,
                "end_time": 6.4113636,
                "pitch": 67,
                "velocity": 80,
                "duration": 0.2727273,
                "tempo": 120.0
            },
            {
                "start_time": 6.4363636,
                "end_time": 7.0227273,
                "pitch": 67,
                "velocity": 80,
                "duration": 0.5863636,
                "tempo": 120.0
            },
            {
                "start_time": 7.0477273,
                "end_time": 7.3295455,
                "pitch": 62,
                "velocity": 80,
                "duration": 0.2818182,
                "tempo": 120.0
            },
            {
                "start_time": 7.3545455,
                "end_time": 7.6318182,
                "pitch": 62,
                "velocity": 80,
                "duration": 0.2772727,
                "tempo": 120.0
            },
            {
                "start_time": 9.1636364,
                "end_time": 9.1886364,
                "pitch": 62,
                "velocity": 80,
                "duration": 0.025,
                "tempo": 120.0
            },
            {
                "start_time": 10.0727273,
                "end_time": 11.5477273,
                "pitch": 65,
                "velocity": 80,
                "duration": 1.475,
                "tempo": 120.0
            },
            {
                "start_time": 11.5727273,
                "end_time": 11.5886364,
                "pitch": 62,
                "velocity": 80,
                "duration": 0.0159091,
                "tempo": 120.0
            },
            {
                "start_time": 12.1704545,
                "end_time": 13.0931818,
                "pitch": 65,
                "velocity": 80,
                "duration": 0.9227273,
                "tempo": 120.0
            },
            {
                "start_time": 13.5704545,
                "end_time": 13.9568182,
                "pitch": 60,
                "velocity": 80,
                "duration": 0.3863636,
                "tempo": 120.0
            },
            {
                "start_time": 13.9727273,
                "end_time": 14.3681818,
                "pitch": 60,
                "velocity": 80,
                "duration": 0.3954545,
                "tempo": 120.0
            },
            {
                "start_time": 14.3840909,
                "end_time": 14.5636364,
                "pitch": 60,
                "velocity": 80,
                "duration": 0.1795455,
                "tempo": 120.0
            },
            {
                "start_time": 14.5795455,
                "end_time": 14.9613636,
                "pitch": 62,
                "velocity": 80,
                "duration": 0.3818182,
                "tempo": 120.0
            },
            {
                "start_time": 14.9772727,
                "end_time": 15.1613636,
                "pitch": 62,
                "velocity": 80,
                "duration": 0.1840909,
                "tempo": 120.0
            },
            {
                "start_time": 15.1795455,
                "end_time": 15.2977273,
                "pitch": 62,
                "velocity": 80,
                "duration": 0.1181818,
                "tempo": 120.0
            },
            {
                "start_time": 16.3840909,
                "end_time": 16.4363636,
                "pitch": 62,
                "velocity": 80,
                "duration": 0.0522727,
                "tempo": 120.0
            },
            {
                "start_time": 16.9909091,
                "end_time": 17.9840909,
                "pitch": 65,
                "velocity": 80,
                "duration": 0.9931818,
                "tempo": 120.0
            },
            {
                "start_time": 18.0,
                "end_time": 18.0522727,
                "pitch": 62,
                "velocity": 80,
                "duration": 0.0522727,
                "tempo": 120.0
            },
            {
                "start_time": 18.6,
                "end_time": 19.5590909,
                "pitch": 65,
                "velocity": 80,
                "duration": 0.9590909,
                "tempo": 120.0
            },
            {
                "start_time": 20.0022727,
                "end_time": 20.3863636,
                "pitch": 67,
                "velocity": 80,
                "duration": 0.3840909,
                "tempo": 120.0
            },
            {
                "start_time": 20.4045455,
                "end_time": 20.7863636,
                "pitch": 67,
                "velocity": 80,
                "duration": 0.3818182,
                "tempo": 120.0
            },
            {
                "start_time": 20.8045455,
                "end_time": 20.9886364,
                "pitch": 67,
                "velocity": 80,
                "duration": 0.1840909,
                "tempo": 120.0
            },
            {
                "start_time": 21.0045455,
                "end_time": 21.3909091,
                "pitch": 67,
                "velocity": 80,
                "duration": 0.3863636,
                "tempo": 120.0
            },
            {
                "start_time": 21.4068182,
                "end_time": 21.5909091,
                "pitch": 62,
                "velocity": 80,
                "duration": 0.1840909,
                "tempo": 120.0
            },
            {
                "start_time": 21.6068182,
                "end_time": 21.7954545,
                "pitch": 62,
                "velocity": 80,
                "duration": 0.1886364,
                "tempo": 120.0
            },
            {
                "start_time": 22.8090909,
                "end_time": 22.8272727,
                "pitch": 62,
                "velocity": 80,
                "duration": 0.0181818,
                "tempo": 120.0
            },
            {
                "start_time": 23.4227273,
                "end_time": 24.4090909,
                "pitch": 65,
                "velocity": 80,
                "duration": 0.9863636,
                "tempo": 120.0
            },
            {
                "start_time": 24.4272727,
                "end_time": 24.4431818,
                "pitch": 62,
                "velocity": 80,
                "duration": 0.0159091,
                "tempo": 120.0
            },
            {
                "start_time": 25.025,
                "end_time": 25.9454545,
                "pitch": 65,
                "velocity": 80,
                "duration": 0.9204545,
                "tempo": 120.0
            },
            {
                "start_time": 26.4227273,
                "end_time": 26.8068182,
                "pitch": 60,
                "velocity": 80,
                "duration": 0.3840909,
                "tempo": 120.0
            },
            {
                "start_time": 26.8227273,
                "end_time": 27.2272727,
                "pitch": 60,
                "velocity": 80,
                "duration": 0.4045455,
                "tempo": 120.0
            },
            {
                "start_time": 27.2454545,
                "end_time": 27.425,
                "pitch": 60,
                "velocity": 80,
                "duration": 0.1795455,
                "tempo": 120.0
            },
            {
                "start_time": 27.4409091,
                "end_time": 27.8181818,
                "pitch": 62,
                "velocity": 80,
                "duration": 0.3772727,
                "tempo": 120.0
            },
            {
                "start_time": 27.8340909,
                "end_time": 28.0136364,
                "pitch": 62,
                "velocity": 80,
                "duration": 0.1795455,
                "tempo": 120.0
            },
            {
                "start_time": 28.0295455,
                "end_time": 28.625,
                "pitch": 62,
                "velocity": 80,
                "duration": 0.5954545,
                "tempo": 120.0
            },
            {
                "start_time": 28.6431818,
                "end_time": 28.8272727,
                "pitch": 62,
                "velocity": 80,
                "duration": 0.1840909,
                "tempo": 120.0
            },
            {
                "start_time": 28.8431818,
                "end_time": 29.0272727,
                "pitch": 62,
                "velocity": 80,
                "duration": 0.1840909,
                "tempo": 120.0
            },
            {
                "start_time": 29.0431818,
                "end_time": 29.2272727,
                "pitch": 62,
                "velocity": 80,
                "duration": 0.1840909,
                "tempo": 120.0
            },
            {
                "start_time": 29.2431818,
                "end_time": 30.8318182,
                "pitch": 64,
                "velocity": 80,
                "duration": 1.5886364,
                "tempo": 120.0
            },
            {
                "start_time": 30.85,
                "end_time": 31.0318182,
                "pitch": 65,
                "velocity": 80,
                "duration": 0.1818182,
                "tempo": 120.0
            },
            {
                "start_time": 31.05,
                "end_time": 31.4340909,
                "pitch": 64,
                "velocity": 80,
                "duration": 0.3840909,
                "tempo": 120.0
            },
            {
                "start_time": 31.45,
                "end_time": 33.2386364,
                "pitch": 64,
                "velocity": 80,
                "duration": 1.7886364,
                "tempo": 120.0
            },
            {
                "start_time": 33.2545455,
                "end_time": 34.0409091,
                "pitch": 65,
                "velocity": 80,
                "duration": 0.7863636,
                "tempo": 120.0
            },
            {
                "start_time": 34.0568182,
                "end_time": 35.6454545,
                "pitch": 65,
                "velocity": 80,
                "duration": 1.5886364,
                "tempo": 120.0
            },
            {
                "start_time": 35.6636364,
                "end_time": 37.2477273,
                "pitch": 62,
                "velocity": 80,
                "duration": 1.5840909,
                "tempo": 120.0
            },
            {
                "start_time": 37.2659091,
                "end_time": 37.8477273,
                "pitch": 62,
                "velocity": 80,
                "duration": 0.5818182,
                "tempo": 120.0
            },
            {
                "start_time": 37.8659091,
                "end_time": 39.05,
                "pitch": 62,
                "velocity": 80,
                "duration": 1.1840909,
                "tempo": 120.0
            },
            {
                "start_time": 39.0659091,
                "end_time": 39.25,
                "pitch": 60,
                "velocity": 80,
                "duration": 0.1840909,
                "tempo": 120.0
            },
            {
                "start_time": 39.2681818,
                "end_time": 39.6522727,
                "pitch": 60,
                "velocity": 80,
                "duration": 0.3840909,
                "tempo": 120.0
            },
            {
                "start_time": 39.6681818,
                "end_time": 40.0181818,
                "pitch": 60,
                "velocity": 80,
                "duration": 0.35,
                "tempo": 120.0
            },
            {
                "start_time": 40.0340909,
                "end_time": 40.2522727,
                "pitch": 60,
                "velocity": 80,
                "duration": 0.2181818,
                "tempo": 120.0
            },
            {
                "start_time": 40.2681818,
                "end_time": 40.6522727,
                "pitch": 62,
                "velocity": 80,
                "duration": 0.3840909,
                "tempo": 120.0
            },
            {
                "start_time": 40.6681818,
                "end_time": 40.8181818,
                "pitch": 62,
                "velocity": 80,
                "duration": 0.15,
                "tempo": 120.0
            },
            {
                "start_time": 40.8340909,
                "end_time": 41.2204545,
                "pitch": 62,
                "velocity": 80,
                "duration": 0.3863636,
                "tempo": 120.0
            },
            {
                "start_time": 41.2363636,
                "end_time": 41.6545455,
                "pitch": 64,
                "velocity": 80,
                "duration": 0.4181818,
                "tempo": 120.0
            },
            {
                "start_time": 41.6704545,
                "end_time": 42.0545455,
                "pitch": 64,
                "velocity": 80,
                "duration": 0.3840909,
                "tempo": 120.0
            }
        ],
        "Trumpet": [
            {
                "start_time": 29.2431818,
                "end_time": 30.8318182,
                "pitch": 71,
                "velocity": 64,
                "duration": 1.5886364,
                "tempo": 120.0
            },
            {
                "start_time": 30.85,
                "end_time": 31.0318182,
                "pitch": 72,
                "velocity": 64,
                "duration": 0.1818182,
                "tempo": 120.0
            },
            {
                "start_time": 31.05,
                "end_time": 31.4340909,
                "pitch": 71,
                "velocity": 64,
                "duration": 0.3840909,
                "tempo": 120.0
            },
            {
                "start_time": 31.45,
                "end_time": 33.2386364,
                "pitch": 71,
                "velocity": 64,
                "duration": 1.7886364,
                "tempo": 120.0
            },
            {
                "start_time": 33.2545455,
                "end_time": 34.0409091,
                "pitch": 72,
                "velocity": 64,
                "duration": 0.7863636,
                "tempo": 120.0
            },
            {
                "start_time": 34.0568182,
                "end_time": 35.6454545,
                "pitch": 72,
                "velocity": 64,
                "duration": 1.5886364,
                "tempo": 120.0
            },
            {
                "start_time": 35.6636364,
                "end_time": 37.2477273,
                "pitch": 69,
                "velocity": 64,
                "duration": 1.5840909,
                "tempo": 120.0
            },
            {
                "start_time": 37.2659091,
                "end_time": 37.8477273,
                "pitch": 71,
                "velocity": 64,
                "duration": 0.5818182,
                "tempo": 120.0
            },
            {
                "start_time": 37.8659091,
                "end_time": 39.05,
                "pitch": 71,
                "velocity": 64,
                "duration": 1.1840909,
                "tempo": 120.0
            },
            {
                "start_time": 39.0659091,
                "end_time": 39.25,
                "pitch": 67,
                "velocity": 64,
                "duration": 0.1840909,
                "tempo": 120.0
            },
            {
                "start_time": 39.2681818,
                "end_time": 39.6522727,
                "pitch": 67,
                "velocity": 64,
                "duration": 0.3840909,
                "tempo": 120.0
            },
            {
                "start_time": 39.6681818,
                "end_time": 40.0522727,
                "pitch": 67,
                "velocity": 64,
                "duration": 0.3840909,
                "tempo": 120.0
            },
            {
                "start_time": 40.0681818,
                "end_time": 40.2522727,
                "pitch": 67,
                "velocity": 64,
                "duration": 0.1840909,
                "tempo": 120.0
            },
            {
                "start_time": 40.2681818,
                "end_time": 40.6522727,
                "pitch": 69,
                "velocity": 64,
                "duration": 0.3840909,
                "tempo": 120.0
            },
            {
                "start_time": 40.6681818,
                "end_time": 40.8181818,
                "pitch": 69,
                "velocity": 64,
                "duration": 0.15,
                "tempo": 120.0
            },
            {
                "start_time": 40.8340909,
                "end_time": 41.2545455,
                "pitch": 69,
                "velocity": 64,
                "duration": 0.4204545,
                "tempo": 120.0
            },
            {
                "start_time": 41.2704545,
                "end_time": 41.6545455,
                "pitch": 71,
                "velocity": 64,
                "duration": 0.3840909,
                "tempo": 120.0
            },
            {
                "start_time": 41.6704545,
                "end_time": 42.0545455,
                "pitch": 71,
                "velocity": 64,
                "duration": 0.3840909,
                "tempo": 120.0
            }
        ],
        "Electric Guitar (clean)": [
            {
                "start_time": 0.0,
                "end_time": 0.2840909,
                "pitch": 38,
                "velocity": 51,
                "duration": 0.2840909,
                "tempo": 120.0
            },
            {
                "start_time": 0.3,
                "end_time": 0.5840909,
                "pitch": 38,
                "velocity": 51,
                "duration": 0.2840909,
                "tempo": 120.0
            },
            {
                "start_time": 0.6,
                "end_time": 0.9840909,
                "pitch": 38,
                "velocity": 51,
                "duration": 0.3840909,
                "tempo": 120.0
            },
            {
                "start_time": 1.0,
                "end_time": 1.2795455,
                "pitch": 38,
                "velocity": 51,
                "duration": 0.2795455,
                "tempo": 120.0
            },
            {
                "start_time": 1.3068182,
                "end_time": 1.5863636,
                "pitch": 38,
                "velocity": 51,
                "duration": 0.2795455,
                "tempo": 120.0
            },
            {
                "start_time": 1.6113636,
                "end_time": 1.8931818,
                "pitch": 38,
                "velocity": 51,
                "duration": 0.2818182,
                "tempo": 120.0
            },
            {
                "start_time": 1.9181818,
                "end_time": 2.3477273,
                "pitch": 38,
                "velocity": 51,
                "duration": 0.4295455,
                "tempo": 120.0
            },
            {
                "start_time": 2.3727273,
                "end_time": 2.8022727,
                "pitch": 38,
                "velocity": 51,
                "duration": 0.4295455,
                "tempo": 120.0
            },
            {
                "start_time": 2.8272727,
                "end_time": 3.4090909,
                "pitch": 38,
                "velocity": 51,
                "duration": 0.5818182,
                "tempo": 120.0
            },
            {
                "start_time": 3.4340909,
                "end_time": 3.7113636,
                "pitch": 38,
                "velocity": 51,
                "duration": 0.2772727,
                "tempo": 120.0
            },
            {
                "start_time": 3.7363636,
                "end_time": 4.0113636,
                "pitch": 38,
                "velocity": 51,
                "duration": 0.275,
                "tempo": 120.0
            },
            {
                "start_time": 4.0363636,
                "end_time": 4.6113636,
                "pitch": 38,
                "velocity": 51,
                "duration": 0.575,
                "tempo": 120.0
            },
            {
                "start_time": 4.9386364,
                "end_time": 5.2181818,
                "pitch": 38,
                "velocity": 51,
                "duration": 0.2795455,
                "tempo": 120.0
            },
            {
                "start_time": 5.2431818,
                "end_time": 5.5204545,
                "pitch": 50,
                "velocity": 51,
                "duration": 0.2772727,
                "tempo": 120.0
            },
            {
                "start_time": 5.5454545,
                "end_time": 5.8181818,
                "pitch": 50,
                "velocity": 51,
                "duration": 0.2727273,
                "tempo": 120.0
            },
            {
                "start_time": 5.8431818,
                "end_time": 6.1136364,
                "pitch": 38,
                "velocity": 51,
                "duration": 0.2704545,
                "tempo": 120.0
            },
            {
                "start_time": 6.1386364,
                "end_time": 6.4113636,
                "pitch": 38,
                "velocity": 51,
                "duration": 0.2727273,
                "tempo": 120.0
            },
            {
                "start_time": 6.4363636,
                "end_time": 6.8704545,
                "pitch": 38,
                "velocity": 51,
                "duration": 0.4340909,
                "tempo": 120.0
            },
            {
                "start_time": 6.8954545,
                "end_time": 7.3295455,
                "pitch": 38,
                "velocity": 51,
                "duration": 0.4340909,
                "tempo": 120.0
            },
            {
                "start_time": 7.3545455,
                "end_time": 8.2386364,
                "pitch": 38,
                "velocity": 51,
                "duration": 0.8840909,
                "tempo": 120.0
            },
            {
                "start_time": 8.2636364,
                "end_time": 8.5386364,
                "pitch": 36,
                "velocity": 51,
                "duration": 0.275,
                "tempo": 120.0
            },
            {
                "start_time": 8.5636364,
                "end_time": 8.8386364,
                "pitch": 36,
                "velocity": 51,
                "duration": 0.275,
                "tempo": 120.0
            },
            {
                "start_time": 8.8636364,
                "end_time": 9.1386364,
                "pitch": 36,
                "velocity": 51,
                "duration": 0.275,
                "tempo": 120.0
            },
            {
                "start_time": 9.1636364,
                "end_time": 9.5931818,
                "pitch": 38,
                "velocity": 51,
                "duration": 0.4295455,
                "tempo": 120.0
            },
            {
                "start_time": 9.6181818,
                "end_time": 10.0477273,
                "pitch": 38,
                "velocity": 51,
                "duration": 0.4295455,
                "tempo": 120.0
            },
            {
                "start_time": 10.0727273,
                "end_time": 10.6477273,
                "pitch": 38,
                "velocity": 51,
                "duration": 0.575,
                "tempo": 120.0
            },
            {
                "start_time": 10.6727273,
                "end_time": 10.9477273,
                "pitch": 38,
                "velocity": 51,
                "duration": 0.275,
                "tempo": 120.0
            },
            {
                "start_time": 10.9727273,
                "end_time": 11.2477273,
                "pitch": 38,
                "velocity": 51,
                "duration": 0.275,
                "tempo": 120.0
            },
            {
                "start_time": 11.2727273,
                "end_time": 11.5477273,
                "pitch": 38,
                "velocity": 51,
                "duration": 0.275,
                "tempo": 120.0
            },
            {
                "start_time": 11.5727273,
                "end_time": 11.8590909,
                "pitch": 38,
                "velocity": 51,
                "duration": 0.2863636,
                "tempo": 120.0
            },
            {
                "start_time": 11.875,
                "end_time": 12.1545455,
                "pitch": 38,
                "velocity": 51,
                "duration": 0.2795455,
                "tempo": 120.0
            },
            {
                "start_time": 12.1704545,
                "end_time": 12.55,
                "pitch": 38,
                "velocity": 51,
                "duration": 0.3795455,
                "tempo": 120.0
            },
            {
                "start_time": 12.5681818,
                "end_time": 12.65,
                "pitch": 38,
                "velocity": 51,
                "duration": 0.0818182,
                "tempo": 120.0
            },
            {
                "start_time": 12.6681818,
                "end_time": 12.8522727,
                "pitch": 38,
                "velocity": 51,
                "duration": 0.1840909,
                "tempo": 120.0
            },
            {
                "start_time": 12.8704545,
                "end_time": 13.2590909,
                "pitch": 38,
                "velocity": 51,
                "duration": 0.3886364,
                "tempo": 120.0
            },
            {
                "start_time": 13.5704545,
                "end_time": 13.9568182,
                "pitch": 36,
                "velocity": 51,
                "duration": 0.3863636,
                "tempo": 120.0
            },
            {
                "start_time": 13.9727273,
                "end_time": 14.3681818,
                "pitch": 36,
                "velocity": 51,
                "duration": 0.3954545,
                "tempo": 120.0
            },
            {
                "start_time": 14.3840909,
                "end_time": 14.5636364,
                "pitch": 36,
                "velocity": 51,
                "duration": 0.1795455,
                "tempo": 120.0
            },
            {
                "start_time": 14.5795455,
                "end_time": 14.9613636,
                "pitch": 38,
                "velocity": 51,
                "duration": 0.3818182,
                "tempo": 120.0
            },
            {
                "start_time": 14.9772727,
                "end_time": 15.1613636,
                "pitch": 38,
                "velocity": 51,
                "duration": 0.1840909,
                "tempo": 120.0
            },
            {
                "start_time": 15.1795455,
                "end_time": 15.775,
                "pitch": 38,
                "velocity": 51,
                "duration": 0.5954545,
                "tempo": 120.0
            },
            {
                "start_time": 15.7909091,
                "end_time": 15.975,
                "pitch": 36,
                "velocity": 51,
                "duration": 0.1840909,
                "tempo": 120.0
            },
            {
                "start_time": 15.9931818,
                "end_time": 16.1727273,
                "pitch": 36,
                "velocity": 51,
                "duration": 0.1795455,
                "tempo": 120.0
            },
            {
                "start_time": 16.1886364,
                "end_time": 16.3681818,
                "pitch": 36,
                "velocity": 51,
                "duration": 0.1795455,
                "tempo": 120.0
            },
            {
                "start_time": 16.3840909,
                "end_time": 16.675,
                "pitch": 38,
                "velocity": 51,
                "duration": 0.2909091,
                "tempo": 120.0
            },
            {
                "start_time": 16.6931818,
                "end_time": 16.975,
                "pitch": 38,
                "velocity": 51,
                "duration": 0.2818182,
                "tempo": 120.0
            },
            {
                "start_time": 16.9909091,
                "end_time": 17.3727273,
                "pitch": 38,
                "velocity": 51,
                "duration": 0.3818182,
                "tempo": 120.0
            },
            {
                "start_time": 17.3886364,
                "end_time": 17.5727273,
                "pitch": 38,
                "velocity": 51,
                "duration": 0.1840909,
                "tempo": 120.0
            },
            {
                "start_time": 17.5909091,
                "end_time": 17.7795455,
                "pitch": 38,
                "velocity": 51,
                "duration": 0.1886364,
                "tempo": 120.0
            },
            {
                "start_time": 17.7954545,
                "end_time": 17.9840909,
                "pitch": 38,
                "velocity": 51,
                "duration": 0.1886364,
                "tempo": 120.0
            },
            {
                "start_time": 18.0,
                "end_time": 18.2863636,
                "pitch": 38,
                "velocity": 51,
                "duration": 0.2863636,
                "tempo": 120.0
            },
            {
                "start_time": 18.3022727,
                "end_time": 18.5840909,
                "pitch": 38,
                "velocity": 51,
                "duration": 0.2818182,
                "tempo": 120.0
            },
            {
                "start_time": 18.6,
                "end_time": 18.9795455,
                "pitch": 38,
                "velocity": 51,
                "duration": 0.3795455,
                "tempo": 120.0
            },
            {
                "start_time": 18.9977273,
                "end_time": 19.1818182,
                "pitch": 38,
                "velocity": 51,
                "duration": 0.1840909,
                "tempo": 120.0
            },
            {
                "start_time": 19.1977273,
                "end_time": 19.3863636,
                "pitch": 38,
                "velocity": 51,
                "duration": 0.1886364,
                "tempo": 120.0
            },
            {
                "start_time": 19.4045455,
                "end_time": 19.7886364,
                "pitch": 38,
                "velocity": 51,
                "duration": 0.3840909,
                "tempo": 120.0
            },
            {
                "start_time": 20.0022727,
                "end_time": 20.1863636,
                "pitch": 38,
                "velocity": 51,
                "duration": 0.1840909,
                "tempo": 120.0
            },
            {
                "start_time": 20.2022727,
                "end_time": 20.3863636,
                "pitch": 50,
                "velocity": 51,
                "duration": 0.1840909,
                "tempo": 120.0
            },
            {
                "start_time": 20.4045455,
                "end_time": 20.5863636,
                "pitch": 50,
                "velocity": 51,
                "duration": 0.1818182,
                "tempo": 120.0
            },
            {
                "start_time": 20.6045455,
                "end_time": 20.7863636,
                "pitch": 38,
                "velocity": 51,
                "duration": 0.1818182,
                "tempo": 120.0
            },
            {
                "start_time": 20.8045455,
                "end_time": 20.9886364,
                "pitch": 38,
                "velocity": 51,
                "duration": 0.1840909,
                "tempo": 120.0
            },
            {
                "start_time": 21.0045455,
                "end_time": 21.2909091,
                "pitch": 38,
                "velocity": 51,
                "duration": 0.2863636,
                "tempo": 120.0
            },
            {
                "start_time": 21.3068182,
                "end_time": 21.5909091,
                "pitch": 38,
                "velocity": 51,
                "duration": 0.2840909,
                "tempo": 120.0
            },
            {
                "start_time": 21.6068182,
                "end_time": 22.2,
                "pitch": 38,
                "velocity": 51,
                "duration": 0.5931818,
                "tempo": 120.0
            },
            {
                "start_time": 22.2181818,
                "end_time": 22.4,
                "pitch": 36,
                "velocity": 51,
                "duration": 0.1818182,
                "tempo": 120.0
            },
            {
                "start_time": 22.4181818,
                "end_time": 22.5977273,
                "pitch": 36,
                "velocity": 51,
                "duration": 0.1795455,
                "tempo": 120.0
            },
            {
                "start_time": 22.6136364,
                "end_time": 22.7931818,
                "pitch": 36,
                "velocity": 51,
                "duration": 0.1795455,
                "tempo": 120.0
            },
            {
                "start_time": 22.8090909,
                "end_time": 23.1,
                "pitch": 38,
                "velocity": 51,
                "duration": 0.2909091,
                "tempo": 120.0
            },
            {
                "start_time": 23.1181818,
                "end_time": 23.4045455,
                "pitch": 38,
                "velocity": 51,
                "duration": 0.2863636,
                "tempo": 120.0
            },
            {
                "start_time": 23.4227273,
                "end_time": 23.8022727,
                "pitch": 38,
                "velocity": 51,
                "duration": 0.3795455,
                "tempo": 120.0
            },
            {
                "start_time": 23.8181818,
                "end_time": 24.0,
                "pitch": 38,
                "velocity": 51,
                "duration": 0.1818182,
                "tempo": 120.0
            },
            {
                "start_time": 24.0159091,
                "end_time": 24.2045455,
                "pitch": 38,
                "velocity": 51,
                "duration": 0.1886364,
                "tempo": 120.0
            },
            {
                "start_time": 24.2204545,
                "end_time": 24.4090909,
                "pitch": 38,
                "velocity": 51,
                "duration": 0.1886364,
                "tempo": 120.0
            },
            {
                "start_time": 24.4272727,
                "end_time": 24.7113636,
                "pitch": 38,
                "velocity": 51,
                "duration": 0.2840909,
                "tempo": 120.0
            },
            {
                "start_time": 24.7272727,
                "end_time": 25.0090909,
                "pitch": 38,
                "velocity": 51,
                "duration": 0.2818182,
                "tempo": 120.0
            },
            {
                "start_time": 25.025,
                "end_time": 25.4045455,
                "pitch": 38,
                "velocity": 51,
                "duration": 0.3795455,
                "tempo": 120.0
            },
            {
                "start_time": 25.4204545,
                "end_time": 25.5045455,
                "pitch": 38,
                "velocity": 51,
                "duration": 0.0840909,
                "tempo": 120.0
            },
            {
                "start_time": 25.5204545,
                "end_time": 25.7068182,
                "pitch": 38,
                "velocity": 51,
                "duration": 0.1863636,
                "tempo": 120.0
            },
            {
                "start_time": 25.7227273,
                "end_time": 26.1136364,
                "pitch": 38,
                "velocity": 51,
                "duration": 0.3909091,
                "tempo": 120.0
            },
            {
                "start_time": 26.4227273,
                "end_time": 26.8068182,
                "pitch": 36,
                "velocity": 51,
                "duration": 0.3840909,
                "tempo": 120.0
            },
            {
                "start_time": 26.8227273,
                "end_time": 27.2272727,
                "pitch": 36,
                "velocity": 51,
                "duration": 0.4045455,
                "tempo": 120.0
            },
            {
                "start_time": 27.2454545,
                "end_time": 27.425,
                "pitch": 36,
                "velocity": 51,
                "duration": 0.1795455,
                "tempo": 120.0
            },
            {
                "start_time": 27.4409091,
                "end_time": 27.8181818,
                "pitch": 38,
                "velocity": 51,
                "duration": 0.3772727,
                "tempo": 120.0
            },
            {
                "start_time": 27.8340909,
                "end_time": 28.0136364,
                "pitch": 38,
                "velocity": 51,
                "duration": 0.1795455,
                "tempo": 120.0
            },
            {
                "start_time": 28.0295455,
                "end_time": 28.625,
                "pitch": 38,
                "velocity": 51,
                "duration": 0.5954545,
                "tempo": 120.0
            },
            {
                "start_time": 28.6431818,
                "end_time": 28.8272727,
                "pitch": 38,
                "velocity": 51,
                "duration": 0.1840909,
                "tempo": 120.0
            },
            {
                "start_time": 28.8431818,
                "end_time": 29.0272727,
                "pitch": 38,
                "velocity": 51,
                "duration": 0.1840909,
                "tempo": 120.0
            },
            {
                "start_time": 29.0431818,
                "end_time": 29.2272727,
                "pitch": 38,
                "velocity": 51,
                "duration": 0.1840909,
                "tempo": 120.0
            },
            {
                "start_time": 29.2431818,
                "end_time": 29.4272727,
                "pitch": 40,
                "velocity": 51,
                "duration": 0.1840909,
                "tempo": 120.0
            },
            {
                "start_time": 29.4454545,
                "end_time": 29.5295455,
                "pitch": 40,
                "velocity": 51,
                "duration": 0.0840909,
                "tempo": 120.0
            },
            {
                "start_time": 29.5454545,
                "end_time": 29.6295455,
                "pitch": 40,
                "velocity": 51,
                "duration": 0.0840909,
                "tempo": 120.0
            },
            {
                "start_time": 29.6454545,
                "end_time": 29.8295455,
                "pitch": 40,
                "velocity": 51,
                "duration": 0.1840909,
                "tempo": 120.0
            },
            {
                "start_time": 29.8454545,
                "end_time": 29.9295455,
                "pitch": 40,
                "velocity": 51,
                "duration": 0.0840909,
                "tempo": 120.0
            },
            {
                "start_time": 29.9454545,
                "end_time": 30.0295455,
                "pitch": 40,
                "velocity": 51,
                "duration": 0.0840909,
                "tempo": 120.0
            },
            {
                "start_time": 30.0454545,
                "end_time": 30.2295455,
                "pitch": 40,
                "velocity": 51,
                "duration": 0.1840909,
                "tempo": 120.0
            },
            {
                "start_time": 30.2454545,
                "end_time": 30.3295455,
                "pitch": 40,
                "velocity": 51,
                "duration": 0.0840909,
                "tempo": 120.0
            },
            {
                "start_time": 30.3454545,
                "end_time": 30.4295455,
                "pitch": 40,
                "velocity": 51,
                "duration": 0.0840909,
                "tempo": 120.0
            },
            {
                "start_time": 30.4454545,
                "end_time": 30.6318182,
                "pitch": 40,
                "velocity": 51,
                "duration": 0.1863636,
                "tempo": 120.0
            },
            {
                "start_time": 30.6477273,
                "end_time": 30.7318182,
                "pitch": 40,
                "velocity": 51,
                "duration": 0.0840909,
                "tempo": 120.0
            },
            {
                "start_time": 30.7477273,
                "end_time": 30.8318182,
                "pitch": 40,
                "velocity": 51,
                "duration": 0.0840909,
                "tempo": 120.0
            },
            {
                "start_time": 30.85,
                "end_time": 31.0318182,
                "pitch": 40,
                "velocity": 51,
                "duration": 0.1818182,
                "tempo": 120.0
            },
            {
                "start_time": 31.05,
                "end_time": 31.1318182,
                "pitch": 40,
                "velocity": 51,
                "duration": 0.0818182,
                "tempo": 120.0
            },
            {
                "start_time": 31.15,
                "end_time": 31.2318182,
                "pitch": 40,
                "velocity": 51,
                "duration": 0.0818182,
                "tempo": 120.0
            },
            {
                "start_time": 31.25,
                "end_time": 31.4340909,
                "pitch": 40,
                "velocity": 51,
                "duration": 0.1840909,
                "tempo": 120.0
            },
            {
                "start_time": 31.45,
                "end_time": 31.5340909,
                "pitch": 40,
                "velocity": 51,
                "duration": 0.0840909,
                "tempo": 120.0
            },
            {
                "start_time": 31.55,
                "end_time": 31.6340909,
                "pitch": 40,
                "velocity": 51,
                "duration": 0.0840909,
                "tempo": 120.0
            },
            {
                "start_time": 31.6522727,
                "end_time": 31.8340909,
                "pitch": 40,
                "velocity": 51,
                "duration": 0.1818182,
                "tempo": 120.0
            },
            {
                "start_time": 31.8522727,
                "end_time": 32.0340909,
                "pitch": 40,
                "velocity": 51,
                "duration": 0.1818182,
                "tempo": 120.0
            },
            {
                "start_time": 32.0522727,
                "end_time": 32.2340909,
                "pitch": 40,
                "velocity": 51,
                "duration": 0.1818182,
                "tempo": 120.0
            },
            {
                "start_time": 32.2522727,
                "end_time": 32.4340909,
                "pitch": 40,
                "velocity": 51,
                "duration": 0.1818182,
                "tempo": 120.0
            },
            {
                "start_time": 32.4522727,
                "end_time": 32.6363636,
                "pitch": 41,
                "velocity": 51,
                "duration": 0.1840909,
                "tempo": 120.0
            },
            {
                "start_time": 32.6522727,
                "end_time": 32.7363636,
                "pitch": 41,
                "velocity": 51,
                "duration": 0.0840909,
                "tempo": 120.0
            },
            {
                "start_time": 32.7545455,
                "end_time": 32.8386364,
                "pitch": 41,
                "velocity": 51,
                "duration": 0.0840909,
                "tempo": 120.0
            },
            {
                "start_time": 32.8545455,
                "end_time": 33.0386364,
                "pitch": 41,
                "velocity": 51,
                "duration": 0.1840909,
                "tempo": 120.0
            },
            {
                "start_time": 33.0545455,
                "end_time": 33.1386364,
                "pitch": 41,
                "velocity": 51,
                "duration": 0.0840909,
                "tempo": 120.0
            },
            {
                "start_time": 33.1545455,
                "end_time": 33.2386364,
                "pitch": 41,
                "velocity": 51,
                "duration": 0.0840909,
                "tempo": 120.0
            },
            {
                "start_time": 33.2545455,
                "end_time": 33.4386364,
                "pitch": 41,
                "velocity": 51,
                "duration": 0.1840909,
                "tempo": 120.0
            },
            {
                "start_time": 33.4568182,
                "end_time": 33.5386364,
                "pitch": 41,
                "velocity": 51,
                "duration": 0.0818182,
                "tempo": 120.0
            },
            {
                "start_time": 33.5568182,
                "end_time": 33.6409091,
                "pitch": 41,
                "velocity": 51,
                "duration": 0.0840909,
                "tempo": 120.0
            },
            {
                "start_time": 33.6568182,
                "end_time": 33.8409091,
                "pitch": 41,
                "velocity": 51,
                "duration": 0.1840909,
                "tempo": 120.0
            },
            {
                "start_time": 33.8568182,
                "end_time": 33.9409091,
                "pitch": 41,
                "velocity": 51,
                "duration": 0.0840909,
                "tempo": 120.0
            },
            {
                "start_time": 33.9568182,
                "end_time": 34.0409091,
                "pitch": 41,
                "velocity": 51,
                "duration": 0.0840909,
                "tempo": 120.0
            },
            {
                "start_time": 34.0568182,
                "end_time": 34.2409091,
                "pitch": 41,
                "velocity": 51,
                "duration": 0.1840909,
                "tempo": 120.0
            },
            {
                "start_time": 34.2568182,
                "end_time": 34.3409091,
                "pitch": 41,
                "velocity": 51,
                "duration": 0.0840909,
                "tempo": 120.0
            },
            {
                "start_time": 34.3568182,
                "end_time": 34.4409091,
                "pitch": 41,
                "velocity": 51,
                "duration": 0.0840909,
                "tempo": 120.0
            },
            {
                "start_time": 34.4568182,
                "end_time": 34.6409091,
                "pitch": 41,
                "velocity": 51,
                "duration": 0.1840909,
                "tempo": 120.0
            },
            {
                "start_time": 34.6590909,
                "end_time": 34.8431818,
                "pitch": 41,
                "velocity": 51,
                "duration": 0.1840909,
                "tempo": 120.0
            },
            {
                "start_time": 34.8590909,
                "end_time": 35.0431818,
                "pitch": 41,
                "velocity": 51,
                "duration": 0.1840909,
                "tempo": 120.0
            },
            {
                "start_time": 35.0590909,
                "end_time": 35.2431818,
                "pitch": 45,
                "velocity": 51,
                "duration": 0.1840909,
                "tempo": 120.0
            },
            {
                "start_time": 35.2590909,
                "end_time": 35.4454545,
                "pitch": 43,
                "velocity": 51,
                "duration": 0.1863636,
                "tempo": 120.0
            },
            {
                "start_time": 35.4613636,
                "end_time": 35.6454545,
                "pitch": 41,
                "velocity": 51,
                "duration": 0.1840909,
                "tempo": 120.0
            },
            {
                "start_time": 35.6636364,
                "end_time": 35.8454545,
                "pitch": 40,
                "velocity": 51,
                "duration": 0.1818182,
                "tempo": 120.0
            },
            {
                "start_time": 35.8636364,
                "end_time": 35.9454545,
                "pitch": 40,
                "velocity": 51,
                "duration": 0.0818182,
                "tempo": 120.0
            },
            {
                "start_time": 35.9636364,
                "end_time": 36.0454545,
                "pitch": 40,
                "velocity": 51,
                "duration": 0.0818182,
                "tempo": 120.0
            },
            {
                "start_time": 36.0636364,
                "end_time": 36.2454545,
                "pitch": 40,
                "velocity": 51,
                "duration": 0.1818182,
                "tempo": 120.0
            },
            {
                "start_time": 36.2636364,
                "end_time": 36.3454545,
                "pitch": 40,
                "velocity": 51,
                "duration": 0.0818182,
                "tempo": 120.0
            },
            {
                "start_time": 36.3636364,
                "end_time": 36.4454545,
                "pitch": 40,
                "velocity": 51,
                "duration": 0.0818182,
                "tempo": 120.0
            },
            {
                "start_time": 36.4636364,
                "end_time": 36.6454545,
                "pitch": 40,
                "velocity": 51,
                "duration": 0.1818182,
                "tempo": 120.0
            },
            {
                "start_time": 36.6636364,
                "end_time": 36.7454545,
                "pitch": 40,
                "velocity": 51,
                "duration": 0.0818182,
                "tempo": 120.0
            },
            {
                "start_time": 36.7636364,
                "end_time": 36.8454545,
                "pitch": 40,
                "velocity": 51,
                "duration": 0.0818182,
                "tempo": 120.0
            },
            {
                "start_time": 36.8636364,
                "end_time": 37.0477273,
                "pitch": 40,
                "velocity": 51,
                "duration": 0.1840909,
                "tempo": 120.0
            },
            {
                "start_time": 37.0636364,
                "end_time": 37.1477273,
                "pitch": 40,
                "velocity": 51,
                "duration": 0.0840909,
                "tempo": 120.0
            },
            {
                "start_time": 37.1636364,
                "end_time": 37.2477273,
                "pitch": 40,
                "velocity": 51,
                "duration": 0.0840909,
                "tempo": 120.0
            },
            {
                "start_time": 37.2659091,
                "end_time": 37.4477273,
                "pitch": 40,
                "velocity": 51,
                "duration": 0.1818182,
                "tempo": 120.0
            },
            {
                "start_time": 37.4659091,
                "end_time": 37.5477273,
                "pitch": 40,
                "velocity": 51,
                "duration": 0.0818182,
                "tempo": 120.0
            },
            {
                "start_time": 37.5659091,
                "end_time": 37.6477273,
                "pitch": 40,
                "velocity": 51,
                "duration": 0.0818182,
                "tempo": 120.0
            },
            {
                "start_time": 37.6659091,
                "end_time": 37.8477273,
                "pitch": 40,
                "velocity": 51,
                "duration": 0.1818182,
                "tempo": 120.0
            },
            {
                "start_time": 37.8659091,
                "end_time": 37.9477273,
                "pitch": 40,
                "velocity": 51,
                "duration": 0.0818182,
                "tempo": 120.0
            },
            {
                "start_time": 37.9659091,
                "end_time": 38.0477273,
                "pitch": 40,
                "velocity": 51,
                "duration": 0.0818182,
                "tempo": 120.0
            },
            {
                "start_time": 38.0659091,
                "end_time": 38.2477273,
                "pitch": 40,
                "velocity": 51,
                "duration": 0.1818182,
                "tempo": 120.0
            },
            {
                "start_time": 38.2659091,
                "end_time": 38.3477273,
                "pitch": 40,
                "velocity": 51,
                "duration": 0.0818182,
                "tempo": 120.0
            },
            {
                "start_time": 38.3659091,
                "end_time": 38.4477273,
                "pitch": 40,
                "velocity": 51,
                "duration": 0.0818182,
                "tempo": 120.0
            },
            {
                "start_time": 38.4659091,
                "end_time": 39.05,
                "pitch": 40,
                "velocity": 51,
                "duration": 0.5840909,
                "tempo": 120.0
            },
            {
                "start_time": 39.0659091,
                "end_time": 39.25,
                "pitch": 36,
                "velocity": 51,
                "duration": 0.1840909,
                "tempo": 120.0
            },
            {
                "start_time": 39.2681818,
                "end_time": 39.6522727,
                "pitch": 36,
                "velocity": 51,
                "duration": 0.3840909,
                "tempo": 120.0
            },
            {
                "start_time": 39.6681818,
                "end_time": 40.0522727,
                "pitch": 36,
                "velocity": 51,
                "duration": 0.3840909,
                "tempo": 120.0
            },
            {
                "start_time": 40.0681818,
                "end_time": 40.2522727,
                "pitch": 36,
                "velocity": 51,
                "duration": 0.1840909,
                "tempo": 120.0
            },
            {
                "start_time": 40.2681818,
                "end_time": 40.6522727,
                "pitch": 38,
                "velocity": 51,
                "duration": 0.3840909,
                "tempo": 120.0
            },
            {
                "start_time": 40.6681818,
                "end_time": 40.8522727,
                "pitch": 38,
                "velocity": 51,
                "duration": 0.1840909,
                "tempo": 120.0
            },
            {
                "start_time": 40.8681818,
                "end_time": 41.2545455,
                "pitch": 38,
                "velocity": 51,
                "duration": 0.3863636,
                "tempo": 120.0
            },
            {
                "start_time": 41.2704545,
                "end_time": 41.6545455,
                "pitch": 40,
                "velocity": 51,
                "duration": 0.3840909,
                "tempo": 120.0
            },
            {
                "start_time": 41.6704545,
                "end_time": 42.0545455,
                "pitch": 40,
                "velocity": 51,
                "duration": 0.3840909,
                "tempo": 120.0
            }
        ]
    }
}