{
    "mood": "happy",
    "instruments": {
        "Acoustic Grand Piano": [
            {
                "start_time": 0.0,
                "end_time": 0.3886364,
                "pitch": 40,
                "velocity": 51,
                "duration": 0.3886364,
                "tempo": 120.0
            },
            {
                "start_time": 0.4,
                "end_time": 0.9840909,
                "pitch": 52,
                "velocity": 51,
                "duration": 0.5840909,
                "tempo": 120.0
            },
            {
                "start_time": 1.0,
                "end_time": 1.2795455,
                "pitch": 45,
                "velocity": 51,
                "duration": 0.2795455,
                "tempo": 120.0
            },
            {
                "start_time": 1.2977273,
                "end_time": 1.5772727,
                "pitch": 47,
                "velocity": 51,
                "duration": 0.2795455,
                "tempo": 120.0
            },
            {
                "start_time": 1.5931818,
                "end_time": 2.1840909,
                "pitch": 45,
                "velocity": 51,
                "duration": 0.5909091,
                "tempo": 120.0
            },
            {
                "start_time": 2.2,
                "end_time": 2.7954545,
                "pitch": 33,
                "velocity": 51,
                "duration": 0.5954545,
                "tempo": 120.0
            },
            {
                "start_time": 2.8113636,
                "end_time": 3.4068182,
                "pitch": 45,
                "velocity": 51,
                "duration": 0.5954545,
                "tempo": 120.0
            },
            {
                "start_time": 3.425,
                "end_time": 4.0022727,
                "pitch": 39,
                "velocity": 51,
                "duration": 0.5772727,
                "tempo": 120.0
            },
            {
                "start_time": 4.0181818,
                "end_time": 4.6136364,
                "pitch": 40,
                "velocity": 51,
                "duration": 0.5954545,
                "tempo": 120.0
            },
            {
                "start_time": 4.6318182,
                "end_time": 5.2090909,
                "pitch": 35,
                "velocity": 51,
                "duration": 0.5772727,
                "tempo": 120.0
            },
            {
                "start_time": 5.225,
                "end_time": 5.8136364,
                "pitch": 47,
                "velocity": 51,
                "duration": 0.5886364,
                "tempo": 120.0
            },
            {
                "start_time": 5.8318182,
                "end_time": 6.1136364,
                "pitch": 47,
                "velocity": 51,
                "duration": 0.2818182,
                "tempo": 120.0
            },
            {
                "start_time": 6.1318182,
                "end_time": 6.4136364,
                "pitch": 45,
                "velocity": 51,
                "duration": 0.2818182,
                "tempo": 120.0
            },
            {
                "start_time": 6.4318182,
                "end_time": 6.7136364,
                "pitch": 44,
                "velocity": 51,
                "duration": 0.2818182,
                "tempo": 120.0
            },
            {
                "start_time": 6.7318182,
                "end_time": 7.0136364,
                "pitch": 42,
                "velocity": 51,
                "duration": 0.2818182,
                "tempo": 120.0
            },
            {
                "start_time": 7.0318182,
                "end_time": 8.2204545,
                "pitch": 44,
                "velocity": 51,
                "duration": 1.1886364,
                "tempo": 120.0
            },
            {
                "start_time": 8.2363636,
                "end_time": 9.4272727,
                "pitch": 40,
                "velocity": 51,
                "duration": 1.1909091,
                "tempo": 120.0
            },
            {
                "start_time": 9.4431818,
                "end_time": 10.0272727,
                "pitch": 40,
                "velocity": 51,
                "duration": 0.5840909,
                "tempo": 120.0
            },
            {
                "start_time": 10.0431818,
                "end_time": 10.6272727,
                "pitch": 52,
                "velocity": 51,
                "duration": 0.5840909,
                "tempo": 120.0
            },
            {
                "start_time": 10.6431818,
                "end_time": 10.9295455,
                "pitch": 45,
                "velocity": 51,
                "duration": 0.2863636,
                "tempo": 120.0
            },
            {
                "start_time": 10.9454545,
                "end_time": 11.2318182,
                "pitch": 47,
                "velocity": 51,
                "duration": 0.2863636,
                "tempo": 120.0
            },
            {
                "start_time": 11.2477273,
                "end_time": 11.8272727,
                "pitch": 45,
                "velocity": 51,
                "duration": 0.5795455,
                "tempo": 120.0
            },
            {
                "start_time": 11.8431818,
                "end_time": 12.4386364,
                "pitch": 33,
                "velocity": 51,
                "duration": 0.5954545,
                "tempo": 120.0
            },
            {
                "start_time": 12.4545455,
                "end_time": 13.05,
                "pitch": 45,
                "velocity": 51,
                "duration": 0.5954545,
                "tempo": 120.0
            },
            {
                "start_time": 13.0681818,
                "end_time": 13.6454545,
                "pitch": 39,
                "velocity": 51,
                "duration": 0.5772727,
                "tempo": 120.0
            },
            {
                "start_time": 13.6613636,
                "end_time": 14.2568182,
                "pitch": 40,
                "velocity": 51,
                "duration": 0.5954545,
                "tempo": 120.0
            },
            {
                "start_time": 14.2727273,
                "end_time": 14.85,
                "pitch": 35,
                "velocity": 51,
                "duration": 0.5772727,
                "tempo": 120.0
            },
            {
                "start_time": 14.8681818,
                "end_time": 15.45,
                "pitch": 47,
                "velocity": 51,
                "duration": 0.5818182,
                "tempo": 120.0
            },
            {
                "start_time": 15.4681818,
                "end_time": 16.3477273,
                "pitch": 47,
                "velocity": 51,
                "duration": 0.8795455,
                "tempo": 120.0
            },
            {
                "start_time": 16.3636364,
                "end_time": 16.6454545,
                "pitch": 39,
                "velocity": 51,
                "duration": 0.2818182,
                "tempo": 120.0
            },
            {
                "start_time": 16.6613636,
                "end_time": 18.1590909,
                "pitch": 40,
                "velocity": 51,
                "duration": 1.4977273,
                "tempo": 120.0
            },
            {
                "start_time": 18.1772727,
                "end_time": 18.4636364,
                "pitch": 40,
                "velocity": 51,
                "duration": 0.2863636,
                "tempo": 120.0
            },
            {
                "start_time": 18.4795455,
                "end_time": 18.7659091,
                "pitch": 39,
                "velocity": 51,
                "duration": 0.2863636,
                "tempo": 120.0
            },
            {
                "start_time": 18.7818182,
                "end_time": 19.0681818,
                "pitch": 37,
                "velocity": 51,
                "duration": 0.2863636,
                "tempo": 120.0
            },
            {
                "start_time": 19.0863636,
                "end_time": 19.6681818,
                "pitch": 35,
                "velocity": 51,
                "duration": 0.5818182,
                "tempo": 120.0
            },
            {
                "start_time": 19.6863636,
                "end_time": 20.275,
                "pitch": 35,
                "velocity": 51,
                "duration": 0.5886364,
                "tempo": 120.0
            },
            {
                "start_time": 20.2909091,
                "end_time": 20.575,
                "pitch": 35,
                "velocity": 51,
                "duration": 0.2840909,
                "tempo": 120.0
            },
            {
                "start_time": 20.5909091,
                "end_time": 21.4818182,
                "pitch": 42,
                "velocity": 51,
                "duration": 0.8909091,
                "tempo": 120.0
            },
            {
                "start_time": 21.4977273,
                "end_time": 22.0863636,
                "pitch": 40,
                "velocity": 51,
                "duration": 0.5886364,
                "tempo": 120.0
            },
            {
                "start_time": 22.1045455,
                "end_time": 22.6863636,
                "pitch": 40,
                "velocity": 51,
                "duration": 0.5818182,
                "tempo": 120.0
            },
            {
                "start_time": 22.7045455,
                "end_time": 22.9909091,
                "pitch": 40,
                "velocity": 51,
                "duration": 0.2863636,
                "tempo": 120.0
            },
            {
                "start_time": 23.0068182,
                "end_time": 23.8931818,
                "pitch": 47,
                "velocity": 51,
                "duration": 0.8863636,
                "tempo": 120.0
            },
            {
                "start_time": 23.9090909,
                "end_time": 24.5,
                "pitch": 45,
                "velocity": 51,
                "duration": 0.5909091,
                "tempo": 120.0
            },
            {
                "start_time": 24.5159091,
                "end_time": 25.0931818,
                "pitch": 45,
                "velocity": 51,
                "duration": 0.5772727,
                "tempo": 120.0
            },
            {
                "start_time": 25.1090909,
                "end_time": 25.3954545,
                "pitch": 45,
                "velocity": 51,
                "duration": 0.2863636,
                "tempo": 120.0
            },
            {
                "start_time": 25.4136364,
                "end_time": 25.7,
                "pitch": 44,
                "velocity": 51,
                "duration": 0.2863636,
                "tempo": 120.0
            },
            {
                "start_time": 25.7159091,
                "end_time": 26.0045455,
                "pitch": 42,
                "velocity": 51,
                "duration": 0.2886364,
                "tempo": 120.0
            },
            {
                "start_time": 26.0227273,
                "end_time": 26.3113636,
                "pitch": 40,
                "velocity": 51,
                "duration": 0.2886364,
                "tempo": 120.0
            },
            {
                "start_time": 26.3295455,
                "end_time": 27.2136364,
                "pitch": 42,
                "velocity": 51,
                "duration": 0.8840909,
                "tempo": 120.0
            },
            {
                "start_time": 27.2318182,
                "end_time": 27.5181818,
                "pitch": 35,
                "velocity": 51,
                "duration": 0.2863636,
                "tempo": 120.0
            },
            {
                "start_time": 27.5340909,
                "end_time": 28.725,
                "pitch": 35,
                "velocity": 51,
                "duration": 1.1909091,
                "tempo": 120.0
            },
            {
                "start_time": 28.7409091,
                "end_time": 29.3295455,
                "pitch": 35,
                "velocity": 51,
                "duration": 0.5886364,
                "tempo": 120.0
            },
            {
                "start_time": 29.3477273,
                "end_time": 29.9295455,
                "pitch": 35,
                "velocity": 51,
                "duration": 0.5818182,
                "tempo": 120.0
            },
            {
                "start_time": 29.9477273,
                "end_time": 30.2318182,
                "pitch": 35,
                "velocity": 51,
                "duration": 0.2840909,
                "tempo": 120.0
            },
            {
                "start_time": 30.25,
                "end_time": 31.1409091,
                "pitch": 42,
                "velocity": 51,
                "duration": 0.8909091,
                "tempo": 120.0
            },
            {
                "start_time": 31.1590909,
                "end_time": 31.7431818,
                "pitch": 40,
                "velocity": 51,
                "duration": 0.5840909,
                "tempo": 120.0
            },
            {
                "start_time": 31.7590909,
                "end_time": 32.3477273,
                "pitch": 40,
                "velocity": 51,
                "duration": 0.5886364,
                "tempo": 120.0
            },
            {
                "start_time": 32.3659091,
                "end_time": 32.6477273,
                "pitch": 40,
                "velocity": 51,
                "duration": 0.2818182,
                "tempo": 120.0
            },
            {
                "start_time": 32.6659091,
                "end_time": 33.5545455,
                "pitch": 47,
                "velocity": 51,
                "duration": 0.8886364,
                "tempo": 120.0
            },
            {
                "start_time": 33.5704545,
                "end_time": 34.1590909,
                "pitch": 45,
                "velocity": 51,
                "duration": 0.5886364,
                "tempo": 120.0
            },
            {
                "start_time": 34.1772727,
                "end_time": 34.7659091,
                "pitch": 47,
                "velocity": 51,
                "duration": 0.5886364,
                "tempo": 120.0
            },
            {
                "start_time": 34.7840909,
                "end_time": 35.3659091,
                "pitch": 49,
                "velocity": 51,
                "duration": 0.5818182,
                "tempo": 120.0
            },
            {
                "start_time": 35.3840909,
                "end_time": 35.9727273,
                "pitch": 44,
                "velocity": 51,
                "duration": 0.5886364,
                "tempo": 120.0
            },
            {
                "start_time": 35.9886364,
                "end_time": 37.1613636,
                "pitch": 40,
                "velocity": 51,
                "duration": 1.1727273,
                "tempo": 120.0
            },
            {
                "start_time": 38.3909091,
                "end_time": 38.5090909,
                "pitch": 40,
                "velocity": 51,
                "duration": 0.1181818,
                "tempo": 120.0
            }
        ]
    }
}