{
    "mood": "happy",
    "instruments": {
        "Church Organ": [
            {
                "start_time": 0.0,
                "end_time": 0.5795455,
                "pitch": 64,
                "velocity": 80,
                "duration": 0.5795455,
                "tempo": 120.0
            },
            {
                "start_time": 0.5954545,
                "end_time": 1.1863636,
                "pitch": 59,
                "velocity": 80,
                "duration": 0.5909091,
                "tempo": 120.0
            },
            {
                "start_time": 1.2022727,
                "end_time": 1.5863636,
                "pitch": 64,
                "velocity": 80,
                "duration": 0.3840909,
                "tempo": 120.0
            },
            {
                "start_time": 1.6022727,
                "end_time": 1.7863636,
                "pitch": 62,
                "velocity": 80,
                "duration": 0.1840909,
                "tempo": 120.0
            },
            {
                "start_time": 1.8045455,
                "end_time": 2.1886364,
                "pitch": 61,
                "velocity": 80,
                "duration": 0.3840909,
                "tempo": 120.0
            },
            {
                "start_time": 2.2045455,
                "end_time": 2.7818182,
                "pitch": 59,
                "velocity": 80,
                "duration": 0.5772727,
                "tempo": 120.0
            },
            {
                "start_time": 2.7977273,
                "end_time": 3.1909091,
                "pitch": 57,
                "velocity": 80,
                "duration": 0.3931818,
                "tempo": 120.0
            },
            {
                "start_time": 3.2090909,
                "end_time": 3.7954545,
                "pitch": 64,
                "velocity": 80,
                "duration": 0.5863636,
                "tempo": 120.0
            },
            {
                "start_time": 3.8113636,
                "end_time": 4.3863636,
                "pitch": 59,
                "velocity": 80,
                "duration": 0.575,
                "tempo": 120.0
            },
            {
                "start_time": 4.4022727,
                "end_time": 5.7954545,
                "pitch": 62,
                "velocity": 80,
                "duration": 1.3931818,
                "tempo": 120.0
            },
            {
                "start_time": 5.8136364,
                "end_time": 5.9931818,
                "pitch": 62,
                "velocity": 80,
                "duration": 0.1795455,
                "tempo": 120.0
            },
            {
                "start_time": 6.0090909,
                "end_time": 6.1977273,
                "pitch": 61,
                "velocity": 80,
                "duration": 0.1886364,
                "tempo": 120.0
            },
            {
                "start_time": 6.2136364,
                "end_time": 6.4022727,
                "pitch": 62,
                "velocity": 80,
                "duration": 0.1886364,
                "tempo": 120.0
            },
            {
                "start_time": 6.4204545,
                "end_time": 7.0022727,
                "pitch": 64,
                "velocity": 80,
                "duration": 0.5818182,
                "tempo": 120.0
            },
            {
                "start_time": 7.0181818,
                "end_time": 7.6,
                "pitch": 59,
                "velocity": 80,
                "duration": 0.5818182,
                "tempo": 120.0
            },
            {
                "start_time": 7.6181818,
                "end_time": 8.0113636,
                "pitch": 64,
                "velocity": 80,
                "duration": 0.3931818,
                "tempo": 120.0
            },
            {
                "start_time": 8.0272727,
                "end_time": 8.2136364,
                "pitch": 62,
                "velocity": 80,
                "duration": 0.1863636,
                "tempo": 120.0
            },
            {
                "start_time": 8.2295455,
                "end_time": 8.6113636,
                "pitch": 61,
                "velocity": 80,
                "duration": 0.3818182,
                "tempo": 120.0
            },
            {
                "start_time": 8.6272727,
                "end_time": 9.2068182,
                "pitch": 59,
                "velocity": 80,
                "duration": 0.5795455,
                "tempo": 120.0
            },
            {
                "start_time": 9.2227273,
                "end_time": 9.6159091,
                "pitch": 57,
                "velocity": 80,
                "duration": 0.3931818,
                "tempo": 120.0
            },
            {
                "start_time": 9.6340909,
                "end_time": 11.0159091,
                "pitch": 59,
                "velocity": 80,
                "duration": 1.3818182,
                "tempo": 120.0
            },
            {
                "start_time": 11.0318182,
                "end_time": 11.2159091,
                "pitch": 52,
                "velocity": 80,
                "duration": 0.1840909,
                "tempo": 120.0
            },
            {
                "start_time": 11.2318182,
                "end_time": 12.8340909,
                "pitch": 52,
                "velocity": 80,
                "duration": 1.6022727,
                "tempo": 120.0
            }
        ],
        "Flute": [
            {
                "start_time": 0.0,
                "end_time": 0.5795455,
                "pitch": 59,
                "velocity": 51,
                "duration": 0.5795455,
                "tempo": 120.0
            },
            {
                "start_time": 0.5954545,
                "end_time": 1.1863636,
                "pitch": 56,
                "velocity": 51,
                "duration": 0.5909091,
                "tempo": 120.0
            },
            {
                "start_time": 1.2022727,
                "end_time": 1.5863636,
                "pitch": 59,
                "velocity": 51,
                "duration": 0.3840909,
                "tempo": 120.0
            },
            {
                "start_time": 1.6022727,
                "end_time": 1.7863636,
                "pitch": 57,
                "velocity": 51,
                "duration": 0.1840909,
                "tempo": 120.0
            },
            {
                "start_time": 1.8045455,
                "end_time": 2.1886364,
                "pitch": 56,
                "velocity": 51,
                "duration": 0.3840909,
                "tempo": 120.0
            },
            {
                "start_time": 2.2045455,
                "end_time": 2.7818182,
                "pitch": 54,
                "velocity": 51,
                "duration": 0.5772727,
                "tempo": 120.0
            },
            {
                "start_time": 2.7977273,
                "end_time": 3.1909091,
                "pitch": 52,
                "velocity": 51,
                "duration": 0.3931818,
                "tempo": 120.0
            },
            {
                "start_time": 3.2090909,
                "end_time": 3.7954545,
                "pitch": 59,
                "velocity": 51,
                "duration": 0.5863636,
                "tempo": 120.0
            },
            {
                "start_time": 3.8113636,
                "end_time": 4.3863636,
                "pitch": 56,
                "velocity": 51,
                "duration": 0.575,
                "tempo": 120.0
            },
            {
                "start_time": 4.4022727,
                "end_time": 6.4022727,
                "pitch": 57,
                "velocity": 51,
                "duration": 2.0,
                "tempo": 120.0
            },
            {
                "start_time": 6.4204545,
                "end_time": 7.0022727,
                "pitch": 59,
                "velocity": 51,
                "duration": 0.5818182,
                "tempo": 120.0
            },
            {
                "start_time": 7.0181818,
                "end_time": 7.6,
                "pitch": 56,
                "velocity": 51,
                "duration": 0.5818182,
                "tempo": 120.0
            },
            {
                "start_time": 7.6181818,
                "end_time": 8.0113636,
                "pitch": 59,
                "velocity": 51,
                "duration": 0.3931818,
                "tempo": 120.0
            },
            {
                "start_time": 8.0272727,
                "end_time": 8.2136364,
                "pitch": 57,
                "velocity": 51,
                "duration": 0.1863636,
                "tempo": 120.0
            },
            {
                "start_time": 8.2295455,
                "end_time": 8.6113636,
                "pitch": 56,
                "velocity": 51,
                "duration": 0.3818182,
                "tempo": 120.0
            },
            {
                "start_time": 8.6272727,
                "end_time": 9.2068182,
                "pitch": 54,
                "velocity": 51,
                "duration": 0.5795455,
                "tempo": 120.0
            },
            {
                "start_time": 9.2227273,
                "end_time": 9.6159091,
                "pitch": 52,
                "velocity": 51,
                "duration": 0.3931818,
                "tempo": 120.0
            },
            {
                "start_time": 9.6340909,
                "end_time": 11.0159091,
                "pitch": 56,
                "velocity": 51,
                "duration": 1.3818182,
                "tempo": 120.0
            },
            {
                "start_time": 11.0318182,
                "end_time": 11.2159091,
                "pitch": 56,
                "velocity": 51,
                "duration": 0.1840909,
                "tempo": 120.0
            },
            {
                "start_time": 11.2318182,
                "end_time": 12.8340909,
                "pitch": 56,
                "velocity": 51,
                "duration": 1.6022727,
                "tempo": 120.0
            }
        ],
        "Acoustic Grand Piano": [
            {
                "start_time": 0.0,
                "end_time": 0.15,
                "pitch": 40,
                "velocity": 51,
                "duration": 0.15,
                "tempo": 120.0
            },
            {
                "start_time": 0.5954545,
                "end_time": 1.1863636,
                "pitch": 40,
                "velocity": 51,
                "duration": 0.5909091,
                "tempo": 120.0
            },
            {
                "start_time": 1.2022727,
                "end_time": 1.5863636,
                "pitch": 35,
                "velocity": 51,
                "duration": 0.3840909,
                "tempo": 120.0
            },
            {
                "start_time": 1.6022727,
                "end_time": 2.1886364,
                "pitch": 38,
                "velocity": 51,
                "duration": 0.5863636,
                "tempo": 120.0
            },
            {
                "start_time": 2.2045455,
                "end_time": 2.7818182,
                "pitch": 38,
                "velocity": 51,
                "duration": 0.5772727,
                "tempo": 120.0
            },
            {
                "start_time": 2.7977273,
                "end_time": 3.1909091,
                "pitch": 35,
                "velocity": 51,
                "duration": 0.3931818,
                "tempo": 120.0
            },
            {
                "start_time": 3.2090909,
                "end_time": 3.8954545,
                "pitch": 40,
                "velocity": 51,
                "duration": 0.6863636,
                "tempo": 120.0
            },
            {
                "start_time": 3.9113636,
                "end_time": 4.3863636,
                "pitch": 35,
                "velocity": 51,
                "duration": 0.475,
                "tempo": 120.0
            },
            {
                "start_time": 4.4022727,
                "end_time": 6.4022727,
                "pitch": 38,
                "velocity": 51,
                "duration": 2.0,
                "tempo": 120.0
            },
            {
                "start_time": 6.4204545,
                "end_time": 6.5704545,
                "pitch": 40,
                "velocity": 51,
                "duration": 0.15,
                "tempo": 120.0
            },
            {
                "start_time": 7.0181818,
                "end_time": 7.6,
                "pitch": 40,
                "velocity": 51,
                "duration": 0.5818182,
                "tempo": 120.0
            },
            {
                "start_time": 7.6181818,
                "end_time": 8.0113636,
                "pitch": 35,
                "velocity": 51,
                "duration": 0.3931818,
                "tempo": 120.0
            },
            {
                "start_time": 8.0272727,
                "end_time": 8.6113636,
                "pitch": 38,
                "velocity": 51,
                "duration": 0.5840909,
                "tempo": 120.0
            },
            {
                "start_time": 8.6272727,
                "end_time": 9.2068182,
                "pitch": 38,
                "velocity": 51,
                "duration": 0.5795455,
                "tempo": 120.0
            },
            {
                "start_time": 9.2227273,
                "end_time": 9.6159091,
                "pitch": 35,
                "velocity": 51,
                "duration": 0.3931818,
                "tempo": 120.0
            },
            {
                "start_time": 9.6340909,
                "end_time": 11.0159091,
                "pitch": 40,
                "velocity": 51,
                "duration": 1.3818182,
                "tempo": 120.0
            },
            {
                "start_time": 11.0318182,
                "end_time": 11.2159091,
                "pitch": 40,
                "velocity": 51,
                "duration": 0.1840909,
                "tempo": 120.0
            },
            {
                "start_time": 11.2318182,
                "end_time": 12.8340909,
                "pitch": 40,
                "velocity": 51,
                "duration": 1.6022727,
                "tempo": 120.0
            }
        ]
    }
}