{
    "mood": "happy",
    "instruments": {
        "French Horn": [
            {
                "start_time": 0.0068182,
                "end_time": 0.1909091,
                "pitch": 57,
                "velocity": 80,
                "duration": 0.1840909,
                "tempo": 120.0
            },
            {
                "start_time": 0.2090909,
                "end_time": 0.3931818,
                "pitch": 60,
                "velocity": 80,
                "duration": 0.1840909,
                "tempo": 120.0
            },
            {
                "start_time": 0.4090909,
                "end_time": 0.5909091,
                "pitch": 59,
                "velocity": 80,
                "duration": 0.1818182,
                "tempo": 120.0
            },
            {
                "start_time": 0.6068182,
                "end_time": 0.7863636,
                "pitch": 55,
                "velocity": 80,
                "duration": 0.1795455,
                "tempo": 120.0
            },
            {
                "start_time": 0.8022727,
                "end_time": 0.9863636,
                "pitch": 57,
                "velocity": 80,
                "duration": 0.1840909,
                "tempo": 120.0
            },
            {
                "start_time": 1.0045455,
                "end_time": 1.0863636,
                "pitch": 50,
                "velocity": 80,
                "duration": 0.0818182,
                "tempo": 120.0
            },
            {
                "start_time": 1.1045455,
                "end_time": 1.5886364,
                "pitch": 52,
                "velocity": 80,
                "duration": 0.4840909,
                "tempo": 120.0
            },
            {
                "start_time": 1.6045455,
                "end_time": 1.7886364,
                "pitch": 50,
                "velocity": 80,
                "duration": 0.1840909,
                "tempo": 120.0
            },
            {
                "start_time": 1.8068182,
                "end_time": 1.9909091,
                "pitch": 60,
                "velocity": 80,
                "duration": 0.1840909,
                "tempo": 120.0
            },
            {
                "start_time": 2.0068182,
                "end_time": 2.1909091,
                "pitch": 59,
                "velocity": 80,
                "duration": 0.1840909,
                "tempo": 120.0
            },
            {
                "start_time": 2.2068182,
                "end_time": 2.3909091,
                "pitch": 55,
                "velocity": 80,
                "duration": 0.1840909,
                "tempo": 120.0
            },
            {
                "start_time": 2.4068182,
                "end_time": 2.5863636,
                "pitch": 57,
                "velocity": 80,
                "duration": 0.1795455,
                "tempo": 120.0
            },
            {
                "start_time": 2.6045455,
                "end_time": 2.6863636,
                "pitch": 62,
                "velocity": 80,
                "duration": 0.0818182,
                "tempo": 120.0
            },
            {
                "start_time": 2.7022727,
                "end_time": 3.1931818,
                "pitch": 67,
                "velocity": 80,
                "duration": 0.4909091,
                "tempo": 120.0
            },
            {
                "start_time": 3.2113636,
                "end_time": 3.3931818,
                "pitch": 57,
                "velocity": 80,
                "duration": 0.1818182,
                "tempo": 120.0
            },
            {
                "start_time": 3.4113636,
                "end_time": 3.5931818,
                "pitch": 60,
                "velocity": 80,
                "duration": 0.1818182,
                "tempo": 120.0
            },
            {
                "start_time": 3.6113636,
                "end_time": 3.7931818,
                "pitch": 59,
                "velocity": 80,
                "duration": 0.1818182,
                "tempo": 120.0
            },
            {
                "start_time": 3.8113636,
                "end_time": 3.9931818,
                "pitch": 55,
                "velocity": 80,
                "duration": 0.1818182,
                "tempo": 120.0
            },
            {
                "start_time": 4.0113636,
                "end_time": 4.1931818,
                "pitch": 57,
                "velocity": 80,
                "duration": 0.1818182,
                "tempo": 120.0
            },
            {
                "start_time": 4.2113636,
                "end_time": 4.2931818,
                "pitch": 50,
                "velocity": 80,
                "duration": 0.0818182,
                "tempo": 120.0
            },
            {
                "start_time": 4.3113636,
                "end_time": 4.7954545,
                "pitch": 52,
                "velocity": 80,
                "duration": 0.4840909,
                "tempo": 120.0
            },
            {
                "start_time": 4.8136364,
                "end_time": 4.9931818,
                "pitch": 62,
                "velocity": 80,
                "duration": 0.1795455,
                "tempo": 120.0
            },
            {
                "start_time": 5.0090909,
                "end_time": 5.1886364,
                "pitch": 60,
                "velocity": 80,
                "duration": 0.1795455,
                "tempo": 120.0
            },
            {
                "start_time": 5.2045455,
                "end_time": 5.3931818,
                "pitch": 59,
                "velocity": 80,
                "duration": 0.1886364,
                "tempo": 120.0
            },
            {
                "start_time": 5.4113636,
                "end_time": 5.6,
                "pitch": 55,
                "velocity": 80,
                "duration": 0.1886364,
                "tempo": 120.0
            },
            {
                "start_time": 5.6159091,
                "end_time": 5.8,
                "pitch": 57,
                "velocity": 80,
                "duration": 0.1840909,
                "tempo": 120.0
            },
            {
                "start_time": 5.8181818,
                "end_time": 5.9022727,
                "pitch": 62,
                "velocity": 80,
                "duration": 0.0840909,
                "tempo": 120.0
            },
            {
                "start_time": 5.9181818,
                "end_time": 6.2022727,
                "pitch": 67,
                "velocity": 80,
                "duration": 0.2840909,
                "tempo": 120.0
            },
            {
                "start_time": 6.2181818,
                "end_time": 6.4022727,
                "pitch": 62,
                "velocity": 80,
                "duration": 0.1840909,
                "tempo": 120.0
            },
            {
                "start_time": 6.4181818,
                "end_time": 7.0045455,
                "pitch": 64,
                "velocity": 80,
                "duration": 0.5863636,
                "tempo": 120.0
            },
            {
                "start_time": 7.0204545,
                "end_time": 7.4,
                "pitch": 57,
                "velocity": 80,
                "duration": 0.3795455,
                "tempo": 120.0
            },
            {
                "start_time": 7.4181818,
                "end_time": 7.5977273,
                "pitch": 59,
                "velocity": 80,
                "duration": 0.1795455,
                "tempo": 120.0
            },
            {
                "start_time": 7.6136364,
                "end_time": 7.8022727,
                "pitch": 60,
                "velocity": 80,
                "duration": 0.1886364,
                "tempo": 120.0
            },
            {
                "start_time": 7.8181818,
                "end_time": 8.0068182,
                "pitch": 62,
                "velocity": 80,
                "duration": 0.1886364,
                "tempo": 120.0
            },
            {
                "start_time": 8.025,
                "end_time": 8.6090909,
                "pitch": 62,
                "velocity": 80,
                "duration": 0.5840909,
                "tempo": 120.0
            },
            {
                "start_time": 8.625,
                "end_time": 8.7090909,
                "pitch": 59,
                "velocity": 80,
                "duration": 0.0840909,
                "tempo": 120.0
            },
            {
                "start_time": 8.7272727,
                "end_time": 9.0113636,
                "pitch": 64,
                "velocity": 80,
                "duration": 0.2840909,
                "tempo": 120.0
            },
            {
                "start_time": 9.0272727,
                "end_time": 9.2136364,
                "pitch": 55,
                "velocity": 80,
                "duration": 0.1863636,
                "tempo": 120.0
            },
            {
                "start_time": 9.2295455,
                "end_time": 9.4136364,
                "pitch": 57,
                "velocity": 80,
                "duration": 0.1840909,
                "tempo": 120.0
            },
            {
                "start_time": 9.4318182,
                "end_time": 9.6159091,
                "pitch": 52,
                "velocity": 80,
                "duration": 0.1840909,
                "tempo": 120.0
            },
            {
                "start_time": 9.6318182,
                "end_time": 9.8159091,
                "pitch": 57,
                "velocity": 80,
                "duration": 0.1840909,
                "tempo": 120.0
            },
            {
                "start_time": 9.8318182,
                "end_time": 10.0159091,
                "pitch": 59,
                "velocity": 80,
                "duration": 0.1840909,
                "tempo": 120.0
            },
            {
                "start_time": 10.0318182,
                "end_time": 10.2159091,
                "pitch": 60,
                "velocity": 80,
                "duration": 0.1840909,
                "tempo": 120.0
            },
            {
                "start_time": 10.2340909,
                "end_time": 10.6204545,
                "pitch": 62,
                "velocity": 80,
                "duration": 0.3863636,
                "tempo": 120.0
            },
            {
                "start_time": 10.6363636,
                "end_time": 10.8204545,
                "pitch": 67,
                "velocity": 80,
                "duration": 0.1840909,
                "tempo": 120.0
            },
            {
                "start_time": 10.8386364,
                "end_time": 11.0227273,
                "pitch": 65,
                "velocity": 80,
                "duration": 0.1840909,
                "tempo": 120.0
            },
            {
                "start_time": 11.0386364,
                "end_time": 11.2227273,
                "pitch": 64,
                "velocity": 80,
                "duration": 0.1840909,
                "tempo": 120.0
            },
            {
                "start_time": 11.2409091,
                "end_time": 11.8272727,
                "pitch": 60,
                "velocity": 80,
                "duration": 0.5863636,
                "tempo": 120.0
            },
            {
                "start_time": 11.8431818,
                "end_time": 12.2272727,
                "pitch": 59,
                "velocity": 80,
                "duration": 0.3840909,
                "tempo": 120.0
            },
            {
                "start_time": 12.2454545,
                "end_time": 12.8431818,
                "pitch": 55,
                "velocity": 80,
                "duration": 0.5977273,
                "tempo": 120.0
            }
        ],
        "Acoustic Bass": [
            {
                "start_time": 0.0068182,
                "end_time": 0.1909091,
                "pitch": 33,
                "velocity": 80,
                "duration": 0.1840909,
                "tempo": 120.0
            },
            {
                "start_time": 0.2090909,
                "end_time": 0.3931818,
                "pitch": 33,
                "velocity": 80,
                "duration": 0.1840909,
                "tempo": 120.0
            },
            {
                "start_time": 0.4090909,
                "end_time": 0.5909091,
                "pitch": 33,
                "velocity": 80,
                "duration": 0.1818182,
                "tempo": 120.0
            },
            {
                "start_time": 0.6068182,
                "end_time": 0.7863636,
                "pitch": 33,
                "velocity": 80,
                "duration": 0.1795455,
                "tempo": 120.0
            },
            {
                "start_time": 0.8022727,
                "end_time": 0.9863636,
                "pitch": 33,
                "velocity": 80,
                "duration": 0.1840909,
                "tempo": 120.0
            },
            {
                "start_time": 1.0045455,
                "end_time": 1.1886364,
                "pitch": 33,
                "velocity": 80,
                "duration": 0.1840909,
                "tempo": 120.0
            },
            {
                "start_time": 1.2045455,
                "end_time": 1.3886364,
                "pitch": 35,
                "velocity": 80,
                "duration": 0.1840909,
                "tempo": 120.0
            },
            {
                "start_time": 1.4045455,
                "end_time": 1.5886364,
                "pitch": 36,
                "velocity": 80,
                "duration": 0.1840909,
                "tempo": 120.0
            },
            {
                "start_time": 1.6045455,
                "end_time": 2.3909091,
                "pitch": 41,
                "velocity": 80,
                "duration": 0.7863636,
                "tempo": 120.0
            },
            {
                "start_time": 2.4068182,
                "end_time": 2.5863636,
                "pitch": 41,
                "velocity": 80,
                "duration": 0.1795455,
                "tempo": 120.0
            },
            {
                "start_time": 2.6045455,
                "end_time": 2.7840909,
                "pitch": 41,
                "velocity": 80,
                "duration": 0.1795455,
                "tempo": 120.0
            },
            {
                "start_time": 2.8,
                "end_time": 2.9886364,
                "pitch": 41,
                "velocity": 80,
                "duration": 0.1886364,
                "tempo": 120.0
            },
            {
                "start_time": 3.0045455,
                "end_time": 3.1931818,
                "pitch": 41,
                "velocity": 80,
                "duration": 0.1886364,
                "tempo": 120.0
            },
            {
                "start_time": 3.2113636,
                "end_time": 3.3931818,
                "pitch": 40,
                "velocity": 80,
                "duration": 0.1818182,
                "tempo": 120.0
            },
            {
                "start_time": 3.4113636,
                "end_time": 3.5931818,
                "pitch": 40,
                "velocity": 80,
                "duration": 0.1818182,
                "tempo": 120.0
            },
            {
                "start_time": 3.6113636,
                "end_time": 3.7931818,
                "pitch": 35,
                "velocity": 80,
                "duration": 0.1818182,
                "tempo": 120.0
            },
            {
                "start_time": 3.8113636,
                "end_time": 3.9931818,
                "pitch": 40,
                "velocity": 80,
                "duration": 0.1818182,
                "tempo": 120.0
            },
            {
                "start_time": 4.0113636,
                "end_time": 4.1931818,
                "pitch": 40,
                "velocity": 80,
                "duration": 0.1818182,
                "tempo": 120.0
            },
            {
                "start_time": 4.2113636,
                "end_time": 4.3931818,
                "pitch": 35,
                "velocity": 80,
                "duration": 0.1818182,
                "tempo": 120.0
            },
            {
                "start_time": 4.4113636,
                "end_time": 4.5954545,
                "pitch": 38,
                "velocity": 80,
                "duration": 0.1840909,
                "tempo": 120.0
            },
            {
                "start_time": 4.6113636,
                "end_time": 4.7954545,
                "pitch": 40,
                "velocity": 80,
                "duration": 0.1840909,
                "tempo": 120.0
            },
            {
                "start_time": 4.8136364,
                "end_time": 4.9931818,
                "pitch": 41,
                "velocity": 80,
                "duration": 0.1795455,
                "tempo": 120.0
            },
            {
                "start_time": 5.0090909,
                "end_time": 5.1886364,
                "pitch": 41,
                "velocity": 80,
                "duration": 0.1795455,
                "tempo": 120.0
            },
            {
                "start_time": 5.2045455,
                "end_time": 5.3931818,
                "pitch": 41,
                "velocity": 80,
                "duration": 0.1886364,
                "tempo": 120.0
            },
            {
                "start_time": 5.4113636,
                "end_time": 5.6,
                "pitch": 41,
                "velocity": 80,
                "duration": 0.1886364,
                "tempo": 120.0
            },
            {
                "start_time": 5.6159091,
                "end_time": 5.8,
                "pitch": 41,
                "velocity": 80,
                "duration": 0.1840909,
                "tempo": 120.0
            },
            {
                "start_time": 5.8181818,
                "end_time": 6.0022727,
                "pitch": 41,
                "velocity": 80,
                "duration": 0.1840909,
                "tempo": 120.0
            },
            {
                "start_time": 6.0181818,
                "end_time": 6.2022727,
                "pitch": 41,
                "velocity": 80,
                "duration": 0.1840909,
                "tempo": 120.0
            },
            {
                "start_time": 6.2181818,
                "end_time": 6.4022727,
                "pitch": 41,
                "velocity": 80,
                "duration": 0.1840909,
                "tempo": 120.0
            },
            {
                "start_time": 6.4181818,
                "end_time": 6.6022727,
                "pitch": 43,
                "velocity": 80,
                "duration": 0.1840909,
                "tempo": 120.0
            },
            {
                "start_time": 6.6204545,
                "end_time": 6.8045455,
                "pitch": 43,
                "velocity": 80,
                "duration": 0.1840909,
                "tempo": 120.0
            },
            {
                "start_time": 6.8204545,
                "end_time": 7.0045455,
                "pitch": 43,
                "velocity": 80,
                "duration": 0.1840909,
                "tempo": 120.0
            },
            {
                "start_time": 7.0204545,
                "end_time": 7.2045455,
                "pitch": 43,
                "velocity": 80,
                "duration": 0.1840909,
                "tempo": 120.0
            },
            {
                "start_time": 7.2204545,
                "end_time": 7.4,
                "pitch": 43,
                "velocity": 80,
                "duration": 0.1795455,
                "tempo": 120.0
            },
            {
                "start_time": 7.4181818,
                "end_time": 7.5977273,
                "pitch": 43,
                "velocity": 80,
                "duration": 0.1795455,
                "tempo": 120.0
            },
            {
                "start_time": 7.6136364,
                "end_time": 7.8022727,
                "pitch": 43,
                "velocity": 80,
                "duration": 0.1886364,
                "tempo": 120.0
            },
            {
                "start_time": 7.8181818,
                "end_time": 8.0068182,
                "pitch": 41,
                "velocity": 80,
                "duration": 0.1886364,
                "tempo": 120.0
            },
            {
                "start_time": 8.025,
                "end_time": 8.2068182,
                "pitch": 40,
                "velocity": 80,
                "duration": 0.1818182,
                "tempo": 120.0
            },
            {
                "start_time": 8.225,
                "end_time": 8.4068182,
                "pitch": 40,
                "velocity": 80,
                "duration": 0.1818182,
                "tempo": 120.0
            },
            {
                "start_time": 8.425,
                "end_time": 8.6090909,
                "pitch": 40,
                "velocity": 80,
                "duration": 0.1840909,
                "tempo": 120.0
            },
            {
                "start_time": 8.625,
                "end_time": 8.8113636,
                "pitch": 40,
                "velocity": 80,
                "duration": 0.1863636,
                "tempo": 120.0
            },
            {
                "start_time": 8.8272727,
                "end_time": 9.0113636,
                "pitch": 40,
                "velocity": 80,
                "duration": 0.1840909,
                "tempo": 120.0
            },
            {
                "start_time": 9.0272727,
                "end_time": 9.2136364,
                "pitch": 40,
                "velocity": 80,
                "duration": 0.1863636,
                "tempo": 120.0
            },
            {
                "start_time": 9.2295455,
                "end_time": 9.4136364,
                "pitch": 38,
                "velocity": 80,
                "duration": 0.1840909,
                "tempo": 120.0
            },
            {
                "start_time": 9.4318182,
                "end_time": 9.4477273,
                "pitch": 39,
                "velocity": 80,
                "duration": 0.0159091,
                "tempo": 120.0
            },
            {
                "start_time": 9.4636364,
                "end_time": 9.6159091,
                "pitch": 39,
                "velocity": 80,
                "duration": 0.1522727,
                "tempo": 120.0
            },
            {
                "start_time": 9.6318182,
                "end_time": 9.8159091,
                "pitch": 41,
                "velocity": 80,
                "duration": 0.1840909,
                "tempo": 120.0
            },
            {
                "start_time": 9.8318182,
                "end_time": 10.0159091,
                "pitch": 41,
                "velocity": 80,
                "duration": 0.1840909,
                "tempo": 120.0
            },
            {
                "start_time": 10.0318182,
                "end_time": 10.2159091,
                "pitch": 41,
                "velocity": 80,
                "duration": 0.1840909,
                "tempo": 120.0
            },
            {
                "start_time": 10.2340909,
                "end_time": 10.4181818,
                "pitch": 41,
                "velocity": 80,
                "duration": 0.1840909,
                "tempo": 120.0
            },
            {
                "start_time": 10.4340909,
                "end_time": 10.6204545,
                "pitch": 41,
                "velocity": 80,
                "duration": 0.1863636,
                "tempo": 120.0
            },
            {
                "start_time": 10.6363636,
                "end_time": 10.8204545,
                "pitch": 41,
                "velocity": 80,
                "duration": 0.1840909,
                "tempo": 120.0
            },
            {
                "start_time": 10.8386364,
                "end_time": 11.0227273,
                "pitch": 40,
                "velocity": 80,
                "duration": 0.1840909,
                "tempo": 120.0
            },
            {
                "start_time": 11.0386364,
                "end_time": 11.2227273,
                "pitch": 43,
                "velocity": 80,
                "duration": 0.1840909,
                "tempo": 120.0
            },
            {
                "start_time": 11.2409091,
                "end_time": 11.425,
                "pitch": 44,
                "velocity": 80,
                "duration": 0.1840909,
                "tempo": 120.0
            },
            {
                "start_time": 11.4409091,
                "end_time": 11.6272727,
                "pitch": 44,
                "velocity": 80,
                "duration": 0.1863636,
                "tempo": 120.0
            },
            {
                "start_time": 11.6431818,
                "end_time": 11.8272727,
                "pitch": 44,
                "velocity": 80,
                "duration": 0.1840909,
                "tempo": 120.0
            },
            {
                "start_time": 11.8431818,
                "end_time": 12.0272727,
                "pitch": 41,
                "velocity": 80,
                "duration": 0.1840909,
                "tempo": 120.0
            },
            {
                "start_time": 12.0431818,
                "end_time": 12.2272727,
                "pitch": 40,
                "velocity": 80,
                "duration": 0.1840909,
                "tempo": 120.0
            },
            {
                "start_time": 12.2454545,
                "end_time": 12.4295455,
                "pitch": 40,
                "velocity": 80,
                "duration": 0.1840909,
                "tempo": 120.0
            },
            {
                "start_time": 12.4454545,
                "end_time": 12.6295455,
                "pitch": 40,
                "velocity": 80,
                "duration": 0.1840909,
                "tempo": 120.0
            },
            {
                "start_time": 12.6477273,
                "end_time": 12.8431818,
                "pitch": 40,
                "velocity": 80,
                "duration": 0.1954545,
                "tempo": 120.0
            }
        ]
    }
}