{
    "mood": "happy",
    "instruments": {
        "Lead 2 (sawtooth)": [
            {
                "start_time": 3.8863636,
                "end_time": 4.0840909,
                "pitch": 81,
                "velocity": 64,
                "duration": 0.1977273,
                "tempo": 120.0
            },
            {
                "start_time": 4.0840909,
                "end_time": 4.2840909,
                "pitch": 81,
                "velocity": 64,
                "duration": 0.2,
                "tempo": 120.0
            },
            {
                "start_time": 4.4840909,
                "end_time": 4.6840909,
                "pitch": 81,
                "velocity": 64,
                "duration": 0.2,
                "tempo": 120.0
            },
            {
                "start_time": 4.8840909,
                "end_time": 5.0863636,
                "pitch": 81,
                "velocity": 64,
                "duration": 0.2022727,
                "tempo": 120.0
            },
            {
                "start_time": 5.0863636,
                "end_time": 5.2886364,
                "pitch": 81,
                "velocity": 64,
                "duration": 0.2022727,
                "tempo": 120.0
            },
            {
                "start_time": 5.4909091,
                "end_time": 5.6909091,
                "pitch": 81,
                "velocity": 64,
                "duration": 0.2,
                "tempo": 120.0
            },
            {
                "start_time": 5.8909091,
                "end_time": 6.0931818,
                "pitch": 81,
                "velocity": 64,
                "duration": 0.2022727,
                "tempo": 120.0
            },
            {
                "start_time": 6.0931818,
                "end_time": 6.2977273,
                "pitch": 81,
                "velocity": 64,
                "duration": 0.2045455,
                "tempo": 120.0
            },
            {
                "start_time": 6.5022727,
                "end_time": 6.7045455,
                "pitch": 81,
                "velocity": 64,
                "duration": 0.2022727,
                "tempo": 120.0
            },
            {
                "start_time": 6.9022727,
                "end_time": 7.1,
                "pitch": 81,
                "velocity": 51,
                "duration": 0.1977273,
                "tempo": 120.0
            },
            {
                "start_time": 7.1022727,
                "end_time": 7.3,
                "pitch": 81,
                "velocity": 51,
                "duration": 0.1977273,
                "tempo": 120.0
            },
            {
                "start_time": 7.5,
                "end_time": 7.7,
                "pitch": 81,
                "velocity": 32,
                "duration": 0.2,
                "tempo": 120.0
            },
            {
                "start_time": 7.9022727,
                "end_time": 8.1045455,
                "pitch": 81,
                "velocity": 32,
                "duration": 0.2022727,
                "tempo": 120.0
            },
            {
                "start_time": 8.1045455,
                "end_time": 8.3090909,
                "pitch": 81,
                "velocity": 32,
                "duration": 0.2045455,
                "tempo": 120.0
            },
            {
                "start_time": 8.5136364,
                "end_time": 8.7136364,
                "pitch": 81,
                "velocity": 16,
                "duration": 0.2,
                "tempo": 120.0
            },
            {
                "start_time": 8.9136364,
                "end_time": 9.1136364,
                "pitch": 81,
                "velocity": 16,
                "duration": 0.2,
                "tempo": 120.0
            },
            {
                "start_time": 9.1136364,
                "end_time": 9.3136364,
                "pitch": 81,
                "velocity": 13,
                "duration": 0.2,
                "tempo": 120.0
            },
            {
                "start_time": 9.5159091,
                "end_time": 9.7159091,
                "pitch": 81,
                "velocity": 13,
                "duration": 0.2,
                "tempo": 120.0
            },
            {
                "start_time": 9.9181818,
                "end_time": 10.1204545,
                "pitch": 81,
                "velocity": 10,
                "duration": 0.2022727,
                "tempo": 120.0
            },
            {
                "start_time": 10.1204545,
                "end_time": 10.3227273,
                "pitch": 81,
                "velocity": 10,
                "duration": 0.2022727,
                "tempo": 120.0
            },
            {
                "start_time": 10.5204545,
                "end_time": 10.7181818,
                "pitch": 81,
                "velocity": 10,
                "duration": 0.1977273,
                "tempo": 120.0
            },
            {
                "start_time": 10.9181818,
                "end_time": 11.1272727,
                "pitch": 81,
                "velocity": 8,
                "duration": 0.2090909,
                "tempo": 120.0
            },
            {
                "start_time": 11.1272727,
                "end_time": 11.3340909,
                "pitch": 81,
                "velocity": 8,
                "duration": 0.2068182,
                "tempo": 120.0
            }
        ],
        "Electric Guitar (clean)": [
            {
                "start_time": 0.0136364,
                "end_time": 0.2136364,
                "pitch": 33,
                "velocity": 127,
                "duration": 0.2,
                "tempo": 120.0
            },
            {
                "start_time": 0.2136364,
                "end_time": 1.6272727,
                "pitch": 38,
                "velocity": 80,
                "duration": 1.4136364,
                "tempo": 120.0
            },
            {
                "start_time": 0.2136364,
                "end_time": 1.6272727,
                "pitch": 38,
                "velocity": 127,
                "duration": 1.4136364,
                "tempo": 120.0
            },
            {
                "start_time": 1.6272727,
                "end_time": 2.0318182,
                "pitch": 40,
                "velocity": 80,
                "duration": 0.4045455,
                "tempo": 120.0
            },
            {
                "start_time": 1.6272727,
                "end_time": 2.0318182,
                "pitch": 40,
                "velocity": 80,
                "duration": 0.4045455,
                "tempo": 120.0
            },
            {
                "start_time": 2.0318182,
                "end_time": 2.2340909,
                "pitch": 36,
                "velocity": 80,
                "duration": 0.2022727,
                "tempo": 120.0
            },
            {
                "start_time": 2.0318182,
                "end_time": 2.2340909,
                "pitch": 36,
                "velocity": 80,
                "duration": 0.2022727,
                "tempo": 120.0
            },
            {
                "start_time": 2.2340909,
                "end_time": 3.0295455,
                "pitch": 34,
                "velocity": 80,
                "duration": 0.7954545,
                "tempo": 120.0
            },
            {
                "start_time": 3.0295455,
                "end_time": 3.6545455,
                "pitch": 33,
                "velocity": 80,
                "duration": 0.625,
                "tempo": 120.0
            },
            {
                "start_time": 3.6545455,
                "end_time": 3.8545455,
                "pitch": 33,
                "velocity": 80,
                "duration": 0.2,
                "tempo": 120.0
            },
            {
                "start_time": 4.25,
                "end_time": 4.45,
                "pitch": 33,
                "velocity": 80,
                "duration": 0.2,
                "tempo": 120.0
            },
            {
                "start_time": 4.65,
                "end_time": 4.8522727,
                "pitch": 33,
                "velocity": 80,
                "duration": 0.2022727,
                "tempo": 120.0
            },
            {
                "start_time": 5.2568182,
                "end_time": 5.4590909,
                "pitch": 33,
                "velocity": 80,
                "duration": 0.2022727,
                "tempo": 120.0
            },
            {
                "start_time": 5.6590909,
                "end_time": 5.8590909,
                "pitch": 33,
                "velocity": 80,
                "duration": 0.2,
                "tempo": 120.0
            },
            {
                "start_time": 6.2636364,
                "end_time": 6.4681818,
                "pitch": 33,
                "velocity": 80,
                "duration": 0.2045455,
                "tempo": 120.0
            },
            {
                "start_time": 6.6727273,
                "end_time": 6.8704545,
                "pitch": 33,
                "velocity": 51,
                "duration": 0.1977273,
                "tempo": 120.0
            },
            {
                "start_time": 7.2659091,
                "end_time": 7.4659091,
                "pitch": 33,
                "velocity": 32,
                "duration": 0.2,
                "tempo": 120.0
            },
            {
                "start_time": 7.6681818,
                "end_time": 7.8681818,
                "pitch": 33,
                "velocity": 32,
                "duration": 0.2,
                "tempo": 120.0
            },
            {
                "start_time": 8.275,
                "end_time": 8.4795455,
                "pitch": 33,
                "velocity": 20,
                "duration": 0.2045455,
                "tempo": 120.0
            },
            {
                "start_time": 8.6818182,
                "end_time": 8.8818182,
                "pitch": 33,
                "velocity": 20,
                "duration": 0.2,
                "tempo": 120.0
            },
            {
                "start_time": 9.2818182,
                "end_time": 9.4818182,
                "pitch": 33,
                "velocity": 16,
                "duration": 0.2,
                "tempo": 120.0
            },
            {
                "start_time": 9.6818182,
                "end_time": 9.8840909,
                "pitch": 33,
                "velocity": 16,
                "duration": 0.2022727,
                "tempo": 120.0
            },
            {
                "start_time": 10.2886364,
                "end_time": 10.4863636,
                "pitch": 33,
                "velocity": 13,
                "duration": 0.1977273,
                "tempo": 120.0
            },
            {
                "start_time": 10.6863636,
                "end_time": 10.8840909,
                "pitch": 33,
                "velocity": 10,
                "duration": 0.1977273,
                "tempo": 120.0
            },
            {
                "start_time": 11.3,
                "end_time": 11.5090909,
                "pitch": 33,
                "velocity": 10,
                "duration": 0.2090909,
                "tempo": 120.0
            }
        ]
    }
}