{
    "mood": "happy",
    "instruments": {
        "Lead 2 (sawtooth)": [
            {
                "start_time": 0.1363636,
                "end_time": 0.1727273,
                "pitch": 65,
                "velocity": 64,
                "duration": 0.0363636,
                "tempo": 120.0
            },
            {
                "start_time": 0.1863636,
                "end_time": 0.2863636,
                "pitch": 67,
                "velocity": 64,
                "duration": 0.1,
                "tempo": 120.0
            },
            {
                "start_time": 0.3181818,
                "end_time": 0.4181818,
                "pitch": 64,
                "velocity": 64,
                "duration": 0.1,
                "tempo": 120.0
            },
            {
                "start_time": 0.4522727,
                "end_time": 0.5022727,
                "pitch": 65,
                "velocity": 64,
                "duration": 0.05,
                "tempo": 120.0
            },
            {
                "start_time": 0.5204545,
                "end_time": 0.5704545,
                "pitch": 64,
                "velocity": 64,
                "duration": 0.05,
                "tempo": 120.0
            },
            {
                "start_time": 0.5863636,
                "end_time": 0.6363636,
                "pitch": 65,
                "velocity": 64,
                "duration": 0.05,
                "tempo": 120.0
            },
            {
                "start_time": 0.6522727,
                "end_time": 0.7022727,
                "pitch": 67,
                "velocity": 64,
                "duration": 0.05,
                "tempo": 120.0
            },
            {
                "start_time": 0.7204545,
                "end_time": 0.9204545,
                "pitch": 65,
                "velocity": 64,
                "duration": 0.2,
                "tempo": 120.0
            }
        ],
        "Church Organ": [
            {
                "start_time": 0.1363636,
                "end_time": 0.1727273,
                "pitch": 77,
                "velocity": 32,
                "duration": 0.0363636,
                "tempo": 120.0
            },
            {
                "start_time": 0.1863636,
                "end_time": 0.2863636,
                "pitch": 79,
                "velocity": 32,
                "duration": 0.1,
                "tempo": 120.0
            },
            {
                "start_time": 0.3181818,
                "end_time": 0.4181818,
                "pitch": 76,
                "velocity": 32,
                "duration": 0.1,
                "tempo": 120.0
            },
            {
                "start_time": 0.4522727,
                "end_time": 0.5022727,
                "pitch": 77,
                "velocity": 32,
                "duration": 0.05,
                "tempo": 120.0
            },
            {
                "start_time": 0.5204545,
                "end_time": 0.5704545,
                "pitch": 76,
                "velocity": 32,
                "duration": 0.05,
                "tempo": 120.0
            },
            {
                "start_time": 0.5863636,
                "end_time": 0.6363636,
                "pitch": 77,
                "velocity": 32,
                "duration": 0.05,
                "tempo": 120.0
            },
            {
                "start_time": 0.6522727,
                "end_time": 0.7022727,
                "pitch": 79,
                "velocity": 32,
                "duration": 0.05,
                "tempo": 120.0
            },
            {
                "start_time": 0.7204545,
                "end_time": 0.9204545,
                "pitch": 77,
                "velocity": 32,
                "duration": 0.2,
                "tempo": 120.0
            }
        ],
        "Synth Bass 1": [
            {
                "start_time": 0.1863636,
                "end_time": 0.3863636,
                "pitch": 46,
                "velocity": 64,
                "duration": 0.2,
                "tempo": 120.0
            },
            {
                "start_time": 0.4522727,
                "end_time": 0.5522727,
                "pitch": 45,
                "velocity": 64,
                "duration": 0.1,
                "tempo": 120.0
            },
            {
                "start_time": 0.5863636,
                "end_time": 0.6863636,
                "pitch": 43,
                "velocity": 64,
                "duration": 0.1,
                "tempo": 120.0
            },
            {
                "start_time": 0.7204545,
                "end_time": 0.9204545,
                "pitch": 41,
                "velocity": 64,
                "duration": 0.2,
                "tempo": 120.0
            }
        ]
    }
}