{
    "mood": "happy",
    "instruments": {
        "Trumpet": [
            {
                "start_time": 0.4340909,
                "end_time": 0.6,
                "pitch": 74,
                "velocity": 80,
                "duration": 0.1659091,
                "tempo": 120.0
            },
            {
                "start_time": 0.6340909,
                "end_time": 1.0,
                "pitch": 73,
                "velocity": 80,
                "duration": 0.3659091,
                "tempo": 120.0
            },
            {
                "start_time": 1.0340909,
                "end_time": 1.2,
                "pitch": 73,
                "velocity": 80,
                "duration": 0.1659091,
                "tempo": 120.0
            },
            {
                "start_time": 1.2340909,
                "end_time": 1.4,
                "pitch": 74,
                "velocity": 80,
                "duration": 0.1659091,
                "tempo": 120.0
            },
            {
                "start_time": 1.4340909,
                "end_time": 2.0022727,
                "pitch": 73,
                "velocity": 80,
                "duration": 0.5681818,
                "tempo": 120.0
            },
            {
                "start_time": 2.0363636,
                "end_time": 2.2022727,
                "pitch": 73,
                "velocity": 80,
                "duration": 0.1659091,
                "tempo": 120.0
            },
            {
                "start_time": 2.2363636,
                "end_time": 2.6022727,
                "pitch": 76,
                "velocity": 80,
                "duration": 0.3659091,
                "tempo": 120.0
            },
            {
                "start_time": 2.6363636,
                "end_time": 2.8022727,
                "pitch": 74,
                "velocity": 80,
                "duration": 0.1659091,
                "tempo": 120.0
            },
            {
                "start_time": 2.8363636,
                "end_time": 3.0022727,
                "pitch": 73,
                "velocity": 80,
                "duration": 0.1659091,
                "tempo": 120.0
            },
            {
                "start_time": 3.0363636,
                "end_time": 3.2022727,
                "pitch": 74,
                "velocity": 80,
                "duration": 0.1659091,
                "tempo": 120.0
            },
            {
                "start_time": 3.2363636,
                "end_time": 3.6045455,
                "pitch": 73,
                "velocity": 80,
                "duration": 0.3681818,
                "tempo": 120.0
            },
            {
                "start_time": 3.6386364,
                "end_time": 3.8045455,
                "pitch": 74,
                "velocity": 80,
                "duration": 0.1659091,
                "tempo": 120.0
            },
            {
                "start_time": 3.8386364,
                "end_time": 4.2045455,
                "pitch": 73,
                "velocity": 80,
                "duration": 0.3659091,
                "tempo": 120.0
            },
            {
                "start_time": 4.2386364,
                "end_time": 4.4045455,
                "pitch": 73,
                "velocity": 80,
                "duration": 0.1659091,
                "tempo": 120.0
            },
            {
                "start_time": 4.4386364,
                "end_time": 4.6068182,
                "pitch": 74,
                "velocity": 80,
                "duration": 0.1681818,
                "tempo": 120.0
            },
            {
                "start_time": 4.6409091,
                "end_time": 5.2090909,
                "pitch": 73,
                "velocity": 80,
                "duration": 0.5681818,
                "tempo": 120.0
            },
            {
                "start_time": 5.2409091,
                "end_time": 5.4090909,
                "pitch": 73,
                "velocity": 80,
                "duration": 0.1681818,
                "tempo": 120.0
            },
            {
                "start_time": 5.4431818,
                "end_time": 5.8113636,
                "pitch": 76,
                "velocity": 80,
                "duration": 0.3681818,
                "tempo": 120.0
            },
            {
                "start_time": 5.8431818,
                "end_time": 6.0113636,
                "pitch": 74,
                "velocity": 80,
                "duration": 0.1681818,
                "tempo": 120.0
            },
            {
                "start_time": 6.0431818,
                "end_time": 6.2113636,
                "pitch": 73,
                "velocity": 80,
                "duration": 0.1681818,
                "tempo": 120.0
            },
            {
                "start_time": 6.2454545,
                "end_time": 6.4136364,
                "pitch": 74,
                "velocity": 80,
                "duration": 0.1681818,
                "tempo": 120.0
            },
            {
                "start_time": 6.4477273,
                "end_time": 6.8159091,
                "pitch": 73,
                "velocity": 80,
                "duration": 0.3681818,
                "tempo": 120.0
            },
            {
                "start_time": 6.85,
                "end_time": 7.0159091,
                "pitch": 74,
                "velocity": 80,
                "duration": 0.1659091,
                "tempo": 120.0
            },
            {
                "start_time": 7.05,
                "end_time": 7.4181818,
                "pitch": 73,
                "velocity": 80,
                "duration": 0.3681818,
                "tempo": 120.0
            },
            {
                "start_time": 7.45,
                "end_time": 7.6181818,
                "pitch": 73,
                "velocity": 80,
                "duration": 0.1681818,
                "tempo": 120.0
            },
            {
                "start_time": 7.6522727,
                "end_time": 7.8181818,
                "pitch": 74,
                "velocity": 80,
                "duration": 0.1659091,
                "tempo": 120.0
            },
            {
                "start_time": 7.8522727,
                "end_time": 8.4204545,
                "pitch": 73,
                "velocity": 80,
                "duration": 0.5681818,
                "tempo": 120.0
            },
            {
                "start_time": 8.4545455,
                "end_time": 8.6227273,
                "pitch": 73,
                "velocity": 80,
                "duration": 0.1681818,
                "tempo": 120.0
            },
            {
                "start_time": 8.6568182,
                "end_time": 9.025,
                "pitch": 76,
                "velocity": 80,
                "duration": 0.3681818,
                "tempo": 120.0
            },
            {
                "start_time": 9.0590909,
                "end_time": 9.2272727,
                "pitch": 74,
                "velocity": 80,
                "duration": 0.1681818,
                "tempo": 120.0
            },
            {
                "start_time": 9.2590909,
                "end_time": 9.4272727,
                "pitch": 73,
                "velocity": 80,
                "duration": 0.1681818,
                "tempo": 120.0
            },
            {
                "start_time": 9.4590909,
                "end_time": 9.6272727,
                "pitch": 74,
                "velocity": 80,
                "duration": 0.1681818,
                "tempo": 120.0
            },
            {
                "start_time": 9.6613636,
                "end_time": 10.0295455,
                "pitch": 73,
                "velocity": 80,
                "duration": 0.3681818,
                "tempo": 120.0
            },
            {
                "start_time": 10.0636364,
                "end_time": 10.4318182,
                "pitch": 74,
                "velocity": 80,
                "duration": 0.3681818,
                "tempo": 120.0
            },
            {
                "start_time": 10.4659091,
                "end_time": 10.55,
                "pitch": 74,
                "velocity": 80,
                "duration": 0.0840909,
                "tempo": 120.0
            },
            {
                "start_time": 10.55,
                "end_time": 10.6340909,
                "pitch": 76,
                "velocity": 80,
                "duration": 0.0840909,
                "tempo": 120.0
            },
            {
                "start_time": 10.6681818,
                "end_time": 10.75,
                "pitch": 78,
                "velocity": 80,
                "duration": 0.0818182,
                "tempo": 120.0
            },
            {
                "start_time": 10.75,
                "end_time": 10.8340909,
                "pitch": 79,
                "velocity": 80,
                "duration": 0.0840909,
                "tempo": 120.0
            },
            {
                "start_time": 10.8681818,
                "end_time": 10.9522727,
                "pitch": 76,
                "velocity": 80,
                "duration": 0.0840909,
                "tempo": 120.0
            },
            {
                "start_time": 10.9522727,
                "end_time": 11.0363636,
                "pitch": 78,
                "velocity": 80,
                "duration": 0.0840909,
                "tempo": 120.0
            },
            {
                "start_time": 11.0704545,
                "end_time": 11.1545455,
                "pitch": 79,
                "velocity": 80,
                "duration": 0.0840909,
                "tempo": 120.0
            },
            {
                "start_time": 11.1545455,
                "end_time": 11.4386364,
                "pitch": 81,
                "velocity": 80,
                "duration": 0.2840909,
                "tempo": 120.0
            },
            {
                "start_time": 11.4704545,
                "end_time": 11.5545455,
                "pitch": 79,
                "velocity": 80,
                "duration": 0.0840909,
                "tempo": 120.0
            },
            {
                "start_time": 11.5545455,
                "end_time": 11.6386364,
                "pitch": 78,
                "velocity": 80,
                "duration": 0.0840909,
                "tempo": 120.0
            },
            {
                "start_time": 11.6704545,
                "end_time": 11.7545455,
                "pitch": 76,
                "velocity": 80,
                "duration": 0.0840909,
                "tempo": 120.0
            },
            {
                "start_time": 11.7545455,
                "end_time": 11.8386364,
                "pitch": 74,
                "velocity": 80,
                "duration": 0.0840909,
                "tempo": 120.0
            },
            {
                "start_time": 11.8727273,
                "end_time": 11.9568182,
                "pitch": 76,
                "velocity": 80,
                "duration": 0.0840909,
                "tempo": 120.0
            },
            {
                "start_time": 11.9568182,
                "end_time": 12.0409091,
                "pitch": 78,
                "velocity": 80,
                "duration": 0.0840909,
                "tempo": 120.0
            },
            {
                "start_time": 12.0727273,
                "end_time": 12.2409091,
                "pitch": 79,
                "velocity": 80,
                "duration": 0.1681818,
                "tempo": 120.0
            },
            {
                "start_time": 12.275,
                "end_time": 12.4431818,
                "pitch": 81,
                "velocity": 80,
                "duration": 0.1681818,
                "tempo": 120.0
            },
            {
                "start_time": 12.4772727,
                "end_time": 12.6431818,
                "pitch": 79,
                "velocity": 80,
                "duration": 0.1659091,
                "tempo": 120.0
            },
            {
                "start_time": 12.6772727,
                "end_time": 12.8454545,
                "pitch": 81,
                "velocity": 80,
                "duration": 0.1681818,
                "tempo": 120.0
            },
            {
                "start_time": 12.8795455,
                "end_time": 13.4477273,
                "pitch": 71,
                "velocity": 80,
                "duration": 0.5681818,
                "tempo": 120.0
            },
            {
                "start_time": 13.4818182,
                "end_time": 13.5659091,
                "pitch": 69,
                "velocity": 80,
                "duration": 0.0840909,
                "tempo": 120.0
            },
            {
                "start_time": 13.5659091,
                "end_time": 13.6477273,
                "pitch": 71,
                "velocity": 80,
                "duration": 0.0818182,
                "tempo": 120.0
            },
            {
                "start_time": 13.6818182,
                "end_time": 15.4590909,
                "pitch": 66,
                "velocity": 80,
                "duration": 1.7772727,
                "tempo": 120.0
            },
            {
                "start_time": 15.4931818,
                "end_time": 15.6590909,
                "pitch": 69,
                "velocity": 80,
                "duration": 0.1659091,
                "tempo": 120.0
            },
            {
                "start_time": 15.6931818,
                "end_time": 15.8613636,
                "pitch": 71,
                "velocity": 80,
                "duration": 0.1681818,
                "tempo": 120.0
            },
            {
                "start_time": 15.8931818,
                "end_time": 16.0613636,
                "pitch": 69,
                "velocity": 80,
                "duration": 0.1681818,
                "tempo": 120.0
            },
            {
                "start_time": 16.0954545,
                "end_time": 17.4681818,
                "pitch": 74,
                "velocity": 80,
                "duration": 1.3727273,
                "tempo": 120.0
            },
            {
                "start_time": 17.5,
                "end_time": 17.5840909,
                "pitch": 73,
                "velocity": 80,
                "duration": 0.0840909,
                "tempo": 120.0
            },
            {
                "start_time": 17.5840909,
                "end_time": 17.6681818,
                "pitch": 71,
                "velocity": 80,
                "duration": 0.0840909,
                "tempo": 120.0
            },
            {
                "start_time": 17.7,
                "end_time": 18.6704545,
                "pitch": 71,
                "velocity": 80,
                "duration": 0.9704545,
                "tempo": 120.0
            },
            {
                "start_time": 18.7022727,
                "end_time": 18.8704545,
                "pitch": 64,
                "velocity": 80,
                "duration": 0.1681818,
                "tempo": 120.0
            },
            {
                "start_time": 18.9022727,
                "end_time": 19.0704545,
                "pitch": 66,
                "velocity": 80,
                "duration": 0.1681818,
                "tempo": 120.0
            },
            {
                "start_time": 19.1045455,
                "end_time": 19.2727273,
                "pitch": 67,
                "velocity": 80,
                "duration": 0.1681818,
                "tempo": 120.0
            },
            {
                "start_time": 19.3068182,
                "end_time": 19.8727273,
                "pitch": 71,
                "velocity": 80,
                "duration": 0.5659091,
                "tempo": 120.0
            },
            {
                "start_time": 19.9068182,
                "end_time": 19.9909091,
                "pitch": 69,
                "velocity": 80,
                "duration": 0.0840909,
                "tempo": 120.0
            },
            {
                "start_time": 19.9909091,
                "end_time": 20.075,
                "pitch": 71,
                "velocity": 80,
                "duration": 0.0840909,
                "tempo": 120.0
            },
            {
                "start_time": 20.1090909,
                "end_time": 21.8795455,
                "pitch": 66,
                "velocity": 80,
                "duration": 1.7704545,
                "tempo": 120.0
            },
            {
                "start_time": 21.9136364,
                "end_time": 22.0795455,
                "pitch": 69,
                "velocity": 80,
                "duration": 0.1659091,
                "tempo": 120.0
            },
            {
                "start_time": 22.1136364,
                "end_time": 22.2795455,
                "pitch": 71,
                "velocity": 80,
                "duration": 0.1659091,
                "tempo": 120.0
            },
            {
                "start_time": 22.3136364,
                "end_time": 22.4795455,
                "pitch": 69,
                "velocity": 80,
                "duration": 0.1659091,
                "tempo": 120.0
            },
            {
                "start_time": 22.5136364,
                "end_time": 22.5977273,
                "pitch": 69,
                "velocity": 80,
                "duration": 0.0840909,
                "tempo": 120.0
            },
            {
                "start_time": 22.5977273,
                "end_time": 22.6795455,
                "pitch": 67,
                "velocity": 80,
                "duration": 0.0818182,
                "tempo": 120.0
            },
            {
                "start_time": 22.7136364,
                "end_time": 22.7977273,
                "pitch": 66,
                "velocity": 80,
                "duration": 0.0840909,
                "tempo": 120.0
            },
            {
                "start_time": 22.7977273,
                "end_time": 22.8795455,
                "pitch": 64,
                "velocity": 80,
                "duration": 0.0818182,
                "tempo": 120.0
            },
            {
                "start_time": 22.9136364,
                "end_time": 22.9977273,
                "pitch": 69,
                "velocity": 80,
                "duration": 0.0840909,
                "tempo": 120.0
            },
            {
                "start_time": 22.9977273,
                "end_time": 23.0818182,
                "pitch": 71,
                "velocity": 80,
                "duration": 0.0840909,
                "tempo": 120.0
            },
            {
                "start_time": 23.1159091,
                "end_time": 23.2,
                "pitch": 73,
                "velocity": 80,
                "duration": 0.0840909,
                "tempo": 120.0
            },
            {
                "start_time": 23.2,
                "end_time": 23.2840909,
                "pitch": 74,
                "velocity": 80,
                "duration": 0.0840909,
                "tempo": 120.0
            },
            {
                "start_time": 23.3159091,
                "end_time": 23.4,
                "pitch": 76,
                "velocity": 80,
                "duration": 0.0840909,
                "tempo": 120.0
            },
            {
                "start_time": 23.4,
                "end_time": 23.4840909,
                "pitch": 78,
                "velocity": 80,
                "duration": 0.0840909,
                "tempo": 120.0
            },
            {
                "start_time": 23.5159091,
                "end_time": 23.6,
                "pitch": 79,
                "velocity": 80,
                "duration": 0.0840909,
                "tempo": 120.0
            },
            {
                "start_time": 23.6,
                "end_time": 23.8840909,
                "pitch": 81,
                "velocity": 80,
                "duration": 0.2840909,
                "tempo": 120.0
            },
            {
                "start_time": 23.9181818,
                "end_time": 24.0022727,
                "pitch": 79,
                "velocity": 80,
                "duration": 0.0840909,
                "tempo": 120.0
            },
            {
                "start_time": 24.0022727,
                "end_time": 24.0863636,
                "pitch": 78,
                "velocity": 80,
                "duration": 0.0840909,
                "tempo": 120.0
            },
            {
                "start_time": 24.1181818,
                "end_time": 25.0863636,
                "pitch": 79,
                "velocity": 80,
                "duration": 0.9681818,
                "tempo": 120.0
            },
            {
                "start_time": 25.1204545,
                "end_time": 25.2886364,
                "pitch": 76,
                "velocity": 80,
                "duration": 0.1681818,
                "tempo": 120.0
            },
            {
                "start_time": 25.3227273,
                "end_time": 25.4886364,
                "pitch": 78,
                "velocity": 80,
                "duration": 0.1659091,
                "tempo": 120.0
            },
            {
                "start_time": 25.5227273,
                "end_time": 25.6886364,
                "pitch": 79,
                "velocity": 80,
                "duration": 0.1659091,
                "tempo": 120.0
            },
            {
                "start_time": 25.7227273,
                "end_time": 40.4840909,
                "pitch": 67,
                "velocity": 80,
                "duration": 14.7613636,
                "tempo": 120.0
            },
            {
                "start_time": 40.4840909,
                "end_time": 40.5181818,
                "pitch": 71,
                "velocity": 80,
                "duration": 0.0340909,
                "tempo": 120.0
            },
            {
                "start_time": 40.5522727,
                "end_time": 40.7181818,
                "pitch": 76,
                "velocity": 80,
                "duration": 0.1659091,
                "tempo": 120.0
            },
            {
                "start_time": 40.7522727,
                "end_time": 41.1181818,
                "pitch": 73,
                "velocity": 80,
                "duration": 0.3659091,
                "tempo": 120.0
            },
            {
                "start_time": 41.1522727,
                "end_time": 41.5204545,
                "pitch": 74,
                "velocity": 80,
                "duration": 0.3681818,
                "tempo": 120.0
            },
            {
                "start_time": 41.5522727,
                "end_time": 41.9204545,
                "pitch": 76,
                "velocity": 80,
                "duration": 0.3681818,
                "tempo": 120.0
            },
            {
                "start_time": 41.9545455,
                "end_time": 42.3204545,
                "pitch": 79,
                "velocity": 80,
                "duration": 0.3659091,
                "tempo": 120.0
            },
            {
                "start_time": 42.3545455,
                "end_time": 42.7204545,
                "pitch": 81,
                "velocity": 80,
                "duration": 0.3659091,
                "tempo": 120.0
            },
            {
                "start_time": 42.7545455,
                "end_time": 42.9204545,
                "pitch": 83,
                "velocity": 80,
                "duration": 0.1659091,
                "tempo": 120.0
            },
            {
                "start_time": 42.9545455,
                "end_time": 43.1204545,
                "pitch": 86,
                "velocity": 80,
                "duration": 0.1659091,
                "tempo": 120.0
            },
            {
                "start_time": 43.1545455,
                "end_time": 43.3204545,
                "pitch": 83,
                "velocity": 80,
                "duration": 0.1659091,
                "tempo": 120.0
            },
            {
                "start_time": 43.3545455,
                "end_time": 43.7227273,
                "pitch": 81,
                "velocity": 80,
                "duration": 0.3681818,
                "tempo": 120.0
            },
            {
                "start_time": 43.7568182,
                "end_time": 43.9227273,
                "pitch": 83,
                "velocity": 80,
                "duration": 0.1659091,
                "tempo": 120.0
            },
            {
                "start_time": 43.9568182,
                "end_time": 44.3227273,
                "pitch": 78,
                "velocity": 80,
                "duration": 0.3659091,
                "tempo": 120.0
            },
            {
                "start_time": 44.3568182,
                "end_time": 44.5227273,
                "pitch": 81,
                "velocity": 80,
                "duration": 0.1659091,
                "tempo": 120.0
            },
            {
                "start_time": 44.5568182,
                "end_time": 44.7227273,
                "pitch": 83,
                "velocity": 80,
                "duration": 0.1659091,
                "tempo": 120.0
            },
            {
                "start_time": 44.7568182,
                "end_time": 45.1227273,
                "pitch": 74,
                "velocity": 80,
                "duration": 0.3659091,
                "tempo": 120.0
            },
            {
                "start_time": 45.1568182,
                "end_time": 45.525,
                "pitch": 76,
                "velocity": 80,
                "duration": 0.3681818,
                "tempo": 120.0
            },
            {
                "start_time": 45.5590909,
                "end_time": 45.9272727,
                "pitch": 73,
                "velocity": 80,
                "duration": 0.3681818,
                "tempo": 120.0
            },
            {
                "start_time": 45.9590909,
                "end_time": 46.5272727,
                "pitch": 74,
                "velocity": 80,
                "duration": 0.5681818,
                "tempo": 120.0
            },
            {
                "start_time": 46.5590909,
                "end_time": 46.9272727,
                "pitch": 74,
                "velocity": 80,
                "duration": 0.3681818,
                "tempo": 120.0
            },
            {
                "start_time": 46.9590909,
                "end_time": 47.1272727,
                "pitch": 73,
                "velocity": 80,
                "duration": 0.1681818,
                "tempo": 120.0
            },
            {
                "start_time": 47.1590909,
                "end_time": 47.3272727,
                "pitch": 74,
                "velocity": 80,
                "duration": 0.1681818,
                "tempo": 120.0
            },
            {
                "start_time": 47.3590909,
                "end_time": 47.5272727,
                "pitch": 76,
                "velocity": 80,
                "duration": 0.1681818,
                "tempo": 120.0
            },
            {
                "start_time": 47.5613636,
                "end_time": 47.7295455,
                "pitch": 74,
                "velocity": 80,
                "duration": 0.1681818,
                "tempo": 120.0
            },
            {
                "start_time": 47.7613636,
                "end_time": 47.9295455,
                "pitch": 73,
                "velocity": 80,
                "duration": 0.1681818,
                "tempo": 120.0
            },
            {
                "start_time": 47.9613636,
                "end_time": 48.5295455,
                "pitch": 76,
                "velocity": 80,
                "duration": 0.5681818,
                "tempo": 120.0
            },
            {
                "start_time": 48.5613636,
                "end_time": 48.7295455,
                "pitch": 83,
                "velocity": 80,
                "duration": 0.1681818,
                "tempo": 120.0
            },
            {
                "start_time": 48.7613636,
                "end_time": 49.1295455,
                "pitch": 76,
                "velocity": 80,
                "duration": 0.3681818,
                "tempo": 120.0
            },
            {
                "start_time": 49.1613636,
                "end_time": 49.3295455,
                "pitch": 86,
                "velocity": 80,
                "duration": 0.1681818,
                "tempo": 120.0
            },
            {
                "start_time": 49.3636364,
                "end_time": 49.7386364,
                "pitch": 85,
                "velocity": 80,
                "duration": 0.375,
                "tempo": 120.0
            },
            {
                "start_time": 49.7727273,
                "end_time": 50.1318182,
                "pitch": 83,
                "velocity": 80,
                "duration": 0.3590909,
                "tempo": 120.0
            },
            {
                "start_time": 50.1659091,
                "end_time": 50.3318182,
                "pitch": 81,
                "velocity": 80,
                "duration": 0.1659091,
                "tempo": 120.0
            },
            {
                "start_time": 50.3659091,
                "end_time": 50.7318182,
                "pitch": 81,
                "velocity": 80,
                "duration": 0.3659091,
                "tempo": 120.0
            },
            {
                "start_time": 50.7659091,
                "end_time": 50.9318182,
                "pitch": 78,
                "velocity": 80,
                "duration": 0.1659091,
                "tempo": 120.0
            },
            {
                "start_time": 50.9659091,
                "end_time": 51.0477273,
                "pitch": 76,
                "velocity": 80,
                "duration": 0.0818182,
                "tempo": 120.0
            },
            {
                "start_time": 51.0477273,
                "end_time": 51.1318182,
                "pitch": 78,
                "velocity": 80,
                "duration": 0.0840909,
                "tempo": 120.0
            },
            {
                "start_time": 51.1659091,
                "end_time": 51.3318182,
                "pitch": 73,
                "velocity": 80,
                "duration": 0.1659091,
                "tempo": 120.0
            }
        ],
        "Church Organ": [
            {
                "start_time": 26.125,
                "end_time": 26.2909091,
                "pitch": 69,
                "velocity": 80,
                "duration": 0.1659091,
                "tempo": 120.0
            },
            {
                "start_time": 26.325,
                "end_time": 26.6909091,
                "pitch": 71,
                "velocity": 80,
                "duration": 0.3659091,
                "tempo": 120.0
            },
            {
                "start_time": 26.725,
                "end_time": 26.8909091,
                "pitch": 73,
                "velocity": 80,
                "duration": 0.1659091,
                "tempo": 120.0
            },
            {
                "start_time": 26.925,
                "end_time": 27.0931818,
                "pitch": 74,
                "velocity": 80,
                "duration": 0.1681818,
                "tempo": 120.0
            },
            {
                "start_time": 27.1272727,
                "end_time": 27.4931818,
                "pitch": 76,
                "velocity": 80,
                "duration": 0.3659091,
                "tempo": 120.0
            },
            {
                "start_time": 27.5272727,
                "end_time": 27.6931818,
                "pitch": 76,
                "velocity": 80,
                "duration": 0.1659091,
                "tempo": 120.0
            },
            {
                "start_time": 27.7272727,
                "end_time": 27.8954545,
                "pitch": 73,
                "velocity": 80,
                "duration": 0.1681818,
                "tempo": 120.0
            },
            {
                "start_time": 27.9295455,
                "end_time": 28.2977273,
                "pitch": 74,
                "velocity": 80,
                "duration": 0.3681818,
                "tempo": 120.0
            },
            {
                "start_time": 28.3295455,
                "end_time": 28.4977273,
                "pitch": 76,
                "velocity": 80,
                "duration": 0.1681818,
                "tempo": 120.0
            },
            {
                "start_time": 28.5295455,
                "end_time": 28.6977273,
                "pitch": 78,
                "velocity": 80,
                "duration": 0.1681818,
                "tempo": 120.0
            },
            {
                "start_time": 28.7295455,
                "end_time": 28.8977273,
                "pitch": 76,
                "velocity": 80,
                "duration": 0.1681818,
                "tempo": 120.0
            },
            {
                "start_time": 28.9295455,
                "end_time": 29.5,
                "pitch": 83,
                "velocity": 80,
                "duration": 0.5704545,
                "tempo": 120.0
            },
            {
                "start_time": 29.5318182,
                "end_time": 29.9,
                "pitch": 81,
                "velocity": 80,
                "duration": 0.3681818,
                "tempo": 120.0
            },
            {
                "start_time": 29.9340909,
                "end_time": 30.3022727,
                "pitch": 83,
                "velocity": 80,
                "duration": 0.3681818,
                "tempo": 120.0
            },
            {
                "start_time": 30.3363636,
                "end_time": 30.7022727,
                "pitch": 85,
                "velocity": 80,
                "duration": 0.3659091,
                "tempo": 120.0
            },
            {
                "start_time": 30.7363636,
                "end_time": 31.1022727,
                "pitch": 83,
                "velocity": 80,
                "duration": 0.3659091,
                "tempo": 120.0
            },
            {
                "start_time": 31.1363636,
                "end_time": 31.5045455,
                "pitch": 86,
                "velocity": 80,
                "duration": 0.3681818,
                "tempo": 120.0
            },
            {
                "start_time": 31.5386364,
                "end_time": 31.7045455,
                "pitch": 74,
                "velocity": 80,
                "duration": 0.1659091,
                "tempo": 120.0
            },
            {
                "start_time": 31.7386364,
                "end_time": 32.1068182,
                "pitch": 74,
                "velocity": 80,
                "duration": 0.3681818,
                "tempo": 120.0
            },
            {
                "start_time": 32.1409091,
                "end_time": 32.5068182,
                "pitch": 67,
                "velocity": 80,
                "duration": 0.3659091,
                "tempo": 120.0
            },
            {
                "start_time": 32.5409091,
                "end_time": 32.7068182,
                "pitch": 69,
                "velocity": 80,
                "duration": 0.1659091,
                "tempo": 120.0
            },
            {
                "start_time": 32.7409091,
                "end_time": 33.1068182,
                "pitch": 71,
                "velocity": 80,
                "duration": 0.3659091,
                "tempo": 120.0
            },
            {
                "start_time": 33.1409091,
                "end_time": 33.5090909,
                "pitch": 73,
                "velocity": 80,
                "duration": 0.3681818,
                "tempo": 120.0
            },
            {
                "start_time": 33.5431818,
                "end_time": 33.7090909,
                "pitch": 74,
                "velocity": 80,
                "duration": 0.1659091,
                "tempo": 120.0
            },
            {
                "start_time": 33.7431818,
                "end_time": 33.9090909,
                "pitch": 76,
                "velocity": 80,
                "duration": 0.1659091,
                "tempo": 120.0
            },
            {
                "start_time": 33.9431818,
                "end_time": 34.1090909,
                "pitch": 74,
                "velocity": 80,
                "duration": 0.1659091,
                "tempo": 120.0
            },
            {
                "start_time": 34.1431818,
                "end_time": 34.3090909,
                "pitch": 73,
                "velocity": 80,
                "duration": 0.1659091,
                "tempo": 120.0
            },
            {
                "start_time": 34.3431818,
                "end_time": 34.7090909,
                "pitch": 78,
                "velocity": 80,
                "duration": 0.3659091,
                "tempo": 120.0
            },
            {
                "start_time": 34.7431818,
                "end_time": 34.9090909,
                "pitch": 78,
                "velocity": 80,
                "duration": 0.1659091,
                "tempo": 120.0
            },
            {
                "start_time": 34.9431818,
                "end_time": 35.1090909,
                "pitch": 74,
                "velocity": 80,
                "duration": 0.1659091,
                "tempo": 120.0
            },
            {
                "start_time": 35.1431818,
                "end_time": 35.3090909,
                "pitch": 76,
                "velocity": 80,
                "duration": 0.1659091,
                "tempo": 120.0
            },
            {
                "start_time": 35.3431818,
                "end_time": 35.7136364,
                "pitch": 83,
                "velocity": 80,
                "duration": 0.3704545,
                "tempo": 120.0
            },
            {
                "start_time": 35.7454545,
                "end_time": 35.9136364,
                "pitch": 81,
                "velocity": 80,
                "duration": 0.1681818,
                "tempo": 120.0
            },
            {
                "start_time": 35.9454545,
                "end_time": 36.3136364,
                "pitch": 83,
                "velocity": 80,
                "duration": 0.3681818,
                "tempo": 120.0
            },
            {
                "start_time": 36.3454545,
                "end_time": 36.5136364,
                "pitch": 86,
                "velocity": 80,
                "duration": 0.1681818,
                "tempo": 120.0
            },
            {
                "start_time": 36.5454545,
                "end_time": 36.7136364,
                "pitch": 83,
                "velocity": 80,
                "duration": 0.1681818,
                "tempo": 120.0
            },
            {
                "start_time": 36.7454545,
                "end_time": 36.9136364,
                "pitch": 81,
                "velocity": 80,
                "duration": 0.1681818,
                "tempo": 120.0
            }
        ],
        "Acoustic Bass": [
            {
                "start_time": 0.0340909,
                "end_time": 0.2,
                "pitch": 38,
                "velocity": 101,
                "duration": 0.1659091,
                "tempo": 120.0
            },
            {
                "start_time": 0.2340909,
                "end_time": 0.4,
                "pitch": 50,
                "velocity": 80,
                "duration": 0.1659091,
                "tempo": 120.0
            },
            {
                "start_time": 0.4340909,
                "end_time": 0.6,
                "pitch": 38,
                "velocity": 80,
                "duration": 0.1659091,
                "tempo": 120.0
            },
            {
                "start_time": 0.6340909,
                "end_time": 0.8,
                "pitch": 50,
                "velocity": 80,
                "duration": 0.1659091,
                "tempo": 120.0
            },
            {
                "start_time": 0.8340909,
                "end_time": 1.0,
                "pitch": 38,
                "velocity": 80,
                "duration": 0.1659091,
                "tempo": 120.0
            },
            {
                "start_time": 1.0340909,
                "end_time": 1.2,
                "pitch": 50,
                "velocity": 80,
                "duration": 0.1659091,
                "tempo": 120.0
            },
            {
                "start_time": 1.2340909,
                "end_time": 1.4,
                "pitch": 38,
                "velocity": 80,
                "duration": 0.1659091,
                "tempo": 120.0
            },
            {
                "start_time": 1.4340909,
                "end_time": 1.6,
                "pitch": 50,
                "velocity": 80,
                "duration": 0.1659091,
                "tempo": 120.0
            },
            {
                "start_time": 1.6340909,
                "end_time": 1.8022727,
                "pitch": 38,
                "velocity": 80,
                "duration": 0.1681818,
                "tempo": 120.0
            },
            {
                "start_time": 1.8340909,
                "end_time": 2.0022727,
                "pitch": 50,
                "velocity": 80,
                "duration": 0.1681818,
                "tempo": 120.0
            },
            {
                "start_time": 2.0363636,
                "end_time": 2.2022727,
                "pitch": 38,
                "velocity": 80,
                "duration": 0.1659091,
                "tempo": 120.0
            },
            {
                "start_time": 2.2363636,
                "end_time": 2.4022727,
                "pitch": 50,
                "velocity": 80,
                "duration": 0.1659091,
                "tempo": 120.0
            },
            {
                "start_time": 2.4363636,
                "end_time": 2.6022727,
                "pitch": 38,
                "velocity": 80,
                "duration": 0.1659091,
                "tempo": 120.0
            },
            {
                "start_time": 2.6363636,
                "end_time": 2.8022727,
                "pitch": 50,
                "velocity": 80,
                "duration": 0.1659091,
                "tempo": 120.0
            },
            {
                "start_time": 2.8363636,
                "end_time": 3.0022727,
                "pitch": 38,
                "velocity": 80,
                "duration": 0.1659091,
                "tempo": 120.0
            },
            {
                "start_time": 3.0363636,
                "end_time": 3.2022727,
                "pitch": 50,
                "velocity": 80,
                "duration": 0.1659091,
                "tempo": 120.0
            },
            {
                "start_time": 3.2363636,
                "end_time": 3.4045455,
                "pitch": 38,
                "velocity": 80,
                "duration": 0.1681818,
                "tempo": 120.0
            },
            {
                "start_time": 3.4386364,
                "end_time": 3.6045455,
                "pitch": 50,
                "velocity": 80,
                "duration": 0.1659091,
                "tempo": 120.0
            },
            {
                "start_time": 3.6386364,
                "end_time": 3.8045455,
                "pitch": 38,
                "velocity": 80,
                "duration": 0.1659091,
                "tempo": 120.0
            },
            {
                "start_time": 3.8386364,
                "end_time": 4.0045455,
                "pitch": 50,
                "velocity": 80,
                "duration": 0.1659091,
                "tempo": 120.0
            },
            {
                "start_time": 4.0386364,
                "end_time": 4.2045455,
                "pitch": 38,
                "velocity": 80,
                "duration": 0.1659091,
                "tempo": 120.0
            },
            {
                "start_time": 4.2386364,
                "end_time": 4.4045455,
                "pitch": 50,
                "velocity": 80,
                "duration": 0.1659091,
                "tempo": 120.0
            },
            {
                "start_time": 4.4386364,
                "end_time": 4.6068182,
                "pitch": 38,
                "velocity": 80,
                "duration": 0.1681818,
                "tempo": 120.0
            },
            {
                "start_time": 4.6409091,
                "end_time": 4.8090909,
                "pitch": 50,
                "velocity": 80,
                "duration": 0.1681818,
                "tempo": 120.0
            },
            {
                "start_time": 4.8409091,
                "end_time": 5.0090909,
                "pitch": 38,
                "velocity": 80,
                "duration": 0.1681818,
                "tempo": 120.0
            },
            {
                "start_time": 5.0409091,
                "end_time": 5.2090909,
                "pitch": 50,
                "velocity": 80,
                "duration": 0.1681818,
                "tempo": 120.0
            },
            {
                "start_time": 5.2409091,
                "end_time": 5.4090909,
                "pitch": 38,
                "velocity": 80,
                "duration": 0.1681818,
                "tempo": 120.0
            },
            {
                "start_time": 5.4431818,
                "end_time": 5.6113636,
                "pitch": 50,
                "velocity": 80,
                "duration": 0.1681818,
                "tempo": 120.0
            },
            {
                "start_time": 5.6431818,
                "end_time": 5.8113636,
                "pitch": 38,
                "velocity": 80,
                "duration": 0.1681818,
                "tempo": 120.0
            },
            {
                "start_time": 5.8431818,
                "end_time": 6.0113636,
                "pitch": 50,
                "velocity": 80,
                "duration": 0.1681818,
                "tempo": 120.0
            },
            {
                "start_time": 6.0431818,
                "end_time": 6.2113636,
                "pitch": 38,
                "velocity": 80,
                "duration": 0.1681818,
                "tempo": 120.0
            },
            {
                "start_time": 6.2454545,
                "end_time": 6.4136364,
                "pitch": 50,
                "velocity": 80,
                "duration": 0.1681818,
                "tempo": 120.0
            },
            {
                "start_time": 6.4477273,
                "end_time": 6.6136364,
                "pitch": 38,
                "velocity": 80,
                "duration": 0.1659091,
                "tempo": 120.0
            },
            {
                "start_time": 6.6477273,
                "end_time": 6.8159091,
                "pitch": 50,
                "velocity": 80,
                "duration": 0.1681818,
                "tempo": 120.0
            },
            {
                "start_time": 6.85,
                "end_time": 7.0159091,
                "pitch": 38,
                "velocity": 80,
                "duration": 0.1659091,
                "tempo": 120.0
            },
            {
                "start_time": 7.05,
                "end_time": 7.2159091,
                "pitch": 50,
                "velocity": 80,
                "duration": 0.1659091,
                "tempo": 120.0
            },
            {
                "start_time": 7.25,
                "end_time": 7.4181818,
                "pitch": 38,
                "velocity": 80,
                "duration": 0.1681818,
                "tempo": 120.0
            },
            {
                "start_time": 7.45,
                "end_time": 7.6181818,
                "pitch": 50,
                "velocity": 80,
                "duration": 0.1681818,
                "tempo": 120.0
            },
            {
                "start_time": 7.6522727,
                "end_time": 7.8181818,
                "pitch": 38,
                "velocity": 80,
                "duration": 0.1659091,
                "tempo": 120.0
            },
            {
                "start_time": 7.8522727,
                "end_time": 8.0181818,
                "pitch": 50,
                "velocity": 80,
                "duration": 0.1659091,
                "tempo": 120.0
            },
            {
                "start_time": 8.0522727,
                "end_time": 8.2204545,
                "pitch": 38,
                "velocity": 80,
                "duration": 0.1681818,
                "tempo": 120.0
            },
            {
                "start_time": 8.2545455,
                "end_time": 8.4204545,
                "pitch": 50,
                "velocity": 80,
                "duration": 0.1659091,
                "tempo": 120.0
            },
            {
                "start_time": 8.4545455,
                "end_time": 8.6227273,
                "pitch": 38,
                "velocity": 80,
                "duration": 0.1681818,
                "tempo": 120.0
            },
            {
                "start_time": 8.6568182,
                "end_time": 8.825,
                "pitch": 50,
                "velocity": 80,
                "duration": 0.1681818,
                "tempo": 120.0
            },
            {
                "start_time": 8.8568182,
                "end_time": 9.025,
                "pitch": 38,
                "velocity": 80,
                "duration": 0.1681818,
                "tempo": 120.0
            },
            {
                "start_time": 9.0590909,
                "end_time": 9.2272727,
                "pitch": 50,
                "velocity": 80,
                "duration": 0.1681818,
                "tempo": 120.0
            },
            {
                "start_time": 9.2590909,
                "end_time": 9.4272727,
                "pitch": 38,
                "velocity": 80,
                "duration": 0.1681818,
                "tempo": 120.0
            },
            {
                "start_time": 9.4590909,
                "end_time": 9.6272727,
                "pitch": 50,
                "velocity": 80,
                "duration": 0.1681818,
                "tempo": 120.0
            },
            {
                "start_time": 9.6613636,
                "end_time": 9.8272727,
                "pitch": 38,
                "velocity": 80,
                "duration": 0.1659091,
                "tempo": 120.0
            },
            {
                "start_time": 9.8613636,
                "end_time": 10.0295455,
                "pitch": 50,
                "velocity": 80,
                "duration": 0.1681818,
                "tempo": 120.0
            },
            {
                "start_time": 10.0636364,
                "end_time": 10.2318182,
                "pitch": 38,
                "velocity": 80,
                "duration": 0.1681818,
                "tempo": 120.0
            },
            {
                "start_time": 10.2636364,
                "end_time": 10.4318182,
                "pitch": 50,
                "velocity": 80,
                "duration": 0.1681818,
                "tempo": 120.0
            },
            {
                "start_time": 10.4659091,
                "end_time": 10.6340909,
                "pitch": 38,
                "velocity": 80,
                "duration": 0.1681818,
                "tempo": 120.0
            },
            {
                "start_time": 10.6681818,
                "end_time": 10.8340909,
                "pitch": 50,
                "velocity": 80,
                "duration": 0.1659091,
                "tempo": 120.0
            },
            {
                "start_time": 10.8681818,
                "end_time": 11.0363636,
                "pitch": 38,
                "velocity": 80,
                "duration": 0.1681818,
                "tempo": 120.0
            },
            {
                "start_time": 11.0704545,
                "end_time": 11.2386364,
                "pitch": 50,
                "velocity": 80,
                "duration": 0.1681818,
                "tempo": 120.0
            },
            {
                "start_time": 11.2704545,
                "end_time": 11.4386364,
                "pitch": 38,
                "velocity": 80,
                "duration": 0.1681818,
                "tempo": 120.0
            },
            {
                "start_time": 11.4704545,
                "end_time": 11.6386364,
                "pitch": 50,
                "velocity": 101,
                "duration": 0.1681818,
                "tempo": 120.0
            },
            {
                "start_time": 11.6704545,
                "end_time": 11.8386364,
                "pitch": 43,
                "velocity": 101,
                "duration": 0.1681818,
                "tempo": 120.0
            },
            {
                "start_time": 11.8727273,
                "end_time": 12.0409091,
                "pitch": 55,
                "velocity": 101,
                "duration": 0.1681818,
                "tempo": 120.0
            },
            {
                "start_time": 12.0727273,
                "end_time": 12.2409091,
                "pitch": 42,
                "velocity": 101,
                "duration": 0.1681818,
                "tempo": 120.0
            },
            {
                "start_time": 12.275,
                "end_time": 12.4431818,
                "pitch": 54,
                "velocity": 101,
                "duration": 0.1681818,
                "tempo": 120.0
            },
            {
                "start_time": 12.4772727,
                "end_time": 12.6431818,
                "pitch": 40,
                "velocity": 101,
                "duration": 0.1659091,
                "tempo": 120.0
            },
            {
                "start_time": 12.6772727,
                "end_time": 12.8454545,
                "pitch": 52,
                "velocity": 101,
                "duration": 0.1681818,
                "tempo": 120.0
            },
            {
                "start_time": 12.8795455,
                "end_time": 13.0477273,
                "pitch": 38,
                "velocity": 101,
                "duration": 0.1681818,
                "tempo": 120.0
            },
            {
                "start_time": 13.0795455,
                "end_time": 13.2477273,
                "pitch": 50,
                "velocity": 80,
                "duration": 0.1681818,
                "tempo": 120.0
            },
            {
                "start_time": 13.2818182,
                "end_time": 13.4477273,
                "pitch": 38,
                "velocity": 80,
                "duration": 0.1659091,
                "tempo": 120.0
            },
            {
                "start_time": 13.4818182,
                "end_time": 13.6477273,
                "pitch": 50,
                "velocity": 80,
                "duration": 0.1659091,
                "tempo": 120.0
            },
            {
                "start_time": 13.6818182,
                "end_time": 13.85,
                "pitch": 38,
                "velocity": 80,
                "duration": 0.1681818,
                "tempo": 120.0
            },
            {
                "start_time": 13.8840909,
                "end_time": 14.05,
                "pitch": 50,
                "velocity": 80,
                "duration": 0.1659091,
                "tempo": 120.0
            },
            {
                "start_time": 14.0840909,
                "end_time": 14.2522727,
                "pitch": 38,
                "velocity": 80,
                "duration": 0.1681818,
                "tempo": 120.0
            },
            {
                "start_time": 14.2863636,
                "end_time": 14.4545455,
                "pitch": 50,
                "velocity": 80,
                "duration": 0.1681818,
                "tempo": 120.0
            },
            {
                "start_time": 14.4863636,
                "end_time": 14.6545455,
                "pitch": 38,
                "velocity": 80,
                "duration": 0.1681818,
                "tempo": 120.0
            },
            {
                "start_time": 14.6886364,
                "end_time": 14.8568182,
                "pitch": 50,
                "velocity": 80,
                "duration": 0.1681818,
                "tempo": 120.0
            },
            {
                "start_time": 14.8909091,
                "end_time": 15.0568182,
                "pitch": 38,
                "velocity": 80,
                "duration": 0.1659091,
                "tempo": 120.0
            },
            {
                "start_time": 15.0909091,
                "end_time": 15.2590909,
                "pitch": 50,
                "velocity": 80,
                "duration": 0.1681818,
                "tempo": 120.0
            },
            {
                "start_time": 15.2931818,
                "end_time": 15.4590909,
                "pitch": 38,
                "velocity": 80,
                "duration": 0.1659091,
                "tempo": 120.0
            },
            {
                "start_time": 15.4931818,
                "end_time": 15.6590909,
                "pitch": 50,
                "velocity": 80,
                "duration": 0.1659091,
                "tempo": 120.0
            },
            {
                "start_time": 15.6931818,
                "end_time": 15.8613636,
                "pitch": 38,
                "velocity": 80,
                "duration": 0.1681818,
                "tempo": 120.0
            },
            {
                "start_time": 15.8931818,
                "end_time": 16.0613636,
                "pitch": 50,
                "velocity": 80,
                "duration": 0.1681818,
                "tempo": 120.0
            },
            {
                "start_time": 16.0954545,
                "end_time": 16.2636364,
                "pitch": 40,
                "velocity": 80,
                "duration": 0.1681818,
                "tempo": 120.0
            },
            {
                "start_time": 16.2977273,
                "end_time": 16.4636364,
                "pitch": 52,
                "velocity": 80,
                "duration": 0.1659091,
                "tempo": 120.0
            },
            {
                "start_time": 16.4977273,
                "end_time": 16.6636364,
                "pitch": 40,
                "velocity": 80,
                "duration": 0.1659091,
                "tempo": 120.0
            },
            {
                "start_time": 16.6977273,
                "end_time": 16.8636364,
                "pitch": 52,
                "velocity": 80,
                "duration": 0.1659091,
                "tempo": 120.0
            },
            {
                "start_time": 16.8977273,
                "end_time": 17.0659091,
                "pitch": 40,
                "velocity": 80,
                "duration": 0.1681818,
                "tempo": 120.0
            },
            {
                "start_time": 17.1,
                "end_time": 17.2681818,
                "pitch": 52,
                "velocity": 80,
                "duration": 0.1681818,
                "tempo": 120.0
            },
            {
                "start_time": 17.3,
                "end_time": 17.4681818,
                "pitch": 40,
                "velocity": 80,
                "duration": 0.1681818,
                "tempo": 120.0
            },
            {
                "start_time": 17.5,
                "end_time": 17.6681818,
                "pitch": 52,
                "velocity": 80,
                "duration": 0.1681818,
                "tempo": 120.0
            },
            {
                "start_time": 17.7,
                "end_time": 17.8681818,
                "pitch": 40,
                "velocity": 80,
                "duration": 0.1681818,
                "tempo": 120.0
            },
            {
                "start_time": 17.9022727,
                "end_time": 18.0704545,
                "pitch": 52,
                "velocity": 80,
                "duration": 0.1681818,
                "tempo": 120.0
            },
            {
                "start_time": 18.1022727,
                "end_time": 18.2704545,
                "pitch": 40,
                "velocity": 80,
                "duration": 0.1681818,
                "tempo": 120.0
            },
            {
                "start_time": 18.3022727,
                "end_time": 18.4704545,
                "pitch": 52,
                "velocity": 80,
                "duration": 0.1681818,
                "tempo": 120.0
            },
            {
                "start_time": 18.5022727,
                "end_time": 18.6704545,
                "pitch": 40,
                "velocity": 80,
                "duration": 0.1681818,
                "tempo": 120.0
            },
            {
                "start_time": 18.7022727,
                "end_time": 18.8704545,
                "pitch": 52,
                "velocity": 80,
                "duration": 0.1681818,
                "tempo": 120.0
            },
            {
                "start_time": 18.9022727,
                "end_time": 19.0704545,
                "pitch": 40,
                "velocity": 80,
                "duration": 0.1681818,
                "tempo": 120.0
            },
            {
                "start_time": 19.1045455,
                "end_time": 19.2727273,
                "pitch": 52,
                "velocity": 80,
                "duration": 0.1681818,
                "tempo": 120.0
            },
            {
                "start_time": 19.3068182,
                "end_time": 19.4727273,
                "pitch": 38,
                "velocity": 80,
                "duration": 0.1659091,
                "tempo": 120.0
            },
            {
                "start_time": 19.5068182,
                "end_time": 19.6727273,
                "pitch": 50,
                "velocity": 80,
                "duration": 0.1659091,
                "tempo": 120.0
            },
            {
                "start_time": 19.7068182,
                "end_time": 19.8727273,
                "pitch": 38,
                "velocity": 80,
                "duration": 0.1659091,
                "tempo": 120.0
            },
            {
                "start_time": 19.9068182,
                "end_time": 20.075,
                "pitch": 50,
                "velocity": 80,
                "duration": 0.1681818,
                "tempo": 120.0
            },
            {
                "start_time": 20.1090909,
                "end_time": 20.275,
                "pitch": 38,
                "velocity": 80,
                "duration": 0.1659091,
                "tempo": 120.0
            },
            {
                "start_time": 20.3090909,
                "end_time": 20.475,
                "pitch": 50,
                "velocity": 80,
                "duration": 0.1659091,
                "tempo": 120.0
            },
            {
                "start_time": 20.5090909,
                "end_time": 20.675,
                "pitch": 38,
                "velocity": 80,
                "duration": 0.1659091,
                "tempo": 120.0
            },
            {
                "start_time": 20.7090909,
                "end_time": 20.875,
                "pitch": 50,
                "velocity": 80,
                "duration": 0.1659091,
                "tempo": 120.0
            },
            {
                "start_time": 20.9090909,
                "end_time": 21.0772727,
                "pitch": 38,
                "velocity": 80,
                "duration": 0.1681818,
                "tempo": 120.0
            },
            {
                "start_time": 21.1090909,
                "end_time": 21.2772727,
                "pitch": 50,
                "velocity": 80,
                "duration": 0.1681818,
                "tempo": 120.0
            },
            {
                "start_time": 21.3113636,
                "end_time": 21.4772727,
                "pitch": 38,
                "velocity": 80,
                "duration": 0.1659091,
                "tempo": 120.0
            },
            {
                "start_time": 21.5113636,
                "end_time": 21.6772727,
                "pitch": 50,
                "velocity": 80,
                "duration": 0.1659091,
                "tempo": 120.0
            },
            {
                "start_time": 21.7113636,
                "end_time": 21.8795455,
                "pitch": 38,
                "velocity": 80,
                "duration": 0.1681818,
                "tempo": 120.0
            },
            {
                "start_time": 21.9136364,
                "end_time": 22.0795455,
                "pitch": 50,
                "velocity": 80,
                "duration": 0.1659091,
                "tempo": 120.0
            },
            {
                "start_time": 22.1136364,
                "end_time": 22.2795455,
                "pitch": 38,
                "velocity": 80,
                "duration": 0.1659091,
                "tempo": 120.0
            },
            {
                "start_time": 22.3136364,
                "end_time": 22.4795455,
                "pitch": 50,
                "velocity": 80,
                "duration": 0.1659091,
                "tempo": 120.0
            },
            {
                "start_time": 22.5136364,
                "end_time": 22.6795455,
                "pitch": 40,
                "velocity": 80,
                "duration": 0.1659091,
                "tempo": 120.0
            },
            {
                "start_time": 22.7136364,
                "end_time": 22.8795455,
                "pitch": 52,
                "velocity": 80,
                "duration": 0.1659091,
                "tempo": 120.0
            },
            {
                "start_time": 22.9136364,
                "end_time": 23.0818182,
                "pitch": 40,
                "velocity": 80,
                "duration": 0.1681818,
                "tempo": 120.0
            },
            {
                "start_time": 23.1159091,
                "end_time": 23.2840909,
                "pitch": 52,
                "velocity": 80,
                "duration": 0.1681818,
                "tempo": 120.0
            },
            {
                "start_time": 23.3159091,
                "end_time": 23.4840909,
                "pitch": 40,
                "velocity": 80,
                "duration": 0.1681818,
                "tempo": 120.0
            },
            {
                "start_time": 23.5159091,
                "end_time": 23.6840909,
                "pitch": 52,
                "velocity": 80,
                "duration": 0.1681818,
                "tempo": 120.0
            },
            {
                "start_time": 23.7159091,
                "end_time": 23.8840909,
                "pitch": 40,
                "velocity": 80,
                "duration": 0.1681818,
                "tempo": 120.0
            },
            {
                "start_time": 23.9181818,
                "end_time": 24.0863636,
                "pitch": 52,
                "velocity": 80,
                "duration": 0.1681818,
                "tempo": 120.0
            },
            {
                "start_time": 24.1181818,
                "end_time": 24.2863636,
                "pitch": 40,
                "velocity": 80,
                "duration": 0.1681818,
                "tempo": 120.0
            },
            {
                "start_time": 24.3181818,
                "end_time": 24.4863636,
                "pitch": 52,
                "velocity": 80,
                "duration": 0.1681818,
                "tempo": 120.0
            },
            {
                "start_time": 24.5181818,
                "end_time": 24.6863636,
                "pitch": 40,
                "velocity": 80,
                "duration": 0.1681818,
                "tempo": 120.0
            },
            {
                "start_time": 24.7181818,
                "end_time": 24.8863636,
                "pitch": 52,
                "velocity": 80,
                "duration": 0.1681818,
                "tempo": 120.0
            },
            {
                "start_time": 24.9204545,
                "end_time": 25.0863636,
                "pitch": 40,
                "velocity": 80,
                "duration": 0.1659091,
                "tempo": 120.0
            },
            {
                "start_time": 25.1204545,
                "end_time": 25.2886364,
                "pitch": 52,
                "velocity": 80,
                "duration": 0.1681818,
                "tempo": 120.0
            },
            {
                "start_time": 25.3227273,
                "end_time": 25.4886364,
                "pitch": 40,
                "velocity": 80,
                "duration": 0.1659091,
                "tempo": 120.0
            },
            {
                "start_time": 25.5227273,
                "end_time": 25.6886364,
                "pitch": 52,
                "velocity": 80,
                "duration": 0.1659091,
                "tempo": 120.0
            },
            {
                "start_time": 25.7227273,
                "end_time": 25.8909091,
                "pitch": 43,
                "velocity": 80,
                "duration": 0.1681818,
                "tempo": 120.0
            },
            {
                "start_time": 25.9227273,
                "end_time": 26.0909091,
                "pitch": 43,
                "velocity": 101,
                "duration": 0.1681818,
                "tempo": 120.0
            },
            {
                "start_time": 26.125,
                "end_time": 26.2068182,
                "pitch": 43,
                "velocity": 101,
                "duration": 0.0818182,
                "tempo": 120.0
            },
            {
                "start_time": 26.2068182,
                "end_time": 26.2909091,
                "pitch": 43,
                "velocity": 101,
                "duration": 0.0840909,
                "tempo": 120.0
            },
            {
                "start_time": 26.325,
                "end_time": 26.4068182,
                "pitch": 43,
                "velocity": 101,
                "duration": 0.0818182,
                "tempo": 120.0
            },
            {
                "start_time": 26.4068182,
                "end_time": 26.4909091,
                "pitch": 43,
                "velocity": 101,
                "duration": 0.0840909,
                "tempo": 120.0
            },
            {
                "start_time": 26.525,
                "end_time": 26.6909091,
                "pitch": 43,
                "velocity": 101,
                "duration": 0.1659091,
                "tempo": 120.0
            },
            {
                "start_time": 26.725,
                "end_time": 26.8909091,
                "pitch": 43,
                "velocity": 101,
                "duration": 0.1659091,
                "tempo": 120.0
            },
            {
                "start_time": 26.925,
                "end_time": 27.0090909,
                "pitch": 43,
                "velocity": 101,
                "duration": 0.0840909,
                "tempo": 120.0
            },
            {
                "start_time": 27.0090909,
                "end_time": 27.0931818,
                "pitch": 43,
                "velocity": 101,
                "duration": 0.0840909,
                "tempo": 120.0
            },
            {
                "start_time": 27.1272727,
                "end_time": 27.2090909,
                "pitch": 43,
                "velocity": 101,
                "duration": 0.0818182,
                "tempo": 120.0
            },
            {
                "start_time": 27.2090909,
                "end_time": 27.2931818,
                "pitch": 43,
                "velocity": 101,
                "duration": 0.0840909,
                "tempo": 120.0
            },
            {
                "start_time": 27.3272727,
                "end_time": 27.4931818,
                "pitch": 45,
                "velocity": 101,
                "duration": 0.1659091,
                "tempo": 120.0
            },
            {
                "start_time": 27.5272727,
                "end_time": 27.6931818,
                "pitch": 45,
                "velocity": 101,
                "duration": 0.1659091,
                "tempo": 120.0
            },
            {
                "start_time": 27.7272727,
                "end_time": 27.8113636,
                "pitch": 45,
                "velocity": 101,
                "duration": 0.0840909,
                "tempo": 120.0
            },
            {
                "start_time": 27.8113636,
                "end_time": 27.8954545,
                "pitch": 45,
                "velocity": 101,
                "duration": 0.0840909,
                "tempo": 120.0
            },
            {
                "start_time": 27.9295455,
                "end_time": 28.0136364,
                "pitch": 45,
                "velocity": 101,
                "duration": 0.0840909,
                "tempo": 120.0
            },
            {
                "start_time": 28.0136364,
                "end_time": 28.0977273,
                "pitch": 45,
                "velocity": 101,
                "duration": 0.0840909,
                "tempo": 120.0
            },
            {
                "start_time": 28.1295455,
                "end_time": 28.2977273,
                "pitch": 45,
                "velocity": 101,
                "duration": 0.1681818,
                "tempo": 120.0
            },
            {
                "start_time": 28.3295455,
                "end_time": 28.4977273,
                "pitch": 45,
                "velocity": 101,
                "duration": 0.1681818,
                "tempo": 120.0
            },
            {
                "start_time": 28.5295455,
                "end_time": 28.6136364,
                "pitch": 45,
                "velocity": 101,
                "duration": 0.0840909,
                "tempo": 120.0
            },
            {
                "start_time": 28.6136364,
                "end_time": 28.6977273,
                "pitch": 45,
                "velocity": 101,
                "duration": 0.0840909,
                "tempo": 120.0
            },
            {
                "start_time": 28.7295455,
                "end_time": 28.8136364,
                "pitch": 45,
                "velocity": 101,
                "duration": 0.0840909,
                "tempo": 120.0
            },
            {
                "start_time": 28.8136364,
                "end_time": 28.8977273,
                "pitch": 45,
                "velocity": 101,
                "duration": 0.0840909,
                "tempo": 120.0
            },
            {
                "start_time": 28.9295455,
                "end_time": 29.0977273,
                "pitch": 47,
                "velocity": 101,
                "duration": 0.1681818,
                "tempo": 120.0
            },
            {
                "start_time": 29.1318182,
                "end_time": 29.3,
                "pitch": 47,
                "velocity": 101,
                "duration": 0.1681818,
                "tempo": 120.0
            },
            {
                "start_time": 29.3318182,
                "end_time": 29.4159091,
                "pitch": 47,
                "velocity": 101,
                "duration": 0.0840909,
                "tempo": 120.0
            },
            {
                "start_time": 29.4159091,
                "end_time": 29.5,
                "pitch": 47,
                "velocity": 101,
                "duration": 0.0840909,
                "tempo": 120.0
            },
            {
                "start_time": 29.5318182,
                "end_time": 29.6159091,
                "pitch": 47,
                "velocity": 101,
                "duration": 0.0840909,
                "tempo": 120.0
            },
            {
                "start_time": 29.6159091,
                "end_time": 29.7,
                "pitch": 47,
                "velocity": 101,
                "duration": 0.0840909,
                "tempo": 120.0
            },
            {
                "start_time": 29.7318182,
                "end_time": 29.9,
                "pitch": 47,
                "velocity": 101,
                "duration": 0.1681818,
                "tempo": 120.0
            },
            {
                "start_time": 29.9340909,
                "end_time": 30.1022727,
                "pitch": 47,
                "velocity": 101,
                "duration": 0.1681818,
                "tempo": 120.0
            },
            {
                "start_time": 30.1363636,
                "end_time": 30.2181818,
                "pitch": 47,
                "velocity": 101,
                "duration": 0.0818182,
                "tempo": 120.0
            },
            {
                "start_time": 30.2181818,
                "end_time": 30.3022727,
                "pitch": 47,
                "velocity": 101,
                "duration": 0.0840909,
                "tempo": 120.0
            },
            {
                "start_time": 30.3363636,
                "end_time": 30.4181818,
                "pitch": 47,
                "velocity": 101,
                "duration": 0.0818182,
                "tempo": 120.0
            },
            {
                "start_time": 30.4181818,
                "end_time": 30.5022727,
                "pitch": 47,
                "velocity": 101,
                "duration": 0.0840909,
                "tempo": 120.0
            },
            {
                "start_time": 30.5363636,
                "end_time": 30.7022727,
                "pitch": 47,
                "velocity": 101,
                "duration": 0.1659091,
                "tempo": 120.0
            },
            {
                "start_time": 30.7363636,
                "end_time": 30.9022727,
                "pitch": 47,
                "velocity": 101,
                "duration": 0.1659091,
                "tempo": 120.0
            },
            {
                "start_time": 30.9363636,
                "end_time": 31.0204545,
                "pitch": 47,
                "velocity": 101,
                "duration": 0.0840909,
                "tempo": 120.0
            },
            {
                "start_time": 31.0204545,
                "end_time": 31.1022727,
                "pitch": 47,
                "velocity": 101,
                "duration": 0.0818182,
                "tempo": 120.0
            },
            {
                "start_time": 31.1363636,
                "end_time": 31.2204545,
                "pitch": 47,
                "velocity": 101,
                "duration": 0.0840909,
                "tempo": 120.0
            },
            {
                "start_time": 31.2204545,
                "end_time": 31.3045455,
                "pitch": 47,
                "velocity": 101,
                "duration": 0.0840909,
                "tempo": 120.0
            },
            {
                "start_time": 31.3386364,
                "end_time": 31.5045455,
                "pitch": 47,
                "velocity": 101,
                "duration": 0.1659091,
                "tempo": 120.0
            },
            {
                "start_time": 31.5386364,
                "end_time": 31.7045455,
                "pitch": 47,
                "velocity": 101,
                "duration": 0.1659091,
                "tempo": 120.0
            },
            {
                "start_time": 31.7386364,
                "end_time": 31.8227273,
                "pitch": 47,
                "velocity": 101,
                "duration": 0.0840909,
                "tempo": 120.0
            },
            {
                "start_time": 31.8227273,
                "end_time": 31.9068182,
                "pitch": 47,
                "velocity": 101,
                "duration": 0.0840909,
                "tempo": 120.0
            },
            {
                "start_time": 31.9386364,
                "end_time": 32.0227273,
                "pitch": 47,
                "velocity": 101,
                "duration": 0.0840909,
                "tempo": 120.0
            },
            {
                "start_time": 32.0227273,
                "end_time": 32.1068182,
                "pitch": 47,
                "velocity": 101,
                "duration": 0.0840909,
                "tempo": 120.0
            },
            {
                "start_time": 32.1409091,
                "end_time": 32.3068182,
                "pitch": 43,
                "velocity": 101,
                "duration": 0.1659091,
                "tempo": 120.0
            },
            {
                "start_time": 32.3409091,
                "end_time": 32.5068182,
                "pitch": 43,
                "velocity": 101,
                "duration": 0.1659091,
                "tempo": 120.0
            },
            {
                "start_time": 32.5409091,
                "end_time": 32.625,
                "pitch": 43,
                "velocity": 101,
                "duration": 0.0840909,
                "tempo": 120.0
            },
            {
                "start_time": 32.625,
                "end_time": 32.7068182,
                "pitch": 43,
                "velocity": 101,
                "duration": 0.0818182,
                "tempo": 120.0
            },
            {
                "start_time": 32.7409091,
                "end_time": 32.825,
                "pitch": 43,
                "velocity": 101,
                "duration": 0.0840909,
                "tempo": 120.0
            },
            {
                "start_time": 32.825,
                "end_time": 32.9068182,
                "pitch": 43,
                "velocity": 101,
                "duration": 0.0818182,
                "tempo": 120.0
            },
            {
                "start_time": 32.9409091,
                "end_time": 33.1068182,
                "pitch": 43,
                "velocity": 101,
                "duration": 0.1659091,
                "tempo": 120.0
            },
            {
                "start_time": 33.1409091,
                "end_time": 33.3068182,
                "pitch": 43,
                "velocity": 101,
                "duration": 0.1659091,
                "tempo": 120.0
            },
            {
                "start_time": 33.3409091,
                "end_time": 33.425,
                "pitch": 43,
                "velocity": 101,
                "duration": 0.0840909,
                "tempo": 120.0
            },
            {
                "start_time": 33.425,
                "end_time": 33.5090909,
                "pitch": 43,
                "velocity": 101,
                "duration": 0.0840909,
                "tempo": 120.0
            },
            {
                "start_time": 33.5431818,
                "end_time": 33.6272727,
                "pitch": 43,
                "velocity": 101,
                "duration": 0.0840909,
                "tempo": 120.0
            },
            {
                "start_time": 33.6272727,
                "end_time": 33.7090909,
                "pitch": 43,
                "velocity": 101,
                "duration": 0.0818182,
                "tempo": 120.0
            },
            {
                "start_time": 33.7431818,
                "end_time": 33.9090909,
                "pitch": 45,
                "velocity": 101,
                "duration": 0.1659091,
                "tempo": 120.0
            },
            {
                "start_time": 33.9431818,
                "end_time": 34.1090909,
                "pitch": 45,
                "velocity": 101,
                "duration": 0.1659091,
                "tempo": 120.0
            },
            {
                "start_time": 34.1431818,
                "end_time": 34.2272727,
                "pitch": 45,
                "velocity": 101,
                "duration": 0.0840909,
                "tempo": 120.0
            },
            {
                "start_time": 34.2272727,
                "end_time": 34.3090909,
                "pitch": 45,
                "velocity": 101,
                "duration": 0.0818182,
                "tempo": 120.0
            },
            {
                "start_time": 34.3431818,
                "end_time": 34.4272727,
                "pitch": 45,
                "velocity": 101,
                "duration": 0.0840909,
                "tempo": 120.0
            },
            {
                "start_time": 34.4272727,
                "end_time": 34.5090909,
                "pitch": 45,
                "velocity": 101,
                "duration": 0.0818182,
                "tempo": 120.0
            },
            {
                "start_time": 34.5431818,
                "end_time": 34.7090909,
                "pitch": 45,
                "velocity": 101,
                "duration": 0.1659091,
                "tempo": 120.0
            },
            {
                "start_time": 34.7431818,
                "end_time": 34.9090909,
                "pitch": 45,
                "velocity": 101,
                "duration": 0.1659091,
                "tempo": 120.0
            },
            {
                "start_time": 34.9431818,
                "end_time": 35.0272727,
                "pitch": 45,
                "velocity": 101,
                "duration": 0.0840909,
                "tempo": 120.0
            },
            {
                "start_time": 35.0272727,
                "end_time": 35.1090909,
                "pitch": 45,
                "velocity": 101,
                "duration": 0.0818182,
                "tempo": 120.0
            },
            {
                "start_time": 35.1431818,
                "end_time": 35.2272727,
                "pitch": 45,
                "velocity": 101,
                "duration": 0.0840909,
                "tempo": 120.0
            },
            {
                "start_time": 35.2272727,
                "end_time": 35.3090909,
                "pitch": 45,
                "velocity": 101,
                "duration": 0.0818182,
                "tempo": 120.0
            },
            {
                "start_time": 35.3431818,
                "end_time": 35.5113636,
                "pitch": 47,
                "velocity": 101,
                "duration": 0.1681818,
                "tempo": 120.0
            },
            {
                "start_time": 35.5454545,
                "end_time": 35.7136364,
                "pitch": 47,
                "velocity": 101,
                "duration": 0.1681818,
                "tempo": 120.0
            },
            {
                "start_time": 35.7454545,
                "end_time": 35.8295455,
                "pitch": 47,
                "velocity": 101,
                "duration": 0.0840909,
                "tempo": 120.0
            },
            {
                "start_time": 35.8295455,
                "end_time": 35.9136364,
                "pitch": 47,
                "velocity": 101,
                "duration": 0.0840909,
                "tempo": 120.0
            },
            {
                "start_time": 35.9454545,
                "end_time": 36.0295455,
                "pitch": 47,
                "velocity": 101,
                "duration": 0.0840909,
                "tempo": 120.0
            },
            {
                "start_time": 36.0295455,
                "end_time": 36.1136364,
                "pitch": 47,
                "velocity": 101,
                "duration": 0.0840909,
                "tempo": 120.0
            },
            {
                "start_time": 36.1454545,
                "end_time": 36.3136364,
                "pitch": 47,
                "velocity": 101,
                "duration": 0.1681818,
                "tempo": 120.0
            },
            {
                "start_time": 36.3454545,
                "end_time": 36.5136364,
                "pitch": 47,
                "velocity": 101,
                "duration": 0.1681818,
                "tempo": 120.0
            },
            {
                "start_time": 36.5454545,
                "end_time": 36.6295455,
                "pitch": 47,
                "velocity": 101,
                "duration": 0.0840909,
                "tempo": 120.0
            },
            {
                "start_time": 36.6295455,
                "end_time": 36.7136364,
                "pitch": 47,
                "velocity": 101,
                "duration": 0.0840909,
                "tempo": 120.0
            },
            {
                "start_time": 36.7454545,
                "end_time": 36.8295455,
                "pitch": 47,
                "velocity": 101,
                "duration": 0.0840909,
                "tempo": 120.0
            },
            {
                "start_time": 36.8295455,
                "end_time": 36.9136364,
                "pitch": 47,
                "velocity": 101,
                "duration": 0.0840909,
                "tempo": 120.0
            },
            {
                "start_time": 36.9454545,
                "end_time": 37.1136364,
                "pitch": 47,
                "velocity": 101,
                "duration": 0.1681818,
                "tempo": 120.0
            },
            {
                "start_time": 37.1454545,
                "end_time": 37.3136364,
                "pitch": 47,
                "velocity": 101,
                "duration": 0.1681818,
                "tempo": 120.0
            },
            {
                "start_time": 37.3454545,
                "end_time": 37.4295455,
                "pitch": 47,
                "velocity": 101,
                "duration": 0.0840909,
                "tempo": 120.0
            },
            {
                "start_time": 37.4295455,
                "end_time": 37.5136364,
                "pitch": 47,
                "velocity": 101,
                "duration": 0.0840909,
                "tempo": 120.0
            },
            {
                "start_time": 37.5477273,
                "end_time": 37.6318182,
                "pitch": 47,
                "velocity": 101,
                "duration": 0.0840909,
                "tempo": 120.0
            },
            {
                "start_time": 37.6318182,
                "end_time": 37.7159091,
                "pitch": 47,
                "velocity": 101,
                "duration": 0.0840909,
                "tempo": 120.0
            },
            {
                "start_time": 37.7477273,
                "end_time": 37.9159091,
                "pitch": 47,
                "velocity": 101,
                "duration": 0.1681818,
                "tempo": 120.0
            },
            {
                "start_time": 37.9477273,
                "end_time": 38.1159091,
                "pitch": 47,
                "velocity": 101,
                "duration": 0.1681818,
                "tempo": 120.0
            },
            {
                "start_time": 38.1477273,
                "end_time": 38.2318182,
                "pitch": 47,
                "velocity": 101,
                "duration": 0.0840909,
                "tempo": 120.0
            },
            {
                "start_time": 38.2318182,
                "end_time": 38.3159091,
                "pitch": 47,
                "velocity": 101,
                "duration": 0.0840909,
                "tempo": 120.0
            },
            {
                "start_time": 38.3477273,
                "end_time": 38.4318182,
                "pitch": 47,
                "velocity": 101,
                "duration": 0.0840909,
                "tempo": 120.0
            },
            {
                "start_time": 38.4318182,
                "end_time": 38.7159091,
                "pitch": 47,
                "velocity": 101,
                "duration": 0.2840909,
                "tempo": 120.0
            },
            {
                "start_time": 38.7477273,
                "end_time": 38.9159091,
                "pitch": 42,
                "velocity": 101,
                "duration": 0.1681818,
                "tempo": 120.0
            },
            {
                "start_time": 38.9477273,
                "end_time": 39.1159091,
                "pitch": 43,
                "velocity": 101,
                "duration": 0.1681818,
                "tempo": 120.0
            },
            {
                "start_time": 39.1477273,
                "end_time": 39.3159091,
                "pitch": 49,
                "velocity": 101,
                "duration": 0.1681818,
                "tempo": 120.0
            },
            {
                "start_time": 39.35,
                "end_time": 39.5159091,
                "pitch": 47,
                "velocity": 101,
                "duration": 0.1659091,
                "tempo": 120.0
            },
            {
                "start_time": 39.55,
                "end_time": 39.7181818,
                "pitch": 45,
                "velocity": 101,
                "duration": 0.1681818,
                "tempo": 120.0
            },
            {
                "start_time": 39.7522727,
                "end_time": 39.9181818,
                "pitch": 47,
                "velocity": 101,
                "duration": 0.1659091,
                "tempo": 120.0
            },
            {
                "start_time": 39.9522727,
                "end_time": 40.1181818,
                "pitch": 49,
                "velocity": 101,
                "duration": 0.1659091,
                "tempo": 120.0
            },
            {
                "start_time": 40.1522727,
                "end_time": 40.3181818,
                "pitch": 38,
                "velocity": 101,
                "duration": 0.1659091,
                "tempo": 120.0
            },
            {
                "start_time": 40.3522727,
                "end_time": 40.5181818,
                "pitch": 50,
                "velocity": 101,
                "duration": 0.1659091,
                "tempo": 120.0
            },
            {
                "start_time": 40.5522727,
                "end_time": 40.7181818,
                "pitch": 38,
                "velocity": 101,
                "duration": 0.1659091,
                "tempo": 120.0
            },
            {
                "start_time": 40.7522727,
                "end_time": 40.9181818,
                "pitch": 50,
                "velocity": 101,
                "duration": 0.1659091,
                "tempo": 120.0
            },
            {
                "start_time": 40.9522727,
                "end_time": 41.1181818,
                "pitch": 38,
                "velocity": 101,
                "duration": 0.1659091,
                "tempo": 120.0
            },
            {
                "start_time": 41.1522727,
                "end_time": 41.3181818,
                "pitch": 50,
                "velocity": 101,
                "duration": 0.1659091,
                "tempo": 120.0
            },
            {
                "start_time": 41.3522727,
                "end_time": 41.5204545,
                "pitch": 38,
                "velocity": 101,
                "duration": 0.1681818,
                "tempo": 120.0
            },
            {
                "start_time": 41.5522727,
                "end_time": 41.7204545,
                "pitch": 50,
                "velocity": 101,
                "duration": 0.1681818,
                "tempo": 120.0
            },
            {
                "start_time": 41.7545455,
                "end_time": 41.9204545,
                "pitch": 38,
                "velocity": 101,
                "duration": 0.1659091,
                "tempo": 120.0
            },
            {
                "start_time": 41.9545455,
                "end_time": 42.1204545,
                "pitch": 50,
                "velocity": 101,
                "duration": 0.1659091,
                "tempo": 120.0
            },
            {
                "start_time": 42.1545455,
                "end_time": 42.3204545,
                "pitch": 38,
                "velocity": 101,
                "duration": 0.1659091,
                "tempo": 120.0
            },
            {
                "start_time": 42.3545455,
                "end_time": 42.5204545,
                "pitch": 50,
                "velocity": 101,
                "duration": 0.1659091,
                "tempo": 120.0
            },
            {
                "start_time": 42.5545455,
                "end_time": 42.7204545,
                "pitch": 38,
                "velocity": 101,
                "duration": 0.1659091,
                "tempo": 120.0
            },
            {
                "start_time": 42.7545455,
                "end_time": 42.9204545,
                "pitch": 50,
                "velocity": 101,
                "duration": 0.1659091,
                "tempo": 120.0
            },
            {
                "start_time": 42.9545455,
                "end_time": 43.1204545,
                "pitch": 38,
                "velocity": 101,
                "duration": 0.1659091,
                "tempo": 120.0
            },
            {
                "start_time": 43.1545455,
                "end_time": 43.3204545,
                "pitch": 50,
                "velocity": 101,
                "duration": 0.1659091,
                "tempo": 120.0
            },
            {
                "start_time": 43.3545455,
                "end_time": 43.5227273,
                "pitch": 38,
                "velocity": 101,
                "duration": 0.1681818,
                "tempo": 120.0
            },
            {
                "start_time": 43.5568182,
                "end_time": 43.7227273,
                "pitch": 50,
                "velocity": 101,
                "duration": 0.1659091,
                "tempo": 120.0
            },
            {
                "start_time": 43.7568182,
                "end_time": 43.9227273,
                "pitch": 38,
                "velocity": 101,
                "duration": 0.1659091,
                "tempo": 120.0
            },
            {
                "start_time": 43.9568182,
                "end_time": 44.1227273,
                "pitch": 50,
                "velocity": 101,
                "duration": 0.1659091,
                "tempo": 120.0
            },
            {
                "start_time": 44.1568182,
                "end_time": 44.3227273,
                "pitch": 38,
                "velocity": 101,
                "duration": 0.1659091,
                "tempo": 120.0
            },
            {
                "start_time": 44.3568182,
                "end_time": 44.5227273,
                "pitch": 50,
                "velocity": 101,
                "duration": 0.1659091,
                "tempo": 120.0
            },
            {
                "start_time": 44.5568182,
                "end_time": 44.7227273,
                "pitch": 38,
                "velocity": 101,
                "duration": 0.1659091,
                "tempo": 120.0
            },
            {
                "start_time": 44.7568182,
                "end_time": 44.9227273,
                "pitch": 50,
                "velocity": 101,
                "duration": 0.1659091,
                "tempo": 120.0
            },
            {
                "start_time": 44.9568182,
                "end_time": 45.1227273,
                "pitch": 38,
                "velocity": 101,
                "duration": 0.1659091,
                "tempo": 120.0
            },
            {
                "start_time": 45.1568182,
                "end_time": 45.3227273,
                "pitch": 50,
                "velocity": 101,
                "duration": 0.1659091,
                "tempo": 120.0
            },
            {
                "start_time": 45.3568182,
                "end_time": 45.525,
                "pitch": 38,
                "velocity": 101,
                "duration": 0.1681818,
                "tempo": 120.0
            },
            {
                "start_time": 45.5590909,
                "end_time": 45.7272727,
                "pitch": 50,
                "velocity": 101,
                "duration": 0.1681818,
                "tempo": 120.0
            },
            {
                "start_time": 45.7590909,
                "end_time": 45.9272727,
                "pitch": 38,
                "velocity": 101,
                "duration": 0.1681818,
                "tempo": 120.0
            },
            {
                "start_time": 45.9590909,
                "end_time": 46.1272727,
                "pitch": 50,
                "velocity": 101,
                "duration": 0.1681818,
                "tempo": 120.0
            },
            {
                "start_time": 46.1590909,
                "end_time": 46.3272727,
                "pitch": 38,
                "velocity": 101,
                "duration": 0.1681818,
                "tempo": 120.0
            },
            {
                "start_time": 46.3590909,
                "end_time": 46.5272727,
                "pitch": 50,
                "velocity": 101,
                "duration": 0.1681818,
                "tempo": 120.0
            },
            {
                "start_time": 46.5590909,
                "end_time": 46.7272727,
                "pitch": 38,
                "velocity": 101,
                "duration": 0.1681818,
                "tempo": 120.0
            },
            {
                "start_time": 46.7590909,
                "end_time": 46.9272727,
                "pitch": 50,
                "velocity": 101,
                "duration": 0.1681818,
                "tempo": 120.0
            },
            {
                "start_time": 46.9590909,
                "end_time": 47.1272727,
                "pitch": 38,
                "velocity": 101,
                "duration": 0.1681818,
                "tempo": 120.0
            },
            {
                "start_time": 47.1590909,
                "end_time": 47.3272727,
                "pitch": 50,
                "velocity": 101,
                "duration": 0.1681818,
                "tempo": 120.0
            },
            {
                "start_time": 47.3590909,
                "end_time": 47.5272727,
                "pitch": 38,
                "velocity": 101,
                "duration": 0.1681818,
                "tempo": 120.0
            },
            {
                "start_time": 47.5613636,
                "end_time": 47.7295455,
                "pitch": 50,
                "velocity": 101,
                "duration": 0.1681818,
                "tempo": 120.0
            },
            {
                "start_time": 47.7613636,
                "end_time": 47.9295455,
                "pitch": 38,
                "velocity": 101,
                "duration": 0.1681818,
                "tempo": 120.0
            },
            {
                "start_time": 47.9613636,
                "end_time": 48.1295455,
                "pitch": 50,
                "velocity": 101,
                "duration": 0.1681818,
                "tempo": 120.0
            },
            {
                "start_time": 48.1613636,
                "end_time": 48.3295455,
                "pitch": 38,
                "velocity": 101,
                "duration": 0.1681818,
                "tempo": 120.0
            },
            {
                "start_time": 48.3613636,
                "end_time": 48.5295455,
                "pitch": 50,
                "velocity": 101,
                "duration": 0.1681818,
                "tempo": 120.0
            },
            {
                "start_time": 48.5613636,
                "end_time": 48.7295455,
                "pitch": 38,
                "velocity": 101,
                "duration": 0.1681818,
                "tempo": 120.0
            },
            {
                "start_time": 48.7613636,
                "end_time": 48.9295455,
                "pitch": 50,
                "velocity": 101,
                "duration": 0.1681818,
                "tempo": 120.0
            },
            {
                "start_time": 48.9613636,
                "end_time": 49.1295455,
                "pitch": 38,
                "velocity": 101,
                "duration": 0.1681818,
                "tempo": 120.0
            },
            {
                "start_time": 49.1613636,
                "end_time": 49.3295455,
                "pitch": 50,
                "velocity": 101,
                "duration": 0.1681818,
                "tempo": 120.0
            },
            {
                "start_time": 49.3636364,
                "end_time": 49.5340909,
                "pitch": 38,
                "velocity": 101,
                "duration": 0.1704545,
                "tempo": 120.0
            },
            {
                "start_time": 49.5681818,
                "end_time": 49.7386364,
                "pitch": 50,
                "velocity": 101,
                "duration": 0.1704545,
                "tempo": 120.0
            },
            {
                "start_time": 49.7727273,
                "end_time": 49.9363636,
                "pitch": 38,
                "velocity": 101,
                "duration": 0.1636364,
                "tempo": 120.0
            },
            {
                "start_time": 49.9681818,
                "end_time": 50.1318182,
                "pitch": 50,
                "velocity": 101,
                "duration": 0.1636364,
                "tempo": 120.0
            },
            {
                "start_time": 50.1659091,
                "end_time": 50.3318182,
                "pitch": 38,
                "velocity": 101,
                "duration": 0.1659091,
                "tempo": 120.0
            },
            {
                "start_time": 50.3659091,
                "end_time": 50.5318182,
                "pitch": 50,
                "velocity": 101,
                "duration": 0.1659091,
                "tempo": 120.0
            },
            {
                "start_time": 50.5659091,
                "end_time": 50.7318182,
                "pitch": 38,
                "velocity": 101,
                "duration": 0.1659091,
                "tempo": 120.0
            },
            {
                "start_time": 50.7659091,
                "end_time": 50.9318182,
                "pitch": 50,
                "velocity": 101,
                "duration": 0.1659091,
                "tempo": 120.0
            },
            {
                "start_time": 50.9659091,
                "end_time": 51.1318182,
                "pitch": 38,
                "velocity": 101,
                "duration": 0.1659091,
                "tempo": 120.0
            },
            {
                "start_time": 51.1659091,
                "end_time": 51.3318182,
                "pitch": 50,
                "velocity": 101,
                "duration": 0.1659091,
                "tempo": 120.0
            },
            {
                "start_time": 51.3659091,
                "end_time": 51.5340909,
                "pitch": 42,
                "velocity": 101,
                "duration": 0.1681818,
                "tempo": 120.0
            },
            {
                "start_time": 51.5659091,
                "end_time": 51.7340909,
                "pitch": 40,
                "velocity": 101,
                "duration": 0.1681818,
                "tempo": 120.0
            },
            {
                "start_time": 51.7681818,
                "end_time": 51.9340909,
                "pitch": 38,
                "velocity": 101,
                "duration": 0.1659091,
                "tempo": 120.0
            },
            {
                "start_time": 51.9681818,
                "end_time": 52.3340909,
                "pitch": 40,
                "velocity": 101,
                "duration": 0.3659091,
                "tempo": 120.0
            },
            {
                "start_time": 52.3681818,
                "end_time": 52.5340909,
                "pitch": 38,
                "velocity": 101,
                "duration": 0.1659091,
                "tempo": 120.0
            },
            {
                "start_time": 52.5681818,
                "end_time": 52.7340909,
                "pitch": 37,
                "velocity": 101,
                "duration": 0.1659091,
                "tempo": 120.0
            },
            {
                "start_time": 52.7681818,
                "end_time": 52.9340909,
                "pitch": 38,
                "velocity": 101,
                "duration": 0.1659091,
                "tempo": 120.0
            }
        ],
        "Oboe": [
            {
                "start_time": 0.0340909,
                "end_time": 1.2,
                "pitch": 66,
                "velocity": 101,
                "duration": 1.1659091,
                "tempo": 120.0
            },
            {
                "start_time": 1.2340909,
                "end_time": 1.4,
                "pitch": 66,
                "velocity": 64,
                "duration": 0.1659091,
                "tempo": 120.0
            },
            {
                "start_time": 1.4340909,
                "end_time": 2.8022727,
                "pitch": 67,
                "velocity": 64,
                "duration": 1.3681818,
                "tempo": 120.0
            },
            {
                "start_time": 2.8363636,
                "end_time": 3.0022727,
                "pitch": 67,
                "velocity": 64,
                "duration": 0.1659091,
                "tempo": 120.0
            },
            {
                "start_time": 3.0363636,
                "end_time": 4.2045455,
                "pitch": 69,
                "velocity": 64,
                "duration": 1.1681818,
                "tempo": 120.0
            },
            {
                "start_time": 4.2386364,
                "end_time": 4.6068182,
                "pitch": 69,
                "velocity": 64,
                "duration": 0.3681818,
                "tempo": 120.0
            },
            {
                "start_time": 4.6409091,
                "end_time": 6.4136364,
                "pitch": 67,
                "velocity": 64,
                "duration": 1.7727273,
                "tempo": 120.0
            },
            {
                "start_time": 6.4477273,
                "end_time": 7.6181818,
                "pitch": 66,
                "velocity": 64,
                "duration": 1.1704545,
                "tempo": 120.0
            },
            {
                "start_time": 7.6522727,
                "end_time": 7.8181818,
                "pitch": 66,
                "velocity": 64,
                "duration": 0.1659091,
                "tempo": 120.0
            },
            {
                "start_time": 7.8522727,
                "end_time": 9.2272727,
                "pitch": 67,
                "velocity": 64,
                "duration": 1.375,
                "tempo": 120.0
            },
            {
                "start_time": 9.2590909,
                "end_time": 9.4272727,
                "pitch": 67,
                "velocity": 64,
                "duration": 0.1681818,
                "tempo": 120.0
            },
            {
                "start_time": 9.4590909,
                "end_time": 10.6340909,
                "pitch": 69,
                "velocity": 64,
                "duration": 1.175,
                "tempo": 120.0
            },
            {
                "start_time": 10.6681818,
                "end_time": 11.0363636,
                "pitch": 69,
                "velocity": 64,
                "duration": 0.3681818,
                "tempo": 120.0
            },
            {
                "start_time": 11.0704545,
                "end_time": 12.8454545,
                "pitch": 67,
                "velocity": 64,
                "duration": 1.775,
                "tempo": 120.0
            },
            {
                "start_time": 12.8795455,
                "end_time": 13.0477273,
                "pitch": 50,
                "velocity": 64,
                "duration": 0.1681818,
                "tempo": 120.0
            },
            {
                "start_time": 13.0795455,
                "end_time": 13.2477273,
                "pitch": 54,
                "velocity": 64,
                "duration": 0.1681818,
                "tempo": 120.0
            },
            {
                "start_time": 13.2818182,
                "end_time": 13.4477273,
                "pitch": 50,
                "velocity": 64,
                "duration": 0.1659091,
                "tempo": 120.0
            },
            {
                "start_time": 13.4818182,
                "end_time": 13.6477273,
                "pitch": 50,
                "velocity": 64,
                "duration": 0.1659091,
                "tempo": 120.0
            },
            {
                "start_time": 13.6818182,
                "end_time": 13.85,
                "pitch": 57,
                "velocity": 64,
                "duration": 0.1681818,
                "tempo": 120.0
            },
            {
                "start_time": 13.8840909,
                "end_time": 14.05,
                "pitch": 50,
                "velocity": 64,
                "duration": 0.1659091,
                "tempo": 120.0
            },
            {
                "start_time": 14.0840909,
                "end_time": 14.2522727,
                "pitch": 54,
                "velocity": 64,
                "duration": 0.1681818,
                "tempo": 120.0
            },
            {
                "start_time": 14.2863636,
                "end_time": 14.4545455,
                "pitch": 50,
                "velocity": 64,
                "duration": 0.1681818,
                "tempo": 120.0
            },
            {
                "start_time": 14.4863636,
                "end_time": 14.6545455,
                "pitch": 50,
                "velocity": 64,
                "duration": 0.1681818,
                "tempo": 120.0
            },
            {
                "start_time": 14.6886364,
                "end_time": 14.8568182,
                "pitch": 54,
                "velocity": 64,
                "duration": 0.1681818,
                "tempo": 120.0
            },
            {
                "start_time": 14.8909091,
                "end_time": 15.0568182,
                "pitch": 50,
                "velocity": 64,
                "duration": 0.1659091,
                "tempo": 120.0
            },
            {
                "start_time": 15.0909091,
                "end_time": 15.2590909,
                "pitch": 50,
                "velocity": 64,
                "duration": 0.1681818,
                "tempo": 120.0
            },
            {
                "start_time": 15.2931818,
                "end_time": 15.4590909,
                "pitch": 57,
                "velocity": 64,
                "duration": 0.1659091,
                "tempo": 120.0
            },
            {
                "start_time": 15.4931818,
                "end_time": 15.6590909,
                "pitch": 50,
                "velocity": 64,
                "duration": 0.1659091,
                "tempo": 120.0
            },
            {
                "start_time": 15.6931818,
                "end_time": 15.8613636,
                "pitch": 54,
                "velocity": 64,
                "duration": 0.1681818,
                "tempo": 120.0
            },
            {
                "start_time": 15.8931818,
                "end_time": 16.0613636,
                "pitch": 50,
                "velocity": 64,
                "duration": 0.1681818,
                "tempo": 120.0
            },
            {
                "start_time": 16.0954545,
                "end_time": 16.2636364,
                "pitch": 52,
                "velocity": 64,
                "duration": 0.1681818,
                "tempo": 120.0
            },
            {
                "start_time": 16.2977273,
                "end_time": 16.4636364,
                "pitch": 55,
                "velocity": 64,
                "duration": 0.1659091,
                "tempo": 120.0
            },
            {
                "start_time": 16.4977273,
                "end_time": 16.6636364,
                "pitch": 52,
                "velocity": 64,
                "duration": 0.1659091,
                "tempo": 120.0
            },
            {
                "start_time": 16.6977273,
                "end_time": 16.8636364,
                "pitch": 52,
                "velocity": 64,
                "duration": 0.1659091,
                "tempo": 120.0
            },
            {
                "start_time": 16.8977273,
                "end_time": 17.0659091,
                "pitch": 59,
                "velocity": 64,
                "duration": 0.1681818,
                "tempo": 120.0
            },
            {
                "start_time": 17.1,
                "end_time": 17.2681818,
                "pitch": 52,
                "velocity": 64,
                "duration": 0.1681818,
                "tempo": 120.0
            },
            {
                "start_time": 17.3,
                "end_time": 17.4681818,
                "pitch": 55,
                "velocity": 64,
                "duration": 0.1681818,
                "tempo": 120.0
            },
            {
                "start_time": 17.5,
                "end_time": 17.6681818,
                "pitch": 52,
                "velocity": 64,
                "duration": 0.1681818,
                "tempo": 120.0
            },
            {
                "start_time": 17.7,
                "end_time": 17.8681818,
                "pitch": 52,
                "velocity": 64,
                "duration": 0.1681818,
                "tempo": 120.0
            },
            {
                "start_time": 17.9022727,
                "end_time": 18.0704545,
                "pitch": 55,
                "velocity": 64,
                "duration": 0.1681818,
                "tempo": 120.0
            },
            {
                "start_time": 18.1022727,
                "end_time": 18.2704545,
                "pitch": 52,
                "velocity": 64,
                "duration": 0.1681818,
                "tempo": 120.0
            },
            {
                "start_time": 18.3022727,
                "end_time": 18.4704545,
                "pitch": 52,
                "velocity": 64,
                "duration": 0.1681818,
                "tempo": 120.0
            },
            {
                "start_time": 18.5022727,
                "end_time": 18.6704545,
                "pitch": 59,
                "velocity": 64,
                "duration": 0.1681818,
                "tempo": 120.0
            },
            {
                "start_time": 18.7022727,
                "end_time": 18.8704545,
                "pitch": 52,
                "velocity": 64,
                "duration": 0.1681818,
                "tempo": 120.0
            },
            {
                "start_time": 18.9022727,
                "end_time": 19.0704545,
                "pitch": 55,
                "velocity": 64,
                "duration": 0.1681818,
                "tempo": 120.0
            },
            {
                "start_time": 19.1045455,
                "end_time": 19.2727273,
                "pitch": 52,
                "velocity": 64,
                "duration": 0.1681818,
                "tempo": 120.0
            },
            {
                "start_time": 19.3068182,
                "end_time": 19.4727273,
                "pitch": 50,
                "velocity": 64,
                "duration": 0.1659091,
                "tempo": 120.0
            },
            {
                "start_time": 19.5068182,
                "end_time": 19.6727273,
                "pitch": 54,
                "velocity": 64,
                "duration": 0.1659091,
                "tempo": 120.0
            },
            {
                "start_time": 19.7068182,
                "end_time": 19.8727273,
                "pitch": 50,
                "velocity": 64,
                "duration": 0.1659091,
                "tempo": 120.0
            },
            {
                "start_time": 19.9068182,
                "end_time": 20.075,
                "pitch": 50,
                "velocity": 64,
                "duration": 0.1681818,
                "tempo": 120.0
            },
            {
                "start_time": 20.1090909,
                "end_time": 20.275,
                "pitch": 57,
                "velocity": 64,
                "duration": 0.1659091,
                "tempo": 120.0
            },
            {
                "start_time": 20.3090909,
                "end_time": 20.475,
                "pitch": 50,
                "velocity": 64,
                "duration": 0.1659091,
                "tempo": 120.0
            },
            {
                "start_time": 20.5090909,
                "end_time": 20.675,
                "pitch": 54,
                "velocity": 64,
                "duration": 0.1659091,
                "tempo": 120.0
            },
            {
                "start_time": 20.7090909,
                "end_time": 20.875,
                "pitch": 50,
                "velocity": 64,
                "duration": 0.1659091,
                "tempo": 120.0
            },
            {
                "start_time": 20.9090909,
                "end_time": 21.0772727,
                "pitch": 50,
                "velocity": 64,
                "duration": 0.1681818,
                "tempo": 120.0
            },
            {
                "start_time": 21.1090909,
                "end_time": 21.2772727,
                "pitch": 54,
                "velocity": 64,
                "duration": 0.1681818,
                "tempo": 120.0
            },
            {
                "start_time": 21.3113636,
                "end_time": 21.4772727,
                "pitch": 50,
                "velocity": 64,
                "duration": 0.1659091,
                "tempo": 120.0
            },
            {
                "start_time": 21.5113636,
                "end_time": 21.6772727,
                "pitch": 50,
                "velocity": 64,
                "duration": 0.1659091,
                "tempo": 120.0
            },
            {
                "start_time": 21.7113636,
                "end_time": 21.8795455,
                "pitch": 57,
                "velocity": 64,
                "duration": 0.1681818,
                "tempo": 120.0
            },
            {
                "start_time": 21.9136364,
                "end_time": 22.0795455,
                "pitch": 50,
                "velocity": 64,
                "duration": 0.1659091,
                "tempo": 120.0
            },
            {
                "start_time": 22.1136364,
                "end_time": 22.2795455,
                "pitch": 54,
                "velocity": 64,
                "duration": 0.1659091,
                "tempo": 120.0
            },
            {
                "start_time": 22.3136364,
                "end_time": 22.4795455,
                "pitch": 50,
                "velocity": 64,
                "duration": 0.1659091,
                "tempo": 120.0
            },
            {
                "start_time": 22.5136364,
                "end_time": 22.6795455,
                "pitch": 52,
                "velocity": 64,
                "duration": 0.1659091,
                "tempo": 120.0
            },
            {
                "start_time": 22.7136364,
                "end_time": 22.8795455,
                "pitch": 55,
                "velocity": 64,
                "duration": 0.1659091,
                "tempo": 120.0
            },
            {
                "start_time": 22.9136364,
                "end_time": 23.0818182,
                "pitch": 52,
                "velocity": 64,
                "duration": 0.1681818,
                "tempo": 120.0
            },
            {
                "start_time": 23.1159091,
                "end_time": 23.2840909,
                "pitch": 52,
                "velocity": 64,
                "duration": 0.1681818,
                "tempo": 120.0
            },
            {
                "start_time": 23.3159091,
                "end_time": 23.4840909,
                "pitch": 59,
                "velocity": 64,
                "duration": 0.1681818,
                "tempo": 120.0
            },
            {
                "start_time": 23.5159091,
                "end_time": 23.6840909,
                "pitch": 52,
                "velocity": 64,
                "duration": 0.1681818,
                "tempo": 120.0
            },
            {
                "start_time": 23.7159091,
                "end_time": 23.8840909,
                "pitch": 55,
                "velocity": 64,
                "duration": 0.1681818,
                "tempo": 120.0
            },
            {
                "start_time": 23.9181818,
                "end_time": 24.0863636,
                "pitch": 52,
                "velocity": 64,
                "duration": 0.1681818,
                "tempo": 120.0
            },
            {
                "start_time": 24.1181818,
                "end_time": 24.2863636,
                "pitch": 52,
                "velocity": 64,
                "duration": 0.1681818,
                "tempo": 120.0
            },
            {
                "start_time": 24.3181818,
                "end_time": 24.4863636,
                "pitch": 55,
                "velocity": 64,
                "duration": 0.1681818,
                "tempo": 120.0
            },
            {
                "start_time": 24.5181818,
                "end_time": 24.6863636,
                "pitch": 52,
                "velocity": 64,
                "duration": 0.1681818,
                "tempo": 120.0
            },
            {
                "start_time": 24.7181818,
                "end_time": 24.8863636,
                "pitch": 52,
                "velocity": 64,
                "duration": 0.1681818,
                "tempo": 120.0
            },
            {
                "start_time": 24.9204545,
                "end_time": 25.0863636,
                "pitch": 59,
                "velocity": 64,
                "duration": 0.1659091,
                "tempo": 120.0
            },
            {
                "start_time": 25.1204545,
                "end_time": 25.2886364,
                "pitch": 52,
                "velocity": 64,
                "duration": 0.1681818,
                "tempo": 120.0
            },
            {
                "start_time": 25.3227273,
                "end_time": 25.4886364,
                "pitch": 55,
                "velocity": 64,
                "duration": 0.1659091,
                "tempo": 120.0
            },
            {
                "start_time": 25.5227273,
                "end_time": 25.6886364,
                "pitch": 52,
                "velocity": 64,
                "duration": 0.1659091,
                "tempo": 120.0
            },
            {
                "start_time": 25.7227273,
                "end_time": 38.7659091,
                "pitch": 55,
                "velocity": 64,
                "duration": 13.0431818,
                "tempo": 120.0
            },
            {
                "start_time": 38.7659091,
                "end_time": 38.9159091,
                "pitch": 62,
                "velocity": 64,
                "duration": 0.15,
                "tempo": 120.0
            },
            {
                "start_time": 38.9477273,
                "end_time": 39.1159091,
                "pitch": 64,
                "velocity": 101,
                "duration": 0.1681818,
                "tempo": 120.0
            },
            {
                "start_time": 39.1477273,
                "end_time": 39.3159091,
                "pitch": 69,
                "velocity": 101,
                "duration": 0.1681818,
                "tempo": 120.0
            },
            {
                "start_time": 39.35,
                "end_time": 39.5159091,
                "pitch": 67,
                "velocity": 101,
                "duration": 0.1659091,
                "tempo": 120.0
            },
            {
                "start_time": 39.55,
                "end_time": 39.7181818,
                "pitch": 66,
                "velocity": 101,
                "duration": 0.1681818,
                "tempo": 120.0
            },
            {
                "start_time": 39.7522727,
                "end_time": 39.9181818,
                "pitch": 67,
                "velocity": 101,
                "duration": 0.1659091,
                "tempo": 120.0
            },
            {
                "start_time": 39.9522727,
                "end_time": 40.1181818,
                "pitch": 69,
                "velocity": 101,
                "duration": 0.1659091,
                "tempo": 120.0
            },
            {
                "start_time": 40.1522727,
                "end_time": 41.3181818,
                "pitch": 66,
                "velocity": 101,
                "duration": 1.1659091,
                "tempo": 120.0
            },
            {
                "start_time": 41.3522727,
                "end_time": 41.5204545,
                "pitch": 66,
                "velocity": 80,
                "duration": 0.1681818,
                "tempo": 120.0
            },
            {
                "start_time": 41.5522727,
                "end_time": 42.9204545,
                "pitch": 67,
                "velocity": 80,
                "duration": 1.3681818,
                "tempo": 120.0
            },
            {
                "start_time": 42.9545455,
                "end_time": 43.1204545,
                "pitch": 67,
                "velocity": 80,
                "duration": 0.1659091,
                "tempo": 120.0
            },
            {
                "start_time": 43.1545455,
                "end_time": 44.3227273,
                "pitch": 69,
                "velocity": 80,
                "duration": 1.1681818,
                "tempo": 120.0
            },
            {
                "start_time": 44.3568182,
                "end_time": 44.7227273,
                "pitch": 69,
                "velocity": 80,
                "duration": 0.3659091,
                "tempo": 120.0
            },
            {
                "start_time": 44.7568182,
                "end_time": 46.5272727,
                "pitch": 67,
                "velocity": 80,
                "duration": 1.7704545,
                "tempo": 120.0
            },
            {
                "start_time": 46.5590909,
                "end_time": 47.7295455,
                "pitch": 66,
                "velocity": 80,
                "duration": 1.1704545,
                "tempo": 120.0
            },
            {
                "start_time": 47.7613636,
                "end_time": 47.9295455,
                "pitch": 66,
                "velocity": 80,
                "duration": 0.1681818,
                "tempo": 120.0
            },
            {
                "start_time": 47.9613636,
                "end_time": 49.3295455,
                "pitch": 67,
                "velocity": 80,
                "duration": 1.3681818,
                "tempo": 120.0
            },
            {
                "start_time": 49.3636364,
                "end_time": 49.5340909,
                "pitch": 67,
                "velocity": 80,
                "duration": 0.1704545,
                "tempo": 120.0
            },
            {
                "start_time": 49.5681818,
                "end_time": 50.7318182,
                "pitch": 69,
                "velocity": 80,
                "duration": 1.1636364,
                "tempo": 120.0
            },
            {
                "start_time": 50.7659091,
                "end_time": 51.1318182,
                "pitch": 69,
                "velocity": 80,
                "duration": 0.3659091,
                "tempo": 120.0
            },
            {
                "start_time": 51.1659091,
                "end_time": 51.3318182,
                "pitch": 67,
                "velocity": 80,
                "duration": 0.1659091,
                "tempo": 120.0
            },
            {
                "start_time": 51.3659091,
                "end_time": 51.5340909,
                "pitch": 66,
                "velocity": 80,
                "duration": 0.1681818,
                "tempo": 120.0
            },
            {
                "start_time": 51.5659091,
                "end_time": 51.7340909,
                "pitch": 64,
                "velocity": 101,
                "duration": 0.1681818,
                "tempo": 120.0
            },
            {
                "start_time": 51.7681818,
                "end_time": 51.9340909,
                "pitch": 62,
                "velocity": 101,
                "duration": 0.1659091,
                "tempo": 120.0
            },
            {
                "start_time": 51.9681818,
                "end_time": 52.3340909,
                "pitch": 64,
                "velocity": 101,
                "duration": 0.3659091,
                "tempo": 120.0
            },
            {
                "start_time": 52.3681818,
                "end_time": 52.5340909,
                "pitch": 62,
                "velocity": 101,
                "duration": 0.1659091,
                "tempo": 120.0
            },
            {
                "start_time": 52.5681818,
                "end_time": 52.7340909,
                "pitch": 61,
                "velocity": 101,
                "duration": 0.1659091,
                "tempo": 120.0
            },
            {
                "start_time": 52.7681818,
                "end_time": 52.9340909,
                "pitch": 62,
                "velocity": 101,
                "duration": 0.1659091,
                "tempo": 120.0
            }
        ],
        "Harpsichord": [
            {
                "start_time": 26.125,
                "end_time": 26.4909091,
                "pitch": 57,
                "velocity": 64,
                "duration": 0.3659091,
                "tempo": 120.0
            },
            {
                "start_time": 26.525,
                "end_time": 26.8909091,
                "pitch": 61,
                "velocity": 64,
                "duration": 0.3659091,
                "tempo": 120.0
            },
            {
                "start_time": 26.925,
                "end_time": 27.2931818,
                "pitch": 62,
                "velocity": 64,
                "duration": 0.3681818,
                "tempo": 120.0
            },
            {
                "start_time": 27.3272727,
                "end_time": 27.6931818,
                "pitch": 57,
                "velocity": 64,
                "duration": 0.3659091,
                "tempo": 120.0
            },
            {
                "start_time": 27.7272727,
                "end_time": 28.0977273,
                "pitch": 61,
                "velocity": 64,
                "duration": 0.3704545,
                "tempo": 120.0
            },
            {
                "start_time": 28.1295455,
                "end_time": 28.4977273,
                "pitch": 64,
                "velocity": 64,
                "duration": 0.3681818,
                "tempo": 120.0
            },
            {
                "start_time": 28.5295455,
                "end_time": 28.8977273,
                "pitch": 67,
                "velocity": 64,
                "duration": 0.3681818,
                "tempo": 120.0
            },
            {
                "start_time": 28.9295455,
                "end_time": 29.3,
                "pitch": 59,
                "velocity": 64,
                "duration": 0.3704545,
                "tempo": 120.0
            },
            {
                "start_time": 29.3318182,
                "end_time": 29.7,
                "pitch": 62,
                "velocity": 64,
                "duration": 0.3681818,
                "tempo": 120.0
            },
            {
                "start_time": 29.7318182,
                "end_time": 30.1022727,
                "pitch": 66,
                "velocity": 64,
                "duration": 0.3704545,
                "tempo": 120.0
            },
            {
                "start_time": 30.1363636,
                "end_time": 30.5022727,
                "pitch": 69,
                "velocity": 64,
                "duration": 0.3659091,
                "tempo": 120.0
            },
            {
                "start_time": 30.5363636,
                "end_time": 30.9022727,
                "pitch": 59,
                "velocity": 64,
                "duration": 0.3659091,
                "tempo": 120.0
            },
            {
                "start_time": 30.9363636,
                "end_time": 31.3045455,
                "pitch": 62,
                "velocity": 64,
                "duration": 0.3681818,
                "tempo": 120.0
            },
            {
                "start_time": 31.3386364,
                "end_time": 31.7045455,
                "pitch": 66,
                "velocity": 64,
                "duration": 0.3659091,
                "tempo": 120.0
            },
            {
                "start_time": 31.7386364,
                "end_time": 32.1068182,
                "pitch": 71,
                "velocity": 64,
                "duration": 0.3681818,
                "tempo": 120.0
            },
            {
                "start_time": 32.1409091,
                "end_time": 32.5068182,
                "pitch": 55,
                "velocity": 64,
                "duration": 0.3659091,
                "tempo": 120.0
            },
            {
                "start_time": 32.5409091,
                "end_time": 32.9068182,
                "pitch": 57,
                "velocity": 64,
                "duration": 0.3659091,
                "tempo": 120.0
            },
            {
                "start_time": 32.9409091,
                "end_time": 33.3068182,
                "pitch": 61,
                "velocity": 64,
                "duration": 0.3659091,
                "tempo": 120.0
            },
            {
                "start_time": 33.3409091,
                "end_time": 33.7090909,
                "pitch": 62,
                "velocity": 64,
                "duration": 0.3681818,
                "tempo": 120.0
            },
            {
                "start_time": 33.7431818,
                "end_time": 34.1090909,
                "pitch": 57,
                "velocity": 64,
                "duration": 0.3659091,
                "tempo": 120.0
            },
            {
                "start_time": 34.1431818,
                "end_time": 34.5090909,
                "pitch": 61,
                "velocity": 64,
                "duration": 0.3659091,
                "tempo": 120.0
            },
            {
                "start_time": 34.5431818,
                "end_time": 34.9090909,
                "pitch": 64,
                "velocity": 64,
                "duration": 0.3659091,
                "tempo": 120.0
            },
            {
                "start_time": 34.9431818,
                "end_time": 35.3090909,
                "pitch": 67,
                "velocity": 64,
                "duration": 0.3659091,
                "tempo": 120.0
            },
            {
                "start_time": 35.3431818,
                "end_time": 35.7136364,
                "pitch": 59,
                "velocity": 64,
                "duration": 0.3704545,
                "tempo": 120.0
            },
            {
                "start_time": 35.7454545,
                "end_time": 36.1136364,
                "pitch": 62,
                "velocity": 64,
                "duration": 0.3681818,
                "tempo": 120.0
            },
            {
                "start_time": 36.1454545,
                "end_time": 36.5136364,
                "pitch": 66,
                "velocity": 64,
                "duration": 0.3681818,
                "tempo": 120.0
            },
            {
                "start_time": 36.5454545,
                "end_time": 36.9136364,
                "pitch": 69,
                "velocity": 64,
                "duration": 0.3681818,
                "tempo": 120.0
            },
            {
                "start_time": 36.9454545,
                "end_time": 37.3136364,
                "pitch": 59,
                "velocity": 64,
                "duration": 0.3681818,
                "tempo": 120.0
            },
            {
                "start_time": 37.3454545,
                "end_time": 37.7159091,
                "pitch": 62,
                "velocity": 64,
                "duration": 0.3704545,
                "tempo": 120.0
            },
            {
                "start_time": 37.7477273,
                "end_time": 38.1159091,
                "pitch": 66,
                "velocity": 64,
                "duration": 0.3681818,
                "tempo": 120.0
            },
            {
                "start_time": 38.1477273,
                "end_time": 38.5159091,
                "pitch": 71,
                "velocity": 64,
                "duration": 0.3681818,
                "tempo": 120.0
            }
        ],
        "Acoustic Grand Piano": [
            {
                "start_time": 0.0,
                "end_time": 0.0659091,
                "pitch": 74,
                "velocity": 101,
                "duration": 0.0659091,
                "tempo": 120.0
            },
            {
                "start_time": 0.1,
                "end_time": 37.1795455,
                "pitch": 73,
                "velocity": 101,
                "duration": 37.0795455,
                "tempo": 120.0
            },
            {
                "start_time": 37.2136364,
                "end_time": 37.3795455,
                "pitch": 81,
                "velocity": 101,
                "duration": 0.1659091,
                "tempo": 120.0
            },
            {
                "start_time": 37.4136364,
                "end_time": 37.5818182,
                "pitch": 79,
                "velocity": 101,
                "duration": 0.1681818,
                "tempo": 120.0
            },
            {
                "start_time": 37.6136364,
                "end_time": 37.7818182,
                "pitch": 78,
                "velocity": 101,
                "duration": 0.1681818,
                "tempo": 120.0
            },
            {
                "start_time": 37.8159091,
                "end_time": 37.9818182,
                "pitch": 76,
                "velocity": 101,
                "duration": 0.1659091,
                "tempo": 120.0
            },
            {
                "start_time": 38.0159091,
                "end_time": 38.1818182,
                "pitch": 74,
                "velocity": 101,
                "duration": 0.1659091,
                "tempo": 120.0
            },
            {
                "start_time": 38.2159091,
                "end_time": 38.3818182,
                "pitch": 73,
                "velocity": 101,
                "duration": 0.1659091,
                "tempo": 120.0
            },
            {
                "start_time": 38.4159091,
                "end_time": 40.1840909,
                "pitch": 71,
                "velocity": 101,
                "duration": 1.7681818,
                "tempo": 120.0
            },
            {
                "start_time": 40.2181818,
                "end_time": 51.6,
                "pitch": 71,
                "velocity": 101,
                "duration": 11.3818182,
                "tempo": 120.0
            },
            {
                "start_time": 51.6340909,
                "end_time": 51.8,
                "pitch": 76,
                "velocity": 101,
                "duration": 0.1659091,
                "tempo": 120.0
            },
            {
                "start_time": 51.8340909,
                "end_time": 52.0,
                "pitch": 74,
                "velocity": 101,
                "duration": 0.1659091,
                "tempo": 120.0
            },
            {
                "start_time": 52.0340909,
                "end_time": 52.4,
                "pitch": 76,
                "velocity": 101,
                "duration": 0.3659091,
                "tempo": 120.0
            },
            {
                "start_time": 52.4340909,
                "end_time": 52.6,
                "pitch": 74,
                "velocity": 101,
                "duration": 0.1659091,
                "tempo": 120.0
            },
            {
                "start_time": 52.6340909,
                "end_time": 52.8,
                "pitch": 73,
                "velocity": 101,
                "duration": 0.1659091,
                "tempo": 120.0
            },
            {
                "start_time": 52.8340909,
                "end_time": 52.9340909,
                "pitch": 74,
                "velocity": 101,
                "duration": 0.1,
                "tempo": 120.0
            }
        ]
    }
}