{
    "mood": "happy",
    "instruments": {
        "Trumpet": [
            {
                "start_time": 2.4113636,
                "end_time": 4.3227273,
                "pitch": 67,
                "velocity": 4,
                "duration": 1.9113636,
                "tempo": 120.0
            },
            {
                "start_time": 4.5477273,
                "end_time": 4.6159091,
                "pitch": 65,
                "velocity": 64,
                "duration": 0.0681818,
                "tempo": 120.0
            },
            {
                "start_time": 4.6340909,
                "end_time": 4.8113636,
                "pitch": 67,
                "velocity": 64,
                "duration": 0.1772727,
                "tempo": 120.0
            },
            {
                "start_time": 4.8272727,
                "end_time": 7.3295455,
                "pitch": 65,
                "velocity": 64,
                "duration": 2.5022727,
                "tempo": 120.0
            },
            {
                "start_time": 7.3477273,
                "end_time": 7.5386364,
                "pitch": 65,
                "velocity": 64,
                "duration": 0.1909091,
                "tempo": 120.0
            },
            {
                "start_time": 7.8340909,
                "end_time": 7.9318182,
                "pitch": 65,
                "velocity": 64,
                "duration": 0.0977273,
                "tempo": 120.0
            },
            {
                "start_time": 8.2431818,
                "end_time": 8.4204545,
                "pitch": 65,
                "velocity": 64,
                "duration": 0.1772727,
                "tempo": 120.0
            },
            {
                "start_time": 8.7568182,
                "end_time": 8.8272727,
                "pitch": 65,
                "velocity": 64,
                "duration": 0.0704545,
                "tempo": 120.0
            },
            {
                "start_time": 9.1522727,
                "end_time": 9.3431818,
                "pitch": 65,
                "velocity": 64,
                "duration": 0.1909091,
                "tempo": 120.0
            },
            {
                "start_time": 9.4454545,
                "end_time": 9.6227273,
                "pitch": 65,
                "velocity": 64,
                "duration": 0.1772727,
                "tempo": 120.0
            },
            {
                "start_time": 9.7545455,
                "end_time": 11.5409091,
                "pitch": 67,
                "velocity": 64,
                "duration": 1.7863636,
                "tempo": 120.0
            },
            {
                "start_time": 11.5590909,
                "end_time": 11.7477273,
                "pitch": 63,
                "velocity": 64,
                "duration": 0.1886364,
                "tempo": 120.0
            },
            {
                "start_time": 11.7659091,
                "end_time": 11.8340909,
                "pitch": 65,
                "velocity": 64,
                "duration": 0.0681818,
                "tempo": 120.0
            },
            {
                "start_time": 12.0454545,
                "end_time": 13.9477273,
                "pitch": 67,
                "velocity": 64,
                "duration": 1.9022727,
                "tempo": 120.0
            },
            {
                "start_time": 14.1704545,
                "end_time": 14.2409091,
                "pitch": 65,
                "velocity": 64,
                "duration": 0.0704545,
                "tempo": 120.0
            },
            {
                "start_time": 14.2568182,
                "end_time": 14.4340909,
                "pitch": 67,
                "velocity": 64,
                "duration": 0.1772727,
                "tempo": 120.0
            },
            {
                "start_time": 14.4522727,
                "end_time": 16.9545455,
                "pitch": 65,
                "velocity": 64,
                "duration": 2.5022727,
                "tempo": 120.0
            },
            {
                "start_time": 16.9704545,
                "end_time": 17.1613636,
                "pitch": 65,
                "velocity": 64,
                "duration": 0.1909091,
                "tempo": 120.0
            },
            {
                "start_time": 17.4590909,
                "end_time": 17.5568182,
                "pitch": 65,
                "velocity": 64,
                "duration": 0.0977273,
                "tempo": 120.0
            },
            {
                "start_time": 17.8659091,
                "end_time": 18.0431818,
                "pitch": 65,
                "velocity": 64,
                "duration": 0.1772727,
                "tempo": 120.0
            },
            {
                "start_time": 18.3818182,
                "end_time": 18.45,
                "pitch": 65,
                "velocity": 64,
                "duration": 0.0681818,
                "tempo": 120.0
            },
            {
                "start_time": 18.775,
                "end_time": 18.9659091,
                "pitch": 65,
                "velocity": 64,
                "duration": 0.1909091,
                "tempo": 120.0
            },
            {
                "start_time": 19.0681818,
                "end_time": 19.2477273,
                "pitch": 65,
                "velocity": 64,
                "duration": 0.1795455,
                "tempo": 120.0
            },
            {
                "start_time": 19.3772727,
                "end_time": 21.1636364,
                "pitch": 67,
                "velocity": 64,
                "duration": 1.7863636,
                "tempo": 120.0
            },
            {
                "start_time": 21.1818182,
                "end_time": 21.3727273,
                "pitch": 63,
                "velocity": 64,
                "duration": 0.1909091,
                "tempo": 120.0
            },
            {
                "start_time": 21.3886364,
                "end_time": 21.4590909,
                "pitch": 65,
                "velocity": 64,
                "duration": 0.0704545,
                "tempo": 120.0
            },
            {
                "start_time": 21.6681818,
                "end_time": 23.5704545,
                "pitch": 67,
                "velocity": 64,
                "duration": 1.9022727,
                "tempo": 120.0
            },
            {
                "start_time": 23.7954545,
                "end_time": 23.8636364,
                "pitch": 65,
                "velocity": 64,
                "duration": 0.0681818,
                "tempo": 120.0
            },
            {
                "start_time": 23.8818182,
                "end_time": 24.0590909,
                "pitch": 67,
                "velocity": 64,
                "duration": 0.1772727,
                "tempo": 120.0
            },
            {
                "start_time": 24.075,
                "end_time": 26.5772727,
                "pitch": 65,
                "velocity": 64,
                "duration": 2.5022727,
                "tempo": 120.0
            },
            {
                "start_time": 26.5954545,
                "end_time": 26.7863636,
                "pitch": 65,
                "velocity": 64,
                "duration": 0.1909091,
                "tempo": 120.0
            },
            {
                "start_time": 27.0818182,
                "end_time": 27.1795455,
                "pitch": 65,
                "velocity": 64,
                "duration": 0.0977273,
                "tempo": 120.0
            },
            {
                "start_time": 27.4886364,
                "end_time": 27.6681818,
                "pitch": 65,
                "velocity": 64,
                "duration": 0.1795455,
                "tempo": 120.0
            },
            {
                "start_time": 28.0045455,
                "end_time": 28.075,
                "pitch": 65,
                "velocity": 64,
                "duration": 0.0704545,
                "tempo": 120.0
            },
            {
                "start_time": 28.4,
                "end_time": 28.5886364,
                "pitch": 65,
                "velocity": 64,
                "duration": 0.1886364,
                "tempo": 120.0
            },
            {
                "start_time": 28.6931818,
                "end_time": 28.8704545,
                "pitch": 65,
                "velocity": 64,
                "duration": 0.1772727,
                "tempo": 120.0
            },
            {
                "start_time": 29.0022727,
                "end_time": 30.7886364,
                "pitch": 67,
                "velocity": 64,
                "duration": 1.7863636,
                "tempo": 120.0
            },
            {
                "start_time": 30.8068182,
                "end_time": 30.9954545,
                "pitch": 63,
                "velocity": 64,
                "duration": 0.1886364,
                "tempo": 120.0
            },
            {
                "start_time": 31.0136364,
                "end_time": 31.0818182,
                "pitch": 65,
                "velocity": 64,
                "duration": 0.0681818,
                "tempo": 120.0
            },
            {
                "start_time": 31.2931818,
                "end_time": 33.1954545,
                "pitch": 67,
                "velocity": 64,
                "duration": 1.9022727,
                "tempo": 120.0
            },
            {
                "start_time": 33.2113636,
                "end_time": 33.4022727,
                "pitch": 65,
                "velocity": 64,
                "duration": 0.1909091,
                "tempo": 120.0
            },
            {
                "start_time": 33.4181818,
                "end_time": 33.4886364,
                "pitch": 67,
                "velocity": 64,
                "duration": 0.0704545,
                "tempo": 120.0
            },
            {
                "start_time": 33.8136364,
                "end_time": 36.2022727,
                "pitch": 65,
                "velocity": 64,
                "duration": 2.3886364,
                "tempo": 120.0
            },
            {
                "start_time": 36.2204545,
                "end_time": 36.4090909,
                "pitch": 65,
                "velocity": 64,
                "duration": 0.1886364,
                "tempo": 120.0
            },
            {
                "start_time": 36.7136364,
                "end_time": 36.8136364,
                "pitch": 65,
                "velocity": 64,
                "duration": 0.1,
                "tempo": 120.0
            },
            {
                "start_time": 37.1136364,
                "end_time": 37.2931818,
                "pitch": 65,
                "velocity": 64,
                "duration": 0.1795455,
                "tempo": 120.0
            },
            {
                "start_time": 37.6295455,
                "end_time": 37.7,
                "pitch": 65,
                "velocity": 64,
                "duration": 0.0704545,
                "tempo": 120.0
            },
            {
                "start_time": 38.025,
                "end_time": 38.2136364,
                "pitch": 65,
                "velocity": 64,
                "duration": 0.1886364,
                "tempo": 120.0
            },
            {
                "start_time": 38.3181818,
                "end_time": 38.4954545,
                "pitch": 65,
                "velocity": 64,
                "duration": 0.1772727,
                "tempo": 120.0
            },
            {
                "start_time": 38.625,
                "end_time": 40.7068182,
                "pitch": 67,
                "velocity": 64,
                "duration": 2.0818182,
                "tempo": 120.0
            },
            {
                "start_time": 43.3181818,
                "end_time": 45.2227273,
                "pitch": 67,
                "velocity": 64,
                "duration": 1.9045455,
                "tempo": 120.0
            },
            {
                "start_time": 45.4477273,
                "end_time": 45.5181818,
                "pitch": 65,
                "velocity": 64,
                "duration": 0.0704545,
                "tempo": 120.0
            },
            {
                "start_time": 45.5340909,
                "end_time": 45.7113636,
                "pitch": 67,
                "velocity": 64,
                "duration": 0.1772727,
                "tempo": 120.0
            },
            {
                "start_time": 45.7272727,
                "end_time": 48.2318182,
                "pitch": 65,
                "velocity": 64,
                "duration": 2.5045455,
                "tempo": 120.0
            },
            {
                "start_time": 48.2477273,
                "end_time": 48.4386364,
                "pitch": 65,
                "velocity": 64,
                "duration": 0.1909091,
                "tempo": 120.0
            },
            {
                "start_time": 48.7363636,
                "end_time": 48.8318182,
                "pitch": 65,
                "velocity": 64,
                "duration": 0.0954545,
                "tempo": 120.0
            },
            {
                "start_time": 49.1431818,
                "end_time": 49.3204545,
                "pitch": 65,
                "velocity": 64,
                "duration": 0.1772727,
                "tempo": 120.0
            },
            {
                "start_time": 49.6590909,
                "end_time": 49.7272727,
                "pitch": 65,
                "velocity": 64,
                "duration": 0.0681818,
                "tempo": 120.0
            },
            {
                "start_time": 50.0522727,
                "end_time": 50.2431818,
                "pitch": 65,
                "velocity": 64,
                "duration": 0.1909091,
                "tempo": 120.0
            },
            {
                "start_time": 50.3454545,
                "end_time": 50.5227273,
                "pitch": 65,
                "velocity": 64,
                "duration": 0.1772727,
                "tempo": 120.0
            },
            {
                "start_time": 50.6545455,
                "end_time": 52.4409091,
                "pitch": 67,
                "velocity": 64,
                "duration": 1.7863636,
                "tempo": 120.0
            },
            {
                "start_time": 52.4590909,
                "end_time": 52.6477273,
                "pitch": 63,
                "velocity": 64,
                "duration": 0.1886364,
                "tempo": 120.0
            },
            {
                "start_time": 52.6659091,
                "end_time": 52.7340909,
                "pitch": 65,
                "velocity": 64,
                "duration": 0.0681818,
                "tempo": 120.0
            },
            {
                "start_time": 52.9454545,
                "end_time": 54.8477273,
                "pitch": 67,
                "velocity": 64,
                "duration": 1.9022727,
                "tempo": 120.0
            },
            {
                "start_time": 55.0727273,
                "end_time": 55.1409091,
                "pitch": 65,
                "velocity": 64,
                "duration": 0.0681818,
                "tempo": 120.0
            },
            {
                "start_time": 55.1568182,
                "end_time": 55.3363636,
                "pitch": 67,
                "velocity": 64,
                "duration": 0.1795455,
                "tempo": 120.0
            },
            {
                "start_time": 55.3522727,
                "end_time": 57.8545455,
                "pitch": 65,
                "velocity": 64,
                "duration": 2.5022727,
                "tempo": 120.0
            },
            {
                "start_time": 57.8727273,
                "end_time": 58.0613636,
                "pitch": 65,
                "velocity": 64,
                "duration": 0.1886364,
                "tempo": 120.0
            },
            {
                "start_time": 58.3590909,
                "end_time": 58.4568182,
                "pitch": 65,
                "velocity": 64,
                "duration": 0.0977273,
                "tempo": 120.0
            },
            {
                "start_time": 58.7659091,
                "end_time": 58.9454545,
                "pitch": 65,
                "velocity": 64,
                "duration": 0.1795455,
                "tempo": 120.0
            },
            {
                "start_time": 59.2818182,
                "end_time": 59.3522727,
                "pitch": 65,
                "velocity": 64,
                "duration": 0.0704545,
                "tempo": 120.0
            },
            {
                "start_time": 59.6772727,
                "end_time": 59.8659091,
                "pitch": 65,
                "velocity": 64,
                "duration": 0.1886364,
                "tempo": 120.0
            },
            {
                "start_time": 59.9704545,
                "end_time": 60.1477273,
                "pitch": 65,
                "velocity": 64,
                "duration": 0.1772727,
                "tempo": 120.0
            },
            {
                "start_time": 60.2772727,
                "end_time": 62.0659091,
                "pitch": 67,
                "velocity": 64,
                "duration": 1.7886364,
                "tempo": 120.0
            },
            {
                "start_time": 62.0818182,
                "end_time": 62.2727273,
                "pitch": 63,
                "velocity": 64,
                "duration": 0.1909091,
                "tempo": 120.0
            },
            {
                "start_time": 62.2909091,
                "end_time": 62.3590909,
                "pitch": 65,
                "velocity": 64,
                "duration": 0.0681818,
                "tempo": 120.0
            },
            {
                "start_time": 62.5704545,
                "end_time": 64.4704545,
                "pitch": 67,
                "velocity": 64,
                "duration": 1.9,
                "tempo": 120.0
            },
            {
                "start_time": 64.6954545,
                "end_time": 64.7659091,
                "pitch": 65,
                "velocity": 64,
                "duration": 0.0704545,
                "tempo": 120.0
            },
            {
                "start_time": 64.7818182,
                "end_time": 64.9590909,
                "pitch": 67,
                "velocity": 64,
                "duration": 0.1772727,
                "tempo": 120.0
            },
            {
                "start_time": 64.975,
                "end_time": 67.4795455,
                "pitch": 65,
                "velocity": 64,
                "duration": 2.5045455,
                "tempo": 120.0
            },
            {
                "start_time": 67.4954545,
                "end_time": 67.6863636,
                "pitch": 65,
                "velocity": 64,
                "duration": 0.1909091,
                "tempo": 120.0
            },
            {
                "start_time": 67.9840909,
                "end_time": 68.0795455,
                "pitch": 65,
                "velocity": 64,
                "duration": 0.0954545,
                "tempo": 120.0
            },
            {
                "start_time": 68.3909091,
                "end_time": 68.5681818,
                "pitch": 65,
                "velocity": 64,
                "duration": 0.1772727,
                "tempo": 120.0
            },
            {
                "start_time": 68.9068182,
                "end_time": 68.975,
                "pitch": 65,
                "velocity": 64,
                "duration": 0.0681818,
                "tempo": 120.0
            },
            {
                "start_time": 69.3,
                "end_time": 69.4909091,
                "pitch": 65,
                "velocity": 64,
                "duration": 0.1909091,
                "tempo": 120.0
            },
            {
                "start_time": 69.5931818,
                "end_time": 69.7704545,
                "pitch": 65,
                "velocity": 64,
                "duration": 0.1772727,
                "tempo": 120.0
            },
            {
                "start_time": 69.9022727,
                "end_time": 71.6886364,
                "pitch": 67,
                "velocity": 64,
                "duration": 1.7863636,
                "tempo": 120.0
            },
            {
                "start_time": 71.7068182,
                "end_time": 71.8954545,
                "pitch": 63,
                "velocity": 64,
                "duration": 0.1886364,
                "tempo": 120.0
            },
            {
                "start_time": 71.9136364,
                "end_time": 71.9818182,
                "pitch": 65,
                "velocity": 64,
                "duration": 0.0681818,
                "tempo": 120.0
            },
            {
                "start_time": 72.1931818,
                "end_time": 74.0954545,
                "pitch": 67,
                "velocity": 64,
                "duration": 1.9022727,
                "tempo": 120.0
            },
            {
                "start_time": 74.3204545,
                "end_time": 74.3886364,
                "pitch": 65,
                "velocity": 64,
                "duration": 0.0681818,
                "tempo": 120.0
            },
            {
                "start_time": 74.4045455,
                "end_time": 74.5840909,
                "pitch": 67,
                "velocity": 64,
                "duration": 0.1795455,
                "tempo": 120.0
            },
            {
                "start_time": 74.6,
                "end_time": 77.1022727,
                "pitch": 65,
                "velocity": 64,
                "duration": 2.5022727,
                "tempo": 120.0
            },
            {
                "start_time": 77.1181818,
                "end_time": 77.3090909,
                "pitch": 65,
                "velocity": 64,
                "duration": 0.1909091,
                "tempo": 120.0
            },
            {
                "start_time": 77.6113636,
                "end_time": 77.7113636,
                "pitch": 65,
                "velocity": 64,
                "duration": 0.1,
                "tempo": 120.0
            },
            {
                "start_time": 78.0136364,
                "end_time": 78.1909091,
                "pitch": 65,
                "velocity": 64,
                "duration": 0.1772727,
                "tempo": 120.0
            },
            {
                "start_time": 78.5295455,
                "end_time": 78.5977273,
                "pitch": 65,
                "velocity": 64,
                "duration": 0.0681818,
                "tempo": 120.0
            },
            {
                "start_time": 78.9227273,
                "end_time": 79.1136364,
                "pitch": 65,
                "velocity": 64,
                "duration": 0.1909091,
                "tempo": 120.0
            },
            {
                "start_time": 79.2159091,
                "end_time": 79.3954545,
                "pitch": 65,
                "velocity": 64,
                "duration": 0.1795455,
                "tempo": 120.0
            },
            {
                "start_time": 79.525,
                "end_time": 79.7159091,
                "pitch": 67,
                "velocity": 64,
                "duration": 0.1909091,
                "tempo": 120.0
            },
            {
                "start_time": 80.0113636,
                "end_time": 80.1090909,
                "pitch": 67,
                "velocity": 64,
                "duration": 0.0977273,
                "tempo": 120.0
            },
            {
                "start_time": 80.4204545,
                "end_time": 80.7113636,
                "pitch": 67,
                "velocity": 64,
                "duration": 0.2909091,
                "tempo": 120.0
            }
        ],
        "Acoustic Bass": [
            {
                "start_time": 2.4113636,
                "end_time": 2.7227273,
                "pitch": 43,
                "velocity": 4,
                "duration": 0.3113636,
                "tempo": 120.0
            },
            {
                "start_time": 2.7409091,
                "end_time": 2.8113636,
                "pitch": 55,
                "velocity": 80,
                "duration": 0.0704545,
                "tempo": 120.0
            },
            {
                "start_time": 2.8295455,
                "end_time": 3.0068182,
                "pitch": 43,
                "velocity": 80,
                "duration": 0.1772727,
                "tempo": 120.0
            },
            {
                "start_time": 3.0227273,
                "end_time": 3.1204545,
                "pitch": 55,
                "velocity": 80,
                "duration": 0.0977273,
                "tempo": 120.0
            },
            {
                "start_time": 3.1363636,
                "end_time": 3.3272727,
                "pitch": 43,
                "velocity": 80,
                "duration": 0.1909091,
                "tempo": 120.0
            },
            {
                "start_time": 3.3454545,
                "end_time": 3.4136364,
                "pitch": 55,
                "velocity": 80,
                "duration": 0.0681818,
                "tempo": 120.0
            },
            {
                "start_time": 3.4295455,
                "end_time": 3.6090909,
                "pitch": 43,
                "velocity": 80,
                "duration": 0.1795455,
                "tempo": 120.0
            },
            {
                "start_time": 3.625,
                "end_time": 3.7204545,
                "pitch": 55,
                "velocity": 80,
                "duration": 0.0954545,
                "tempo": 120.0
            },
            {
                "start_time": 3.7386364,
                "end_time": 3.9295455,
                "pitch": 43,
                "velocity": 80,
                "duration": 0.1909091,
                "tempo": 120.0
            },
            {
                "start_time": 3.9454545,
                "end_time": 4.0159091,
                "pitch": 55,
                "velocity": 80,
                "duration": 0.0704545,
                "tempo": 120.0
            },
            {
                "start_time": 4.0318182,
                "end_time": 4.2090909,
                "pitch": 43,
                "velocity": 80,
                "duration": 0.1772727,
                "tempo": 120.0
            },
            {
                "start_time": 4.225,
                "end_time": 4.3227273,
                "pitch": 55,
                "velocity": 80,
                "duration": 0.0977273,
                "tempo": 120.0
            },
            {
                "start_time": 4.3409091,
                "end_time": 4.5295455,
                "pitch": 43,
                "velocity": 80,
                "duration": 0.1886364,
                "tempo": 120.0
            },
            {
                "start_time": 4.5477273,
                "end_time": 4.6159091,
                "pitch": 55,
                "velocity": 80,
                "duration": 0.0681818,
                "tempo": 120.0
            },
            {
                "start_time": 4.6340909,
                "end_time": 4.8113636,
                "pitch": 43,
                "velocity": 80,
                "duration": 0.1772727,
                "tempo": 120.0
            },
            {
                "start_time": 4.8272727,
                "end_time": 4.925,
                "pitch": 55,
                "velocity": 80,
                "duration": 0.0977273,
                "tempo": 120.0
            },
            {
                "start_time": 4.9409091,
                "end_time": 5.1318182,
                "pitch": 41,
                "velocity": 80,
                "duration": 0.1909091,
                "tempo": 120.0
            },
            {
                "start_time": 5.15,
                "end_time": 5.2181818,
                "pitch": 53,
                "velocity": 80,
                "duration": 0.0681818,
                "tempo": 120.0
            },
            {
                "start_time": 5.2340909,
                "end_time": 5.4136364,
                "pitch": 41,
                "velocity": 80,
                "duration": 0.1795455,
                "tempo": 120.0
            },
            {
                "start_time": 5.4295455,
                "end_time": 5.525,
                "pitch": 53,
                "velocity": 80,
                "duration": 0.0954545,
                "tempo": 120.0
            },
            {
                "start_time": 5.5431818,
                "end_time": 5.7340909,
                "pitch": 41,
                "velocity": 80,
                "duration": 0.1909091,
                "tempo": 120.0
            },
            {
                "start_time": 5.75,
                "end_time": 5.8204545,
                "pitch": 53,
                "velocity": 80,
                "duration": 0.0704545,
                "tempo": 120.0
            },
            {
                "start_time": 5.8363636,
                "end_time": 6.0136364,
                "pitch": 41,
                "velocity": 80,
                "duration": 0.1772727,
                "tempo": 120.0
            },
            {
                "start_time": 6.0295455,
                "end_time": 6.1272727,
                "pitch": 53,
                "velocity": 80,
                "duration": 0.0977273,
                "tempo": 120.0
            },
            {
                "start_time": 6.1454545,
                "end_time": 6.3340909,
                "pitch": 41,
                "velocity": 80,
                "duration": 0.1886364,
                "tempo": 120.0
            },
            {
                "start_time": 6.3522727,
                "end_time": 6.4204545,
                "pitch": 53,
                "velocity": 80,
                "duration": 0.0681818,
                "tempo": 120.0
            },
            {
                "start_time": 6.4386364,
                "end_time": 6.6159091,
                "pitch": 41,
                "velocity": 80,
                "duration": 0.1772727,
                "tempo": 120.0
            },
            {
                "start_time": 6.6318182,
                "end_time": 6.7295455,
                "pitch": 53,
                "velocity": 80,
                "duration": 0.0977273,
                "tempo": 120.0
            },
            {
                "start_time": 6.7454545,
                "end_time": 6.9363636,
                "pitch": 41,
                "velocity": 80,
                "duration": 0.1909091,
                "tempo": 120.0
            },
            {
                "start_time": 6.9545455,
                "end_time": 7.0227273,
                "pitch": 53,
                "velocity": 80,
                "duration": 0.0681818,
                "tempo": 120.0
            },
            {
                "start_time": 7.0386364,
                "end_time": 7.2181818,
                "pitch": 41,
                "velocity": 80,
                "duration": 0.1795455,
                "tempo": 120.0
            },
            {
                "start_time": 7.2340909,
                "end_time": 7.3295455,
                "pitch": 53,
                "velocity": 80,
                "duration": 0.0954545,
                "tempo": 120.0
            },
            {
                "start_time": 7.3477273,
                "end_time": 7.5386364,
                "pitch": 41,
                "velocity": 80,
                "duration": 0.1909091,
                "tempo": 120.0
            },
            {
                "start_time": 7.5545455,
                "end_time": 7.625,
                "pitch": 53,
                "velocity": 80,
                "duration": 0.0704545,
                "tempo": 120.0
            },
            {
                "start_time": 7.6409091,
                "end_time": 7.8181818,
                "pitch": 41,
                "velocity": 80,
                "duration": 0.1772727,
                "tempo": 120.0
            },
            {
                "start_time": 7.8340909,
                "end_time": 7.9318182,
                "pitch": 53,
                "velocity": 80,
                "duration": 0.0977273,
                "tempo": 120.0
            },
            {
                "start_time": 7.95,
                "end_time": 8.1386364,
                "pitch": 41,
                "velocity": 80,
                "duration": 0.1886364,
                "tempo": 120.0
            },
            {
                "start_time": 8.1568182,
                "end_time": 8.225,
                "pitch": 53,
                "velocity": 80,
                "duration": 0.0681818,
                "tempo": 120.0
            },
            {
                "start_time": 8.2431818,
                "end_time": 8.4204545,
                "pitch": 41,
                "velocity": 80,
                "duration": 0.1772727,
                "tempo": 120.0
            },
            {
                "start_time": 8.4363636,
                "end_time": 8.5340909,
                "pitch": 53,
                "velocity": 80,
                "duration": 0.0977273,
                "tempo": 120.0
            },
            {
                "start_time": 8.55,
                "end_time": 8.7409091,
                "pitch": 41,
                "velocity": 80,
                "duration": 0.1909091,
                "tempo": 120.0
            },
            {
                "start_time": 8.7568182,
                "end_time": 8.8272727,
                "pitch": 53,
                "velocity": 80,
                "duration": 0.0704545,
                "tempo": 120.0
            },
            {
                "start_time": 8.8431818,
                "end_time": 9.0227273,
                "pitch": 41,
                "velocity": 80,
                "duration": 0.1795455,
                "tempo": 120.0
            },
            {
                "start_time": 9.0386364,
                "end_time": 9.1340909,
                "pitch": 53,
                "velocity": 80,
                "duration": 0.0954545,
                "tempo": 120.0
            },
            {
                "start_time": 9.1522727,
                "end_time": 9.3431818,
                "pitch": 41,
                "velocity": 80,
                "duration": 0.1909091,
                "tempo": 120.0
            },
            {
                "start_time": 9.3590909,
                "end_time": 9.4295455,
                "pitch": 53,
                "velocity": 80,
                "duration": 0.0704545,
                "tempo": 120.0
            },
            {
                "start_time": 9.4454545,
                "end_time": 9.6227273,
                "pitch": 41,
                "velocity": 80,
                "duration": 0.1772727,
                "tempo": 120.0
            },
            {
                "start_time": 9.6386364,
                "end_time": 9.7363636,
                "pitch": 53,
                "velocity": 80,
                "duration": 0.0977273,
                "tempo": 120.0
            },
            {
                "start_time": 9.7545455,
                "end_time": 9.9431818,
                "pitch": 43,
                "velocity": 80,
                "duration": 0.1886364,
                "tempo": 120.0
            },
            {
                "start_time": 9.9613636,
                "end_time": 10.0295455,
                "pitch": 55,
                "velocity": 80,
                "duration": 0.0681818,
                "tempo": 120.0
            },
            {
                "start_time": 10.0454545,
                "end_time": 10.225,
                "pitch": 43,
                "velocity": 80,
                "duration": 0.1795455,
                "tempo": 120.0
            },
            {
                "start_time": 10.2409091,
                "end_time": 10.3386364,
                "pitch": 55,
                "velocity": 80,
                "duration": 0.0977273,
                "tempo": 120.0
            },
            {
                "start_time": 10.3545455,
                "end_time": 10.5454545,
                "pitch": 43,
                "velocity": 80,
                "duration": 0.1909091,
                "tempo": 120.0
            },
            {
                "start_time": 10.5613636,
                "end_time": 10.6318182,
                "pitch": 55,
                "velocity": 80,
                "duration": 0.0704545,
                "tempo": 120.0
            },
            {
                "start_time": 10.6477273,
                "end_time": 10.825,
                "pitch": 43,
                "velocity": 80,
                "duration": 0.1772727,
                "tempo": 120.0
            },
            {
                "start_time": 10.8431818,
                "end_time": 10.9386364,
                "pitch": 55,
                "velocity": 80,
                "duration": 0.0954545,
                "tempo": 120.0
            },
            {
                "start_time": 10.9568182,
                "end_time": 11.1454545,
                "pitch": 43,
                "velocity": 80,
                "duration": 0.1886364,
                "tempo": 120.0
            },
            {
                "start_time": 11.1636364,
                "end_time": 11.2318182,
                "pitch": 55,
                "velocity": 80,
                "duration": 0.0681818,
                "tempo": 120.0
            },
            {
                "start_time": 11.25,
                "end_time": 11.4272727,
                "pitch": 43,
                "velocity": 80,
                "duration": 0.1772727,
                "tempo": 120.0
            },
            {
                "start_time": 11.4431818,
                "end_time": 11.5409091,
                "pitch": 55,
                "velocity": 80,
                "duration": 0.0977273,
                "tempo": 120.0
            },
            {
                "start_time": 11.5590909,
                "end_time": 11.7477273,
                "pitch": 43,
                "velocity": 80,
                "duration": 0.1886364,
                "tempo": 120.0
            },
            {
                "start_time": 11.7659091,
                "end_time": 11.8340909,
                "pitch": 55,
                "velocity": 80,
                "duration": 0.0681818,
                "tempo": 120.0
            },
            {
                "start_time": 11.85,
                "end_time": 12.0295455,
                "pitch": 43,
                "velocity": 80,
                "duration": 0.1795455,
                "tempo": 120.0
            },
            {
                "start_time": 12.0454545,
                "end_time": 12.1431818,
                "pitch": 55,
                "velocity": 80,
                "duration": 0.0977273,
                "tempo": 120.0
            },
            {
                "start_time": 12.1590909,
                "end_time": 12.35,
                "pitch": 43,
                "velocity": 80,
                "duration": 0.1909091,
                "tempo": 120.0
            },
            {
                "start_time": 12.3659091,
                "end_time": 12.4363636,
                "pitch": 55,
                "velocity": 80,
                "duration": 0.0704545,
                "tempo": 120.0
            },
            {
                "start_time": 12.4522727,
                "end_time": 12.6295455,
                "pitch": 43,
                "velocity": 80,
                "duration": 0.1772727,
                "tempo": 120.0
            },
            {
                "start_time": 12.6477273,
                "end_time": 12.7431818,
                "pitch": 55,
                "velocity": 80,
                "duration": 0.0954545,
                "tempo": 120.0
            },
            {
                "start_time": 12.7613636,
                "end_time": 12.95,
                "pitch": 43,
                "velocity": 80,
                "duration": 0.1886364,
                "tempo": 120.0
            },
            {
                "start_time": 12.9681818,
                "end_time": 13.0363636,
                "pitch": 55,
                "velocity": 80,
                "duration": 0.0681818,
                "tempo": 120.0
            },
            {
                "start_time": 13.0545455,
                "end_time": 13.2318182,
                "pitch": 43,
                "velocity": 80,
                "duration": 0.1772727,
                "tempo": 120.0
            },
            {
                "start_time": 13.2477273,
                "end_time": 13.3454545,
                "pitch": 55,
                "velocity": 80,
                "duration": 0.0977273,
                "tempo": 120.0
            },
            {
                "start_time": 13.3636364,
                "end_time": 13.5522727,
                "pitch": 43,
                "velocity": 80,
                "duration": 0.1886364,
                "tempo": 120.0
            },
            {
                "start_time": 13.5704545,
                "end_time": 13.6386364,
                "pitch": 55,
                "velocity": 80,
                "duration": 0.0681818,
                "tempo": 120.0
            },
            {
                "start_time": 13.6545455,
                "end_time": 13.8340909,
                "pitch": 43,
                "velocity": 80,
                "duration": 0.1795455,
                "tempo": 120.0
            },
            {
                "start_time": 13.85,
                "end_time": 13.9477273,
                "pitch": 55,
                "velocity": 80,
                "duration": 0.0977273,
                "tempo": 120.0
            },
            {
                "start_time": 13.9636364,
                "end_time": 14.1545455,
                "pitch": 43,
                "velocity": 80,
                "duration": 0.1909091,
                "tempo": 120.0
            },
            {
                "start_time": 14.1704545,
                "end_time": 14.2409091,
                "pitch": 55,
                "velocity": 80,
                "duration": 0.0704545,
                "tempo": 120.0
            },
            {
                "start_time": 14.2568182,
                "end_time": 14.4340909,
                "pitch": 43,
                "velocity": 80,
                "duration": 0.1772727,
                "tempo": 120.0
            },
            {
                "start_time": 14.4522727,
                "end_time": 14.5477273,
                "pitch": 55,
                "velocity": 80,
                "duration": 0.0954545,
                "tempo": 120.0
            },
            {
                "start_time": 14.5659091,
                "end_time": 14.7545455,
                "pitch": 41,
                "velocity": 80,
                "duration": 0.1886364,
                "tempo": 120.0
            },
            {
                "start_time": 14.7727273,
                "end_time": 14.8409091,
                "pitch": 53,
                "velocity": 80,
                "duration": 0.0681818,
                "tempo": 120.0
            },
            {
                "start_time": 14.8590909,
                "end_time": 15.0363636,
                "pitch": 41,
                "velocity": 80,
                "duration": 0.1772727,
                "tempo": 120.0
            },
            {
                "start_time": 15.0522727,
                "end_time": 15.15,
                "pitch": 53,
                "velocity": 80,
                "duration": 0.0977273,
                "tempo": 120.0
            },
            {
                "start_time": 15.1659091,
                "end_time": 15.3568182,
                "pitch": 41,
                "velocity": 80,
                "duration": 0.1909091,
                "tempo": 120.0
            },
            {
                "start_time": 15.375,
                "end_time": 15.4431818,
                "pitch": 53,
                "velocity": 80,
                "duration": 0.0681818,
                "tempo": 120.0
            },
            {
                "start_time": 15.4590909,
                "end_time": 15.6386364,
                "pitch": 41,
                "velocity": 80,
                "duration": 0.1795455,
                "tempo": 120.0
            },
            {
                "start_time": 15.6545455,
                "end_time": 15.7522727,
                "pitch": 53,
                "velocity": 80,
                "duration": 0.0977273,
                "tempo": 120.0
            },
            {
                "start_time": 15.7681818,
                "end_time": 15.9590909,
                "pitch": 41,
                "velocity": 80,
                "duration": 0.1909091,
                "tempo": 120.0
            },
            {
                "start_time": 15.975,
                "end_time": 16.0454545,
                "pitch": 53,
                "velocity": 80,
                "duration": 0.0704545,
                "tempo": 120.0
            },
            {
                "start_time": 16.0613636,
                "end_time": 16.2386364,
                "pitch": 41,
                "velocity": 80,
                "duration": 0.1772727,
                "tempo": 120.0
            },
            {
                "start_time": 16.2545455,
                "end_time": 16.3522727,
                "pitch": 53,
                "velocity": 80,
                "duration": 0.0977273,
                "tempo": 120.0
            },
            {
                "start_time": 16.3704545,
                "end_time": 16.5590909,
                "pitch": 41,
                "velocity": 80,
                "duration": 0.1886364,
                "tempo": 120.0
            },
            {
                "start_time": 16.5772727,
                "end_time": 16.6454545,
                "pitch": 53,
                "velocity": 80,
                "duration": 0.0681818,
                "tempo": 120.0
            },
            {
                "start_time": 16.6636364,
                "end_time": 16.8409091,
                "pitch": 41,
                "velocity": 80,
                "duration": 0.1772727,
                "tempo": 120.0
            },
            {
                "start_time": 16.8568182,
                "end_time": 16.9545455,
                "pitch": 53,
                "velocity": 80,
                "duration": 0.0977273,
                "tempo": 120.0
            },
            {
                "start_time": 16.9704545,
                "end_time": 17.1613636,
                "pitch": 41,
                "velocity": 80,
                "duration": 0.1909091,
                "tempo": 120.0
            },
            {
                "start_time": 17.1795455,
                "end_time": 17.2477273,
                "pitch": 53,
                "velocity": 80,
                "duration": 0.0681818,
                "tempo": 120.0
            },
            {
                "start_time": 17.2636364,
                "end_time": 17.4431818,
                "pitch": 41,
                "velocity": 80,
                "duration": 0.1795455,
                "tempo": 120.0
            },
            {
                "start_time": 17.4590909,
                "end_time": 17.5568182,
                "pitch": 53,
                "velocity": 80,
                "duration": 0.0977273,
                "tempo": 120.0
            },
            {
                "start_time": 17.5727273,
                "end_time": 17.7636364,
                "pitch": 41,
                "velocity": 80,
                "duration": 0.1909091,
                "tempo": 120.0
            },
            {
                "start_time": 17.7795455,
                "end_time": 17.85,
                "pitch": 53,
                "velocity": 80,
                "duration": 0.0704545,
                "tempo": 120.0
            },
            {
                "start_time": 17.8659091,
                "end_time": 18.0431818,
                "pitch": 41,
                "velocity": 80,
                "duration": 0.1772727,
                "tempo": 120.0
            },
            {
                "start_time": 18.0590909,
                "end_time": 18.1568182,
                "pitch": 53,
                "velocity": 80,
                "duration": 0.0977273,
                "tempo": 120.0
            },
            {
                "start_time": 18.175,
                "end_time": 18.3636364,
                "pitch": 41,
                "velocity": 80,
                "duration": 0.1886364,
                "tempo": 120.0
            },
            {
                "start_time": 18.3818182,
                "end_time": 18.45,
                "pitch": 53,
                "velocity": 80,
                "duration": 0.0681818,
                "tempo": 120.0
            },
            {
                "start_time": 18.4681818,
                "end_time": 18.6454545,
                "pitch": 41,
                "velocity": 80,
                "duration": 0.1772727,
                "tempo": 120.0
            },
            {
                "start_time": 18.6613636,
                "end_time": 18.7590909,
                "pitch": 53,
                "velocity": 80,
                "duration": 0.0977273,
                "tempo": 120.0
            },
            {
                "start_time": 18.775,
                "end_time": 18.9659091,
                "pitch": 41,
                "velocity": 80,
                "duration": 0.1909091,
                "tempo": 120.0
            },
            {
                "start_time": 18.9840909,
                "end_time": 19.0522727,
                "pitch": 53,
                "velocity": 80,
                "duration": 0.0681818,
                "tempo": 120.0
            },
            {
                "start_time": 19.0681818,
                "end_time": 19.2477273,
                "pitch": 41,
                "velocity": 80,
                "duration": 0.1795455,
                "tempo": 120.0
            },
            {
                "start_time": 19.2636364,
                "end_time": 19.3590909,
                "pitch": 53,
                "velocity": 80,
                "duration": 0.0954545,
                "tempo": 120.0
            },
            {
                "start_time": 19.3772727,
                "end_time": 19.5681818,
                "pitch": 43,
                "velocity": 80,
                "duration": 0.1909091,
                "tempo": 120.0
            },
            {
                "start_time": 19.5840909,
                "end_time": 19.6545455,
                "pitch": 55,
                "velocity": 80,
                "duration": 0.0704545,
                "tempo": 120.0
            },
            {
                "start_time": 19.6704545,
                "end_time": 19.8477273,
                "pitch": 43,
                "velocity": 80,
                "duration": 0.1772727,
                "tempo": 120.0
            },
            {
                "start_time": 19.8636364,
                "end_time": 19.9613636,
                "pitch": 55,
                "velocity": 80,
                "duration": 0.0977273,
                "tempo": 120.0
            },
            {
                "start_time": 19.9795455,
                "end_time": 20.1681818,
                "pitch": 43,
                "velocity": 80,
                "duration": 0.1886364,
                "tempo": 120.0
            },
            {
                "start_time": 20.1863636,
                "end_time": 20.2545455,
                "pitch": 55,
                "velocity": 80,
                "duration": 0.0681818,
                "tempo": 120.0
            },
            {
                "start_time": 20.2727273,
                "end_time": 20.45,
                "pitch": 43,
                "velocity": 80,
                "duration": 0.1772727,
                "tempo": 120.0
            },
            {
                "start_time": 20.4659091,
                "end_time": 20.5636364,
                "pitch": 55,
                "velocity": 80,
                "duration": 0.0977273,
                "tempo": 120.0
            },
            {
                "start_time": 20.5795455,
                "end_time": 20.7704545,
                "pitch": 43,
                "velocity": 80,
                "duration": 0.1909091,
                "tempo": 120.0
            },
            {
                "start_time": 20.7886364,
                "end_time": 20.8568182,
                "pitch": 55,
                "velocity": 80,
                "duration": 0.0681818,
                "tempo": 120.0
            },
            {
                "start_time": 20.8727273,
                "end_time": 21.0522727,
                "pitch": 43,
                "velocity": 80,
                "duration": 0.1795455,
                "tempo": 120.0
            },
            {
                "start_time": 21.0681818,
                "end_time": 21.1636364,
                "pitch": 55,
                "velocity": 80,
                "duration": 0.0954545,
                "tempo": 120.0
            },
            {
                "start_time": 21.1818182,
                "end_time": 21.3727273,
                "pitch": 43,
                "velocity": 80,
                "duration": 0.1909091,
                "tempo": 120.0
            },
            {
                "start_time": 21.3886364,
                "end_time": 21.4590909,
                "pitch": 55,
                "velocity": 80,
                "duration": 0.0704545,
                "tempo": 120.0
            },
            {
                "start_time": 21.475,
                "end_time": 21.6522727,
                "pitch": 43,
                "velocity": 80,
                "duration": 0.1772727,
                "tempo": 120.0
            },
            {
                "start_time": 21.6681818,
                "end_time": 21.7659091,
                "pitch": 55,
                "velocity": 80,
                "duration": 0.0977273,
                "tempo": 120.0
            },
            {
                "start_time": 21.7840909,
                "end_time": 21.9727273,
                "pitch": 43,
                "velocity": 80,
                "duration": 0.1886364,
                "tempo": 120.0
            },
            {
                "start_time": 21.9909091,
                "end_time": 22.0590909,
                "pitch": 55,
                "velocity": 80,
                "duration": 0.0681818,
                "tempo": 120.0
            },
            {
                "start_time": 22.0772727,
                "end_time": 22.2545455,
                "pitch": 43,
                "velocity": 80,
                "duration": 0.1772727,
                "tempo": 120.0
            },
            {
                "start_time": 22.2704545,
                "end_time": 22.3681818,
                "pitch": 55,
                "velocity": 80,
                "duration": 0.0977273,
                "tempo": 120.0
            },
            {
                "start_time": 22.3840909,
                "end_time": 22.575,
                "pitch": 43,
                "velocity": 80,
                "duration": 0.1909091,
                "tempo": 120.0
            },
            {
                "start_time": 22.5931818,
                "end_time": 22.6613636,
                "pitch": 55,
                "velocity": 80,
                "duration": 0.0681818,
                "tempo": 120.0
            },
            {
                "start_time": 22.6772727,
                "end_time": 22.8568182,
                "pitch": 43,
                "velocity": 80,
                "duration": 0.1795455,
                "tempo": 120.0
            },
            {
                "start_time": 22.8727273,
                "end_time": 22.9681818,
                "pitch": 55,
                "velocity": 80,
                "duration": 0.0954545,
                "tempo": 120.0
            },
            {
                "start_time": 22.9863636,
                "end_time": 23.1772727,
                "pitch": 43,
                "velocity": 80,
                "duration": 0.1909091,
                "tempo": 120.0
            },
            {
                "start_time": 23.1931818,
                "end_time": 23.2636364,
                "pitch": 55,
                "velocity": 80,
                "duration": 0.0704545,
                "tempo": 120.0
            },
            {
                "start_time": 23.2795455,
                "end_time": 23.4568182,
                "pitch": 43,
                "velocity": 80,
                "duration": 0.1772727,
                "tempo": 120.0
            },
            {
                "start_time": 23.4727273,
                "end_time": 23.5704545,
                "pitch": 55,
                "velocity": 80,
                "duration": 0.0977273,
                "tempo": 120.0
            },
            {
                "start_time": 23.5886364,
                "end_time": 23.7772727,
                "pitch": 43,
                "velocity": 80,
                "duration": 0.1886364,
                "tempo": 120.0
            },
            {
                "start_time": 23.7954545,
                "end_time": 23.8636364,
                "pitch": 55,
                "velocity": 80,
                "duration": 0.0681818,
                "tempo": 120.0
            },
            {
                "start_time": 23.8818182,
                "end_time": 24.0590909,
                "pitch": 43,
                "velocity": 80,
                "duration": 0.1772727,
                "tempo": 120.0
            },
            {
                "start_time": 24.075,
                "end_time": 24.1727273,
                "pitch": 55,
                "velocity": 80,
                "duration": 0.0977273,
                "tempo": 120.0
            },
            {
                "start_time": 24.1886364,
                "end_time": 24.3795455,
                "pitch": 41,
                "velocity": 80,
                "duration": 0.1909091,
                "tempo": 120.0
            },
            {
                "start_time": 24.3977273,
                "end_time": 24.4659091,
                "pitch": 53,
                "velocity": 80,
                "duration": 0.0681818,
                "tempo": 120.0
            },
            {
                "start_time": 24.4818182,
                "end_time": 24.6613636,
                "pitch": 41,
                "velocity": 80,
                "duration": 0.1795455,
                "tempo": 120.0
            },
            {
                "start_time": 24.6772727,
                "end_time": 24.7727273,
                "pitch": 53,
                "velocity": 80,
                "duration": 0.0954545,
                "tempo": 120.0
            },
            {
                "start_time": 24.7909091,
                "end_time": 24.9818182,
                "pitch": 41,
                "velocity": 80,
                "duration": 0.1909091,
                "tempo": 120.0
            },
            {
                "start_time": 24.9977273,
                "end_time": 25.0681818,
                "pitch": 53,
                "velocity": 80,
                "duration": 0.0704545,
                "tempo": 120.0
            },
            {
                "start_time": 25.0840909,
                "end_time": 25.2613636,
                "pitch": 41,
                "velocity": 80,
                "duration": 0.1772727,
                "tempo": 120.0
            },
            {
                "start_time": 25.2772727,
                "end_time": 25.375,
                "pitch": 53,
                "velocity": 80,
                "duration": 0.0977273,
                "tempo": 120.0
            },
            {
                "start_time": 25.3931818,
                "end_time": 25.5818182,
                "pitch": 41,
                "velocity": 80,
                "duration": 0.1886364,
                "tempo": 120.0
            },
            {
                "start_time": 25.6,
                "end_time": 25.6681818,
                "pitch": 53,
                "velocity": 80,
                "duration": 0.0681818,
                "tempo": 120.0
            },
            {
                "start_time": 25.6863636,
                "end_time": 25.8636364,
                "pitch": 41,
                "velocity": 80,
                "duration": 0.1772727,
                "tempo": 120.0
            },
            {
                "start_time": 25.8795455,
                "end_time": 25.9772727,
                "pitch": 53,
                "velocity": 80,
                "duration": 0.0977273,
                "tempo": 120.0
            },
            {
                "start_time": 25.9931818,
                "end_time": 26.1840909,
                "pitch": 41,
                "velocity": 80,
                "duration": 0.1909091,
                "tempo": 120.0
            },
            {
                "start_time": 26.2,
                "end_time": 26.2704545,
                "pitch": 53,
                "velocity": 80,
                "duration": 0.0704545,
                "tempo": 120.0
            },
            {
                "start_time": 26.2863636,
                "end_time": 26.4659091,
                "pitch": 41,
                "velocity": 80,
                "duration": 0.1795455,
                "tempo": 120.0
            },
            {
                "start_time": 26.4818182,
                "end_time": 26.5772727,
                "pitch": 53,
                "velocity": 80,
                "duration": 0.0954545,
                "tempo": 120.0
            },
            {
                "start_time": 26.5954545,
                "end_time": 26.7863636,
                "pitch": 41,
                "velocity": 80,
                "duration": 0.1909091,
                "tempo": 120.0
            },
            {
                "start_time": 26.8022727,
                "end_time": 26.8727273,
                "pitch": 53,
                "velocity": 80,
                "duration": 0.0704545,
                "tempo": 120.0
            },
            {
                "start_time": 26.8886364,
                "end_time": 27.0659091,
                "pitch": 41,
                "velocity": 80,
                "duration": 0.1772727,
                "tempo": 120.0
            },
            {
                "start_time": 27.0818182,
                "end_time": 27.1795455,
                "pitch": 53,
                "velocity": 80,
                "duration": 0.0977273,
                "tempo": 120.0
            },
            {
                "start_time": 27.1977273,
                "end_time": 27.3863636,
                "pitch": 41,
                "velocity": 80,
                "duration": 0.1886364,
                "tempo": 120.0
            },
            {
                "start_time": 27.4045455,
                "end_time": 27.4727273,
                "pitch": 53,
                "velocity": 80,
                "duration": 0.0681818,
                "tempo": 120.0
            },
            {
                "start_time": 27.4886364,
                "end_time": 27.6681818,
                "pitch": 41,
                "velocity": 80,
                "duration": 0.1795455,
                "tempo": 120.0
            },
            {
                "start_time": 27.6840909,
                "end_time": 27.7818182,
                "pitch": 53,
                "velocity": 80,
                "duration": 0.0977273,
                "tempo": 120.0
            },
            {
                "start_time": 27.7977273,
                "end_time": 27.9886364,
                "pitch": 41,
                "velocity": 80,
                "duration": 0.1909091,
                "tempo": 120.0
            },
            {
                "start_time": 28.0045455,
                "end_time": 28.075,
                "pitch": 53,
                "velocity": 80,
                "duration": 0.0704545,
                "tempo": 120.0
            },
            {
                "start_time": 28.0909091,
                "end_time": 28.2681818,
                "pitch": 41,
                "velocity": 80,
                "duration": 0.1772727,
                "tempo": 120.0
            },
            {
                "start_time": 28.2863636,
                "end_time": 28.3818182,
                "pitch": 53,
                "velocity": 80,
                "duration": 0.0954545,
                "tempo": 120.0
            },
            {
                "start_time": 28.4,
                "end_time": 28.5886364,
                "pitch": 41,
                "velocity": 80,
                "duration": 0.1886364,
                "tempo": 120.0
            },
            {
                "start_time": 28.6068182,
                "end_time": 28.675,
                "pitch": 53,
                "velocity": 80,
                "duration": 0.0681818,
                "tempo": 120.0
            },
            {
                "start_time": 28.6931818,
                "end_time": 28.8704545,
                "pitch": 41,
                "velocity": 80,
                "duration": 0.1772727,
                "tempo": 120.0
            },
            {
                "start_time": 28.8863636,
                "end_time": 28.9840909,
                "pitch": 53,
                "velocity": 80,
                "duration": 0.0977273,
                "tempo": 120.0
            },
            {
                "start_time": 29.0022727,
                "end_time": 29.1909091,
                "pitch": 43,
                "velocity": 80,
                "duration": 0.1886364,
                "tempo": 120.0
            },
            {
                "start_time": 29.2090909,
                "end_time": 29.2772727,
                "pitch": 55,
                "velocity": 80,
                "duration": 0.0681818,
                "tempo": 120.0
            },
            {
                "start_time": 29.2931818,
                "end_time": 29.4727273,
                "pitch": 43,
                "velocity": 80,
                "duration": 0.1795455,
                "tempo": 120.0
            },
            {
                "start_time": 29.4886364,
                "end_time": 29.5863636,
                "pitch": 55,
                "velocity": 80,
                "duration": 0.0977273,
                "tempo": 120.0
            },
            {
                "start_time": 29.6022727,
                "end_time": 29.7931818,
                "pitch": 43,
                "velocity": 80,
                "duration": 0.1909091,
                "tempo": 120.0
            },
            {
                "start_time": 29.8090909,
                "end_time": 29.8795455,
                "pitch": 55,
                "velocity": 80,
                "duration": 0.0704545,
                "tempo": 120.0
            },
            {
                "start_time": 29.8954545,
                "end_time": 30.0727273,
                "pitch": 43,
                "velocity": 80,
                "duration": 0.1772727,
                "tempo": 120.0
            },
            {
                "start_time": 30.0909091,
                "end_time": 30.1863636,
                "pitch": 55,
                "velocity": 80,
                "duration": 0.0954545,
                "tempo": 120.0
            },
            {
                "start_time": 30.2045455,
                "end_time": 30.3931818,
                "pitch": 43,
                "velocity": 80,
                "duration": 0.1886364,
                "tempo": 120.0
            },
            {
                "start_time": 30.4113636,
                "end_time": 30.4795455,
                "pitch": 55,
                "velocity": 80,
                "duration": 0.0681818,
                "tempo": 120.0
            },
            {
                "start_time": 30.4977273,
                "end_time": 30.675,
                "pitch": 43,
                "velocity": 80,
                "duration": 0.1772727,
                "tempo": 120.0
            },
            {
                "start_time": 30.6909091,
                "end_time": 30.7886364,
                "pitch": 55,
                "velocity": 80,
                "duration": 0.0977273,
                "tempo": 120.0
            },
            {
                "start_time": 30.8068182,
                "end_time": 30.9954545,
                "pitch": 43,
                "velocity": 80,
                "duration": 0.1886364,
                "tempo": 120.0
            },
            {
                "start_time": 31.0136364,
                "end_time": 31.0818182,
                "pitch": 55,
                "velocity": 80,
                "duration": 0.0681818,
                "tempo": 120.0
            },
            {
                "start_time": 31.0977273,
                "end_time": 31.2772727,
                "pitch": 43,
                "velocity": 80,
                "duration": 0.1795455,
                "tempo": 120.0
            },
            {
                "start_time": 31.2931818,
                "end_time": 31.3909091,
                "pitch": 55,
                "velocity": 80,
                "duration": 0.0977273,
                "tempo": 120.0
            },
            {
                "start_time": 31.4068182,
                "end_time": 31.5977273,
                "pitch": 43,
                "velocity": 80,
                "duration": 0.1909091,
                "tempo": 120.0
            },
            {
                "start_time": 31.6136364,
                "end_time": 31.6840909,
                "pitch": 55,
                "velocity": 80,
                "duration": 0.0704545,
                "tempo": 120.0
            },
            {
                "start_time": 31.7,
                "end_time": 31.8772727,
                "pitch": 43,
                "velocity": 80,
                "duration": 0.1772727,
                "tempo": 120.0
            },
            {
                "start_time": 31.8954545,
                "end_time": 31.9909091,
                "pitch": 55,
                "velocity": 80,
                "duration": 0.0954545,
                "tempo": 120.0
            },
            {
                "start_time": 32.0090909,
                "end_time": 32.1977273,
                "pitch": 43,
                "velocity": 80,
                "duration": 0.1886364,
                "tempo": 120.0
            },
            {
                "start_time": 32.2159091,
                "end_time": 32.2840909,
                "pitch": 55,
                "velocity": 80,
                "duration": 0.0681818,
                "tempo": 120.0
            },
            {
                "start_time": 32.3022727,
                "end_time": 32.4795455,
                "pitch": 43,
                "velocity": 80,
                "duration": 0.1772727,
                "tempo": 120.0
            },
            {
                "start_time": 32.4954545,
                "end_time": 32.5931818,
                "pitch": 55,
                "velocity": 80,
                "duration": 0.0977273,
                "tempo": 120.0
            },
            {
                "start_time": 32.6090909,
                "end_time": 32.8,
                "pitch": 43,
                "velocity": 80,
                "duration": 0.1909091,
                "tempo": 120.0
            },
            {
                "start_time": 32.8181818,
                "end_time": 32.8863636,
                "pitch": 55,
                "velocity": 80,
                "duration": 0.0681818,
                "tempo": 120.0
            },
            {
                "start_time": 32.9022727,
                "end_time": 33.0818182,
                "pitch": 43,
                "velocity": 80,
                "duration": 0.1795455,
                "tempo": 120.0
            },
            {
                "start_time": 33.0977273,
                "end_time": 33.1954545,
                "pitch": 55,
                "velocity": 80,
                "duration": 0.0977273,
                "tempo": 120.0
            },
            {
                "start_time": 33.2113636,
                "end_time": 33.4022727,
                "pitch": 43,
                "velocity": 80,
                "duration": 0.1909091,
                "tempo": 120.0
            },
            {
                "start_time": 33.4181818,
                "end_time": 33.4886364,
                "pitch": 55,
                "velocity": 80,
                "duration": 0.0704545,
                "tempo": 120.0
            },
            {
                "start_time": 33.5045455,
                "end_time": 33.7954545,
                "pitch": 43,
                "velocity": 80,
                "duration": 0.2909091,
                "tempo": 120.0
            },
            {
                "start_time": 33.8136364,
                "end_time": 33.9977273,
                "pitch": 41,
                "velocity": 80,
                "duration": 0.1840909,
                "tempo": 120.0
            },
            {
                "start_time": 34.0136364,
                "end_time": 34.0818182,
                "pitch": 53,
                "velocity": 80,
                "duration": 0.0681818,
                "tempo": 120.0
            },
            {
                "start_time": 34.0977273,
                "end_time": 34.2818182,
                "pitch": 41,
                "velocity": 80,
                "duration": 0.1840909,
                "tempo": 120.0
            },
            {
                "start_time": 34.2977273,
                "end_time": 34.3977273,
                "pitch": 53,
                "velocity": 80,
                "duration": 0.1,
                "tempo": 120.0
            },
            {
                "start_time": 34.4159091,
                "end_time": 34.6045455,
                "pitch": 41,
                "velocity": 80,
                "duration": 0.1886364,
                "tempo": 120.0
            },
            {
                "start_time": 34.6227273,
                "end_time": 34.6909091,
                "pitch": 53,
                "velocity": 80,
                "duration": 0.0681818,
                "tempo": 120.0
            },
            {
                "start_time": 34.7068182,
                "end_time": 34.8863636,
                "pitch": 41,
                "velocity": 80,
                "duration": 0.1795455,
                "tempo": 120.0
            },
            {
                "start_time": 34.9022727,
                "end_time": 35.0,
                "pitch": 53,
                "velocity": 80,
                "duration": 0.0977273,
                "tempo": 120.0
            },
            {
                "start_time": 35.0159091,
                "end_time": 35.2068182,
                "pitch": 41,
                "velocity": 80,
                "duration": 0.1909091,
                "tempo": 120.0
            },
            {
                "start_time": 35.2227273,
                "end_time": 35.2931818,
                "pitch": 53,
                "velocity": 80,
                "duration": 0.0704545,
                "tempo": 120.0
            },
            {
                "start_time": 35.3090909,
                "end_time": 35.4863636,
                "pitch": 41,
                "velocity": 80,
                "duration": 0.1772727,
                "tempo": 120.0
            },
            {
                "start_time": 35.5045455,
                "end_time": 35.6,
                "pitch": 53,
                "velocity": 80,
                "duration": 0.0954545,
                "tempo": 120.0
            },
            {
                "start_time": 35.6181818,
                "end_time": 35.8068182,
                "pitch": 41,
                "velocity": 80,
                "duration": 0.1886364,
                "tempo": 120.0
            },
            {
                "start_time": 35.825,
                "end_time": 35.8931818,
                "pitch": 53,
                "velocity": 80,
                "duration": 0.0681818,
                "tempo": 120.0
            },
            {
                "start_time": 35.9113636,
                "end_time": 36.2022727,
                "pitch": 41,
                "velocity": 80,
                "duration": 0.2909091,
                "tempo": 120.0
            },
            {
                "start_time": 36.2204545,
                "end_time": 36.4090909,
                "pitch": 41,
                "velocity": 80,
                "duration": 0.1886364,
                "tempo": 120.0
            },
            {
                "start_time": 36.4272727,
                "end_time": 36.4954545,
                "pitch": 53,
                "velocity": 80,
                "duration": 0.0681818,
                "tempo": 120.0
            },
            {
                "start_time": 36.5136364,
                "end_time": 36.6954545,
                "pitch": 41,
                "velocity": 80,
                "duration": 0.1818182,
                "tempo": 120.0
            },
            {
                "start_time": 36.7136364,
                "end_time": 36.8136364,
                "pitch": 53,
                "velocity": 80,
                "duration": 0.1,
                "tempo": 120.0
            },
            {
                "start_time": 36.8295455,
                "end_time": 37.0136364,
                "pitch": 41,
                "velocity": 80,
                "duration": 0.1840909,
                "tempo": 120.0
            },
            {
                "start_time": 37.0318182,
                "end_time": 37.0977273,
                "pitch": 53,
                "velocity": 80,
                "duration": 0.0659091,
                "tempo": 120.0
            },
            {
                "start_time": 37.1136364,
                "end_time": 37.2931818,
                "pitch": 41,
                "velocity": 80,
                "duration": 0.1795455,
                "tempo": 120.0
            },
            {
                "start_time": 37.3090909,
                "end_time": 37.4045455,
                "pitch": 53,
                "velocity": 80,
                "duration": 0.0954545,
                "tempo": 120.0
            },
            {
                "start_time": 37.4227273,
                "end_time": 37.6136364,
                "pitch": 41,
                "velocity": 80,
                "duration": 0.1909091,
                "tempo": 120.0
            },
            {
                "start_time": 37.6295455,
                "end_time": 37.7,
                "pitch": 53,
                "velocity": 80,
                "duration": 0.0704545,
                "tempo": 120.0
            },
            {
                "start_time": 37.7159091,
                "end_time": 37.8931818,
                "pitch": 41,
                "velocity": 80,
                "duration": 0.1772727,
                "tempo": 120.0
            },
            {
                "start_time": 37.9090909,
                "end_time": 38.0068182,
                "pitch": 53,
                "velocity": 80,
                "duration": 0.0977273,
                "tempo": 120.0
            },
            {
                "start_time": 38.025,
                "end_time": 38.2136364,
                "pitch": 41,
                "velocity": 80,
                "duration": 0.1886364,
                "tempo": 120.0
            },
            {
                "start_time": 38.2318182,
                "end_time": 38.3,
                "pitch": 53,
                "velocity": 80,
                "duration": 0.0681818,
                "tempo": 120.0
            },
            {
                "start_time": 38.3181818,
                "end_time": 38.4954545,
                "pitch": 41,
                "velocity": 80,
                "duration": 0.1772727,
                "tempo": 120.0
            },
            {
                "start_time": 38.5113636,
                "end_time": 38.6090909,
                "pitch": 53,
                "velocity": 80,
                "duration": 0.0977273,
                "tempo": 120.0
            },
            {
                "start_time": 38.625,
                "end_time": 38.8159091,
                "pitch": 43,
                "velocity": 80,
                "duration": 0.1909091,
                "tempo": 120.0
            },
            {
                "start_time": 38.8340909,
                "end_time": 38.9022727,
                "pitch": 55,
                "velocity": 80,
                "duration": 0.0681818,
                "tempo": 120.0
            },
            {
                "start_time": 38.9181818,
                "end_time": 39.0977273,
                "pitch": 43,
                "velocity": 80,
                "duration": 0.1795455,
                "tempo": 120.0
            },
            {
                "start_time": 39.1136364,
                "end_time": 39.2090909,
                "pitch": 55,
                "velocity": 80,
                "duration": 0.0954545,
                "tempo": 120.0
            },
            {
                "start_time": 39.2272727,
                "end_time": 39.4181818,
                "pitch": 43,
                "velocity": 80,
                "duration": 0.1909091,
                "tempo": 120.0
            },
            {
                "start_time": 39.4340909,
                "end_time": 39.5045455,
                "pitch": 55,
                "velocity": 80,
                "duration": 0.0704545,
                "tempo": 120.0
            },
            {
                "start_time": 39.5204545,
                "end_time": 39.6977273,
                "pitch": 43,
                "velocity": 80,
                "duration": 0.1772727,
                "tempo": 120.0
            },
            {
                "start_time": 39.7136364,
                "end_time": 39.8113636,
                "pitch": 55,
                "velocity": 80,
                "duration": 0.0977273,
                "tempo": 120.0
            },
            {
                "start_time": 39.8295455,
                "end_time": 40.0181818,
                "pitch": 43,
                "velocity": 80,
                "duration": 0.1886364,
                "tempo": 120.0
            },
            {
                "start_time": 40.0363636,
                "end_time": 40.1045455,
                "pitch": 55,
                "velocity": 80,
                "duration": 0.0681818,
                "tempo": 120.0
            },
            {
                "start_time": 40.1227273,
                "end_time": 40.3,
                "pitch": 43,
                "velocity": 80,
                "duration": 0.1772727,
                "tempo": 120.0
            },
            {
                "start_time": 40.3159091,
                "end_time": 40.4136364,
                "pitch": 55,
                "velocity": 80,
                "duration": 0.0977273,
                "tempo": 120.0
            },
            {
                "start_time": 40.4295455,
                "end_time": 40.6204545,
                "pitch": 43,
                "velocity": 80,
                "duration": 0.1909091,
                "tempo": 120.0
            },
            {
                "start_time": 40.6363636,
                "end_time": 40.7068182,
                "pitch": 55,
                "velocity": 80,
                "duration": 0.0704545,
                "tempo": 120.0
            },
            {
                "start_time": 40.7227273,
                "end_time": 41.0136364,
                "pitch": 43,
                "velocity": 80,
                "duration": 0.2909091,
                "tempo": 120.0
            },
            {
                "start_time": 43.3181818,
                "end_time": 43.6272727,
                "pitch": 43,
                "velocity": 80,
                "duration": 0.3090909,
                "tempo": 120.0
            },
            {
                "start_time": 43.6431818,
                "end_time": 43.7136364,
                "pitch": 55,
                "velocity": 80,
                "duration": 0.0704545,
                "tempo": 120.0
            },
            {
                "start_time": 43.7295455,
                "end_time": 43.9068182,
                "pitch": 43,
                "velocity": 80,
                "duration": 0.1772727,
                "tempo": 120.0
            },
            {
                "start_time": 43.9227273,
                "end_time": 44.0204545,
                "pitch": 55,
                "velocity": 80,
                "duration": 0.0977273,
                "tempo": 120.0
            },
            {
                "start_time": 44.0386364,
                "end_time": 44.2272727,
                "pitch": 43,
                "velocity": 80,
                "duration": 0.1886364,
                "tempo": 120.0
            },
            {
                "start_time": 44.2454545,
                "end_time": 44.3136364,
                "pitch": 55,
                "velocity": 80,
                "duration": 0.0681818,
                "tempo": 120.0
            },
            {
                "start_time": 44.3318182,
                "end_time": 44.5090909,
                "pitch": 43,
                "velocity": 80,
                "duration": 0.1772727,
                "tempo": 120.0
            },
            {
                "start_time": 44.525,
                "end_time": 44.6227273,
                "pitch": 55,
                "velocity": 80,
                "duration": 0.0977273,
                "tempo": 120.0
            },
            {
                "start_time": 44.6386364,
                "end_time": 44.8295455,
                "pitch": 43,
                "velocity": 80,
                "duration": 0.1909091,
                "tempo": 120.0
            },
            {
                "start_time": 44.8477273,
                "end_time": 44.9159091,
                "pitch": 55,
                "velocity": 80,
                "duration": 0.0681818,
                "tempo": 120.0
            },
            {
                "start_time": 44.9318182,
                "end_time": 45.1113636,
                "pitch": 43,
                "velocity": 80,
                "duration": 0.1795455,
                "tempo": 120.0
            },
            {
                "start_time": 45.1272727,
                "end_time": 45.2227273,
                "pitch": 55,
                "velocity": 80,
                "duration": 0.0954545,
                "tempo": 120.0
            },
            {
                "start_time": 45.2409091,
                "end_time": 45.4318182,
                "pitch": 43,
                "velocity": 80,
                "duration": 0.1909091,
                "tempo": 120.0
            },
            {
                "start_time": 45.4477273,
                "end_time": 45.5181818,
                "pitch": 55,
                "velocity": 80,
                "duration": 0.0704545,
                "tempo": 120.0
            },
            {
                "start_time": 45.5340909,
                "end_time": 45.7113636,
                "pitch": 43,
                "velocity": 80,
                "duration": 0.1772727,
                "tempo": 120.0
            },
            {
                "start_time": 45.7272727,
                "end_time": 45.825,
                "pitch": 55,
                "velocity": 80,
                "duration": 0.0977273,
                "tempo": 120.0
            },
            {
                "start_time": 45.8431818,
                "end_time": 46.0318182,
                "pitch": 41,
                "velocity": 80,
                "duration": 0.1886364,
                "tempo": 120.0
            },
            {
                "start_time": 46.05,
                "end_time": 46.1181818,
                "pitch": 53,
                "velocity": 80,
                "duration": 0.0681818,
                "tempo": 120.0
            },
            {
                "start_time": 46.1363636,
                "end_time": 46.3136364,
                "pitch": 41,
                "velocity": 80,
                "duration": 0.1772727,
                "tempo": 120.0
            },
            {
                "start_time": 46.3295455,
                "end_time": 46.4272727,
                "pitch": 53,
                "velocity": 80,
                "duration": 0.0977273,
                "tempo": 120.0
            },
            {
                "start_time": 46.4431818,
                "end_time": 46.6340909,
                "pitch": 41,
                "velocity": 80,
                "duration": 0.1909091,
                "tempo": 120.0
            },
            {
                "start_time": 46.6522727,
                "end_time": 46.7204545,
                "pitch": 53,
                "velocity": 80,
                "duration": 0.0681818,
                "tempo": 120.0
            },
            {
                "start_time": 46.7363636,
                "end_time": 46.9159091,
                "pitch": 41,
                "velocity": 80,
                "duration": 0.1795455,
                "tempo": 120.0
            },
            {
                "start_time": 46.9318182,
                "end_time": 47.0272727,
                "pitch": 53,
                "velocity": 80,
                "duration": 0.0954545,
                "tempo": 120.0
            },
            {
                "start_time": 47.0454545,
                "end_time": 47.2363636,
                "pitch": 41,
                "velocity": 80,
                "duration": 0.1909091,
                "tempo": 120.0
            },
            {
                "start_time": 47.2522727,
                "end_time": 47.3227273,
                "pitch": 53,
                "velocity": 80,
                "duration": 0.0704545,
                "tempo": 120.0
            },
            {
                "start_time": 47.3386364,
                "end_time": 47.5159091,
                "pitch": 41,
                "velocity": 80,
                "duration": 0.1772727,
                "tempo": 120.0
            },
            {
                "start_time": 47.5318182,
                "end_time": 47.6295455,
                "pitch": 53,
                "velocity": 80,
                "duration": 0.0977273,
                "tempo": 120.0
            },
            {
                "start_time": 47.6477273,
                "end_time": 47.8363636,
                "pitch": 41,
                "velocity": 80,
                "duration": 0.1886364,
                "tempo": 120.0
            },
            {
                "start_time": 47.8545455,
                "end_time": 47.9227273,
                "pitch": 53,
                "velocity": 80,
                "duration": 0.0681818,
                "tempo": 120.0
            },
            {
                "start_time": 47.9409091,
                "end_time": 48.1181818,
                "pitch": 41,
                "velocity": 80,
                "duration": 0.1772727,
                "tempo": 120.0
            },
            {
                "start_time": 48.1340909,
                "end_time": 48.2318182,
                "pitch": 53,
                "velocity": 80,
                "duration": 0.0977273,
                "tempo": 120.0
            },
            {
                "start_time": 48.2477273,
                "end_time": 48.4386364,
                "pitch": 41,
                "velocity": 80,
                "duration": 0.1909091,
                "tempo": 120.0
            },
            {
                "start_time": 48.4545455,
                "end_time": 48.525,
                "pitch": 53,
                "velocity": 80,
                "duration": 0.0704545,
                "tempo": 120.0
            },
            {
                "start_time": 48.5409091,
                "end_time": 48.7204545,
                "pitch": 41,
                "velocity": 80,
                "duration": 0.1795455,
                "tempo": 120.0
            },
            {
                "start_time": 48.7363636,
                "end_time": 48.8318182,
                "pitch": 53,
                "velocity": 80,
                "duration": 0.0954545,
                "tempo": 120.0
            },
            {
                "start_time": 48.85,
                "end_time": 49.0409091,
                "pitch": 41,
                "velocity": 80,
                "duration": 0.1909091,
                "tempo": 120.0
            },
            {
                "start_time": 49.0568182,
                "end_time": 49.1272727,
                "pitch": 53,
                "velocity": 80,
                "duration": 0.0704545,
                "tempo": 120.0
            },
            {
                "start_time": 49.1431818,
                "end_time": 49.3204545,
                "pitch": 41,
                "velocity": 80,
                "duration": 0.1772727,
                "tempo": 120.0
            },
            {
                "start_time": 49.3363636,
                "end_time": 49.4340909,
                "pitch": 53,
                "velocity": 80,
                "duration": 0.0977273,
                "tempo": 120.0
            },
            {
                "start_time": 49.4522727,
                "end_time": 49.6409091,
                "pitch": 41,
                "velocity": 80,
                "duration": 0.1886364,
                "tempo": 120.0
            },
            {
                "start_time": 49.6590909,
                "end_time": 49.7272727,
                "pitch": 53,
                "velocity": 80,
                "duration": 0.0681818,
                "tempo": 120.0
            },
            {
                "start_time": 49.7454545,
                "end_time": 49.9227273,
                "pitch": 41,
                "velocity": 80,
                "duration": 0.1772727,
                "tempo": 120.0
            },
            {
                "start_time": 49.9386364,
                "end_time": 50.0363636,
                "pitch": 53,
                "velocity": 80,
                "duration": 0.0977273,
                "tempo": 120.0
            },
            {
                "start_time": 50.0522727,
                "end_time": 50.2431818,
                "pitch": 41,
                "velocity": 80,
                "duration": 0.1909091,
                "tempo": 120.0
            },
            {
                "start_time": 50.2590909,
                "end_time": 50.3295455,
                "pitch": 53,
                "velocity": 80,
                "duration": 0.0704545,
                "tempo": 120.0
            },
            {
                "start_time": 50.3454545,
                "end_time": 50.5227273,
                "pitch": 41,
                "velocity": 80,
                "duration": 0.1772727,
                "tempo": 120.0
            },
            {
                "start_time": 50.5409091,
                "end_time": 50.6363636,
                "pitch": 53,
                "velocity": 80,
                "duration": 0.0954545,
                "tempo": 120.0
            },
            {
                "start_time": 50.6545455,
                "end_time": 50.8454545,
                "pitch": 43,
                "velocity": 80,
                "duration": 0.1909091,
                "tempo": 120.0
            },
            {
                "start_time": 50.8613636,
                "end_time": 50.9318182,
                "pitch": 55,
                "velocity": 80,
                "duration": 0.0704545,
                "tempo": 120.0
            },
            {
                "start_time": 50.9477273,
                "end_time": 51.125,
                "pitch": 43,
                "velocity": 80,
                "duration": 0.1772727,
                "tempo": 120.0
            },
            {
                "start_time": 51.1409091,
                "end_time": 51.2386364,
                "pitch": 55,
                "velocity": 80,
                "duration": 0.0977273,
                "tempo": 120.0
            },
            {
                "start_time": 51.2568182,
                "end_time": 51.4454545,
                "pitch": 43,
                "velocity": 80,
                "duration": 0.1886364,
                "tempo": 120.0
            },
            {
                "start_time": 51.4636364,
                "end_time": 51.5318182,
                "pitch": 55,
                "velocity": 80,
                "duration": 0.0681818,
                "tempo": 120.0
            },
            {
                "start_time": 51.5477273,
                "end_time": 51.7272727,
                "pitch": 43,
                "velocity": 80,
                "duration": 0.1795455,
                "tempo": 120.0
            },
            {
                "start_time": 51.7431818,
                "end_time": 51.8409091,
                "pitch": 55,
                "velocity": 80,
                "duration": 0.0977273,
                "tempo": 120.0
            },
            {
                "start_time": 51.8568182,
                "end_time": 52.0477273,
                "pitch": 43,
                "velocity": 80,
                "duration": 0.1909091,
                "tempo": 120.0
            },
            {
                "start_time": 52.0636364,
                "end_time": 52.1340909,
                "pitch": 55,
                "velocity": 80,
                "duration": 0.0704545,
                "tempo": 120.0
            },
            {
                "start_time": 52.15,
                "end_time": 52.3272727,
                "pitch": 43,
                "velocity": 80,
                "duration": 0.1772727,
                "tempo": 120.0
            },
            {
                "start_time": 52.3454545,
                "end_time": 52.4409091,
                "pitch": 55,
                "velocity": 80,
                "duration": 0.0954545,
                "tempo": 120.0
            },
            {
                "start_time": 52.4590909,
                "end_time": 52.6477273,
                "pitch": 43,
                "velocity": 80,
                "duration": 0.1886364,
                "tempo": 120.0
            },
            {
                "start_time": 52.6659091,
                "end_time": 52.7340909,
                "pitch": 55,
                "velocity": 80,
                "duration": 0.0681818,
                "tempo": 120.0
            },
            {
                "start_time": 52.7522727,
                "end_time": 52.9295455,
                "pitch": 43,
                "velocity": 80,
                "duration": 0.1772727,
                "tempo": 120.0
            },
            {
                "start_time": 52.9454545,
                "end_time": 53.0431818,
                "pitch": 55,
                "velocity": 80,
                "duration": 0.0977273,
                "tempo": 120.0
            },
            {
                "start_time": 53.0613636,
                "end_time": 53.25,
                "pitch": 43,
                "velocity": 80,
                "duration": 0.1886364,
                "tempo": 120.0
            },
            {
                "start_time": 53.2681818,
                "end_time": 53.3363636,
                "pitch": 55,
                "velocity": 80,
                "duration": 0.0681818,
                "tempo": 120.0
            },
            {
                "start_time": 53.3522727,
                "end_time": 53.5318182,
                "pitch": 43,
                "velocity": 80,
                "duration": 0.1795455,
                "tempo": 120.0
            },
            {
                "start_time": 53.5477273,
                "end_time": 53.6454545,
                "pitch": 55,
                "velocity": 80,
                "duration": 0.0977273,
                "tempo": 120.0
            },
            {
                "start_time": 53.6613636,
                "end_time": 53.8522727,
                "pitch": 43,
                "velocity": 80,
                "duration": 0.1909091,
                "tempo": 120.0
            },
            {
                "start_time": 53.8681818,
                "end_time": 53.9386364,
                "pitch": 55,
                "velocity": 80,
                "duration": 0.0704545,
                "tempo": 120.0
            },
            {
                "start_time": 53.9545455,
                "end_time": 54.1318182,
                "pitch": 43,
                "velocity": 80,
                "duration": 0.1772727,
                "tempo": 120.0
            },
            {
                "start_time": 54.15,
                "end_time": 54.2454545,
                "pitch": 55,
                "velocity": 80,
                "duration": 0.0954545,
                "tempo": 120.0
            },
            {
                "start_time": 54.2636364,
                "end_time": 54.4522727,
                "pitch": 43,
                "velocity": 80,
                "duration": 0.1886364,
                "tempo": 120.0
            },
            {
                "start_time": 54.4704545,
                "end_time": 54.5386364,
                "pitch": 55,
                "velocity": 80,
                "duration": 0.0681818,
                "tempo": 120.0
            },
            {
                "start_time": 54.5568182,
                "end_time": 54.7340909,
                "pitch": 43,
                "velocity": 80,
                "duration": 0.1772727,
                "tempo": 120.0
            },
            {
                "start_time": 54.75,
                "end_time": 54.8477273,
                "pitch": 55,
                "velocity": 80,
                "duration": 0.0977273,
                "tempo": 120.0
            },
            {
                "start_time": 54.8659091,
                "end_time": 55.0545455,
                "pitch": 43,
                "velocity": 80,
                "duration": 0.1886364,
                "tempo": 120.0
            },
            {
                "start_time": 55.0727273,
                "end_time": 55.1409091,
                "pitch": 55,
                "velocity": 80,
                "duration": 0.0681818,
                "tempo": 120.0
            },
            {
                "start_time": 55.1568182,
                "end_time": 55.3363636,
                "pitch": 43,
                "velocity": 80,
                "duration": 0.1795455,
                "tempo": 120.0
            },
            {
                "start_time": 55.3522727,
                "end_time": 55.45,
                "pitch": 55,
                "velocity": 80,
                "duration": 0.0977273,
                "tempo": 120.0
            },
            {
                "start_time": 55.4659091,
                "end_time": 55.6568182,
                "pitch": 41,
                "velocity": 80,
                "duration": 0.1909091,
                "tempo": 120.0
            },
            {
                "start_time": 55.6727273,
                "end_time": 55.7431818,
                "pitch": 53,
                "velocity": 80,
                "duration": 0.0704545,
                "tempo": 120.0
            },
            {
                "start_time": 55.7590909,
                "end_time": 55.9363636,
                "pitch": 41,
                "velocity": 80,
                "duration": 0.1772727,
                "tempo": 120.0
            },
            {
                "start_time": 55.9522727,
                "end_time": 56.05,
                "pitch": 53,
                "velocity": 80,
                "duration": 0.0977273,
                "tempo": 120.0
            },
            {
                "start_time": 56.0681818,
                "end_time": 56.2568182,
                "pitch": 41,
                "velocity": 80,
                "duration": 0.1886364,
                "tempo": 120.0
            },
            {
                "start_time": 56.275,
                "end_time": 56.3431818,
                "pitch": 53,
                "velocity": 80,
                "duration": 0.0681818,
                "tempo": 120.0
            },
            {
                "start_time": 56.3613636,
                "end_time": 56.5386364,
                "pitch": 41,
                "velocity": 80,
                "duration": 0.1772727,
                "tempo": 120.0
            },
            {
                "start_time": 56.5545455,
                "end_time": 56.6522727,
                "pitch": 53,
                "velocity": 80,
                "duration": 0.0977273,
                "tempo": 120.0
            },
            {
                "start_time": 56.6681818,
                "end_time": 56.8590909,
                "pitch": 41,
                "velocity": 80,
                "duration": 0.1909091,
                "tempo": 120.0
            },
            {
                "start_time": 56.8772727,
                "end_time": 56.9454545,
                "pitch": 53,
                "velocity": 80,
                "duration": 0.0681818,
                "tempo": 120.0
            },
            {
                "start_time": 56.9613636,
                "end_time": 57.1409091,
                "pitch": 41,
                "velocity": 80,
                "duration": 0.1795455,
                "tempo": 120.0
            },
            {
                "start_time": 57.1568182,
                "end_time": 57.2545455,
                "pitch": 53,
                "velocity": 80,
                "duration": 0.0977273,
                "tempo": 120.0
            },
            {
                "start_time": 57.2704545,
                "end_time": 57.4613636,
                "pitch": 41,
                "velocity": 80,
                "duration": 0.1909091,
                "tempo": 120.0
            },
            {
                "start_time": 57.4772727,
                "end_time": 57.5477273,
                "pitch": 53,
                "velocity": 80,
                "duration": 0.0704545,
                "tempo": 120.0
            },
            {
                "start_time": 57.5636364,
                "end_time": 57.7409091,
                "pitch": 41,
                "velocity": 80,
                "duration": 0.1772727,
                "tempo": 120.0
            },
            {
                "start_time": 57.7568182,
                "end_time": 57.8545455,
                "pitch": 53,
                "velocity": 80,
                "duration": 0.0977273,
                "tempo": 120.0
            },
            {
                "start_time": 57.8727273,
                "end_time": 58.0613636,
                "pitch": 41,
                "velocity": 80,
                "duration": 0.1886364,
                "tempo": 120.0
            },
            {
                "start_time": 58.0795455,
                "end_time": 58.1477273,
                "pitch": 53,
                "velocity": 80,
                "duration": 0.0681818,
                "tempo": 120.0
            },
            {
                "start_time": 58.1659091,
                "end_time": 58.3431818,
                "pitch": 41,
                "velocity": 80,
                "duration": 0.1772727,
                "tempo": 120.0
            },
            {
                "start_time": 58.3590909,
                "end_time": 58.4568182,
                "pitch": 53,
                "velocity": 80,
                "duration": 0.0977273,
                "tempo": 120.0
            },
            {
                "start_time": 58.4727273,
                "end_time": 58.6636364,
                "pitch": 41,
                "velocity": 80,
                "duration": 0.1909091,
                "tempo": 120.0
            },
            {
                "start_time": 58.6818182,
                "end_time": 58.75,
                "pitch": 53,
                "velocity": 80,
                "duration": 0.0681818,
                "tempo": 120.0
            },
            {
                "start_time": 58.7659091,
                "end_time": 58.9454545,
                "pitch": 41,
                "velocity": 80,
                "duration": 0.1795455,
                "tempo": 120.0
            },
            {
                "start_time": 58.9613636,
                "end_time": 59.0568182,
                "pitch": 53,
                "velocity": 80,
                "duration": 0.0954545,
                "tempo": 120.0
            },
            {
                "start_time": 59.075,
                "end_time": 59.2659091,
                "pitch": 41,
                "velocity": 80,
                "duration": 0.1909091,
                "tempo": 120.0
            },
            {
                "start_time": 59.2818182,
                "end_time": 59.3522727,
                "pitch": 53,
                "velocity": 80,
                "duration": 0.0704545,
                "tempo": 120.0
            },
            {
                "start_time": 59.3681818,
                "end_time": 59.5454545,
                "pitch": 41,
                "velocity": 80,
                "duration": 0.1772727,
                "tempo": 120.0
            },
            {
                "start_time": 59.5613636,
                "end_time": 59.6590909,
                "pitch": 53,
                "velocity": 80,
                "duration": 0.0977273,
                "tempo": 120.0
            },
            {
                "start_time": 59.6772727,
                "end_time": 59.8659091,
                "pitch": 41,
                "velocity": 80,
                "duration": 0.1886364,
                "tempo": 120.0
            },
            {
                "start_time": 59.8840909,
                "end_time": 59.9522727,
                "pitch": 53,
                "velocity": 80,
                "duration": 0.0681818,
                "tempo": 120.0
            },
            {
                "start_time": 59.9704545,
                "end_time": 60.1477273,
                "pitch": 41,
                "velocity": 80,
                "duration": 0.1772727,
                "tempo": 120.0
            },
            {
                "start_time": 60.1636364,
                "end_time": 60.2613636,
                "pitch": 53,
                "velocity": 80,
                "duration": 0.0977273,
                "tempo": 120.0
            },
            {
                "start_time": 60.2772727,
                "end_time": 60.4681818,
                "pitch": 43,
                "velocity": 80,
                "duration": 0.1909091,
                "tempo": 120.0
            },
            {
                "start_time": 60.4863636,
                "end_time": 60.5545455,
                "pitch": 55,
                "velocity": 80,
                "duration": 0.0681818,
                "tempo": 120.0
            },
            {
                "start_time": 60.5704545,
                "end_time": 60.75,
                "pitch": 43,
                "velocity": 80,
                "duration": 0.1795455,
                "tempo": 120.0
            },
            {
                "start_time": 60.7659091,
                "end_time": 60.8613636,
                "pitch": 55,
                "velocity": 80,
                "duration": 0.0954545,
                "tempo": 120.0
            },
            {
                "start_time": 60.8795455,
                "end_time": 61.0704545,
                "pitch": 43,
                "velocity": 80,
                "duration": 0.1909091,
                "tempo": 120.0
            },
            {
                "start_time": 61.0863636,
                "end_time": 61.1568182,
                "pitch": 55,
                "velocity": 80,
                "duration": 0.0704545,
                "tempo": 120.0
            },
            {
                "start_time": 61.1727273,
                "end_time": 61.35,
                "pitch": 43,
                "velocity": 80,
                "duration": 0.1772727,
                "tempo": 120.0
            },
            {
                "start_time": 61.3659091,
                "end_time": 61.4636364,
                "pitch": 55,
                "velocity": 80,
                "duration": 0.0977273,
                "tempo": 120.0
            },
            {
                "start_time": 61.4818182,
                "end_time": 61.6704545,
                "pitch": 43,
                "velocity": 80,
                "duration": 0.1886364,
                "tempo": 120.0
            },
            {
                "start_time": 61.6886364,
                "end_time": 61.7568182,
                "pitch": 55,
                "velocity": 80,
                "duration": 0.0681818,
                "tempo": 120.0
            },
            {
                "start_time": 61.775,
                "end_time": 61.9522727,
                "pitch": 43,
                "velocity": 80,
                "duration": 0.1772727,
                "tempo": 120.0
            },
            {
                "start_time": 61.9681818,
                "end_time": 62.0659091,
                "pitch": 55,
                "velocity": 80,
                "duration": 0.0977273,
                "tempo": 120.0
            },
            {
                "start_time": 62.0818182,
                "end_time": 62.2727273,
                "pitch": 43,
                "velocity": 80,
                "duration": 0.1909091,
                "tempo": 120.0
            },
            {
                "start_time": 62.2909091,
                "end_time": 62.3590909,
                "pitch": 55,
                "velocity": 80,
                "duration": 0.0681818,
                "tempo": 120.0
            },
            {
                "start_time": 62.375,
                "end_time": 62.5545455,
                "pitch": 43,
                "velocity": 80,
                "duration": 0.1795455,
                "tempo": 120.0
            },
            {
                "start_time": 62.5704545,
                "end_time": 62.6659091,
                "pitch": 55,
                "velocity": 80,
                "duration": 0.0954545,
                "tempo": 120.0
            },
            {
                "start_time": 62.6840909,
                "end_time": 62.875,
                "pitch": 43,
                "velocity": 80,
                "duration": 0.1909091,
                "tempo": 120.0
            },
            {
                "start_time": 62.8909091,
                "end_time": 62.9613636,
                "pitch": 55,
                "velocity": 80,
                "duration": 0.0704545,
                "tempo": 120.0
            },
            {
                "start_time": 62.9772727,
                "end_time": 63.1545455,
                "pitch": 43,
                "velocity": 80,
                "duration": 0.1772727,
                "tempo": 120.0
            },
            {
                "start_time": 63.1704545,
                "end_time": 63.2681818,
                "pitch": 55,
                "velocity": 80,
                "duration": 0.0977273,
                "tempo": 120.0
            },
            {
                "start_time": 63.2863636,
                "end_time": 63.475,
                "pitch": 43,
                "velocity": 80,
                "duration": 0.1886364,
                "tempo": 120.0
            },
            {
                "start_time": 63.4931818,
                "end_time": 63.5613636,
                "pitch": 55,
                "velocity": 80,
                "duration": 0.0681818,
                "tempo": 120.0
            },
            {
                "start_time": 63.5795455,
                "end_time": 63.7568182,
                "pitch": 43,
                "velocity": 80,
                "duration": 0.1772727,
                "tempo": 120.0
            },
            {
                "start_time": 63.7727273,
                "end_time": 63.8704545,
                "pitch": 55,
                "velocity": 80,
                "duration": 0.0977273,
                "tempo": 120.0
            },
            {
                "start_time": 63.8863636,
                "end_time": 64.0772727,
                "pitch": 43,
                "velocity": 80,
                "duration": 0.1909091,
                "tempo": 120.0
            },
            {
                "start_time": 64.0954545,
                "end_time": 64.1636364,
                "pitch": 55,
                "velocity": 80,
                "duration": 0.0681818,
                "tempo": 120.0
            },
            {
                "start_time": 64.1795455,
                "end_time": 64.3590909,
                "pitch": 43,
                "velocity": 80,
                "duration": 0.1795455,
                "tempo": 120.0
            },
            {
                "start_time": 64.375,
                "end_time": 64.4704545,
                "pitch": 55,
                "velocity": 80,
                "duration": 0.0954545,
                "tempo": 120.0
            },
            {
                "start_time": 64.4886364,
                "end_time": 64.6795455,
                "pitch": 43,
                "velocity": 80,
                "duration": 0.1909091,
                "tempo": 120.0
            },
            {
                "start_time": 64.6954545,
                "end_time": 64.7659091,
                "pitch": 55,
                "velocity": 80,
                "duration": 0.0704545,
                "tempo": 120.0
            },
            {
                "start_time": 64.7818182,
                "end_time": 64.9590909,
                "pitch": 43,
                "velocity": 80,
                "duration": 0.1772727,
                "tempo": 120.0
            },
            {
                "start_time": 64.975,
                "end_time": 65.0727273,
                "pitch": 55,
                "velocity": 80,
                "duration": 0.0977273,
                "tempo": 120.0
            },
            {
                "start_time": 65.0909091,
                "end_time": 65.2795455,
                "pitch": 41,
                "velocity": 80,
                "duration": 0.1886364,
                "tempo": 120.0
            },
            {
                "start_time": 65.2977273,
                "end_time": 65.3659091,
                "pitch": 53,
                "velocity": 80,
                "duration": 0.0681818,
                "tempo": 120.0
            },
            {
                "start_time": 65.3840909,
                "end_time": 65.5613636,
                "pitch": 41,
                "velocity": 80,
                "duration": 0.1772727,
                "tempo": 120.0
            },
            {
                "start_time": 65.5772727,
                "end_time": 65.675,
                "pitch": 53,
                "velocity": 80,
                "duration": 0.0977273,
                "tempo": 120.0
            },
            {
                "start_time": 65.6909091,
                "end_time": 65.8818182,
                "pitch": 41,
                "velocity": 80,
                "duration": 0.1909091,
                "tempo": 120.0
            },
            {
                "start_time": 65.8977273,
                "end_time": 65.9681818,
                "pitch": 53,
                "velocity": 80,
                "duration": 0.0704545,
                "tempo": 120.0
            },
            {
                "start_time": 65.9840909,
                "end_time": 66.1636364,
                "pitch": 41,
                "velocity": 80,
                "duration": 0.1795455,
                "tempo": 120.0
            },
            {
                "start_time": 66.1795455,
                "end_time": 66.275,
                "pitch": 53,
                "velocity": 80,
                "duration": 0.0954545,
                "tempo": 120.0
            },
            {
                "start_time": 66.2931818,
                "end_time": 66.4840909,
                "pitch": 41,
                "velocity": 80,
                "duration": 0.1909091,
                "tempo": 120.0
            },
            {
                "start_time": 66.5,
                "end_time": 66.5704545,
                "pitch": 53,
                "velocity": 80,
                "duration": 0.0704545,
                "tempo": 120.0
            },
            {
                "start_time": 66.5863636,
                "end_time": 66.7636364,
                "pitch": 41,
                "velocity": 80,
                "duration": 0.1772727,
                "tempo": 120.0
            },
            {
                "start_time": 66.7795455,
                "end_time": 66.8772727,
                "pitch": 53,
                "velocity": 80,
                "duration": 0.0977273,
                "tempo": 120.0
            },
            {
                "start_time": 66.8954545,
                "end_time": 67.0840909,
                "pitch": 41,
                "velocity": 80,
                "duration": 0.1886364,
                "tempo": 120.0
            },
            {
                "start_time": 67.1022727,
                "end_time": 67.1704545,
                "pitch": 53,
                "velocity": 80,
                "duration": 0.0681818,
                "tempo": 120.0
            },
            {
                "start_time": 67.1886364,
                "end_time": 67.3659091,
                "pitch": 41,
                "velocity": 80,
                "duration": 0.1772727,
                "tempo": 120.0
            },
            {
                "start_time": 67.3818182,
                "end_time": 67.4795455,
                "pitch": 53,
                "velocity": 80,
                "duration": 0.0977273,
                "tempo": 120.0
            },
            {
                "start_time": 67.4954545,
                "end_time": 67.6863636,
                "pitch": 41,
                "velocity": 80,
                "duration": 0.1909091,
                "tempo": 120.0
            },
            {
                "start_time": 67.7022727,
                "end_time": 67.7727273,
                "pitch": 53,
                "velocity": 80,
                "duration": 0.0704545,
                "tempo": 120.0
            },
            {
                "start_time": 67.7886364,
                "end_time": 67.9659091,
                "pitch": 41,
                "velocity": 80,
                "duration": 0.1772727,
                "tempo": 120.0
            },
            {
                "start_time": 67.9840909,
                "end_time": 68.0795455,
                "pitch": 53,
                "velocity": 80,
                "duration": 0.0954545,
                "tempo": 120.0
            },
            {
                "start_time": 68.0977273,
                "end_time": 68.2886364,
                "pitch": 41,
                "velocity": 80,
                "duration": 0.1909091,
                "tempo": 120.0
            },
            {
                "start_time": 68.3045455,
                "end_time": 68.375,
                "pitch": 53,
                "velocity": 80,
                "duration": 0.0704545,
                "tempo": 120.0
            },
            {
                "start_time": 68.3909091,
                "end_time": 68.5681818,
                "pitch": 41,
                "velocity": 80,
                "duration": 0.1772727,
                "tempo": 120.0
            },
            {
                "start_time": 68.5840909,
                "end_time": 68.6818182,
                "pitch": 53,
                "velocity": 80,
                "duration": 0.0977273,
                "tempo": 120.0
            },
            {
                "start_time": 68.7,
                "end_time": 68.8886364,
                "pitch": 41,
                "velocity": 80,
                "duration": 0.1886364,
                "tempo": 120.0
            },
            {
                "start_time": 68.9068182,
                "end_time": 68.975,
                "pitch": 53,
                "velocity": 80,
                "duration": 0.0681818,
                "tempo": 120.0
            },
            {
                "start_time": 68.9909091,
                "end_time": 69.1704545,
                "pitch": 41,
                "velocity": 80,
                "duration": 0.1795455,
                "tempo": 120.0
            },
            {
                "start_time": 69.1863636,
                "end_time": 69.2840909,
                "pitch": 53,
                "velocity": 80,
                "duration": 0.0977273,
                "tempo": 120.0
            },
            {
                "start_time": 69.3,
                "end_time": 69.4909091,
                "pitch": 41,
                "velocity": 80,
                "duration": 0.1909091,
                "tempo": 120.0
            },
            {
                "start_time": 69.5068182,
                "end_time": 69.5772727,
                "pitch": 53,
                "velocity": 80,
                "duration": 0.0704545,
                "tempo": 120.0
            },
            {
                "start_time": 69.5931818,
                "end_time": 69.7704545,
                "pitch": 41,
                "velocity": 80,
                "duration": 0.1772727,
                "tempo": 120.0
            },
            {
                "start_time": 69.7886364,
                "end_time": 69.8840909,
                "pitch": 53,
                "velocity": 80,
                "duration": 0.0954545,
                "tempo": 120.0
            },
            {
                "start_time": 69.9022727,
                "end_time": 70.0909091,
                "pitch": 43,
                "velocity": 80,
                "duration": 0.1886364,
                "tempo": 120.0
            },
            {
                "start_time": 70.1090909,
                "end_time": 70.1772727,
                "pitch": 55,
                "velocity": 80,
                "duration": 0.0681818,
                "tempo": 120.0
            },
            {
                "start_time": 70.1954545,
                "end_time": 70.3727273,
                "pitch": 43,
                "velocity": 80,
                "duration": 0.1772727,
                "tempo": 120.0
            },
            {
                "start_time": 70.3886364,
                "end_time": 70.4863636,
                "pitch": 55,
                "velocity": 80,
                "duration": 0.0977273,
                "tempo": 120.0
            },
            {
                "start_time": 70.5045455,
                "end_time": 70.6931818,
                "pitch": 43,
                "velocity": 80,
                "duration": 0.1886364,
                "tempo": 120.0
            },
            {
                "start_time": 70.7113636,
                "end_time": 70.7795455,
                "pitch": 55,
                "velocity": 80,
                "duration": 0.0681818,
                "tempo": 120.0
            },
            {
                "start_time": 70.7954545,
                "end_time": 70.975,
                "pitch": 43,
                "velocity": 80,
                "duration": 0.1795455,
                "tempo": 120.0
            },
            {
                "start_time": 70.9909091,
                "end_time": 71.0886364,
                "pitch": 55,
                "velocity": 80,
                "duration": 0.0977273,
                "tempo": 120.0
            },
            {
                "start_time": 71.1045455,
                "end_time": 71.2954545,
                "pitch": 43,
                "velocity": 80,
                "duration": 0.1909091,
                "tempo": 120.0
            },
            {
                "start_time": 71.3113636,
                "end_time": 71.3818182,
                "pitch": 55,
                "velocity": 80,
                "duration": 0.0704545,
                "tempo": 120.0
            },
            {
                "start_time": 71.3977273,
                "end_time": 71.575,
                "pitch": 43,
                "velocity": 80,
                "duration": 0.1772727,
                "tempo": 120.0
            },
            {
                "start_time": 71.5931818,
                "end_time": 71.6886364,
                "pitch": 55,
                "velocity": 80,
                "duration": 0.0954545,
                "tempo": 120.0
            },
            {
                "start_time": 71.7068182,
                "end_time": 71.8954545,
                "pitch": 43,
                "velocity": 80,
                "duration": 0.1886364,
                "tempo": 120.0
            },
            {
                "start_time": 71.9136364,
                "end_time": 71.9818182,
                "pitch": 55,
                "velocity": 80,
                "duration": 0.0681818,
                "tempo": 120.0
            },
            {
                "start_time": 72.0,
                "end_time": 72.1772727,
                "pitch": 43,
                "velocity": 80,
                "duration": 0.1772727,
                "tempo": 120.0
            },
            {
                "start_time": 72.1931818,
                "end_time": 72.2909091,
                "pitch": 55,
                "velocity": 80,
                "duration": 0.0977273,
                "tempo": 120.0
            },
            {
                "start_time": 72.3090909,
                "end_time": 72.4977273,
                "pitch": 43,
                "velocity": 80,
                "duration": 0.1886364,
                "tempo": 120.0
            },
            {
                "start_time": 72.5159091,
                "end_time": 72.5840909,
                "pitch": 55,
                "velocity": 80,
                "duration": 0.0681818,
                "tempo": 120.0
            },
            {
                "start_time": 72.6,
                "end_time": 72.7795455,
                "pitch": 43,
                "velocity": 80,
                "duration": 0.1795455,
                "tempo": 120.0
            },
            {
                "start_time": 72.7954545,
                "end_time": 72.8931818,
                "pitch": 55,
                "velocity": 80,
                "duration": 0.0977273,
                "tempo": 120.0
            },
            {
                "start_time": 72.9090909,
                "end_time": 73.1,
                "pitch": 43,
                "velocity": 80,
                "duration": 0.1909091,
                "tempo": 120.0
            },
            {
                "start_time": 73.1159091,
                "end_time": 73.1863636,
                "pitch": 55,
                "velocity": 80,
                "duration": 0.0704545,
                "tempo": 120.0
            },
            {
                "start_time": 73.2022727,
                "end_time": 73.3795455,
                "pitch": 43,
                "velocity": 80,
                "duration": 0.1772727,
                "tempo": 120.0
            },
            {
                "start_time": 73.3977273,
                "end_time": 73.4931818,
                "pitch": 55,
                "velocity": 80,
                "duration": 0.0954545,
                "tempo": 120.0
            },
            {
                "start_time": 73.5113636,
                "end_time": 73.7,
                "pitch": 43,
                "velocity": 80,
                "duration": 0.1886364,
                "tempo": 120.0
            },
            {
                "start_time": 73.7181818,
                "end_time": 73.7863636,
                "pitch": 55,
                "velocity": 80,
                "duration": 0.0681818,
                "tempo": 120.0
            },
            {
                "start_time": 73.8045455,
                "end_time": 73.9818182,
                "pitch": 43,
                "velocity": 80,
                "duration": 0.1772727,
                "tempo": 120.0
            },
            {
                "start_time": 73.9977273,
                "end_time": 74.0954545,
                "pitch": 55,
                "velocity": 80,
                "duration": 0.0977273,
                "tempo": 120.0
            },
            {
                "start_time": 74.1113636,
                "end_time": 74.3022727,
                "pitch": 43,
                "velocity": 80,
                "duration": 0.1909091,
                "tempo": 120.0
            },
            {
                "start_time": 74.3204545,
                "end_time": 74.3886364,
                "pitch": 55,
                "velocity": 80,
                "duration": 0.0681818,
                "tempo": 120.0
            },
            {
                "start_time": 74.4045455,
                "end_time": 74.5840909,
                "pitch": 43,
                "velocity": 80,
                "duration": 0.1795455,
                "tempo": 120.0
            },
            {
                "start_time": 74.6,
                "end_time": 74.6977273,
                "pitch": 55,
                "velocity": 80,
                "duration": 0.0977273,
                "tempo": 120.0
            },
            {
                "start_time": 74.7136364,
                "end_time": 74.8977273,
                "pitch": 41,
                "velocity": 80,
                "duration": 0.1840909,
                "tempo": 120.0
            },
            {
                "start_time": 74.9136364,
                "end_time": 74.9795455,
                "pitch": 53,
                "velocity": 80,
                "duration": 0.0659091,
                "tempo": 120.0
            },
            {
                "start_time": 74.9977273,
                "end_time": 75.1795455,
                "pitch": 41,
                "velocity": 80,
                "duration": 0.1818182,
                "tempo": 120.0
            },
            {
                "start_time": 75.1977273,
                "end_time": 75.2977273,
                "pitch": 53,
                "velocity": 80,
                "duration": 0.1,
                "tempo": 120.0
            },
            {
                "start_time": 75.3136364,
                "end_time": 75.5045455,
                "pitch": 41,
                "velocity": 80,
                "duration": 0.1909091,
                "tempo": 120.0
            },
            {
                "start_time": 75.5204545,
                "end_time": 75.5909091,
                "pitch": 53,
                "velocity": 80,
                "duration": 0.0704545,
                "tempo": 120.0
            },
            {
                "start_time": 75.6068182,
                "end_time": 75.7840909,
                "pitch": 41,
                "velocity": 80,
                "duration": 0.1772727,
                "tempo": 120.0
            },
            {
                "start_time": 75.8022727,
                "end_time": 75.8977273,
                "pitch": 53,
                "velocity": 80,
                "duration": 0.0954545,
                "tempo": 120.0
            },
            {
                "start_time": 75.9159091,
                "end_time": 76.1068182,
                "pitch": 41,
                "velocity": 80,
                "duration": 0.1909091,
                "tempo": 120.0
            },
            {
                "start_time": 76.1227273,
                "end_time": 76.1931818,
                "pitch": 53,
                "velocity": 80,
                "duration": 0.0704545,
                "tempo": 120.0
            },
            {
                "start_time": 76.2090909,
                "end_time": 76.3863636,
                "pitch": 41,
                "velocity": 80,
                "duration": 0.1772727,
                "tempo": 120.0
            },
            {
                "start_time": 76.4022727,
                "end_time": 76.5,
                "pitch": 53,
                "velocity": 80,
                "duration": 0.0977273,
                "tempo": 120.0
            },
            {
                "start_time": 76.5181818,
                "end_time": 76.7068182,
                "pitch": 41,
                "velocity": 80,
                "duration": 0.1886364,
                "tempo": 120.0
            },
            {
                "start_time": 76.725,
                "end_time": 76.7931818,
                "pitch": 53,
                "velocity": 80,
                "duration": 0.0681818,
                "tempo": 120.0
            },
            {
                "start_time": 76.8090909,
                "end_time": 76.9886364,
                "pitch": 41,
                "velocity": 80,
                "duration": 0.1795455,
                "tempo": 120.0
            },
            {
                "start_time": 77.0045455,
                "end_time": 77.1022727,
                "pitch": 53,
                "velocity": 80,
                "duration": 0.0977273,
                "tempo": 120.0
            },
            {
                "start_time": 77.1181818,
                "end_time": 77.3090909,
                "pitch": 41,
                "velocity": 80,
                "duration": 0.1909091,
                "tempo": 120.0
            },
            {
                "start_time": 77.325,
                "end_time": 77.3954545,
                "pitch": 53,
                "velocity": 80,
                "duration": 0.0704545,
                "tempo": 120.0
            },
            {
                "start_time": 77.4113636,
                "end_time": 77.5954545,
                "pitch": 41,
                "velocity": 80,
                "duration": 0.1840909,
                "tempo": 120.0
            },
            {
                "start_time": 77.6113636,
                "end_time": 77.7113636,
                "pitch": 53,
                "velocity": 80,
                "duration": 0.1,
                "tempo": 120.0
            },
            {
                "start_time": 77.7295455,
                "end_time": 77.9136364,
                "pitch": 41,
                "velocity": 80,
                "duration": 0.1840909,
                "tempo": 120.0
            },
            {
                "start_time": 77.9295455,
                "end_time": 77.9977273,
                "pitch": 53,
                "velocity": 80,
                "duration": 0.0681818,
                "tempo": 120.0
            },
            {
                "start_time": 78.0136364,
                "end_time": 78.1909091,
                "pitch": 41,
                "velocity": 80,
                "duration": 0.1772727,
                "tempo": 120.0
            },
            {
                "start_time": 78.2068182,
                "end_time": 78.3045455,
                "pitch": 53,
                "velocity": 80,
                "duration": 0.0977273,
                "tempo": 120.0
            },
            {
                "start_time": 78.3227273,
                "end_time": 78.5113636,
                "pitch": 41,
                "velocity": 80,
                "duration": 0.1886364,
                "tempo": 120.0
            },
            {
                "start_time": 78.5295455,
                "end_time": 78.5977273,
                "pitch": 53,
                "velocity": 80,
                "duration": 0.0681818,
                "tempo": 120.0
            },
            {
                "start_time": 78.6159091,
                "end_time": 78.7931818,
                "pitch": 41,
                "velocity": 80,
                "duration": 0.1772727,
                "tempo": 120.0
            },
            {
                "start_time": 78.8090909,
                "end_time": 78.9068182,
                "pitch": 53,
                "velocity": 80,
                "duration": 0.0977273,
                "tempo": 120.0
            },
            {
                "start_time": 78.9227273,
                "end_time": 79.1136364,
                "pitch": 41,
                "velocity": 80,
                "duration": 0.1909091,
                "tempo": 120.0
            },
            {
                "start_time": 79.1318182,
                "end_time": 79.2,
                "pitch": 53,
                "velocity": 80,
                "duration": 0.0681818,
                "tempo": 120.0
            },
            {
                "start_time": 79.2159091,
                "end_time": 79.3954545,
                "pitch": 41,
                "velocity": 80,
                "duration": 0.1795455,
                "tempo": 120.0
            },
            {
                "start_time": 79.4113636,
                "end_time": 79.5068182,
                "pitch": 53,
                "velocity": 80,
                "duration": 0.0954545,
                "tempo": 120.0
            },
            {
                "start_time": 79.525,
                "end_time": 79.8022727,
                "pitch": 43,
                "velocity": 80,
                "duration": 0.2772727,
                "tempo": 120.0
            },
            {
                "start_time": 80.0113636,
                "end_time": 80.1090909,
                "pitch": 43,
                "velocity": 80,
                "duration": 0.0977273,
                "tempo": 120.0
            },
            {
                "start_time": 80.4204545,
                "end_time": 80.7113636,
                "pitch": 43,
                "velocity": 80,
                "duration": 0.2909091,
                "tempo": 120.0
            }
        ]
    }
}