{
    "mood": "happy",
    "instruments": {
        "Oboe": [
            {
                "start_time": 0.0,
                "end_time": 0.1795455,
                "pitch": 64,
                "velocity": 40,
                "duration": 0.1795455,
                "tempo": 120.0
            },
            {
                "start_time": 0.2136364,
                "end_time": 0.2636364,
                "pitch": 64,
                "velocity": 40,
                "duration": 0.05,
                "tempo": 120.0
            },
            {
                "start_time": 0.2795455,
                "end_time": 0.4795455,
                "pitch": 64,
                "velocity": 40,
                "duration": 0.2,
                "tempo": 120.0
            },
            {
                "start_time": 0.5136364,
                "end_time": 1.1363636,
                "pitch": 64,
                "velocity": 40,
                "duration": 0.6227273,
                "tempo": 120.0
            },
            {
                "start_time": 1.1522727,
                "end_time": 1.4340909,
                "pitch": 67,
                "velocity": 40,
                "duration": 0.2818182,
                "tempo": 120.0
            },
            {
                "start_time": 1.4522727,
                "end_time": 1.7340909,
                "pitch": 67,
                "velocity": 40,
                "duration": 0.2818182,
                "tempo": 120.0
            },
            {
                "start_time": 1.7522727,
                "end_time": 2.0386364,
                "pitch": 66,
                "velocity": 40,
                "duration": 0.2863636,
                "tempo": 120.0
            },
            {
                "start_time": 2.0545455,
                "end_time": 2.2568182,
                "pitch": 64,
                "velocity": 40,
                "duration": 0.2022727,
                "tempo": 120.0
            },
            {
                "start_time": 2.2909091,
                "end_time": 2.3409091,
                "pitch": 62,
                "velocity": 40,
                "duration": 0.05,
                "tempo": 120.0
            },
            {
                "start_time": 2.3568182,
                "end_time": 3.5522727,
                "pitch": 64,
                "velocity": 40,
                "duration": 1.1954545,
                "tempo": 120.0
            },
            {
                "start_time": 3.5522727,
                "end_time": 3.5681818,
                "pitch": 55,
                "velocity": 40,
                "duration": 0.0159091,
                "tempo": 120.0
            },
            {
                "start_time": 3.5681818,
                "end_time": 4.4522727,
                "pitch": 64,
                "velocity": 40,
                "duration": 0.8840909,
                "tempo": 120.0
            }
        ],
        "Lead 2 (sawtooth)": [
            {
                "start_time": 0.0,
                "end_time": 0.0136364,
                "pitch": 60,
                "velocity": 25,
                "duration": 0.0136364,
                "tempo": 120.0
            },
            {
                "start_time": 0.0295455,
                "end_time": 0.2295455,
                "pitch": 64,
                "velocity": 25,
                "duration": 0.2,
                "tempo": 120.0
            },
            {
                "start_time": 0.2636364,
                "end_time": 0.3136364,
                "pitch": 64,
                "velocity": 25,
                "duration": 0.05,
                "tempo": 120.0
            },
            {
                "start_time": 0.3295455,
                "end_time": 0.5295455,
                "pitch": 64,
                "velocity": 25,
                "duration": 0.2,
                "tempo": 120.0
            },
            {
                "start_time": 0.5636364,
                "end_time": 1.1840909,
                "pitch": 64,
                "velocity": 25,
                "duration": 0.6204545,
                "tempo": 120.0
            },
            {
                "start_time": 1.2022727,
                "end_time": 1.4840909,
                "pitch": 67,
                "velocity": 25,
                "duration": 0.2818182,
                "tempo": 120.0
            },
            {
                "start_time": 1.5022727,
                "end_time": 1.7840909,
                "pitch": 67,
                "velocity": 25,
                "duration": 0.2818182,
                "tempo": 120.0
            },
            {
                "start_time": 1.8022727,
                "end_time": 2.0886364,
                "pitch": 66,
                "velocity": 25,
                "duration": 0.2863636,
                "tempo": 120.0
            },
            {
                "start_time": 2.1045455,
                "end_time": 2.3068182,
                "pitch": 64,
                "velocity": 25,
                "duration": 0.2022727,
                "tempo": 120.0
            },
            {
                "start_time": 2.3409091,
                "end_time": 2.3909091,
                "pitch": 62,
                "velocity": 25,
                "duration": 0.05,
                "tempo": 120.0
            },
            {
                "start_time": 2.4068182,
                "end_time": 4.5045455,
                "pitch": 64,
                "velocity": 25,
                "duration": 2.0977273,
                "tempo": 120.0
            }
        ],
        "Synth Bass 1": [
            {
                "start_time": 0.0,
                "end_time": 0.1795455,
                "pitch": 57,
                "velocity": 25,
                "duration": 0.1795455,
                "tempo": 120.0
            },
            {
                "start_time": 0.2136364,
                "end_time": 0.2636364,
                "pitch": 57,
                "velocity": 25,
                "duration": 0.05,
                "tempo": 120.0
            },
            {
                "start_time": 0.2795455,
                "end_time": 0.4795455,
                "pitch": 55,
                "velocity": 25,
                "duration": 0.2,
                "tempo": 120.0
            },
            {
                "start_time": 0.5136364,
                "end_time": 1.1363636,
                "pitch": 57,
                "velocity": 25,
                "duration": 0.6227273,
                "tempo": 120.0
            },
            {
                "start_time": 1.1522727,
                "end_time": 1.4340909,
                "pitch": 57,
                "velocity": 25,
                "duration": 0.2818182,
                "tempo": 120.0
            },
            {
                "start_time": 1.4522727,
                "end_time": 1.7340909,
                "pitch": 57,
                "velocity": 25,
                "duration": 0.2818182,
                "tempo": 120.0
            },
            {
                "start_time": 1.7522727,
                "end_time": 2.0386364,
                "pitch": 57,
                "velocity": 25,
                "duration": 0.2863636,
                "tempo": 120.0
            },
            {
                "start_time": 2.0545455,
                "end_time": 2.2568182,
                "pitch": 57,
                "velocity": 25,
                "duration": 0.2022727,
                "tempo": 120.0
            },
            {
                "start_time": 2.2909091,
                "end_time": 2.3409091,
                "pitch": 55,
                "velocity": 25,
                "duration": 0.05,
                "tempo": 120.0
            },
            {
                "start_time": 2.3568182,
                "end_time": 3.2386364,
                "pitch": 57,
                "velocity": 25,
                "duration": 0.8818182,
                "tempo": 120.0
            }
        ],
        "Clarinet": [
            {
                "start_time": 3.2545455,
                "end_time": 3.2863636,
                "pitch": 71,
                "velocity": 25,
                "duration": 0.0318182,
                "tempo": 120.0
            },
            {
                "start_time": 3.2863636,
                "end_time": 3.3045455,
                "pitch": 67,
                "velocity": 25,
                "duration": 0.0181818,
                "tempo": 120.0
            },
            {
                "start_time": 3.3045455,
                "end_time": 3.3363636,
                "pitch": 66,
                "velocity": 25,
                "duration": 0.0318182,
                "tempo": 120.0
            },
            {
                "start_time": 3.3363636,
                "end_time": 3.3522727,
                "pitch": 63,
                "velocity": 25,
                "duration": 0.0159091,
                "tempo": 120.0
            },
            {
                "start_time": 3.3522727,
                "end_time": 3.3863636,
                "pitch": 71,
                "velocity": 25,
                "duration": 0.0340909,
                "tempo": 120.0
            },
            {
                "start_time": 3.3863636,
                "end_time": 3.4022727,
                "pitch": 67,
                "velocity": 25,
                "duration": 0.0159091,
                "tempo": 120.0
            },
            {
                "start_time": 3.4022727,
                "end_time": 3.4363636,
                "pitch": 66,
                "velocity": 25,
                "duration": 0.0340909,
                "tempo": 120.0
            },
            {
                "start_time": 3.4363636,
                "end_time": 3.4522727,
                "pitch": 63,
                "velocity": 25,
                "duration": 0.0159091,
                "tempo": 120.0
            },
            {
                "start_time": 3.4522727,
                "end_time": 3.4681818,
                "pitch": 69,
                "velocity": 25,
                "duration": 0.0159091,
                "tempo": 120.0
            },
            {
                "start_time": 3.4681818,
                "end_time": 3.4863636,
                "pitch": 67,
                "velocity": 25,
                "duration": 0.0181818,
                "tempo": 120.0
            },
            {
                "start_time": 3.4863636,
                "end_time": 3.5181818,
                "pitch": 66,
                "velocity": 25,
                "duration": 0.0318182,
                "tempo": 120.0
            },
            {
                "start_time": 3.5181818,
                "end_time": 3.5522727,
                "pitch": 63,
                "velocity": 25,
                "duration": 0.0340909,
                "tempo": 120.0
            },
            {
                "start_time": 3.5522727,
                "end_time": 3.5681818,
                "pitch": 67,
                "velocity": 25,
                "duration": 0.0159091,
                "tempo": 120.0
            },
            {
                "start_time": 3.5681818,
                "end_time": 3.6022727,
                "pitch": 66,
                "velocity": 25,
                "duration": 0.0340909,
                "tempo": 120.0
            },
            {
                "start_time": 3.6022727,
                "end_time": 3.6363636,
                "pitch": 63,
                "velocity": 25,
                "duration": 0.0340909,
                "tempo": 120.0
            },
            {
                "start_time": 3.6363636,
                "end_time": 3.6545455,
                "pitch": 60,
                "velocity": 25,
                "duration": 0.0181818,
                "tempo": 120.0
            }
        ],
        "Acoustic Bass": [
            {
                "start_time": 0.0,
                "end_time": 0.1795455,
                "pitch": 61,
                "velocity": 25,
                "duration": 0.1795455,
                "tempo": 120.0
            },
            {
                "start_time": 0.2136364,
                "end_time": 0.2636364,
                "pitch": 61,
                "velocity": 25,
                "duration": 0.05,
                "tempo": 120.0
            },
            {
                "start_time": 0.2795455,
                "end_time": 0.4795455,
                "pitch": 59,
                "velocity": 25,
                "duration": 0.2,
                "tempo": 120.0
            },
            {
                "start_time": 0.5136364,
                "end_time": 1.1363636,
                "pitch": 61,
                "velocity": 25,
                "duration": 0.6227273,
                "tempo": 120.0
            },
            {
                "start_time": 1.1522727,
                "end_time": 1.4340909,
                "pitch": 62,
                "velocity": 25,
                "duration": 0.2818182,
                "tempo": 120.0
            },
            {
                "start_time": 1.4522727,
                "end_time": 1.7340909,
                "pitch": 62,
                "velocity": 25,
                "duration": 0.2818182,
                "tempo": 120.0
            },
            {
                "start_time": 1.7522727,
                "end_time": 2.0386364,
                "pitch": 62,
                "velocity": 25,
                "duration": 0.2863636,
                "tempo": 120.0
            },
            {
                "start_time": 2.0545455,
                "end_time": 2.2568182,
                "pitch": 61,
                "velocity": 25,
                "duration": 0.2022727,
                "tempo": 120.0
            },
            {
                "start_time": 2.2909091,
                "end_time": 2.3409091,
                "pitch": 59,
                "velocity": 25,
                "duration": 0.05,
                "tempo": 120.0
            },
            {
                "start_time": 2.3568182,
                "end_time": 4.4522727,
                "pitch": 61,
                "velocity": 25,
                "duration": 2.0954545,
                "tempo": 120.0
            }
        ]
    }
}