{
    "mood": "happy",
    "instruments": {
        "Acoustic Bass": [
            {
                "start_time": 0.0,
                "end_time": 0.0704545,
                "pitch": 40,
                "velocity": 32,
                "duration": 0.0704545,
                "tempo": 120.0
            },
            {
                "start_time": 0.0977273,
                "end_time": 0.1795455,
                "pitch": 40,
                "velocity": 32,
                "duration": 0.0818182,
                "tempo": 120.0
            },
            {
                "start_time": 0.1954545,
                "end_time": 0.2954545,
                "pitch": 40,
                "velocity": 32,
                "duration": 0.1,
                "tempo": 120.0
            },
            {
                "start_time": 0.3136364,
                "end_time": 0.4159091,
                "pitch": 40,
                "velocity": 32,
                "duration": 0.1022727,
                "tempo": 120.0
            },
            {
                "start_time": 0.4318182,
                "end_time": 0.5340909,
                "pitch": 40,
                "velocity": 32,
                "duration": 0.1022727,
                "tempo": 120.0
            },
            {
                "start_time": 0.5522727,
                "end_time": 0.6545455,
                "pitch": 40,
                "velocity": 32,
                "duration": 0.1022727,
                "tempo": 120.0
            },
            {
                "start_time": 0.6886364,
                "end_time": 0.7886364,
                "pitch": 40,
                "velocity": 32,
                "duration": 0.1,
                "tempo": 120.0
            },
            {
                "start_time": 0.8045455,
                "end_time": 0.9045455,
                "pitch": 40,
                "velocity": 32,
                "duration": 0.1,
                "tempo": 120.0
            },
            {
                "start_time": 0.9227273,
                "end_time": 1.0227273,
                "pitch": 40,
                "velocity": 32,
                "duration": 0.1,
                "tempo": 120.0
            },
            {
                "start_time": 1.0386364,
                "end_time": 1.1386364,
                "pitch": 35,
                "velocity": 32,
                "duration": 0.1,
                "tempo": 120.0
            },
            {
                "start_time": 1.1545455,
                "end_time": 1.2545455,
                "pitch": 35,
                "velocity": 32,
                "duration": 0.1,
                "tempo": 120.0
            },
            {
                "start_time": 1.2863636,
                "end_time": 1.5,
                "pitch": 40,
                "velocity": 32,
                "duration": 0.2136364,
                "tempo": 120.0
            },
            {
                "start_time": 1.5159091,
                "end_time": 1.6136364,
                "pitch": 40,
                "velocity": 32,
                "duration": 0.0977273,
                "tempo": 120.0
            },
            {
                "start_time": 1.6318182,
                "end_time": 1.7318182,
                "pitch": 40,
                "velocity": 32,
                "duration": 0.1,
                "tempo": 120.0
            },
            {
                "start_time": 1.7477273,
                "end_time": 1.8477273,
                "pitch": 35,
                "velocity": 32,
                "duration": 0.1,
                "tempo": 120.0
            },
            {
                "start_time": 1.8818182,
                "end_time": 1.9795455,
                "pitch": 40,
                "velocity": 32,
                "duration": 0.0977273,
                "tempo": 120.0
            },
            {
                "start_time": 1.9977273,
                "end_time": 2.0977273,
                "pitch": 40,
                "velocity": 32,
                "duration": 0.1,
                "tempo": 120.0
            },
            {
                "start_time": 2.1136364,
                "end_time": 2.2136364,
                "pitch": 40,
                "velocity": 32,
                "duration": 0.1,
                "tempo": 120.0
            },
            {
                "start_time": 2.2295455,
                "end_time": 2.3295455,
                "pitch": 40,
                "velocity": 32,
                "duration": 0.1,
                "tempo": 120.0
            },
            {
                "start_time": 2.3477273,
                "end_time": 2.4477273,
                "pitch": 40,
                "velocity": 32,
                "duration": 0.1,
                "tempo": 120.0
            },
            {
                "start_time": 2.4795455,
                "end_time": 2.5795455,
                "pitch": 40,
                "velocity": 32,
                "duration": 0.1,
                "tempo": 120.0
            },
            {
                "start_time": 2.5977273,
                "end_time": 2.7,
                "pitch": 40,
                "velocity": 32,
                "duration": 0.1022727,
                "tempo": 120.0
            },
            {
                "start_time": 2.7159091,
                "end_time": 2.8181818,
                "pitch": 35,
                "velocity": 32,
                "duration": 0.1022727,
                "tempo": 120.0
            },
            {
                "start_time": 2.8363636,
                "end_time": 2.9386364,
                "pitch": 36,
                "velocity": 32,
                "duration": 0.1022727,
                "tempo": 120.0
            },
            {
                "start_time": 2.9568182,
                "end_time": 3.0590909,
                "pitch": 31,
                "velocity": 32,
                "duration": 0.1022727,
                "tempo": 120.0
            },
            {
                "start_time": 3.0931818,
                "end_time": 3.1931818,
                "pitch": 36,
                "velocity": 32,
                "duration": 0.1,
                "tempo": 120.0
            },
            {
                "start_time": 3.2090909,
                "end_time": 3.425,
                "pitch": 38,
                "velocity": 32,
                "duration": 0.2159091,
                "tempo": 120.0
            },
            {
                "start_time": 3.4431818,
                "end_time": 3.5431818,
                "pitch": 33,
                "velocity": 32,
                "duration": 0.1,
                "tempo": 120.0
            },
            {
                "start_time": 3.5590909,
                "end_time": 3.7886364,
                "pitch": 38,
                "velocity": 32,
                "duration": 0.2295455,
                "tempo": 120.0
            },
            {
                "start_time": 3.8045455,
                "end_time": 3.9045455,
                "pitch": 40,
                "velocity": 32,
                "duration": 0.1,
                "tempo": 120.0
            },
            {
                "start_time": 3.9204545,
                "end_time": 4.0181818,
                "pitch": 40,
                "velocity": 32,
                "duration": 0.0977273,
                "tempo": 120.0
            },
            {
                "start_time": 4.0340909,
                "end_time": 4.1363636,
                "pitch": 40,
                "velocity": 32,
                "duration": 0.1022727,
                "tempo": 120.0
            },
            {
                "start_time": 4.1522727,
                "end_time": 4.2522727,
                "pitch": 40,
                "velocity": 32,
                "duration": 0.1,
                "tempo": 120.0
            },
            {
                "start_time": 4.2863636,
                "end_time": 4.3863636,
                "pitch": 40,
                "velocity": 32,
                "duration": 0.1,
                "tempo": 120.0
            },
            {
                "start_time": 4.4045455,
                "end_time": 4.5045455,
                "pitch": 40,
                "velocity": 32,
                "duration": 0.1,
                "tempo": 120.0
            },
            {
                "start_time": 4.5227273,
                "end_time": 4.6227273,
                "pitch": 40,
                "velocity": 32,
                "duration": 0.1,
                "tempo": 120.0
            },
            {
                "start_time": 4.6386364,
                "end_time": 4.7386364,
                "pitch": 40,
                "velocity": 32,
                "duration": 0.1,
                "tempo": 120.0
            },
            {
                "start_time": 4.7545455,
                "end_time": 4.8545455,
                "pitch": 40,
                "velocity": 32,
                "duration": 0.1,
                "tempo": 120.0
            },
            {
                "start_time": 4.8886364,
                "end_time": 4.9886364,
                "pitch": 35,
                "velocity": 32,
                "duration": 0.1,
                "tempo": 120.0
            },
            {
                "start_time": 5.0045455,
                "end_time": 5.1068182,
                "pitch": 35,
                "velocity": 32,
                "duration": 0.1022727,
                "tempo": 120.0
            },
            {
                "start_time": 5.1227273,
                "end_time": 5.3409091,
                "pitch": 40,
                "velocity": 32,
                "duration": 0.2181818,
                "tempo": 120.0
            },
            {
                "start_time": 5.3590909,
                "end_time": 5.4590909,
                "pitch": 40,
                "velocity": 32,
                "duration": 0.1,
                "tempo": 120.0
            },
            {
                "start_time": 5.4931818,
                "end_time": 5.5954545,
                "pitch": 40,
                "velocity": 32,
                "duration": 0.1022727,
                "tempo": 120.0
            },
            {
                "start_time": 5.6113636,
                "end_time": 5.7136364,
                "pitch": 35,
                "velocity": 32,
                "duration": 0.1022727,
                "tempo": 120.0
            },
            {
                "start_time": 5.7318182,
                "end_time": 5.8340909,
                "pitch": 40,
                "velocity": 32,
                "duration": 0.1022727,
                "tempo": 120.0
            },
            {
                "start_time": 5.85,
                "end_time": 5.9522727,
                "pitch": 40,
                "velocity": 32,
                "duration": 0.1022727,
                "tempo": 120.0
            },
            {
                "start_time": 5.9704545,
                "end_time": 6.0681818,
                "pitch": 40,
                "velocity": 32,
                "duration": 0.0977273,
                "tempo": 120.0
            },
            {
                "start_time": 6.1022727,
                "end_time": 6.2,
                "pitch": 40,
                "velocity": 32,
                "duration": 0.0977273,
                "tempo": 120.0
            },
            {
                "start_time": 6.2159091,
                "end_time": 6.3159091,
                "pitch": 40,
                "velocity": 32,
                "duration": 0.1,
                "tempo": 120.0
            },
            {
                "start_time": 6.3318182,
                "end_time": 6.4295455,
                "pitch": 40,
                "velocity": 32,
                "duration": 0.0977273,
                "tempo": 120.0
            },
            {
                "start_time": 6.4454545,
                "end_time": 6.5454545,
                "pitch": 40,
                "velocity": 32,
                "duration": 0.1,
                "tempo": 120.0
            },
            {
                "start_time": 6.5636364,
                "end_time": 6.6636364,
                "pitch": 35,
                "velocity": 32,
                "duration": 0.1,
                "tempo": 120.0
            },
            {
                "start_time": 6.6954545,
                "end_time": 6.7954545,
                "pitch": 36,
                "velocity": 32,
                "duration": 0.1,
                "tempo": 120.0
            },
            {
                "start_time": 6.8136364,
                "end_time": 6.9136364,
                "pitch": 31,
                "velocity": 32,
                "duration": 0.1,
                "tempo": 120.0
            },
            {
                "start_time": 6.9295455,
                "end_time": 7.0295455,
                "pitch": 36,
                "velocity": 32,
                "duration": 0.1,
                "tempo": 120.0
            },
            {
                "start_time": 7.0477273,
                "end_time": 7.2659091,
                "pitch": 38,
                "velocity": 32,
                "duration": 0.2181818,
                "tempo": 120.0
            },
            {
                "start_time": 7.3,
                "end_time": 7.4,
                "pitch": 33,
                "velocity": 32,
                "duration": 0.1,
                "tempo": 120.0
            },
            {
                "start_time": 7.4159091,
                "end_time": 7.6386364,
                "pitch": 38,
                "velocity": 32,
                "duration": 0.2227273,
                "tempo": 120.0
            },
            {
                "start_time": 7.6568182,
                "end_time": 7.7590909,
                "pitch": 45,
                "velocity": 32,
                "duration": 0.1022727,
                "tempo": 120.0
            },
            {
                "start_time": 7.775,
                "end_time": 7.8772727,
                "pitch": 45,
                "velocity": 32,
                "duration": 0.1022727,
                "tempo": 120.0
            },
            {
                "start_time": 7.9113636,
                "end_time": 8.0090909,
                "pitch": 45,
                "velocity": 32,
                "duration": 0.0977273,
                "tempo": 120.0
            },
            {
                "start_time": 8.0272727,
                "end_time": 8.125,
                "pitch": 40,
                "velocity": 32,
                "duration": 0.0977273,
                "tempo": 120.0
            },
            {
                "start_time": 8.1409091,
                "end_time": 8.2386364,
                "pitch": 40,
                "velocity": 32,
                "duration": 0.0977273,
                "tempo": 120.0
            },
            {
                "start_time": 8.2568182,
                "end_time": 8.3545455,
                "pitch": 40,
                "velocity": 32,
                "duration": 0.0977273,
                "tempo": 120.0
            },
            {
                "start_time": 8.3704545,
                "end_time": 8.4681818,
                "pitch": 40,
                "velocity": 32,
                "duration": 0.0977273,
                "tempo": 120.0
            },
            {
                "start_time": 8.5022727,
                "end_time": 8.6,
                "pitch": 40,
                "velocity": 32,
                "duration": 0.0977273,
                "tempo": 120.0
            },
            {
                "start_time": 8.6159091,
                "end_time": 8.7159091,
                "pitch": 43,
                "velocity": 32,
                "duration": 0.1,
                "tempo": 120.0
            },
            {
                "start_time": 8.7318182,
                "end_time": 8.8295455,
                "pitch": 43,
                "velocity": 32,
                "duration": 0.0977273,
                "tempo": 120.0
            },
            {
                "start_time": 8.8454545,
                "end_time": 8.9477273,
                "pitch": 43,
                "velocity": 32,
                "duration": 0.1022727,
                "tempo": 120.0
            },
            {
                "start_time": 8.9659091,
                "end_time": 9.2045455,
                "pitch": 38,
                "velocity": 32,
                "duration": 0.2386364,
                "tempo": 120.0
            },
            {
                "start_time": 9.2227273,
                "end_time": 9.325,
                "pitch": 38,
                "velocity": 32,
                "duration": 0.1022727,
                "tempo": 120.0
            },
            {
                "start_time": 9.3409091,
                "end_time": 9.4431818,
                "pitch": 38,
                "velocity": 32,
                "duration": 0.1022727,
                "tempo": 120.0
            },
            {
                "start_time": 9.4590909,
                "end_time": 9.5590909,
                "pitch": 38,
                "velocity": 32,
                "duration": 0.1,
                "tempo": 120.0
            },
            {
                "start_time": 9.5772727,
                "end_time": 9.6772727,
                "pitch": 45,
                "velocity": 32,
                "duration": 0.1,
                "tempo": 120.0
            },
            {
                "start_time": 9.7113636,
                "end_time": 9.8113636,
                "pitch": 45,
                "velocity": 32,
                "duration": 0.1,
                "tempo": 120.0
            },
            {
                "start_time": 9.8295455,
                "end_time": 9.9295455,
                "pitch": 45,
                "velocity": 32,
                "duration": 0.1,
                "tempo": 120.0
            },
            {
                "start_time": 9.9454545,
                "end_time": 10.1636364,
                "pitch": 45,
                "velocity": 32,
                "duration": 0.2181818,
                "tempo": 120.0
            },
            {
                "start_time": 10.1818182,
                "end_time": 10.2818182,
                "pitch": 45,
                "velocity": 32,
                "duration": 0.1,
                "tempo": 120.0
            },
            {
                "start_time": 10.3159091,
                "end_time": 10.4181818,
                "pitch": 45,
                "velocity": 32,
                "duration": 0.1022727,
                "tempo": 120.0
            },
            {
                "start_time": 10.4363636,
                "end_time": 10.5386364,
                "pitch": 45,
                "velocity": 32,
                "duration": 0.1022727,
                "tempo": 120.0
            },
            {
                "start_time": 10.5545455,
                "end_time": 10.7772727,
                "pitch": 43,
                "velocity": 32,
                "duration": 0.2227273,
                "tempo": 120.0
            },
            {
                "start_time": 10.7931818,
                "end_time": 10.8909091,
                "pitch": 43,
                "velocity": 32,
                "duration": 0.0977273,
                "tempo": 120.0
            },
            {
                "start_time": 10.9227273,
                "end_time": 11.1295455,
                "pitch": 38,
                "velocity": 32,
                "duration": 0.2068182,
                "tempo": 120.0
            },
            {
                "start_time": 11.1454545,
                "end_time": 11.2431818,
                "pitch": 43,
                "velocity": 32,
                "duration": 0.0977273,
                "tempo": 120.0
            },
            {
                "start_time": 11.2590909,
                "end_time": 11.3613636,
                "pitch": 38,
                "velocity": 32,
                "duration": 0.1022727,
                "tempo": 120.0
            },
            {
                "start_time": 11.3772727,
                "end_time": 11.4795455,
                "pitch": 43,
                "velocity": 32,
                "duration": 0.1022727,
                "tempo": 120.0
            },
            {
                "start_time": 11.5136364,
                "end_time": 11.6159091,
                "pitch": 45,
                "velocity": 32,
                "duration": 0.1022727,
                "tempo": 120.0
            },
            {
                "start_time": 11.6340909,
                "end_time": 11.7363636,
                "pitch": 45,
                "velocity": 32,
                "duration": 0.1022727,
                "tempo": 120.0
            },
            {
                "start_time": 11.7545455,
                "end_time": 11.8545455,
                "pitch": 45,
                "velocity": 32,
                "duration": 0.1,
                "tempo": 120.0
            },
            {
                "start_time": 11.8704545,
                "end_time": 11.9727273,
                "pitch": 40,
                "velocity": 32,
                "duration": 0.1022727,
                "tempo": 120.0
            },
            {
                "start_time": 11.9886364,
                "end_time": 12.0886364,
                "pitch": 40,
                "velocity": 32,
                "duration": 0.1,
                "tempo": 120.0
            },
            {
                "start_time": 12.1227273,
                "end_time": 12.2227273,
                "pitch": 40,
                "velocity": 32,
                "duration": 0.1,
                "tempo": 120.0
            },
            {
                "start_time": 12.2409091,
                "end_time": 12.3409091,
                "pitch": 40,
                "velocity": 32,
                "duration": 0.1,
                "tempo": 120.0
            },
            {
                "start_time": 12.3590909,
                "end_time": 12.4590909,
                "pitch": 40,
                "velocity": 32,
                "duration": 0.1,
                "tempo": 120.0
            },
            {
                "start_time": 12.475,
                "end_time": 12.5772727,
                "pitch": 43,
                "velocity": 32,
                "duration": 0.1022727,
                "tempo": 120.0
            },
            {
                "start_time": 12.5931818,
                "end_time": 12.6931818,
                "pitch": 43,
                "velocity": 32,
                "duration": 0.1,
                "tempo": 120.0
            },
            {
                "start_time": 12.7272727,
                "end_time": 12.8295455,
                "pitch": 43,
                "velocity": 32,
                "duration": 0.1022727,
                "tempo": 120.0
            },
            {
                "start_time": 12.8477273,
                "end_time": 13.0681818,
                "pitch": 38,
                "velocity": 32,
                "duration": 0.2204545,
                "tempo": 120.0
            },
            {
                "start_time": 13.0863636,
                "end_time": 13.1886364,
                "pitch": 38,
                "velocity": 32,
                "duration": 0.1022727,
                "tempo": 120.0
            },
            {
                "start_time": 13.2045455,
                "end_time": 13.3022727,
                "pitch": 38,
                "velocity": 32,
                "duration": 0.0977273,
                "tempo": 120.0
            },
            {
                "start_time": 13.3340909,
                "end_time": 13.4295455,
                "pitch": 38,
                "velocity": 32,
                "duration": 0.0954545,
                "tempo": 120.0
            },
            {
                "start_time": 13.4454545,
                "end_time": 13.6545455,
                "pitch": 39,
                "velocity": 32,
                "duration": 0.2090909,
                "tempo": 120.0
            },
            {
                "start_time": 13.6704545,
                "end_time": 13.7727273,
                "pitch": 39,
                "velocity": 32,
                "duration": 0.1022727,
                "tempo": 120.0
            },
            {
                "start_time": 13.7886364,
                "end_time": 14.0295455,
                "pitch": 39,
                "velocity": 32,
                "duration": 0.2409091,
                "tempo": 120.0
            },
            {
                "start_time": 14.0454545,
                "end_time": 14.1477273,
                "pitch": 39,
                "velocity": 32,
                "duration": 0.1022727,
                "tempo": 120.0
            },
            {
                "start_time": 14.1659091,
                "end_time": 14.2681818,
                "pitch": 39,
                "velocity": 32,
                "duration": 0.1022727,
                "tempo": 120.0
            },
            {
                "start_time": 14.2840909,
                "end_time": 14.3863636,
                "pitch": 39,
                "velocity": 32,
                "duration": 0.1022727,
                "tempo": 120.0
            },
            {
                "start_time": 14.4045455,
                "end_time": 14.6431818,
                "pitch": 41,
                "velocity": 32,
                "duration": 0.2386364,
                "tempo": 120.0
            },
            {
                "start_time": 14.6613636,
                "end_time": 14.7590909,
                "pitch": 41,
                "velocity": 32,
                "duration": 0.0977273,
                "tempo": 120.0
            },
            {
                "start_time": 14.775,
                "end_time": 14.9886364,
                "pitch": 41,
                "velocity": 32,
                "duration": 0.2136364,
                "tempo": 120.0
            },
            {
                "start_time": 15.0045455,
                "end_time": 15.1022727,
                "pitch": 41,
                "velocity": 32,
                "duration": 0.0977273,
                "tempo": 120.0
            },
            {
                "start_time": 15.1363636,
                "end_time": 15.2386364,
                "pitch": 47,
                "velocity": 32,
                "duration": 0.1022727,
                "tempo": 120.0
            },
            {
                "start_time": 15.2545455,
                "end_time": 15.3568182,
                "pitch": 45,
                "velocity": 32,
                "duration": 0.1022727,
                "tempo": 120.0
            },
            {
                "start_time": 15.375,
                "end_time": 15.5977273,
                "pitch": 43,
                "velocity": 32,
                "duration": 0.2227273,
                "tempo": 120.0
            },
            {
                "start_time": 15.6136364,
                "end_time": 15.7090909,
                "pitch": 43,
                "velocity": 32,
                "duration": 0.0954545,
                "tempo": 120.0
            },
            {
                "start_time": 15.7409091,
                "end_time": 15.95,
                "pitch": 43,
                "velocity": 32,
                "duration": 0.2090909,
                "tempo": 120.0
            },
            {
                "start_time": 15.9659091,
                "end_time": 16.0613636,
                "pitch": 43,
                "velocity": 32,
                "duration": 0.0954545,
                "tempo": 120.0
            },
            {
                "start_time": 16.0795455,
                "end_time": 16.1818182,
                "pitch": 43,
                "velocity": 32,
                "duration": 0.1022727,
                "tempo": 120.0
            },
            {
                "start_time": 16.1977273,
                "end_time": 16.3,
                "pitch": 43,
                "velocity": 32,
                "duration": 0.1022727,
                "tempo": 120.0
            },
            {
                "start_time": 16.3340909,
                "end_time": 16.5568182,
                "pitch": 43,
                "velocity": 32,
                "duration": 0.2227273,
                "tempo": 120.0
            },
            {
                "start_time": 16.5727273,
                "end_time": 16.7909091,
                "pitch": 43,
                "velocity": 32,
                "duration": 0.2181818,
                "tempo": 120.0
            },
            {
                "start_time": 16.8090909,
                "end_time": 17.0431818,
                "pitch": 43,
                "velocity": 32,
                "duration": 0.2340909,
                "tempo": 120.0
            },
            {
                "start_time": 17.0613636,
                "end_time": 17.3,
                "pitch": 43,
                "velocity": 32,
                "duration": 0.2386364,
                "tempo": 120.0
            }
        ],
        "Acoustic Grand Piano": [
            {
                "start_time": 7.775,
                "end_time": 7.8772727,
                "pitch": 74,
                "velocity": 25,
                "duration": 0.1022727,
                "tempo": 120.0
            },
            {
                "start_time": 7.9113636,
                "end_time": 8.0090909,
                "pitch": 74,
                "velocity": 25,
                "duration": 0.0977273,
                "tempo": 120.0
            },
            {
                "start_time": 8.0272727,
                "end_time": 8.125,
                "pitch": 74,
                "velocity": 25,
                "duration": 0.0977273,
                "tempo": 120.0
            },
            {
                "start_time": 8.1409091,
                "end_time": 8.2386364,
                "pitch": 74,
                "velocity": 25,
                "duration": 0.0977273,
                "tempo": 120.0
            },
            {
                "start_time": 8.2568182,
                "end_time": 8.3545455,
                "pitch": 74,
                "velocity": 25,
                "duration": 0.0977273,
                "tempo": 120.0
            },
            {
                "start_time": 8.3704545,
                "end_time": 8.4681818,
                "pitch": 74,
                "velocity": 25,
                "duration": 0.0977273,
                "tempo": 120.0
            },
            {
                "start_time": 8.5022727,
                "end_time": 8.6,
                "pitch": 74,
                "velocity": 25,
                "duration": 0.0977273,
                "tempo": 120.0
            },
            {
                "start_time": 8.6159091,
                "end_time": 8.7159091,
                "pitch": 74,
                "velocity": 25,
                "duration": 0.1,
                "tempo": 120.0
            },
            {
                "start_time": 8.7318182,
                "end_time": 8.9477273,
                "pitch": 73,
                "velocity": 25,
                "duration": 0.2159091,
                "tempo": 120.0
            },
            {
                "start_time": 8.9659091,
                "end_time": 9.2045455,
                "pitch": 71,
                "velocity": 25,
                "duration": 0.2386364,
                "tempo": 120.0
            },
            {
                "start_time": 9.2227273,
                "end_time": 9.325,
                "pitch": 71,
                "velocity": 25,
                "duration": 0.1022727,
                "tempo": 120.0
            },
            {
                "start_time": 9.3409091,
                "end_time": 9.4431818,
                "pitch": 71,
                "velocity": 25,
                "duration": 0.1022727,
                "tempo": 120.0
            },
            {
                "start_time": 9.4590909,
                "end_time": 9.5590909,
                "pitch": 71,
                "velocity": 25,
                "duration": 0.1,
                "tempo": 120.0
            },
            {
                "start_time": 9.5772727,
                "end_time": 9.6772727,
                "pitch": 74,
                "velocity": 25,
                "duration": 0.1,
                "tempo": 120.0
            },
            {
                "start_time": 9.7113636,
                "end_time": 9.8113636,
                "pitch": 74,
                "velocity": 25,
                "duration": 0.1,
                "tempo": 120.0
            },
            {
                "start_time": 9.8295455,
                "end_time": 9.9295455,
                "pitch": 74,
                "velocity": 25,
                "duration": 0.1,
                "tempo": 120.0
            },
            {
                "start_time": 9.9454545,
                "end_time": 10.0477273,
                "pitch": 74,
                "velocity": 25,
                "duration": 0.1022727,
                "tempo": 120.0
            },
            {
                "start_time": 10.0636364,
                "end_time": 10.1636364,
                "pitch": 74,
                "velocity": 25,
                "duration": 0.1,
                "tempo": 120.0
            },
            {
                "start_time": 10.1818182,
                "end_time": 10.2818182,
                "pitch": 74,
                "velocity": 25,
                "duration": 0.1,
                "tempo": 120.0
            },
            {
                "start_time": 10.3159091,
                "end_time": 10.4181818,
                "pitch": 74,
                "velocity": 25,
                "duration": 0.1022727,
                "tempo": 120.0
            },
            {
                "start_time": 10.4363636,
                "end_time": 10.5386364,
                "pitch": 74,
                "velocity": 25,
                "duration": 0.1022727,
                "tempo": 120.0
            },
            {
                "start_time": 10.5545455,
                "end_time": 10.6568182,
                "pitch": 76,
                "velocity": 25,
                "duration": 0.1022727,
                "tempo": 120.0
            },
            {
                "start_time": 10.675,
                "end_time": 10.7772727,
                "pitch": 74,
                "velocity": 25,
                "duration": 0.1022727,
                "tempo": 120.0
            },
            {
                "start_time": 10.7931818,
                "end_time": 10.8909091,
                "pitch": 76,
                "velocity": 25,
                "duration": 0.0977273,
                "tempo": 120.0
            },
            {
                "start_time": 10.9227273,
                "end_time": 11.1295455,
                "pitch": 74,
                "velocity": 25,
                "duration": 0.2068182,
                "tempo": 120.0
            },
            {
                "start_time": 11.1454545,
                "end_time": 11.2431818,
                "pitch": 73,
                "velocity": 25,
                "duration": 0.0977273,
                "tempo": 120.0
            },
            {
                "start_time": 11.2590909,
                "end_time": 11.4795455,
                "pitch": 71,
                "velocity": 25,
                "duration": 0.2204545,
                "tempo": 120.0
            },
            {
                "start_time": 11.5136364,
                "end_time": 11.6159091,
                "pitch": 74,
                "velocity": 25,
                "duration": 0.1022727,
                "tempo": 120.0
            },
            {
                "start_time": 11.6340909,
                "end_time": 11.7363636,
                "pitch": 74,
                "velocity": 25,
                "duration": 0.1022727,
                "tempo": 120.0
            },
            {
                "start_time": 11.7545455,
                "end_time": 11.8545455,
                "pitch": 74,
                "velocity": 25,
                "duration": 0.1,
                "tempo": 120.0
            },
            {
                "start_time": 11.8704545,
                "end_time": 11.9727273,
                "pitch": 74,
                "velocity": 25,
                "duration": 0.1022727,
                "tempo": 120.0
            },
            {
                "start_time": 11.9886364,
                "end_time": 12.0886364,
                "pitch": 74,
                "velocity": 25,
                "duration": 0.1,
                "tempo": 120.0
            },
            {
                "start_time": 12.1227273,
                "end_time": 12.2227273,
                "pitch": 74,
                "velocity": 25,
                "duration": 0.1,
                "tempo": 120.0
            },
            {
                "start_time": 12.2409091,
                "end_time": 12.3409091,
                "pitch": 74,
                "velocity": 25,
                "duration": 0.1,
                "tempo": 120.0
            },
            {
                "start_time": 12.3590909,
                "end_time": 12.4590909,
                "pitch": 74,
                "velocity": 25,
                "duration": 0.1,
                "tempo": 120.0
            },
            {
                "start_time": 12.475,
                "end_time": 12.5772727,
                "pitch": 74,
                "velocity": 25,
                "duration": 0.1022727,
                "tempo": 120.0
            },
            {
                "start_time": 12.5931818,
                "end_time": 12.8295455,
                "pitch": 73,
                "velocity": 25,
                "duration": 0.2363636,
                "tempo": 120.0
            },
            {
                "start_time": 12.8477273,
                "end_time": 13.0681818,
                "pitch": 71,
                "velocity": 25,
                "duration": 0.2204545,
                "tempo": 120.0
            },
            {
                "start_time": 13.0863636,
                "end_time": 13.1886364,
                "pitch": 71,
                "velocity": 25,
                "duration": 0.1022727,
                "tempo": 120.0
            },
            {
                "start_time": 13.2045455,
                "end_time": 13.3022727,
                "pitch": 71,
                "velocity": 25,
                "duration": 0.0977273,
                "tempo": 120.0
            },
            {
                "start_time": 13.3340909,
                "end_time": 13.4295455,
                "pitch": 71,
                "velocity": 25,
                "duration": 0.0954545,
                "tempo": 120.0
            },
            {
                "start_time": 13.4454545,
                "end_time": 13.6545455,
                "pitch": 67,
                "velocity": 25,
                "duration": 0.2090909,
                "tempo": 120.0
            },
            {
                "start_time": 13.6704545,
                "end_time": 13.7727273,
                "pitch": 67,
                "velocity": 25,
                "duration": 0.1022727,
                "tempo": 120.0
            },
            {
                "start_time": 13.7886364,
                "end_time": 14.0295455,
                "pitch": 67,
                "velocity": 25,
                "duration": 0.2409091,
                "tempo": 120.0
            },
            {
                "start_time": 14.0454545,
                "end_time": 14.1477273,
                "pitch": 63,
                "velocity": 25,
                "duration": 0.1022727,
                "tempo": 120.0
            },
            {
                "start_time": 14.1659091,
                "end_time": 14.3522727,
                "pitch": 67,
                "velocity": 25,
                "duration": 0.1863636,
                "tempo": 120.0
            },
            {
                "start_time": 14.6613636,
                "end_time": 14.8727273,
                "pitch": 65,
                "velocity": 25,
                "duration": 0.2113636,
                "tempo": 120.0
            },
            {
                "start_time": 14.8909091,
                "end_time": 15.1022727,
                "pitch": 65,
                "velocity": 25,
                "duration": 0.2113636,
                "tempo": 120.0
            },
            {
                "start_time": 15.1363636,
                "end_time": 15.2386364,
                "pitch": 65,
                "velocity": 25,
                "duration": 0.1022727,
                "tempo": 120.0
            },
            {
                "start_time": 15.2545455,
                "end_time": 15.3568182,
                "pitch": 67,
                "velocity": 25,
                "duration": 0.1022727,
                "tempo": 120.0
            },
            {
                "start_time": 15.375,
                "end_time": 16.3,
                "pitch": 67,
                "velocity": 25,
                "duration": 0.925,
                "tempo": 120.0
            }
        ],
        "Oboe": [
            {
                "start_time": 0.0,
                "end_time": 0.0704545,
                "pitch": 59,
                "velocity": 25,
                "duration": 0.0704545,
                "tempo": 120.0
            },
            {
                "start_time": 0.0977273,
                "end_time": 0.1795455,
                "pitch": 59,
                "velocity": 25,
                "duration": 0.0818182,
                "tempo": 120.0
            },
            {
                "start_time": 0.1954545,
                "end_time": 0.2954545,
                "pitch": 52,
                "velocity": 25,
                "duration": 0.1,
                "tempo": 120.0
            },
            {
                "start_time": 0.3136364,
                "end_time": 0.4159091,
                "pitch": 57,
                "velocity": 25,
                "duration": 0.1022727,
                "tempo": 120.0
            },
            {
                "start_time": 0.4318182,
                "end_time": 0.5340909,
                "pitch": 59,
                "velocity": 25,
                "duration": 0.1022727,
                "tempo": 120.0
            },
            {
                "start_time": 0.5522727,
                "end_time": 0.6545455,
                "pitch": 52,
                "velocity": 25,
                "duration": 0.1022727,
                "tempo": 120.0
            },
            {
                "start_time": 0.6886364,
                "end_time": 0.7886364,
                "pitch": 57,
                "velocity": 25,
                "duration": 0.1,
                "tempo": 120.0
            },
            {
                "start_time": 0.8045455,
                "end_time": 0.9045455,
                "pitch": 59,
                "velocity": 25,
                "duration": 0.1,
                "tempo": 120.0
            },
            {
                "start_time": 0.9227273,
                "end_time": 1.0227273,
                "pitch": 59,
                "velocity": 25,
                "duration": 0.1,
                "tempo": 120.0
            },
            {
                "start_time": 1.0386364,
                "end_time": 1.1386364,
                "pitch": 59,
                "velocity": 25,
                "duration": 0.1,
                "tempo": 120.0
            },
            {
                "start_time": 1.1545455,
                "end_time": 1.2545455,
                "pitch": 57,
                "velocity": 25,
                "duration": 0.1,
                "tempo": 120.0
            },
            {
                "start_time": 1.2863636,
                "end_time": 1.3840909,
                "pitch": 52,
                "velocity": 25,
                "duration": 0.0977273,
                "tempo": 120.0
            },
            {
                "start_time": 1.4,
                "end_time": 1.5,
                "pitch": 59,
                "velocity": 25,
                "duration": 0.1,
                "tempo": 120.0
            },
            {
                "start_time": 1.5159091,
                "end_time": 1.6136364,
                "pitch": 57,
                "velocity": 25,
                "duration": 0.0977273,
                "tempo": 120.0
            },
            {
                "start_time": 1.6318182,
                "end_time": 1.7318182,
                "pitch": 52,
                "velocity": 25,
                "duration": 0.1,
                "tempo": 120.0
            },
            {
                "start_time": 1.7477273,
                "end_time": 1.8477273,
                "pitch": 59,
                "velocity": 25,
                "duration": 0.1,
                "tempo": 120.0
            },
            {
                "start_time": 1.8818182,
                "end_time": 1.9795455,
                "pitch": 59,
                "velocity": 25,
                "duration": 0.0977273,
                "tempo": 120.0
            },
            {
                "start_time": 1.9977273,
                "end_time": 2.0977273,
                "pitch": 59,
                "velocity": 25,
                "duration": 0.1,
                "tempo": 120.0
            },
            {
                "start_time": 2.1136364,
                "end_time": 2.2136364,
                "pitch": 52,
                "velocity": 25,
                "duration": 0.1,
                "tempo": 120.0
            },
            {
                "start_time": 2.2295455,
                "end_time": 2.3295455,
                "pitch": 57,
                "velocity": 25,
                "duration": 0.1,
                "tempo": 120.0
            },
            {
                "start_time": 2.3477273,
                "end_time": 2.4477273,
                "pitch": 59,
                "velocity": 25,
                "duration": 0.1,
                "tempo": 120.0
            },
            {
                "start_time": 2.4795455,
                "end_time": 2.5795455,
                "pitch": 57,
                "velocity": 25,
                "duration": 0.1,
                "tempo": 120.0
            },
            {
                "start_time": 2.5977273,
                "end_time": 2.7,
                "pitch": 59,
                "velocity": 25,
                "duration": 0.1022727,
                "tempo": 120.0
            },
            {
                "start_time": 2.7159091,
                "end_time": 2.8181818,
                "pitch": 59,
                "velocity": 25,
                "duration": 0.1022727,
                "tempo": 120.0
            },
            {
                "start_time": 2.8363636,
                "end_time": 2.9386364,
                "pitch": 64,
                "velocity": 25,
                "duration": 0.1022727,
                "tempo": 120.0
            },
            {
                "start_time": 2.9568182,
                "end_time": 3.0590909,
                "pitch": 64,
                "velocity": 25,
                "duration": 0.1022727,
                "tempo": 120.0
            },
            {
                "start_time": 3.0931818,
                "end_time": 3.1931818,
                "pitch": 64,
                "velocity": 25,
                "duration": 0.1,
                "tempo": 120.0
            },
            {
                "start_time": 3.2090909,
                "end_time": 3.425,
                "pitch": 66,
                "velocity": 25,
                "duration": 0.2159091,
                "tempo": 120.0
            },
            {
                "start_time": 3.4431818,
                "end_time": 3.5431818,
                "pitch": 66,
                "velocity": 25,
                "duration": 0.1,
                "tempo": 120.0
            },
            {
                "start_time": 3.5590909,
                "end_time": 3.6568182,
                "pitch": 66,
                "velocity": 25,
                "duration": 0.0977273,
                "tempo": 120.0
            },
            {
                "start_time": 3.6909091,
                "end_time": 3.7886364,
                "pitch": 66,
                "velocity": 25,
                "duration": 0.0977273,
                "tempo": 120.0
            },
            {
                "start_time": 3.8045455,
                "end_time": 3.9045455,
                "pitch": 59,
                "velocity": 25,
                "duration": 0.1,
                "tempo": 120.0
            },
            {
                "start_time": 3.9204545,
                "end_time": 4.0181818,
                "pitch": 59,
                "velocity": 25,
                "duration": 0.0977273,
                "tempo": 120.0
            },
            {
                "start_time": 4.0340909,
                "end_time": 4.1363636,
                "pitch": 52,
                "velocity": 25,
                "duration": 0.1022727,
                "tempo": 120.0
            },
            {
                "start_time": 4.1522727,
                "end_time": 4.2522727,
                "pitch": 57,
                "velocity": 25,
                "duration": 0.1,
                "tempo": 120.0
            },
            {
                "start_time": 4.2863636,
                "end_time": 4.3863636,
                "pitch": 59,
                "velocity": 25,
                "duration": 0.1,
                "tempo": 120.0
            },
            {
                "start_time": 4.4045455,
                "end_time": 4.5045455,
                "pitch": 52,
                "velocity": 25,
                "duration": 0.1,
                "tempo": 120.0
            },
            {
                "start_time": 4.5227273,
                "end_time": 4.6227273,
                "pitch": 57,
                "velocity": 25,
                "duration": 0.1,
                "tempo": 120.0
            },
            {
                "start_time": 4.6386364,
                "end_time": 4.7386364,
                "pitch": 59,
                "velocity": 25,
                "duration": 0.1,
                "tempo": 120.0
            },
            {
                "start_time": 4.7545455,
                "end_time": 4.8545455,
                "pitch": 59,
                "velocity": 25,
                "duration": 0.1,
                "tempo": 120.0
            },
            {
                "start_time": 4.8886364,
                "end_time": 4.9886364,
                "pitch": 59,
                "velocity": 25,
                "duration": 0.1,
                "tempo": 120.0
            },
            {
                "start_time": 5.0045455,
                "end_time": 5.1068182,
                "pitch": 57,
                "velocity": 25,
                "duration": 0.1022727,
                "tempo": 120.0
            },
            {
                "start_time": 5.1227273,
                "end_time": 5.2227273,
                "pitch": 52,
                "velocity": 25,
                "duration": 0.1,
                "tempo": 120.0
            },
            {
                "start_time": 5.2409091,
                "end_time": 5.3409091,
                "pitch": 59,
                "velocity": 25,
                "duration": 0.1,
                "tempo": 120.0
            },
            {
                "start_time": 5.3590909,
                "end_time": 5.4590909,
                "pitch": 57,
                "velocity": 25,
                "duration": 0.1,
                "tempo": 120.0
            },
            {
                "start_time": 5.4931818,
                "end_time": 5.5954545,
                "pitch": 52,
                "velocity": 25,
                "duration": 0.1022727,
                "tempo": 120.0
            },
            {
                "start_time": 5.6113636,
                "end_time": 5.7136364,
                "pitch": 59,
                "velocity": 25,
                "duration": 0.1022727,
                "tempo": 120.0
            },
            {
                "start_time": 5.7318182,
                "end_time": 5.8340909,
                "pitch": 59,
                "velocity": 25,
                "duration": 0.1022727,
                "tempo": 120.0
            },
            {
                "start_time": 5.85,
                "end_time": 5.9522727,
                "pitch": 59,
                "velocity": 25,
                "duration": 0.1022727,
                "tempo": 120.0
            },
            {
                "start_time": 5.9704545,
                "end_time": 6.0681818,
                "pitch": 52,
                "velocity": 25,
                "duration": 0.0977273,
                "tempo": 120.0
            },
            {
                "start_time": 6.1022727,
                "end_time": 6.2,
                "pitch": 57,
                "velocity": 25,
                "duration": 0.0977273,
                "tempo": 120.0
            },
            {
                "start_time": 6.2159091,
                "end_time": 6.3159091,
                "pitch": 59,
                "velocity": 25,
                "duration": 0.1,
                "tempo": 120.0
            },
            {
                "start_time": 6.3318182,
                "end_time": 6.4295455,
                "pitch": 57,
                "velocity": 25,
                "duration": 0.0977273,
                "tempo": 120.0
            },
            {
                "start_time": 6.4454545,
                "end_time": 6.5454545,
                "pitch": 59,
                "velocity": 25,
                "duration": 0.1,
                "tempo": 120.0
            },
            {
                "start_time": 6.5636364,
                "end_time": 6.6636364,
                "pitch": 59,
                "velocity": 25,
                "duration": 0.1,
                "tempo": 120.0
            },
            {
                "start_time": 6.6954545,
                "end_time": 6.7954545,
                "pitch": 62,
                "velocity": 25,
                "duration": 0.1,
                "tempo": 120.0
            },
            {
                "start_time": 6.8136364,
                "end_time": 6.9136364,
                "pitch": 62,
                "velocity": 25,
                "duration": 0.1,
                "tempo": 120.0
            },
            {
                "start_time": 6.9295455,
                "end_time": 7.0295455,
                "pitch": 62,
                "velocity": 25,
                "duration": 0.1,
                "tempo": 120.0
            },
            {
                "start_time": 7.0477273,
                "end_time": 7.2659091,
                "pitch": 66,
                "velocity": 25,
                "duration": 0.2181818,
                "tempo": 120.0
            },
            {
                "start_time": 7.3,
                "end_time": 7.4,
                "pitch": 66,
                "velocity": 25,
                "duration": 0.1,
                "tempo": 120.0
            },
            {
                "start_time": 7.4159091,
                "end_time": 7.5181818,
                "pitch": 66,
                "velocity": 25,
                "duration": 0.1022727,
                "tempo": 120.0
            },
            {
                "start_time": 7.5363636,
                "end_time": 7.6386364,
                "pitch": 66,
                "velocity": 25,
                "duration": 0.1022727,
                "tempo": 120.0
            }
        ],
        "Synth Bass 1": [
            {
                "start_time": 0.0,
                "end_time": 0.0136364,
                "pitch": 60,
                "velocity": 25,
                "duration": 0.0136364,
                "tempo": 120.0
            },
            {
                "start_time": 0.0272727,
                "end_time": 0.2090909,
                "pitch": 64,
                "velocity": 25,
                "duration": 0.1818182,
                "tempo": 120.0
            },
            {
                "start_time": 0.2272727,
                "end_time": 0.45,
                "pitch": 69,
                "velocity": 25,
                "duration": 0.2227273,
                "tempo": 120.0
            },
            {
                "start_time": 0.4840909,
                "end_time": 0.5863636,
                "pitch": 68,
                "velocity": 25,
                "duration": 0.1022727,
                "tempo": 120.0
            },
            {
                "start_time": 0.6022727,
                "end_time": 0.9386364,
                "pitch": 64,
                "velocity": 25,
                "duration": 0.3363636,
                "tempo": 120.0
            },
            {
                "start_time": 0.9545455,
                "end_time": 1.1886364,
                "pitch": 69,
                "velocity": 25,
                "duration": 0.2340909,
                "tempo": 120.0
            },
            {
                "start_time": 1.2045455,
                "end_time": 1.3022727,
                "pitch": 68,
                "velocity": 25,
                "duration": 0.0977273,
                "tempo": 120.0
            },
            {
                "start_time": 1.3181818,
                "end_time": 1.5318182,
                "pitch": 64,
                "velocity": 25,
                "duration": 0.2136364,
                "tempo": 120.0
            },
            {
                "start_time": 1.5477273,
                "end_time": 1.6477273,
                "pitch": 62,
                "velocity": 25,
                "duration": 0.1,
                "tempo": 120.0
            },
            {
                "start_time": 1.6818182,
                "end_time": 1.7818182,
                "pitch": 64,
                "velocity": 25,
                "duration": 0.1,
                "tempo": 120.0
            },
            {
                "start_time": 1.7977273,
                "end_time": 2.1295455,
                "pitch": 62,
                "velocity": 25,
                "duration": 0.3318182,
                "tempo": 120.0
            },
            {
                "start_time": 2.1477273,
                "end_time": 2.3795455,
                "pitch": 69,
                "velocity": 25,
                "duration": 0.2318182,
                "tempo": 120.0
            },
            {
                "start_time": 2.3977273,
                "end_time": 2.4977273,
                "pitch": 68,
                "velocity": 25,
                "duration": 0.1,
                "tempo": 120.0
            },
            {
                "start_time": 2.5136364,
                "end_time": 2.8522727,
                "pitch": 64,
                "velocity": 25,
                "duration": 0.3386364,
                "tempo": 120.0
            },
            {
                "start_time": 2.8863636,
                "end_time": 2.9909091,
                "pitch": 71,
                "velocity": 25,
                "duration": 0.1045455,
                "tempo": 120.0
            },
            {
                "start_time": 3.0068182,
                "end_time": 3.1090909,
                "pitch": 67,
                "velocity": 25,
                "duration": 0.1022727,
                "tempo": 120.0
            },
            {
                "start_time": 3.125,
                "end_time": 3.225,
                "pitch": 64,
                "velocity": 25,
                "duration": 0.1,
                "tempo": 120.0
            },
            {
                "start_time": 3.2431818,
                "end_time": 3.4590909,
                "pitch": 71,
                "velocity": 25,
                "duration": 0.2159091,
                "tempo": 120.0
            },
            {
                "start_time": 3.4931818,
                "end_time": 3.5909091,
                "pitch": 69,
                "velocity": 25,
                "duration": 0.0977273,
                "tempo": 120.0
            },
            {
                "start_time": 3.6090909,
                "end_time": 3.7568182,
                "pitch": 66,
                "velocity": 25,
                "duration": 0.1477273,
                "tempo": 120.0
            },
            {
                "start_time": 3.8386364,
                "end_time": 4.0522727,
                "pitch": 64,
                "velocity": 25,
                "duration": 0.2136364,
                "tempo": 120.0
            },
            {
                "start_time": 4.0840909,
                "end_time": 4.3045455,
                "pitch": 69,
                "velocity": 25,
                "duration": 0.2204545,
                "tempo": 120.0
            },
            {
                "start_time": 4.3204545,
                "end_time": 4.4204545,
                "pitch": 68,
                "velocity": 25,
                "duration": 0.1,
                "tempo": 120.0
            },
            {
                "start_time": 4.4386364,
                "end_time": 4.7886364,
                "pitch": 64,
                "velocity": 25,
                "duration": 0.35,
                "tempo": 120.0
            },
            {
                "start_time": 4.8045455,
                "end_time": 5.0227273,
                "pitch": 69,
                "velocity": 25,
                "duration": 0.2181818,
                "tempo": 120.0
            },
            {
                "start_time": 5.0386364,
                "end_time": 5.1386364,
                "pitch": 68,
                "velocity": 25,
                "duration": 0.1,
                "tempo": 120.0
            },
            {
                "start_time": 5.1568182,
                "end_time": 5.3909091,
                "pitch": 64,
                "velocity": 25,
                "duration": 0.2340909,
                "tempo": 120.0
            },
            {
                "start_time": 5.4090909,
                "end_time": 5.5090909,
                "pitch": 62,
                "velocity": 25,
                "duration": 0.1,
                "tempo": 120.0
            },
            {
                "start_time": 5.5272727,
                "end_time": 5.6295455,
                "pitch": 64,
                "velocity": 25,
                "duration": 0.1022727,
                "tempo": 120.0
            },
            {
                "start_time": 5.6454545,
                "end_time": 6.0045455,
                "pitch": 62,
                "velocity": 25,
                "duration": 0.3590909,
                "tempo": 120.0
            },
            {
                "start_time": 6.0204545,
                "end_time": 6.2340909,
                "pitch": 69,
                "velocity": 25,
                "duration": 0.2136364,
                "tempo": 120.0
            },
            {
                "start_time": 6.25,
                "end_time": 6.3477273,
                "pitch": 68,
                "velocity": 25,
                "duration": 0.0977273,
                "tempo": 120.0
            },
            {
                "start_time": 6.3636364,
                "end_time": 6.7136364,
                "pitch": 64,
                "velocity": 25,
                "duration": 0.35,
                "tempo": 120.0
            },
            {
                "start_time": 6.7295455,
                "end_time": 6.8295455,
                "pitch": 71,
                "velocity": 25,
                "duration": 0.1,
                "tempo": 120.0
            },
            {
                "start_time": 6.8454545,
                "end_time": 6.9454545,
                "pitch": 69,
                "velocity": 25,
                "duration": 0.1,
                "tempo": 120.0
            },
            {
                "start_time": 6.9636364,
                "end_time": 7.0636364,
                "pitch": 67,
                "velocity": 25,
                "duration": 0.1,
                "tempo": 120.0
            },
            {
                "start_time": 7.0977273,
                "end_time": 7.4340909,
                "pitch": 74,
                "velocity": 25,
                "duration": 0.3363636,
                "tempo": 120.0
            },
            {
                "start_time": 7.45,
                "end_time": 7.6386364,
                "pitch": 71,
                "velocity": 25,
                "duration": 0.1886364,
                "tempo": 120.0
            },
            {
                "start_time": 7.9454545,
                "end_time": 8.1568182,
                "pitch": 76,
                "velocity": 25,
                "duration": 0.2113636,
                "tempo": 120.0
            },
            {
                "start_time": 8.175,
                "end_time": 8.2727273,
                "pitch": 73,
                "velocity": 25,
                "duration": 0.0977273,
                "tempo": 120.0
            },
            {
                "start_time": 8.3045455,
                "end_time": 8.6340909,
                "pitch": 69,
                "velocity": 25,
                "duration": 0.3295455,
                "tempo": 120.0
            },
            {
                "start_time": 8.65,
                "end_time": 8.8636364,
                "pitch": 74,
                "velocity": 25,
                "duration": 0.2136364,
                "tempo": 120.0
            },
            {
                "start_time": 8.8977273,
                "end_time": 9.0,
                "pitch": 73,
                "velocity": 25,
                "duration": 0.1022727,
                "tempo": 120.0
            },
            {
                "start_time": 9.0181818,
                "end_time": 9.2386364,
                "pitch": 71,
                "velocity": 25,
                "duration": 0.2204545,
                "tempo": 120.0
            },
            {
                "start_time": 9.2568182,
                "end_time": 9.3590909,
                "pitch": 67,
                "velocity": 25,
                "duration": 0.1022727,
                "tempo": 120.0
            },
            {
                "start_time": 9.375,
                "end_time": 9.8454545,
                "pitch": 69,
                "velocity": 25,
                "duration": 0.4704545,
                "tempo": 120.0
            },
            {
                "start_time": 9.8613636,
                "end_time": 10.0818182,
                "pitch": 76,
                "velocity": 25,
                "duration": 0.2204545,
                "tempo": 120.0
            },
            {
                "start_time": 10.1136364,
                "end_time": 10.2159091,
                "pitch": 73,
                "velocity": 25,
                "duration": 0.1022727,
                "tempo": 120.0
            },
            {
                "start_time": 10.2318182,
                "end_time": 10.5727273,
                "pitch": 69,
                "velocity": 25,
                "duration": 0.3409091,
                "tempo": 120.0
            },
            {
                "start_time": 10.5886364,
                "end_time": 10.6909091,
                "pitch": 74,
                "velocity": 25,
                "duration": 0.1022727,
                "tempo": 120.0
            },
            {
                "start_time": 10.725,
                "end_time": 10.9386364,
                "pitch": 71,
                "velocity": 25,
                "duration": 0.2136364,
                "tempo": 120.0
            },
            {
                "start_time": 10.9545455,
                "end_time": 11.1613636,
                "pitch": 67,
                "velocity": 25,
                "duration": 0.2068182,
                "tempo": 120.0
            },
            {
                "start_time": 11.1772727,
                "end_time": 11.275,
                "pitch": 69,
                "velocity": 25,
                "duration": 0.0977273,
                "tempo": 120.0
            },
            {
                "start_time": 11.3090909,
                "end_time": 11.7704545,
                "pitch": 71,
                "velocity": 25,
                "duration": 0.4613636,
                "tempo": 120.0
            },
            {
                "start_time": 11.7863636,
                "end_time": 12.0227273,
                "pitch": 76,
                "velocity": 25,
                "duration": 0.2363636,
                "tempo": 120.0
            },
            {
                "start_time": 12.0386364,
                "end_time": 12.1409091,
                "pitch": 73,
                "velocity": 25,
                "duration": 0.1022727,
                "tempo": 120.0
            },
            {
                "start_time": 12.1568182,
                "end_time": 12.4931818,
                "pitch": 69,
                "velocity": 25,
                "duration": 0.3363636,
                "tempo": 120.0
            },
            {
                "start_time": 12.5272727,
                "end_time": 12.7454545,
                "pitch": 74,
                "velocity": 25,
                "duration": 0.2181818,
                "tempo": 120.0
            },
            {
                "start_time": 12.7613636,
                "end_time": 12.8636364,
                "pitch": 71,
                "velocity": 25,
                "duration": 0.1022727,
                "tempo": 120.0
            },
            {
                "start_time": 12.8818182,
                "end_time": 13.2386364,
                "pitch": 69,
                "velocity": 25,
                "duration": 0.3568182,
                "tempo": 120.0
            },
            {
                "start_time": 13.2545455,
                "end_time": 13.4613636,
                "pitch": 67,
                "velocity": 25,
                "duration": 0.2068182,
                "tempo": 120.0
            },
            {
                "start_time": 13.4772727,
                "end_time": 13.575,
                "pitch": 67,
                "velocity": 25,
                "duration": 0.0977273,
                "tempo": 120.0
            },
            {
                "start_time": 13.5909091,
                "end_time": 13.6863636,
                "pitch": 69,
                "velocity": 25,
                "duration": 0.0954545,
                "tempo": 120.0
            },
            {
                "start_time": 13.7204545,
                "end_time": 13.8227273,
                "pitch": 70,
                "velocity": 25,
                "duration": 0.1022727,
                "tempo": 120.0
            },
            {
                "start_time": 13.8409091,
                "end_time": 14.0636364,
                "pitch": 74,
                "velocity": 25,
                "duration": 0.2227273,
                "tempo": 120.0
            },
            {
                "start_time": 14.0795455,
                "end_time": 14.3022727,
                "pitch": 72,
                "velocity": 25,
                "duration": 0.2227273,
                "tempo": 120.0
            },
            {
                "start_time": 14.3363636,
                "end_time": 14.4386364,
                "pitch": 67,
                "velocity": 25,
                "duration": 0.1022727,
                "tempo": 120.0
            },
            {
                "start_time": 14.4545455,
                "end_time": 14.9068182,
                "pitch": 69,
                "velocity": 25,
                "duration": 0.4522727,
                "tempo": 120.0
            },
            {
                "start_time": 14.9386364,
                "end_time": 15.3909091,
                "pitch": 72,
                "velocity": 25,
                "duration": 0.4522727,
                "tempo": 120.0
            },
            {
                "start_time": 15.4090909,
                "end_time": 16.3522727,
                "pitch": 71,
                "velocity": 25,
                "duration": 0.9431818,
                "tempo": 120.0
            }
        ]
    }
}