{
    "mood": "happy",
    "instruments": {
        "Electric Piano 1": [
            {
                "start_time": 0.0272727,
                "end_time": 0.2068182,
                "pitch": 76,
                "velocity": 64,
                "duration": 0.1795455,
                "tempo": 120.0
            },
            {
                "start_time": 0.2204545,
                "end_time": 0.4068182,
                "pitch": 73,
                "velocity": 64,
                "duration": 0.1863636,
                "tempo": 120.0
            },
            {
                "start_time": 0.4409091,
                "end_time": 1.1454545,
                "pitch": 68,
                "velocity": 64,
                "duration": 0.7045455,
                "tempo": 120.0
            },
            {
                "start_time": 1.1613636,
                "end_time": 1.2613636,
                "pitch": 68,
                "velocity": 64,
                "duration": 0.1,
                "tempo": 120.0
            },
            {
                "start_time": 1.2772727,
                "end_time": 1.3772727,
                "pitch": 73,
                "velocity": 64,
                "duration": 0.1,
                "tempo": 120.0
            },
            {
                "start_time": 1.3931818,
                "end_time": 1.6204545,
                "pitch": 76,
                "velocity": 64,
                "duration": 0.2272727,
                "tempo": 120.0
            },
            {
                "start_time": 1.6545455,
                "end_time": 1.8795455,
                "pitch": 76,
                "velocity": 64,
                "duration": 0.225,
                "tempo": 120.0
            },
            {
                "start_time": 1.8954545,
                "end_time": 2.1136364,
                "pitch": 75,
                "velocity": 64,
                "duration": 0.2181818,
                "tempo": 120.0
            },
            {
                "start_time": 2.1295455,
                "end_time": 2.3613636,
                "pitch": 71,
                "velocity": 64,
                "duration": 0.2318182,
                "tempo": 120.0
            },
            {
                "start_time": 2.3772727,
                "end_time": 2.8204545,
                "pitch": 66,
                "velocity": 64,
                "duration": 0.4431818,
                "tempo": 120.0
            },
            {
                "start_time": 3.8090909,
                "end_time": 4.0318182,
                "pitch": 73,
                "velocity": 64,
                "duration": 0.2227273,
                "tempo": 120.0
            },
            {
                "start_time": 4.0659091,
                "end_time": 4.2886364,
                "pitch": 71,
                "velocity": 64,
                "duration": 0.2227273,
                "tempo": 120.0
            },
            {
                "start_time": 4.3045455,
                "end_time": 4.9931818,
                "pitch": 73,
                "velocity": 64,
                "duration": 0.6886364,
                "tempo": 120.0
            },
            {
                "start_time": 5.0090909,
                "end_time": 5.2204545,
                "pitch": 73,
                "velocity": 64,
                "duration": 0.2113636,
                "tempo": 120.0
            },
            {
                "start_time": 5.2522727,
                "end_time": 5.4704545,
                "pitch": 75,
                "velocity": 64,
                "duration": 0.2181818,
                "tempo": 120.0
            },
            {
                "start_time": 5.4886364,
                "end_time": 5.7068182,
                "pitch": 73,
                "velocity": 64,
                "duration": 0.2181818,
                "tempo": 120.0
            },
            {
                "start_time": 5.725,
                "end_time": 6.2022727,
                "pitch": 71,
                "velocity": 64,
                "duration": 0.4772727,
                "tempo": 120.0
            },
            {
                "start_time": 6.2181818,
                "end_time": 6.4340909,
                "pitch": 73,
                "velocity": 64,
                "duration": 0.2159091,
                "tempo": 120.0
            },
            {
                "start_time": 6.4681818,
                "end_time": 6.9136364,
                "pitch": 75,
                "velocity": 64,
                "duration": 0.4454545,
                "tempo": 120.0
            },
            {
                "start_time": 6.9295455,
                "end_time": 7.1613636,
                "pitch": 76,
                "velocity": 64,
                "duration": 0.2318182,
                "tempo": 120.0
            },
            {
                "start_time": 7.1772727,
                "end_time": 7.6386364,
                "pitch": 78,
                "velocity": 64,
                "duration": 0.4613636,
                "tempo": 120.0
            },
            {
                "start_time": 7.6727273,
                "end_time": 7.8954545,
                "pitch": 76,
                "velocity": 64,
                "duration": 0.2227273,
                "tempo": 120.0
            },
            {
                "start_time": 7.9136364,
                "end_time": 8.1340909,
                "pitch": 73,
                "velocity": 64,
                "duration": 0.2204545,
                "tempo": 120.0
            },
            {
                "start_time": 8.15,
                "end_time": 8.85,
                "pitch": 68,
                "velocity": 64,
                "duration": 0.7,
                "tempo": 120.0
            },
            {
                "start_time": 8.8840909,
                "end_time": 9.0977273,
                "pitch": 68,
                "velocity": 64,
                "duration": 0.2136364,
                "tempo": 120.0
            },
            {
                "start_time": 9.1136364,
                "end_time": 9.3363636,
                "pitch": 76,
                "velocity": 64,
                "duration": 0.2227273,
                "tempo": 120.0
            },
            {
                "start_time": 9.3545455,
                "end_time": 9.5909091,
                "pitch": 73,
                "velocity": 64,
                "duration": 0.2363636,
                "tempo": 120.0
            },
            {
                "start_time": 9.6068182,
                "end_time": 9.8204545,
                "pitch": 75,
                "velocity": 64,
                "duration": 0.2136364,
                "tempo": 120.0
            },
            {
                "start_time": 9.8363636,
                "end_time": 10.05,
                "pitch": 71,
                "velocity": 64,
                "duration": 0.2136364,
                "tempo": 120.0
            },
            {
                "start_time": 10.0840909,
                "end_time": 10.9477273,
                "pitch": 66,
                "velocity": 64,
                "duration": 0.8636364,
                "tempo": 120.0
            },
            {
                "start_time": 11.5272727,
                "end_time": 11.7477273,
                "pitch": 73,
                "velocity": 64,
                "duration": 0.2204545,
                "tempo": 120.0
            },
            {
                "start_time": 11.7659091,
                "end_time": 12.0022727,
                "pitch": 71,
                "velocity": 64,
                "duration": 0.2363636,
                "tempo": 120.0
            },
            {
                "start_time": 12.0204545,
                "end_time": 12.2318182,
                "pitch": 73,
                "velocity": 64,
                "duration": 0.2113636,
                "tempo": 120.0
            },
            {
                "start_time": 12.25,
                "end_time": 12.4636364,
                "pitch": 76,
                "velocity": 64,
                "duration": 0.2136364,
                "tempo": 120.0
            },
            {
                "start_time": 12.4954545,
                "end_time": 12.5977273,
                "pitch": 75,
                "velocity": 64,
                "duration": 0.1022727,
                "tempo": 120.0
            },
            {
                "start_time": 12.9681818,
                "end_time": 13.0522727,
                "pitch": 71,
                "velocity": 64,
                "duration": 0.0840909,
                "tempo": 120.0
            },
            {
                "start_time": 13.4613636,
                "end_time": 13.6795455,
                "pitch": 76,
                "velocity": 64,
                "duration": 0.2181818,
                "tempo": 120.0
            },
            {
                "start_time": 13.7136364,
                "end_time": 13.7636364,
                "pitch": 76,
                "velocity": 64,
                "duration": 0.05,
                "tempo": 120.0
            },
            {
                "start_time": 14.1227273,
                "end_time": 14.3977273,
                "pitch": 75,
                "velocity": 64,
                "duration": 0.275,
                "tempo": 120.0
            },
            {
                "start_time": 14.4136364,
                "end_time": 15.3318182,
                "pitch": 76,
                "velocity": 64,
                "duration": 0.9181818,
                "tempo": 120.0
            }
        ],
        "Acoustic Bass": [
            {
                "start_time": 0.0,
                "end_time": 0.1795455,
                "pitch": 40,
                "velocity": 64,
                "duration": 0.1795455,
                "tempo": 120.0
            },
            {
                "start_time": 0.1931818,
                "end_time": 0.375,
                "pitch": 40,
                "velocity": 64,
                "duration": 0.1818182,
                "tempo": 120.0
            },
            {
                "start_time": 0.3886364,
                "end_time": 0.9818182,
                "pitch": 40,
                "velocity": 64,
                "duration": 0.5931818,
                "tempo": 120.0
            },
            {
                "start_time": 0.9977273,
                "end_time": 1.0977273,
                "pitch": 40,
                "velocity": 64,
                "duration": 0.1,
                "tempo": 120.0
            },
            {
                "start_time": 1.1136364,
                "end_time": 1.3431818,
                "pitch": 40,
                "velocity": 64,
                "duration": 0.2295455,
                "tempo": 120.0
            },
            {
                "start_time": 1.3590909,
                "end_time": 1.5840909,
                "pitch": 40,
                "velocity": 64,
                "duration": 0.225,
                "tempo": 120.0
            },
            {
                "start_time": 1.6022727,
                "end_time": 1.8272727,
                "pitch": 40,
                "velocity": 64,
                "duration": 0.225,
                "tempo": 120.0
            },
            {
                "start_time": 1.8636364,
                "end_time": 2.0795455,
                "pitch": 47,
                "velocity": 64,
                "duration": 0.2159091,
                "tempo": 120.0
            },
            {
                "start_time": 2.0954545,
                "end_time": 2.3136364,
                "pitch": 47,
                "velocity": 64,
                "duration": 0.2181818,
                "tempo": 120.0
            },
            {
                "start_time": 2.3295455,
                "end_time": 2.9022727,
                "pitch": 47,
                "velocity": 64,
                "duration": 0.5727273,
                "tempo": 120.0
            },
            {
                "start_time": 2.9204545,
                "end_time": 3.0181818,
                "pitch": 47,
                "velocity": 64,
                "duration": 0.0977273,
                "tempo": 120.0
            },
            {
                "start_time": 3.05,
                "end_time": 3.2636364,
                "pitch": 47,
                "velocity": 64,
                "duration": 0.2136364,
                "tempo": 120.0
            },
            {
                "start_time": 3.2818182,
                "end_time": 3.5022727,
                "pitch": 45,
                "velocity": 64,
                "duration": 0.2204545,
                "tempo": 120.0
            },
            {
                "start_time": 3.5204545,
                "end_time": 3.7590909,
                "pitch": 47,
                "velocity": 64,
                "duration": 0.2386364,
                "tempo": 120.0
            },
            {
                "start_time": 3.775,
                "end_time": 3.9977273,
                "pitch": 49,
                "velocity": 64,
                "duration": 0.2227273,
                "tempo": 120.0
            },
            {
                "start_time": 4.0159091,
                "end_time": 4.2363636,
                "pitch": 49,
                "velocity": 64,
                "duration": 0.2204545,
                "tempo": 120.0
            },
            {
                "start_time": 4.2704545,
                "end_time": 4.9613636,
                "pitch": 49,
                "velocity": 64,
                "duration": 0.6909091,
                "tempo": 120.0
            },
            {
                "start_time": 4.9772727,
                "end_time": 5.1863636,
                "pitch": 49,
                "velocity": 64,
                "duration": 0.2090909,
                "tempo": 120.0
            },
            {
                "start_time": 5.2022727,
                "end_time": 5.4204545,
                "pitch": 51,
                "velocity": 64,
                "duration": 0.2181818,
                "tempo": 120.0
            },
            {
                "start_time": 5.4545455,
                "end_time": 5.6727273,
                "pitch": 49,
                "velocity": 64,
                "duration": 0.2181818,
                "tempo": 120.0
            },
            {
                "start_time": 5.6909091,
                "end_time": 6.1681818,
                "pitch": 47,
                "velocity": 64,
                "duration": 0.4772727,
                "tempo": 120.0
            },
            {
                "start_time": 6.1840909,
                "end_time": 6.4022727,
                "pitch": 47,
                "velocity": 64,
                "duration": 0.2181818,
                "tempo": 120.0
            },
            {
                "start_time": 6.4181818,
                "end_time": 6.8818182,
                "pitch": 47,
                "velocity": 64,
                "duration": 0.4636364,
                "tempo": 120.0
            },
            {
                "start_time": 6.8977273,
                "end_time": 7.1113636,
                "pitch": 47,
                "velocity": 64,
                "duration": 0.2136364,
                "tempo": 120.0
            },
            {
                "start_time": 7.1272727,
                "end_time": 7.6045455,
                "pitch": 47,
                "velocity": 64,
                "duration": 0.4772727,
                "tempo": 120.0
            },
            {
                "start_time": 7.6227273,
                "end_time": 7.8431818,
                "pitch": 40,
                "velocity": 64,
                "duration": 0.2204545,
                "tempo": 120.0
            },
            {
                "start_time": 7.8795455,
                "end_time": 8.1,
                "pitch": 40,
                "velocity": 64,
                "duration": 0.2204545,
                "tempo": 120.0
            },
            {
                "start_time": 8.1181818,
                "end_time": 8.7022727,
                "pitch": 40,
                "velocity": 64,
                "duration": 0.5840909,
                "tempo": 120.0
            },
            {
                "start_time": 8.7181818,
                "end_time": 8.8181818,
                "pitch": 40,
                "velocity": 64,
                "duration": 0.1,
                "tempo": 120.0
            },
            {
                "start_time": 8.8340909,
                "end_time": 9.0477273,
                "pitch": 40,
                "velocity": 64,
                "duration": 0.2136364,
                "tempo": 120.0
            },
            {
                "start_time": 9.0795455,
                "end_time": 9.3022727,
                "pitch": 40,
                "velocity": 64,
                "duration": 0.2227273,
                "tempo": 120.0
            },
            {
                "start_time": 9.3204545,
                "end_time": 9.5409091,
                "pitch": 40,
                "velocity": 64,
                "duration": 0.2204545,
                "tempo": 120.0
            },
            {
                "start_time": 9.5590909,
                "end_time": 9.7886364,
                "pitch": 47,
                "velocity": 64,
                "duration": 0.2295455,
                "tempo": 120.0
            },
            {
                "start_time": 9.8045455,
                "end_time": 10.0181818,
                "pitch": 47,
                "velocity": 64,
                "duration": 0.2136364,
                "tempo": 120.0
            },
            {
                "start_time": 10.0340909,
                "end_time": 10.6181818,
                "pitch": 47,
                "velocity": 64,
                "duration": 0.5840909,
                "tempo": 120.0
            },
            {
                "start_time": 10.6363636,
                "end_time": 10.7340909,
                "pitch": 47,
                "velocity": 64,
                "duration": 0.0977273,
                "tempo": 120.0
            },
            {
                "start_time": 10.75,
                "end_time": 10.9795455,
                "pitch": 47,
                "velocity": 64,
                "duration": 0.2295455,
                "tempo": 120.0
            },
            {
                "start_time": 10.9977273,
                "end_time": 11.2181818,
                "pitch": 45,
                "velocity": 64,
                "duration": 0.2204545,
                "tempo": 120.0
            },
            {
                "start_time": 11.2363636,
                "end_time": 11.4590909,
                "pitch": 47,
                "velocity": 64,
                "duration": 0.2227273,
                "tempo": 120.0
            },
            {
                "start_time": 11.4931818,
                "end_time": 11.7136364,
                "pitch": 49,
                "velocity": 64,
                "duration": 0.2204545,
                "tempo": 120.0
            },
            {
                "start_time": 11.7318182,
                "end_time": 11.9522727,
                "pitch": 49,
                "velocity": 64,
                "duration": 0.2204545,
                "tempo": 120.0
            },
            {
                "start_time": 11.9704545,
                "end_time": 12.2,
                "pitch": 49,
                "velocity": 64,
                "duration": 0.2295455,
                "tempo": 120.0
            },
            {
                "start_time": 12.2159091,
                "end_time": 12.4295455,
                "pitch": 49,
                "velocity": 64,
                "duration": 0.2136364,
                "tempo": 120.0
            },
            {
                "start_time": 12.4454545,
                "end_time": 12.9159091,
                "pitch": 47,
                "velocity": 64,
                "duration": 0.4704545,
                "tempo": 120.0
            },
            {
                "start_time": 12.9340909,
                "end_time": 13.4113636,
                "pitch": 47,
                "velocity": 64,
                "duration": 0.4772727,
                "tempo": 120.0
            },
            {
                "start_time": 13.4272727,
                "end_time": 13.6477273,
                "pitch": 40,
                "velocity": 64,
                "duration": 0.2204545,
                "tempo": 120.0
            },
            {
                "start_time": 13.6636364,
                "end_time": 14.0113636,
                "pitch": 40,
                "velocity": 64,
                "duration": 0.3477273,
                "tempo": 120.0
            },
            {
                "start_time": 14.0272727,
                "end_time": 14.1227273,
                "pitch": 40,
                "velocity": 64,
                "duration": 0.0954545,
                "tempo": 120.0
            },
            {
                "start_time": 14.1386364,
                "end_time": 14.3477273,
                "pitch": 40,
                "velocity": 64,
                "duration": 0.2090909,
                "tempo": 120.0
            },
            {
                "start_time": 14.3636364,
                "end_time": 15.3318182,
                "pitch": 40,
                "velocity": 64,
                "duration": 0.9681818,
                "tempo": 120.0
            }
        ],
        "Vibraphone": [
            {
                "start_time": 0.0136364,
                "end_time": 0.1795455,
                "pitch": 68,
                "velocity": 64,
                "duration": 0.1659091,
                "tempo": 120.0
            },
            {
                "start_time": 0.1931818,
                "end_time": 0.375,
                "pitch": 68,
                "velocity": 64,
                "duration": 0.1818182,
                "tempo": 120.0
            },
            {
                "start_time": 0.3886364,
                "end_time": 1.1454545,
                "pitch": 68,
                "velocity": 64,
                "duration": 0.7568182,
                "tempo": 120.0
            },
            {
                "start_time": 1.8636364,
                "end_time": 2.0795455,
                "pitch": 66,
                "velocity": 64,
                "duration": 0.2159091,
                "tempo": 120.0
            },
            {
                "start_time": 2.0954545,
                "end_time": 2.3136364,
                "pitch": 66,
                "velocity": 64,
                "duration": 0.2181818,
                "tempo": 120.0
            },
            {
                "start_time": 2.3295455,
                "end_time": 3.5204545,
                "pitch": 66,
                "velocity": 64,
                "duration": 1.1909091,
                "tempo": 120.0
            },
            {
                "start_time": 3.775,
                "end_time": 3.9977273,
                "pitch": 64,
                "velocity": 64,
                "duration": 0.2227273,
                "tempo": 120.0
            },
            {
                "start_time": 4.0159091,
                "end_time": 4.2363636,
                "pitch": 64,
                "velocity": 64,
                "duration": 0.2204545,
                "tempo": 120.0
            },
            {
                "start_time": 4.2704545,
                "end_time": 5.4045455,
                "pitch": 64,
                "velocity": 64,
                "duration": 1.1340909,
                "tempo": 120.0
            },
            {
                "start_time": 5.6909091,
                "end_time": 6.1681818,
                "pitch": 66,
                "velocity": 64,
                "duration": 0.4772727,
                "tempo": 120.0
            },
            {
                "start_time": 6.1840909,
                "end_time": 6.4022727,
                "pitch": 66,
                "velocity": 64,
                "duration": 0.2181818,
                "tempo": 120.0
            },
            {
                "start_time": 6.4181818,
                "end_time": 6.8818182,
                "pitch": 66,
                "velocity": 64,
                "duration": 0.4636364,
                "tempo": 120.0
            },
            {
                "start_time": 6.8977273,
                "end_time": 7.1113636,
                "pitch": 66,
                "velocity": 64,
                "duration": 0.2136364,
                "tempo": 120.0
            },
            {
                "start_time": 7.1272727,
                "end_time": 7.6045455,
                "pitch": 66,
                "velocity": 64,
                "duration": 0.4772727,
                "tempo": 120.0
            },
            {
                "start_time": 7.6227273,
                "end_time": 7.8431818,
                "pitch": 68,
                "velocity": 64,
                "duration": 0.2204545,
                "tempo": 120.0
            },
            {
                "start_time": 7.8795455,
                "end_time": 8.1,
                "pitch": 68,
                "velocity": 64,
                "duration": 0.2204545,
                "tempo": 120.0
            },
            {
                "start_time": 8.1181818,
                "end_time": 9.3022727,
                "pitch": 68,
                "velocity": 64,
                "duration": 1.1840909,
                "tempo": 120.0
            },
            {
                "start_time": 9.5590909,
                "end_time": 9.7886364,
                "pitch": 66,
                "velocity": 64,
                "duration": 0.2295455,
                "tempo": 120.0
            },
            {
                "start_time": 9.8045455,
                "end_time": 10.0181818,
                "pitch": 66,
                "velocity": 64,
                "duration": 0.2136364,
                "tempo": 120.0
            },
            {
                "start_time": 10.0340909,
                "end_time": 11.2522727,
                "pitch": 66,
                "velocity": 64,
                "duration": 1.2181818,
                "tempo": 120.0
            },
            {
                "start_time": 11.4931818,
                "end_time": 11.7136364,
                "pitch": 64,
                "velocity": 64,
                "duration": 0.2204545,
                "tempo": 120.0
            },
            {
                "start_time": 11.7318182,
                "end_time": 11.9522727,
                "pitch": 64,
                "velocity": 64,
                "duration": 0.2204545,
                "tempo": 120.0
            },
            {
                "start_time": 11.9704545,
                "end_time": 12.2,
                "pitch": 64,
                "velocity": 64,
                "duration": 0.2295455,
                "tempo": 120.0
            },
            {
                "start_time": 12.2159091,
                "end_time": 12.4295455,
                "pitch": 64,
                "velocity": 64,
                "duration": 0.2136364,
                "tempo": 120.0
            },
            {
                "start_time": 12.4454545,
                "end_time": 12.9159091,
                "pitch": 66,
                "velocity": 64,
                "duration": 0.4704545,
                "tempo": 120.0
            },
            {
                "start_time": 12.9340909,
                "end_time": 13.4113636,
                "pitch": 66,
                "velocity": 64,
                "duration": 0.4772727,
                "tempo": 120.0
            },
            {
                "start_time": 13.4272727,
                "end_time": 13.6477273,
                "pitch": 68,
                "velocity": 64,
                "duration": 0.2204545,
                "tempo": 120.0
            },
            {
                "start_time": 13.6636364,
                "end_time": 13.8659091,
                "pitch": 68,
                "velocity": 64,
                "duration": 0.2022727,
                "tempo": 120.0
            },
            {
                "start_time": 14.1386364,
                "end_time": 14.3477273,
                "pitch": 68,
                "velocity": 64,
                "duration": 0.2090909,
                "tempo": 120.0
            },
            {
                "start_time": 14.3636364,
                "end_time": 14.3795455,
                "pitch": 68,
                "velocity": 64,
                "duration": 0.0159091,
                "tempo": 120.0
            },
            {
                "start_time": 14.3977273,
                "end_time": 15.3318182,
                "pitch": 68,
                "velocity": 64,
                "duration": 0.9340909,
                "tempo": 120.0
            }
        ]
    }
}