{
    "mood": "happy",
    "instruments": {
        "Trumpet": [
            {
                "start_time": 0.0,
                "end_time": 0.1659091,
                "pitch": 59,
                "velocity": 64,
                "duration": 0.1659091,
                "tempo": 120.0
            },
            {
                "start_time": 0.1840909,
                "end_time": 0.3659091,
                "pitch": 61,
                "velocity": 64,
                "duration": 0.1818182,
                "tempo": 120.0
            },
            {
                "start_time": 0.3840909,
                "end_time": 0.5659091,
                "pitch": 62,
                "velocity": 64,
                "duration": 0.1818182,
                "tempo": 120.0
            },
            {
                "start_time": 0.5840909,
                "end_time": 0.7659091,
                "pitch": 59,
                "velocity": 64,
                "duration": 0.1818182,
                "tempo": 120.0
            },
            {
                "start_time": 0.7840909,
                "end_time": 0.9659091,
                "pitch": 61,
                "velocity": 64,
                "duration": 0.1818182,
                "tempo": 120.0
            },
            {
                "start_time": 0.9840909,
                "end_time": 1.1704545,
                "pitch": 62,
                "velocity": 64,
                "duration": 0.1863636,
                "tempo": 120.0
            },
            {
                "start_time": 1.1886364,
                "end_time": 1.3772727,
                "pitch": 66,
                "velocity": 64,
                "duration": 0.1886364,
                "tempo": 120.0
            },
            {
                "start_time": 1.3931818,
                "end_time": 1.5772727,
                "pitch": 66,
                "velocity": 64,
                "duration": 0.1840909,
                "tempo": 120.0
            },
            {
                "start_time": 1.5931818,
                "end_time": 1.7772727,
                "pitch": 59,
                "velocity": 64,
                "duration": 0.1840909,
                "tempo": 120.0
            },
            {
                "start_time": 1.7931818,
                "end_time": 1.9795455,
                "pitch": 61,
                "velocity": 64,
                "duration": 0.1863636,
                "tempo": 120.0
            },
            {
                "start_time": 1.9954545,
                "end_time": 2.1795455,
                "pitch": 62,
                "velocity": 64,
                "duration": 0.1840909,
                "tempo": 120.0
            },
            {
                "start_time": 2.1977273,
                "end_time": 2.3772727,
                "pitch": 59,
                "velocity": 64,
                "duration": 0.1795455,
                "tempo": 120.0
            },
            {
                "start_time": 2.3931818,
                "end_time": 2.5727273,
                "pitch": 61,
                "velocity": 64,
                "duration": 0.1795455,
                "tempo": 120.0
            },
            {
                "start_time": 2.5886364,
                "end_time": 2.7772727,
                "pitch": 62,
                "velocity": 64,
                "duration": 0.1886364,
                "tempo": 120.0
            },
            {
                "start_time": 2.7931818,
                "end_time": 2.9818182,
                "pitch": 66,
                "velocity": 64,
                "duration": 0.1886364,
                "tempo": 120.0
            },
            {
                "start_time": 2.9977273,
                "end_time": 3.1727273,
                "pitch": 66,
                "velocity": 64,
                "duration": 0.175,
                "tempo": 120.0
            },
            {
                "start_time": 3.1886364,
                "end_time": 3.5659091,
                "pitch": 69,
                "velocity": 64,
                "duration": 0.3772727,
                "tempo": 120.0
            },
            {
                "start_time": 3.5818182,
                "end_time": 3.9659091,
                "pitch": 71,
                "velocity": 64,
                "duration": 0.3840909,
                "tempo": 120.0
            },
            {
                "start_time": 3.9818182,
                "end_time": 4.775,
                "pitch": 73,
                "velocity": 64,
                "duration": 0.7931818,
                "tempo": 120.0
            }
        ],
        "Electric Guitar (clean)": [
            {
                "start_time": 0.0,
                "end_time": 0.1659091,
                "pitch": 43,
                "velocity": 51,
                "duration": 0.1659091,
                "tempo": 120.0
            },
            {
                "start_time": 0.1840909,
                "end_time": 0.3659091,
                "pitch": 42,
                "velocity": 51,
                "duration": 0.1818182,
                "tempo": 120.0
            },
            {
                "start_time": 0.3840909,
                "end_time": 0.5659091,
                "pitch": 40,
                "velocity": 51,
                "duration": 0.1818182,
                "tempo": 120.0
            },
            {
                "start_time": 0.5840909,
                "end_time": 0.7659091,
                "pitch": 43,
                "velocity": 51,
                "duration": 0.1818182,
                "tempo": 120.0
            },
            {
                "start_time": 0.7840909,
                "end_time": 0.9659091,
                "pitch": 42,
                "velocity": 51,
                "duration": 0.1818182,
                "tempo": 120.0
            },
            {
                "start_time": 0.9840909,
                "end_time": 1.1704545,
                "pitch": 40,
                "velocity": 51,
                "duration": 0.1863636,
                "tempo": 120.0
            },
            {
                "start_time": 1.1886364,
                "end_time": 1.3772727,
                "pitch": 38,
                "velocity": 51,
                "duration": 0.1886364,
                "tempo": 120.0
            },
            {
                "start_time": 1.3931818,
                "end_time": 1.5772727,
                "pitch": 38,
                "velocity": 51,
                "duration": 0.1840909,
                "tempo": 120.0
            },
            {
                "start_time": 1.5931818,
                "end_time": 1.7772727,
                "pitch": 43,
                "velocity": 51,
                "duration": 0.1840909,
                "tempo": 120.0
            },
            {
                "start_time": 1.7931818,
                "end_time": 1.9795455,
                "pitch": 42,
                "velocity": 51,
                "duration": 0.1863636,
                "tempo": 120.0
            },
            {
                "start_time": 1.9954545,
                "end_time": 2.1795455,
                "pitch": 40,
                "velocity": 51,
                "duration": 0.1840909,
                "tempo": 120.0
            },
            {
                "start_time": 2.1977273,
                "end_time": 2.3772727,
                "pitch": 43,
                "velocity": 51,
                "duration": 0.1795455,
                "tempo": 120.0
            },
            {
                "start_time": 2.3931818,
                "end_time": 2.5727273,
                "pitch": 42,
                "velocity": 51,
                "duration": 0.1795455,
                "tempo": 120.0
            },
            {
                "start_time": 2.5886364,
                "end_time": 2.7772727,
                "pitch": 40,
                "velocity": 51,
                "duration": 0.1886364,
                "tempo": 120.0
            },
            {
                "start_time": 2.7931818,
                "end_time": 2.9818182,
                "pitch": 45,
                "velocity": 51,
                "duration": 0.1886364,
                "tempo": 120.0
            },
            {
                "start_time": 2.9977273,
                "end_time": 3.1727273,
                "pitch": 38,
                "velocity": 51,
                "duration": 0.175,
                "tempo": 120.0
            },
            {
                "start_time": 3.1886364,
                "end_time": 3.3659091,
                "pitch": 50,
                "velocity": 51,
                "duration": 0.1772727,
                "tempo": 120.0
            },
            {
                "start_time": 3.3818182,
                "end_time": 3.5659091,
                "pitch": 45,
                "velocity": 51,
                "duration": 0.1840909,
                "tempo": 120.0
            },
            {
                "start_time": 3.5818182,
                "end_time": 3.7659091,
                "pitch": 40,
                "velocity": 51,
                "duration": 0.1840909,
                "tempo": 120.0
            },
            {
                "start_time": 3.7818182,
                "end_time": 3.9659091,
                "pitch": 47,
                "velocity": 51,
                "duration": 0.1840909,
                "tempo": 120.0
            },
            {
                "start_time": 3.9818182,
                "end_time": 4.1659091,
                "pitch": 42,
                "velocity": 51,
                "duration": 0.1840909,
                "tempo": 120.0
            },
            {
                "start_time": 4.1818182,
                "end_time": 4.3659091,
                "pitch": 37,
                "velocity": 51,
                "duration": 0.1840909,
                "tempo": 120.0
            },
            {
                "start_time": 4.3818182,
                "end_time": 4.5659091,
                "pitch": 34,
                "velocity": 51,
                "duration": 0.1840909,
                "tempo": 120.0
            },
            {
                "start_time": 4.5818182,
                "end_time": 4.775,
                "pitch": 30,
                "velocity": 51,
                "duration": 0.1931818,
                "tempo": 120.0
            }
        ],
        "Acoustic Bass": [
            {
                "start_time": 0.0,
                "end_time": 0.1659091,
                "pitch": 55,
                "velocity": 40,
                "duration": 0.1659091,
                "tempo": 120.0
            },
            {
                "start_time": 0.1840909,
                "end_time": 0.3659091,
                "pitch": 57,
                "velocity": 40,
                "duration": 0.1818182,
                "tempo": 120.0
            },
            {
                "start_time": 0.3840909,
                "end_time": 0.5659091,
                "pitch": 59,
                "velocity": 40,
                "duration": 0.1818182,
                "tempo": 120.0
            },
            {
                "start_time": 0.5840909,
                "end_time": 0.7659091,
                "pitch": 55,
                "velocity": 40,
                "duration": 0.1818182,
                "tempo": 120.0
            },
            {
                "start_time": 0.7840909,
                "end_time": 0.9659091,
                "pitch": 57,
                "velocity": 40,
                "duration": 0.1818182,
                "tempo": 120.0
            },
            {
                "start_time": 0.9840909,
                "end_time": 1.1704545,
                "pitch": 59,
                "velocity": 40,
                "duration": 0.1863636,
                "tempo": 120.0
            },
            {
                "start_time": 1.1886364,
                "end_time": 1.3772727,
                "pitch": 62,
                "velocity": 40,
                "duration": 0.1886364,
                "tempo": 120.0
            },
            {
                "start_time": 1.3931818,
                "end_time": 1.5772727,
                "pitch": 62,
                "velocity": 40,
                "duration": 0.1840909,
                "tempo": 120.0
            },
            {
                "start_time": 1.5931818,
                "end_time": 1.7772727,
                "pitch": 55,
                "velocity": 40,
                "duration": 0.1840909,
                "tempo": 120.0
            },
            {
                "start_time": 1.7931818,
                "end_time": 1.9795455,
                "pitch": 57,
                "velocity": 40,
                "duration": 0.1863636,
                "tempo": 120.0
            },
            {
                "start_time": 1.9954545,
                "end_time": 2.1795455,
                "pitch": 59,
                "velocity": 40,
                "duration": 0.1840909,
                "tempo": 120.0
            },
            {
                "start_time": 2.1977273,
                "end_time": 2.3772727,
                "pitch": 55,
                "velocity": 40,
                "duration": 0.1795455,
                "tempo": 120.0
            },
            {
                "start_time": 2.3931818,
                "end_time": 2.5727273,
                "pitch": 57,
                "velocity": 40,
                "duration": 0.1795455,
                "tempo": 120.0
            },
            {
                "start_time": 2.5886364,
                "end_time": 2.7772727,
                "pitch": 59,
                "velocity": 40,
                "duration": 0.1886364,
                "tempo": 120.0
            },
            {
                "start_time": 2.7931818,
                "end_time": 2.9818182,
                "pitch": 62,
                "velocity": 40,
                "duration": 0.1886364,
                "tempo": 120.0
            },
            {
                "start_time": 2.9977273,
                "end_time": 3.1727273,
                "pitch": 62,
                "velocity": 40,
                "duration": 0.175,
                "tempo": 120.0
            },
            {
                "start_time": 3.1886364,
                "end_time": 3.5659091,
                "pitch": 66,
                "velocity": 40,
                "duration": 0.3772727,
                "tempo": 120.0
            },
            {
                "start_time": 3.5818182,
                "end_time": 3.9659091,
                "pitch": 68,
                "velocity": 40,
                "duration": 0.3840909,
                "tempo": 120.0
            },
            {
                "start_time": 3.9818182,
                "end_time": 4.775,
                "pitch": 70,
                "velocity": 40,
                "duration": 0.7931818,
                "tempo": 120.0
            }
        ]
    }
}