{
    "mood": "happy",
    "instruments": {
        "Synth Bass 1": [
            {
                "start_time": 0.4159091,
                "end_time": 0.4318182,
                "pitch": 57,
                "velocity": 4,
                "duration": 0.0159091,
                "tempo": 120.0
            },
            {
                "start_time": 0.6931818,
                "end_time": 0.7272727,
                "pitch": 69,
                "velocity": 64,
                "duration": 0.0340909,
                "tempo": 120.0
            },
            {
                "start_time": 0.8318182,
                "end_time": 0.8477273,
                "pitch": 69,
                "velocity": 64,
                "duration": 0.0159091,
                "tempo": 120.0
            },
            {
                "start_time": 0.9704545,
                "end_time": 0.9863636,
                "pitch": 57,
                "velocity": 64,
                "duration": 0.0159091,
                "tempo": 120.0
            },
            {
                "start_time": 1.2363636,
                "end_time": 1.2522727,
                "pitch": 69,
                "velocity": 64,
                "duration": 0.0159091,
                "tempo": 120.0
            },
            {
                "start_time": 1.3704545,
                "end_time": 1.3863636,
                "pitch": 69,
                "velocity": 64,
                "duration": 0.0159091,
                "tempo": 120.0
            },
            {
                "start_time": 1.5045455,
                "end_time": 1.5386364,
                "pitch": 57,
                "velocity": 64,
                "duration": 0.0340909,
                "tempo": 120.0
            },
            {
                "start_time": 1.6409091,
                "end_time": 1.6568182,
                "pitch": 57,
                "velocity": 64,
                "duration": 0.0159091,
                "tempo": 120.0
            },
            {
                "start_time": 1.775,
                "end_time": 1.7931818,
                "pitch": 69,
                "velocity": 64,
                "duration": 0.0181818,
                "tempo": 120.0
            },
            {
                "start_time": 2.0477273,
                "end_time": 2.0636364,
                "pitch": 57,
                "velocity": 64,
                "duration": 0.0159091,
                "tempo": 120.0
            },
            {
                "start_time": 2.3159091,
                "end_time": 2.3477273,
                "pitch": 69,
                "velocity": 64,
                "duration": 0.0318182,
                "tempo": 120.0
            },
            {
                "start_time": 2.4477273,
                "end_time": 2.4659091,
                "pitch": 69,
                "velocity": 64,
                "duration": 0.0181818,
                "tempo": 120.0
            },
            {
                "start_time": 2.5818182,
                "end_time": 2.6,
                "pitch": 52,
                "velocity": 64,
                "duration": 0.0181818,
                "tempo": 120.0
            },
            {
                "start_time": 2.85,
                "end_time": 2.8659091,
                "pitch": 64,
                "velocity": 64,
                "duration": 0.0159091,
                "tempo": 120.0
            },
            {
                "start_time": 2.9840909,
                "end_time": 3.0,
                "pitch": 64,
                "velocity": 64,
                "duration": 0.0159091,
                "tempo": 120.0
            },
            {
                "start_time": 3.1159091,
                "end_time": 3.15,
                "pitch": 52,
                "velocity": 64,
                "duration": 0.0340909,
                "tempo": 120.0
            },
            {
                "start_time": 3.3886364,
                "end_time": 3.4045455,
                "pitch": 64,
                "velocity": 64,
                "duration": 0.0159091,
                "tempo": 120.0
            },
            {
                "start_time": 3.525,
                "end_time": 3.5590909,
                "pitch": 64,
                "velocity": 64,
                "duration": 0.0340909,
                "tempo": 120.0
            },
            {
                "start_time": 3.6613636,
                "end_time": 3.6772727,
                "pitch": 52,
                "velocity": 64,
                "duration": 0.0159091,
                "tempo": 120.0
            },
            {
                "start_time": 3.7931818,
                "end_time": 3.8113636,
                "pitch": 52,
                "velocity": 64,
                "duration": 0.0181818,
                "tempo": 120.0
            },
            {
                "start_time": 3.9272727,
                "end_time": 3.9613636,
                "pitch": 64,
                "velocity": 64,
                "duration": 0.0340909,
                "tempo": 120.0
            },
            {
                "start_time": 4.1954545,
                "end_time": 4.2113636,
                "pitch": 52,
                "velocity": 64,
                "duration": 0.0159091,
                "tempo": 120.0
            },
            {
                "start_time": 4.4613636,
                "end_time": 4.4795455,
                "pitch": 64,
                "velocity": 64,
                "duration": 0.0181818,
                "tempo": 120.0
            },
            {
                "start_time": 4.5954545,
                "end_time": 4.6113636,
                "pitch": 64,
                "velocity": 64,
                "duration": 0.0159091,
                "tempo": 120.0
            },
            {
                "start_time": 4.7295455,
                "end_time": 4.7636364,
                "pitch": 54,
                "velocity": 64,
                "duration": 0.0340909,
                "tempo": 120.0
            },
            {
                "start_time": 5.0022727,
                "end_time": 5.0181818,
                "pitch": 66,
                "velocity": 64,
                "duration": 0.0159091,
                "tempo": 120.0
            },
            {
                "start_time": 5.1363636,
                "end_time": 5.1704545,
                "pitch": 66,
                "velocity": 64,
                "duration": 0.0340909,
                "tempo": 120.0
            },
            {
                "start_time": 5.2727273,
                "end_time": 5.2909091,
                "pitch": 54,
                "velocity": 64,
                "duration": 0.0181818,
                "tempo": 120.0
            },
            {
                "start_time": 5.5409091,
                "end_time": 5.5727273,
                "pitch": 66,
                "velocity": 64,
                "duration": 0.0318182,
                "tempo": 120.0
            },
            {
                "start_time": 5.675,
                "end_time": 5.6909091,
                "pitch": 66,
                "velocity": 64,
                "duration": 0.0159091,
                "tempo": 120.0
            },
            {
                "start_time": 5.8068182,
                "end_time": 5.825,
                "pitch": 54,
                "velocity": 64,
                "duration": 0.0181818,
                "tempo": 120.0
            },
            {
                "start_time": 5.9409091,
                "end_time": 5.975,
                "pitch": 54,
                "velocity": 64,
                "duration": 0.0340909,
                "tempo": 120.0
            },
            {
                "start_time": 6.075,
                "end_time": 6.0909091,
                "pitch": 66,
                "velocity": 64,
                "duration": 0.0159091,
                "tempo": 120.0
            },
            {
                "start_time": 6.3409091,
                "end_time": 6.375,
                "pitch": 54,
                "velocity": 64,
                "duration": 0.0340909,
                "tempo": 120.0
            },
            {
                "start_time": 6.6090909,
                "end_time": 6.625,
                "pitch": 66,
                "velocity": 64,
                "duration": 0.0159091,
                "tempo": 120.0
            },
            {
                "start_time": 6.7431818,
                "end_time": 6.7772727,
                "pitch": 66,
                "velocity": 64,
                "duration": 0.0340909,
                "tempo": 120.0
            },
            {
                "start_time": 6.8772727,
                "end_time": 6.8931818,
                "pitch": 50,
                "velocity": 64,
                "duration": 0.0159091,
                "tempo": 120.0
            },
            {
                "start_time": 7.1477273,
                "end_time": 7.1818182,
                "pitch": 62,
                "velocity": 64,
                "duration": 0.0340909,
                "tempo": 120.0
            },
            {
                "start_time": 7.2840909,
                "end_time": 7.3181818,
                "pitch": 62,
                "velocity": 64,
                "duration": 0.0340909,
                "tempo": 120.0
            },
            {
                "start_time": 7.4204545,
                "end_time": 7.4545455,
                "pitch": 50,
                "velocity": 64,
                "duration": 0.0340909,
                "tempo": 120.0
            },
            {
                "start_time": 7.6886364,
                "end_time": 7.7204545,
                "pitch": 62,
                "velocity": 64,
                "duration": 0.0318182,
                "tempo": 120.0
            },
            {
                "start_time": 7.8204545,
                "end_time": 7.8545455,
                "pitch": 62,
                "velocity": 64,
                "duration": 0.0340909,
                "tempo": 120.0
            },
            {
                "start_time": 7.9545455,
                "end_time": 7.9886364,
                "pitch": 52,
                "velocity": 64,
                "duration": 0.0340909,
                "tempo": 120.0
            },
            {
                "start_time": 8.0909091,
                "end_time": 8.125,
                "pitch": 52,
                "velocity": 64,
                "duration": 0.0340909,
                "tempo": 120.0
            },
            {
                "start_time": 8.2272727,
                "end_time": 8.2613636,
                "pitch": 52,
                "velocity": 64,
                "duration": 0.0340909,
                "tempo": 120.0
            },
            {
                "start_time": 8.3636364,
                "end_time": 8.3977273,
                "pitch": 52,
                "velocity": 64,
                "duration": 0.0340909,
                "tempo": 120.0
            },
            {
                "start_time": 8.4977273,
                "end_time": 8.5318182,
                "pitch": 52,
                "velocity": 64,
                "duration": 0.0340909,
                "tempo": 120.0
            },
            {
                "start_time": 8.7659091,
                "end_time": 8.8,
                "pitch": 64,
                "velocity": 64,
                "duration": 0.0340909,
                "tempo": 120.0
            },
            {
                "start_time": 8.9,
                "end_time": 8.9318182,
                "pitch": 64,
                "velocity": 64,
                "duration": 0.0318182,
                "tempo": 120.0
            },
            {
                "start_time": 9.0340909,
                "end_time": 9.0659091,
                "pitch": 57,
                "velocity": 64,
                "duration": 0.0318182,
                "tempo": 120.0
            },
            {
                "start_time": 9.3,
                "end_time": 9.3340909,
                "pitch": 69,
                "velocity": 64,
                "duration": 0.0340909,
                "tempo": 120.0
            },
            {
                "start_time": 9.4340909,
                "end_time": 9.4681818,
                "pitch": 69,
                "velocity": 64,
                "duration": 0.0340909,
                "tempo": 120.0
            },
            {
                "start_time": 9.5681818,
                "end_time": 9.6,
                "pitch": 57,
                "velocity": 64,
                "duration": 0.0318182,
                "tempo": 120.0
            },
            {
                "start_time": 9.8340909,
                "end_time": 9.8681818,
                "pitch": 69,
                "velocity": 64,
                "duration": 0.0340909,
                "tempo": 120.0
            },
            {
                "start_time": 9.9681818,
                "end_time": 10.0022727,
                "pitch": 69,
                "velocity": 64,
                "duration": 0.0340909,
                "tempo": 120.0
            },
            {
                "start_time": 10.1022727,
                "end_time": 10.1363636,
                "pitch": 57,
                "velocity": 64,
                "duration": 0.0340909,
                "tempo": 120.0
            },
            {
                "start_time": 10.2386364,
                "end_time": 10.2727273,
                "pitch": 57,
                "velocity": 64,
                "duration": 0.0340909,
                "tempo": 120.0
            },
            {
                "start_time": 10.3727273,
                "end_time": 10.4068182,
                "pitch": 69,
                "velocity": 64,
                "duration": 0.0340909,
                "tempo": 120.0
            },
            {
                "start_time": 10.6454545,
                "end_time": 10.6795455,
                "pitch": 57,
                "velocity": 64,
                "duration": 0.0340909,
                "tempo": 120.0
            },
            {
                "start_time": 10.9136364,
                "end_time": 10.9454545,
                "pitch": 69,
                "velocity": 64,
                "duration": 0.0318182,
                "tempo": 120.0
            },
            {
                "start_time": 11.0454545,
                "end_time": 11.0795455,
                "pitch": 69,
                "velocity": 64,
                "duration": 0.0340909,
                "tempo": 120.0
            },
            {
                "start_time": 11.1795455,
                "end_time": 11.2136364,
                "pitch": 52,
                "velocity": 64,
                "duration": 0.0340909,
                "tempo": 120.0
            },
            {
                "start_time": 11.4477273,
                "end_time": 11.4818182,
                "pitch": 64,
                "velocity": 64,
                "duration": 0.0340909,
                "tempo": 120.0
            },
            {
                "start_time": 11.5818182,
                "end_time": 11.6136364,
                "pitch": 64,
                "velocity": 64,
                "duration": 0.0318182,
                "tempo": 120.0
            },
            {
                "start_time": 11.7136364,
                "end_time": 11.7477273,
                "pitch": 52,
                "velocity": 64,
                "duration": 0.0340909,
                "tempo": 120.0
            },
            {
                "start_time": 11.9863636,
                "end_time": 12.0204545,
                "pitch": 64,
                "velocity": 64,
                "duration": 0.0340909,
                "tempo": 120.0
            },
            {
                "start_time": 12.1227273,
                "end_time": 12.1568182,
                "pitch": 64,
                "velocity": 64,
                "duration": 0.0340909,
                "tempo": 120.0
            },
            {
                "start_time": 12.2590909,
                "end_time": 12.2909091,
                "pitch": 52,
                "velocity": 64,
                "duration": 0.0318182,
                "tempo": 120.0
            },
            {
                "start_time": 12.3931818,
                "end_time": 12.425,
                "pitch": 52,
                "velocity": 64,
                "duration": 0.0318182,
                "tempo": 120.0
            },
            {
                "start_time": 12.525,
                "end_time": 12.5590909,
                "pitch": 64,
                "velocity": 64,
                "duration": 0.0340909,
                "tempo": 120.0
            },
            {
                "start_time": 12.7931818,
                "end_time": 12.8272727,
                "pitch": 52,
                "velocity": 64,
                "duration": 0.0340909,
                "tempo": 120.0
            },
            {
                "start_time": 13.0590909,
                "end_time": 13.0931818,
                "pitch": 64,
                "velocity": 64,
                "duration": 0.0340909,
                "tempo": 120.0
            },
            {
                "start_time": 13.1931818,
                "end_time": 13.2272727,
                "pitch": 64,
                "velocity": 64,
                "duration": 0.0340909,
                "tempo": 120.0
            },
            {
                "start_time": 13.3272727,
                "end_time": 13.3613636,
                "pitch": 54,
                "velocity": 64,
                "duration": 0.0340909,
                "tempo": 120.0
            },
            {
                "start_time": 13.6,
                "end_time": 13.6340909,
                "pitch": 66,
                "velocity": 64,
                "duration": 0.0340909,
                "tempo": 120.0
            },
            {
                "start_time": 13.7363636,
                "end_time": 13.7681818,
                "pitch": 66,
                "velocity": 64,
                "duration": 0.0318182,
                "tempo": 120.0
            },
            {
                "start_time": 13.8704545,
                "end_time": 13.9045455,
                "pitch": 54,
                "velocity": 64,
                "duration": 0.0340909,
                "tempo": 120.0
            },
            {
                "start_time": 14.1386364,
                "end_time": 14.1727273,
                "pitch": 66,
                "velocity": 64,
                "duration": 0.0340909,
                "tempo": 120.0
            },
            {
                "start_time": 14.2727273,
                "end_time": 14.3045455,
                "pitch": 66,
                "velocity": 64,
                "duration": 0.0318182,
                "tempo": 120.0
            },
            {
                "start_time": 14.4045455,
                "end_time": 14.4386364,
                "pitch": 54,
                "velocity": 64,
                "duration": 0.0340909,
                "tempo": 120.0
            },
            {
                "start_time": 14.5386364,
                "end_time": 14.5727273,
                "pitch": 54,
                "velocity": 64,
                "duration": 0.0340909,
                "tempo": 120.0
            },
            {
                "start_time": 14.6727273,
                "end_time": 14.7068182,
                "pitch": 66,
                "velocity": 64,
                "duration": 0.0340909,
                "tempo": 120.0
            },
            {
                "start_time": 14.9409091,
                "end_time": 14.975,
                "pitch": 54,
                "velocity": 64,
                "duration": 0.0340909,
                "tempo": 120.0
            },
            {
                "start_time": 15.2113636,
                "end_time": 15.2454545,
                "pitch": 66,
                "velocity": 64,
                "duration": 0.0340909,
                "tempo": 120.0
            },
            {
                "start_time": 15.3477273,
                "end_time": 15.3818182,
                "pitch": 66,
                "velocity": 64,
                "duration": 0.0340909,
                "tempo": 120.0
            },
            {
                "start_time": 15.4840909,
                "end_time": 15.5181818,
                "pitch": 50,
                "velocity": 64,
                "duration": 0.0340909,
                "tempo": 120.0
            },
            {
                "start_time": 15.75,
                "end_time": 15.7840909,
                "pitch": 62,
                "velocity": 64,
                "duration": 0.0340909,
                "tempo": 120.0
            },
            {
                "start_time": 15.8840909,
                "end_time": 15.9181818,
                "pitch": 62,
                "velocity": 64,
                "duration": 0.0340909,
                "tempo": 120.0
            },
            {
                "start_time": 16.0181818,
                "end_time": 16.0522727,
                "pitch": 50,
                "velocity": 64,
                "duration": 0.0340909,
                "tempo": 120.0
            },
            {
                "start_time": 16.2909091,
                "end_time": 16.325,
                "pitch": 62,
                "velocity": 64,
                "duration": 0.0340909,
                "tempo": 120.0
            },
            {
                "start_time": 16.4272727,
                "end_time": 16.4590909,
                "pitch": 62,
                "velocity": 64,
                "duration": 0.0318182,
                "tempo": 120.0
            },
            {
                "start_time": 16.5613636,
                "end_time": 16.5954545,
                "pitch": 52,
                "velocity": 64,
                "duration": 0.0340909,
                "tempo": 120.0
            },
            {
                "start_time": 16.6954545,
                "end_time": 16.7295455,
                "pitch": 52,
                "velocity": 64,
                "duration": 0.0340909,
                "tempo": 120.0
            },
            {
                "start_time": 16.8295455,
                "end_time": 16.8636364,
                "pitch": 52,
                "velocity": 64,
                "duration": 0.0340909,
                "tempo": 120.0
            },
            {
                "start_time": 16.9636364,
                "end_time": 16.9954545,
                "pitch": 52,
                "velocity": 64,
                "duration": 0.0318182,
                "tempo": 120.0
            },
            {
                "start_time": 17.0977273,
                "end_time": 17.1295455,
                "pitch": 52,
                "velocity": 64,
                "duration": 0.0318182,
                "tempo": 120.0
            },
            {
                "start_time": 17.3636364,
                "end_time": 17.3977273,
                "pitch": 64,
                "velocity": 64,
                "duration": 0.0340909,
                "tempo": 120.0
            },
            {
                "start_time": 17.4977273,
                "end_time": 17.5318182,
                "pitch": 64,
                "velocity": 64,
                "duration": 0.0340909,
                "tempo": 120.0
            },
            {
                "start_time": 17.6318182,
                "end_time": 17.6659091,
                "pitch": 57,
                "velocity": 64,
                "duration": 0.0340909,
                "tempo": 120.0
            },
            {
                "start_time": 17.9022727,
                "end_time": 17.9363636,
                "pitch": 69,
                "velocity": 64,
                "duration": 0.0340909,
                "tempo": 120.0
            },
            {
                "start_time": 18.175,
                "end_time": 18.2090909,
                "pitch": 57,
                "velocity": 64,
                "duration": 0.0340909,
                "tempo": 120.0
            },
            {
                "start_time": 18.4431818,
                "end_time": 18.475,
                "pitch": 69,
                "velocity": 64,
                "duration": 0.0318182,
                "tempo": 120.0
            },
            {
                "start_time": 18.575,
                "end_time": 18.6090909,
                "pitch": 69,
                "velocity": 64,
                "duration": 0.0340909,
                "tempo": 120.0
            },
            {
                "start_time": 18.7090909,
                "end_time": 18.7431818,
                "pitch": 57,
                "velocity": 64,
                "duration": 0.0340909,
                "tempo": 120.0
            },
            {
                "start_time": 18.8431818,
                "end_time": 18.8772727,
                "pitch": 57,
                "velocity": 64,
                "duration": 0.0340909,
                "tempo": 120.0
            },
            {
                "start_time": 18.9772727,
                "end_time": 19.0090909,
                "pitch": 57,
                "velocity": 64,
                "duration": 0.0318182,
                "tempo": 120.0
            },
            {
                "start_time": 19.2431818,
                "end_time": 19.2772727,
                "pitch": 57,
                "velocity": 64,
                "duration": 0.0340909,
                "tempo": 120.0
            },
            {
                "start_time": 19.5113636,
                "end_time": 19.5431818,
                "pitch": 69,
                "velocity": 64,
                "duration": 0.0318182,
                "tempo": 120.0
            },
            {
                "start_time": 19.7772727,
                "end_time": 19.8113636,
                "pitch": 56,
                "velocity": 64,
                "duration": 0.0340909,
                "tempo": 120.0
            },
            {
                "start_time": 20.05,
                "end_time": 20.0840909,
                "pitch": 68,
                "velocity": 64,
                "duration": 0.0340909,
                "tempo": 120.0
            },
            {
                "start_time": 20.3227273,
                "end_time": 20.3545455,
                "pitch": 56,
                "velocity": 64,
                "duration": 0.0318182,
                "tempo": 120.0
            },
            {
                "start_time": 20.5886364,
                "end_time": 20.6227273,
                "pitch": 68,
                "velocity": 64,
                "duration": 0.0340909,
                "tempo": 120.0
            },
            {
                "start_time": 20.7227273,
                "end_time": 20.7568182,
                "pitch": 68,
                "velocity": 64,
                "duration": 0.0340909,
                "tempo": 120.0
            },
            {
                "start_time": 20.8568182,
                "end_time": 20.8909091,
                "pitch": 56,
                "velocity": 64,
                "duration": 0.0340909,
                "tempo": 120.0
            },
            {
                "start_time": 20.9931818,
                "end_time": 21.0272727,
                "pitch": 56,
                "velocity": 64,
                "duration": 0.0340909,
                "tempo": 120.0
            },
            {
                "start_time": 21.1272727,
                "end_time": 21.1613636,
                "pitch": 56,
                "velocity": 64,
                "duration": 0.0340909,
                "tempo": 120.0
            },
            {
                "start_time": 21.4,
                "end_time": 21.4340909,
                "pitch": 56,
                "velocity": 64,
                "duration": 0.0340909,
                "tempo": 120.0
            },
            {
                "start_time": 21.6681818,
                "end_time": 21.7,
                "pitch": 68,
                "velocity": 64,
                "duration": 0.0318182,
                "tempo": 120.0
            },
            {
                "start_time": 21.9340909,
                "end_time": 21.9681818,
                "pitch": 55,
                "velocity": 64,
                "duration": 0.0340909,
                "tempo": 120.0
            },
            {
                "start_time": 22.2022727,
                "end_time": 22.2363636,
                "pitch": 67,
                "velocity": 64,
                "duration": 0.0340909,
                "tempo": 120.0
            },
            {
                "start_time": 22.4681818,
                "end_time": 22.5022727,
                "pitch": 55,
                "velocity": 64,
                "duration": 0.0340909,
                "tempo": 120.0
            },
            {
                "start_time": 22.7409091,
                "end_time": 22.775,
                "pitch": 67,
                "velocity": 64,
                "duration": 0.0340909,
                "tempo": 120.0
            },
            {
                "start_time": 22.8772727,
                "end_time": 22.9113636,
                "pitch": 67,
                "velocity": 64,
                "duration": 0.0340909,
                "tempo": 120.0
            },
            {
                "start_time": 23.0136364,
                "end_time": 23.0454545,
                "pitch": 55,
                "velocity": 64,
                "duration": 0.0318182,
                "tempo": 120.0
            },
            {
                "start_time": 23.1477273,
                "end_time": 23.1795455,
                "pitch": 55,
                "velocity": 64,
                "duration": 0.0318182,
                "tempo": 120.0
            },
            {
                "start_time": 23.2795455,
                "end_time": 23.3136364,
                "pitch": 55,
                "velocity": 64,
                "duration": 0.0340909,
                "tempo": 120.0
            },
            {
                "start_time": 23.5477273,
                "end_time": 23.5818182,
                "pitch": 55,
                "velocity": 64,
                "duration": 0.0340909,
                "tempo": 120.0
            },
            {
                "start_time": 23.8136364,
                "end_time": 23.8477273,
                "pitch": 67,
                "velocity": 64,
                "duration": 0.0340909,
                "tempo": 120.0
            },
            {
                "start_time": 24.0818182,
                "end_time": 24.1159091,
                "pitch": 54,
                "velocity": 64,
                "duration": 0.0340909,
                "tempo": 120.0
            },
            {
                "start_time": 24.35,
                "end_time": 24.3818182,
                "pitch": 66,
                "velocity": 64,
                "duration": 0.0318182,
                "tempo": 120.0
            },
            {
                "start_time": 24.6159091,
                "end_time": 24.65,
                "pitch": 54,
                "velocity": 64,
                "duration": 0.0340909,
                "tempo": 120.0
            },
            {
                "start_time": 24.8886364,
                "end_time": 24.9227273,
                "pitch": 66,
                "velocity": 64,
                "duration": 0.0340909,
                "tempo": 120.0
            },
            {
                "start_time": 25.025,
                "end_time": 25.0590909,
                "pitch": 66,
                "velocity": 64,
                "duration": 0.0340909,
                "tempo": 120.0
            },
            {
                "start_time": 25.1590909,
                "end_time": 25.1931818,
                "pitch": 54,
                "velocity": 64,
                "duration": 0.0340909,
                "tempo": 120.0
            },
            {
                "start_time": 25.2931818,
                "end_time": 25.3272727,
                "pitch": 54,
                "velocity": 64,
                "duration": 0.0340909,
                "tempo": 120.0
            },
            {
                "start_time": 25.4272727,
                "end_time": 25.4613636,
                "pitch": 54,
                "velocity": 64,
                "duration": 0.0340909,
                "tempo": 120.0
            },
            {
                "start_time": 25.6954545,
                "end_time": 25.7272727,
                "pitch": 54,
                "velocity": 64,
                "duration": 0.0318182,
                "tempo": 120.0
            },
            {
                "start_time": 25.9613636,
                "end_time": 25.9954545,
                "pitch": 66,
                "velocity": 64,
                "duration": 0.0340909,
                "tempo": 120.0
            },
            {
                "start_time": 26.2295455,
                "end_time": 26.2636364,
                "pitch": 53,
                "velocity": 64,
                "duration": 0.0340909,
                "tempo": 120.0
            },
            {
                "start_time": 26.5,
                "end_time": 26.5340909,
                "pitch": 65,
                "velocity": 64,
                "duration": 0.0340909,
                "tempo": 120.0
            },
            {
                "start_time": 26.7727273,
                "end_time": 26.8068182,
                "pitch": 53,
                "velocity": 64,
                "duration": 0.0340909,
                "tempo": 120.0
            },
            {
                "start_time": 27.0409091,
                "end_time": 27.0727273,
                "pitch": 65,
                "velocity": 64,
                "duration": 0.0318182,
                "tempo": 120.0
            },
            {
                "start_time": 27.1727273,
                "end_time": 27.2068182,
                "pitch": 65,
                "velocity": 64,
                "duration": 0.0340909,
                "tempo": 120.0
            },
            {
                "start_time": 27.3068182,
                "end_time": 27.3409091,
                "pitch": 53,
                "velocity": 64,
                "duration": 0.0340909,
                "tempo": 120.0
            },
            {
                "start_time": 27.4431818,
                "end_time": 27.4772727,
                "pitch": 53,
                "velocity": 64,
                "duration": 0.0340909,
                "tempo": 120.0
            },
            {
                "start_time": 27.5795455,
                "end_time": 27.6136364,
                "pitch": 53,
                "velocity": 64,
                "duration": 0.0340909,
                "tempo": 120.0
            },
            {
                "start_time": 27.8522727,
                "end_time": 27.8840909,
                "pitch": 53,
                "velocity": 64,
                "duration": 0.0318182,
                "tempo": 120.0
            },
            {
                "start_time": 28.1181818,
                "end_time": 28.1522727,
                "pitch": 65,
                "velocity": 64,
                "duration": 0.0340909,
                "tempo": 120.0
            },
            {
                "start_time": 28.3863636,
                "end_time": 28.4181818,
                "pitch": 52,
                "velocity": 64,
                "duration": 0.0318182,
                "tempo": 120.0
            },
            {
                "start_time": 28.6522727,
                "end_time": 28.6863636,
                "pitch": 64,
                "velocity": 64,
                "duration": 0.0340909,
                "tempo": 120.0
            },
            {
                "start_time": 28.9204545,
                "end_time": 28.9545455,
                "pitch": 52,
                "velocity": 64,
                "duration": 0.0340909,
                "tempo": 120.0
            },
            {
                "start_time": 29.1909091,
                "end_time": 29.225,
                "pitch": 64,
                "velocity": 64,
                "duration": 0.0340909,
                "tempo": 120.0
            },
            {
                "start_time": 29.3272727,
                "end_time": 29.3613636,
                "pitch": 64,
                "velocity": 64,
                "duration": 0.0340909,
                "tempo": 120.0
            },
            {
                "start_time": 29.4636364,
                "end_time": 29.4977273,
                "pitch": 52,
                "velocity": 64,
                "duration": 0.0340909,
                "tempo": 120.0
            },
            {
                "start_time": 29.5977273,
                "end_time": 29.6318182,
                "pitch": 52,
                "velocity": 64,
                "duration": 0.0340909,
                "tempo": 120.0
            },
            {
                "start_time": 29.7318182,
                "end_time": 29.7636364,
                "pitch": 52,
                "velocity": 64,
                "duration": 0.0318182,
                "tempo": 120.0
            },
            {
                "start_time": 29.9977273,
                "end_time": 30.0318182,
                "pitch": 52,
                "velocity": 64,
                "duration": 0.0340909,
                "tempo": 120.0
            },
            {
                "start_time": 30.2659091,
                "end_time": 30.3,
                "pitch": 64,
                "velocity": 64,
                "duration": 0.0340909,
                "tempo": 120.0
            },
            {
                "start_time": 30.5318182,
                "end_time": 30.5659091,
                "pitch": 50,
                "velocity": 64,
                "duration": 0.0340909,
                "tempo": 120.0
            },
            {
                "start_time": 30.8045455,
                "end_time": 30.8386364,
                "pitch": 62,
                "velocity": 64,
                "duration": 0.0340909,
                "tempo": 120.0
            },
            {
                "start_time": 31.0772727,
                "end_time": 31.1090909,
                "pitch": 50,
                "velocity": 64,
                "duration": 0.0318182,
                "tempo": 120.0
            },
            {
                "start_time": 31.3431818,
                "end_time": 31.3772727,
                "pitch": 62,
                "velocity": 64,
                "duration": 0.0340909,
                "tempo": 120.0
            },
            {
                "start_time": 31.4772727,
                "end_time": 31.5113636,
                "pitch": 62,
                "velocity": 64,
                "duration": 0.0340909,
                "tempo": 120.0
            },
            {
                "start_time": 31.6113636,
                "end_time": 31.6454545,
                "pitch": 50,
                "velocity": 64,
                "duration": 0.0340909,
                "tempo": 120.0
            },
            {
                "start_time": 31.7454545,
                "end_time": 31.7772727,
                "pitch": 50,
                "velocity": 64,
                "duration": 0.0318182,
                "tempo": 120.0
            },
            {
                "start_time": 31.8772727,
                "end_time": 31.9113636,
                "pitch": 50,
                "velocity": 64,
                "duration": 0.0340909,
                "tempo": 120.0
            },
            {
                "start_time": 32.1454545,
                "end_time": 32.1795455,
                "pitch": 50,
                "velocity": 64,
                "duration": 0.0340909,
                "tempo": 120.0
            },
            {
                "start_time": 32.4136364,
                "end_time": 32.4454545,
                "pitch": 62,
                "velocity": 64,
                "duration": 0.0318182,
                "tempo": 120.0
            },
            {
                "start_time": 32.6795455,
                "end_time": 32.7136364,
                "pitch": 52,
                "velocity": 64,
                "duration": 0.0340909,
                "tempo": 120.0
            },
            {
                "start_time": 32.9522727,
                "end_time": 32.9863636,
                "pitch": 64,
                "velocity": 64,
                "duration": 0.0340909,
                "tempo": 120.0
            },
            {
                "start_time": 33.2227273,
                "end_time": 33.2568182,
                "pitch": 52,
                "velocity": 64,
                "duration": 0.0340909,
                "tempo": 120.0
            },
            {
                "start_time": 33.4909091,
                "end_time": 33.525,
                "pitch": 64,
                "velocity": 64,
                "duration": 0.0340909,
                "tempo": 120.0
            },
            {
                "start_time": 33.625,
                "end_time": 33.6568182,
                "pitch": 64,
                "velocity": 64,
                "duration": 0.0318182,
                "tempo": 120.0
            },
            {
                "start_time": 33.7590909,
                "end_time": 33.7909091,
                "pitch": 52,
                "velocity": 64,
                "duration": 0.0318182,
                "tempo": 120.0
            },
            {
                "start_time": 33.8909091,
                "end_time": 33.925,
                "pitch": 52,
                "velocity": 64,
                "duration": 0.0340909,
                "tempo": 120.0
            },
            {
                "start_time": 34.025,
                "end_time": 34.0590909,
                "pitch": 52,
                "velocity": 64,
                "duration": 0.0340909,
                "tempo": 120.0
            },
            {
                "start_time": 34.2931818,
                "end_time": 34.3272727,
                "pitch": 52,
                "velocity": 64,
                "duration": 0.0340909,
                "tempo": 120.0
            },
            {
                "start_time": 34.5636364,
                "end_time": 34.5977273,
                "pitch": 64,
                "velocity": 64,
                "duration": 0.0340909,
                "tempo": 120.0
            },
            {
                "start_time": 34.8363636,
                "end_time": 34.8704545,
                "pitch": 57,
                "velocity": 64,
                "duration": 0.0340909,
                "tempo": 120.0
            },
            {
                "start_time": 35.1045455,
                "end_time": 35.1363636,
                "pitch": 69,
                "velocity": 64,
                "duration": 0.0318182,
                "tempo": 120.0
            },
            {
                "start_time": 35.2363636,
                "end_time": 35.2704545,
                "pitch": 69,
                "velocity": 64,
                "duration": 0.0340909,
                "tempo": 120.0
            },
            {
                "start_time": 35.3704545,
                "end_time": 35.4045455,
                "pitch": 57,
                "velocity": 64,
                "duration": 0.0340909,
                "tempo": 120.0
            },
            {
                "start_time": 35.6386364,
                "end_time": 35.6704545,
                "pitch": 69,
                "velocity": 64,
                "duration": 0.0318182,
                "tempo": 120.0
            },
            {
                "start_time": 35.7727273,
                "end_time": 35.8045455,
                "pitch": 69,
                "velocity": 64,
                "duration": 0.0318182,
                "tempo": 120.0
            },
            {
                "start_time": 35.9045455,
                "end_time": 35.9386364,
                "pitch": 57,
                "velocity": 64,
                "duration": 0.0340909,
                "tempo": 120.0
            },
            {
                "start_time": 36.0409091,
                "end_time": 36.075,
                "pitch": 57,
                "velocity": 64,
                "duration": 0.0340909,
                "tempo": 120.0
            },
            {
                "start_time": 36.1772727,
                "end_time": 36.2113636,
                "pitch": 69,
                "velocity": 64,
                "duration": 0.0340909,
                "tempo": 120.0
            },
            {
                "start_time": 36.45,
                "end_time": 36.4818182,
                "pitch": 57,
                "velocity": 64,
                "duration": 0.0318182,
                "tempo": 120.0
            },
            {
                "start_time": 36.7159091,
                "end_time": 36.75,
                "pitch": 69,
                "velocity": 64,
                "duration": 0.0340909,
                "tempo": 120.0
            },
            {
                "start_time": 36.85,
                "end_time": 36.8840909,
                "pitch": 69,
                "velocity": 64,
                "duration": 0.0340909,
                "tempo": 120.0
            },
            {
                "start_time": 36.9840909,
                "end_time": 37.0181818,
                "pitch": 52,
                "velocity": 64,
                "duration": 0.0340909,
                "tempo": 120.0
            },
            {
                "start_time": 37.2545455,
                "end_time": 37.2886364,
                "pitch": 64,
                "velocity": 64,
                "duration": 0.0340909,
                "tempo": 120.0
            },
            {
                "start_time": 37.3909091,
                "end_time": 37.425,
                "pitch": 64,
                "velocity": 64,
                "duration": 0.0340909,
                "tempo": 120.0
            },
            {
                "start_time": 37.5272727,
                "end_time": 37.5613636,
                "pitch": 52,
                "velocity": 64,
                "duration": 0.0340909,
                "tempo": 120.0
            },
            {
                "start_time": 37.7954545,
                "end_time": 37.8272727,
                "pitch": 64,
                "velocity": 64,
                "duration": 0.0318182,
                "tempo": 120.0
            },
            {
                "start_time": 37.9272727,
                "end_time": 37.9613636,
                "pitch": 64,
                "velocity": 64,
                "duration": 0.0340909,
                "tempo": 120.0
            },
            {
                "start_time": 38.0613636,
                "end_time": 38.0954545,
                "pitch": 52,
                "velocity": 64,
                "duration": 0.0340909,
                "tempo": 120.0
            },
            {
                "start_time": 38.1954545,
                "end_time": 38.2295455,
                "pitch": 52,
                "velocity": 64,
                "duration": 0.0340909,
                "tempo": 120.0
            },
            {
                "start_time": 38.3295455,
                "end_time": 38.3613636,
                "pitch": 64,
                "velocity": 64,
                "duration": 0.0318182,
                "tempo": 120.0
            },
            {
                "start_time": 38.5954545,
                "end_time": 38.6295455,
                "pitch": 52,
                "velocity": 64,
                "duration": 0.0340909,
                "tempo": 120.0
            },
            {
                "start_time": 38.8636364,
                "end_time": 38.8977273,
                "pitch": 64,
                "velocity": 64,
                "duration": 0.0340909,
                "tempo": 120.0
            },
            {
                "start_time": 38.9977273,
                "end_time": 39.0295455,
                "pitch": 64,
                "velocity": 64,
                "duration": 0.0318182,
                "tempo": 120.0
            },
            {
                "start_time": 39.1295455,
                "end_time": 39.1636364,
                "pitch": 54,
                "velocity": 64,
                "duration": 0.0340909,
                "tempo": 120.0
            },
            {
                "start_time": 39.4022727,
                "end_time": 39.4363636,
                "pitch": 66,
                "velocity": 64,
                "duration": 0.0340909,
                "tempo": 120.0
            },
            {
                "start_time": 39.5386364,
                "end_time": 39.5727273,
                "pitch": 66,
                "velocity": 64,
                "duration": 0.0340909,
                "tempo": 120.0
            },
            {
                "start_time": 39.675,
                "end_time": 39.7090909,
                "pitch": 54,
                "velocity": 64,
                "duration": 0.0340909,
                "tempo": 120.0
            },
            {
                "start_time": 39.9409091,
                "end_time": 39.975,
                "pitch": 66,
                "velocity": 64,
                "duration": 0.0340909,
                "tempo": 120.0
            },
            {
                "start_time": 40.075,
                "end_time": 40.1090909,
                "pitch": 66,
                "velocity": 64,
                "duration": 0.0340909,
                "tempo": 120.0
            },
            {
                "start_time": 40.2090909,
                "end_time": 40.2431818,
                "pitch": 54,
                "velocity": 64,
                "duration": 0.0340909,
                "tempo": 120.0
            },
            {
                "start_time": 40.3454545,
                "end_time": 40.3795455,
                "pitch": 54,
                "velocity": 64,
                "duration": 0.0340909,
                "tempo": 120.0
            },
            {
                "start_time": 40.4818182,
                "end_time": 40.5159091,
                "pitch": 66,
                "velocity": 64,
                "duration": 0.0340909,
                "tempo": 120.0
            },
            {
                "start_time": 40.7522727,
                "end_time": 40.7863636,
                "pitch": 54,
                "velocity": 64,
                "duration": 0.0340909,
                "tempo": 120.0
            },
            {
                "start_time": 41.0204545,
                "end_time": 41.0545455,
                "pitch": 66,
                "velocity": 64,
                "duration": 0.0340909,
                "tempo": 120.0
            },
            {
                "start_time": 41.1545455,
                "end_time": 41.1863636,
                "pitch": 66,
                "velocity": 64,
                "duration": 0.0318182,
                "tempo": 120.0
            },
            {
                "start_time": 41.2863636,
                "end_time": 41.3204545,
                "pitch": 50,
                "velocity": 64,
                "duration": 0.0340909,
                "tempo": 120.0
            },
            {
                "start_time": 41.5545455,
                "end_time": 41.5886364,
                "pitch": 62,
                "velocity": 64,
                "duration": 0.0340909,
                "tempo": 120.0
            },
            {
                "start_time": 41.6886364,
                "end_time": 41.7204545,
                "pitch": 62,
                "velocity": 64,
                "duration": 0.0318182,
                "tempo": 120.0
            },
            {
                "start_time": 41.8227273,
                "end_time": 41.8545455,
                "pitch": 50,
                "velocity": 64,
                "duration": 0.0318182,
                "tempo": 120.0
            },
            {
                "start_time": 42.0931818,
                "end_time": 42.1272727,
                "pitch": 62,
                "velocity": 64,
                "duration": 0.0340909,
                "tempo": 120.0
            },
            {
                "start_time": 42.2295455,
                "end_time": 42.2636364,
                "pitch": 62,
                "velocity": 64,
                "duration": 0.0340909,
                "tempo": 120.0
            },
            {
                "start_time": 42.3659091,
                "end_time": 42.4,
                "pitch": 52,
                "velocity": 64,
                "duration": 0.0340909,
                "tempo": 120.0
            },
            {
                "start_time": 42.5,
                "end_time": 42.5318182,
                "pitch": 52,
                "velocity": 64,
                "duration": 0.0318182,
                "tempo": 120.0
            },
            {
                "start_time": 42.6318182,
                "end_time": 42.6659091,
                "pitch": 52,
                "velocity": 64,
                "duration": 0.0340909,
                "tempo": 120.0
            },
            {
                "start_time": 42.7659091,
                "end_time": 42.8,
                "pitch": 52,
                "velocity": 64,
                "duration": 0.0340909,
                "tempo": 120.0
            },
            {
                "start_time": 42.9,
                "end_time": 42.9340909,
                "pitch": 52,
                "velocity": 64,
                "duration": 0.0340909,
                "tempo": 120.0
            },
            {
                "start_time": 43.1681818,
                "end_time": 43.2,
                "pitch": 64,
                "velocity": 64,
                "duration": 0.0318182,
                "tempo": 120.0
            },
            {
                "start_time": 43.3,
                "end_time": 43.3340909,
                "pitch": 64,
                "velocity": 64,
                "duration": 0.0340909,
                "tempo": 120.0
            },
            {
                "start_time": 43.4340909,
                "end_time": 43.4681818,
                "pitch": 57,
                "velocity": 64,
                "duration": 0.0340909,
                "tempo": 120.0
            },
            {
                "start_time": 43.7022727,
                "end_time": 43.7340909,
                "pitch": 69,
                "velocity": 64,
                "duration": 0.0318182,
                "tempo": 120.0
            },
            {
                "start_time": 43.8340909,
                "end_time": 43.8681818,
                "pitch": 69,
                "velocity": 64,
                "duration": 0.0340909,
                "tempo": 120.0
            },
            {
                "start_time": 43.9681818,
                "end_time": 44.0022727,
                "pitch": 57,
                "velocity": 64,
                "duration": 0.0340909,
                "tempo": 120.0
            },
            {
                "start_time": 44.2409091,
                "end_time": 44.275,
                "pitch": 69,
                "velocity": 64,
                "duration": 0.0340909,
                "tempo": 120.0
            },
            {
                "start_time": 44.3772727,
                "end_time": 44.4113636,
                "pitch": 69,
                "velocity": 64,
                "duration": 0.0340909,
                "tempo": 120.0
            },
            {
                "start_time": 44.5136364,
                "end_time": 44.5454545,
                "pitch": 57,
                "velocity": 64,
                "duration": 0.0318182,
                "tempo": 120.0
            },
            {
                "start_time": 44.6454545,
                "end_time": 44.6795455,
                "pitch": 57,
                "velocity": 64,
                "duration": 0.0340909,
                "tempo": 120.0
            },
            {
                "start_time": 44.7795455,
                "end_time": 44.8136364,
                "pitch": 69,
                "velocity": 64,
                "duration": 0.0340909,
                "tempo": 120.0
            },
            {
                "start_time": 45.0477273,
                "end_time": 45.0795455,
                "pitch": 57,
                "velocity": 64,
                "duration": 0.0318182,
                "tempo": 120.0
            },
            {
                "start_time": 45.3136364,
                "end_time": 45.3477273,
                "pitch": 69,
                "velocity": 64,
                "duration": 0.0340909,
                "tempo": 120.0
            },
            {
                "start_time": 45.4477273,
                "end_time": 45.4818182,
                "pitch": 69,
                "velocity": 64,
                "duration": 0.0340909,
                "tempo": 120.0
            },
            {
                "start_time": 45.5818182,
                "end_time": 45.6159091,
                "pitch": 52,
                "velocity": 64,
                "duration": 0.0340909,
                "tempo": 120.0
            },
            {
                "start_time": 45.8545455,
                "end_time": 45.8863636,
                "pitch": 64,
                "velocity": 64,
                "duration": 0.0318182,
                "tempo": 120.0
            },
            {
                "start_time": 45.9886364,
                "end_time": 46.0227273,
                "pitch": 64,
                "velocity": 64,
                "duration": 0.0340909,
                "tempo": 120.0
            },
            {
                "start_time": 46.125,
                "end_time": 46.1590909,
                "pitch": 52,
                "velocity": 64,
                "duration": 0.0340909,
                "tempo": 120.0
            },
            {
                "start_time": 46.3931818,
                "end_time": 46.425,
                "pitch": 64,
                "velocity": 64,
                "duration": 0.0318182,
                "tempo": 120.0
            },
            {
                "start_time": 46.5272727,
                "end_time": 46.5590909,
                "pitch": 64,
                "velocity": 64,
                "duration": 0.0318182,
                "tempo": 120.0
            },
            {
                "start_time": 46.6590909,
                "end_time": 46.6931818,
                "pitch": 52,
                "velocity": 64,
                "duration": 0.0340909,
                "tempo": 120.0
            },
            {
                "start_time": 46.7954545,
                "end_time": 46.8295455,
                "pitch": 52,
                "velocity": 64,
                "duration": 0.0340909,
                "tempo": 120.0
            },
            {
                "start_time": 46.9318182,
                "end_time": 46.9659091,
                "pitch": 64,
                "velocity": 64,
                "duration": 0.0340909,
                "tempo": 120.0
            },
            {
                "start_time": 47.2045455,
                "end_time": 47.2363636,
                "pitch": 52,
                "velocity": 64,
                "duration": 0.0318182,
                "tempo": 120.0
            },
            {
                "start_time": 47.4704545,
                "end_time": 47.5045455,
                "pitch": 64,
                "velocity": 64,
                "duration": 0.0340909,
                "tempo": 120.0
            },
            {
                "start_time": 47.6045455,
                "end_time": 47.6386364,
                "pitch": 64,
                "velocity": 64,
                "duration": 0.0340909,
                "tempo": 120.0
            },
            {
                "start_time": 47.7386364,
                "end_time": 47.7704545,
                "pitch": 54,
                "velocity": 64,
                "duration": 0.0318182,
                "tempo": 120.0
            },
            {
                "start_time": 48.0045455,
                "end_time": 48.0386364,
                "pitch": 66,
                "velocity": 64,
                "duration": 0.0340909,
                "tempo": 120.0
            },
            {
                "start_time": 48.1386364,
                "end_time": 48.1727273,
                "pitch": 66,
                "velocity": 64,
                "duration": 0.0340909,
                "tempo": 120.0
            },
            {
                "start_time": 48.2727273,
                "end_time": 48.3068182,
                "pitch": 54,
                "velocity": 64,
                "duration": 0.0340909,
                "tempo": 120.0
            },
            {
                "start_time": 48.5454545,
                "end_time": 48.5795455,
                "pitch": 66,
                "velocity": 64,
                "duration": 0.0340909,
                "tempo": 120.0
            },
            {
                "start_time": 48.6795455,
                "end_time": 48.7136364,
                "pitch": 66,
                "velocity": 64,
                "duration": 0.0340909,
                "tempo": 120.0
            },
            {
                "start_time": 48.8159091,
                "end_time": 48.85,
                "pitch": 54,
                "velocity": 64,
                "duration": 0.0340909,
                "tempo": 120.0
            },
            {
                "start_time": 48.95,
                "end_time": 48.9840909,
                "pitch": 54,
                "velocity": 64,
                "duration": 0.0340909,
                "tempo": 120.0
            },
            {
                "start_time": 49.0840909,
                "end_time": 49.1181818,
                "pitch": 66,
                "velocity": 64,
                "duration": 0.0340909,
                "tempo": 120.0
            },
            {
                "start_time": 49.35,
                "end_time": 49.3840909,
                "pitch": 54,
                "velocity": 64,
                "duration": 0.0340909,
                "tempo": 120.0
            },
            {
                "start_time": 49.6181818,
                "end_time": 49.6522727,
                "pitch": 66,
                "velocity": 64,
                "duration": 0.0340909,
                "tempo": 120.0
            },
            {
                "start_time": 49.7522727,
                "end_time": 49.7840909,
                "pitch": 66,
                "velocity": 64,
                "duration": 0.0318182,
                "tempo": 120.0
            },
            {
                "start_time": 49.8840909,
                "end_time": 49.9181818,
                "pitch": 50,
                "velocity": 64,
                "duration": 0.0340909,
                "tempo": 120.0
            },
            {
                "start_time": 50.1522727,
                "end_time": 50.1863636,
                "pitch": 62,
                "velocity": 64,
                "duration": 0.0340909,
                "tempo": 120.0
            },
            {
                "start_time": 50.2863636,
                "end_time": 50.3204545,
                "pitch": 62,
                "velocity": 64,
                "duration": 0.0340909,
                "tempo": 120.0
            },
            {
                "start_time": 50.4204545,
                "end_time": 50.4545455,
                "pitch": 50,
                "velocity": 64,
                "duration": 0.0340909,
                "tempo": 120.0
            },
            {
                "start_time": 50.6909091,
                "end_time": 50.725,
                "pitch": 62,
                "velocity": 64,
                "duration": 0.0340909,
                "tempo": 120.0
            },
            {
                "start_time": 50.8272727,
                "end_time": 50.8613636,
                "pitch": 62,
                "velocity": 64,
                "duration": 0.0340909,
                "tempo": 120.0
            },
            {
                "start_time": 50.9636364,
                "end_time": 50.9977273,
                "pitch": 53,
                "velocity": 64,
                "duration": 0.0340909,
                "tempo": 120.0
            },
            {
                "start_time": 51.0977273,
                "end_time": 51.1295455,
                "pitch": 53,
                "velocity": 64,
                "duration": 0.0318182,
                "tempo": 120.0
            },
            {
                "start_time": 51.2318182,
                "end_time": 51.2636364,
                "pitch": 53,
                "velocity": 64,
                "duration": 0.0318182,
                "tempo": 120.0
            },
            {
                "start_time": 51.3636364,
                "end_time": 51.3977273,
                "pitch": 53,
                "velocity": 64,
                "duration": 0.0340909,
                "tempo": 120.0
            },
            {
                "start_time": 51.4977273,
                "end_time": 51.5318182,
                "pitch": 53,
                "velocity": 64,
                "duration": 0.0340909,
                "tempo": 120.0
            },
            {
                "start_time": 51.7704545,
                "end_time": 51.8045455,
                "pitch": 65,
                "velocity": 64,
                "duration": 0.0340909,
                "tempo": 120.0
            },
            {
                "start_time": 51.9068182,
                "end_time": 51.9409091,
                "pitch": 65,
                "velocity": 64,
                "duration": 0.0340909,
                "tempo": 120.0
            },
            {
                "start_time": 52.0409091,
                "end_time": 52.075,
                "pitch": 60,
                "velocity": 64,
                "duration": 0.0340909,
                "tempo": 120.0
            },
            {
                "start_time": 52.175,
                "end_time": 52.2090909,
                "pitch": 60,
                "velocity": 64,
                "duration": 0.0340909,
                "tempo": 120.0
            },
            {
                "start_time": 52.3090909,
                "end_time": 52.3431818,
                "pitch": 60,
                "velocity": 64,
                "duration": 0.0340909,
                "tempo": 120.0
            },
            {
                "start_time": 52.5772727,
                "end_time": 52.6090909,
                "pitch": 72,
                "velocity": 64,
                "duration": 0.0318182,
                "tempo": 120.0
            },
            {
                "start_time": 52.7090909,
                "end_time": 52.7431818,
                "pitch": 72,
                "velocity": 64,
                "duration": 0.0340909,
                "tempo": 120.0
            },
            {
                "start_time": 52.8431818,
                "end_time": 52.8772727,
                "pitch": 55,
                "velocity": 64,
                "duration": 0.0340909,
                "tempo": 120.0
            },
            {
                "start_time": 52.9772727,
                "end_time": 53.0113636,
                "pitch": 55,
                "velocity": 64,
                "duration": 0.0340909,
                "tempo": 120.0
            },
            {
                "start_time": 53.1113636,
                "end_time": 53.1454545,
                "pitch": 60,
                "velocity": 64,
                "duration": 0.0340909,
                "tempo": 120.0
            },
            {
                "start_time": 53.6545455,
                "end_time": 53.6886364,
                "pitch": 69,
                "velocity": 64,
                "duration": 0.0340909,
                "tempo": 120.0
            },
            {
                "start_time": 53.7886364,
                "end_time": 53.8227273,
                "pitch": 67,
                "velocity": 64,
                "duration": 0.0340909,
                "tempo": 120.0
            },
            {
                "start_time": 53.9227273,
                "end_time": 53.9545455,
                "pitch": 66,
                "velocity": 64,
                "duration": 0.0318182,
                "tempo": 120.0
            },
            {
                "start_time": 54.0545455,
                "end_time": 54.0886364,
                "pitch": 64,
                "velocity": 64,
                "duration": 0.0340909,
                "tempo": 120.0
            },
            {
                "start_time": 54.1886364,
                "end_time": 54.2227273,
                "pitch": 62,
                "velocity": 64,
                "duration": 0.0340909,
                "tempo": 120.0
            },
            {
                "start_time": 54.3227273,
                "end_time": 54.3568182,
                "pitch": 62,
                "velocity": 64,
                "duration": 0.0340909,
                "tempo": 120.0
            },
            {
                "start_time": 54.4568182,
                "end_time": 54.4886364,
                "pitch": 62,
                "velocity": 64,
                "duration": 0.0318182,
                "tempo": 120.0
            },
            {
                "start_time": 54.7227273,
                "end_time": 54.7568182,
                "pitch": 74,
                "velocity": 64,
                "duration": 0.0340909,
                "tempo": 120.0
            },
            {
                "start_time": 54.8568182,
                "end_time": 54.8909091,
                "pitch": 74,
                "velocity": 64,
                "duration": 0.0340909,
                "tempo": 120.0
            },
            {
                "start_time": 54.9909091,
                "end_time": 55.025,
                "pitch": 57,
                "velocity": 64,
                "duration": 0.0340909,
                "tempo": 120.0
            },
            {
                "start_time": 55.125,
                "end_time": 55.1568182,
                "pitch": 57,
                "velocity": 64,
                "duration": 0.0318182,
                "tempo": 120.0
            },
            {
                "start_time": 55.2568182,
                "end_time": 55.2909091,
                "pitch": 62,
                "velocity": 64,
                "duration": 0.0340909,
                "tempo": 120.0
            },
            {
                "start_time": 55.8022727,
                "end_time": 55.8340909,
                "pitch": 66,
                "velocity": 64,
                "duration": 0.0318182,
                "tempo": 120.0
            },
            {
                "start_time": 55.9363636,
                "end_time": 55.9681818,
                "pitch": 64,
                "velocity": 64,
                "duration": 0.0318182,
                "tempo": 120.0
            },
            {
                "start_time": 56.0681818,
                "end_time": 56.1022727,
                "pitch": 62,
                "velocity": 64,
                "duration": 0.0340909,
                "tempo": 120.0
            },
            {
                "start_time": 56.2022727,
                "end_time": 56.2363636,
                "pitch": 60,
                "velocity": 64,
                "duration": 0.0340909,
                "tempo": 120.0
            },
            {
                "start_time": 56.3363636,
                "end_time": 56.3704545,
                "pitch": 59,
                "velocity": 64,
                "duration": 0.0340909,
                "tempo": 120.0
            },
            {
                "start_time": 56.4727273,
                "end_time": 56.5068182,
                "pitch": 59,
                "velocity": 64,
                "duration": 0.0340909,
                "tempo": 120.0
            },
            {
                "start_time": 56.6090909,
                "end_time": 56.6409091,
                "pitch": 59,
                "velocity": 64,
                "duration": 0.0318182,
                "tempo": 120.0
            },
            {
                "start_time": 56.8795455,
                "end_time": 56.9136364,
                "pitch": 71,
                "velocity": 64,
                "duration": 0.0340909,
                "tempo": 120.0
            },
            {
                "start_time": 57.0136364,
                "end_time": 57.0477273,
                "pitch": 71,
                "velocity": 64,
                "duration": 0.0340909,
                "tempo": 120.0
            },
            {
                "start_time": 57.1477273,
                "end_time": 57.1795455,
                "pitch": 54,
                "velocity": 64,
                "duration": 0.0318182,
                "tempo": 120.0
            },
            {
                "start_time": 57.2818182,
                "end_time": 57.3136364,
                "pitch": 54,
                "velocity": 64,
                "duration": 0.0318182,
                "tempo": 120.0
            },
            {
                "start_time": 57.4136364,
                "end_time": 57.4477273,
                "pitch": 59,
                "velocity": 64,
                "duration": 0.0340909,
                "tempo": 120.0
            },
            {
                "start_time": 57.9477273,
                "end_time": 57.9818182,
                "pitch": 59,
                "velocity": 64,
                "duration": 0.0340909,
                "tempo": 120.0
            },
            {
                "start_time": 58.0818182,
                "end_time": 58.1159091,
                "pitch": 57,
                "velocity": 64,
                "duration": 0.0340909,
                "tempo": 120.0
            },
            {
                "start_time": 58.2159091,
                "end_time": 58.25,
                "pitch": 55,
                "velocity": 64,
                "duration": 0.0340909,
                "tempo": 120.0
            },
            {
                "start_time": 58.35,
                "end_time": 58.3840909,
                "pitch": 54,
                "velocity": 64,
                "duration": 0.0340909,
                "tempo": 120.0
            },
            {
                "start_time": 58.4840909,
                "end_time": 58.5181818,
                "pitch": 52,
                "velocity": 64,
                "duration": 0.0340909,
                "tempo": 120.0
            },
            {
                "start_time": 58.7545455,
                "end_time": 58.7886364,
                "pitch": 64,
                "velocity": 64,
                "duration": 0.0340909,
                "tempo": 120.0
            },
            {
                "start_time": 59.0272727,
                "end_time": 59.0613636,
                "pitch": 54,
                "velocity": 64,
                "duration": 0.0340909,
                "tempo": 120.0
            },
            {
                "start_time": 59.2931818,
                "end_time": 59.3272727,
                "pitch": 66,
                "velocity": 64,
                "duration": 0.0340909,
                "tempo": 120.0
            },
            {
                "start_time": 59.5613636,
                "end_time": 59.5954545,
                "pitch": 55,
                "velocity": 64,
                "duration": 0.0340909,
                "tempo": 120.0
            },
            {
                "start_time": 59.6954545,
                "end_time": 59.7295455,
                "pitch": 55,
                "velocity": 64,
                "duration": 0.0340909,
                "tempo": 120.0
            },
            {
                "start_time": 59.8295455,
                "end_time": 59.8613636,
                "pitch": 67,
                "velocity": 64,
                "duration": 0.0318182,
                "tempo": 120.0
            },
            {
                "start_time": 60.0954545,
                "end_time": 60.1295455,
                "pitch": 59,
                "velocity": 64,
                "duration": 0.0340909,
                "tempo": 120.0
            },
            {
                "start_time": 60.3681818,
                "end_time": 60.4022727,
                "pitch": 71,
                "velocity": 64,
                "duration": 0.0340909,
                "tempo": 120.0
            },
            {
                "start_time": 60.6409091,
                "end_time": 60.6727273,
                "pitch": 60,
                "velocity": 64,
                "duration": 0.0318182,
                "tempo": 120.0
            },
            {
                "start_time": 60.7727273,
                "end_time": 60.8068182,
                "pitch": 60,
                "velocity": 64,
                "duration": 0.0340909,
                "tempo": 120.0
            },
            {
                "start_time": 60.9068182,
                "end_time": 60.9409091,
                "pitch": 60,
                "velocity": 64,
                "duration": 0.0340909,
                "tempo": 120.0
            },
            {
                "start_time": 61.175,
                "end_time": 61.2068182,
                "pitch": 72,
                "velocity": 64,
                "duration": 0.0318182,
                "tempo": 120.0
            },
            {
                "start_time": 61.3068182,
                "end_time": 61.3409091,
                "pitch": 72,
                "velocity": 64,
                "duration": 0.0340909,
                "tempo": 120.0
            },
            {
                "start_time": 61.4409091,
                "end_time": 61.475,
                "pitch": 55,
                "velocity": 64,
                "duration": 0.0340909,
                "tempo": 120.0
            },
            {
                "start_time": 61.575,
                "end_time": 61.6090909,
                "pitch": 55,
                "velocity": 64,
                "duration": 0.0340909,
                "tempo": 120.0
            },
            {
                "start_time": 61.7090909,
                "end_time": 61.7431818,
                "pitch": 60,
                "velocity": 64,
                "duration": 0.0340909,
                "tempo": 120.0
            },
            {
                "start_time": 62.2522727,
                "end_time": 62.2863636,
                "pitch": 69,
                "velocity": 64,
                "duration": 0.0340909,
                "tempo": 120.0
            },
            {
                "start_time": 62.3863636,
                "end_time": 62.4204545,
                "pitch": 67,
                "velocity": 64,
                "duration": 0.0340909,
                "tempo": 120.0
            },
            {
                "start_time": 62.5204545,
                "end_time": 62.5522727,
                "pitch": 66,
                "velocity": 64,
                "duration": 0.0318182,
                "tempo": 120.0
            },
            {
                "start_time": 62.6522727,
                "end_time": 62.6863636,
                "pitch": 64,
                "velocity": 64,
                "duration": 0.0340909,
                "tempo": 120.0
            },
            {
                "start_time": 62.7863636,
                "end_time": 62.8204545,
                "pitch": 62,
                "velocity": 64,
                "duration": 0.0340909,
                "tempo": 120.0
            },
            {
                "start_time": 62.9204545,
                "end_time": 62.9545455,
                "pitch": 62,
                "velocity": 64,
                "duration": 0.0340909,
                "tempo": 120.0
            },
            {
                "start_time": 63.0545455,
                "end_time": 63.0886364,
                "pitch": 62,
                "velocity": 64,
                "duration": 0.0340909,
                "tempo": 120.0
            },
            {
                "start_time": 63.3204545,
                "end_time": 63.3545455,
                "pitch": 74,
                "velocity": 64,
                "duration": 0.0340909,
                "tempo": 120.0
            },
            {
                "start_time": 63.4568182,
                "end_time": 63.4909091,
                "pitch": 74,
                "velocity": 64,
                "duration": 0.0340909,
                "tempo": 120.0
            },
            {
                "start_time": 63.5931818,
                "end_time": 63.6272727,
                "pitch": 57,
                "velocity": 64,
                "duration": 0.0340909,
                "tempo": 120.0
            },
            {
                "start_time": 63.7295455,
                "end_time": 63.7636364,
                "pitch": 57,
                "velocity": 64,
                "duration": 0.0340909,
                "tempo": 120.0
            },
            {
                "start_time": 63.8659091,
                "end_time": 63.8977273,
                "pitch": 62,
                "velocity": 64,
                "duration": 0.0318182,
                "tempo": 120.0
            },
            {
                "start_time": 64.4,
                "end_time": 64.4340909,
                "pitch": 66,
                "velocity": 64,
                "duration": 0.0340909,
                "tempo": 120.0
            },
            {
                "start_time": 64.5363636,
                "end_time": 64.5704545,
                "pitch": 64,
                "velocity": 64,
                "duration": 0.0340909,
                "tempo": 120.0
            },
            {
                "start_time": 64.6704545,
                "end_time": 64.7045455,
                "pitch": 62,
                "velocity": 64,
                "duration": 0.0340909,
                "tempo": 120.0
            },
            {
                "start_time": 64.8068182,
                "end_time": 64.8409091,
                "pitch": 60,
                "velocity": 64,
                "duration": 0.0340909,
                "tempo": 120.0
            },
            {
                "start_time": 64.9431818,
                "end_time": 64.9772727,
                "pitch": 52,
                "velocity": 64,
                "duration": 0.0340909,
                "tempo": 120.0
            },
            {
                "start_time": 65.0772727,
                "end_time": 65.1113636,
                "pitch": 52,
                "velocity": 64,
                "duration": 0.0340909,
                "tempo": 120.0
            },
            {
                "start_time": 65.2113636,
                "end_time": 65.2431818,
                "pitch": 52,
                "velocity": 64,
                "duration": 0.0318182,
                "tempo": 120.0
            },
            {
                "start_time": 65.4772727,
                "end_time": 65.5113636,
                "pitch": 64,
                "velocity": 64,
                "duration": 0.0340909,
                "tempo": 120.0
            },
            {
                "start_time": 65.6113636,
                "end_time": 65.6454545,
                "pitch": 64,
                "velocity": 64,
                "duration": 0.0340909,
                "tempo": 120.0
            },
            {
                "start_time": 65.7454545,
                "end_time": 65.7795455,
                "pitch": 56,
                "velocity": 64,
                "duration": 0.0340909,
                "tempo": 120.0
            },
            {
                "start_time": 65.8795455,
                "end_time": 65.9113636,
                "pitch": 56,
                "velocity": 64,
                "duration": 0.0318182,
                "tempo": 120.0
            },
            {
                "start_time": 66.0113636,
                "end_time": 66.0454545,
                "pitch": 52,
                "velocity": 64,
                "duration": 0.0340909,
                "tempo": 120.0
            },
            {
                "start_time": 66.5568182,
                "end_time": 66.5886364,
                "pitch": 59,
                "velocity": 64,
                "duration": 0.0318182,
                "tempo": 120.0
            },
            {
                "start_time": 66.6909091,
                "end_time": 66.7227273,
                "pitch": 57,
                "velocity": 64,
                "duration": 0.0318182,
                "tempo": 120.0
            },
            {
                "start_time": 66.8227273,
                "end_time": 66.8568182,
                "pitch": 68,
                "velocity": 64,
                "duration": 0.0340909,
                "tempo": 120.0
            },
            {
                "start_time": 66.9568182,
                "end_time": 66.9909091,
                "pitch": 66,
                "velocity": 64,
                "duration": 0.0340909,
                "tempo": 120.0
            },
            {
                "start_time": 67.0909091,
                "end_time": 67.125,
                "pitch": 52,
                "velocity": 64,
                "duration": 0.0340909,
                "tempo": 120.0
            },
            {
                "start_time": 67.3568182,
                "end_time": 67.3909091,
                "pitch": 64,
                "velocity": 64,
                "duration": 0.0340909,
                "tempo": 120.0
            },
            {
                "start_time": 67.625,
                "end_time": 67.6590909,
                "pitch": 54,
                "velocity": 64,
                "duration": 0.0340909,
                "tempo": 120.0
            },
            {
                "start_time": 67.8977273,
                "end_time": 67.9318182,
                "pitch": 66,
                "velocity": 64,
                "duration": 0.0340909,
                "tempo": 120.0
            },
            {
                "start_time": 68.1681818,
                "end_time": 68.2022727,
                "pitch": 56,
                "velocity": 64,
                "duration": 0.0340909,
                "tempo": 120.0
            },
            {
                "start_time": 68.3022727,
                "end_time": 68.3363636,
                "pitch": 56,
                "velocity": 64,
                "duration": 0.0340909,
                "tempo": 120.0
            },
            {
                "start_time": 68.4363636,
                "end_time": 68.4704545,
                "pitch": 68,
                "velocity": 64,
                "duration": 0.0340909,
                "tempo": 120.0
            },
            {
                "start_time": 68.7022727,
                "end_time": 68.7363636,
                "pitch": 59,
                "velocity": 64,
                "duration": 0.0340909,
                "tempo": 120.0
            },
            {
                "start_time": 68.9704545,
                "end_time": 69.0045455,
                "pitch": 71,
                "velocity": 64,
                "duration": 0.0340909,
                "tempo": 120.0
            }
        ],
        "Violin": [
            {
                "start_time": 0.2045455,
                "end_time": 0.3522727,
                "pitch": 71,
                "velocity": 80,
                "duration": 0.1477273,
                "tempo": 120.0
            },
            {
                "start_time": 0.4159091,
                "end_time": 1.6909091,
                "pitch": 73,
                "velocity": 80,
                "duration": 1.275,
                "tempo": 120.0
            },
            {
                "start_time": 1.775,
                "end_time": 1.9636364,
                "pitch": 64,
                "velocity": 80,
                "duration": 0.1886364,
                "tempo": 120.0
            },
            {
                "start_time": 2.0477273,
                "end_time": 2.2318182,
                "pitch": 76,
                "velocity": 80,
                "duration": 0.1840909,
                "tempo": 120.0
            },
            {
                "start_time": 2.3159091,
                "end_time": 2.5159091,
                "pitch": 64,
                "velocity": 80,
                "duration": 0.2,
                "tempo": 120.0
            },
            {
                "start_time": 2.5818182,
                "end_time": 2.6818182,
                "pitch": 71,
                "velocity": 80,
                "duration": 0.1,
                "tempo": 120.0
            },
            {
                "start_time": 2.7159091,
                "end_time": 2.8159091,
                "pitch": 73,
                "velocity": 80,
                "duration": 0.1,
                "tempo": 120.0
            },
            {
                "start_time": 2.85,
                "end_time": 3.9272727,
                "pitch": 71,
                "velocity": 80,
                "duration": 1.0772727,
                "tempo": 120.0
            },
            {
                "start_time": 4.1954545,
                "end_time": 4.3954545,
                "pitch": 69,
                "velocity": 80,
                "duration": 0.2,
                "tempo": 120.0
            },
            {
                "start_time": 4.4613636,
                "end_time": 4.6613636,
                "pitch": 68,
                "velocity": 80,
                "duration": 0.2,
                "tempo": 120.0
            },
            {
                "start_time": 4.7295455,
                "end_time": 5.0363636,
                "pitch": 66,
                "velocity": 80,
                "duration": 0.3068182,
                "tempo": 120.0
            },
            {
                "start_time": 5.1363636,
                "end_time": 5.2386364,
                "pitch": 64,
                "velocity": 80,
                "duration": 0.1022727,
                "tempo": 120.0
            },
            {
                "start_time": 5.2727273,
                "end_time": 5.5727273,
                "pitch": 66,
                "velocity": 80,
                "duration": 0.3,
                "tempo": 120.0
            },
            {
                "start_time": 5.675,
                "end_time": 5.775,
                "pitch": 64,
                "velocity": 80,
                "duration": 0.1,
                "tempo": 120.0
            },
            {
                "start_time": 5.8068182,
                "end_time": 6.0090909,
                "pitch": 66,
                "velocity": 80,
                "duration": 0.2022727,
                "tempo": 120.0
            },
            {
                "start_time": 6.075,
                "end_time": 6.275,
                "pitch": 68,
                "velocity": 80,
                "duration": 0.2,
                "tempo": 120.0
            },
            {
                "start_time": 6.3409091,
                "end_time": 6.5431818,
                "pitch": 69,
                "velocity": 80,
                "duration": 0.2022727,
                "tempo": 120.0
            },
            {
                "start_time": 6.6090909,
                "end_time": 6.8090909,
                "pitch": 71,
                "velocity": 80,
                "duration": 0.2,
                "tempo": 120.0
            },
            {
                "start_time": 6.8772727,
                "end_time": 7.2840909,
                "pitch": 74,
                "velocity": 80,
                "duration": 0.4068182,
                "tempo": 120.0
            },
            {
                "start_time": 7.4204545,
                "end_time": 7.8204545,
                "pitch": 73,
                "velocity": 80,
                "duration": 0.4,
                "tempo": 120.0
            },
            {
                "start_time": 7.9545455,
                "end_time": 8.1590909,
                "pitch": 71,
                "velocity": 80,
                "duration": 0.2045455,
                "tempo": 120.0
            },
            {
                "start_time": 8.2272727,
                "end_time": 8.6318182,
                "pitch": 69,
                "velocity": 80,
                "duration": 0.4045455,
                "tempo": 120.0
            },
            {
                "start_time": 8.7659091,
                "end_time": 8.9659091,
                "pitch": 71,
                "velocity": 80,
                "duration": 0.2,
                "tempo": 120.0
            },
            {
                "start_time": 9.0340909,
                "end_time": 10.3068182,
                "pitch": 73,
                "velocity": 80,
                "duration": 1.2727273,
                "tempo": 120.0
            },
            {
                "start_time": 10.3727273,
                "end_time": 10.5772727,
                "pitch": 64,
                "velocity": 80,
                "duration": 0.2045455,
                "tempo": 120.0
            },
            {
                "start_time": 10.6454545,
                "end_time": 10.8454545,
                "pitch": 76,
                "velocity": 80,
                "duration": 0.2,
                "tempo": 120.0
            },
            {
                "start_time": 10.9136364,
                "end_time": 11.1136364,
                "pitch": 64,
                "velocity": 80,
                "duration": 0.2,
                "tempo": 120.0
            },
            {
                "start_time": 11.1795455,
                "end_time": 11.2795455,
                "pitch": 71,
                "velocity": 80,
                "duration": 0.1,
                "tempo": 120.0
            },
            {
                "start_time": 11.3136364,
                "end_time": 11.4136364,
                "pitch": 73,
                "velocity": 80,
                "duration": 0.1,
                "tempo": 120.0
            },
            {
                "start_time": 11.4477273,
                "end_time": 12.525,
                "pitch": 71,
                "velocity": 80,
                "duration": 1.0772727,
                "tempo": 120.0
            },
            {
                "start_time": 12.7931818,
                "end_time": 12.9931818,
                "pitch": 69,
                "velocity": 80,
                "duration": 0.2,
                "tempo": 120.0
            },
            {
                "start_time": 13.0590909,
                "end_time": 13.2613636,
                "pitch": 68,
                "velocity": 80,
                "duration": 0.2022727,
                "tempo": 120.0
            },
            {
                "start_time": 13.3272727,
                "end_time": 13.6340909,
                "pitch": 66,
                "velocity": 80,
                "duration": 0.3068182,
                "tempo": 120.0
            },
            {
                "start_time": 13.7363636,
                "end_time": 13.8363636,
                "pitch": 64,
                "velocity": 80,
                "duration": 0.1,
                "tempo": 120.0
            },
            {
                "start_time": 13.8704545,
                "end_time": 14.1727273,
                "pitch": 66,
                "velocity": 80,
                "duration": 0.3022727,
                "tempo": 120.0
            },
            {
                "start_time": 14.2727273,
                "end_time": 14.3727273,
                "pitch": 64,
                "velocity": 80,
                "duration": 0.1,
                "tempo": 120.0
            },
            {
                "start_time": 14.4045455,
                "end_time": 14.6068182,
                "pitch": 66,
                "velocity": 80,
                "duration": 0.2022727,
                "tempo": 120.0
            },
            {
                "start_time": 14.6727273,
                "end_time": 14.8727273,
                "pitch": 68,
                "velocity": 80,
                "duration": 0.2,
                "tempo": 120.0
            },
            {
                "start_time": 14.9409091,
                "end_time": 15.1431818,
                "pitch": 69,
                "velocity": 80,
                "duration": 0.2022727,
                "tempo": 120.0
            },
            {
                "start_time": 15.2113636,
                "end_time": 15.4159091,
                "pitch": 71,
                "velocity": 80,
                "duration": 0.2045455,
                "tempo": 120.0
            },
            {
                "start_time": 15.4840909,
                "end_time": 15.8840909,
                "pitch": 74,
                "velocity": 80,
                "duration": 0.4,
                "tempo": 120.0
            },
            {
                "start_time": 16.0181818,
                "end_time": 16.4272727,
                "pitch": 73,
                "velocity": 80,
                "duration": 0.4090909,
                "tempo": 120.0
            },
            {
                "start_time": 16.5613636,
                "end_time": 16.7636364,
                "pitch": 71,
                "velocity": 80,
                "duration": 0.2022727,
                "tempo": 120.0
            },
            {
                "start_time": 16.8295455,
                "end_time": 17.2295455,
                "pitch": 69,
                "velocity": 80,
                "duration": 0.4,
                "tempo": 120.0
            },
            {
                "start_time": 17.3636364,
                "end_time": 17.5636364,
                "pitch": 71,
                "velocity": 80,
                "duration": 0.2,
                "tempo": 120.0
            },
            {
                "start_time": 17.6318182,
                "end_time": 18.2409091,
                "pitch": 76,
                "velocity": 80,
                "duration": 0.6090909,
                "tempo": 120.0
            },
            {
                "start_time": 18.4431818,
                "end_time": 18.5431818,
                "pitch": 76,
                "velocity": 80,
                "duration": 0.1,
                "tempo": 120.0
            },
            {
                "start_time": 18.575,
                "end_time": 18.675,
                "pitch": 76,
                "velocity": 80,
                "duration": 0.1,
                "tempo": 120.0
            },
            {
                "start_time": 18.7090909,
                "end_time": 18.9090909,
                "pitch": 76,
                "velocity": 80,
                "duration": 0.2,
                "tempo": 120.0
            },
            {
                "start_time": 18.9772727,
                "end_time": 19.1772727,
                "pitch": 74,
                "velocity": 80,
                "duration": 0.2,
                "tempo": 120.0
            },
            {
                "start_time": 19.2431818,
                "end_time": 19.4431818,
                "pitch": 73,
                "velocity": 80,
                "duration": 0.2,
                "tempo": 120.0
            },
            {
                "start_time": 19.5113636,
                "end_time": 19.7113636,
                "pitch": 74,
                "velocity": 80,
                "duration": 0.2,
                "tempo": 120.0
            },
            {
                "start_time": 19.7772727,
                "end_time": 20.3886364,
                "pitch": 76,
                "velocity": 80,
                "duration": 0.6113636,
                "tempo": 120.0
            },
            {
                "start_time": 20.5886364,
                "end_time": 20.6886364,
                "pitch": 76,
                "velocity": 80,
                "duration": 0.1,
                "tempo": 120.0
            },
            {
                "start_time": 20.7227273,
                "end_time": 20.8227273,
                "pitch": 76,
                "velocity": 80,
                "duration": 0.1,
                "tempo": 120.0
            },
            {
                "start_time": 20.8568182,
                "end_time": 21.0613636,
                "pitch": 76,
                "velocity": 80,
                "duration": 0.2045455,
                "tempo": 120.0
            },
            {
                "start_time": 21.1272727,
                "end_time": 21.3318182,
                "pitch": 74,
                "velocity": 80,
                "duration": 0.2045455,
                "tempo": 120.0
            },
            {
                "start_time": 21.4,
                "end_time": 21.6,
                "pitch": 73,
                "velocity": 80,
                "duration": 0.2,
                "tempo": 120.0
            },
            {
                "start_time": 21.6681818,
                "end_time": 21.8681818,
                "pitch": 74,
                "velocity": 80,
                "duration": 0.2,
                "tempo": 120.0
            },
            {
                "start_time": 21.9340909,
                "end_time": 22.5363636,
                "pitch": 76,
                "velocity": 80,
                "duration": 0.6022727,
                "tempo": 120.0
            },
            {
                "start_time": 22.7409091,
                "end_time": 22.8431818,
                "pitch": 76,
                "velocity": 80,
                "duration": 0.1022727,
                "tempo": 120.0
            },
            {
                "start_time": 22.8772727,
                "end_time": 22.9795455,
                "pitch": 76,
                "velocity": 80,
                "duration": 0.1022727,
                "tempo": 120.0
            },
            {
                "start_time": 23.0136364,
                "end_time": 23.2136364,
                "pitch": 76,
                "velocity": 80,
                "duration": 0.2,
                "tempo": 120.0
            },
            {
                "start_time": 23.2795455,
                "end_time": 23.4795455,
                "pitch": 74,
                "velocity": 80,
                "duration": 0.2,
                "tempo": 120.0
            },
            {
                "start_time": 23.5477273,
                "end_time": 23.7477273,
                "pitch": 73,
                "velocity": 80,
                "duration": 0.2,
                "tempo": 120.0
            },
            {
                "start_time": 23.8136364,
                "end_time": 24.0159091,
                "pitch": 71,
                "velocity": 80,
                "duration": 0.2022727,
                "tempo": 120.0
            },
            {
                "start_time": 24.0818182,
                "end_time": 24.3818182,
                "pitch": 71,
                "velocity": 80,
                "duration": 0.3,
                "tempo": 120.0
            },
            {
                "start_time": 24.4818182,
                "end_time": 24.5818182,
                "pitch": 73,
                "velocity": 80,
                "duration": 0.1,
                "tempo": 120.0
            },
            {
                "start_time": 24.6159091,
                "end_time": 25.8272727,
                "pitch": 69,
                "velocity": 80,
                "duration": 1.2113636,
                "tempo": 120.0
            },
            {
                "start_time": 26.2295455,
                "end_time": 26.8386364,
                "pitch": 65,
                "velocity": 80,
                "duration": 0.6090909,
                "tempo": 120.0
            },
            {
                "start_time": 27.0409091,
                "end_time": 27.1409091,
                "pitch": 65,
                "velocity": 80,
                "duration": 0.1,
                "tempo": 120.0
            },
            {
                "start_time": 27.1727273,
                "end_time": 27.2727273,
                "pitch": 65,
                "velocity": 80,
                "duration": 0.1,
                "tempo": 120.0
            },
            {
                "start_time": 27.3068182,
                "end_time": 27.5113636,
                "pitch": 69,
                "velocity": 80,
                "duration": 0.2045455,
                "tempo": 120.0
            },
            {
                "start_time": 27.5795455,
                "end_time": 27.7840909,
                "pitch": 71,
                "velocity": 80,
                "duration": 0.2045455,
                "tempo": 120.0
            },
            {
                "start_time": 27.8522727,
                "end_time": 28.0522727,
                "pitch": 73,
                "velocity": 80,
                "duration": 0.2,
                "tempo": 120.0
            },
            {
                "start_time": 28.1181818,
                "end_time": 28.3181818,
                "pitch": 74,
                "velocity": 80,
                "duration": 0.2,
                "tempo": 120.0
            },
            {
                "start_time": 28.3863636,
                "end_time": 28.9886364,
                "pitch": 76,
                "velocity": 80,
                "duration": 0.6022727,
                "tempo": 120.0
            },
            {
                "start_time": 29.1909091,
                "end_time": 29.3954545,
                "pitch": 71,
                "velocity": 80,
                "duration": 0.2045455,
                "tempo": 120.0
            },
            {
                "start_time": 29.4636364,
                "end_time": 29.8636364,
                "pitch": 71,
                "velocity": 80,
                "duration": 0.4,
                "tempo": 120.0
            },
            {
                "start_time": 29.9977273,
                "end_time": 30.1977273,
                "pitch": 73,
                "velocity": 80,
                "duration": 0.2,
                "tempo": 120.0
            },
            {
                "start_time": 30.2659091,
                "end_time": 30.4659091,
                "pitch": 71,
                "velocity": 80,
                "duration": 0.2,
                "tempo": 120.0
            },
            {
                "start_time": 30.5318182,
                "end_time": 30.6340909,
                "pitch": 66,
                "velocity": 80,
                "duration": 0.1022727,
                "tempo": 120.0
            },
            {
                "start_time": 30.6681818,
                "end_time": 30.7704545,
                "pitch": 64,
                "velocity": 80,
                "duration": 0.1022727,
                "tempo": 120.0
            },
            {
                "start_time": 30.8045455,
                "end_time": 30.9068182,
                "pitch": 66,
                "velocity": 80,
                "duration": 0.1022727,
                "tempo": 120.0
            },
            {
                "start_time": 30.9409091,
                "end_time": 31.0431818,
                "pitch": 68,
                "velocity": 80,
                "duration": 0.1022727,
                "tempo": 120.0
            },
            {
                "start_time": 31.0772727,
                "end_time": 31.1772727,
                "pitch": 69,
                "velocity": 80,
                "duration": 0.1,
                "tempo": 120.0
            },
            {
                "start_time": 31.2090909,
                "end_time": 31.3113636,
                "pitch": 68,
                "velocity": 80,
                "duration": 0.1022727,
                "tempo": 120.0
            },
            {
                "start_time": 31.3431818,
                "end_time": 31.4431818,
                "pitch": 69,
                "velocity": 80,
                "duration": 0.1,
                "tempo": 120.0
            },
            {
                "start_time": 31.4772727,
                "end_time": 31.5772727,
                "pitch": 71,
                "velocity": 80,
                "duration": 0.1,
                "tempo": 120.0
            },
            {
                "start_time": 31.6113636,
                "end_time": 31.7113636,
                "pitch": 73,
                "velocity": 80,
                "duration": 0.1,
                "tempo": 120.0
            },
            {
                "start_time": 31.7454545,
                "end_time": 31.8454545,
                "pitch": 71,
                "velocity": 80,
                "duration": 0.1,
                "tempo": 120.0
            },
            {
                "start_time": 31.8772727,
                "end_time": 31.9772727,
                "pitch": 73,
                "velocity": 80,
                "duration": 0.1,
                "tempo": 120.0
            },
            {
                "start_time": 32.0113636,
                "end_time": 32.1113636,
                "pitch": 74,
                "velocity": 80,
                "duration": 0.1,
                "tempo": 120.0
            },
            {
                "start_time": 32.1454545,
                "end_time": 32.2454545,
                "pitch": 76,
                "velocity": 80,
                "duration": 0.1,
                "tempo": 120.0
            },
            {
                "start_time": 32.2795455,
                "end_time": 32.3795455,
                "pitch": 74,
                "velocity": 80,
                "duration": 0.1,
                "tempo": 120.0
            },
            {
                "start_time": 32.4136364,
                "end_time": 32.5136364,
                "pitch": 76,
                "velocity": 80,
                "duration": 0.1,
                "tempo": 120.0
            },
            {
                "start_time": 32.5454545,
                "end_time": 32.6454545,
                "pitch": 78,
                "velocity": 80,
                "duration": 0.1,
                "tempo": 120.0
            },
            {
                "start_time": 32.6795455,
                "end_time": 33.0886364,
                "pitch": 76,
                "velocity": 80,
                "duration": 0.4090909,
                "tempo": 120.0
            },
            {
                "start_time": 33.2227273,
                "end_time": 33.625,
                "pitch": 74,
                "velocity": 80,
                "duration": 0.4022727,
                "tempo": 120.0
            },
            {
                "start_time": 33.7590909,
                "end_time": 34.1590909,
                "pitch": 73,
                "velocity": 80,
                "duration": 0.4,
                "tempo": 120.0
            },
            {
                "start_time": 34.2931818,
                "end_time": 34.4954545,
                "pitch": 69,
                "velocity": 80,
                "duration": 0.2022727,
                "tempo": 120.0
            },
            {
                "start_time": 34.5636364,
                "end_time": 34.7681818,
                "pitch": 71,
                "velocity": 80,
                "duration": 0.2045455,
                "tempo": 120.0
            },
            {
                "start_time": 34.8363636,
                "end_time": 36.1090909,
                "pitch": 73,
                "velocity": 80,
                "duration": 1.2727273,
                "tempo": 120.0
            },
            {
                "start_time": 36.1772727,
                "end_time": 36.3818182,
                "pitch": 64,
                "velocity": 80,
                "duration": 0.2045455,
                "tempo": 120.0
            },
            {
                "start_time": 36.45,
                "end_time": 36.65,
                "pitch": 76,
                "velocity": 80,
                "duration": 0.2,
                "tempo": 120.0
            },
            {
                "start_time": 36.7159091,
                "end_time": 36.9159091,
                "pitch": 64,
                "velocity": 80,
                "duration": 0.2,
                "tempo": 120.0
            },
            {
                "start_time": 36.9840909,
                "end_time": 37.0863636,
                "pitch": 71,
                "velocity": 80,
                "duration": 0.1022727,
                "tempo": 120.0
            },
            {
                "start_time": 37.1204545,
                "end_time": 37.2204545,
                "pitch": 73,
                "velocity": 80,
                "duration": 0.1,
                "tempo": 120.0
            },
            {
                "start_time": 37.2545455,
                "end_time": 38.3295455,
                "pitch": 71,
                "velocity": 80,
                "duration": 1.075,
                "tempo": 120.0
            },
            {
                "start_time": 38.5954545,
                "end_time": 38.7977273,
                "pitch": 69,
                "velocity": 80,
                "duration": 0.2022727,
                "tempo": 120.0
            },
            {
                "start_time": 38.8636364,
                "end_time": 39.0636364,
                "pitch": 68,
                "velocity": 80,
                "duration": 0.2,
                "tempo": 120.0
            },
            {
                "start_time": 39.1295455,
                "end_time": 39.4363636,
                "pitch": 66,
                "velocity": 80,
                "duration": 0.3068182,
                "tempo": 120.0
            },
            {
                "start_time": 39.5386364,
                "end_time": 39.6409091,
                "pitch": 64,
                "velocity": 80,
                "duration": 0.1022727,
                "tempo": 120.0
            },
            {
                "start_time": 39.675,
                "end_time": 39.975,
                "pitch": 66,
                "velocity": 80,
                "duration": 0.3,
                "tempo": 120.0
            },
            {
                "start_time": 40.075,
                "end_time": 40.175,
                "pitch": 64,
                "velocity": 80,
                "duration": 0.1,
                "tempo": 120.0
            },
            {
                "start_time": 40.2090909,
                "end_time": 40.4136364,
                "pitch": 66,
                "velocity": 80,
                "duration": 0.2045455,
                "tempo": 120.0
            },
            {
                "start_time": 40.4818182,
                "end_time": 40.6840909,
                "pitch": 68,
                "velocity": 80,
                "duration": 0.2022727,
                "tempo": 120.0
            },
            {
                "start_time": 40.7522727,
                "end_time": 40.9522727,
                "pitch": 69,
                "velocity": 80,
                "duration": 0.2,
                "tempo": 120.0
            },
            {
                "start_time": 41.0204545,
                "end_time": 41.2204545,
                "pitch": 71,
                "velocity": 80,
                "duration": 0.2,
                "tempo": 120.0
            },
            {
                "start_time": 41.2863636,
                "end_time": 41.6886364,
                "pitch": 74,
                "velocity": 80,
                "duration": 0.4022727,
                "tempo": 120.0
            },
            {
                "start_time": 41.8227273,
                "end_time": 42.2295455,
                "pitch": 73,
                "velocity": 80,
                "duration": 0.4068182,
                "tempo": 120.0
            },
            {
                "start_time": 42.3659091,
                "end_time": 42.5659091,
                "pitch": 71,
                "velocity": 80,
                "duration": 0.2,
                "tempo": 120.0
            },
            {
                "start_time": 42.6318182,
                "end_time": 43.0340909,
                "pitch": 69,
                "velocity": 80,
                "duration": 0.4022727,
                "tempo": 120.0
            },
            {
                "start_time": 43.1681818,
                "end_time": 43.3681818,
                "pitch": 71,
                "velocity": 80,
                "duration": 0.2,
                "tempo": 120.0
            },
            {
                "start_time": 43.4340909,
                "end_time": 44.7136364,
                "pitch": 73,
                "velocity": 80,
                "duration": 1.2795455,
                "tempo": 120.0
            },
            {
                "start_time": 44.7795455,
                "end_time": 44.9795455,
                "pitch": 64,
                "velocity": 80,
                "duration": 0.2,
                "tempo": 120.0
            },
            {
                "start_time": 45.0477273,
                "end_time": 45.2477273,
                "pitch": 76,
                "velocity": 80,
                "duration": 0.2,
                "tempo": 120.0
            },
            {
                "start_time": 45.3136364,
                "end_time": 45.5136364,
                "pitch": 64,
                "velocity": 80,
                "duration": 0.2,
                "tempo": 120.0
            },
            {
                "start_time": 45.5818182,
                "end_time": 45.6840909,
                "pitch": 71,
                "velocity": 80,
                "duration": 0.1022727,
                "tempo": 120.0
            },
            {
                "start_time": 45.7181818,
                "end_time": 45.8204545,
                "pitch": 73,
                "velocity": 80,
                "duration": 0.1022727,
                "tempo": 120.0
            },
            {
                "start_time": 45.8545455,
                "end_time": 46.9318182,
                "pitch": 71,
                "velocity": 80,
                "duration": 1.0772727,
                "tempo": 120.0
            },
            {
                "start_time": 47.2045455,
                "end_time": 47.4045455,
                "pitch": 69,
                "velocity": 80,
                "duration": 0.2,
                "tempo": 120.0
            },
            {
                "start_time": 47.4704545,
                "end_time": 47.6704545,
                "pitch": 68,
                "velocity": 80,
                "duration": 0.2,
                "tempo": 120.0
            },
            {
                "start_time": 47.7386364,
                "end_time": 48.0386364,
                "pitch": 66,
                "velocity": 80,
                "duration": 0.3,
                "tempo": 120.0
            },
            {
                "start_time": 48.1386364,
                "end_time": 48.2386364,
                "pitch": 64,
                "velocity": 80,
                "duration": 0.1,
                "tempo": 120.0
            },
            {
                "start_time": 48.2727273,
                "end_time": 48.5795455,
                "pitch": 66,
                "velocity": 80,
                "duration": 0.3068182,
                "tempo": 120.0
            },
            {
                "start_time": 48.6795455,
                "end_time": 48.7818182,
                "pitch": 64,
                "velocity": 80,
                "duration": 0.1022727,
                "tempo": 120.0
            },
            {
                "start_time": 48.8159091,
                "end_time": 49.0159091,
                "pitch": 66,
                "velocity": 80,
                "duration": 0.2,
                "tempo": 120.0
            },
            {
                "start_time": 49.0840909,
                "end_time": 49.2840909,
                "pitch": 68,
                "velocity": 80,
                "duration": 0.2,
                "tempo": 120.0
            },
            {
                "start_time": 49.35,
                "end_time": 49.5522727,
                "pitch": 69,
                "velocity": 80,
                "duration": 0.2022727,
                "tempo": 120.0
            },
            {
                "start_time": 49.6181818,
                "end_time": 49.8181818,
                "pitch": 71,
                "velocity": 80,
                "duration": 0.2,
                "tempo": 120.0
            },
            {
                "start_time": 49.8840909,
                "end_time": 50.2863636,
                "pitch": 74,
                "velocity": 80,
                "duration": 0.4022727,
                "tempo": 120.0
            },
            {
                "start_time": 50.4204545,
                "end_time": 50.8272727,
                "pitch": 73,
                "velocity": 80,
                "duration": 0.4068182,
                "tempo": 120.0
            },
            {
                "start_time": 50.9636364,
                "end_time": 51.3636364,
                "pitch": 69,
                "velocity": 80,
                "duration": 0.4,
                "tempo": 120.0
            },
            {
                "start_time": 51.4977273,
                "end_time": 51.9068182,
                "pitch": 65,
                "velocity": 80,
                "duration": 0.4090909,
                "tempo": 120.0
            },
            {
                "start_time": 52.0409091,
                "end_time": 52.5772727,
                "pitch": 67,
                "velocity": 80,
                "duration": 0.5363636,
                "tempo": 120.0
            },
            {
                "start_time": 52.5772727,
                "end_time": 52.5931818,
                "pitch": 67,
                "velocity": 80,
                "duration": 0.0159091,
                "tempo": 120.0
            },
            {
                "start_time": 52.5931818,
                "end_time": 52.6431818,
                "pitch": 67,
                "velocity": 80,
                "duration": 0.05,
                "tempo": 120.0
            },
            {
                "start_time": 52.8431818,
                "end_time": 53.0431818,
                "pitch": 67,
                "velocity": 80,
                "duration": 0.2,
                "tempo": 120.0
            },
            {
                "start_time": 53.1113636,
                "end_time": 53.3136364,
                "pitch": 72,
                "velocity": 80,
                "duration": 0.2022727,
                "tempo": 120.0
            },
            {
                "start_time": 53.3818182,
                "end_time": 53.5863636,
                "pitch": 74,
                "velocity": 80,
                "duration": 0.2045455,
                "tempo": 120.0
            },
            {
                "start_time": 53.6545455,
                "end_time": 54.0545455,
                "pitch": 76,
                "velocity": 80,
                "duration": 0.4,
                "tempo": 120.0
            },
            {
                "start_time": 54.1886364,
                "end_time": 54.7909091,
                "pitch": 69,
                "velocity": 80,
                "duration": 0.6022727,
                "tempo": 120.0
            },
            {
                "start_time": 54.9909091,
                "end_time": 55.1909091,
                "pitch": 69,
                "velocity": 80,
                "duration": 0.2,
                "tempo": 120.0
            },
            {
                "start_time": 55.2568182,
                "end_time": 55.4613636,
                "pitch": 78,
                "velocity": 80,
                "duration": 0.2045455,
                "tempo": 120.0
            },
            {
                "start_time": 55.5295455,
                "end_time": 55.7340909,
                "pitch": 76,
                "velocity": 80,
                "duration": 0.2045455,
                "tempo": 120.0
            },
            {
                "start_time": 55.8022727,
                "end_time": 56.0022727,
                "pitch": 74,
                "velocity": 80,
                "duration": 0.2,
                "tempo": 120.0
            },
            {
                "start_time": 56.0681818,
                "end_time": 56.2681818,
                "pitch": 72,
                "velocity": 80,
                "duration": 0.2,
                "tempo": 120.0
            },
            {
                "start_time": 56.3363636,
                "end_time": 57.1477273,
                "pitch": 74,
                "velocity": 80,
                "duration": 0.8113636,
                "tempo": 120.0
            },
            {
                "start_time": 57.4136364,
                "end_time": 57.8159091,
                "pitch": 69,
                "velocity": 80,
                "duration": 0.4022727,
                "tempo": 120.0
            },
            {
                "start_time": 57.9477273,
                "end_time": 58.15,
                "pitch": 74,
                "velocity": 80,
                "duration": 0.2022727,
                "tempo": 120.0
            },
            {
                "start_time": 58.2159091,
                "end_time": 58.4159091,
                "pitch": 71,
                "velocity": 80,
                "duration": 0.2,
                "tempo": 120.0
            },
            {
                "start_time": 58.4840909,
                "end_time": 59.0272727,
                "pitch": 67,
                "velocity": 80,
                "duration": 0.5431818,
                "tempo": 120.0
            },
            {
                "start_time": 59.0272727,
                "end_time": 59.0431818,
                "pitch": 67,
                "velocity": 80,
                "duration": 0.0159091,
                "tempo": 120.0
            },
            {
                "start_time": 59.0431818,
                "end_time": 59.2272727,
                "pitch": 67,
                "velocity": 80,
                "duration": 0.1840909,
                "tempo": 120.0
            },
            {
                "start_time": 59.2272727,
                "end_time": 59.2431818,
                "pitch": 67,
                "velocity": 80,
                "duration": 0.0159091,
                "tempo": 120.0
            },
            {
                "start_time": 59.2431818,
                "end_time": 59.4113636,
                "pitch": 67,
                "velocity": 80,
                "duration": 0.1681818,
                "tempo": 120.0
            },
            {
                "start_time": 59.4113636,
                "end_time": 59.6113636,
                "pitch": 67,
                "velocity": 80,
                "duration": 0.2,
                "tempo": 120.0
            },
            {
                "start_time": 59.6113636,
                "end_time": 59.6954545,
                "pitch": 67,
                "velocity": 80,
                "duration": 0.0840909,
                "tempo": 120.0
            },
            {
                "start_time": 60.0954545,
                "end_time": 60.1977273,
                "pitch": 67,
                "velocity": 80,
                "duration": 0.1022727,
                "tempo": 120.0
            },
            {
                "start_time": 60.2318182,
                "end_time": 60.3340909,
                "pitch": 66,
                "velocity": 80,
                "duration": 0.1022727,
                "tempo": 120.0
            },
            {
                "start_time": 60.3681818,
                "end_time": 60.4704545,
                "pitch": 64,
                "velocity": 80,
                "duration": 0.1022727,
                "tempo": 120.0
            },
            {
                "start_time": 60.5045455,
                "end_time": 60.6068182,
                "pitch": 62,
                "velocity": 80,
                "duration": 0.1022727,
                "tempo": 120.0
            },
            {
                "start_time": 60.6409091,
                "end_time": 60.8409091,
                "pitch": 64,
                "velocity": 80,
                "duration": 0.2,
                "tempo": 120.0
            },
            {
                "start_time": 60.9068182,
                "end_time": 61.3068182,
                "pitch": 66,
                "velocity": 80,
                "duration": 0.4,
                "tempo": 120.0
            },
            {
                "start_time": 61.4409091,
                "end_time": 61.6409091,
                "pitch": 67,
                "velocity": 80,
                "duration": 0.2,
                "tempo": 120.0
            },
            {
                "start_time": 61.7090909,
                "end_time": 61.9136364,
                "pitch": 69,
                "velocity": 80,
                "duration": 0.2045455,
                "tempo": 120.0
            },
            {
                "start_time": 61.9795455,
                "end_time": 62.3863636,
                "pitch": 71,
                "velocity": 80,
                "duration": 0.4068182,
                "tempo": 120.0
            },
            {
                "start_time": 62.5204545,
                "end_time": 62.7204545,
                "pitch": 72,
                "velocity": 80,
                "duration": 0.2,
                "tempo": 120.0
            },
            {
                "start_time": 62.7863636,
                "end_time": 63.1886364,
                "pitch": 74,
                "velocity": 80,
                "duration": 0.4022727,
                "tempo": 120.0
            },
            {
                "start_time": 63.3204545,
                "end_time": 63.6272727,
                "pitch": 72,
                "velocity": 80,
                "duration": 0.3068182,
                "tempo": 120.0
            },
            {
                "start_time": 63.6272727,
                "end_time": 63.7113636,
                "pitch": 72,
                "velocity": 80,
                "duration": 0.0840909,
                "tempo": 120.0
            },
            {
                "start_time": 63.7113636,
                "end_time": 63.7295455,
                "pitch": 72,
                "velocity": 80,
                "duration": 0.0181818,
                "tempo": 120.0
            },
            {
                "start_time": 63.8659091,
                "end_time": 64.2659091,
                "pitch": 71,
                "velocity": 80,
                "duration": 0.4,
                "tempo": 120.0
            },
            {
                "start_time": 64.4,
                "end_time": 64.6045455,
                "pitch": 69,
                "velocity": 80,
                "duration": 0.2045455,
                "tempo": 120.0
            },
            {
                "start_time": 64.6704545,
                "end_time": 64.7727273,
                "pitch": 67,
                "velocity": 80,
                "duration": 0.1022727,
                "tempo": 120.0
            },
            {
                "start_time": 64.8068182,
                "end_time": 64.9090909,
                "pitch": 69,
                "velocity": 80,
                "duration": 0.1022727,
                "tempo": 120.0
            },
            {
                "start_time": 64.9431818,
                "end_time": 66.1477273,
                "pitch": 71,
                "velocity": 80,
                "duration": 1.2045455,
                "tempo": 120.0
            },
            {
                "start_time": 66.5568182,
                "end_time": 66.7568182,
                "pitch": 71,
                "velocity": 80,
                "duration": 0.2,
                "tempo": 120.0
            },
            {
                "start_time": 66.8227273,
                "end_time": 67.025,
                "pitch": 69,
                "velocity": 80,
                "duration": 0.2022727,
                "tempo": 120.0
            },
            {
                "start_time": 67.0909091,
                "end_time": 68.3022727,
                "pitch": 68,
                "velocity": 80,
                "duration": 1.2113636,
                "tempo": 120.0
            },
            {
                "start_time": 68.7022727,
                "end_time": 68.9045455,
                "pitch": 69,
                "velocity": 80,
                "duration": 0.2022727,
                "tempo": 120.0
            },
            {
                "start_time": 68.9704545,
                "end_time": 69.1704545,
                "pitch": 71,
                "velocity": 80,
                "duration": 0.2,
                "tempo": 120.0
            }
        ],
        "Church Organ": [
            {
                "start_time": 0.6931818,
                "end_time": 0.7090909,
                "pitch": 79,
                "velocity": 64,
                "duration": 0.0159091,
                "tempo": 120.0
            },
            {
                "start_time": 0.7090909,
                "end_time": 0.7272727,
                "pitch": 82,
                "velocity": 64,
                "duration": 0.0181818,
                "tempo": 120.0
            },
            {
                "start_time": 0.9704545,
                "end_time": 0.9863636,
                "pitch": 81,
                "velocity": 64,
                "duration": 0.0159091,
                "tempo": 120.0
            },
            {
                "start_time": 0.9863636,
                "end_time": 1.0022727,
                "pitch": 84,
                "velocity": 64,
                "duration": 0.0159091,
                "tempo": 120.0
            },
            {
                "start_time": 1.2363636,
                "end_time": 1.2522727,
                "pitch": 78,
                "velocity": 64,
                "duration": 0.0159091,
                "tempo": 120.0
            },
            {
                "start_time": 1.2522727,
                "end_time": 1.2704545,
                "pitch": 81,
                "velocity": 64,
                "duration": 0.0181818,
                "tempo": 120.0
            },
            {
                "start_time": 1.3704545,
                "end_time": 1.3863636,
                "pitch": 79,
                "velocity": 64,
                "duration": 0.0159091,
                "tempo": 120.0
            },
            {
                "start_time": 1.3863636,
                "end_time": 1.4045455,
                "pitch": 82,
                "velocity": 64,
                "duration": 0.0181818,
                "tempo": 120.0
            },
            {
                "start_time": 1.6409091,
                "end_time": 1.6568182,
                "pitch": 81,
                "velocity": 64,
                "duration": 0.0159091,
                "tempo": 120.0
            },
            {
                "start_time": 1.6568182,
                "end_time": 1.6727273,
                "pitch": 84,
                "velocity": 64,
                "duration": 0.0159091,
                "tempo": 120.0
            },
            {
                "start_time": 1.775,
                "end_time": 1.7931818,
                "pitch": 78,
                "velocity": 64,
                "duration": 0.0181818,
                "tempo": 120.0
            },
            {
                "start_time": 1.7931818,
                "end_time": 1.8090909,
                "pitch": 81,
                "velocity": 64,
                "duration": 0.0159091,
                "tempo": 120.0
            },
            {
                "start_time": 2.0477273,
                "end_time": 2.0636364,
                "pitch": 79,
                "velocity": 64,
                "duration": 0.0159091,
                "tempo": 120.0
            },
            {
                "start_time": 2.0636364,
                "end_time": 2.0818182,
                "pitch": 82,
                "velocity": 64,
                "duration": 0.0181818,
                "tempo": 120.0
            },
            {
                "start_time": 2.3159091,
                "end_time": 2.3318182,
                "pitch": 81,
                "velocity": 64,
                "duration": 0.0159091,
                "tempo": 120.0
            },
            {
                "start_time": 2.3318182,
                "end_time": 2.3477273,
                "pitch": 84,
                "velocity": 64,
                "duration": 0.0159091,
                "tempo": 120.0
            },
            {
                "start_time": 2.5818182,
                "end_time": 2.6,
                "pitch": 78,
                "velocity": 64,
                "duration": 0.0181818,
                "tempo": 120.0
            },
            {
                "start_time": 2.6,
                "end_time": 2.6159091,
                "pitch": 81,
                "velocity": 64,
                "duration": 0.0159091,
                "tempo": 120.0
            },
            {
                "start_time": 2.85,
                "end_time": 2.8659091,
                "pitch": 79,
                "velocity": 64,
                "duration": 0.0159091,
                "tempo": 120.0
            },
            {
                "start_time": 2.8659091,
                "end_time": 2.8818182,
                "pitch": 82,
                "velocity": 64,
                "duration": 0.0159091,
                "tempo": 120.0
            },
            {
                "start_time": 3.1159091,
                "end_time": 3.1340909,
                "pitch": 81,
                "velocity": 64,
                "duration": 0.0181818,
                "tempo": 120.0
            },
            {
                "start_time": 3.1340909,
                "end_time": 3.15,
                "pitch": 84,
                "velocity": 64,
                "duration": 0.0159091,
                "tempo": 120.0
            },
            {
                "start_time": 3.3886364,
                "end_time": 3.4045455,
                "pitch": 78,
                "velocity": 64,
                "duration": 0.0159091,
                "tempo": 120.0
            },
            {
                "start_time": 3.4045455,
                "end_time": 3.4227273,
                "pitch": 81,
                "velocity": 64,
                "duration": 0.0181818,
                "tempo": 120.0
            },
            {
                "start_time": 3.525,
                "end_time": 3.5409091,
                "pitch": 79,
                "velocity": 64,
                "duration": 0.0159091,
                "tempo": 120.0
            },
            {
                "start_time": 3.5409091,
                "end_time": 3.5590909,
                "pitch": 82,
                "velocity": 64,
                "duration": 0.0181818,
                "tempo": 120.0
            },
            {
                "start_time": 3.7931818,
                "end_time": 3.8113636,
                "pitch": 81,
                "velocity": 64,
                "duration": 0.0181818,
                "tempo": 120.0
            },
            {
                "start_time": 3.8113636,
                "end_time": 3.8272727,
                "pitch": 84,
                "velocity": 64,
                "duration": 0.0159091,
                "tempo": 120.0
            },
            {
                "start_time": 3.9272727,
                "end_time": 3.9454545,
                "pitch": 78,
                "velocity": 64,
                "duration": 0.0181818,
                "tempo": 120.0
            },
            {
                "start_time": 3.9454545,
                "end_time": 3.9613636,
                "pitch": 81,
                "velocity": 64,
                "duration": 0.0159091,
                "tempo": 120.0
            },
            {
                "start_time": 4.1954545,
                "end_time": 4.2113636,
                "pitch": 79,
                "velocity": 64,
                "duration": 0.0159091,
                "tempo": 120.0
            },
            {
                "start_time": 4.2113636,
                "end_time": 4.2272727,
                "pitch": 82,
                "velocity": 64,
                "duration": 0.0159091,
                "tempo": 120.0
            },
            {
                "start_time": 4.4613636,
                "end_time": 4.4795455,
                "pitch": 81,
                "velocity": 64,
                "duration": 0.0181818,
                "tempo": 120.0
            },
            {
                "start_time": 4.4795455,
                "end_time": 4.4954545,
                "pitch": 84,
                "velocity": 64,
                "duration": 0.0159091,
                "tempo": 120.0
            },
            {
                "start_time": 4.7295455,
                "end_time": 4.7454545,
                "pitch": 78,
                "velocity": 64,
                "duration": 0.0159091,
                "tempo": 120.0
            },
            {
                "start_time": 4.7454545,
                "end_time": 4.7636364,
                "pitch": 81,
                "velocity": 64,
                "duration": 0.0181818,
                "tempo": 120.0
            },
            {
                "start_time": 5.0022727,
                "end_time": 5.0181818,
                "pitch": 79,
                "velocity": 64,
                "duration": 0.0159091,
                "tempo": 120.0
            },
            {
                "start_time": 5.0181818,
                "end_time": 5.0363636,
                "pitch": 82,
                "velocity": 64,
                "duration": 0.0181818,
                "tempo": 120.0
            },
            {
                "start_time": 5.2727273,
                "end_time": 5.2909091,
                "pitch": 81,
                "velocity": 64,
                "duration": 0.0181818,
                "tempo": 120.0
            },
            {
                "start_time": 5.2909091,
                "end_time": 5.3068182,
                "pitch": 84,
                "velocity": 64,
                "duration": 0.0159091,
                "tempo": 120.0
            },
            {
                "start_time": 5.5409091,
                "end_time": 5.5568182,
                "pitch": 78,
                "velocity": 64,
                "duration": 0.0159091,
                "tempo": 120.0
            },
            {
                "start_time": 5.5568182,
                "end_time": 5.5727273,
                "pitch": 81,
                "velocity": 64,
                "duration": 0.0159091,
                "tempo": 120.0
            },
            {
                "start_time": 5.675,
                "end_time": 5.6909091,
                "pitch": 79,
                "velocity": 64,
                "duration": 0.0159091,
                "tempo": 120.0
            },
            {
                "start_time": 5.6909091,
                "end_time": 5.7068182,
                "pitch": 82,
                "velocity": 64,
                "duration": 0.0159091,
                "tempo": 120.0
            },
            {
                "start_time": 5.9409091,
                "end_time": 5.9568182,
                "pitch": 81,
                "velocity": 64,
                "duration": 0.0159091,
                "tempo": 120.0
            },
            {
                "start_time": 5.9568182,
                "end_time": 5.975,
                "pitch": 84,
                "velocity": 64,
                "duration": 0.0181818,
                "tempo": 120.0
            },
            {
                "start_time": 6.075,
                "end_time": 6.0909091,
                "pitch": 78,
                "velocity": 64,
                "duration": 0.0159091,
                "tempo": 120.0
            },
            {
                "start_time": 6.0909091,
                "end_time": 6.1090909,
                "pitch": 81,
                "velocity": 64,
                "duration": 0.0181818,
                "tempo": 120.0
            },
            {
                "start_time": 6.3409091,
                "end_time": 6.3590909,
                "pitch": 79,
                "velocity": 64,
                "duration": 0.0181818,
                "tempo": 120.0
            },
            {
                "start_time": 6.3590909,
                "end_time": 6.375,
                "pitch": 82,
                "velocity": 64,
                "duration": 0.0159091,
                "tempo": 120.0
            },
            {
                "start_time": 6.6090909,
                "end_time": 6.625,
                "pitch": 81,
                "velocity": 64,
                "duration": 0.0159091,
                "tempo": 120.0
            },
            {
                "start_time": 6.625,
                "end_time": 6.6431818,
                "pitch": 84,
                "velocity": 64,
                "duration": 0.0181818,
                "tempo": 120.0
            },
            {
                "start_time": 6.8772727,
                "end_time": 6.8931818,
                "pitch": 74,
                "velocity": 64,
                "duration": 0.0159091,
                "tempo": 120.0
            },
            {
                "start_time": 6.8931818,
                "end_time": 6.9113636,
                "pitch": 77,
                "velocity": 64,
                "duration": 0.0181818,
                "tempo": 120.0
            },
            {
                "start_time": 7.1477273,
                "end_time": 7.1659091,
                "pitch": 76,
                "velocity": 64,
                "duration": 0.0181818,
                "tempo": 120.0
            },
            {
                "start_time": 7.1659091,
                "end_time": 7.1818182,
                "pitch": 79,
                "velocity": 64,
                "duration": 0.0159091,
                "tempo": 120.0
            },
            {
                "start_time": 7.4204545,
                "end_time": 7.4363636,
                "pitch": 78,
                "velocity": 64,
                "duration": 0.0159091,
                "tempo": 120.0
            },
            {
                "start_time": 7.4363636,
                "end_time": 7.4545455,
                "pitch": 81,
                "velocity": 64,
                "duration": 0.0181818,
                "tempo": 120.0
            },
            {
                "start_time": 7.6886364,
                "end_time": 7.7045455,
                "pitch": 74,
                "velocity": 64,
                "duration": 0.0159091,
                "tempo": 120.0
            },
            {
                "start_time": 7.7045455,
                "end_time": 7.7204545,
                "pitch": 77,
                "velocity": 64,
                "duration": 0.0159091,
                "tempo": 120.0
            },
            {
                "start_time": 7.8204545,
                "end_time": 7.8386364,
                "pitch": 76,
                "velocity": 64,
                "duration": 0.0181818,
                "tempo": 120.0
            },
            {
                "start_time": 7.8386364,
                "end_time": 7.8545455,
                "pitch": 79,
                "velocity": 64,
                "duration": 0.0159091,
                "tempo": 120.0
            },
            {
                "start_time": 8.0909091,
                "end_time": 8.1068182,
                "pitch": 78,
                "velocity": 64,
                "duration": 0.0159091,
                "tempo": 120.0
            },
            {
                "start_time": 8.1068182,
                "end_time": 8.125,
                "pitch": 81,
                "velocity": 64,
                "duration": 0.0181818,
                "tempo": 120.0
            },
            {
                "start_time": 8.2272727,
                "end_time": 8.2431818,
                "pitch": 74,
                "velocity": 64,
                "duration": 0.0159091,
                "tempo": 120.0
            },
            {
                "start_time": 8.2431818,
                "end_time": 8.2613636,
                "pitch": 77,
                "velocity": 64,
                "duration": 0.0181818,
                "tempo": 120.0
            },
            {
                "start_time": 8.4977273,
                "end_time": 8.5159091,
                "pitch": 76,
                "velocity": 64,
                "duration": 0.0181818,
                "tempo": 120.0
            },
            {
                "start_time": 8.5159091,
                "end_time": 8.5318182,
                "pitch": 79,
                "velocity": 64,
                "duration": 0.0159091,
                "tempo": 120.0
            },
            {
                "start_time": 8.7659091,
                "end_time": 8.7818182,
                "pitch": 78,
                "velocity": 64,
                "duration": 0.0159091,
                "tempo": 120.0
            },
            {
                "start_time": 8.7818182,
                "end_time": 8.8,
                "pitch": 81,
                "velocity": 64,
                "duration": 0.0181818,
                "tempo": 120.0
            },
            {
                "start_time": 9.0340909,
                "end_time": 9.05,
                "pitch": 78,
                "velocity": 64,
                "duration": 0.0159091,
                "tempo": 120.0
            },
            {
                "start_time": 9.05,
                "end_time": 9.0659091,
                "pitch": 81,
                "velocity": 64,
                "duration": 0.0159091,
                "tempo": 120.0
            },
            {
                "start_time": 9.3,
                "end_time": 9.3159091,
                "pitch": 79,
                "velocity": 64,
                "duration": 0.0159091,
                "tempo": 120.0
            },
            {
                "start_time": 9.3159091,
                "end_time": 9.3340909,
                "pitch": 82,
                "velocity": 64,
                "duration": 0.0181818,
                "tempo": 120.0
            },
            {
                "start_time": 9.5681818,
                "end_time": 9.5840909,
                "pitch": 81,
                "velocity": 64,
                "duration": 0.0159091,
                "tempo": 120.0
            },
            {
                "start_time": 9.5840909,
                "end_time": 9.6,
                "pitch": 84,
                "velocity": 64,
                "duration": 0.0159091,
                "tempo": 120.0
            },
            {
                "start_time": 9.8340909,
                "end_time": 9.8522727,
                "pitch": 78,
                "velocity": 64,
                "duration": 0.0181818,
                "tempo": 120.0
            },
            {
                "start_time": 9.8522727,
                "end_time": 9.8681818,
                "pitch": 81,
                "velocity": 64,
                "duration": 0.0159091,
                "tempo": 120.0
            },
            {
                "start_time": 9.9681818,
                "end_time": 9.9840909,
                "pitch": 79,
                "velocity": 64,
                "duration": 0.0159091,
                "tempo": 120.0
            },
            {
                "start_time": 9.9840909,
                "end_time": 10.0022727,
                "pitch": 82,
                "velocity": 64,
                "duration": 0.0181818,
                "tempo": 120.0
            },
            {
                "start_time": 10.2386364,
                "end_time": 10.2545455,
                "pitch": 81,
                "velocity": 64,
                "duration": 0.0159091,
                "tempo": 120.0
            },
            {
                "start_time": 10.2545455,
                "end_time": 10.2727273,
                "pitch": 84,
                "velocity": 64,
                "duration": 0.0181818,
                "tempo": 120.0
            },
            {
                "start_time": 10.3727273,
                "end_time": 10.3909091,
                "pitch": 78,
                "velocity": 64,
                "duration": 0.0181818,
                "tempo": 120.0
            },
            {
                "start_time": 10.3909091,
                "end_time": 10.4068182,
                "pitch": 81,
                "velocity": 64,
                "duration": 0.0159091,
                "tempo": 120.0
            },
            {
                "start_time": 10.6454545,
                "end_time": 10.6613636,
                "pitch": 79,
                "velocity": 64,
                "duration": 0.0159091,
                "tempo": 120.0
            },
            {
                "start_time": 10.6613636,
                "end_time": 10.6795455,
                "pitch": 82,
                "velocity": 64,
                "duration": 0.0181818,
                "tempo": 120.0
            },
            {
                "start_time": 10.9136364,
                "end_time": 10.9295455,
                "pitch": 81,
                "velocity": 64,
                "duration": 0.0159091,
                "tempo": 120.0
            },
            {
                "start_time": 10.9295455,
                "end_time": 10.9454545,
                "pitch": 84,
                "velocity": 64,
                "duration": 0.0159091,
                "tempo": 120.0
            },
            {
                "start_time": 11.1795455,
                "end_time": 11.1977273,
                "pitch": 78,
                "velocity": 64,
                "duration": 0.0181818,
                "tempo": 120.0
            },
            {
                "start_time": 11.1977273,
                "end_time": 11.2136364,
                "pitch": 81,
                "velocity": 64,
                "duration": 0.0159091,
                "tempo": 120.0
            },
            {
                "start_time": 11.4477273,
                "end_time": 11.4636364,
                "pitch": 79,
                "velocity": 64,
                "duration": 0.0159091,
                "tempo": 120.0
            },
            {
                "start_time": 11.4636364,
                "end_time": 11.4818182,
                "pitch": 82,
                "velocity": 64,
                "duration": 0.0181818,
                "tempo": 120.0
            },
            {
                "start_time": 11.7136364,
                "end_time": 11.7318182,
                "pitch": 81,
                "velocity": 64,
                "duration": 0.0181818,
                "tempo": 120.0
            },
            {
                "start_time": 11.7318182,
                "end_time": 11.7477273,
                "pitch": 84,
                "velocity": 64,
                "duration": 0.0159091,
                "tempo": 120.0
            },
            {
                "start_time": 11.9863636,
                "end_time": 12.0045455,
                "pitch": 78,
                "velocity": 64,
                "duration": 0.0181818,
                "tempo": 120.0
            },
            {
                "start_time": 12.0045455,
                "end_time": 12.0204545,
                "pitch": 81,
                "velocity": 64,
                "duration": 0.0159091,
                "tempo": 120.0
            },
            {
                "start_time": 12.1227273,
                "end_time": 12.1386364,
                "pitch": 79,
                "velocity": 64,
                "duration": 0.0159091,
                "tempo": 120.0
            },
            {
                "start_time": 12.1386364,
                "end_time": 12.1568182,
                "pitch": 82,
                "velocity": 64,
                "duration": 0.0181818,
                "tempo": 120.0
            },
            {
                "start_time": 12.3931818,
                "end_time": 12.4090909,
                "pitch": 81,
                "velocity": 64,
                "duration": 0.0159091,
                "tempo": 120.0
            },
            {
                "start_time": 12.4090909,
                "end_time": 12.425,
                "pitch": 84,
                "velocity": 64,
                "duration": 0.0159091,
                "tempo": 120.0
            },
            {
                "start_time": 12.525,
                "end_time": 12.5431818,
                "pitch": 78,
                "velocity": 64,
                "duration": 0.0181818,
                "tempo": 120.0
            },
            {
                "start_time": 12.5431818,
                "end_time": 12.5590909,
                "pitch": 81,
                "velocity": 64,
                "duration": 0.0159091,
                "tempo": 120.0
            },
            {
                "start_time": 12.7931818,
                "end_time": 12.8090909,
                "pitch": 79,
                "velocity": 64,
                "duration": 0.0159091,
                "tempo": 120.0
            },
            {
                "start_time": 12.8090909,
                "end_time": 12.8272727,
                "pitch": 82,
                "velocity": 64,
                "duration": 0.0181818,
                "tempo": 120.0
            },
            {
                "start_time": 13.0590909,
                "end_time": 13.0772727,
                "pitch": 81,
                "velocity": 64,
                "duration": 0.0181818,
                "tempo": 120.0
            },
            {
                "start_time": 13.0772727,
                "end_time": 13.0931818,
                "pitch": 84,
                "velocity": 64,
                "duration": 0.0159091,
                "tempo": 120.0
            },
            {
                "start_time": 13.3272727,
                "end_time": 13.3431818,
                "pitch": 78,
                "velocity": 64,
                "duration": 0.0159091,
                "tempo": 120.0
            },
            {
                "start_time": 13.3431818,
                "end_time": 13.3613636,
                "pitch": 81,
                "velocity": 64,
                "duration": 0.0181818,
                "tempo": 120.0
            },
            {
                "start_time": 13.6,
                "end_time": 13.6159091,
                "pitch": 79,
                "velocity": 64,
                "duration": 0.0159091,
                "tempo": 120.0
            },
            {
                "start_time": 13.6159091,
                "end_time": 13.6340909,
                "pitch": 82,
                "velocity": 64,
                "duration": 0.0181818,
                "tempo": 120.0
            },
            {
                "start_time": 13.8704545,
                "end_time": 13.8886364,
                "pitch": 81,
                "velocity": 64,
                "duration": 0.0181818,
                "tempo": 120.0
            },
            {
                "start_time": 13.8886364,
                "end_time": 13.9045455,
                "pitch": 84,
                "velocity": 64,
                "duration": 0.0159091,
                "tempo": 120.0
            },
            {
                "start_time": 14.1386364,
                "end_time": 14.1545455,
                "pitch": 78,
                "velocity": 64,
                "duration": 0.0159091,
                "tempo": 120.0
            },
            {
                "start_time": 14.1545455,
                "end_time": 14.1727273,
                "pitch": 81,
                "velocity": 64,
                "duration": 0.0181818,
                "tempo": 120.0
            },
            {
                "start_time": 14.2727273,
                "end_time": 14.2886364,
                "pitch": 79,
                "velocity": 64,
                "duration": 0.0159091,
                "tempo": 120.0
            },
            {
                "start_time": 14.2886364,
                "end_time": 14.3045455,
                "pitch": 82,
                "velocity": 64,
                "duration": 0.0159091,
                "tempo": 120.0
            },
            {
                "start_time": 14.5386364,
                "end_time": 14.5568182,
                "pitch": 81,
                "velocity": 64,
                "duration": 0.0181818,
                "tempo": 120.0
            },
            {
                "start_time": 14.5568182,
                "end_time": 14.5727273,
                "pitch": 84,
                "velocity": 64,
                "duration": 0.0159091,
                "tempo": 120.0
            },
            {
                "start_time": 14.6727273,
                "end_time": 14.6886364,
                "pitch": 78,
                "velocity": 64,
                "duration": 0.0159091,
                "tempo": 120.0
            },
            {
                "start_time": 14.6886364,
                "end_time": 14.7068182,
                "pitch": 81,
                "velocity": 64,
                "duration": 0.0181818,
                "tempo": 120.0
            },
            {
                "start_time": 14.9409091,
                "end_time": 14.9568182,
                "pitch": 79,
                "velocity": 64,
                "duration": 0.0159091,
                "tempo": 120.0
            },
            {
                "start_time": 14.9568182,
                "end_time": 14.975,
                "pitch": 82,
                "velocity": 64,
                "duration": 0.0181818,
                "tempo": 120.0
            },
            {
                "start_time": 15.2113636,
                "end_time": 15.2295455,
                "pitch": 81,
                "velocity": 64,
                "duration": 0.0181818,
                "tempo": 120.0
            },
            {
                "start_time": 15.2295455,
                "end_time": 15.2454545,
                "pitch": 84,
                "velocity": 64,
                "duration": 0.0159091,
                "tempo": 120.0
            },
            {
                "start_time": 15.4840909,
                "end_time": 15.5,
                "pitch": 74,
                "velocity": 64,
                "duration": 0.0159091,
                "tempo": 120.0
            },
            {
                "start_time": 15.5,
                "end_time": 15.5181818,
                "pitch": 77,
                "velocity": 64,
                "duration": 0.0181818,
                "tempo": 120.0
            },
            {
                "start_time": 15.75,
                "end_time": 15.7681818,
                "pitch": 76,
                "velocity": 64,
                "duration": 0.0181818,
                "tempo": 120.0
            },
            {
                "start_time": 15.7681818,
                "end_time": 15.7840909,
                "pitch": 79,
                "velocity": 64,
                "duration": 0.0159091,
                "tempo": 120.0
            },
            {
                "start_time": 16.0181818,
                "end_time": 16.0340909,
                "pitch": 78,
                "velocity": 64,
                "duration": 0.0159091,
                "tempo": 120.0
            },
            {
                "start_time": 16.0340909,
                "end_time": 16.0522727,
                "pitch": 81,
                "velocity": 64,
                "duration": 0.0181818,
                "tempo": 120.0
            },
            {
                "start_time": 16.2909091,
                "end_time": 16.3068182,
                "pitch": 74,
                "velocity": 64,
                "duration": 0.0159091,
                "tempo": 120.0
            },
            {
                "start_time": 16.3068182,
                "end_time": 16.325,
                "pitch": 77,
                "velocity": 64,
                "duration": 0.0181818,
                "tempo": 120.0
            },
            {
                "start_time": 16.4272727,
                "end_time": 16.4431818,
                "pitch": 76,
                "velocity": 64,
                "duration": 0.0159091,
                "tempo": 120.0
            },
            {
                "start_time": 16.4431818,
                "end_time": 16.4590909,
                "pitch": 79,
                "velocity": 64,
                "duration": 0.0159091,
                "tempo": 120.0
            },
            {
                "start_time": 16.6954545,
                "end_time": 16.7136364,
                "pitch": 78,
                "velocity": 64,
                "duration": 0.0181818,
                "tempo": 120.0
            },
            {
                "start_time": 16.7136364,
                "end_time": 16.7295455,
                "pitch": 81,
                "velocity": 64,
                "duration": 0.0159091,
                "tempo": 120.0
            },
            {
                "start_time": 16.8295455,
                "end_time": 16.8454545,
                "pitch": 74,
                "velocity": 64,
                "duration": 0.0159091,
                "tempo": 120.0
            },
            {
                "start_time": 16.8454545,
                "end_time": 16.8636364,
                "pitch": 77,
                "velocity": 64,
                "duration": 0.0181818,
                "tempo": 120.0
            },
            {
                "start_time": 17.0977273,
                "end_time": 17.1136364,
                "pitch": 76,
                "velocity": 64,
                "duration": 0.0159091,
                "tempo": 120.0
            },
            {
                "start_time": 17.1136364,
                "end_time": 17.1295455,
                "pitch": 79,
                "velocity": 64,
                "duration": 0.0159091,
                "tempo": 120.0
            },
            {
                "start_time": 17.3636364,
                "end_time": 17.3795455,
                "pitch": 78,
                "velocity": 64,
                "duration": 0.0159091,
                "tempo": 120.0
            },
            {
                "start_time": 17.3795455,
                "end_time": 17.3977273,
                "pitch": 81,
                "velocity": 64,
                "duration": 0.0181818,
                "tempo": 120.0
            },
            {
                "start_time": 17.6318182,
                "end_time": 17.6477273,
                "pitch": 74,
                "velocity": 64,
                "duration": 0.0159091,
                "tempo": 120.0
            },
            {
                "start_time": 17.6477273,
                "end_time": 17.6659091,
                "pitch": 77,
                "velocity": 64,
                "duration": 0.0181818,
                "tempo": 120.0
            },
            {
                "start_time": 17.7659091,
                "end_time": 17.7840909,
                "pitch": 73,
                "velocity": 64,
                "duration": 0.0181818,
                "tempo": 120.0
            },
            {
                "start_time": 17.7840909,
                "end_time": 17.8,
                "pitch": 76,
                "velocity": 64,
                "duration": 0.0159091,
                "tempo": 120.0
            },
            {
                "start_time": 17.9022727,
                "end_time": 17.9204545,
                "pitch": 74,
                "velocity": 64,
                "duration": 0.0181818,
                "tempo": 120.0
            },
            {
                "start_time": 17.9204545,
                "end_time": 17.9363636,
                "pitch": 77,
                "velocity": 64,
                "duration": 0.0159091,
                "tempo": 120.0
            },
            {
                "start_time": 18.0386364,
                "end_time": 18.0568182,
                "pitch": 76,
                "velocity": 64,
                "duration": 0.0181818,
                "tempo": 120.0
            },
            {
                "start_time": 18.0568182,
                "end_time": 18.0727273,
                "pitch": 79,
                "velocity": 64,
                "duration": 0.0159091,
                "tempo": 120.0
            },
            {
                "start_time": 18.175,
                "end_time": 18.1909091,
                "pitch": 78,
                "velocity": 64,
                "duration": 0.0159091,
                "tempo": 120.0
            },
            {
                "start_time": 18.1909091,
                "end_time": 18.2090909,
                "pitch": 81,
                "velocity": 64,
                "duration": 0.0181818,
                "tempo": 120.0
            },
            {
                "start_time": 18.3090909,
                "end_time": 18.325,
                "pitch": 76,
                "velocity": 64,
                "duration": 0.0159091,
                "tempo": 120.0
            },
            {
                "start_time": 18.325,
                "end_time": 18.3409091,
                "pitch": 79,
                "velocity": 64,
                "duration": 0.0159091,
                "tempo": 120.0
            },
            {
                "start_time": 18.4431818,
                "end_time": 18.4590909,
                "pitch": 78,
                "velocity": 64,
                "duration": 0.0159091,
                "tempo": 120.0
            },
            {
                "start_time": 18.4590909,
                "end_time": 18.475,
                "pitch": 81,
                "velocity": 64,
                "duration": 0.0159091,
                "tempo": 120.0
            },
            {
                "start_time": 18.575,
                "end_time": 18.5931818,
                "pitch": 79,
                "velocity": 64,
                "duration": 0.0181818,
                "tempo": 120.0
            },
            {
                "start_time": 18.5931818,
                "end_time": 18.6090909,
                "pitch": 82,
                "velocity": 64,
                "duration": 0.0159091,
                "tempo": 120.0
            },
            {
                "start_time": 18.7090909,
                "end_time": 18.725,
                "pitch": 81,
                "velocity": 64,
                "duration": 0.0159091,
                "tempo": 120.0
            },
            {
                "start_time": 18.725,
                "end_time": 18.7431818,
                "pitch": 84,
                "velocity": 64,
                "duration": 0.0181818,
                "tempo": 120.0
            },
            {
                "start_time": 18.8431818,
                "end_time": 18.8590909,
                "pitch": 79,
                "velocity": 64,
                "duration": 0.0159091,
                "tempo": 120.0
            },
            {
                "start_time": 18.8590909,
                "end_time": 18.8772727,
                "pitch": 82,
                "velocity": 64,
                "duration": 0.0181818,
                "tempo": 120.0
            },
            {
                "start_time": 18.9772727,
                "end_time": 18.9931818,
                "pitch": 81,
                "velocity": 64,
                "duration": 0.0159091,
                "tempo": 120.0
            },
            {
                "start_time": 18.9931818,
                "end_time": 19.0090909,
                "pitch": 84,
                "velocity": 64,
                "duration": 0.0159091,
                "tempo": 120.0
            },
            {
                "start_time": 19.1090909,
                "end_time": 19.1272727,
                "pitch": 83,
                "velocity": 64,
                "duration": 0.0181818,
                "tempo": 120.0
            },
            {
                "start_time": 19.1272727,
                "end_time": 19.1431818,
                "pitch": 86,
                "velocity": 64,
                "duration": 0.0159091,
                "tempo": 120.0
            },
            {
                "start_time": 19.2431818,
                "end_time": 19.2613636,
                "pitch": 85,
                "velocity": 64,
                "duration": 0.0181818,
                "tempo": 120.0
            },
            {
                "start_time": 19.2613636,
                "end_time": 19.2772727,
                "pitch": 88,
                "velocity": 64,
                "duration": 0.0159091,
                "tempo": 120.0
            },
            {
                "start_time": 19.3772727,
                "end_time": 19.3931818,
                "pitch": 83,
                "velocity": 64,
                "duration": 0.0159091,
                "tempo": 120.0
            },
            {
                "start_time": 19.3931818,
                "end_time": 19.4113636,
                "pitch": 86,
                "velocity": 64,
                "duration": 0.0181818,
                "tempo": 120.0
            },
            {
                "start_time": 19.5113636,
                "end_time": 19.5272727,
                "pitch": 85,
                "velocity": 64,
                "duration": 0.0159091,
                "tempo": 120.0
            },
            {
                "start_time": 19.5272727,
                "end_time": 19.5431818,
                "pitch": 88,
                "velocity": 64,
                "duration": 0.0159091,
                "tempo": 120.0
            },
            {
                "start_time": 19.6454545,
                "end_time": 19.6613636,
                "pitch": 86,
                "velocity": 64,
                "duration": 0.0159091,
                "tempo": 120.0
            },
            {
                "start_time": 19.6613636,
                "end_time": 19.6772727,
                "pitch": 89,
                "velocity": 64,
                "duration": 0.0159091,
                "tempo": 120.0
            },
            {
                "start_time": 19.7772727,
                "end_time": 19.7954545,
                "pitch": 74,
                "velocity": 64,
                "duration": 0.0181818,
                "tempo": 120.0
            },
            {
                "start_time": 19.7954545,
                "end_time": 19.8113636,
                "pitch": 77,
                "velocity": 64,
                "duration": 0.0159091,
                "tempo": 120.0
            },
            {
                "start_time": 19.9136364,
                "end_time": 19.9318182,
                "pitch": 73,
                "velocity": 64,
                "duration": 0.0181818,
                "tempo": 120.0
            },
            {
                "start_time": 19.9318182,
                "end_time": 19.9477273,
                "pitch": 76,
                "velocity": 64,
                "duration": 0.0159091,
                "tempo": 120.0
            },
            {
                "start_time": 20.05,
                "end_time": 20.0681818,
                "pitch": 74,
                "velocity": 64,
                "duration": 0.0181818,
                "tempo": 120.0
            },
            {
                "start_time": 20.0681818,
                "end_time": 20.0840909,
                "pitch": 77,
                "velocity": 64,
                "duration": 0.0159091,
                "tempo": 120.0
            },
            {
                "start_time": 20.1863636,
                "end_time": 20.2022727,
                "pitch": 76,
                "velocity": 64,
                "duration": 0.0159091,
                "tempo": 120.0
            },
            {
                "start_time": 20.2022727,
                "end_time": 20.2204545,
                "pitch": 79,
                "velocity": 64,
                "duration": 0.0181818,
                "tempo": 120.0
            },
            {
                "start_time": 20.3227273,
                "end_time": 20.3386364,
                "pitch": 78,
                "velocity": 64,
                "duration": 0.0159091,
                "tempo": 120.0
            },
            {
                "start_time": 20.3386364,
                "end_time": 20.3545455,
                "pitch": 81,
                "velocity": 64,
                "duration": 0.0159091,
                "tempo": 120.0
            },
            {
                "start_time": 20.4545455,
                "end_time": 20.4727273,
                "pitch": 76,
                "velocity": 64,
                "duration": 0.0181818,
                "tempo": 120.0
            },
            {
                "start_time": 20.4727273,
                "end_time": 20.4886364,
                "pitch": 79,
                "velocity": 64,
                "duration": 0.0159091,
                "tempo": 120.0
            },
            {
                "start_time": 20.5886364,
                "end_time": 20.6068182,
                "pitch": 78,
                "velocity": 64,
                "duration": 0.0181818,
                "tempo": 120.0
            },
            {
                "start_time": 20.6068182,
                "end_time": 20.6227273,
                "pitch": 81,
                "velocity": 64,
                "duration": 0.0159091,
                "tempo": 120.0
            },
            {
                "start_time": 20.7227273,
                "end_time": 20.7386364,
                "pitch": 79,
                "velocity": 64,
                "duration": 0.0159091,
                "tempo": 120.0
            },
            {
                "start_time": 20.7386364,
                "end_time": 20.7568182,
                "pitch": 82,
                "velocity": 64,
                "duration": 0.0181818,
                "tempo": 120.0
            },
            {
                "start_time": 20.8568182,
                "end_time": 20.8727273,
                "pitch": 81,
                "velocity": 64,
                "duration": 0.0159091,
                "tempo": 120.0
            },
            {
                "start_time": 20.8727273,
                "end_time": 20.8909091,
                "pitch": 84,
                "velocity": 64,
                "duration": 0.0181818,
                "tempo": 120.0
            },
            {
                "start_time": 20.9931818,
                "end_time": 21.0090909,
                "pitch": 79,
                "velocity": 64,
                "duration": 0.0159091,
                "tempo": 120.0
            },
            {
                "start_time": 21.0090909,
                "end_time": 21.0272727,
                "pitch": 82,
                "velocity": 64,
                "duration": 0.0181818,
                "tempo": 120.0
            },
            {
                "start_time": 21.1272727,
                "end_time": 21.1454545,
                "pitch": 81,
                "velocity": 64,
                "duration": 0.0181818,
                "tempo": 120.0
            },
            {
                "start_time": 21.1454545,
                "end_time": 21.1613636,
                "pitch": 84,
                "velocity": 64,
                "duration": 0.0159091,
                "tempo": 120.0
            },
            {
                "start_time": 21.2636364,
                "end_time": 21.2818182,
                "pitch": 83,
                "velocity": 64,
                "duration": 0.0181818,
                "tempo": 120.0
            },
            {
                "start_time": 21.2818182,
                "end_time": 21.2977273,
                "pitch": 86,
                "velocity": 64,
                "duration": 0.0159091,
                "tempo": 120.0
            },
            {
                "start_time": 21.4,
                "end_time": 21.4181818,
                "pitch": 85,
                "velocity": 64,
                "duration": 0.0181818,
                "tempo": 120.0
            },
            {
                "start_time": 21.4181818,
                "end_time": 21.4340909,
                "pitch": 88,
                "velocity": 64,
                "duration": 0.0159091,
                "tempo": 120.0
            },
            {
                "start_time": 21.5340909,
                "end_time": 21.55,
                "pitch": 83,
                "velocity": 64,
                "duration": 0.0159091,
                "tempo": 120.0
            },
            {
                "start_time": 21.55,
                "end_time": 21.5681818,
                "pitch": 86,
                "velocity": 64,
                "duration": 0.0181818,
                "tempo": 120.0
            },
            {
                "start_time": 21.6681818,
                "end_time": 21.6840909,
                "pitch": 85,
                "velocity": 64,
                "duration": 0.0159091,
                "tempo": 120.0
            },
            {
                "start_time": 21.6840909,
                "end_time": 21.7,
                "pitch": 88,
                "velocity": 64,
                "duration": 0.0159091,
                "tempo": 120.0
            },
            {
                "start_time": 21.8,
                "end_time": 21.8181818,
                "pitch": 86,
                "velocity": 64,
                "duration": 0.0181818,
                "tempo": 120.0
            },
            {
                "start_time": 21.8181818,
                "end_time": 21.8340909,
                "pitch": 89,
                "velocity": 64,
                "duration": 0.0159091,
                "tempo": 120.0
            },
            {
                "start_time": 21.9340909,
                "end_time": 21.9522727,
                "pitch": 74,
                "velocity": 64,
                "duration": 0.0181818,
                "tempo": 120.0
            },
            {
                "start_time": 21.9522727,
                "end_time": 21.9681818,
                "pitch": 77,
                "velocity": 64,
                "duration": 0.0159091,
                "tempo": 120.0
            },
            {
                "start_time": 22.0681818,
                "end_time": 22.0840909,
                "pitch": 73,
                "velocity": 64,
                "duration": 0.0159091,
                "tempo": 120.0
            },
            {
                "start_time": 22.0840909,
                "end_time": 22.1022727,
                "pitch": 76,
                "velocity": 64,
                "duration": 0.0181818,
                "tempo": 120.0
            },
            {
                "start_time": 22.2022727,
                "end_time": 22.2181818,
                "pitch": 74,
                "velocity": 64,
                "duration": 0.0159091,
                "tempo": 120.0
            },
            {
                "start_time": 22.2181818,
                "end_time": 22.2363636,
                "pitch": 77,
                "velocity": 64,
                "duration": 0.0181818,
                "tempo": 120.0
            },
            {
                "start_time": 22.3363636,
                "end_time": 22.3522727,
                "pitch": 76,
                "velocity": 64,
                "duration": 0.0159091,
                "tempo": 120.0
            },
            {
                "start_time": 22.3522727,
                "end_time": 22.3681818,
                "pitch": 79,
                "velocity": 64,
                "duration": 0.0159091,
                "tempo": 120.0
            },
            {
                "start_time": 22.4681818,
                "end_time": 22.4863636,
                "pitch": 78,
                "velocity": 64,
                "duration": 0.0181818,
                "tempo": 120.0
            },
            {
                "start_time": 22.4863636,
                "end_time": 22.5022727,
                "pitch": 81,
                "velocity": 64,
                "duration": 0.0159091,
                "tempo": 120.0
            },
            {
                "start_time": 22.6045455,
                "end_time": 22.6227273,
                "pitch": 76,
                "velocity": 64,
                "duration": 0.0181818,
                "tempo": 120.0
            },
            {
                "start_time": 22.6227273,
                "end_time": 22.6386364,
                "pitch": 79,
                "velocity": 64,
                "duration": 0.0159091,
                "tempo": 120.0
            },
            {
                "start_time": 22.7409091,
                "end_time": 22.7590909,
                "pitch": 78,
                "velocity": 64,
                "duration": 0.0181818,
                "tempo": 120.0
            },
            {
                "start_time": 22.7590909,
                "end_time": 22.775,
                "pitch": 81,
                "velocity": 64,
                "duration": 0.0159091,
                "tempo": 120.0
            },
            {
                "start_time": 22.8772727,
                "end_time": 22.8931818,
                "pitch": 79,
                "velocity": 64,
                "duration": 0.0159091,
                "tempo": 120.0
            },
            {
                "start_time": 22.8931818,
                "end_time": 22.9113636,
                "pitch": 82,
                "velocity": 64,
                "duration": 0.0181818,
                "tempo": 120.0
            },
            {
                "start_time": 23.0136364,
                "end_time": 23.0295455,
                "pitch": 81,
                "velocity": 64,
                "duration": 0.0159091,
                "tempo": 120.0
            },
            {
                "start_time": 23.0295455,
                "end_time": 23.0454545,
                "pitch": 84,
                "velocity": 64,
                "duration": 0.0159091,
                "tempo": 120.0
            },
            {
                "start_time": 23.1477273,
                "end_time": 23.1636364,
                "pitch": 79,
                "velocity": 64,
                "duration": 0.0159091,
                "tempo": 120.0
            },
            {
                "start_time": 23.1636364,
                "end_time": 23.1795455,
                "pitch": 82,
                "velocity": 64,
                "duration": 0.0159091,
                "tempo": 120.0
            },
            {
                "start_time": 23.2795455,
                "end_time": 23.2977273,
                "pitch": 81,
                "velocity": 64,
                "duration": 0.0181818,
                "tempo": 120.0
            },
            {
                "start_time": 23.2977273,
                "end_time": 23.3136364,
                "pitch": 84,
                "velocity": 64,
                "duration": 0.0159091,
                "tempo": 120.0
            },
            {
                "start_time": 23.4136364,
                "end_time": 23.4295455,
                "pitch": 83,
                "velocity": 64,
                "duration": 0.0159091,
                "tempo": 120.0
            },
            {
                "start_time": 23.4295455,
                "end_time": 23.4477273,
                "pitch": 86,
                "velocity": 64,
                "duration": 0.0181818,
                "tempo": 120.0
            },
            {
                "start_time": 23.5477273,
                "end_time": 23.5636364,
                "pitch": 85,
                "velocity": 64,
                "duration": 0.0159091,
                "tempo": 120.0
            },
            {
                "start_time": 23.5636364,
                "end_time": 23.5818182,
                "pitch": 88,
                "velocity": 64,
                "duration": 0.0181818,
                "tempo": 120.0
            },
            {
                "start_time": 23.6818182,
                "end_time": 23.6977273,
                "pitch": 83,
                "velocity": 64,
                "duration": 0.0159091,
                "tempo": 120.0
            },
            {
                "start_time": 23.6977273,
                "end_time": 23.7136364,
                "pitch": 86,
                "velocity": 64,
                "duration": 0.0159091,
                "tempo": 120.0
            },
            {
                "start_time": 23.8136364,
                "end_time": 23.8318182,
                "pitch": 85,
                "velocity": 64,
                "duration": 0.0181818,
                "tempo": 120.0
            },
            {
                "start_time": 23.8318182,
                "end_time": 23.8477273,
                "pitch": 88,
                "velocity": 64,
                "duration": 0.0159091,
                "tempo": 120.0
            },
            {
                "start_time": 23.9477273,
                "end_time": 23.9659091,
                "pitch": 86,
                "velocity": 64,
                "duration": 0.0181818,
                "tempo": 120.0
            },
            {
                "start_time": 23.9659091,
                "end_time": 23.9818182,
                "pitch": 89,
                "velocity": 64,
                "duration": 0.0159091,
                "tempo": 120.0
            },
            {
                "start_time": 24.0818182,
                "end_time": 24.0977273,
                "pitch": 74,
                "velocity": 64,
                "duration": 0.0159091,
                "tempo": 120.0
            },
            {
                "start_time": 24.0977273,
                "end_time": 24.1159091,
                "pitch": 77,
                "velocity": 64,
                "duration": 0.0181818,
                "tempo": 120.0
            },
            {
                "start_time": 24.35,
                "end_time": 24.3659091,
                "pitch": 76,
                "velocity": 64,
                "duration": 0.0159091,
                "tempo": 120.0
            },
            {
                "start_time": 24.3659091,
                "end_time": 24.3818182,
                "pitch": 79,
                "velocity": 64,
                "duration": 0.0159091,
                "tempo": 120.0
            },
            {
                "start_time": 24.6159091,
                "end_time": 24.6340909,
                "pitch": 78,
                "velocity": 64,
                "duration": 0.0181818,
                "tempo": 120.0
            },
            {
                "start_time": 24.6340909,
                "end_time": 24.65,
                "pitch": 81,
                "velocity": 64,
                "duration": 0.0159091,
                "tempo": 120.0
            },
            {
                "start_time": 24.8886364,
                "end_time": 24.9045455,
                "pitch": 74,
                "velocity": 64,
                "duration": 0.0159091,
                "tempo": 120.0
            },
            {
                "start_time": 24.9045455,
                "end_time": 24.9227273,
                "pitch": 77,
                "velocity": 64,
                "duration": 0.0181818,
                "tempo": 120.0
            },
            {
                "start_time": 25.025,
                "end_time": 25.0409091,
                "pitch": 76,
                "velocity": 64,
                "duration": 0.0159091,
                "tempo": 120.0
            },
            {
                "start_time": 25.0409091,
                "end_time": 25.0590909,
                "pitch": 79,
                "velocity": 64,
                "duration": 0.0181818,
                "tempo": 120.0
            },
            {
                "start_time": 25.2931818,
                "end_time": 25.3113636,
                "pitch": 78,
                "velocity": 64,
                "duration": 0.0181818,
                "tempo": 120.0
            },
            {
                "start_time": 25.3113636,
                "end_time": 25.3272727,
                "pitch": 81,
                "velocity": 64,
                "duration": 0.0159091,
                "tempo": 120.0
            },
            {
                "start_time": 25.4272727,
                "end_time": 25.4431818,
                "pitch": 74,
                "velocity": 64,
                "duration": 0.0159091,
                "tempo": 120.0
            },
            {
                "start_time": 25.4431818,
                "end_time": 25.4613636,
                "pitch": 77,
                "velocity": 64,
                "duration": 0.0181818,
                "tempo": 120.0
            },
            {
                "start_time": 25.6954545,
                "end_time": 25.7113636,
                "pitch": 76,
                "velocity": 64,
                "duration": 0.0159091,
                "tempo": 120.0
            },
            {
                "start_time": 25.7113636,
                "end_time": 25.7272727,
                "pitch": 79,
                "velocity": 64,
                "duration": 0.0159091,
                "tempo": 120.0
            },
            {
                "start_time": 25.9613636,
                "end_time": 25.9795455,
                "pitch": 78,
                "velocity": 64,
                "duration": 0.0181818,
                "tempo": 120.0
            },
            {
                "start_time": 25.9795455,
                "end_time": 25.9954545,
                "pitch": 81,
                "velocity": 64,
                "duration": 0.0159091,
                "tempo": 120.0
            },
            {
                "start_time": 26.2295455,
                "end_time": 26.2454545,
                "pitch": 74,
                "velocity": 64,
                "duration": 0.0159091,
                "tempo": 120.0
            },
            {
                "start_time": 26.2454545,
                "end_time": 26.2636364,
                "pitch": 77,
                "velocity": 64,
                "duration": 0.0181818,
                "tempo": 120.0
            },
            {
                "start_time": 26.3659091,
                "end_time": 26.3818182,
                "pitch": 73,
                "velocity": 64,
                "duration": 0.0159091,
                "tempo": 120.0
            },
            {
                "start_time": 26.3818182,
                "end_time": 26.4,
                "pitch": 76,
                "velocity": 64,
                "duration": 0.0181818,
                "tempo": 120.0
            },
            {
                "start_time": 26.5,
                "end_time": 26.5181818,
                "pitch": 74,
                "velocity": 64,
                "duration": 0.0181818,
                "tempo": 120.0
            },
            {
                "start_time": 26.5181818,
                "end_time": 26.5340909,
                "pitch": 77,
                "velocity": 64,
                "duration": 0.0159091,
                "tempo": 120.0
            },
            {
                "start_time": 26.6363636,
                "end_time": 26.6545455,
                "pitch": 76,
                "velocity": 64,
                "duration": 0.0181818,
                "tempo": 120.0
            },
            {
                "start_time": 26.6545455,
                "end_time": 26.6704545,
                "pitch": 79,
                "velocity": 64,
                "duration": 0.0159091,
                "tempo": 120.0
            },
            {
                "start_time": 26.7727273,
                "end_time": 26.7886364,
                "pitch": 78,
                "velocity": 64,
                "duration": 0.0159091,
                "tempo": 120.0
            },
            {
                "start_time": 26.7886364,
                "end_time": 26.8068182,
                "pitch": 81,
                "velocity": 64,
                "duration": 0.0181818,
                "tempo": 120.0
            },
            {
                "start_time": 26.9068182,
                "end_time": 26.9227273,
                "pitch": 76,
                "velocity": 64,
                "duration": 0.0159091,
                "tempo": 120.0
            },
            {
                "start_time": 26.9227273,
                "end_time": 26.9409091,
                "pitch": 79,
                "velocity": 64,
                "duration": 0.0181818,
                "tempo": 120.0
            },
            {
                "start_time": 27.0409091,
                "end_time": 27.0568182,
                "pitch": 78,
                "velocity": 64,
                "duration": 0.0159091,
                "tempo": 120.0
            },
            {
                "start_time": 27.0568182,
                "end_time": 27.0727273,
                "pitch": 81,
                "velocity": 64,
                "duration": 0.0159091,
                "tempo": 120.0
            },
            {
                "start_time": 27.1727273,
                "end_time": 27.1909091,
                "pitch": 79,
                "velocity": 64,
                "duration": 0.0181818,
                "tempo": 120.0
            },
            {
                "start_time": 27.1909091,
                "end_time": 27.2068182,
                "pitch": 82,
                "velocity": 64,
                "duration": 0.0159091,
                "tempo": 120.0
            },
            {
                "start_time": 27.3068182,
                "end_time": 27.325,
                "pitch": 81,
                "velocity": 64,
                "duration": 0.0181818,
                "tempo": 120.0
            },
            {
                "start_time": 27.325,
                "end_time": 27.3409091,
                "pitch": 84,
                "velocity": 64,
                "duration": 0.0159091,
                "tempo": 120.0
            },
            {
                "start_time": 27.4431818,
                "end_time": 27.4590909,
                "pitch": 79,
                "velocity": 64,
                "duration": 0.0159091,
                "tempo": 120.0
            },
            {
                "start_time": 27.4590909,
                "end_time": 27.4772727,
                "pitch": 82,
                "velocity": 64,
                "duration": 0.0181818,
                "tempo": 120.0
            },
            {
                "start_time": 27.5795455,
                "end_time": 27.5954545,
                "pitch": 81,
                "velocity": 64,
                "duration": 0.0159091,
                "tempo": 120.0
            },
            {
                "start_time": 27.5954545,
                "end_time": 27.6136364,
                "pitch": 84,
                "velocity": 64,
                "duration": 0.0181818,
                "tempo": 120.0
            },
            {
                "start_time": 27.7159091,
                "end_time": 27.7318182,
                "pitch": 83,
                "velocity": 64,
                "duration": 0.0159091,
                "tempo": 120.0
            },
            {
                "start_time": 27.7318182,
                "end_time": 27.75,
                "pitch": 86,
                "velocity": 64,
                "duration": 0.0181818,
                "tempo": 120.0
            },
            {
                "start_time": 27.8522727,
                "end_time": 27.8681818,
                "pitch": 85,
                "velocity": 64,
                "duration": 0.0159091,
                "tempo": 120.0
            },
            {
                "start_time": 27.8681818,
                "end_time": 27.8840909,
                "pitch": 88,
                "velocity": 64,
                "duration": 0.0159091,
                "tempo": 120.0
            },
            {
                "start_time": 27.9840909,
                "end_time": 28.0022727,
                "pitch": 83,
                "velocity": 64,
                "duration": 0.0181818,
                "tempo": 120.0
            },
            {
                "start_time": 28.0022727,
                "end_time": 28.0181818,
                "pitch": 86,
                "velocity": 64,
                "duration": 0.0159091,
                "tempo": 120.0
            },
            {
                "start_time": 28.1181818,
                "end_time": 28.1340909,
                "pitch": 85,
                "velocity": 64,
                "duration": 0.0159091,
                "tempo": 120.0
            },
            {
                "start_time": 28.1340909,
                "end_time": 28.1522727,
                "pitch": 88,
                "velocity": 64,
                "duration": 0.0181818,
                "tempo": 120.0
            },
            {
                "start_time": 28.2522727,
                "end_time": 28.2681818,
                "pitch": 86,
                "velocity": 64,
                "duration": 0.0159091,
                "tempo": 120.0
            },
            {
                "start_time": 28.2681818,
                "end_time": 28.2863636,
                "pitch": 89,
                "velocity": 64,
                "duration": 0.0181818,
                "tempo": 120.0
            },
            {
                "start_time": 28.3863636,
                "end_time": 28.4022727,
                "pitch": 74,
                "velocity": 64,
                "duration": 0.0159091,
                "tempo": 120.0
            },
            {
                "start_time": 28.4022727,
                "end_time": 28.4181818,
                "pitch": 77,
                "velocity": 64,
                "duration": 0.0159091,
                "tempo": 120.0
            },
            {
                "start_time": 28.5181818,
                "end_time": 28.5363636,
                "pitch": 73,
                "velocity": 64,
                "duration": 0.0181818,
                "tempo": 120.0
            },
            {
                "start_time": 28.5363636,
                "end_time": 28.5522727,
                "pitch": 76,
                "velocity": 64,
                "duration": 0.0159091,
                "tempo": 120.0
            },
            {
                "start_time": 28.6522727,
                "end_time": 28.6704545,
                "pitch": 74,
                "velocity": 64,
                "duration": 0.0181818,
                "tempo": 120.0
            },
            {
                "start_time": 28.6704545,
                "end_time": 28.6863636,
                "pitch": 77,
                "velocity": 64,
                "duration": 0.0159091,
                "tempo": 120.0
            },
            {
                "start_time": 28.7863636,
                "end_time": 28.8022727,
                "pitch": 76,
                "velocity": 64,
                "duration": 0.0159091,
                "tempo": 120.0
            },
            {
                "start_time": 28.8022727,
                "end_time": 28.8204545,
                "pitch": 79,
                "velocity": 64,
                "duration": 0.0181818,
                "tempo": 120.0
            },
            {
                "start_time": 28.9204545,
                "end_time": 28.9363636,
                "pitch": 78,
                "velocity": 64,
                "duration": 0.0159091,
                "tempo": 120.0
            },
            {
                "start_time": 28.9363636,
                "end_time": 28.9545455,
                "pitch": 81,
                "velocity": 64,
                "duration": 0.0181818,
                "tempo": 120.0
            },
            {
                "start_time": 29.0568182,
                "end_time": 29.0727273,
                "pitch": 76,
                "velocity": 64,
                "duration": 0.0159091,
                "tempo": 120.0
            },
            {
                "start_time": 29.0727273,
                "end_time": 29.0909091,
                "pitch": 79,
                "velocity": 64,
                "duration": 0.0181818,
                "tempo": 120.0
            },
            {
                "start_time": 29.1909091,
                "end_time": 29.2090909,
                "pitch": 78,
                "velocity": 64,
                "duration": 0.0181818,
                "tempo": 120.0
            },
            {
                "start_time": 29.2090909,
                "end_time": 29.225,
                "pitch": 81,
                "velocity": 64,
                "duration": 0.0159091,
                "tempo": 120.0
            },
            {
                "start_time": 29.3272727,
                "end_time": 29.3454545,
                "pitch": 79,
                "velocity": 64,
                "duration": 0.0181818,
                "tempo": 120.0
            },
            {
                "start_time": 29.3454545,
                "end_time": 29.3613636,
                "pitch": 82,
                "velocity": 64,
                "duration": 0.0159091,
                "tempo": 120.0
            },
            {
                "start_time": 29.4636364,
                "end_time": 29.4795455,
                "pitch": 81,
                "velocity": 64,
                "duration": 0.0159091,
                "tempo": 120.0
            },
            {
                "start_time": 29.4795455,
                "end_time": 29.4977273,
                "pitch": 84,
                "velocity": 64,
                "duration": 0.0181818,
                "tempo": 120.0
            },
            {
                "start_time": 29.5977273,
                "end_time": 29.6136364,
                "pitch": 79,
                "velocity": 64,
                "duration": 0.0159091,
                "tempo": 120.0
            },
            {
                "start_time": 29.6136364,
                "end_time": 29.6318182,
                "pitch": 82,
                "velocity": 64,
                "duration": 0.0181818,
                "tempo": 120.0
            },
            {
                "start_time": 29.7318182,
                "end_time": 29.7477273,
                "pitch": 81,
                "velocity": 64,
                "duration": 0.0159091,
                "tempo": 120.0
            },
            {
                "start_time": 29.7477273,
                "end_time": 29.7636364,
                "pitch": 84,
                "velocity": 64,
                "duration": 0.0159091,
                "tempo": 120.0
            },
            {
                "start_time": 29.8636364,
                "end_time": 29.8818182,
                "pitch": 83,
                "velocity": 64,
                "duration": 0.0181818,
                "tempo": 120.0
            },
            {
                "start_time": 29.8818182,
                "end_time": 29.8977273,
                "pitch": 86,
                "velocity": 64,
                "duration": 0.0159091,
                "tempo": 120.0
            },
            {
                "start_time": 29.9977273,
                "end_time": 30.0159091,
                "pitch": 85,
                "velocity": 64,
                "duration": 0.0181818,
                "tempo": 120.0
            },
            {
                "start_time": 30.0159091,
                "end_time": 30.0318182,
                "pitch": 88,
                "velocity": 64,
                "duration": 0.0159091,
                "tempo": 120.0
            },
            {
                "start_time": 30.1318182,
                "end_time": 30.1477273,
                "pitch": 83,
                "velocity": 64,
                "duration": 0.0159091,
                "tempo": 120.0
            },
            {
                "start_time": 30.1477273,
                "end_time": 30.1659091,
                "pitch": 86,
                "velocity": 64,
                "duration": 0.0181818,
                "tempo": 120.0
            },
            {
                "start_time": 30.2659091,
                "end_time": 30.2818182,
                "pitch": 85,
                "velocity": 64,
                "duration": 0.0159091,
                "tempo": 120.0
            },
            {
                "start_time": 30.2818182,
                "end_time": 30.3,
                "pitch": 88,
                "velocity": 64,
                "duration": 0.0181818,
                "tempo": 120.0
            },
            {
                "start_time": 30.4,
                "end_time": 30.4159091,
                "pitch": 86,
                "velocity": 64,
                "duration": 0.0159091,
                "tempo": 120.0
            },
            {
                "start_time": 30.4159091,
                "end_time": 30.4318182,
                "pitch": 89,
                "velocity": 64,
                "duration": 0.0159091,
                "tempo": 120.0
            },
            {
                "start_time": 30.5318182,
                "end_time": 30.55,
                "pitch": 74,
                "velocity": 64,
                "duration": 0.0181818,
                "tempo": 120.0
            },
            {
                "start_time": 30.55,
                "end_time": 30.5659091,
                "pitch": 77,
                "velocity": 64,
                "duration": 0.0159091,
                "tempo": 120.0
            },
            {
                "start_time": 30.6681818,
                "end_time": 30.6863636,
                "pitch": 73,
                "velocity": 64,
                "duration": 0.0181818,
                "tempo": 120.0
            },
            {
                "start_time": 30.6863636,
                "end_time": 30.7022727,
                "pitch": 76,
                "velocity": 64,
                "duration": 0.0159091,
                "tempo": 120.0
            },
            {
                "start_time": 30.8045455,
                "end_time": 30.8227273,
                "pitch": 74,
                "velocity": 64,
                "duration": 0.0181818,
                "tempo": 120.0
            },
            {
                "start_time": 30.8227273,
                "end_time": 30.8386364,
                "pitch": 77,
                "velocity": 64,
                "duration": 0.0159091,
                "tempo": 120.0
            },
            {
                "start_time": 30.9409091,
                "end_time": 30.9568182,
                "pitch": 76,
                "velocity": 64,
                "duration": 0.0159091,
                "tempo": 120.0
            },
            {
                "start_time": 30.9568182,
                "end_time": 30.975,
                "pitch": 79,
                "velocity": 64,
                "duration": 0.0181818,
                "tempo": 120.0
            },
            {
                "start_time": 31.0772727,
                "end_time": 31.0931818,
                "pitch": 78,
                "velocity": 64,
                "duration": 0.0159091,
                "tempo": 120.0
            },
            {
                "start_time": 31.0931818,
                "end_time": 31.1090909,
                "pitch": 81,
                "velocity": 64,
                "duration": 0.0159091,
                "tempo": 120.0
            },
            {
                "start_time": 31.2090909,
                "end_time": 31.2272727,
                "pitch": 76,
                "velocity": 64,
                "duration": 0.0181818,
                "tempo": 120.0
            },
            {
                "start_time": 31.2272727,
                "end_time": 31.2431818,
                "pitch": 79,
                "velocity": 64,
                "duration": 0.0159091,
                "tempo": 120.0
            },
            {
                "start_time": 31.3431818,
                "end_time": 31.3613636,
                "pitch": 78,
                "velocity": 64,
                "duration": 0.0181818,
                "tempo": 120.0
            },
            {
                "start_time": 31.3613636,
                "end_time": 31.3772727,
                "pitch": 81,
                "velocity": 64,
                "duration": 0.0159091,
                "tempo": 120.0
            },
            {
                "start_time": 31.4772727,
                "end_time": 31.4931818,
                "pitch": 79,
                "velocity": 64,
                "duration": 0.0159091,
                "tempo": 120.0
            },
            {
                "start_time": 31.4931818,
                "end_time": 31.5113636,
                "pitch": 82,
                "velocity": 64,
                "duration": 0.0181818,
                "tempo": 120.0
            },
            {
                "start_time": 31.6113636,
                "end_time": 31.6272727,
                "pitch": 81,
                "velocity": 64,
                "duration": 0.0159091,
                "tempo": 120.0
            },
            {
                "start_time": 31.6272727,
                "end_time": 31.6454545,
                "pitch": 84,
                "velocity": 64,
                "duration": 0.0181818,
                "tempo": 120.0
            },
            {
                "start_time": 31.7454545,
                "end_time": 31.7613636,
                "pitch": 79,
                "velocity": 64,
                "duration": 0.0159091,
                "tempo": 120.0
            },
            {
                "start_time": 31.7613636,
                "end_time": 31.7772727,
                "pitch": 82,
                "velocity": 64,
                "duration": 0.0159091,
                "tempo": 120.0
            },
            {
                "start_time": 31.8772727,
                "end_time": 31.8954545,
                "pitch": 81,
                "velocity": 64,
                "duration": 0.0181818,
                "tempo": 120.0
            },
            {
                "start_time": 31.8954545,
                "end_time": 31.9113636,
                "pitch": 84,
                "velocity": 64,
                "duration": 0.0159091,
                "tempo": 120.0
            },
            {
                "start_time": 32.0113636,
                "end_time": 32.0295455,
                "pitch": 83,
                "velocity": 64,
                "duration": 0.0181818,
                "tempo": 120.0
            },
            {
                "start_time": 32.0295455,
                "end_time": 32.0454545,
                "pitch": 86,
                "velocity": 64,
                "duration": 0.0159091,
                "tempo": 120.0
            },
            {
                "start_time": 32.1454545,
                "end_time": 32.1613636,
                "pitch": 85,
                "velocity": 64,
                "duration": 0.0159091,
                "tempo": 120.0
            },
            {
                "start_time": 32.1613636,
                "end_time": 32.1795455,
                "pitch": 88,
                "velocity": 64,
                "duration": 0.0181818,
                "tempo": 120.0
            },
            {
                "start_time": 32.2795455,
                "end_time": 32.2954545,
                "pitch": 83,
                "velocity": 64,
                "duration": 0.0159091,
                "tempo": 120.0
            },
            {
                "start_time": 32.2954545,
                "end_time": 32.3113636,
                "pitch": 86,
                "velocity": 64,
                "duration": 0.0159091,
                "tempo": 120.0
            },
            {
                "start_time": 32.4136364,
                "end_time": 32.4295455,
                "pitch": 85,
                "velocity": 64,
                "duration": 0.0159091,
                "tempo": 120.0
            },
            {
                "start_time": 32.4295455,
                "end_time": 32.4454545,
                "pitch": 88,
                "velocity": 64,
                "duration": 0.0159091,
                "tempo": 120.0
            },
            {
                "start_time": 32.5454545,
                "end_time": 32.5636364,
                "pitch": 86,
                "velocity": 64,
                "duration": 0.0181818,
                "tempo": 120.0
            },
            {
                "start_time": 32.5636364,
                "end_time": 32.5795455,
                "pitch": 89,
                "velocity": 64,
                "duration": 0.0159091,
                "tempo": 120.0
            },
            {
                "start_time": 32.6795455,
                "end_time": 32.6977273,
                "pitch": 74,
                "velocity": 64,
                "duration": 0.0181818,
                "tempo": 120.0
            },
            {
                "start_time": 32.6977273,
                "end_time": 32.7136364,
                "pitch": 77,
                "velocity": 64,
                "duration": 0.0159091,
                "tempo": 120.0
            },
            {
                "start_time": 32.9522727,
                "end_time": 32.9681818,
                "pitch": 76,
                "velocity": 64,
                "duration": 0.0159091,
                "tempo": 120.0
            },
            {
                "start_time": 32.9681818,
                "end_time": 32.9863636,
                "pitch": 79,
                "velocity": 64,
                "duration": 0.0181818,
                "tempo": 120.0
            },
            {
                "start_time": 33.2227273,
                "end_time": 33.2409091,
                "pitch": 78,
                "velocity": 64,
                "duration": 0.0181818,
                "tempo": 120.0
            },
            {
                "start_time": 33.2409091,
                "end_time": 33.2568182,
                "pitch": 81,
                "velocity": 64,
                "duration": 0.0159091,
                "tempo": 120.0
            },
            {
                "start_time": 33.4909091,
                "end_time": 33.5068182,
                "pitch": 74,
                "velocity": 64,
                "duration": 0.0159091,
                "tempo": 120.0
            },
            {
                "start_time": 33.5068182,
                "end_time": 33.525,
                "pitch": 77,
                "velocity": 64,
                "duration": 0.0181818,
                "tempo": 120.0
            },
            {
                "start_time": 33.625,
                "end_time": 33.6409091,
                "pitch": 76,
                "velocity": 64,
                "duration": 0.0159091,
                "tempo": 120.0
            },
            {
                "start_time": 33.6409091,
                "end_time": 33.6568182,
                "pitch": 79,
                "velocity": 64,
                "duration": 0.0159091,
                "tempo": 120.0
            },
            {
                "start_time": 33.8909091,
                "end_time": 33.9090909,
                "pitch": 78,
                "velocity": 64,
                "duration": 0.0181818,
                "tempo": 120.0
            },
            {
                "start_time": 33.9090909,
                "end_time": 33.925,
                "pitch": 81,
                "velocity": 64,
                "duration": 0.0159091,
                "tempo": 120.0
            },
            {
                "start_time": 34.025,
                "end_time": 34.0409091,
                "pitch": 74,
                "velocity": 64,
                "duration": 0.0159091,
                "tempo": 120.0
            },
            {
                "start_time": 34.0409091,
                "end_time": 34.0590909,
                "pitch": 77,
                "velocity": 64,
                "duration": 0.0181818,
                "tempo": 120.0
            },
            {
                "start_time": 34.2931818,
                "end_time": 34.3090909,
                "pitch": 76,
                "velocity": 64,
                "duration": 0.0159091,
                "tempo": 120.0
            },
            {
                "start_time": 34.3090909,
                "end_time": 34.3272727,
                "pitch": 79,
                "velocity": 64,
                "duration": 0.0181818,
                "tempo": 120.0
            },
            {
                "start_time": 34.5636364,
                "end_time": 34.5818182,
                "pitch": 78,
                "velocity": 64,
                "duration": 0.0181818,
                "tempo": 120.0
            },
            {
                "start_time": 34.5818182,
                "end_time": 34.5977273,
                "pitch": 81,
                "velocity": 64,
                "duration": 0.0159091,
                "tempo": 120.0
            },
            {
                "start_time": 34.8363636,
                "end_time": 34.8522727,
                "pitch": 81,
                "velocity": 64,
                "duration": 0.0159091,
                "tempo": 120.0
            },
            {
                "start_time": 34.8522727,
                "end_time": 34.8704545,
                "pitch": 84,
                "velocity": 64,
                "duration": 0.0181818,
                "tempo": 120.0
            },
            {
                "start_time": 34.8704545,
                "end_time": 35.0363636,
                "pitch": 88,
                "velocity": 64,
                "duration": 0.1659091,
                "tempo": 120.0
            },
            {
                "start_time": 35.6386364,
                "end_time": 35.6545455,
                "pitch": 81,
                "velocity": 64,
                "duration": 0.0159091,
                "tempo": 120.0
            },
            {
                "start_time": 35.6545455,
                "end_time": 35.6704545,
                "pitch": 84,
                "velocity": 64,
                "duration": 0.0159091,
                "tempo": 120.0
            },
            {
                "start_time": 35.7727273,
                "end_time": 35.7886364,
                "pitch": 81,
                "velocity": 64,
                "duration": 0.0159091,
                "tempo": 120.0
            },
            {
                "start_time": 35.7886364,
                "end_time": 35.8045455,
                "pitch": 84,
                "velocity": 64,
                "duration": 0.0159091,
                "tempo": 120.0
            },
            {
                "start_time": 35.9045455,
                "end_time": 35.9227273,
                "pitch": 81,
                "velocity": 64,
                "duration": 0.0181818,
                "tempo": 120.0
            },
            {
                "start_time": 35.9227273,
                "end_time": 35.9386364,
                "pitch": 84,
                "velocity": 64,
                "duration": 0.0159091,
                "tempo": 120.0
            },
            {
                "start_time": 35.9386364,
                "end_time": 35.9727273,
                "pitch": 88,
                "velocity": 64,
                "duration": 0.0340909,
                "tempo": 120.0
            },
            {
                "start_time": 36.1772727,
                "end_time": 36.1931818,
                "pitch": 79,
                "velocity": 64,
                "duration": 0.0159091,
                "tempo": 120.0
            },
            {
                "start_time": 36.1931818,
                "end_time": 36.2113636,
                "pitch": 82,
                "velocity": 64,
                "duration": 0.0181818,
                "tempo": 120.0
            },
            {
                "start_time": 36.2113636,
                "end_time": 36.2454545,
                "pitch": 86,
                "velocity": 64,
                "duration": 0.0340909,
                "tempo": 120.0
            },
            {
                "start_time": 36.45,
                "end_time": 36.4659091,
                "pitch": 78,
                "velocity": 64,
                "duration": 0.0159091,
                "tempo": 120.0
            },
            {
                "start_time": 36.4659091,
                "end_time": 36.4818182,
                "pitch": 81,
                "velocity": 64,
                "duration": 0.0159091,
                "tempo": 120.0
            },
            {
                "start_time": 36.4818182,
                "end_time": 36.5159091,
                "pitch": 85,
                "velocity": 64,
                "duration": 0.0340909,
                "tempo": 120.0
            },
            {
                "start_time": 36.7159091,
                "end_time": 36.7340909,
                "pitch": 79,
                "velocity": 64,
                "duration": 0.0181818,
                "tempo": 120.0
            },
            {
                "start_time": 36.7340909,
                "end_time": 36.75,
                "pitch": 82,
                "velocity": 64,
                "duration": 0.0159091,
                "tempo": 120.0
            },
            {
                "start_time": 36.75,
                "end_time": 36.7840909,
                "pitch": 86,
                "velocity": 64,
                "duration": 0.0340909,
                "tempo": 120.0
            },
            {
                "start_time": 36.9840909,
                "end_time": 37.0,
                "pitch": 81,
                "velocity": 64,
                "duration": 0.0159091,
                "tempo": 120.0
            },
            {
                "start_time": 37.0,
                "end_time": 37.0181818,
                "pitch": 84,
                "velocity": 64,
                "duration": 0.0181818,
                "tempo": 120.0
            },
            {
                "start_time": 37.0181818,
                "end_time": 37.1863636,
                "pitch": 88,
                "velocity": 64,
                "duration": 0.1681818,
                "tempo": 120.0
            },
            {
                "start_time": 37.7954545,
                "end_time": 37.8113636,
                "pitch": 81,
                "velocity": 64,
                "duration": 0.0159091,
                "tempo": 120.0
            },
            {
                "start_time": 37.8113636,
                "end_time": 37.8272727,
                "pitch": 84,
                "velocity": 64,
                "duration": 0.0159091,
                "tempo": 120.0
            },
            {
                "start_time": 37.9272727,
                "end_time": 37.9454545,
                "pitch": 81,
                "velocity": 64,
                "duration": 0.0181818,
                "tempo": 120.0
            },
            {
                "start_time": 37.9454545,
                "end_time": 37.9613636,
                "pitch": 84,
                "velocity": 64,
                "duration": 0.0159091,
                "tempo": 120.0
            },
            {
                "start_time": 38.0613636,
                "end_time": 38.0795455,
                "pitch": 81,
                "velocity": 64,
                "duration": 0.0181818,
                "tempo": 120.0
            },
            {
                "start_time": 38.0795455,
                "end_time": 38.0954545,
                "pitch": 84,
                "velocity": 64,
                "duration": 0.0159091,
                "tempo": 120.0
            },
            {
                "start_time": 38.0954545,
                "end_time": 38.1295455,
                "pitch": 88,
                "velocity": 64,
                "duration": 0.0340909,
                "tempo": 120.0
            },
            {
                "start_time": 38.3295455,
                "end_time": 38.3454545,
                "pitch": 79,
                "velocity": 64,
                "duration": 0.0159091,
                "tempo": 120.0
            },
            {
                "start_time": 38.3454545,
                "end_time": 38.3613636,
                "pitch": 82,
                "velocity": 64,
                "duration": 0.0159091,
                "tempo": 120.0
            },
            {
                "start_time": 38.3613636,
                "end_time": 38.3954545,
                "pitch": 86,
                "velocity": 64,
                "duration": 0.0340909,
                "tempo": 120.0
            },
            {
                "start_time": 38.5954545,
                "end_time": 38.6136364,
                "pitch": 78,
                "velocity": 64,
                "duration": 0.0181818,
                "tempo": 120.0
            },
            {
                "start_time": 38.6136364,
                "end_time": 38.6295455,
                "pitch": 81,
                "velocity": 64,
                "duration": 0.0159091,
                "tempo": 120.0
            },
            {
                "start_time": 38.6295455,
                "end_time": 38.6636364,
                "pitch": 85,
                "velocity": 64,
                "duration": 0.0340909,
                "tempo": 120.0
            },
            {
                "start_time": 38.8636364,
                "end_time": 38.8795455,
                "pitch": 79,
                "velocity": 64,
                "duration": 0.0159091,
                "tempo": 120.0
            },
            {
                "start_time": 38.8795455,
                "end_time": 38.8977273,
                "pitch": 82,
                "velocity": 64,
                "duration": 0.0181818,
                "tempo": 120.0
            },
            {
                "start_time": 38.8977273,
                "end_time": 38.9295455,
                "pitch": 86,
                "velocity": 64,
                "duration": 0.0318182,
                "tempo": 120.0
            },
            {
                "start_time": 39.1295455,
                "end_time": 39.1477273,
                "pitch": 81,
                "velocity": 64,
                "duration": 0.0181818,
                "tempo": 120.0
            },
            {
                "start_time": 39.1477273,
                "end_time": 39.1636364,
                "pitch": 84,
                "velocity": 64,
                "duration": 0.0159091,
                "tempo": 120.0
            },
            {
                "start_time": 39.1636364,
                "end_time": 39.3340909,
                "pitch": 88,
                "velocity": 64,
                "duration": 0.1704545,
                "tempo": 120.0
            },
            {
                "start_time": 39.9409091,
                "end_time": 39.9590909,
                "pitch": 81,
                "velocity": 64,
                "duration": 0.0181818,
                "tempo": 120.0
            },
            {
                "start_time": 39.9590909,
                "end_time": 39.975,
                "pitch": 84,
                "velocity": 64,
                "duration": 0.0159091,
                "tempo": 120.0
            },
            {
                "start_time": 40.075,
                "end_time": 40.0931818,
                "pitch": 81,
                "velocity": 64,
                "duration": 0.0181818,
                "tempo": 120.0
            },
            {
                "start_time": 40.0931818,
                "end_time": 40.1090909,
                "pitch": 84,
                "velocity": 64,
                "duration": 0.0159091,
                "tempo": 120.0
            },
            {
                "start_time": 40.2090909,
                "end_time": 40.225,
                "pitch": 81,
                "velocity": 64,
                "duration": 0.0159091,
                "tempo": 120.0
            },
            {
                "start_time": 40.225,
                "end_time": 40.2431818,
                "pitch": 84,
                "velocity": 64,
                "duration": 0.0181818,
                "tempo": 120.0
            },
            {
                "start_time": 40.2431818,
                "end_time": 40.2772727,
                "pitch": 88,
                "velocity": 64,
                "duration": 0.0340909,
                "tempo": 120.0
            },
            {
                "start_time": 40.4818182,
                "end_time": 40.4977273,
                "pitch": 79,
                "velocity": 64,
                "duration": 0.0159091,
                "tempo": 120.0
            },
            {
                "start_time": 40.4977273,
                "end_time": 40.5159091,
                "pitch": 82,
                "velocity": 64,
                "duration": 0.0181818,
                "tempo": 120.0
            },
            {
                "start_time": 40.5159091,
                "end_time": 40.55,
                "pitch": 86,
                "velocity": 64,
                "duration": 0.0340909,
                "tempo": 120.0
            },
            {
                "start_time": 40.7522727,
                "end_time": 40.7704545,
                "pitch": 78,
                "velocity": 64,
                "duration": 0.0181818,
                "tempo": 120.0
            },
            {
                "start_time": 40.7704545,
                "end_time": 40.7863636,
                "pitch": 81,
                "velocity": 64,
                "duration": 0.0159091,
                "tempo": 120.0
            },
            {
                "start_time": 40.7863636,
                "end_time": 40.8204545,
                "pitch": 85,
                "velocity": 64,
                "duration": 0.0340909,
                "tempo": 120.0
            },
            {
                "start_time": 41.0204545,
                "end_time": 41.0363636,
                "pitch": 79,
                "velocity": 64,
                "duration": 0.0159091,
                "tempo": 120.0
            },
            {
                "start_time": 41.0363636,
                "end_time": 41.0545455,
                "pitch": 82,
                "velocity": 64,
                "duration": 0.0181818,
                "tempo": 120.0
            },
            {
                "start_time": 41.0545455,
                "end_time": 41.0863636,
                "pitch": 86,
                "velocity": 64,
                "duration": 0.0318182,
                "tempo": 120.0
            },
            {
                "start_time": 41.2863636,
                "end_time": 41.3045455,
                "pitch": 74,
                "velocity": 64,
                "duration": 0.0181818,
                "tempo": 120.0
            },
            {
                "start_time": 41.3045455,
                "end_time": 41.3204545,
                "pitch": 77,
                "velocity": 64,
                "duration": 0.0159091,
                "tempo": 120.0
            },
            {
                "start_time": 41.5545455,
                "end_time": 41.5704545,
                "pitch": 76,
                "velocity": 64,
                "duration": 0.0159091,
                "tempo": 120.0
            },
            {
                "start_time": 41.5704545,
                "end_time": 41.5886364,
                "pitch": 79,
                "velocity": 64,
                "duration": 0.0181818,
                "tempo": 120.0
            },
            {
                "start_time": 41.8227273,
                "end_time": 41.8386364,
                "pitch": 78,
                "velocity": 64,
                "duration": 0.0159091,
                "tempo": 120.0
            },
            {
                "start_time": 41.8386364,
                "end_time": 41.8545455,
                "pitch": 81,
                "velocity": 64,
                "duration": 0.0159091,
                "tempo": 120.0
            },
            {
                "start_time": 42.0931818,
                "end_time": 42.1113636,
                "pitch": 74,
                "velocity": 64,
                "duration": 0.0181818,
                "tempo": 120.0
            },
            {
                "start_time": 42.1113636,
                "end_time": 42.1272727,
                "pitch": 77,
                "velocity": 64,
                "duration": 0.0159091,
                "tempo": 120.0
            },
            {
                "start_time": 42.2295455,
                "end_time": 42.2477273,
                "pitch": 76,
                "velocity": 64,
                "duration": 0.0181818,
                "tempo": 120.0
            },
            {
                "start_time": 42.2477273,
                "end_time": 42.2636364,
                "pitch": 79,
                "velocity": 64,
                "duration": 0.0159091,
                "tempo": 120.0
            },
            {
                "start_time": 42.5,
                "end_time": 42.5159091,
                "pitch": 78,
                "velocity": 64,
                "duration": 0.0159091,
                "tempo": 120.0
            },
            {
                "start_time": 42.5159091,
                "end_time": 42.5318182,
                "pitch": 81,
                "velocity": 64,
                "duration": 0.0159091,
                "tempo": 120.0
            },
            {
                "start_time": 42.6318182,
                "end_time": 42.65,
                "pitch": 74,
                "velocity": 64,
                "duration": 0.0181818,
                "tempo": 120.0
            },
            {
                "start_time": 42.65,
                "end_time": 42.6659091,
                "pitch": 77,
                "velocity": 64,
                "duration": 0.0159091,
                "tempo": 120.0
            },
            {
                "start_time": 42.9,
                "end_time": 42.9159091,
                "pitch": 76,
                "velocity": 64,
                "duration": 0.0159091,
                "tempo": 120.0
            },
            {
                "start_time": 42.9159091,
                "end_time": 42.9340909,
                "pitch": 79,
                "velocity": 64,
                "duration": 0.0181818,
                "tempo": 120.0
            },
            {
                "start_time": 43.1681818,
                "end_time": 43.1840909,
                "pitch": 78,
                "velocity": 64,
                "duration": 0.0159091,
                "tempo": 120.0
            },
            {
                "start_time": 43.1840909,
                "end_time": 43.2,
                "pitch": 81,
                "velocity": 64,
                "duration": 0.0159091,
                "tempo": 120.0
            },
            {
                "start_time": 43.4340909,
                "end_time": 43.45,
                "pitch": 81,
                "velocity": 64,
                "duration": 0.0159091,
                "tempo": 120.0
            },
            {
                "start_time": 43.45,
                "end_time": 43.4681818,
                "pitch": 84,
                "velocity": 64,
                "duration": 0.0181818,
                "tempo": 120.0
            },
            {
                "start_time": 43.4681818,
                "end_time": 43.6340909,
                "pitch": 88,
                "velocity": 64,
                "duration": 0.1659091,
                "tempo": 120.0
            },
            {
                "start_time": 44.2409091,
                "end_time": 44.2568182,
                "pitch": 81,
                "velocity": 64,
                "duration": 0.0159091,
                "tempo": 120.0
            },
            {
                "start_time": 44.2568182,
                "end_time": 44.275,
                "pitch": 84,
                "velocity": 64,
                "duration": 0.0181818,
                "tempo": 120.0
            },
            {
                "start_time": 44.3772727,
                "end_time": 44.3931818,
                "pitch": 81,
                "velocity": 64,
                "duration": 0.0159091,
                "tempo": 120.0
            },
            {
                "start_time": 44.3931818,
                "end_time": 44.4113636,
                "pitch": 84,
                "velocity": 64,
                "duration": 0.0181818,
                "tempo": 120.0
            },
            {
                "start_time": 44.5136364,
                "end_time": 44.5295455,
                "pitch": 81,
                "velocity": 64,
                "duration": 0.0159091,
                "tempo": 120.0
            },
            {
                "start_time": 44.5295455,
                "end_time": 44.5454545,
                "pitch": 84,
                "velocity": 64,
                "duration": 0.0159091,
                "tempo": 120.0
            },
            {
                "start_time": 44.5454545,
                "end_time": 44.5795455,
                "pitch": 88,
                "velocity": 64,
                "duration": 0.0340909,
                "tempo": 120.0
            },
            {
                "start_time": 44.7795455,
                "end_time": 44.7977273,
                "pitch": 79,
                "velocity": 64,
                "duration": 0.0181818,
                "tempo": 120.0
            },
            {
                "start_time": 44.7977273,
                "end_time": 44.8136364,
                "pitch": 82,
                "velocity": 64,
                "duration": 0.0159091,
                "tempo": 120.0
            },
            {
                "start_time": 44.8136364,
                "end_time": 44.8477273,
                "pitch": 86,
                "velocity": 64,
                "duration": 0.0340909,
                "tempo": 120.0
            },
            {
                "start_time": 45.0477273,
                "end_time": 45.0636364,
                "pitch": 78,
                "velocity": 64,
                "duration": 0.0159091,
                "tempo": 120.0
            },
            {
                "start_time": 45.0636364,
                "end_time": 45.0795455,
                "pitch": 81,
                "velocity": 64,
                "duration": 0.0159091,
                "tempo": 120.0
            },
            {
                "start_time": 45.0795455,
                "end_time": 45.1136364,
                "pitch": 85,
                "velocity": 64,
                "duration": 0.0340909,
                "tempo": 120.0
            },
            {
                "start_time": 45.3136364,
                "end_time": 45.3318182,
                "pitch": 79,
                "velocity": 64,
                "duration": 0.0181818,
                "tempo": 120.0
            },
            {
                "start_time": 45.3318182,
                "end_time": 45.3477273,
                "pitch": 82,
                "velocity": 64,
                "duration": 0.0159091,
                "tempo": 120.0
            },
            {
                "start_time": 45.3477273,
                "end_time": 45.3818182,
                "pitch": 86,
                "velocity": 64,
                "duration": 0.0340909,
                "tempo": 120.0
            },
            {
                "start_time": 45.5818182,
                "end_time": 45.5977273,
                "pitch": 81,
                "velocity": 64,
                "duration": 0.0159091,
                "tempo": 120.0
            },
            {
                "start_time": 45.5977273,
                "end_time": 45.6159091,
                "pitch": 84,
                "velocity": 64,
                "duration": 0.0181818,
                "tempo": 120.0
            },
            {
                "start_time": 45.6159091,
                "end_time": 45.7863636,
                "pitch": 88,
                "velocity": 64,
                "duration": 0.1704545,
                "tempo": 120.0
            },
            {
                "start_time": 46.3931818,
                "end_time": 46.4090909,
                "pitch": 81,
                "velocity": 64,
                "duration": 0.0159091,
                "tempo": 120.0
            },
            {
                "start_time": 46.4090909,
                "end_time": 46.425,
                "pitch": 84,
                "velocity": 64,
                "duration": 0.0159091,
                "tempo": 120.0
            },
            {
                "start_time": 46.5272727,
                "end_time": 46.5431818,
                "pitch": 81,
                "velocity": 64,
                "duration": 0.0159091,
                "tempo": 120.0
            },
            {
                "start_time": 46.5431818,
                "end_time": 46.5590909,
                "pitch": 84,
                "velocity": 64,
                "duration": 0.0159091,
                "tempo": 120.0
            },
            {
                "start_time": 46.6590909,
                "end_time": 46.6772727,
                "pitch": 81,
                "velocity": 64,
                "duration": 0.0181818,
                "tempo": 120.0
            },
            {
                "start_time": 46.6772727,
                "end_time": 46.6931818,
                "pitch": 84,
                "velocity": 64,
                "duration": 0.0159091,
                "tempo": 120.0
            },
            {
                "start_time": 46.6931818,
                "end_time": 46.7272727,
                "pitch": 88,
                "velocity": 64,
                "duration": 0.0340909,
                "tempo": 120.0
            },
            {
                "start_time": 46.9318182,
                "end_time": 46.9477273,
                "pitch": 79,
                "velocity": 64,
                "duration": 0.0159091,
                "tempo": 120.0
            },
            {
                "start_time": 46.9477273,
                "end_time": 46.9659091,
                "pitch": 82,
                "velocity": 64,
                "duration": 0.0181818,
                "tempo": 120.0
            },
            {
                "start_time": 46.9659091,
                "end_time": 47.0,
                "pitch": 86,
                "velocity": 64,
                "duration": 0.0340909,
                "tempo": 120.0
            },
            {
                "start_time": 47.2045455,
                "end_time": 47.2204545,
                "pitch": 78,
                "velocity": 64,
                "duration": 0.0159091,
                "tempo": 120.0
            },
            {
                "start_time": 47.2204545,
                "end_time": 47.2363636,
                "pitch": 81,
                "velocity": 64,
                "duration": 0.0159091,
                "tempo": 120.0
            },
            {
                "start_time": 47.2363636,
                "end_time": 47.2704545,
                "pitch": 85,
                "velocity": 64,
                "duration": 0.0340909,
                "tempo": 120.0
            },
            {
                "start_time": 47.4704545,
                "end_time": 47.4886364,
                "pitch": 79,
                "velocity": 64,
                "duration": 0.0181818,
                "tempo": 120.0
            },
            {
                "start_time": 47.4886364,
                "end_time": 47.5045455,
                "pitch": 82,
                "velocity": 64,
                "duration": 0.0159091,
                "tempo": 120.0
            },
            {
                "start_time": 47.5045455,
                "end_time": 47.5386364,
                "pitch": 86,
                "velocity": 64,
                "duration": 0.0340909,
                "tempo": 120.0
            },
            {
                "start_time": 47.7386364,
                "end_time": 47.7545455,
                "pitch": 81,
                "velocity": 64,
                "duration": 0.0159091,
                "tempo": 120.0
            },
            {
                "start_time": 47.7545455,
                "end_time": 47.7704545,
                "pitch": 84,
                "velocity": 64,
                "duration": 0.0159091,
                "tempo": 120.0
            },
            {
                "start_time": 47.7704545,
                "end_time": 47.9386364,
                "pitch": 88,
                "velocity": 64,
                "duration": 0.1681818,
                "tempo": 120.0
            },
            {
                "start_time": 48.5454545,
                "end_time": 48.5613636,
                "pitch": 81,
                "velocity": 64,
                "duration": 0.0159091,
                "tempo": 120.0
            },
            {
                "start_time": 48.5613636,
                "end_time": 48.5795455,
                "pitch": 84,
                "velocity": 64,
                "duration": 0.0181818,
                "tempo": 120.0
            },
            {
                "start_time": 48.6795455,
                "end_time": 48.6977273,
                "pitch": 81,
                "velocity": 64,
                "duration": 0.0181818,
                "tempo": 120.0
            },
            {
                "start_time": 48.6977273,
                "end_time": 48.7136364,
                "pitch": 84,
                "velocity": 64,
                "duration": 0.0159091,
                "tempo": 120.0
            },
            {
                "start_time": 48.8159091,
                "end_time": 48.8340909,
                "pitch": 81,
                "velocity": 64,
                "duration": 0.0181818,
                "tempo": 120.0
            },
            {
                "start_time": 48.8340909,
                "end_time": 48.85,
                "pitch": 84,
                "velocity": 64,
                "duration": 0.0159091,
                "tempo": 120.0
            },
            {
                "start_time": 48.85,
                "end_time": 48.8840909,
                "pitch": 88,
                "velocity": 64,
                "duration": 0.0340909,
                "tempo": 120.0
            },
            {
                "start_time": 49.0840909,
                "end_time": 49.1,
                "pitch": 79,
                "velocity": 64,
                "duration": 0.0159091,
                "tempo": 120.0
            },
            {
                "start_time": 49.1,
                "end_time": 49.1181818,
                "pitch": 82,
                "velocity": 64,
                "duration": 0.0181818,
                "tempo": 120.0
            },
            {
                "start_time": 49.1181818,
                "end_time": 49.15,
                "pitch": 86,
                "velocity": 64,
                "duration": 0.0318182,
                "tempo": 120.0
            },
            {
                "start_time": 49.35,
                "end_time": 49.3681818,
                "pitch": 78,
                "velocity": 64,
                "duration": 0.0181818,
                "tempo": 120.0
            },
            {
                "start_time": 49.3681818,
                "end_time": 49.3840909,
                "pitch": 81,
                "velocity": 64,
                "duration": 0.0159091,
                "tempo": 120.0
            },
            {
                "start_time": 49.3840909,
                "end_time": 49.4181818,
                "pitch": 85,
                "velocity": 64,
                "duration": 0.0340909,
                "tempo": 120.0
            },
            {
                "start_time": 49.6181818,
                "end_time": 49.6340909,
                "pitch": 79,
                "velocity": 64,
                "duration": 0.0159091,
                "tempo": 120.0
            },
            {
                "start_time": 49.6340909,
                "end_time": 49.6522727,
                "pitch": 82,
                "velocity": 64,
                "duration": 0.0181818,
                "tempo": 120.0
            },
            {
                "start_time": 49.6522727,
                "end_time": 49.6840909,
                "pitch": 86,
                "velocity": 64,
                "duration": 0.0318182,
                "tempo": 120.0
            },
            {
                "start_time": 49.8840909,
                "end_time": 49.9022727,
                "pitch": 74,
                "velocity": 64,
                "duration": 0.0181818,
                "tempo": 120.0
            },
            {
                "start_time": 49.9022727,
                "end_time": 49.9181818,
                "pitch": 77,
                "velocity": 64,
                "duration": 0.0159091,
                "tempo": 120.0
            },
            {
                "start_time": 50.1522727,
                "end_time": 50.1681818,
                "pitch": 76,
                "velocity": 64,
                "duration": 0.0159091,
                "tempo": 120.0
            },
            {
                "start_time": 50.1681818,
                "end_time": 50.1863636,
                "pitch": 79,
                "velocity": 64,
                "duration": 0.0181818,
                "tempo": 120.0
            },
            {
                "start_time": 50.4204545,
                "end_time": 50.4363636,
                "pitch": 78,
                "velocity": 64,
                "duration": 0.0159091,
                "tempo": 120.0
            },
            {
                "start_time": 50.4363636,
                "end_time": 50.4545455,
                "pitch": 81,
                "velocity": 64,
                "duration": 0.0181818,
                "tempo": 120.0
            },
            {
                "start_time": 50.6909091,
                "end_time": 50.7090909,
                "pitch": 74,
                "velocity": 64,
                "duration": 0.0181818,
                "tempo": 120.0
            },
            {
                "start_time": 50.7090909,
                "end_time": 50.725,
                "pitch": 77,
                "velocity": 64,
                "duration": 0.0159091,
                "tempo": 120.0
            },
            {
                "start_time": 50.8272727,
                "end_time": 50.8454545,
                "pitch": 76,
                "velocity": 64,
                "duration": 0.0181818,
                "tempo": 120.0
            },
            {
                "start_time": 50.8454545,
                "end_time": 50.8613636,
                "pitch": 79,
                "velocity": 64,
                "duration": 0.0159091,
                "tempo": 120.0
            },
            {
                "start_time": 51.0977273,
                "end_time": 51.1136364,
                "pitch": 78,
                "velocity": 64,
                "duration": 0.0159091,
                "tempo": 120.0
            },
            {
                "start_time": 51.1136364,
                "end_time": 51.1295455,
                "pitch": 81,
                "velocity": 64,
                "duration": 0.0159091,
                "tempo": 120.0
            },
            {
                "start_time": 51.2318182,
                "end_time": 51.2477273,
                "pitch": 74,
                "velocity": 64,
                "duration": 0.0159091,
                "tempo": 120.0
            },
            {
                "start_time": 51.2477273,
                "end_time": 51.2636364,
                "pitch": 77,
                "velocity": 64,
                "duration": 0.0159091,
                "tempo": 120.0
            },
            {
                "start_time": 51.4977273,
                "end_time": 51.5159091,
                "pitch": 76,
                "velocity": 64,
                "duration": 0.0181818,
                "tempo": 120.0
            },
            {
                "start_time": 51.5159091,
                "end_time": 51.5318182,
                "pitch": 79,
                "velocity": 64,
                "duration": 0.0159091,
                "tempo": 120.0
            },
            {
                "start_time": 51.7704545,
                "end_time": 51.7863636,
                "pitch": 78,
                "velocity": 64,
                "duration": 0.0159091,
                "tempo": 120.0
            },
            {
                "start_time": 51.7863636,
                "end_time": 51.8045455,
                "pitch": 81,
                "velocity": 64,
                "duration": 0.0181818,
                "tempo": 120.0
            },
            {
                "start_time": 52.0409091,
                "end_time": 52.0590909,
                "pitch": 65,
                "velocity": 64,
                "duration": 0.0181818,
                "tempo": 120.0
            },
            {
                "start_time": 52.0590909,
                "end_time": 52.075,
                "pitch": 68,
                "velocity": 64,
                "duration": 0.0159091,
                "tempo": 120.0
            },
            {
                "start_time": 52.175,
                "end_time": 52.1931818,
                "pitch": 65,
                "velocity": 80,
                "duration": 0.0181818,
                "tempo": 120.0
            },
            {
                "start_time": 52.1931818,
                "end_time": 52.2090909,
                "pitch": 68,
                "velocity": 80,
                "duration": 0.0159091,
                "tempo": 120.0
            },
            {
                "start_time": 52.3090909,
                "end_time": 52.325,
                "pitch": 69,
                "velocity": 80,
                "duration": 0.0159091,
                "tempo": 120.0
            },
            {
                "start_time": 52.325,
                "end_time": 52.3431818,
                "pitch": 72,
                "velocity": 80,
                "duration": 0.0181818,
                "tempo": 120.0
            },
            {
                "start_time": 52.4431818,
                "end_time": 52.4590909,
                "pitch": 69,
                "velocity": 80,
                "duration": 0.0159091,
                "tempo": 120.0
            },
            {
                "start_time": 52.4590909,
                "end_time": 52.475,
                "pitch": 72,
                "velocity": 80,
                "duration": 0.0159091,
                "tempo": 120.0
            },
            {
                "start_time": 52.5772727,
                "end_time": 52.5931818,
                "pitch": 72,
                "velocity": 80,
                "duration": 0.0159091,
                "tempo": 120.0
            },
            {
                "start_time": 52.5931818,
                "end_time": 52.6090909,
                "pitch": 75,
                "velocity": 80,
                "duration": 0.0159091,
                "tempo": 120.0
            },
            {
                "start_time": 52.7090909,
                "end_time": 52.7272727,
                "pitch": 72,
                "velocity": 80,
                "duration": 0.0181818,
                "tempo": 120.0
            },
            {
                "start_time": 52.7272727,
                "end_time": 52.7431818,
                "pitch": 75,
                "velocity": 80,
                "duration": 0.0159091,
                "tempo": 120.0
            },
            {
                "start_time": 52.8431818,
                "end_time": 52.8590909,
                "pitch": 77,
                "velocity": 80,
                "duration": 0.0159091,
                "tempo": 120.0
            },
            {
                "start_time": 52.8590909,
                "end_time": 52.8772727,
                "pitch": 80,
                "velocity": 80,
                "duration": 0.0181818,
                "tempo": 120.0
            },
            {
                "start_time": 52.9772727,
                "end_time": 52.9931818,
                "pitch": 77,
                "velocity": 80,
                "duration": 0.0159091,
                "tempo": 120.0
            },
            {
                "start_time": 52.9931818,
                "end_time": 53.0113636,
                "pitch": 80,
                "velocity": 80,
                "duration": 0.0181818,
                "tempo": 120.0
            },
            {
                "start_time": 54.1886364,
                "end_time": 54.2045455,
                "pitch": 67,
                "velocity": 80,
                "duration": 0.0159091,
                "tempo": 120.0
            },
            {
                "start_time": 54.2045455,
                "end_time": 54.2227273,
                "pitch": 70,
                "velocity": 80,
                "duration": 0.0181818,
                "tempo": 120.0
            },
            {
                "start_time": 54.3227273,
                "end_time": 54.3386364,
                "pitch": 67,
                "velocity": 80,
                "duration": 0.0159091,
                "tempo": 120.0
            },
            {
                "start_time": 54.3386364,
                "end_time": 54.3568182,
                "pitch": 70,
                "velocity": 80,
                "duration": 0.0181818,
                "tempo": 120.0
            },
            {
                "start_time": 54.4568182,
                "end_time": 54.4727273,
                "pitch": 71,
                "velocity": 80,
                "duration": 0.0159091,
                "tempo": 120.0
            },
            {
                "start_time": 54.4727273,
                "end_time": 54.4886364,
                "pitch": 74,
                "velocity": 80,
                "duration": 0.0159091,
                "tempo": 120.0
            },
            {
                "start_time": 54.5886364,
                "end_time": 54.6068182,
                "pitch": 71,
                "velocity": 80,
                "duration": 0.0181818,
                "tempo": 120.0
            },
            {
                "start_time": 54.6068182,
                "end_time": 54.6227273,
                "pitch": 74,
                "velocity": 80,
                "duration": 0.0159091,
                "tempo": 120.0
            },
            {
                "start_time": 54.7227273,
                "end_time": 54.7409091,
                "pitch": 74,
                "velocity": 80,
                "duration": 0.0181818,
                "tempo": 120.0
            },
            {
                "start_time": 54.7409091,
                "end_time": 54.7568182,
                "pitch": 77,
                "velocity": 80,
                "duration": 0.0159091,
                "tempo": 120.0
            },
            {
                "start_time": 54.8568182,
                "end_time": 54.8727273,
                "pitch": 74,
                "velocity": 80,
                "duration": 0.0159091,
                "tempo": 120.0
            },
            {
                "start_time": 54.8727273,
                "end_time": 54.8909091,
                "pitch": 77,
                "velocity": 80,
                "duration": 0.0181818,
                "tempo": 120.0
            },
            {
                "start_time": 54.9909091,
                "end_time": 55.0068182,
                "pitch": 79,
                "velocity": 80,
                "duration": 0.0159091,
                "tempo": 120.0
            },
            {
                "start_time": 55.0068182,
                "end_time": 55.025,
                "pitch": 82,
                "velocity": 80,
                "duration": 0.0181818,
                "tempo": 120.0
            },
            {
                "start_time": 55.125,
                "end_time": 55.1409091,
                "pitch": 79,
                "velocity": 80,
                "duration": 0.0159091,
                "tempo": 120.0
            },
            {
                "start_time": 55.1409091,
                "end_time": 55.1568182,
                "pitch": 82,
                "velocity": 80,
                "duration": 0.0159091,
                "tempo": 120.0
            },
            {
                "start_time": 56.3363636,
                "end_time": 56.3522727,
                "pitch": 67,
                "velocity": 80,
                "duration": 0.0159091,
                "tempo": 120.0
            },
            {
                "start_time": 56.3522727,
                "end_time": 56.3704545,
                "pitch": 70,
                "velocity": 80,
                "duration": 0.0181818,
                "tempo": 120.0
            },
            {
                "start_time": 56.4727273,
                "end_time": 56.4886364,
                "pitch": 67,
                "velocity": 80,
                "duration": 0.0159091,
                "tempo": 120.0
            },
            {
                "start_time": 56.4886364,
                "end_time": 56.5068182,
                "pitch": 70,
                "velocity": 80,
                "duration": 0.0181818,
                "tempo": 120.0
            },
            {
                "start_time": 56.6090909,
                "end_time": 56.625,
                "pitch": 71,
                "velocity": 80,
                "duration": 0.0159091,
                "tempo": 120.0
            },
            {
                "start_time": 56.625,
                "end_time": 56.6409091,
                "pitch": 74,
                "velocity": 80,
                "duration": 0.0159091,
                "tempo": 120.0
            },
            {
                "start_time": 56.7431818,
                "end_time": 56.7613636,
                "pitch": 71,
                "velocity": 80,
                "duration": 0.0181818,
                "tempo": 120.0
            },
            {
                "start_time": 56.7613636,
                "end_time": 56.7772727,
                "pitch": 74,
                "velocity": 80,
                "duration": 0.0159091,
                "tempo": 120.0
            },
            {
                "start_time": 56.8795455,
                "end_time": 56.8977273,
                "pitch": 76,
                "velocity": 80,
                "duration": 0.0181818,
                "tempo": 120.0
            },
            {
                "start_time": 56.8977273,
                "end_time": 56.9136364,
                "pitch": 79,
                "velocity": 80,
                "duration": 0.0159091,
                "tempo": 120.0
            },
            {
                "start_time": 57.0136364,
                "end_time": 57.0295455,
                "pitch": 76,
                "velocity": 80,
                "duration": 0.0159091,
                "tempo": 120.0
            },
            {
                "start_time": 57.0295455,
                "end_time": 57.0477273,
                "pitch": 79,
                "velocity": 80,
                "duration": 0.0181818,
                "tempo": 120.0
            },
            {
                "start_time": 57.1477273,
                "end_time": 57.1636364,
                "pitch": 79,
                "velocity": 80,
                "duration": 0.0159091,
                "tempo": 120.0
            },
            {
                "start_time": 57.1636364,
                "end_time": 57.1795455,
                "pitch": 82,
                "velocity": 80,
                "duration": 0.0159091,
                "tempo": 120.0
            },
            {
                "start_time": 57.2818182,
                "end_time": 57.2977273,
                "pitch": 79,
                "velocity": 80,
                "duration": 0.0159091,
                "tempo": 120.0
            },
            {
                "start_time": 57.2977273,
                "end_time": 57.3136364,
                "pitch": 82,
                "velocity": 80,
                "duration": 0.0159091,
                "tempo": 120.0
            },
            {
                "start_time": 58.4840909,
                "end_time": 58.5,
                "pitch": 64,
                "velocity": 80,
                "duration": 0.0159091,
                "tempo": 120.0
            },
            {
                "start_time": 58.5,
                "end_time": 58.5181818,
                "pitch": 67,
                "velocity": 80,
                "duration": 0.0181818,
                "tempo": 120.0
            },
            {
                "start_time": 58.6181818,
                "end_time": 58.6363636,
                "pitch": 64,
                "velocity": 80,
                "duration": 0.0181818,
                "tempo": 120.0
            },
            {
                "start_time": 58.6363636,
                "end_time": 58.6522727,
                "pitch": 67,
                "velocity": 80,
                "duration": 0.0159091,
                "tempo": 120.0
            },
            {
                "start_time": 58.7545455,
                "end_time": 58.7727273,
                "pitch": 69,
                "velocity": 80,
                "duration": 0.0181818,
                "tempo": 120.0
            },
            {
                "start_time": 58.7727273,
                "end_time": 58.7886364,
                "pitch": 72,
                "velocity": 80,
                "duration": 0.0159091,
                "tempo": 120.0
            },
            {
                "start_time": 58.8909091,
                "end_time": 58.9090909,
                "pitch": 69,
                "velocity": 80,
                "duration": 0.0181818,
                "tempo": 120.0
            },
            {
                "start_time": 58.9090909,
                "end_time": 58.925,
                "pitch": 72,
                "velocity": 80,
                "duration": 0.0159091,
                "tempo": 120.0
            },
            {
                "start_time": 59.0272727,
                "end_time": 59.0431818,
                "pitch": 72,
                "velocity": 80,
                "duration": 0.0159091,
                "tempo": 120.0
            },
            {
                "start_time": 59.0431818,
                "end_time": 59.0613636,
                "pitch": 75,
                "velocity": 80,
                "duration": 0.0181818,
                "tempo": 120.0
            },
            {
                "start_time": 59.1613636,
                "end_time": 59.1772727,
                "pitch": 72,
                "velocity": 80,
                "duration": 0.0159091,
                "tempo": 120.0
            },
            {
                "start_time": 59.1772727,
                "end_time": 59.1931818,
                "pitch": 75,
                "velocity": 80,
                "duration": 0.0159091,
                "tempo": 120.0
            },
            {
                "start_time": 59.2931818,
                "end_time": 59.3113636,
                "pitch": 76,
                "velocity": 80,
                "duration": 0.0181818,
                "tempo": 120.0
            },
            {
                "start_time": 59.3113636,
                "end_time": 59.3272727,
                "pitch": 79,
                "velocity": 80,
                "duration": 0.0159091,
                "tempo": 120.0
            },
            {
                "start_time": 59.4272727,
                "end_time": 59.4454545,
                "pitch": 76,
                "velocity": 80,
                "duration": 0.0181818,
                "tempo": 120.0
            },
            {
                "start_time": 59.4454545,
                "end_time": 59.4613636,
                "pitch": 79,
                "velocity": 80,
                "duration": 0.0159091,
                "tempo": 120.0
            },
            {
                "start_time": 60.6409091,
                "end_time": 60.6568182,
                "pitch": 65,
                "velocity": 80,
                "duration": 0.0159091,
                "tempo": 120.0
            },
            {
                "start_time": 60.6568182,
                "end_time": 60.6727273,
                "pitch": 68,
                "velocity": 80,
                "duration": 0.0159091,
                "tempo": 120.0
            },
            {
                "start_time": 60.7727273,
                "end_time": 60.7909091,
                "pitch": 65,
                "velocity": 80,
                "duration": 0.0181818,
                "tempo": 120.0
            },
            {
                "start_time": 60.7909091,
                "end_time": 60.8068182,
                "pitch": 68,
                "velocity": 80,
                "duration": 0.0159091,
                "tempo": 120.0
            },
            {
                "start_time": 60.9068182,
                "end_time": 60.9227273,
                "pitch": 69,
                "velocity": 80,
                "duration": 0.0159091,
                "tempo": 120.0
            },
            {
                "start_time": 60.9227273,
                "end_time": 60.9409091,
                "pitch": 72,
                "velocity": 80,
                "duration": 0.0181818,
                "tempo": 120.0
            },
            {
                "start_time": 61.0409091,
                "end_time": 61.0568182,
                "pitch": 69,
                "velocity": 80,
                "duration": 0.0159091,
                "tempo": 120.0
            },
            {
                "start_time": 61.0568182,
                "end_time": 61.075,
                "pitch": 72,
                "velocity": 80,
                "duration": 0.0181818,
                "tempo": 120.0
            },
            {
                "start_time": 61.175,
                "end_time": 61.1909091,
                "pitch": 72,
                "velocity": 80,
                "duration": 0.0159091,
                "tempo": 120.0
            },
            {
                "start_time": 61.1909091,
                "end_time": 61.2068182,
                "pitch": 75,
                "velocity": 80,
                "duration": 0.0159091,
                "tempo": 120.0
            },
            {
                "start_time": 61.3068182,
                "end_time": 61.325,
                "pitch": 72,
                "velocity": 80,
                "duration": 0.0181818,
                "tempo": 120.0
            },
            {
                "start_time": 61.325,
                "end_time": 61.3409091,
                "pitch": 75,
                "velocity": 80,
                "duration": 0.0159091,
                "tempo": 120.0
            },
            {
                "start_time": 61.4409091,
                "end_time": 61.4590909,
                "pitch": 77,
                "velocity": 80,
                "duration": 0.0181818,
                "tempo": 120.0
            },
            {
                "start_time": 61.4590909,
                "end_time": 61.475,
                "pitch": 80,
                "velocity": 80,
                "duration": 0.0159091,
                "tempo": 120.0
            },
            {
                "start_time": 61.575,
                "end_time": 61.5909091,
                "pitch": 77,
                "velocity": 80,
                "duration": 0.0159091,
                "tempo": 120.0
            },
            {
                "start_time": 61.5909091,
                "end_time": 61.6090909,
                "pitch": 80,
                "velocity": 80,
                "duration": 0.0181818,
                "tempo": 120.0
            },
            {
                "start_time": 62.7863636,
                "end_time": 62.8045455,
                "pitch": 67,
                "velocity": 80,
                "duration": 0.0181818,
                "tempo": 120.0
            },
            {
                "start_time": 62.8045455,
                "end_time": 62.8204545,
                "pitch": 70,
                "velocity": 80,
                "duration": 0.0159091,
                "tempo": 120.0
            },
            {
                "start_time": 62.9204545,
                "end_time": 62.9363636,
                "pitch": 67,
                "velocity": 80,
                "duration": 0.0159091,
                "tempo": 120.0
            },
            {
                "start_time": 62.9363636,
                "end_time": 62.9545455,
                "pitch": 70,
                "velocity": 80,
                "duration": 0.0181818,
                "tempo": 120.0
            },
            {
                "start_time": 63.0545455,
                "end_time": 63.0704545,
                "pitch": 71,
                "velocity": 80,
                "duration": 0.0159091,
                "tempo": 120.0
            },
            {
                "start_time": 63.0704545,
                "end_time": 63.0886364,
                "pitch": 74,
                "velocity": 80,
                "duration": 0.0181818,
                "tempo": 120.0
            },
            {
                "start_time": 63.1886364,
                "end_time": 63.2045455,
                "pitch": 71,
                "velocity": 80,
                "duration": 0.0159091,
                "tempo": 120.0
            },
            {
                "start_time": 63.2045455,
                "end_time": 63.2204545,
                "pitch": 74,
                "velocity": 80,
                "duration": 0.0159091,
                "tempo": 120.0
            },
            {
                "start_time": 63.3204545,
                "end_time": 63.3386364,
                "pitch": 74,
                "velocity": 80,
                "duration": 0.0181818,
                "tempo": 120.0
            },
            {
                "start_time": 63.3386364,
                "end_time": 63.3545455,
                "pitch": 77,
                "velocity": 80,
                "duration": 0.0159091,
                "tempo": 120.0
            },
            {
                "start_time": 63.4568182,
                "end_time": 63.475,
                "pitch": 74,
                "velocity": 80,
                "duration": 0.0181818,
                "tempo": 120.0
            },
            {
                "start_time": 63.475,
                "end_time": 63.4909091,
                "pitch": 77,
                "velocity": 80,
                "duration": 0.0159091,
                "tempo": 120.0
            },
            {
                "start_time": 63.5931818,
                "end_time": 63.6113636,
                "pitch": 79,
                "velocity": 80,
                "duration": 0.0181818,
                "tempo": 120.0
            },
            {
                "start_time": 63.6113636,
                "end_time": 63.6272727,
                "pitch": 82,
                "velocity": 80,
                "duration": 0.0159091,
                "tempo": 120.0
            },
            {
                "start_time": 63.7295455,
                "end_time": 63.7454545,
                "pitch": 79,
                "velocity": 80,
                "duration": 0.0159091,
                "tempo": 120.0
            },
            {
                "start_time": 63.7454545,
                "end_time": 63.7636364,
                "pitch": 82,
                "velocity": 80,
                "duration": 0.0181818,
                "tempo": 120.0
            },
            {
                "start_time": 64.9431818,
                "end_time": 64.9613636,
                "pitch": 69,
                "velocity": 80,
                "duration": 0.0181818,
                "tempo": 120.0
            },
            {
                "start_time": 64.9613636,
                "end_time": 64.9772727,
                "pitch": 72,
                "velocity": 80,
                "duration": 0.0159091,
                "tempo": 120.0
            },
            {
                "start_time": 65.0772727,
                "end_time": 65.0931818,
                "pitch": 69,
                "velocity": 80,
                "duration": 0.0159091,
                "tempo": 120.0
            },
            {
                "start_time": 65.0931818,
                "end_time": 65.1113636,
                "pitch": 72,
                "velocity": 80,
                "duration": 0.0181818,
                "tempo": 120.0
            },
            {
                "start_time": 65.2113636,
                "end_time": 65.2272727,
                "pitch": 73,
                "velocity": 80,
                "duration": 0.0159091,
                "tempo": 120.0
            },
            {
                "start_time": 65.2272727,
                "end_time": 65.2431818,
                "pitch": 76,
                "velocity": 80,
                "duration": 0.0159091,
                "tempo": 120.0
            },
            {
                "start_time": 65.3454545,
                "end_time": 65.3613636,
                "pitch": 73,
                "velocity": 80,
                "duration": 0.0159091,
                "tempo": 120.0
            },
            {
                "start_time": 65.3613636,
                "end_time": 65.3772727,
                "pitch": 76,
                "velocity": 80,
                "duration": 0.0159091,
                "tempo": 120.0
            },
            {
                "start_time": 65.4772727,
                "end_time": 65.4954545,
                "pitch": 76,
                "velocity": 80,
                "duration": 0.0181818,
                "tempo": 120.0
            },
            {
                "start_time": 65.4954545,
                "end_time": 65.5113636,
                "pitch": 79,
                "velocity": 80,
                "duration": 0.0159091,
                "tempo": 120.0
            },
            {
                "start_time": 65.6113636,
                "end_time": 65.6272727,
                "pitch": 76,
                "velocity": 80,
                "duration": 0.0159091,
                "tempo": 120.0
            },
            {
                "start_time": 65.6272727,
                "end_time": 65.6454545,
                "pitch": 79,
                "velocity": 80,
                "duration": 0.0181818,
                "tempo": 120.0
            },
            {
                "start_time": 65.7454545,
                "end_time": 65.7613636,
                "pitch": 81,
                "velocity": 80,
                "duration": 0.0159091,
                "tempo": 120.0
            },
            {
                "start_time": 65.7613636,
                "end_time": 65.7795455,
                "pitch": 84,
                "velocity": 80,
                "duration": 0.0181818,
                "tempo": 120.0
            },
            {
                "start_time": 65.8795455,
                "end_time": 65.8954545,
                "pitch": 81,
                "velocity": 80,
                "duration": 0.0159091,
                "tempo": 120.0
            },
            {
                "start_time": 65.8954545,
                "end_time": 65.9113636,
                "pitch": 84,
                "velocity": 80,
                "duration": 0.0159091,
                "tempo": 120.0
            },
            {
                "start_time": 67.0909091,
                "end_time": 67.1068182,
                "pitch": 69,
                "velocity": 80,
                "duration": 0.0159091,
                "tempo": 120.0
            },
            {
                "start_time": 67.1068182,
                "end_time": 67.125,
                "pitch": 72,
                "velocity": 80,
                "duration": 0.0181818,
                "tempo": 120.0
            },
            {
                "start_time": 67.225,
                "end_time": 67.2409091,
                "pitch": 69,
                "velocity": 80,
                "duration": 0.0159091,
                "tempo": 120.0
            },
            {
                "start_time": 67.2409091,
                "end_time": 67.2568182,
                "pitch": 72,
                "velocity": 80,
                "duration": 0.0159091,
                "tempo": 120.0
            },
            {
                "start_time": 67.3568182,
                "end_time": 67.375,
                "pitch": 73,
                "velocity": 80,
                "duration": 0.0181818,
                "tempo": 120.0
            },
            {
                "start_time": 67.375,
                "end_time": 67.3909091,
                "pitch": 76,
                "velocity": 80,
                "duration": 0.0159091,
                "tempo": 120.0
            },
            {
                "start_time": 67.4909091,
                "end_time": 67.5090909,
                "pitch": 73,
                "velocity": 80,
                "duration": 0.0181818,
                "tempo": 120.0
            },
            {
                "start_time": 67.5090909,
                "end_time": 67.525,
                "pitch": 76,
                "velocity": 80,
                "duration": 0.0159091,
                "tempo": 120.0
            },
            {
                "start_time": 67.625,
                "end_time": 67.6409091,
                "pitch": 76,
                "velocity": 80,
                "duration": 0.0159091,
                "tempo": 120.0
            },
            {
                "start_time": 67.6409091,
                "end_time": 67.6590909,
                "pitch": 79,
                "velocity": 80,
                "duration": 0.0181818,
                "tempo": 120.0
            },
            {
                "start_time": 67.7613636,
                "end_time": 67.7772727,
                "pitch": 76,
                "velocity": 80,
                "duration": 0.0159091,
                "tempo": 120.0
            },
            {
                "start_time": 67.7772727,
                "end_time": 67.7954545,
                "pitch": 79,
                "velocity": 80,
                "duration": 0.0181818,
                "tempo": 120.0
            },
            {
                "start_time": 67.8977273,
                "end_time": 67.9136364,
                "pitch": 81,
                "velocity": 80,
                "duration": 0.0159091,
                "tempo": 120.0
            },
            {
                "start_time": 67.9136364,
                "end_time": 67.9318182,
                "pitch": 84,
                "velocity": 80,
                "duration": 0.0181818,
                "tempo": 120.0
            },
            {
                "start_time": 68.0340909,
                "end_time": 68.05,
                "pitch": 81,
                "velocity": 80,
                "duration": 0.0159091,
                "tempo": 120.0
            },
            {
                "start_time": 68.05,
                "end_time": 68.0659091,
                "pitch": 84,
                "velocity": 80,
                "duration": 0.0159091,
                "tempo": 120.0
            }
        ],
        "Electric Guitar (clean)": [
            {
                "start_time": 0.0,
                "end_time": 0.0136364,
                "pitch": 60,
                "velocity": 4,
                "duration": 0.0136364,
                "tempo": 120.0
            },
            {
                "start_time": 0.0136364,
                "end_time": 0.4022727,
                "pitch": 44,
                "velocity": 4,
                "duration": 0.3886364,
                "tempo": 120.0
            },
            {
                "start_time": 0.4022727,
                "end_time": 0.4159091,
                "pitch": 39,
                "velocity": 4,
                "duration": 0.0136364,
                "tempo": 120.0
            },
            {
                "start_time": 0.4159091,
                "end_time": 0.4318182,
                "pitch": 39,
                "velocity": 4,
                "duration": 0.0159091,
                "tempo": 120.0
            },
            {
                "start_time": 0.4318182,
                "end_time": 0.5704545,
                "pitch": 46,
                "velocity": 4,
                "duration": 0.1386364,
                "tempo": 120.0
            },
            {
                "start_time": 0.5704545,
                "end_time": 0.9863636,
                "pitch": 30,
                "velocity": 4,
                "duration": 0.4159091,
                "tempo": 120.0
            },
            {
                "start_time": 0.9863636,
                "end_time": 1.0863636,
                "pitch": 54,
                "velocity": 4,
                "duration": 0.1,
                "tempo": 120.0
            },
            {
                "start_time": 1.0863636,
                "end_time": 1.1204545,
                "pitch": 40,
                "velocity": 4,
                "duration": 0.0340909,
                "tempo": 120.0
            },
            {
                "start_time": 1.1204545,
                "end_time": 1.5204545,
                "pitch": 16,
                "velocity": 4,
                "duration": 0.4,
                "tempo": 120.0
            },
            {
                "start_time": 1.5204545,
                "end_time": 1.6568182,
                "pitch": 32,
                "velocity": 4,
                "duration": 0.1363636,
                "tempo": 120.0
            },
            {
                "start_time": 1.6568182,
                "end_time": 2.0636364,
                "pitch": 16,
                "velocity": 4,
                "duration": 0.4068182,
                "tempo": 120.0
            },
            {
                "start_time": 2.0636364,
                "end_time": 2.1977273,
                "pitch": 40,
                "velocity": 4,
                "duration": 0.1340909,
                "tempo": 120.0
            },
            {
                "start_time": 2.1977273,
                "end_time": 2.6,
                "pitch": 16,
                "velocity": 4,
                "duration": 0.4022727,
                "tempo": 120.0
            },
            {
                "start_time": 2.6,
                "end_time": 2.7318182,
                "pitch": 32,
                "velocity": 4,
                "duration": 0.1318182,
                "tempo": 120.0
            },
            {
                "start_time": 2.7318182,
                "end_time": 3.1340909,
                "pitch": 16,
                "velocity": 4,
                "duration": 0.4022727,
                "tempo": 120.0
            },
            {
                "start_time": 3.1340909,
                "end_time": 3.2704545,
                "pitch": 40,
                "velocity": 4,
                "duration": 0.1363636,
                "tempo": 120.0
            },
            {
                "start_time": 3.2704545,
                "end_time": 3.6772727,
                "pitch": 16,
                "velocity": 4,
                "duration": 0.4068182,
                "tempo": 120.0
            },
            {
                "start_time": 3.6772727,
                "end_time": 3.8113636,
                "pitch": 32,
                "velocity": 4,
                "duration": 0.1340909,
                "tempo": 120.0
            },
            {
                "start_time": 3.8113636,
                "end_time": 4.2113636,
                "pitch": 16,
                "velocity": 4,
                "duration": 0.4,
                "tempo": 120.0
            },
            {
                "start_time": 4.2113636,
                "end_time": 4.3454545,
                "pitch": 40,
                "velocity": 4,
                "duration": 0.1340909,
                "tempo": 120.0
            },
            {
                "start_time": 4.3454545,
                "end_time": 4.7454545,
                "pitch": 16,
                "velocity": 4,
                "duration": 0.4,
                "tempo": 120.0
            },
            {
                "start_time": 4.7454545,
                "end_time": 4.8818182,
                "pitch": 32,
                "velocity": 4,
                "duration": 0.1363636,
                "tempo": 120.0
            },
            {
                "start_time": 4.8818182,
                "end_time": 5.2909091,
                "pitch": 16,
                "velocity": 4,
                "duration": 0.4090909,
                "tempo": 120.0
            },
            {
                "start_time": 5.2909091,
                "end_time": 5.4227273,
                "pitch": 40,
                "velocity": 4,
                "duration": 0.1318182,
                "tempo": 120.0
            },
            {
                "start_time": 5.4227273,
                "end_time": 5.825,
                "pitch": 16,
                "velocity": 4,
                "duration": 0.4022727,
                "tempo": 120.0
            },
            {
                "start_time": 5.825,
                "end_time": 5.9568182,
                "pitch": 32,
                "velocity": 4,
                "duration": 0.1318182,
                "tempo": 120.0
            },
            {
                "start_time": 5.9568182,
                "end_time": 6.1590909,
                "pitch": 16,
                "velocity": 4,
                "duration": 0.2022727,
                "tempo": 120.0
            },
            {
                "start_time": 6.1590909,
                "end_time": 6.3590909,
                "pitch": 13,
                "velocity": 4,
                "duration": 0.2,
                "tempo": 120.0
            },
            {
                "start_time": 6.3590909,
                "end_time": 6.4931818,
                "pitch": 37,
                "velocity": 4,
                "duration": 0.1340909,
                "tempo": 120.0
            },
            {
                "start_time": 6.4931818,
                "end_time": 6.8931818,
                "pitch": 13,
                "velocity": 4,
                "duration": 0.4,
                "tempo": 120.0
            },
            {
                "start_time": 6.8931818,
                "end_time": 7.0295455,
                "pitch": 29,
                "velocity": 4,
                "duration": 0.1363636,
                "tempo": 120.0
            },
            {
                "start_time": 7.0295455,
                "end_time": 7.4363636,
                "pitch": 13,
                "velocity": 4,
                "duration": 0.4068182,
                "tempo": 120.0
            },
            {
                "start_time": 7.4363636,
                "end_time": 7.5704545,
                "pitch": 37,
                "velocity": 4,
                "duration": 0.1340909,
                "tempo": 120.0
            },
            {
                "start_time": 7.5704545,
                "end_time": 7.9727273,
                "pitch": 13,
                "velocity": 4,
                "duration": 0.4022727,
                "tempo": 120.0
            },
            {
                "start_time": 7.9727273,
                "end_time": 8.1068182,
                "pitch": 29,
                "velocity": 4,
                "duration": 0.1340909,
                "tempo": 120.0
            },
            {
                "start_time": 8.1068182,
                "end_time": 8.5159091,
                "pitch": 13,
                "velocity": 4,
                "duration": 0.4090909,
                "tempo": 120.0
            },
            {
                "start_time": 8.5159091,
                "end_time": 8.65,
                "pitch": 37,
                "velocity": 4,
                "duration": 0.1340909,
                "tempo": 120.0
            },
            {
                "start_time": 8.65,
                "end_time": 9.05,
                "pitch": 13,
                "velocity": 4,
                "duration": 0.4,
                "tempo": 120.0
            },
            {
                "start_time": 9.05,
                "end_time": 9.1840909,
                "pitch": 29,
                "velocity": 4,
                "duration": 0.1340909,
                "tempo": 120.0
            },
            {
                "start_time": 9.1840909,
                "end_time": 9.4340909,
                "pitch": 13,
                "velocity": 4,
                "duration": 0.25,
                "tempo": 120.0
            },
            {
                "start_time": 9.4340909,
                "end_time": 9.5840909,
                "pitch": 47,
                "velocity": 4,
                "duration": 0.15,
                "tempo": 120.0
            },
            {
                "start_time": 9.5840909,
                "end_time": 9.7181818,
                "pitch": 70,
                "velocity": 4,
                "duration": 0.1340909,
                "tempo": 120.0
            },
            {
                "start_time": 9.7181818,
                "end_time": 10.1181818,
                "pitch": 46,
                "velocity": 4,
                "duration": 0.4,
                "tempo": 120.0
            },
            {
                "start_time": 10.1181818,
                "end_time": 10.2545455,
                "pitch": 62,
                "velocity": 4,
                "duration": 0.1363636,
                "tempo": 120.0
            },
            {
                "start_time": 10.2545455,
                "end_time": 10.6613636,
                "pitch": 46,
                "velocity": 4,
                "duration": 0.4068182,
                "tempo": 120.0
            },
            {
                "start_time": 10.6613636,
                "end_time": 10.7954545,
                "pitch": 70,
                "velocity": 4,
                "duration": 0.1340909,
                "tempo": 120.0
            },
            {
                "start_time": 10.7954545,
                "end_time": 10.9454545,
                "pitch": 46,
                "velocity": 4,
                "duration": 0.15,
                "tempo": 120.0
            },
            {
                "start_time": 10.9454545,
                "end_time": 11.1977273,
                "pitch": 15,
                "velocity": 4,
                "duration": 0.2522727,
                "tempo": 120.0
            },
            {
                "start_time": 11.1977273,
                "end_time": 11.3295455,
                "pitch": 31,
                "velocity": 4,
                "duration": 0.1318182,
                "tempo": 120.0
            },
            {
                "start_time": 11.3295455,
                "end_time": 11.7318182,
                "pitch": 15,
                "velocity": 4,
                "duration": 0.4022727,
                "tempo": 120.0
            },
            {
                "start_time": 11.7318182,
                "end_time": 11.8681818,
                "pitch": 39,
                "velocity": 4,
                "duration": 0.1363636,
                "tempo": 120.0
            },
            {
                "start_time": 11.8681818,
                "end_time": 12.275,
                "pitch": 15,
                "velocity": 4,
                "duration": 0.4068182,
                "tempo": 120.0
            },
            {
                "start_time": 12.275,
                "end_time": 12.4090909,
                "pitch": 29,
                "velocity": 4,
                "duration": 0.1340909,
                "tempo": 120.0
            },
            {
                "start_time": 12.4090909,
                "end_time": 12.8090909,
                "pitch": 13,
                "velocity": 4,
                "duration": 0.4,
                "tempo": 120.0
            },
            {
                "start_time": 12.8090909,
                "end_time": 12.9431818,
                "pitch": 39,
                "velocity": 4,
                "duration": 0.1340909,
                "tempo": 120.0
            },
            {
                "start_time": 12.9431818,
                "end_time": 13.3431818,
                "pitch": 15,
                "velocity": 4,
                "duration": 0.4,
                "tempo": 120.0
            },
            {
                "start_time": 13.3431818,
                "end_time": 13.4795455,
                "pitch": 31,
                "velocity": 4,
                "duration": 0.1363636,
                "tempo": 120.0
            },
            {
                "start_time": 13.4795455,
                "end_time": 13.8886364,
                "pitch": 25,
                "velocity": 4,
                "duration": 0.4090909,
                "tempo": 120.0
            },
            {
                "start_time": 13.8886364,
                "end_time": 14.0204545,
                "pitch": 49,
                "velocity": 4,
                "duration": 0.1318182,
                "tempo": 120.0
            },
            {
                "start_time": 14.0204545,
                "end_time": 14.4227273,
                "pitch": 25,
                "velocity": 4,
                "duration": 0.4022727,
                "tempo": 120.0
            },
            {
                "start_time": 14.4227273,
                "end_time": 14.6886364,
                "pitch": 40,
                "velocity": 4,
                "duration": 0.2659091,
                "tempo": 120.0
            },
            {
                "start_time": 14.6886364,
                "end_time": 14.9568182,
                "pitch": 33,
                "velocity": 4,
                "duration": 0.2681818,
                "tempo": 120.0
            },
            {
                "start_time": 14.9568182,
                "end_time": 15.0931818,
                "pitch": 42,
                "velocity": 4,
                "duration": 0.1363636,
                "tempo": 120.0
            },
            {
                "start_time": 15.0931818,
                "end_time": 15.2295455,
                "pitch": 25,
                "velocity": 4,
                "duration": 0.1363636,
                "tempo": 120.0
            },
            {
                "start_time": 15.2295455,
                "end_time": 15.5,
                "pitch": 33,
                "velocity": 4,
                "duration": 0.2704545,
                "tempo": 120.0
            },
            {
                "start_time": 15.5,
                "end_time": 15.6340909,
                "pitch": 42,
                "velocity": 4,
                "duration": 0.1340909,
                "tempo": 120.0
            },
            {
                "start_time": 15.6340909,
                "end_time": 16.0340909,
                "pitch": 25,
                "velocity": 4,
                "duration": 0.4,
                "tempo": 120.0
            },
            {
                "start_time": 16.0340909,
                "end_time": 16.1704545,
                "pitch": 49,
                "velocity": 4,
                "duration": 0.1363636,
                "tempo": 120.0
            },
            {
                "start_time": 16.1704545,
                "end_time": 16.5795455,
                "pitch": 25,
                "velocity": 4,
                "duration": 0.4090909,
                "tempo": 120.0
            },
            {
                "start_time": 16.5795455,
                "end_time": 16.8454545,
                "pitch": 40,
                "velocity": 4,
                "duration": 0.2659091,
                "tempo": 120.0
            },
            {
                "start_time": 16.8454545,
                "end_time": 17.1136364,
                "pitch": 33,
                "velocity": 4,
                "duration": 0.2681818,
                "tempo": 120.0
            },
            {
                "start_time": 17.1136364,
                "end_time": 17.2477273,
                "pitch": 42,
                "velocity": 4,
                "duration": 0.1340909,
                "tempo": 120.0
            },
            {
                "start_time": 17.2477273,
                "end_time": 17.3795455,
                "pitch": 25,
                "velocity": 4,
                "duration": 0.1318182,
                "tempo": 120.0
            },
            {
                "start_time": 17.3795455,
                "end_time": 17.6477273,
                "pitch": 33,
                "velocity": 4,
                "duration": 0.2681818,
                "tempo": 120.0
            },
            {
                "start_time": 17.6477273,
                "end_time": 17.7,
                "pitch": 42,
                "velocity": 4,
                "duration": 0.0522727,
                "tempo": 120.0
            },
            {
                "start_time": 17.7,
                "end_time": 17.7159091,
                "pitch": 59,
                "velocity": 4,
                "duration": 0.0159091,
                "tempo": 120.0
            },
            {
                "start_time": 17.7159091,
                "end_time": 17.7840909,
                "pitch": 29,
                "velocity": 4,
                "duration": 0.0681818,
                "tempo": 120.0
            },
            {
                "start_time": 17.7840909,
                "end_time": 18.1909091,
                "pitch": 13,
                "velocity": 4,
                "duration": 0.4068182,
                "tempo": 120.0
            },
            {
                "start_time": 18.1909091,
                "end_time": 18.325,
                "pitch": 37,
                "velocity": 4,
                "duration": 0.1340909,
                "tempo": 120.0
            },
            {
                "start_time": 18.325,
                "end_time": 18.725,
                "pitch": 13,
                "velocity": 4,
                "duration": 0.4,
                "tempo": 120.0
            },
            {
                "start_time": 18.725,
                "end_time": 19.2613636,
                "pitch": 29,
                "velocity": 4,
                "duration": 0.5363636,
                "tempo": 120.0
            },
            {
                "start_time": 19.2613636,
                "end_time": 19.3931818,
                "pitch": 54,
                "velocity": 4,
                "duration": 0.1318182,
                "tempo": 120.0
            },
            {
                "start_time": 19.3931818,
                "end_time": 19.7954545,
                "pitch": 30,
                "velocity": 4,
                "duration": 0.4022727,
                "tempo": 120.0
            },
            {
                "start_time": 19.7954545,
                "end_time": 19.9318182,
                "pitch": 37,
                "velocity": 4,
                "duration": 0.1363636,
                "tempo": 120.0
            },
            {
                "start_time": 19.9318182,
                "end_time": 20.3386364,
                "pitch": 21,
                "velocity": 4,
                "duration": 0.4068182,
                "tempo": 120.0
            },
            {
                "start_time": 20.3386364,
                "end_time": 20.4727273,
                "pitch": 45,
                "velocity": 4,
                "duration": 0.1340909,
                "tempo": 120.0
            },
            {
                "start_time": 20.4727273,
                "end_time": 20.8727273,
                "pitch": 21,
                "velocity": 4,
                "duration": 0.4,
                "tempo": 120.0
            },
            {
                "start_time": 20.8727273,
                "end_time": 21.0090909,
                "pitch": 37,
                "velocity": 4,
                "duration": 0.1363636,
                "tempo": 120.0
            },
            {
                "start_time": 21.0090909,
                "end_time": 21.4181818,
                "pitch": 21,
                "velocity": 4,
                "duration": 0.4090909,
                "tempo": 120.0
            },
            {
                "start_time": 21.4181818,
                "end_time": 21.55,
                "pitch": 45,
                "velocity": 4,
                "duration": 0.1318182,
                "tempo": 120.0
            },
            {
                "start_time": 21.55,
                "end_time": 21.9522727,
                "pitch": 21,
                "velocity": 4,
                "duration": 0.4022727,
                "tempo": 120.0
            },
            {
                "start_time": 21.9522727,
                "end_time": 22.0840909,
                "pitch": 37,
                "velocity": 4,
                "duration": 0.1318182,
                "tempo": 120.0
            },
            {
                "start_time": 22.0840909,
                "end_time": 22.4863636,
                "pitch": 21,
                "velocity": 4,
                "duration": 0.4022727,
                "tempo": 120.0
            },
            {
                "start_time": 22.4863636,
                "end_time": 22.6227273,
                "pitch": 45,
                "velocity": 4,
                "duration": 0.1363636,
                "tempo": 120.0
            },
            {
                "start_time": 22.6227273,
                "end_time": 23.0295455,
                "pitch": 21,
                "velocity": 4,
                "duration": 0.4068182,
                "tempo": 120.0
            },
            {
                "start_time": 23.0295455,
                "end_time": 23.1636364,
                "pitch": 37,
                "velocity": 4,
                "duration": 0.1340909,
                "tempo": 120.0
            },
            {
                "start_time": 23.1636364,
                "end_time": 23.5636364,
                "pitch": 21,
                "velocity": 4,
                "duration": 0.4,
                "tempo": 120.0
            },
            {
                "start_time": 23.5636364,
                "end_time": 23.6977273,
                "pitch": 45,
                "velocity": 4,
                "duration": 0.1340909,
                "tempo": 120.0
            },
            {
                "start_time": 23.6977273,
                "end_time": 24.0977273,
                "pitch": 21,
                "velocity": 4,
                "duration": 0.4,
                "tempo": 120.0
            },
            {
                "start_time": 24.0977273,
                "end_time": 24.2318182,
                "pitch": 37,
                "velocity": 4,
                "duration": 0.1340909,
                "tempo": 120.0
            },
            {
                "start_time": 24.2318182,
                "end_time": 24.5159091,
                "pitch": 21,
                "velocity": 4,
                "duration": 0.2840909,
                "tempo": 120.0
            },
            {
                "start_time": 24.5159091,
                "end_time": 24.6340909,
                "pitch": 24,
                "velocity": 4,
                "duration": 0.1181818,
                "tempo": 120.0
            },
            {
                "start_time": 24.6340909,
                "end_time": 24.7681818,
                "pitch": 47,
                "velocity": 4,
                "duration": 0.1340909,
                "tempo": 120.0
            },
            {
                "start_time": 24.7681818,
                "end_time": 25.1772727,
                "pitch": 23,
                "velocity": 4,
                "duration": 0.4090909,
                "tempo": 120.0
            },
            {
                "start_time": 25.1772727,
                "end_time": 25.3113636,
                "pitch": 39,
                "velocity": 4,
                "duration": 0.1340909,
                "tempo": 120.0
            },
            {
                "start_time": 25.3113636,
                "end_time": 25.7113636,
                "pitch": 23,
                "velocity": 4,
                "duration": 0.4,
                "tempo": 120.0
            },
            {
                "start_time": 25.7113636,
                "end_time": 25.8454545,
                "pitch": 47,
                "velocity": 4,
                "duration": 0.1340909,
                "tempo": 120.0
            },
            {
                "start_time": 25.8454545,
                "end_time": 26.2454545,
                "pitch": 23,
                "velocity": 4,
                "duration": 0.4,
                "tempo": 120.0
            },
            {
                "start_time": 26.2454545,
                "end_time": 26.3818182,
                "pitch": 39,
                "velocity": 4,
                "duration": 0.1363636,
                "tempo": 120.0
            },
            {
                "start_time": 26.3818182,
                "end_time": 26.7886364,
                "pitch": 23,
                "velocity": 4,
                "duration": 0.4068182,
                "tempo": 120.0
            },
            {
                "start_time": 26.7886364,
                "end_time": 26.9227273,
                "pitch": 47,
                "velocity": 4,
                "duration": 0.1340909,
                "tempo": 120.0
            },
            {
                "start_time": 26.9227273,
                "end_time": 27.325,
                "pitch": 23,
                "velocity": 4,
                "duration": 0.4022727,
                "tempo": 120.0
            },
            {
                "start_time": 27.325,
                "end_time": 27.4590909,
                "pitch": 39,
                "velocity": 4,
                "duration": 0.1340909,
                "tempo": 120.0
            },
            {
                "start_time": 27.4590909,
                "end_time": 27.8681818,
                "pitch": 23,
                "velocity": 4,
                "duration": 0.4090909,
                "tempo": 120.0
            },
            {
                "start_time": 27.8681818,
                "end_time": 28.0022727,
                "pitch": 47,
                "velocity": 4,
                "duration": 0.1340909,
                "tempo": 120.0
            },
            {
                "start_time": 28.0022727,
                "end_time": 28.4022727,
                "pitch": 23,
                "velocity": 4,
                "duration": 0.4,
                "tempo": 120.0
            },
            {
                "start_time": 28.4022727,
                "end_time": 28.5363636,
                "pitch": 39,
                "velocity": 4,
                "duration": 0.1340909,
                "tempo": 120.0
            },
            {
                "start_time": 28.5363636,
                "end_time": 28.9363636,
                "pitch": 23,
                "velocity": 4,
                "duration": 0.4,
                "tempo": 120.0
            },
            {
                "start_time": 28.9363636,
                "end_time": 29.0727273,
                "pitch": 47,
                "velocity": 4,
                "duration": 0.1363636,
                "tempo": 120.0
            },
            {
                "start_time": 29.0727273,
                "end_time": 29.2772727,
                "pitch": 23,
                "velocity": 4,
                "duration": 0.2045455,
                "tempo": 120.0
            },
            {
                "start_time": 29.2772727,
                "end_time": 29.4795455,
                "pitch": 72,
                "velocity": 4,
                "duration": 0.2022727,
                "tempo": 120.0
            },
            {
                "start_time": 29.4795455,
                "end_time": 29.6136364,
                "pitch": 87,
                "velocity": 4,
                "duration": 0.1340909,
                "tempo": 120.0
            },
            {
                "start_time": 29.6136364,
                "end_time": 29.9477273,
                "pitch": 71,
                "velocity": 4,
                "duration": 0.3340909,
                "tempo": 120.0
            },
            {
                "start_time": 29.9477273,
                "end_time": 30.0159091,
                "pitch": 77,
                "velocity": 4,
                "duration": 0.0681818,
                "tempo": 120.0
            },
            {
                "start_time": 30.0159091,
                "end_time": 30.1477273,
                "pitch": 36,
                "velocity": 4,
                "duration": 0.1318182,
                "tempo": 120.0
            },
            {
                "start_time": 30.1477273,
                "end_time": 30.55,
                "pitch": 76,
                "velocity": 4,
                "duration": 0.4022727,
                "tempo": 120.0
            },
            {
                "start_time": 30.55,
                "end_time": 30.6863636,
                "pitch": 27,
                "velocity": 4,
                "duration": 0.1363636,
                "tempo": 120.0
            },
            {
                "start_time": 30.6863636,
                "end_time": 30.8227273,
                "pitch": 76,
                "velocity": 4,
                "duration": 0.1363636,
                "tempo": 120.0
            },
            {
                "start_time": 30.8227273,
                "end_time": 31.0931818,
                "pitch": 13,
                "velocity": 4,
                "duration": 0.2704545,
                "tempo": 120.0
            },
            {
                "start_time": 31.0931818,
                "end_time": 31.2272727,
                "pitch": 36,
                "velocity": 4,
                "duration": 0.1340909,
                "tempo": 120.0
            },
            {
                "start_time": 31.2272727,
                "end_time": 31.3613636,
                "pitch": 76,
                "velocity": 4,
                "duration": 0.1340909,
                "tempo": 120.0
            },
            {
                "start_time": 31.3613636,
                "end_time": 31.6272727,
                "pitch": 13,
                "velocity": 4,
                "duration": 0.2659091,
                "tempo": 120.0
            },
            {
                "start_time": 31.6272727,
                "end_time": 31.6454545,
                "pitch": 27,
                "velocity": 4,
                "duration": 0.0181818,
                "tempo": 120.0
            },
            {
                "start_time": 31.6454545,
                "end_time": 31.6772727,
                "pitch": 43,
                "velocity": 4,
                "duration": 0.0318182,
                "tempo": 120.0
            },
            {
                "start_time": 31.6772727,
                "end_time": 31.7613636,
                "pitch": 79,
                "velocity": 4,
                "duration": 0.0840909,
                "tempo": 120.0
            },
            {
                "start_time": 31.7613636,
                "end_time": 32.1613636,
                "pitch": 63,
                "velocity": 4,
                "duration": 0.4,
                "tempo": 120.0
            },
            {
                "start_time": 32.1613636,
                "end_time": 32.2954545,
                "pitch": 87,
                "velocity": 4,
                "duration": 0.1340909,
                "tempo": 120.0
            },
            {
                "start_time": 32.2954545,
                "end_time": 32.6977273,
                "pitch": 63,
                "velocity": 4,
                "duration": 0.4022727,
                "tempo": 120.0
            },
            {
                "start_time": 32.6977273,
                "end_time": 32.8318182,
                "pitch": 79,
                "velocity": 4,
                "duration": 0.1340909,
                "tempo": 120.0
            },
            {
                "start_time": 32.8318182,
                "end_time": 33.2409091,
                "pitch": 63,
                "velocity": 4,
                "duration": 0.4090909,
                "tempo": 120.0
            },
            {
                "start_time": 33.2409091,
                "end_time": 33.375,
                "pitch": 87,
                "velocity": 4,
                "duration": 0.1340909,
                "tempo": 120.0
            },
            {
                "start_time": 33.375,
                "end_time": 33.775,
                "pitch": 63,
                "velocity": 4,
                "duration": 0.4,
                "tempo": 120.0
            },
            {
                "start_time": 33.775,
                "end_time": 34.0409091,
                "pitch": 78,
                "velocity": 4,
                "duration": 0.2659091,
                "tempo": 120.0
            },
            {
                "start_time": 34.0409091,
                "end_time": 34.3090909,
                "pitch": 71,
                "velocity": 4,
                "duration": 0.2681818,
                "tempo": 120.0
            },
            {
                "start_time": 34.3090909,
                "end_time": 34.4454545,
                "pitch": 79,
                "velocity": 4,
                "duration": 0.1363636,
                "tempo": 120.0
            },
            {
                "start_time": 34.4454545,
                "end_time": 34.5818182,
                "pitch": 63,
                "velocity": 4,
                "duration": 0.1363636,
                "tempo": 120.0
            },
            {
                "start_time": 34.5818182,
                "end_time": 34.8522727,
                "pitch": 71,
                "velocity": 4,
                "duration": 0.2704545,
                "tempo": 120.0
            },
            {
                "start_time": 34.8522727,
                "end_time": 34.9863636,
                "pitch": 79,
                "velocity": 4,
                "duration": 0.1340909,
                "tempo": 120.0
            },
            {
                "start_time": 34.9863636,
                "end_time": 35.3886364,
                "pitch": 63,
                "velocity": 4,
                "duration": 0.4022727,
                "tempo": 120.0
            },
            {
                "start_time": 35.3886364,
                "end_time": 35.5204545,
                "pitch": 87,
                "velocity": 4,
                "duration": 0.1318182,
                "tempo": 120.0
            },
            {
                "start_time": 35.5204545,
                "end_time": 35.9227273,
                "pitch": 63,
                "velocity": 4,
                "duration": 0.4022727,
                "tempo": 120.0
            },
            {
                "start_time": 35.9227273,
                "end_time": 36.0590909,
                "pitch": 79,
                "velocity": 4,
                "duration": 0.1363636,
                "tempo": 120.0
            },
            {
                "start_time": 36.0590909,
                "end_time": 36.3977273,
                "pitch": 63,
                "velocity": 4,
                "duration": 0.3386364,
                "tempo": 120.0
            },
            {
                "start_time": 36.3977273,
                "end_time": 36.4659091,
                "pitch": 45,
                "velocity": 4,
                "duration": 0.0681818,
                "tempo": 120.0
            },
            {
                "start_time": 36.4659091,
                "end_time": 36.6,
                "pitch": 69,
                "velocity": 4,
                "duration": 0.1340909,
                "tempo": 120.0
            },
            {
                "start_time": 36.6,
                "end_time": 37.0,
                "pitch": 45,
                "velocity": 4,
                "duration": 0.4,
                "tempo": 120.0
            },
            {
                "start_time": 37.0,
                "end_time": 37.1363636,
                "pitch": 61,
                "velocity": 4,
                "duration": 0.1363636,
                "tempo": 120.0
            },
            {
                "start_time": 37.1363636,
                "end_time": 37.5431818,
                "pitch": 45,
                "velocity": 4,
                "duration": 0.4068182,
                "tempo": 120.0
            },
            {
                "start_time": 37.5431818,
                "end_time": 37.6772727,
                "pitch": 69,
                "velocity": 4,
                "duration": 0.1340909,
                "tempo": 120.0
            },
            {
                "start_time": 37.6772727,
                "end_time": 38.0795455,
                "pitch": 45,
                "velocity": 4,
                "duration": 0.4022727,
                "tempo": 120.0
            },
            {
                "start_time": 38.0795455,
                "end_time": 38.2113636,
                "pitch": 61,
                "velocity": 4,
                "duration": 0.1318182,
                "tempo": 120.0
            },
            {
                "start_time": 38.2113636,
                "end_time": 38.6136364,
                "pitch": 45,
                "velocity": 4,
                "duration": 0.4022727,
                "tempo": 120.0
            },
            {
                "start_time": 38.6136364,
                "end_time": 38.7454545,
                "pitch": 69,
                "velocity": 4,
                "duration": 0.1318182,
                "tempo": 120.0
            },
            {
                "start_time": 38.7454545,
                "end_time": 39.1477273,
                "pitch": 45,
                "velocity": 4,
                "duration": 0.4022727,
                "tempo": 120.0
            },
            {
                "start_time": 39.1477273,
                "end_time": 39.2840909,
                "pitch": 61,
                "velocity": 4,
                "duration": 0.1363636,
                "tempo": 120.0
            },
            {
                "start_time": 39.2840909,
                "end_time": 39.6909091,
                "pitch": 45,
                "velocity": 4,
                "duration": 0.4068182,
                "tempo": 120.0
            },
            {
                "start_time": 39.6909091,
                "end_time": 39.825,
                "pitch": 69,
                "velocity": 4,
                "duration": 0.1340909,
                "tempo": 120.0
            },
            {
                "start_time": 39.825,
                "end_time": 40.225,
                "pitch": 45,
                "velocity": 4,
                "duration": 0.4,
                "tempo": 120.0
            },
            {
                "start_time": 40.225,
                "end_time": 40.3613636,
                "pitch": 61,
                "velocity": 4,
                "duration": 0.1363636,
                "tempo": 120.0
            },
            {
                "start_time": 40.3613636,
                "end_time": 40.7704545,
                "pitch": 45,
                "velocity": 4,
                "duration": 0.4090909,
                "tempo": 120.0
            },
            {
                "start_time": 40.7704545,
                "end_time": 40.9022727,
                "pitch": 69,
                "velocity": 4,
                "duration": 0.1318182,
                "tempo": 120.0
            },
            {
                "start_time": 40.9022727,
                "end_time": 41.3045455,
                "pitch": 45,
                "velocity": 4,
                "duration": 0.4022727,
                "tempo": 120.0
            },
            {
                "start_time": 41.3045455,
                "end_time": 41.4386364,
                "pitch": 61,
                "velocity": 4,
                "duration": 0.1340909,
                "tempo": 120.0
            },
            {
                "start_time": 41.4386364,
                "end_time": 41.8386364,
                "pitch": 45,
                "velocity": 4,
                "duration": 0.4,
                "tempo": 120.0
            },
            {
                "start_time": 41.8386364,
                "end_time": 41.975,
                "pitch": 69,
                "velocity": 4,
                "duration": 0.1363636,
                "tempo": 120.0
            },
            {
                "start_time": 41.975,
                "end_time": 42.025,
                "pitch": 44,
                "velocity": 4,
                "duration": 0.05,
                "tempo": 120.0
            },
            {
                "start_time": 42.025,
                "end_time": 42.3818182,
                "pitch": 15,
                "velocity": 4,
                "duration": 0.3568182,
                "tempo": 120.0
            },
            {
                "start_time": 42.3818182,
                "end_time": 42.5159091,
                "pitch": 58,
                "velocity": 4,
                "duration": 0.1340909,
                "tempo": 120.0
            },
            {
                "start_time": 42.5159091,
                "end_time": 42.9159091,
                "pitch": 42,
                "velocity": 4,
                "duration": 0.4,
                "tempo": 120.0
            },
            {
                "start_time": 42.9159091,
                "end_time": 43.05,
                "pitch": 107,
                "velocity": 4,
                "duration": 0.1340909,
                "tempo": 120.0
            },
            {
                "start_time": 43.05,
                "end_time": 43.45,
                "pitch": 83,
                "velocity": 4,
                "duration": 0.4,
                "tempo": 120.0
            },
            {
                "start_time": 43.45,
                "end_time": 43.5840909,
                "pitch": 99,
                "velocity": 4,
                "duration": 0.1340909,
                "tempo": 120.0
            },
            {
                "start_time": 43.5840909,
                "end_time": 43.7181818,
                "pitch": 83,
                "velocity": 4,
                "duration": 0.1340909,
                "tempo": 120.0
            },
            {
                "start_time": 43.7181818,
                "end_time": 43.9863636,
                "pitch": 84,
                "velocity": 4,
                "duration": 0.2681818,
                "tempo": 120.0
            },
            {
                "start_time": 43.9863636,
                "end_time": 44.1227273,
                "pitch": 107,
                "velocity": 4,
                "duration": 0.1363636,
                "tempo": 120.0
            },
            {
                "start_time": 44.1227273,
                "end_time": 44.2568182,
                "pitch": 83,
                "velocity": 4,
                "duration": 0.1340909,
                "tempo": 120.0
            },
            {
                "start_time": 44.2568182,
                "end_time": 44.5295455,
                "pitch": 84,
                "velocity": 4,
                "duration": 0.2727273,
                "tempo": 120.0
            },
            {
                "start_time": 44.5295455,
                "end_time": 44.6636364,
                "pitch": 99,
                "velocity": 4,
                "duration": 0.1340909,
                "tempo": 120.0
            },
            {
                "start_time": 44.6636364,
                "end_time": 45.0636364,
                "pitch": 83,
                "velocity": 4,
                "duration": 0.4,
                "tempo": 120.0
            },
            {
                "start_time": 45.0636364,
                "end_time": 45.1977273,
                "pitch": 107,
                "velocity": 4,
                "duration": 0.1340909,
                "tempo": 120.0
            },
            {
                "start_time": 45.1977273,
                "end_time": 45.5977273,
                "pitch": 83,
                "velocity": 4,
                "duration": 0.4,
                "tempo": 120.0
            },
            {
                "start_time": 45.5977273,
                "end_time": 45.7340909,
                "pitch": 99,
                "velocity": 4,
                "duration": 0.1363636,
                "tempo": 120.0
            },
            {
                "start_time": 45.7340909,
                "end_time": 45.8704545,
                "pitch": 83,
                "velocity": 4,
                "duration": 0.1363636,
                "tempo": 120.0
            },
            {
                "start_time": 45.8704545,
                "end_time": 46.1431818,
                "pitch": 84,
                "velocity": 4,
                "duration": 0.2727273,
                "tempo": 120.0
            },
            {
                "start_time": 46.1431818,
                "end_time": 46.275,
                "pitch": 107,
                "velocity": 4,
                "duration": 0.1318182,
                "tempo": 120.0
            },
            {
                "start_time": 46.275,
                "end_time": 46.4090909,
                "pitch": 83,
                "velocity": 4,
                "duration": 0.1340909,
                "tempo": 120.0
            },
            {
                "start_time": 46.4090909,
                "end_time": 46.6772727,
                "pitch": 84,
                "velocity": 4,
                "duration": 0.2681818,
                "tempo": 120.0
            },
            {
                "start_time": 46.6772727,
                "end_time": 46.8136364,
                "pitch": 99,
                "velocity": 4,
                "duration": 0.1363636,
                "tempo": 120.0
            },
            {
                "start_time": 46.8136364,
                "end_time": 47.2204545,
                "pitch": 83,
                "velocity": 4,
                "duration": 0.4068182,
                "tempo": 120.0
            },
            {
                "start_time": 47.2204545,
                "end_time": 47.2704545,
                "pitch": 107,
                "velocity": 4,
                "duration": 0.05,
                "tempo": 120.0
            },
            {
                "start_time": 47.2704545,
                "end_time": 47.3545455,
                "pitch": 66,
                "velocity": 4,
                "duration": 0.0840909,
                "tempo": 120.0
            },
            {
                "start_time": 47.3545455,
                "end_time": 47.7545455,
                "pitch": 42,
                "velocity": 4,
                "duration": 0.4,
                "tempo": 120.0
            },
            {
                "start_time": 47.7545455,
                "end_time": 47.8886364,
                "pitch": 58,
                "velocity": 4,
                "duration": 0.1340909,
                "tempo": 120.0
            },
            {
                "start_time": 47.8886364,
                "end_time": 48.2886364,
                "pitch": 43,
                "velocity": 4,
                "duration": 0.4,
                "tempo": 120.0
            },
            {
                "start_time": 48.2886364,
                "end_time": 48.425,
                "pitch": 67,
                "velocity": 4,
                "duration": 0.1363636,
                "tempo": 120.0
            },
            {
                "start_time": 48.425,
                "end_time": 48.8340909,
                "pitch": 43,
                "velocity": 4,
                "duration": 0.4090909,
                "tempo": 120.0
            },
            {
                "start_time": 48.8340909,
                "end_time": 48.9659091,
                "pitch": 59,
                "velocity": 4,
                "duration": 0.1318182,
                "tempo": 120.0
            },
            {
                "start_time": 48.9659091,
                "end_time": 49.3681818,
                "pitch": 43,
                "velocity": 4,
                "duration": 0.4022727,
                "tempo": 120.0
            },
            {
                "start_time": 49.3681818,
                "end_time": 49.5,
                "pitch": 67,
                "velocity": 4,
                "duration": 0.1318182,
                "tempo": 120.0
            },
            {
                "start_time": 49.5,
                "end_time": 49.9022727,
                "pitch": 43,
                "velocity": 4,
                "duration": 0.4022727,
                "tempo": 120.0
            },
            {
                "start_time": 49.9022727,
                "end_time": 50.0363636,
                "pitch": 59,
                "velocity": 4,
                "duration": 0.1340909,
                "tempo": 120.0
            },
            {
                "start_time": 50.0363636,
                "end_time": 50.4363636,
                "pitch": 43,
                "velocity": 4,
                "duration": 0.4,
                "tempo": 120.0
            },
            {
                "start_time": 50.4363636,
                "end_time": 50.5727273,
                "pitch": 67,
                "velocity": 4,
                "duration": 0.1363636,
                "tempo": 120.0
            },
            {
                "start_time": 50.5727273,
                "end_time": 50.9795455,
                "pitch": 43,
                "velocity": 4,
                "duration": 0.4068182,
                "tempo": 120.0
            },
            {
                "start_time": 50.9795455,
                "end_time": 51.2477273,
                "pitch": 58,
                "velocity": 4,
                "duration": 0.2681818,
                "tempo": 120.0
            },
            {
                "start_time": 51.2477273,
                "end_time": 51.5159091,
                "pitch": 51,
                "velocity": 4,
                "duration": 0.2681818,
                "tempo": 120.0
            },
            {
                "start_time": 51.5159091,
                "end_time": 51.65,
                "pitch": 59,
                "velocity": 4,
                "duration": 0.1340909,
                "tempo": 120.0
            },
            {
                "start_time": 51.65,
                "end_time": 51.7863636,
                "pitch": 43,
                "velocity": 4,
                "duration": 0.1363636,
                "tempo": 120.0
            },
            {
                "start_time": 51.7863636,
                "end_time": 52.0590909,
                "pitch": 53,
                "velocity": 4,
                "duration": 0.2727273,
                "tempo": 120.0
            },
            {
                "start_time": 52.0590909,
                "end_time": 52.6931818,
                "pitch": 58,
                "velocity": 4,
                "duration": 0.6340909,
                "tempo": 120.0
            },
            {
                "start_time": 52.6931818,
                "end_time": 53.6704545,
                "pitch": 50,
                "velocity": 4,
                "duration": 0.9772727,
                "tempo": 120.0
            },
            {
                "start_time": 53.6704545,
                "end_time": 53.8045455,
                "pitch": 43,
                "velocity": 4,
                "duration": 0.1340909,
                "tempo": 120.0
            },
            {
                "start_time": 53.8045455,
                "end_time": 54.0727273,
                "pitch": 35,
                "velocity": 4,
                "duration": 0.2681818,
                "tempo": 120.0
            },
            {
                "start_time": 54.0727273,
                "end_time": 55.8181818,
                "pitch": 51,
                "velocity": 4,
                "duration": 1.7454545,
                "tempo": 120.0
            },
            {
                "start_time": 55.8181818,
                "end_time": 55.9522727,
                "pitch": 43,
                "velocity": 4,
                "duration": 0.1340909,
                "tempo": 120.0
            },
            {
                "start_time": 55.9522727,
                "end_time": 56.2181818,
                "pitch": 35,
                "velocity": 4,
                "duration": 0.2659091,
                "tempo": 120.0
            },
            {
                "start_time": 56.2181818,
                "end_time": 56.5409091,
                "pitch": 51,
                "velocity": 4,
                "duration": 0.3227273,
                "tempo": 120.0
            },
            {
                "start_time": 56.5409091,
                "end_time": 57.9659091,
                "pitch": 13,
                "velocity": 4,
                "duration": 1.425,
                "tempo": 120.0
            },
            {
                "start_time": 57.9659091,
                "end_time": 58.1,
                "pitch": 70,
                "velocity": 4,
                "duration": 0.1340909,
                "tempo": 120.0
            },
            {
                "start_time": 58.1,
                "end_time": 58.3659091,
                "pitch": 62,
                "velocity": 4,
                "duration": 0.2659091,
                "tempo": 120.0
            },
            {
                "start_time": 58.3659091,
                "end_time": 58.875,
                "pitch": 14,
                "velocity": 4,
                "duration": 0.5090909,
                "tempo": 120.0
            },
            {
                "start_time": 58.875,
                "end_time": 59.9795455,
                "pitch": 27,
                "velocity": 4,
                "duration": 1.1045455,
                "tempo": 120.0
            },
            {
                "start_time": 59.9795455,
                "end_time": 60.1136364,
                "pitch": 71,
                "velocity": 4,
                "duration": 0.1340909,
                "tempo": 120.0
            },
            {
                "start_time": 60.1136364,
                "end_time": 60.25,
                "pitch": 64,
                "velocity": 4,
                "duration": 0.1363636,
                "tempo": 120.0
            },
            {
                "start_time": 60.25,
                "end_time": 60.4363636,
                "pitch": 56,
                "velocity": 4,
                "duration": 0.1863636,
                "tempo": 120.0
            },
            {
                "start_time": 60.4363636,
                "end_time": 60.5204545,
                "pitch": 39,
                "velocity": 4,
                "duration": 0.0840909,
                "tempo": 120.0
            },
            {
                "start_time": 60.5204545,
                "end_time": 61.675,
                "pitch": 55,
                "velocity": 4,
                "duration": 1.1545455,
                "tempo": 120.0
            },
            {
                "start_time": 61.675,
                "end_time": 62.2681818,
                "pitch": 30,
                "velocity": 4,
                "duration": 0.5931818,
                "tempo": 120.0
            },
            {
                "start_time": 62.2681818,
                "end_time": 62.3022727,
                "pitch": 23,
                "velocity": 4,
                "duration": 0.0340909,
                "tempo": 120.0
            },
            {
                "start_time": 62.3022727,
                "end_time": 62.4022727,
                "pitch": 50,
                "velocity": 4,
                "duration": 0.1,
                "tempo": 120.0
            },
            {
                "start_time": 62.4022727,
                "end_time": 62.6704545,
                "pitch": 42,
                "velocity": 4,
                "duration": 0.2681818,
                "tempo": 120.0
            },
            {
                "start_time": 62.6704545,
                "end_time": 64.4159091,
                "pitch": 58,
                "velocity": 4,
                "duration": 1.7454545,
                "tempo": 120.0
            },
            {
                "start_time": 64.4159091,
                "end_time": 64.5522727,
                "pitch": 51,
                "velocity": 4,
                "duration": 0.1363636,
                "tempo": 120.0
            },
            {
                "start_time": 64.5522727,
                "end_time": 64.825,
                "pitch": 43,
                "velocity": 4,
                "duration": 0.2727273,
                "tempo": 120.0
            },
            {
                "start_time": 64.825,
                "end_time": 66.5727273,
                "pitch": 59,
                "velocity": 4,
                "duration": 1.7477273,
                "tempo": 120.0
            },
            {
                "start_time": 66.5727273,
                "end_time": 66.5886364,
                "pitch": 51,
                "velocity": 4,
                "duration": 0.0159091,
                "tempo": 120.0
            },
            {
                "start_time": 66.5886364,
                "end_time": 66.7068182,
                "pitch": 70,
                "velocity": 4,
                "duration": 0.1181818,
                "tempo": 120.0
            },
            {
                "start_time": 66.7068182,
                "end_time": 66.9727273,
                "pitch": 62,
                "velocity": 4,
                "duration": 0.2659091,
                "tempo": 120.0
            },
            {
                "start_time": 66.9727273,
                "end_time": 67.2409091,
                "pitch": 14,
                "velocity": 4,
                "duration": 0.2681818,
                "tempo": 120.0
            },
            {
                "start_time": 67.2409091,
                "end_time": 67.6409091,
                "pitch": 62,
                "velocity": 4,
                "duration": 0.4,
                "tempo": 120.0
            },
            {
                "start_time": 67.6409091,
                "end_time": 67.7772727,
                "pitch": 22,
                "velocity": 4,
                "duration": 0.1363636,
                "tempo": 120.0
            },
            {
                "start_time": 67.7772727,
                "end_time": 68.1863636,
                "pitch": 62,
                "velocity": 4,
                "duration": 0.4090909,
                "tempo": 120.0
            },
            {
                "start_time": 68.1863636,
                "end_time": 68.4522727,
                "pitch": 13,
                "velocity": 4,
                "duration": 0.2659091,
                "tempo": 120.0
            },
            {
                "start_time": 68.4522727,
                "end_time": 68.7204545,
                "pitch": 70,
                "velocity": 4,
                "duration": 0.2681818,
                "tempo": 120.0
            },
            {
                "start_time": 68.7204545,
                "end_time": 68.8545455,
                "pitch": 14,
                "velocity": 4,
                "duration": 0.1340909,
                "tempo": 120.0
            },
            {
                "start_time": 68.8545455,
                "end_time": 68.9863636,
                "pitch": 62,
                "velocity": 4,
                "duration": 0.1318182,
                "tempo": 120.0
            },
            {
                "start_time": 68.9863636,
                "end_time": 69.2386364,
                "pitch": 70,
                "velocity": 4,
                "duration": 0.2522727,
                "tempo": 120.0
            }
        ]
    }
}