{
    "mood": "happy",
    "instruments": {
        "Clarinet": [
            {
                "start_time": 0.0,
                "end_time": 0.1659091,
                "pitch": 64,
                "velocity": 64,
                "duration": 0.1659091,
                "tempo": 120.0
            },
            {
                "start_time": 0.1840909,
                "end_time": 0.3659091,
                "pitch": 67,
                "velocity": 64,
                "duration": 0.1818182,
                "tempo": 120.0
            },
            {
                "start_time": 0.3840909,
                "end_time": 0.5659091,
                "pitch": 76,
                "velocity": 64,
                "duration": 0.1818182,
                "tempo": 120.0
            },
            {
                "start_time": 0.5840909,
                "end_time": 0.7659091,
                "pitch": 71,
                "velocity": 64,
                "duration": 0.1818182,
                "tempo": 120.0
            },
            {
                "start_time": 0.7840909,
                "end_time": 0.9795455,
                "pitch": 72,
                "velocity": 64,
                "duration": 0.1954545,
                "tempo": 120.0
            },
            {
                "start_time": 0.9977273,
                "end_time": 1.1954545,
                "pitch": 71,
                "velocity": 64,
                "duration": 0.1977273,
                "tempo": 120.0
            },
            {
                "start_time": 1.2136364,
                "end_time": 1.3977273,
                "pitch": 69,
                "velocity": 64,
                "duration": 0.1840909,
                "tempo": 120.0
            },
            {
                "start_time": 1.4159091,
                "end_time": 1.5977273,
                "pitch": 67,
                "velocity": 64,
                "duration": 0.1818182,
                "tempo": 120.0
            },
            {
                "start_time": 1.6159091,
                "end_time": 1.8,
                "pitch": 74,
                "velocity": 64,
                "duration": 0.1840909,
                "tempo": 120.0
            },
            {
                "start_time": 2.0181818,
                "end_time": 2.1977273,
                "pitch": 69,
                "velocity": 64,
                "duration": 0.1795455,
                "tempo": 120.0
            },
            {
                "start_time": 2.4090909,
                "end_time": 2.6022727,
                "pitch": 76,
                "velocity": 64,
                "duration": 0.1931818,
                "tempo": 120.0
            },
            {
                "start_time": 2.6204545,
                "end_time": 2.8136364,
                "pitch": 71,
                "velocity": 64,
                "duration": 0.1931818,
                "tempo": 120.0
            },
            {
                "start_time": 2.8318182,
                "end_time": 3.0113636,
                "pitch": 67,
                "velocity": 64,
                "duration": 0.1795455,
                "tempo": 120.0
            },
            {
                "start_time": 3.0272727,
                "end_time": 3.2068182,
                "pitch": 67,
                "velocity": 64,
                "duration": 0.1795455,
                "tempo": 120.0
            },
            {
                "start_time": 3.2227273,
                "end_time": 3.4113636,
                "pitch": 64,
                "velocity": 64,
                "duration": 0.1886364,
                "tempo": 120.0
            },
            {
                "start_time": 3.4272727,
                "end_time": 3.6159091,
                "pitch": 67,
                "velocity": 64,
                "duration": 0.1886364,
                "tempo": 120.0
            },
            {
                "start_time": 3.6340909,
                "end_time": 3.8090909,
                "pitch": 76,
                "velocity": 64,
                "duration": 0.175,
                "tempo": 120.0
            },
            {
                "start_time": 3.825,
                "end_time": 4.0,
                "pitch": 71,
                "velocity": 64,
                "duration": 0.175,
                "tempo": 120.0
            },
            {
                "start_time": 4.0159091,
                "end_time": 4.2068182,
                "pitch": 72,
                "velocity": 64,
                "duration": 0.1909091,
                "tempo": 120.0
            },
            {
                "start_time": 4.225,
                "end_time": 4.4181818,
                "pitch": 71,
                "velocity": 64,
                "duration": 0.1931818,
                "tempo": 120.0
            },
            {
                "start_time": 4.4363636,
                "end_time": 4.6159091,
                "pitch": 69,
                "velocity": 64,
                "duration": 0.1795455,
                "tempo": 120.0
            },
            {
                "start_time": 4.6340909,
                "end_time": 4.8136364,
                "pitch": 67,
                "velocity": 64,
                "duration": 0.1795455,
                "tempo": 120.0
            },
            {
                "start_time": 4.8295455,
                "end_time": 5.0136364,
                "pitch": 74,
                "velocity": 64,
                "duration": 0.1840909,
                "tempo": 120.0
            },
            {
                "start_time": 5.2318182,
                "end_time": 5.4113636,
                "pitch": 69,
                "velocity": 64,
                "duration": 0.1795455,
                "tempo": 120.0
            },
            {
                "start_time": 5.6227273,
                "end_time": 5.8113636,
                "pitch": 76,
                "velocity": 64,
                "duration": 0.1886364,
                "tempo": 120.0
            },
            {
                "start_time": 5.8295455,
                "end_time": 6.0181818,
                "pitch": 71,
                "velocity": 64,
                "duration": 0.1886364,
                "tempo": 120.0
            },
            {
                "start_time": 6.0340909,
                "end_time": 6.2181818,
                "pitch": 67,
                "velocity": 64,
                "duration": 0.1840909,
                "tempo": 120.0
            },
            {
                "start_time": 6.2363636,
                "end_time": 6.3204545,
                "pitch": 55,
                "velocity": 64,
                "duration": 0.0840909,
                "tempo": 120.0
            },
            {
                "start_time": 6.3363636,
                "end_time": 6.4204545,
                "pitch": 57,
                "velocity": 64,
                "duration": 0.0840909,
                "tempo": 120.0
            },
            {
                "start_time": 6.4363636,
                "end_time": 6.625,
                "pitch": 59,
                "velocity": 64,
                "duration": 0.1886364,
                "tempo": 120.0
            },
            {
                "start_time": 6.6431818,
                "end_time": 6.7272727,
                "pitch": 60,
                "velocity": 64,
                "duration": 0.0840909,
                "tempo": 120.0
            },
            {
                "start_time": 6.8477273,
                "end_time": 7.0227273,
                "pitch": 60,
                "velocity": 64,
                "duration": 0.175,
                "tempo": 120.0
            },
            {
                "start_time": 7.0386364,
                "end_time": 7.1181818,
                "pitch": 59,
                "velocity": 64,
                "duration": 0.0795455,
                "tempo": 120.0
            },
            {
                "start_time": 7.1340909,
                "end_time": 7.2136364,
                "pitch": 57,
                "velocity": 64,
                "duration": 0.0795455,
                "tempo": 120.0
            },
            {
                "start_time": 7.2295455,
                "end_time": 7.6340909,
                "pitch": 55,
                "velocity": 64,
                "duration": 0.4045455,
                "tempo": 120.0
            },
            {
                "start_time": 7.65,
                "end_time": 7.8318182,
                "pitch": 52,
                "velocity": 64,
                "duration": 0.1818182,
                "tempo": 120.0
            },
            {
                "start_time": 7.8477273,
                "end_time": 7.9295455,
                "pitch": 50,
                "velocity": 64,
                "duration": 0.0818182,
                "tempo": 120.0
            },
            {
                "start_time": 7.9454545,
                "end_time": 8.0272727,
                "pitch": 52,
                "velocity": 64,
                "duration": 0.0818182,
                "tempo": 120.0
            },
            {
                "start_time": 8.0431818,
                "end_time": 8.2318182,
                "pitch": 53,
                "velocity": 64,
                "duration": 0.1886364,
                "tempo": 120.0
            },
            {
                "start_time": 8.2477273,
                "end_time": 8.4363636,
                "pitch": 52,
                "velocity": 64,
                "duration": 0.1886364,
                "tempo": 120.0
            },
            {
                "start_time": 8.4545455,
                "end_time": 8.6386364,
                "pitch": 50,
                "velocity": 64,
                "duration": 0.1840909,
                "tempo": 120.0
            },
            {
                "start_time": 8.6545455,
                "end_time": 8.8409091,
                "pitch": 48,
                "velocity": 64,
                "duration": 0.1863636,
                "tempo": 120.0
            },
            {
                "start_time": 8.8568182,
                "end_time": 9.2431818,
                "pitch": 50,
                "velocity": 64,
                "duration": 0.3863636,
                "tempo": 120.0
            },
            {
                "start_time": 9.2590909,
                "end_time": 9.4386364,
                "pitch": 55,
                "velocity": 64,
                "duration": 0.1795455,
                "tempo": 120.0
            },
            {
                "start_time": 9.4545455,
                "end_time": 9.5363636,
                "pitch": 55,
                "velocity": 64,
                "duration": 0.0818182,
                "tempo": 120.0
            },
            {
                "start_time": 9.5545455,
                "end_time": 9.6363636,
                "pitch": 57,
                "velocity": 64,
                "duration": 0.0818182,
                "tempo": 120.0
            },
            {
                "start_time": 9.6522727,
                "end_time": 9.8386364,
                "pitch": 59,
                "velocity": 64,
                "duration": 0.1863636,
                "tempo": 120.0
            },
            {
                "start_time": 9.8568182,
                "end_time": 9.9409091,
                "pitch": 60,
                "velocity": 64,
                "duration": 0.0840909,
                "tempo": 120.0
            },
            {
                "start_time": 10.0613636,
                "end_time": 10.2363636,
                "pitch": 60,
                "velocity": 64,
                "duration": 0.175,
                "tempo": 120.0
            },
            {
                "start_time": 10.2522727,
                "end_time": 10.3318182,
                "pitch": 59,
                "velocity": 64,
                "duration": 0.0795455,
                "tempo": 120.0
            },
            {
                "start_time": 10.3477273,
                "end_time": 10.4272727,
                "pitch": 57,
                "velocity": 64,
                "duration": 0.0795455,
                "tempo": 120.0
            },
            {
                "start_time": 10.4431818,
                "end_time": 10.8477273,
                "pitch": 55,
                "velocity": 64,
                "duration": 0.4045455,
                "tempo": 120.0
            },
            {
                "start_time": 10.8636364,
                "end_time": 11.0454545,
                "pitch": 52,
                "velocity": 64,
                "duration": 0.1818182,
                "tempo": 120.0
            },
            {
                "start_time": 11.0613636,
                "end_time": 11.2409091,
                "pitch": 62,
                "velocity": 64,
                "duration": 0.1795455,
                "tempo": 120.0
            },
            {
                "start_time": 11.2568182,
                "end_time": 11.4454545,
                "pitch": 55,
                "velocity": 64,
                "duration": 0.1886364,
                "tempo": 120.0
            },
            {
                "start_time": 11.4613636,
                "end_time": 11.65,
                "pitch": 62,
                "velocity": 64,
                "duration": 0.1886364,
                "tempo": 120.0
            },
            {
                "start_time": 11.6681818,
                "end_time": 11.8477273,
                "pitch": 60,
                "velocity": 64,
                "duration": 0.1795455,
                "tempo": 120.0
            },
            {
                "start_time": 11.8636364,
                "end_time": 12.0431818,
                "pitch": 62,
                "velocity": 64,
                "duration": 0.1795455,
                "tempo": 120.0
            },
            {
                "start_time": 12.0590909,
                "end_time": 12.4522727,
                "pitch": 64,
                "velocity": 64,
                "duration": 0.3931818,
                "tempo": 120.0
            },
            {
                "start_time": 12.4704545,
                "end_time": 12.65,
                "pitch": 62,
                "velocity": 64,
                "duration": 0.1795455,
                "tempo": 120.0
            },
            {
                "start_time": 12.6659091,
                "end_time": 12.7477273,
                "pitch": 55,
                "velocity": 64,
                "duration": 0.0818182,
                "tempo": 120.0
            },
            {
                "start_time": 12.7636364,
                "end_time": 12.8454545,
                "pitch": 57,
                "velocity": 64,
                "duration": 0.0818182,
                "tempo": 120.0
            },
            {
                "start_time": 12.8613636,
                "end_time": 13.05,
                "pitch": 59,
                "velocity": 64,
                "duration": 0.1886364,
                "tempo": 120.0
            },
            {
                "start_time": 13.0681818,
                "end_time": 13.1522727,
                "pitch": 60,
                "velocity": 64,
                "duration": 0.0840909,
                "tempo": 120.0
            },
            {
                "start_time": 13.2727273,
                "end_time": 13.4477273,
                "pitch": 60,
                "velocity": 64,
                "duration": 0.175,
                "tempo": 120.0
            },
            {
                "start_time": 13.4636364,
                "end_time": 13.5431818,
                "pitch": 59,
                "velocity": 64,
                "duration": 0.0795455,
                "tempo": 120.0
            },
            {
                "start_time": 13.5590909,
                "end_time": 13.6386364,
                "pitch": 57,
                "velocity": 64,
                "duration": 0.0795455,
                "tempo": 120.0
            },
            {
                "start_time": 13.6545455,
                "end_time": 14.0568182,
                "pitch": 55,
                "velocity": 64,
                "duration": 0.4022727,
                "tempo": 120.0
            },
            {
                "start_time": 14.075,
                "end_time": 14.2568182,
                "pitch": 52,
                "velocity": 64,
                "duration": 0.1818182,
                "tempo": 120.0
            },
            {
                "start_time": 14.2727273,
                "end_time": 14.3545455,
                "pitch": 50,
                "velocity": 64,
                "duration": 0.0818182,
                "tempo": 120.0
            },
            {
                "start_time": 14.3704545,
                "end_time": 14.4522727,
                "pitch": 52,
                "velocity": 64,
                "duration": 0.0818182,
                "tempo": 120.0
            },
            {
                "start_time": 14.4681818,
                "end_time": 14.6545455,
                "pitch": 53,
                "velocity": 64,
                "duration": 0.1863636,
                "tempo": 120.0
            },
            {
                "start_time": 14.6727273,
                "end_time": 14.8613636,
                "pitch": 52,
                "velocity": 64,
                "duration": 0.1886364,
                "tempo": 120.0
            },
            {
                "start_time": 14.8772727,
                "end_time": 15.0636364,
                "pitch": 50,
                "velocity": 64,
                "duration": 0.1863636,
                "tempo": 120.0
            },
            {
                "start_time": 15.0795455,
                "end_time": 15.2636364,
                "pitch": 48,
                "velocity": 64,
                "duration": 0.1840909,
                "tempo": 120.0
            },
            {
                "start_time": 15.2818182,
                "end_time": 15.6636364,
                "pitch": 50,
                "velocity": 64,
                "duration": 0.3818182,
                "tempo": 120.0
            },
            {
                "start_time": 15.6818182,
                "end_time": 15.8659091,
                "pitch": 55,
                "velocity": 64,
                "duration": 0.1840909,
                "tempo": 120.0
            },
            {
                "start_time": 15.8818182,
                "end_time": 15.9659091,
                "pitch": 55,
                "velocity": 64,
                "duration": 0.0840909,
                "tempo": 120.0
            },
            {
                "start_time": 15.9840909,
                "end_time": 16.0681818,
                "pitch": 57,
                "velocity": 64,
                "duration": 0.0840909,
                "tempo": 120.0
            },
            {
                "start_time": 16.0840909,
                "end_time": 16.2681818,
                "pitch": 59,
                "velocity": 64,
                "duration": 0.1840909,
                "tempo": 120.0
            },
            {
                "start_time": 16.2863636,
                "end_time": 16.3681818,
                "pitch": 60,
                "velocity": 64,
                "duration": 0.0818182,
                "tempo": 120.0
            },
            {
                "start_time": 16.4863636,
                "end_time": 16.6613636,
                "pitch": 60,
                "velocity": 64,
                "duration": 0.175,
                "tempo": 120.0
            },
            {
                "start_time": 16.6772727,
                "end_time": 16.7568182,
                "pitch": 59,
                "velocity": 64,
                "duration": 0.0795455,
                "tempo": 120.0
            },
            {
                "start_time": 16.7727273,
                "end_time": 16.8522727,
                "pitch": 57,
                "velocity": 64,
                "duration": 0.0795455,
                "tempo": 120.0
            },
            {
                "start_time": 16.8681818,
                "end_time": 17.2727273,
                "pitch": 55,
                "velocity": 64,
                "duration": 0.4045455,
                "tempo": 120.0
            },
            {
                "start_time": 17.2886364,
                "end_time": 17.4704545,
                "pitch": 52,
                "velocity": 64,
                "duration": 0.1818182,
                "tempo": 120.0
            },
            {
                "start_time": 17.4863636,
                "end_time": 17.6659091,
                "pitch": 62,
                "velocity": 64,
                "duration": 0.1795455,
                "tempo": 120.0
            },
            {
                "start_time": 17.6818182,
                "end_time": 17.8704545,
                "pitch": 55,
                "velocity": 64,
                "duration": 0.1886364,
                "tempo": 120.0
            },
            {
                "start_time": 17.8863636,
                "end_time": 18.075,
                "pitch": 62,
                "velocity": 64,
                "duration": 0.1886364,
                "tempo": 120.0
            },
            {
                "start_time": 18.0931818,
                "end_time": 18.2727273,
                "pitch": 60,
                "velocity": 64,
                "duration": 0.1795455,
                "tempo": 120.0
            },
            {
                "start_time": 18.2886364,
                "end_time": 18.4681818,
                "pitch": 62,
                "velocity": 64,
                "duration": 0.1795455,
                "tempo": 120.0
            },
            {
                "start_time": 18.4840909,
                "end_time": 18.8772727,
                "pitch": 64,
                "velocity": 64,
                "duration": 0.3931818,
                "tempo": 120.0
            },
            {
                "start_time": 18.8954545,
                "end_time": 19.2704545,
                "pitch": 62,
                "velocity": 64,
                "duration": 0.375,
                "tempo": 120.0
            },
            {
                "start_time": 19.2863636,
                "end_time": 19.475,
                "pitch": 60,
                "velocity": 64,
                "duration": 0.1886364,
                "tempo": 120.0
            },
            {
                "start_time": 19.4931818,
                "end_time": 19.6795455,
                "pitch": 60,
                "velocity": 64,
                "duration": 0.1863636,
                "tempo": 120.0
            },
            {
                "start_time": 19.6977273,
                "end_time": 19.8818182,
                "pitch": 57,
                "velocity": 64,
                "duration": 0.1840909,
                "tempo": 120.0
            },
            {
                "start_time": 19.9,
                "end_time": 20.275,
                "pitch": 60,
                "velocity": 64,
                "duration": 0.375,
                "tempo": 120.0
            },
            {
                "start_time": 20.2909091,
                "end_time": 20.675,
                "pitch": 62,
                "velocity": 64,
                "duration": 0.3840909,
                "tempo": 120.0
            },
            {
                "start_time": 20.6931818,
                "end_time": 21.475,
                "pitch": 55,
                "velocity": 64,
                "duration": 0.7818182,
                "tempo": 120.0
            },
            {
                "start_time": 21.4931818,
                "end_time": 21.8772727,
                "pitch": 50,
                "velocity": 64,
                "duration": 0.3840909,
                "tempo": 120.0
            },
            {
                "start_time": 21.8931818,
                "end_time": 21.9795455,
                "pitch": 52,
                "velocity": 64,
                "duration": 0.0863636,
                "tempo": 120.0
            },
            {
                "start_time": 22.1,
                "end_time": 22.4818182,
                "pitch": 53,
                "velocity": 64,
                "duration": 0.3818182,
                "tempo": 120.0
            },
            {
                "start_time": 22.5,
                "end_time": 22.6840909,
                "pitch": 62,
                "velocity": 64,
                "duration": 0.1840909,
                "tempo": 120.0
            },
            {
                "start_time": 22.7,
                "end_time": 22.8840909,
                "pitch": 62,
                "velocity": 64,
                "duration": 0.1840909,
                "tempo": 120.0
            },
            {
                "start_time": 22.9022727,
                "end_time": 23.0909091,
                "pitch": 60,
                "velocity": 64,
                "duration": 0.1886364,
                "tempo": 120.0
            },
            {
                "start_time": 23.1068182,
                "end_time": 23.4931818,
                "pitch": 62,
                "velocity": 64,
                "duration": 0.3863636,
                "tempo": 120.0
            },
            {
                "start_time": 23.5090909,
                "end_time": 23.8840909,
                "pitch": 64,
                "velocity": 64,
                "duration": 0.375,
                "tempo": 120.0
            },
            {
                "start_time": 23.9,
                "end_time": 24.1840909,
                "pitch": 60,
                "velocity": 64,
                "duration": 0.2840909,
                "tempo": 120.0
            },
            {
                "start_time": 24.2022727,
                "end_time": 24.2886364,
                "pitch": 57,
                "velocity": 64,
                "duration": 0.0863636,
                "tempo": 120.0
            },
            {
                "start_time": 24.3068182,
                "end_time": 24.3954545,
                "pitch": 60,
                "velocity": 64,
                "duration": 0.0886364,
                "tempo": 120.0
            },
            {
                "start_time": 24.4136364,
                "end_time": 24.5,
                "pitch": 64,
                "velocity": 64,
                "duration": 0.0863636,
                "tempo": 120.0
            },
            {
                "start_time": 24.5181818,
                "end_time": 24.6022727,
                "pitch": 65,
                "velocity": 64,
                "duration": 0.0840909,
                "tempo": 120.0
            },
            {
                "start_time": 24.6181818,
                "end_time": 24.7022727,
                "pitch": 60,
                "velocity": 64,
                "duration": 0.0840909,
                "tempo": 120.0
            },
            {
                "start_time": 24.7181818,
                "end_time": 24.8022727,
                "pitch": 62,
                "velocity": 64,
                "duration": 0.0840909,
                "tempo": 120.0
            },
            {
                "start_time": 24.8181818,
                "end_time": 24.9022727,
                "pitch": 67,
                "velocity": 64,
                "duration": 0.0840909,
                "tempo": 120.0
            },
            {
                "start_time": 24.9181818,
                "end_time": 25.0022727,
                "pitch": 69,
                "velocity": 64,
                "duration": 0.0840909,
                "tempo": 120.0
            },
            {
                "start_time": 25.0204545,
                "end_time": 25.1045455,
                "pitch": 67,
                "velocity": 64,
                "duration": 0.0840909,
                "tempo": 120.0
            },
            {
                "start_time": 25.1204545,
                "end_time": 25.2045455,
                "pitch": 69,
                "velocity": 64,
                "duration": 0.0840909,
                "tempo": 120.0
            },
            {
                "start_time": 25.2204545,
                "end_time": 25.3045455,
                "pitch": 71,
                "velocity": 64,
                "duration": 0.0840909,
                "tempo": 120.0
            },
            {
                "start_time": 25.3227273,
                "end_time": 25.5045455,
                "pitch": 72,
                "velocity": 64,
                "duration": 0.1818182,
                "tempo": 120.0
            },
            {
                "start_time": 25.5227273,
                "end_time": 25.7045455,
                "pitch": 74,
                "velocity": 64,
                "duration": 0.1818182,
                "tempo": 120.0
            },
            {
                "start_time": 25.7227273,
                "end_time": 25.9068182,
                "pitch": 60,
                "velocity": 64,
                "duration": 0.1840909,
                "tempo": 120.0
            },
            {
                "start_time": 25.9227273,
                "end_time": 26.1068182,
                "pitch": 60,
                "velocity": 64,
                "duration": 0.1840909,
                "tempo": 120.0
            },
            {
                "start_time": 26.125,
                "end_time": 26.3090909,
                "pitch": 57,
                "velocity": 64,
                "duration": 0.1840909,
                "tempo": 120.0
            },
            {
                "start_time": 26.325,
                "end_time": 26.7,
                "pitch": 60,
                "velocity": 64,
                "duration": 0.375,
                "tempo": 120.0
            },
            {
                "start_time": 26.7159091,
                "end_time": 27.0977273,
                "pitch": 62,
                "velocity": 64,
                "duration": 0.3818182,
                "tempo": 120.0
            },
            {
                "start_time": 27.1159091,
                "end_time": 27.9,
                "pitch": 55,
                "velocity": 64,
                "duration": 0.7840909,
                "tempo": 120.0
            },
            {
                "start_time": 27.9159091,
                "end_time": 28.3,
                "pitch": 50,
                "velocity": 64,
                "duration": 0.3840909,
                "tempo": 120.0
            },
            {
                "start_time": 28.3181818,
                "end_time": 28.4022727,
                "pitch": 52,
                "velocity": 64,
                "duration": 0.0840909,
                "tempo": 120.0
            },
            {
                "start_time": 28.5227273,
                "end_time": 28.9090909,
                "pitch": 53,
                "velocity": 64,
                "duration": 0.3863636,
                "tempo": 120.0
            },
            {
                "start_time": 28.925,
                "end_time": 29.1136364,
                "pitch": 62,
                "velocity": 64,
                "duration": 0.1886364,
                "tempo": 120.0
            },
            {
                "start_time": 29.1318182,
                "end_time": 29.3181818,
                "pitch": 62,
                "velocity": 64,
                "duration": 0.1863636,
                "tempo": 120.0
            },
            {
                "start_time": 29.3363636,
                "end_time": 29.5204545,
                "pitch": 60,
                "velocity": 64,
                "duration": 0.1840909,
                "tempo": 120.0
            },
            {
                "start_time": 29.5363636,
                "end_time": 29.9159091,
                "pitch": 62,
                "velocity": 64,
                "duration": 0.3795455,
                "tempo": 120.0
            },
            {
                "start_time": 29.9340909,
                "end_time": 30.3113636,
                "pitch": 64,
                "velocity": 64,
                "duration": 0.3772727,
                "tempo": 120.0
            },
            {
                "start_time": 30.3295455,
                "end_time": 30.9227273,
                "pitch": 60,
                "velocity": 64,
                "duration": 0.5931818,
                "tempo": 120.0
            },
            {
                "start_time": 30.9386364,
                "end_time": 31.325,
                "pitch": 59,
                "velocity": 64,
                "duration": 0.3863636,
                "tempo": 120.0
            },
            {
                "start_time": 31.3431818,
                "end_time": 31.725,
                "pitch": 57,
                "velocity": 64,
                "duration": 0.3818182,
                "tempo": 120.0
            },
            {
                "start_time": 31.7431818,
                "end_time": 32.1295455,
                "pitch": 55,
                "velocity": 64,
                "duration": 0.3863636,
                "tempo": 120.0
            }
        ],
        "Acoustic Bass": [
            {
                "start_time": 0.0,
                "end_time": 0.1659091,
                "pitch": 36,
                "velocity": 51,
                "duration": 0.1659091,
                "tempo": 120.0
            },
            {
                "start_time": 0.5840909,
                "end_time": 0.7659091,
                "pitch": 31,
                "velocity": 51,
                "duration": 0.1818182,
                "tempo": 120.0
            },
            {
                "start_time": 0.7840909,
                "end_time": 0.8727273,
                "pitch": 40,
                "velocity": 51,
                "duration": 0.0886364,
                "tempo": 120.0
            },
            {
                "start_time": 0.8909091,
                "end_time": 0.9795455,
                "pitch": 41,
                "velocity": 51,
                "duration": 0.0886364,
                "tempo": 120.0
            },
            {
                "start_time": 1.2136364,
                "end_time": 1.2977273,
                "pitch": 40,
                "velocity": 51,
                "duration": 0.0840909,
                "tempo": 120.0
            },
            {
                "start_time": 1.3159091,
                "end_time": 1.3977273,
                "pitch": 43,
                "velocity": 51,
                "duration": 0.0818182,
                "tempo": 120.0
            },
            {
                "start_time": 1.4159091,
                "end_time": 1.5977273,
                "pitch": 36,
                "velocity": 51,
                "duration": 0.1818182,
                "tempo": 120.0
            },
            {
                "start_time": 1.6159091,
                "end_time": 1.8,
                "pitch": 38,
                "velocity": 51,
                "duration": 0.1840909,
                "tempo": 120.0
            },
            {
                "start_time": 1.8159091,
                "end_time": 2.0,
                "pitch": 43,
                "velocity": 51,
                "duration": 0.1840909,
                "tempo": 120.0
            },
            {
                "start_time": 2.2136364,
                "end_time": 2.2954545,
                "pitch": 38,
                "velocity": 51,
                "duration": 0.0818182,
                "tempo": 120.0
            },
            {
                "start_time": 2.3113636,
                "end_time": 2.3931818,
                "pitch": 38,
                "velocity": 51,
                "duration": 0.0818182,
                "tempo": 120.0
            },
            {
                "start_time": 2.4090909,
                "end_time": 2.6022727,
                "pitch": 36,
                "velocity": 51,
                "duration": 0.1931818,
                "tempo": 120.0
            },
            {
                "start_time": 2.8318182,
                "end_time": 3.0113636,
                "pitch": 35,
                "velocity": 51,
                "duration": 0.1795455,
                "tempo": 120.0
            },
            {
                "start_time": 3.0272727,
                "end_time": 3.1090909,
                "pitch": 31,
                "velocity": 51,
                "duration": 0.0818182,
                "tempo": 120.0
            },
            {
                "start_time": 3.125,
                "end_time": 3.2068182,
                "pitch": 31,
                "velocity": 51,
                "duration": 0.0818182,
                "tempo": 120.0
            },
            {
                "start_time": 3.2227273,
                "end_time": 3.4113636,
                "pitch": 36,
                "velocity": 51,
                "duration": 0.1886364,
                "tempo": 120.0
            },
            {
                "start_time": 3.825,
                "end_time": 4.0,
                "pitch": 31,
                "velocity": 51,
                "duration": 0.175,
                "tempo": 120.0
            },
            {
                "start_time": 4.0159091,
                "end_time": 4.1022727,
                "pitch": 40,
                "velocity": 51,
                "duration": 0.0863636,
                "tempo": 120.0
            },
            {
                "start_time": 4.1204545,
                "end_time": 4.2068182,
                "pitch": 41,
                "velocity": 51,
                "duration": 0.0863636,
                "tempo": 120.0
            },
            {
                "start_time": 4.4363636,
                "end_time": 4.5181818,
                "pitch": 40,
                "velocity": 51,
                "duration": 0.0818182,
                "tempo": 120.0
            },
            {
                "start_time": 4.5340909,
                "end_time": 4.6159091,
                "pitch": 43,
                "velocity": 51,
                "duration": 0.0818182,
                "tempo": 120.0
            },
            {
                "start_time": 4.6340909,
                "end_time": 4.8136364,
                "pitch": 36,
                "velocity": 51,
                "duration": 0.1795455,
                "tempo": 120.0
            },
            {
                "start_time": 4.8295455,
                "end_time": 5.0136364,
                "pitch": 38,
                "velocity": 51,
                "duration": 0.1840909,
                "tempo": 120.0
            },
            {
                "start_time": 5.0295455,
                "end_time": 5.2159091,
                "pitch": 43,
                "velocity": 51,
                "duration": 0.1863636,
                "tempo": 120.0
            },
            {
                "start_time": 5.4272727,
                "end_time": 5.5090909,
                "pitch": 38,
                "velocity": 51,
                "duration": 0.0818182,
                "tempo": 120.0
            },
            {
                "start_time": 5.525,
                "end_time": 5.6068182,
                "pitch": 38,
                "velocity": 51,
                "duration": 0.0818182,
                "tempo": 120.0
            },
            {
                "start_time": 5.6227273,
                "end_time": 5.8113636,
                "pitch": 36,
                "velocity": 51,
                "duration": 0.1886364,
                "tempo": 120.0
            },
            {
                "start_time": 6.0340909,
                "end_time": 6.2181818,
                "pitch": 35,
                "velocity": 51,
                "duration": 0.1840909,
                "tempo": 120.0
            },
            {
                "start_time": 6.2363636,
                "end_time": 6.3204545,
                "pitch": 31,
                "velocity": 51,
                "duration": 0.0840909,
                "tempo": 120.0
            },
            {
                "start_time": 6.3363636,
                "end_time": 6.4204545,
                "pitch": 31,
                "velocity": 51,
                "duration": 0.0840909,
                "tempo": 120.0
            },
            {
                "start_time": 6.4363636,
                "end_time": 6.625,
                "pitch": 36,
                "velocity": 51,
                "duration": 0.1886364,
                "tempo": 120.0
            },
            {
                "start_time": 7.0386364,
                "end_time": 7.2136364,
                "pitch": 31,
                "velocity": 51,
                "duration": 0.175,
                "tempo": 120.0
            },
            {
                "start_time": 7.2295455,
                "end_time": 7.3159091,
                "pitch": 40,
                "velocity": 51,
                "duration": 0.0863636,
                "tempo": 120.0
            },
            {
                "start_time": 7.3340909,
                "end_time": 7.4227273,
                "pitch": 41,
                "velocity": 51,
                "duration": 0.0886364,
                "tempo": 120.0
            },
            {
                "start_time": 7.65,
                "end_time": 7.7318182,
                "pitch": 40,
                "velocity": 51,
                "duration": 0.0818182,
                "tempo": 120.0
            },
            {
                "start_time": 7.75,
                "end_time": 7.8318182,
                "pitch": 43,
                "velocity": 51,
                "duration": 0.0818182,
                "tempo": 120.0
            },
            {
                "start_time": 7.8477273,
                "end_time": 8.0272727,
                "pitch": 36,
                "velocity": 51,
                "duration": 0.1795455,
                "tempo": 120.0
            },
            {
                "start_time": 8.0431818,
                "end_time": 8.2318182,
                "pitch": 38,
                "velocity": 51,
                "duration": 0.1886364,
                "tempo": 120.0
            },
            {
                "start_time": 8.2477273,
                "end_time": 8.4363636,
                "pitch": 43,
                "velocity": 51,
                "duration": 0.1886364,
                "tempo": 120.0
            },
            {
                "start_time": 8.6545455,
                "end_time": 8.7386364,
                "pitch": 38,
                "velocity": 51,
                "duration": 0.0840909,
                "tempo": 120.0
            },
            {
                "start_time": 8.7568182,
                "end_time": 8.8409091,
                "pitch": 38,
                "velocity": 51,
                "duration": 0.0840909,
                "tempo": 120.0
            },
            {
                "start_time": 8.8568182,
                "end_time": 9.0409091,
                "pitch": 36,
                "velocity": 51,
                "duration": 0.1840909,
                "tempo": 120.0
            },
            {
                "start_time": 9.2590909,
                "end_time": 9.4386364,
                "pitch": 35,
                "velocity": 51,
                "duration": 0.1795455,
                "tempo": 120.0
            },
            {
                "start_time": 9.4545455,
                "end_time": 9.5363636,
                "pitch": 31,
                "velocity": 51,
                "duration": 0.0818182,
                "tempo": 120.0
            },
            {
                "start_time": 9.5545455,
                "end_time": 9.6363636,
                "pitch": 31,
                "velocity": 51,
                "duration": 0.0818182,
                "tempo": 120.0
            },
            {
                "start_time": 9.6522727,
                "end_time": 9.8386364,
                "pitch": 36,
                "velocity": 51,
                "duration": 0.1863636,
                "tempo": 120.0
            },
            {
                "start_time": 10.2522727,
                "end_time": 10.4272727,
                "pitch": 31,
                "velocity": 51,
                "duration": 0.175,
                "tempo": 120.0
            },
            {
                "start_time": 10.4431818,
                "end_time": 10.5295455,
                "pitch": 40,
                "velocity": 51,
                "duration": 0.0863636,
                "tempo": 120.0
            },
            {
                "start_time": 10.5477273,
                "end_time": 10.6363636,
                "pitch": 41,
                "velocity": 51,
                "duration": 0.0886364,
                "tempo": 120.0
            },
            {
                "start_time": 10.8636364,
                "end_time": 10.9477273,
                "pitch": 40,
                "velocity": 51,
                "duration": 0.0840909,
                "tempo": 120.0
            },
            {
                "start_time": 10.9636364,
                "end_time": 11.0454545,
                "pitch": 43,
                "velocity": 51,
                "duration": 0.0818182,
                "tempo": 120.0
            },
            {
                "start_time": 11.0613636,
                "end_time": 11.2409091,
                "pitch": 36,
                "velocity": 51,
                "duration": 0.1795455,
                "tempo": 120.0
            },
            {
                "start_time": 11.2568182,
                "end_time": 11.4454545,
                "pitch": 38,
                "velocity": 51,
                "duration": 0.1886364,
                "tempo": 120.0
            },
            {
                "start_time": 11.4613636,
                "end_time": 11.65,
                "pitch": 43,
                "velocity": 51,
                "duration": 0.1886364,
                "tempo": 120.0
            },
            {
                "start_time": 11.8636364,
                "end_time": 11.9454545,
                "pitch": 38,
                "velocity": 51,
                "duration": 0.0818182,
                "tempo": 120.0
            },
            {
                "start_time": 11.9613636,
                "end_time": 12.0431818,
                "pitch": 38,
                "velocity": 51,
                "duration": 0.0818182,
                "tempo": 120.0
            },
            {
                "start_time": 12.0590909,
                "end_time": 12.2477273,
                "pitch": 36,
                "velocity": 51,
                "duration": 0.1886364,
                "tempo": 120.0
            },
            {
                "start_time": 12.4704545,
                "end_time": 12.65,
                "pitch": 35,
                "velocity": 51,
                "duration": 0.1795455,
                "tempo": 120.0
            },
            {
                "start_time": 12.6659091,
                "end_time": 12.7477273,
                "pitch": 31,
                "velocity": 51,
                "duration": 0.0818182,
                "tempo": 120.0
            },
            {
                "start_time": 12.7636364,
                "end_time": 12.8454545,
                "pitch": 31,
                "velocity": 51,
                "duration": 0.0818182,
                "tempo": 120.0
            },
            {
                "start_time": 12.8613636,
                "end_time": 13.05,
                "pitch": 36,
                "velocity": 51,
                "duration": 0.1886364,
                "tempo": 120.0
            },
            {
                "start_time": 13.4636364,
                "end_time": 13.6386364,
                "pitch": 31,
                "velocity": 51,
                "duration": 0.175,
                "tempo": 120.0
            },
            {
                "start_time": 13.6545455,
                "end_time": 13.7409091,
                "pitch": 40,
                "velocity": 51,
                "duration": 0.0863636,
                "tempo": 120.0
            },
            {
                "start_time": 13.7590909,
                "end_time": 13.8454545,
                "pitch": 41,
                "velocity": 51,
                "duration": 0.0863636,
                "tempo": 120.0
            },
            {
                "start_time": 14.075,
                "end_time": 14.1568182,
                "pitch": 40,
                "velocity": 51,
                "duration": 0.0818182,
                "tempo": 120.0
            },
            {
                "start_time": 14.175,
                "end_time": 14.2568182,
                "pitch": 43,
                "velocity": 51,
                "duration": 0.0818182,
                "tempo": 120.0
            },
            {
                "start_time": 14.2727273,
                "end_time": 14.4522727,
                "pitch": 36,
                "velocity": 51,
                "duration": 0.1795455,
                "tempo": 120.0
            },
            {
                "start_time": 14.4681818,
                "end_time": 14.6545455,
                "pitch": 38,
                "velocity": 51,
                "duration": 0.1863636,
                "tempo": 120.0
            },
            {
                "start_time": 14.6727273,
                "end_time": 14.8613636,
                "pitch": 43,
                "velocity": 51,
                "duration": 0.1886364,
                "tempo": 120.0
            },
            {
                "start_time": 15.0795455,
                "end_time": 15.1636364,
                "pitch": 38,
                "velocity": 51,
                "duration": 0.0840909,
                "tempo": 120.0
            },
            {
                "start_time": 15.1795455,
                "end_time": 15.2636364,
                "pitch": 38,
                "velocity": 51,
                "duration": 0.0840909,
                "tempo": 120.0
            },
            {
                "start_time": 15.2818182,
                "end_time": 15.4636364,
                "pitch": 36,
                "velocity": 51,
                "duration": 0.1818182,
                "tempo": 120.0
            },
            {
                "start_time": 15.6818182,
                "end_time": 15.8659091,
                "pitch": 35,
                "velocity": 51,
                "duration": 0.1840909,
                "tempo": 120.0
            },
            {
                "start_time": 15.8818182,
                "end_time": 15.9659091,
                "pitch": 31,
                "velocity": 51,
                "duration": 0.0840909,
                "tempo": 120.0
            },
            {
                "start_time": 15.9840909,
                "end_time": 16.0681818,
                "pitch": 31,
                "velocity": 51,
                "duration": 0.0840909,
                "tempo": 120.0
            },
            {
                "start_time": 16.0840909,
                "end_time": 16.2681818,
                "pitch": 36,
                "velocity": 51,
                "duration": 0.1840909,
                "tempo": 120.0
            },
            {
                "start_time": 16.6772727,
                "end_time": 16.8522727,
                "pitch": 31,
                "velocity": 51,
                "duration": 0.175,
                "tempo": 120.0
            },
            {
                "start_time": 16.8681818,
                "end_time": 16.9545455,
                "pitch": 40,
                "velocity": 51,
                "duration": 0.0863636,
                "tempo": 120.0
            },
            {
                "start_time": 16.9727273,
                "end_time": 17.0613636,
                "pitch": 41,
                "velocity": 51,
                "duration": 0.0886364,
                "tempo": 120.0
            },
            {
                "start_time": 17.2886364,
                "end_time": 17.3727273,
                "pitch": 40,
                "velocity": 51,
                "duration": 0.0840909,
                "tempo": 120.0
            },
            {
                "start_time": 17.3886364,
                "end_time": 17.4704545,
                "pitch": 43,
                "velocity": 51,
                "duration": 0.0818182,
                "tempo": 120.0
            },
            {
                "start_time": 17.4863636,
                "end_time": 17.6659091,
                "pitch": 36,
                "velocity": 51,
                "duration": 0.1795455,
                "tempo": 120.0
            },
            {
                "start_time": 17.6818182,
                "end_time": 17.8704545,
                "pitch": 38,
                "velocity": 51,
                "duration": 0.1886364,
                "tempo": 120.0
            },
            {
                "start_time": 17.8863636,
                "end_time": 18.075,
                "pitch": 43,
                "velocity": 51,
                "duration": 0.1886364,
                "tempo": 120.0
            },
            {
                "start_time": 18.2886364,
                "end_time": 18.3704545,
                "pitch": 38,
                "velocity": 51,
                "duration": 0.0818182,
                "tempo": 120.0
            },
            {
                "start_time": 18.3863636,
                "end_time": 18.4681818,
                "pitch": 38,
                "velocity": 51,
                "duration": 0.0818182,
                "tempo": 120.0
            },
            {
                "start_time": 18.4840909,
                "end_time": 18.6727273,
                "pitch": 36,
                "velocity": 51,
                "duration": 0.1886364,
                "tempo": 120.0
            },
            {
                "start_time": 18.8954545,
                "end_time": 19.075,
                "pitch": 35,
                "velocity": 51,
                "duration": 0.1795455,
                "tempo": 120.0
            },
            {
                "start_time": 19.0909091,
                "end_time": 19.1727273,
                "pitch": 31,
                "velocity": 51,
                "duration": 0.0818182,
                "tempo": 120.0
            },
            {
                "start_time": 19.1886364,
                "end_time": 19.2704545,
                "pitch": 31,
                "velocity": 51,
                "duration": 0.0818182,
                "tempo": 120.0
            },
            {
                "start_time": 19.2863636,
                "end_time": 20.275,
                "pitch": 33,
                "velocity": 51,
                "duration": 0.9886364,
                "tempo": 120.0
            },
            {
                "start_time": 20.2909091,
                "end_time": 20.4659091,
                "pitch": 31,
                "velocity": 51,
                "duration": 0.175,
                "tempo": 120.0
            },
            {
                "start_time": 20.4818182,
                "end_time": 20.675,
                "pitch": 33,
                "velocity": 51,
                "duration": 0.1931818,
                "tempo": 120.0
            },
            {
                "start_time": 20.6931818,
                "end_time": 20.8863636,
                "pitch": 35,
                "velocity": 51,
                "duration": 0.1931818,
                "tempo": 120.0
            },
            {
                "start_time": 20.9045455,
                "end_time": 21.0840909,
                "pitch": 36,
                "velocity": 51,
                "duration": 0.1795455,
                "tempo": 120.0
            },
            {
                "start_time": 21.1,
                "end_time": 21.1818182,
                "pitch": 31,
                "velocity": 51,
                "duration": 0.0818182,
                "tempo": 120.0
            },
            {
                "start_time": 21.4931818,
                "end_time": 21.575,
                "pitch": 31,
                "velocity": 51,
                "duration": 0.0818182,
                "tempo": 120.0
            },
            {
                "start_time": 21.6886364,
                "end_time": 21.8772727,
                "pitch": 36,
                "velocity": 51,
                "duration": 0.1886364,
                "tempo": 120.0
            },
            {
                "start_time": 21.8931818,
                "end_time": 22.0818182,
                "pitch": 31,
                "velocity": 51,
                "duration": 0.1886364,
                "tempo": 120.0
            },
            {
                "start_time": 22.1,
                "end_time": 22.1818182,
                "pitch": 36,
                "velocity": 51,
                "duration": 0.0818182,
                "tempo": 120.0
            },
            {
                "start_time": 22.2,
                "end_time": 22.2818182,
                "pitch": 36,
                "velocity": 51,
                "duration": 0.0818182,
                "tempo": 120.0
            },
            {
                "start_time": 22.3,
                "end_time": 22.3818182,
                "pitch": 36,
                "velocity": 51,
                "duration": 0.0818182,
                "tempo": 120.0
            },
            {
                "start_time": 22.5,
                "end_time": 23.2954545,
                "pitch": 31,
                "velocity": 51,
                "duration": 0.7954545,
                "tempo": 120.0
            },
            {
                "start_time": 23.3113636,
                "end_time": 23.4931818,
                "pitch": 38,
                "velocity": 51,
                "duration": 0.1818182,
                "tempo": 120.0
            },
            {
                "start_time": 23.5090909,
                "end_time": 23.6886364,
                "pitch": 36,
                "velocity": 51,
                "duration": 0.1795455,
                "tempo": 120.0
            },
            {
                "start_time": 23.9,
                "end_time": 24.0818182,
                "pitch": 35,
                "velocity": 51,
                "duration": 0.1818182,
                "tempo": 120.0
            },
            {
                "start_time": 24.0977273,
                "end_time": 24.5,
                "pitch": 29,
                "velocity": 51,
                "duration": 0.4022727,
                "tempo": 120.0
            },
            {
                "start_time": 24.5181818,
                "end_time": 24.9022727,
                "pitch": 31,
                "velocity": 51,
                "duration": 0.3840909,
                "tempo": 120.0
            },
            {
                "start_time": 24.9181818,
                "end_time": 25.1045455,
                "pitch": 33,
                "velocity": 51,
                "duration": 0.1863636,
                "tempo": 120.0
            },
            {
                "start_time": 25.1204545,
                "end_time": 25.3045455,
                "pitch": 41,
                "velocity": 51,
                "duration": 0.1840909,
                "tempo": 120.0
            },
            {
                "start_time": 25.3227273,
                "end_time": 25.5045455,
                "pitch": 35,
                "velocity": 51,
                "duration": 0.1818182,
                "tempo": 120.0
            },
            {
                "start_time": 25.5227273,
                "end_time": 25.7045455,
                "pitch": 43,
                "velocity": 51,
                "duration": 0.1818182,
                "tempo": 120.0
            },
            {
                "start_time": 25.7227273,
                "end_time": 26.7,
                "pitch": 33,
                "velocity": 51,
                "duration": 0.9772727,
                "tempo": 120.0
            },
            {
                "start_time": 26.7159091,
                "end_time": 26.8909091,
                "pitch": 31,
                "velocity": 51,
                "duration": 0.175,
                "tempo": 120.0
            },
            {
                "start_time": 26.9068182,
                "end_time": 27.0977273,
                "pitch": 33,
                "velocity": 51,
                "duration": 0.1909091,
                "tempo": 120.0
            },
            {
                "start_time": 27.1159091,
                "end_time": 27.3090909,
                "pitch": 35,
                "velocity": 51,
                "duration": 0.1931818,
                "tempo": 120.0
            },
            {
                "start_time": 27.3272727,
                "end_time": 27.5068182,
                "pitch": 36,
                "velocity": 51,
                "duration": 0.1795455,
                "tempo": 120.0
            },
            {
                "start_time": 27.525,
                "end_time": 27.6068182,
                "pitch": 31,
                "velocity": 51,
                "duration": 0.0818182,
                "tempo": 120.0
            },
            {
                "start_time": 27.9159091,
                "end_time": 27.9977273,
                "pitch": 31,
                "velocity": 51,
                "duration": 0.0818182,
                "tempo": 120.0
            },
            {
                "start_time": 28.1113636,
                "end_time": 28.3,
                "pitch": 36,
                "velocity": 51,
                "duration": 0.1886364,
                "tempo": 120.0
            },
            {
                "start_time": 28.3181818,
                "end_time": 28.5068182,
                "pitch": 31,
                "velocity": 51,
                "duration": 0.1886364,
                "tempo": 120.0
            },
            {
                "start_time": 28.5227273,
                "end_time": 28.6068182,
                "pitch": 36,
                "velocity": 51,
                "duration": 0.0840909,
                "tempo": 120.0
            },
            {
                "start_time": 28.6227273,
                "end_time": 28.7068182,
                "pitch": 36,
                "velocity": 51,
                "duration": 0.0840909,
                "tempo": 120.0
            },
            {
                "start_time": 28.725,
                "end_time": 28.8090909,
                "pitch": 36,
                "velocity": 51,
                "duration": 0.0840909,
                "tempo": 120.0
            },
            {
                "start_time": 28.925,
                "end_time": 29.7204545,
                "pitch": 31,
                "velocity": 51,
                "duration": 0.7954545,
                "tempo": 120.0
            },
            {
                "start_time": 29.7363636,
                "end_time": 29.9159091,
                "pitch": 38,
                "velocity": 51,
                "duration": 0.1795455,
                "tempo": 120.0
            },
            {
                "start_time": 29.9340909,
                "end_time": 30.1136364,
                "pitch": 36,
                "velocity": 51,
                "duration": 0.1795455,
                "tempo": 120.0
            },
            {
                "start_time": 30.3295455,
                "end_time": 30.5113636,
                "pitch": 35,
                "velocity": 51,
                "duration": 0.1818182,
                "tempo": 120.0
            },
            {
                "start_time": 30.5295455,
                "end_time": 30.9227273,
                "pitch": 29,
                "velocity": 51,
                "duration": 0.3931818,
                "tempo": 120.0
            },
            {
                "start_time": 30.9386364,
                "end_time": 31.325,
                "pitch": 31,
                "velocity": 51,
                "duration": 0.3863636,
                "tempo": 120.0
            },
            {
                "start_time": 31.3431818,
                "end_time": 31.525,
                "pitch": 33,
                "velocity": 51,
                "duration": 0.1818182,
                "tempo": 120.0
            },
            {
                "start_time": 31.5431818,
                "end_time": 31.725,
                "pitch": 41,
                "velocity": 51,
                "duration": 0.1818182,
                "tempo": 120.0
            },
            {
                "start_time": 31.7431818,
                "end_time": 31.9272727,
                "pitch": 35,
                "velocity": 51,
                "duration": 0.1840909,
                "tempo": 120.0
            },
            {
                "start_time": 31.9431818,
                "end_time": 32.1295455,
                "pitch": 43,
                "velocity": 51,
                "duration": 0.1863636,
                "tempo": 120.0
            }
        ],
        "Oboe": [
            {
                "start_time": 0.1840909,
                "end_time": 0.2659091,
                "pitch": 64,
                "velocity": 40,
                "duration": 0.0818182,
                "tempo": 120.0
            },
            {
                "start_time": 0.2840909,
                "end_time": 0.3659091,
                "pitch": 64,
                "velocity": 40,
                "duration": 0.0818182,
                "tempo": 120.0
            },
            {
                "start_time": 0.5840909,
                "end_time": 0.6659091,
                "pitch": 64,
                "velocity": 40,
                "duration": 0.0818182,
                "tempo": 120.0
            },
            {
                "start_time": 0.6840909,
                "end_time": 0.7659091,
                "pitch": 64,
                "velocity": 40,
                "duration": 0.0818182,
                "tempo": 120.0
            },
            {
                "start_time": 0.7840909,
                "end_time": 0.8727273,
                "pitch": 65,
                "velocity": 40,
                "duration": 0.0886364,
                "tempo": 120.0
            },
            {
                "start_time": 0.8909091,
                "end_time": 0.9795455,
                "pitch": 65,
                "velocity": 40,
                "duration": 0.0886364,
                "tempo": 120.0
            },
            {
                "start_time": 1.4159091,
                "end_time": 1.4977273,
                "pitch": 67,
                "velocity": 40,
                "duration": 0.0818182,
                "tempo": 120.0
            },
            {
                "start_time": 1.5159091,
                "end_time": 1.5977273,
                "pitch": 67,
                "velocity": 40,
                "duration": 0.0818182,
                "tempo": 120.0
            },
            {
                "start_time": 1.8159091,
                "end_time": 1.9,
                "pitch": 65,
                "velocity": 40,
                "duration": 0.0840909,
                "tempo": 120.0
            },
            {
                "start_time": 1.9159091,
                "end_time": 2.0,
                "pitch": 65,
                "velocity": 40,
                "duration": 0.0840909,
                "tempo": 120.0
            },
            {
                "start_time": 2.2136364,
                "end_time": 2.2954545,
                "pitch": 65,
                "velocity": 40,
                "duration": 0.0818182,
                "tempo": 120.0
            },
            {
                "start_time": 2.3113636,
                "end_time": 2.3931818,
                "pitch": 65,
                "velocity": 40,
                "duration": 0.0818182,
                "tempo": 120.0
            },
            {
                "start_time": 2.4090909,
                "end_time": 2.4954545,
                "pitch": 64,
                "velocity": 40,
                "duration": 0.0863636,
                "tempo": 120.0
            },
            {
                "start_time": 2.5136364,
                "end_time": 2.6022727,
                "pitch": 64,
                "velocity": 40,
                "duration": 0.0886364,
                "tempo": 120.0
            },
            {
                "start_time": 2.6204545,
                "end_time": 2.7068182,
                "pitch": 64,
                "velocity": 40,
                "duration": 0.0863636,
                "tempo": 120.0
            },
            {
                "start_time": 2.8318182,
                "end_time": 2.9136364,
                "pitch": 62,
                "velocity": 40,
                "duration": 0.0818182,
                "tempo": 120.0
            },
            {
                "start_time": 3.4272727,
                "end_time": 3.5136364,
                "pitch": 64,
                "velocity": 40,
                "duration": 0.0863636,
                "tempo": 120.0
            },
            {
                "start_time": 3.5318182,
                "end_time": 3.6159091,
                "pitch": 64,
                "velocity": 40,
                "duration": 0.0840909,
                "tempo": 120.0
            },
            {
                "start_time": 3.825,
                "end_time": 3.9045455,
                "pitch": 64,
                "velocity": 40,
                "duration": 0.0795455,
                "tempo": 120.0
            },
            {
                "start_time": 3.9204545,
                "end_time": 4.0,
                "pitch": 64,
                "velocity": 40,
                "duration": 0.0795455,
                "tempo": 120.0
            },
            {
                "start_time": 4.0159091,
                "end_time": 4.1022727,
                "pitch": 65,
                "velocity": 40,
                "duration": 0.0863636,
                "tempo": 120.0
            },
            {
                "start_time": 4.1204545,
                "end_time": 4.2068182,
                "pitch": 65,
                "velocity": 40,
                "duration": 0.0863636,
                "tempo": 120.0
            },
            {
                "start_time": 4.6340909,
                "end_time": 4.7159091,
                "pitch": 67,
                "velocity": 40,
                "duration": 0.0818182,
                "tempo": 120.0
            },
            {
                "start_time": 4.7318182,
                "end_time": 4.8136364,
                "pitch": 67,
                "velocity": 40,
                "duration": 0.0818182,
                "tempo": 120.0
            },
            {
                "start_time": 5.0295455,
                "end_time": 5.1136364,
                "pitch": 65,
                "velocity": 40,
                "duration": 0.0840909,
                "tempo": 120.0
            },
            {
                "start_time": 5.1318182,
                "end_time": 5.2159091,
                "pitch": 65,
                "velocity": 40,
                "duration": 0.0840909,
                "tempo": 120.0
            },
            {
                "start_time": 5.4272727,
                "end_time": 5.5090909,
                "pitch": 65,
                "velocity": 40,
                "duration": 0.0818182,
                "tempo": 120.0
            },
            {
                "start_time": 5.525,
                "end_time": 5.6068182,
                "pitch": 65,
                "velocity": 40,
                "duration": 0.0818182,
                "tempo": 120.0
            },
            {
                "start_time": 5.6227273,
                "end_time": 5.7090909,
                "pitch": 64,
                "velocity": 40,
                "duration": 0.0863636,
                "tempo": 120.0
            },
            {
                "start_time": 5.7272727,
                "end_time": 5.8113636,
                "pitch": 64,
                "velocity": 40,
                "duration": 0.0840909,
                "tempo": 120.0
            },
            {
                "start_time": 5.8295455,
                "end_time": 5.9136364,
                "pitch": 64,
                "velocity": 40,
                "duration": 0.0840909,
                "tempo": 120.0
            },
            {
                "start_time": 6.0340909,
                "end_time": 6.1181818,
                "pitch": 62,
                "velocity": 40,
                "duration": 0.0840909,
                "tempo": 120.0
            },
            {
                "start_time": 6.6431818,
                "end_time": 6.7272727,
                "pitch": 64,
                "velocity": 40,
                "duration": 0.0840909,
                "tempo": 120.0
            },
            {
                "start_time": 6.7454545,
                "end_time": 6.8318182,
                "pitch": 64,
                "velocity": 40,
                "duration": 0.0863636,
                "tempo": 120.0
            },
            {
                "start_time": 7.0386364,
                "end_time": 7.1181818,
                "pitch": 64,
                "velocity": 40,
                "duration": 0.0795455,
                "tempo": 120.0
            },
            {
                "start_time": 7.1340909,
                "end_time": 7.2136364,
                "pitch": 64,
                "velocity": 40,
                "duration": 0.0795455,
                "tempo": 120.0
            },
            {
                "start_time": 7.2295455,
                "end_time": 7.3159091,
                "pitch": 65,
                "velocity": 40,
                "duration": 0.0863636,
                "tempo": 120.0
            },
            {
                "start_time": 7.3340909,
                "end_time": 7.4227273,
                "pitch": 65,
                "velocity": 40,
                "duration": 0.0886364,
                "tempo": 120.0
            },
            {
                "start_time": 7.8477273,
                "end_time": 7.9295455,
                "pitch": 67,
                "velocity": 40,
                "duration": 0.0818182,
                "tempo": 120.0
            },
            {
                "start_time": 7.9454545,
                "end_time": 8.0272727,
                "pitch": 67,
                "velocity": 40,
                "duration": 0.0818182,
                "tempo": 120.0
            },
            {
                "start_time": 8.2477273,
                "end_time": 8.3340909,
                "pitch": 65,
                "velocity": 40,
                "duration": 0.0863636,
                "tempo": 120.0
            },
            {
                "start_time": 8.35,
                "end_time": 8.4363636,
                "pitch": 65,
                "velocity": 40,
                "duration": 0.0863636,
                "tempo": 120.0
            },
            {
                "start_time": 8.6545455,
                "end_time": 8.7386364,
                "pitch": 65,
                "velocity": 40,
                "duration": 0.0840909,
                "tempo": 120.0
            },
            {
                "start_time": 8.7568182,
                "end_time": 8.8409091,
                "pitch": 65,
                "velocity": 40,
                "duration": 0.0840909,
                "tempo": 120.0
            },
            {
                "start_time": 8.8568182,
                "end_time": 8.9409091,
                "pitch": 64,
                "velocity": 40,
                "duration": 0.0840909,
                "tempo": 120.0
            },
            {
                "start_time": 8.9568182,
                "end_time": 9.0409091,
                "pitch": 64,
                "velocity": 40,
                "duration": 0.0840909,
                "tempo": 120.0
            },
            {
                "start_time": 9.0568182,
                "end_time": 9.1409091,
                "pitch": 64,
                "velocity": 40,
                "duration": 0.0840909,
                "tempo": 120.0
            },
            {
                "start_time": 9.2590909,
                "end_time": 9.3409091,
                "pitch": 62,
                "velocity": 40,
                "duration": 0.0818182,
                "tempo": 120.0
            },
            {
                "start_time": 9.8568182,
                "end_time": 9.9409091,
                "pitch": 64,
                "velocity": 40,
                "duration": 0.0840909,
                "tempo": 120.0
            },
            {
                "start_time": 9.9590909,
                "end_time": 10.0454545,
                "pitch": 64,
                "velocity": 40,
                "duration": 0.0863636,
                "tempo": 120.0
            },
            {
                "start_time": 10.2522727,
                "end_time": 10.3318182,
                "pitch": 64,
                "velocity": 40,
                "duration": 0.0795455,
                "tempo": 120.0
            },
            {
                "start_time": 10.3477273,
                "end_time": 10.4272727,
                "pitch": 64,
                "velocity": 40,
                "duration": 0.0795455,
                "tempo": 120.0
            },
            {
                "start_time": 10.4431818,
                "end_time": 10.5295455,
                "pitch": 65,
                "velocity": 40,
                "duration": 0.0863636,
                "tempo": 120.0
            },
            {
                "start_time": 10.5477273,
                "end_time": 10.6363636,
                "pitch": 65,
                "velocity": 40,
                "duration": 0.0886364,
                "tempo": 120.0
            },
            {
                "start_time": 11.0613636,
                "end_time": 11.1431818,
                "pitch": 67,
                "velocity": 40,
                "duration": 0.0818182,
                "tempo": 120.0
            },
            {
                "start_time": 11.1590909,
                "end_time": 11.2409091,
                "pitch": 67,
                "velocity": 40,
                "duration": 0.0818182,
                "tempo": 120.0
            },
            {
                "start_time": 11.4613636,
                "end_time": 11.5477273,
                "pitch": 65,
                "velocity": 40,
                "duration": 0.0863636,
                "tempo": 120.0
            },
            {
                "start_time": 11.5636364,
                "end_time": 11.65,
                "pitch": 65,
                "velocity": 40,
                "duration": 0.0863636,
                "tempo": 120.0
            },
            {
                "start_time": 11.8636364,
                "end_time": 11.9454545,
                "pitch": 65,
                "velocity": 40,
                "duration": 0.0818182,
                "tempo": 120.0
            },
            {
                "start_time": 11.9613636,
                "end_time": 12.0431818,
                "pitch": 65,
                "velocity": 40,
                "duration": 0.0818182,
                "tempo": 120.0
            },
            {
                "start_time": 12.0590909,
                "end_time": 12.1454545,
                "pitch": 64,
                "velocity": 40,
                "duration": 0.0863636,
                "tempo": 120.0
            },
            {
                "start_time": 12.1613636,
                "end_time": 12.2477273,
                "pitch": 64,
                "velocity": 40,
                "duration": 0.0863636,
                "tempo": 120.0
            },
            {
                "start_time": 12.2636364,
                "end_time": 12.35,
                "pitch": 64,
                "velocity": 40,
                "duration": 0.0863636,
                "tempo": 120.0
            },
            {
                "start_time": 12.4704545,
                "end_time": 12.5522727,
                "pitch": 62,
                "velocity": 40,
                "duration": 0.0818182,
                "tempo": 120.0
            },
            {
                "start_time": 13.0681818,
                "end_time": 13.1522727,
                "pitch": 64,
                "velocity": 40,
                "duration": 0.0840909,
                "tempo": 120.0
            },
            {
                "start_time": 13.1704545,
                "end_time": 13.2545455,
                "pitch": 64,
                "velocity": 40,
                "duration": 0.0840909,
                "tempo": 120.0
            },
            {
                "start_time": 13.4636364,
                "end_time": 13.5431818,
                "pitch": 64,
                "velocity": 40,
                "duration": 0.0795455,
                "tempo": 120.0
            },
            {
                "start_time": 13.5590909,
                "end_time": 13.6386364,
                "pitch": 64,
                "velocity": 40,
                "duration": 0.0795455,
                "tempo": 120.0
            },
            {
                "start_time": 13.6545455,
                "end_time": 13.7409091,
                "pitch": 65,
                "velocity": 40,
                "duration": 0.0863636,
                "tempo": 120.0
            },
            {
                "start_time": 13.7590909,
                "end_time": 13.8454545,
                "pitch": 65,
                "velocity": 40,
                "duration": 0.0863636,
                "tempo": 120.0
            },
            {
                "start_time": 14.2727273,
                "end_time": 14.3545455,
                "pitch": 67,
                "velocity": 40,
                "duration": 0.0818182,
                "tempo": 120.0
            },
            {
                "start_time": 14.3704545,
                "end_time": 14.4522727,
                "pitch": 67,
                "velocity": 40,
                "duration": 0.0818182,
                "tempo": 120.0
            },
            {
                "start_time": 14.6727273,
                "end_time": 14.7590909,
                "pitch": 65,
                "velocity": 40,
                "duration": 0.0863636,
                "tempo": 120.0
            },
            {
                "start_time": 14.775,
                "end_time": 14.8613636,
                "pitch": 65,
                "velocity": 40,
                "duration": 0.0863636,
                "tempo": 120.0
            },
            {
                "start_time": 15.0795455,
                "end_time": 15.1636364,
                "pitch": 65,
                "velocity": 40,
                "duration": 0.0840909,
                "tempo": 120.0
            },
            {
                "start_time": 15.1795455,
                "end_time": 15.2636364,
                "pitch": 65,
                "velocity": 40,
                "duration": 0.0840909,
                "tempo": 120.0
            },
            {
                "start_time": 15.2818182,
                "end_time": 15.3636364,
                "pitch": 64,
                "velocity": 40,
                "duration": 0.0818182,
                "tempo": 120.0
            },
            {
                "start_time": 15.3818182,
                "end_time": 15.4636364,
                "pitch": 64,
                "velocity": 40,
                "duration": 0.0818182,
                "tempo": 120.0
            },
            {
                "start_time": 15.4818182,
                "end_time": 15.5636364,
                "pitch": 64,
                "velocity": 40,
                "duration": 0.0818182,
                "tempo": 120.0
            },
            {
                "start_time": 15.6818182,
                "end_time": 15.7659091,
                "pitch": 62,
                "velocity": 40,
                "duration": 0.0840909,
                "tempo": 120.0
            },
            {
                "start_time": 16.2863636,
                "end_time": 16.3681818,
                "pitch": 64,
                "velocity": 40,
                "duration": 0.0818182,
                "tempo": 120.0
            },
            {
                "start_time": 16.3863636,
                "end_time": 16.4704545,
                "pitch": 64,
                "velocity": 40,
                "duration": 0.0840909,
                "tempo": 120.0
            },
            {
                "start_time": 16.6772727,
                "end_time": 16.7568182,
                "pitch": 64,
                "velocity": 40,
                "duration": 0.0795455,
                "tempo": 120.0
            },
            {
                "start_time": 16.7727273,
                "end_time": 16.8522727,
                "pitch": 64,
                "velocity": 40,
                "duration": 0.0795455,
                "tempo": 120.0
            },
            {
                "start_time": 16.8681818,
                "end_time": 16.9545455,
                "pitch": 65,
                "velocity": 40,
                "duration": 0.0863636,
                "tempo": 120.0
            },
            {
                "start_time": 16.9727273,
                "end_time": 17.0613636,
                "pitch": 65,
                "velocity": 40,
                "duration": 0.0886364,
                "tempo": 120.0
            },
            {
                "start_time": 17.4863636,
                "end_time": 17.5681818,
                "pitch": 67,
                "velocity": 40,
                "duration": 0.0818182,
                "tempo": 120.0
            },
            {
                "start_time": 17.5840909,
                "end_time": 17.6659091,
                "pitch": 67,
                "velocity": 40,
                "duration": 0.0818182,
                "tempo": 120.0
            },
            {
                "start_time": 17.8863636,
                "end_time": 17.9727273,
                "pitch": 65,
                "velocity": 40,
                "duration": 0.0863636,
                "tempo": 120.0
            },
            {
                "start_time": 17.9886364,
                "end_time": 18.075,
                "pitch": 65,
                "velocity": 40,
                "duration": 0.0863636,
                "tempo": 120.0
            },
            {
                "start_time": 18.2886364,
                "end_time": 18.3704545,
                "pitch": 65,
                "velocity": 40,
                "duration": 0.0818182,
                "tempo": 120.0
            },
            {
                "start_time": 18.3863636,
                "end_time": 18.4681818,
                "pitch": 65,
                "velocity": 40,
                "duration": 0.0818182,
                "tempo": 120.0
            },
            {
                "start_time": 18.4840909,
                "end_time": 18.5704545,
                "pitch": 64,
                "velocity": 40,
                "duration": 0.0863636,
                "tempo": 120.0
            },
            {
                "start_time": 18.5863636,
                "end_time": 18.6727273,
                "pitch": 64,
                "velocity": 40,
                "duration": 0.0863636,
                "tempo": 120.0
            },
            {
                "start_time": 18.6886364,
                "end_time": 18.775,
                "pitch": 64,
                "velocity": 40,
                "duration": 0.0863636,
                "tempo": 120.0
            },
            {
                "start_time": 18.8954545,
                "end_time": 18.9772727,
                "pitch": 62,
                "velocity": 40,
                "duration": 0.0818182,
                "tempo": 120.0
            },
            {
                "start_time": 19.2863636,
                "end_time": 19.475,
                "pitch": 64,
                "velocity": 40,
                "duration": 0.1886364,
                "tempo": 120.0
            },
            {
                "start_time": 19.5954545,
                "end_time": 19.6795455,
                "pitch": 64,
                "velocity": 40,
                "duration": 0.0840909,
                "tempo": 120.0
            },
            {
                "start_time": 19.6977273,
                "end_time": 19.7818182,
                "pitch": 64,
                "velocity": 40,
                "duration": 0.0840909,
                "tempo": 120.0
            },
            {
                "start_time": 20.2909091,
                "end_time": 20.3704545,
                "pitch": 69,
                "velocity": 40,
                "duration": 0.0795455,
                "tempo": 120.0
            },
            {
                "start_time": 20.3863636,
                "end_time": 20.4659091,
                "pitch": 69,
                "velocity": 40,
                "duration": 0.0795455,
                "tempo": 120.0
            },
            {
                "start_time": 20.4818182,
                "end_time": 20.5681818,
                "pitch": 69,
                "velocity": 40,
                "duration": 0.0863636,
                "tempo": 120.0
            },
            {
                "start_time": 20.6931818,
                "end_time": 20.8863636,
                "pitch": 64,
                "velocity": 40,
                "duration": 0.1931818,
                "tempo": 120.0
            },
            {
                "start_time": 20.9045455,
                "end_time": 21.0840909,
                "pitch": 64,
                "velocity": 40,
                "duration": 0.1795455,
                "tempo": 120.0
            },
            {
                "start_time": 21.1977273,
                "end_time": 21.2795455,
                "pitch": 64,
                "velocity": 40,
                "duration": 0.0818182,
                "tempo": 120.0
            },
            {
                "start_time": 21.2954545,
                "end_time": 21.3772727,
                "pitch": 64,
                "velocity": 40,
                "duration": 0.0818182,
                "tempo": 120.0
            },
            {
                "start_time": 22.5,
                "end_time": 22.6840909,
                "pitch": 62,
                "velocity": 40,
                "duration": 0.1840909,
                "tempo": 120.0
            },
            {
                "start_time": 22.8022727,
                "end_time": 22.8840909,
                "pitch": 62,
                "velocity": 40,
                "duration": 0.0818182,
                "tempo": 120.0
            },
            {
                "start_time": 22.9022727,
                "end_time": 22.9863636,
                "pitch": 62,
                "velocity": 40,
                "duration": 0.0840909,
                "tempo": 120.0
            },
            {
                "start_time": 23.5090909,
                "end_time": 23.5909091,
                "pitch": 62,
                "velocity": 40,
                "duration": 0.0818182,
                "tempo": 120.0
            },
            {
                "start_time": 23.6068182,
                "end_time": 23.6886364,
                "pitch": 62,
                "velocity": 40,
                "duration": 0.0818182,
                "tempo": 120.0
            },
            {
                "start_time": 23.7045455,
                "end_time": 23.7863636,
                "pitch": 64,
                "velocity": 40,
                "duration": 0.0818182,
                "tempo": 120.0
            },
            {
                "start_time": 23.9,
                "end_time": 23.9818182,
                "pitch": 64,
                "velocity": 40,
                "duration": 0.0818182,
                "tempo": 120.0
            },
            {
                "start_time": 24.0977273,
                "end_time": 24.2886364,
                "pitch": 60,
                "velocity": 40,
                "duration": 0.1909091,
                "tempo": 120.0
            },
            {
                "start_time": 24.4136364,
                "end_time": 24.5,
                "pitch": 60,
                "velocity": 40,
                "duration": 0.0863636,
                "tempo": 120.0
            },
            {
                "start_time": 24.5181818,
                "end_time": 24.6022727,
                "pitch": 60,
                "velocity": 40,
                "duration": 0.0840909,
                "tempo": 120.0
            },
            {
                "start_time": 24.9181818,
                "end_time": 25.1045455,
                "pitch": 62,
                "velocity": 40,
                "duration": 0.1863636,
                "tempo": 120.0
            },
            {
                "start_time": 25.3227273,
                "end_time": 25.5045455,
                "pitch": 65,
                "velocity": 40,
                "duration": 0.1818182,
                "tempo": 120.0
            },
            {
                "start_time": 25.7227273,
                "end_time": 25.9068182,
                "pitch": 64,
                "velocity": 40,
                "duration": 0.1840909,
                "tempo": 120.0
            },
            {
                "start_time": 26.0227273,
                "end_time": 26.1068182,
                "pitch": 64,
                "velocity": 40,
                "duration": 0.0840909,
                "tempo": 120.0
            },
            {
                "start_time": 26.125,
                "end_time": 26.2090909,
                "pitch": 64,
                "velocity": 40,
                "duration": 0.0840909,
                "tempo": 120.0
            },
            {
                "start_time": 26.7159091,
                "end_time": 26.7954545,
                "pitch": 69,
                "velocity": 40,
                "duration": 0.0795455,
                "tempo": 120.0
            },
            {
                "start_time": 26.8113636,
                "end_time": 26.8909091,
                "pitch": 69,
                "velocity": 40,
                "duration": 0.0795455,
                "tempo": 120.0
            },
            {
                "start_time": 26.9068182,
                "end_time": 26.9931818,
                "pitch": 69,
                "velocity": 40,
                "duration": 0.0863636,
                "tempo": 120.0
            },
            {
                "start_time": 27.1159091,
                "end_time": 27.3090909,
                "pitch": 64,
                "velocity": 40,
                "duration": 0.1931818,
                "tempo": 120.0
            },
            {
                "start_time": 27.3272727,
                "end_time": 27.5068182,
                "pitch": 64,
                "velocity": 40,
                "duration": 0.1795455,
                "tempo": 120.0
            },
            {
                "start_time": 27.6227273,
                "end_time": 27.7045455,
                "pitch": 64,
                "velocity": 40,
                "duration": 0.0818182,
                "tempo": 120.0
            },
            {
                "start_time": 27.7204545,
                "end_time": 27.8022727,
                "pitch": 64,
                "velocity": 40,
                "duration": 0.0818182,
                "tempo": 120.0
            },
            {
                "start_time": 28.925,
                "end_time": 29.1136364,
                "pitch": 62,
                "velocity": 40,
                "duration": 0.1886364,
                "tempo": 120.0
            },
            {
                "start_time": 29.2340909,
                "end_time": 29.3181818,
                "pitch": 62,
                "velocity": 40,
                "duration": 0.0840909,
                "tempo": 120.0
            },
            {
                "start_time": 29.3363636,
                "end_time": 29.4204545,
                "pitch": 62,
                "velocity": 40,
                "duration": 0.0840909,
                "tempo": 120.0
            },
            {
                "start_time": 29.9340909,
                "end_time": 30.0159091,
                "pitch": 62,
                "velocity": 40,
                "duration": 0.0818182,
                "tempo": 120.0
            },
            {
                "start_time": 30.0318182,
                "end_time": 30.1136364,
                "pitch": 62,
                "velocity": 40,
                "duration": 0.0818182,
                "tempo": 120.0
            },
            {
                "start_time": 30.1295455,
                "end_time": 30.2113636,
                "pitch": 64,
                "velocity": 40,
                "duration": 0.0818182,
                "tempo": 120.0
            },
            {
                "start_time": 30.3295455,
                "end_time": 30.4113636,
                "pitch": 64,
                "velocity": 40,
                "duration": 0.0818182,
                "tempo": 120.0
            },
            {
                "start_time": 30.5295455,
                "end_time": 30.7159091,
                "pitch": 60,
                "velocity": 40,
                "duration": 0.1863636,
                "tempo": 120.0
            },
            {
                "start_time": 30.8363636,
                "end_time": 30.9227273,
                "pitch": 60,
                "velocity": 40,
                "duration": 0.0863636,
                "tempo": 120.0
            },
            {
                "start_time": 30.9386364,
                "end_time": 31.0227273,
                "pitch": 60,
                "velocity": 40,
                "duration": 0.0840909,
                "tempo": 120.0
            },
            {
                "start_time": 31.3431818,
                "end_time": 31.525,
                "pitch": 62,
                "velocity": 40,
                "duration": 0.1818182,
                "tempo": 120.0
            },
            {
                "start_time": 31.7431818,
                "end_time": 31.9272727,
                "pitch": 65,
                "velocity": 40,
                "duration": 0.1840909,
                "tempo": 120.0
            }
        ]
    }
}