{
    "mood": "happy",
    "instruments": {
        "Acoustic Grand Piano": [
            {
                "start_time": 0.0,
                "end_time": 0.7659091,
                "pitch": 57,
                "velocity": 64,
                "duration": 0.7659091,
                "tempo": 120.0
            },
            {
                "start_time": 0.7840909,
                "end_time": 1.3772727,
                "pitch": 64,
                "velocity": 64,
                "duration": 0.5931818,
                "tempo": 120.0
            },
            {
                "start_time": 1.3931818,
                "end_time": 1.5772727,
                "pitch": 64,
                "velocity": 64,
                "duration": 0.1840909,
                "tempo": 120.0
            },
            {
                "start_time": 1.5931818,
                "end_time": 2.1704545,
                "pitch": 62,
                "velocity": 64,
                "duration": 0.5772727,
                "tempo": 120.0
            },
            {
                "start_time": 2.1863636,
                "end_time": 2.7795455,
                "pitch": 59,
                "velocity": 64,
                "duration": 0.5931818,
                "tempo": 120.0
            },
            {
                "start_time": 2.7977273,
                "end_time": 3.1727273,
                "pitch": 55,
                "velocity": 64,
                "duration": 0.375,
                "tempo": 120.0
            },
            {
                "start_time": 3.1886364,
                "end_time": 3.3772727,
                "pitch": 57,
                "velocity": 64,
                "duration": 0.1886364,
                "tempo": 120.0
            },
            {
                "start_time": 3.3954545,
                "end_time": 3.5818182,
                "pitch": 52,
                "velocity": 64,
                "duration": 0.1863636,
                "tempo": 120.0
            },
            {
                "start_time": 3.6,
                "end_time": 3.7840909,
                "pitch": 57,
                "velocity": 64,
                "duration": 0.1840909,
                "tempo": 120.0
            },
            {
                "start_time": 3.8,
                "end_time": 3.9840909,
                "pitch": 52,
                "velocity": 64,
                "duration": 0.1840909,
                "tempo": 120.0
            },
            {
                "start_time": 4.0,
                "end_time": 4.5795455,
                "pitch": 64,
                "velocity": 64,
                "duration": 0.5795455,
                "tempo": 120.0
            },
            {
                "start_time": 4.5977273,
                "end_time": 4.7863636,
                "pitch": 69,
                "velocity": 64,
                "duration": 0.1886364,
                "tempo": 120.0
            },
            {
                "start_time": 4.8022727,
                "end_time": 5.3909091,
                "pitch": 73,
                "velocity": 64,
                "duration": 0.5886364,
                "tempo": 120.0
            },
            {
                "start_time": 5.4068182,
                "end_time": 6.1727273,
                "pitch": 68,
                "velocity": 64,
                "duration": 0.7659091,
                "tempo": 120.0
            },
            {
                "start_time": 6.1909091,
                "end_time": 6.3727273,
                "pitch": 64,
                "velocity": 64,
                "duration": 0.1818182,
                "tempo": 120.0
            },
            {
                "start_time": 6.3909091,
                "end_time": 6.5795455,
                "pitch": 66,
                "velocity": 64,
                "duration": 0.1886364,
                "tempo": 120.0
            },
            {
                "start_time": 6.8022727,
                "end_time": 6.9863636,
                "pitch": 64,
                "velocity": 64,
                "duration": 0.1840909,
                "tempo": 120.0
            },
            {
                "start_time": 7.0022727,
                "end_time": 7.3840909,
                "pitch": 62,
                "velocity": 64,
                "duration": 0.3818182,
                "tempo": 120.0
            },
            {
                "start_time": 7.4,
                "end_time": 7.5795455,
                "pitch": 64,
                "velocity": 64,
                "duration": 0.1795455,
                "tempo": 120.0
            },
            {
                "start_time": 7.5954545,
                "end_time": 8.0,
                "pitch": 66,
                "velocity": 64,
                "duration": 0.4045455,
                "tempo": 120.0
            },
            {
                "start_time": 8.0181818,
                "end_time": 8.8068182,
                "pitch": 64,
                "velocity": 64,
                "duration": 0.7886364,
                "tempo": 120.0
            },
            {
                "start_time": 8.8227273,
                "end_time": 9.5886364,
                "pitch": 61,
                "velocity": 64,
                "duration": 0.7659091,
                "tempo": 120.0
            },
            {
                "start_time": 10.4272727,
                "end_time": 10.5090909,
                "pitch": 52,
                "velocity": 64,
                "duration": 0.0818182,
                "tempo": 120.0
            },
            {
                "start_time": 10.525,
                "end_time": 10.6068182,
                "pitch": 54,
                "velocity": 64,
                "duration": 0.0818182,
                "tempo": 120.0
            },
            {
                "start_time": 10.6227273,
                "end_time": 11.9977273,
                "pitch": 52,
                "velocity": 64,
                "duration": 1.375,
                "tempo": 120.0
            },
            {
                "start_time": 12.0136364,
                "end_time": 12.1,
                "pitch": 64,
                "velocity": 64,
                "duration": 0.0863636,
                "tempo": 120.0
            },
            {
                "start_time": 12.1181818,
                "end_time": 12.2022727,
                "pitch": 66,
                "velocity": 64,
                "duration": 0.0840909,
                "tempo": 120.0
            },
            {
                "start_time": 12.2204545,
                "end_time": 12.8113636,
                "pitch": 68,
                "velocity": 64,
                "duration": 0.5909091,
                "tempo": 120.0
            },
            {
                "start_time": 12.8272727,
                "end_time": 13.625,
                "pitch": 57,
                "velocity": 64,
                "duration": 0.7977273,
                "tempo": 120.0
            },
            {
                "start_time": 13.6409091,
                "end_time": 14.2295455,
                "pitch": 64,
                "velocity": 64,
                "duration": 0.5886364,
                "tempo": 120.0
            },
            {
                "start_time": 14.2454545,
                "end_time": 14.4295455,
                "pitch": 64,
                "velocity": 64,
                "duration": 0.1840909,
                "tempo": 120.0
            },
            {
                "start_time": 14.4454545,
                "end_time": 15.0181818,
                "pitch": 62,
                "velocity": 64,
                "duration": 0.5727273,
                "tempo": 120.0
            },
            {
                "start_time": 15.0340909,
                "end_time": 15.6159091,
                "pitch": 59,
                "velocity": 64,
                "duration": 0.5818182,
                "tempo": 120.0
            },
            {
                "start_time": 15.6318182,
                "end_time": 16.025,
                "pitch": 55,
                "velocity": 64,
                "duration": 0.3931818,
                "tempo": 120.0
            },
            {
                "start_time": 16.0431818,
                "end_time": 16.2318182,
                "pitch": 57,
                "velocity": 64,
                "duration": 0.1886364,
                "tempo": 120.0
            },
            {
                "start_time": 16.2477273,
                "end_time": 16.4363636,
                "pitch": 52,
                "velocity": 64,
                "duration": 0.1886364,
                "tempo": 120.0
            },
            {
                "start_time": 16.4522727,
                "end_time": 16.6386364,
                "pitch": 57,
                "velocity": 64,
                "duration": 0.1863636,
                "tempo": 120.0
            },
            {
                "start_time": 16.6545455,
                "end_time": 16.8386364,
                "pitch": 52,
                "velocity": 64,
                "duration": 0.1840909,
                "tempo": 120.0
            },
            {
                "start_time": 16.8568182,
                "end_time": 17.4363636,
                "pitch": 64,
                "velocity": 64,
                "duration": 0.5795455,
                "tempo": 120.0
            },
            {
                "start_time": 17.4522727,
                "end_time": 17.6409091,
                "pitch": 69,
                "velocity": 64,
                "duration": 0.1886364,
                "tempo": 120.0
            },
            {
                "start_time": 17.6590909,
                "end_time": 18.2431818,
                "pitch": 73,
                "velocity": 64,
                "duration": 0.5840909,
                "tempo": 120.0
            },
            {
                "start_time": 18.2590909,
                "end_time": 19.025,
                "pitch": 68,
                "velocity": 64,
                "duration": 0.7659091,
                "tempo": 120.0
            },
            {
                "start_time": 19.0409091,
                "end_time": 19.225,
                "pitch": 64,
                "velocity": 64,
                "duration": 0.1840909,
                "tempo": 120.0
            },
            {
                "start_time": 19.2409091,
                "end_time": 19.4340909,
                "pitch": 66,
                "velocity": 64,
                "duration": 0.1931818,
                "tempo": 120.0
            },
            {
                "start_time": 19.6636364,
                "end_time": 19.8431818,
                "pitch": 64,
                "velocity": 64,
                "duration": 0.1795455,
                "tempo": 120.0
            },
            {
                "start_time": 19.8590909,
                "end_time": 20.2340909,
                "pitch": 62,
                "velocity": 64,
                "duration": 0.375,
                "tempo": 120.0
            },
            {
                "start_time": 20.2522727,
                "end_time": 20.4318182,
                "pitch": 64,
                "velocity": 64,
                "duration": 0.1795455,
                "tempo": 120.0
            },
            {
                "start_time": 20.4477273,
                "end_time": 20.8522727,
                "pitch": 66,
                "velocity": 64,
                "duration": 0.4045455,
                "tempo": 120.0
            },
            {
                "start_time": 20.8704545,
                "end_time": 21.6545455,
                "pitch": 64,
                "velocity": 64,
                "duration": 0.7840909,
                "tempo": 120.0
            },
            {
                "start_time": 21.6727273,
                "end_time": 22.4477273,
                "pitch": 61,
                "velocity": 64,
                "duration": 0.775,
                "tempo": 120.0
            },
            {
                "start_time": 23.275,
                "end_time": 23.3568182,
                "pitch": 52,
                "velocity": 64,
                "duration": 0.0818182,
                "tempo": 120.0
            },
            {
                "start_time": 23.3727273,
                "end_time": 23.4545455,
                "pitch": 54,
                "velocity": 64,
                "duration": 0.0818182,
                "tempo": 120.0
            },
            {
                "start_time": 23.4704545,
                "end_time": 24.8454545,
                "pitch": 52,
                "velocity": 64,
                "duration": 1.375,
                "tempo": 120.0
            },
            {
                "start_time": 24.8613636,
                "end_time": 24.9477273,
                "pitch": 64,
                "velocity": 64,
                "duration": 0.0863636,
                "tempo": 120.0
            },
            {
                "start_time": 24.9659091,
                "end_time": 25.05,
                "pitch": 66,
                "velocity": 64,
                "duration": 0.0840909,
                "tempo": 120.0
            },
            {
                "start_time": 25.0681818,
                "end_time": 25.6568182,
                "pitch": 68,
                "velocity": 64,
                "duration": 0.5886364,
                "tempo": 120.0
            },
            {
                "start_time": 25.6727273,
                "end_time": 26.2613636,
                "pitch": 54,
                "velocity": 64,
                "duration": 0.5886364,
                "tempo": 120.0
            },
            {
                "start_time": 26.2795455,
                "end_time": 26.6681818,
                "pitch": 54,
                "velocity": 64,
                "duration": 0.3886364,
                "tempo": 120.0
            },
            {
                "start_time": 26.6863636,
                "end_time": 26.8704545,
                "pitch": 56,
                "velocity": 64,
                "duration": 0.1840909,
                "tempo": 120.0
            },
            {
                "start_time": 26.8863636,
                "end_time": 27.2704545,
                "pitch": 57,
                "velocity": 64,
                "duration": 0.3840909,
                "tempo": 120.0
            },
            {
                "start_time": 27.2863636,
                "end_time": 27.8659091,
                "pitch": 52,
                "velocity": 64,
                "duration": 0.5795455,
                "tempo": 120.0
            },
            {
                "start_time": 27.8840909,
                "end_time": 28.2727273,
                "pitch": 52,
                "velocity": 64,
                "duration": 0.3886364,
                "tempo": 120.0
            },
            {
                "start_time": 28.2909091,
                "end_time": 28.4727273,
                "pitch": 56,
                "velocity": 64,
                "duration": 0.1818182,
                "tempo": 120.0
            },
            {
                "start_time": 28.4909091,
                "end_time": 28.875,
                "pitch": 57,
                "velocity": 64,
                "duration": 0.3840909,
                "tempo": 120.0
            },
            {
                "start_time": 28.8931818,
                "end_time": 29.4772727,
                "pitch": 50,
                "velocity": 64,
                "duration": 0.5840909,
                "tempo": 120.0
            },
            {
                "start_time": 29.4931818,
                "end_time": 29.8795455,
                "pitch": 50,
                "velocity": 64,
                "duration": 0.3863636,
                "tempo": 120.0
            },
            {
                "start_time": 29.8954545,
                "end_time": 30.0795455,
                "pitch": 56,
                "velocity": 64,
                "duration": 0.1840909,
                "tempo": 120.0
            },
            {
                "start_time": 30.0954545,
                "end_time": 30.4704545,
                "pitch": 57,
                "velocity": 64,
                "duration": 0.375,
                "tempo": 120.0
            },
            {
                "start_time": 30.4863636,
                "end_time": 30.6704545,
                "pitch": 56,
                "velocity": 64,
                "duration": 0.1840909,
                "tempo": 120.0
            },
            {
                "start_time": 30.6863636,
                "end_time": 31.075,
                "pitch": 54,
                "velocity": 64,
                "duration": 0.3886364,
                "tempo": 120.0
            },
            {
                "start_time": 31.0931818,
                "end_time": 31.4772727,
                "pitch": 49,
                "velocity": 64,
                "duration": 0.3840909,
                "tempo": 120.0
            },
            {
                "start_time": 31.4931818,
                "end_time": 31.575,
                "pitch": 50,
                "velocity": 64,
                "duration": 0.0818182,
                "tempo": 120.0
            },
            {
                "start_time": 31.6909091,
                "end_time": 32.0727273,
                "pitch": 49,
                "velocity": 64,
                "duration": 0.3818182,
                "tempo": 120.0
            },
            {
                "start_time": 32.0909091,
                "end_time": 32.6863636,
                "pitch": 47,
                "velocity": 64,
                "duration": 0.5954545,
                "tempo": 120.0
            },
            {
                "start_time": 32.7022727,
                "end_time": 33.0863636,
                "pitch": 54,
                "velocity": 64,
                "duration": 0.3840909,
                "tempo": 120.0
            },
            {
                "start_time": 33.1045455,
                "end_time": 33.2863636,
                "pitch": 52,
                "velocity": 64,
                "duration": 0.1818182,
                "tempo": 120.0
            },
            {
                "start_time": 33.3045455,
                "end_time": 33.6795455,
                "pitch": 50,
                "velocity": 64,
                "duration": 0.375,
                "tempo": 120.0
            },
            {
                "start_time": 33.6954545,
                "end_time": 34.2909091,
                "pitch": 49,
                "velocity": 64,
                "duration": 0.5954545,
                "tempo": 120.0
            },
            {
                "start_time": 34.3068182,
                "end_time": 34.6909091,
                "pitch": 57,
                "velocity": 64,
                "duration": 0.3840909,
                "tempo": 120.0
            },
            {
                "start_time": 34.7068182,
                "end_time": 34.8909091,
                "pitch": 56,
                "velocity": 64,
                "duration": 0.1840909,
                "tempo": 120.0
            },
            {
                "start_time": 34.9068182,
                "end_time": 35.2909091,
                "pitch": 49,
                "velocity": 64,
                "duration": 0.3840909,
                "tempo": 120.0
            },
            {
                "start_time": 35.3068182,
                "end_time": 36.0931818,
                "pitch": 47,
                "velocity": 64,
                "duration": 0.7863636,
                "tempo": 120.0
            },
            {
                "start_time": 36.1090909,
                "end_time": 36.8931818,
                "pitch": 49,
                "velocity": 64,
                "duration": 0.7840909,
                "tempo": 120.0
            },
            {
                "start_time": 36.9090909,
                "end_time": 37.6931818,
                "pitch": 51,
                "velocity": 64,
                "duration": 0.7840909,
                "tempo": 120.0
            },
            {
                "start_time": 37.7090909,
                "end_time": 38.4954545,
                "pitch": 52,
                "velocity": 64,
                "duration": 0.7863636,
                "tempo": 120.0
            },
            {
                "start_time": 38.5113636,
                "end_time": 38.8954545,
                "pitch": 47,
                "velocity": 64,
                "duration": 0.3840909,
                "tempo": 120.0
            },
            {
                "start_time": 38.9113636,
                "end_time": 39.2954545,
                "pitch": 49,
                "velocity": 64,
                "duration": 0.3840909,
                "tempo": 120.0
            },
            {
                "start_time": 39.3113636,
                "end_time": 39.6954545,
                "pitch": 51,
                "velocity": 64,
                "duration": 0.3840909,
                "tempo": 120.0
            },
            {
                "start_time": 39.7113636,
                "end_time": 40.0977273,
                "pitch": 52,
                "velocity": 64,
                "duration": 0.3863636,
                "tempo": 120.0
            },
            {
                "start_time": 40.1136364,
                "end_time": 40.4977273,
                "pitch": 47,
                "velocity": 64,
                "duration": 0.3840909,
                "tempo": 120.0
            },
            {
                "start_time": 40.5159091,
                "end_time": 40.8977273,
                "pitch": 49,
                "velocity": 64,
                "duration": 0.3818182,
                "tempo": 120.0
            },
            {
                "start_time": 40.9159091,
                "end_time": 41.2977273,
                "pitch": 51,
                "velocity": 64,
                "duration": 0.3818182,
                "tempo": 120.0
            },
            {
                "start_time": 41.3159091,
                "end_time": 41.6977273,
                "pitch": 52,
                "velocity": 64,
                "duration": 0.3818182,
                "tempo": 120.0
            },
            {
                "start_time": 41.7159091,
                "end_time": 42.5,
                "pitch": 47,
                "velocity": 64,
                "duration": 0.7840909,
                "tempo": 120.0
            },
            {
                "start_time": 42.5181818,
                "end_time": 43.2931818,
                "pitch": 49,
                "velocity": 64,
                "duration": 0.775,
                "tempo": 120.0
            },
            {
                "start_time": 43.3090909,
                "end_time": 44.0931818,
                "pitch": 50,
                "velocity": 64,
                "duration": 0.7840909,
                "tempo": 120.0
            },
            {
                "start_time": 44.1090909,
                "end_time": 44.8954545,
                "pitch": 52,
                "velocity": 64,
                "duration": 0.7863636,
                "tempo": 120.0
            },
            {
                "start_time": 44.9113636,
                "end_time": 45.2954545,
                "pitch": 47,
                "velocity": 64,
                "duration": 0.3840909,
                "tempo": 120.0
            },
            {
                "start_time": 45.3113636,
                "end_time": 45.7068182,
                "pitch": 49,
                "velocity": 64,
                "duration": 0.3954545,
                "tempo": 120.0
            },
            {
                "start_time": 45.7227273,
                "end_time": 46.0977273,
                "pitch": 50,
                "velocity": 64,
                "duration": 0.375,
                "tempo": 120.0
            },
            {
                "start_time": 46.1159091,
                "end_time": 46.4977273,
                "pitch": 52,
                "velocity": 64,
                "duration": 0.3818182,
                "tempo": 120.0
            },
            {
                "start_time": 46.5159091,
                "end_time": 46.9,
                "pitch": 54,
                "velocity": 64,
                "duration": 0.3840909,
                "tempo": 120.0
            },
            {
                "start_time": 46.9181818,
                "end_time": 47.3022727,
                "pitch": 56,
                "velocity": 64,
                "duration": 0.3840909,
                "tempo": 120.0
            },
            {
                "start_time": 47.3181818,
                "end_time": 47.7113636,
                "pitch": 57,
                "velocity": 64,
                "duration": 0.3931818,
                "tempo": 120.0
            },
            {
                "start_time": 47.7295455,
                "end_time": 48.1045455,
                "pitch": 59,
                "velocity": 64,
                "duration": 0.375,
                "tempo": 120.0
            }
        ],
        "Electric Guitar (clean)": [
            {
                "start_time": 0.0,
                "end_time": 0.3659091,
                "pitch": 33,
                "velocity": 51,
                "duration": 0.3659091,
                "tempo": 120.0
            },
            {
                "start_time": 0.3840909,
                "end_time": 0.7659091,
                "pitch": 45,
                "velocity": 51,
                "duration": 0.3818182,
                "tempo": 120.0
            },
            {
                "start_time": 0.7840909,
                "end_time": 0.9704545,
                "pitch": 33,
                "velocity": 51,
                "duration": 0.1863636,
                "tempo": 120.0
            },
            {
                "start_time": 0.9886364,
                "end_time": 1.1772727,
                "pitch": 45,
                "velocity": 51,
                "duration": 0.1886364,
                "tempo": 120.0
            },
            {
                "start_time": 1.1931818,
                "end_time": 1.3772727,
                "pitch": 33,
                "velocity": 51,
                "duration": 0.1840909,
                "tempo": 120.0
            },
            {
                "start_time": 1.3931818,
                "end_time": 1.5772727,
                "pitch": 45,
                "velocity": 51,
                "duration": 0.1840909,
                "tempo": 120.0
            },
            {
                "start_time": 1.5931818,
                "end_time": 1.9704545,
                "pitch": 31,
                "velocity": 51,
                "duration": 0.3772727,
                "tempo": 120.0
            },
            {
                "start_time": 1.9863636,
                "end_time": 2.1704545,
                "pitch": 43,
                "velocity": 51,
                "duration": 0.1840909,
                "tempo": 120.0
            },
            {
                "start_time": 2.1863636,
                "end_time": 2.575,
                "pitch": 45,
                "velocity": 51,
                "duration": 0.3886364,
                "tempo": 120.0
            },
            {
                "start_time": 2.5909091,
                "end_time": 2.7795455,
                "pitch": 47,
                "velocity": 51,
                "duration": 0.1886364,
                "tempo": 120.0
            },
            {
                "start_time": 2.7977273,
                "end_time": 3.1727273,
                "pitch": 43,
                "velocity": 51,
                "duration": 0.375,
                "tempo": 120.0
            },
            {
                "start_time": 3.1886364,
                "end_time": 3.5818182,
                "pitch": 33,
                "velocity": 51,
                "duration": 0.3931818,
                "tempo": 120.0
            },
            {
                "start_time": 3.6,
                "end_time": 3.9840909,
                "pitch": 45,
                "velocity": 51,
                "duration": 0.3840909,
                "tempo": 120.0
            },
            {
                "start_time": 4.0,
                "end_time": 4.1795455,
                "pitch": 33,
                "velocity": 51,
                "duration": 0.1795455,
                "tempo": 120.0
            },
            {
                "start_time": 4.1954545,
                "end_time": 4.375,
                "pitch": 45,
                "velocity": 51,
                "duration": 0.1795455,
                "tempo": 120.0
            },
            {
                "start_time": 4.3931818,
                "end_time": 4.5795455,
                "pitch": 33,
                "velocity": 51,
                "duration": 0.1863636,
                "tempo": 120.0
            },
            {
                "start_time": 4.5977273,
                "end_time": 4.7863636,
                "pitch": 45,
                "velocity": 51,
                "duration": 0.1886364,
                "tempo": 120.0
            },
            {
                "start_time": 4.8022727,
                "end_time": 5.1886364,
                "pitch": 37,
                "velocity": 51,
                "duration": 0.3863636,
                "tempo": 120.0
            },
            {
                "start_time": 5.2045455,
                "end_time": 5.3909091,
                "pitch": 37,
                "velocity": 51,
                "duration": 0.1863636,
                "tempo": 120.0
            },
            {
                "start_time": 5.4068182,
                "end_time": 5.7818182,
                "pitch": 44,
                "velocity": 51,
                "duration": 0.375,
                "tempo": 120.0
            },
            {
                "start_time": 5.7977273,
                "end_time": 5.9727273,
                "pitch": 49,
                "velocity": 51,
                "duration": 0.175,
                "tempo": 120.0
            },
            {
                "start_time": 5.9909091,
                "end_time": 6.3727273,
                "pitch": 37,
                "velocity": 51,
                "duration": 0.3818182,
                "tempo": 120.0
            },
            {
                "start_time": 6.3909091,
                "end_time": 6.5795455,
                "pitch": 38,
                "velocity": 51,
                "duration": 0.1886364,
                "tempo": 120.0
            },
            {
                "start_time": 6.5954545,
                "end_time": 6.7840909,
                "pitch": 38,
                "velocity": 51,
                "duration": 0.1886364,
                "tempo": 120.0
            },
            {
                "start_time": 6.8022727,
                "end_time": 6.9863636,
                "pitch": 33,
                "velocity": 51,
                "duration": 0.1840909,
                "tempo": 120.0
            },
            {
                "start_time": 7.0022727,
                "end_time": 7.1863636,
                "pitch": 38,
                "velocity": 51,
                "duration": 0.1840909,
                "tempo": 120.0
            },
            {
                "start_time": 7.4,
                "end_time": 7.5795455,
                "pitch": 38,
                "velocity": 51,
                "duration": 0.1795455,
                "tempo": 120.0
            },
            {
                "start_time": 7.5954545,
                "end_time": 8.0,
                "pitch": 33,
                "velocity": 51,
                "duration": 0.4045455,
                "tempo": 120.0
            },
            {
                "start_time": 8.0181818,
                "end_time": 8.2022727,
                "pitch": 37,
                "velocity": 51,
                "duration": 0.1840909,
                "tempo": 120.0
            },
            {
                "start_time": 8.2204545,
                "end_time": 8.4045455,
                "pitch": 32,
                "velocity": 51,
                "duration": 0.1840909,
                "tempo": 120.0
            },
            {
                "start_time": 8.4204545,
                "end_time": 8.6045455,
                "pitch": 37,
                "velocity": 51,
                "duration": 0.1840909,
                "tempo": 120.0
            },
            {
                "start_time": 8.6227273,
                "end_time": 8.8068182,
                "pitch": 32,
                "velocity": 51,
                "duration": 0.1840909,
                "tempo": 120.0
            },
            {
                "start_time": 8.8227273,
                "end_time": 9.0068182,
                "pitch": 45,
                "velocity": 51,
                "duration": 0.1840909,
                "tempo": 120.0
            },
            {
                "start_time": 9.0227273,
                "end_time": 9.2068182,
                "pitch": 44,
                "velocity": 51,
                "duration": 0.1840909,
                "tempo": 120.0
            },
            {
                "start_time": 9.2227273,
                "end_time": 9.3977273,
                "pitch": 42,
                "velocity": 51,
                "duration": 0.175,
                "tempo": 120.0
            },
            {
                "start_time": 9.4136364,
                "end_time": 9.5886364,
                "pitch": 40,
                "velocity": 51,
                "duration": 0.175,
                "tempo": 120.0
            },
            {
                "start_time": 9.6045455,
                "end_time": 9.7931818,
                "pitch": 35,
                "velocity": 51,
                "duration": 0.1886364,
                "tempo": 120.0
            },
            {
                "start_time": 9.8113636,
                "end_time": 10.0,
                "pitch": 47,
                "velocity": 51,
                "duration": 0.1886364,
                "tempo": 120.0
            },
            {
                "start_time": 10.0159091,
                "end_time": 10.2045455,
                "pitch": 37,
                "velocity": 51,
                "duration": 0.1886364,
                "tempo": 120.0
            },
            {
                "start_time": 10.2227273,
                "end_time": 10.4113636,
                "pitch": 49,
                "velocity": 51,
                "duration": 0.1886364,
                "tempo": 120.0
            },
            {
                "start_time": 10.4272727,
                "end_time": 10.6068182,
                "pitch": 38,
                "velocity": 51,
                "duration": 0.1795455,
                "tempo": 120.0
            },
            {
                "start_time": 10.6227273,
                "end_time": 10.8022727,
                "pitch": 50,
                "velocity": 51,
                "duration": 0.1795455,
                "tempo": 120.0
            },
            {
                "start_time": 10.8204545,
                "end_time": 11.0022727,
                "pitch": 40,
                "velocity": 51,
                "duration": 0.1818182,
                "tempo": 120.0
            },
            {
                "start_time": 11.0204545,
                "end_time": 11.2022727,
                "pitch": 52,
                "velocity": 51,
                "duration": 0.1818182,
                "tempo": 120.0
            },
            {
                "start_time": 11.2181818,
                "end_time": 11.4,
                "pitch": 42,
                "velocity": 51,
                "duration": 0.1818182,
                "tempo": 120.0
            },
            {
                "start_time": 11.4159091,
                "end_time": 11.5954545,
                "pitch": 54,
                "velocity": 51,
                "duration": 0.1795455,
                "tempo": 120.0
            },
            {
                "start_time": 11.6113636,
                "end_time": 11.7954545,
                "pitch": 44,
                "velocity": 51,
                "duration": 0.1840909,
                "tempo": 120.0
            },
            {
                "start_time": 11.8136364,
                "end_time": 11.9977273,
                "pitch": 56,
                "velocity": 51,
                "duration": 0.1840909,
                "tempo": 120.0
            },
            {
                "start_time": 12.0136364,
                "end_time": 12.2022727,
                "pitch": 45,
                "velocity": 51,
                "duration": 0.1886364,
                "tempo": 120.0
            },
            {
                "start_time": 12.2204545,
                "end_time": 12.4090909,
                "pitch": 57,
                "velocity": 51,
                "duration": 0.1886364,
                "tempo": 120.0
            },
            {
                "start_time": 12.425,
                "end_time": 12.6090909,
                "pitch": 47,
                "velocity": 51,
                "duration": 0.1840909,
                "tempo": 120.0
            },
            {
                "start_time": 12.6272727,
                "end_time": 12.8113636,
                "pitch": 40,
                "velocity": 51,
                "duration": 0.1840909,
                "tempo": 120.0
            },
            {
                "start_time": 12.8272727,
                "end_time": 13.2227273,
                "pitch": 33,
                "velocity": 51,
                "duration": 0.3954545,
                "tempo": 120.0
            },
            {
                "start_time": 13.2386364,
                "end_time": 13.625,
                "pitch": 45,
                "velocity": 51,
                "duration": 0.3863636,
                "tempo": 120.0
            },
            {
                "start_time": 13.6409091,
                "end_time": 13.8272727,
                "pitch": 33,
                "velocity": 51,
                "duration": 0.1863636,
                "tempo": 120.0
            },
            {
                "start_time": 13.8431818,
                "end_time": 14.0272727,
                "pitch": 45,
                "velocity": 51,
                "duration": 0.1840909,
                "tempo": 120.0
            },
            {
                "start_time": 14.0454545,
                "end_time": 14.2295455,
                "pitch": 33,
                "velocity": 51,
                "duration": 0.1840909,
                "tempo": 120.0
            },
            {
                "start_time": 14.2454545,
                "end_time": 14.4295455,
                "pitch": 45,
                "velocity": 51,
                "duration": 0.1840909,
                "tempo": 120.0
            },
            {
                "start_time": 14.4454545,
                "end_time": 14.8136364,
                "pitch": 31,
                "velocity": 51,
                "duration": 0.3681818,
                "tempo": 120.0
            },
            {
                "start_time": 14.8295455,
                "end_time": 15.0181818,
                "pitch": 43,
                "velocity": 51,
                "duration": 0.1886364,
                "tempo": 120.0
            },
            {
                "start_time": 15.0340909,
                "end_time": 15.4181818,
                "pitch": 45,
                "velocity": 51,
                "duration": 0.3840909,
                "tempo": 120.0
            },
            {
                "start_time": 15.4340909,
                "end_time": 15.6159091,
                "pitch": 47,
                "velocity": 51,
                "duration": 0.1818182,
                "tempo": 120.0
            },
            {
                "start_time": 15.6318182,
                "end_time": 16.025,
                "pitch": 43,
                "velocity": 51,
                "duration": 0.3931818,
                "tempo": 120.0
            },
            {
                "start_time": 16.0431818,
                "end_time": 16.4363636,
                "pitch": 33,
                "velocity": 51,
                "duration": 0.3931818,
                "tempo": 120.0
            },
            {
                "start_time": 16.4522727,
                "end_time": 16.8386364,
                "pitch": 45,
                "velocity": 51,
                "duration": 0.3863636,
                "tempo": 120.0
            },
            {
                "start_time": 16.8568182,
                "end_time": 17.0363636,
                "pitch": 33,
                "velocity": 51,
                "duration": 0.1795455,
                "tempo": 120.0
            },
            {
                "start_time": 17.0522727,
                "end_time": 17.2318182,
                "pitch": 45,
                "velocity": 51,
                "duration": 0.1795455,
                "tempo": 120.0
            },
            {
                "start_time": 17.2477273,
                "end_time": 17.4363636,
                "pitch": 33,
                "velocity": 51,
                "duration": 0.1886364,
                "tempo": 120.0
            },
            {
                "start_time": 17.4522727,
                "end_time": 17.6409091,
                "pitch": 45,
                "velocity": 51,
                "duration": 0.1886364,
                "tempo": 120.0
            },
            {
                "start_time": 17.6590909,
                "end_time": 18.0431818,
                "pitch": 37,
                "velocity": 51,
                "duration": 0.3840909,
                "tempo": 120.0
            },
            {
                "start_time": 18.0590909,
                "end_time": 18.2431818,
                "pitch": 37,
                "velocity": 51,
                "duration": 0.1840909,
                "tempo": 120.0
            },
            {
                "start_time": 18.2590909,
                "end_time": 18.6340909,
                "pitch": 44,
                "velocity": 51,
                "duration": 0.375,
                "tempo": 120.0
            },
            {
                "start_time": 18.65,
                "end_time": 18.825,
                "pitch": 49,
                "velocity": 51,
                "duration": 0.175,
                "tempo": 120.0
            },
            {
                "start_time": 18.8409091,
                "end_time": 19.225,
                "pitch": 37,
                "velocity": 51,
                "duration": 0.3840909,
                "tempo": 120.0
            },
            {
                "start_time": 19.2409091,
                "end_time": 19.4340909,
                "pitch": 38,
                "velocity": 51,
                "duration": 0.1931818,
                "tempo": 120.0
            },
            {
                "start_time": 19.4522727,
                "end_time": 19.6454545,
                "pitch": 38,
                "velocity": 51,
                "duration": 0.1931818,
                "tempo": 120.0
            },
            {
                "start_time": 19.6636364,
                "end_time": 19.8431818,
                "pitch": 33,
                "velocity": 51,
                "duration": 0.1795455,
                "tempo": 120.0
            },
            {
                "start_time": 19.8590909,
                "end_time": 20.0386364,
                "pitch": 38,
                "velocity": 51,
                "duration": 0.1795455,
                "tempo": 120.0
            },
            {
                "start_time": 20.2522727,
                "end_time": 20.4318182,
                "pitch": 38,
                "velocity": 51,
                "duration": 0.1795455,
                "tempo": 120.0
            },
            {
                "start_time": 20.4477273,
                "end_time": 20.8522727,
                "pitch": 33,
                "velocity": 51,
                "duration": 0.4045455,
                "tempo": 120.0
            },
            {
                "start_time": 20.8704545,
                "end_time": 21.0522727,
                "pitch": 37,
                "velocity": 51,
                "duration": 0.1818182,
                "tempo": 120.0
            },
            {
                "start_time": 21.0704545,
                "end_time": 21.2522727,
                "pitch": 32,
                "velocity": 51,
                "duration": 0.1818182,
                "tempo": 120.0
            },
            {
                "start_time": 21.2704545,
                "end_time": 21.4545455,
                "pitch": 37,
                "velocity": 51,
                "duration": 0.1840909,
                "tempo": 120.0
            },
            {
                "start_time": 21.4704545,
                "end_time": 21.6545455,
                "pitch": 32,
                "velocity": 51,
                "duration": 0.1840909,
                "tempo": 120.0
            },
            {
                "start_time": 21.6727273,
                "end_time": 21.8568182,
                "pitch": 45,
                "velocity": 51,
                "duration": 0.1840909,
                "tempo": 120.0
            },
            {
                "start_time": 21.8727273,
                "end_time": 22.0568182,
                "pitch": 44,
                "velocity": 51,
                "duration": 0.1840909,
                "tempo": 120.0
            },
            {
                "start_time": 22.0727273,
                "end_time": 22.2522727,
                "pitch": 42,
                "velocity": 51,
                "duration": 0.1795455,
                "tempo": 120.0
            },
            {
                "start_time": 22.2681818,
                "end_time": 22.4477273,
                "pitch": 40,
                "velocity": 51,
                "duration": 0.1795455,
                "tempo": 120.0
            },
            {
                "start_time": 22.4636364,
                "end_time": 22.6477273,
                "pitch": 35,
                "velocity": 51,
                "duration": 0.1840909,
                "tempo": 120.0
            },
            {
                "start_time": 22.6636364,
                "end_time": 22.8477273,
                "pitch": 47,
                "velocity": 51,
                "duration": 0.1840909,
                "tempo": 120.0
            },
            {
                "start_time": 22.8636364,
                "end_time": 23.0522727,
                "pitch": 37,
                "velocity": 51,
                "duration": 0.1886364,
                "tempo": 120.0
            },
            {
                "start_time": 23.0704545,
                "end_time": 23.2590909,
                "pitch": 49,
                "velocity": 51,
                "duration": 0.1886364,
                "tempo": 120.0
            },
            {
                "start_time": 23.275,
                "end_time": 23.4545455,
                "pitch": 38,
                "velocity": 51,
                "duration": 0.1795455,
                "tempo": 120.0
            },
            {
                "start_time": 23.4704545,
                "end_time": 23.65,
                "pitch": 50,
                "velocity": 51,
                "duration": 0.1795455,
                "tempo": 120.0
            },
            {
                "start_time": 23.6681818,
                "end_time": 23.8477273,
                "pitch": 40,
                "velocity": 51,
                "duration": 0.1795455,
                "tempo": 120.0
            },
            {
                "start_time": 23.8636364,
                "end_time": 24.0431818,
                "pitch": 52,
                "velocity": 51,
                "duration": 0.1795455,
                "tempo": 120.0
            },
            {
                "start_time": 24.0590909,
                "end_time": 24.2477273,
                "pitch": 42,
                "velocity": 51,
                "duration": 0.1886364,
                "tempo": 120.0
            },
            {
                "start_time": 24.2659091,
                "end_time": 24.4545455,
                "pitch": 54,
                "velocity": 51,
                "duration": 0.1886364,
                "tempo": 120.0
            },
            {
                "start_time": 24.4704545,
                "end_time": 24.65,
                "pitch": 44,
                "velocity": 51,
                "duration": 0.1795455,
                "tempo": 120.0
            },
            {
                "start_time": 24.6659091,
                "end_time": 24.8454545,
                "pitch": 56,
                "velocity": 51,
                "duration": 0.1795455,
                "tempo": 120.0
            },
            {
                "start_time": 24.8613636,
                "end_time": 25.05,
                "pitch": 45,
                "velocity": 51,
                "duration": 0.1886364,
                "tempo": 120.0
            },
            {
                "start_time": 25.0681818,
                "end_time": 25.2568182,
                "pitch": 57,
                "velocity": 51,
                "duration": 0.1886364,
                "tempo": 120.0
            },
            {
                "start_time": 25.2727273,
                "end_time": 25.4568182,
                "pitch": 47,
                "velocity": 51,
                "duration": 0.1840909,
                "tempo": 120.0
            },
            {
                "start_time": 25.4727273,
                "end_time": 25.6568182,
                "pitch": 40,
                "velocity": 51,
                "duration": 0.1840909,
                "tempo": 120.0
            },
            {
                "start_time": 25.6727273,
                "end_time": 25.8568182,
                "pitch": 38,
                "velocity": 51,
                "duration": 0.1840909,
                "tempo": 120.0
            },
            {
                "start_time": 25.8727273,
                "end_time": 26.0568182,
                "pitch": 38,
                "velocity": 51,
                "duration": 0.1840909,
                "tempo": 120.0
            },
            {
                "start_time": 26.0727273,
                "end_time": 26.2613636,
                "pitch": 38,
                "velocity": 51,
                "duration": 0.1886364,
                "tempo": 120.0
            },
            {
                "start_time": 26.2795455,
                "end_time": 26.4659091,
                "pitch": 38,
                "velocity": 51,
                "duration": 0.1863636,
                "tempo": 120.0
            },
            {
                "start_time": 26.4840909,
                "end_time": 26.6681818,
                "pitch": 38,
                "velocity": 51,
                "duration": 0.1840909,
                "tempo": 120.0
            },
            {
                "start_time": 26.6863636,
                "end_time": 26.8704545,
                "pitch": 45,
                "velocity": 51,
                "duration": 0.1840909,
                "tempo": 120.0
            },
            {
                "start_time": 26.8863636,
                "end_time": 27.0704545,
                "pitch": 38,
                "velocity": 51,
                "duration": 0.1840909,
                "tempo": 120.0
            },
            {
                "start_time": 27.0863636,
                "end_time": 27.2704545,
                "pitch": 45,
                "velocity": 51,
                "duration": 0.1840909,
                "tempo": 120.0
            },
            {
                "start_time": 27.2863636,
                "end_time": 27.4659091,
                "pitch": 37,
                "velocity": 51,
                "duration": 0.1795455,
                "tempo": 120.0
            },
            {
                "start_time": 27.4818182,
                "end_time": 27.6636364,
                "pitch": 37,
                "velocity": 51,
                "duration": 0.1818182,
                "tempo": 120.0
            },
            {
                "start_time": 27.6795455,
                "end_time": 27.8659091,
                "pitch": 37,
                "velocity": 51,
                "duration": 0.1863636,
                "tempo": 120.0
            },
            {
                "start_time": 27.8840909,
                "end_time": 28.0727273,
                "pitch": 37,
                "velocity": 51,
                "duration": 0.1886364,
                "tempo": 120.0
            },
            {
                "start_time": 28.0886364,
                "end_time": 28.2727273,
                "pitch": 37,
                "velocity": 51,
                "duration": 0.1840909,
                "tempo": 120.0
            },
            {
                "start_time": 28.2909091,
                "end_time": 28.4727273,
                "pitch": 44,
                "velocity": 51,
                "duration": 0.1818182,
                "tempo": 120.0
            },
            {
                "start_time": 28.4909091,
                "end_time": 28.675,
                "pitch": 37,
                "velocity": 51,
                "duration": 0.1840909,
                "tempo": 120.0
            },
            {
                "start_time": 28.6909091,
                "end_time": 28.875,
                "pitch": 44,
                "velocity": 51,
                "duration": 0.1840909,
                "tempo": 120.0
            },
            {
                "start_time": 28.8931818,
                "end_time": 29.075,
                "pitch": 35,
                "velocity": 51,
                "duration": 0.1818182,
                "tempo": 120.0
            },
            {
                "start_time": 29.0931818,
                "end_time": 29.275,
                "pitch": 35,
                "velocity": 51,
                "duration": 0.1818182,
                "tempo": 120.0
            },
            {
                "start_time": 29.2931818,
                "end_time": 29.4772727,
                "pitch": 35,
                "velocity": 51,
                "duration": 0.1840909,
                "tempo": 120.0
            },
            {
                "start_time": 29.4931818,
                "end_time": 29.6772727,
                "pitch": 35,
                "velocity": 51,
                "duration": 0.1840909,
                "tempo": 120.0
            },
            {
                "start_time": 29.6954545,
                "end_time": 29.8795455,
                "pitch": 35,
                "velocity": 51,
                "duration": 0.1840909,
                "tempo": 120.0
            },
            {
                "start_time": 29.8954545,
                "end_time": 30.0795455,
                "pitch": 42,
                "velocity": 51,
                "duration": 0.1840909,
                "tempo": 120.0
            },
            {
                "start_time": 30.0954545,
                "end_time": 30.275,
                "pitch": 35,
                "velocity": 51,
                "duration": 0.1795455,
                "tempo": 120.0
            },
            {
                "start_time": 30.2909091,
                "end_time": 30.4704545,
                "pitch": 42,
                "velocity": 51,
                "duration": 0.1795455,
                "tempo": 120.0
            },
            {
                "start_time": 30.4863636,
                "end_time": 30.6704545,
                "pitch": 33,
                "velocity": 51,
                "duration": 0.1840909,
                "tempo": 120.0
            },
            {
                "start_time": 30.6863636,
                "end_time": 30.8704545,
                "pitch": 33,
                "velocity": 51,
                "duration": 0.1840909,
                "tempo": 120.0
            },
            {
                "start_time": 30.8863636,
                "end_time": 31.075,
                "pitch": 33,
                "velocity": 51,
                "duration": 0.1886364,
                "tempo": 120.0
            },
            {
                "start_time": 31.0931818,
                "end_time": 31.2818182,
                "pitch": 33,
                "velocity": 51,
                "duration": 0.1886364,
                "tempo": 120.0
            },
            {
                "start_time": 31.2977273,
                "end_time": 31.3795455,
                "pitch": 33,
                "velocity": 51,
                "duration": 0.0818182,
                "tempo": 120.0
            },
            {
                "start_time": 31.3954545,
                "end_time": 31.4772727,
                "pitch": 40,
                "velocity": 51,
                "duration": 0.0818182,
                "tempo": 120.0
            },
            {
                "start_time": 31.4931818,
                "end_time": 31.575,
                "pitch": 33,
                "velocity": 51,
                "duration": 0.0818182,
                "tempo": 120.0
            },
            {
                "start_time": 31.5931818,
                "end_time": 31.6727273,
                "pitch": 40,
                "velocity": 51,
                "duration": 0.0795455,
                "tempo": 120.0
            },
            {
                "start_time": 31.6909091,
                "end_time": 31.7727273,
                "pitch": 38,
                "velocity": 51,
                "duration": 0.0818182,
                "tempo": 120.0
            },
            {
                "start_time": 31.7909091,
                "end_time": 31.8727273,
                "pitch": 37,
                "velocity": 51,
                "duration": 0.0818182,
                "tempo": 120.0
            },
            {
                "start_time": 31.8909091,
                "end_time": 31.9727273,
                "pitch": 35,
                "velocity": 51,
                "duration": 0.0818182,
                "tempo": 120.0
            },
            {
                "start_time": 31.9909091,
                "end_time": 32.0727273,
                "pitch": 33,
                "velocity": 51,
                "duration": 0.0818182,
                "tempo": 120.0
            },
            {
                "start_time": 32.0909091,
                "end_time": 32.2772727,
                "pitch": 31,
                "velocity": 51,
                "duration": 0.1863636,
                "tempo": 120.0
            },
            {
                "start_time": 32.2954545,
                "end_time": 32.4840909,
                "pitch": 31,
                "velocity": 51,
                "duration": 0.1886364,
                "tempo": 120.0
            },
            {
                "start_time": 32.5,
                "end_time": 32.6863636,
                "pitch": 31,
                "velocity": 51,
                "duration": 0.1863636,
                "tempo": 120.0
            },
            {
                "start_time": 32.7022727,
                "end_time": 32.8863636,
                "pitch": 31,
                "velocity": 51,
                "duration": 0.1840909,
                "tempo": 120.0
            },
            {
                "start_time": 32.9045455,
                "end_time": 33.0863636,
                "pitch": 31,
                "velocity": 51,
                "duration": 0.1818182,
                "tempo": 120.0
            },
            {
                "start_time": 33.1045455,
                "end_time": 33.2863636,
                "pitch": 31,
                "velocity": 51,
                "duration": 0.1818182,
                "tempo": 120.0
            },
            {
                "start_time": 33.3045455,
                "end_time": 33.4840909,
                "pitch": 31,
                "velocity": 51,
                "duration": 0.1795455,
                "tempo": 120.0
            },
            {
                "start_time": 33.5,
                "end_time": 33.6795455,
                "pitch": 31,
                "velocity": 51,
                "duration": 0.1795455,
                "tempo": 120.0
            },
            {
                "start_time": 33.6954545,
                "end_time": 33.8840909,
                "pitch": 33,
                "velocity": 51,
                "duration": 0.1886364,
                "tempo": 120.0
            },
            {
                "start_time": 33.9,
                "end_time": 34.0886364,
                "pitch": 33,
                "velocity": 51,
                "duration": 0.1886364,
                "tempo": 120.0
            },
            {
                "start_time": 34.1068182,
                "end_time": 34.2909091,
                "pitch": 33,
                "velocity": 51,
                "duration": 0.1840909,
                "tempo": 120.0
            },
            {
                "start_time": 34.3068182,
                "end_time": 34.4909091,
                "pitch": 33,
                "velocity": 51,
                "duration": 0.1840909,
                "tempo": 120.0
            },
            {
                "start_time": 34.5068182,
                "end_time": 34.6909091,
                "pitch": 33,
                "velocity": 51,
                "duration": 0.1840909,
                "tempo": 120.0
            },
            {
                "start_time": 34.7068182,
                "end_time": 34.8909091,
                "pitch": 33,
                "velocity": 51,
                "duration": 0.1840909,
                "tempo": 120.0
            },
            {
                "start_time": 34.9068182,
                "end_time": 35.0909091,
                "pitch": 33,
                "velocity": 51,
                "duration": 0.1840909,
                "tempo": 120.0
            },
            {
                "start_time": 35.1068182,
                "end_time": 35.2909091,
                "pitch": 33,
                "velocity": 51,
                "duration": 0.1840909,
                "tempo": 120.0
            },
            {
                "start_time": 35.3068182,
                "end_time": 35.4909091,
                "pitch": 35,
                "velocity": 51,
                "duration": 0.1840909,
                "tempo": 120.0
            },
            {
                "start_time": 35.5068182,
                "end_time": 35.6909091,
                "pitch": 47,
                "velocity": 51,
                "duration": 0.1840909,
                "tempo": 120.0
            },
            {
                "start_time": 35.7068182,
                "end_time": 35.8909091,
                "pitch": 35,
                "velocity": 51,
                "duration": 0.1840909,
                "tempo": 120.0
            },
            {
                "start_time": 35.9090909,
                "end_time": 36.0931818,
                "pitch": 47,
                "velocity": 51,
                "duration": 0.1840909,
                "tempo": 120.0
            },
            {
                "start_time": 36.1090909,
                "end_time": 36.2931818,
                "pitch": 35,
                "velocity": 51,
                "duration": 0.1840909,
                "tempo": 120.0
            },
            {
                "start_time": 36.3090909,
                "end_time": 36.4931818,
                "pitch": 47,
                "velocity": 51,
                "duration": 0.1840909,
                "tempo": 120.0
            },
            {
                "start_time": 36.5090909,
                "end_time": 36.6931818,
                "pitch": 35,
                "velocity": 51,
                "duration": 0.1840909,
                "tempo": 120.0
            },
            {
                "start_time": 36.7090909,
                "end_time": 36.8931818,
                "pitch": 47,
                "velocity": 51,
                "duration": 0.1840909,
                "tempo": 120.0
            },
            {
                "start_time": 36.9090909,
                "end_time": 37.0931818,
                "pitch": 35,
                "velocity": 51,
                "duration": 0.1840909,
                "tempo": 120.0
            },
            {
                "start_time": 37.1090909,
                "end_time": 37.2931818,
                "pitch": 47,
                "velocity": 51,
                "duration": 0.1840909,
                "tempo": 120.0
            },
            {
                "start_time": 37.3090909,
                "end_time": 37.4931818,
                "pitch": 35,
                "velocity": 51,
                "duration": 0.1840909,
                "tempo": 120.0
            },
            {
                "start_time": 37.5090909,
                "end_time": 37.6931818,
                "pitch": 47,
                "velocity": 51,
                "duration": 0.1840909,
                "tempo": 120.0
            },
            {
                "start_time": 37.7090909,
                "end_time": 37.8931818,
                "pitch": 35,
                "velocity": 51,
                "duration": 0.1840909,
                "tempo": 120.0
            },
            {
                "start_time": 37.9113636,
                "end_time": 38.0954545,
                "pitch": 47,
                "velocity": 51,
                "duration": 0.1840909,
                "tempo": 120.0
            },
            {
                "start_time": 38.1113636,
                "end_time": 38.2954545,
                "pitch": 35,
                "velocity": 51,
                "duration": 0.1840909,
                "tempo": 120.0
            },
            {
                "start_time": 38.3113636,
                "end_time": 38.4954545,
                "pitch": 47,
                "velocity": 51,
                "duration": 0.1840909,
                "tempo": 120.0
            },
            {
                "start_time": 38.5113636,
                "end_time": 38.6954545,
                "pitch": 35,
                "velocity": 51,
                "duration": 0.1840909,
                "tempo": 120.0
            },
            {
                "start_time": 38.7113636,
                "end_time": 38.8954545,
                "pitch": 47,
                "velocity": 51,
                "duration": 0.1840909,
                "tempo": 120.0
            },
            {
                "start_time": 38.9113636,
                "end_time": 39.0954545,
                "pitch": 35,
                "velocity": 51,
                "duration": 0.1840909,
                "tempo": 120.0
            },
            {
                "start_time": 39.1113636,
                "end_time": 39.2954545,
                "pitch": 47,
                "velocity": 51,
                "duration": 0.1840909,
                "tempo": 120.0
            },
            {
                "start_time": 39.3113636,
                "end_time": 39.4954545,
                "pitch": 35,
                "velocity": 51,
                "duration": 0.1840909,
                "tempo": 120.0
            },
            {
                "start_time": 39.5113636,
                "end_time": 39.6954545,
                "pitch": 47,
                "velocity": 51,
                "duration": 0.1840909,
                "tempo": 120.0
            },
            {
                "start_time": 39.7113636,
                "end_time": 39.8977273,
                "pitch": 35,
                "velocity": 51,
                "duration": 0.1863636,
                "tempo": 120.0
            },
            {
                "start_time": 39.9136364,
                "end_time": 40.0977273,
                "pitch": 47,
                "velocity": 51,
                "duration": 0.1840909,
                "tempo": 120.0
            },
            {
                "start_time": 40.1136364,
                "end_time": 40.2977273,
                "pitch": 35,
                "velocity": 51,
                "duration": 0.1840909,
                "tempo": 120.0
            },
            {
                "start_time": 40.3159091,
                "end_time": 40.4977273,
                "pitch": 47,
                "velocity": 51,
                "duration": 0.1818182,
                "tempo": 120.0
            },
            {
                "start_time": 40.5159091,
                "end_time": 40.6977273,
                "pitch": 35,
                "velocity": 51,
                "duration": 0.1818182,
                "tempo": 120.0
            },
            {
                "start_time": 40.7159091,
                "end_time": 40.8977273,
                "pitch": 47,
                "velocity": 51,
                "duration": 0.1818182,
                "tempo": 120.0
            },
            {
                "start_time": 40.9159091,
                "end_time": 41.0977273,
                "pitch": 35,
                "velocity": 51,
                "duration": 0.1818182,
                "tempo": 120.0
            },
            {
                "start_time": 41.1159091,
                "end_time": 41.2977273,
                "pitch": 47,
                "velocity": 51,
                "duration": 0.1818182,
                "tempo": 120.0
            },
            {
                "start_time": 41.3159091,
                "end_time": 41.4977273,
                "pitch": 35,
                "velocity": 51,
                "duration": 0.1818182,
                "tempo": 120.0
            },
            {
                "start_time": 41.5159091,
                "end_time": 41.6977273,
                "pitch": 47,
                "velocity": 51,
                "duration": 0.1818182,
                "tempo": 120.0
            },
            {
                "start_time": 41.7159091,
                "end_time": 41.9,
                "pitch": 40,
                "velocity": 51,
                "duration": 0.1840909,
                "tempo": 120.0
            },
            {
                "start_time": 41.9159091,
                "end_time": 42.1,
                "pitch": 52,
                "velocity": 51,
                "duration": 0.1840909,
                "tempo": 120.0
            },
            {
                "start_time": 42.1181818,
                "end_time": 42.3,
                "pitch": 40,
                "velocity": 51,
                "duration": 0.1818182,
                "tempo": 120.0
            },
            {
                "start_time": 42.3181818,
                "end_time": 42.5,
                "pitch": 52,
                "velocity": 51,
                "duration": 0.1818182,
                "tempo": 120.0
            },
            {
                "start_time": 42.5181818,
                "end_time": 42.7,
                "pitch": 40,
                "velocity": 51,
                "duration": 0.1818182,
                "tempo": 120.0
            },
            {
                "start_time": 42.7181818,
                "end_time": 42.9,
                "pitch": 52,
                "velocity": 51,
                "duration": 0.1818182,
                "tempo": 120.0
            },
            {
                "start_time": 42.9181818,
                "end_time": 43.0977273,
                "pitch": 40,
                "velocity": 51,
                "duration": 0.1795455,
                "tempo": 120.0
            },
            {
                "start_time": 43.1136364,
                "end_time": 43.2931818,
                "pitch": 52,
                "velocity": 51,
                "duration": 0.1795455,
                "tempo": 120.0
            },
            {
                "start_time": 43.3090909,
                "end_time": 43.4931818,
                "pitch": 40,
                "velocity": 51,
                "duration": 0.1840909,
                "tempo": 120.0
            },
            {
                "start_time": 43.5090909,
                "end_time": 43.6931818,
                "pitch": 52,
                "velocity": 51,
                "duration": 0.1840909,
                "tempo": 120.0
            },
            {
                "start_time": 43.7090909,
                "end_time": 43.8931818,
                "pitch": 40,
                "velocity": 51,
                "duration": 0.1840909,
                "tempo": 120.0
            },
            {
                "start_time": 43.9090909,
                "end_time": 44.0931818,
                "pitch": 52,
                "velocity": 51,
                "duration": 0.1840909,
                "tempo": 120.0
            },
            {
                "start_time": 44.1090909,
                "end_time": 44.2931818,
                "pitch": 40,
                "velocity": 51,
                "duration": 0.1840909,
                "tempo": 120.0
            },
            {
                "start_time": 44.3090909,
                "end_time": 44.4931818,
                "pitch": 52,
                "velocity": 51,
                "duration": 0.1840909,
                "tempo": 120.0
            },
            {
                "start_time": 44.5090909,
                "end_time": 44.6931818,
                "pitch": 40,
                "velocity": 51,
                "duration": 0.1840909,
                "tempo": 120.0
            },
            {
                "start_time": 44.7113636,
                "end_time": 44.8954545,
                "pitch": 52,
                "velocity": 51,
                "duration": 0.1840909,
                "tempo": 120.0
            },
            {
                "start_time": 44.9113636,
                "end_time": 45.0954545,
                "pitch": 40,
                "velocity": 51,
                "duration": 0.1840909,
                "tempo": 120.0
            },
            {
                "start_time": 45.1113636,
                "end_time": 45.2954545,
                "pitch": 52,
                "velocity": 51,
                "duration": 0.1840909,
                "tempo": 120.0
            },
            {
                "start_time": 45.3113636,
                "end_time": 45.5,
                "pitch": 40,
                "velocity": 51,
                "duration": 0.1886364,
                "tempo": 120.0
            },
            {
                "start_time": 45.5181818,
                "end_time": 45.7068182,
                "pitch": 52,
                "velocity": 51,
                "duration": 0.1886364,
                "tempo": 120.0
            },
            {
                "start_time": 45.7227273,
                "end_time": 45.9022727,
                "pitch": 40,
                "velocity": 51,
                "duration": 0.1795455,
                "tempo": 120.0
            },
            {
                "start_time": 45.9181818,
                "end_time": 46.0977273,
                "pitch": 52,
                "velocity": 51,
                "duration": 0.1795455,
                "tempo": 120.0
            },
            {
                "start_time": 46.1159091,
                "end_time": 46.2977273,
                "pitch": 40,
                "velocity": 51,
                "duration": 0.1818182,
                "tempo": 120.0
            },
            {
                "start_time": 46.3159091,
                "end_time": 46.4977273,
                "pitch": 52,
                "velocity": 51,
                "duration": 0.1818182,
                "tempo": 120.0
            },
            {
                "start_time": 46.5159091,
                "end_time": 46.7,
                "pitch": 40,
                "velocity": 51,
                "duration": 0.1840909,
                "tempo": 120.0
            },
            {
                "start_time": 46.7159091,
                "end_time": 46.9,
                "pitch": 52,
                "velocity": 51,
                "duration": 0.1840909,
                "tempo": 120.0
            },
            {
                "start_time": 46.9181818,
                "end_time": 47.1022727,
                "pitch": 40,
                "velocity": 51,
                "duration": 0.1840909,
                "tempo": 120.0
            },
            {
                "start_time": 47.1181818,
                "end_time": 47.3022727,
                "pitch": 52,
                "velocity": 51,
                "duration": 0.1840909,
                "tempo": 120.0
            },
            {
                "start_time": 47.3181818,
                "end_time": 47.5068182,
                "pitch": 40,
                "velocity": 51,
                "duration": 0.1886364,
                "tempo": 120.0
            },
            {
                "start_time": 47.5227273,
                "end_time": 47.7113636,
                "pitch": 52,
                "velocity": 51,
                "duration": 0.1886364,
                "tempo": 120.0
            },
            {
                "start_time": 47.7295455,
                "end_time": 47.9090909,
                "pitch": 40,
                "velocity": 51,
                "duration": 0.1795455,
                "tempo": 120.0
            },
            {
                "start_time": 47.925,
                "end_time": 48.1045455,
                "pitch": 52,
                "velocity": 51,
                "duration": 0.1795455,
                "tempo": 120.0
            }
        ],
        "Church Organ": [
            {
                "start_time": 0.0,
                "end_time": 0.7659091,
                "pitch": 52,
                "velocity": 40,
                "duration": 0.7659091,
                "tempo": 120.0
            },
            {
                "start_time": 0.7840909,
                "end_time": 1.3772727,
                "pitch": 57,
                "velocity": 40,
                "duration": 0.5931818,
                "tempo": 120.0
            },
            {
                "start_time": 1.3931818,
                "end_time": 1.5772727,
                "pitch": 57,
                "velocity": 40,
                "duration": 0.1840909,
                "tempo": 120.0
            },
            {
                "start_time": 1.5931818,
                "end_time": 2.1704545,
                "pitch": 55,
                "velocity": 40,
                "duration": 0.5772727,
                "tempo": 120.0
            },
            {
                "start_time": 2.1863636,
                "end_time": 2.7795455,
                "pitch": 55,
                "velocity": 40,
                "duration": 0.5931818,
                "tempo": 120.0
            },
            {
                "start_time": 2.7977273,
                "end_time": 3.1727273,
                "pitch": 50,
                "velocity": 40,
                "duration": 0.375,
                "tempo": 120.0
            },
            {
                "start_time": 3.1886364,
                "end_time": 3.3772727,
                "pitch": 52,
                "velocity": 40,
                "duration": 0.1886364,
                "tempo": 120.0
            },
            {
                "start_time": 3.3954545,
                "end_time": 3.5818182,
                "pitch": 45,
                "velocity": 40,
                "duration": 0.1863636,
                "tempo": 120.0
            },
            {
                "start_time": 3.6,
                "end_time": 3.7840909,
                "pitch": 52,
                "velocity": 40,
                "duration": 0.1840909,
                "tempo": 120.0
            },
            {
                "start_time": 3.8,
                "end_time": 3.9840909,
                "pitch": 45,
                "velocity": 40,
                "duration": 0.1840909,
                "tempo": 120.0
            },
            {
                "start_time": 4.0,
                "end_time": 4.5795455,
                "pitch": 57,
                "velocity": 40,
                "duration": 0.5795455,
                "tempo": 120.0
            },
            {
                "start_time": 4.5977273,
                "end_time": 4.7863636,
                "pitch": 64,
                "velocity": 40,
                "duration": 0.1886364,
                "tempo": 120.0
            },
            {
                "start_time": 4.8022727,
                "end_time": 5.3909091,
                "pitch": 68,
                "velocity": 40,
                "duration": 0.5886364,
                "tempo": 120.0
            },
            {
                "start_time": 5.4068182,
                "end_time": 6.1727273,
                "pitch": 64,
                "velocity": 40,
                "duration": 0.7659091,
                "tempo": 120.0
            },
            {
                "start_time": 6.1909091,
                "end_time": 6.3727273,
                "pitch": 59,
                "velocity": 40,
                "duration": 0.1818182,
                "tempo": 120.0
            },
            {
                "start_time": 6.3909091,
                "end_time": 6.5795455,
                "pitch": 62,
                "velocity": 40,
                "duration": 0.1886364,
                "tempo": 120.0
            },
            {
                "start_time": 6.8022727,
                "end_time": 6.9863636,
                "pitch": 61,
                "velocity": 40,
                "duration": 0.1840909,
                "tempo": 120.0
            },
            {
                "start_time": 7.0022727,
                "end_time": 7.3840909,
                "pitch": 59,
                "velocity": 40,
                "duration": 0.3818182,
                "tempo": 120.0
            },
            {
                "start_time": 7.4,
                "end_time": 7.5795455,
                "pitch": 61,
                "velocity": 40,
                "duration": 0.1795455,
                "tempo": 120.0
            },
            {
                "start_time": 7.5954545,
                "end_time": 8.0,
                "pitch": 62,
                "velocity": 40,
                "duration": 0.4045455,
                "tempo": 120.0
            },
            {
                "start_time": 8.0181818,
                "end_time": 8.8068182,
                "pitch": 61,
                "velocity": 40,
                "duration": 0.7886364,
                "tempo": 120.0
            },
            {
                "start_time": 8.8227273,
                "end_time": 9.5886364,
                "pitch": 57,
                "velocity": 40,
                "duration": 0.7659091,
                "tempo": 120.0
            },
            {
                "start_time": 9.6045455,
                "end_time": 9.6909091,
                "pitch": 47,
                "velocity": 40,
                "duration": 0.0863636,
                "tempo": 120.0
            },
            {
                "start_time": 9.7090909,
                "end_time": 9.7931818,
                "pitch": 49,
                "velocity": 40,
                "duration": 0.0840909,
                "tempo": 120.0
            },
            {
                "start_time": 9.8113636,
                "end_time": 11.2022727,
                "pitch": 47,
                "velocity": 40,
                "duration": 1.3909091,
                "tempo": 120.0
            },
            {
                "start_time": 11.2181818,
                "end_time": 11.3,
                "pitch": 59,
                "velocity": 40,
                "duration": 0.0818182,
                "tempo": 120.0
            },
            {
                "start_time": 11.3181818,
                "end_time": 11.4,
                "pitch": 61,
                "velocity": 40,
                "duration": 0.0818182,
                "tempo": 120.0
            },
            {
                "start_time": 11.4159091,
                "end_time": 12.8113636,
                "pitch": 59,
                "velocity": 40,
                "duration": 1.3954545,
                "tempo": 120.0
            },
            {
                "start_time": 12.8272727,
                "end_time": 13.625,
                "pitch": 52,
                "velocity": 40,
                "duration": 0.7977273,
                "tempo": 120.0
            },
            {
                "start_time": 13.6409091,
                "end_time": 14.2295455,
                "pitch": 57,
                "velocity": 40,
                "duration": 0.5886364,
                "tempo": 120.0
            },
            {
                "start_time": 14.2454545,
                "end_time": 14.4295455,
                "pitch": 57,
                "velocity": 40,
                "duration": 0.1840909,
                "tempo": 120.0
            },
            {
                "start_time": 14.4454545,
                "end_time": 15.0181818,
                "pitch": 55,
                "velocity": 40,
                "duration": 0.5727273,
                "tempo": 120.0
            },
            {
                "start_time": 15.0340909,
                "end_time": 15.6159091,
                "pitch": 55,
                "velocity": 40,
                "duration": 0.5818182,
                "tempo": 120.0
            },
            {
                "start_time": 15.6318182,
                "end_time": 16.025,
                "pitch": 50,
                "velocity": 40,
                "duration": 0.3931818,
                "tempo": 120.0
            },
            {
                "start_time": 16.0431818,
                "end_time": 16.2318182,
                "pitch": 52,
                "velocity": 40,
                "duration": 0.1886364,
                "tempo": 120.0
            },
            {
                "start_time": 16.2477273,
                "end_time": 16.4363636,
                "pitch": 45,
                "velocity": 40,
                "duration": 0.1886364,
                "tempo": 120.0
            },
            {
                "start_time": 16.4522727,
                "end_time": 16.6386364,
                "pitch": 52,
                "velocity": 40,
                "duration": 0.1863636,
                "tempo": 120.0
            },
            {
                "start_time": 16.6545455,
                "end_time": 16.8386364,
                "pitch": 45,
                "velocity": 40,
                "duration": 0.1840909,
                "tempo": 120.0
            },
            {
                "start_time": 16.8568182,
                "end_time": 17.4363636,
                "pitch": 57,
                "velocity": 40,
                "duration": 0.5795455,
                "tempo": 120.0
            },
            {
                "start_time": 17.4522727,
                "end_time": 17.6409091,
                "pitch": 64,
                "velocity": 40,
                "duration": 0.1886364,
                "tempo": 120.0
            },
            {
                "start_time": 17.6590909,
                "end_time": 18.2431818,
                "pitch": 68,
                "velocity": 40,
                "duration": 0.5840909,
                "tempo": 120.0
            },
            {
                "start_time": 18.2590909,
                "end_time": 19.025,
                "pitch": 64,
                "velocity": 40,
                "duration": 0.7659091,
                "tempo": 120.0
            },
            {
                "start_time": 19.0409091,
                "end_time": 19.225,
                "pitch": 59,
                "velocity": 40,
                "duration": 0.1840909,
                "tempo": 120.0
            },
            {
                "start_time": 19.2409091,
                "end_time": 19.4340909,
                "pitch": 62,
                "velocity": 40,
                "duration": 0.1931818,
                "tempo": 120.0
            },
            {
                "start_time": 19.6636364,
                "end_time": 19.8431818,
                "pitch": 61,
                "velocity": 40,
                "duration": 0.1795455,
                "tempo": 120.0
            },
            {
                "start_time": 19.8590909,
                "end_time": 20.2340909,
                "pitch": 59,
                "velocity": 40,
                "duration": 0.375,
                "tempo": 120.0
            },
            {
                "start_time": 20.2522727,
                "end_time": 20.4318182,
                "pitch": 61,
                "velocity": 40,
                "duration": 0.1795455,
                "tempo": 120.0
            },
            {
                "start_time": 20.4477273,
                "end_time": 20.8522727,
                "pitch": 62,
                "velocity": 40,
                "duration": 0.4045455,
                "tempo": 120.0
            },
            {
                "start_time": 20.8704545,
                "end_time": 21.6545455,
                "pitch": 61,
                "velocity": 40,
                "duration": 0.7840909,
                "tempo": 120.0
            },
            {
                "start_time": 21.6727273,
                "end_time": 22.4477273,
                "pitch": 57,
                "velocity": 40,
                "duration": 0.775,
                "tempo": 120.0
            },
            {
                "start_time": 22.4636364,
                "end_time": 22.5477273,
                "pitch": 47,
                "velocity": 40,
                "duration": 0.0840909,
                "tempo": 120.0
            },
            {
                "start_time": 22.5636364,
                "end_time": 22.6477273,
                "pitch": 49,
                "velocity": 40,
                "duration": 0.0840909,
                "tempo": 120.0
            },
            {
                "start_time": 22.6636364,
                "end_time": 24.0431818,
                "pitch": 47,
                "velocity": 40,
                "duration": 1.3795455,
                "tempo": 120.0
            },
            {
                "start_time": 24.0590909,
                "end_time": 24.1454545,
                "pitch": 59,
                "velocity": 40,
                "duration": 0.0863636,
                "tempo": 120.0
            },
            {
                "start_time": 24.1613636,
                "end_time": 24.2477273,
                "pitch": 61,
                "velocity": 40,
                "duration": 0.0863636,
                "tempo": 120.0
            },
            {
                "start_time": 24.2659091,
                "end_time": 25.6568182,
                "pitch": 59,
                "velocity": 40,
                "duration": 1.3909091,
                "tempo": 120.0
            },
            {
                "start_time": 25.6727273,
                "end_time": 26.2613636,
                "pitch": 50,
                "velocity": 40,
                "duration": 0.5886364,
                "tempo": 120.0
            },
            {
                "start_time": 26.2795455,
                "end_time": 26.6681818,
                "pitch": 50,
                "velocity": 40,
                "duration": 0.3886364,
                "tempo": 120.0
            },
            {
                "start_time": 26.6863636,
                "end_time": 26.8704545,
                "pitch": 52,
                "velocity": 40,
                "duration": 0.1840909,
                "tempo": 120.0
            },
            {
                "start_time": 26.8863636,
                "end_time": 27.2704545,
                "pitch": 54,
                "velocity": 40,
                "duration": 0.3840909,
                "tempo": 120.0
            },
            {
                "start_time": 27.2863636,
                "end_time": 27.8659091,
                "pitch": 49,
                "velocity": 40,
                "duration": 0.5795455,
                "tempo": 120.0
            },
            {
                "start_time": 27.8840909,
                "end_time": 28.2727273,
                "pitch": 49,
                "velocity": 40,
                "duration": 0.3886364,
                "tempo": 120.0
            },
            {
                "start_time": 28.2909091,
                "end_time": 28.4727273,
                "pitch": 52,
                "velocity": 40,
                "duration": 0.1818182,
                "tempo": 120.0
            },
            {
                "start_time": 28.4909091,
                "end_time": 28.875,
                "pitch": 54,
                "velocity": 40,
                "duration": 0.3840909,
                "tempo": 120.0
            },
            {
                "start_time": 28.8931818,
                "end_time": 29.4772727,
                "pitch": 47,
                "velocity": 40,
                "duration": 0.5840909,
                "tempo": 120.0
            },
            {
                "start_time": 29.4931818,
                "end_time": 29.8795455,
                "pitch": 47,
                "velocity": 40,
                "duration": 0.3863636,
                "tempo": 120.0
            },
            {
                "start_time": 29.8954545,
                "end_time": 30.0795455,
                "pitch": 52,
                "velocity": 40,
                "duration": 0.1840909,
                "tempo": 120.0
            },
            {
                "start_time": 30.0954545,
                "end_time": 30.4704545,
                "pitch": 54,
                "velocity": 40,
                "duration": 0.375,
                "tempo": 120.0
            },
            {
                "start_time": 30.4863636,
                "end_time": 30.6704545,
                "pitch": 52,
                "velocity": 40,
                "duration": 0.1840909,
                "tempo": 120.0
            },
            {
                "start_time": 30.6863636,
                "end_time": 31.075,
                "pitch": 50,
                "velocity": 40,
                "duration": 0.3886364,
                "tempo": 120.0
            },
            {
                "start_time": 31.0931818,
                "end_time": 31.4772727,
                "pitch": 45,
                "velocity": 40,
                "duration": 0.3840909,
                "tempo": 120.0
            },
            {
                "start_time": 31.4931818,
                "end_time": 31.575,
                "pitch": 47,
                "velocity": 40,
                "duration": 0.0818182,
                "tempo": 120.0
            },
            {
                "start_time": 31.6909091,
                "end_time": 32.0727273,
                "pitch": 45,
                "velocity": 40,
                "duration": 0.3818182,
                "tempo": 120.0
            },
            {
                "start_time": 32.0909091,
                "end_time": 32.6863636,
                "pitch": 43,
                "velocity": 40,
                "duration": 0.5954545,
                "tempo": 120.0
            },
            {
                "start_time": 32.7022727,
                "end_time": 33.0863636,
                "pitch": 50,
                "velocity": 40,
                "duration": 0.3840909,
                "tempo": 120.0
            },
            {
                "start_time": 33.1045455,
                "end_time": 33.2863636,
                "pitch": 49,
                "velocity": 40,
                "duration": 0.1818182,
                "tempo": 120.0
            },
            {
                "start_time": 33.3045455,
                "end_time": 33.6795455,
                "pitch": 47,
                "velocity": 40,
                "duration": 0.375,
                "tempo": 120.0
            },
            {
                "start_time": 33.6954545,
                "end_time": 34.2909091,
                "pitch": 45,
                "velocity": 40,
                "duration": 0.5954545,
                "tempo": 120.0
            },
            {
                "start_time": 34.3068182,
                "end_time": 34.6909091,
                "pitch": 52,
                "velocity": 40,
                "duration": 0.3840909,
                "tempo": 120.0
            },
            {
                "start_time": 34.7068182,
                "end_time": 34.8909091,
                "pitch": 52,
                "velocity": 40,
                "duration": 0.1840909,
                "tempo": 120.0
            },
            {
                "start_time": 34.9068182,
                "end_time": 35.2909091,
                "pitch": 45,
                "velocity": 40,
                "duration": 0.3840909,
                "tempo": 120.0
            },
            {
                "start_time": 35.3068182,
                "end_time": 36.0931818,
                "pitch": 42,
                "velocity": 40,
                "duration": 0.7863636,
                "tempo": 120.0
            },
            {
                "start_time": 36.1090909,
                "end_time": 36.8931818,
                "pitch": 45,
                "velocity": 40,
                "duration": 0.7840909,
                "tempo": 120.0
            },
            {
                "start_time": 36.9090909,
                "end_time": 37.6931818,
                "pitch": 47,
                "velocity": 40,
                "duration": 0.7840909,
                "tempo": 120.0
            },
            {
                "start_time": 37.7090909,
                "end_time": 38.4954545,
                "pitch": 49,
                "velocity": 40,
                "duration": 0.7863636,
                "tempo": 120.0
            },
            {
                "start_time": 38.5113636,
                "end_time": 38.8954545,
                "pitch": 42,
                "velocity": 40,
                "duration": 0.3840909,
                "tempo": 120.0
            },
            {
                "start_time": 38.9113636,
                "end_time": 39.2954545,
                "pitch": 42,
                "velocity": 40,
                "duration": 0.3840909,
                "tempo": 120.0
            },
            {
                "start_time": 39.3113636,
                "end_time": 39.6954545,
                "pitch": 47,
                "velocity": 40,
                "duration": 0.3840909,
                "tempo": 120.0
            },
            {
                "start_time": 39.7113636,
                "end_time": 40.0977273,
                "pitch": 49,
                "velocity": 40,
                "duration": 0.3863636,
                "tempo": 120.0
            },
            {
                "start_time": 40.1136364,
                "end_time": 40.4977273,
                "pitch": 42,
                "velocity": 40,
                "duration": 0.3840909,
                "tempo": 120.0
            },
            {
                "start_time": 40.5159091,
                "end_time": 40.8977273,
                "pitch": 45,
                "velocity": 40,
                "duration": 0.3818182,
                "tempo": 120.0
            },
            {
                "start_time": 40.9159091,
                "end_time": 41.2977273,
                "pitch": 47,
                "velocity": 40,
                "duration": 0.3818182,
                "tempo": 120.0
            },
            {
                "start_time": 41.3159091,
                "end_time": 41.6977273,
                "pitch": 49,
                "velocity": 40,
                "duration": 0.3818182,
                "tempo": 120.0
            },
            {
                "start_time": 41.7159091,
                "end_time": 42.5,
                "pitch": 44,
                "velocity": 40,
                "duration": 0.7840909,
                "tempo": 120.0
            },
            {
                "start_time": 42.5181818,
                "end_time": 43.2931818,
                "pitch": 45,
                "velocity": 40,
                "duration": 0.775,
                "tempo": 120.0
            },
            {
                "start_time": 43.3090909,
                "end_time": 44.0931818,
                "pitch": 47,
                "velocity": 40,
                "duration": 0.7840909,
                "tempo": 120.0
            },
            {
                "start_time": 44.1090909,
                "end_time": 44.8954545,
                "pitch": 49,
                "velocity": 40,
                "duration": 0.7863636,
                "tempo": 120.0
            },
            {
                "start_time": 44.9113636,
                "end_time": 45.2954545,
                "pitch": 44,
                "velocity": 40,
                "duration": 0.3840909,
                "tempo": 120.0
            },
            {
                "start_time": 45.3113636,
                "end_time": 45.7068182,
                "pitch": 45,
                "velocity": 40,
                "duration": 0.3954545,
                "tempo": 120.0
            },
            {
                "start_time": 45.7227273,
                "end_time": 46.0977273,
                "pitch": 47,
                "velocity": 40,
                "duration": 0.375,
                "tempo": 120.0
            },
            {
                "start_time": 46.1159091,
                "end_time": 46.4977273,
                "pitch": 49,
                "velocity": 40,
                "duration": 0.3818182,
                "tempo": 120.0
            },
            {
                "start_time": 46.5159091,
                "end_time": 46.9,
                "pitch": 50,
                "velocity": 40,
                "duration": 0.3840909,
                "tempo": 120.0
            },
            {
                "start_time": 46.9181818,
                "end_time": 47.3022727,
                "pitch": 52,
                "velocity": 40,
                "duration": 0.3840909,
                "tempo": 120.0
            },
            {
                "start_time": 47.3181818,
                "end_time": 47.7113636,
                "pitch": 54,
                "velocity": 40,
                "duration": 0.3931818,
                "tempo": 120.0
            },
            {
                "start_time": 47.7295455,
                "end_time": 48.1045455,
                "pitch": 56,
                "velocity": 40,
                "duration": 0.375,
                "tempo": 120.0
            }
        ]
    }
}