{
    "mood": "happy",
    "instruments": {
        "Acoustic Bass": [
            {
                "start_time": 0.0,
                "end_time": 0.15,
                "pitch": 31,
                "velocity": 80,
                "duration": 0.15,
                "tempo": 120.0
            },
            {
                "start_time": 0.2,
                "end_time": 0.3340909,
                "pitch": 43,
                "velocity": 80,
                "duration": 0.1340909,
                "tempo": 120.0
            },
            {
                "start_time": 0.3840909,
                "end_time": 0.5363636,
                "pitch": 31,
                "velocity": 80,
                "duration": 0.1522727,
                "tempo": 120.0
            },
            {
                "start_time": 0.5886364,
                "end_time": 0.7590909,
                "pitch": 43,
                "velocity": 80,
                "duration": 0.1704545,
                "tempo": 120.0
            },
            {
                "start_time": 0.7931818,
                "end_time": 0.9613636,
                "pitch": 31,
                "velocity": 80,
                "duration": 0.1681818,
                "tempo": 120.0
            },
            {
                "start_time": 1.0113636,
                "end_time": 1.1636364,
                "pitch": 43,
                "velocity": 80,
                "duration": 0.1522727,
                "tempo": 120.0
            },
            {
                "start_time": 1.1977273,
                "end_time": 1.3477273,
                "pitch": 31,
                "velocity": 80,
                "duration": 0.15,
                "tempo": 120.0
            },
            {
                "start_time": 1.4136364,
                "end_time": 1.5136364,
                "pitch": 43,
                "velocity": 80,
                "duration": 0.1,
                "tempo": 120.0
            },
            {
                "start_time": 1.6136364,
                "end_time": 1.6795455,
                "pitch": 41,
                "velocity": 80,
                "duration": 0.0659091,
                "tempo": 120.0
            },
            {
                "start_time": 1.7136364,
                "end_time": 1.7818182,
                "pitch": 41,
                "velocity": 80,
                "duration": 0.0681818,
                "tempo": 120.0
            },
            {
                "start_time": 1.8159091,
                "end_time": 1.95,
                "pitch": 40,
                "velocity": 80,
                "duration": 0.1340909,
                "tempo": 120.0
            },
            {
                "start_time": 2.0159091,
                "end_time": 2.0840909,
                "pitch": 38,
                "velocity": 80,
                "duration": 0.0681818,
                "tempo": 120.0
            },
            {
                "start_time": 2.4,
                "end_time": 2.4818182,
                "pitch": 53,
                "velocity": 80,
                "duration": 0.0818182,
                "tempo": 120.0
            },
            {
                "start_time": 2.5136364,
                "end_time": 2.5795455,
                "pitch": 53,
                "velocity": 80,
                "duration": 0.0659091,
                "tempo": 120.0
            },
            {
                "start_time": 2.5954545,
                "end_time": 2.7113636,
                "pitch": 52,
                "velocity": 80,
                "duration": 0.1159091,
                "tempo": 120.0
            },
            {
                "start_time": 2.8090909,
                "end_time": 2.8931818,
                "pitch": 50,
                "velocity": 80,
                "duration": 0.0840909,
                "tempo": 120.0
            },
            {
                "start_time": 2.9954545,
                "end_time": 3.0818182,
                "pitch": 53,
                "velocity": 80,
                "duration": 0.0863636,
                "tempo": 120.0
            },
            {
                "start_time": 3.1,
                "end_time": 3.1840909,
                "pitch": 53,
                "velocity": 80,
                "duration": 0.0840909,
                "tempo": 120.0
            },
            {
                "start_time": 3.2022727,
                "end_time": 3.3522727,
                "pitch": 31,
                "velocity": 80,
                "duration": 0.15,
                "tempo": 120.0
            },
            {
                "start_time": 3.4181818,
                "end_time": 3.5522727,
                "pitch": 43,
                "velocity": 80,
                "duration": 0.1340909,
                "tempo": 120.0
            },
            {
                "start_time": 3.6181818,
                "end_time": 3.7522727,
                "pitch": 38,
                "velocity": 80,
                "duration": 0.1340909,
                "tempo": 120.0
            },
            {
                "start_time": 3.8181818,
                "end_time": 3.9522727,
                "pitch": 43,
                "velocity": 80,
                "duration": 0.1340909,
                "tempo": 120.0
            },
            {
                "start_time": 4.0181818,
                "end_time": 4.1522727,
                "pitch": 31,
                "velocity": 80,
                "duration": 0.1340909,
                "tempo": 120.0
            },
            {
                "start_time": 4.2181818,
                "end_time": 4.3522727,
                "pitch": 43,
                "velocity": 80,
                "duration": 0.1340909,
                "tempo": 120.0
            },
            {
                "start_time": 4.4181818,
                "end_time": 4.5204545,
                "pitch": 38,
                "velocity": 80,
                "duration": 0.1022727,
                "tempo": 120.0
            },
            {
                "start_time": 4.6204545,
                "end_time": 4.7545455,
                "pitch": 43,
                "velocity": 80,
                "duration": 0.1340909,
                "tempo": 120.0
            },
            {
                "start_time": 4.8227273,
                "end_time": 4.9545455,
                "pitch": 26,
                "velocity": 80,
                "duration": 0.1318182,
                "tempo": 120.0
            },
            {
                "start_time": 5.0227273,
                "end_time": 5.1545455,
                "pitch": 38,
                "velocity": 80,
                "duration": 0.1318182,
                "tempo": 120.0
            },
            {
                "start_time": 5.2227273,
                "end_time": 5.3227273,
                "pitch": 29,
                "velocity": 80,
                "duration": 0.1,
                "tempo": 120.0
            },
            {
                "start_time": 5.4227273,
                "end_time": 5.5568182,
                "pitch": 41,
                "velocity": 80,
                "duration": 0.1340909,
                "tempo": 120.0
            },
            {
                "start_time": 5.625,
                "end_time": 5.7590909,
                "pitch": 33,
                "velocity": 80,
                "duration": 0.1340909,
                "tempo": 120.0
            },
            {
                "start_time": 5.825,
                "end_time": 5.9590909,
                "pitch": 45,
                "velocity": 80,
                "duration": 0.1340909,
                "tempo": 120.0
            },
            {
                "start_time": 6.0272727,
                "end_time": 6.1272727,
                "pitch": 35,
                "velocity": 80,
                "duration": 0.1,
                "tempo": 120.0
            },
            {
                "start_time": 6.2272727,
                "end_time": 6.3613636,
                "pitch": 48,
                "velocity": 80,
                "duration": 0.1340909,
                "tempo": 120.0
            },
            {
                "start_time": 6.4272727,
                "end_time": 6.5613636,
                "pitch": 31,
                "velocity": 80,
                "duration": 0.1340909,
                "tempo": 120.0
            },
            {
                "start_time": 6.6295455,
                "end_time": 6.7636364,
                "pitch": 43,
                "velocity": 80,
                "duration": 0.1340909,
                "tempo": 120.0
            },
            {
                "start_time": 6.8295455,
                "end_time": 6.9295455,
                "pitch": 31,
                "velocity": 80,
                "duration": 0.1,
                "tempo": 120.0
            },
            {
                "start_time": 7.0295455,
                "end_time": 7.1636364,
                "pitch": 43,
                "velocity": 80,
                "duration": 0.1340909,
                "tempo": 120.0
            },
            {
                "start_time": 7.2295455,
                "end_time": 7.3636364,
                "pitch": 31,
                "velocity": 80,
                "duration": 0.1340909,
                "tempo": 120.0
            },
            {
                "start_time": 7.4318182,
                "end_time": 7.5659091,
                "pitch": 43,
                "velocity": 80,
                "duration": 0.1340909,
                "tempo": 120.0
            },
            {
                "start_time": 7.6318182,
                "end_time": 7.7659091,
                "pitch": 31,
                "velocity": 80,
                "duration": 0.1340909,
                "tempo": 120.0
            },
            {
                "start_time": 7.8340909,
                "end_time": 7.9681818,
                "pitch": 43,
                "velocity": 80,
                "duration": 0.1340909,
                "tempo": 120.0
            },
            {
                "start_time": 8.0363636,
                "end_time": 8.1022727,
                "pitch": 41,
                "velocity": 80,
                "duration": 0.0659091,
                "tempo": 120.0
            },
            {
                "start_time": 8.1363636,
                "end_time": 8.2022727,
                "pitch": 41,
                "velocity": 80,
                "duration": 0.0659091,
                "tempo": 120.0
            },
            {
                "start_time": 8.2363636,
                "end_time": 8.3681818,
                "pitch": 40,
                "velocity": 80,
                "duration": 0.1318182,
                "tempo": 120.0
            },
            {
                "start_time": 8.4363636,
                "end_time": 8.5022727,
                "pitch": 38,
                "velocity": 80,
                "duration": 0.0659091,
                "tempo": 120.0
            },
            {
                "start_time": 8.8386364,
                "end_time": 8.9022727,
                "pitch": 53,
                "velocity": 80,
                "duration": 0.0636364,
                "tempo": 120.0
            },
            {
                "start_time": 8.9363636,
                "end_time": 9.0022727,
                "pitch": 53,
                "velocity": 80,
                "duration": 0.0659091,
                "tempo": 120.0
            },
            {
                "start_time": 9.0340909,
                "end_time": 9.1636364,
                "pitch": 52,
                "velocity": 80,
                "duration": 0.1295455,
                "tempo": 120.0
            },
            {
                "start_time": 9.2295455,
                "end_time": 9.2977273,
                "pitch": 50,
                "velocity": 80,
                "duration": 0.0681818,
                "tempo": 120.0
            },
            {
                "start_time": 9.4340909,
                "end_time": 9.5045455,
                "pitch": 53,
                "velocity": 80,
                "duration": 0.0704545,
                "tempo": 120.0
            },
            {
                "start_time": 9.5386364,
                "end_time": 9.6068182,
                "pitch": 53,
                "velocity": 80,
                "duration": 0.0681818,
                "tempo": 120.0
            },
            {
                "start_time": 9.6409091,
                "end_time": 9.775,
                "pitch": 31,
                "velocity": 80,
                "duration": 0.1340909,
                "tempo": 120.0
            },
            {
                "start_time": 9.8409091,
                "end_time": 9.975,
                "pitch": 43,
                "velocity": 80,
                "duration": 0.1340909,
                "tempo": 120.0
            },
            {
                "start_time": 10.0409091,
                "end_time": 10.175,
                "pitch": 38,
                "velocity": 80,
                "duration": 0.1340909,
                "tempo": 120.0
            },
            {
                "start_time": 10.2431818,
                "end_time": 10.3772727,
                "pitch": 43,
                "velocity": 80,
                "duration": 0.1340909,
                "tempo": 120.0
            },
            {
                "start_time": 10.4431818,
                "end_time": 10.5772727,
                "pitch": 31,
                "velocity": 80,
                "duration": 0.1340909,
                "tempo": 120.0
            },
            {
                "start_time": 10.6454545,
                "end_time": 10.7795455,
                "pitch": 43,
                "velocity": 80,
                "duration": 0.1340909,
                "tempo": 120.0
            },
            {
                "start_time": 10.8454545,
                "end_time": 10.9477273,
                "pitch": 38,
                "velocity": 80,
                "duration": 0.1022727,
                "tempo": 120.0
            },
            {
                "start_time": 11.0477273,
                "end_time": 11.1818182,
                "pitch": 43,
                "velocity": 80,
                "duration": 0.1340909,
                "tempo": 120.0
            },
            {
                "start_time": 11.2477273,
                "end_time": 11.3840909,
                "pitch": 26,
                "velocity": 80,
                "duration": 0.1363636,
                "tempo": 120.0
            },
            {
                "start_time": 11.45,
                "end_time": 11.5840909,
                "pitch": 38,
                "velocity": 80,
                "duration": 0.1340909,
                "tempo": 120.0
            },
            {
                "start_time": 11.6522727,
                "end_time": 11.7522727,
                "pitch": 29,
                "velocity": 80,
                "duration": 0.1,
                "tempo": 120.0
            },
            {
                "start_time": 11.8522727,
                "end_time": 11.9840909,
                "pitch": 41,
                "velocity": 80,
                "duration": 0.1318182,
                "tempo": 120.0
            },
            {
                "start_time": 12.0522727,
                "end_time": 12.1863636,
                "pitch": 33,
                "velocity": 80,
                "duration": 0.1340909,
                "tempo": 120.0
            },
            {
                "start_time": 12.2522727,
                "end_time": 12.3863636,
                "pitch": 45,
                "velocity": 80,
                "duration": 0.1340909,
                "tempo": 120.0
            },
            {
                "start_time": 12.4545455,
                "end_time": 12.5545455,
                "pitch": 35,
                "velocity": 80,
                "duration": 0.1,
                "tempo": 120.0
            },
            {
                "start_time": 12.6545455,
                "end_time": 12.7909091,
                "pitch": 48,
                "velocity": 80,
                "duration": 0.1363636,
                "tempo": 120.0
            },
            {
                "start_time": 12.8568182,
                "end_time": 12.9909091,
                "pitch": 31,
                "velocity": 80,
                "duration": 0.1340909,
                "tempo": 120.0
            },
            {
                "start_time": 13.0590909,
                "end_time": 13.1931818,
                "pitch": 43,
                "velocity": 80,
                "duration": 0.1340909,
                "tempo": 120.0
            },
            {
                "start_time": 13.2590909,
                "end_time": 13.3568182,
                "pitch": 38,
                "velocity": 80,
                "duration": 0.0977273,
                "tempo": 120.0
            },
            {
                "start_time": 13.4545455,
                "end_time": 13.5863636,
                "pitch": 31,
                "velocity": 80,
                "duration": 0.1318182,
                "tempo": 120.0
            },
            {
                "start_time": 13.6522727,
                "end_time": 13.7886364,
                "pitch": 38,
                "velocity": 80,
                "duration": 0.1363636,
                "tempo": 120.0
            },
            {
                "start_time": 13.8568182,
                "end_time": 13.9931818,
                "pitch": 43,
                "velocity": 80,
                "duration": 0.1363636,
                "tempo": 120.0
            },
            {
                "start_time": 14.0613636,
                "end_time": 14.1931818,
                "pitch": 50,
                "velocity": 80,
                "duration": 0.1318182,
                "tempo": 120.0
            },
            {
                "start_time": 14.2590909,
                "end_time": 14.3886364,
                "pitch": 43,
                "velocity": 80,
                "duration": 0.1295455,
                "tempo": 120.0
            },
            {
                "start_time": 14.4545455,
                "end_time": 14.5909091,
                "pitch": 41,
                "velocity": 80,
                "duration": 0.1363636,
                "tempo": 120.0
            },
            {
                "start_time": 14.6590909,
                "end_time": 14.7954545,
                "pitch": 40,
                "velocity": 80,
                "duration": 0.1363636,
                "tempo": 120.0
            },
            {
                "start_time": 14.8659091,
                "end_time": 14.9954545,
                "pitch": 38,
                "velocity": 80,
                "duration": 0.1295455,
                "tempo": 120.0
            },
            {
                "start_time": 15.0613636,
                "end_time": 15.1909091,
                "pitch": 36,
                "velocity": 80,
                "duration": 0.1295455,
                "tempo": 120.0
            },
            {
                "start_time": 15.2568182,
                "end_time": 15.2909091,
                "pitch": 67,
                "velocity": 80,
                "duration": 0.0340909,
                "tempo": 120.0
            },
            {
                "start_time": 15.3068182,
                "end_time": 15.3590909,
                "pitch": 67,
                "velocity": 80,
                "duration": 0.0522727,
                "tempo": 120.0
            },
            {
                "start_time": 15.3590909,
                "end_time": 15.3931818,
                "pitch": 67,
                "velocity": 80,
                "duration": 0.0340909,
                "tempo": 120.0
            },
            {
                "start_time": 15.4113636,
                "end_time": 15.4613636,
                "pitch": 67,
                "velocity": 80,
                "duration": 0.05,
                "tempo": 120.0
            },
            {
                "start_time": 15.4613636,
                "end_time": 15.4954545,
                "pitch": 65,
                "velocity": 80,
                "duration": 0.0340909,
                "tempo": 120.0
            },
            {
                "start_time": 15.5136364,
                "end_time": 15.5659091,
                "pitch": 65,
                "velocity": 80,
                "duration": 0.0522727,
                "tempo": 120.0
            },
            {
                "start_time": 15.5659091,
                "end_time": 15.6,
                "pitch": 65,
                "velocity": 80,
                "duration": 0.0340909,
                "tempo": 120.0
            },
            {
                "start_time": 15.6159091,
                "end_time": 15.6681818,
                "pitch": 65,
                "velocity": 80,
                "duration": 0.0522727,
                "tempo": 120.0
            },
            {
                "start_time": 15.6681818,
                "end_time": 15.7,
                "pitch": 65,
                "velocity": 80,
                "duration": 0.0318182,
                "tempo": 120.0
            },
            {
                "start_time": 15.7159091,
                "end_time": 15.7659091,
                "pitch": 64,
                "velocity": 80,
                "duration": 0.05,
                "tempo": 120.0
            },
            {
                "start_time": 15.7659091,
                "end_time": 15.7977273,
                "pitch": 64,
                "velocity": 80,
                "duration": 0.0318182,
                "tempo": 120.0
            },
            {
                "start_time": 15.8136364,
                "end_time": 15.8636364,
                "pitch": 64,
                "velocity": 80,
                "duration": 0.05,
                "tempo": 120.0
            },
            {
                "start_time": 15.8636364,
                "end_time": 15.8954545,
                "pitch": 64,
                "velocity": 80,
                "duration": 0.0318182,
                "tempo": 120.0
            },
            {
                "start_time": 15.9136364,
                "end_time": 15.9613636,
                "pitch": 62,
                "velocity": 80,
                "duration": 0.0477273,
                "tempo": 120.0
            },
            {
                "start_time": 15.9613636,
                "end_time": 15.9954545,
                "pitch": 62,
                "velocity": 80,
                "duration": 0.0340909,
                "tempo": 120.0
            },
            {
                "start_time": 16.0113636,
                "end_time": 16.0590909,
                "pitch": 62,
                "velocity": 80,
                "duration": 0.0477273,
                "tempo": 120.0
            }
        ],
        "Electric Piano 1": [
            {
                "start_time": 0.0,
                "end_time": 0.4,
                "pitch": 67,
                "velocity": 51,
                "duration": 0.4,
                "tempo": 120.0
            },
            {
                "start_time": 0.4,
                "end_time": 0.6045455,
                "pitch": 75,
                "velocity": 51,
                "duration": 0.2045455,
                "tempo": 120.0
            },
            {
                "start_time": 0.6045455,
                "end_time": 0.7068182,
                "pitch": 75,
                "velocity": 51,
                "duration": 0.1022727,
                "tempo": 120.0
            },
            {
                "start_time": 0.8113636,
                "end_time": 1.0113636,
                "pitch": 67,
                "velocity": 51,
                "duration": 0.2,
                "tempo": 120.0
            },
            {
                "start_time": 1.0113636,
                "end_time": 1.4136364,
                "pitch": 76,
                "velocity": 51,
                "duration": 0.4022727,
                "tempo": 120.0
            },
            {
                "start_time": 1.4136364,
                "end_time": 1.5136364,
                "pitch": 76,
                "velocity": 51,
                "duration": 0.1,
                "tempo": 120.0
            },
            {
                "start_time": 1.6136364,
                "end_time": 1.7136364,
                "pitch": 65,
                "velocity": 51,
                "duration": 0.1,
                "tempo": 120.0
            },
            {
                "start_time": 1.8159091,
                "end_time": 1.9159091,
                "pitch": 81,
                "velocity": 51,
                "duration": 0.1,
                "tempo": 120.0
            },
            {
                "start_time": 2.0159091,
                "end_time": 2.1159091,
                "pitch": 82,
                "velocity": 51,
                "duration": 0.1,
                "tempo": 120.0
            },
            {
                "start_time": 2.2159091,
                "end_time": 2.3159091,
                "pitch": 63,
                "velocity": 51,
                "duration": 0.1,
                "tempo": 120.0
            },
            {
                "start_time": 2.4159091,
                "end_time": 2.5136364,
                "pitch": 79,
                "velocity": 51,
                "duration": 0.0977273,
                "tempo": 120.0
            },
            {
                "start_time": 2.6113636,
                "end_time": 2.7113636,
                "pitch": 81,
                "velocity": 51,
                "duration": 0.1,
                "tempo": 120.0
            },
            {
                "start_time": 2.8090909,
                "end_time": 2.9113636,
                "pitch": 62,
                "velocity": 51,
                "duration": 0.1022727,
                "tempo": 120.0
            },
            {
                "start_time": 3.0136364,
                "end_time": 3.1159091,
                "pitch": 77,
                "velocity": 51,
                "duration": 0.1022727,
                "tempo": 120.0
            },
            {
                "start_time": 3.2181818,
                "end_time": 3.5181818,
                "pitch": 67,
                "velocity": 51,
                "duration": 0.3,
                "tempo": 120.0
            },
            {
                "start_time": 3.6181818,
                "end_time": 3.8181818,
                "pitch": 75,
                "velocity": 51,
                "duration": 0.2,
                "tempo": 120.0
            },
            {
                "start_time": 3.8181818,
                "end_time": 3.9181818,
                "pitch": 75,
                "velocity": 51,
                "duration": 0.1,
                "tempo": 120.0
            },
            {
                "start_time": 4.0181818,
                "end_time": 4.2181818,
                "pitch": 67,
                "velocity": 51,
                "duration": 0.2,
                "tempo": 120.0
            },
            {
                "start_time": 4.2181818,
                "end_time": 4.5204545,
                "pitch": 76,
                "velocity": 51,
                "duration": 0.3022727,
                "tempo": 120.0
            },
            {
                "start_time": 4.6204545,
                "end_time": 4.7204545,
                "pitch": 74,
                "velocity": 51,
                "duration": 0.1,
                "tempo": 120.0
            },
            {
                "start_time": 4.8227273,
                "end_time": 4.9227273,
                "pitch": 65,
                "velocity": 51,
                "duration": 0.1,
                "tempo": 120.0
            },
            {
                "start_time": 5.0227273,
                "end_time": 5.1227273,
                "pitch": 67,
                "velocity": 51,
                "duration": 0.1,
                "tempo": 120.0
            },
            {
                "start_time": 5.2227273,
                "end_time": 5.3227273,
                "pitch": 69,
                "velocity": 51,
                "duration": 0.1,
                "tempo": 120.0
            },
            {
                "start_time": 5.4227273,
                "end_time": 5.5227273,
                "pitch": 74,
                "velocity": 51,
                "duration": 0.1,
                "tempo": 120.0
            },
            {
                "start_time": 5.625,
                "end_time": 5.725,
                "pitch": 82,
                "velocity": 51,
                "duration": 0.1,
                "tempo": 120.0
            },
            {
                "start_time": 5.825,
                "end_time": 5.9272727,
                "pitch": 86,
                "velocity": 51,
                "duration": 0.1022727,
                "tempo": 120.0
            },
            {
                "start_time": 6.0272727,
                "end_time": 6.1272727,
                "pitch": 89,
                "velocity": 51,
                "duration": 0.1,
                "tempo": 120.0
            },
            {
                "start_time": 6.2272727,
                "end_time": 6.3272727,
                "pitch": 93,
                "velocity": 51,
                "duration": 0.1,
                "tempo": 120.0
            },
            {
                "start_time": 6.4272727,
                "end_time": 6.5272727,
                "pitch": 67,
                "velocity": 51,
                "duration": 0.1,
                "tempo": 120.0
            },
            {
                "start_time": 6.8295455,
                "end_time": 6.9295455,
                "pitch": 75,
                "velocity": 51,
                "duration": 0.1,
                "tempo": 120.0
            },
            {
                "start_time": 7.0295455,
                "end_time": 7.1295455,
                "pitch": 74,
                "velocity": 51,
                "duration": 0.1,
                "tempo": 120.0
            },
            {
                "start_time": 7.2295455,
                "end_time": 7.3295455,
                "pitch": 67,
                "velocity": 51,
                "duration": 0.1,
                "tempo": 120.0
            },
            {
                "start_time": 7.4318182,
                "end_time": 7.8340909,
                "pitch": 76,
                "velocity": 51,
                "duration": 0.4022727,
                "tempo": 120.0
            },
            {
                "start_time": 7.8340909,
                "end_time": 7.9340909,
                "pitch": 76,
                "velocity": 51,
                "duration": 0.1,
                "tempo": 120.0
            },
            {
                "start_time": 8.0363636,
                "end_time": 8.1363636,
                "pitch": 65,
                "velocity": 51,
                "duration": 0.1,
                "tempo": 120.0
            },
            {
                "start_time": 8.2363636,
                "end_time": 8.3363636,
                "pitch": 81,
                "velocity": 51,
                "duration": 0.1,
                "tempo": 120.0
            },
            {
                "start_time": 8.4363636,
                "end_time": 8.5363636,
                "pitch": 82,
                "velocity": 51,
                "duration": 0.1,
                "tempo": 120.0
            },
            {
                "start_time": 8.6363636,
                "end_time": 8.7363636,
                "pitch": 63,
                "velocity": 51,
                "duration": 0.1,
                "tempo": 120.0
            },
            {
                "start_time": 8.8386364,
                "end_time": 8.9363636,
                "pitch": 79,
                "velocity": 51,
                "duration": 0.0977273,
                "tempo": 120.0
            },
            {
                "start_time": 9.0340909,
                "end_time": 9.1318182,
                "pitch": 81,
                "velocity": 51,
                "duration": 0.0977273,
                "tempo": 120.0
            },
            {
                "start_time": 9.2295455,
                "end_time": 9.3318182,
                "pitch": 62,
                "velocity": 51,
                "duration": 0.1022727,
                "tempo": 120.0
            },
            {
                "start_time": 9.4340909,
                "end_time": 9.5386364,
                "pitch": 77,
                "velocity": 51,
                "duration": 0.1045455,
                "tempo": 120.0
            },
            {
                "start_time": 9.6409091,
                "end_time": 9.9409091,
                "pitch": 67,
                "velocity": 51,
                "duration": 0.3,
                "tempo": 120.0
            },
            {
                "start_time": 10.0409091,
                "end_time": 10.2431818,
                "pitch": 75,
                "velocity": 51,
                "duration": 0.2022727,
                "tempo": 120.0
            },
            {
                "start_time": 10.2431818,
                "end_time": 10.3431818,
                "pitch": 75,
                "velocity": 51,
                "duration": 0.1,
                "tempo": 120.0
            },
            {
                "start_time": 10.4431818,
                "end_time": 10.6454545,
                "pitch": 67,
                "velocity": 51,
                "duration": 0.2022727,
                "tempo": 120.0
            },
            {
                "start_time": 10.6454545,
                "end_time": 10.9477273,
                "pitch": 76,
                "velocity": 51,
                "duration": 0.3022727,
                "tempo": 120.0
            },
            {
                "start_time": 11.0477273,
                "end_time": 11.1477273,
                "pitch": 74,
                "velocity": 51,
                "duration": 0.1,
                "tempo": 120.0
            },
            {
                "start_time": 11.2477273,
                "end_time": 11.35,
                "pitch": 65,
                "velocity": 51,
                "duration": 0.1022727,
                "tempo": 120.0
            },
            {
                "start_time": 11.45,
                "end_time": 11.55,
                "pitch": 67,
                "velocity": 51,
                "duration": 0.1,
                "tempo": 120.0
            },
            {
                "start_time": 11.6522727,
                "end_time": 11.7522727,
                "pitch": 69,
                "velocity": 51,
                "duration": 0.1,
                "tempo": 120.0
            },
            {
                "start_time": 11.8522727,
                "end_time": 11.9522727,
                "pitch": 74,
                "velocity": 51,
                "duration": 0.1,
                "tempo": 120.0
            },
            {
                "start_time": 12.0522727,
                "end_time": 12.1522727,
                "pitch": 82,
                "velocity": 51,
                "duration": 0.1,
                "tempo": 120.0
            },
            {
                "start_time": 12.2522727,
                "end_time": 12.3545455,
                "pitch": 86,
                "velocity": 51,
                "duration": 0.1022727,
                "tempo": 120.0
            },
            {
                "start_time": 12.4545455,
                "end_time": 12.5545455,
                "pitch": 89,
                "velocity": 51,
                "duration": 0.1,
                "tempo": 120.0
            },
            {
                "start_time": 12.6545455,
                "end_time": 12.7568182,
                "pitch": 93,
                "velocity": 51,
                "duration": 0.1022727,
                "tempo": 120.0
            },
            {
                "start_time": 12.8568182,
                "end_time": 12.9568182,
                "pitch": 71,
                "velocity": 51,
                "duration": 0.1,
                "tempo": 120.0
            },
            {
                "start_time": 13.0590909,
                "end_time": 13.1590909,
                "pitch": 72,
                "velocity": 51,
                "duration": 0.1,
                "tempo": 120.0
            },
            {
                "start_time": 13.2590909,
                "end_time": 13.3568182,
                "pitch": 74,
                "velocity": 51,
                "duration": 0.0977273,
                "tempo": 120.0
            },
            {
                "start_time": 13.4545455,
                "end_time": 13.6522727,
                "pitch": 67,
                "velocity": 51,
                "duration": 0.1977273,
                "tempo": 120.0
            },
            {
                "start_time": 13.6522727,
                "end_time": 13.7545455,
                "pitch": 79,
                "velocity": 51,
                "duration": 0.1022727,
                "tempo": 120.0
            },
            {
                "start_time": 13.8568182,
                "end_time": 14.0613636,
                "pitch": 77,
                "velocity": 51,
                "duration": 0.2045455,
                "tempo": 120.0
            },
            {
                "start_time": 14.0613636,
                "end_time": 14.2590909,
                "pitch": 62,
                "velocity": 51,
                "duration": 0.1977273,
                "tempo": 120.0
            },
            {
                "start_time": 14.2590909,
                "end_time": 14.4545455,
                "pitch": 62,
                "velocity": 51,
                "duration": 0.1954545,
                "tempo": 120.0
            },
            {
                "start_time": 14.4545455,
                "end_time": 15.0613636,
                "pitch": 64,
                "velocity": 51,
                "duration": 0.6068182,
                "tempo": 120.0
            },
            {
                "start_time": 15.0613636,
                "end_time": 15.2568182,
                "pitch": 65,
                "velocity": 51,
                "duration": 0.1954545,
                "tempo": 120.0
            },
            {
                "start_time": 15.2568182,
                "end_time": 15.4613636,
                "pitch": 65,
                "velocity": 51,
                "duration": 0.2045455,
                "tempo": 120.0
            },
            {
                "start_time": 15.6681818,
                "end_time": 16.0590909,
                "pitch": 67,
                "velocity": 51,
                "duration": 0.3909091,
                "tempo": 120.0
            }
        ],
        "Electric Guitar (clean)": [
            {
                "start_time": 0.0,
                "end_time": 0.0159091,
                "pitch": 45,
                "velocity": 4,
                "duration": 0.0159091,
                "tempo": 120.0
            },
            {
                "start_time": 0.0159091,
                "end_time": 0.2340909,
                "pitch": 54,
                "velocity": 4,
                "duration": 0.2181818,
                "tempo": 120.0
            },
            {
                "start_time": 0.2340909,
                "end_time": 0.4340909,
                "pitch": 38,
                "velocity": 4,
                "duration": 0.2,
                "tempo": 120.0
            },
            {
                "start_time": 0.4340909,
                "end_time": 0.6386364,
                "pitch": 45,
                "velocity": 4,
                "duration": 0.2045455,
                "tempo": 120.0
            },
            {
                "start_time": 0.6386364,
                "end_time": 1.0454545,
                "pitch": 54,
                "velocity": 4,
                "duration": 0.4068182,
                "tempo": 120.0
            },
            {
                "start_time": 1.0454545,
                "end_time": 1.2477273,
                "pitch": 38,
                "velocity": 4,
                "duration": 0.2022727,
                "tempo": 120.0
            },
            {
                "start_time": 1.2477273,
                "end_time": 1.4477273,
                "pitch": 45,
                "velocity": 4,
                "duration": 0.2,
                "tempo": 120.0
            },
            {
                "start_time": 1.4477273,
                "end_time": 1.6477273,
                "pitch": 54,
                "velocity": 4,
                "duration": 0.2,
                "tempo": 120.0
            },
            {
                "start_time": 1.6477273,
                "end_time": 1.8477273,
                "pitch": 52,
                "velocity": 4,
                "duration": 0.2,
                "tempo": 120.0
            },
            {
                "start_time": 1.8477273,
                "end_time": 2.05,
                "pitch": 44,
                "velocity": 4,
                "duration": 0.2022727,
                "tempo": 120.0
            },
            {
                "start_time": 2.05,
                "end_time": 2.25,
                "pitch": 54,
                "velocity": 4,
                "duration": 0.2,
                "tempo": 120.0
            },
            {
                "start_time": 2.25,
                "end_time": 2.45,
                "pitch": 44,
                "velocity": 4,
                "duration": 0.2,
                "tempo": 120.0
            },
            {
                "start_time": 2.45,
                "end_time": 2.6454545,
                "pitch": 54,
                "velocity": 4,
                "duration": 0.1954545,
                "tempo": 120.0
            },
            {
                "start_time": 2.6454545,
                "end_time": 3.2522727,
                "pitch": 44,
                "velocity": 4,
                "duration": 0.6068182,
                "tempo": 120.0
            },
            {
                "start_time": 3.2522727,
                "end_time": 3.4522727,
                "pitch": 54,
                "velocity": 4,
                "duration": 0.2,
                "tempo": 120.0
            },
            {
                "start_time": 3.4522727,
                "end_time": 3.6522727,
                "pitch": 38,
                "velocity": 4,
                "duration": 0.2,
                "tempo": 120.0
            },
            {
                "start_time": 3.6522727,
                "end_time": 3.7681818,
                "pitch": 45,
                "velocity": 4,
                "duration": 0.1159091,
                "tempo": 120.0
            },
            {
                "start_time": 3.7681818,
                "end_time": 3.8522727,
                "pitch": 74,
                "velocity": 4,
                "duration": 0.0840909,
                "tempo": 120.0
            },
            {
                "start_time": 3.8522727,
                "end_time": 4.0522727,
                "pitch": 19,
                "velocity": 4,
                "duration": 0.2,
                "tempo": 120.0
            },
            {
                "start_time": 4.0522727,
                "end_time": 4.2522727,
                "pitch": 18,
                "velocity": 4,
                "duration": 0.2,
                "tempo": 120.0
            },
            {
                "start_time": 4.2522727,
                "end_time": 4.4522727,
                "pitch": 67,
                "velocity": 4,
                "duration": 0.2,
                "tempo": 120.0
            },
            {
                "start_time": 4.4522727,
                "end_time": 4.6545455,
                "pitch": 74,
                "velocity": 4,
                "duration": 0.2022727,
                "tempo": 120.0
            },
            {
                "start_time": 4.6545455,
                "end_time": 4.8545455,
                "pitch": 19,
                "velocity": 4,
                "duration": 0.2,
                "tempo": 120.0
            },
            {
                "start_time": 4.8545455,
                "end_time": 5.0545455,
                "pitch": 18,
                "velocity": 4,
                "duration": 0.2,
                "tempo": 120.0
            },
            {
                "start_time": 5.0545455,
                "end_time": 5.2545455,
                "pitch": 67,
                "velocity": 4,
                "duration": 0.2,
                "tempo": 120.0
            },
            {
                "start_time": 5.2545455,
                "end_time": 5.4568182,
                "pitch": 74,
                "velocity": 4,
                "duration": 0.2022727,
                "tempo": 120.0
            },
            {
                "start_time": 5.4568182,
                "end_time": 5.6590909,
                "pitch": 19,
                "velocity": 4,
                "duration": 0.2022727,
                "tempo": 120.0
            },
            {
                "start_time": 5.6590909,
                "end_time": 5.8590909,
                "pitch": 18,
                "velocity": 4,
                "duration": 0.2,
                "tempo": 120.0
            },
            {
                "start_time": 5.8590909,
                "end_time": 6.0613636,
                "pitch": 67,
                "velocity": 4,
                "duration": 0.2022727,
                "tempo": 120.0
            },
            {
                "start_time": 6.0613636,
                "end_time": 6.2613636,
                "pitch": 74,
                "velocity": 4,
                "duration": 0.2,
                "tempo": 120.0
            },
            {
                "start_time": 6.2613636,
                "end_time": 6.4613636,
                "pitch": 19,
                "velocity": 4,
                "duration": 0.2,
                "tempo": 120.0
            },
            {
                "start_time": 6.4613636,
                "end_time": 6.6613636,
                "pitch": 18,
                "velocity": 4,
                "duration": 0.2,
                "tempo": 120.0
            },
            {
                "start_time": 6.6613636,
                "end_time": 6.8636364,
                "pitch": 67,
                "velocity": 4,
                "duration": 0.2022727,
                "tempo": 120.0
            },
            {
                "start_time": 6.8636364,
                "end_time": 7.0636364,
                "pitch": 74,
                "velocity": 4,
                "duration": 0.2,
                "tempo": 120.0
            },
            {
                "start_time": 7.0636364,
                "end_time": 7.2636364,
                "pitch": 19,
                "velocity": 4,
                "duration": 0.2,
                "tempo": 120.0
            },
            {
                "start_time": 7.2636364,
                "end_time": 7.4659091,
                "pitch": 18,
                "velocity": 4,
                "duration": 0.2022727,
                "tempo": 120.0
            },
            {
                "start_time": 7.4659091,
                "end_time": 7.6659091,
                "pitch": 67,
                "velocity": 4,
                "duration": 0.2,
                "tempo": 120.0
            },
            {
                "start_time": 7.6659091,
                "end_time": 7.8681818,
                "pitch": 74,
                "velocity": 4,
                "duration": 0.2022727,
                "tempo": 120.0
            },
            {
                "start_time": 7.8681818,
                "end_time": 8.0681818,
                "pitch": 19,
                "velocity": 4,
                "duration": 0.2,
                "tempo": 120.0
            },
            {
                "start_time": 8.0681818,
                "end_time": 8.2681818,
                "pitch": 17,
                "velocity": 4,
                "duration": 0.2,
                "tempo": 120.0
            },
            {
                "start_time": 8.2681818,
                "end_time": 8.4681818,
                "pitch": 73,
                "velocity": 4,
                "duration": 0.2,
                "tempo": 120.0
            },
            {
                "start_time": 8.4681818,
                "end_time": 8.6704545,
                "pitch": 17,
                "velocity": 4,
                "duration": 0.2022727,
                "tempo": 120.0
            },
            {
                "start_time": 8.6704545,
                "end_time": 8.8704545,
                "pitch": 26,
                "velocity": 4,
                "duration": 0.2,
                "tempo": 120.0
            },
            {
                "start_time": 8.8704545,
                "end_time": 9.0659091,
                "pitch": 34,
                "velocity": 4,
                "duration": 0.1954545,
                "tempo": 120.0
            },
            {
                "start_time": 9.0659091,
                "end_time": 9.6068182,
                "pitch": 25,
                "velocity": 4,
                "duration": 0.5409091,
                "tempo": 120.0
            },
            {
                "start_time": 9.6068182,
                "end_time": 9.675,
                "pitch": 99,
                "velocity": 4,
                "duration": 0.0681818,
                "tempo": 120.0
            },
            {
                "start_time": 9.675,
                "end_time": 9.875,
                "pitch": 12,
                "velocity": 4,
                "duration": 0.2,
                "tempo": 120.0
            },
            {
                "start_time": 9.875,
                "end_time": 10.075,
                "pitch": 93,
                "velocity": 4,
                "duration": 0.2,
                "tempo": 120.0
            },
            {
                "start_time": 10.075,
                "end_time": 10.275,
                "pitch": 102,
                "velocity": 4,
                "duration": 0.2,
                "tempo": 120.0
            },
            {
                "start_time": 10.275,
                "end_time": 10.4772727,
                "pitch": 19,
                "velocity": 4,
                "duration": 0.2022727,
                "tempo": 120.0
            },
            {
                "start_time": 10.4772727,
                "end_time": 10.6772727,
                "pitch": 18,
                "velocity": 4,
                "duration": 0.2,
                "tempo": 120.0
            },
            {
                "start_time": 10.6772727,
                "end_time": 10.8795455,
                "pitch": 67,
                "velocity": 4,
                "duration": 0.2022727,
                "tempo": 120.0
            },
            {
                "start_time": 10.8795455,
                "end_time": 11.0818182,
                "pitch": 74,
                "velocity": 4,
                "duration": 0.2022727,
                "tempo": 120.0
            },
            {
                "start_time": 11.0818182,
                "end_time": 11.2818182,
                "pitch": 19,
                "velocity": 4,
                "duration": 0.2,
                "tempo": 120.0
            },
            {
                "start_time": 11.2818182,
                "end_time": 11.4840909,
                "pitch": 18,
                "velocity": 4,
                "duration": 0.2022727,
                "tempo": 120.0
            },
            {
                "start_time": 11.4840909,
                "end_time": 11.6840909,
                "pitch": 67,
                "velocity": 4,
                "duration": 0.2,
                "tempo": 120.0
            },
            {
                "start_time": 11.6840909,
                "end_time": 11.7840909,
                "pitch": 74,
                "velocity": 4,
                "duration": 0.1,
                "tempo": 120.0
            },
            {
                "start_time": 11.7840909,
                "end_time": 11.8840909,
                "pitch": 28,
                "velocity": 4,
                "duration": 0.1,
                "tempo": 120.0
            },
            {
                "start_time": 11.8840909,
                "end_time": 12.2204545,
                "pitch": 37,
                "velocity": 4,
                "duration": 0.3363636,
                "tempo": 120.0
            },
            {
                "start_time": 12.2204545,
                "end_time": 12.2863636,
                "pitch": 42,
                "velocity": 4,
                "duration": 0.0659091,
                "tempo": 120.0
            },
            {
                "start_time": 12.2863636,
                "end_time": 12.4886364,
                "pitch": 27,
                "velocity": 4,
                "duration": 0.2022727,
                "tempo": 120.0
            },
            {
                "start_time": 12.4886364,
                "end_time": 12.6886364,
                "pitch": 34,
                "velocity": 4,
                "duration": 0.2,
                "tempo": 120.0
            },
            {
                "start_time": 12.6886364,
                "end_time": 12.7068182,
                "pitch": 43,
                "velocity": 4,
                "duration": 0.0181818,
                "tempo": 120.0
            },
            {
                "start_time": 12.7068182,
                "end_time": 13.275,
                "pitch": 64,
                "velocity": 4,
                "duration": 0.5681818,
                "tempo": 120.0
            },
            {
                "start_time": 13.275,
                "end_time": 13.3090909,
                "pitch": 54,
                "velocity": 4,
                "duration": 0.0340909,
                "tempo": 120.0
            },
            {
                "start_time": 13.3090909,
                "end_time": 13.4886364,
                "pitch": 38,
                "velocity": 4,
                "duration": 0.1795455,
                "tempo": 120.0
            },
            {
                "start_time": 13.4886364,
                "end_time": 14.0795455,
                "pitch": 46,
                "velocity": 4,
                "duration": 0.5909091,
                "tempo": 120.0
            },
            {
                "start_time": 14.0795455,
                "end_time": 14.2909091,
                "pitch": 38,
                "velocity": 4,
                "duration": 0.2113636,
                "tempo": 120.0
            },
            {
                "start_time": 14.2909091,
                "end_time": 14.8818182,
                "pitch": 46,
                "velocity": 4,
                "duration": 0.5909091,
                "tempo": 120.0
            },
            {
                "start_time": 14.8818182,
                "end_time": 15.0113636,
                "pitch": 38,
                "velocity": 4,
                "duration": 0.1295455,
                "tempo": 120.0
            },
            {
                "start_time": 15.0113636,
                "end_time": 15.0931818,
                "pitch": 26,
                "velocity": 4,
                "duration": 0.0818182,
                "tempo": 120.0
            },
            {
                "start_time": 15.0931818,
                "end_time": 15.6840909,
                "pitch": 34,
                "velocity": 4,
                "duration": 0.5909091,
                "tempo": 120.0
            },
            {
                "start_time": 15.6840909,
                "end_time": 15.8954545,
                "pitch": 26,
                "velocity": 4,
                "duration": 0.2113636,
                "tempo": 120.0
            },
            {
                "start_time": 15.8954545,
                "end_time": 16.0931818,
                "pitch": 34,
                "velocity": 4,
                "duration": 0.1977273,
                "tempo": 120.0
            },
            {
                "start_time": 16.0931818,
                "end_time": 16.2659091,
                "pitch": 30,
                "velocity": 4,
                "duration": 0.1727273,
                "tempo": 120.0
            }
        ]
    }
}