{
    "mood": "happy",
    "instruments": {
        "Lead 2 (sawtooth)": [
            {
                "start_time": 0.0,
                "end_time": 0.1613636,
                "pitch": 57,
                "velocity": 80,
                "duration": 0.1613636,
                "tempo": 120.0
            },
            {
                "start_time": 0.1818182,
                "end_time": 0.3636364,
                "pitch": 57,
                "velocity": 80,
                "duration": 0.1818182,
                "tempo": 120.0
            },
            {
                "start_time": 0.3840909,
                "end_time": 0.5363636,
                "pitch": 60,
                "velocity": 80,
                "duration": 0.1522727,
                "tempo": 120.0
            },
            {
                "start_time": 0.5522727,
                "end_time": 0.7022727,
                "pitch": 57,
                "velocity": 80,
                "duration": 0.15,
                "tempo": 120.0
            },
            {
                "start_time": 0.7204545,
                "end_time": 0.8704545,
                "pitch": 63,
                "velocity": 80,
                "duration": 0.15,
                "tempo": 120.0
            },
            {
                "start_time": 0.8863636,
                "end_time": 1.0386364,
                "pitch": 62,
                "velocity": 80,
                "duration": 0.1522727,
                "tempo": 120.0
            },
            {
                "start_time": 1.0545455,
                "end_time": 1.2272727,
                "pitch": 60,
                "velocity": 80,
                "duration": 0.1727273,
                "tempo": 120.0
            },
            {
                "start_time": 1.2431818,
                "end_time": 1.5704545,
                "pitch": 57,
                "velocity": 80,
                "duration": 0.3272727,
                "tempo": 120.0
            },
            {
                "start_time": 1.5886364,
                "end_time": 1.7431818,
                "pitch": 57,
                "velocity": 80,
                "duration": 0.1545455,
                "tempo": 120.0
            },
            {
                "start_time": 1.7613636,
                "end_time": 1.9159091,
                "pitch": 60,
                "velocity": 80,
                "duration": 0.1545455,
                "tempo": 120.0
            },
            {
                "start_time": 1.9318182,
                "end_time": 2.0886364,
                "pitch": 57,
                "velocity": 80,
                "duration": 0.1568182,
                "tempo": 120.0
            },
            {
                "start_time": 2.1045455,
                "end_time": 2.4227273,
                "pitch": 53,
                "velocity": 80,
                "duration": 0.3181818,
                "tempo": 120.0
            },
            {
                "start_time": 2.4386364,
                "end_time": 2.7659091,
                "pitch": 52,
                "velocity": 80,
                "duration": 0.3272727,
                "tempo": 120.0
            },
            {
                "start_time": 2.7840909,
                "end_time": 2.9340909,
                "pitch": 57,
                "velocity": 80,
                "duration": 0.15,
                "tempo": 120.0
            },
            {
                "start_time": 2.9522727,
                "end_time": 3.1022727,
                "pitch": 57,
                "velocity": 80,
                "duration": 0.15,
                "tempo": 120.0
            },
            {
                "start_time": 3.1181818,
                "end_time": 3.2704545,
                "pitch": 60,
                "velocity": 80,
                "duration": 0.1522727,
                "tempo": 120.0
            },
            {
                "start_time": 3.2863636,
                "end_time": 3.4363636,
                "pitch": 57,
                "velocity": 80,
                "duration": 0.15,
                "tempo": 120.0
            },
            {
                "start_time": 3.4545455,
                "end_time": 3.6045455,
                "pitch": 63,
                "velocity": 80,
                "duration": 0.15,
                "tempo": 120.0
            },
            {
                "start_time": 3.6204545,
                "end_time": 3.7727273,
                "pitch": 62,
                "velocity": 80,
                "duration": 0.1522727,
                "tempo": 120.0
            },
            {
                "start_time": 3.7886364,
                "end_time": 3.9431818,
                "pitch": 60,
                "velocity": 80,
                "duration": 0.1545455,
                "tempo": 120.0
            },
            {
                "start_time": 3.9613636,
                "end_time": 4.2840909,
                "pitch": 57,
                "velocity": 80,
                "duration": 0.3227273,
                "tempo": 120.0
            },
            {
                "start_time": 4.3,
                "end_time": 4.4522727,
                "pitch": 57,
                "velocity": 80,
                "duration": 0.1522727,
                "tempo": 120.0
            },
            {
                "start_time": 4.4681818,
                "end_time": 4.6227273,
                "pitch": 60,
                "velocity": 80,
                "duration": 0.1545455,
                "tempo": 120.0
            },
            {
                "start_time": 4.6409091,
                "end_time": 4.7954545,
                "pitch": 57,
                "velocity": 80,
                "duration": 0.1545455,
                "tempo": 120.0
            },
            {
                "start_time": 4.8113636,
                "end_time": 5.1295455,
                "pitch": 55,
                "velocity": 80,
                "duration": 0.3181818,
                "tempo": 120.0
            },
            {
                "start_time": 5.1477273,
                "end_time": 5.4659091,
                "pitch": 56,
                "velocity": 80,
                "duration": 0.3181818,
                "tempo": 120.0
            },
            {
                "start_time": 5.4818182,
                "end_time": 5.6363636,
                "pitch": 57,
                "velocity": 80,
                "duration": 0.1545455,
                "tempo": 120.0
            },
            {
                "start_time": 5.6545455,
                "end_time": 5.8090909,
                "pitch": 57,
                "velocity": 80,
                "duration": 0.1545455,
                "tempo": 120.0
            },
            {
                "start_time": 5.8272727,
                "end_time": 5.9772727,
                "pitch": 60,
                "velocity": 80,
                "duration": 0.15,
                "tempo": 120.0
            },
            {
                "start_time": 5.9931818,
                "end_time": 6.1454545,
                "pitch": 57,
                "velocity": 80,
                "duration": 0.1522727,
                "tempo": 120.0
            },
            {
                "start_time": 6.1613636,
                "end_time": 6.3113636,
                "pitch": 63,
                "velocity": 80,
                "duration": 0.15,
                "tempo": 120.0
            },
            {
                "start_time": 6.3295455,
                "end_time": 6.4795455,
                "pitch": 62,
                "velocity": 80,
                "duration": 0.15,
                "tempo": 120.0
            },
            {
                "start_time": 6.4954545,
                "end_time": 6.65,
                "pitch": 60,
                "velocity": 80,
                "duration": 0.1545455,
                "tempo": 120.0
            },
            {
                "start_time": 6.6681818,
                "end_time": 6.9909091,
                "pitch": 57,
                "velocity": 80,
                "duration": 0.3227273,
                "tempo": 120.0
            },
            {
                "start_time": 7.0090909,
                "end_time": 7.1590909,
                "pitch": 57,
                "velocity": 80,
                "duration": 0.15,
                "tempo": 120.0
            },
            {
                "start_time": 7.175,
                "end_time": 7.3272727,
                "pitch": 60,
                "velocity": 80,
                "duration": 0.1522727,
                "tempo": 120.0
            },
            {
                "start_time": 7.3431818,
                "end_time": 7.4931818,
                "pitch": 57,
                "velocity": 80,
                "duration": 0.15,
                "tempo": 120.0
            },
            {
                "start_time": 7.5113636,
                "end_time": 7.8363636,
                "pitch": 53,
                "velocity": 80,
                "duration": 0.325,
                "tempo": 120.0
            },
            {
                "start_time": 7.8545455,
                "end_time": 8.1727273,
                "pitch": 52,
                "velocity": 80,
                "duration": 0.3181818,
                "tempo": 120.0
            },
            {
                "start_time": 8.1886364,
                "end_time": 8.3409091,
                "pitch": 57,
                "velocity": 80,
                "duration": 0.1522727,
                "tempo": 120.0
            },
            {
                "start_time": 8.3568182,
                "end_time": 8.5068182,
                "pitch": 57,
                "velocity": 80,
                "duration": 0.15,
                "tempo": 120.0
            },
            {
                "start_time": 8.525,
                "end_time": 8.6795455,
                "pitch": 60,
                "velocity": 80,
                "duration": 0.1545455,
                "tempo": 120.0
            },
            {
                "start_time": 8.6954545,
                "end_time": 8.8522727,
                "pitch": 57,
                "velocity": 80,
                "duration": 0.1568182,
                "tempo": 120.0
            },
            {
                "start_time": 8.8681818,
                "end_time": 9.0204545,
                "pitch": 63,
                "velocity": 80,
                "duration": 0.1522727,
                "tempo": 120.0
            },
            {
                "start_time": 9.0363636,
                "end_time": 9.1863636,
                "pitch": 62,
                "velocity": 80,
                "duration": 0.15,
                "tempo": 120.0
            },
            {
                "start_time": 9.2045455,
                "end_time": 9.3545455,
                "pitch": 60,
                "velocity": 80,
                "duration": 0.15,
                "tempo": 120.0
            },
            {
                "start_time": 9.3704545,
                "end_time": 9.6886364,
                "pitch": 57,
                "velocity": 80,
                "duration": 0.3181818,
                "tempo": 120.0
            },
            {
                "start_time": 9.7068182,
                "end_time": 9.8568182,
                "pitch": 57,
                "velocity": 80,
                "duration": 0.15,
                "tempo": 120.0
            },
            {
                "start_time": 9.8727273,
                "end_time": 10.0295455,
                "pitch": 60,
                "velocity": 80,
                "duration": 0.1568182,
                "tempo": 120.0
            },
            {
                "start_time": 10.0454545,
                "end_time": 10.2,
                "pitch": 57,
                "velocity": 80,
                "duration": 0.1545455,
                "tempo": 120.0
            },
            {
                "start_time": 10.2181818,
                "end_time": 10.5363636,
                "pitch": 55,
                "velocity": 80,
                "duration": 0.3181818,
                "tempo": 120.0
            },
            {
                "start_time": 10.5522727,
                "end_time": 10.8795455,
                "pitch": 56,
                "velocity": 80,
                "duration": 0.3272727,
                "tempo": 120.0
            },
            {
                "start_time": 10.8977273,
                "end_time": 11.0477273,
                "pitch": 57,
                "velocity": 80,
                "duration": 0.15,
                "tempo": 120.0
            },
            {
                "start_time": 11.0636364,
                "end_time": 11.2159091,
                "pitch": 57,
                "velocity": 80,
                "duration": 0.1522727,
                "tempo": 120.0
            },
            {
                "start_time": 11.2318182,
                "end_time": 11.3818182,
                "pitch": 60,
                "velocity": 80,
                "duration": 0.15,
                "tempo": 120.0
            },
            {
                "start_time": 11.4,
                "end_time": 11.55,
                "pitch": 57,
                "velocity": 80,
                "duration": 0.15,
                "tempo": 120.0
            },
            {
                "start_time": 11.5659091,
                "end_time": 11.7181818,
                "pitch": 63,
                "velocity": 80,
                "duration": 0.1522727,
                "tempo": 120.0
            },
            {
                "start_time": 11.7340909,
                "end_time": 11.8840909,
                "pitch": 62,
                "velocity": 80,
                "duration": 0.15,
                "tempo": 120.0
            },
            {
                "start_time": 11.9022727,
                "end_time": 12.0568182,
                "pitch": 60,
                "velocity": 80,
                "duration": 0.1545455,
                "tempo": 120.0
            },
            {
                "start_time": 12.075,
                "end_time": 12.3977273,
                "pitch": 57,
                "velocity": 80,
                "duration": 0.3227273,
                "tempo": 120.0
            },
            {
                "start_time": 12.4136364,
                "end_time": 12.5636364,
                "pitch": 57,
                "velocity": 80,
                "duration": 0.15,
                "tempo": 120.0
            },
            {
                "start_time": 12.5818182,
                "end_time": 12.7363636,
                "pitch": 60,
                "velocity": 80,
                "duration": 0.1545455,
                "tempo": 120.0
            },
            {
                "start_time": 12.7522727,
                "end_time": 12.9090909,
                "pitch": 57,
                "velocity": 80,
                "duration": 0.1568182,
                "tempo": 120.0
            },
            {
                "start_time": 12.925,
                "end_time": 13.2431818,
                "pitch": 53,
                "velocity": 80,
                "duration": 0.3181818,
                "tempo": 120.0
            },
            {
                "start_time": 13.2613636,
                "end_time": 13.5795455,
                "pitch": 52,
                "velocity": 80,
                "duration": 0.3181818,
                "tempo": 120.0
            },
            {
                "start_time": 13.5954545,
                "end_time": 13.7454545,
                "pitch": 57,
                "velocity": 80,
                "duration": 0.15,
                "tempo": 120.0
            },
            {
                "start_time": 13.7636364,
                "end_time": 13.9136364,
                "pitch": 57,
                "velocity": 80,
                "duration": 0.15,
                "tempo": 120.0
            },
            {
                "start_time": 13.9295455,
                "end_time": 14.0840909,
                "pitch": 60,
                "velocity": 80,
                "duration": 0.1545455,
                "tempo": 120.0
            },
            {
                "start_time": 14.1022727,
                "end_time": 14.2568182,
                "pitch": 57,
                "velocity": 80,
                "duration": 0.1545455,
                "tempo": 120.0
            },
            {
                "start_time": 14.275,
                "end_time": 14.425,
                "pitch": 63,
                "velocity": 80,
                "duration": 0.15,
                "tempo": 120.0
            },
            {
                "start_time": 14.4409091,
                "end_time": 14.5931818,
                "pitch": 62,
                "velocity": 80,
                "duration": 0.1522727,
                "tempo": 120.0
            },
            {
                "start_time": 14.6090909,
                "end_time": 14.7636364,
                "pitch": 60,
                "velocity": 80,
                "duration": 0.1545455,
                "tempo": 120.0
            },
            {
                "start_time": 14.7818182,
                "end_time": 15.1045455,
                "pitch": 57,
                "velocity": 80,
                "duration": 0.3227273,
                "tempo": 120.0
            },
            {
                "start_time": 15.1204545,
                "end_time": 15.2727273,
                "pitch": 57,
                "velocity": 80,
                "duration": 0.1522727,
                "tempo": 120.0
            },
            {
                "start_time": 15.2886364,
                "end_time": 15.4386364,
                "pitch": 60,
                "velocity": 80,
                "duration": 0.15,
                "tempo": 120.0
            },
            {
                "start_time": 15.4568182,
                "end_time": 15.6068182,
                "pitch": 57,
                "velocity": 80,
                "duration": 0.15,
                "tempo": 120.0
            },
            {
                "start_time": 15.6227273,
                "end_time": 15.9409091,
                "pitch": 55,
                "velocity": 80,
                "duration": 0.3181818,
                "tempo": 120.0
            },
            {
                "start_time": 15.9590909,
                "end_time": 16.2863636,
                "pitch": 56,
                "velocity": 80,
                "duration": 0.3272727,
                "tempo": 120.0
            },
            {
                "start_time": 16.3022727,
                "end_time": 16.4545455,
                "pitch": 57,
                "velocity": 80,
                "duration": 0.1522727,
                "tempo": 120.0
            },
            {
                "start_time": 16.4704545,
                "end_time": 16.6204545,
                "pitch": 57,
                "velocity": 80,
                "duration": 0.15,
                "tempo": 120.0
            },
            {
                "start_time": 16.6386364,
                "end_time": 16.7931818,
                "pitch": 60,
                "velocity": 80,
                "duration": 0.1545455,
                "tempo": 120.0
            },
            {
                "start_time": 16.8090909,
                "end_time": 16.9636364,
                "pitch": 57,
                "velocity": 80,
                "duration": 0.1545455,
                "tempo": 120.0
            },
            {
                "start_time": 16.9818182,
                "end_time": 17.1318182,
                "pitch": 63,
                "velocity": 80,
                "duration": 0.15,
                "tempo": 120.0
            },
            {
                "start_time": 17.15,
                "end_time": 17.3,
                "pitch": 62,
                "velocity": 80,
                "duration": 0.15,
                "tempo": 120.0
            },
            {
                "start_time": 17.3159091,
                "end_time": 17.4727273,
                "pitch": 60,
                "velocity": 80,
                "duration": 0.1568182,
                "tempo": 120.0
            },
            {
                "start_time": 17.4886364,
                "end_time": 17.8068182,
                "pitch": 57,
                "velocity": 80,
                "duration": 0.3181818,
                "tempo": 120.0
            },
            {
                "start_time": 17.8227273,
                "end_time": 17.9681818,
                "pitch": 57,
                "velocity": 80,
                "duration": 0.1454545,
                "tempo": 120.0
            },
            {
                "start_time": 17.9840909,
                "end_time": 18.1409091,
                "pitch": 60,
                "velocity": 80,
                "duration": 0.1568182,
                "tempo": 120.0
            },
            {
                "start_time": 18.1568182,
                "end_time": 18.3113636,
                "pitch": 57,
                "velocity": 80,
                "duration": 0.1545455,
                "tempo": 120.0
            },
            {
                "start_time": 18.3295455,
                "end_time": 18.6477273,
                "pitch": 53,
                "velocity": 80,
                "duration": 0.3181818,
                "tempo": 120.0
            },
            {
                "start_time": 18.6636364,
                "end_time": 18.9909091,
                "pitch": 52,
                "velocity": 80,
                "duration": 0.3272727,
                "tempo": 120.0
            },
            {
                "start_time": 19.0090909,
                "end_time": 19.1590909,
                "pitch": 57,
                "velocity": 80,
                "duration": 0.15,
                "tempo": 120.0
            },
            {
                "start_time": 19.175,
                "end_time": 19.3272727,
                "pitch": 57,
                "velocity": 80,
                "duration": 0.1522727,
                "tempo": 120.0
            },
            {
                "start_time": 19.3431818,
                "end_time": 19.4931818,
                "pitch": 60,
                "velocity": 80,
                "duration": 0.15,
                "tempo": 120.0
            },
            {
                "start_time": 19.5113636,
                "end_time": 19.6613636,
                "pitch": 57,
                "velocity": 80,
                "duration": 0.15,
                "tempo": 120.0
            },
            {
                "start_time": 19.6772727,
                "end_time": 19.8295455,
                "pitch": 63,
                "velocity": 80,
                "duration": 0.1522727,
                "tempo": 120.0
            },
            {
                "start_time": 19.8454545,
                "end_time": 19.9954545,
                "pitch": 62,
                "velocity": 80,
                "duration": 0.15,
                "tempo": 120.0
            },
            {
                "start_time": 20.0136364,
                "end_time": 20.1681818,
                "pitch": 60,
                "velocity": 80,
                "duration": 0.1545455,
                "tempo": 120.0
            },
            {
                "start_time": 20.1863636,
                "end_time": 20.5090909,
                "pitch": 57,
                "velocity": 80,
                "duration": 0.3227273,
                "tempo": 120.0
            },
            {
                "start_time": 20.525,
                "end_time": 20.675,
                "pitch": 57,
                "velocity": 80,
                "duration": 0.15,
                "tempo": 120.0
            },
            {
                "start_time": 20.6931818,
                "end_time": 20.8477273,
                "pitch": 60,
                "velocity": 80,
                "duration": 0.1545455,
                "tempo": 120.0
            },
            {
                "start_time": 20.8636364,
                "end_time": 21.0204545,
                "pitch": 57,
                "velocity": 80,
                "duration": 0.1568182,
                "tempo": 120.0
            },
            {
                "start_time": 21.0363636,
                "end_time": 21.3431818,
                "pitch": 55,
                "velocity": 80,
                "duration": 0.3068182,
                "tempo": 120.0
            },
            {
                "start_time": 21.3613636,
                "end_time": 21.6886364,
                "pitch": 56,
                "velocity": 80,
                "duration": 0.3272727,
                "tempo": 120.0
            },
            {
                "start_time": 22.0386364,
                "end_time": 22.1909091,
                "pitch": 75,
                "velocity": 80,
                "duration": 0.1522727,
                "tempo": 120.0
            },
            {
                "start_time": 22.2068182,
                "end_time": 22.3568182,
                "pitch": 75,
                "velocity": 80,
                "duration": 0.15,
                "tempo": 120.0
            },
            {
                "start_time": 23.0522727,
                "end_time": 23.2022727,
                "pitch": 74,
                "velocity": 80,
                "duration": 0.15,
                "tempo": 120.0
            },
            {
                "start_time": 23.2204545,
                "end_time": 23.3704545,
                "pitch": 74,
                "velocity": 80,
                "duration": 0.15,
                "tempo": 120.0
            },
            {
                "start_time": 24.4022727,
                "end_time": 24.5522727,
                "pitch": 75,
                "velocity": 80,
                "duration": 0.15,
                "tempo": 120.0
            },
            {
                "start_time": 24.5681818,
                "end_time": 24.7204545,
                "pitch": 75,
                "velocity": 80,
                "duration": 0.1522727,
                "tempo": 120.0
            },
            {
                "start_time": 25.4159091,
                "end_time": 25.5704545,
                "pitch": 74,
                "velocity": 80,
                "duration": 0.1545455,
                "tempo": 120.0
            },
            {
                "start_time": 25.5886364,
                "end_time": 25.7431818,
                "pitch": 74,
                "velocity": 80,
                "duration": 0.1545455,
                "tempo": 120.0
            },
            {
                "start_time": 26.7636364,
                "end_time": 26.9181818,
                "pitch": 78,
                "velocity": 80,
                "duration": 0.1545455,
                "tempo": 120.0
            },
            {
                "start_time": 26.9363636,
                "end_time": 27.0909091,
                "pitch": 78,
                "velocity": 80,
                "duration": 0.1545455,
                "tempo": 120.0
            },
            {
                "start_time": 27.7840909,
                "end_time": 27.9363636,
                "pitch": 77,
                "velocity": 80,
                "duration": 0.1522727,
                "tempo": 120.0
            },
            {
                "start_time": 27.9522727,
                "end_time": 28.1022727,
                "pitch": 77,
                "velocity": 80,
                "duration": 0.15,
                "tempo": 120.0
            },
            {
                "start_time": 29.1340909,
                "end_time": 29.2840909,
                "pitch": 78,
                "velocity": 80,
                "duration": 0.15,
                "tempo": 120.0
            },
            {
                "start_time": 29.3022727,
                "end_time": 29.4522727,
                "pitch": 78,
                "velocity": 80,
                "duration": 0.15,
                "tempo": 120.0
            },
            {
                "start_time": 30.1477273,
                "end_time": 30.3045455,
                "pitch": 77,
                "velocity": 80,
                "duration": 0.1568182,
                "tempo": 120.0
            },
            {
                "start_time": 30.3204545,
                "end_time": 30.475,
                "pitch": 77,
                "velocity": 80,
                "duration": 0.1545455,
                "tempo": 120.0
            },
            {
                "start_time": 31.4954545,
                "end_time": 31.6477273,
                "pitch": 75,
                "velocity": 80,
                "duration": 0.1522727,
                "tempo": 120.0
            },
            {
                "start_time": 31.6636364,
                "end_time": 31.8136364,
                "pitch": 75,
                "velocity": 80,
                "duration": 0.15,
                "tempo": 120.0
            },
            {
                "start_time": 32.5113636,
                "end_time": 32.6659091,
                "pitch": 74,
                "velocity": 80,
                "duration": 0.1545455,
                "tempo": 120.0
            },
            {
                "start_time": 32.6818182,
                "end_time": 32.8386364,
                "pitch": 74,
                "velocity": 80,
                "duration": 0.1568182,
                "tempo": 120.0
            },
            {
                "start_time": 33.8568182,
                "end_time": 34.0090909,
                "pitch": 75,
                "velocity": 80,
                "duration": 0.1522727,
                "tempo": 120.0
            },
            {
                "start_time": 34.025,
                "end_time": 34.175,
                "pitch": 75,
                "velocity": 80,
                "duration": 0.15,
                "tempo": 120.0
            },
            {
                "start_time": 34.8818182,
                "end_time": 35.0318182,
                "pitch": 74,
                "velocity": 80,
                "duration": 0.15,
                "tempo": 120.0
            },
            {
                "start_time": 35.05,
                "end_time": 35.2,
                "pitch": 74,
                "velocity": 80,
                "duration": 0.15,
                "tempo": 120.0
            },
            {
                "start_time": 36.2318182,
                "end_time": 36.3818182,
                "pitch": 78,
                "velocity": 80,
                "duration": 0.15,
                "tempo": 120.0
            },
            {
                "start_time": 36.3977273,
                "end_time": 36.55,
                "pitch": 78,
                "velocity": 80,
                "duration": 0.1522727,
                "tempo": 120.0
            },
            {
                "start_time": 37.2454545,
                "end_time": 37.4,
                "pitch": 77,
                "velocity": 80,
                "duration": 0.1545455,
                "tempo": 120.0
            },
            {
                "start_time": 37.4181818,
                "end_time": 37.5727273,
                "pitch": 77,
                "velocity": 80,
                "duration": 0.1545455,
                "tempo": 120.0
            },
            {
                "start_time": 38.5931818,
                "end_time": 38.7431818,
                "pitch": 78,
                "velocity": 80,
                "duration": 0.15,
                "tempo": 120.0
            },
            {
                "start_time": 38.7590909,
                "end_time": 38.9113636,
                "pitch": 78,
                "velocity": 80,
                "duration": 0.1522727,
                "tempo": 120.0
            },
            {
                "start_time": 39.6068182,
                "end_time": 39.7613636,
                "pitch": 77,
                "velocity": 80,
                "duration": 0.1545455,
                "tempo": 120.0
            },
            {
                "start_time": 39.7795455,
                "end_time": 39.9340909,
                "pitch": 77,
                "velocity": 80,
                "duration": 0.1545455,
                "tempo": 120.0
            }
        ],
        "Acoustic Bass": [
            {
                "start_time": 0.0,
                "end_time": 0.1613636,
                "pitch": 45,
                "velocity": 64,
                "duration": 0.1613636,
                "tempo": 120.0
            },
            {
                "start_time": 0.1818182,
                "end_time": 0.3636364,
                "pitch": 45,
                "velocity": 64,
                "duration": 0.1818182,
                "tempo": 120.0
            },
            {
                "start_time": 0.3840909,
                "end_time": 0.5363636,
                "pitch": 48,
                "velocity": 64,
                "duration": 0.1522727,
                "tempo": 120.0
            },
            {
                "start_time": 0.5522727,
                "end_time": 0.7022727,
                "pitch": 45,
                "velocity": 64,
                "duration": 0.15,
                "tempo": 120.0
            },
            {
                "start_time": 0.7204545,
                "end_time": 0.8704545,
                "pitch": 51,
                "velocity": 64,
                "duration": 0.15,
                "tempo": 120.0
            },
            {
                "start_time": 0.8863636,
                "end_time": 1.0386364,
                "pitch": 50,
                "velocity": 64,
                "duration": 0.1522727,
                "tempo": 120.0
            },
            {
                "start_time": 1.0545455,
                "end_time": 1.2272727,
                "pitch": 48,
                "velocity": 64,
                "duration": 0.1727273,
                "tempo": 120.0
            },
            {
                "start_time": 1.2431818,
                "end_time": 1.5704545,
                "pitch": 45,
                "velocity": 64,
                "duration": 0.3272727,
                "tempo": 120.0
            },
            {
                "start_time": 1.5886364,
                "end_time": 1.7431818,
                "pitch": 45,
                "velocity": 64,
                "duration": 0.1545455,
                "tempo": 120.0
            },
            {
                "start_time": 1.7613636,
                "end_time": 1.9159091,
                "pitch": 48,
                "velocity": 64,
                "duration": 0.1545455,
                "tempo": 120.0
            },
            {
                "start_time": 1.9318182,
                "end_time": 2.0886364,
                "pitch": 45,
                "velocity": 64,
                "duration": 0.1568182,
                "tempo": 120.0
            },
            {
                "start_time": 2.1045455,
                "end_time": 2.4227273,
                "pitch": 53,
                "velocity": 64,
                "duration": 0.3181818,
                "tempo": 120.0
            },
            {
                "start_time": 2.4386364,
                "end_time": 2.7659091,
                "pitch": 52,
                "velocity": 64,
                "duration": 0.3272727,
                "tempo": 120.0
            },
            {
                "start_time": 2.7840909,
                "end_time": 2.9340909,
                "pitch": 45,
                "velocity": 64,
                "duration": 0.15,
                "tempo": 120.0
            },
            {
                "start_time": 2.9522727,
                "end_time": 3.1022727,
                "pitch": 45,
                "velocity": 64,
                "duration": 0.15,
                "tempo": 120.0
            },
            {
                "start_time": 3.1181818,
                "end_time": 3.2704545,
                "pitch": 48,
                "velocity": 64,
                "duration": 0.1522727,
                "tempo": 120.0
            },
            {
                "start_time": 3.2863636,
                "end_time": 3.4363636,
                "pitch": 45,
                "velocity": 64,
                "duration": 0.15,
                "tempo": 120.0
            },
            {
                "start_time": 3.4545455,
                "end_time": 3.6045455,
                "pitch": 51,
                "velocity": 64,
                "duration": 0.15,
                "tempo": 120.0
            },
            {
                "start_time": 3.6204545,
                "end_time": 3.7727273,
                "pitch": 50,
                "velocity": 64,
                "duration": 0.1522727,
                "tempo": 120.0
            },
            {
                "start_time": 3.7886364,
                "end_time": 3.9431818,
                "pitch": 48,
                "velocity": 64,
                "duration": 0.1545455,
                "tempo": 120.0
            },
            {
                "start_time": 3.9613636,
                "end_time": 4.2840909,
                "pitch": 45,
                "velocity": 64,
                "duration": 0.3227273,
                "tempo": 120.0
            },
            {
                "start_time": 4.3,
                "end_time": 4.4522727,
                "pitch": 45,
                "velocity": 64,
                "duration": 0.1522727,
                "tempo": 120.0
            },
            {
                "start_time": 4.4681818,
                "end_time": 4.6227273,
                "pitch": 48,
                "velocity": 64,
                "duration": 0.1545455,
                "tempo": 120.0
            },
            {
                "start_time": 4.6409091,
                "end_time": 4.7954545,
                "pitch": 45,
                "velocity": 64,
                "duration": 0.1545455,
                "tempo": 120.0
            },
            {
                "start_time": 4.8113636,
                "end_time": 5.1295455,
                "pitch": 43,
                "velocity": 64,
                "duration": 0.3181818,
                "tempo": 120.0
            },
            {
                "start_time": 5.1477273,
                "end_time": 5.4659091,
                "pitch": 44,
                "velocity": 64,
                "duration": 0.3181818,
                "tempo": 120.0
            },
            {
                "start_time": 5.4818182,
                "end_time": 5.6363636,
                "pitch": 45,
                "velocity": 64,
                "duration": 0.1545455,
                "tempo": 120.0
            },
            {
                "start_time": 5.6545455,
                "end_time": 5.8090909,
                "pitch": 45,
                "velocity": 64,
                "duration": 0.1545455,
                "tempo": 120.0
            },
            {
                "start_time": 5.8272727,
                "end_time": 5.9772727,
                "pitch": 48,
                "velocity": 64,
                "duration": 0.15,
                "tempo": 120.0
            },
            {
                "start_time": 5.9931818,
                "end_time": 6.1454545,
                "pitch": 45,
                "velocity": 64,
                "duration": 0.1522727,
                "tempo": 120.0
            },
            {
                "start_time": 6.1613636,
                "end_time": 6.3113636,
                "pitch": 51,
                "velocity": 64,
                "duration": 0.15,
                "tempo": 120.0
            },
            {
                "start_time": 6.3295455,
                "end_time": 6.4795455,
                "pitch": 50,
                "velocity": 64,
                "duration": 0.15,
                "tempo": 120.0
            },
            {
                "start_time": 6.4954545,
                "end_time": 6.65,
                "pitch": 48,
                "velocity": 64,
                "duration": 0.1545455,
                "tempo": 120.0
            },
            {
                "start_time": 6.6681818,
                "end_time": 6.9909091,
                "pitch": 45,
                "velocity": 64,
                "duration": 0.3227273,
                "tempo": 120.0
            },
            {
                "start_time": 7.0090909,
                "end_time": 7.1590909,
                "pitch": 45,
                "velocity": 64,
                "duration": 0.15,
                "tempo": 120.0
            },
            {
                "start_time": 7.175,
                "end_time": 7.3272727,
                "pitch": 48,
                "velocity": 64,
                "duration": 0.1522727,
                "tempo": 120.0
            },
            {
                "start_time": 7.3431818,
                "end_time": 7.4931818,
                "pitch": 45,
                "velocity": 64,
                "duration": 0.15,
                "tempo": 120.0
            },
            {
                "start_time": 7.5113636,
                "end_time": 7.8363636,
                "pitch": 53,
                "velocity": 64,
                "duration": 0.325,
                "tempo": 120.0
            },
            {
                "start_time": 7.8545455,
                "end_time": 8.1727273,
                "pitch": 52,
                "velocity": 64,
                "duration": 0.3181818,
                "tempo": 120.0
            },
            {
                "start_time": 8.1886364,
                "end_time": 8.3409091,
                "pitch": 45,
                "velocity": 64,
                "duration": 0.1522727,
                "tempo": 120.0
            },
            {
                "start_time": 8.3568182,
                "end_time": 8.5068182,
                "pitch": 45,
                "velocity": 64,
                "duration": 0.15,
                "tempo": 120.0
            },
            {
                "start_time": 8.525,
                "end_time": 8.6795455,
                "pitch": 48,
                "velocity": 64,
                "duration": 0.1545455,
                "tempo": 120.0
            },
            {
                "start_time": 8.6954545,
                "end_time": 8.8522727,
                "pitch": 45,
                "velocity": 64,
                "duration": 0.1568182,
                "tempo": 120.0
            },
            {
                "start_time": 8.8681818,
                "end_time": 9.0204545,
                "pitch": 51,
                "velocity": 64,
                "duration": 0.1522727,
                "tempo": 120.0
            },
            {
                "start_time": 9.0363636,
                "end_time": 9.1863636,
                "pitch": 50,
                "velocity": 64,
                "duration": 0.15,
                "tempo": 120.0
            },
            {
                "start_time": 9.2045455,
                "end_time": 9.3545455,
                "pitch": 48,
                "velocity": 64,
                "duration": 0.15,
                "tempo": 120.0
            },
            {
                "start_time": 9.3704545,
                "end_time": 9.6886364,
                "pitch": 45,
                "velocity": 64,
                "duration": 0.3181818,
                "tempo": 120.0
            },
            {
                "start_time": 9.7068182,
                "end_time": 9.8568182,
                "pitch": 45,
                "velocity": 64,
                "duration": 0.15,
                "tempo": 120.0
            },
            {
                "start_time": 9.8727273,
                "end_time": 10.0295455,
                "pitch": 48,
                "velocity": 64,
                "duration": 0.1568182,
                "tempo": 120.0
            },
            {
                "start_time": 10.0454545,
                "end_time": 10.2,
                "pitch": 45,
                "velocity": 64,
                "duration": 0.1545455,
                "tempo": 120.0
            },
            {
                "start_time": 10.2181818,
                "end_time": 10.5363636,
                "pitch": 43,
                "velocity": 64,
                "duration": 0.3181818,
                "tempo": 120.0
            },
            {
                "start_time": 10.5522727,
                "end_time": 10.8795455,
                "pitch": 44,
                "velocity": 64,
                "duration": 0.3272727,
                "tempo": 120.0
            },
            {
                "start_time": 10.8977273,
                "end_time": 11.0477273,
                "pitch": 45,
                "velocity": 64,
                "duration": 0.15,
                "tempo": 120.0
            },
            {
                "start_time": 11.0636364,
                "end_time": 11.2159091,
                "pitch": 45,
                "velocity": 64,
                "duration": 0.1522727,
                "tempo": 120.0
            },
            {
                "start_time": 11.2318182,
                "end_time": 11.3818182,
                "pitch": 48,
                "velocity": 64,
                "duration": 0.15,
                "tempo": 120.0
            },
            {
                "start_time": 11.4,
                "end_time": 11.55,
                "pitch": 45,
                "velocity": 64,
                "duration": 0.15,
                "tempo": 120.0
            },
            {
                "start_time": 11.5659091,
                "end_time": 11.7181818,
                "pitch": 51,
                "velocity": 64,
                "duration": 0.1522727,
                "tempo": 120.0
            },
            {
                "start_time": 11.7340909,
                "end_time": 11.8840909,
                "pitch": 50,
                "velocity": 64,
                "duration": 0.15,
                "tempo": 120.0
            },
            {
                "start_time": 11.9022727,
                "end_time": 12.0568182,
                "pitch": 48,
                "velocity": 64,
                "duration": 0.1545455,
                "tempo": 120.0
            },
            {
                "start_time": 12.075,
                "end_time": 12.3977273,
                "pitch": 45,
                "velocity": 64,
                "duration": 0.3227273,
                "tempo": 120.0
            },
            {
                "start_time": 12.4136364,
                "end_time": 12.5636364,
                "pitch": 45,
                "velocity": 64,
                "duration": 0.15,
                "tempo": 120.0
            },
            {
                "start_time": 12.5818182,
                "end_time": 12.7363636,
                "pitch": 48,
                "velocity": 64,
                "duration": 0.1545455,
                "tempo": 120.0
            },
            {
                "start_time": 12.7522727,
                "end_time": 12.9090909,
                "pitch": 45,
                "velocity": 64,
                "duration": 0.1568182,
                "tempo": 120.0
            },
            {
                "start_time": 12.925,
                "end_time": 13.2431818,
                "pitch": 53,
                "velocity": 64,
                "duration": 0.3181818,
                "tempo": 120.0
            },
            {
                "start_time": 13.2613636,
                "end_time": 13.5795455,
                "pitch": 52,
                "velocity": 64,
                "duration": 0.3181818,
                "tempo": 120.0
            },
            {
                "start_time": 13.5954545,
                "end_time": 13.7454545,
                "pitch": 45,
                "velocity": 64,
                "duration": 0.15,
                "tempo": 120.0
            },
            {
                "start_time": 13.7636364,
                "end_time": 13.9136364,
                "pitch": 45,
                "velocity": 64,
                "duration": 0.15,
                "tempo": 120.0
            },
            {
                "start_time": 13.9295455,
                "end_time": 14.0840909,
                "pitch": 48,
                "velocity": 64,
                "duration": 0.1545455,
                "tempo": 120.0
            },
            {
                "start_time": 14.1022727,
                "end_time": 14.2568182,
                "pitch": 45,
                "velocity": 64,
                "duration": 0.1545455,
                "tempo": 120.0
            },
            {
                "start_time": 14.275,
                "end_time": 14.425,
                "pitch": 51,
                "velocity": 64,
                "duration": 0.15,
                "tempo": 120.0
            },
            {
                "start_time": 14.4409091,
                "end_time": 14.5931818,
                "pitch": 50,
                "velocity": 64,
                "duration": 0.1522727,
                "tempo": 120.0
            },
            {
                "start_time": 14.6090909,
                "end_time": 14.7636364,
                "pitch": 48,
                "velocity": 64,
                "duration": 0.1545455,
                "tempo": 120.0
            },
            {
                "start_time": 14.7818182,
                "end_time": 15.1045455,
                "pitch": 45,
                "velocity": 64,
                "duration": 0.3227273,
                "tempo": 120.0
            },
            {
                "start_time": 15.1204545,
                "end_time": 15.2727273,
                "pitch": 45,
                "velocity": 64,
                "duration": 0.1522727,
                "tempo": 120.0
            },
            {
                "start_time": 15.2886364,
                "end_time": 15.4386364,
                "pitch": 48,
                "velocity": 64,
                "duration": 0.15,
                "tempo": 120.0
            },
            {
                "start_time": 15.4568182,
                "end_time": 15.6068182,
                "pitch": 45,
                "velocity": 64,
                "duration": 0.15,
                "tempo": 120.0
            },
            {
                "start_time": 15.6227273,
                "end_time": 15.9409091,
                "pitch": 43,
                "velocity": 64,
                "duration": 0.3181818,
                "tempo": 120.0
            },
            {
                "start_time": 15.9590909,
                "end_time": 16.2863636,
                "pitch": 44,
                "velocity": 64,
                "duration": 0.3272727,
                "tempo": 120.0
            },
            {
                "start_time": 16.3022727,
                "end_time": 16.4545455,
                "pitch": 45,
                "velocity": 64,
                "duration": 0.1522727,
                "tempo": 120.0
            },
            {
                "start_time": 16.4704545,
                "end_time": 16.6204545,
                "pitch": 45,
                "velocity": 64,
                "duration": 0.15,
                "tempo": 120.0
            },
            {
                "start_time": 16.6386364,
                "end_time": 16.7931818,
                "pitch": 48,
                "velocity": 64,
                "duration": 0.1545455,
                "tempo": 120.0
            },
            {
                "start_time": 16.8090909,
                "end_time": 16.9636364,
                "pitch": 45,
                "velocity": 64,
                "duration": 0.1545455,
                "tempo": 120.0
            },
            {
                "start_time": 16.9818182,
                "end_time": 17.1318182,
                "pitch": 51,
                "velocity": 64,
                "duration": 0.15,
                "tempo": 120.0
            },
            {
                "start_time": 17.15,
                "end_time": 17.3,
                "pitch": 50,
                "velocity": 64,
                "duration": 0.15,
                "tempo": 120.0
            },
            {
                "start_time": 17.3159091,
                "end_time": 17.4727273,
                "pitch": 48,
                "velocity": 64,
                "duration": 0.1568182,
                "tempo": 120.0
            },
            {
                "start_time": 17.4886364,
                "end_time": 17.8068182,
                "pitch": 45,
                "velocity": 64,
                "duration": 0.3181818,
                "tempo": 120.0
            },
            {
                "start_time": 17.8227273,
                "end_time": 17.9681818,
                "pitch": 45,
                "velocity": 64,
                "duration": 0.1454545,
                "tempo": 120.0
            },
            {
                "start_time": 17.9840909,
                "end_time": 18.1409091,
                "pitch": 48,
                "velocity": 64,
                "duration": 0.1568182,
                "tempo": 120.0
            },
            {
                "start_time": 18.1568182,
                "end_time": 18.3113636,
                "pitch": 45,
                "velocity": 64,
                "duration": 0.1545455,
                "tempo": 120.0
            },
            {
                "start_time": 18.3295455,
                "end_time": 18.6477273,
                "pitch": 53,
                "velocity": 64,
                "duration": 0.3181818,
                "tempo": 120.0
            },
            {
                "start_time": 18.6636364,
                "end_time": 18.9909091,
                "pitch": 52,
                "velocity": 64,
                "duration": 0.3272727,
                "tempo": 120.0
            },
            {
                "start_time": 19.0090909,
                "end_time": 19.1590909,
                "pitch": 45,
                "velocity": 64,
                "duration": 0.15,
                "tempo": 120.0
            },
            {
                "start_time": 19.175,
                "end_time": 19.3272727,
                "pitch": 45,
                "velocity": 64,
                "duration": 0.1522727,
                "tempo": 120.0
            },
            {
                "start_time": 19.3431818,
                "end_time": 19.4931818,
                "pitch": 48,
                "velocity": 64,
                "duration": 0.15,
                "tempo": 120.0
            },
            {
                "start_time": 19.5113636,
                "end_time": 19.6613636,
                "pitch": 45,
                "velocity": 64,
                "duration": 0.15,
                "tempo": 120.0
            },
            {
                "start_time": 19.6772727,
                "end_time": 19.8295455,
                "pitch": 51,
                "velocity": 64,
                "duration": 0.1522727,
                "tempo": 120.0
            },
            {
                "start_time": 19.8454545,
                "end_time": 19.9954545,
                "pitch": 50,
                "velocity": 64,
                "duration": 0.15,
                "tempo": 120.0
            },
            {
                "start_time": 20.0136364,
                "end_time": 20.1681818,
                "pitch": 48,
                "velocity": 64,
                "duration": 0.1545455,
                "tempo": 120.0
            },
            {
                "start_time": 20.1863636,
                "end_time": 20.5090909,
                "pitch": 45,
                "velocity": 64,
                "duration": 0.3227273,
                "tempo": 120.0
            },
            {
                "start_time": 20.525,
                "end_time": 20.675,
                "pitch": 45,
                "velocity": 64,
                "duration": 0.15,
                "tempo": 120.0
            },
            {
                "start_time": 20.6931818,
                "end_time": 20.8477273,
                "pitch": 48,
                "velocity": 64,
                "duration": 0.1545455,
                "tempo": 120.0
            },
            {
                "start_time": 20.8636364,
                "end_time": 21.0204545,
                "pitch": 45,
                "velocity": 64,
                "duration": 0.1568182,
                "tempo": 120.0
            },
            {
                "start_time": 21.0363636,
                "end_time": 21.3431818,
                "pitch": 43,
                "velocity": 64,
                "duration": 0.3068182,
                "tempo": 120.0
            },
            {
                "start_time": 21.3613636,
                "end_time": 21.6886364,
                "pitch": 44,
                "velocity": 64,
                "duration": 0.3272727,
                "tempo": 120.0
            },
            {
                "start_time": 21.7045455,
                "end_time": 21.8545455,
                "pitch": 45,
                "velocity": 64,
                "duration": 0.15,
                "tempo": 120.0
            },
            {
                "start_time": 21.8727273,
                "end_time": 22.0227273,
                "pitch": 53,
                "velocity": 64,
                "duration": 0.15,
                "tempo": 120.0
            },
            {
                "start_time": 22.0386364,
                "end_time": 22.1909091,
                "pitch": 57,
                "velocity": 64,
                "duration": 0.1522727,
                "tempo": 120.0
            },
            {
                "start_time": 22.2068182,
                "end_time": 22.3568182,
                "pitch": 57,
                "velocity": 64,
                "duration": 0.15,
                "tempo": 120.0
            },
            {
                "start_time": 22.6977273,
                "end_time": 22.8568182,
                "pitch": 45,
                "velocity": 64,
                "duration": 0.1590909,
                "tempo": 120.0
            },
            {
                "start_time": 22.875,
                "end_time": 23.0340909,
                "pitch": 52,
                "velocity": 64,
                "duration": 0.1590909,
                "tempo": 120.0
            },
            {
                "start_time": 23.0522727,
                "end_time": 23.2022727,
                "pitch": 56,
                "velocity": 64,
                "duration": 0.15,
                "tempo": 120.0
            },
            {
                "start_time": 23.2204545,
                "end_time": 23.3704545,
                "pitch": 56,
                "velocity": 64,
                "duration": 0.15,
                "tempo": 120.0
            },
            {
                "start_time": 24.0659091,
                "end_time": 24.2181818,
                "pitch": 45,
                "velocity": 64,
                "duration": 0.1522727,
                "tempo": 120.0
            },
            {
                "start_time": 24.2340909,
                "end_time": 24.3840909,
                "pitch": 53,
                "velocity": 64,
                "duration": 0.15,
                "tempo": 120.0
            },
            {
                "start_time": 24.4022727,
                "end_time": 24.5522727,
                "pitch": 57,
                "velocity": 64,
                "duration": 0.15,
                "tempo": 120.0
            },
            {
                "start_time": 24.5681818,
                "end_time": 24.7204545,
                "pitch": 57,
                "velocity": 64,
                "duration": 0.1522727,
                "tempo": 120.0
            },
            {
                "start_time": 25.0727273,
                "end_time": 25.2272727,
                "pitch": 45,
                "velocity": 64,
                "duration": 0.1545455,
                "tempo": 120.0
            },
            {
                "start_time": 25.2431818,
                "end_time": 25.3977273,
                "pitch": 52,
                "velocity": 64,
                "duration": 0.1545455,
                "tempo": 120.0
            },
            {
                "start_time": 25.4159091,
                "end_time": 25.5704545,
                "pitch": 56,
                "velocity": 64,
                "duration": 0.1545455,
                "tempo": 120.0
            },
            {
                "start_time": 25.5886364,
                "end_time": 25.7431818,
                "pitch": 56,
                "velocity": 64,
                "duration": 0.1545455,
                "tempo": 120.0
            },
            {
                "start_time": 26.4272727,
                "end_time": 26.5795455,
                "pitch": 48,
                "velocity": 64,
                "duration": 0.1522727,
                "tempo": 120.0
            },
            {
                "start_time": 26.5954545,
                "end_time": 26.7454545,
                "pitch": 56,
                "velocity": 64,
                "duration": 0.15,
                "tempo": 120.0
            },
            {
                "start_time": 26.7636364,
                "end_time": 26.9181818,
                "pitch": 60,
                "velocity": 64,
                "duration": 0.1545455,
                "tempo": 120.0
            },
            {
                "start_time": 26.9363636,
                "end_time": 27.0909091,
                "pitch": 60,
                "velocity": 64,
                "duration": 0.1545455,
                "tempo": 120.0
            },
            {
                "start_time": 27.4318182,
                "end_time": 27.5909091,
                "pitch": 48,
                "velocity": 64,
                "duration": 0.1590909,
                "tempo": 120.0
            },
            {
                "start_time": 27.6090909,
                "end_time": 27.7681818,
                "pitch": 57,
                "velocity": 64,
                "duration": 0.1590909,
                "tempo": 120.0
            },
            {
                "start_time": 27.7840909,
                "end_time": 27.9363636,
                "pitch": 59,
                "velocity": 64,
                "duration": 0.1522727,
                "tempo": 120.0
            },
            {
                "start_time": 27.9522727,
                "end_time": 28.1022727,
                "pitch": 59,
                "velocity": 64,
                "duration": 0.15,
                "tempo": 120.0
            },
            {
                "start_time": 28.8,
                "end_time": 28.95,
                "pitch": 48,
                "velocity": 64,
                "duration": 0.15,
                "tempo": 120.0
            },
            {
                "start_time": 28.9659091,
                "end_time": 29.1181818,
                "pitch": 56,
                "velocity": 64,
                "duration": 0.1522727,
                "tempo": 120.0
            },
            {
                "start_time": 29.1340909,
                "end_time": 29.2840909,
                "pitch": 60,
                "velocity": 64,
                "duration": 0.15,
                "tempo": 120.0
            },
            {
                "start_time": 29.3022727,
                "end_time": 29.4522727,
                "pitch": 60,
                "velocity": 64,
                "duration": 0.15,
                "tempo": 120.0
            },
            {
                "start_time": 29.8045455,
                "end_time": 29.9590909,
                "pitch": 48,
                "velocity": 64,
                "duration": 0.1545455,
                "tempo": 120.0
            },
            {
                "start_time": 29.9772727,
                "end_time": 30.1318182,
                "pitch": 57,
                "velocity": 64,
                "duration": 0.1545455,
                "tempo": 120.0
            },
            {
                "start_time": 30.1477273,
                "end_time": 30.3045455,
                "pitch": 59,
                "velocity": 64,
                "duration": 0.1568182,
                "tempo": 120.0
            },
            {
                "start_time": 30.3204545,
                "end_time": 30.475,
                "pitch": 59,
                "velocity": 64,
                "duration": 0.1545455,
                "tempo": 120.0
            },
            {
                "start_time": 31.1613636,
                "end_time": 31.3113636,
                "pitch": 45,
                "velocity": 64,
                "duration": 0.15,
                "tempo": 120.0
            },
            {
                "start_time": 31.3295455,
                "end_time": 31.4795455,
                "pitch": 53,
                "velocity": 64,
                "duration": 0.15,
                "tempo": 120.0
            },
            {
                "start_time": 31.4954545,
                "end_time": 31.6477273,
                "pitch": 57,
                "velocity": 64,
                "duration": 0.1522727,
                "tempo": 120.0
            },
            {
                "start_time": 31.6636364,
                "end_time": 31.8136364,
                "pitch": 57,
                "velocity": 64,
                "duration": 0.15,
                "tempo": 120.0
            },
            {
                "start_time": 32.1659091,
                "end_time": 32.3204545,
                "pitch": 45,
                "velocity": 64,
                "duration": 0.1545455,
                "tempo": 120.0
            },
            {
                "start_time": 32.3386364,
                "end_time": 32.4931818,
                "pitch": 52,
                "velocity": 64,
                "duration": 0.1545455,
                "tempo": 120.0
            },
            {
                "start_time": 32.5113636,
                "end_time": 32.6659091,
                "pitch": 56,
                "velocity": 64,
                "duration": 0.1545455,
                "tempo": 120.0
            },
            {
                "start_time": 32.6818182,
                "end_time": 32.8386364,
                "pitch": 56,
                "velocity": 64,
                "duration": 0.1568182,
                "tempo": 120.0
            },
            {
                "start_time": 33.5227273,
                "end_time": 33.6727273,
                "pitch": 45,
                "velocity": 64,
                "duration": 0.15,
                "tempo": 120.0
            },
            {
                "start_time": 33.6909091,
                "end_time": 33.8409091,
                "pitch": 53,
                "velocity": 64,
                "duration": 0.15,
                "tempo": 120.0
            },
            {
                "start_time": 33.8568182,
                "end_time": 34.0090909,
                "pitch": 57,
                "velocity": 64,
                "duration": 0.1522727,
                "tempo": 120.0
            },
            {
                "start_time": 34.025,
                "end_time": 34.175,
                "pitch": 57,
                "velocity": 64,
                "duration": 0.15,
                "tempo": 120.0
            },
            {
                "start_time": 34.5272727,
                "end_time": 34.6863636,
                "pitch": 45,
                "velocity": 64,
                "duration": 0.1590909,
                "tempo": 120.0
            },
            {
                "start_time": 34.7045455,
                "end_time": 34.8636364,
                "pitch": 52,
                "velocity": 64,
                "duration": 0.1590909,
                "tempo": 120.0
            },
            {
                "start_time": 34.8818182,
                "end_time": 35.0318182,
                "pitch": 56,
                "velocity": 64,
                "duration": 0.15,
                "tempo": 120.0
            },
            {
                "start_time": 35.05,
                "end_time": 35.2,
                "pitch": 56,
                "velocity": 64,
                "duration": 0.15,
                "tempo": 120.0
            },
            {
                "start_time": 35.8954545,
                "end_time": 36.0454545,
                "pitch": 48,
                "velocity": 64,
                "duration": 0.15,
                "tempo": 120.0
            },
            {
                "start_time": 36.0636364,
                "end_time": 36.2136364,
                "pitch": 56,
                "velocity": 64,
                "duration": 0.15,
                "tempo": 120.0
            },
            {
                "start_time": 36.2318182,
                "end_time": 36.3818182,
                "pitch": 60,
                "velocity": 64,
                "duration": 0.15,
                "tempo": 120.0
            },
            {
                "start_time": 36.3977273,
                "end_time": 36.55,
                "pitch": 60,
                "velocity": 64,
                "duration": 0.1522727,
                "tempo": 120.0
            },
            {
                "start_time": 36.9,
                "end_time": 37.0545455,
                "pitch": 48,
                "velocity": 64,
                "duration": 0.1545455,
                "tempo": 120.0
            },
            {
                "start_time": 37.0727273,
                "end_time": 37.2272727,
                "pitch": 57,
                "velocity": 64,
                "duration": 0.1545455,
                "tempo": 120.0
            },
            {
                "start_time": 37.2454545,
                "end_time": 37.4,
                "pitch": 59,
                "velocity": 64,
                "duration": 0.1545455,
                "tempo": 120.0
            },
            {
                "start_time": 37.4181818,
                "end_time": 37.5727273,
                "pitch": 59,
                "velocity": 64,
                "duration": 0.1545455,
                "tempo": 120.0
            },
            {
                "start_time": 38.2568182,
                "end_time": 38.4090909,
                "pitch": 48,
                "velocity": 64,
                "duration": 0.1522727,
                "tempo": 120.0
            },
            {
                "start_time": 38.425,
                "end_time": 38.575,
                "pitch": 56,
                "velocity": 64,
                "duration": 0.15,
                "tempo": 120.0
            },
            {
                "start_time": 38.5931818,
                "end_time": 38.7431818,
                "pitch": 60,
                "velocity": 64,
                "duration": 0.15,
                "tempo": 120.0
            },
            {
                "start_time": 38.7590909,
                "end_time": 38.9113636,
                "pitch": 60,
                "velocity": 64,
                "duration": 0.1522727,
                "tempo": 120.0
            },
            {
                "start_time": 39.2613636,
                "end_time": 39.4181818,
                "pitch": 48,
                "velocity": 64,
                "duration": 0.1568182,
                "tempo": 120.0
            },
            {
                "start_time": 39.4340909,
                "end_time": 39.5886364,
                "pitch": 57,
                "velocity": 64,
                "duration": 0.1545455,
                "tempo": 120.0
            },
            {
                "start_time": 39.6068182,
                "end_time": 39.7613636,
                "pitch": 59,
                "velocity": 64,
                "duration": 0.1545455,
                "tempo": 120.0
            },
            {
                "start_time": 39.7795455,
                "end_time": 39.9340909,
                "pitch": 59,
                "velocity": 64,
                "duration": 0.1545455,
                "tempo": 120.0
            }
        ],
        "Flute": [
            {
                "start_time": 0.0,
                "end_time": 0.1613636,
                "pitch": 45,
                "velocity": 64,
                "duration": 0.1613636,
                "tempo": 120.0
            },
            {
                "start_time": 0.1818182,
                "end_time": 0.3636364,
                "pitch": 45,
                "velocity": 64,
                "duration": 0.1818182,
                "tempo": 120.0
            },
            {
                "start_time": 0.3840909,
                "end_time": 0.5363636,
                "pitch": 48,
                "velocity": 64,
                "duration": 0.1522727,
                "tempo": 120.0
            },
            {
                "start_time": 0.5522727,
                "end_time": 0.7022727,
                "pitch": 45,
                "velocity": 64,
                "duration": 0.15,
                "tempo": 120.0
            },
            {
                "start_time": 0.7204545,
                "end_time": 0.8704545,
                "pitch": 51,
                "velocity": 64,
                "duration": 0.15,
                "tempo": 120.0
            },
            {
                "start_time": 0.8863636,
                "end_time": 1.0386364,
                "pitch": 50,
                "velocity": 64,
                "duration": 0.1522727,
                "tempo": 120.0
            },
            {
                "start_time": 1.0545455,
                "end_time": 1.2272727,
                "pitch": 48,
                "velocity": 64,
                "duration": 0.1727273,
                "tempo": 120.0
            },
            {
                "start_time": 1.2431818,
                "end_time": 1.5704545,
                "pitch": 45,
                "velocity": 64,
                "duration": 0.3272727,
                "tempo": 120.0
            },
            {
                "start_time": 1.5886364,
                "end_time": 1.7431818,
                "pitch": 45,
                "velocity": 64,
                "duration": 0.1545455,
                "tempo": 120.0
            },
            {
                "start_time": 1.7613636,
                "end_time": 1.9159091,
                "pitch": 48,
                "velocity": 64,
                "duration": 0.1545455,
                "tempo": 120.0
            },
            {
                "start_time": 1.9318182,
                "end_time": 2.0886364,
                "pitch": 45,
                "velocity": 64,
                "duration": 0.1568182,
                "tempo": 120.0
            },
            {
                "start_time": 2.1045455,
                "end_time": 2.4227273,
                "pitch": 69,
                "velocity": 64,
                "duration": 0.3181818,
                "tempo": 120.0
            },
            {
                "start_time": 2.4386364,
                "end_time": 2.7659091,
                "pitch": 68,
                "velocity": 64,
                "duration": 0.3272727,
                "tempo": 120.0
            },
            {
                "start_time": 2.7840909,
                "end_time": 2.9340909,
                "pitch": 45,
                "velocity": 64,
                "duration": 0.15,
                "tempo": 120.0
            },
            {
                "start_time": 2.9522727,
                "end_time": 3.1022727,
                "pitch": 45,
                "velocity": 64,
                "duration": 0.15,
                "tempo": 120.0
            },
            {
                "start_time": 3.1181818,
                "end_time": 3.2704545,
                "pitch": 48,
                "velocity": 64,
                "duration": 0.1522727,
                "tempo": 120.0
            },
            {
                "start_time": 3.2863636,
                "end_time": 3.4363636,
                "pitch": 45,
                "velocity": 64,
                "duration": 0.15,
                "tempo": 120.0
            },
            {
                "start_time": 3.4545455,
                "end_time": 3.6045455,
                "pitch": 51,
                "velocity": 64,
                "duration": 0.15,
                "tempo": 120.0
            },
            {
                "start_time": 3.6204545,
                "end_time": 3.7727273,
                "pitch": 50,
                "velocity": 64,
                "duration": 0.1522727,
                "tempo": 120.0
            },
            {
                "start_time": 3.7886364,
                "end_time": 3.9431818,
                "pitch": 48,
                "velocity": 64,
                "duration": 0.1545455,
                "tempo": 120.0
            },
            {
                "start_time": 3.9613636,
                "end_time": 4.2840909,
                "pitch": 45,
                "velocity": 64,
                "duration": 0.3227273,
                "tempo": 120.0
            },
            {
                "start_time": 4.3,
                "end_time": 4.4522727,
                "pitch": 45,
                "velocity": 64,
                "duration": 0.1522727,
                "tempo": 120.0
            },
            {
                "start_time": 4.4681818,
                "end_time": 4.6227273,
                "pitch": 48,
                "velocity": 64,
                "duration": 0.1545455,
                "tempo": 120.0
            },
            {
                "start_time": 4.6409091,
                "end_time": 4.7954545,
                "pitch": 45,
                "velocity": 64,
                "duration": 0.1545455,
                "tempo": 120.0
            },
            {
                "start_time": 4.8113636,
                "end_time": 5.1295455,
                "pitch": 60,
                "velocity": 64,
                "duration": 0.3181818,
                "tempo": 120.0
            },
            {
                "start_time": 5.1477273,
                "end_time": 5.4659091,
                "pitch": 61,
                "velocity": 64,
                "duration": 0.3181818,
                "tempo": 120.0
            },
            {
                "start_time": 5.4818182,
                "end_time": 5.6363636,
                "pitch": 45,
                "velocity": 64,
                "duration": 0.1545455,
                "tempo": 120.0
            },
            {
                "start_time": 5.6545455,
                "end_time": 5.8090909,
                "pitch": 45,
                "velocity": 64,
                "duration": 0.1545455,
                "tempo": 120.0
            },
            {
                "start_time": 5.8272727,
                "end_time": 5.9772727,
                "pitch": 48,
                "velocity": 64,
                "duration": 0.15,
                "tempo": 120.0
            },
            {
                "start_time": 5.9931818,
                "end_time": 6.1454545,
                "pitch": 45,
                "velocity": 64,
                "duration": 0.1522727,
                "tempo": 120.0
            },
            {
                "start_time": 6.1613636,
                "end_time": 6.3113636,
                "pitch": 51,
                "velocity": 64,
                "duration": 0.15,
                "tempo": 120.0
            },
            {
                "start_time": 6.3295455,
                "end_time": 6.4795455,
                "pitch": 50,
                "velocity": 64,
                "duration": 0.15,
                "tempo": 120.0
            },
            {
                "start_time": 6.4954545,
                "end_time": 6.65,
                "pitch": 48,
                "velocity": 64,
                "duration": 0.1545455,
                "tempo": 120.0
            },
            {
                "start_time": 6.6681818,
                "end_time": 6.9909091,
                "pitch": 45,
                "velocity": 64,
                "duration": 0.3227273,
                "tempo": 120.0
            },
            {
                "start_time": 7.0090909,
                "end_time": 7.1590909,
                "pitch": 45,
                "velocity": 64,
                "duration": 0.15,
                "tempo": 120.0
            },
            {
                "start_time": 7.175,
                "end_time": 7.3272727,
                "pitch": 48,
                "velocity": 64,
                "duration": 0.1522727,
                "tempo": 120.0
            },
            {
                "start_time": 7.3431818,
                "end_time": 7.4931818,
                "pitch": 45,
                "velocity": 64,
                "duration": 0.15,
                "tempo": 120.0
            },
            {
                "start_time": 7.5113636,
                "end_time": 7.8363636,
                "pitch": 69,
                "velocity": 64,
                "duration": 0.325,
                "tempo": 120.0
            },
            {
                "start_time": 7.8545455,
                "end_time": 8.1727273,
                "pitch": 68,
                "velocity": 64,
                "duration": 0.3181818,
                "tempo": 120.0
            },
            {
                "start_time": 8.1886364,
                "end_time": 8.3409091,
                "pitch": 45,
                "velocity": 64,
                "duration": 0.1522727,
                "tempo": 120.0
            },
            {
                "start_time": 8.3568182,
                "end_time": 8.5068182,
                "pitch": 45,
                "velocity": 64,
                "duration": 0.15,
                "tempo": 120.0
            },
            {
                "start_time": 8.525,
                "end_time": 8.6795455,
                "pitch": 48,
                "velocity": 64,
                "duration": 0.1545455,
                "tempo": 120.0
            },
            {
                "start_time": 8.6954545,
                "end_time": 8.8522727,
                "pitch": 45,
                "velocity": 64,
                "duration": 0.1568182,
                "tempo": 120.0
            },
            {
                "start_time": 8.8681818,
                "end_time": 9.0204545,
                "pitch": 51,
                "velocity": 64,
                "duration": 0.1522727,
                "tempo": 120.0
            },
            {
                "start_time": 9.0363636,
                "end_time": 9.1863636,
                "pitch": 50,
                "velocity": 64,
                "duration": 0.15,
                "tempo": 120.0
            },
            {
                "start_time": 9.2045455,
                "end_time": 9.3545455,
                "pitch": 48,
                "velocity": 64,
                "duration": 0.15,
                "tempo": 120.0
            },
            {
                "start_time": 9.3704545,
                "end_time": 9.6886364,
                "pitch": 45,
                "velocity": 64,
                "duration": 0.3181818,
                "tempo": 120.0
            },
            {
                "start_time": 9.7068182,
                "end_time": 9.8568182,
                "pitch": 45,
                "velocity": 64,
                "duration": 0.15,
                "tempo": 120.0
            },
            {
                "start_time": 9.8727273,
                "end_time": 10.0295455,
                "pitch": 48,
                "velocity": 64,
                "duration": 0.1568182,
                "tempo": 120.0
            },
            {
                "start_time": 10.0454545,
                "end_time": 10.2,
                "pitch": 45,
                "velocity": 64,
                "duration": 0.1545455,
                "tempo": 120.0
            },
            {
                "start_time": 10.2181818,
                "end_time": 10.5363636,
                "pitch": 60,
                "velocity": 64,
                "duration": 0.3181818,
                "tempo": 120.0
            },
            {
                "start_time": 10.5522727,
                "end_time": 10.8795455,
                "pitch": 61,
                "velocity": 64,
                "duration": 0.3272727,
                "tempo": 120.0
            },
            {
                "start_time": 10.8977273,
                "end_time": 11.0477273,
                "pitch": 68,
                "velocity": 64,
                "duration": 0.15,
                "tempo": 120.0
            },
            {
                "start_time": 11.0636364,
                "end_time": 12.2295455,
                "pitch": 62,
                "velocity": 64,
                "duration": 1.1659091,
                "tempo": 120.0
            },
            {
                "start_time": 12.925,
                "end_time": 13.2431818,
                "pitch": 69,
                "velocity": 64,
                "duration": 0.3181818,
                "tempo": 120.0
            },
            {
                "start_time": 13.2613636,
                "end_time": 13.5795455,
                "pitch": 68,
                "velocity": 64,
                "duration": 0.3181818,
                "tempo": 120.0
            },
            {
                "start_time": 15.6227273,
                "end_time": 15.9409091,
                "pitch": 60,
                "velocity": 64,
                "duration": 0.3181818,
                "tempo": 120.0
            },
            {
                "start_time": 15.9590909,
                "end_time": 16.2863636,
                "pitch": 61,
                "velocity": 64,
                "duration": 0.3272727,
                "tempo": 120.0
            },
            {
                "start_time": 16.3022727,
                "end_time": 16.4545455,
                "pitch": 68,
                "velocity": 64,
                "duration": 0.1522727,
                "tempo": 120.0
            },
            {
                "start_time": 16.4704545,
                "end_time": 17.6431818,
                "pitch": 62,
                "velocity": 64,
                "duration": 1.1727273,
                "tempo": 120.0
            },
            {
                "start_time": 18.3295455,
                "end_time": 18.6477273,
                "pitch": 69,
                "velocity": 64,
                "duration": 0.3181818,
                "tempo": 120.0
            },
            {
                "start_time": 18.6636364,
                "end_time": 18.9909091,
                "pitch": 68,
                "velocity": 64,
                "duration": 0.3272727,
                "tempo": 120.0
            },
            {
                "start_time": 21.0363636,
                "end_time": 21.3431818,
                "pitch": 60,
                "velocity": 64,
                "duration": 0.3068182,
                "tempo": 120.0
            },
            {
                "start_time": 21.3613636,
                "end_time": 21.6886364,
                "pitch": 61,
                "velocity": 64,
                "duration": 0.3272727,
                "tempo": 120.0
            },
            {
                "start_time": 22.0386364,
                "end_time": 22.1909091,
                "pitch": 66,
                "velocity": 64,
                "duration": 0.1522727,
                "tempo": 120.0
            },
            {
                "start_time": 22.2068182,
                "end_time": 22.3568182,
                "pitch": 66,
                "velocity": 64,
                "duration": 0.15,
                "tempo": 120.0
            },
            {
                "start_time": 23.0522727,
                "end_time": 23.2022727,
                "pitch": 65,
                "velocity": 64,
                "duration": 0.15,
                "tempo": 120.0
            },
            {
                "start_time": 23.2204545,
                "end_time": 23.3704545,
                "pitch": 65,
                "velocity": 64,
                "duration": 0.15,
                "tempo": 120.0
            },
            {
                "start_time": 24.4022727,
                "end_time": 24.5522727,
                "pitch": 66,
                "velocity": 64,
                "duration": 0.15,
                "tempo": 120.0
            },
            {
                "start_time": 24.5681818,
                "end_time": 24.7204545,
                "pitch": 66,
                "velocity": 64,
                "duration": 0.1522727,
                "tempo": 120.0
            },
            {
                "start_time": 25.4159091,
                "end_time": 25.5704545,
                "pitch": 65,
                "velocity": 64,
                "duration": 0.1545455,
                "tempo": 120.0
            },
            {
                "start_time": 25.5886364,
                "end_time": 25.7431818,
                "pitch": 65,
                "velocity": 64,
                "duration": 0.1545455,
                "tempo": 120.0
            },
            {
                "start_time": 26.7636364,
                "end_time": 26.9181818,
                "pitch": 69,
                "velocity": 64,
                "duration": 0.1545455,
                "tempo": 120.0
            },
            {
                "start_time": 26.9363636,
                "end_time": 27.0909091,
                "pitch": 69,
                "velocity": 64,
                "duration": 0.1545455,
                "tempo": 120.0
            },
            {
                "start_time": 27.7840909,
                "end_time": 27.9363636,
                "pitch": 68,
                "velocity": 64,
                "duration": 0.1522727,
                "tempo": 120.0
            },
            {
                "start_time": 27.9522727,
                "end_time": 28.1022727,
                "pitch": 68,
                "velocity": 64,
                "duration": 0.15,
                "tempo": 120.0
            },
            {
                "start_time": 29.1340909,
                "end_time": 29.2840909,
                "pitch": 69,
                "velocity": 64,
                "duration": 0.15,
                "tempo": 120.0
            },
            {
                "start_time": 29.3022727,
                "end_time": 29.4522727,
                "pitch": 69,
                "velocity": 64,
                "duration": 0.15,
                "tempo": 120.0
            },
            {
                "start_time": 30.1477273,
                "end_time": 30.3045455,
                "pitch": 68,
                "velocity": 64,
                "duration": 0.1568182,
                "tempo": 120.0
            },
            {
                "start_time": 30.3204545,
                "end_time": 30.475,
                "pitch": 68,
                "velocity": 64,
                "duration": 0.1545455,
                "tempo": 120.0
            },
            {
                "start_time": 31.4954545,
                "end_time": 31.6477273,
                "pitch": 66,
                "velocity": 64,
                "duration": 0.1522727,
                "tempo": 120.0
            },
            {
                "start_time": 31.6636364,
                "end_time": 31.8136364,
                "pitch": 66,
                "velocity": 64,
                "duration": 0.15,
                "tempo": 120.0
            },
            {
                "start_time": 32.5113636,
                "end_time": 32.6659091,
                "pitch": 65,
                "velocity": 64,
                "duration": 0.1545455,
                "tempo": 120.0
            },
            {
                "start_time": 32.6818182,
                "end_time": 32.8386364,
                "pitch": 65,
                "velocity": 64,
                "duration": 0.1568182,
                "tempo": 120.0
            },
            {
                "start_time": 33.8568182,
                "end_time": 34.0090909,
                "pitch": 66,
                "velocity": 64,
                "duration": 0.1522727,
                "tempo": 120.0
            },
            {
                "start_time": 34.025,
                "end_time": 34.175,
                "pitch": 66,
                "velocity": 64,
                "duration": 0.15,
                "tempo": 120.0
            },
            {
                "start_time": 34.8818182,
                "end_time": 35.0318182,
                "pitch": 65,
                "velocity": 64,
                "duration": 0.15,
                "tempo": 120.0
            },
            {
                "start_time": 35.05,
                "end_time": 35.2,
                "pitch": 65,
                "velocity": 64,
                "duration": 0.15,
                "tempo": 120.0
            },
            {
                "start_time": 36.2318182,
                "end_time": 36.3818182,
                "pitch": 69,
                "velocity": 64,
                "duration": 0.15,
                "tempo": 120.0
            },
            {
                "start_time": 36.3977273,
                "end_time": 36.55,
                "pitch": 69,
                "velocity": 64,
                "duration": 0.1522727,
                "tempo": 120.0
            },
            {
                "start_time": 37.2454545,
                "end_time": 37.4,
                "pitch": 68,
                "velocity": 64,
                "duration": 0.1545455,
                "tempo": 120.0
            },
            {
                "start_time": 37.4181818,
                "end_time": 37.5727273,
                "pitch": 68,
                "velocity": 64,
                "duration": 0.1545455,
                "tempo": 120.0
            },
            {
                "start_time": 38.5931818,
                "end_time": 38.7431818,
                "pitch": 69,
                "velocity": 64,
                "duration": 0.15,
                "tempo": 120.0
            },
            {
                "start_time": 38.7590909,
                "end_time": 38.9113636,
                "pitch": 69,
                "velocity": 64,
                "duration": 0.1522727,
                "tempo": 120.0
            },
            {
                "start_time": 39.6068182,
                "end_time": 39.7613636,
                "pitch": 68,
                "velocity": 64,
                "duration": 0.1545455,
                "tempo": 120.0
            },
            {
                "start_time": 39.7795455,
                "end_time": 39.9340909,
                "pitch": 68,
                "velocity": 64,
                "duration": 0.1545455,
                "tempo": 120.0
            }
        ]
    }
}