{
    "mood": "happy",
    "instruments": {
        "Acoustic Guitar (nylon)": [
            {
                "start_time": 0.0,
                "end_time": 0.175,
                "pitch": 77,
                "velocity": 51,
                "duration": 0.175,
                "tempo": 120.0
            },
            {
                "start_time": 0.4568182,
                "end_time": 0.7068182,
                "pitch": 78,
                "velocity": 51,
                "duration": 0.25,
                "tempo": 120.0
            },
            {
                "start_time": 0.9954545,
                "end_time": 1.3840909,
                "pitch": 77,
                "velocity": 51,
                "duration": 0.3886364,
                "tempo": 120.0
            },
            {
                "start_time": 1.4,
                "end_time": 2.0522727,
                "pitch": 72,
                "velocity": 51,
                "duration": 0.6522727,
                "tempo": 120.0
            },
            {
                "start_time": 2.0681818,
                "end_time": 3.1295455,
                "pitch": 61,
                "velocity": 51,
                "duration": 1.0613636,
                "tempo": 120.0
            },
            {
                "start_time": 3.1477273,
                "end_time": 4.2022727,
                "pitch": 63,
                "velocity": 51,
                "duration": 1.0545455,
                "tempo": 120.0
            },
            {
                "start_time": 4.2204545,
                "end_time": 4.475,
                "pitch": 77,
                "velocity": 51,
                "duration": 0.2545455,
                "tempo": 120.0
            },
            {
                "start_time": 4.7590909,
                "end_time": 5.0090909,
                "pitch": 78,
                "velocity": 51,
                "duration": 0.25,
                "tempo": 120.0
            },
            {
                "start_time": 5.2931818,
                "end_time": 5.6772727,
                "pitch": 77,
                "velocity": 51,
                "duration": 0.3840909,
                "tempo": 120.0
            },
            {
                "start_time": 5.6954545,
                "end_time": 6.35,
                "pitch": 72,
                "velocity": 51,
                "duration": 0.6545455,
                "tempo": 120.0
            },
            {
                "start_time": 6.3681818,
                "end_time": 7.4295455,
                "pitch": 61,
                "velocity": 51,
                "duration": 1.0613636,
                "tempo": 120.0
            },
            {
                "start_time": 7.4454545,
                "end_time": 8.5022727,
                "pitch": 63,
                "velocity": 51,
                "duration": 1.0568182,
                "tempo": 120.0
            },
            {
                "start_time": 8.7863636,
                "end_time": 9.3136364,
                "pitch": 68,
                "velocity": 51,
                "duration": 0.5272727,
                "tempo": 120.0
            },
            {
                "start_time": 9.5977273,
                "end_time": 9.9818182,
                "pitch": 66,
                "velocity": 51,
                "duration": 0.3840909,
                "tempo": 120.0
            },
            {
                "start_time": 9.9977273,
                "end_time": 10.3818182,
                "pitch": 66,
                "velocity": 51,
                "duration": 0.3840909,
                "tempo": 120.0
            },
            {
                "start_time": 10.4,
                "end_time": 10.6545455,
                "pitch": 66,
                "velocity": 51,
                "duration": 0.2545455,
                "tempo": 120.0
            },
            {
                "start_time": 10.9431818,
                "end_time": 11.4613636,
                "pitch": 68,
                "velocity": 51,
                "duration": 0.5181818,
                "tempo": 120.0
            },
            {
                "start_time": 11.7454545,
                "end_time": 12.1295455,
                "pitch": 66,
                "velocity": 51,
                "duration": 0.3840909,
                "tempo": 120.0
            },
            {
                "start_time": 12.1454545,
                "end_time": 12.6318182,
                "pitch": 66,
                "velocity": 51,
                "duration": 0.4863636,
                "tempo": 120.0
            },
            {
                "start_time": 12.6545455,
                "end_time": 12.9727273,
                "pitch": 63,
                "velocity": 51,
                "duration": 0.3181818,
                "tempo": 120.0
            },
            {
                "start_time": 13.3318182,
                "end_time": 13.65,
                "pitch": 58,
                "velocity": 80,
                "duration": 0.3181818,
                "tempo": 120.0
            },
            {
                "start_time": 13.6704545,
                "end_time": 13.9227273,
                "pitch": 61,
                "velocity": 80,
                "duration": 0.2522727,
                "tempo": 120.0
            },
            {
                "start_time": 13.9386364,
                "end_time": 14.1909091,
                "pitch": 63,
                "velocity": 80,
                "duration": 0.2522727,
                "tempo": 120.0
            },
            {
                "start_time": 14.2068182,
                "end_time": 14.5909091,
                "pitch": 65,
                "velocity": 80,
                "duration": 0.3840909,
                "tempo": 120.0
            },
            {
                "start_time": 14.6068182,
                "end_time": 15.2590909,
                "pitch": 63,
                "velocity": 80,
                "duration": 0.6522727,
                "tempo": 120.0
            },
            {
                "start_time": 15.5477273,
                "end_time": 15.8022727,
                "pitch": 58,
                "velocity": 80,
                "duration": 0.2545455,
                "tempo": 120.0
            },
            {
                "start_time": 15.8204545,
                "end_time": 16.0704545,
                "pitch": 61,
                "velocity": 80,
                "duration": 0.25,
                "tempo": 120.0
            },
            {
                "start_time": 16.0863636,
                "end_time": 16.3363636,
                "pitch": 63,
                "velocity": 80,
                "duration": 0.25,
                "tempo": 120.0
            },
            {
                "start_time": 16.3545455,
                "end_time": 16.6090909,
                "pitch": 65,
                "velocity": 80,
                "duration": 0.2545455,
                "tempo": 120.0
            },
            {
                "start_time": 16.625,
                "end_time": 16.7454545,
                "pitch": 65,
                "velocity": 80,
                "duration": 0.1204545,
                "tempo": 120.0
            },
            {
                "start_time": 16.7613636,
                "end_time": 17.0136364,
                "pitch": 63,
                "velocity": 80,
                "duration": 0.2522727,
                "tempo": 120.0
            },
            {
                "start_time": 17.0318182,
                "end_time": 17.1477273,
                "pitch": 61,
                "velocity": 80,
                "duration": 0.1159091,
                "tempo": 120.0
            },
            {
                "start_time": 17.1659091,
                "end_time": 17.4159091,
                "pitch": 58,
                "velocity": 80,
                "duration": 0.25,
                "tempo": 120.0
            },
            {
                "start_time": 17.7,
                "end_time": 17.95,
                "pitch": 58,
                "velocity": 80,
                "duration": 0.25,
                "tempo": 120.0
            },
            {
                "start_time": 17.9659091,
                "end_time": 18.2204545,
                "pitch": 61,
                "velocity": 80,
                "duration": 0.2545455,
                "tempo": 120.0
            },
            {
                "start_time": 18.2386364,
                "end_time": 18.4931818,
                "pitch": 63,
                "velocity": 80,
                "duration": 0.2545455,
                "tempo": 120.0
            },
            {
                "start_time": 18.5113636,
                "end_time": 18.8954545,
                "pitch": 65,
                "velocity": 80,
                "duration": 0.3840909,
                "tempo": 120.0
            },
            {
                "start_time": 18.9113636,
                "end_time": 19.5613636,
                "pitch": 63,
                "velocity": 80,
                "duration": 0.65,
                "tempo": 120.0
            },
            {
                "start_time": 19.85,
                "end_time": 20.1068182,
                "pitch": 58,
                "velocity": 80,
                "duration": 0.2568182,
                "tempo": 120.0
            },
            {
                "start_time": 20.1227273,
                "end_time": 20.3727273,
                "pitch": 61,
                "velocity": 80,
                "duration": 0.25,
                "tempo": 120.0
            },
            {
                "start_time": 20.3909091,
                "end_time": 20.6409091,
                "pitch": 58,
                "velocity": 80,
                "duration": 0.25,
                "tempo": 120.0
            },
            {
                "start_time": 20.6568182,
                "end_time": 21.0409091,
                "pitch": 70,
                "velocity": 80,
                "duration": 0.3840909,
                "tempo": 120.0
            },
            {
                "start_time": 21.0590909,
                "end_time": 21.7090909,
                "pitch": 68,
                "velocity": 80,
                "duration": 0.65,
                "tempo": 120.0
            },
            {
                "start_time": 22.8045455,
                "end_time": 23.0545455,
                "pitch": 65,
                "velocity": 80,
                "duration": 0.25,
                "tempo": 120.0
            },
            {
                "start_time": 23.0727273,
                "end_time": 23.1886364,
                "pitch": 65,
                "velocity": 80,
                "duration": 0.1159091,
                "tempo": 120.0
            },
            {
                "start_time": 23.2045455,
                "end_time": 23.3227273,
                "pitch": 65,
                "velocity": 80,
                "duration": 0.1181818,
                "tempo": 120.0
            },
            {
                "start_time": 23.6068182,
                "end_time": 23.7227273,
                "pitch": 63,
                "velocity": 80,
                "duration": 0.1159091,
                "tempo": 120.0
            },
            {
                "start_time": 23.7386364,
                "end_time": 23.8568182,
                "pitch": 61,
                "velocity": 80,
                "duration": 0.1181818,
                "tempo": 120.0
            },
            {
                "start_time": 23.8727273,
                "end_time": 24.1272727,
                "pitch": 63,
                "velocity": 80,
                "duration": 0.2545455,
                "tempo": 120.0
            },
            {
                "start_time": 24.1454545,
                "end_time": 24.2636364,
                "pitch": 65,
                "velocity": 80,
                "duration": 0.1181818,
                "tempo": 120.0
            },
            {
                "start_time": 24.2818182,
                "end_time": 24.9454545,
                "pitch": 61,
                "velocity": 80,
                "duration": 0.6636364,
                "tempo": 120.0
            },
            {
                "start_time": 25.2295455,
                "end_time": 25.4795455,
                "pitch": 61,
                "velocity": 80,
                "duration": 0.25,
                "tempo": 120.0
            },
            {
                "start_time": 25.4954545,
                "end_time": 25.6136364,
                "pitch": 63,
                "velocity": 80,
                "duration": 0.1181818,
                "tempo": 120.0
            },
            {
                "start_time": 25.6295455,
                "end_time": 25.8795455,
                "pitch": 61,
                "velocity": 80,
                "duration": 0.25,
                "tempo": 120.0
            },
            {
                "start_time": 25.8954545,
                "end_time": 26.1477273,
                "pitch": 65,
                "velocity": 80,
                "duration": 0.2522727,
                "tempo": 120.0
            },
            {
                "start_time": 26.1636364,
                "end_time": 26.2795455,
                "pitch": 63,
                "velocity": 80,
                "duration": 0.1159091,
                "tempo": 120.0
            },
            {
                "start_time": 26.2977273,
                "end_time": 26.4136364,
                "pitch": 61,
                "velocity": 80,
                "duration": 0.1159091,
                "tempo": 120.0
            },
            {
                "start_time": 26.4318182,
                "end_time": 26.6840909,
                "pitch": 63,
                "velocity": 80,
                "duration": 0.2522727,
                "tempo": 120.0
            },
            {
                "start_time": 26.7,
                "end_time": 27.0909091,
                "pitch": 58,
                "velocity": 80,
                "duration": 0.3909091,
                "tempo": 120.0
            },
            {
                "start_time": 27.1090909,
                "end_time": 27.3590909,
                "pitch": 65,
                "velocity": 80,
                "duration": 0.25,
                "tempo": 120.0
            },
            {
                "start_time": 27.375,
                "end_time": 27.4931818,
                "pitch": 65,
                "velocity": 80,
                "duration": 0.1181818,
                "tempo": 120.0
            },
            {
                "start_time": 27.5090909,
                "end_time": 27.6272727,
                "pitch": 65,
                "velocity": 80,
                "duration": 0.1181818,
                "tempo": 120.0
            },
            {
                "start_time": 27.9090909,
                "end_time": 28.0272727,
                "pitch": 63,
                "velocity": 80,
                "duration": 0.1181818,
                "tempo": 120.0
            },
            {
                "start_time": 28.0431818,
                "end_time": 28.1613636,
                "pitch": 61,
                "velocity": 80,
                "duration": 0.1181818,
                "tempo": 120.0
            },
            {
                "start_time": 28.1772727,
                "end_time": 28.4318182,
                "pitch": 63,
                "velocity": 80,
                "duration": 0.2545455,
                "tempo": 120.0
            },
            {
                "start_time": 28.45,
                "end_time": 28.5681818,
                "pitch": 65,
                "velocity": 80,
                "duration": 0.1181818,
                "tempo": 120.0
            },
            {
                "start_time": 28.5840909,
                "end_time": 29.2295455,
                "pitch": 61,
                "velocity": 80,
                "duration": 0.6454545,
                "tempo": 120.0
            },
            {
                "start_time": 29.2454545,
                "end_time": 29.7818182,
                "pitch": 59,
                "velocity": 80,
                "duration": 0.5363636,
                "tempo": 120.0
            },
            {
                "start_time": 29.8,
                "end_time": 30.3181818,
                "pitch": 63,
                "velocity": 80,
                "duration": 0.5181818,
                "tempo": 120.0
            },
            {
                "start_time": 30.3340909,
                "end_time": 30.8522727,
                "pitch": 66,
                "velocity": 80,
                "duration": 0.5181818,
                "tempo": 120.0
            },
            {
                "start_time": 30.8681818,
                "end_time": 30.9863636,
                "pitch": 66,
                "velocity": 80,
                "duration": 0.1181818,
                "tempo": 120.0
            },
            {
                "start_time": 31.0045455,
                "end_time": 31.2590909,
                "pitch": 66,
                "velocity": 80,
                "duration": 0.2545455,
                "tempo": 120.0
            },
            {
                "start_time": 31.2772727,
                "end_time": 33.5431818,
                "pitch": 68,
                "velocity": 80,
                "duration": 2.2659091,
                "tempo": 120.0
            },
            {
                "start_time": 33.5590909,
                "end_time": 33.9431818,
                "pitch": 68,
                "velocity": 80,
                "duration": 0.3840909,
                "tempo": 120.0
            },
            {
                "start_time": 33.9613636,
                "end_time": 34.0772727,
                "pitch": 66,
                "velocity": 80,
                "duration": 0.1159091,
                "tempo": 120.0
            },
            {
                "start_time": 34.0931818,
                "end_time": 34.3477273,
                "pitch": 66,
                "velocity": 80,
                "duration": 0.2545455,
                "tempo": 120.0
            },
            {
                "start_time": 34.3659091,
                "end_time": 34.6204545,
                "pitch": 65,
                "velocity": 80,
                "duration": 0.2545455,
                "tempo": 120.0
            },
            {
                "start_time": 34.6386364,
                "end_time": 34.8886364,
                "pitch": 65,
                "velocity": 80,
                "duration": 0.25,
                "tempo": 120.0
            },
            {
                "start_time": 34.9045455,
                "end_time": 35.0227273,
                "pitch": 63,
                "velocity": 80,
                "duration": 0.1181818,
                "tempo": 120.0
            },
            {
                "start_time": 35.0386364,
                "end_time": 35.1545455,
                "pitch": 63,
                "velocity": 80,
                "duration": 0.1159091,
                "tempo": 120.0
            },
            {
                "start_time": 35.5727273,
                "end_time": 35.8227273,
                "pitch": 61,
                "velocity": 80,
                "duration": 0.25,
                "tempo": 120.0
            },
            {
                "start_time": 35.8409091,
                "end_time": 35.9568182,
                "pitch": 61,
                "velocity": 80,
                "duration": 0.1159091,
                "tempo": 120.0
            },
            {
                "start_time": 35.9727273,
                "end_time": 36.225,
                "pitch": 63,
                "velocity": 80,
                "duration": 0.2522727,
                "tempo": 120.0
            },
            {
                "start_time": 36.2409091,
                "end_time": 36.4954545,
                "pitch": 65,
                "velocity": 80,
                "duration": 0.2545455,
                "tempo": 120.0
            },
            {
                "start_time": 36.5136364,
                "end_time": 36.7681818,
                "pitch": 66,
                "velocity": 80,
                "duration": 0.2545455,
                "tempo": 120.0
            },
            {
                "start_time": 36.7840909,
                "end_time": 37.0363636,
                "pitch": 65,
                "velocity": 80,
                "duration": 0.2522727,
                "tempo": 120.0
            },
            {
                "start_time": 37.0522727,
                "end_time": 37.1681818,
                "pitch": 63,
                "velocity": 80,
                "duration": 0.1159091,
                "tempo": 120.0
            },
            {
                "start_time": 37.1863636,
                "end_time": 37.3022727,
                "pitch": 63,
                "velocity": 80,
                "duration": 0.1159091,
                "tempo": 120.0
            },
            {
                "start_time": 37.8545455,
                "end_time": 38.2454545,
                "pitch": 68,
                "velocity": 80,
                "duration": 0.3909091,
                "tempo": 120.0
            },
            {
                "start_time": 38.2613636,
                "end_time": 38.3795455,
                "pitch": 66,
                "velocity": 80,
                "duration": 0.1181818,
                "tempo": 120.0
            },
            {
                "start_time": 38.3977273,
                "end_time": 38.6477273,
                "pitch": 66,
                "velocity": 80,
                "duration": 0.25,
                "tempo": 120.0
            },
            {
                "start_time": 38.6659091,
                "end_time": 38.9159091,
                "pitch": 65,
                "velocity": 80,
                "duration": 0.25,
                "tempo": 120.0
            },
            {
                "start_time": 38.9318182,
                "end_time": 39.1863636,
                "pitch": 65,
                "velocity": 80,
                "duration": 0.2545455,
                "tempo": 120.0
            },
            {
                "start_time": 39.2045455,
                "end_time": 39.3227273,
                "pitch": 63,
                "velocity": 80,
                "duration": 0.1181818,
                "tempo": 120.0
            },
            {
                "start_time": 39.3409091,
                "end_time": 39.4590909,
                "pitch": 63,
                "velocity": 80,
                "duration": 0.1181818,
                "tempo": 120.0
            },
            {
                "start_time": 39.8772727,
                "end_time": 40.1272727,
                "pitch": 61,
                "velocity": 80,
                "duration": 0.25,
                "tempo": 120.0
            },
            {
                "start_time": 40.1431818,
                "end_time": 40.2613636,
                "pitch": 61,
                "velocity": 80,
                "duration": 0.1181818,
                "tempo": 120.0
            },
            {
                "start_time": 40.2772727,
                "end_time": 40.5272727,
                "pitch": 63,
                "velocity": 80,
                "duration": 0.25,
                "tempo": 120.0
            },
            {
                "start_time": 40.5454545,
                "end_time": 40.8,
                "pitch": 65,
                "velocity": 80,
                "duration": 0.2545455,
                "tempo": 120.0
            },
            {
                "start_time": 40.8159091,
                "end_time": 41.0727273,
                "pitch": 66,
                "velocity": 80,
                "duration": 0.2568182,
                "tempo": 120.0
            },
            {
                "start_time": 41.0886364,
                "end_time": 41.6068182,
                "pitch": 68,
                "velocity": 80,
                "duration": 0.5181818,
                "tempo": 120.0
            },
            {
                "start_time": 41.7590909,
                "end_time": 41.8772727,
                "pitch": 70,
                "velocity": 80,
                "duration": 0.1181818,
                "tempo": 120.0
            },
            {
                "start_time": 41.8954545,
                "end_time": 42.0136364,
                "pitch": 68,
                "velocity": 80,
                "duration": 0.1181818,
                "tempo": 120.0
            },
            {
                "start_time": 42.0318182,
                "end_time": 42.15,
                "pitch": 66,
                "velocity": 80,
                "duration": 0.1181818,
                "tempo": 120.0
            },
            {
                "start_time": 42.1659091,
                "end_time": 43.2181818,
                "pitch": 68,
                "velocity": 80,
                "duration": 1.0522727,
                "tempo": 120.0
            }
        ],
        "Electric Guitar (clean)": [
            {
                "start_time": 0.0,
                "end_time": 2.0522727,
                "pitch": 37,
                "velocity": 64,
                "duration": 2.0522727,
                "tempo": 120.0
            },
            {
                "start_time": 2.0681818,
                "end_time": 2.4545455,
                "pitch": 30,
                "velocity": 64,
                "duration": 0.3863636,
                "tempo": 120.0
            },
            {
                "start_time": 2.4727273,
                "end_time": 3.1295455,
                "pitch": 30,
                "velocity": 64,
                "duration": 0.6568182,
                "tempo": 120.0
            },
            {
                "start_time": 3.1477273,
                "end_time": 3.5318182,
                "pitch": 32,
                "velocity": 64,
                "duration": 0.3840909,
                "tempo": 120.0
            },
            {
                "start_time": 3.5477273,
                "end_time": 4.2022727,
                "pitch": 32,
                "velocity": 64,
                "duration": 0.6545455,
                "tempo": 120.0
            },
            {
                "start_time": 4.2204545,
                "end_time": 6.35,
                "pitch": 37,
                "velocity": 64,
                "duration": 2.1295455,
                "tempo": 120.0
            },
            {
                "start_time": 6.3681818,
                "end_time": 6.7568182,
                "pitch": 30,
                "velocity": 64,
                "duration": 0.3886364,
                "tempo": 120.0
            },
            {
                "start_time": 6.7727273,
                "end_time": 7.4295455,
                "pitch": 30,
                "velocity": 64,
                "duration": 0.6568182,
                "tempo": 120.0
            },
            {
                "start_time": 7.4454545,
                "end_time": 7.8340909,
                "pitch": 32,
                "velocity": 64,
                "duration": 0.3886364,
                "tempo": 120.0
            },
            {
                "start_time": 7.8522727,
                "end_time": 8.5022727,
                "pitch": 32,
                "velocity": 64,
                "duration": 0.65,
                "tempo": 120.0
            },
            {
                "start_time": 8.5204545,
                "end_time": 8.6363636,
                "pitch": 37,
                "velocity": 64,
                "duration": 0.1159091,
                "tempo": 120.0
            },
            {
                "start_time": 8.7863636,
                "end_time": 9.3136364,
                "pitch": 37,
                "velocity": 64,
                "duration": 0.5272727,
                "tempo": 120.0
            },
            {
                "start_time": 9.3295455,
                "end_time": 9.4477273,
                "pitch": 32,
                "velocity": 64,
                "duration": 0.1181818,
                "tempo": 120.0
            },
            {
                "start_time": 9.4636364,
                "end_time": 9.5818182,
                "pitch": 34,
                "velocity": 64,
                "duration": 0.1181818,
                "tempo": 120.0
            },
            {
                "start_time": 9.5977273,
                "end_time": 9.9818182,
                "pitch": 35,
                "velocity": 64,
                "duration": 0.3840909,
                "tempo": 120.0
            },
            {
                "start_time": 9.9977273,
                "end_time": 10.3818182,
                "pitch": 34,
                "velocity": 64,
                "duration": 0.3840909,
                "tempo": 120.0
            },
            {
                "start_time": 10.4,
                "end_time": 10.6545455,
                "pitch": 35,
                "velocity": 64,
                "duration": 0.2545455,
                "tempo": 120.0
            },
            {
                "start_time": 10.6704545,
                "end_time": 10.7909091,
                "pitch": 37,
                "velocity": 64,
                "duration": 0.1204545,
                "tempo": 120.0
            },
            {
                "start_time": 10.9431818,
                "end_time": 11.4613636,
                "pitch": 37,
                "velocity": 64,
                "duration": 0.5181818,
                "tempo": 120.0
            },
            {
                "start_time": 11.4772727,
                "end_time": 11.5954545,
                "pitch": 32,
                "velocity": 64,
                "duration": 0.1181818,
                "tempo": 120.0
            },
            {
                "start_time": 11.6113636,
                "end_time": 11.7272727,
                "pitch": 34,
                "velocity": 64,
                "duration": 0.1159091,
                "tempo": 120.0
            },
            {
                "start_time": 11.7454545,
                "end_time": 12.1295455,
                "pitch": 35,
                "velocity": 64,
                "duration": 0.3840909,
                "tempo": 120.0
            },
            {
                "start_time": 12.1454545,
                "end_time": 12.6318182,
                "pitch": 34,
                "velocity": 64,
                "duration": 0.4863636,
                "tempo": 120.0
            },
            {
                "start_time": 12.6545455,
                "end_time": 12.9727273,
                "pitch": 32,
                "velocity": 64,
                "duration": 0.3181818,
                "tempo": 120.0
            },
            {
                "start_time": 12.9931818,
                "end_time": 13.4795455,
                "pitch": 30,
                "velocity": 64,
                "duration": 0.4863636,
                "tempo": 120.0
            },
            {
                "start_time": 13.5022727,
                "end_time": 13.65,
                "pitch": 30,
                "velocity": 64,
                "duration": 0.1477273,
                "tempo": 120.0
            },
            {
                "start_time": 13.6704545,
                "end_time": 14.1909091,
                "pitch": 30,
                "velocity": 64,
                "duration": 0.5204545,
                "tempo": 120.0
            },
            {
                "start_time": 14.2068182,
                "end_time": 14.4568182,
                "pitch": 32,
                "velocity": 64,
                "duration": 0.25,
                "tempo": 120.0
            },
            {
                "start_time": 14.6068182,
                "end_time": 15.2590909,
                "pitch": 32,
                "velocity": 64,
                "duration": 0.6522727,
                "tempo": 120.0
            },
            {
                "start_time": 15.275,
                "end_time": 15.6659091,
                "pitch": 30,
                "velocity": 64,
                "duration": 0.3909091,
                "tempo": 120.0
            },
            {
                "start_time": 15.6840909,
                "end_time": 15.8022727,
                "pitch": 30,
                "velocity": 64,
                "duration": 0.1181818,
                "tempo": 120.0
            },
            {
                "start_time": 15.8204545,
                "end_time": 16.3363636,
                "pitch": 30,
                "velocity": 64,
                "duration": 0.5159091,
                "tempo": 120.0
            },
            {
                "start_time": 16.3545455,
                "end_time": 16.6090909,
                "pitch": 32,
                "velocity": 64,
                "duration": 0.2545455,
                "tempo": 120.0
            },
            {
                "start_time": 16.7613636,
                "end_time": 17.4159091,
                "pitch": 32,
                "velocity": 64,
                "duration": 0.6545455,
                "tempo": 120.0
            },
            {
                "start_time": 17.4318182,
                "end_time": 17.8159091,
                "pitch": 30,
                "velocity": 64,
                "duration": 0.3840909,
                "tempo": 120.0
            },
            {
                "start_time": 17.8318182,
                "end_time": 17.95,
                "pitch": 30,
                "velocity": 64,
                "duration": 0.1181818,
                "tempo": 120.0
            },
            {
                "start_time": 17.9659091,
                "end_time": 18.4931818,
                "pitch": 30,
                "velocity": 64,
                "duration": 0.5272727,
                "tempo": 120.0
            },
            {
                "start_time": 18.5113636,
                "end_time": 18.7613636,
                "pitch": 32,
                "velocity": 64,
                "duration": 0.25,
                "tempo": 120.0
            },
            {
                "start_time": 18.9113636,
                "end_time": 19.5613636,
                "pitch": 32,
                "velocity": 64,
                "duration": 0.65,
                "tempo": 120.0
            },
            {
                "start_time": 19.5795455,
                "end_time": 19.9704545,
                "pitch": 30,
                "velocity": 64,
                "duration": 0.3909091,
                "tempo": 120.0
            },
            {
                "start_time": 19.9863636,
                "end_time": 20.1068182,
                "pitch": 30,
                "velocity": 64,
                "duration": 0.1204545,
                "tempo": 120.0
            },
            {
                "start_time": 20.1227273,
                "end_time": 20.6409091,
                "pitch": 30,
                "velocity": 64,
                "duration": 0.5181818,
                "tempo": 120.0
            },
            {
                "start_time": 20.6568182,
                "end_time": 20.9090909,
                "pitch": 32,
                "velocity": 64,
                "duration": 0.2522727,
                "tempo": 120.0
            },
            {
                "start_time": 21.0590909,
                "end_time": 21.7090909,
                "pitch": 32,
                "velocity": 64,
                "duration": 0.65,
                "tempo": 120.0
            },
            {
                "start_time": 21.7272727,
                "end_time": 21.9818182,
                "pitch": 32,
                "velocity": 64,
                "duration": 0.2545455,
                "tempo": 120.0
            },
            {
                "start_time": 22.1340909,
                "end_time": 22.7886364,
                "pitch": 33,
                "velocity": 64,
                "duration": 0.6545455,
                "tempo": 120.0
            },
            {
                "start_time": 22.8045455,
                "end_time": 23.0545455,
                "pitch": 34,
                "velocity": 64,
                "duration": 0.25,
                "tempo": 120.0
            },
            {
                "start_time": 23.2045455,
                "end_time": 23.4568182,
                "pitch": 37,
                "velocity": 64,
                "duration": 0.2522727,
                "tempo": 120.0
            },
            {
                "start_time": 23.6068182,
                "end_time": 23.8568182,
                "pitch": 41,
                "velocity": 64,
                "duration": 0.25,
                "tempo": 120.0
            },
            {
                "start_time": 23.8727273,
                "end_time": 24.1272727,
                "pitch": 30,
                "velocity": 64,
                "duration": 0.2545455,
                "tempo": 120.0
            },
            {
                "start_time": 24.2818182,
                "end_time": 24.9454545,
                "pitch": 30,
                "velocity": 64,
                "duration": 0.6636364,
                "tempo": 120.0
            },
            {
                "start_time": 24.9613636,
                "end_time": 25.2113636,
                "pitch": 37,
                "velocity": 64,
                "duration": 0.25,
                "tempo": 120.0
            },
            {
                "start_time": 25.3613636,
                "end_time": 25.6136364,
                "pitch": 41,
                "velocity": 64,
                "duration": 0.2522727,
                "tempo": 120.0
            },
            {
                "start_time": 25.7636364,
                "end_time": 26.0136364,
                "pitch": 44,
                "velocity": 64,
                "duration": 0.25,
                "tempo": 120.0
            },
            {
                "start_time": 26.0295455,
                "end_time": 26.2795455,
                "pitch": 39,
                "velocity": 64,
                "duration": 0.25,
                "tempo": 120.0
            },
            {
                "start_time": 26.4318182,
                "end_time": 27.0909091,
                "pitch": 39,
                "velocity": 64,
                "duration": 0.6590909,
                "tempo": 120.0
            },
            {
                "start_time": 27.1090909,
                "end_time": 27.3590909,
                "pitch": 34,
                "velocity": 64,
                "duration": 0.25,
                "tempo": 120.0
            },
            {
                "start_time": 27.5090909,
                "end_time": 27.7590909,
                "pitch": 37,
                "velocity": 64,
                "duration": 0.25,
                "tempo": 120.0
            },
            {
                "start_time": 27.9090909,
                "end_time": 28.1613636,
                "pitch": 41,
                "velocity": 64,
                "duration": 0.2522727,
                "tempo": 120.0
            },
            {
                "start_time": 28.1772727,
                "end_time": 28.4318182,
                "pitch": 30,
                "velocity": 64,
                "duration": 0.2545455,
                "tempo": 120.0
            },
            {
                "start_time": 28.5840909,
                "end_time": 29.2295455,
                "pitch": 30,
                "velocity": 64,
                "duration": 0.6454545,
                "tempo": 120.0
            },
            {
                "start_time": 29.2454545,
                "end_time": 29.3659091,
                "pitch": 35,
                "velocity": 64,
                "duration": 0.1204545,
                "tempo": 120.0
            },
            {
                "start_time": 29.3840909,
                "end_time": 29.5045455,
                "pitch": 35,
                "velocity": 64,
                "duration": 0.1204545,
                "tempo": 120.0
            },
            {
                "start_time": 29.5227273,
                "end_time": 29.6431818,
                "pitch": 35,
                "velocity": 64,
                "duration": 0.1204545,
                "tempo": 120.0
            },
            {
                "start_time": 29.6613636,
                "end_time": 29.7818182,
                "pitch": 35,
                "velocity": 64,
                "duration": 0.1204545,
                "tempo": 120.0
            },
            {
                "start_time": 29.8,
                "end_time": 29.9159091,
                "pitch": 35,
                "velocity": 64,
                "duration": 0.1159091,
                "tempo": 120.0
            },
            {
                "start_time": 29.9340909,
                "end_time": 30.05,
                "pitch": 35,
                "velocity": 64,
                "duration": 0.1159091,
                "tempo": 120.0
            },
            {
                "start_time": 30.0659091,
                "end_time": 30.1840909,
                "pitch": 35,
                "velocity": 64,
                "duration": 0.1181818,
                "tempo": 120.0
            },
            {
                "start_time": 30.2,
                "end_time": 30.3181818,
                "pitch": 35,
                "velocity": 64,
                "duration": 0.1181818,
                "tempo": 120.0
            },
            {
                "start_time": 30.3340909,
                "end_time": 30.45,
                "pitch": 35,
                "velocity": 64,
                "duration": 0.1159091,
                "tempo": 120.0
            },
            {
                "start_time": 30.4681818,
                "end_time": 30.5840909,
                "pitch": 35,
                "velocity": 64,
                "duration": 0.1159091,
                "tempo": 120.0
            },
            {
                "start_time": 30.6022727,
                "end_time": 30.7181818,
                "pitch": 35,
                "velocity": 64,
                "duration": 0.1159091,
                "tempo": 120.0
            },
            {
                "start_time": 30.7340909,
                "end_time": 30.8522727,
                "pitch": 35,
                "velocity": 64,
                "duration": 0.1181818,
                "tempo": 120.0
            },
            {
                "start_time": 30.8681818,
                "end_time": 30.9863636,
                "pitch": 35,
                "velocity": 64,
                "duration": 0.1181818,
                "tempo": 120.0
            },
            {
                "start_time": 31.0045455,
                "end_time": 31.1227273,
                "pitch": 35,
                "velocity": 64,
                "duration": 0.1181818,
                "tempo": 120.0
            },
            {
                "start_time": 31.1409091,
                "end_time": 31.2590909,
                "pitch": 35,
                "velocity": 64,
                "duration": 0.1181818,
                "tempo": 120.0
            },
            {
                "start_time": 31.2772727,
                "end_time": 31.3954545,
                "pitch": 35,
                "velocity": 64,
                "duration": 0.1181818,
                "tempo": 120.0
            },
            {
                "start_time": 31.4113636,
                "end_time": 31.5295455,
                "pitch": 31,
                "velocity": 64,
                "duration": 0.1181818,
                "tempo": 120.0
            },
            {
                "start_time": 31.5454545,
                "end_time": 31.6636364,
                "pitch": 32,
                "velocity": 64,
                "duration": 0.1181818,
                "tempo": 120.0
            },
            {
                "start_time": 31.6795455,
                "end_time": 31.7954545,
                "pitch": 32,
                "velocity": 64,
                "duration": 0.1159091,
                "tempo": 120.0
            },
            {
                "start_time": 31.8136364,
                "end_time": 31.9295455,
                "pitch": 31,
                "velocity": 64,
                "duration": 0.1159091,
                "tempo": 120.0
            },
            {
                "start_time": 31.9477273,
                "end_time": 32.0636364,
                "pitch": 32,
                "velocity": 64,
                "duration": 0.1159091,
                "tempo": 120.0
            },
            {
                "start_time": 32.0795455,
                "end_time": 32.1977273,
                "pitch": 32,
                "velocity": 64,
                "duration": 0.1181818,
                "tempo": 120.0
            },
            {
                "start_time": 32.2136364,
                "end_time": 32.3318182,
                "pitch": 31,
                "velocity": 64,
                "duration": 0.1181818,
                "tempo": 120.0
            },
            {
                "start_time": 32.3477273,
                "end_time": 32.4636364,
                "pitch": 32,
                "velocity": 64,
                "duration": 0.1159091,
                "tempo": 120.0
            },
            {
                "start_time": 32.4818182,
                "end_time": 32.6,
                "pitch": 32,
                "velocity": 64,
                "duration": 0.1181818,
                "tempo": 120.0
            },
            {
                "start_time": 32.6181818,
                "end_time": 32.7363636,
                "pitch": 31,
                "velocity": 64,
                "duration": 0.1181818,
                "tempo": 120.0
            },
            {
                "start_time": 32.7522727,
                "end_time": 32.8727273,
                "pitch": 32,
                "velocity": 64,
                "duration": 0.1204545,
                "tempo": 120.0
            },
            {
                "start_time": 32.8886364,
                "end_time": 33.0090909,
                "pitch": 32,
                "velocity": 64,
                "duration": 0.1204545,
                "tempo": 120.0
            },
            {
                "start_time": 33.025,
                "end_time": 33.1409091,
                "pitch": 31,
                "velocity": 64,
                "duration": 0.1159091,
                "tempo": 120.0
            },
            {
                "start_time": 33.1590909,
                "end_time": 33.275,
                "pitch": 32,
                "velocity": 64,
                "duration": 0.1159091,
                "tempo": 120.0
            },
            {
                "start_time": 33.2931818,
                "end_time": 33.4090909,
                "pitch": 32,
                "velocity": 64,
                "duration": 0.1159091,
                "tempo": 120.0
            },
            {
                "start_time": 33.5590909,
                "end_time": 33.8090909,
                "pitch": 37,
                "velocity": 64,
                "duration": 0.25,
                "tempo": 120.0
            },
            {
                "start_time": 33.9613636,
                "end_time": 34.0772727,
                "pitch": 37,
                "velocity": 64,
                "duration": 0.1159091,
                "tempo": 120.0
            },
            {
                "start_time": 34.0931818,
                "end_time": 34.3477273,
                "pitch": 37,
                "velocity": 64,
                "duration": 0.2545455,
                "tempo": 120.0
            },
            {
                "start_time": 34.5022727,
                "end_time": 34.6204545,
                "pitch": 37,
                "velocity": 64,
                "duration": 0.1181818,
                "tempo": 120.0
            },
            {
                "start_time": 34.7704545,
                "end_time": 34.8886364,
                "pitch": 37,
                "velocity": 64,
                "duration": 0.1181818,
                "tempo": 120.0
            },
            {
                "start_time": 35.0386364,
                "end_time": 35.1545455,
                "pitch": 37,
                "velocity": 64,
                "duration": 0.1159091,
                "tempo": 120.0
            },
            {
                "start_time": 35.1727273,
                "end_time": 35.4227273,
                "pitch": 37,
                "velocity": 64,
                "duration": 0.25,
                "tempo": 120.0
            },
            {
                "start_time": 35.7068182,
                "end_time": 35.9568182,
                "pitch": 30,
                "velocity": 64,
                "duration": 0.25,
                "tempo": 120.0
            },
            {
                "start_time": 36.1068182,
                "end_time": 36.225,
                "pitch": 30,
                "velocity": 64,
                "duration": 0.1181818,
                "tempo": 120.0
            },
            {
                "start_time": 36.2409091,
                "end_time": 36.7681818,
                "pitch": 30,
                "velocity": 64,
                "duration": 0.5272727,
                "tempo": 120.0
            },
            {
                "start_time": 36.7840909,
                "end_time": 37.0363636,
                "pitch": 32,
                "velocity": 64,
                "duration": 0.2522727,
                "tempo": 120.0
            },
            {
                "start_time": 37.1863636,
                "end_time": 37.8363636,
                "pitch": 32,
                "velocity": 64,
                "duration": 0.65,
                "tempo": 120.0
            },
            {
                "start_time": 37.8545455,
                "end_time": 38.1090909,
                "pitch": 37,
                "velocity": 64,
                "duration": 0.2545455,
                "tempo": 120.0
            },
            {
                "start_time": 38.2613636,
                "end_time": 38.3795455,
                "pitch": 37,
                "velocity": 64,
                "duration": 0.1181818,
                "tempo": 120.0
            },
            {
                "start_time": 38.3977273,
                "end_time": 38.6477273,
                "pitch": 37,
                "velocity": 64,
                "duration": 0.25,
                "tempo": 120.0
            },
            {
                "start_time": 38.7977273,
                "end_time": 38.9159091,
                "pitch": 37,
                "velocity": 64,
                "duration": 0.1181818,
                "tempo": 120.0
            },
            {
                "start_time": 39.0681818,
                "end_time": 39.1863636,
                "pitch": 37,
                "velocity": 64,
                "duration": 0.1181818,
                "tempo": 120.0
            },
            {
                "start_time": 39.3409091,
                "end_time": 39.4590909,
                "pitch": 37,
                "velocity": 64,
                "duration": 0.1181818,
                "tempo": 120.0
            },
            {
                "start_time": 39.475,
                "end_time": 39.7272727,
                "pitch": 37,
                "velocity": 64,
                "duration": 0.2522727,
                "tempo": 120.0
            },
            {
                "start_time": 40.0113636,
                "end_time": 40.2613636,
                "pitch": 30,
                "velocity": 64,
                "duration": 0.25,
                "tempo": 120.0
            },
            {
                "start_time": 40.4113636,
                "end_time": 40.5272727,
                "pitch": 30,
                "velocity": 64,
                "duration": 0.1159091,
                "tempo": 120.0
            },
            {
                "start_time": 40.5454545,
                "end_time": 41.0727273,
                "pitch": 30,
                "velocity": 64,
                "duration": 0.5272727,
                "tempo": 120.0
            },
            {
                "start_time": 41.0886364,
                "end_time": 42.15,
                "pitch": 32,
                "velocity": 64,
                "duration": 1.0613636,
                "tempo": 120.0
            },
            {
                "start_time": 42.1659091,
                "end_time": 42.2840909,
                "pitch": 37,
                "velocity": 64,
                "duration": 0.1181818,
                "tempo": 120.0
            },
            {
                "start_time": 42.4340909,
                "end_time": 42.9522727,
                "pitch": 37,
                "velocity": 64,
                "duration": 0.5181818,
                "tempo": 120.0
            },
            {
                "start_time": 42.9681818,
                "end_time": 43.0863636,
                "pitch": 32,
                "velocity": 64,
                "duration": 0.1181818,
                "tempo": 120.0
            },
            {
                "start_time": 43.1022727,
                "end_time": 43.2181818,
                "pitch": 34,
                "velocity": 64,
                "duration": 0.1159091,
                "tempo": 120.0
            }
        ],
        "Vibraphone": [
            {
                "start_time": 0.0,
                "end_time": 0.175,
                "pitch": 80,
                "velocity": 51,
                "duration": 0.175,
                "tempo": 120.0
            },
            {
                "start_time": 0.3227273,
                "end_time": 0.4386364,
                "pitch": 68,
                "velocity": 51,
                "duration": 0.1159091,
                "tempo": 120.0
            },
            {
                "start_time": 0.4568182,
                "end_time": 0.7068182,
                "pitch": 78,
                "velocity": 51,
                "duration": 0.25,
                "tempo": 120.0
            },
            {
                "start_time": 0.8590909,
                "end_time": 0.9772727,
                "pitch": 68,
                "velocity": 51,
                "duration": 0.1181818,
                "tempo": 120.0
            },
            {
                "start_time": 0.9954545,
                "end_time": 1.3840909,
                "pitch": 77,
                "velocity": 51,
                "duration": 0.3886364,
                "tempo": 120.0
            },
            {
                "start_time": 1.4,
                "end_time": 2.0522727,
                "pitch": 75,
                "velocity": 51,
                "duration": 0.6522727,
                "tempo": 120.0
            },
            {
                "start_time": 2.0681818,
                "end_time": 2.1863636,
                "pitch": 73,
                "velocity": 51,
                "duration": 0.1181818,
                "tempo": 120.0
            },
            {
                "start_time": 2.2022727,
                "end_time": 2.3181818,
                "pitch": 72,
                "velocity": 51,
                "duration": 0.1159091,
                "tempo": 120.0
            },
            {
                "start_time": 2.3363636,
                "end_time": 2.4545455,
                "pitch": 68,
                "velocity": 51,
                "duration": 0.1181818,
                "tempo": 120.0
            },
            {
                "start_time": 2.4727273,
                "end_time": 2.5909091,
                "pitch": 73,
                "velocity": 51,
                "duration": 0.1181818,
                "tempo": 120.0
            },
            {
                "start_time": 2.6068182,
                "end_time": 2.7272727,
                "pitch": 72,
                "velocity": 51,
                "duration": 0.1204545,
                "tempo": 120.0
            },
            {
                "start_time": 2.7431818,
                "end_time": 2.8636364,
                "pitch": 68,
                "velocity": 51,
                "duration": 0.1204545,
                "tempo": 120.0
            },
            {
                "start_time": 2.8795455,
                "end_time": 2.9977273,
                "pitch": 73,
                "velocity": 51,
                "duration": 0.1181818,
                "tempo": 120.0
            },
            {
                "start_time": 3.0136364,
                "end_time": 3.1295455,
                "pitch": 72,
                "velocity": 51,
                "duration": 0.1159091,
                "tempo": 120.0
            },
            {
                "start_time": 3.1477273,
                "end_time": 3.2636364,
                "pitch": 73,
                "velocity": 51,
                "duration": 0.1159091,
                "tempo": 120.0
            },
            {
                "start_time": 3.2795455,
                "end_time": 3.3977273,
                "pitch": 72,
                "velocity": 51,
                "duration": 0.1181818,
                "tempo": 120.0
            },
            {
                "start_time": 3.4136364,
                "end_time": 3.5318182,
                "pitch": 68,
                "velocity": 51,
                "duration": 0.1181818,
                "tempo": 120.0
            },
            {
                "start_time": 3.5477273,
                "end_time": 4.2022727,
                "pitch": 75,
                "velocity": 51,
                "duration": 0.6545455,
                "tempo": 120.0
            },
            {
                "start_time": 4.2204545,
                "end_time": 4.475,
                "pitch": 80,
                "velocity": 51,
                "duration": 0.2545455,
                "tempo": 120.0
            },
            {
                "start_time": 4.625,
                "end_time": 4.7431818,
                "pitch": 68,
                "velocity": 51,
                "duration": 0.1181818,
                "tempo": 120.0
            },
            {
                "start_time": 4.7590909,
                "end_time": 5.0090909,
                "pitch": 78,
                "velocity": 51,
                "duration": 0.25,
                "tempo": 120.0
            },
            {
                "start_time": 5.1613636,
                "end_time": 5.2772727,
                "pitch": 68,
                "velocity": 51,
                "duration": 0.1159091,
                "tempo": 120.0
            },
            {
                "start_time": 5.2931818,
                "end_time": 5.6772727,
                "pitch": 77,
                "velocity": 51,
                "duration": 0.3840909,
                "tempo": 120.0
            },
            {
                "start_time": 5.6954545,
                "end_time": 6.35,
                "pitch": 75,
                "velocity": 51,
                "duration": 0.6545455,
                "tempo": 120.0
            },
            {
                "start_time": 6.3681818,
                "end_time": 6.4863636,
                "pitch": 73,
                "velocity": 51,
                "duration": 0.1181818,
                "tempo": 120.0
            },
            {
                "start_time": 6.5045455,
                "end_time": 6.6227273,
                "pitch": 72,
                "velocity": 51,
                "duration": 0.1181818,
                "tempo": 120.0
            },
            {
                "start_time": 6.6386364,
                "end_time": 6.7568182,
                "pitch": 68,
                "velocity": 51,
                "duration": 0.1181818,
                "tempo": 120.0
            },
            {
                "start_time": 6.7727273,
                "end_time": 6.8909091,
                "pitch": 73,
                "velocity": 51,
                "duration": 0.1181818,
                "tempo": 120.0
            },
            {
                "start_time": 6.9068182,
                "end_time": 7.0227273,
                "pitch": 72,
                "velocity": 51,
                "duration": 0.1159091,
                "tempo": 120.0
            },
            {
                "start_time": 7.0409091,
                "end_time": 7.1568182,
                "pitch": 68,
                "velocity": 51,
                "duration": 0.1159091,
                "tempo": 120.0
            },
            {
                "start_time": 7.175,
                "end_time": 7.2931818,
                "pitch": 73,
                "velocity": 51,
                "duration": 0.1181818,
                "tempo": 120.0
            },
            {
                "start_time": 7.3090909,
                "end_time": 7.4295455,
                "pitch": 72,
                "velocity": 51,
                "duration": 0.1204545,
                "tempo": 120.0
            },
            {
                "start_time": 7.4454545,
                "end_time": 7.5659091,
                "pitch": 73,
                "velocity": 51,
                "duration": 0.1204545,
                "tempo": 120.0
            },
            {
                "start_time": 7.5818182,
                "end_time": 7.7,
                "pitch": 72,
                "velocity": 51,
                "duration": 0.1181818,
                "tempo": 120.0
            },
            {
                "start_time": 7.7181818,
                "end_time": 7.8340909,
                "pitch": 68,
                "velocity": 51,
                "duration": 0.1159091,
                "tempo": 120.0
            },
            {
                "start_time": 7.8522727,
                "end_time": 8.5022727,
                "pitch": 75,
                "velocity": 51,
                "duration": 0.65,
                "tempo": 120.0
            },
            {
                "start_time": 8.5204545,
                "end_time": 8.6363636,
                "pitch": 61,
                "velocity": 51,
                "duration": 0.1159091,
                "tempo": 120.0
            },
            {
                "start_time": 8.6522727,
                "end_time": 8.7704545,
                "pitch": 68,
                "velocity": 51,
                "duration": 0.1181818,
                "tempo": 120.0
            },
            {
                "start_time": 8.7863636,
                "end_time": 9.5818182,
                "pitch": 73,
                "velocity": 51,
                "duration": 0.7954545,
                "tempo": 120.0
            },
            {
                "start_time": 9.5977273,
                "end_time": 9.7136364,
                "pitch": 71,
                "velocity": 51,
                "duration": 0.1159091,
                "tempo": 120.0
            },
            {
                "start_time": 9.7318182,
                "end_time": 9.8477273,
                "pitch": 66,
                "velocity": 51,
                "duration": 0.1159091,
                "tempo": 120.0
            },
            {
                "start_time": 9.8659091,
                "end_time": 9.9818182,
                "pitch": 61,
                "velocity": 51,
                "duration": 0.1159091,
                "tempo": 120.0
            },
            {
                "start_time": 9.9977273,
                "end_time": 10.1159091,
                "pitch": 70,
                "velocity": 51,
                "duration": 0.1181818,
                "tempo": 120.0
            },
            {
                "start_time": 10.1318182,
                "end_time": 10.25,
                "pitch": 66,
                "velocity": 51,
                "duration": 0.1181818,
                "tempo": 120.0
            },
            {
                "start_time": 10.2659091,
                "end_time": 10.3818182,
                "pitch": 61,
                "velocity": 51,
                "duration": 0.1159091,
                "tempo": 120.0
            },
            {
                "start_time": 10.4,
                "end_time": 10.5181818,
                "pitch": 71,
                "velocity": 51,
                "duration": 0.1181818,
                "tempo": 120.0
            },
            {
                "start_time": 10.5363636,
                "end_time": 10.6545455,
                "pitch": 66,
                "velocity": 51,
                "duration": 0.1181818,
                "tempo": 120.0
            },
            {
                "start_time": 10.6704545,
                "end_time": 10.7909091,
                "pitch": 61,
                "velocity": 51,
                "duration": 0.1204545,
                "tempo": 120.0
            },
            {
                "start_time": 10.8068182,
                "end_time": 10.9272727,
                "pitch": 68,
                "velocity": 51,
                "duration": 0.1204545,
                "tempo": 120.0
            },
            {
                "start_time": 10.9431818,
                "end_time": 11.7272727,
                "pitch": 73,
                "velocity": 51,
                "duration": 0.7840909,
                "tempo": 120.0
            },
            {
                "start_time": 11.7454545,
                "end_time": 11.8613636,
                "pitch": 71,
                "velocity": 51,
                "duration": 0.1159091,
                "tempo": 120.0
            },
            {
                "start_time": 11.8795455,
                "end_time": 11.9954545,
                "pitch": 66,
                "velocity": 51,
                "duration": 0.1159091,
                "tempo": 120.0
            },
            {
                "start_time": 12.0113636,
                "end_time": 12.1295455,
                "pitch": 61,
                "velocity": 51,
                "duration": 0.1181818,
                "tempo": 120.0
            },
            {
                "start_time": 12.1454545,
                "end_time": 12.2931818,
                "pitch": 70,
                "velocity": 51,
                "duration": 0.1477273,
                "tempo": 120.0
            },
            {
                "start_time": 12.3136364,
                "end_time": 12.4636364,
                "pitch": 66,
                "velocity": 51,
                "duration": 0.15,
                "tempo": 120.0
            },
            {
                "start_time": 12.4840909,
                "end_time": 12.6318182,
                "pitch": 61,
                "velocity": 51,
                "duration": 0.1477273,
                "tempo": 120.0
            },
            {
                "start_time": 12.6545455,
                "end_time": 12.9727273,
                "pitch": 68,
                "velocity": 51,
                "duration": 0.3181818,
                "tempo": 120.0
            },
            {
                "start_time": 12.9931818,
                "end_time": 13.1409091,
                "pitch": 66,
                "velocity": 51,
                "duration": 0.1477273,
                "tempo": 120.0
            },
            {
                "start_time": 13.1613636,
                "end_time": 13.3113636,
                "pitch": 66,
                "velocity": 51,
                "duration": 0.15,
                "tempo": 120.0
            },
            {
                "start_time": 13.3318182,
                "end_time": 13.4795455,
                "pitch": 66,
                "velocity": 51,
                "duration": 0.1477273,
                "tempo": 120.0
            },
            {
                "start_time": 13.5022727,
                "end_time": 13.65,
                "pitch": 66,
                "velocity": 51,
                "duration": 0.1477273,
                "tempo": 120.0
            },
            {
                "start_time": 13.6704545,
                "end_time": 13.7886364,
                "pitch": 66,
                "velocity": 51,
                "duration": 0.1181818,
                "tempo": 120.0
            },
            {
                "start_time": 13.8068182,
                "end_time": 13.9227273,
                "pitch": 66,
                "velocity": 51,
                "duration": 0.1159091,
                "tempo": 120.0
            },
            {
                "start_time": 13.9386364,
                "end_time": 14.0568182,
                "pitch": 66,
                "velocity": 51,
                "duration": 0.1181818,
                "tempo": 120.0
            },
            {
                "start_time": 14.0727273,
                "end_time": 14.1909091,
                "pitch": 66,
                "velocity": 51,
                "duration": 0.1181818,
                "tempo": 120.0
            },
            {
                "start_time": 14.2068182,
                "end_time": 14.4568182,
                "pitch": 68,
                "velocity": 51,
                "duration": 0.25,
                "tempo": 120.0
            },
            {
                "start_time": 14.6068182,
                "end_time": 15.2590909,
                "pitch": 68,
                "velocity": 51,
                "duration": 0.6522727,
                "tempo": 120.0
            },
            {
                "start_time": 15.275,
                "end_time": 15.3954545,
                "pitch": 66,
                "velocity": 51,
                "duration": 0.1204545,
                "tempo": 120.0
            },
            {
                "start_time": 15.4113636,
                "end_time": 15.5295455,
                "pitch": 66,
                "velocity": 51,
                "duration": 0.1181818,
                "tempo": 120.0
            },
            {
                "start_time": 15.5477273,
                "end_time": 15.6659091,
                "pitch": 66,
                "velocity": 51,
                "duration": 0.1181818,
                "tempo": 120.0
            },
            {
                "start_time": 15.6840909,
                "end_time": 15.8022727,
                "pitch": 66,
                "velocity": 51,
                "duration": 0.1181818,
                "tempo": 120.0
            },
            {
                "start_time": 15.8204545,
                "end_time": 15.9363636,
                "pitch": 66,
                "velocity": 51,
                "duration": 0.1159091,
                "tempo": 120.0
            },
            {
                "start_time": 15.9522727,
                "end_time": 16.0704545,
                "pitch": 66,
                "velocity": 51,
                "duration": 0.1181818,
                "tempo": 120.0
            },
            {
                "start_time": 16.0863636,
                "end_time": 16.2045455,
                "pitch": 66,
                "velocity": 51,
                "duration": 0.1181818,
                "tempo": 120.0
            },
            {
                "start_time": 16.2204545,
                "end_time": 16.3363636,
                "pitch": 66,
                "velocity": 51,
                "duration": 0.1159091,
                "tempo": 120.0
            },
            {
                "start_time": 16.3545455,
                "end_time": 16.6090909,
                "pitch": 68,
                "velocity": 51,
                "duration": 0.2545455,
                "tempo": 120.0
            },
            {
                "start_time": 16.7613636,
                "end_time": 17.4159091,
                "pitch": 68,
                "velocity": 51,
                "duration": 0.6545455,
                "tempo": 120.0
            },
            {
                "start_time": 17.4318182,
                "end_time": 17.55,
                "pitch": 66,
                "velocity": 51,
                "duration": 0.1181818,
                "tempo": 120.0
            },
            {
                "start_time": 17.5659091,
                "end_time": 17.6818182,
                "pitch": 66,
                "velocity": 51,
                "duration": 0.1159091,
                "tempo": 120.0
            },
            {
                "start_time": 17.7,
                "end_time": 17.8159091,
                "pitch": 66,
                "velocity": 51,
                "duration": 0.1159091,
                "tempo": 120.0
            },
            {
                "start_time": 17.8318182,
                "end_time": 17.95,
                "pitch": 66,
                "velocity": 51,
                "duration": 0.1181818,
                "tempo": 120.0
            },
            {
                "start_time": 17.9659091,
                "end_time": 18.0863636,
                "pitch": 66,
                "velocity": 51,
                "duration": 0.1204545,
                "tempo": 120.0
            },
            {
                "start_time": 18.1022727,
                "end_time": 18.2204545,
                "pitch": 66,
                "velocity": 51,
                "duration": 0.1181818,
                "tempo": 120.0
            },
            {
                "start_time": 18.2386364,
                "end_time": 18.3568182,
                "pitch": 66,
                "velocity": 51,
                "duration": 0.1181818,
                "tempo": 120.0
            },
            {
                "start_time": 18.375,
                "end_time": 18.4931818,
                "pitch": 66,
                "velocity": 51,
                "duration": 0.1181818,
                "tempo": 120.0
            },
            {
                "start_time": 18.5113636,
                "end_time": 18.7613636,
                "pitch": 68,
                "velocity": 51,
                "duration": 0.25,
                "tempo": 120.0
            },
            {
                "start_time": 18.9113636,
                "end_time": 19.5613636,
                "pitch": 68,
                "velocity": 51,
                "duration": 0.65,
                "tempo": 120.0
            },
            {
                "start_time": 19.5795455,
                "end_time": 19.6977273,
                "pitch": 66,
                "velocity": 51,
                "duration": 0.1181818,
                "tempo": 120.0
            },
            {
                "start_time": 19.7159091,
                "end_time": 19.8340909,
                "pitch": 66,
                "velocity": 51,
                "duration": 0.1181818,
                "tempo": 120.0
            },
            {
                "start_time": 19.85,
                "end_time": 19.9704545,
                "pitch": 66,
                "velocity": 51,
                "duration": 0.1204545,
                "tempo": 120.0
            },
            {
                "start_time": 19.9863636,
                "end_time": 20.1068182,
                "pitch": 66,
                "velocity": 51,
                "duration": 0.1204545,
                "tempo": 120.0
            },
            {
                "start_time": 20.1227273,
                "end_time": 20.2409091,
                "pitch": 66,
                "velocity": 51,
                "duration": 0.1181818,
                "tempo": 120.0
            },
            {
                "start_time": 20.2568182,
                "end_time": 20.3727273,
                "pitch": 66,
                "velocity": 51,
                "duration": 0.1159091,
                "tempo": 120.0
            },
            {
                "start_time": 20.3909091,
                "end_time": 20.5068182,
                "pitch": 66,
                "velocity": 51,
                "duration": 0.1159091,
                "tempo": 120.0
            },
            {
                "start_time": 20.525,
                "end_time": 20.6409091,
                "pitch": 66,
                "velocity": 51,
                "duration": 0.1159091,
                "tempo": 120.0
            },
            {
                "start_time": 20.6568182,
                "end_time": 20.9090909,
                "pitch": 68,
                "velocity": 51,
                "duration": 0.2522727,
                "tempo": 120.0
            },
            {
                "start_time": 21.0590909,
                "end_time": 21.7090909,
                "pitch": 68,
                "velocity": 51,
                "duration": 0.65,
                "tempo": 120.0
            },
            {
                "start_time": 21.8613636,
                "end_time": 21.9818182,
                "pitch": 75,
                "velocity": 51,
                "duration": 0.1204545,
                "tempo": 120.0
            },
            {
                "start_time": 21.9977273,
                "end_time": 22.1181818,
                "pitch": 72,
                "velocity": 51,
                "duration": 0.1204545,
                "tempo": 120.0
            },
            {
                "start_time": 22.1340909,
                "end_time": 22.2522727,
                "pitch": 68,
                "velocity": 51,
                "duration": 0.1181818,
                "tempo": 120.0
            },
            {
                "start_time": 22.2704545,
                "end_time": 22.3863636,
                "pitch": 66,
                "velocity": 51,
                "duration": 0.1159091,
                "tempo": 120.0
            },
            {
                "start_time": 22.4045455,
                "end_time": 22.5204545,
                "pitch": 63,
                "velocity": 51,
                "duration": 0.1159091,
                "tempo": 120.0
            },
            {
                "start_time": 22.5363636,
                "end_time": 22.6545455,
                "pitch": 60,
                "velocity": 51,
                "duration": 0.1181818,
                "tempo": 120.0
            },
            {
                "start_time": 22.6704545,
                "end_time": 22.7886364,
                "pitch": 57,
                "velocity": 51,
                "duration": 0.1181818,
                "tempo": 120.0
            },
            {
                "start_time": 22.8045455,
                "end_time": 22.9204545,
                "pitch": 77,
                "velocity": 51,
                "duration": 0.1159091,
                "tempo": 120.0
            },
            {
                "start_time": 23.2045455,
                "end_time": 23.3227273,
                "pitch": 73,
                "velocity": 51,
                "duration": 0.1181818,
                "tempo": 120.0
            },
            {
                "start_time": 23.8727273,
                "end_time": 23.9931818,
                "pitch": 78,
                "velocity": 51,
                "duration": 0.1204545,
                "tempo": 120.0
            },
            {
                "start_time": 24.2818182,
                "end_time": 24.4,
                "pitch": 73,
                "velocity": 51,
                "duration": 0.1181818,
                "tempo": 120.0
            },
            {
                "start_time": 24.9613636,
                "end_time": 25.0772727,
                "pitch": 77,
                "velocity": 51,
                "duration": 0.1159091,
                "tempo": 120.0
            },
            {
                "start_time": 25.3613636,
                "end_time": 25.4795455,
                "pitch": 73,
                "velocity": 51,
                "duration": 0.1181818,
                "tempo": 120.0
            },
            {
                "start_time": 26.0295455,
                "end_time": 26.1477273,
                "pitch": 75,
                "velocity": 51,
                "duration": 0.1181818,
                "tempo": 120.0
            },
            {
                "start_time": 26.4318182,
                "end_time": 26.5477273,
                "pitch": 70,
                "velocity": 51,
                "duration": 0.1159091,
                "tempo": 120.0
            },
            {
                "start_time": 27.1090909,
                "end_time": 27.225,
                "pitch": 77,
                "velocity": 51,
                "duration": 0.1159091,
                "tempo": 120.0
            },
            {
                "start_time": 27.5090909,
                "end_time": 27.6272727,
                "pitch": 73,
                "velocity": 51,
                "duration": 0.1181818,
                "tempo": 120.0
            },
            {
                "start_time": 28.1772727,
                "end_time": 28.2954545,
                "pitch": 78,
                "velocity": 51,
                "duration": 0.1181818,
                "tempo": 120.0
            },
            {
                "start_time": 28.5840909,
                "end_time": 28.7045455,
                "pitch": 73,
                "velocity": 51,
                "duration": 0.1204545,
                "tempo": 120.0
            },
            {
                "start_time": 29.2454545,
                "end_time": 29.7818182,
                "pitch": 63,
                "velocity": 51,
                "duration": 0.5363636,
                "tempo": 120.0
            },
            {
                "start_time": 29.8,
                "end_time": 30.3181818,
                "pitch": 66,
                "velocity": 51,
                "duration": 0.5181818,
                "tempo": 120.0
            },
            {
                "start_time": 30.3340909,
                "end_time": 30.8522727,
                "pitch": 70,
                "velocity": 51,
                "duration": 0.5181818,
                "tempo": 120.0
            },
            {
                "start_time": 30.8681818,
                "end_time": 30.9863636,
                "pitch": 71,
                "velocity": 51,
                "duration": 0.1181818,
                "tempo": 120.0
            },
            {
                "start_time": 31.0045455,
                "end_time": 31.2590909,
                "pitch": 71,
                "velocity": 51,
                "duration": 0.2545455,
                "tempo": 120.0
            },
            {
                "start_time": 31.2772727,
                "end_time": 31.3954545,
                "pitch": 71,
                "velocity": 51,
                "duration": 0.1181818,
                "tempo": 120.0
            },
            {
                "start_time": 31.4113636,
                "end_time": 31.5295455,
                "pitch": 67,
                "velocity": 51,
                "duration": 0.1181818,
                "tempo": 120.0
            },
            {
                "start_time": 31.5454545,
                "end_time": 31.6636364,
                "pitch": 68,
                "velocity": 51,
                "duration": 0.1181818,
                "tempo": 120.0
            },
            {
                "start_time": 31.6795455,
                "end_time": 31.7954545,
                "pitch": 68,
                "velocity": 51,
                "duration": 0.1159091,
                "tempo": 120.0
            },
            {
                "start_time": 31.8136364,
                "end_time": 31.9295455,
                "pitch": 67,
                "velocity": 51,
                "duration": 0.1159091,
                "tempo": 120.0
            },
            {
                "start_time": 31.9477273,
                "end_time": 32.0636364,
                "pitch": 68,
                "velocity": 51,
                "duration": 0.1159091,
                "tempo": 120.0
            },
            {
                "start_time": 32.0795455,
                "end_time": 32.1977273,
                "pitch": 68,
                "velocity": 51,
                "duration": 0.1181818,
                "tempo": 120.0
            },
            {
                "start_time": 32.2136364,
                "end_time": 32.3318182,
                "pitch": 67,
                "velocity": 51,
                "duration": 0.1181818,
                "tempo": 120.0
            },
            {
                "start_time": 32.3477273,
                "end_time": 32.4636364,
                "pitch": 68,
                "velocity": 51,
                "duration": 0.1159091,
                "tempo": 120.0
            },
            {
                "start_time": 32.4818182,
                "end_time": 32.6,
                "pitch": 68,
                "velocity": 51,
                "duration": 0.1181818,
                "tempo": 120.0
            },
            {
                "start_time": 32.6181818,
                "end_time": 32.7363636,
                "pitch": 67,
                "velocity": 51,
                "duration": 0.1181818,
                "tempo": 120.0
            },
            {
                "start_time": 32.7522727,
                "end_time": 32.8727273,
                "pitch": 68,
                "velocity": 51,
                "duration": 0.1204545,
                "tempo": 120.0
            },
            {
                "start_time": 32.8886364,
                "end_time": 33.0090909,
                "pitch": 68,
                "velocity": 51,
                "duration": 0.1204545,
                "tempo": 120.0
            },
            {
                "start_time": 33.025,
                "end_time": 33.1409091,
                "pitch": 67,
                "velocity": 51,
                "duration": 0.1159091,
                "tempo": 120.0
            },
            {
                "start_time": 33.1590909,
                "end_time": 33.275,
                "pitch": 68,
                "velocity": 51,
                "duration": 0.1159091,
                "tempo": 120.0
            },
            {
                "start_time": 33.2931818,
                "end_time": 33.4090909,
                "pitch": 68,
                "velocity": 51,
                "duration": 0.1159091,
                "tempo": 120.0
            },
            {
                "start_time": 33.5590909,
                "end_time": 33.9431818,
                "pitch": 80,
                "velocity": 51,
                "duration": 0.3840909,
                "tempo": 120.0
            },
            {
                "start_time": 33.9613636,
                "end_time": 34.0772727,
                "pitch": 78,
                "velocity": 51,
                "duration": 0.1159091,
                "tempo": 120.0
            },
            {
                "start_time": 34.0931818,
                "end_time": 34.3477273,
                "pitch": 78,
                "velocity": 51,
                "duration": 0.2545455,
                "tempo": 120.0
            },
            {
                "start_time": 34.3659091,
                "end_time": 34.6204545,
                "pitch": 77,
                "velocity": 51,
                "duration": 0.2545455,
                "tempo": 120.0
            },
            {
                "start_time": 34.6386364,
                "end_time": 34.8886364,
                "pitch": 77,
                "velocity": 51,
                "duration": 0.25,
                "tempo": 120.0
            },
            {
                "start_time": 34.9045455,
                "end_time": 35.0227273,
                "pitch": 75,
                "velocity": 51,
                "duration": 0.1181818,
                "tempo": 120.0
            },
            {
                "start_time": 35.0386364,
                "end_time": 35.1545455,
                "pitch": 75,
                "velocity": 51,
                "duration": 0.1159091,
                "tempo": 120.0
            },
            {
                "start_time": 35.7068182,
                "end_time": 36.7681818,
                "pitch": 73,
                "velocity": 51,
                "duration": 1.0613636,
                "tempo": 120.0
            },
            {
                "start_time": 36.7840909,
                "end_time": 37.8363636,
                "pitch": 75,
                "velocity": 51,
                "duration": 1.0522727,
                "tempo": 120.0
            },
            {
                "start_time": 37.8545455,
                "end_time": 38.2454545,
                "pitch": 80,
                "velocity": 51,
                "duration": 0.3909091,
                "tempo": 120.0
            },
            {
                "start_time": 38.2613636,
                "end_time": 38.3795455,
                "pitch": 78,
                "velocity": 51,
                "duration": 0.1181818,
                "tempo": 120.0
            },
            {
                "start_time": 38.3977273,
                "end_time": 38.6477273,
                "pitch": 78,
                "velocity": 51,
                "duration": 0.25,
                "tempo": 120.0
            },
            {
                "start_time": 38.6659091,
                "end_time": 38.9159091,
                "pitch": 77,
                "velocity": 51,
                "duration": 0.25,
                "tempo": 120.0
            },
            {
                "start_time": 38.9318182,
                "end_time": 39.1863636,
                "pitch": 77,
                "velocity": 51,
                "duration": 0.2545455,
                "tempo": 120.0
            },
            {
                "start_time": 39.2045455,
                "end_time": 39.3227273,
                "pitch": 75,
                "velocity": 51,
                "duration": 0.1181818,
                "tempo": 120.0
            },
            {
                "start_time": 39.3409091,
                "end_time": 39.4590909,
                "pitch": 75,
                "velocity": 51,
                "duration": 0.1181818,
                "tempo": 120.0
            },
            {
                "start_time": 40.0113636,
                "end_time": 41.0727273,
                "pitch": 73,
                "velocity": 51,
                "duration": 1.0613636,
                "tempo": 120.0
            },
            {
                "start_time": 41.0886364,
                "end_time": 42.15,
                "pitch": 75,
                "velocity": 51,
                "duration": 1.0613636,
                "tempo": 120.0
            },
            {
                "start_time": 42.1659091,
                "end_time": 42.2840909,
                "pitch": 61,
                "velocity": 51,
                "duration": 0.1181818,
                "tempo": 120.0
            },
            {
                "start_time": 42.3,
                "end_time": 42.4181818,
                "pitch": 68,
                "velocity": 80,
                "duration": 0.1181818,
                "tempo": 120.0
            },
            {
                "start_time": 42.4340909,
                "end_time": 43.2181818,
                "pitch": 73,
                "velocity": 80,
                "duration": 0.7840909,
                "tempo": 120.0
            }
        ]
    }
}