{
    "mood": "happy",
    "instruments": {
        "Church Organ": [
            {
                "start_time": 1.2818182,
                "end_time": 1.4022727,
                "pitch": 58,
                "velocity": 80,
                "duration": 0.1204545,
                "tempo": 120.0
            },
            {
                "start_time": 1.4181818,
                "end_time": 1.5363636,
                "pitch": 58,
                "velocity": 80,
                "duration": 0.1181818,
                "tempo": 120.0
            },
            {
                "start_time": 1.5545455,
                "end_time": 1.8090909,
                "pitch": 58,
                "velocity": 80,
                "duration": 0.2545455,
                "tempo": 120.0
            },
            {
                "start_time": 1.8272727,
                "end_time": 2.0818182,
                "pitch": 58,
                "velocity": 80,
                "duration": 0.2545455,
                "tempo": 120.0
            },
            {
                "start_time": 2.0977273,
                "end_time": 2.3522727,
                "pitch": 58,
                "velocity": 80,
                "duration": 0.2545455,
                "tempo": 120.0
            },
            {
                "start_time": 2.3704545,
                "end_time": 2.4863636,
                "pitch": 59,
                "velocity": 80,
                "duration": 0.1159091,
                "tempo": 120.0
            },
            {
                "start_time": 2.5045455,
                "end_time": 3.1545455,
                "pitch": 59,
                "velocity": 80,
                "duration": 0.65,
                "tempo": 120.0
            },
            {
                "start_time": 5.5863636,
                "end_time": 5.7045455,
                "pitch": 58,
                "velocity": 80,
                "duration": 0.1181818,
                "tempo": 120.0
            },
            {
                "start_time": 5.7227273,
                "end_time": 5.8409091,
                "pitch": 58,
                "velocity": 80,
                "duration": 0.1181818,
                "tempo": 120.0
            },
            {
                "start_time": 5.8590909,
                "end_time": 6.1136364,
                "pitch": 61,
                "velocity": 80,
                "duration": 0.2545455,
                "tempo": 120.0
            },
            {
                "start_time": 6.1295455,
                "end_time": 6.3795455,
                "pitch": 58,
                "velocity": 80,
                "duration": 0.25,
                "tempo": 120.0
            },
            {
                "start_time": 6.3977273,
                "end_time": 6.6477273,
                "pitch": 61,
                "velocity": 80,
                "duration": 0.25,
                "tempo": 120.0
            },
            {
                "start_time": 6.6636364,
                "end_time": 6.7840909,
                "pitch": 63,
                "velocity": 80,
                "duration": 0.1204545,
                "tempo": 120.0
            },
            {
                "start_time": 6.8,
                "end_time": 6.9204545,
                "pitch": 58,
                "velocity": 80,
                "duration": 0.1204545,
                "tempo": 120.0
            },
            {
                "start_time": 7.2090909,
                "end_time": 7.4545455,
                "pitch": 61,
                "velocity": 80,
                "duration": 0.2454545,
                "tempo": 120.0
            },
            {
                "start_time": 7.4704545,
                "end_time": 7.5863636,
                "pitch": 63,
                "velocity": 80,
                "duration": 0.1159091,
                "tempo": 120.0
            },
            {
                "start_time": 7.6022727,
                "end_time": 7.7159091,
                "pitch": 58,
                "velocity": 80,
                "duration": 0.1136364,
                "tempo": 120.0
            },
            {
                "start_time": 9.8909091,
                "end_time": 10.0068182,
                "pitch": 58,
                "velocity": 80,
                "duration": 0.1159091,
                "tempo": 120.0
            },
            {
                "start_time": 10.0227273,
                "end_time": 10.1409091,
                "pitch": 58,
                "velocity": 80,
                "duration": 0.1181818,
                "tempo": 120.0
            },
            {
                "start_time": 10.1568182,
                "end_time": 10.4068182,
                "pitch": 58,
                "velocity": 80,
                "duration": 0.25,
                "tempo": 120.0
            },
            {
                "start_time": 10.425,
                "end_time": 10.6795455,
                "pitch": 58,
                "velocity": 80,
                "duration": 0.2545455,
                "tempo": 120.0
            },
            {
                "start_time": 10.6954545,
                "end_time": 10.9522727,
                "pitch": 58,
                "velocity": 80,
                "duration": 0.2568182,
                "tempo": 120.0
            },
            {
                "start_time": 10.9681818,
                "end_time": 11.0840909,
                "pitch": 59,
                "velocity": 80,
                "duration": 0.1159091,
                "tempo": 120.0
            },
            {
                "start_time": 11.1022727,
                "end_time": 11.7522727,
                "pitch": 59,
                "velocity": 80,
                "duration": 0.65,
                "tempo": 120.0
            },
            {
                "start_time": 14.1840909,
                "end_time": 14.3022727,
                "pitch": 58,
                "velocity": 80,
                "duration": 0.1181818,
                "tempo": 120.0
            },
            {
                "start_time": 14.3204545,
                "end_time": 14.4386364,
                "pitch": 58,
                "velocity": 80,
                "duration": 0.1181818,
                "tempo": 120.0
            },
            {
                "start_time": 14.4568182,
                "end_time": 14.7113636,
                "pitch": 61,
                "velocity": 80,
                "duration": 0.2545455,
                "tempo": 120.0
            },
            {
                "start_time": 14.7272727,
                "end_time": 14.9840909,
                "pitch": 58,
                "velocity": 80,
                "duration": 0.2568182,
                "tempo": 120.0
            },
            {
                "start_time": 15.0,
                "end_time": 15.2545455,
                "pitch": 61,
                "velocity": 80,
                "duration": 0.2545455,
                "tempo": 120.0
            },
            {
                "start_time": 15.2727273,
                "end_time": 15.3886364,
                "pitch": 63,
                "velocity": 80,
                "duration": 0.1159091,
                "tempo": 120.0
            },
            {
                "start_time": 15.4068182,
                "end_time": 15.5227273,
                "pitch": 58,
                "velocity": 80,
                "duration": 0.1159091,
                "tempo": 120.0
            },
            {
                "start_time": 15.5386364,
                "end_time": 16.325,
                "pitch": 58,
                "velocity": 80,
                "duration": 0.7863636,
                "tempo": 120.0
            },
            {
                "start_time": 16.6090909,
                "end_time": 16.8590909,
                "pitch": 58,
                "velocity": 80,
                "duration": 0.25,
                "tempo": 120.0
            },
            {
                "start_time": 16.875,
                "end_time": 17.1295455,
                "pitch": 61,
                "velocity": 80,
                "duration": 0.2545455,
                "tempo": 120.0
            },
            {
                "start_time": 17.1477273,
                "end_time": 17.5363636,
                "pitch": 63,
                "velocity": 80,
                "duration": 0.3886364,
                "tempo": 120.0
            },
            {
                "start_time": 17.5522727,
                "end_time": 18.2045455,
                "pitch": 61,
                "velocity": 80,
                "duration": 0.6522727,
                "tempo": 120.0
            },
            {
                "start_time": 18.7545455,
                "end_time": 19.0068182,
                "pitch": 61,
                "velocity": 80,
                "duration": 0.2522727,
                "tempo": 120.0
            },
            {
                "start_time": 19.0227273,
                "end_time": 19.2772727,
                "pitch": 63,
                "velocity": 80,
                "duration": 0.2545455,
                "tempo": 120.0
            },
            {
                "start_time": 19.2954545,
                "end_time": 19.6840909,
                "pitch": 56,
                "velocity": 80,
                "duration": 0.3886364,
                "tempo": 120.0
            },
            {
                "start_time": 19.7,
                "end_time": 20.3522727,
                "pitch": 54,
                "velocity": 80,
                "duration": 0.6522727,
                "tempo": 120.0
            },
            {
                "start_time": 20.7704545,
                "end_time": 21.1613636,
                "pitch": 58,
                "velocity": 80,
                "duration": 0.3909091,
                "tempo": 120.0
            },
            {
                "start_time": 21.1795455,
                "end_time": 21.4295455,
                "pitch": 61,
                "velocity": 80,
                "duration": 0.25,
                "tempo": 120.0
            },
            {
                "start_time": 21.4454545,
                "end_time": 21.8295455,
                "pitch": 63,
                "velocity": 80,
                "duration": 0.3840909,
                "tempo": 120.0
            },
            {
                "start_time": 21.8477273,
                "end_time": 22.5022727,
                "pitch": 61,
                "velocity": 80,
                "duration": 0.6545455,
                "tempo": 120.0
            },
            {
                "start_time": 23.5931818,
                "end_time": 23.8431818,
                "pitch": 63,
                "velocity": 80,
                "duration": 0.25,
                "tempo": 120.0
            },
            {
                "start_time": 23.8613636,
                "end_time": 24.1159091,
                "pitch": 63,
                "velocity": 80,
                "duration": 0.2545455,
                "tempo": 120.0
            },
            {
                "start_time": 24.1318182,
                "end_time": 24.3886364,
                "pitch": 63,
                "velocity": 80,
                "duration": 0.2568182,
                "tempo": 120.0
            },
            {
                "start_time": 24.4045455,
                "end_time": 24.5204545,
                "pitch": 63,
                "velocity": 80,
                "duration": 0.1159091,
                "tempo": 120.0
            },
            {
                "start_time": 24.5386364,
                "end_time": 25.4659091,
                "pitch": 65,
                "velocity": 80,
                "duration": 0.9272727,
                "tempo": 120.0
            },
            {
                "start_time": 25.75,
                "end_time": 26.1340909,
                "pitch": 70,
                "velocity": 80,
                "duration": 0.3840909,
                "tempo": 120.0
            },
            {
                "start_time": 26.15,
                "end_time": 26.5340909,
                "pitch": 68,
                "velocity": 80,
                "duration": 0.3840909,
                "tempo": 120.0
            },
            {
                "start_time": 26.5522727,
                "end_time": 27.0795455,
                "pitch": 71,
                "velocity": 80,
                "duration": 0.5272727,
                "tempo": 120.0
            },
            {
                "start_time": 27.0954545,
                "end_time": 27.3454545,
                "pitch": 70,
                "velocity": 80,
                "duration": 0.25,
                "tempo": 120.0
            },
            {
                "start_time": 27.3636364,
                "end_time": 27.6136364,
                "pitch": 68,
                "velocity": 80,
                "duration": 0.25,
                "tempo": 120.0
            },
            {
                "start_time": 27.6295455,
                "end_time": 27.8795455,
                "pitch": 66,
                "velocity": 80,
                "duration": 0.25,
                "tempo": 120.0
            },
            {
                "start_time": 27.8977273,
                "end_time": 28.2840909,
                "pitch": 68,
                "velocity": 80,
                "duration": 0.3863636,
                "tempo": 120.0
            },
            {
                "start_time": 28.3,
                "end_time": 28.6909091,
                "pitch": 66,
                "velocity": 80,
                "duration": 0.3909091,
                "tempo": 120.0
            },
            {
                "start_time": 28.7090909,
                "end_time": 30.0318182,
                "pitch": 70,
                "velocity": 80,
                "duration": 1.3227273,
                "tempo": 120.0
            },
            {
                "start_time": 30.05,
                "end_time": 30.4386364,
                "pitch": 63,
                "velocity": 80,
                "duration": 0.3886364,
                "tempo": 120.0
            },
            {
                "start_time": 30.4545455,
                "end_time": 30.8386364,
                "pitch": 66,
                "velocity": 80,
                "duration": 0.3840909,
                "tempo": 120.0
            },
            {
                "start_time": 30.8545455,
                "end_time": 31.3818182,
                "pitch": 68,
                "velocity": 80,
                "duration": 0.5272727,
                "tempo": 120.0
            },
            {
                "start_time": 31.4,
                "end_time": 31.65,
                "pitch": 68,
                "velocity": 80,
                "duration": 0.25,
                "tempo": 120.0
            },
            {
                "start_time": 31.6659091,
                "end_time": 31.9159091,
                "pitch": 68,
                "velocity": 80,
                "duration": 0.25,
                "tempo": 120.0
            },
            {
                "start_time": 31.9340909,
                "end_time": 32.05,
                "pitch": 66,
                "velocity": 80,
                "duration": 0.1159091,
                "tempo": 120.0
            },
            {
                "start_time": 32.0681818,
                "end_time": 33.2568182,
                "pitch": 70,
                "velocity": 80,
                "duration": 1.1886364,
                "tempo": 120.0
            },
            {
                "start_time": 34.3477273,
                "end_time": 34.7386364,
                "pitch": 70,
                "velocity": 80,
                "duration": 0.3909091,
                "tempo": 120.0
            },
            {
                "start_time": 34.7568182,
                "end_time": 35.1340909,
                "pitch": 68,
                "velocity": 80,
                "duration": 0.3772727,
                "tempo": 120.0
            },
            {
                "start_time": 35.15,
                "end_time": 35.6772727,
                "pitch": 71,
                "velocity": 80,
                "duration": 0.5272727,
                "tempo": 120.0
            },
            {
                "start_time": 35.6931818,
                "end_time": 35.9431818,
                "pitch": 70,
                "velocity": 80,
                "duration": 0.25,
                "tempo": 120.0
            },
            {
                "start_time": 35.9613636,
                "end_time": 36.2113636,
                "pitch": 68,
                "velocity": 80,
                "duration": 0.25,
                "tempo": 120.0
            },
            {
                "start_time": 36.2272727,
                "end_time": 36.4818182,
                "pitch": 66,
                "velocity": 80,
                "duration": 0.2545455,
                "tempo": 120.0
            },
            {
                "start_time": 36.5,
                "end_time": 36.8886364,
                "pitch": 68,
                "velocity": 80,
                "duration": 0.3886364,
                "tempo": 120.0
            },
            {
                "start_time": 36.9045455,
                "end_time": 37.2886364,
                "pitch": 66,
                "velocity": 80,
                "duration": 0.3840909,
                "tempo": 120.0
            },
            {
                "start_time": 37.3068182,
                "end_time": 38.6340909,
                "pitch": 70,
                "velocity": 80,
                "duration": 1.3272727,
                "tempo": 120.0
            },
            {
                "start_time": 38.6522727,
                "end_time": 39.0363636,
                "pitch": 63,
                "velocity": 80,
                "duration": 0.3840909,
                "tempo": 120.0
            },
            {
                "start_time": 39.0522727,
                "end_time": 39.4363636,
                "pitch": 66,
                "velocity": 80,
                "duration": 0.3840909,
                "tempo": 120.0
            },
            {
                "start_time": 39.4522727,
                "end_time": 40.5159091,
                "pitch": 68,
                "velocity": 80,
                "duration": 1.0636364,
                "tempo": 120.0
            },
            {
                "start_time": 40.5318182,
                "end_time": 40.6477273,
                "pitch": 66,
                "velocity": 80,
                "duration": 0.1159091,
                "tempo": 120.0
            },
            {
                "start_time": 40.6659091,
                "end_time": 41.8613636,
                "pitch": 66,
                "velocity": 80,
                "duration": 1.1954545,
                "tempo": 120.0
            }
        ],
        "Acoustic Bass": [
            {
                "start_time": 0.0,
                "end_time": 0.1636364,
                "pitch": 44,
                "velocity": 64,
                "duration": 0.1636364,
                "tempo": 120.0
            },
            {
                "start_time": 0.3113636,
                "end_time": 0.4272727,
                "pitch": 44,
                "velocity": 64,
                "duration": 0.1159091,
                "tempo": 120.0
            },
            {
                "start_time": 0.8659091,
                "end_time": 0.9886364,
                "pitch": 44,
                "velocity": 64,
                "duration": 0.1227273,
                "tempo": 120.0
            },
            {
                "start_time": 1.5545455,
                "end_time": 1.6727273,
                "pitch": 44,
                "velocity": 64,
                "duration": 0.1181818,
                "tempo": 120.0
            },
            {
                "start_time": 1.6909091,
                "end_time": 1.8090909,
                "pitch": 44,
                "velocity": 64,
                "duration": 0.1181818,
                "tempo": 120.0
            },
            {
                "start_time": 1.8272727,
                "end_time": 1.9454545,
                "pitch": 56,
                "velocity": 64,
                "duration": 0.1181818,
                "tempo": 120.0
            },
            {
                "start_time": 1.9613636,
                "end_time": 2.0818182,
                "pitch": 44,
                "velocity": 64,
                "duration": 0.1204545,
                "tempo": 120.0
            },
            {
                "start_time": 2.0977273,
                "end_time": 2.3522727,
                "pitch": 44,
                "velocity": 64,
                "duration": 0.2545455,
                "tempo": 120.0
            },
            {
                "start_time": 2.5045455,
                "end_time": 2.6204545,
                "pitch": 44,
                "velocity": 64,
                "duration": 0.1159091,
                "tempo": 120.0
            },
            {
                "start_time": 3.0386364,
                "end_time": 3.1545455,
                "pitch": 44,
                "velocity": 64,
                "duration": 0.1159091,
                "tempo": 120.0
            },
            {
                "start_time": 3.1727273,
                "end_time": 3.2886364,
                "pitch": 44,
                "velocity": 64,
                "duration": 0.1159091,
                "tempo": 120.0
            },
            {
                "start_time": 3.3045455,
                "end_time": 3.4227273,
                "pitch": 44,
                "velocity": 64,
                "duration": 0.1181818,
                "tempo": 120.0
            },
            {
                "start_time": 3.4386364,
                "end_time": 3.5568182,
                "pitch": 56,
                "velocity": 64,
                "duration": 0.1181818,
                "tempo": 120.0
            },
            {
                "start_time": 3.5727273,
                "end_time": 3.6886364,
                "pitch": 44,
                "velocity": 64,
                "duration": 0.1159091,
                "tempo": 120.0
            },
            {
                "start_time": 3.7068182,
                "end_time": 3.8227273,
                "pitch": 65,
                "velocity": 64,
                "duration": 0.1159091,
                "tempo": 120.0
            },
            {
                "start_time": 3.8409091,
                "end_time": 3.9568182,
                "pitch": 61,
                "velocity": 64,
                "duration": 0.1159091,
                "tempo": 120.0
            },
            {
                "start_time": 3.9727273,
                "end_time": 4.0909091,
                "pitch": 56,
                "velocity": 64,
                "duration": 0.1181818,
                "tempo": 120.0
            },
            {
                "start_time": 4.1068182,
                "end_time": 4.225,
                "pitch": 54,
                "velocity": 64,
                "duration": 0.1181818,
                "tempo": 120.0
            },
            {
                "start_time": 4.2409091,
                "end_time": 4.4909091,
                "pitch": 39,
                "velocity": 64,
                "duration": 0.25,
                "tempo": 120.0
            },
            {
                "start_time": 4.6431818,
                "end_time": 4.7636364,
                "pitch": 39,
                "velocity": 64,
                "duration": 0.1204545,
                "tempo": 120.0
            },
            {
                "start_time": 5.1863636,
                "end_time": 5.3022727,
                "pitch": 39,
                "velocity": 64,
                "duration": 0.1159091,
                "tempo": 120.0
            },
            {
                "start_time": 5.8590909,
                "end_time": 5.9772727,
                "pitch": 39,
                "velocity": 64,
                "duration": 0.1181818,
                "tempo": 120.0
            },
            {
                "start_time": 5.9931818,
                "end_time": 6.1136364,
                "pitch": 39,
                "velocity": 64,
                "duration": 0.1204545,
                "tempo": 120.0
            },
            {
                "start_time": 6.1295455,
                "end_time": 6.2477273,
                "pitch": 51,
                "velocity": 64,
                "duration": 0.1181818,
                "tempo": 120.0
            },
            {
                "start_time": 6.2636364,
                "end_time": 6.3795455,
                "pitch": 39,
                "velocity": 64,
                "duration": 0.1159091,
                "tempo": 120.0
            },
            {
                "start_time": 6.3977273,
                "end_time": 6.6477273,
                "pitch": 39,
                "velocity": 64,
                "duration": 0.25,
                "tempo": 120.0
            },
            {
                "start_time": 6.8,
                "end_time": 6.9204545,
                "pitch": 39,
                "velocity": 64,
                "duration": 0.1204545,
                "tempo": 120.0
            },
            {
                "start_time": 7.3386364,
                "end_time": 7.4545455,
                "pitch": 39,
                "velocity": 64,
                "duration": 0.1159091,
                "tempo": 120.0
            },
            {
                "start_time": 7.4704545,
                "end_time": 7.5863636,
                "pitch": 39,
                "velocity": 64,
                "duration": 0.1159091,
                "tempo": 120.0
            },
            {
                "start_time": 7.6022727,
                "end_time": 7.7159091,
                "pitch": 39,
                "velocity": 64,
                "duration": 0.1136364,
                "tempo": 120.0
            },
            {
                "start_time": 7.7340909,
                "end_time": 7.8522727,
                "pitch": 51,
                "velocity": 64,
                "duration": 0.1181818,
                "tempo": 120.0
            },
            {
                "start_time": 7.8681818,
                "end_time": 7.9886364,
                "pitch": 39,
                "velocity": 64,
                "duration": 0.1204545,
                "tempo": 120.0
            },
            {
                "start_time": 8.1409091,
                "end_time": 8.2590909,
                "pitch": 42,
                "velocity": 64,
                "duration": 0.1181818,
                "tempo": 120.0
            },
            {
                "start_time": 8.2772727,
                "end_time": 8.5272727,
                "pitch": 39,
                "velocity": 64,
                "duration": 0.25,
                "tempo": 120.0
            },
            {
                "start_time": 8.5454545,
                "end_time": 8.7954545,
                "pitch": 44,
                "velocity": 64,
                "duration": 0.25,
                "tempo": 120.0
            },
            {
                "start_time": 8.9454545,
                "end_time": 9.0613636,
                "pitch": 44,
                "velocity": 64,
                "duration": 0.1159091,
                "tempo": 120.0
            },
            {
                "start_time": 9.4818182,
                "end_time": 9.6,
                "pitch": 44,
                "velocity": 64,
                "duration": 0.1181818,
                "tempo": 120.0
            },
            {
                "start_time": 10.1568182,
                "end_time": 10.275,
                "pitch": 44,
                "velocity": 64,
                "duration": 0.1181818,
                "tempo": 120.0
            },
            {
                "start_time": 10.2909091,
                "end_time": 10.4068182,
                "pitch": 44,
                "velocity": 64,
                "duration": 0.1159091,
                "tempo": 120.0
            },
            {
                "start_time": 10.425,
                "end_time": 10.5431818,
                "pitch": 56,
                "velocity": 64,
                "duration": 0.1181818,
                "tempo": 120.0
            },
            {
                "start_time": 10.5590909,
                "end_time": 10.6795455,
                "pitch": 44,
                "velocity": 64,
                "duration": 0.1204545,
                "tempo": 120.0
            },
            {
                "start_time": 10.6954545,
                "end_time": 10.9522727,
                "pitch": 44,
                "velocity": 64,
                "duration": 0.2568182,
                "tempo": 120.0
            },
            {
                "start_time": 11.1022727,
                "end_time": 11.2181818,
                "pitch": 44,
                "velocity": 64,
                "duration": 0.1159091,
                "tempo": 120.0
            },
            {
                "start_time": 11.6363636,
                "end_time": 11.7522727,
                "pitch": 44,
                "velocity": 64,
                "duration": 0.1159091,
                "tempo": 120.0
            },
            {
                "start_time": 11.7704545,
                "end_time": 11.8863636,
                "pitch": 44,
                "velocity": 64,
                "duration": 0.1159091,
                "tempo": 120.0
            },
            {
                "start_time": 11.9045455,
                "end_time": 12.0204545,
                "pitch": 44,
                "velocity": 64,
                "duration": 0.1159091,
                "tempo": 120.0
            },
            {
                "start_time": 12.0363636,
                "end_time": 12.1545455,
                "pitch": 56,
                "velocity": 64,
                "duration": 0.1181818,
                "tempo": 120.0
            },
            {
                "start_time": 12.1704545,
                "end_time": 12.2886364,
                "pitch": 44,
                "velocity": 64,
                "duration": 0.1181818,
                "tempo": 120.0
            },
            {
                "start_time": 12.3045455,
                "end_time": 12.4204545,
                "pitch": 65,
                "velocity": 64,
                "duration": 0.1159091,
                "tempo": 120.0
            },
            {
                "start_time": 12.4386364,
                "end_time": 12.5545455,
                "pitch": 61,
                "velocity": 64,
                "duration": 0.1159091,
                "tempo": 120.0
            },
            {
                "start_time": 12.5704545,
                "end_time": 12.6909091,
                "pitch": 56,
                "velocity": 64,
                "duration": 0.1204545,
                "tempo": 120.0
            },
            {
                "start_time": 12.7068182,
                "end_time": 12.8272727,
                "pitch": 54,
                "velocity": 64,
                "duration": 0.1204545,
                "tempo": 120.0
            },
            {
                "start_time": 12.8431818,
                "end_time": 13.0977273,
                "pitch": 39,
                "velocity": 64,
                "duration": 0.2545455,
                "tempo": 120.0
            },
            {
                "start_time": 13.25,
                "end_time": 13.3659091,
                "pitch": 39,
                "velocity": 64,
                "duration": 0.1159091,
                "tempo": 120.0
            },
            {
                "start_time": 13.7840909,
                "end_time": 13.9,
                "pitch": 39,
                "velocity": 64,
                "duration": 0.1159091,
                "tempo": 120.0
            },
            {
                "start_time": 14.4568182,
                "end_time": 14.575,
                "pitch": 39,
                "velocity": 64,
                "duration": 0.1181818,
                "tempo": 120.0
            },
            {
                "start_time": 14.5931818,
                "end_time": 14.7113636,
                "pitch": 39,
                "velocity": 64,
                "duration": 0.1181818,
                "tempo": 120.0
            },
            {
                "start_time": 14.7272727,
                "end_time": 14.8477273,
                "pitch": 51,
                "velocity": 64,
                "duration": 0.1204545,
                "tempo": 120.0
            },
            {
                "start_time": 14.8636364,
                "end_time": 14.9840909,
                "pitch": 39,
                "velocity": 64,
                "duration": 0.1204545,
                "tempo": 120.0
            },
            {
                "start_time": 15.0,
                "end_time": 15.2545455,
                "pitch": 39,
                "velocity": 64,
                "duration": 0.2545455,
                "tempo": 120.0
            },
            {
                "start_time": 15.4068182,
                "end_time": 15.5227273,
                "pitch": 39,
                "velocity": 64,
                "duration": 0.1159091,
                "tempo": 120.0
            },
            {
                "start_time": 15.9409091,
                "end_time": 16.0568182,
                "pitch": 39,
                "velocity": 64,
                "duration": 0.1159091,
                "tempo": 120.0
            },
            {
                "start_time": 16.0727273,
                "end_time": 16.1909091,
                "pitch": 39,
                "velocity": 64,
                "duration": 0.1181818,
                "tempo": 120.0
            },
            {
                "start_time": 16.2068182,
                "end_time": 16.325,
                "pitch": 39,
                "velocity": 64,
                "duration": 0.1181818,
                "tempo": 120.0
            },
            {
                "start_time": 16.3409091,
                "end_time": 16.4568182,
                "pitch": 51,
                "velocity": 64,
                "duration": 0.1159091,
                "tempo": 120.0
            },
            {
                "start_time": 16.475,
                "end_time": 16.5909091,
                "pitch": 39,
                "velocity": 64,
                "duration": 0.1159091,
                "tempo": 120.0
            },
            {
                "start_time": 17.1477273,
                "end_time": 17.4022727,
                "pitch": 46,
                "velocity": 64,
                "duration": 0.2545455,
                "tempo": 120.0
            },
            {
                "start_time": 17.5522727,
                "end_time": 17.6704545,
                "pitch": 46,
                "velocity": 64,
                "duration": 0.1181818,
                "tempo": 120.0
            },
            {
                "start_time": 18.0863636,
                "end_time": 18.2045455,
                "pitch": 41,
                "velocity": 64,
                "duration": 0.1181818,
                "tempo": 120.0
            },
            {
                "start_time": 18.2204545,
                "end_time": 18.3386364,
                "pitch": 46,
                "velocity": 64,
                "duration": 0.1181818,
                "tempo": 120.0
            },
            {
                "start_time": 18.3545455,
                "end_time": 18.4704545,
                "pitch": 46,
                "velocity": 64,
                "duration": 0.1159091,
                "tempo": 120.0
            },
            {
                "start_time": 18.4886364,
                "end_time": 18.6045455,
                "pitch": 58,
                "velocity": 64,
                "duration": 0.1159091,
                "tempo": 120.0
            },
            {
                "start_time": 18.6227273,
                "end_time": 18.7386364,
                "pitch": 46,
                "velocity": 64,
                "duration": 0.1159091,
                "tempo": 120.0
            },
            {
                "start_time": 19.2954545,
                "end_time": 19.55,
                "pitch": 47,
                "velocity": 64,
                "duration": 0.2545455,
                "tempo": 120.0
            },
            {
                "start_time": 19.7,
                "end_time": 19.8159091,
                "pitch": 47,
                "velocity": 64,
                "duration": 0.1159091,
                "tempo": 120.0
            },
            {
                "start_time": 20.2340909,
                "end_time": 20.3522727,
                "pitch": 42,
                "velocity": 64,
                "duration": 0.1181818,
                "tempo": 120.0
            },
            {
                "start_time": 20.3681818,
                "end_time": 20.4840909,
                "pitch": 47,
                "velocity": 64,
                "duration": 0.1159091,
                "tempo": 120.0
            },
            {
                "start_time": 20.5022727,
                "end_time": 20.6181818,
                "pitch": 47,
                "velocity": 64,
                "duration": 0.1159091,
                "tempo": 120.0
            },
            {
                "start_time": 20.6340909,
                "end_time": 20.7545455,
                "pitch": 59,
                "velocity": 64,
                "duration": 0.1204545,
                "tempo": 120.0
            },
            {
                "start_time": 20.7704545,
                "end_time": 20.8909091,
                "pitch": 47,
                "velocity": 64,
                "duration": 0.1204545,
                "tempo": 120.0
            },
            {
                "start_time": 21.4454545,
                "end_time": 21.6977273,
                "pitch": 46,
                "velocity": 64,
                "duration": 0.2522727,
                "tempo": 120.0
            },
            {
                "start_time": 21.8477273,
                "end_time": 21.9636364,
                "pitch": 46,
                "velocity": 64,
                "duration": 0.1159091,
                "tempo": 120.0
            },
            {
                "start_time": 22.3840909,
                "end_time": 22.5022727,
                "pitch": 41,
                "velocity": 64,
                "duration": 0.1181818,
                "tempo": 120.0
            },
            {
                "start_time": 22.5204545,
                "end_time": 22.6386364,
                "pitch": 46,
                "velocity": 64,
                "duration": 0.1181818,
                "tempo": 120.0
            },
            {
                "start_time": 22.6568182,
                "end_time": 22.775,
                "pitch": 46,
                "velocity": 64,
                "duration": 0.1181818,
                "tempo": 120.0
            },
            {
                "start_time": 22.7909091,
                "end_time": 22.9090909,
                "pitch": 58,
                "velocity": 64,
                "duration": 0.1181818,
                "tempo": 120.0
            },
            {
                "start_time": 22.925,
                "end_time": 23.0431818,
                "pitch": 46,
                "velocity": 64,
                "duration": 0.1181818,
                "tempo": 120.0
            },
            {
                "start_time": 23.5931818,
                "end_time": 23.8431818,
                "pitch": 44,
                "velocity": 64,
                "duration": 0.25,
                "tempo": 120.0
            },
            {
                "start_time": 23.9954545,
                "end_time": 24.1159091,
                "pitch": 44,
                "velocity": 64,
                "duration": 0.1204545,
                "tempo": 120.0
            },
            {
                "start_time": 24.4045455,
                "end_time": 24.5204545,
                "pitch": 44,
                "velocity": 64,
                "duration": 0.1159091,
                "tempo": 120.0
            },
            {
                "start_time": 24.5386364,
                "end_time": 25.3295455,
                "pitch": 46,
                "velocity": 64,
                "duration": 0.7909091,
                "tempo": 120.0
            },
            {
                "start_time": 25.3477273,
                "end_time": 25.4659091,
                "pitch": 47,
                "velocity": 64,
                "duration": 0.1181818,
                "tempo": 120.0
            },
            {
                "start_time": 25.4818182,
                "end_time": 25.7340909,
                "pitch": 49,
                "velocity": 64,
                "duration": 0.2522727,
                "tempo": 120.0
            },
            {
                "start_time": 25.75,
                "end_time": 26.0,
                "pitch": 42,
                "velocity": 64,
                "duration": 0.25,
                "tempo": 120.0
            },
            {
                "start_time": 26.15,
                "end_time": 26.2681818,
                "pitch": 42,
                "velocity": 64,
                "duration": 0.1181818,
                "tempo": 120.0
            },
            {
                "start_time": 26.5522727,
                "end_time": 27.8795455,
                "pitch": 46,
                "velocity": 64,
                "duration": 1.3272727,
                "tempo": 120.0
            },
            {
                "start_time": 27.8977273,
                "end_time": 28.1477273,
                "pitch": 39,
                "velocity": 64,
                "duration": 0.25,
                "tempo": 120.0
            },
            {
                "start_time": 28.3,
                "end_time": 28.4181818,
                "pitch": 39,
                "velocity": 64,
                "duration": 0.1181818,
                "tempo": 120.0
            },
            {
                "start_time": 28.7090909,
                "end_time": 30.0318182,
                "pitch": 42,
                "velocity": 64,
                "duration": 1.3227273,
                "tempo": 120.0
            },
            {
                "start_time": 30.05,
                "end_time": 30.3045455,
                "pitch": 44,
                "velocity": 64,
                "duration": 0.2545455,
                "tempo": 120.0
            },
            {
                "start_time": 30.4545455,
                "end_time": 30.5704545,
                "pitch": 44,
                "velocity": 64,
                "duration": 0.1159091,
                "tempo": 120.0
            },
            {
                "start_time": 30.8545455,
                "end_time": 32.1840909,
                "pitch": 46,
                "velocity": 64,
                "duration": 1.3295455,
                "tempo": 120.0
            },
            {
                "start_time": 32.2,
                "end_time": 32.4522727,
                "pitch": 39,
                "velocity": 64,
                "duration": 0.2522727,
                "tempo": 120.0
            },
            {
                "start_time": 32.6022727,
                "end_time": 33.2568182,
                "pitch": 39,
                "velocity": 64,
                "duration": 0.6545455,
                "tempo": 120.0
            },
            {
                "start_time": 33.275,
                "end_time": 33.6613636,
                "pitch": 42,
                "velocity": 64,
                "duration": 0.3863636,
                "tempo": 120.0
            },
            {
                "start_time": 33.6772727,
                "end_time": 34.0545455,
                "pitch": 42,
                "velocity": 64,
                "duration": 0.3772727,
                "tempo": 120.0
            },
            {
                "start_time": 34.0704545,
                "end_time": 34.3295455,
                "pitch": 44,
                "velocity": 64,
                "duration": 0.2590909,
                "tempo": 120.0
            },
            {
                "start_time": 34.3477273,
                "end_time": 34.6068182,
                "pitch": 46,
                "velocity": 64,
                "duration": 0.2590909,
                "tempo": 120.0
            },
            {
                "start_time": 34.7568182,
                "end_time": 34.8704545,
                "pitch": 46,
                "velocity": 64,
                "duration": 0.1136364,
                "tempo": 120.0
            },
            {
                "start_time": 35.15,
                "end_time": 36.4818182,
                "pitch": 44,
                "velocity": 64,
                "duration": 1.3318182,
                "tempo": 120.0
            },
            {
                "start_time": 36.5,
                "end_time": 36.7545455,
                "pitch": 39,
                "velocity": 64,
                "duration": 0.2545455,
                "tempo": 120.0
            },
            {
                "start_time": 36.9045455,
                "end_time": 37.0227273,
                "pitch": 39,
                "velocity": 64,
                "duration": 0.1181818,
                "tempo": 120.0
            },
            {
                "start_time": 37.3068182,
                "end_time": 38.6340909,
                "pitch": 42,
                "velocity": 64,
                "duration": 1.3272727,
                "tempo": 120.0
            },
            {
                "start_time": 38.6522727,
                "end_time": 38.9022727,
                "pitch": 47,
                "velocity": 64,
                "duration": 0.25,
                "tempo": 120.0
            },
            {
                "start_time": 39.0522727,
                "end_time": 39.1704545,
                "pitch": 47,
                "velocity": 64,
                "duration": 0.1181818,
                "tempo": 120.0
            },
            {
                "start_time": 39.4522727,
                "end_time": 40.7818182,
                "pitch": 49,
                "velocity": 64,
                "duration": 1.3295455,
                "tempo": 120.0
            },
            {
                "start_time": 40.7977273,
                "end_time": 41.05,
                "pitch": 44,
                "velocity": 64,
                "duration": 0.2522727,
                "tempo": 120.0
            },
            {
                "start_time": 41.2022727,
                "end_time": 41.3204545,
                "pitch": 44,
                "velocity": 64,
                "duration": 0.1181818,
                "tempo": 120.0
            },
            {
                "start_time": 41.7431818,
                "end_time": 41.8613636,
                "pitch": 44,
                "velocity": 64,
                "duration": 0.1181818,
                "tempo": 120.0
            }
        ],
        "Vibraphone": [
            {
                "start_time": 0.0,
                "end_time": 0.2931818,
                "pitch": 58,
                "velocity": 64,
                "duration": 0.2931818,
                "tempo": 120.0
            },
            {
                "start_time": 0.3113636,
                "end_time": 0.9886364,
                "pitch": 59,
                "velocity": 64,
                "duration": 0.6772727,
                "tempo": 120.0
            },
            {
                "start_time": 1.0045455,
                "end_time": 1.2659091,
                "pitch": 54,
                "velocity": 64,
                "duration": 0.2613636,
                "tempo": 120.0
            },
            {
                "start_time": 1.2818182,
                "end_time": 1.5363636,
                "pitch": 58,
                "velocity": 64,
                "duration": 0.2545455,
                "tempo": 120.0
            },
            {
                "start_time": 2.0977273,
                "end_time": 2.4863636,
                "pitch": 58,
                "velocity": 64,
                "duration": 0.3886364,
                "tempo": 120.0
            },
            {
                "start_time": 2.5045455,
                "end_time": 4.225,
                "pitch": 59,
                "velocity": 64,
                "duration": 1.7204545,
                "tempo": 120.0
            },
            {
                "start_time": 4.2409091,
                "end_time": 4.6272727,
                "pitch": 56,
                "velocity": 64,
                "duration": 0.3863636,
                "tempo": 120.0
            },
            {
                "start_time": 4.6431818,
                "end_time": 4.7636364,
                "pitch": 54,
                "velocity": 64,
                "duration": 0.1204545,
                "tempo": 120.0
            },
            {
                "start_time": 4.7795455,
                "end_time": 4.8977273,
                "pitch": 56,
                "velocity": 64,
                "duration": 0.1181818,
                "tempo": 120.0
            },
            {
                "start_time": 4.9159091,
                "end_time": 5.0340909,
                "pitch": 56,
                "velocity": 64,
                "duration": 0.1181818,
                "tempo": 120.0
            },
            {
                "start_time": 5.0522727,
                "end_time": 5.1681818,
                "pitch": 58,
                "velocity": 64,
                "duration": 0.1159091,
                "tempo": 120.0
            },
            {
                "start_time": 5.1863636,
                "end_time": 5.3022727,
                "pitch": 56,
                "velocity": 64,
                "duration": 0.1159091,
                "tempo": 120.0
            },
            {
                "start_time": 5.3181818,
                "end_time": 5.5704545,
                "pitch": 58,
                "velocity": 64,
                "duration": 0.2522727,
                "tempo": 120.0
            },
            {
                "start_time": 6.3977273,
                "end_time": 6.7840909,
                "pitch": 56,
                "velocity": 64,
                "duration": 0.3863636,
                "tempo": 120.0
            },
            {
                "start_time": 6.8,
                "end_time": 7.1909091,
                "pitch": 54,
                "velocity": 64,
                "duration": 0.3909091,
                "tempo": 120.0
            },
            {
                "start_time": 7.2090909,
                "end_time": 7.5863636,
                "pitch": 56,
                "velocity": 64,
                "duration": 0.3772727,
                "tempo": 120.0
            },
            {
                "start_time": 7.6022727,
                "end_time": 7.9886364,
                "pitch": 54,
                "velocity": 64,
                "duration": 0.3863636,
                "tempo": 120.0
            },
            {
                "start_time": 8.5454545,
                "end_time": 8.9295455,
                "pitch": 58,
                "velocity": 64,
                "duration": 0.3840909,
                "tempo": 120.0
            },
            {
                "start_time": 8.9454545,
                "end_time": 9.6,
                "pitch": 59,
                "velocity": 64,
                "duration": 0.6545455,
                "tempo": 120.0
            },
            {
                "start_time": 9.6181818,
                "end_time": 9.8727273,
                "pitch": 54,
                "velocity": 64,
                "duration": 0.2545455,
                "tempo": 120.0
            },
            {
                "start_time": 9.8909091,
                "end_time": 10.1409091,
                "pitch": 58,
                "velocity": 64,
                "duration": 0.25,
                "tempo": 120.0
            },
            {
                "start_time": 10.6954545,
                "end_time": 11.0840909,
                "pitch": 58,
                "velocity": 64,
                "duration": 0.3886364,
                "tempo": 120.0
            },
            {
                "start_time": 11.1022727,
                "end_time": 12.8272727,
                "pitch": 59,
                "velocity": 64,
                "duration": 1.725,
                "tempo": 120.0
            },
            {
                "start_time": 12.8431818,
                "end_time": 13.2318182,
                "pitch": 56,
                "velocity": 64,
                "duration": 0.3886364,
                "tempo": 120.0
            },
            {
                "start_time": 13.25,
                "end_time": 13.3659091,
                "pitch": 54,
                "velocity": 64,
                "duration": 0.1159091,
                "tempo": 120.0
            },
            {
                "start_time": 13.3818182,
                "end_time": 13.5,
                "pitch": 56,
                "velocity": 64,
                "duration": 0.1181818,
                "tempo": 120.0
            },
            {
                "start_time": 13.5159091,
                "end_time": 13.6340909,
                "pitch": 56,
                "velocity": 64,
                "duration": 0.1181818,
                "tempo": 120.0
            },
            {
                "start_time": 13.65,
                "end_time": 13.7659091,
                "pitch": 58,
                "velocity": 64,
                "duration": 0.1159091,
                "tempo": 120.0
            },
            {
                "start_time": 13.7840909,
                "end_time": 13.9,
                "pitch": 56,
                "velocity": 64,
                "duration": 0.1159091,
                "tempo": 120.0
            },
            {
                "start_time": 13.9159091,
                "end_time": 14.1681818,
                "pitch": 58,
                "velocity": 64,
                "duration": 0.2522727,
                "tempo": 120.0
            },
            {
                "start_time": 15.0,
                "end_time": 15.3886364,
                "pitch": 53,
                "velocity": 64,
                "duration": 0.3886364,
                "tempo": 120.0
            },
            {
                "start_time": 15.4068182,
                "end_time": 15.7909091,
                "pitch": 54,
                "velocity": 64,
                "duration": 0.3840909,
                "tempo": 120.0
            },
            {
                "start_time": 15.8068182,
                "end_time": 16.1909091,
                "pitch": 53,
                "velocity": 64,
                "duration": 0.3840909,
                "tempo": 120.0
            },
            {
                "start_time": 16.2068182,
                "end_time": 16.5909091,
                "pitch": 54,
                "velocity": 64,
                "duration": 0.3840909,
                "tempo": 120.0
            },
            {
                "start_time": 17.1477273,
                "end_time": 17.5363636,
                "pitch": 51,
                "velocity": 64,
                "duration": 0.3886364,
                "tempo": 120.0
            },
            {
                "start_time": 17.5522727,
                "end_time": 18.2045455,
                "pitch": 49,
                "velocity": 64,
                "duration": 0.6522727,
                "tempo": 120.0
            },
            {
                "start_time": 18.2204545,
                "end_time": 18.6045455,
                "pitch": 58,
                "velocity": 64,
                "duration": 0.3840909,
                "tempo": 120.0
            },
            {
                "start_time": 18.6227273,
                "end_time": 19.2772727,
                "pitch": 56,
                "velocity": 64,
                "duration": 0.6545455,
                "tempo": 120.0
            },
            {
                "start_time": 19.2954545,
                "end_time": 19.6840909,
                "pitch": 56,
                "velocity": 64,
                "duration": 0.3886364,
                "tempo": 120.0
            },
            {
                "start_time": 19.7,
                "end_time": 20.3522727,
                "pitch": 54,
                "velocity": 64,
                "duration": 0.6522727,
                "tempo": 120.0
            },
            {
                "start_time": 20.3681818,
                "end_time": 20.8909091,
                "pitch": 54,
                "velocity": 64,
                "duration": 0.5227273,
                "tempo": 120.0
            },
            {
                "start_time": 20.9068182,
                "end_time": 21.4295455,
                "pitch": 61,
                "velocity": 64,
                "duration": 0.5227273,
                "tempo": 120.0
            },
            {
                "start_time": 21.4454545,
                "end_time": 21.8295455,
                "pitch": 63,
                "velocity": 64,
                "duration": 0.3840909,
                "tempo": 120.0
            },
            {
                "start_time": 21.8477273,
                "end_time": 22.5022727,
                "pitch": 61,
                "velocity": 64,
                "duration": 0.6545455,
                "tempo": 120.0
            },
            {
                "start_time": 22.7909091,
                "end_time": 23.0431818,
                "pitch": 58,
                "velocity": 64,
                "duration": 0.2522727,
                "tempo": 120.0
            },
            {
                "start_time": 23.0590909,
                "end_time": 23.3090909,
                "pitch": 56,
                "velocity": 64,
                "duration": 0.25,
                "tempo": 120.0
            },
            {
                "start_time": 23.3272727,
                "end_time": 23.5772727,
                "pitch": 49,
                "velocity": 64,
                "duration": 0.25,
                "tempo": 120.0
            },
            {
                "start_time": 23.5931818,
                "end_time": 23.8431818,
                "pitch": 59,
                "velocity": 64,
                "duration": 0.25,
                "tempo": 120.0
            },
            {
                "start_time": 23.8613636,
                "end_time": 24.1159091,
                "pitch": 59,
                "velocity": 64,
                "duration": 0.2545455,
                "tempo": 120.0
            },
            {
                "start_time": 24.1318182,
                "end_time": 24.3886364,
                "pitch": 59,
                "velocity": 64,
                "duration": 0.2568182,
                "tempo": 120.0
            },
            {
                "start_time": 24.4045455,
                "end_time": 24.5204545,
                "pitch": 59,
                "velocity": 64,
                "duration": 0.1159091,
                "tempo": 120.0
            },
            {
                "start_time": 24.5386364,
                "end_time": 25.4659091,
                "pitch": 61,
                "velocity": 64,
                "duration": 0.9272727,
                "tempo": 120.0
            },
            {
                "start_time": 25.75,
                "end_time": 26.0,
                "pitch": 54,
                "velocity": 64,
                "duration": 0.25,
                "tempo": 120.0
            },
            {
                "start_time": 26.15,
                "end_time": 26.2681818,
                "pitch": 54,
                "velocity": 64,
                "duration": 0.1181818,
                "tempo": 120.0
            },
            {
                "start_time": 26.5522727,
                "end_time": 27.8795455,
                "pitch": 49,
                "velocity": 64,
                "duration": 1.3272727,
                "tempo": 120.0
            },
            {
                "start_time": 27.8977273,
                "end_time": 28.1477273,
                "pitch": 53,
                "velocity": 64,
                "duration": 0.25,
                "tempo": 120.0
            },
            {
                "start_time": 28.3,
                "end_time": 28.4181818,
                "pitch": 53,
                "velocity": 64,
                "duration": 0.1181818,
                "tempo": 120.0
            },
            {
                "start_time": 28.7090909,
                "end_time": 29.225,
                "pitch": 51,
                "velocity": 64,
                "duration": 0.5159091,
                "tempo": 120.0
            },
            {
                "start_time": 29.2431818,
                "end_time": 29.4931818,
                "pitch": 58,
                "velocity": 64,
                "duration": 0.25,
                "tempo": 120.0
            },
            {
                "start_time": 29.5090909,
                "end_time": 29.7613636,
                "pitch": 54,
                "velocity": 64,
                "duration": 0.2522727,
                "tempo": 120.0
            },
            {
                "start_time": 29.7772727,
                "end_time": 30.0318182,
                "pitch": 51,
                "velocity": 64,
                "duration": 0.2545455,
                "tempo": 120.0
            },
            {
                "start_time": 30.05,
                "end_time": 30.3045455,
                "pitch": 47,
                "velocity": 64,
                "duration": 0.2545455,
                "tempo": 120.0
            },
            {
                "start_time": 30.4545455,
                "end_time": 30.5704545,
                "pitch": 47,
                "velocity": 64,
                "duration": 0.1159091,
                "tempo": 120.0
            },
            {
                "start_time": 30.8545455,
                "end_time": 32.1840909,
                "pitch": 49,
                "velocity": 64,
                "duration": 1.3295455,
                "tempo": 120.0
            },
            {
                "start_time": 32.2,
                "end_time": 32.4522727,
                "pitch": 54,
                "velocity": 64,
                "duration": 0.2522727,
                "tempo": 120.0
            },
            {
                "start_time": 32.6022727,
                "end_time": 33.2568182,
                "pitch": 54,
                "velocity": 64,
                "duration": 0.6545455,
                "tempo": 120.0
            },
            {
                "start_time": 33.275,
                "end_time": 33.6613636,
                "pitch": 58,
                "velocity": 64,
                "duration": 0.3863636,
                "tempo": 120.0
            },
            {
                "start_time": 33.6772727,
                "end_time": 34.0545455,
                "pitch": 59,
                "velocity": 64,
                "duration": 0.3772727,
                "tempo": 120.0
            },
            {
                "start_time": 34.0704545,
                "end_time": 34.3295455,
                "pitch": 61,
                "velocity": 64,
                "duration": 0.2590909,
                "tempo": 120.0
            },
            {
                "start_time": 34.3477273,
                "end_time": 34.6068182,
                "pitch": 54,
                "velocity": 64,
                "duration": 0.2590909,
                "tempo": 120.0
            },
            {
                "start_time": 34.7568182,
                "end_time": 34.8704545,
                "pitch": 54,
                "velocity": 64,
                "duration": 0.1136364,
                "tempo": 120.0
            },
            {
                "start_time": 35.15,
                "end_time": 36.4818182,
                "pitch": 49,
                "velocity": 64,
                "duration": 1.3318182,
                "tempo": 120.0
            },
            {
                "start_time": 36.5,
                "end_time": 36.7545455,
                "pitch": 53,
                "velocity": 64,
                "duration": 0.2545455,
                "tempo": 120.0
            },
            {
                "start_time": 36.9045455,
                "end_time": 37.0227273,
                "pitch": 53,
                "velocity": 64,
                "duration": 0.1181818,
                "tempo": 120.0
            },
            {
                "start_time": 37.3068182,
                "end_time": 38.6340909,
                "pitch": 51,
                "velocity": 64,
                "duration": 1.3272727,
                "tempo": 120.0
            },
            {
                "start_time": 38.6522727,
                "end_time": 38.9022727,
                "pitch": 47,
                "velocity": 64,
                "duration": 0.25,
                "tempo": 120.0
            },
            {
                "start_time": 39.0522727,
                "end_time": 39.1704545,
                "pitch": 47,
                "velocity": 64,
                "duration": 0.1181818,
                "tempo": 120.0
            },
            {
                "start_time": 39.4522727,
                "end_time": 40.7818182,
                "pitch": 49,
                "velocity": 64,
                "duration": 1.3295455,
                "tempo": 120.0
            },
            {
                "start_time": 40.7977273,
                "end_time": 41.1840909,
                "pitch": 58,
                "velocity": 64,
                "duration": 0.3863636,
                "tempo": 120.0
            },
            {
                "start_time": 41.2022727,
                "end_time": 41.8613636,
                "pitch": 59,
                "velocity": 64,
                "duration": 0.6590909,
                "tempo": 120.0
            },
            {
                "start_time": 41.8772727,
                "end_time": 42.1272727,
                "pitch": 54,
                "velocity": 64,
                "duration": 0.25,
                "tempo": 120.0
            }
        ],
        "Lead 2 (sawtooth)": [
            {
                "start_time": 1.3159091,
                "end_time": 1.4340909,
                "pitch": 70,
                "velocity": 64,
                "duration": 0.1181818,
                "tempo": 120.0
            },
            {
                "start_time": 1.4522727,
                "end_time": 1.5704545,
                "pitch": 70,
                "velocity": 64,
                "duration": 0.1181818,
                "tempo": 120.0
            },
            {
                "start_time": 1.5886364,
                "end_time": 1.8431818,
                "pitch": 70,
                "velocity": 64,
                "duration": 0.2545455,
                "tempo": 120.0
            },
            {
                "start_time": 1.8590909,
                "end_time": 2.1159091,
                "pitch": 70,
                "velocity": 64,
                "duration": 0.2568182,
                "tempo": 120.0
            },
            {
                "start_time": 2.1318182,
                "end_time": 2.3863636,
                "pitch": 70,
                "velocity": 64,
                "duration": 0.2545455,
                "tempo": 120.0
            },
            {
                "start_time": 2.4045455,
                "end_time": 2.5204545,
                "pitch": 71,
                "velocity": 64,
                "duration": 0.1159091,
                "tempo": 120.0
            },
            {
                "start_time": 2.5363636,
                "end_time": 3.1886364,
                "pitch": 71,
                "velocity": 64,
                "duration": 0.6522727,
                "tempo": 120.0
            },
            {
                "start_time": 5.6204545,
                "end_time": 5.7386364,
                "pitch": 70,
                "velocity": 64,
                "duration": 0.1181818,
                "tempo": 120.0
            },
            {
                "start_time": 5.7568182,
                "end_time": 5.875,
                "pitch": 70,
                "velocity": 64,
                "duration": 0.1181818,
                "tempo": 120.0
            },
            {
                "start_time": 5.8931818,
                "end_time": 6.1477273,
                "pitch": 73,
                "velocity": 64,
                "duration": 0.2545455,
                "tempo": 120.0
            },
            {
                "start_time": 6.1636364,
                "end_time": 6.4136364,
                "pitch": 70,
                "velocity": 64,
                "duration": 0.25,
                "tempo": 120.0
            },
            {
                "start_time": 6.4318182,
                "end_time": 6.6818182,
                "pitch": 73,
                "velocity": 64,
                "duration": 0.25,
                "tempo": 120.0
            },
            {
                "start_time": 6.6977273,
                "end_time": 6.8181818,
                "pitch": 75,
                "velocity": 64,
                "duration": 0.1204545,
                "tempo": 120.0
            },
            {
                "start_time": 6.8340909,
                "end_time": 6.9522727,
                "pitch": 70,
                "velocity": 64,
                "duration": 0.1181818,
                "tempo": 120.0
            },
            {
                "start_time": 7.2409091,
                "end_time": 7.4863636,
                "pitch": 73,
                "velocity": 64,
                "duration": 0.2454545,
                "tempo": 120.0
            },
            {
                "start_time": 7.5045455,
                "end_time": 7.6181818,
                "pitch": 75,
                "velocity": 64,
                "duration": 0.1136364,
                "tempo": 120.0
            },
            {
                "start_time": 7.6340909,
                "end_time": 7.75,
                "pitch": 70,
                "velocity": 64,
                "duration": 0.1159091,
                "tempo": 120.0
            },
            {
                "start_time": 9.9227273,
                "end_time": 10.0409091,
                "pitch": 70,
                "velocity": 64,
                "duration": 0.1181818,
                "tempo": 120.0
            },
            {
                "start_time": 10.0568182,
                "end_time": 10.1727273,
                "pitch": 70,
                "velocity": 64,
                "duration": 0.1159091,
                "tempo": 120.0
            },
            {
                "start_time": 10.1909091,
                "end_time": 10.4409091,
                "pitch": 70,
                "velocity": 64,
                "duration": 0.25,
                "tempo": 120.0
            },
            {
                "start_time": 10.4590909,
                "end_time": 10.7136364,
                "pitch": 70,
                "velocity": 64,
                "duration": 0.2545455,
                "tempo": 120.0
            },
            {
                "start_time": 10.7295455,
                "end_time": 10.9840909,
                "pitch": 70,
                "velocity": 64,
                "duration": 0.2545455,
                "tempo": 120.0
            },
            {
                "start_time": 11.0022727,
                "end_time": 11.1181818,
                "pitch": 71,
                "velocity": 64,
                "duration": 0.1159091,
                "tempo": 120.0
            },
            {
                "start_time": 11.1363636,
                "end_time": 11.7863636,
                "pitch": 71,
                "velocity": 64,
                "duration": 0.65,
                "tempo": 120.0
            },
            {
                "start_time": 14.2181818,
                "end_time": 14.3363636,
                "pitch": 70,
                "velocity": 64,
                "duration": 0.1181818,
                "tempo": 120.0
            },
            {
                "start_time": 14.3545455,
                "end_time": 14.4727273,
                "pitch": 70,
                "velocity": 64,
                "duration": 0.1181818,
                "tempo": 120.0
            },
            {
                "start_time": 14.4909091,
                "end_time": 14.7454545,
                "pitch": 73,
                "velocity": 64,
                "duration": 0.2545455,
                "tempo": 120.0
            },
            {
                "start_time": 14.7613636,
                "end_time": 15.0181818,
                "pitch": 70,
                "velocity": 64,
                "duration": 0.2568182,
                "tempo": 120.0
            },
            {
                "start_time": 15.0340909,
                "end_time": 15.2886364,
                "pitch": 73,
                "velocity": 64,
                "duration": 0.2545455,
                "tempo": 120.0
            },
            {
                "start_time": 15.3045455,
                "end_time": 15.4227273,
                "pitch": 75,
                "velocity": 64,
                "duration": 0.1181818,
                "tempo": 120.0
            },
            {
                "start_time": 15.4386364,
                "end_time": 15.5568182,
                "pitch": 70,
                "velocity": 64,
                "duration": 0.1181818,
                "tempo": 120.0
            },
            {
                "start_time": 15.5727273,
                "end_time": 16.3568182,
                "pitch": 70,
                "velocity": 64,
                "duration": 0.7840909,
                "tempo": 120.0
            },
            {
                "start_time": 16.6409091,
                "end_time": 16.8931818,
                "pitch": 70,
                "velocity": 64,
                "duration": 0.2522727,
                "tempo": 120.0
            },
            {
                "start_time": 16.9090909,
                "end_time": 17.1636364,
                "pitch": 73,
                "velocity": 64,
                "duration": 0.2545455,
                "tempo": 120.0
            },
            {
                "start_time": 17.1818182,
                "end_time": 17.5704545,
                "pitch": 75,
                "velocity": 64,
                "duration": 0.3886364,
                "tempo": 120.0
            },
            {
                "start_time": 17.5863636,
                "end_time": 18.2386364,
                "pitch": 73,
                "velocity": 64,
                "duration": 0.6522727,
                "tempo": 120.0
            },
            {
                "start_time": 18.7886364,
                "end_time": 19.0386364,
                "pitch": 73,
                "velocity": 64,
                "duration": 0.25,
                "tempo": 120.0
            },
            {
                "start_time": 19.0568182,
                "end_time": 19.3113636,
                "pitch": 75,
                "velocity": 64,
                "duration": 0.2545455,
                "tempo": 120.0
            },
            {
                "start_time": 19.3272727,
                "end_time": 19.7159091,
                "pitch": 68,
                "velocity": 64,
                "duration": 0.3886364,
                "tempo": 120.0
            },
            {
                "start_time": 19.7340909,
                "end_time": 20.3840909,
                "pitch": 66,
                "velocity": 64,
                "duration": 0.65,
                "tempo": 120.0
            },
            {
                "start_time": 20.8045455,
                "end_time": 21.1954545,
                "pitch": 70,
                "velocity": 64,
                "duration": 0.3909091,
                "tempo": 120.0
            },
            {
                "start_time": 21.2136364,
                "end_time": 21.4636364,
                "pitch": 73,
                "velocity": 64,
                "duration": 0.25,
                "tempo": 120.0
            },
            {
                "start_time": 21.4795455,
                "end_time": 21.8636364,
                "pitch": 75,
                "velocity": 64,
                "duration": 0.3840909,
                "tempo": 120.0
            },
            {
                "start_time": 21.8795455,
                "end_time": 22.5363636,
                "pitch": 73,
                "velocity": 64,
                "duration": 0.6568182,
                "tempo": 120.0
            },
            {
                "start_time": 23.6272727,
                "end_time": 23.8772727,
                "pitch": 75,
                "velocity": 64,
                "duration": 0.25,
                "tempo": 120.0
            },
            {
                "start_time": 23.8954545,
                "end_time": 24.15,
                "pitch": 75,
                "velocity": 64,
                "duration": 0.2545455,
                "tempo": 120.0
            },
            {
                "start_time": 24.1659091,
                "end_time": 24.4204545,
                "pitch": 75,
                "velocity": 64,
                "duration": 0.2545455,
                "tempo": 120.0
            },
            {
                "start_time": 24.4386364,
                "end_time": 24.5545455,
                "pitch": 75,
                "velocity": 64,
                "duration": 0.1159091,
                "tempo": 120.0
            },
            {
                "start_time": 24.5704545,
                "end_time": 25.5,
                "pitch": 77,
                "velocity": 64,
                "duration": 0.9295455,
                "tempo": 120.0
            },
            {
                "start_time": 25.7840909,
                "end_time": 26.1681818,
                "pitch": 82,
                "velocity": 64,
                "duration": 0.3840909,
                "tempo": 120.0
            },
            {
                "start_time": 26.1840909,
                "end_time": 26.5681818,
                "pitch": 80,
                "velocity": 64,
                "duration": 0.3840909,
                "tempo": 120.0
            },
            {
                "start_time": 26.5863636,
                "end_time": 27.1113636,
                "pitch": 83,
                "velocity": 64,
                "duration": 0.525,
                "tempo": 120.0
            },
            {
                "start_time": 27.1295455,
                "end_time": 27.3795455,
                "pitch": 82,
                "velocity": 64,
                "duration": 0.25,
                "tempo": 120.0
            },
            {
                "start_time": 27.3954545,
                "end_time": 27.6477273,
                "pitch": 80,
                "velocity": 64,
                "duration": 0.2522727,
                "tempo": 120.0
            },
            {
                "start_time": 27.6636364,
                "end_time": 27.9136364,
                "pitch": 78,
                "velocity": 64,
                "duration": 0.25,
                "tempo": 120.0
            },
            {
                "start_time": 27.9295455,
                "end_time": 28.3181818,
                "pitch": 80,
                "velocity": 64,
                "duration": 0.3886364,
                "tempo": 120.0
            },
            {
                "start_time": 28.3340909,
                "end_time": 28.725,
                "pitch": 78,
                "velocity": 64,
                "duration": 0.3909091,
                "tempo": 120.0
            },
            {
                "start_time": 28.7409091,
                "end_time": 30.0659091,
                "pitch": 82,
                "velocity": 64,
                "duration": 1.325,
                "tempo": 120.0
            },
            {
                "start_time": 30.0818182,
                "end_time": 30.4704545,
                "pitch": 75,
                "velocity": 64,
                "duration": 0.3886364,
                "tempo": 120.0
            },
            {
                "start_time": 30.4886364,
                "end_time": 30.8727273,
                "pitch": 78,
                "velocity": 64,
                "duration": 0.3840909,
                "tempo": 120.0
            },
            {
                "start_time": 30.8886364,
                "end_time": 31.4159091,
                "pitch": 80,
                "velocity": 64,
                "duration": 0.5272727,
                "tempo": 120.0
            },
            {
                "start_time": 31.4318182,
                "end_time": 31.6840909,
                "pitch": 80,
                "velocity": 64,
                "duration": 0.2522727,
                "tempo": 120.0
            },
            {
                "start_time": 31.7,
                "end_time": 31.95,
                "pitch": 80,
                "velocity": 64,
                "duration": 0.25,
                "tempo": 120.0
            },
            {
                "start_time": 31.9681818,
                "end_time": 32.0840909,
                "pitch": 78,
                "velocity": 64,
                "duration": 0.1159091,
                "tempo": 120.0
            },
            {
                "start_time": 32.1,
                "end_time": 33.2909091,
                "pitch": 82,
                "velocity": 64,
                "duration": 1.1909091,
                "tempo": 120.0
            },
            {
                "start_time": 34.3818182,
                "end_time": 34.7727273,
                "pitch": 82,
                "velocity": 64,
                "duration": 0.3909091,
                "tempo": 120.0
            },
            {
                "start_time": 34.7886364,
                "end_time": 35.1659091,
                "pitch": 80,
                "velocity": 64,
                "duration": 0.3772727,
                "tempo": 120.0
            },
            {
                "start_time": 35.1840909,
                "end_time": 35.7090909,
                "pitch": 83,
                "velocity": 64,
                "duration": 0.525,
                "tempo": 120.0
            },
            {
                "start_time": 35.7272727,
                "end_time": 35.9772727,
                "pitch": 82,
                "velocity": 64,
                "duration": 0.25,
                "tempo": 120.0
            },
            {
                "start_time": 35.9931818,
                "end_time": 36.2454545,
                "pitch": 80,
                "velocity": 64,
                "duration": 0.2522727,
                "tempo": 120.0
            },
            {
                "start_time": 36.2613636,
                "end_time": 36.5159091,
                "pitch": 78,
                "velocity": 64,
                "duration": 0.2545455,
                "tempo": 120.0
            },
            {
                "start_time": 36.5340909,
                "end_time": 36.9227273,
                "pitch": 80,
                "velocity": 64,
                "duration": 0.3886364,
                "tempo": 120.0
            },
            {
                "start_time": 36.9386364,
                "end_time": 37.3227273,
                "pitch": 78,
                "velocity": 64,
                "duration": 0.3840909,
                "tempo": 120.0
            },
            {
                "start_time": 37.3386364,
                "end_time": 38.6681818,
                "pitch": 82,
                "velocity": 64,
                "duration": 1.3295455,
                "tempo": 120.0
            },
            {
                "start_time": 38.6840909,
                "end_time": 39.0681818,
                "pitch": 75,
                "velocity": 64,
                "duration": 0.3840909,
                "tempo": 120.0
            },
            {
                "start_time": 39.0863636,
                "end_time": 39.4704545,
                "pitch": 78,
                "velocity": 64,
                "duration": 0.3840909,
                "tempo": 120.0
            },
            {
                "start_time": 39.4863636,
                "end_time": 40.5477273,
                "pitch": 80,
                "velocity": 64,
                "duration": 1.0613636,
                "tempo": 120.0
            },
            {
                "start_time": 40.5659091,
                "end_time": 40.6818182,
                "pitch": 78,
                "velocity": 64,
                "duration": 0.1159091,
                "tempo": 120.0
            },
            {
                "start_time": 40.6977273,
                "end_time": 41.8931818,
                "pitch": 78,
                "velocity": 64,
                "duration": 1.1954545,
                "tempo": 120.0
            }
        ]
    }
}