{
    "mood": "happy",
    "instruments": {
        "Acoustic Bass": [
            {
                "start_time": 0.5386364,
                "end_time": 0.8568182,
                "pitch": 31,
                "velocity": 64,
                "duration": 0.3181818,
                "tempo": 120.0
            },
            {
                "start_time": 0.8727273,
                "end_time": 1.2,
                "pitch": 31,
                "velocity": 64,
                "duration": 0.3272727,
                "tempo": 120.0
            },
            {
                "start_time": 1.2159091,
                "end_time": 1.5340909,
                "pitch": 31,
                "velocity": 64,
                "duration": 0.3181818,
                "tempo": 120.0
            },
            {
                "start_time": 1.5522727,
                "end_time": 1.8954545,
                "pitch": 31,
                "velocity": 64,
                "duration": 0.3431818,
                "tempo": 120.0
            },
            {
                "start_time": 1.9136364,
                "end_time": 2.2409091,
                "pitch": 31,
                "velocity": 64,
                "duration": 0.3272727,
                "tempo": 120.0
            },
            {
                "start_time": 2.2568182,
                "end_time": 2.4136364,
                "pitch": 43,
                "velocity": 64,
                "duration": 0.1568182,
                "tempo": 120.0
            },
            {
                "start_time": 2.4295455,
                "end_time": 2.7522727,
                "pitch": 31,
                "velocity": 64,
                "duration": 0.3227273,
                "tempo": 120.0
            },
            {
                "start_time": 2.7704545,
                "end_time": 2.9204545,
                "pitch": 31,
                "velocity": 64,
                "duration": 0.15,
                "tempo": 120.0
            },
            {
                "start_time": 2.9363636,
                "end_time": 3.0909091,
                "pitch": 43,
                "velocity": 64,
                "duration": 0.1545455,
                "tempo": 120.0
            },
            {
                "start_time": 3.1090909,
                "end_time": 3.2636364,
                "pitch": 31,
                "velocity": 64,
                "duration": 0.1545455,
                "tempo": 120.0
            },
            {
                "start_time": 3.2818182,
                "end_time": 3.5886364,
                "pitch": 31,
                "velocity": 64,
                "duration": 0.3068182,
                "tempo": 120.0
            },
            {
                "start_time": 3.6045455,
                "end_time": 3.9318182,
                "pitch": 31,
                "velocity": 64,
                "duration": 0.3272727,
                "tempo": 120.0
            },
            {
                "start_time": 3.95,
                "end_time": 4.2681818,
                "pitch": 31,
                "velocity": 64,
                "duration": 0.3181818,
                "tempo": 120.0
            },
            {
                "start_time": 4.2840909,
                "end_time": 4.6113636,
                "pitch": 31,
                "velocity": 64,
                "duration": 0.3272727,
                "tempo": 120.0
            },
            {
                "start_time": 4.6295455,
                "end_time": 4.9477273,
                "pitch": 31,
                "velocity": 64,
                "duration": 0.3181818,
                "tempo": 120.0
            },
            {
                "start_time": 4.9636364,
                "end_time": 5.1181818,
                "pitch": 43,
                "velocity": 64,
                "duration": 0.1545455,
                "tempo": 120.0
            },
            {
                "start_time": 5.1363636,
                "end_time": 5.4590909,
                "pitch": 31,
                "velocity": 64,
                "duration": 0.3227273,
                "tempo": 120.0
            },
            {
                "start_time": 5.475,
                "end_time": 5.625,
                "pitch": 31,
                "velocity": 64,
                "duration": 0.15,
                "tempo": 120.0
            },
            {
                "start_time": 5.6431818,
                "end_time": 5.7931818,
                "pitch": 43,
                "velocity": 64,
                "duration": 0.15,
                "tempo": 120.0
            },
            {
                "start_time": 5.8090909,
                "end_time": 5.9613636,
                "pitch": 31,
                "velocity": 64,
                "duration": 0.1522727,
                "tempo": 120.0
            },
            {
                "start_time": 5.9772727,
                "end_time": 6.2954545,
                "pitch": 29,
                "velocity": 64,
                "duration": 0.3181818,
                "tempo": 120.0
            },
            {
                "start_time": 6.3136364,
                "end_time": 6.6386364,
                "pitch": 29,
                "velocity": 64,
                "duration": 0.325,
                "tempo": 120.0
            },
            {
                "start_time": 6.6568182,
                "end_time": 6.975,
                "pitch": 29,
                "velocity": 64,
                "duration": 0.3181818,
                "tempo": 120.0
            },
            {
                "start_time": 6.9909091,
                "end_time": 7.3090909,
                "pitch": 29,
                "velocity": 64,
                "duration": 0.3181818,
                "tempo": 120.0
            },
            {
                "start_time": 7.3272727,
                "end_time": 7.6454545,
                "pitch": 29,
                "velocity": 64,
                "duration": 0.3181818,
                "tempo": 120.0
            },
            {
                "start_time": 7.6613636,
                "end_time": 7.8159091,
                "pitch": 41,
                "velocity": 64,
                "duration": 0.1545455,
                "tempo": 120.0
            },
            {
                "start_time": 7.8340909,
                "end_time": 8.1568182,
                "pitch": 29,
                "velocity": 64,
                "duration": 0.3227273,
                "tempo": 120.0
            },
            {
                "start_time": 8.1727273,
                "end_time": 8.325,
                "pitch": 29,
                "velocity": 64,
                "duration": 0.1522727,
                "tempo": 120.0
            },
            {
                "start_time": 8.3409091,
                "end_time": 8.4954545,
                "pitch": 41,
                "velocity": 64,
                "duration": 0.1545455,
                "tempo": 120.0
            },
            {
                "start_time": 8.5136364,
                "end_time": 8.6681818,
                "pitch": 29,
                "velocity": 64,
                "duration": 0.1545455,
                "tempo": 120.0
            },
            {
                "start_time": 8.6840909,
                "end_time": 9.0022727,
                "pitch": 31,
                "velocity": 64,
                "duration": 0.3181818,
                "tempo": 120.0
            },
            {
                "start_time": 9.0204545,
                "end_time": 9.3386364,
                "pitch": 31,
                "velocity": 64,
                "duration": 0.3181818,
                "tempo": 120.0
            },
            {
                "start_time": 9.3545455,
                "end_time": 9.6727273,
                "pitch": 31,
                "velocity": 64,
                "duration": 0.3181818,
                "tempo": 120.0
            },
            {
                "start_time": 9.6909091,
                "end_time": 10.0159091,
                "pitch": 31,
                "velocity": 64,
                "duration": 0.325,
                "tempo": 120.0
            },
            {
                "start_time": 10.0340909,
                "end_time": 10.3522727,
                "pitch": 31,
                "velocity": 64,
                "duration": 0.3181818,
                "tempo": 120.0
            },
            {
                "start_time": 10.3681818,
                "end_time": 10.525,
                "pitch": 43,
                "velocity": 64,
                "duration": 0.1568182,
                "tempo": 120.0
            },
            {
                "start_time": 10.5409091,
                "end_time": 10.8636364,
                "pitch": 31,
                "velocity": 64,
                "duration": 0.3227273,
                "tempo": 120.0
            },
            {
                "start_time": 10.8818182,
                "end_time": 11.0318182,
                "pitch": 26,
                "velocity": 64,
                "duration": 0.15,
                "tempo": 120.0
            },
            {
                "start_time": 11.0477273,
                "end_time": 11.2,
                "pitch": 29,
                "velocity": 64,
                "duration": 0.1522727,
                "tempo": 120.0
            },
            {
                "start_time": 11.2159091,
                "end_time": 11.3659091,
                "pitch": 31,
                "velocity": 64,
                "duration": 0.15,
                "tempo": 120.0
            },
            {
                "start_time": 11.3840909,
                "end_time": 11.7113636,
                "pitch": 31,
                "velocity": 64,
                "duration": 0.3272727,
                "tempo": 120.0
            },
            {
                "start_time": 11.7272727,
                "end_time": 12.0454545,
                "pitch": 31,
                "velocity": 64,
                "duration": 0.3181818,
                "tempo": 120.0
            },
            {
                "start_time": 12.0636364,
                "end_time": 12.3818182,
                "pitch": 31,
                "velocity": 64,
                "duration": 0.3181818,
                "tempo": 120.0
            },
            {
                "start_time": 12.3977273,
                "end_time": 12.725,
                "pitch": 31,
                "velocity": 64,
                "duration": 0.3272727,
                "tempo": 120.0
            },
            {
                "start_time": 12.7409091,
                "end_time": 13.0590909,
                "pitch": 31,
                "velocity": 64,
                "duration": 0.3181818,
                "tempo": 120.0
            },
            {
                "start_time": 13.0772727,
                "end_time": 13.2318182,
                "pitch": 43,
                "velocity": 64,
                "duration": 0.1545455,
                "tempo": 120.0
            },
            {
                "start_time": 13.2477273,
                "end_time": 13.5727273,
                "pitch": 31,
                "velocity": 64,
                "duration": 0.325,
                "tempo": 120.0
            },
            {
                "start_time": 13.5886364,
                "end_time": 13.7386364,
                "pitch": 31,
                "velocity": 64,
                "duration": 0.15,
                "tempo": 120.0
            },
            {
                "start_time": 13.7568182,
                "end_time": 13.9068182,
                "pitch": 43,
                "velocity": 64,
                "duration": 0.15,
                "tempo": 120.0
            },
            {
                "start_time": 13.9227273,
                "end_time": 14.075,
                "pitch": 31,
                "velocity": 64,
                "duration": 0.1522727,
                "tempo": 120.0
            },
            {
                "start_time": 14.0909091,
                "end_time": 14.4090909,
                "pitch": 31,
                "velocity": 64,
                "duration": 0.3181818,
                "tempo": 120.0
            },
            {
                "start_time": 14.425,
                "end_time": 14.7522727,
                "pitch": 31,
                "velocity": 64,
                "duration": 0.3272727,
                "tempo": 120.0
            },
            {
                "start_time": 14.7704545,
                "end_time": 15.0886364,
                "pitch": 31,
                "velocity": 64,
                "duration": 0.3181818,
                "tempo": 120.0
            },
            {
                "start_time": 15.1045455,
                "end_time": 15.4227273,
                "pitch": 31,
                "velocity": 64,
                "duration": 0.3181818,
                "tempo": 120.0
            },
            {
                "start_time": 15.4409091,
                "end_time": 15.7659091,
                "pitch": 31,
                "velocity": 64,
                "duration": 0.325,
                "tempo": 120.0
            },
            {
                "start_time": 15.7840909,
                "end_time": 15.9340909,
                "pitch": 43,
                "velocity": 64,
                "duration": 0.15,
                "tempo": 120.0
            },
            {
                "start_time": 15.9522727,
                "end_time": 16.2704545,
                "pitch": 31,
                "velocity": 64,
                "duration": 0.3181818,
                "tempo": 120.0
            },
            {
                "start_time": 16.2863636,
                "end_time": 16.4363636,
                "pitch": 31,
                "velocity": 64,
                "duration": 0.15,
                "tempo": 120.0
            },
            {
                "start_time": 16.4545455,
                "end_time": 16.6090909,
                "pitch": 43,
                "velocity": 64,
                "duration": 0.1545455,
                "tempo": 120.0
            },
            {
                "start_time": 16.625,
                "end_time": 16.7818182,
                "pitch": 31,
                "velocity": 64,
                "duration": 0.1568182,
                "tempo": 120.0
            },
            {
                "start_time": 16.7977273,
                "end_time": 17.1159091,
                "pitch": 29,
                "velocity": 64,
                "duration": 0.3181818,
                "tempo": 120.0
            },
            {
                "start_time": 17.1340909,
                "end_time": 17.4522727,
                "pitch": 29,
                "velocity": 64,
                "duration": 0.3181818,
                "tempo": 120.0
            },
            {
                "start_time": 17.4681818,
                "end_time": 17.7863636,
                "pitch": 29,
                "velocity": 64,
                "duration": 0.3181818,
                "tempo": 120.0
            },
            {
                "start_time": 17.8022727,
                "end_time": 18.1295455,
                "pitch": 29,
                "velocity": 64,
                "duration": 0.3272727,
                "tempo": 120.0
            },
            {
                "start_time": 18.1477273,
                "end_time": 18.4659091,
                "pitch": 29,
                "velocity": 64,
                "duration": 0.3181818,
                "tempo": 120.0
            },
            {
                "start_time": 18.4818182,
                "end_time": 18.6363636,
                "pitch": 41,
                "velocity": 64,
                "duration": 0.1545455,
                "tempo": 120.0
            },
            {
                "start_time": 18.6545455,
                "end_time": 18.9772727,
                "pitch": 29,
                "velocity": 64,
                "duration": 0.3227273,
                "tempo": 120.0
            },
            {
                "start_time": 18.9931818,
                "end_time": 19.1454545,
                "pitch": 29,
                "velocity": 64,
                "duration": 0.1522727,
                "tempo": 120.0
            },
            {
                "start_time": 19.1613636,
                "end_time": 19.3113636,
                "pitch": 41,
                "velocity": 64,
                "duration": 0.15,
                "tempo": 120.0
            },
            {
                "start_time": 19.3295455,
                "end_time": 19.4795455,
                "pitch": 29,
                "velocity": 64,
                "duration": 0.15,
                "tempo": 120.0
            },
            {
                "start_time": 19.4954545,
                "end_time": 19.8136364,
                "pitch": 31,
                "velocity": 64,
                "duration": 0.3181818,
                "tempo": 120.0
            },
            {
                "start_time": 19.8318182,
                "end_time": 20.1590909,
                "pitch": 31,
                "velocity": 64,
                "duration": 0.3272727,
                "tempo": 120.0
            },
            {
                "start_time": 20.175,
                "end_time": 20.4931818,
                "pitch": 31,
                "velocity": 64,
                "duration": 0.3181818,
                "tempo": 120.0
            },
            {
                "start_time": 20.5113636,
                "end_time": 20.8386364,
                "pitch": 31,
                "velocity": 64,
                "duration": 0.3272727,
                "tempo": 120.0
            },
            {
                "start_time": 20.8545455,
                "end_time": 21.1727273,
                "pitch": 31,
                "velocity": 64,
                "duration": 0.3181818,
                "tempo": 120.0
            },
            {
                "start_time": 21.1909091,
                "end_time": 21.3454545,
                "pitch": 43,
                "velocity": 64,
                "duration": 0.1545455,
                "tempo": 120.0
            },
            {
                "start_time": 21.3613636,
                "end_time": 21.6840909,
                "pitch": 31,
                "velocity": 64,
                "duration": 0.3227273,
                "tempo": 120.0
            },
            {
                "start_time": 21.7022727,
                "end_time": 21.8522727,
                "pitch": 26,
                "velocity": 64,
                "duration": 0.15,
                "tempo": 120.0
            },
            {
                "start_time": 21.8681818,
                "end_time": 22.0204545,
                "pitch": 29,
                "velocity": 64,
                "duration": 0.1522727,
                "tempo": 120.0
            },
            {
                "start_time": 22.0363636,
                "end_time": 22.1863636,
                "pitch": 31,
                "velocity": 64,
                "duration": 0.15,
                "tempo": 120.0
            },
            {
                "start_time": 22.2045455,
                "end_time": 22.5227273,
                "pitch": 31,
                "velocity": 64,
                "duration": 0.3181818,
                "tempo": 120.0
            },
            {
                "start_time": 22.5386364,
                "end_time": 22.8659091,
                "pitch": 31,
                "velocity": 64,
                "duration": 0.3272727,
                "tempo": 120.0
            },
            {
                "start_time": 22.8840909,
                "end_time": 23.2022727,
                "pitch": 31,
                "velocity": 64,
                "duration": 0.3181818,
                "tempo": 120.0
            },
            {
                "start_time": 23.2181818,
                "end_time": 23.5363636,
                "pitch": 31,
                "velocity": 64,
                "duration": 0.3181818,
                "tempo": 120.0
            },
            {
                "start_time": 23.5522727,
                "end_time": 23.8795455,
                "pitch": 31,
                "velocity": 64,
                "duration": 0.3272727,
                "tempo": 120.0
            },
            {
                "start_time": 23.8977273,
                "end_time": 24.0477273,
                "pitch": 43,
                "velocity": 64,
                "duration": 0.15,
                "tempo": 120.0
            },
            {
                "start_time": 24.0659091,
                "end_time": 24.3863636,
                "pitch": 31,
                "velocity": 64,
                "duration": 0.3204545,
                "tempo": 120.0
            },
            {
                "start_time": 24.4045455,
                "end_time": 24.5590909,
                "pitch": 31,
                "velocity": 64,
                "duration": 0.1545455,
                "tempo": 120.0
            },
            {
                "start_time": 24.5772727,
                "end_time": 24.7272727,
                "pitch": 43,
                "velocity": 64,
                "duration": 0.15,
                "tempo": 120.0
            },
            {
                "start_time": 24.7431818,
                "end_time": 24.8954545,
                "pitch": 31,
                "velocity": 64,
                "duration": 0.1522727,
                "tempo": 120.0
            },
            {
                "start_time": 24.9113636,
                "end_time": 25.2295455,
                "pitch": 31,
                "velocity": 64,
                "duration": 0.3181818,
                "tempo": 120.0
            },
            {
                "start_time": 25.2454545,
                "end_time": 25.5636364,
                "pitch": 31,
                "velocity": 64,
                "duration": 0.3181818,
                "tempo": 120.0
            },
            {
                "start_time": 25.5818182,
                "end_time": 25.9090909,
                "pitch": 31,
                "velocity": 64,
                "duration": 0.3272727,
                "tempo": 120.0
            },
            {
                "start_time": 25.925,
                "end_time": 26.2431818,
                "pitch": 31,
                "velocity": 64,
                "duration": 0.3181818,
                "tempo": 120.0
            },
            {
                "start_time": 26.2613636,
                "end_time": 26.5795455,
                "pitch": 31,
                "velocity": 64,
                "duration": 0.3181818,
                "tempo": 120.0
            },
            {
                "start_time": 26.5954545,
                "end_time": 26.75,
                "pitch": 43,
                "velocity": 64,
                "duration": 0.1545455,
                "tempo": 120.0
            },
            {
                "start_time": 26.7681818,
                "end_time": 27.0909091,
                "pitch": 31,
                "velocity": 64,
                "duration": 0.3227273,
                "tempo": 120.0
            },
            {
                "start_time": 27.1068182,
                "end_time": 27.2590909,
                "pitch": 31,
                "velocity": 64,
                "duration": 0.1522727,
                "tempo": 120.0
            },
            {
                "start_time": 27.275,
                "end_time": 27.4295455,
                "pitch": 43,
                "velocity": 64,
                "duration": 0.1545455,
                "tempo": 120.0
            },
            {
                "start_time": 27.4477273,
                "end_time": 27.6022727,
                "pitch": 31,
                "velocity": 64,
                "duration": 0.1545455,
                "tempo": 120.0
            },
            {
                "start_time": 27.6181818,
                "end_time": 27.9363636,
                "pitch": 29,
                "velocity": 64,
                "duration": 0.3181818,
                "tempo": 120.0
            },
            {
                "start_time": 27.9545455,
                "end_time": 28.2727273,
                "pitch": 29,
                "velocity": 64,
                "duration": 0.3181818,
                "tempo": 120.0
            },
            {
                "start_time": 28.2886364,
                "end_time": 28.6068182,
                "pitch": 29,
                "velocity": 64,
                "duration": 0.3181818,
                "tempo": 120.0
            },
            {
                "start_time": 28.6227273,
                "end_time": 28.95,
                "pitch": 29,
                "velocity": 64,
                "duration": 0.3272727,
                "tempo": 120.0
            },
            {
                "start_time": 28.9681818,
                "end_time": 29.2863636,
                "pitch": 29,
                "velocity": 64,
                "duration": 0.3181818,
                "tempo": 120.0
            },
            {
                "start_time": 29.3022727,
                "end_time": 29.4545455,
                "pitch": 41,
                "velocity": 64,
                "duration": 0.1522727,
                "tempo": 120.0
            },
            {
                "start_time": 29.4704545,
                "end_time": 29.7931818,
                "pitch": 29,
                "velocity": 64,
                "duration": 0.3227273,
                "tempo": 120.0
            },
            {
                "start_time": 29.8090909,
                "end_time": 29.9659091,
                "pitch": 29,
                "velocity": 64,
                "duration": 0.1568182,
                "tempo": 120.0
            },
            {
                "start_time": 29.9818182,
                "end_time": 30.1340909,
                "pitch": 41,
                "velocity": 64,
                "duration": 0.1522727,
                "tempo": 120.0
            },
            {
                "start_time": 30.15,
                "end_time": 30.3,
                "pitch": 29,
                "velocity": 64,
                "duration": 0.15,
                "tempo": 120.0
            },
            {
                "start_time": 30.3181818,
                "end_time": 30.6363636,
                "pitch": 31,
                "velocity": 64,
                "duration": 0.3181818,
                "tempo": 120.0
            },
            {
                "start_time": 30.6522727,
                "end_time": 30.9795455,
                "pitch": 31,
                "velocity": 64,
                "duration": 0.3272727,
                "tempo": 120.0
            },
            {
                "start_time": 30.9954545,
                "end_time": 31.3136364,
                "pitch": 31,
                "velocity": 64,
                "duration": 0.3181818,
                "tempo": 120.0
            },
            {
                "start_time": 31.3318182,
                "end_time": 31.65,
                "pitch": 31,
                "velocity": 64,
                "duration": 0.3181818,
                "tempo": 120.0
            },
            {
                "start_time": 31.6659091,
                "end_time": 31.9931818,
                "pitch": 31,
                "velocity": 64,
                "duration": 0.3272727,
                "tempo": 120.0
            },
            {
                "start_time": 32.0113636,
                "end_time": 32.1613636,
                "pitch": 43,
                "velocity": 64,
                "duration": 0.15,
                "tempo": 120.0
            },
            {
                "start_time": 32.1772727,
                "end_time": 32.5,
                "pitch": 31,
                "velocity": 64,
                "duration": 0.3227273,
                "tempo": 120.0
            },
            {
                "start_time": 32.5181818,
                "end_time": 32.6727273,
                "pitch": 26,
                "velocity": 64,
                "duration": 0.1545455,
                "tempo": 120.0
            },
            {
                "start_time": 32.6886364,
                "end_time": 32.8409091,
                "pitch": 29,
                "velocity": 64,
                "duration": 0.1522727,
                "tempo": 120.0
            },
            {
                "start_time": 32.8568182,
                "end_time": 33.0090909,
                "pitch": 31,
                "velocity": 64,
                "duration": 0.1522727,
                "tempo": 120.0
            },
            {
                "start_time": 33.025,
                "end_time": 33.3431818,
                "pitch": 31,
                "velocity": 64,
                "duration": 0.3181818,
                "tempo": 120.0
            },
            {
                "start_time": 33.3590909,
                "end_time": 33.6772727,
                "pitch": 31,
                "velocity": 64,
                "duration": 0.3181818,
                "tempo": 120.0
            },
            {
                "start_time": 33.6954545,
                "end_time": 34.0136364,
                "pitch": 31,
                "velocity": 64,
                "duration": 0.3181818,
                "tempo": 120.0
            },
            {
                "start_time": 34.0295455,
                "end_time": 34.3568182,
                "pitch": 31,
                "velocity": 64,
                "duration": 0.3272727,
                "tempo": 120.0
            },
            {
                "start_time": 34.3727273,
                "end_time": 34.6909091,
                "pitch": 31,
                "velocity": 64,
                "duration": 0.3181818,
                "tempo": 120.0
            },
            {
                "start_time": 34.7090909,
                "end_time": 34.8636364,
                "pitch": 43,
                "velocity": 64,
                "duration": 0.1545455,
                "tempo": 120.0
            },
            {
                "start_time": 34.8818182,
                "end_time": 35.2045455,
                "pitch": 31,
                "velocity": 64,
                "duration": 0.3227273,
                "tempo": 120.0
            },
            {
                "start_time": 35.2204545,
                "end_time": 35.3704545,
                "pitch": 31,
                "velocity": 64,
                "duration": 0.15,
                "tempo": 120.0
            },
            {
                "start_time": 35.3886364,
                "end_time": 35.5431818,
                "pitch": 43,
                "velocity": 64,
                "duration": 0.1545455,
                "tempo": 120.0
            },
            {
                "start_time": 35.5590909,
                "end_time": 35.7159091,
                "pitch": 31,
                "velocity": 64,
                "duration": 0.1568182,
                "tempo": 120.0
            },
            {
                "start_time": 35.7318182,
                "end_time": 36.05,
                "pitch": 31,
                "velocity": 64,
                "duration": 0.3181818,
                "tempo": 120.0
            },
            {
                "start_time": 36.0681818,
                "end_time": 36.3863636,
                "pitch": 31,
                "velocity": 64,
                "duration": 0.3181818,
                "tempo": 120.0
            },
            {
                "start_time": 36.4022727,
                "end_time": 36.7204545,
                "pitch": 31,
                "velocity": 64,
                "duration": 0.3181818,
                "tempo": 120.0
            },
            {
                "start_time": 36.7363636,
                "end_time": 37.0636364,
                "pitch": 31,
                "velocity": 64,
                "duration": 0.3272727,
                "tempo": 120.0
            },
            {
                "start_time": 37.0818182,
                "end_time": 37.4,
                "pitch": 31,
                "velocity": 64,
                "duration": 0.3181818,
                "tempo": 120.0
            },
            {
                "start_time": 37.4159091,
                "end_time": 37.5659091,
                "pitch": 43,
                "velocity": 64,
                "duration": 0.15,
                "tempo": 120.0
            },
            {
                "start_time": 37.5840909,
                "end_time": 37.9068182,
                "pitch": 31,
                "velocity": 64,
                "duration": 0.3227273,
                "tempo": 120.0
            },
            {
                "start_time": 37.9227273,
                "end_time": 38.0772727,
                "pitch": 31,
                "velocity": 64,
                "duration": 0.1545455,
                "tempo": 120.0
            },
            {
                "start_time": 38.0954545,
                "end_time": 38.2454545,
                "pitch": 43,
                "velocity": 64,
                "duration": 0.15,
                "tempo": 120.0
            },
            {
                "start_time": 38.2636364,
                "end_time": 38.4136364,
                "pitch": 31,
                "velocity": 64,
                "duration": 0.15,
                "tempo": 120.0
            },
            {
                "start_time": 38.4295455,
                "end_time": 38.7477273,
                "pitch": 29,
                "velocity": 64,
                "duration": 0.3181818,
                "tempo": 120.0
            },
            {
                "start_time": 38.7659091,
                "end_time": 39.0931818,
                "pitch": 29,
                "velocity": 64,
                "duration": 0.3272727,
                "tempo": 120.0
            },
            {
                "start_time": 39.1090909,
                "end_time": 39.4272727,
                "pitch": 29,
                "velocity": 64,
                "duration": 0.3181818,
                "tempo": 120.0
            },
            {
                "start_time": 39.4454545,
                "end_time": 39.7636364,
                "pitch": 29,
                "velocity": 64,
                "duration": 0.3181818,
                "tempo": 120.0
            },
            {
                "start_time": 39.7795455,
                "end_time": 40.0977273,
                "pitch": 29,
                "velocity": 64,
                "duration": 0.3181818,
                "tempo": 120.0
            },
            {
                "start_time": 40.1136364,
                "end_time": 40.2681818,
                "pitch": 41,
                "velocity": 64,
                "duration": 0.1545455,
                "tempo": 120.0
            },
            {
                "start_time": 40.2863636,
                "end_time": 40.6090909,
                "pitch": 29,
                "velocity": 64,
                "duration": 0.3227273,
                "tempo": 120.0
            },
            {
                "start_time": 40.625,
                "end_time": 40.7772727,
                "pitch": 29,
                "velocity": 64,
                "duration": 0.1522727,
                "tempo": 120.0
            },
            {
                "start_time": 40.7931818,
                "end_time": 40.9477273,
                "pitch": 41,
                "velocity": 64,
                "duration": 0.1545455,
                "tempo": 120.0
            },
            {
                "start_time": 40.9659091,
                "end_time": 41.1204545,
                "pitch": 29,
                "velocity": 64,
                "duration": 0.1545455,
                "tempo": 120.0
            },
            {
                "start_time": 41.1386364,
                "end_time": 41.4568182,
                "pitch": 31,
                "velocity": 64,
                "duration": 0.3181818,
                "tempo": 120.0
            },
            {
                "start_time": 41.4727273,
                "end_time": 41.7909091,
                "pitch": 31,
                "velocity": 64,
                "duration": 0.3181818,
                "tempo": 120.0
            },
            {
                "start_time": 41.8068182,
                "end_time": 42.1340909,
                "pitch": 31,
                "velocity": 64,
                "duration": 0.3272727,
                "tempo": 120.0
            },
            {
                "start_time": 42.1522727,
                "end_time": 42.4704545,
                "pitch": 31,
                "velocity": 64,
                "duration": 0.3181818,
                "tempo": 120.0
            },
            {
                "start_time": 42.4863636,
                "end_time": 42.8045455,
                "pitch": 31,
                "velocity": 64,
                "duration": 0.3181818,
                "tempo": 120.0
            },
            {
                "start_time": 42.8227273,
                "end_time": 42.9772727,
                "pitch": 43,
                "velocity": 64,
                "duration": 0.1545455,
                "tempo": 120.0
            },
            {
                "start_time": 42.9931818,
                "end_time": 43.3159091,
                "pitch": 31,
                "velocity": 64,
                "duration": 0.3227273,
                "tempo": 120.0
            },
            {
                "start_time": 43.3340909,
                "end_time": 43.4840909,
                "pitch": 26,
                "velocity": 64,
                "duration": 0.15,
                "tempo": 120.0
            },
            {
                "start_time": 43.5,
                "end_time": 43.6522727,
                "pitch": 29,
                "velocity": 64,
                "duration": 0.1522727,
                "tempo": 120.0
            },
            {
                "start_time": 43.6681818,
                "end_time": 43.8181818,
                "pitch": 31,
                "velocity": 64,
                "duration": 0.15,
                "tempo": 120.0
            },
            {
                "start_time": 43.8363636,
                "end_time": 44.3318182,
                "pitch": 27,
                "velocity": 64,
                "duration": 0.4954545,
                "tempo": 120.0
            },
            {
                "start_time": 44.3477273,
                "end_time": 44.4977273,
                "pitch": 27,
                "velocity": 64,
                "duration": 0.15,
                "tempo": 120.0
            },
            {
                "start_time": 45.1840909,
                "end_time": 45.6795455,
                "pitch": 29,
                "velocity": 64,
                "duration": 0.4954545,
                "tempo": 120.0
            },
            {
                "start_time": 45.6977273,
                "end_time": 46.0181818,
                "pitch": 29,
                "velocity": 64,
                "duration": 0.3204545,
                "tempo": 120.0
            },
            {
                "start_time": 46.0363636,
                "end_time": 46.1909091,
                "pitch": 36,
                "velocity": 64,
                "duration": 0.1545455,
                "tempo": 120.0
            },
            {
                "start_time": 46.2090909,
                "end_time": 46.5272727,
                "pitch": 29,
                "velocity": 64,
                "duration": 0.3181818,
                "tempo": 120.0
            },
            {
                "start_time": 46.5431818,
                "end_time": 47.0340909,
                "pitch": 27,
                "velocity": 64,
                "duration": 0.4909091,
                "tempo": 120.0
            },
            {
                "start_time": 47.05,
                "end_time": 47.2045455,
                "pitch": 27,
                "velocity": 64,
                "duration": 0.1545455,
                "tempo": 120.0
            },
            {
                "start_time": 47.8931818,
                "end_time": 48.3818182,
                "pitch": 29,
                "velocity": 64,
                "duration": 0.4886364,
                "tempo": 120.0
            },
            {
                "start_time": 48.4,
                "end_time": 48.8909091,
                "pitch": 36,
                "velocity": 64,
                "duration": 0.4909091,
                "tempo": 120.0
            },
            {
                "start_time": 48.9068182,
                "end_time": 49.2340909,
                "pitch": 29,
                "velocity": 64,
                "duration": 0.3272727,
                "tempo": 120.0
            },
            {
                "start_time": 49.25,
                "end_time": 49.7363636,
                "pitch": 27,
                "velocity": 64,
                "duration": 0.4863636,
                "tempo": 120.0
            },
            {
                "start_time": 49.7545455,
                "end_time": 49.9045455,
                "pitch": 27,
                "velocity": 64,
                "duration": 0.15,
                "tempo": 120.0
            },
            {
                "start_time": 50.6,
                "end_time": 51.0909091,
                "pitch": 29,
                "velocity": 64,
                "duration": 0.4909091,
                "tempo": 120.0
            },
            {
                "start_time": 51.1068182,
                "end_time": 51.4295455,
                "pitch": 29,
                "velocity": 64,
                "duration": 0.3227273,
                "tempo": 120.0
            },
            {
                "start_time": 51.4477273,
                "end_time": 51.5977273,
                "pitch": 36,
                "velocity": 64,
                "duration": 0.15,
                "tempo": 120.0
            },
            {
                "start_time": 51.6136364,
                "end_time": 51.9318182,
                "pitch": 29,
                "velocity": 64,
                "duration": 0.3181818,
                "tempo": 120.0
            },
            {
                "start_time": 51.95,
                "end_time": 52.4386364,
                "pitch": 27,
                "velocity": 64,
                "duration": 0.4886364,
                "tempo": 120.0
            },
            {
                "start_time": 52.4568182,
                "end_time": 52.6113636,
                "pitch": 27,
                "velocity": 64,
                "duration": 0.1545455,
                "tempo": 120.0
            },
            {
                "start_time": 53.2977273,
                "end_time": 54.6409091,
                "pitch": 26,
                "velocity": 64,
                "duration": 1.3431818,
                "tempo": 120.0
            },
            {
                "start_time": 54.6568182,
                "end_time": 54.6727273,
                "pitch": 31,
                "velocity": 64,
                "duration": 0.0159091,
                "tempo": 120.0
            }
        ],
        "Acoustic Grand Piano": [
            {
                "start_time": 0.5386364,
                "end_time": 0.6886364,
                "pitch": 62,
                "velocity": 40,
                "duration": 0.15,
                "tempo": 120.0
            },
            {
                "start_time": 0.7045455,
                "end_time": 0.8568182,
                "pitch": 62,
                "velocity": 40,
                "duration": 0.1522727,
                "tempo": 120.0
            },
            {
                "start_time": 0.8727273,
                "end_time": 1.0272727,
                "pitch": 62,
                "velocity": 40,
                "duration": 0.1545455,
                "tempo": 120.0
            },
            {
                "start_time": 1.0454545,
                "end_time": 1.2,
                "pitch": 62,
                "velocity": 40,
                "duration": 0.1545455,
                "tempo": 120.0
            },
            {
                "start_time": 1.2159091,
                "end_time": 1.3681818,
                "pitch": 62,
                "velocity": 40,
                "duration": 0.1522727,
                "tempo": 120.0
            },
            {
                "start_time": 1.3840909,
                "end_time": 1.5340909,
                "pitch": 62,
                "velocity": 40,
                "duration": 0.15,
                "tempo": 120.0
            },
            {
                "start_time": 1.5522727,
                "end_time": 1.7068182,
                "pitch": 62,
                "velocity": 40,
                "duration": 0.1545455,
                "tempo": 120.0
            },
            {
                "start_time": 1.7227273,
                "end_time": 1.8954545,
                "pitch": 62,
                "velocity": 40,
                "duration": 0.1727273,
                "tempo": 120.0
            },
            {
                "start_time": 1.9136364,
                "end_time": 2.0681818,
                "pitch": 62,
                "velocity": 40,
                "duration": 0.1545455,
                "tempo": 120.0
            },
            {
                "start_time": 2.0863636,
                "end_time": 2.2409091,
                "pitch": 62,
                "velocity": 40,
                "duration": 0.1545455,
                "tempo": 120.0
            },
            {
                "start_time": 2.2568182,
                "end_time": 2.4136364,
                "pitch": 62,
                "velocity": 40,
                "duration": 0.1568182,
                "tempo": 120.0
            },
            {
                "start_time": 2.4295455,
                "end_time": 2.5840909,
                "pitch": 62,
                "velocity": 40,
                "duration": 0.1545455,
                "tempo": 120.0
            },
            {
                "start_time": 2.6022727,
                "end_time": 2.7522727,
                "pitch": 62,
                "velocity": 40,
                "duration": 0.15,
                "tempo": 120.0
            },
            {
                "start_time": 2.7704545,
                "end_time": 2.9204545,
                "pitch": 62,
                "velocity": 40,
                "duration": 0.15,
                "tempo": 120.0
            },
            {
                "start_time": 2.9363636,
                "end_time": 3.0909091,
                "pitch": 62,
                "velocity": 40,
                "duration": 0.1545455,
                "tempo": 120.0
            },
            {
                "start_time": 3.1090909,
                "end_time": 3.2636364,
                "pitch": 62,
                "velocity": 40,
                "duration": 0.1545455,
                "tempo": 120.0
            },
            {
                "start_time": 3.2818182,
                "end_time": 3.4272727,
                "pitch": 62,
                "velocity": 40,
                "duration": 0.1454545,
                "tempo": 120.0
            },
            {
                "start_time": 3.4431818,
                "end_time": 3.5886364,
                "pitch": 62,
                "velocity": 40,
                "duration": 0.1454545,
                "tempo": 120.0
            },
            {
                "start_time": 3.6045455,
                "end_time": 3.7590909,
                "pitch": 62,
                "velocity": 40,
                "duration": 0.1545455,
                "tempo": 120.0
            },
            {
                "start_time": 3.7772727,
                "end_time": 3.9318182,
                "pitch": 62,
                "velocity": 40,
                "duration": 0.1545455,
                "tempo": 120.0
            },
            {
                "start_time": 3.95,
                "end_time": 4.1,
                "pitch": 62,
                "velocity": 40,
                "duration": 0.15,
                "tempo": 120.0
            },
            {
                "start_time": 4.1159091,
                "end_time": 4.2681818,
                "pitch": 62,
                "velocity": 40,
                "duration": 0.1522727,
                "tempo": 120.0
            },
            {
                "start_time": 4.2840909,
                "end_time": 4.4386364,
                "pitch": 62,
                "velocity": 40,
                "duration": 0.1545455,
                "tempo": 120.0
            },
            {
                "start_time": 4.4568182,
                "end_time": 4.6113636,
                "pitch": 62,
                "velocity": 40,
                "duration": 0.1545455,
                "tempo": 120.0
            },
            {
                "start_time": 4.6295455,
                "end_time": 4.7795455,
                "pitch": 62,
                "velocity": 40,
                "duration": 0.15,
                "tempo": 120.0
            },
            {
                "start_time": 4.7954545,
                "end_time": 4.9477273,
                "pitch": 62,
                "velocity": 40,
                "duration": 0.1522727,
                "tempo": 120.0
            },
            {
                "start_time": 4.9636364,
                "end_time": 5.1181818,
                "pitch": 62,
                "velocity": 40,
                "duration": 0.1545455,
                "tempo": 120.0
            },
            {
                "start_time": 5.1363636,
                "end_time": 5.2909091,
                "pitch": 62,
                "velocity": 40,
                "duration": 0.1545455,
                "tempo": 120.0
            },
            {
                "start_time": 5.3068182,
                "end_time": 5.4590909,
                "pitch": 62,
                "velocity": 40,
                "duration": 0.1522727,
                "tempo": 120.0
            },
            {
                "start_time": 5.475,
                "end_time": 5.625,
                "pitch": 62,
                "velocity": 40,
                "duration": 0.15,
                "tempo": 120.0
            },
            {
                "start_time": 5.6431818,
                "end_time": 5.7931818,
                "pitch": 62,
                "velocity": 40,
                "duration": 0.15,
                "tempo": 120.0
            },
            {
                "start_time": 5.8090909,
                "end_time": 5.9613636,
                "pitch": 62,
                "velocity": 40,
                "duration": 0.1522727,
                "tempo": 120.0
            },
            {
                "start_time": 5.9772727,
                "end_time": 6.1272727,
                "pitch": 60,
                "velocity": 40,
                "duration": 0.15,
                "tempo": 120.0
            },
            {
                "start_time": 6.1454545,
                "end_time": 6.2954545,
                "pitch": 60,
                "velocity": 40,
                "duration": 0.15,
                "tempo": 120.0
            },
            {
                "start_time": 6.3136364,
                "end_time": 6.4681818,
                "pitch": 60,
                "velocity": 40,
                "duration": 0.1545455,
                "tempo": 120.0
            },
            {
                "start_time": 6.4840909,
                "end_time": 6.6386364,
                "pitch": 60,
                "velocity": 40,
                "duration": 0.1545455,
                "tempo": 120.0
            },
            {
                "start_time": 6.6568182,
                "end_time": 6.8068182,
                "pitch": 60,
                "velocity": 40,
                "duration": 0.15,
                "tempo": 120.0
            },
            {
                "start_time": 6.825,
                "end_time": 6.975,
                "pitch": 60,
                "velocity": 40,
                "duration": 0.15,
                "tempo": 120.0
            },
            {
                "start_time": 6.9909091,
                "end_time": 7.1431818,
                "pitch": 60,
                "velocity": 40,
                "duration": 0.1522727,
                "tempo": 120.0
            },
            {
                "start_time": 7.1590909,
                "end_time": 7.3090909,
                "pitch": 60,
                "velocity": 40,
                "duration": 0.15,
                "tempo": 120.0
            },
            {
                "start_time": 7.3272727,
                "end_time": 7.4772727,
                "pitch": 60,
                "velocity": 40,
                "duration": 0.15,
                "tempo": 120.0
            },
            {
                "start_time": 7.4931818,
                "end_time": 7.6454545,
                "pitch": 60,
                "velocity": 40,
                "duration": 0.1522727,
                "tempo": 120.0
            },
            {
                "start_time": 7.6613636,
                "end_time": 7.8159091,
                "pitch": 60,
                "velocity": 40,
                "duration": 0.1545455,
                "tempo": 120.0
            },
            {
                "start_time": 7.8340909,
                "end_time": 7.9886364,
                "pitch": 60,
                "velocity": 40,
                "duration": 0.1545455,
                "tempo": 120.0
            },
            {
                "start_time": 8.0068182,
                "end_time": 8.1568182,
                "pitch": 60,
                "velocity": 40,
                "duration": 0.15,
                "tempo": 120.0
            },
            {
                "start_time": 8.1727273,
                "end_time": 8.325,
                "pitch": 60,
                "velocity": 40,
                "duration": 0.1522727,
                "tempo": 120.0
            },
            {
                "start_time": 8.3409091,
                "end_time": 8.4954545,
                "pitch": 60,
                "velocity": 40,
                "duration": 0.1545455,
                "tempo": 120.0
            },
            {
                "start_time": 8.5136364,
                "end_time": 8.6681818,
                "pitch": 60,
                "velocity": 40,
                "duration": 0.1545455,
                "tempo": 120.0
            },
            {
                "start_time": 8.6840909,
                "end_time": 8.8363636,
                "pitch": 62,
                "velocity": 40,
                "duration": 0.1522727,
                "tempo": 120.0
            },
            {
                "start_time": 8.8522727,
                "end_time": 9.0022727,
                "pitch": 62,
                "velocity": 40,
                "duration": 0.15,
                "tempo": 120.0
            },
            {
                "start_time": 9.0204545,
                "end_time": 9.1704545,
                "pitch": 62,
                "velocity": 40,
                "duration": 0.15,
                "tempo": 120.0
            },
            {
                "start_time": 9.1886364,
                "end_time": 9.3386364,
                "pitch": 62,
                "velocity": 40,
                "duration": 0.15,
                "tempo": 120.0
            },
            {
                "start_time": 9.3545455,
                "end_time": 9.5068182,
                "pitch": 62,
                "velocity": 40,
                "duration": 0.1522727,
                "tempo": 120.0
            },
            {
                "start_time": 9.5227273,
                "end_time": 9.6727273,
                "pitch": 62,
                "velocity": 40,
                "duration": 0.15,
                "tempo": 120.0
            },
            {
                "start_time": 9.6909091,
                "end_time": 9.8454545,
                "pitch": 62,
                "velocity": 40,
                "duration": 0.1545455,
                "tempo": 120.0
            },
            {
                "start_time": 9.8613636,
                "end_time": 10.0159091,
                "pitch": 62,
                "velocity": 40,
                "duration": 0.1545455,
                "tempo": 120.0
            },
            {
                "start_time": 10.0340909,
                "end_time": 10.1840909,
                "pitch": 62,
                "velocity": 40,
                "duration": 0.15,
                "tempo": 120.0
            },
            {
                "start_time": 10.2022727,
                "end_time": 10.3522727,
                "pitch": 62,
                "velocity": 40,
                "duration": 0.15,
                "tempo": 120.0
            },
            {
                "start_time": 10.3681818,
                "end_time": 10.525,
                "pitch": 62,
                "velocity": 40,
                "duration": 0.1568182,
                "tempo": 120.0
            },
            {
                "start_time": 10.5409091,
                "end_time": 10.6954545,
                "pitch": 62,
                "velocity": 40,
                "duration": 0.1545455,
                "tempo": 120.0
            },
            {
                "start_time": 10.7136364,
                "end_time": 10.8636364,
                "pitch": 62,
                "velocity": 40,
                "duration": 0.15,
                "tempo": 120.0
            },
            {
                "start_time": 10.8818182,
                "end_time": 11.0318182,
                "pitch": 62,
                "velocity": 40,
                "duration": 0.15,
                "tempo": 120.0
            },
            {
                "start_time": 11.0477273,
                "end_time": 11.2,
                "pitch": 62,
                "velocity": 40,
                "duration": 0.1522727,
                "tempo": 120.0
            },
            {
                "start_time": 11.2159091,
                "end_time": 11.3659091,
                "pitch": 62,
                "velocity": 40,
                "duration": 0.15,
                "tempo": 120.0
            },
            {
                "start_time": 11.3840909,
                "end_time": 11.5386364,
                "pitch": 62,
                "velocity": 40,
                "duration": 0.1545455,
                "tempo": 120.0
            },
            {
                "start_time": 11.5545455,
                "end_time": 11.7113636,
                "pitch": 62,
                "velocity": 40,
                "duration": 0.1568182,
                "tempo": 120.0
            },
            {
                "start_time": 11.7272727,
                "end_time": 11.8772727,
                "pitch": 62,
                "velocity": 40,
                "duration": 0.15,
                "tempo": 120.0
            },
            {
                "start_time": 11.8954545,
                "end_time": 12.0454545,
                "pitch": 62,
                "velocity": 40,
                "duration": 0.15,
                "tempo": 120.0
            },
            {
                "start_time": 12.0636364,
                "end_time": 12.2136364,
                "pitch": 62,
                "velocity": 40,
                "duration": 0.15,
                "tempo": 120.0
            },
            {
                "start_time": 12.2295455,
                "end_time": 12.3818182,
                "pitch": 62,
                "velocity": 40,
                "duration": 0.1522727,
                "tempo": 120.0
            },
            {
                "start_time": 12.3977273,
                "end_time": 12.5522727,
                "pitch": 62,
                "velocity": 40,
                "duration": 0.1545455,
                "tempo": 120.0
            },
            {
                "start_time": 12.5704545,
                "end_time": 12.725,
                "pitch": 62,
                "velocity": 40,
                "duration": 0.1545455,
                "tempo": 120.0
            },
            {
                "start_time": 12.7409091,
                "end_time": 12.8931818,
                "pitch": 62,
                "velocity": 40,
                "duration": 0.1522727,
                "tempo": 120.0
            },
            {
                "start_time": 12.9090909,
                "end_time": 13.0590909,
                "pitch": 62,
                "velocity": 40,
                "duration": 0.15,
                "tempo": 120.0
            },
            {
                "start_time": 13.0772727,
                "end_time": 13.2318182,
                "pitch": 62,
                "velocity": 40,
                "duration": 0.1545455,
                "tempo": 120.0
            },
            {
                "start_time": 13.2477273,
                "end_time": 13.4045455,
                "pitch": 62,
                "velocity": 40,
                "duration": 0.1568182,
                "tempo": 120.0
            },
            {
                "start_time": 13.4204545,
                "end_time": 13.5727273,
                "pitch": 62,
                "velocity": 40,
                "duration": 0.1522727,
                "tempo": 120.0
            },
            {
                "start_time": 13.5886364,
                "end_time": 13.7386364,
                "pitch": 62,
                "velocity": 40,
                "duration": 0.15,
                "tempo": 120.0
            },
            {
                "start_time": 13.7568182,
                "end_time": 13.9068182,
                "pitch": 62,
                "velocity": 40,
                "duration": 0.15,
                "tempo": 120.0
            },
            {
                "start_time": 13.9227273,
                "end_time": 14.075,
                "pitch": 62,
                "velocity": 40,
                "duration": 0.1522727,
                "tempo": 120.0
            },
            {
                "start_time": 14.0909091,
                "end_time": 14.2409091,
                "pitch": 62,
                "velocity": 40,
                "duration": 0.15,
                "tempo": 120.0
            },
            {
                "start_time": 14.2590909,
                "end_time": 14.4090909,
                "pitch": 62,
                "velocity": 40,
                "duration": 0.15,
                "tempo": 120.0
            },
            {
                "start_time": 14.425,
                "end_time": 14.5795455,
                "pitch": 62,
                "velocity": 40,
                "duration": 0.1545455,
                "tempo": 120.0
            },
            {
                "start_time": 14.5977273,
                "end_time": 14.7522727,
                "pitch": 62,
                "velocity": 40,
                "duration": 0.1545455,
                "tempo": 120.0
            },
            {
                "start_time": 14.7704545,
                "end_time": 14.9204545,
                "pitch": 62,
                "velocity": 40,
                "duration": 0.15,
                "tempo": 120.0
            },
            {
                "start_time": 14.9386364,
                "end_time": 15.0886364,
                "pitch": 62,
                "velocity": 40,
                "duration": 0.15,
                "tempo": 120.0
            },
            {
                "start_time": 15.1045455,
                "end_time": 15.2545455,
                "pitch": 62,
                "velocity": 40,
                "duration": 0.15,
                "tempo": 120.0
            },
            {
                "start_time": 15.2727273,
                "end_time": 15.4227273,
                "pitch": 62,
                "velocity": 40,
                "duration": 0.15,
                "tempo": 120.0
            },
            {
                "start_time": 15.4409091,
                "end_time": 15.5954545,
                "pitch": 62,
                "velocity": 40,
                "duration": 0.1545455,
                "tempo": 120.0
            },
            {
                "start_time": 15.6113636,
                "end_time": 15.7659091,
                "pitch": 62,
                "velocity": 40,
                "duration": 0.1545455,
                "tempo": 120.0
            },
            {
                "start_time": 15.7840909,
                "end_time": 15.9340909,
                "pitch": 62,
                "velocity": 40,
                "duration": 0.15,
                "tempo": 120.0
            },
            {
                "start_time": 15.9522727,
                "end_time": 16.1022727,
                "pitch": 62,
                "velocity": 40,
                "duration": 0.15,
                "tempo": 120.0
            },
            {
                "start_time": 16.1181818,
                "end_time": 16.2704545,
                "pitch": 62,
                "velocity": 40,
                "duration": 0.1522727,
                "tempo": 120.0
            },
            {
                "start_time": 16.2863636,
                "end_time": 16.4363636,
                "pitch": 62,
                "velocity": 40,
                "duration": 0.15,
                "tempo": 120.0
            },
            {
                "start_time": 16.4545455,
                "end_time": 16.6090909,
                "pitch": 62,
                "velocity": 40,
                "duration": 0.1545455,
                "tempo": 120.0
            },
            {
                "start_time": 16.625,
                "end_time": 16.7818182,
                "pitch": 62,
                "velocity": 40,
                "duration": 0.1568182,
                "tempo": 120.0
            },
            {
                "start_time": 16.7977273,
                "end_time": 16.95,
                "pitch": 60,
                "velocity": 40,
                "duration": 0.1522727,
                "tempo": 120.0
            },
            {
                "start_time": 16.9659091,
                "end_time": 17.1159091,
                "pitch": 60,
                "velocity": 40,
                "duration": 0.15,
                "tempo": 120.0
            },
            {
                "start_time": 17.1340909,
                "end_time": 17.2840909,
                "pitch": 60,
                "velocity": 40,
                "duration": 0.15,
                "tempo": 120.0
            },
            {
                "start_time": 17.3,
                "end_time": 17.4522727,
                "pitch": 60,
                "velocity": 40,
                "duration": 0.1522727,
                "tempo": 120.0
            },
            {
                "start_time": 17.4681818,
                "end_time": 17.6181818,
                "pitch": 60,
                "velocity": 40,
                "duration": 0.15,
                "tempo": 120.0
            },
            {
                "start_time": 17.6363636,
                "end_time": 17.7863636,
                "pitch": 60,
                "velocity": 40,
                "duration": 0.15,
                "tempo": 120.0
            },
            {
                "start_time": 17.8022727,
                "end_time": 17.9590909,
                "pitch": 60,
                "velocity": 40,
                "duration": 0.1568182,
                "tempo": 120.0
            },
            {
                "start_time": 17.975,
                "end_time": 18.1295455,
                "pitch": 60,
                "velocity": 40,
                "duration": 0.1545455,
                "tempo": 120.0
            },
            {
                "start_time": 18.1477273,
                "end_time": 18.2977273,
                "pitch": 60,
                "velocity": 40,
                "duration": 0.15,
                "tempo": 120.0
            },
            {
                "start_time": 18.3159091,
                "end_time": 18.4659091,
                "pitch": 60,
                "velocity": 40,
                "duration": 0.15,
                "tempo": 120.0
            },
            {
                "start_time": 18.4818182,
                "end_time": 18.6363636,
                "pitch": 60,
                "velocity": 40,
                "duration": 0.1545455,
                "tempo": 120.0
            },
            {
                "start_time": 18.6545455,
                "end_time": 18.8090909,
                "pitch": 60,
                "velocity": 40,
                "duration": 0.1545455,
                "tempo": 120.0
            },
            {
                "start_time": 18.8272727,
                "end_time": 18.9772727,
                "pitch": 60,
                "velocity": 40,
                "duration": 0.15,
                "tempo": 120.0
            },
            {
                "start_time": 18.9931818,
                "end_time": 19.1454545,
                "pitch": 60,
                "velocity": 40,
                "duration": 0.1522727,
                "tempo": 120.0
            },
            {
                "start_time": 19.1613636,
                "end_time": 19.3113636,
                "pitch": 60,
                "velocity": 40,
                "duration": 0.15,
                "tempo": 120.0
            },
            {
                "start_time": 19.3295455,
                "end_time": 19.4795455,
                "pitch": 60,
                "velocity": 40,
                "duration": 0.15,
                "tempo": 120.0
            },
            {
                "start_time": 19.4954545,
                "end_time": 19.6477273,
                "pitch": 62,
                "velocity": 40,
                "duration": 0.1522727,
                "tempo": 120.0
            },
            {
                "start_time": 19.6636364,
                "end_time": 19.8136364,
                "pitch": 62,
                "velocity": 40,
                "duration": 0.15,
                "tempo": 120.0
            },
            {
                "start_time": 19.8318182,
                "end_time": 19.9863636,
                "pitch": 62,
                "velocity": 40,
                "duration": 0.1545455,
                "tempo": 120.0
            },
            {
                "start_time": 20.0045455,
                "end_time": 20.1590909,
                "pitch": 62,
                "velocity": 40,
                "duration": 0.1545455,
                "tempo": 120.0
            },
            {
                "start_time": 20.175,
                "end_time": 20.3272727,
                "pitch": 62,
                "velocity": 40,
                "duration": 0.1522727,
                "tempo": 120.0
            },
            {
                "start_time": 20.3431818,
                "end_time": 20.4931818,
                "pitch": 62,
                "velocity": 40,
                "duration": 0.15,
                "tempo": 120.0
            },
            {
                "start_time": 20.5113636,
                "end_time": 20.6659091,
                "pitch": 62,
                "velocity": 40,
                "duration": 0.1545455,
                "tempo": 120.0
            },
            {
                "start_time": 20.6818182,
                "end_time": 20.8386364,
                "pitch": 62,
                "velocity": 40,
                "duration": 0.1568182,
                "tempo": 120.0
            },
            {
                "start_time": 20.8545455,
                "end_time": 21.0045455,
                "pitch": 62,
                "velocity": 40,
                "duration": 0.15,
                "tempo": 120.0
            },
            {
                "start_time": 21.0227273,
                "end_time": 21.1727273,
                "pitch": 62,
                "velocity": 40,
                "duration": 0.15,
                "tempo": 120.0
            },
            {
                "start_time": 21.1909091,
                "end_time": 21.3454545,
                "pitch": 62,
                "velocity": 40,
                "duration": 0.1545455,
                "tempo": 120.0
            },
            {
                "start_time": 21.3613636,
                "end_time": 21.5159091,
                "pitch": 62,
                "velocity": 40,
                "duration": 0.1545455,
                "tempo": 120.0
            },
            {
                "start_time": 21.5340909,
                "end_time": 21.6840909,
                "pitch": 62,
                "velocity": 40,
                "duration": 0.15,
                "tempo": 120.0
            },
            {
                "start_time": 21.7022727,
                "end_time": 21.8522727,
                "pitch": 62,
                "velocity": 40,
                "duration": 0.15,
                "tempo": 120.0
            },
            {
                "start_time": 21.8681818,
                "end_time": 22.0204545,
                "pitch": 62,
                "velocity": 40,
                "duration": 0.1522727,
                "tempo": 120.0
            },
            {
                "start_time": 22.0363636,
                "end_time": 22.1863636,
                "pitch": 62,
                "velocity": 40,
                "duration": 0.15,
                "tempo": 120.0
            },
            {
                "start_time": 22.5386364,
                "end_time": 22.8659091,
                "pitch": 62,
                "velocity": 40,
                "duration": 0.3272727,
                "tempo": 120.0
            },
            {
                "start_time": 23.05,
                "end_time": 23.2022727,
                "pitch": 64,
                "velocity": 40,
                "duration": 0.1522727,
                "tempo": 120.0
            },
            {
                "start_time": 23.5522727,
                "end_time": 23.8795455,
                "pitch": 65,
                "velocity": 40,
                "duration": 0.3272727,
                "tempo": 120.0
            },
            {
                "start_time": 24.0659091,
                "end_time": 24.3863636,
                "pitch": 64,
                "velocity": 40,
                "duration": 0.3204545,
                "tempo": 120.0
            },
            {
                "start_time": 24.4045455,
                "end_time": 24.5590909,
                "pitch": 64,
                "velocity": 40,
                "duration": 0.1545455,
                "tempo": 120.0
            },
            {
                "start_time": 24.5772727,
                "end_time": 24.7272727,
                "pitch": 62,
                "velocity": 40,
                "duration": 0.15,
                "tempo": 120.0
            },
            {
                "start_time": 25.2454545,
                "end_time": 25.5636364,
                "pitch": 62,
                "velocity": 40,
                "duration": 0.3181818,
                "tempo": 120.0
            },
            {
                "start_time": 25.7522727,
                "end_time": 25.9090909,
                "pitch": 64,
                "velocity": 40,
                "duration": 0.1568182,
                "tempo": 120.0
            },
            {
                "start_time": 26.2613636,
                "end_time": 26.5795455,
                "pitch": 65,
                "velocity": 40,
                "duration": 0.3181818,
                "tempo": 120.0
            },
            {
                "start_time": 26.7681818,
                "end_time": 27.0909091,
                "pitch": 64,
                "velocity": 40,
                "duration": 0.3227273,
                "tempo": 120.0
            },
            {
                "start_time": 27.1068182,
                "end_time": 27.2590909,
                "pitch": 64,
                "velocity": 40,
                "duration": 0.1522727,
                "tempo": 120.0
            },
            {
                "start_time": 27.275,
                "end_time": 27.4295455,
                "pitch": 62,
                "velocity": 40,
                "duration": 0.1545455,
                "tempo": 120.0
            },
            {
                "start_time": 27.9545455,
                "end_time": 28.2727273,
                "pitch": 60,
                "velocity": 40,
                "duration": 0.3181818,
                "tempo": 120.0
            },
            {
                "start_time": 28.4568182,
                "end_time": 28.6068182,
                "pitch": 62,
                "velocity": 40,
                "duration": 0.15,
                "tempo": 120.0
            },
            {
                "start_time": 28.9681818,
                "end_time": 29.2863636,
                "pitch": 63,
                "velocity": 40,
                "duration": 0.3181818,
                "tempo": 120.0
            },
            {
                "start_time": 29.4704545,
                "end_time": 29.7931818,
                "pitch": 62,
                "velocity": 40,
                "duration": 0.3227273,
                "tempo": 120.0
            },
            {
                "start_time": 29.8090909,
                "end_time": 29.9659091,
                "pitch": 62,
                "velocity": 40,
                "duration": 0.1568182,
                "tempo": 120.0
            },
            {
                "start_time": 29.9818182,
                "end_time": 30.1340909,
                "pitch": 60,
                "velocity": 40,
                "duration": 0.1522727,
                "tempo": 120.0
            },
            {
                "start_time": 30.6522727,
                "end_time": 30.9795455,
                "pitch": 62,
                "velocity": 40,
                "duration": 0.3272727,
                "tempo": 120.0
            },
            {
                "start_time": 31.1636364,
                "end_time": 31.3136364,
                "pitch": 64,
                "velocity": 40,
                "duration": 0.15,
                "tempo": 120.0
            },
            {
                "start_time": 31.6659091,
                "end_time": 33.0090909,
                "pitch": 65,
                "velocity": 40,
                "duration": 1.3431818,
                "tempo": 120.0
            },
            {
                "start_time": 33.3590909,
                "end_time": 33.6772727,
                "pitch": 62,
                "velocity": 40,
                "duration": 0.3181818,
                "tempo": 120.0
            },
            {
                "start_time": 33.8613636,
                "end_time": 34.0136364,
                "pitch": 64,
                "velocity": 40,
                "duration": 0.1522727,
                "tempo": 120.0
            },
            {
                "start_time": 34.3727273,
                "end_time": 34.6909091,
                "pitch": 65,
                "velocity": 40,
                "duration": 0.3181818,
                "tempo": 120.0
            },
            {
                "start_time": 34.8818182,
                "end_time": 35.2045455,
                "pitch": 64,
                "velocity": 40,
                "duration": 0.3227273,
                "tempo": 120.0
            },
            {
                "start_time": 35.2204545,
                "end_time": 35.3704545,
                "pitch": 64,
                "velocity": 40,
                "duration": 0.15,
                "tempo": 120.0
            },
            {
                "start_time": 35.3886364,
                "end_time": 35.5431818,
                "pitch": 62,
                "velocity": 40,
                "duration": 0.1545455,
                "tempo": 120.0
            },
            {
                "start_time": 36.0681818,
                "end_time": 36.3863636,
                "pitch": 62,
                "velocity": 40,
                "duration": 0.3181818,
                "tempo": 120.0
            },
            {
                "start_time": 36.5704545,
                "end_time": 36.7204545,
                "pitch": 64,
                "velocity": 40,
                "duration": 0.15,
                "tempo": 120.0
            },
            {
                "start_time": 37.0818182,
                "end_time": 37.4,
                "pitch": 65,
                "velocity": 40,
                "duration": 0.3181818,
                "tempo": 120.0
            },
            {
                "start_time": 37.5840909,
                "end_time": 37.9068182,
                "pitch": 64,
                "velocity": 40,
                "duration": 0.3227273,
                "tempo": 120.0
            },
            {
                "start_time": 37.9227273,
                "end_time": 38.0772727,
                "pitch": 64,
                "velocity": 40,
                "duration": 0.1545455,
                "tempo": 120.0
            },
            {
                "start_time": 38.0954545,
                "end_time": 38.2454545,
                "pitch": 62,
                "velocity": 40,
                "duration": 0.15,
                "tempo": 120.0
            },
            {
                "start_time": 38.7659091,
                "end_time": 39.0931818,
                "pitch": 60,
                "velocity": 40,
                "duration": 0.3272727,
                "tempo": 120.0
            },
            {
                "start_time": 39.2772727,
                "end_time": 39.4272727,
                "pitch": 62,
                "velocity": 40,
                "duration": 0.15,
                "tempo": 120.0
            },
            {
                "start_time": 39.7795455,
                "end_time": 40.0977273,
                "pitch": 63,
                "velocity": 40,
                "duration": 0.3181818,
                "tempo": 120.0
            },
            {
                "start_time": 40.2863636,
                "end_time": 40.6090909,
                "pitch": 62,
                "velocity": 40,
                "duration": 0.3227273,
                "tempo": 120.0
            },
            {
                "start_time": 40.625,
                "end_time": 40.7772727,
                "pitch": 62,
                "velocity": 40,
                "duration": 0.1522727,
                "tempo": 120.0
            },
            {
                "start_time": 40.7931818,
                "end_time": 40.9477273,
                "pitch": 60,
                "velocity": 40,
                "duration": 0.1545455,
                "tempo": 120.0
            },
            {
                "start_time": 41.4727273,
                "end_time": 41.7909091,
                "pitch": 62,
                "velocity": 40,
                "duration": 0.3181818,
                "tempo": 120.0
            },
            {
                "start_time": 41.9795455,
                "end_time": 42.1340909,
                "pitch": 64,
                "velocity": 40,
                "duration": 0.1545455,
                "tempo": 120.0
            },
            {
                "start_time": 42.4863636,
                "end_time": 43.8181818,
                "pitch": 65,
                "velocity": 40,
                "duration": 1.3318182,
                "tempo": 120.0
            },
            {
                "start_time": 44.0090909,
                "end_time": 44.1636364,
                "pitch": 63,
                "velocity": 40,
                "duration": 0.1545455,
                "tempo": 120.0
            },
            {
                "start_time": 44.1795455,
                "end_time": 44.3318182,
                "pitch": 58,
                "velocity": 40,
                "duration": 0.1522727,
                "tempo": 120.0
            },
            {
                "start_time": 44.3477273,
                "end_time": 44.4977273,
                "pitch": 56,
                "velocity": 40,
                "duration": 0.15,
                "tempo": 120.0
            },
            {
                "start_time": 44.5159091,
                "end_time": 44.6659091,
                "pitch": 63,
                "velocity": 40,
                "duration": 0.15,
                "tempo": 120.0
            },
            {
                "start_time": 44.6818182,
                "end_time": 44.8340909,
                "pitch": 58,
                "velocity": 40,
                "duration": 0.1522727,
                "tempo": 120.0
            },
            {
                "start_time": 44.85,
                "end_time": 45.0,
                "pitch": 56,
                "velocity": 40,
                "duration": 0.15,
                "tempo": 120.0
            },
            {
                "start_time": 45.0181818,
                "end_time": 45.1681818,
                "pitch": 58,
                "velocity": 40,
                "duration": 0.15,
                "tempo": 120.0
            },
            {
                "start_time": 45.1840909,
                "end_time": 45.3409091,
                "pitch": 65,
                "velocity": 40,
                "duration": 0.1568182,
                "tempo": 120.0
            },
            {
                "start_time": 45.3568182,
                "end_time": 45.5113636,
                "pitch": 60,
                "velocity": 40,
                "duration": 0.1545455,
                "tempo": 120.0
            },
            {
                "start_time": 45.5295455,
                "end_time": 45.6795455,
                "pitch": 58,
                "velocity": 40,
                "duration": 0.15,
                "tempo": 120.0
            },
            {
                "start_time": 45.6977273,
                "end_time": 45.8477273,
                "pitch": 65,
                "velocity": 40,
                "duration": 0.15,
                "tempo": 120.0
            },
            {
                "start_time": 45.8636364,
                "end_time": 46.0181818,
                "pitch": 60,
                "velocity": 40,
                "duration": 0.1545455,
                "tempo": 120.0
            },
            {
                "start_time": 46.0363636,
                "end_time": 46.1909091,
                "pitch": 58,
                "velocity": 40,
                "duration": 0.1545455,
                "tempo": 120.0
            },
            {
                "start_time": 46.2090909,
                "end_time": 46.3590909,
                "pitch": 65,
                "velocity": 40,
                "duration": 0.15,
                "tempo": 120.0
            },
            {
                "start_time": 46.375,
                "end_time": 46.5272727,
                "pitch": 70,
                "velocity": 40,
                "duration": 0.1522727,
                "tempo": 120.0
            },
            {
                "start_time": 46.7113636,
                "end_time": 46.8613636,
                "pitch": 63,
                "velocity": 40,
                "duration": 0.15,
                "tempo": 120.0
            },
            {
                "start_time": 46.8795455,
                "end_time": 47.0340909,
                "pitch": 58,
                "velocity": 40,
                "duration": 0.1545455,
                "tempo": 120.0
            },
            {
                "start_time": 47.05,
                "end_time": 47.2045455,
                "pitch": 56,
                "velocity": 40,
                "duration": 0.1545455,
                "tempo": 120.0
            },
            {
                "start_time": 47.2227273,
                "end_time": 47.3727273,
                "pitch": 63,
                "velocity": 40,
                "duration": 0.15,
                "tempo": 120.0
            },
            {
                "start_time": 47.3909091,
                "end_time": 47.5409091,
                "pitch": 58,
                "velocity": 40,
                "duration": 0.15,
                "tempo": 120.0
            },
            {
                "start_time": 47.5568182,
                "end_time": 47.7090909,
                "pitch": 56,
                "velocity": 40,
                "duration": 0.1522727,
                "tempo": 120.0
            },
            {
                "start_time": 47.725,
                "end_time": 47.875,
                "pitch": 58,
                "velocity": 40,
                "duration": 0.15,
                "tempo": 120.0
            },
            {
                "start_time": 47.8931818,
                "end_time": 48.0431818,
                "pitch": 65,
                "velocity": 40,
                "duration": 0.15,
                "tempo": 120.0
            },
            {
                "start_time": 48.0590909,
                "end_time": 48.2113636,
                "pitch": 60,
                "velocity": 40,
                "duration": 0.1522727,
                "tempo": 120.0
            },
            {
                "start_time": 48.2272727,
                "end_time": 48.3818182,
                "pitch": 58,
                "velocity": 40,
                "duration": 0.1545455,
                "tempo": 120.0
            },
            {
                "start_time": 48.4,
                "end_time": 48.5545455,
                "pitch": 65,
                "velocity": 40,
                "duration": 0.1545455,
                "tempo": 120.0
            },
            {
                "start_time": 48.5727273,
                "end_time": 48.7227273,
                "pitch": 60,
                "velocity": 40,
                "duration": 0.15,
                "tempo": 120.0
            },
            {
                "start_time": 48.7386364,
                "end_time": 48.8909091,
                "pitch": 58,
                "velocity": 40,
                "duration": 0.1522727,
                "tempo": 120.0
            },
            {
                "start_time": 48.9068182,
                "end_time": 49.0613636,
                "pitch": 65,
                "velocity": 40,
                "duration": 0.1545455,
                "tempo": 120.0
            },
            {
                "start_time": 49.0795455,
                "end_time": 49.2340909,
                "pitch": 70,
                "velocity": 40,
                "duration": 0.1545455,
                "tempo": 120.0
            },
            {
                "start_time": 49.4181818,
                "end_time": 49.5681818,
                "pitch": 63,
                "velocity": 40,
                "duration": 0.15,
                "tempo": 120.0
            },
            {
                "start_time": 49.5863636,
                "end_time": 49.7363636,
                "pitch": 58,
                "velocity": 40,
                "duration": 0.15,
                "tempo": 120.0
            },
            {
                "start_time": 49.7545455,
                "end_time": 49.9045455,
                "pitch": 56,
                "velocity": 40,
                "duration": 0.15,
                "tempo": 120.0
            },
            {
                "start_time": 49.9204545,
                "end_time": 50.0704545,
                "pitch": 63,
                "velocity": 40,
                "duration": 0.15,
                "tempo": 120.0
            },
            {
                "start_time": 50.0886364,
                "end_time": 50.2386364,
                "pitch": 58,
                "velocity": 40,
                "duration": 0.15,
                "tempo": 120.0
            },
            {
                "start_time": 50.2568182,
                "end_time": 50.4113636,
                "pitch": 56,
                "velocity": 40,
                "duration": 0.1545455,
                "tempo": 120.0
            },
            {
                "start_time": 50.4272727,
                "end_time": 50.5818182,
                "pitch": 58,
                "velocity": 40,
                "duration": 0.1545455,
                "tempo": 120.0
            },
            {
                "start_time": 50.6,
                "end_time": 50.75,
                "pitch": 65,
                "velocity": 40,
                "duration": 0.15,
                "tempo": 120.0
            },
            {
                "start_time": 50.7681818,
                "end_time": 50.9181818,
                "pitch": 60,
                "velocity": 40,
                "duration": 0.15,
                "tempo": 120.0
            },
            {
                "start_time": 50.9340909,
                "end_time": 51.0909091,
                "pitch": 58,
                "velocity": 40,
                "duration": 0.1568182,
                "tempo": 120.0
            },
            {
                "start_time": 51.1068182,
                "end_time": 51.2613636,
                "pitch": 65,
                "velocity": 40,
                "duration": 0.1545455,
                "tempo": 120.0
            },
            {
                "start_time": 51.2795455,
                "end_time": 51.4295455,
                "pitch": 60,
                "velocity": 40,
                "duration": 0.15,
                "tempo": 120.0
            },
            {
                "start_time": 51.4477273,
                "end_time": 51.5977273,
                "pitch": 58,
                "velocity": 40,
                "duration": 0.15,
                "tempo": 120.0
            },
            {
                "start_time": 51.6136364,
                "end_time": 51.7659091,
                "pitch": 65,
                "velocity": 40,
                "duration": 0.1522727,
                "tempo": 120.0
            },
            {
                "start_time": 51.7818182,
                "end_time": 51.9318182,
                "pitch": 70,
                "velocity": 40,
                "duration": 0.15,
                "tempo": 120.0
            },
            {
                "start_time": 52.1159091,
                "end_time": 52.2681818,
                "pitch": 63,
                "velocity": 40,
                "duration": 0.1522727,
                "tempo": 120.0
            },
            {
                "start_time": 52.2840909,
                "end_time": 52.4386364,
                "pitch": 58,
                "velocity": 40,
                "duration": 0.1545455,
                "tempo": 120.0
            },
            {
                "start_time": 52.4568182,
                "end_time": 52.6113636,
                "pitch": 56,
                "velocity": 40,
                "duration": 0.1545455,
                "tempo": 120.0
            },
            {
                "start_time": 52.6295455,
                "end_time": 52.7795455,
                "pitch": 63,
                "velocity": 40,
                "duration": 0.15,
                "tempo": 120.0
            },
            {
                "start_time": 52.7954545,
                "end_time": 52.9454545,
                "pitch": 58,
                "velocity": 40,
                "duration": 0.15,
                "tempo": 120.0
            },
            {
                "start_time": 52.9636364,
                "end_time": 53.1136364,
                "pitch": 56,
                "velocity": 40,
                "duration": 0.15,
                "tempo": 120.0
            },
            {
                "start_time": 53.1318182,
                "end_time": 53.2818182,
                "pitch": 58,
                "velocity": 40,
                "duration": 0.15,
                "tempo": 120.0
            },
            {
                "start_time": 53.2977273,
                "end_time": 54.6409091,
                "pitch": 60,
                "velocity": 40,
                "duration": 1.3431818,
                "tempo": 120.0
            },
            {
                "start_time": 54.6568182,
                "end_time": 54.6727273,
                "pitch": 62,
                "velocity": 40,
                "duration": 0.0159091,
                "tempo": 120.0
            }
        ],
        "Church Organ": [
            {
                "start_time": 0.925,
                "end_time": 1.25,
                "pitch": 62,
                "velocity": 51,
                "duration": 0.325,
                "tempo": 120.0
            },
            {
                "start_time": 1.4340909,
                "end_time": 1.5863636,
                "pitch": 64,
                "velocity": 51,
                "duration": 0.1522727,
                "tempo": 120.0
            },
            {
                "start_time": 1.9659091,
                "end_time": 2.2909091,
                "pitch": 65,
                "velocity": 51,
                "duration": 0.325,
                "tempo": 120.0
            },
            {
                "start_time": 2.4818182,
                "end_time": 2.8022727,
                "pitch": 64,
                "velocity": 51,
                "duration": 0.3204545,
                "tempo": 120.0
            },
            {
                "start_time": 2.8204545,
                "end_time": 2.9704545,
                "pitch": 64,
                "velocity": 51,
                "duration": 0.15,
                "tempo": 120.0
            },
            {
                "start_time": 2.9886364,
                "end_time": 3.1431818,
                "pitch": 62,
                "velocity": 51,
                "duration": 0.1545455,
                "tempo": 120.0
            },
            {
                "start_time": 3.6568182,
                "end_time": 3.9818182,
                "pitch": 62,
                "velocity": 51,
                "duration": 0.325,
                "tempo": 120.0
            },
            {
                "start_time": 4.1659091,
                "end_time": 4.3181818,
                "pitch": 64,
                "velocity": 51,
                "duration": 0.1522727,
                "tempo": 120.0
            },
            {
                "start_time": 4.6795455,
                "end_time": 4.9977273,
                "pitch": 65,
                "velocity": 51,
                "duration": 0.3181818,
                "tempo": 120.0
            },
            {
                "start_time": 5.1863636,
                "end_time": 5.5090909,
                "pitch": 64,
                "velocity": 51,
                "duration": 0.3227273,
                "tempo": 120.0
            },
            {
                "start_time": 5.525,
                "end_time": 5.6772727,
                "pitch": 64,
                "velocity": 51,
                "duration": 0.1522727,
                "tempo": 120.0
            },
            {
                "start_time": 5.6931818,
                "end_time": 5.8431818,
                "pitch": 62,
                "velocity": 51,
                "duration": 0.15,
                "tempo": 120.0
            },
            {
                "start_time": 6.3636364,
                "end_time": 6.6909091,
                "pitch": 60,
                "velocity": 51,
                "duration": 0.3272727,
                "tempo": 120.0
            },
            {
                "start_time": 6.875,
                "end_time": 7.025,
                "pitch": 62,
                "velocity": 51,
                "duration": 0.15,
                "tempo": 120.0
            },
            {
                "start_time": 7.3772727,
                "end_time": 7.6954545,
                "pitch": 63,
                "velocity": 51,
                "duration": 0.3181818,
                "tempo": 120.0
            },
            {
                "start_time": 7.8863636,
                "end_time": 8.2068182,
                "pitch": 62,
                "velocity": 51,
                "duration": 0.3204545,
                "tempo": 120.0
            },
            {
                "start_time": 8.2227273,
                "end_time": 8.375,
                "pitch": 62,
                "velocity": 51,
                "duration": 0.1522727,
                "tempo": 120.0
            },
            {
                "start_time": 8.3931818,
                "end_time": 8.5477273,
                "pitch": 60,
                "velocity": 51,
                "duration": 0.1545455,
                "tempo": 120.0
            },
            {
                "start_time": 9.0704545,
                "end_time": 9.3886364,
                "pitch": 62,
                "velocity": 51,
                "duration": 0.3181818,
                "tempo": 120.0
            },
            {
                "start_time": 9.5727273,
                "end_time": 9.725,
                "pitch": 64,
                "velocity": 51,
                "duration": 0.1522727,
                "tempo": 120.0
            },
            {
                "start_time": 10.0840909,
                "end_time": 11.3840909,
                "pitch": 65,
                "velocity": 51,
                "duration": 1.3,
                "tempo": 120.0
            },
            {
                "start_time": 11.3840909,
                "end_time": 11.4181818,
                "pitch": 65,
                "velocity": 51,
                "duration": 0.0340909,
                "tempo": 120.0
            },
            {
                "start_time": 11.7772727,
                "end_time": 12.0954545,
                "pitch": 62,
                "velocity": 51,
                "duration": 0.3181818,
                "tempo": 120.0
            },
            {
                "start_time": 12.2795455,
                "end_time": 12.4318182,
                "pitch": 64,
                "velocity": 51,
                "duration": 0.1522727,
                "tempo": 120.0
            },
            {
                "start_time": 12.7909091,
                "end_time": 13.1113636,
                "pitch": 65,
                "velocity": 51,
                "duration": 0.3204545,
                "tempo": 120.0
            },
            {
                "start_time": 13.3,
                "end_time": 13.6227273,
                "pitch": 64,
                "velocity": 51,
                "duration": 0.3227273,
                "tempo": 120.0
            },
            {
                "start_time": 13.6386364,
                "end_time": 13.7886364,
                "pitch": 64,
                "velocity": 51,
                "duration": 0.15,
                "tempo": 120.0
            },
            {
                "start_time": 13.8068182,
                "end_time": 13.9568182,
                "pitch": 62,
                "velocity": 51,
                "duration": 0.15,
                "tempo": 120.0
            },
            {
                "start_time": 14.4772727,
                "end_time": 14.8045455,
                "pitch": 62,
                "velocity": 51,
                "duration": 0.3272727,
                "tempo": 120.0
            },
            {
                "start_time": 14.9886364,
                "end_time": 15.1386364,
                "pitch": 64,
                "velocity": 51,
                "duration": 0.15,
                "tempo": 120.0
            },
            {
                "start_time": 15.4909091,
                "end_time": 15.8181818,
                "pitch": 65,
                "velocity": 51,
                "duration": 0.3272727,
                "tempo": 120.0
            },
            {
                "start_time": 16.0022727,
                "end_time": 16.3204545,
                "pitch": 64,
                "velocity": 51,
                "duration": 0.3181818,
                "tempo": 120.0
            },
            {
                "start_time": 16.3363636,
                "end_time": 16.4886364,
                "pitch": 64,
                "velocity": 51,
                "duration": 0.1522727,
                "tempo": 120.0
            },
            {
                "start_time": 16.5045455,
                "end_time": 16.6613636,
                "pitch": 62,
                "velocity": 51,
                "duration": 0.1568182,
                "tempo": 120.0
            },
            {
                "start_time": 17.1840909,
                "end_time": 17.5022727,
                "pitch": 60,
                "velocity": 51,
                "duration": 0.3181818,
                "tempo": 120.0
            },
            {
                "start_time": 17.6863636,
                "end_time": 17.8363636,
                "pitch": 62,
                "velocity": 51,
                "duration": 0.15,
                "tempo": 120.0
            },
            {
                "start_time": 18.1977273,
                "end_time": 18.5159091,
                "pitch": 63,
                "velocity": 51,
                "duration": 0.3181818,
                "tempo": 120.0
            },
            {
                "start_time": 18.7068182,
                "end_time": 19.0272727,
                "pitch": 62,
                "velocity": 51,
                "duration": 0.3204545,
                "tempo": 120.0
            },
            {
                "start_time": 19.0454545,
                "end_time": 19.1954545,
                "pitch": 62,
                "velocity": 51,
                "duration": 0.15,
                "tempo": 120.0
            },
            {
                "start_time": 19.2113636,
                "end_time": 19.3613636,
                "pitch": 60,
                "velocity": 51,
                "duration": 0.15,
                "tempo": 120.0
            },
            {
                "start_time": 19.8818182,
                "end_time": 20.2090909,
                "pitch": 62,
                "velocity": 51,
                "duration": 0.3272727,
                "tempo": 120.0
            },
            {
                "start_time": 20.3931818,
                "end_time": 20.5454545,
                "pitch": 64,
                "velocity": 51,
                "duration": 0.1522727,
                "tempo": 120.0
            },
            {
                "start_time": 20.9045455,
                "end_time": 21.3954545,
                "pitch": 65,
                "velocity": 51,
                "duration": 0.4909091,
                "tempo": 120.0
            },
            {
                "start_time": 21.4136364,
                "end_time": 21.5681818,
                "pitch": 62,
                "velocity": 51,
                "duration": 0.1545455,
                "tempo": 120.0
            },
            {
                "start_time": 21.5840909,
                "end_time": 21.7340909,
                "pitch": 65,
                "velocity": 51,
                "duration": 0.15,
                "tempo": 120.0
            },
            {
                "start_time": 21.7522727,
                "end_time": 21.9022727,
                "pitch": 67,
                "velocity": 51,
                "duration": 0.15,
                "tempo": 120.0
            },
            {
                "start_time": 21.9204545,
                "end_time": 22.2363636,
                "pitch": 70,
                "velocity": 51,
                "duration": 0.3159091,
                "tempo": 120.0
            },
            {
                "start_time": 22.2545455,
                "end_time": 23.5863636,
                "pitch": 67,
                "velocity": 51,
                "duration": 1.3318182,
                "tempo": 120.0
            },
            {
                "start_time": 24.1159091,
                "end_time": 24.2659091,
                "pitch": 62,
                "velocity": 51,
                "duration": 0.15,
                "tempo": 120.0
            },
            {
                "start_time": 24.2840909,
                "end_time": 24.4386364,
                "pitch": 65,
                "velocity": 51,
                "duration": 0.1545455,
                "tempo": 120.0
            },
            {
                "start_time": 24.4568182,
                "end_time": 24.6090909,
                "pitch": 67,
                "velocity": 51,
                "duration": 0.1522727,
                "tempo": 120.0
            },
            {
                "start_time": 24.6272727,
                "end_time": 24.9454545,
                "pitch": 70,
                "velocity": 51,
                "duration": 0.3181818,
                "tempo": 120.0
            },
            {
                "start_time": 24.9613636,
                "end_time": 26.2931818,
                "pitch": 67,
                "velocity": 51,
                "duration": 1.3318182,
                "tempo": 120.0
            },
            {
                "start_time": 26.8181818,
                "end_time": 26.9727273,
                "pitch": 62,
                "velocity": 51,
                "duration": 0.1545455,
                "tempo": 120.0
            },
            {
                "start_time": 26.9909091,
                "end_time": 27.1409091,
                "pitch": 65,
                "velocity": 51,
                "duration": 0.15,
                "tempo": 120.0
            },
            {
                "start_time": 27.1568182,
                "end_time": 27.3090909,
                "pitch": 67,
                "velocity": 51,
                "duration": 0.1522727,
                "tempo": 120.0
            },
            {
                "start_time": 27.325,
                "end_time": 27.6522727,
                "pitch": 70,
                "velocity": 51,
                "duration": 0.3272727,
                "tempo": 120.0
            },
            {
                "start_time": 27.6681818,
                "end_time": 29.0022727,
                "pitch": 72,
                "velocity": 51,
                "duration": 1.3340909,
                "tempo": 120.0
            },
            {
                "start_time": 29.0181818,
                "end_time": 29.5045455,
                "pitch": 72,
                "velocity": 51,
                "duration": 0.4863636,
                "tempo": 120.0
            },
            {
                "start_time": 29.5204545,
                "end_time": 29.8454545,
                "pitch": 70,
                "velocity": 51,
                "duration": 0.325,
                "tempo": 120.0
            },
            {
                "start_time": 29.8613636,
                "end_time": 30.0159091,
                "pitch": 62,
                "velocity": 51,
                "duration": 0.1545455,
                "tempo": 120.0
            },
            {
                "start_time": 30.0318182,
                "end_time": 30.35,
                "pitch": 65,
                "velocity": 51,
                "duration": 0.3181818,
                "tempo": 120.0
            },
            {
                "start_time": 30.3681818,
                "end_time": 31.7,
                "pitch": 67,
                "velocity": 51,
                "duration": 1.3318182,
                "tempo": 120.0
            },
            {
                "start_time": 32.2272727,
                "end_time": 32.3795455,
                "pitch": 62,
                "velocity": 51,
                "duration": 0.1522727,
                "tempo": 120.0
            },
            {
                "start_time": 32.3977273,
                "end_time": 32.5522727,
                "pitch": 65,
                "velocity": 51,
                "duration": 0.1545455,
                "tempo": 120.0
            },
            {
                "start_time": 32.5681818,
                "end_time": 32.7227273,
                "pitch": 67,
                "velocity": 51,
                "duration": 0.1545455,
                "tempo": 120.0
            },
            {
                "start_time": 32.7409091,
                "end_time": 33.0590909,
                "pitch": 70,
                "velocity": 51,
                "duration": 0.3181818,
                "tempo": 120.0
            },
            {
                "start_time": 33.075,
                "end_time": 34.4068182,
                "pitch": 67,
                "velocity": 51,
                "duration": 1.3318182,
                "tempo": 120.0
            },
            {
                "start_time": 34.9318182,
                "end_time": 35.0863636,
                "pitch": 62,
                "velocity": 51,
                "duration": 0.1545455,
                "tempo": 120.0
            },
            {
                "start_time": 35.1022727,
                "end_time": 35.2545455,
                "pitch": 65,
                "velocity": 51,
                "duration": 0.1522727,
                "tempo": 120.0
            },
            {
                "start_time": 35.2704545,
                "end_time": 35.4227273,
                "pitch": 67,
                "velocity": 51,
                "duration": 0.1522727,
                "tempo": 120.0
            },
            {
                "start_time": 35.4386364,
                "end_time": 35.7659091,
                "pitch": 70,
                "velocity": 51,
                "duration": 0.3272727,
                "tempo": 120.0
            },
            {
                "start_time": 35.7818182,
                "end_time": 37.1159091,
                "pitch": 67,
                "velocity": 51,
                "duration": 1.3340909,
                "tempo": 120.0
            },
            {
                "start_time": 37.6340909,
                "end_time": 37.7863636,
                "pitch": 62,
                "velocity": 51,
                "duration": 0.1522727,
                "tempo": 120.0
            },
            {
                "start_time": 37.8022727,
                "end_time": 37.9568182,
                "pitch": 65,
                "velocity": 51,
                "duration": 0.1545455,
                "tempo": 120.0
            },
            {
                "start_time": 37.975,
                "end_time": 38.1295455,
                "pitch": 67,
                "velocity": 51,
                "duration": 0.1545455,
                "tempo": 120.0
            },
            {
                "start_time": 38.1454545,
                "end_time": 38.4636364,
                "pitch": 70,
                "velocity": 51,
                "duration": 0.3181818,
                "tempo": 120.0
            },
            {
                "start_time": 38.4795455,
                "end_time": 39.8136364,
                "pitch": 72,
                "velocity": 51,
                "duration": 1.3340909,
                "tempo": 120.0
            },
            {
                "start_time": 39.8295455,
                "end_time": 40.3204545,
                "pitch": 72,
                "velocity": 51,
                "duration": 0.4909091,
                "tempo": 120.0
            },
            {
                "start_time": 40.3386364,
                "end_time": 40.6590909,
                "pitch": 70,
                "velocity": 51,
                "duration": 0.3204545,
                "tempo": 120.0
            },
            {
                "start_time": 40.6772727,
                "end_time": 40.8272727,
                "pitch": 62,
                "velocity": 51,
                "duration": 0.15,
                "tempo": 120.0
            },
            {
                "start_time": 40.8454545,
                "end_time": 41.1704545,
                "pitch": 65,
                "velocity": 51,
                "duration": 0.325,
                "tempo": 120.0
            },
            {
                "start_time": 41.1886364,
                "end_time": 43.8704545,
                "pitch": 67,
                "velocity": 51,
                "duration": 2.6818182,
                "tempo": 120.0
            },
            {
                "start_time": 43.8863636,
                "end_time": 45.2363636,
                "pitch": 63,
                "velocity": 51,
                "duration": 1.35,
                "tempo": 120.0
            },
            {
                "start_time": 45.4090909,
                "end_time": 45.5636364,
                "pitch": 65,
                "velocity": 80,
                "duration": 0.1545455,
                "tempo": 120.0
            },
            {
                "start_time": 45.9159091,
                "end_time": 46.2431818,
                "pitch": 65,
                "velocity": 80,
                "duration": 0.3272727,
                "tempo": 120.0
            },
            {
                "start_time": 46.5931818,
                "end_time": 47.9431818,
                "pitch": 63,
                "velocity": 80,
                "duration": 1.35,
                "tempo": 120.0
            },
            {
                "start_time": 48.1113636,
                "end_time": 48.2613636,
                "pitch": 65,
                "velocity": 80,
                "duration": 0.15,
                "tempo": 120.0
            },
            {
                "start_time": 48.2795455,
                "end_time": 48.4340909,
                "pitch": 65,
                "velocity": 80,
                "duration": 0.1545455,
                "tempo": 120.0
            },
            {
                "start_time": 48.6227273,
                "end_time": 48.7727273,
                "pitch": 65,
                "velocity": 80,
                "duration": 0.15,
                "tempo": 120.0
            },
            {
                "start_time": 48.7886364,
                "end_time": 48.9409091,
                "pitch": 65,
                "velocity": 80,
                "duration": 0.1522727,
                "tempo": 120.0
            },
            {
                "start_time": 49.3022727,
                "end_time": 50.6340909,
                "pitch": 63,
                "velocity": 80,
                "duration": 1.3318182,
                "tempo": 120.0
            },
            {
                "start_time": 50.8181818,
                "end_time": 50.9681818,
                "pitch": 65,
                "velocity": 80,
                "duration": 0.15,
                "tempo": 120.0
            },
            {
                "start_time": 51.3295455,
                "end_time": 51.6477273,
                "pitch": 65,
                "velocity": 80,
                "duration": 0.3181818,
                "tempo": 120.0
            },
            {
                "start_time": 52.0,
                "end_time": 53.3318182,
                "pitch": 63,
                "velocity": 80,
                "duration": 1.3318182,
                "tempo": 120.0
            },
            {
                "start_time": 53.35,
                "end_time": 54.6727273,
                "pitch": 64,
                "velocity": 80,
                "duration": 1.3227273,
                "tempo": 120.0
            }
        ]
    }
}