{
    "mood": "sad",
    "instruments": {
        "Electric Piano 1": [
            {
                "start_time": 0.0113636,
                "end_time": 2.7204545,
                "pitch": 25,
                "velocity": 80,
                "duration": 2.7090909,
                "tempo": 120.0
            },
            {
                "start_time": 2.7727273,
                "end_time": 5.5159091,
                "pitch": 23,
                "velocity": 80,
                "duration": 2.7431818,
                "tempo": 120.0
            },
            {
                "start_time": 5.5681818,
                "end_time": 6.9318182,
                "pitch": 21,
                "velocity": 80,
                "duration": 1.3636364,
                "tempo": 120.0
            },
            {
                "start_time": 7.0,
                "end_time": 8.3318182,
                "pitch": 18,
                "velocity": 80,
                "duration": 1.3318182,
                "tempo": 120.0
            },
            {
                "start_time": 8.4,
                "end_time": 9.7295455,
                "pitch": 20,
                "velocity": 80,
                "duration": 1.3295455,
                "tempo": 120.0
            },
            {
                "start_time": 9.7977273,
                "end_time": 11.1545455,
                "pitch": 20,
                "velocity": 80,
                "duration": 1.3568182,
                "tempo": 120.0
            },
            {
                "start_time": 11.2068182,
                "end_time": 13.95,
                "pitch": 25,
                "velocity": 80,
                "duration": 2.7431818,
                "tempo": 120.0
            },
            {
                "start_time": 14.0022727,
                "end_time": 16.7659091,
                "pitch": 24,
                "velocity": 80,
                "duration": 2.7636364,
                "tempo": 120.0
            },
            {
                "start_time": 16.8340909,
                "end_time": 18.1659091,
                "pitch": 25,
                "velocity": 80,
                "duration": 1.3318182,
                "tempo": 120.0
            },
            {
                "start_time": 18.2318182,
                "end_time": 19.5795455,
                "pitch": 18,
                "velocity": 64,
                "duration": 1.3477273,
                "tempo": 120.0
            },
            {
                "start_time": 19.6295455,
                "end_time": 20.9863636,
                "pitch": 23,
                "velocity": 64,
                "duration": 1.3568182,
                "tempo": 120.0
            },
            {
                "start_time": 21.0386364,
                "end_time": 22.3840909,
                "pitch": 23,
                "velocity": 80,
                "duration": 1.3454545,
                "tempo": 120.0
            },
            {
                "start_time": 22.4363636,
                "end_time": 25.2022727,
                "pitch": 28,
                "velocity": 64,
                "duration": 2.7659091,
                "tempo": 120.0
            },
            {
                "start_time": 25.2727273,
                "end_time": 28.0159091,
                "pitch": 28,
                "velocity": 80,
                "duration": 2.7431818,
                "tempo": 120.0
            },
            {
                "start_time": 28.0681818,
                "end_time": 30.8227273,
                "pitch": 26,
                "velocity": 64,
                "duration": 2.7545455,
                "tempo": 120.0
            },
            {
                "start_time": 30.875,
                "end_time": 31.5159091,
                "pitch": 24,
                "velocity": 80,
                "duration": 0.6409091,
                "tempo": 120.0
            },
            {
                "start_time": 31.5681818,
                "end_time": 32.2204545,
                "pitch": 23,
                "velocity": 64,
                "duration": 0.6522727,
                "tempo": 120.0
            },
            {
                "start_time": 32.2886364,
                "end_time": 33.6272727,
                "pitch": 22,
                "velocity": 64,
                "duration": 1.3386364,
                "tempo": 120.0
            },
            {
                "start_time": 33.6954545,
                "end_time": 35.0340909,
                "pitch": 23,
                "velocity": 80,
                "duration": 1.3386364,
                "tempo": 120.0
            },
            {
                "start_time": 36.5022727,
                "end_time": 37.8477273,
                "pitch": 30,
                "velocity": 80,
                "duration": 1.3454545,
                "tempo": 120.0
            },
            {
                "start_time": 37.9,
                "end_time": 39.2477273,
                "pitch": 18,
                "velocity": 80,
                "duration": 1.3477273,
                "tempo": 120.0
            },
            {
                "start_time": 39.2977273,
                "end_time": 42.7636364,
                "pitch": 23,
                "velocity": 80,
                "duration": 3.4659091,
                "tempo": 120.0
            },
            {
                "start_time": 42.8340909,
                "end_time": 43.4590909,
                "pitch": 28,
                "velocity": 80,
                "duration": 0.625,
                "tempo": 120.0
            },
            {
                "start_time": 43.5272727,
                "end_time": 44.1636364,
                "pitch": 31,
                "velocity": 101,
                "duration": 0.6363636,
                "tempo": 120.0
            },
            {
                "start_time": 44.2318182,
                "end_time": 44.8681818,
                "pitch": 28,
                "velocity": 64,
                "duration": 0.6363636,
                "tempo": 120.0
            },
            {
                "start_time": 44.9363636,
                "end_time": 48.3840909,
                "pitch": 23,
                "velocity": 80,
                "duration": 3.4477273,
                "tempo": 120.0
            },
            {
                "start_time": 48.4363636,
                "end_time": 49.0795455,
                "pitch": 28,
                "velocity": 80,
                "duration": 0.6431818,
                "tempo": 120.0
            },
            {
                "start_time": 49.1295455,
                "end_time": 49.7840909,
                "pitch": 31,
                "velocity": 101,
                "duration": 0.6545455,
                "tempo": 120.0
            },
            {
                "start_time": 49.8545455,
                "end_time": 50.4954545,
                "pitch": 28,
                "velocity": 64,
                "duration": 0.6409091,
                "tempo": 120.0
            },
            {
                "start_time": 50.5636364,
                "end_time": 51.8931818,
                "pitch": 23,
                "velocity": 80,
                "duration": 1.3295455,
                "tempo": 120.0
            },
            {
                "start_time": 51.9613636,
                "end_time": 53.2909091,
                "pitch": 20,
                "velocity": 80,
                "duration": 1.3295455,
                "tempo": 120.0
            },
            {
                "start_time": 53.3590909,
                "end_time": 54.7159091,
                "pitch": 16,
                "velocity": 80,
                "duration": 1.3568182,
                "tempo": 120.0
            },
            {
                "start_time": 54.7681818,
                "end_time": 56.1136364,
                "pitch": 18,
                "velocity": 64,
                "duration": 1.3454545,
                "tempo": 120.0
            },
            {
                "start_time": 56.1659091,
                "end_time": 57.5113636,
                "pitch": 23,
                "velocity": 80,
                "duration": 1.3454545,
                "tempo": 120.0
            },
            {
                "start_time": 57.5636364,
                "end_time": 58.9295455,
                "pitch": 24,
                "velocity": 101,
                "duration": 1.3659091,
                "tempo": 120.0
            },
            {
                "start_time": 58.9977273,
                "end_time": 60.3272727,
                "pitch": 25,
                "velocity": 80,
                "duration": 1.3295455,
                "tempo": 120.0
            },
            {
                "start_time": 60.3954545,
                "end_time": 61.725,
                "pitch": 25,
                "velocity": 80,
                "duration": 1.3295455,
                "tempo": 120.0
            },
            {
                "start_time": 61.7931818,
                "end_time": 64.5386364,
                "pitch": 18,
                "velocity": 80,
                "duration": 2.7454545,
                "tempo": 120.0
            },
            {
                "start_time": 64.5886364,
                "end_time": 67.3636364,
                "pitch": 29,
                "velocity": 80,
                "duration": 2.775,
                "tempo": 120.0
            },
            {
                "start_time": 67.4318182,
                "end_time": 68.7613636,
                "pitch": 30,
                "velocity": 80,
                "duration": 1.3295455,
                "tempo": 120.0
            },
            {
                "start_time": 68.8295455,
                "end_time": 69.4545455,
                "pitch": 27,
                "velocity": 64,
                "duration": 0.625,
                "tempo": 120.0
            },
            {
                "start_time": 69.5227273,
                "end_time": 70.1590909,
                "pitch": 25,
                "velocity": 64,
                "duration": 0.6363636,
                "tempo": 120.0
            },
            {
                "start_time": 70.2272727,
                "end_time": 72.2772727,
                "pitch": 24,
                "velocity": 80,
                "duration": 2.05,
                "tempo": 120.0
            },
            {
                "start_time": 72.3295455,
                "end_time": 72.9727273,
                "pitch": 24,
                "velocity": 80,
                "duration": 0.6431818,
                "tempo": 120.0
            },
            {
                "start_time": 73.0227273,
                "end_time": 74.3795455,
                "pitch": 25,
                "velocity": 64,
                "duration": 1.3568182,
                "tempo": 120.0
            },
            {
                "start_time": 74.4318182,
                "end_time": 75.0772727,
                "pitch": 18,
                "velocity": 80,
                "duration": 0.6454545,
                "tempo": 120.0
            },
            {
                "start_time": 75.1477273,
                "end_time": 75.7886364,
                "pitch": 19,
                "velocity": 64,
                "duration": 0.6409091,
                "tempo": 120.0
            },
            {
                "start_time": 75.8590909,
                "end_time": 78.5954545,
                "pitch": 20,
                "velocity": 80,
                "duration": 2.7363636,
                "tempo": 120.0
            },
            {
                "start_time": 78.6636364,
                "end_time": 81.4090909,
                "pitch": 20,
                "velocity": 80,
                "duration": 2.7454545,
                "tempo": 120.0
            },
            {
                "start_time": 81.4613636,
                "end_time": 84.2227273,
                "pitch": 20,
                "velocity": 80,
                "duration": 2.7613636,
                "tempo": 120.0
            },
            {
                "start_time": 84.2931818,
                "end_time": 87.0227273,
                "pitch": 20,
                "velocity": 80,
                "duration": 2.7295455,
                "tempo": 120.0
            },
            {
                "start_time": 87.0886364,
                "end_time": 89.8431818,
                "pitch": 20,
                "velocity": 80,
                "duration": 2.7545455,
                "tempo": 120.0
            },
            {
                "start_time": 89.8954545,
                "end_time": 92.65,
                "pitch": 20,
                "velocity": 80,
                "duration": 2.7545455,
                "tempo": 120.0
            },
            {
                "start_time": 92.7181818,
                "end_time": 95.4568182,
                "pitch": 20,
                "velocity": 80,
                "duration": 2.7386364,
                "tempo": 120.0
            },
            {
                "start_time": 95.525,
                "end_time": 103.8931818,
                "pitch": 20,
                "velocity": 80,
                "duration": 8.3681818,
                "tempo": 120.0
            },
            {
                "start_time": 103.9613636,
                "end_time": 106.7068182,
                "pitch": 20,
                "velocity": 80,
                "duration": 2.7454545,
                "tempo": 120.0
            },
            {
                "start_time": 106.7568182,
                "end_time": 109.5204545,
                "pitch": 20,
                "velocity": 80,
                "duration": 2.7636364,
                "tempo": 120.0
            },
            {
                "start_time": 109.5909091,
                "end_time": 110.9318182,
                "pitch": 20,
                "velocity": 80,
                "duration": 1.3409091,
                "tempo": 120.0
            },
            {
                "start_time": 111.0,
                "end_time": 112.3295455,
                "pitch": 21,
                "velocity": 64,
                "duration": 1.3295455,
                "tempo": 120.0
            },
            {
                "start_time": 112.3977273,
                "end_time": 113.7454545,
                "pitch": 18,
                "velocity": 64,
                "duration": 1.3477273,
                "tempo": 120.0
            },
            {
                "start_time": 113.7954545,
                "end_time": 115.1431818,
                "pitch": 20,
                "velocity": 64,
                "duration": 1.3477273,
                "tempo": 120.0
            },
            {
                "start_time": 115.1954545,
                "end_time": 117.95,
                "pitch": 25,
                "velocity": 80,
                "duration": 2.7545455,
                "tempo": 120.0
            },
            {
                "start_time": 118.0181818,
                "end_time": 120.7590909,
                "pitch": 24,
                "velocity": 80,
                "duration": 2.7409091,
                "tempo": 120.0
            },
            {
                "start_time": 120.825,
                "end_time": 122.1818182,
                "pitch": 25,
                "velocity": 80,
                "duration": 1.3568182,
                "tempo": 120.0
            },
            {
                "start_time": 122.2340909,
                "end_time": 123.5795455,
                "pitch": 18,
                "velocity": 64,
                "duration": 1.3454545,
                "tempo": 120.0
            },
            {
                "start_time": 123.6318182,
                "end_time": 124.9795455,
                "pitch": 23,
                "velocity": 80,
                "duration": 1.3477273,
                "tempo": 120.0
            },
            {
                "start_time": 125.0295455,
                "end_time": 126.3772727,
                "pitch": 23,
                "velocity": 101,
                "duration": 1.3477273,
                "tempo": 120.0
            },
            {
                "start_time": 126.4454545,
                "end_time": 129.1954545,
                "pitch": 28,
                "velocity": 80,
                "duration": 2.75,
                "tempo": 120.0
            },
            {
                "start_time": 129.2636364,
                "end_time": 132.0181818,
                "pitch": 27,
                "velocity": 80,
                "duration": 2.7545455,
                "tempo": 120.0
            },
            {
                "start_time": 132.0704545,
                "end_time": 133.4159091,
                "pitch": 28,
                "velocity": 80,
                "duration": 1.3454545,
                "tempo": 120.0
            },
            {
                "start_time": 133.4681818,
                "end_time": 134.1090909,
                "pitch": 27,
                "velocity": 64,
                "duration": 0.6409091,
                "tempo": 120.0
            },
            {
                "start_time": 134.1613636,
                "end_time": 134.8136364,
                "pitch": 25,
                "velocity": 64,
                "duration": 0.6522727,
                "tempo": 120.0
            },
            {
                "start_time": 134.8818182,
                "end_time": 136.2340909,
                "pitch": 24,
                "velocity": 64,
                "duration": 1.3522727,
                "tempo": 120.0
            },
            {
                "start_time": 136.3022727,
                "end_time": 137.6318182,
                "pitch": 25,
                "velocity": 64,
                "duration": 1.3295455,
                "tempo": 120.0
            },
            {
                "start_time": 137.7022727,
                "end_time": 139.0477273,
                "pitch": 18,
                "velocity": 80,
                "duration": 1.3454545,
                "tempo": 120.0
            },
            {
                "start_time": 139.1,
                "end_time": 140.4477273,
                "pitch": 20,
                "velocity": 64,
                "duration": 1.3477273,
                "tempo": 120.0
            },
            {
                "start_time": 140.4977273,
                "end_time": 143.9636364,
                "pitch": 25,
                "velocity": 80,
                "duration": 3.4659091,
                "tempo": 120.0
            },
            {
                "start_time": 144.0318182,
                "end_time": 144.6590909,
                "pitch": 30,
                "velocity": 80,
                "duration": 0.6272727,
                "tempo": 120.0
            },
            {
                "start_time": 144.7272727,
                "end_time": 145.3613636,
                "pitch": 33,
                "velocity": 101,
                "duration": 0.6340909,
                "tempo": 120.0
            },
            {
                "start_time": 145.4318182,
                "end_time": 146.0659091,
                "pitch": 30,
                "velocity": 64,
                "duration": 0.6340909,
                "tempo": 120.0
            },
            {
                "start_time": 146.1363636,
                "end_time": 149.5840909,
                "pitch": 25,
                "velocity": 80,
                "duration": 3.4477273,
                "tempo": 120.0
            },
            {
                "start_time": 149.6340909,
                "end_time": 150.2795455,
                "pitch": 30,
                "velocity": 80,
                "duration": 0.6454545,
                "tempo": 120.0
            },
            {
                "start_time": 150.3295455,
                "end_time": 150.9818182,
                "pitch": 33,
                "velocity": 101,
                "duration": 0.6522727,
                "tempo": 120.0
            },
            {
                "start_time": 151.0340909,
                "end_time": 151.6772727,
                "pitch": 30,
                "velocity": 64,
                "duration": 0.6431818,
                "tempo": 120.0
            },
            {
                "start_time": 151.7272727,
                "end_time": 153.0954545,
                "pitch": 25,
                "velocity": 80,
                "duration": 1.3681818,
                "tempo": 120.0
            },
            {
                "start_time": 153.1636364,
                "end_time": 154.4954545,
                "pitch": 18,
                "velocity": 80,
                "duration": 1.3318182,
                "tempo": 120.0
            },
            {
                "start_time": 154.5636364,
                "end_time": 156.6136364,
                "pitch": 27,
                "velocity": 64,
                "duration": 2.05,
                "tempo": 120.0
            },
            {
                "start_time": 156.6659091,
                "end_time": 157.3181818,
                "pitch": 28,
                "velocity": 80,
                "duration": 0.6522727,
                "tempo": 120.0
            },
            {
                "start_time": 157.3704545,
                "end_time": 158.0113636,
                "pitch": 25,
                "velocity": 64,
                "duration": 0.6409091,
                "tempo": 120.0
            },
            {
                "start_time": 158.0636364,
                "end_time": 158.7159091,
                "pitch": 27,
                "velocity": 64,
                "duration": 0.6522727,
                "tempo": 120.0
            },
            {
                "start_time": 158.7659091,
                "end_time": 159.4159091,
                "pitch": 24,
                "velocity": 64,
                "duration": 0.65,
                "tempo": 120.0
            },
            {
                "start_time": 159.4659091,
                "end_time": 160.1204545,
                "pitch": 25,
                "velocity": 64,
                "duration": 0.6545455,
                "tempo": 120.0
            },
            {
                "start_time": 160.1727273,
                "end_time": 161.5295455,
                "pitch": 21,
                "velocity": 80,
                "duration": 1.3568182,
                "tempo": 120.0
            },
            {
                "start_time": 161.5977273,
                "end_time": 162.2295455,
                "pitch": 20,
                "velocity": 64,
                "duration": 0.6318182,
                "tempo": 120.0
            },
            {
                "start_time": 162.2977273,
                "end_time": 162.9272727,
                "pitch": 18,
                "velocity": 64,
                "duration": 0.6295455,
                "tempo": 120.0
            },
            {
                "start_time": 162.9977273,
                "end_time": 164.3272727,
                "pitch": 20,
                "velocity": 80,
                "duration": 1.3295455,
                "tempo": 120.0
            },
            {
                "start_time": 164.3931818,
                "end_time": 165.7522727,
                "pitch": 20,
                "velocity": 80,
                "duration": 1.3590909,
                "tempo": 120.0
            },
            {
                "start_time": 165.8022727,
                "end_time": 168.5477273,
                "pitch": 25,
                "velocity": 80,
                "duration": 2.7454545,
                "tempo": 120.0
            },
            {
                "start_time": 168.5977273,
                "end_time": 171.3613636,
                "pitch": 24,
                "velocity": 80,
                "duration": 2.7636364,
                "tempo": 120.0
            },
            {
                "start_time": 171.4295455,
                "end_time": 174.175,
                "pitch": 25,
                "velocity": 80,
                "duration": 2.7454545,
                "tempo": 120.0
            },
            {
                "start_time": 174.225,
                "end_time": 176.9818182,
                "pitch": 20,
                "velocity": 80,
                "duration": 2.7568182,
                "tempo": 120.0
            },
            {
                "start_time": 177.0318182,
                "end_time": 179.8,
                "pitch": 25,
                "velocity": 80,
                "duration": 2.7681818,
                "tempo": 120.0
            }
        ]
    }
}