{
    "mood": "sad",
    "instruments": {
        "Vibraphone": [
            {
                "start_time": 0.2636364,
                "end_time": 0.3113636,
                "pitch": 46,
                "velocity": 80,
                "duration": 0.0477273,
                "tempo": 120.0
            },
            {
                "start_time": 0.6636364,
                "end_time": 0.7136364,
                "pitch": 46,
                "velocity": 80,
                "duration": 0.05,
                "tempo": 120.0
            },
            {
                "start_time": 0.8636364,
                "end_time": 0.9136364,
                "pitch": 46,
                "velocity": 80,
                "duration": 0.05,
                "tempo": 120.0
            },
            {
                "start_time": 1.0636364,
                "end_time": 1.1136364,
                "pitch": 48,
                "velocity": 80,
                "duration": 0.05,
                "tempo": 120.0
            },
            {
                "start_time": 1.2636364,
                "end_time": 1.3136364,
                "pitch": 48,
                "velocity": 80,
                "duration": 0.05,
                "tempo": 120.0
            },
            {
                "start_time": 1.6636364,
                "end_time": 1.7136364,
                "pitch": 48,
                "velocity": 80,
                "duration": 0.05,
                "tempo": 120.0
            },
            {
                "start_time": 1.8659091,
                "end_time": 1.9136364,
                "pitch": 46,
                "velocity": 80,
                "duration": 0.0477273,
                "tempo": 120.0
            },
            {
                "start_time": 2.2681818,
                "end_time": 2.3181818,
                "pitch": 46,
                "velocity": 80,
                "duration": 0.05,
                "tempo": 120.0
            },
            {
                "start_time": 2.4681818,
                "end_time": 2.5181818,
                "pitch": 46,
                "velocity": 80,
                "duration": 0.05,
                "tempo": 120.0
            },
            {
                "start_time": 2.6681818,
                "end_time": 2.7181818,
                "pitch": 48,
                "velocity": 80,
                "duration": 0.05,
                "tempo": 120.0
            },
            {
                "start_time": 2.8727273,
                "end_time": 2.925,
                "pitch": 48,
                "velocity": 80,
                "duration": 0.0522727,
                "tempo": 120.0
            },
            {
                "start_time": 3.2795455,
                "end_time": 3.3295455,
                "pitch": 48,
                "velocity": 80,
                "duration": 0.05,
                "tempo": 120.0
            },
            {
                "start_time": 3.4795455,
                "end_time": 3.5295455,
                "pitch": 46,
                "velocity": 80,
                "duration": 0.05,
                "tempo": 120.0
            },
            {
                "start_time": 3.8840909,
                "end_time": 3.9318182,
                "pitch": 46,
                "velocity": 80,
                "duration": 0.0477273,
                "tempo": 120.0
            },
            {
                "start_time": 4.0795455,
                "end_time": 4.1272727,
                "pitch": 46,
                "velocity": 80,
                "duration": 0.0477273,
                "tempo": 120.0
            },
            {
                "start_time": 4.275,
                "end_time": 4.3272727,
                "pitch": 48,
                "velocity": 80,
                "duration": 0.0522727,
                "tempo": 120.0
            },
            {
                "start_time": 4.4818182,
                "end_time": 4.5318182,
                "pitch": 48,
                "velocity": 80,
                "duration": 0.05,
                "tempo": 120.0
            },
            {
                "start_time": 4.8886364,
                "end_time": 4.9386364,
                "pitch": 48,
                "velocity": 80,
                "duration": 0.05,
                "tempo": 120.0
            },
            {
                "start_time": 5.0909091,
                "end_time": 5.1409091,
                "pitch": 46,
                "velocity": 80,
                "duration": 0.05,
                "tempo": 120.0
            },
            {
                "start_time": 5.4931818,
                "end_time": 5.5431818,
                "pitch": 46,
                "velocity": 80,
                "duration": 0.05,
                "tempo": 120.0
            },
            {
                "start_time": 5.6931818,
                "end_time": 5.7431818,
                "pitch": 46,
                "velocity": 80,
                "duration": 0.05,
                "tempo": 120.0
            },
            {
                "start_time": 5.8954545,
                "end_time": 5.9431818,
                "pitch": 48,
                "velocity": 80,
                "duration": 0.0477273,
                "tempo": 120.0
            },
            {
                "start_time": 6.0954545,
                "end_time": 6.1454545,
                "pitch": 48,
                "velocity": 80,
                "duration": 0.05,
                "tempo": 120.0
            },
            {
                "start_time": 6.4977273,
                "end_time": 6.5477273,
                "pitch": 48,
                "velocity": 80,
                "duration": 0.05,
                "tempo": 120.0
            },
            {
                "start_time": 6.6977273,
                "end_time": 6.7477273,
                "pitch": 46,
                "velocity": 80,
                "duration": 0.05,
                "tempo": 120.0
            },
            {
                "start_time": 7.1,
                "end_time": 7.1522727,
                "pitch": 46,
                "velocity": 80,
                "duration": 0.0522727,
                "tempo": 120.0
            },
            {
                "start_time": 7.3022727,
                "end_time": 7.3522727,
                "pitch": 46,
                "velocity": 80,
                "duration": 0.05,
                "tempo": 120.0
            },
            {
                "start_time": 7.5045455,
                "end_time": 7.5545455,
                "pitch": 48,
                "velocity": 80,
                "duration": 0.05,
                "tempo": 120.0
            },
            {
                "start_time": 7.7045455,
                "end_time": 7.7545455,
                "pitch": 48,
                "velocity": 80,
                "duration": 0.05,
                "tempo": 120.0
            },
            {
                "start_time": 8.1068182,
                "end_time": 8.1568182,
                "pitch": 48,
                "velocity": 80,
                "duration": 0.05,
                "tempo": 120.0
            },
            {
                "start_time": 8.3090909,
                "end_time": 8.3568182,
                "pitch": 46,
                "velocity": 80,
                "duration": 0.0477273,
                "tempo": 120.0
            },
            {
                "start_time": 8.7090909,
                "end_time": 8.7590909,
                "pitch": 46,
                "velocity": 80,
                "duration": 0.05,
                "tempo": 120.0
            },
            {
                "start_time": 8.9090909,
                "end_time": 8.9613636,
                "pitch": 46,
                "velocity": 80,
                "duration": 0.0522727,
                "tempo": 120.0
            },
            {
                "start_time": 9.1113636,
                "end_time": 9.1613636,
                "pitch": 48,
                "velocity": 80,
                "duration": 0.05,
                "tempo": 120.0
            },
            {
                "start_time": 9.3136364,
                "end_time": 9.3636364,
                "pitch": 48,
                "velocity": 80,
                "duration": 0.05,
                "tempo": 120.0
            },
            {
                "start_time": 9.7159091,
                "end_time": 9.7659091,
                "pitch": 48,
                "velocity": 80,
                "duration": 0.05,
                "tempo": 120.0
            },
            {
                "start_time": 9.9181818,
                "end_time": 9.9681818,
                "pitch": 46,
                "velocity": 80,
                "duration": 0.05,
                "tempo": 120.0
            },
            {
                "start_time": 10.3181818,
                "end_time": 10.3681818,
                "pitch": 46,
                "velocity": 80,
                "duration": 0.05,
                "tempo": 120.0
            },
            {
                "start_time": 10.5204545,
                "end_time": 10.5704545,
                "pitch": 46,
                "velocity": 80,
                "duration": 0.05,
                "tempo": 120.0
            },
            {
                "start_time": 10.7227273,
                "end_time": 10.7727273,
                "pitch": 48,
                "velocity": 80,
                "duration": 0.05,
                "tempo": 120.0
            },
            {
                "start_time": 10.9227273,
                "end_time": 10.9727273,
                "pitch": 48,
                "velocity": 80,
                "duration": 0.05,
                "tempo": 120.0
            },
            {
                "start_time": 11.3272727,
                "end_time": 11.3772727,
                "pitch": 48,
                "velocity": 80,
                "duration": 0.05,
                "tempo": 120.0
            },
            {
                "start_time": 11.5295455,
                "end_time": 11.5795455,
                "pitch": 46,
                "velocity": 80,
                "duration": 0.05,
                "tempo": 120.0
            },
            {
                "start_time": 11.9386364,
                "end_time": 11.9886364,
                "pitch": 46,
                "velocity": 80,
                "duration": 0.05,
                "tempo": 120.0
            },
            {
                "start_time": 12.1363636,
                "end_time": 12.1840909,
                "pitch": 46,
                "velocity": 80,
                "duration": 0.0477273,
                "tempo": 120.0
            },
            {
                "start_time": 12.3318182,
                "end_time": 12.3840909,
                "pitch": 48,
                "velocity": 80,
                "duration": 0.0522727,
                "tempo": 120.0
            },
            {
                "start_time": 12.5386364,
                "end_time": 12.5886364,
                "pitch": 48,
                "velocity": 80,
                "duration": 0.05,
                "tempo": 120.0
            },
            {
                "start_time": 12.9454545,
                "end_time": 12.9954545,
                "pitch": 48,
                "velocity": 80,
                "duration": 0.05,
                "tempo": 120.0
            },
            {
                "start_time": 13.1477273,
                "end_time": 13.1977273,
                "pitch": 46,
                "velocity": 80,
                "duration": 0.05,
                "tempo": 120.0
            },
            {
                "start_time": 13.55,
                "end_time": 13.5977273,
                "pitch": 46,
                "velocity": 80,
                "duration": 0.0477273,
                "tempo": 120.0
            },
            {
                "start_time": 13.7454545,
                "end_time": 13.7954545,
                "pitch": 46,
                "velocity": 80,
                "duration": 0.05,
                "tempo": 120.0
            },
            {
                "start_time": 13.9431818,
                "end_time": 13.9931818,
                "pitch": 48,
                "velocity": 80,
                "duration": 0.05,
                "tempo": 120.0
            },
            {
                "start_time": 14.1477273,
                "end_time": 14.2,
                "pitch": 48,
                "velocity": 80,
                "duration": 0.0522727,
                "tempo": 120.0
            },
            {
                "start_time": 14.5545455,
                "end_time": 14.6045455,
                "pitch": 48,
                "velocity": 80,
                "duration": 0.05,
                "tempo": 120.0
            },
            {
                "start_time": 14.7545455,
                "end_time": 14.8045455,
                "pitch": 46,
                "velocity": 80,
                "duration": 0.05,
                "tempo": 120.0
            },
            {
                "start_time": 15.1568182,
                "end_time": 15.2068182,
                "pitch": 46,
                "velocity": 80,
                "duration": 0.05,
                "tempo": 120.0
            },
            {
                "start_time": 15.3590909,
                "end_time": 15.4090909,
                "pitch": 46,
                "velocity": 80,
                "duration": 0.05,
                "tempo": 120.0
            },
            {
                "start_time": 15.5613636,
                "end_time": 15.6113636,
                "pitch": 48,
                "velocity": 80,
                "duration": 0.05,
                "tempo": 120.0
            },
            {
                "start_time": 15.7613636,
                "end_time": 15.8113636,
                "pitch": 48,
                "velocity": 80,
                "duration": 0.05,
                "tempo": 120.0
            },
            {
                "start_time": 16.1659091,
                "end_time": 16.2159091,
                "pitch": 48,
                "velocity": 80,
                "duration": 0.05,
                "tempo": 120.0
            },
            {
                "start_time": 16.3681818,
                "end_time": 16.4181818,
                "pitch": 46,
                "velocity": 80,
                "duration": 0.05,
                "tempo": 120.0
            },
            {
                "start_time": 16.7704545,
                "end_time": 16.8204545,
                "pitch": 46,
                "velocity": 80,
                "duration": 0.05,
                "tempo": 120.0
            },
            {
                "start_time": 16.9704545,
                "end_time": 17.0204545,
                "pitch": 46,
                "velocity": 80,
                "duration": 0.05,
                "tempo": 120.0
            },
            {
                "start_time": 17.1704545,
                "end_time": 17.2204545,
                "pitch": 48,
                "velocity": 80,
                "duration": 0.05,
                "tempo": 120.0
            },
            {
                "start_time": 17.3704545,
                "end_time": 17.4204545,
                "pitch": 48,
                "velocity": 80,
                "duration": 0.05,
                "tempo": 120.0
            },
            {
                "start_time": 17.7727273,
                "end_time": 17.8227273,
                "pitch": 48,
                "velocity": 80,
                "duration": 0.05,
                "tempo": 120.0
            },
            {
                "start_time": 17.975,
                "end_time": 18.025,
                "pitch": 46,
                "velocity": 80,
                "duration": 0.05,
                "tempo": 120.0
            },
            {
                "start_time": 18.375,
                "end_time": 18.425,
                "pitch": 46,
                "velocity": 80,
                "duration": 0.05,
                "tempo": 120.0
            },
            {
                "start_time": 18.5772727,
                "end_time": 18.6272727,
                "pitch": 46,
                "velocity": 80,
                "duration": 0.05,
                "tempo": 120.0
            },
            {
                "start_time": 18.7795455,
                "end_time": 18.8295455,
                "pitch": 48,
                "velocity": 80,
                "duration": 0.05,
                "tempo": 120.0
            },
            {
                "start_time": 18.9840909,
                "end_time": 19.0340909,
                "pitch": 48,
                "velocity": 80,
                "duration": 0.05,
                "tempo": 120.0
            },
            {
                "start_time": 19.3909091,
                "end_time": 19.4409091,
                "pitch": 48,
                "velocity": 80,
                "duration": 0.05,
                "tempo": 120.0
            },
            {
                "start_time": 19.5909091,
                "end_time": 19.6409091,
                "pitch": 46,
                "velocity": 80,
                "duration": 0.05,
                "tempo": 120.0
            },
            {
                "start_time": 19.9909091,
                "end_time": 20.0386364,
                "pitch": 46,
                "velocity": 80,
                "duration": 0.0477273,
                "tempo": 120.0
            },
            {
                "start_time": 20.1863636,
                "end_time": 20.2363636,
                "pitch": 46,
                "velocity": 80,
                "duration": 0.05,
                "tempo": 120.0
            },
            {
                "start_time": 20.3840909,
                "end_time": 20.4340909,
                "pitch": 48,
                "velocity": 80,
                "duration": 0.05,
                "tempo": 120.0
            },
            {
                "start_time": 20.5886364,
                "end_time": 20.6409091,
                "pitch": 48,
                "velocity": 80,
                "duration": 0.0522727,
                "tempo": 120.0
            },
            {
                "start_time": 20.9954545,
                "end_time": 21.0454545,
                "pitch": 48,
                "velocity": 80,
                "duration": 0.05,
                "tempo": 120.0
            },
            {
                "start_time": 21.1977273,
                "end_time": 21.2477273,
                "pitch": 46,
                "velocity": 80,
                "duration": 0.05,
                "tempo": 120.0
            },
            {
                "start_time": 21.5977273,
                "end_time": 21.6477273,
                "pitch": 46,
                "velocity": 80,
                "duration": 0.05,
                "tempo": 120.0
            },
            {
                "start_time": 21.7977273,
                "end_time": 21.8477273,
                "pitch": 46,
                "velocity": 80,
                "duration": 0.05,
                "tempo": 120.0
            },
            {
                "start_time": 22.0,
                "end_time": 22.05,
                "pitch": 48,
                "velocity": 80,
                "duration": 0.05,
                "tempo": 120.0
            },
            {
                "start_time": 22.2,
                "end_time": 22.25,
                "pitch": 48,
                "velocity": 80,
                "duration": 0.05,
                "tempo": 120.0
            },
            {
                "start_time": 22.6022727,
                "end_time": 22.6522727,
                "pitch": 48,
                "velocity": 80,
                "duration": 0.05,
                "tempo": 120.0
            },
            {
                "start_time": 22.8022727,
                "end_time": 22.8522727,
                "pitch": 46,
                "velocity": 80,
                "duration": 0.05,
                "tempo": 120.0
            },
            {
                "start_time": 23.2068182,
                "end_time": 23.2545455,
                "pitch": 46,
                "velocity": 80,
                "duration": 0.0477273,
                "tempo": 120.0
            },
            {
                "start_time": 23.4068182,
                "end_time": 23.4568182,
                "pitch": 46,
                "velocity": 80,
                "duration": 0.05,
                "tempo": 120.0
            },
            {
                "start_time": 23.6068182,
                "end_time": 23.6568182,
                "pitch": 48,
                "velocity": 80,
                "duration": 0.05,
                "tempo": 120.0
            },
            {
                "start_time": 23.8068182,
                "end_time": 23.8568182,
                "pitch": 48,
                "velocity": 80,
                "duration": 0.05,
                "tempo": 120.0
            },
            {
                "start_time": 24.2090909,
                "end_time": 24.2590909,
                "pitch": 48,
                "velocity": 80,
                "duration": 0.05,
                "tempo": 120.0
            },
            {
                "start_time": 24.4113636,
                "end_time": 24.4590909,
                "pitch": 46,
                "velocity": 80,
                "duration": 0.0477273,
                "tempo": 120.0
            },
            {
                "start_time": 24.8113636,
                "end_time": 24.8613636,
                "pitch": 46,
                "velocity": 80,
                "duration": 0.05,
                "tempo": 120.0
            },
            {
                "start_time": 25.0113636,
                "end_time": 25.0613636,
                "pitch": 46,
                "velocity": 80,
                "duration": 0.05,
                "tempo": 120.0
            },
            {
                "start_time": 25.2136364,
                "end_time": 25.2636364,
                "pitch": 48,
                "velocity": 80,
                "duration": 0.05,
                "tempo": 120.0
            },
            {
                "start_time": 25.4136364,
                "end_time": 25.4636364,
                "pitch": 48,
                "velocity": 80,
                "duration": 0.05,
                "tempo": 120.0
            },
            {
                "start_time": 25.8136364,
                "end_time": 25.8636364,
                "pitch": 48,
                "velocity": 80,
                "duration": 0.05,
                "tempo": 120.0
            },
            {
                "start_time": 26.0159091,
                "end_time": 26.0659091,
                "pitch": 46,
                "velocity": 80,
                "duration": 0.05,
                "tempo": 120.0
            },
            {
                "start_time": 26.4181818,
                "end_time": 26.4681818,
                "pitch": 46,
                "velocity": 80,
                "duration": 0.05,
                "tempo": 120.0
            },
            {
                "start_time": 26.6181818,
                "end_time": 26.6681818,
                "pitch": 46,
                "velocity": 80,
                "duration": 0.05,
                "tempo": 120.0
            },
            {
                "start_time": 26.8181818,
                "end_time": 26.8681818,
                "pitch": 48,
                "velocity": 80,
                "duration": 0.05,
                "tempo": 120.0
            },
            {
                "start_time": 27.0204545,
                "end_time": 27.0704545,
                "pitch": 48,
                "velocity": 80,
                "duration": 0.05,
                "tempo": 120.0
            },
            {
                "start_time": 27.4227273,
                "end_time": 27.4727273,
                "pitch": 48,
                "velocity": 80,
                "duration": 0.05,
                "tempo": 120.0
            },
            {
                "start_time": 27.6227273,
                "end_time": 27.6727273,
                "pitch": 46,
                "velocity": 80,
                "duration": 0.05,
                "tempo": 120.0
            },
            {
                "start_time": 28.0340909,
                "end_time": 28.0818182,
                "pitch": 46,
                "velocity": 80,
                "duration": 0.0477273,
                "tempo": 120.0
            },
            {
                "start_time": 28.2295455,
                "end_time": 28.2795455,
                "pitch": 46,
                "velocity": 80,
                "duration": 0.05,
                "tempo": 120.0
            },
            {
                "start_time": 28.4272727,
                "end_time": 28.4772727,
                "pitch": 48,
                "velocity": 80,
                "duration": 0.05,
                "tempo": 120.0
            },
            {
                "start_time": 28.6318182,
                "end_time": 28.6818182,
                "pitch": 48,
                "velocity": 80,
                "duration": 0.05,
                "tempo": 120.0
            },
            {
                "start_time": 29.0386364,
                "end_time": 29.0863636,
                "pitch": 48,
                "velocity": 80,
                "duration": 0.0477273,
                "tempo": 120.0
            },
            {
                "start_time": 29.2386364,
                "end_time": 29.2886364,
                "pitch": 46,
                "velocity": 80,
                "duration": 0.05,
                "tempo": 120.0
            },
            {
                "start_time": 29.6409091,
                "end_time": 29.6886364,
                "pitch": 46,
                "velocity": 80,
                "duration": 0.0477273,
                "tempo": 120.0
            },
            {
                "start_time": 29.8363636,
                "end_time": 29.8863636,
                "pitch": 46,
                "velocity": 80,
                "duration": 0.05,
                "tempo": 120.0
            },
            {
                "start_time": 30.0340909,
                "end_time": 30.0840909,
                "pitch": 48,
                "velocity": 80,
                "duration": 0.05,
                "tempo": 120.0
            },
            {
                "start_time": 30.2386364,
                "end_time": 30.2909091,
                "pitch": 48,
                "velocity": 80,
                "duration": 0.0522727,
                "tempo": 120.0
            },
            {
                "start_time": 30.6477273,
                "end_time": 30.6977273,
                "pitch": 48,
                "velocity": 80,
                "duration": 0.05,
                "tempo": 120.0
            },
            {
                "start_time": 30.8477273,
                "end_time": 30.8977273,
                "pitch": 46,
                "velocity": 80,
                "duration": 0.05,
                "tempo": 120.0
            },
            {
                "start_time": 31.2477273,
                "end_time": 31.3,
                "pitch": 46,
                "velocity": 80,
                "duration": 0.0522727,
                "tempo": 120.0
            },
            {
                "start_time": 31.45,
                "end_time": 31.5,
                "pitch": 46,
                "velocity": 80,
                "duration": 0.05,
                "tempo": 120.0
            },
            {
                "start_time": 31.6522727,
                "end_time": 31.7022727,
                "pitch": 48,
                "velocity": 80,
                "duration": 0.05,
                "tempo": 120.0
            },
            {
                "start_time": 31.8522727,
                "end_time": 31.9022727,
                "pitch": 48,
                "velocity": 80,
                "duration": 0.05,
                "tempo": 120.0
            },
            {
                "start_time": 32.2522727,
                "end_time": 32.3022727,
                "pitch": 48,
                "velocity": 80,
                "duration": 0.05,
                "tempo": 120.0
            },
            {
                "start_time": 32.4545455,
                "end_time": 32.5022727,
                "pitch": 46,
                "velocity": 80,
                "duration": 0.0477273,
                "tempo": 120.0
            },
            {
                "start_time": 32.8545455,
                "end_time": 32.9045455,
                "pitch": 46,
                "velocity": 80,
                "duration": 0.05,
                "tempo": 120.0
            },
            {
                "start_time": 33.0545455,
                "end_time": 33.1045455,
                "pitch": 46,
                "velocity": 80,
                "duration": 0.05,
                "tempo": 120.0
            },
            {
                "start_time": 33.2568182,
                "end_time": 33.3068182,
                "pitch": 48,
                "velocity": 80,
                "duration": 0.05,
                "tempo": 120.0
            },
            {
                "start_time": 33.4613636,
                "end_time": 33.5136364,
                "pitch": 48,
                "velocity": 80,
                "duration": 0.0522727,
                "tempo": 120.0
            },
            {
                "start_time": 33.8636364,
                "end_time": 33.9136364,
                "pitch": 48,
                "velocity": 80,
                "duration": 0.05,
                "tempo": 120.0
            },
            {
                "start_time": 34.0613636,
                "end_time": 34.1113636,
                "pitch": 46,
                "velocity": 80,
                "duration": 0.05,
                "tempo": 120.0
            },
            {
                "start_time": 34.4704545,
                "end_time": 34.5204545,
                "pitch": 46,
                "velocity": 80,
                "duration": 0.05,
                "tempo": 120.0
            },
            {
                "start_time": 34.6681818,
                "end_time": 34.7159091,
                "pitch": 46,
                "velocity": 80,
                "duration": 0.0477273,
                "tempo": 120.0
            },
            {
                "start_time": 34.8636364,
                "end_time": 34.9159091,
                "pitch": 48,
                "velocity": 80,
                "duration": 0.0522727,
                "tempo": 120.0
            },
            {
                "start_time": 35.0704545,
                "end_time": 35.1204545,
                "pitch": 48,
                "velocity": 80,
                "duration": 0.05,
                "tempo": 120.0
            },
            {
                "start_time": 35.475,
                "end_time": 35.525,
                "pitch": 48,
                "velocity": 80,
                "duration": 0.05,
                "tempo": 120.0
            },
            {
                "start_time": 35.6772727,
                "end_time": 35.725,
                "pitch": 46,
                "velocity": 80,
                "duration": 0.0477273,
                "tempo": 120.0
            },
            {
                "start_time": 36.0772727,
                "end_time": 36.125,
                "pitch": 46,
                "velocity": 80,
                "duration": 0.0477273,
                "tempo": 120.0
            },
            {
                "start_time": 36.2727273,
                "end_time": 36.3227273,
                "pitch": 46,
                "velocity": 80,
                "duration": 0.05,
                "tempo": 120.0
            },
            {
                "start_time": 36.4704545,
                "end_time": 36.5204545,
                "pitch": 48,
                "velocity": 80,
                "duration": 0.05,
                "tempo": 120.0
            },
            {
                "start_time": 36.675,
                "end_time": 36.725,
                "pitch": 48,
                "velocity": 80,
                "duration": 0.05,
                "tempo": 120.0
            },
            {
                "start_time": 37.0818182,
                "end_time": 37.1295455,
                "pitch": 48,
                "velocity": 80,
                "duration": 0.0477273,
                "tempo": 120.0
            },
            {
                "start_time": 37.2818182,
                "end_time": 37.3318182,
                "pitch": 46,
                "velocity": 80,
                "duration": 0.05,
                "tempo": 120.0
            }
        ],
        "Violin": [
            {
                "start_time": 0.2636364,
                "end_time": 0.3954545,
                "pitch": 76,
                "velocity": 64,
                "duration": 0.1318182,
                "tempo": 120.0
            },
            {
                "start_time": 0.4636364,
                "end_time": 0.4795455,
                "pitch": 79,
                "velocity": 64,
                "duration": 0.0159091,
                "tempo": 120.0
            },
            {
                "start_time": 0.4795455,
                "end_time": 0.5954545,
                "pitch": 79,
                "velocity": 64,
                "duration": 0.1159091,
                "tempo": 120.0
            },
            {
                "start_time": 0.6636364,
                "end_time": 0.7954545,
                "pitch": 81,
                "velocity": 64,
                "duration": 0.1318182,
                "tempo": 120.0
            },
            {
                "start_time": 0.8636364,
                "end_time": 0.9954545,
                "pitch": 84,
                "velocity": 64,
                "duration": 0.1318182,
                "tempo": 120.0
            },
            {
                "start_time": 1.0636364,
                "end_time": 1.1977273,
                "pitch": 81,
                "velocity": 64,
                "duration": 0.1340909,
                "tempo": 120.0
            },
            {
                "start_time": 1.2636364,
                "end_time": 1.2795455,
                "pitch": 79,
                "velocity": 64,
                "duration": 0.0159091,
                "tempo": 120.0
            },
            {
                "start_time": 0.4795455,
                "end_time": 1.2795455,
                "pitch": 91,
                "velocity": 64,
                "duration": 0.8,
                "tempo": 120.0
            },
            {
                "start_time": 1.2795455,
                "end_time": 1.3977273,
                "pitch": 79,
                "velocity": 64,
                "duration": 0.1181818,
                "tempo": 120.0
            },
            {
                "start_time": 1.4636364,
                "end_time": 1.5977273,
                "pitch": 76,
                "velocity": 64,
                "duration": 0.1340909,
                "tempo": 120.0
            },
            {
                "start_time": 2.2681818,
                "end_time": 2.4,
                "pitch": 74,
                "velocity": 64,
                "duration": 0.1318182,
                "tempo": 120.0
            },
            {
                "start_time": 2.6681818,
                "end_time": 2.8045455,
                "pitch": 77,
                "velocity": 64,
                "duration": 0.1363636,
                "tempo": 120.0
            },
            {
                "start_time": 3.0795455,
                "end_time": 3.2136364,
                "pitch": 81,
                "velocity": 64,
                "duration": 0.1340909,
                "tempo": 120.0
            },
            {
                "start_time": 16.3681818,
                "end_time": 16.5022727,
                "pitch": 76,
                "velocity": 64,
                "duration": 0.1340909,
                "tempo": 120.0
            },
            {
                "start_time": 16.5681818,
                "end_time": 16.5863636,
                "pitch": 79,
                "velocity": 64,
                "duration": 0.0181818,
                "tempo": 120.0
            },
            {
                "start_time": 1.2795455,
                "end_time": 16.5863636,
                "pitch": 91,
                "velocity": 64,
                "duration": 15.3068182,
                "tempo": 120.0
            },
            {
                "start_time": 16.5863636,
                "end_time": 16.7022727,
                "pitch": 79,
                "velocity": 64,
                "duration": 0.1159091,
                "tempo": 120.0
            },
            {
                "start_time": 16.7704545,
                "end_time": 16.9045455,
                "pitch": 81,
                "velocity": 64,
                "duration": 0.1340909,
                "tempo": 120.0
            },
            {
                "start_time": 16.9704545,
                "end_time": 17.1045455,
                "pitch": 84,
                "velocity": 64,
                "duration": 0.1340909,
                "tempo": 120.0
            },
            {
                "start_time": 17.1727273,
                "end_time": 17.3045455,
                "pitch": 81,
                "velocity": 64,
                "duration": 0.1318182,
                "tempo": 120.0
            },
            {
                "start_time": 17.3704545,
                "end_time": 17.3863636,
                "pitch": 79,
                "velocity": 64,
                "duration": 0.0159091,
                "tempo": 120.0
            },
            {
                "start_time": 16.5863636,
                "end_time": 17.3886364,
                "pitch": 91,
                "velocity": 64,
                "duration": 0.8022727,
                "tempo": 120.0
            },
            {
                "start_time": 17.3863636,
                "end_time": 17.3886364,
                "pitch": 91,
                "velocity": 64,
                "duration": 0.0022727,
                "tempo": 120.0
            },
            {
                "start_time": 17.3886364,
                "end_time": 17.5045455,
                "pitch": 79,
                "velocity": 64,
                "duration": 0.1159091,
                "tempo": 120.0
            },
            {
                "start_time": 17.5704545,
                "end_time": 17.7045455,
                "pitch": 76,
                "velocity": 64,
                "duration": 0.1340909,
                "tempo": 120.0
            },
            {
                "start_time": 18.375,
                "end_time": 18.5090909,
                "pitch": 74,
                "velocity": 64,
                "duration": 0.1340909,
                "tempo": 120.0
            },
            {
                "start_time": 18.7795455,
                "end_time": 18.9159091,
                "pitch": 77,
                "velocity": 64,
                "duration": 0.1363636,
                "tempo": 120.0
            },
            {
                "start_time": 19.1909091,
                "end_time": 19.3227273,
                "pitch": 81,
                "velocity": 64,
                "duration": 0.1318182,
                "tempo": 120.0
            },
            {
                "start_time": 32.4545455,
                "end_time": 32.5863636,
                "pitch": 76,
                "velocity": 64,
                "duration": 0.1318182,
                "tempo": 120.0
            },
            {
                "start_time": 32.6545455,
                "end_time": 32.6704545,
                "pitch": 79,
                "velocity": 64,
                "duration": 0.0159091,
                "tempo": 120.0
            },
            {
                "start_time": 32.6704545,
                "end_time": 32.7863636,
                "pitch": 79,
                "velocity": 64,
                "duration": 0.1159091,
                "tempo": 120.0
            },
            {
                "start_time": 32.8545455,
                "end_time": 32.9886364,
                "pitch": 81,
                "velocity": 64,
                "duration": 0.1340909,
                "tempo": 120.0
            },
            {
                "start_time": 33.0568182,
                "end_time": 33.1886364,
                "pitch": 84,
                "velocity": 64,
                "duration": 0.1318182,
                "tempo": 120.0
            },
            {
                "start_time": 33.2568182,
                "end_time": 33.3931818,
                "pitch": 81,
                "velocity": 64,
                "duration": 0.1363636,
                "tempo": 120.0
            },
            {
                "start_time": 33.4636364,
                "end_time": 33.4795455,
                "pitch": 79,
                "velocity": 64,
                "duration": 0.0159091,
                "tempo": 120.0
            },
            {
                "start_time": 32.6704545,
                "end_time": 33.4795455,
                "pitch": 91,
                "velocity": 64,
                "duration": 0.8090909,
                "tempo": 120.0
            },
            {
                "start_time": 33.4795455,
                "end_time": 33.6,
                "pitch": 79,
                "velocity": 64,
                "duration": 0.1204545,
                "tempo": 120.0
            },
            {
                "start_time": 33.6681818,
                "end_time": 33.7977273,
                "pitch": 76,
                "velocity": 64,
                "duration": 0.1295455,
                "tempo": 120.0
            },
            {
                "start_time": 34.4727273,
                "end_time": 34.6022727,
                "pitch": 74,
                "velocity": 64,
                "duration": 0.1295455,
                "tempo": 120.0
            },
            {
                "start_time": 34.8659091,
                "end_time": 35.0,
                "pitch": 77,
                "velocity": 64,
                "duration": 0.1340909,
                "tempo": 120.0
            },
            {
                "start_time": 35.275,
                "end_time": 35.4090909,
                "pitch": 81,
                "velocity": 64,
                "duration": 0.1340909,
                "tempo": 120.0
            }
        ],
        "Flute": [
            {
                "start_time": 4.1295455,
                "end_time": 4.4977273,
                "pitch": 63,
                "velocity": 40,
                "duration": 0.3681818,
                "tempo": 120.0
            },
            {
                "start_time": 4.4977273,
                "end_time": 4.9045455,
                "pitch": 65,
                "velocity": 40,
                "duration": 0.4068182,
                "tempo": 120.0
            },
            {
                "start_time": 4.9045455,
                "end_time": 4.9227273,
                "pitch": 67,
                "velocity": 40,
                "duration": 0.0181818,
                "tempo": 120.0
            },
            {
                "start_time": 4.9227273,
                "end_time": 4.9386364,
                "pitch": 67,
                "velocity": 40,
                "duration": 0.0159091,
                "tempo": 120.0
            },
            {
                "start_time": 4.9386364,
                "end_time": 5.3431818,
                "pitch": 67,
                "velocity": 40,
                "duration": 0.4045455,
                "tempo": 120.0
            },
            {
                "start_time": 5.3431818,
                "end_time": 5.8613636,
                "pitch": 59,
                "velocity": 40,
                "duration": 0.5181818,
                "tempo": 120.0
            },
            {
                "start_time": 5.8613636,
                "end_time": 6.3318182,
                "pitch": 57,
                "velocity": 40,
                "duration": 0.4704545,
                "tempo": 120.0
            },
            {
                "start_time": 6.3318182,
                "end_time": 6.3977273,
                "pitch": 55,
                "velocity": 40,
                "duration": 0.0659091,
                "tempo": 120.0
            },
            {
                "start_time": 6.3977273,
                "end_time": 6.5477273,
                "pitch": 55,
                "velocity": 40,
                "duration": 0.15,
                "tempo": 120.0
            },
            {
                "start_time": 6.5477273,
                "end_time": 6.9,
                "pitch": 53,
                "velocity": 40,
                "duration": 0.3522727,
                "tempo": 120.0
            },
            {
                "start_time": 6.9,
                "end_time": 7.2363636,
                "pitch": 51,
                "velocity": 40,
                "duration": 0.3363636,
                "tempo": 120.0
            },
            {
                "start_time": 7.2363636,
                "end_time": 7.6545455,
                "pitch": 49,
                "velocity": 40,
                "duration": 0.4181818,
                "tempo": 120.0
            },
            {
                "start_time": 7.6545455,
                "end_time": 7.7545455,
                "pitch": 51,
                "velocity": 40,
                "duration": 0.1,
                "tempo": 120.0
            },
            {
                "start_time": 4.1295455,
                "end_time": 7.7545455,
                "pitch": 60,
                "velocity": 40,
                "duration": 3.625,
                "tempo": 120.0
            },
            {
                "start_time": 7.7545455,
                "end_time": 7.9727273,
                "pitch": 54,
                "velocity": 40,
                "duration": 0.2181818,
                "tempo": 120.0
            },
            {
                "start_time": 5.3431818,
                "end_time": 8.225,
                "pitch": 56,
                "velocity": 40,
                "duration": 2.8818182,
                "tempo": 120.0
            },
            {
                "start_time": 7.9727273,
                "end_time": 8.225,
                "pitch": 56,
                "velocity": 40,
                "duration": 0.2522727,
                "tempo": 120.0
            },
            {
                "start_time": 8.225,
                "end_time": 8.4909091,
                "pitch": 58,
                "velocity": 40,
                "duration": 0.2659091,
                "tempo": 120.0
            },
            {
                "start_time": 7.7545455,
                "end_time": 8.8090909,
                "pitch": 60,
                "velocity": 40,
                "duration": 1.0545455,
                "tempo": 120.0
            },
            {
                "start_time": 8.4909091,
                "end_time": 8.8090909,
                "pitch": 60,
                "velocity": 40,
                "duration": 0.3181818,
                "tempo": 120.0
            },
            {
                "start_time": 8.8090909,
                "end_time": 8.9613636,
                "pitch": 62,
                "velocity": 40,
                "duration": 0.1522727,
                "tempo": 120.0
            },
            {
                "start_time": 20.2363636,
                "end_time": 20.6068182,
                "pitch": 63,
                "velocity": 40,
                "duration": 0.3704545,
                "tempo": 120.0
            },
            {
                "start_time": 5.3431818,
                "end_time": 21.0136364,
                "pitch": 65,
                "velocity": 40,
                "duration": 15.6704545,
                "tempo": 120.0
            },
            {
                "start_time": 20.6068182,
                "end_time": 21.0136364,
                "pitch": 65,
                "velocity": 40,
                "duration": 0.4068182,
                "tempo": 120.0
            },
            {
                "start_time": 4.9227273,
                "end_time": 21.0295455,
                "pitch": 0,
                "velocity": 40,
                "duration": 16.1068182,
                "tempo": 120.0
            },
            {
                "start_time": 6.3977273,
                "end_time": 21.0295455,
                "pitch": 67,
                "velocity": 40,
                "duration": 14.6318182,
                "tempo": 120.0
            },
            {
                "start_time": 21.0136364,
                "end_time": 21.0295455,
                "pitch": 67,
                "velocity": 40,
                "duration": 0.0159091,
                "tempo": 120.0
            },
            {
                "start_time": 21.0295455,
                "end_time": 21.0477273,
                "pitch": 67,
                "velocity": 40,
                "duration": 0.0181818,
                "tempo": 120.0
            },
            {
                "start_time": 4.9386364,
                "end_time": 21.0477273,
                "pitch": 79,
                "velocity": 40,
                "duration": 16.1090909,
                "tempo": 120.0
            },
            {
                "start_time": 21.0477273,
                "end_time": 21.4477273,
                "pitch": 67,
                "velocity": 40,
                "duration": 0.4,
                "tempo": 120.0
            },
            {
                "start_time": 21.4477273,
                "end_time": 21.9659091,
                "pitch": 59,
                "velocity": 40,
                "duration": 0.5181818,
                "tempo": 120.0
            },
            {
                "start_time": 21.9659091,
                "end_time": 22.4363636,
                "pitch": 57,
                "velocity": 40,
                "duration": 0.4704545,
                "tempo": 120.0
            },
            {
                "start_time": 6.5477273,
                "end_time": 22.5022727,
                "pitch": 55,
                "velocity": 40,
                "duration": 15.9545455,
                "tempo": 120.0
            },
            {
                "start_time": 22.4363636,
                "end_time": 22.5022727,
                "pitch": 55,
                "velocity": 40,
                "duration": 0.0659091,
                "tempo": 120.0
            },
            {
                "start_time": 22.5022727,
                "end_time": 22.6522727,
                "pitch": 55,
                "velocity": 40,
                "duration": 0.15,
                "tempo": 120.0
            },
            {
                "start_time": 6.5477273,
                "end_time": 22.6522727,
                "pitch": 66,
                "velocity": 40,
                "duration": 16.1045455,
                "tempo": 120.0
            },
            {
                "start_time": 22.6522727,
                "end_time": 23.0045455,
                "pitch": 53,
                "velocity": 40,
                "duration": 0.3522727,
                "tempo": 120.0
            },
            {
                "start_time": 23.0045455,
                "end_time": 23.3386364,
                "pitch": 51,
                "velocity": 40,
                "duration": 0.3340909,
                "tempo": 120.0
            },
            {
                "start_time": 23.3386364,
                "end_time": 23.7568182,
                "pitch": 49,
                "velocity": 40,
                "duration": 0.4181818,
                "tempo": 120.0
            },
            {
                "start_time": 23.7568182,
                "end_time": 23.8568182,
                "pitch": 51,
                "velocity": 40,
                "duration": 0.1,
                "tempo": 120.0
            },
            {
                "start_time": 20.2363636,
                "end_time": 23.8568182,
                "pitch": 60,
                "velocity": 40,
                "duration": 3.6204545,
                "tempo": 120.0
            },
            {
                "start_time": 23.8568182,
                "end_time": 24.075,
                "pitch": 54,
                "velocity": 40,
                "duration": 0.2181818,
                "tempo": 120.0
            },
            {
                "start_time": 21.4477273,
                "end_time": 24.325,
                "pitch": 56,
                "velocity": 40,
                "duration": 2.8772727,
                "tempo": 120.0
            },
            {
                "start_time": 24.075,
                "end_time": 24.325,
                "pitch": 56,
                "velocity": 40,
                "duration": 0.25,
                "tempo": 120.0
            },
            {
                "start_time": 24.325,
                "end_time": 24.5931818,
                "pitch": 58,
                "velocity": 40,
                "duration": 0.2681818,
                "tempo": 120.0
            },
            {
                "start_time": 23.8568182,
                "end_time": 24.9113636,
                "pitch": 60,
                "velocity": 40,
                "duration": 1.0545455,
                "tempo": 120.0
            },
            {
                "start_time": 24.5931818,
                "end_time": 24.9113636,
                "pitch": 60,
                "velocity": 40,
                "duration": 0.3181818,
                "tempo": 120.0
            },
            {
                "start_time": 24.9113636,
                "end_time": 25.0636364,
                "pitch": 62,
                "velocity": 40,
                "duration": 0.1522727,
                "tempo": 120.0
            },
            {
                "start_time": 36.3227273,
                "end_time": 36.6909091,
                "pitch": 63,
                "velocity": 40,
                "duration": 0.3681818,
                "tempo": 120.0
            },
            {
                "start_time": 21.4477273,
                "end_time": 37.0977273,
                "pitch": 65,
                "velocity": 40,
                "duration": 15.65,
                "tempo": 120.0
            },
            {
                "start_time": 36.6909091,
                "end_time": 37.0977273,
                "pitch": 65,
                "velocity": 40,
                "duration": 0.4068182,
                "tempo": 120.0
            },
            {
                "start_time": 21.0295455,
                "end_time": 37.1136364,
                "pitch": 0,
                "velocity": 40,
                "duration": 16.0840909,
                "tempo": 120.0
            },
            {
                "start_time": 22.5022727,
                "end_time": 37.1136364,
                "pitch": 67,
                "velocity": 40,
                "duration": 14.6113636,
                "tempo": 120.0
            },
            {
                "start_time": 37.0977273,
                "end_time": 37.1136364,
                "pitch": 67,
                "velocity": 40,
                "duration": 0.0159091,
                "tempo": 120.0
            },
            {
                "start_time": 37.1136364,
                "end_time": 37.1318182,
                "pitch": 67,
                "velocity": 40,
                "duration": 0.0181818,
                "tempo": 120.0
            },
            {
                "start_time": 21.0477273,
                "end_time": 37.1318182,
                "pitch": 79,
                "velocity": 40,
                "duration": 16.0840909,
                "tempo": 120.0
            },
            {
                "start_time": 37.1318182,
                "end_time": 37.5318182,
                "pitch": 67,
                "velocity": 40,
                "duration": 0.4,
                "tempo": 120.0
            },
            {
                "start_time": 37.5318182,
                "end_time": 37.6636364,
                "pitch": 59,
                "velocity": 40,
                "duration": 0.1318182,
                "tempo": 120.0
            }
        ],
        "Electric Piano 1": [
            {
                "start_time": 0.2681818,
                "end_time": 0.3636364,
                "pitch": 66,
                "velocity": 51,
                "duration": 0.0954545,
                "tempo": 120.0
            },
            {
                "start_time": 0.6636364,
                "end_time": 0.7636364,
                "pitch": 64,
                "velocity": 51,
                "duration": 0.1,
                "tempo": 120.0
            },
            {
                "start_time": 1.0659091,
                "end_time": 1.1636364,
                "pitch": 66,
                "velocity": 51,
                "duration": 0.0977273,
                "tempo": 120.0
            },
            {
                "start_time": 1.4659091,
                "end_time": 1.5636364,
                "pitch": 64,
                "velocity": 51,
                "duration": 0.0977273,
                "tempo": 120.0
            },
            {
                "start_time": 1.8659091,
                "end_time": 1.9659091,
                "pitch": 66,
                "velocity": 51,
                "duration": 0.1,
                "tempo": 120.0
            },
            {
                "start_time": 2.2704545,
                "end_time": 2.3681818,
                "pitch": 64,
                "velocity": 51,
                "duration": 0.0977273,
                "tempo": 120.0
            },
            {
                "start_time": 2.6704545,
                "end_time": 2.7704545,
                "pitch": 66,
                "velocity": 51,
                "duration": 0.1,
                "tempo": 120.0
            },
            {
                "start_time": 3.0818182,
                "end_time": 3.1795455,
                "pitch": 64,
                "velocity": 51,
                "duration": 0.0977273,
                "tempo": 120.0
            },
            {
                "start_time": 3.4818182,
                "end_time": 3.5818182,
                "pitch": 66,
                "velocity": 51,
                "duration": 0.1,
                "tempo": 120.0
            },
            {
                "start_time": 3.8840909,
                "end_time": 3.9818182,
                "pitch": 64,
                "velocity": 51,
                "duration": 0.0977273,
                "tempo": 120.0
            },
            {
                "start_time": 4.2772727,
                "end_time": 4.3795455,
                "pitch": 66,
                "velocity": 51,
                "duration": 0.1022727,
                "tempo": 120.0
            },
            {
                "start_time": 4.6886364,
                "end_time": 4.7886364,
                "pitch": 64,
                "velocity": 51,
                "duration": 0.1,
                "tempo": 120.0
            },
            {
                "start_time": 5.0931818,
                "end_time": 5.1909091,
                "pitch": 66,
                "velocity": 51,
                "duration": 0.0977273,
                "tempo": 120.0
            },
            {
                "start_time": 5.4954545,
                "end_time": 5.5931818,
                "pitch": 64,
                "velocity": 51,
                "duration": 0.0977273,
                "tempo": 120.0
            },
            {
                "start_time": 5.8954545,
                "end_time": 5.9954545,
                "pitch": 66,
                "velocity": 51,
                "duration": 0.1,
                "tempo": 120.0
            },
            {
                "start_time": 6.2977273,
                "end_time": 6.3977273,
                "pitch": 64,
                "velocity": 51,
                "duration": 0.1,
                "tempo": 120.0
            },
            {
                "start_time": 6.7,
                "end_time": 6.7977273,
                "pitch": 66,
                "velocity": 51,
                "duration": 0.0977273,
                "tempo": 120.0
            },
            {
                "start_time": 7.1022727,
                "end_time": 7.2022727,
                "pitch": 64,
                "velocity": 51,
                "duration": 0.1,
                "tempo": 120.0
            },
            {
                "start_time": 7.5068182,
                "end_time": 7.6045455,
                "pitch": 66,
                "velocity": 51,
                "duration": 0.0977273,
                "tempo": 120.0
            },
            {
                "start_time": 7.9068182,
                "end_time": 8.0068182,
                "pitch": 64,
                "velocity": 51,
                "duration": 0.1,
                "tempo": 120.0
            },
            {
                "start_time": 8.3090909,
                "end_time": 8.4090909,
                "pitch": 66,
                "velocity": 51,
                "duration": 0.1,
                "tempo": 120.0
            },
            {
                "start_time": 8.7090909,
                "end_time": 8.8090909,
                "pitch": 64,
                "velocity": 51,
                "duration": 0.1,
                "tempo": 120.0
            },
            {
                "start_time": 9.1136364,
                "end_time": 9.2136364,
                "pitch": 66,
                "velocity": 51,
                "duration": 0.1,
                "tempo": 120.0
            },
            {
                "start_time": 9.5159091,
                "end_time": 9.6159091,
                "pitch": 64,
                "velocity": 51,
                "duration": 0.1,
                "tempo": 120.0
            },
            {
                "start_time": 9.9204545,
                "end_time": 10.0181818,
                "pitch": 66,
                "velocity": 51,
                "duration": 0.0977273,
                "tempo": 120.0
            },
            {
                "start_time": 10.3204545,
                "end_time": 10.4204545,
                "pitch": 64,
                "velocity": 51,
                "duration": 0.1,
                "tempo": 120.0
            },
            {
                "start_time": 10.7227273,
                "end_time": 10.8227273,
                "pitch": 66,
                "velocity": 51,
                "duration": 0.1,
                "tempo": 120.0
            },
            {
                "start_time": 11.125,
                "end_time": 11.225,
                "pitch": 64,
                "velocity": 51,
                "duration": 0.1,
                "tempo": 120.0
            },
            {
                "start_time": 11.5295455,
                "end_time": 11.6318182,
                "pitch": 66,
                "velocity": 51,
                "duration": 0.1022727,
                "tempo": 120.0
            },
            {
                "start_time": 11.9409091,
                "end_time": 12.0386364,
                "pitch": 64,
                "velocity": 51,
                "duration": 0.0977273,
                "tempo": 120.0
            },
            {
                "start_time": 12.3340909,
                "end_time": 12.4340909,
                "pitch": 66,
                "velocity": 51,
                "duration": 0.1,
                "tempo": 120.0
            },
            {
                "start_time": 12.7431818,
                "end_time": 12.8454545,
                "pitch": 64,
                "velocity": 51,
                "duration": 0.1022727,
                "tempo": 120.0
            },
            {
                "start_time": 13.1477273,
                "end_time": 13.2477273,
                "pitch": 66,
                "velocity": 51,
                "duration": 0.1,
                "tempo": 120.0
            },
            {
                "start_time": 13.55,
                "end_time": 13.6477273,
                "pitch": 64,
                "velocity": 51,
                "duration": 0.0977273,
                "tempo": 120.0
            },
            {
                "start_time": 13.9431818,
                "end_time": 14.0454545,
                "pitch": 66,
                "velocity": 51,
                "duration": 0.1022727,
                "tempo": 120.0
            },
            {
                "start_time": 14.3545455,
                "end_time": 14.4545455,
                "pitch": 64,
                "velocity": 51,
                "duration": 0.1,
                "tempo": 120.0
            },
            {
                "start_time": 14.7568182,
                "end_time": 14.8545455,
                "pitch": 66,
                "velocity": 51,
                "duration": 0.0977273,
                "tempo": 120.0
            },
            {
                "start_time": 15.1590909,
                "end_time": 15.2590909,
                "pitch": 64,
                "velocity": 51,
                "duration": 0.1,
                "tempo": 120.0
            },
            {
                "start_time": 15.5613636,
                "end_time": 15.6613636,
                "pitch": 66,
                "velocity": 51,
                "duration": 0.1,
                "tempo": 120.0
            },
            {
                "start_time": 15.9636364,
                "end_time": 16.0659091,
                "pitch": 64,
                "velocity": 51,
                "duration": 0.1022727,
                "tempo": 120.0
            },
            {
                "start_time": 16.3704545,
                "end_time": 16.4681818,
                "pitch": 66,
                "velocity": 51,
                "duration": 0.0977273,
                "tempo": 120.0
            },
            {
                "start_time": 16.7727273,
                "end_time": 16.8704545,
                "pitch": 64,
                "velocity": 51,
                "duration": 0.0977273,
                "tempo": 120.0
            },
            {
                "start_time": 17.1727273,
                "end_time": 17.2704545,
                "pitch": 66,
                "velocity": 51,
                "duration": 0.0977273,
                "tempo": 120.0
            },
            {
                "start_time": 17.5727273,
                "end_time": 17.6727273,
                "pitch": 64,
                "velocity": 51,
                "duration": 0.1,
                "tempo": 120.0
            },
            {
                "start_time": 17.9772727,
                "end_time": 18.075,
                "pitch": 66,
                "velocity": 51,
                "duration": 0.0977273,
                "tempo": 120.0
            },
            {
                "start_time": 18.3772727,
                "end_time": 18.4772727,
                "pitch": 64,
                "velocity": 51,
                "duration": 0.1,
                "tempo": 120.0
            },
            {
                "start_time": 18.7818182,
                "end_time": 18.8818182,
                "pitch": 66,
                "velocity": 51,
                "duration": 0.1,
                "tempo": 120.0
            },
            {
                "start_time": 19.1909091,
                "end_time": 19.2909091,
                "pitch": 64,
                "velocity": 51,
                "duration": 0.1,
                "tempo": 120.0
            },
            {
                "start_time": 19.5931818,
                "end_time": 19.6909091,
                "pitch": 66,
                "velocity": 51,
                "duration": 0.0977273,
                "tempo": 120.0
            },
            {
                "start_time": 19.9931818,
                "end_time": 20.0886364,
                "pitch": 64,
                "velocity": 51,
                "duration": 0.0954545,
                "tempo": 120.0
            },
            {
                "start_time": 20.3840909,
                "end_time": 20.4863636,
                "pitch": 66,
                "velocity": 51,
                "duration": 0.1022727,
                "tempo": 120.0
            },
            {
                "start_time": 20.7954545,
                "end_time": 20.8954545,
                "pitch": 64,
                "velocity": 51,
                "duration": 0.1,
                "tempo": 120.0
            },
            {
                "start_time": 21.2,
                "end_time": 21.2977273,
                "pitch": 66,
                "velocity": 51,
                "duration": 0.0977273,
                "tempo": 120.0
            },
            {
                "start_time": 21.6,
                "end_time": 21.6977273,
                "pitch": 64,
                "velocity": 51,
                "duration": 0.0977273,
                "tempo": 120.0
            },
            {
                "start_time": 22.0,
                "end_time": 22.1,
                "pitch": 66,
                "velocity": 51,
                "duration": 0.1,
                "tempo": 120.0
            },
            {
                "start_time": 22.4022727,
                "end_time": 22.5022727,
                "pitch": 64,
                "velocity": 51,
                "duration": 0.1,
                "tempo": 120.0
            },
            {
                "start_time": 22.8045455,
                "end_time": 22.9045455,
                "pitch": 66,
                "velocity": 51,
                "duration": 0.1,
                "tempo": 120.0
            },
            {
                "start_time": 23.2068182,
                "end_time": 23.3068182,
                "pitch": 64,
                "velocity": 51,
                "duration": 0.1,
                "tempo": 120.0
            },
            {
                "start_time": 23.6090909,
                "end_time": 23.7068182,
                "pitch": 66,
                "velocity": 51,
                "duration": 0.0977273,
                "tempo": 120.0
            },
            {
                "start_time": 24.0090909,
                "end_time": 24.1090909,
                "pitch": 64,
                "velocity": 51,
                "duration": 0.1,
                "tempo": 120.0
            },
            {
                "start_time": 24.4113636,
                "end_time": 24.5113636,
                "pitch": 66,
                "velocity": 51,
                "duration": 0.1,
                "tempo": 120.0
            },
            {
                "start_time": 24.8113636,
                "end_time": 24.9113636,
                "pitch": 64,
                "velocity": 51,
                "duration": 0.1,
                "tempo": 120.0
            },
            {
                "start_time": 25.2159091,
                "end_time": 25.3136364,
                "pitch": 66,
                "velocity": 51,
                "duration": 0.0977273,
                "tempo": 120.0
            },
            {
                "start_time": 25.6159091,
                "end_time": 25.7136364,
                "pitch": 64,
                "velocity": 51,
                "duration": 0.0977273,
                "tempo": 120.0
            },
            {
                "start_time": 26.0181818,
                "end_time": 26.1159091,
                "pitch": 66,
                "velocity": 51,
                "duration": 0.0977273,
                "tempo": 120.0
            },
            {
                "start_time": 26.4181818,
                "end_time": 26.5181818,
                "pitch": 64,
                "velocity": 51,
                "duration": 0.1,
                "tempo": 120.0
            },
            {
                "start_time": 26.8204545,
                "end_time": 26.9204545,
                "pitch": 66,
                "velocity": 51,
                "duration": 0.1,
                "tempo": 120.0
            },
            {
                "start_time": 27.2227273,
                "end_time": 27.3227273,
                "pitch": 64,
                "velocity": 51,
                "duration": 0.1,
                "tempo": 120.0
            },
            {
                "start_time": 27.625,
                "end_time": 27.725,
                "pitch": 66,
                "velocity": 51,
                "duration": 0.1,
                "tempo": 120.0
            },
            {
                "start_time": 28.0340909,
                "end_time": 28.1318182,
                "pitch": 64,
                "velocity": 51,
                "duration": 0.0977273,
                "tempo": 120.0
            },
            {
                "start_time": 28.4272727,
                "end_time": 28.5295455,
                "pitch": 66,
                "velocity": 51,
                "duration": 0.1022727,
                "tempo": 120.0
            },
            {
                "start_time": 28.8386364,
                "end_time": 28.9386364,
                "pitch": 64,
                "velocity": 51,
                "duration": 0.1,
                "tempo": 120.0
            },
            {
                "start_time": 29.2409091,
                "end_time": 29.3386364,
                "pitch": 66,
                "velocity": 51,
                "duration": 0.0977273,
                "tempo": 120.0
            },
            {
                "start_time": 29.6409091,
                "end_time": 29.7386364,
                "pitch": 64,
                "velocity": 51,
                "duration": 0.0977273,
                "tempo": 120.0
            },
            {
                "start_time": 30.0363636,
                "end_time": 30.1363636,
                "pitch": 66,
                "velocity": 51,
                "duration": 0.1,
                "tempo": 120.0
            },
            {
                "start_time": 30.4454545,
                "end_time": 30.5454545,
                "pitch": 64,
                "velocity": 51,
                "duration": 0.1,
                "tempo": 120.0
            },
            {
                "start_time": 30.85,
                "end_time": 30.9477273,
                "pitch": 66,
                "velocity": 51,
                "duration": 0.0977273,
                "tempo": 120.0
            },
            {
                "start_time": 31.25,
                "end_time": 31.35,
                "pitch": 64,
                "velocity": 51,
                "duration": 0.1,
                "tempo": 120.0
            },
            {
                "start_time": 31.6545455,
                "end_time": 31.7522727,
                "pitch": 66,
                "velocity": 51,
                "duration": 0.0977273,
                "tempo": 120.0
            },
            {
                "start_time": 32.0522727,
                "end_time": 32.1522727,
                "pitch": 64,
                "velocity": 51,
                "duration": 0.1,
                "tempo": 120.0
            },
            {
                "start_time": 32.4568182,
                "end_time": 32.5522727,
                "pitch": 66,
                "velocity": 51,
                "duration": 0.0954545,
                "tempo": 120.0
            },
            {
                "start_time": 32.8545455,
                "end_time": 32.9545455,
                "pitch": 64,
                "velocity": 51,
                "duration": 0.1,
                "tempo": 120.0
            },
            {
                "start_time": 33.2590909,
                "end_time": 33.3590909,
                "pitch": 66,
                "velocity": 51,
                "duration": 0.1,
                "tempo": 120.0
            },
            {
                "start_time": 33.6704545,
                "end_time": 33.7659091,
                "pitch": 64,
                "velocity": 51,
                "duration": 0.0954545,
                "tempo": 120.0
            },
            {
                "start_time": 34.0636364,
                "end_time": 34.1636364,
                "pitch": 66,
                "velocity": 51,
                "duration": 0.1,
                "tempo": 120.0
            },
            {
                "start_time": 34.4727273,
                "end_time": 34.5704545,
                "pitch": 64,
                "velocity": 51,
                "duration": 0.0977273,
                "tempo": 120.0
            },
            {
                "start_time": 34.8659091,
                "end_time": 34.9681818,
                "pitch": 66,
                "velocity": 51,
                "duration": 0.1022727,
                "tempo": 120.0
            },
            {
                "start_time": 35.2772727,
                "end_time": 35.3772727,
                "pitch": 64,
                "velocity": 51,
                "duration": 0.1,
                "tempo": 120.0
            },
            {
                "start_time": 35.6795455,
                "end_time": 35.7772727,
                "pitch": 66,
                "velocity": 51,
                "duration": 0.0977273,
                "tempo": 120.0
            },
            {
                "start_time": 36.0772727,
                "end_time": 36.175,
                "pitch": 64,
                "velocity": 51,
                "duration": 0.0977273,
                "tempo": 120.0
            },
            {
                "start_time": 36.4704545,
                "end_time": 36.5727273,
                "pitch": 66,
                "velocity": 51,
                "duration": 0.1022727,
                "tempo": 120.0
            },
            {
                "start_time": 36.8818182,
                "end_time": 36.9818182,
                "pitch": 64,
                "velocity": 51,
                "duration": 0.1,
                "tempo": 120.0
            },
            {
                "start_time": 37.2840909,
                "end_time": 37.3818182,
                "pitch": 66,
                "velocity": 51,
                "duration": 0.0977273,
                "tempo": 120.0
            }
        ]
    }
}