{
    "mood": "sad",
    "instruments": {
        "Clarinet": [
            {
                "start_time": 0.0,
                "end_time": 0.1295455,
                "pitch": 67,
                "velocity": 101,
                "duration": 0.1295455,
                "tempo": 120.0
            },
            {
                "start_time": 0.1295455,
                "end_time": 0.2590909,
                "pitch": 79,
                "velocity": 101,
                "duration": 0.1295455,
                "tempo": 120.0
            },
            {
                "start_time": 0.2613636,
                "end_time": 0.375,
                "pitch": 69,
                "velocity": 101,
                "duration": 0.1136364,
                "tempo": 120.0
            },
            {
                "start_time": 0.375,
                "end_time": 0.5113636,
                "pitch": 84,
                "velocity": 101,
                "duration": 0.1363636,
                "tempo": 120.0
            },
            {
                "start_time": 0.5113636,
                "end_time": 0.6318182,
                "pitch": 79,
                "velocity": 101,
                "duration": 0.1204545,
                "tempo": 120.0
            },
            {
                "start_time": 0.6318182,
                "end_time": 0.7704545,
                "pitch": 67,
                "velocity": 101,
                "duration": 0.1386364,
                "tempo": 120.0
            },
            {
                "start_time": 0.7704545,
                "end_time": 0.8863636,
                "pitch": 81,
                "velocity": 101,
                "duration": 0.1159091,
                "tempo": 120.0
            },
            {
                "start_time": 0.8863636,
                "end_time": 1.0204545,
                "pitch": 72,
                "velocity": 101,
                "duration": 0.1340909,
                "tempo": 120.0
            },
            {
                "start_time": 1.0204545,
                "end_time": 1.0227273,
                "pitch": 72,
                "velocity": 101,
                "duration": 0.0022727,
                "tempo": 120.0
            },
            {
                "start_time": 1.0227273,
                "end_time": 1.1386364,
                "pitch": 67,
                "velocity": 101,
                "duration": 0.1159091,
                "tempo": 120.0
            },
            {
                "start_time": 1.1386364,
                "end_time": 1.2681818,
                "pitch": 79,
                "velocity": 101,
                "duration": 0.1295455,
                "tempo": 120.0
            },
            {
                "start_time": 1.2681818,
                "end_time": 1.3840909,
                "pitch": 69,
                "velocity": 101,
                "duration": 0.1159091,
                "tempo": 120.0
            },
            {
                "start_time": 0.375,
                "end_time": 1.3840909,
                "pitch": 82,
                "velocity": 101,
                "duration": 1.0090909,
                "tempo": 120.0
            },
            {
                "start_time": 0.5113636,
                "end_time": 1.5136364,
                "pitch": 84,
                "velocity": 101,
                "duration": 1.0022727,
                "tempo": 120.0
            },
            {
                "start_time": 1.3840909,
                "end_time": 1.5136364,
                "pitch": 84,
                "velocity": 101,
                "duration": 0.1295455,
                "tempo": 120.0
            },
            {
                "start_time": 1.5136364,
                "end_time": 1.6318182,
                "pitch": 79,
                "velocity": 101,
                "duration": 0.1181818,
                "tempo": 120.0
            },
            {
                "start_time": 1.6318182,
                "end_time": 1.7704545,
                "pitch": 67,
                "velocity": 101,
                "duration": 0.1386364,
                "tempo": 120.0
            },
            {
                "start_time": 0.8863636,
                "end_time": 1.8909091,
                "pitch": 70,
                "velocity": 101,
                "duration": 1.0045455,
                "tempo": 120.0
            },
            {
                "start_time": 1.7704545,
                "end_time": 1.8909091,
                "pitch": 81,
                "velocity": 101,
                "duration": 0.1204545,
                "tempo": 120.0
            },
            {
                "start_time": 1.8909091,
                "end_time": 2.0181818,
                "pitch": 72,
                "velocity": 101,
                "duration": 0.1272727,
                "tempo": 120.0
            },
            {
                "start_time": 2.0181818,
                "end_time": 2.1295455,
                "pitch": 67,
                "velocity": 101,
                "duration": 0.1113636,
                "tempo": 120.0
            },
            {
                "start_time": 2.1295455,
                "end_time": 2.2568182,
                "pitch": 79,
                "velocity": 101,
                "duration": 0.1272727,
                "tempo": 120.0
            },
            {
                "start_time": 2.2568182,
                "end_time": 2.3931818,
                "pitch": 69,
                "velocity": 101,
                "duration": 0.1363636,
                "tempo": 120.0
            },
            {
                "start_time": 1.3840909,
                "end_time": 2.3931818,
                "pitch": 82,
                "velocity": 101,
                "duration": 1.0090909,
                "tempo": 120.0
            },
            {
                "start_time": 1.5136364,
                "end_time": 2.5136364,
                "pitch": 84,
                "velocity": 101,
                "duration": 1.0,
                "tempo": 120.0
            },
            {
                "start_time": 2.3931818,
                "end_time": 2.5136364,
                "pitch": 84,
                "velocity": 101,
                "duration": 0.1204545,
                "tempo": 120.0
            },
            {
                "start_time": 2.5136364,
                "end_time": 2.6522727,
                "pitch": 79,
                "velocity": 101,
                "duration": 0.1386364,
                "tempo": 120.0
            },
            {
                "start_time": 2.6522727,
                "end_time": 2.7704545,
                "pitch": 67,
                "velocity": 101,
                "duration": 0.1181818,
                "tempo": 120.0
            },
            {
                "start_time": 1.8909091,
                "end_time": 2.9045455,
                "pitch": 70,
                "velocity": 101,
                "duration": 1.0136364,
                "tempo": 120.0
            },
            {
                "start_time": 2.7704545,
                "end_time": 2.9045455,
                "pitch": 81,
                "velocity": 101,
                "duration": 0.1340909,
                "tempo": 120.0
            },
            {
                "start_time": 2.0181818,
                "end_time": 3.0204545,
                "pitch": 72,
                "velocity": 101,
                "duration": 1.0022727,
                "tempo": 120.0
            },
            {
                "start_time": 2.9045455,
                "end_time": 3.0204545,
                "pitch": 72,
                "velocity": 101,
                "duration": 0.1159091,
                "tempo": 120.0
            },
            {
                "start_time": 3.0204545,
                "end_time": 3.1522727,
                "pitch": 67,
                "velocity": 101,
                "duration": 0.1318182,
                "tempo": 120.0
            },
            {
                "start_time": 3.1522727,
                "end_time": 3.2659091,
                "pitch": 79,
                "velocity": 101,
                "duration": 0.1136364,
                "tempo": 120.0
            },
            {
                "start_time": 3.2659091,
                "end_time": 3.3954545,
                "pitch": 69,
                "velocity": 101,
                "duration": 0.1295455,
                "tempo": 120.0
            },
            {
                "start_time": 2.3931818,
                "end_time": 3.3954545,
                "pitch": 82,
                "velocity": 101,
                "duration": 1.0022727,
                "tempo": 120.0
            },
            {
                "start_time": 2.5136364,
                "end_time": 3.5090909,
                "pitch": 84,
                "velocity": 101,
                "duration": 0.9954545,
                "tempo": 120.0
            },
            {
                "start_time": 3.3954545,
                "end_time": 3.5090909,
                "pitch": 84,
                "velocity": 101,
                "duration": 0.1136364,
                "tempo": 120.0
            },
            {
                "start_time": 3.5090909,
                "end_time": 3.6386364,
                "pitch": 79,
                "velocity": 101,
                "duration": 0.1295455,
                "tempo": 120.0
            },
            {
                "start_time": 3.6386364,
                "end_time": 3.7545455,
                "pitch": 67,
                "velocity": 101,
                "duration": 0.1159091,
                "tempo": 120.0
            },
            {
                "start_time": 2.9045455,
                "end_time": 3.8840909,
                "pitch": 70,
                "velocity": 101,
                "duration": 0.9795455,
                "tempo": 120.0
            },
            {
                "start_time": 3.7545455,
                "end_time": 3.8840909,
                "pitch": 81,
                "velocity": 101,
                "duration": 0.1295455,
                "tempo": 120.0
            },
            {
                "start_time": 3.0204545,
                "end_time": 3.9977273,
                "pitch": 72,
                "velocity": 101,
                "duration": 0.9772727,
                "tempo": 120.0
            },
            {
                "start_time": 3.8840909,
                "end_time": 3.9977273,
                "pitch": 72,
                "velocity": 101,
                "duration": 0.1136364,
                "tempo": 120.0
            },
            {
                "start_time": 3.9977273,
                "end_time": 4.1272727,
                "pitch": 67,
                "velocity": 101,
                "duration": 0.1295455,
                "tempo": 120.0
            },
            {
                "start_time": 4.1272727,
                "end_time": 4.2477273,
                "pitch": 79,
                "velocity": 101,
                "duration": 0.1204545,
                "tempo": 120.0
            },
            {
                "start_time": 4.2477273,
                "end_time": 4.2636364,
                "pitch": 69,
                "velocity": 101,
                "duration": 0.0159091,
                "tempo": 120.0
            }
        ]
    }
}