{
    "mood": "sad",
    "instruments": {
        "Flute": [
            {
                "start_time": 0.2318182,
                "end_time": 1.6386364,
                "pitch": 77,
                "velocity": 51,
                "duration": 1.4068182,
                "tempo": 120.0
            },
            {
                "start_time": 1.6409091,
                "end_time": 2.5795455,
                "pitch": 76,
                "velocity": 51,
                "duration": 0.9386364,
                "tempo": 120.0
            },
            {
                "start_time": 2.5795455,
                "end_time": 3.0477273,
                "pitch": 79,
                "velocity": 51,
                "duration": 0.4681818,
                "tempo": 120.0
            },
            {
                "start_time": 3.0477273,
                "end_time": 3.5068182,
                "pitch": 77,
                "velocity": 51,
                "duration": 0.4590909,
                "tempo": 120.0
            },
            {
                "start_time": 3.5068182,
                "end_time": 3.9772727,
                "pitch": 74,
                "velocity": 51,
                "duration": 0.4704545,
                "tempo": 120.0
            },
            {
                "start_time": 3.9772727,
                "end_time": 4.4454545,
                "pitch": 76,
                "velocity": 51,
                "duration": 0.4681818,
                "tempo": 120.0
            },
            {
                "start_time": 4.4477273,
                "end_time": 4.6818182,
                "pitch": 79,
                "velocity": 51,
                "duration": 0.2340909,
                "tempo": 120.0
            },
            {
                "start_time": 4.6818182,
                "end_time": 4.9159091,
                "pitch": 81,
                "velocity": 51,
                "duration": 0.2340909,
                "tempo": 120.0
            },
            {
                "start_time": 4.9159091,
                "end_time": 5.15,
                "pitch": 79,
                "velocity": 51,
                "duration": 0.2340909,
                "tempo": 120.0
            },
            {
                "start_time": 5.15,
                "end_time": 5.3863636,
                "pitch": 77,
                "velocity": 51,
                "duration": 0.2363636,
                "tempo": 120.0
            },
            {
                "start_time": 5.3863636,
                "end_time": 5.8545455,
                "pitch": 76,
                "velocity": 51,
                "duration": 0.4681818,
                "tempo": 120.0
            },
            {
                "start_time": 5.8545455,
                "end_time": 6.325,
                "pitch": 74,
                "velocity": 51,
                "duration": 0.4704545,
                "tempo": 120.0
            },
            {
                "start_time": 6.325,
                "end_time": 6.7840909,
                "pitch": 77,
                "velocity": 51,
                "duration": 0.4590909,
                "tempo": 120.0
            },
            {
                "start_time": 6.7840909,
                "end_time": 7.2431818,
                "pitch": 81,
                "velocity": 51,
                "duration": 0.4590909,
                "tempo": 120.0
            },
            {
                "start_time": 7.2431818,
                "end_time": 7.4772727,
                "pitch": 82,
                "velocity": 51,
                "duration": 0.2340909,
                "tempo": 120.0
            },
            {
                "start_time": 7.4772727,
                "end_time": 7.7113636,
                "pitch": 81,
                "velocity": 51,
                "duration": 0.2340909,
                "tempo": 120.0
            },
            {
                "start_time": 7.7113636,
                "end_time": 7.9477273,
                "pitch": 79,
                "velocity": 51,
                "duration": 0.2363636,
                "tempo": 120.0
            },
            {
                "start_time": 7.9477273,
                "end_time": 8.1818182,
                "pitch": 81,
                "velocity": 51,
                "duration": 0.2340909,
                "tempo": 120.0
            },
            {
                "start_time": 8.1818182,
                "end_time": 8.4159091,
                "pitch": 79,
                "velocity": 51,
                "duration": 0.2340909,
                "tempo": 120.0
            },
            {
                "start_time": 8.4159091,
                "end_time": 8.6522727,
                "pitch": 76,
                "velocity": 51,
                "duration": 0.2363636,
                "tempo": 120.0
            },
            {
                "start_time": 8.6522727,
                "end_time": 9.1113636,
                "pitch": 84,
                "velocity": 51,
                "duration": 0.4590909,
                "tempo": 120.0
            },
            {
                "start_time": 9.1113636,
                "end_time": 9.5795455,
                "pitch": 82,
                "velocity": 51,
                "duration": 0.4681818,
                "tempo": 120.0
            },
            {
                "start_time": 9.5795455,
                "end_time": 10.05,
                "pitch": 81,
                "velocity": 51,
                "duration": 0.4704545,
                "tempo": 120.0
            },
            {
                "start_time": 10.05,
                "end_time": 10.2840909,
                "pitch": 79,
                "velocity": 51,
                "duration": 0.2340909,
                "tempo": 120.0
            },
            {
                "start_time": 10.2840909,
                "end_time": 10.5181818,
                "pitch": 77,
                "velocity": 51,
                "duration": 0.2340909,
                "tempo": 120.0
            },
            {
                "start_time": 10.5204545,
                "end_time": 10.7477273,
                "pitch": 79,
                "velocity": 51,
                "duration": 0.2272727,
                "tempo": 120.0
            },
            {
                "start_time": 10.75,
                "end_time": 10.9772727,
                "pitch": 81,
                "velocity": 51,
                "duration": 0.2272727,
                "tempo": 120.0
            },
            {
                "start_time": 10.9772727,
                "end_time": 11.2136364,
                "pitch": 82,
                "velocity": 51,
                "duration": 0.2363636,
                "tempo": 120.0
            },
            {
                "start_time": 11.2136364,
                "end_time": 11.4477273,
                "pitch": 84,
                "velocity": 51,
                "duration": 0.2340909,
                "tempo": 120.0
            },
            {
                "start_time": 11.4477273,
                "end_time": 11.9181818,
                "pitch": 77,
                "velocity": 51,
                "duration": 0.4704545,
                "tempo": 120.0
            },
            {
                "start_time": 11.9181818,
                "end_time": 12.375,
                "pitch": 74,
                "velocity": 51,
                "duration": 0.4568182,
                "tempo": 120.0
            },
            {
                "start_time": 12.3772727,
                "end_time": 12.6113636,
                "pitch": 77,
                "velocity": 51,
                "duration": 0.2340909,
                "tempo": 120.0
            },
            {
                "start_time": 12.6113636,
                "end_time": 12.8454545,
                "pitch": 81,
                "velocity": 51,
                "duration": 0.2340909,
                "tempo": 120.0
            },
            {
                "start_time": 12.8454545,
                "end_time": 14.2431818,
                "pitch": 76,
                "velocity": 51,
                "duration": 1.3977273,
                "tempo": 120.0
            },
            {
                "start_time": 14.2431818,
                "end_time": 14.7136364,
                "pitch": 84,
                "velocity": 51,
                "duration": 0.4704545,
                "tempo": 120.0
            },
            {
                "start_time": 14.7136364,
                "end_time": 15.1818182,
                "pitch": 82,
                "velocity": 51,
                "duration": 0.4681818,
                "tempo": 120.0
            },
            {
                "start_time": 15.1840909,
                "end_time": 15.6409091,
                "pitch": 81,
                "velocity": 51,
                "duration": 0.4568182,
                "tempo": 120.0
            },
            {
                "start_time": 15.6409091,
                "end_time": 15.875,
                "pitch": 86,
                "velocity": 51,
                "duration": 0.2340909,
                "tempo": 120.0
            },
            {
                "start_time": 15.8772727,
                "end_time": 16.1113636,
                "pitch": 84,
                "velocity": 51,
                "duration": 0.2340909,
                "tempo": 120.0
            },
            {
                "start_time": 16.1113636,
                "end_time": 16.3454545,
                "pitch": 86,
                "velocity": 51,
                "duration": 0.2340909,
                "tempo": 120.0
            },
            {
                "start_time": 16.3454545,
                "end_time": 16.5795455,
                "pitch": 88,
                "velocity": 51,
                "duration": 0.2340909,
                "tempo": 120.0
            },
            {
                "start_time": 16.5818182,
                "end_time": 16.8159091,
                "pitch": 86,
                "velocity": 51,
                "duration": 0.2340909,
                "tempo": 120.0
            },
            {
                "start_time": 16.8159091,
                "end_time": 17.05,
                "pitch": 88,
                "velocity": 51,
                "duration": 0.2340909,
                "tempo": 120.0
            },
            {
                "start_time": 17.05,
                "end_time": 17.2795455,
                "pitch": 81,
                "velocity": 51,
                "duration": 0.2295455,
                "tempo": 120.0
            },
            {
                "start_time": 17.2795455,
                "end_time": 17.5090909,
                "pitch": 79,
                "velocity": 51,
                "duration": 0.2295455,
                "tempo": 120.0
            },
            {
                "start_time": 17.5090909,
                "end_time": 17.7431818,
                "pitch": 81,
                "velocity": 51,
                "duration": 0.2340909,
                "tempo": 120.0
            },
            {
                "start_time": 17.7431818,
                "end_time": 18.4477273,
                "pitch": 74,
                "velocity": 51,
                "duration": 0.7045455,
                "tempo": 120.0
            },
            {
                "start_time": 18.4477273,
                "end_time": 18.6772727,
                "pitch": 81,
                "velocity": 51,
                "duration": 0.2295455,
                "tempo": 120.0
            },
            {
                "start_time": 18.6772727,
                "end_time": 18.9068182,
                "pitch": 79,
                "velocity": 51,
                "duration": 0.2295455,
                "tempo": 120.0
            },
            {
                "start_time": 18.9068182,
                "end_time": 19.1409091,
                "pitch": 81,
                "velocity": 51,
                "duration": 0.2340909,
                "tempo": 120.0
            },
            {
                "start_time": 19.1409091,
                "end_time": 19.3772727,
                "pitch": 82,
                "velocity": 51,
                "duration": 0.2363636,
                "tempo": 120.0
            },
            {
                "start_time": 19.3772727,
                "end_time": 19.8454545,
                "pitch": 76,
                "velocity": 51,
                "duration": 0.4681818,
                "tempo": 120.0
            },
            {
                "start_time": 19.8477273,
                "end_time": 21.2454545,
                "pitch": 77,
                "velocity": 51,
                "duration": 1.3977273,
                "tempo": 120.0
            },
            {
                "start_time": 21.2454545,
                "end_time": 21.9477273,
                "pitch": 76,
                "velocity": 51,
                "duration": 0.7022727,
                "tempo": 120.0
            },
            {
                "start_time": 21.95,
                "end_time": 22.1840909,
                "pitch": 77,
                "velocity": 51,
                "duration": 0.2340909,
                "tempo": 120.0
            },
            {
                "start_time": 22.1840909,
                "end_time": 22.4272727,
                "pitch": 79,
                "velocity": 51,
                "duration": 0.2431818,
                "tempo": 120.0
            },
            {
                "start_time": 22.4272727,
                "end_time": 22.6704545,
                "pitch": 81,
                "velocity": 51,
                "duration": 0.2431818,
                "tempo": 120.0
            },
            {
                "start_time": 22.6704545,
                "end_time": 23.1113636,
                "pitch": 89,
                "velocity": 51,
                "duration": 0.4409091,
                "tempo": 120.0
            },
            {
                "start_time": 23.1113636,
                "end_time": 23.5795455,
                "pitch": 86,
                "velocity": 51,
                "duration": 0.4681818,
                "tempo": 120.0
            },
            {
                "start_time": 23.5795455,
                "end_time": 24.0386364,
                "pitch": 82,
                "velocity": 51,
                "duration": 0.4590909,
                "tempo": 120.0
            },
            {
                "start_time": 24.0386364,
                "end_time": 24.1886364,
                "pitch": 91,
                "velocity": 51,
                "duration": 0.15,
                "tempo": 120.0
            },
            {
                "start_time": 24.1886364,
                "end_time": 24.3568182,
                "pitch": 91,
                "velocity": 51,
                "duration": 0.1681818,
                "tempo": 120.0
            },
            {
                "start_time": 24.1886364,
                "end_time": 24.3568182,
                "pitch": 103,
                "velocity": 51,
                "duration": 0.1681818,
                "tempo": 120.0
            },
            {
                "start_time": 24.3568182,
                "end_time": 24.5068182,
                "pitch": 91,
                "velocity": 51,
                "duration": 0.15,
                "tempo": 120.0
            },
            {
                "start_time": 24.5068182,
                "end_time": 24.9772727,
                "pitch": 89,
                "velocity": 51,
                "duration": 0.4704545,
                "tempo": 120.0
            },
            {
                "start_time": 24.9772727,
                "end_time": 25.4477273,
                "pitch": 86,
                "velocity": 51,
                "duration": 0.4704545,
                "tempo": 120.0
            },
            {
                "start_time": 25.4477273,
                "end_time": 25.6772727,
                "pitch": 88,
                "velocity": 51,
                "duration": 0.2295455,
                "tempo": 120.0
            },
            {
                "start_time": 25.6772727,
                "end_time": 25.9068182,
                "pitch": 84,
                "velocity": 51,
                "duration": 0.2295455,
                "tempo": 120.0
            },
            {
                "start_time": 25.9068182,
                "end_time": 26.1409091,
                "pitch": 86,
                "velocity": 51,
                "duration": 0.2340909,
                "tempo": 120.0
            },
            {
                "start_time": 26.1409091,
                "end_time": 26.375,
                "pitch": 88,
                "velocity": 51,
                "duration": 0.2340909,
                "tempo": 120.0
            },
            {
                "start_time": 26.375,
                "end_time": 26.8454545,
                "pitch": 86,
                "velocity": 51,
                "duration": 0.4704545,
                "tempo": 120.0
            },
            {
                "start_time": 26.8454545,
                "end_time": 27.0795455,
                "pitch": 84,
                "velocity": 51,
                "duration": 0.2340909,
                "tempo": 120.0
            },
            {
                "start_time": 27.0795455,
                "end_time": 27.3136364,
                "pitch": 86,
                "velocity": 51,
                "duration": 0.2340909,
                "tempo": 120.0
            },
            {
                "start_time": 27.3159091,
                "end_time": 27.5431818,
                "pitch": 88,
                "velocity": 51,
                "duration": 0.2272727,
                "tempo": 120.0
            },
            {
                "start_time": 27.5454545,
                "end_time": 27.7727273,
                "pitch": 89,
                "velocity": 51,
                "duration": 0.2272727,
                "tempo": 120.0
            },
            {
                "start_time": 27.7727273,
                "end_time": 27.925,
                "pitch": 91,
                "velocity": 51,
                "duration": 0.1522727,
                "tempo": 120.0
            },
            {
                "start_time": 24.3568182,
                "end_time": 27.925,
                "pitch": 103,
                "velocity": 51,
                "duration": 3.5681818,
                "tempo": 120.0
            },
            {
                "start_time": 27.925,
                "end_time": 28.0090909,
                "pitch": 91,
                "velocity": 51,
                "duration": 0.0840909,
                "tempo": 120.0
            },
            {
                "start_time": 28.0090909,
                "end_time": 28.2431818,
                "pitch": 93,
                "velocity": 51,
                "duration": 0.2340909,
                "tempo": 120.0
            },
            {
                "start_time": 28.2431818,
                "end_time": 28.7113636,
                "pitch": 89,
                "velocity": 51,
                "duration": 0.4681818,
                "tempo": 120.0
            },
            {
                "start_time": 28.7136364,
                "end_time": 29.1704545,
                "pitch": 86,
                "velocity": 51,
                "duration": 0.4568182,
                "tempo": 120.0
            },
            {
                "start_time": 29.1727273,
                "end_time": 29.6409091,
                "pitch": 82,
                "velocity": 51,
                "duration": 0.4681818,
                "tempo": 120.0
            },
            {
                "start_time": 29.6409091,
                "end_time": 30.1113636,
                "pitch": 88,
                "velocity": 51,
                "duration": 0.4704545,
                "tempo": 120.0
            },
            {
                "start_time": 30.1113636,
                "end_time": 30.5795455,
                "pitch": 86,
                "velocity": 51,
                "duration": 0.4681818,
                "tempo": 120.0
            },
            {
                "start_time": 30.5795455,
                "end_time": 31.0386364,
                "pitch": 84,
                "velocity": 51,
                "duration": 0.4590909,
                "tempo": 120.0
            },
            {
                "start_time": 31.0386364,
                "end_time": 31.1886364,
                "pitch": 91,
                "velocity": 51,
                "duration": 0.15,
                "tempo": 120.0
            },
            {
                "start_time": 27.925,
                "end_time": 31.1886364,
                "pitch": 103,
                "velocity": 51,
                "duration": 3.2636364,
                "tempo": 120.0
            },
            {
                "start_time": 31.1886364,
                "end_time": 31.2727273,
                "pitch": 91,
                "velocity": 51,
                "duration": 0.0840909,
                "tempo": 120.0
            },
            {
                "start_time": 31.275,
                "end_time": 31.5090909,
                "pitch": 89,
                "velocity": 51,
                "duration": 0.2340909,
                "tempo": 120.0
            },
            {
                "start_time": 31.5090909,
                "end_time": 31.7431818,
                "pitch": 88,
                "velocity": 51,
                "duration": 0.2340909,
                "tempo": 120.0
            },
            {
                "start_time": 31.7431818,
                "end_time": 31.9772727,
                "pitch": 86,
                "velocity": 51,
                "duration": 0.2340909,
                "tempo": 120.0
            },
            {
                "start_time": 31.9772727,
                "end_time": 32.125,
                "pitch": 91,
                "velocity": 51,
                "duration": 0.1477273,
                "tempo": 120.0
            },
            {
                "start_time": 31.1886364,
                "end_time": 32.125,
                "pitch": 103,
                "velocity": 51,
                "duration": 0.9363636,
                "tempo": 120.0
            },
            {
                "start_time": 32.125,
                "end_time": 32.2068182,
                "pitch": 91,
                "velocity": 51,
                "duration": 0.0818182,
                "tempo": 120.0
            },
            {
                "start_time": 32.2068182,
                "end_time": 32.4363636,
                "pitch": 93,
                "velocity": 51,
                "duration": 0.2295455,
                "tempo": 120.0
            },
            {
                "start_time": 32.4363636,
                "end_time": 32.6704545,
                "pitch": 82,
                "velocity": 51,
                "duration": 0.2340909,
                "tempo": 120.0
            },
            {
                "start_time": 32.6727273,
                "end_time": 32.9068182,
                "pitch": 84,
                "velocity": 51,
                "duration": 0.2340909,
                "tempo": 120.0
            },
            {
                "start_time": 32.9068182,
                "end_time": 33.1454545,
                "pitch": 86,
                "velocity": 51,
                "duration": 0.2386364,
                "tempo": 120.0
            },
            {
                "start_time": 33.1454545,
                "end_time": 33.3840909,
                "pitch": 88,
                "velocity": 51,
                "duration": 0.2386364,
                "tempo": 120.0
            },
            {
                "start_time": 33.3840909,
                "end_time": 33.6136364,
                "pitch": 89,
                "velocity": 51,
                "duration": 0.2295455,
                "tempo": 120.0
            },
            {
                "start_time": 33.6136364,
                "end_time": 33.7613636,
                "pitch": 91,
                "velocity": 51,
                "duration": 0.1477273,
                "tempo": 120.0
            },
            {
                "start_time": 32.125,
                "end_time": 33.7613636,
                "pitch": 103,
                "velocity": 51,
                "duration": 1.6363636,
                "tempo": 120.0
            },
            {
                "start_time": 33.7613636,
                "end_time": 33.8431818,
                "pitch": 91,
                "velocity": 51,
                "duration": 0.0818182,
                "tempo": 120.0
            },
            {
                "start_time": 33.8431818,
                "end_time": 34.4090909,
                "pitch": 77,
                "velocity": 51,
                "duration": 0.5659091,
                "tempo": 120.0
            }
        ],
        "Electric Piano 1": [
            {
                "start_time": 0.7840909,
                "end_time": 1.0204545,
                "pitch": 86,
                "velocity": 51,
                "duration": 0.2363636,
                "tempo": 120.0
            },
            {
                "start_time": 1.0204545,
                "end_time": 1.2545455,
                "pitch": 84,
                "velocity": 51,
                "duration": 0.2340909,
                "tempo": 120.0
            },
            {
                "start_time": 1.2545455,
                "end_time": 1.4886364,
                "pitch": 82,
                "velocity": 51,
                "duration": 0.2340909,
                "tempo": 120.0
            },
            {
                "start_time": 1.4886364,
                "end_time": 1.7227273,
                "pitch": 81,
                "velocity": 51,
                "duration": 0.2340909,
                "tempo": 120.0
            },
            {
                "start_time": 1.725,
                "end_time": 1.825,
                "pitch": 79,
                "velocity": 51,
                "duration": 0.1,
                "tempo": 120.0
            },
            {
                "start_time": 1.825,
                "end_time": 1.9931818,
                "pitch": 79,
                "velocity": 51,
                "duration": 0.1681818,
                "tempo": 120.0
            },
            {
                "start_time": 1.825,
                "end_time": 1.9931818,
                "pitch": 91,
                "velocity": 51,
                "duration": 0.1681818,
                "tempo": 120.0
            },
            {
                "start_time": 1.9931818,
                "end_time": 2.1590909,
                "pitch": 79,
                "velocity": 51,
                "duration": 0.1659091,
                "tempo": 120.0
            },
            {
                "start_time": 1.9931818,
                "end_time": 2.1590909,
                "pitch": 91,
                "velocity": 51,
                "duration": 0.1659091,
                "tempo": 120.0
            },
            {
                "start_time": 2.1590909,
                "end_time": 2.1931818,
                "pitch": 79,
                "velocity": 51,
                "duration": 0.0340909,
                "tempo": 120.0
            },
            {
                "start_time": 2.1931818,
                "end_time": 2.6636364,
                "pitch": 81,
                "velocity": 51,
                "duration": 0.4704545,
                "tempo": 120.0
            },
            {
                "start_time": 2.6636364,
                "end_time": 3.1318182,
                "pitch": 82,
                "velocity": 51,
                "duration": 0.4681818,
                "tempo": 120.0
            },
            {
                "start_time": 3.1318182,
                "end_time": 3.5909091,
                "pitch": 81,
                "velocity": 51,
                "duration": 0.4590909,
                "tempo": 120.0
            },
            {
                "start_time": 3.5909091,
                "end_time": 4.0613636,
                "pitch": 77,
                "velocity": 51,
                "duration": 0.4704545,
                "tempo": 120.0
            },
            {
                "start_time": 4.0613636,
                "end_time": 4.1613636,
                "pitch": 79,
                "velocity": 51,
                "duration": 0.1,
                "tempo": 120.0
            },
            {
                "start_time": 2.1590909,
                "end_time": 4.1613636,
                "pitch": 91,
                "velocity": 51,
                "duration": 2.0022727,
                "tempo": 120.0
            },
            {
                "start_time": 4.1613636,
                "end_time": 4.3295455,
                "pitch": 79,
                "velocity": 51,
                "duration": 0.1681818,
                "tempo": 120.0
            },
            {
                "start_time": 4.1613636,
                "end_time": 4.3295455,
                "pitch": 91,
                "velocity": 51,
                "duration": 0.1681818,
                "tempo": 120.0
            },
            {
                "start_time": 4.3295455,
                "end_time": 4.4977273,
                "pitch": 79,
                "velocity": 51,
                "duration": 0.1681818,
                "tempo": 120.0
            },
            {
                "start_time": 4.3295455,
                "end_time": 4.4977273,
                "pitch": 91,
                "velocity": 51,
                "duration": 0.1681818,
                "tempo": 120.0
            },
            {
                "start_time": 4.4977273,
                "end_time": 4.5295455,
                "pitch": 79,
                "velocity": 51,
                "duration": 0.0318182,
                "tempo": 120.0
            },
            {
                "start_time": 4.5318182,
                "end_time": 4.7659091,
                "pitch": 82,
                "velocity": 51,
                "duration": 0.2340909,
                "tempo": 120.0
            },
            {
                "start_time": 4.7659091,
                "end_time": 5.0,
                "pitch": 84,
                "velocity": 51,
                "duration": 0.2340909,
                "tempo": 120.0
            },
            {
                "start_time": 5.0,
                "end_time": 5.2340909,
                "pitch": 82,
                "velocity": 51,
                "duration": 0.2340909,
                "tempo": 120.0
            },
            {
                "start_time": 5.2363636,
                "end_time": 5.4704545,
                "pitch": 81,
                "velocity": 51,
                "duration": 0.2340909,
                "tempo": 120.0
            },
            {
                "start_time": 5.4704545,
                "end_time": 5.5022727,
                "pitch": 79,
                "velocity": 51,
                "duration": 0.0318182,
                "tempo": 120.0
            },
            {
                "start_time": 4.4977273,
                "end_time": 5.5022727,
                "pitch": 91,
                "velocity": 51,
                "duration": 1.0045455,
                "tempo": 120.0
            },
            {
                "start_time": 5.5022727,
                "end_time": 5.6704545,
                "pitch": 79,
                "velocity": 51,
                "duration": 0.1681818,
                "tempo": 120.0
            },
            {
                "start_time": 5.5022727,
                "end_time": 5.6704545,
                "pitch": 91,
                "velocity": 51,
                "duration": 0.1681818,
                "tempo": 120.0
            },
            {
                "start_time": 5.6704545,
                "end_time": 5.7045455,
                "pitch": 79,
                "velocity": 51,
                "duration": 0.0340909,
                "tempo": 120.0
            },
            {
                "start_time": 5.7045455,
                "end_time": 5.9386364,
                "pitch": 76,
                "velocity": 51,
                "duration": 0.2340909,
                "tempo": 120.0
            },
            {
                "start_time": 5.9409091,
                "end_time": 6.4068182,
                "pitch": 86,
                "velocity": 51,
                "duration": 0.4659091,
                "tempo": 120.0
            },
            {
                "start_time": 6.4068182,
                "end_time": 6.8659091,
                "pitch": 81,
                "velocity": 51,
                "duration": 0.4590909,
                "tempo": 120.0
            },
            {
                "start_time": 6.8659091,
                "end_time": 7.3272727,
                "pitch": 89,
                "velocity": 51,
                "duration": 0.4613636,
                "tempo": 120.0
            },
            {
                "start_time": 5.6704545,
                "end_time": 7.3272727,
                "pitch": 91,
                "velocity": 51,
                "duration": 1.6568182,
                "tempo": 120.0
            },
            {
                "start_time": 7.3272727,
                "end_time": 7.4954545,
                "pitch": 91,
                "velocity": 51,
                "duration": 0.1681818,
                "tempo": 120.0
            },
            {
                "start_time": 7.3272727,
                "end_time": 7.4954545,
                "pitch": 91,
                "velocity": 51,
                "duration": 0.1681818,
                "tempo": 120.0
            },
            {
                "start_time": 7.3272727,
                "end_time": 7.4954545,
                "pitch": 103,
                "velocity": 51,
                "duration": 0.1681818,
                "tempo": 120.0
            },
            {
                "start_time": 7.4954545,
                "end_time": 7.5613636,
                "pitch": 91,
                "velocity": 51,
                "duration": 0.0659091,
                "tempo": 120.0
            },
            {
                "start_time": 7.5613636,
                "end_time": 7.7954545,
                "pitch": 89,
                "velocity": 51,
                "duration": 0.2340909,
                "tempo": 120.0
            },
            {
                "start_time": 7.7977273,
                "end_time": 8.0318182,
                "pitch": 88,
                "velocity": 51,
                "duration": 0.2340909,
                "tempo": 120.0
            },
            {
                "start_time": 8.0318182,
                "end_time": 8.2659091,
                "pitch": 89,
                "velocity": 51,
                "duration": 0.2340909,
                "tempo": 120.0
            },
            {
                "start_time": 8.2659091,
                "end_time": 8.7340909,
                "pitch": 88,
                "velocity": 51,
                "duration": 0.4681818,
                "tempo": 120.0
            },
            {
                "start_time": 8.7340909,
                "end_time": 8.9636364,
                "pitch": 93,
                "velocity": 51,
                "duration": 0.2295455,
                "tempo": 120.0
            },
            {
                "start_time": 8.9636364,
                "end_time": 8.9954545,
                "pitch": 91,
                "velocity": 51,
                "duration": 0.0318182,
                "tempo": 120.0
            },
            {
                "start_time": 7.4954545,
                "end_time": 8.9954545,
                "pitch": 103,
                "velocity": 51,
                "duration": 1.5,
                "tempo": 120.0
            },
            {
                "start_time": 8.9954545,
                "end_time": 9.1613636,
                "pitch": 91,
                "velocity": 51,
                "duration": 0.1659091,
                "tempo": 120.0
            },
            {
                "start_time": 8.9954545,
                "end_time": 9.1613636,
                "pitch": 103,
                "velocity": 51,
                "duration": 0.1659091,
                "tempo": 120.0
            },
            {
                "start_time": 9.1613636,
                "end_time": 9.1954545,
                "pitch": 91,
                "velocity": 51,
                "duration": 0.0340909,
                "tempo": 120.0
            },
            {
                "start_time": 9.1954545,
                "end_time": 9.4295455,
                "pitch": 89,
                "velocity": 51,
                "duration": 0.2340909,
                "tempo": 120.0
            },
            {
                "start_time": 9.4295455,
                "end_time": 9.4954545,
                "pitch": 91,
                "velocity": 51,
                "duration": 0.0659091,
                "tempo": 120.0
            },
            {
                "start_time": 9.1613636,
                "end_time": 9.4954545,
                "pitch": 103,
                "velocity": 51,
                "duration": 0.3340909,
                "tempo": 120.0
            },
            {
                "start_time": 9.4954545,
                "end_time": 9.6636364,
                "pitch": 91,
                "velocity": 51,
                "duration": 0.1681818,
                "tempo": 120.0
            },
            {
                "start_time": 9.4954545,
                "end_time": 9.6636364,
                "pitch": 103,
                "velocity": 51,
                "duration": 0.1681818,
                "tempo": 120.0
            },
            {
                "start_time": 9.6636364,
                "end_time": 9.9,
                "pitch": 89,
                "velocity": 51,
                "duration": 0.2363636,
                "tempo": 120.0
            },
            {
                "start_time": 9.9,
                "end_time": 10.1340909,
                "pitch": 88,
                "velocity": 51,
                "duration": 0.2340909,
                "tempo": 120.0
            },
            {
                "start_time": 10.1340909,
                "end_time": 10.3681818,
                "pitch": 82,
                "velocity": 51,
                "duration": 0.2340909,
                "tempo": 120.0
            },
            {
                "start_time": 10.3681818,
                "end_time": 10.6022727,
                "pitch": 81,
                "velocity": 51,
                "duration": 0.2340909,
                "tempo": 120.0
            },
            {
                "start_time": 10.6022727,
                "end_time": 10.8318182,
                "pitch": 82,
                "velocity": 51,
                "duration": 0.2295455,
                "tempo": 120.0
            },
            {
                "start_time": 10.8318182,
                "end_time": 11.0613636,
                "pitch": 84,
                "velocity": 51,
                "duration": 0.2295455,
                "tempo": 120.0
            },
            {
                "start_time": 11.0613636,
                "end_time": 11.2977273,
                "pitch": 86,
                "velocity": 51,
                "duration": 0.2363636,
                "tempo": 120.0
            },
            {
                "start_time": 11.2977273,
                "end_time": 11.5318182,
                "pitch": 88,
                "velocity": 51,
                "duration": 0.2340909,
                "tempo": 120.0
            },
            {
                "start_time": 11.5318182,
                "end_time": 12.0,
                "pitch": 86,
                "velocity": 51,
                "duration": 0.4681818,
                "tempo": 120.0
            },
            {
                "start_time": 12.0,
                "end_time": 12.4590909,
                "pitch": 81,
                "velocity": 51,
                "duration": 0.4590909,
                "tempo": 120.0
            },
            {
                "start_time": 12.4613636,
                "end_time": 12.6954545,
                "pitch": 86,
                "velocity": 51,
                "duration": 0.2340909,
                "tempo": 120.0
            },
            {
                "start_time": 12.6954545,
                "end_time": 12.9295455,
                "pitch": 89,
                "velocity": 51,
                "duration": 0.2340909,
                "tempo": 120.0
            },
            {
                "start_time": 9.6636364,
                "end_time": 12.9977273,
                "pitch": 91,
                "velocity": 51,
                "duration": 3.3340909,
                "tempo": 120.0
            },
            {
                "start_time": 12.9295455,
                "end_time": 12.9977273,
                "pitch": 91,
                "velocity": 51,
                "duration": 0.0681818,
                "tempo": 120.0
            },
            {
                "start_time": 9.6636364,
                "end_time": 12.9977273,
                "pitch": 103,
                "velocity": 51,
                "duration": 3.3340909,
                "tempo": 120.0
            },
            {
                "start_time": 12.9977273,
                "end_time": 13.1636364,
                "pitch": 91,
                "velocity": 51,
                "duration": 0.1659091,
                "tempo": 120.0
            },
            {
                "start_time": 12.9977273,
                "end_time": 13.1636364,
                "pitch": 103,
                "velocity": 51,
                "duration": 0.1659091,
                "tempo": 120.0
            },
            {
                "start_time": 13.1636364,
                "end_time": 13.3318182,
                "pitch": 91,
                "velocity": 51,
                "duration": 0.1681818,
                "tempo": 120.0
            },
            {
                "start_time": 13.1636364,
                "end_time": 13.3318182,
                "pitch": 103,
                "velocity": 51,
                "duration": 0.1681818,
                "tempo": 120.0
            },
            {
                "start_time": 13.3318182,
                "end_time": 13.3977273,
                "pitch": 91,
                "velocity": 51,
                "duration": 0.0659091,
                "tempo": 120.0
            },
            {
                "start_time": 13.3977273,
                "end_time": 13.8590909,
                "pitch": 88,
                "velocity": 51,
                "duration": 0.4613636,
                "tempo": 120.0
            },
            {
                "start_time": 13.8590909,
                "end_time": 14.3272727,
                "pitch": 89,
                "velocity": 51,
                "duration": 0.4681818,
                "tempo": 120.0
            },
            {
                "start_time": 14.3272727,
                "end_time": 14.7977273,
                "pitch": 93,
                "velocity": 51,
                "duration": 0.4704545,
                "tempo": 120.0
            },
            {
                "start_time": 14.7977273,
                "end_time": 14.8318182,
                "pitch": 91,
                "velocity": 51,
                "duration": 0.0340909,
                "tempo": 120.0
            },
            {
                "start_time": 13.3318182,
                "end_time": 14.8318182,
                "pitch": 103,
                "velocity": 51,
                "duration": 1.5,
                "tempo": 120.0
            },
            {
                "start_time": 14.8318182,
                "end_time": 14.9977273,
                "pitch": 91,
                "velocity": 51,
                "duration": 0.1659091,
                "tempo": 120.0
            },
            {
                "start_time": 14.8318182,
                "end_time": 14.9977273,
                "pitch": 103,
                "velocity": 51,
                "duration": 0.1659091,
                "tempo": 120.0
            },
            {
                "start_time": 14.9977273,
                "end_time": 15.1659091,
                "pitch": 91,
                "velocity": 51,
                "duration": 0.1681818,
                "tempo": 120.0
            },
            {
                "start_time": 14.9977273,
                "end_time": 15.1659091,
                "pitch": 103,
                "velocity": 51,
                "duration": 0.1681818,
                "tempo": 120.0
            },
            {
                "start_time": 15.1659091,
                "end_time": 15.2659091,
                "pitch": 91,
                "velocity": 51,
                "duration": 0.1,
                "tempo": 120.0
            },
            {
                "start_time": 15.2659091,
                "end_time": 15.725,
                "pitch": 86,
                "velocity": 51,
                "duration": 0.4590909,
                "tempo": 120.0
            },
            {
                "start_time": 15.725,
                "end_time": 15.9613636,
                "pitch": 89,
                "velocity": 51,
                "duration": 0.2363636,
                "tempo": 120.0
            },
            {
                "start_time": 15.9613636,
                "end_time": 16.1954545,
                "pitch": 88,
                "velocity": 51,
                "duration": 0.2340909,
                "tempo": 120.0
            },
            {
                "start_time": 16.1954545,
                "end_time": 16.4295455,
                "pitch": 89,
                "velocity": 51,
                "duration": 0.2340909,
                "tempo": 120.0
            },
            {
                "start_time": 16.4295455,
                "end_time": 16.4977273,
                "pitch": 91,
                "velocity": 51,
                "duration": 0.0681818,
                "tempo": 120.0
            },
            {
                "start_time": 15.1659091,
                "end_time": 16.4977273,
                "pitch": 103,
                "velocity": 51,
                "duration": 1.3318182,
                "tempo": 120.0
            },
            {
                "start_time": 16.4977273,
                "end_time": 16.6659091,
                "pitch": 91,
                "velocity": 51,
                "duration": 0.1681818,
                "tempo": 120.0
            },
            {
                "start_time": 16.4977273,
                "end_time": 16.6659091,
                "pitch": 103,
                "velocity": 51,
                "duration": 0.1681818,
                "tempo": 120.0
            },
            {
                "start_time": 16.6659091,
                "end_time": 16.9,
                "pitch": 89,
                "velocity": 51,
                "duration": 0.2340909,
                "tempo": 120.0
            },
            {
                "start_time": 16.9,
                "end_time": 17.1318182,
                "pitch": 88,
                "velocity": 51,
                "duration": 0.2318182,
                "tempo": 120.0
            },
            {
                "start_time": 17.1340909,
                "end_time": 17.3613636,
                "pitch": 86,
                "velocity": 51,
                "duration": 0.2272727,
                "tempo": 120.0
            },
            {
                "start_time": 17.3613636,
                "end_time": 17.5931818,
                "pitch": 84,
                "velocity": 51,
                "duration": 0.2318182,
                "tempo": 120.0
            },
            {
                "start_time": 17.5931818,
                "end_time": 17.8272727,
                "pitch": 86,
                "velocity": 51,
                "duration": 0.2340909,
                "tempo": 120.0
            },
            {
                "start_time": 17.8295455,
                "end_time": 18.5295455,
                "pitch": 81,
                "velocity": 51,
                "duration": 0.7,
                "tempo": 120.0
            },
            {
                "start_time": 18.5318182,
                "end_time": 18.7590909,
                "pitch": 89,
                "velocity": 51,
                "duration": 0.2272727,
                "tempo": 120.0
            },
            {
                "start_time": 18.7613636,
                "end_time": 18.9909091,
                "pitch": 88,
                "velocity": 51,
                "duration": 0.2295455,
                "tempo": 120.0
            },
            {
                "start_time": 18.9909091,
                "end_time": 19.225,
                "pitch": 89,
                "velocity": 51,
                "duration": 0.2340909,
                "tempo": 120.0
            },
            {
                "start_time": 16.6659091,
                "end_time": 19.3272727,
                "pitch": 91,
                "velocity": 51,
                "duration": 2.6613636,
                "tempo": 120.0
            },
            {
                "start_time": 19.2272727,
                "end_time": 19.3272727,
                "pitch": 91,
                "velocity": 51,
                "duration": 0.1,
                "tempo": 120.0
            },
            {
                "start_time": 16.6659091,
                "end_time": 19.3272727,
                "pitch": 103,
                "velocity": 51,
                "duration": 2.6613636,
                "tempo": 120.0
            },
            {
                "start_time": 19.3272727,
                "end_time": 19.4613636,
                "pitch": 91,
                "velocity": 51,
                "duration": 0.1340909,
                "tempo": 120.0
            },
            {
                "start_time": 19.4613636,
                "end_time": 19.6954545,
                "pitch": 93,
                "velocity": 51,
                "duration": 0.2340909,
                "tempo": 120.0
            },
            {
                "start_time": 19.6954545,
                "end_time": 19.9295455,
                "pitch": 89,
                "velocity": 51,
                "duration": 0.2340909,
                "tempo": 120.0
            },
            {
                "start_time": 19.9318182,
                "end_time": 20.8681818,
                "pitch": 81,
                "velocity": 51,
                "duration": 0.9363636,
                "tempo": 120.0
            },
            {
                "start_time": 20.8681818,
                "end_time": 21.0977273,
                "pitch": 89,
                "velocity": 51,
                "duration": 0.2295455,
                "tempo": 120.0
            },
            {
                "start_time": 21.0977273,
                "end_time": 21.3295455,
                "pitch": 86,
                "velocity": 51,
                "duration": 0.2318182,
                "tempo": 120.0
            },
            {
                "start_time": 19.3272727,
                "end_time": 21.3295455,
                "pitch": 103,
                "velocity": 51,
                "duration": 2.0022727,
                "tempo": 120.0
            },
            {
                "start_time": 21.3295455,
                "end_time": 21.4954545,
                "pitch": 91,
                "velocity": 51,
                "duration": 0.1659091,
                "tempo": 120.0
            },
            {
                "start_time": 21.3295455,
                "end_time": 21.4954545,
                "pitch": 91,
                "velocity": 51,
                "duration": 0.1659091,
                "tempo": 120.0
            },
            {
                "start_time": 21.3295455,
                "end_time": 21.4954545,
                "pitch": 103,
                "velocity": 51,
                "duration": 0.1659091,
                "tempo": 120.0
            },
            {
                "start_time": 21.4954545,
                "end_time": 21.6636364,
                "pitch": 91,
                "velocity": 51,
                "duration": 0.1681818,
                "tempo": 120.0
            },
            {
                "start_time": 21.4954545,
                "end_time": 21.6636364,
                "pitch": 103,
                "velocity": 51,
                "duration": 0.1681818,
                "tempo": 120.0
            },
            {
                "start_time": 21.6636364,
                "end_time": 21.8318182,
                "pitch": 91,
                "velocity": 51,
                "duration": 0.1681818,
                "tempo": 120.0
            },
            {
                "start_time": 21.6636364,
                "end_time": 21.8318182,
                "pitch": 103,
                "velocity": 51,
                "duration": 0.1681818,
                "tempo": 120.0
            },
            {
                "start_time": 21.8318182,
                "end_time": 22.0,
                "pitch": 91,
                "velocity": 51,
                "duration": 0.1681818,
                "tempo": 120.0
            },
            {
                "start_time": 21.8318182,
                "end_time": 22.0,
                "pitch": 103,
                "velocity": 51,
                "duration": 0.1681818,
                "tempo": 120.0
            },
            {
                "start_time": 22.0,
                "end_time": 22.1659091,
                "pitch": 91,
                "velocity": 51,
                "duration": 0.1659091,
                "tempo": 120.0
            },
            {
                "start_time": 22.0,
                "end_time": 22.1659091,
                "pitch": 103,
                "velocity": 51,
                "duration": 0.1659091,
                "tempo": 120.0
            },
            {
                "start_time": 22.1659091,
                "end_time": 22.3386364,
                "pitch": 91,
                "velocity": 51,
                "duration": 0.1727273,
                "tempo": 120.0
            },
            {
                "start_time": 22.1659091,
                "end_time": 22.3386364,
                "pitch": 103,
                "velocity": 51,
                "duration": 0.1727273,
                "tempo": 120.0
            },
            {
                "start_time": 22.3386364,
                "end_time": 22.5136364,
                "pitch": 91,
                "velocity": 51,
                "duration": 0.175,
                "tempo": 120.0
            },
            {
                "start_time": 22.3386364,
                "end_time": 22.5136364,
                "pitch": 103,
                "velocity": 51,
                "duration": 0.175,
                "tempo": 120.0
            },
            {
                "start_time": 22.5136364,
                "end_time": 22.6886364,
                "pitch": 91,
                "velocity": 51,
                "duration": 0.175,
                "tempo": 120.0
            },
            {
                "start_time": 22.5136364,
                "end_time": 22.6886364,
                "pitch": 103,
                "velocity": 51,
                "duration": 0.175,
                "tempo": 120.0
            },
            {
                "start_time": 22.6886364,
                "end_time": 22.75,
                "pitch": 91,
                "velocity": 51,
                "duration": 0.0613636,
                "tempo": 120.0
            },
            {
                "start_time": 22.75,
                "end_time": 23.1931818,
                "pitch": 93,
                "velocity": 51,
                "duration": 0.4431818,
                "tempo": 120.0
            },
            {
                "start_time": 23.1931818,
                "end_time": 23.6613636,
                "pitch": 89,
                "velocity": 51,
                "duration": 0.4681818,
                "tempo": 120.0
            },
            {
                "start_time": 23.6613636,
                "end_time": 24.1227273,
                "pitch": 86,
                "velocity": 51,
                "duration": 0.4613636,
                "tempo": 120.0
            },
            {
                "start_time": 24.1227273,
                "end_time": 24.5909091,
                "pitch": 94,
                "velocity": 51,
                "duration": 0.4681818,
                "tempo": 120.0
            },
            {
                "start_time": 24.5931818,
                "end_time": 25.0613636,
                "pitch": 93,
                "velocity": 51,
                "duration": 0.4681818,
                "tempo": 120.0
            },
            {
                "start_time": 25.0613636,
                "end_time": 25.5295455,
                "pitch": 89,
                "velocity": 51,
                "duration": 0.4681818,
                "tempo": 120.0
            },
            {
                "start_time": 25.5295455,
                "end_time": 25.6431818,
                "pitch": 91,
                "velocity": 51,
                "duration": 0.1136364,
                "tempo": 120.0
            },
            {
                "start_time": 22.6886364,
                "end_time": 25.6431818,
                "pitch": 103,
                "velocity": 51,
                "duration": 2.9545455,
                "tempo": 120.0
            },
            {
                "start_time": 25.6431818,
                "end_time": 25.7590909,
                "pitch": 91,
                "velocity": 51,
                "duration": 0.1159091,
                "tempo": 120.0
            },
            {
                "start_time": 25.7590909,
                "end_time": 25.9909091,
                "pitch": 88,
                "velocity": 51,
                "duration": 0.2318182,
                "tempo": 120.0
            },
            {
                "start_time": 25.9909091,
                "end_time": 26.225,
                "pitch": 89,
                "velocity": 51,
                "duration": 0.2340909,
                "tempo": 120.0
            },
            {
                "start_time": 26.225,
                "end_time": 26.325,
                "pitch": 91,
                "velocity": 51,
                "duration": 0.1,
                "tempo": 120.0
            },
            {
                "start_time": 25.6431818,
                "end_time": 26.325,
                "pitch": 103,
                "velocity": 51,
                "duration": 0.6818182,
                "tempo": 120.0
            },
            {
                "start_time": 26.325,
                "end_time": 26.4590909,
                "pitch": 91,
                "velocity": 51,
                "duration": 0.1340909,
                "tempo": 120.0
            },
            {
                "start_time": 26.4590909,
                "end_time": 26.9295455,
                "pitch": 89,
                "velocity": 51,
                "duration": 0.4704545,
                "tempo": 120.0
            },
            {
                "start_time": 26.9295455,
                "end_time": 27.1636364,
                "pitch": 88,
                "velocity": 51,
                "duration": 0.2340909,
                "tempo": 120.0
            },
            {
                "start_time": 27.1636364,
                "end_time": 27.3977273,
                "pitch": 86,
                "velocity": 51,
                "duration": 0.2340909,
                "tempo": 120.0
            },
            {
                "start_time": 27.3977273,
                "end_time": 27.4954545,
                "pitch": 91,
                "velocity": 51,
                "duration": 0.0977273,
                "tempo": 120.0
            },
            {
                "start_time": 26.325,
                "end_time": 27.4954545,
                "pitch": 103,
                "velocity": 51,
                "duration": 1.1704545,
                "tempo": 120.0
            },
            {
                "start_time": 27.4954545,
                "end_time": 27.6272727,
                "pitch": 91,
                "velocity": 51,
                "duration": 0.1318182,
                "tempo": 120.0
            },
            {
                "start_time": 27.6272727,
                "end_time": 27.8568182,
                "pitch": 89,
                "velocity": 51,
                "duration": 0.2295455,
                "tempo": 120.0
            },
            {
                "start_time": 27.8568182,
                "end_time": 28.0931818,
                "pitch": 88,
                "velocity": 51,
                "duration": 0.2363636,
                "tempo": 120.0
            },
            {
                "start_time": 28.0931818,
                "end_time": 28.3272727,
                "pitch": 84,
                "velocity": 51,
                "duration": 0.2340909,
                "tempo": 120.0
            },
            {
                "start_time": 28.3272727,
                "end_time": 28.7954545,
                "pitch": 93,
                "velocity": 51,
                "duration": 0.4681818,
                "tempo": 120.0
            },
            {
                "start_time": 28.7954545,
                "end_time": 29.2545455,
                "pitch": 89,
                "velocity": 51,
                "duration": 0.4590909,
                "tempo": 120.0
            },
            {
                "start_time": 29.2568182,
                "end_time": 29.725,
                "pitch": 86,
                "velocity": 51,
                "duration": 0.4681818,
                "tempo": 120.0
            },
            {
                "start_time": 29.725,
                "end_time": 30.1954545,
                "pitch": 96,
                "velocity": 51,
                "duration": 0.4704545,
                "tempo": 120.0
            },
            {
                "start_time": 30.1954545,
                "end_time": 30.6636364,
                "pitch": 94,
                "velocity": 51,
                "duration": 0.4681818,
                "tempo": 120.0
            },
            {
                "start_time": 30.6636364,
                "end_time": 31.1227273,
                "pitch": 93,
                "velocity": 51,
                "duration": 0.4590909,
                "tempo": 120.0
            },
            {
                "start_time": 31.1227273,
                "end_time": 31.3568182,
                "pitch": 94,
                "velocity": 51,
                "duration": 0.2340909,
                "tempo": 120.0
            },
            {
                "start_time": 31.3590909,
                "end_time": 31.5931818,
                "pitch": 93,
                "velocity": 51,
                "duration": 0.2340909,
                "tempo": 120.0
            },
            {
                "start_time": 31.5931818,
                "end_time": 31.6590909,
                "pitch": 91,
                "velocity": 51,
                "duration": 0.0659091,
                "tempo": 120.0
            },
            {
                "start_time": 27.4954545,
                "end_time": 31.6590909,
                "pitch": 103,
                "velocity": 51,
                "duration": 4.1636364,
                "tempo": 120.0
            },
            {
                "start_time": 31.6590909,
                "end_time": 31.8272727,
                "pitch": 91,
                "velocity": 51,
                "duration": 0.1681818,
                "tempo": 120.0
            },
            {
                "start_time": 31.6590909,
                "end_time": 31.8272727,
                "pitch": 103,
                "velocity": 51,
                "duration": 0.1681818,
                "tempo": 120.0
            },
            {
                "start_time": 31.8272727,
                "end_time": 32.0613636,
                "pitch": 89,
                "velocity": 51,
                "duration": 0.2340909,
                "tempo": 120.0
            },
            {
                "start_time": 32.0613636,
                "end_time": 32.2909091,
                "pitch": 88,
                "velocity": 51,
                "duration": 0.2295455,
                "tempo": 120.0
            },
            {
                "start_time": 32.2909091,
                "end_time": 32.5204545,
                "pitch": 89,
                "velocity": 51,
                "duration": 0.2295455,
                "tempo": 120.0
            },
            {
                "start_time": 32.5204545,
                "end_time": 32.7568182,
                "pitch": 86,
                "velocity": 51,
                "duration": 0.2363636,
                "tempo": 120.0
            },
            {
                "start_time": 32.7568182,
                "end_time": 32.9909091,
                "pitch": 88,
                "velocity": 51,
                "duration": 0.2340909,
                "tempo": 120.0
            },
            {
                "start_time": 32.9931818,
                "end_time": 33.2295455,
                "pitch": 89,
                "velocity": 51,
                "duration": 0.2363636,
                "tempo": 120.0
            },
            {
                "start_time": 31.8272727,
                "end_time": 33.3318182,
                "pitch": 91,
                "velocity": 51,
                "duration": 1.5045455,
                "tempo": 120.0
            },
            {
                "start_time": 33.2295455,
                "end_time": 33.3318182,
                "pitch": 91,
                "velocity": 51,
                "duration": 0.1022727,
                "tempo": 120.0
            },
            {
                "start_time": 31.8272727,
                "end_time": 33.3318182,
                "pitch": 103,
                "velocity": 51,
                "duration": 1.5045455,
                "tempo": 120.0
            },
            {
                "start_time": 33.3318182,
                "end_time": 33.4659091,
                "pitch": 91,
                "velocity": 51,
                "duration": 0.1340909,
                "tempo": 120.0
            },
            {
                "start_time": 33.4659091,
                "end_time": 33.6954545,
                "pitch": 93,
                "velocity": 51,
                "duration": 0.2295455,
                "tempo": 120.0
            },
            {
                "start_time": 33.6954545,
                "end_time": 33.9272727,
                "pitch": 94,
                "velocity": 51,
                "duration": 0.2318182,
                "tempo": 120.0
            }
        ],
        "Trumpet": [
            {
                "start_time": 0.2340909,
                "end_time": 1.6409091,
                "pitch": 38,
                "velocity": 80,
                "duration": 1.4068182,
                "tempo": 120.0
            },
            {
                "start_time": 1.6409091,
                "end_time": 3.05,
                "pitch": 45,
                "velocity": 80,
                "duration": 1.4090909,
                "tempo": 120.0
            },
            {
                "start_time": 3.05,
                "end_time": 4.4477273,
                "pitch": 41,
                "velocity": 80,
                "duration": 1.3977273,
                "tempo": 120.0
            },
            {
                "start_time": 4.4477273,
                "end_time": 5.3863636,
                "pitch": 40,
                "velocity": 80,
                "duration": 0.9386364,
                "tempo": 120.0
            },
            {
                "start_time": 5.3886364,
                "end_time": 5.8568182,
                "pitch": 36,
                "velocity": 80,
                "duration": 0.4681818,
                "tempo": 120.0
            },
            {
                "start_time": 5.8568182,
                "end_time": 7.2454545,
                "pitch": 38,
                "velocity": 80,
                "duration": 1.3886364,
                "tempo": 120.0
            },
            {
                "start_time": 7.2454545,
                "end_time": 8.6522727,
                "pitch": 45,
                "velocity": 80,
                "duration": 1.4068182,
                "tempo": 120.0
            },
            {
                "start_time": 8.6522727,
                "end_time": 10.05,
                "pitch": 41,
                "velocity": 80,
                "duration": 1.3977273,
                "tempo": 120.0
            },
            {
                "start_time": 10.0522727,
                "end_time": 10.5204545,
                "pitch": 40,
                "velocity": 80,
                "duration": 0.4681818,
                "tempo": 120.0
            },
            {
                "start_time": 10.5204545,
                "end_time": 10.9795455,
                "pitch": 41,
                "velocity": 80,
                "duration": 0.4590909,
                "tempo": 120.0
            },
            {
                "start_time": 10.9795455,
                "end_time": 11.45,
                "pitch": 43,
                "velocity": 80,
                "duration": 0.4704545,
                "tempo": 120.0
            },
            {
                "start_time": 11.45,
                "end_time": 12.8477273,
                "pitch": 38,
                "velocity": 80,
                "duration": 1.3977273,
                "tempo": 120.0
            },
            {
                "start_time": 12.8477273,
                "end_time": 14.2454545,
                "pitch": 45,
                "velocity": 80,
                "duration": 1.3977273,
                "tempo": 120.0
            },
            {
                "start_time": 14.2454545,
                "end_time": 15.6431818,
                "pitch": 41,
                "velocity": 80,
                "duration": 1.3977273,
                "tempo": 120.0
            },
            {
                "start_time": 15.6431818,
                "end_time": 16.5818182,
                "pitch": 40,
                "velocity": 80,
                "duration": 0.9386364,
                "tempo": 120.0
            },
            {
                "start_time": 16.5818182,
                "end_time": 17.0522727,
                "pitch": 36,
                "velocity": 80,
                "duration": 0.4704545,
                "tempo": 120.0
            },
            {
                "start_time": 17.0522727,
                "end_time": 18.45,
                "pitch": 38,
                "velocity": 80,
                "duration": 1.3977273,
                "tempo": 120.0
            },
            {
                "start_time": 18.45,
                "end_time": 19.8477273,
                "pitch": 45,
                "velocity": 80,
                "duration": 1.3977273,
                "tempo": 120.0
            },
            {
                "start_time": 19.8477273,
                "end_time": 21.2454545,
                "pitch": 41,
                "velocity": 80,
                "duration": 1.3977273,
                "tempo": 120.0
            },
            {
                "start_time": 21.2454545,
                "end_time": 21.7136364,
                "pitch": 40,
                "velocity": 80,
                "duration": 0.4681818,
                "tempo": 120.0
            },
            {
                "start_time": 21.7136364,
                "end_time": 22.1840909,
                "pitch": 41,
                "velocity": 80,
                "duration": 0.4704545,
                "tempo": 120.0
            },
            {
                "start_time": 22.1840909,
                "end_time": 22.6727273,
                "pitch": 43,
                "velocity": 80,
                "duration": 0.4886364,
                "tempo": 120.0
            },
            {
                "start_time": 22.6727273,
                "end_time": 24.0386364,
                "pitch": 46,
                "velocity": 80,
                "duration": 1.3659091,
                "tempo": 120.0
            },
            {
                "start_time": 24.0409091,
                "end_time": 25.4477273,
                "pitch": 41,
                "velocity": 80,
                "duration": 1.4068182,
                "tempo": 120.0
            },
            {
                "start_time": 25.4477273,
                "end_time": 26.8454545,
                "pitch": 43,
                "velocity": 80,
                "duration": 1.3977273,
                "tempo": 120.0
            },
            {
                "start_time": 26.8477273,
                "end_time": 27.3159091,
                "pitch": 40,
                "velocity": 80,
                "duration": 0.4681818,
                "tempo": 120.0
            },
            {
                "start_time": 27.3159091,
                "end_time": 27.775,
                "pitch": 41,
                "velocity": 80,
                "duration": 0.4590909,
                "tempo": 120.0
            },
            {
                "start_time": 27.775,
                "end_time": 28.2454545,
                "pitch": 43,
                "velocity": 80,
                "duration": 0.4704545,
                "tempo": 120.0
            },
            {
                "start_time": 28.2454545,
                "end_time": 29.6431818,
                "pitch": 46,
                "velocity": 80,
                "duration": 1.3977273,
                "tempo": 120.0
            },
            {
                "start_time": 29.6431818,
                "end_time": 31.0409091,
                "pitch": 41,
                "velocity": 80,
                "duration": 1.3977273,
                "tempo": 120.0
            },
            {
                "start_time": 31.0409091,
                "end_time": 32.4386364,
                "pitch": 40,
                "velocity": 80,
                "duration": 1.3977273,
                "tempo": 120.0
            },
            {
                "start_time": 32.4386364,
                "end_time": 32.9068182,
                "pitch": 36,
                "velocity": 80,
                "duration": 0.4681818,
                "tempo": 120.0
            },
            {
                "start_time": 32.9090909,
                "end_time": 33.3840909,
                "pitch": 40,
                "velocity": 80,
                "duration": 0.475,
                "tempo": 120.0
            },
            {
                "start_time": 33.3840909,
                "end_time": 33.8431818,
                "pitch": 36,
                "velocity": 80,
                "duration": 0.4590909,
                "tempo": 120.0
            },
            {
                "start_time": 33.8454545,
                "end_time": 34.4090909,
                "pitch": 38,
                "velocity": 80,
                "duration": 0.5636364,
                "tempo": 120.0
            }
        ]
    }
}