{
    "mood": "sad",
    "instruments": {
        "Electric Piano 1": [
            {
                "start_time": 0.6318182,
                "end_time": 1.5204545,
                "pitch": 64,
                "velocity": 101,
                "duration": 0.8886364,
                "tempo": 120.0
            },
            {
                "start_time": 1.5227273,
                "end_time": 2.3909091,
                "pitch": 73,
                "velocity": 101,
                "duration": 0.8681818,
                "tempo": 120.0
            },
            {
                "start_time": 2.3909091,
                "end_time": 3.2704545,
                "pitch": 59,
                "velocity": 101,
                "duration": 0.8795455,
                "tempo": 120.0
            },
            {
                "start_time": 3.2704545,
                "end_time": 4.1522727,
                "pitch": 64,
                "velocity": 101,
                "duration": 0.8818182,
                "tempo": 120.0
            },
            {
                "start_time": 2.3909091,
                "end_time": 5.0204545,
                "pitch": 56,
                "velocity": 101,
                "duration": 2.6295455,
                "tempo": 120.0
            },
            {
                "start_time": 4.1522727,
                "end_time": 5.0204545,
                "pitch": 73,
                "velocity": 101,
                "duration": 0.8681818,
                "tempo": 120.0
            },
            {
                "start_time": 5.0204545,
                "end_time": 5.9022727,
                "pitch": 59,
                "velocity": 101,
                "duration": 0.8818182,
                "tempo": 120.0
            },
            {
                "start_time": 5.9022727,
                "end_time": 6.7818182,
                "pitch": 64,
                "velocity": 101,
                "duration": 0.8795455,
                "tempo": 120.0
            },
            {
                "start_time": 6.7818182,
                "end_time": 7.6613636,
                "pitch": 73,
                "velocity": 101,
                "duration": 0.8795455,
                "tempo": 120.0
            },
            {
                "start_time": 4.1522727,
                "end_time": 8.5318182,
                "pitch": 61,
                "velocity": 101,
                "duration": 4.3795455,
                "tempo": 120.0
            },
            {
                "start_time": 7.6613636,
                "end_time": 8.5318182,
                "pitch": 61,
                "velocity": 101,
                "duration": 0.8704545,
                "tempo": 120.0
            },
            {
                "start_time": 8.5318182,
                "end_time": 9.4113636,
                "pitch": 64,
                "velocity": 101,
                "duration": 0.8795455,
                "tempo": 120.0
            },
            {
                "start_time": 8.5318182,
                "end_time": 9.4113636,
                "pitch": 64,
                "velocity": 101,
                "duration": 0.8795455,
                "tempo": 120.0
            },
            {
                "start_time": 9.4113636,
                "end_time": 10.2909091,
                "pitch": 71,
                "velocity": 101,
                "duration": 0.8795455,
                "tempo": 120.0
            },
            {
                "start_time": 10.2909091,
                "end_time": 11.1704545,
                "pitch": 59,
                "velocity": 101,
                "duration": 0.8795455,
                "tempo": 120.0
            },
            {
                "start_time": 5.9022727,
                "end_time": 12.0409091,
                "pitch": 66,
                "velocity": 101,
                "duration": 6.1386364,
                "tempo": 120.0
            },
            {
                "start_time": 11.1704545,
                "end_time": 12.0409091,
                "pitch": 66,
                "velocity": 101,
                "duration": 0.8704545,
                "tempo": 120.0
            },
            {
                "start_time": 12.0409091,
                "end_time": 12.9204545,
                "pitch": 73,
                "velocity": 101,
                "duration": 0.8795455,
                "tempo": 120.0
            },
            {
                "start_time": 12.9204545,
                "end_time": 13.8,
                "pitch": 66,
                "velocity": 101,
                "duration": 0.8795455,
                "tempo": 120.0
            },
            {
                "start_time": 13.8,
                "end_time": 14.6795455,
                "pitch": 61,
                "velocity": 101,
                "duration": 0.8795455,
                "tempo": 120.0
            },
            {
                "start_time": 14.6795455,
                "end_time": 15.55,
                "pitch": 59,
                "velocity": 101,
                "duration": 0.8704545,
                "tempo": 120.0
            },
            {
                "start_time": 11.1704545,
                "end_time": 15.55,
                "pitch": 67,
                "velocity": 101,
                "duration": 4.3795455,
                "tempo": 120.0
            },
            {
                "start_time": 15.55,
                "end_time": 16.4295455,
                "pitch": 66,
                "velocity": 101,
                "duration": 0.8795455,
                "tempo": 120.0
            },
            {
                "start_time": 16.4295455,
                "end_time": 17.3090909,
                "pitch": 64,
                "velocity": 101,
                "duration": 0.8795455,
                "tempo": 120.0
            },
            {
                "start_time": 17.3090909,
                "end_time": 18.1795455,
                "pitch": 73,
                "velocity": 101,
                "duration": 0.8704545,
                "tempo": 120.0
            },
            {
                "start_time": 18.1795455,
                "end_time": 19.0590909,
                "pitch": 61,
                "velocity": 101,
                "duration": 0.8795455,
                "tempo": 120.0
            },
            {
                "start_time": 9.4113636,
                "end_time": 19.9386364,
                "pitch": 44,
                "velocity": 101,
                "duration": 10.5272727,
                "tempo": 120.0
            },
            {
                "start_time": 19.0590909,
                "end_time": 19.9386364,
                "pitch": 64,
                "velocity": 101,
                "duration": 0.8795455,
                "tempo": 120.0
            },
            {
                "start_time": 19.0590909,
                "end_time": 19.9386364,
                "pitch": 64,
                "velocity": 101,
                "duration": 0.8795455,
                "tempo": 120.0
            },
            {
                "start_time": 19.9386364,
                "end_time": 20.8181818,
                "pitch": 71,
                "velocity": 101,
                "duration": 0.8795455,
                "tempo": 120.0
            },
            {
                "start_time": 20.8181818,
                "end_time": 21.6886364,
                "pitch": 59,
                "velocity": 101,
                "duration": 0.8704545,
                "tempo": 120.0
            },
            {
                "start_time": 21.6886364,
                "end_time": 22.5681818,
                "pitch": 66,
                "velocity": 101,
                "duration": 0.8795455,
                "tempo": 120.0
            },
            {
                "start_time": 22.5681818,
                "end_time": 23.4477273,
                "pitch": 73,
                "velocity": 101,
                "duration": 0.8795455,
                "tempo": 120.0
            },
            {
                "start_time": 12.9204545,
                "end_time": 23.4477273,
                "pitch": 78,
                "velocity": 101,
                "duration": 10.5272727,
                "tempo": 120.0
            },
            {
                "start_time": 23.4477273,
                "end_time": 24.3181818,
                "pitch": 66,
                "velocity": 101,
                "duration": 0.8704545,
                "tempo": 120.0
            },
            {
                "start_time": 19.9386364,
                "end_time": 25.1977273,
                "pitch": 44,
                "velocity": 101,
                "duration": 5.2590909,
                "tempo": 120.0
            },
            {
                "start_time": 22.5681818,
                "end_time": 25.1977273,
                "pitch": 61,
                "velocity": 101,
                "duration": 2.6295455,
                "tempo": 120.0
            },
            {
                "start_time": 24.3181818,
                "end_time": 25.1977273,
                "pitch": 61,
                "velocity": 101,
                "duration": 0.8795455,
                "tempo": 120.0
            },
            {
                "start_time": 25.1977273,
                "end_time": 26.0772727,
                "pitch": 59,
                "velocity": 101,
                "duration": 0.8795455,
                "tempo": 120.0
            },
            {
                "start_time": 26.0772727,
                "end_time": 26.9568182,
                "pitch": 66,
                "velocity": 101,
                "duration": 0.8795455,
                "tempo": 120.0
            },
            {
                "start_time": 26.9568182,
                "end_time": 27.8272727,
                "pitch": 64,
                "velocity": 101,
                "duration": 0.8704545,
                "tempo": 120.0
            },
            {
                "start_time": 26.9568182,
                "end_time": 27.8272727,
                "pitch": 64,
                "velocity": 101,
                "duration": 0.8704545,
                "tempo": 120.0
            },
            {
                "start_time": 27.8272727,
                "end_time": 28.7068182,
                "pitch": 73,
                "velocity": 101,
                "duration": 0.8795455,
                "tempo": 120.0
            },
            {
                "start_time": 27.8272727,
                "end_time": 29.5863636,
                "pitch": 61,
                "velocity": 101,
                "duration": 1.7590909,
                "tempo": 120.0
            },
            {
                "start_time": 28.7068182,
                "end_time": 29.5863636,
                "pitch": 61,
                "velocity": 101,
                "duration": 0.8795455,
                "tempo": 120.0
            },
            {
                "start_time": 25.1977273,
                "end_time": 30.4568182,
                "pitch": 44,
                "velocity": 101,
                "duration": 5.2590909,
                "tempo": 120.0
            },
            {
                "start_time": 29.5863636,
                "end_time": 30.4568182,
                "pitch": 64,
                "velocity": 101,
                "duration": 0.8704545,
                "tempo": 120.0
            },
            {
                "start_time": 29.5863636,
                "end_time": 30.4568182,
                "pitch": 64,
                "velocity": 101,
                "duration": 0.8704545,
                "tempo": 120.0
            },
            {
                "start_time": 30.4568182,
                "end_time": 31.3386364,
                "pitch": 71,
                "velocity": 101,
                "duration": 0.8818182,
                "tempo": 120.0
            },
            {
                "start_time": 31.3386364,
                "end_time": 32.2181818,
                "pitch": 59,
                "velocity": 101,
                "duration": 0.8795455,
                "tempo": 120.0
            },
            {
                "start_time": 15.55,
                "end_time": 32.2181818,
                "pitch": 67,
                "velocity": 101,
                "duration": 16.6681818,
                "tempo": 120.0
            },
            {
                "start_time": 32.2181818,
                "end_time": 33.0977273,
                "pitch": 66,
                "velocity": 101,
                "duration": 0.8795455,
                "tempo": 120.0
            },
            {
                "start_time": 33.0977273,
                "end_time": 33.9681818,
                "pitch": 73,
                "velocity": 101,
                "duration": 0.8704545,
                "tempo": 120.0
            },
            {
                "start_time": 33.9681818,
                "end_time": 34.8477273,
                "pitch": 66,
                "velocity": 101,
                "duration": 0.8795455,
                "tempo": 120.0
            },
            {
                "start_time": 34.8477273,
                "end_time": 35.7272727,
                "pitch": 61,
                "velocity": 101,
                "duration": 0.8795455,
                "tempo": 120.0
            },
            {
                "start_time": 34.8477273,
                "end_time": 35.7272727,
                "pitch": 61,
                "velocity": 101,
                "duration": 0.8795455,
                "tempo": 120.0
            },
            {
                "start_time": 35.7272727,
                "end_time": 36.6068182,
                "pitch": 59,
                "velocity": 101,
                "duration": 0.8795455,
                "tempo": 120.0
            },
            {
                "start_time": 32.2181818,
                "end_time": 36.6068182,
                "pitch": 67,
                "velocity": 101,
                "duration": 4.3886364,
                "tempo": 120.0
            },
            {
                "start_time": 36.6068182,
                "end_time": 37.4772727,
                "pitch": 66,
                "velocity": 101,
                "duration": 0.8704545,
                "tempo": 120.0
            },
            {
                "start_time": 37.4772727,
                "end_time": 38.3568182,
                "pitch": 64,
                "velocity": 101,
                "duration": 0.8795455,
                "tempo": 120.0
            },
            {
                "start_time": 37.4772727,
                "end_time": 38.3568182,
                "pitch": 64,
                "velocity": 101,
                "duration": 0.8795455,
                "tempo": 120.0
            },
            {
                "start_time": 38.3568182,
                "end_time": 39.2363636,
                "pitch": 73,
                "velocity": 101,
                "duration": 0.8795455,
                "tempo": 120.0
            },
            {
                "start_time": 39.2363636,
                "end_time": 40.1159091,
                "pitch": 61,
                "velocity": 101,
                "duration": 0.8795455,
                "tempo": 120.0
            },
            {
                "start_time": 30.4568182,
                "end_time": 40.9863636,
                "pitch": 44,
                "velocity": 101,
                "duration": 10.5295455,
                "tempo": 120.0
            },
            {
                "start_time": 40.1159091,
                "end_time": 40.9863636,
                "pitch": 63,
                "velocity": 101,
                "duration": 0.8704545,
                "tempo": 120.0
            },
            {
                "start_time": 40.9863636,
                "end_time": 41.8659091,
                "pitch": 71,
                "velocity": 101,
                "duration": 0.8795455,
                "tempo": 120.0
            },
            {
                "start_time": 41.8659091,
                "end_time": 42.7454545,
                "pitch": 63,
                "velocity": 101,
                "duration": 0.8795455,
                "tempo": 120.0
            },
            {
                "start_time": 42.7454545,
                "end_time": 43.6159091,
                "pitch": 61,
                "velocity": 101,
                "duration": 0.8704545,
                "tempo": 120.0
            },
            {
                "start_time": 43.6159091,
                "end_time": 44.4954545,
                "pitch": 69,
                "velocity": 101,
                "duration": 0.8795455,
                "tempo": 120.0
            },
            {
                "start_time": 44.4954545,
                "end_time": 45.375,
                "pitch": 61,
                "velocity": 101,
                "duration": 0.8795455,
                "tempo": 120.0
            },
            {
                "start_time": 45.375,
                "end_time": 46.2454545,
                "pitch": 63,
                "velocity": 101,
                "duration": 0.8704545,
                "tempo": 120.0
            },
            {
                "start_time": 46.2454545,
                "end_time": 47.125,
                "pitch": 72,
                "velocity": 101,
                "duration": 0.8795455,
                "tempo": 120.0
            },
            {
                "start_time": 47.125,
                "end_time": 48.0045455,
                "pitch": 72,
                "velocity": 101,
                "duration": 0.8795455,
                "tempo": 120.0
            },
            {
                "start_time": 48.0045455,
                "end_time": 48.8840909,
                "pitch": 65,
                "velocity": 101,
                "duration": 0.8795455,
                "tempo": 120.0
            },
            {
                "start_time": 48.8840909,
                "end_time": 49.7545455,
                "pitch": 74,
                "velocity": 101,
                "duration": 0.8704545,
                "tempo": 120.0
            },
            {
                "start_time": 49.7545455,
                "end_time": 50.6340909,
                "pitch": 62,
                "velocity": 101,
                "duration": 0.8795455,
                "tempo": 120.0
            },
            {
                "start_time": 46.2454545,
                "end_time": 51.5136364,
                "pitch": 60,
                "velocity": 101,
                "duration": 5.2681818,
                "tempo": 120.0
            },
            {
                "start_time": 50.6340909,
                "end_time": 51.5136364,
                "pitch": 65,
                "velocity": 101,
                "duration": 0.8795455,
                "tempo": 120.0
            },
            {
                "start_time": 51.5136364,
                "end_time": 52.3840909,
                "pitch": 72,
                "velocity": 101,
                "duration": 0.8704545,
                "tempo": 120.0
            },
            {
                "start_time": 51.5136364,
                "end_time": 53.2636364,
                "pitch": 60,
                "velocity": 101,
                "duration": 1.75,
                "tempo": 120.0
            },
            {
                "start_time": 52.3840909,
                "end_time": 53.2636364,
                "pitch": 60,
                "velocity": 101,
                "duration": 0.8795455,
                "tempo": 120.0
            },
            {
                "start_time": 36.6068182,
                "end_time": 54.1454545,
                "pitch": 67,
                "velocity": 101,
                "duration": 17.5386364,
                "tempo": 120.0
            },
            {
                "start_time": 53.2636364,
                "end_time": 54.1454545,
                "pitch": 67,
                "velocity": 101,
                "duration": 0.8818182,
                "tempo": 120.0
            },
            {
                "start_time": 54.1454545,
                "end_time": 55.0227273,
                "pitch": 74,
                "velocity": 101,
                "duration": 0.8772727,
                "tempo": 120.0
            },
            {
                "start_time": 55.0227273,
                "end_time": 55.025,
                "pitch": 2,
                "velocity": 101,
                "duration": 0.0022727,
                "tempo": 120.0
            },
            {
                "start_time": 55.025,
                "end_time": 55.8931818,
                "pitch": 67,
                "velocity": 101,
                "duration": 0.8681818,
                "tempo": 120.0
            },
            {
                "start_time": 55.8931818,
                "end_time": 56.775,
                "pitch": 62,
                "velocity": 101,
                "duration": 0.8818182,
                "tempo": 120.0
            },
            {
                "start_time": 56.775,
                "end_time": 57.6545455,
                "pitch": 60,
                "velocity": 101,
                "duration": 0.8795455,
                "tempo": 120.0
            },
            {
                "start_time": 57.6545455,
                "end_time": 58.5340909,
                "pitch": 67,
                "velocity": 101,
                "duration": 0.8795455,
                "tempo": 120.0
            },
            {
                "start_time": 23.4477273,
                "end_time": 58.5340909,
                "pitch": 78,
                "velocity": 101,
                "duration": 35.0863636,
                "tempo": 120.0
            },
            {
                "start_time": 58.5340909,
                "end_time": 59.4045455,
                "pitch": 65,
                "velocity": 101,
                "duration": 0.8704545,
                "tempo": 120.0
            },
            {
                "start_time": 59.4045455,
                "end_time": 60.2840909,
                "pitch": 74,
                "velocity": 101,
                "duration": 0.8795455,
                "tempo": 120.0
            },
            {
                "start_time": 59.4045455,
                "end_time": 61.1636364,
                "pitch": 62,
                "velocity": 101,
                "duration": 1.7590909,
                "tempo": 120.0
            },
            {
                "start_time": 60.2840909,
                "end_time": 61.1636364,
                "pitch": 62,
                "velocity": 101,
                "duration": 0.8795455,
                "tempo": 120.0
            },
            {
                "start_time": 61.1636364,
                "end_time": 62.0340909,
                "pitch": 65,
                "velocity": 101,
                "duration": 0.8704545,
                "tempo": 120.0
            },
            {
                "start_time": 61.1636364,
                "end_time": 62.0340909,
                "pitch": 65,
                "velocity": 101,
                "duration": 0.8704545,
                "tempo": 120.0
            },
            {
                "start_time": 62.0340909,
                "end_time": 62.9136364,
                "pitch": 72,
                "velocity": 101,
                "duration": 0.8795455,
                "tempo": 120.0
            },
            {
                "start_time": 62.9136364,
                "end_time": 63.7931818,
                "pitch": 60,
                "velocity": 101,
                "duration": 0.8795455,
                "tempo": 120.0
            },
            {
                "start_time": 63.7931818,
                "end_time": 64.6727273,
                "pitch": 67,
                "velocity": 101,
                "duration": 0.8795455,
                "tempo": 120.0
            },
            {
                "start_time": 41.8659091,
                "end_time": 64.6727273,
                "pitch": 77,
                "velocity": 101,
                "duration": 22.8068182,
                "tempo": 120.0
            },
            {
                "start_time": 64.6727273,
                "end_time": 65.5431818,
                "pitch": 74,
                "velocity": 101,
                "duration": 0.8704545,
                "tempo": 120.0
            },
            {
                "start_time": 65.5431818,
                "end_time": 66.4227273,
                "pitch": 67,
                "velocity": 101,
                "duration": 0.8795455,
                "tempo": 120.0
            },
            {
                "start_time": 64.6727273,
                "end_time": 66.4227273,
                "pitch": 77,
                "velocity": 101,
                "duration": 1.75,
                "tempo": 120.0
            },
            {
                "start_time": 66.4227273,
                "end_time": 67.3022727,
                "pitch": 62,
                "velocity": 101,
                "duration": 0.8795455,
                "tempo": 120.0
            },
            {
                "start_time": 67.3022727,
                "end_time": 68.1818182,
                "pitch": 60,
                "velocity": 101,
                "duration": 0.8795455,
                "tempo": 120.0
            },
            {
                "start_time": 67.3022727,
                "end_time": 68.1818182,
                "pitch": 60,
                "velocity": 101,
                "duration": 0.8795455,
                "tempo": 120.0
            },
            {
                "start_time": 68.1818182,
                "end_time": 69.0522727,
                "pitch": 67,
                "velocity": 101,
                "duration": 0.8704545,
                "tempo": 120.0
            },
            {
                "start_time": 58.5340909,
                "end_time": 69.0522727,
                "pitch": 78,
                "velocity": 101,
                "duration": 10.5181818,
                "tempo": 120.0
            },
            {
                "start_time": 69.0522727,
                "end_time": 69.9318182,
                "pitch": 65,
                "velocity": 101,
                "duration": 0.8795455,
                "tempo": 120.0
            },
            {
                "start_time": 69.9318182,
                "end_time": 70.8113636,
                "pitch": 74,
                "velocity": 101,
                "duration": 0.8795455,
                "tempo": 120.0
            },
            {
                "start_time": 70.8113636,
                "end_time": 71.6818182,
                "pitch": 62,
                "velocity": 101,
                "duration": 0.8704545,
                "tempo": 120.0
            },
            {
                "start_time": 71.6818182,
                "end_time": 72.5613636,
                "pitch": 65,
                "velocity": 101,
                "duration": 0.8795455,
                "tempo": 120.0
            },
            {
                "start_time": 71.6818182,
                "end_time": 72.5613636,
                "pitch": 65,
                "velocity": 101,
                "duration": 0.8795455,
                "tempo": 120.0
            },
            {
                "start_time": 72.5613636,
                "end_time": 73.4409091,
                "pitch": 72,
                "velocity": 101,
                "duration": 0.8795455,
                "tempo": 120.0
            },
            {
                "start_time": 72.5613636,
                "end_time": 74.3204545,
                "pitch": 60,
                "velocity": 101,
                "duration": 1.7590909,
                "tempo": 120.0
            },
            {
                "start_time": 73.4409091,
                "end_time": 74.3204545,
                "pitch": 60,
                "velocity": 101,
                "duration": 0.8795455,
                "tempo": 120.0
            },
            {
                "start_time": 74.3204545,
                "end_time": 75.1909091,
                "pitch": 67,
                "velocity": 101,
                "duration": 0.8704545,
                "tempo": 120.0
            },
            {
                "start_time": 66.4227273,
                "end_time": 75.1909091,
                "pitch": 77,
                "velocity": 101,
                "duration": 8.7681818,
                "tempo": 120.0
            },
            {
                "start_time": 65.5431818,
                "end_time": 76.0704545,
                "pitch": 2,
                "velocity": 101,
                "duration": 10.5272727,
                "tempo": 120.0
            },
            {
                "start_time": 75.1909091,
                "end_time": 76.0704545,
                "pitch": 74,
                "velocity": 101,
                "duration": 0.8795455,
                "tempo": 120.0
            },
            {
                "start_time": 76.0704545,
                "end_time": 76.95,
                "pitch": 67,
                "velocity": 101,
                "duration": 0.8795455,
                "tempo": 120.0
            },
            {
                "start_time": 75.1909091,
                "end_time": 76.95,
                "pitch": 77,
                "velocity": 101,
                "duration": 1.7590909,
                "tempo": 120.0
            },
            {
                "start_time": 76.95,
                "end_time": 77.8295455,
                "pitch": 62,
                "velocity": 101,
                "duration": 0.8795455,
                "tempo": 120.0
            },
            {
                "start_time": 77.8295455,
                "end_time": 78.7,
                "pitch": 60,
                "velocity": 101,
                "duration": 0.8704545,
                "tempo": 120.0
            },
            {
                "start_time": 77.8295455,
                "end_time": 78.7,
                "pitch": 60,
                "velocity": 101,
                "duration": 0.8704545,
                "tempo": 120.0
            },
            {
                "start_time": 78.7,
                "end_time": 79.5795455,
                "pitch": 67,
                "velocity": 101,
                "duration": 0.8795455,
                "tempo": 120.0
            },
            {
                "start_time": 69.0522727,
                "end_time": 79.5795455,
                "pitch": 78,
                "velocity": 101,
                "duration": 10.5272727,
                "tempo": 120.0
            },
            {
                "start_time": 79.5795455,
                "end_time": 80.4590909,
                "pitch": 65,
                "velocity": 101,
                "duration": 0.8795455,
                "tempo": 120.0
            },
            {
                "start_time": 80.4590909,
                "end_time": 81.3295455,
                "pitch": 74,
                "velocity": 101,
                "duration": 0.8704545,
                "tempo": 120.0
            },
            {
                "start_time": 81.3295455,
                "end_time": 82.2090909,
                "pitch": 62,
                "velocity": 101,
                "duration": 0.8795455,
                "tempo": 120.0
            },
            {
                "start_time": 82.2090909,
                "end_time": 83.0909091,
                "pitch": 64,
                "velocity": 101,
                "duration": 0.8818182,
                "tempo": 120.0
            },
            {
                "start_time": 83.0909091,
                "end_time": 83.9704545,
                "pitch": 72,
                "velocity": 101,
                "duration": 0.8795455,
                "tempo": 120.0
            },
            {
                "start_time": 44.4954545,
                "end_time": 83.9704545,
                "pitch": 76,
                "velocity": 101,
                "duration": 39.475,
                "tempo": 120.0
            },
            {
                "start_time": 83.9704545,
                "end_time": 84.8409091,
                "pitch": 64,
                "velocity": 101,
                "duration": 0.8704545,
                "tempo": 120.0
            },
            {
                "start_time": 84.8409091,
                "end_time": 85.7204545,
                "pitch": 62,
                "velocity": 101,
                "duration": 0.8795455,
                "tempo": 120.0
            },
            {
                "start_time": 85.7204545,
                "end_time": 86.6,
                "pitch": 70,
                "velocity": 101,
                "duration": 0.8795455,
                "tempo": 120.0
            },
            {
                "start_time": 76.95,
                "end_time": 86.6,
                "pitch": 77,
                "velocity": 101,
                "duration": 9.65,
                "tempo": 120.0
            },
            {
                "start_time": 86.6,
                "end_time": 87.4704545,
                "pitch": 62,
                "velocity": 101,
                "duration": 0.8704545,
                "tempo": 120.0
            },
            {
                "start_time": 87.4704545,
                "end_time": 88.35,
                "pitch": 64,
                "velocity": 101,
                "duration": 0.8795455,
                "tempo": 120.0
            },
            {
                "start_time": 88.35,
                "end_time": 89.2295455,
                "pitch": 73,
                "velocity": 101,
                "duration": 0.8795455,
                "tempo": 120.0
            },
            {
                "start_time": 89.2295455,
                "end_time": 89.8886364,
                "pitch": 73,
                "velocity": 101,
                "duration": 0.6590909,
                "tempo": 120.0
            }
        ],
        "Acoustic Bass": [
            {
                "start_time": 0.1931818,
                "end_time": 2.3909091,
                "pitch": 37,
                "velocity": 127,
                "duration": 2.1977273,
                "tempo": 120.0
            },
            {
                "start_time": 2.3909091,
                "end_time": 2.8318182,
                "pitch": 35,
                "velocity": 127,
                "duration": 0.4409091,
                "tempo": 120.0
            },
            {
                "start_time": 2.8318182,
                "end_time": 5.0227273,
                "pitch": 37,
                "velocity": 127,
                "duration": 2.1909091,
                "tempo": 120.0
            },
            {
                "start_time": 5.0227273,
                "end_time": 5.4613636,
                "pitch": 35,
                "velocity": 127,
                "duration": 0.4386364,
                "tempo": 120.0
            },
            {
                "start_time": 2.8318182,
                "end_time": 5.4613636,
                "pitch": 40,
                "velocity": 127,
                "duration": 2.6295455,
                "tempo": 120.0
            },
            {
                "start_time": 5.4613636,
                "end_time": 7.6613636,
                "pitch": 37,
                "velocity": 127,
                "duration": 2.2,
                "tempo": 120.0
            },
            {
                "start_time": 5.0227273,
                "end_time": 8.1,
                "pitch": 20,
                "velocity": 127,
                "duration": 3.0772727,
                "tempo": 120.0
            },
            {
                "start_time": 7.6613636,
                "end_time": 8.1,
                "pitch": 37,
                "velocity": 127,
                "duration": 0.4386364,
                "tempo": 120.0
            },
            {
                "start_time": 8.1,
                "end_time": 10.2909091,
                "pitch": 35,
                "velocity": 127,
                "duration": 2.1909091,
                "tempo": 120.0
            },
            {
                "start_time": 10.2909091,
                "end_time": 10.7295455,
                "pitch": 35,
                "velocity": 127,
                "duration": 0.4386364,
                "tempo": 120.0
            },
            {
                "start_time": 10.7295455,
                "end_time": 12.9204545,
                "pitch": 34,
                "velocity": 127,
                "duration": 2.1909091,
                "tempo": 120.0
            },
            {
                "start_time": 12.9204545,
                "end_time": 13.3590909,
                "pitch": 34,
                "velocity": 127,
                "duration": 0.4386364,
                "tempo": 120.0
            },
            {
                "start_time": 13.3590909,
                "end_time": 14.6795455,
                "pitch": 33,
                "velocity": 127,
                "duration": 1.3204545,
                "tempo": 120.0
            },
            {
                "start_time": 14.6795455,
                "end_time": 15.1204545,
                "pitch": 30,
                "velocity": 127,
                "duration": 0.4409091,
                "tempo": 120.0
            },
            {
                "start_time": 15.1204545,
                "end_time": 15.55,
                "pitch": 35,
                "velocity": 127,
                "duration": 0.4295455,
                "tempo": 120.0
            },
            {
                "start_time": 15.55,
                "end_time": 15.9909091,
                "pitch": 35,
                "velocity": 127,
                "duration": 0.4409091,
                "tempo": 120.0
            },
            {
                "start_time": 5.4613636,
                "end_time": 15.9909091,
                "pitch": 40,
                "velocity": 127,
                "duration": 10.5295455,
                "tempo": 120.0
            },
            {
                "start_time": 15.9909091,
                "end_time": 18.1795455,
                "pitch": 37,
                "velocity": 127,
                "duration": 2.1886364,
                "tempo": 120.0
            },
            {
                "start_time": 8.1,
                "end_time": 18.6204545,
                "pitch": 20,
                "velocity": 127,
                "duration": 10.5204545,
                "tempo": 120.0
            },
            {
                "start_time": 18.1795455,
                "end_time": 18.6204545,
                "pitch": 37,
                "velocity": 127,
                "duration": 0.4409091,
                "tempo": 120.0
            },
            {
                "start_time": 18.6204545,
                "end_time": 20.8181818,
                "pitch": 35,
                "velocity": 127,
                "duration": 2.1977273,
                "tempo": 120.0
            },
            {
                "start_time": 20.8181818,
                "end_time": 21.25,
                "pitch": 35,
                "velocity": 127,
                "duration": 0.4318182,
                "tempo": 120.0
            },
            {
                "start_time": 21.25,
                "end_time": 23.4477273,
                "pitch": 34,
                "velocity": 127,
                "duration": 2.1977273,
                "tempo": 120.0
            },
            {
                "start_time": 23.4477273,
                "end_time": 23.8886364,
                "pitch": 34,
                "velocity": 127,
                "duration": 0.4409091,
                "tempo": 120.0
            },
            {
                "start_time": 23.8886364,
                "end_time": 25.1977273,
                "pitch": 33,
                "velocity": 127,
                "duration": 1.3090909,
                "tempo": 120.0
            },
            {
                "start_time": 15.1204545,
                "end_time": 25.6386364,
                "pitch": 8,
                "velocity": 127,
                "duration": 10.5181818,
                "tempo": 120.0
            },
            {
                "start_time": 25.1977273,
                "end_time": 25.6386364,
                "pitch": 30,
                "velocity": 127,
                "duration": 0.4409091,
                "tempo": 120.0
            },
            {
                "start_time": 25.6386364,
                "end_time": 26.0772727,
                "pitch": 35,
                "velocity": 127,
                "duration": 0.4386364,
                "tempo": 120.0
            },
            {
                "start_time": 26.0772727,
                "end_time": 26.5181818,
                "pitch": 35,
                "velocity": 127,
                "duration": 0.4409091,
                "tempo": 120.0
            },
            {
                "start_time": 26.5181818,
                "end_time": 28.7068182,
                "pitch": 37,
                "velocity": 127,
                "duration": 2.1886364,
                "tempo": 120.0
            },
            {
                "start_time": 18.6204545,
                "end_time": 29.1477273,
                "pitch": 20,
                "velocity": 127,
                "duration": 10.5272727,
                "tempo": 120.0
            },
            {
                "start_time": 28.7068182,
                "end_time": 29.1477273,
                "pitch": 37,
                "velocity": 127,
                "duration": 0.4409091,
                "tempo": 120.0
            },
            {
                "start_time": 29.1477273,
                "end_time": 31.3386364,
                "pitch": 35,
                "velocity": 127,
                "duration": 2.1909091,
                "tempo": 120.0
            },
            {
                "start_time": 31.3386364,
                "end_time": 31.7772727,
                "pitch": 35,
                "velocity": 127,
                "duration": 0.4386364,
                "tempo": 120.0
            },
            {
                "start_time": 31.7772727,
                "end_time": 33.9681818,
                "pitch": 34,
                "velocity": 127,
                "duration": 2.1909091,
                "tempo": 120.0
            },
            {
                "start_time": 33.9681818,
                "end_time": 34.4159091,
                "pitch": 34,
                "velocity": 127,
                "duration": 0.4477273,
                "tempo": 120.0
            },
            {
                "start_time": 34.4159091,
                "end_time": 35.7272727,
                "pitch": 33,
                "velocity": 127,
                "duration": 1.3113636,
                "tempo": 120.0
            },
            {
                "start_time": 14.6795455,
                "end_time": 35.7272727,
                "pitch": 42,
                "velocity": 127,
                "duration": 21.0477273,
                "tempo": 120.0
            },
            {
                "start_time": 25.6386364,
                "end_time": 36.1659091,
                "pitch": 8,
                "velocity": 127,
                "duration": 10.5272727,
                "tempo": 120.0
            },
            {
                "start_time": 35.7272727,
                "end_time": 36.1659091,
                "pitch": 30,
                "velocity": 127,
                "duration": 0.4386364,
                "tempo": 120.0
            },
            {
                "start_time": 36.1659091,
                "end_time": 36.6068182,
                "pitch": 35,
                "velocity": 127,
                "duration": 0.4409091,
                "tempo": 120.0
            },
            {
                "start_time": 36.6068182,
                "end_time": 37.0454545,
                "pitch": 35,
                "velocity": 127,
                "duration": 0.4386364,
                "tempo": 120.0
            },
            {
                "start_time": 15.9909091,
                "end_time": 37.0454545,
                "pitch": 40,
                "velocity": 127,
                "duration": 21.0545455,
                "tempo": 120.0
            },
            {
                "start_time": 37.0454545,
                "end_time": 39.2363636,
                "pitch": 37,
                "velocity": 127,
                "duration": 2.1909091,
                "tempo": 120.0
            },
            {
                "start_time": 39.2363636,
                "end_time": 39.6772727,
                "pitch": 37,
                "velocity": 127,
                "duration": 0.4409091,
                "tempo": 120.0
            },
            {
                "start_time": 39.6772727,
                "end_time": 41.8659091,
                "pitch": 35,
                "velocity": 127,
                "duration": 2.1886364,
                "tempo": 120.0
            },
            {
                "start_time": 41.8659091,
                "end_time": 42.3068182,
                "pitch": 35,
                "velocity": 127,
                "duration": 0.4409091,
                "tempo": 120.0
            },
            {
                "start_time": 42.3068182,
                "end_time": 44.4954545,
                "pitch": 33,
                "velocity": 127,
                "duration": 2.1886364,
                "tempo": 120.0
            },
            {
                "start_time": 44.4954545,
                "end_time": 44.9363636,
                "pitch": 33,
                "velocity": 127,
                "duration": 0.4409091,
                "tempo": 120.0
            },
            {
                "start_time": 37.0454545,
                "end_time": 44.9363636,
                "pitch": 40,
                "velocity": 127,
                "duration": 7.8909091,
                "tempo": 120.0
            },
            {
                "start_time": 44.9363636,
                "end_time": 45.8159091,
                "pitch": 36,
                "velocity": 127,
                "duration": 0.8795455,
                "tempo": 120.0
            },
            {
                "start_time": 45.8159091,
                "end_time": 46.0295455,
                "pitch": 36,
                "velocity": 127,
                "duration": 0.2136364,
                "tempo": 120.0
            },
            {
                "start_time": 46.2454545,
                "end_time": 46.4659091,
                "pitch": 32,
                "velocity": 127,
                "duration": 0.2204545,
                "tempo": 120.0
            },
            {
                "start_time": 46.6863636,
                "end_time": 46.9045455,
                "pitch": 32,
                "velocity": 127,
                "duration": 0.2181818,
                "tempo": 120.0
            },
            {
                "start_time": 47.125,
                "end_time": 47.5659091,
                "pitch": 32,
                "velocity": 127,
                "duration": 0.4409091,
                "tempo": 120.0
            },
            {
                "start_time": 47.5659091,
                "end_time": 49.7545455,
                "pitch": 38,
                "velocity": 127,
                "duration": 2.1886364,
                "tempo": 120.0
            },
            {
                "start_time": 49.7545455,
                "end_time": 50.1954545,
                "pitch": 38,
                "velocity": 127,
                "duration": 0.4409091,
                "tempo": 120.0
            },
            {
                "start_time": 50.1954545,
                "end_time": 52.3840909,
                "pitch": 36,
                "velocity": 127,
                "duration": 2.1886364,
                "tempo": 120.0
            },
            {
                "start_time": 29.1477273,
                "end_time": 52.825,
                "pitch": 20,
                "velocity": 127,
                "duration": 23.6772727,
                "tempo": 120.0
            },
            {
                "start_time": 52.3840909,
                "end_time": 52.825,
                "pitch": 36,
                "velocity": 127,
                "duration": 0.4409091,
                "tempo": 120.0
            },
            {
                "start_time": 52.825,
                "end_time": 55.025,
                "pitch": 35,
                "velocity": 127,
                "duration": 2.2,
                "tempo": 120.0
            },
            {
                "start_time": 55.025,
                "end_time": 55.4545455,
                "pitch": 35,
                "velocity": 127,
                "duration": 0.4295455,
                "tempo": 120.0
            },
            {
                "start_time": 55.4545455,
                "end_time": 56.775,
                "pitch": 34,
                "velocity": 127,
                "duration": 1.3204545,
                "tempo": 120.0
            },
            {
                "start_time": 56.775,
                "end_time": 57.2136364,
                "pitch": 31,
                "velocity": 127,
                "duration": 0.4386364,
                "tempo": 120.0
            },
            {
                "start_time": 56.775,
                "end_time": 57.2136364,
                "pitch": 31,
                "velocity": 127,
                "duration": 0.4386364,
                "tempo": 120.0
            },
            {
                "start_time": 44.9363636,
                "end_time": 57.2136364,
                "pitch": 40,
                "velocity": 127,
                "duration": 12.2772727,
                "tempo": 120.0
            },
            {
                "start_time": 57.2136364,
                "end_time": 57.6545455,
                "pitch": 36,
                "velocity": 127,
                "duration": 0.4409091,
                "tempo": 120.0
            },
            {
                "start_time": 57.6545455,
                "end_time": 58.0931818,
                "pitch": 36,
                "velocity": 127,
                "duration": 0.4386364,
                "tempo": 120.0
            },
            {
                "start_time": 58.0931818,
                "end_time": 60.2840909,
                "pitch": 38,
                "velocity": 127,
                "duration": 2.1909091,
                "tempo": 120.0
            },
            {
                "start_time": 58.0931818,
                "end_time": 60.2840909,
                "pitch": 38,
                "velocity": 127,
                "duration": 2.1909091,
                "tempo": 120.0
            },
            {
                "start_time": 60.2840909,
                "end_time": 60.7227273,
                "pitch": 38,
                "velocity": 127,
                "duration": 0.4386364,
                "tempo": 120.0
            },
            {
                "start_time": 60.7227273,
                "end_time": 62.9136364,
                "pitch": 36,
                "velocity": 127,
                "duration": 2.1909091,
                "tempo": 120.0
            },
            {
                "start_time": 52.825,
                "end_time": 63.3522727,
                "pitch": 20,
                "velocity": 127,
                "duration": 10.5272727,
                "tempo": 120.0
            },
            {
                "start_time": 62.9136364,
                "end_time": 63.3522727,
                "pitch": 36,
                "velocity": 127,
                "duration": 0.4386364,
                "tempo": 120.0
            },
            {
                "start_time": 63.3522727,
                "end_time": 65.5431818,
                "pitch": 35,
                "velocity": 127,
                "duration": 2.1909091,
                "tempo": 120.0
            },
            {
                "start_time": 65.5431818,
                "end_time": 65.9818182,
                "pitch": 35,
                "velocity": 127,
                "duration": 0.4386364,
                "tempo": 120.0
            },
            {
                "start_time": 65.9818182,
                "end_time": 67.3022727,
                "pitch": 34,
                "velocity": 127,
                "duration": 1.3204545,
                "tempo": 120.0
            },
            {
                "start_time": 67.3022727,
                "end_time": 67.7431818,
                "pitch": 31,
                "velocity": 127,
                "duration": 0.4409091,
                "tempo": 120.0
            },
            {
                "start_time": 67.3022727,
                "end_time": 67.7431818,
                "pitch": 31,
                "velocity": 127,
                "duration": 0.4409091,
                "tempo": 120.0
            },
            {
                "start_time": 57.2136364,
                "end_time": 67.7431818,
                "pitch": 40,
                "velocity": 127,
                "duration": 10.5295455,
                "tempo": 120.0
            },
            {
                "start_time": 67.7431818,
                "end_time": 68.1818182,
                "pitch": 36,
                "velocity": 127,
                "duration": 0.4386364,
                "tempo": 120.0
            },
            {
                "start_time": 68.1818182,
                "end_time": 68.6113636,
                "pitch": 36,
                "velocity": 127,
                "duration": 0.4295455,
                "tempo": 120.0
            },
            {
                "start_time": 68.6113636,
                "end_time": 70.8113636,
                "pitch": 38,
                "velocity": 127,
                "duration": 2.2,
                "tempo": 120.0
            },
            {
                "start_time": 68.6113636,
                "end_time": 70.8113636,
                "pitch": 38,
                "velocity": 127,
                "duration": 2.2,
                "tempo": 120.0
            },
            {
                "start_time": 70.8113636,
                "end_time": 71.2522727,
                "pitch": 38,
                "velocity": 127,
                "duration": 0.4409091,
                "tempo": 120.0
            },
            {
                "start_time": 71.2522727,
                "end_time": 73.4409091,
                "pitch": 36,
                "velocity": 127,
                "duration": 2.1886364,
                "tempo": 120.0
            },
            {
                "start_time": 71.2522727,
                "end_time": 73.4409091,
                "pitch": 36,
                "velocity": 127,
                "duration": 2.1886364,
                "tempo": 120.0
            },
            {
                "start_time": 63.3522727,
                "end_time": 73.8818182,
                "pitch": 20,
                "velocity": 127,
                "duration": 10.5295455,
                "tempo": 120.0
            },
            {
                "start_time": 73.4409091,
                "end_time": 73.8818182,
                "pitch": 36,
                "velocity": 127,
                "duration": 0.4409091,
                "tempo": 120.0
            },
            {
                "start_time": 73.8818182,
                "end_time": 76.0704545,
                "pitch": 35,
                "velocity": 127,
                "duration": 2.1886364,
                "tempo": 120.0
            },
            {
                "start_time": 76.0704545,
                "end_time": 76.5113636,
                "pitch": 35,
                "velocity": 127,
                "duration": 0.4409091,
                "tempo": 120.0
            },
            {
                "start_time": 76.5113636,
                "end_time": 77.8295455,
                "pitch": 34,
                "velocity": 127,
                "duration": 1.3181818,
                "tempo": 120.0
            },
            {
                "start_time": 77.8295455,
                "end_time": 78.2613636,
                "pitch": 31,
                "velocity": 127,
                "duration": 0.4318182,
                "tempo": 120.0
            },
            {
                "start_time": 77.8295455,
                "end_time": 78.2613636,
                "pitch": 31,
                "velocity": 127,
                "duration": 0.4318182,
                "tempo": 120.0
            },
            {
                "start_time": 67.7431818,
                "end_time": 78.2613636,
                "pitch": 40,
                "velocity": 127,
                "duration": 10.5181818,
                "tempo": 120.0
            },
            {
                "start_time": 78.2613636,
                "end_time": 78.7,
                "pitch": 36,
                "velocity": 127,
                "duration": 0.4386364,
                "tempo": 120.0
            },
            {
                "start_time": 78.7,
                "end_time": 79.1409091,
                "pitch": 36,
                "velocity": 127,
                "duration": 0.4409091,
                "tempo": 120.0
            },
            {
                "start_time": 79.1409091,
                "end_time": 81.3295455,
                "pitch": 38,
                "velocity": 127,
                "duration": 2.1886364,
                "tempo": 120.0
            },
            {
                "start_time": 79.1409091,
                "end_time": 81.3295455,
                "pitch": 38,
                "velocity": 127,
                "duration": 2.1886364,
                "tempo": 120.0
            },
            {
                "start_time": 81.3295455,
                "end_time": 81.7704545,
                "pitch": 38,
                "velocity": 127,
                "duration": 0.4409091,
                "tempo": 120.0
            },
            {
                "start_time": 81.7704545,
                "end_time": 83.9704545,
                "pitch": 36,
                "velocity": 127,
                "duration": 2.2,
                "tempo": 120.0
            },
            {
                "start_time": 81.7704545,
                "end_time": 83.9704545,
                "pitch": 36,
                "velocity": 127,
                "duration": 2.2,
                "tempo": 120.0
            },
            {
                "start_time": 83.9704545,
                "end_time": 84.4090909,
                "pitch": 36,
                "velocity": 127,
                "duration": 0.4386364,
                "tempo": 120.0
            },
            {
                "start_time": 84.4090909,
                "end_time": 86.6,
                "pitch": 34,
                "velocity": 127,
                "duration": 2.1909091,
                "tempo": 120.0
            },
            {
                "start_time": 86.6,
                "end_time": 87.0386364,
                "pitch": 34,
                "velocity": 127,
                "duration": 0.4386364,
                "tempo": 120.0
            },
            {
                "start_time": 78.2613636,
                "end_time": 87.0386364,
                "pitch": 40,
                "velocity": 127,
                "duration": 8.7772727,
                "tempo": 120.0
            },
            {
                "start_time": 87.0386364,
                "end_time": 87.9181818,
                "pitch": 37,
                "velocity": 127,
                "duration": 0.8795455,
                "tempo": 120.0
            },
            {
                "start_time": 87.9181818,
                "end_time": 88.1340909,
                "pitch": 37,
                "velocity": 127,
                "duration": 0.2159091,
                "tempo": 120.0
            },
            {
                "start_time": 88.35,
                "end_time": 88.5681818,
                "pitch": 33,
                "velocity": 127,
                "duration": 0.2181818,
                "tempo": 120.0
            },
            {
                "start_time": 88.7886364,
                "end_time": 89.0090909,
                "pitch": 33,
                "velocity": 127,
                "duration": 0.2204545,
                "tempo": 120.0
            },
            {
                "start_time": 89.2295455,
                "end_time": 89.6681818,
                "pitch": 33,
                "velocity": 127,
                "duration": 0.4386364,
                "tempo": 120.0
            },
            {
                "start_time": 89.6681818,
                "end_time": 89.8886364,
                "pitch": 38,
                "velocity": 127,
                "duration": 0.2204545,
                "tempo": 120.0
            }
        ],
        "Flute": [
            {
                "start_time": 5.6818182,
                "end_time": 7.8818182,
                "pitch": 73,
                "velocity": 51,
                "duration": 2.2,
                "tempo": 120.0
            },
            {
                "start_time": 7.8818182,
                "end_time": 8.3159091,
                "pitch": 75,
                "velocity": 51,
                "duration": 0.4340909,
                "tempo": 120.0
            },
            {
                "start_time": 8.3159091,
                "end_time": 9.6295455,
                "pitch": 76,
                "velocity": 51,
                "duration": 1.3136364,
                "tempo": 120.0
            },
            {
                "start_time": 9.6295455,
                "end_time": 10.95,
                "pitch": 80,
                "velocity": 51,
                "duration": 1.3204545,
                "tempo": 120.0
            },
            {
                "start_time": 10.95,
                "end_time": 11.3909091,
                "pitch": 78,
                "velocity": 51,
                "duration": 0.4409091,
                "tempo": 120.0
            },
            {
                "start_time": 11.3909091,
                "end_time": 13.1409091,
                "pitch": 73,
                "velocity": 51,
                "duration": 1.75,
                "tempo": 120.0
            },
            {
                "start_time": 13.1409091,
                "end_time": 13.5795455,
                "pitch": 75,
                "velocity": 51,
                "duration": 0.4386364,
                "tempo": 120.0
            },
            {
                "start_time": 13.5795455,
                "end_time": 14.9,
                "pitch": 76,
                "velocity": 51,
                "duration": 1.3204545,
                "tempo": 120.0
            },
            {
                "start_time": 14.9,
                "end_time": 15.3340909,
                "pitch": 75,
                "velocity": 51,
                "duration": 0.4340909,
                "tempo": 120.0
            },
            {
                "start_time": 15.3340909,
                "end_time": 15.7704545,
                "pitch": 71,
                "velocity": 51,
                "duration": 0.4363636,
                "tempo": 120.0
            },
            {
                "start_time": 15.7704545,
                "end_time": 16.2090909,
                "pitch": 66,
                "velocity": 51,
                "duration": 0.4386364,
                "tempo": 120.0
            },
            {
                "start_time": 16.2090909,
                "end_time": 18.4,
                "pitch": 68,
                "velocity": 51,
                "duration": 2.1909091,
                "tempo": 120.0
            },
            {
                "start_time": 18.4,
                "end_time": 18.6204545,
                "pitch": 66,
                "velocity": 51,
                "duration": 0.2204545,
                "tempo": 120.0
            },
            {
                "start_time": 16.2090909,
                "end_time": 18.8386364,
                "pitch": 23,
                "velocity": 51,
                "duration": 2.6295455,
                "tempo": 120.0
            },
            {
                "start_time": 18.6204545,
                "end_time": 18.8386364,
                "pitch": 64,
                "velocity": 51,
                "duration": 0.2181818,
                "tempo": 120.0
            },
            {
                "start_time": 18.6204545,
                "end_time": 18.8386364,
                "pitch": 64,
                "velocity": 51,
                "duration": 0.2181818,
                "tempo": 120.0
            },
            {
                "start_time": 18.8386364,
                "end_time": 20.1590909,
                "pitch": 68,
                "velocity": 51,
                "duration": 1.3204545,
                "tempo": 120.0
            },
            {
                "start_time": 20.1590909,
                "end_time": 21.4681818,
                "pitch": 71,
                "velocity": 51,
                "duration": 1.3090909,
                "tempo": 120.0
            },
            {
                "start_time": 21.4681818,
                "end_time": 22.7886364,
                "pitch": 70,
                "velocity": 51,
                "duration": 1.3204545,
                "tempo": 120.0
            },
            {
                "start_time": 22.7886364,
                "end_time": 24.1022727,
                "pitch": 73,
                "velocity": 51,
                "duration": 1.3136364,
                "tempo": 120.0
            },
            {
                "start_time": 24.1022727,
                "end_time": 24.1045455,
                "pitch": 76,
                "velocity": 51,
                "duration": 0.0022727,
                "tempo": 120.0
            },
            {
                "start_time": 24.1045455,
                "end_time": 24.7590909,
                "pitch": 76,
                "velocity": 51,
                "duration": 0.6545455,
                "tempo": 120.0
            },
            {
                "start_time": 24.7590909,
                "end_time": 24.9795455,
                "pitch": 75,
                "velocity": 51,
                "duration": 0.2204545,
                "tempo": 120.0
            },
            {
                "start_time": 24.9795455,
                "end_time": 25.4181818,
                "pitch": 76,
                "velocity": 51,
                "duration": 0.4386364,
                "tempo": 120.0
            },
            {
                "start_time": 15.3340909,
                "end_time": 25.8590909,
                "pitch": 57,
                "velocity": 51,
                "duration": 10.525,
                "tempo": 120.0
            },
            {
                "start_time": 25.4181818,
                "end_time": 25.8590909,
                "pitch": 78,
                "velocity": 51,
                "duration": 0.4409091,
                "tempo": 120.0
            },
            {
                "start_time": 25.4181818,
                "end_time": 25.8590909,
                "pitch": 78,
                "velocity": 51,
                "duration": 0.4409091,
                "tempo": 120.0
            },
            {
                "start_time": 25.8590909,
                "end_time": 26.2977273,
                "pitch": 83,
                "velocity": 51,
                "duration": 0.4386364,
                "tempo": 120.0
            },
            {
                "start_time": 26.2977273,
                "end_time": 26.7386364,
                "pitch": 81,
                "velocity": 51,
                "duration": 0.4409091,
                "tempo": 120.0
            },
            {
                "start_time": 26.7386364,
                "end_time": 27.3977273,
                "pitch": 85,
                "velocity": 51,
                "duration": 0.6590909,
                "tempo": 120.0
            },
            {
                "start_time": 27.3977273,
                "end_time": 27.6136364,
                "pitch": 80,
                "velocity": 51,
                "duration": 0.2159091,
                "tempo": 120.0
            },
            {
                "start_time": 27.6136364,
                "end_time": 28.0477273,
                "pitch": 78,
                "velocity": 51,
                "duration": 0.4340909,
                "tempo": 120.0
            },
            {
                "start_time": 28.0477273,
                "end_time": 28.4886364,
                "pitch": 85,
                "velocity": 51,
                "duration": 0.4409091,
                "tempo": 120.0
            },
            {
                "start_time": 28.4886364,
                "end_time": 28.9272727,
                "pitch": 83,
                "velocity": 51,
                "duration": 0.4386364,
                "tempo": 120.0
            },
            {
                "start_time": 28.9272727,
                "end_time": 29.3681818,
                "pitch": 80,
                "velocity": 51,
                "duration": 0.4409091,
                "tempo": 120.0
            },
            {
                "start_time": 28.9272727,
                "end_time": 29.3681818,
                "pitch": 80,
                "velocity": 51,
                "duration": 0.4409091,
                "tempo": 120.0
            },
            {
                "start_time": 29.3681818,
                "end_time": 29.8068182,
                "pitch": 80,
                "velocity": 51,
                "duration": 0.4386364,
                "tempo": 120.0
            },
            {
                "start_time": 10.95,
                "end_time": 29.8068182,
                "pitch": 91,
                "velocity": 51,
                "duration": 18.8568182,
                "tempo": 120.0
            },
            {
                "start_time": 29.8068182,
                "end_time": 30.0272727,
                "pitch": 78,
                "velocity": 51,
                "duration": 0.2204545,
                "tempo": 120.0
            },
            {
                "start_time": 25.8590909,
                "end_time": 30.6772727,
                "pitch": 57,
                "velocity": 51,
                "duration": 4.8181818,
                "tempo": 120.0
            },
            {
                "start_time": 30.0272727,
                "end_time": 30.6772727,
                "pitch": 76,
                "velocity": 51,
                "duration": 0.65,
                "tempo": 120.0
            },
            {
                "start_time": 30.0272727,
                "end_time": 30.6772727,
                "pitch": 76,
                "velocity": 51,
                "duration": 0.65,
                "tempo": 120.0
            },
            {
                "start_time": 30.6772727,
                "end_time": 31.5568182,
                "pitch": 71,
                "velocity": 51,
                "duration": 0.8795455,
                "tempo": 120.0
            },
            {
                "start_time": 31.5568182,
                "end_time": 31.9977273,
                "pitch": 75,
                "velocity": 51,
                "duration": 0.4409091,
                "tempo": 120.0
            },
            {
                "start_time": 28.0477273,
                "end_time": 33.3113636,
                "pitch": 73,
                "velocity": 51,
                "duration": 5.2636364,
                "tempo": 120.0
            },
            {
                "start_time": 31.9977273,
                "end_time": 33.3113636,
                "pitch": 73,
                "velocity": 51,
                "duration": 1.3136364,
                "tempo": 120.0
            },
            {
                "start_time": 33.3113636,
                "end_time": 34.1931818,
                "pitch": 78,
                "velocity": 51,
                "duration": 0.8818182,
                "tempo": 120.0
            },
            {
                "start_time": 33.3113636,
                "end_time": 34.1931818,
                "pitch": 78,
                "velocity": 51,
                "duration": 0.8818182,
                "tempo": 120.0
            },
            {
                "start_time": 34.1931818,
                "end_time": 34.4181818,
                "pitch": 73,
                "velocity": 51,
                "duration": 0.225,
                "tempo": 120.0
            },
            {
                "start_time": 34.4181818,
                "end_time": 34.6318182,
                "pitch": 75,
                "velocity": 51,
                "duration": 0.2136364,
                "tempo": 120.0
            },
            {
                "start_time": 34.6318182,
                "end_time": 35.0681818,
                "pitch": 76,
                "velocity": 51,
                "duration": 0.4363636,
                "tempo": 120.0
            },
            {
                "start_time": 35.0681818,
                "end_time": 35.5068182,
                "pitch": 75,
                "velocity": 51,
                "duration": 0.4386364,
                "tempo": 120.0
            },
            {
                "start_time": 35.5068182,
                "end_time": 35.9477273,
                "pitch": 73,
                "velocity": 51,
                "duration": 0.4409091,
                "tempo": 120.0
            },
            {
                "start_time": 35.9477273,
                "end_time": 36.3863636,
                "pitch": 75,
                "velocity": 51,
                "duration": 0.4386364,
                "tempo": 120.0
            },
            {
                "start_time": 36.3863636,
                "end_time": 36.8272727,
                "pitch": 76,
                "velocity": 51,
                "duration": 0.4409091,
                "tempo": 120.0
            },
            {
                "start_time": 9.6295455,
                "end_time": 37.2613636,
                "pitch": 35,
                "velocity": 51,
                "duration": 27.6318182,
                "tempo": 120.0
            },
            {
                "start_time": 36.8272727,
                "end_time": 37.2613636,
                "pitch": 78,
                "velocity": 51,
                "duration": 0.4340909,
                "tempo": 120.0
            },
            {
                "start_time": 36.8272727,
                "end_time": 37.2613636,
                "pitch": 78,
                "velocity": 51,
                "duration": 0.4340909,
                "tempo": 120.0
            },
            {
                "start_time": 37.2613636,
                "end_time": 38.5772727,
                "pitch": 80,
                "velocity": 51,
                "duration": 1.3159091,
                "tempo": 120.0
            },
            {
                "start_time": 38.5772727,
                "end_time": 39.0159091,
                "pitch": 76,
                "velocity": 51,
                "duration": 0.4386364,
                "tempo": 120.0
            },
            {
                "start_time": 37.2613636,
                "end_time": 39.4568182,
                "pitch": 35,
                "velocity": 51,
                "duration": 2.1954545,
                "tempo": 120.0
            },
            {
                "start_time": 39.0159091,
                "end_time": 39.4568182,
                "pitch": 78,
                "velocity": 51,
                "duration": 0.4409091,
                "tempo": 120.0
            },
            {
                "start_time": 39.0159091,
                "end_time": 39.4568182,
                "pitch": 78,
                "velocity": 51,
                "duration": 0.4409091,
                "tempo": 120.0
            },
            {
                "start_time": 39.4568182,
                "end_time": 39.8954545,
                "pitch": 80,
                "velocity": 51,
                "duration": 0.4386364,
                "tempo": 120.0
            },
            {
                "start_time": 39.8954545,
                "end_time": 41.2068182,
                "pitch": 75,
                "velocity": 51,
                "duration": 1.3113636,
                "tempo": 120.0
            },
            {
                "start_time": 41.2068182,
                "end_time": 41.6454545,
                "pitch": 75,
                "velocity": 51,
                "duration": 0.4386364,
                "tempo": 120.0
            },
            {
                "start_time": 41.6454545,
                "end_time": 42.0863636,
                "pitch": 76,
                "velocity": 51,
                "duration": 0.4409091,
                "tempo": 120.0
            },
            {
                "start_time": 42.0863636,
                "end_time": 42.525,
                "pitch": 78,
                "velocity": 51,
                "duration": 0.4386364,
                "tempo": 120.0
            },
            {
                "start_time": 42.525,
                "end_time": 43.8363636,
                "pitch": 73,
                "velocity": 51,
                "duration": 1.3113636,
                "tempo": 120.0
            },
            {
                "start_time": 42.525,
                "end_time": 43.8363636,
                "pitch": 73,
                "velocity": 51,
                "duration": 1.3113636,
                "tempo": 120.0
            },
            {
                "start_time": 43.8363636,
                "end_time": 44.275,
                "pitch": 73,
                "velocity": 51,
                "duration": 0.4386364,
                "tempo": 120.0
            },
            {
                "start_time": 44.275,
                "end_time": 44.7159091,
                "pitch": 75,
                "velocity": 51,
                "duration": 0.4409091,
                "tempo": 120.0
            },
            {
                "start_time": 44.7159091,
                "end_time": 45.1545455,
                "pitch": 76,
                "velocity": 51,
                "duration": 0.4386364,
                "tempo": 120.0
            },
            {
                "start_time": 45.1545455,
                "end_time": 46.0295455,
                "pitch": 72,
                "velocity": 51,
                "duration": 0.875,
                "tempo": 120.0
            },
            {
                "start_time": 45.1545455,
                "end_time": 46.0295455,
                "pitch": 72,
                "velocity": 51,
                "duration": 0.875,
                "tempo": 120.0
            },
            {
                "start_time": 46.0295455,
                "end_time": 46.4659091,
                "pitch": 73,
                "velocity": 51,
                "duration": 0.4363636,
                "tempo": 120.0
            },
            {
                "start_time": 46.4659091,
                "end_time": 47.7840909,
                "pitch": 75,
                "velocity": 51,
                "duration": 1.3181818,
                "tempo": 120.0
            },
            {
                "start_time": 47.7840909,
                "end_time": 49.975,
                "pitch": 74,
                "velocity": 51,
                "duration": 2.1909091,
                "tempo": 120.0
            },
            {
                "start_time": 49.975,
                "end_time": 50.4159091,
                "pitch": 76,
                "velocity": 51,
                "duration": 0.4409091,
                "tempo": 120.0
            },
            {
                "start_time": 31.5568182,
                "end_time": 51.7340909,
                "pitch": 77,
                "velocity": 51,
                "duration": 20.1772727,
                "tempo": 120.0
            },
            {
                "start_time": 50.4159091,
                "end_time": 51.7340909,
                "pitch": 77,
                "velocity": 51,
                "duration": 1.3181818,
                "tempo": 120.0
            },
            {
                "start_time": 51.7340909,
                "end_time": 53.0454545,
                "pitch": 81,
                "velocity": 51,
                "duration": 1.3113636,
                "tempo": 120.0
            },
            {
                "start_time": 18.4,
                "end_time": 53.4840909,
                "pitch": 79,
                "velocity": 51,
                "duration": 35.0840909,
                "tempo": 120.0
            },
            {
                "start_time": 53.0454545,
                "end_time": 53.4840909,
                "pitch": 79,
                "velocity": 51,
                "duration": 0.4386364,
                "tempo": 120.0
            },
            {
                "start_time": 39.8954545,
                "end_time": 53.4840909,
                "pitch": 89,
                "velocity": 51,
                "duration": 13.5886364,
                "tempo": 120.0
            },
            {
                "start_time": 53.4840909,
                "end_time": 55.2386364,
                "pitch": 74,
                "velocity": 51,
                "duration": 1.7545455,
                "tempo": 120.0
            },
            {
                "start_time": 55.2386364,
                "end_time": 55.675,
                "pitch": 76,
                "velocity": 51,
                "duration": 0.4363636,
                "tempo": 120.0
            },
            {
                "start_time": 55.675,
                "end_time": 56.9931818,
                "pitch": 77,
                "velocity": 51,
                "duration": 1.3181818,
                "tempo": 120.0
            },
            {
                "start_time": 56.9931818,
                "end_time": 57.4340909,
                "pitch": 76,
                "velocity": 51,
                "duration": 0.4409091,
                "tempo": 120.0
            },
            {
                "start_time": 57.4340909,
                "end_time": 57.8727273,
                "pitch": 72,
                "velocity": 51,
                "duration": 0.4386364,
                "tempo": 120.0
            },
            {
                "start_time": 57.4340909,
                "end_time": 57.8727273,
                "pitch": 72,
                "velocity": 51,
                "duration": 0.4386364,
                "tempo": 120.0
            },
            {
                "start_time": 57.8727273,
                "end_time": 58.3136364,
                "pitch": 67,
                "velocity": 51,
                "duration": 0.4409091,
                "tempo": 120.0
            },
            {
                "start_time": 28.4886364,
                "end_time": 60.5045455,
                "pitch": 69,
                "velocity": 51,
                "duration": 32.0159091,
                "tempo": 120.0
            },
            {
                "start_time": 58.3136364,
                "end_time": 60.5045455,
                "pitch": 69,
                "velocity": 51,
                "duration": 2.1909091,
                "tempo": 120.0
            },
            {
                "start_time": 60.5045455,
                "end_time": 60.7227273,
                "pitch": 67,
                "velocity": 51,
                "duration": 0.2181818,
                "tempo": 120.0
            },
            {
                "start_time": 60.7227273,
                "end_time": 60.9431818,
                "pitch": 65,
                "velocity": 51,
                "duration": 0.2204545,
                "tempo": 120.0
            },
            {
                "start_time": 60.9431818,
                "end_time": 62.2522727,
                "pitch": 69,
                "velocity": 51,
                "duration": 1.3090909,
                "tempo": 120.0
            },
            {
                "start_time": 30.6772727,
                "end_time": 63.5727273,
                "pitch": 57,
                "velocity": 51,
                "duration": 32.8954545,
                "tempo": 120.0
            },
            {
                "start_time": 62.2522727,
                "end_time": 63.5727273,
                "pitch": 72,
                "velocity": 51,
                "duration": 1.3204545,
                "tempo": 120.0
            },
            {
                "start_time": 63.5727273,
                "end_time": 64.8931818,
                "pitch": 71,
                "velocity": 51,
                "duration": 1.3204545,
                "tempo": 120.0
            },
            {
                "start_time": 64.8931818,
                "end_time": 66.2022727,
                "pitch": 74,
                "velocity": 51,
                "duration": 1.3090909,
                "tempo": 120.0
            },
            {
                "start_time": 64.8931818,
                "end_time": 66.2022727,
                "pitch": 77,
                "velocity": 51,
                "duration": 1.3090909,
                "tempo": 120.0
            },
            {
                "start_time": 66.2022727,
                "end_time": 66.8636364,
                "pitch": 77,
                "velocity": 51,
                "duration": 0.6613636,
                "tempo": 120.0
            },
            {
                "start_time": 66.2022727,
                "end_time": 66.8636364,
                "pitch": 77,
                "velocity": 51,
                "duration": 0.6613636,
                "tempo": 120.0
            },
            {
                "start_time": 66.8636364,
                "end_time": 67.0818182,
                "pitch": 76,
                "velocity": 51,
                "duration": 0.2181818,
                "tempo": 120.0
            },
            {
                "start_time": 67.0818182,
                "end_time": 67.5227273,
                "pitch": 77,
                "velocity": 51,
                "duration": 0.4409091,
                "tempo": 120.0
            },
            {
                "start_time": 67.5227273,
                "end_time": 67.9613636,
                "pitch": 79,
                "velocity": 51,
                "duration": 0.4386364,
                "tempo": 120.0
            },
            {
                "start_time": 26.7386364,
                "end_time": 67.9613636,
                "pitch": 88,
                "velocity": 51,
                "duration": 41.2227273,
                "tempo": 120.0
            },
            {
                "start_time": 67.9613636,
                "end_time": 68.3977273,
                "pitch": 84,
                "velocity": 51,
                "duration": 0.4363636,
                "tempo": 120.0
            },
            {
                "start_time": 68.3977273,
                "end_time": 68.8318182,
                "pitch": 82,
                "velocity": 51,
                "duration": 0.4340909,
                "tempo": 120.0
            },
            {
                "start_time": 63.5727273,
                "end_time": 69.4931818,
                "pitch": 57,
                "velocity": 51,
                "duration": 5.9204545,
                "tempo": 120.0
            },
            {
                "start_time": 68.8318182,
                "end_time": 69.4931818,
                "pitch": 86,
                "velocity": 51,
                "duration": 0.6613636,
                "tempo": 120.0
            },
            {
                "start_time": 69.4931818,
                "end_time": 69.7113636,
                "pitch": 81,
                "velocity": 51,
                "duration": 0.2181818,
                "tempo": 120.0
            },
            {
                "start_time": 69.7113636,
                "end_time": 70.1522727,
                "pitch": 79,
                "velocity": 51,
                "duration": 0.4409091,
                "tempo": 120.0
            },
            {
                "start_time": 53.4840909,
                "end_time": 70.1522727,
                "pitch": 89,
                "velocity": 51,
                "duration": 16.6681818,
                "tempo": 120.0
            },
            {
                "start_time": 70.1522727,
                "end_time": 70.5909091,
                "pitch": 86,
                "velocity": 51,
                "duration": 0.4386364,
                "tempo": 120.0
            },
            {
                "start_time": 70.5909091,
                "end_time": 71.0318182,
                "pitch": 84,
                "velocity": 51,
                "duration": 0.4409091,
                "tempo": 120.0
            },
            {
                "start_time": 71.0318182,
                "end_time": 71.4659091,
                "pitch": 81,
                "velocity": 51,
                "duration": 0.4340909,
                "tempo": 120.0
            },
            {
                "start_time": 71.4659091,
                "end_time": 71.9022727,
                "pitch": 81,
                "velocity": 51,
                "duration": 0.4363636,
                "tempo": 120.0
            },
            {
                "start_time": 71.9022727,
                "end_time": 72.1227273,
                "pitch": 79,
                "velocity": 51,
                "duration": 0.2204545,
                "tempo": 120.0
            },
            {
                "start_time": 72.1227273,
                "end_time": 72.7818182,
                "pitch": 77,
                "velocity": 51,
                "duration": 0.6590909,
                "tempo": 120.0
            },
            {
                "start_time": 72.7818182,
                "end_time": 73.6613636,
                "pitch": 72,
                "velocity": 51,
                "duration": 0.8795455,
                "tempo": 120.0
            },
            {
                "start_time": 72.7818182,
                "end_time": 73.6613636,
                "pitch": 72,
                "velocity": 51,
                "duration": 0.8795455,
                "tempo": 120.0
            },
            {
                "start_time": 73.6613636,
                "end_time": 74.1,
                "pitch": 76,
                "velocity": 51,
                "duration": 0.4386364,
                "tempo": 120.0
            },
            {
                "start_time": 74.1,
                "end_time": 75.4113636,
                "pitch": 74,
                "velocity": 51,
                "duration": 1.3113636,
                "tempo": 120.0
            },
            {
                "start_time": 75.4113636,
                "end_time": 76.2909091,
                "pitch": 79,
                "velocity": 51,
                "duration": 0.8795455,
                "tempo": 120.0
            },
            {
                "start_time": 70.1522727,
                "end_time": 76.2909091,
                "pitch": 89,
                "velocity": 51,
                "duration": 6.1386364,
                "tempo": 120.0
            },
            {
                "start_time": 76.2909091,
                "end_time": 76.5113636,
                "pitch": 74,
                "velocity": 51,
                "duration": 0.2204545,
                "tempo": 120.0
            },
            {
                "start_time": 76.5113636,
                "end_time": 76.7318182,
                "pitch": 76,
                "velocity": 51,
                "duration": 0.2204545,
                "tempo": 120.0
            },
            {
                "start_time": 76.7318182,
                "end_time": 77.1704545,
                "pitch": 77,
                "velocity": 51,
                "duration": 0.4386364,
                "tempo": 120.0
            },
            {
                "start_time": 77.1704545,
                "end_time": 77.6113636,
                "pitch": 76,
                "velocity": 51,
                "duration": 0.4409091,
                "tempo": 120.0
            },
            {
                "start_time": 77.6113636,
                "end_time": 78.0454545,
                "pitch": 74,
                "velocity": 51,
                "duration": 0.4340909,
                "tempo": 120.0
            },
            {
                "start_time": 78.0454545,
                "end_time": 78.4818182,
                "pitch": 76,
                "velocity": 51,
                "duration": 0.4363636,
                "tempo": 120.0
            },
            {
                "start_time": 57.8727273,
                "end_time": 78.9204545,
                "pitch": 11,
                "velocity": 51,
                "duration": 21.0477273,
                "tempo": 120.0
            },
            {
                "start_time": 78.4818182,
                "end_time": 78.9204545,
                "pitch": 77,
                "velocity": 51,
                "duration": 0.4386364,
                "tempo": 120.0
            },
            {
                "start_time": 78.9204545,
                "end_time": 79.3613636,
                "pitch": 79,
                "velocity": 51,
                "duration": 0.4409091,
                "tempo": 120.0
            },
            {
                "start_time": 79.3613636,
                "end_time": 80.675,
                "pitch": 81,
                "velocity": 51,
                "duration": 1.3136364,
                "tempo": 120.0
            },
            {
                "start_time": 38.5772727,
                "end_time": 80.675,
                "pitch": 90,
                "velocity": 51,
                "duration": 42.0977273,
                "tempo": 120.0
            },
            {
                "start_time": 78.9204545,
                "end_time": 81.1113636,
                "pitch": 11,
                "velocity": 51,
                "duration": 2.1909091,
                "tempo": 120.0
            },
            {
                "start_time": 80.675,
                "end_time": 81.1113636,
                "pitch": 77,
                "velocity": 51,
                "duration": 0.4363636,
                "tempo": 120.0
            },
            {
                "start_time": 81.1113636,
                "end_time": 81.55,
                "pitch": 79,
                "velocity": 51,
                "duration": 0.4386364,
                "tempo": 120.0
            },
            {
                "start_time": 81.55,
                "end_time": 81.9909091,
                "pitch": 81,
                "velocity": 51,
                "duration": 0.4409091,
                "tempo": 120.0
            },
            {
                "start_time": 80.675,
                "end_time": 81.9909091,
                "pitch": 90,
                "velocity": 51,
                "duration": 1.3159091,
                "tempo": 120.0
            },
            {
                "start_time": 81.9909091,
                "end_time": 83.3090909,
                "pitch": 76,
                "velocity": 51,
                "duration": 1.3181818,
                "tempo": 120.0
            },
            {
                "start_time": 83.3090909,
                "end_time": 83.75,
                "pitch": 76,
                "velocity": 51,
                "duration": 0.4409091,
                "tempo": 120.0
            },
            {
                "start_time": 81.1113636,
                "end_time": 84.1886364,
                "pitch": 11,
                "velocity": 51,
                "duration": 3.0772727,
                "tempo": 120.0
            },
            {
                "start_time": 83.75,
                "end_time": 84.1886364,
                "pitch": 77,
                "velocity": 51,
                "duration": 0.4386364,
                "tempo": 120.0
            },
            {
                "start_time": 84.1886364,
                "end_time": 84.625,
                "pitch": 79,
                "velocity": 51,
                "duration": 0.4363636,
                "tempo": 120.0
            },
            {
                "start_time": 76.2909091,
                "end_time": 84.625,
                "pitch": 89,
                "velocity": 51,
                "duration": 8.3340909,
                "tempo": 120.0
            },
            {
                "start_time": 84.625,
                "end_time": 85.9386364,
                "pitch": 74,
                "velocity": 51,
                "duration": 1.3136364,
                "tempo": 120.0
            },
            {
                "start_time": 85.9386364,
                "end_time": 86.3795455,
                "pitch": 74,
                "velocity": 51,
                "duration": 0.4409091,
                "tempo": 120.0
            },
            {
                "start_time": 86.3795455,
                "end_time": 86.8181818,
                "pitch": 76,
                "velocity": 51,
                "duration": 0.4386364,
                "tempo": 120.0
            },
            {
                "start_time": 86.8181818,
                "end_time": 87.2545455,
                "pitch": 77,
                "velocity": 51,
                "duration": 0.4363636,
                "tempo": 120.0
            },
            {
                "start_time": 87.2545455,
                "end_time": 88.1340909,
                "pitch": 73,
                "velocity": 51,
                "duration": 0.8795455,
                "tempo": 120.0
            },
            {
                "start_time": 88.1340909,
                "end_time": 88.5704545,
                "pitch": 74,
                "velocity": 51,
                "duration": 0.4363636,
                "tempo": 120.0
            },
            {
                "start_time": 88.5704545,
                "end_time": 89.8886364,
                "pitch": 76,
                "velocity": 51,
                "duration": 1.3181818,
                "tempo": 120.0
            }
        ],
        "Violin": [
            {
                "start_time": 26.5181818,
                "end_time": 26.7386364,
                "pitch": 85,
                "velocity": 80,
                "duration": 0.2204545,
                "tempo": 120.0
            },
            {
                "start_time": 26.9590909,
                "end_time": 27.1772727,
                "pitch": 85,
                "velocity": 80,
                "duration": 0.2181818,
                "tempo": 120.0
            },
            {
                "start_time": 27.3977273,
                "end_time": 27.6136364,
                "pitch": 85,
                "velocity": 80,
                "duration": 0.2159091,
                "tempo": 120.0
            },
            {
                "start_time": 27.8295455,
                "end_time": 28.0477273,
                "pitch": 85,
                "velocity": 80,
                "duration": 0.2181818,
                "tempo": 120.0
            },
            {
                "start_time": 28.2681818,
                "end_time": 28.4886364,
                "pitch": 85,
                "velocity": 80,
                "duration": 0.2204545,
                "tempo": 120.0
            },
            {
                "start_time": 28.7090909,
                "end_time": 29.1477273,
                "pitch": 85,
                "velocity": 80,
                "duration": 0.4386364,
                "tempo": 120.0
            },
            {
                "start_time": 29.1477273,
                "end_time": 29.3681818,
                "pitch": 85,
                "velocity": 80,
                "duration": 0.2204545,
                "tempo": 120.0
            },
            {
                "start_time": 29.5886364,
                "end_time": 29.8068182,
                "pitch": 85,
                "velocity": 80,
                "duration": 0.2181818,
                "tempo": 120.0
            },
            {
                "start_time": 30.0272727,
                "end_time": 30.2431818,
                "pitch": 85,
                "velocity": 80,
                "duration": 0.2159091,
                "tempo": 120.0
            },
            {
                "start_time": 30.4590909,
                "end_time": 30.6772727,
                "pitch": 85,
                "velocity": 80,
                "duration": 0.2181818,
                "tempo": 120.0
            },
            {
                "start_time": 30.8977273,
                "end_time": 31.1181818,
                "pitch": 85,
                "velocity": 80,
                "duration": 0.2204545,
                "tempo": 120.0
            },
            {
                "start_time": 31.3386364,
                "end_time": 31.7772727,
                "pitch": 85,
                "velocity": 80,
                "duration": 0.4386364,
                "tempo": 120.0
            },
            {
                "start_time": 31.7772727,
                "end_time": 31.9977273,
                "pitch": 85,
                "velocity": 80,
                "duration": 0.2204545,
                "tempo": 120.0
            },
            {
                "start_time": 32.2181818,
                "end_time": 32.4386364,
                "pitch": 85,
                "velocity": 80,
                "duration": 0.2204545,
                "tempo": 120.0
            },
            {
                "start_time": 32.6568182,
                "end_time": 32.8772727,
                "pitch": 85,
                "velocity": 80,
                "duration": 0.2204545,
                "tempo": 120.0
            },
            {
                "start_time": 33.0977273,
                "end_time": 33.3113636,
                "pitch": 85,
                "velocity": 80,
                "duration": 0.2136364,
                "tempo": 120.0
            },
            {
                "start_time": 33.5272727,
                "end_time": 33.7477273,
                "pitch": 85,
                "velocity": 80,
                "duration": 0.2204545,
                "tempo": 120.0
            },
            {
                "start_time": 33.9681818,
                "end_time": 34.4181818,
                "pitch": 85,
                "velocity": 80,
                "duration": 0.45,
                "tempo": 120.0
            },
            {
                "start_time": 34.4181818,
                "end_time": 34.6318182,
                "pitch": 85,
                "velocity": 80,
                "duration": 0.2136364,
                "tempo": 120.0
            },
            {
                "start_time": 34.8477273,
                "end_time": 35.0681818,
                "pitch": 85,
                "velocity": 80,
                "duration": 0.2204545,
                "tempo": 120.0
            },
            {
                "start_time": 35.2863636,
                "end_time": 35.5068182,
                "pitch": 85,
                "velocity": 80,
                "duration": 0.2204545,
                "tempo": 120.0
            },
            {
                "start_time": 35.7272727,
                "end_time": 35.9477273,
                "pitch": 87,
                "velocity": 80,
                "duration": 0.2204545,
                "tempo": 120.0
            },
            {
                "start_time": 36.1681818,
                "end_time": 36.3863636,
                "pitch": 87,
                "velocity": 80,
                "duration": 0.2181818,
                "tempo": 120.0
            },
            {
                "start_time": 36.6068182,
                "end_time": 36.8272727,
                "pitch": 87,
                "velocity": 80,
                "duration": 0.2204545,
                "tempo": 120.0
            },
            {
                "start_time": 37.0477273,
                "end_time": 37.2613636,
                "pitch": 88,
                "velocity": 80,
                "duration": 0.2136364,
                "tempo": 120.0
            },
            {
                "start_time": 37.4772727,
                "end_time": 37.7022727,
                "pitch": 88,
                "velocity": 80,
                "duration": 0.225,
                "tempo": 120.0
            },
            {
                "start_time": 37.9272727,
                "end_time": 38.1409091,
                "pitch": 88,
                "velocity": 80,
                "duration": 0.2136364,
                "tempo": 120.0
            },
            {
                "start_time": 38.3568182,
                "end_time": 38.5772727,
                "pitch": 88,
                "velocity": 80,
                "duration": 0.2204545,
                "tempo": 120.0
            },
            {
                "start_time": 38.7977273,
                "end_time": 39.0159091,
                "pitch": 88,
                "velocity": 80,
                "duration": 0.2181818,
                "tempo": 120.0
            },
            {
                "start_time": 39.2363636,
                "end_time": 39.6772727,
                "pitch": 88,
                "velocity": 80,
                "duration": 0.4409091,
                "tempo": 120.0
            },
            {
                "start_time": 39.6772727,
                "end_time": 39.8954545,
                "pitch": 90,
                "velocity": 80,
                "duration": 0.2181818,
                "tempo": 120.0
            },
            {
                "start_time": 39.6772727,
                "end_time": 39.8954545,
                "pitch": 90,
                "velocity": 80,
                "duration": 0.2181818,
                "tempo": 120.0
            },
            {
                "start_time": 40.1159091,
                "end_time": 40.3363636,
                "pitch": 90,
                "velocity": 80,
                "duration": 0.2204545,
                "tempo": 120.0
            },
            {
                "start_time": 40.5568182,
                "end_time": 40.7704545,
                "pitch": 90,
                "velocity": 80,
                "duration": 0.2136364,
                "tempo": 120.0
            },
            {
                "start_time": 40.9863636,
                "end_time": 41.2068182,
                "pitch": 90,
                "velocity": 80,
                "duration": 0.2204545,
                "tempo": 120.0
            },
            {
                "start_time": 41.4272727,
                "end_time": 41.6454545,
                "pitch": 90,
                "velocity": 80,
                "duration": 0.2181818,
                "tempo": 120.0
            },
            {
                "start_time": 41.8659091,
                "end_time": 42.3068182,
                "pitch": 90,
                "velocity": 80,
                "duration": 0.4409091,
                "tempo": 120.0
            },
            {
                "start_time": 42.3068182,
                "end_time": 42.525,
                "pitch": 88,
                "velocity": 80,
                "duration": 0.2181818,
                "tempo": 120.0
            },
            {
                "start_time": 42.7454545,
                "end_time": 42.9659091,
                "pitch": 88,
                "velocity": 80,
                "duration": 0.2204545,
                "tempo": 120.0
            },
            {
                "start_time": 43.1863636,
                "end_time": 43.4,
                "pitch": 88,
                "velocity": 80,
                "duration": 0.2136364,
                "tempo": 120.0
            },
            {
                "start_time": 43.6159091,
                "end_time": 43.8363636,
                "pitch": 88,
                "velocity": 80,
                "duration": 0.2204545,
                "tempo": 120.0
            },
            {
                "start_time": 44.0568182,
                "end_time": 44.275,
                "pitch": 88,
                "velocity": 80,
                "duration": 0.2181818,
                "tempo": 120.0
            },
            {
                "start_time": 44.4954545,
                "end_time": 44.9363636,
                "pitch": 88,
                "velocity": 80,
                "duration": 0.4409091,
                "tempo": 120.0
            },
            {
                "start_time": 44.9363636,
                "end_time": 45.1568182,
                "pitch": 84,
                "velocity": 80,
                "duration": 0.2204545,
                "tempo": 120.0
            },
            {
                "start_time": 45.375,
                "end_time": 45.5954545,
                "pitch": 84,
                "velocity": 80,
                "duration": 0.2204545,
                "tempo": 120.0
            },
            {
                "start_time": 45.8159091,
                "end_time": 46.0318182,
                "pitch": 84,
                "velocity": 80,
                "duration": 0.2159091,
                "tempo": 120.0
            },
            {
                "start_time": 46.2454545,
                "end_time": 46.4659091,
                "pitch": 84,
                "velocity": 80,
                "duration": 0.2204545,
                "tempo": 120.0
            },
            {
                "start_time": 46.6863636,
                "end_time": 46.9068182,
                "pitch": 84,
                "velocity": 80,
                "duration": 0.2204545,
                "tempo": 120.0
            },
            {
                "start_time": 47.125,
                "end_time": 47.5659091,
                "pitch": 84,
                "velocity": 80,
                "duration": 0.4409091,
                "tempo": 120.0
            },
            {
                "start_time": 68.6136364,
                "end_time": 68.8318182,
                "pitch": 86,
                "velocity": 80,
                "duration": 0.2181818,
                "tempo": 120.0
            },
            {
                "start_time": 69.0522727,
                "end_time": 69.2727273,
                "pitch": 86,
                "velocity": 80,
                "duration": 0.2204545,
                "tempo": 120.0
            },
            {
                "start_time": 69.4931818,
                "end_time": 69.7113636,
                "pitch": 86,
                "velocity": 80,
                "duration": 0.2181818,
                "tempo": 120.0
            },
            {
                "start_time": 69.9318182,
                "end_time": 70.1522727,
                "pitch": 86,
                "velocity": 80,
                "duration": 0.2204545,
                "tempo": 120.0
            },
            {
                "start_time": 70.3727273,
                "end_time": 70.5909091,
                "pitch": 86,
                "velocity": 80,
                "duration": 0.2181818,
                "tempo": 120.0
            },
            {
                "start_time": 70.8113636,
                "end_time": 71.2522727,
                "pitch": 86,
                "velocity": 80,
                "duration": 0.4409091,
                "tempo": 120.0
            },
            {
                "start_time": 71.2522727,
                "end_time": 71.4659091,
                "pitch": 86,
                "velocity": 80,
                "duration": 0.2136364,
                "tempo": 120.0
            },
            {
                "start_time": 71.6818182,
                "end_time": 71.9022727,
                "pitch": 86,
                "velocity": 80,
                "duration": 0.2204545,
                "tempo": 120.0
            },
            {
                "start_time": 72.1227273,
                "end_time": 72.3409091,
                "pitch": 86,
                "velocity": 80,
                "duration": 0.2181818,
                "tempo": 120.0
            },
            {
                "start_time": 72.5613636,
                "end_time": 72.7818182,
                "pitch": 86,
                "velocity": 80,
                "duration": 0.2204545,
                "tempo": 120.0
            },
            {
                "start_time": 73.0022727,
                "end_time": 73.2227273,
                "pitch": 86,
                "velocity": 80,
                "duration": 0.2204545,
                "tempo": 120.0
            },
            {
                "start_time": 73.4409091,
                "end_time": 73.8818182,
                "pitch": 86,
                "velocity": 80,
                "duration": 0.4409091,
                "tempo": 120.0
            },
            {
                "start_time": 73.8818182,
                "end_time": 74.1022727,
                "pitch": 86,
                "velocity": 80,
                "duration": 0.2204545,
                "tempo": 120.0
            },
            {
                "start_time": 74.3204545,
                "end_time": 74.5409091,
                "pitch": 86,
                "velocity": 80,
                "duration": 0.2204545,
                "tempo": 120.0
            },
            {
                "start_time": 74.7613636,
                "end_time": 74.9772727,
                "pitch": 86,
                "velocity": 80,
                "duration": 0.2159091,
                "tempo": 120.0
            },
            {
                "start_time": 75.1909091,
                "end_time": 75.4113636,
                "pitch": 86,
                "velocity": 80,
                "duration": 0.2204545,
                "tempo": 120.0
            },
            {
                "start_time": 75.6318182,
                "end_time": 75.8522727,
                "pitch": 86,
                "velocity": 80,
                "duration": 0.2204545,
                "tempo": 120.0
            },
            {
                "start_time": 76.0727273,
                "end_time": 76.5113636,
                "pitch": 86,
                "velocity": 80,
                "duration": 0.4386364,
                "tempo": 120.0
            },
            {
                "start_time": 76.5113636,
                "end_time": 76.7318182,
                "pitch": 86,
                "velocity": 80,
                "duration": 0.2204545,
                "tempo": 120.0
            },
            {
                "start_time": 76.95,
                "end_time": 77.1704545,
                "pitch": 86,
                "velocity": 80,
                "duration": 0.2204545,
                "tempo": 120.0
            },
            {
                "start_time": 77.3909091,
                "end_time": 77.6113636,
                "pitch": 86,
                "velocity": 80,
                "duration": 0.2204545,
                "tempo": 120.0
            },
            {
                "start_time": 77.8318182,
                "end_time": 78.0454545,
                "pitch": 88,
                "velocity": 80,
                "duration": 0.2136364,
                "tempo": 120.0
            },
            {
                "start_time": 78.2613636,
                "end_time": 78.4818182,
                "pitch": 88,
                "velocity": 80,
                "duration": 0.2204545,
                "tempo": 120.0
            },
            {
                "start_time": 78.7022727,
                "end_time": 78.9204545,
                "pitch": 88,
                "velocity": 80,
                "duration": 0.2181818,
                "tempo": 120.0
            },
            {
                "start_time": 79.1409091,
                "end_time": 79.3613636,
                "pitch": 89,
                "velocity": 80,
                "duration": 0.2204545,
                "tempo": 120.0
            },
            {
                "start_time": 79.5795455,
                "end_time": 79.8,
                "pitch": 89,
                "velocity": 80,
                "duration": 0.2204545,
                "tempo": 120.0
            },
            {
                "start_time": 80.0204545,
                "end_time": 80.2409091,
                "pitch": 89,
                "velocity": 80,
                "duration": 0.2204545,
                "tempo": 120.0
            },
            {
                "start_time": 80.4613636,
                "end_time": 80.675,
                "pitch": 89,
                "velocity": 80,
                "duration": 0.2136364,
                "tempo": 120.0
            },
            {
                "start_time": 80.8909091,
                "end_time": 81.1113636,
                "pitch": 89,
                "velocity": 80,
                "duration": 0.2204545,
                "tempo": 120.0
            },
            {
                "start_time": 81.3318182,
                "end_time": 81.7704545,
                "pitch": 89,
                "velocity": 80,
                "duration": 0.4386364,
                "tempo": 120.0
            },
            {
                "start_time": 81.7704545,
                "end_time": 81.9909091,
                "pitch": 91,
                "velocity": 80,
                "duration": 0.2204545,
                "tempo": 120.0
            },
            {
                "start_time": 82.2113636,
                "end_time": 82.4295455,
                "pitch": 91,
                "velocity": 80,
                "duration": 0.2181818,
                "tempo": 120.0
            },
            {
                "start_time": 82.65,
                "end_time": 82.8704545,
                "pitch": 91,
                "velocity": 80,
                "duration": 0.2204545,
                "tempo": 120.0
            },
            {
                "start_time": 83.0909091,
                "end_time": 83.3090909,
                "pitch": 91,
                "velocity": 80,
                "duration": 0.2181818,
                "tempo": 120.0
            },
            {
                "start_time": 83.5295455,
                "end_time": 83.75,
                "pitch": 91,
                "velocity": 80,
                "duration": 0.2204545,
                "tempo": 120.0
            },
            {
                "start_time": 83.9704545,
                "end_time": 84.4090909,
                "pitch": 91,
                "velocity": 80,
                "duration": 0.4386364,
                "tempo": 120.0
            },
            {
                "start_time": 84.4090909,
                "end_time": 84.625,
                "pitch": 89,
                "velocity": 80,
                "duration": 0.2159091,
                "tempo": 120.0
            },
            {
                "start_time": 84.8409091,
                "end_time": 85.0590909,
                "pitch": 89,
                "velocity": 80,
                "duration": 0.2181818,
                "tempo": 120.0
            },
            {
                "start_time": 85.2795455,
                "end_time": 85.5,
                "pitch": 89,
                "velocity": 80,
                "duration": 0.2204545,
                "tempo": 120.0
            },
            {
                "start_time": 85.7204545,
                "end_time": 85.9386364,
                "pitch": 89,
                "velocity": 80,
                "duration": 0.2181818,
                "tempo": 120.0
            },
            {
                "start_time": 86.1590909,
                "end_time": 86.3795455,
                "pitch": 89,
                "velocity": 80,
                "duration": 0.2204545,
                "tempo": 120.0
            },
            {
                "start_time": 86.6,
                "end_time": 87.0386364,
                "pitch": 89,
                "velocity": 80,
                "duration": 0.4386364,
                "tempo": 120.0
            },
            {
                "start_time": 87.0386364,
                "end_time": 87.2545455,
                "pitch": 85,
                "velocity": 80,
                "duration": 0.2159091,
                "tempo": 120.0
            },
            {
                "start_time": 87.0386364,
                "end_time": 87.2545455,
                "pitch": 85,
                "velocity": 80,
                "duration": 0.2159091,
                "tempo": 120.0
            },
            {
                "start_time": 87.4704545,
                "end_time": 87.6954545,
                "pitch": 85,
                "velocity": 80,
                "duration": 0.225,
                "tempo": 120.0
            },
            {
                "start_time": 87.9204545,
                "end_time": 88.1340909,
                "pitch": 85,
                "velocity": 80,
                "duration": 0.2136364,
                "tempo": 120.0
            },
            {
                "start_time": 88.35,
                "end_time": 88.5704545,
                "pitch": 85,
                "velocity": 80,
                "duration": 0.2204545,
                "tempo": 120.0
            },
            {
                "start_time": 88.7886364,
                "end_time": 89.0090909,
                "pitch": 85,
                "velocity": 80,
                "duration": 0.2204545,
                "tempo": 120.0
            },
            {
                "start_time": 89.2295455,
                "end_time": 89.6704545,
                "pitch": 85,
                "velocity": 80,
                "duration": 0.4409091,
                "tempo": 120.0
            }
        ]
    }
}