{
    "mood": "sad",
    "instruments": {
        "Flute": [
            {
                "start_time": 4.1772727,
                "end_time": 6.1590909,
                "pitch": 74,
                "velocity": 40,
                "duration": 1.9818182,
                "tempo": 120.0
            },
            {
                "start_time": 6.2568182,
                "end_time": 8.2409091,
                "pitch": 76,
                "velocity": 40,
                "duration": 1.9840909,
                "tempo": 120.0
            },
            {
                "start_time": 8.3386364,
                "end_time": 14.5204545,
                "pitch": 82,
                "velocity": 40,
                "duration": 6.1818182,
                "tempo": 120.0
            },
            {
                "start_time": 14.6204545,
                "end_time": 16.6022727,
                "pitch": 86,
                "velocity": 40,
                "duration": 1.9818182,
                "tempo": 120.0
            },
            {
                "start_time": 16.7,
                "end_time": 18.7,
                "pitch": 86,
                "velocity": 40,
                "duration": 2.0,
                "tempo": 120.0
            },
            {
                "start_time": 18.8,
                "end_time": 25.0022727,
                "pitch": 79,
                "velocity": 40,
                "duration": 6.2022727,
                "tempo": 120.0
            },
            {
                "start_time": 25.1022727,
                "end_time": 27.0840909,
                "pitch": 89,
                "velocity": 40,
                "duration": 1.9818182,
                "tempo": 120.0
            },
            {
                "start_time": 27.1818182,
                "end_time": 29.1636364,
                "pitch": 89,
                "velocity": 40,
                "duration": 1.9818182,
                "tempo": 120.0
            },
            {
                "start_time": 8.3386364,
                "end_time": 29.2636364,
                "pitch": 90,
                "velocity": 40,
                "duration": 20.925,
                "tempo": 120.0
            },
            {
                "start_time": 29.2636364,
                "end_time": 32.1295455,
                "pitch": 82,
                "velocity": 40,
                "duration": 2.8659091,
                "tempo": 120.0
            },
            {
                "start_time": 32.1954545,
                "end_time": 50.3886364,
                "pitch": 82,
                "velocity": 40,
                "duration": 18.1931818,
                "tempo": 120.0
            },
            {
                "start_time": 77.2590909,
                "end_time": 78.5068182,
                "pitch": 76,
                "velocity": 40,
                "duration": 1.2477273,
                "tempo": 120.0
            },
            {
                "start_time": 6.2568182,
                "end_time": 79.8090909,
                "pitch": 74,
                "velocity": 40,
                "duration": 73.5522727,
                "tempo": 120.0
            },
            {
                "start_time": 78.5704545,
                "end_time": 79.8090909,
                "pitch": 74,
                "velocity": 40,
                "duration": 1.2386364,
                "tempo": 120.0
            },
            {
                "start_time": 79.8727273,
                "end_time": 81.1181818,
                "pitch": 69,
                "velocity": 40,
                "duration": 1.2454545,
                "tempo": 120.0
            },
            {
                "start_time": 81.1818182,
                "end_time": 83.0636364,
                "pitch": 66,
                "velocity": 40,
                "duration": 1.8818182,
                "tempo": 120.0
            },
            {
                "start_time": 18.8,
                "end_time": 97.5522727,
                "pitch": 88,
                "velocity": 40,
                "duration": 78.7522727,
                "tempo": 120.0
            },
            {
                "start_time": 97.0863636,
                "end_time": 97.5522727,
                "pitch": 88,
                "velocity": 40,
                "duration": 0.4659091,
                "tempo": 120.0
            },
            {
                "start_time": 97.6022727,
                "end_time": 98.0681818,
                "pitch": 86,
                "velocity": 40,
                "duration": 0.4659091,
                "tempo": 120.0
            },
            {
                "start_time": 98.1181818,
                "end_time": 98.5909091,
                "pitch": 81,
                "velocity": 40,
                "duration": 0.4727273,
                "tempo": 120.0
            },
            {
                "start_time": 98.6409091,
                "end_time": 100.6659091,
                "pitch": 81,
                "velocity": 40,
                "duration": 2.025,
                "tempo": 120.0
            },
            {
                "start_time": 115.0136364,
                "end_time": 115.5977273,
                "pitch": 71,
                "velocity": 40,
                "duration": 0.5840909,
                "tempo": 120.0
            },
            {
                "start_time": 115.6613636,
                "end_time": 116.2568182,
                "pitch": 72,
                "velocity": 40,
                "duration": 0.5954545,
                "tempo": 120.0
            },
            {
                "start_time": 116.3204545,
                "end_time": 117.5613636,
                "pitch": 74,
                "velocity": 40,
                "duration": 1.2409091,
                "tempo": 120.0
            },
            {
                "start_time": 79.8727273,
                "end_time": 117.6227273,
                "pitch": 77,
                "velocity": 40,
                "duration": 37.75,
                "tempo": 120.0
            },
            {
                "start_time": 117.6227273,
                "end_time": 118.8613636,
                "pitch": 71,
                "velocity": 40,
                "duration": 1.2386364,
                "tempo": 120.0
            },
            {
                "start_time": 118.925,
                "end_time": 120.5704545,
                "pitch": 71,
                "velocity": 40,
                "duration": 1.6454545,
                "tempo": 120.0
            },
            {
                "start_time": 78.5704545,
                "end_time": 135.6454545,
                "pitch": 76,
                "velocity": 40,
                "duration": 57.075,
                "tempo": 120.0
            },
            {
                "start_time": 134.1386364,
                "end_time": 135.6454545,
                "pitch": 76,
                "velocity": 40,
                "duration": 1.5068182,
                "tempo": 120.0
            },
            {
                "start_time": 134.1386364,
                "end_time": 137.2045455,
                "pitch": 74,
                "velocity": 40,
                "duration": 3.0659091,
                "tempo": 120.0
            },
            {
                "start_time": 135.6954545,
                "end_time": 137.2045455,
                "pitch": 74,
                "velocity": 40,
                "duration": 1.5090909,
                "tempo": 120.0
            },
            {
                "start_time": 117.6227273,
                "end_time": 137.2545455,
                "pitch": 77,
                "velocity": 40,
                "duration": 19.6318182,
                "tempo": 120.0
            },
            {
                "start_time": 137.2545455,
                "end_time": 138.2431818,
                "pitch": 69,
                "velocity": 40,
                "duration": 0.9886364,
                "tempo": 120.0
            },
            {
                "start_time": 138.2954545,
                "end_time": 140.3295455,
                "pitch": 71,
                "velocity": 40,
                "duration": 2.0340909,
                "tempo": 120.0
            }
        ],
        "Acoustic Guitar (nylon)": [
            {
                "start_time": 59.6363636,
                "end_time": 59.675,
                "pitch": 33,
                "velocity": 101,
                "duration": 0.0386364,
                "tempo": 120.0
            },
            {
                "start_time": 59.675,
                "end_time": 59.7159091,
                "pitch": 30,
                "velocity": 101,
                "duration": 0.0409091,
                "tempo": 120.0
            },
            {
                "start_time": 59.7159091,
                "end_time": 59.7363636,
                "pitch": 27,
                "velocity": 101,
                "duration": 0.0204545,
                "tempo": 120.0
            },
            {
                "start_time": 60.2909091,
                "end_time": 60.3295455,
                "pitch": 33,
                "velocity": 51,
                "duration": 0.0386364,
                "tempo": 120.0
            },
            {
                "start_time": 60.3295455,
                "end_time": 60.3704545,
                "pitch": 30,
                "velocity": 51,
                "duration": 0.0409091,
                "tempo": 120.0
            },
            {
                "start_time": 60.3704545,
                "end_time": 60.3909091,
                "pitch": 27,
                "velocity": 51,
                "duration": 0.0204545,
                "tempo": 120.0
            },
            {
                "start_time": 61.2454545,
                "end_time": 61.2863636,
                "pitch": 33,
                "velocity": 101,
                "duration": 0.0409091,
                "tempo": 120.0
            },
            {
                "start_time": 61.2863636,
                "end_time": 61.3272727,
                "pitch": 30,
                "velocity": 101,
                "duration": 0.0409091,
                "tempo": 120.0
            },
            {
                "start_time": 61.3272727,
                "end_time": 61.35,
                "pitch": 27,
                "velocity": 101,
                "duration": 0.0227273,
                "tempo": 120.0
            },
            {
                "start_time": 60.2909091,
                "end_time": 61.9227273,
                "pitch": 40,
                "velocity": 51,
                "duration": 1.6318182,
                "tempo": 120.0
            },
            {
                "start_time": 61.9227273,
                "end_time": 61.9636364,
                "pitch": 33,
                "velocity": 51,
                "duration": 0.0409091,
                "tempo": 120.0
            },
            {
                "start_time": 61.9636364,
                "end_time": 62.0068182,
                "pitch": 30,
                "velocity": 51,
                "duration": 0.0431818,
                "tempo": 120.0
            },
            {
                "start_time": 62.0068182,
                "end_time": 62.0272727,
                "pitch": 27,
                "velocity": 51,
                "duration": 0.0204545,
                "tempo": 120.0
            },
            {
                "start_time": 61.2454545,
                "end_time": 62.9,
                "pitch": 37,
                "velocity": 101,
                "duration": 1.6545455,
                "tempo": 120.0
            },
            {
                "start_time": 62.9,
                "end_time": 62.9409091,
                "pitch": 33,
                "velocity": 101,
                "duration": 0.0409091,
                "tempo": 120.0
            },
            {
                "start_time": 62.9409091,
                "end_time": 62.9818182,
                "pitch": 30,
                "velocity": 101,
                "duration": 0.0409091,
                "tempo": 120.0
            },
            {
                "start_time": 62.9818182,
                "end_time": 63.0022727,
                "pitch": 27,
                "velocity": 101,
                "duration": 0.0204545,
                "tempo": 120.0
            },
            {
                "start_time": 61.9227273,
                "end_time": 63.5613636,
                "pitch": 40,
                "velocity": 51,
                "duration": 1.6386364,
                "tempo": 120.0
            },
            {
                "start_time": 63.5613636,
                "end_time": 63.6022727,
                "pitch": 33,
                "velocity": 51,
                "duration": 0.0409091,
                "tempo": 120.0
            },
            {
                "start_time": 63.6022727,
                "end_time": 63.6454545,
                "pitch": 30,
                "velocity": 51,
                "duration": 0.0431818,
                "tempo": 120.0
            },
            {
                "start_time": 63.6454545,
                "end_time": 63.6659091,
                "pitch": 27,
                "velocity": 51,
                "duration": 0.0204545,
                "tempo": 120.0
            },
            {
                "start_time": 62.9,
                "end_time": 64.5477273,
                "pitch": 37,
                "velocity": 101,
                "duration": 1.6477273,
                "tempo": 120.0
            },
            {
                "start_time": 64.5454545,
                "end_time": 64.5477273,
                "pitch": 37,
                "velocity": 101,
                "duration": 0.0022727,
                "tempo": 120.0
            },
            {
                "start_time": 64.5477273,
                "end_time": 64.5863636,
                "pitch": 33,
                "velocity": 101,
                "duration": 0.0386364,
                "tempo": 120.0
            },
            {
                "start_time": 64.5863636,
                "end_time": 64.6272727,
                "pitch": 30,
                "velocity": 101,
                "duration": 0.0409091,
                "tempo": 120.0
            },
            {
                "start_time": 64.6272727,
                "end_time": 64.6477273,
                "pitch": 27,
                "velocity": 101,
                "duration": 0.0204545,
                "tempo": 120.0
            },
            {
                "start_time": 63.5613636,
                "end_time": 65.1931818,
                "pitch": 40,
                "velocity": 51,
                "duration": 1.6318182,
                "tempo": 120.0
            },
            {
                "start_time": 65.1931818,
                "end_time": 65.2340909,
                "pitch": 33,
                "velocity": 51,
                "duration": 0.0409091,
                "tempo": 120.0
            },
            {
                "start_time": 65.2340909,
                "end_time": 65.275,
                "pitch": 30,
                "velocity": 51,
                "duration": 0.0409091,
                "tempo": 120.0
            },
            {
                "start_time": 65.275,
                "end_time": 65.2954545,
                "pitch": 27,
                "velocity": 51,
                "duration": 0.0204545,
                "tempo": 120.0
            },
            {
                "start_time": 66.1659091,
                "end_time": 66.2045455,
                "pitch": 33,
                "velocity": 101,
                "duration": 0.0386364,
                "tempo": 120.0
            },
            {
                "start_time": 66.2045455,
                "end_time": 66.2454545,
                "pitch": 30,
                "velocity": 101,
                "duration": 0.0409091,
                "tempo": 120.0
            },
            {
                "start_time": 66.2454545,
                "end_time": 66.2659091,
                "pitch": 27,
                "velocity": 101,
                "duration": 0.0204545,
                "tempo": 120.0
            },
            {
                "start_time": 65.1931818,
                "end_time": 66.8204545,
                "pitch": 40,
                "velocity": 51,
                "duration": 1.6272727,
                "tempo": 120.0
            },
            {
                "start_time": 66.8204545,
                "end_time": 66.8613636,
                "pitch": 33,
                "velocity": 51,
                "duration": 0.0409091,
                "tempo": 120.0
            },
            {
                "start_time": 66.8613636,
                "end_time": 66.9022727,
                "pitch": 30,
                "velocity": 51,
                "duration": 0.0409091,
                "tempo": 120.0
            },
            {
                "start_time": 66.9022727,
                "end_time": 66.9204545,
                "pitch": 27,
                "velocity": 51,
                "duration": 0.0181818,
                "tempo": 120.0
            },
            {
                "start_time": 66.1659091,
                "end_time": 67.8022727,
                "pitch": 37,
                "velocity": 101,
                "duration": 1.6363636,
                "tempo": 120.0
            },
            {
                "start_time": 67.8022727,
                "end_time": 67.8431818,
                "pitch": 33,
                "velocity": 101,
                "duration": 0.0409091,
                "tempo": 120.0
            },
            {
                "start_time": 67.8431818,
                "end_time": 67.8840909,
                "pitch": 30,
                "velocity": 101,
                "duration": 0.0409091,
                "tempo": 120.0
            },
            {
                "start_time": 67.8840909,
                "end_time": 67.9045455,
                "pitch": 27,
                "velocity": 101,
                "duration": 0.0204545,
                "tempo": 120.0
            },
            {
                "start_time": 66.8204545,
                "end_time": 68.4568182,
                "pitch": 40,
                "velocity": 51,
                "duration": 1.6363636,
                "tempo": 120.0
            },
            {
                "start_time": 68.4568182,
                "end_time": 68.4977273,
                "pitch": 33,
                "velocity": 51,
                "duration": 0.0409091,
                "tempo": 120.0
            },
            {
                "start_time": 68.4977273,
                "end_time": 68.5386364,
                "pitch": 30,
                "velocity": 51,
                "duration": 0.0409091,
                "tempo": 120.0
            },
            {
                "start_time": 68.5386364,
                "end_time": 68.5590909,
                "pitch": 27,
                "velocity": 51,
                "duration": 0.0204545,
                "tempo": 120.0
            },
            {
                "start_time": 67.8022727,
                "end_time": 69.4295455,
                "pitch": 37,
                "velocity": 101,
                "duration": 1.6272727,
                "tempo": 120.0
            },
            {
                "start_time": 69.4295455,
                "end_time": 69.4704545,
                "pitch": 33,
                "velocity": 101,
                "duration": 0.0409091,
                "tempo": 120.0
            },
            {
                "start_time": 69.4704545,
                "end_time": 69.5113636,
                "pitch": 30,
                "velocity": 101,
                "duration": 0.0409091,
                "tempo": 120.0
            },
            {
                "start_time": 69.5113636,
                "end_time": 69.5318182,
                "pitch": 27,
                "velocity": 101,
                "duration": 0.0204545,
                "tempo": 120.0
            },
            {
                "start_time": 68.4568182,
                "end_time": 70.0840909,
                "pitch": 40,
                "velocity": 51,
                "duration": 1.6272727,
                "tempo": 120.0
            },
            {
                "start_time": 70.0840909,
                "end_time": 70.125,
                "pitch": 33,
                "velocity": 51,
                "duration": 0.0409091,
                "tempo": 120.0
            },
            {
                "start_time": 70.125,
                "end_time": 70.1659091,
                "pitch": 30,
                "velocity": 51,
                "duration": 0.0409091,
                "tempo": 120.0
            },
            {
                "start_time": 70.1659091,
                "end_time": 70.1863636,
                "pitch": 27,
                "velocity": 51,
                "duration": 0.0204545,
                "tempo": 120.0
            },
            {
                "start_time": 69.4295455,
                "end_time": 71.0659091,
                "pitch": 37,
                "velocity": 101,
                "duration": 1.6363636,
                "tempo": 120.0
            },
            {
                "start_time": 71.0659091,
                "end_time": 71.1068182,
                "pitch": 33,
                "velocity": 101,
                "duration": 0.0409091,
                "tempo": 120.0
            },
            {
                "start_time": 71.1068182,
                "end_time": 71.1477273,
                "pitch": 30,
                "velocity": 101,
                "duration": 0.0409091,
                "tempo": 120.0
            },
            {
                "start_time": 71.1477273,
                "end_time": 71.1681818,
                "pitch": 27,
                "velocity": 101,
                "duration": 0.0204545,
                "tempo": 120.0
            },
            {
                "start_time": 70.0840909,
                "end_time": 71.7204545,
                "pitch": 40,
                "velocity": 51,
                "duration": 1.6363636,
                "tempo": 120.0
            },
            {
                "start_time": 71.7204545,
                "end_time": 71.7613636,
                "pitch": 33,
                "velocity": 51,
                "duration": 0.0409091,
                "tempo": 120.0
            },
            {
                "start_time": 71.7613636,
                "end_time": 71.8022727,
                "pitch": 30,
                "velocity": 51,
                "duration": 0.0409091,
                "tempo": 120.0
            },
            {
                "start_time": 71.8022727,
                "end_time": 71.8227273,
                "pitch": 27,
                "velocity": 51,
                "duration": 0.0204545,
                "tempo": 120.0
            },
            {
                "start_time": 71.0659091,
                "end_time": 72.6954545,
                "pitch": 37,
                "velocity": 101,
                "duration": 1.6295455,
                "tempo": 120.0
            },
            {
                "start_time": 72.6954545,
                "end_time": 72.7340909,
                "pitch": 33,
                "velocity": 101,
                "duration": 0.0386364,
                "tempo": 120.0
            },
            {
                "start_time": 72.7340909,
                "end_time": 72.7772727,
                "pitch": 30,
                "velocity": 101,
                "duration": 0.0431818,
                "tempo": 120.0
            },
            {
                "start_time": 72.7772727,
                "end_time": 72.7977273,
                "pitch": 27,
                "velocity": 101,
                "duration": 0.0204545,
                "tempo": 120.0
            },
            {
                "start_time": 71.7204545,
                "end_time": 73.3568182,
                "pitch": 40,
                "velocity": 51,
                "duration": 1.6363636,
                "tempo": 120.0
            },
            {
                "start_time": 73.3568182,
                "end_time": 73.3977273,
                "pitch": 33,
                "velocity": 51,
                "duration": 0.0409091,
                "tempo": 120.0
            },
            {
                "start_time": 73.3977273,
                "end_time": 73.4386364,
                "pitch": 30,
                "velocity": 51,
                "duration": 0.0409091,
                "tempo": 120.0
            },
            {
                "start_time": 73.4386364,
                "end_time": 73.4590909,
                "pitch": 27,
                "velocity": 51,
                "duration": 0.0204545,
                "tempo": 120.0
            },
            {
                "start_time": 72.6954545,
                "end_time": 74.3409091,
                "pitch": 37,
                "velocity": 101,
                "duration": 1.6454545,
                "tempo": 120.0
            },
            {
                "start_time": 74.3409091,
                "end_time": 74.3795455,
                "pitch": 33,
                "velocity": 101,
                "duration": 0.0386364,
                "tempo": 120.0
            },
            {
                "start_time": 74.3795455,
                "end_time": 74.4181818,
                "pitch": 30,
                "velocity": 101,
                "duration": 0.0386364,
                "tempo": 120.0
            },
            {
                "start_time": 74.4181818,
                "end_time": 74.4386364,
                "pitch": 27,
                "velocity": 101,
                "duration": 0.0204545,
                "tempo": 120.0
            },
            {
                "start_time": 73.3568182,
                "end_time": 74.9727273,
                "pitch": 40,
                "velocity": 51,
                "duration": 1.6159091,
                "tempo": 120.0
            },
            {
                "start_time": 74.9727273,
                "end_time": 75.0136364,
                "pitch": 33,
                "velocity": 51,
                "duration": 0.0409091,
                "tempo": 120.0
            },
            {
                "start_time": 75.0136364,
                "end_time": 75.0522727,
                "pitch": 30,
                "velocity": 51,
                "duration": 0.0386364,
                "tempo": 120.0
            },
            {
                "start_time": 75.0522727,
                "end_time": 75.0727273,
                "pitch": 27,
                "velocity": 51,
                "duration": 0.0204545,
                "tempo": 120.0
            },
            {
                "start_time": 74.3409091,
                "end_time": 75.95,
                "pitch": 37,
                "velocity": 101,
                "duration": 1.6090909,
                "tempo": 120.0
            },
            {
                "start_time": 75.95,
                "end_time": 75.9909091,
                "pitch": 33,
                "velocity": 101,
                "duration": 0.0409091,
                "tempo": 120.0
            },
            {
                "start_time": 75.9909091,
                "end_time": 76.0318182,
                "pitch": 30,
                "velocity": 101,
                "duration": 0.0409091,
                "tempo": 120.0
            },
            {
                "start_time": 76.0318182,
                "end_time": 76.0522727,
                "pitch": 27,
                "velocity": 101,
                "duration": 0.0204545,
                "tempo": 120.0
            },
            {
                "start_time": 74.9727273,
                "end_time": 76.6045455,
                "pitch": 40,
                "velocity": 51,
                "duration": 1.6318182,
                "tempo": 120.0
            },
            {
                "start_time": 76.6045455,
                "end_time": 76.6454545,
                "pitch": 33,
                "velocity": 51,
                "duration": 0.0409091,
                "tempo": 120.0
            },
            {
                "start_time": 76.6454545,
                "end_time": 76.6863636,
                "pitch": 30,
                "velocity": 51,
                "duration": 0.0409091,
                "tempo": 120.0
            },
            {
                "start_time": 76.6863636,
                "end_time": 76.7068182,
                "pitch": 27,
                "velocity": 51,
                "duration": 0.0204545,
                "tempo": 120.0
            },
            {
                "start_time": 75.95,
                "end_time": 77.5795455,
                "pitch": 37,
                "velocity": 101,
                "duration": 1.6295455,
                "tempo": 120.0
            },
            {
                "start_time": 77.5795455,
                "end_time": 77.6181818,
                "pitch": 33,
                "velocity": 101,
                "duration": 0.0386364,
                "tempo": 120.0
            },
            {
                "start_time": 77.6181818,
                "end_time": 77.6613636,
                "pitch": 30,
                "velocity": 101,
                "duration": 0.0431818,
                "tempo": 120.0
            },
            {
                "start_time": 77.6613636,
                "end_time": 77.6818182,
                "pitch": 27,
                "velocity": 101,
                "duration": 0.0204545,
                "tempo": 120.0
            },
            {
                "start_time": 76.6045455,
                "end_time": 78.2409091,
                "pitch": 40,
                "velocity": 51,
                "duration": 1.6363636,
                "tempo": 120.0
            },
            {
                "start_time": 78.2409091,
                "end_time": 78.2818182,
                "pitch": 33,
                "velocity": 51,
                "duration": 0.0409091,
                "tempo": 120.0
            },
            {
                "start_time": 78.2818182,
                "end_time": 78.3227273,
                "pitch": 30,
                "velocity": 51,
                "duration": 0.0409091,
                "tempo": 120.0
            },
            {
                "start_time": 78.3227273,
                "end_time": 78.3431818,
                "pitch": 27,
                "velocity": 51,
                "duration": 0.0204545,
                "tempo": 120.0
            },
            {
                "start_time": 77.5795455,
                "end_time": 79.2159091,
                "pitch": 37,
                "velocity": 101,
                "duration": 1.6363636,
                "tempo": 120.0
            },
            {
                "start_time": 79.2159091,
                "end_time": 79.2545455,
                "pitch": 33,
                "velocity": 101,
                "duration": 0.0386364,
                "tempo": 120.0
            },
            {
                "start_time": 79.2545455,
                "end_time": 79.2954545,
                "pitch": 30,
                "velocity": 101,
                "duration": 0.0409091,
                "tempo": 120.0
            },
            {
                "start_time": 79.2954545,
                "end_time": 79.3159091,
                "pitch": 27,
                "velocity": 101,
                "duration": 0.0204545,
                "tempo": 120.0
            },
            {
                "start_time": 78.2409091,
                "end_time": 79.8704545,
                "pitch": 40,
                "velocity": 51,
                "duration": 1.6295455,
                "tempo": 120.0
            },
            {
                "start_time": 79.8704545,
                "end_time": 79.9113636,
                "pitch": 33,
                "velocity": 51,
                "duration": 0.0409091,
                "tempo": 120.0
            },
            {
                "start_time": 79.9113636,
                "end_time": 79.9522727,
                "pitch": 30,
                "velocity": 51,
                "duration": 0.0409091,
                "tempo": 120.0
            },
            {
                "start_time": 79.9522727,
                "end_time": 79.9727273,
                "pitch": 27,
                "velocity": 51,
                "duration": 0.0204545,
                "tempo": 120.0
            },
            {
                "start_time": 79.2159091,
                "end_time": 80.8522727,
                "pitch": 37,
                "velocity": 101,
                "duration": 1.6363636,
                "tempo": 120.0
            },
            {
                "start_time": 80.8522727,
                "end_time": 80.8931818,
                "pitch": 33,
                "velocity": 101,
                "duration": 0.0409091,
                "tempo": 120.0
            },
            {
                "start_time": 80.8931818,
                "end_time": 80.9340909,
                "pitch": 30,
                "velocity": 101,
                "duration": 0.0409091,
                "tempo": 120.0
            },
            {
                "start_time": 80.9340909,
                "end_time": 80.9545455,
                "pitch": 27,
                "velocity": 101,
                "duration": 0.0204545,
                "tempo": 120.0
            },
            {
                "start_time": 79.8704545,
                "end_time": 81.5068182,
                "pitch": 40,
                "velocity": 51,
                "duration": 1.6363636,
                "tempo": 120.0
            },
            {
                "start_time": 81.5068182,
                "end_time": 81.5477273,
                "pitch": 33,
                "velocity": 51,
                "duration": 0.0409091,
                "tempo": 120.0
            },
            {
                "start_time": 81.5477273,
                "end_time": 81.5886364,
                "pitch": 30,
                "velocity": 51,
                "duration": 0.0409091,
                "tempo": 120.0
            },
            {
                "start_time": 81.5886364,
                "end_time": 81.6090909,
                "pitch": 27,
                "velocity": 51,
                "duration": 0.0204545,
                "tempo": 120.0
            },
            {
                "start_time": 80.8522727,
                "end_time": 82.4613636,
                "pitch": 37,
                "velocity": 101,
                "duration": 1.6090909,
                "tempo": 120.0
            },
            {
                "start_time": 82.4613636,
                "end_time": 82.5022727,
                "pitch": 33,
                "velocity": 101,
                "duration": 0.0409091,
                "tempo": 120.0
            },
            {
                "start_time": 82.5022727,
                "end_time": 82.5431818,
                "pitch": 30,
                "velocity": 101,
                "duration": 0.0409091,
                "tempo": 120.0
            },
            {
                "start_time": 82.5431818,
                "end_time": 82.5636364,
                "pitch": 27,
                "velocity": 101,
                "duration": 0.0204545,
                "tempo": 120.0
            },
            {
                "start_time": 81.5068182,
                "end_time": 83.125,
                "pitch": 40,
                "velocity": 51,
                "duration": 1.6181818,
                "tempo": 120.0
            },
            {
                "start_time": 83.125,
                "end_time": 83.1659091,
                "pitch": 33,
                "velocity": 51,
                "duration": 0.0409091,
                "tempo": 120.0
            },
            {
                "start_time": 83.1659091,
                "end_time": 83.2068182,
                "pitch": 30,
                "velocity": 51,
                "duration": 0.0409091,
                "tempo": 120.0
            },
            {
                "start_time": 83.2068182,
                "end_time": 83.2272727,
                "pitch": 27,
                "velocity": 51,
                "duration": 0.0204545,
                "tempo": 120.0
            },
            {
                "start_time": 82.4613636,
                "end_time": 84.0977273,
                "pitch": 37,
                "velocity": 101,
                "duration": 1.6363636,
                "tempo": 120.0
            },
            {
                "start_time": 84.0977273,
                "end_time": 84.1386364,
                "pitch": 33,
                "velocity": 101,
                "duration": 0.0409091,
                "tempo": 120.0
            },
            {
                "start_time": 84.1386364,
                "end_time": 84.1818182,
                "pitch": 30,
                "velocity": 101,
                "duration": 0.0431818,
                "tempo": 120.0
            },
            {
                "start_time": 84.1818182,
                "end_time": 84.2022727,
                "pitch": 27,
                "velocity": 101,
                "duration": 0.0204545,
                "tempo": 120.0
            },
            {
                "start_time": 83.125,
                "end_time": 84.7613636,
                "pitch": 40,
                "velocity": 51,
                "duration": 1.6363636,
                "tempo": 120.0
            },
            {
                "start_time": 84.7613636,
                "end_time": 84.8022727,
                "pitch": 33,
                "velocity": 51,
                "duration": 0.0409091,
                "tempo": 120.0
            },
            {
                "start_time": 84.8022727,
                "end_time": 84.8431818,
                "pitch": 30,
                "velocity": 51,
                "duration": 0.0409091,
                "tempo": 120.0
            },
            {
                "start_time": 84.8431818,
                "end_time": 84.8636364,
                "pitch": 27,
                "velocity": 51,
                "duration": 0.0204545,
                "tempo": 120.0
            },
            {
                "start_time": 84.0977273,
                "end_time": 85.7363636,
                "pitch": 37,
                "velocity": 101,
                "duration": 1.6386364,
                "tempo": 120.0
            },
            {
                "start_time": 85.7363636,
                "end_time": 85.7772727,
                "pitch": 33,
                "velocity": 101,
                "duration": 0.0409091,
                "tempo": 120.0
            },
            {
                "start_time": 85.7772727,
                "end_time": 85.8181818,
                "pitch": 30,
                "velocity": 101,
                "duration": 0.0409091,
                "tempo": 120.0
            },
            {
                "start_time": 85.8181818,
                "end_time": 85.8386364,
                "pitch": 27,
                "velocity": 101,
                "duration": 0.0204545,
                "tempo": 120.0
            },
            {
                "start_time": 84.7613636,
                "end_time": 86.3977273,
                "pitch": 40,
                "velocity": 51,
                "duration": 1.6363636,
                "tempo": 120.0
            },
            {
                "start_time": 86.3977273,
                "end_time": 86.4386364,
                "pitch": 33,
                "velocity": 51,
                "duration": 0.0409091,
                "tempo": 120.0
            },
            {
                "start_time": 86.4386364,
                "end_time": 86.4795455,
                "pitch": 30,
                "velocity": 51,
                "duration": 0.0409091,
                "tempo": 120.0
            },
            {
                "start_time": 86.4795455,
                "end_time": 86.5,
                "pitch": 27,
                "velocity": 51,
                "duration": 0.0204545,
                "tempo": 120.0
            },
            {
                "start_time": 85.7363636,
                "end_time": 87.3909091,
                "pitch": 37,
                "velocity": 101,
                "duration": 1.6545455,
                "tempo": 120.0
            },
            {
                "start_time": 87.3909091,
                "end_time": 87.4295455,
                "pitch": 33,
                "velocity": 101,
                "duration": 0.0386364,
                "tempo": 120.0
            },
            {
                "start_time": 87.4295455,
                "end_time": 87.4704545,
                "pitch": 30,
                "velocity": 101,
                "duration": 0.0409091,
                "tempo": 120.0
            },
            {
                "start_time": 87.4704545,
                "end_time": 87.4886364,
                "pitch": 27,
                "velocity": 101,
                "duration": 0.0181818,
                "tempo": 120.0
            },
            {
                "start_time": 86.3977273,
                "end_time": 88.025,
                "pitch": 40,
                "velocity": 51,
                "duration": 1.6272727,
                "tempo": 120.0
            },
            {
                "start_time": 88.025,
                "end_time": 88.0636364,
                "pitch": 33,
                "velocity": 51,
                "duration": 0.0386364,
                "tempo": 120.0
            },
            {
                "start_time": 88.0636364,
                "end_time": 88.1022727,
                "pitch": 30,
                "velocity": 51,
                "duration": 0.0386364,
                "tempo": 120.0
            },
            {
                "start_time": 88.1022727,
                "end_time": 88.1227273,
                "pitch": 27,
                "velocity": 51,
                "duration": 0.0204545,
                "tempo": 120.0
            },
            {
                "start_time": 87.3909091,
                "end_time": 88.9931818,
                "pitch": 37,
                "velocity": 101,
                "duration": 1.6022727,
                "tempo": 120.0
            },
            {
                "start_time": 88.9931818,
                "end_time": 89.0318182,
                "pitch": 33,
                "velocity": 101,
                "duration": 0.0386364,
                "tempo": 120.0
            },
            {
                "start_time": 89.0318182,
                "end_time": 89.075,
                "pitch": 30,
                "velocity": 101,
                "duration": 0.0431818,
                "tempo": 120.0
            },
            {
                "start_time": 89.075,
                "end_time": 89.0954545,
                "pitch": 27,
                "velocity": 101,
                "duration": 0.0204545,
                "tempo": 120.0
            },
            {
                "start_time": 88.025,
                "end_time": 89.6545455,
                "pitch": 40,
                "velocity": 51,
                "duration": 1.6295455,
                "tempo": 120.0
            },
            {
                "start_time": 89.6545455,
                "end_time": 89.6954545,
                "pitch": 33,
                "velocity": 51,
                "duration": 0.0409091,
                "tempo": 120.0
            },
            {
                "start_time": 89.6954545,
                "end_time": 89.7363636,
                "pitch": 30,
                "velocity": 51,
                "duration": 0.0409091,
                "tempo": 120.0
            },
            {
                "start_time": 89.7363636,
                "end_time": 89.7568182,
                "pitch": 27,
                "velocity": 51,
                "duration": 0.0204545,
                "tempo": 120.0
            },
            {
                "start_time": 88.9931818,
                "end_time": 90.6386364,
                "pitch": 37,
                "velocity": 101,
                "duration": 1.6454545,
                "tempo": 120.0
            },
            {
                "start_time": 90.6386364,
                "end_time": 90.6772727,
                "pitch": 33,
                "velocity": 101,
                "duration": 0.0386364,
                "tempo": 120.0
            },
            {
                "start_time": 90.6772727,
                "end_time": 90.7181818,
                "pitch": 30,
                "velocity": 101,
                "duration": 0.0409091,
                "tempo": 120.0
            },
            {
                "start_time": 90.7181818,
                "end_time": 90.7386364,
                "pitch": 27,
                "velocity": 101,
                "duration": 0.0204545,
                "tempo": 120.0
            },
            {
                "start_time": 89.6545455,
                "end_time": 91.2863636,
                "pitch": 40,
                "velocity": 51,
                "duration": 1.6318182,
                "tempo": 120.0
            },
            {
                "start_time": 91.2863636,
                "end_time": 91.325,
                "pitch": 33,
                "velocity": 51,
                "duration": 0.0386364,
                "tempo": 120.0
            },
            {
                "start_time": 91.325,
                "end_time": 91.3659091,
                "pitch": 30,
                "velocity": 51,
                "duration": 0.0409091,
                "tempo": 120.0
            },
            {
                "start_time": 91.3659091,
                "end_time": 91.3863636,
                "pitch": 27,
                "velocity": 51,
                "duration": 0.0204545,
                "tempo": 120.0
            },
            {
                "start_time": 90.6386364,
                "end_time": 92.2568182,
                "pitch": 37,
                "velocity": 101,
                "duration": 1.6181818,
                "tempo": 120.0
            },
            {
                "start_time": 92.2568182,
                "end_time": 92.2977273,
                "pitch": 33,
                "velocity": 101,
                "duration": 0.0409091,
                "tempo": 120.0
            },
            {
                "start_time": 92.2977273,
                "end_time": 92.3386364,
                "pitch": 30,
                "velocity": 101,
                "duration": 0.0409091,
                "tempo": 120.0
            },
            {
                "start_time": 92.3386364,
                "end_time": 92.3590909,
                "pitch": 27,
                "velocity": 101,
                "duration": 0.0204545,
                "tempo": 120.0
            },
            {
                "start_time": 91.2863636,
                "end_time": 92.9113636,
                "pitch": 40,
                "velocity": 51,
                "duration": 1.625,
                "tempo": 120.0
            },
            {
                "start_time": 92.9113636,
                "end_time": 92.9477273,
                "pitch": 33,
                "velocity": 51,
                "duration": 0.0363636,
                "tempo": 120.0
            },
            {
                "start_time": 92.9477273,
                "end_time": 92.9818182,
                "pitch": 30,
                "velocity": 51,
                "duration": 0.0340909,
                "tempo": 120.0
            },
            {
                "start_time": 92.9818182,
                "end_time": 92.9977273,
                "pitch": 27,
                "velocity": 51,
                "duration": 0.0159091,
                "tempo": 120.0
            },
            {
                "start_time": 92.2568182,
                "end_time": 93.7136364,
                "pitch": 37,
                "velocity": 101,
                "duration": 1.4568182,
                "tempo": 120.0
            },
            {
                "start_time": 93.7113636,
                "end_time": 93.7136364,
                "pitch": 37,
                "velocity": 101,
                "duration": 0.0022727,
                "tempo": 120.0
            },
            {
                "start_time": 93.7136364,
                "end_time": 93.7454545,
                "pitch": 33,
                "velocity": 101,
                "duration": 0.0318182,
                "tempo": 120.0
            },
            {
                "start_time": 93.7454545,
                "end_time": 93.7772727,
                "pitch": 30,
                "velocity": 101,
                "duration": 0.0318182,
                "tempo": 120.0
            },
            {
                "start_time": 93.7772727,
                "end_time": 93.7931818,
                "pitch": 27,
                "velocity": 101,
                "duration": 0.0159091,
                "tempo": 120.0
            },
            {
                "start_time": 92.9113636,
                "end_time": 94.2340909,
                "pitch": 40,
                "velocity": 51,
                "duration": 1.3227273,
                "tempo": 120.0
            },
            {
                "start_time": 94.2340909,
                "end_time": 94.2636364,
                "pitch": 33,
                "velocity": 51,
                "duration": 0.0295455,
                "tempo": 120.0
            },
            {
                "start_time": 94.2636364,
                "end_time": 94.2977273,
                "pitch": 30,
                "velocity": 51,
                "duration": 0.0340909,
                "tempo": 120.0
            },
            {
                "start_time": 94.2977273,
                "end_time": 94.3136364,
                "pitch": 27,
                "velocity": 51,
                "duration": 0.0159091,
                "tempo": 120.0
            },
            {
                "start_time": 95.0159091,
                "end_time": 95.0454545,
                "pitch": 33,
                "velocity": 101,
                "duration": 0.0295455,
                "tempo": 120.0
            },
            {
                "start_time": 95.0454545,
                "end_time": 95.0772727,
                "pitch": 30,
                "velocity": 101,
                "duration": 0.0318182,
                "tempo": 120.0
            },
            {
                "start_time": 95.0772727,
                "end_time": 95.0931818,
                "pitch": 27,
                "velocity": 101,
                "duration": 0.0159091,
                "tempo": 120.0
            },
            {
                "start_time": 94.2340909,
                "end_time": 95.5136364,
                "pitch": 40,
                "velocity": 51,
                "duration": 1.2795455,
                "tempo": 120.0
            },
            {
                "start_time": 95.5136364,
                "end_time": 95.5454545,
                "pitch": 33,
                "velocity": 51,
                "duration": 0.0318182,
                "tempo": 120.0
            },
            {
                "start_time": 95.5454545,
                "end_time": 95.5795455,
                "pitch": 30,
                "velocity": 51,
                "duration": 0.0340909,
                "tempo": 120.0
            },
            {
                "start_time": 95.5795455,
                "end_time": 95.5954545,
                "pitch": 27,
                "velocity": 51,
                "duration": 0.0159091,
                "tempo": 120.0
            },
            {
                "start_time": 95.0159091,
                "end_time": 96.2977273,
                "pitch": 37,
                "velocity": 101,
                "duration": 1.2818182,
                "tempo": 120.0
            },
            {
                "start_time": 96.2977273,
                "end_time": 96.3272727,
                "pitch": 33,
                "velocity": 101,
                "duration": 0.0295455,
                "tempo": 120.0
            },
            {
                "start_time": 96.3272727,
                "end_time": 96.3568182,
                "pitch": 30,
                "velocity": 101,
                "duration": 0.0295455,
                "tempo": 120.0
            },
            {
                "start_time": 96.3568182,
                "end_time": 96.3727273,
                "pitch": 27,
                "velocity": 101,
                "duration": 0.0159091,
                "tempo": 120.0
            },
            {
                "start_time": 95.5136364,
                "end_time": 96.8113636,
                "pitch": 40,
                "velocity": 51,
                "duration": 1.2977273,
                "tempo": 120.0
            },
            {
                "start_time": 96.8113636,
                "end_time": 96.8454545,
                "pitch": 33,
                "velocity": 51,
                "duration": 0.0340909,
                "tempo": 120.0
            },
            {
                "start_time": 96.8454545,
                "end_time": 96.8795455,
                "pitch": 30,
                "velocity": 51,
                "duration": 0.0340909,
                "tempo": 120.0
            },
            {
                "start_time": 96.8795455,
                "end_time": 96.8954545,
                "pitch": 27,
                "velocity": 51,
                "duration": 0.0159091,
                "tempo": 120.0
            },
            {
                "start_time": 96.2977273,
                "end_time": 97.6,
                "pitch": 37,
                "velocity": 101,
                "duration": 1.3022727,
                "tempo": 120.0
            },
            {
                "start_time": 97.6,
                "end_time": 97.6318182,
                "pitch": 33,
                "velocity": 101,
                "duration": 0.0318182,
                "tempo": 120.0
            },
            {
                "start_time": 97.6318182,
                "end_time": 97.6636364,
                "pitch": 30,
                "velocity": 101,
                "duration": 0.0318182,
                "tempo": 120.0
            },
            {
                "start_time": 97.6636364,
                "end_time": 97.6795455,
                "pitch": 27,
                "velocity": 101,
                "duration": 0.0159091,
                "tempo": 120.0
            },
            {
                "start_time": 96.8113636,
                "end_time": 98.1159091,
                "pitch": 40,
                "velocity": 51,
                "duration": 1.3045455,
                "tempo": 120.0
            },
            {
                "start_time": 98.1159091,
                "end_time": 98.1477273,
                "pitch": 33,
                "velocity": 51,
                "duration": 0.0318182,
                "tempo": 120.0
            },
            {
                "start_time": 98.1477273,
                "end_time": 98.1795455,
                "pitch": 30,
                "velocity": 51,
                "duration": 0.0318182,
                "tempo": 120.0
            },
            {
                "start_time": 98.1795455,
                "end_time": 98.1954545,
                "pitch": 27,
                "velocity": 51,
                "duration": 0.0159091,
                "tempo": 120.0
            },
            {
                "start_time": 97.6,
                "end_time": 98.9022727,
                "pitch": 37,
                "velocity": 101,
                "duration": 1.3022727,
                "tempo": 120.0
            },
            {
                "start_time": 98.9022727,
                "end_time": 98.9340909,
                "pitch": 33,
                "velocity": 101,
                "duration": 0.0318182,
                "tempo": 120.0
            },
            {
                "start_time": 98.9340909,
                "end_time": 98.9681818,
                "pitch": 30,
                "velocity": 101,
                "duration": 0.0340909,
                "tempo": 120.0
            },
            {
                "start_time": 98.9681818,
                "end_time": 98.9840909,
                "pitch": 27,
                "velocity": 101,
                "duration": 0.0159091,
                "tempo": 120.0
            },
            {
                "start_time": 98.1159091,
                "end_time": 99.4272727,
                "pitch": 40,
                "velocity": 51,
                "duration": 1.3113636,
                "tempo": 120.0
            },
            {
                "start_time": 99.4272727,
                "end_time": 99.4590909,
                "pitch": 33,
                "velocity": 51,
                "duration": 0.0318182,
                "tempo": 120.0
            },
            {
                "start_time": 99.4590909,
                "end_time": 99.4931818,
                "pitch": 30,
                "velocity": 51,
                "duration": 0.0340909,
                "tempo": 120.0
            },
            {
                "start_time": 99.4931818,
                "end_time": 99.5090909,
                "pitch": 27,
                "velocity": 51,
                "duration": 0.0159091,
                "tempo": 120.0
            },
            {
                "start_time": 98.9022727,
                "end_time": 100.1977273,
                "pitch": 37,
                "velocity": 101,
                "duration": 1.2954545,
                "tempo": 120.0
            },
            {
                "start_time": 100.1977273,
                "end_time": 100.2295455,
                "pitch": 33,
                "velocity": 101,
                "duration": 0.0318182,
                "tempo": 120.0
            },
            {
                "start_time": 100.2295455,
                "end_time": 100.2613636,
                "pitch": 30,
                "velocity": 101,
                "duration": 0.0318182,
                "tempo": 120.0
            },
            {
                "start_time": 100.2613636,
                "end_time": 100.2772727,
                "pitch": 27,
                "velocity": 101,
                "duration": 0.0159091,
                "tempo": 120.0
            },
            {
                "start_time": 99.4272727,
                "end_time": 100.7136364,
                "pitch": 40,
                "velocity": 51,
                "duration": 1.2863636,
                "tempo": 120.0
            },
            {
                "start_time": 100.7136364,
                "end_time": 100.7454545,
                "pitch": 33,
                "velocity": 51,
                "duration": 0.0318182,
                "tempo": 120.0
            },
            {
                "start_time": 100.7454545,
                "end_time": 100.7772727,
                "pitch": 30,
                "velocity": 51,
                "duration": 0.0318182,
                "tempo": 120.0
            },
            {
                "start_time": 100.7772727,
                "end_time": 100.7931818,
                "pitch": 27,
                "velocity": 51,
                "duration": 0.0159091,
                "tempo": 120.0
            },
            {
                "start_time": 100.1977273,
                "end_time": 101.5,
                "pitch": 37,
                "velocity": 101,
                "duration": 1.3022727,
                "tempo": 120.0
            },
            {
                "start_time": 101.5,
                "end_time": 101.5318182,
                "pitch": 33,
                "velocity": 101,
                "duration": 0.0318182,
                "tempo": 120.0
            },
            {
                "start_time": 101.5318182,
                "end_time": 101.5659091,
                "pitch": 30,
                "velocity": 101,
                "duration": 0.0340909,
                "tempo": 120.0
            },
            {
                "start_time": 101.5659091,
                "end_time": 101.5818182,
                "pitch": 27,
                "velocity": 101,
                "duration": 0.0159091,
                "tempo": 120.0
            },
            {
                "start_time": 100.7136364,
                "end_time": 102.025,
                "pitch": 40,
                "velocity": 51,
                "duration": 1.3113636,
                "tempo": 120.0
            },
            {
                "start_time": 102.025,
                "end_time": 102.0568182,
                "pitch": 33,
                "velocity": 51,
                "duration": 0.0318182,
                "tempo": 120.0
            },
            {
                "start_time": 102.0568182,
                "end_time": 102.0909091,
                "pitch": 30,
                "velocity": 51,
                "duration": 0.0340909,
                "tempo": 120.0
            },
            {
                "start_time": 102.0909091,
                "end_time": 102.1068182,
                "pitch": 27,
                "velocity": 51,
                "duration": 0.0159091,
                "tempo": 120.0
            },
            {
                "start_time": 101.5,
                "end_time": 102.8045455,
                "pitch": 37,
                "velocity": 101,
                "duration": 1.3045455,
                "tempo": 120.0
            },
            {
                "start_time": 102.8045455,
                "end_time": 102.8340909,
                "pitch": 33,
                "velocity": 101,
                "duration": 0.0295455,
                "tempo": 120.0
            },
            {
                "start_time": 102.8340909,
                "end_time": 102.8681818,
                "pitch": 30,
                "velocity": 101,
                "duration": 0.0340909,
                "tempo": 120.0
            },
            {
                "start_time": 102.8681818,
                "end_time": 102.8840909,
                "pitch": 27,
                "velocity": 101,
                "duration": 0.0159091,
                "tempo": 120.0
            },
            {
                "start_time": 102.025,
                "end_time": 103.3181818,
                "pitch": 40,
                "velocity": 51,
                "duration": 1.2931818,
                "tempo": 120.0
            },
            {
                "start_time": 103.3181818,
                "end_time": 103.35,
                "pitch": 33,
                "velocity": 51,
                "duration": 0.0318182,
                "tempo": 120.0
            },
            {
                "start_time": 103.35,
                "end_time": 103.3840909,
                "pitch": 30,
                "velocity": 51,
                "duration": 0.0340909,
                "tempo": 120.0
            },
            {
                "start_time": 103.3840909,
                "end_time": 103.4,
                "pitch": 27,
                "velocity": 51,
                "duration": 0.0159091,
                "tempo": 120.0
            },
            {
                "start_time": 102.8045455,
                "end_time": 104.2613636,
                "pitch": 37,
                "velocity": 101,
                "duration": 1.4568182,
                "tempo": 120.0
            },
            {
                "start_time": 104.2613636,
                "end_time": 104.3022727,
                "pitch": 33,
                "velocity": 101,
                "duration": 0.0409091,
                "tempo": 120.0
            },
            {
                "start_time": 104.3022727,
                "end_time": 104.3431818,
                "pitch": 30,
                "velocity": 101,
                "duration": 0.0409091,
                "tempo": 120.0
            },
            {
                "start_time": 104.3431818,
                "end_time": 104.3613636,
                "pitch": 27,
                "velocity": 101,
                "duration": 0.0181818,
                "tempo": 120.0
            },
            {
                "start_time": 103.3181818,
                "end_time": 104.9090909,
                "pitch": 40,
                "velocity": 51,
                "duration": 1.5909091,
                "tempo": 120.0
            },
            {
                "start_time": 104.9090909,
                "end_time": 104.95,
                "pitch": 33,
                "velocity": 51,
                "duration": 0.0409091,
                "tempo": 120.0
            },
            {
                "start_time": 104.95,
                "end_time": 104.9886364,
                "pitch": 30,
                "velocity": 51,
                "duration": 0.0386364,
                "tempo": 120.0
            },
            {
                "start_time": 104.9886364,
                "end_time": 105.0090909,
                "pitch": 27,
                "velocity": 51,
                "duration": 0.0204545,
                "tempo": 120.0
            },
            {
                "start_time": 104.2613636,
                "end_time": 105.8795455,
                "pitch": 37,
                "velocity": 101,
                "duration": 1.6181818,
                "tempo": 120.0
            },
            {
                "start_time": 105.8795455,
                "end_time": 105.9204545,
                "pitch": 33,
                "velocity": 101,
                "duration": 0.0409091,
                "tempo": 120.0
            },
            {
                "start_time": 105.9204545,
                "end_time": 105.9613636,
                "pitch": 30,
                "velocity": 101,
                "duration": 0.0409091,
                "tempo": 120.0
            },
            {
                "start_time": 105.9613636,
                "end_time": 105.9818182,
                "pitch": 27,
                "velocity": 101,
                "duration": 0.0204545,
                "tempo": 120.0
            },
            {
                "start_time": 104.9090909,
                "end_time": 106.5431818,
                "pitch": 40,
                "velocity": 51,
                "duration": 1.6340909,
                "tempo": 120.0
            },
            {
                "start_time": 106.5431818,
                "end_time": 106.5840909,
                "pitch": 33,
                "velocity": 51,
                "duration": 0.0409091,
                "tempo": 120.0
            },
            {
                "start_time": 106.5840909,
                "end_time": 106.625,
                "pitch": 30,
                "velocity": 51,
                "duration": 0.0409091,
                "tempo": 120.0
            },
            {
                "start_time": 106.625,
                "end_time": 106.6454545,
                "pitch": 27,
                "velocity": 51,
                "duration": 0.0204545,
                "tempo": 120.0
            },
            {
                "start_time": 105.8795455,
                "end_time": 107.5181818,
                "pitch": 37,
                "velocity": 101,
                "duration": 1.6386364,
                "tempo": 120.0
            },
            {
                "start_time": 107.5181818,
                "end_time": 107.5568182,
                "pitch": 33,
                "velocity": 101,
                "duration": 0.0386364,
                "tempo": 120.0
            },
            {
                "start_time": 107.5568182,
                "end_time": 107.5977273,
                "pitch": 30,
                "velocity": 101,
                "duration": 0.0409091,
                "tempo": 120.0
            },
            {
                "start_time": 107.5977273,
                "end_time": 107.6181818,
                "pitch": 27,
                "velocity": 101,
                "duration": 0.0204545,
                "tempo": 120.0
            },
            {
                "start_time": 106.5431818,
                "end_time": 108.1659091,
                "pitch": 40,
                "velocity": 51,
                "duration": 1.6227273,
                "tempo": 120.0
            },
            {
                "start_time": 108.1636364,
                "end_time": 108.1659091,
                "pitch": 40,
                "velocity": 51,
                "duration": 0.0022727,
                "tempo": 120.0
            },
            {
                "start_time": 108.1659091,
                "end_time": 108.2045455,
                "pitch": 33,
                "velocity": 51,
                "duration": 0.0386364,
                "tempo": 120.0
            },
            {
                "start_time": 108.2045455,
                "end_time": 108.2454545,
                "pitch": 30,
                "velocity": 51,
                "duration": 0.0409091,
                "tempo": 120.0
            },
            {
                "start_time": 108.2454545,
                "end_time": 108.2659091,
                "pitch": 27,
                "velocity": 51,
                "duration": 0.0204545,
                "tempo": 120.0
            },
            {
                "start_time": 107.5181818,
                "end_time": 109.1454545,
                "pitch": 37,
                "velocity": 101,
                "duration": 1.6272727,
                "tempo": 120.0
            },
            {
                "start_time": 109.1454545,
                "end_time": 109.1863636,
                "pitch": 33,
                "velocity": 101,
                "duration": 0.0409091,
                "tempo": 120.0
            },
            {
                "start_time": 109.1863636,
                "end_time": 109.2272727,
                "pitch": 30,
                "velocity": 101,
                "duration": 0.0409091,
                "tempo": 120.0
            },
            {
                "start_time": 109.2272727,
                "end_time": 109.2477273,
                "pitch": 27,
                "velocity": 101,
                "duration": 0.0204545,
                "tempo": 120.0
            },
            {
                "start_time": 109.8,
                "end_time": 109.8409091,
                "pitch": 33,
                "velocity": 51,
                "duration": 0.0409091,
                "tempo": 120.0
            },
            {
                "start_time": 109.8409091,
                "end_time": 109.8818182,
                "pitch": 30,
                "velocity": 51,
                "duration": 0.0409091,
                "tempo": 120.0
            },
            {
                "start_time": 109.8818182,
                "end_time": 109.9022727,
                "pitch": 27,
                "velocity": 51,
                "duration": 0.0204545,
                "tempo": 120.0
            },
            {
                "start_time": 109.1454545,
                "end_time": 110.7727273,
                "pitch": 37,
                "velocity": 101,
                "duration": 1.6272727,
                "tempo": 120.0
            },
            {
                "start_time": 110.7727273,
                "end_time": 110.8136364,
                "pitch": 33,
                "velocity": 101,
                "duration": 0.0409091,
                "tempo": 120.0
            },
            {
                "start_time": 110.8136364,
                "end_time": 110.8545455,
                "pitch": 30,
                "velocity": 101,
                "duration": 0.0409091,
                "tempo": 120.0
            },
            {
                "start_time": 110.8545455,
                "end_time": 110.875,
                "pitch": 27,
                "velocity": 101,
                "duration": 0.0204545,
                "tempo": 120.0
            },
            {
                "start_time": 109.8,
                "end_time": 111.4272727,
                "pitch": 40,
                "velocity": 51,
                "duration": 1.6272727,
                "tempo": 120.0
            },
            {
                "start_time": 111.4272727,
                "end_time": 111.4681818,
                "pitch": 33,
                "velocity": 51,
                "duration": 0.0409091,
                "tempo": 120.0
            },
            {
                "start_time": 111.4681818,
                "end_time": 111.5090909,
                "pitch": 30,
                "velocity": 51,
                "duration": 0.0409091,
                "tempo": 120.0
            },
            {
                "start_time": 111.5090909,
                "end_time": 111.5295455,
                "pitch": 27,
                "velocity": 51,
                "duration": 0.0204545,
                "tempo": 120.0
            },
            {
                "start_time": 110.7727273,
                "end_time": 112.4,
                "pitch": 37,
                "velocity": 101,
                "duration": 1.6272727,
                "tempo": 120.0
            },
            {
                "start_time": 112.4,
                "end_time": 112.4409091,
                "pitch": 33,
                "velocity": 101,
                "duration": 0.0409091,
                "tempo": 120.0
            },
            {
                "start_time": 112.4409091,
                "end_time": 112.4818182,
                "pitch": 30,
                "velocity": 101,
                "duration": 0.0409091,
                "tempo": 120.0
            },
            {
                "start_time": 112.4818182,
                "end_time": 112.5022727,
                "pitch": 27,
                "velocity": 101,
                "duration": 0.0204545,
                "tempo": 120.0
            },
            {
                "start_time": 111.4272727,
                "end_time": 113.0636364,
                "pitch": 40,
                "velocity": 51,
                "duration": 1.6363636,
                "tempo": 120.0
            },
            {
                "start_time": 113.0613636,
                "end_time": 113.0636364,
                "pitch": 40,
                "velocity": 51,
                "duration": 0.0022727,
                "tempo": 120.0
            },
            {
                "start_time": 113.0636364,
                "end_time": 113.1022727,
                "pitch": 33,
                "velocity": 51,
                "duration": 0.0386364,
                "tempo": 120.0
            },
            {
                "start_time": 113.1022727,
                "end_time": 113.1454545,
                "pitch": 30,
                "velocity": 51,
                "duration": 0.0431818,
                "tempo": 120.0
            },
            {
                "start_time": 113.1454545,
                "end_time": 113.1659091,
                "pitch": 27,
                "velocity": 51,
                "duration": 0.0204545,
                "tempo": 120.0
            },
            {
                "start_time": 112.4,
                "end_time": 114.0568182,
                "pitch": 37,
                "velocity": 101,
                "duration": 1.6568182,
                "tempo": 120.0
            },
            {
                "start_time": 114.0568182,
                "end_time": 114.0954545,
                "pitch": 33,
                "velocity": 101,
                "duration": 0.0386364,
                "tempo": 120.0
            },
            {
                "start_time": 114.0954545,
                "end_time": 114.1340909,
                "pitch": 30,
                "velocity": 101,
                "duration": 0.0386364,
                "tempo": 120.0
            },
            {
                "start_time": 114.1340909,
                "end_time": 114.1545455,
                "pitch": 27,
                "velocity": 101,
                "duration": 0.0204545,
                "tempo": 120.0
            },
            {
                "start_time": 114.6886364,
                "end_time": 114.7272727,
                "pitch": 33,
                "velocity": 51,
                "duration": 0.0386364,
                "tempo": 120.0
            },
            {
                "start_time": 114.7272727,
                "end_time": 114.7681818,
                "pitch": 30,
                "velocity": 51,
                "duration": 0.0409091,
                "tempo": 120.0
            },
            {
                "start_time": 114.7681818,
                "end_time": 114.7863636,
                "pitch": 27,
                "velocity": 51,
                "duration": 0.0181818,
                "tempo": 120.0
            },
            {
                "start_time": 114.0568182,
                "end_time": 115.6568182,
                "pitch": 37,
                "velocity": 101,
                "duration": 1.6,
                "tempo": 120.0
            },
            {
                "start_time": 115.6568182,
                "end_time": 115.6977273,
                "pitch": 33,
                "velocity": 101,
                "duration": 0.0409091,
                "tempo": 120.0
            },
            {
                "start_time": 115.6977273,
                "end_time": 115.7386364,
                "pitch": 30,
                "velocity": 101,
                "duration": 0.0409091,
                "tempo": 120.0
            },
            {
                "start_time": 115.7386364,
                "end_time": 115.7590909,
                "pitch": 27,
                "velocity": 101,
                "duration": 0.0204545,
                "tempo": 120.0
            },
            {
                "start_time": 114.6886364,
                "end_time": 116.3181818,
                "pitch": 40,
                "velocity": 51,
                "duration": 1.6295455,
                "tempo": 120.0
            },
            {
                "start_time": 116.3181818,
                "end_time": 116.3590909,
                "pitch": 33,
                "velocity": 51,
                "duration": 0.0409091,
                "tempo": 120.0
            },
            {
                "start_time": 116.3590909,
                "end_time": 116.4022727,
                "pitch": 30,
                "velocity": 51,
                "duration": 0.0431818,
                "tempo": 120.0
            },
            {
                "start_time": 116.4022727,
                "end_time": 116.4227273,
                "pitch": 27,
                "velocity": 51,
                "duration": 0.0204545,
                "tempo": 120.0
            },
            {
                "start_time": 115.6568182,
                "end_time": 117.2931818,
                "pitch": 37,
                "velocity": 101,
                "duration": 1.6363636,
                "tempo": 120.0
            },
            {
                "start_time": 117.2931818,
                "end_time": 117.3340909,
                "pitch": 33,
                "velocity": 101,
                "duration": 0.0409091,
                "tempo": 120.0
            },
            {
                "start_time": 117.3340909,
                "end_time": 117.375,
                "pitch": 30,
                "velocity": 101,
                "duration": 0.0409091,
                "tempo": 120.0
            },
            {
                "start_time": 117.375,
                "end_time": 117.3954545,
                "pitch": 27,
                "velocity": 101,
                "duration": 0.0204545,
                "tempo": 120.0
            },
            {
                "start_time": 116.3181818,
                "end_time": 117.9477273,
                "pitch": 40,
                "velocity": 51,
                "duration": 1.6295455,
                "tempo": 120.0
            },
            {
                "start_time": 117.9477273,
                "end_time": 117.9886364,
                "pitch": 33,
                "velocity": 51,
                "duration": 0.0409091,
                "tempo": 120.0
            },
            {
                "start_time": 117.9886364,
                "end_time": 118.0295455,
                "pitch": 30,
                "velocity": 51,
                "duration": 0.0409091,
                "tempo": 120.0
            },
            {
                "start_time": 118.0295455,
                "end_time": 118.05,
                "pitch": 27,
                "velocity": 51,
                "duration": 0.0204545,
                "tempo": 120.0
            },
            {
                "start_time": 117.2931818,
                "end_time": 118.9227273,
                "pitch": 37,
                "velocity": 101,
                "duration": 1.6295455,
                "tempo": 120.0
            },
            {
                "start_time": 118.9227273,
                "end_time": 118.9613636,
                "pitch": 33,
                "velocity": 101,
                "duration": 0.0386364,
                "tempo": 120.0
            },
            {
                "start_time": 118.9613636,
                "end_time": 119.0045455,
                "pitch": 30,
                "velocity": 101,
                "duration": 0.0431818,
                "tempo": 120.0
            },
            {
                "start_time": 119.0045455,
                "end_time": 119.025,
                "pitch": 27,
                "velocity": 101,
                "duration": 0.0204545,
                "tempo": 120.0
            },
            {
                "start_time": 117.9477273,
                "end_time": 119.5840909,
                "pitch": 40,
                "velocity": 51,
                "duration": 1.6363636,
                "tempo": 120.0
            },
            {
                "start_time": 119.5840909,
                "end_time": 119.6181818,
                "pitch": 33,
                "velocity": 51,
                "duration": 0.0340909,
                "tempo": 120.0
            },
            {
                "start_time": 119.6181818,
                "end_time": 119.6522727,
                "pitch": 30,
                "velocity": 51,
                "duration": 0.0340909,
                "tempo": 120.0
            },
            {
                "start_time": 119.6522727,
                "end_time": 119.6681818,
                "pitch": 27,
                "velocity": 51,
                "duration": 0.0159091,
                "tempo": 120.0
            },
            {
                "start_time": 118.9227273,
                "end_time": 120.3659091,
                "pitch": 37,
                "velocity": 101,
                "duration": 1.4431818,
                "tempo": 120.0
            },
            {
                "start_time": 120.3659091,
                "end_time": 120.3954545,
                "pitch": 33,
                "velocity": 101,
                "duration": 0.0295455,
                "tempo": 120.0
            },
            {
                "start_time": 120.3954545,
                "end_time": 120.4272727,
                "pitch": 30,
                "velocity": 101,
                "duration": 0.0318182,
                "tempo": 120.0
            },
            {
                "start_time": 120.4272727,
                "end_time": 120.4431818,
                "pitch": 27,
                "velocity": 101,
                "duration": 0.0159091,
                "tempo": 120.0
            },
            {
                "start_time": 119.5840909,
                "end_time": 120.8886364,
                "pitch": 40,
                "velocity": 51,
                "duration": 1.3045455,
                "tempo": 120.0
            },
            {
                "start_time": 120.8886364,
                "end_time": 120.9227273,
                "pitch": 33,
                "velocity": 51,
                "duration": 0.0340909,
                "tempo": 120.0
            },
            {
                "start_time": 120.9227273,
                "end_time": 120.9568182,
                "pitch": 30,
                "velocity": 51,
                "duration": 0.0340909,
                "tempo": 120.0
            },
            {
                "start_time": 120.9568182,
                "end_time": 120.9727273,
                "pitch": 27,
                "velocity": 51,
                "duration": 0.0159091,
                "tempo": 120.0
            },
            {
                "start_time": 120.3659091,
                "end_time": 121.6772727,
                "pitch": 37,
                "velocity": 101,
                "duration": 1.3113636,
                "tempo": 120.0
            },
            {
                "start_time": 121.6772727,
                "end_time": 121.7090909,
                "pitch": 33,
                "velocity": 101,
                "duration": 0.0318182,
                "tempo": 120.0
            },
            {
                "start_time": 121.7090909,
                "end_time": 121.7409091,
                "pitch": 30,
                "velocity": 101,
                "duration": 0.0318182,
                "tempo": 120.0
            },
            {
                "start_time": 121.7409091,
                "end_time": 121.7568182,
                "pitch": 27,
                "velocity": 101,
                "duration": 0.0159091,
                "tempo": 120.0
            },
            {
                "start_time": 120.8886364,
                "end_time": 122.1931818,
                "pitch": 40,
                "velocity": 51,
                "duration": 1.3045455,
                "tempo": 120.0
            },
            {
                "start_time": 122.1931818,
                "end_time": 122.225,
                "pitch": 33,
                "velocity": 51,
                "duration": 0.0318182,
                "tempo": 120.0
            },
            {
                "start_time": 122.225,
                "end_time": 122.2590909,
                "pitch": 30,
                "velocity": 51,
                "duration": 0.0340909,
                "tempo": 120.0
            },
            {
                "start_time": 122.2590909,
                "end_time": 122.275,
                "pitch": 27,
                "velocity": 51,
                "duration": 0.0159091,
                "tempo": 120.0
            },
            {
                "start_time": 121.6772727,
                "end_time": 122.9818182,
                "pitch": 37,
                "velocity": 101,
                "duration": 1.3045455,
                "tempo": 120.0
            },
            {
                "start_time": 122.9818182,
                "end_time": 123.0136364,
                "pitch": 33,
                "velocity": 101,
                "duration": 0.0318182,
                "tempo": 120.0
            },
            {
                "start_time": 123.0136364,
                "end_time": 123.0454545,
                "pitch": 30,
                "velocity": 101,
                "duration": 0.0318182,
                "tempo": 120.0
            },
            {
                "start_time": 123.0454545,
                "end_time": 123.0613636,
                "pitch": 27,
                "velocity": 101,
                "duration": 0.0159091,
                "tempo": 120.0
            },
            {
                "start_time": 122.1931818,
                "end_time": 123.5045455,
                "pitch": 40,
                "velocity": 51,
                "duration": 1.3113636,
                "tempo": 120.0
            },
            {
                "start_time": 123.5045455,
                "end_time": 123.5386364,
                "pitch": 33,
                "velocity": 51,
                "duration": 0.0340909,
                "tempo": 120.0
            },
            {
                "start_time": 123.5386364,
                "end_time": 123.5704545,
                "pitch": 30,
                "velocity": 51,
                "duration": 0.0318182,
                "tempo": 120.0
            },
            {
                "start_time": 123.5704545,
                "end_time": 123.5863636,
                "pitch": 27,
                "velocity": 51,
                "duration": 0.0159091,
                "tempo": 120.0
            },
            {
                "start_time": 122.9818182,
                "end_time": 124.275,
                "pitch": 37,
                "velocity": 101,
                "duration": 1.2931818,
                "tempo": 120.0
            },
            {
                "start_time": 124.275,
                "end_time": 124.3068182,
                "pitch": 33,
                "velocity": 101,
                "duration": 0.0318182,
                "tempo": 120.0
            },
            {
                "start_time": 124.3068182,
                "end_time": 124.3386364,
                "pitch": 30,
                "velocity": 101,
                "duration": 0.0318182,
                "tempo": 120.0
            },
            {
                "start_time": 124.3386364,
                "end_time": 124.3545455,
                "pitch": 27,
                "velocity": 101,
                "duration": 0.0159091,
                "tempo": 120.0
            },
            {
                "start_time": 123.5045455,
                "end_time": 124.7818182,
                "pitch": 40,
                "velocity": 51,
                "duration": 1.2772727,
                "tempo": 120.0
            },
            {
                "start_time": 124.7818182,
                "end_time": 124.8136364,
                "pitch": 33,
                "velocity": 51,
                "duration": 0.0318182,
                "tempo": 120.0
            },
            {
                "start_time": 124.8136364,
                "end_time": 124.8477273,
                "pitch": 30,
                "velocity": 51,
                "duration": 0.0340909,
                "tempo": 120.0
            },
            {
                "start_time": 124.8477273,
                "end_time": 124.8636364,
                "pitch": 27,
                "velocity": 51,
                "duration": 0.0159091,
                "tempo": 120.0
            },
            {
                "start_time": 124.275,
                "end_time": 125.5704545,
                "pitch": 37,
                "velocity": 101,
                "duration": 1.2954545,
                "tempo": 120.0
            },
            {
                "start_time": 125.5704545,
                "end_time": 125.6022727,
                "pitch": 33,
                "velocity": 101,
                "duration": 0.0318182,
                "tempo": 120.0
            },
            {
                "start_time": 125.6022727,
                "end_time": 125.6340909,
                "pitch": 30,
                "velocity": 101,
                "duration": 0.0318182,
                "tempo": 120.0
            },
            {
                "start_time": 125.6340909,
                "end_time": 125.65,
                "pitch": 27,
                "velocity": 101,
                "duration": 0.0159091,
                "tempo": 120.0
            },
            {
                "start_time": 124.7818182,
                "end_time": 126.0931818,
                "pitch": 40,
                "velocity": 51,
                "duration": 1.3113636,
                "tempo": 120.0
            },
            {
                "start_time": 126.0931818,
                "end_time": 126.1272727,
                "pitch": 33,
                "velocity": 51,
                "duration": 0.0340909,
                "tempo": 120.0
            },
            {
                "start_time": 126.1272727,
                "end_time": 126.1590909,
                "pitch": 30,
                "velocity": 51,
                "duration": 0.0318182,
                "tempo": 120.0
            },
            {
                "start_time": 126.1590909,
                "end_time": 126.175,
                "pitch": 27,
                "velocity": 51,
                "duration": 0.0159091,
                "tempo": 120.0
            },
            {
                "start_time": 125.5704545,
                "end_time": 126.8818182,
                "pitch": 37,
                "velocity": 101,
                "duration": 1.3113636,
                "tempo": 120.0
            },
            {
                "start_time": 126.8818182,
                "end_time": 126.9136364,
                "pitch": 33,
                "velocity": 101,
                "duration": 0.0318182,
                "tempo": 120.0
            },
            {
                "start_time": 126.9136364,
                "end_time": 126.9431818,
                "pitch": 30,
                "velocity": 101,
                "duration": 0.0295455,
                "tempo": 120.0
            },
            {
                "start_time": 126.9431818,
                "end_time": 126.9590909,
                "pitch": 27,
                "velocity": 101,
                "duration": 0.0159091,
                "tempo": 120.0
            },
            {
                "start_time": 126.0931818,
                "end_time": 127.3795455,
                "pitch": 40,
                "velocity": 51,
                "duration": 1.2863636,
                "tempo": 120.0
            },
            {
                "start_time": 127.3795455,
                "end_time": 127.4113636,
                "pitch": 33,
                "velocity": 51,
                "duration": 0.0318182,
                "tempo": 120.0
            },
            {
                "start_time": 127.4113636,
                "end_time": 127.4454545,
                "pitch": 30,
                "velocity": 51,
                "duration": 0.0340909,
                "tempo": 120.0
            },
            {
                "start_time": 127.4454545,
                "end_time": 127.4613636,
                "pitch": 27,
                "velocity": 51,
                "duration": 0.0159091,
                "tempo": 120.0
            },
            {
                "start_time": 126.8818182,
                "end_time": 128.1545455,
                "pitch": 37,
                "velocity": 101,
                "duration": 1.2727273,
                "tempo": 120.0
            },
            {
                "start_time": 128.1545455,
                "end_time": 128.1840909,
                "pitch": 33,
                "velocity": 101,
                "duration": 0.0295455,
                "tempo": 120.0
            },
            {
                "start_time": 128.1840909,
                "end_time": 128.2159091,
                "pitch": 30,
                "velocity": 101,
                "duration": 0.0318182,
                "tempo": 120.0
            },
            {
                "start_time": 128.2159091,
                "end_time": 128.2295455,
                "pitch": 27,
                "velocity": 101,
                "duration": 0.0136364,
                "tempo": 120.0
            },
            {
                "start_time": 127.3795455,
                "end_time": 128.6681818,
                "pitch": 40,
                "velocity": 51,
                "duration": 1.2886364,
                "tempo": 120.0
            },
            {
                "start_time": 128.6681818,
                "end_time": 128.7022727,
                "pitch": 33,
                "velocity": 51,
                "duration": 0.0340909,
                "tempo": 120.0
            },
            {
                "start_time": 128.7022727,
                "end_time": 128.7363636,
                "pitch": 30,
                "velocity": 51,
                "duration": 0.0340909,
                "tempo": 120.0
            },
            {
                "start_time": 128.7363636,
                "end_time": 128.7522727,
                "pitch": 27,
                "velocity": 51,
                "duration": 0.0159091,
                "tempo": 120.0
            },
            {
                "start_time": 128.1545455,
                "end_time": 129.4659091,
                "pitch": 37,
                "velocity": 101,
                "duration": 1.3113636,
                "tempo": 120.0
            },
            {
                "start_time": 129.4659091,
                "end_time": 129.4977273,
                "pitch": 33,
                "velocity": 101,
                "duration": 0.0318182,
                "tempo": 120.0
            },
            {
                "start_time": 129.4977273,
                "end_time": 129.5318182,
                "pitch": 30,
                "velocity": 101,
                "duration": 0.0340909,
                "tempo": 120.0
            },
            {
                "start_time": 129.5318182,
                "end_time": 129.5477273,
                "pitch": 27,
                "velocity": 101,
                "duration": 0.0159091,
                "tempo": 120.0
            },
            {
                "start_time": 128.6681818,
                "end_time": 129.9818182,
                "pitch": 40,
                "velocity": 51,
                "duration": 1.3136364,
                "tempo": 120.0
            },
            {
                "start_time": 129.9818182,
                "end_time": 130.0136364,
                "pitch": 33,
                "velocity": 51,
                "duration": 0.0318182,
                "tempo": 120.0
            },
            {
                "start_time": 130.0136364,
                "end_time": 130.0477273,
                "pitch": 30,
                "velocity": 51,
                "duration": 0.0340909,
                "tempo": 120.0
            },
            {
                "start_time": 130.0477273,
                "end_time": 130.0636364,
                "pitch": 27,
                "velocity": 51,
                "duration": 0.0159091,
                "tempo": 120.0
            },
            {
                "start_time": 129.4659091,
                "end_time": 130.7704545,
                "pitch": 37,
                "velocity": 101,
                "duration": 1.3045455,
                "tempo": 120.0
            },
            {
                "start_time": 130.7704545,
                "end_time": 130.8022727,
                "pitch": 33,
                "velocity": 101,
                "duration": 0.0318182,
                "tempo": 120.0
            },
            {
                "start_time": 130.8022727,
                "end_time": 130.8340909,
                "pitch": 30,
                "velocity": 101,
                "duration": 0.0318182,
                "tempo": 120.0
            },
            {
                "start_time": 130.8340909,
                "end_time": 130.85,
                "pitch": 27,
                "velocity": 101,
                "duration": 0.0159091,
                "tempo": 120.0
            },
            {
                "start_time": 129.9818182,
                "end_time": 131.2954545,
                "pitch": 40,
                "velocity": 51,
                "duration": 1.3136364,
                "tempo": 120.0
            },
            {
                "start_time": 131.2954545,
                "end_time": 131.3272727,
                "pitch": 33,
                "velocity": 51,
                "duration": 0.0318182,
                "tempo": 120.0
            },
            {
                "start_time": 131.3272727,
                "end_time": 131.3590909,
                "pitch": 30,
                "velocity": 51,
                "duration": 0.0318182,
                "tempo": 120.0
            },
            {
                "start_time": 131.3590909,
                "end_time": 131.375,
                "pitch": 27,
                "velocity": 51,
                "duration": 0.0159091,
                "tempo": 120.0
            },
            {
                "start_time": 130.7704545,
                "end_time": 132.0545455,
                "pitch": 37,
                "velocity": 101,
                "duration": 1.2840909,
                "tempo": 120.0
            },
            {
                "start_time": 132.0545455,
                "end_time": 132.0863636,
                "pitch": 33,
                "velocity": 101,
                "duration": 0.0318182,
                "tempo": 120.0
            },
            {
                "start_time": 132.0863636,
                "end_time": 132.1204545,
                "pitch": 30,
                "velocity": 101,
                "duration": 0.0340909,
                "tempo": 120.0
            },
            {
                "start_time": 132.1204545,
                "end_time": 132.1363636,
                "pitch": 27,
                "velocity": 101,
                "duration": 0.0159091,
                "tempo": 120.0
            },
            {
                "start_time": 131.2954545,
                "end_time": 132.5704545,
                "pitch": 40,
                "velocity": 51,
                "duration": 1.275,
                "tempo": 120.0
            },
            {
                "start_time": 132.5704545,
                "end_time": 132.6022727,
                "pitch": 33,
                "velocity": 51,
                "duration": 0.0318182,
                "tempo": 120.0
            },
            {
                "start_time": 132.6022727,
                "end_time": 132.6340909,
                "pitch": 30,
                "velocity": 51,
                "duration": 0.0318182,
                "tempo": 120.0
            },
            {
                "start_time": 132.6340909,
                "end_time": 132.65,
                "pitch": 27,
                "velocity": 51,
                "duration": 0.0159091,
                "tempo": 120.0
            },
            {
                "start_time": 132.0545455,
                "end_time": 133.3409091,
                "pitch": 37,
                "velocity": 101,
                "duration": 1.2863636,
                "tempo": 120.0
            },
            {
                "start_time": 133.3409091,
                "end_time": 133.3727273,
                "pitch": 33,
                "velocity": 101,
                "duration": 0.0318182,
                "tempo": 120.0
            },
            {
                "start_time": 133.3727273,
                "end_time": 133.4045455,
                "pitch": 30,
                "velocity": 101,
                "duration": 0.0318182,
                "tempo": 120.0
            },
            {
                "start_time": 133.4045455,
                "end_time": 133.4227273,
                "pitch": 27,
                "velocity": 101,
                "duration": 0.0181818,
                "tempo": 120.0
            },
            {
                "start_time": 132.5704545,
                "end_time": 133.8704545,
                "pitch": 40,
                "velocity": 51,
                "duration": 1.3,
                "tempo": 120.0
            },
            {
                "start_time": 133.8704545,
                "end_time": 133.9022727,
                "pitch": 33,
                "velocity": 51,
                "duration": 0.0318182,
                "tempo": 120.0
            },
            {
                "start_time": 133.9022727,
                "end_time": 133.9363636,
                "pitch": 30,
                "velocity": 51,
                "duration": 0.0340909,
                "tempo": 120.0
            },
            {
                "start_time": 133.9363636,
                "end_time": 133.9522727,
                "pitch": 27,
                "velocity": 51,
                "duration": 0.0159091,
                "tempo": 120.0
            },
            {
                "start_time": 133.3409091,
                "end_time": 134.6727273,
                "pitch": 37,
                "velocity": 101,
                "duration": 1.3318182,
                "tempo": 120.0
            },
            {
                "start_time": 134.6727273,
                "end_time": 134.7022727,
                "pitch": 33,
                "velocity": 101,
                "duration": 0.0295455,
                "tempo": 120.0
            },
            {
                "start_time": 134.7022727,
                "end_time": 134.7340909,
                "pitch": 30,
                "velocity": 101,
                "duration": 0.0318182,
                "tempo": 120.0
            },
            {
                "start_time": 134.7340909,
                "end_time": 134.75,
                "pitch": 27,
                "velocity": 101,
                "duration": 0.0159091,
                "tempo": 120.0
            },
            {
                "start_time": 133.8704545,
                "end_time": 135.1704545,
                "pitch": 40,
                "velocity": 51,
                "duration": 1.3,
                "tempo": 120.0
            },
            {
                "start_time": 135.1704545,
                "end_time": 135.2022727,
                "pitch": 33,
                "velocity": 51,
                "duration": 0.0318182,
                "tempo": 120.0
            },
            {
                "start_time": 135.2022727,
                "end_time": 135.2340909,
                "pitch": 30,
                "velocity": 51,
                "duration": 0.0318182,
                "tempo": 120.0
            },
            {
                "start_time": 135.2340909,
                "end_time": 135.25,
                "pitch": 27,
                "velocity": 51,
                "duration": 0.0159091,
                "tempo": 120.0
            },
            {
                "start_time": 134.6727273,
                "end_time": 135.9613636,
                "pitch": 37,
                "velocity": 101,
                "duration": 1.2886364,
                "tempo": 120.0
            },
            {
                "start_time": 135.9613636,
                "end_time": 135.9954545,
                "pitch": 33,
                "velocity": 101,
                "duration": 0.0340909,
                "tempo": 120.0
            },
            {
                "start_time": 135.9954545,
                "end_time": 136.0272727,
                "pitch": 30,
                "velocity": 101,
                "duration": 0.0318182,
                "tempo": 120.0
            },
            {
                "start_time": 136.0272727,
                "end_time": 136.0454545,
                "pitch": 27,
                "velocity": 101,
                "duration": 0.0181818,
                "tempo": 120.0
            },
            {
                "start_time": 135.1704545,
                "end_time": 136.4863636,
                "pitch": 40,
                "velocity": 51,
                "duration": 1.3159091,
                "tempo": 120.0
            },
            {
                "start_time": 136.4863636,
                "end_time": 136.5181818,
                "pitch": 33,
                "velocity": 51,
                "duration": 0.0318182,
                "tempo": 120.0
            },
            {
                "start_time": 136.5181818,
                "end_time": 136.5522727,
                "pitch": 30,
                "velocity": 51,
                "duration": 0.0340909,
                "tempo": 120.0
            },
            {
                "start_time": 136.5522727,
                "end_time": 136.5681818,
                "pitch": 27,
                "velocity": 51,
                "duration": 0.0159091,
                "tempo": 120.0
            },
            {
                "start_time": 135.9613636,
                "end_time": 137.2522727,
                "pitch": 37,
                "velocity": 101,
                "duration": 1.2909091,
                "tempo": 120.0
            },
            {
                "start_time": 137.2522727,
                "end_time": 137.2840909,
                "pitch": 33,
                "velocity": 101,
                "duration": 0.0318182,
                "tempo": 120.0
            },
            {
                "start_time": 137.2840909,
                "end_time": 137.3159091,
                "pitch": 30,
                "velocity": 101,
                "duration": 0.0318182,
                "tempo": 120.0
            },
            {
                "start_time": 137.3159091,
                "end_time": 137.3318182,
                "pitch": 27,
                "velocity": 101,
                "duration": 0.0159091,
                "tempo": 120.0
            },
            {
                "start_time": 136.4863636,
                "end_time": 137.7681818,
                "pitch": 40,
                "velocity": 51,
                "duration": 1.2818182,
                "tempo": 120.0
            },
            {
                "start_time": 137.7681818,
                "end_time": 137.8,
                "pitch": 33,
                "velocity": 51,
                "duration": 0.0318182,
                "tempo": 120.0
            },
            {
                "start_time": 137.8,
                "end_time": 137.8318182,
                "pitch": 30,
                "velocity": 51,
                "duration": 0.0318182,
                "tempo": 120.0
            },
            {
                "start_time": 137.8318182,
                "end_time": 137.85,
                "pitch": 27,
                "velocity": 51,
                "duration": 0.0181818,
                "tempo": 120.0
            },
            {
                "start_time": 137.2522727,
                "end_time": 138.5636364,
                "pitch": 37,
                "velocity": 101,
                "duration": 1.3113636,
                "tempo": 120.0
            },
            {
                "start_time": 138.5636364,
                "end_time": 138.5977273,
                "pitch": 33,
                "velocity": 101,
                "duration": 0.0340909,
                "tempo": 120.0
            },
            {
                "start_time": 138.5977273,
                "end_time": 138.6318182,
                "pitch": 30,
                "velocity": 101,
                "duration": 0.0340909,
                "tempo": 120.0
            },
            {
                "start_time": 138.6318182,
                "end_time": 138.6477273,
                "pitch": 27,
                "velocity": 101,
                "duration": 0.0159091,
                "tempo": 120.0
            },
            {
                "start_time": 137.7681818,
                "end_time": 139.0954545,
                "pitch": 40,
                "velocity": 51,
                "duration": 1.3272727,
                "tempo": 120.0
            },
            {
                "start_time": 139.0954545,
                "end_time": 139.1272727,
                "pitch": 33,
                "velocity": 51,
                "duration": 0.0318182,
                "tempo": 120.0
            },
            {
                "start_time": 139.1272727,
                "end_time": 139.1590909,
                "pitch": 30,
                "velocity": 51,
                "duration": 0.0318182,
                "tempo": 120.0
            },
            {
                "start_time": 139.1590909,
                "end_time": 139.175,
                "pitch": 27,
                "velocity": 51,
                "duration": 0.0159091,
                "tempo": 120.0
            },
            {
                "start_time": 138.5636364,
                "end_time": 139.8772727,
                "pitch": 37,
                "velocity": 101,
                "duration": 1.3136364,
                "tempo": 120.0
            },
            {
                "start_time": 139.8772727,
                "end_time": 139.9090909,
                "pitch": 33,
                "velocity": 101,
                "duration": 0.0318182,
                "tempo": 120.0
            },
            {
                "start_time": 139.9090909,
                "end_time": 139.9409091,
                "pitch": 30,
                "velocity": 101,
                "duration": 0.0318182,
                "tempo": 120.0
            },
            {
                "start_time": 139.9409091,
                "end_time": 139.9545455,
                "pitch": 27,
                "velocity": 101,
                "duration": 0.0136364,
                "tempo": 120.0
            },
            {
                "start_time": 140.3454545,
                "end_time": 140.375,
                "pitch": 33,
                "velocity": 51,
                "duration": 0.0295455,
                "tempo": 120.0
            },
            {
                "start_time": 140.375,
                "end_time": 140.4068182,
                "pitch": 30,
                "velocity": 51,
                "duration": 0.0318182,
                "tempo": 120.0
            },
            {
                "start_time": 140.4068182,
                "end_time": 140.425,
                "pitch": 27,
                "velocity": 51,
                "duration": 0.0181818,
                "tempo": 120.0
            },
            {
                "start_time": 139.0954545,
                "end_time": 141.0818182,
                "pitch": 40,
                "velocity": 51,
                "duration": 1.9863636,
                "tempo": 120.0
            },
            {
                "start_time": 141.0818182,
                "end_time": 141.1136364,
                "pitch": 33,
                "velocity": 101,
                "duration": 0.0318182,
                "tempo": 120.0
            },
            {
                "start_time": 141.1136364,
                "end_time": 141.1454545,
                "pitch": 30,
                "velocity": 101,
                "duration": 0.0318182,
                "tempo": 120.0
            },
            {
                "start_time": 141.1454545,
                "end_time": 141.1613636,
                "pitch": 27,
                "velocity": 101,
                "duration": 0.0159091,
                "tempo": 120.0
            },
            {
                "start_time": 140.3454545,
                "end_time": 141.5704545,
                "pitch": 42,
                "velocity": 51,
                "duration": 1.225,
                "tempo": 120.0
            },
            {
                "start_time": 141.5704545,
                "end_time": 141.6022727,
                "pitch": 33,
                "velocity": 51,
                "duration": 0.0318182,
                "tempo": 120.0
            },
            {
                "start_time": 141.6022727,
                "end_time": 141.6340909,
                "pitch": 30,
                "velocity": 51,
                "duration": 0.0318182,
                "tempo": 120.0
            },
            {
                "start_time": 141.6340909,
                "end_time": 141.65,
                "pitch": 27,
                "velocity": 51,
                "duration": 0.0159091,
                "tempo": 120.0
            },
            {
                "start_time": 141.0818182,
                "end_time": 142.2954545,
                "pitch": 40,
                "velocity": 101,
                "duration": 1.2136364,
                "tempo": 120.0
            },
            {
                "start_time": 142.2954545,
                "end_time": 142.3272727,
                "pitch": 33,
                "velocity": 101,
                "duration": 0.0318182,
                "tempo": 120.0
            },
            {
                "start_time": 142.3272727,
                "end_time": 142.3590909,
                "pitch": 30,
                "velocity": 101,
                "duration": 0.0318182,
                "tempo": 120.0
            },
            {
                "start_time": 142.3590909,
                "end_time": 142.375,
                "pitch": 27,
                "velocity": 101,
                "duration": 0.0159091,
                "tempo": 120.0
            },
            {
                "start_time": 141.5704545,
                "end_time": 142.7795455,
                "pitch": 42,
                "velocity": 51,
                "duration": 1.2090909,
                "tempo": 120.0
            },
            {
                "start_time": 142.7795455,
                "end_time": 142.8113636,
                "pitch": 33,
                "velocity": 51,
                "duration": 0.0318182,
                "tempo": 120.0
            },
            {
                "start_time": 142.8113636,
                "end_time": 142.8431818,
                "pitch": 30,
                "velocity": 51,
                "duration": 0.0318182,
                "tempo": 120.0
            },
            {
                "start_time": 142.8431818,
                "end_time": 142.8590909,
                "pitch": 27,
                "velocity": 51,
                "duration": 0.0159091,
                "tempo": 120.0
            },
            {
                "start_time": 142.2954545,
                "end_time": 143.5318182,
                "pitch": 40,
                "velocity": 101,
                "duration": 1.2363636,
                "tempo": 120.0
            },
            {
                "start_time": 143.5318182,
                "end_time": 143.5636364,
                "pitch": 33,
                "velocity": 101,
                "duration": 0.0318182,
                "tempo": 120.0
            },
            {
                "start_time": 143.5636364,
                "end_time": 143.5954545,
                "pitch": 30,
                "velocity": 101,
                "duration": 0.0318182,
                "tempo": 120.0
            },
            {
                "start_time": 143.5954545,
                "end_time": 143.6113636,
                "pitch": 27,
                "velocity": 101,
                "duration": 0.0159091,
                "tempo": 120.0
            },
            {
                "start_time": 143.975,
                "end_time": 144.0227273,
                "pitch": 31,
                "velocity": 51,
                "duration": 0.0477273,
                "tempo": 120.0
            },
            {
                "start_time": 144.0227273,
                "end_time": 144.0545455,
                "pitch": 29,
                "velocity": 51,
                "duration": 0.0318182,
                "tempo": 120.0
            },
            {
                "start_time": 142.7795455,
                "end_time": 144.6545455,
                "pitch": 42,
                "velocity": 51,
                "duration": 1.875,
                "tempo": 120.0
            },
            {
                "start_time": 144.6545455,
                "end_time": 144.6886364,
                "pitch": 33,
                "velocity": 101,
                "duration": 0.0340909,
                "tempo": 120.0
            },
            {
                "start_time": 144.6886364,
                "end_time": 144.7204545,
                "pitch": 30,
                "velocity": 101,
                "duration": 0.0318182,
                "tempo": 120.0
            },
            {
                "start_time": 144.7204545,
                "end_time": 144.7386364,
                "pitch": 27,
                "velocity": 101,
                "duration": 0.0181818,
                "tempo": 120.0
            },
            {
                "start_time": 145.1204545,
                "end_time": 145.1681818,
                "pitch": 31,
                "velocity": 51,
                "duration": 0.0477273,
                "tempo": 120.0
            },
            {
                "start_time": 145.1681818,
                "end_time": 145.2,
                "pitch": 29,
                "velocity": 51,
                "duration": 0.0318182,
                "tempo": 120.0
            },
            {
                "start_time": 144.6545455,
                "end_time": 145.7818182,
                "pitch": 42,
                "velocity": 101,
                "duration": 1.1272727,
                "tempo": 120.0
            },
            {
                "start_time": 145.7818182,
                "end_time": 145.8136364,
                "pitch": 33,
                "velocity": 101,
                "duration": 0.0318182,
                "tempo": 120.0
            },
            {
                "start_time": 145.8136364,
                "end_time": 145.8454545,
                "pitch": 30,
                "velocity": 101,
                "duration": 0.0318182,
                "tempo": 120.0
            },
            {
                "start_time": 145.8454545,
                "end_time": 145.8590909,
                "pitch": 27,
                "velocity": 101,
                "duration": 0.0136364,
                "tempo": 120.0
            },
            {
                "start_time": 146.2272727,
                "end_time": 146.2772727,
                "pitch": 31,
                "velocity": 51,
                "duration": 0.05,
                "tempo": 120.0
            },
            {
                "start_time": 146.2772727,
                "end_time": 146.3113636,
                "pitch": 29,
                "velocity": 51,
                "duration": 0.0340909,
                "tempo": 120.0
            },
            {
                "start_time": 145.7818182,
                "end_time": 146.9340909,
                "pitch": 42,
                "velocity": 101,
                "duration": 1.1522727,
                "tempo": 120.0
            },
            {
                "start_time": 146.9340909,
                "end_time": 146.9681818,
                "pitch": 33,
                "velocity": 101,
                "duration": 0.0340909,
                "tempo": 120.0
            },
            {
                "start_time": 146.9681818,
                "end_time": 147.0022727,
                "pitch": 30,
                "velocity": 101,
                "duration": 0.0340909,
                "tempo": 120.0
            },
            {
                "start_time": 147.0022727,
                "end_time": 147.0181818,
                "pitch": 27,
                "velocity": 101,
                "duration": 0.0159091,
                "tempo": 120.0
            },
            {
                "start_time": 147.3795455,
                "end_time": 147.4227273,
                "pitch": 34,
                "velocity": 51,
                "duration": 0.0431818,
                "tempo": 120.0
            },
            {
                "start_time": 147.4227273,
                "end_time": 147.4659091,
                "pitch": 30,
                "velocity": 51,
                "duration": 0.0431818,
                "tempo": 120.0
            },
            {
                "start_time": 147.4659091,
                "end_time": 147.4863636,
                "pitch": 27,
                "velocity": 51,
                "duration": 0.0204545,
                "tempo": 120.0
            },
            {
                "start_time": 148.2159091,
                "end_time": 148.2545455,
                "pitch": 33,
                "velocity": 101,
                "duration": 0.0386364,
                "tempo": 120.0
            },
            {
                "start_time": 148.2545455,
                "end_time": 148.2954545,
                "pitch": 30,
                "velocity": 101,
                "duration": 0.0409091,
                "tempo": 120.0
            },
            {
                "start_time": 148.2954545,
                "end_time": 148.3159091,
                "pitch": 27,
                "velocity": 101,
                "duration": 0.0204545,
                "tempo": 120.0
            },
            {
                "start_time": 148.7409091,
                "end_time": 148.7818182,
                "pitch": 34,
                "velocity": 51,
                "duration": 0.0409091,
                "tempo": 120.0
            },
            {
                "start_time": 148.7818182,
                "end_time": 148.8227273,
                "pitch": 30,
                "velocity": 51,
                "duration": 0.0409091,
                "tempo": 120.0
            },
            {
                "start_time": 148.8227273,
                "end_time": 148.8409091,
                "pitch": 27,
                "velocity": 51,
                "duration": 0.0181818,
                "tempo": 120.0
            },
            {
                "start_time": 149.5681818,
                "end_time": 149.6113636,
                "pitch": 33,
                "velocity": 101,
                "duration": 0.0431818,
                "tempo": 120.0
            },
            {
                "start_time": 149.6113636,
                "end_time": 149.6545455,
                "pitch": 30,
                "velocity": 101,
                "duration": 0.0431818,
                "tempo": 120.0
            },
            {
                "start_time": 149.6545455,
                "end_time": 149.6772727,
                "pitch": 27,
                "velocity": 101,
                "duration": 0.0227273,
                "tempo": 120.0
            },
            {
                "start_time": 150.1386364,
                "end_time": 150.1818182,
                "pitch": 34,
                "velocity": 51,
                "duration": 0.0431818,
                "tempo": 120.0
            },
            {
                "start_time": 150.1818182,
                "end_time": 150.225,
                "pitch": 30,
                "velocity": 51,
                "duration": 0.0431818,
                "tempo": 120.0
            },
            {
                "start_time": 150.225,
                "end_time": 150.2477273,
                "pitch": 27,
                "velocity": 51,
                "duration": 0.0227273,
                "tempo": 120.0
            },
            {
                "start_time": 150.9931818,
                "end_time": 151.0386364,
                "pitch": 33,
                "velocity": 101,
                "duration": 0.0454545,
                "tempo": 120.0
            },
            {
                "start_time": 151.0386364,
                "end_time": 151.0818182,
                "pitch": 30,
                "velocity": 101,
                "duration": 0.0431818,
                "tempo": 120.0
            },
            {
                "start_time": 151.0818182,
                "end_time": 151.1045455,
                "pitch": 27,
                "velocity": 101,
                "duration": 0.0227273,
                "tempo": 120.0
            },
            {
                "start_time": 151.5272727,
                "end_time": 151.5704545,
                "pitch": 33,
                "velocity": 51,
                "duration": 0.0431818,
                "tempo": 120.0
            },
            {
                "start_time": 151.5704545,
                "end_time": 151.6159091,
                "pitch": 30,
                "velocity": 51,
                "duration": 0.0454545,
                "tempo": 120.0
            },
            {
                "start_time": 151.6159091,
                "end_time": 151.6363636,
                "pitch": 27,
                "velocity": 51,
                "duration": 0.0204545,
                "tempo": 120.0
            },
            {
                "start_time": 151.5272727,
                "end_time": 152.3272727,
                "pitch": 36,
                "velocity": 51,
                "duration": 0.8,
                "tempo": 120.0
            },
            {
                "start_time": 152.3272727,
                "end_time": 152.3840909,
                "pitch": 33,
                "velocity": 101,
                "duration": 0.0568182,
                "tempo": 120.0
            },
            {
                "start_time": 152.3840909,
                "end_time": 152.4454545,
                "pitch": 30,
                "velocity": 101,
                "duration": 0.0613636,
                "tempo": 120.0
            },
            {
                "start_time": 152.4454545,
                "end_time": 152.4772727,
                "pitch": 27,
                "velocity": 101,
                "duration": 0.0318182,
                "tempo": 120.0
            },
            {
                "start_time": 152.3272727,
                "end_time": 153.0636364,
                "pitch": 36,
                "velocity": 101,
                "duration": 0.7363636,
                "tempo": 120.0
            },
            {
                "start_time": 153.0636364,
                "end_time": 153.125,
                "pitch": 33,
                "velocity": 51,
                "duration": 0.0613636,
                "tempo": 120.0
            },
            {
                "start_time": 153.125,
                "end_time": 153.1863636,
                "pitch": 30,
                "velocity": 51,
                "duration": 0.0613636,
                "tempo": 120.0
            },
            {
                "start_time": 153.1863636,
                "end_time": 153.2159091,
                "pitch": 27,
                "velocity": 51,
                "duration": 0.0295455,
                "tempo": 120.0
            },
            {
                "start_time": 153.0636364,
                "end_time": 154.175,
                "pitch": 36,
                "velocity": 51,
                "duration": 1.1113636,
                "tempo": 120.0
            },
            {
                "start_time": 154.175,
                "end_time": 154.2340909,
                "pitch": 33,
                "velocity": 101,
                "duration": 0.0590909,
                "tempo": 120.0
            },
            {
                "start_time": 154.2340909,
                "end_time": 154.2954545,
                "pitch": 30,
                "velocity": 101,
                "duration": 0.0613636,
                "tempo": 120.0
            },
            {
                "start_time": 154.2954545,
                "end_time": 154.325,
                "pitch": 27,
                "velocity": 101,
                "duration": 0.0295455,
                "tempo": 120.0
            },
            {
                "start_time": 154.175,
                "end_time": 154.9045455,
                "pitch": 36,
                "velocity": 101,
                "duration": 0.7295455,
                "tempo": 120.0
            },
            {
                "start_time": 154.9022727,
                "end_time": 154.9045455,
                "pitch": 36,
                "velocity": 51,
                "duration": 0.0022727,
                "tempo": 120.0
            },
            {
                "start_time": 154.9045455,
                "end_time": 154.9636364,
                "pitch": 33,
                "velocity": 51,
                "duration": 0.0590909,
                "tempo": 120.0
            },
            {
                "start_time": 154.9636364,
                "end_time": 155.025,
                "pitch": 30,
                "velocity": 51,
                "duration": 0.0613636,
                "tempo": 120.0
            },
            {
                "start_time": 155.025,
                "end_time": 155.0545455,
                "pitch": 27,
                "velocity": 51,
                "duration": 0.0295455,
                "tempo": 120.0
            },
            {
                "start_time": 155.9954545,
                "end_time": 156.0568182,
                "pitch": 33,
                "velocity": 101,
                "duration": 0.0613636,
                "tempo": 120.0
            },
            {
                "start_time": 156.0568182,
                "end_time": 156.1159091,
                "pitch": 30,
                "velocity": 101,
                "duration": 0.0590909,
                "tempo": 120.0
            },
            {
                "start_time": 156.1159091,
                "end_time": 156.1477273,
                "pitch": 27,
                "velocity": 101,
                "duration": 0.0318182,
                "tempo": 120.0
            },
            {
                "start_time": 156.6636364,
                "end_time": 156.7227273,
                "pitch": 33,
                "velocity": 51,
                "duration": 0.0590909,
                "tempo": 120.0
            },
            {
                "start_time": 156.7227273,
                "end_time": 156.7840909,
                "pitch": 30,
                "velocity": 51,
                "duration": 0.0613636,
                "tempo": 120.0
            },
            {
                "start_time": 156.7840909,
                "end_time": 156.8136364,
                "pitch": 27,
                "velocity": 51,
                "duration": 0.0295455,
                "tempo": 120.0
            },
            {
                "start_time": 157.6659091,
                "end_time": 157.7204545,
                "pitch": 33,
                "velocity": 101,
                "duration": 0.0545455,
                "tempo": 120.0
            },
            {
                "start_time": 157.7204545,
                "end_time": 157.7772727,
                "pitch": 30,
                "velocity": 101,
                "duration": 0.0568182,
                "tempo": 120.0
            },
            {
                "start_time": 157.7772727,
                "end_time": 157.8045455,
                "pitch": 27,
                "velocity": 101,
                "duration": 0.0272727,
                "tempo": 120.0
            },
            {
                "start_time": 156.6636364,
                "end_time": 158.2818182,
                "pitch": 38,
                "velocity": 51,
                "duration": 1.6181818,
                "tempo": 120.0
            },
            {
                "start_time": 158.2818182,
                "end_time": 158.3386364,
                "pitch": 33,
                "velocity": 51,
                "duration": 0.0568182,
                "tempo": 120.0
            },
            {
                "start_time": 158.3386364,
                "end_time": 158.3931818,
                "pitch": 30,
                "velocity": 51,
                "duration": 0.0545455,
                "tempo": 120.0
            },
            {
                "start_time": 158.3931818,
                "end_time": 158.4227273,
                "pitch": 27,
                "velocity": 51,
                "duration": 0.0295455,
                "tempo": 120.0
            },
            {
                "start_time": 157.6659091,
                "end_time": 159.2068182,
                "pitch": 39,
                "velocity": 101,
                "duration": 1.5409091,
                "tempo": 120.0
            },
            {
                "start_time": 159.2068182,
                "end_time": 159.2613636,
                "pitch": 33,
                "velocity": 101,
                "duration": 0.0545455,
                "tempo": 120.0
            },
            {
                "start_time": 159.2613636,
                "end_time": 159.3181818,
                "pitch": 30,
                "velocity": 101,
                "duration": 0.0568182,
                "tempo": 120.0
            },
            {
                "start_time": 159.3181818,
                "end_time": 159.3454545,
                "pitch": 27,
                "velocity": 101,
                "duration": 0.0272727,
                "tempo": 120.0
            },
            {
                "start_time": 158.2818182,
                "end_time": 159.8227273,
                "pitch": 38,
                "velocity": 51,
                "duration": 1.5409091,
                "tempo": 120.0
            },
            {
                "start_time": 159.8227273,
                "end_time": 159.8795455,
                "pitch": 33,
                "velocity": 51,
                "duration": 0.0568182,
                "tempo": 120.0
            },
            {
                "start_time": 159.8795455,
                "end_time": 159.9340909,
                "pitch": 30,
                "velocity": 51,
                "duration": 0.0545455,
                "tempo": 120.0
            },
            {
                "start_time": 159.9340909,
                "end_time": 159.9636364,
                "pitch": 27,
                "velocity": 51,
                "duration": 0.0295455,
                "tempo": 120.0
            },
            {
                "start_time": 159.2068182,
                "end_time": 160.7477273,
                "pitch": 39,
                "velocity": 101,
                "duration": 1.5409091,
                "tempo": 120.0
            },
            {
                "start_time": 160.7477273,
                "end_time": 160.8022727,
                "pitch": 33,
                "velocity": 101,
                "duration": 0.0545455,
                "tempo": 120.0
            },
            {
                "start_time": 160.8022727,
                "end_time": 160.8590909,
                "pitch": 30,
                "velocity": 101,
                "duration": 0.0568182,
                "tempo": 120.0
            },
            {
                "start_time": 160.8590909,
                "end_time": 160.8863636,
                "pitch": 27,
                "velocity": 101,
                "duration": 0.0272727,
                "tempo": 120.0
            },
            {
                "start_time": 160.7477273,
                "end_time": 161.3090909,
                "pitch": 39,
                "velocity": 101,
                "duration": 0.5613636,
                "tempo": 120.0
            },
            {
                "start_time": 161.3090909,
                "end_time": 161.3636364,
                "pitch": 33,
                "velocity": 51,
                "duration": 0.0545455,
                "tempo": 120.0
            },
            {
                "start_time": 161.3636364,
                "end_time": 161.4204545,
                "pitch": 30,
                "velocity": 51,
                "duration": 0.0568182,
                "tempo": 120.0
            },
            {
                "start_time": 161.4204545,
                "end_time": 161.4477273,
                "pitch": 27,
                "velocity": 51,
                "duration": 0.0272727,
                "tempo": 120.0
            },
            {
                "start_time": 146.9340909,
                "end_time": 162.1477273,
                "pitch": 42,
                "velocity": 101,
                "duration": 15.2136364,
                "tempo": 120.0
            },
            {
                "start_time": 162.1477273,
                "end_time": 162.1977273,
                "pitch": 33,
                "velocity": 101,
                "duration": 0.05,
                "tempo": 120.0
            },
            {
                "start_time": 162.1977273,
                "end_time": 162.2477273,
                "pitch": 30,
                "velocity": 101,
                "duration": 0.05,
                "tempo": 120.0
            },
            {
                "start_time": 162.2477273,
                "end_time": 162.2727273,
                "pitch": 27,
                "velocity": 101,
                "duration": 0.025,
                "tempo": 120.0
            },
            {
                "start_time": 161.3090909,
                "end_time": 162.6545455,
                "pitch": 39,
                "velocity": 51,
                "duration": 1.3454545,
                "tempo": 120.0
            },
            {
                "start_time": 162.6545455,
                "end_time": 162.7045455,
                "pitch": 33,
                "velocity": 51,
                "duration": 0.05,
                "tempo": 120.0
            },
            {
                "start_time": 162.7045455,
                "end_time": 162.7545455,
                "pitch": 30,
                "velocity": 51,
                "duration": 0.05,
                "tempo": 120.0
            },
            {
                "start_time": 162.7545455,
                "end_time": 162.7795455,
                "pitch": 27,
                "velocity": 51,
                "duration": 0.025,
                "tempo": 120.0
            },
            {
                "start_time": 162.1477273,
                "end_time": 163.4136364,
                "pitch": 42,
                "velocity": 101,
                "duration": 1.2659091,
                "tempo": 120.0
            },
            {
                "start_time": 163.4136364,
                "end_time": 163.4636364,
                "pitch": 33,
                "velocity": 101,
                "duration": 0.05,
                "tempo": 120.0
            },
            {
                "start_time": 163.4636364,
                "end_time": 163.5136364,
                "pitch": 30,
                "velocity": 101,
                "duration": 0.05,
                "tempo": 120.0
            },
            {
                "start_time": 163.5136364,
                "end_time": 163.5409091,
                "pitch": 27,
                "velocity": 101,
                "duration": 0.0272727,
                "tempo": 120.0
            },
            {
                "start_time": 162.6545455,
                "end_time": 163.925,
                "pitch": 39,
                "velocity": 51,
                "duration": 1.2704545,
                "tempo": 120.0
            },
            {
                "start_time": 163.925,
                "end_time": 163.9772727,
                "pitch": 33,
                "velocity": 51,
                "duration": 0.0522727,
                "tempo": 120.0
            },
            {
                "start_time": 163.9772727,
                "end_time": 164.0272727,
                "pitch": 30,
                "velocity": 51,
                "duration": 0.05,
                "tempo": 120.0
            },
            {
                "start_time": 164.0272727,
                "end_time": 164.0522727,
                "pitch": 27,
                "velocity": 51,
                "duration": 0.025,
                "tempo": 120.0
            },
            {
                "start_time": 163.4136364,
                "end_time": 164.6954545,
                "pitch": 42,
                "velocity": 101,
                "duration": 1.2818182,
                "tempo": 120.0
            },
            {
                "start_time": 164.6954545,
                "end_time": 164.7454545,
                "pitch": 33,
                "velocity": 101,
                "duration": 0.05,
                "tempo": 120.0
            },
            {
                "start_time": 164.7454545,
                "end_time": 164.7977273,
                "pitch": 30,
                "velocity": 101,
                "duration": 0.0522727,
                "tempo": 120.0
            },
            {
                "start_time": 164.7977273,
                "end_time": 164.8227273,
                "pitch": 27,
                "velocity": 101,
                "duration": 0.025,
                "tempo": 120.0
            },
            {
                "start_time": 163.925,
                "end_time": 165.2090909,
                "pitch": 39,
                "velocity": 51,
                "duration": 1.2840909,
                "tempo": 120.0
            },
            {
                "start_time": 165.2090909,
                "end_time": 165.2590909,
                "pitch": 33,
                "velocity": 51,
                "duration": 0.05,
                "tempo": 120.0
            },
            {
                "start_time": 165.2590909,
                "end_time": 165.3090909,
                "pitch": 30,
                "velocity": 51,
                "duration": 0.05,
                "tempo": 120.0
            },
            {
                "start_time": 165.3090909,
                "end_time": 165.3363636,
                "pitch": 27,
                "velocity": 51,
                "duration": 0.0272727,
                "tempo": 120.0
            },
            {
                "start_time": 164.6954545,
                "end_time": 165.9772727,
                "pitch": 42,
                "velocity": 101,
                "duration": 1.2818182,
                "tempo": 120.0
            },
            {
                "start_time": 165.9772727,
                "end_time": 166.0272727,
                "pitch": 33,
                "velocity": 101,
                "duration": 0.05,
                "tempo": 120.0
            },
            {
                "start_time": 166.0272727,
                "end_time": 166.0772727,
                "pitch": 30,
                "velocity": 101,
                "duration": 0.05,
                "tempo": 120.0
            },
            {
                "start_time": 166.0772727,
                "end_time": 166.1022727,
                "pitch": 27,
                "velocity": 101,
                "duration": 0.025,
                "tempo": 120.0
            },
            {
                "start_time": 165.2090909,
                "end_time": 166.4840909,
                "pitch": 39,
                "velocity": 51,
                "duration": 1.275,
                "tempo": 120.0
            },
            {
                "start_time": 166.4840909,
                "end_time": 166.5340909,
                "pitch": 33,
                "velocity": 51,
                "duration": 0.05,
                "tempo": 120.0
            },
            {
                "start_time": 166.5340909,
                "end_time": 166.5840909,
                "pitch": 30,
                "velocity": 51,
                "duration": 0.05,
                "tempo": 120.0
            },
            {
                "start_time": 166.5840909,
                "end_time": 166.6090909,
                "pitch": 27,
                "velocity": 51,
                "duration": 0.025,
                "tempo": 120.0
            },
            {
                "start_time": 165.9772727,
                "end_time": 167.2431818,
                "pitch": 42,
                "velocity": 101,
                "duration": 1.2659091,
                "tempo": 120.0
            },
            {
                "start_time": 167.2431818,
                "end_time": 167.2931818,
                "pitch": 33,
                "velocity": 101,
                "duration": 0.05,
                "tempo": 120.0
            },
            {
                "start_time": 167.2931818,
                "end_time": 167.3431818,
                "pitch": 30,
                "velocity": 101,
                "duration": 0.05,
                "tempo": 120.0
            },
            {
                "start_time": 167.3431818,
                "end_time": 167.3704545,
                "pitch": 27,
                "velocity": 101,
                "duration": 0.0272727,
                "tempo": 120.0
            },
            {
                "start_time": 166.4840909,
                "end_time": 167.7545455,
                "pitch": 39,
                "velocity": 51,
                "duration": 1.2704545,
                "tempo": 120.0
            },
            {
                "start_time": 167.7545455,
                "end_time": 167.8045455,
                "pitch": 33,
                "velocity": 51,
                "duration": 0.05,
                "tempo": 120.0
            },
            {
                "start_time": 167.8045455,
                "end_time": 167.8568182,
                "pitch": 30,
                "velocity": 51,
                "duration": 0.0522727,
                "tempo": 120.0
            },
            {
                "start_time": 167.8568182,
                "end_time": 167.8818182,
                "pitch": 27,
                "velocity": 51,
                "duration": 0.025,
                "tempo": 120.0
            },
            {
                "start_time": 167.2431818,
                "end_time": 168.525,
                "pitch": 42,
                "velocity": 101,
                "duration": 1.2818182,
                "tempo": 120.0
            },
            {
                "start_time": 168.525,
                "end_time": 168.575,
                "pitch": 33,
                "velocity": 101,
                "duration": 0.05,
                "tempo": 120.0
            },
            {
                "start_time": 168.575,
                "end_time": 168.625,
                "pitch": 30,
                "velocity": 101,
                "duration": 0.05,
                "tempo": 120.0
            },
            {
                "start_time": 168.625,
                "end_time": 168.65,
                "pitch": 27,
                "velocity": 101,
                "duration": 0.025,
                "tempo": 120.0
            },
            {
                "start_time": 167.7545455,
                "end_time": 169.0295455,
                "pitch": 39,
                "velocity": 51,
                "duration": 1.275,
                "tempo": 120.0
            },
            {
                "start_time": 169.0295455,
                "end_time": 169.0795455,
                "pitch": 33,
                "velocity": 51,
                "duration": 0.05,
                "tempo": 120.0
            },
            {
                "start_time": 169.0795455,
                "end_time": 169.1318182,
                "pitch": 30,
                "velocity": 51,
                "duration": 0.0522727,
                "tempo": 120.0
            },
            {
                "start_time": 169.1318182,
                "end_time": 169.1568182,
                "pitch": 27,
                "velocity": 51,
                "duration": 0.025,
                "tempo": 120.0
            },
            {
                "start_time": 168.525,
                "end_time": 169.7886364,
                "pitch": 42,
                "velocity": 101,
                "duration": 1.2636364,
                "tempo": 120.0
            },
            {
                "start_time": 169.7886364,
                "end_time": 169.8386364,
                "pitch": 33,
                "velocity": 101,
                "duration": 0.05,
                "tempo": 120.0
            },
            {
                "start_time": 169.8386364,
                "end_time": 169.8886364,
                "pitch": 30,
                "velocity": 101,
                "duration": 0.05,
                "tempo": 120.0
            },
            {
                "start_time": 169.8886364,
                "end_time": 169.9136364,
                "pitch": 27,
                "velocity": 101,
                "duration": 0.025,
                "tempo": 120.0
            },
            {
                "start_time": 169.0295455,
                "end_time": 170.2954545,
                "pitch": 39,
                "velocity": 51,
                "duration": 1.2659091,
                "tempo": 120.0
            },
            {
                "start_time": 170.2954545,
                "end_time": 170.3454545,
                "pitch": 33,
                "velocity": 51,
                "duration": 0.05,
                "tempo": 120.0
            },
            {
                "start_time": 170.3454545,
                "end_time": 170.3954545,
                "pitch": 30,
                "velocity": 51,
                "duration": 0.05,
                "tempo": 120.0
            },
            {
                "start_time": 170.3954545,
                "end_time": 170.4204545,
                "pitch": 27,
                "velocity": 51,
                "duration": 0.025,
                "tempo": 120.0
            },
            {
                "start_time": 169.7886364,
                "end_time": 171.0545455,
                "pitch": 42,
                "velocity": 101,
                "duration": 1.2659091,
                "tempo": 120.0
            },
            {
                "start_time": 171.0545455,
                "end_time": 171.1045455,
                "pitch": 33,
                "velocity": 101,
                "duration": 0.05,
                "tempo": 120.0
            },
            {
                "start_time": 171.1045455,
                "end_time": 171.1545455,
                "pitch": 30,
                "velocity": 101,
                "duration": 0.05,
                "tempo": 120.0
            },
            {
                "start_time": 171.1545455,
                "end_time": 171.1818182,
                "pitch": 27,
                "velocity": 101,
                "duration": 0.0272727,
                "tempo": 120.0
            },
            {
                "start_time": 170.2954545,
                "end_time": 171.5659091,
                "pitch": 39,
                "velocity": 51,
                "duration": 1.2704545,
                "tempo": 120.0
            },
            {
                "start_time": 171.5659091,
                "end_time": 171.6181818,
                "pitch": 33,
                "velocity": 51,
                "duration": 0.0522727,
                "tempo": 120.0
            },
            {
                "start_time": 171.6181818,
                "end_time": 171.6681818,
                "pitch": 30,
                "velocity": 51,
                "duration": 0.05,
                "tempo": 120.0
            },
            {
                "start_time": 171.6681818,
                "end_time": 171.6931818,
                "pitch": 27,
                "velocity": 51,
                "duration": 0.025,
                "tempo": 120.0
            },
            {
                "start_time": 171.0545455,
                "end_time": 172.3363636,
                "pitch": 42,
                "velocity": 101,
                "duration": 1.2818182,
                "tempo": 120.0
            },
            {
                "start_time": 172.3363636,
                "end_time": 172.3863636,
                "pitch": 33,
                "velocity": 101,
                "duration": 0.05,
                "tempo": 120.0
            },
            {
                "start_time": 172.3863636,
                "end_time": 172.4363636,
                "pitch": 30,
                "velocity": 101,
                "duration": 0.05,
                "tempo": 120.0
            },
            {
                "start_time": 172.4363636,
                "end_time": 172.4613636,
                "pitch": 27,
                "velocity": 101,
                "duration": 0.025,
                "tempo": 120.0
            },
            {
                "start_time": 171.5659091,
                "end_time": 172.8409091,
                "pitch": 39,
                "velocity": 51,
                "duration": 1.275,
                "tempo": 120.0
            },
            {
                "start_time": 172.8409091,
                "end_time": 172.8909091,
                "pitch": 33,
                "velocity": 51,
                "duration": 0.05,
                "tempo": 120.0
            },
            {
                "start_time": 172.8909091,
                "end_time": 172.9431818,
                "pitch": 30,
                "velocity": 51,
                "duration": 0.0522727,
                "tempo": 120.0
            },
            {
                "start_time": 172.9431818,
                "end_time": 172.9681818,
                "pitch": 27,
                "velocity": 51,
                "duration": 0.025,
                "tempo": 120.0
            },
            {
                "start_time": 172.3363636,
                "end_time": 173.6,
                "pitch": 42,
                "velocity": 101,
                "duration": 1.2636364,
                "tempo": 120.0
            },
            {
                "start_time": 173.6,
                "end_time": 173.65,
                "pitch": 33,
                "velocity": 101,
                "duration": 0.05,
                "tempo": 120.0
            },
            {
                "start_time": 173.65,
                "end_time": 173.7022727,
                "pitch": 30,
                "velocity": 101,
                "duration": 0.0522727,
                "tempo": 120.0
            },
            {
                "start_time": 173.7022727,
                "end_time": 173.7272727,
                "pitch": 27,
                "velocity": 101,
                "duration": 0.025,
                "tempo": 120.0
            },
            {
                "start_time": 172.8409091,
                "end_time": 174.1136364,
                "pitch": 39,
                "velocity": 51,
                "duration": 1.2727273,
                "tempo": 120.0
            },
            {
                "start_time": 174.1136364,
                "end_time": 174.1636364,
                "pitch": 33,
                "velocity": 51,
                "duration": 0.05,
                "tempo": 120.0
            },
            {
                "start_time": 174.1636364,
                "end_time": 174.2159091,
                "pitch": 30,
                "velocity": 51,
                "duration": 0.0522727,
                "tempo": 120.0
            },
            {
                "start_time": 174.2159091,
                "end_time": 174.2409091,
                "pitch": 27,
                "velocity": 51,
                "duration": 0.025,
                "tempo": 120.0
            },
            {
                "start_time": 173.6,
                "end_time": 174.8840909,
                "pitch": 42,
                "velocity": 101,
                "duration": 1.2840909,
                "tempo": 120.0
            },
            {
                "start_time": 174.8840909,
                "end_time": 174.9318182,
                "pitch": 33,
                "velocity": 101,
                "duration": 0.0477273,
                "tempo": 120.0
            },
            {
                "start_time": 174.9318182,
                "end_time": 174.9840909,
                "pitch": 30,
                "velocity": 101,
                "duration": 0.0522727,
                "tempo": 120.0
            },
            {
                "start_time": 174.9840909,
                "end_time": 175.0090909,
                "pitch": 27,
                "velocity": 101,
                "duration": 0.025,
                "tempo": 120.0
            },
            {
                "start_time": 174.1136364,
                "end_time": 175.3886364,
                "pitch": 39,
                "velocity": 51,
                "duration": 1.275,
                "tempo": 120.0
            },
            {
                "start_time": 175.3886364,
                "end_time": 175.4386364,
                "pitch": 33,
                "velocity": 51,
                "duration": 0.05,
                "tempo": 120.0
            },
            {
                "start_time": 175.4386364,
                "end_time": 175.4886364,
                "pitch": 30,
                "velocity": 51,
                "duration": 0.05,
                "tempo": 120.0
            },
            {
                "start_time": 175.4886364,
                "end_time": 175.5136364,
                "pitch": 27,
                "velocity": 51,
                "duration": 0.025,
                "tempo": 120.0
            },
            {
                "start_time": 174.8840909,
                "end_time": 176.1477273,
                "pitch": 42,
                "velocity": 101,
                "duration": 1.2636364,
                "tempo": 120.0
            },
            {
                "start_time": 176.1477273,
                "end_time": 176.1977273,
                "pitch": 33,
                "velocity": 101,
                "duration": 0.05,
                "tempo": 120.0
            },
            {
                "start_time": 176.1977273,
                "end_time": 176.25,
                "pitch": 30,
                "velocity": 101,
                "duration": 0.0522727,
                "tempo": 120.0
            },
            {
                "start_time": 176.25,
                "end_time": 176.275,
                "pitch": 27,
                "velocity": 101,
                "duration": 0.025,
                "tempo": 120.0
            },
            {
                "start_time": 175.3886364,
                "end_time": 176.6613636,
                "pitch": 39,
                "velocity": 51,
                "duration": 1.2727273,
                "tempo": 120.0
            },
            {
                "start_time": 176.6613636,
                "end_time": 176.7113636,
                "pitch": 33,
                "velocity": 51,
                "duration": 0.05,
                "tempo": 120.0
            },
            {
                "start_time": 176.7113636,
                "end_time": 176.7613636,
                "pitch": 30,
                "velocity": 51,
                "duration": 0.05,
                "tempo": 120.0
            },
            {
                "start_time": 176.7613636,
                "end_time": 176.7886364,
                "pitch": 27,
                "velocity": 51,
                "duration": 0.0272727,
                "tempo": 120.0
            },
            {
                "start_time": 176.1477273,
                "end_time": 177.4295455,
                "pitch": 42,
                "velocity": 101,
                "duration": 1.2818182,
                "tempo": 120.0
            },
            {
                "start_time": 177.4295455,
                "end_time": 177.4795455,
                "pitch": 33,
                "velocity": 101,
                "duration": 0.05,
                "tempo": 120.0
            },
            {
                "start_time": 177.4795455,
                "end_time": 177.5295455,
                "pitch": 30,
                "velocity": 101,
                "duration": 0.05,
                "tempo": 120.0
            },
            {
                "start_time": 177.5295455,
                "end_time": 177.5545455,
                "pitch": 27,
                "velocity": 101,
                "duration": 0.025,
                "tempo": 120.0
            },
            {
                "start_time": 176.6613636,
                "end_time": 177.9363636,
                "pitch": 39,
                "velocity": 51,
                "duration": 1.275,
                "tempo": 120.0
            },
            {
                "start_time": 177.9363636,
                "end_time": 177.9863636,
                "pitch": 33,
                "velocity": 51,
                "duration": 0.05,
                "tempo": 120.0
            },
            {
                "start_time": 177.9863636,
                "end_time": 178.0363636,
                "pitch": 30,
                "velocity": 51,
                "duration": 0.05,
                "tempo": 120.0
            },
            {
                "start_time": 178.0363636,
                "end_time": 178.0613636,
                "pitch": 27,
                "velocity": 51,
                "duration": 0.025,
                "tempo": 120.0
            },
            {
                "start_time": 177.4295455,
                "end_time": 178.6954545,
                "pitch": 42,
                "velocity": 101,
                "duration": 1.2659091,
                "tempo": 120.0
            },
            {
                "start_time": 178.6954545,
                "end_time": 178.7454545,
                "pitch": 33,
                "velocity": 101,
                "duration": 0.05,
                "tempo": 120.0
            },
            {
                "start_time": 178.7454545,
                "end_time": 178.7954545,
                "pitch": 30,
                "velocity": 101,
                "duration": 0.05,
                "tempo": 120.0
            },
            {
                "start_time": 178.7954545,
                "end_time": 178.8227273,
                "pitch": 27,
                "velocity": 101,
                "duration": 0.0272727,
                "tempo": 120.0
            },
            {
                "start_time": 177.9363636,
                "end_time": 179.2068182,
                "pitch": 39,
                "velocity": 51,
                "duration": 1.2704545,
                "tempo": 120.0
            },
            {
                "start_time": 179.2068182,
                "end_time": 179.2568182,
                "pitch": 33,
                "velocity": 51,
                "duration": 0.05,
                "tempo": 120.0
            },
            {
                "start_time": 179.2568182,
                "end_time": 179.3090909,
                "pitch": 30,
                "velocity": 51,
                "duration": 0.0522727,
                "tempo": 120.0
            },
            {
                "start_time": 179.3090909,
                "end_time": 179.3340909,
                "pitch": 27,
                "velocity": 51,
                "duration": 0.025,
                "tempo": 120.0
            },
            {
                "start_time": 178.6954545,
                "end_time": 179.9772727,
                "pitch": 42,
                "velocity": 101,
                "duration": 1.2818182,
                "tempo": 120.0
            }
        ],
        "French Horn": [
            {
                "start_time": 32.5318182,
                "end_time": 32.5909091,
                "pitch": 28,
                "velocity": 16,
                "duration": 0.0590909,
                "tempo": 120.0
            },
            {
                "start_time": 32.5909091,
                "end_time": 32.6113636,
                "pitch": 31,
                "velocity": 16,
                "duration": 0.0204545,
                "tempo": 120.0
            },
            {
                "start_time": 32.6113636,
                "end_time": 32.6704545,
                "pitch": 31,
                "velocity": 16,
                "duration": 0.0590909,
                "tempo": 120.0
            },
            {
                "start_time": 32.6704545,
                "end_time": 32.7318182,
                "pitch": 34,
                "velocity": 16,
                "duration": 0.0613636,
                "tempo": 120.0
            },
            {
                "start_time": 32.7318182,
                "end_time": 32.7931818,
                "pitch": 36,
                "velocity": 16,
                "duration": 0.0613636,
                "tempo": 120.0
            },
            {
                "start_time": 32.7931818,
                "end_time": 32.8545455,
                "pitch": 34,
                "velocity": 16,
                "duration": 0.0613636,
                "tempo": 120.0
            },
            {
                "start_time": 32.8545455,
                "end_time": 32.9136364,
                "pitch": 31,
                "velocity": 16,
                "duration": 0.0590909,
                "tempo": 120.0
            },
            {
                "start_time": 32.9136364,
                "end_time": 32.975,
                "pitch": 29,
                "velocity": 16,
                "duration": 0.0613636,
                "tempo": 120.0
            },
            {
                "start_time": 32.975,
                "end_time": 33.0159091,
                "pitch": 26,
                "velocity": 16,
                "duration": 0.0409091,
                "tempo": 120.0
            },
            {
                "start_time": 33.0159091,
                "end_time": 33.0545455,
                "pitch": 24,
                "velocity": 16,
                "duration": 0.0386364,
                "tempo": 120.0
            },
            {
                "start_time": 33.0545455,
                "end_time": 33.0954545,
                "pitch": 21,
                "velocity": 16,
                "duration": 0.0409091,
                "tempo": 120.0
            },
            {
                "start_time": 33.0954545,
                "end_time": 33.1159091,
                "pitch": 18,
                "velocity": 16,
                "duration": 0.0204545,
                "tempo": 120.0
            },
            {
                "start_time": 33.1159091,
                "end_time": 33.1772727,
                "pitch": 15,
                "velocity": 16,
                "duration": 0.0613636,
                "tempo": 120.0
            },
            {
                "start_time": 33.1772727,
                "end_time": 33.2181818,
                "pitch": 18,
                "velocity": 16,
                "duration": 0.0409091,
                "tempo": 120.0
            },
            {
                "start_time": 33.2181818,
                "end_time": 33.2590909,
                "pitch": 21,
                "velocity": 16,
                "duration": 0.0409091,
                "tempo": 120.0
            },
            {
                "start_time": 33.2590909,
                "end_time": 33.3,
                "pitch": 24,
                "velocity": 16,
                "duration": 0.0409091,
                "tempo": 120.0
            },
            {
                "start_time": 33.3,
                "end_time": 33.3409091,
                "pitch": 26,
                "velocity": 16,
                "duration": 0.0409091,
                "tempo": 120.0
            },
            {
                "start_time": 33.3409091,
                "end_time": 33.4022727,
                "pitch": 28,
                "velocity": 16,
                "duration": 0.0613636,
                "tempo": 120.0
            },
            {
                "start_time": 33.4022727,
                "end_time": 33.4227273,
                "pitch": 31,
                "velocity": 16,
                "duration": 0.0204545,
                "tempo": 120.0
            },
            {
                "start_time": 32.6113636,
                "end_time": 33.4227273,
                "pitch": 43,
                "velocity": 16,
                "duration": 0.8113636,
                "tempo": 120.0
            },
            {
                "start_time": 33.4227273,
                "end_time": 33.4840909,
                "pitch": 31,
                "velocity": 16,
                "duration": 0.0613636,
                "tempo": 120.0
            },
            {
                "start_time": 33.4840909,
                "end_time": 33.5454545,
                "pitch": 34,
                "velocity": 16,
                "duration": 0.0613636,
                "tempo": 120.0
            },
            {
                "start_time": 33.5454545,
                "end_time": 33.6068182,
                "pitch": 36,
                "velocity": 16,
                "duration": 0.0613636,
                "tempo": 120.0
            },
            {
                "start_time": 33.6068182,
                "end_time": 33.6681818,
                "pitch": 34,
                "velocity": 16,
                "duration": 0.0613636,
                "tempo": 120.0
            },
            {
                "start_time": 33.6681818,
                "end_time": 33.7295455,
                "pitch": 31,
                "velocity": 16,
                "duration": 0.0613636,
                "tempo": 120.0
            },
            {
                "start_time": 33.7295455,
                "end_time": 33.7909091,
                "pitch": 29,
                "velocity": 16,
                "duration": 0.0613636,
                "tempo": 120.0
            },
            {
                "start_time": 33.7909091,
                "end_time": 33.8318182,
                "pitch": 26,
                "velocity": 16,
                "duration": 0.0409091,
                "tempo": 120.0
            },
            {
                "start_time": 33.8318182,
                "end_time": 33.8727273,
                "pitch": 24,
                "velocity": 16,
                "duration": 0.0409091,
                "tempo": 120.0
            },
            {
                "start_time": 33.8727273,
                "end_time": 33.9136364,
                "pitch": 21,
                "velocity": 16,
                "duration": 0.0409091,
                "tempo": 120.0
            },
            {
                "start_time": 33.9136364,
                "end_time": 33.9340909,
                "pitch": 18,
                "velocity": 16,
                "duration": 0.0204545,
                "tempo": 120.0
            },
            {
                "start_time": 33.9340909,
                "end_time": 33.9954545,
                "pitch": 15,
                "velocity": 16,
                "duration": 0.0613636,
                "tempo": 120.0
            },
            {
                "start_time": 33.9954545,
                "end_time": 34.0363636,
                "pitch": 18,
                "velocity": 16,
                "duration": 0.0409091,
                "tempo": 120.0
            },
            {
                "start_time": 34.0363636,
                "end_time": 34.0772727,
                "pitch": 21,
                "velocity": 16,
                "duration": 0.0409091,
                "tempo": 120.0
            },
            {
                "start_time": 34.0772727,
                "end_time": 34.1181818,
                "pitch": 24,
                "velocity": 16,
                "duration": 0.0409091,
                "tempo": 120.0
            },
            {
                "start_time": 34.1181818,
                "end_time": 34.1613636,
                "pitch": 26,
                "velocity": 16,
                "duration": 0.0431818,
                "tempo": 120.0
            },
            {
                "start_time": 34.1613636,
                "end_time": 34.2227273,
                "pitch": 28,
                "velocity": 16,
                "duration": 0.0613636,
                "tempo": 120.0
            },
            {
                "start_time": 34.2227273,
                "end_time": 34.2431818,
                "pitch": 31,
                "velocity": 16,
                "duration": 0.0204545,
                "tempo": 120.0
            },
            {
                "start_time": 33.4227273,
                "end_time": 34.2431818,
                "pitch": 43,
                "velocity": 16,
                "duration": 0.8204545,
                "tempo": 120.0
            },
            {
                "start_time": 34.2431818,
                "end_time": 34.3045455,
                "pitch": 31,
                "velocity": 16,
                "duration": 0.0613636,
                "tempo": 120.0
            },
            {
                "start_time": 34.3045455,
                "end_time": 34.3659091,
                "pitch": 34,
                "velocity": 16,
                "duration": 0.0613636,
                "tempo": 120.0
            },
            {
                "start_time": 34.3659091,
                "end_time": 34.4295455,
                "pitch": 36,
                "velocity": 16,
                "duration": 0.0636364,
                "tempo": 120.0
            },
            {
                "start_time": 34.4295455,
                "end_time": 34.4909091,
                "pitch": 34,
                "velocity": 16,
                "duration": 0.0613636,
                "tempo": 120.0
            },
            {
                "start_time": 34.4909091,
                "end_time": 34.5522727,
                "pitch": 31,
                "velocity": 16,
                "duration": 0.0613636,
                "tempo": 120.0
            },
            {
                "start_time": 34.5522727,
                "end_time": 34.6159091,
                "pitch": 29,
                "velocity": 16,
                "duration": 0.0636364,
                "tempo": 120.0
            },
            {
                "start_time": 34.6159091,
                "end_time": 34.6568182,
                "pitch": 26,
                "velocity": 16,
                "duration": 0.0409091,
                "tempo": 120.0
            },
            {
                "start_time": 34.6568182,
                "end_time": 34.6977273,
                "pitch": 24,
                "velocity": 16,
                "duration": 0.0409091,
                "tempo": 120.0
            },
            {
                "start_time": 34.6977273,
                "end_time": 34.7386364,
                "pitch": 21,
                "velocity": 16,
                "duration": 0.0409091,
                "tempo": 120.0
            },
            {
                "start_time": 34.7386364,
                "end_time": 34.7590909,
                "pitch": 18,
                "velocity": 16,
                "duration": 0.0204545,
                "tempo": 120.0
            },
            {
                "start_time": 34.7590909,
                "end_time": 34.8227273,
                "pitch": 15,
                "velocity": 16,
                "duration": 0.0636364,
                "tempo": 120.0
            },
            {
                "start_time": 34.8227273,
                "end_time": 34.8636364,
                "pitch": 18,
                "velocity": 16,
                "duration": 0.0409091,
                "tempo": 120.0
            },
            {
                "start_time": 34.8636364,
                "end_time": 34.9022727,
                "pitch": 21,
                "velocity": 16,
                "duration": 0.0386364,
                "tempo": 120.0
            },
            {
                "start_time": 34.9022727,
                "end_time": 34.9409091,
                "pitch": 24,
                "velocity": 16,
                "duration": 0.0386364,
                "tempo": 120.0
            },
            {
                "start_time": 34.9409091,
                "end_time": 34.9818182,
                "pitch": 26,
                "velocity": 16,
                "duration": 0.0409091,
                "tempo": 120.0
            },
            {
                "start_time": 34.9818182,
                "end_time": 35.0409091,
                "pitch": 28,
                "velocity": 16,
                "duration": 0.0590909,
                "tempo": 120.0
            },
            {
                "start_time": 35.0409091,
                "end_time": 35.0613636,
                "pitch": 31,
                "velocity": 16,
                "duration": 0.0204545,
                "tempo": 120.0
            },
            {
                "start_time": 34.2431818,
                "end_time": 35.0613636,
                "pitch": 43,
                "velocity": 16,
                "duration": 0.8181818,
                "tempo": 120.0
            },
            {
                "start_time": 35.0613636,
                "end_time": 35.1204545,
                "pitch": 31,
                "velocity": 16,
                "duration": 0.0590909,
                "tempo": 120.0
            },
            {
                "start_time": 35.1204545,
                "end_time": 35.1795455,
                "pitch": 34,
                "velocity": 16,
                "duration": 0.0590909,
                "tempo": 120.0
            },
            {
                "start_time": 35.1795455,
                "end_time": 35.2386364,
                "pitch": 36,
                "velocity": 16,
                "duration": 0.0590909,
                "tempo": 120.0
            },
            {
                "start_time": 35.2386364,
                "end_time": 35.2977273,
                "pitch": 34,
                "velocity": 16,
                "duration": 0.0590909,
                "tempo": 120.0
            },
            {
                "start_time": 35.2977273,
                "end_time": 35.3568182,
                "pitch": 31,
                "velocity": 16,
                "duration": 0.0590909,
                "tempo": 120.0
            },
            {
                "start_time": 35.3568182,
                "end_time": 35.4159091,
                "pitch": 29,
                "velocity": 16,
                "duration": 0.0590909,
                "tempo": 120.0
            },
            {
                "start_time": 35.4159091,
                "end_time": 35.4568182,
                "pitch": 26,
                "velocity": 16,
                "duration": 0.0409091,
                "tempo": 120.0
            },
            {
                "start_time": 35.4568182,
                "end_time": 35.4954545,
                "pitch": 24,
                "velocity": 16,
                "duration": 0.0386364,
                "tempo": 120.0
            },
            {
                "start_time": 35.4954545,
                "end_time": 35.5363636,
                "pitch": 21,
                "velocity": 16,
                "duration": 0.0409091,
                "tempo": 120.0
            },
            {
                "start_time": 35.5363636,
                "end_time": 35.5545455,
                "pitch": 18,
                "velocity": 16,
                "duration": 0.0181818,
                "tempo": 120.0
            },
            {
                "start_time": 35.5545455,
                "end_time": 35.6159091,
                "pitch": 15,
                "velocity": 16,
                "duration": 0.0613636,
                "tempo": 120.0
            },
            {
                "start_time": 35.6159091,
                "end_time": 35.6545455,
                "pitch": 18,
                "velocity": 16,
                "duration": 0.0386364,
                "tempo": 120.0
            },
            {
                "start_time": 35.6545455,
                "end_time": 35.6954545,
                "pitch": 21,
                "velocity": 16,
                "duration": 0.0409091,
                "tempo": 120.0
            },
            {
                "start_time": 35.6954545,
                "end_time": 35.7363636,
                "pitch": 24,
                "velocity": 16,
                "duration": 0.0409091,
                "tempo": 120.0
            },
            {
                "start_time": 35.7363636,
                "end_time": 35.7772727,
                "pitch": 26,
                "velocity": 16,
                "duration": 0.0409091,
                "tempo": 120.0
            },
            {
                "start_time": 35.7772727,
                "end_time": 35.8363636,
                "pitch": 28,
                "velocity": 16,
                "duration": 0.0590909,
                "tempo": 120.0
            },
            {
                "start_time": 35.8363636,
                "end_time": 35.8568182,
                "pitch": 31,
                "velocity": 16,
                "duration": 0.0204545,
                "tempo": 120.0
            },
            {
                "start_time": 35.0613636,
                "end_time": 35.8568182,
                "pitch": 43,
                "velocity": 16,
                "duration": 0.7954545,
                "tempo": 120.0
            },
            {
                "start_time": 35.8568182,
                "end_time": 35.9181818,
                "pitch": 31,
                "velocity": 16,
                "duration": 0.0613636,
                "tempo": 120.0
            },
            {
                "start_time": 35.9181818,
                "end_time": 35.9795455,
                "pitch": 34,
                "velocity": 16,
                "duration": 0.0613636,
                "tempo": 120.0
            },
            {
                "start_time": 35.9795455,
                "end_time": 36.0386364,
                "pitch": 36,
                "velocity": 16,
                "duration": 0.0590909,
                "tempo": 120.0
            },
            {
                "start_time": 36.0386364,
                "end_time": 36.1022727,
                "pitch": 34,
                "velocity": 16,
                "duration": 0.0636364,
                "tempo": 120.0
            },
            {
                "start_time": 36.1022727,
                "end_time": 36.1613636,
                "pitch": 31,
                "velocity": 16,
                "duration": 0.0590909,
                "tempo": 120.0
            },
            {
                "start_time": 36.1613636,
                "end_time": 36.2204545,
                "pitch": 29,
                "velocity": 16,
                "duration": 0.0590909,
                "tempo": 120.0
            },
            {
                "start_time": 36.2204545,
                "end_time": 36.2613636,
                "pitch": 26,
                "velocity": 16,
                "duration": 0.0409091,
                "tempo": 120.0
            },
            {
                "start_time": 36.2613636,
                "end_time": 36.3022727,
                "pitch": 24,
                "velocity": 16,
                "duration": 0.0409091,
                "tempo": 120.0
            },
            {
                "start_time": 36.3022727,
                "end_time": 36.3431818,
                "pitch": 21,
                "velocity": 16,
                "duration": 0.0409091,
                "tempo": 120.0
            },
            {
                "start_time": 36.3431818,
                "end_time": 36.3636364,
                "pitch": 18,
                "velocity": 16,
                "duration": 0.0204545,
                "tempo": 120.0
            },
            {
                "start_time": 36.3636364,
                "end_time": 36.425,
                "pitch": 15,
                "velocity": 16,
                "duration": 0.0613636,
                "tempo": 120.0
            },
            {
                "start_time": 36.425,
                "end_time": 36.4636364,
                "pitch": 18,
                "velocity": 16,
                "duration": 0.0386364,
                "tempo": 120.0
            },
            {
                "start_time": 36.4636364,
                "end_time": 36.5068182,
                "pitch": 21,
                "velocity": 16,
                "duration": 0.0431818,
                "tempo": 120.0
            },
            {
                "start_time": 36.5068182,
                "end_time": 36.55,
                "pitch": 24,
                "velocity": 16,
                "duration": 0.0431818,
                "tempo": 120.0
            },
            {
                "start_time": 36.55,
                "end_time": 36.5909091,
                "pitch": 26,
                "velocity": 16,
                "duration": 0.0409091,
                "tempo": 120.0
            },
            {
                "start_time": 36.5909091,
                "end_time": 36.6545455,
                "pitch": 28,
                "velocity": 16,
                "duration": 0.0636364,
                "tempo": 120.0
            },
            {
                "start_time": 36.6545455,
                "end_time": 36.6772727,
                "pitch": 31,
                "velocity": 16,
                "duration": 0.0227273,
                "tempo": 120.0
            },
            {
                "start_time": 35.8568182,
                "end_time": 36.6772727,
                "pitch": 43,
                "velocity": 16,
                "duration": 0.8204545,
                "tempo": 120.0
            },
            {
                "start_time": 36.6772727,
                "end_time": 36.7386364,
                "pitch": 31,
                "velocity": 16,
                "duration": 0.0613636,
                "tempo": 120.0
            },
            {
                "start_time": 36.7386364,
                "end_time": 36.8022727,
                "pitch": 34,
                "velocity": 16,
                "duration": 0.0636364,
                "tempo": 120.0
            },
            {
                "start_time": 36.8022727,
                "end_time": 36.8659091,
                "pitch": 36,
                "velocity": 16,
                "duration": 0.0636364,
                "tempo": 120.0
            },
            {
                "start_time": 36.8659091,
                "end_time": 36.9295455,
                "pitch": 34,
                "velocity": 16,
                "duration": 0.0636364,
                "tempo": 120.0
            },
            {
                "start_time": 36.9295455,
                "end_time": 36.9931818,
                "pitch": 31,
                "velocity": 16,
                "duration": 0.0636364,
                "tempo": 120.0
            },
            {
                "start_time": 36.9931818,
                "end_time": 37.0568182,
                "pitch": 29,
                "velocity": 16,
                "duration": 0.0636364,
                "tempo": 120.0
            },
            {
                "start_time": 37.0568182,
                "end_time": 37.1,
                "pitch": 26,
                "velocity": 16,
                "duration": 0.0431818,
                "tempo": 120.0
            },
            {
                "start_time": 37.1,
                "end_time": 37.1431818,
                "pitch": 24,
                "velocity": 16,
                "duration": 0.0431818,
                "tempo": 120.0
            },
            {
                "start_time": 37.1431818,
                "end_time": 37.1840909,
                "pitch": 21,
                "velocity": 16,
                "duration": 0.0409091,
                "tempo": 120.0
            },
            {
                "start_time": 37.1840909,
                "end_time": 37.2045455,
                "pitch": 18,
                "velocity": 16,
                "duration": 0.0204545,
                "tempo": 120.0
            },
            {
                "start_time": 37.2045455,
                "end_time": 37.2681818,
                "pitch": 15,
                "velocity": 16,
                "duration": 0.0636364,
                "tempo": 120.0
            },
            {
                "start_time": 37.2681818,
                "end_time": 37.3113636,
                "pitch": 18,
                "velocity": 16,
                "duration": 0.0431818,
                "tempo": 120.0
            },
            {
                "start_time": 37.3113636,
                "end_time": 37.3522727,
                "pitch": 21,
                "velocity": 16,
                "duration": 0.0409091,
                "tempo": 120.0
            },
            {
                "start_time": 37.3522727,
                "end_time": 37.3909091,
                "pitch": 24,
                "velocity": 16,
                "duration": 0.0386364,
                "tempo": 120.0
            },
            {
                "start_time": 37.3909091,
                "end_time": 37.4340909,
                "pitch": 26,
                "velocity": 16,
                "duration": 0.0431818,
                "tempo": 120.0
            },
            {
                "start_time": 37.4340909,
                "end_time": 37.4931818,
                "pitch": 28,
                "velocity": 16,
                "duration": 0.0590909,
                "tempo": 120.0
            },
            {
                "start_time": 37.4931818,
                "end_time": 37.5136364,
                "pitch": 31,
                "velocity": 16,
                "duration": 0.0204545,
                "tempo": 120.0
            },
            {
                "start_time": 36.6772727,
                "end_time": 37.5136364,
                "pitch": 43,
                "velocity": 16,
                "duration": 0.8363636,
                "tempo": 120.0
            },
            {
                "start_time": 37.5136364,
                "end_time": 37.575,
                "pitch": 31,
                "velocity": 16,
                "duration": 0.0613636,
                "tempo": 120.0
            },
            {
                "start_time": 37.575,
                "end_time": 37.6340909,
                "pitch": 34,
                "velocity": 16,
                "duration": 0.0590909,
                "tempo": 120.0
            },
            {
                "start_time": 37.6340909,
                "end_time": 37.6954545,
                "pitch": 36,
                "velocity": 16,
                "duration": 0.0613636,
                "tempo": 120.0
            },
            {
                "start_time": 37.6954545,
                "end_time": 37.7568182,
                "pitch": 34,
                "velocity": 16,
                "duration": 0.0613636,
                "tempo": 120.0
            },
            {
                "start_time": 37.7568182,
                "end_time": 37.8159091,
                "pitch": 31,
                "velocity": 16,
                "duration": 0.0590909,
                "tempo": 120.0
            },
            {
                "start_time": 37.8159091,
                "end_time": 37.8772727,
                "pitch": 29,
                "velocity": 16,
                "duration": 0.0613636,
                "tempo": 120.0
            },
            {
                "start_time": 37.8772727,
                "end_time": 37.9181818,
                "pitch": 26,
                "velocity": 16,
                "duration": 0.0409091,
                "tempo": 120.0
            },
            {
                "start_time": 37.9181818,
                "end_time": 37.9590909,
                "pitch": 24,
                "velocity": 16,
                "duration": 0.0409091,
                "tempo": 120.0
            },
            {
                "start_time": 37.9590909,
                "end_time": 38.0,
                "pitch": 21,
                "velocity": 16,
                "duration": 0.0409091,
                "tempo": 120.0
            },
            {
                "start_time": 38.0,
                "end_time": 38.0181818,
                "pitch": 18,
                "velocity": 16,
                "duration": 0.0181818,
                "tempo": 120.0
            },
            {
                "start_time": 38.0181818,
                "end_time": 38.0818182,
                "pitch": 15,
                "velocity": 16,
                "duration": 0.0636364,
                "tempo": 120.0
            },
            {
                "start_time": 38.0818182,
                "end_time": 38.1204545,
                "pitch": 18,
                "velocity": 16,
                "duration": 0.0386364,
                "tempo": 120.0
            },
            {
                "start_time": 38.1204545,
                "end_time": 38.1613636,
                "pitch": 21,
                "velocity": 16,
                "duration": 0.0409091,
                "tempo": 120.0
            },
            {
                "start_time": 38.1613636,
                "end_time": 38.2022727,
                "pitch": 24,
                "velocity": 16,
                "duration": 0.0409091,
                "tempo": 120.0
            },
            {
                "start_time": 38.2022727,
                "end_time": 38.2454545,
                "pitch": 26,
                "velocity": 16,
                "duration": 0.0431818,
                "tempo": 120.0
            },
            {
                "start_time": 38.2454545,
                "end_time": 38.3068182,
                "pitch": 28,
                "velocity": 16,
                "duration": 0.0613636,
                "tempo": 120.0
            },
            {
                "start_time": 38.3068182,
                "end_time": 38.3272727,
                "pitch": 31,
                "velocity": 16,
                "duration": 0.0204545,
                "tempo": 120.0
            },
            {
                "start_time": 37.5136364,
                "end_time": 38.3272727,
                "pitch": 43,
                "velocity": 16,
                "duration": 0.8136364,
                "tempo": 120.0
            },
            {
                "start_time": 38.3272727,
                "end_time": 38.3886364,
                "pitch": 31,
                "velocity": 16,
                "duration": 0.0613636,
                "tempo": 120.0
            },
            {
                "start_time": 38.3886364,
                "end_time": 38.4522727,
                "pitch": 34,
                "velocity": 16,
                "duration": 0.0636364,
                "tempo": 120.0
            },
            {
                "start_time": 38.4522727,
                "end_time": 38.5136364,
                "pitch": 36,
                "velocity": 16,
                "duration": 0.0613636,
                "tempo": 120.0
            },
            {
                "start_time": 38.5136364,
                "end_time": 38.575,
                "pitch": 34,
                "velocity": 16,
                "duration": 0.0613636,
                "tempo": 120.0
            },
            {
                "start_time": 38.575,
                "end_time": 38.6363636,
                "pitch": 31,
                "velocity": 16,
                "duration": 0.0613636,
                "tempo": 120.0
            },
            {
                "start_time": 38.6363636,
                "end_time": 38.7,
                "pitch": 29,
                "velocity": 16,
                "duration": 0.0636364,
                "tempo": 120.0
            },
            {
                "start_time": 38.7,
                "end_time": 38.7431818,
                "pitch": 26,
                "velocity": 16,
                "duration": 0.0431818,
                "tempo": 120.0
            },
            {
                "start_time": 38.7431818,
                "end_time": 38.7818182,
                "pitch": 24,
                "velocity": 16,
                "duration": 0.0386364,
                "tempo": 120.0
            },
            {
                "start_time": 38.7818182,
                "end_time": 38.8227273,
                "pitch": 21,
                "velocity": 16,
                "duration": 0.0409091,
                "tempo": 120.0
            },
            {
                "start_time": 38.8227273,
                "end_time": 38.8454545,
                "pitch": 18,
                "velocity": 16,
                "duration": 0.0227273,
                "tempo": 120.0
            },
            {
                "start_time": 38.8454545,
                "end_time": 38.9068182,
                "pitch": 15,
                "velocity": 16,
                "duration": 0.0613636,
                "tempo": 120.0
            },
            {
                "start_time": 38.9068182,
                "end_time": 38.9477273,
                "pitch": 18,
                "velocity": 16,
                "duration": 0.0409091,
                "tempo": 120.0
            },
            {
                "start_time": 38.9477273,
                "end_time": 38.9886364,
                "pitch": 21,
                "velocity": 16,
                "duration": 0.0409091,
                "tempo": 120.0
            },
            {
                "start_time": 38.9886364,
                "end_time": 39.0295455,
                "pitch": 24,
                "velocity": 16,
                "duration": 0.0409091,
                "tempo": 120.0
            },
            {
                "start_time": 39.0295455,
                "end_time": 39.0704545,
                "pitch": 26,
                "velocity": 16,
                "duration": 0.0409091,
                "tempo": 120.0
            },
            {
                "start_time": 39.0704545,
                "end_time": 39.1295455,
                "pitch": 28,
                "velocity": 16,
                "duration": 0.0590909,
                "tempo": 120.0
            },
            {
                "start_time": 39.1295455,
                "end_time": 39.15,
                "pitch": 31,
                "velocity": 16,
                "duration": 0.0204545,
                "tempo": 120.0
            },
            {
                "start_time": 38.3272727,
                "end_time": 39.15,
                "pitch": 43,
                "velocity": 16,
                "duration": 0.8227273,
                "tempo": 120.0
            },
            {
                "start_time": 39.15,
                "end_time": 39.2113636,
                "pitch": 31,
                "velocity": 16,
                "duration": 0.0613636,
                "tempo": 120.0
            },
            {
                "start_time": 39.2113636,
                "end_time": 39.2727273,
                "pitch": 34,
                "velocity": 16,
                "duration": 0.0613636,
                "tempo": 120.0
            },
            {
                "start_time": 39.2727273,
                "end_time": 39.3318182,
                "pitch": 36,
                "velocity": 16,
                "duration": 0.0590909,
                "tempo": 120.0
            },
            {
                "start_time": 39.3318182,
                "end_time": 39.3954545,
                "pitch": 34,
                "velocity": 16,
                "duration": 0.0636364,
                "tempo": 120.0
            },
            {
                "start_time": 39.3954545,
                "end_time": 39.4545455,
                "pitch": 31,
                "velocity": 16,
                "duration": 0.0590909,
                "tempo": 120.0
            },
            {
                "start_time": 39.4545455,
                "end_time": 39.5136364,
                "pitch": 29,
                "velocity": 16,
                "duration": 0.0590909,
                "tempo": 120.0
            },
            {
                "start_time": 39.5136364,
                "end_time": 39.5545455,
                "pitch": 26,
                "velocity": 16,
                "duration": 0.0409091,
                "tempo": 120.0
            },
            {
                "start_time": 39.5545455,
                "end_time": 39.5954545,
                "pitch": 24,
                "velocity": 16,
                "duration": 0.0409091,
                "tempo": 120.0
            },
            {
                "start_time": 39.5954545,
                "end_time": 39.6363636,
                "pitch": 21,
                "velocity": 16,
                "duration": 0.0409091,
                "tempo": 120.0
            },
            {
                "start_time": 39.6363636,
                "end_time": 39.6568182,
                "pitch": 18,
                "velocity": 16,
                "duration": 0.0204545,
                "tempo": 120.0
            },
            {
                "start_time": 39.6568182,
                "end_time": 39.7181818,
                "pitch": 15,
                "velocity": 16,
                "duration": 0.0613636,
                "tempo": 120.0
            },
            {
                "start_time": 39.7181818,
                "end_time": 39.7568182,
                "pitch": 18,
                "velocity": 16,
                "duration": 0.0386364,
                "tempo": 120.0
            },
            {
                "start_time": 39.7568182,
                "end_time": 39.7977273,
                "pitch": 21,
                "velocity": 16,
                "duration": 0.0409091,
                "tempo": 120.0
            },
            {
                "start_time": 39.7977273,
                "end_time": 39.8386364,
                "pitch": 24,
                "velocity": 16,
                "duration": 0.0409091,
                "tempo": 120.0
            },
            {
                "start_time": 39.8386364,
                "end_time": 39.8795455,
                "pitch": 26,
                "velocity": 16,
                "duration": 0.0409091,
                "tempo": 120.0
            },
            {
                "start_time": 39.8795455,
                "end_time": 39.9386364,
                "pitch": 28,
                "velocity": 16,
                "duration": 0.0590909,
                "tempo": 120.0
            },
            {
                "start_time": 39.9386364,
                "end_time": 39.9590909,
                "pitch": 31,
                "velocity": 16,
                "duration": 0.0204545,
                "tempo": 120.0
            },
            {
                "start_time": 39.15,
                "end_time": 39.9590909,
                "pitch": 43,
                "velocity": 16,
                "duration": 0.8090909,
                "tempo": 120.0
            },
            {
                "start_time": 39.9590909,
                "end_time": 40.0204545,
                "pitch": 31,
                "velocity": 16,
                "duration": 0.0613636,
                "tempo": 120.0
            },
            {
                "start_time": 40.0204545,
                "end_time": 40.0818182,
                "pitch": 34,
                "velocity": 16,
                "duration": 0.0613636,
                "tempo": 120.0
            },
            {
                "start_time": 40.0818182,
                "end_time": 40.1409091,
                "pitch": 36,
                "velocity": 16,
                "duration": 0.0590909,
                "tempo": 120.0
            },
            {
                "start_time": 40.1409091,
                "end_time": 40.2022727,
                "pitch": 34,
                "velocity": 16,
                "duration": 0.0613636,
                "tempo": 120.0
            },
            {
                "start_time": 40.2022727,
                "end_time": 40.2636364,
                "pitch": 31,
                "velocity": 16,
                "duration": 0.0613636,
                "tempo": 120.0
            },
            {
                "start_time": 40.2636364,
                "end_time": 40.3227273,
                "pitch": 29,
                "velocity": 16,
                "duration": 0.0590909,
                "tempo": 120.0
            },
            {
                "start_time": 40.3227273,
                "end_time": 40.3636364,
                "pitch": 26,
                "velocity": 16,
                "duration": 0.0409091,
                "tempo": 120.0
            },
            {
                "start_time": 40.3636364,
                "end_time": 40.4045455,
                "pitch": 24,
                "velocity": 16,
                "duration": 0.0409091,
                "tempo": 120.0
            },
            {
                "start_time": 40.4045455,
                "end_time": 40.4454545,
                "pitch": 21,
                "velocity": 16,
                "duration": 0.0409091,
                "tempo": 120.0
            },
            {
                "start_time": 40.4454545,
                "end_time": 40.4659091,
                "pitch": 18,
                "velocity": 16,
                "duration": 0.0204545,
                "tempo": 120.0
            },
            {
                "start_time": 40.4659091,
                "end_time": 40.525,
                "pitch": 15,
                "velocity": 16,
                "duration": 0.0590909,
                "tempo": 120.0
            },
            {
                "start_time": 40.525,
                "end_time": 40.5659091,
                "pitch": 18,
                "velocity": 16,
                "duration": 0.0409091,
                "tempo": 120.0
            },
            {
                "start_time": 40.5659091,
                "end_time": 40.6068182,
                "pitch": 21,
                "velocity": 16,
                "duration": 0.0409091,
                "tempo": 120.0
            },
            {
                "start_time": 40.6068182,
                "end_time": 40.65,
                "pitch": 24,
                "velocity": 16,
                "duration": 0.0431818,
                "tempo": 120.0
            },
            {
                "start_time": 40.65,
                "end_time": 40.6954545,
                "pitch": 26,
                "velocity": 16,
                "duration": 0.0454545,
                "tempo": 120.0
            },
            {
                "start_time": 40.6954545,
                "end_time": 40.7590909,
                "pitch": 28,
                "velocity": 16,
                "duration": 0.0636364,
                "tempo": 120.0
            },
            {
                "start_time": 40.7590909,
                "end_time": 40.7795455,
                "pitch": 31,
                "velocity": 16,
                "duration": 0.0204545,
                "tempo": 120.0
            },
            {
                "start_time": 39.9590909,
                "end_time": 40.7795455,
                "pitch": 43,
                "velocity": 16,
                "duration": 0.8204545,
                "tempo": 120.0
            },
            {
                "start_time": 40.7795455,
                "end_time": 40.8454545,
                "pitch": 31,
                "velocity": 16,
                "duration": 0.0659091,
                "tempo": 120.0
            },
            {
                "start_time": 40.8454545,
                "end_time": 40.9113636,
                "pitch": 34,
                "velocity": 16,
                "duration": 0.0659091,
                "tempo": 120.0
            },
            {
                "start_time": 40.9113636,
                "end_time": 40.975,
                "pitch": 36,
                "velocity": 16,
                "duration": 0.0636364,
                "tempo": 120.0
            },
            {
                "start_time": 40.975,
                "end_time": 41.0409091,
                "pitch": 34,
                "velocity": 16,
                "duration": 0.0659091,
                "tempo": 120.0
            },
            {
                "start_time": 41.0409091,
                "end_time": 41.1068182,
                "pitch": 31,
                "velocity": 16,
                "duration": 0.0659091,
                "tempo": 120.0
            },
            {
                "start_time": 41.1068182,
                "end_time": 41.1704545,
                "pitch": 29,
                "velocity": 16,
                "duration": 0.0636364,
                "tempo": 120.0
            },
            {
                "start_time": 41.1704545,
                "end_time": 41.2136364,
                "pitch": 26,
                "velocity": 16,
                "duration": 0.0431818,
                "tempo": 120.0
            },
            {
                "start_time": 41.2136364,
                "end_time": 41.2568182,
                "pitch": 24,
                "velocity": 16,
                "duration": 0.0431818,
                "tempo": 120.0
            },
            {
                "start_time": 41.2568182,
                "end_time": 41.3,
                "pitch": 21,
                "velocity": 16,
                "duration": 0.0431818,
                "tempo": 120.0
            },
            {
                "start_time": 41.3,
                "end_time": 41.3227273,
                "pitch": 18,
                "velocity": 16,
                "duration": 0.0227273,
                "tempo": 120.0
            },
            {
                "start_time": 41.3227273,
                "end_time": 41.3886364,
                "pitch": 15,
                "velocity": 16,
                "duration": 0.0659091,
                "tempo": 120.0
            },
            {
                "start_time": 41.3886364,
                "end_time": 41.4318182,
                "pitch": 18,
                "velocity": 16,
                "duration": 0.0431818,
                "tempo": 120.0
            },
            {
                "start_time": 41.4318182,
                "end_time": 41.4704545,
                "pitch": 21,
                "velocity": 16,
                "duration": 0.0386364,
                "tempo": 120.0
            },
            {
                "start_time": 41.4704545,
                "end_time": 41.5090909,
                "pitch": 24,
                "velocity": 16,
                "duration": 0.0386364,
                "tempo": 120.0
            },
            {
                "start_time": 41.5090909,
                "end_time": 41.55,
                "pitch": 26,
                "velocity": 16,
                "duration": 0.0409091,
                "tempo": 120.0
            },
            {
                "start_time": 41.55,
                "end_time": 41.6068182,
                "pitch": 28,
                "velocity": 16,
                "duration": 0.0568182,
                "tempo": 120.0
            },
            {
                "start_time": 41.6068182,
                "end_time": 41.6272727,
                "pitch": 31,
                "velocity": 16,
                "duration": 0.0204545,
                "tempo": 120.0
            },
            {
                "start_time": 40.7795455,
                "end_time": 41.6272727,
                "pitch": 43,
                "velocity": 16,
                "duration": 0.8477273,
                "tempo": 120.0
            },
            {
                "start_time": 41.6272727,
                "end_time": 41.6863636,
                "pitch": 31,
                "velocity": 16,
                "duration": 0.0590909,
                "tempo": 120.0
            },
            {
                "start_time": 41.6863636,
                "end_time": 41.7454545,
                "pitch": 34,
                "velocity": 16,
                "duration": 0.0590909,
                "tempo": 120.0
            },
            {
                "start_time": 41.7454545,
                "end_time": 41.8045455,
                "pitch": 36,
                "velocity": 16,
                "duration": 0.0590909,
                "tempo": 120.0
            },
            {
                "start_time": 41.8045455,
                "end_time": 41.8613636,
                "pitch": 34,
                "velocity": 16,
                "duration": 0.0568182,
                "tempo": 120.0
            },
            {
                "start_time": 41.8613636,
                "end_time": 41.9204545,
                "pitch": 31,
                "velocity": 16,
                "duration": 0.0590909,
                "tempo": 120.0
            },
            {
                "start_time": 41.9204545,
                "end_time": 41.9795455,
                "pitch": 29,
                "velocity": 16,
                "duration": 0.0590909,
                "tempo": 120.0
            },
            {
                "start_time": 41.9795455,
                "end_time": 42.0204545,
                "pitch": 26,
                "velocity": 16,
                "duration": 0.0409091,
                "tempo": 120.0
            },
            {
                "start_time": 42.0204545,
                "end_time": 42.0590909,
                "pitch": 24,
                "velocity": 16,
                "duration": 0.0386364,
                "tempo": 120.0
            },
            {
                "start_time": 42.0590909,
                "end_time": 42.0977273,
                "pitch": 21,
                "velocity": 16,
                "duration": 0.0386364,
                "tempo": 120.0
            },
            {
                "start_time": 42.0977273,
                "end_time": 42.1159091,
                "pitch": 18,
                "velocity": 16,
                "duration": 0.0181818,
                "tempo": 120.0
            },
            {
                "start_time": 42.1159091,
                "end_time": 42.175,
                "pitch": 15,
                "velocity": 16,
                "duration": 0.0590909,
                "tempo": 120.0
            },
            {
                "start_time": 42.175,
                "end_time": 42.2159091,
                "pitch": 18,
                "velocity": 16,
                "duration": 0.0409091,
                "tempo": 120.0
            },
            {
                "start_time": 42.2159091,
                "end_time": 42.2545455,
                "pitch": 21,
                "velocity": 16,
                "duration": 0.0386364,
                "tempo": 120.0
            },
            {
                "start_time": 42.2545455,
                "end_time": 42.2977273,
                "pitch": 24,
                "velocity": 16,
                "duration": 0.0431818,
                "tempo": 120.0
            },
            {
                "start_time": 42.2977273,
                "end_time": 42.3409091,
                "pitch": 26,
                "velocity": 16,
                "duration": 0.0431818,
                "tempo": 120.0
            },
            {
                "start_time": 42.3409091,
                "end_time": 42.4022727,
                "pitch": 28,
                "velocity": 16,
                "duration": 0.0613636,
                "tempo": 120.0
            },
            {
                "start_time": 42.4022727,
                "end_time": 42.425,
                "pitch": 31,
                "velocity": 16,
                "duration": 0.0227273,
                "tempo": 120.0
            },
            {
                "start_time": 41.6272727,
                "end_time": 42.425,
                "pitch": 43,
                "velocity": 16,
                "duration": 0.7977273,
                "tempo": 120.0
            },
            {
                "start_time": 42.425,
                "end_time": 42.4863636,
                "pitch": 31,
                "velocity": 16,
                "duration": 0.0613636,
                "tempo": 120.0
            },
            {
                "start_time": 42.4863636,
                "end_time": 42.55,
                "pitch": 34,
                "velocity": 16,
                "duration": 0.0636364,
                "tempo": 120.0
            },
            {
                "start_time": 42.55,
                "end_time": 42.6136364,
                "pitch": 36,
                "velocity": 16,
                "duration": 0.0636364,
                "tempo": 120.0
            },
            {
                "start_time": 42.6136364,
                "end_time": 42.6795455,
                "pitch": 34,
                "velocity": 16,
                "duration": 0.0659091,
                "tempo": 120.0
            },
            {
                "start_time": 42.6795455,
                "end_time": 42.7409091,
                "pitch": 31,
                "velocity": 16,
                "duration": 0.0613636,
                "tempo": 120.0
            },
            {
                "start_time": 42.7409091,
                "end_time": 42.8045455,
                "pitch": 29,
                "velocity": 16,
                "duration": 0.0636364,
                "tempo": 120.0
            },
            {
                "start_time": 42.8045455,
                "end_time": 42.8477273,
                "pitch": 26,
                "velocity": 16,
                "duration": 0.0431818,
                "tempo": 120.0
            },
            {
                "start_time": 42.8477273,
                "end_time": 42.8886364,
                "pitch": 24,
                "velocity": 16,
                "duration": 0.0409091,
                "tempo": 120.0
            },
            {
                "start_time": 42.8886364,
                "end_time": 42.9318182,
                "pitch": 21,
                "velocity": 16,
                "duration": 0.0431818,
                "tempo": 120.0
            },
            {
                "start_time": 42.9318182,
                "end_time": 42.9522727,
                "pitch": 18,
                "velocity": 16,
                "duration": 0.0204545,
                "tempo": 120.0
            },
            {
                "start_time": 42.9522727,
                "end_time": 43.0181818,
                "pitch": 15,
                "velocity": 16,
                "duration": 0.0659091,
                "tempo": 120.0
            },
            {
                "start_time": 43.0181818,
                "end_time": 43.0590909,
                "pitch": 18,
                "velocity": 16,
                "duration": 0.0409091,
                "tempo": 120.0
            },
            {
                "start_time": 43.0590909,
                "end_time": 43.0977273,
                "pitch": 21,
                "velocity": 16,
                "duration": 0.0386364,
                "tempo": 120.0
            },
            {
                "start_time": 43.0977273,
                "end_time": 43.1363636,
                "pitch": 24,
                "velocity": 16,
                "duration": 0.0386364,
                "tempo": 120.0
            },
            {
                "start_time": 43.1363636,
                "end_time": 43.1772727,
                "pitch": 26,
                "velocity": 16,
                "duration": 0.0409091,
                "tempo": 120.0
            },
            {
                "start_time": 43.1772727,
                "end_time": 43.2363636,
                "pitch": 28,
                "velocity": 16,
                "duration": 0.0590909,
                "tempo": 120.0
            },
            {
                "start_time": 43.2363636,
                "end_time": 43.2545455,
                "pitch": 31,
                "velocity": 16,
                "duration": 0.0181818,
                "tempo": 120.0
            },
            {
                "start_time": 42.425,
                "end_time": 43.2545455,
                "pitch": 43,
                "velocity": 16,
                "duration": 0.8295455,
                "tempo": 120.0
            },
            {
                "start_time": 43.2545455,
                "end_time": 43.3136364,
                "pitch": 31,
                "velocity": 16,
                "duration": 0.0590909,
                "tempo": 120.0
            },
            {
                "start_time": 43.3136364,
                "end_time": 43.3727273,
                "pitch": 34,
                "velocity": 16,
                "duration": 0.0590909,
                "tempo": 120.0
            },
            {
                "start_time": 43.3727273,
                "end_time": 43.4318182,
                "pitch": 36,
                "velocity": 16,
                "duration": 0.0590909,
                "tempo": 120.0
            },
            {
                "start_time": 43.4318182,
                "end_time": 43.4909091,
                "pitch": 34,
                "velocity": 16,
                "duration": 0.0590909,
                "tempo": 120.0
            },
            {
                "start_time": 43.4909091,
                "end_time": 43.5477273,
                "pitch": 31,
                "velocity": 16,
                "duration": 0.0568182,
                "tempo": 120.0
            },
            {
                "start_time": 43.5477273,
                "end_time": 43.6068182,
                "pitch": 29,
                "velocity": 16,
                "duration": 0.0590909,
                "tempo": 120.0
            },
            {
                "start_time": 43.6068182,
                "end_time": 43.6477273,
                "pitch": 26,
                "velocity": 16,
                "duration": 0.0409091,
                "tempo": 120.0
            },
            {
                "start_time": 43.6477273,
                "end_time": 43.6863636,
                "pitch": 24,
                "velocity": 16,
                "duration": 0.0386364,
                "tempo": 120.0
            },
            {
                "start_time": 43.6863636,
                "end_time": 43.725,
                "pitch": 21,
                "velocity": 16,
                "duration": 0.0386364,
                "tempo": 120.0
            },
            {
                "start_time": 43.725,
                "end_time": 43.7454545,
                "pitch": 18,
                "velocity": 16,
                "duration": 0.0204545,
                "tempo": 120.0
            },
            {
                "start_time": 43.7454545,
                "end_time": 43.8022727,
                "pitch": 15,
                "velocity": 16,
                "duration": 0.0568182,
                "tempo": 120.0
            },
            {
                "start_time": 43.8022727,
                "end_time": 43.8431818,
                "pitch": 18,
                "velocity": 16,
                "duration": 0.0409091,
                "tempo": 120.0
            },
            {
                "start_time": 43.8431818,
                "end_time": 43.8840909,
                "pitch": 21,
                "velocity": 16,
                "duration": 0.0409091,
                "tempo": 120.0
            },
            {
                "start_time": 43.8840909,
                "end_time": 43.925,
                "pitch": 24,
                "velocity": 16,
                "duration": 0.0409091,
                "tempo": 120.0
            },
            {
                "start_time": 43.925,
                "end_time": 43.9659091,
                "pitch": 26,
                "velocity": 16,
                "duration": 0.0409091,
                "tempo": 120.0
            },
            {
                "start_time": 43.9659091,
                "end_time": 44.0272727,
                "pitch": 28,
                "velocity": 16,
                "duration": 0.0613636,
                "tempo": 120.0
            },
            {
                "start_time": 44.0272727,
                "end_time": 44.0477273,
                "pitch": 31,
                "velocity": 16,
                "duration": 0.0204545,
                "tempo": 120.0
            },
            {
                "start_time": 43.2545455,
                "end_time": 44.0477273,
                "pitch": 43,
                "velocity": 16,
                "duration": 0.7931818,
                "tempo": 120.0
            },
            {
                "start_time": 44.0477273,
                "end_time": 44.1090909,
                "pitch": 31,
                "velocity": 16,
                "duration": 0.0613636,
                "tempo": 120.0
            },
            {
                "start_time": 44.1090909,
                "end_time": 44.1704545,
                "pitch": 34,
                "velocity": 16,
                "duration": 0.0613636,
                "tempo": 120.0
            },
            {
                "start_time": 44.1704545,
                "end_time": 44.2318182,
                "pitch": 36,
                "velocity": 16,
                "duration": 0.0613636,
                "tempo": 120.0
            },
            {
                "start_time": 44.2318182,
                "end_time": 44.2931818,
                "pitch": 34,
                "velocity": 16,
                "duration": 0.0613636,
                "tempo": 120.0
            },
            {
                "start_time": 44.2931818,
                "end_time": 44.3545455,
                "pitch": 31,
                "velocity": 16,
                "duration": 0.0613636,
                "tempo": 120.0
            },
            {
                "start_time": 44.3545455,
                "end_time": 44.4159091,
                "pitch": 29,
                "velocity": 16,
                "duration": 0.0613636,
                "tempo": 120.0
            },
            {
                "start_time": 44.4159091,
                "end_time": 44.4568182,
                "pitch": 26,
                "velocity": 16,
                "duration": 0.0409091,
                "tempo": 120.0
            },
            {
                "start_time": 44.4568182,
                "end_time": 44.4977273,
                "pitch": 24,
                "velocity": 16,
                "duration": 0.0409091,
                "tempo": 120.0
            },
            {
                "start_time": 44.4977273,
                "end_time": 44.5386364,
                "pitch": 21,
                "velocity": 16,
                "duration": 0.0409091,
                "tempo": 120.0
            },
            {
                "start_time": 44.5386364,
                "end_time": 44.5590909,
                "pitch": 18,
                "velocity": 16,
                "duration": 0.0204545,
                "tempo": 120.0
            },
            {
                "start_time": 44.5590909,
                "end_time": 44.6227273,
                "pitch": 15,
                "velocity": 16,
                "duration": 0.0636364,
                "tempo": 120.0
            },
            {
                "start_time": 44.6227273,
                "end_time": 44.6590909,
                "pitch": 18,
                "velocity": 16,
                "duration": 0.0363636,
                "tempo": 120.0
            },
            {
                "start_time": 44.6590909,
                "end_time": 44.7,
                "pitch": 21,
                "velocity": 16,
                "duration": 0.0409091,
                "tempo": 120.0
            },
            {
                "start_time": 44.7,
                "end_time": 44.7386364,
                "pitch": 24,
                "velocity": 16,
                "duration": 0.0386364,
                "tempo": 120.0
            },
            {
                "start_time": 44.7386364,
                "end_time": 44.7795455,
                "pitch": 26,
                "velocity": 16,
                "duration": 0.0409091,
                "tempo": 120.0
            },
            {
                "start_time": 44.7795455,
                "end_time": 44.8386364,
                "pitch": 28,
                "velocity": 16,
                "duration": 0.0590909,
                "tempo": 120.0
            },
            {
                "start_time": 44.8386364,
                "end_time": 44.8590909,
                "pitch": 31,
                "velocity": 16,
                "duration": 0.0204545,
                "tempo": 120.0
            },
            {
                "start_time": 44.0477273,
                "end_time": 44.8590909,
                "pitch": 43,
                "velocity": 16,
                "duration": 0.8113636,
                "tempo": 120.0
            },
            {
                "start_time": 44.8590909,
                "end_time": 44.9181818,
                "pitch": 31,
                "velocity": 16,
                "duration": 0.0590909,
                "tempo": 120.0
            },
            {
                "start_time": 44.9181818,
                "end_time": 44.9772727,
                "pitch": 34,
                "velocity": 16,
                "duration": 0.0590909,
                "tempo": 120.0
            },
            {
                "start_time": 44.9772727,
                "end_time": 45.0363636,
                "pitch": 36,
                "velocity": 16,
                "duration": 0.0590909,
                "tempo": 120.0
            },
            {
                "start_time": 45.0363636,
                "end_time": 45.0954545,
                "pitch": 34,
                "velocity": 16,
                "duration": 0.0590909,
                "tempo": 120.0
            },
            {
                "start_time": 45.0954545,
                "end_time": 45.1545455,
                "pitch": 31,
                "velocity": 16,
                "duration": 0.0590909,
                "tempo": 120.0
            },
            {
                "start_time": 45.1545455,
                "end_time": 45.2136364,
                "pitch": 29,
                "velocity": 16,
                "duration": 0.0590909,
                "tempo": 120.0
            },
            {
                "start_time": 45.2136364,
                "end_time": 45.2545455,
                "pitch": 26,
                "velocity": 16,
                "duration": 0.0409091,
                "tempo": 120.0
            },
            {
                "start_time": 45.2545455,
                "end_time": 45.2931818,
                "pitch": 24,
                "velocity": 16,
                "duration": 0.0386364,
                "tempo": 120.0
            },
            {
                "start_time": 45.2931818,
                "end_time": 45.3340909,
                "pitch": 21,
                "velocity": 16,
                "duration": 0.0409091,
                "tempo": 120.0
            },
            {
                "start_time": 45.3340909,
                "end_time": 45.3522727,
                "pitch": 18,
                "velocity": 16,
                "duration": 0.0181818,
                "tempo": 120.0
            },
            {
                "start_time": 45.3522727,
                "end_time": 45.4113636,
                "pitch": 15,
                "velocity": 16,
                "duration": 0.0590909,
                "tempo": 120.0
            },
            {
                "start_time": 45.4113636,
                "end_time": 45.4522727,
                "pitch": 18,
                "velocity": 16,
                "duration": 0.0409091,
                "tempo": 120.0
            },
            {
                "start_time": 45.4522727,
                "end_time": 45.4931818,
                "pitch": 21,
                "velocity": 16,
                "duration": 0.0409091,
                "tempo": 120.0
            },
            {
                "start_time": 45.4931818,
                "end_time": 45.5363636,
                "pitch": 24,
                "velocity": 16,
                "duration": 0.0431818,
                "tempo": 120.0
            },
            {
                "start_time": 45.5363636,
                "end_time": 45.5795455,
                "pitch": 26,
                "velocity": 16,
                "duration": 0.0431818,
                "tempo": 120.0
            },
            {
                "start_time": 45.5795455,
                "end_time": 45.6431818,
                "pitch": 28,
                "velocity": 16,
                "duration": 0.0636364,
                "tempo": 120.0
            },
            {
                "start_time": 45.6431818,
                "end_time": 45.6636364,
                "pitch": 31,
                "velocity": 16,
                "duration": 0.0204545,
                "tempo": 120.0
            },
            {
                "start_time": 44.8590909,
                "end_time": 45.6636364,
                "pitch": 43,
                "velocity": 16,
                "duration": 0.8045455,
                "tempo": 120.0
            },
            {
                "start_time": 45.6636364,
                "end_time": 45.7295455,
                "pitch": 31,
                "velocity": 16,
                "duration": 0.0659091,
                "tempo": 120.0
            },
            {
                "start_time": 45.7295455,
                "end_time": 45.7931818,
                "pitch": 34,
                "velocity": 16,
                "duration": 0.0636364,
                "tempo": 120.0
            },
            {
                "start_time": 45.7931818,
                "end_time": 45.8568182,
                "pitch": 36,
                "velocity": 16,
                "duration": 0.0636364,
                "tempo": 120.0
            },
            {
                "start_time": 45.8568182,
                "end_time": 45.9227273,
                "pitch": 34,
                "velocity": 16,
                "duration": 0.0659091,
                "tempo": 120.0
            },
            {
                "start_time": 45.9227273,
                "end_time": 45.9863636,
                "pitch": 31,
                "velocity": 16,
                "duration": 0.0636364,
                "tempo": 120.0
            },
            {
                "start_time": 45.9863636,
                "end_time": 46.05,
                "pitch": 29,
                "velocity": 16,
                "duration": 0.0636364,
                "tempo": 120.0
            },
            {
                "start_time": 46.05,
                "end_time": 46.0931818,
                "pitch": 26,
                "velocity": 16,
                "duration": 0.0431818,
                "tempo": 120.0
            },
            {
                "start_time": 46.0931818,
                "end_time": 46.1363636,
                "pitch": 24,
                "velocity": 16,
                "duration": 0.0431818,
                "tempo": 120.0
            },
            {
                "start_time": 46.1363636,
                "end_time": 46.1795455,
                "pitch": 21,
                "velocity": 16,
                "duration": 0.0431818,
                "tempo": 120.0
            },
            {
                "start_time": 46.1795455,
                "end_time": 46.2,
                "pitch": 18,
                "velocity": 16,
                "duration": 0.0204545,
                "tempo": 120.0
            },
            {
                "start_time": 46.2,
                "end_time": 46.2659091,
                "pitch": 15,
                "velocity": 16,
                "duration": 0.0659091,
                "tempo": 120.0
            },
            {
                "start_time": 46.2659091,
                "end_time": 46.3068182,
                "pitch": 18,
                "velocity": 16,
                "duration": 0.0409091,
                "tempo": 120.0
            },
            {
                "start_time": 46.3068182,
                "end_time": 46.3454545,
                "pitch": 21,
                "velocity": 16,
                "duration": 0.0386364,
                "tempo": 120.0
            },
            {
                "start_time": 46.3454545,
                "end_time": 46.3840909,
                "pitch": 24,
                "velocity": 16,
                "duration": 0.0386364,
                "tempo": 120.0
            },
            {
                "start_time": 46.3840909,
                "end_time": 46.4227273,
                "pitch": 26,
                "velocity": 16,
                "duration": 0.0386364,
                "tempo": 120.0
            },
            {
                "start_time": 46.4227273,
                "end_time": 46.4818182,
                "pitch": 28,
                "velocity": 16,
                "duration": 0.0590909,
                "tempo": 120.0
            },
            {
                "start_time": 46.4818182,
                "end_time": 46.5022727,
                "pitch": 31,
                "velocity": 16,
                "duration": 0.0204545,
                "tempo": 120.0
            },
            {
                "start_time": 45.6636364,
                "end_time": 46.5022727,
                "pitch": 43,
                "velocity": 16,
                "duration": 0.8386364,
                "tempo": 120.0
            },
            {
                "start_time": 46.5022727,
                "end_time": 46.5613636,
                "pitch": 31,
                "velocity": 16,
                "duration": 0.0590909,
                "tempo": 120.0
            },
            {
                "start_time": 46.5613636,
                "end_time": 46.6181818,
                "pitch": 34,
                "velocity": 16,
                "duration": 0.0568182,
                "tempo": 120.0
            },
            {
                "start_time": 46.6181818,
                "end_time": 46.6772727,
                "pitch": 36,
                "velocity": 16,
                "duration": 0.0590909,
                "tempo": 120.0
            },
            {
                "start_time": 46.6772727,
                "end_time": 46.7363636,
                "pitch": 34,
                "velocity": 16,
                "duration": 0.0590909,
                "tempo": 120.0
            },
            {
                "start_time": 46.7363636,
                "end_time": 46.7954545,
                "pitch": 31,
                "velocity": 16,
                "duration": 0.0590909,
                "tempo": 120.0
            },
            {
                "start_time": 46.7954545,
                "end_time": 46.8545455,
                "pitch": 29,
                "velocity": 16,
                "duration": 0.0590909,
                "tempo": 120.0
            },
            {
                "start_time": 46.8545455,
                "end_time": 46.8954545,
                "pitch": 26,
                "velocity": 16,
                "duration": 0.0409091,
                "tempo": 120.0
            },
            {
                "start_time": 46.8954545,
                "end_time": 46.9318182,
                "pitch": 24,
                "velocity": 16,
                "duration": 0.0363636,
                "tempo": 120.0
            },
            {
                "start_time": 46.9318182,
                "end_time": 46.9727273,
                "pitch": 21,
                "velocity": 16,
                "duration": 0.0409091,
                "tempo": 120.0
            },
            {
                "start_time": 46.9727273,
                "end_time": 46.9909091,
                "pitch": 18,
                "velocity": 16,
                "duration": 0.0181818,
                "tempo": 120.0
            },
            {
                "start_time": 46.9909091,
                "end_time": 47.05,
                "pitch": 15,
                "velocity": 16,
                "duration": 0.0590909,
                "tempo": 120.0
            },
            {
                "start_time": 47.05,
                "end_time": 47.0909091,
                "pitch": 18,
                "velocity": 16,
                "duration": 0.0409091,
                "tempo": 120.0
            },
            {
                "start_time": 47.0909091,
                "end_time": 47.1295455,
                "pitch": 21,
                "velocity": 16,
                "duration": 0.0386364,
                "tempo": 120.0
            },
            {
                "start_time": 47.1295455,
                "end_time": 47.1704545,
                "pitch": 24,
                "velocity": 16,
                "duration": 0.0409091,
                "tempo": 120.0
            },
            {
                "start_time": 47.1704545,
                "end_time": 47.2136364,
                "pitch": 26,
                "velocity": 16,
                "duration": 0.0431818,
                "tempo": 120.0
            },
            {
                "start_time": 47.2136364,
                "end_time": 47.2727273,
                "pitch": 28,
                "velocity": 16,
                "duration": 0.0590909,
                "tempo": 120.0
            },
            {
                "start_time": 47.2727273,
                "end_time": 47.2931818,
                "pitch": 31,
                "velocity": 16,
                "duration": 0.0204545,
                "tempo": 120.0
            },
            {
                "start_time": 46.5022727,
                "end_time": 47.2931818,
                "pitch": 43,
                "velocity": 16,
                "duration": 0.7909091,
                "tempo": 120.0
            },
            {
                "start_time": 47.2931818,
                "end_time": 47.3522727,
                "pitch": 31,
                "velocity": 16,
                "duration": 0.0590909,
                "tempo": 120.0
            },
            {
                "start_time": 47.3522727,
                "end_time": 47.4136364,
                "pitch": 34,
                "velocity": 16,
                "duration": 0.0613636,
                "tempo": 120.0
            },
            {
                "start_time": 47.4136364,
                "end_time": 47.475,
                "pitch": 36,
                "velocity": 16,
                "duration": 0.0613636,
                "tempo": 120.0
            },
            {
                "start_time": 47.475,
                "end_time": 47.5363636,
                "pitch": 34,
                "velocity": 16,
                "duration": 0.0613636,
                "tempo": 120.0
            },
            {
                "start_time": 47.5363636,
                "end_time": 47.5954545,
                "pitch": 31,
                "velocity": 16,
                "duration": 0.0590909,
                "tempo": 120.0
            },
            {
                "start_time": 47.5954545,
                "end_time": 47.6568182,
                "pitch": 29,
                "velocity": 16,
                "duration": 0.0613636,
                "tempo": 120.0
            },
            {
                "start_time": 47.6568182,
                "end_time": 47.6977273,
                "pitch": 26,
                "velocity": 16,
                "duration": 0.0409091,
                "tempo": 120.0
            },
            {
                "start_time": 47.6977273,
                "end_time": 47.7363636,
                "pitch": 24,
                "velocity": 16,
                "duration": 0.0386364,
                "tempo": 120.0
            },
            {
                "start_time": 47.7363636,
                "end_time": 47.7772727,
                "pitch": 21,
                "velocity": 16,
                "duration": 0.0409091,
                "tempo": 120.0
            },
            {
                "start_time": 47.7772727,
                "end_time": 47.7977273,
                "pitch": 18,
                "velocity": 16,
                "duration": 0.0204545,
                "tempo": 120.0
            },
            {
                "start_time": 47.7977273,
                "end_time": 47.8613636,
                "pitch": 15,
                "velocity": 16,
                "duration": 0.0636364,
                "tempo": 120.0
            },
            {
                "start_time": 47.8613636,
                "end_time": 47.8977273,
                "pitch": 18,
                "velocity": 16,
                "duration": 0.0363636,
                "tempo": 120.0
            },
            {
                "start_time": 47.8977273,
                "end_time": 47.9386364,
                "pitch": 21,
                "velocity": 16,
                "duration": 0.0409091,
                "tempo": 120.0
            },
            {
                "start_time": 47.9386364,
                "end_time": 47.9772727,
                "pitch": 24,
                "velocity": 16,
                "duration": 0.0386364,
                "tempo": 120.0
            },
            {
                "start_time": 47.9772727,
                "end_time": 48.0181818,
                "pitch": 26,
                "velocity": 16,
                "duration": 0.0409091,
                "tempo": 120.0
            },
            {
                "start_time": 48.0181818,
                "end_time": 48.0772727,
                "pitch": 28,
                "velocity": 16,
                "duration": 0.0590909,
                "tempo": 120.0
            },
            {
                "start_time": 48.0772727,
                "end_time": 48.0954545,
                "pitch": 31,
                "velocity": 16,
                "duration": 0.0181818,
                "tempo": 120.0
            },
            {
                "start_time": 47.2931818,
                "end_time": 48.0954545,
                "pitch": 43,
                "velocity": 16,
                "duration": 0.8022727,
                "tempo": 120.0
            },
            {
                "start_time": 48.0954545,
                "end_time": 48.1545455,
                "pitch": 31,
                "velocity": 16,
                "duration": 0.0590909,
                "tempo": 120.0
            },
            {
                "start_time": 48.1545455,
                "end_time": 48.2159091,
                "pitch": 34,
                "velocity": 16,
                "duration": 0.0613636,
                "tempo": 120.0
            },
            {
                "start_time": 48.2159091,
                "end_time": 48.275,
                "pitch": 36,
                "velocity": 16,
                "duration": 0.0590909,
                "tempo": 120.0
            },
            {
                "start_time": 48.275,
                "end_time": 48.3340909,
                "pitch": 34,
                "velocity": 16,
                "duration": 0.0590909,
                "tempo": 120.0
            },
            {
                "start_time": 48.3340909,
                "end_time": 48.3931818,
                "pitch": 31,
                "velocity": 16,
                "duration": 0.0590909,
                "tempo": 120.0
            },
            {
                "start_time": 48.3931818,
                "end_time": 48.4522727,
                "pitch": 29,
                "velocity": 16,
                "duration": 0.0590909,
                "tempo": 120.0
            },
            {
                "start_time": 48.4522727,
                "end_time": 48.4954545,
                "pitch": 26,
                "velocity": 16,
                "duration": 0.0431818,
                "tempo": 120.0
            },
            {
                "start_time": 48.4954545,
                "end_time": 48.5318182,
                "pitch": 24,
                "velocity": 16,
                "duration": 0.0363636,
                "tempo": 120.0
            },
            {
                "start_time": 48.5318182,
                "end_time": 48.5704545,
                "pitch": 21,
                "velocity": 16,
                "duration": 0.0386364,
                "tempo": 120.0
            },
            {
                "start_time": 48.5704545,
                "end_time": 48.5909091,
                "pitch": 18,
                "velocity": 16,
                "duration": 0.0204545,
                "tempo": 120.0
            },
            {
                "start_time": 48.5909091,
                "end_time": 48.65,
                "pitch": 15,
                "velocity": 16,
                "duration": 0.0590909,
                "tempo": 120.0
            },
            {
                "start_time": 48.65,
                "end_time": 48.6909091,
                "pitch": 18,
                "velocity": 16,
                "duration": 0.0409091,
                "tempo": 120.0
            },
            {
                "start_time": 48.6909091,
                "end_time": 48.7340909,
                "pitch": 21,
                "velocity": 16,
                "duration": 0.0431818,
                "tempo": 120.0
            },
            {
                "start_time": 48.7340909,
                "end_time": 48.775,
                "pitch": 24,
                "velocity": 16,
                "duration": 0.0409091,
                "tempo": 120.0
            },
            {
                "start_time": 48.775,
                "end_time": 48.8227273,
                "pitch": 26,
                "velocity": 16,
                "duration": 0.0477273,
                "tempo": 120.0
            },
            {
                "start_time": 48.8227273,
                "end_time": 48.8818182,
                "pitch": 28,
                "velocity": 16,
                "duration": 0.0590909,
                "tempo": 120.0
            },
            {
                "start_time": 48.8818182,
                "end_time": 48.9022727,
                "pitch": 31,
                "velocity": 16,
                "duration": 0.0204545,
                "tempo": 120.0
            },
            {
                "start_time": 48.0954545,
                "end_time": 48.9022727,
                "pitch": 43,
                "velocity": 16,
                "duration": 0.8068182,
                "tempo": 120.0
            },
            {
                "start_time": 48.9022727,
                "end_time": 48.9659091,
                "pitch": 31,
                "velocity": 16,
                "duration": 0.0636364,
                "tempo": 120.0
            },
            {
                "start_time": 48.9659091,
                "end_time": 49.0295455,
                "pitch": 34,
                "velocity": 16,
                "duration": 0.0636364,
                "tempo": 120.0
            },
            {
                "start_time": 49.0295455,
                "end_time": 49.0931818,
                "pitch": 36,
                "velocity": 16,
                "duration": 0.0636364,
                "tempo": 120.0
            },
            {
                "start_time": 49.0931818,
                "end_time": 49.1613636,
                "pitch": 34,
                "velocity": 16,
                "duration": 0.0681818,
                "tempo": 120.0
            },
            {
                "start_time": 49.1613636,
                "end_time": 49.2204545,
                "pitch": 31,
                "velocity": 16,
                "duration": 0.0590909,
                "tempo": 120.0
            },
            {
                "start_time": 49.2204545,
                "end_time": 49.2840909,
                "pitch": 29,
                "velocity": 16,
                "duration": 0.0636364,
                "tempo": 120.0
            },
            {
                "start_time": 49.2840909,
                "end_time": 49.3272727,
                "pitch": 26,
                "velocity": 16,
                "duration": 0.0431818,
                "tempo": 120.0
            },
            {
                "start_time": 49.3272727,
                "end_time": 49.3681818,
                "pitch": 24,
                "velocity": 16,
                "duration": 0.0409091,
                "tempo": 120.0
            },
            {
                "start_time": 49.3681818,
                "end_time": 49.4113636,
                "pitch": 21,
                "velocity": 16,
                "duration": 0.0431818,
                "tempo": 120.0
            },
            {
                "start_time": 49.4113636,
                "end_time": 49.4318182,
                "pitch": 18,
                "velocity": 16,
                "duration": 0.0204545,
                "tempo": 120.0
            },
            {
                "start_time": 49.4318182,
                "end_time": 49.5,
                "pitch": 15,
                "velocity": 16,
                "duration": 0.0681818,
                "tempo": 120.0
            },
            {
                "start_time": 49.5,
                "end_time": 49.5363636,
                "pitch": 18,
                "velocity": 16,
                "duration": 0.0363636,
                "tempo": 120.0
            },
            {
                "start_time": 49.5363636,
                "end_time": 49.575,
                "pitch": 21,
                "velocity": 16,
                "duration": 0.0386364,
                "tempo": 120.0
            },
            {
                "start_time": 49.575,
                "end_time": 49.6159091,
                "pitch": 24,
                "velocity": 16,
                "duration": 0.0409091,
                "tempo": 120.0
            },
            {
                "start_time": 49.6159091,
                "end_time": 49.6545455,
                "pitch": 26,
                "velocity": 16,
                "duration": 0.0386364,
                "tempo": 120.0
            },
            {
                "start_time": 49.6545455,
                "end_time": 49.7136364,
                "pitch": 28,
                "velocity": 16,
                "duration": 0.0590909,
                "tempo": 120.0
            },
            {
                "start_time": 49.7136364,
                "end_time": 49.7340909,
                "pitch": 31,
                "velocity": 16,
                "duration": 0.0204545,
                "tempo": 120.0
            },
            {
                "start_time": 48.9022727,
                "end_time": 49.7340909,
                "pitch": 43,
                "velocity": 16,
                "duration": 0.8318182,
                "tempo": 120.0
            },
            {
                "start_time": 49.7340909,
                "end_time": 49.7931818,
                "pitch": 31,
                "velocity": 16,
                "duration": 0.0590909,
                "tempo": 120.0
            },
            {
                "start_time": 49.7931818,
                "end_time": 49.8522727,
                "pitch": 34,
                "velocity": 16,
                "duration": 0.0590909,
                "tempo": 120.0
            },
            {
                "start_time": 49.8522727,
                "end_time": 49.9113636,
                "pitch": 36,
                "velocity": 16,
                "duration": 0.0590909,
                "tempo": 120.0
            },
            {
                "start_time": 49.9113636,
                "end_time": 49.9704545,
                "pitch": 34,
                "velocity": 16,
                "duration": 0.0590909,
                "tempo": 120.0
            },
            {
                "start_time": 49.9704545,
                "end_time": 50.0295455,
                "pitch": 31,
                "velocity": 16,
                "duration": 0.0590909,
                "tempo": 120.0
            },
            {
                "start_time": 50.0295455,
                "end_time": 50.0909091,
                "pitch": 29,
                "velocity": 16,
                "duration": 0.0613636,
                "tempo": 120.0
            },
            {
                "start_time": 50.0909091,
                "end_time": 50.1295455,
                "pitch": 26,
                "velocity": 16,
                "duration": 0.0386364,
                "tempo": 120.0
            },
            {
                "start_time": 50.1295455,
                "end_time": 50.1681818,
                "pitch": 24,
                "velocity": 16,
                "duration": 0.0386364,
                "tempo": 120.0
            },
            {
                "start_time": 50.1681818,
                "end_time": 50.2090909,
                "pitch": 21,
                "velocity": 16,
                "duration": 0.0409091,
                "tempo": 120.0
            },
            {
                "start_time": 50.2090909,
                "end_time": 50.2272727,
                "pitch": 18,
                "velocity": 16,
                "duration": 0.0181818,
                "tempo": 120.0
            },
            {
                "start_time": 50.2272727,
                "end_time": 50.2886364,
                "pitch": 15,
                "velocity": 16,
                "duration": 0.0613636,
                "tempo": 120.0
            },
            {
                "start_time": 50.2886364,
                "end_time": 50.3295455,
                "pitch": 18,
                "velocity": 16,
                "duration": 0.0409091,
                "tempo": 120.0
            },
            {
                "start_time": 50.3295455,
                "end_time": 50.3681818,
                "pitch": 21,
                "velocity": 16,
                "duration": 0.0386364,
                "tempo": 120.0
            },
            {
                "start_time": 50.3681818,
                "end_time": 50.4090909,
                "pitch": 24,
                "velocity": 16,
                "duration": 0.0409091,
                "tempo": 120.0
            },
            {
                "start_time": 50.4090909,
                "end_time": 50.45,
                "pitch": 26,
                "velocity": 16,
                "duration": 0.0409091,
                "tempo": 120.0
            },
            {
                "start_time": 50.45,
                "end_time": 50.5113636,
                "pitch": 28,
                "velocity": 16,
                "duration": 0.0613636,
                "tempo": 120.0
            },
            {
                "start_time": 50.5113636,
                "end_time": 50.5295455,
                "pitch": 31,
                "velocity": 16,
                "duration": 0.0181818,
                "tempo": 120.0
            },
            {
                "start_time": 49.7340909,
                "end_time": 50.5318182,
                "pitch": 43,
                "velocity": 16,
                "duration": 0.7977273,
                "tempo": 120.0
            },
            {
                "start_time": 50.5295455,
                "end_time": 50.5318182,
                "pitch": 43,
                "velocity": 16,
                "duration": 0.0022727,
                "tempo": 120.0
            },
            {
                "start_time": 50.5318182,
                "end_time": 50.5909091,
                "pitch": 31,
                "velocity": 16,
                "duration": 0.0590909,
                "tempo": 120.0
            },
            {
                "start_time": 50.5909091,
                "end_time": 50.6522727,
                "pitch": 34,
                "velocity": 16,
                "duration": 0.0613636,
                "tempo": 120.0
            },
            {
                "start_time": 50.6522727,
                "end_time": 50.7136364,
                "pitch": 36,
                "velocity": 16,
                "duration": 0.0613636,
                "tempo": 120.0
            },
            {
                "start_time": 50.7136364,
                "end_time": 50.775,
                "pitch": 34,
                "velocity": 16,
                "duration": 0.0613636,
                "tempo": 120.0
            },
            {
                "start_time": 50.775,
                "end_time": 50.8340909,
                "pitch": 31,
                "velocity": 16,
                "duration": 0.0590909,
                "tempo": 120.0
            },
            {
                "start_time": 50.8340909,
                "end_time": 50.8954545,
                "pitch": 29,
                "velocity": 16,
                "duration": 0.0613636,
                "tempo": 120.0
            },
            {
                "start_time": 50.8954545,
                "end_time": 50.9363636,
                "pitch": 26,
                "velocity": 16,
                "duration": 0.0409091,
                "tempo": 120.0
            },
            {
                "start_time": 50.9363636,
                "end_time": 50.975,
                "pitch": 24,
                "velocity": 16,
                "duration": 0.0386364,
                "tempo": 120.0
            },
            {
                "start_time": 50.975,
                "end_time": 51.0159091,
                "pitch": 21,
                "velocity": 16,
                "duration": 0.0409091,
                "tempo": 120.0
            },
            {
                "start_time": 51.0159091,
                "end_time": 51.0363636,
                "pitch": 18,
                "velocity": 16,
                "duration": 0.0204545,
                "tempo": 120.0
            },
            {
                "start_time": 51.0363636,
                "end_time": 51.0977273,
                "pitch": 15,
                "velocity": 16,
                "duration": 0.0613636,
                "tempo": 120.0
            },
            {
                "start_time": 51.0977273,
                "end_time": 51.1363636,
                "pitch": 18,
                "velocity": 16,
                "duration": 0.0386364,
                "tempo": 120.0
            },
            {
                "start_time": 51.1363636,
                "end_time": 51.175,
                "pitch": 21,
                "velocity": 16,
                "duration": 0.0386364,
                "tempo": 120.0
            },
            {
                "start_time": 51.175,
                "end_time": 51.2159091,
                "pitch": 24,
                "velocity": 16,
                "duration": 0.0409091,
                "tempo": 120.0
            },
            {
                "start_time": 51.2159091,
                "end_time": 51.2545455,
                "pitch": 26,
                "velocity": 16,
                "duration": 0.0386364,
                "tempo": 120.0
            },
            {
                "start_time": 51.2545455,
                "end_time": 51.3136364,
                "pitch": 28,
                "velocity": 16,
                "duration": 0.0590909,
                "tempo": 120.0
            },
            {
                "start_time": 51.3136364,
                "end_time": 51.3340909,
                "pitch": 31,
                "velocity": 16,
                "duration": 0.0204545,
                "tempo": 120.0
            },
            {
                "start_time": 51.3340909,
                "end_time": 51.3931818,
                "pitch": 31,
                "velocity": 16,
                "duration": 0.0590909,
                "tempo": 120.0
            },
            {
                "start_time": 51.3931818,
                "end_time": 51.4522727,
                "pitch": 34,
                "velocity": 16,
                "duration": 0.0590909,
                "tempo": 120.0
            },
            {
                "start_time": 51.4522727,
                "end_time": 51.5113636,
                "pitch": 36,
                "velocity": 16,
                "duration": 0.0590909,
                "tempo": 120.0
            },
            {
                "start_time": 51.5113636,
                "end_time": 51.5727273,
                "pitch": 34,
                "velocity": 16,
                "duration": 0.0613636,
                "tempo": 120.0
            },
            {
                "start_time": 51.5727273,
                "end_time": 51.6318182,
                "pitch": 31,
                "velocity": 16,
                "duration": 0.0590909,
                "tempo": 120.0
            },
            {
                "start_time": 51.6318182,
                "end_time": 51.6909091,
                "pitch": 29,
                "velocity": 16,
                "duration": 0.0590909,
                "tempo": 120.0
            },
            {
                "start_time": 51.6909091,
                "end_time": 51.7318182,
                "pitch": 26,
                "velocity": 16,
                "duration": 0.0409091,
                "tempo": 120.0
            },
            {
                "start_time": 51.7318182,
                "end_time": 51.7636364,
                "pitch": 24,
                "velocity": 16,
                "duration": 0.0318182,
                "tempo": 120.0
            },
            {
                "start_time": 51.7636364,
                "end_time": 51.7977273,
                "pitch": 21,
                "velocity": 16,
                "duration": 0.0340909,
                "tempo": 120.0
            },
            {
                "start_time": 51.7977273,
                "end_time": 51.8159091,
                "pitch": 18,
                "velocity": 16,
                "duration": 0.0181818,
                "tempo": 120.0
            },
            {
                "start_time": 51.8159091,
                "end_time": 51.8659091,
                "pitch": 15,
                "velocity": 16,
                "duration": 0.05,
                "tempo": 120.0
            },
            {
                "start_time": 51.8659091,
                "end_time": 51.9,
                "pitch": 18,
                "velocity": 16,
                "duration": 0.0340909,
                "tempo": 120.0
            },
            {
                "start_time": 51.9,
                "end_time": 51.9340909,
                "pitch": 21,
                "velocity": 16,
                "duration": 0.0340909,
                "tempo": 120.0
            },
            {
                "start_time": 51.9340909,
                "end_time": 51.9681818,
                "pitch": 24,
                "velocity": 16,
                "duration": 0.0340909,
                "tempo": 120.0
            },
            {
                "start_time": 51.9681818,
                "end_time": 52.0045455,
                "pitch": 26,
                "velocity": 16,
                "duration": 0.0363636,
                "tempo": 120.0
            },
            {
                "start_time": 52.0045455,
                "end_time": 52.0545455,
                "pitch": 28,
                "velocity": 16,
                "duration": 0.05,
                "tempo": 120.0
            },
            {
                "start_time": 52.0545455,
                "end_time": 52.0704545,
                "pitch": 31,
                "velocity": 16,
                "duration": 0.0159091,
                "tempo": 120.0
            },
            {
                "start_time": 51.3340909,
                "end_time": 52.0704545,
                "pitch": 43,
                "velocity": 16,
                "duration": 0.7363636,
                "tempo": 120.0
            },
            {
                "start_time": 52.0704545,
                "end_time": 52.1227273,
                "pitch": 31,
                "velocity": 16,
                "duration": 0.0522727,
                "tempo": 120.0
            },
            {
                "start_time": 52.1227273,
                "end_time": 52.1727273,
                "pitch": 34,
                "velocity": 16,
                "duration": 0.05,
                "tempo": 120.0
            },
            {
                "start_time": 52.1727273,
                "end_time": 52.225,
                "pitch": 36,
                "velocity": 16,
                "duration": 0.0522727,
                "tempo": 120.0
            },
            {
                "start_time": 52.8204545,
                "end_time": 62.8409091,
                "pitch": 47,
                "velocity": 40,
                "duration": 10.0204545,
                "tempo": 120.0
            },
            {
                "start_time": 62.9022727,
                "end_time": 66.7590909,
                "pitch": 47,
                "velocity": 40,
                "duration": 3.8568182,
                "tempo": 120.0
            },
            {
                "start_time": 73.3590909,
                "end_time": 77.1954545,
                "pitch": 47,
                "velocity": 40,
                "duration": 3.8363636,
                "tempo": 120.0
            },
            {
                "start_time": 73.3590909,
                "end_time": 83.7772727,
                "pitch": 53,
                "velocity": 40,
                "duration": 10.4181818,
                "tempo": 120.0
            },
            {
                "start_time": 83.7772727,
                "end_time": 87.65,
                "pitch": 47,
                "velocity": 40,
                "duration": 3.8727273,
                "tempo": 120.0
            },
            {
                "start_time": 83.7772727,
                "end_time": 93.9772727,
                "pitch": 53,
                "velocity": 40,
                "duration": 10.2,
                "tempo": 120.0
            },
            {
                "start_time": 93.9772727,
                "end_time": 97.0318182,
                "pitch": 47,
                "velocity": 40,
                "duration": 3.0545455,
                "tempo": 120.0
            },
            {
                "start_time": 93.9772727,
                "end_time": 102.2886364,
                "pitch": 53,
                "velocity": 40,
                "duration": 8.3113636,
                "tempo": 120.0
            },
            {
                "start_time": 52.0704545,
                "end_time": 105.8204545,
                "pitch": 43,
                "velocity": 16,
                "duration": 53.75,
                "tempo": 120.0
            },
            {
                "start_time": 102.2886364,
                "end_time": 105.8204545,
                "pitch": 43,
                "velocity": 40,
                "duration": 3.5318182,
                "tempo": 120.0
            },
            {
                "start_time": 102.2886364,
                "end_time": 112.4022727,
                "pitch": 53,
                "velocity": 40,
                "duration": 10.1136364,
                "tempo": 120.0
            },
            {
                "start_time": 112.4022727,
                "end_time": 116.2590909,
                "pitch": 47,
                "velocity": 40,
                "duration": 3.8568182,
                "tempo": 120.0
            },
            {
                "start_time": 112.4022727,
                "end_time": 122.1954545,
                "pitch": 53,
                "velocity": 40,
                "duration": 9.7931818,
                "tempo": 120.0
            },
            {
                "start_time": 122.1954545,
                "end_time": 125.2590909,
                "pitch": 43,
                "velocity": 40,
                "duration": 3.0636364,
                "tempo": 120.0
            },
            {
                "start_time": 122.1954545,
                "end_time": 130.5090909,
                "pitch": 53,
                "velocity": 40,
                "duration": 8.3136364,
                "tempo": 120.0
            },
            {
                "start_time": 130.5090909,
                "end_time": 133.5545455,
                "pitch": 47,
                "velocity": 40,
                "duration": 3.0454545,
                "tempo": 120.0
            },
            {
                "start_time": 130.5090909,
                "end_time": 138.8363636,
                "pitch": 53,
                "velocity": 40,
                "duration": 8.3272727,
                "tempo": 120.0
            },
            {
                "start_time": 138.8363636,
                "end_time": 141.8931818,
                "pitch": 43,
                "velocity": 40,
                "duration": 3.0568182,
                "tempo": 120.0
            },
            {
                "start_time": 138.8363636,
                "end_time": 145.075,
                "pitch": 53,
                "velocity": 40,
                "duration": 6.2386364,
                "tempo": 120.0
            },
            {
                "start_time": 145.075,
                "end_time": 147.1045455,
                "pitch": 45,
                "velocity": 40,
                "duration": 2.0295455,
                "tempo": 120.0
            },
            {
                "start_time": 147.1568182,
                "end_time": 151.15,
                "pitch": 45,
                "velocity": 40,
                "duration": 3.9931818,
                "tempo": 120.0
            },
            {
                "start_time": 145.075,
                "end_time": 160.3295455,
                "pitch": 53,
                "velocity": 40,
                "duration": 15.2545455,
                "tempo": 120.0
            },
            {
                "start_time": 160.3295455,
                "end_time": 165.3113636,
                "pitch": 47,
                "velocity": 40,
                "duration": 4.9818182,
                "tempo": 120.0
            },
            {
                "start_time": 160.3295455,
                "end_time": 173.5272727,
                "pitch": 53,
                "velocity": 40,
                "duration": 13.1977273,
                "tempo": 120.0
            },
            {
                "start_time": 173.5272727,
                "end_time": 178.3409091,
                "pitch": 47,
                "velocity": 40,
                "duration": 4.8136364,
                "tempo": 120.0
            }
        ],
        "Vibraphone": [
            {
                "start_time": 66.8227273,
                "end_time": 73.2954545,
                "pitch": 39,
                "velocity": 40,
                "duration": 6.4727273,
                "tempo": 120.0
            },
            {
                "start_time": 66.8227273,
                "end_time": 77.2590909,
                "pitch": 19,
                "velocity": 40,
                "duration": 10.4363636,
                "tempo": 120.0
            },
            {
                "start_time": 77.2590909,
                "end_time": 83.7136364,
                "pitch": 39,
                "velocity": 40,
                "duration": 6.4545455,
                "tempo": 120.0
            },
            {
                "start_time": 77.2590909,
                "end_time": 87.7090909,
                "pitch": 19,
                "velocity": 40,
                "duration": 10.45,
                "tempo": 120.0
            },
            {
                "start_time": 87.7090909,
                "end_time": 93.925,
                "pitch": 39,
                "velocity": 40,
                "duration": 6.2159091,
                "tempo": 120.0
            },
            {
                "start_time": 87.7090909,
                "end_time": 97.0863636,
                "pitch": 19,
                "velocity": 40,
                "duration": 9.3772727,
                "tempo": 120.0
            },
            {
                "start_time": 97.0863636,
                "end_time": 102.2386364,
                "pitch": 39,
                "velocity": 40,
                "duration": 5.1522727,
                "tempo": 120.0
            },
            {
                "start_time": 105.8840909,
                "end_time": 112.3409091,
                "pitch": 39,
                "velocity": 40,
                "duration": 6.4568182,
                "tempo": 120.0
            },
            {
                "start_time": 97.0863636,
                "end_time": 116.3227273,
                "pitch": 19,
                "velocity": 40,
                "duration": 19.2363636,
                "tempo": 120.0
            },
            {
                "start_time": 116.3227273,
                "end_time": 122.1454545,
                "pitch": 39,
                "velocity": 40,
                "duration": 5.8227273,
                "tempo": 120.0
            },
            {
                "start_time": 105.8840909,
                "end_time": 125.3090909,
                "pitch": 0,
                "velocity": 40,
                "duration": 19.425,
                "tempo": 120.0
            },
            {
                "start_time": 125.3090909,
                "end_time": 130.4590909,
                "pitch": 39,
                "velocity": 40,
                "duration": 5.15,
                "tempo": 120.0
            },
            {
                "start_time": 116.3227273,
                "end_time": 133.6068182,
                "pitch": 19,
                "velocity": 40,
                "duration": 17.2840909,
                "tempo": 120.0
            },
            {
                "start_time": 133.6068182,
                "end_time": 138.7840909,
                "pitch": 39,
                "velocity": 40,
                "duration": 5.1772727,
                "tempo": 120.0
            },
            {
                "start_time": 125.3090909,
                "end_time": 141.9431818,
                "pitch": 0,
                "velocity": 40,
                "duration": 16.6340909,
                "tempo": 120.0
            },
            {
                "start_time": 141.9431818,
                "end_time": 145.0227273,
                "pitch": 39,
                "velocity": 40,
                "duration": 3.0795455,
                "tempo": 120.0
            },
            {
                "start_time": 133.6068182,
                "end_time": 151.2181818,
                "pitch": 19,
                "velocity": 40,
                "duration": 17.6113636,
                "tempo": 120.0
            },
            {
                "start_time": 151.2181818,
                "end_time": 160.2431818,
                "pitch": 39,
                "velocity": 40,
                "duration": 9.025,
                "tempo": 120.0
            },
            {
                "start_time": 151.2181818,
                "end_time": 165.3886364,
                "pitch": 19,
                "velocity": 40,
                "duration": 14.1704545,
                "tempo": 120.0
            },
            {
                "start_time": 165.3886364,
                "end_time": 173.45,
                "pitch": 39,
                "velocity": 40,
                "duration": 8.0613636,
                "tempo": 120.0
            },
            {
                "start_time": 165.3886364,
                "end_time": 178.4181818,
                "pitch": 19,
                "velocity": 40,
                "duration": 13.0295455,
                "tempo": 120.0
            }
        ],
        "Oboe": [
            {
                "start_time": 61.5863636,
                "end_time": 63.5022727,
                "pitch": 52,
                "velocity": 64,
                "duration": 1.9159091,
                "tempo": 120.0
            },
            {
                "start_time": 63.5636364,
                "end_time": 66.7590909,
                "pitch": 47,
                "velocity": 64,
                "duration": 3.1954545,
                "tempo": 120.0
            },
            {
                "start_time": 66.8227273,
                "end_time": 67.4136364,
                "pitch": 59,
                "velocity": 64,
                "duration": 0.5909091,
                "tempo": 120.0
            },
            {
                "start_time": 67.4772727,
                "end_time": 68.0681818,
                "pitch": 59,
                "velocity": 64,
                "duration": 0.5909091,
                "tempo": 120.0
            },
            {
                "start_time": 61.5863636,
                "end_time": 68.1318182,
                "pitch": 27,
                "velocity": 64,
                "duration": 6.5454545,
                "tempo": 120.0
            },
            {
                "start_time": 68.1318182,
                "end_time": 71.9863636,
                "pitch": 52,
                "velocity": 64,
                "duration": 3.8545455,
                "tempo": 120.0
            },
            {
                "start_time": 72.0477273,
                "end_time": 72.6340909,
                "pitch": 59,
                "velocity": 64,
                "duration": 0.5863636,
                "tempo": 120.0
            },
            {
                "start_time": 72.6977273,
                "end_time": 73.2954545,
                "pitch": 59,
                "velocity": 64,
                "duration": 0.5977273,
                "tempo": 120.0
            },
            {
                "start_time": 68.1318182,
                "end_time": 73.3590909,
                "pitch": 27,
                "velocity": 64,
                "duration": 5.2272727,
                "tempo": 120.0
            },
            {
                "start_time": 73.3590909,
                "end_time": 77.1954545,
                "pitch": 52,
                "velocity": 64,
                "duration": 3.8363636,
                "tempo": 120.0
            },
            {
                "start_time": 63.5636364,
                "end_time": 84.3681818,
                "pitch": 54,
                "velocity": 64,
                "duration": 20.8045455,
                "tempo": 120.0
            },
            {
                "start_time": 83.1295455,
                "end_time": 84.3681818,
                "pitch": 54,
                "velocity": 64,
                "duration": 1.2386364,
                "tempo": 120.0
            },
            {
                "start_time": 84.4318182,
                "end_time": 87.65,
                "pitch": 47,
                "velocity": 64,
                "duration": 3.2181818,
                "tempo": 120.0
            },
            {
                "start_time": 87.7090909,
                "end_time": 88.2840909,
                "pitch": 59,
                "velocity": 64,
                "duration": 0.575,
                "tempo": 120.0
            },
            {
                "start_time": 88.3454545,
                "end_time": 88.9318182,
                "pitch": 59,
                "velocity": 64,
                "duration": 0.5863636,
                "tempo": 120.0
            },
            {
                "start_time": 73.3590909,
                "end_time": 88.9954545,
                "pitch": 27,
                "velocity": 64,
                "duration": 15.6363636,
                "tempo": 120.0
            },
            {
                "start_time": 88.9954545,
                "end_time": 92.8522727,
                "pitch": 52,
                "velocity": 64,
                "duration": 3.8568182,
                "tempo": 120.0
            },
            {
                "start_time": 92.9136364,
                "end_time": 93.4,
                "pitch": 64,
                "velocity": 64,
                "duration": 0.4863636,
                "tempo": 120.0
            },
            {
                "start_time": 93.4522727,
                "end_time": 93.925,
                "pitch": 62,
                "velocity": 64,
                "duration": 0.4727273,
                "tempo": 120.0
            },
            {
                "start_time": 93.975,
                "end_time": 94.4431818,
                "pitch": 57,
                "velocity": 64,
                "duration": 0.4681818,
                "tempo": 120.0
            },
            {
                "start_time": 94.4909091,
                "end_time": 94.4931818,
                "pitch": 57,
                "velocity": 64,
                "duration": 0.0022727,
                "tempo": 120.0
            },
            {
                "start_time": 94.4931818,
                "end_time": 97.0318182,
                "pitch": 59,
                "velocity": 64,
                "duration": 2.5386364,
                "tempo": 120.0
            },
            {
                "start_time": 100.7159091,
                "end_time": 101.7136364,
                "pitch": 47,
                "velocity": 64,
                "duration": 0.9977273,
                "tempo": 120.0
            },
            {
                "start_time": 101.7636364,
                "end_time": 102.2386364,
                "pitch": 52,
                "velocity": 64,
                "duration": 0.475,
                "tempo": 120.0
            },
            {
                "start_time": 102.2886364,
                "end_time": 102.7568182,
                "pitch": 52,
                "velocity": 64,
                "duration": 0.4681818,
                "tempo": 120.0
            },
            {
                "start_time": 72.0477273,
                "end_time": 102.8045455,
                "pitch": 66,
                "velocity": 64,
                "duration": 30.7568182,
                "tempo": 120.0
            },
            {
                "start_time": 102.8045455,
                "end_time": 105.8204545,
                "pitch": 55,
                "velocity": 64,
                "duration": 3.0159091,
                "tempo": 120.0
            },
            {
                "start_time": 105.8818182,
                "end_time": 106.4818182,
                "pitch": 57,
                "velocity": 64,
                "duration": 0.6,
                "tempo": 120.0
            },
            {
                "start_time": 106.5454545,
                "end_time": 109.7386364,
                "pitch": 59,
                "velocity": 64,
                "duration": 3.1931818,
                "tempo": 120.0
            },
            {
                "start_time": 109.8022727,
                "end_time": 111.0386364,
                "pitch": 62,
                "velocity": 64,
                "duration": 1.2363636,
                "tempo": 120.0
            },
            {
                "start_time": 93.975,
                "end_time": 111.1022727,
                "pitch": 65,
                "velocity": 64,
                "duration": 17.1272727,
                "tempo": 120.0
            },
            {
                "start_time": 111.1022727,
                "end_time": 114.95,
                "pitch": 59,
                "velocity": 64,
                "duration": 3.8477273,
                "tempo": 120.0
            },
            {
                "start_time": 120.6204545,
                "end_time": 121.6295455,
                "pitch": 47,
                "velocity": 64,
                "duration": 1.0090909,
                "tempo": 120.0
            },
            {
                "start_time": 101.7636364,
                "end_time": 121.6818182,
                "pitch": 32,
                "velocity": 64,
                "duration": 19.9181818,
                "tempo": 120.0
            },
            {
                "start_time": 121.6818182,
                "end_time": 122.1454545,
                "pitch": 52,
                "velocity": 64,
                "duration": 0.4636364,
                "tempo": 120.0
            },
            {
                "start_time": 122.1954545,
                "end_time": 122.6704545,
                "pitch": 52,
                "velocity": 64,
                "duration": 0.475,
                "tempo": 120.0
            },
            {
                "start_time": 102.8045455,
                "end_time": 122.7204545,
                "pitch": 66,
                "velocity": 64,
                "duration": 19.9159091,
                "tempo": 120.0
            },
            {
                "start_time": 105.8818182,
                "end_time": 125.2590909,
                "pitch": 55,
                "velocity": 64,
                "duration": 19.3772727,
                "tempo": 120.0
            },
            {
                "start_time": 122.7204545,
                "end_time": 125.2590909,
                "pitch": 55,
                "velocity": 64,
                "duration": 2.5386364,
                "tempo": 120.0
            },
            {
                "start_time": 106.5454545,
                "end_time": 125.7840909,
                "pitch": 57,
                "velocity": 64,
                "duration": 19.2386364,
                "tempo": 120.0
            },
            {
                "start_time": 125.3068182,
                "end_time": 125.7840909,
                "pitch": 57,
                "velocity": 64,
                "duration": 0.4772727,
                "tempo": 120.0
            },
            {
                "start_time": 125.8340909,
                "end_time": 128.3522727,
                "pitch": 59,
                "velocity": 64,
                "duration": 2.5181818,
                "tempo": 120.0
            },
            {
                "start_time": 109.8022727,
                "end_time": 128.3977273,
                "pitch": 44,
                "velocity": 64,
                "duration": 18.5954545,
                "tempo": 120.0
            },
            {
                "start_time": 128.3977273,
                "end_time": 128.8909091,
                "pitch": 60,
                "velocity": 64,
                "duration": 0.4931818,
                "tempo": 120.0
            },
            {
                "start_time": 128.9431818,
                "end_time": 129.1545455,
                "pitch": 62,
                "velocity": 64,
                "duration": 0.2113636,
                "tempo": 120.0
            },
            {
                "start_time": 93.4522727,
                "end_time": 129.4181818,
                "pitch": 64,
                "velocity": 64,
                "duration": 35.9659091,
                "tempo": 120.0
            },
            {
                "start_time": 129.2068182,
                "end_time": 129.4181818,
                "pitch": 64,
                "velocity": 64,
                "duration": 0.2113636,
                "tempo": 120.0
            },
            {
                "start_time": 129.4681818,
                "end_time": 129.9340909,
                "pitch": 64,
                "velocity": 64,
                "duration": 0.4659091,
                "tempo": 120.0
            },
            {
                "start_time": 129.9840909,
                "end_time": 133.6045455,
                "pitch": 67,
                "velocity": 64,
                "duration": 3.6204545,
                "tempo": 120.0
            },
            {
                "start_time": 121.6818182,
                "end_time": 140.3772727,
                "pitch": 32,
                "velocity": 64,
                "duration": 18.6954545,
                "tempo": 120.0
            },
            {
                "start_time": 140.3772727,
                "end_time": 140.8522727,
                "pitch": 50,
                "velocity": 64,
                "duration": 0.475,
                "tempo": 120.0
            },
            {
                "start_time": 140.9022727,
                "end_time": 141.3772727,
                "pitch": 52,
                "velocity": 64,
                "duration": 0.475,
                "tempo": 120.0
            },
            {
                "start_time": 141.4272727,
                "end_time": 141.8931818,
                "pitch": 52,
                "velocity": 64,
                "duration": 0.4659091,
                "tempo": 120.0
            },
            {
                "start_time": 122.7204545,
                "end_time": 141.9431818,
                "pitch": 66,
                "velocity": 64,
                "duration": 19.2227273,
                "tempo": 120.0
            },
            {
                "start_time": 125.8340909,
                "end_time": 142.4090909,
                "pitch": 57,
                "velocity": 64,
                "duration": 16.575,
                "tempo": 120.0
            },
            {
                "start_time": 141.9431818,
                "end_time": 142.4090909,
                "pitch": 57,
                "velocity": 64,
                "duration": 0.4659091,
                "tempo": 120.0
            },
            {
                "start_time": 128.9431818,
                "end_time": 143.9772727,
                "pitch": 60,
                "velocity": 64,
                "duration": 15.0340909,
                "tempo": 120.0
            },
            {
                "start_time": 142.4590909,
                "end_time": 143.9772727,
                "pitch": 60,
                "velocity": 64,
                "duration": 1.5181818,
                "tempo": 120.0
            },
            {
                "start_time": 84.4318182,
                "end_time": 145.0227273,
                "pitch": 54,
                "velocity": 64,
                "duration": 60.5909091,
                "tempo": 120.0
            },
            {
                "start_time": 144.025,
                "end_time": 145.0227273,
                "pitch": 54,
                "velocity": 64,
                "duration": 0.9977273,
                "tempo": 120.0
            },
            {
                "start_time": 141.9431818,
                "end_time": 145.0727273,
                "pitch": 66,
                "velocity": 64,
                "duration": 3.1295455,
                "tempo": 120.0
            },
            {
                "start_time": 145.0727273,
                "end_time": 146.0318182,
                "pitch": 57,
                "velocity": 64,
                "duration": 0.9590909,
                "tempo": 120.0
            },
            {
                "start_time": 142.4590909,
                "end_time": 146.0795455,
                "pitch": 31,
                "velocity": 64,
                "duration": 3.6204545,
                "tempo": 120.0
            },
            {
                "start_time": 129.2068182,
                "end_time": 148.3977273,
                "pitch": 62,
                "velocity": 64,
                "duration": 19.1909091,
                "tempo": 120.0
            },
            {
                "start_time": 146.0795455,
                "end_time": 148.3977273,
                "pitch": 62,
                "velocity": 64,
                "duration": 2.3181818,
                "tempo": 120.0
            },
            {
                "start_time": 111.1022727,
                "end_time": 148.4590909,
                "pitch": 65,
                "velocity": 64,
                "duration": 37.3568182,
                "tempo": 120.0
            },
            {
                "start_time": 148.4590909,
                "end_time": 159.3477273,
                "pitch": 59,
                "velocity": 64,
                "duration": 10.8886364,
                "tempo": 120.0
            },
            {
                "start_time": 159.4363636,
                "end_time": 172.6409091,
                "pitch": 59,
                "velocity": 64,
                "duration": 13.2045455,
                "tempo": 120.0
            }
        ]
    }
}