{
    "mood": "sad",
    "instruments": {
        "Clarinet": [
            {
                "start_time": 0.0954545,
                "end_time": 0.1795455,
                "pitch": 60,
                "velocity": 64,
                "duration": 0.0840909,
                "tempo": 120.0
            },
            {
                "start_time": 0.4136364,
                "end_time": 0.4977273,
                "pitch": 66,
                "velocity": 64,
                "duration": 0.0840909,
                "tempo": 120.0
            },
            {
                "start_time": 0.7318182,
                "end_time": 0.8159091,
                "pitch": 60,
                "velocity": 64,
                "duration": 0.0840909,
                "tempo": 120.0
            },
            {
                "start_time": 1.35,
                "end_time": 1.4340909,
                "pitch": 48,
                "velocity": 64,
                "duration": 0.0840909,
                "tempo": 120.0
            },
            {
                "start_time": 1.6659091,
                "end_time": 1.7477273,
                "pitch": 54,
                "velocity": 64,
                "duration": 0.0818182,
                "tempo": 120.0
            },
            {
                "start_time": 2.5931818,
                "end_time": 2.675,
                "pitch": 60,
                "velocity": 64,
                "duration": 0.0818182,
                "tempo": 120.0
            },
            {
                "start_time": 2.9113636,
                "end_time": 2.9931818,
                "pitch": 66,
                "velocity": 64,
                "duration": 0.0818182,
                "tempo": 120.0
            },
            {
                "start_time": 3.2272727,
                "end_time": 3.3113636,
                "pitch": 60,
                "velocity": 64,
                "duration": 0.0840909,
                "tempo": 120.0
            },
            {
                "start_time": 3.8477273,
                "end_time": 3.9295455,
                "pitch": 48,
                "velocity": 64,
                "duration": 0.0818182,
                "tempo": 120.0
            },
            {
                "start_time": 4.1659091,
                "end_time": 4.2477273,
                "pitch": 54,
                "velocity": 64,
                "duration": 0.0818182,
                "tempo": 120.0
            }
        ],
        "Flute": [
            {
                "start_time": 25.0818182,
                "end_time": 25.3977273,
                "pitch": 72,
                "velocity": 64,
                "duration": 0.3159091,
                "tempo": 120.0
            },
            {
                "start_time": 25.4,
                "end_time": 25.7159091,
                "pitch": 73,
                "velocity": 64,
                "duration": 0.3159091,
                "tempo": 120.0
            },
            {
                "start_time": 25.7159091,
                "end_time": 26.0409091,
                "pitch": 76,
                "velocity": 64,
                "duration": 0.325,
                "tempo": 120.0
            },
            {
                "start_time": 26.0409091,
                "end_time": 26.35,
                "pitch": 77,
                "velocity": 64,
                "duration": 0.3090909,
                "tempo": 120.0
            },
            {
                "start_time": 26.35,
                "end_time": 26.6727273,
                "pitch": 76,
                "velocity": 64,
                "duration": 0.3227273,
                "tempo": 120.0
            },
            {
                "start_time": 26.675,
                "end_time": 26.9977273,
                "pitch": 73,
                "velocity": 64,
                "duration": 0.3227273,
                "tempo": 120.0
            },
            {
                "start_time": 26.9977273,
                "end_time": 27.3068182,
                "pitch": 72,
                "velocity": 64,
                "duration": 0.3090909,
                "tempo": 120.0
            },
            {
                "start_time": 27.3068182,
                "end_time": 27.6,
                "pitch": 71,
                "velocity": 64,
                "duration": 0.2931818,
                "tempo": 120.0
            },
            {
                "start_time": 27.6,
                "end_time": 30.0954545,
                "pitch": 72,
                "velocity": 64,
                "duration": 2.4954545,
                "tempo": 120.0
            }
        ],
        "French Horn": [
            {
                "start_time": 30.0954545,
                "end_time": 30.4090909,
                "pitch": 48,
                "velocity": 64,
                "duration": 0.3136364,
                "tempo": 120.0
            },
            {
                "start_time": 30.4090909,
                "end_time": 30.725,
                "pitch": 49,
                "velocity": 64,
                "duration": 0.3159091,
                "tempo": 120.0
            },
            {
                "start_time": 30.725,
                "end_time": 31.0431818,
                "pitch": 52,
                "velocity": 64,
                "duration": 0.3181818,
                "tempo": 120.0
            },
            {
                "start_time": 31.0431818,
                "end_time": 31.3431818,
                "pitch": 53,
                "velocity": 64,
                "duration": 0.3,
                "tempo": 120.0
            },
            {
                "start_time": 31.3454545,
                "end_time": 32.0,
                "pitch": 52,
                "velocity": 64,
                "duration": 0.6545455,
                "tempo": 120.0
            },
            {
                "start_time": 32.0,
                "end_time": 32.3181818,
                "pitch": 49,
                "velocity": 64,
                "duration": 0.3181818,
                "tempo": 120.0
            },
            {
                "start_time": 32.3181818,
                "end_time": 32.6204545,
                "pitch": 51,
                "velocity": 64,
                "duration": 0.3022727,
                "tempo": 120.0
            },
            {
                "start_time": 32.6204545,
                "end_time": 35.1,
                "pitch": 48,
                "velocity": 64,
                "duration": 2.4795455,
                "tempo": 120.0
            }
        ],
        "Oboe": [
            {
                "start_time": 0.0977273,
                "end_time": 0.1795455,
                "pitch": 36,
                "velocity": 80,
                "duration": 0.0818182,
                "tempo": 120.0
            },
            {
                "start_time": 0.4136364,
                "end_time": 0.4977273,
                "pitch": 42,
                "velocity": 80,
                "duration": 0.0840909,
                "tempo": 120.0
            },
            {
                "start_time": 0.7318182,
                "end_time": 0.8159091,
                "pitch": 36,
                "velocity": 80,
                "duration": 0.0840909,
                "tempo": 120.0
            },
            {
                "start_time": 1.3522727,
                "end_time": 1.4340909,
                "pitch": 24,
                "velocity": 80,
                "duration": 0.0818182,
                "tempo": 120.0
            },
            {
                "start_time": 1.6659091,
                "end_time": 1.7477273,
                "pitch": 30,
                "velocity": 80,
                "duration": 0.0818182,
                "tempo": 120.0
            },
            {
                "start_time": 2.5954545,
                "end_time": 2.675,
                "pitch": 36,
                "velocity": 80,
                "duration": 0.0795455,
                "tempo": 120.0
            },
            {
                "start_time": 2.9113636,
                "end_time": 2.9931818,
                "pitch": 42,
                "velocity": 80,
                "duration": 0.0818182,
                "tempo": 120.0
            },
            {
                "start_time": 3.2295455,
                "end_time": 3.3113636,
                "pitch": 36,
                "velocity": 80,
                "duration": 0.0818182,
                "tempo": 120.0
            },
            {
                "start_time": 3.8477273,
                "end_time": 3.9318182,
                "pitch": 24,
                "velocity": 80,
                "duration": 0.0840909,
                "tempo": 120.0
            },
            {
                "start_time": 4.1659091,
                "end_time": 4.2477273,
                "pitch": 30,
                "velocity": 80,
                "duration": 0.0818182,
                "tempo": 120.0
            },
            {
                "start_time": 5.0840909,
                "end_time": 5.1659091,
                "pitch": 36,
                "velocity": 80,
                "duration": 0.0818182,
                "tempo": 120.0
            },
            {
                "start_time": 5.4,
                "end_time": 5.4840909,
                "pitch": 42,
                "velocity": 80,
                "duration": 0.0840909,
                "tempo": 120.0
            },
            {
                "start_time": 5.7181818,
                "end_time": 5.8045455,
                "pitch": 36,
                "velocity": 80,
                "duration": 0.0863636,
                "tempo": 120.0
            },
            {
                "start_time": 6.3522727,
                "end_time": 6.4363636,
                "pitch": 24,
                "velocity": 80,
                "duration": 0.0840909,
                "tempo": 120.0
            },
            {
                "start_time": 6.6772727,
                "end_time": 6.7613636,
                "pitch": 30,
                "velocity": 80,
                "duration": 0.0840909,
                "tempo": 120.0
            },
            {
                "start_time": 7.6159091,
                "end_time": 7.6954545,
                "pitch": 36,
                "velocity": 80,
                "duration": 0.0795455,
                "tempo": 120.0
            },
            {
                "start_time": 7.9227273,
                "end_time": 8.0022727,
                "pitch": 42,
                "velocity": 80,
                "duration": 0.0795455,
                "tempo": 120.0
            },
            {
                "start_time": 8.2295455,
                "end_time": 8.3136364,
                "pitch": 36,
                "velocity": 80,
                "duration": 0.0840909,
                "tempo": 120.0
            },
            {
                "start_time": 8.85,
                "end_time": 8.9340909,
                "pitch": 24,
                "velocity": 80,
                "duration": 0.0840909,
                "tempo": 120.0
            },
            {
                "start_time": 9.1772727,
                "end_time": 9.2636364,
                "pitch": 30,
                "velocity": 80,
                "duration": 0.0863636,
                "tempo": 120.0
            },
            {
                "start_time": 10.1204545,
                "end_time": 10.1977273,
                "pitch": 36,
                "velocity": 80,
                "duration": 0.0772727,
                "tempo": 120.0
            },
            {
                "start_time": 10.4204545,
                "end_time": 10.5,
                "pitch": 42,
                "velocity": 80,
                "duration": 0.0795455,
                "tempo": 120.0
            },
            {
                "start_time": 10.7227273,
                "end_time": 10.8068182,
                "pitch": 36,
                "velocity": 80,
                "duration": 0.0840909,
                "tempo": 120.0
            },
            {
                "start_time": 11.3545455,
                "end_time": 11.4386364,
                "pitch": 24,
                "velocity": 80,
                "duration": 0.0840909,
                "tempo": 120.0
            },
            {
                "start_time": 11.6727273,
                "end_time": 11.7568182,
                "pitch": 30,
                "velocity": 80,
                "duration": 0.0840909,
                "tempo": 120.0
            },
            {
                "start_time": 12.6113636,
                "end_time": 12.6909091,
                "pitch": 36,
                "velocity": 80,
                "duration": 0.0795455,
                "tempo": 120.0
            },
            {
                "start_time": 12.9181818,
                "end_time": 12.9977273,
                "pitch": 42,
                "velocity": 80,
                "duration": 0.0795455,
                "tempo": 120.0
            },
            {
                "start_time": 13.225,
                "end_time": 13.3090909,
                "pitch": 36,
                "velocity": 80,
                "duration": 0.0840909,
                "tempo": 120.0
            },
            {
                "start_time": 13.8454545,
                "end_time": 13.9295455,
                "pitch": 24,
                "velocity": 80,
                "duration": 0.0840909,
                "tempo": 120.0
            },
            {
                "start_time": 14.1704545,
                "end_time": 14.2545455,
                "pitch": 30,
                "velocity": 80,
                "duration": 0.0840909,
                "tempo": 120.0
            },
            {
                "start_time": 15.0840909,
                "end_time": 15.1636364,
                "pitch": 36,
                "velocity": 80,
                "duration": 0.0795455,
                "tempo": 120.0
            },
            {
                "start_time": 15.4,
                "end_time": 15.4818182,
                "pitch": 42,
                "velocity": 80,
                "duration": 0.0818182,
                "tempo": 120.0
            },
            {
                "start_time": 15.7181818,
                "end_time": 15.8,
                "pitch": 36,
                "velocity": 80,
                "duration": 0.0818182,
                "tempo": 120.0
            },
            {
                "start_time": 16.3386364,
                "end_time": 16.4181818,
                "pitch": 24,
                "velocity": 80,
                "duration": 0.0795455,
                "tempo": 120.0
            },
            {
                "start_time": 16.6522727,
                "end_time": 16.7340909,
                "pitch": 30,
                "velocity": 80,
                "duration": 0.0818182,
                "tempo": 120.0
            },
            {
                "start_time": 17.5863636,
                "end_time": 17.6659091,
                "pitch": 36,
                "velocity": 80,
                "duration": 0.0795455,
                "tempo": 120.0
            },
            {
                "start_time": 17.9,
                "end_time": 17.9818182,
                "pitch": 42,
                "velocity": 80,
                "duration": 0.0818182,
                "tempo": 120.0
            },
            {
                "start_time": 18.2136364,
                "end_time": 18.2977273,
                "pitch": 36,
                "velocity": 80,
                "duration": 0.0840909,
                "tempo": 120.0
            },
            {
                "start_time": 18.8477273,
                "end_time": 18.9272727,
                "pitch": 24,
                "velocity": 80,
                "duration": 0.0795455,
                "tempo": 120.0
            },
            {
                "start_time": 19.1545455,
                "end_time": 19.2340909,
                "pitch": 30,
                "velocity": 80,
                "duration": 0.0795455,
                "tempo": 120.0
            },
            {
                "start_time": 20.0977273,
                "end_time": 20.1772727,
                "pitch": 36,
                "velocity": 80,
                "duration": 0.0795455,
                "tempo": 120.0
            },
            {
                "start_time": 20.4090909,
                "end_time": 20.4909091,
                "pitch": 42,
                "velocity": 80,
                "duration": 0.0818182,
                "tempo": 120.0
            },
            {
                "start_time": 20.7227273,
                "end_time": 20.8068182,
                "pitch": 36,
                "velocity": 80,
                "duration": 0.0840909,
                "tempo": 120.0
            },
            {
                "start_time": 21.3454545,
                "end_time": 21.425,
                "pitch": 24,
                "velocity": 80,
                "duration": 0.0795455,
                "tempo": 120.0
            },
            {
                "start_time": 21.6590909,
                "end_time": 21.7409091,
                "pitch": 30,
                "velocity": 80,
                "duration": 0.0818182,
                "tempo": 120.0
            },
            {
                "start_time": 22.5863636,
                "end_time": 22.6681818,
                "pitch": 36,
                "velocity": 80,
                "duration": 0.0818182,
                "tempo": 120.0
            },
            {
                "start_time": 22.9045455,
                "end_time": 22.9863636,
                "pitch": 42,
                "velocity": 80,
                "duration": 0.0818182,
                "tempo": 120.0
            },
            {
                "start_time": 23.2204545,
                "end_time": 23.3045455,
                "pitch": 36,
                "velocity": 80,
                "duration": 0.0840909,
                "tempo": 120.0
            },
            {
                "start_time": 23.8409091,
                "end_time": 23.9227273,
                "pitch": 24,
                "velocity": 80,
                "duration": 0.0818182,
                "tempo": 120.0
            },
            {
                "start_time": 24.1545455,
                "end_time": 24.2363636,
                "pitch": 30,
                "velocity": 80,
                "duration": 0.0818182,
                "tempo": 120.0
            },
            {
                "start_time": 25.0840909,
                "end_time": 25.1636364,
                "pitch": 36,
                "velocity": 80,
                "duration": 0.0795455,
                "tempo": 120.0
            },
            {
                "start_time": 25.4,
                "end_time": 25.4818182,
                "pitch": 42,
                "velocity": 80,
                "duration": 0.0818182,
                "tempo": 120.0
            },
            {
                "start_time": 25.7181818,
                "end_time": 25.8022727,
                "pitch": 36,
                "velocity": 80,
                "duration": 0.0840909,
                "tempo": 120.0
            },
            {
                "start_time": 26.35,
                "end_time": 26.4340909,
                "pitch": 24,
                "velocity": 80,
                "duration": 0.0840909,
                "tempo": 120.0
            },
            {
                "start_time": 26.675,
                "end_time": 26.7590909,
                "pitch": 30,
                "velocity": 80,
                "duration": 0.0840909,
                "tempo": 120.0
            },
            {
                "start_time": 27.6,
                "end_time": 27.6818182,
                "pitch": 36,
                "velocity": 80,
                "duration": 0.0818182,
                "tempo": 120.0
            },
            {
                "start_time": 27.9136364,
                "end_time": 27.9954545,
                "pitch": 42,
                "velocity": 80,
                "duration": 0.0818182,
                "tempo": 120.0
            },
            {
                "start_time": 28.2272727,
                "end_time": 28.3113636,
                "pitch": 36,
                "velocity": 80,
                "duration": 0.0840909,
                "tempo": 120.0
            },
            {
                "start_time": 28.8477273,
                "end_time": 28.9295455,
                "pitch": 24,
                "velocity": 80,
                "duration": 0.0818182,
                "tempo": 120.0
            },
            {
                "start_time": 29.1659091,
                "end_time": 29.2477273,
                "pitch": 30,
                "velocity": 80,
                "duration": 0.0818182,
                "tempo": 120.0
            },
            {
                "start_time": 30.0977273,
                "end_time": 30.1772727,
                "pitch": 36,
                "velocity": 80,
                "duration": 0.0795455,
                "tempo": 120.0
            },
            {
                "start_time": 30.4113636,
                "end_time": 30.4931818,
                "pitch": 42,
                "velocity": 80,
                "duration": 0.0818182,
                "tempo": 120.0
            },
            {
                "start_time": 30.725,
                "end_time": 30.8090909,
                "pitch": 36,
                "velocity": 80,
                "duration": 0.0840909,
                "tempo": 120.0
            },
            {
                "start_time": 31.3454545,
                "end_time": 31.4295455,
                "pitch": 24,
                "velocity": 80,
                "duration": 0.0840909,
                "tempo": 120.0
            },
            {
                "start_time": 31.6704545,
                "end_time": 31.7568182,
                "pitch": 30,
                "velocity": 80,
                "duration": 0.0863636,
                "tempo": 120.0
            },
            {
                "start_time": 32.6204545,
                "end_time": 32.6977273,
                "pitch": 36,
                "velocity": 80,
                "duration": 0.0772727,
                "tempo": 120.0
            },
            {
                "start_time": 32.9181818,
                "end_time": 32.9977273,
                "pitch": 42,
                "velocity": 80,
                "duration": 0.0795455,
                "tempo": 120.0
            },
            {
                "start_time": 33.2181818,
                "end_time": 33.3022727,
                "pitch": 36,
                "velocity": 80,
                "duration": 0.0840909,
                "tempo": 120.0
            },
            {
                "start_time": 33.8386364,
                "end_time": 33.9227273,
                "pitch": 24,
                "velocity": 80,
                "duration": 0.0840909,
                "tempo": 120.0
            },
            {
                "start_time": 34.1613636,
                "end_time": 34.2454545,
                "pitch": 30,
                "velocity": 80,
                "duration": 0.0840909,
                "tempo": 120.0
            },
            {
                "start_time": 35.1,
                "end_time": 35.1818182,
                "pitch": 36,
                "velocity": 80,
                "duration": 0.0818182,
                "tempo": 120.0
            },
            {
                "start_time": 35.4136364,
                "end_time": 35.4954545,
                "pitch": 42,
                "velocity": 80,
                "duration": 0.0818182,
                "tempo": 120.0
            },
            {
                "start_time": 35.7272727,
                "end_time": 35.8113636,
                "pitch": 36,
                "velocity": 80,
                "duration": 0.0840909,
                "tempo": 120.0
            },
            {
                "start_time": 36.3477273,
                "end_time": 36.4272727,
                "pitch": 24,
                "velocity": 80,
                "duration": 0.0795455,
                "tempo": 120.0
            },
            {
                "start_time": 36.6568182,
                "end_time": 36.7363636,
                "pitch": 30,
                "velocity": 80,
                "duration": 0.0795455,
                "tempo": 120.0
            },
            {
                "start_time": 37.5840909,
                "end_time": 37.6659091,
                "pitch": 36,
                "velocity": 80,
                "duration": 0.0818182,
                "tempo": 120.0
            },
            {
                "start_time": 37.9022727,
                "end_time": 37.9840909,
                "pitch": 42,
                "velocity": 80,
                "duration": 0.0818182,
                "tempo": 120.0
            },
            {
                "start_time": 38.2181818,
                "end_time": 38.3022727,
                "pitch": 36,
                "velocity": 80,
                "duration": 0.0840909,
                "tempo": 120.0
            },
            {
                "start_time": 38.8386364,
                "end_time": 38.9204545,
                "pitch": 24,
                "velocity": 80,
                "duration": 0.0818182,
                "tempo": 120.0
            },
            {
                "start_time": 39.1522727,
                "end_time": 39.2340909,
                "pitch": 30,
                "velocity": 80,
                "duration": 0.0818182,
                "tempo": 120.0
            },
            {
                "start_time": 40.0818182,
                "end_time": 40.1613636,
                "pitch": 36,
                "velocity": 80,
                "duration": 0.0795455,
                "tempo": 120.0
            },
            {
                "start_time": 40.3977273,
                "end_time": 40.4795455,
                "pitch": 42,
                "velocity": 80,
                "duration": 0.0818182,
                "tempo": 120.0
            },
            {
                "start_time": 40.7159091,
                "end_time": 40.8,
                "pitch": 36,
                "velocity": 80,
                "duration": 0.0840909,
                "tempo": 120.0
            },
            {
                "start_time": 41.3477273,
                "end_time": 41.4318182,
                "pitch": 24,
                "velocity": 80,
                "duration": 0.0840909,
                "tempo": 120.0
            },
            {
                "start_time": 41.6659091,
                "end_time": 41.75,
                "pitch": 30,
                "velocity": 80,
                "duration": 0.0840909,
                "tempo": 120.0
            },
            {
                "start_time": 42.5977273,
                "end_time": 42.6772727,
                "pitch": 36,
                "velocity": 80,
                "duration": 0.0795455,
                "tempo": 120.0
            },
            {
                "start_time": 42.9113636,
                "end_time": 42.9931818,
                "pitch": 42,
                "velocity": 80,
                "duration": 0.0818182,
                "tempo": 120.0
            },
            {
                "start_time": 43.225,
                "end_time": 43.3090909,
                "pitch": 36,
                "velocity": 80,
                "duration": 0.0840909,
                "tempo": 120.0
            },
            {
                "start_time": 43.8454545,
                "end_time": 43.9295455,
                "pitch": 24,
                "velocity": 80,
                "duration": 0.0840909,
                "tempo": 120.0
            },
            {
                "start_time": 44.1681818,
                "end_time": 44.2545455,
                "pitch": 30,
                "velocity": 80,
                "duration": 0.0863636,
                "tempo": 120.0
            },
            {
                "start_time": 45.1136364,
                "end_time": 45.1931818,
                "pitch": 36,
                "velocity": 80,
                "duration": 0.0795455,
                "tempo": 120.0
            },
            {
                "start_time": 45.4181818,
                "end_time": 45.4977273,
                "pitch": 42,
                "velocity": 80,
                "duration": 0.0795455,
                "tempo": 120.0
            },
            {
                "start_time": 45.7227273,
                "end_time": 45.8068182,
                "pitch": 36,
                "velocity": 80,
                "duration": 0.0840909,
                "tempo": 120.0
            },
            {
                "start_time": 46.3431818,
                "end_time": 46.4272727,
                "pitch": 24,
                "velocity": 80,
                "duration": 0.0840909,
                "tempo": 120.0
            },
            {
                "start_time": 46.6681818,
                "end_time": 46.7522727,
                "pitch": 30,
                "velocity": 80,
                "duration": 0.0840909,
                "tempo": 120.0
            },
            {
                "start_time": 47.6045455,
                "end_time": 47.6840909,
                "pitch": 36,
                "velocity": 80,
                "duration": 0.0795455,
                "tempo": 120.0
            },
            {
                "start_time": 47.9113636,
                "end_time": 47.9931818,
                "pitch": 42,
                "velocity": 80,
                "duration": 0.0818182,
                "tempo": 120.0
            },
            {
                "start_time": 48.2204545,
                "end_time": 48.3045455,
                "pitch": 36,
                "velocity": 80,
                "duration": 0.0840909,
                "tempo": 120.0
            },
            {
                "start_time": 48.8522727,
                "end_time": 48.9363636,
                "pitch": 24,
                "velocity": 80,
                "duration": 0.0840909,
                "tempo": 120.0
            },
            {
                "start_time": 49.1704545,
                "end_time": 49.2545455,
                "pitch": 30,
                "velocity": 80,
                "duration": 0.0840909,
                "tempo": 120.0
            }
        ],
        "Electric Piano 1": [
            {
                "start_time": 15.0840909,
                "end_time": 15.4,
                "pitch": 55,
                "velocity": 64,
                "duration": 0.3159091,
                "tempo": 120.0
            },
            {
                "start_time": 15.4,
                "end_time": 16.3363636,
                "pitch": 67,
                "velocity": 64,
                "duration": 0.9363636,
                "tempo": 120.0
            },
            {
                "start_time": 16.3363636,
                "end_time": 16.6522727,
                "pitch": 67,
                "velocity": 64,
                "duration": 0.3159091,
                "tempo": 120.0
            },
            {
                "start_time": 16.6522727,
                "end_time": 17.5863636,
                "pitch": 79,
                "velocity": 64,
                "duration": 0.9340909,
                "tempo": 120.0
            },
            {
                "start_time": 17.5863636,
                "end_time": 17.9,
                "pitch": 55,
                "velocity": 64,
                "duration": 0.3136364,
                "tempo": 120.0
            },
            {
                "start_time": 17.9,
                "end_time": 18.8454545,
                "pitch": 67,
                "velocity": 64,
                "duration": 0.9454545,
                "tempo": 120.0
            },
            {
                "start_time": 18.8477273,
                "end_time": 19.1545455,
                "pitch": 67,
                "velocity": 64,
                "duration": 0.3068182,
                "tempo": 120.0
            },
            {
                "start_time": 19.1545455,
                "end_time": 20.0954545,
                "pitch": 79,
                "velocity": 64,
                "duration": 0.9409091,
                "tempo": 120.0
            },
            {
                "start_time": 20.0954545,
                "end_time": 20.4090909,
                "pitch": 55,
                "velocity": 64,
                "duration": 0.3136364,
                "tempo": 120.0
            },
            {
                "start_time": 20.4090909,
                "end_time": 21.3431818,
                "pitch": 67,
                "velocity": 64,
                "duration": 0.9340909,
                "tempo": 120.0
            },
            {
                "start_time": 21.3431818,
                "end_time": 21.6568182,
                "pitch": 67,
                "velocity": 64,
                "duration": 0.3136364,
                "tempo": 120.0
            },
            {
                "start_time": 21.6590909,
                "end_time": 22.5863636,
                "pitch": 79,
                "velocity": 64,
                "duration": 0.9272727,
                "tempo": 120.0
            },
            {
                "start_time": 22.5863636,
                "end_time": 22.9022727,
                "pitch": 55,
                "velocity": 64,
                "duration": 0.3159091,
                "tempo": 120.0
            },
            {
                "start_time": 22.9022727,
                "end_time": 23.8409091,
                "pitch": 67,
                "velocity": 64,
                "duration": 0.9386364,
                "tempo": 120.0
            },
            {
                "start_time": 23.8409091,
                "end_time": 24.1545455,
                "pitch": 67,
                "velocity": 64,
                "duration": 0.3136364,
                "tempo": 120.0
            },
            {
                "start_time": 24.1545455,
                "end_time": 25.0818182,
                "pitch": 79,
                "velocity": 64,
                "duration": 0.9272727,
                "tempo": 120.0
            },
            {
                "start_time": 35.1,
                "end_time": 35.4136364,
                "pitch": 55,
                "velocity": 64,
                "duration": 0.3136364,
                "tempo": 120.0
            },
            {
                "start_time": 35.4136364,
                "end_time": 36.3477273,
                "pitch": 67,
                "velocity": 64,
                "duration": 0.9340909,
                "tempo": 120.0
            },
            {
                "start_time": 36.3477273,
                "end_time": 36.6545455,
                "pitch": 67,
                "velocity": 64,
                "duration": 0.3068182,
                "tempo": 120.0
            },
            {
                "start_time": 36.6545455,
                "end_time": 37.5840909,
                "pitch": 79,
                "velocity": 64,
                "duration": 0.9295455,
                "tempo": 120.0
            },
            {
                "start_time": 37.5840909,
                "end_time": 37.9,
                "pitch": 55,
                "velocity": 64,
                "duration": 0.3159091,
                "tempo": 120.0
            },
            {
                "start_time": 37.9,
                "end_time": 38.8386364,
                "pitch": 67,
                "velocity": 64,
                "duration": 0.9386364,
                "tempo": 120.0
            },
            {
                "start_time": 38.8386364,
                "end_time": 39.1522727,
                "pitch": 67,
                "velocity": 64,
                "duration": 0.3136364,
                "tempo": 120.0
            },
            {
                "start_time": 39.1522727,
                "end_time": 40.0818182,
                "pitch": 79,
                "velocity": 64,
                "duration": 0.9295455,
                "tempo": 120.0
            }
        ]
    }
}