{
    "mood": "sad",
    "instruments": {
        "Vibraphone": [
            {
                "start_time": 0.0522727,
                "end_time": 1.3795455,
                "pitch": 45,
                "velocity": 127,
                "duration": 1.3272727,
                "tempo": 120.0
            },
            {
                "start_time": 1.6477273,
                "end_time": 2.9795455,
                "pitch": 45,
                "velocity": 127,
                "duration": 1.3318182,
                "tempo": 120.0
            },
            {
                "start_time": 3.2477273,
                "end_time": 4.5795455,
                "pitch": 47,
                "velocity": 127,
                "duration": 1.3318182,
                "tempo": 120.0
            },
            {
                "start_time": 4.8477273,
                "end_time": 6.1613636,
                "pitch": 47,
                "velocity": 127,
                "duration": 1.3136364,
                "tempo": 120.0
            },
            {
                "start_time": 3.2477273,
                "end_time": 7.7568182,
                "pitch": 45,
                "velocity": 127,
                "duration": 4.5090909,
                "tempo": 120.0
            },
            {
                "start_time": 6.4272727,
                "end_time": 7.7568182,
                "pitch": 45,
                "velocity": 127,
                "duration": 1.3295455,
                "tempo": 120.0
            },
            {
                "start_time": 8.0272727,
                "end_time": 9.3409091,
                "pitch": 45,
                "velocity": 127,
                "duration": 1.3136364,
                "tempo": 120.0
            },
            {
                "start_time": 6.4272727,
                "end_time": 10.9363636,
                "pitch": 47,
                "velocity": 127,
                "duration": 4.5090909,
                "tempo": 120.0
            },
            {
                "start_time": 9.6045455,
                "end_time": 10.9363636,
                "pitch": 47,
                "velocity": 127,
                "duration": 1.3318182,
                "tempo": 120.0
            },
            {
                "start_time": 11.2045455,
                "end_time": 12.5181818,
                "pitch": 47,
                "velocity": 127,
                "duration": 1.3136364,
                "tempo": 120.0
            },
            {
                "start_time": 9.6045455,
                "end_time": 14.1159091,
                "pitch": 45,
                "velocity": 127,
                "duration": 4.5113636,
                "tempo": 120.0
            },
            {
                "start_time": 12.7863636,
                "end_time": 14.1159091,
                "pitch": 45,
                "velocity": 127,
                "duration": 1.3295455,
                "tempo": 120.0
            },
            {
                "start_time": 14.3840909,
                "end_time": 15.6977273,
                "pitch": 45,
                "velocity": 127,
                "duration": 1.3136364,
                "tempo": 120.0
            },
            {
                "start_time": 12.7863636,
                "end_time": 17.2931818,
                "pitch": 47,
                "velocity": 127,
                "duration": 4.5068182,
                "tempo": 120.0
            },
            {
                "start_time": 15.9613636,
                "end_time": 17.2931818,
                "pitch": 47,
                "velocity": 127,
                "duration": 1.3318182,
                "tempo": 120.0
            },
            {
                "start_time": 17.5613636,
                "end_time": 18.875,
                "pitch": 47,
                "velocity": 127,
                "duration": 1.3136364,
                "tempo": 120.0
            },
            {
                "start_time": 15.9613636,
                "end_time": 20.4727273,
                "pitch": 45,
                "velocity": 127,
                "duration": 4.5113636,
                "tempo": 120.0
            },
            {
                "start_time": 19.1409091,
                "end_time": 20.4727273,
                "pitch": 45,
                "velocity": 127,
                "duration": 1.3318182,
                "tempo": 120.0
            },
            {
                "start_time": 20.7409091,
                "end_time": 22.0545455,
                "pitch": 45,
                "velocity": 127,
                "duration": 1.3136364,
                "tempo": 120.0
            },
            {
                "start_time": 19.1409091,
                "end_time": 23.65,
                "pitch": 47,
                "velocity": 127,
                "duration": 4.5090909,
                "tempo": 120.0
            },
            {
                "start_time": 22.3181818,
                "end_time": 23.65,
                "pitch": 47,
                "velocity": 127,
                "duration": 1.3318182,
                "tempo": 120.0
            },
            {
                "start_time": 23.9181818,
                "end_time": 25.2318182,
                "pitch": 47,
                "velocity": 127,
                "duration": 1.3136364,
                "tempo": 120.0
            }
        ],
        "Acoustic Guitar (nylon)": [
            {
                "start_time": 0.0522727,
                "end_time": 1.3795455,
                "pitch": 43,
                "velocity": 127,
                "duration": 1.3272727,
                "tempo": 120.0
            },
            {
                "start_time": 1.65,
                "end_time": 2.9795455,
                "pitch": 43,
                "velocity": 127,
                "duration": 1.3295455,
                "tempo": 120.0
            },
            {
                "start_time": 3.25,
                "end_time": 4.5795455,
                "pitch": 42,
                "velocity": 127,
                "duration": 1.3295455,
                "tempo": 120.0
            },
            {
                "start_time": 4.85,
                "end_time": 6.1613636,
                "pitch": 42,
                "velocity": 127,
                "duration": 1.3113636,
                "tempo": 120.0
            },
            {
                "start_time": 6.4272727,
                "end_time": 7.7590909,
                "pitch": 43,
                "velocity": 127,
                "duration": 1.3318182,
                "tempo": 120.0
            },
            {
                "start_time": 8.0272727,
                "end_time": 9.3409091,
                "pitch": 43,
                "velocity": 127,
                "duration": 1.3136364,
                "tempo": 120.0
            },
            {
                "start_time": 9.6068182,
                "end_time": 10.9363636,
                "pitch": 43,
                "velocity": 127,
                "duration": 1.3295455,
                "tempo": 120.0
            },
            {
                "start_time": 11.2068182,
                "end_time": 12.5204545,
                "pitch": 44,
                "velocity": 127,
                "duration": 1.3136364,
                "tempo": 120.0
            },
            {
                "start_time": 12.7863636,
                "end_time": 14.1159091,
                "pitch": 44,
                "velocity": 127,
                "duration": 1.3295455,
                "tempo": 120.0
            },
            {
                "start_time": 14.3840909,
                "end_time": 15.6977273,
                "pitch": 43,
                "velocity": 127,
                "duration": 1.3136364,
                "tempo": 120.0
            },
            {
                "start_time": 3.25,
                "end_time": 15.9636364,
                "pitch": 0,
                "velocity": 127,
                "duration": 12.7136364,
                "tempo": 120.0
            },
            {
                "start_time": 15.9636364,
                "end_time": 17.2931818,
                "pitch": 42,
                "velocity": 127,
                "duration": 1.3295455,
                "tempo": 120.0
            },
            {
                "start_time": 17.5636364,
                "end_time": 18.8772727,
                "pitch": 42,
                "velocity": 127,
                "duration": 1.3136364,
                "tempo": 120.0
            },
            {
                "start_time": 6.4272727,
                "end_time": 19.1409091,
                "pitch": 54,
                "velocity": 127,
                "duration": 12.7136364,
                "tempo": 120.0
            },
            {
                "start_time": 19.1409091,
                "end_time": 20.4727273,
                "pitch": 43,
                "velocity": 127,
                "duration": 1.3318182,
                "tempo": 120.0
            },
            {
                "start_time": 20.7409091,
                "end_time": 22.0545455,
                "pitch": 43,
                "velocity": 127,
                "duration": 1.3136364,
                "tempo": 120.0
            },
            {
                "start_time": 22.3204545,
                "end_time": 23.65,
                "pitch": 43,
                "velocity": 127,
                "duration": 1.3295455,
                "tempo": 120.0
            },
            {
                "start_time": 23.9204545,
                "end_time": 25.2340909,
                "pitch": 44,
                "velocity": 127,
                "duration": 1.3136364,
                "tempo": 120.0
            }
        ],
        "Acoustic Grand Piano": [
            {
                "start_time": 0.0545455,
                "end_time": 2.7136364,
                "pitch": 29,
                "velocity": 127,
                "duration": 2.6590909,
                "tempo": 120.0
            },
            {
                "start_time": 3.25,
                "end_time": 5.8977273,
                "pitch": 33,
                "velocity": 127,
                "duration": 2.6477273,
                "tempo": 120.0
            },
            {
                "start_time": 3.25,
                "end_time": 9.6068182,
                "pitch": 42,
                "velocity": 127,
                "duration": 6.3568182,
                "tempo": 120.0
            },
            {
                "start_time": 9.6068182,
                "end_time": 12.2545455,
                "pitch": 33,
                "velocity": 127,
                "duration": 2.6477273,
                "tempo": 120.0
            },
            {
                "start_time": 9.6068182,
                "end_time": 15.9636364,
                "pitch": 42,
                "velocity": 127,
                "duration": 6.3568182,
                "tempo": 120.0
            },
            {
                "start_time": 15.9636364,
                "end_time": 18.6113636,
                "pitch": 33,
                "velocity": 127,
                "duration": 2.6477273,
                "tempo": 120.0
            },
            {
                "start_time": 15.9636364,
                "end_time": 22.3204545,
                "pitch": 42,
                "velocity": 127,
                "duration": 6.3568182,
                "tempo": 120.0
            },
            {
                "start_time": 22.3204545,
                "end_time": 24.9681818,
                "pitch": 33,
                "velocity": 127,
                "duration": 2.6477273,
                "tempo": 120.0
            }
        ]
    }
}