{
    "mood": "sad",
    "instruments": {
        "Clarinet": [
            {
                "start_time": 0.0,
                "end_time": 0.1090909,
                "pitch": 59,
                "velocity": 101,
                "duration": 0.1090909,
                "tempo": 120.0
            },
            {
                "start_time": 0.1090909,
                "end_time": 0.2431818,
                "pitch": 86,
                "velocity": 101,
                "duration": 0.1340909,
                "tempo": 120.0
            },
            {
                "start_time": 0.2431818,
                "end_time": 0.3772727,
                "pitch": 71,
                "velocity": 101,
                "duration": 0.1340909,
                "tempo": 120.0
            },
            {
                "start_time": 0.3772727,
                "end_time": 0.5272727,
                "pitch": 77,
                "velocity": 101,
                "duration": 0.15,
                "tempo": 120.0
            },
            {
                "start_time": 0.5272727,
                "end_time": 0.6590909,
                "pitch": 62,
                "velocity": 101,
                "duration": 0.1318182,
                "tempo": 120.0
            },
            {
                "start_time": 0.2431818,
                "end_time": 0.7931818,
                "pitch": 74,
                "velocity": 101,
                "duration": 0.55,
                "tempo": 120.0
            },
            {
                "start_time": 0.6590909,
                "end_time": 0.7931818,
                "pitch": 86,
                "velocity": 101,
                "duration": 0.1340909,
                "tempo": 120.0
            },
            {
                "start_time": 0.3772727,
                "end_time": 0.9272727,
                "pitch": 71,
                "velocity": 101,
                "duration": 0.55,
                "tempo": 120.0
            },
            {
                "start_time": 0.7931818,
                "end_time": 0.9272727,
                "pitch": 71,
                "velocity": 101,
                "duration": 0.1340909,
                "tempo": 120.0
            },
            {
                "start_time": 0.1090909,
                "end_time": 0.9272727,
                "pitch": 83,
                "velocity": 101,
                "duration": 0.8181818,
                "tempo": 120.0
            },
            {
                "start_time": 0.9272727,
                "end_time": 1.0772727,
                "pitch": 89,
                "velocity": 101,
                "duration": 0.15,
                "tempo": 120.0
            },
            {
                "start_time": 0.5272727,
                "end_time": 1.2113636,
                "pitch": 65,
                "velocity": 101,
                "duration": 0.6840909,
                "tempo": 120.0
            },
            {
                "start_time": 1.0772727,
                "end_time": 1.2113636,
                "pitch": 65,
                "velocity": 101,
                "duration": 0.1340909,
                "tempo": 120.0
            },
            {
                "start_time": 0.7931818,
                "end_time": 1.3454545,
                "pitch": 74,
                "velocity": 101,
                "duration": 0.5522727,
                "tempo": 120.0
            },
            {
                "start_time": 1.2113636,
                "end_time": 1.3454545,
                "pitch": 86,
                "velocity": 101,
                "duration": 0.1340909,
                "tempo": 120.0
            },
            {
                "start_time": 1.3454545,
                "end_time": 1.4772727,
                "pitch": 71,
                "velocity": 101,
                "duration": 0.1318182,
                "tempo": 120.0
            },
            {
                "start_time": 1.4772727,
                "end_time": 1.6295455,
                "pitch": 77,
                "velocity": 101,
                "duration": 0.1522727,
                "tempo": 120.0
            },
            {
                "start_time": 1.6295455,
                "end_time": 1.7613636,
                "pitch": 62,
                "velocity": 101,
                "duration": 0.1318182,
                "tempo": 120.0
            },
            {
                "start_time": 1.3454545,
                "end_time": 1.8954545,
                "pitch": 74,
                "velocity": 101,
                "duration": 0.55,
                "tempo": 120.0
            },
            {
                "start_time": 1.7613636,
                "end_time": 1.8954545,
                "pitch": 86,
                "velocity": 101,
                "duration": 0.1340909,
                "tempo": 120.0
            },
            {
                "start_time": 1.4772727,
                "end_time": 2.0295455,
                "pitch": 71,
                "velocity": 101,
                "duration": 0.5522727,
                "tempo": 120.0
            },
            {
                "start_time": 1.8954545,
                "end_time": 2.0295455,
                "pitch": 71,
                "velocity": 101,
                "duration": 0.1340909,
                "tempo": 120.0
            },
            {
                "start_time": 0.9272727,
                "end_time": 2.0295455,
                "pitch": 83,
                "velocity": 101,
                "duration": 1.1022727,
                "tempo": 120.0
            },
            {
                "start_time": 1.6295455,
                "end_time": 2.1795455,
                "pitch": 65,
                "velocity": 101,
                "duration": 0.55,
                "tempo": 120.0
            },
            {
                "start_time": 1.2113636,
                "end_time": 2.1795455,
                "pitch": 89,
                "velocity": 101,
                "duration": 0.9681818,
                "tempo": 120.0
            },
            {
                "start_time": 2.0295455,
                "end_time": 2.1795455,
                "pitch": 89,
                "velocity": 101,
                "duration": 0.15,
                "tempo": 120.0
            },
            {
                "start_time": 2.1795455,
                "end_time": 2.3136364,
                "pitch": 56,
                "velocity": 101,
                "duration": 0.1340909,
                "tempo": 120.0
            },
            {
                "start_time": 2.0295455,
                "end_time": 2.4477273,
                "pitch": 83,
                "velocity": 101,
                "duration": 0.4181818,
                "tempo": 120.0
            },
            {
                "start_time": 2.3136364,
                "end_time": 2.4477273,
                "pitch": 83,
                "velocity": 101,
                "duration": 0.1340909,
                "tempo": 120.0
            },
            {
                "start_time": 2.4477273,
                "end_time": 2.5795455,
                "pitch": 68,
                "velocity": 101,
                "duration": 0.1318182,
                "tempo": 120.0
            },
            {
                "start_time": 1.8954545,
                "end_time": 2.7318182,
                "pitch": 74,
                "velocity": 101,
                "duration": 0.8363636,
                "tempo": 120.0
            },
            {
                "start_time": 2.5795455,
                "end_time": 2.7318182,
                "pitch": 74,
                "velocity": 101,
                "duration": 0.1522727,
                "tempo": 120.0
            },
            {
                "start_time": 2.7318182,
                "end_time": 2.8636364,
                "pitch": 59,
                "velocity": 101,
                "duration": 0.1318182,
                "tempo": 120.0
            },
            {
                "start_time": 2.4477273,
                "end_time": 2.9977273,
                "pitch": 71,
                "velocity": 101,
                "duration": 0.55,
                "tempo": 120.0
            },
            {
                "start_time": 2.8636364,
                "end_time": 2.9977273,
                "pitch": 83,
                "velocity": 101,
                "duration": 0.1340909,
                "tempo": 120.0
            },
            {
                "start_time": 2.5795455,
                "end_time": 3.1318182,
                "pitch": 68,
                "velocity": 101,
                "duration": 0.5522727,
                "tempo": 120.0
            },
            {
                "start_time": 2.9977273,
                "end_time": 3.1318182,
                "pitch": 68,
                "velocity": 101,
                "duration": 0.1340909,
                "tempo": 120.0
            },
            {
                "start_time": 2.3136364,
                "end_time": 3.1318182,
                "pitch": 80,
                "velocity": 101,
                "duration": 0.8181818,
                "tempo": 120.0
            },
            {
                "start_time": 3.1318182,
                "end_time": 3.2818182,
                "pitch": 86,
                "velocity": 101,
                "duration": 0.15,
                "tempo": 120.0
            },
            {
                "start_time": 2.7318182,
                "end_time": 3.4159091,
                "pitch": 62,
                "velocity": 101,
                "duration": 0.6840909,
                "tempo": 120.0
            },
            {
                "start_time": 3.2818182,
                "end_time": 3.4159091,
                "pitch": 62,
                "velocity": 101,
                "duration": 0.1340909,
                "tempo": 120.0
            },
            {
                "start_time": 3.4159091,
                "end_time": 3.5477273,
                "pitch": 83,
                "velocity": 101,
                "duration": 0.1318182,
                "tempo": 120.0
            },
            {
                "start_time": 2.9977273,
                "end_time": 3.55,
                "pitch": 71,
                "velocity": 101,
                "duration": 0.5522727,
                "tempo": 120.0
            },
            {
                "start_time": 3.55,
                "end_time": 3.6818182,
                "pitch": 68,
                "velocity": 101,
                "duration": 0.1318182,
                "tempo": 120.0
            },
            {
                "start_time": 3.6818182,
                "end_time": 3.8318182,
                "pitch": 74,
                "velocity": 101,
                "duration": 0.15,
                "tempo": 120.0
            },
            {
                "start_time": 3.8318182,
                "end_time": 3.9659091,
                "pitch": 59,
                "velocity": 101,
                "duration": 0.1340909,
                "tempo": 120.0
            },
            {
                "start_time": 3.55,
                "end_time": 4.1,
                "pitch": 71,
                "velocity": 101,
                "duration": 0.55,
                "tempo": 120.0
            },
            {
                "start_time": 3.9659091,
                "end_time": 4.1,
                "pitch": 83,
                "velocity": 101,
                "duration": 0.1340909,
                "tempo": 120.0
            },
            {
                "start_time": 3.6818182,
                "end_time": 4.2340909,
                "pitch": 68,
                "velocity": 101,
                "duration": 0.5522727,
                "tempo": 120.0
            },
            {
                "start_time": 4.1,
                "end_time": 4.2340909,
                "pitch": 68,
                "velocity": 101,
                "duration": 0.1340909,
                "tempo": 120.0
            },
            {
                "start_time": 3.1318182,
                "end_time": 4.2340909,
                "pitch": 80,
                "velocity": 101,
                "duration": 1.1022727,
                "tempo": 120.0
            },
            {
                "start_time": 3.4159091,
                "end_time": 4.3840909,
                "pitch": 86,
                "velocity": 101,
                "duration": 0.9681818,
                "tempo": 120.0
            },
            {
                "start_time": 4.2340909,
                "end_time": 4.3840909,
                "pitch": 86,
                "velocity": 101,
                "duration": 0.15,
                "tempo": 120.0
            },
            {
                "start_time": 4.3840909,
                "end_time": 4.5181818,
                "pitch": 53,
                "velocity": 101,
                "duration": 0.1340909,
                "tempo": 120.0
            },
            {
                "start_time": 4.2340909,
                "end_time": 4.65,
                "pitch": 80,
                "velocity": 101,
                "duration": 0.4159091,
                "tempo": 120.0
            },
            {
                "start_time": 4.5181818,
                "end_time": 4.65,
                "pitch": 80,
                "velocity": 101,
                "duration": 0.1318182,
                "tempo": 120.0
            },
            {
                "start_time": 2.1795455,
                "end_time": 4.8022727,
                "pitch": 65,
                "velocity": 101,
                "duration": 2.6227273,
                "tempo": 120.0
            },
            {
                "start_time": 4.65,
                "end_time": 4.8022727,
                "pitch": 65,
                "velocity": 101,
                "duration": 0.1522727,
                "tempo": 120.0
            },
            {
                "start_time": 4.1,
                "end_time": 4.9340909,
                "pitch": 71,
                "velocity": 101,
                "duration": 0.8340909,
                "tempo": 120.0
            },
            {
                "start_time": 4.8022727,
                "end_time": 4.9340909,
                "pitch": 71,
                "velocity": 101,
                "duration": 0.1318182,
                "tempo": 120.0
            },
            {
                "start_time": 4.65,
                "end_time": 5.0681818,
                "pitch": 56,
                "velocity": 101,
                "duration": 0.4181818,
                "tempo": 120.0
            },
            {
                "start_time": 4.9340909,
                "end_time": 5.0681818,
                "pitch": 56,
                "velocity": 101,
                "duration": 0.1340909,
                "tempo": 120.0
            },
            {
                "start_time": 5.0681818,
                "end_time": 5.2045455,
                "pitch": 80,
                "velocity": 101,
                "duration": 0.1363636,
                "tempo": 120.0
            },
            {
                "start_time": 5.2045455,
                "end_time": 5.3568182,
                "pitch": 65,
                "velocity": 101,
                "duration": 0.1522727,
                "tempo": 120.0
            },
            {
                "start_time": 4.5181818,
                "end_time": 5.3568182,
                "pitch": 89,
                "velocity": 101,
                "duration": 0.8386364,
                "tempo": 120.0
            },
            {
                "start_time": 5.3568182,
                "end_time": 5.4931818,
                "pitch": 83,
                "velocity": 101,
                "duration": 0.1363636,
                "tempo": 120.0
            },
            {
                "start_time": 4.9340909,
                "end_time": 5.6295455,
                "pitch": 59,
                "velocity": 101,
                "duration": 0.6954545,
                "tempo": 120.0
            },
            {
                "start_time": 5.4931818,
                "end_time": 5.6295455,
                "pitch": 59,
                "velocity": 101,
                "duration": 0.1363636,
                "tempo": 120.0
            },
            {
                "start_time": 5.2045455,
                "end_time": 5.7636364,
                "pitch": 56,
                "velocity": 101,
                "duration": 0.5590909,
                "tempo": 120.0
            },
            {
                "start_time": 5.6295455,
                "end_time": 5.7636364,
                "pitch": 80,
                "velocity": 101,
                "duration": 0.1340909,
                "tempo": 120.0
            },
            {
                "start_time": 5.7636364,
                "end_time": 5.9136364,
                "pitch": 65,
                "velocity": 101,
                "duration": 0.15,
                "tempo": 120.0
            },
            {
                "start_time": 4.8022727,
                "end_time": 5.9136364,
                "pitch": 77,
                "velocity": 101,
                "duration": 1.1113636,
                "tempo": 120.0
            },
            {
                "start_time": 5.9136364,
                "end_time": 6.0477273,
                "pitch": 71,
                "velocity": 101,
                "duration": 0.1340909,
                "tempo": 120.0
            },
            {
                "start_time": 5.7636364,
                "end_time": 6.1818182,
                "pitch": 56,
                "velocity": 101,
                "duration": 0.4181818,
                "tempo": 120.0
            },
            {
                "start_time": 6.0477273,
                "end_time": 6.1818182,
                "pitch": 56,
                "velocity": 101,
                "duration": 0.1340909,
                "tempo": 120.0
            },
            {
                "start_time": 6.1818182,
                "end_time": 6.3136364,
                "pitch": 80,
                "velocity": 101,
                "duration": 0.1318182,
                "tempo": 120.0
            },
            {
                "start_time": 6.3136364,
                "end_time": 6.4659091,
                "pitch": 65,
                "velocity": 101,
                "duration": 0.1522727,
                "tempo": 120.0
            },
            {
                "start_time": 5.3568182,
                "end_time": 6.4659091,
                "pitch": 89,
                "velocity": 101,
                "duration": 1.1090909,
                "tempo": 120.0
            },
            {
                "start_time": 5.6295455,
                "end_time": 6.5977273,
                "pitch": 83,
                "velocity": 101,
                "duration": 0.9681818,
                "tempo": 120.0
            },
            {
                "start_time": 6.4659091,
                "end_time": 6.5977273,
                "pitch": 83,
                "velocity": 101,
                "duration": 0.1318182,
                "tempo": 120.0
            },
            {
                "start_time": 6.5977273,
                "end_time": 6.7318182,
                "pitch": 52,
                "velocity": 101,
                "duration": 0.1340909,
                "tempo": 120.0
            },
            {
                "start_time": 6.7318182,
                "end_time": 6.8659091,
                "pitch": 79,
                "velocity": 101,
                "duration": 0.1340909,
                "tempo": 120.0
            },
            {
                "start_time": 6.8659091,
                "end_time": 7.0159091,
                "pitch": 64,
                "velocity": 101,
                "duration": 0.15,
                "tempo": 120.0
            },
            {
                "start_time": 7.0159091,
                "end_time": 7.15,
                "pitch": 70,
                "velocity": 101,
                "duration": 0.1340909,
                "tempo": 120.0
            },
            {
                "start_time": 6.8659091,
                "end_time": 7.2818182,
                "pitch": 55,
                "velocity": 101,
                "duration": 0.4159091,
                "tempo": 120.0
            },
            {
                "start_time": 7.15,
                "end_time": 7.2818182,
                "pitch": 55,
                "velocity": 101,
                "duration": 0.1318182,
                "tempo": 120.0
            },
            {
                "start_time": 7.2840909,
                "end_time": 7.4159091,
                "pitch": 79,
                "velocity": 101,
                "duration": 0.1318182,
                "tempo": 120.0
            },
            {
                "start_time": 7.4159091,
                "end_time": 7.5659091,
                "pitch": 64,
                "velocity": 101,
                "duration": 0.15,
                "tempo": 120.0
            },
            {
                "start_time": 6.7318182,
                "end_time": 7.5659091,
                "pitch": 88,
                "velocity": 101,
                "duration": 0.8340909,
                "tempo": 120.0
            },
            {
                "start_time": 7.5659091,
                "end_time": 7.7,
                "pitch": 82,
                "velocity": 101,
                "duration": 0.1340909,
                "tempo": 120.0
            },
            {
                "start_time": 7.15,
                "end_time": 7.8340909,
                "pitch": 58,
                "velocity": 101,
                "duration": 0.6840909,
                "tempo": 120.0
            },
            {
                "start_time": 7.7,
                "end_time": 7.8340909,
                "pitch": 58,
                "velocity": 101,
                "duration": 0.1340909,
                "tempo": 120.0
            },
            {
                "start_time": 7.4159091,
                "end_time": 7.9704545,
                "pitch": 55,
                "velocity": 101,
                "duration": 0.5545455,
                "tempo": 120.0
            },
            {
                "start_time": 7.8340909,
                "end_time": 7.9704545,
                "pitch": 79,
                "velocity": 101,
                "duration": 0.1363636,
                "tempo": 120.0
            },
            {
                "start_time": 7.9704545,
                "end_time": 8.1227273,
                "pitch": 64,
                "velocity": 101,
                "duration": 0.1522727,
                "tempo": 120.0
            },
            {
                "start_time": 7.0159091,
                "end_time": 8.1227273,
                "pitch": 76,
                "velocity": 101,
                "duration": 1.1068182,
                "tempo": 120.0
            },
            {
                "start_time": 8.1227273,
                "end_time": 8.2590909,
                "pitch": 70,
                "velocity": 101,
                "duration": 0.1363636,
                "tempo": 120.0
            },
            {
                "start_time": 7.9704545,
                "end_time": 8.3954545,
                "pitch": 55,
                "velocity": 101,
                "duration": 0.425,
                "tempo": 120.0
            },
            {
                "start_time": 8.2590909,
                "end_time": 8.3954545,
                "pitch": 55,
                "velocity": 101,
                "duration": 0.1363636,
                "tempo": 120.0
            },
            {
                "start_time": 8.3954545,
                "end_time": 8.5272727,
                "pitch": 79,
                "velocity": 101,
                "duration": 0.1318182,
                "tempo": 120.0
            },
            {
                "start_time": 8.5272727,
                "end_time": 8.675,
                "pitch": 64,
                "velocity": 101,
                "duration": 0.1477273,
                "tempo": 120.0
            },
            {
                "start_time": 7.5659091,
                "end_time": 8.675,
                "pitch": 88,
                "velocity": 101,
                "duration": 1.1090909,
                "tempo": 120.0
            },
            {
                "start_time": 7.8340909,
                "end_time": 8.8068182,
                "pitch": 82,
                "velocity": 101,
                "duration": 0.9727273,
                "tempo": 120.0
            },
            {
                "start_time": 8.675,
                "end_time": 8.8068182,
                "pitch": 82,
                "velocity": 101,
                "duration": 0.1318182,
                "tempo": 120.0
            },
            {
                "start_time": 8.2590909,
                "end_time": 8.9363636,
                "pitch": 58,
                "velocity": 101,
                "duration": 0.6772727,
                "tempo": 120.0
            },
            {
                "start_time": 8.8068182,
                "end_time": 8.9363636,
                "pitch": 58,
                "velocity": 101,
                "duration": 0.1295455,
                "tempo": 120.0
            },
            {
                "start_time": 8.9363636,
                "end_time": 9.0863636,
                "pitch": 86,
                "velocity": 101,
                "duration": 0.15,
                "tempo": 120.0
            },
            {
                "start_time": 9.0863636,
                "end_time": 9.2204545,
                "pitch": 71,
                "velocity": 101,
                "duration": 0.1340909,
                "tempo": 120.0
            },
            {
                "start_time": 5.9136364,
                "end_time": 9.3545455,
                "pitch": 77,
                "velocity": 101,
                "duration": 3.4409091,
                "tempo": 120.0
            },
            {
                "start_time": 9.2204545,
                "end_time": 9.3545455,
                "pitch": 77,
                "velocity": 101,
                "duration": 0.1340909,
                "tempo": 120.0
            },
            {
                "start_time": 3.8318182,
                "end_time": 9.4863636,
                "pitch": 62,
                "velocity": 101,
                "duration": 5.6545455,
                "tempo": 120.0
            },
            {
                "start_time": 9.3545455,
                "end_time": 9.4863636,
                "pitch": 62,
                "velocity": 101,
                "duration": 0.1318182,
                "tempo": 120.0
            },
            {
                "start_time": 9.0863636,
                "end_time": 9.6386364,
                "pitch": 74,
                "velocity": 101,
                "duration": 0.5522727,
                "tempo": 120.0
            },
            {
                "start_time": 9.4863636,
                "end_time": 9.6386364,
                "pitch": 86,
                "velocity": 101,
                "duration": 0.1522727,
                "tempo": 120.0
            },
            {
                "start_time": 9.2204545,
                "end_time": 9.6863636,
                "pitch": 71,
                "velocity": 101,
                "duration": 0.4659091,
                "tempo": 120.0
            },
            {
                "start_time": 9.6386364,
                "end_time": 9.6863636,
                "pitch": 71,
                "velocity": 101,
                "duration": 0.0477273,
                "tempo": 120.0
            }
        ]
    }
}