{
    "mood": "sad",
    "instruments": {
        "Acoustic Grand Piano": [
            {
                "start_time": 0.0181818,
                "end_time": 1.2136364,
                "pitch": 52,
                "velocity": 64,
                "duration": 1.1954545,
                "tempo": 120.0
            },
            {
                "start_time": 1.2136364,
                "end_time": 1.6159091,
                "pitch": 52,
                "velocity": 64,
                "duration": 0.4022727,
                "tempo": 120.0
            },
            {
                "start_time": 1.6159091,
                "end_time": 1.8181818,
                "pitch": 60,
                "velocity": 64,
                "duration": 0.2022727,
                "tempo": 120.0
            },
            {
                "start_time": 1.8204545,
                "end_time": 2.2204545,
                "pitch": 59,
                "velocity": 64,
                "duration": 0.4,
                "tempo": 120.0
            },
            {
                "start_time": 2.2227273,
                "end_time": 2.8204545,
                "pitch": 57,
                "velocity": 64,
                "duration": 0.5977273,
                "tempo": 120.0
            },
            {
                "start_time": 2.8204545,
                "end_time": 3.2340909,
                "pitch": 53,
                "velocity": 64,
                "duration": 0.4136364,
                "tempo": 120.0
            },
            {
                "start_time": 3.2340909,
                "end_time": 4.0272727,
                "pitch": 57,
                "velocity": 64,
                "duration": 0.7931818,
                "tempo": 120.0
            },
            {
                "start_time": 4.0295455,
                "end_time": 6.4477273,
                "pitch": 55,
                "velocity": 64,
                "duration": 2.4181818,
                "tempo": 120.0
            },
            {
                "start_time": 6.45,
                "end_time": 8.0590909,
                "pitch": 52,
                "velocity": 64,
                "duration": 1.6090909,
                "tempo": 120.0
            },
            {
                "start_time": 8.0590909,
                "end_time": 8.2568182,
                "pitch": 60,
                "velocity": 64,
                "duration": 0.1977273,
                "tempo": 120.0
            },
            {
                "start_time": 8.2590909,
                "end_time": 8.6590909,
                "pitch": 59,
                "velocity": 64,
                "duration": 0.4,
                "tempo": 120.0
            },
            {
                "start_time": 8.6613636,
                "end_time": 9.2636364,
                "pitch": 57,
                "velocity": 64,
                "duration": 0.6022727,
                "tempo": 120.0
            },
            {
                "start_time": 9.2659091,
                "end_time": 9.6681818,
                "pitch": 64,
                "velocity": 64,
                "duration": 0.4022727,
                "tempo": 120.0
            },
            {
                "start_time": 9.6704545,
                "end_time": 12.8977273,
                "pitch": 62,
                "velocity": 64,
                "duration": 3.2272727,
                "tempo": 120.0
            },
            {
                "start_time": 12.9,
                "end_time": 14.1068182,
                "pitch": 52,
                "velocity": 80,
                "duration": 1.2068182,
                "tempo": 120.0
            },
            {
                "start_time": 14.1068182,
                "end_time": 14.5068182,
                "pitch": 52,
                "velocity": 80,
                "duration": 0.4,
                "tempo": 120.0
            },
            {
                "start_time": 14.5090909,
                "end_time": 14.7090909,
                "pitch": 60,
                "velocity": 80,
                "duration": 0.2,
                "tempo": 120.0
            },
            {
                "start_time": 14.7090909,
                "end_time": 15.1113636,
                "pitch": 59,
                "velocity": 80,
                "duration": 0.4022727,
                "tempo": 120.0
            },
            {
                "start_time": 15.1113636,
                "end_time": 15.7159091,
                "pitch": 57,
                "velocity": 80,
                "duration": 0.6045455,
                "tempo": 120.0
            },
            {
                "start_time": 15.7181818,
                "end_time": 16.1204545,
                "pitch": 53,
                "velocity": 80,
                "duration": 0.4022727,
                "tempo": 120.0
            },
            {
                "start_time": 16.1204545,
                "end_time": 16.9227273,
                "pitch": 57,
                "velocity": 80,
                "duration": 0.8022727,
                "tempo": 120.0
            },
            {
                "start_time": 16.925,
                "end_time": 19.3431818,
                "pitch": 55,
                "velocity": 80,
                "duration": 2.4181818,
                "tempo": 120.0
            },
            {
                "start_time": 19.3454545,
                "end_time": 20.95,
                "pitch": 52,
                "velocity": 80,
                "duration": 1.6045455,
                "tempo": 120.0
            },
            {
                "start_time": 20.9522727,
                "end_time": 21.15,
                "pitch": 60,
                "velocity": 80,
                "duration": 0.1977273,
                "tempo": 120.0
            },
            {
                "start_time": 21.1522727,
                "end_time": 21.55,
                "pitch": 59,
                "velocity": 80,
                "duration": 0.3977273,
                "tempo": 120.0
            },
            {
                "start_time": 21.5522727,
                "end_time": 22.1545455,
                "pitch": 57,
                "velocity": 80,
                "duration": 0.6022727,
                "tempo": 120.0
            },
            {
                "start_time": 22.1568182,
                "end_time": 22.5568182,
                "pitch": 67,
                "velocity": 80,
                "duration": 0.4,
                "tempo": 120.0
            },
            {
                "start_time": 22.5568182,
                "end_time": 25.775,
                "pitch": 69,
                "velocity": 80,
                "duration": 3.2181818,
                "tempo": 120.0
            },
            {
                "start_time": 25.7772727,
                "end_time": 28.9954545,
                "pitch": 52,
                "velocity": 64,
                "duration": 3.2181818,
                "tempo": 120.0
            },
            {
                "start_time": 28.9977273,
                "end_time": 30.8022727,
                "pitch": 48,
                "velocity": 64,
                "duration": 1.8045455,
                "tempo": 120.0
            },
            {
                "start_time": 30.8022727,
                "end_time": 32.2204545,
                "pitch": 50,
                "velocity": 64,
                "duration": 1.4181818,
                "tempo": 120.0
            },
            {
                "start_time": 32.2204545,
                "end_time": 35.4318182,
                "pitch": 52,
                "velocity": 64,
                "duration": 3.2113636,
                "tempo": 120.0
            },
            {
                "start_time": 35.4340909,
                "end_time": 37.0363636,
                "pitch": 48,
                "velocity": 64,
                "duration": 1.6022727,
                "tempo": 120.0
            },
            {
                "start_time": 37.2363636,
                "end_time": 37.6340909,
                "pitch": 67,
                "velocity": 64,
                "duration": 0.3977273,
                "tempo": 120.0
            },
            {
                "start_time": 37.6363636,
                "end_time": 38.0363636,
                "pitch": 65,
                "velocity": 64,
                "duration": 0.4,
                "tempo": 120.0
            },
            {
                "start_time": 38.0363636,
                "end_time": 38.4386364,
                "pitch": 67,
                "velocity": 64,
                "duration": 0.4022727,
                "tempo": 120.0
            },
            {
                "start_time": 38.4386364,
                "end_time": 38.6409091,
                "pitch": 64,
                "velocity": 64,
                "duration": 0.2022727,
                "tempo": 120.0
            },
            {
                "start_time": 38.6409091,
                "end_time": 41.8613636,
                "pitch": 52,
                "velocity": 64,
                "duration": 3.2204545,
                "tempo": 120.0
            },
            {
                "start_time": 41.8636364,
                "end_time": 43.6636364,
                "pitch": 48,
                "velocity": 64,
                "duration": 1.8,
                "tempo": 120.0
            },
            {
                "start_time": 43.6636364,
                "end_time": 45.0681818,
                "pitch": 50,
                "velocity": 64,
                "duration": 1.4045455,
                "tempo": 120.0
            },
            {
                "start_time": 45.0704545,
                "end_time": 46.6727273,
                "pitch": 52,
                "velocity": 64,
                "duration": 1.6022727,
                "tempo": 120.0
            },
            {
                "start_time": 46.675,
                "end_time": 48.2818182,
                "pitch": 52,
                "velocity": 64,
                "duration": 1.6068182,
                "tempo": 120.0
            },
            {
                "start_time": 48.4863636,
                "end_time": 48.6909091,
                "pitch": 52,
                "velocity": 64,
                "duration": 0.2045455,
                "tempo": 120.0
            },
            {
                "start_time": 48.6909091,
                "end_time": 48.8909091,
                "pitch": 55,
                "velocity": 64,
                "duration": 0.2,
                "tempo": 120.0
            },
            {
                "start_time": 48.8909091,
                "end_time": 49.0909091,
                "pitch": 59,
                "velocity": 64,
                "duration": 0.2,
                "tempo": 120.0
            },
            {
                "start_time": 49.0909091,
                "end_time": 49.2931818,
                "pitch": 60,
                "velocity": 64,
                "duration": 0.2022727,
                "tempo": 120.0
            },
            {
                "start_time": 49.2931818,
                "end_time": 49.4931818,
                "pitch": 62,
                "velocity": 64,
                "duration": 0.2,
                "tempo": 120.0
            },
            {
                "start_time": 49.4954545,
                "end_time": 49.6954545,
                "pitch": 64,
                "velocity": 64,
                "duration": 0.2,
                "tempo": 120.0
            },
            {
                "start_time": 49.6954545,
                "end_time": 50.0954545,
                "pitch": 65,
                "velocity": 64,
                "duration": 0.4,
                "tempo": 120.0
            },
            {
                "start_time": 50.0954545,
                "end_time": 50.2954545,
                "pitch": 62,
                "velocity": 64,
                "duration": 0.2,
                "tempo": 120.0
            },
            {
                "start_time": 50.2954545,
                "end_time": 50.4954545,
                "pitch": 60,
                "velocity": 64,
                "duration": 0.2,
                "tempo": 120.0
            },
            {
                "start_time": 50.4954545,
                "end_time": 50.8954545,
                "pitch": 67,
                "velocity": 64,
                "duration": 0.4,
                "tempo": 120.0
            },
            {
                "start_time": 50.8954545,
                "end_time": 51.0954545,
                "pitch": 62,
                "velocity": 64,
                "duration": 0.2,
                "tempo": 120.0
            },
            {
                "start_time": 51.0977273,
                "end_time": 51.5,
                "pitch": 59,
                "velocity": 64,
                "duration": 0.4022727,
                "tempo": 120.0
            },
            {
                "start_time": 51.5022727,
                "end_time": 51.7,
                "pitch": 55,
                "velocity": 51,
                "duration": 0.1977273,
                "tempo": 120.0
            },
            {
                "start_time": 51.7022727,
                "end_time": 51.9,
                "pitch": 60,
                "velocity": 51,
                "duration": 0.1977273,
                "tempo": 120.0
            },
            {
                "start_time": 51.9022727,
                "end_time": 52.1022727,
                "pitch": 64,
                "velocity": 51,
                "duration": 0.2,
                "tempo": 120.0
            },
            {
                "start_time": 52.1022727,
                "end_time": 52.3022727,
                "pitch": 67,
                "velocity": 51,
                "duration": 0.2,
                "tempo": 120.0
            },
            {
                "start_time": 52.3022727,
                "end_time": 52.5022727,
                "pitch": 55,
                "velocity": 51,
                "duration": 0.2,
                "tempo": 120.0
            },
            {
                "start_time": 52.5022727,
                "end_time": 52.7022727,
                "pitch": 60,
                "velocity": 51,
                "duration": 0.2,
                "tempo": 120.0
            },
            {
                "start_time": 52.7045455,
                "end_time": 52.9022727,
                "pitch": 64,
                "velocity": 51,
                "duration": 0.1977273,
                "tempo": 120.0
            },
            {
                "start_time": 52.9022727,
                "end_time": 53.1022727,
                "pitch": 67,
                "velocity": 51,
                "duration": 0.2,
                "tempo": 120.0
            },
            {
                "start_time": 53.1045455,
                "end_time": 53.3045455,
                "pitch": 55,
                "velocity": 51,
                "duration": 0.2,
                "tempo": 120.0
            },
            {
                "start_time": 53.3045455,
                "end_time": 53.5068182,
                "pitch": 60,
                "velocity": 51,
                "duration": 0.2022727,
                "tempo": 120.0
            },
            {
                "start_time": 53.5068182,
                "end_time": 53.7045455,
                "pitch": 64,
                "velocity": 51,
                "duration": 0.1977273,
                "tempo": 120.0
            },
            {
                "start_time": 53.7068182,
                "end_time": 53.9068182,
                "pitch": 67,
                "velocity": 51,
                "duration": 0.2,
                "tempo": 120.0
            },
            {
                "start_time": 53.9090909,
                "end_time": 54.1068182,
                "pitch": 55,
                "velocity": 51,
                "duration": 0.1977273,
                "tempo": 120.0
            },
            {
                "start_time": 54.1068182,
                "end_time": 54.3068182,
                "pitch": 60,
                "velocity": 51,
                "duration": 0.2,
                "tempo": 120.0
            },
            {
                "start_time": 54.3068182,
                "end_time": 54.5068182,
                "pitch": 64,
                "velocity": 51,
                "duration": 0.2,
                "tempo": 120.0
            },
            {
                "start_time": 54.5090909,
                "end_time": 54.7068182,
                "pitch": 67,
                "velocity": 51,
                "duration": 0.1977273,
                "tempo": 120.0
            },
            {
                "start_time": 54.7090909,
                "end_time": 54.9068182,
                "pitch": 52,
                "velocity": 51,
                "duration": 0.1977273,
                "tempo": 120.0
            },
            {
                "start_time": 54.9090909,
                "end_time": 55.1068182,
                "pitch": 57,
                "velocity": 51,
                "duration": 0.1977273,
                "tempo": 120.0
            },
            {
                "start_time": 55.1090909,
                "end_time": 55.3136364,
                "pitch": 60,
                "velocity": 51,
                "duration": 0.2045455,
                "tempo": 120.0
            },
            {
                "start_time": 55.3159091,
                "end_time": 55.5181818,
                "pitch": 64,
                "velocity": 51,
                "duration": 0.2022727,
                "tempo": 120.0
            },
            {
                "start_time": 55.5204545,
                "end_time": 55.7136364,
                "pitch": 52,
                "velocity": 51,
                "duration": 0.1931818,
                "tempo": 120.0
            },
            {
                "start_time": 55.7159091,
                "end_time": 55.9113636,
                "pitch": 57,
                "velocity": 51,
                "duration": 0.1954545,
                "tempo": 120.0
            },
            {
                "start_time": 55.9136364,
                "end_time": 56.1159091,
                "pitch": 60,
                "velocity": 51,
                "duration": 0.2022727,
                "tempo": 120.0
            },
            {
                "start_time": 56.1181818,
                "end_time": 56.325,
                "pitch": 64,
                "velocity": 51,
                "duration": 0.2068182,
                "tempo": 120.0
            },
            {
                "start_time": 56.325,
                "end_time": 56.525,
                "pitch": 52,
                "velocity": 51,
                "duration": 0.2,
                "tempo": 120.0
            },
            {
                "start_time": 56.525,
                "end_time": 56.7272727,
                "pitch": 57,
                "velocity": 51,
                "duration": 0.2022727,
                "tempo": 120.0
            },
            {
                "start_time": 56.7272727,
                "end_time": 56.925,
                "pitch": 60,
                "velocity": 51,
                "duration": 0.1977273,
                "tempo": 120.0
            },
            {
                "start_time": 56.9272727,
                "end_time": 57.1272727,
                "pitch": 64,
                "velocity": 51,
                "duration": 0.2,
                "tempo": 120.0
            },
            {
                "start_time": 57.1295455,
                "end_time": 57.3272727,
                "pitch": 52,
                "velocity": 51,
                "duration": 0.1977273,
                "tempo": 120.0
            },
            {
                "start_time": 57.3272727,
                "end_time": 57.5272727,
                "pitch": 57,
                "velocity": 51,
                "duration": 0.2,
                "tempo": 120.0
            },
            {
                "start_time": 57.5272727,
                "end_time": 57.7272727,
                "pitch": 60,
                "velocity": 51,
                "duration": 0.2,
                "tempo": 120.0
            },
            {
                "start_time": 57.7295455,
                "end_time": 57.9272727,
                "pitch": 64,
                "velocity": 51,
                "duration": 0.1977273,
                "tempo": 120.0
            },
            {
                "start_time": 57.9295455,
                "end_time": 58.1272727,
                "pitch": 53,
                "velocity": 51,
                "duration": 0.1977273,
                "tempo": 120.0
            },
            {
                "start_time": 58.1295455,
                "end_time": 58.3272727,
                "pitch": 57,
                "velocity": 51,
                "duration": 0.1977273,
                "tempo": 120.0
            },
            {
                "start_time": 58.3295455,
                "end_time": 58.5295455,
                "pitch": 62,
                "velocity": 51,
                "duration": 0.2,
                "tempo": 120.0
            },
            {
                "start_time": 58.5318182,
                "end_time": 58.7318182,
                "pitch": 65,
                "velocity": 51,
                "duration": 0.2,
                "tempo": 120.0
            },
            {
                "start_time": 58.7340909,
                "end_time": 58.9318182,
                "pitch": 53,
                "velocity": 51,
                "duration": 0.1977273,
                "tempo": 120.0
            },
            {
                "start_time": 58.9318182,
                "end_time": 59.1318182,
                "pitch": 57,
                "velocity": 51,
                "duration": 0.2,
                "tempo": 120.0
            },
            {
                "start_time": 59.1340909,
                "end_time": 59.3318182,
                "pitch": 62,
                "velocity": 51,
                "duration": 0.1977273,
                "tempo": 120.0
            },
            {
                "start_time": 59.3318182,
                "end_time": 59.5340909,
                "pitch": 65,
                "velocity": 51,
                "duration": 0.2022727,
                "tempo": 120.0
            },
            {
                "start_time": 59.5340909,
                "end_time": 59.7318182,
                "pitch": 53,
                "velocity": 51,
                "duration": 0.1977273,
                "tempo": 120.0
            },
            {
                "start_time": 59.7340909,
                "end_time": 59.9340909,
                "pitch": 57,
                "velocity": 51,
                "duration": 0.2,
                "tempo": 120.0
            },
            {
                "start_time": 59.9340909,
                "end_time": 60.1318182,
                "pitch": 62,
                "velocity": 51,
                "duration": 0.1977273,
                "tempo": 120.0
            },
            {
                "start_time": 60.1340909,
                "end_time": 60.3340909,
                "pitch": 65,
                "velocity": 51,
                "duration": 0.2,
                "tempo": 120.0
            },
            {
                "start_time": 60.3363636,
                "end_time": 60.5340909,
                "pitch": 53,
                "velocity": 51,
                "duration": 0.1977273,
                "tempo": 120.0
            },
            {
                "start_time": 60.5363636,
                "end_time": 60.7363636,
                "pitch": 57,
                "velocity": 51,
                "duration": 0.2,
                "tempo": 120.0
            },
            {
                "start_time": 60.7386364,
                "end_time": 60.9363636,
                "pitch": 62,
                "velocity": 51,
                "duration": 0.1977273,
                "tempo": 120.0
            },
            {
                "start_time": 60.9386364,
                "end_time": 61.1363636,
                "pitch": 65,
                "velocity": 51,
                "duration": 0.1977273,
                "tempo": 120.0
            },
            {
                "start_time": 61.1386364,
                "end_time": 61.3386364,
                "pitch": 67,
                "velocity": 80,
                "duration": 0.2,
                "tempo": 120.0
            },
            {
                "start_time": 61.3386364,
                "end_time": 61.5363636,
                "pitch": 67,
                "velocity": 80,
                "duration": 0.1977273,
                "tempo": 120.0
            },
            {
                "start_time": 61.5386364,
                "end_time": 61.7363636,
                "pitch": 67,
                "velocity": 80,
                "duration": 0.1977273,
                "tempo": 120.0
            },
            {
                "start_time": 61.7386364,
                "end_time": 61.9363636,
                "pitch": 67,
                "velocity": 80,
                "duration": 0.1977273,
                "tempo": 120.0
            },
            {
                "start_time": 61.9386364,
                "end_time": 62.1386364,
                "pitch": 67,
                "velocity": 80,
                "duration": 0.2,
                "tempo": 120.0
            },
            {
                "start_time": 62.1386364,
                "end_time": 62.3386364,
                "pitch": 67,
                "velocity": 80,
                "duration": 0.2,
                "tempo": 120.0
            },
            {
                "start_time": 62.3409091,
                "end_time": 62.5409091,
                "pitch": 67,
                "velocity": 80,
                "duration": 0.2,
                "tempo": 120.0
            },
            {
                "start_time": 62.5409091,
                "end_time": 62.9409091,
                "pitch": 71,
                "velocity": 80,
                "duration": 0.4,
                "tempo": 120.0
            },
            {
                "start_time": 62.9431818,
                "end_time": 63.1409091,
                "pitch": 71,
                "velocity": 80,
                "duration": 0.1977273,
                "tempo": 120.0
            },
            {
                "start_time": 63.1431818,
                "end_time": 63.3409091,
                "pitch": 71,
                "velocity": 80,
                "duration": 0.1977273,
                "tempo": 120.0
            },
            {
                "start_time": 63.3431818,
                "end_time": 63.5431818,
                "pitch": 71,
                "velocity": 80,
                "duration": 0.2,
                "tempo": 120.0
            },
            {
                "start_time": 63.5431818,
                "end_time": 63.7431818,
                "pitch": 71,
                "velocity": 80,
                "duration": 0.2,
                "tempo": 120.0
            },
            {
                "start_time": 63.7431818,
                "end_time": 63.9431818,
                "pitch": 71,
                "velocity": 80,
                "duration": 0.2,
                "tempo": 120.0
            },
            {
                "start_time": 63.9431818,
                "end_time": 64.3454545,
                "pitch": 71,
                "velocity": 80,
                "duration": 0.4022727,
                "tempo": 120.0
            },
            {
                "start_time": 64.3477273,
                "end_time": 64.5522727,
                "pitch": 69,
                "velocity": 80,
                "duration": 0.2045455,
                "tempo": 120.0
            },
            {
                "start_time": 64.5522727,
                "end_time": 64.7545455,
                "pitch": 69,
                "velocity": 80,
                "duration": 0.2022727,
                "tempo": 120.0
            },
            {
                "start_time": 64.7568182,
                "end_time": 64.9568182,
                "pitch": 69,
                "velocity": 80,
                "duration": 0.2,
                "tempo": 120.0
            },
            {
                "start_time": 64.9568182,
                "end_time": 65.1590909,
                "pitch": 69,
                "velocity": 80,
                "duration": 0.2022727,
                "tempo": 120.0
            },
            {
                "start_time": 65.1590909,
                "end_time": 65.3590909,
                "pitch": 69,
                "velocity": 80,
                "duration": 0.2,
                "tempo": 120.0
            },
            {
                "start_time": 65.3613636,
                "end_time": 65.5613636,
                "pitch": 69,
                "velocity": 80,
                "duration": 0.2,
                "tempo": 120.0
            },
            {
                "start_time": 65.5636364,
                "end_time": 65.7613636,
                "pitch": 69,
                "velocity": 80,
                "duration": 0.1977273,
                "tempo": 120.0
            },
            {
                "start_time": 65.7613636,
                "end_time": 65.9636364,
                "pitch": 69,
                "velocity": 80,
                "duration": 0.2022727,
                "tempo": 120.0
            },
            {
                "start_time": 65.9636364,
                "end_time": 66.1636364,
                "pitch": 69,
                "velocity": 80,
                "duration": 0.2,
                "tempo": 120.0
            },
            {
                "start_time": 66.1636364,
                "end_time": 66.3659091,
                "pitch": 69,
                "velocity": 80,
                "duration": 0.2022727,
                "tempo": 120.0
            },
            {
                "start_time": 66.3659091,
                "end_time": 66.5659091,
                "pitch": 69,
                "velocity": 80,
                "duration": 0.2,
                "tempo": 120.0
            },
            {
                "start_time": 66.5659091,
                "end_time": 66.7659091,
                "pitch": 69,
                "velocity": 80,
                "duration": 0.2,
                "tempo": 120.0
            },
            {
                "start_time": 66.7659091,
                "end_time": 66.9681818,
                "pitch": 69,
                "velocity": 80,
                "duration": 0.2022727,
                "tempo": 120.0
            },
            {
                "start_time": 66.9681818,
                "end_time": 67.1681818,
                "pitch": 69,
                "velocity": 80,
                "duration": 0.2,
                "tempo": 120.0
            },
            {
                "start_time": 67.1704545,
                "end_time": 67.3704545,
                "pitch": 69,
                "velocity": 80,
                "duration": 0.2,
                "tempo": 120.0
            },
            {
                "start_time": 67.3727273,
                "end_time": 67.5727273,
                "pitch": 69,
                "velocity": 80,
                "duration": 0.2,
                "tempo": 120.0
            },
            {
                "start_time": 67.5727273,
                "end_time": 67.7727273,
                "pitch": 67,
                "velocity": 80,
                "duration": 0.2,
                "tempo": 120.0
            },
            {
                "start_time": 67.775,
                "end_time": 67.9727273,
                "pitch": 67,
                "velocity": 80,
                "duration": 0.1977273,
                "tempo": 120.0
            },
            {
                "start_time": 67.975,
                "end_time": 68.175,
                "pitch": 67,
                "velocity": 80,
                "duration": 0.2,
                "tempo": 120.0
            },
            {
                "start_time": 68.175,
                "end_time": 68.3772727,
                "pitch": 67,
                "velocity": 80,
                "duration": 0.2022727,
                "tempo": 120.0
            },
            {
                "start_time": 68.3772727,
                "end_time": 68.575,
                "pitch": 67,
                "velocity": 80,
                "duration": 0.1977273,
                "tempo": 120.0
            },
            {
                "start_time": 68.5772727,
                "end_time": 68.7772727,
                "pitch": 67,
                "velocity": 80,
                "duration": 0.2,
                "tempo": 120.0
            },
            {
                "start_time": 68.7772727,
                "end_time": 68.9772727,
                "pitch": 67,
                "velocity": 80,
                "duration": 0.2,
                "tempo": 120.0
            },
            {
                "start_time": 68.9795455,
                "end_time": 69.1818182,
                "pitch": 67,
                "velocity": 80,
                "duration": 0.2022727,
                "tempo": 120.0
            },
            {
                "start_time": 69.1818182,
                "end_time": 69.3818182,
                "pitch": 67,
                "velocity": 80,
                "duration": 0.2,
                "tempo": 120.0
            },
            {
                "start_time": 69.3818182,
                "end_time": 69.5818182,
                "pitch": 67,
                "velocity": 80,
                "duration": 0.2,
                "tempo": 120.0
            },
            {
                "start_time": 69.5840909,
                "end_time": 69.7840909,
                "pitch": 67,
                "velocity": 80,
                "duration": 0.2,
                "tempo": 120.0
            },
            {
                "start_time": 69.7840909,
                "end_time": 69.9840909,
                "pitch": 67,
                "velocity": 80,
                "duration": 0.2,
                "tempo": 120.0
            },
            {
                "start_time": 69.9840909,
                "end_time": 70.1863636,
                "pitch": 67,
                "velocity": 80,
                "duration": 0.2022727,
                "tempo": 120.0
            },
            {
                "start_time": 70.1863636,
                "end_time": 70.3863636,
                "pitch": 67,
                "velocity": 80,
                "duration": 0.2,
                "tempo": 120.0
            },
            {
                "start_time": 70.3863636,
                "end_time": 70.5863636,
                "pitch": 67,
                "velocity": 80,
                "duration": 0.2,
                "tempo": 120.0
            },
            {
                "start_time": 70.5886364,
                "end_time": 70.7886364,
                "pitch": 67,
                "velocity": 80,
                "duration": 0.2,
                "tempo": 120.0
            },
            {
                "start_time": 70.7886364,
                "end_time": 70.9931818,
                "pitch": 65,
                "velocity": 80,
                "duration": 0.2045455,
                "tempo": 120.0
            },
            {
                "start_time": 70.9954545,
                "end_time": 71.1977273,
                "pitch": 65,
                "velocity": 80,
                "duration": 0.2022727,
                "tempo": 120.0
            },
            {
                "start_time": 71.2,
                "end_time": 71.3977273,
                "pitch": 65,
                "velocity": 80,
                "duration": 0.1977273,
                "tempo": 120.0
            },
            {
                "start_time": 71.4,
                "end_time": 71.6,
                "pitch": 65,
                "velocity": 80,
                "duration": 0.2,
                "tempo": 120.0
            },
            {
                "start_time": 71.6,
                "end_time": 71.8,
                "pitch": 65,
                "velocity": 80,
                "duration": 0.2,
                "tempo": 120.0
            },
            {
                "start_time": 71.8022727,
                "end_time": 72.0022727,
                "pitch": 65,
                "velocity": 80,
                "duration": 0.2,
                "tempo": 120.0
            },
            {
                "start_time": 72.0045455,
                "end_time": 72.2022727,
                "pitch": 65,
                "velocity": 80,
                "duration": 0.1977273,
                "tempo": 120.0
            },
            {
                "start_time": 72.2022727,
                "end_time": 72.4045455,
                "pitch": 65,
                "velocity": 80,
                "duration": 0.2022727,
                "tempo": 120.0
            },
            {
                "start_time": 72.4045455,
                "end_time": 72.6045455,
                "pitch": 65,
                "velocity": 80,
                "duration": 0.2,
                "tempo": 120.0
            },
            {
                "start_time": 72.6045455,
                "end_time": 72.8068182,
                "pitch": 65,
                "velocity": 80,
                "duration": 0.2022727,
                "tempo": 120.0
            },
            {
                "start_time": 72.8068182,
                "end_time": 73.0090909,
                "pitch": 65,
                "velocity": 80,
                "duration": 0.2022727,
                "tempo": 120.0
            },
            {
                "start_time": 73.0090909,
                "end_time": 73.2090909,
                "pitch": 65,
                "velocity": 80,
                "duration": 0.2,
                "tempo": 120.0
            },
            {
                "start_time": 73.2090909,
                "end_time": 73.4090909,
                "pitch": 65,
                "velocity": 80,
                "duration": 0.2,
                "tempo": 120.0
            },
            {
                "start_time": 73.4113636,
                "end_time": 73.6090909,
                "pitch": 65,
                "velocity": 80,
                "duration": 0.1977273,
                "tempo": 120.0
            },
            {
                "start_time": 73.6113636,
                "end_time": 73.8113636,
                "pitch": 65,
                "velocity": 80,
                "duration": 0.2,
                "tempo": 120.0
            },
            {
                "start_time": 73.8136364,
                "end_time": 74.0136364,
                "pitch": 65,
                "velocity": 80,
                "duration": 0.2,
                "tempo": 120.0
            },
            {
                "start_time": 74.0136364,
                "end_time": 74.2136364,
                "pitch": 62,
                "velocity": 80,
                "duration": 0.2,
                "tempo": 120.0
            },
            {
                "start_time": 74.2159091,
                "end_time": 74.4136364,
                "pitch": 62,
                "velocity": 80,
                "duration": 0.1977273,
                "tempo": 120.0
            },
            {
                "start_time": 74.4136364,
                "end_time": 74.6159091,
                "pitch": 62,
                "velocity": 80,
                "duration": 0.2022727,
                "tempo": 120.0
            },
            {
                "start_time": 74.6159091,
                "end_time": 74.8159091,
                "pitch": 62,
                "velocity": 80,
                "duration": 0.2,
                "tempo": 120.0
            },
            {
                "start_time": 74.8181818,
                "end_time": 75.0181818,
                "pitch": 62,
                "velocity": 80,
                "duration": 0.2,
                "tempo": 120.0
            },
            {
                "start_time": 75.0181818,
                "end_time": 75.2204545,
                "pitch": 62,
                "velocity": 80,
                "duration": 0.2022727,
                "tempo": 120.0
            },
            {
                "start_time": 75.2204545,
                "end_time": 75.4204545,
                "pitch": 62,
                "velocity": 80,
                "duration": 0.2,
                "tempo": 120.0
            },
            {
                "start_time": 75.4204545,
                "end_time": 75.6204545,
                "pitch": 62,
                "velocity": 80,
                "duration": 0.2,
                "tempo": 120.0
            },
            {
                "start_time": 75.6227273,
                "end_time": 75.8227273,
                "pitch": 62,
                "velocity": 80,
                "duration": 0.2,
                "tempo": 120.0
            },
            {
                "start_time": 75.8227273,
                "end_time": 76.0227273,
                "pitch": 62,
                "velocity": 80,
                "duration": 0.2,
                "tempo": 120.0
            },
            {
                "start_time": 76.0227273,
                "end_time": 76.2227273,
                "pitch": 62,
                "velocity": 80,
                "duration": 0.2,
                "tempo": 120.0
            },
            {
                "start_time": 76.225,
                "end_time": 76.4227273,
                "pitch": 62,
                "velocity": 80,
                "duration": 0.1977273,
                "tempo": 120.0
            },
            {
                "start_time": 76.425,
                "end_time": 76.6295455,
                "pitch": 62,
                "velocity": 80,
                "duration": 0.2045455,
                "tempo": 120.0
            },
            {
                "start_time": 76.6318182,
                "end_time": 76.8340909,
                "pitch": 62,
                "velocity": 80,
                "duration": 0.2022727,
                "tempo": 120.0
            },
            {
                "start_time": 76.8363636,
                "end_time": 77.0318182,
                "pitch": 62,
                "velocity": 80,
                "duration": 0.1954545,
                "tempo": 120.0
            },
            {
                "start_time": 77.0318182,
                "end_time": 77.2295455,
                "pitch": 62,
                "velocity": 80,
                "duration": 0.1977273,
                "tempo": 120.0
            },
            {
                "start_time": 77.2295455,
                "end_time": 77.4340909,
                "pitch": 69,
                "velocity": 80,
                "duration": 0.2045455,
                "tempo": 120.0
            },
            {
                "start_time": 77.4363636,
                "end_time": 77.6386364,
                "pitch": 69,
                "velocity": 80,
                "duration": 0.2022727,
                "tempo": 120.0
            },
            {
                "start_time": 77.6409091,
                "end_time": 77.8340909,
                "pitch": 69,
                "velocity": 80,
                "duration": 0.1931818,
                "tempo": 120.0
            },
            {
                "start_time": 77.8363636,
                "end_time": 78.0318182,
                "pitch": 69,
                "velocity": 80,
                "duration": 0.1954545,
                "tempo": 120.0
            },
            {
                "start_time": 78.0318182,
                "end_time": 78.2318182,
                "pitch": 69,
                "velocity": 80,
                "duration": 0.2,
                "tempo": 120.0
            },
            {
                "start_time": 78.2318182,
                "end_time": 78.4318182,
                "pitch": 69,
                "velocity": 80,
                "duration": 0.2,
                "tempo": 120.0
            },
            {
                "start_time": 78.4340909,
                "end_time": 78.6386364,
                "pitch": 69,
                "velocity": 80,
                "duration": 0.2045455,
                "tempo": 120.0
            },
            {
                "start_time": 78.6386364,
                "end_time": 78.8454545,
                "pitch": 69,
                "velocity": 80,
                "duration": 0.2068182,
                "tempo": 120.0
            },
            {
                "start_time": 78.8454545,
                "end_time": 79.0431818,
                "pitch": 69,
                "velocity": 80,
                "duration": 0.1977273,
                "tempo": 120.0
            },
            {
                "start_time": 79.0431818,
                "end_time": 79.2431818,
                "pitch": 69,
                "velocity": 80,
                "duration": 0.2,
                "tempo": 120.0
            },
            {
                "start_time": 79.2454545,
                "end_time": 79.4454545,
                "pitch": 69,
                "velocity": 80,
                "duration": 0.2,
                "tempo": 120.0
            },
            {
                "start_time": 79.4477273,
                "end_time": 79.6477273,
                "pitch": 69,
                "velocity": 80,
                "duration": 0.2,
                "tempo": 120.0
            },
            {
                "start_time": 79.6477273,
                "end_time": 79.8477273,
                "pitch": 69,
                "velocity": 80,
                "duration": 0.2,
                "tempo": 120.0
            },
            {
                "start_time": 79.8477273,
                "end_time": 80.0477273,
                "pitch": 69,
                "velocity": 80,
                "duration": 0.2,
                "tempo": 120.0
            },
            {
                "start_time": 80.0477273,
                "end_time": 80.25,
                "pitch": 69,
                "velocity": 80,
                "duration": 0.2022727,
                "tempo": 120.0
            },
            {
                "start_time": 80.25,
                "end_time": 80.4522727,
                "pitch": 69,
                "velocity": 80,
                "duration": 0.2022727,
                "tempo": 120.0
            },
            {
                "start_time": 80.4522727,
                "end_time": 80.6545455,
                "pitch": 67,
                "velocity": 80,
                "duration": 0.2022727,
                "tempo": 120.0
            },
            {
                "start_time": 80.6545455,
                "end_time": 80.8545455,
                "pitch": 67,
                "velocity": 80,
                "duration": 0.2,
                "tempo": 120.0
            },
            {
                "start_time": 80.8545455,
                "end_time": 81.0545455,
                "pitch": 67,
                "velocity": 80,
                "duration": 0.2,
                "tempo": 120.0
            },
            {
                "start_time": 81.0545455,
                "end_time": 81.2545455,
                "pitch": 67,
                "velocity": 80,
                "duration": 0.2,
                "tempo": 120.0
            },
            {
                "start_time": 81.2568182,
                "end_time": 81.4568182,
                "pitch": 67,
                "velocity": 80,
                "duration": 0.2,
                "tempo": 120.0
            },
            {
                "start_time": 81.4568182,
                "end_time": 81.6590909,
                "pitch": 67,
                "velocity": 80,
                "duration": 0.2022727,
                "tempo": 120.0
            },
            {
                "start_time": 81.6590909,
                "end_time": 81.8590909,
                "pitch": 67,
                "velocity": 80,
                "duration": 0.2,
                "tempo": 120.0
            },
            {
                "start_time": 81.8590909,
                "end_time": 82.0590909,
                "pitch": 67,
                "velocity": 80,
                "duration": 0.2,
                "tempo": 120.0
            },
            {
                "start_time": 82.0613636,
                "end_time": 82.2613636,
                "pitch": 67,
                "velocity": 80,
                "duration": 0.2,
                "tempo": 120.0
            },
            {
                "start_time": 82.2613636,
                "end_time": 82.4613636,
                "pitch": 67,
                "velocity": 80,
                "duration": 0.2,
                "tempo": 120.0
            },
            {
                "start_time": 82.4613636,
                "end_time": 82.6636364,
                "pitch": 67,
                "velocity": 80,
                "duration": 0.2022727,
                "tempo": 120.0
            },
            {
                "start_time": 82.6636364,
                "end_time": 82.8636364,
                "pitch": 67,
                "velocity": 80,
                "duration": 0.2,
                "tempo": 120.0
            },
            {
                "start_time": 82.8659091,
                "end_time": 83.0659091,
                "pitch": 67,
                "velocity": 80,
                "duration": 0.2,
                "tempo": 120.0
            },
            {
                "start_time": 83.0659091,
                "end_time": 83.2659091,
                "pitch": 67,
                "velocity": 80,
                "duration": 0.2,
                "tempo": 120.0
            },
            {
                "start_time": 83.2659091,
                "end_time": 83.4681818,
                "pitch": 67,
                "velocity": 80,
                "duration": 0.2022727,
                "tempo": 120.0
            },
            {
                "start_time": 83.4681818,
                "end_time": 83.6681818,
                "pitch": 67,
                "velocity": 80,
                "duration": 0.2,
                "tempo": 120.0
            },
            {
                "start_time": 83.6704545,
                "end_time": 83.8704545,
                "pitch": 65,
                "velocity": 80,
                "duration": 0.2,
                "tempo": 120.0
            },
            {
                "start_time": 83.8704545,
                "end_time": 84.0704545,
                "pitch": 65,
                "velocity": 80,
                "duration": 0.2,
                "tempo": 120.0
            },
            {
                "start_time": 84.0704545,
                "end_time": 84.2704545,
                "pitch": 65,
                "velocity": 80,
                "duration": 0.2,
                "tempo": 120.0
            },
            {
                "start_time": 84.2704545,
                "end_time": 84.4727273,
                "pitch": 65,
                "velocity": 80,
                "duration": 0.2022727,
                "tempo": 120.0
            },
            {
                "start_time": 84.4727273,
                "end_time": 84.6727273,
                "pitch": 65,
                "velocity": 80,
                "duration": 0.2,
                "tempo": 120.0
            },
            {
                "start_time": 84.675,
                "end_time": 84.875,
                "pitch": 65,
                "velocity": 80,
                "duration": 0.2,
                "tempo": 120.0
            },
            {
                "start_time": 84.8772727,
                "end_time": 85.075,
                "pitch": 65,
                "velocity": 80,
                "duration": 0.1977273,
                "tempo": 120.0
            },
            {
                "start_time": 85.0772727,
                "end_time": 85.2772727,
                "pitch": 65,
                "velocity": 80,
                "duration": 0.2,
                "tempo": 120.0
            },
            {
                "start_time": 85.2772727,
                "end_time": 85.4818182,
                "pitch": 65,
                "velocity": 80,
                "duration": 0.2045455,
                "tempo": 120.0
            },
            {
                "start_time": 85.4818182,
                "end_time": 85.6863636,
                "pitch": 65,
                "velocity": 80,
                "duration": 0.2045455,
                "tempo": 120.0
            },
            {
                "start_time": 85.6886364,
                "end_time": 85.8886364,
                "pitch": 65,
                "velocity": 80,
                "duration": 0.2,
                "tempo": 120.0
            },
            {
                "start_time": 85.8886364,
                "end_time": 86.0886364,
                "pitch": 65,
                "velocity": 80,
                "duration": 0.2,
                "tempo": 120.0
            },
            {
                "start_time": 86.0909091,
                "end_time": 86.2909091,
                "pitch": 65,
                "velocity": 80,
                "duration": 0.2,
                "tempo": 120.0
            },
            {
                "start_time": 86.2909091,
                "end_time": 86.4931818,
                "pitch": 65,
                "velocity": 80,
                "duration": 0.2022727,
                "tempo": 120.0
            },
            {
                "start_time": 86.4931818,
                "end_time": 86.6931818,
                "pitch": 65,
                "velocity": 80,
                "duration": 0.2,
                "tempo": 120.0
            },
            {
                "start_time": 86.6931818,
                "end_time": 86.8931818,
                "pitch": 65,
                "velocity": 80,
                "duration": 0.2,
                "tempo": 120.0
            },
            {
                "start_time": 86.8931818,
                "end_time": 87.0931818,
                "pitch": 62,
                "velocity": 80,
                "duration": 0.2,
                "tempo": 120.0
            },
            {
                "start_time": 87.0931818,
                "end_time": 87.2931818,
                "pitch": 62,
                "velocity": 80,
                "duration": 0.2,
                "tempo": 120.0
            },
            {
                "start_time": 87.2954545,
                "end_time": 87.4954545,
                "pitch": 62,
                "velocity": 80,
                "duration": 0.2,
                "tempo": 120.0
            },
            {
                "start_time": 87.4977273,
                "end_time": 87.6977273,
                "pitch": 62,
                "velocity": 80,
                "duration": 0.2,
                "tempo": 120.0
            },
            {
                "start_time": 87.6977273,
                "end_time": 87.8977273,
                "pitch": 62,
                "velocity": 80,
                "duration": 0.2,
                "tempo": 120.0
            },
            {
                "start_time": 87.8977273,
                "end_time": 88.0977273,
                "pitch": 62,
                "velocity": 80,
                "duration": 0.2,
                "tempo": 120.0
            },
            {
                "start_time": 88.0977273,
                "end_time": 88.3,
                "pitch": 62,
                "velocity": 80,
                "duration": 0.2022727,
                "tempo": 120.0
            },
            {
                "start_time": 88.3,
                "end_time": 88.5022727,
                "pitch": 62,
                "velocity": 80,
                "duration": 0.2022727,
                "tempo": 120.0
            },
            {
                "start_time": 88.5022727,
                "end_time": 88.7022727,
                "pitch": 69,
                "velocity": 101,
                "duration": 0.2,
                "tempo": 120.0
            },
            {
                "start_time": 88.7022727,
                "end_time": 88.9022727,
                "pitch": 69,
                "velocity": 101,
                "duration": 0.2,
                "tempo": 120.0
            },
            {
                "start_time": 88.9022727,
                "end_time": 89.1022727,
                "pitch": 69,
                "velocity": 101,
                "duration": 0.2,
                "tempo": 120.0
            },
            {
                "start_time": 89.5022727,
                "end_time": 89.6954545,
                "pitch": 69,
                "velocity": 101,
                "duration": 0.1931818,
                "tempo": 120.0
            },
            {
                "start_time": 90.1022727,
                "end_time": 93.3295455,
                "pitch": 52,
                "velocity": 64,
                "duration": 3.2272727,
                "tempo": 120.0
            },
            {
                "start_time": 93.3295455,
                "end_time": 95.1409091,
                "pitch": 48,
                "velocity": 64,
                "duration": 1.8113636,
                "tempo": 120.0
            },
            {
                "start_time": 95.1409091,
                "end_time": 96.5545455,
                "pitch": 50,
                "velocity": 64,
                "duration": 1.4136364,
                "tempo": 120.0
            },
            {
                "start_time": 96.5568182,
                "end_time": 99.7727273,
                "pitch": 52,
                "velocity": 64,
                "duration": 3.2159091,
                "tempo": 120.0
            },
            {
                "start_time": 99.7727273,
                "end_time": 101.3818182,
                "pitch": 48,
                "velocity": 64,
                "duration": 1.6090909,
                "tempo": 120.0
            },
            {
                "start_time": 101.5818182,
                "end_time": 101.9818182,
                "pitch": 67,
                "velocity": 64,
                "duration": 0.4,
                "tempo": 120.0
            },
            {
                "start_time": 101.9840909,
                "end_time": 102.3840909,
                "pitch": 65,
                "velocity": 64,
                "duration": 0.4,
                "tempo": 120.0
            },
            {
                "start_time": 102.3840909,
                "end_time": 102.7863636,
                "pitch": 67,
                "velocity": 64,
                "duration": 0.4022727,
                "tempo": 120.0
            },
            {
                "start_time": 102.7863636,
                "end_time": 102.9886364,
                "pitch": 64,
                "velocity": 64,
                "duration": 0.2022727,
                "tempo": 120.0
            },
            {
                "start_time": 102.9909091,
                "end_time": 106.2159091,
                "pitch": 52,
                "velocity": 64,
                "duration": 3.225,
                "tempo": 120.0
            },
            {
                "start_time": 106.2159091,
                "end_time": 108.025,
                "pitch": 48,
                "velocity": 64,
                "duration": 1.8090909,
                "tempo": 120.0
            },
            {
                "start_time": 108.025,
                "end_time": 109.4340909,
                "pitch": 50,
                "velocity": 64,
                "duration": 1.4090909,
                "tempo": 120.0
            },
            {
                "start_time": 109.4340909,
                "end_time": 111.0522727,
                "pitch": 52,
                "velocity": 64,
                "duration": 1.6181818,
                "tempo": 120.0
            },
            {
                "start_time": 111.0522727,
                "end_time": 112.6613636,
                "pitch": 52,
                "velocity": 64,
                "duration": 1.6090909,
                "tempo": 120.0
            },
            {
                "start_time": 112.8613636,
                "end_time": 113.0613636,
                "pitch": 52,
                "velocity": 64,
                "duration": 0.2,
                "tempo": 120.0
            },
            {
                "start_time": 113.0613636,
                "end_time": 113.2613636,
                "pitch": 55,
                "velocity": 64,
                "duration": 0.2,
                "tempo": 120.0
            },
            {
                "start_time": 113.2636364,
                "end_time": 113.4636364,
                "pitch": 59,
                "velocity": 64,
                "duration": 0.2,
                "tempo": 120.0
            },
            {
                "start_time": 113.4636364,
                "end_time": 113.6636364,
                "pitch": 60,
                "velocity": 64,
                "duration": 0.2,
                "tempo": 120.0
            },
            {
                "start_time": 113.6659091,
                "end_time": 113.8636364,
                "pitch": 62,
                "velocity": 64,
                "duration": 0.1977273,
                "tempo": 120.0
            },
            {
                "start_time": 113.8659091,
                "end_time": 114.0659091,
                "pitch": 64,
                "velocity": 64,
                "duration": 0.2,
                "tempo": 120.0
            },
            {
                "start_time": 114.0659091,
                "end_time": 114.4681818,
                "pitch": 65,
                "velocity": 64,
                "duration": 0.4022727,
                "tempo": 120.0
            },
            {
                "start_time": 114.4704545,
                "end_time": 114.6704545,
                "pitch": 62,
                "velocity": 64,
                "duration": 0.2,
                "tempo": 120.0
            },
            {
                "start_time": 114.6704545,
                "end_time": 114.8704545,
                "pitch": 60,
                "velocity": 64,
                "duration": 0.2,
                "tempo": 120.0
            },
            {
                "start_time": 114.8704545,
                "end_time": 115.2727273,
                "pitch": 67,
                "velocity": 64,
                "duration": 0.4022727,
                "tempo": 120.0
            },
            {
                "start_time": 115.2727273,
                "end_time": 115.475,
                "pitch": 62,
                "velocity": 64,
                "duration": 0.2022727,
                "tempo": 120.0
            },
            {
                "start_time": 115.475,
                "end_time": 115.8772727,
                "pitch": 59,
                "velocity": 64,
                "duration": 0.4022727,
                "tempo": 120.0
            },
            {
                "start_time": 115.8772727,
                "end_time": 116.0772727,
                "pitch": 55,
                "velocity": 51,
                "duration": 0.2,
                "tempo": 120.0
            },
            {
                "start_time": 116.0795455,
                "end_time": 116.2795455,
                "pitch": 60,
                "velocity": 51,
                "duration": 0.2,
                "tempo": 120.0
            },
            {
                "start_time": 116.2795455,
                "end_time": 116.4818182,
                "pitch": 64,
                "velocity": 51,
                "duration": 0.2022727,
                "tempo": 120.0
            },
            {
                "start_time": 116.4818182,
                "end_time": 116.6818182,
                "pitch": 67,
                "velocity": 51,
                "duration": 0.2,
                "tempo": 120.0
            },
            {
                "start_time": 116.6840909,
                "end_time": 116.8818182,
                "pitch": 55,
                "velocity": 51,
                "duration": 0.1977273,
                "tempo": 120.0
            },
            {
                "start_time": 116.8840909,
                "end_time": 117.0840909,
                "pitch": 60,
                "velocity": 51,
                "duration": 0.2,
                "tempo": 120.0
            },
            {
                "start_time": 117.0840909,
                "end_time": 117.2840909,
                "pitch": 64,
                "velocity": 51,
                "duration": 0.2,
                "tempo": 120.0
            },
            {
                "start_time": 117.2840909,
                "end_time": 117.4863636,
                "pitch": 67,
                "velocity": 51,
                "duration": 0.2022727,
                "tempo": 120.0
            },
            {
                "start_time": 117.4886364,
                "end_time": 117.6909091,
                "pitch": 55,
                "velocity": 51,
                "duration": 0.2022727,
                "tempo": 120.0
            },
            {
                "start_time": 117.6931818,
                "end_time": 117.8977273,
                "pitch": 60,
                "velocity": 51,
                "duration": 0.2045455,
                "tempo": 120.0
            },
            {
                "start_time": 117.9,
                "end_time": 118.0977273,
                "pitch": 64,
                "velocity": 51,
                "duration": 0.1977273,
                "tempo": 120.0
            },
            {
                "start_time": 118.1,
                "end_time": 118.3022727,
                "pitch": 67,
                "velocity": 51,
                "duration": 0.2022727,
                "tempo": 120.0
            },
            {
                "start_time": 118.3022727,
                "end_time": 118.5,
                "pitch": 55,
                "velocity": 51,
                "duration": 0.1977273,
                "tempo": 120.0
            },
            {
                "start_time": 118.5022727,
                "end_time": 118.7,
                "pitch": 60,
                "velocity": 51,
                "duration": 0.1977273,
                "tempo": 120.0
            },
            {
                "start_time": 118.7022727,
                "end_time": 118.9022727,
                "pitch": 64,
                "velocity": 51,
                "duration": 0.2,
                "tempo": 120.0
            },
            {
                "start_time": 118.9045455,
                "end_time": 119.1045455,
                "pitch": 67,
                "velocity": 51,
                "duration": 0.2,
                "tempo": 120.0
            },
            {
                "start_time": 119.1068182,
                "end_time": 119.3045455,
                "pitch": 52,
                "velocity": 51,
                "duration": 0.1977273,
                "tempo": 120.0
            },
            {
                "start_time": 119.3068182,
                "end_time": 119.5045455,
                "pitch": 57,
                "velocity": 51,
                "duration": 0.1977273,
                "tempo": 120.0
            },
            {
                "start_time": 119.5068182,
                "end_time": 119.7068182,
                "pitch": 60,
                "velocity": 51,
                "duration": 0.2,
                "tempo": 120.0
            },
            {
                "start_time": 119.7090909,
                "end_time": 119.9090909,
                "pitch": 64,
                "velocity": 51,
                "duration": 0.2,
                "tempo": 120.0
            },
            {
                "start_time": 119.9090909,
                "end_time": 120.1090909,
                "pitch": 52,
                "velocity": 51,
                "duration": 0.2,
                "tempo": 120.0
            },
            {
                "start_time": 120.1113636,
                "end_time": 120.3113636,
                "pitch": 57,
                "velocity": 51,
                "duration": 0.2,
                "tempo": 120.0
            },
            {
                "start_time": 120.3136364,
                "end_time": 120.5113636,
                "pitch": 60,
                "velocity": 51,
                "duration": 0.1977273,
                "tempo": 120.0
            },
            {
                "start_time": 120.5113636,
                "end_time": 120.7136364,
                "pitch": 64,
                "velocity": 51,
                "duration": 0.2022727,
                "tempo": 120.0
            },
            {
                "start_time": 120.7136364,
                "end_time": 120.9136364,
                "pitch": 52,
                "velocity": 51,
                "duration": 0.2,
                "tempo": 120.0
            },
            {
                "start_time": 120.9136364,
                "end_time": 121.1159091,
                "pitch": 57,
                "velocity": 51,
                "duration": 0.2022727,
                "tempo": 120.0
            },
            {
                "start_time": 121.1159091,
                "end_time": 121.3159091,
                "pitch": 60,
                "velocity": 51,
                "duration": 0.2,
                "tempo": 120.0
            },
            {
                "start_time": 121.3159091,
                "end_time": 121.5159091,
                "pitch": 64,
                "velocity": 51,
                "duration": 0.2,
                "tempo": 120.0
            },
            {
                "start_time": 121.5181818,
                "end_time": 121.7181818,
                "pitch": 52,
                "velocity": 51,
                "duration": 0.2,
                "tempo": 120.0
            },
            {
                "start_time": 121.7181818,
                "end_time": 121.9181818,
                "pitch": 57,
                "velocity": 51,
                "duration": 0.2,
                "tempo": 120.0
            },
            {
                "start_time": 121.9204545,
                "end_time": 122.1204545,
                "pitch": 60,
                "velocity": 51,
                "duration": 0.2,
                "tempo": 120.0
            },
            {
                "start_time": 122.1227273,
                "end_time": 122.3227273,
                "pitch": 64,
                "velocity": 51,
                "duration": 0.2,
                "tempo": 120.0
            },
            {
                "start_time": 122.3227273,
                "end_time": 122.5227273,
                "pitch": 53,
                "velocity": 51,
                "duration": 0.2,
                "tempo": 120.0
            },
            {
                "start_time": 122.5227273,
                "end_time": 122.7227273,
                "pitch": 57,
                "velocity": 51,
                "duration": 0.2,
                "tempo": 120.0
            },
            {
                "start_time": 122.7227273,
                "end_time": 122.925,
                "pitch": 62,
                "velocity": 51,
                "duration": 0.2022727,
                "tempo": 120.0
            },
            {
                "start_time": 122.925,
                "end_time": 123.125,
                "pitch": 65,
                "velocity": 51,
                "duration": 0.2,
                "tempo": 120.0
            },
            {
                "start_time": 123.1272727,
                "end_time": 123.325,
                "pitch": 53,
                "velocity": 51,
                "duration": 0.1977273,
                "tempo": 120.0
            },
            {
                "start_time": 123.3272727,
                "end_time": 123.5272727,
                "pitch": 57,
                "velocity": 51,
                "duration": 0.2,
                "tempo": 120.0
            },
            {
                "start_time": 123.5272727,
                "end_time": 123.7272727,
                "pitch": 62,
                "velocity": 51,
                "duration": 0.2,
                "tempo": 120.0
            },
            {
                "start_time": 123.7295455,
                "end_time": 123.9295455,
                "pitch": 65,
                "velocity": 51,
                "duration": 0.2,
                "tempo": 120.0
            },
            {
                "start_time": 123.9318182,
                "end_time": 124.1295455,
                "pitch": 53,
                "velocity": 51,
                "duration": 0.1977273,
                "tempo": 120.0
            },
            {
                "start_time": 124.1318182,
                "end_time": 124.3318182,
                "pitch": 57,
                "velocity": 51,
                "duration": 0.2,
                "tempo": 120.0
            },
            {
                "start_time": 124.3340909,
                "end_time": 124.5318182,
                "pitch": 62,
                "velocity": 51,
                "duration": 0.1977273,
                "tempo": 120.0
            },
            {
                "start_time": 124.5340909,
                "end_time": 124.7340909,
                "pitch": 65,
                "velocity": 51,
                "duration": 0.2,
                "tempo": 120.0
            },
            {
                "start_time": 124.7363636,
                "end_time": 124.9340909,
                "pitch": 53,
                "velocity": 51,
                "duration": 0.1977273,
                "tempo": 120.0
            },
            {
                "start_time": 124.9363636,
                "end_time": 125.1363636,
                "pitch": 57,
                "velocity": 51,
                "duration": 0.2,
                "tempo": 120.0
            },
            {
                "start_time": 125.1363636,
                "end_time": 125.3363636,
                "pitch": 62,
                "velocity": 51,
                "duration": 0.2,
                "tempo": 120.0
            },
            {
                "start_time": 125.3386364,
                "end_time": 125.5363636,
                "pitch": 65,
                "velocity": 51,
                "duration": 0.1977273,
                "tempo": 120.0
            },
            {
                "start_time": 125.5386364,
                "end_time": 125.7431818,
                "pitch": 67,
                "velocity": 80,
                "duration": 0.2045455,
                "tempo": 120.0
            },
            {
                "start_time": 125.7431818,
                "end_time": 125.9477273,
                "pitch": 67,
                "velocity": 80,
                "duration": 0.2045455,
                "tempo": 120.0
            },
            {
                "start_time": 125.9477273,
                "end_time": 126.1477273,
                "pitch": 67,
                "velocity": 80,
                "duration": 0.2,
                "tempo": 120.0
            },
            {
                "start_time": 126.1477273,
                "end_time": 126.3477273,
                "pitch": 67,
                "velocity": 80,
                "duration": 0.2,
                "tempo": 120.0
            },
            {
                "start_time": 126.3477273,
                "end_time": 126.55,
                "pitch": 67,
                "velocity": 80,
                "duration": 0.2022727,
                "tempo": 120.0
            },
            {
                "start_time": 126.55,
                "end_time": 126.7522727,
                "pitch": 67,
                "velocity": 80,
                "duration": 0.2022727,
                "tempo": 120.0
            },
            {
                "start_time": 126.7545455,
                "end_time": 126.9545455,
                "pitch": 67,
                "velocity": 80,
                "duration": 0.2,
                "tempo": 120.0
            },
            {
                "start_time": 126.9545455,
                "end_time": 127.35,
                "pitch": 71,
                "velocity": 80,
                "duration": 0.3954545,
                "tempo": 120.0
            },
            {
                "start_time": 127.35,
                "end_time": 127.5477273,
                "pitch": 71,
                "velocity": 80,
                "duration": 0.1977273,
                "tempo": 120.0
            },
            {
                "start_time": 127.5477273,
                "end_time": 127.7522727,
                "pitch": 71,
                "velocity": 80,
                "duration": 0.2045455,
                "tempo": 120.0
            },
            {
                "start_time": 127.7522727,
                "end_time": 127.9590909,
                "pitch": 71,
                "velocity": 80,
                "duration": 0.2068182,
                "tempo": 120.0
            },
            {
                "start_time": 127.9590909,
                "end_time": 128.1590909,
                "pitch": 71,
                "velocity": 80,
                "duration": 0.2,
                "tempo": 120.0
            },
            {
                "start_time": 128.1590909,
                "end_time": 128.3590909,
                "pitch": 71,
                "velocity": 80,
                "duration": 0.2,
                "tempo": 120.0
            },
            {
                "start_time": 128.3590909,
                "end_time": 128.7636364,
                "pitch": 71,
                "velocity": 80,
                "duration": 0.4045455,
                "tempo": 120.0
            },
            {
                "start_time": 128.7659091,
                "end_time": 128.9659091,
                "pitch": 69,
                "velocity": 80,
                "duration": 0.2,
                "tempo": 120.0
            },
            {
                "start_time": 128.9681818,
                "end_time": 129.1659091,
                "pitch": 69,
                "velocity": 80,
                "duration": 0.1977273,
                "tempo": 120.0
            },
            {
                "start_time": 129.1659091,
                "end_time": 129.3681818,
                "pitch": 69,
                "velocity": 80,
                "duration": 0.2022727,
                "tempo": 120.0
            },
            {
                "start_time": 129.3681818,
                "end_time": 129.5704545,
                "pitch": 69,
                "velocity": 80,
                "duration": 0.2022727,
                "tempo": 120.0
            },
            {
                "start_time": 129.5704545,
                "end_time": 129.7681818,
                "pitch": 69,
                "velocity": 80,
                "duration": 0.1977273,
                "tempo": 120.0
            },
            {
                "start_time": 129.7704545,
                "end_time": 129.9704545,
                "pitch": 69,
                "velocity": 80,
                "duration": 0.2,
                "tempo": 120.0
            },
            {
                "start_time": 129.9704545,
                "end_time": 130.1704545,
                "pitch": 69,
                "velocity": 80,
                "duration": 0.2,
                "tempo": 120.0
            },
            {
                "start_time": 130.1727273,
                "end_time": 130.375,
                "pitch": 69,
                "velocity": 80,
                "duration": 0.2022727,
                "tempo": 120.0
            },
            {
                "start_time": 130.375,
                "end_time": 130.5727273,
                "pitch": 69,
                "velocity": 80,
                "duration": 0.1977273,
                "tempo": 120.0
            },
            {
                "start_time": 130.575,
                "end_time": 130.775,
                "pitch": 69,
                "velocity": 80,
                "duration": 0.2,
                "tempo": 120.0
            },
            {
                "start_time": 130.7772727,
                "end_time": 130.9772727,
                "pitch": 69,
                "velocity": 80,
                "duration": 0.2,
                "tempo": 120.0
            },
            {
                "start_time": 130.9795455,
                "end_time": 131.1795455,
                "pitch": 69,
                "velocity": 80,
                "duration": 0.2,
                "tempo": 120.0
            },
            {
                "start_time": 131.1795455,
                "end_time": 131.3818182,
                "pitch": 69,
                "velocity": 80,
                "duration": 0.2022727,
                "tempo": 120.0
            },
            {
                "start_time": 131.3818182,
                "end_time": 131.5818182,
                "pitch": 69,
                "velocity": 80,
                "duration": 0.2,
                "tempo": 120.0
            },
            {
                "start_time": 131.5818182,
                "end_time": 131.7818182,
                "pitch": 69,
                "velocity": 80,
                "duration": 0.2,
                "tempo": 120.0
            },
            {
                "start_time": 131.7840909,
                "end_time": 131.9840909,
                "pitch": 69,
                "velocity": 80,
                "duration": 0.2,
                "tempo": 120.0
            },
            {
                "start_time": 131.9840909,
                "end_time": 132.1886364,
                "pitch": 67,
                "velocity": 80,
                "duration": 0.2045455,
                "tempo": 120.0
            },
            {
                "start_time": 132.1909091,
                "end_time": 132.3931818,
                "pitch": 67,
                "velocity": 80,
                "duration": 0.2022727,
                "tempo": 120.0
            },
            {
                "start_time": 132.3954545,
                "end_time": 132.5909091,
                "pitch": 67,
                "velocity": 80,
                "duration": 0.1954545,
                "tempo": 120.0
            },
            {
                "start_time": 132.5909091,
                "end_time": 132.7863636,
                "pitch": 67,
                "velocity": 80,
                "duration": 0.1954545,
                "tempo": 120.0
            },
            {
                "start_time": 132.7886364,
                "end_time": 132.9909091,
                "pitch": 67,
                "velocity": 80,
                "duration": 0.2022727,
                "tempo": 120.0
            },
            {
                "start_time": 132.9931818,
                "end_time": 133.1977273,
                "pitch": 67,
                "velocity": 80,
                "duration": 0.2045455,
                "tempo": 120.0
            },
            {
                "start_time": 133.2,
                "end_time": 133.4,
                "pitch": 67,
                "velocity": 80,
                "duration": 0.2,
                "tempo": 120.0
            },
            {
                "start_time": 133.4,
                "end_time": 133.6022727,
                "pitch": 67,
                "velocity": 80,
                "duration": 0.2022727,
                "tempo": 120.0
            },
            {
                "start_time": 133.6045455,
                "end_time": 133.8022727,
                "pitch": 67,
                "velocity": 80,
                "duration": 0.1977273,
                "tempo": 120.0
            },
            {
                "start_time": 133.8045455,
                "end_time": 134.0045455,
                "pitch": 67,
                "velocity": 80,
                "duration": 0.2,
                "tempo": 120.0
            },
            {
                "start_time": 134.0045455,
                "end_time": 134.2045455,
                "pitch": 67,
                "velocity": 80,
                "duration": 0.2,
                "tempo": 120.0
            },
            {
                "start_time": 134.2068182,
                "end_time": 134.4045455,
                "pitch": 67,
                "velocity": 80,
                "duration": 0.1977273,
                "tempo": 120.0
            },
            {
                "start_time": 134.4045455,
                "end_time": 134.6068182,
                "pitch": 67,
                "velocity": 80,
                "duration": 0.2022727,
                "tempo": 120.0
            },
            {
                "start_time": 134.6068182,
                "end_time": 134.8068182,
                "pitch": 67,
                "velocity": 80,
                "duration": 0.2,
                "tempo": 120.0
            },
            {
                "start_time": 134.8090909,
                "end_time": 135.0090909,
                "pitch": 67,
                "velocity": 80,
                "duration": 0.2,
                "tempo": 120.0
            },
            {
                "start_time": 135.0113636,
                "end_time": 135.2113636,
                "pitch": 67,
                "velocity": 80,
                "duration": 0.2,
                "tempo": 120.0
            },
            {
                "start_time": 135.2136364,
                "end_time": 135.4136364,
                "pitch": 65,
                "velocity": 80,
                "duration": 0.2,
                "tempo": 120.0
            },
            {
                "start_time": 135.4136364,
                "end_time": 135.6159091,
                "pitch": 65,
                "velocity": 80,
                "duration": 0.2022727,
                "tempo": 120.0
            },
            {
                "start_time": 135.6159091,
                "end_time": 135.8159091,
                "pitch": 65,
                "velocity": 80,
                "duration": 0.2,
                "tempo": 120.0
            },
            {
                "start_time": 135.8159091,
                "end_time": 136.0181818,
                "pitch": 65,
                "velocity": 80,
                "duration": 0.2022727,
                "tempo": 120.0
            },
            {
                "start_time": 136.0181818,
                "end_time": 136.2181818,
                "pitch": 65,
                "velocity": 80,
                "duration": 0.2,
                "tempo": 120.0
            },
            {
                "start_time": 136.2181818,
                "end_time": 136.4181818,
                "pitch": 65,
                "velocity": 80,
                "duration": 0.2,
                "tempo": 120.0
            },
            {
                "start_time": 136.4204545,
                "end_time": 136.6204545,
                "pitch": 65,
                "velocity": 80,
                "duration": 0.2,
                "tempo": 120.0
            },
            {
                "start_time": 136.6204545,
                "end_time": 136.8227273,
                "pitch": 65,
                "velocity": 80,
                "duration": 0.2022727,
                "tempo": 120.0
            },
            {
                "start_time": 136.8227273,
                "end_time": 137.0227273,
                "pitch": 65,
                "velocity": 80,
                "duration": 0.2,
                "tempo": 120.0
            },
            {
                "start_time": 137.0227273,
                "end_time": 137.225,
                "pitch": 65,
                "velocity": 80,
                "duration": 0.2022727,
                "tempo": 120.0
            },
            {
                "start_time": 137.225,
                "end_time": 137.4272727,
                "pitch": 65,
                "velocity": 80,
                "duration": 0.2022727,
                "tempo": 120.0
            },
            {
                "start_time": 137.4272727,
                "end_time": 137.6272727,
                "pitch": 65,
                "velocity": 80,
                "duration": 0.2,
                "tempo": 120.0
            },
            {
                "start_time": 137.6295455,
                "end_time": 137.8295455,
                "pitch": 65,
                "velocity": 80,
                "duration": 0.2,
                "tempo": 120.0
            },
            {
                "start_time": 137.8295455,
                "end_time": 138.0318182,
                "pitch": 65,
                "velocity": 80,
                "duration": 0.2022727,
                "tempo": 120.0
            },
            {
                "start_time": 138.0318182,
                "end_time": 138.2318182,
                "pitch": 65,
                "velocity": 80,
                "duration": 0.2,
                "tempo": 120.0
            },
            {
                "start_time": 138.2318182,
                "end_time": 138.4318182,
                "pitch": 65,
                "velocity": 80,
                "duration": 0.2,
                "tempo": 120.0
            },
            {
                "start_time": 138.4340909,
                "end_time": 138.6340909,
                "pitch": 62,
                "velocity": 80,
                "duration": 0.2,
                "tempo": 120.0
            },
            {
                "start_time": 138.6340909,
                "end_time": 138.8340909,
                "pitch": 62,
                "velocity": 80,
                "duration": 0.2,
                "tempo": 120.0
            },
            {
                "start_time": 138.8363636,
                "end_time": 139.0363636,
                "pitch": 62,
                "velocity": 80,
                "duration": 0.2,
                "tempo": 120.0
            },
            {
                "start_time": 139.0363636,
                "end_time": 139.2386364,
                "pitch": 62,
                "velocity": 80,
                "duration": 0.2022727,
                "tempo": 120.0
            },
            {
                "start_time": 139.2386364,
                "end_time": 139.4386364,
                "pitch": 62,
                "velocity": 80,
                "duration": 0.2,
                "tempo": 120.0
            },
            {
                "start_time": 139.4409091,
                "end_time": 139.6409091,
                "pitch": 62,
                "velocity": 80,
                "duration": 0.2,
                "tempo": 120.0
            },
            {
                "start_time": 139.6431818,
                "end_time": 139.8431818,
                "pitch": 62,
                "velocity": 80,
                "duration": 0.2,
                "tempo": 120.0
            },
            {
                "start_time": 139.8431818,
                "end_time": 140.0454545,
                "pitch": 62,
                "velocity": 80,
                "duration": 0.2022727,
                "tempo": 120.0
            },
            {
                "start_time": 140.0454545,
                "end_time": 140.25,
                "pitch": 62,
                "velocity": 80,
                "duration": 0.2045455,
                "tempo": 120.0
            },
            {
                "start_time": 140.2522727,
                "end_time": 140.4545455,
                "pitch": 62,
                "velocity": 80,
                "duration": 0.2022727,
                "tempo": 120.0
            },
            {
                "start_time": 140.4545455,
                "end_time": 140.65,
                "pitch": 62,
                "velocity": 80,
                "duration": 0.1954545,
                "tempo": 120.0
            },
            {
                "start_time": 140.6522727,
                "end_time": 140.8477273,
                "pitch": 62,
                "velocity": 80,
                "duration": 0.1954545,
                "tempo": 120.0
            },
            {
                "start_time": 140.8477273,
                "end_time": 141.0545455,
                "pitch": 62,
                "velocity": 80,
                "duration": 0.2068182,
                "tempo": 120.0
            },
            {
                "start_time": 141.0545455,
                "end_time": 141.2590909,
                "pitch": 62,
                "velocity": 80,
                "duration": 0.2045455,
                "tempo": 120.0
            },
            {
                "start_time": 141.2590909,
                "end_time": 141.4613636,
                "pitch": 62,
                "velocity": 80,
                "duration": 0.2022727,
                "tempo": 120.0
            },
            {
                "start_time": 141.4613636,
                "end_time": 141.6636364,
                "pitch": 62,
                "velocity": 80,
                "duration": 0.2022727,
                "tempo": 120.0
            },
            {
                "start_time": 141.6636364,
                "end_time": 141.8659091,
                "pitch": 69,
                "velocity": 80,
                "duration": 0.2022727,
                "tempo": 120.0
            },
            {
                "start_time": 141.8659091,
                "end_time": 142.0659091,
                "pitch": 69,
                "velocity": 80,
                "duration": 0.2,
                "tempo": 120.0
            },
            {
                "start_time": 142.0681818,
                "end_time": 142.2681818,
                "pitch": 69,
                "velocity": 80,
                "duration": 0.2,
                "tempo": 120.0
            },
            {
                "start_time": 142.2681818,
                "end_time": 142.4704545,
                "pitch": 69,
                "velocity": 80,
                "duration": 0.2022727,
                "tempo": 120.0
            },
            {
                "start_time": 142.4704545,
                "end_time": 142.6704545,
                "pitch": 69,
                "velocity": 80,
                "duration": 0.2,
                "tempo": 120.0
            },
            {
                "start_time": 142.6704545,
                "end_time": 142.8727273,
                "pitch": 69,
                "velocity": 80,
                "duration": 0.2022727,
                "tempo": 120.0
            },
            {
                "start_time": 142.8727273,
                "end_time": 143.0727273,
                "pitch": 69,
                "velocity": 80,
                "duration": 0.2,
                "tempo": 120.0
            },
            {
                "start_time": 143.0727273,
                "end_time": 143.275,
                "pitch": 69,
                "velocity": 80,
                "duration": 0.2022727,
                "tempo": 120.0
            },
            {
                "start_time": 143.275,
                "end_time": 143.4727273,
                "pitch": 69,
                "velocity": 80,
                "duration": 0.1977273,
                "tempo": 120.0
            },
            {
                "start_time": 143.475,
                "end_time": 143.675,
                "pitch": 69,
                "velocity": 80,
                "duration": 0.2,
                "tempo": 120.0
            },
            {
                "start_time": 143.6772727,
                "end_time": 143.8772727,
                "pitch": 69,
                "velocity": 80,
                "duration": 0.2,
                "tempo": 120.0
            },
            {
                "start_time": 143.8795455,
                "end_time": 144.0795455,
                "pitch": 69,
                "velocity": 80,
                "duration": 0.2,
                "tempo": 120.0
            },
            {
                "start_time": 144.0795455,
                "end_time": 144.2818182,
                "pitch": 69,
                "velocity": 80,
                "duration": 0.2022727,
                "tempo": 120.0
            },
            {
                "start_time": 144.2818182,
                "end_time": 144.4818182,
                "pitch": 69,
                "velocity": 80,
                "duration": 0.2,
                "tempo": 120.0
            },
            {
                "start_time": 144.4840909,
                "end_time": 144.6840909,
                "pitch": 69,
                "velocity": 80,
                "duration": 0.2,
                "tempo": 120.0
            },
            {
                "start_time": 144.6840909,
                "end_time": 144.8863636,
                "pitch": 69,
                "velocity": 80,
                "duration": 0.2022727,
                "tempo": 120.0
            },
            {
                "start_time": 144.8863636,
                "end_time": 145.0863636,
                "pitch": 67,
                "velocity": 80,
                "duration": 0.2,
                "tempo": 120.0
            },
            {
                "start_time": 145.0886364,
                "end_time": 145.2863636,
                "pitch": 67,
                "velocity": 80,
                "duration": 0.1977273,
                "tempo": 120.0
            },
            {
                "start_time": 145.2863636,
                "end_time": 145.4886364,
                "pitch": 67,
                "velocity": 80,
                "duration": 0.2022727,
                "tempo": 120.0
            },
            {
                "start_time": 145.4886364,
                "end_time": 145.6886364,
                "pitch": 67,
                "velocity": 80,
                "duration": 0.2,
                "tempo": 120.0
            },
            {
                "start_time": 145.6909091,
                "end_time": 145.8909091,
                "pitch": 67,
                "velocity": 80,
                "duration": 0.2,
                "tempo": 120.0
            },
            {
                "start_time": 145.8909091,
                "end_time": 146.0931818,
                "pitch": 67,
                "velocity": 80,
                "duration": 0.2022727,
                "tempo": 120.0
            },
            {
                "start_time": 146.0931818,
                "end_time": 146.2931818,
                "pitch": 67,
                "velocity": 80,
                "duration": 0.2,
                "tempo": 120.0
            },
            {
                "start_time": 146.2954545,
                "end_time": 146.4977273,
                "pitch": 67,
                "velocity": 80,
                "duration": 0.2022727,
                "tempo": 120.0
            },
            {
                "start_time": 146.4977273,
                "end_time": 146.6977273,
                "pitch": 67,
                "velocity": 80,
                "duration": 0.2,
                "tempo": 120.0
            },
            {
                "start_time": 146.6977273,
                "end_time": 146.8977273,
                "pitch": 67,
                "velocity": 80,
                "duration": 0.2,
                "tempo": 120.0
            },
            {
                "start_time": 146.9,
                "end_time": 147.1,
                "pitch": 67,
                "velocity": 80,
                "duration": 0.2,
                "tempo": 120.0
            },
            {
                "start_time": 147.1,
                "end_time": 147.3,
                "pitch": 67,
                "velocity": 80,
                "duration": 0.2,
                "tempo": 120.0
            },
            {
                "start_time": 147.3,
                "end_time": 147.5022727,
                "pitch": 67,
                "velocity": 80,
                "duration": 0.2022727,
                "tempo": 120.0
            },
            {
                "start_time": 147.5022727,
                "end_time": 147.7022727,
                "pitch": 67,
                "velocity": 80,
                "duration": 0.2,
                "tempo": 120.0
            },
            {
                "start_time": 147.7022727,
                "end_time": 147.9045455,
                "pitch": 67,
                "velocity": 80,
                "duration": 0.2022727,
                "tempo": 120.0
            },
            {
                "start_time": 147.9045455,
                "end_time": 148.1068182,
                "pitch": 67,
                "velocity": 80,
                "duration": 0.2022727,
                "tempo": 120.0
            },
            {
                "start_time": 148.1068182,
                "end_time": 148.3113636,
                "pitch": 65,
                "velocity": 80,
                "duration": 0.2045455,
                "tempo": 120.0
            },
            {
                "start_time": 148.3136364,
                "end_time": 148.5181818,
                "pitch": 65,
                "velocity": 80,
                "duration": 0.2045455,
                "tempo": 120.0
            },
            {
                "start_time": 148.5181818,
                "end_time": 148.7181818,
                "pitch": 65,
                "velocity": 80,
                "duration": 0.2,
                "tempo": 120.0
            },
            {
                "start_time": 148.7204545,
                "end_time": 148.9204545,
                "pitch": 65,
                "velocity": 80,
                "duration": 0.2,
                "tempo": 120.0
            },
            {
                "start_time": 148.9227273,
                "end_time": 149.1227273,
                "pitch": 65,
                "velocity": 80,
                "duration": 0.2,
                "tempo": 120.0
            },
            {
                "start_time": 149.1227273,
                "end_time": 149.325,
                "pitch": 65,
                "velocity": 80,
                "duration": 0.2022727,
                "tempo": 120.0
            },
            {
                "start_time": 149.325,
                "end_time": 149.525,
                "pitch": 65,
                "velocity": 80,
                "duration": 0.2,
                "tempo": 120.0
            },
            {
                "start_time": 149.525,
                "end_time": 149.7272727,
                "pitch": 65,
                "velocity": 80,
                "duration": 0.2022727,
                "tempo": 120.0
            },
            {
                "start_time": 149.7295455,
                "end_time": 149.9272727,
                "pitch": 65,
                "velocity": 80,
                "duration": 0.1977273,
                "tempo": 120.0
            },
            {
                "start_time": 149.9272727,
                "end_time": 150.1272727,
                "pitch": 65,
                "velocity": 80,
                "duration": 0.2,
                "tempo": 120.0
            },
            {
                "start_time": 150.1272727,
                "end_time": 150.3295455,
                "pitch": 65,
                "velocity": 80,
                "duration": 0.2022727,
                "tempo": 120.0
            },
            {
                "start_time": 150.3295455,
                "end_time": 150.5295455,
                "pitch": 65,
                "velocity": 80,
                "duration": 0.2,
                "tempo": 120.0
            },
            {
                "start_time": 150.5318182,
                "end_time": 150.7318182,
                "pitch": 65,
                "velocity": 80,
                "duration": 0.2,
                "tempo": 120.0
            },
            {
                "start_time": 150.7340909,
                "end_time": 150.9340909,
                "pitch": 65,
                "velocity": 80,
                "duration": 0.2,
                "tempo": 120.0
            },
            {
                "start_time": 150.9340909,
                "end_time": 151.1363636,
                "pitch": 65,
                "velocity": 80,
                "duration": 0.2022727,
                "tempo": 120.0
            },
            {
                "start_time": 151.1363636,
                "end_time": 151.3386364,
                "pitch": 65,
                "velocity": 80,
                "duration": 0.2022727,
                "tempo": 120.0
            },
            {
                "start_time": 151.3386364,
                "end_time": 151.5386364,
                "pitch": 62,
                "velocity": 80,
                "duration": 0.2,
                "tempo": 120.0
            },
            {
                "start_time": 151.5409091,
                "end_time": 151.7409091,
                "pitch": 62,
                "velocity": 80,
                "duration": 0.2,
                "tempo": 120.0
            },
            {
                "start_time": 151.7409091,
                "end_time": 151.9409091,
                "pitch": 62,
                "velocity": 80,
                "duration": 0.2,
                "tempo": 120.0
            },
            {
                "start_time": 151.9409091,
                "end_time": 152.1409091,
                "pitch": 62,
                "velocity": 80,
                "duration": 0.2,
                "tempo": 120.0
            },
            {
                "start_time": 152.1409091,
                "end_time": 152.3431818,
                "pitch": 62,
                "velocity": 80,
                "duration": 0.2022727,
                "tempo": 120.0
            },
            {
                "start_time": 152.3431818,
                "end_time": 152.5454545,
                "pitch": 62,
                "velocity": 80,
                "duration": 0.2022727,
                "tempo": 120.0
            },
            {
                "start_time": 152.5454545,
                "end_time": 152.7454545,
                "pitch": 62,
                "velocity": 80,
                "duration": 0.2,
                "tempo": 120.0
            },
            {
                "start_time": 152.7477273,
                "end_time": 152.9477273,
                "pitch": 62,
                "velocity": 80,
                "duration": 0.2,
                "tempo": 120.0
            },
            {
                "start_time": 152.9477273,
                "end_time": 153.15,
                "pitch": 64,
                "velocity": 80,
                "duration": 0.2022727,
                "tempo": 120.0
            },
            {
                "start_time": 153.15,
                "end_time": 153.5522727,
                "pitch": 69,
                "velocity": 80,
                "duration": 0.4022727,
                "tempo": 120.0
            },
            {
                "start_time": 153.5522727,
                "end_time": 153.9522727,
                "pitch": 64,
                "velocity": 80,
                "duration": 0.4,
                "tempo": 120.0
            },
            {
                "start_time": 153.9545455,
                "end_time": 154.3545455,
                "pitch": 60,
                "velocity": 80,
                "duration": 0.4,
                "tempo": 120.0
            },
            {
                "start_time": 154.3568182,
                "end_time": 154.5590909,
                "pitch": 57,
                "velocity": 80,
                "duration": 0.2022727,
                "tempo": 120.0
            },
            {
                "start_time": 154.5613636,
                "end_time": 155.7681818,
                "pitch": 62,
                "velocity": 64,
                "duration": 1.2068182,
                "tempo": 120.0
            },
            {
                "start_time": 155.7704545,
                "end_time": 156.1704545,
                "pitch": 62,
                "velocity": 64,
                "duration": 0.4,
                "tempo": 120.0
            },
            {
                "start_time": 156.1704545,
                "end_time": 156.375,
                "pitch": 70,
                "velocity": 64,
                "duration": 0.2045455,
                "tempo": 120.0
            },
            {
                "start_time": 156.375,
                "end_time": 156.7772727,
                "pitch": 69,
                "velocity": 64,
                "duration": 0.4022727,
                "tempo": 120.0
            },
            {
                "start_time": 156.7772727,
                "end_time": 157.3772727,
                "pitch": 67,
                "velocity": 64,
                "duration": 0.6,
                "tempo": 120.0
            },
            {
                "start_time": 157.3772727,
                "end_time": 157.7886364,
                "pitch": 63,
                "velocity": 64,
                "duration": 0.4113636,
                "tempo": 120.0
            },
            {
                "start_time": 157.7886364,
                "end_time": 158.5931818,
                "pitch": 67,
                "velocity": 64,
                "duration": 0.8045455,
                "tempo": 120.0
            },
            {
                "start_time": 158.5931818,
                "end_time": 161.0113636,
                "pitch": 65,
                "velocity": 64,
                "duration": 2.4181818,
                "tempo": 120.0
            },
            {
                "start_time": 161.0113636,
                "end_time": 162.6181818,
                "pitch": 62,
                "velocity": 64,
                "duration": 1.6068182,
                "tempo": 120.0
            },
            {
                "start_time": 162.6204545,
                "end_time": 162.8204545,
                "pitch": 70,
                "velocity": 64,
                "duration": 0.2,
                "tempo": 120.0
            },
            {
                "start_time": 162.8204545,
                "end_time": 163.225,
                "pitch": 69,
                "velocity": 64,
                "duration": 0.4045455,
                "tempo": 120.0
            },
            {
                "start_time": 163.225,
                "end_time": 163.8272727,
                "pitch": 67,
                "velocity": 64,
                "duration": 0.6022727,
                "tempo": 120.0
            },
            {
                "start_time": 163.8295455,
                "end_time": 164.2409091,
                "pitch": 77,
                "velocity": 64,
                "duration": 0.4113636,
                "tempo": 120.0
            },
            {
                "start_time": 164.2431818,
                "end_time": 167.4590909,
                "pitch": 79,
                "velocity": 64,
                "duration": 3.2159091,
                "tempo": 120.0
            },
            {
                "start_time": 167.4613636,
                "end_time": 168.6659091,
                "pitch": 57,
                "velocity": 64,
                "duration": 1.2045455,
                "tempo": 120.0
            },
            {
                "start_time": 168.6659091,
                "end_time": 169.0681818,
                "pitch": 57,
                "velocity": 64,
                "duration": 0.4022727,
                "tempo": 120.0
            },
            {
                "start_time": 169.0704545,
                "end_time": 169.6704545,
                "pitch": 55,
                "velocity": 64,
                "duration": 0.6,
                "tempo": 120.0
            },
            {
                "start_time": 169.6727273,
                "end_time": 170.275,
                "pitch": 53,
                "velocity": 64,
                "duration": 0.6022727,
                "tempo": 120.0
            },
            {
                "start_time": 170.2772727,
                "end_time": 170.6795455,
                "pitch": 55,
                "velocity": 64,
                "duration": 0.4022727,
                "tempo": 120.0
            },
            {
                "start_time": 170.6795455,
                "end_time": 171.2818182,
                "pitch": 57,
                "velocity": 64,
                "duration": 0.6022727,
                "tempo": 120.0
            },
            {
                "start_time": 171.2818182,
                "end_time": 171.8863636,
                "pitch": 55,
                "velocity": 64,
                "duration": 0.6045455,
                "tempo": 120.0
            },
            {
                "start_time": 171.8863636,
                "end_time": 172.0909091,
                "pitch": 57,
                "velocity": 64,
                "duration": 0.2045455,
                "tempo": 120.0
            },
            {
                "start_time": 172.0909091,
                "end_time": 172.6886364,
                "pitch": 67,
                "velocity": 64,
                "duration": 0.5977273,
                "tempo": 120.0
            },
            {
                "start_time": 172.6886364,
                "end_time": 173.1,
                "pitch": 65,
                "velocity": 64,
                "duration": 0.4113636,
                "tempo": 120.0
            },
            {
                "start_time": 173.1,
                "end_time": 173.5045455,
                "pitch": 64,
                "velocity": 64,
                "duration": 0.4045455,
                "tempo": 120.0
            },
            {
                "start_time": 173.5045455,
                "end_time": 173.9045455,
                "pitch": 62,
                "velocity": 64,
                "duration": 0.4,
                "tempo": 120.0
            },
            {
                "start_time": 173.9045455,
                "end_time": 175.1136364,
                "pitch": 57,
                "velocity": 64,
                "duration": 1.2090909,
                "tempo": 120.0
            },
            {
                "start_time": 175.1159091,
                "end_time": 175.5181818,
                "pitch": 57,
                "velocity": 64,
                "duration": 0.4022727,
                "tempo": 120.0
            },
            {
                "start_time": 175.5181818,
                "end_time": 176.3204545,
                "pitch": 55,
                "velocity": 64,
                "duration": 0.8022727,
                "tempo": 120.0
            },
            {
                "start_time": 176.3204545,
                "end_time": 177.1272727,
                "pitch": 53,
                "velocity": 64,
                "duration": 0.8068182,
                "tempo": 120.0
            },
            {
                "start_time": 177.1295455,
                "end_time": 177.7318182,
                "pitch": 57,
                "velocity": 64,
                "duration": 0.6022727,
                "tempo": 120.0
            },
            {
                "start_time": 177.7318182,
                "end_time": 178.7386364,
                "pitch": 57,
                "velocity": 64,
                "duration": 1.0068182,
                "tempo": 120.0
            },
            {
                "start_time": 178.7386364,
                "end_time": 178.9386364,
                "pitch": 57,
                "velocity": 64,
                "duration": 0.2,
                "tempo": 120.0
            },
            {
                "start_time": 178.9409091,
                "end_time": 179.3409091,
                "pitch": 81,
                "velocity": 64,
                "duration": 0.4,
                "tempo": 120.0
            },
            {
                "start_time": 179.3431818,
                "end_time": 179.7431818,
                "pitch": 69,
                "velocity": 64,
                "duration": 0.4,
                "tempo": 120.0
            }
        ],
        "Acoustic Bass": [
            {
                "start_time": 12.8977273,
                "end_time": 16.1204545,
                "pitch": 40,
                "velocity": 80,
                "duration": 3.2227273,
                "tempo": 120.0
            },
            {
                "start_time": 16.1204545,
                "end_time": 16.9227273,
                "pitch": 45,
                "velocity": 80,
                "duration": 0.8022727,
                "tempo": 120.0
            },
            {
                "start_time": 16.9227273,
                "end_time": 19.3431818,
                "pitch": 43,
                "velocity": 80,
                "duration": 2.4204545,
                "tempo": 120.0
            },
            {
                "start_time": 19.3431818,
                "end_time": 22.1545455,
                "pitch": 40,
                "velocity": 80,
                "duration": 2.8113636,
                "tempo": 120.0
            },
            {
                "start_time": 22.1545455,
                "end_time": 22.5545455,
                "pitch": 43,
                "velocity": 80,
                "duration": 0.4,
                "tempo": 120.0
            },
            {
                "start_time": 22.5568182,
                "end_time": 25.7727273,
                "pitch": 45,
                "velocity": 80,
                "duration": 3.2159091,
                "tempo": 120.0
            },
            {
                "start_time": 25.775,
                "end_time": 25.9727273,
                "pitch": 33,
                "velocity": 80,
                "duration": 0.1977273,
                "tempo": 120.0
            },
            {
                "start_time": 25.9727273,
                "end_time": 26.1727273,
                "pitch": 33,
                "velocity": 80,
                "duration": 0.2,
                "tempo": 120.0
            },
            {
                "start_time": 26.175,
                "end_time": 26.3795455,
                "pitch": 33,
                "velocity": 80,
                "duration": 0.2045455,
                "tempo": 120.0
            },
            {
                "start_time": 26.3795455,
                "end_time": 26.5863636,
                "pitch": 33,
                "velocity": 80,
                "duration": 0.2068182,
                "tempo": 120.0
            },
            {
                "start_time": 26.5863636,
                "end_time": 26.7840909,
                "pitch": 33,
                "velocity": 80,
                "duration": 0.1977273,
                "tempo": 120.0
            },
            {
                "start_time": 26.7863636,
                "end_time": 26.9863636,
                "pitch": 33,
                "velocity": 80,
                "duration": 0.2,
                "tempo": 120.0
            },
            {
                "start_time": 26.9863636,
                "end_time": 27.1886364,
                "pitch": 33,
                "velocity": 80,
                "duration": 0.2022727,
                "tempo": 120.0
            },
            {
                "start_time": 27.1886364,
                "end_time": 27.3886364,
                "pitch": 33,
                "velocity": 80,
                "duration": 0.2,
                "tempo": 120.0
            },
            {
                "start_time": 27.3909091,
                "end_time": 27.5886364,
                "pitch": 33,
                "velocity": 80,
                "duration": 0.1977273,
                "tempo": 120.0
            },
            {
                "start_time": 27.5886364,
                "end_time": 27.7886364,
                "pitch": 33,
                "velocity": 80,
                "duration": 0.2,
                "tempo": 120.0
            },
            {
                "start_time": 27.7909091,
                "end_time": 27.9909091,
                "pitch": 33,
                "velocity": 80,
                "duration": 0.2,
                "tempo": 120.0
            },
            {
                "start_time": 27.9909091,
                "end_time": 28.1909091,
                "pitch": 33,
                "velocity": 80,
                "duration": 0.2,
                "tempo": 120.0
            },
            {
                "start_time": 28.1909091,
                "end_time": 28.3931818,
                "pitch": 33,
                "velocity": 80,
                "duration": 0.2022727,
                "tempo": 120.0
            },
            {
                "start_time": 28.3931818,
                "end_time": 28.5931818,
                "pitch": 33,
                "velocity": 80,
                "duration": 0.2,
                "tempo": 120.0
            },
            {
                "start_time": 28.5954545,
                "end_time": 28.7954545,
                "pitch": 33,
                "velocity": 80,
                "duration": 0.2,
                "tempo": 120.0
            },
            {
                "start_time": 28.7954545,
                "end_time": 28.9954545,
                "pitch": 33,
                "velocity": 80,
                "duration": 0.2,
                "tempo": 120.0
            },
            {
                "start_time": 28.9954545,
                "end_time": 29.1954545,
                "pitch": 33,
                "velocity": 80,
                "duration": 0.2,
                "tempo": 120.0
            },
            {
                "start_time": 29.1977273,
                "end_time": 29.3954545,
                "pitch": 33,
                "velocity": 80,
                "duration": 0.1977273,
                "tempo": 120.0
            },
            {
                "start_time": 29.3977273,
                "end_time": 29.5977273,
                "pitch": 33,
                "velocity": 80,
                "duration": 0.2,
                "tempo": 120.0
            },
            {
                "start_time": 29.5977273,
                "end_time": 29.7977273,
                "pitch": 33,
                "velocity": 80,
                "duration": 0.2,
                "tempo": 120.0
            },
            {
                "start_time": 29.7977273,
                "end_time": 29.9977273,
                "pitch": 33,
                "velocity": 80,
                "duration": 0.2,
                "tempo": 120.0
            },
            {
                "start_time": 29.9977273,
                "end_time": 30.2,
                "pitch": 33,
                "velocity": 80,
                "duration": 0.2022727,
                "tempo": 120.0
            },
            {
                "start_time": 30.2,
                "end_time": 30.4,
                "pitch": 33,
                "velocity": 80,
                "duration": 0.2,
                "tempo": 120.0
            },
            {
                "start_time": 30.4,
                "end_time": 30.6,
                "pitch": 33,
                "velocity": 80,
                "duration": 0.2,
                "tempo": 120.0
            },
            {
                "start_time": 30.6022727,
                "end_time": 30.8,
                "pitch": 33,
                "velocity": 80,
                "duration": 0.1977273,
                "tempo": 120.0
            },
            {
                "start_time": 30.8022727,
                "end_time": 31.0,
                "pitch": 33,
                "velocity": 80,
                "duration": 0.1977273,
                "tempo": 120.0
            },
            {
                "start_time": 31.0022727,
                "end_time": 31.2022727,
                "pitch": 33,
                "velocity": 80,
                "duration": 0.2,
                "tempo": 120.0
            },
            {
                "start_time": 31.2045455,
                "end_time": 31.4045455,
                "pitch": 33,
                "velocity": 80,
                "duration": 0.2,
                "tempo": 120.0
            },
            {
                "start_time": 31.4045455,
                "end_time": 31.6113636,
                "pitch": 33,
                "velocity": 80,
                "duration": 0.2068182,
                "tempo": 120.0
            },
            {
                "start_time": 31.6113636,
                "end_time": 31.8181818,
                "pitch": 33,
                "velocity": 80,
                "duration": 0.2068182,
                "tempo": 120.0
            },
            {
                "start_time": 31.8181818,
                "end_time": 32.0181818,
                "pitch": 33,
                "velocity": 80,
                "duration": 0.2,
                "tempo": 120.0
            },
            {
                "start_time": 32.0181818,
                "end_time": 32.2181818,
                "pitch": 33,
                "velocity": 80,
                "duration": 0.2,
                "tempo": 120.0
            },
            {
                "start_time": 32.2204545,
                "end_time": 32.4181818,
                "pitch": 33,
                "velocity": 80,
                "duration": 0.1977273,
                "tempo": 120.0
            },
            {
                "start_time": 32.4204545,
                "end_time": 32.6204545,
                "pitch": 33,
                "velocity": 80,
                "duration": 0.2,
                "tempo": 120.0
            },
            {
                "start_time": 32.6204545,
                "end_time": 32.8204545,
                "pitch": 33,
                "velocity": 80,
                "duration": 0.2,
                "tempo": 120.0
            },
            {
                "start_time": 32.8204545,
                "end_time": 33.0204545,
                "pitch": 33,
                "velocity": 80,
                "duration": 0.2,
                "tempo": 120.0
            },
            {
                "start_time": 33.0227273,
                "end_time": 33.2159091,
                "pitch": 33,
                "velocity": 80,
                "duration": 0.1931818,
                "tempo": 120.0
            },
            {
                "start_time": 33.2159091,
                "end_time": 33.4136364,
                "pitch": 33,
                "velocity": 80,
                "duration": 0.1977273,
                "tempo": 120.0
            },
            {
                "start_time": 33.4136364,
                "end_time": 33.6204545,
                "pitch": 33,
                "velocity": 80,
                "duration": 0.2068182,
                "tempo": 120.0
            },
            {
                "start_time": 33.6204545,
                "end_time": 33.825,
                "pitch": 33,
                "velocity": 80,
                "duration": 0.2045455,
                "tempo": 120.0
            },
            {
                "start_time": 33.825,
                "end_time": 34.025,
                "pitch": 33,
                "velocity": 80,
                "duration": 0.2,
                "tempo": 120.0
            },
            {
                "start_time": 34.025,
                "end_time": 34.225,
                "pitch": 33,
                "velocity": 80,
                "duration": 0.2,
                "tempo": 120.0
            },
            {
                "start_time": 34.225,
                "end_time": 34.4272727,
                "pitch": 33,
                "velocity": 80,
                "duration": 0.2022727,
                "tempo": 120.0
            },
            {
                "start_time": 34.4272727,
                "end_time": 34.6272727,
                "pitch": 33,
                "velocity": 80,
                "duration": 0.2,
                "tempo": 120.0
            },
            {
                "start_time": 34.6295455,
                "end_time": 34.8295455,
                "pitch": 33,
                "velocity": 80,
                "duration": 0.2,
                "tempo": 120.0
            },
            {
                "start_time": 34.8295455,
                "end_time": 35.0295455,
                "pitch": 33,
                "velocity": 80,
                "duration": 0.2,
                "tempo": 120.0
            },
            {
                "start_time": 35.0295455,
                "end_time": 35.2295455,
                "pitch": 33,
                "velocity": 80,
                "duration": 0.2,
                "tempo": 120.0
            },
            {
                "start_time": 35.2318182,
                "end_time": 35.4318182,
                "pitch": 33,
                "velocity": 80,
                "duration": 0.2,
                "tempo": 120.0
            },
            {
                "start_time": 35.4318182,
                "end_time": 35.6295455,
                "pitch": 33,
                "velocity": 80,
                "duration": 0.1977273,
                "tempo": 120.0
            },
            {
                "start_time": 35.6318182,
                "end_time": 35.8295455,
                "pitch": 33,
                "velocity": 80,
                "duration": 0.1977273,
                "tempo": 120.0
            },
            {
                "start_time": 35.8295455,
                "end_time": 36.0318182,
                "pitch": 33,
                "velocity": 80,
                "duration": 0.2022727,
                "tempo": 120.0
            },
            {
                "start_time": 36.0318182,
                "end_time": 36.2318182,
                "pitch": 33,
                "velocity": 80,
                "duration": 0.2,
                "tempo": 120.0
            },
            {
                "start_time": 36.2318182,
                "end_time": 36.4318182,
                "pitch": 33,
                "velocity": 80,
                "duration": 0.2,
                "tempo": 120.0
            },
            {
                "start_time": 36.4318182,
                "end_time": 36.6340909,
                "pitch": 33,
                "velocity": 80,
                "duration": 0.2022727,
                "tempo": 120.0
            },
            {
                "start_time": 36.6340909,
                "end_time": 36.8340909,
                "pitch": 33,
                "velocity": 80,
                "duration": 0.2,
                "tempo": 120.0
            },
            {
                "start_time": 36.8340909,
                "end_time": 37.0340909,
                "pitch": 33,
                "velocity": 80,
                "duration": 0.2,
                "tempo": 120.0
            },
            {
                "start_time": 37.0363636,
                "end_time": 37.2340909,
                "pitch": 33,
                "velocity": 80,
                "duration": 0.1977273,
                "tempo": 120.0
            },
            {
                "start_time": 37.2340909,
                "end_time": 37.4340909,
                "pitch": 33,
                "velocity": 80,
                "duration": 0.2,
                "tempo": 120.0
            },
            {
                "start_time": 37.4340909,
                "end_time": 37.6340909,
                "pitch": 33,
                "velocity": 80,
                "duration": 0.2,
                "tempo": 120.0
            },
            {
                "start_time": 37.6340909,
                "end_time": 37.8340909,
                "pitch": 33,
                "velocity": 80,
                "duration": 0.2,
                "tempo": 120.0
            },
            {
                "start_time": 37.8363636,
                "end_time": 38.0340909,
                "pitch": 33,
                "velocity": 80,
                "duration": 0.1977273,
                "tempo": 120.0
            },
            {
                "start_time": 38.0363636,
                "end_time": 38.2340909,
                "pitch": 33,
                "velocity": 80,
                "duration": 0.1977273,
                "tempo": 120.0
            },
            {
                "start_time": 38.2363636,
                "end_time": 38.4363636,
                "pitch": 33,
                "velocity": 80,
                "duration": 0.2,
                "tempo": 120.0
            },
            {
                "start_time": 38.4363636,
                "end_time": 38.6386364,
                "pitch": 33,
                "velocity": 80,
                "duration": 0.2022727,
                "tempo": 120.0
            },
            {
                "start_time": 38.6409091,
                "end_time": 38.8409091,
                "pitch": 33,
                "velocity": 80,
                "duration": 0.2,
                "tempo": 120.0
            },
            {
                "start_time": 38.8409091,
                "end_time": 39.0386364,
                "pitch": 33,
                "velocity": 80,
                "duration": 0.1977273,
                "tempo": 120.0
            },
            {
                "start_time": 39.0386364,
                "end_time": 39.2386364,
                "pitch": 33,
                "velocity": 80,
                "duration": 0.2,
                "tempo": 120.0
            },
            {
                "start_time": 39.2409091,
                "end_time": 39.4409091,
                "pitch": 33,
                "velocity": 80,
                "duration": 0.2,
                "tempo": 120.0
            },
            {
                "start_time": 39.4409091,
                "end_time": 39.6386364,
                "pitch": 33,
                "velocity": 80,
                "duration": 0.1977273,
                "tempo": 120.0
            },
            {
                "start_time": 39.6409091,
                "end_time": 39.8409091,
                "pitch": 33,
                "velocity": 80,
                "duration": 0.2,
                "tempo": 120.0
            },
            {
                "start_time": 39.8409091,
                "end_time": 40.0409091,
                "pitch": 33,
                "velocity": 80,
                "duration": 0.2,
                "tempo": 120.0
            },
            {
                "start_time": 40.0409091,
                "end_time": 40.2409091,
                "pitch": 33,
                "velocity": 80,
                "duration": 0.2,
                "tempo": 120.0
            },
            {
                "start_time": 40.2409091,
                "end_time": 40.4409091,
                "pitch": 33,
                "velocity": 80,
                "duration": 0.2,
                "tempo": 120.0
            },
            {
                "start_time": 40.4431818,
                "end_time": 40.6431818,
                "pitch": 33,
                "velocity": 80,
                "duration": 0.2,
                "tempo": 120.0
            },
            {
                "start_time": 40.6454545,
                "end_time": 40.85,
                "pitch": 33,
                "velocity": 80,
                "duration": 0.2045455,
                "tempo": 120.0
            },
            {
                "start_time": 40.85,
                "end_time": 41.0545455,
                "pitch": 33,
                "velocity": 80,
                "duration": 0.2045455,
                "tempo": 120.0
            },
            {
                "start_time": 41.0568182,
                "end_time": 41.2568182,
                "pitch": 33,
                "velocity": 80,
                "duration": 0.2,
                "tempo": 120.0
            },
            {
                "start_time": 41.2568182,
                "end_time": 41.4568182,
                "pitch": 33,
                "velocity": 80,
                "duration": 0.2,
                "tempo": 120.0
            },
            {
                "start_time": 41.4590909,
                "end_time": 41.6590909,
                "pitch": 33,
                "velocity": 80,
                "duration": 0.2,
                "tempo": 120.0
            },
            {
                "start_time": 41.6590909,
                "end_time": 41.8613636,
                "pitch": 33,
                "velocity": 80,
                "duration": 0.2022727,
                "tempo": 120.0
            },
            {
                "start_time": 41.8613636,
                "end_time": 42.0590909,
                "pitch": 33,
                "velocity": 80,
                "duration": 0.1977273,
                "tempo": 120.0
            },
            {
                "start_time": 42.0613636,
                "end_time": 42.2590909,
                "pitch": 33,
                "velocity": 80,
                "duration": 0.1977273,
                "tempo": 120.0
            },
            {
                "start_time": 42.2590909,
                "end_time": 42.4590909,
                "pitch": 33,
                "velocity": 80,
                "duration": 0.2,
                "tempo": 120.0
            },
            {
                "start_time": 42.4613636,
                "end_time": 42.6613636,
                "pitch": 33,
                "velocity": 80,
                "duration": 0.2,
                "tempo": 120.0
            },
            {
                "start_time": 42.6613636,
                "end_time": 42.8613636,
                "pitch": 33,
                "velocity": 80,
                "duration": 0.2,
                "tempo": 120.0
            },
            {
                "start_time": 42.8613636,
                "end_time": 43.0613636,
                "pitch": 33,
                "velocity": 80,
                "duration": 0.2,
                "tempo": 120.0
            },
            {
                "start_time": 43.0636364,
                "end_time": 43.2613636,
                "pitch": 33,
                "velocity": 80,
                "duration": 0.1977273,
                "tempo": 120.0
            },
            {
                "start_time": 43.2613636,
                "end_time": 43.4613636,
                "pitch": 33,
                "velocity": 80,
                "duration": 0.2,
                "tempo": 120.0
            },
            {
                "start_time": 43.4636364,
                "end_time": 43.6613636,
                "pitch": 33,
                "velocity": 80,
                "duration": 0.1977273,
                "tempo": 120.0
            },
            {
                "start_time": 43.6636364,
                "end_time": 43.8636364,
                "pitch": 33,
                "velocity": 80,
                "duration": 0.2,
                "tempo": 120.0
            },
            {
                "start_time": 43.8659091,
                "end_time": 44.0636364,
                "pitch": 33,
                "velocity": 80,
                "duration": 0.1977273,
                "tempo": 120.0
            },
            {
                "start_time": 44.0659091,
                "end_time": 44.2636364,
                "pitch": 33,
                "velocity": 80,
                "duration": 0.1977273,
                "tempo": 120.0
            },
            {
                "start_time": 44.2659091,
                "end_time": 44.4659091,
                "pitch": 33,
                "velocity": 80,
                "duration": 0.2,
                "tempo": 120.0
            },
            {
                "start_time": 44.4659091,
                "end_time": 44.6659091,
                "pitch": 33,
                "velocity": 80,
                "duration": 0.2,
                "tempo": 120.0
            },
            {
                "start_time": 44.6681818,
                "end_time": 44.8681818,
                "pitch": 33,
                "velocity": 80,
                "duration": 0.2,
                "tempo": 120.0
            },
            {
                "start_time": 44.8681818,
                "end_time": 45.0681818,
                "pitch": 33,
                "velocity": 80,
                "duration": 0.2,
                "tempo": 120.0
            },
            {
                "start_time": 45.0681818,
                "end_time": 45.2659091,
                "pitch": 33,
                "velocity": 80,
                "duration": 0.1977273,
                "tempo": 120.0
            },
            {
                "start_time": 45.2681818,
                "end_time": 45.4659091,
                "pitch": 33,
                "velocity": 80,
                "duration": 0.1977273,
                "tempo": 120.0
            },
            {
                "start_time": 45.4681818,
                "end_time": 45.6681818,
                "pitch": 33,
                "velocity": 80,
                "duration": 0.2,
                "tempo": 120.0
            },
            {
                "start_time": 45.6704545,
                "end_time": 45.8704545,
                "pitch": 33,
                "velocity": 80,
                "duration": 0.2,
                "tempo": 120.0
            },
            {
                "start_time": 45.8704545,
                "end_time": 46.0704545,
                "pitch": 33,
                "velocity": 80,
                "duration": 0.2,
                "tempo": 120.0
            },
            {
                "start_time": 46.0704545,
                "end_time": 46.2704545,
                "pitch": 33,
                "velocity": 80,
                "duration": 0.2,
                "tempo": 120.0
            },
            {
                "start_time": 46.2727273,
                "end_time": 46.4704545,
                "pitch": 33,
                "velocity": 80,
                "duration": 0.1977273,
                "tempo": 120.0
            },
            {
                "start_time": 46.4727273,
                "end_time": 46.6727273,
                "pitch": 33,
                "velocity": 80,
                "duration": 0.2,
                "tempo": 120.0
            },
            {
                "start_time": 46.6727273,
                "end_time": 46.8772727,
                "pitch": 33,
                "velocity": 80,
                "duration": 0.2045455,
                "tempo": 120.0
            },
            {
                "start_time": 46.8772727,
                "end_time": 47.0840909,
                "pitch": 33,
                "velocity": 80,
                "duration": 0.2068182,
                "tempo": 120.0
            },
            {
                "start_time": 47.0840909,
                "end_time": 47.2840909,
                "pitch": 33,
                "velocity": 80,
                "duration": 0.2,
                "tempo": 120.0
            },
            {
                "start_time": 47.2863636,
                "end_time": 47.4863636,
                "pitch": 33,
                "velocity": 80,
                "duration": 0.2,
                "tempo": 120.0
            },
            {
                "start_time": 47.4863636,
                "end_time": 47.6818182,
                "pitch": 33,
                "velocity": 80,
                "duration": 0.1954545,
                "tempo": 120.0
            },
            {
                "start_time": 47.6840909,
                "end_time": 47.8795455,
                "pitch": 33,
                "velocity": 80,
                "duration": 0.1954545,
                "tempo": 120.0
            },
            {
                "start_time": 47.8795455,
                "end_time": 48.0795455,
                "pitch": 33,
                "velocity": 80,
                "duration": 0.2,
                "tempo": 120.0
            },
            {
                "start_time": 48.0795455,
                "end_time": 48.2795455,
                "pitch": 33,
                "velocity": 80,
                "duration": 0.2,
                "tempo": 120.0
            },
            {
                "start_time": 48.2818182,
                "end_time": 48.4840909,
                "pitch": 33,
                "velocity": 80,
                "duration": 0.2022727,
                "tempo": 120.0
            },
            {
                "start_time": 48.4840909,
                "end_time": 48.6886364,
                "pitch": 33,
                "velocity": 80,
                "duration": 0.2045455,
                "tempo": 120.0
            },
            {
                "start_time": 48.6909091,
                "end_time": 48.8909091,
                "pitch": 33,
                "velocity": 80,
                "duration": 0.2,
                "tempo": 120.0
            },
            {
                "start_time": 48.8909091,
                "end_time": 49.0909091,
                "pitch": 33,
                "velocity": 80,
                "duration": 0.2,
                "tempo": 120.0
            },
            {
                "start_time": 49.0909091,
                "end_time": 49.2909091,
                "pitch": 33,
                "velocity": 80,
                "duration": 0.2,
                "tempo": 120.0
            },
            {
                "start_time": 49.2931818,
                "end_time": 49.4931818,
                "pitch": 33,
                "velocity": 80,
                "duration": 0.2,
                "tempo": 120.0
            },
            {
                "start_time": 49.4931818,
                "end_time": 49.6931818,
                "pitch": 33,
                "velocity": 80,
                "duration": 0.2,
                "tempo": 120.0
            },
            {
                "start_time": 49.6954545,
                "end_time": 49.8954545,
                "pitch": 33,
                "velocity": 80,
                "duration": 0.2,
                "tempo": 120.0
            },
            {
                "start_time": 49.8954545,
                "end_time": 50.0931818,
                "pitch": 33,
                "velocity": 80,
                "duration": 0.1977273,
                "tempo": 120.0
            },
            {
                "start_time": 50.0954545,
                "end_time": 50.2931818,
                "pitch": 33,
                "velocity": 80,
                "duration": 0.1977273,
                "tempo": 120.0
            },
            {
                "start_time": 50.2954545,
                "end_time": 50.4931818,
                "pitch": 33,
                "velocity": 80,
                "duration": 0.1977273,
                "tempo": 120.0
            },
            {
                "start_time": 50.4954545,
                "end_time": 50.6954545,
                "pitch": 33,
                "velocity": 80,
                "duration": 0.2,
                "tempo": 120.0
            },
            {
                "start_time": 50.6954545,
                "end_time": 50.8954545,
                "pitch": 33,
                "velocity": 80,
                "duration": 0.2,
                "tempo": 120.0
            },
            {
                "start_time": 50.8954545,
                "end_time": 51.0954545,
                "pitch": 33,
                "velocity": 80,
                "duration": 0.2,
                "tempo": 120.0
            },
            {
                "start_time": 51.0954545,
                "end_time": 51.2954545,
                "pitch": 33,
                "velocity": 80,
                "duration": 0.2,
                "tempo": 120.0
            },
            {
                "start_time": 51.2977273,
                "end_time": 51.5,
                "pitch": 33,
                "velocity": 80,
                "duration": 0.2022727,
                "tempo": 120.0
            },
            {
                "start_time": 51.5,
                "end_time": 51.7,
                "pitch": 43,
                "velocity": 80,
                "duration": 0.2,
                "tempo": 120.0
            },
            {
                "start_time": 51.7,
                "end_time": 51.9,
                "pitch": 43,
                "velocity": 80,
                "duration": 0.2,
                "tempo": 120.0
            },
            {
                "start_time": 51.9,
                "end_time": 52.1,
                "pitch": 43,
                "velocity": 80,
                "duration": 0.2,
                "tempo": 120.0
            },
            {
                "start_time": 52.1022727,
                "end_time": 52.3,
                "pitch": 43,
                "velocity": 80,
                "duration": 0.1977273,
                "tempo": 120.0
            },
            {
                "start_time": 52.3022727,
                "end_time": 52.5,
                "pitch": 43,
                "velocity": 80,
                "duration": 0.1977273,
                "tempo": 120.0
            },
            {
                "start_time": 52.5,
                "end_time": 52.7,
                "pitch": 43,
                "velocity": 80,
                "duration": 0.2,
                "tempo": 120.0
            },
            {
                "start_time": 52.7022727,
                "end_time": 52.9,
                "pitch": 43,
                "velocity": 80,
                "duration": 0.1977273,
                "tempo": 120.0
            },
            {
                "start_time": 52.9022727,
                "end_time": 53.1022727,
                "pitch": 43,
                "velocity": 80,
                "duration": 0.2,
                "tempo": 120.0
            },
            {
                "start_time": 53.1022727,
                "end_time": 53.3022727,
                "pitch": 43,
                "velocity": 80,
                "duration": 0.2,
                "tempo": 120.0
            },
            {
                "start_time": 53.3045455,
                "end_time": 53.5045455,
                "pitch": 43,
                "velocity": 80,
                "duration": 0.2,
                "tempo": 120.0
            },
            {
                "start_time": 53.5068182,
                "end_time": 53.7045455,
                "pitch": 43,
                "velocity": 80,
                "duration": 0.1977273,
                "tempo": 120.0
            },
            {
                "start_time": 53.7045455,
                "end_time": 53.9068182,
                "pitch": 43,
                "velocity": 80,
                "duration": 0.2022727,
                "tempo": 120.0
            },
            {
                "start_time": 53.9068182,
                "end_time": 54.1045455,
                "pitch": 43,
                "velocity": 80,
                "duration": 0.1977273,
                "tempo": 120.0
            },
            {
                "start_time": 54.1068182,
                "end_time": 54.3045455,
                "pitch": 43,
                "velocity": 80,
                "duration": 0.1977273,
                "tempo": 120.0
            },
            {
                "start_time": 54.3068182,
                "end_time": 54.5068182,
                "pitch": 43,
                "velocity": 80,
                "duration": 0.2,
                "tempo": 120.0
            },
            {
                "start_time": 54.5068182,
                "end_time": 54.7068182,
                "pitch": 43,
                "velocity": 80,
                "duration": 0.2,
                "tempo": 120.0
            },
            {
                "start_time": 54.7068182,
                "end_time": 54.9068182,
                "pitch": 40,
                "velocity": 80,
                "duration": 0.2,
                "tempo": 120.0
            },
            {
                "start_time": 54.9068182,
                "end_time": 55.1068182,
                "pitch": 40,
                "velocity": 80,
                "duration": 0.2,
                "tempo": 120.0
            },
            {
                "start_time": 55.1068182,
                "end_time": 55.3136364,
                "pitch": 40,
                "velocity": 80,
                "duration": 0.2068182,
                "tempo": 120.0
            },
            {
                "start_time": 55.3136364,
                "end_time": 55.5181818,
                "pitch": 40,
                "velocity": 80,
                "duration": 0.2045455,
                "tempo": 120.0
            },
            {
                "start_time": 55.5181818,
                "end_time": 55.7136364,
                "pitch": 40,
                "velocity": 80,
                "duration": 0.1954545,
                "tempo": 120.0
            },
            {
                "start_time": 55.7136364,
                "end_time": 55.9113636,
                "pitch": 40,
                "velocity": 80,
                "duration": 0.1977273,
                "tempo": 120.0
            },
            {
                "start_time": 55.9113636,
                "end_time": 56.1159091,
                "pitch": 40,
                "velocity": 80,
                "duration": 0.2045455,
                "tempo": 120.0
            },
            {
                "start_time": 56.1159091,
                "end_time": 56.3227273,
                "pitch": 40,
                "velocity": 80,
                "duration": 0.2068182,
                "tempo": 120.0
            },
            {
                "start_time": 56.3227273,
                "end_time": 56.5227273,
                "pitch": 40,
                "velocity": 80,
                "duration": 0.2,
                "tempo": 120.0
            },
            {
                "start_time": 56.525,
                "end_time": 56.725,
                "pitch": 40,
                "velocity": 80,
                "duration": 0.2,
                "tempo": 120.0
            },
            {
                "start_time": 56.725,
                "end_time": 56.925,
                "pitch": 40,
                "velocity": 80,
                "duration": 0.2,
                "tempo": 120.0
            },
            {
                "start_time": 56.925,
                "end_time": 57.1272727,
                "pitch": 40,
                "velocity": 80,
                "duration": 0.2022727,
                "tempo": 120.0
            },
            {
                "start_time": 57.1272727,
                "end_time": 57.325,
                "pitch": 40,
                "velocity": 80,
                "duration": 0.1977273,
                "tempo": 120.0
            },
            {
                "start_time": 57.3272727,
                "end_time": 57.525,
                "pitch": 40,
                "velocity": 80,
                "duration": 0.1977273,
                "tempo": 120.0
            },
            {
                "start_time": 57.5272727,
                "end_time": 57.7272727,
                "pitch": 40,
                "velocity": 80,
                "duration": 0.2,
                "tempo": 120.0
            },
            {
                "start_time": 57.7272727,
                "end_time": 57.9272727,
                "pitch": 40,
                "velocity": 80,
                "duration": 0.2,
                "tempo": 120.0
            },
            {
                "start_time": 57.9272727,
                "end_time": 58.1272727,
                "pitch": 41,
                "velocity": 80,
                "duration": 0.2,
                "tempo": 120.0
            },
            {
                "start_time": 58.1272727,
                "end_time": 58.3272727,
                "pitch": 41,
                "velocity": 80,
                "duration": 0.2,
                "tempo": 120.0
            },
            {
                "start_time": 58.3272727,
                "end_time": 58.5295455,
                "pitch": 41,
                "velocity": 80,
                "duration": 0.2022727,
                "tempo": 120.0
            },
            {
                "start_time": 58.5295455,
                "end_time": 58.7295455,
                "pitch": 41,
                "velocity": 80,
                "duration": 0.2,
                "tempo": 120.0
            },
            {
                "start_time": 58.7318182,
                "end_time": 58.9295455,
                "pitch": 41,
                "velocity": 80,
                "duration": 0.1977273,
                "tempo": 120.0
            },
            {
                "start_time": 58.9318182,
                "end_time": 59.1318182,
                "pitch": 41,
                "velocity": 80,
                "duration": 0.2,
                "tempo": 120.0
            },
            {
                "start_time": 59.1318182,
                "end_time": 59.3318182,
                "pitch": 41,
                "velocity": 80,
                "duration": 0.2,
                "tempo": 120.0
            },
            {
                "start_time": 59.3318182,
                "end_time": 59.5318182,
                "pitch": 41,
                "velocity": 80,
                "duration": 0.2,
                "tempo": 120.0
            },
            {
                "start_time": 59.5340909,
                "end_time": 59.7318182,
                "pitch": 41,
                "velocity": 80,
                "duration": 0.1977273,
                "tempo": 120.0
            },
            {
                "start_time": 59.7318182,
                "end_time": 59.9318182,
                "pitch": 41,
                "velocity": 80,
                "duration": 0.2,
                "tempo": 120.0
            },
            {
                "start_time": 59.9340909,
                "end_time": 60.1318182,
                "pitch": 41,
                "velocity": 80,
                "duration": 0.1977273,
                "tempo": 120.0
            },
            {
                "start_time": 60.1318182,
                "end_time": 60.3340909,
                "pitch": 41,
                "velocity": 80,
                "duration": 0.2022727,
                "tempo": 120.0
            },
            {
                "start_time": 60.3340909,
                "end_time": 60.5340909,
                "pitch": 41,
                "velocity": 80,
                "duration": 0.2,
                "tempo": 120.0
            },
            {
                "start_time": 60.5340909,
                "end_time": 60.7340909,
                "pitch": 41,
                "velocity": 80,
                "duration": 0.2,
                "tempo": 120.0
            },
            {
                "start_time": 60.7363636,
                "end_time": 60.9363636,
                "pitch": 41,
                "velocity": 80,
                "duration": 0.2,
                "tempo": 120.0
            },
            {
                "start_time": 60.9363636,
                "end_time": 61.1363636,
                "pitch": 41,
                "velocity": 80,
                "duration": 0.2,
                "tempo": 120.0
            },
            {
                "start_time": 61.1363636,
                "end_time": 61.3363636,
                "pitch": 43,
                "velocity": 80,
                "duration": 0.2,
                "tempo": 120.0
            },
            {
                "start_time": 61.3363636,
                "end_time": 61.5363636,
                "pitch": 43,
                "velocity": 80,
                "duration": 0.2,
                "tempo": 120.0
            },
            {
                "start_time": 61.5363636,
                "end_time": 61.7363636,
                "pitch": 43,
                "velocity": 80,
                "duration": 0.2,
                "tempo": 120.0
            },
            {
                "start_time": 61.7363636,
                "end_time": 61.9363636,
                "pitch": 43,
                "velocity": 80,
                "duration": 0.2,
                "tempo": 120.0
            },
            {
                "start_time": 61.9363636,
                "end_time": 62.1363636,
                "pitch": 43,
                "velocity": 80,
                "duration": 0.2,
                "tempo": 120.0
            },
            {
                "start_time": 62.1386364,
                "end_time": 62.3386364,
                "pitch": 43,
                "velocity": 80,
                "duration": 0.2,
                "tempo": 120.0
            },
            {
                "start_time": 62.3386364,
                "end_time": 62.5409091,
                "pitch": 43,
                "velocity": 80,
                "duration": 0.2022727,
                "tempo": 120.0
            },
            {
                "start_time": 62.5409091,
                "end_time": 62.9409091,
                "pitch": 47,
                "velocity": 80,
                "duration": 0.4,
                "tempo": 120.0
            },
            {
                "start_time": 62.9409091,
                "end_time": 63.1409091,
                "pitch": 47,
                "velocity": 80,
                "duration": 0.2,
                "tempo": 120.0
            },
            {
                "start_time": 63.1409091,
                "end_time": 63.3409091,
                "pitch": 47,
                "velocity": 80,
                "duration": 0.2,
                "tempo": 120.0
            },
            {
                "start_time": 63.3409091,
                "end_time": 63.5409091,
                "pitch": 47,
                "velocity": 80,
                "duration": 0.2,
                "tempo": 120.0
            },
            {
                "start_time": 63.5409091,
                "end_time": 63.7409091,
                "pitch": 47,
                "velocity": 80,
                "duration": 0.2,
                "tempo": 120.0
            },
            {
                "start_time": 63.7431818,
                "end_time": 63.9409091,
                "pitch": 47,
                "velocity": 80,
                "duration": 0.1977273,
                "tempo": 120.0
            },
            {
                "start_time": 63.9431818,
                "end_time": 64.1409091,
                "pitch": 47,
                "velocity": 80,
                "duration": 0.1977273,
                "tempo": 120.0
            },
            {
                "start_time": 64.1431818,
                "end_time": 64.3431818,
                "pitch": 47,
                "velocity": 80,
                "duration": 0.2,
                "tempo": 120.0
            },
            {
                "start_time": 64.3454545,
                "end_time": 64.55,
                "pitch": 40,
                "velocity": 80,
                "duration": 0.2045455,
                "tempo": 120.0
            },
            {
                "start_time": 64.5522727,
                "end_time": 64.7545455,
                "pitch": 40,
                "velocity": 80,
                "duration": 0.2022727,
                "tempo": 120.0
            },
            {
                "start_time": 64.7545455,
                "end_time": 64.9568182,
                "pitch": 40,
                "velocity": 80,
                "duration": 0.2022727,
                "tempo": 120.0
            },
            {
                "start_time": 64.9568182,
                "end_time": 65.1568182,
                "pitch": 40,
                "velocity": 80,
                "duration": 0.2,
                "tempo": 120.0
            },
            {
                "start_time": 65.1590909,
                "end_time": 65.3590909,
                "pitch": 40,
                "velocity": 80,
                "duration": 0.2,
                "tempo": 120.0
            },
            {
                "start_time": 65.3590909,
                "end_time": 65.5613636,
                "pitch": 40,
                "velocity": 80,
                "duration": 0.2022727,
                "tempo": 120.0
            },
            {
                "start_time": 65.5613636,
                "end_time": 65.7613636,
                "pitch": 40,
                "velocity": 80,
                "duration": 0.2,
                "tempo": 120.0
            },
            {
                "start_time": 65.7613636,
                "end_time": 65.9613636,
                "pitch": 40,
                "velocity": 80,
                "duration": 0.2,
                "tempo": 120.0
            },
            {
                "start_time": 65.9636364,
                "end_time": 66.1613636,
                "pitch": 40,
                "velocity": 80,
                "duration": 0.1977273,
                "tempo": 120.0
            },
            {
                "start_time": 66.1636364,
                "end_time": 66.3636364,
                "pitch": 40,
                "velocity": 80,
                "duration": 0.2,
                "tempo": 120.0
            },
            {
                "start_time": 66.3659091,
                "end_time": 66.5659091,
                "pitch": 40,
                "velocity": 80,
                "duration": 0.2,
                "tempo": 120.0
            },
            {
                "start_time": 66.5659091,
                "end_time": 66.7636364,
                "pitch": 40,
                "velocity": 80,
                "duration": 0.1977273,
                "tempo": 120.0
            },
            {
                "start_time": 66.7659091,
                "end_time": 66.9659091,
                "pitch": 40,
                "velocity": 80,
                "duration": 0.2,
                "tempo": 120.0
            },
            {
                "start_time": 66.9681818,
                "end_time": 67.1681818,
                "pitch": 40,
                "velocity": 80,
                "duration": 0.2,
                "tempo": 120.0
            },
            {
                "start_time": 67.1681818,
                "end_time": 67.3704545,
                "pitch": 40,
                "velocity": 80,
                "duration": 0.2022727,
                "tempo": 120.0
            },
            {
                "start_time": 67.3704545,
                "end_time": 67.5704545,
                "pitch": 40,
                "velocity": 80,
                "duration": 0.2,
                "tempo": 120.0
            },
            {
                "start_time": 67.5727273,
                "end_time": 67.7727273,
                "pitch": 36,
                "velocity": 80,
                "duration": 0.2,
                "tempo": 120.0
            },
            {
                "start_time": 67.7727273,
                "end_time": 67.9727273,
                "pitch": 36,
                "velocity": 80,
                "duration": 0.2,
                "tempo": 120.0
            },
            {
                "start_time": 67.9727273,
                "end_time": 68.1727273,
                "pitch": 36,
                "velocity": 80,
                "duration": 0.2,
                "tempo": 120.0
            },
            {
                "start_time": 68.175,
                "end_time": 68.375,
                "pitch": 36,
                "velocity": 80,
                "duration": 0.2,
                "tempo": 120.0
            },
            {
                "start_time": 68.3772727,
                "end_time": 68.575,
                "pitch": 36,
                "velocity": 80,
                "duration": 0.1977273,
                "tempo": 120.0
            },
            {
                "start_time": 68.575,
                "end_time": 68.775,
                "pitch": 36,
                "velocity": 80,
                "duration": 0.2,
                "tempo": 120.0
            },
            {
                "start_time": 68.7772727,
                "end_time": 68.9772727,
                "pitch": 36,
                "velocity": 80,
                "duration": 0.2,
                "tempo": 120.0
            },
            {
                "start_time": 68.9772727,
                "end_time": 69.1795455,
                "pitch": 36,
                "velocity": 80,
                "duration": 0.2022727,
                "tempo": 120.0
            },
            {
                "start_time": 69.1818182,
                "end_time": 69.3818182,
                "pitch": 36,
                "velocity": 80,
                "duration": 0.2,
                "tempo": 120.0
            },
            {
                "start_time": 69.3818182,
                "end_time": 69.5818182,
                "pitch": 36,
                "velocity": 80,
                "duration": 0.2,
                "tempo": 120.0
            },
            {
                "start_time": 69.5818182,
                "end_time": 69.7818182,
                "pitch": 36,
                "velocity": 80,
                "duration": 0.2,
                "tempo": 120.0
            },
            {
                "start_time": 69.7840909,
                "end_time": 69.9818182,
                "pitch": 36,
                "velocity": 80,
                "duration": 0.1977273,
                "tempo": 120.0
            },
            {
                "start_time": 69.9840909,
                "end_time": 70.1840909,
                "pitch": 36,
                "velocity": 80,
                "duration": 0.2,
                "tempo": 120.0
            },
            {
                "start_time": 70.1863636,
                "end_time": 70.3863636,
                "pitch": 36,
                "velocity": 80,
                "duration": 0.2,
                "tempo": 120.0
            },
            {
                "start_time": 70.3863636,
                "end_time": 70.5863636,
                "pitch": 36,
                "velocity": 80,
                "duration": 0.2,
                "tempo": 120.0
            },
            {
                "start_time": 70.5863636,
                "end_time": 70.7863636,
                "pitch": 36,
                "velocity": 80,
                "duration": 0.2,
                "tempo": 120.0
            },
            {
                "start_time": 70.7886364,
                "end_time": 70.9931818,
                "pitch": 38,
                "velocity": 80,
                "duration": 0.2045455,
                "tempo": 120.0
            },
            {
                "start_time": 70.9931818,
                "end_time": 71.1977273,
                "pitch": 38,
                "velocity": 80,
                "duration": 0.2045455,
                "tempo": 120.0
            },
            {
                "start_time": 71.1977273,
                "end_time": 71.3977273,
                "pitch": 38,
                "velocity": 80,
                "duration": 0.2,
                "tempo": 120.0
            },
            {
                "start_time": 71.3977273,
                "end_time": 71.5977273,
                "pitch": 38,
                "velocity": 80,
                "duration": 0.2,
                "tempo": 120.0
            },
            {
                "start_time": 71.6,
                "end_time": 71.8,
                "pitch": 38,
                "velocity": 80,
                "duration": 0.2,
                "tempo": 120.0
            },
            {
                "start_time": 71.8,
                "end_time": 72.0022727,
                "pitch": 38,
                "velocity": 80,
                "duration": 0.2022727,
                "tempo": 120.0
            },
            {
                "start_time": 72.0022727,
                "end_time": 72.2022727,
                "pitch": 38,
                "velocity": 80,
                "duration": 0.2,
                "tempo": 120.0
            },
            {
                "start_time": 72.2022727,
                "end_time": 72.4022727,
                "pitch": 38,
                "velocity": 80,
                "duration": 0.2,
                "tempo": 120.0
            },
            {
                "start_time": 72.4045455,
                "end_time": 72.6022727,
                "pitch": 38,
                "velocity": 80,
                "duration": 0.1977273,
                "tempo": 120.0
            },
            {
                "start_time": 72.6045455,
                "end_time": 72.8045455,
                "pitch": 38,
                "velocity": 80,
                "duration": 0.2,
                "tempo": 120.0
            },
            {
                "start_time": 72.8045455,
                "end_time": 73.0068182,
                "pitch": 38,
                "velocity": 80,
                "duration": 0.2022727,
                "tempo": 120.0
            },
            {
                "start_time": 73.0068182,
                "end_time": 73.2090909,
                "pitch": 38,
                "velocity": 80,
                "duration": 0.2022727,
                "tempo": 120.0
            },
            {
                "start_time": 73.2090909,
                "end_time": 73.4090909,
                "pitch": 38,
                "velocity": 80,
                "duration": 0.2,
                "tempo": 120.0
            },
            {
                "start_time": 73.4090909,
                "end_time": 73.6090909,
                "pitch": 38,
                "velocity": 80,
                "duration": 0.2,
                "tempo": 120.0
            },
            {
                "start_time": 73.6090909,
                "end_time": 73.8113636,
                "pitch": 38,
                "velocity": 80,
                "duration": 0.2022727,
                "tempo": 120.0
            },
            {
                "start_time": 73.8113636,
                "end_time": 74.0113636,
                "pitch": 38,
                "velocity": 80,
                "duration": 0.2,
                "tempo": 120.0
            },
            {
                "start_time": 74.0136364,
                "end_time": 74.2136364,
                "pitch": 36,
                "velocity": 80,
                "duration": 0.2,
                "tempo": 120.0
            },
            {
                "start_time": 74.2136364,
                "end_time": 74.4136364,
                "pitch": 36,
                "velocity": 80,
                "duration": 0.2,
                "tempo": 120.0
            },
            {
                "start_time": 74.4136364,
                "end_time": 74.6136364,
                "pitch": 36,
                "velocity": 80,
                "duration": 0.2,
                "tempo": 120.0
            },
            {
                "start_time": 74.6136364,
                "end_time": 74.8159091,
                "pitch": 36,
                "velocity": 80,
                "duration": 0.2022727,
                "tempo": 120.0
            },
            {
                "start_time": 74.8159091,
                "end_time": 75.0181818,
                "pitch": 36,
                "velocity": 80,
                "duration": 0.2022727,
                "tempo": 120.0
            },
            {
                "start_time": 75.0181818,
                "end_time": 75.2204545,
                "pitch": 36,
                "velocity": 80,
                "duration": 0.2022727,
                "tempo": 120.0
            },
            {
                "start_time": 75.2204545,
                "end_time": 75.4204545,
                "pitch": 36,
                "velocity": 80,
                "duration": 0.2,
                "tempo": 120.0
            },
            {
                "start_time": 75.4204545,
                "end_time": 75.6204545,
                "pitch": 36,
                "velocity": 80,
                "duration": 0.2,
                "tempo": 120.0
            },
            {
                "start_time": 75.6204545,
                "end_time": 75.8204545,
                "pitch": 36,
                "velocity": 80,
                "duration": 0.2,
                "tempo": 120.0
            },
            {
                "start_time": 75.8227273,
                "end_time": 76.0227273,
                "pitch": 36,
                "velocity": 80,
                "duration": 0.2,
                "tempo": 120.0
            },
            {
                "start_time": 76.0227273,
                "end_time": 76.2227273,
                "pitch": 36,
                "velocity": 80,
                "duration": 0.2,
                "tempo": 120.0
            },
            {
                "start_time": 76.2227273,
                "end_time": 76.4227273,
                "pitch": 36,
                "velocity": 80,
                "duration": 0.2,
                "tempo": 120.0
            },
            {
                "start_time": 76.4227273,
                "end_time": 76.6295455,
                "pitch": 36,
                "velocity": 80,
                "duration": 0.2068182,
                "tempo": 120.0
            },
            {
                "start_time": 76.6295455,
                "end_time": 76.8340909,
                "pitch": 36,
                "velocity": 80,
                "duration": 0.2045455,
                "tempo": 120.0
            },
            {
                "start_time": 76.8340909,
                "end_time": 77.0318182,
                "pitch": 36,
                "velocity": 80,
                "duration": 0.1977273,
                "tempo": 120.0
            },
            {
                "start_time": 77.0318182,
                "end_time": 77.2272727,
                "pitch": 36,
                "velocity": 80,
                "duration": 0.1954545,
                "tempo": 120.0
            },
            {
                "start_time": 77.2272727,
                "end_time": 77.4340909,
                "pitch": 40,
                "velocity": 80,
                "duration": 0.2068182,
                "tempo": 120.0
            },
            {
                "start_time": 77.4340909,
                "end_time": 77.6386364,
                "pitch": 40,
                "velocity": 80,
                "duration": 0.2045455,
                "tempo": 120.0
            },
            {
                "start_time": 77.6386364,
                "end_time": 77.8340909,
                "pitch": 40,
                "velocity": 80,
                "duration": 0.1954545,
                "tempo": 120.0
            },
            {
                "start_time": 77.8340909,
                "end_time": 78.0318182,
                "pitch": 40,
                "velocity": 80,
                "duration": 0.1977273,
                "tempo": 120.0
            },
            {
                "start_time": 78.0318182,
                "end_time": 78.2318182,
                "pitch": 40,
                "velocity": 80,
                "duration": 0.2,
                "tempo": 120.0
            },
            {
                "start_time": 78.2318182,
                "end_time": 78.4318182,
                "pitch": 40,
                "velocity": 80,
                "duration": 0.2,
                "tempo": 120.0
            },
            {
                "start_time": 78.4318182,
                "end_time": 78.6363636,
                "pitch": 40,
                "velocity": 80,
                "duration": 0.2045455,
                "tempo": 120.0
            },
            {
                "start_time": 78.6363636,
                "end_time": 78.8431818,
                "pitch": 40,
                "velocity": 80,
                "duration": 0.2068182,
                "tempo": 120.0
            },
            {
                "start_time": 78.8454545,
                "end_time": 79.0431818,
                "pitch": 40,
                "velocity": 80,
                "duration": 0.1977273,
                "tempo": 120.0
            },
            {
                "start_time": 79.0431818,
                "end_time": 79.2431818,
                "pitch": 40,
                "velocity": 80,
                "duration": 0.2,
                "tempo": 120.0
            },
            {
                "start_time": 79.2431818,
                "end_time": 79.4454545,
                "pitch": 40,
                "velocity": 80,
                "duration": 0.2022727,
                "tempo": 120.0
            },
            {
                "start_time": 79.4454545,
                "end_time": 79.6454545,
                "pitch": 40,
                "velocity": 80,
                "duration": 0.2,
                "tempo": 120.0
            },
            {
                "start_time": 79.6477273,
                "end_time": 79.8477273,
                "pitch": 40,
                "velocity": 80,
                "duration": 0.2,
                "tempo": 120.0
            },
            {
                "start_time": 79.8477273,
                "end_time": 80.0477273,
                "pitch": 40,
                "velocity": 80,
                "duration": 0.2,
                "tempo": 120.0
            },
            {
                "start_time": 80.0477273,
                "end_time": 80.25,
                "pitch": 40,
                "velocity": 80,
                "duration": 0.2022727,
                "tempo": 120.0
            },
            {
                "start_time": 80.25,
                "end_time": 80.45,
                "pitch": 40,
                "velocity": 80,
                "duration": 0.2,
                "tempo": 120.0
            },
            {
                "start_time": 80.4522727,
                "end_time": 80.6522727,
                "pitch": 36,
                "velocity": 80,
                "duration": 0.2,
                "tempo": 120.0
            },
            {
                "start_time": 80.6522727,
                "end_time": 80.8545455,
                "pitch": 36,
                "velocity": 80,
                "duration": 0.2022727,
                "tempo": 120.0
            },
            {
                "start_time": 80.8545455,
                "end_time": 81.0522727,
                "pitch": 36,
                "velocity": 80,
                "duration": 0.1977273,
                "tempo": 120.0
            },
            {
                "start_time": 81.0545455,
                "end_time": 81.2545455,
                "pitch": 36,
                "velocity": 80,
                "duration": 0.2,
                "tempo": 120.0
            },
            {
                "start_time": 81.2545455,
                "end_time": 81.4545455,
                "pitch": 36,
                "velocity": 80,
                "duration": 0.2,
                "tempo": 120.0
            },
            {
                "start_time": 81.4568182,
                "end_time": 81.6568182,
                "pitch": 36,
                "velocity": 80,
                "duration": 0.2,
                "tempo": 120.0
            },
            {
                "start_time": 81.6590909,
                "end_time": 81.8568182,
                "pitch": 36,
                "velocity": 80,
                "duration": 0.1977273,
                "tempo": 120.0
            },
            {
                "start_time": 81.8568182,
                "end_time": 82.0590909,
                "pitch": 36,
                "velocity": 80,
                "duration": 0.2022727,
                "tempo": 120.0
            },
            {
                "start_time": 82.0590909,
                "end_time": 82.2590909,
                "pitch": 36,
                "velocity": 80,
                "duration": 0.2,
                "tempo": 120.0
            },
            {
                "start_time": 82.2613636,
                "end_time": 82.4613636,
                "pitch": 36,
                "velocity": 80,
                "duration": 0.2,
                "tempo": 120.0
            },
            {
                "start_time": 82.4613636,
                "end_time": 82.6636364,
                "pitch": 36,
                "velocity": 80,
                "duration": 0.2022727,
                "tempo": 120.0
            },
            {
                "start_time": 82.6636364,
                "end_time": 82.8636364,
                "pitch": 36,
                "velocity": 80,
                "duration": 0.2,
                "tempo": 120.0
            },
            {
                "start_time": 82.8636364,
                "end_time": 83.0636364,
                "pitch": 36,
                "velocity": 80,
                "duration": 0.2,
                "tempo": 120.0
            },
            {
                "start_time": 83.0659091,
                "end_time": 83.2636364,
                "pitch": 36,
                "velocity": 80,
                "duration": 0.1977273,
                "tempo": 120.0
            },
            {
                "start_time": 83.2659091,
                "end_time": 83.4659091,
                "pitch": 36,
                "velocity": 80,
                "duration": 0.2,
                "tempo": 120.0
            },
            {
                "start_time": 83.4681818,
                "end_time": 83.6681818,
                "pitch": 36,
                "velocity": 80,
                "duration": 0.2,
                "tempo": 120.0
            },
            {
                "start_time": 83.6681818,
                "end_time": 83.8681818,
                "pitch": 38,
                "velocity": 80,
                "duration": 0.2,
                "tempo": 120.0
            },
            {
                "start_time": 83.8704545,
                "end_time": 84.0681818,
                "pitch": 38,
                "velocity": 80,
                "duration": 0.1977273,
                "tempo": 120.0
            },
            {
                "start_time": 84.0704545,
                "end_time": 84.2704545,
                "pitch": 38,
                "velocity": 80,
                "duration": 0.2,
                "tempo": 120.0
            },
            {
                "start_time": 84.2704545,
                "end_time": 84.4727273,
                "pitch": 38,
                "velocity": 80,
                "duration": 0.2022727,
                "tempo": 120.0
            },
            {
                "start_time": 84.4727273,
                "end_time": 84.6727273,
                "pitch": 38,
                "velocity": 80,
                "duration": 0.2,
                "tempo": 120.0
            },
            {
                "start_time": 84.6727273,
                "end_time": 84.875,
                "pitch": 38,
                "velocity": 80,
                "duration": 0.2022727,
                "tempo": 120.0
            },
            {
                "start_time": 84.875,
                "end_time": 85.075,
                "pitch": 38,
                "velocity": 80,
                "duration": 0.2,
                "tempo": 120.0
            },
            {
                "start_time": 85.075,
                "end_time": 85.275,
                "pitch": 38,
                "velocity": 80,
                "duration": 0.2,
                "tempo": 120.0
            },
            {
                "start_time": 85.2772727,
                "end_time": 85.4795455,
                "pitch": 38,
                "velocity": 80,
                "duration": 0.2022727,
                "tempo": 120.0
            },
            {
                "start_time": 85.4818182,
                "end_time": 85.6863636,
                "pitch": 38,
                "velocity": 80,
                "duration": 0.2045455,
                "tempo": 120.0
            },
            {
                "start_time": 85.6863636,
                "end_time": 85.8863636,
                "pitch": 38,
                "velocity": 80,
                "duration": 0.2,
                "tempo": 120.0
            },
            {
                "start_time": 85.8863636,
                "end_time": 86.0886364,
                "pitch": 38,
                "velocity": 80,
                "duration": 0.2022727,
                "tempo": 120.0
            },
            {
                "start_time": 86.0886364,
                "end_time": 86.2886364,
                "pitch": 38,
                "velocity": 80,
                "duration": 0.2,
                "tempo": 120.0
            },
            {
                "start_time": 86.2909091,
                "end_time": 86.4909091,
                "pitch": 38,
                "velocity": 80,
                "duration": 0.2,
                "tempo": 120.0
            },
            {
                "start_time": 86.4931818,
                "end_time": 86.6909091,
                "pitch": 38,
                "velocity": 80,
                "duration": 0.1977273,
                "tempo": 120.0
            },
            {
                "start_time": 86.6931818,
                "end_time": 86.8909091,
                "pitch": 38,
                "velocity": 80,
                "duration": 0.1977273,
                "tempo": 120.0
            },
            {
                "start_time": 86.8931818,
                "end_time": 87.0909091,
                "pitch": 36,
                "velocity": 80,
                "duration": 0.1977273,
                "tempo": 120.0
            },
            {
                "start_time": 87.0931818,
                "end_time": 87.2931818,
                "pitch": 36,
                "velocity": 80,
                "duration": 0.2,
                "tempo": 120.0
            },
            {
                "start_time": 87.2931818,
                "end_time": 87.4954545,
                "pitch": 36,
                "velocity": 80,
                "duration": 0.2022727,
                "tempo": 120.0
            },
            {
                "start_time": 87.4954545,
                "end_time": 87.6954545,
                "pitch": 36,
                "velocity": 80,
                "duration": 0.2,
                "tempo": 120.0
            },
            {
                "start_time": 87.6977273,
                "end_time": 87.8977273,
                "pitch": 36,
                "velocity": 80,
                "duration": 0.2,
                "tempo": 120.0
            },
            {
                "start_time": 87.8977273,
                "end_time": 88.0977273,
                "pitch": 36,
                "velocity": 80,
                "duration": 0.2,
                "tempo": 120.0
            },
            {
                "start_time": 88.0977273,
                "end_time": 88.2977273,
                "pitch": 36,
                "velocity": 80,
                "duration": 0.2,
                "tempo": 120.0
            },
            {
                "start_time": 88.3,
                "end_time": 88.5,
                "pitch": 36,
                "velocity": 80,
                "duration": 0.2,
                "tempo": 120.0
            },
            {
                "start_time": 88.5022727,
                "end_time": 88.7,
                "pitch": 45,
                "velocity": 80,
                "duration": 0.1977273,
                "tempo": 120.0
            },
            {
                "start_time": 88.7,
                "end_time": 88.9,
                "pitch": 45,
                "velocity": 80,
                "duration": 0.2,
                "tempo": 120.0
            },
            {
                "start_time": 88.9,
                "end_time": 89.1022727,
                "pitch": 45,
                "velocity": 80,
                "duration": 0.2022727,
                "tempo": 120.0
            },
            {
                "start_time": 89.5,
                "end_time": 89.6954545,
                "pitch": 45,
                "velocity": 80,
                "duration": 0.1954545,
                "tempo": 120.0
            },
            {
                "start_time": 90.1,
                "end_time": 90.3022727,
                "pitch": 33,
                "velocity": 80,
                "duration": 0.2022727,
                "tempo": 120.0
            },
            {
                "start_time": 90.3022727,
                "end_time": 90.5,
                "pitch": 33,
                "velocity": 80,
                "duration": 0.1977273,
                "tempo": 120.0
            },
            {
                "start_time": 90.5022727,
                "end_time": 90.7068182,
                "pitch": 33,
                "velocity": 80,
                "duration": 0.2045455,
                "tempo": 120.0
            },
            {
                "start_time": 90.7068182,
                "end_time": 90.9136364,
                "pitch": 33,
                "velocity": 80,
                "duration": 0.2068182,
                "tempo": 120.0
            },
            {
                "start_time": 90.9136364,
                "end_time": 91.1136364,
                "pitch": 33,
                "velocity": 80,
                "duration": 0.2,
                "tempo": 120.0
            },
            {
                "start_time": 91.1136364,
                "end_time": 91.3159091,
                "pitch": 33,
                "velocity": 80,
                "duration": 0.2022727,
                "tempo": 120.0
            },
            {
                "start_time": 91.3159091,
                "end_time": 91.5181818,
                "pitch": 33,
                "velocity": 80,
                "duration": 0.2022727,
                "tempo": 120.0
            },
            {
                "start_time": 91.5181818,
                "end_time": 91.7181818,
                "pitch": 33,
                "velocity": 80,
                "duration": 0.2,
                "tempo": 120.0
            },
            {
                "start_time": 91.7204545,
                "end_time": 91.9181818,
                "pitch": 33,
                "velocity": 80,
                "duration": 0.1977273,
                "tempo": 120.0
            },
            {
                "start_time": 91.9181818,
                "end_time": 92.1181818,
                "pitch": 33,
                "velocity": 80,
                "duration": 0.2,
                "tempo": 120.0
            },
            {
                "start_time": 92.1204545,
                "end_time": 92.3204545,
                "pitch": 33,
                "velocity": 80,
                "duration": 0.2,
                "tempo": 120.0
            },
            {
                "start_time": 92.3227273,
                "end_time": 92.5227273,
                "pitch": 33,
                "velocity": 80,
                "duration": 0.2,
                "tempo": 120.0
            },
            {
                "start_time": 92.5227273,
                "end_time": 92.725,
                "pitch": 33,
                "velocity": 80,
                "duration": 0.2022727,
                "tempo": 120.0
            },
            {
                "start_time": 92.725,
                "end_time": 92.925,
                "pitch": 33,
                "velocity": 80,
                "duration": 0.2,
                "tempo": 120.0
            },
            {
                "start_time": 92.925,
                "end_time": 93.125,
                "pitch": 33,
                "velocity": 80,
                "duration": 0.2,
                "tempo": 120.0
            },
            {
                "start_time": 93.1272727,
                "end_time": 93.3272727,
                "pitch": 33,
                "velocity": 80,
                "duration": 0.2,
                "tempo": 120.0
            },
            {
                "start_time": 93.3295455,
                "end_time": 93.5318182,
                "pitch": 33,
                "velocity": 80,
                "duration": 0.2022727,
                "tempo": 120.0
            },
            {
                "start_time": 93.5340909,
                "end_time": 93.7363636,
                "pitch": 33,
                "velocity": 80,
                "duration": 0.2022727,
                "tempo": 120.0
            },
            {
                "start_time": 93.7386364,
                "end_time": 93.9340909,
                "pitch": 33,
                "velocity": 80,
                "duration": 0.1954545,
                "tempo": 120.0
            },
            {
                "start_time": 93.9340909,
                "end_time": 94.1318182,
                "pitch": 33,
                "velocity": 80,
                "duration": 0.1977273,
                "tempo": 120.0
            },
            {
                "start_time": 94.1318182,
                "end_time": 94.3318182,
                "pitch": 33,
                "velocity": 80,
                "duration": 0.2,
                "tempo": 120.0
            },
            {
                "start_time": 94.3318182,
                "end_time": 94.5340909,
                "pitch": 33,
                "velocity": 80,
                "duration": 0.2022727,
                "tempo": 120.0
            },
            {
                "start_time": 94.5363636,
                "end_time": 94.7386364,
                "pitch": 33,
                "velocity": 80,
                "duration": 0.2022727,
                "tempo": 120.0
            },
            {
                "start_time": 94.7409091,
                "end_time": 94.9454545,
                "pitch": 33,
                "velocity": 80,
                "duration": 0.2045455,
                "tempo": 120.0
            },
            {
                "start_time": 94.9454545,
                "end_time": 95.1409091,
                "pitch": 33,
                "velocity": 80,
                "duration": 0.1954545,
                "tempo": 120.0
            },
            {
                "start_time": 95.1409091,
                "end_time": 95.3363636,
                "pitch": 33,
                "velocity": 80,
                "duration": 0.1954545,
                "tempo": 120.0
            },
            {
                "start_time": 95.3363636,
                "end_time": 95.5431818,
                "pitch": 33,
                "velocity": 80,
                "duration": 0.2068182,
                "tempo": 120.0
            },
            {
                "start_time": 95.5431818,
                "end_time": 95.7477273,
                "pitch": 33,
                "velocity": 80,
                "duration": 0.2045455,
                "tempo": 120.0
            },
            {
                "start_time": 95.7477273,
                "end_time": 95.95,
                "pitch": 33,
                "velocity": 80,
                "duration": 0.2022727,
                "tempo": 120.0
            },
            {
                "start_time": 95.95,
                "end_time": 96.1522727,
                "pitch": 33,
                "velocity": 80,
                "duration": 0.2022727,
                "tempo": 120.0
            },
            {
                "start_time": 96.1545455,
                "end_time": 96.3522727,
                "pitch": 33,
                "velocity": 80,
                "duration": 0.1977273,
                "tempo": 120.0
            },
            {
                "start_time": 96.3545455,
                "end_time": 96.5545455,
                "pitch": 33,
                "velocity": 80,
                "duration": 0.2,
                "tempo": 120.0
            },
            {
                "start_time": 96.5545455,
                "end_time": 96.7545455,
                "pitch": 33,
                "velocity": 80,
                "duration": 0.2,
                "tempo": 120.0
            },
            {
                "start_time": 96.7545455,
                "end_time": 96.9545455,
                "pitch": 33,
                "velocity": 80,
                "duration": 0.2,
                "tempo": 120.0
            },
            {
                "start_time": 96.9568182,
                "end_time": 97.1568182,
                "pitch": 33,
                "velocity": 80,
                "duration": 0.2,
                "tempo": 120.0
            },
            {
                "start_time": 97.1568182,
                "end_time": 97.3590909,
                "pitch": 33,
                "velocity": 80,
                "duration": 0.2022727,
                "tempo": 120.0
            },
            {
                "start_time": 97.3590909,
                "end_time": 97.5590909,
                "pitch": 33,
                "velocity": 80,
                "duration": 0.2,
                "tempo": 120.0
            },
            {
                "start_time": 97.5590909,
                "end_time": 97.7590909,
                "pitch": 33,
                "velocity": 80,
                "duration": 0.2,
                "tempo": 120.0
            },
            {
                "start_time": 97.7590909,
                "end_time": 97.9613636,
                "pitch": 33,
                "velocity": 80,
                "duration": 0.2022727,
                "tempo": 120.0
            },
            {
                "start_time": 97.9613636,
                "end_time": 98.1613636,
                "pitch": 33,
                "velocity": 80,
                "duration": 0.2,
                "tempo": 120.0
            },
            {
                "start_time": 98.1636364,
                "end_time": 98.3613636,
                "pitch": 33,
                "velocity": 80,
                "duration": 0.1977273,
                "tempo": 120.0
            },
            {
                "start_time": 98.3636364,
                "end_time": 98.5636364,
                "pitch": 33,
                "velocity": 80,
                "duration": 0.2,
                "tempo": 120.0
            },
            {
                "start_time": 98.5636364,
                "end_time": 98.7659091,
                "pitch": 33,
                "velocity": 80,
                "duration": 0.2022727,
                "tempo": 120.0
            },
            {
                "start_time": 98.7659091,
                "end_time": 98.9659091,
                "pitch": 33,
                "velocity": 80,
                "duration": 0.2,
                "tempo": 120.0
            },
            {
                "start_time": 98.9659091,
                "end_time": 99.1681818,
                "pitch": 33,
                "velocity": 80,
                "duration": 0.2022727,
                "tempo": 120.0
            },
            {
                "start_time": 99.1704545,
                "end_time": 99.3704545,
                "pitch": 33,
                "velocity": 80,
                "duration": 0.2,
                "tempo": 120.0
            },
            {
                "start_time": 99.3704545,
                "end_time": 99.5704545,
                "pitch": 33,
                "velocity": 80,
                "duration": 0.2,
                "tempo": 120.0
            },
            {
                "start_time": 99.5704545,
                "end_time": 99.7704545,
                "pitch": 33,
                "velocity": 80,
                "duration": 0.2,
                "tempo": 120.0
            },
            {
                "start_time": 99.7727273,
                "end_time": 99.9727273,
                "pitch": 33,
                "velocity": 80,
                "duration": 0.2,
                "tempo": 120.0
            },
            {
                "start_time": 99.9727273,
                "end_time": 100.1727273,
                "pitch": 33,
                "velocity": 80,
                "duration": 0.2,
                "tempo": 120.0
            },
            {
                "start_time": 100.1727273,
                "end_time": 100.375,
                "pitch": 33,
                "velocity": 80,
                "duration": 0.2022727,
                "tempo": 120.0
            },
            {
                "start_time": 100.375,
                "end_time": 100.575,
                "pitch": 33,
                "velocity": 80,
                "duration": 0.2,
                "tempo": 120.0
            },
            {
                "start_time": 100.575,
                "end_time": 100.775,
                "pitch": 33,
                "velocity": 80,
                "duration": 0.2,
                "tempo": 120.0
            },
            {
                "start_time": 100.775,
                "end_time": 100.9772727,
                "pitch": 33,
                "velocity": 80,
                "duration": 0.2022727,
                "tempo": 120.0
            },
            {
                "start_time": 100.9772727,
                "end_time": 101.1772727,
                "pitch": 33,
                "velocity": 80,
                "duration": 0.2,
                "tempo": 120.0
            },
            {
                "start_time": 101.1795455,
                "end_time": 101.3818182,
                "pitch": 33,
                "velocity": 80,
                "duration": 0.2022727,
                "tempo": 120.0
            },
            {
                "start_time": 101.3818182,
                "end_time": 101.5795455,
                "pitch": 33,
                "velocity": 80,
                "duration": 0.1977273,
                "tempo": 120.0
            },
            {
                "start_time": 101.5795455,
                "end_time": 101.7795455,
                "pitch": 33,
                "velocity": 80,
                "duration": 0.2,
                "tempo": 120.0
            },
            {
                "start_time": 101.7818182,
                "end_time": 101.9818182,
                "pitch": 33,
                "velocity": 80,
                "duration": 0.2,
                "tempo": 120.0
            },
            {
                "start_time": 101.9818182,
                "end_time": 102.1840909,
                "pitch": 33,
                "velocity": 80,
                "duration": 0.2022727,
                "tempo": 120.0
            },
            {
                "start_time": 102.1840909,
                "end_time": 102.3840909,
                "pitch": 33,
                "velocity": 80,
                "duration": 0.2,
                "tempo": 120.0
            },
            {
                "start_time": 102.3840909,
                "end_time": 102.5840909,
                "pitch": 33,
                "velocity": 80,
                "duration": 0.2,
                "tempo": 120.0
            },
            {
                "start_time": 102.5840909,
                "end_time": 102.7863636,
                "pitch": 33,
                "velocity": 80,
                "duration": 0.2022727,
                "tempo": 120.0
            },
            {
                "start_time": 102.7863636,
                "end_time": 102.9886364,
                "pitch": 33,
                "velocity": 80,
                "duration": 0.2022727,
                "tempo": 120.0
            },
            {
                "start_time": 102.9886364,
                "end_time": 103.1931818,
                "pitch": 33,
                "velocity": 80,
                "duration": 0.2045455,
                "tempo": 120.0
            },
            {
                "start_time": 103.1954545,
                "end_time": 103.3977273,
                "pitch": 33,
                "velocity": 80,
                "duration": 0.2022727,
                "tempo": 120.0
            },
            {
                "start_time": 103.4,
                "end_time": 103.6,
                "pitch": 33,
                "velocity": 80,
                "duration": 0.2,
                "tempo": 120.0
            },
            {
                "start_time": 103.6022727,
                "end_time": 103.8022727,
                "pitch": 33,
                "velocity": 80,
                "duration": 0.2,
                "tempo": 120.0
            },
            {
                "start_time": 103.8045455,
                "end_time": 104.0022727,
                "pitch": 33,
                "velocity": 80,
                "duration": 0.1977273,
                "tempo": 120.0
            },
            {
                "start_time": 104.0022727,
                "end_time": 104.2022727,
                "pitch": 33,
                "velocity": 80,
                "duration": 0.2,
                "tempo": 120.0
            },
            {
                "start_time": 104.2045455,
                "end_time": 104.4045455,
                "pitch": 33,
                "velocity": 80,
                "duration": 0.2,
                "tempo": 120.0
            },
            {
                "start_time": 104.4045455,
                "end_time": 104.6045455,
                "pitch": 33,
                "velocity": 80,
                "duration": 0.2,
                "tempo": 120.0
            },
            {
                "start_time": 104.6068182,
                "end_time": 104.8068182,
                "pitch": 33,
                "velocity": 80,
                "duration": 0.2,
                "tempo": 120.0
            },
            {
                "start_time": 104.8068182,
                "end_time": 105.0090909,
                "pitch": 33,
                "velocity": 80,
                "duration": 0.2022727,
                "tempo": 120.0
            },
            {
                "start_time": 105.0090909,
                "end_time": 105.2090909,
                "pitch": 33,
                "velocity": 80,
                "duration": 0.2,
                "tempo": 120.0
            },
            {
                "start_time": 105.2113636,
                "end_time": 105.4090909,
                "pitch": 33,
                "velocity": 80,
                "duration": 0.1977273,
                "tempo": 120.0
            },
            {
                "start_time": 105.4113636,
                "end_time": 105.6113636,
                "pitch": 33,
                "velocity": 80,
                "duration": 0.2,
                "tempo": 120.0
            },
            {
                "start_time": 105.6136364,
                "end_time": 105.8136364,
                "pitch": 33,
                "velocity": 80,
                "duration": 0.2,
                "tempo": 120.0
            },
            {
                "start_time": 105.8136364,
                "end_time": 106.0136364,
                "pitch": 33,
                "velocity": 80,
                "duration": 0.2,
                "tempo": 120.0
            },
            {
                "start_time": 106.0159091,
                "end_time": 106.2136364,
                "pitch": 33,
                "velocity": 80,
                "duration": 0.1977273,
                "tempo": 120.0
            },
            {
                "start_time": 106.2159091,
                "end_time": 106.4159091,
                "pitch": 33,
                "velocity": 80,
                "duration": 0.2,
                "tempo": 120.0
            },
            {
                "start_time": 106.4159091,
                "end_time": 106.6159091,
                "pitch": 33,
                "velocity": 80,
                "duration": 0.2,
                "tempo": 120.0
            },
            {
                "start_time": 106.6159091,
                "end_time": 106.8181818,
                "pitch": 33,
                "velocity": 80,
                "duration": 0.2022727,
                "tempo": 120.0
            },
            {
                "start_time": 106.8181818,
                "end_time": 107.0204545,
                "pitch": 33,
                "velocity": 80,
                "duration": 0.2022727,
                "tempo": 120.0
            },
            {
                "start_time": 107.0204545,
                "end_time": 107.2204545,
                "pitch": 33,
                "velocity": 80,
                "duration": 0.2,
                "tempo": 120.0
            },
            {
                "start_time": 107.2204545,
                "end_time": 107.4204545,
                "pitch": 33,
                "velocity": 80,
                "duration": 0.2,
                "tempo": 120.0
            },
            {
                "start_time": 107.4227273,
                "end_time": 107.6227273,
                "pitch": 33,
                "velocity": 80,
                "duration": 0.2,
                "tempo": 120.0
            },
            {
                "start_time": 107.6227273,
                "end_time": 107.8227273,
                "pitch": 33,
                "velocity": 80,
                "duration": 0.2,
                "tempo": 120.0
            },
            {
                "start_time": 107.825,
                "end_time": 108.0227273,
                "pitch": 33,
                "velocity": 80,
                "duration": 0.1977273,
                "tempo": 120.0
            },
            {
                "start_time": 108.025,
                "end_time": 108.2227273,
                "pitch": 33,
                "velocity": 80,
                "duration": 0.1977273,
                "tempo": 120.0
            },
            {
                "start_time": 108.225,
                "end_time": 108.425,
                "pitch": 33,
                "velocity": 80,
                "duration": 0.2,
                "tempo": 120.0
            },
            {
                "start_time": 108.425,
                "end_time": 108.6272727,
                "pitch": 33,
                "velocity": 80,
                "duration": 0.2022727,
                "tempo": 120.0
            },
            {
                "start_time": 108.6272727,
                "end_time": 108.8295455,
                "pitch": 33,
                "velocity": 80,
                "duration": 0.2022727,
                "tempo": 120.0
            },
            {
                "start_time": 108.8295455,
                "end_time": 109.0318182,
                "pitch": 33,
                "velocity": 80,
                "duration": 0.2022727,
                "tempo": 120.0
            },
            {
                "start_time": 109.0318182,
                "end_time": 109.2318182,
                "pitch": 33,
                "velocity": 80,
                "duration": 0.2,
                "tempo": 120.0
            },
            {
                "start_time": 109.2318182,
                "end_time": 109.4318182,
                "pitch": 33,
                "velocity": 80,
                "duration": 0.2,
                "tempo": 120.0
            },
            {
                "start_time": 109.4340909,
                "end_time": 109.6363636,
                "pitch": 33,
                "velocity": 80,
                "duration": 0.2022727,
                "tempo": 120.0
            },
            {
                "start_time": 109.6386364,
                "end_time": 109.8409091,
                "pitch": 33,
                "velocity": 80,
                "duration": 0.2022727,
                "tempo": 120.0
            },
            {
                "start_time": 109.8431818,
                "end_time": 110.0386364,
                "pitch": 33,
                "velocity": 80,
                "duration": 0.1954545,
                "tempo": 120.0
            },
            {
                "start_time": 110.0409091,
                "end_time": 110.2363636,
                "pitch": 33,
                "velocity": 80,
                "duration": 0.1954545,
                "tempo": 120.0
            },
            {
                "start_time": 110.2363636,
                "end_time": 110.4363636,
                "pitch": 33,
                "velocity": 80,
                "duration": 0.2,
                "tempo": 120.0
            },
            {
                "start_time": 110.4363636,
                "end_time": 110.6386364,
                "pitch": 33,
                "velocity": 80,
                "duration": 0.2022727,
                "tempo": 120.0
            },
            {
                "start_time": 110.6409091,
                "end_time": 110.8454545,
                "pitch": 33,
                "velocity": 80,
                "duration": 0.2045455,
                "tempo": 120.0
            },
            {
                "start_time": 110.8454545,
                "end_time": 111.05,
                "pitch": 33,
                "velocity": 80,
                "duration": 0.2045455,
                "tempo": 120.0
            },
            {
                "start_time": 111.0522727,
                "end_time": 111.2522727,
                "pitch": 33,
                "velocity": 80,
                "duration": 0.2,
                "tempo": 120.0
            },
            {
                "start_time": 111.2522727,
                "end_time": 111.4545455,
                "pitch": 33,
                "velocity": 80,
                "duration": 0.2022727,
                "tempo": 120.0
            },
            {
                "start_time": 111.4545455,
                "end_time": 111.6545455,
                "pitch": 33,
                "velocity": 80,
                "duration": 0.2,
                "tempo": 120.0
            },
            {
                "start_time": 111.6545455,
                "end_time": 111.8545455,
                "pitch": 33,
                "velocity": 80,
                "duration": 0.2,
                "tempo": 120.0
            },
            {
                "start_time": 111.8545455,
                "end_time": 112.0568182,
                "pitch": 33,
                "velocity": 80,
                "duration": 0.2022727,
                "tempo": 120.0
            },
            {
                "start_time": 112.0568182,
                "end_time": 112.2568182,
                "pitch": 33,
                "velocity": 80,
                "duration": 0.2,
                "tempo": 120.0
            },
            {
                "start_time": 112.2568182,
                "end_time": 112.4590909,
                "pitch": 33,
                "velocity": 80,
                "duration": 0.2022727,
                "tempo": 120.0
            },
            {
                "start_time": 112.4590909,
                "end_time": 112.6613636,
                "pitch": 33,
                "velocity": 80,
                "duration": 0.2022727,
                "tempo": 120.0
            },
            {
                "start_time": 112.6613636,
                "end_time": 112.8590909,
                "pitch": 33,
                "velocity": 80,
                "duration": 0.1977273,
                "tempo": 120.0
            },
            {
                "start_time": 112.8590909,
                "end_time": 113.0590909,
                "pitch": 33,
                "velocity": 80,
                "duration": 0.2,
                "tempo": 120.0
            },
            {
                "start_time": 113.0613636,
                "end_time": 113.2613636,
                "pitch": 33,
                "velocity": 80,
                "duration": 0.2,
                "tempo": 120.0
            },
            {
                "start_time": 113.2613636,
                "end_time": 113.4636364,
                "pitch": 33,
                "velocity": 80,
                "duration": 0.2022727,
                "tempo": 120.0
            },
            {
                "start_time": 113.4636364,
                "end_time": 113.6636364,
                "pitch": 33,
                "velocity": 80,
                "duration": 0.2,
                "tempo": 120.0
            },
            {
                "start_time": 113.6636364,
                "end_time": 113.8636364,
                "pitch": 33,
                "velocity": 80,
                "duration": 0.2,
                "tempo": 120.0
            },
            {
                "start_time": 113.8636364,
                "end_time": 114.0659091,
                "pitch": 33,
                "velocity": 80,
                "duration": 0.2022727,
                "tempo": 120.0
            },
            {
                "start_time": 114.0659091,
                "end_time": 114.2659091,
                "pitch": 33,
                "velocity": 80,
                "duration": 0.2,
                "tempo": 120.0
            },
            {
                "start_time": 114.2681818,
                "end_time": 114.4681818,
                "pitch": 33,
                "velocity": 80,
                "duration": 0.2,
                "tempo": 120.0
            },
            {
                "start_time": 114.4681818,
                "end_time": 114.6681818,
                "pitch": 33,
                "velocity": 80,
                "duration": 0.2,
                "tempo": 120.0
            },
            {
                "start_time": 114.6704545,
                "end_time": 114.8704545,
                "pitch": 33,
                "velocity": 80,
                "duration": 0.2,
                "tempo": 120.0
            },
            {
                "start_time": 114.8704545,
                "end_time": 115.0704545,
                "pitch": 33,
                "velocity": 80,
                "duration": 0.2,
                "tempo": 120.0
            },
            {
                "start_time": 115.0704545,
                "end_time": 115.2704545,
                "pitch": 33,
                "velocity": 80,
                "duration": 0.2,
                "tempo": 120.0
            },
            {
                "start_time": 115.2727273,
                "end_time": 115.4727273,
                "pitch": 33,
                "velocity": 80,
                "duration": 0.2,
                "tempo": 120.0
            },
            {
                "start_time": 115.4727273,
                "end_time": 115.6727273,
                "pitch": 33,
                "velocity": 80,
                "duration": 0.2,
                "tempo": 120.0
            },
            {
                "start_time": 115.675,
                "end_time": 115.875,
                "pitch": 33,
                "velocity": 80,
                "duration": 0.2,
                "tempo": 120.0
            },
            {
                "start_time": 115.8772727,
                "end_time": 116.0772727,
                "pitch": 43,
                "velocity": 80,
                "duration": 0.2,
                "tempo": 120.0
            },
            {
                "start_time": 116.0772727,
                "end_time": 116.2772727,
                "pitch": 43,
                "velocity": 80,
                "duration": 0.2,
                "tempo": 120.0
            },
            {
                "start_time": 116.2795455,
                "end_time": 116.4795455,
                "pitch": 43,
                "velocity": 80,
                "duration": 0.2,
                "tempo": 120.0
            },
            {
                "start_time": 116.4818182,
                "end_time": 116.6818182,
                "pitch": 43,
                "velocity": 80,
                "duration": 0.2,
                "tempo": 120.0
            },
            {
                "start_time": 116.6818182,
                "end_time": 116.8818182,
                "pitch": 43,
                "velocity": 80,
                "duration": 0.2,
                "tempo": 120.0
            },
            {
                "start_time": 116.8818182,
                "end_time": 117.0818182,
                "pitch": 43,
                "velocity": 80,
                "duration": 0.2,
                "tempo": 120.0
            },
            {
                "start_time": 117.0818182,
                "end_time": 117.2818182,
                "pitch": 43,
                "velocity": 80,
                "duration": 0.2,
                "tempo": 120.0
            },
            {
                "start_time": 117.2840909,
                "end_time": 117.4863636,
                "pitch": 43,
                "velocity": 80,
                "duration": 0.2022727,
                "tempo": 120.0
            },
            {
                "start_time": 117.4863636,
                "end_time": 117.6909091,
                "pitch": 43,
                "velocity": 80,
                "duration": 0.2045455,
                "tempo": 120.0
            },
            {
                "start_time": 117.6909091,
                "end_time": 117.8954545,
                "pitch": 43,
                "velocity": 80,
                "duration": 0.2045455,
                "tempo": 120.0
            },
            {
                "start_time": 117.8977273,
                "end_time": 118.0977273,
                "pitch": 43,
                "velocity": 80,
                "duration": 0.2,
                "tempo": 120.0
            },
            {
                "start_time": 118.0977273,
                "end_time": 118.3,
                "pitch": 43,
                "velocity": 80,
                "duration": 0.2022727,
                "tempo": 120.0
            },
            {
                "start_time": 118.3022727,
                "end_time": 118.5,
                "pitch": 43,
                "velocity": 80,
                "duration": 0.1977273,
                "tempo": 120.0
            },
            {
                "start_time": 118.5,
                "end_time": 118.7,
                "pitch": 43,
                "velocity": 80,
                "duration": 0.2,
                "tempo": 120.0
            },
            {
                "start_time": 118.7,
                "end_time": 118.9022727,
                "pitch": 43,
                "velocity": 80,
                "duration": 0.2022727,
                "tempo": 120.0
            },
            {
                "start_time": 118.9022727,
                "end_time": 119.1045455,
                "pitch": 43,
                "velocity": 80,
                "duration": 0.2022727,
                "tempo": 120.0
            },
            {
                "start_time": 119.1045455,
                "end_time": 119.3045455,
                "pitch": 40,
                "velocity": 80,
                "duration": 0.2,
                "tempo": 120.0
            },
            {
                "start_time": 119.3045455,
                "end_time": 119.5045455,
                "pitch": 40,
                "velocity": 80,
                "duration": 0.2,
                "tempo": 120.0
            },
            {
                "start_time": 119.5045455,
                "end_time": 119.7068182,
                "pitch": 40,
                "velocity": 80,
                "duration": 0.2022727,
                "tempo": 120.0
            },
            {
                "start_time": 119.7068182,
                "end_time": 119.9068182,
                "pitch": 40,
                "velocity": 80,
                "duration": 0.2,
                "tempo": 120.0
            },
            {
                "start_time": 119.9090909,
                "end_time": 120.1090909,
                "pitch": 40,
                "velocity": 80,
                "duration": 0.2,
                "tempo": 120.0
            },
            {
                "start_time": 120.1090909,
                "end_time": 120.3113636,
                "pitch": 40,
                "velocity": 80,
                "duration": 0.2022727,
                "tempo": 120.0
            },
            {
                "start_time": 120.3113636,
                "end_time": 120.5090909,
                "pitch": 40,
                "velocity": 80,
                "duration": 0.1977273,
                "tempo": 120.0
            },
            {
                "start_time": 120.5113636,
                "end_time": 120.7113636,
                "pitch": 40,
                "velocity": 80,
                "duration": 0.2,
                "tempo": 120.0
            },
            {
                "start_time": 120.7136364,
                "end_time": 120.9113636,
                "pitch": 40,
                "velocity": 80,
                "duration": 0.1977273,
                "tempo": 120.0
            },
            {
                "start_time": 120.9136364,
                "end_time": 121.1136364,
                "pitch": 40,
                "velocity": 80,
                "duration": 0.2,
                "tempo": 120.0
            },
            {
                "start_time": 121.1159091,
                "end_time": 121.3136364,
                "pitch": 40,
                "velocity": 80,
                "duration": 0.1977273,
                "tempo": 120.0
            },
            {
                "start_time": 121.3136364,
                "end_time": 121.5159091,
                "pitch": 40,
                "velocity": 80,
                "duration": 0.2022727,
                "tempo": 120.0
            },
            {
                "start_time": 121.5159091,
                "end_time": 121.7159091,
                "pitch": 40,
                "velocity": 80,
                "duration": 0.2,
                "tempo": 120.0
            },
            {
                "start_time": 121.7181818,
                "end_time": 121.9181818,
                "pitch": 40,
                "velocity": 80,
                "duration": 0.2,
                "tempo": 120.0
            },
            {
                "start_time": 121.9181818,
                "end_time": 122.1204545,
                "pitch": 40,
                "velocity": 80,
                "duration": 0.2022727,
                "tempo": 120.0
            },
            {
                "start_time": 122.1204545,
                "end_time": 122.3204545,
                "pitch": 40,
                "velocity": 80,
                "duration": 0.2,
                "tempo": 120.0
            },
            {
                "start_time": 122.3227273,
                "end_time": 122.5204545,
                "pitch": 41,
                "velocity": 80,
                "duration": 0.1977273,
                "tempo": 120.0
            },
            {
                "start_time": 122.5227273,
                "end_time": 122.7204545,
                "pitch": 41,
                "velocity": 80,
                "duration": 0.1977273,
                "tempo": 120.0
            },
            {
                "start_time": 122.7227273,
                "end_time": 122.9227273,
                "pitch": 41,
                "velocity": 80,
                "duration": 0.2,
                "tempo": 120.0
            },
            {
                "start_time": 122.925,
                "end_time": 123.125,
                "pitch": 41,
                "velocity": 80,
                "duration": 0.2,
                "tempo": 120.0
            },
            {
                "start_time": 123.125,
                "end_time": 123.325,
                "pitch": 41,
                "velocity": 80,
                "duration": 0.2,
                "tempo": 120.0
            },
            {
                "start_time": 123.325,
                "end_time": 123.525,
                "pitch": 41,
                "velocity": 80,
                "duration": 0.2,
                "tempo": 120.0
            },
            {
                "start_time": 123.5272727,
                "end_time": 123.7272727,
                "pitch": 41,
                "velocity": 80,
                "duration": 0.2,
                "tempo": 120.0
            },
            {
                "start_time": 123.7272727,
                "end_time": 123.9295455,
                "pitch": 41,
                "velocity": 80,
                "duration": 0.2022727,
                "tempo": 120.0
            },
            {
                "start_time": 123.9295455,
                "end_time": 124.1295455,
                "pitch": 41,
                "velocity": 80,
                "duration": 0.2,
                "tempo": 120.0
            },
            {
                "start_time": 124.1295455,
                "end_time": 124.3318182,
                "pitch": 41,
                "velocity": 80,
                "duration": 0.2022727,
                "tempo": 120.0
            },
            {
                "start_time": 124.3318182,
                "end_time": 124.5318182,
                "pitch": 41,
                "velocity": 80,
                "duration": 0.2,
                "tempo": 120.0
            },
            {
                "start_time": 124.5318182,
                "end_time": 124.7318182,
                "pitch": 41,
                "velocity": 80,
                "duration": 0.2,
                "tempo": 120.0
            },
            {
                "start_time": 124.7340909,
                "end_time": 124.9340909,
                "pitch": 41,
                "velocity": 80,
                "duration": 0.2,
                "tempo": 120.0
            },
            {
                "start_time": 124.9340909,
                "end_time": 125.1340909,
                "pitch": 41,
                "velocity": 80,
                "duration": 0.2,
                "tempo": 120.0
            },
            {
                "start_time": 125.1363636,
                "end_time": 125.3363636,
                "pitch": 41,
                "velocity": 80,
                "duration": 0.2,
                "tempo": 120.0
            },
            {
                "start_time": 125.3363636,
                "end_time": 125.5363636,
                "pitch": 41,
                "velocity": 80,
                "duration": 0.2,
                "tempo": 120.0
            },
            {
                "start_time": 125.5363636,
                "end_time": 125.7409091,
                "pitch": 43,
                "velocity": 80,
                "duration": 0.2045455,
                "tempo": 120.0
            },
            {
                "start_time": 125.7431818,
                "end_time": 125.9454545,
                "pitch": 43,
                "velocity": 80,
                "duration": 0.2022727,
                "tempo": 120.0
            },
            {
                "start_time": 125.9477273,
                "end_time": 126.1477273,
                "pitch": 43,
                "velocity": 80,
                "duration": 0.2,
                "tempo": 120.0
            },
            {
                "start_time": 126.1477273,
                "end_time": 126.3477273,
                "pitch": 43,
                "velocity": 80,
                "duration": 0.2,
                "tempo": 120.0
            },
            {
                "start_time": 126.3477273,
                "end_time": 126.55,
                "pitch": 43,
                "velocity": 80,
                "duration": 0.2022727,
                "tempo": 120.0
            },
            {
                "start_time": 126.55,
                "end_time": 126.7522727,
                "pitch": 43,
                "velocity": 80,
                "duration": 0.2022727,
                "tempo": 120.0
            },
            {
                "start_time": 126.7522727,
                "end_time": 126.9522727,
                "pitch": 43,
                "velocity": 80,
                "duration": 0.2,
                "tempo": 120.0
            },
            {
                "start_time": 126.9545455,
                "end_time": 127.35,
                "pitch": 47,
                "velocity": 80,
                "duration": 0.3954545,
                "tempo": 120.0
            },
            {
                "start_time": 127.35,
                "end_time": 127.5454545,
                "pitch": 47,
                "velocity": 80,
                "duration": 0.1954545,
                "tempo": 120.0
            },
            {
                "start_time": 127.5454545,
                "end_time": 127.7522727,
                "pitch": 47,
                "velocity": 80,
                "duration": 0.2068182,
                "tempo": 120.0
            },
            {
                "start_time": 127.7522727,
                "end_time": 127.9568182,
                "pitch": 47,
                "velocity": 80,
                "duration": 0.2045455,
                "tempo": 120.0
            },
            {
                "start_time": 127.9590909,
                "end_time": 128.1568182,
                "pitch": 47,
                "velocity": 80,
                "duration": 0.1977273,
                "tempo": 120.0
            },
            {
                "start_time": 128.1590909,
                "end_time": 128.3568182,
                "pitch": 47,
                "velocity": 80,
                "duration": 0.1977273,
                "tempo": 120.0
            },
            {
                "start_time": 128.3590909,
                "end_time": 128.5590909,
                "pitch": 47,
                "velocity": 80,
                "duration": 0.2,
                "tempo": 120.0
            },
            {
                "start_time": 128.5590909,
                "end_time": 128.7636364,
                "pitch": 47,
                "velocity": 80,
                "duration": 0.2045455,
                "tempo": 120.0
            },
            {
                "start_time": 128.7636364,
                "end_time": 128.9659091,
                "pitch": 40,
                "velocity": 80,
                "duration": 0.2022727,
                "tempo": 120.0
            },
            {
                "start_time": 128.9659091,
                "end_time": 129.1659091,
                "pitch": 40,
                "velocity": 80,
                "duration": 0.2,
                "tempo": 120.0
            },
            {
                "start_time": 129.1659091,
                "end_time": 129.3659091,
                "pitch": 40,
                "velocity": 80,
                "duration": 0.2,
                "tempo": 120.0
            },
            {
                "start_time": 129.3681818,
                "end_time": 129.5681818,
                "pitch": 40,
                "velocity": 80,
                "duration": 0.2,
                "tempo": 120.0
            },
            {
                "start_time": 129.5681818,
                "end_time": 129.7681818,
                "pitch": 40,
                "velocity": 80,
                "duration": 0.2,
                "tempo": 120.0
            },
            {
                "start_time": 129.7681818,
                "end_time": 129.9681818,
                "pitch": 40,
                "velocity": 80,
                "duration": 0.2,
                "tempo": 120.0
            },
            {
                "start_time": 129.9704545,
                "end_time": 130.1704545,
                "pitch": 40,
                "velocity": 80,
                "duration": 0.2,
                "tempo": 120.0
            },
            {
                "start_time": 130.1704545,
                "end_time": 130.3727273,
                "pitch": 40,
                "velocity": 80,
                "duration": 0.2022727,
                "tempo": 120.0
            },
            {
                "start_time": 130.3727273,
                "end_time": 130.5727273,
                "pitch": 40,
                "velocity": 80,
                "duration": 0.2,
                "tempo": 120.0
            },
            {
                "start_time": 130.5727273,
                "end_time": 130.775,
                "pitch": 40,
                "velocity": 80,
                "duration": 0.2022727,
                "tempo": 120.0
            },
            {
                "start_time": 130.775,
                "end_time": 130.9772727,
                "pitch": 40,
                "velocity": 80,
                "duration": 0.2022727,
                "tempo": 120.0
            },
            {
                "start_time": 130.9772727,
                "end_time": 131.1772727,
                "pitch": 40,
                "velocity": 80,
                "duration": 0.2,
                "tempo": 120.0
            },
            {
                "start_time": 131.1795455,
                "end_time": 131.3795455,
                "pitch": 40,
                "velocity": 80,
                "duration": 0.2,
                "tempo": 120.0
            },
            {
                "start_time": 131.3818182,
                "end_time": 131.5818182,
                "pitch": 40,
                "velocity": 80,
                "duration": 0.2,
                "tempo": 120.0
            },
            {
                "start_time": 131.5818182,
                "end_time": 131.7818182,
                "pitch": 40,
                "velocity": 80,
                "duration": 0.2,
                "tempo": 120.0
            },
            {
                "start_time": 131.7818182,
                "end_time": 131.9818182,
                "pitch": 40,
                "velocity": 80,
                "duration": 0.2,
                "tempo": 120.0
            },
            {
                "start_time": 131.9840909,
                "end_time": 132.1886364,
                "pitch": 36,
                "velocity": 80,
                "duration": 0.2045455,
                "tempo": 120.0
            },
            {
                "start_time": 132.1886364,
                "end_time": 132.3931818,
                "pitch": 36,
                "velocity": 80,
                "duration": 0.2045455,
                "tempo": 120.0
            },
            {
                "start_time": 132.3931818,
                "end_time": 132.5886364,
                "pitch": 36,
                "velocity": 80,
                "duration": 0.1954545,
                "tempo": 120.0
            },
            {
                "start_time": 132.5909091,
                "end_time": 132.7863636,
                "pitch": 36,
                "velocity": 80,
                "duration": 0.1954545,
                "tempo": 120.0
            },
            {
                "start_time": 132.7863636,
                "end_time": 132.9909091,
                "pitch": 36,
                "velocity": 80,
                "duration": 0.2045455,
                "tempo": 120.0
            },
            {
                "start_time": 132.9909091,
                "end_time": 133.1977273,
                "pitch": 36,
                "velocity": 80,
                "duration": 0.2068182,
                "tempo": 120.0
            },
            {
                "start_time": 133.1977273,
                "end_time": 133.3977273,
                "pitch": 36,
                "velocity": 80,
                "duration": 0.2,
                "tempo": 120.0
            },
            {
                "start_time": 133.4,
                "end_time": 133.6022727,
                "pitch": 36,
                "velocity": 80,
                "duration": 0.2022727,
                "tempo": 120.0
            },
            {
                "start_time": 133.6022727,
                "end_time": 133.8022727,
                "pitch": 36,
                "velocity": 80,
                "duration": 0.2,
                "tempo": 120.0
            },
            {
                "start_time": 133.8022727,
                "end_time": 134.0022727,
                "pitch": 36,
                "velocity": 80,
                "duration": 0.2,
                "tempo": 120.0
            },
            {
                "start_time": 134.0045455,
                "end_time": 134.2045455,
                "pitch": 36,
                "velocity": 80,
                "duration": 0.2,
                "tempo": 120.0
            },
            {
                "start_time": 134.2045455,
                "end_time": 134.4045455,
                "pitch": 36,
                "velocity": 80,
                "duration": 0.2,
                "tempo": 120.0
            },
            {
                "start_time": 134.4045455,
                "end_time": 134.6068182,
                "pitch": 36,
                "velocity": 80,
                "duration": 0.2022727,
                "tempo": 120.0
            },
            {
                "start_time": 134.6068182,
                "end_time": 134.8068182,
                "pitch": 36,
                "velocity": 80,
                "duration": 0.2,
                "tempo": 120.0
            },
            {
                "start_time": 134.8068182,
                "end_time": 135.0090909,
                "pitch": 36,
                "velocity": 80,
                "duration": 0.2022727,
                "tempo": 120.0
            },
            {
                "start_time": 135.0090909,
                "end_time": 135.2113636,
                "pitch": 36,
                "velocity": 80,
                "duration": 0.2022727,
                "tempo": 120.0
            },
            {
                "start_time": 135.2113636,
                "end_time": 135.4136364,
                "pitch": 38,
                "velocity": 80,
                "duration": 0.2022727,
                "tempo": 120.0
            },
            {
                "start_time": 135.4136364,
                "end_time": 135.6136364,
                "pitch": 38,
                "velocity": 80,
                "duration": 0.2,
                "tempo": 120.0
            },
            {
                "start_time": 135.6136364,
                "end_time": 135.8159091,
                "pitch": 38,
                "velocity": 80,
                "duration": 0.2022727,
                "tempo": 120.0
            },
            {
                "start_time": 135.8159091,
                "end_time": 136.0181818,
                "pitch": 38,
                "velocity": 80,
                "duration": 0.2022727,
                "tempo": 120.0
            },
            {
                "start_time": 136.0181818,
                "end_time": 136.2159091,
                "pitch": 38,
                "velocity": 80,
                "duration": 0.1977273,
                "tempo": 120.0
            },
            {
                "start_time": 136.2181818,
                "end_time": 136.4181818,
                "pitch": 38,
                "velocity": 80,
                "duration": 0.2,
                "tempo": 120.0
            },
            {
                "start_time": 136.4181818,
                "end_time": 136.6181818,
                "pitch": 38,
                "velocity": 80,
                "duration": 0.2,
                "tempo": 120.0
            },
            {
                "start_time": 136.6204545,
                "end_time": 136.8204545,
                "pitch": 38,
                "velocity": 80,
                "duration": 0.2,
                "tempo": 120.0
            },
            {
                "start_time": 136.8227273,
                "end_time": 137.0204545,
                "pitch": 38,
                "velocity": 80,
                "duration": 0.1977273,
                "tempo": 120.0
            },
            {
                "start_time": 137.0227273,
                "end_time": 137.2227273,
                "pitch": 38,
                "velocity": 80,
                "duration": 0.2,
                "tempo": 120.0
            },
            {
                "start_time": 137.225,
                "end_time": 137.425,
                "pitch": 38,
                "velocity": 80,
                "duration": 0.2,
                "tempo": 120.0
            },
            {
                "start_time": 137.4272727,
                "end_time": 137.6272727,
                "pitch": 38,
                "velocity": 80,
                "duration": 0.2,
                "tempo": 120.0
            },
            {
                "start_time": 137.6272727,
                "end_time": 137.8295455,
                "pitch": 38,
                "velocity": 80,
                "duration": 0.2022727,
                "tempo": 120.0
            },
            {
                "start_time": 137.8295455,
                "end_time": 138.0295455,
                "pitch": 38,
                "velocity": 80,
                "duration": 0.2,
                "tempo": 120.0
            },
            {
                "start_time": 138.0295455,
                "end_time": 138.2295455,
                "pitch": 38,
                "velocity": 80,
                "duration": 0.2,
                "tempo": 120.0
            },
            {
                "start_time": 138.2318182,
                "end_time": 138.4318182,
                "pitch": 38,
                "velocity": 80,
                "duration": 0.2,
                "tempo": 120.0
            },
            {
                "start_time": 138.4318182,
                "end_time": 138.6340909,
                "pitch": 36,
                "velocity": 80,
                "duration": 0.2022727,
                "tempo": 120.0
            },
            {
                "start_time": 138.6340909,
                "end_time": 138.8340909,
                "pitch": 36,
                "velocity": 80,
                "duration": 0.2,
                "tempo": 120.0
            },
            {
                "start_time": 138.8340909,
                "end_time": 139.0340909,
                "pitch": 36,
                "velocity": 80,
                "duration": 0.2,
                "tempo": 120.0
            },
            {
                "start_time": 139.0363636,
                "end_time": 139.2363636,
                "pitch": 36,
                "velocity": 80,
                "duration": 0.2,
                "tempo": 120.0
            },
            {
                "start_time": 139.2386364,
                "end_time": 139.4386364,
                "pitch": 36,
                "velocity": 80,
                "duration": 0.2,
                "tempo": 120.0
            },
            {
                "start_time": 139.4386364,
                "end_time": 139.6409091,
                "pitch": 36,
                "velocity": 80,
                "duration": 0.2022727,
                "tempo": 120.0
            },
            {
                "start_time": 139.6409091,
                "end_time": 139.8431818,
                "pitch": 36,
                "velocity": 80,
                "duration": 0.2022727,
                "tempo": 120.0
            },
            {
                "start_time": 139.8431818,
                "end_time": 140.0431818,
                "pitch": 36,
                "velocity": 80,
                "duration": 0.2,
                "tempo": 120.0
            },
            {
                "start_time": 140.0454545,
                "end_time": 140.25,
                "pitch": 36,
                "velocity": 80,
                "duration": 0.2045455,
                "tempo": 120.0
            },
            {
                "start_time": 140.25,
                "end_time": 140.4545455,
                "pitch": 36,
                "velocity": 80,
                "duration": 0.2045455,
                "tempo": 120.0
            },
            {
                "start_time": 140.4545455,
                "end_time": 140.65,
                "pitch": 36,
                "velocity": 80,
                "duration": 0.1954545,
                "tempo": 120.0
            },
            {
                "start_time": 140.65,
                "end_time": 140.8477273,
                "pitch": 36,
                "velocity": 80,
                "duration": 0.1977273,
                "tempo": 120.0
            },
            {
                "start_time": 140.8477273,
                "end_time": 141.0522727,
                "pitch": 36,
                "velocity": 80,
                "duration": 0.2045455,
                "tempo": 120.0
            },
            {
                "start_time": 141.0545455,
                "end_time": 141.2590909,
                "pitch": 36,
                "velocity": 80,
                "duration": 0.2045455,
                "tempo": 120.0
            },
            {
                "start_time": 141.2590909,
                "end_time": 141.4613636,
                "pitch": 36,
                "velocity": 80,
                "duration": 0.2022727,
                "tempo": 120.0
            },
            {
                "start_time": 141.4613636,
                "end_time": 141.6613636,
                "pitch": 36,
                "velocity": 80,
                "duration": 0.2,
                "tempo": 120.0
            },
            {
                "start_time": 141.6636364,
                "end_time": 141.8636364,
                "pitch": 40,
                "velocity": 80,
                "duration": 0.2,
                "tempo": 120.0
            },
            {
                "start_time": 141.8659091,
                "end_time": 142.0659091,
                "pitch": 40,
                "velocity": 80,
                "duration": 0.2,
                "tempo": 120.0
            },
            {
                "start_time": 142.0659091,
                "end_time": 142.2659091,
                "pitch": 40,
                "velocity": 80,
                "duration": 0.2,
                "tempo": 120.0
            },
            {
                "start_time": 142.2681818,
                "end_time": 142.4681818,
                "pitch": 40,
                "velocity": 80,
                "duration": 0.2,
                "tempo": 120.0
            },
            {
                "start_time": 142.4704545,
                "end_time": 142.6704545,
                "pitch": 40,
                "velocity": 80,
                "duration": 0.2,
                "tempo": 120.0
            },
            {
                "start_time": 142.6704545,
                "end_time": 142.8727273,
                "pitch": 40,
                "velocity": 80,
                "duration": 0.2022727,
                "tempo": 120.0
            },
            {
                "start_time": 142.8727273,
                "end_time": 143.0704545,
                "pitch": 40,
                "velocity": 80,
                "duration": 0.1977273,
                "tempo": 120.0
            },
            {
                "start_time": 143.0727273,
                "end_time": 143.2727273,
                "pitch": 40,
                "velocity": 80,
                "duration": 0.2,
                "tempo": 120.0
            },
            {
                "start_time": 143.275,
                "end_time": 143.4727273,
                "pitch": 40,
                "velocity": 80,
                "duration": 0.1977273,
                "tempo": 120.0
            },
            {
                "start_time": 143.4727273,
                "end_time": 143.675,
                "pitch": 40,
                "velocity": 80,
                "duration": 0.2022727,
                "tempo": 120.0
            },
            {
                "start_time": 143.675,
                "end_time": 143.8772727,
                "pitch": 40,
                "velocity": 80,
                "duration": 0.2022727,
                "tempo": 120.0
            },
            {
                "start_time": 143.8772727,
                "end_time": 144.0772727,
                "pitch": 40,
                "velocity": 80,
                "duration": 0.2,
                "tempo": 120.0
            },
            {
                "start_time": 144.0795455,
                "end_time": 144.2795455,
                "pitch": 40,
                "velocity": 80,
                "duration": 0.2,
                "tempo": 120.0
            },
            {
                "start_time": 144.2818182,
                "end_time": 144.4818182,
                "pitch": 40,
                "velocity": 80,
                "duration": 0.2,
                "tempo": 120.0
            },
            {
                "start_time": 144.4818182,
                "end_time": 144.6840909,
                "pitch": 40,
                "velocity": 80,
                "duration": 0.2022727,
                "tempo": 120.0
            },
            {
                "start_time": 144.6840909,
                "end_time": 144.8840909,
                "pitch": 40,
                "velocity": 80,
                "duration": 0.2,
                "tempo": 120.0
            },
            {
                "start_time": 144.8863636,
                "end_time": 145.0863636,
                "pitch": 36,
                "velocity": 80,
                "duration": 0.2,
                "tempo": 120.0
            },
            {
                "start_time": 145.0863636,
                "end_time": 145.2863636,
                "pitch": 36,
                "velocity": 80,
                "duration": 0.2,
                "tempo": 120.0
            },
            {
                "start_time": 145.2863636,
                "end_time": 145.4863636,
                "pitch": 36,
                "velocity": 80,
                "duration": 0.2,
                "tempo": 120.0
            },
            {
                "start_time": 145.4863636,
                "end_time": 145.6886364,
                "pitch": 36,
                "velocity": 80,
                "duration": 0.2022727,
                "tempo": 120.0
            },
            {
                "start_time": 145.6886364,
                "end_time": 145.8909091,
                "pitch": 36,
                "velocity": 80,
                "duration": 0.2022727,
                "tempo": 120.0
            },
            {
                "start_time": 145.8909091,
                "end_time": 146.0909091,
                "pitch": 36,
                "velocity": 80,
                "duration": 0.2,
                "tempo": 120.0
            },
            {
                "start_time": 146.0931818,
                "end_time": 146.2931818,
                "pitch": 36,
                "velocity": 80,
                "duration": 0.2,
                "tempo": 120.0
            },
            {
                "start_time": 146.2931818,
                "end_time": 146.4954545,
                "pitch": 36,
                "velocity": 80,
                "duration": 0.2022727,
                "tempo": 120.0
            },
            {
                "start_time": 146.4977273,
                "end_time": 146.6977273,
                "pitch": 36,
                "velocity": 80,
                "duration": 0.2,
                "tempo": 120.0
            },
            {
                "start_time": 146.6977273,
                "end_time": 146.8977273,
                "pitch": 36,
                "velocity": 80,
                "duration": 0.2,
                "tempo": 120.0
            },
            {
                "start_time": 146.8977273,
                "end_time": 147.0977273,
                "pitch": 36,
                "velocity": 80,
                "duration": 0.2,
                "tempo": 120.0
            },
            {
                "start_time": 147.1,
                "end_time": 147.2977273,
                "pitch": 36,
                "velocity": 80,
                "duration": 0.1977273,
                "tempo": 120.0
            },
            {
                "start_time": 147.3,
                "end_time": 147.5,
                "pitch": 36,
                "velocity": 80,
                "duration": 0.2,
                "tempo": 120.0
            },
            {
                "start_time": 147.5022727,
                "end_time": 147.7022727,
                "pitch": 36,
                "velocity": 80,
                "duration": 0.2,
                "tempo": 120.0
            },
            {
                "start_time": 147.7022727,
                "end_time": 147.9045455,
                "pitch": 36,
                "velocity": 80,
                "duration": 0.2022727,
                "tempo": 120.0
            },
            {
                "start_time": 147.9045455,
                "end_time": 148.1045455,
                "pitch": 36,
                "velocity": 80,
                "duration": 0.2,
                "tempo": 120.0
            },
            {
                "start_time": 148.1068182,
                "end_time": 148.3113636,
                "pitch": 38,
                "velocity": 80,
                "duration": 0.2045455,
                "tempo": 120.0
            },
            {
                "start_time": 148.3113636,
                "end_time": 148.5159091,
                "pitch": 38,
                "velocity": 80,
                "duration": 0.2045455,
                "tempo": 120.0
            },
            {
                "start_time": 148.5181818,
                "end_time": 148.7181818,
                "pitch": 38,
                "velocity": 80,
                "duration": 0.2,
                "tempo": 120.0
            },
            {
                "start_time": 148.7181818,
                "end_time": 148.9204545,
                "pitch": 38,
                "velocity": 80,
                "duration": 0.2022727,
                "tempo": 120.0
            },
            {
                "start_time": 148.9204545,
                "end_time": 149.1204545,
                "pitch": 38,
                "velocity": 80,
                "duration": 0.2,
                "tempo": 120.0
            },
            {
                "start_time": 149.1227273,
                "end_time": 149.3227273,
                "pitch": 38,
                "velocity": 80,
                "duration": 0.2,
                "tempo": 120.0
            },
            {
                "start_time": 149.325,
                "end_time": 149.525,
                "pitch": 38,
                "velocity": 80,
                "duration": 0.2,
                "tempo": 120.0
            },
            {
                "start_time": 149.525,
                "end_time": 149.7272727,
                "pitch": 38,
                "velocity": 80,
                "duration": 0.2022727,
                "tempo": 120.0
            },
            {
                "start_time": 149.7272727,
                "end_time": 149.925,
                "pitch": 38,
                "velocity": 80,
                "duration": 0.1977273,
                "tempo": 120.0
            },
            {
                "start_time": 149.9272727,
                "end_time": 150.1272727,
                "pitch": 38,
                "velocity": 80,
                "duration": 0.2,
                "tempo": 120.0
            },
            {
                "start_time": 150.1272727,
                "end_time": 150.3295455,
                "pitch": 38,
                "velocity": 80,
                "duration": 0.2022727,
                "tempo": 120.0
            },
            {
                "start_time": 150.3295455,
                "end_time": 150.5295455,
                "pitch": 38,
                "velocity": 80,
                "duration": 0.2,
                "tempo": 120.0
            },
            {
                "start_time": 150.5295455,
                "end_time": 150.7318182,
                "pitch": 38,
                "velocity": 80,
                "duration": 0.2022727,
                "tempo": 120.0
            },
            {
                "start_time": 150.7318182,
                "end_time": 150.9318182,
                "pitch": 38,
                "velocity": 80,
                "duration": 0.2,
                "tempo": 120.0
            },
            {
                "start_time": 150.9340909,
                "end_time": 151.1340909,
                "pitch": 38,
                "velocity": 80,
                "duration": 0.2,
                "tempo": 120.0
            },
            {
                "start_time": 151.1363636,
                "end_time": 151.3363636,
                "pitch": 38,
                "velocity": 80,
                "duration": 0.2,
                "tempo": 120.0
            },
            {
                "start_time": 151.3386364,
                "end_time": 151.5386364,
                "pitch": 36,
                "velocity": 80,
                "duration": 0.2,
                "tempo": 120.0
            },
            {
                "start_time": 151.5386364,
                "end_time": 151.7386364,
                "pitch": 36,
                "velocity": 80,
                "duration": 0.2,
                "tempo": 120.0
            },
            {
                "start_time": 151.7409091,
                "end_time": 151.9386364,
                "pitch": 36,
                "velocity": 80,
                "duration": 0.1977273,
                "tempo": 120.0
            },
            {
                "start_time": 151.9409091,
                "end_time": 152.1409091,
                "pitch": 36,
                "velocity": 80,
                "duration": 0.2,
                "tempo": 120.0
            },
            {
                "start_time": 152.1409091,
                "end_time": 152.3409091,
                "pitch": 36,
                "velocity": 80,
                "duration": 0.2,
                "tempo": 120.0
            },
            {
                "start_time": 152.3431818,
                "end_time": 152.5431818,
                "pitch": 36,
                "velocity": 80,
                "duration": 0.2,
                "tempo": 120.0
            },
            {
                "start_time": 152.5454545,
                "end_time": 152.7454545,
                "pitch": 36,
                "velocity": 80,
                "duration": 0.2,
                "tempo": 120.0
            },
            {
                "start_time": 152.7454545,
                "end_time": 152.9454545,
                "pitch": 36,
                "velocity": 80,
                "duration": 0.2,
                "tempo": 120.0
            },
            {
                "start_time": 152.9477273,
                "end_time": 153.1477273,
                "pitch": 40,
                "velocity": 80,
                "duration": 0.2,
                "tempo": 120.0
            },
            {
                "start_time": 153.15,
                "end_time": 153.3477273,
                "pitch": 40,
                "velocity": 80,
                "duration": 0.1977273,
                "tempo": 120.0
            },
            {
                "start_time": 153.35,
                "end_time": 153.55,
                "pitch": 40,
                "velocity": 80,
                "duration": 0.2,
                "tempo": 120.0
            },
            {
                "start_time": 153.5522727,
                "end_time": 153.7522727,
                "pitch": 40,
                "velocity": 80,
                "duration": 0.2,
                "tempo": 120.0
            },
            {
                "start_time": 153.7522727,
                "end_time": 153.9522727,
                "pitch": 40,
                "velocity": 80,
                "duration": 0.2,
                "tempo": 120.0
            },
            {
                "start_time": 153.9522727,
                "end_time": 154.1522727,
                "pitch": 40,
                "velocity": 80,
                "duration": 0.2,
                "tempo": 120.0
            },
            {
                "start_time": 154.1522727,
                "end_time": 154.3545455,
                "pitch": 40,
                "velocity": 80,
                "duration": 0.2022727,
                "tempo": 120.0
            },
            {
                "start_time": 154.3545455,
                "end_time": 154.5590909,
                "pitch": 40,
                "velocity": 80,
                "duration": 0.2045455,
                "tempo": 120.0
            },
            {
                "start_time": 154.5590909,
                "end_time": 154.7613636,
                "pitch": 38,
                "velocity": 80,
                "duration": 0.2022727,
                "tempo": 120.0
            },
            {
                "start_time": 154.7613636,
                "end_time": 154.9613636,
                "pitch": 38,
                "velocity": 80,
                "duration": 0.2,
                "tempo": 120.0
            },
            {
                "start_time": 154.9613636,
                "end_time": 155.1636364,
                "pitch": 38,
                "velocity": 80,
                "duration": 0.2022727,
                "tempo": 120.0
            },
            {
                "start_time": 155.1636364,
                "end_time": 155.3659091,
                "pitch": 38,
                "velocity": 80,
                "duration": 0.2022727,
                "tempo": 120.0
            },
            {
                "start_time": 155.3659091,
                "end_time": 155.5659091,
                "pitch": 38,
                "velocity": 80,
                "duration": 0.2,
                "tempo": 120.0
            },
            {
                "start_time": 155.5659091,
                "end_time": 155.7681818,
                "pitch": 38,
                "velocity": 80,
                "duration": 0.2022727,
                "tempo": 120.0
            },
            {
                "start_time": 155.7681818,
                "end_time": 155.9681818,
                "pitch": 38,
                "velocity": 80,
                "duration": 0.2,
                "tempo": 120.0
            },
            {
                "start_time": 155.9704545,
                "end_time": 156.1681818,
                "pitch": 38,
                "velocity": 80,
                "duration": 0.1977273,
                "tempo": 120.0
            },
            {
                "start_time": 156.1704545,
                "end_time": 156.375,
                "pitch": 38,
                "velocity": 80,
                "duration": 0.2045455,
                "tempo": 120.0
            },
            {
                "start_time": 156.375,
                "end_time": 156.5795455,
                "pitch": 38,
                "velocity": 80,
                "duration": 0.2045455,
                "tempo": 120.0
            },
            {
                "start_time": 156.5795455,
                "end_time": 156.775,
                "pitch": 38,
                "velocity": 80,
                "duration": 0.1954545,
                "tempo": 120.0
            },
            {
                "start_time": 156.7772727,
                "end_time": 156.9727273,
                "pitch": 38,
                "velocity": 80,
                "duration": 0.1954545,
                "tempo": 120.0
            },
            {
                "start_time": 156.9727273,
                "end_time": 157.175,
                "pitch": 38,
                "velocity": 80,
                "duration": 0.2022727,
                "tempo": 120.0
            },
            {
                "start_time": 157.175,
                "end_time": 157.375,
                "pitch": 38,
                "velocity": 80,
                "duration": 0.2,
                "tempo": 120.0
            },
            {
                "start_time": 157.3772727,
                "end_time": 157.5818182,
                "pitch": 38,
                "velocity": 80,
                "duration": 0.2045455,
                "tempo": 120.0
            },
            {
                "start_time": 157.5818182,
                "end_time": 157.7863636,
                "pitch": 38,
                "velocity": 80,
                "duration": 0.2045455,
                "tempo": 120.0
            },
            {
                "start_time": 157.7886364,
                "end_time": 157.9886364,
                "pitch": 36,
                "velocity": 80,
                "duration": 0.2,
                "tempo": 120.0
            },
            {
                "start_time": 157.9909091,
                "end_time": 158.1909091,
                "pitch": 36,
                "velocity": 80,
                "duration": 0.2,
                "tempo": 120.0
            },
            {
                "start_time": 158.1909091,
                "end_time": 158.3909091,
                "pitch": 36,
                "velocity": 80,
                "duration": 0.2,
                "tempo": 120.0
            },
            {
                "start_time": 158.3909091,
                "end_time": 158.5909091,
                "pitch": 36,
                "velocity": 80,
                "duration": 0.2,
                "tempo": 120.0
            },
            {
                "start_time": 158.5909091,
                "end_time": 158.7909091,
                "pitch": 36,
                "velocity": 80,
                "duration": 0.2,
                "tempo": 120.0
            },
            {
                "start_time": 158.7931818,
                "end_time": 158.9931818,
                "pitch": 36,
                "velocity": 80,
                "duration": 0.2,
                "tempo": 120.0
            },
            {
                "start_time": 158.9954545,
                "end_time": 159.1954545,
                "pitch": 36,
                "velocity": 80,
                "duration": 0.2,
                "tempo": 120.0
            },
            {
                "start_time": 159.1954545,
                "end_time": 159.3977273,
                "pitch": 36,
                "velocity": 80,
                "duration": 0.2022727,
                "tempo": 120.0
            },
            {
                "start_time": 159.3977273,
                "end_time": 159.5977273,
                "pitch": 36,
                "velocity": 80,
                "duration": 0.2,
                "tempo": 120.0
            },
            {
                "start_time": 159.6,
                "end_time": 159.8,
                "pitch": 36,
                "velocity": 80,
                "duration": 0.2,
                "tempo": 120.0
            },
            {
                "start_time": 159.8,
                "end_time": 160.0022727,
                "pitch": 36,
                "velocity": 80,
                "duration": 0.2022727,
                "tempo": 120.0
            },
            {
                "start_time": 160.0022727,
                "end_time": 160.2045455,
                "pitch": 36,
                "velocity": 80,
                "duration": 0.2022727,
                "tempo": 120.0
            },
            {
                "start_time": 160.2045455,
                "end_time": 160.4045455,
                "pitch": 36,
                "velocity": 80,
                "duration": 0.2,
                "tempo": 120.0
            },
            {
                "start_time": 160.4045455,
                "end_time": 160.6045455,
                "pitch": 36,
                "velocity": 80,
                "duration": 0.2,
                "tempo": 120.0
            },
            {
                "start_time": 160.6045455,
                "end_time": 160.8068182,
                "pitch": 36,
                "velocity": 80,
                "duration": 0.2022727,
                "tempo": 120.0
            },
            {
                "start_time": 160.8068182,
                "end_time": 161.0090909,
                "pitch": 36,
                "velocity": 80,
                "duration": 0.2022727,
                "tempo": 120.0
            },
            {
                "start_time": 161.0090909,
                "end_time": 161.2090909,
                "pitch": 38,
                "velocity": 80,
                "duration": 0.2,
                "tempo": 120.0
            },
            {
                "start_time": 161.2113636,
                "end_time": 161.4113636,
                "pitch": 38,
                "velocity": 80,
                "duration": 0.2,
                "tempo": 120.0
            },
            {
                "start_time": 161.4113636,
                "end_time": 161.6113636,
                "pitch": 38,
                "velocity": 80,
                "duration": 0.2,
                "tempo": 120.0
            },
            {
                "start_time": 161.6136364,
                "end_time": 161.8136364,
                "pitch": 38,
                "velocity": 80,
                "duration": 0.2,
                "tempo": 120.0
            },
            {
                "start_time": 161.8159091,
                "end_time": 162.0159091,
                "pitch": 38,
                "velocity": 80,
                "duration": 0.2,
                "tempo": 120.0
            },
            {
                "start_time": 162.0159091,
                "end_time": 162.2181818,
                "pitch": 38,
                "velocity": 80,
                "duration": 0.2022727,
                "tempo": 120.0
            },
            {
                "start_time": 162.2181818,
                "end_time": 162.4181818,
                "pitch": 38,
                "velocity": 80,
                "duration": 0.2,
                "tempo": 120.0
            },
            {
                "start_time": 162.4181818,
                "end_time": 162.6181818,
                "pitch": 38,
                "velocity": 80,
                "duration": 0.2,
                "tempo": 120.0
            },
            {
                "start_time": 162.6181818,
                "end_time": 162.8181818,
                "pitch": 38,
                "velocity": 80,
                "duration": 0.2,
                "tempo": 120.0
            },
            {
                "start_time": 162.8204545,
                "end_time": 163.0204545,
                "pitch": 38,
                "velocity": 80,
                "duration": 0.2,
                "tempo": 120.0
            },
            {
                "start_time": 163.0227273,
                "end_time": 163.2227273,
                "pitch": 38,
                "velocity": 80,
                "duration": 0.2,
                "tempo": 120.0
            },
            {
                "start_time": 163.2227273,
                "end_time": 163.425,
                "pitch": 38,
                "velocity": 80,
                "duration": 0.2022727,
                "tempo": 120.0
            },
            {
                "start_time": 163.425,
                "end_time": 163.625,
                "pitch": 38,
                "velocity": 80,
                "duration": 0.2,
                "tempo": 120.0
            },
            {
                "start_time": 163.6272727,
                "end_time": 163.8272727,
                "pitch": 38,
                "velocity": 80,
                "duration": 0.2,
                "tempo": 120.0
            },
            {
                "start_time": 163.8272727,
                "end_time": 164.0340909,
                "pitch": 38,
                "velocity": 80,
                "duration": 0.2068182,
                "tempo": 120.0
            },
            {
                "start_time": 164.0340909,
                "end_time": 164.2409091,
                "pitch": 38,
                "velocity": 80,
                "duration": 0.2068182,
                "tempo": 120.0
            },
            {
                "start_time": 164.2409091,
                "end_time": 164.4409091,
                "pitch": 36,
                "velocity": 80,
                "duration": 0.2,
                "tempo": 120.0
            },
            {
                "start_time": 164.4431818,
                "end_time": 164.6409091,
                "pitch": 36,
                "velocity": 80,
                "duration": 0.1977273,
                "tempo": 120.0
            },
            {
                "start_time": 164.6431818,
                "end_time": 164.8386364,
                "pitch": 36,
                "velocity": 80,
                "duration": 0.1954545,
                "tempo": 120.0
            },
            {
                "start_time": 164.8386364,
                "end_time": 165.0340909,
                "pitch": 36,
                "velocity": 80,
                "duration": 0.1954545,
                "tempo": 120.0
            },
            {
                "start_time": 165.0363636,
                "end_time": 165.2386364,
                "pitch": 36,
                "velocity": 80,
                "duration": 0.2022727,
                "tempo": 120.0
            },
            {
                "start_time": 165.2386364,
                "end_time": 165.4386364,
                "pitch": 36,
                "velocity": 80,
                "duration": 0.2,
                "tempo": 120.0
            },
            {
                "start_time": 165.4409091,
                "end_time": 165.6431818,
                "pitch": 36,
                "velocity": 80,
                "duration": 0.2022727,
                "tempo": 120.0
            },
            {
                "start_time": 165.6454545,
                "end_time": 165.85,
                "pitch": 36,
                "velocity": 80,
                "duration": 0.2045455,
                "tempo": 120.0
            },
            {
                "start_time": 165.8522727,
                "end_time": 166.0454545,
                "pitch": 36,
                "velocity": 80,
                "duration": 0.1931818,
                "tempo": 120.0
            },
            {
                "start_time": 166.0477273,
                "end_time": 166.2431818,
                "pitch": 36,
                "velocity": 80,
                "duration": 0.1954545,
                "tempo": 120.0
            },
            {
                "start_time": 166.2431818,
                "end_time": 166.4477273,
                "pitch": 36,
                "velocity": 80,
                "duration": 0.2045455,
                "tempo": 120.0
            },
            {
                "start_time": 166.45,
                "end_time": 166.6545455,
                "pitch": 36,
                "velocity": 80,
                "duration": 0.2045455,
                "tempo": 120.0
            },
            {
                "start_time": 166.6545455,
                "end_time": 166.85,
                "pitch": 36,
                "velocity": 80,
                "duration": 0.1954545,
                "tempo": 120.0
            },
            {
                "start_time": 166.85,
                "end_time": 167.0454545,
                "pitch": 36,
                "velocity": 80,
                "duration": 0.1954545,
                "tempo": 120.0
            },
            {
                "start_time": 167.0477273,
                "end_time": 167.2522727,
                "pitch": 36,
                "velocity": 80,
                "duration": 0.2045455,
                "tempo": 120.0
            },
            {
                "start_time": 167.2545455,
                "end_time": 167.4590909,
                "pitch": 36,
                "velocity": 80,
                "duration": 0.2045455,
                "tempo": 120.0
            },
            {
                "start_time": 167.4590909,
                "end_time": 167.6590909,
                "pitch": 40,
                "velocity": 80,
                "duration": 0.2,
                "tempo": 120.0
            },
            {
                "start_time": 167.6590909,
                "end_time": 167.8590909,
                "pitch": 40,
                "velocity": 80,
                "duration": 0.2,
                "tempo": 120.0
            },
            {
                "start_time": 167.8590909,
                "end_time": 168.0590909,
                "pitch": 40,
                "velocity": 80,
                "duration": 0.2,
                "tempo": 120.0
            },
            {
                "start_time": 168.0590909,
                "end_time": 168.2613636,
                "pitch": 40,
                "velocity": 80,
                "duration": 0.2022727,
                "tempo": 120.0
            },
            {
                "start_time": 168.2613636,
                "end_time": 168.4613636,
                "pitch": 40,
                "velocity": 80,
                "duration": 0.2,
                "tempo": 120.0
            },
            {
                "start_time": 168.4636364,
                "end_time": 168.6636364,
                "pitch": 40,
                "velocity": 80,
                "duration": 0.2,
                "tempo": 120.0
            },
            {
                "start_time": 168.6659091,
                "end_time": 168.8659091,
                "pitch": 40,
                "velocity": 80,
                "duration": 0.2,
                "tempo": 120.0
            },
            {
                "start_time": 168.8659091,
                "end_time": 169.2659091,
                "pitch": 38,
                "velocity": 80,
                "duration": 0.4,
                "tempo": 120.0
            },
            {
                "start_time": 169.2681818,
                "end_time": 169.4681818,
                "pitch": 38,
                "velocity": 80,
                "duration": 0.2,
                "tempo": 120.0
            },
            {
                "start_time": 169.4681818,
                "end_time": 169.6704545,
                "pitch": 38,
                "velocity": 80,
                "duration": 0.2022727,
                "tempo": 120.0
            },
            {
                "start_time": 169.6704545,
                "end_time": 169.8704545,
                "pitch": 38,
                "velocity": 80,
                "duration": 0.2,
                "tempo": 120.0
            },
            {
                "start_time": 169.8727273,
                "end_time": 170.0727273,
                "pitch": 38,
                "velocity": 80,
                "duration": 0.2,
                "tempo": 120.0
            },
            {
                "start_time": 170.075,
                "end_time": 170.275,
                "pitch": 38,
                "velocity": 80,
                "duration": 0.2,
                "tempo": 120.0
            },
            {
                "start_time": 170.275,
                "end_time": 170.6772727,
                "pitch": 38,
                "velocity": 80,
                "duration": 0.4022727,
                "tempo": 120.0
            },
            {
                "start_time": 170.6795455,
                "end_time": 170.8795455,
                "pitch": 40,
                "velocity": 80,
                "duration": 0.2,
                "tempo": 120.0
            },
            {
                "start_time": 170.8818182,
                "end_time": 171.0818182,
                "pitch": 40,
                "velocity": 80,
                "duration": 0.2,
                "tempo": 120.0
            },
            {
                "start_time": 171.0818182,
                "end_time": 171.2818182,
                "pitch": 40,
                "velocity": 80,
                "duration": 0.2,
                "tempo": 120.0
            },
            {
                "start_time": 171.2818182,
                "end_time": 171.4818182,
                "pitch": 40,
                "velocity": 80,
                "duration": 0.2,
                "tempo": 120.0
            },
            {
                "start_time": 171.4818182,
                "end_time": 171.6818182,
                "pitch": 40,
                "velocity": 80,
                "duration": 0.2,
                "tempo": 120.0
            },
            {
                "start_time": 171.6840909,
                "end_time": 171.8840909,
                "pitch": 40,
                "velocity": 80,
                "duration": 0.2,
                "tempo": 120.0
            },
            {
                "start_time": 171.8863636,
                "end_time": 172.0909091,
                "pitch": 40,
                "velocity": 80,
                "duration": 0.2045455,
                "tempo": 120.0
            },
            {
                "start_time": 172.0909091,
                "end_time": 172.4909091,
                "pitch": 43,
                "velocity": 80,
                "duration": 0.4,
                "tempo": 120.0
            },
            {
                "start_time": 172.4909091,
                "end_time": 172.6886364,
                "pitch": 43,
                "velocity": 80,
                "duration": 0.1977273,
                "tempo": 120.0
            },
            {
                "start_time": 172.6886364,
                "end_time": 172.8931818,
                "pitch": 43,
                "velocity": 80,
                "duration": 0.2045455,
                "tempo": 120.0
            },
            {
                "start_time": 172.8954545,
                "end_time": 173.1,
                "pitch": 43,
                "velocity": 80,
                "duration": 0.2045455,
                "tempo": 120.0
            },
            {
                "start_time": 173.1,
                "end_time": 173.3022727,
                "pitch": 43,
                "velocity": 80,
                "duration": 0.2022727,
                "tempo": 120.0
            },
            {
                "start_time": 173.3022727,
                "end_time": 173.5022727,
                "pitch": 43,
                "velocity": 80,
                "duration": 0.2,
                "tempo": 120.0
            },
            {
                "start_time": 173.5045455,
                "end_time": 173.9045455,
                "pitch": 45,
                "velocity": 80,
                "duration": 0.4,
                "tempo": 120.0
            },
            {
                "start_time": 173.9045455,
                "end_time": 174.1068182,
                "pitch": 40,
                "velocity": 80,
                "duration": 0.2022727,
                "tempo": 120.0
            },
            {
                "start_time": 174.1068182,
                "end_time": 174.3068182,
                "pitch": 40,
                "velocity": 80,
                "duration": 0.2,
                "tempo": 120.0
            },
            {
                "start_time": 174.3068182,
                "end_time": 174.5068182,
                "pitch": 40,
                "velocity": 80,
                "duration": 0.2,
                "tempo": 120.0
            },
            {
                "start_time": 174.5090909,
                "end_time": 174.7090909,
                "pitch": 40,
                "velocity": 80,
                "duration": 0.2,
                "tempo": 120.0
            },
            {
                "start_time": 174.7113636,
                "end_time": 174.9113636,
                "pitch": 40,
                "velocity": 80,
                "duration": 0.2,
                "tempo": 120.0
            },
            {
                "start_time": 174.9113636,
                "end_time": 175.1136364,
                "pitch": 40,
                "velocity": 80,
                "duration": 0.2022727,
                "tempo": 120.0
            },
            {
                "start_time": 175.1136364,
                "end_time": 175.3136364,
                "pitch": 40,
                "velocity": 80,
                "duration": 0.2,
                "tempo": 120.0
            },
            {
                "start_time": 175.3159091,
                "end_time": 175.7159091,
                "pitch": 38,
                "velocity": 80,
                "duration": 0.4,
                "tempo": 120.0
            },
            {
                "start_time": 175.7159091,
                "end_time": 175.9159091,
                "pitch": 38,
                "velocity": 80,
                "duration": 0.2,
                "tempo": 120.0
            },
            {
                "start_time": 175.9181818,
                "end_time": 176.1181818,
                "pitch": 38,
                "velocity": 80,
                "duration": 0.2,
                "tempo": 120.0
            },
            {
                "start_time": 176.1204545,
                "end_time": 176.3204545,
                "pitch": 38,
                "velocity": 80,
                "duration": 0.2,
                "tempo": 120.0
            },
            {
                "start_time": 176.3204545,
                "end_time": 176.5227273,
                "pitch": 38,
                "velocity": 80,
                "duration": 0.2022727,
                "tempo": 120.0
            },
            {
                "start_time": 176.5227273,
                "end_time": 176.7227273,
                "pitch": 38,
                "velocity": 80,
                "duration": 0.2,
                "tempo": 120.0
            },
            {
                "start_time": 176.725,
                "end_time": 177.1272727,
                "pitch": 38,
                "velocity": 80,
                "duration": 0.4022727,
                "tempo": 120.0
            },
            {
                "start_time": 177.1272727,
                "end_time": 177.3272727,
                "pitch": 36,
                "velocity": 80,
                "duration": 0.2,
                "tempo": 120.0
            },
            {
                "start_time": 177.3295455,
                "end_time": 177.5295455,
                "pitch": 36,
                "velocity": 80,
                "duration": 0.2,
                "tempo": 120.0
            },
            {
                "start_time": 177.5295455,
                "end_time": 177.7295455,
                "pitch": 36,
                "velocity": 80,
                "duration": 0.2,
                "tempo": 120.0
            },
            {
                "start_time": 177.7318182,
                "end_time": 177.9295455,
                "pitch": 36,
                "velocity": 80,
                "duration": 0.1977273,
                "tempo": 120.0
            },
            {
                "start_time": 177.9295455,
                "end_time": 178.1318182,
                "pitch": 36,
                "velocity": 80,
                "duration": 0.2022727,
                "tempo": 120.0
            },
            {
                "start_time": 178.1318182,
                "end_time": 178.3340909,
                "pitch": 36,
                "velocity": 80,
                "duration": 0.2022727,
                "tempo": 120.0
            },
            {
                "start_time": 178.3340909,
                "end_time": 178.5340909,
                "pitch": 36,
                "velocity": 80,
                "duration": 0.2,
                "tempo": 120.0
            },
            {
                "start_time": 178.5363636,
                "end_time": 178.7363636,
                "pitch": 36,
                "velocity": 80,
                "duration": 0.2,
                "tempo": 120.0
            },
            {
                "start_time": 178.7386364,
                "end_time": 178.9386364,
                "pitch": 33,
                "velocity": 80,
                "duration": 0.2,
                "tempo": 120.0
            },
            {
                "start_time": 178.9386364,
                "end_time": 179.1386364,
                "pitch": 33,
                "velocity": 80,
                "duration": 0.2,
                "tempo": 120.0
            },
            {
                "start_time": 179.1386364,
                "end_time": 179.3409091,
                "pitch": 33,
                "velocity": 80,
                "duration": 0.2022727,
                "tempo": 120.0
            },
            {
                "start_time": 179.3409091,
                "end_time": 179.5431818,
                "pitch": 33,
                "velocity": 80,
                "duration": 0.2022727,
                "tempo": 120.0
            },
            {
                "start_time": 179.5431818,
                "end_time": 179.7431818,
                "pitch": 33,
                "velocity": 80,
                "duration": 0.2,
                "tempo": 120.0
            },
            {
                "start_time": 179.7431818,
                "end_time": 179.9431818,
                "pitch": 33,
                "velocity": 80,
                "duration": 0.2,
                "tempo": 120.0
            }
        ],
        "Electric Piano 1": [
            {
                "start_time": 24.1659091,
                "end_time": 24.3613636,
                "pitch": 75,
                "velocity": 80,
                "duration": 0.1954545,
                "tempo": 120.0
            },
            {
                "start_time": 24.3636364,
                "end_time": 24.7636364,
                "pitch": 74,
                "velocity": 80,
                "duration": 0.4,
                "tempo": 120.0
            },
            {
                "start_time": 24.7659091,
                "end_time": 24.8318182,
                "pitch": 63,
                "velocity": 80,
                "duration": 0.0659091,
                "tempo": 120.0
            },
            {
                "start_time": 24.8318182,
                "end_time": 24.8477273,
                "pitch": 61,
                "velocity": 80,
                "duration": 0.0159091,
                "tempo": 120.0
            },
            {
                "start_time": 24.8477273,
                "end_time": 24.9159091,
                "pitch": 64,
                "velocity": 80,
                "duration": 0.0681818,
                "tempo": 120.0
            },
            {
                "start_time": 24.9159091,
                "end_time": 25.0318182,
                "pitch": 61,
                "velocity": 80,
                "duration": 0.1159091,
                "tempo": 120.0
            },
            {
                "start_time": 25.0318182,
                "end_time": 25.0977273,
                "pitch": 63,
                "velocity": 80,
                "duration": 0.0659091,
                "tempo": 120.0
            },
            {
                "start_time": 25.0977273,
                "end_time": 25.1136364,
                "pitch": 61,
                "velocity": 80,
                "duration": 0.0159091,
                "tempo": 120.0
            },
            {
                "start_time": 25.1136364,
                "end_time": 25.1613636,
                "pitch": 64,
                "velocity": 80,
                "duration": 0.0477273,
                "tempo": 120.0
            },
            {
                "start_time": 25.1636364,
                "end_time": 25.5636364,
                "pitch": 50,
                "velocity": 80,
                "duration": 0.4,
                "tempo": 120.0
            },
            {
                "start_time": 25.9727273,
                "end_time": 26.5840909,
                "pitch": 57,
                "velocity": 64,
                "duration": 0.6113636,
                "tempo": 120.0
            },
            {
                "start_time": 26.5863636,
                "end_time": 27.1863636,
                "pitch": 59,
                "velocity": 64,
                "duration": 0.6,
                "tempo": 120.0
            },
            {
                "start_time": 27.1886364,
                "end_time": 27.9886364,
                "pitch": 60,
                "velocity": 64,
                "duration": 0.8,
                "tempo": 120.0
            },
            {
                "start_time": 27.9909091,
                "end_time": 28.3909091,
                "pitch": 62,
                "velocity": 64,
                "duration": 0.4,
                "tempo": 120.0
            },
            {
                "start_time": 28.3931818,
                "end_time": 28.5931818,
                "pitch": 60,
                "velocity": 64,
                "duration": 0.2,
                "tempo": 120.0
            },
            {
                "start_time": 28.5931818,
                "end_time": 28.7931818,
                "pitch": 59,
                "velocity": 64,
                "duration": 0.2,
                "tempo": 120.0
            },
            {
                "start_time": 28.7931818,
                "end_time": 28.9931818,
                "pitch": 57,
                "velocity": 64,
                "duration": 0.2,
                "tempo": 120.0
            },
            {
                "start_time": 28.9954545,
                "end_time": 29.1954545,
                "pitch": 59,
                "velocity": 64,
                "duration": 0.2,
                "tempo": 120.0
            },
            {
                "start_time": 29.1954545,
                "end_time": 29.7954545,
                "pitch": 60,
                "velocity": 64,
                "duration": 0.6,
                "tempo": 120.0
            },
            {
                "start_time": 29.7977273,
                "end_time": 30.1977273,
                "pitch": 57,
                "velocity": 64,
                "duration": 0.4,
                "tempo": 120.0
            },
            {
                "start_time": 30.1977273,
                "end_time": 30.3977273,
                "pitch": 55,
                "velocity": 64,
                "duration": 0.2,
                "tempo": 120.0
            },
            {
                "start_time": 30.4,
                "end_time": 31.8159091,
                "pitch": 53,
                "velocity": 64,
                "duration": 1.4159091,
                "tempo": 120.0
            },
            {
                "start_time": 31.8181818,
                "end_time": 32.0159091,
                "pitch": 52,
                "velocity": 64,
                "duration": 0.1977273,
                "tempo": 120.0
            },
            {
                "start_time": 32.0181818,
                "end_time": 32.2159091,
                "pitch": 53,
                "velocity": 64,
                "duration": 0.1977273,
                "tempo": 120.0
            },
            {
                "start_time": 32.2181818,
                "end_time": 32.4181818,
                "pitch": 55,
                "velocity": 64,
                "duration": 0.2,
                "tempo": 120.0
            },
            {
                "start_time": 32.4181818,
                "end_time": 33.0204545,
                "pitch": 57,
                "velocity": 64,
                "duration": 0.6022727,
                "tempo": 120.0
            },
            {
                "start_time": 33.0204545,
                "end_time": 33.6181818,
                "pitch": 59,
                "velocity": 64,
                "duration": 0.5977273,
                "tempo": 120.0
            },
            {
                "start_time": 33.6181818,
                "end_time": 34.425,
                "pitch": 60,
                "velocity": 64,
                "duration": 0.8068182,
                "tempo": 120.0
            },
            {
                "start_time": 34.4272727,
                "end_time": 34.8272727,
                "pitch": 65,
                "velocity": 64,
                "duration": 0.4,
                "tempo": 120.0
            },
            {
                "start_time": 34.8295455,
                "end_time": 35.0295455,
                "pitch": 64,
                "velocity": 64,
                "duration": 0.2,
                "tempo": 120.0
            },
            {
                "start_time": 35.0295455,
                "end_time": 35.2295455,
                "pitch": 62,
                "velocity": 64,
                "duration": 0.2,
                "tempo": 120.0
            },
            {
                "start_time": 35.2295455,
                "end_time": 35.4295455,
                "pitch": 60,
                "velocity": 64,
                "duration": 0.2,
                "tempo": 120.0
            },
            {
                "start_time": 35.4295455,
                "end_time": 35.6295455,
                "pitch": 62,
                "velocity": 64,
                "duration": 0.2,
                "tempo": 120.0
            },
            {
                "start_time": 35.6295455,
                "end_time": 36.0295455,
                "pitch": 64,
                "velocity": 64,
                "duration": 0.4,
                "tempo": 120.0
            },
            {
                "start_time": 36.0318182,
                "end_time": 36.2295455,
                "pitch": 62,
                "velocity": 64,
                "duration": 0.1977273,
                "tempo": 120.0
            },
            {
                "start_time": 36.2318182,
                "end_time": 36.6318182,
                "pitch": 57,
                "velocity": 64,
                "duration": 0.4,
                "tempo": 120.0
            },
            {
                "start_time": 36.6340909,
                "end_time": 37.0340909,
                "pitch": 67,
                "velocity": 64,
                "duration": 0.4,
                "tempo": 120.0
            },
            {
                "start_time": 37.0340909,
                "end_time": 38.8386364,
                "pitch": 64,
                "velocity": 64,
                "duration": 1.8045455,
                "tempo": 120.0
            },
            {
                "start_time": 38.8386364,
                "end_time": 39.4386364,
                "pitch": 57,
                "velocity": 64,
                "duration": 0.6,
                "tempo": 120.0
            },
            {
                "start_time": 39.4409091,
                "end_time": 40.0386364,
                "pitch": 59,
                "velocity": 64,
                "duration": 0.5977273,
                "tempo": 120.0
            },
            {
                "start_time": 40.0409091,
                "end_time": 40.85,
                "pitch": 60,
                "velocity": 64,
                "duration": 0.8090909,
                "tempo": 120.0
            },
            {
                "start_time": 40.85,
                "end_time": 41.2545455,
                "pitch": 62,
                "velocity": 64,
                "duration": 0.4045455,
                "tempo": 120.0
            },
            {
                "start_time": 41.2568182,
                "end_time": 41.4568182,
                "pitch": 60,
                "velocity": 64,
                "duration": 0.2,
                "tempo": 120.0
            },
            {
                "start_time": 41.4568182,
                "end_time": 41.6568182,
                "pitch": 59,
                "velocity": 64,
                "duration": 0.2,
                "tempo": 120.0
            },
            {
                "start_time": 41.6590909,
                "end_time": 41.8590909,
                "pitch": 57,
                "velocity": 64,
                "duration": 0.2,
                "tempo": 120.0
            },
            {
                "start_time": 41.8613636,
                "end_time": 42.0590909,
                "pitch": 59,
                "velocity": 64,
                "duration": 0.1977273,
                "tempo": 120.0
            },
            {
                "start_time": 42.0590909,
                "end_time": 42.6590909,
                "pitch": 60,
                "velocity": 64,
                "duration": 0.6,
                "tempo": 120.0
            },
            {
                "start_time": 42.6613636,
                "end_time": 43.0613636,
                "pitch": 57,
                "velocity": 64,
                "duration": 0.4,
                "tempo": 120.0
            },
            {
                "start_time": 43.0613636,
                "end_time": 43.2613636,
                "pitch": 55,
                "velocity": 64,
                "duration": 0.2,
                "tempo": 120.0
            },
            {
                "start_time": 43.2613636,
                "end_time": 44.6659091,
                "pitch": 53,
                "velocity": 64,
                "duration": 1.4045455,
                "tempo": 120.0
            },
            {
                "start_time": 44.6659091,
                "end_time": 44.8659091,
                "pitch": 57,
                "velocity": 64,
                "duration": 0.2,
                "tempo": 120.0
            },
            {
                "start_time": 44.8659091,
                "end_time": 45.0659091,
                "pitch": 59,
                "velocity": 64,
                "duration": 0.2,
                "tempo": 120.0
            },
            {
                "start_time": 45.0681818,
                "end_time": 45.2659091,
                "pitch": 60,
                "velocity": 64,
                "duration": 0.1977273,
                "tempo": 120.0
            },
            {
                "start_time": 45.2659091,
                "end_time": 45.6681818,
                "pitch": 59,
                "velocity": 64,
                "duration": 0.4022727,
                "tempo": 120.0
            },
            {
                "start_time": 45.6681818,
                "end_time": 45.8681818,
                "pitch": 55,
                "velocity": 64,
                "duration": 0.2,
                "tempo": 120.0
            },
            {
                "start_time": 45.8704545,
                "end_time": 46.2704545,
                "pitch": 52,
                "velocity": 64,
                "duration": 0.4,
                "tempo": 120.0
            },
            {
                "start_time": 46.2704545,
                "end_time": 46.4704545,
                "pitch": 52,
                "velocity": 64,
                "duration": 0.2,
                "tempo": 120.0
            },
            {
                "start_time": 46.4704545,
                "end_time": 46.6704545,
                "pitch": 55,
                "velocity": 64,
                "duration": 0.2,
                "tempo": 120.0
            },
            {
                "start_time": 46.6727273,
                "end_time": 46.8772727,
                "pitch": 59,
                "velocity": 64,
                "duration": 0.2045455,
                "tempo": 120.0
            },
            {
                "start_time": 46.8772727,
                "end_time": 47.0818182,
                "pitch": 62,
                "velocity": 64,
                "duration": 0.2045455,
                "tempo": 120.0
            },
            {
                "start_time": 47.0840909,
                "end_time": 47.2840909,
                "pitch": 60,
                "velocity": 64,
                "duration": 0.2,
                "tempo": 120.0
            },
            {
                "start_time": 47.2840909,
                "end_time": 47.4840909,
                "pitch": 59,
                "velocity": 64,
                "duration": 0.2,
                "tempo": 120.0
            },
            {
                "start_time": 47.4863636,
                "end_time": 47.6818182,
                "pitch": 62,
                "velocity": 64,
                "duration": 0.1954545,
                "tempo": 120.0
            },
            {
                "start_time": 47.6818182,
                "end_time": 47.8772727,
                "pitch": 60,
                "velocity": 64,
                "duration": 0.1954545,
                "tempo": 120.0
            },
            {
                "start_time": 47.8795455,
                "end_time": 48.2772727,
                "pitch": 59,
                "velocity": 64,
                "duration": 0.3977273,
                "tempo": 120.0
            },
            {
                "start_time": 48.2795455,
                "end_time": 50.0931818,
                "pitch": 57,
                "velocity": 64,
                "duration": 1.8136364,
                "tempo": 120.0
            },
            {
                "start_time": 51.7,
                "end_time": 52.1,
                "pitch": 55,
                "velocity": 64,
                "duration": 0.4,
                "tempo": 120.0
            },
            {
                "start_time": 52.1,
                "end_time": 52.3,
                "pitch": 55,
                "velocity": 64,
                "duration": 0.2,
                "tempo": 120.0
            },
            {
                "start_time": 52.3,
                "end_time": 52.7,
                "pitch": 60,
                "velocity": 64,
                "duration": 0.4,
                "tempo": 120.0
            },
            {
                "start_time": 52.7,
                "end_time": 53.1,
                "pitch": 60,
                "velocity": 64,
                "duration": 0.4,
                "tempo": 120.0
            },
            {
                "start_time": 53.1022727,
                "end_time": 53.5045455,
                "pitch": 64,
                "velocity": 64,
                "duration": 0.4022727,
                "tempo": 120.0
            },
            {
                "start_time": 53.5045455,
                "end_time": 53.9045455,
                "pitch": 64,
                "velocity": 64,
                "duration": 0.4,
                "tempo": 120.0
            },
            {
                "start_time": 53.9068182,
                "end_time": 54.1045455,
                "pitch": 64,
                "velocity": 64,
                "duration": 0.1977273,
                "tempo": 120.0
            },
            {
                "start_time": 54.1045455,
                "end_time": 54.5045455,
                "pitch": 62,
                "velocity": 64,
                "duration": 0.4,
                "tempo": 120.0
            },
            {
                "start_time": 54.5068182,
                "end_time": 54.9045455,
                "pitch": 60,
                "velocity": 64,
                "duration": 0.3977273,
                "tempo": 120.0
            },
            {
                "start_time": 54.9068182,
                "end_time": 55.3113636,
                "pitch": 52,
                "velocity": 64,
                "duration": 0.4045455,
                "tempo": 120.0
            },
            {
                "start_time": 55.3136364,
                "end_time": 55.5159091,
                "pitch": 52,
                "velocity": 64,
                "duration": 0.2022727,
                "tempo": 120.0
            },
            {
                "start_time": 55.5181818,
                "end_time": 55.9090909,
                "pitch": 57,
                "velocity": 64,
                "duration": 0.3909091,
                "tempo": 120.0
            },
            {
                "start_time": 55.9113636,
                "end_time": 56.3204545,
                "pitch": 57,
                "velocity": 64,
                "duration": 0.4090909,
                "tempo": 120.0
            },
            {
                "start_time": 56.3227273,
                "end_time": 56.725,
                "pitch": 60,
                "velocity": 64,
                "duration": 0.4022727,
                "tempo": 120.0
            },
            {
                "start_time": 56.725,
                "end_time": 57.125,
                "pitch": 60,
                "velocity": 64,
                "duration": 0.4,
                "tempo": 120.0
            },
            {
                "start_time": 57.1272727,
                "end_time": 57.325,
                "pitch": 60,
                "velocity": 64,
                "duration": 0.1977273,
                "tempo": 120.0
            },
            {
                "start_time": 57.325,
                "end_time": 57.725,
                "pitch": 59,
                "velocity": 64,
                "duration": 0.4,
                "tempo": 120.0
            },
            {
                "start_time": 57.7272727,
                "end_time": 58.125,
                "pitch": 57,
                "velocity": 64,
                "duration": 0.3977273,
                "tempo": 120.0
            },
            {
                "start_time": 58.1272727,
                "end_time": 58.5272727,
                "pitch": 57,
                "velocity": 64,
                "duration": 0.4,
                "tempo": 120.0
            },
            {
                "start_time": 58.5295455,
                "end_time": 58.7295455,
                "pitch": 57,
                "velocity": 64,
                "duration": 0.2,
                "tempo": 120.0
            },
            {
                "start_time": 58.7295455,
                "end_time": 59.1295455,
                "pitch": 62,
                "velocity": 64,
                "duration": 0.4,
                "tempo": 120.0
            },
            {
                "start_time": 59.1318182,
                "end_time": 59.5318182,
                "pitch": 62,
                "velocity": 64,
                "duration": 0.4,
                "tempo": 120.0
            },
            {
                "start_time": 59.5318182,
                "end_time": 59.9318182,
                "pitch": 65,
                "velocity": 64,
                "duration": 0.4,
                "tempo": 120.0
            },
            {
                "start_time": 59.9318182,
                "end_time": 60.3318182,
                "pitch": 65,
                "velocity": 64,
                "duration": 0.4,
                "tempo": 120.0
            },
            {
                "start_time": 60.3340909,
                "end_time": 60.5318182,
                "pitch": 65,
                "velocity": 64,
                "duration": 0.1977273,
                "tempo": 120.0
            },
            {
                "start_time": 60.5340909,
                "end_time": 60.9340909,
                "pitch": 64,
                "velocity": 64,
                "duration": 0.4,
                "tempo": 120.0
            },
            {
                "start_time": 60.9363636,
                "end_time": 61.3363636,
                "pitch": 65,
                "velocity": 64,
                "duration": 0.4,
                "tempo": 120.0
            },
            {
                "start_time": 61.3363636,
                "end_time": 62.3363636,
                "pitch": 67,
                "velocity": 64,
                "duration": 1.0,
                "tempo": 120.0
            },
            {
                "start_time": 62.3386364,
                "end_time": 62.5386364,
                "pitch": 64,
                "velocity": 64,
                "duration": 0.2,
                "tempo": 120.0
            },
            {
                "start_time": 62.5409091,
                "end_time": 62.7409091,
                "pitch": 68,
                "velocity": 64,
                "duration": 0.2,
                "tempo": 120.0
            },
            {
                "start_time": 62.7409091,
                "end_time": 64.5477273,
                "pitch": 71,
                "velocity": 64,
                "duration": 1.8068182,
                "tempo": 120.0
            },
            {
                "start_time": 64.55,
                "end_time": 64.7522727,
                "pitch": 64,
                "velocity": 51,
                "duration": 0.2022727,
                "tempo": 120.0
            },
            {
                "start_time": 64.7545455,
                "end_time": 65.1568182,
                "pitch": 72,
                "velocity": 51,
                "duration": 0.4022727,
                "tempo": 120.0
            },
            {
                "start_time": 65.1568182,
                "end_time": 65.5590909,
                "pitch": 71,
                "velocity": 51,
                "duration": 0.4022727,
                "tempo": 120.0
            },
            {
                "start_time": 65.5613636,
                "end_time": 65.9613636,
                "pitch": 69,
                "velocity": 51,
                "duration": 0.4,
                "tempo": 120.0
            },
            {
                "start_time": 65.9613636,
                "end_time": 66.5636364,
                "pitch": 64,
                "velocity": 51,
                "duration": 0.6022727,
                "tempo": 120.0
            },
            {
                "start_time": 66.5659091,
                "end_time": 66.9659091,
                "pitch": 72,
                "velocity": 51,
                "duration": 0.4,
                "tempo": 120.0
            },
            {
                "start_time": 66.9659091,
                "end_time": 67.3681818,
                "pitch": 71,
                "velocity": 51,
                "duration": 0.4022727,
                "tempo": 120.0
            },
            {
                "start_time": 67.3704545,
                "end_time": 67.7704545,
                "pitch": 69,
                "velocity": 51,
                "duration": 0.4,
                "tempo": 120.0
            },
            {
                "start_time": 67.7727273,
                "end_time": 67.9704545,
                "pitch": 71,
                "velocity": 51,
                "duration": 0.1977273,
                "tempo": 120.0
            },
            {
                "start_time": 67.9727273,
                "end_time": 68.375,
                "pitch": 62,
                "velocity": 51,
                "duration": 0.4022727,
                "tempo": 120.0
            },
            {
                "start_time": 68.375,
                "end_time": 68.775,
                "pitch": 67,
                "velocity": 51,
                "duration": 0.4,
                "tempo": 120.0
            },
            {
                "start_time": 68.775,
                "end_time": 69.1795455,
                "pitch": 71,
                "velocity": 51,
                "duration": 0.4045455,
                "tempo": 120.0
            },
            {
                "start_time": 69.1795455,
                "end_time": 69.3795455,
                "pitch": 69,
                "velocity": 51,
                "duration": 0.2,
                "tempo": 120.0
            },
            {
                "start_time": 69.3795455,
                "end_time": 69.7818182,
                "pitch": 67,
                "velocity": 51,
                "duration": 0.4022727,
                "tempo": 120.0
            },
            {
                "start_time": 69.7818182,
                "end_time": 70.1840909,
                "pitch": 64,
                "velocity": 51,
                "duration": 0.4022727,
                "tempo": 120.0
            },
            {
                "start_time": 70.1840909,
                "end_time": 70.5840909,
                "pitch": 65,
                "velocity": 51,
                "duration": 0.4,
                "tempo": 120.0
            },
            {
                "start_time": 70.5863636,
                "end_time": 70.9909091,
                "pitch": 67,
                "velocity": 51,
                "duration": 0.4045455,
                "tempo": 120.0
            },
            {
                "start_time": 70.9931818,
                "end_time": 71.1954545,
                "pitch": 69,
                "velocity": 51,
                "duration": 0.2022727,
                "tempo": 120.0
            },
            {
                "start_time": 71.1977273,
                "end_time": 71.5977273,
                "pitch": 62,
                "velocity": 51,
                "duration": 0.4,
                "tempo": 120.0
            },
            {
                "start_time": 71.5977273,
                "end_time": 72.0,
                "pitch": 64,
                "velocity": 51,
                "duration": 0.4022727,
                "tempo": 120.0
            },
            {
                "start_time": 72.0022727,
                "end_time": 72.4022727,
                "pitch": 65,
                "velocity": 51,
                "duration": 0.4,
                "tempo": 120.0
            },
            {
                "start_time": 72.4022727,
                "end_time": 73.0068182,
                "pitch": 67,
                "velocity": 51,
                "duration": 0.6045455,
                "tempo": 120.0
            },
            {
                "start_time": 73.0068182,
                "end_time": 73.4068182,
                "pitch": 65,
                "velocity": 51,
                "duration": 0.4,
                "tempo": 120.0
            },
            {
                "start_time": 73.4090909,
                "end_time": 73.8090909,
                "pitch": 64,
                "velocity": 51,
                "duration": 0.4,
                "tempo": 120.0
            },
            {
                "start_time": 73.8113636,
                "end_time": 74.2113636,
                "pitch": 65,
                "velocity": 51,
                "duration": 0.4,
                "tempo": 120.0
            },
            {
                "start_time": 74.2136364,
                "end_time": 74.4113636,
                "pitch": 71,
                "velocity": 51,
                "duration": 0.1977273,
                "tempo": 120.0
            },
            {
                "start_time": 74.4136364,
                "end_time": 74.8159091,
                "pitch": 62,
                "velocity": 51,
                "duration": 0.4022727,
                "tempo": 120.0
            },
            {
                "start_time": 74.8159091,
                "end_time": 75.2181818,
                "pitch": 67,
                "velocity": 51,
                "duration": 0.4022727,
                "tempo": 120.0
            },
            {
                "start_time": 75.2204545,
                "end_time": 75.4181818,
                "pitch": 64,
                "velocity": 51,
                "duration": 0.1977273,
                "tempo": 120.0
            },
            {
                "start_time": 75.4204545,
                "end_time": 75.8204545,
                "pitch": 71,
                "velocity": 51,
                "duration": 0.4,
                "tempo": 120.0
            },
            {
                "start_time": 75.8204545,
                "end_time": 76.6272727,
                "pitch": 69,
                "velocity": 51,
                "duration": 0.8068182,
                "tempo": 120.0
            },
            {
                "start_time": 76.6295455,
                "end_time": 77.0295455,
                "pitch": 67,
                "velocity": 51,
                "duration": 0.4,
                "tempo": 120.0
            },
            {
                "start_time": 77.0318182,
                "end_time": 77.4318182,
                "pitch": 65,
                "velocity": 51,
                "duration": 0.4,
                "tempo": 120.0
            },
            {
                "start_time": 77.4340909,
                "end_time": 77.6363636,
                "pitch": 64,
                "velocity": 51,
                "duration": 0.2022727,
                "tempo": 120.0
            },
            {
                "start_time": 77.6386364,
                "end_time": 78.0295455,
                "pitch": 72,
                "velocity": 51,
                "duration": 0.3909091,
                "tempo": 120.0
            },
            {
                "start_time": 78.0318182,
                "end_time": 78.4295455,
                "pitch": 71,
                "velocity": 51,
                "duration": 0.3977273,
                "tempo": 120.0
            },
            {
                "start_time": 78.4318182,
                "end_time": 78.8431818,
                "pitch": 69,
                "velocity": 51,
                "duration": 0.4113636,
                "tempo": 120.0
            },
            {
                "start_time": 78.8431818,
                "end_time": 79.4431818,
                "pitch": 64,
                "velocity": 51,
                "duration": 0.6,
                "tempo": 120.0
            },
            {
                "start_time": 79.4454545,
                "end_time": 79.8454545,
                "pitch": 72,
                "velocity": 51,
                "duration": 0.4,
                "tempo": 120.0
            },
            {
                "start_time": 79.8477273,
                "end_time": 80.2477273,
                "pitch": 71,
                "velocity": 51,
                "duration": 0.4,
                "tempo": 120.0
            },
            {
                "start_time": 80.2477273,
                "end_time": 80.6522727,
                "pitch": 69,
                "velocity": 51,
                "duration": 0.4045455,
                "tempo": 120.0
            },
            {
                "start_time": 80.6522727,
                "end_time": 80.8522727,
                "pitch": 71,
                "velocity": 51,
                "duration": 0.2,
                "tempo": 120.0
            },
            {
                "start_time": 80.8545455,
                "end_time": 81.2522727,
                "pitch": 62,
                "velocity": 51,
                "duration": 0.3977273,
                "tempo": 120.0
            },
            {
                "start_time": 81.2545455,
                "end_time": 81.6568182,
                "pitch": 67,
                "velocity": 51,
                "duration": 0.4022727,
                "tempo": 120.0
            },
            {
                "start_time": 81.6568182,
                "end_time": 82.0568182,
                "pitch": 71,
                "velocity": 51,
                "duration": 0.4,
                "tempo": 120.0
            },
            {
                "start_time": 82.0590909,
                "end_time": 82.2590909,
                "pitch": 69,
                "velocity": 51,
                "duration": 0.2,
                "tempo": 120.0
            },
            {
                "start_time": 82.2590909,
                "end_time": 82.6613636,
                "pitch": 67,
                "velocity": 51,
                "duration": 0.4022727,
                "tempo": 120.0
            },
            {
                "start_time": 82.6636364,
                "end_time": 83.0636364,
                "pitch": 64,
                "velocity": 51,
                "duration": 0.4,
                "tempo": 120.0
            },
            {
                "start_time": 83.0636364,
                "end_time": 83.4659091,
                "pitch": 65,
                "velocity": 51,
                "duration": 0.4022727,
                "tempo": 120.0
            },
            {
                "start_time": 83.4659091,
                "end_time": 83.8681818,
                "pitch": 67,
                "velocity": 51,
                "duration": 0.4022727,
                "tempo": 120.0
            },
            {
                "start_time": 83.8681818,
                "end_time": 84.0681818,
                "pitch": 69,
                "velocity": 51,
                "duration": 0.2,
                "tempo": 120.0
            },
            {
                "start_time": 84.0681818,
                "end_time": 84.4704545,
                "pitch": 62,
                "velocity": 51,
                "duration": 0.4022727,
                "tempo": 120.0
            },
            {
                "start_time": 84.4727273,
                "end_time": 84.8727273,
                "pitch": 64,
                "velocity": 51,
                "duration": 0.4,
                "tempo": 120.0
            },
            {
                "start_time": 84.875,
                "end_time": 85.275,
                "pitch": 65,
                "velocity": 51,
                "duration": 0.4,
                "tempo": 120.0
            },
            {
                "start_time": 85.275,
                "end_time": 86.0863636,
                "pitch": 67,
                "velocity": 51,
                "duration": 0.8113636,
                "tempo": 120.0
            },
            {
                "start_time": 86.0886364,
                "end_time": 86.2886364,
                "pitch": 64,
                "velocity": 51,
                "duration": 0.2,
                "tempo": 120.0
            },
            {
                "start_time": 86.2886364,
                "end_time": 86.4909091,
                "pitch": 71,
                "velocity": 51,
                "duration": 0.2022727,
                "tempo": 120.0
            },
            {
                "start_time": 86.4909091,
                "end_time": 86.6909091,
                "pitch": 72,
                "velocity": 51,
                "duration": 0.2,
                "tempo": 120.0
            },
            {
                "start_time": 86.6909091,
                "end_time": 86.8909091,
                "pitch": 71,
                "velocity": 51,
                "duration": 0.2,
                "tempo": 120.0
            },
            {
                "start_time": 86.8909091,
                "end_time": 88.7,
                "pitch": 69,
                "velocity": 51,
                "duration": 1.8090909,
                "tempo": 120.0
            },
            {
                "start_time": 90.3,
                "end_time": 90.9113636,
                "pitch": 57,
                "velocity": 64,
                "duration": 0.6113636,
                "tempo": 120.0
            },
            {
                "start_time": 90.9136364,
                "end_time": 91.5159091,
                "pitch": 59,
                "velocity": 64,
                "duration": 0.6022727,
                "tempo": 120.0
            },
            {
                "start_time": 91.5181818,
                "end_time": 92.3204545,
                "pitch": 60,
                "velocity": 64,
                "duration": 0.8022727,
                "tempo": 120.0
            },
            {
                "start_time": 92.3204545,
                "end_time": 92.7227273,
                "pitch": 62,
                "velocity": 64,
                "duration": 0.4022727,
                "tempo": 120.0
            },
            {
                "start_time": 92.7227273,
                "end_time": 92.9227273,
                "pitch": 60,
                "velocity": 64,
                "duration": 0.2,
                "tempo": 120.0
            },
            {
                "start_time": 92.925,
                "end_time": 93.125,
                "pitch": 59,
                "velocity": 64,
                "duration": 0.2,
                "tempo": 120.0
            },
            {
                "start_time": 93.125,
                "end_time": 93.3272727,
                "pitch": 57,
                "velocity": 64,
                "duration": 0.2022727,
                "tempo": 120.0
            },
            {
                "start_time": 93.3272727,
                "end_time": 93.5318182,
                "pitch": 59,
                "velocity": 64,
                "duration": 0.2045455,
                "tempo": 120.0
            },
            {
                "start_time": 93.5318182,
                "end_time": 94.1295455,
                "pitch": 60,
                "velocity": 64,
                "duration": 0.5977273,
                "tempo": 120.0
            },
            {
                "start_time": 94.1295455,
                "end_time": 94.5340909,
                "pitch": 57,
                "velocity": 64,
                "duration": 0.4045455,
                "tempo": 120.0
            },
            {
                "start_time": 94.5340909,
                "end_time": 94.7386364,
                "pitch": 55,
                "velocity": 64,
                "duration": 0.2045455,
                "tempo": 120.0
            },
            {
                "start_time": 94.7386364,
                "end_time": 96.1522727,
                "pitch": 53,
                "velocity": 64,
                "duration": 1.4136364,
                "tempo": 120.0
            },
            {
                "start_time": 96.1522727,
                "end_time": 96.3522727,
                "pitch": 52,
                "velocity": 64,
                "duration": 0.2,
                "tempo": 120.0
            },
            {
                "start_time": 96.3522727,
                "end_time": 96.5522727,
                "pitch": 53,
                "velocity": 64,
                "duration": 0.2,
                "tempo": 120.0
            },
            {
                "start_time": 96.5545455,
                "end_time": 96.7522727,
                "pitch": 55,
                "velocity": 64,
                "duration": 0.1977273,
                "tempo": 120.0
            },
            {
                "start_time": 96.7545455,
                "end_time": 97.3568182,
                "pitch": 57,
                "velocity": 64,
                "duration": 0.6022727,
                "tempo": 120.0
            },
            {
                "start_time": 97.3590909,
                "end_time": 97.9590909,
                "pitch": 59,
                "velocity": 64,
                "duration": 0.6,
                "tempo": 120.0
            },
            {
                "start_time": 97.9613636,
                "end_time": 98.7636364,
                "pitch": 60,
                "velocity": 64,
                "duration": 0.8022727,
                "tempo": 120.0
            },
            {
                "start_time": 98.7659091,
                "end_time": 99.1681818,
                "pitch": 65,
                "velocity": 64,
                "duration": 0.4022727,
                "tempo": 120.0
            },
            {
                "start_time": 99.1681818,
                "end_time": 99.3681818,
                "pitch": 64,
                "velocity": 64,
                "duration": 0.2,
                "tempo": 120.0
            },
            {
                "start_time": 99.3704545,
                "end_time": 99.5681818,
                "pitch": 62,
                "velocity": 64,
                "duration": 0.1977273,
                "tempo": 120.0
            },
            {
                "start_time": 99.5704545,
                "end_time": 99.7704545,
                "pitch": 60,
                "velocity": 64,
                "duration": 0.2,
                "tempo": 120.0
            },
            {
                "start_time": 99.7704545,
                "end_time": 99.9704545,
                "pitch": 62,
                "velocity": 64,
                "duration": 0.2,
                "tempo": 120.0
            },
            {
                "start_time": 99.9727273,
                "end_time": 100.3727273,
                "pitch": 64,
                "velocity": 64,
                "duration": 0.4,
                "tempo": 120.0
            },
            {
                "start_time": 100.375,
                "end_time": 100.5727273,
                "pitch": 62,
                "velocity": 64,
                "duration": 0.1977273,
                "tempo": 120.0
            },
            {
                "start_time": 100.575,
                "end_time": 100.975,
                "pitch": 57,
                "velocity": 64,
                "duration": 0.4,
                "tempo": 120.0
            },
            {
                "start_time": 100.9772727,
                "end_time": 101.3795455,
                "pitch": 67,
                "velocity": 64,
                "duration": 0.4022727,
                "tempo": 120.0
            },
            {
                "start_time": 101.3795455,
                "end_time": 103.1931818,
                "pitch": 64,
                "velocity": 64,
                "duration": 1.8136364,
                "tempo": 120.0
            },
            {
                "start_time": 103.1931818,
                "end_time": 103.8022727,
                "pitch": 57,
                "velocity": 64,
                "duration": 0.6090909,
                "tempo": 120.0
            },
            {
                "start_time": 103.8022727,
                "end_time": 104.4045455,
                "pitch": 59,
                "velocity": 64,
                "duration": 0.6022727,
                "tempo": 120.0
            },
            {
                "start_time": 104.4045455,
                "end_time": 105.2090909,
                "pitch": 60,
                "velocity": 64,
                "duration": 0.8045455,
                "tempo": 120.0
            },
            {
                "start_time": 105.2090909,
                "end_time": 105.6113636,
                "pitch": 62,
                "velocity": 64,
                "duration": 0.4022727,
                "tempo": 120.0
            },
            {
                "start_time": 105.6113636,
                "end_time": 105.8113636,
                "pitch": 60,
                "velocity": 64,
                "duration": 0.2,
                "tempo": 120.0
            },
            {
                "start_time": 105.8136364,
                "end_time": 106.0136364,
                "pitch": 59,
                "velocity": 64,
                "duration": 0.2,
                "tempo": 120.0
            },
            {
                "start_time": 106.0136364,
                "end_time": 106.2136364,
                "pitch": 57,
                "velocity": 64,
                "duration": 0.2,
                "tempo": 120.0
            },
            {
                "start_time": 106.2136364,
                "end_time": 106.4136364,
                "pitch": 59,
                "velocity": 64,
                "duration": 0.2,
                "tempo": 120.0
            },
            {
                "start_time": 106.4159091,
                "end_time": 107.0181818,
                "pitch": 60,
                "velocity": 64,
                "duration": 0.6022727,
                "tempo": 120.0
            },
            {
                "start_time": 107.0204545,
                "end_time": 107.4204545,
                "pitch": 57,
                "velocity": 64,
                "duration": 0.4,
                "tempo": 120.0
            },
            {
                "start_time": 107.4204545,
                "end_time": 107.6204545,
                "pitch": 55,
                "velocity": 64,
                "duration": 0.2,
                "tempo": 120.0
            },
            {
                "start_time": 107.6227273,
                "end_time": 109.0295455,
                "pitch": 53,
                "velocity": 64,
                "duration": 1.4068182,
                "tempo": 120.0
            },
            {
                "start_time": 109.0318182,
                "end_time": 109.2295455,
                "pitch": 57,
                "velocity": 64,
                "duration": 0.1977273,
                "tempo": 120.0
            },
            {
                "start_time": 109.2318182,
                "end_time": 109.4318182,
                "pitch": 59,
                "velocity": 64,
                "duration": 0.2,
                "tempo": 120.0
            },
            {
                "start_time": 109.4318182,
                "end_time": 109.6363636,
                "pitch": 60,
                "velocity": 64,
                "duration": 0.2045455,
                "tempo": 120.0
            },
            {
                "start_time": 109.6363636,
                "end_time": 110.0386364,
                "pitch": 59,
                "velocity": 64,
                "duration": 0.4022727,
                "tempo": 120.0
            },
            {
                "start_time": 110.0386364,
                "end_time": 110.2340909,
                "pitch": 55,
                "velocity": 64,
                "duration": 0.1954545,
                "tempo": 120.0
            },
            {
                "start_time": 110.2340909,
                "end_time": 110.6386364,
                "pitch": 52,
                "velocity": 64,
                "duration": 0.4045455,
                "tempo": 120.0
            },
            {
                "start_time": 110.6386364,
                "end_time": 110.8431818,
                "pitch": 52,
                "velocity": 64,
                "duration": 0.2045455,
                "tempo": 120.0
            },
            {
                "start_time": 110.8454545,
                "end_time": 111.05,
                "pitch": 55,
                "velocity": 64,
                "duration": 0.2045455,
                "tempo": 120.0
            },
            {
                "start_time": 111.05,
                "end_time": 111.25,
                "pitch": 59,
                "velocity": 64,
                "duration": 0.2,
                "tempo": 120.0
            },
            {
                "start_time": 111.2522727,
                "end_time": 111.4522727,
                "pitch": 62,
                "velocity": 64,
                "duration": 0.2,
                "tempo": 120.0
            },
            {
                "start_time": 111.4545455,
                "end_time": 111.6522727,
                "pitch": 60,
                "velocity": 64,
                "duration": 0.1977273,
                "tempo": 120.0
            },
            {
                "start_time": 111.6545455,
                "end_time": 111.8522727,
                "pitch": 59,
                "velocity": 64,
                "duration": 0.1977273,
                "tempo": 120.0
            },
            {
                "start_time": 111.8545455,
                "end_time": 112.0545455,
                "pitch": 62,
                "velocity": 64,
                "duration": 0.2,
                "tempo": 120.0
            },
            {
                "start_time": 112.0568182,
                "end_time": 112.2545455,
                "pitch": 60,
                "velocity": 64,
                "duration": 0.1977273,
                "tempo": 120.0
            },
            {
                "start_time": 112.2568182,
                "end_time": 112.6590909,
                "pitch": 59,
                "velocity": 64,
                "duration": 0.4022727,
                "tempo": 120.0
            },
            {
                "start_time": 112.6613636,
                "end_time": 114.4681818,
                "pitch": 57,
                "velocity": 64,
                "duration": 1.8068182,
                "tempo": 120.0
            },
            {
                "start_time": 116.0772727,
                "end_time": 116.4795455,
                "pitch": 55,
                "velocity": 64,
                "duration": 0.4022727,
                "tempo": 120.0
            },
            {
                "start_time": 116.4795455,
                "end_time": 116.6795455,
                "pitch": 55,
                "velocity": 64,
                "duration": 0.2,
                "tempo": 120.0
            },
            {
                "start_time": 116.6818182,
                "end_time": 117.0795455,
                "pitch": 60,
                "velocity": 64,
                "duration": 0.3977273,
                "tempo": 120.0
            },
            {
                "start_time": 117.0818182,
                "end_time": 117.4840909,
                "pitch": 60,
                "velocity": 64,
                "duration": 0.4022727,
                "tempo": 120.0
            },
            {
                "start_time": 117.4863636,
                "end_time": 117.8954545,
                "pitch": 64,
                "velocity": 64,
                "duration": 0.4090909,
                "tempo": 120.0
            },
            {
                "start_time": 117.8954545,
                "end_time": 118.3,
                "pitch": 64,
                "velocity": 64,
                "duration": 0.4045455,
                "tempo": 120.0
            },
            {
                "start_time": 118.3,
                "end_time": 118.4977273,
                "pitch": 64,
                "velocity": 64,
                "duration": 0.1977273,
                "tempo": 120.0
            },
            {
                "start_time": 118.5,
                "end_time": 118.9,
                "pitch": 62,
                "velocity": 64,
                "duration": 0.4,
                "tempo": 120.0
            },
            {
                "start_time": 118.9022727,
                "end_time": 119.3022727,
                "pitch": 60,
                "velocity": 64,
                "duration": 0.4,
                "tempo": 120.0
            },
            {
                "start_time": 119.3045455,
                "end_time": 119.7045455,
                "pitch": 52,
                "velocity": 64,
                "duration": 0.4,
                "tempo": 120.0
            },
            {
                "start_time": 119.7068182,
                "end_time": 119.9068182,
                "pitch": 52,
                "velocity": 64,
                "duration": 0.2,
                "tempo": 120.0
            },
            {
                "start_time": 119.9068182,
                "end_time": 120.3090909,
                "pitch": 57,
                "velocity": 64,
                "duration": 0.4022727,
                "tempo": 120.0
            },
            {
                "start_time": 120.3113636,
                "end_time": 120.7090909,
                "pitch": 57,
                "velocity": 64,
                "duration": 0.3977273,
                "tempo": 120.0
            },
            {
                "start_time": 120.7113636,
                "end_time": 121.1136364,
                "pitch": 60,
                "velocity": 64,
                "duration": 0.4022727,
                "tempo": 120.0
            },
            {
                "start_time": 121.1136364,
                "end_time": 121.5136364,
                "pitch": 60,
                "velocity": 64,
                "duration": 0.4,
                "tempo": 120.0
            },
            {
                "start_time": 121.5159091,
                "end_time": 121.7159091,
                "pitch": 60,
                "velocity": 64,
                "duration": 0.2,
                "tempo": 120.0
            },
            {
                "start_time": 121.7159091,
                "end_time": 122.1181818,
                "pitch": 59,
                "velocity": 64,
                "duration": 0.4022727,
                "tempo": 120.0
            },
            {
                "start_time": 122.1204545,
                "end_time": 122.5204545,
                "pitch": 57,
                "velocity": 64,
                "duration": 0.4,
                "tempo": 120.0
            },
            {
                "start_time": 122.5204545,
                "end_time": 122.9227273,
                "pitch": 57,
                "velocity": 64,
                "duration": 0.4022727,
                "tempo": 120.0
            },
            {
                "start_time": 122.9227273,
                "end_time": 123.1227273,
                "pitch": 57,
                "velocity": 64,
                "duration": 0.2,
                "tempo": 120.0
            },
            {
                "start_time": 123.125,
                "end_time": 123.525,
                "pitch": 62,
                "velocity": 64,
                "duration": 0.4,
                "tempo": 120.0
            },
            {
                "start_time": 123.525,
                "end_time": 123.9272727,
                "pitch": 62,
                "velocity": 64,
                "duration": 0.4022727,
                "tempo": 120.0
            },
            {
                "start_time": 123.9295455,
                "end_time": 124.3295455,
                "pitch": 65,
                "velocity": 64,
                "duration": 0.4,
                "tempo": 120.0
            },
            {
                "start_time": 124.3318182,
                "end_time": 124.7318182,
                "pitch": 65,
                "velocity": 64,
                "duration": 0.4,
                "tempo": 120.0
            },
            {
                "start_time": 124.7318182,
                "end_time": 124.9318182,
                "pitch": 65,
                "velocity": 64,
                "duration": 0.2,
                "tempo": 120.0
            },
            {
                "start_time": 124.9340909,
                "end_time": 125.3340909,
                "pitch": 64,
                "velocity": 64,
                "duration": 0.4,
                "tempo": 120.0
            },
            {
                "start_time": 125.3363636,
                "end_time": 125.7409091,
                "pitch": 65,
                "velocity": 64,
                "duration": 0.4045455,
                "tempo": 120.0
            },
            {
                "start_time": 125.7409091,
                "end_time": 126.75,
                "pitch": 67,
                "velocity": 64,
                "duration": 1.0090909,
                "tempo": 120.0
            },
            {
                "start_time": 126.7522727,
                "end_time": 126.9522727,
                "pitch": 64,
                "velocity": 64,
                "duration": 0.2,
                "tempo": 120.0
            },
            {
                "start_time": 126.9522727,
                "end_time": 127.1522727,
                "pitch": 68,
                "velocity": 64,
                "duration": 0.2,
                "tempo": 120.0
            },
            {
                "start_time": 127.1545455,
                "end_time": 128.9636364,
                "pitch": 71,
                "velocity": 64,
                "duration": 1.8090909,
                "tempo": 120.0
            },
            {
                "start_time": 128.9659091,
                "end_time": 129.1636364,
                "pitch": 64,
                "velocity": 51,
                "duration": 0.1977273,
                "tempo": 120.0
            },
            {
                "start_time": 129.1659091,
                "end_time": 129.5681818,
                "pitch": 72,
                "velocity": 51,
                "duration": 0.4022727,
                "tempo": 120.0
            },
            {
                "start_time": 129.5681818,
                "end_time": 129.9681818,
                "pitch": 71,
                "velocity": 51,
                "duration": 0.4,
                "tempo": 120.0
            },
            {
                "start_time": 129.9681818,
                "end_time": 130.3704545,
                "pitch": 69,
                "velocity": 51,
                "duration": 0.4022727,
                "tempo": 120.0
            },
            {
                "start_time": 130.3727273,
                "end_time": 130.975,
                "pitch": 64,
                "velocity": 51,
                "duration": 0.6022727,
                "tempo": 120.0
            },
            {
                "start_time": 130.9772727,
                "end_time": 131.3795455,
                "pitch": 72,
                "velocity": 51,
                "duration": 0.4022727,
                "tempo": 120.0
            },
            {
                "start_time": 131.3795455,
                "end_time": 131.7795455,
                "pitch": 71,
                "velocity": 51,
                "duration": 0.4,
                "tempo": 120.0
            },
            {
                "start_time": 131.7818182,
                "end_time": 132.1863636,
                "pitch": 69,
                "velocity": 51,
                "duration": 0.4045455,
                "tempo": 120.0
            },
            {
                "start_time": 132.1886364,
                "end_time": 132.3931818,
                "pitch": 71,
                "velocity": 51,
                "duration": 0.2045455,
                "tempo": 120.0
            },
            {
                "start_time": 132.3931818,
                "end_time": 132.7840909,
                "pitch": 62,
                "velocity": 51,
                "duration": 0.3909091,
                "tempo": 120.0
            },
            {
                "start_time": 132.7863636,
                "end_time": 133.1954545,
                "pitch": 67,
                "velocity": 51,
                "duration": 0.4090909,
                "tempo": 120.0
            },
            {
                "start_time": 133.1977273,
                "end_time": 133.6,
                "pitch": 71,
                "velocity": 51,
                "duration": 0.4022727,
                "tempo": 120.0
            },
            {
                "start_time": 133.6022727,
                "end_time": 133.8,
                "pitch": 69,
                "velocity": 51,
                "duration": 0.1977273,
                "tempo": 120.0
            },
            {
                "start_time": 133.8022727,
                "end_time": 134.2022727,
                "pitch": 67,
                "velocity": 51,
                "duration": 0.4,
                "tempo": 120.0
            },
            {
                "start_time": 134.2045455,
                "end_time": 134.6045455,
                "pitch": 64,
                "velocity": 51,
                "duration": 0.4,
                "tempo": 120.0
            },
            {
                "start_time": 134.6068182,
                "end_time": 135.0068182,
                "pitch": 65,
                "velocity": 51,
                "duration": 0.4,
                "tempo": 120.0
            },
            {
                "start_time": 135.0090909,
                "end_time": 135.4113636,
                "pitch": 67,
                "velocity": 51,
                "duration": 0.4022727,
                "tempo": 120.0
            },
            {
                "start_time": 135.4136364,
                "end_time": 135.6136364,
                "pitch": 69,
                "velocity": 51,
                "duration": 0.2,
                "tempo": 120.0
            },
            {
                "start_time": 135.6136364,
                "end_time": 136.0159091,
                "pitch": 62,
                "velocity": 51,
                "duration": 0.4022727,
                "tempo": 120.0
            },
            {
                "start_time": 136.0159091,
                "end_time": 136.4159091,
                "pitch": 64,
                "velocity": 51,
                "duration": 0.4,
                "tempo": 120.0
            },
            {
                "start_time": 136.4181818,
                "end_time": 136.8204545,
                "pitch": 65,
                "velocity": 51,
                "duration": 0.4022727,
                "tempo": 120.0
            },
            {
                "start_time": 136.8204545,
                "end_time": 137.425,
                "pitch": 67,
                "velocity": 51,
                "duration": 0.6045455,
                "tempo": 120.0
            },
            {
                "start_time": 137.425,
                "end_time": 137.8272727,
                "pitch": 65,
                "velocity": 51,
                "duration": 0.4022727,
                "tempo": 120.0
            },
            {
                "start_time": 137.8295455,
                "end_time": 138.2295455,
                "pitch": 64,
                "velocity": 51,
                "duration": 0.4,
                "tempo": 120.0
            },
            {
                "start_time": 138.2295455,
                "end_time": 138.6318182,
                "pitch": 65,
                "velocity": 51,
                "duration": 0.4022727,
                "tempo": 120.0
            },
            {
                "start_time": 138.6318182,
                "end_time": 138.8318182,
                "pitch": 71,
                "velocity": 51,
                "duration": 0.2,
                "tempo": 120.0
            },
            {
                "start_time": 138.8340909,
                "end_time": 139.2363636,
                "pitch": 62,
                "velocity": 51,
                "duration": 0.4022727,
                "tempo": 120.0
            },
            {
                "start_time": 139.2363636,
                "end_time": 139.6386364,
                "pitch": 67,
                "velocity": 51,
                "duration": 0.4022727,
                "tempo": 120.0
            },
            {
                "start_time": 139.6409091,
                "end_time": 139.8409091,
                "pitch": 64,
                "velocity": 51,
                "duration": 0.2,
                "tempo": 120.0
            },
            {
                "start_time": 139.8409091,
                "end_time": 140.2477273,
                "pitch": 71,
                "velocity": 51,
                "duration": 0.4068182,
                "tempo": 120.0
            },
            {
                "start_time": 140.25,
                "end_time": 141.0522727,
                "pitch": 69,
                "velocity": 51,
                "duration": 0.8022727,
                "tempo": 120.0
            },
            {
                "start_time": 141.0522727,
                "end_time": 141.4590909,
                "pitch": 67,
                "velocity": 51,
                "duration": 0.4068182,
                "tempo": 120.0
            },
            {
                "start_time": 141.4613636,
                "end_time": 141.8636364,
                "pitch": 65,
                "velocity": 51,
                "duration": 0.4022727,
                "tempo": 120.0
            },
            {
                "start_time": 141.8636364,
                "end_time": 142.0636364,
                "pitch": 64,
                "velocity": 51,
                "duration": 0.2,
                "tempo": 120.0
            },
            {
                "start_time": 142.0659091,
                "end_time": 142.4681818,
                "pitch": 72,
                "velocity": 51,
                "duration": 0.4022727,
                "tempo": 120.0
            },
            {
                "start_time": 142.4681818,
                "end_time": 142.8704545,
                "pitch": 71,
                "velocity": 51,
                "duration": 0.4022727,
                "tempo": 120.0
            },
            {
                "start_time": 142.8704545,
                "end_time": 143.2704545,
                "pitch": 69,
                "velocity": 51,
                "duration": 0.4,
                "tempo": 120.0
            },
            {
                "start_time": 143.2727273,
                "end_time": 143.875,
                "pitch": 64,
                "velocity": 51,
                "duration": 0.6022727,
                "tempo": 120.0
            },
            {
                "start_time": 143.8772727,
                "end_time": 144.2795455,
                "pitch": 72,
                "velocity": 51,
                "duration": 0.4022727,
                "tempo": 120.0
            },
            {
                "start_time": 144.2795455,
                "end_time": 144.6818182,
                "pitch": 71,
                "velocity": 51,
                "duration": 0.4022727,
                "tempo": 120.0
            },
            {
                "start_time": 144.6840909,
                "end_time": 145.0840909,
                "pitch": 69,
                "velocity": 51,
                "duration": 0.4,
                "tempo": 120.0
            },
            {
                "start_time": 145.0863636,
                "end_time": 145.2840909,
                "pitch": 71,
                "velocity": 51,
                "duration": 0.1977273,
                "tempo": 120.0
            },
            {
                "start_time": 145.2863636,
                "end_time": 145.6863636,
                "pitch": 62,
                "velocity": 51,
                "duration": 0.4,
                "tempo": 120.0
            },
            {
                "start_time": 145.6886364,
                "end_time": 146.0909091,
                "pitch": 67,
                "velocity": 51,
                "duration": 0.4022727,
                "tempo": 120.0
            },
            {
                "start_time": 146.0909091,
                "end_time": 146.4954545,
                "pitch": 71,
                "velocity": 51,
                "duration": 0.4045455,
                "tempo": 120.0
            },
            {
                "start_time": 146.4954545,
                "end_time": 146.6954545,
                "pitch": 69,
                "velocity": 51,
                "duration": 0.2,
                "tempo": 120.0
            },
            {
                "start_time": 146.6977273,
                "end_time": 147.0977273,
                "pitch": 67,
                "velocity": 51,
                "duration": 0.4,
                "tempo": 120.0
            },
            {
                "start_time": 147.0977273,
                "end_time": 147.5,
                "pitch": 64,
                "velocity": 51,
                "duration": 0.4022727,
                "tempo": 120.0
            },
            {
                "start_time": 147.5,
                "end_time": 147.9022727,
                "pitch": 65,
                "velocity": 51,
                "duration": 0.4022727,
                "tempo": 120.0
            },
            {
                "start_time": 147.9045455,
                "end_time": 148.3090909,
                "pitch": 67,
                "velocity": 51,
                "duration": 0.4045455,
                "tempo": 120.0
            },
            {
                "start_time": 148.3113636,
                "end_time": 148.5159091,
                "pitch": 69,
                "velocity": 51,
                "duration": 0.2045455,
                "tempo": 120.0
            },
            {
                "start_time": 148.5159091,
                "end_time": 148.9181818,
                "pitch": 62,
                "velocity": 51,
                "duration": 0.4022727,
                "tempo": 120.0
            },
            {
                "start_time": 148.9204545,
                "end_time": 149.3227273,
                "pitch": 64,
                "velocity": 51,
                "duration": 0.4022727,
                "tempo": 120.0
            },
            {
                "start_time": 149.3227273,
                "end_time": 149.725,
                "pitch": 65,
                "velocity": 51,
                "duration": 0.4022727,
                "tempo": 120.0
            },
            {
                "start_time": 149.7272727,
                "end_time": 150.3272727,
                "pitch": 67,
                "velocity": 51,
                "duration": 0.6,
                "tempo": 120.0
            },
            {
                "start_time": 150.3295455,
                "end_time": 150.7295455,
                "pitch": 65,
                "velocity": 51,
                "duration": 0.4,
                "tempo": 120.0
            },
            {
                "start_time": 150.7318182,
                "end_time": 151.1340909,
                "pitch": 64,
                "velocity": 51,
                "duration": 0.4022727,
                "tempo": 120.0
            },
            {
                "start_time": 151.1340909,
                "end_time": 151.5363636,
                "pitch": 65,
                "velocity": 51,
                "duration": 0.4022727,
                "tempo": 120.0
            },
            {
                "start_time": 151.5386364,
                "end_time": 151.7386364,
                "pitch": 71,
                "velocity": 51,
                "duration": 0.2,
                "tempo": 120.0
            },
            {
                "start_time": 151.7386364,
                "end_time": 152.1386364,
                "pitch": 62,
                "velocity": 51,
                "duration": 0.4,
                "tempo": 120.0
            },
            {
                "start_time": 152.1409091,
                "end_time": 152.5431818,
                "pitch": 67,
                "velocity": 51,
                "duration": 0.4022727,
                "tempo": 120.0
            },
            {
                "start_time": 152.5431818,
                "end_time": 152.7431818,
                "pitch": 64,
                "velocity": 51,
                "duration": 0.2,
                "tempo": 120.0
            },
            {
                "start_time": 152.7454545,
                "end_time": 153.1477273,
                "pitch": 71,
                "velocity": 51,
                "duration": 0.4022727,
                "tempo": 120.0
            },
            {
                "start_time": 153.1477273,
                "end_time": 154.7590909,
                "pitch": 69,
                "velocity": 51,
                "duration": 1.6113636,
                "tempo": 120.0
            },
            {
                "start_time": 154.7613636,
                "end_time": 154.8272727,
                "pitch": 64,
                "velocity": 64,
                "duration": 0.0659091,
                "tempo": 120.0
            },
            {
                "start_time": 154.8272727,
                "end_time": 154.8931818,
                "pitch": 66,
                "velocity": 64,
                "duration": 0.0659091,
                "tempo": 120.0
            },
            {
                "start_time": 154.8931818,
                "end_time": 154.8954545,
                "pitch": 55,
                "velocity": 64,
                "duration": 0.0022727,
                "tempo": 120.0
            },
            {
                "start_time": 154.8954545,
                "end_time": 155.3636364,
                "pitch": 67,
                "velocity": 64,
                "duration": 0.4681818,
                "tempo": 120.0
            },
            {
                "start_time": 155.3659091,
                "end_time": 155.85,
                "pitch": 79,
                "velocity": 64,
                "duration": 0.4840909,
                "tempo": 120.0
            },
            {
                "start_time": 155.85,
                "end_time": 155.8681818,
                "pitch": 79,
                "velocity": 64,
                "duration": 0.0181818,
                "tempo": 120.0
            },
            {
                "start_time": 155.8681818,
                "end_time": 155.9659091,
                "pitch": 79,
                "velocity": 64,
                "duration": 0.0977273,
                "tempo": 120.0
            },
            {
                "start_time": 155.9681818,
                "end_time": 157.1727273,
                "pitch": 77,
                "velocity": 64,
                "duration": 1.2045455,
                "tempo": 120.0
            },
            {
                "start_time": 157.175,
                "end_time": 157.5795455,
                "pitch": 75,
                "velocity": 64,
                "duration": 0.4045455,
                "tempo": 120.0
            },
            {
                "start_time": 157.5818182,
                "end_time": 157.9863636,
                "pitch": 74,
                "velocity": 64,
                "duration": 0.4045455,
                "tempo": 120.0
            },
            {
                "start_time": 157.9886364,
                "end_time": 158.5886364,
                "pitch": 72,
                "velocity": 64,
                "duration": 0.6,
                "tempo": 120.0
            },
            {
                "start_time": 158.5909091,
                "end_time": 161.0068182,
                "pitch": 74,
                "velocity": 64,
                "duration": 2.4159091,
                "tempo": 120.0
            },
            {
                "start_time": 155.8681818,
                "end_time": 161.075,
                "pitch": 67,
                "velocity": 64,
                "duration": 5.2068182,
                "tempo": 120.0
            },
            {
                "start_time": 161.0090909,
                "end_time": 161.075,
                "pitch": 67,
                "velocity": 64,
                "duration": 0.0659091,
                "tempo": 120.0
            },
            {
                "start_time": 161.075,
                "end_time": 161.1409091,
                "pitch": 74,
                "velocity": 64,
                "duration": 0.0659091,
                "tempo": 120.0
            },
            {
                "start_time": 161.1409091,
                "end_time": 161.2068182,
                "pitch": 79,
                "velocity": 64,
                "duration": 0.0659091,
                "tempo": 120.0
            },
            {
                "start_time": 161.2090909,
                "end_time": 161.8113636,
                "pitch": 86,
                "velocity": 64,
                "duration": 0.6022727,
                "tempo": 120.0
            },
            {
                "start_time": 161.8136364,
                "end_time": 162.2159091,
                "pitch": 84,
                "velocity": 64,
                "duration": 0.4022727,
                "tempo": 120.0
            },
            {
                "start_time": 161.1409091,
                "end_time": 162.2840909,
                "pitch": 67,
                "velocity": 64,
                "duration": 1.1431818,
                "tempo": 120.0
            },
            {
                "start_time": 162.2181818,
                "end_time": 162.2840909,
                "pitch": 74,
                "velocity": 64,
                "duration": 0.0659091,
                "tempo": 120.0
            },
            {
                "start_time": 162.2840909,
                "end_time": 162.35,
                "pitch": 79,
                "velocity": 64,
                "duration": 0.0659091,
                "tempo": 120.0
            },
            {
                "start_time": 162.35,
                "end_time": 162.4159091,
                "pitch": 82,
                "velocity": 64,
                "duration": 0.0659091,
                "tempo": 120.0
            },
            {
                "start_time": 162.4181818,
                "end_time": 163.2204545,
                "pitch": 86,
                "velocity": 64,
                "duration": 0.8022727,
                "tempo": 120.0
            },
            {
                "start_time": 163.2227273,
                "end_time": 163.6227273,
                "pitch": 84,
                "velocity": 64,
                "duration": 0.4,
                "tempo": 120.0
            },
            {
                "start_time": 163.625,
                "end_time": 163.6590909,
                "pitch": 79,
                "velocity": 64,
                "duration": 0.0340909,
                "tempo": 120.0
            },
            {
                "start_time": 163.6590909,
                "end_time": 163.6909091,
                "pitch": 82,
                "velocity": 64,
                "duration": 0.0318182,
                "tempo": 120.0
            },
            {
                "start_time": 163.6931818,
                "end_time": 164.0318182,
                "pitch": 86,
                "velocity": 64,
                "duration": 0.3386364,
                "tempo": 120.0
            },
            {
                "start_time": 164.0340909,
                "end_time": 164.4386364,
                "pitch": 89,
                "velocity": 64,
                "duration": 0.4045455,
                "tempo": 120.0
            },
            {
                "start_time": 164.4409091,
                "end_time": 164.4568182,
                "pitch": 90,
                "velocity": 64,
                "duration": 0.0159091,
                "tempo": 120.0
            },
            {
                "start_time": 155.85,
                "end_time": 164.9204545,
                "pitch": 91,
                "velocity": 64,
                "duration": 9.0704545,
                "tempo": 120.0
            },
            {
                "start_time": 164.4568182,
                "end_time": 164.9204545,
                "pitch": 91,
                "velocity": 64,
                "duration": 0.4636364,
                "tempo": 120.0
            },
            {
                "start_time": 164.4568182,
                "end_time": 164.9363636,
                "pitch": 79,
                "velocity": 64,
                "duration": 0.4795455,
                "tempo": 120.0
            },
            {
                "start_time": 164.9204545,
                "end_time": 164.9363636,
                "pitch": 91,
                "velocity": 64,
                "duration": 0.0159091,
                "tempo": 120.0
            },
            {
                "start_time": 164.9363636,
                "end_time": 165.0681818,
                "pitch": 91,
                "velocity": 64,
                "duration": 0.1318182,
                "tempo": 120.0
            },
            {
                "start_time": 164.9204545,
                "end_time": 165.0681818,
                "pitch": 103,
                "velocity": 64,
                "duration": 0.1477273,
                "tempo": 120.0
            },
            {
                "start_time": 164.9363636,
                "end_time": 165.1022727,
                "pitch": 79,
                "velocity": 64,
                "duration": 0.1659091,
                "tempo": 120.0
            },
            {
                "start_time": 165.0681818,
                "end_time": 165.1022727,
                "pitch": 91,
                "velocity": 64,
                "duration": 0.0340909,
                "tempo": 120.0
            },
            {
                "start_time": 165.1022727,
                "end_time": 165.2363636,
                "pitch": 91,
                "velocity": 64,
                "duration": 0.1340909,
                "tempo": 120.0
            },
            {
                "start_time": 165.0681818,
                "end_time": 165.2363636,
                "pitch": 103,
                "velocity": 64,
                "duration": 0.1681818,
                "tempo": 120.0
            },
            {
                "start_time": 165.1022727,
                "end_time": 165.2704545,
                "pitch": 79,
                "velocity": 64,
                "duration": 0.1681818,
                "tempo": 120.0
            },
            {
                "start_time": 165.2363636,
                "end_time": 165.2704545,
                "pitch": 91,
                "velocity": 64,
                "duration": 0.0340909,
                "tempo": 120.0
            },
            {
                "start_time": 165.2704545,
                "end_time": 165.4045455,
                "pitch": 91,
                "velocity": 64,
                "duration": 0.1340909,
                "tempo": 120.0
            },
            {
                "start_time": 165.2363636,
                "end_time": 165.4045455,
                "pitch": 103,
                "velocity": 64,
                "duration": 0.1681818,
                "tempo": 120.0
            },
            {
                "start_time": 165.2704545,
                "end_time": 165.5772727,
                "pitch": 79,
                "velocity": 64,
                "duration": 0.3068182,
                "tempo": 120.0
            },
            {
                "start_time": 165.4045455,
                "end_time": 165.5772727,
                "pitch": 91,
                "velocity": 64,
                "duration": 0.1727273,
                "tempo": 120.0
            },
            {
                "start_time": 165.5772727,
                "end_time": 165.7136364,
                "pitch": 91,
                "velocity": 64,
                "duration": 0.1363636,
                "tempo": 120.0
            },
            {
                "start_time": 165.5772727,
                "end_time": 165.85,
                "pitch": 79,
                "velocity": 64,
                "duration": 0.2727273,
                "tempo": 120.0
            },
            {
                "start_time": 165.7136364,
                "end_time": 165.85,
                "pitch": 90,
                "velocity": 64,
                "duration": 0.1363636,
                "tempo": 120.0
            },
            {
                "start_time": 165.85,
                "end_time": 165.9795455,
                "pitch": 91,
                "velocity": 64,
                "duration": 0.1295455,
                "tempo": 120.0
            },
            {
                "start_time": 165.7136364,
                "end_time": 165.9795455,
                "pitch": 102,
                "velocity": 64,
                "duration": 0.2659091,
                "tempo": 120.0
            },
            {
                "start_time": 165.85,
                "end_time": 166.1113636,
                "pitch": 79,
                "velocity": 64,
                "duration": 0.2613636,
                "tempo": 120.0
            },
            {
                "start_time": 165.9795455,
                "end_time": 166.1113636,
                "pitch": 90,
                "velocity": 64,
                "duration": 0.1318182,
                "tempo": 120.0
            },
            {
                "start_time": 166.1113636,
                "end_time": 166.2431818,
                "pitch": 91,
                "velocity": 64,
                "duration": 0.1318182,
                "tempo": 120.0
            },
            {
                "start_time": 165.9795455,
                "end_time": 166.2431818,
                "pitch": 102,
                "velocity": 64,
                "duration": 0.2636364,
                "tempo": 120.0
            },
            {
                "start_time": 166.1113636,
                "end_time": 166.3795455,
                "pitch": 79,
                "velocity": 64,
                "duration": 0.2681818,
                "tempo": 120.0
            },
            {
                "start_time": 166.2431818,
                "end_time": 166.3795455,
                "pitch": 90,
                "velocity": 64,
                "duration": 0.1363636,
                "tempo": 120.0
            },
            {
                "start_time": 166.3795455,
                "end_time": 166.5159091,
                "pitch": 91,
                "velocity": 64,
                "duration": 0.1363636,
                "tempo": 120.0
            },
            {
                "start_time": 166.2431818,
                "end_time": 166.5159091,
                "pitch": 102,
                "velocity": 64,
                "duration": 0.2727273,
                "tempo": 120.0
            },
            {
                "start_time": 166.5159091,
                "end_time": 166.6522727,
                "pitch": 90,
                "velocity": 64,
                "duration": 0.1363636,
                "tempo": 120.0
            },
            {
                "start_time": 166.3795455,
                "end_time": 166.6545455,
                "pitch": 79,
                "velocity": 64,
                "duration": 0.275,
                "tempo": 120.0
            },
            {
                "start_time": 166.6522727,
                "end_time": 166.6545455,
                "pitch": 79,
                "velocity": 64,
                "duration": 0.0022727,
                "tempo": 120.0
            },
            {
                "start_time": 166.6545455,
                "end_time": 167.2863636,
                "pitch": 91,
                "velocity": 64,
                "duration": 0.6318182,
                "tempo": 120.0
            },
            {
                "start_time": 165.4045455,
                "end_time": 167.2863636,
                "pitch": 103,
                "velocity": 64,
                "duration": 1.8818182,
                "tempo": 120.0
            },
            {
                "start_time": 167.2863636,
                "end_time": 167.5386364,
                "pitch": 91,
                "velocity": 64,
                "duration": 0.2522727,
                "tempo": 120.0
            },
            {
                "start_time": 167.5386364,
                "end_time": 167.6568182,
                "pitch": 89,
                "velocity": 64,
                "duration": 0.1181818,
                "tempo": 120.0
            },
            {
                "start_time": 167.6590909,
                "end_time": 167.8568182,
                "pitch": 64,
                "velocity": 64,
                "duration": 0.1977273,
                "tempo": 120.0
            },
            {
                "start_time": 167.8590909,
                "end_time": 168.2590909,
                "pitch": 57,
                "velocity": 64,
                "duration": 0.4,
                "tempo": 120.0
            },
            {
                "start_time": 168.2613636,
                "end_time": 168.6636364,
                "pitch": 59,
                "velocity": 64,
                "duration": 0.4022727,
                "tempo": 120.0
            },
            {
                "start_time": 168.6636364,
                "end_time": 169.0659091,
                "pitch": 60,
                "velocity": 64,
                "duration": 0.4022727,
                "tempo": 120.0
            },
            {
                "start_time": 169.0681818,
                "end_time": 169.6681818,
                "pitch": 62,
                "velocity": 64,
                "duration": 0.6,
                "tempo": 120.0
            },
            {
                "start_time": 169.6704545,
                "end_time": 170.0727273,
                "pitch": 55,
                "velocity": 64,
                "duration": 0.4022727,
                "tempo": 120.0
            },
            {
                "start_time": 170.0727273,
                "end_time": 170.2727273,
                "pitch": 59,
                "velocity": 64,
                "duration": 0.2,
                "tempo": 120.0
            },
            {
                "start_time": 170.275,
                "end_time": 170.8795455,
                "pitch": 60,
                "velocity": 64,
                "duration": 0.6045455,
                "tempo": 120.0
            },
            {
                "start_time": 170.8795455,
                "end_time": 171.0795455,
                "pitch": 64,
                "velocity": 64,
                "duration": 0.2,
                "tempo": 120.0
            },
            {
                "start_time": 171.0818182,
                "end_time": 171.4795455,
                "pitch": 57,
                "velocity": 64,
                "duration": 0.3977273,
                "tempo": 120.0
            },
            {
                "start_time": 171.4818182,
                "end_time": 171.8840909,
                "pitch": 59,
                "velocity": 64,
                "duration": 0.4022727,
                "tempo": 120.0
            },
            {
                "start_time": 171.8840909,
                "end_time": 172.2954545,
                "pitch": 69,
                "velocity": 64,
                "duration": 0.4113636,
                "tempo": 120.0
            },
            {
                "start_time": 162.2840909,
                "end_time": 172.8931818,
                "pitch": 67,
                "velocity": 64,
                "duration": 10.6090909,
                "tempo": 120.0
            },
            {
                "start_time": 172.2954545,
                "end_time": 172.8931818,
                "pitch": 67,
                "velocity": 64,
                "duration": 0.5977273,
                "tempo": 120.0
            },
            {
                "start_time": 172.8931818,
                "end_time": 173.3,
                "pitch": 65,
                "velocity": 64,
                "duration": 0.4068182,
                "tempo": 120.0
            },
            {
                "start_time": 173.3022727,
                "end_time": 173.7022727,
                "pitch": 64,
                "velocity": 64,
                "duration": 0.4,
                "tempo": 120.0
            },
            {
                "start_time": 173.7022727,
                "end_time": 174.1045455,
                "pitch": 62,
                "velocity": 64,
                "duration": 0.4022727,
                "tempo": 120.0
            },
            {
                "start_time": 174.1068182,
                "end_time": 174.3045455,
                "pitch": 64,
                "velocity": 64,
                "duration": 0.1977273,
                "tempo": 120.0
            },
            {
                "start_time": 174.3068182,
                "end_time": 174.7090909,
                "pitch": 57,
                "velocity": 64,
                "duration": 0.4022727,
                "tempo": 120.0
            },
            {
                "start_time": 174.7090909,
                "end_time": 175.1113636,
                "pitch": 59,
                "velocity": 64,
                "duration": 0.4022727,
                "tempo": 120.0
            },
            {
                "start_time": 175.1136364,
                "end_time": 175.5159091,
                "pitch": 60,
                "velocity": 64,
                "duration": 0.4022727,
                "tempo": 120.0
            },
            {
                "start_time": 175.5159091,
                "end_time": 176.1181818,
                "pitch": 62,
                "velocity": 64,
                "duration": 0.6022727,
                "tempo": 120.0
            },
            {
                "start_time": 176.1181818,
                "end_time": 176.5204545,
                "pitch": 55,
                "velocity": 64,
                "duration": 0.4022727,
                "tempo": 120.0
            },
            {
                "start_time": 176.5227273,
                "end_time": 176.7227273,
                "pitch": 59,
                "velocity": 64,
                "duration": 0.2,
                "tempo": 120.0
            },
            {
                "start_time": 176.7227273,
                "end_time": 177.3272727,
                "pitch": 60,
                "velocity": 64,
                "duration": 0.6045455,
                "tempo": 120.0
            },
            {
                "start_time": 177.3272727,
                "end_time": 177.7295455,
                "pitch": 57,
                "velocity": 64,
                "duration": 0.4022727,
                "tempo": 120.0
            },
            {
                "start_time": 177.7295455,
                "end_time": 178.3318182,
                "pitch": 60,
                "velocity": 64,
                "duration": 0.6022727,
                "tempo": 120.0
            },
            {
                "start_time": 178.3340909,
                "end_time": 178.7363636,
                "pitch": 59,
                "velocity": 64,
                "duration": 0.4022727,
                "tempo": 120.0
            },
            {
                "start_time": 178.7363636,
                "end_time": 178.9363636,
                "pitch": 55,
                "velocity": 64,
                "duration": 0.2,
                "tempo": 120.0
            }
        ]
    }
}