{
    "mood": "sad",
    "instruments": {
        "Electric Piano 1": [
            {
                "start_time": 86.6522727,
                "end_time": 87.1909091,
                "pitch": 50,
                "velocity": 51,
                "duration": 0.5386364,
                "tempo": 120.0
            },
            {
                "start_time": 87.2386364,
                "end_time": 87.7909091,
                "pitch": 50,
                "velocity": 51,
                "duration": 0.5522727,
                "tempo": 120.0
            },
            {
                "start_time": 87.8386364,
                "end_time": 88.1045455,
                "pitch": 52,
                "velocity": 51,
                "duration": 0.2659091,
                "tempo": 120.0
            },
            {
                "start_time": 88.1386364,
                "end_time": 88.3886364,
                "pitch": 53,
                "velocity": 51,
                "duration": 0.25,
                "tempo": 120.0
            },
            {
                "start_time": 88.4363636,
                "end_time": 88.9886364,
                "pitch": 55,
                "velocity": 51,
                "duration": 0.5522727,
                "tempo": 120.0
            },
            {
                "start_time": 89.0204545,
                "end_time": 89.5772727,
                "pitch": 55,
                "velocity": 51,
                "duration": 0.5568182,
                "tempo": 120.0
            },
            {
                "start_time": 89.6090909,
                "end_time": 89.8681818,
                "pitch": 57,
                "velocity": 51,
                "duration": 0.2590909,
                "tempo": 120.0
            },
            {
                "start_time": 89.9181818,
                "end_time": 90.1772727,
                "pitch": 59,
                "velocity": 51,
                "duration": 0.2590909,
                "tempo": 120.0
            },
            {
                "start_time": 90.2113636,
                "end_time": 90.775,
                "pitch": 52,
                "velocity": 51,
                "duration": 0.5636364,
                "tempo": 120.0
            },
            {
                "start_time": 90.8090909,
                "end_time": 91.3659091,
                "pitch": 48,
                "velocity": 51,
                "duration": 0.5568182,
                "tempo": 120.0
            },
            {
                "start_time": 91.4,
                "end_time": 91.6568182,
                "pitch": 52,
                "velocity": 51,
                "duration": 0.2568182,
                "tempo": 120.0
            },
            {
                "start_time": 91.6909091,
                "end_time": 91.9568182,
                "pitch": 52,
                "velocity": 51,
                "duration": 0.2659091,
                "tempo": 120.0
            },
            {
                "start_time": 91.9886364,
                "end_time": 92.8431818,
                "pitch": 49,
                "velocity": 51,
                "duration": 0.8545455,
                "tempo": 120.0
            },
            {
                "start_time": 92.8772727,
                "end_time": 93.1272727,
                "pitch": 49,
                "velocity": 51,
                "duration": 0.25,
                "tempo": 120.0
            },
            {
                "start_time": 93.175,
                "end_time": 93.4431818,
                "pitch": 49,
                "velocity": 51,
                "duration": 0.2681818,
                "tempo": 120.0
            },
            {
                "start_time": 93.4772727,
                "end_time": 93.7272727,
                "pitch": 49,
                "velocity": 51,
                "duration": 0.25,
                "tempo": 120.0
            },
            {
                "start_time": 93.775,
                "end_time": 94.325,
                "pitch": 50,
                "velocity": 51,
                "duration": 0.55,
                "tempo": 120.0
            },
            {
                "start_time": 94.3727273,
                "end_time": 94.9159091,
                "pitch": 50,
                "velocity": 51,
                "duration": 0.5431818,
                "tempo": 120.0
            },
            {
                "start_time": 94.9477273,
                "end_time": 95.2227273,
                "pitch": 50,
                "velocity": 51,
                "duration": 0.275,
                "tempo": 120.0
            },
            {
                "start_time": 95.2568182,
                "end_time": 95.5136364,
                "pitch": 47,
                "velocity": 51,
                "duration": 0.2568182,
                "tempo": 120.0
            },
            {
                "start_time": 95.5477273,
                "end_time": 96.1113636,
                "pitch": 47,
                "velocity": 51,
                "duration": 0.5636364,
                "tempo": 120.0
            },
            {
                "start_time": 96.1454545,
                "end_time": 96.7090909,
                "pitch": 47,
                "velocity": 51,
                "duration": 0.5636364,
                "tempo": 120.0
            },
            {
                "start_time": 96.7431818,
                "end_time": 96.9931818,
                "pitch": 50,
                "velocity": 51,
                "duration": 0.25,
                "tempo": 120.0
            },
            {
                "start_time": 97.0409091,
                "end_time": 97.3090909,
                "pitch": 47,
                "velocity": 51,
                "duration": 0.2681818,
                "tempo": 120.0
            },
            {
                "start_time": 97.3431818,
                "end_time": 97.8909091,
                "pitch": 48,
                "velocity": 51,
                "duration": 0.5477273,
                "tempo": 120.0
            },
            {
                "start_time": 97.9227273,
                "end_time": 98.4818182,
                "pitch": 48,
                "velocity": 51,
                "duration": 0.5590909,
                "tempo": 120.0
            },
            {
                "start_time": 98.5136364,
                "end_time": 98.7818182,
                "pitch": 48,
                "velocity": 51,
                "duration": 0.2681818,
                "tempo": 120.0
            },
            {
                "start_time": 98.8159091,
                "end_time": 99.0659091,
                "pitch": 48,
                "velocity": 51,
                "duration": 0.25,
                "tempo": 120.0
            },
            {
                "start_time": 99.1136364,
                "end_time": 100.8522727,
                "pitch": 49,
                "velocity": 51,
                "duration": 1.7386364,
                "tempo": 120.0
            },
            {
                "start_time": 100.8863636,
                "end_time": 101.45,
                "pitch": 50,
                "velocity": 51,
                "duration": 0.5636364,
                "tempo": 120.0
            },
            {
                "start_time": 101.4840909,
                "end_time": 102.0431818,
                "pitch": 50,
                "velocity": 51,
                "duration": 0.5590909,
                "tempo": 120.0
            },
            {
                "start_time": 102.075,
                "end_time": 102.3340909,
                "pitch": 41,
                "velocity": 51,
                "duration": 0.2590909,
                "tempo": 120.0
            },
            {
                "start_time": 102.3840909,
                "end_time": 102.65,
                "pitch": 48,
                "velocity": 51,
                "duration": 0.2659091,
                "tempo": 120.0
            },
            {
                "start_time": 102.6840909,
                "end_time": 103.5318182,
                "pitch": 47,
                "velocity": 51,
                "duration": 0.8477273,
                "tempo": 120.0
            },
            {
                "start_time": 103.5818182,
                "end_time": 103.8409091,
                "pitch": 41,
                "velocity": 51,
                "duration": 0.2590909,
                "tempo": 120.0
            },
            {
                "start_time": 103.875,
                "end_time": 104.1318182,
                "pitch": 41,
                "velocity": 51,
                "duration": 0.2568182,
                "tempo": 120.0
            },
            {
                "start_time": 104.1659091,
                "end_time": 105.0068182,
                "pitch": 41,
                "velocity": 51,
                "duration": 0.8409091,
                "tempo": 120.0
            },
            {
                "start_time": 105.0545455,
                "end_time": 105.6068182,
                "pitch": 35,
                "velocity": 51,
                "duration": 0.5522727,
                "tempo": 120.0
            },
            {
                "start_time": 105.6545455,
                "end_time": 105.9204545,
                "pitch": 40,
                "velocity": 51,
                "duration": 0.2659091,
                "tempo": 120.0
            },
            {
                "start_time": 105.9545455,
                "end_time": 106.2045455,
                "pitch": 47,
                "velocity": 51,
                "duration": 0.25,
                "tempo": 120.0
            },
            {
                "start_time": 106.2545455,
                "end_time": 107.0909091,
                "pitch": 40,
                "velocity": 51,
                "duration": 0.8363636,
                "tempo": 120.0
            },
            {
                "start_time": 107.1227273,
                "end_time": 107.3909091,
                "pitch": 40,
                "velocity": 51,
                "duration": 0.2681818,
                "tempo": 120.0
            },
            {
                "start_time": 107.425,
                "end_time": 107.6909091,
                "pitch": 40,
                "velocity": 51,
                "duration": 0.2659091,
                "tempo": 120.0
            },
            {
                "start_time": 107.7227273,
                "end_time": 107.9886364,
                "pitch": 40,
                "velocity": 51,
                "duration": 0.2659091,
                "tempo": 120.0
            },
            {
                "start_time": 108.0227273,
                "end_time": 108.2727273,
                "pitch": 41,
                "velocity": 51,
                "duration": 0.25,
                "tempo": 120.0
            },
            {
                "start_time": 108.3227273,
                "end_time": 108.5795455,
                "pitch": 41,
                "velocity": 51,
                "duration": 0.2568182,
                "tempo": 120.0
            },
            {
                "start_time": 108.6136364,
                "end_time": 108.8727273,
                "pitch": 41,
                "velocity": 51,
                "duration": 0.2590909,
                "tempo": 120.0
            },
            {
                "start_time": 108.9204545,
                "end_time": 109.1795455,
                "pitch": 41,
                "velocity": 51,
                "duration": 0.2590909,
                "tempo": 120.0
            },
            {
                "start_time": 109.2136364,
                "end_time": 109.4727273,
                "pitch": 41,
                "velocity": 51,
                "duration": 0.2590909,
                "tempo": 120.0
            },
            {
                "start_time": 109.5227273,
                "end_time": 109.7818182,
                "pitch": 41,
                "velocity": 51,
                "duration": 0.2590909,
                "tempo": 120.0
            },
            {
                "start_time": 109.8159091,
                "end_time": 110.0636364,
                "pitch": 41,
                "velocity": 51,
                "duration": 0.2477273,
                "tempo": 120.0
            },
            {
                "start_time": 110.0954545,
                "end_time": 110.3613636,
                "pitch": 41,
                "velocity": 51,
                "duration": 0.2659091,
                "tempo": 120.0
            },
            {
                "start_time": 110.3931818,
                "end_time": 110.6522727,
                "pitch": 41,
                "velocity": 51,
                "duration": 0.2590909,
                "tempo": 120.0
            },
            {
                "start_time": 110.6840909,
                "end_time": 110.9431818,
                "pitch": 41,
                "velocity": 51,
                "duration": 0.2590909,
                "tempo": 120.0
            },
            {
                "start_time": 110.9931818,
                "end_time": 111.2522727,
                "pitch": 41,
                "velocity": 51,
                "duration": 0.2590909,
                "tempo": 120.0
            },
            {
                "start_time": 111.2840909,
                "end_time": 111.5431818,
                "pitch": 45,
                "velocity": 51,
                "duration": 0.2590909,
                "tempo": 120.0
            },
            {
                "start_time": 111.5931818,
                "end_time": 112.7340909,
                "pitch": 45,
                "velocity": 51,
                "duration": 1.1409091,
                "tempo": 120.0
            },
            {
                "start_time": 112.7659091,
                "end_time": 113.0318182,
                "pitch": 45,
                "velocity": 51,
                "duration": 0.2659091,
                "tempo": 120.0
            },
            {
                "start_time": 113.0636364,
                "end_time": 113.3227273,
                "pitch": 45,
                "velocity": 51,
                "duration": 0.2590909,
                "tempo": 120.0
            },
            {
                "start_time": 113.3568182,
                "end_time": 115.1204545,
                "pitch": 44,
                "velocity": 51,
                "duration": 1.7636364,
                "tempo": 120.0
            },
            {
                "start_time": 115.1545455,
                "end_time": 115.4045455,
                "pitch": 48,
                "velocity": 51,
                "duration": 0.25,
                "tempo": 120.0
            },
            {
                "start_time": 115.4522727,
                "end_time": 115.7113636,
                "pitch": 48,
                "velocity": 51,
                "duration": 0.2590909,
                "tempo": 120.0
            },
            {
                "start_time": 115.7454545,
                "end_time": 116.3022727,
                "pitch": 45,
                "velocity": 51,
                "duration": 0.5568182,
                "tempo": 120.0
            },
            {
                "start_time": 116.3340909,
                "end_time": 116.5931818,
                "pitch": 41,
                "velocity": 51,
                "duration": 0.2590909,
                "tempo": 120.0
            },
            {
                "start_time": 116.6272727,
                "end_time": 116.8840909,
                "pitch": 45,
                "velocity": 51,
                "duration": 0.2568182,
                "tempo": 120.0
            },
            {
                "start_time": 116.9340909,
                "end_time": 117.475,
                "pitch": 43,
                "velocity": 51,
                "duration": 0.5409091,
                "tempo": 120.0
            },
            {
                "start_time": 117.5227273,
                "end_time": 118.075,
                "pitch": 47,
                "velocity": 51,
                "duration": 0.5522727,
                "tempo": 120.0
            },
            {
                "start_time": 118.1227273,
                "end_time": 118.6727273,
                "pitch": 47,
                "velocity": 51,
                "duration": 0.55,
                "tempo": 120.0
            },
            {
                "start_time": 118.7045455,
                "end_time": 119.2613636,
                "pitch": 47,
                "velocity": 51,
                "duration": 0.5568182,
                "tempo": 120.0
            },
            {
                "start_time": 119.2954545,
                "end_time": 119.8613636,
                "pitch": 47,
                "velocity": 51,
                "duration": 0.5659091,
                "tempo": 120.0
            },
            {
                "start_time": 119.8954545,
                "end_time": 120.1545455,
                "pitch": 40,
                "velocity": 51,
                "duration": 0.2590909,
                "tempo": 120.0
            },
            {
                "start_time": 120.2045455,
                "end_time": 120.4613636,
                "pitch": 40,
                "velocity": 51,
                "duration": 0.2568182,
                "tempo": 120.0
            },
            {
                "start_time": 120.4954545,
                "end_time": 121.6522727,
                "pitch": 45,
                "velocity": 51,
                "duration": 1.1568182,
                "tempo": 120.0
            },
            {
                "start_time": 121.6840909,
                "end_time": 121.9431818,
                "pitch": 43,
                "velocity": 51,
                "duration": 0.2590909,
                "tempo": 120.0
            },
            {
                "start_time": 121.9772727,
                "end_time": 122.2431818,
                "pitch": 45,
                "velocity": 51,
                "duration": 0.2659091,
                "tempo": 120.0
            },
            {
                "start_time": 122.2772727,
                "end_time": 122.8181818,
                "pitch": 45,
                "velocity": 51,
                "duration": 0.5409091,
                "tempo": 120.0
            },
            {
                "start_time": 122.8659091,
                "end_time": 123.4181818,
                "pitch": 41,
                "velocity": 51,
                "duration": 0.5522727,
                "tempo": 120.0
            },
            {
                "start_time": 123.4659091,
                "end_time": 124.0159091,
                "pitch": 45,
                "velocity": 51,
                "duration": 0.55,
                "tempo": 120.0
            },
            {
                "start_time": 124.0636364,
                "end_time": 124.6045455,
                "pitch": 43,
                "velocity": 51,
                "duration": 0.5409091,
                "tempo": 120.0
            },
            {
                "start_time": 124.6363636,
                "end_time": 125.2045455,
                "pitch": 47,
                "velocity": 51,
                "duration": 0.5681818,
                "tempo": 120.0
            },
            {
                "start_time": 125.2363636,
                "end_time": 125.5113636,
                "pitch": 47,
                "velocity": 51,
                "duration": 0.275,
                "tempo": 120.0
            },
            {
                "start_time": 125.5454545,
                "end_time": 125.8045455,
                "pitch": 47,
                "velocity": 51,
                "duration": 0.2590909,
                "tempo": 120.0
            },
            {
                "start_time": 125.8363636,
                "end_time": 126.9931818,
                "pitch": 48,
                "velocity": 51,
                "duration": 1.1568182,
                "tempo": 120.0
            },
            {
                "start_time": 127.0272727,
                "end_time": 127.2863636,
                "pitch": 48,
                "velocity": 51,
                "duration": 0.2590909,
                "tempo": 120.0
            },
            {
                "start_time": 127.3363636,
                "end_time": 127.5931818,
                "pitch": 40,
                "velocity": 51,
                "duration": 0.2568182,
                "tempo": 120.0
            },
            {
                "start_time": 127.6272727,
                "end_time": 129.3568182,
                "pitch": 40,
                "velocity": 51,
                "duration": 1.7295455,
                "tempo": 120.0
            },
            {
                "start_time": 129.4068182,
                "end_time": 129.6636364,
                "pitch": 48,
                "velocity": 51,
                "duration": 0.2568182,
                "tempo": 120.0
            },
            {
                "start_time": 129.6954545,
                "end_time": 129.9545455,
                "pitch": 48,
                "velocity": 51,
                "duration": 0.2590909,
                "tempo": 120.0
            },
            {
                "start_time": 130.0045455,
                "end_time": 130.5454545,
                "pitch": 45,
                "velocity": 51,
                "duration": 0.5409091,
                "tempo": 120.0
            },
            {
                "start_time": 130.5772727,
                "end_time": 130.8522727,
                "pitch": 41,
                "velocity": 51,
                "duration": 0.275,
                "tempo": 120.0
            },
            {
                "start_time": 130.8863636,
                "end_time": 131.1454545,
                "pitch": 45,
                "velocity": 51,
                "duration": 0.2590909,
                "tempo": 120.0
            },
            {
                "start_time": 131.1795455,
                "end_time": 131.7409091,
                "pitch": 43,
                "velocity": 51,
                "duration": 0.5613636,
                "tempo": 120.0
            },
            {
                "start_time": 131.775,
                "end_time": 132.3318182,
                "pitch": 47,
                "velocity": 51,
                "duration": 0.5568182,
                "tempo": 120.0
            },
            {
                "start_time": 132.3659091,
                "end_time": 132.9318182,
                "pitch": 47,
                "velocity": 51,
                "duration": 0.5659091,
                "tempo": 120.0
            },
            {
                "start_time": 132.9659091,
                "end_time": 133.5318182,
                "pitch": 47,
                "velocity": 51,
                "duration": 0.5659091,
                "tempo": 120.0
            },
            {
                "start_time": 133.5659091,
                "end_time": 134.1136364,
                "pitch": 47,
                "velocity": 51,
                "duration": 0.5477273,
                "tempo": 120.0
            },
            {
                "start_time": 134.1454545,
                "end_time": 134.4022727,
                "pitch": 40,
                "velocity": 51,
                "duration": 0.2568182,
                "tempo": 120.0
            },
            {
                "start_time": 134.4363636,
                "end_time": 134.6954545,
                "pitch": 40,
                "velocity": 51,
                "duration": 0.2590909,
                "tempo": 120.0
            },
            {
                "start_time": 134.7454545,
                "end_time": 135.8863636,
                "pitch": 45,
                "velocity": 51,
                "duration": 1.1409091,
                "tempo": 120.0
            },
            {
                "start_time": 135.9340909,
                "end_time": 136.2,
                "pitch": 43,
                "velocity": 51,
                "duration": 0.2659091,
                "tempo": 120.0
            },
            {
                "start_time": 136.2340909,
                "end_time": 136.4863636,
                "pitch": 45,
                "velocity": 51,
                "duration": 0.2522727,
                "tempo": 120.0
            },
            {
                "start_time": 136.5340909,
                "end_time": 137.0840909,
                "pitch": 45,
                "velocity": 51,
                "duration": 0.55,
                "tempo": 120.0
            },
            {
                "start_time": 137.1159091,
                "end_time": 137.6727273,
                "pitch": 41,
                "velocity": 51,
                "duration": 0.5568182,
                "tempo": 120.0
            },
            {
                "start_time": 137.7068182,
                "end_time": 138.2727273,
                "pitch": 41,
                "velocity": 51,
                "duration": 0.5659091,
                "tempo": 120.0
            },
            {
                "start_time": 138.3068182,
                "end_time": 138.8704545,
                "pitch": 44,
                "velocity": 51,
                "duration": 0.5636364,
                "tempo": 120.0
            },
            {
                "start_time": 138.9045455,
                "end_time": 139.4681818,
                "pitch": 44,
                "velocity": 51,
                "duration": 0.5636364,
                "tempo": 120.0
            },
            {
                "start_time": 139.5022727,
                "end_time": 139.7545455,
                "pitch": 44,
                "velocity": 51,
                "duration": 0.2522727,
                "tempo": 120.0
            },
            {
                "start_time": 139.7863636,
                "end_time": 140.0522727,
                "pitch": 40,
                "velocity": 51,
                "duration": 0.2659091,
                "tempo": 120.0
            },
            {
                "start_time": 140.0840909,
                "end_time": 142.7272727,
                "pitch": 40,
                "velocity": 51,
                "duration": 2.6431818,
                "tempo": 120.0
            },
            {
                "start_time": 142.7613636,
                "end_time": 143.0113636,
                "pitch": 40,
                "velocity": 51,
                "duration": 0.25,
                "tempo": 120.0
            },
            {
                "start_time": 143.0431818,
                "end_time": 143.3181818,
                "pitch": 37,
                "velocity": 51,
                "duration": 0.275,
                "tempo": 120.0
            },
            {
                "start_time": 143.35,
                "end_time": 143.6090909,
                "pitch": 33,
                "velocity": 51,
                "duration": 0.2590909,
                "tempo": 120.0
            },
            {
                "start_time": 143.6431818,
                "end_time": 143.9,
                "pitch": 36,
                "velocity": 51,
                "duration": 0.2568182,
                "tempo": 120.0
            },
            {
                "start_time": 143.95,
                "end_time": 144.2090909,
                "pitch": 36,
                "velocity": 51,
                "duration": 0.2590909,
                "tempo": 120.0
            },
            {
                "start_time": 144.2431818,
                "end_time": 144.8068182,
                "pitch": 33,
                "velocity": 51,
                "duration": 0.5636364,
                "tempo": 120.0
            },
            {
                "start_time": 144.8409091,
                "end_time": 145.0909091,
                "pitch": 29,
                "velocity": 51,
                "duration": 0.25,
                "tempo": 120.0
            },
            {
                "start_time": 145.1386364,
                "end_time": 145.4045455,
                "pitch": 33,
                "velocity": 51,
                "duration": 0.2659091,
                "tempo": 120.0
            },
            {
                "start_time": 145.4409091,
                "end_time": 145.9863636,
                "pitch": 31,
                "velocity": 51,
                "duration": 0.5454545,
                "tempo": 120.0
            },
            {
                "start_time": 146.0181818,
                "end_time": 146.575,
                "pitch": 35,
                "velocity": 51,
                "duration": 0.5568182,
                "tempo": 120.0
            },
            {
                "start_time": 146.6068182,
                "end_time": 147.1613636,
                "pitch": 35,
                "velocity": 51,
                "duration": 0.5545455,
                "tempo": 120.0
            },
            {
                "start_time": 147.2090909,
                "end_time": 147.7590909,
                "pitch": 35,
                "velocity": 51,
                "duration": 0.55,
                "tempo": 120.0
            },
            {
                "start_time": 147.8068182,
                "end_time": 148.3568182,
                "pitch": 35,
                "velocity": 51,
                "duration": 0.55,
                "tempo": 120.0
            },
            {
                "start_time": 148.4045455,
                "end_time": 148.6704545,
                "pitch": 28,
                "velocity": 51,
                "duration": 0.2659091,
                "tempo": 120.0
            },
            {
                "start_time": 148.7045455,
                "end_time": 148.9568182,
                "pitch": 28,
                "velocity": 51,
                "duration": 0.2522727,
                "tempo": 120.0
            },
            {
                "start_time": 148.9886364,
                "end_time": 150.1340909,
                "pitch": 33,
                "velocity": 51,
                "duration": 1.1454545,
                "tempo": 120.0
            },
            {
                "start_time": 150.1659091,
                "end_time": 150.425,
                "pitch": 31,
                "velocity": 51,
                "duration": 0.2590909,
                "tempo": 120.0
            },
            {
                "start_time": 150.475,
                "end_time": 150.7409091,
                "pitch": 33,
                "velocity": 51,
                "duration": 0.2659091,
                "tempo": 120.0
            },
            {
                "start_time": 150.775,
                "end_time": 153.6954545,
                "pitch": 33,
                "velocity": 51,
                "duration": 2.9204545,
                "tempo": 120.0
            },
            {
                "start_time": 153.7454545,
                "end_time": 154.0022727,
                "pitch": 33,
                "velocity": 51,
                "duration": 0.2568182,
                "tempo": 120.0
            },
            {
                "start_time": 154.0363636,
                "end_time": 154.2954545,
                "pitch": 33,
                "velocity": 51,
                "duration": 0.2590909,
                "tempo": 120.0
            },
            {
                "start_time": 154.3454545,
                "end_time": 157.275,
                "pitch": 35,
                "velocity": 51,
                "duration": 2.9295455,
                "tempo": 120.0
            },
            {
                "start_time": 157.3090909,
                "end_time": 157.5590909,
                "pitch": 31,
                "velocity": 51,
                "duration": 0.25,
                "tempo": 120.0
            },
            {
                "start_time": 157.5909091,
                "end_time": 157.8659091,
                "pitch": 33,
                "velocity": 51,
                "duration": 0.275,
                "tempo": 120.0
            },
            {
                "start_time": 157.9,
                "end_time": 160.8295455,
                "pitch": 33,
                "velocity": 51,
                "duration": 2.9295455,
                "tempo": 120.0
            },
            {
                "start_time": 160.8613636,
                "end_time": 161.1272727,
                "pitch": 31,
                "velocity": 51,
                "duration": 0.2659091,
                "tempo": 120.0
            },
            {
                "start_time": 161.1590909,
                "end_time": 161.425,
                "pitch": 33,
                "velocity": 51,
                "duration": 0.2659091,
                "tempo": 120.0
            },
            {
                "start_time": 161.4613636,
                "end_time": 164.4,
                "pitch": 35,
                "velocity": 51,
                "duration": 2.9386364,
                "tempo": 120.0
            },
            {
                "start_time": 164.4340909,
                "end_time": 164.6909091,
                "pitch": 28,
                "velocity": 51,
                "duration": 0.2568182,
                "tempo": 120.0
            },
            {
                "start_time": 164.725,
                "end_time": 164.9840909,
                "pitch": 28,
                "velocity": 51,
                "duration": 0.2590909,
                "tempo": 120.0
            },
            {
                "start_time": 165.0340909,
                "end_time": 166.175,
                "pitch": 28,
                "velocity": 51,
                "duration": 1.1409091,
                "tempo": 120.0
            },
            {
                "start_time": 166.2227273,
                "end_time": 166.4909091,
                "pitch": 28,
                "velocity": 51,
                "duration": 0.2681818,
                "tempo": 120.0
            },
            {
                "start_time": 166.525,
                "end_time": 166.775,
                "pitch": 28,
                "velocity": 51,
                "duration": 0.25,
                "tempo": 120.0
            },
            {
                "start_time": 166.8068182,
                "end_time": 167.9977273,
                "pitch": 28,
                "velocity": 51,
                "duration": 1.1909091,
                "tempo": 120.0
            },
            {
                "start_time": 168.0477273,
                "end_time": 168.3068182,
                "pitch": 28,
                "velocity": 51,
                "duration": 0.2590909,
                "tempo": 120.0
            },
            {
                "start_time": 168.3409091,
                "end_time": 168.6159091,
                "pitch": 28,
                "velocity": 51,
                "duration": 0.275,
                "tempo": 120.0
            },
            {
                "start_time": 168.6477273,
                "end_time": 169.9386364,
                "pitch": 28,
                "velocity": 51,
                "duration": 1.2909091,
                "tempo": 120.0
            },
            {
                "start_time": 169.975,
                "end_time": 170.2568182,
                "pitch": 28,
                "velocity": 51,
                "duration": 0.2818182,
                "tempo": 120.0
            },
            {
                "start_time": 170.3090909,
                "end_time": 170.6022727,
                "pitch": 28,
                "velocity": 51,
                "duration": 0.2931818,
                "tempo": 120.0
            },
            {
                "start_time": 170.6386364,
                "end_time": 172.0204545,
                "pitch": 28,
                "velocity": 51,
                "duration": 1.3818182,
                "tempo": 120.0
            },
            {
                "start_time": 172.0568182,
                "end_time": 172.3681818,
                "pitch": 28,
                "velocity": 51,
                "duration": 0.3113636,
                "tempo": 120.0
            },
            {
                "start_time": 172.4204545,
                "end_time": 172.7295455,
                "pitch": 28,
                "velocity": 51,
                "duration": 0.3090909,
                "tempo": 120.0
            },
            {
                "start_time": 172.7863636,
                "end_time": 175.8,
                "pitch": 28,
                "velocity": 51,
                "duration": 3.0136364,
                "tempo": 120.0
            }
        ],
        "Acoustic Grand Piano": [
            {
                "start_time": 0.0136364,
                "end_time": 0.2590909,
                "pitch": 52,
                "velocity": 64,
                "duration": 0.2454545,
                "tempo": 120.0
            },
            {
                "start_time": 0.3068182,
                "end_time": 0.5659091,
                "pitch": 57,
                "velocity": 64,
                "duration": 0.2590909,
                "tempo": 120.0
            },
            {
                "start_time": 0.6,
                "end_time": 1.0909091,
                "pitch": 60,
                "velocity": 64,
                "duration": 0.4909091,
                "tempo": 120.0
            },
            {
                "start_time": 1.1840909,
                "end_time": 1.6840909,
                "pitch": 52,
                "velocity": 64,
                "duration": 0.5,
                "tempo": 120.0
            },
            {
                "start_time": 1.7477273,
                "end_time": 2.2681818,
                "pitch": 57,
                "velocity": 64,
                "duration": 0.5204545,
                "tempo": 120.0
            },
            {
                "start_time": 2.3659091,
                "end_time": 2.8886364,
                "pitch": 60,
                "velocity": 64,
                "duration": 0.5227273,
                "tempo": 120.0
            },
            {
                "start_time": 2.9545455,
                "end_time": 3.4636364,
                "pitch": 52,
                "velocity": 64,
                "duration": 0.5090909,
                "tempo": 120.0
            },
            {
                "start_time": 3.5272727,
                "end_time": 4.0704545,
                "pitch": 57,
                "velocity": 64,
                "duration": 0.5431818,
                "tempo": 120.0
            },
            {
                "start_time": 4.1340909,
                "end_time": 4.6568182,
                "pitch": 60,
                "velocity": 64,
                "duration": 0.5227273,
                "tempo": 120.0
            },
            {
                "start_time": 4.7227273,
                "end_time": 5.275,
                "pitch": 52,
                "velocity": 64,
                "duration": 0.5522727,
                "tempo": 120.0
            },
            {
                "start_time": 5.3409091,
                "end_time": 5.8522727,
                "pitch": 57,
                "velocity": 64,
                "duration": 0.5113636,
                "tempo": 120.0
            },
            {
                "start_time": 5.9159091,
                "end_time": 6.4272727,
                "pitch": 60,
                "velocity": 64,
                "duration": 0.5113636,
                "tempo": 120.0
            },
            {
                "start_time": 6.5227273,
                "end_time": 7.0477273,
                "pitch": 52,
                "velocity": 64,
                "duration": 0.525,
                "tempo": 120.0
            },
            {
                "start_time": 7.1136364,
                "end_time": 7.6409091,
                "pitch": 57,
                "velocity": 64,
                "duration": 0.5272727,
                "tempo": 120.0
            },
            {
                "start_time": 7.7409091,
                "end_time": 8.2522727,
                "pitch": 60,
                "velocity": 64,
                "duration": 0.5113636,
                "tempo": 120.0
            },
            {
                "start_time": 8.3159091,
                "end_time": 8.8272727,
                "pitch": 52,
                "velocity": 64,
                "duration": 0.5113636,
                "tempo": 120.0
            },
            {
                "start_time": 8.9227273,
                "end_time": 9.4431818,
                "pitch": 57,
                "velocity": 64,
                "duration": 0.5204545,
                "tempo": 120.0
            },
            {
                "start_time": 9.5090909,
                "end_time": 10.0295455,
                "pitch": 60,
                "velocity": 64,
                "duration": 0.5204545,
                "tempo": 120.0
            },
            {
                "start_time": 10.0954545,
                "end_time": 10.6272727,
                "pitch": 52,
                "velocity": 64,
                "duration": 0.5318182,
                "tempo": 120.0
            },
            {
                "start_time": 10.6909091,
                "end_time": 11.1909091,
                "pitch": 57,
                "velocity": 64,
                "duration": 0.5,
                "tempo": 120.0
            },
            {
                "start_time": 11.2545455,
                "end_time": 11.775,
                "pitch": 60,
                "velocity": 64,
                "duration": 0.5204545,
                "tempo": 120.0
            },
            {
                "start_time": 11.8727273,
                "end_time": 12.3931818,
                "pitch": 52,
                "velocity": 64,
                "duration": 0.5204545,
                "tempo": 120.0
            },
            {
                "start_time": 12.4590909,
                "end_time": 12.9795455,
                "pitch": 57,
                "velocity": 64,
                "duration": 0.5204545,
                "tempo": 120.0
            },
            {
                "start_time": 13.0795455,
                "end_time": 13.6,
                "pitch": 60,
                "velocity": 64,
                "duration": 0.5204545,
                "tempo": 120.0
            },
            {
                "start_time": 13.6659091,
                "end_time": 14.1863636,
                "pitch": 53,
                "velocity": 64,
                "duration": 0.5204545,
                "tempo": 120.0
            },
            {
                "start_time": 14.2840909,
                "end_time": 14.8068182,
                "pitch": 57,
                "velocity": 64,
                "duration": 0.5227273,
                "tempo": 120.0
            },
            {
                "start_time": 14.8727273,
                "end_time": 15.3818182,
                "pitch": 60,
                "velocity": 64,
                "duration": 0.5090909,
                "tempo": 120.0
            },
            {
                "start_time": 15.4795455,
                "end_time": 15.9886364,
                "pitch": 53,
                "velocity": 64,
                "duration": 0.5090909,
                "tempo": 120.0
            },
            {
                "start_time": 16.0545455,
                "end_time": 16.575,
                "pitch": 57,
                "velocity": 64,
                "duration": 0.5204545,
                "tempo": 120.0
            },
            {
                "start_time": 16.6409091,
                "end_time": 17.1931818,
                "pitch": 60,
                "velocity": 64,
                "duration": 0.5522727,
                "tempo": 120.0
            },
            {
                "start_time": 17.2590909,
                "end_time": 17.7795455,
                "pitch": 53,
                "velocity": 64,
                "duration": 0.5204545,
                "tempo": 120.0
            },
            {
                "start_time": 17.8454545,
                "end_time": 18.3681818,
                "pitch": 58,
                "velocity": 64,
                "duration": 0.5227273,
                "tempo": 120.0
            },
            {
                "start_time": 18.4659091,
                "end_time": 18.9772727,
                "pitch": 62,
                "velocity": 64,
                "duration": 0.5113636,
                "tempo": 120.0
            },
            {
                "start_time": 19.0409091,
                "end_time": 19.55,
                "pitch": 53,
                "velocity": 64,
                "duration": 0.5090909,
                "tempo": 120.0
            },
            {
                "start_time": 19.6477273,
                "end_time": 20.1681818,
                "pitch": 58,
                "velocity": 64,
                "duration": 0.5204545,
                "tempo": 120.0
            },
            {
                "start_time": 20.2340909,
                "end_time": 20.7545455,
                "pitch": 62,
                "velocity": 64,
                "duration": 0.5204545,
                "tempo": 120.0
            },
            {
                "start_time": 20.8522727,
                "end_time": 21.375,
                "pitch": 52,
                "velocity": 64,
                "duration": 0.5227273,
                "tempo": 120.0
            },
            {
                "start_time": 21.4409091,
                "end_time": 21.9613636,
                "pitch": 56,
                "velocity": 64,
                "duration": 0.5204545,
                "tempo": 120.0
            },
            {
                "start_time": 22.0272727,
                "end_time": 22.5590909,
                "pitch": 62,
                "velocity": 64,
                "duration": 0.5318182,
                "tempo": 120.0
            },
            {
                "start_time": 22.6227273,
                "end_time": 23.1227273,
                "pitch": 52,
                "velocity": 64,
                "duration": 0.5,
                "tempo": 120.0
            },
            {
                "start_time": 23.1863636,
                "end_time": 23.7386364,
                "pitch": 56,
                "velocity": 64,
                "duration": 0.5522727,
                "tempo": 120.0
            },
            {
                "start_time": 23.8045455,
                "end_time": 24.325,
                "pitch": 60,
                "velocity": 64,
                "duration": 0.5204545,
                "tempo": 120.0
            },
            {
                "start_time": 24.3909091,
                "end_time": 24.9113636,
                "pitch": 52,
                "velocity": 64,
                "duration": 0.5204545,
                "tempo": 120.0
            },
            {
                "start_time": 25.0090909,
                "end_time": 25.5318182,
                "pitch": 56,
                "velocity": 64,
                "duration": 0.5227273,
                "tempo": 120.0
            },
            {
                "start_time": 25.5977273,
                "end_time": 26.1068182,
                "pitch": 59,
                "velocity": 64,
                "duration": 0.5090909,
                "tempo": 120.0
            },
            {
                "start_time": 26.2045455,
                "end_time": 26.7136364,
                "pitch": 50,
                "velocity": 64,
                "duration": 0.5090909,
                "tempo": 120.0
            },
            {
                "start_time": 26.7795455,
                "end_time": 27.3,
                "pitch": 56,
                "velocity": 64,
                "duration": 0.5204545,
                "tempo": 120.0
            },
            {
                "start_time": 27.3977273,
                "end_time": 27.9181818,
                "pitch": 59,
                "velocity": 64,
                "duration": 0.5204545,
                "tempo": 120.0
            },
            {
                "start_time": 27.9863636,
                "end_time": 28.5045455,
                "pitch": 48,
                "velocity": 64,
                "duration": 0.5181818,
                "tempo": 120.0
            },
            {
                "start_time": 28.5704545,
                "end_time": 29.125,
                "pitch": 52,
                "velocity": 64,
                "duration": 0.5545455,
                "tempo": 120.0
            },
            {
                "start_time": 29.1909091,
                "end_time": 29.7022727,
                "pitch": 57,
                "velocity": 64,
                "duration": 0.5113636,
                "tempo": 120.0
            },
            {
                "start_time": 29.7659091,
                "end_time": 30.275,
                "pitch": 52,
                "velocity": 64,
                "duration": 0.5090909,
                "tempo": 120.0
            },
            {
                "start_time": 30.3727273,
                "end_time": 30.8931818,
                "pitch": 57,
                "velocity": 64,
                "duration": 0.5204545,
                "tempo": 120.0
            },
            {
                "start_time": 30.9590909,
                "end_time": 31.4795455,
                "pitch": 60,
                "velocity": 64,
                "duration": 0.5204545,
                "tempo": 120.0
            },
            {
                "start_time": 31.5795455,
                "end_time": 32.1,
                "pitch": 52,
                "velocity": 64,
                "duration": 0.5204545,
                "tempo": 120.0
            },
            {
                "start_time": 32.1659091,
                "end_time": 32.6863636,
                "pitch": 57,
                "velocity": 64,
                "duration": 0.5204545,
                "tempo": 120.0
            },
            {
                "start_time": 32.7840909,
                "end_time": 33.2954545,
                "pitch": 60,
                "velocity": 64,
                "duration": 0.5113636,
                "tempo": 120.0
            },
            {
                "start_time": 33.3590909,
                "end_time": 33.8704545,
                "pitch": 52,
                "velocity": 64,
                "duration": 0.5113636,
                "tempo": 120.0
            },
            {
                "start_time": 33.9340909,
                "end_time": 34.4772727,
                "pitch": 57,
                "velocity": 64,
                "duration": 0.5431818,
                "tempo": 120.0
            },
            {
                "start_time": 34.5409091,
                "end_time": 35.0522727,
                "pitch": 60,
                "velocity": 64,
                "duration": 0.5113636,
                "tempo": 120.0
            },
            {
                "start_time": 35.1159091,
                "end_time": 35.6568182,
                "pitch": 52,
                "velocity": 64,
                "duration": 0.5409091,
                "tempo": 120.0
            },
            {
                "start_time": 35.7227273,
                "end_time": 36.2340909,
                "pitch": 59,
                "velocity": 64,
                "duration": 0.5113636,
                "tempo": 120.0
            },
            {
                "start_time": 36.2977273,
                "end_time": 36.8181818,
                "pitch": 62,
                "velocity": 64,
                "duration": 0.5204545,
                "tempo": 120.0
            },
            {
                "start_time": 36.9159091,
                "end_time": 37.4386364,
                "pitch": 52,
                "velocity": 64,
                "duration": 0.5227273,
                "tempo": 120.0
            },
            {
                "start_time": 37.5022727,
                "end_time": 38.025,
                "pitch": 59,
                "velocity": 64,
                "duration": 0.5227273,
                "tempo": 120.0
            },
            {
                "start_time": 38.1227273,
                "end_time": 38.6431818,
                "pitch": 62,
                "velocity": 64,
                "duration": 0.5204545,
                "tempo": 120.0
            },
            {
                "start_time": 38.7090909,
                "end_time": 39.2295455,
                "pitch": 52,
                "velocity": 64,
                "duration": 0.5204545,
                "tempo": 120.0
            },
            {
                "start_time": 39.3295455,
                "end_time": 39.85,
                "pitch": 59,
                "velocity": 64,
                "duration": 0.5204545,
                "tempo": 120.0
            },
            {
                "start_time": 39.9159091,
                "end_time": 40.4272727,
                "pitch": 62,
                "velocity": 64,
                "duration": 0.5113636,
                "tempo": 120.0
            },
            {
                "start_time": 40.4909091,
                "end_time": 41.0318182,
                "pitch": 52,
                "velocity": 64,
                "duration": 0.5409091,
                "tempo": 120.0
            },
            {
                "start_time": 41.0977273,
                "end_time": 41.6181818,
                "pitch": 59,
                "velocity": 64,
                "duration": 0.5204545,
                "tempo": 120.0
            },
            {
                "start_time": 41.6840909,
                "end_time": 42.2045455,
                "pitch": 62,
                "velocity": 64,
                "duration": 0.5204545,
                "tempo": 120.0
            },
            {
                "start_time": 42.3045455,
                "end_time": 42.825,
                "pitch": 52,
                "velocity": 64,
                "duration": 0.5204545,
                "tempo": 120.0
            },
            {
                "start_time": 42.8886364,
                "end_time": 43.4113636,
                "pitch": 57,
                "velocity": 64,
                "duration": 0.5227273,
                "tempo": 120.0
            },
            {
                "start_time": 43.5090909,
                "end_time": 44.0204545,
                "pitch": 60,
                "velocity": 64,
                "duration": 0.5113636,
                "tempo": 120.0
            },
            {
                "start_time": 44.0840909,
                "end_time": 44.5954545,
                "pitch": 52,
                "velocity": 64,
                "duration": 0.5113636,
                "tempo": 120.0
            },
            {
                "start_time": 44.6909091,
                "end_time": 45.2113636,
                "pitch": 57,
                "velocity": 64,
                "duration": 0.5204545,
                "tempo": 120.0
            },
            {
                "start_time": 45.2772727,
                "end_time": 45.8,
                "pitch": 60,
                "velocity": 64,
                "duration": 0.5227273,
                "tempo": 120.0
            },
            {
                "start_time": 45.8659091,
                "end_time": 46.4,
                "pitch": 53,
                "velocity": 64,
                "duration": 0.5340909,
                "tempo": 120.0
            },
            {
                "start_time": 46.4636364,
                "end_time": 46.9704545,
                "pitch": 57,
                "velocity": 64,
                "duration": 0.5068182,
                "tempo": 120.0
            },
            {
                "start_time": 47.0340909,
                "end_time": 47.5863636,
                "pitch": 62,
                "velocity": 64,
                "duration": 0.5522727,
                "tempo": 120.0
            },
            {
                "start_time": 47.6545455,
                "end_time": 48.175,
                "pitch": 53,
                "velocity": 64,
                "duration": 0.5204545,
                "tempo": 120.0
            },
            {
                "start_time": 48.2386364,
                "end_time": 48.7613636,
                "pitch": 57,
                "velocity": 64,
                "duration": 0.5227273,
                "tempo": 120.0
            },
            {
                "start_time": 48.8590909,
                "end_time": 49.3795455,
                "pitch": 62,
                "velocity": 64,
                "duration": 0.5204545,
                "tempo": 120.0
            },
            {
                "start_time": 49.4477273,
                "end_time": 49.9659091,
                "pitch": 57,
                "velocity": 64,
                "duration": 0.5181818,
                "tempo": 120.0
            },
            {
                "start_time": 50.0659091,
                "end_time": 50.5863636,
                "pitch": 59,
                "velocity": 64,
                "duration": 0.5204545,
                "tempo": 120.0
            },
            {
                "start_time": 50.6522727,
                "end_time": 51.1636364,
                "pitch": 62,
                "velocity": 64,
                "duration": 0.5113636,
                "tempo": 120.0
            },
            {
                "start_time": 51.2590909,
                "end_time": 51.7704545,
                "pitch": 57,
                "velocity": 64,
                "duration": 0.5113636,
                "tempo": 120.0
            },
            {
                "start_time": 51.8340909,
                "end_time": 52.3545455,
                "pitch": 59,
                "velocity": 64,
                "duration": 0.5204545,
                "tempo": 120.0
            },
            {
                "start_time": 52.4204545,
                "end_time": 52.975,
                "pitch": 62,
                "velocity": 64,
                "duration": 0.5545455,
                "tempo": 120.0
            },
            {
                "start_time": 53.0409091,
                "end_time": 54.7568182,
                "pitch": 64,
                "velocity": 64,
                "duration": 1.7159091,
                "tempo": 120.0
            },
            {
                "start_time": 54.8204545,
                "end_time": 55.3318182,
                "pitch": 52,
                "velocity": 64,
                "duration": 0.5113636,
                "tempo": 120.0
            },
            {
                "start_time": 55.4272727,
                "end_time": 55.9477273,
                "pitch": 59,
                "velocity": 64,
                "duration": 0.5204545,
                "tempo": 120.0
            },
            {
                "start_time": 56.0159091,
                "end_time": 56.5363636,
                "pitch": 62,
                "velocity": 64,
                "duration": 0.5204545,
                "tempo": 120.0
            },
            {
                "start_time": 56.6340909,
                "end_time": 57.1545455,
                "pitch": 52,
                "velocity": 64,
                "duration": 0.5204545,
                "tempo": 120.0
            },
            {
                "start_time": 57.2204545,
                "end_time": 57.7409091,
                "pitch": 57,
                "velocity": 64,
                "duration": 0.5204545,
                "tempo": 120.0
            },
            {
                "start_time": 57.8068182,
                "end_time": 58.3454545,
                "pitch": 60,
                "velocity": 64,
                "duration": 0.5386364,
                "tempo": 120.0
            },
            {
                "start_time": 58.4068182,
                "end_time": 58.9136364,
                "pitch": 52,
                "velocity": 64,
                "duration": 0.5068182,
                "tempo": 120.0
            },
            {
                "start_time": 58.9772727,
                "end_time": 59.5090909,
                "pitch": 57,
                "velocity": 64,
                "duration": 0.5318182,
                "tempo": 120.0
            },
            {
                "start_time": 59.5704545,
                "end_time": 59.8954545,
                "pitch": 60,
                "velocity": 64,
                "duration": 0.325,
                "tempo": 120.0
            },
            {
                "start_time": 59.9340909,
                "end_time": 60.1909091,
                "pitch": 52,
                "velocity": 64,
                "duration": 0.2568182,
                "tempo": 120.0
            },
            {
                "start_time": 60.2363636,
                "end_time": 60.4886364,
                "pitch": 57,
                "velocity": 64,
                "duration": 0.2522727,
                "tempo": 120.0
            },
            {
                "start_time": 60.5204545,
                "end_time": 60.7727273,
                "pitch": 60,
                "velocity": 64,
                "duration": 0.2522727,
                "tempo": 120.0
            },
            {
                "start_time": 60.8204545,
                "end_time": 61.0772727,
                "pitch": 57,
                "velocity": 64,
                "duration": 0.2568182,
                "tempo": 120.0
            },
            {
                "start_time": 61.1113636,
                "end_time": 61.3613636,
                "pitch": 59,
                "velocity": 64,
                "duration": 0.25,
                "tempo": 120.0
            },
            {
                "start_time": 61.4090909,
                "end_time": 61.6681818,
                "pitch": 62,
                "velocity": 64,
                "duration": 0.2590909,
                "tempo": 120.0
            },
            {
                "start_time": 61.7,
                "end_time": 61.95,
                "pitch": 52,
                "velocity": 64,
                "duration": 0.25,
                "tempo": 120.0
            },
            {
                "start_time": 61.9818182,
                "end_time": 62.2568182,
                "pitch": 59,
                "velocity": 64,
                "duration": 0.275,
                "tempo": 120.0
            },
            {
                "start_time": 62.2909091,
                "end_time": 62.5477273,
                "pitch": 62,
                "velocity": 64,
                "duration": 0.2568182,
                "tempo": 120.0
            },
            {
                "start_time": 62.5818182,
                "end_time": 62.8409091,
                "pitch": 52,
                "velocity": 64,
                "duration": 0.2590909,
                "tempo": 120.0
            },
            {
                "start_time": 62.8886364,
                "end_time": 63.15,
                "pitch": 59,
                "velocity": 64,
                "duration": 0.2613636,
                "tempo": 120.0
            },
            {
                "start_time": 63.1818182,
                "end_time": 63.4409091,
                "pitch": 62,
                "velocity": 64,
                "duration": 0.2590909,
                "tempo": 120.0
            },
            {
                "start_time": 63.4886364,
                "end_time": 63.7477273,
                "pitch": 52,
                "velocity": 64,
                "duration": 0.2590909,
                "tempo": 120.0
            },
            {
                "start_time": 63.7818182,
                "end_time": 64.0409091,
                "pitch": 59,
                "velocity": 64,
                "duration": 0.2590909,
                "tempo": 120.0
            },
            {
                "start_time": 64.0886364,
                "end_time": 64.3409091,
                "pitch": 62,
                "velocity": 64,
                "duration": 0.2522727,
                "tempo": 120.0
            },
            {
                "start_time": 64.3704545,
                "end_time": 64.6295455,
                "pitch": 52,
                "velocity": 64,
                "duration": 0.2590909,
                "tempo": 120.0
            },
            {
                "start_time": 64.6636364,
                "end_time": 64.9295455,
                "pitch": 59,
                "velocity": 64,
                "duration": 0.2659091,
                "tempo": 120.0
            },
            {
                "start_time": 64.9613636,
                "end_time": 65.2204545,
                "pitch": 62,
                "velocity": 64,
                "duration": 0.2590909,
                "tempo": 120.0
            },
            {
                "start_time": 65.2522727,
                "end_time": 65.5181818,
                "pitch": 53,
                "velocity": 64,
                "duration": 0.2659091,
                "tempo": 120.0
            },
            {
                "start_time": 65.55,
                "end_time": 65.8159091,
                "pitch": 57,
                "velocity": 64,
                "duration": 0.2659091,
                "tempo": 120.0
            },
            {
                "start_time": 65.85,
                "end_time": 66.1090909,
                "pitch": 60,
                "velocity": 64,
                "duration": 0.2590909,
                "tempo": 120.0
            },
            {
                "start_time": 66.1590909,
                "end_time": 66.4181818,
                "pitch": 53,
                "velocity": 64,
                "duration": 0.2590909,
                "tempo": 120.0
            },
            {
                "start_time": 66.45,
                "end_time": 66.7022727,
                "pitch": 57,
                "velocity": 64,
                "duration": 0.2522727,
                "tempo": 120.0
            },
            {
                "start_time": 66.7477273,
                "end_time": 67.0159091,
                "pitch": 60,
                "velocity": 64,
                "duration": 0.2681818,
                "tempo": 120.0
            },
            {
                "start_time": 67.05,
                "end_time": 67.3,
                "pitch": 53,
                "velocity": 64,
                "duration": 0.25,
                "tempo": 120.0
            },
            {
                "start_time": 67.3477273,
                "end_time": 67.6068182,
                "pitch": 57,
                "velocity": 64,
                "duration": 0.2590909,
                "tempo": 120.0
            },
            {
                "start_time": 67.6386364,
                "end_time": 67.8886364,
                "pitch": 60,
                "velocity": 64,
                "duration": 0.25,
                "tempo": 120.0
            },
            {
                "start_time": 67.9204545,
                "end_time": 68.1863636,
                "pitch": 53,
                "velocity": 64,
                "duration": 0.2659091,
                "tempo": 120.0
            },
            {
                "start_time": 68.2204545,
                "end_time": 68.4863636,
                "pitch": 57,
                "velocity": 64,
                "duration": 0.2659091,
                "tempo": 120.0
            },
            {
                "start_time": 68.5204545,
                "end_time": 68.7704545,
                "pitch": 60,
                "velocity": 64,
                "duration": 0.25,
                "tempo": 120.0
            },
            {
                "start_time": 68.8181818,
                "end_time": 69.0840909,
                "pitch": 52,
                "velocity": 64,
                "duration": 0.2659091,
                "tempo": 120.0
            },
            {
                "start_time": 69.1181818,
                "end_time": 69.3704545,
                "pitch": 55,
                "velocity": 64,
                "duration": 0.2522727,
                "tempo": 120.0
            },
            {
                "start_time": 69.4181818,
                "end_time": 69.6772727,
                "pitch": 60,
                "velocity": 64,
                "duration": 0.2590909,
                "tempo": 120.0
            },
            {
                "start_time": 69.7090909,
                "end_time": 69.9681818,
                "pitch": 52,
                "velocity": 64,
                "duration": 0.2590909,
                "tempo": 120.0
            },
            {
                "start_time": 70.0181818,
                "end_time": 70.2772727,
                "pitch": 55,
                "velocity": 64,
                "duration": 0.2590909,
                "tempo": 120.0
            },
            {
                "start_time": 70.3090909,
                "end_time": 70.5681818,
                "pitch": 60,
                "velocity": 64,
                "duration": 0.2590909,
                "tempo": 120.0
            },
            {
                "start_time": 70.6181818,
                "end_time": 70.8772727,
                "pitch": 61,
                "velocity": 64,
                "duration": 0.2590909,
                "tempo": 120.0
            },
            {
                "start_time": 70.9090909,
                "end_time": 71.1590909,
                "pitch": 52,
                "velocity": 64,
                "duration": 0.25,
                "tempo": 120.0
            },
            {
                "start_time": 71.1909091,
                "end_time": 71.4659091,
                "pitch": 58,
                "velocity": 64,
                "duration": 0.275,
                "tempo": 120.0
            },
            {
                "start_time": 71.5,
                "end_time": 71.7590909,
                "pitch": 57,
                "velocity": 64,
                "duration": 0.2590909,
                "tempo": 120.0
            },
            {
                "start_time": 71.7909091,
                "end_time": 72.05,
                "pitch": 52,
                "velocity": 64,
                "duration": 0.2590909,
                "tempo": 120.0
            },
            {
                "start_time": 72.1,
                "end_time": 72.3590909,
                "pitch": 55,
                "velocity": 64,
                "duration": 0.2590909,
                "tempo": 120.0
            },
            {
                "start_time": 72.3909091,
                "end_time": 72.6431818,
                "pitch": 53,
                "velocity": 64,
                "duration": 0.2522727,
                "tempo": 120.0
            },
            {
                "start_time": 72.6886364,
                "end_time": 72.95,
                "pitch": 57,
                "velocity": 64,
                "duration": 0.2613636,
                "tempo": 120.0
            },
            {
                "start_time": 72.9818182,
                "end_time": 73.2409091,
                "pitch": 62,
                "velocity": 64,
                "duration": 0.2590909,
                "tempo": 120.0
            },
            {
                "start_time": 73.2909091,
                "end_time": 73.55,
                "pitch": 53,
                "velocity": 64,
                "duration": 0.2590909,
                "tempo": 120.0
            },
            {
                "start_time": 73.5818182,
                "end_time": 73.8409091,
                "pitch": 57,
                "velocity": 64,
                "duration": 0.2590909,
                "tempo": 120.0
            },
            {
                "start_time": 73.8727273,
                "end_time": 74.1477273,
                "pitch": 62,
                "velocity": 64,
                "duration": 0.275,
                "tempo": 120.0
            },
            {
                "start_time": 74.1818182,
                "end_time": 74.4318182,
                "pitch": 53,
                "velocity": 64,
                "duration": 0.25,
                "tempo": 120.0
            },
            {
                "start_time": 74.4636364,
                "end_time": 74.7386364,
                "pitch": 57,
                "velocity": 64,
                "duration": 0.275,
                "tempo": 120.0
            },
            {
                "start_time": 74.7704545,
                "end_time": 75.0204545,
                "pitch": 62,
                "velocity": 64,
                "duration": 0.25,
                "tempo": 120.0
            },
            {
                "start_time": 75.0522727,
                "end_time": 75.3113636,
                "pitch": 53,
                "velocity": 64,
                "duration": 0.2590909,
                "tempo": 120.0
            },
            {
                "start_time": 75.3613636,
                "end_time": 75.6204545,
                "pitch": 57,
                "velocity": 64,
                "duration": 0.2590909,
                "tempo": 120.0
            },
            {
                "start_time": 75.6522727,
                "end_time": 75.9113636,
                "pitch": 62,
                "velocity": 64,
                "duration": 0.2590909,
                "tempo": 120.0
            },
            {
                "start_time": 75.9613636,
                "end_time": 76.2181818,
                "pitch": 52,
                "velocity": 64,
                "duration": 0.2568182,
                "tempo": 120.0
            },
            {
                "start_time": 76.2522727,
                "end_time": 76.5045455,
                "pitch": 57,
                "velocity": 64,
                "duration": 0.2522727,
                "tempo": 120.0
            },
            {
                "start_time": 76.55,
                "end_time": 76.8181818,
                "pitch": 60,
                "velocity": 64,
                "duration": 0.2681818,
                "tempo": 120.0
            },
            {
                "start_time": 76.8522727,
                "end_time": 77.1045455,
                "pitch": 52,
                "velocity": 64,
                "duration": 0.2522727,
                "tempo": 120.0
            },
            {
                "start_time": 77.1363636,
                "end_time": 77.4113636,
                "pitch": 57,
                "velocity": 64,
                "duration": 0.275,
                "tempo": 120.0
            },
            {
                "start_time": 77.4431818,
                "end_time": 77.7022727,
                "pitch": 60,
                "velocity": 64,
                "duration": 0.2590909,
                "tempo": 120.0
            },
            {
                "start_time": 77.7340909,
                "end_time": 77.9931818,
                "pitch": 52,
                "velocity": 64,
                "duration": 0.2590909,
                "tempo": 120.0
            },
            {
                "start_time": 78.0431818,
                "end_time": 78.3022727,
                "pitch": 57,
                "velocity": 64,
                "duration": 0.2590909,
                "tempo": 120.0
            },
            {
                "start_time": 78.3340909,
                "end_time": 78.5931818,
                "pitch": 60,
                "velocity": 64,
                "duration": 0.2590909,
                "tempo": 120.0
            },
            {
                "start_time": 78.6431818,
                "end_time": 78.8931818,
                "pitch": 52,
                "velocity": 64,
                "duration": 0.25,
                "tempo": 120.0
            },
            {
                "start_time": 78.925,
                "end_time": 79.1840909,
                "pitch": 57,
                "velocity": 64,
                "duration": 0.2590909,
                "tempo": 120.0
            },
            {
                "start_time": 79.2340909,
                "end_time": 79.4840909,
                "pitch": 60,
                "velocity": 64,
                "duration": 0.25,
                "tempo": 120.0
            },
            {
                "start_time": 79.5159091,
                "end_time": 79.775,
                "pitch": 57,
                "velocity": 64,
                "duration": 0.2590909,
                "tempo": 120.0
            },
            {
                "start_time": 79.8090909,
                "end_time": 80.075,
                "pitch": 59,
                "velocity": 64,
                "duration": 0.2659091,
                "tempo": 120.0
            },
            {
                "start_time": 80.1068182,
                "end_time": 80.375,
                "pitch": 62,
                "velocity": 64,
                "duration": 0.2681818,
                "tempo": 120.0
            },
            {
                "start_time": 80.4090909,
                "end_time": 80.675,
                "pitch": 57,
                "velocity": 64,
                "duration": 0.2659091,
                "tempo": 120.0
            },
            {
                "start_time": 80.7045455,
                "end_time": 80.9727273,
                "pitch": 59,
                "velocity": 64,
                "duration": 0.2681818,
                "tempo": 120.0
            },
            {
                "start_time": 81.0068182,
                "end_time": 81.2590909,
                "pitch": 62,
                "velocity": 64,
                "duration": 0.2522727,
                "tempo": 120.0
            },
            {
                "start_time": 81.3068182,
                "end_time": 81.5727273,
                "pitch": 64,
                "velocity": 64,
                "duration": 0.2659091,
                "tempo": 120.0
            },
            {
                "start_time": 81.6068182,
                "end_time": 81.8568182,
                "pitch": 62,
                "velocity": 64,
                "duration": 0.25,
                "tempo": 120.0
            },
            {
                "start_time": 81.9045455,
                "end_time": 82.1636364,
                "pitch": 56,
                "velocity": 64,
                "duration": 0.2590909,
                "tempo": 120.0
            },
            {
                "start_time": 82.1954545,
                "end_time": 82.4454545,
                "pitch": 52,
                "velocity": 64,
                "duration": 0.25,
                "tempo": 120.0
            },
            {
                "start_time": 82.4931818,
                "end_time": 82.7522727,
                "pitch": 60,
                "velocity": 64,
                "duration": 0.2590909,
                "tempo": 120.0
            },
            {
                "start_time": 82.7863636,
                "end_time": 83.0454545,
                "pitch": 56,
                "velocity": 64,
                "duration": 0.2590909,
                "tempo": 120.0
            },
            {
                "start_time": 83.0772727,
                "end_time": 83.3454545,
                "pitch": 57,
                "velocity": 64,
                "duration": 0.2681818,
                "tempo": 120.0
            },
            {
                "start_time": 83.3772727,
                "end_time": 83.6363636,
                "pitch": 52,
                "velocity": 64,
                "duration": 0.2590909,
                "tempo": 120.0
            },
            {
                "start_time": 83.6681818,
                "end_time": 83.9363636,
                "pitch": 60,
                "velocity": 64,
                "duration": 0.2681818,
                "tempo": 120.0
            },
            {
                "start_time": 83.9863636,
                "end_time": 84.2363636,
                "pitch": 52,
                "velocity": 64,
                "duration": 0.25,
                "tempo": 120.0
            },
            {
                "start_time": 84.2681818,
                "end_time": 84.5272727,
                "pitch": 57,
                "velocity": 64,
                "duration": 0.2590909,
                "tempo": 120.0
            },
            {
                "start_time": 84.5772727,
                "end_time": 84.8363636,
                "pitch": 60,
                "velocity": 64,
                "duration": 0.2590909,
                "tempo": 120.0
            },
            {
                "start_time": 84.8681818,
                "end_time": 86.6136364,
                "pitch": 57,
                "velocity": 64,
                "duration": 1.7454545,
                "tempo": 120.0
            }
        ],
        "Vibraphone": [
            {
                "start_time": 86.9386364,
                "end_time": 87.1909091,
                "pitch": 74,
                "velocity": 101,
                "duration": 0.2522727,
                "tempo": 120.0
            },
            {
                "start_time": 87.2386364,
                "end_time": 87.5045455,
                "pitch": 77,
                "velocity": 101,
                "duration": 0.2659091,
                "tempo": 120.0
            },
            {
                "start_time": 87.5386364,
                "end_time": 87.7886364,
                "pitch": 81,
                "velocity": 101,
                "duration": 0.25,
                "tempo": 120.0
            },
            {
                "start_time": 87.8363636,
                "end_time": 88.1045455,
                "pitch": 84,
                "velocity": 101,
                "duration": 0.2681818,
                "tempo": 120.0
            },
            {
                "start_time": 88.1363636,
                "end_time": 88.3886364,
                "pitch": 81,
                "velocity": 101,
                "duration": 0.2522727,
                "tempo": 120.0
            },
            {
                "start_time": 88.4340909,
                "end_time": 88.7022727,
                "pitch": 79,
                "velocity": 101,
                "duration": 0.2681818,
                "tempo": 120.0
            },
            {
                "start_time": 88.7363636,
                "end_time": 88.9886364,
                "pitch": 74,
                "velocity": 101,
                "duration": 0.2522727,
                "tempo": 120.0
            },
            {
                "start_time": 89.0181818,
                "end_time": 89.2840909,
                "pitch": 77,
                "velocity": 101,
                "duration": 0.2659091,
                "tempo": 120.0
            },
            {
                "start_time": 89.3159091,
                "end_time": 89.575,
                "pitch": 79,
                "velocity": 101,
                "duration": 0.2590909,
                "tempo": 120.0
            },
            {
                "start_time": 89.6090909,
                "end_time": 89.8681818,
                "pitch": 83,
                "velocity": 101,
                "duration": 0.2590909,
                "tempo": 120.0
            },
            {
                "start_time": 89.9159091,
                "end_time": 90.175,
                "pitch": 79,
                "velocity": 101,
                "duration": 0.2590909,
                "tempo": 120.0
            },
            {
                "start_time": 90.2090909,
                "end_time": 90.4590909,
                "pitch": 76,
                "velocity": 101,
                "duration": 0.25,
                "tempo": 120.0
            },
            {
                "start_time": 90.5068182,
                "end_time": 90.775,
                "pitch": 72,
                "velocity": 101,
                "duration": 0.2681818,
                "tempo": 120.0
            },
            {
                "start_time": 90.8090909,
                "end_time": 91.0590909,
                "pitch": 79,
                "velocity": 101,
                "duration": 0.25,
                "tempo": 120.0
            },
            {
                "start_time": 91.1045455,
                "end_time": 91.3659091,
                "pitch": 83,
                "velocity": 101,
                "duration": 0.2613636,
                "tempo": 120.0
            },
            {
                "start_time": 91.3977273,
                "end_time": 91.6568182,
                "pitch": 79,
                "velocity": 101,
                "duration": 0.2590909,
                "tempo": 120.0
            },
            {
                "start_time": 91.6886364,
                "end_time": 91.9545455,
                "pitch": 76,
                "velocity": 101,
                "duration": 0.2659091,
                "tempo": 120.0
            },
            {
                "start_time": 91.9863636,
                "end_time": 92.2454545,
                "pitch": 81,
                "velocity": 101,
                "duration": 0.2590909,
                "tempo": 120.0
            },
            {
                "start_time": 92.2795455,
                "end_time": 92.5454545,
                "pitch": 76,
                "velocity": 101,
                "duration": 0.2659091,
                "tempo": 120.0
            },
            {
                "start_time": 92.5772727,
                "end_time": 92.8431818,
                "pitch": 73,
                "velocity": 101,
                "duration": 0.2659091,
                "tempo": 120.0
            },
            {
                "start_time": 92.8772727,
                "end_time": 93.1272727,
                "pitch": 81,
                "velocity": 101,
                "duration": 0.25,
                "tempo": 120.0
            },
            {
                "start_time": 93.175,
                "end_time": 93.4409091,
                "pitch": 76,
                "velocity": 101,
                "duration": 0.2659091,
                "tempo": 120.0
            },
            {
                "start_time": 93.475,
                "end_time": 93.725,
                "pitch": 73,
                "velocity": 101,
                "duration": 0.25,
                "tempo": 120.0
            },
            {
                "start_time": 93.7727273,
                "end_time": 94.0409091,
                "pitch": 77,
                "velocity": 101,
                "duration": 0.2681818,
                "tempo": 120.0
            },
            {
                "start_time": 94.0727273,
                "end_time": 94.325,
                "pitch": 74,
                "velocity": 101,
                "duration": 0.2522727,
                "tempo": 120.0
            },
            {
                "start_time": 94.3727273,
                "end_time": 94.6295455,
                "pitch": 77,
                "velocity": 101,
                "duration": 0.2568182,
                "tempo": 120.0
            },
            {
                "start_time": 94.6636364,
                "end_time": 94.9159091,
                "pitch": 81,
                "velocity": 101,
                "duration": 0.2522727,
                "tempo": 120.0
            },
            {
                "start_time": 94.9477273,
                "end_time": 95.2227273,
                "pitch": 84,
                "velocity": 101,
                "duration": 0.275,
                "tempo": 120.0
            },
            {
                "start_time": 95.2545455,
                "end_time": 95.5136364,
                "pitch": 81,
                "velocity": 101,
                "duration": 0.2590909,
                "tempo": 120.0
            },
            {
                "start_time": 95.5454545,
                "end_time": 95.7954545,
                "pitch": 83,
                "velocity": 101,
                "duration": 0.25,
                "tempo": 120.0
            },
            {
                "start_time": 95.8431818,
                "end_time": 96.1113636,
                "pitch": 79,
                "velocity": 101,
                "duration": 0.2681818,
                "tempo": 120.0
            },
            {
                "start_time": 96.1454545,
                "end_time": 96.7090909,
                "pitch": 74,
                "velocity": 101,
                "duration": 0.5636364,
                "tempo": 120.0
            },
            {
                "start_time": 96.7431818,
                "end_time": 96.9931818,
                "pitch": 79,
                "velocity": 101,
                "duration": 0.25,
                "tempo": 120.0
            },
            {
                "start_time": 97.0409091,
                "end_time": 97.3068182,
                "pitch": 83,
                "velocity": 101,
                "duration": 0.2659091,
                "tempo": 120.0
            },
            {
                "start_time": 97.3409091,
                "end_time": 97.8909091,
                "pitch": 83,
                "velocity": 101,
                "duration": 0.55,
                "tempo": 120.0
            },
            {
                "start_time": 97.9227273,
                "end_time": 98.1818182,
                "pitch": 79,
                "velocity": 101,
                "duration": 0.2590909,
                "tempo": 120.0
            },
            {
                "start_time": 98.2136364,
                "end_time": 98.4818182,
                "pitch": 76,
                "velocity": 101,
                "duration": 0.2681818,
                "tempo": 120.0
            },
            {
                "start_time": 98.5136364,
                "end_time": 98.7795455,
                "pitch": 72,
                "velocity": 101,
                "duration": 0.2659091,
                "tempo": 120.0
            },
            {
                "start_time": 98.8136364,
                "end_time": 99.0636364,
                "pitch": 76,
                "velocity": 101,
                "duration": 0.25,
                "tempo": 120.0
            },
            {
                "start_time": 99.1113636,
                "end_time": 99.3772727,
                "pitch": 73,
                "velocity": 101,
                "duration": 0.2659091,
                "tempo": 120.0
            },
            {
                "start_time": 99.4113636,
                "end_time": 99.6636364,
                "pitch": 76,
                "velocity": 101,
                "duration": 0.2522727,
                "tempo": 120.0
            },
            {
                "start_time": 99.7090909,
                "end_time": 99.9681818,
                "pitch": 81,
                "velocity": 101,
                "duration": 0.2590909,
                "tempo": 120.0
            },
            {
                "start_time": 100.0022727,
                "end_time": 100.2613636,
                "pitch": 79,
                "velocity": 101,
                "duration": 0.2590909,
                "tempo": 120.0
            },
            {
                "start_time": 100.3090909,
                "end_time": 100.5681818,
                "pitch": 76,
                "velocity": 101,
                "duration": 0.2590909,
                "tempo": 120.0
            },
            {
                "start_time": 100.6022727,
                "end_time": 100.8522727,
                "pitch": 73,
                "velocity": 101,
                "duration": 0.25,
                "tempo": 120.0
            },
            {
                "start_time": 101.1909091,
                "end_time": 101.45,
                "pitch": 74,
                "velocity": 101,
                "duration": 0.2590909,
                "tempo": 120.0
            },
            {
                "start_time": 101.4840909,
                "end_time": 101.7340909,
                "pitch": 77,
                "velocity": 101,
                "duration": 0.25,
                "tempo": 120.0
            },
            {
                "start_time": 101.7818182,
                "end_time": 102.0409091,
                "pitch": 81,
                "velocity": 101,
                "duration": 0.2590909,
                "tempo": 120.0
            },
            {
                "start_time": 102.075,
                "end_time": 102.3340909,
                "pitch": 84,
                "velocity": 101,
                "duration": 0.2590909,
                "tempo": 120.0
            },
            {
                "start_time": 102.3818182,
                "end_time": 102.65,
                "pitch": 81,
                "velocity": 101,
                "duration": 0.2681818,
                "tempo": 120.0
            },
            {
                "start_time": 102.6840909,
                "end_time": 102.9340909,
                "pitch": 79,
                "velocity": 101,
                "duration": 0.25,
                "tempo": 120.0
            },
            {
                "start_time": 102.9795455,
                "end_time": 103.2409091,
                "pitch": 74,
                "velocity": 101,
                "duration": 0.2613636,
                "tempo": 120.0
            },
            {
                "start_time": 103.2727273,
                "end_time": 103.5318182,
                "pitch": 77,
                "velocity": 101,
                "duration": 0.2590909,
                "tempo": 120.0
            },
            {
                "start_time": 103.5818182,
                "end_time": 103.8409091,
                "pitch": 79,
                "velocity": 101,
                "duration": 0.2590909,
                "tempo": 120.0
            },
            {
                "start_time": 103.8727273,
                "end_time": 104.1318182,
                "pitch": 83,
                "velocity": 101,
                "duration": 0.2590909,
                "tempo": 120.0
            },
            {
                "start_time": 104.1636364,
                "end_time": 104.4318182,
                "pitch": 79,
                "velocity": 101,
                "duration": 0.2681818,
                "tempo": 120.0
            },
            {
                "start_time": 104.4636364,
                "end_time": 104.7227273,
                "pitch": 76,
                "velocity": 101,
                "duration": 0.2590909,
                "tempo": 120.0
            },
            {
                "start_time": 104.7545455,
                "end_time": 105.0068182,
                "pitch": 72,
                "velocity": 101,
                "duration": 0.2522727,
                "tempo": 120.0
            },
            {
                "start_time": 105.0545455,
                "end_time": 105.3204545,
                "pitch": 79,
                "velocity": 101,
                "duration": 0.2659091,
                "tempo": 120.0
            },
            {
                "start_time": 105.3545455,
                "end_time": 105.6068182,
                "pitch": 83,
                "velocity": 101,
                "duration": 0.2522727,
                "tempo": 120.0
            },
            {
                "start_time": 105.6522727,
                "end_time": 105.9204545,
                "pitch": 79,
                "velocity": 101,
                "duration": 0.2681818,
                "tempo": 120.0
            },
            {
                "start_time": 105.9545455,
                "end_time": 106.2045455,
                "pitch": 76,
                "velocity": 101,
                "duration": 0.25,
                "tempo": 120.0
            },
            {
                "start_time": 106.2522727,
                "end_time": 106.5113636,
                "pitch": 81,
                "velocity": 101,
                "duration": 0.2590909,
                "tempo": 120.0
            },
            {
                "start_time": 106.5431818,
                "end_time": 106.7931818,
                "pitch": 76,
                "velocity": 101,
                "duration": 0.25,
                "tempo": 120.0
            },
            {
                "start_time": 106.825,
                "end_time": 107.0909091,
                "pitch": 72,
                "velocity": 101,
                "duration": 0.2659091,
                "tempo": 120.0
            },
            {
                "start_time": 107.1227273,
                "end_time": 107.3886364,
                "pitch": 81,
                "velocity": 101,
                "duration": 0.2659091,
                "tempo": 120.0
            },
            {
                "start_time": 107.4227273,
                "end_time": 107.6886364,
                "pitch": 76,
                "velocity": 101,
                "duration": 0.2659091,
                "tempo": 120.0
            },
            {
                "start_time": 107.7204545,
                "end_time": 107.9886364,
                "pitch": 72,
                "velocity": 101,
                "duration": 0.2681818,
                "tempo": 120.0
            },
            {
                "start_time": 108.0204545,
                "end_time": 108.2727273,
                "pitch": 77,
                "velocity": 101,
                "duration": 0.2522727,
                "tempo": 120.0
            },
            {
                "start_time": 108.3204545,
                "end_time": 108.5795455,
                "pitch": 74,
                "velocity": 101,
                "duration": 0.2590909,
                "tempo": 120.0
            },
            {
                "start_time": 108.6136364,
                "end_time": 108.8727273,
                "pitch": 77,
                "velocity": 101,
                "duration": 0.2590909,
                "tempo": 120.0
            },
            {
                "start_time": 108.9204545,
                "end_time": 109.1795455,
                "pitch": 81,
                "velocity": 101,
                "duration": 0.2590909,
                "tempo": 120.0
            },
            {
                "start_time": 109.2136364,
                "end_time": 109.4727273,
                "pitch": 84,
                "velocity": 101,
                "duration": 0.2590909,
                "tempo": 120.0
            },
            {
                "start_time": 109.5204545,
                "end_time": 109.7795455,
                "pitch": 81,
                "velocity": 101,
                "duration": 0.2590909,
                "tempo": 120.0
            },
            {
                "start_time": 109.8136364,
                "end_time": 110.0636364,
                "pitch": 71,
                "velocity": 101,
                "duration": 0.25,
                "tempo": 120.0
            },
            {
                "start_time": 110.0954545,
                "end_time": 110.3590909,
                "pitch": 74,
                "velocity": 101,
                "duration": 0.2636364,
                "tempo": 120.0
            },
            {
                "start_time": 110.3909091,
                "end_time": 110.65,
                "pitch": 77,
                "velocity": 101,
                "duration": 0.2590909,
                "tempo": 120.0
            },
            {
                "start_time": 110.6840909,
                "end_time": 110.9431818,
                "pitch": 81,
                "velocity": 101,
                "duration": 0.2590909,
                "tempo": 120.0
            },
            {
                "start_time": 110.9909091,
                "end_time": 111.25,
                "pitch": 77,
                "velocity": 101,
                "duration": 0.2590909,
                "tempo": 120.0
            },
            {
                "start_time": 111.2840909,
                "end_time": 111.5431818,
                "pitch": 74,
                "velocity": 101,
                "duration": 0.2590909,
                "tempo": 120.0
            },
            {
                "start_time": 111.5909091,
                "end_time": 111.85,
                "pitch": 76,
                "velocity": 101,
                "duration": 0.2590909,
                "tempo": 120.0
            },
            {
                "start_time": 111.8840909,
                "end_time": 112.1340909,
                "pitch": 81,
                "velocity": 101,
                "duration": 0.25,
                "tempo": 120.0
            },
            {
                "start_time": 112.1818182,
                "end_time": 112.45,
                "pitch": 83,
                "velocity": 101,
                "duration": 0.2681818,
                "tempo": 120.0
            },
            {
                "start_time": 112.4840909,
                "end_time": 112.7340909,
                "pitch": 81,
                "velocity": 101,
                "duration": 0.25,
                "tempo": 120.0
            },
            {
                "start_time": 112.7659091,
                "end_time": 113.0318182,
                "pitch": 83,
                "velocity": 101,
                "duration": 0.2659091,
                "tempo": 120.0
            },
            {
                "start_time": 113.0636364,
                "end_time": 113.3227273,
                "pitch": 81,
                "velocity": 101,
                "duration": 0.2590909,
                "tempo": 120.0
            },
            {
                "start_time": 113.3545455,
                "end_time": 113.6295455,
                "pitch": 80,
                "velocity": 101,
                "duration": 0.275,
                "tempo": 120.0
            },
            {
                "start_time": 113.6613636,
                "end_time": 113.9227273,
                "pitch": 76,
                "velocity": 101,
                "duration": 0.2613636,
                "tempo": 120.0
            },
            {
                "start_time": 113.9545455,
                "end_time": 114.2136364,
                "pitch": 74,
                "velocity": 101,
                "duration": 0.2590909,
                "tempo": 120.0
            },
            {
                "start_time": 114.2613636,
                "end_time": 114.5227273,
                "pitch": 76,
                "velocity": 101,
                "duration": 0.2613636,
                "tempo": 120.0
            },
            {
                "start_time": 114.5545455,
                "end_time": 114.8045455,
                "pitch": 80,
                "velocity": 101,
                "duration": 0.25,
                "tempo": 120.0
            },
            {
                "start_time": 114.8522727,
                "end_time": 115.1181818,
                "pitch": 83,
                "velocity": 101,
                "duration": 0.2659091,
                "tempo": 120.0
            },
            {
                "start_time": 115.4522727,
                "end_time": 115.7113636,
                "pitch": 74,
                "velocity": 101,
                "duration": 0.2590909,
                "tempo": 120.0
            },
            {
                "start_time": 115.7431818,
                "end_time": 116.0022727,
                "pitch": 77,
                "velocity": 101,
                "duration": 0.2590909,
                "tempo": 120.0
            },
            {
                "start_time": 116.0363636,
                "end_time": 116.3022727,
                "pitch": 81,
                "velocity": 101,
                "duration": 0.2659091,
                "tempo": 120.0
            },
            {
                "start_time": 116.3340909,
                "end_time": 116.5931818,
                "pitch": 84,
                "velocity": 101,
                "duration": 0.2590909,
                "tempo": 120.0
            },
            {
                "start_time": 116.625,
                "end_time": 116.8840909,
                "pitch": 81,
                "velocity": 101,
                "duration": 0.2590909,
                "tempo": 120.0
            },
            {
                "start_time": 116.9340909,
                "end_time": 117.1909091,
                "pitch": 79,
                "velocity": 101,
                "duration": 0.2568182,
                "tempo": 120.0
            },
            {
                "start_time": 117.225,
                "end_time": 117.475,
                "pitch": 74,
                "velocity": 101,
                "duration": 0.25,
                "tempo": 120.0
            },
            {
                "start_time": 117.5227273,
                "end_time": 117.7886364,
                "pitch": 77,
                "velocity": 101,
                "duration": 0.2659091,
                "tempo": 120.0
            },
            {
                "start_time": 117.8227273,
                "end_time": 118.0727273,
                "pitch": 79,
                "velocity": 101,
                "duration": 0.25,
                "tempo": 120.0
            },
            {
                "start_time": 118.1204545,
                "end_time": 118.3863636,
                "pitch": 83,
                "velocity": 101,
                "duration": 0.2659091,
                "tempo": 120.0
            },
            {
                "start_time": 118.4204545,
                "end_time": 118.6727273,
                "pitch": 79,
                "velocity": 101,
                "duration": 0.2522727,
                "tempo": 120.0
            },
            {
                "start_time": 118.7045455,
                "end_time": 118.9704545,
                "pitch": 76,
                "velocity": 101,
                "duration": 0.2659091,
                "tempo": 120.0
            },
            {
                "start_time": 119.0022727,
                "end_time": 119.2613636,
                "pitch": 72,
                "velocity": 101,
                "duration": 0.2590909,
                "tempo": 120.0
            },
            {
                "start_time": 119.2954545,
                "end_time": 119.5704545,
                "pitch": 79,
                "velocity": 101,
                "duration": 0.275,
                "tempo": 120.0
            },
            {
                "start_time": 119.6022727,
                "end_time": 119.8613636,
                "pitch": 83,
                "velocity": 101,
                "duration": 0.2590909,
                "tempo": 120.0
            },
            {
                "start_time": 119.8954545,
                "end_time": 120.1522727,
                "pitch": 79,
                "velocity": 101,
                "duration": 0.2568182,
                "tempo": 120.0
            },
            {
                "start_time": 120.2022727,
                "end_time": 120.4613636,
                "pitch": 76,
                "velocity": 101,
                "duration": 0.2590909,
                "tempo": 120.0
            },
            {
                "start_time": 120.4931818,
                "end_time": 120.7431818,
                "pitch": 81,
                "velocity": 101,
                "duration": 0.25,
                "tempo": 120.0
            },
            {
                "start_time": 120.7909091,
                "end_time": 121.05,
                "pitch": 76,
                "velocity": 101,
                "duration": 0.2590909,
                "tempo": 120.0
            },
            {
                "start_time": 121.0840909,
                "end_time": 121.3431818,
                "pitch": 72,
                "velocity": 101,
                "duration": 0.2590909,
                "tempo": 120.0
            },
            {
                "start_time": 121.3909091,
                "end_time": 121.65,
                "pitch": 81,
                "velocity": 101,
                "duration": 0.2590909,
                "tempo": 120.0
            },
            {
                "start_time": 121.6840909,
                "end_time": 121.9431818,
                "pitch": 76,
                "velocity": 101,
                "duration": 0.2590909,
                "tempo": 120.0
            },
            {
                "start_time": 121.975,
                "end_time": 122.2431818,
                "pitch": 72,
                "velocity": 101,
                "duration": 0.2681818,
                "tempo": 120.0
            },
            {
                "start_time": 122.275,
                "end_time": 122.5340909,
                "pitch": 77,
                "velocity": 101,
                "duration": 0.2590909,
                "tempo": 120.0
            },
            {
                "start_time": 122.5659091,
                "end_time": 122.8181818,
                "pitch": 74,
                "velocity": 101,
                "duration": 0.2522727,
                "tempo": 120.0
            },
            {
                "start_time": 122.8659091,
                "end_time": 123.1318182,
                "pitch": 77,
                "velocity": 101,
                "duration": 0.2659091,
                "tempo": 120.0
            },
            {
                "start_time": 123.1659091,
                "end_time": 123.4159091,
                "pitch": 81,
                "velocity": 101,
                "duration": 0.25,
                "tempo": 120.0
            },
            {
                "start_time": 123.4636364,
                "end_time": 123.7295455,
                "pitch": 84,
                "velocity": 101,
                "duration": 0.2659091,
                "tempo": 120.0
            },
            {
                "start_time": 123.7636364,
                "end_time": 124.0159091,
                "pitch": 81,
                "velocity": 101,
                "duration": 0.2522727,
                "tempo": 120.0
            },
            {
                "start_time": 124.0613636,
                "end_time": 124.3204545,
                "pitch": 79,
                "velocity": 101,
                "duration": 0.2590909,
                "tempo": 120.0
            },
            {
                "start_time": 124.3545455,
                "end_time": 124.6045455,
                "pitch": 74,
                "velocity": 101,
                "duration": 0.25,
                "tempo": 120.0
            },
            {
                "start_time": 124.6363636,
                "end_time": 124.9113636,
                "pitch": 71,
                "velocity": 101,
                "duration": 0.275,
                "tempo": 120.0
            },
            {
                "start_time": 124.9431818,
                "end_time": 125.2022727,
                "pitch": 74,
                "velocity": 101,
                "duration": 0.2590909,
                "tempo": 120.0
            },
            {
                "start_time": 125.2363636,
                "end_time": 125.5113636,
                "pitch": 79,
                "velocity": 101,
                "duration": 0.275,
                "tempo": 120.0
            },
            {
                "start_time": 125.5431818,
                "end_time": 125.8022727,
                "pitch": 74,
                "velocity": 101,
                "duration": 0.2590909,
                "tempo": 120.0
            },
            {
                "start_time": 125.8363636,
                "end_time": 126.3931818,
                "pitch": 83,
                "velocity": 101,
                "duration": 0.5568182,
                "tempo": 120.0
            },
            {
                "start_time": 126.425,
                "end_time": 126.6840909,
                "pitch": 79,
                "velocity": 101,
                "duration": 0.2590909,
                "tempo": 120.0
            },
            {
                "start_time": 126.7340909,
                "end_time": 126.9931818,
                "pitch": 76,
                "velocity": 101,
                "duration": 0.2590909,
                "tempo": 120.0
            },
            {
                "start_time": 127.0272727,
                "end_time": 127.2840909,
                "pitch": 72,
                "velocity": 101,
                "duration": 0.2568182,
                "tempo": 120.0
            },
            {
                "start_time": 127.3340909,
                "end_time": 127.5931818,
                "pitch": 76,
                "velocity": 101,
                "duration": 0.2590909,
                "tempo": 120.0
            },
            {
                "start_time": 127.625,
                "end_time": 127.875,
                "pitch": 73,
                "velocity": 101,
                "duration": 0.25,
                "tempo": 120.0
            },
            {
                "start_time": 127.9068182,
                "end_time": 128.1727273,
                "pitch": 76,
                "velocity": 101,
                "duration": 0.2659091,
                "tempo": 120.0
            },
            {
                "start_time": 128.2045455,
                "end_time": 128.4727273,
                "pitch": 81,
                "velocity": 101,
                "duration": 0.2681818,
                "tempo": 120.0
            },
            {
                "start_time": 128.5068182,
                "end_time": 128.7568182,
                "pitch": 79,
                "velocity": 101,
                "duration": 0.25,
                "tempo": 120.0
            },
            {
                "start_time": 128.8022727,
                "end_time": 129.0704545,
                "pitch": 76,
                "velocity": 101,
                "duration": 0.2681818,
                "tempo": 120.0
            },
            {
                "start_time": 129.1045455,
                "end_time": 129.3568182,
                "pitch": 73,
                "velocity": 101,
                "duration": 0.2522727,
                "tempo": 120.0
            },
            {
                "start_time": 129.6954545,
                "end_time": 129.9545455,
                "pitch": 74,
                "velocity": 101,
                "duration": 0.2590909,
                "tempo": 120.0
            },
            {
                "start_time": 130.0045455,
                "end_time": 130.2613636,
                "pitch": 77,
                "velocity": 101,
                "duration": 0.2568182,
                "tempo": 120.0
            },
            {
                "start_time": 130.2954545,
                "end_time": 130.5454545,
                "pitch": 81,
                "velocity": 101,
                "duration": 0.25,
                "tempo": 120.0
            },
            {
                "start_time": 130.5772727,
                "end_time": 130.8522727,
                "pitch": 84,
                "velocity": 101,
                "duration": 0.275,
                "tempo": 120.0
            },
            {
                "start_time": 130.8840909,
                "end_time": 131.1431818,
                "pitch": 81,
                "velocity": 101,
                "duration": 0.2590909,
                "tempo": 120.0
            },
            {
                "start_time": 131.1772727,
                "end_time": 131.4431818,
                "pitch": 79,
                "velocity": 101,
                "duration": 0.2659091,
                "tempo": 120.0
            },
            {
                "start_time": 131.4727273,
                "end_time": 131.7409091,
                "pitch": 74,
                "velocity": 101,
                "duration": 0.2681818,
                "tempo": 120.0
            },
            {
                "start_time": 131.775,
                "end_time": 132.025,
                "pitch": 77,
                "velocity": 101,
                "duration": 0.25,
                "tempo": 120.0
            },
            {
                "start_time": 132.0727273,
                "end_time": 132.3318182,
                "pitch": 79,
                "velocity": 101,
                "duration": 0.2590909,
                "tempo": 120.0
            },
            {
                "start_time": 132.3636364,
                "end_time": 132.6227273,
                "pitch": 83,
                "velocity": 101,
                "duration": 0.2590909,
                "tempo": 120.0
            },
            {
                "start_time": 132.6727273,
                "end_time": 132.9318182,
                "pitch": 79,
                "velocity": 101,
                "duration": 0.2590909,
                "tempo": 120.0
            },
            {
                "start_time": 132.9636364,
                "end_time": 133.2227273,
                "pitch": 76,
                "velocity": 101,
                "duration": 0.2590909,
                "tempo": 120.0
            },
            {
                "start_time": 133.2727273,
                "end_time": 133.5318182,
                "pitch": 72,
                "velocity": 101,
                "duration": 0.2590909,
                "tempo": 120.0
            },
            {
                "start_time": 133.5636364,
                "end_time": 133.8136364,
                "pitch": 79,
                "velocity": 101,
                "duration": 0.25,
                "tempo": 120.0
            },
            {
                "start_time": 133.8454545,
                "end_time": 134.1113636,
                "pitch": 83,
                "velocity": 101,
                "duration": 0.2659091,
                "tempo": 120.0
            },
            {
                "start_time": 134.1431818,
                "end_time": 134.4022727,
                "pitch": 79,
                "velocity": 101,
                "duration": 0.2590909,
                "tempo": 120.0
            },
            {
                "start_time": 134.4363636,
                "end_time": 134.6954545,
                "pitch": 76,
                "velocity": 101,
                "duration": 0.2590909,
                "tempo": 120.0
            },
            {
                "start_time": 134.7431818,
                "end_time": 135.0022727,
                "pitch": 81,
                "velocity": 101,
                "duration": 0.2590909,
                "tempo": 120.0
            },
            {
                "start_time": 135.0340909,
                "end_time": 135.2954545,
                "pitch": 76,
                "velocity": 101,
                "duration": 0.2613636,
                "tempo": 120.0
            },
            {
                "start_time": 135.3431818,
                "end_time": 135.6022727,
                "pitch": 72,
                "velocity": 101,
                "duration": 0.2590909,
                "tempo": 120.0
            },
            {
                "start_time": 135.6340909,
                "end_time": 135.8863636,
                "pitch": 81,
                "velocity": 101,
                "duration": 0.2522727,
                "tempo": 120.0
            },
            {
                "start_time": 135.9318182,
                "end_time": 136.2,
                "pitch": 76,
                "velocity": 101,
                "duration": 0.2681818,
                "tempo": 120.0
            },
            {
                "start_time": 136.2340909,
                "end_time": 136.4840909,
                "pitch": 72,
                "velocity": 101,
                "duration": 0.25,
                "tempo": 120.0
            },
            {
                "start_time": 136.5318182,
                "end_time": 136.8,
                "pitch": 77,
                "velocity": 101,
                "duration": 0.2681818,
                "tempo": 120.0
            },
            {
                "start_time": 136.8340909,
                "end_time": 137.0840909,
                "pitch": 74,
                "velocity": 101,
                "duration": 0.25,
                "tempo": 120.0
            },
            {
                "start_time": 137.1159091,
                "end_time": 137.3818182,
                "pitch": 77,
                "velocity": 101,
                "duration": 0.2659091,
                "tempo": 120.0
            },
            {
                "start_time": 137.4136364,
                "end_time": 137.6727273,
                "pitch": 81,
                "velocity": 101,
                "duration": 0.2590909,
                "tempo": 120.0
            },
            {
                "start_time": 137.7045455,
                "end_time": 137.9636364,
                "pitch": 84,
                "velocity": 101,
                "duration": 0.2590909,
                "tempo": 120.0
            },
            {
                "start_time": 138.0136364,
                "end_time": 138.2727273,
                "pitch": 81,
                "velocity": 101,
                "duration": 0.2590909,
                "tempo": 120.0
            },
            {
                "start_time": 138.3045455,
                "end_time": 138.5545455,
                "pitch": 76,
                "velocity": 101,
                "duration": 0.25,
                "tempo": 120.0
            },
            {
                "start_time": 138.6022727,
                "end_time": 138.8704545,
                "pitch": 80,
                "velocity": 101,
                "duration": 0.2681818,
                "tempo": 120.0
            },
            {
                "start_time": 138.9022727,
                "end_time": 139.1522727,
                "pitch": 83,
                "velocity": 101,
                "duration": 0.25,
                "tempo": 120.0
            },
            {
                "start_time": 139.2,
                "end_time": 139.4681818,
                "pitch": 86,
                "velocity": 101,
                "duration": 0.2681818,
                "tempo": 120.0
            },
            {
                "start_time": 139.5022727,
                "end_time": 139.7522727,
                "pitch": 83,
                "velocity": 101,
                "duration": 0.25,
                "tempo": 120.0
            },
            {
                "start_time": 139.7840909,
                "end_time": 140.05,
                "pitch": 80,
                "velocity": 101,
                "duration": 0.2659091,
                "tempo": 120.0
            },
            {
                "start_time": 140.0818182,
                "end_time": 140.3409091,
                "pitch": 81,
                "velocity": 101,
                "duration": 0.2590909,
                "tempo": 120.0
            },
            {
                "start_time": 140.3727273,
                "end_time": 140.65,
                "pitch": 76,
                "velocity": 101,
                "duration": 0.2772727,
                "tempo": 120.0
            },
            {
                "start_time": 140.6818182,
                "end_time": 140.9409091,
                "pitch": 72,
                "velocity": 101,
                "duration": 0.2590909,
                "tempo": 120.0
            },
            {
                "start_time": 140.975,
                "end_time": 141.225,
                "pitch": 81,
                "velocity": 101,
                "duration": 0.25,
                "tempo": 120.0
            },
            {
                "start_time": 141.2704545,
                "end_time": 141.5386364,
                "pitch": 76,
                "velocity": 101,
                "duration": 0.2681818,
                "tempo": 120.0
            },
            {
                "start_time": 141.5727273,
                "end_time": 141.8227273,
                "pitch": 72,
                "velocity": 101,
                "duration": 0.25,
                "tempo": 120.0
            },
            {
                "start_time": 141.8704545,
                "end_time": 142.1363636,
                "pitch": 81,
                "velocity": 101,
                "duration": 0.2659091,
                "tempo": 120.0
            },
            {
                "start_time": 142.1704545,
                "end_time": 142.4204545,
                "pitch": 76,
                "velocity": 101,
                "duration": 0.25,
                "tempo": 120.0
            },
            {
                "start_time": 142.4681818,
                "end_time": 142.7272727,
                "pitch": 72,
                "velocity": 101,
                "duration": 0.2590909,
                "tempo": 120.0
            },
            {
                "start_time": 142.7613636,
                "end_time": 143.0113636,
                "pitch": 76,
                "velocity": 101,
                "duration": 0.25,
                "tempo": 120.0
            },
            {
                "start_time": 143.0409091,
                "end_time": 143.3159091,
                "pitch": 73,
                "velocity": 101,
                "duration": 0.275,
                "tempo": 120.0
            },
            {
                "start_time": 143.35,
                "end_time": 143.6090909,
                "pitch": 81,
                "velocity": 101,
                "duration": 0.2590909,
                "tempo": 120.0
            },
            {
                "start_time": 143.95,
                "end_time": 144.2090909,
                "pitch": 74,
                "velocity": 101,
                "duration": 0.2590909,
                "tempo": 120.0
            },
            {
                "start_time": 144.2409091,
                "end_time": 144.4909091,
                "pitch": 77,
                "velocity": 101,
                "duration": 0.25,
                "tempo": 120.0
            },
            {
                "start_time": 144.5386364,
                "end_time": 144.8068182,
                "pitch": 81,
                "velocity": 101,
                "duration": 0.2681818,
                "tempo": 120.0
            },
            {
                "start_time": 144.8409091,
                "end_time": 145.0909091,
                "pitch": 84,
                "velocity": 101,
                "duration": 0.25,
                "tempo": 120.0
            },
            {
                "start_time": 145.1386364,
                "end_time": 145.4045455,
                "pitch": 81,
                "velocity": 101,
                "duration": 0.2659091,
                "tempo": 120.0
            },
            {
                "start_time": 145.4386364,
                "end_time": 145.6886364,
                "pitch": 79,
                "velocity": 101,
                "duration": 0.25,
                "tempo": 120.0
            },
            {
                "start_time": 145.7204545,
                "end_time": 145.9863636,
                "pitch": 74,
                "velocity": 101,
                "duration": 0.2659091,
                "tempo": 120.0
            },
            {
                "start_time": 146.0181818,
                "end_time": 146.2772727,
                "pitch": 77,
                "velocity": 101,
                "duration": 0.2590909,
                "tempo": 120.0
            },
            {
                "start_time": 146.3090909,
                "end_time": 146.575,
                "pitch": 79,
                "velocity": 101,
                "duration": 0.2659091,
                "tempo": 120.0
            },
            {
                "start_time": 146.6068182,
                "end_time": 146.8727273,
                "pitch": 83,
                "velocity": 101,
                "duration": 0.2659091,
                "tempo": 120.0
            },
            {
                "start_time": 146.9068182,
                "end_time": 147.1590909,
                "pitch": 79,
                "velocity": 101,
                "duration": 0.2522727,
                "tempo": 120.0
            },
            {
                "start_time": 147.2068182,
                "end_time": 147.4727273,
                "pitch": 76,
                "velocity": 101,
                "duration": 0.2659091,
                "tempo": 120.0
            },
            {
                "start_time": 147.5068182,
                "end_time": 147.7590909,
                "pitch": 72,
                "velocity": 101,
                "duration": 0.2522727,
                "tempo": 120.0
            },
            {
                "start_time": 147.8045455,
                "end_time": 148.0727273,
                "pitch": 79,
                "velocity": 101,
                "duration": 0.2681818,
                "tempo": 120.0
            },
            {
                "start_time": 148.1045455,
                "end_time": 148.3568182,
                "pitch": 83,
                "velocity": 101,
                "duration": 0.2522727,
                "tempo": 120.0
            },
            {
                "start_time": 148.4045455,
                "end_time": 148.6704545,
                "pitch": 79,
                "velocity": 101,
                "duration": 0.2659091,
                "tempo": 120.0
            },
            {
                "start_time": 148.7045455,
                "end_time": 148.9545455,
                "pitch": 76,
                "velocity": 101,
                "duration": 0.25,
                "tempo": 120.0
            },
            {
                "start_time": 148.9863636,
                "end_time": 149.2522727,
                "pitch": 81,
                "velocity": 101,
                "duration": 0.2659091,
                "tempo": 120.0
            },
            {
                "start_time": 149.2840909,
                "end_time": 149.5431818,
                "pitch": 76,
                "velocity": 101,
                "duration": 0.2590909,
                "tempo": 120.0
            },
            {
                "start_time": 149.575,
                "end_time": 149.825,
                "pitch": 72,
                "velocity": 101,
                "duration": 0.25,
                "tempo": 120.0
            },
            {
                "start_time": 149.8727273,
                "end_time": 150.1318182,
                "pitch": 76,
                "velocity": 101,
                "duration": 0.2590909,
                "tempo": 120.0
            },
            {
                "start_time": 150.1659091,
                "end_time": 150.425,
                "pitch": 79,
                "velocity": 101,
                "duration": 0.2590909,
                "tempo": 120.0
            },
            {
                "start_time": 150.4727273,
                "end_time": 150.7409091,
                "pitch": 81,
                "velocity": 101,
                "duration": 0.2681818,
                "tempo": 120.0
            },
            {
                "start_time": 151.0727273,
                "end_time": 151.3318182,
                "pitch": 74,
                "velocity": 101,
                "duration": 0.2590909,
                "tempo": 120.0
            },
            {
                "start_time": 151.3636364,
                "end_time": 151.6136364,
                "pitch": 77,
                "velocity": 101,
                "duration": 0.25,
                "tempo": 120.0
            },
            {
                "start_time": 151.6454545,
                "end_time": 151.9136364,
                "pitch": 81,
                "velocity": 101,
                "duration": 0.2681818,
                "tempo": 120.0
            },
            {
                "start_time": 151.9431818,
                "end_time": 152.2113636,
                "pitch": 84,
                "velocity": 101,
                "duration": 0.2681818,
                "tempo": 120.0
            },
            {
                "start_time": 152.2454545,
                "end_time": 152.5113636,
                "pitch": 81,
                "velocity": 101,
                "duration": 0.2659091,
                "tempo": 120.0
            },
            {
                "start_time": 152.5431818,
                "end_time": 152.8022727,
                "pitch": 77,
                "velocity": 101,
                "duration": 0.2590909,
                "tempo": 120.0
            },
            {
                "start_time": 152.8340909,
                "end_time": 153.0931818,
                "pitch": 74,
                "velocity": 101,
                "duration": 0.2590909,
                "tempo": 120.0
            },
            {
                "start_time": 153.1431818,
                "end_time": 153.4022727,
                "pitch": 77,
                "velocity": 101,
                "duration": 0.2590909,
                "tempo": 120.0
            },
            {
                "start_time": 153.4340909,
                "end_time": 153.6931818,
                "pitch": 81,
                "velocity": 101,
                "duration": 0.2590909,
                "tempo": 120.0
            },
            {
                "start_time": 153.7431818,
                "end_time": 154.0022727,
                "pitch": 84,
                "velocity": 101,
                "duration": 0.2590909,
                "tempo": 120.0
            },
            {
                "start_time": 154.0340909,
                "end_time": 154.2931818,
                "pitch": 81,
                "velocity": 101,
                "duration": 0.2590909,
                "tempo": 120.0
            },
            {
                "start_time": 154.6340909,
                "end_time": 154.8840909,
                "pitch": 76,
                "velocity": 101,
                "duration": 0.25,
                "tempo": 120.0
            },
            {
                "start_time": 154.9159091,
                "end_time": 155.1840909,
                "pitch": 79,
                "velocity": 101,
                "duration": 0.2681818,
                "tempo": 120.0
            },
            {
                "start_time": 155.2159091,
                "end_time": 155.4818182,
                "pitch": 83,
                "velocity": 101,
                "duration": 0.2659091,
                "tempo": 120.0
            },
            {
                "start_time": 155.5159091,
                "end_time": 155.7681818,
                "pitch": 86,
                "velocity": 101,
                "duration": 0.2522727,
                "tempo": 120.0
            },
            {
                "start_time": 155.8159091,
                "end_time": 156.075,
                "pitch": 83,
                "velocity": 101,
                "duration": 0.2590909,
                "tempo": 120.0
            },
            {
                "start_time": 156.1068182,
                "end_time": 156.3659091,
                "pitch": 79,
                "velocity": 101,
                "duration": 0.2590909,
                "tempo": 120.0
            },
            {
                "start_time": 156.4159091,
                "end_time": 156.675,
                "pitch": 76,
                "velocity": 101,
                "duration": 0.2590909,
                "tempo": 120.0
            },
            {
                "start_time": 156.7068182,
                "end_time": 156.9659091,
                "pitch": 79,
                "velocity": 101,
                "duration": 0.2590909,
                "tempo": 120.0
            },
            {
                "start_time": 157.0159091,
                "end_time": 157.275,
                "pitch": 83,
                "velocity": 101,
                "duration": 0.2590909,
                "tempo": 120.0
            },
            {
                "start_time": 157.3068182,
                "end_time": 157.5590909,
                "pitch": 86,
                "velocity": 101,
                "duration": 0.2522727,
                "tempo": 120.0
            },
            {
                "start_time": 157.5909091,
                "end_time": 157.8659091,
                "pitch": 83,
                "velocity": 101,
                "duration": 0.275,
                "tempo": 120.0
            },
            {
                "start_time": 158.1795455,
                "end_time": 158.4545455,
                "pitch": 74,
                "velocity": 101,
                "duration": 0.275,
                "tempo": 120.0
            },
            {
                "start_time": 158.4863636,
                "end_time": 158.7454545,
                "pitch": 77,
                "velocity": 101,
                "duration": 0.2590909,
                "tempo": 120.0
            },
            {
                "start_time": 158.7795455,
                "end_time": 159.0295455,
                "pitch": 81,
                "velocity": 101,
                "duration": 0.25,
                "tempo": 120.0
            },
            {
                "start_time": 159.0772727,
                "end_time": 159.3454545,
                "pitch": 84,
                "velocity": 101,
                "duration": 0.2681818,
                "tempo": 120.0
            },
            {
                "start_time": 159.3795455,
                "end_time": 159.6295455,
                "pitch": 81,
                "velocity": 101,
                "duration": 0.25,
                "tempo": 120.0
            },
            {
                "start_time": 159.6772727,
                "end_time": 159.9454545,
                "pitch": 77,
                "velocity": 101,
                "duration": 0.2681818,
                "tempo": 120.0
            },
            {
                "start_time": 159.9795455,
                "end_time": 160.2295455,
                "pitch": 74,
                "velocity": 101,
                "duration": 0.25,
                "tempo": 120.0
            },
            {
                "start_time": 160.2772727,
                "end_time": 160.5431818,
                "pitch": 77,
                "velocity": 101,
                "duration": 0.2659091,
                "tempo": 120.0
            },
            {
                "start_time": 160.5772727,
                "end_time": 160.8272727,
                "pitch": 81,
                "velocity": 101,
                "duration": 0.25,
                "tempo": 120.0
            },
            {
                "start_time": 160.8590909,
                "end_time": 161.1272727,
                "pitch": 84,
                "velocity": 101,
                "duration": 0.2681818,
                "tempo": 120.0
            },
            {
                "start_time": 161.1590909,
                "end_time": 161.425,
                "pitch": 81,
                "velocity": 101,
                "duration": 0.2659091,
                "tempo": 120.0
            },
            {
                "start_time": 161.7568182,
                "end_time": 162.0181818,
                "pitch": 76,
                "velocity": 101,
                "duration": 0.2613636,
                "tempo": 120.0
            },
            {
                "start_time": 162.05,
                "end_time": 162.3090909,
                "pitch": 79,
                "velocity": 101,
                "duration": 0.2590909,
                "tempo": 120.0
            },
            {
                "start_time": 162.3590909,
                "end_time": 162.6181818,
                "pitch": 83,
                "velocity": 101,
                "duration": 0.2590909,
                "tempo": 120.0
            },
            {
                "start_time": 162.65,
                "end_time": 162.9090909,
                "pitch": 86,
                "velocity": 101,
                "duration": 0.2590909,
                "tempo": 120.0
            },
            {
                "start_time": 162.9590909,
                "end_time": 163.2181818,
                "pitch": 83,
                "velocity": 101,
                "duration": 0.2590909,
                "tempo": 120.0
            },
            {
                "start_time": 163.25,
                "end_time": 163.5022727,
                "pitch": 79,
                "velocity": 101,
                "duration": 0.2522727,
                "tempo": 120.0
            },
            {
                "start_time": 163.5340909,
                "end_time": 163.8,
                "pitch": 76,
                "velocity": 101,
                "duration": 0.2659091,
                "tempo": 120.0
            },
            {
                "start_time": 163.8318182,
                "end_time": 164.0909091,
                "pitch": 79,
                "velocity": 101,
                "duration": 0.2590909,
                "tempo": 120.0
            },
            {
                "start_time": 164.1227273,
                "end_time": 164.4,
                "pitch": 83,
                "velocity": 101,
                "duration": 0.2772727,
                "tempo": 120.0
            },
            {
                "start_time": 164.4318182,
                "end_time": 164.6909091,
                "pitch": 86,
                "velocity": 101,
                "duration": 0.2590909,
                "tempo": 120.0
            },
            {
                "start_time": 164.725,
                "end_time": 164.9818182,
                "pitch": 83,
                "velocity": 101,
                "duration": 0.2568182,
                "tempo": 120.0
            },
            {
                "start_time": 165.3227273,
                "end_time": 165.575,
                "pitch": 72,
                "velocity": 101,
                "duration": 0.2522727,
                "tempo": 120.0
            },
            {
                "start_time": 165.6227273,
                "end_time": 165.8886364,
                "pitch": 76,
                "velocity": 101,
                "duration": 0.2659091,
                "tempo": 120.0
            },
            {
                "start_time": 165.9227273,
                "end_time": 166.175,
                "pitch": 81,
                "velocity": 101,
                "duration": 0.2522727,
                "tempo": 120.0
            },
            {
                "start_time": 166.2227273,
                "end_time": 166.4886364,
                "pitch": 76,
                "velocity": 101,
                "duration": 0.2659091,
                "tempo": 120.0
            },
            {
                "start_time": 166.5227273,
                "end_time": 166.7727273,
                "pitch": 72,
                "velocity": 101,
                "duration": 0.25,
                "tempo": 120.0
            },
            {
                "start_time": 167.1136364,
                "end_time": 167.3886364,
                "pitch": 72,
                "velocity": 101,
                "duration": 0.275,
                "tempo": 120.0
            },
            {
                "start_time": 167.4204545,
                "end_time": 167.6795455,
                "pitch": 76,
                "velocity": 101,
                "duration": 0.2590909,
                "tempo": 120.0
            },
            {
                "start_time": 167.7295455,
                "end_time": 167.9977273,
                "pitch": 81,
                "velocity": 101,
                "duration": 0.2681818,
                "tempo": 120.0
            },
            {
                "start_time": 168.0477273,
                "end_time": 168.3068182,
                "pitch": 76,
                "velocity": 101,
                "duration": 0.2590909,
                "tempo": 120.0
            },
            {
                "start_time": 168.3386364,
                "end_time": 168.6136364,
                "pitch": 72,
                "velocity": 101,
                "duration": 0.275,
                "tempo": 120.0
            },
            {
                "start_time": 168.9818182,
                "end_time": 169.275,
                "pitch": 72,
                "velocity": 101,
                "duration": 0.2931818,
                "tempo": 120.0
            },
            {
                "start_time": 169.3090909,
                "end_time": 169.5931818,
                "pitch": 76,
                "velocity": 101,
                "duration": 0.2840909,
                "tempo": 120.0
            },
            {
                "start_time": 169.6454545,
                "end_time": 169.9386364,
                "pitch": 81,
                "velocity": 101,
                "duration": 0.2931818,
                "tempo": 120.0
            },
            {
                "start_time": 169.9727273,
                "end_time": 170.2568182,
                "pitch": 76,
                "velocity": 101,
                "duration": 0.2840909,
                "tempo": 120.0
            },
            {
                "start_time": 170.3068182,
                "end_time": 170.6022727,
                "pitch": 72,
                "velocity": 101,
                "duration": 0.2954545,
                "tempo": 120.0
            },
            {
                "start_time": 170.9704545,
                "end_time": 171.2818182,
                "pitch": 72,
                "velocity": 101,
                "duration": 0.3113636,
                "tempo": 120.0
            },
            {
                "start_time": 171.3340909,
                "end_time": 171.6454545,
                "pitch": 76,
                "velocity": 101,
                "duration": 0.3113636,
                "tempo": 120.0
            },
            {
                "start_time": 171.7,
                "end_time": 172.0204545,
                "pitch": 81,
                "velocity": 101,
                "duration": 0.3204545,
                "tempo": 120.0
            },
            {
                "start_time": 172.0568182,
                "end_time": 172.3659091,
                "pitch": 76,
                "velocity": 101,
                "duration": 0.3090909,
                "tempo": 120.0
            },
            {
                "start_time": 172.4181818,
                "end_time": 172.7295455,
                "pitch": 72,
                "velocity": 101,
                "duration": 0.3113636,
                "tempo": 120.0
            },
            {
                "start_time": 172.7840909,
                "end_time": 175.7977273,
                "pitch": 81,
                "velocity": 101,
                "duration": 3.0136364,
                "tempo": 120.0
            }
        ],
        "Church Organ": [
            {
                "start_time": 0.0159091,
                "end_time": 6.4272727,
                "pitch": 45,
                "velocity": 101,
                "duration": 6.4113636,
                "tempo": 120.0
            },
            {
                "start_time": 6.5227273,
                "end_time": 13.6,
                "pitch": 43,
                "velocity": 101,
                "duration": 7.0772727,
                "tempo": 120.0
            },
            {
                "start_time": 13.6681818,
                "end_time": 17.1931818,
                "pitch": 41,
                "velocity": 101,
                "duration": 3.525,
                "tempo": 120.0
            },
            {
                "start_time": 17.2613636,
                "end_time": 20.7545455,
                "pitch": 38,
                "velocity": 101,
                "duration": 3.4931818,
                "tempo": 120.0
            },
            {
                "start_time": 20.8545455,
                "end_time": 24.325,
                "pitch": 40,
                "velocity": 101,
                "duration": 3.4704545,
                "tempo": 120.0
            },
            {
                "start_time": 24.3909091,
                "end_time": 27.9204545,
                "pitch": 40,
                "velocity": 101,
                "duration": 3.5295455,
                "tempo": 120.0
            },
            {
                "start_time": 27.9886364,
                "end_time": 35.0522727,
                "pitch": 45,
                "velocity": 101,
                "duration": 7.0636364,
                "tempo": 120.0
            },
            {
                "start_time": 35.1181818,
                "end_time": 42.2045455,
                "pitch": 44,
                "velocity": 101,
                "duration": 7.0863636,
                "tempo": 120.0
            },
            {
                "start_time": 42.3045455,
                "end_time": 45.8,
                "pitch": 45,
                "velocity": 101,
                "duration": 3.4954545,
                "tempo": 120.0
            },
            {
                "start_time": 45.8659091,
                "end_time": 49.3818182,
                "pitch": 38,
                "velocity": 101,
                "duration": 3.5159091,
                "tempo": 120.0
            },
            {
                "start_time": 49.4477273,
                "end_time": 52.975,
                "pitch": 40,
                "velocity": 101,
                "duration": 3.5272727,
                "tempo": 120.0
            },
            {
                "start_time": 53.0409091,
                "end_time": 56.5363636,
                "pitch": 40,
                "velocity": 101,
                "duration": 3.4954545,
                "tempo": 120.0
            },
            {
                "start_time": 56.6340909,
                "end_time": 61.6681818,
                "pitch": 45,
                "velocity": 101,
                "duration": 5.0340909,
                "tempo": 120.0
            },
            {
                "start_time": 61.7,
                "end_time": 65.2204545,
                "pitch": 43,
                "velocity": 101,
                "duration": 3.5204545,
                "tempo": 120.0
            },
            {
                "start_time": 65.2522727,
                "end_time": 68.7704545,
                "pitch": 41,
                "velocity": 101,
                "duration": 3.5181818,
                "tempo": 120.0
            },
            {
                "start_time": 68.8181818,
                "end_time": 70.5681818,
                "pitch": 36,
                "velocity": 101,
                "duration": 1.75,
                "tempo": 120.0
            },
            {
                "start_time": 70.6181818,
                "end_time": 72.3590909,
                "pitch": 33,
                "velocity": 101,
                "duration": 1.7409091,
                "tempo": 120.0
            },
            {
                "start_time": 72.3909091,
                "end_time": 75.9113636,
                "pitch": 26,
                "velocity": 101,
                "duration": 3.5204545,
                "tempo": 120.0
            },
            {
                "start_time": 75.9613636,
                "end_time": 79.4840909,
                "pitch": 33,
                "velocity": 101,
                "duration": 3.5227273,
                "tempo": 120.0
            },
            {
                "start_time": 79.5181818,
                "end_time": 83.0454545,
                "pitch": 28,
                "velocity": 101,
                "duration": 3.5272727,
                "tempo": 120.0
            },
            {
                "start_time": 83.0772727,
                "end_time": 86.6159091,
                "pitch": 33,
                "velocity": 101,
                "duration": 3.5386364,
                "tempo": 120.0
            }
        ],
        "Acoustic Bass": [
            {
                "start_time": 86.6477273,
                "end_time": 87.7886364,
                "pitch": 26,
                "velocity": 101,
                "duration": 1.1409091,
                "tempo": 120.0
            },
            {
                "start_time": 87.8363636,
                "end_time": 88.1045455,
                "pitch": 29,
                "velocity": 101,
                "duration": 0.2681818,
                "tempo": 120.0
            },
            {
                "start_time": 88.1386364,
                "end_time": 88.3886364,
                "pitch": 33,
                "velocity": 101,
                "duration": 0.25,
                "tempo": 120.0
            },
            {
                "start_time": 88.4363636,
                "end_time": 89.575,
                "pitch": 31,
                "velocity": 101,
                "duration": 1.1386364,
                "tempo": 120.0
            },
            {
                "start_time": 89.6090909,
                "end_time": 89.8681818,
                "pitch": 26,
                "velocity": 101,
                "duration": 0.2590909,
                "tempo": 120.0
            },
            {
                "start_time": 89.9159091,
                "end_time": 90.175,
                "pitch": 31,
                "velocity": 101,
                "duration": 0.2590909,
                "tempo": 120.0
            },
            {
                "start_time": 90.2090909,
                "end_time": 91.3659091,
                "pitch": 24,
                "velocity": 101,
                "duration": 1.1568182,
                "tempo": 120.0
            },
            {
                "start_time": 91.3977273,
                "end_time": 91.6568182,
                "pitch": 28,
                "velocity": 101,
                "duration": 0.2590909,
                "tempo": 120.0
            },
            {
                "start_time": 91.6909091,
                "end_time": 91.9568182,
                "pitch": 31,
                "velocity": 101,
                "duration": 0.2659091,
                "tempo": 120.0
            },
            {
                "start_time": 91.9886364,
                "end_time": 93.1272727,
                "pitch": 33,
                "velocity": 101,
                "duration": 1.1386364,
                "tempo": 120.0
            },
            {
                "start_time": 93.175,
                "end_time": 93.4431818,
                "pitch": 28,
                "velocity": 101,
                "duration": 0.2681818,
                "tempo": 120.0
            },
            {
                "start_time": 93.4772727,
                "end_time": 93.7272727,
                "pitch": 25,
                "velocity": 101,
                "duration": 0.25,
                "tempo": 120.0
            },
            {
                "start_time": 93.7727273,
                "end_time": 94.9159091,
                "pitch": 26,
                "velocity": 101,
                "duration": 1.1431818,
                "tempo": 120.0
            },
            {
                "start_time": 94.9477273,
                "end_time": 95.2227273,
                "pitch": 33,
                "velocity": 101,
                "duration": 0.275,
                "tempo": 120.0
            },
            {
                "start_time": 95.2545455,
                "end_time": 95.5136364,
                "pitch": 29,
                "velocity": 101,
                "duration": 0.2590909,
                "tempo": 120.0
            },
            {
                "start_time": 95.5477273,
                "end_time": 96.3954545,
                "pitch": 31,
                "velocity": 101,
                "duration": 0.8477273,
                "tempo": 120.0
            },
            {
                "start_time": 96.4409091,
                "end_time": 96.7090909,
                "pitch": 35,
                "velocity": 101,
                "duration": 0.2681818,
                "tempo": 120.0
            },
            {
                "start_time": 96.7431818,
                "end_time": 96.9931818,
                "pitch": 31,
                "velocity": 101,
                "duration": 0.25,
                "tempo": 120.0
            },
            {
                "start_time": 97.0409091,
                "end_time": 97.3068182,
                "pitch": 26,
                "velocity": 101,
                "duration": 0.2659091,
                "tempo": 120.0
            },
            {
                "start_time": 97.3409091,
                "end_time": 98.4818182,
                "pitch": 24,
                "velocity": 101,
                "duration": 1.1409091,
                "tempo": 120.0
            },
            {
                "start_time": 98.5136364,
                "end_time": 98.7795455,
                "pitch": 31,
                "velocity": 101,
                "duration": 0.2659091,
                "tempo": 120.0
            },
            {
                "start_time": 98.8136364,
                "end_time": 99.0636364,
                "pitch": 24,
                "velocity": 101,
                "duration": 0.25,
                "tempo": 120.0
            },
            {
                "start_time": 99.1113636,
                "end_time": 100.2613636,
                "pitch": 33,
                "velocity": 101,
                "duration": 1.15,
                "tempo": 120.0
            },
            {
                "start_time": 100.3113636,
                "end_time": 100.5704545,
                "pitch": 28,
                "velocity": 101,
                "duration": 0.2590909,
                "tempo": 120.0
            },
            {
                "start_time": 100.6022727,
                "end_time": 100.8522727,
                "pitch": 25,
                "velocity": 101,
                "duration": 0.25,
                "tempo": 120.0
            },
            {
                "start_time": 100.8840909,
                "end_time": 102.0409091,
                "pitch": 26,
                "velocity": 101,
                "duration": 1.1568182,
                "tempo": 120.0
            },
            {
                "start_time": 102.075,
                "end_time": 102.3340909,
                "pitch": 29,
                "velocity": 101,
                "duration": 0.2590909,
                "tempo": 120.0
            },
            {
                "start_time": 102.3818182,
                "end_time": 102.65,
                "pitch": 33,
                "velocity": 101,
                "duration": 0.2681818,
                "tempo": 120.0
            },
            {
                "start_time": 102.6840909,
                "end_time": 103.8409091,
                "pitch": 31,
                "velocity": 101,
                "duration": 1.1568182,
                "tempo": 120.0
            },
            {
                "start_time": 103.8727273,
                "end_time": 104.1318182,
                "pitch": 26,
                "velocity": 101,
                "duration": 0.2590909,
                "tempo": 120.0
            },
            {
                "start_time": 104.1659091,
                "end_time": 104.4318182,
                "pitch": 31,
                "velocity": 101,
                "duration": 0.2659091,
                "tempo": 120.0
            },
            {
                "start_time": 104.4636364,
                "end_time": 105.6068182,
                "pitch": 28,
                "velocity": 101,
                "duration": 1.1431818,
                "tempo": 120.0
            },
            {
                "start_time": 105.6545455,
                "end_time": 105.9204545,
                "pitch": 31,
                "velocity": 101,
                "duration": 0.2659091,
                "tempo": 120.0
            },
            {
                "start_time": 105.9545455,
                "end_time": 106.2045455,
                "pitch": 35,
                "velocity": 101,
                "duration": 0.25,
                "tempo": 120.0
            },
            {
                "start_time": 106.2522727,
                "end_time": 107.3886364,
                "pitch": 33,
                "velocity": 101,
                "duration": 1.1363636,
                "tempo": 120.0
            },
            {
                "start_time": 107.4227273,
                "end_time": 107.6886364,
                "pitch": 28,
                "velocity": 101,
                "duration": 0.2659091,
                "tempo": 120.0
            },
            {
                "start_time": 107.7204545,
                "end_time": 107.9886364,
                "pitch": 24,
                "velocity": 101,
                "duration": 0.2681818,
                "tempo": 120.0
            },
            {
                "start_time": 108.0227273,
                "end_time": 109.1795455,
                "pitch": 26,
                "velocity": 101,
                "duration": 1.1568182,
                "tempo": 120.0
            },
            {
                "start_time": 109.2136364,
                "end_time": 109.4727273,
                "pitch": 33,
                "velocity": 101,
                "duration": 0.2590909,
                "tempo": 120.0
            },
            {
                "start_time": 109.5204545,
                "end_time": 109.7795455,
                "pitch": 29,
                "velocity": 101,
                "duration": 0.2590909,
                "tempo": 120.0
            },
            {
                "start_time": 109.8136364,
                "end_time": 110.0636364,
                "pitch": 23,
                "velocity": 101,
                "duration": 0.25,
                "tempo": 120.0
            },
            {
                "start_time": 110.0954545,
                "end_time": 110.3613636,
                "pitch": 26,
                "velocity": 101,
                "duration": 0.2659091,
                "tempo": 120.0
            },
            {
                "start_time": 110.3931818,
                "end_time": 110.65,
                "pitch": 29,
                "velocity": 101,
                "duration": 0.2568182,
                "tempo": 120.0
            },
            {
                "start_time": 110.6840909,
                "end_time": 110.9431818,
                "pitch": 33,
                "velocity": 101,
                "duration": 0.2590909,
                "tempo": 120.0
            },
            {
                "start_time": 110.9931818,
                "end_time": 111.25,
                "pitch": 29,
                "velocity": 101,
                "duration": 0.2568182,
                "tempo": 120.0
            },
            {
                "start_time": 111.2840909,
                "end_time": 111.5431818,
                "pitch": 33,
                "velocity": 101,
                "duration": 0.2590909,
                "tempo": 120.0
            },
            {
                "start_time": 111.5931818,
                "end_time": 112.45,
                "pitch": 28,
                "velocity": 101,
                "duration": 0.8568182,
                "tempo": 120.0
            },
            {
                "start_time": 112.4840909,
                "end_time": 112.7340909,
                "pitch": 32,
                "velocity": 101,
                "duration": 0.25,
                "tempo": 120.0
            },
            {
                "start_time": 112.7659091,
                "end_time": 113.0318182,
                "pitch": 35,
                "velocity": 101,
                "duration": 0.2659091,
                "tempo": 120.0
            },
            {
                "start_time": 113.0636364,
                "end_time": 113.3227273,
                "pitch": 38,
                "velocity": 101,
                "duration": 0.2590909,
                "tempo": 120.0
            },
            {
                "start_time": 113.3545455,
                "end_time": 115.1181818,
                "pitch": 40,
                "velocity": 101,
                "duration": 1.7636364,
                "tempo": 120.0
            },
            {
                "start_time": 115.1522727,
                "end_time": 116.3022727,
                "pitch": 38,
                "velocity": 101,
                "duration": 1.15,
                "tempo": 120.0
            },
            {
                "start_time": 116.3340909,
                "end_time": 116.5931818,
                "pitch": 41,
                "velocity": 101,
                "duration": 0.2590909,
                "tempo": 120.0
            },
            {
                "start_time": 116.625,
                "end_time": 116.8840909,
                "pitch": 45,
                "velocity": 101,
                "duration": 0.2590909,
                "tempo": 120.0
            },
            {
                "start_time": 116.9340909,
                "end_time": 118.075,
                "pitch": 43,
                "velocity": 101,
                "duration": 1.1409091,
                "tempo": 120.0
            },
            {
                "start_time": 118.1204545,
                "end_time": 118.3886364,
                "pitch": 38,
                "velocity": 101,
                "duration": 0.2681818,
                "tempo": 120.0
            },
            {
                "start_time": 118.4227273,
                "end_time": 118.6727273,
                "pitch": 43,
                "velocity": 101,
                "duration": 0.25,
                "tempo": 120.0
            },
            {
                "start_time": 118.7045455,
                "end_time": 119.8613636,
                "pitch": 36,
                "velocity": 101,
                "duration": 1.1568182,
                "tempo": 120.0
            },
            {
                "start_time": 119.8954545,
                "end_time": 120.1545455,
                "pitch": 40,
                "velocity": 101,
                "duration": 0.2590909,
                "tempo": 120.0
            },
            {
                "start_time": 120.2022727,
                "end_time": 120.4613636,
                "pitch": 43,
                "velocity": 101,
                "duration": 0.2590909,
                "tempo": 120.0
            },
            {
                "start_time": 120.4954545,
                "end_time": 121.6522727,
                "pitch": 45,
                "velocity": 101,
                "duration": 1.1568182,
                "tempo": 120.0
            },
            {
                "start_time": 121.6840909,
                "end_time": 121.9431818,
                "pitch": 40,
                "velocity": 101,
                "duration": 0.2590909,
                "tempo": 120.0
            },
            {
                "start_time": 121.975,
                "end_time": 122.2431818,
                "pitch": 36,
                "velocity": 101,
                "duration": 0.2681818,
                "tempo": 120.0
            },
            {
                "start_time": 122.275,
                "end_time": 123.4159091,
                "pitch": 38,
                "velocity": 101,
                "duration": 1.1409091,
                "tempo": 120.0
            },
            {
                "start_time": 123.4636364,
                "end_time": 123.7295455,
                "pitch": 45,
                "velocity": 101,
                "duration": 0.2659091,
                "tempo": 120.0
            },
            {
                "start_time": 123.7636364,
                "end_time": 124.0159091,
                "pitch": 41,
                "velocity": 101,
                "duration": 0.2522727,
                "tempo": 120.0
            },
            {
                "start_time": 124.0636364,
                "end_time": 124.9113636,
                "pitch": 43,
                "velocity": 101,
                "duration": 0.8477273,
                "tempo": 120.0
            },
            {
                "start_time": 124.9431818,
                "end_time": 125.2022727,
                "pitch": 47,
                "velocity": 101,
                "duration": 0.2590909,
                "tempo": 120.0
            },
            {
                "start_time": 125.2363636,
                "end_time": 125.5113636,
                "pitch": 43,
                "velocity": 101,
                "duration": 0.275,
                "tempo": 120.0
            },
            {
                "start_time": 125.5431818,
                "end_time": 125.8022727,
                "pitch": 38,
                "velocity": 101,
                "duration": 0.2590909,
                "tempo": 120.0
            },
            {
                "start_time": 125.8363636,
                "end_time": 126.9931818,
                "pitch": 36,
                "velocity": 101,
                "duration": 1.1568182,
                "tempo": 120.0
            },
            {
                "start_time": 127.0272727,
                "end_time": 127.2863636,
                "pitch": 43,
                "velocity": 101,
                "duration": 0.2590909,
                "tempo": 120.0
            },
            {
                "start_time": 127.3340909,
                "end_time": 127.5931818,
                "pitch": 36,
                "velocity": 101,
                "duration": 0.2590909,
                "tempo": 120.0
            },
            {
                "start_time": 127.6272727,
                "end_time": 128.7568182,
                "pitch": 45,
                "velocity": 101,
                "duration": 1.1295455,
                "tempo": 120.0
            },
            {
                "start_time": 128.8045455,
                "end_time": 129.0704545,
                "pitch": 40,
                "velocity": 101,
                "duration": 0.2659091,
                "tempo": 120.0
            },
            {
                "start_time": 129.1045455,
                "end_time": 129.3568182,
                "pitch": 37,
                "velocity": 101,
                "duration": 0.2522727,
                "tempo": 120.0
            },
            {
                "start_time": 129.4045455,
                "end_time": 130.5454545,
                "pitch": 38,
                "velocity": 101,
                "duration": 1.1409091,
                "tempo": 120.0
            },
            {
                "start_time": 130.5772727,
                "end_time": 130.8522727,
                "pitch": 41,
                "velocity": 101,
                "duration": 0.275,
                "tempo": 120.0
            },
            {
                "start_time": 130.8863636,
                "end_time": 131.1431818,
                "pitch": 45,
                "velocity": 101,
                "duration": 0.2568182,
                "tempo": 120.0
            },
            {
                "start_time": 131.1772727,
                "end_time": 132.3318182,
                "pitch": 43,
                "velocity": 101,
                "duration": 1.1545455,
                "tempo": 120.0
            },
            {
                "start_time": 132.3659091,
                "end_time": 132.6227273,
                "pitch": 38,
                "velocity": 101,
                "duration": 0.2568182,
                "tempo": 120.0
            },
            {
                "start_time": 132.6727273,
                "end_time": 132.9318182,
                "pitch": 43,
                "velocity": 101,
                "duration": 0.2590909,
                "tempo": 120.0
            },
            {
                "start_time": 132.9659091,
                "end_time": 134.1113636,
                "pitch": 36,
                "velocity": 101,
                "duration": 1.1454545,
                "tempo": 120.0
            },
            {
                "start_time": 134.1431818,
                "end_time": 134.4022727,
                "pitch": 40,
                "velocity": 101,
                "duration": 0.2590909,
                "tempo": 120.0
            },
            {
                "start_time": 134.4363636,
                "end_time": 134.6954545,
                "pitch": 43,
                "velocity": 101,
                "duration": 0.2590909,
                "tempo": 120.0
            },
            {
                "start_time": 134.7431818,
                "end_time": 135.8863636,
                "pitch": 45,
                "velocity": 101,
                "duration": 1.1431818,
                "tempo": 120.0
            },
            {
                "start_time": 135.9340909,
                "end_time": 136.2,
                "pitch": 40,
                "velocity": 101,
                "duration": 0.2659091,
                "tempo": 120.0
            },
            {
                "start_time": 136.2340909,
                "end_time": 136.4863636,
                "pitch": 36,
                "velocity": 101,
                "duration": 0.2522727,
                "tempo": 120.0
            },
            {
                "start_time": 136.5340909,
                "end_time": 137.6727273,
                "pitch": 38,
                "velocity": 101,
                "duration": 1.1386364,
                "tempo": 120.0
            },
            {
                "start_time": 137.7045455,
                "end_time": 137.9636364,
                "pitch": 45,
                "velocity": 101,
                "duration": 0.2590909,
                "tempo": 120.0
            },
            {
                "start_time": 138.0136364,
                "end_time": 138.2727273,
                "pitch": 41,
                "velocity": 101,
                "duration": 0.2590909,
                "tempo": 120.0
            },
            {
                "start_time": 138.3045455,
                "end_time": 139.1522727,
                "pitch": 40,
                "velocity": 101,
                "duration": 0.8477273,
                "tempo": 120.0
            },
            {
                "start_time": 139.2,
                "end_time": 139.4681818,
                "pitch": 47,
                "velocity": 101,
                "duration": 0.2681818,
                "tempo": 120.0
            },
            {
                "start_time": 139.5022727,
                "end_time": 139.7522727,
                "pitch": 44,
                "velocity": 101,
                "duration": 0.25,
                "tempo": 120.0
            },
            {
                "start_time": 139.7863636,
                "end_time": 140.05,
                "pitch": 40,
                "velocity": 101,
                "duration": 0.2636364,
                "tempo": 120.0
            },
            {
                "start_time": 140.0818182,
                "end_time": 141.225,
                "pitch": 45,
                "velocity": 101,
                "duration": 1.1431818,
                "tempo": 120.0
            },
            {
                "start_time": 141.2727273,
                "end_time": 141.5386364,
                "pitch": 40,
                "velocity": 101,
                "duration": 0.2659091,
                "tempo": 120.0
            },
            {
                "start_time": 141.5727273,
                "end_time": 141.8227273,
                "pitch": 36,
                "velocity": 101,
                "duration": 0.25,
                "tempo": 120.0
            },
            {
                "start_time": 141.8704545,
                "end_time": 143.0113636,
                "pitch": 45,
                "velocity": 101,
                "duration": 1.1409091,
                "tempo": 120.0
            },
            {
                "start_time": 143.0431818,
                "end_time": 143.3181818,
                "pitch": 40,
                "velocity": 101,
                "duration": 0.275,
                "tempo": 120.0
            },
            {
                "start_time": 143.35,
                "end_time": 143.6090909,
                "pitch": 37,
                "velocity": 101,
                "duration": 0.2590909,
                "tempo": 120.0
            },
            {
                "start_time": 143.6409091,
                "end_time": 144.8068182,
                "pitch": 38,
                "velocity": 101,
                "duration": 1.1659091,
                "tempo": 120.0
            },
            {
                "start_time": 144.8409091,
                "end_time": 145.0909091,
                "pitch": 38,
                "velocity": 101,
                "duration": 0.25,
                "tempo": 120.0
            },
            {
                "start_time": 145.1386364,
                "end_time": 145.4045455,
                "pitch": 38,
                "velocity": 101,
                "duration": 0.2659091,
                "tempo": 120.0
            },
            {
                "start_time": 145.4386364,
                "end_time": 146.575,
                "pitch": 43,
                "velocity": 101,
                "duration": 1.1363636,
                "tempo": 120.0
            },
            {
                "start_time": 146.6068182,
                "end_time": 146.875,
                "pitch": 43,
                "velocity": 101,
                "duration": 0.2681818,
                "tempo": 120.0
            },
            {
                "start_time": 146.9068182,
                "end_time": 147.1590909,
                "pitch": 43,
                "velocity": 101,
                "duration": 0.2522727,
                "tempo": 120.0
            },
            {
                "start_time": 147.2068182,
                "end_time": 148.3568182,
                "pitch": 36,
                "velocity": 101,
                "duration": 1.15,
                "tempo": 120.0
            },
            {
                "start_time": 148.4045455,
                "end_time": 148.6704545,
                "pitch": 36,
                "velocity": 101,
                "duration": 0.2659091,
                "tempo": 120.0
            },
            {
                "start_time": 148.7045455,
                "end_time": 148.9545455,
                "pitch": 36,
                "velocity": 101,
                "duration": 0.25,
                "tempo": 120.0
            },
            {
                "start_time": 148.9863636,
                "end_time": 150.1318182,
                "pitch": 45,
                "velocity": 101,
                "duration": 1.1454545,
                "tempo": 120.0
            },
            {
                "start_time": 150.1659091,
                "end_time": 150.425,
                "pitch": 45,
                "velocity": 101,
                "duration": 0.2590909,
                "tempo": 120.0
            },
            {
                "start_time": 150.4727273,
                "end_time": 150.7409091,
                "pitch": 45,
                "velocity": 101,
                "duration": 0.2681818,
                "tempo": 120.0
            },
            {
                "start_time": 150.775,
                "end_time": 151.9136364,
                "pitch": 38,
                "velocity": 101,
                "duration": 1.1386364,
                "tempo": 120.0
            },
            {
                "start_time": 151.9454545,
                "end_time": 152.2113636,
                "pitch": 38,
                "velocity": 101,
                "duration": 0.2659091,
                "tempo": 120.0
            },
            {
                "start_time": 152.2454545,
                "end_time": 152.5113636,
                "pitch": 38,
                "velocity": 101,
                "duration": 0.2659091,
                "tempo": 120.0
            },
            {
                "start_time": 152.8363636,
                "end_time": 153.0931818,
                "pitch": 38,
                "velocity": 64,
                "duration": 0.2568182,
                "tempo": 120.0
            },
            {
                "start_time": 153.1431818,
                "end_time": 153.4022727,
                "pitch": 38,
                "velocity": 64,
                "duration": 0.2590909,
                "tempo": 120.0
            },
            {
                "start_time": 153.4363636,
                "end_time": 153.6954545,
                "pitch": 38,
                "velocity": 80,
                "duration": 0.2590909,
                "tempo": 120.0
            },
            {
                "start_time": 153.7431818,
                "end_time": 154.0022727,
                "pitch": 38,
                "velocity": 80,
                "duration": 0.2590909,
                "tempo": 120.0
            },
            {
                "start_time": 154.0363636,
                "end_time": 154.2931818,
                "pitch": 38,
                "velocity": 101,
                "duration": 0.2568182,
                "tempo": 120.0
            },
            {
                "start_time": 154.3431818,
                "end_time": 155.4818182,
                "pitch": 40,
                "velocity": 101,
                "duration": 1.1386364,
                "tempo": 120.0
            },
            {
                "start_time": 155.5159091,
                "end_time": 155.7681818,
                "pitch": 40,
                "velocity": 101,
                "duration": 0.2522727,
                "tempo": 120.0
            },
            {
                "start_time": 155.8159091,
                "end_time": 156.075,
                "pitch": 40,
                "velocity": 101,
                "duration": 0.2590909,
                "tempo": 120.0
            },
            {
                "start_time": 156.4159091,
                "end_time": 156.675,
                "pitch": 40,
                "velocity": 64,
                "duration": 0.2590909,
                "tempo": 120.0
            },
            {
                "start_time": 156.7068182,
                "end_time": 156.9659091,
                "pitch": 40,
                "velocity": 64,
                "duration": 0.2590909,
                "tempo": 120.0
            },
            {
                "start_time": 157.0159091,
                "end_time": 157.275,
                "pitch": 40,
                "velocity": 80,
                "duration": 0.2590909,
                "tempo": 120.0
            },
            {
                "start_time": 157.3068182,
                "end_time": 157.5590909,
                "pitch": 40,
                "velocity": 80,
                "duration": 0.2522727,
                "tempo": 120.0
            },
            {
                "start_time": 157.5909091,
                "end_time": 157.8659091,
                "pitch": 40,
                "velocity": 101,
                "duration": 0.275,
                "tempo": 120.0
            },
            {
                "start_time": 157.8977273,
                "end_time": 159.0295455,
                "pitch": 38,
                "velocity": 101,
                "duration": 1.1318182,
                "tempo": 120.0
            },
            {
                "start_time": 159.0772727,
                "end_time": 159.3454545,
                "pitch": 38,
                "velocity": 101,
                "duration": 0.2681818,
                "tempo": 120.0
            },
            {
                "start_time": 159.3795455,
                "end_time": 159.6295455,
                "pitch": 38,
                "velocity": 101,
                "duration": 0.25,
                "tempo": 120.0
            },
            {
                "start_time": 159.9795455,
                "end_time": 160.2295455,
                "pitch": 38,
                "velocity": 64,
                "duration": 0.25,
                "tempo": 120.0
            },
            {
                "start_time": 160.2772727,
                "end_time": 160.5431818,
                "pitch": 38,
                "velocity": 64,
                "duration": 0.2659091,
                "tempo": 120.0
            },
            {
                "start_time": 160.5772727,
                "end_time": 160.8272727,
                "pitch": 38,
                "velocity": 80,
                "duration": 0.25,
                "tempo": 120.0
            },
            {
                "start_time": 160.8590909,
                "end_time": 161.1272727,
                "pitch": 38,
                "velocity": 80,
                "duration": 0.2681818,
                "tempo": 120.0
            },
            {
                "start_time": 161.1590909,
                "end_time": 161.425,
                "pitch": 38,
                "velocity": 101,
                "duration": 0.2659091,
                "tempo": 120.0
            },
            {
                "start_time": 161.4590909,
                "end_time": 162.6181818,
                "pitch": 40,
                "velocity": 101,
                "duration": 1.1590909,
                "tempo": 120.0
            },
            {
                "start_time": 162.65,
                "end_time": 162.9090909,
                "pitch": 40,
                "velocity": 101,
                "duration": 0.2590909,
                "tempo": 120.0
            },
            {
                "start_time": 162.9590909,
                "end_time": 163.2181818,
                "pitch": 40,
                "velocity": 101,
                "duration": 0.2590909,
                "tempo": 120.0
            },
            {
                "start_time": 163.5340909,
                "end_time": 163.8,
                "pitch": 40,
                "velocity": 64,
                "duration": 0.2659091,
                "tempo": 120.0
            },
            {
                "start_time": 163.8318182,
                "end_time": 164.0909091,
                "pitch": 40,
                "velocity": 64,
                "duration": 0.2590909,
                "tempo": 120.0
            },
            {
                "start_time": 164.125,
                "end_time": 164.4,
                "pitch": 40,
                "velocity": 80,
                "duration": 0.275,
                "tempo": 120.0
            },
            {
                "start_time": 164.4318182,
                "end_time": 164.6909091,
                "pitch": 40,
                "velocity": 80,
                "duration": 0.2590909,
                "tempo": 120.0
            },
            {
                "start_time": 164.725,
                "end_time": 164.9840909,
                "pitch": 40,
                "velocity": 101,
                "duration": 0.2590909,
                "tempo": 120.0
            },
            {
                "start_time": 165.0318182,
                "end_time": 165.2909091,
                "pitch": 45,
                "velocity": 101,
                "duration": 0.2590909,
                "tempo": 120.0
            },
            {
                "start_time": 165.3227273,
                "end_time": 165.575,
                "pitch": 45,
                "velocity": 101,
                "duration": 0.2522727,
                "tempo": 120.0
            },
            {
                "start_time": 165.6227273,
                "end_time": 165.8909091,
                "pitch": 45,
                "velocity": 101,
                "duration": 0.2681818,
                "tempo": 120.0
            },
            {
                "start_time": 165.925,
                "end_time": 166.175,
                "pitch": 45,
                "velocity": 101,
                "duration": 0.25,
                "tempo": 120.0
            },
            {
                "start_time": 166.2227273,
                "end_time": 166.4886364,
                "pitch": 45,
                "velocity": 101,
                "duration": 0.2659091,
                "tempo": 120.0
            },
            {
                "start_time": 166.525,
                "end_time": 166.775,
                "pitch": 45,
                "velocity": 101,
                "duration": 0.25,
                "tempo": 120.0
            },
            {
                "start_time": 166.8068182,
                "end_time": 167.0795455,
                "pitch": 43,
                "velocity": 101,
                "duration": 0.2727273,
                "tempo": 120.0
            },
            {
                "start_time": 167.1136364,
                "end_time": 167.3886364,
                "pitch": 43,
                "velocity": 101,
                "duration": 0.275,
                "tempo": 120.0
            },
            {
                "start_time": 167.4204545,
                "end_time": 167.6795455,
                "pitch": 43,
                "velocity": 101,
                "duration": 0.2590909,
                "tempo": 120.0
            },
            {
                "start_time": 167.7295455,
                "end_time": 167.9977273,
                "pitch": 43,
                "velocity": 101,
                "duration": 0.2681818,
                "tempo": 120.0
            },
            {
                "start_time": 168.0477273,
                "end_time": 168.3068182,
                "pitch": 43,
                "velocity": 101,
                "duration": 0.2590909,
                "tempo": 120.0
            },
            {
                "start_time": 168.3386364,
                "end_time": 168.6136364,
                "pitch": 43,
                "velocity": 101,
                "duration": 0.275,
                "tempo": 120.0
            },
            {
                "start_time": 168.6477273,
                "end_time": 168.9318182,
                "pitch": 42,
                "velocity": 101,
                "duration": 0.2840909,
                "tempo": 120.0
            },
            {
                "start_time": 168.9818182,
                "end_time": 169.275,
                "pitch": 42,
                "velocity": 101,
                "duration": 0.2931818,
                "tempo": 120.0
            },
            {
                "start_time": 169.3090909,
                "end_time": 169.5931818,
                "pitch": 42,
                "velocity": 101,
                "duration": 0.2840909,
                "tempo": 120.0
            },
            {
                "start_time": 169.6454545,
                "end_time": 169.9386364,
                "pitch": 42,
                "velocity": 101,
                "duration": 0.2931818,
                "tempo": 120.0
            },
            {
                "start_time": 169.9727273,
                "end_time": 170.2568182,
                "pitch": 42,
                "velocity": 101,
                "duration": 0.2840909,
                "tempo": 120.0
            },
            {
                "start_time": 170.3090909,
                "end_time": 170.6022727,
                "pitch": 42,
                "velocity": 101,
                "duration": 0.2931818,
                "tempo": 120.0
            },
            {
                "start_time": 170.6363636,
                "end_time": 170.9363636,
                "pitch": 41,
                "velocity": 101,
                "duration": 0.3,
                "tempo": 120.0
            },
            {
                "start_time": 170.9704545,
                "end_time": 171.2818182,
                "pitch": 41,
                "velocity": 101,
                "duration": 0.3113636,
                "tempo": 120.0
            },
            {
                "start_time": 171.3340909,
                "end_time": 171.6454545,
                "pitch": 41,
                "velocity": 101,
                "duration": 0.3113636,
                "tempo": 120.0
            },
            {
                "start_time": 171.7,
                "end_time": 172.0204545,
                "pitch": 41,
                "velocity": 101,
                "duration": 0.3204545,
                "tempo": 120.0
            },
            {
                "start_time": 172.0568182,
                "end_time": 172.3681818,
                "pitch": 41,
                "velocity": 101,
                "duration": 0.3113636,
                "tempo": 120.0
            },
            {
                "start_time": 172.4204545,
                "end_time": 172.7295455,
                "pitch": 41,
                "velocity": 101,
                "duration": 0.3090909,
                "tempo": 120.0
            },
            {
                "start_time": 172.7863636,
                "end_time": 175.8,
                "pitch": 45,
                "velocity": 101,
                "duration": 3.0136364,
                "tempo": 120.0
            },
            {
                "start_time": 177.95,
                "end_time": 179.4204545,
                "pitch": 38,
                "velocity": 101,
                "duration": 1.4704545,
                "tempo": 120.0
            }
        ],
        "Violin": [
            {
                "start_time": 0.0181818,
                "end_time": 6.4272727,
                "pitch": 57,
                "velocity": 64,
                "duration": 6.4090909,
                "tempo": 120.0
            },
            {
                "start_time": 6.525,
                "end_time": 13.6022727,
                "pitch": 55,
                "velocity": 64,
                "duration": 7.0772727,
                "tempo": 120.0
            },
            {
                "start_time": 13.6681818,
                "end_time": 20.7568182,
                "pitch": 57,
                "velocity": 64,
                "duration": 7.0886364,
                "tempo": 120.0
            },
            {
                "start_time": 20.8568182,
                "end_time": 27.9204545,
                "pitch": 56,
                "velocity": 64,
                "duration": 7.0636364,
                "tempo": 120.0
            },
            {
                "start_time": 27.9886364,
                "end_time": 35.0522727,
                "pitch": 57,
                "velocity": 64,
                "duration": 7.0636364,
                "tempo": 120.0
            },
            {
                "start_time": 35.1181818,
                "end_time": 42.2068182,
                "pitch": 56,
                "velocity": 64,
                "duration": 7.0886364,
                "tempo": 120.0
            },
            {
                "start_time": 42.3068182,
                "end_time": 49.3818182,
                "pitch": 57,
                "velocity": 64,
                "duration": 7.075,
                "tempo": 120.0
            },
            {
                "start_time": 49.45,
                "end_time": 52.975,
                "pitch": 57,
                "velocity": 64,
                "duration": 3.525,
                "tempo": 120.0
            },
            {
                "start_time": 53.0431818,
                "end_time": 56.5363636,
                "pitch": 56,
                "velocity": 64,
                "duration": 3.4931818,
                "tempo": 120.0
            },
            {
                "start_time": 56.6363636,
                "end_time": 61.6681818,
                "pitch": 52,
                "velocity": 64,
                "duration": 5.0318182,
                "tempo": 120.0
            },
            {
                "start_time": 61.7022727,
                "end_time": 65.2204545,
                "pitch": 52,
                "velocity": 64,
                "duration": 3.5181818,
                "tempo": 120.0
            },
            {
                "start_time": 65.2545455,
                "end_time": 68.7704545,
                "pitch": 48,
                "velocity": 64,
                "duration": 3.5159091,
                "tempo": 120.0
            },
            {
                "start_time": 68.8204545,
                "end_time": 70.5704545,
                "pitch": 52,
                "velocity": 64,
                "duration": 1.75,
                "tempo": 120.0
            },
            {
                "start_time": 70.6204545,
                "end_time": 72.3590909,
                "pitch": 49,
                "velocity": 64,
                "duration": 1.7386364,
                "tempo": 120.0
            },
            {
                "start_time": 72.3931818,
                "end_time": 75.9113636,
                "pitch": 50,
                "velocity": 64,
                "duration": 3.5181818,
                "tempo": 120.0
            },
            {
                "start_time": 75.9613636,
                "end_time": 79.4863636,
                "pitch": 52,
                "velocity": 64,
                "duration": 3.525,
                "tempo": 120.0
            },
            {
                "start_time": 79.5181818,
                "end_time": 81.2590909,
                "pitch": 52,
                "velocity": 64,
                "duration": 1.7409091,
                "tempo": 120.0
            },
            {
                "start_time": 81.3068182,
                "end_time": 83.0454545,
                "pitch": 50,
                "velocity": 64,
                "duration": 1.7386364,
                "tempo": 120.0
            },
            {
                "start_time": 83.0795455,
                "end_time": 86.6159091,
                "pitch": 52,
                "velocity": 64,
                "duration": 3.5363636,
                "tempo": 120.0
            },
            {
                "start_time": 177.9522727,
                "end_time": 178.4159091,
                "pitch": 53,
                "velocity": 101,
                "duration": 0.4636364,
                "tempo": 120.0
            }
        ],
        "Flute": [
            {
                "start_time": 86.65,
                "end_time": 88.3886364,
                "pitch": 62,
                "velocity": 80,
                "duration": 1.7386364,
                "tempo": 120.0
            },
            {
                "start_time": 88.4363636,
                "end_time": 90.1772727,
                "pitch": 67,
                "velocity": 80,
                "duration": 1.7409091,
                "tempo": 120.0
            },
            {
                "start_time": 90.2090909,
                "end_time": 91.9568182,
                "pitch": 60,
                "velocity": 80,
                "duration": 1.7477273,
                "tempo": 120.0
            },
            {
                "start_time": 91.9886364,
                "end_time": 93.7272727,
                "pitch": 57,
                "velocity": 80,
                "duration": 1.7386364,
                "tempo": 120.0
            },
            {
                "start_time": 93.775,
                "end_time": 95.5136364,
                "pitch": 62,
                "velocity": 80,
                "duration": 1.7386364,
                "tempo": 120.0
            },
            {
                "start_time": 95.5477273,
                "end_time": 97.3090909,
                "pitch": 67,
                "velocity": 80,
                "duration": 1.7613636,
                "tempo": 120.0
            },
            {
                "start_time": 97.3431818,
                "end_time": 99.0659091,
                "pitch": 60,
                "velocity": 80,
                "duration": 1.7227273,
                "tempo": 120.0
            },
            {
                "start_time": 99.1136364,
                "end_time": 100.8522727,
                "pitch": 57,
                "velocity": 80,
                "duration": 1.7386364,
                "tempo": 120.0
            },
            {
                "start_time": 100.8863636,
                "end_time": 102.65,
                "pitch": 62,
                "velocity": 80,
                "duration": 1.7636364,
                "tempo": 120.0
            },
            {
                "start_time": 102.6840909,
                "end_time": 104.4318182,
                "pitch": 67,
                "velocity": 80,
                "duration": 1.7477273,
                "tempo": 120.0
            },
            {
                "start_time": 104.4659091,
                "end_time": 106.2045455,
                "pitch": 60,
                "velocity": 80,
                "duration": 1.7386364,
                "tempo": 120.0
            },
            {
                "start_time": 106.2522727,
                "end_time": 107.9886364,
                "pitch": 57,
                "velocity": 80,
                "duration": 1.7363636,
                "tempo": 120.0
            },
            {
                "start_time": 108.0227273,
                "end_time": 109.7795455,
                "pitch": 62,
                "velocity": 80,
                "duration": 1.7568182,
                "tempo": 120.0
            },
            {
                "start_time": 109.8136364,
                "end_time": 111.5431818,
                "pitch": 59,
                "velocity": 80,
                "duration": 1.7295455,
                "tempo": 120.0
            },
            {
                "start_time": 111.5931818,
                "end_time": 113.3227273,
                "pitch": 64,
                "velocity": 80,
                "duration": 1.7295455,
                "tempo": 120.0
            },
            {
                "start_time": 113.3568182,
                "end_time": 115.1204545,
                "pitch": 64,
                "velocity": 80,
                "duration": 1.7636364,
                "tempo": 120.0
            },
            {
                "start_time": 115.1545455,
                "end_time": 116.8840909,
                "pitch": 62,
                "velocity": 80,
                "duration": 1.7295455,
                "tempo": 120.0
            },
            {
                "start_time": 116.9340909,
                "end_time": 118.6727273,
                "pitch": 67,
                "velocity": 80,
                "duration": 1.7386364,
                "tempo": 120.0
            },
            {
                "start_time": 118.7045455,
                "end_time": 120.4613636,
                "pitch": 60,
                "velocity": 80,
                "duration": 1.7568182,
                "tempo": 120.0
            },
            {
                "start_time": 120.4954545,
                "end_time": 122.2431818,
                "pitch": 57,
                "velocity": 80,
                "duration": 1.7477273,
                "tempo": 120.0
            },
            {
                "start_time": 122.275,
                "end_time": 124.0159091,
                "pitch": 62,
                "velocity": 80,
                "duration": 1.7409091,
                "tempo": 120.0
            },
            {
                "start_time": 124.0636364,
                "end_time": 125.8022727,
                "pitch": 67,
                "velocity": 80,
                "duration": 1.7386364,
                "tempo": 120.0
            },
            {
                "start_time": 125.8363636,
                "end_time": 127.5931818,
                "pitch": 60,
                "velocity": 80,
                "duration": 1.7568182,
                "tempo": 120.0
            },
            {
                "start_time": 127.6272727,
                "end_time": 129.3568182,
                "pitch": 57,
                "velocity": 80,
                "duration": 1.7295455,
                "tempo": 120.0
            },
            {
                "start_time": 129.4045455,
                "end_time": 131.1454545,
                "pitch": 62,
                "velocity": 80,
                "duration": 1.7409091,
                "tempo": 120.0
            },
            {
                "start_time": 131.1772727,
                "end_time": 132.9318182,
                "pitch": 67,
                "velocity": 80,
                "duration": 1.7545455,
                "tempo": 120.0
            },
            {
                "start_time": 132.9659091,
                "end_time": 134.6954545,
                "pitch": 60,
                "velocity": 80,
                "duration": 1.7295455,
                "tempo": 120.0
            },
            {
                "start_time": 134.7454545,
                "end_time": 136.4863636,
                "pitch": 57,
                "velocity": 80,
                "duration": 1.7409091,
                "tempo": 120.0
            },
            {
                "start_time": 136.5340909,
                "end_time": 138.2727273,
                "pitch": 62,
                "velocity": 80,
                "duration": 1.7386364,
                "tempo": 120.0
            },
            {
                "start_time": 138.3068182,
                "end_time": 140.0522727,
                "pitch": 64,
                "velocity": 80,
                "duration": 1.7454545,
                "tempo": 120.0
            },
            {
                "start_time": 140.0840909,
                "end_time": 141.8227273,
                "pitch": 57,
                "velocity": 80,
                "duration": 1.7386364,
                "tempo": 120.0
            },
            {
                "start_time": 141.8704545,
                "end_time": 143.6090909,
                "pitch": 57,
                "velocity": 80,
                "duration": 1.7386364,
                "tempo": 120.0
            },
            {
                "start_time": 143.6431818,
                "end_time": 145.4045455,
                "pitch": 62,
                "velocity": 80,
                "duration": 1.7613636,
                "tempo": 120.0
            },
            {
                "start_time": 145.4386364,
                "end_time": 147.1590909,
                "pitch": 67,
                "velocity": 80,
                "duration": 1.7204545,
                "tempo": 120.0
            },
            {
                "start_time": 147.2090909,
                "end_time": 148.9568182,
                "pitch": 60,
                "velocity": 80,
                "duration": 1.7477273,
                "tempo": 120.0
            },
            {
                "start_time": 148.9886364,
                "end_time": 150.7409091,
                "pitch": 57,
                "velocity": 80,
                "duration": 1.7522727,
                "tempo": 120.0
            },
            {
                "start_time": 150.775,
                "end_time": 152.5113636,
                "pitch": 62,
                "velocity": 80,
                "duration": 1.7363636,
                "tempo": 120.0
            },
            {
                "start_time": 152.5431818,
                "end_time": 154.2954545,
                "pitch": 62,
                "velocity": 80,
                "duration": 1.7522727,
                "tempo": 120.0
            },
            {
                "start_time": 154.3431818,
                "end_time": 156.075,
                "pitch": 64,
                "velocity": 80,
                "duration": 1.7318182,
                "tempo": 120.0
            },
            {
                "start_time": 156.1090909,
                "end_time": 157.8659091,
                "pitch": 64,
                "velocity": 80,
                "duration": 1.7568182,
                "tempo": 120.0
            },
            {
                "start_time": 157.9,
                "end_time": 159.6318182,
                "pitch": 62,
                "velocity": 80,
                "duration": 1.7318182,
                "tempo": 120.0
            },
            {
                "start_time": 159.6795455,
                "end_time": 161.425,
                "pitch": 62,
                "velocity": 80,
                "duration": 1.7454545,
                "tempo": 120.0
            },
            {
                "start_time": 161.4613636,
                "end_time": 163.2181818,
                "pitch": 64,
                "velocity": 80,
                "duration": 1.7568182,
                "tempo": 120.0
            },
            {
                "start_time": 163.25,
                "end_time": 164.9840909,
                "pitch": 64,
                "velocity": 80,
                "duration": 1.7340909,
                "tempo": 120.0
            },
            {
                "start_time": 165.0340909,
                "end_time": 166.775,
                "pitch": 69,
                "velocity": 80,
                "duration": 1.7409091,
                "tempo": 120.0
            },
            {
                "start_time": 166.8068182,
                "end_time": 168.6159091,
                "pitch": 69,
                "velocity": 80,
                "duration": 1.8090909,
                "tempo": 120.0
            },
            {
                "start_time": 168.6477273,
                "end_time": 170.6022727,
                "pitch": 69,
                "velocity": 80,
                "duration": 1.9545455,
                "tempo": 120.0
            },
            {
                "start_time": 170.6386364,
                "end_time": 172.7295455,
                "pitch": 69,
                "velocity": 80,
                "duration": 2.0909091,
                "tempo": 120.0
            },
            {
                "start_time": 172.7863636,
                "end_time": 175.8,
                "pitch": 69,
                "velocity": 80,
                "duration": 3.0136364,
                "tempo": 120.0
            }
        ]
    }
}