{
    "mood": "sad",
    "instruments": {
        "Church Organ": [
            {
                "start_time": 24.4409091,
                "end_time": 24.8340909,
                "pitch": 84,
                "velocity": 40,
                "duration": 0.3931818,
                "tempo": 120.0
            },
            {
                "start_time": 24.85,
                "end_time": 24.9386364,
                "pitch": 84,
                "velocity": 40,
                "duration": 0.0886364,
                "tempo": 120.0
            },
            {
                "start_time": 25.0568182,
                "end_time": 25.1454545,
                "pitch": 84,
                "velocity": 40,
                "duration": 0.0886364,
                "tempo": 120.0
            },
            {
                "start_time": 25.2659091,
                "end_time": 25.3545455,
                "pitch": 84,
                "velocity": 40,
                "duration": 0.0886364,
                "tempo": 120.0
            },
            {
                "start_time": 25.4727273,
                "end_time": 25.5613636,
                "pitch": 86,
                "velocity": 40,
                "duration": 0.0886364,
                "tempo": 120.0
            },
            {
                "start_time": 26.0863636,
                "end_time": 26.4863636,
                "pitch": 86,
                "velocity": 40,
                "duration": 0.4,
                "tempo": 120.0
            },
            {
                "start_time": 26.5,
                "end_time": 26.5886364,
                "pitch": 86,
                "velocity": 40,
                "duration": 0.0886364,
                "tempo": 120.0
            },
            {
                "start_time": 26.7045455,
                "end_time": 26.7909091,
                "pitch": 86,
                "velocity": 40,
                "duration": 0.0863636,
                "tempo": 120.0
            },
            {
                "start_time": 26.9090909,
                "end_time": 27.0,
                "pitch": 86,
                "velocity": 40,
                "duration": 0.0909091,
                "tempo": 120.0
            },
            {
                "start_time": 27.1181818,
                "end_time": 27.2068182,
                "pitch": 89,
                "velocity": 40,
                "duration": 0.0886364,
                "tempo": 120.0
            },
            {
                "start_time": 27.7386364,
                "end_time": 28.1340909,
                "pitch": 89,
                "velocity": 40,
                "duration": 0.3954545,
                "tempo": 120.0
            },
            {
                "start_time": 28.1477273,
                "end_time": 28.2363636,
                "pitch": 89,
                "velocity": 40,
                "duration": 0.0886364,
                "tempo": 120.0
            },
            {
                "start_time": 28.3568182,
                "end_time": 28.4454545,
                "pitch": 89,
                "velocity": 40,
                "duration": 0.0886364,
                "tempo": 120.0
            },
            {
                "start_time": 28.5636364,
                "end_time": 28.6545455,
                "pitch": 89,
                "velocity": 40,
                "duration": 0.0909091,
                "tempo": 120.0
            },
            {
                "start_time": 28.7727273,
                "end_time": 29.9954545,
                "pitch": 88,
                "velocity": 40,
                "duration": 1.2227273,
                "tempo": 120.0
            },
            {
                "start_time": 30.0113636,
                "end_time": 30.4113636,
                "pitch": 86,
                "velocity": 40,
                "duration": 0.4,
                "tempo": 120.0
            },
            {
                "start_time": 30.4272727,
                "end_time": 30.5,
                "pitch": 84,
                "velocity": 40,
                "duration": 0.0727273,
                "tempo": 120.0
            },
            {
                "start_time": 30.9522727,
                "end_time": 31.3068182,
                "pitch": 84,
                "velocity": 40,
                "duration": 0.3545455,
                "tempo": 120.0
            },
            {
                "start_time": 31.3227273,
                "end_time": 31.4,
                "pitch": 84,
                "velocity": 40,
                "duration": 0.0772727,
                "tempo": 120.0
            },
            {
                "start_time": 31.5045455,
                "end_time": 31.5772727,
                "pitch": 84,
                "velocity": 40,
                "duration": 0.0727273,
                "tempo": 120.0
            },
            {
                "start_time": 31.6818182,
                "end_time": 31.7568182,
                "pitch": 84,
                "velocity": 40,
                "duration": 0.075,
                "tempo": 120.0
            },
            {
                "start_time": 31.8568182,
                "end_time": 31.9272727,
                "pitch": 86,
                "velocity": 40,
                "duration": 0.0704545,
                "tempo": 120.0
            },
            {
                "start_time": 32.3772727,
                "end_time": 32.7227273,
                "pitch": 86,
                "velocity": 40,
                "duration": 0.3454545,
                "tempo": 120.0
            },
            {
                "start_time": 32.7386364,
                "end_time": 32.8181818,
                "pitch": 86,
                "velocity": 40,
                "duration": 0.0795455,
                "tempo": 120.0
            },
            {
                "start_time": 32.9272727,
                "end_time": 33.0068182,
                "pitch": 86,
                "velocity": 40,
                "duration": 0.0795455,
                "tempo": 120.0
            },
            {
                "start_time": 33.1159091,
                "end_time": 33.1954545,
                "pitch": 86,
                "velocity": 40,
                "duration": 0.0795455,
                "tempo": 120.0
            },
            {
                "start_time": 33.3045455,
                "end_time": 33.3840909,
                "pitch": 89,
                "velocity": 40,
                "duration": 0.0795455,
                "tempo": 120.0
            },
            {
                "start_time": 33.8840909,
                "end_time": 34.2454545,
                "pitch": 89,
                "velocity": 40,
                "duration": 0.3613636,
                "tempo": 120.0
            },
            {
                "start_time": 34.2590909,
                "end_time": 34.3363636,
                "pitch": 89,
                "velocity": 40,
                "duration": 0.0772727,
                "tempo": 120.0
            },
            {
                "start_time": 34.4409091,
                "end_time": 34.5159091,
                "pitch": 89,
                "velocity": 40,
                "duration": 0.075,
                "tempo": 120.0
            },
            {
                "start_time": 34.6272727,
                "end_time": 34.7045455,
                "pitch": 89,
                "velocity": 40,
                "duration": 0.0772727,
                "tempo": 120.0
            },
            {
                "start_time": 34.8159091,
                "end_time": 35.9363636,
                "pitch": 88,
                "velocity": 40,
                "duration": 1.1204545,
                "tempo": 120.0
            },
            {
                "start_time": 35.9522727,
                "end_time": 36.3340909,
                "pitch": 86,
                "velocity": 40,
                "duration": 0.3818182,
                "tempo": 120.0
            },
            {
                "start_time": 36.3522727,
                "end_time": 39.5590909,
                "pitch": 72,
                "velocity": 40,
                "duration": 3.2068182,
                "tempo": 120.0
            }
        ],
        "Oboe": [
            {
                "start_time": 6.4090909,
                "end_time": 6.5272727,
                "pitch": 64,
                "velocity": 40,
                "duration": 0.1181818,
                "tempo": 120.0
            },
            {
                "start_time": 6.5431818,
                "end_time": 6.6613636,
                "pitch": 64,
                "velocity": 40,
                "duration": 0.1181818,
                "tempo": 120.0
            },
            {
                "start_time": 6.6795455,
                "end_time": 6.7977273,
                "pitch": 64,
                "velocity": 40,
                "duration": 0.1181818,
                "tempo": 120.0
            },
            {
                "start_time": 6.8159091,
                "end_time": 6.9340909,
                "pitch": 64,
                "velocity": 40,
                "duration": 0.1181818,
                "tempo": 120.0
            },
            {
                "start_time": 6.9522727,
                "end_time": 7.0704545,
                "pitch": 65,
                "velocity": 40,
                "duration": 0.1181818,
                "tempo": 120.0
            },
            {
                "start_time": 7.0863636,
                "end_time": 7.2045455,
                "pitch": 64,
                "velocity": 40,
                "duration": 0.1181818,
                "tempo": 120.0
            },
            {
                "start_time": 7.2204545,
                "end_time": 7.3386364,
                "pitch": 64,
                "velocity": 40,
                "duration": 0.1181818,
                "tempo": 120.0
            },
            {
                "start_time": 7.3545455,
                "end_time": 7.4704545,
                "pitch": 64,
                "velocity": 40,
                "duration": 0.1159091,
                "tempo": 120.0
            },
            {
                "start_time": 7.4886364,
                "end_time": 7.6045455,
                "pitch": 69,
                "velocity": 40,
                "duration": 0.1159091,
                "tempo": 120.0
            },
            {
                "start_time": 7.6204545,
                "end_time": 7.7409091,
                "pitch": 64,
                "velocity": 40,
                "duration": 0.1204545,
                "tempo": 120.0
            },
            {
                "start_time": 7.7568182,
                "end_time": 7.8772727,
                "pitch": 64,
                "velocity": 40,
                "duration": 0.1204545,
                "tempo": 120.0
            },
            {
                "start_time": 7.8931818,
                "end_time": 8.0136364,
                "pitch": 64,
                "velocity": 40,
                "duration": 0.1204545,
                "tempo": 120.0
            },
            {
                "start_time": 8.0295455,
                "end_time": 8.1477273,
                "pitch": 72,
                "velocity": 40,
                "duration": 0.1181818,
                "tempo": 120.0
            },
            {
                "start_time": 8.1659091,
                "end_time": 8.2818182,
                "pitch": 64,
                "velocity": 40,
                "duration": 0.1159091,
                "tempo": 120.0
            },
            {
                "start_time": 8.3,
                "end_time": 8.4159091,
                "pitch": 64,
                "velocity": 40,
                "duration": 0.1159091,
                "tempo": 120.0
            },
            {
                "start_time": 8.4318182,
                "end_time": 8.55,
                "pitch": 64,
                "velocity": 40,
                "duration": 0.1181818,
                "tempo": 120.0
            },
            {
                "start_time": 8.5659091,
                "end_time": 8.6840909,
                "pitch": 64,
                "velocity": 40,
                "duration": 0.1181818,
                "tempo": 120.0
            },
            {
                "start_time": 8.7,
                "end_time": 8.8181818,
                "pitch": 64,
                "velocity": 40,
                "duration": 0.1181818,
                "tempo": 120.0
            },
            {
                "start_time": 8.8363636,
                "end_time": 8.9545455,
                "pitch": 64,
                "velocity": 40,
                "duration": 0.1181818,
                "tempo": 120.0
            },
            {
                "start_time": 8.9727273,
                "end_time": 9.0909091,
                "pitch": 64,
                "velocity": 40,
                "duration": 0.1181818,
                "tempo": 120.0
            },
            {
                "start_time": 9.1068182,
                "end_time": 9.2272727,
                "pitch": 65,
                "velocity": 40,
                "duration": 0.1204545,
                "tempo": 120.0
            },
            {
                "start_time": 9.2431818,
                "end_time": 9.3590909,
                "pitch": 64,
                "velocity": 40,
                "duration": 0.1159091,
                "tempo": 120.0
            },
            {
                "start_time": 9.375,
                "end_time": 9.4886364,
                "pitch": 64,
                "velocity": 40,
                "duration": 0.1136364,
                "tempo": 120.0
            },
            {
                "start_time": 9.5068182,
                "end_time": 9.6204545,
                "pitch": 64,
                "velocity": 40,
                "duration": 0.1136364,
                "tempo": 120.0
            },
            {
                "start_time": 9.6363636,
                "end_time": 9.7522727,
                "pitch": 69,
                "velocity": 40,
                "duration": 0.1159091,
                "tempo": 120.0
            },
            {
                "start_time": 9.7681818,
                "end_time": 9.8886364,
                "pitch": 64,
                "velocity": 40,
                "duration": 0.1204545,
                "tempo": 120.0
            },
            {
                "start_time": 9.9045455,
                "end_time": 10.0227273,
                "pitch": 64,
                "velocity": 40,
                "duration": 0.1181818,
                "tempo": 120.0
            },
            {
                "start_time": 10.0409091,
                "end_time": 10.1590909,
                "pitch": 64,
                "velocity": 40,
                "duration": 0.1181818,
                "tempo": 120.0
            },
            {
                "start_time": 10.1772727,
                "end_time": 10.2954545,
                "pitch": 72,
                "velocity": 40,
                "duration": 0.1181818,
                "tempo": 120.0
            },
            {
                "start_time": 10.3136364,
                "end_time": 10.4295455,
                "pitch": 64,
                "velocity": 40,
                "duration": 0.1159091,
                "tempo": 120.0
            },
            {
                "start_time": 10.4454545,
                "end_time": 10.5636364,
                "pitch": 64,
                "velocity": 40,
                "duration": 0.1181818,
                "tempo": 120.0
            },
            {
                "start_time": 10.5795455,
                "end_time": 10.6977273,
                "pitch": 64,
                "velocity": 40,
                "duration": 0.1181818,
                "tempo": 120.0
            },
            {
                "start_time": 10.7136364,
                "end_time": 10.8295455,
                "pitch": 64,
                "velocity": 40,
                "duration": 0.1159091,
                "tempo": 120.0
            },
            {
                "start_time": 10.8477273,
                "end_time": 10.9659091,
                "pitch": 64,
                "velocity": 40,
                "duration": 0.1181818,
                "tempo": 120.0
            },
            {
                "start_time": 10.9818182,
                "end_time": 11.1022727,
                "pitch": 64,
                "velocity": 40,
                "duration": 0.1204545,
                "tempo": 120.0
            },
            {
                "start_time": 11.1181818,
                "end_time": 11.2386364,
                "pitch": 64,
                "velocity": 40,
                "duration": 0.1204545,
                "tempo": 120.0
            },
            {
                "start_time": 11.2545455,
                "end_time": 11.375,
                "pitch": 65,
                "velocity": 40,
                "duration": 0.1204545,
                "tempo": 120.0
            },
            {
                "start_time": 11.3909091,
                "end_time": 11.5068182,
                "pitch": 64,
                "velocity": 40,
                "duration": 0.1159091,
                "tempo": 120.0
            },
            {
                "start_time": 11.525,
                "end_time": 11.6409091,
                "pitch": 64,
                "velocity": 40,
                "duration": 0.1159091,
                "tempo": 120.0
            },
            {
                "start_time": 11.6590909,
                "end_time": 11.775,
                "pitch": 64,
                "velocity": 40,
                "duration": 0.1159091,
                "tempo": 120.0
            },
            {
                "start_time": 11.7909091,
                "end_time": 11.9090909,
                "pitch": 69,
                "velocity": 40,
                "duration": 0.1181818,
                "tempo": 120.0
            },
            {
                "start_time": 11.925,
                "end_time": 12.0431818,
                "pitch": 64,
                "velocity": 40,
                "duration": 0.1181818,
                "tempo": 120.0
            },
            {
                "start_time": 12.0613636,
                "end_time": 12.1795455,
                "pitch": 64,
                "velocity": 40,
                "duration": 0.1181818,
                "tempo": 120.0
            },
            {
                "start_time": 12.1977273,
                "end_time": 12.3159091,
                "pitch": 64,
                "velocity": 40,
                "duration": 0.1181818,
                "tempo": 120.0
            },
            {
                "start_time": 12.3340909,
                "end_time": 12.4522727,
                "pitch": 72,
                "velocity": 40,
                "duration": 0.1181818,
                "tempo": 120.0
            },
            {
                "start_time": 12.4681818,
                "end_time": 12.5863636,
                "pitch": 64,
                "velocity": 40,
                "duration": 0.1181818,
                "tempo": 120.0
            },
            {
                "start_time": 12.6022727,
                "end_time": 12.7204545,
                "pitch": 64,
                "velocity": 40,
                "duration": 0.1181818,
                "tempo": 120.0
            },
            {
                "start_time": 12.7363636,
                "end_time": 12.8522727,
                "pitch": 64,
                "velocity": 40,
                "duration": 0.1159091,
                "tempo": 120.0
            },
            {
                "start_time": 12.8704545,
                "end_time": 12.9863636,
                "pitch": 64,
                "velocity": 40,
                "duration": 0.1159091,
                "tempo": 120.0
            },
            {
                "start_time": 13.0045455,
                "end_time": 13.1204545,
                "pitch": 64,
                "velocity": 40,
                "duration": 0.1159091,
                "tempo": 120.0
            },
            {
                "start_time": 13.1363636,
                "end_time": 13.2545455,
                "pitch": 64,
                "velocity": 40,
                "duration": 0.1181818,
                "tempo": 120.0
            },
            {
                "start_time": 13.2704545,
                "end_time": 13.3886364,
                "pitch": 64,
                "velocity": 40,
                "duration": 0.1181818,
                "tempo": 120.0
            },
            {
                "start_time": 13.4045455,
                "end_time": 13.5204545,
                "pitch": 65,
                "velocity": 40,
                "duration": 0.1159091,
                "tempo": 120.0
            },
            {
                "start_time": 13.5386364,
                "end_time": 13.6545455,
                "pitch": 64,
                "velocity": 40,
                "duration": 0.1159091,
                "tempo": 120.0
            },
            {
                "start_time": 13.6704545,
                "end_time": 13.7886364,
                "pitch": 64,
                "velocity": 40,
                "duration": 0.1181818,
                "tempo": 120.0
            },
            {
                "start_time": 13.8045455,
                "end_time": 13.9227273,
                "pitch": 64,
                "velocity": 40,
                "duration": 0.1181818,
                "tempo": 120.0
            },
            {
                "start_time": 13.9386364,
                "end_time": 14.0545455,
                "pitch": 69,
                "velocity": 40,
                "duration": 0.1159091,
                "tempo": 120.0
            },
            {
                "start_time": 14.0727273,
                "end_time": 14.1909091,
                "pitch": 64,
                "velocity": 40,
                "duration": 0.1181818,
                "tempo": 120.0
            },
            {
                "start_time": 14.2090909,
                "end_time": 14.3272727,
                "pitch": 64,
                "velocity": 40,
                "duration": 0.1181818,
                "tempo": 120.0
            },
            {
                "start_time": 14.3454545,
                "end_time": 14.4636364,
                "pitch": 64,
                "velocity": 40,
                "duration": 0.1181818,
                "tempo": 120.0
            },
            {
                "start_time": 14.4795455,
                "end_time": 14.6,
                "pitch": 72,
                "velocity": 40,
                "duration": 0.1204545,
                "tempo": 120.0
            },
            {
                "start_time": 14.6159091,
                "end_time": 14.7340909,
                "pitch": 64,
                "velocity": 40,
                "duration": 0.1181818,
                "tempo": 120.0
            },
            {
                "start_time": 14.75,
                "end_time": 14.8659091,
                "pitch": 64,
                "velocity": 40,
                "duration": 0.1159091,
                "tempo": 120.0
            },
            {
                "start_time": 14.8840909,
                "end_time": 15.0,
                "pitch": 64,
                "velocity": 40,
                "duration": 0.1159091,
                "tempo": 120.0
            },
            {
                "start_time": 15.0181818,
                "end_time": 15.1340909,
                "pitch": 64,
                "velocity": 40,
                "duration": 0.1159091,
                "tempo": 120.0
            },
            {
                "start_time": 15.15,
                "end_time": 15.2681818,
                "pitch": 64,
                "velocity": 40,
                "duration": 0.1181818,
                "tempo": 120.0
            },
            {
                "start_time": 15.2840909,
                "end_time": 15.4022727,
                "pitch": 64,
                "velocity": 40,
                "duration": 0.1181818,
                "tempo": 120.0
            },
            {
                "start_time": 15.4181818,
                "end_time": 15.5340909,
                "pitch": 64,
                "velocity": 40,
                "duration": 0.1159091,
                "tempo": 120.0
            },
            {
                "start_time": 15.5522727,
                "end_time": 15.6681818,
                "pitch": 65,
                "velocity": 40,
                "duration": 0.1159091,
                "tempo": 120.0
            },
            {
                "start_time": 15.6840909,
                "end_time": 15.8022727,
                "pitch": 64,
                "velocity": 40,
                "duration": 0.1181818,
                "tempo": 120.0
            },
            {
                "start_time": 15.8181818,
                "end_time": 15.9363636,
                "pitch": 64,
                "velocity": 40,
                "duration": 0.1181818,
                "tempo": 120.0
            },
            {
                "start_time": 15.9522727,
                "end_time": 16.0681818,
                "pitch": 64,
                "velocity": 40,
                "duration": 0.1159091,
                "tempo": 120.0
            },
            {
                "start_time": 16.0863636,
                "end_time": 16.2022727,
                "pitch": 69,
                "velocity": 40,
                "duration": 0.1159091,
                "tempo": 120.0
            },
            {
                "start_time": 16.2204545,
                "end_time": 16.3386364,
                "pitch": 64,
                "velocity": 40,
                "duration": 0.1181818,
                "tempo": 120.0
            },
            {
                "start_time": 16.3545455,
                "end_time": 16.475,
                "pitch": 64,
                "velocity": 40,
                "duration": 0.1204545,
                "tempo": 120.0
            },
            {
                "start_time": 16.4909091,
                "end_time": 16.6113636,
                "pitch": 64,
                "velocity": 40,
                "duration": 0.1204545,
                "tempo": 120.0
            },
            {
                "start_time": 16.6272727,
                "end_time": 16.7454545,
                "pitch": 72,
                "velocity": 40,
                "duration": 0.1181818,
                "tempo": 120.0
            },
            {
                "start_time": 16.7636364,
                "end_time": 16.8795455,
                "pitch": 64,
                "velocity": 40,
                "duration": 0.1159091,
                "tempo": 120.0
            },
            {
                "start_time": 16.8977273,
                "end_time": 17.0136364,
                "pitch": 64,
                "velocity": 40,
                "duration": 0.1159091,
                "tempo": 120.0
            },
            {
                "start_time": 17.0295455,
                "end_time": 17.1477273,
                "pitch": 64,
                "velocity": 40,
                "duration": 0.1181818,
                "tempo": 120.0
            },
            {
                "start_time": 17.1636364,
                "end_time": 17.2636364,
                "pitch": 66,
                "velocity": 40,
                "duration": 0.1,
                "tempo": 120.0
            },
            {
                "start_time": 17.2818182,
                "end_time": 17.3795455,
                "pitch": 66,
                "velocity": 40,
                "duration": 0.0977273,
                "tempo": 120.0
            },
            {
                "start_time": 17.3954545,
                "end_time": 17.4954545,
                "pitch": 66,
                "velocity": 40,
                "duration": 0.1,
                "tempo": 120.0
            },
            {
                "start_time": 17.5113636,
                "end_time": 17.6090909,
                "pitch": 66,
                "velocity": 40,
                "duration": 0.0977273,
                "tempo": 120.0
            },
            {
                "start_time": 17.625,
                "end_time": 17.725,
                "pitch": 67,
                "velocity": 40,
                "duration": 0.1,
                "tempo": 120.0
            },
            {
                "start_time": 17.7386364,
                "end_time": 17.8272727,
                "pitch": 66,
                "velocity": 40,
                "duration": 0.0886364,
                "tempo": 120.0
            },
            {
                "start_time": 17.8409091,
                "end_time": 17.9272727,
                "pitch": 66,
                "velocity": 40,
                "duration": 0.0863636,
                "tempo": 120.0
            },
            {
                "start_time": 17.9431818,
                "end_time": 18.0295455,
                "pitch": 66,
                "velocity": 40,
                "duration": 0.0863636,
                "tempo": 120.0
            },
            {
                "start_time": 18.0431818,
                "end_time": 18.1318182,
                "pitch": 71,
                "velocity": 40,
                "duration": 0.0886364,
                "tempo": 120.0
            },
            {
                "start_time": 18.1454545,
                "end_time": 18.2363636,
                "pitch": 66,
                "velocity": 40,
                "duration": 0.0909091,
                "tempo": 120.0
            },
            {
                "start_time": 18.2522727,
                "end_time": 18.3431818,
                "pitch": 66,
                "velocity": 40,
                "duration": 0.0909091,
                "tempo": 120.0
            },
            {
                "start_time": 18.3590909,
                "end_time": 18.45,
                "pitch": 66,
                "velocity": 40,
                "duration": 0.0909091,
                "tempo": 120.0
            },
            {
                "start_time": 18.4659091,
                "end_time": 18.5568182,
                "pitch": 74,
                "velocity": 40,
                "duration": 0.0909091,
                "tempo": 120.0
            },
            {
                "start_time": 18.5704545,
                "end_time": 18.6590909,
                "pitch": 66,
                "velocity": 40,
                "duration": 0.0886364,
                "tempo": 120.0
            },
            {
                "start_time": 18.6727273,
                "end_time": 18.7613636,
                "pitch": 66,
                "velocity": 40,
                "duration": 0.0886364,
                "tempo": 120.0
            },
            {
                "start_time": 18.775,
                "end_time": 18.8613636,
                "pitch": 66,
                "velocity": 40,
                "duration": 0.0863636,
                "tempo": 120.0
            },
            {
                "start_time": 18.8772727,
                "end_time": 18.9636364,
                "pitch": 66,
                "velocity": 40,
                "duration": 0.0863636,
                "tempo": 120.0
            },
            {
                "start_time": 18.9772727,
                "end_time": 19.0681818,
                "pitch": 66,
                "velocity": 40,
                "duration": 0.0909091,
                "tempo": 120.0
            },
            {
                "start_time": 19.0818182,
                "end_time": 19.1704545,
                "pitch": 66,
                "velocity": 40,
                "duration": 0.0886364,
                "tempo": 120.0
            },
            {
                "start_time": 19.1863636,
                "end_time": 19.275,
                "pitch": 66,
                "velocity": 40,
                "duration": 0.0886364,
                "tempo": 120.0
            },
            {
                "start_time": 19.2909091,
                "end_time": 19.3795455,
                "pitch": 67,
                "velocity": 40,
                "duration": 0.0886364,
                "tempo": 120.0
            },
            {
                "start_time": 19.3931818,
                "end_time": 19.4818182,
                "pitch": 66,
                "velocity": 40,
                "duration": 0.0886364,
                "tempo": 120.0
            },
            {
                "start_time": 19.4954545,
                "end_time": 19.5818182,
                "pitch": 66,
                "velocity": 40,
                "duration": 0.0863636,
                "tempo": 120.0
            },
            {
                "start_time": 19.5977273,
                "end_time": 19.6840909,
                "pitch": 66,
                "velocity": 40,
                "duration": 0.0863636,
                "tempo": 120.0
            },
            {
                "start_time": 19.6977273,
                "end_time": 19.7863636,
                "pitch": 71,
                "velocity": 40,
                "duration": 0.0886364,
                "tempo": 120.0
            },
            {
                "start_time": 19.8,
                "end_time": 19.8886364,
                "pitch": 66,
                "velocity": 40,
                "duration": 0.0886364,
                "tempo": 120.0
            },
            {
                "start_time": 19.9045455,
                "end_time": 19.9931818,
                "pitch": 66,
                "velocity": 40,
                "duration": 0.0886364,
                "tempo": 120.0
            },
            {
                "start_time": 20.0090909,
                "end_time": 20.0977273,
                "pitch": 66,
                "velocity": 40,
                "duration": 0.0886364,
                "tempo": 120.0
            },
            {
                "start_time": 20.1113636,
                "end_time": 20.2022727,
                "pitch": 74,
                "velocity": 40,
                "duration": 0.0909091,
                "tempo": 120.0
            },
            {
                "start_time": 20.2159091,
                "end_time": 20.3045455,
                "pitch": 66,
                "velocity": 40,
                "duration": 0.0886364,
                "tempo": 120.0
            },
            {
                "start_time": 20.3204545,
                "end_time": 20.4090909,
                "pitch": 66,
                "velocity": 40,
                "duration": 0.0886364,
                "tempo": 120.0
            },
            {
                "start_time": 20.425,
                "end_time": 20.5136364,
                "pitch": 66,
                "velocity": 40,
                "duration": 0.0886364,
                "tempo": 120.0
            },
            {
                "start_time": 20.5295455,
                "end_time": 20.6181818,
                "pitch": 66,
                "velocity": 40,
                "duration": 0.0886364,
                "tempo": 120.0
            },
            {
                "start_time": 20.6318182,
                "end_time": 20.7227273,
                "pitch": 66,
                "velocity": 40,
                "duration": 0.0909091,
                "tempo": 120.0
            },
            {
                "start_time": 20.7363636,
                "end_time": 20.825,
                "pitch": 66,
                "velocity": 40,
                "duration": 0.0886364,
                "tempo": 120.0
            },
            {
                "start_time": 20.8409091,
                "end_time": 20.9295455,
                "pitch": 66,
                "velocity": 40,
                "duration": 0.0886364,
                "tempo": 120.0
            },
            {
                "start_time": 20.9454545,
                "end_time": 21.0340909,
                "pitch": 67,
                "velocity": 40,
                "duration": 0.0886364,
                "tempo": 120.0
            },
            {
                "start_time": 21.0477273,
                "end_time": 21.1363636,
                "pitch": 66,
                "velocity": 40,
                "duration": 0.0886364,
                "tempo": 120.0
            },
            {
                "start_time": 21.15,
                "end_time": 21.2363636,
                "pitch": 66,
                "velocity": 40,
                "duration": 0.0863636,
                "tempo": 120.0
            },
            {
                "start_time": 21.2522727,
                "end_time": 21.3386364,
                "pitch": 66,
                "velocity": 40,
                "duration": 0.0863636,
                "tempo": 120.0
            },
            {
                "start_time": 21.3522727,
                "end_time": 21.4409091,
                "pitch": 71,
                "velocity": 40,
                "duration": 0.0886364,
                "tempo": 120.0
            },
            {
                "start_time": 21.4545455,
                "end_time": 21.5431818,
                "pitch": 66,
                "velocity": 40,
                "duration": 0.0886364,
                "tempo": 120.0
            },
            {
                "start_time": 21.5590909,
                "end_time": 21.6477273,
                "pitch": 66,
                "velocity": 40,
                "duration": 0.0886364,
                "tempo": 120.0
            },
            {
                "start_time": 21.6636364,
                "end_time": 21.7522727,
                "pitch": 66,
                "velocity": 40,
                "duration": 0.0886364,
                "tempo": 120.0
            },
            {
                "start_time": 21.7659091,
                "end_time": 21.8568182,
                "pitch": 74,
                "velocity": 40,
                "duration": 0.0909091,
                "tempo": 120.0
            },
            {
                "start_time": 21.8704545,
                "end_time": 21.9590909,
                "pitch": 66,
                "velocity": 40,
                "duration": 0.0886364,
                "tempo": 120.0
            },
            {
                "start_time": 21.975,
                "end_time": 22.0636364,
                "pitch": 66,
                "velocity": 40,
                "duration": 0.0886364,
                "tempo": 120.0
            },
            {
                "start_time": 22.0795455,
                "end_time": 22.1681818,
                "pitch": 66,
                "velocity": 40,
                "duration": 0.0886364,
                "tempo": 120.0
            },
            {
                "start_time": 22.1840909,
                "end_time": 22.2727273,
                "pitch": 66,
                "velocity": 40,
                "duration": 0.0886364,
                "tempo": 120.0
            },
            {
                "start_time": 22.2863636,
                "end_time": 22.375,
                "pitch": 66,
                "velocity": 40,
                "duration": 0.0886364,
                "tempo": 120.0
            },
            {
                "start_time": 22.3886364,
                "end_time": 22.475,
                "pitch": 66,
                "velocity": 40,
                "duration": 0.0863636,
                "tempo": 120.0
            },
            {
                "start_time": 22.4909091,
                "end_time": 22.5772727,
                "pitch": 66,
                "velocity": 40,
                "duration": 0.0863636,
                "tempo": 120.0
            },
            {
                "start_time": 22.5909091,
                "end_time": 22.6795455,
                "pitch": 67,
                "velocity": 40,
                "duration": 0.0886364,
                "tempo": 120.0
            },
            {
                "start_time": 22.6931818,
                "end_time": 22.7818182,
                "pitch": 66,
                "velocity": 40,
                "duration": 0.0886364,
                "tempo": 120.0
            },
            {
                "start_time": 22.7977273,
                "end_time": 22.8863636,
                "pitch": 66,
                "velocity": 40,
                "duration": 0.0886364,
                "tempo": 120.0
            },
            {
                "start_time": 22.9022727,
                "end_time": 22.9909091,
                "pitch": 66,
                "velocity": 40,
                "duration": 0.0886364,
                "tempo": 120.0
            },
            {
                "start_time": 23.0045455,
                "end_time": 23.0954545,
                "pitch": 71,
                "velocity": 40,
                "duration": 0.0909091,
                "tempo": 120.0
            },
            {
                "start_time": 23.1090909,
                "end_time": 23.1977273,
                "pitch": 66,
                "velocity": 40,
                "duration": 0.0886364,
                "tempo": 120.0
            },
            {
                "start_time": 23.2136364,
                "end_time": 23.3022727,
                "pitch": 66,
                "velocity": 40,
                "duration": 0.0886364,
                "tempo": 120.0
            },
            {
                "start_time": 23.3181818,
                "end_time": 23.4068182,
                "pitch": 66,
                "velocity": 40,
                "duration": 0.0886364,
                "tempo": 120.0
            },
            {
                "start_time": 23.4204545,
                "end_time": 23.5113636,
                "pitch": 74,
                "velocity": 40,
                "duration": 0.0909091,
                "tempo": 120.0
            },
            {
                "start_time": 23.525,
                "end_time": 23.6113636,
                "pitch": 66,
                "velocity": 40,
                "duration": 0.0863636,
                "tempo": 120.0
            },
            {
                "start_time": 23.6272727,
                "end_time": 23.7136364,
                "pitch": 66,
                "velocity": 40,
                "duration": 0.0863636,
                "tempo": 120.0
            },
            {
                "start_time": 23.7295455,
                "end_time": 23.8159091,
                "pitch": 66,
                "velocity": 40,
                "duration": 0.0863636,
                "tempo": 120.0
            },
            {
                "start_time": 23.8295455,
                "end_time": 42.9,
                "pitch": 84,
                "velocity": 40,
                "duration": 19.0704545,
                "tempo": 120.0
            },
            {
                "start_time": 42.9181818,
                "end_time": 43.0363636,
                "pitch": 64,
                "velocity": 40,
                "duration": 0.1181818,
                "tempo": 120.0
            },
            {
                "start_time": 43.0545455,
                "end_time": 43.1727273,
                "pitch": 64,
                "velocity": 40,
                "duration": 0.1181818,
                "tempo": 120.0
            },
            {
                "start_time": 43.1886364,
                "end_time": 43.3090909,
                "pitch": 64,
                "velocity": 40,
                "duration": 0.1204545,
                "tempo": 120.0
            },
            {
                "start_time": 43.325,
                "end_time": 43.4454545,
                "pitch": 65,
                "velocity": 40,
                "duration": 0.1204545,
                "tempo": 120.0
            },
            {
                "start_time": 43.4613636,
                "end_time": 43.5772727,
                "pitch": 64,
                "velocity": 40,
                "duration": 0.1159091,
                "tempo": 120.0
            },
            {
                "start_time": 43.5954545,
                "end_time": 43.7113636,
                "pitch": 64,
                "velocity": 40,
                "duration": 0.1159091,
                "tempo": 120.0
            },
            {
                "start_time": 43.7295455,
                "end_time": 43.8454545,
                "pitch": 64,
                "velocity": 40,
                "duration": 0.1159091,
                "tempo": 120.0
            },
            {
                "start_time": 43.8613636,
                "end_time": 43.9795455,
                "pitch": 69,
                "velocity": 40,
                "duration": 0.1181818,
                "tempo": 120.0
            },
            {
                "start_time": 43.9954545,
                "end_time": 44.1159091,
                "pitch": 64,
                "velocity": 40,
                "duration": 0.1204545,
                "tempo": 120.0
            },
            {
                "start_time": 44.1318182,
                "end_time": 44.25,
                "pitch": 64,
                "velocity": 40,
                "duration": 0.1181818,
                "tempo": 120.0
            },
            {
                "start_time": 44.2681818,
                "end_time": 44.3863636,
                "pitch": 64,
                "velocity": 40,
                "duration": 0.1181818,
                "tempo": 120.0
            },
            {
                "start_time": 44.4045455,
                "end_time": 44.5227273,
                "pitch": 72,
                "velocity": 40,
                "duration": 0.1181818,
                "tempo": 120.0
            },
            {
                "start_time": 44.5386364,
                "end_time": 44.6568182,
                "pitch": 64,
                "velocity": 40,
                "duration": 0.1181818,
                "tempo": 120.0
            },
            {
                "start_time": 44.6727273,
                "end_time": 44.7909091,
                "pitch": 64,
                "velocity": 40,
                "duration": 0.1181818,
                "tempo": 120.0
            },
            {
                "start_time": 44.8068182,
                "end_time": 44.9227273,
                "pitch": 64,
                "velocity": 40,
                "duration": 0.1159091,
                "tempo": 120.0
            },
            {
                "start_time": 44.9409091,
                "end_time": 45.0568182,
                "pitch": 64,
                "velocity": 40,
                "duration": 0.1159091,
                "tempo": 120.0
            },
            {
                "start_time": 45.075,
                "end_time": 45.1931818,
                "pitch": 64,
                "velocity": 40,
                "duration": 0.1181818,
                "tempo": 120.0
            },
            {
                "start_time": 45.2090909,
                "end_time": 45.3295455,
                "pitch": 64,
                "velocity": 40,
                "duration": 0.1204545,
                "tempo": 120.0
            },
            {
                "start_time": 45.3454545,
                "end_time": 45.4659091,
                "pitch": 64,
                "velocity": 40,
                "duration": 0.1204545,
                "tempo": 120.0
            },
            {
                "start_time": 45.4818182,
                "end_time": 45.6,
                "pitch": 65,
                "velocity": 40,
                "duration": 0.1181818,
                "tempo": 120.0
            },
            {
                "start_time": 45.6181818,
                "end_time": 45.7318182,
                "pitch": 64,
                "velocity": 40,
                "duration": 0.1136364,
                "tempo": 120.0
            },
            {
                "start_time": 45.75,
                "end_time": 45.8636364,
                "pitch": 64,
                "velocity": 40,
                "duration": 0.1136364,
                "tempo": 120.0
            },
            {
                "start_time": 45.8795455,
                "end_time": 45.9954545,
                "pitch": 64,
                "velocity": 40,
                "duration": 0.1159091,
                "tempo": 120.0
            },
            {
                "start_time": 46.0113636,
                "end_time": 46.1272727,
                "pitch": 69,
                "velocity": 40,
                "duration": 0.1159091,
                "tempo": 120.0
            },
            {
                "start_time": 46.1431818,
                "end_time": 46.2613636,
                "pitch": 64,
                "velocity": 40,
                "duration": 0.1181818,
                "tempo": 120.0
            },
            {
                "start_time": 46.2795455,
                "end_time": 46.3977273,
                "pitch": 64,
                "velocity": 40,
                "duration": 0.1181818,
                "tempo": 120.0
            },
            {
                "start_time": 46.4159091,
                "end_time": 46.5340909,
                "pitch": 64,
                "velocity": 40,
                "duration": 0.1181818,
                "tempo": 120.0
            },
            {
                "start_time": 46.55,
                "end_time": 46.6704545,
                "pitch": 72,
                "velocity": 40,
                "duration": 0.1204545,
                "tempo": 120.0
            },
            {
                "start_time": 46.6863636,
                "end_time": 46.8045455,
                "pitch": 64,
                "velocity": 40,
                "duration": 0.1181818,
                "tempo": 120.0
            },
            {
                "start_time": 46.8204545,
                "end_time": 46.9363636,
                "pitch": 64,
                "velocity": 40,
                "duration": 0.1159091,
                "tempo": 120.0
            },
            {
                "start_time": 46.9545455,
                "end_time": 47.0704545,
                "pitch": 64,
                "velocity": 40,
                "duration": 0.1159091,
                "tempo": 120.0
            },
            {
                "start_time": 47.0886364,
                "end_time": 47.2045455,
                "pitch": 64,
                "velocity": 40,
                "duration": 0.1159091,
                "tempo": 120.0
            },
            {
                "start_time": 47.2204545,
                "end_time": 47.3409091,
                "pitch": 64,
                "velocity": 40,
                "duration": 0.1204545,
                "tempo": 120.0
            },
            {
                "start_time": 47.3568182,
                "end_time": 47.4772727,
                "pitch": 64,
                "velocity": 40,
                "duration": 0.1204545,
                "tempo": 120.0
            },
            {
                "start_time": 47.4931818,
                "end_time": 47.6113636,
                "pitch": 64,
                "velocity": 40,
                "duration": 0.1181818,
                "tempo": 120.0
            },
            {
                "start_time": 47.6295455,
                "end_time": 47.7477273,
                "pitch": 65,
                "velocity": 40,
                "duration": 0.1181818,
                "tempo": 120.0
            },
            {
                "start_time": 47.7659091,
                "end_time": 47.8818182,
                "pitch": 64,
                "velocity": 40,
                "duration": 0.1159091,
                "tempo": 120.0
            },
            {
                "start_time": 47.8977273,
                "end_time": 48.0159091,
                "pitch": 64,
                "velocity": 40,
                "duration": 0.1181818,
                "tempo": 120.0
            },
            {
                "start_time": 48.0318182,
                "end_time": 48.15,
                "pitch": 64,
                "velocity": 40,
                "duration": 0.1181818,
                "tempo": 120.0
            },
            {
                "start_time": 48.1659091,
                "end_time": 48.2818182,
                "pitch": 69,
                "velocity": 40,
                "duration": 0.1159091,
                "tempo": 120.0
            },
            {
                "start_time": 48.3,
                "end_time": 48.4159091,
                "pitch": 64,
                "velocity": 40,
                "duration": 0.1159091,
                "tempo": 120.0
            },
            {
                "start_time": 48.4340909,
                "end_time": 48.55,
                "pitch": 64,
                "velocity": 40,
                "duration": 0.1159091,
                "tempo": 120.0
            },
            {
                "start_time": 48.5659091,
                "end_time": 48.6840909,
                "pitch": 64,
                "velocity": 40,
                "duration": 0.1181818,
                "tempo": 120.0
            },
            {
                "start_time": 48.7,
                "end_time": 48.8181818,
                "pitch": 72,
                "velocity": 40,
                "duration": 0.1181818,
                "tempo": 120.0
            },
            {
                "start_time": 48.8340909,
                "end_time": 48.9522727,
                "pitch": 64,
                "velocity": 40,
                "duration": 0.1181818,
                "tempo": 120.0
            },
            {
                "start_time": 48.9704545,
                "end_time": 49.0886364,
                "pitch": 64,
                "velocity": 40,
                "duration": 0.1181818,
                "tempo": 120.0
            },
            {
                "start_time": 49.1068182,
                "end_time": 49.225,
                "pitch": 64,
                "velocity": 40,
                "duration": 0.1181818,
                "tempo": 120.0
            },
            {
                "start_time": 49.2409091,
                "end_time": 49.3613636,
                "pitch": 64,
                "velocity": 40,
                "duration": 0.1204545,
                "tempo": 120.0
            },
            {
                "start_time": 49.3772727,
                "end_time": 49.4954545,
                "pitch": 64,
                "velocity": 40,
                "duration": 0.1181818,
                "tempo": 120.0
            },
            {
                "start_time": 49.5113636,
                "end_time": 49.6272727,
                "pitch": 64,
                "velocity": 40,
                "duration": 0.1159091,
                "tempo": 120.0
            },
            {
                "start_time": 49.6454545,
                "end_time": 49.7613636,
                "pitch": 64,
                "velocity": 40,
                "duration": 0.1159091,
                "tempo": 120.0
            },
            {
                "start_time": 49.7795455,
                "end_time": 49.8954545,
                "pitch": 65,
                "velocity": 40,
                "duration": 0.1159091,
                "tempo": 120.0
            },
            {
                "start_time": 49.9113636,
                "end_time": 50.0295455,
                "pitch": 64,
                "velocity": 40,
                "duration": 0.1181818,
                "tempo": 120.0
            },
            {
                "start_time": 50.0454545,
                "end_time": 50.1636364,
                "pitch": 64,
                "velocity": 40,
                "duration": 0.1181818,
                "tempo": 120.0
            },
            {
                "start_time": 50.1795455,
                "end_time": 50.2954545,
                "pitch": 64,
                "velocity": 40,
                "duration": 0.1159091,
                "tempo": 120.0
            },
            {
                "start_time": 50.3136364,
                "end_time": 50.4295455,
                "pitch": 69,
                "velocity": 40,
                "duration": 0.1159091,
                "tempo": 120.0
            },
            {
                "start_time": 50.4477273,
                "end_time": 50.5659091,
                "pitch": 64,
                "velocity": 40,
                "duration": 0.1181818,
                "tempo": 120.0
            },
            {
                "start_time": 50.5818182,
                "end_time": 50.7022727,
                "pitch": 64,
                "velocity": 40,
                "duration": 0.1204545,
                "tempo": 120.0
            },
            {
                "start_time": 50.7181818,
                "end_time": 50.8386364,
                "pitch": 64,
                "velocity": 40,
                "duration": 0.1204545,
                "tempo": 120.0
            },
            {
                "start_time": 50.8545455,
                "end_time": 50.9727273,
                "pitch": 72,
                "velocity": 40,
                "duration": 0.1181818,
                "tempo": 120.0
            },
            {
                "start_time": 50.9909091,
                "end_time": 51.1068182,
                "pitch": 64,
                "velocity": 40,
                "duration": 0.1159091,
                "tempo": 120.0
            },
            {
                "start_time": 51.125,
                "end_time": 51.2409091,
                "pitch": 64,
                "velocity": 40,
                "duration": 0.1159091,
                "tempo": 120.0
            },
            {
                "start_time": 51.2568182,
                "end_time": 51.375,
                "pitch": 64,
                "velocity": 40,
                "duration": 0.1181818,
                "tempo": 120.0
            },
            {
                "start_time": 51.3909091,
                "end_time": 51.5090909,
                "pitch": 64,
                "velocity": 40,
                "duration": 0.1181818,
                "tempo": 120.0
            },
            {
                "start_time": 51.525,
                "end_time": 51.6431818,
                "pitch": 64,
                "velocity": 40,
                "duration": 0.1181818,
                "tempo": 120.0
            },
            {
                "start_time": 51.6613636,
                "end_time": 51.7795455,
                "pitch": 64,
                "velocity": 40,
                "duration": 0.1181818,
                "tempo": 120.0
            },
            {
                "start_time": 51.7977273,
                "end_time": 51.9159091,
                "pitch": 64,
                "velocity": 40,
                "duration": 0.1181818,
                "tempo": 120.0
            },
            {
                "start_time": 51.9318182,
                "end_time": 52.0522727,
                "pitch": 65,
                "velocity": 40,
                "duration": 0.1204545,
                "tempo": 120.0
            },
            {
                "start_time": 52.0681818,
                "end_time": 52.1840909,
                "pitch": 64,
                "velocity": 40,
                "duration": 0.1159091,
                "tempo": 120.0
            },
            {
                "start_time": 52.2,
                "end_time": 52.3136364,
                "pitch": 64,
                "velocity": 40,
                "duration": 0.1136364,
                "tempo": 120.0
            },
            {
                "start_time": 52.3318182,
                "end_time": 52.4454545,
                "pitch": 64,
                "velocity": 40,
                "duration": 0.1136364,
                "tempo": 120.0
            },
            {
                "start_time": 52.4613636,
                "end_time": 52.5772727,
                "pitch": 69,
                "velocity": 40,
                "duration": 0.1159091,
                "tempo": 120.0
            },
            {
                "start_time": 52.5931818,
                "end_time": 52.7136364,
                "pitch": 64,
                "velocity": 40,
                "duration": 0.1204545,
                "tempo": 120.0
            },
            {
                "start_time": 52.7295455,
                "end_time": 52.8477273,
                "pitch": 64,
                "velocity": 40,
                "duration": 0.1181818,
                "tempo": 120.0
            },
            {
                "start_time": 52.8659091,
                "end_time": 52.9840909,
                "pitch": 64,
                "velocity": 40,
                "duration": 0.1181818,
                "tempo": 120.0
            },
            {
                "start_time": 53.0022727,
                "end_time": 53.1204545,
                "pitch": 72,
                "velocity": 40,
                "duration": 0.1181818,
                "tempo": 120.0
            },
            {
                "start_time": 53.1386364,
                "end_time": 53.2545455,
                "pitch": 64,
                "velocity": 40,
                "duration": 0.1159091,
                "tempo": 120.0
            },
            {
                "start_time": 53.2704545,
                "end_time": 53.3886364,
                "pitch": 64,
                "velocity": 40,
                "duration": 0.1181818,
                "tempo": 120.0
            },
            {
                "start_time": 53.4045455,
                "end_time": 53.5227273,
                "pitch": 64,
                "velocity": 40,
                "duration": 0.1181818,
                "tempo": 120.0
            },
            {
                "start_time": 53.5386364,
                "end_time": 53.6545455,
                "pitch": 66,
                "velocity": 40,
                "duration": 0.1159091,
                "tempo": 120.0
            },
            {
                "start_time": 53.6727273,
                "end_time": 53.7909091,
                "pitch": 66,
                "velocity": 40,
                "duration": 0.1181818,
                "tempo": 120.0
            },
            {
                "start_time": 53.8090909,
                "end_time": 53.9272727,
                "pitch": 66,
                "velocity": 40,
                "duration": 0.1181818,
                "tempo": 120.0
            },
            {
                "start_time": 53.9431818,
                "end_time": 54.0636364,
                "pitch": 66,
                "velocity": 40,
                "duration": 0.1204545,
                "tempo": 120.0
            },
            {
                "start_time": 54.0795455,
                "end_time": 54.2,
                "pitch": 67,
                "velocity": 40,
                "duration": 0.1204545,
                "tempo": 120.0
            },
            {
                "start_time": 54.2159091,
                "end_time": 54.3318182,
                "pitch": 66,
                "velocity": 40,
                "duration": 0.1159091,
                "tempo": 120.0
            },
            {
                "start_time": 54.35,
                "end_time": 54.4659091,
                "pitch": 66,
                "velocity": 40,
                "duration": 0.1159091,
                "tempo": 120.0
            },
            {
                "start_time": 54.4840909,
                "end_time": 54.6,
                "pitch": 66,
                "velocity": 40,
                "duration": 0.1159091,
                "tempo": 120.0
            },
            {
                "start_time": 54.6159091,
                "end_time": 54.7340909,
                "pitch": 71,
                "velocity": 40,
                "duration": 0.1181818,
                "tempo": 120.0
            },
            {
                "start_time": 54.75,
                "end_time": 54.8681818,
                "pitch": 66,
                "velocity": 40,
                "duration": 0.1181818,
                "tempo": 120.0
            },
            {
                "start_time": 54.8840909,
                "end_time": 55.0,
                "pitch": 66,
                "velocity": 40,
                "duration": 0.1159091,
                "tempo": 120.0
            },
            {
                "start_time": 55.0181818,
                "end_time": 55.1340909,
                "pitch": 66,
                "velocity": 40,
                "duration": 0.1159091,
                "tempo": 120.0
            },
            {
                "start_time": 55.1522727,
                "end_time": 55.2681818,
                "pitch": 74,
                "velocity": 40,
                "duration": 0.1159091,
                "tempo": 120.0
            },
            {
                "start_time": 55.2840909,
                "end_time": 55.4022727,
                "pitch": 66,
                "velocity": 40,
                "duration": 0.1181818,
                "tempo": 120.0
            },
            {
                "start_time": 55.4181818,
                "end_time": 55.5363636,
                "pitch": 66,
                "velocity": 40,
                "duration": 0.1181818,
                "tempo": 120.0
            },
            {
                "start_time": 55.5522727,
                "end_time": 55.6681818,
                "pitch": 66,
                "velocity": 40,
                "duration": 0.1159091,
                "tempo": 120.0
            },
            {
                "start_time": 55.6863636,
                "end_time": 55.8022727,
                "pitch": 66,
                "velocity": 40,
                "duration": 0.1159091,
                "tempo": 120.0
            },
            {
                "start_time": 55.8181818,
                "end_time": 55.9386364,
                "pitch": 66,
                "velocity": 40,
                "duration": 0.1204545,
                "tempo": 120.0
            },
            {
                "start_time": 55.9545455,
                "end_time": 56.075,
                "pitch": 66,
                "velocity": 40,
                "duration": 0.1204545,
                "tempo": 120.0
            },
            {
                "start_time": 56.0909091,
                "end_time": 56.2090909,
                "pitch": 66,
                "velocity": 40,
                "duration": 0.1181818,
                "tempo": 120.0
            },
            {
                "start_time": 56.2272727,
                "end_time": 56.3454545,
                "pitch": 67,
                "velocity": 40,
                "duration": 0.1181818,
                "tempo": 120.0
            },
            {
                "start_time": 56.3636364,
                "end_time": 56.4818182,
                "pitch": 66,
                "velocity": 40,
                "duration": 0.1181818,
                "tempo": 120.0
            },
            {
                "start_time": 56.5,
                "end_time": 56.6181818,
                "pitch": 66,
                "velocity": 40,
                "duration": 0.1181818,
                "tempo": 120.0
            },
            {
                "start_time": 56.6340909,
                "end_time": 56.7545455,
                "pitch": 66,
                "velocity": 40,
                "duration": 0.1204545,
                "tempo": 120.0
            },
            {
                "start_time": 56.7704545,
                "end_time": 56.8909091,
                "pitch": 71,
                "velocity": 40,
                "duration": 0.1204545,
                "tempo": 120.0
            },
            {
                "start_time": 56.9068182,
                "end_time": 57.025,
                "pitch": 66,
                "velocity": 40,
                "duration": 0.1181818,
                "tempo": 120.0
            },
            {
                "start_time": 57.0409091,
                "end_time": 57.1568182,
                "pitch": 66,
                "velocity": 40,
                "duration": 0.1159091,
                "tempo": 120.0
            },
            {
                "start_time": 57.175,
                "end_time": 57.2909091,
                "pitch": 66,
                "velocity": 40,
                "duration": 0.1159091,
                "tempo": 120.0
            },
            {
                "start_time": 57.3090909,
                "end_time": 57.425,
                "pitch": 74,
                "velocity": 40,
                "duration": 0.1159091,
                "tempo": 120.0
            },
            {
                "start_time": 57.4409091,
                "end_time": 57.5590909,
                "pitch": 66,
                "velocity": 40,
                "duration": 0.1181818,
                "tempo": 120.0
            },
            {
                "start_time": 57.575,
                "end_time": 57.6931818,
                "pitch": 66,
                "velocity": 40,
                "duration": 0.1181818,
                "tempo": 120.0
            },
            {
                "start_time": 57.7090909,
                "end_time": 57.825,
                "pitch": 66,
                "velocity": 40,
                "duration": 0.1159091,
                "tempo": 120.0
            },
            {
                "start_time": 57.8431818,
                "end_time": 57.9590909,
                "pitch": 66,
                "velocity": 40,
                "duration": 0.1159091,
                "tempo": 120.0
            },
            {
                "start_time": 57.975,
                "end_time": 58.0954545,
                "pitch": 66,
                "velocity": 40,
                "duration": 0.1204545,
                "tempo": 120.0
            },
            {
                "start_time": 58.1113636,
                "end_time": 58.2318182,
                "pitch": 66,
                "velocity": 40,
                "duration": 0.1204545,
                "tempo": 120.0
            },
            {
                "start_time": 58.2477273,
                "end_time": 58.3659091,
                "pitch": 66,
                "velocity": 40,
                "duration": 0.1181818,
                "tempo": 120.0
            },
            {
                "start_time": 58.3840909,
                "end_time": 58.5022727,
                "pitch": 67,
                "velocity": 40,
                "duration": 0.1181818,
                "tempo": 120.0
            },
            {
                "start_time": 58.5204545,
                "end_time": 58.6363636,
                "pitch": 66,
                "velocity": 40,
                "duration": 0.1159091,
                "tempo": 120.0
            },
            {
                "start_time": 58.6545455,
                "end_time": 58.7704545,
                "pitch": 66,
                "velocity": 40,
                "duration": 0.1159091,
                "tempo": 120.0
            },
            {
                "start_time": 58.7863636,
                "end_time": 58.9045455,
                "pitch": 66,
                "velocity": 40,
                "duration": 0.1181818,
                "tempo": 120.0
            },
            {
                "start_time": 58.9204545,
                "end_time": 59.0386364,
                "pitch": 71,
                "velocity": 40,
                "duration": 0.1181818,
                "tempo": 120.0
            },
            {
                "start_time": 59.0545455,
                "end_time": 59.1704545,
                "pitch": 66,
                "velocity": 40,
                "duration": 0.1159091,
                "tempo": 120.0
            },
            {
                "start_time": 59.1886364,
                "end_time": 59.3045455,
                "pitch": 66,
                "velocity": 40,
                "duration": 0.1159091,
                "tempo": 120.0
            },
            {
                "start_time": 59.3204545,
                "end_time": 59.4386364,
                "pitch": 66,
                "velocity": 40,
                "duration": 0.1181818,
                "tempo": 120.0
            },
            {
                "start_time": 59.4545455,
                "end_time": 59.5727273,
                "pitch": 74,
                "velocity": 40,
                "duration": 0.1181818,
                "tempo": 120.0
            },
            {
                "start_time": 59.5886364,
                "end_time": 59.7045455,
                "pitch": 66,
                "velocity": 40,
                "duration": 0.1159091,
                "tempo": 120.0
            },
            {
                "start_time": 59.7227273,
                "end_time": 59.8386364,
                "pitch": 66,
                "velocity": 40,
                "duration": 0.1159091,
                "tempo": 120.0
            },
            {
                "start_time": 59.8568182,
                "end_time": 59.9727273,
                "pitch": 66,
                "velocity": 40,
                "duration": 0.1159091,
                "tempo": 120.0
            },
            {
                "start_time": 59.9886364,
                "end_time": 60.1068182,
                "pitch": 66,
                "velocity": 40,
                "duration": 0.1181818,
                "tempo": 120.0
            },
            {
                "start_time": 60.1227273,
                "end_time": 60.2431818,
                "pitch": 66,
                "velocity": 40,
                "duration": 0.1204545,
                "tempo": 120.0
            },
            {
                "start_time": 60.2590909,
                "end_time": 60.3772727,
                "pitch": 66,
                "velocity": 40,
                "duration": 0.1181818,
                "tempo": 120.0
            },
            {
                "start_time": 60.3954545,
                "end_time": 60.5136364,
                "pitch": 66,
                "velocity": 40,
                "duration": 0.1181818,
                "tempo": 120.0
            },
            {
                "start_time": 60.5318182,
                "end_time": 60.65,
                "pitch": 67,
                "velocity": 40,
                "duration": 0.1181818,
                "tempo": 120.0
            },
            {
                "start_time": 60.6659091,
                "end_time": 60.7840909,
                "pitch": 66,
                "velocity": 40,
                "duration": 0.1181818,
                "tempo": 120.0
            },
            {
                "start_time": 60.8,
                "end_time": 60.9181818,
                "pitch": 66,
                "velocity": 40,
                "duration": 0.1181818,
                "tempo": 120.0
            },
            {
                "start_time": 60.9340909,
                "end_time": 61.05,
                "pitch": 66,
                "velocity": 40,
                "duration": 0.1159091,
                "tempo": 120.0
            },
            {
                "start_time": 61.0681818,
                "end_time": 61.1840909,
                "pitch": 71,
                "velocity": 40,
                "duration": 0.1159091,
                "tempo": 120.0
            },
            {
                "start_time": 61.2022727,
                "end_time": 61.3181818,
                "pitch": 66,
                "velocity": 40,
                "duration": 0.1159091,
                "tempo": 120.0
            },
            {
                "start_time": 61.3340909,
                "end_time": 61.4522727,
                "pitch": 66,
                "velocity": 40,
                "duration": 0.1181818,
                "tempo": 120.0
            },
            {
                "start_time": 61.4681818,
                "end_time": 61.5863636,
                "pitch": 66,
                "velocity": 40,
                "duration": 0.1181818,
                "tempo": 120.0
            },
            {
                "start_time": 61.6022727,
                "end_time": 61.7181818,
                "pitch": 74,
                "velocity": 40,
                "duration": 0.1159091,
                "tempo": 120.0
            },
            {
                "start_time": 61.7363636,
                "end_time": 61.8545455,
                "pitch": 66,
                "velocity": 40,
                "duration": 0.1181818,
                "tempo": 120.0
            },
            {
                "start_time": 61.8727273,
                "end_time": 61.9909091,
                "pitch": 66,
                "velocity": 40,
                "duration": 0.1181818,
                "tempo": 120.0
            },
            {
                "start_time": 62.0068182,
                "end_time": 62.1272727,
                "pitch": 66,
                "velocity": 40,
                "duration": 0.1204545,
                "tempo": 120.0
            }
        ],
        "Acoustic Guitar (nylon)": [
            {
                "start_time": 4.2636364,
                "end_time": 4.3136364,
                "pitch": 84,
                "velocity": 40,
                "duration": 0.05,
                "tempo": 120.0
            },
            {
                "start_time": 4.3295455,
                "end_time": 4.3795455,
                "pitch": 92,
                "velocity": 40,
                "duration": 0.05,
                "tempo": 120.0
            },
            {
                "start_time": 4.3954545,
                "end_time": 4.4477273,
                "pitch": 88,
                "velocity": 40,
                "duration": 0.0522727,
                "tempo": 120.0
            },
            {
                "start_time": 4.4636364,
                "end_time": 4.5159091,
                "pitch": 84,
                "velocity": 40,
                "duration": 0.0522727,
                "tempo": 120.0
            },
            {
                "start_time": 4.5318182,
                "end_time": 4.5840909,
                "pitch": 88,
                "velocity": 40,
                "duration": 0.0522727,
                "tempo": 120.0
            },
            {
                "start_time": 4.6,
                "end_time": 4.65,
                "pitch": 84,
                "velocity": 40,
                "duration": 0.05,
                "tempo": 120.0
            },
            {
                "start_time": 4.6681818,
                "end_time": 4.7181818,
                "pitch": 92,
                "velocity": 40,
                "duration": 0.05,
                "tempo": 120.0
            },
            {
                "start_time": 4.7363636,
                "end_time": 4.7863636,
                "pitch": 88,
                "velocity": 40,
                "duration": 0.05,
                "tempo": 120.0
            },
            {
                "start_time": 4.8045455,
                "end_time": 4.9227273,
                "pitch": 84,
                "velocity": 40,
                "duration": 0.1181818,
                "tempo": 120.0
            },
            {
                "start_time": 4.9409091,
                "end_time": 5.0568182,
                "pitch": 92,
                "velocity": 40,
                "duration": 0.1159091,
                "tempo": 120.0
            },
            {
                "start_time": 5.0727273,
                "end_time": 5.1909091,
                "pitch": 88,
                "velocity": 40,
                "duration": 0.1181818,
                "tempo": 120.0
            },
            {
                "start_time": 5.2068182,
                "end_time": 5.325,
                "pitch": 84,
                "velocity": 40,
                "duration": 0.1181818,
                "tempo": 120.0
            },
            {
                "start_time": 5.3409091,
                "end_time": 5.4568182,
                "pitch": 88,
                "velocity": 40,
                "duration": 0.1159091,
                "tempo": 120.0
            },
            {
                "start_time": 5.475,
                "end_time": 5.5909091,
                "pitch": 92,
                "velocity": 40,
                "duration": 0.1159091,
                "tempo": 120.0
            },
            {
                "start_time": 5.6090909,
                "end_time": 5.725,
                "pitch": 88,
                "velocity": 40,
                "duration": 0.1159091,
                "tempo": 120.0
            },
            {
                "start_time": 5.7409091,
                "end_time": 5.8590909,
                "pitch": 84,
                "velocity": 40,
                "duration": 0.1181818,
                "tempo": 120.0
            },
            {
                "start_time": 5.875,
                "end_time": 5.9931818,
                "pitch": 84,
                "velocity": 40,
                "duration": 0.1181818,
                "tempo": 120.0
            },
            {
                "start_time": 6.0090909,
                "end_time": 6.125,
                "pitch": 92,
                "velocity": 40,
                "duration": 0.1159091,
                "tempo": 120.0
            },
            {
                "start_time": 6.1431818,
                "end_time": 6.2590909,
                "pitch": 88,
                "velocity": 40,
                "duration": 0.1159091,
                "tempo": 120.0
            },
            {
                "start_time": 6.275,
                "end_time": 6.3931818,
                "pitch": 84,
                "velocity": 40,
                "duration": 0.1181818,
                "tempo": 120.0
            },
            {
                "start_time": 8.5659091,
                "end_time": 40.6863636,
                "pitch": 57,
                "velocity": 40,
                "duration": 32.1204545,
                "tempo": 120.0
            },
            {
                "start_time": 40.7045455,
                "end_time": 40.7545455,
                "pitch": 92,
                "velocity": 40,
                "duration": 0.05,
                "tempo": 120.0
            },
            {
                "start_time": 40.7704545,
                "end_time": 40.8204545,
                "pitch": 88,
                "velocity": 40,
                "duration": 0.05,
                "tempo": 120.0
            },
            {
                "start_time": 40.8386364,
                "end_time": 40.8886364,
                "pitch": 84,
                "velocity": 40,
                "duration": 0.05,
                "tempo": 120.0
            },
            {
                "start_time": 40.9068182,
                "end_time": 40.9568182,
                "pitch": 88,
                "velocity": 40,
                "duration": 0.05,
                "tempo": 120.0
            },
            {
                "start_time": 40.975,
                "end_time": 41.025,
                "pitch": 84,
                "velocity": 40,
                "duration": 0.05,
                "tempo": 120.0
            },
            {
                "start_time": 41.0431818,
                "end_time": 41.0931818,
                "pitch": 92,
                "velocity": 40,
                "duration": 0.05,
                "tempo": 120.0
            },
            {
                "start_time": 41.1113636,
                "end_time": 41.1613636,
                "pitch": 88,
                "velocity": 40,
                "duration": 0.05,
                "tempo": 120.0
            },
            {
                "start_time": 41.1772727,
                "end_time": 41.2977273,
                "pitch": 84,
                "velocity": 40,
                "duration": 0.1204545,
                "tempo": 120.0
            },
            {
                "start_time": 41.3136364,
                "end_time": 41.4318182,
                "pitch": 92,
                "velocity": 40,
                "duration": 0.1181818,
                "tempo": 120.0
            },
            {
                "start_time": 41.4477273,
                "end_time": 41.5659091,
                "pitch": 88,
                "velocity": 40,
                "duration": 0.1181818,
                "tempo": 120.0
            },
            {
                "start_time": 41.5818182,
                "end_time": 41.6977273,
                "pitch": 84,
                "velocity": 40,
                "duration": 0.1159091,
                "tempo": 120.0
            },
            {
                "start_time": 41.7159091,
                "end_time": 41.8318182,
                "pitch": 88,
                "velocity": 40,
                "duration": 0.1159091,
                "tempo": 120.0
            },
            {
                "start_time": 41.8477273,
                "end_time": 41.9659091,
                "pitch": 92,
                "velocity": 40,
                "duration": 0.1181818,
                "tempo": 120.0
            },
            {
                "start_time": 41.9818182,
                "end_time": 42.1,
                "pitch": 88,
                "velocity": 40,
                "duration": 0.1181818,
                "tempo": 120.0
            },
            {
                "start_time": 42.1159091,
                "end_time": 42.2318182,
                "pitch": 84,
                "velocity": 40,
                "duration": 0.1159091,
                "tempo": 120.0
            },
            {
                "start_time": 42.25,
                "end_time": 42.3659091,
                "pitch": 84,
                "velocity": 40,
                "duration": 0.1159091,
                "tempo": 120.0
            },
            {
                "start_time": 42.3840909,
                "end_time": 42.5,
                "pitch": 92,
                "velocity": 40,
                "duration": 0.1159091,
                "tempo": 120.0
            },
            {
                "start_time": 42.5159091,
                "end_time": 42.6340909,
                "pitch": 88,
                "velocity": 40,
                "duration": 0.1181818,
                "tempo": 120.0
            },
            {
                "start_time": 42.65,
                "end_time": 42.7681818,
                "pitch": 84,
                "velocity": 40,
                "duration": 0.1181818,
                "tempo": 120.0
            }
        ],
        "Flute": [
            {
                "start_time": 25.4727273,
                "end_time": 27.1022727,
                "pitch": 59,
                "velocity": 40,
                "duration": 1.6295455,
                "tempo": 120.0
            },
            {
                "start_time": 27.1181818,
                "end_time": 28.7568182,
                "pitch": 62,
                "velocity": 40,
                "duration": 1.6386364,
                "tempo": 120.0
            },
            {
                "start_time": 28.7727273,
                "end_time": 29.9954545,
                "pitch": 64,
                "velocity": 40,
                "duration": 1.2227273,
                "tempo": 120.0
            },
            {
                "start_time": 30.0113636,
                "end_time": 30.4113636,
                "pitch": 68,
                "velocity": 40,
                "duration": 0.4,
                "tempo": 120.0
            },
            {
                "start_time": 30.4272727,
                "end_time": 31.8431818,
                "pitch": 57,
                "velocity": 40,
                "duration": 1.4159091,
                "tempo": 120.0
            },
            {
                "start_time": 31.8568182,
                "end_time": 33.2886364,
                "pitch": 59,
                "velocity": 40,
                "duration": 1.4318182,
                "tempo": 120.0
            },
            {
                "start_time": 33.3045455,
                "end_time": 34.8,
                "pitch": 62,
                "velocity": 40,
                "duration": 1.4954545,
                "tempo": 120.0
            },
            {
                "start_time": 34.8159091,
                "end_time": 35.9363636,
                "pitch": 64,
                "velocity": 40,
                "duration": 1.1204545,
                "tempo": 120.0
            },
            {
                "start_time": 35.9522727,
                "end_time": 36.3340909,
                "pitch": 68,
                "velocity": 40,
                "duration": 0.3818182,
                "tempo": 120.0
            },
            {
                "start_time": 40.6363636,
                "end_time": 53.5386364,
                "pitch": 84,
                "velocity": 40,
                "duration": 12.9022727,
                "tempo": 120.0
            },
            {
                "start_time": 53.5386364,
                "end_time": 62.1431818,
                "pitch": 59,
                "velocity": 40,
                "duration": 8.6045455,
                "tempo": 120.0
            }
        ],
        "Acoustic Grand Piano": [
            {
                "start_time": 0.0,
                "end_time": 0.0886364,
                "pitch": 40,
                "velocity": 40,
                "duration": 0.0886364,
                "tempo": 120.0
            },
            {
                "start_time": 0.1022727,
                "end_time": 0.2181818,
                "pitch": 45,
                "velocity": 40,
                "duration": 0.1159091,
                "tempo": 120.0
            },
            {
                "start_time": 0.2363636,
                "end_time": 0.3522727,
                "pitch": 40,
                "velocity": 40,
                "duration": 0.1159091,
                "tempo": 120.0
            },
            {
                "start_time": 0.3681818,
                "end_time": 0.4863636,
                "pitch": 41,
                "velocity": 40,
                "duration": 0.1181818,
                "tempo": 120.0
            },
            {
                "start_time": 0.5022727,
                "end_time": 0.6204545,
                "pitch": 40,
                "velocity": 40,
                "duration": 0.1181818,
                "tempo": 120.0
            },
            {
                "start_time": 0.6363636,
                "end_time": 0.7522727,
                "pitch": 45,
                "velocity": 40,
                "duration": 0.1159091,
                "tempo": 120.0
            },
            {
                "start_time": 0.7704545,
                "end_time": 0.8863636,
                "pitch": 40,
                "velocity": 40,
                "duration": 0.1159091,
                "tempo": 120.0
            },
            {
                "start_time": 0.9045455,
                "end_time": 1.0204545,
                "pitch": 41,
                "velocity": 40,
                "duration": 0.1159091,
                "tempo": 120.0
            },
            {
                "start_time": 1.0363636,
                "end_time": 1.1545455,
                "pitch": 40,
                "velocity": 40,
                "duration": 0.1181818,
                "tempo": 120.0
            },
            {
                "start_time": 1.1704545,
                "end_time": 1.2886364,
                "pitch": 45,
                "velocity": 40,
                "duration": 0.1181818,
                "tempo": 120.0
            },
            {
                "start_time": 1.3068182,
                "end_time": 1.425,
                "pitch": 40,
                "velocity": 40,
                "duration": 0.1181818,
                "tempo": 120.0
            },
            {
                "start_time": 1.4431818,
                "end_time": 1.5613636,
                "pitch": 41,
                "velocity": 40,
                "duration": 0.1181818,
                "tempo": 120.0
            },
            {
                "start_time": 1.5795455,
                "end_time": 1.6977273,
                "pitch": 40,
                "velocity": 40,
                "duration": 0.1181818,
                "tempo": 120.0
            },
            {
                "start_time": 1.7136364,
                "end_time": 1.8318182,
                "pitch": 45,
                "velocity": 40,
                "duration": 0.1181818,
                "tempo": 120.0
            },
            {
                "start_time": 1.8477273,
                "end_time": 1.9659091,
                "pitch": 40,
                "velocity": 40,
                "duration": 0.1181818,
                "tempo": 120.0
            },
            {
                "start_time": 1.9818182,
                "end_time": 2.0977273,
                "pitch": 41,
                "velocity": 40,
                "duration": 0.1159091,
                "tempo": 120.0
            },
            {
                "start_time": 2.1159091,
                "end_time": 2.2318182,
                "pitch": 40,
                "velocity": 40,
                "duration": 0.1159091,
                "tempo": 120.0
            },
            {
                "start_time": 2.25,
                "end_time": 2.3659091,
                "pitch": 45,
                "velocity": 40,
                "duration": 0.1159091,
                "tempo": 120.0
            },
            {
                "start_time": 2.3818182,
                "end_time": 2.5,
                "pitch": 40,
                "velocity": 40,
                "duration": 0.1181818,
                "tempo": 120.0
            },
            {
                "start_time": 2.5159091,
                "end_time": 2.6340909,
                "pitch": 41,
                "velocity": 40,
                "duration": 0.1181818,
                "tempo": 120.0
            },
            {
                "start_time": 2.65,
                "end_time": 2.7659091,
                "pitch": 40,
                "velocity": 40,
                "duration": 0.1159091,
                "tempo": 120.0
            },
            {
                "start_time": 2.7840909,
                "end_time": 2.9,
                "pitch": 45,
                "velocity": 40,
                "duration": 0.1159091,
                "tempo": 120.0
            },
            {
                "start_time": 2.9159091,
                "end_time": 3.0340909,
                "pitch": 40,
                "velocity": 40,
                "duration": 0.1181818,
                "tempo": 120.0
            },
            {
                "start_time": 3.05,
                "end_time": 3.1681818,
                "pitch": 41,
                "velocity": 40,
                "duration": 0.1181818,
                "tempo": 120.0
            },
            {
                "start_time": 3.1840909,
                "end_time": 3.3,
                "pitch": 40,
                "velocity": 40,
                "duration": 0.1159091,
                "tempo": 120.0
            },
            {
                "start_time": 3.3181818,
                "end_time": 3.4363636,
                "pitch": 45,
                "velocity": 40,
                "duration": 0.1181818,
                "tempo": 120.0
            },
            {
                "start_time": 3.4545455,
                "end_time": 3.5727273,
                "pitch": 40,
                "velocity": 40,
                "duration": 0.1181818,
                "tempo": 120.0
            },
            {
                "start_time": 3.5909091,
                "end_time": 3.7090909,
                "pitch": 41,
                "velocity": 40,
                "duration": 0.1181818,
                "tempo": 120.0
            },
            {
                "start_time": 3.725,
                "end_time": 3.8454545,
                "pitch": 40,
                "velocity": 40,
                "duration": 0.1204545,
                "tempo": 120.0
            },
            {
                "start_time": 3.8613636,
                "end_time": 3.9795455,
                "pitch": 45,
                "velocity": 40,
                "duration": 0.1181818,
                "tempo": 120.0
            },
            {
                "start_time": 3.9954545,
                "end_time": 4.1113636,
                "pitch": 40,
                "velocity": 40,
                "duration": 0.1159091,
                "tempo": 120.0
            },
            {
                "start_time": 4.1295455,
                "end_time": 4.2454545,
                "pitch": 41,
                "velocity": 40,
                "duration": 0.1159091,
                "tempo": 120.0
            },
            {
                "start_time": 4.2636364,
                "end_time": 4.3795455,
                "pitch": 40,
                "velocity": 40,
                "duration": 0.1159091,
                "tempo": 120.0
            },
            {
                "start_time": 4.3954545,
                "end_time": 4.5159091,
                "pitch": 45,
                "velocity": 40,
                "duration": 0.1204545,
                "tempo": 120.0
            },
            {
                "start_time": 4.5318182,
                "end_time": 4.65,
                "pitch": 40,
                "velocity": 40,
                "duration": 0.1181818,
                "tempo": 120.0
            },
            {
                "start_time": 4.6681818,
                "end_time": 4.7863636,
                "pitch": 41,
                "velocity": 40,
                "duration": 0.1181818,
                "tempo": 120.0
            },
            {
                "start_time": 4.8045455,
                "end_time": 4.9227273,
                "pitch": 40,
                "velocity": 40,
                "duration": 0.1181818,
                "tempo": 120.0
            },
            {
                "start_time": 4.9409091,
                "end_time": 5.0568182,
                "pitch": 45,
                "velocity": 40,
                "duration": 0.1159091,
                "tempo": 120.0
            },
            {
                "start_time": 5.0727273,
                "end_time": 5.1909091,
                "pitch": 40,
                "velocity": 40,
                "duration": 0.1181818,
                "tempo": 120.0
            },
            {
                "start_time": 5.2068182,
                "end_time": 5.325,
                "pitch": 41,
                "velocity": 40,
                "duration": 0.1181818,
                "tempo": 120.0
            },
            {
                "start_time": 5.3409091,
                "end_time": 5.4568182,
                "pitch": 40,
                "velocity": 40,
                "duration": 0.1159091,
                "tempo": 120.0
            },
            {
                "start_time": 5.475,
                "end_time": 5.5909091,
                "pitch": 45,
                "velocity": 40,
                "duration": 0.1159091,
                "tempo": 120.0
            },
            {
                "start_time": 5.6090909,
                "end_time": 5.725,
                "pitch": 40,
                "velocity": 40,
                "duration": 0.1159091,
                "tempo": 120.0
            },
            {
                "start_time": 5.7409091,
                "end_time": 5.8590909,
                "pitch": 41,
                "velocity": 40,
                "duration": 0.1181818,
                "tempo": 120.0
            },
            {
                "start_time": 5.875,
                "end_time": 5.9931818,
                "pitch": 40,
                "velocity": 40,
                "duration": 0.1181818,
                "tempo": 120.0
            },
            {
                "start_time": 6.0090909,
                "end_time": 6.125,
                "pitch": 45,
                "velocity": 40,
                "duration": 0.1159091,
                "tempo": 120.0
            },
            {
                "start_time": 6.1431818,
                "end_time": 6.2590909,
                "pitch": 40,
                "velocity": 40,
                "duration": 0.1159091,
                "tempo": 120.0
            },
            {
                "start_time": 6.275,
                "end_time": 6.3931818,
                "pitch": 41,
                "velocity": 40,
                "duration": 0.1181818,
                "tempo": 120.0
            },
            {
                "start_time": 6.4090909,
                "end_time": 6.5272727,
                "pitch": 40,
                "velocity": 40,
                "duration": 0.1181818,
                "tempo": 120.0
            },
            {
                "start_time": 6.5431818,
                "end_time": 6.6613636,
                "pitch": 45,
                "velocity": 40,
                "duration": 0.1181818,
                "tempo": 120.0
            },
            {
                "start_time": 6.6795455,
                "end_time": 6.7977273,
                "pitch": 40,
                "velocity": 40,
                "duration": 0.1181818,
                "tempo": 120.0
            },
            {
                "start_time": 6.8159091,
                "end_time": 6.9340909,
                "pitch": 41,
                "velocity": 40,
                "duration": 0.1181818,
                "tempo": 120.0
            },
            {
                "start_time": 6.9522727,
                "end_time": 7.0704545,
                "pitch": 40,
                "velocity": 40,
                "duration": 0.1181818,
                "tempo": 120.0
            },
            {
                "start_time": 7.0863636,
                "end_time": 7.2045455,
                "pitch": 45,
                "velocity": 40,
                "duration": 0.1181818,
                "tempo": 120.0
            },
            {
                "start_time": 7.2204545,
                "end_time": 7.3386364,
                "pitch": 40,
                "velocity": 40,
                "duration": 0.1181818,
                "tempo": 120.0
            },
            {
                "start_time": 7.3545455,
                "end_time": 7.4704545,
                "pitch": 41,
                "velocity": 40,
                "duration": 0.1159091,
                "tempo": 120.0
            },
            {
                "start_time": 7.4886364,
                "end_time": 7.6045455,
                "pitch": 40,
                "velocity": 40,
                "duration": 0.1159091,
                "tempo": 120.0
            },
            {
                "start_time": 7.6204545,
                "end_time": 7.7409091,
                "pitch": 45,
                "velocity": 40,
                "duration": 0.1204545,
                "tempo": 120.0
            },
            {
                "start_time": 7.7568182,
                "end_time": 7.8772727,
                "pitch": 40,
                "velocity": 40,
                "duration": 0.1204545,
                "tempo": 120.0
            },
            {
                "start_time": 7.8931818,
                "end_time": 8.0136364,
                "pitch": 41,
                "velocity": 40,
                "duration": 0.1204545,
                "tempo": 120.0
            },
            {
                "start_time": 8.0295455,
                "end_time": 8.1477273,
                "pitch": 40,
                "velocity": 40,
                "duration": 0.1181818,
                "tempo": 120.0
            },
            {
                "start_time": 8.1659091,
                "end_time": 8.2818182,
                "pitch": 45,
                "velocity": 40,
                "duration": 0.1159091,
                "tempo": 120.0
            },
            {
                "start_time": 8.3,
                "end_time": 8.4159091,
                "pitch": 40,
                "velocity": 40,
                "duration": 0.1159091,
                "tempo": 120.0
            },
            {
                "start_time": 8.4318182,
                "end_time": 8.55,
                "pitch": 41,
                "velocity": 40,
                "duration": 0.1181818,
                "tempo": 120.0
            },
            {
                "start_time": 8.5659091,
                "end_time": 8.6840909,
                "pitch": 40,
                "velocity": 40,
                "duration": 0.1181818,
                "tempo": 120.0
            },
            {
                "start_time": 8.7,
                "end_time": 8.8181818,
                "pitch": 45,
                "velocity": 40,
                "duration": 0.1181818,
                "tempo": 120.0
            },
            {
                "start_time": 8.8363636,
                "end_time": 8.9545455,
                "pitch": 40,
                "velocity": 40,
                "duration": 0.1181818,
                "tempo": 120.0
            },
            {
                "start_time": 8.9727273,
                "end_time": 9.0909091,
                "pitch": 41,
                "velocity": 40,
                "duration": 0.1181818,
                "tempo": 120.0
            },
            {
                "start_time": 9.1068182,
                "end_time": 9.2272727,
                "pitch": 40,
                "velocity": 40,
                "duration": 0.1204545,
                "tempo": 120.0
            },
            {
                "start_time": 9.2431818,
                "end_time": 9.3590909,
                "pitch": 45,
                "velocity": 40,
                "duration": 0.1159091,
                "tempo": 120.0
            },
            {
                "start_time": 9.375,
                "end_time": 9.4886364,
                "pitch": 40,
                "velocity": 40,
                "duration": 0.1136364,
                "tempo": 120.0
            },
            {
                "start_time": 9.5068182,
                "end_time": 9.6204545,
                "pitch": 41,
                "velocity": 40,
                "duration": 0.1136364,
                "tempo": 120.0
            },
            {
                "start_time": 9.6363636,
                "end_time": 9.7522727,
                "pitch": 40,
                "velocity": 40,
                "duration": 0.1159091,
                "tempo": 120.0
            },
            {
                "start_time": 9.7681818,
                "end_time": 9.8886364,
                "pitch": 45,
                "velocity": 40,
                "duration": 0.1204545,
                "tempo": 120.0
            },
            {
                "start_time": 9.9045455,
                "end_time": 10.0227273,
                "pitch": 40,
                "velocity": 40,
                "duration": 0.1181818,
                "tempo": 120.0
            },
            {
                "start_time": 10.0409091,
                "end_time": 10.1590909,
                "pitch": 41,
                "velocity": 40,
                "duration": 0.1181818,
                "tempo": 120.0
            },
            {
                "start_time": 10.1772727,
                "end_time": 10.2954545,
                "pitch": 40,
                "velocity": 40,
                "duration": 0.1181818,
                "tempo": 120.0
            },
            {
                "start_time": 10.3136364,
                "end_time": 10.4295455,
                "pitch": 45,
                "velocity": 40,
                "duration": 0.1159091,
                "tempo": 120.0
            },
            {
                "start_time": 10.4454545,
                "end_time": 10.5636364,
                "pitch": 40,
                "velocity": 40,
                "duration": 0.1181818,
                "tempo": 120.0
            },
            {
                "start_time": 10.5795455,
                "end_time": 10.6977273,
                "pitch": 41,
                "velocity": 40,
                "duration": 0.1181818,
                "tempo": 120.0
            },
            {
                "start_time": 10.7136364,
                "end_time": 10.8295455,
                "pitch": 40,
                "velocity": 40,
                "duration": 0.1159091,
                "tempo": 120.0
            },
            {
                "start_time": 10.8477273,
                "end_time": 10.9659091,
                "pitch": 45,
                "velocity": 40,
                "duration": 0.1181818,
                "tempo": 120.0
            },
            {
                "start_time": 10.9818182,
                "end_time": 11.1022727,
                "pitch": 40,
                "velocity": 40,
                "duration": 0.1204545,
                "tempo": 120.0
            },
            {
                "start_time": 11.1181818,
                "end_time": 11.2386364,
                "pitch": 41,
                "velocity": 40,
                "duration": 0.1204545,
                "tempo": 120.0
            },
            {
                "start_time": 11.2545455,
                "end_time": 11.375,
                "pitch": 40,
                "velocity": 40,
                "duration": 0.1204545,
                "tempo": 120.0
            },
            {
                "start_time": 11.3909091,
                "end_time": 11.5068182,
                "pitch": 45,
                "velocity": 40,
                "duration": 0.1159091,
                "tempo": 120.0
            },
            {
                "start_time": 11.525,
                "end_time": 11.6409091,
                "pitch": 40,
                "velocity": 40,
                "duration": 0.1159091,
                "tempo": 120.0
            },
            {
                "start_time": 11.6590909,
                "end_time": 11.775,
                "pitch": 41,
                "velocity": 40,
                "duration": 0.1159091,
                "tempo": 120.0
            },
            {
                "start_time": 11.7909091,
                "end_time": 11.9090909,
                "pitch": 40,
                "velocity": 40,
                "duration": 0.1181818,
                "tempo": 120.0
            },
            {
                "start_time": 11.925,
                "end_time": 12.0431818,
                "pitch": 45,
                "velocity": 40,
                "duration": 0.1181818,
                "tempo": 120.0
            },
            {
                "start_time": 12.0613636,
                "end_time": 12.1795455,
                "pitch": 40,
                "velocity": 40,
                "duration": 0.1181818,
                "tempo": 120.0
            },
            {
                "start_time": 12.1977273,
                "end_time": 12.3159091,
                "pitch": 41,
                "velocity": 40,
                "duration": 0.1181818,
                "tempo": 120.0
            },
            {
                "start_time": 12.3340909,
                "end_time": 12.4522727,
                "pitch": 40,
                "velocity": 40,
                "duration": 0.1181818,
                "tempo": 120.0
            },
            {
                "start_time": 12.4681818,
                "end_time": 12.5863636,
                "pitch": 45,
                "velocity": 40,
                "duration": 0.1181818,
                "tempo": 120.0
            },
            {
                "start_time": 12.6022727,
                "end_time": 12.7204545,
                "pitch": 40,
                "velocity": 40,
                "duration": 0.1181818,
                "tempo": 120.0
            },
            {
                "start_time": 12.7363636,
                "end_time": 12.8522727,
                "pitch": 41,
                "velocity": 40,
                "duration": 0.1159091,
                "tempo": 120.0
            },
            {
                "start_time": 12.8704545,
                "end_time": 12.9863636,
                "pitch": 40,
                "velocity": 40,
                "duration": 0.1159091,
                "tempo": 120.0
            },
            {
                "start_time": 13.0045455,
                "end_time": 13.1204545,
                "pitch": 45,
                "velocity": 40,
                "duration": 0.1159091,
                "tempo": 120.0
            },
            {
                "start_time": 13.1363636,
                "end_time": 13.2545455,
                "pitch": 40,
                "velocity": 40,
                "duration": 0.1181818,
                "tempo": 120.0
            },
            {
                "start_time": 13.2704545,
                "end_time": 13.3886364,
                "pitch": 41,
                "velocity": 40,
                "duration": 0.1181818,
                "tempo": 120.0
            },
            {
                "start_time": 13.4045455,
                "end_time": 13.5204545,
                "pitch": 40,
                "velocity": 40,
                "duration": 0.1159091,
                "tempo": 120.0
            },
            {
                "start_time": 13.5386364,
                "end_time": 13.6545455,
                "pitch": 45,
                "velocity": 40,
                "duration": 0.1159091,
                "tempo": 120.0
            },
            {
                "start_time": 13.6704545,
                "end_time": 13.7886364,
                "pitch": 40,
                "velocity": 40,
                "duration": 0.1181818,
                "tempo": 120.0
            },
            {
                "start_time": 13.8045455,
                "end_time": 13.9227273,
                "pitch": 41,
                "velocity": 40,
                "duration": 0.1181818,
                "tempo": 120.0
            },
            {
                "start_time": 13.9386364,
                "end_time": 14.0545455,
                "pitch": 40,
                "velocity": 40,
                "duration": 0.1159091,
                "tempo": 120.0
            },
            {
                "start_time": 14.0727273,
                "end_time": 14.1909091,
                "pitch": 45,
                "velocity": 40,
                "duration": 0.1181818,
                "tempo": 120.0
            },
            {
                "start_time": 14.2090909,
                "end_time": 14.3272727,
                "pitch": 40,
                "velocity": 40,
                "duration": 0.1181818,
                "tempo": 120.0
            },
            {
                "start_time": 14.3454545,
                "end_time": 14.4636364,
                "pitch": 41,
                "velocity": 40,
                "duration": 0.1181818,
                "tempo": 120.0
            },
            {
                "start_time": 14.4795455,
                "end_time": 14.6,
                "pitch": 40,
                "velocity": 40,
                "duration": 0.1204545,
                "tempo": 120.0
            },
            {
                "start_time": 14.6159091,
                "end_time": 14.7340909,
                "pitch": 45,
                "velocity": 40,
                "duration": 0.1181818,
                "tempo": 120.0
            },
            {
                "start_time": 14.75,
                "end_time": 14.8659091,
                "pitch": 40,
                "velocity": 40,
                "duration": 0.1159091,
                "tempo": 120.0
            },
            {
                "start_time": 14.8840909,
                "end_time": 15.0,
                "pitch": 41,
                "velocity": 40,
                "duration": 0.1159091,
                "tempo": 120.0
            },
            {
                "start_time": 15.0181818,
                "end_time": 15.1340909,
                "pitch": 40,
                "velocity": 40,
                "duration": 0.1159091,
                "tempo": 120.0
            },
            {
                "start_time": 15.15,
                "end_time": 15.2681818,
                "pitch": 45,
                "velocity": 40,
                "duration": 0.1181818,
                "tempo": 120.0
            },
            {
                "start_time": 15.2840909,
                "end_time": 15.4022727,
                "pitch": 40,
                "velocity": 40,
                "duration": 0.1181818,
                "tempo": 120.0
            },
            {
                "start_time": 15.4181818,
                "end_time": 15.5340909,
                "pitch": 41,
                "velocity": 40,
                "duration": 0.1159091,
                "tempo": 120.0
            },
            {
                "start_time": 15.5522727,
                "end_time": 15.6681818,
                "pitch": 40,
                "velocity": 40,
                "duration": 0.1159091,
                "tempo": 120.0
            },
            {
                "start_time": 15.6840909,
                "end_time": 15.8022727,
                "pitch": 45,
                "velocity": 40,
                "duration": 0.1181818,
                "tempo": 120.0
            },
            {
                "start_time": 15.8181818,
                "end_time": 15.9363636,
                "pitch": 40,
                "velocity": 40,
                "duration": 0.1181818,
                "tempo": 120.0
            },
            {
                "start_time": 15.9522727,
                "end_time": 16.0681818,
                "pitch": 41,
                "velocity": 40,
                "duration": 0.1159091,
                "tempo": 120.0
            },
            {
                "start_time": 16.0863636,
                "end_time": 16.2022727,
                "pitch": 40,
                "velocity": 40,
                "duration": 0.1159091,
                "tempo": 120.0
            },
            {
                "start_time": 16.2204545,
                "end_time": 16.3386364,
                "pitch": 45,
                "velocity": 40,
                "duration": 0.1181818,
                "tempo": 120.0
            },
            {
                "start_time": 16.3545455,
                "end_time": 16.475,
                "pitch": 40,
                "velocity": 40,
                "duration": 0.1204545,
                "tempo": 120.0
            },
            {
                "start_time": 16.4909091,
                "end_time": 16.6113636,
                "pitch": 41,
                "velocity": 40,
                "duration": 0.1204545,
                "tempo": 120.0
            },
            {
                "start_time": 16.6272727,
                "end_time": 16.7454545,
                "pitch": 40,
                "velocity": 40,
                "duration": 0.1181818,
                "tempo": 120.0
            },
            {
                "start_time": 16.7636364,
                "end_time": 16.8795455,
                "pitch": 45,
                "velocity": 40,
                "duration": 0.1159091,
                "tempo": 120.0
            },
            {
                "start_time": 16.8977273,
                "end_time": 17.0136364,
                "pitch": 40,
                "velocity": 40,
                "duration": 0.1159091,
                "tempo": 120.0
            },
            {
                "start_time": 17.0295455,
                "end_time": 17.1477273,
                "pitch": 41,
                "velocity": 40,
                "duration": 0.1181818,
                "tempo": 120.0
            },
            {
                "start_time": 17.1636364,
                "end_time": 17.2636364,
                "pitch": 42,
                "velocity": 40,
                "duration": 0.1,
                "tempo": 120.0
            },
            {
                "start_time": 17.2818182,
                "end_time": 17.3795455,
                "pitch": 47,
                "velocity": 40,
                "duration": 0.0977273,
                "tempo": 120.0
            },
            {
                "start_time": 17.3954545,
                "end_time": 17.4954545,
                "pitch": 42,
                "velocity": 40,
                "duration": 0.1,
                "tempo": 120.0
            },
            {
                "start_time": 17.5113636,
                "end_time": 17.6090909,
                "pitch": 43,
                "velocity": 40,
                "duration": 0.0977273,
                "tempo": 120.0
            },
            {
                "start_time": 17.625,
                "end_time": 17.725,
                "pitch": 42,
                "velocity": 40,
                "duration": 0.1,
                "tempo": 120.0
            },
            {
                "start_time": 17.7386364,
                "end_time": 17.8272727,
                "pitch": 47,
                "velocity": 40,
                "duration": 0.0886364,
                "tempo": 120.0
            },
            {
                "start_time": 17.8409091,
                "end_time": 17.9272727,
                "pitch": 42,
                "velocity": 40,
                "duration": 0.0863636,
                "tempo": 120.0
            },
            {
                "start_time": 17.9431818,
                "end_time": 18.0295455,
                "pitch": 43,
                "velocity": 40,
                "duration": 0.0863636,
                "tempo": 120.0
            },
            {
                "start_time": 18.0431818,
                "end_time": 18.1318182,
                "pitch": 42,
                "velocity": 40,
                "duration": 0.0886364,
                "tempo": 120.0
            },
            {
                "start_time": 18.1454545,
                "end_time": 18.2363636,
                "pitch": 47,
                "velocity": 40,
                "duration": 0.0909091,
                "tempo": 120.0
            },
            {
                "start_time": 18.2522727,
                "end_time": 18.3431818,
                "pitch": 42,
                "velocity": 40,
                "duration": 0.0909091,
                "tempo": 120.0
            },
            {
                "start_time": 18.3590909,
                "end_time": 18.45,
                "pitch": 43,
                "velocity": 40,
                "duration": 0.0909091,
                "tempo": 120.0
            },
            {
                "start_time": 18.4659091,
                "end_time": 18.5568182,
                "pitch": 42,
                "velocity": 40,
                "duration": 0.0909091,
                "tempo": 120.0
            },
            {
                "start_time": 18.5704545,
                "end_time": 18.6590909,
                "pitch": 47,
                "velocity": 40,
                "duration": 0.0886364,
                "tempo": 120.0
            },
            {
                "start_time": 18.6727273,
                "end_time": 18.7613636,
                "pitch": 42,
                "velocity": 40,
                "duration": 0.0886364,
                "tempo": 120.0
            },
            {
                "start_time": 18.775,
                "end_time": 18.8613636,
                "pitch": 43,
                "velocity": 40,
                "duration": 0.0863636,
                "tempo": 120.0
            },
            {
                "start_time": 18.8772727,
                "end_time": 18.9636364,
                "pitch": 42,
                "velocity": 40,
                "duration": 0.0863636,
                "tempo": 120.0
            },
            {
                "start_time": 18.9772727,
                "end_time": 19.0681818,
                "pitch": 47,
                "velocity": 40,
                "duration": 0.0909091,
                "tempo": 120.0
            },
            {
                "start_time": 19.0818182,
                "end_time": 19.1704545,
                "pitch": 42,
                "velocity": 40,
                "duration": 0.0886364,
                "tempo": 120.0
            },
            {
                "start_time": 19.1863636,
                "end_time": 19.275,
                "pitch": 43,
                "velocity": 40,
                "duration": 0.0886364,
                "tempo": 120.0
            },
            {
                "start_time": 19.2909091,
                "end_time": 19.3795455,
                "pitch": 42,
                "velocity": 40,
                "duration": 0.0886364,
                "tempo": 120.0
            },
            {
                "start_time": 19.3931818,
                "end_time": 19.4818182,
                "pitch": 47,
                "velocity": 40,
                "duration": 0.0886364,
                "tempo": 120.0
            },
            {
                "start_time": 19.4954545,
                "end_time": 19.5818182,
                "pitch": 42,
                "velocity": 40,
                "duration": 0.0863636,
                "tempo": 120.0
            },
            {
                "start_time": 19.5977273,
                "end_time": 19.6840909,
                "pitch": 43,
                "velocity": 40,
                "duration": 0.0863636,
                "tempo": 120.0
            },
            {
                "start_time": 19.6977273,
                "end_time": 19.7863636,
                "pitch": 42,
                "velocity": 40,
                "duration": 0.0886364,
                "tempo": 120.0
            },
            {
                "start_time": 19.8,
                "end_time": 19.8886364,
                "pitch": 47,
                "velocity": 40,
                "duration": 0.0886364,
                "tempo": 120.0
            },
            {
                "start_time": 19.9045455,
                "end_time": 19.9931818,
                "pitch": 42,
                "velocity": 40,
                "duration": 0.0886364,
                "tempo": 120.0
            },
            {
                "start_time": 20.0090909,
                "end_time": 20.0977273,
                "pitch": 43,
                "velocity": 40,
                "duration": 0.0886364,
                "tempo": 120.0
            },
            {
                "start_time": 20.1113636,
                "end_time": 20.2022727,
                "pitch": 42,
                "velocity": 40,
                "duration": 0.0909091,
                "tempo": 120.0
            },
            {
                "start_time": 20.2159091,
                "end_time": 20.3045455,
                "pitch": 47,
                "velocity": 40,
                "duration": 0.0886364,
                "tempo": 120.0
            },
            {
                "start_time": 20.3204545,
                "end_time": 20.4090909,
                "pitch": 42,
                "velocity": 40,
                "duration": 0.0886364,
                "tempo": 120.0
            },
            {
                "start_time": 20.425,
                "end_time": 20.5136364,
                "pitch": 43,
                "velocity": 40,
                "duration": 0.0886364,
                "tempo": 120.0
            },
            {
                "start_time": 20.5295455,
                "end_time": 20.6181818,
                "pitch": 42,
                "velocity": 40,
                "duration": 0.0886364,
                "tempo": 120.0
            },
            {
                "start_time": 20.6318182,
                "end_time": 20.7227273,
                "pitch": 47,
                "velocity": 40,
                "duration": 0.0909091,
                "tempo": 120.0
            },
            {
                "start_time": 20.7363636,
                "end_time": 20.825,
                "pitch": 42,
                "velocity": 40,
                "duration": 0.0886364,
                "tempo": 120.0
            },
            {
                "start_time": 20.8409091,
                "end_time": 20.9295455,
                "pitch": 43,
                "velocity": 40,
                "duration": 0.0886364,
                "tempo": 120.0
            },
            {
                "start_time": 20.9454545,
                "end_time": 21.0340909,
                "pitch": 42,
                "velocity": 40,
                "duration": 0.0886364,
                "tempo": 120.0
            },
            {
                "start_time": 21.0477273,
                "end_time": 21.1363636,
                "pitch": 47,
                "velocity": 40,
                "duration": 0.0886364,
                "tempo": 120.0
            },
            {
                "start_time": 21.15,
                "end_time": 21.2363636,
                "pitch": 42,
                "velocity": 40,
                "duration": 0.0863636,
                "tempo": 120.0
            },
            {
                "start_time": 21.2522727,
                "end_time": 21.3386364,
                "pitch": 43,
                "velocity": 40,
                "duration": 0.0863636,
                "tempo": 120.0
            },
            {
                "start_time": 21.3522727,
                "end_time": 21.4409091,
                "pitch": 42,
                "velocity": 40,
                "duration": 0.0886364,
                "tempo": 120.0
            },
            {
                "start_time": 21.4545455,
                "end_time": 21.5431818,
                "pitch": 47,
                "velocity": 40,
                "duration": 0.0886364,
                "tempo": 120.0
            },
            {
                "start_time": 21.5590909,
                "end_time": 21.6477273,
                "pitch": 42,
                "velocity": 40,
                "duration": 0.0886364,
                "tempo": 120.0
            },
            {
                "start_time": 21.6636364,
                "end_time": 21.7522727,
                "pitch": 43,
                "velocity": 40,
                "duration": 0.0886364,
                "tempo": 120.0
            },
            {
                "start_time": 21.7659091,
                "end_time": 21.8568182,
                "pitch": 42,
                "velocity": 40,
                "duration": 0.0909091,
                "tempo": 120.0
            },
            {
                "start_time": 21.8704545,
                "end_time": 21.9590909,
                "pitch": 47,
                "velocity": 40,
                "duration": 0.0886364,
                "tempo": 120.0
            },
            {
                "start_time": 21.975,
                "end_time": 22.0636364,
                "pitch": 42,
                "velocity": 40,
                "duration": 0.0886364,
                "tempo": 120.0
            },
            {
                "start_time": 22.0795455,
                "end_time": 22.1681818,
                "pitch": 43,
                "velocity": 40,
                "duration": 0.0886364,
                "tempo": 120.0
            },
            {
                "start_time": 22.1840909,
                "end_time": 22.2727273,
                "pitch": 42,
                "velocity": 40,
                "duration": 0.0886364,
                "tempo": 120.0
            },
            {
                "start_time": 22.2863636,
                "end_time": 22.375,
                "pitch": 47,
                "velocity": 40,
                "duration": 0.0886364,
                "tempo": 120.0
            },
            {
                "start_time": 22.3886364,
                "end_time": 22.475,
                "pitch": 42,
                "velocity": 40,
                "duration": 0.0863636,
                "tempo": 120.0
            },
            {
                "start_time": 22.4909091,
                "end_time": 22.5772727,
                "pitch": 43,
                "velocity": 40,
                "duration": 0.0863636,
                "tempo": 120.0
            },
            {
                "start_time": 22.5909091,
                "end_time": 22.6795455,
                "pitch": 42,
                "velocity": 40,
                "duration": 0.0886364,
                "tempo": 120.0
            },
            {
                "start_time": 22.6931818,
                "end_time": 22.7818182,
                "pitch": 47,
                "velocity": 40,
                "duration": 0.0886364,
                "tempo": 120.0
            },
            {
                "start_time": 22.7977273,
                "end_time": 22.8863636,
                "pitch": 42,
                "velocity": 40,
                "duration": 0.0886364,
                "tempo": 120.0
            },
            {
                "start_time": 22.9022727,
                "end_time": 22.9909091,
                "pitch": 43,
                "velocity": 40,
                "duration": 0.0886364,
                "tempo": 120.0
            },
            {
                "start_time": 23.0045455,
                "end_time": 23.0954545,
                "pitch": 42,
                "velocity": 40,
                "duration": 0.0909091,
                "tempo": 120.0
            },
            {
                "start_time": 23.1090909,
                "end_time": 23.1977273,
                "pitch": 47,
                "velocity": 40,
                "duration": 0.0886364,
                "tempo": 120.0
            },
            {
                "start_time": 23.2136364,
                "end_time": 23.3022727,
                "pitch": 42,
                "velocity": 40,
                "duration": 0.0886364,
                "tempo": 120.0
            },
            {
                "start_time": 23.3181818,
                "end_time": 23.4068182,
                "pitch": 43,
                "velocity": 40,
                "duration": 0.0886364,
                "tempo": 120.0
            },
            {
                "start_time": 23.4204545,
                "end_time": 23.5113636,
                "pitch": 42,
                "velocity": 40,
                "duration": 0.0909091,
                "tempo": 120.0
            },
            {
                "start_time": 23.525,
                "end_time": 23.6113636,
                "pitch": 47,
                "velocity": 40,
                "duration": 0.0863636,
                "tempo": 120.0
            },
            {
                "start_time": 23.6272727,
                "end_time": 23.7136364,
                "pitch": 42,
                "velocity": 40,
                "duration": 0.0863636,
                "tempo": 120.0
            },
            {
                "start_time": 23.7295455,
                "end_time": 23.8159091,
                "pitch": 43,
                "velocity": 40,
                "duration": 0.0863636,
                "tempo": 120.0
            },
            {
                "start_time": 23.8295455,
                "end_time": 36.4681818,
                "pitch": 52,
                "velocity": 40,
                "duration": 12.6386364,
                "tempo": 120.0
            },
            {
                "start_time": 36.4863636,
                "end_time": 36.6,
                "pitch": 45,
                "velocity": 40,
                "duration": 0.1136364,
                "tempo": 120.0
            },
            {
                "start_time": 36.6159091,
                "end_time": 36.7318182,
                "pitch": 40,
                "velocity": 40,
                "duration": 0.1159091,
                "tempo": 120.0
            },
            {
                "start_time": 36.7477273,
                "end_time": 36.8636364,
                "pitch": 41,
                "velocity": 40,
                "duration": 0.1159091,
                "tempo": 120.0
            },
            {
                "start_time": 36.8795455,
                "end_time": 36.9931818,
                "pitch": 40,
                "velocity": 40,
                "duration": 0.1136364,
                "tempo": 120.0
            },
            {
                "start_time": 37.0113636,
                "end_time": 37.1272727,
                "pitch": 45,
                "velocity": 40,
                "duration": 0.1159091,
                "tempo": 120.0
            },
            {
                "start_time": 37.1431818,
                "end_time": 37.2613636,
                "pitch": 40,
                "velocity": 40,
                "duration": 0.1181818,
                "tempo": 120.0
            },
            {
                "start_time": 37.2772727,
                "end_time": 37.3954545,
                "pitch": 41,
                "velocity": 40,
                "duration": 0.1181818,
                "tempo": 120.0
            },
            {
                "start_time": 37.4113636,
                "end_time": 37.5272727,
                "pitch": 40,
                "velocity": 40,
                "duration": 0.1159091,
                "tempo": 120.0
            },
            {
                "start_time": 37.5454545,
                "end_time": 37.6636364,
                "pitch": 45,
                "velocity": 40,
                "duration": 0.1181818,
                "tempo": 120.0
            },
            {
                "start_time": 37.6818182,
                "end_time": 37.8,
                "pitch": 40,
                "velocity": 40,
                "duration": 0.1181818,
                "tempo": 120.0
            },
            {
                "start_time": 37.8159091,
                "end_time": 37.9363636,
                "pitch": 41,
                "velocity": 40,
                "duration": 0.1204545,
                "tempo": 120.0
            },
            {
                "start_time": 37.9522727,
                "end_time": 38.0727273,
                "pitch": 40,
                "velocity": 40,
                "duration": 0.1204545,
                "tempo": 120.0
            },
            {
                "start_time": 38.0886364,
                "end_time": 38.2022727,
                "pitch": 45,
                "velocity": 40,
                "duration": 0.1136364,
                "tempo": 120.0
            },
            {
                "start_time": 38.2204545,
                "end_time": 38.3340909,
                "pitch": 40,
                "velocity": 40,
                "duration": 0.1136364,
                "tempo": 120.0
            },
            {
                "start_time": 38.35,
                "end_time": 38.4659091,
                "pitch": 41,
                "velocity": 40,
                "duration": 0.1159091,
                "tempo": 120.0
            },
            {
                "start_time": 38.4818182,
                "end_time": 38.5977273,
                "pitch": 40,
                "velocity": 40,
                "duration": 0.1159091,
                "tempo": 120.0
            },
            {
                "start_time": 38.6136364,
                "end_time": 38.7318182,
                "pitch": 45,
                "velocity": 40,
                "duration": 0.1181818,
                "tempo": 120.0
            },
            {
                "start_time": 38.75,
                "end_time": 38.8681818,
                "pitch": 40,
                "velocity": 40,
                "duration": 0.1181818,
                "tempo": 120.0
            },
            {
                "start_time": 38.8863636,
                "end_time": 39.0045455,
                "pitch": 41,
                "velocity": 40,
                "duration": 0.1181818,
                "tempo": 120.0
            },
            {
                "start_time": 39.0227273,
                "end_time": 39.1409091,
                "pitch": 40,
                "velocity": 40,
                "duration": 0.1181818,
                "tempo": 120.0
            },
            {
                "start_time": 39.1568182,
                "end_time": 39.275,
                "pitch": 45,
                "velocity": 40,
                "duration": 0.1181818,
                "tempo": 120.0
            },
            {
                "start_time": 39.2909091,
                "end_time": 39.4090909,
                "pitch": 40,
                "velocity": 40,
                "duration": 0.1181818,
                "tempo": 120.0
            },
            {
                "start_time": 39.425,
                "end_time": 39.5409091,
                "pitch": 41,
                "velocity": 40,
                "duration": 0.1159091,
                "tempo": 120.0
            },
            {
                "start_time": 39.5590909,
                "end_time": 39.675,
                "pitch": 40,
                "velocity": 40,
                "duration": 0.1159091,
                "tempo": 120.0
            },
            {
                "start_time": 39.6931818,
                "end_time": 39.8113636,
                "pitch": 45,
                "velocity": 40,
                "duration": 0.1181818,
                "tempo": 120.0
            },
            {
                "start_time": 39.8272727,
                "end_time": 39.9477273,
                "pitch": 40,
                "velocity": 40,
                "duration": 0.1204545,
                "tempo": 120.0
            },
            {
                "start_time": 39.9636364,
                "end_time": 40.0840909,
                "pitch": 41,
                "velocity": 40,
                "duration": 0.1204545,
                "tempo": 120.0
            },
            {
                "start_time": 40.1,
                "end_time": 40.2181818,
                "pitch": 40,
                "velocity": 40,
                "duration": 0.1181818,
                "tempo": 120.0
            },
            {
                "start_time": 40.2363636,
                "end_time": 40.3522727,
                "pitch": 45,
                "velocity": 40,
                "duration": 0.1159091,
                "tempo": 120.0
            },
            {
                "start_time": 40.3704545,
                "end_time": 40.4863636,
                "pitch": 40,
                "velocity": 40,
                "duration": 0.1159091,
                "tempo": 120.0
            },
            {
                "start_time": 40.5022727,
                "end_time": 40.6204545,
                "pitch": 41,
                "velocity": 40,
                "duration": 0.1181818,
                "tempo": 120.0
            },
            {
                "start_time": 40.6363636,
                "end_time": 40.7545455,
                "pitch": 40,
                "velocity": 40,
                "duration": 0.1181818,
                "tempo": 120.0
            },
            {
                "start_time": 40.7704545,
                "end_time": 40.8886364,
                "pitch": 45,
                "velocity": 40,
                "duration": 0.1181818,
                "tempo": 120.0
            },
            {
                "start_time": 40.9068182,
                "end_time": 41.025,
                "pitch": 40,
                "velocity": 40,
                "duration": 0.1181818,
                "tempo": 120.0
            },
            {
                "start_time": 41.0431818,
                "end_time": 41.1613636,
                "pitch": 41,
                "velocity": 40,
                "duration": 0.1181818,
                "tempo": 120.0
            },
            {
                "start_time": 41.1772727,
                "end_time": 41.2977273,
                "pitch": 40,
                "velocity": 40,
                "duration": 0.1204545,
                "tempo": 120.0
            },
            {
                "start_time": 41.3136364,
                "end_time": 41.4318182,
                "pitch": 45,
                "velocity": 40,
                "duration": 0.1181818,
                "tempo": 120.0
            },
            {
                "start_time": 41.4477273,
                "end_time": 41.5659091,
                "pitch": 40,
                "velocity": 40,
                "duration": 0.1181818,
                "tempo": 120.0
            },
            {
                "start_time": 41.5818182,
                "end_time": 41.6977273,
                "pitch": 41,
                "velocity": 40,
                "duration": 0.1159091,
                "tempo": 120.0
            },
            {
                "start_time": 41.7159091,
                "end_time": 41.8318182,
                "pitch": 40,
                "velocity": 40,
                "duration": 0.1159091,
                "tempo": 120.0
            },
            {
                "start_time": 41.8477273,
                "end_time": 41.9659091,
                "pitch": 45,
                "velocity": 40,
                "duration": 0.1181818,
                "tempo": 120.0
            },
            {
                "start_time": 41.9818182,
                "end_time": 42.1,
                "pitch": 40,
                "velocity": 40,
                "duration": 0.1181818,
                "tempo": 120.0
            },
            {
                "start_time": 42.1159091,
                "end_time": 42.2318182,
                "pitch": 41,
                "velocity": 40,
                "duration": 0.1159091,
                "tempo": 120.0
            },
            {
                "start_time": 42.25,
                "end_time": 42.3659091,
                "pitch": 40,
                "velocity": 40,
                "duration": 0.1159091,
                "tempo": 120.0
            },
            {
                "start_time": 42.3840909,
                "end_time": 42.5,
                "pitch": 45,
                "velocity": 40,
                "duration": 0.1159091,
                "tempo": 120.0
            },
            {
                "start_time": 42.5159091,
                "end_time": 42.6340909,
                "pitch": 40,
                "velocity": 40,
                "duration": 0.1181818,
                "tempo": 120.0
            },
            {
                "start_time": 42.65,
                "end_time": 42.7681818,
                "pitch": 41,
                "velocity": 40,
                "duration": 0.1181818,
                "tempo": 120.0
            },
            {
                "start_time": 42.7840909,
                "end_time": 42.9,
                "pitch": 40,
                "velocity": 40,
                "duration": 0.1159091,
                "tempo": 120.0
            },
            {
                "start_time": 42.9181818,
                "end_time": 43.0363636,
                "pitch": 45,
                "velocity": 40,
                "duration": 0.1181818,
                "tempo": 120.0
            },
            {
                "start_time": 43.0545455,
                "end_time": 43.1727273,
                "pitch": 40,
                "velocity": 40,
                "duration": 0.1181818,
                "tempo": 120.0
            },
            {
                "start_time": 43.1886364,
                "end_time": 43.3090909,
                "pitch": 41,
                "velocity": 40,
                "duration": 0.1204545,
                "tempo": 120.0
            },
            {
                "start_time": 43.325,
                "end_time": 43.4454545,
                "pitch": 40,
                "velocity": 40,
                "duration": 0.1204545,
                "tempo": 120.0
            },
            {
                "start_time": 43.4613636,
                "end_time": 43.5772727,
                "pitch": 45,
                "velocity": 40,
                "duration": 0.1159091,
                "tempo": 120.0
            },
            {
                "start_time": 43.5954545,
                "end_time": 43.7113636,
                "pitch": 40,
                "velocity": 40,
                "duration": 0.1159091,
                "tempo": 120.0
            },
            {
                "start_time": 43.7295455,
                "end_time": 43.8454545,
                "pitch": 41,
                "velocity": 40,
                "duration": 0.1159091,
                "tempo": 120.0
            },
            {
                "start_time": 43.8613636,
                "end_time": 43.9795455,
                "pitch": 40,
                "velocity": 40,
                "duration": 0.1181818,
                "tempo": 120.0
            },
            {
                "start_time": 43.9954545,
                "end_time": 44.1159091,
                "pitch": 45,
                "velocity": 40,
                "duration": 0.1204545,
                "tempo": 120.0
            },
            {
                "start_time": 44.1318182,
                "end_time": 44.25,
                "pitch": 40,
                "velocity": 40,
                "duration": 0.1181818,
                "tempo": 120.0
            },
            {
                "start_time": 44.2681818,
                "end_time": 44.3863636,
                "pitch": 41,
                "velocity": 40,
                "duration": 0.1181818,
                "tempo": 120.0
            },
            {
                "start_time": 44.4045455,
                "end_time": 44.5227273,
                "pitch": 40,
                "velocity": 40,
                "duration": 0.1181818,
                "tempo": 120.0
            },
            {
                "start_time": 44.5386364,
                "end_time": 44.6568182,
                "pitch": 45,
                "velocity": 40,
                "duration": 0.1181818,
                "tempo": 120.0
            },
            {
                "start_time": 44.6727273,
                "end_time": 44.7909091,
                "pitch": 40,
                "velocity": 40,
                "duration": 0.1181818,
                "tempo": 120.0
            },
            {
                "start_time": 44.8068182,
                "end_time": 44.9227273,
                "pitch": 41,
                "velocity": 40,
                "duration": 0.1159091,
                "tempo": 120.0
            },
            {
                "start_time": 44.9409091,
                "end_time": 45.0568182,
                "pitch": 40,
                "velocity": 40,
                "duration": 0.1159091,
                "tempo": 120.0
            },
            {
                "start_time": 45.075,
                "end_time": 45.1931818,
                "pitch": 45,
                "velocity": 40,
                "duration": 0.1181818,
                "tempo": 120.0
            },
            {
                "start_time": 45.2090909,
                "end_time": 45.3295455,
                "pitch": 40,
                "velocity": 40,
                "duration": 0.1204545,
                "tempo": 120.0
            },
            {
                "start_time": 45.3454545,
                "end_time": 45.4659091,
                "pitch": 41,
                "velocity": 40,
                "duration": 0.1204545,
                "tempo": 120.0
            },
            {
                "start_time": 45.4818182,
                "end_time": 45.6,
                "pitch": 40,
                "velocity": 40,
                "duration": 0.1181818,
                "tempo": 120.0
            },
            {
                "start_time": 45.6181818,
                "end_time": 45.7318182,
                "pitch": 45,
                "velocity": 40,
                "duration": 0.1136364,
                "tempo": 120.0
            },
            {
                "start_time": 45.75,
                "end_time": 45.8636364,
                "pitch": 40,
                "velocity": 40,
                "duration": 0.1136364,
                "tempo": 120.0
            },
            {
                "start_time": 45.8795455,
                "end_time": 45.9954545,
                "pitch": 41,
                "velocity": 40,
                "duration": 0.1159091,
                "tempo": 120.0
            },
            {
                "start_time": 46.0113636,
                "end_time": 46.1272727,
                "pitch": 40,
                "velocity": 40,
                "duration": 0.1159091,
                "tempo": 120.0
            },
            {
                "start_time": 46.1431818,
                "end_time": 46.2613636,
                "pitch": 45,
                "velocity": 40,
                "duration": 0.1181818,
                "tempo": 120.0
            },
            {
                "start_time": 46.2795455,
                "end_time": 46.3977273,
                "pitch": 40,
                "velocity": 40,
                "duration": 0.1181818,
                "tempo": 120.0
            },
            {
                "start_time": 46.4159091,
                "end_time": 46.5340909,
                "pitch": 41,
                "velocity": 40,
                "duration": 0.1181818,
                "tempo": 120.0
            },
            {
                "start_time": 46.55,
                "end_time": 46.6704545,
                "pitch": 40,
                "velocity": 40,
                "duration": 0.1204545,
                "tempo": 120.0
            },
            {
                "start_time": 46.6863636,
                "end_time": 46.8045455,
                "pitch": 45,
                "velocity": 40,
                "duration": 0.1181818,
                "tempo": 120.0
            },
            {
                "start_time": 46.8204545,
                "end_time": 46.9363636,
                "pitch": 40,
                "velocity": 40,
                "duration": 0.1159091,
                "tempo": 120.0
            },
            {
                "start_time": 46.9545455,
                "end_time": 47.0704545,
                "pitch": 41,
                "velocity": 40,
                "duration": 0.1159091,
                "tempo": 120.0
            },
            {
                "start_time": 47.0886364,
                "end_time": 47.2045455,
                "pitch": 40,
                "velocity": 40,
                "duration": 0.1159091,
                "tempo": 120.0
            },
            {
                "start_time": 47.2204545,
                "end_time": 47.3409091,
                "pitch": 45,
                "velocity": 40,
                "duration": 0.1204545,
                "tempo": 120.0
            },
            {
                "start_time": 47.3568182,
                "end_time": 47.4772727,
                "pitch": 40,
                "velocity": 40,
                "duration": 0.1204545,
                "tempo": 120.0
            },
            {
                "start_time": 47.4931818,
                "end_time": 47.6113636,
                "pitch": 41,
                "velocity": 40,
                "duration": 0.1181818,
                "tempo": 120.0
            },
            {
                "start_time": 47.6295455,
                "end_time": 47.7477273,
                "pitch": 40,
                "velocity": 40,
                "duration": 0.1181818,
                "tempo": 120.0
            },
            {
                "start_time": 47.7659091,
                "end_time": 47.8818182,
                "pitch": 45,
                "velocity": 40,
                "duration": 0.1159091,
                "tempo": 120.0
            },
            {
                "start_time": 47.8977273,
                "end_time": 48.0159091,
                "pitch": 40,
                "velocity": 40,
                "duration": 0.1181818,
                "tempo": 120.0
            },
            {
                "start_time": 48.0318182,
                "end_time": 48.15,
                "pitch": 41,
                "velocity": 40,
                "duration": 0.1181818,
                "tempo": 120.0
            },
            {
                "start_time": 48.1659091,
                "end_time": 48.2818182,
                "pitch": 40,
                "velocity": 40,
                "duration": 0.1159091,
                "tempo": 120.0
            },
            {
                "start_time": 48.3,
                "end_time": 48.4159091,
                "pitch": 45,
                "velocity": 40,
                "duration": 0.1159091,
                "tempo": 120.0
            },
            {
                "start_time": 48.4340909,
                "end_time": 48.55,
                "pitch": 40,
                "velocity": 40,
                "duration": 0.1159091,
                "tempo": 120.0
            },
            {
                "start_time": 48.5659091,
                "end_time": 48.6840909,
                "pitch": 41,
                "velocity": 40,
                "duration": 0.1181818,
                "tempo": 120.0
            },
            {
                "start_time": 48.7,
                "end_time": 48.8181818,
                "pitch": 40,
                "velocity": 40,
                "duration": 0.1181818,
                "tempo": 120.0
            },
            {
                "start_time": 48.8340909,
                "end_time": 48.9522727,
                "pitch": 45,
                "velocity": 40,
                "duration": 0.1181818,
                "tempo": 120.0
            },
            {
                "start_time": 48.9704545,
                "end_time": 49.0886364,
                "pitch": 40,
                "velocity": 40,
                "duration": 0.1181818,
                "tempo": 120.0
            },
            {
                "start_time": 49.1068182,
                "end_time": 49.225,
                "pitch": 41,
                "velocity": 40,
                "duration": 0.1181818,
                "tempo": 120.0
            },
            {
                "start_time": 49.2409091,
                "end_time": 49.3613636,
                "pitch": 40,
                "velocity": 40,
                "duration": 0.1204545,
                "tempo": 120.0
            },
            {
                "start_time": 49.3772727,
                "end_time": 49.4954545,
                "pitch": 45,
                "velocity": 40,
                "duration": 0.1181818,
                "tempo": 120.0
            },
            {
                "start_time": 49.5113636,
                "end_time": 49.6272727,
                "pitch": 40,
                "velocity": 40,
                "duration": 0.1159091,
                "tempo": 120.0
            },
            {
                "start_time": 49.6454545,
                "end_time": 49.7613636,
                "pitch": 41,
                "velocity": 40,
                "duration": 0.1159091,
                "tempo": 120.0
            },
            {
                "start_time": 49.7795455,
                "end_time": 49.8954545,
                "pitch": 40,
                "velocity": 40,
                "duration": 0.1159091,
                "tempo": 120.0
            },
            {
                "start_time": 49.9113636,
                "end_time": 50.0295455,
                "pitch": 45,
                "velocity": 40,
                "duration": 0.1181818,
                "tempo": 120.0
            },
            {
                "start_time": 50.0454545,
                "end_time": 50.1636364,
                "pitch": 40,
                "velocity": 40,
                "duration": 0.1181818,
                "tempo": 120.0
            },
            {
                "start_time": 50.1795455,
                "end_time": 50.2954545,
                "pitch": 41,
                "velocity": 40,
                "duration": 0.1159091,
                "tempo": 120.0
            },
            {
                "start_time": 50.3136364,
                "end_time": 50.4295455,
                "pitch": 40,
                "velocity": 40,
                "duration": 0.1159091,
                "tempo": 120.0
            },
            {
                "start_time": 50.4477273,
                "end_time": 50.5659091,
                "pitch": 45,
                "velocity": 40,
                "duration": 0.1181818,
                "tempo": 120.0
            },
            {
                "start_time": 50.5818182,
                "end_time": 50.7022727,
                "pitch": 40,
                "velocity": 40,
                "duration": 0.1204545,
                "tempo": 120.0
            },
            {
                "start_time": 50.7181818,
                "end_time": 50.8386364,
                "pitch": 41,
                "velocity": 40,
                "duration": 0.1204545,
                "tempo": 120.0
            },
            {
                "start_time": 50.8545455,
                "end_time": 50.9727273,
                "pitch": 40,
                "velocity": 40,
                "duration": 0.1181818,
                "tempo": 120.0
            },
            {
                "start_time": 50.9909091,
                "end_time": 51.1068182,
                "pitch": 45,
                "velocity": 40,
                "duration": 0.1159091,
                "tempo": 120.0
            },
            {
                "start_time": 51.125,
                "end_time": 51.2409091,
                "pitch": 40,
                "velocity": 40,
                "duration": 0.1159091,
                "tempo": 120.0
            },
            {
                "start_time": 51.2568182,
                "end_time": 51.375,
                "pitch": 41,
                "velocity": 40,
                "duration": 0.1181818,
                "tempo": 120.0
            },
            {
                "start_time": 51.3909091,
                "end_time": 51.5090909,
                "pitch": 40,
                "velocity": 40,
                "duration": 0.1181818,
                "tempo": 120.0
            },
            {
                "start_time": 51.525,
                "end_time": 51.6431818,
                "pitch": 45,
                "velocity": 40,
                "duration": 0.1181818,
                "tempo": 120.0
            },
            {
                "start_time": 51.6613636,
                "end_time": 51.7795455,
                "pitch": 40,
                "velocity": 40,
                "duration": 0.1181818,
                "tempo": 120.0
            },
            {
                "start_time": 51.7977273,
                "end_time": 51.9159091,
                "pitch": 41,
                "velocity": 40,
                "duration": 0.1181818,
                "tempo": 120.0
            },
            {
                "start_time": 51.9318182,
                "end_time": 52.0522727,
                "pitch": 40,
                "velocity": 40,
                "duration": 0.1204545,
                "tempo": 120.0
            },
            {
                "start_time": 52.0681818,
                "end_time": 52.1840909,
                "pitch": 45,
                "velocity": 40,
                "duration": 0.1159091,
                "tempo": 120.0
            },
            {
                "start_time": 52.2,
                "end_time": 52.3136364,
                "pitch": 40,
                "velocity": 40,
                "duration": 0.1136364,
                "tempo": 120.0
            },
            {
                "start_time": 52.3318182,
                "end_time": 52.4454545,
                "pitch": 41,
                "velocity": 40,
                "duration": 0.1136364,
                "tempo": 120.0
            },
            {
                "start_time": 52.4613636,
                "end_time": 52.5772727,
                "pitch": 40,
                "velocity": 40,
                "duration": 0.1159091,
                "tempo": 120.0
            },
            {
                "start_time": 52.5931818,
                "end_time": 52.7136364,
                "pitch": 45,
                "velocity": 40,
                "duration": 0.1204545,
                "tempo": 120.0
            },
            {
                "start_time": 52.7295455,
                "end_time": 52.8477273,
                "pitch": 40,
                "velocity": 40,
                "duration": 0.1181818,
                "tempo": 120.0
            },
            {
                "start_time": 52.8659091,
                "end_time": 52.9840909,
                "pitch": 41,
                "velocity": 40,
                "duration": 0.1181818,
                "tempo": 120.0
            },
            {
                "start_time": 53.0022727,
                "end_time": 53.1204545,
                "pitch": 40,
                "velocity": 40,
                "duration": 0.1181818,
                "tempo": 120.0
            },
            {
                "start_time": 53.1386364,
                "end_time": 53.2545455,
                "pitch": 45,
                "velocity": 40,
                "duration": 0.1159091,
                "tempo": 120.0
            },
            {
                "start_time": 53.2704545,
                "end_time": 53.3886364,
                "pitch": 40,
                "velocity": 40,
                "duration": 0.1181818,
                "tempo": 120.0
            },
            {
                "start_time": 53.4045455,
                "end_time": 53.5227273,
                "pitch": 41,
                "velocity": 40,
                "duration": 0.1181818,
                "tempo": 120.0
            },
            {
                "start_time": 53.5386364,
                "end_time": 53.6545455,
                "pitch": 42,
                "velocity": 40,
                "duration": 0.1159091,
                "tempo": 120.0
            },
            {
                "start_time": 53.6727273,
                "end_time": 53.7909091,
                "pitch": 47,
                "velocity": 40,
                "duration": 0.1181818,
                "tempo": 120.0
            },
            {
                "start_time": 53.8090909,
                "end_time": 53.9272727,
                "pitch": 42,
                "velocity": 40,
                "duration": 0.1181818,
                "tempo": 120.0
            },
            {
                "start_time": 53.9431818,
                "end_time": 54.0636364,
                "pitch": 43,
                "velocity": 40,
                "duration": 0.1204545,
                "tempo": 120.0
            },
            {
                "start_time": 54.0795455,
                "end_time": 54.2,
                "pitch": 42,
                "velocity": 40,
                "duration": 0.1204545,
                "tempo": 120.0
            },
            {
                "start_time": 54.2159091,
                "end_time": 54.3318182,
                "pitch": 47,
                "velocity": 40,
                "duration": 0.1159091,
                "tempo": 120.0
            },
            {
                "start_time": 54.35,
                "end_time": 54.4659091,
                "pitch": 42,
                "velocity": 40,
                "duration": 0.1159091,
                "tempo": 120.0
            },
            {
                "start_time": 54.4840909,
                "end_time": 54.6,
                "pitch": 43,
                "velocity": 40,
                "duration": 0.1159091,
                "tempo": 120.0
            },
            {
                "start_time": 54.6159091,
                "end_time": 54.7340909,
                "pitch": 42,
                "velocity": 40,
                "duration": 0.1181818,
                "tempo": 120.0
            },
            {
                "start_time": 54.75,
                "end_time": 54.8681818,
                "pitch": 47,
                "velocity": 40,
                "duration": 0.1181818,
                "tempo": 120.0
            },
            {
                "start_time": 54.8840909,
                "end_time": 55.0,
                "pitch": 42,
                "velocity": 40,
                "duration": 0.1159091,
                "tempo": 120.0
            },
            {
                "start_time": 55.0181818,
                "end_time": 55.1340909,
                "pitch": 43,
                "velocity": 40,
                "duration": 0.1159091,
                "tempo": 120.0
            },
            {
                "start_time": 55.1522727,
                "end_time": 55.2681818,
                "pitch": 42,
                "velocity": 40,
                "duration": 0.1159091,
                "tempo": 120.0
            },
            {
                "start_time": 55.2840909,
                "end_time": 55.4022727,
                "pitch": 47,
                "velocity": 40,
                "duration": 0.1181818,
                "tempo": 120.0
            },
            {
                "start_time": 55.4181818,
                "end_time": 55.5363636,
                "pitch": 42,
                "velocity": 40,
                "duration": 0.1181818,
                "tempo": 120.0
            },
            {
                "start_time": 55.5522727,
                "end_time": 55.6681818,
                "pitch": 43,
                "velocity": 40,
                "duration": 0.1159091,
                "tempo": 120.0
            },
            {
                "start_time": 55.6863636,
                "end_time": 55.8022727,
                "pitch": 42,
                "velocity": 40,
                "duration": 0.1159091,
                "tempo": 120.0
            },
            {
                "start_time": 55.8181818,
                "end_time": 55.9386364,
                "pitch": 47,
                "velocity": 40,
                "duration": 0.1204545,
                "tempo": 120.0
            },
            {
                "start_time": 55.9545455,
                "end_time": 56.075,
                "pitch": 42,
                "velocity": 40,
                "duration": 0.1204545,
                "tempo": 120.0
            },
            {
                "start_time": 56.0909091,
                "end_time": 56.2090909,
                "pitch": 43,
                "velocity": 40,
                "duration": 0.1181818,
                "tempo": 120.0
            },
            {
                "start_time": 56.2272727,
                "end_time": 56.3454545,
                "pitch": 42,
                "velocity": 40,
                "duration": 0.1181818,
                "tempo": 120.0
            },
            {
                "start_time": 56.3636364,
                "end_time": 56.4818182,
                "pitch": 47,
                "velocity": 40,
                "duration": 0.1181818,
                "tempo": 120.0
            },
            {
                "start_time": 56.5,
                "end_time": 56.6181818,
                "pitch": 42,
                "velocity": 40,
                "duration": 0.1181818,
                "tempo": 120.0
            },
            {
                "start_time": 56.6340909,
                "end_time": 56.7545455,
                "pitch": 43,
                "velocity": 40,
                "duration": 0.1204545,
                "tempo": 120.0
            },
            {
                "start_time": 56.7704545,
                "end_time": 56.8909091,
                "pitch": 42,
                "velocity": 40,
                "duration": 0.1204545,
                "tempo": 120.0
            },
            {
                "start_time": 56.9068182,
                "end_time": 57.025,
                "pitch": 47,
                "velocity": 40,
                "duration": 0.1181818,
                "tempo": 120.0
            },
            {
                "start_time": 57.0409091,
                "end_time": 57.1568182,
                "pitch": 42,
                "velocity": 40,
                "duration": 0.1159091,
                "tempo": 120.0
            },
            {
                "start_time": 57.175,
                "end_time": 57.2909091,
                "pitch": 43,
                "velocity": 40,
                "duration": 0.1159091,
                "tempo": 120.0
            },
            {
                "start_time": 57.3090909,
                "end_time": 57.425,
                "pitch": 42,
                "velocity": 40,
                "duration": 0.1159091,
                "tempo": 120.0
            },
            {
                "start_time": 57.4409091,
                "end_time": 57.5590909,
                "pitch": 47,
                "velocity": 40,
                "duration": 0.1181818,
                "tempo": 120.0
            },
            {
                "start_time": 57.575,
                "end_time": 57.6931818,
                "pitch": 42,
                "velocity": 40,
                "duration": 0.1181818,
                "tempo": 120.0
            },
            {
                "start_time": 57.7090909,
                "end_time": 57.825,
                "pitch": 43,
                "velocity": 40,
                "duration": 0.1159091,
                "tempo": 120.0
            },
            {
                "start_time": 57.8431818,
                "end_time": 57.9590909,
                "pitch": 42,
                "velocity": 40,
                "duration": 0.1159091,
                "tempo": 120.0
            },
            {
                "start_time": 57.975,
                "end_time": 58.0954545,
                "pitch": 47,
                "velocity": 40,
                "duration": 0.1204545,
                "tempo": 120.0
            },
            {
                "start_time": 58.1113636,
                "end_time": 58.2318182,
                "pitch": 42,
                "velocity": 40,
                "duration": 0.1204545,
                "tempo": 120.0
            },
            {
                "start_time": 58.2477273,
                "end_time": 58.3659091,
                "pitch": 43,
                "velocity": 40,
                "duration": 0.1181818,
                "tempo": 120.0
            },
            {
                "start_time": 58.3840909,
                "end_time": 58.5022727,
                "pitch": 42,
                "velocity": 40,
                "duration": 0.1181818,
                "tempo": 120.0
            },
            {
                "start_time": 58.5204545,
                "end_time": 58.6363636,
                "pitch": 47,
                "velocity": 40,
                "duration": 0.1159091,
                "tempo": 120.0
            },
            {
                "start_time": 58.6545455,
                "end_time": 58.7704545,
                "pitch": 42,
                "velocity": 40,
                "duration": 0.1159091,
                "tempo": 120.0
            },
            {
                "start_time": 58.7863636,
                "end_time": 58.9045455,
                "pitch": 43,
                "velocity": 40,
                "duration": 0.1181818,
                "tempo": 120.0
            },
            {
                "start_time": 58.9204545,
                "end_time": 59.0386364,
                "pitch": 42,
                "velocity": 40,
                "duration": 0.1181818,
                "tempo": 120.0
            },
            {
                "start_time": 59.0545455,
                "end_time": 59.1704545,
                "pitch": 47,
                "velocity": 40,
                "duration": 0.1159091,
                "tempo": 120.0
            },
            {
                "start_time": 59.1886364,
                "end_time": 59.3045455,
                "pitch": 42,
                "velocity": 40,
                "duration": 0.1159091,
                "tempo": 120.0
            },
            {
                "start_time": 59.3204545,
                "end_time": 59.4386364,
                "pitch": 43,
                "velocity": 40,
                "duration": 0.1181818,
                "tempo": 120.0
            },
            {
                "start_time": 59.4545455,
                "end_time": 59.5727273,
                "pitch": 42,
                "velocity": 40,
                "duration": 0.1181818,
                "tempo": 120.0
            },
            {
                "start_time": 59.5886364,
                "end_time": 59.7045455,
                "pitch": 47,
                "velocity": 40,
                "duration": 0.1159091,
                "tempo": 120.0
            },
            {
                "start_time": 59.7227273,
                "end_time": 59.8386364,
                "pitch": 42,
                "velocity": 40,
                "duration": 0.1159091,
                "tempo": 120.0
            },
            {
                "start_time": 59.8568182,
                "end_time": 59.9727273,
                "pitch": 43,
                "velocity": 40,
                "duration": 0.1159091,
                "tempo": 120.0
            },
            {
                "start_time": 59.9886364,
                "end_time": 60.1068182,
                "pitch": 42,
                "velocity": 40,
                "duration": 0.1181818,
                "tempo": 120.0
            },
            {
                "start_time": 60.1227273,
                "end_time": 60.2431818,
                "pitch": 47,
                "velocity": 40,
                "duration": 0.1204545,
                "tempo": 120.0
            },
            {
                "start_time": 60.2590909,
                "end_time": 60.3772727,
                "pitch": 42,
                "velocity": 40,
                "duration": 0.1181818,
                "tempo": 120.0
            },
            {
                "start_time": 60.3954545,
                "end_time": 60.5136364,
                "pitch": 43,
                "velocity": 40,
                "duration": 0.1181818,
                "tempo": 120.0
            },
            {
                "start_time": 60.5318182,
                "end_time": 60.65,
                "pitch": 42,
                "velocity": 40,
                "duration": 0.1181818,
                "tempo": 120.0
            },
            {
                "start_time": 60.6659091,
                "end_time": 60.7840909,
                "pitch": 47,
                "velocity": 40,
                "duration": 0.1181818,
                "tempo": 120.0
            },
            {
                "start_time": 60.8,
                "end_time": 60.9181818,
                "pitch": 42,
                "velocity": 40,
                "duration": 0.1181818,
                "tempo": 120.0
            },
            {
                "start_time": 60.9340909,
                "end_time": 61.05,
                "pitch": 43,
                "velocity": 40,
                "duration": 0.1159091,
                "tempo": 120.0
            },
            {
                "start_time": 61.0681818,
                "end_time": 61.1840909,
                "pitch": 42,
                "velocity": 40,
                "duration": 0.1159091,
                "tempo": 120.0
            },
            {
                "start_time": 61.2022727,
                "end_time": 61.3181818,
                "pitch": 47,
                "velocity": 40,
                "duration": 0.1159091,
                "tempo": 120.0
            },
            {
                "start_time": 61.3340909,
                "end_time": 61.4522727,
                "pitch": 42,
                "velocity": 40,
                "duration": 0.1181818,
                "tempo": 120.0
            },
            {
                "start_time": 61.4681818,
                "end_time": 61.5863636,
                "pitch": 43,
                "velocity": 40,
                "duration": 0.1181818,
                "tempo": 120.0
            },
            {
                "start_time": 61.6022727,
                "end_time": 61.7181818,
                "pitch": 42,
                "velocity": 40,
                "duration": 0.1159091,
                "tempo": 120.0
            },
            {
                "start_time": 61.7363636,
                "end_time": 61.8545455,
                "pitch": 47,
                "velocity": 40,
                "duration": 0.1181818,
                "tempo": 120.0
            },
            {
                "start_time": 61.8727273,
                "end_time": 61.9909091,
                "pitch": 42,
                "velocity": 40,
                "duration": 0.1181818,
                "tempo": 120.0
            },
            {
                "start_time": 62.0068182,
                "end_time": 62.1272727,
                "pitch": 43,
                "velocity": 40,
                "duration": 0.1204545,
                "tempo": 120.0
            }
        ],
        "Harpsichord": [
            {
                "start_time": 23.9318182,
                "end_time": 24.0181818,
                "pitch": 52,
                "velocity": 40,
                "duration": 0.0863636,
                "tempo": 120.0
            },
            {
                "start_time": 24.0340909,
                "end_time": 24.1204545,
                "pitch": 52,
                "velocity": 40,
                "duration": 0.0863636,
                "tempo": 120.0
            },
            {
                "start_time": 24.1340909,
                "end_time": 24.2227273,
                "pitch": 52,
                "velocity": 40,
                "duration": 0.0886364,
                "tempo": 120.0
            },
            {
                "start_time": 24.2363636,
                "end_time": 24.3227273,
                "pitch": 52,
                "velocity": 40,
                "duration": 0.0863636,
                "tempo": 120.0
            },
            {
                "start_time": 24.3386364,
                "end_time": 24.425,
                "pitch": 52,
                "velocity": 40,
                "duration": 0.0863636,
                "tempo": 120.0
            },
            {
                "start_time": 24.4409091,
                "end_time": 24.5272727,
                "pitch": 52,
                "velocity": 40,
                "duration": 0.0863636,
                "tempo": 120.0
            },
            {
                "start_time": 24.5409091,
                "end_time": 24.6295455,
                "pitch": 52,
                "velocity": 40,
                "duration": 0.0886364,
                "tempo": 120.0
            },
            {
                "start_time": 24.6431818,
                "end_time": 24.7295455,
                "pitch": 52,
                "velocity": 40,
                "duration": 0.0863636,
                "tempo": 120.0
            },
            {
                "start_time": 24.7454545,
                "end_time": 24.8340909,
                "pitch": 52,
                "velocity": 40,
                "duration": 0.0886364,
                "tempo": 120.0
            },
            {
                "start_time": 24.85,
                "end_time": 24.9386364,
                "pitch": 52,
                "velocity": 40,
                "duration": 0.0886364,
                "tempo": 120.0
            },
            {
                "start_time": 24.9522727,
                "end_time": 25.0431818,
                "pitch": 52,
                "velocity": 40,
                "duration": 0.0909091,
                "tempo": 120.0
            },
            {
                "start_time": 25.0568182,
                "end_time": 25.1454545,
                "pitch": 52,
                "velocity": 40,
                "duration": 0.0886364,
                "tempo": 120.0
            },
            {
                "start_time": 25.1613636,
                "end_time": 25.25,
                "pitch": 52,
                "velocity": 40,
                "duration": 0.0886364,
                "tempo": 120.0
            },
            {
                "start_time": 25.2659091,
                "end_time": 25.3545455,
                "pitch": 52,
                "velocity": 40,
                "duration": 0.0886364,
                "tempo": 120.0
            },
            {
                "start_time": 25.3681818,
                "end_time": 25.4590909,
                "pitch": 52,
                "velocity": 40,
                "duration": 0.0909091,
                "tempo": 120.0
            },
            {
                "start_time": 25.4727273,
                "end_time": 25.5613636,
                "pitch": 54,
                "velocity": 40,
                "duration": 0.0886364,
                "tempo": 120.0
            },
            {
                "start_time": 25.5772727,
                "end_time": 25.6636364,
                "pitch": 54,
                "velocity": 40,
                "duration": 0.0863636,
                "tempo": 120.0
            },
            {
                "start_time": 25.6772727,
                "end_time": 25.7659091,
                "pitch": 54,
                "velocity": 40,
                "duration": 0.0886364,
                "tempo": 120.0
            },
            {
                "start_time": 25.7795455,
                "end_time": 25.8659091,
                "pitch": 54,
                "velocity": 40,
                "duration": 0.0863636,
                "tempo": 120.0
            },
            {
                "start_time": 25.8818182,
                "end_time": 25.9681818,
                "pitch": 54,
                "velocity": 40,
                "duration": 0.0863636,
                "tempo": 120.0
            },
            {
                "start_time": 25.9840909,
                "end_time": 26.0727273,
                "pitch": 54,
                "velocity": 40,
                "duration": 0.0886364,
                "tempo": 120.0
            },
            {
                "start_time": 26.0863636,
                "end_time": 26.1772727,
                "pitch": 54,
                "velocity": 40,
                "duration": 0.0909091,
                "tempo": 120.0
            },
            {
                "start_time": 26.1909091,
                "end_time": 26.2795455,
                "pitch": 54,
                "velocity": 40,
                "duration": 0.0886364,
                "tempo": 120.0
            },
            {
                "start_time": 26.2954545,
                "end_time": 26.3840909,
                "pitch": 54,
                "velocity": 40,
                "duration": 0.0886364,
                "tempo": 120.0
            },
            {
                "start_time": 26.4,
                "end_time": 26.4863636,
                "pitch": 54,
                "velocity": 40,
                "duration": 0.0863636,
                "tempo": 120.0
            },
            {
                "start_time": 26.5,
                "end_time": 26.5886364,
                "pitch": 54,
                "velocity": 40,
                "duration": 0.0886364,
                "tempo": 120.0
            },
            {
                "start_time": 26.6022727,
                "end_time": 26.6886364,
                "pitch": 54,
                "velocity": 40,
                "duration": 0.0863636,
                "tempo": 120.0
            },
            {
                "start_time": 26.7045455,
                "end_time": 26.7909091,
                "pitch": 54,
                "velocity": 40,
                "duration": 0.0863636,
                "tempo": 120.0
            },
            {
                "start_time": 26.8068182,
                "end_time": 26.8954545,
                "pitch": 54,
                "velocity": 40,
                "duration": 0.0886364,
                "tempo": 120.0
            },
            {
                "start_time": 26.9090909,
                "end_time": 27.0,
                "pitch": 54,
                "velocity": 40,
                "duration": 0.0909091,
                "tempo": 120.0
            },
            {
                "start_time": 27.0136364,
                "end_time": 27.1022727,
                "pitch": 54,
                "velocity": 40,
                "duration": 0.0886364,
                "tempo": 120.0
            },
            {
                "start_time": 27.1181818,
                "end_time": 27.2068182,
                "pitch": 57,
                "velocity": 40,
                "duration": 0.0886364,
                "tempo": 120.0
            },
            {
                "start_time": 27.2227273,
                "end_time": 27.3113636,
                "pitch": 57,
                "velocity": 40,
                "duration": 0.0886364,
                "tempo": 120.0
            },
            {
                "start_time": 27.325,
                "end_time": 27.4159091,
                "pitch": 57,
                "velocity": 40,
                "duration": 0.0909091,
                "tempo": 120.0
            },
            {
                "start_time": 27.4295455,
                "end_time": 27.5181818,
                "pitch": 57,
                "velocity": 40,
                "duration": 0.0886364,
                "tempo": 120.0
            },
            {
                "start_time": 27.5340909,
                "end_time": 27.6227273,
                "pitch": 57,
                "velocity": 40,
                "duration": 0.0886364,
                "tempo": 120.0
            },
            {
                "start_time": 27.6363636,
                "end_time": 27.725,
                "pitch": 57,
                "velocity": 40,
                "duration": 0.0886364,
                "tempo": 120.0
            },
            {
                "start_time": 27.7386364,
                "end_time": 27.8272727,
                "pitch": 57,
                "velocity": 40,
                "duration": 0.0886364,
                "tempo": 120.0
            },
            {
                "start_time": 27.8409091,
                "end_time": 27.9272727,
                "pitch": 57,
                "velocity": 40,
                "duration": 0.0863636,
                "tempo": 120.0
            },
            {
                "start_time": 27.9431818,
                "end_time": 28.0295455,
                "pitch": 57,
                "velocity": 40,
                "duration": 0.0863636,
                "tempo": 120.0
            },
            {
                "start_time": 28.0431818,
                "end_time": 28.1340909,
                "pitch": 57,
                "velocity": 40,
                "duration": 0.0909091,
                "tempo": 120.0
            },
            {
                "start_time": 28.1477273,
                "end_time": 28.2363636,
                "pitch": 57,
                "velocity": 40,
                "duration": 0.0886364,
                "tempo": 120.0
            },
            {
                "start_time": 28.2522727,
                "end_time": 28.3409091,
                "pitch": 57,
                "velocity": 40,
                "duration": 0.0886364,
                "tempo": 120.0
            },
            {
                "start_time": 28.3568182,
                "end_time": 28.4454545,
                "pitch": 57,
                "velocity": 40,
                "duration": 0.0886364,
                "tempo": 120.0
            },
            {
                "start_time": 28.4613636,
                "end_time": 28.55,
                "pitch": 57,
                "velocity": 40,
                "duration": 0.0886364,
                "tempo": 120.0
            },
            {
                "start_time": 28.5636364,
                "end_time": 28.6545455,
                "pitch": 57,
                "velocity": 40,
                "duration": 0.0909091,
                "tempo": 120.0
            },
            {
                "start_time": 28.6681818,
                "end_time": 28.7568182,
                "pitch": 57,
                "velocity": 40,
                "duration": 0.0886364,
                "tempo": 120.0
            },
            {
                "start_time": 28.7727273,
                "end_time": 28.8613636,
                "pitch": 59,
                "velocity": 40,
                "duration": 0.0886364,
                "tempo": 120.0
            },
            {
                "start_time": 28.875,
                "end_time": 28.9636364,
                "pitch": 59,
                "velocity": 40,
                "duration": 0.0886364,
                "tempo": 120.0
            },
            {
                "start_time": 28.9772727,
                "end_time": 29.0636364,
                "pitch": 59,
                "velocity": 40,
                "duration": 0.0863636,
                "tempo": 120.0
            },
            {
                "start_time": 29.0795455,
                "end_time": 29.1659091,
                "pitch": 59,
                "velocity": 40,
                "duration": 0.0863636,
                "tempo": 120.0
            },
            {
                "start_time": 29.1818182,
                "end_time": 29.2681818,
                "pitch": 59,
                "velocity": 40,
                "duration": 0.0863636,
                "tempo": 120.0
            },
            {
                "start_time": 29.2818182,
                "end_time": 29.3727273,
                "pitch": 59,
                "velocity": 40,
                "duration": 0.0909091,
                "tempo": 120.0
            },
            {
                "start_time": 29.3863636,
                "end_time": 29.475,
                "pitch": 59,
                "velocity": 40,
                "duration": 0.0886364,
                "tempo": 120.0
            },
            {
                "start_time": 29.4909091,
                "end_time": 29.5795455,
                "pitch": 59,
                "velocity": 40,
                "duration": 0.0886364,
                "tempo": 120.0
            },
            {
                "start_time": 29.5954545,
                "end_time": 29.6840909,
                "pitch": 59,
                "velocity": 40,
                "duration": 0.0886364,
                "tempo": 120.0
            },
            {
                "start_time": 29.6977273,
                "end_time": 29.7886364,
                "pitch": 59,
                "velocity": 40,
                "duration": 0.0909091,
                "tempo": 120.0
            },
            {
                "start_time": 29.8022727,
                "end_time": 29.8909091,
                "pitch": 59,
                "velocity": 40,
                "duration": 0.0886364,
                "tempo": 120.0
            },
            {
                "start_time": 29.9068182,
                "end_time": 29.9954545,
                "pitch": 59,
                "velocity": 40,
                "duration": 0.0886364,
                "tempo": 120.0
            },
            {
                "start_time": 30.0113636,
                "end_time": 30.1,
                "pitch": 59,
                "velocity": 40,
                "duration": 0.0886364,
                "tempo": 120.0
            },
            {
                "start_time": 30.1136364,
                "end_time": 30.2045455,
                "pitch": 59,
                "velocity": 40,
                "duration": 0.0909091,
                "tempo": 120.0
            },
            {
                "start_time": 30.2181818,
                "end_time": 30.3068182,
                "pitch": 59,
                "velocity": 40,
                "duration": 0.0886364,
                "tempo": 120.0
            },
            {
                "start_time": 30.3227273,
                "end_time": 30.4113636,
                "pitch": 59,
                "velocity": 40,
                "duration": 0.0886364,
                "tempo": 120.0
            },
            {
                "start_time": 30.4272727,
                "end_time": 30.5,
                "pitch": 52,
                "velocity": 40,
                "duration": 0.0727273,
                "tempo": 120.0
            },
            {
                "start_time": 30.5159091,
                "end_time": 30.5886364,
                "pitch": 52,
                "velocity": 40,
                "duration": 0.0727273,
                "tempo": 120.0
            },
            {
                "start_time": 30.6022727,
                "end_time": 30.675,
                "pitch": 52,
                "velocity": 40,
                "duration": 0.0727273,
                "tempo": 120.0
            },
            {
                "start_time": 30.6909091,
                "end_time": 30.7636364,
                "pitch": 52,
                "velocity": 40,
                "duration": 0.0727273,
                "tempo": 120.0
            },
            {
                "start_time": 30.7772727,
                "end_time": 30.85,
                "pitch": 52,
                "velocity": 40,
                "duration": 0.0727273,
                "tempo": 120.0
            },
            {
                "start_time": 30.8636364,
                "end_time": 30.9363636,
                "pitch": 52,
                "velocity": 40,
                "duration": 0.0727273,
                "tempo": 120.0
            },
            {
                "start_time": 30.9522727,
                "end_time": 31.0295455,
                "pitch": 52,
                "velocity": 40,
                "duration": 0.0772727,
                "tempo": 120.0
            },
            {
                "start_time": 31.0454545,
                "end_time": 31.1227273,
                "pitch": 52,
                "velocity": 40,
                "duration": 0.0772727,
                "tempo": 120.0
            },
            {
                "start_time": 31.1386364,
                "end_time": 31.2159091,
                "pitch": 52,
                "velocity": 40,
                "duration": 0.0772727,
                "tempo": 120.0
            },
            {
                "start_time": 31.2295455,
                "end_time": 31.3068182,
                "pitch": 52,
                "velocity": 40,
                "duration": 0.0772727,
                "tempo": 120.0
            },
            {
                "start_time": 31.3227273,
                "end_time": 31.4,
                "pitch": 52,
                "velocity": 40,
                "duration": 0.0772727,
                "tempo": 120.0
            },
            {
                "start_time": 31.4136364,
                "end_time": 31.4886364,
                "pitch": 52,
                "velocity": 40,
                "duration": 0.075,
                "tempo": 120.0
            },
            {
                "start_time": 31.5045455,
                "end_time": 31.5772727,
                "pitch": 52,
                "velocity": 40,
                "duration": 0.0727273,
                "tempo": 120.0
            },
            {
                "start_time": 31.5931818,
                "end_time": 31.6681818,
                "pitch": 52,
                "velocity": 40,
                "duration": 0.075,
                "tempo": 120.0
            },
            {
                "start_time": 31.6818182,
                "end_time": 31.7568182,
                "pitch": 52,
                "velocity": 40,
                "duration": 0.075,
                "tempo": 120.0
            },
            {
                "start_time": 31.7704545,
                "end_time": 31.8431818,
                "pitch": 52,
                "velocity": 40,
                "duration": 0.0727273,
                "tempo": 120.0
            },
            {
                "start_time": 31.8568182,
                "end_time": 31.9272727,
                "pitch": 54,
                "velocity": 40,
                "duration": 0.0704545,
                "tempo": 120.0
            },
            {
                "start_time": 31.9409091,
                "end_time": 32.0136364,
                "pitch": 54,
                "velocity": 40,
                "duration": 0.0727273,
                "tempo": 120.0
            },
            {
                "start_time": 32.0272727,
                "end_time": 32.0977273,
                "pitch": 54,
                "velocity": 40,
                "duration": 0.0704545,
                "tempo": 120.0
            },
            {
                "start_time": 32.1113636,
                "end_time": 32.1840909,
                "pitch": 54,
                "velocity": 40,
                "duration": 0.0727273,
                "tempo": 120.0
            },
            {
                "start_time": 32.1977273,
                "end_time": 32.2727273,
                "pitch": 54,
                "velocity": 40,
                "duration": 0.075,
                "tempo": 120.0
            },
            {
                "start_time": 32.2863636,
                "end_time": 32.3613636,
                "pitch": 54,
                "velocity": 40,
                "duration": 0.075,
                "tempo": 120.0
            },
            {
                "start_time": 32.3772727,
                "end_time": 32.45,
                "pitch": 54,
                "velocity": 40,
                "duration": 0.0727273,
                "tempo": 120.0
            },
            {
                "start_time": 32.4659091,
                "end_time": 32.5386364,
                "pitch": 54,
                "velocity": 40,
                "duration": 0.0727273,
                "tempo": 120.0
            },
            {
                "start_time": 32.5545455,
                "end_time": 32.6295455,
                "pitch": 54,
                "velocity": 40,
                "duration": 0.075,
                "tempo": 120.0
            },
            {
                "start_time": 32.6454545,
                "end_time": 32.7227273,
                "pitch": 54,
                "velocity": 40,
                "duration": 0.0772727,
                "tempo": 120.0
            },
            {
                "start_time": 32.7386364,
                "end_time": 32.8181818,
                "pitch": 54,
                "velocity": 40,
                "duration": 0.0795455,
                "tempo": 120.0
            },
            {
                "start_time": 32.8340909,
                "end_time": 32.9113636,
                "pitch": 54,
                "velocity": 40,
                "duration": 0.0772727,
                "tempo": 120.0
            },
            {
                "start_time": 32.9272727,
                "end_time": 33.0068182,
                "pitch": 54,
                "velocity": 40,
                "duration": 0.0795455,
                "tempo": 120.0
            },
            {
                "start_time": 33.0227273,
                "end_time": 33.1,
                "pitch": 54,
                "velocity": 40,
                "duration": 0.0772727,
                "tempo": 120.0
            },
            {
                "start_time": 33.1159091,
                "end_time": 33.1954545,
                "pitch": 54,
                "velocity": 40,
                "duration": 0.0795455,
                "tempo": 120.0
            },
            {
                "start_time": 33.2113636,
                "end_time": 33.2886364,
                "pitch": 54,
                "velocity": 40,
                "duration": 0.0772727,
                "tempo": 120.0
            },
            {
                "start_time": 33.3045455,
                "end_time": 33.3840909,
                "pitch": 57,
                "velocity": 40,
                "duration": 0.0795455,
                "tempo": 120.0
            },
            {
                "start_time": 33.4,
                "end_time": 33.4772727,
                "pitch": 57,
                "velocity": 40,
                "duration": 0.0772727,
                "tempo": 120.0
            },
            {
                "start_time": 33.4931818,
                "end_time": 33.5727273,
                "pitch": 57,
                "velocity": 40,
                "duration": 0.0795455,
                "tempo": 120.0
            },
            {
                "start_time": 33.5886364,
                "end_time": 33.6704545,
                "pitch": 57,
                "velocity": 40,
                "duration": 0.0818182,
                "tempo": 120.0
            },
            {
                "start_time": 33.6863636,
                "end_time": 33.7681818,
                "pitch": 57,
                "velocity": 40,
                "duration": 0.0818182,
                "tempo": 120.0
            },
            {
                "start_time": 33.7863636,
                "end_time": 33.8681818,
                "pitch": 57,
                "velocity": 40,
                "duration": 0.0818182,
                "tempo": 120.0
            },
            {
                "start_time": 33.8840909,
                "end_time": 33.9659091,
                "pitch": 57,
                "velocity": 40,
                "duration": 0.0818182,
                "tempo": 120.0
            },
            {
                "start_time": 33.9818182,
                "end_time": 34.0636364,
                "pitch": 57,
                "velocity": 40,
                "duration": 0.0818182,
                "tempo": 120.0
            },
            {
                "start_time": 34.0795455,
                "end_time": 34.1545455,
                "pitch": 57,
                "velocity": 40,
                "duration": 0.075,
                "tempo": 120.0
            },
            {
                "start_time": 34.1704545,
                "end_time": 34.2454545,
                "pitch": 57,
                "velocity": 40,
                "duration": 0.075,
                "tempo": 120.0
            },
            {
                "start_time": 34.2590909,
                "end_time": 34.3363636,
                "pitch": 57,
                "velocity": 40,
                "duration": 0.0772727,
                "tempo": 120.0
            },
            {
                "start_time": 34.35,
                "end_time": 34.4272727,
                "pitch": 57,
                "velocity": 40,
                "duration": 0.0772727,
                "tempo": 120.0
            },
            {
                "start_time": 34.4409091,
                "end_time": 34.5159091,
                "pitch": 57,
                "velocity": 40,
                "duration": 0.075,
                "tempo": 120.0
            },
            {
                "start_time": 34.5318182,
                "end_time": 34.6113636,
                "pitch": 57,
                "velocity": 40,
                "duration": 0.0795455,
                "tempo": 120.0
            },
            {
                "start_time": 34.6272727,
                "end_time": 34.7045455,
                "pitch": 57,
                "velocity": 40,
                "duration": 0.0772727,
                "tempo": 120.0
            },
            {
                "start_time": 34.7204545,
                "end_time": 34.8,
                "pitch": 57,
                "velocity": 40,
                "duration": 0.0795455,
                "tempo": 120.0
            },
            {
                "start_time": 34.8159091,
                "end_time": 34.8954545,
                "pitch": 59,
                "velocity": 40,
                "duration": 0.0795455,
                "tempo": 120.0
            },
            {
                "start_time": 34.9090909,
                "end_time": 34.9886364,
                "pitch": 59,
                "velocity": 40,
                "duration": 0.0795455,
                "tempo": 120.0
            },
            {
                "start_time": 35.0045455,
                "end_time": 35.0863636,
                "pitch": 59,
                "velocity": 40,
                "duration": 0.0818182,
                "tempo": 120.0
            },
            {
                "start_time": 35.1022727,
                "end_time": 35.1818182,
                "pitch": 59,
                "velocity": 40,
                "duration": 0.0795455,
                "tempo": 120.0
            },
            {
                "start_time": 35.1977273,
                "end_time": 35.2795455,
                "pitch": 59,
                "velocity": 40,
                "duration": 0.0818182,
                "tempo": 120.0
            },
            {
                "start_time": 35.2954545,
                "end_time": 35.375,
                "pitch": 59,
                "velocity": 40,
                "duration": 0.0795455,
                "tempo": 120.0
            },
            {
                "start_time": 35.3909091,
                "end_time": 35.4727273,
                "pitch": 59,
                "velocity": 40,
                "duration": 0.0818182,
                "tempo": 120.0
            },
            {
                "start_time": 35.4886364,
                "end_time": 35.5659091,
                "pitch": 59,
                "velocity": 40,
                "duration": 0.0772727,
                "tempo": 120.0
            },
            {
                "start_time": 35.5795455,
                "end_time": 35.6568182,
                "pitch": 59,
                "velocity": 40,
                "duration": 0.0772727,
                "tempo": 120.0
            },
            {
                "start_time": 35.6727273,
                "end_time": 35.75,
                "pitch": 59,
                "velocity": 40,
                "duration": 0.0772727,
                "tempo": 120.0
            },
            {
                "start_time": 35.7659091,
                "end_time": 35.8431818,
                "pitch": 59,
                "velocity": 40,
                "duration": 0.0772727,
                "tempo": 120.0
            },
            {
                "start_time": 35.8590909,
                "end_time": 35.9363636,
                "pitch": 59,
                "velocity": 40,
                "duration": 0.0772727,
                "tempo": 120.0
            },
            {
                "start_time": 35.9522727,
                "end_time": 36.0340909,
                "pitch": 59,
                "velocity": 40,
                "duration": 0.0818182,
                "tempo": 120.0
            },
            {
                "start_time": 36.0522727,
                "end_time": 36.1340909,
                "pitch": 59,
                "velocity": 40,
                "duration": 0.0818182,
                "tempo": 120.0
            },
            {
                "start_time": 36.1522727,
                "end_time": 36.2340909,
                "pitch": 59,
                "velocity": 40,
                "duration": 0.0818182,
                "tempo": 120.0
            },
            {
                "start_time": 36.2522727,
                "end_time": 36.3340909,
                "pitch": 59,
                "velocity": 40,
                "duration": 0.0818182,
                "tempo": 120.0
            }
        ]
    }
}