{
    "mood": "sad",
    "instruments": {
        "Church Organ": [
            {
                "start_time": 0.0,
                "end_time": 0.1659091,
                "pitch": 72,
                "velocity": 80,
                "duration": 0.1659091,
                "tempo": 120.0
            },
            {
                "start_time": 0.1840909,
                "end_time": 0.3659091,
                "pitch": 74,
                "velocity": 80,
                "duration": 0.1818182,
                "tempo": 120.0
            },
            {
                "start_time": 0.3840909,
                "end_time": 0.5681818,
                "pitch": 75,
                "velocity": 80,
                "duration": 0.1840909,
                "tempo": 120.0
            },
            {
                "start_time": 0.5840909,
                "end_time": 0.7681818,
                "pitch": 77,
                "velocity": 80,
                "duration": 0.1840909,
                "tempo": 120.0
            },
            {
                "start_time": 0.7840909,
                "end_time": 0.9613636,
                "pitch": 79,
                "velocity": 80,
                "duration": 0.1772727,
                "tempo": 120.0
            },
            {
                "start_time": 0.9772727,
                "end_time": 1.1522727,
                "pitch": 84,
                "velocity": 80,
                "duration": 0.175,
                "tempo": 120.0
            },
            {
                "start_time": 1.1681818,
                "end_time": 1.2181818,
                "pitch": 79,
                "velocity": 80,
                "duration": 0.05,
                "tempo": 120.0
            },
            {
                "start_time": 1.2340909,
                "end_time": 1.2840909,
                "pitch": 80,
                "velocity": 80,
                "duration": 0.05,
                "tempo": 120.0
            },
            {
                "start_time": 1.3022727,
                "end_time": 1.5522727,
                "pitch": 79,
                "velocity": 80,
                "duration": 0.25,
                "tempo": 120.0
            },
            {
                "start_time": 1.5681818,
                "end_time": 1.7613636,
                "pitch": 78,
                "velocity": 80,
                "duration": 0.1931818,
                "tempo": 120.0
            },
            {
                "start_time": 1.7795455,
                "end_time": 1.9727273,
                "pitch": 84,
                "velocity": 80,
                "duration": 0.1931818,
                "tempo": 120.0
            },
            {
                "start_time": 1.9909091,
                "end_time": 2.0409091,
                "pitch": 78,
                "velocity": 80,
                "duration": 0.05,
                "tempo": 120.0
            },
            {
                "start_time": 2.0568182,
                "end_time": 2.1068182,
                "pitch": 79,
                "velocity": 80,
                "duration": 0.05,
                "tempo": 120.0
            },
            {
                "start_time": 2.1227273,
                "end_time": 2.3727273,
                "pitch": 78,
                "velocity": 80,
                "duration": 0.25,
                "tempo": 120.0
            },
            {
                "start_time": 2.3909091,
                "end_time": 2.5659091,
                "pitch": 77,
                "velocity": 80,
                "duration": 0.175,
                "tempo": 120.0
            },
            {
                "start_time": 2.5818182,
                "end_time": 2.7568182,
                "pitch": 84,
                "velocity": 80,
                "duration": 0.175,
                "tempo": 120.0
            },
            {
                "start_time": 2.7727273,
                "end_time": 2.825,
                "pitch": 77,
                "velocity": 80,
                "duration": 0.0522727,
                "tempo": 120.0
            },
            {
                "start_time": 2.8409091,
                "end_time": 2.8954545,
                "pitch": 78,
                "velocity": 80,
                "duration": 0.0545455,
                "tempo": 120.0
            },
            {
                "start_time": 2.9113636,
                "end_time": 3.1772727,
                "pitch": 77,
                "velocity": 80,
                "duration": 0.2659091,
                "tempo": 120.0
            },
            {
                "start_time": 3.1931818,
                "end_time": 3.3681818,
                "pitch": 72,
                "velocity": 80,
                "duration": 0.175,
                "tempo": 120.0
            },
            {
                "start_time": 3.3840909,
                "end_time": 3.5590909,
                "pitch": 74,
                "velocity": 80,
                "duration": 0.175,
                "tempo": 120.0
            },
            {
                "start_time": 3.575,
                "end_time": 3.7590909,
                "pitch": 75,
                "velocity": 80,
                "duration": 0.1840909,
                "tempo": 120.0
            },
            {
                "start_time": 3.775,
                "end_time": 3.9590909,
                "pitch": 77,
                "velocity": 80,
                "duration": 0.1840909,
                "tempo": 120.0
            },
            {
                "start_time": 3.975,
                "end_time": 4.1590909,
                "pitch": 79,
                "velocity": 80,
                "duration": 0.1840909,
                "tempo": 120.0
            },
            {
                "start_time": 4.1772727,
                "end_time": 4.3613636,
                "pitch": 78,
                "velocity": 80,
                "duration": 0.1840909,
                "tempo": 120.0
            },
            {
                "start_time": 4.3772727,
                "end_time": 4.5613636,
                "pitch": 79,
                "velocity": 80,
                "duration": 0.1840909,
                "tempo": 120.0
            },
            {
                "start_time": 4.5772727,
                "end_time": 4.7613636,
                "pitch": 84,
                "velocity": 80,
                "duration": 0.1840909,
                "tempo": 120.0
            },
            {
                "start_time": 4.7772727,
                "end_time": 4.9613636,
                "pitch": 87,
                "velocity": 80,
                "duration": 0.1840909,
                "tempo": 120.0
            },
            {
                "start_time": 4.9772727,
                "end_time": 5.1613636,
                "pitch": 84,
                "velocity": 80,
                "duration": 0.1840909,
                "tempo": 120.0
            },
            {
                "start_time": 5.1772727,
                "end_time": 5.3636364,
                "pitch": 86,
                "velocity": 80,
                "duration": 0.1863636,
                "tempo": 120.0
            },
            {
                "start_time": 5.3795455,
                "end_time": 5.5636364,
                "pitch": 83,
                "velocity": 80,
                "duration": 0.1840909,
                "tempo": 120.0
            },
            {
                "start_time": 5.5818182,
                "end_time": 6.4045455,
                "pitch": 84,
                "velocity": 80,
                "duration": 0.8227273,
                "tempo": 120.0
            }
        ],
        "Acoustic Bass": [
            {
                "start_time": 0.0,
                "end_time": 0.3659091,
                "pitch": 48,
                "velocity": 51,
                "duration": 0.3659091,
                "tempo": 120.0
            },
            {
                "start_time": 0.3840909,
                "end_time": 0.7681818,
                "pitch": 55,
                "velocity": 51,
                "duration": 0.3840909,
                "tempo": 120.0
            },
            {
                "start_time": 0.7840909,
                "end_time": 1.1522727,
                "pitch": 48,
                "velocity": 51,
                "duration": 0.3681818,
                "tempo": 120.0
            },
            {
                "start_time": 1.1681818,
                "end_time": 1.5522727,
                "pitch": 55,
                "velocity": 51,
                "duration": 0.3840909,
                "tempo": 120.0
            },
            {
                "start_time": 1.5681818,
                "end_time": 1.9727273,
                "pitch": 44,
                "velocity": 51,
                "duration": 0.4045455,
                "tempo": 120.0
            },
            {
                "start_time": 1.9909091,
                "end_time": 2.3727273,
                "pitch": 51,
                "velocity": 51,
                "duration": 0.3818182,
                "tempo": 120.0
            },
            {
                "start_time": 2.3909091,
                "end_time": 2.7568182,
                "pitch": 41,
                "velocity": 51,
                "duration": 0.3659091,
                "tempo": 120.0
            },
            {
                "start_time": 2.7727273,
                "end_time": 3.1772727,
                "pitch": 47,
                "velocity": 51,
                "duration": 0.4045455,
                "tempo": 120.0
            },
            {
                "start_time": 3.1931818,
                "end_time": 3.5590909,
                "pitch": 48,
                "velocity": 51,
                "duration": 0.3659091,
                "tempo": 120.0
            },
            {
                "start_time": 3.575,
                "end_time": 3.9590909,
                "pitch": 55,
                "velocity": 51,
                "duration": 0.3840909,
                "tempo": 120.0
            },
            {
                "start_time": 3.975,
                "end_time": 4.3613636,
                "pitch": 48,
                "velocity": 51,
                "duration": 0.3863636,
                "tempo": 120.0
            },
            {
                "start_time": 4.3772727,
                "end_time": 4.7613636,
                "pitch": 55,
                "velocity": 51,
                "duration": 0.3840909,
                "tempo": 120.0
            },
            {
                "start_time": 4.7772727,
                "end_time": 5.1613636,
                "pitch": 48,
                "velocity": 51,
                "duration": 0.3840909,
                "tempo": 120.0
            },
            {
                "start_time": 5.1772727,
                "end_time": 5.5636364,
                "pitch": 43,
                "velocity": 51,
                "duration": 0.3863636,
                "tempo": 120.0
            },
            {
                "start_time": 5.5818182,
                "end_time": 6.4045455,
                "pitch": 48,
                "velocity": 51,
                "duration": 0.8227273,
                "tempo": 120.0
            }
        ],
        "Flute": [
            {
                "start_time": 0.0,
                "end_time": 0.3659091,
                "pitch": 72,
                "velocity": 51,
                "duration": 0.3659091,
                "tempo": 120.0
            },
            {
                "start_time": 0.3840909,
                "end_time": 0.7681818,
                "pitch": 71,
                "velocity": 51,
                "duration": 0.3840909,
                "tempo": 120.0
            },
            {
                "start_time": 0.7840909,
                "end_time": 1.1522727,
                "pitch": 70,
                "velocity": 51,
                "duration": 0.3681818,
                "tempo": 120.0
            },
            {
                "start_time": 1.1681818,
                "end_time": 1.5522727,
                "pitch": 69,
                "velocity": 51,
                "duration": 0.3840909,
                "tempo": 120.0
            },
            {
                "start_time": 1.5681818,
                "end_time": 2.3727273,
                "pitch": 68,
                "velocity": 51,
                "duration": 0.8045455,
                "tempo": 120.0
            },
            {
                "start_time": 2.3909091,
                "end_time": 2.7568182,
                "pitch": 65,
                "velocity": 51,
                "duration": 0.3659091,
                "tempo": 120.0
            },
            {
                "start_time": 2.7727273,
                "end_time": 3.1772727,
                "pitch": 71,
                "velocity": 51,
                "duration": 0.4045455,
                "tempo": 120.0
            },
            {
                "start_time": 3.1931818,
                "end_time": 3.5590909,
                "pitch": 72,
                "velocity": 51,
                "duration": 0.3659091,
                "tempo": 120.0
            },
            {
                "start_time": 3.575,
                "end_time": 3.9590909,
                "pitch": 71,
                "velocity": 51,
                "duration": 0.3840909,
                "tempo": 120.0
            },
            {
                "start_time": 3.975,
                "end_time": 4.3613636,
                "pitch": 70,
                "velocity": 51,
                "duration": 0.3863636,
                "tempo": 120.0
            },
            {
                "start_time": 4.3772727,
                "end_time": 4.7613636,
                "pitch": 69,
                "velocity": 51,
                "duration": 0.3840909,
                "tempo": 120.0
            },
            {
                "start_time": 4.7772727,
                "end_time": 5.1613636,
                "pitch": 68,
                "velocity": 51,
                "duration": 0.3840909,
                "tempo": 120.0
            },
            {
                "start_time": 5.1772727,
                "end_time": 5.5636364,
                "pitch": 67,
                "velocity": 51,
                "duration": 0.3863636,
                "tempo": 120.0
            },
            {
                "start_time": 5.5818182,
                "end_time": 6.4045455,
                "pitch": 67,
                "velocity": 51,
                "duration": 0.8227273,
                "tempo": 120.0
            }
        ]
    }
}