{
    "mood": "sad",
    "instruments": {
        "Acoustic Grand Piano": [
            {
                "start_time": 0.15,
                "end_time": 0.2340909,
                "pitch": 60,
                "velocity": 25,
                "duration": 0.0840909,
                "tempo": 120.0
            },
            {
                "start_time": 0.2681818,
                "end_time": 0.3659091,
                "pitch": 55,
                "velocity": 25,
                "duration": 0.0977273,
                "tempo": 120.0
            },
            {
                "start_time": 0.4,
                "end_time": 0.4977273,
                "pitch": 57,
                "velocity": 25,
                "duration": 0.0977273,
                "tempo": 120.0
            },
            {
                "start_time": 0.5318182,
                "end_time": 0.7636364,
                "pitch": 60,
                "velocity": 25,
                "duration": 0.2318182,
                "tempo": 120.0
            },
            {
                "start_time": 0.7977273,
                "end_time": 0.8954545,
                "pitch": 55,
                "velocity": 25,
                "duration": 0.0977273,
                "tempo": 120.0
            },
            {
                "start_time": 0.9295455,
                "end_time": 1.1613636,
                "pitch": 55,
                "velocity": 25,
                "duration": 0.2318182,
                "tempo": 120.0
            },
            {
                "start_time": 1.1931818,
                "end_time": 1.2931818,
                "pitch": 62,
                "velocity": 25,
                "duration": 0.1,
                "tempo": 120.0
            },
            {
                "start_time": 1.325,
                "end_time": 1.425,
                "pitch": 60,
                "velocity": 25,
                "duration": 0.1,
                "tempo": 120.0
            },
            {
                "start_time": 1.4590909,
                "end_time": 1.5568182,
                "pitch": 69,
                "velocity": 25,
                "duration": 0.0977273,
                "tempo": 120.0
            },
            {
                "start_time": 1.5909091,
                "end_time": 1.8227273,
                "pitch": 62,
                "velocity": 25,
                "duration": 0.2318182,
                "tempo": 120.0
            },
            {
                "start_time": 1.8568182,
                "end_time": 1.9568182,
                "pitch": 60,
                "velocity": 25,
                "duration": 0.1,
                "tempo": 120.0
            },
            {
                "start_time": 1.9909091,
                "end_time": 2.2272727,
                "pitch": 57,
                "velocity": 25,
                "duration": 0.2363636,
                "tempo": 120.0
            },
            {
                "start_time": 2.2613636,
                "end_time": 2.3613636,
                "pitch": 63,
                "velocity": 25,
                "duration": 0.1,
                "tempo": 120.0
            },
            {
                "start_time": 2.3931818,
                "end_time": 2.4931818,
                "pitch": 63,
                "velocity": 25,
                "duration": 0.1,
                "tempo": 120.0
            },
            {
                "start_time": 2.5272727,
                "end_time": 2.7590909,
                "pitch": 63,
                "velocity": 25,
                "duration": 0.2318182,
                "tempo": 120.0
            },
            {
                "start_time": 2.7909091,
                "end_time": 3.0363636,
                "pitch": 62,
                "velocity": 25,
                "duration": 0.2454545,
                "tempo": 120.0
            },
            {
                "start_time": 3.0772727,
                "end_time": 3.2022727,
                "pitch": 62,
                "velocity": 25,
                "duration": 0.125,
                "tempo": 120.0
            },
            {
                "start_time": 3.2431818,
                "end_time": 4.0272727,
                "pitch": 60,
                "velocity": 25,
                "duration": 0.7840909,
                "tempo": 120.0
            }
        ],
        "Acoustic Bass": [
            {
                "start_time": 0.1,
                "end_time": 0.175,
                "pitch": 36,
                "velocity": 64,
                "duration": 0.075,
                "tempo": 120.0
            },
            {
                "start_time": 0.2,
                "end_time": 0.3,
                "pitch": 40,
                "velocity": 64,
                "duration": 0.1,
                "tempo": 120.0
            },
            {
                "start_time": 0.3340909,
                "end_time": 0.4318182,
                "pitch": 43,
                "velocity": 64,
                "duration": 0.0977273,
                "tempo": 120.0
            },
            {
                "start_time": 0.4659091,
                "end_time": 0.5659091,
                "pitch": 36,
                "velocity": 64,
                "duration": 0.1,
                "tempo": 120.0
            },
            {
                "start_time": 0.5977273,
                "end_time": 0.6977273,
                "pitch": 36,
                "velocity": 64,
                "duration": 0.1,
                "tempo": 120.0
            },
            {
                "start_time": 0.7295455,
                "end_time": 0.8295455,
                "pitch": 40,
                "velocity": 64,
                "duration": 0.1,
                "tempo": 120.0
            },
            {
                "start_time": 0.8636364,
                "end_time": 0.9613636,
                "pitch": 43,
                "velocity": 64,
                "duration": 0.0977273,
                "tempo": 120.0
            },
            {
                "start_time": 0.9954545,
                "end_time": 1.0954545,
                "pitch": 38,
                "velocity": 64,
                "duration": 0.1,
                "tempo": 120.0
            },
            {
                "start_time": 1.1272727,
                "end_time": 1.2272727,
                "pitch": 38,
                "velocity": 64,
                "duration": 0.1,
                "tempo": 120.0
            },
            {
                "start_time": 1.2590909,
                "end_time": 1.3590909,
                "pitch": 42,
                "velocity": 64,
                "duration": 0.1,
                "tempo": 120.0
            },
            {
                "start_time": 1.3931818,
                "end_time": 1.4909091,
                "pitch": 45,
                "velocity": 64,
                "duration": 0.0977273,
                "tempo": 120.0
            },
            {
                "start_time": 1.525,
                "end_time": 1.6227273,
                "pitch": 38,
                "velocity": 64,
                "duration": 0.0977273,
                "tempo": 120.0
            },
            {
                "start_time": 1.6568182,
                "end_time": 1.7568182,
                "pitch": 38,
                "velocity": 64,
                "duration": 0.1,
                "tempo": 120.0
            },
            {
                "start_time": 1.7886364,
                "end_time": 1.8909091,
                "pitch": 42,
                "velocity": 64,
                "duration": 0.1022727,
                "tempo": 120.0
            },
            {
                "start_time": 1.925,
                "end_time": 2.025,
                "pitch": 45,
                "velocity": 64,
                "duration": 0.1,
                "tempo": 120.0
            },
            {
                "start_time": 2.0590909,
                "end_time": 2.1590909,
                "pitch": 39,
                "velocity": 64,
                "duration": 0.1,
                "tempo": 120.0
            },
            {
                "start_time": 2.1931818,
                "end_time": 2.2954545,
                "pitch": 39,
                "velocity": 64,
                "duration": 0.1022727,
                "tempo": 120.0
            },
            {
                "start_time": 2.5931818,
                "end_time": 2.6931818,
                "pitch": 38,
                "velocity": 64,
                "duration": 0.1,
                "tempo": 120.0
            },
            {
                "start_time": 2.725,
                "end_time": 2.825,
                "pitch": 38,
                "velocity": 64,
                "duration": 0.1,
                "tempo": 120.0
            },
            {
                "start_time": 2.9931818,
                "end_time": 3.7840909,
                "pitch": 36,
                "velocity": 64,
                "duration": 0.7909091,
                "tempo": 120.0
            }
        ],
        "Trumpet": [
            {
                "start_time": 0.1,
                "end_time": 0.175,
                "pitch": 52,
                "velocity": 80,
                "duration": 0.075,
                "tempo": 120.0
            },
            {
                "start_time": 0.2,
                "end_time": 0.3,
                "pitch": 54,
                "velocity": 80,
                "duration": 0.1,
                "tempo": 120.0
            },
            {
                "start_time": 0.3340909,
                "end_time": 0.5659091,
                "pitch": 57,
                "velocity": 80,
                "duration": 0.2318182,
                "tempo": 120.0
            },
            {
                "start_time": 0.5977273,
                "end_time": 0.6977273,
                "pitch": 52,
                "velocity": 80,
                "duration": 0.1,
                "tempo": 120.0
            },
            {
                "start_time": 0.7295455,
                "end_time": 0.9613636,
                "pitch": 54,
                "velocity": 80,
                "duration": 0.2318182,
                "tempo": 120.0
            },
            {
                "start_time": 0.9954545,
                "end_time": 1.0954545,
                "pitch": 59,
                "velocity": 80,
                "duration": 0.1,
                "tempo": 120.0
            },
            {
                "start_time": 1.1272727,
                "end_time": 1.2272727,
                "pitch": 57,
                "velocity": 80,
                "duration": 0.1,
                "tempo": 120.0
            },
            {
                "start_time": 1.2590909,
                "end_time": 1.3590909,
                "pitch": 54,
                "velocity": 80,
                "duration": 0.1,
                "tempo": 120.0
            },
            {
                "start_time": 1.3931818,
                "end_time": 1.6227273,
                "pitch": 59,
                "velocity": 80,
                "duration": 0.2295455,
                "tempo": 120.0
            },
            {
                "start_time": 1.6568182,
                "end_time": 1.7568182,
                "pitch": 57,
                "velocity": 80,
                "duration": 0.1,
                "tempo": 120.0
            },
            {
                "start_time": 1.7886364,
                "end_time": 2.025,
                "pitch": 54,
                "velocity": 80,
                "duration": 0.2363636,
                "tempo": 120.0
            },
            {
                "start_time": 2.0590909,
                "end_time": 2.1590909,
                "pitch": 60,
                "velocity": 80,
                "duration": 0.1,
                "tempo": 120.0
            },
            {
                "start_time": 2.1931818,
                "end_time": 2.2954545,
                "pitch": 60,
                "velocity": 80,
                "duration": 0.1022727,
                "tempo": 120.0
            },
            {
                "start_time": 2.3272727,
                "end_time": 2.5590909,
                "pitch": 60,
                "velocity": 80,
                "duration": 0.2318182,
                "tempo": 120.0
            },
            {
                "start_time": 2.5931818,
                "end_time": 2.825,
                "pitch": 59,
                "velocity": 80,
                "duration": 0.2318182,
                "tempo": 120.0
            },
            {
                "start_time": 2.8568182,
                "end_time": 2.9568182,
                "pitch": 59,
                "velocity": 80,
                "duration": 0.1,
                "tempo": 120.0
            },
            {
                "start_time": 2.9931818,
                "end_time": 3.7840909,
                "pitch": 55,
                "velocity": 80,
                "duration": 0.7909091,
                "tempo": 120.0
            }
        ]
    }
}