{
    "mood": "sad",
    "instruments": {
        "Acoustic Grand Piano": [
            {
                "start_time": 0.3522727,
                "end_time": 0.3772727,
                "pitch": 68,
                "velocity": 64,
                "duration": 0.025,
                "tempo": 120.0
            },
            {
                "start_time": 0.4113636,
                "end_time": 0.6454545,
                "pitch": 69,
                "velocity": 64,
                "duration": 0.2340909,
                "tempo": 120.0
            },
            {
                "start_time": 0.6772727,
                "end_time": 0.9113636,
                "pitch": 68,
                "velocity": 64,
                "duration": 0.2340909,
                "tempo": 120.0
            },
            {
                "start_time": 0.9454545,
                "end_time": 1.1954545,
                "pitch": 64,
                "velocity": 64,
                "duration": 0.25,
                "tempo": 120.0
            },
            {
                "start_time": 1.2318182,
                "end_time": 1.7477273,
                "pitch": 61,
                "velocity": 64,
                "duration": 0.5159091,
                "tempo": 120.0
            },
            {
                "start_time": 1.7818182,
                "end_time": 2.0113636,
                "pitch": 64,
                "velocity": 64,
                "duration": 0.2295455,
                "tempo": 120.0
            },
            {
                "start_time": 2.0431818,
                "end_time": 2.6909091,
                "pitch": 67,
                "velocity": 64,
                "duration": 0.6477273,
                "tempo": 120.0
            },
            {
                "start_time": 2.725,
                "end_time": 2.9613636,
                "pitch": 66,
                "velocity": 64,
                "duration": 0.2363636,
                "tempo": 120.0
            },
            {
                "start_time": 2.9954545,
                "end_time": 3.0295455,
                "pitch": 62,
                "velocity": 64,
                "duration": 0.0340909,
                "tempo": 120.0
            },
            {
                "start_time": 3.0636364,
                "end_time": 3.0977273,
                "pitch": 63,
                "velocity": 64,
                "duration": 0.0340909,
                "tempo": 120.0
            },
            {
                "start_time": 3.1318182,
                "end_time": 3.2318182,
                "pitch": 64,
                "velocity": 64,
                "duration": 0.1,
                "tempo": 120.0
            },
            {
                "start_time": 3.2659091,
                "end_time": 3.3659091,
                "pitch": 62,
                "velocity": 64,
                "duration": 0.1,
                "tempo": 120.0
            },
            {
                "start_time": 3.4,
                "end_time": 4.1681818,
                "pitch": 61,
                "velocity": 64,
                "duration": 0.7681818,
                "tempo": 120.0
            },
            {
                "start_time": 4.6863636,
                "end_time": 4.7204545,
                "pitch": 68,
                "velocity": 64,
                "duration": 0.0340909,
                "tempo": 120.0
            },
            {
                "start_time": 4.7545455,
                "end_time": 4.9840909,
                "pitch": 69,
                "velocity": 64,
                "duration": 0.2295455,
                "tempo": 120.0
            },
            {
                "start_time": 5.0181818,
                "end_time": 5.2477273,
                "pitch": 68,
                "velocity": 64,
                "duration": 0.2295455,
                "tempo": 120.0
            },
            {
                "start_time": 5.2795455,
                "end_time": 5.5136364,
                "pitch": 64,
                "velocity": 64,
                "duration": 0.2340909,
                "tempo": 120.0
            },
            {
                "start_time": 5.5477273,
                "end_time": 6.0477273,
                "pitch": 61,
                "velocity": 64,
                "duration": 0.5,
                "tempo": 120.0
            },
            {
                "start_time": 6.0818182,
                "end_time": 6.3159091,
                "pitch": 64,
                "velocity": 64,
                "duration": 0.2340909,
                "tempo": 120.0
            },
            {
                "start_time": 6.3477273,
                "end_time": 6.9931818,
                "pitch": 66,
                "velocity": 64,
                "duration": 0.6454545,
                "tempo": 120.0
            },
            {
                "start_time": 7.025,
                "end_time": 7.2590909,
                "pitch": 64,
                "velocity": 64,
                "duration": 0.2340909,
                "tempo": 120.0
            },
            {
                "start_time": 7.2931818,
                "end_time": 7.3931818,
                "pitch": 62,
                "velocity": 64,
                "duration": 0.1,
                "tempo": 120.0
            },
            {
                "start_time": 7.4272727,
                "end_time": 7.9363636,
                "pitch": 61,
                "velocity": 64,
                "duration": 0.5090909,
                "tempo": 120.0
            },
            {
                "start_time": 7.9704545,
                "end_time": 8.4727273,
                "pitch": 59,
                "velocity": 64,
                "duration": 0.5022727,
                "tempo": 120.0
            },
            {
                "start_time": 8.5045455,
                "end_time": 8.8727273,
                "pitch": 59,
                "velocity": 64,
                "duration": 0.3681818,
                "tempo": 120.0
            },
            {
                "start_time": 8.9068182,
                "end_time": 9.0068182,
                "pitch": 66,
                "velocity": 64,
                "duration": 0.1,
                "tempo": 120.0
            },
            {
                "start_time": 9.0386364,
                "end_time": 9.5409091,
                "pitch": 66,
                "velocity": 64,
                "duration": 0.5022727,
                "tempo": 120.0
            },
            {
                "start_time": 9.575,
                "end_time": 9.9545455,
                "pitch": 68,
                "velocity": 64,
                "duration": 0.3795455,
                "tempo": 120.0
            },
            {
                "start_time": 9.9886364,
                "end_time": 10.0931818,
                "pitch": 66,
                "velocity": 64,
                "duration": 0.1045455,
                "tempo": 120.0
            },
            {
                "start_time": 10.1272727,
                "end_time": 10.6295455,
                "pitch": 64,
                "velocity": 64,
                "duration": 0.5022727,
                "tempo": 120.0
            },
            {
                "start_time": 10.6613636,
                "end_time": 11.0295455,
                "pitch": 61,
                "velocity": 64,
                "duration": 0.3681818,
                "tempo": 120.0
            },
            {
                "start_time": 11.0636364,
                "end_time": 11.1636364,
                "pitch": 68,
                "velocity": 64,
                "duration": 0.1,
                "tempo": 120.0
            },
            {
                "start_time": 11.1954545,
                "end_time": 11.6977273,
                "pitch": 68,
                "velocity": 64,
                "duration": 0.5022727,
                "tempo": 120.0
            },
            {
                "start_time": 11.7318182,
                "end_time": 11.9681818,
                "pitch": 71,
                "velocity": 64,
                "duration": 0.2363636,
                "tempo": 120.0
            },
            {
                "start_time": 12.0022727,
                "end_time": 12.2409091,
                "pitch": 69,
                "velocity": 64,
                "duration": 0.2386364,
                "tempo": 120.0
            },
            {
                "start_time": 12.275,
                "end_time": 12.5090909,
                "pitch": 68,
                "velocity": 64,
                "duration": 0.2340909,
                "tempo": 120.0
            },
            {
                "start_time": 12.5431818,
                "end_time": 12.7090909,
                "pitch": 66,
                "velocity": 64,
                "duration": 0.1659091,
                "tempo": 120.0
            },
            {
                "start_time": 12.7431818,
                "end_time": 12.775,
                "pitch": 72,
                "velocity": 64,
                "duration": 0.0318182,
                "tempo": 120.0
            },
            {
                "start_time": 12.8090909,
                "end_time": 13.1772727,
                "pitch": 73,
                "velocity": 64,
                "duration": 0.3681818,
                "tempo": 120.0
            },
            {
                "start_time": 13.2090909,
                "end_time": 13.3113636,
                "pitch": 71,
                "velocity": 64,
                "duration": 0.1022727,
                "tempo": 120.0
            },
            {
                "start_time": 13.3431818,
                "end_time": 13.7772727,
                "pitch": 69,
                "velocity": 64,
                "duration": 0.4340909,
                "tempo": 120.0
            },
            {
                "start_time": 13.8113636,
                "end_time": 13.8454545,
                "pitch": 72,
                "velocity": 64,
                "duration": 0.0340909,
                "tempo": 120.0
            },
            {
                "start_time": 13.8772727,
                "end_time": 14.1159091,
                "pitch": 73,
                "velocity": 64,
                "duration": 0.2386364,
                "tempo": 120.0
            },
            {
                "start_time": 14.15,
                "end_time": 14.3886364,
                "pitch": 71,
                "velocity": 64,
                "duration": 0.2386364,
                "tempo": 120.0
            },
            {
                "start_time": 14.4227273,
                "end_time": 14.6568182,
                "pitch": 69,
                "velocity": 64,
                "duration": 0.2340909,
                "tempo": 120.0
            },
            {
                "start_time": 14.6886364,
                "end_time": 14.9227273,
                "pitch": 68,
                "velocity": 64,
                "duration": 0.2340909,
                "tempo": 120.0
            },
            {
                "start_time": 14.9568182,
                "end_time": 16.8159091,
                "pitch": 69,
                "velocity": 64,
                "duration": 1.8590909,
                "tempo": 120.0
            },
            {
                "start_time": 17.5977273,
                "end_time": 17.6318182,
                "pitch": 68,
                "velocity": 64,
                "duration": 0.0340909,
                "tempo": 120.0
            },
            {
                "start_time": 17.6659091,
                "end_time": 17.8931818,
                "pitch": 69,
                "velocity": 64,
                "duration": 0.2272727,
                "tempo": 120.0
            },
            {
                "start_time": 17.925,
                "end_time": 18.15,
                "pitch": 68,
                "velocity": 64,
                "duration": 0.225,
                "tempo": 120.0
            },
            {
                "start_time": 18.1818182,
                "end_time": 18.4159091,
                "pitch": 64,
                "velocity": 64,
                "duration": 0.2340909,
                "tempo": 120.0
            },
            {
                "start_time": 18.45,
                "end_time": 18.9545455,
                "pitch": 61,
                "velocity": 64,
                "duration": 0.5045455,
                "tempo": 120.0
            },
            {
                "start_time": 18.9886364,
                "end_time": 19.2272727,
                "pitch": 64,
                "velocity": 64,
                "duration": 0.2386364,
                "tempo": 120.0
            },
            {
                "start_time": 19.2613636,
                "end_time": 19.8954545,
                "pitch": 67,
                "velocity": 64,
                "duration": 0.6340909,
                "tempo": 120.0
            },
            {
                "start_time": 19.9295455,
                "end_time": 20.1636364,
                "pitch": 66,
                "velocity": 64,
                "duration": 0.2340909,
                "tempo": 120.0
            },
            {
                "start_time": 20.1954545,
                "end_time": 20.2295455,
                "pitch": 62,
                "velocity": 64,
                "duration": 0.0340909,
                "tempo": 120.0
            },
            {
                "start_time": 20.2636364,
                "end_time": 20.2954545,
                "pitch": 63,
                "velocity": 64,
                "duration": 0.0318182,
                "tempo": 120.0
            },
            {
                "start_time": 20.3295455,
                "end_time": 20.4272727,
                "pitch": 64,
                "velocity": 64,
                "duration": 0.0977273,
                "tempo": 120.0
            },
            {
                "start_time": 20.4613636,
                "end_time": 20.5590909,
                "pitch": 62,
                "velocity": 64,
                "duration": 0.0977273,
                "tempo": 120.0
            },
            {
                "start_time": 20.5931818,
                "end_time": 21.3477273,
                "pitch": 61,
                "velocity": 64,
                "duration": 0.7545455,
                "tempo": 120.0
            },
            {
                "start_time": 21.8727273,
                "end_time": 21.9090909,
                "pitch": 68,
                "velocity": 64,
                "duration": 0.0363636,
                "tempo": 120.0
            },
            {
                "start_time": 21.9431818,
                "end_time": 22.1772727,
                "pitch": 69,
                "velocity": 64,
                "duration": 0.2340909,
                "tempo": 120.0
            },
            {
                "start_time": 22.2113636,
                "end_time": 22.4454545,
                "pitch": 68,
                "velocity": 64,
                "duration": 0.2340909,
                "tempo": 120.0
            },
            {
                "start_time": 22.4772727,
                "end_time": 22.7159091,
                "pitch": 64,
                "velocity": 64,
                "duration": 0.2386364,
                "tempo": 120.0
            },
            {
                "start_time": 22.75,
                "end_time": 23.2477273,
                "pitch": 61,
                "velocity": 64,
                "duration": 0.4977273,
                "tempo": 120.0
            },
            {
                "start_time": 23.2795455,
                "end_time": 23.5045455,
                "pitch": 64,
                "velocity": 64,
                "duration": 0.225,
                "tempo": 120.0
            },
            {
                "start_time": 23.5386364,
                "end_time": 24.1931818,
                "pitch": 66,
                "velocity": 64,
                "duration": 0.6545455,
                "tempo": 120.0
            },
            {
                "start_time": 24.2272727,
                "end_time": 24.4659091,
                "pitch": 64,
                "velocity": 64,
                "duration": 0.2386364,
                "tempo": 120.0
            },
            {
                "start_time": 24.5,
                "end_time": 24.6022727,
                "pitch": 62,
                "velocity": 64,
                "duration": 0.1022727,
                "tempo": 120.0
            },
            {
                "start_time": 24.6363636,
                "end_time": 25.1454545,
                "pitch": 61,
                "velocity": 64,
                "duration": 0.5090909,
                "tempo": 120.0
            },
            {
                "start_time": 25.1795455,
                "end_time": 25.6727273,
                "pitch": 59,
                "velocity": 64,
                "duration": 0.4931818,
                "tempo": 120.0
            },
            {
                "start_time": 25.7045455,
                "end_time": 26.0590909,
                "pitch": 59,
                "velocity": 64,
                "duration": 0.3545455,
                "tempo": 120.0
            },
            {
                "start_time": 26.0909091,
                "end_time": 26.1886364,
                "pitch": 66,
                "velocity": 64,
                "duration": 0.0977273,
                "tempo": 120.0
            },
            {
                "start_time": 26.2204545,
                "end_time": 26.75,
                "pitch": 66,
                "velocity": 64,
                "duration": 0.5295455,
                "tempo": 120.0
            },
            {
                "start_time": 26.7840909,
                "end_time": 27.1590909,
                "pitch": 68,
                "velocity": 64,
                "duration": 0.375,
                "tempo": 120.0
            },
            {
                "start_time": 27.1931818,
                "end_time": 27.2954545,
                "pitch": 66,
                "velocity": 64,
                "duration": 0.1022727,
                "tempo": 120.0
            },
            {
                "start_time": 27.3295455,
                "end_time": 27.8295455,
                "pitch": 64,
                "velocity": 64,
                "duration": 0.5,
                "tempo": 120.0
            },
            {
                "start_time": 27.8636364,
                "end_time": 28.2363636,
                "pitch": 61,
                "velocity": 64,
                "duration": 0.3727273,
                "tempo": 120.0
            },
            {
                "start_time": 28.2704545,
                "end_time": 28.3727273,
                "pitch": 68,
                "velocity": 64,
                "duration": 0.1022727,
                "tempo": 120.0
            },
            {
                "start_time": 28.4068182,
                "end_time": 28.9090909,
                "pitch": 68,
                "velocity": 64,
                "duration": 0.5022727,
                "tempo": 120.0
            },
            {
                "start_time": 28.9409091,
                "end_time": 29.175,
                "pitch": 71,
                "velocity": 64,
                "duration": 0.2340909,
                "tempo": 120.0
            },
            {
                "start_time": 29.2090909,
                "end_time": 29.4431818,
                "pitch": 69,
                "velocity": 64,
                "duration": 0.2340909,
                "tempo": 120.0
            },
            {
                "start_time": 29.475,
                "end_time": 29.7090909,
                "pitch": 68,
                "velocity": 64,
                "duration": 0.2340909,
                "tempo": 120.0
            },
            {
                "start_time": 29.7431818,
                "end_time": 29.9113636,
                "pitch": 66,
                "velocity": 64,
                "duration": 0.1681818,
                "tempo": 120.0
            },
            {
                "start_time": 29.9431818,
                "end_time": 29.9772727,
                "pitch": 72,
                "velocity": 64,
                "duration": 0.0340909,
                "tempo": 120.0
            },
            {
                "start_time": 30.0113636,
                "end_time": 30.3840909,
                "pitch": 73,
                "velocity": 64,
                "duration": 0.3727273,
                "tempo": 120.0
            },
            {
                "start_time": 30.4181818,
                "end_time": 30.5204545,
                "pitch": 71,
                "velocity": 64,
                "duration": 0.1022727,
                "tempo": 120.0
            },
            {
                "start_time": 30.5545455,
                "end_time": 30.9886364,
                "pitch": 69,
                "velocity": 64,
                "duration": 0.4340909,
                "tempo": 120.0
            },
            {
                "start_time": 31.0227273,
                "end_time": 31.0545455,
                "pitch": 72,
                "velocity": 64,
                "duration": 0.0318182,
                "tempo": 120.0
            },
            {
                "start_time": 31.0886364,
                "end_time": 31.3272727,
                "pitch": 73,
                "velocity": 64,
                "duration": 0.2386364,
                "tempo": 120.0
            },
            {
                "start_time": 31.3613636,
                "end_time": 31.5977273,
                "pitch": 71,
                "velocity": 64,
                "duration": 0.2363636,
                "tempo": 120.0
            },
            {
                "start_time": 31.6318182,
                "end_time": 31.8659091,
                "pitch": 69,
                "velocity": 64,
                "duration": 0.2340909,
                "tempo": 120.0
            },
            {
                "start_time": 31.9,
                "end_time": 32.1340909,
                "pitch": 68,
                "velocity": 64,
                "duration": 0.2340909,
                "tempo": 120.0
            },
            {
                "start_time": 32.1681818,
                "end_time": 34.0022727,
                "pitch": 69,
                "velocity": 64,
                "duration": 1.8340909,
                "tempo": 120.0
            }
        ],
        "Acoustic Bass": [
            {
                "start_time": 2.3159091,
                "end_time": 2.5545455,
                "pitch": 54,
                "velocity": 51,
                "duration": 0.2386364,
                "tempo": 120.0
            },
            {
                "start_time": 2.5886364,
                "end_time": 2.8272727,
                "pitch": 49,
                "velocity": 51,
                "duration": 0.2386364,
                "tempo": 120.0
            },
            {
                "start_time": 2.8613636,
                "end_time": 3.0977273,
                "pitch": 45,
                "velocity": 51,
                "duration": 0.2363636,
                "tempo": 120.0
            },
            {
                "start_time": 3.1318182,
                "end_time": 3.3659091,
                "pitch": 49,
                "velocity": 51,
                "duration": 0.2340909,
                "tempo": 120.0
            },
            {
                "start_time": 3.4,
                "end_time": 3.6340909,
                "pitch": 54,
                "velocity": 51,
                "duration": 0.2340909,
                "tempo": 120.0
            },
            {
                "start_time": 3.6659091,
                "end_time": 3.9,
                "pitch": 57,
                "velocity": 51,
                "duration": 0.2340909,
                "tempo": 120.0
            },
            {
                "start_time": 3.9340909,
                "end_time": 4.1681818,
                "pitch": 54,
                "velocity": 51,
                "duration": 0.2340909,
                "tempo": 120.0
            },
            {
                "start_time": 6.6204545,
                "end_time": 6.7227273,
                "pitch": 54,
                "velocity": 51,
                "duration": 0.1022727,
                "tempo": 120.0
            },
            {
                "start_time": 6.7568182,
                "end_time": 6.8590909,
                "pitch": 49,
                "velocity": 51,
                "duration": 0.1022727,
                "tempo": 120.0
            },
            {
                "start_time": 6.8931818,
                "end_time": 6.9931818,
                "pitch": 54,
                "velocity": 51,
                "duration": 0.1,
                "tempo": 120.0
            },
            {
                "start_time": 7.025,
                "end_time": 7.1272727,
                "pitch": 57,
                "velocity": 51,
                "duration": 0.1022727,
                "tempo": 120.0
            },
            {
                "start_time": 7.1590909,
                "end_time": 7.2590909,
                "pitch": 54,
                "velocity": 51,
                "duration": 0.1,
                "tempo": 120.0
            },
            {
                "start_time": 7.2931818,
                "end_time": 7.3931818,
                "pitch": 49,
                "velocity": 51,
                "duration": 0.1,
                "tempo": 120.0
            },
            {
                "start_time": 7.4272727,
                "end_time": 7.6636364,
                "pitch": 45,
                "velocity": 51,
                "duration": 0.2363636,
                "tempo": 120.0
            },
            {
                "start_time": 7.6977273,
                "end_time": 7.9363636,
                "pitch": 49,
                "velocity": 51,
                "duration": 0.2386364,
                "tempo": 120.0
            },
            {
                "start_time": 7.9704545,
                "end_time": 8.2045455,
                "pitch": 54,
                "velocity": 51,
                "duration": 0.2340909,
                "tempo": 120.0
            },
            {
                "start_time": 8.2386364,
                "end_time": 8.4727273,
                "pitch": 49,
                "velocity": 51,
                "duration": 0.2340909,
                "tempo": 120.0
            },
            {
                "start_time": 9.575,
                "end_time": 10.0931818,
                "pitch": 36,
                "velocity": 51,
                "duration": 0.5181818,
                "tempo": 120.0
            },
            {
                "start_time": 10.1272727,
                "end_time": 10.6295455,
                "pitch": 36,
                "velocity": 51,
                "duration": 0.5022727,
                "tempo": 120.0
            },
            {
                "start_time": 10.6613636,
                "end_time": 11.1636364,
                "pitch": 37,
                "velocity": 51,
                "duration": 0.5022727,
                "tempo": 120.0
            },
            {
                "start_time": 11.3295455,
                "end_time": 11.4295455,
                "pitch": 38,
                "velocity": 51,
                "duration": 0.1,
                "tempo": 120.0
            },
            {
                "start_time": 11.4636364,
                "end_time": 11.5636364,
                "pitch": 41,
                "velocity": 51,
                "duration": 0.1,
                "tempo": 120.0
            },
            {
                "start_time": 11.5977273,
                "end_time": 11.6977273,
                "pitch": 46,
                "velocity": 51,
                "duration": 0.1,
                "tempo": 120.0
            },
            {
                "start_time": 11.7318182,
                "end_time": 12.2409091,
                "pitch": 38,
                "velocity": 51,
                "duration": 0.5090909,
                "tempo": 120.0
            },
            {
                "start_time": 12.5431818,
                "end_time": 12.775,
                "pitch": 38,
                "velocity": 51,
                "duration": 0.2318182,
                "tempo": 120.0
            },
            {
                "start_time": 13.0772727,
                "end_time": 13.8454545,
                "pitch": 40,
                "velocity": 51,
                "duration": 0.7681818,
                "tempo": 120.0
            },
            {
                "start_time": 14.15,
                "end_time": 14.3886364,
                "pitch": 40,
                "velocity": 51,
                "duration": 0.2386364,
                "tempo": 120.0
            },
            {
                "start_time": 14.4227273,
                "end_time": 14.6568182,
                "pitch": 45,
                "velocity": 51,
                "duration": 0.2340909,
                "tempo": 120.0
            },
            {
                "start_time": 14.6886364,
                "end_time": 14.9227273,
                "pitch": 40,
                "velocity": 51,
                "duration": 0.2340909,
                "tempo": 120.0
            },
            {
                "start_time": 14.9568182,
                "end_time": 15.1931818,
                "pitch": 33,
                "velocity": 51,
                "duration": 0.2363636,
                "tempo": 120.0
            },
            {
                "start_time": 15.2272727,
                "end_time": 16.8159091,
                "pitch": 45,
                "velocity": 51,
                "duration": 1.5886364,
                "tempo": 120.0
            },
            {
                "start_time": 17.6659091,
                "end_time": 17.8931818,
                "pitch": 64,
                "velocity": 51,
                "duration": 0.2272727,
                "tempo": 120.0
            },
            {
                "start_time": 17.925,
                "end_time": 18.15,
                "pitch": 61,
                "velocity": 51,
                "duration": 0.225,
                "tempo": 120.0
            },
            {
                "start_time": 18.1818182,
                "end_time": 18.6840909,
                "pitch": 57,
                "velocity": 51,
                "duration": 0.5022727,
                "tempo": 120.0
            },
            {
                "start_time": 18.7181818,
                "end_time": 18.9545455,
                "pitch": 52,
                "velocity": 51,
                "duration": 0.2363636,
                "tempo": 120.0
            },
            {
                "start_time": 18.9886364,
                "end_time": 19.2272727,
                "pitch": 57,
                "velocity": 51,
                "duration": 0.2386364,
                "tempo": 120.0
            },
            {
                "start_time": 19.2613636,
                "end_time": 19.4954545,
                "pitch": 57,
                "velocity": 51,
                "duration": 0.2340909,
                "tempo": 120.0
            },
            {
                "start_time": 19.5272727,
                "end_time": 19.6295455,
                "pitch": 54,
                "velocity": 51,
                "duration": 0.1022727,
                "tempo": 120.0
            },
            {
                "start_time": 19.6613636,
                "end_time": 19.7613636,
                "pitch": 49,
                "velocity": 51,
                "duration": 0.1,
                "tempo": 120.0
            },
            {
                "start_time": 19.7954545,
                "end_time": 19.8954545,
                "pitch": 54,
                "velocity": 51,
                "duration": 0.1,
                "tempo": 120.0
            },
            {
                "start_time": 19.9295455,
                "end_time": 20.0295455,
                "pitch": 57,
                "velocity": 51,
                "duration": 0.1,
                "tempo": 120.0
            },
            {
                "start_time": 20.0636364,
                "end_time": 20.1636364,
                "pitch": 54,
                "velocity": 51,
                "duration": 0.1,
                "tempo": 120.0
            },
            {
                "start_time": 20.1954545,
                "end_time": 20.2954545,
                "pitch": 49,
                "velocity": 51,
                "duration": 0.1,
                "tempo": 120.0
            },
            {
                "start_time": 20.4613636,
                "end_time": 20.5590909,
                "pitch": 49,
                "velocity": 51,
                "duration": 0.0977273,
                "tempo": 120.0
            },
            {
                "start_time": 20.5931818,
                "end_time": 20.6909091,
                "pitch": 54,
                "velocity": 51,
                "duration": 0.0977273,
                "tempo": 120.0
            },
            {
                "start_time": 20.7227273,
                "end_time": 20.9522727,
                "pitch": 57,
                "velocity": 51,
                "duration": 0.2295455,
                "tempo": 120.0
            },
            {
                "start_time": 20.9863636,
                "end_time": 21.0840909,
                "pitch": 54,
                "velocity": 51,
                "duration": 0.0977273,
                "tempo": 120.0
            },
            {
                "start_time": 21.1181818,
                "end_time": 21.3477273,
                "pitch": 49,
                "velocity": 51,
                "duration": 0.2295455,
                "tempo": 120.0
            },
            {
                "start_time": 22.75,
                "end_time": 23.1181818,
                "pitch": 57,
                "velocity": 51,
                "duration": 0.3681818,
                "tempo": 120.0
            },
            {
                "start_time": 23.15,
                "end_time": 23.375,
                "pitch": 64,
                "velocity": 51,
                "duration": 0.225,
                "tempo": 120.0
            },
            {
                "start_time": 23.4090909,
                "end_time": 23.5045455,
                "pitch": 57,
                "velocity": 51,
                "duration": 0.0954545,
                "tempo": 120.0
            },
            {
                "start_time": 23.8136364,
                "end_time": 23.9181818,
                "pitch": 57,
                "velocity": 51,
                "duration": 0.1045455,
                "tempo": 120.0
            },
            {
                "start_time": 23.9522727,
                "end_time": 24.0568182,
                "pitch": 54,
                "velocity": 51,
                "duration": 0.1045455,
                "tempo": 120.0
            },
            {
                "start_time": 24.0909091,
                "end_time": 24.1931818,
                "pitch": 49,
                "velocity": 51,
                "duration": 0.1022727,
                "tempo": 120.0
            },
            {
                "start_time": 24.2272727,
                "end_time": 24.3295455,
                "pitch": 54,
                "velocity": 51,
                "duration": 0.1022727,
                "tempo": 120.0
            },
            {
                "start_time": 24.3636364,
                "end_time": 24.4659091,
                "pitch": 49,
                "velocity": 51,
                "duration": 0.1022727,
                "tempo": 120.0
            },
            {
                "start_time": 24.5,
                "end_time": 24.6022727,
                "pitch": 45,
                "velocity": 51,
                "duration": 0.1022727,
                "tempo": 120.0
            },
            {
                "start_time": 24.6363636,
                "end_time": 24.8727273,
                "pitch": 49,
                "velocity": 51,
                "duration": 0.2363636,
                "tempo": 120.0
            },
            {
                "start_time": 24.9068182,
                "end_time": 25.1454545,
                "pitch": 54,
                "velocity": 51,
                "duration": 0.2386364,
                "tempo": 120.0
            },
            {
                "start_time": 25.1795455,
                "end_time": 25.4090909,
                "pitch": 57,
                "velocity": 51,
                "duration": 0.2295455,
                "tempo": 120.0
            },
            {
                "start_time": 25.4409091,
                "end_time": 25.6727273,
                "pitch": 54,
                "velocity": 51,
                "duration": 0.2318182,
                "tempo": 120.0
            },
            {
                "start_time": 26.2204545,
                "end_time": 26.75,
                "pitch": 47,
                "velocity": 51,
                "duration": 0.5295455,
                "tempo": 120.0
            },
            {
                "start_time": 27.3295455,
                "end_time": 27.8295455,
                "pitch": 60,
                "velocity": 51,
                "duration": 0.5,
                "tempo": 120.0
            },
            {
                "start_time": 28.4068182,
                "end_time": 28.6409091,
                "pitch": 61,
                "velocity": 51,
                "duration": 0.2340909,
                "tempo": 120.0
            },
            {
                "start_time": 28.675,
                "end_time": 28.9090909,
                "pitch": 69,
                "velocity": 51,
                "duration": 0.2340909,
                "tempo": 120.0
            },
            {
                "start_time": 29.2090909,
                "end_time": 29.9772727,
                "pitch": 63,
                "velocity": 51,
                "duration": 0.7681818,
                "tempo": 120.0
            },
            {
                "start_time": 30.5545455,
                "end_time": 30.7886364,
                "pitch": 68,
                "velocity": 51,
                "duration": 0.2340909,
                "tempo": 120.0
            },
            {
                "start_time": 30.8204545,
                "end_time": 31.0545455,
                "pitch": 64,
                "velocity": 51,
                "duration": 0.2340909,
                "tempo": 120.0
            },
            {
                "start_time": 31.6318182,
                "end_time": 31.8659091,
                "pitch": 64,
                "velocity": 51,
                "duration": 0.2340909,
                "tempo": 120.0
            },
            {
                "start_time": 31.9,
                "end_time": 32.1340909,
                "pitch": 59,
                "velocity": 51,
                "duration": 0.2340909,
                "tempo": 120.0
            },
            {
                "start_time": 32.7022727,
                "end_time": 32.9386364,
                "pitch": 64,
                "velocity": 51,
                "duration": 0.2363636,
                "tempo": 120.0
            },
            {
                "start_time": 32.9727273,
                "end_time": 33.2113636,
                "pitch": 61,
                "velocity": 51,
                "duration": 0.2386364,
                "tempo": 120.0
            },
            {
                "start_time": 33.2454545,
                "end_time": 33.4704545,
                "pitch": 57,
                "velocity": 51,
                "duration": 0.225,
                "tempo": 120.0
            },
            {
                "start_time": 33.5022727,
                "end_time": 33.7272727,
                "pitch": 52,
                "velocity": 51,
                "duration": 0.225,
                "tempo": 120.0
            },
            {
                "start_time": 33.7613636,
                "end_time": 34.0022727,
                "pitch": 57,
                "velocity": 51,
                "duration": 0.2409091,
                "tempo": 120.0
            },
            {
                "start_time": 34.0386364,
                "end_time": 34.2795455,
                "pitch": 61,
                "velocity": 51,
                "duration": 0.2409091,
                "tempo": 120.0
            }
        ],
        "Trumpet": [
            {
                "start_time": 0.2022727,
                "end_time": 2.0113636,
                "pitch": 45,
                "velocity": 51,
                "duration": 1.8090909,
                "tempo": 120.0
            },
            {
                "start_time": 2.0431818,
                "end_time": 4.1681818,
                "pitch": 42,
                "velocity": 51,
                "duration": 2.125,
                "tempo": 120.0
            },
            {
                "start_time": 4.2,
                "end_time": 4.4431818,
                "pitch": 33,
                "velocity": 51,
                "duration": 0.2431818,
                "tempo": 120.0
            },
            {
                "start_time": 4.4772727,
                "end_time": 6.3159091,
                "pitch": 45,
                "velocity": 51,
                "duration": 1.8386364,
                "tempo": 120.0
            },
            {
                "start_time": 6.3477273,
                "end_time": 8.4727273,
                "pitch": 42,
                "velocity": 51,
                "duration": 2.125,
                "tempo": 120.0
            },
            {
                "start_time": 8.5045455,
                "end_time": 8.7386364,
                "pitch": 38,
                "velocity": 51,
                "duration": 0.2340909,
                "tempo": 120.0
            },
            {
                "start_time": 8.7727273,
                "end_time": 9.5409091,
                "pitch": 35,
                "velocity": 51,
                "duration": 0.7681818,
                "tempo": 120.0
            },
            {
                "start_time": 9.575,
                "end_time": 10.6295455,
                "pitch": 24,
                "velocity": 51,
                "duration": 1.0545455,
                "tempo": 120.0
            },
            {
                "start_time": 10.6613636,
                "end_time": 11.6977273,
                "pitch": 25,
                "velocity": 51,
                "duration": 1.0363636,
                "tempo": 120.0
            },
            {
                "start_time": 11.7318182,
                "end_time": 12.775,
                "pitch": 26,
                "velocity": 51,
                "duration": 1.0431818,
                "tempo": 120.0
            },
            {
                "start_time": 12.8090909,
                "end_time": 13.8454545,
                "pitch": 28,
                "velocity": 51,
                "duration": 1.0363636,
                "tempo": 120.0
            },
            {
                "start_time": 13.8772727,
                "end_time": 14.9227273,
                "pitch": 28,
                "velocity": 51,
                "duration": 1.0454545,
                "tempo": 120.0
            },
            {
                "start_time": 14.9568182,
                "end_time": 16.0113636,
                "pitch": 33,
                "velocity": 51,
                "duration": 1.0545455,
                "tempo": 120.0
            },
            {
                "start_time": 16.0431818,
                "end_time": 16.5454545,
                "pitch": 61,
                "velocity": 51,
                "duration": 0.5022727,
                "tempo": 120.0
            },
            {
                "start_time": 16.5795455,
                "end_time": 17.0886364,
                "pitch": 57,
                "velocity": 51,
                "duration": 0.5090909,
                "tempo": 120.0
            },
            {
                "start_time": 17.1227273,
                "end_time": 17.3613636,
                "pitch": 33,
                "velocity": 51,
                "duration": 0.2386364,
                "tempo": 120.0
            },
            {
                "start_time": 17.3954545,
                "end_time": 19.2272727,
                "pitch": 45,
                "velocity": 51,
                "duration": 1.8318182,
                "tempo": 120.0
            },
            {
                "start_time": 19.2613636,
                "end_time": 19.4954545,
                "pitch": 30,
                "velocity": 51,
                "duration": 0.2340909,
                "tempo": 120.0
            },
            {
                "start_time": 19.5272727,
                "end_time": 21.3477273,
                "pitch": 42,
                "velocity": 51,
                "duration": 1.8204545,
                "tempo": 120.0
            },
            {
                "start_time": 21.3795455,
                "end_time": 21.6272727,
                "pitch": 33,
                "velocity": 51,
                "duration": 0.2477273,
                "tempo": 120.0
            },
            {
                "start_time": 21.6613636,
                "end_time": 23.5045455,
                "pitch": 45,
                "velocity": 51,
                "duration": 1.8431818,
                "tempo": 120.0
            },
            {
                "start_time": 23.5386364,
                "end_time": 24.0568182,
                "pitch": 30,
                "velocity": 51,
                "duration": 0.5181818,
                "tempo": 120.0
            },
            {
                "start_time": 24.2272727,
                "end_time": 25.6727273,
                "pitch": 66,
                "velocity": 51,
                "duration": 1.4454545,
                "tempo": 120.0
            },
            {
                "start_time": 25.7045455,
                "end_time": 26.3272727,
                "pitch": 35,
                "velocity": 51,
                "duration": 0.6227273,
                "tempo": 120.0
            },
            {
                "start_time": 26.3613636,
                "end_time": 26.4681818,
                "pitch": 47,
                "velocity": 51,
                "duration": 0.1068182,
                "tempo": 120.0
            },
            {
                "start_time": 26.5022727,
                "end_time": 26.6090909,
                "pitch": 50,
                "velocity": 51,
                "duration": 0.1068182,
                "tempo": 120.0
            },
            {
                "start_time": 26.6431818,
                "end_time": 26.75,
                "pitch": 54,
                "velocity": 51,
                "duration": 0.1068182,
                "tempo": 120.0
            },
            {
                "start_time": 26.7840909,
                "end_time": 27.4295455,
                "pitch": 36,
                "velocity": 51,
                "duration": 0.6454545,
                "tempo": 120.0
            },
            {
                "start_time": 27.4636364,
                "end_time": 27.8295455,
                "pitch": 48,
                "velocity": 51,
                "duration": 0.3659091,
                "tempo": 120.0
            },
            {
                "start_time": 27.8636364,
                "end_time": 28.5068182,
                "pitch": 37,
                "velocity": 51,
                "duration": 0.6431818,
                "tempo": 120.0
            },
            {
                "start_time": 28.5409091,
                "end_time": 28.6409091,
                "pitch": 49,
                "velocity": 51,
                "duration": 0.1,
                "tempo": 120.0
            },
            {
                "start_time": 28.675,
                "end_time": 28.775,
                "pitch": 54,
                "velocity": 51,
                "duration": 0.1,
                "tempo": 120.0
            },
            {
                "start_time": 28.8090909,
                "end_time": 28.9090909,
                "pitch": 57,
                "velocity": 51,
                "duration": 0.1,
                "tempo": 120.0
            },
            {
                "start_time": 28.9409091,
                "end_time": 29.5772727,
                "pitch": 38,
                "velocity": 51,
                "duration": 0.6363636,
                "tempo": 120.0
            },
            {
                "start_time": 29.6090909,
                "end_time": 29.7090909,
                "pitch": 50,
                "velocity": 51,
                "duration": 0.1,
                "tempo": 120.0
            },
            {
                "start_time": 29.7431818,
                "end_time": 29.8431818,
                "pitch": 54,
                "velocity": 51,
                "duration": 0.1,
                "tempo": 120.0
            },
            {
                "start_time": 29.8772727,
                "end_time": 29.9772727,
                "pitch": 50,
                "velocity": 51,
                "duration": 0.1,
                "tempo": 120.0
            },
            {
                "start_time": 30.0113636,
                "end_time": 30.2477273,
                "pitch": 28,
                "velocity": 51,
                "duration": 0.2363636,
                "tempo": 120.0
            },
            {
                "start_time": 30.2818182,
                "end_time": 31.0545455,
                "pitch": 40,
                "velocity": 51,
                "duration": 0.7727273,
                "tempo": 120.0
            },
            {
                "start_time": 31.0886364,
                "end_time": 31.3272727,
                "pitch": 28,
                "velocity": 51,
                "duration": 0.2386364,
                "tempo": 120.0
            },
            {
                "start_time": 31.3613636,
                "end_time": 32.1340909,
                "pitch": 40,
                "velocity": 51,
                "duration": 0.7727273,
                "tempo": 120.0
            },
            {
                "start_time": 32.1681818,
                "end_time": 32.4,
                "pitch": 45,
                "velocity": 51,
                "duration": 0.2318182,
                "tempo": 120.0
            },
            {
                "start_time": 32.4340909,
                "end_time": 34.2795455,
                "pitch": 57,
                "velocity": 51,
                "duration": 1.8454545,
                "tempo": 120.0
            }
        ]
    }
}