{
    "mood": "sad",
    "instruments": {
        "Violin": [
            {
                "start_time": 0.0,
                "end_time": 3.2181818,
                "pitch": 57,
                "velocity": 64,
                "duration": 3.2181818,
                "tempo": 120.0
            },
            {
                "start_time": 3.2363636,
                "end_time": 6.4318182,
                "pitch": 58,
                "velocity": 64,
                "duration": 3.1954545,
                "tempo": 120.0
            },
            {
                "start_time": 6.45,
                "end_time": 9.6431818,
                "pitch": 57,
                "velocity": 64,
                "duration": 3.1931818,
                "tempo": 120.0
            },
            {
                "start_time": 9.6613636,
                "end_time": 12.9590909,
                "pitch": 58,
                "velocity": 64,
                "duration": 3.2977273,
                "tempo": 120.0
            },
            {
                "start_time": 12.975,
                "end_time": 16.0727273,
                "pitch": 60,
                "velocity": 64,
                "duration": 3.0977273,
                "tempo": 120.0
            },
            {
                "start_time": 16.0909091,
                "end_time": 19.4818182,
                "pitch": 61,
                "velocity": 64,
                "duration": 3.3909091,
                "tempo": 120.0
            },
            {
                "start_time": 19.8931818,
                "end_time": 22.4886364,
                "pitch": 62,
                "velocity": 64,
                "duration": 2.5954545,
                "tempo": 120.0
            },
            {
                "start_time": 22.5045455,
                "end_time": 25.6977273,
                "pitch": 63,
                "velocity": 64,
                "duration": 3.1931818,
                "tempo": 120.0
            },
            {
                "start_time": 25.7159091,
                "end_time": 28.9113636,
                "pitch": 57,
                "velocity": 64,
                "duration": 3.1954545,
                "tempo": 120.0
            },
            {
                "start_time": 28.9272727,
                "end_time": 32.125,
                "pitch": 58,
                "velocity": 64,
                "duration": 3.1977273,
                "tempo": 120.0
            },
            {
                "start_time": 32.1431818,
                "end_time": 35.3318182,
                "pitch": 57,
                "velocity": 64,
                "duration": 3.1886364,
                "tempo": 120.0
            },
            {
                "start_time": 35.35,
                "end_time": 38.6409091,
                "pitch": 58,
                "velocity": 64,
                "duration": 3.2909091,
                "tempo": 120.0
            },
            {
                "start_time": 38.6568182,
                "end_time": 41.7363636,
                "pitch": 60,
                "velocity": 64,
                "duration": 3.0795455,
                "tempo": 120.0
            },
            {
                "start_time": 41.7545455,
                "end_time": 45.1545455,
                "pitch": 61,
                "velocity": 64,
                "duration": 3.4,
                "tempo": 120.0
            },
            {
                "start_time": 45.575,
                "end_time": 48.1613636,
                "pitch": 62,
                "velocity": 64,
                "duration": 2.5863636,
                "tempo": 120.0
            },
            {
                "start_time": 48.1795455,
                "end_time": 51.3681818,
                "pitch": 63,
                "velocity": 64,
                "duration": 3.1886364,
                "tempo": 120.0
            },
            {
                "start_time": 51.3863636,
                "end_time": 51.3886364,
                "pitch": 57,
                "velocity": 64,
                "duration": 0.0022727,
                "tempo": 120.0
            }
        ],
        "Acoustic Bass": [
            {
                "start_time": 2.2181818,
                "end_time": 2.3045455,
                "pitch": 53,
                "velocity": 80,
                "duration": 0.0863636,
                "tempo": 120.0
            },
            {
                "start_time": 2.3204545,
                "end_time": 2.4068182,
                "pitch": 55,
                "velocity": 80,
                "duration": 0.0863636,
                "tempo": 120.0
            },
            {
                "start_time": 2.425,
                "end_time": 2.5090909,
                "pitch": 43,
                "velocity": 80,
                "duration": 0.0840909,
                "tempo": 120.0
            },
            {
                "start_time": 2.5272727,
                "end_time": 2.6113636,
                "pitch": 48,
                "velocity": 80,
                "duration": 0.0840909,
                "tempo": 120.0
            },
            {
                "start_time": 2.6295455,
                "end_time": 2.7136364,
                "pitch": 50,
                "velocity": 80,
                "duration": 0.0840909,
                "tempo": 120.0
            },
            {
                "start_time": 2.7295455,
                "end_time": 2.8136364,
                "pitch": 43,
                "velocity": 80,
                "duration": 0.0840909,
                "tempo": 120.0
            },
            {
                "start_time": 2.8295455,
                "end_time": 2.9136364,
                "pitch": 41,
                "velocity": 80,
                "duration": 0.0840909,
                "tempo": 120.0
            },
            {
                "start_time": 2.9295455,
                "end_time": 3.0136364,
                "pitch": 43,
                "velocity": 80,
                "duration": 0.0840909,
                "tempo": 120.0
            },
            {
                "start_time": 3.0295455,
                "end_time": 3.1136364,
                "pitch": 46,
                "velocity": 80,
                "duration": 0.0840909,
                "tempo": 120.0
            },
            {
                "start_time": 3.1318182,
                "end_time": 3.2181818,
                "pitch": 48,
                "velocity": 80,
                "duration": 0.0863636,
                "tempo": 120.0
            },
            {
                "start_time": 5.4363636,
                "end_time": 5.5181818,
                "pitch": 54,
                "velocity": 80,
                "duration": 0.0818182,
                "tempo": 120.0
            },
            {
                "start_time": 5.5363636,
                "end_time": 5.6204545,
                "pitch": 56,
                "velocity": 80,
                "duration": 0.0840909,
                "tempo": 120.0
            },
            {
                "start_time": 5.6363636,
                "end_time": 5.7204545,
                "pitch": 44,
                "velocity": 80,
                "duration": 0.0840909,
                "tempo": 120.0
            },
            {
                "start_time": 5.7363636,
                "end_time": 5.8204545,
                "pitch": 49,
                "velocity": 80,
                "duration": 0.0840909,
                "tempo": 120.0
            },
            {
                "start_time": 5.8386364,
                "end_time": 5.9227273,
                "pitch": 51,
                "velocity": 80,
                "duration": 0.0840909,
                "tempo": 120.0
            },
            {
                "start_time": 5.9409091,
                "end_time": 6.025,
                "pitch": 44,
                "velocity": 80,
                "duration": 0.0840909,
                "tempo": 120.0
            },
            {
                "start_time": 6.0431818,
                "end_time": 6.1295455,
                "pitch": 42,
                "velocity": 80,
                "duration": 0.0863636,
                "tempo": 120.0
            },
            {
                "start_time": 6.1454545,
                "end_time": 6.2318182,
                "pitch": 44,
                "velocity": 80,
                "duration": 0.0863636,
                "tempo": 120.0
            },
            {
                "start_time": 6.2477273,
                "end_time": 6.3318182,
                "pitch": 47,
                "velocity": 80,
                "duration": 0.0840909,
                "tempo": 120.0
            },
            {
                "start_time": 6.35,
                "end_time": 6.4318182,
                "pitch": 49,
                "velocity": 80,
                "duration": 0.0818182,
                "tempo": 120.0
            },
            {
                "start_time": 8.6363636,
                "end_time": 8.7204545,
                "pitch": 53,
                "velocity": 80,
                "duration": 0.0840909,
                "tempo": 120.0
            },
            {
                "start_time": 8.7386364,
                "end_time": 8.825,
                "pitch": 55,
                "velocity": 80,
                "duration": 0.0863636,
                "tempo": 120.0
            },
            {
                "start_time": 8.8409091,
                "end_time": 8.9272727,
                "pitch": 43,
                "velocity": 80,
                "duration": 0.0863636,
                "tempo": 120.0
            },
            {
                "start_time": 8.9431818,
                "end_time": 9.0295455,
                "pitch": 48,
                "velocity": 80,
                "duration": 0.0863636,
                "tempo": 120.0
            },
            {
                "start_time": 9.0477273,
                "end_time": 9.1318182,
                "pitch": 50,
                "velocity": 80,
                "duration": 0.0840909,
                "tempo": 120.0
            },
            {
                "start_time": 9.15,
                "end_time": 9.2340909,
                "pitch": 43,
                "velocity": 80,
                "duration": 0.0840909,
                "tempo": 120.0
            },
            {
                "start_time": 9.2522727,
                "end_time": 9.3386364,
                "pitch": 41,
                "velocity": 80,
                "duration": 0.0863636,
                "tempo": 120.0
            },
            {
                "start_time": 9.3545455,
                "end_time": 9.4409091,
                "pitch": 43,
                "velocity": 80,
                "duration": 0.0863636,
                "tempo": 120.0
            },
            {
                "start_time": 9.4568182,
                "end_time": 9.5409091,
                "pitch": 46,
                "velocity": 80,
                "duration": 0.0840909,
                "tempo": 120.0
            },
            {
                "start_time": 9.5590909,
                "end_time": 9.6431818,
                "pitch": 48,
                "velocity": 80,
                "duration": 0.0840909,
                "tempo": 120.0
            },
            {
                "start_time": 11.8613636,
                "end_time": 11.9454545,
                "pitch": 54,
                "velocity": 80,
                "duration": 0.0840909,
                "tempo": 120.0
            },
            {
                "start_time": 11.9613636,
                "end_time": 12.0454545,
                "pitch": 56,
                "velocity": 80,
                "duration": 0.0840909,
                "tempo": 120.0
            },
            {
                "start_time": 12.0613636,
                "end_time": 12.1454545,
                "pitch": 44,
                "velocity": 80,
                "duration": 0.0840909,
                "tempo": 120.0
            },
            {
                "start_time": 12.1636364,
                "end_time": 12.2454545,
                "pitch": 49,
                "velocity": 80,
                "duration": 0.0818182,
                "tempo": 120.0
            },
            {
                "start_time": 12.2636364,
                "end_time": 12.3477273,
                "pitch": 51,
                "velocity": 80,
                "duration": 0.0840909,
                "tempo": 120.0
            },
            {
                "start_time": 12.3659091,
                "end_time": 12.4522727,
                "pitch": 44,
                "velocity": 80,
                "duration": 0.0863636,
                "tempo": 120.0
            },
            {
                "start_time": 12.4681818,
                "end_time": 12.5545455,
                "pitch": 42,
                "velocity": 80,
                "duration": 0.0863636,
                "tempo": 120.0
            },
            {
                "start_time": 12.5727273,
                "end_time": 12.6568182,
                "pitch": 44,
                "velocity": 80,
                "duration": 0.0840909,
                "tempo": 120.0
            },
            {
                "start_time": 12.675,
                "end_time": 12.7568182,
                "pitch": 47,
                "velocity": 80,
                "duration": 0.0818182,
                "tempo": 120.0
            },
            {
                "start_time": 12.775,
                "end_time": 12.8568182,
                "pitch": 49,
                "velocity": 80,
                "duration": 0.0818182,
                "tempo": 120.0
            },
            {
                "start_time": 15.075,
                "end_time": 15.1590909,
                "pitch": 53,
                "velocity": 80,
                "duration": 0.0840909,
                "tempo": 120.0
            },
            {
                "start_time": 15.175,
                "end_time": 15.2590909,
                "pitch": 55,
                "velocity": 80,
                "duration": 0.0840909,
                "tempo": 120.0
            },
            {
                "start_time": 15.2772727,
                "end_time": 15.3590909,
                "pitch": 43,
                "velocity": 80,
                "duration": 0.0818182,
                "tempo": 120.0
            },
            {
                "start_time": 15.3772727,
                "end_time": 15.4613636,
                "pitch": 48,
                "velocity": 80,
                "duration": 0.0840909,
                "tempo": 120.0
            },
            {
                "start_time": 15.4772727,
                "end_time": 15.5636364,
                "pitch": 50,
                "velocity": 80,
                "duration": 0.0863636,
                "tempo": 120.0
            },
            {
                "start_time": 15.5795455,
                "end_time": 15.6659091,
                "pitch": 43,
                "velocity": 80,
                "duration": 0.0863636,
                "tempo": 120.0
            },
            {
                "start_time": 15.6818182,
                "end_time": 15.7681818,
                "pitch": 41,
                "velocity": 80,
                "duration": 0.0863636,
                "tempo": 120.0
            },
            {
                "start_time": 15.7863636,
                "end_time": 15.8704545,
                "pitch": 43,
                "velocity": 80,
                "duration": 0.0840909,
                "tempo": 120.0
            },
            {
                "start_time": 15.8886364,
                "end_time": 15.9727273,
                "pitch": 46,
                "velocity": 80,
                "duration": 0.0840909,
                "tempo": 120.0
            },
            {
                "start_time": 15.9886364,
                "end_time": 16.0727273,
                "pitch": 48,
                "velocity": 80,
                "duration": 0.0840909,
                "tempo": 120.0
            },
            {
                "start_time": 18.2772727,
                "end_time": 18.3636364,
                "pitch": 53,
                "velocity": 80,
                "duration": 0.0863636,
                "tempo": 120.0
            },
            {
                "start_time": 18.3818182,
                "end_time": 18.4659091,
                "pitch": 55,
                "velocity": 80,
                "duration": 0.0840909,
                "tempo": 120.0
            },
            {
                "start_time": 18.4840909,
                "end_time": 18.5681818,
                "pitch": 43,
                "velocity": 80,
                "duration": 0.0840909,
                "tempo": 120.0
            },
            {
                "start_time": 18.5863636,
                "end_time": 18.6727273,
                "pitch": 48,
                "velocity": 80,
                "duration": 0.0863636,
                "tempo": 120.0
            },
            {
                "start_time": 18.6886364,
                "end_time": 18.7727273,
                "pitch": 50,
                "velocity": 80,
                "duration": 0.0840909,
                "tempo": 120.0
            },
            {
                "start_time": 18.7886364,
                "end_time": 18.8727273,
                "pitch": 43,
                "velocity": 80,
                "duration": 0.0840909,
                "tempo": 120.0
            },
            {
                "start_time": 18.8886364,
                "end_time": 18.9727273,
                "pitch": 41,
                "velocity": 80,
                "duration": 0.0840909,
                "tempo": 120.0
            },
            {
                "start_time": 18.9886364,
                "end_time": 19.0727273,
                "pitch": 43,
                "velocity": 80,
                "duration": 0.0840909,
                "tempo": 120.0
            },
            {
                "start_time": 19.0886364,
                "end_time": 19.175,
                "pitch": 46,
                "velocity": 80,
                "duration": 0.0863636,
                "tempo": 120.0
            },
            {
                "start_time": 19.1909091,
                "end_time": 19.2772727,
                "pitch": 48,
                "velocity": 80,
                "duration": 0.0863636,
                "tempo": 120.0
            },
            {
                "start_time": 19.8931818,
                "end_time": 21.2840909,
                "pitch": 46,
                "velocity": 80,
                "duration": 1.3909091,
                "tempo": 120.0
            },
            {
                "start_time": 21.3022727,
                "end_time": 21.3818182,
                "pitch": 46,
                "velocity": 80,
                "duration": 0.0795455,
                "tempo": 120.0
            },
            {
                "start_time": 21.5977273,
                "end_time": 21.8795455,
                "pitch": 47,
                "velocity": 80,
                "duration": 0.2818182,
                "tempo": 120.0
            },
            {
                "start_time": 21.8977273,
                "end_time": 22.4886364,
                "pitch": 46,
                "velocity": 80,
                "duration": 0.5909091,
                "tempo": 120.0
            },
            {
                "start_time": 22.5045455,
                "end_time": 22.5863636,
                "pitch": 44,
                "velocity": 80,
                "duration": 0.0818182,
                "tempo": 120.0
            },
            {
                "start_time": 22.6022727,
                "end_time": 22.6840909,
                "pitch": 46,
                "velocity": 80,
                "duration": 0.0818182,
                "tempo": 120.0
            },
            {
                "start_time": 23.0931818,
                "end_time": 24.4931818,
                "pitch": 46,
                "velocity": 80,
                "duration": 1.4,
                "tempo": 120.0
            },
            {
                "start_time": 24.5090909,
                "end_time": 24.5909091,
                "pitch": 46,
                "velocity": 80,
                "duration": 0.0818182,
                "tempo": 120.0
            },
            {
                "start_time": 24.8068182,
                "end_time": 25.0886364,
                "pitch": 47,
                "velocity": 80,
                "duration": 0.2818182,
                "tempo": 120.0
            },
            {
                "start_time": 25.1068182,
                "end_time": 25.6977273,
                "pitch": 46,
                "velocity": 80,
                "duration": 0.5909091,
                "tempo": 120.0
            },
            {
                "start_time": 26.3113636,
                "end_time": 26.3954545,
                "pitch": 53,
                "velocity": 80,
                "duration": 0.0840909,
                "tempo": 120.0
            },
            {
                "start_time": 26.4136364,
                "end_time": 26.4954545,
                "pitch": 55,
                "velocity": 80,
                "duration": 0.0818182,
                "tempo": 120.0
            },
            {
                "start_time": 26.5136364,
                "end_time": 26.5977273,
                "pitch": 43,
                "velocity": 80,
                "duration": 0.0840909,
                "tempo": 120.0
            },
            {
                "start_time": 26.6136364,
                "end_time": 26.7977273,
                "pitch": 43,
                "velocity": 80,
                "duration": 0.1840909,
                "tempo": 120.0
            },
            {
                "start_time": 26.8136364,
                "end_time": 26.8977273,
                "pitch": 43,
                "velocity": 80,
                "duration": 0.0840909,
                "tempo": 120.0
            },
            {
                "start_time": 26.9136364,
                "end_time": 26.9977273,
                "pitch": 53,
                "velocity": 80,
                "duration": 0.0840909,
                "tempo": 120.0
            },
            {
                "start_time": 27.0136364,
                "end_time": 27.0977273,
                "pitch": 55,
                "velocity": 80,
                "duration": 0.0840909,
                "tempo": 120.0
            },
            {
                "start_time": 27.1136364,
                "end_time": 27.2,
                "pitch": 43,
                "velocity": 80,
                "duration": 0.0863636,
                "tempo": 120.0
            },
            {
                "start_time": 27.2181818,
                "end_time": 27.3022727,
                "pitch": 43,
                "velocity": 80,
                "duration": 0.0840909,
                "tempo": 120.0
            },
            {
                "start_time": 27.3204545,
                "end_time": 27.4045455,
                "pitch": 48,
                "velocity": 80,
                "duration": 0.0840909,
                "tempo": 120.0
            },
            {
                "start_time": 27.4227273,
                "end_time": 27.5068182,
                "pitch": 50,
                "velocity": 80,
                "duration": 0.0840909,
                "tempo": 120.0
            },
            {
                "start_time": 27.525,
                "end_time": 27.6090909,
                "pitch": 43,
                "velocity": 80,
                "duration": 0.0840909,
                "tempo": 120.0
            },
            {
                "start_time": 27.6272727,
                "end_time": 27.8113636,
                "pitch": 43,
                "velocity": 80,
                "duration": 0.1840909,
                "tempo": 120.0
            },
            {
                "start_time": 27.8272727,
                "end_time": 27.9113636,
                "pitch": 55,
                "velocity": 80,
                "duration": 0.0840909,
                "tempo": 120.0
            },
            {
                "start_time": 27.9272727,
                "end_time": 28.0090909,
                "pitch": 43,
                "velocity": 80,
                "duration": 0.0818182,
                "tempo": 120.0
            },
            {
                "start_time": 28.025,
                "end_time": 28.2045455,
                "pitch": 43,
                "velocity": 80,
                "duration": 0.1795455,
                "tempo": 120.0
            },
            {
                "start_time": 28.2227273,
                "end_time": 28.3045455,
                "pitch": 43,
                "velocity": 80,
                "duration": 0.0818182,
                "tempo": 120.0
            },
            {
                "start_time": 28.3204545,
                "end_time": 28.4045455,
                "pitch": 48,
                "velocity": 80,
                "duration": 0.0840909,
                "tempo": 120.0
            },
            {
                "start_time": 28.4227273,
                "end_time": 28.5090909,
                "pitch": 50,
                "velocity": 80,
                "duration": 0.0863636,
                "tempo": 120.0
            },
            {
                "start_time": 28.525,
                "end_time": 28.6113636,
                "pitch": 53,
                "velocity": 80,
                "duration": 0.0863636,
                "tempo": 120.0
            },
            {
                "start_time": 28.6272727,
                "end_time": 28.7136364,
                "pitch": 55,
                "velocity": 80,
                "duration": 0.0863636,
                "tempo": 120.0
            },
            {
                "start_time": 28.7318182,
                "end_time": 28.9113636,
                "pitch": 44,
                "velocity": 80,
                "duration": 0.1795455,
                "tempo": 120.0
            },
            {
                "start_time": 29.5340909,
                "end_time": 29.6159091,
                "pitch": 54,
                "velocity": 80,
                "duration": 0.0818182,
                "tempo": 120.0
            },
            {
                "start_time": 29.6318182,
                "end_time": 29.7136364,
                "pitch": 56,
                "velocity": 80,
                "duration": 0.0818182,
                "tempo": 120.0
            },
            {
                "start_time": 29.7295455,
                "end_time": 29.8113636,
                "pitch": 44,
                "velocity": 80,
                "duration": 0.0818182,
                "tempo": 120.0
            },
            {
                "start_time": 29.8272727,
                "end_time": 30.0090909,
                "pitch": 44,
                "velocity": 80,
                "duration": 0.1818182,
                "tempo": 120.0
            },
            {
                "start_time": 30.025,
                "end_time": 30.1090909,
                "pitch": 44,
                "velocity": 80,
                "duration": 0.0840909,
                "tempo": 120.0
            },
            {
                "start_time": 30.125,
                "end_time": 30.2090909,
                "pitch": 54,
                "velocity": 80,
                "duration": 0.0840909,
                "tempo": 120.0
            },
            {
                "start_time": 30.225,
                "end_time": 30.3090909,
                "pitch": 56,
                "velocity": 80,
                "duration": 0.0840909,
                "tempo": 120.0
            },
            {
                "start_time": 30.325,
                "end_time": 30.4090909,
                "pitch": 44,
                "velocity": 80,
                "duration": 0.0840909,
                "tempo": 120.0
            },
            {
                "start_time": 30.4272727,
                "end_time": 30.5090909,
                "pitch": 44,
                "velocity": 80,
                "duration": 0.0818182,
                "tempo": 120.0
            },
            {
                "start_time": 30.5272727,
                "end_time": 30.6113636,
                "pitch": 49,
                "velocity": 80,
                "duration": 0.0840909,
                "tempo": 120.0
            },
            {
                "start_time": 30.6272727,
                "end_time": 30.7113636,
                "pitch": 51,
                "velocity": 80,
                "duration": 0.0840909,
                "tempo": 120.0
            },
            {
                "start_time": 30.7272727,
                "end_time": 30.8113636,
                "pitch": 44,
                "velocity": 80,
                "duration": 0.0840909,
                "tempo": 120.0
            },
            {
                "start_time": 30.8272727,
                "end_time": 31.0113636,
                "pitch": 44,
                "velocity": 80,
                "duration": 0.1840909,
                "tempo": 120.0
            },
            {
                "start_time": 31.0272727,
                "end_time": 31.1113636,
                "pitch": 56,
                "velocity": 80,
                "duration": 0.0840909,
                "tempo": 120.0
            },
            {
                "start_time": 31.1272727,
                "end_time": 31.2113636,
                "pitch": 44,
                "velocity": 80,
                "duration": 0.0840909,
                "tempo": 120.0
            },
            {
                "start_time": 31.2295455,
                "end_time": 31.4136364,
                "pitch": 44,
                "velocity": 80,
                "duration": 0.1840909,
                "tempo": 120.0
            },
            {
                "start_time": 31.4295455,
                "end_time": 31.5136364,
                "pitch": 44,
                "velocity": 80,
                "duration": 0.0840909,
                "tempo": 120.0
            },
            {
                "start_time": 31.5318182,
                "end_time": 31.6159091,
                "pitch": 49,
                "velocity": 80,
                "duration": 0.0840909,
                "tempo": 120.0
            },
            {
                "start_time": 31.6340909,
                "end_time": 31.7181818,
                "pitch": 51,
                "velocity": 80,
                "duration": 0.0840909,
                "tempo": 120.0
            },
            {
                "start_time": 31.7363636,
                "end_time": 31.8227273,
                "pitch": 54,
                "velocity": 80,
                "duration": 0.0863636,
                "tempo": 120.0
            },
            {
                "start_time": 31.8386364,
                "end_time": 31.925,
                "pitch": 56,
                "velocity": 80,
                "duration": 0.0863636,
                "tempo": 120.0
            },
            {
                "start_time": 31.9409091,
                "end_time": 32.125,
                "pitch": 43,
                "velocity": 80,
                "duration": 0.1840909,
                "tempo": 120.0
            },
            {
                "start_time": 32.7409091,
                "end_time": 32.8227273,
                "pitch": 53,
                "velocity": 80,
                "duration": 0.0818182,
                "tempo": 120.0
            },
            {
                "start_time": 32.8409091,
                "end_time": 32.9204545,
                "pitch": 55,
                "velocity": 80,
                "duration": 0.0795455,
                "tempo": 120.0
            },
            {
                "start_time": 32.9386364,
                "end_time": 33.0204545,
                "pitch": 43,
                "velocity": 80,
                "duration": 0.0818182,
                "tempo": 120.0
            },
            {
                "start_time": 33.0363636,
                "end_time": 33.2181818,
                "pitch": 43,
                "velocity": 80,
                "duration": 0.1818182,
                "tempo": 120.0
            },
            {
                "start_time": 33.2340909,
                "end_time": 33.3181818,
                "pitch": 43,
                "velocity": 80,
                "duration": 0.0840909,
                "tempo": 120.0
            },
            {
                "start_time": 33.3340909,
                "end_time": 33.4181818,
                "pitch": 53,
                "velocity": 80,
                "duration": 0.0840909,
                "tempo": 120.0
            },
            {
                "start_time": 33.4340909,
                "end_time": 33.5181818,
                "pitch": 55,
                "velocity": 80,
                "duration": 0.0840909,
                "tempo": 120.0
            },
            {
                "start_time": 33.5340909,
                "end_time": 33.6181818,
                "pitch": 43,
                "velocity": 80,
                "duration": 0.0840909,
                "tempo": 120.0
            },
            {
                "start_time": 33.6363636,
                "end_time": 33.7227273,
                "pitch": 43,
                "velocity": 80,
                "duration": 0.0863636,
                "tempo": 120.0
            },
            {
                "start_time": 33.7386364,
                "end_time": 33.825,
                "pitch": 48,
                "velocity": 80,
                "duration": 0.0863636,
                "tempo": 120.0
            },
            {
                "start_time": 33.8431818,
                "end_time": 33.9272727,
                "pitch": 50,
                "velocity": 80,
                "duration": 0.0840909,
                "tempo": 120.0
            },
            {
                "start_time": 33.9454545,
                "end_time": 34.0272727,
                "pitch": 43,
                "velocity": 80,
                "duration": 0.0818182,
                "tempo": 120.0
            },
            {
                "start_time": 34.0454545,
                "end_time": 34.2272727,
                "pitch": 43,
                "velocity": 80,
                "duration": 0.1818182,
                "tempo": 120.0
            },
            {
                "start_time": 34.2454545,
                "end_time": 34.3272727,
                "pitch": 55,
                "velocity": 80,
                "duration": 0.0818182,
                "tempo": 120.0
            },
            {
                "start_time": 34.3454545,
                "end_time": 34.4272727,
                "pitch": 43,
                "velocity": 80,
                "duration": 0.0818182,
                "tempo": 120.0
            },
            {
                "start_time": 34.4431818,
                "end_time": 34.6227273,
                "pitch": 43,
                "velocity": 80,
                "duration": 0.1795455,
                "tempo": 120.0
            },
            {
                "start_time": 34.6386364,
                "end_time": 34.7204545,
                "pitch": 43,
                "velocity": 80,
                "duration": 0.0818182,
                "tempo": 120.0
            },
            {
                "start_time": 34.7363636,
                "end_time": 34.8227273,
                "pitch": 48,
                "velocity": 80,
                "duration": 0.0863636,
                "tempo": 120.0
            },
            {
                "start_time": 34.8386364,
                "end_time": 34.925,
                "pitch": 50,
                "velocity": 80,
                "duration": 0.0863636,
                "tempo": 120.0
            },
            {
                "start_time": 34.9431818,
                "end_time": 35.0272727,
                "pitch": 53,
                "velocity": 80,
                "duration": 0.0840909,
                "tempo": 120.0
            },
            {
                "start_time": 35.0454545,
                "end_time": 35.1295455,
                "pitch": 55,
                "velocity": 80,
                "duration": 0.0840909,
                "tempo": 120.0
            },
            {
                "start_time": 35.1477273,
                "end_time": 35.3318182,
                "pitch": 44,
                "velocity": 80,
                "duration": 0.1840909,
                "tempo": 120.0
            },
            {
                "start_time": 35.95,
                "end_time": 36.0318182,
                "pitch": 54,
                "velocity": 80,
                "duration": 0.0818182,
                "tempo": 120.0
            },
            {
                "start_time": 36.0477273,
                "end_time": 36.1295455,
                "pitch": 56,
                "velocity": 80,
                "duration": 0.0818182,
                "tempo": 120.0
            },
            {
                "start_time": 36.1477273,
                "end_time": 36.2272727,
                "pitch": 44,
                "velocity": 80,
                "duration": 0.0795455,
                "tempo": 120.0
            },
            {
                "start_time": 36.2454545,
                "end_time": 36.425,
                "pitch": 44,
                "velocity": 80,
                "duration": 0.1795455,
                "tempo": 120.0
            },
            {
                "start_time": 36.4431818,
                "end_time": 36.525,
                "pitch": 44,
                "velocity": 80,
                "duration": 0.0818182,
                "tempo": 120.0
            },
            {
                "start_time": 36.5431818,
                "end_time": 36.625,
                "pitch": 54,
                "velocity": 80,
                "duration": 0.0818182,
                "tempo": 120.0
            },
            {
                "start_time": 36.6431818,
                "end_time": 36.725,
                "pitch": 56,
                "velocity": 80,
                "duration": 0.0818182,
                "tempo": 120.0
            },
            {
                "start_time": 36.7431818,
                "end_time": 36.8272727,
                "pitch": 44,
                "velocity": 80,
                "duration": 0.0840909,
                "tempo": 120.0
            },
            {
                "start_time": 36.8454545,
                "end_time": 36.9318182,
                "pitch": 44,
                "velocity": 80,
                "duration": 0.0863636,
                "tempo": 120.0
            },
            {
                "start_time": 36.9477273,
                "end_time": 37.0340909,
                "pitch": 49,
                "velocity": 80,
                "duration": 0.0863636,
                "tempo": 120.0
            },
            {
                "start_time": 37.05,
                "end_time": 37.1363636,
                "pitch": 51,
                "velocity": 80,
                "duration": 0.0863636,
                "tempo": 120.0
            },
            {
                "start_time": 37.1545455,
                "end_time": 37.2340909,
                "pitch": 44,
                "velocity": 80,
                "duration": 0.0795455,
                "tempo": 120.0
            },
            {
                "start_time": 37.2522727,
                "end_time": 37.4318182,
                "pitch": 44,
                "velocity": 80,
                "duration": 0.1795455,
                "tempo": 120.0
            },
            {
                "start_time": 37.4477273,
                "end_time": 37.5295455,
                "pitch": 56,
                "velocity": 80,
                "duration": 0.0818182,
                "tempo": 120.0
            },
            {
                "start_time": 37.5454545,
                "end_time": 37.6295455,
                "pitch": 44,
                "velocity": 80,
                "duration": 0.0840909,
                "tempo": 120.0
            },
            {
                "start_time": 37.6454545,
                "end_time": 37.8295455,
                "pitch": 44,
                "velocity": 80,
                "duration": 0.1840909,
                "tempo": 120.0
            },
            {
                "start_time": 37.8454545,
                "end_time": 37.9295455,
                "pitch": 44,
                "velocity": 80,
                "duration": 0.0840909,
                "tempo": 120.0
            },
            {
                "start_time": 37.9454545,
                "end_time": 38.0318182,
                "pitch": 49,
                "velocity": 80,
                "duration": 0.0863636,
                "tempo": 120.0
            },
            {
                "start_time": 38.0477273,
                "end_time": 38.1340909,
                "pitch": 51,
                "velocity": 80,
                "duration": 0.0863636,
                "tempo": 120.0
            },
            {
                "start_time": 38.15,
                "end_time": 38.2363636,
                "pitch": 54,
                "velocity": 80,
                "duration": 0.0863636,
                "tempo": 120.0
            },
            {
                "start_time": 38.2545455,
                "end_time": 38.3386364,
                "pitch": 56,
                "velocity": 80,
                "duration": 0.0840909,
                "tempo": 120.0
            },
            {
                "start_time": 45.575,
                "end_time": 46.9590909,
                "pitch": 46,
                "velocity": 80,
                "duration": 1.3840909,
                "tempo": 120.0
            },
            {
                "start_time": 46.975,
                "end_time": 47.0568182,
                "pitch": 46,
                "velocity": 80,
                "duration": 0.0818182,
                "tempo": 120.0
            },
            {
                "start_time": 47.2727273,
                "end_time": 47.5545455,
                "pitch": 47,
                "velocity": 80,
                "duration": 0.2818182,
                "tempo": 120.0
            },
            {
                "start_time": 47.5727273,
                "end_time": 48.1613636,
                "pitch": 46,
                "velocity": 80,
                "duration": 0.5886364,
                "tempo": 120.0
            },
            {
                "start_time": 48.1795455,
                "end_time": 48.2590909,
                "pitch": 44,
                "velocity": 80,
                "duration": 0.0795455,
                "tempo": 120.0
            },
            {
                "start_time": 48.2772727,
                "end_time": 48.3568182,
                "pitch": 46,
                "velocity": 80,
                "duration": 0.0795455,
                "tempo": 120.0
            },
            {
                "start_time": 48.375,
                "end_time": 49.7613636,
                "pitch": 46,
                "velocity": 80,
                "duration": 1.3863636,
                "tempo": 120.0
            },
            {
                "start_time": 50.1795455,
                "end_time": 50.2613636,
                "pitch": 46,
                "velocity": 80,
                "duration": 0.0818182,
                "tempo": 120.0
            },
            {
                "start_time": 50.4795455,
                "end_time": 50.7636364,
                "pitch": 47,
                "velocity": 80,
                "duration": 0.2840909,
                "tempo": 120.0
            },
            {
                "start_time": 50.7795455,
                "end_time": 51.3886364,
                "pitch": 46,
                "velocity": 80,
                "duration": 0.6090909,
                "tempo": 120.0
            }
        ]
    }
}