{
    "mood": "sad",
    "instruments": {
        "Flute": [
            {
                "start_time": 0.2363636,
                "end_time": 1.0022727,
                "pitch": 83,
                "velocity": 40,
                "duration": 0.7659091,
                "tempo": 120.0
            },
            {
                "start_time": 1.0022727,
                "end_time": 1.7477273,
                "pitch": 81,
                "velocity": 40,
                "duration": 0.7454545,
                "tempo": 120.0
            },
            {
                "start_time": 1.7477273,
                "end_time": 1.8340909,
                "pitch": 81,
                "velocity": 40,
                "duration": 0.0863636,
                "tempo": 120.0
            },
            {
                "start_time": 1.8340909,
                "end_time": 2.4954545,
                "pitch": 83,
                "velocity": 40,
                "duration": 0.6613636,
                "tempo": 120.0
            },
            {
                "start_time": 2.4954545,
                "end_time": 2.5636364,
                "pitch": 79,
                "velocity": 40,
                "duration": 0.0681818,
                "tempo": 120.0
            },
            {
                "start_time": 2.5636364,
                "end_time": 2.6977273,
                "pitch": 79,
                "velocity": 40,
                "duration": 0.1340909,
                "tempo": 120.0
            },
            {
                "start_time": 2.6977273,
                "end_time": 2.8318182,
                "pitch": 79,
                "velocity": 40,
                "duration": 0.1340909,
                "tempo": 120.0
            },
            {
                "start_time": 2.8318182,
                "end_time": 2.9659091,
                "pitch": 79,
                "velocity": 40,
                "duration": 0.1340909,
                "tempo": 120.0
            },
            {
                "start_time": 2.9659091,
                "end_time": 3.1,
                "pitch": 79,
                "velocity": 40,
                "duration": 0.1340909,
                "tempo": 120.0
            },
            {
                "start_time": 3.1,
                "end_time": 3.2295455,
                "pitch": 79,
                "velocity": 40,
                "duration": 0.1295455,
                "tempo": 120.0
            },
            {
                "start_time": 3.2295455,
                "end_time": 3.2613636,
                "pitch": 79,
                "velocity": 40,
                "duration": 0.0318182,
                "tempo": 120.0
            },
            {
                "start_time": 3.2613636,
                "end_time": 4.0045455,
                "pitch": 79,
                "velocity": 40,
                "duration": 0.7431818,
                "tempo": 120.0
            },
            {
                "start_time": 4.0045455,
                "end_time": 4.0681818,
                "pitch": 79,
                "velocity": 40,
                "duration": 0.0636364,
                "tempo": 120.0
            },
            {
                "start_time": 4.0681818,
                "end_time": 4.2,
                "pitch": 79,
                "velocity": 40,
                "duration": 0.1318182,
                "tempo": 120.0
            },
            {
                "start_time": 4.2,
                "end_time": 4.3318182,
                "pitch": 79,
                "velocity": 40,
                "duration": 0.1318182,
                "tempo": 120.0
            },
            {
                "start_time": 4.3318182,
                "end_time": 4.4659091,
                "pitch": 79,
                "velocity": 40,
                "duration": 0.1340909,
                "tempo": 120.0
            },
            {
                "start_time": 4.4659091,
                "end_time": 4.6,
                "pitch": 79,
                "velocity": 40,
                "duration": 0.1340909,
                "tempo": 120.0
            },
            {
                "start_time": 4.6,
                "end_time": 4.7340909,
                "pitch": 79,
                "velocity": 40,
                "duration": 0.1340909,
                "tempo": 120.0
            },
            {
                "start_time": 4.7340909,
                "end_time": 4.7522727,
                "pitch": 79,
                "velocity": 40,
                "duration": 0.0181818,
                "tempo": 120.0
            },
            {
                "start_time": 4.7522727,
                "end_time": 4.8363636,
                "pitch": 79,
                "velocity": 40,
                "duration": 0.0840909,
                "tempo": 120.0
            },
            {
                "start_time": 4.8363636,
                "end_time": 6.2363636,
                "pitch": 81,
                "velocity": 40,
                "duration": 1.4,
                "tempo": 120.0
            },
            {
                "start_time": 6.2363636,
                "end_time": 6.9795455,
                "pitch": 84,
                "velocity": 40,
                "duration": 0.7431818,
                "tempo": 120.0
            },
            {
                "start_time": 6.9795455,
                "end_time": 7.75,
                "pitch": 84,
                "velocity": 40,
                "duration": 0.7704545,
                "tempo": 120.0
            },
            {
                "start_time": 7.75,
                "end_time": 8.4977273,
                "pitch": 83,
                "velocity": 40,
                "duration": 0.7477273,
                "tempo": 120.0
            },
            {
                "start_time": 8.4977273,
                "end_time": 9.25,
                "pitch": 81,
                "velocity": 40,
                "duration": 0.7522727,
                "tempo": 120.0
            },
            {
                "start_time": 9.25,
                "end_time": 9.3386364,
                "pitch": 81,
                "velocity": 40,
                "duration": 0.0886364,
                "tempo": 120.0
            },
            {
                "start_time": 9.3386364,
                "end_time": 10.3659091,
                "pitch": 83,
                "velocity": 40,
                "duration": 1.0272727,
                "tempo": 120.0
            },
            {
                "start_time": 10.3659091,
                "end_time": 10.7318182,
                "pitch": 83,
                "velocity": 40,
                "duration": 0.3659091,
                "tempo": 120.0
            },
            {
                "start_time": 10.7318182,
                "end_time": 11.8545455,
                "pitch": 81,
                "velocity": 40,
                "duration": 1.1227273,
                "tempo": 120.0
            },
            {
                "start_time": 11.8545455,
                "end_time": 12.2340909,
                "pitch": 81,
                "velocity": 40,
                "duration": 0.3795455,
                "tempo": 120.0
            },
            {
                "start_time": 12.2340909,
                "end_time": 12.3,
                "pitch": 79,
                "velocity": 40,
                "duration": 0.0659091,
                "tempo": 120.0
            },
            {
                "start_time": 12.3,
                "end_time": 12.4295455,
                "pitch": 79,
                "velocity": 40,
                "duration": 0.1295455,
                "tempo": 120.0
            },
            {
                "start_time": 12.4295455,
                "end_time": 12.5636364,
                "pitch": 79,
                "velocity": 40,
                "duration": 0.1340909,
                "tempo": 120.0
            },
            {
                "start_time": 12.5636364,
                "end_time": 12.6977273,
                "pitch": 79,
                "velocity": 40,
                "duration": 0.1340909,
                "tempo": 120.0
            },
            {
                "start_time": 12.6977273,
                "end_time": 12.8318182,
                "pitch": 79,
                "velocity": 40,
                "duration": 0.1340909,
                "tempo": 120.0
            },
            {
                "start_time": 12.8318182,
                "end_time": 12.9613636,
                "pitch": 79,
                "velocity": 40,
                "duration": 0.1295455,
                "tempo": 120.0
            },
            {
                "start_time": 12.9613636,
                "end_time": 13.0909091,
                "pitch": 79,
                "velocity": 40,
                "duration": 0.1295455,
                "tempo": 120.0
            },
            {
                "start_time": 13.0909091,
                "end_time": 13.2227273,
                "pitch": 79,
                "velocity": 40,
                "duration": 0.1318182,
                "tempo": 120.0
            },
            {
                "start_time": 13.2227273,
                "end_time": 13.3386364,
                "pitch": 79,
                "velocity": 40,
                "duration": 0.1159091,
                "tempo": 120.0
            },
            {
                "start_time": 13.3386364,
                "end_time": 13.725,
                "pitch": 79,
                "velocity": 40,
                "duration": 0.3863636,
                "tempo": 120.0
            },
            {
                "start_time": 13.725,
                "end_time": 14.4704545,
                "pitch": 76,
                "velocity": 40,
                "duration": 0.7454545,
                "tempo": 120.0
            },
            {
                "start_time": 14.4704545,
                "end_time": 15.2136364,
                "pitch": 84,
                "velocity": 40,
                "duration": 0.7431818,
                "tempo": 120.0
            },
            {
                "start_time": 15.2136364,
                "end_time": 16.7272727,
                "pitch": 84,
                "velocity": 40,
                "duration": 1.5136364,
                "tempo": 120.0
            },
            {
                "start_time": 16.7272727,
                "end_time": 17.475,
                "pitch": 88,
                "velocity": 40,
                "duration": 0.7477273,
                "tempo": 120.0
            },
            {
                "start_time": 17.475,
                "end_time": 17.8545455,
                "pitch": 83,
                "velocity": 40,
                "duration": 0.3795455,
                "tempo": 120.0
            },
            {
                "start_time": 17.8545455,
                "end_time": 18.2204545,
                "pitch": 88,
                "velocity": 40,
                "duration": 0.3659091,
                "tempo": 120.0
            },
            {
                "start_time": 18.2204545,
                "end_time": 19.7022727,
                "pitch": 86,
                "velocity": 40,
                "duration": 1.4818182,
                "tempo": 120.0
            },
            {
                "start_time": 19.7022727,
                "end_time": 20.4727273,
                "pitch": 90,
                "velocity": 40,
                "duration": 0.7704545,
                "tempo": 120.0
            },
            {
                "start_time": 20.4727273,
                "end_time": 21.225,
                "pitch": 86,
                "velocity": 40,
                "duration": 0.7522727,
                "tempo": 120.0
            },
            {
                "start_time": 21.225,
                "end_time": 22.3477273,
                "pitch": 89,
                "velocity": 40,
                "duration": 1.1227273,
                "tempo": 120.0
            },
            {
                "start_time": 22.3477273,
                "end_time": 22.7090909,
                "pitch": 89,
                "velocity": 40,
                "duration": 0.3613636,
                "tempo": 120.0
            },
            {
                "start_time": 22.7090909,
                "end_time": 23.0909091,
                "pitch": 86,
                "velocity": 40,
                "duration": 0.3818182,
                "tempo": 120.0
            },
            {
                "start_time": 23.0909091,
                "end_time": 23.4522727,
                "pitch": 84,
                "velocity": 40,
                "duration": 0.3613636,
                "tempo": 120.0
            },
            {
                "start_time": 23.4522727,
                "end_time": 23.8386364,
                "pitch": 84,
                "velocity": 40,
                "duration": 0.3863636,
                "tempo": 120.0
            },
            {
                "start_time": 23.8386364,
                "end_time": 24.2181818,
                "pitch": 81,
                "velocity": 40,
                "duration": 0.3795455,
                "tempo": 120.0
            },
            {
                "start_time": 24.2181818,
                "end_time": 25.7022727,
                "pitch": 81,
                "velocity": 40,
                "duration": 1.4840909,
                "tempo": 120.0
            },
            {
                "start_time": 25.7022727,
                "end_time": 25.7204545,
                "pitch": 83,
                "velocity": 40,
                "duration": 0.0181818,
                "tempo": 120.0
            },
            {
                "start_time": 25.7204545,
                "end_time": 26.8363636,
                "pitch": 81,
                "velocity": 40,
                "duration": 1.1159091,
                "tempo": 120.0
            },
            {
                "start_time": 26.8363636,
                "end_time": 27.1977273,
                "pitch": 81,
                "velocity": 40,
                "duration": 0.3613636,
                "tempo": 120.0
            },
            {
                "start_time": 27.1977273,
                "end_time": 28.7159091,
                "pitch": 84,
                "velocity": 40,
                "duration": 1.5181818,
                "tempo": 120.0
            },
            {
                "start_time": 28.7159091,
                "end_time": 28.8,
                "pitch": 108,
                "velocity": 16,
                "duration": 0.0840909,
                "tempo": 120.0
            },
            {
                "start_time": 28.8,
                "end_time": 28.9,
                "pitch": 108,
                "velocity": 16,
                "duration": 0.1,
                "tempo": 120.0
            },
            {
                "start_time": 28.9,
                "end_time": 29.0,
                "pitch": 105,
                "velocity": 16,
                "duration": 0.1,
                "tempo": 120.0
            },
            {
                "start_time": 29.0,
                "end_time": 29.0636364,
                "pitch": 103,
                "velocity": 16,
                "duration": 0.0636364,
                "tempo": 120.0
            },
            {
                "start_time": 29.0636364,
                "end_time": 29.0795455,
                "pitch": 103,
                "velocity": 16,
                "duration": 0.0159091,
                "tempo": 120.0
            },
            {
                "start_time": 29.0795455,
                "end_time": 29.1772727,
                "pitch": 102,
                "velocity": 16,
                "duration": 0.0977273,
                "tempo": 120.0
            },
            {
                "start_time": 29.1772727,
                "end_time": 29.2590909,
                "pitch": 100,
                "velocity": 16,
                "duration": 0.0818182,
                "tempo": 120.0
            },
            {
                "start_time": 29.2590909,
                "end_time": 29.3568182,
                "pitch": 98,
                "velocity": 16,
                "duration": 0.0977273,
                "tempo": 120.0
            },
            {
                "start_time": 29.3568182,
                "end_time": 29.4545455,
                "pitch": 96,
                "velocity": 16,
                "duration": 0.0977273,
                "tempo": 120.0
            },
            {
                "start_time": 29.4545455,
                "end_time": 29.5340909,
                "pitch": 96,
                "velocity": 16,
                "duration": 0.0795455,
                "tempo": 120.0
            },
            {
                "start_time": 29.5340909,
                "end_time": 29.6318182,
                "pitch": 93,
                "velocity": 16,
                "duration": 0.0977273,
                "tempo": 120.0
            },
            {
                "start_time": 29.6318182,
                "end_time": 29.6977273,
                "pitch": 91,
                "velocity": 16,
                "duration": 0.0659091,
                "tempo": 120.0
            },
            {
                "start_time": 29.6977273,
                "end_time": 29.7318182,
                "pitch": 91,
                "velocity": 16,
                "duration": 0.0340909,
                "tempo": 120.0
            },
            {
                "start_time": 29.7318182,
                "end_time": 29.8159091,
                "pitch": 90,
                "velocity": 16,
                "duration": 0.0840909,
                "tempo": 120.0
            },
            {
                "start_time": 29.8159091,
                "end_time": 29.9159091,
                "pitch": 88,
                "velocity": 16,
                "duration": 0.1,
                "tempo": 120.0
            },
            {
                "start_time": 29.9159091,
                "end_time": 30.0159091,
                "pitch": 86,
                "velocity": 16,
                "duration": 0.1,
                "tempo": 120.0
            },
            {
                "start_time": 30.0159091,
                "end_time": 30.1,
                "pitch": 84,
                "velocity": 16,
                "duration": 0.0840909,
                "tempo": 120.0
            },
            {
                "start_time": 30.1,
                "end_time": 30.2022727,
                "pitch": 84,
                "velocity": 16,
                "duration": 0.1022727,
                "tempo": 120.0
            },
            {
                "start_time": 30.2022727,
                "end_time": 30.9431818,
                "pitch": 83,
                "velocity": 40,
                "duration": 0.7409091,
                "tempo": 120.0
            },
            {
                "start_time": 30.9431818,
                "end_time": 31.0613636,
                "pitch": 81,
                "velocity": 40,
                "duration": 0.1181818,
                "tempo": 120.0
            }
        ],
        "Vibraphone": [
            {
                "start_time": 0.3545455,
                "end_time": 0.7477273,
                "pitch": 47,
                "velocity": 40,
                "duration": 0.3931818,
                "tempo": 120.0
            },
            {
                "start_time": 0.7477273,
                "end_time": 1.1363636,
                "pitch": 52,
                "velocity": 40,
                "duration": 0.3886364,
                "tempo": 120.0
            },
            {
                "start_time": 1.1363636,
                "end_time": 1.2022727,
                "pitch": 55,
                "velocity": 40,
                "duration": 0.0659091,
                "tempo": 120.0
            },
            {
                "start_time": 1.2022727,
                "end_time": 1.2681818,
                "pitch": 55,
                "velocity": 40,
                "duration": 0.0659091,
                "tempo": 120.0
            },
            {
                "start_time": 1.2681818,
                "end_time": 1.3340909,
                "pitch": 55,
                "velocity": 40,
                "duration": 0.0659091,
                "tempo": 120.0
            },
            {
                "start_time": 1.3340909,
                "end_time": 1.3977273,
                "pitch": 55,
                "velocity": 40,
                "duration": 0.0636364,
                "tempo": 120.0
            },
            {
                "start_time": 1.3977273,
                "end_time": 1.4636364,
                "pitch": 55,
                "velocity": 40,
                "duration": 0.0659091,
                "tempo": 120.0
            },
            {
                "start_time": 1.4636364,
                "end_time": 1.4954545,
                "pitch": 55,
                "velocity": 40,
                "duration": 0.0318182,
                "tempo": 120.0
            },
            {
                "start_time": 1.4954545,
                "end_time": 1.8840909,
                "pitch": 59,
                "velocity": 40,
                "duration": 0.3886364,
                "tempo": 120.0
            },
            {
                "start_time": 1.8840909,
                "end_time": 1.9545455,
                "pitch": 55,
                "velocity": 40,
                "duration": 0.0704545,
                "tempo": 120.0
            },
            {
                "start_time": 1.9545455,
                "end_time": 2.0204545,
                "pitch": 55,
                "velocity": 40,
                "duration": 0.0659091,
                "tempo": 120.0
            },
            {
                "start_time": 2.0204545,
                "end_time": 2.0863636,
                "pitch": 55,
                "velocity": 40,
                "duration": 0.0659091,
                "tempo": 120.0
            },
            {
                "start_time": 2.0863636,
                "end_time": 2.15,
                "pitch": 55,
                "velocity": 40,
                "duration": 0.0636364,
                "tempo": 120.0
            },
            {
                "start_time": 2.15,
                "end_time": 2.2159091,
                "pitch": 55,
                "velocity": 40,
                "duration": 0.0659091,
                "tempo": 120.0
            },
            {
                "start_time": 2.2159091,
                "end_time": 2.2477273,
                "pitch": 55,
                "velocity": 40,
                "duration": 0.0318182,
                "tempo": 120.0
            },
            {
                "start_time": 2.2477273,
                "end_time": 2.6295455,
                "pitch": 52,
                "velocity": 40,
                "duration": 0.3818182,
                "tempo": 120.0
            },
            {
                "start_time": 2.6295455,
                "end_time": 3.0159091,
                "pitch": 48,
                "velocity": 40,
                "duration": 0.3863636,
                "tempo": 120.0
            },
            {
                "start_time": 3.0159091,
                "end_time": 3.375,
                "pitch": 52,
                "velocity": 40,
                "duration": 0.3590909,
                "tempo": 120.0
            },
            {
                "start_time": 3.375,
                "end_time": 3.7568182,
                "pitch": 47,
                "velocity": 40,
                "duration": 0.3818182,
                "tempo": 120.0
            },
            {
                "start_time": 3.7568182,
                "end_time": 4.1181818,
                "pitch": 50,
                "velocity": 40,
                "duration": 0.3613636,
                "tempo": 120.0
            },
            {
                "start_time": 4.1181818,
                "end_time": 4.5,
                "pitch": 54,
                "velocity": 40,
                "duration": 0.3818182,
                "tempo": 120.0
            },
            {
                "start_time": 4.5,
                "end_time": 4.8681818,
                "pitch": 57,
                "velocity": 40,
                "duration": 0.3681818,
                "tempo": 120.0
            },
            {
                "start_time": 4.8681818,
                "end_time": 5.2454545,
                "pitch": 54,
                "velocity": 40,
                "duration": 0.3772727,
                "tempo": 120.0
            },
            {
                "start_time": 5.2454545,
                "end_time": 5.6272727,
                "pitch": 50,
                "velocity": 40,
                "duration": 0.3818182,
                "tempo": 120.0
            },
            {
                "start_time": 5.6272727,
                "end_time": 5.9886364,
                "pitch": 47,
                "velocity": 40,
                "duration": 0.3613636,
                "tempo": 120.0
            },
            {
                "start_time": 5.9886364,
                "end_time": 6.3704545,
                "pitch": 50,
                "velocity": 40,
                "duration": 0.3818182,
                "tempo": 120.0
            },
            {
                "start_time": 6.3704545,
                "end_time": 6.7295455,
                "pitch": 53,
                "velocity": 40,
                "duration": 0.3590909,
                "tempo": 120.0
            },
            {
                "start_time": 6.7295455,
                "end_time": 7.1136364,
                "pitch": 57,
                "velocity": 40,
                "duration": 0.3840909,
                "tempo": 120.0
            },
            {
                "start_time": 7.1136364,
                "end_time": 7.5045455,
                "pitch": 60,
                "velocity": 40,
                "duration": 0.3909091,
                "tempo": 120.0
            },
            {
                "start_time": 7.5045455,
                "end_time": 7.8613636,
                "pitch": 65,
                "velocity": 40,
                "duration": 0.3568182,
                "tempo": 120.0
            },
            {
                "start_time": 7.8613636,
                "end_time": 8.2477273,
                "pitch": 60,
                "velocity": 40,
                "duration": 0.3863636,
                "tempo": 120.0
            },
            {
                "start_time": 8.2477273,
                "end_time": 8.6113636,
                "pitch": 57,
                "velocity": 40,
                "duration": 0.3636364,
                "tempo": 120.0
            },
            {
                "start_time": 8.6113636,
                "end_time": 8.9931818,
                "pitch": 53,
                "velocity": 40,
                "duration": 0.3818182,
                "tempo": 120.0
            },
            {
                "start_time": 8.9931818,
                "end_time": 9.3931818,
                "pitch": 57,
                "velocity": 40,
                "duration": 0.4,
                "tempo": 120.0
            },
            {
                "start_time": 9.3931818,
                "end_time": 9.7431818,
                "pitch": 50,
                "velocity": 40,
                "duration": 0.35,
                "tempo": 120.0
            },
            {
                "start_time": 9.7431818,
                "end_time": 9.8045455,
                "pitch": 55,
                "velocity": 40,
                "duration": 0.0613636,
                "tempo": 120.0
            },
            {
                "start_time": 9.8045455,
                "end_time": 9.8681818,
                "pitch": 55,
                "velocity": 40,
                "duration": 0.0636364,
                "tempo": 120.0
            },
            {
                "start_time": 9.8681818,
                "end_time": 9.9363636,
                "pitch": 55,
                "velocity": 40,
                "duration": 0.0681818,
                "tempo": 120.0
            },
            {
                "start_time": 9.9363636,
                "end_time": 10.0022727,
                "pitch": 55,
                "velocity": 40,
                "duration": 0.0659091,
                "tempo": 120.0
            },
            {
                "start_time": 10.0022727,
                "end_time": 10.0704545,
                "pitch": 55,
                "velocity": 40,
                "duration": 0.0681818,
                "tempo": 120.0
            },
            {
                "start_time": 10.0704545,
                "end_time": 10.1204545,
                "pitch": 55,
                "velocity": 40,
                "duration": 0.05,
                "tempo": 120.0
            },
            {
                "start_time": 10.1204545,
                "end_time": 10.4795455,
                "pitch": 59,
                "velocity": 40,
                "duration": 0.3590909,
                "tempo": 120.0
            },
            {
                "start_time": 10.4795455,
                "end_time": 10.8681818,
                "pitch": 62,
                "velocity": 40,
                "duration": 0.3886364,
                "tempo": 120.0
            },
            {
                "start_time": 10.8681818,
                "end_time": 11.2318182,
                "pitch": 50,
                "velocity": 40,
                "duration": 0.3636364,
                "tempo": 120.0
            },
            {
                "start_time": 11.2318182,
                "end_time": 11.6068182,
                "pitch": 53,
                "velocity": 40,
                "duration": 0.375,
                "tempo": 120.0
            },
            {
                "start_time": 11.6068182,
                "end_time": 11.9886364,
                "pitch": 57,
                "velocity": 40,
                "duration": 0.3818182,
                "tempo": 120.0
            },
            {
                "start_time": 11.9886364,
                "end_time": 12.3477273,
                "pitch": 60,
                "velocity": 40,
                "duration": 0.3590909,
                "tempo": 120.0
            },
            {
                "start_time": 12.3477273,
                "end_time": 12.7295455,
                "pitch": 48,
                "velocity": 40,
                "duration": 0.3818182,
                "tempo": 120.0
            },
            {
                "start_time": 12.7295455,
                "end_time": 13.0909091,
                "pitch": 52,
                "velocity": 40,
                "duration": 0.3613636,
                "tempo": 120.0
            },
            {
                "start_time": 13.0909091,
                "end_time": 13.1545455,
                "pitch": 55,
                "velocity": 40,
                "duration": 0.0636364,
                "tempo": 120.0
            },
            {
                "start_time": 13.1545455,
                "end_time": 13.2227273,
                "pitch": 55,
                "velocity": 40,
                "duration": 0.0681818,
                "tempo": 120.0
            },
            {
                "start_time": 13.2227273,
                "end_time": 13.2886364,
                "pitch": 55,
                "velocity": 40,
                "duration": 0.0659091,
                "tempo": 120.0
            },
            {
                "start_time": 13.2886364,
                "end_time": 13.3568182,
                "pitch": 55,
                "velocity": 40,
                "duration": 0.0681818,
                "tempo": 120.0
            },
            {
                "start_time": 13.3568182,
                "end_time": 13.4227273,
                "pitch": 55,
                "velocity": 40,
                "duration": 0.0659091,
                "tempo": 120.0
            },
            {
                "start_time": 13.4227273,
                "end_time": 13.4727273,
                "pitch": 55,
                "velocity": 40,
                "duration": 0.05,
                "tempo": 120.0
            },
            {
                "start_time": 13.4727273,
                "end_time": 13.8590909,
                "pitch": 60,
                "velocity": 40,
                "duration": 0.3863636,
                "tempo": 120.0
            },
            {
                "start_time": 13.8590909,
                "end_time": 13.925,
                "pitch": 55,
                "velocity": 40,
                "duration": 0.0659091,
                "tempo": 120.0
            },
            {
                "start_time": 13.925,
                "end_time": 13.9909091,
                "pitch": 55,
                "velocity": 40,
                "duration": 0.0659091,
                "tempo": 120.0
            },
            {
                "start_time": 13.9909091,
                "end_time": 14.0568182,
                "pitch": 55,
                "velocity": 40,
                "duration": 0.0659091,
                "tempo": 120.0
            },
            {
                "start_time": 14.0568182,
                "end_time": 14.1204545,
                "pitch": 55,
                "velocity": 40,
                "duration": 0.0636364,
                "tempo": 120.0
            },
            {
                "start_time": 14.1204545,
                "end_time": 14.1863636,
                "pitch": 55,
                "velocity": 40,
                "duration": 0.0659091,
                "tempo": 120.0
            },
            {
                "start_time": 14.1863636,
                "end_time": 14.2181818,
                "pitch": 55,
                "velocity": 40,
                "duration": 0.0318182,
                "tempo": 120.0
            },
            {
                "start_time": 14.2181818,
                "end_time": 14.6068182,
                "pitch": 60,
                "velocity": 40,
                "duration": 0.3886364,
                "tempo": 120.0
            },
            {
                "start_time": 14.6068182,
                "end_time": 14.9636364,
                "pitch": 64,
                "velocity": 40,
                "duration": 0.3568182,
                "tempo": 120.0
            },
            {
                "start_time": 14.9636364,
                "end_time": 15.0272727,
                "pitch": 55,
                "velocity": 40,
                "duration": 0.0636364,
                "tempo": 120.0
            },
            {
                "start_time": 15.0272727,
                "end_time": 15.0931818,
                "pitch": 55,
                "velocity": 40,
                "duration": 0.0659091,
                "tempo": 120.0
            },
            {
                "start_time": 15.0931818,
                "end_time": 15.1613636,
                "pitch": 55,
                "velocity": 40,
                "duration": 0.0681818,
                "tempo": 120.0
            },
            {
                "start_time": 15.1613636,
                "end_time": 15.2295455,
                "pitch": 55,
                "velocity": 40,
                "duration": 0.0681818,
                "tempo": 120.0
            },
            {
                "start_time": 15.2295455,
                "end_time": 15.2977273,
                "pitch": 55,
                "velocity": 40,
                "duration": 0.0681818,
                "tempo": 120.0
            },
            {
                "start_time": 15.2977273,
                "end_time": 15.35,
                "pitch": 55,
                "velocity": 40,
                "duration": 0.0522727,
                "tempo": 120.0
            },
            {
                "start_time": 15.35,
                "end_time": 15.7386364,
                "pitch": 48,
                "velocity": 40,
                "duration": 0.3886364,
                "tempo": 120.0
            },
            {
                "start_time": 15.7386364,
                "end_time": 16.0977273,
                "pitch": 52,
                "velocity": 40,
                "duration": 0.3590909,
                "tempo": 120.0
            },
            {
                "start_time": 16.0977273,
                "end_time": 16.1636364,
                "pitch": 55,
                "velocity": 40,
                "duration": 0.0659091,
                "tempo": 120.0
            },
            {
                "start_time": 16.1636364,
                "end_time": 16.2295455,
                "pitch": 55,
                "velocity": 40,
                "duration": 0.0659091,
                "tempo": 120.0
            },
            {
                "start_time": 16.2295455,
                "end_time": 16.2954545,
                "pitch": 55,
                "velocity": 40,
                "duration": 0.0659091,
                "tempo": 120.0
            },
            {
                "start_time": 16.2954545,
                "end_time": 16.3636364,
                "pitch": 55,
                "velocity": 40,
                "duration": 0.0681818,
                "tempo": 120.0
            },
            {
                "start_time": 16.3636364,
                "end_time": 16.4295455,
                "pitch": 55,
                "velocity": 40,
                "duration": 0.0659091,
                "tempo": 120.0
            },
            {
                "start_time": 16.4295455,
                "end_time": 16.4818182,
                "pitch": 55,
                "velocity": 40,
                "duration": 0.0522727,
                "tempo": 120.0
            },
            {
                "start_time": 16.4818182,
                "end_time": 16.8409091,
                "pitch": 59,
                "velocity": 40,
                "duration": 0.3590909,
                "tempo": 120.0
            },
            {
                "start_time": 16.8409091,
                "end_time": 16.9068182,
                "pitch": 55,
                "velocity": 40,
                "duration": 0.0659091,
                "tempo": 120.0
            },
            {
                "start_time": 16.9068182,
                "end_time": 16.9727273,
                "pitch": 55,
                "velocity": 40,
                "duration": 0.0659091,
                "tempo": 120.0
            },
            {
                "start_time": 16.9727273,
                "end_time": 17.0386364,
                "pitch": 55,
                "velocity": 40,
                "duration": 0.0659091,
                "tempo": 120.0
            },
            {
                "start_time": 17.0386364,
                "end_time": 17.1068182,
                "pitch": 55,
                "velocity": 40,
                "duration": 0.0681818,
                "tempo": 120.0
            },
            {
                "start_time": 17.1068182,
                "end_time": 17.1727273,
                "pitch": 55,
                "velocity": 40,
                "duration": 0.0659091,
                "tempo": 120.0
            },
            {
                "start_time": 17.1727273,
                "end_time": 17.2227273,
                "pitch": 55,
                "velocity": 40,
                "duration": 0.05,
                "tempo": 120.0
            },
            {
                "start_time": 17.2227273,
                "end_time": 17.5909091,
                "pitch": 52,
                "velocity": 40,
                "duration": 0.3681818,
                "tempo": 120.0
            },
            {
                "start_time": 17.5909091,
                "end_time": 17.9681818,
                "pitch": 48,
                "velocity": 40,
                "duration": 0.3772727,
                "tempo": 120.0
            },
            {
                "start_time": 17.9681818,
                "end_time": 18.3568182,
                "pitch": 52,
                "velocity": 40,
                "duration": 0.3886364,
                "tempo": 120.0
            },
            {
                "start_time": 18.3568182,
                "end_time": 18.7136364,
                "pitch": 47,
                "velocity": 40,
                "duration": 0.3568182,
                "tempo": 120.0
            },
            {
                "start_time": 18.7136364,
                "end_time": 19.0931818,
                "pitch": 50,
                "velocity": 40,
                "duration": 0.3795455,
                "tempo": 120.0
            },
            {
                "start_time": 19.0931818,
                "end_time": 19.4545455,
                "pitch": 54,
                "velocity": 40,
                "duration": 0.3613636,
                "tempo": 120.0
            },
            {
                "start_time": 19.4545455,
                "end_time": 19.8363636,
                "pitch": 57,
                "velocity": 40,
                "duration": 0.3818182,
                "tempo": 120.0
            },
            {
                "start_time": 19.8363636,
                "end_time": 20.2295455,
                "pitch": 54,
                "velocity": 40,
                "duration": 0.3931818,
                "tempo": 120.0
            },
            {
                "start_time": 20.2295455,
                "end_time": 20.5840909,
                "pitch": 50,
                "velocity": 40,
                "duration": 0.3545455,
                "tempo": 120.0
            },
            {
                "start_time": 20.5840909,
                "end_time": 20.9704545,
                "pitch": 47,
                "velocity": 40,
                "duration": 0.3863636,
                "tempo": 120.0
            },
            {
                "start_time": 20.9704545,
                "end_time": 21.3431818,
                "pitch": 50,
                "velocity": 40,
                "duration": 0.3727273,
                "tempo": 120.0
            },
            {
                "start_time": 21.3431818,
                "end_time": 21.7204545,
                "pitch": 53,
                "velocity": 40,
                "duration": 0.3772727,
                "tempo": 120.0
            },
            {
                "start_time": 21.7204545,
                "end_time": 22.1022727,
                "pitch": 57,
                "velocity": 40,
                "duration": 0.3818182,
                "tempo": 120.0
            },
            {
                "start_time": 22.1022727,
                "end_time": 22.4613636,
                "pitch": 60,
                "velocity": 40,
                "duration": 0.3590909,
                "tempo": 120.0
            },
            {
                "start_time": 22.4613636,
                "end_time": 22.8431818,
                "pitch": 65,
                "velocity": 40,
                "duration": 0.3818182,
                "tempo": 120.0
            },
            {
                "start_time": 22.8431818,
                "end_time": 23.2045455,
                "pitch": 60,
                "velocity": 40,
                "duration": 0.3613636,
                "tempo": 120.0
            },
            {
                "start_time": 23.2045455,
                "end_time": 23.5863636,
                "pitch": 57,
                "velocity": 40,
                "duration": 0.3818182,
                "tempo": 120.0
            },
            {
                "start_time": 23.5863636,
                "end_time": 23.9545455,
                "pitch": 53,
                "velocity": 40,
                "duration": 0.3681818,
                "tempo": 120.0
            },
            {
                "start_time": 23.9545455,
                "end_time": 24.3318182,
                "pitch": 57,
                "velocity": 40,
                "duration": 0.3772727,
                "tempo": 120.0
            },
            {
                "start_time": 24.3318182,
                "end_time": 24.7136364,
                "pitch": 50,
                "velocity": 40,
                "duration": 0.3818182,
                "tempo": 120.0
            },
            {
                "start_time": 24.7136364,
                "end_time": 24.7818182,
                "pitch": 55,
                "velocity": 40,
                "duration": 0.0681818,
                "tempo": 120.0
            },
            {
                "start_time": 24.7818182,
                "end_time": 24.8477273,
                "pitch": 55,
                "velocity": 40,
                "duration": 0.0659091,
                "tempo": 120.0
            },
            {
                "start_time": 24.8477273,
                "end_time": 24.9113636,
                "pitch": 55,
                "velocity": 40,
                "duration": 0.0636364,
                "tempo": 120.0
            },
            {
                "start_time": 24.9113636,
                "end_time": 24.9772727,
                "pitch": 55,
                "velocity": 40,
                "duration": 0.0659091,
                "tempo": 120.0
            },
            {
                "start_time": 24.9772727,
                "end_time": 25.0409091,
                "pitch": 55,
                "velocity": 40,
                "duration": 0.0636364,
                "tempo": 120.0
            },
            {
                "start_time": 25.0409091,
                "end_time": 25.075,
                "pitch": 55,
                "velocity": 40,
                "duration": 0.0340909,
                "tempo": 120.0
            },
            {
                "start_time": 25.075,
                "end_time": 25.4568182,
                "pitch": 59,
                "velocity": 40,
                "duration": 0.3818182,
                "tempo": 120.0
            },
            {
                "start_time": 25.4568182,
                "end_time": 25.8159091,
                "pitch": 62,
                "velocity": 40,
                "duration": 0.3590909,
                "tempo": 120.0
            },
            {
                "start_time": 25.8159091,
                "end_time": 26.2,
                "pitch": 50,
                "velocity": 40,
                "duration": 0.3840909,
                "tempo": 120.0
            },
            {
                "start_time": 26.2,
                "end_time": 26.5909091,
                "pitch": 53,
                "velocity": 40,
                "duration": 0.3909091,
                "tempo": 120.0
            },
            {
                "start_time": 26.5909091,
                "end_time": 26.9477273,
                "pitch": 57,
                "velocity": 40,
                "duration": 0.3568182,
                "tempo": 120.0
            },
            {
                "start_time": 26.9477273,
                "end_time": 27.3340909,
                "pitch": 60,
                "velocity": 40,
                "duration": 0.3863636,
                "tempo": 120.0
            },
            {
                "start_time": 27.3340909,
                "end_time": 27.6977273,
                "pitch": 48,
                "velocity": 40,
                "duration": 0.3636364,
                "tempo": 120.0
            },
            {
                "start_time": 27.6977273,
                "end_time": 28.0795455,
                "pitch": 52,
                "velocity": 40,
                "duration": 0.3818182,
                "tempo": 120.0
            },
            {
                "start_time": 28.0795455,
                "end_time": 28.1454545,
                "pitch": 55,
                "velocity": 40,
                "duration": 0.0659091,
                "tempo": 120.0
            },
            {
                "start_time": 28.1454545,
                "end_time": 28.2136364,
                "pitch": 55,
                "velocity": 40,
                "duration": 0.0681818,
                "tempo": 120.0
            },
            {
                "start_time": 28.2136364,
                "end_time": 28.2795455,
                "pitch": 55,
                "velocity": 40,
                "duration": 0.0659091,
                "tempo": 120.0
            },
            {
                "start_time": 28.2795455,
                "end_time": 28.3477273,
                "pitch": 55,
                "velocity": 40,
                "duration": 0.0681818,
                "tempo": 120.0
            },
            {
                "start_time": 28.3477273,
                "end_time": 28.4136364,
                "pitch": 55,
                "velocity": 40,
                "duration": 0.0659091,
                "tempo": 120.0
            },
            {
                "start_time": 28.4136364,
                "end_time": 28.4636364,
                "pitch": 55,
                "velocity": 40,
                "duration": 0.05,
                "tempo": 120.0
            },
            {
                "start_time": 28.4636364,
                "end_time": 28.8340909,
                "pitch": 60,
                "velocity": 40,
                "duration": 0.3704545,
                "tempo": 120.0
            },
            {
                "start_time": 28.8340909,
                "end_time": 28.9,
                "pitch": 55,
                "velocity": 40,
                "duration": 0.0659091,
                "tempo": 120.0
            },
            {
                "start_time": 28.9,
                "end_time": 28.9659091,
                "pitch": 55,
                "velocity": 40,
                "duration": 0.0659091,
                "tempo": 120.0
            },
            {
                "start_time": 28.9659091,
                "end_time": 29.0318182,
                "pitch": 55,
                "velocity": 40,
                "duration": 0.0659091,
                "tempo": 120.0
            },
            {
                "start_time": 29.0318182,
                "end_time": 29.0954545,
                "pitch": 55,
                "velocity": 40,
                "duration": 0.0636364,
                "tempo": 120.0
            },
            {
                "start_time": 29.0954545,
                "end_time": 29.1613636,
                "pitch": 55,
                "velocity": 40,
                "duration": 0.0659091,
                "tempo": 120.0
            },
            {
                "start_time": 29.1613636,
                "end_time": 29.2090909,
                "pitch": 55,
                "velocity": 40,
                "duration": 0.0477273,
                "tempo": 120.0
            },
            {
                "start_time": 29.2090909,
                "end_time": 29.5681818,
                "pitch": 60,
                "velocity": 40,
                "duration": 0.3590909,
                "tempo": 120.0
            },
            {
                "start_time": 29.5681818,
                "end_time": 29.95,
                "pitch": 64,
                "velocity": 40,
                "duration": 0.3818182,
                "tempo": 120.0
            },
            {
                "start_time": 29.95,
                "end_time": 30.0159091,
                "pitch": 55,
                "velocity": 40,
                "duration": 0.0659091,
                "tempo": 120.0
            },
            {
                "start_time": 30.0159091,
                "end_time": 30.0840909,
                "pitch": 55,
                "velocity": 40,
                "duration": 0.0681818,
                "tempo": 120.0
            },
            {
                "start_time": 30.0840909,
                "end_time": 30.15,
                "pitch": 55,
                "velocity": 40,
                "duration": 0.0659091,
                "tempo": 120.0
            },
            {
                "start_time": 30.15,
                "end_time": 30.2181818,
                "pitch": 55,
                "velocity": 40,
                "duration": 0.0681818,
                "tempo": 120.0
            },
            {
                "start_time": 30.2181818,
                "end_time": 30.2840909,
                "pitch": 55,
                "velocity": 40,
                "duration": 0.0659091,
                "tempo": 120.0
            },
            {
                "start_time": 30.2840909,
                "end_time": 30.3181818,
                "pitch": 55,
                "velocity": 40,
                "duration": 0.0340909,
                "tempo": 120.0
            },
            {
                "start_time": 30.3181818,
                "end_time": 30.6954545,
                "pitch": 48,
                "velocity": 40,
                "duration": 0.3772727,
                "tempo": 120.0
            },
            {
                "start_time": 30.6954545,
                "end_time": 31.0613636,
                "pitch": 52,
                "velocity": 40,
                "duration": 0.3659091,
                "tempo": 120.0
            }
        ]
    }
}