{
    "mood": "sad",
    "instruments": {
        "French Horn": [
            {
                "start_time": 0.2295455,
                "end_time": 0.4636364,
                "pitch": 50,
                "velocity": 40,
                "duration": 0.2340909,
                "tempo": 120.0
            },
            {
                "start_time": 0.4636364,
                "end_time": 0.5295455,
                "pitch": 55,
                "velocity": 40,
                "duration": 0.0659091,
                "tempo": 120.0
            },
            {
                "start_time": 0.5295455,
                "end_time": 0.6,
                "pitch": 55,
                "velocity": 40,
                "duration": 0.0704545,
                "tempo": 120.0
            },
            {
                "start_time": 0.6,
                "end_time": 0.6681818,
                "pitch": 55,
                "velocity": 40,
                "duration": 0.0681818,
                "tempo": 120.0
            },
            {
                "start_time": 0.6681818,
                "end_time": 0.7204545,
                "pitch": 55,
                "velocity": 40,
                "duration": 0.0522727,
                "tempo": 120.0
            },
            {
                "start_time": 0.7204545,
                "end_time": 0.8090909,
                "pitch": 55,
                "velocity": 40,
                "duration": 0.0886364,
                "tempo": 120.0
            },
            {
                "start_time": 0.8090909,
                "end_time": 0.9818182,
                "pitch": 57,
                "velocity": 40,
                "duration": 0.1727273,
                "tempo": 120.0
            },
            {
                "start_time": 0.9818182,
                "end_time": 1.2204545,
                "pitch": 62,
                "velocity": 40,
                "duration": 0.2386364,
                "tempo": 120.0
            },
            {
                "start_time": 1.2204545,
                "end_time": 1.4704545,
                "pitch": 60,
                "velocity": 40,
                "duration": 0.25,
                "tempo": 120.0
            },
            {
                "start_time": 1.4704545,
                "end_time": 1.7,
                "pitch": 60,
                "velocity": 40,
                "duration": 0.2295455,
                "tempo": 120.0
            },
            {
                "start_time": 1.7,
                "end_time": 1.9454545,
                "pitch": 50,
                "velocity": 40,
                "duration": 0.2454545,
                "tempo": 120.0
            },
            {
                "start_time": 1.9454545,
                "end_time": 2.0113636,
                "pitch": 55,
                "velocity": 40,
                "duration": 0.0659091,
                "tempo": 120.0
            },
            {
                "start_time": 2.0113636,
                "end_time": 2.0772727,
                "pitch": 55,
                "velocity": 40,
                "duration": 0.0659091,
                "tempo": 120.0
            },
            {
                "start_time": 2.0772727,
                "end_time": 2.1409091,
                "pitch": 55,
                "velocity": 40,
                "duration": 0.0636364,
                "tempo": 120.0
            },
            {
                "start_time": 2.1409091,
                "end_time": 2.1909091,
                "pitch": 55,
                "velocity": 40,
                "duration": 0.05,
                "tempo": 120.0
            },
            {
                "start_time": 2.1909091,
                "end_time": 2.2727273,
                "pitch": 55,
                "velocity": 40,
                "duration": 0.0818182,
                "tempo": 120.0
            },
            {
                "start_time": 2.2727273,
                "end_time": 2.4181818,
                "pitch": 57,
                "velocity": 40,
                "duration": 0.1454545,
                "tempo": 120.0
            },
            {
                "start_time": 2.4181818,
                "end_time": 2.675,
                "pitch": 62,
                "velocity": 40,
                "duration": 0.2568182,
                "tempo": 120.0
            },
            {
                "start_time": 2.675,
                "end_time": 2.9363636,
                "pitch": 60,
                "velocity": 40,
                "duration": 0.2613636,
                "tempo": 120.0
            },
            {
                "start_time": 2.9363636,
                "end_time": 3.1704545,
                "pitch": 60,
                "velocity": 40,
                "duration": 0.2340909,
                "tempo": 120.0
            },
            {
                "start_time": 3.1704545,
                "end_time": 3.4136364,
                "pitch": 50,
                "velocity": 40,
                "duration": 0.2431818,
                "tempo": 120.0
            },
            {
                "start_time": 3.4136364,
                "end_time": 3.6477273,
                "pitch": 54,
                "velocity": 40,
                "duration": 0.2340909,
                "tempo": 120.0
            },
            {
                "start_time": 3.6477273,
                "end_time": 3.7136364,
                "pitch": 53,
                "velocity": 40,
                "duration": 0.0659091,
                "tempo": 120.0
            },
            {
                "start_time": 3.7136364,
                "end_time": 3.7818182,
                "pitch": 55,
                "velocity": 40,
                "duration": 0.0681818,
                "tempo": 120.0
            },
            {
                "start_time": 3.7818182,
                "end_time": 3.8477273,
                "pitch": 55,
                "velocity": 40,
                "duration": 0.0659091,
                "tempo": 120.0
            },
            {
                "start_time": 3.8477273,
                "end_time": 3.8977273,
                "pitch": 55,
                "velocity": 40,
                "duration": 0.05,
                "tempo": 120.0
            },
            {
                "start_time": 3.8977273,
                "end_time": 4.1522727,
                "pitch": 60,
                "velocity": 40,
                "duration": 0.2545455,
                "tempo": 120.0
            },
            {
                "start_time": 4.1522727,
                "end_time": 4.3886364,
                "pitch": 60,
                "velocity": 40,
                "duration": 0.2363636,
                "tempo": 120.0
            },
            {
                "start_time": 4.3886364,
                "end_time": 4.6409091,
                "pitch": 57,
                "velocity": 40,
                "duration": 0.2522727,
                "tempo": 120.0
            },
            {
                "start_time": 4.6409091,
                "end_time": 4.8931818,
                "pitch": 50,
                "velocity": 40,
                "duration": 0.2522727,
                "tempo": 120.0
            },
            {
                "start_time": 4.8931818,
                "end_time": 5.1204545,
                "pitch": 54,
                "velocity": 40,
                "duration": 0.2272727,
                "tempo": 120.0
            },
            {
                "start_time": 5.1204545,
                "end_time": 5.1840909,
                "pitch": 53,
                "velocity": 40,
                "duration": 0.0636364,
                "tempo": 120.0
            },
            {
                "start_time": 5.1840909,
                "end_time": 5.25,
                "pitch": 55,
                "velocity": 40,
                "duration": 0.0659091,
                "tempo": 120.0
            },
            {
                "start_time": 5.25,
                "end_time": 5.3136364,
                "pitch": 55,
                "velocity": 40,
                "duration": 0.0636364,
                "tempo": 120.0
            },
            {
                "start_time": 5.3136364,
                "end_time": 5.3613636,
                "pitch": 55,
                "velocity": 40,
                "duration": 0.0477273,
                "tempo": 120.0
            },
            {
                "start_time": 5.3613636,
                "end_time": 5.6113636,
                "pitch": 60,
                "velocity": 40,
                "duration": 0.25,
                "tempo": 120.0
            },
            {
                "start_time": 5.6113636,
                "end_time": 5.85,
                "pitch": 60,
                "velocity": 40,
                "duration": 0.2386364,
                "tempo": 120.0
            },
            {
                "start_time": 5.85,
                "end_time": 6.1,
                "pitch": 57,
                "velocity": 40,
                "duration": 0.25,
                "tempo": 120.0
            },
            {
                "start_time": 6.1,
                "end_time": 6.3295455,
                "pitch": 52,
                "velocity": 40,
                "duration": 0.2295455,
                "tempo": 120.0
            },
            {
                "start_time": 6.3295455,
                "end_time": 6.5795455,
                "pitch": 57,
                "velocity": 40,
                "duration": 0.25,
                "tempo": 120.0
            },
            {
                "start_time": 6.5795455,
                "end_time": 6.6636364,
                "pitch": 57,
                "velocity": 40,
                "duration": 0.0840909,
                "tempo": 120.0
            },
            {
                "start_time": 6.6636364,
                "end_time": 6.8295455,
                "pitch": 59,
                "velocity": 40,
                "duration": 0.1659091,
                "tempo": 120.0
            },
            {
                "start_time": 6.8295455,
                "end_time": 7.0613636,
                "pitch": 64,
                "velocity": 40,
                "duration": 0.2318182,
                "tempo": 120.0
            },
            {
                "start_time": 7.0613636,
                "end_time": 7.3045455,
                "pitch": 62,
                "velocity": 40,
                "duration": 0.2431818,
                "tempo": 120.0
            },
            {
                "start_time": 7.3045455,
                "end_time": 7.5522727,
                "pitch": 62,
                "velocity": 40,
                "duration": 0.2477273,
                "tempo": 120.0
            },
            {
                "start_time": 7.5522727,
                "end_time": 7.7818182,
                "pitch": 52,
                "velocity": 40,
                "duration": 0.2295455,
                "tempo": 120.0
            },
            {
                "start_time": 7.7818182,
                "end_time": 8.0340909,
                "pitch": 57,
                "velocity": 40,
                "duration": 0.2522727,
                "tempo": 120.0
            },
            {
                "start_time": 8.0340909,
                "end_time": 8.1204545,
                "pitch": 57,
                "velocity": 40,
                "duration": 0.0863636,
                "tempo": 120.0
            },
            {
                "start_time": 8.1204545,
                "end_time": 8.2727273,
                "pitch": 59,
                "velocity": 40,
                "duration": 0.1522727,
                "tempo": 120.0
            },
            {
                "start_time": 8.2727273,
                "end_time": 8.5113636,
                "pitch": 64,
                "velocity": 40,
                "duration": 0.2386364,
                "tempo": 120.0
            },
            {
                "start_time": 8.5113636,
                "end_time": 8.7477273,
                "pitch": 62,
                "velocity": 40,
                "duration": 0.2363636,
                "tempo": 120.0
            },
            {
                "start_time": 8.7477273,
                "end_time": 8.9863636,
                "pitch": 62,
                "velocity": 40,
                "duration": 0.2386364,
                "tempo": 120.0
            },
            {
                "start_time": 8.9863636,
                "end_time": 9.0545455,
                "pitch": 55,
                "velocity": 40,
                "duration": 0.0681818,
                "tempo": 120.0
            },
            {
                "start_time": 9.0545455,
                "end_time": 9.125,
                "pitch": 55,
                "velocity": 40,
                "duration": 0.0704545,
                "tempo": 120.0
            },
            {
                "start_time": 9.125,
                "end_time": 9.1954545,
                "pitch": 55,
                "velocity": 40,
                "duration": 0.0704545,
                "tempo": 120.0
            },
            {
                "start_time": 9.1954545,
                "end_time": 9.2477273,
                "pitch": 55,
                "velocity": 40,
                "duration": 0.0522727,
                "tempo": 120.0
            },
            {
                "start_time": 9.2477273,
                "end_time": 9.5,
                "pitch": 50,
                "velocity": 40,
                "duration": 0.2522727,
                "tempo": 120.0
            },
            {
                "start_time": 9.5,
                "end_time": 9.5681818,
                "pitch": 55,
                "velocity": 40,
                "duration": 0.0681818,
                "tempo": 120.0
            },
            {
                "start_time": 9.5681818,
                "end_time": 9.6340909,
                "pitch": 55,
                "velocity": 40,
                "duration": 0.0659091,
                "tempo": 120.0
            },
            {
                "start_time": 9.6340909,
                "end_time": 9.7022727,
                "pitch": 55,
                "velocity": 40,
                "duration": 0.0681818,
                "tempo": 120.0
            },
            {
                "start_time": 9.7022727,
                "end_time": 9.7340909,
                "pitch": 55,
                "velocity": 40,
                "duration": 0.0318182,
                "tempo": 120.0
            },
            {
                "start_time": 9.7340909,
                "end_time": 9.9840909,
                "pitch": 50,
                "velocity": 40,
                "duration": 0.25,
                "tempo": 120.0
            },
            {
                "start_time": 9.9840909,
                "end_time": 10.05,
                "pitch": 55,
                "velocity": 40,
                "duration": 0.0659091,
                "tempo": 120.0
            },
            {
                "start_time": 10.05,
                "end_time": 10.1136364,
                "pitch": 55,
                "velocity": 40,
                "duration": 0.0636364,
                "tempo": 120.0
            },
            {
                "start_time": 10.1136364,
                "end_time": 10.1795455,
                "pitch": 55,
                "velocity": 40,
                "duration": 0.0659091,
                "tempo": 120.0
            },
            {
                "start_time": 10.1795455,
                "end_time": 10.2136364,
                "pitch": 55,
                "velocity": 40,
                "duration": 0.0340909,
                "tempo": 120.0
            },
            {
                "start_time": 10.2136364,
                "end_time": 10.4659091,
                "pitch": 50,
                "velocity": 40,
                "duration": 0.2522727,
                "tempo": 120.0
            },
            {
                "start_time": 10.4659091,
                "end_time": 10.5340909,
                "pitch": 55,
                "velocity": 40,
                "duration": 0.0681818,
                "tempo": 120.0
            },
            {
                "start_time": 10.5340909,
                "end_time": 10.6022727,
                "pitch": 55,
                "velocity": 40,
                "duration": 0.0681818,
                "tempo": 120.0
            },
            {
                "start_time": 10.6022727,
                "end_time": 10.6704545,
                "pitch": 55,
                "velocity": 40,
                "duration": 0.0681818,
                "tempo": 120.0
            },
            {
                "start_time": 10.6704545,
                "end_time": 10.7204545,
                "pitch": 55,
                "velocity": 40,
                "duration": 0.05,
                "tempo": 120.0
            },
            {
                "start_time": 10.7204545,
                "end_time": 10.8045455,
                "pitch": 55,
                "velocity": 40,
                "duration": 0.0840909,
                "tempo": 120.0
            },
            {
                "start_time": 10.8045455,
                "end_time": 10.9522727,
                "pitch": 57,
                "velocity": 40,
                "duration": 0.1477273,
                "tempo": 120.0
            },
            {
                "start_time": 10.9522727,
                "end_time": 11.1977273,
                "pitch": 54,
                "velocity": 40,
                "duration": 0.2454545,
                "tempo": 120.0
            },
            {
                "start_time": 11.1977273,
                "end_time": 11.4454545,
                "pitch": 50,
                "velocity": 40,
                "duration": 0.2477273,
                "tempo": 120.0
            },
            {
                "start_time": 11.4454545,
                "end_time": 11.6795455,
                "pitch": 54,
                "velocity": 40,
                "duration": 0.2340909,
                "tempo": 120.0
            },
            {
                "start_time": 11.6795455,
                "end_time": 11.9340909,
                "pitch": 50,
                "velocity": 40,
                "duration": 0.2545455,
                "tempo": 120.0
            },
            {
                "start_time": 11.9340909,
                "end_time": 12.1727273,
                "pitch": 54,
                "velocity": 40,
                "duration": 0.2386364,
                "tempo": 120.0
            },
            {
                "start_time": 12.1727273,
                "end_time": 12.4227273,
                "pitch": 50,
                "velocity": 40,
                "duration": 0.25,
                "tempo": 120.0
            },
            {
                "start_time": 12.4227273,
                "end_time": 12.6681818,
                "pitch": 54,
                "velocity": 40,
                "duration": 0.2454545,
                "tempo": 120.0
            },
            {
                "start_time": 12.6681818,
                "end_time": 12.9022727,
                "pitch": 50,
                "velocity": 40,
                "duration": 0.2340909,
                "tempo": 120.0
            },
            {
                "start_time": 12.9022727,
                "end_time": 13.1522727,
                "pitch": 50,
                "velocity": 40,
                "duration": 0.25,
                "tempo": 120.0
            },
            {
                "start_time": 13.1522727,
                "end_time": 13.2204545,
                "pitch": 55,
                "velocity": 40,
                "duration": 0.0681818,
                "tempo": 120.0
            },
            {
                "start_time": 13.2204545,
                "end_time": 13.2863636,
                "pitch": 55,
                "velocity": 40,
                "duration": 0.0659091,
                "tempo": 120.0
            },
            {
                "start_time": 13.2863636,
                "end_time": 13.35,
                "pitch": 55,
                "velocity": 40,
                "duration": 0.0636364,
                "tempo": 120.0
            },
            {
                "start_time": 13.35,
                "end_time": 13.4,
                "pitch": 55,
                "velocity": 40,
                "duration": 0.05,
                "tempo": 120.0
            },
            {
                "start_time": 13.4,
                "end_time": 13.6318182,
                "pitch": 58,
                "velocity": 40,
                "duration": 0.2318182,
                "tempo": 120.0
            },
            {
                "start_time": 13.6318182,
                "end_time": 13.8795455,
                "pitch": 62,
                "velocity": 40,
                "duration": 0.2477273,
                "tempo": 120.0
            },
            {
                "start_time": 13.8795455,
                "end_time": 14.1318182,
                "pitch": 60,
                "velocity": 40,
                "duration": 0.2522727,
                "tempo": 120.0
            },
            {
                "start_time": 14.1318182,
                "end_time": 14.3613636,
                "pitch": 58,
                "velocity": 40,
                "duration": 0.2295455,
                "tempo": 120.0
            },
            {
                "start_time": 14.3613636,
                "end_time": 14.6068182,
                "pitch": 51,
                "velocity": 40,
                "duration": 0.2454545,
                "tempo": 120.0
            },
            {
                "start_time": 14.6068182,
                "end_time": 14.6727273,
                "pitch": 55,
                "velocity": 40,
                "duration": 0.0659091,
                "tempo": 120.0
            },
            {
                "start_time": 14.6727273,
                "end_time": 14.7386364,
                "pitch": 55,
                "velocity": 40,
                "duration": 0.0659091,
                "tempo": 120.0
            },
            {
                "start_time": 14.7386364,
                "end_time": 14.8045455,
                "pitch": 55,
                "velocity": 40,
                "duration": 0.0659091,
                "tempo": 120.0
            },
            {
                "start_time": 14.8045455,
                "end_time": 14.8386364,
                "pitch": 55,
                "velocity": 40,
                "duration": 0.0340909,
                "tempo": 120.0
            },
            {
                "start_time": 14.8386364,
                "end_time": 15.0909091,
                "pitch": 58,
                "velocity": 40,
                "duration": 0.2522727,
                "tempo": 120.0
            },
            {
                "start_time": 15.0909091,
                "end_time": 15.3409091,
                "pitch": 62,
                "velocity": 40,
                "duration": 0.25,
                "tempo": 120.0
            },
            {
                "start_time": 15.3409091,
                "end_time": 15.575,
                "pitch": 60,
                "velocity": 40,
                "duration": 0.2340909,
                "tempo": 120.0
            },
            {
                "start_time": 15.575,
                "end_time": 15.825,
                "pitch": 58,
                "velocity": 40,
                "duration": 0.25,
                "tempo": 120.0
            },
            {
                "start_time": 15.825,
                "end_time": 16.0772727,
                "pitch": 53,
                "velocity": 40,
                "duration": 0.2522727,
                "tempo": 120.0
            },
            {
                "start_time": 16.0772727,
                "end_time": 16.3113636,
                "pitch": 57,
                "velocity": 40,
                "duration": 0.2340909,
                "tempo": 120.0
            },
            {
                "start_time": 16.3113636,
                "end_time": 16.5613636,
                "pitch": 60,
                "velocity": 40,
                "duration": 0.25,
                "tempo": 120.0
            },
            {
                "start_time": 16.5613636,
                "end_time": 16.7954545,
                "pitch": 63,
                "velocity": 40,
                "duration": 0.2340909,
                "tempo": 120.0
            },
            {
                "start_time": 16.7954545,
                "end_time": 17.0477273,
                "pitch": 63,
                "velocity": 40,
                "duration": 0.2522727,
                "tempo": 120.0
            },
            {
                "start_time": 17.0477273,
                "end_time": 17.2909091,
                "pitch": 60,
                "velocity": 40,
                "duration": 0.2431818,
                "tempo": 120.0
            },
            {
                "start_time": 17.2909091,
                "end_time": 17.5159091,
                "pitch": 53,
                "velocity": 40,
                "duration": 0.225,
                "tempo": 120.0
            },
            {
                "start_time": 17.5159091,
                "end_time": 17.7704545,
                "pitch": 57,
                "velocity": 40,
                "duration": 0.2545455,
                "tempo": 120.0
            },
            {
                "start_time": 17.7704545,
                "end_time": 18.0318182,
                "pitch": 60,
                "velocity": 40,
                "duration": 0.2613636,
                "tempo": 120.0
            },
            {
                "start_time": 18.0318182,
                "end_time": 18.2659091,
                "pitch": 63,
                "velocity": 40,
                "duration": 0.2340909,
                "tempo": 120.0
            },
            {
                "start_time": 18.2659091,
                "end_time": 18.5136364,
                "pitch": 63,
                "velocity": 40,
                "duration": 0.2477273,
                "tempo": 120.0
            },
            {
                "start_time": 18.5136364,
                "end_time": 18.7409091,
                "pitch": 60,
                "velocity": 40,
                "duration": 0.2272727,
                "tempo": 120.0
            },
            {
                "start_time": 18.7409091,
                "end_time": 18.9863636,
                "pitch": 60,
                "velocity": 40,
                "duration": 0.2454545,
                "tempo": 120.0
            },
            {
                "start_time": 18.9863636,
                "end_time": 19.2272727,
                "pitch": 60,
                "velocity": 40,
                "duration": 0.2409091,
                "tempo": 120.0
            },
            {
                "start_time": 19.2272727,
                "end_time": 19.2931818,
                "pitch": 55,
                "velocity": 40,
                "duration": 0.0659091,
                "tempo": 120.0
            },
            {
                "start_time": 19.2931818,
                "end_time": 19.3568182,
                "pitch": 55,
                "velocity": 40,
                "duration": 0.0636364,
                "tempo": 120.0
            },
            {
                "start_time": 19.3568182,
                "end_time": 19.4204545,
                "pitch": 55,
                "velocity": 40,
                "duration": 0.0636364,
                "tempo": 120.0
            },
            {
                "start_time": 19.4204545,
                "end_time": 19.4522727,
                "pitch": 55,
                "velocity": 40,
                "duration": 0.0318182,
                "tempo": 120.0
            },
            {
                "start_time": 19.7113636,
                "end_time": 19.9772727,
                "pitch": 62,
                "velocity": 40,
                "duration": 0.2659091,
                "tempo": 120.0
            },
            {
                "start_time": 19.9772727,
                "end_time": 20.2113636,
                "pitch": 60,
                "velocity": 40,
                "duration": 0.2340909,
                "tempo": 120.0
            },
            {
                "start_time": 20.2113636,
                "end_time": 20.4590909,
                "pitch": 60,
                "velocity": 40,
                "duration": 0.2477273,
                "tempo": 120.0
            },
            {
                "start_time": 20.4590909,
                "end_time": 20.6931818,
                "pitch": 60,
                "velocity": 40,
                "duration": 0.2340909,
                "tempo": 120.0
            },
            {
                "start_time": 20.6931818,
                "end_time": 20.7590909,
                "pitch": 55,
                "velocity": 40,
                "duration": 0.0659091,
                "tempo": 120.0
            },
            {
                "start_time": 20.7590909,
                "end_time": 20.8272727,
                "pitch": 55,
                "velocity": 40,
                "duration": 0.0681818,
                "tempo": 120.0
            },
            {
                "start_time": 20.8272727,
                "end_time": 20.8931818,
                "pitch": 55,
                "velocity": 40,
                "duration": 0.0659091,
                "tempo": 120.0
            },
            {
                "start_time": 20.8931818,
                "end_time": 20.9431818,
                "pitch": 55,
                "velocity": 40,
                "duration": 0.05,
                "tempo": 120.0
            },
            {
                "start_time": 21.1977273,
                "end_time": 21.4340909,
                "pitch": 62,
                "velocity": 40,
                "duration": 0.2363636,
                "tempo": 120.0
            },
            {
                "start_time": 21.4340909,
                "end_time": 21.6840909,
                "pitch": 60,
                "velocity": 40,
                "duration": 0.25,
                "tempo": 120.0
            },
            {
                "start_time": 21.6840909,
                "end_time": 21.9318182,
                "pitch": 60,
                "velocity": 40,
                "duration": 0.2477273,
                "tempo": 120.0
            },
            {
                "start_time": 21.9318182,
                "end_time": 22.1568182,
                "pitch": 60,
                "velocity": 40,
                "duration": 0.225,
                "tempo": 120.0
            },
            {
                "start_time": 22.1568182,
                "end_time": 22.2227273,
                "pitch": 55,
                "velocity": 40,
                "duration": 0.0659091,
                "tempo": 120.0
            },
            {
                "start_time": 22.2227273,
                "end_time": 22.2863636,
                "pitch": 55,
                "velocity": 40,
                "duration": 0.0636364,
                "tempo": 120.0
            },
            {
                "start_time": 22.2863636,
                "end_time": 22.35,
                "pitch": 55,
                "velocity": 40,
                "duration": 0.0636364,
                "tempo": 120.0
            },
            {
                "start_time": 22.35,
                "end_time": 22.3977273,
                "pitch": 55,
                "velocity": 40,
                "duration": 0.0477273,
                "tempo": 120.0
            },
            {
                "start_time": 22.6477273,
                "end_time": 22.8818182,
                "pitch": 62,
                "velocity": 40,
                "duration": 0.2340909,
                "tempo": 120.0
            },
            {
                "start_time": 22.8818182,
                "end_time": 23.1318182,
                "pitch": 60,
                "velocity": 40,
                "duration": 0.25,
                "tempo": 120.0
            },
            {
                "start_time": 23.1318182,
                "end_time": 23.3659091,
                "pitch": 60,
                "velocity": 40,
                "duration": 0.2340909,
                "tempo": 120.0
            },
            {
                "start_time": 23.3659091,
                "end_time": 23.6090909,
                "pitch": 60,
                "velocity": 40,
                "duration": 0.2431818,
                "tempo": 120.0
            },
            {
                "start_time": 23.6090909,
                "end_time": 23.675,
                "pitch": 55,
                "velocity": 40,
                "duration": 0.0659091,
                "tempo": 120.0
            },
            {
                "start_time": 23.675,
                "end_time": 23.7386364,
                "pitch": 55,
                "velocity": 40,
                "duration": 0.0636364,
                "tempo": 120.0
            },
            {
                "start_time": 23.7386364,
                "end_time": 23.8022727,
                "pitch": 55,
                "velocity": 40,
                "duration": 0.0636364,
                "tempo": 120.0
            },
            {
                "start_time": 23.8022727,
                "end_time": 23.85,
                "pitch": 55,
                "velocity": 40,
                "duration": 0.0477273,
                "tempo": 120.0
            },
            {
                "start_time": 24.0840909,
                "end_time": 24.3340909,
                "pitch": 62,
                "velocity": 40,
                "duration": 0.25,
                "tempo": 120.0
            },
            {
                "start_time": 24.3340909,
                "end_time": 24.4,
                "pitch": 60,
                "velocity": 40,
                "duration": 0.0659091,
                "tempo": 120.0
            }
        ],
        "Flute": [
            {
                "start_time": 0.0272727,
                "end_time": 0.0772727,
                "pitch": 55,
                "velocity": 64,
                "duration": 0.05,
                "tempo": 120.0
            },
            {
                "start_time": 0.0772727,
                "end_time": 0.1454545,
                "pitch": 55,
                "velocity": 64,
                "duration": 0.0681818,
                "tempo": 120.0
            },
            {
                "start_time": 0.1454545,
                "end_time": 0.2113636,
                "pitch": 55,
                "velocity": 64,
                "duration": 0.0659091,
                "tempo": 120.0
            },
            {
                "start_time": 0.2113636,
                "end_time": 0.2795455,
                "pitch": 55,
                "velocity": 64,
                "duration": 0.0681818,
                "tempo": 120.0
            },
            {
                "start_time": 0.2795455,
                "end_time": 0.3454545,
                "pitch": 55,
                "velocity": 64,
                "duration": 0.0659091,
                "tempo": 120.0
            },
            {
                "start_time": 0.3454545,
                "end_time": 0.4136364,
                "pitch": 55,
                "velocity": 64,
                "duration": 0.0681818,
                "tempo": 120.0
            },
            {
                "start_time": 0.4136364,
                "end_time": 0.4795455,
                "pitch": 55,
                "velocity": 64,
                "duration": 0.0659091,
                "tempo": 120.0
            },
            {
                "start_time": 0.4795455,
                "end_time": 0.5477273,
                "pitch": 55,
                "velocity": 64,
                "duration": 0.0681818,
                "tempo": 120.0
            },
            {
                "start_time": 0.5477273,
                "end_time": 0.6159091,
                "pitch": 55,
                "velocity": 64,
                "duration": 0.0681818,
                "tempo": 120.0
            },
            {
                "start_time": 0.6159091,
                "end_time": 0.6863636,
                "pitch": 55,
                "velocity": 64,
                "duration": 0.0704545,
                "tempo": 120.0
            },
            {
                "start_time": 0.6863636,
                "end_time": 0.7568182,
                "pitch": 55,
                "velocity": 64,
                "duration": 0.0704545,
                "tempo": 120.0
            },
            {
                "start_time": 0.7568182,
                "end_time": 0.825,
                "pitch": 55,
                "velocity": 64,
                "duration": 0.0681818,
                "tempo": 120.0
            },
            {
                "start_time": 0.825,
                "end_time": 0.8954545,
                "pitch": 55,
                "velocity": 64,
                "duration": 0.0704545,
                "tempo": 120.0
            },
            {
                "start_time": 0.8954545,
                "end_time": 0.9659091,
                "pitch": 55,
                "velocity": 64,
                "duration": 0.0704545,
                "tempo": 120.0
            },
            {
                "start_time": 0.9659091,
                "end_time": 1.0340909,
                "pitch": 55,
                "velocity": 64,
                "duration": 0.0681818,
                "tempo": 120.0
            },
            {
                "start_time": 1.0340909,
                "end_time": 1.1022727,
                "pitch": 55,
                "velocity": 64,
                "duration": 0.0681818,
                "tempo": 120.0
            },
            {
                "start_time": 1.1022727,
                "end_time": 1.1704545,
                "pitch": 55,
                "velocity": 64,
                "duration": 0.0681818,
                "tempo": 120.0
            },
            {
                "start_time": 1.1704545,
                "end_time": 1.2363636,
                "pitch": 55,
                "velocity": 64,
                "duration": 0.0659091,
                "tempo": 120.0
            },
            {
                "start_time": 1.2363636,
                "end_time": 1.3022727,
                "pitch": 55,
                "velocity": 64,
                "duration": 0.0659091,
                "tempo": 120.0
            },
            {
                "start_time": 1.3022727,
                "end_time": 1.3704545,
                "pitch": 55,
                "velocity": 64,
                "duration": 0.0681818,
                "tempo": 120.0
            },
            {
                "start_time": 1.3704545,
                "end_time": 1.4363636,
                "pitch": 55,
                "velocity": 64,
                "duration": 0.0659091,
                "tempo": 120.0
            },
            {
                "start_time": 1.4363636,
                "end_time": 1.5045455,
                "pitch": 55,
                "velocity": 64,
                "duration": 0.0681818,
                "tempo": 120.0
            },
            {
                "start_time": 1.5045455,
                "end_time": 1.5704545,
                "pitch": 55,
                "velocity": 64,
                "duration": 0.0659091,
                "tempo": 120.0
            },
            {
                "start_time": 1.5704545,
                "end_time": 1.6363636,
                "pitch": 55,
                "velocity": 64,
                "duration": 0.0659091,
                "tempo": 120.0
            },
            {
                "start_time": 1.6363636,
                "end_time": 1.7,
                "pitch": 55,
                "velocity": 64,
                "duration": 0.0636364,
                "tempo": 120.0
            },
            {
                "start_time": 1.7,
                "end_time": 1.7659091,
                "pitch": 55,
                "velocity": 64,
                "duration": 0.0659091,
                "tempo": 120.0
            },
            {
                "start_time": 1.7659091,
                "end_time": 1.8318182,
                "pitch": 55,
                "velocity": 64,
                "duration": 0.0659091,
                "tempo": 120.0
            },
            {
                "start_time": 1.8318182,
                "end_time": 1.8954545,
                "pitch": 55,
                "velocity": 64,
                "duration": 0.0636364,
                "tempo": 120.0
            },
            {
                "start_time": 1.8954545,
                "end_time": 1.9613636,
                "pitch": 55,
                "velocity": 64,
                "duration": 0.0659091,
                "tempo": 120.0
            },
            {
                "start_time": 1.9613636,
                "end_time": 2.0272727,
                "pitch": 55,
                "velocity": 64,
                "duration": 0.0659091,
                "tempo": 120.0
            },
            {
                "start_time": 2.0272727,
                "end_time": 2.0931818,
                "pitch": 55,
                "velocity": 64,
                "duration": 0.0659091,
                "tempo": 120.0
            },
            {
                "start_time": 2.0931818,
                "end_time": 2.1568182,
                "pitch": 55,
                "velocity": 64,
                "duration": 0.0636364,
                "tempo": 120.0
            },
            {
                "start_time": 2.1568182,
                "end_time": 2.2227273,
                "pitch": 55,
                "velocity": 64,
                "duration": 0.0659091,
                "tempo": 120.0
            },
            {
                "start_time": 2.2227273,
                "end_time": 2.2886364,
                "pitch": 55,
                "velocity": 64,
                "duration": 0.0659091,
                "tempo": 120.0
            },
            {
                "start_time": 2.2886364,
                "end_time": 2.3545455,
                "pitch": 55,
                "velocity": 64,
                "duration": 0.0659091,
                "tempo": 120.0
            },
            {
                "start_time": 2.3545455,
                "end_time": 2.4181818,
                "pitch": 55,
                "velocity": 64,
                "duration": 0.0636364,
                "tempo": 120.0
            },
            {
                "start_time": 2.4181818,
                "end_time": 2.4840909,
                "pitch": 55,
                "velocity": 64,
                "duration": 0.0659091,
                "tempo": 120.0
            },
            {
                "start_time": 2.4840909,
                "end_time": 2.5522727,
                "pitch": 55,
                "velocity": 64,
                "duration": 0.0681818,
                "tempo": 120.0
            },
            {
                "start_time": 2.5522727,
                "end_time": 2.6227273,
                "pitch": 55,
                "velocity": 64,
                "duration": 0.0704545,
                "tempo": 120.0
            },
            {
                "start_time": 2.6227273,
                "end_time": 2.6931818,
                "pitch": 55,
                "velocity": 64,
                "duration": 0.0704545,
                "tempo": 120.0
            },
            {
                "start_time": 2.6931818,
                "end_time": 2.7613636,
                "pitch": 55,
                "velocity": 64,
                "duration": 0.0681818,
                "tempo": 120.0
            },
            {
                "start_time": 2.7613636,
                "end_time": 2.8318182,
                "pitch": 55,
                "velocity": 64,
                "duration": 0.0704545,
                "tempo": 120.0
            },
            {
                "start_time": 2.8318182,
                "end_time": 2.9022727,
                "pitch": 55,
                "velocity": 64,
                "duration": 0.0704545,
                "tempo": 120.0
            },
            {
                "start_time": 2.9022727,
                "end_time": 2.9704545,
                "pitch": 55,
                "velocity": 64,
                "duration": 0.0681818,
                "tempo": 120.0
            },
            {
                "start_time": 2.9704545,
                "end_time": 5.9,
                "pitch": 50,
                "velocity": 64,
                "duration": 2.9295455,
                "tempo": 120.0
            },
            {
                "start_time": 5.9,
                "end_time": 8.7954545,
                "pitch": 45,
                "velocity": 64,
                "duration": 2.8954545,
                "tempo": 120.0
            },
            {
                "start_time": 8.7954545,
                "end_time": 10.7545455,
                "pitch": 50,
                "velocity": 64,
                "duration": 1.9590909,
                "tempo": 120.0
            },
            {
                "start_time": 10.7545455,
                "end_time": 12.7181818,
                "pitch": 50,
                "velocity": 64,
                "duration": 1.9636364,
                "tempo": 120.0
            },
            {
                "start_time": 12.7181818,
                "end_time": 15.6409091,
                "pitch": 50,
                "velocity": 64,
                "duration": 2.9227273,
                "tempo": 120.0
            },
            {
                "start_time": 15.6409091,
                "end_time": 15.6909091,
                "pitch": 51,
                "velocity": 64,
                "duration": 0.05,
                "tempo": 120.0
            },
            {
                "start_time": 15.6909091,
                "end_time": 18.5454545,
                "pitch": 53,
                "velocity": 64,
                "duration": 2.8545455,
                "tempo": 120.0
            },
            {
                "start_time": 18.5454545,
                "end_time": 18.6113636,
                "pitch": 55,
                "velocity": 64,
                "duration": 0.0659091,
                "tempo": 120.0
            },
            {
                "start_time": 18.6113636,
                "end_time": 18.6772727,
                "pitch": 55,
                "velocity": 64,
                "duration": 0.0659091,
                "tempo": 120.0
            },
            {
                "start_time": 18.6772727,
                "end_time": 18.7409091,
                "pitch": 55,
                "velocity": 64,
                "duration": 0.0636364,
                "tempo": 120.0
            },
            {
                "start_time": 18.7409091,
                "end_time": 18.8068182,
                "pitch": 55,
                "velocity": 64,
                "duration": 0.0659091,
                "tempo": 120.0
            },
            {
                "start_time": 18.8068182,
                "end_time": 18.8727273,
                "pitch": 55,
                "velocity": 64,
                "duration": 0.0659091,
                "tempo": 120.0
            },
            {
                "start_time": 18.8727273,
                "end_time": 18.9386364,
                "pitch": 55,
                "velocity": 64,
                "duration": 0.0659091,
                "tempo": 120.0
            },
            {
                "start_time": 18.9386364,
                "end_time": 19.0022727,
                "pitch": 55,
                "velocity": 64,
                "duration": 0.0636364,
                "tempo": 120.0
            },
            {
                "start_time": 19.0022727,
                "end_time": 19.0681818,
                "pitch": 55,
                "velocity": 64,
                "duration": 0.0659091,
                "tempo": 120.0
            },
            {
                "start_time": 19.0681818,
                "end_time": 19.1318182,
                "pitch": 55,
                "velocity": 64,
                "duration": 0.0636364,
                "tempo": 120.0
            },
            {
                "start_time": 19.1318182,
                "end_time": 19.1954545,
                "pitch": 55,
                "velocity": 64,
                "duration": 0.0636364,
                "tempo": 120.0
            },
            {
                "start_time": 19.1954545,
                "end_time": 19.2613636,
                "pitch": 55,
                "velocity": 64,
                "duration": 0.0659091,
                "tempo": 120.0
            },
            {
                "start_time": 19.2613636,
                "end_time": 19.325,
                "pitch": 55,
                "velocity": 64,
                "duration": 0.0636364,
                "tempo": 120.0
            },
            {
                "start_time": 19.325,
                "end_time": 19.3886364,
                "pitch": 55,
                "velocity": 64,
                "duration": 0.0636364,
                "tempo": 120.0
            },
            {
                "start_time": 19.3886364,
                "end_time": 19.4522727,
                "pitch": 55,
                "velocity": 64,
                "duration": 0.0636364,
                "tempo": 120.0
            },
            {
                "start_time": 19.4522727,
                "end_time": 19.5181818,
                "pitch": 55,
                "velocity": 64,
                "duration": 0.0659091,
                "tempo": 120.0
            },
            {
                "start_time": 19.5181818,
                "end_time": 19.5863636,
                "pitch": 55,
                "velocity": 64,
                "duration": 0.0681818,
                "tempo": 120.0
            },
            {
                "start_time": 19.5863636,
                "end_time": 19.6568182,
                "pitch": 55,
                "velocity": 64,
                "duration": 0.0704545,
                "tempo": 120.0
            },
            {
                "start_time": 19.6568182,
                "end_time": 19.7295455,
                "pitch": 55,
                "velocity": 64,
                "duration": 0.0727273,
                "tempo": 120.0
            },
            {
                "start_time": 19.7295455,
                "end_time": 19.8,
                "pitch": 55,
                "velocity": 64,
                "duration": 0.0704545,
                "tempo": 120.0
            },
            {
                "start_time": 19.8,
                "end_time": 19.8704545,
                "pitch": 55,
                "velocity": 64,
                "duration": 0.0704545,
                "tempo": 120.0
            },
            {
                "start_time": 19.8704545,
                "end_time": 19.9409091,
                "pitch": 55,
                "velocity": 64,
                "duration": 0.0704545,
                "tempo": 120.0
            },
            {
                "start_time": 19.9409091,
                "end_time": 20.0113636,
                "pitch": 55,
                "velocity": 64,
                "duration": 0.0704545,
                "tempo": 120.0
            },
            {
                "start_time": 20.0113636,
                "end_time": 20.0818182,
                "pitch": 55,
                "velocity": 64,
                "duration": 0.0704545,
                "tempo": 120.0
            },
            {
                "start_time": 20.0818182,
                "end_time": 20.1477273,
                "pitch": 55,
                "velocity": 64,
                "duration": 0.0659091,
                "tempo": 120.0
            },
            {
                "start_time": 20.1477273,
                "end_time": 20.2113636,
                "pitch": 55,
                "velocity": 64,
                "duration": 0.0636364,
                "tempo": 120.0
            },
            {
                "start_time": 20.2113636,
                "end_time": 20.2772727,
                "pitch": 55,
                "velocity": 64,
                "duration": 0.0659091,
                "tempo": 120.0
            },
            {
                "start_time": 20.2772727,
                "end_time": 20.3431818,
                "pitch": 55,
                "velocity": 64,
                "duration": 0.0659091,
                "tempo": 120.0
            },
            {
                "start_time": 20.3431818,
                "end_time": 20.4090909,
                "pitch": 55,
                "velocity": 64,
                "duration": 0.0659091,
                "tempo": 120.0
            },
            {
                "start_time": 20.4090909,
                "end_time": 20.475,
                "pitch": 55,
                "velocity": 64,
                "duration": 0.0659091,
                "tempo": 120.0
            },
            {
                "start_time": 20.475,
                "end_time": 20.5409091,
                "pitch": 55,
                "velocity": 64,
                "duration": 0.0659091,
                "tempo": 120.0
            },
            {
                "start_time": 20.5409091,
                "end_time": 20.6090909,
                "pitch": 55,
                "velocity": 64,
                "duration": 0.0681818,
                "tempo": 120.0
            },
            {
                "start_time": 20.6090909,
                "end_time": 20.675,
                "pitch": 55,
                "velocity": 64,
                "duration": 0.0659091,
                "tempo": 120.0
            },
            {
                "start_time": 20.675,
                "end_time": 20.7431818,
                "pitch": 55,
                "velocity": 64,
                "duration": 0.0681818,
                "tempo": 120.0
            },
            {
                "start_time": 20.7431818,
                "end_time": 20.8090909,
                "pitch": 55,
                "velocity": 64,
                "duration": 0.0659091,
                "tempo": 120.0
            },
            {
                "start_time": 20.8090909,
                "end_time": 20.8772727,
                "pitch": 55,
                "velocity": 64,
                "duration": 0.0681818,
                "tempo": 120.0
            },
            {
                "start_time": 20.8772727,
                "end_time": 20.9431818,
                "pitch": 55,
                "velocity": 64,
                "duration": 0.0659091,
                "tempo": 120.0
            },
            {
                "start_time": 20.9431818,
                "end_time": 21.0090909,
                "pitch": 55,
                "velocity": 64,
                "duration": 0.0659091,
                "tempo": 120.0
            },
            {
                "start_time": 21.0090909,
                "end_time": 21.0772727,
                "pitch": 55,
                "velocity": 64,
                "duration": 0.0681818,
                "tempo": 120.0
            },
            {
                "start_time": 21.0772727,
                "end_time": 21.1454545,
                "pitch": 55,
                "velocity": 64,
                "duration": 0.0681818,
                "tempo": 120.0
            },
            {
                "start_time": 21.1454545,
                "end_time": 21.2136364,
                "pitch": 55,
                "velocity": 64,
                "duration": 0.0681818,
                "tempo": 120.0
            },
            {
                "start_time": 21.2136364,
                "end_time": 21.2818182,
                "pitch": 55,
                "velocity": 64,
                "duration": 0.0681818,
                "tempo": 120.0
            },
            {
                "start_time": 21.2818182,
                "end_time": 21.35,
                "pitch": 55,
                "velocity": 64,
                "duration": 0.0681818,
                "tempo": 120.0
            },
            {
                "start_time": 21.35,
                "end_time": 21.4181818,
                "pitch": 55,
                "velocity": 64,
                "duration": 0.0681818,
                "tempo": 120.0
            },
            {
                "start_time": 21.4181818,
                "end_time": 21.4863636,
                "pitch": 55,
                "velocity": 64,
                "duration": 0.0681818,
                "tempo": 120.0
            },
            {
                "start_time": 21.4863636,
                "end_time": 21.5522727,
                "pitch": 55,
                "velocity": 64,
                "duration": 0.0659091,
                "tempo": 120.0
            },
            {
                "start_time": 21.5522727,
                "end_time": 21.6181818,
                "pitch": 55,
                "velocity": 64,
                "duration": 0.0659091,
                "tempo": 120.0
            },
            {
                "start_time": 21.6181818,
                "end_time": 21.6840909,
                "pitch": 55,
                "velocity": 64,
                "duration": 0.0659091,
                "tempo": 120.0
            },
            {
                "start_time": 21.6840909,
                "end_time": 21.75,
                "pitch": 55,
                "velocity": 64,
                "duration": 0.0659091,
                "tempo": 120.0
            },
            {
                "start_time": 21.75,
                "end_time": 21.8159091,
                "pitch": 55,
                "velocity": 64,
                "duration": 0.0659091,
                "tempo": 120.0
            },
            {
                "start_time": 21.8159091,
                "end_time": 21.8818182,
                "pitch": 55,
                "velocity": 64,
                "duration": 0.0659091,
                "tempo": 120.0
            },
            {
                "start_time": 21.8818182,
                "end_time": 21.9477273,
                "pitch": 55,
                "velocity": 64,
                "duration": 0.0659091,
                "tempo": 120.0
            },
            {
                "start_time": 21.9477273,
                "end_time": 22.0136364,
                "pitch": 55,
                "velocity": 64,
                "duration": 0.0659091,
                "tempo": 120.0
            },
            {
                "start_time": 22.0136364,
                "end_time": 22.0772727,
                "pitch": 55,
                "velocity": 64,
                "duration": 0.0636364,
                "tempo": 120.0
            },
            {
                "start_time": 22.0772727,
                "end_time": 22.1409091,
                "pitch": 55,
                "velocity": 64,
                "duration": 0.0636364,
                "tempo": 120.0
            },
            {
                "start_time": 22.1409091,
                "end_time": 22.2068182,
                "pitch": 55,
                "velocity": 64,
                "duration": 0.0659091,
                "tempo": 120.0
            },
            {
                "start_time": 22.2068182,
                "end_time": 22.2704545,
                "pitch": 55,
                "velocity": 64,
                "duration": 0.0636364,
                "tempo": 120.0
            },
            {
                "start_time": 22.2704545,
                "end_time": 22.3340909,
                "pitch": 55,
                "velocity": 64,
                "duration": 0.0636364,
                "tempo": 120.0
            },
            {
                "start_time": 22.3340909,
                "end_time": 22.3977273,
                "pitch": 55,
                "velocity": 64,
                "duration": 0.0636364,
                "tempo": 120.0
            },
            {
                "start_time": 22.3977273,
                "end_time": 22.4636364,
                "pitch": 55,
                "velocity": 64,
                "duration": 0.0659091,
                "tempo": 120.0
            },
            {
                "start_time": 22.4636364,
                "end_time": 22.5295455,
                "pitch": 55,
                "velocity": 64,
                "duration": 0.0659091,
                "tempo": 120.0
            },
            {
                "start_time": 22.5295455,
                "end_time": 22.5977273,
                "pitch": 55,
                "velocity": 64,
                "duration": 0.0681818,
                "tempo": 120.0
            },
            {
                "start_time": 22.5977273,
                "end_time": 22.6636364,
                "pitch": 55,
                "velocity": 64,
                "duration": 0.0659091,
                "tempo": 120.0
            },
            {
                "start_time": 22.6636364,
                "end_time": 22.7318182,
                "pitch": 55,
                "velocity": 64,
                "duration": 0.0681818,
                "tempo": 120.0
            },
            {
                "start_time": 22.7318182,
                "end_time": 22.7977273,
                "pitch": 55,
                "velocity": 64,
                "duration": 0.0659091,
                "tempo": 120.0
            },
            {
                "start_time": 22.7977273,
                "end_time": 22.8636364,
                "pitch": 55,
                "velocity": 64,
                "duration": 0.0659091,
                "tempo": 120.0
            },
            {
                "start_time": 22.8636364,
                "end_time": 22.9318182,
                "pitch": 55,
                "velocity": 64,
                "duration": 0.0681818,
                "tempo": 120.0
            },
            {
                "start_time": 22.9318182,
                "end_time": 22.9977273,
                "pitch": 55,
                "velocity": 64,
                "duration": 0.0659091,
                "tempo": 120.0
            },
            {
                "start_time": 22.9977273,
                "end_time": 23.0659091,
                "pitch": 55,
                "velocity": 64,
                "duration": 0.0681818,
                "tempo": 120.0
            },
            {
                "start_time": 23.0659091,
                "end_time": 23.1318182,
                "pitch": 55,
                "velocity": 64,
                "duration": 0.0659091,
                "tempo": 120.0
            },
            {
                "start_time": 23.1318182,
                "end_time": 23.2,
                "pitch": 55,
                "velocity": 64,
                "duration": 0.0681818,
                "tempo": 120.0
            },
            {
                "start_time": 23.2,
                "end_time": 23.2659091,
                "pitch": 55,
                "velocity": 64,
                "duration": 0.0659091,
                "tempo": 120.0
            },
            {
                "start_time": 23.2659091,
                "end_time": 23.3340909,
                "pitch": 55,
                "velocity": 64,
                "duration": 0.0681818,
                "tempo": 120.0
            },
            {
                "start_time": 23.3340909,
                "end_time": 23.4,
                "pitch": 55,
                "velocity": 64,
                "duration": 0.0659091,
                "tempo": 120.0
            },
            {
                "start_time": 23.4,
                "end_time": 23.4659091,
                "pitch": 55,
                "velocity": 64,
                "duration": 0.0659091,
                "tempo": 120.0
            },
            {
                "start_time": 23.4659091,
                "end_time": 23.5295455,
                "pitch": 55,
                "velocity": 64,
                "duration": 0.0636364,
                "tempo": 120.0
            },
            {
                "start_time": 23.5295455,
                "end_time": 23.5931818,
                "pitch": 55,
                "velocity": 64,
                "duration": 0.0636364,
                "tempo": 120.0
            },
            {
                "start_time": 23.5931818,
                "end_time": 23.6568182,
                "pitch": 55,
                "velocity": 64,
                "duration": 0.0636364,
                "tempo": 120.0
            },
            {
                "start_time": 23.6568182,
                "end_time": 23.7227273,
                "pitch": 55,
                "velocity": 64,
                "duration": 0.0659091,
                "tempo": 120.0
            },
            {
                "start_time": 23.7227273,
                "end_time": 23.7863636,
                "pitch": 55,
                "velocity": 64,
                "duration": 0.0636364,
                "tempo": 120.0
            },
            {
                "start_time": 23.7863636,
                "end_time": 23.85,
                "pitch": 55,
                "velocity": 64,
                "duration": 0.0636364,
                "tempo": 120.0
            },
            {
                "start_time": 23.85,
                "end_time": 23.9159091,
                "pitch": 55,
                "velocity": 64,
                "duration": 0.0659091,
                "tempo": 120.0
            },
            {
                "start_time": 23.9159091,
                "end_time": 23.9818182,
                "pitch": 55,
                "velocity": 64,
                "duration": 0.0659091,
                "tempo": 120.0
            },
            {
                "start_time": 23.9818182,
                "end_time": 24.05,
                "pitch": 55,
                "velocity": 64,
                "duration": 0.0681818,
                "tempo": 120.0
            },
            {
                "start_time": 24.05,
                "end_time": 24.1159091,
                "pitch": 55,
                "velocity": 64,
                "duration": 0.0659091,
                "tempo": 120.0
            },
            {
                "start_time": 24.1159091,
                "end_time": 24.1840909,
                "pitch": 55,
                "velocity": 64,
                "duration": 0.0681818,
                "tempo": 120.0
            },
            {
                "start_time": 24.1840909,
                "end_time": 24.25,
                "pitch": 55,
                "velocity": 64,
                "duration": 0.0659091,
                "tempo": 120.0
            },
            {
                "start_time": 24.25,
                "end_time": 24.3181818,
                "pitch": 55,
                "velocity": 64,
                "duration": 0.0681818,
                "tempo": 120.0
            },
            {
                "start_time": 24.3181818,
                "end_time": 24.3840909,
                "pitch": 55,
                "velocity": 64,
                "duration": 0.0659091,
                "tempo": 120.0
            }
        ]
    }
}