{
    "mood": "sad",
    "instruments": {
        "Flute": [
            {
                "start_time": 0.0,
                "end_time": 0.3840909,
                "pitch": 69,
                "velocity": 64,
                "duration": 0.3840909,
                "tempo": 120.0
            },
            {
                "start_time": 0.4,
                "end_time": 0.7840909,
                "pitch": 71,
                "velocity": 64,
                "duration": 0.3840909,
                "tempo": 120.0
            },
            {
                "start_time": 0.8090909,
                "end_time": 3.1863636,
                "pitch": 76,
                "velocity": 64,
                "duration": 2.3772727,
                "tempo": 120.0
            },
            {
                "start_time": 3.2204545,
                "end_time": 3.5931818,
                "pitch": 74,
                "velocity": 64,
                "duration": 0.3727273,
                "tempo": 120.0
            },
            {
                "start_time": 3.6272727,
                "end_time": 3.9977273,
                "pitch": 71,
                "velocity": 64,
                "duration": 0.3704545,
                "tempo": 120.0
            },
            {
                "start_time": 4.0318182,
                "end_time": 5.5977273,
                "pitch": 69,
                "velocity": 64,
                "duration": 1.5659091,
                "tempo": 120.0
            },
            {
                "start_time": 5.6318182,
                "end_time": 6.4090909,
                "pitch": 74,
                "velocity": 64,
                "duration": 0.7772727,
                "tempo": 120.0
            },
            {
                "start_time": 6.4431818,
                "end_time": 7.2204545,
                "pitch": 76,
                "velocity": 64,
                "duration": 0.7772727,
                "tempo": 120.0
            },
            {
                "start_time": 7.2522727,
                "end_time": 9.6409091,
                "pitch": 78,
                "velocity": 64,
                "duration": 2.3886364,
                "tempo": 120.0
            },
            {
                "start_time": 9.675,
                "end_time": 10.0409091,
                "pitch": 78,
                "velocity": 64,
                "duration": 0.3659091,
                "tempo": 120.0
            },
            {
                "start_time": 10.075,
                "end_time": 10.4409091,
                "pitch": 74,
                "velocity": 64,
                "duration": 0.3659091,
                "tempo": 120.0
            },
            {
                "start_time": 10.475,
                "end_time": 12.8522727,
                "pitch": 69,
                "velocity": 64,
                "duration": 2.3772727,
                "tempo": 120.0
            },
            {
                "start_time": 12.8863636,
                "end_time": 13.2568182,
                "pitch": 69,
                "velocity": 64,
                "duration": 0.3704545,
                "tempo": 120.0
            },
            {
                "start_time": 13.2909091,
                "end_time": 13.6636364,
                "pitch": 76,
                "velocity": 64,
                "duration": 0.3727273,
                "tempo": 120.0
            },
            {
                "start_time": 13.6954545,
                "end_time": 16.0840909,
                "pitch": 64,
                "velocity": 64,
                "duration": 2.3886364,
                "tempo": 120.0
            },
            {
                "start_time": 16.1181818,
                "end_time": 16.4840909,
                "pitch": 74,
                "velocity": 64,
                "duration": 0.3659091,
                "tempo": 120.0
            },
            {
                "start_time": 16.5181818,
                "end_time": 16.8840909,
                "pitch": 76,
                "velocity": 64,
                "duration": 0.3659091,
                "tempo": 120.0
            },
            {
                "start_time": 16.9181818,
                "end_time": 17.6954545,
                "pitch": 74,
                "velocity": 64,
                "duration": 0.7772727,
                "tempo": 120.0
            },
            {
                "start_time": 17.7295455,
                "end_time": 18.5068182,
                "pitch": 71,
                "velocity": 64,
                "duration": 0.7772727,
                "tempo": 120.0
            },
            {
                "start_time": 18.5386364,
                "end_time": 19.3068182,
                "pitch": 69,
                "velocity": 64,
                "duration": 0.7681818,
                "tempo": 120.0
            },
            {
                "start_time": 19.3386364,
                "end_time": 20.1068182,
                "pitch": 71,
                "velocity": 64,
                "duration": 0.7681818,
                "tempo": 120.0
            },
            {
                "start_time": 20.1386364,
                "end_time": 24.9704545,
                "pitch": 62,
                "velocity": 64,
                "duration": 4.8318182,
                "tempo": 120.0
            },
            {
                "start_time": 25.0045455,
                "end_time": 25.7818182,
                "pitch": 69,
                "velocity": 64,
                "duration": 0.7772727,
                "tempo": 120.0
            },
            {
                "start_time": 25.8159091,
                "end_time": 26.5931818,
                "pitch": 71,
                "velocity": 64,
                "duration": 0.7772727,
                "tempo": 120.0
            },
            {
                "start_time": 26.625,
                "end_time": 29.0022727,
                "pitch": 76,
                "velocity": 64,
                "duration": 2.3772727,
                "tempo": 120.0
            },
            {
                "start_time": 29.0363636,
                "end_time": 29.4090909,
                "pitch": 74,
                "velocity": 64,
                "duration": 0.3727273,
                "tempo": 120.0
            },
            {
                "start_time": 29.4431818,
                "end_time": 29.8136364,
                "pitch": 71,
                "velocity": 64,
                "duration": 0.3704545,
                "tempo": 120.0
            },
            {
                "start_time": 29.8477273,
                "end_time": 31.4136364,
                "pitch": 69,
                "velocity": 64,
                "duration": 1.5659091,
                "tempo": 120.0
            },
            {
                "start_time": 31.4477273,
                "end_time": 32.225,
                "pitch": 74,
                "velocity": 64,
                "duration": 0.7772727,
                "tempo": 120.0
            },
            {
                "start_time": 32.2590909,
                "end_time": 33.0363636,
                "pitch": 76,
                "velocity": 64,
                "duration": 0.7772727,
                "tempo": 120.0
            },
            {
                "start_time": 33.0681818,
                "end_time": 35.4568182,
                "pitch": 78,
                "velocity": 64,
                "duration": 2.3886364,
                "tempo": 120.0
            },
            {
                "start_time": 35.4909091,
                "end_time": 35.8568182,
                "pitch": 78,
                "velocity": 64,
                "duration": 0.3659091,
                "tempo": 120.0
            },
            {
                "start_time": 35.8909091,
                "end_time": 36.2568182,
                "pitch": 74,
                "velocity": 64,
                "duration": 0.3659091,
                "tempo": 120.0
            },
            {
                "start_time": 36.2909091,
                "end_time": 38.6681818,
                "pitch": 69,
                "velocity": 64,
                "duration": 2.3772727,
                "tempo": 120.0
            },
            {
                "start_time": 38.7022727,
                "end_time": 39.0727273,
                "pitch": 69,
                "velocity": 64,
                "duration": 0.3704545,
                "tempo": 120.0
            },
            {
                "start_time": 39.1068182,
                "end_time": 39.4795455,
                "pitch": 76,
                "velocity": 64,
                "duration": 0.3727273,
                "tempo": 120.0
            },
            {
                "start_time": 39.5113636,
                "end_time": 41.9,
                "pitch": 64,
                "velocity": 64,
                "duration": 2.3886364,
                "tempo": 120.0
            },
            {
                "start_time": 41.9340909,
                "end_time": 42.3,
                "pitch": 74,
                "velocity": 64,
                "duration": 0.3659091,
                "tempo": 120.0
            },
            {
                "start_time": 42.3340909,
                "end_time": 42.7,
                "pitch": 76,
                "velocity": 64,
                "duration": 0.3659091,
                "tempo": 120.0
            },
            {
                "start_time": 42.7340909,
                "end_time": 43.5113636,
                "pitch": 74,
                "velocity": 64,
                "duration": 0.7772727,
                "tempo": 120.0
            },
            {
                "start_time": 43.5454545,
                "end_time": 44.3227273,
                "pitch": 71,
                "velocity": 64,
                "duration": 0.7772727,
                "tempo": 120.0
            },
            {
                "start_time": 44.3545455,
                "end_time": 45.1227273,
                "pitch": 69,
                "velocity": 64,
                "duration": 0.7681818,
                "tempo": 120.0
            },
            {
                "start_time": 45.1545455,
                "end_time": 45.9227273,
                "pitch": 71,
                "velocity": 64,
                "duration": 0.7681818,
                "tempo": 120.0
            },
            {
                "start_time": 45.9545455,
                "end_time": 50.7659091,
                "pitch": 62,
                "velocity": 64,
                "duration": 4.8113636,
                "tempo": 120.0
            },
            {
                "start_time": 50.7977273,
                "end_time": 51.5545455,
                "pitch": 69,
                "velocity": 64,
                "duration": 0.7568182,
                "tempo": 120.0
            },
            {
                "start_time": 51.5886364,
                "end_time": 52.3454545,
                "pitch": 71,
                "velocity": 64,
                "duration": 0.7568182,
                "tempo": 120.0
            }
        ],
        "Acoustic Bass": [
            {
                "start_time": 0.0,
                "end_time": 0.3840909,
                "pitch": 50,
                "velocity": 51,
                "duration": 0.3840909,
                "tempo": 120.0
            },
            {
                "start_time": 0.4,
                "end_time": 0.7840909,
                "pitch": 45,
                "velocity": 51,
                "duration": 0.3840909,
                "tempo": 120.0
            },
            {
                "start_time": 0.8090909,
                "end_time": 3.1863636,
                "pitch": 40,
                "velocity": 51,
                "duration": 2.3772727,
                "tempo": 120.0
            },
            {
                "start_time": 3.2204545,
                "end_time": 3.9977273,
                "pitch": 40,
                "velocity": 51,
                "duration": 0.7772727,
                "tempo": 120.0
            },
            {
                "start_time": 4.0318182,
                "end_time": 4.7977273,
                "pitch": 40,
                "velocity": 51,
                "duration": 0.7659091,
                "tempo": 120.0
            },
            {
                "start_time": 4.8318182,
                "end_time": 5.5977273,
                "pitch": 47,
                "velocity": 51,
                "duration": 0.7659091,
                "tempo": 120.0
            },
            {
                "start_time": 5.6318182,
                "end_time": 6.4090909,
                "pitch": 52,
                "velocity": 51,
                "duration": 0.7772727,
                "tempo": 120.0
            },
            {
                "start_time": 6.4431818,
                "end_time": 7.2204545,
                "pitch": 47,
                "velocity": 51,
                "duration": 0.7772727,
                "tempo": 120.0
            },
            {
                "start_time": 7.2522727,
                "end_time": 9.6409091,
                "pitch": 38,
                "velocity": 51,
                "duration": 2.3886364,
                "tempo": 120.0
            },
            {
                "start_time": 9.675,
                "end_time": 10.4409091,
                "pitch": 38,
                "velocity": 51,
                "duration": 0.7659091,
                "tempo": 120.0
            },
            {
                "start_time": 10.475,
                "end_time": 11.2409091,
                "pitch": 38,
                "velocity": 51,
                "duration": 0.7659091,
                "tempo": 120.0
            },
            {
                "start_time": 11.275,
                "end_time": 12.0409091,
                "pitch": 45,
                "velocity": 51,
                "duration": 0.7659091,
                "tempo": 120.0
            },
            {
                "start_time": 12.075,
                "end_time": 12.8522727,
                "pitch": 50,
                "velocity": 51,
                "duration": 0.7772727,
                "tempo": 120.0
            },
            {
                "start_time": 12.8863636,
                "end_time": 13.6636364,
                "pitch": 45,
                "velocity": 51,
                "duration": 0.7772727,
                "tempo": 120.0
            },
            {
                "start_time": 13.6954545,
                "end_time": 16.0840909,
                "pitch": 40,
                "velocity": 51,
                "duration": 2.3886364,
                "tempo": 120.0
            },
            {
                "start_time": 16.1181818,
                "end_time": 16.8840909,
                "pitch": 40,
                "velocity": 51,
                "duration": 0.7659091,
                "tempo": 120.0
            },
            {
                "start_time": 16.9181818,
                "end_time": 17.6954545,
                "pitch": 40,
                "velocity": 51,
                "duration": 0.7772727,
                "tempo": 120.0
            },
            {
                "start_time": 17.7295455,
                "end_time": 18.5068182,
                "pitch": 47,
                "velocity": 51,
                "duration": 0.7772727,
                "tempo": 120.0
            },
            {
                "start_time": 18.5386364,
                "end_time": 19.3068182,
                "pitch": 52,
                "velocity": 51,
                "duration": 0.7681818,
                "tempo": 120.0
            },
            {
                "start_time": 19.3386364,
                "end_time": 20.1068182,
                "pitch": 47,
                "velocity": 51,
                "duration": 0.7681818,
                "tempo": 120.0
            },
            {
                "start_time": 20.1386364,
                "end_time": 22.5386364,
                "pitch": 38,
                "velocity": 51,
                "duration": 2.4,
                "tempo": 120.0
            },
            {
                "start_time": 22.5727273,
                "end_time": 23.35,
                "pitch": 38,
                "velocity": 51,
                "duration": 0.7772727,
                "tempo": 120.0
            },
            {
                "start_time": 23.3840909,
                "end_time": 24.1590909,
                "pitch": 38,
                "velocity": 51,
                "duration": 0.775,
                "tempo": 120.0
            },
            {
                "start_time": 24.1931818,
                "end_time": 24.9704545,
                "pitch": 45,
                "velocity": 51,
                "duration": 0.7772727,
                "tempo": 120.0
            },
            {
                "start_time": 25.0045455,
                "end_time": 25.7818182,
                "pitch": 50,
                "velocity": 51,
                "duration": 0.7772727,
                "tempo": 120.0
            },
            {
                "start_time": 25.8159091,
                "end_time": 26.5931818,
                "pitch": 45,
                "velocity": 51,
                "duration": 0.7772727,
                "tempo": 120.0
            },
            {
                "start_time": 26.625,
                "end_time": 29.0022727,
                "pitch": 40,
                "velocity": 51,
                "duration": 2.3772727,
                "tempo": 120.0
            },
            {
                "start_time": 29.0363636,
                "end_time": 29.8136364,
                "pitch": 40,
                "velocity": 51,
                "duration": 0.7772727,
                "tempo": 120.0
            },
            {
                "start_time": 29.8477273,
                "end_time": 30.6136364,
                "pitch": 40,
                "velocity": 51,
                "duration": 0.7659091,
                "tempo": 120.0
            },
            {
                "start_time": 30.6477273,
                "end_time": 31.4136364,
                "pitch": 47,
                "velocity": 51,
                "duration": 0.7659091,
                "tempo": 120.0
            },
            {
                "start_time": 31.4477273,
                "end_time": 32.225,
                "pitch": 52,
                "velocity": 51,
                "duration": 0.7772727,
                "tempo": 120.0
            },
            {
                "start_time": 32.2590909,
                "end_time": 33.0363636,
                "pitch": 47,
                "velocity": 51,
                "duration": 0.7772727,
                "tempo": 120.0
            },
            {
                "start_time": 33.0681818,
                "end_time": 35.4568182,
                "pitch": 38,
                "velocity": 51,
                "duration": 2.3886364,
                "tempo": 120.0
            },
            {
                "start_time": 35.4909091,
                "end_time": 36.2568182,
                "pitch": 38,
                "velocity": 51,
                "duration": 0.7659091,
                "tempo": 120.0
            },
            {
                "start_time": 36.2909091,
                "end_time": 37.0568182,
                "pitch": 38,
                "velocity": 51,
                "duration": 0.7659091,
                "tempo": 120.0
            },
            {
                "start_time": 37.0909091,
                "end_time": 37.8568182,
                "pitch": 45,
                "velocity": 51,
                "duration": 0.7659091,
                "tempo": 120.0
            },
            {
                "start_time": 37.8909091,
                "end_time": 38.6681818,
                "pitch": 50,
                "velocity": 51,
                "duration": 0.7772727,
                "tempo": 120.0
            },
            {
                "start_time": 38.7022727,
                "end_time": 39.4795455,
                "pitch": 45,
                "velocity": 51,
                "duration": 0.7772727,
                "tempo": 120.0
            },
            {
                "start_time": 39.5113636,
                "end_time": 41.9,
                "pitch": 40,
                "velocity": 51,
                "duration": 2.3886364,
                "tempo": 120.0
            },
            {
                "start_time": 41.9340909,
                "end_time": 42.7,
                "pitch": 40,
                "velocity": 51,
                "duration": 0.7659091,
                "tempo": 120.0
            },
            {
                "start_time": 42.7340909,
                "end_time": 43.5113636,
                "pitch": 40,
                "velocity": 51,
                "duration": 0.7772727,
                "tempo": 120.0
            },
            {
                "start_time": 43.5454545,
                "end_time": 44.3227273,
                "pitch": 47,
                "velocity": 51,
                "duration": 0.7772727,
                "tempo": 120.0
            },
            {
                "start_time": 44.3545455,
                "end_time": 45.1227273,
                "pitch": 52,
                "velocity": 51,
                "duration": 0.7681818,
                "tempo": 120.0
            },
            {
                "start_time": 45.1545455,
                "end_time": 45.9227273,
                "pitch": 47,
                "velocity": 51,
                "duration": 0.7681818,
                "tempo": 120.0
            },
            {
                "start_time": 45.9545455,
                "end_time": 48.3227273,
                "pitch": 38,
                "velocity": 51,
                "duration": 2.3681818,
                "tempo": 120.0
            },
            {
                "start_time": 48.3568182,
                "end_time": 49.1431818,
                "pitch": 38,
                "velocity": 51,
                "duration": 0.7863636,
                "tempo": 120.0
            },
            {
                "start_time": 49.1772727,
                "end_time": 49.9545455,
                "pitch": 38,
                "velocity": 51,
                "duration": 0.7772727,
                "tempo": 120.0
            },
            {
                "start_time": 49.9886364,
                "end_time": 50.7659091,
                "pitch": 45,
                "velocity": 51,
                "duration": 0.7772727,
                "tempo": 120.0
            },
            {
                "start_time": 50.7977273,
                "end_time": 51.5545455,
                "pitch": 50,
                "velocity": 51,
                "duration": 0.7568182,
                "tempo": 120.0
            },
            {
                "start_time": 51.5886364,
                "end_time": 52.3454545,
                "pitch": 45,
                "velocity": 51,
                "duration": 0.7568182,
                "tempo": 120.0
            }
        ],
        "Acoustic Grand Piano": [
            {
                "start_time": 0.0,
                "end_time": 0.1159091,
                "pitch": 74,
                "velocity": 51,
                "duration": 0.1159091,
                "tempo": 120.0
            },
            {
                "start_time": 0.1340909,
                "end_time": 0.5159091,
                "pitch": 81,
                "velocity": 51,
                "duration": 0.3818182,
                "tempo": 120.0
            },
            {
                "start_time": 0.5340909,
                "end_time": 0.7840909,
                "pitch": 83,
                "velocity": 51,
                "duration": 0.25,
                "tempo": 120.0
            },
            {
                "start_time": 0.7840909,
                "end_time": 1.0431818,
                "pitch": 83,
                "velocity": 51,
                "duration": 0.2590909,
                "tempo": 120.0
            },
            {
                "start_time": 1.0772727,
                "end_time": 3.4568182,
                "pitch": 88,
                "velocity": 51,
                "duration": 2.3795455,
                "tempo": 120.0
            },
            {
                "start_time": 3.4909091,
                "end_time": 3.8636364,
                "pitch": 86,
                "velocity": 51,
                "duration": 0.3727273,
                "tempo": 120.0
            },
            {
                "start_time": 3.8954545,
                "end_time": 4.2659091,
                "pitch": 83,
                "velocity": 51,
                "duration": 0.3704545,
                "tempo": 120.0
            },
            {
                "start_time": 4.2977273,
                "end_time": 5.8681818,
                "pitch": 81,
                "velocity": 51,
                "duration": 1.5704545,
                "tempo": 120.0
            },
            {
                "start_time": 5.9022727,
                "end_time": 6.6795455,
                "pitch": 86,
                "velocity": 51,
                "duration": 0.7772727,
                "tempo": 120.0
            },
            {
                "start_time": 6.7136364,
                "end_time": 7.4886364,
                "pitch": 88,
                "velocity": 51,
                "duration": 0.775,
                "tempo": 120.0
            },
            {
                "start_time": 7.5227273,
                "end_time": 9.9090909,
                "pitch": 90,
                "velocity": 51,
                "duration": 2.3863636,
                "tempo": 120.0
            },
            {
                "start_time": 9.9409091,
                "end_time": 10.3090909,
                "pitch": 90,
                "velocity": 51,
                "duration": 0.3681818,
                "tempo": 120.0
            },
            {
                "start_time": 10.3409091,
                "end_time": 10.7090909,
                "pitch": 86,
                "velocity": 51,
                "duration": 0.3681818,
                "tempo": 120.0
            },
            {
                "start_time": 10.7409091,
                "end_time": 13.1227273,
                "pitch": 81,
                "velocity": 51,
                "duration": 2.3818182,
                "tempo": 120.0
            },
            {
                "start_time": 13.1568182,
                "end_time": 13.5272727,
                "pitch": 81,
                "velocity": 51,
                "duration": 0.3704545,
                "tempo": 120.0
            },
            {
                "start_time": 13.5613636,
                "end_time": 13.9340909,
                "pitch": 88,
                "velocity": 51,
                "duration": 0.3727273,
                "tempo": 120.0
            },
            {
                "start_time": 13.9659091,
                "end_time": 16.3522727,
                "pitch": 76,
                "velocity": 51,
                "duration": 2.3863636,
                "tempo": 120.0
            },
            {
                "start_time": 16.3840909,
                "end_time": 16.7522727,
                "pitch": 86,
                "velocity": 51,
                "duration": 0.3681818,
                "tempo": 120.0
            },
            {
                "start_time": 16.7840909,
                "end_time": 17.1545455,
                "pitch": 88,
                "velocity": 51,
                "duration": 0.3704545,
                "tempo": 120.0
            },
            {
                "start_time": 17.1886364,
                "end_time": 17.9659091,
                "pitch": 86,
                "velocity": 51,
                "duration": 0.7772727,
                "tempo": 120.0
            },
            {
                "start_time": 18.0,
                "end_time": 18.7727273,
                "pitch": 83,
                "velocity": 51,
                "duration": 0.7727273,
                "tempo": 120.0
            },
            {
                "start_time": 18.8068182,
                "end_time": 19.5727273,
                "pitch": 81,
                "velocity": 51,
                "duration": 0.7659091,
                "tempo": 120.0
            },
            {
                "start_time": 19.6068182,
                "end_time": 20.3772727,
                "pitch": 83,
                "velocity": 51,
                "duration": 0.7704545,
                "tempo": 120.0
            },
            {
                "start_time": 20.4090909,
                "end_time": 25.2409091,
                "pitch": 74,
                "velocity": 51,
                "duration": 4.8318182,
                "tempo": 120.0
            },
            {
                "start_time": 25.275,
                "end_time": 26.0522727,
                "pitch": 81,
                "velocity": 51,
                "duration": 0.7772727,
                "tempo": 120.0
            },
            {
                "start_time": 26.0863636,
                "end_time": 26.8590909,
                "pitch": 83,
                "velocity": 51,
                "duration": 0.7727273,
                "tempo": 120.0
            },
            {
                "start_time": 26.8931818,
                "end_time": 29.2727273,
                "pitch": 88,
                "velocity": 51,
                "duration": 2.3795455,
                "tempo": 120.0
            },
            {
                "start_time": 29.3068182,
                "end_time": 29.6795455,
                "pitch": 86,
                "velocity": 51,
                "duration": 0.3727273,
                "tempo": 120.0
            },
            {
                "start_time": 29.7113636,
                "end_time": 30.0818182,
                "pitch": 83,
                "velocity": 51,
                "duration": 0.3704545,
                "tempo": 120.0
            },
            {
                "start_time": 30.1136364,
                "end_time": 31.6840909,
                "pitch": 81,
                "velocity": 51,
                "duration": 1.5704545,
                "tempo": 120.0
            },
            {
                "start_time": 31.7181818,
                "end_time": 32.4954545,
                "pitch": 86,
                "velocity": 51,
                "duration": 0.7772727,
                "tempo": 120.0
            },
            {
                "start_time": 32.5295455,
                "end_time": 33.3045455,
                "pitch": 88,
                "velocity": 51,
                "duration": 0.775,
                "tempo": 120.0
            },
            {
                "start_time": 33.3386364,
                "end_time": 35.725,
                "pitch": 90,
                "velocity": 51,
                "duration": 2.3863636,
                "tempo": 120.0
            },
            {
                "start_time": 35.7568182,
                "end_time": 36.125,
                "pitch": 90,
                "velocity": 51,
                "duration": 0.3681818,
                "tempo": 120.0
            },
            {
                "start_time": 36.1568182,
                "end_time": 36.525,
                "pitch": 86,
                "velocity": 51,
                "duration": 0.3681818,
                "tempo": 120.0
            },
            {
                "start_time": 36.5568182,
                "end_time": 38.9386364,
                "pitch": 81,
                "velocity": 51,
                "duration": 2.3818182,
                "tempo": 120.0
            },
            {
                "start_time": 38.9727273,
                "end_time": 39.3431818,
                "pitch": 81,
                "velocity": 51,
                "duration": 0.3704545,
                "tempo": 120.0
            },
            {
                "start_time": 39.3772727,
                "end_time": 39.75,
                "pitch": 88,
                "velocity": 51,
                "duration": 0.3727273,
                "tempo": 120.0
            },
            {
                "start_time": 39.7818182,
                "end_time": 42.1681818,
                "pitch": 76,
                "velocity": 51,
                "duration": 2.3863636,
                "tempo": 120.0
            },
            {
                "start_time": 42.2,
                "end_time": 42.5681818,
                "pitch": 86,
                "velocity": 51,
                "duration": 0.3681818,
                "tempo": 120.0
            },
            {
                "start_time": 42.6,
                "end_time": 42.9704545,
                "pitch": 88,
                "velocity": 51,
                "duration": 0.3704545,
                "tempo": 120.0
            },
            {
                "start_time": 43.0045455,
                "end_time": 43.7818182,
                "pitch": 86,
                "velocity": 51,
                "duration": 0.7772727,
                "tempo": 120.0
            },
            {
                "start_time": 43.8159091,
                "end_time": 44.5886364,
                "pitch": 83,
                "velocity": 51,
                "duration": 0.7727273,
                "tempo": 120.0
            },
            {
                "start_time": 44.6227273,
                "end_time": 45.3886364,
                "pitch": 81,
                "velocity": 51,
                "duration": 0.7659091,
                "tempo": 120.0
            },
            {
                "start_time": 45.4227273,
                "end_time": 46.1863636,
                "pitch": 83,
                "velocity": 51,
                "duration": 0.7636364,
                "tempo": 120.0
            },
            {
                "start_time": 46.2181818,
                "end_time": 51.0295455,
                "pitch": 74,
                "velocity": 51,
                "duration": 4.8113636,
                "tempo": 120.0
            },
            {
                "start_time": 51.0613636,
                "end_time": 51.8181818,
                "pitch": 81,
                "velocity": 51,
                "duration": 0.7568182,
                "tempo": 120.0
            },
            {
                "start_time": 51.85,
                "end_time": 52.3454545,
                "pitch": 83,
                "velocity": 51,
                "duration": 0.4954545,
                "tempo": 120.0
            }
        ]
    }
}