{
    "mood": "sad",
    "instruments": {
        "Clarinet": [
            {
                "start_time": 0.0,
                "end_time": 2.3568182,
                "pitch": 52,
                "velocity": 64,
                "duration": 2.3568182,
                "tempo": 120.0
            },
            {
                "start_time": 2.3909091,
                "end_time": 3.1477273,
                "pitch": 52,
                "velocity": 64,
                "duration": 0.7568182,
                "tempo": 120.0
            },
            {
                "start_time": 3.1795455,
                "end_time": 6.3477273,
                "pitch": 52,
                "velocity": 64,
                "duration": 3.1681818,
                "tempo": 120.0
            },
            {
                "start_time": 6.3795455,
                "end_time": 8.7681818,
                "pitch": 52,
                "velocity": 64,
                "duration": 2.3886364,
                "tempo": 120.0
            },
            {
                "start_time": 8.8022727,
                "end_time": 9.5681818,
                "pitch": 52,
                "velocity": 64,
                "duration": 0.7659091,
                "tempo": 120.0
            },
            {
                "start_time": 9.6022727,
                "end_time": 12.7886364,
                "pitch": 52,
                "velocity": 64,
                "duration": 3.1863636,
                "tempo": 120.0
            },
            {
                "start_time": 12.8227273,
                "end_time": 15.2113636,
                "pitch": 53,
                "velocity": 64,
                "duration": 2.3886364,
                "tempo": 120.0
            },
            {
                "start_time": 15.2431818,
                "end_time": 15.9909091,
                "pitch": 53,
                "velocity": 64,
                "duration": 0.7477273,
                "tempo": 120.0
            },
            {
                "start_time": 16.0227273,
                "end_time": 19.2318182,
                "pitch": 53,
                "velocity": 64,
                "duration": 3.2090909,
                "tempo": 120.0
            },
            {
                "start_time": 19.2659091,
                "end_time": 21.6545455,
                "pitch": 53,
                "velocity": 64,
                "duration": 2.3886364,
                "tempo": 120.0
            },
            {
                "start_time": 21.6863636,
                "end_time": 22.4545455,
                "pitch": 53,
                "velocity": 64,
                "duration": 0.7681818,
                "tempo": 120.0
            },
            {
                "start_time": 22.4863636,
                "end_time": 25.6318182,
                "pitch": 53,
                "velocity": 64,
                "duration": 3.1454545,
                "tempo": 120.0
            },
            {
                "start_time": 25.6636364,
                "end_time": 28.0977273,
                "pitch": 52,
                "velocity": 64,
                "duration": 2.4340909,
                "tempo": 120.0
            },
            {
                "start_time": 28.1318182,
                "end_time": 28.8977273,
                "pitch": 52,
                "velocity": 64,
                "duration": 0.7659091,
                "tempo": 120.0
            },
            {
                "start_time": 28.9318182,
                "end_time": 32.1204545,
                "pitch": 52,
                "velocity": 64,
                "duration": 3.1886364,
                "tempo": 120.0
            },
            {
                "start_time": 32.1522727,
                "end_time": 34.5522727,
                "pitch": 52,
                "velocity": 64,
                "duration": 2.4,
                "tempo": 120.0
            },
            {
                "start_time": 34.5863636,
                "end_time": 35.3613636,
                "pitch": 52,
                "velocity": 64,
                "duration": 0.775,
                "tempo": 120.0
            },
            {
                "start_time": 35.3954545,
                "end_time": 38.5840909,
                "pitch": 52,
                "velocity": 64,
                "duration": 3.1886364,
                "tempo": 120.0
            },
            {
                "start_time": 38.6181818,
                "end_time": 41.0159091,
                "pitch": 53,
                "velocity": 64,
                "duration": 2.3977273,
                "tempo": 120.0
            },
            {
                "start_time": 41.05,
                "end_time": 41.8272727,
                "pitch": 53,
                "velocity": 64,
                "duration": 0.7772727,
                "tempo": 120.0
            },
            {
                "start_time": 41.8613636,
                "end_time": 45.0704545,
                "pitch": 53,
                "velocity": 64,
                "duration": 3.2090909,
                "tempo": 120.0
            },
            {
                "start_time": 45.1045455,
                "end_time": 47.4818182,
                "pitch": 53,
                "velocity": 64,
                "duration": 2.3772727,
                "tempo": 120.0
            },
            {
                "start_time": 47.5159091,
                "end_time": 48.2931818,
                "pitch": 53,
                "velocity": 64,
                "duration": 0.7772727,
                "tempo": 120.0
            },
            {
                "start_time": 48.325,
                "end_time": 51.5363636,
                "pitch": 53,
                "velocity": 64,
                "duration": 3.2113636,
                "tempo": 120.0
            }
        ],
        "Acoustic Bass": [
            {
                "start_time": 0.0,
                "end_time": 2.3568182,
                "pitch": 59,
                "velocity": 51,
                "duration": 2.3568182,
                "tempo": 120.0
            },
            {
                "start_time": 2.3909091,
                "end_time": 3.1477273,
                "pitch": 59,
                "velocity": 51,
                "duration": 0.7568182,
                "tempo": 120.0
            },
            {
                "start_time": 3.1795455,
                "end_time": 6.3477273,
                "pitch": 59,
                "velocity": 51,
                "duration": 3.1681818,
                "tempo": 120.0
            },
            {
                "start_time": 6.3795455,
                "end_time": 8.7681818,
                "pitch": 59,
                "velocity": 51,
                "duration": 2.3886364,
                "tempo": 120.0
            },
            {
                "start_time": 8.8022727,
                "end_time": 9.5681818,
                "pitch": 59,
                "velocity": 51,
                "duration": 0.7659091,
                "tempo": 120.0
            },
            {
                "start_time": 9.6022727,
                "end_time": 12.7886364,
                "pitch": 59,
                "velocity": 51,
                "duration": 3.1863636,
                "tempo": 120.0
            },
            {
                "start_time": 12.8227273,
                "end_time": 15.2113636,
                "pitch": 60,
                "velocity": 51,
                "duration": 2.3886364,
                "tempo": 120.0
            },
            {
                "start_time": 15.2431818,
                "end_time": 15.9909091,
                "pitch": 60,
                "velocity": 51,
                "duration": 0.7477273,
                "tempo": 120.0
            },
            {
                "start_time": 16.0227273,
                "end_time": 19.2318182,
                "pitch": 60,
                "velocity": 51,
                "duration": 3.2090909,
                "tempo": 120.0
            },
            {
                "start_time": 19.2659091,
                "end_time": 21.6545455,
                "pitch": 60,
                "velocity": 51,
                "duration": 2.3886364,
                "tempo": 120.0
            },
            {
                "start_time": 21.6863636,
                "end_time": 22.4545455,
                "pitch": 60,
                "velocity": 51,
                "duration": 0.7681818,
                "tempo": 120.0
            },
            {
                "start_time": 22.4863636,
                "end_time": 25.6318182,
                "pitch": 60,
                "velocity": 51,
                "duration": 3.1454545,
                "tempo": 120.0
            },
            {
                "start_time": 25.6636364,
                "end_time": 28.0977273,
                "pitch": 59,
                "velocity": 51,
                "duration": 2.4340909,
                "tempo": 120.0
            },
            {
                "start_time": 28.1318182,
                "end_time": 28.8977273,
                "pitch": 59,
                "velocity": 51,
                "duration": 0.7659091,
                "tempo": 120.0
            },
            {
                "start_time": 28.9318182,
                "end_time": 32.1204545,
                "pitch": 59,
                "velocity": 51,
                "duration": 3.1886364,
                "tempo": 120.0
            },
            {
                "start_time": 32.1522727,
                "end_time": 34.5522727,
                "pitch": 59,
                "velocity": 51,
                "duration": 2.4,
                "tempo": 120.0
            },
            {
                "start_time": 34.5863636,
                "end_time": 35.3613636,
                "pitch": 59,
                "velocity": 51,
                "duration": 0.775,
                "tempo": 120.0
            },
            {
                "start_time": 35.3954545,
                "end_time": 38.5840909,
                "pitch": 59,
                "velocity": 51,
                "duration": 3.1886364,
                "tempo": 120.0
            },
            {
                "start_time": 38.6181818,
                "end_time": 41.0159091,
                "pitch": 60,
                "velocity": 51,
                "duration": 2.3977273,
                "tempo": 120.0
            },
            {
                "start_time": 41.05,
                "end_time": 41.8272727,
                "pitch": 60,
                "velocity": 51,
                "duration": 0.7772727,
                "tempo": 120.0
            },
            {
                "start_time": 41.8613636,
                "end_time": 45.0704545,
                "pitch": 60,
                "velocity": 51,
                "duration": 3.2090909,
                "tempo": 120.0
            },
            {
                "start_time": 45.1045455,
                "end_time": 47.4818182,
                "pitch": 60,
                "velocity": 51,
                "duration": 2.3772727,
                "tempo": 120.0
            },
            {
                "start_time": 47.5159091,
                "end_time": 48.2931818,
                "pitch": 60,
                "velocity": 51,
                "duration": 0.7772727,
                "tempo": 120.0
            },
            {
                "start_time": 48.325,
                "end_time": 51.5363636,
                "pitch": 60,
                "velocity": 51,
                "duration": 3.2113636,
                "tempo": 120.0
            }
        ],
        "Acoustic Grand Piano": [
            {
                "start_time": 0.0,
                "end_time": 0.0818182,
                "pitch": 45,
                "velocity": 51,
                "duration": 0.0818182,
                "tempo": 120.0
            },
            {
                "start_time": 0.1136364,
                "end_time": 0.35,
                "pitch": 45,
                "velocity": 51,
                "duration": 0.2363636,
                "tempo": 120.0
            },
            {
                "start_time": 0.3840909,
                "end_time": 0.7568182,
                "pitch": 76,
                "velocity": 51,
                "duration": 0.3727273,
                "tempo": 120.0
            },
            {
                "start_time": 0.7909091,
                "end_time": 1.1613636,
                "pitch": 88,
                "velocity": 51,
                "duration": 0.3704545,
                "tempo": 120.0
            },
            {
                "start_time": 1.1954545,
                "end_time": 1.5681818,
                "pitch": 86,
                "velocity": 51,
                "duration": 0.3727273,
                "tempo": 120.0
            },
            {
                "start_time": 1.6,
                "end_time": 6.7522727,
                "pitch": 83,
                "velocity": 51,
                "duration": 5.1522727,
                "tempo": 120.0
            },
            {
                "start_time": 6.7863636,
                "end_time": 7.1568182,
                "pitch": 74,
                "velocity": 51,
                "duration": 0.3704545,
                "tempo": 120.0
            },
            {
                "start_time": 7.1909091,
                "end_time": 13.2,
                "pitch": 76,
                "velocity": 51,
                "duration": 6.0090909,
                "tempo": 120.0
            },
            {
                "start_time": 13.2340909,
                "end_time": 13.6090909,
                "pitch": 65,
                "velocity": 51,
                "duration": 0.375,
                "tempo": 120.0
            },
            {
                "start_time": 13.6431818,
                "end_time": 14.0204545,
                "pitch": 70,
                "velocity": 51,
                "duration": 0.3772727,
                "tempo": 120.0
            },
            {
                "start_time": 14.0545455,
                "end_time": 14.4318182,
                "pitch": 72,
                "velocity": 51,
                "duration": 0.3772727,
                "tempo": 120.0
            },
            {
                "start_time": 14.4636364,
                "end_time": 14.8204545,
                "pitch": 75,
                "velocity": 51,
                "duration": 0.3568182,
                "tempo": 120.0
            },
            {
                "start_time": 14.8545455,
                "end_time": 15.2113636,
                "pitch": 75,
                "velocity": 51,
                "duration": 0.3568182,
                "tempo": 120.0
            },
            {
                "start_time": 15.2431818,
                "end_time": 19.6363636,
                "pitch": 77,
                "velocity": 51,
                "duration": 4.3931818,
                "tempo": 120.0
            },
            {
                "start_time": 26.0818182,
                "end_time": 26.4636364,
                "pitch": 76,
                "velocity": 51,
                "duration": 0.3818182,
                "tempo": 120.0
            },
            {
                "start_time": 26.4977273,
                "end_time": 26.8795455,
                "pitch": 88,
                "velocity": 51,
                "duration": 0.3818182,
                "tempo": 120.0
            },
            {
                "start_time": 26.9136364,
                "end_time": 27.2977273,
                "pitch": 86,
                "velocity": 51,
                "duration": 0.3840909,
                "tempo": 120.0
            },
            {
                "start_time": 27.3318182,
                "end_time": 32.525,
                "pitch": 83,
                "velocity": 51,
                "duration": 5.1931818,
                "tempo": 120.0
            },
            {
                "start_time": 32.5590909,
                "end_time": 32.9295455,
                "pitch": 74,
                "velocity": 51,
                "duration": 0.3704545,
                "tempo": 120.0
            },
            {
                "start_time": 32.9636364,
                "end_time": 38.9886364,
                "pitch": 76,
                "velocity": 51,
                "duration": 6.025,
                "tempo": 120.0
            },
            {
                "start_time": 39.0227273,
                "end_time": 39.3954545,
                "pitch": 65,
                "velocity": 51,
                "duration": 0.3727273,
                "tempo": 120.0
            },
            {
                "start_time": 39.4295455,
                "end_time": 39.8,
                "pitch": 70,
                "velocity": 51,
                "duration": 0.3704545,
                "tempo": 120.0
            },
            {
                "start_time": 39.8340909,
                "end_time": 40.2045455,
                "pitch": 72,
                "velocity": 51,
                "duration": 0.3704545,
                "tempo": 120.0
            },
            {
                "start_time": 40.2386364,
                "end_time": 40.6113636,
                "pitch": 75,
                "velocity": 51,
                "duration": 0.3727273,
                "tempo": 120.0
            },
            {
                "start_time": 40.6454545,
                "end_time": 41.0159091,
                "pitch": 75,
                "velocity": 51,
                "duration": 0.3704545,
                "tempo": 120.0
            },
            {
                "start_time": 41.05,
                "end_time": 45.4704545,
                "pitch": 77,
                "velocity": 51,
                "duration": 4.4204545,
                "tempo": 120.0
            }
        ]
    }
}