{
    "mood": "sad",
    "instruments": {
        "Trumpet": [
            {
                "start_time": 0.0159091,
                "end_time": 1.5454545,
                "pitch": 82,
                "velocity": 64,
                "duration": 1.5295455,
                "tempo": 120.0
            },
            {
                "start_time": 1.5795455,
                "end_time": 1.9318182,
                "pitch": 75,
                "velocity": 64,
                "duration": 0.3522727,
                "tempo": 120.0
            },
            {
                "start_time": 1.9636364,
                "end_time": 2.3159091,
                "pitch": 77,
                "velocity": 64,
                "duration": 0.3522727,
                "tempo": 120.0
            },
            {
                "start_time": 2.3477273,
                "end_time": 2.7,
                "pitch": 78,
                "velocity": 64,
                "duration": 0.3522727,
                "tempo": 120.0
            },
            {
                "start_time": 2.7318182,
                "end_time": 3.0840909,
                "pitch": 80,
                "velocity": 64,
                "duration": 0.3522727,
                "tempo": 120.0
            },
            {
                "start_time": 3.1181818,
                "end_time": 4.2840909,
                "pitch": 83,
                "velocity": 64,
                "duration": 1.1659091,
                "tempo": 120.0
            },
            {
                "start_time": 4.3181818,
                "end_time": 4.6840909,
                "pitch": 82,
                "velocity": 64,
                "duration": 0.3659091,
                "tempo": 120.0
            },
            {
                "start_time": 4.7181818,
                "end_time": 5.4840909,
                "pitch": 82,
                "velocity": 64,
                "duration": 0.7659091,
                "tempo": 120.0
            },
            {
                "start_time": 5.5181818,
                "end_time": 6.2840909,
                "pitch": 80,
                "velocity": 64,
                "duration": 0.7659091,
                "tempo": 120.0
            },
            {
                "start_time": 6.3181818,
                "end_time": 7.1068182,
                "pitch": 78,
                "velocity": 64,
                "duration": 0.7886364,
                "tempo": 120.0
            },
            {
                "start_time": 7.1409091,
                "end_time": 7.5181818,
                "pitch": 80,
                "velocity": 64,
                "duration": 0.3772727,
                "tempo": 120.0
            },
            {
                "start_time": 7.5522727,
                "end_time": 7.9272727,
                "pitch": 78,
                "velocity": 64,
                "duration": 0.375,
                "tempo": 120.0
            },
            {
                "start_time": 7.9613636,
                "end_time": 8.7386364,
                "pitch": 77,
                "velocity": 64,
                "duration": 0.7772727,
                "tempo": 120.0
            },
            {
                "start_time": 8.7727273,
                "end_time": 9.1454545,
                "pitch": 75,
                "velocity": 64,
                "duration": 0.3727273,
                "tempo": 120.0
            },
            {
                "start_time": 9.1795455,
                "end_time": 9.55,
                "pitch": 74,
                "velocity": 64,
                "duration": 0.3704545,
                "tempo": 120.0
            },
            {
                "start_time": 9.5840909,
                "end_time": 10.35,
                "pitch": 75,
                "velocity": 64,
                "duration": 0.7659091,
                "tempo": 120.0
            },
            {
                "start_time": 10.3840909,
                "end_time": 11.15,
                "pitch": 70,
                "velocity": 64,
                "duration": 0.7659091,
                "tempo": 120.0
            },
            {
                "start_time": 11.1840909,
                "end_time": 11.9295455,
                "pitch": 68,
                "velocity": 64,
                "duration": 0.7454545,
                "tempo": 120.0
            },
            {
                "start_time": 11.9636364,
                "end_time": 12.7090909,
                "pitch": 66,
                "velocity": 64,
                "duration": 0.7454545,
                "tempo": 120.0
            },
            {
                "start_time": 12.7431818,
                "end_time": 15.9090909,
                "pitch": 63,
                "velocity": 64,
                "duration": 3.1659091,
                "tempo": 120.0
            }
        ],
        "Oboe": [
            {
                "start_time": 0.0159091,
                "end_time": 3.0840909,
                "pitch": 63,
                "velocity": 51,
                "duration": 3.0681818,
                "tempo": 120.0
            },
            {
                "start_time": 3.1181818,
                "end_time": 6.2840909,
                "pitch": 65,
                "velocity": 51,
                "duration": 3.1659091,
                "tempo": 120.0
            },
            {
                "start_time": 6.3181818,
                "end_time": 7.9272727,
                "pitch": 59,
                "velocity": 51,
                "duration": 1.6090909,
                "tempo": 120.0
            },
            {
                "start_time": 7.9613636,
                "end_time": 9.55,
                "pitch": 58,
                "velocity": 51,
                "duration": 1.5886364,
                "tempo": 120.0
            },
            {
                "start_time": 9.5840909,
                "end_time": 12.7090909,
                "pitch": 63,
                "velocity": 51,
                "duration": 3.125,
                "tempo": 120.0
            },
            {
                "start_time": 12.7431818,
                "end_time": 15.9090909,
                "pitch": 63,
                "velocity": 51,
                "duration": 3.1659091,
                "tempo": 120.0
            }
        ],
        "Harpsichord": [
            {
                "start_time": 0.0159091,
                "end_time": 3.0840909,
                "pitch": 51,
                "velocity": 40,
                "duration": 3.0681818,
                "tempo": 120.0
            },
            {
                "start_time": 3.1181818,
                "end_time": 6.2840909,
                "pitch": 53,
                "velocity": 40,
                "duration": 3.1659091,
                "tempo": 120.0
            },
            {
                "start_time": 6.3181818,
                "end_time": 7.9272727,
                "pitch": 47,
                "velocity": 40,
                "duration": 1.6090909,
                "tempo": 120.0
            },
            {
                "start_time": 7.9613636,
                "end_time": 9.55,
                "pitch": 46,
                "velocity": 40,
                "duration": 1.5886364,
                "tempo": 120.0
            },
            {
                "start_time": 9.5840909,
                "end_time": 12.7090909,
                "pitch": 51,
                "velocity": 40,
                "duration": 3.125,
                "tempo": 120.0
            }
        ]
    }
}