{
    "mood": "sad",
    "instruments": {
        "Vibraphone": [
            {
                "start_time": 0.0,
                "end_time": 0.1477273,
                "pitch": 71,
                "velocity": 51,
                "duration": 0.1477273,
                "tempo": 120.0
            },
            {
                "start_time": 0.1590909,
                "end_time": 0.3068182,
                "pitch": 68,
                "velocity": 51,
                "duration": 0.1477273,
                "tempo": 120.0
            },
            {
                "start_time": 0.3204545,
                "end_time": 0.4659091,
                "pitch": 71,
                "velocity": 51,
                "duration": 0.1454545,
                "tempo": 120.0
            },
            {
                "start_time": 0.4795455,
                "end_time": 0.6272727,
                "pitch": 70,
                "velocity": 51,
                "duration": 0.1477273,
                "tempo": 120.0
            },
            {
                "start_time": 0.6409091,
                "end_time": 1.0136364,
                "pitch": 66,
                "velocity": 51,
                "duration": 0.3727273,
                "tempo": 120.0
            },
            {
                "start_time": 1.0477273,
                "end_time": 1.4204545,
                "pitch": 70,
                "velocity": 51,
                "duration": 0.3727273,
                "tempo": 120.0
            },
            {
                "start_time": 1.4545455,
                "end_time": 1.8272727,
                "pitch": 66,
                "velocity": 51,
                "duration": 0.3727273,
                "tempo": 120.0
            },
            {
                "start_time": 1.8613636,
                "end_time": 2.2340909,
                "pitch": 68,
                "velocity": 51,
                "duration": 0.3727273,
                "tempo": 120.0
            },
            {
                "start_time": 2.2681818,
                "end_time": 2.6409091,
                "pitch": 66,
                "velocity": 51,
                "duration": 0.3727273,
                "tempo": 120.0
            },
            {
                "start_time": 2.6727273,
                "end_time": 3.8409091,
                "pitch": 61,
                "velocity": 51,
                "duration": 1.1681818,
                "tempo": 120.0
            },
            {
                "start_time": 3.8727273,
                "end_time": 4.6409091,
                "pitch": 59,
                "velocity": 51,
                "duration": 0.7681818,
                "tempo": 120.0
            },
            {
                "start_time": 4.6727273,
                "end_time": 8.6409091,
                "pitch": 64,
                "velocity": 51,
                "duration": 3.9681818,
                "tempo": 120.0
            }
        ],
        "Acoustic Grand Piano": [
            {
                "start_time": 0.0,
                "end_time": 0.1477273,
                "pitch": 52,
                "velocity": 51,
                "duration": 0.1477273,
                "tempo": 120.0
            },
            {
                "start_time": 0.1590909,
                "end_time": 0.3068182,
                "pitch": 49,
                "velocity": 51,
                "duration": 0.1477273,
                "tempo": 120.0
            },
            {
                "start_time": 0.3204545,
                "end_time": 0.4659091,
                "pitch": 52,
                "velocity": 51,
                "duration": 0.1454545,
                "tempo": 120.0
            },
            {
                "start_time": 0.4795455,
                "end_time": 0.6272727,
                "pitch": 51,
                "velocity": 51,
                "duration": 0.1477273,
                "tempo": 120.0
            },
            {
                "start_time": 0.6409091,
                "end_time": 1.0136364,
                "pitch": 48,
                "velocity": 51,
                "duration": 0.3727273,
                "tempo": 120.0
            },
            {
                "start_time": 1.0477273,
                "end_time": 1.4204545,
                "pitch": 51,
                "velocity": 51,
                "duration": 0.3727273,
                "tempo": 120.0
            },
            {
                "start_time": 1.4545455,
                "end_time": 1.8272727,
                "pitch": 48,
                "velocity": 51,
                "duration": 0.3727273,
                "tempo": 120.0
            },
            {
                "start_time": 1.8613636,
                "end_time": 2.2340909,
                "pitch": 49,
                "velocity": 51,
                "duration": 0.3727273,
                "tempo": 120.0
            },
            {
                "start_time": 2.2681818,
                "end_time": 2.6409091,
                "pitch": 48,
                "velocity": 51,
                "duration": 0.3727273,
                "tempo": 120.0
            },
            {
                "start_time": 2.6727273,
                "end_time": 3.8409091,
                "pitch": 44,
                "velocity": 51,
                "duration": 1.1681818,
                "tempo": 120.0
            },
            {
                "start_time": 3.8727273,
                "end_time": 4.6409091,
                "pitch": 44,
                "velocity": 51,
                "duration": 0.7681818,
                "tempo": 120.0
            },
            {
                "start_time": 4.6727273,
                "end_time": 8.6409091,
                "pitch": 49,
                "velocity": 51,
                "duration": 3.9681818,
                "tempo": 120.0
            }
        ]
    }
}