{
    "mood": "sad",
    "instruments": {
        "Acoustic Bass": [
            {
                "start_time": 0.0,
                "end_time": 0.8318182,
                "pitch": 34,
                "velocity": 80,
                "duration": 0.8318182,
                "tempo": 120.0
            },
            {
                "start_time": 0.8477273,
                "end_time": 1.7272727,
                "pitch": 32,
                "velocity": 80,
                "duration": 0.8795455,
                "tempo": 120.0
            },
            {
                "start_time": 1.7431818,
                "end_time": 2.6363636,
                "pitch": 30,
                "velocity": 80,
                "duration": 0.8931818,
                "tempo": 120.0
            },
            {
                "start_time": 2.6545455,
                "end_time": 3.5318182,
                "pitch": 32,
                "velocity": 80,
                "duration": 0.8772727,
                "tempo": 120.0
            },
            {
                "start_time": 3.55,
                "end_time": 4.4522727,
                "pitch": 34,
                "velocity": 80,
                "duration": 0.9022727,
                "tempo": 120.0
            },
            {
                "start_time": 4.4681818,
                "end_time": 5.3386364,
                "pitch": 32,
                "velocity": 80,
                "duration": 0.8704545,
                "tempo": 120.0
            },
            {
                "start_time": 5.3545455,
                "end_time": 6.2568182,
                "pitch": 30,
                "velocity": 80,
                "duration": 0.9022727,
                "tempo": 120.0
            },
            {
                "start_time": 6.275,
                "end_time": 7.1431818,
                "pitch": 32,
                "velocity": 80,
                "duration": 0.8681818,
                "tempo": 120.0
            },
            {
                "start_time": 7.1590909,
                "end_time": 8.0636364,
                "pitch": 34,
                "velocity": 80,
                "duration": 0.9045455,
                "tempo": 120.0
            },
            {
                "start_time": 8.0795455,
                "end_time": 8.9477273,
                "pitch": 32,
                "velocity": 80,
                "duration": 0.8681818,
                "tempo": 120.0
            },
            {
                "start_time": 8.9659091,
                "end_time": 9.8681818,
                "pitch": 30,
                "velocity": 80,
                "duration": 0.9022727,
                "tempo": 120.0
            },
            {
                "start_time": 9.8840909,
                "end_time": 10.7545455,
                "pitch": 32,
                "velocity": 80,
                "duration": 0.8704545,
                "tempo": 120.0
            },
            {
                "start_time": 10.7704545,
                "end_time": 11.6636364,
                "pitch": 34,
                "velocity": 80,
                "duration": 0.8931818,
                "tempo": 120.0
            },
            {
                "start_time": 11.6795455,
                "end_time": 12.5590909,
                "pitch": 32,
                "velocity": 80,
                "duration": 0.8795455,
                "tempo": 120.0
            },
            {
                "start_time": 12.575,
                "end_time": 13.4681818,
                "pitch": 30,
                "velocity": 80,
                "duration": 0.8931818,
                "tempo": 120.0
            },
            {
                "start_time": 13.4863636,
                "end_time": 14.3636364,
                "pitch": 32,
                "velocity": 80,
                "duration": 0.8772727,
                "tempo": 120.0
            },
            {
                "start_time": 14.3818182,
                "end_time": 15.2840909,
                "pitch": 34,
                "velocity": 80,
                "duration": 0.9022727,
                "tempo": 120.0
            },
            {
                "start_time": 15.3,
                "end_time": 16.1704545,
                "pitch": 32,
                "velocity": 80,
                "duration": 0.8704545,
                "tempo": 120.0
            },
            {
                "start_time": 16.1863636,
                "end_time": 17.0795455,
                "pitch": 30,
                "velocity": 80,
                "duration": 0.8931818,
                "tempo": 120.0
            },
            {
                "start_time": 17.0954545,
                "end_time": 17.975,
                "pitch": 32,
                "velocity": 80,
                "duration": 0.8795455,
                "tempo": 120.0
            },
            {
                "start_time": 17.9909091,
                "end_time": 18.8772727,
                "pitch": 34,
                "velocity": 80,
                "duration": 0.8863636,
                "tempo": 120.0
            },
            {
                "start_time": 18.9113636,
                "end_time": 19.7863636,
                "pitch": 32,
                "velocity": 80,
                "duration": 0.875,
                "tempo": 120.0
            },
            {
                "start_time": 19.7863636,
                "end_time": 20.6818182,
                "pitch": 30,
                "velocity": 80,
                "duration": 0.8954545,
                "tempo": 120.0
            },
            {
                "start_time": 20.7159091,
                "end_time": 21.5818182,
                "pitch": 32,
                "velocity": 80,
                "duration": 0.8659091,
                "tempo": 120.0
            },
            {
                "start_time": 21.5818182,
                "end_time": 22.4886364,
                "pitch": 34,
                "velocity": 80,
                "duration": 0.9068182,
                "tempo": 120.0
            },
            {
                "start_time": 22.5204545,
                "end_time": 23.3977273,
                "pitch": 32,
                "velocity": 80,
                "duration": 0.8772727,
                "tempo": 120.0
            },
            {
                "start_time": 23.3977273,
                "end_time": 24.2931818,
                "pitch": 30,
                "velocity": 80,
                "duration": 0.8954545,
                "tempo": 120.0
            },
            {
                "start_time": 24.3272727,
                "end_time": 25.2045455,
                "pitch": 32,
                "velocity": 80,
                "duration": 0.8772727,
                "tempo": 120.0
            },
            {
                "start_time": 25.2045455,
                "end_time": 26.1,
                "pitch": 34,
                "velocity": 80,
                "duration": 0.8954545,
                "tempo": 120.0
            },
            {
                "start_time": 26.1318182,
                "end_time": 27.0090909,
                "pitch": 32,
                "velocity": 80,
                "duration": 0.8772727,
                "tempo": 120.0
            },
            {
                "start_time": 27.0090909,
                "end_time": 27.9045455,
                "pitch": 30,
                "velocity": 80,
                "duration": 0.8954545,
                "tempo": 120.0
            },
            {
                "start_time": 27.9386364,
                "end_time": 28.8159091,
                "pitch": 32,
                "velocity": 80,
                "duration": 0.8772727,
                "tempo": 120.0
            },
            {
                "start_time": 28.8159091,
                "end_time": 29.7113636,
                "pitch": 34,
                "velocity": 80,
                "duration": 0.8954545,
                "tempo": 120.0
            },
            {
                "start_time": 29.7431818,
                "end_time": 30.6204545,
                "pitch": 32,
                "velocity": 80,
                "duration": 0.8772727,
                "tempo": 120.0
            },
            {
                "start_time": 30.6204545,
                "end_time": 31.5159091,
                "pitch": 30,
                "velocity": 80,
                "duration": 0.8954545,
                "tempo": 120.0
            },
            {
                "start_time": 31.5477273,
                "end_time": 32.425,
                "pitch": 32,
                "velocity": 80,
                "duration": 0.8772727,
                "tempo": 120.0
            },
            {
                "start_time": 32.425,
                "end_time": 33.3204545,
                "pitch": 34,
                "velocity": 80,
                "duration": 0.8954545,
                "tempo": 120.0
            },
            {
                "start_time": 33.3545455,
                "end_time": 34.2318182,
                "pitch": 32,
                "velocity": 80,
                "duration": 0.8772727,
                "tempo": 120.0
            },
            {
                "start_time": 34.2318182,
                "end_time": 35.1272727,
                "pitch": 30,
                "velocity": 80,
                "duration": 0.8954545,
                "tempo": 120.0
            },
            {
                "start_time": 35.1590909,
                "end_time": 36.0363636,
                "pitch": 32,
                "velocity": 80,
                "duration": 0.8772727,
                "tempo": 120.0
            },
            {
                "start_time": 36.0363636,
                "end_time": 36.9318182,
                "pitch": 34,
                "velocity": 80,
                "duration": 0.8954545,
                "tempo": 120.0
            },
            {
                "start_time": 36.9636364,
                "end_time": 37.8409091,
                "pitch": 32,
                "velocity": 80,
                "duration": 0.8772727,
                "tempo": 120.0
            },
            {
                "start_time": 37.8409091,
                "end_time": 38.7363636,
                "pitch": 30,
                "velocity": 80,
                "duration": 0.8954545,
                "tempo": 120.0
            },
            {
                "start_time": 38.7704545,
                "end_time": 39.6363636,
                "pitch": 32,
                "velocity": 80,
                "duration": 0.8659091,
                "tempo": 120.0
            },
            {
                "start_time": 39.6363636,
                "end_time": 40.5431818,
                "pitch": 34,
                "velocity": 80,
                "duration": 0.9068182,
                "tempo": 120.0
            },
            {
                "start_time": 40.575,
                "end_time": 41.4522727,
                "pitch": 32,
                "velocity": 80,
                "duration": 0.8772727,
                "tempo": 120.0
            },
            {
                "start_time": 41.4522727,
                "end_time": 42.3477273,
                "pitch": 30,
                "velocity": 80,
                "duration": 0.8954545,
                "tempo": 120.0
            },
            {
                "start_time": 42.3818182,
                "end_time": 43.2568182,
                "pitch": 32,
                "velocity": 80,
                "duration": 0.875,
                "tempo": 120.0
            },
            {
                "start_time": 43.2568182,
                "end_time": 44.1522727,
                "pitch": 34,
                "velocity": 80,
                "duration": 0.8954545,
                "tempo": 120.0
            },
            {
                "start_time": 44.1863636,
                "end_time": 45.0636364,
                "pitch": 32,
                "velocity": 80,
                "duration": 0.8772727,
                "tempo": 120.0
            },
            {
                "start_time": 45.0636364,
                "end_time": 45.9590909,
                "pitch": 30,
                "velocity": 80,
                "duration": 0.8954545,
                "tempo": 120.0
            },
            {
                "start_time": 45.9909091,
                "end_time": 46.8681818,
                "pitch": 32,
                "velocity": 80,
                "duration": 0.8772727,
                "tempo": 120.0
            },
            {
                "start_time": 46.8681818,
                "end_time": 47.7636364,
                "pitch": 34,
                "velocity": 80,
                "duration": 0.8954545,
                "tempo": 120.0
            },
            {
                "start_time": 47.7977273,
                "end_time": 48.675,
                "pitch": 32,
                "velocity": 80,
                "duration": 0.8772727,
                "tempo": 120.0
            },
            {
                "start_time": 48.675,
                "end_time": 49.5704545,
                "pitch": 30,
                "velocity": 80,
                "duration": 0.8954545,
                "tempo": 120.0
            },
            {
                "start_time": 49.6022727,
                "end_time": 50.4795455,
                "pitch": 32,
                "velocity": 80,
                "duration": 0.8772727,
                "tempo": 120.0
            },
            {
                "start_time": 50.4795455,
                "end_time": 51.375,
                "pitch": 34,
                "velocity": 80,
                "duration": 0.8954545,
                "tempo": 120.0
            },
            {
                "start_time": 51.4068182,
                "end_time": 52.2840909,
                "pitch": 32,
                "velocity": 80,
                "duration": 0.8772727,
                "tempo": 120.0
            },
            {
                "start_time": 52.2840909,
                "end_time": 53.1818182,
                "pitch": 30,
                "velocity": 80,
                "duration": 0.8977273,
                "tempo": 120.0
            },
            {
                "start_time": 53.2136364,
                "end_time": 54.0909091,
                "pitch": 32,
                "velocity": 80,
                "duration": 0.8772727,
                "tempo": 120.0
            },
            {
                "start_time": 54.0909091,
                "end_time": 54.9863636,
                "pitch": 34,
                "velocity": 80,
                "duration": 0.8954545,
                "tempo": 120.0
            },
            {
                "start_time": 55.0181818,
                "end_time": 55.8954545,
                "pitch": 32,
                "velocity": 80,
                "duration": 0.8772727,
                "tempo": 120.0
            },
            {
                "start_time": 55.8954545,
                "end_time": 56.7909091,
                "pitch": 30,
                "velocity": 80,
                "duration": 0.8954545,
                "tempo": 120.0
            },
            {
                "start_time": 56.825,
                "end_time": 57.7022727,
                "pitch": 32,
                "velocity": 80,
                "duration": 0.8772727,
                "tempo": 120.0
            },
            {
                "start_time": 57.7022727,
                "end_time": 58.5977273,
                "pitch": 34,
                "velocity": 80,
                "duration": 0.8954545,
                "tempo": 120.0
            },
            {
                "start_time": 58.6295455,
                "end_time": 59.5068182,
                "pitch": 32,
                "velocity": 80,
                "duration": 0.8772727,
                "tempo": 120.0
            },
            {
                "start_time": 59.5068182,
                "end_time": 60.4022727,
                "pitch": 30,
                "velocity": 80,
                "duration": 0.8954545,
                "tempo": 120.0
            },
            {
                "start_time": 60.4340909,
                "end_time": 61.3113636,
                "pitch": 32,
                "velocity": 80,
                "duration": 0.8772727,
                "tempo": 120.0
            },
            {
                "start_time": 61.3113636,
                "end_time": 62.2068182,
                "pitch": 34,
                "velocity": 80,
                "duration": 0.8954545,
                "tempo": 120.0
            },
            {
                "start_time": 62.2409091,
                "end_time": 63.1159091,
                "pitch": 32,
                "velocity": 80,
                "duration": 0.875,
                "tempo": 120.0
            },
            {
                "start_time": 63.1159091,
                "end_time": 64.0113636,
                "pitch": 30,
                "velocity": 80,
                "duration": 0.8954545,
                "tempo": 120.0
            },
            {
                "start_time": 64.0454545,
                "end_time": 64.9136364,
                "pitch": 32,
                "velocity": 80,
                "duration": 0.8681818,
                "tempo": 120.0
            },
            {
                "start_time": 64.9136364,
                "end_time": 65.8181818,
                "pitch": 34,
                "velocity": 80,
                "duration": 0.9045455,
                "tempo": 120.0
            },
            {
                "start_time": 65.85,
                "end_time": 66.7272727,
                "pitch": 32,
                "velocity": 80,
                "duration": 0.8772727,
                "tempo": 120.0
            },
            {
                "start_time": 66.7272727,
                "end_time": 67.6227273,
                "pitch": 30,
                "velocity": 80,
                "duration": 0.8954545,
                "tempo": 120.0
            },
            {
                "start_time": 67.6568182,
                "end_time": 68.5340909,
                "pitch": 32,
                "velocity": 80,
                "duration": 0.8772727,
                "tempo": 120.0
            },
            {
                "start_time": 68.5340909,
                "end_time": 69.4295455,
                "pitch": 34,
                "velocity": 80,
                "duration": 0.8954545,
                "tempo": 120.0
            },
            {
                "start_time": 69.4613636,
                "end_time": 70.3386364,
                "pitch": 32,
                "velocity": 80,
                "duration": 0.8772727,
                "tempo": 120.0
            },
            {
                "start_time": 70.3386364,
                "end_time": 71.2340909,
                "pitch": 30,
                "velocity": 80,
                "duration": 0.8954545,
                "tempo": 120.0
            },
            {
                "start_time": 71.2681818,
                "end_time": 72.1454545,
                "pitch": 32,
                "velocity": 80,
                "duration": 0.8772727,
                "tempo": 120.0
            }
        ],
        "Acoustic Grand Piano": [
            {
                "start_time": 3.55,
                "end_time": 3.6613636,
                "pitch": 75,
                "velocity": 64,
                "duration": 0.1113636,
                "tempo": 120.0
            },
            {
                "start_time": 3.6772727,
                "end_time": 3.7727273,
                "pitch": 77,
                "velocity": 64,
                "duration": 0.0954545,
                "tempo": 120.0
            },
            {
                "start_time": 3.7886364,
                "end_time": 3.8522727,
                "pitch": 80,
                "velocity": 64,
                "duration": 0.0636364,
                "tempo": 120.0
            },
            {
                "start_time": 3.9181818,
                "end_time": 3.9818182,
                "pitch": 82,
                "velocity": 64,
                "duration": 0.0636364,
                "tempo": 120.0
            },
            {
                "start_time": 3.9977273,
                "end_time": 4.2431818,
                "pitch": 82,
                "velocity": 64,
                "duration": 0.2454545,
                "tempo": 120.0
            },
            {
                "start_time": 4.2590909,
                "end_time": 4.3295455,
                "pitch": 75,
                "velocity": 64,
                "duration": 0.0704545,
                "tempo": 120.0
            },
            {
                "start_time": 4.3477273,
                "end_time": 4.4522727,
                "pitch": 77,
                "velocity": 64,
                "duration": 0.1045455,
                "tempo": 120.0
            },
            {
                "start_time": 4.4681818,
                "end_time": 4.5840909,
                "pitch": 80,
                "velocity": 64,
                "duration": 0.1159091,
                "tempo": 120.0
            },
            {
                "start_time": 4.6,
                "end_time": 4.6659091,
                "pitch": 82,
                "velocity": 64,
                "duration": 0.0659091,
                "tempo": 120.0
            },
            {
                "start_time": 4.6818182,
                "end_time": 4.9113636,
                "pitch": 82,
                "velocity": 64,
                "duration": 0.2295455,
                "tempo": 120.0
            },
            {
                "start_time": 4.9272727,
                "end_time": 4.9954545,
                "pitch": 75,
                "velocity": 64,
                "duration": 0.0681818,
                "tempo": 120.0
            },
            {
                "start_time": 5.0136364,
                "end_time": 5.1318182,
                "pitch": 77,
                "velocity": 64,
                "duration": 0.1181818,
                "tempo": 120.0
            },
            {
                "start_time": 5.15,
                "end_time": 5.2522727,
                "pitch": 80,
                "velocity": 64,
                "duration": 0.1022727,
                "tempo": 120.0
            },
            {
                "start_time": 5.2704545,
                "end_time": 5.3386364,
                "pitch": 82,
                "velocity": 64,
                "duration": 0.0681818,
                "tempo": 120.0
            },
            {
                "start_time": 5.3545455,
                "end_time": 5.4659091,
                "pitch": 75,
                "velocity": 64,
                "duration": 0.1113636,
                "tempo": 120.0
            },
            {
                "start_time": 5.4818182,
                "end_time": 5.5795455,
                "pitch": 77,
                "velocity": 64,
                "duration": 0.0977273,
                "tempo": 120.0
            },
            {
                "start_time": 5.5954545,
                "end_time": 5.6590909,
                "pitch": 80,
                "velocity": 64,
                "duration": 0.0636364,
                "tempo": 120.0
            },
            {
                "start_time": 5.7227273,
                "end_time": 5.7863636,
                "pitch": 82,
                "velocity": 64,
                "duration": 0.0636364,
                "tempo": 120.0
            },
            {
                "start_time": 5.8022727,
                "end_time": 6.0477273,
                "pitch": 82,
                "velocity": 64,
                "duration": 0.2454545,
                "tempo": 120.0
            },
            {
                "start_time": 6.0659091,
                "end_time": 6.1340909,
                "pitch": 75,
                "velocity": 64,
                "duration": 0.0681818,
                "tempo": 120.0
            },
            {
                "start_time": 6.1522727,
                "end_time": 6.2568182,
                "pitch": 77,
                "velocity": 64,
                "duration": 0.1045455,
                "tempo": 120.0
            },
            {
                "start_time": 6.275,
                "end_time": 6.3886364,
                "pitch": 80,
                "velocity": 64,
                "duration": 0.1136364,
                "tempo": 120.0
            },
            {
                "start_time": 6.4045455,
                "end_time": 6.4704545,
                "pitch": 82,
                "velocity": 64,
                "duration": 0.0659091,
                "tempo": 120.0
            },
            {
                "start_time": 6.4863636,
                "end_time": 6.7159091,
                "pitch": 82,
                "velocity": 64,
                "duration": 0.2295455,
                "tempo": 120.0
            },
            {
                "start_time": 6.7318182,
                "end_time": 6.8022727,
                "pitch": 75,
                "velocity": 64,
                "duration": 0.0704545,
                "tempo": 120.0
            },
            {
                "start_time": 6.8181818,
                "end_time": 6.9386364,
                "pitch": 77,
                "velocity": 64,
                "duration": 0.1204545,
                "tempo": 120.0
            },
            {
                "start_time": 6.9545455,
                "end_time": 7.0568182,
                "pitch": 80,
                "velocity": 64,
                "duration": 0.1022727,
                "tempo": 120.0
            },
            {
                "start_time": 7.075,
                "end_time": 7.1431818,
                "pitch": 82,
                "velocity": 64,
                "duration": 0.0681818,
                "tempo": 120.0
            },
            {
                "start_time": 7.1590909,
                "end_time": 7.2727273,
                "pitch": 75,
                "velocity": 64,
                "duration": 0.1136364,
                "tempo": 120.0
            },
            {
                "start_time": 7.2886364,
                "end_time": 7.3840909,
                "pitch": 77,
                "velocity": 64,
                "duration": 0.0954545,
                "tempo": 120.0
            },
            {
                "start_time": 7.4,
                "end_time": 7.4636364,
                "pitch": 80,
                "velocity": 64,
                "duration": 0.0636364,
                "tempo": 120.0
            },
            {
                "start_time": 7.5272727,
                "end_time": 7.5909091,
                "pitch": 82,
                "velocity": 64,
                "duration": 0.0636364,
                "tempo": 120.0
            },
            {
                "start_time": 7.6068182,
                "end_time": 7.8522727,
                "pitch": 82,
                "velocity": 64,
                "duration": 0.2454545,
                "tempo": 120.0
            },
            {
                "start_time": 7.8704545,
                "end_time": 7.9409091,
                "pitch": 75,
                "velocity": 64,
                "duration": 0.0704545,
                "tempo": 120.0
            },
            {
                "start_time": 7.9590909,
                "end_time": 8.0636364,
                "pitch": 77,
                "velocity": 64,
                "duration": 0.1045455,
                "tempo": 120.0
            },
            {
                "start_time": 8.0795455,
                "end_time": 8.1931818,
                "pitch": 80,
                "velocity": 64,
                "duration": 0.1136364,
                "tempo": 120.0
            },
            {
                "start_time": 8.2113636,
                "end_time": 8.275,
                "pitch": 82,
                "velocity": 64,
                "duration": 0.0636364,
                "tempo": 120.0
            },
            {
                "start_time": 8.2909091,
                "end_time": 8.5204545,
                "pitch": 82,
                "velocity": 64,
                "duration": 0.2295455,
                "tempo": 120.0
            },
            {
                "start_time": 8.5386364,
                "end_time": 8.6068182,
                "pitch": 75,
                "velocity": 64,
                "duration": 0.0681818,
                "tempo": 120.0
            },
            {
                "start_time": 8.6227273,
                "end_time": 8.7431818,
                "pitch": 77,
                "velocity": 64,
                "duration": 0.1204545,
                "tempo": 120.0
            },
            {
                "start_time": 8.7613636,
                "end_time": 8.8636364,
                "pitch": 80,
                "velocity": 64,
                "duration": 0.1022727,
                "tempo": 120.0
            },
            {
                "start_time": 8.8795455,
                "end_time": 8.9477273,
                "pitch": 82,
                "velocity": 64,
                "duration": 0.0681818,
                "tempo": 120.0
            },
            {
                "start_time": 8.9659091,
                "end_time": 9.0772727,
                "pitch": 75,
                "velocity": 64,
                "duration": 0.1113636,
                "tempo": 120.0
            },
            {
                "start_time": 9.0931818,
                "end_time": 9.1886364,
                "pitch": 77,
                "velocity": 64,
                "duration": 0.0954545,
                "tempo": 120.0
            },
            {
                "start_time": 9.2045455,
                "end_time": 9.2681818,
                "pitch": 80,
                "velocity": 64,
                "duration": 0.0636364,
                "tempo": 120.0
            },
            {
                "start_time": 9.3318182,
                "end_time": 9.3977273,
                "pitch": 82,
                "velocity": 64,
                "duration": 0.0659091,
                "tempo": 120.0
            },
            {
                "start_time": 9.4136364,
                "end_time": 9.6590909,
                "pitch": 82,
                "velocity": 64,
                "duration": 0.2454545,
                "tempo": 120.0
            },
            {
                "start_time": 9.675,
                "end_time": 9.7454545,
                "pitch": 75,
                "velocity": 64,
                "duration": 0.0704545,
                "tempo": 120.0
            },
            {
                "start_time": 9.7636364,
                "end_time": 9.8681818,
                "pitch": 77,
                "velocity": 64,
                "duration": 0.1045455,
                "tempo": 120.0
            },
            {
                "start_time": 9.8840909,
                "end_time": 10.0,
                "pitch": 80,
                "velocity": 64,
                "duration": 0.1159091,
                "tempo": 120.0
            },
            {
                "start_time": 10.0159091,
                "end_time": 10.0818182,
                "pitch": 82,
                "velocity": 64,
                "duration": 0.0659091,
                "tempo": 120.0
            },
            {
                "start_time": 10.0977273,
                "end_time": 10.3272727,
                "pitch": 82,
                "velocity": 64,
                "duration": 0.2295455,
                "tempo": 120.0
            },
            {
                "start_time": 10.3431818,
                "end_time": 10.4113636,
                "pitch": 75,
                "velocity": 64,
                "duration": 0.0681818,
                "tempo": 120.0
            },
            {
                "start_time": 10.4295455,
                "end_time": 10.5477273,
                "pitch": 77,
                "velocity": 64,
                "duration": 0.1181818,
                "tempo": 120.0
            },
            {
                "start_time": 10.5659091,
                "end_time": 10.6681818,
                "pitch": 80,
                "velocity": 64,
                "duration": 0.1022727,
                "tempo": 120.0
            },
            {
                "start_time": 10.6863636,
                "end_time": 10.7545455,
                "pitch": 82,
                "velocity": 64,
                "duration": 0.0681818,
                "tempo": 120.0
            },
            {
                "start_time": 10.7704545,
                "end_time": 10.8818182,
                "pitch": 80,
                "velocity": 64,
                "duration": 0.1113636,
                "tempo": 120.0
            },
            {
                "start_time": 10.8977273,
                "end_time": 10.9931818,
                "pitch": 82,
                "velocity": 64,
                "duration": 0.0954545,
                "tempo": 120.0
            },
            {
                "start_time": 11.0090909,
                "end_time": 11.075,
                "pitch": 85,
                "velocity": 64,
                "duration": 0.0659091,
                "tempo": 120.0
            },
            {
                "start_time": 11.1386364,
                "end_time": 11.2022727,
                "pitch": 87,
                "velocity": 64,
                "duration": 0.0636364,
                "tempo": 120.0
            },
            {
                "start_time": 11.2181818,
                "end_time": 11.4590909,
                "pitch": 87,
                "velocity": 64,
                "duration": 0.2409091,
                "tempo": 120.0
            },
            {
                "start_time": 11.475,
                "end_time": 11.5431818,
                "pitch": 80,
                "velocity": 64,
                "duration": 0.0681818,
                "tempo": 120.0
            },
            {
                "start_time": 11.5613636,
                "end_time": 11.6636364,
                "pitch": 82,
                "velocity": 64,
                "duration": 0.1022727,
                "tempo": 120.0
            },
            {
                "start_time": 11.6795455,
                "end_time": 11.7977273,
                "pitch": 85,
                "velocity": 64,
                "duration": 0.1181818,
                "tempo": 120.0
            },
            {
                "start_time": 11.8136364,
                "end_time": 11.8818182,
                "pitch": 87,
                "velocity": 64,
                "duration": 0.0681818,
                "tempo": 120.0
            },
            {
                "start_time": 11.8977273,
                "end_time": 12.1318182,
                "pitch": 87,
                "velocity": 64,
                "duration": 0.2340909,
                "tempo": 120.0
            },
            {
                "start_time": 12.1477273,
                "end_time": 12.2181818,
                "pitch": 80,
                "velocity": 64,
                "duration": 0.0704545,
                "tempo": 120.0
            },
            {
                "start_time": 12.2340909,
                "end_time": 12.3545455,
                "pitch": 82,
                "velocity": 64,
                "duration": 0.1204545,
                "tempo": 120.0
            },
            {
                "start_time": 12.3704545,
                "end_time": 12.4727273,
                "pitch": 85,
                "velocity": 64,
                "duration": 0.1022727,
                "tempo": 120.0
            },
            {
                "start_time": 12.4909091,
                "end_time": 12.5590909,
                "pitch": 87,
                "velocity": 64,
                "duration": 0.0681818,
                "tempo": 120.0
            },
            {
                "start_time": 12.575,
                "end_time": 12.6886364,
                "pitch": 80,
                "velocity": 64,
                "duration": 0.1136364,
                "tempo": 120.0
            },
            {
                "start_time": 12.7045455,
                "end_time": 12.8,
                "pitch": 82,
                "velocity": 64,
                "duration": 0.0954545,
                "tempo": 120.0
            },
            {
                "start_time": 12.8159091,
                "end_time": 12.8795455,
                "pitch": 85,
                "velocity": 64,
                "duration": 0.0636364,
                "tempo": 120.0
            },
            {
                "start_time": 12.9431818,
                "end_time": 13.0068182,
                "pitch": 87,
                "velocity": 64,
                "duration": 0.0636364,
                "tempo": 120.0
            },
            {
                "start_time": 13.025,
                "end_time": 13.2636364,
                "pitch": 87,
                "velocity": 64,
                "duration": 0.2386364,
                "tempo": 120.0
            },
            {
                "start_time": 13.2818182,
                "end_time": 13.35,
                "pitch": 80,
                "velocity": 64,
                "duration": 0.0681818,
                "tempo": 120.0
            },
            {
                "start_time": 13.3659091,
                "end_time": 13.4681818,
                "pitch": 82,
                "velocity": 64,
                "duration": 0.1022727,
                "tempo": 120.0
            },
            {
                "start_time": 13.4863636,
                "end_time": 13.6022727,
                "pitch": 85,
                "velocity": 64,
                "duration": 0.1159091,
                "tempo": 120.0
            },
            {
                "start_time": 13.6204545,
                "end_time": 13.6863636,
                "pitch": 87,
                "velocity": 64,
                "duration": 0.0659091,
                "tempo": 120.0
            },
            {
                "start_time": 13.7022727,
                "end_time": 13.9363636,
                "pitch": 87,
                "velocity": 64,
                "duration": 0.2340909,
                "tempo": 120.0
            },
            {
                "start_time": 13.9545455,
                "end_time": 14.0227273,
                "pitch": 80,
                "velocity": 64,
                "duration": 0.0681818,
                "tempo": 120.0
            },
            {
                "start_time": 14.0386364,
                "end_time": 14.1590909,
                "pitch": 82,
                "velocity": 64,
                "duration": 0.1204545,
                "tempo": 120.0
            },
            {
                "start_time": 14.1772727,
                "end_time": 14.2795455,
                "pitch": 85,
                "velocity": 64,
                "duration": 0.1022727,
                "tempo": 120.0
            },
            {
                "start_time": 14.2954545,
                "end_time": 14.3636364,
                "pitch": 87,
                "velocity": 64,
                "duration": 0.0681818,
                "tempo": 120.0
            },
            {
                "start_time": 14.3818182,
                "end_time": 14.4931818,
                "pitch": 80,
                "velocity": 64,
                "duration": 0.1113636,
                "tempo": 120.0
            },
            {
                "start_time": 14.5090909,
                "end_time": 14.6045455,
                "pitch": 82,
                "velocity": 64,
                "duration": 0.0954545,
                "tempo": 120.0
            },
            {
                "start_time": 14.6204545,
                "end_time": 14.6840909,
                "pitch": 85,
                "velocity": 64,
                "duration": 0.0636364,
                "tempo": 120.0
            },
            {
                "start_time": 14.75,
                "end_time": 14.8136364,
                "pitch": 87,
                "velocity": 64,
                "duration": 0.0636364,
                "tempo": 120.0
            },
            {
                "start_time": 14.8295455,
                "end_time": 15.075,
                "pitch": 87,
                "velocity": 64,
                "duration": 0.2454545,
                "tempo": 120.0
            },
            {
                "start_time": 15.0909091,
                "end_time": 15.1613636,
                "pitch": 80,
                "velocity": 64,
                "duration": 0.0704545,
                "tempo": 120.0
            },
            {
                "start_time": 15.1795455,
                "end_time": 15.2840909,
                "pitch": 82,
                "velocity": 64,
                "duration": 0.1045455,
                "tempo": 120.0
            },
            {
                "start_time": 15.3,
                "end_time": 15.4159091,
                "pitch": 85,
                "velocity": 64,
                "duration": 0.1159091,
                "tempo": 120.0
            },
            {
                "start_time": 15.4318182,
                "end_time": 15.4977273,
                "pitch": 87,
                "velocity": 64,
                "duration": 0.0659091,
                "tempo": 120.0
            },
            {
                "start_time": 15.5136364,
                "end_time": 15.7431818,
                "pitch": 87,
                "velocity": 64,
                "duration": 0.2295455,
                "tempo": 120.0
            },
            {
                "start_time": 15.7590909,
                "end_time": 15.8272727,
                "pitch": 80,
                "velocity": 64,
                "duration": 0.0681818,
                "tempo": 120.0
            },
            {
                "start_time": 15.8454545,
                "end_time": 15.9636364,
                "pitch": 82,
                "velocity": 64,
                "duration": 0.1181818,
                "tempo": 120.0
            },
            {
                "start_time": 15.9818182,
                "end_time": 16.0840909,
                "pitch": 85,
                "velocity": 64,
                "duration": 0.1022727,
                "tempo": 120.0
            },
            {
                "start_time": 16.1022727,
                "end_time": 16.1704545,
                "pitch": 87,
                "velocity": 64,
                "duration": 0.0681818,
                "tempo": 120.0
            },
            {
                "start_time": 16.1863636,
                "end_time": 16.2977273,
                "pitch": 80,
                "velocity": 64,
                "duration": 0.1113636,
                "tempo": 120.0
            },
            {
                "start_time": 16.3136364,
                "end_time": 16.4113636,
                "pitch": 82,
                "velocity": 64,
                "duration": 0.0977273,
                "tempo": 120.0
            },
            {
                "start_time": 16.4272727,
                "end_time": 16.4909091,
                "pitch": 85,
                "velocity": 64,
                "duration": 0.0636364,
                "tempo": 120.0
            },
            {
                "start_time": 16.5545455,
                "end_time": 16.6181818,
                "pitch": 87,
                "velocity": 64,
                "duration": 0.0636364,
                "tempo": 120.0
            },
            {
                "start_time": 16.6340909,
                "end_time": 16.875,
                "pitch": 87,
                "velocity": 64,
                "duration": 0.2409091,
                "tempo": 120.0
            },
            {
                "start_time": 16.8909091,
                "end_time": 16.9590909,
                "pitch": 80,
                "velocity": 64,
                "duration": 0.0681818,
                "tempo": 120.0
            },
            {
                "start_time": 16.9772727,
                "end_time": 17.0795455,
                "pitch": 82,
                "velocity": 64,
                "duration": 0.1022727,
                "tempo": 120.0
            },
            {
                "start_time": 17.0954545,
                "end_time": 17.2136364,
                "pitch": 85,
                "velocity": 64,
                "duration": 0.1181818,
                "tempo": 120.0
            },
            {
                "start_time": 17.2295455,
                "end_time": 17.2977273,
                "pitch": 87,
                "velocity": 64,
                "duration": 0.0681818,
                "tempo": 120.0
            },
            {
                "start_time": 17.3136364,
                "end_time": 17.5477273,
                "pitch": 87,
                "velocity": 64,
                "duration": 0.2340909,
                "tempo": 120.0
            },
            {
                "start_time": 17.5659091,
                "end_time": 17.6340909,
                "pitch": 80,
                "velocity": 64,
                "duration": 0.0681818,
                "tempo": 120.0
            },
            {
                "start_time": 17.65,
                "end_time": 17.7704545,
                "pitch": 82,
                "velocity": 64,
                "duration": 0.1204545,
                "tempo": 120.0
            },
            {
                "start_time": 17.7863636,
                "end_time": 17.8886364,
                "pitch": 85,
                "velocity": 64,
                "duration": 0.1022727,
                "tempo": 120.0
            },
            {
                "start_time": 17.9068182,
                "end_time": 17.975,
                "pitch": 87,
                "velocity": 64,
                "duration": 0.0681818,
                "tempo": 120.0
            },
            {
                "start_time": 21.5818182,
                "end_time": 21.7159091,
                "pitch": 75,
                "velocity": 64,
                "duration": 0.1340909,
                "tempo": 120.0
            },
            {
                "start_time": 21.7159091,
                "end_time": 21.8,
                "pitch": 77,
                "velocity": 64,
                "duration": 0.0840909,
                "tempo": 120.0
            },
            {
                "start_time": 21.8340909,
                "end_time": 21.9181818,
                "pitch": 80,
                "velocity": 64,
                "duration": 0.0840909,
                "tempo": 120.0
            },
            {
                "start_time": 21.9681818,
                "end_time": 22.05,
                "pitch": 82,
                "velocity": 64,
                "duration": 0.0818182,
                "tempo": 120.0
            },
            {
                "start_time": 22.05,
                "end_time": 22.2795455,
                "pitch": 82,
                "velocity": 64,
                "duration": 0.2295455,
                "tempo": 120.0
            },
            {
                "start_time": 22.3136364,
                "end_time": 22.4,
                "pitch": 75,
                "velocity": 64,
                "duration": 0.0863636,
                "tempo": 120.0
            },
            {
                "start_time": 22.4,
                "end_time": 22.4886364,
                "pitch": 77,
                "velocity": 64,
                "duration": 0.0886364,
                "tempo": 120.0
            },
            {
                "start_time": 22.5204545,
                "end_time": 22.6181818,
                "pitch": 80,
                "velocity": 64,
                "duration": 0.0977273,
                "tempo": 120.0
            },
            {
                "start_time": 22.65,
                "end_time": 22.7295455,
                "pitch": 82,
                "velocity": 64,
                "duration": 0.0795455,
                "tempo": 120.0
            },
            {
                "start_time": 22.7295455,
                "end_time": 22.9363636,
                "pitch": 82,
                "velocity": 64,
                "duration": 0.2068182,
                "tempo": 120.0
            },
            {
                "start_time": 22.9704545,
                "end_time": 23.0568182,
                "pitch": 75,
                "velocity": 64,
                "duration": 0.0863636,
                "tempo": 120.0
            },
            {
                "start_time": 23.0568182,
                "end_time": 23.1931818,
                "pitch": 77,
                "velocity": 64,
                "duration": 0.1363636,
                "tempo": 120.0
            },
            {
                "start_time": 23.1931818,
                "end_time": 23.2795455,
                "pitch": 80,
                "velocity": 64,
                "duration": 0.0863636,
                "tempo": 120.0
            },
            {
                "start_time": 23.3136364,
                "end_time": 23.3977273,
                "pitch": 82,
                "velocity": 64,
                "duration": 0.0840909,
                "tempo": 120.0
            },
            {
                "start_time": 23.3977273,
                "end_time": 23.5318182,
                "pitch": 75,
                "velocity": 64,
                "duration": 0.1340909,
                "tempo": 120.0
            },
            {
                "start_time": 23.5318182,
                "end_time": 23.6159091,
                "pitch": 77,
                "velocity": 64,
                "duration": 0.0840909,
                "tempo": 120.0
            },
            {
                "start_time": 23.65,
                "end_time": 23.7318182,
                "pitch": 80,
                "velocity": 64,
                "duration": 0.0818182,
                "tempo": 120.0
            },
            {
                "start_time": 23.7840909,
                "end_time": 23.8659091,
                "pitch": 82,
                "velocity": 64,
                "duration": 0.0818182,
                "tempo": 120.0
            },
            {
                "start_time": 23.8659091,
                "end_time": 24.0886364,
                "pitch": 82,
                "velocity": 64,
                "duration": 0.2227273,
                "tempo": 120.0
            },
            {
                "start_time": 24.1227273,
                "end_time": 24.2090909,
                "pitch": 75,
                "velocity": 64,
                "duration": 0.0863636,
                "tempo": 120.0
            },
            {
                "start_time": 24.2090909,
                "end_time": 24.2931818,
                "pitch": 77,
                "velocity": 64,
                "duration": 0.0840909,
                "tempo": 120.0
            },
            {
                "start_time": 24.3272727,
                "end_time": 24.4227273,
                "pitch": 80,
                "velocity": 64,
                "duration": 0.0954545,
                "tempo": 120.0
            },
            {
                "start_time": 24.4545455,
                "end_time": 24.5340909,
                "pitch": 82,
                "velocity": 64,
                "duration": 0.0795455,
                "tempo": 120.0
            },
            {
                "start_time": 24.5340909,
                "end_time": 24.7431818,
                "pitch": 82,
                "velocity": 64,
                "duration": 0.2090909,
                "tempo": 120.0
            },
            {
                "start_time": 24.7772727,
                "end_time": 24.8613636,
                "pitch": 75,
                "velocity": 64,
                "duration": 0.0840909,
                "tempo": 120.0
            },
            {
                "start_time": 24.8613636,
                "end_time": 24.9977273,
                "pitch": 77,
                "velocity": 64,
                "duration": 0.1363636,
                "tempo": 120.0
            },
            {
                "start_time": 24.9977273,
                "end_time": 25.0840909,
                "pitch": 80,
                "velocity": 64,
                "duration": 0.0863636,
                "tempo": 120.0
            },
            {
                "start_time": 25.1181818,
                "end_time": 25.2045455,
                "pitch": 82,
                "velocity": 64,
                "duration": 0.0863636,
                "tempo": 120.0
            },
            {
                "start_time": 25.2045455,
                "end_time": 25.3386364,
                "pitch": 75,
                "velocity": 64,
                "duration": 0.1340909,
                "tempo": 120.0
            },
            {
                "start_time": 25.3386364,
                "end_time": 25.4204545,
                "pitch": 77,
                "velocity": 64,
                "duration": 0.0818182,
                "tempo": 120.0
            },
            {
                "start_time": 25.4545455,
                "end_time": 25.5386364,
                "pitch": 80,
                "velocity": 64,
                "duration": 0.0840909,
                "tempo": 120.0
            },
            {
                "start_time": 25.5886364,
                "end_time": 25.6727273,
                "pitch": 82,
                "velocity": 64,
                "duration": 0.0840909,
                "tempo": 120.0
            },
            {
                "start_time": 25.6727273,
                "end_time": 25.8954545,
                "pitch": 82,
                "velocity": 64,
                "duration": 0.2227273,
                "tempo": 120.0
            },
            {
                "start_time": 25.9295455,
                "end_time": 26.0136364,
                "pitch": 75,
                "velocity": 64,
                "duration": 0.0840909,
                "tempo": 120.0
            },
            {
                "start_time": 26.0136364,
                "end_time": 26.1,
                "pitch": 77,
                "velocity": 64,
                "duration": 0.0863636,
                "tempo": 120.0
            },
            {
                "start_time": 26.1318182,
                "end_time": 26.2272727,
                "pitch": 80,
                "velocity": 64,
                "duration": 0.0954545,
                "tempo": 120.0
            },
            {
                "start_time": 26.2590909,
                "end_time": 26.3409091,
                "pitch": 82,
                "velocity": 64,
                "duration": 0.0818182,
                "tempo": 120.0
            },
            {
                "start_time": 26.3409091,
                "end_time": 26.5477273,
                "pitch": 82,
                "velocity": 64,
                "duration": 0.2068182,
                "tempo": 120.0
            },
            {
                "start_time": 26.5818182,
                "end_time": 26.6681818,
                "pitch": 75,
                "velocity": 64,
                "duration": 0.0863636,
                "tempo": 120.0
            },
            {
                "start_time": 26.6681818,
                "end_time": 26.8045455,
                "pitch": 77,
                "velocity": 64,
                "duration": 0.1363636,
                "tempo": 120.0
            },
            {
                "start_time": 26.8045455,
                "end_time": 26.8886364,
                "pitch": 80,
                "velocity": 64,
                "duration": 0.0840909,
                "tempo": 120.0
            },
            {
                "start_time": 26.925,
                "end_time": 27.0090909,
                "pitch": 82,
                "velocity": 64,
                "duration": 0.0840909,
                "tempo": 120.0
            },
            {
                "start_time": 27.0090909,
                "end_time": 27.1431818,
                "pitch": 75,
                "velocity": 64,
                "duration": 0.1340909,
                "tempo": 120.0
            },
            {
                "start_time": 27.1431818,
                "end_time": 27.2272727,
                "pitch": 77,
                "velocity": 64,
                "duration": 0.0840909,
                "tempo": 120.0
            },
            {
                "start_time": 27.2590909,
                "end_time": 27.3431818,
                "pitch": 80,
                "velocity": 64,
                "duration": 0.0840909,
                "tempo": 120.0
            },
            {
                "start_time": 27.3931818,
                "end_time": 27.4772727,
                "pitch": 82,
                "velocity": 64,
                "duration": 0.0840909,
                "tempo": 120.0
            },
            {
                "start_time": 27.4772727,
                "end_time": 27.7,
                "pitch": 82,
                "velocity": 64,
                "duration": 0.2227273,
                "tempo": 120.0
            },
            {
                "start_time": 27.7340909,
                "end_time": 27.8204545,
                "pitch": 75,
                "velocity": 64,
                "duration": 0.0863636,
                "tempo": 120.0
            },
            {
                "start_time": 27.8204545,
                "end_time": 27.9045455,
                "pitch": 77,
                "velocity": 64,
                "duration": 0.0840909,
                "tempo": 120.0
            },
            {
                "start_time": 27.9386364,
                "end_time": 28.0340909,
                "pitch": 80,
                "velocity": 64,
                "duration": 0.0954545,
                "tempo": 120.0
            },
            {
                "start_time": 28.0659091,
                "end_time": 28.1454545,
                "pitch": 82,
                "velocity": 64,
                "duration": 0.0795455,
                "tempo": 120.0
            },
            {
                "start_time": 28.1454545,
                "end_time": 28.3545455,
                "pitch": 82,
                "velocity": 64,
                "duration": 0.2090909,
                "tempo": 120.0
            },
            {
                "start_time": 28.3863636,
                "end_time": 28.4727273,
                "pitch": 75,
                "velocity": 64,
                "duration": 0.0863636,
                "tempo": 120.0
            },
            {
                "start_time": 28.4727273,
                "end_time": 28.6090909,
                "pitch": 77,
                "velocity": 64,
                "duration": 0.1363636,
                "tempo": 120.0
            },
            {
                "start_time": 28.6090909,
                "end_time": 28.6954545,
                "pitch": 80,
                "velocity": 64,
                "duration": 0.0863636,
                "tempo": 120.0
            },
            {
                "start_time": 28.7295455,
                "end_time": 28.8159091,
                "pitch": 82,
                "velocity": 64,
                "duration": 0.0863636,
                "tempo": 120.0
            },
            {
                "start_time": 28.8159091,
                "end_time": 28.9477273,
                "pitch": 80,
                "velocity": 64,
                "duration": 0.1318182,
                "tempo": 120.0
            },
            {
                "start_time": 28.9477273,
                "end_time": 29.0318182,
                "pitch": 82,
                "velocity": 64,
                "duration": 0.0840909,
                "tempo": 120.0
            },
            {
                "start_time": 29.0659091,
                "end_time": 29.15,
                "pitch": 85,
                "velocity": 64,
                "duration": 0.0840909,
                "tempo": 120.0
            },
            {
                "start_time": 29.2,
                "end_time": 29.2840909,
                "pitch": 87,
                "velocity": 64,
                "duration": 0.0840909,
                "tempo": 120.0
            },
            {
                "start_time": 29.2840909,
                "end_time": 29.5045455,
                "pitch": 87,
                "velocity": 64,
                "duration": 0.2204545,
                "tempo": 120.0
            },
            {
                "start_time": 29.5386364,
                "end_time": 29.625,
                "pitch": 80,
                "velocity": 64,
                "duration": 0.0863636,
                "tempo": 120.0
            },
            {
                "start_time": 29.625,
                "end_time": 29.7113636,
                "pitch": 82,
                "velocity": 64,
                "duration": 0.0863636,
                "tempo": 120.0
            },
            {
                "start_time": 29.7431818,
                "end_time": 29.8386364,
                "pitch": 85,
                "velocity": 64,
                "duration": 0.0954545,
                "tempo": 120.0
            },
            {
                "start_time": 29.8704545,
                "end_time": 29.95,
                "pitch": 87,
                "velocity": 64,
                "duration": 0.0795455,
                "tempo": 120.0
            },
            {
                "start_time": 29.95,
                "end_time": 30.1590909,
                "pitch": 87,
                "velocity": 64,
                "duration": 0.2090909,
                "tempo": 120.0
            },
            {
                "start_time": 30.1931818,
                "end_time": 30.2772727,
                "pitch": 80,
                "velocity": 64,
                "duration": 0.0840909,
                "tempo": 120.0
            },
            {
                "start_time": 30.2772727,
                "end_time": 30.4159091,
                "pitch": 82,
                "velocity": 64,
                "duration": 0.1386364,
                "tempo": 120.0
            },
            {
                "start_time": 30.4159091,
                "end_time": 30.5,
                "pitch": 85,
                "velocity": 64,
                "duration": 0.0840909,
                "tempo": 120.0
            },
            {
                "start_time": 30.5340909,
                "end_time": 30.6204545,
                "pitch": 87,
                "velocity": 64,
                "duration": 0.0863636,
                "tempo": 120.0
            },
            {
                "start_time": 30.6204545,
                "end_time": 30.7545455,
                "pitch": 80,
                "velocity": 64,
                "duration": 0.1340909,
                "tempo": 120.0
            },
            {
                "start_time": 30.7545455,
                "end_time": 30.8386364,
                "pitch": 82,
                "velocity": 64,
                "duration": 0.0840909,
                "tempo": 120.0
            },
            {
                "start_time": 30.8704545,
                "end_time": 30.9545455,
                "pitch": 85,
                "velocity": 64,
                "duration": 0.0840909,
                "tempo": 120.0
            },
            {
                "start_time": 31.0045455,
                "end_time": 31.0886364,
                "pitch": 87,
                "velocity": 64,
                "duration": 0.0840909,
                "tempo": 120.0
            },
            {
                "start_time": 31.0886364,
                "end_time": 31.3113636,
                "pitch": 87,
                "velocity": 64,
                "duration": 0.2227273,
                "tempo": 120.0
            },
            {
                "start_time": 31.3454545,
                "end_time": 31.4295455,
                "pitch": 80,
                "velocity": 64,
                "duration": 0.0840909,
                "tempo": 120.0
            },
            {
                "start_time": 31.4295455,
                "end_time": 31.5159091,
                "pitch": 82,
                "velocity": 64,
                "duration": 0.0863636,
                "tempo": 120.0
            },
            {
                "start_time": 31.5477273,
                "end_time": 31.6454545,
                "pitch": 85,
                "velocity": 64,
                "duration": 0.0977273,
                "tempo": 120.0
            },
            {
                "start_time": 31.6772727,
                "end_time": 31.7568182,
                "pitch": 87,
                "velocity": 64,
                "duration": 0.0795455,
                "tempo": 120.0
            },
            {
                "start_time": 31.7568182,
                "end_time": 31.9636364,
                "pitch": 87,
                "velocity": 64,
                "duration": 0.2068182,
                "tempo": 120.0
            },
            {
                "start_time": 31.9977273,
                "end_time": 32.0840909,
                "pitch": 80,
                "velocity": 64,
                "duration": 0.0863636,
                "tempo": 120.0
            },
            {
                "start_time": 32.0840909,
                "end_time": 32.2204545,
                "pitch": 82,
                "velocity": 64,
                "duration": 0.1363636,
                "tempo": 120.0
            },
            {
                "start_time": 32.2204545,
                "end_time": 32.3068182,
                "pitch": 85,
                "velocity": 64,
                "duration": 0.0863636,
                "tempo": 120.0
            },
            {
                "start_time": 32.3409091,
                "end_time": 32.425,
                "pitch": 87,
                "velocity": 64,
                "duration": 0.0840909,
                "tempo": 120.0
            },
            {
                "start_time": 32.425,
                "end_time": 32.5590909,
                "pitch": 80,
                "velocity": 64,
                "duration": 0.1340909,
                "tempo": 120.0
            },
            {
                "start_time": 32.5590909,
                "end_time": 32.6431818,
                "pitch": 82,
                "velocity": 64,
                "duration": 0.0840909,
                "tempo": 120.0
            },
            {
                "start_time": 32.6772727,
                "end_time": 32.7590909,
                "pitch": 85,
                "velocity": 64,
                "duration": 0.0818182,
                "tempo": 120.0
            },
            {
                "start_time": 32.8090909,
                "end_time": 32.8931818,
                "pitch": 87,
                "velocity": 64,
                "duration": 0.0840909,
                "tempo": 120.0
            },
            {
                "start_time": 32.8931818,
                "end_time": 33.1159091,
                "pitch": 87,
                "velocity": 64,
                "duration": 0.2227273,
                "tempo": 120.0
            },
            {
                "start_time": 33.15,
                "end_time": 33.2363636,
                "pitch": 80,
                "velocity": 64,
                "duration": 0.0863636,
                "tempo": 120.0
            },
            {
                "start_time": 33.2363636,
                "end_time": 33.3204545,
                "pitch": 82,
                "velocity": 64,
                "duration": 0.0840909,
                "tempo": 120.0
            },
            {
                "start_time": 33.3545455,
                "end_time": 33.45,
                "pitch": 85,
                "velocity": 64,
                "duration": 0.0954545,
                "tempo": 120.0
            },
            {
                "start_time": 33.4818182,
                "end_time": 33.5613636,
                "pitch": 87,
                "velocity": 64,
                "duration": 0.0795455,
                "tempo": 120.0
            },
            {
                "start_time": 33.5613636,
                "end_time": 33.7704545,
                "pitch": 87,
                "velocity": 64,
                "duration": 0.2090909,
                "tempo": 120.0
            },
            {
                "start_time": 33.8045455,
                "end_time": 33.8886364,
                "pitch": 80,
                "velocity": 64,
                "duration": 0.0840909,
                "tempo": 120.0
            },
            {
                "start_time": 33.8886364,
                "end_time": 34.025,
                "pitch": 82,
                "velocity": 64,
                "duration": 0.1363636,
                "tempo": 120.0
            },
            {
                "start_time": 34.025,
                "end_time": 34.1113636,
                "pitch": 85,
                "velocity": 64,
                "duration": 0.0863636,
                "tempo": 120.0
            },
            {
                "start_time": 34.1454545,
                "end_time": 34.2318182,
                "pitch": 87,
                "velocity": 64,
                "duration": 0.0863636,
                "tempo": 120.0
            },
            {
                "start_time": 34.2318182,
                "end_time": 34.3659091,
                "pitch": 80,
                "velocity": 64,
                "duration": 0.1340909,
                "tempo": 120.0
            },
            {
                "start_time": 34.3659091,
                "end_time": 34.4477273,
                "pitch": 82,
                "velocity": 64,
                "duration": 0.0818182,
                "tempo": 120.0
            },
            {
                "start_time": 34.4818182,
                "end_time": 34.5659091,
                "pitch": 85,
                "velocity": 64,
                "duration": 0.0840909,
                "tempo": 120.0
            },
            {
                "start_time": 34.6159091,
                "end_time": 34.7,
                "pitch": 87,
                "velocity": 64,
                "duration": 0.0840909,
                "tempo": 120.0
            },
            {
                "start_time": 34.7,
                "end_time": 34.9204545,
                "pitch": 87,
                "velocity": 64,
                "duration": 0.2204545,
                "tempo": 120.0
            },
            {
                "start_time": 34.9568182,
                "end_time": 35.0409091,
                "pitch": 80,
                "velocity": 64,
                "duration": 0.0840909,
                "tempo": 120.0
            },
            {
                "start_time": 35.0409091,
                "end_time": 35.1272727,
                "pitch": 82,
                "velocity": 64,
                "duration": 0.0863636,
                "tempo": 120.0
            },
            {
                "start_time": 35.1590909,
                "end_time": 35.2545455,
                "pitch": 85,
                "velocity": 64,
                "duration": 0.0954545,
                "tempo": 120.0
            },
            {
                "start_time": 35.2863636,
                "end_time": 35.3681818,
                "pitch": 87,
                "velocity": 64,
                "duration": 0.0818182,
                "tempo": 120.0
            },
            {
                "start_time": 35.3681818,
                "end_time": 35.575,
                "pitch": 87,
                "velocity": 64,
                "duration": 0.2068182,
                "tempo": 120.0
            },
            {
                "start_time": 35.6090909,
                "end_time": 35.6954545,
                "pitch": 80,
                "velocity": 64,
                "duration": 0.0863636,
                "tempo": 120.0
            },
            {
                "start_time": 35.6954545,
                "end_time": 35.8318182,
                "pitch": 82,
                "velocity": 64,
                "duration": 0.1363636,
                "tempo": 120.0
            },
            {
                "start_time": 35.8318182,
                "end_time": 35.9159091,
                "pitch": 85,
                "velocity": 64,
                "duration": 0.0840909,
                "tempo": 120.0
            },
            {
                "start_time": 35.95,
                "end_time": 36.0363636,
                "pitch": 87,
                "velocity": 64,
                "duration": 0.0863636,
                "tempo": 120.0
            },
            {
                "start_time": 39.6363636,
                "end_time": 39.7704545,
                "pitch": 75,
                "velocity": 64,
                "duration": 0.1340909,
                "tempo": 120.0
            },
            {
                "start_time": 39.7704545,
                "end_time": 39.8545455,
                "pitch": 77,
                "velocity": 64,
                "duration": 0.0840909,
                "tempo": 120.0
            },
            {
                "start_time": 39.8886364,
                "end_time": 39.9704545,
                "pitch": 80,
                "velocity": 64,
                "duration": 0.0818182,
                "tempo": 120.0
            },
            {
                "start_time": 40.0227273,
                "end_time": 40.1045455,
                "pitch": 82,
                "velocity": 64,
                "duration": 0.0818182,
                "tempo": 120.0
            },
            {
                "start_time": 40.1045455,
                "end_time": 40.3318182,
                "pitch": 82,
                "velocity": 64,
                "duration": 0.2272727,
                "tempo": 120.0
            },
            {
                "start_time": 40.3681818,
                "end_time": 40.4545455,
                "pitch": 75,
                "velocity": 64,
                "duration": 0.0863636,
                "tempo": 120.0
            },
            {
                "start_time": 40.4545455,
                "end_time": 40.5431818,
                "pitch": 77,
                "velocity": 64,
                "duration": 0.0886364,
                "tempo": 120.0
            },
            {
                "start_time": 40.575,
                "end_time": 40.6727273,
                "pitch": 80,
                "velocity": 64,
                "duration": 0.0977273,
                "tempo": 120.0
            },
            {
                "start_time": 40.7045455,
                "end_time": 40.7840909,
                "pitch": 82,
                "velocity": 64,
                "duration": 0.0795455,
                "tempo": 120.0
            },
            {
                "start_time": 40.7840909,
                "end_time": 40.9909091,
                "pitch": 82,
                "velocity": 64,
                "duration": 0.2068182,
                "tempo": 120.0
            },
            {
                "start_time": 41.025,
                "end_time": 41.1113636,
                "pitch": 75,
                "velocity": 64,
                "duration": 0.0863636,
                "tempo": 120.0
            },
            {
                "start_time": 41.1113636,
                "end_time": 41.2477273,
                "pitch": 77,
                "velocity": 64,
                "duration": 0.1363636,
                "tempo": 120.0
            },
            {
                "start_time": 41.2477273,
                "end_time": 41.3340909,
                "pitch": 80,
                "velocity": 64,
                "duration": 0.0863636,
                "tempo": 120.0
            },
            {
                "start_time": 41.3681818,
                "end_time": 41.4522727,
                "pitch": 82,
                "velocity": 64,
                "duration": 0.0840909,
                "tempo": 120.0
            },
            {
                "start_time": 41.4522727,
                "end_time": 41.5840909,
                "pitch": 75,
                "velocity": 64,
                "duration": 0.1318182,
                "tempo": 120.0
            },
            {
                "start_time": 41.5840909,
                "end_time": 41.6659091,
                "pitch": 77,
                "velocity": 64,
                "duration": 0.0818182,
                "tempo": 120.0
            },
            {
                "start_time": 41.6977273,
                "end_time": 41.7795455,
                "pitch": 80,
                "velocity": 64,
                "duration": 0.0818182,
                "tempo": 120.0
            },
            {
                "start_time": 41.8295455,
                "end_time": 41.9113636,
                "pitch": 82,
                "velocity": 64,
                "duration": 0.0818182,
                "tempo": 120.0
            },
            {
                "start_time": 41.9113636,
                "end_time": 42.1386364,
                "pitch": 82,
                "velocity": 64,
                "duration": 0.2272727,
                "tempo": 120.0
            },
            {
                "start_time": 42.1727273,
                "end_time": 42.2613636,
                "pitch": 75,
                "velocity": 64,
                "duration": 0.0886364,
                "tempo": 120.0
            },
            {
                "start_time": 42.2613636,
                "end_time": 42.3477273,
                "pitch": 77,
                "velocity": 64,
                "duration": 0.0863636,
                "tempo": 120.0
            },
            {
                "start_time": 42.3818182,
                "end_time": 42.4772727,
                "pitch": 80,
                "velocity": 64,
                "duration": 0.0954545,
                "tempo": 120.0
            },
            {
                "start_time": 42.5090909,
                "end_time": 42.5886364,
                "pitch": 82,
                "velocity": 64,
                "duration": 0.0795455,
                "tempo": 120.0
            },
            {
                "start_time": 42.5886364,
                "end_time": 42.7977273,
                "pitch": 82,
                "velocity": 64,
                "duration": 0.2090909,
                "tempo": 120.0
            },
            {
                "start_time": 42.8318182,
                "end_time": 42.9159091,
                "pitch": 75,
                "velocity": 64,
                "duration": 0.0840909,
                "tempo": 120.0
            },
            {
                "start_time": 42.9159091,
                "end_time": 43.0522727,
                "pitch": 77,
                "velocity": 64,
                "duration": 0.1363636,
                "tempo": 120.0
            },
            {
                "start_time": 43.0522727,
                "end_time": 43.1386364,
                "pitch": 80,
                "velocity": 64,
                "duration": 0.0863636,
                "tempo": 120.0
            },
            {
                "start_time": 43.1727273,
                "end_time": 43.2568182,
                "pitch": 82,
                "velocity": 64,
                "duration": 0.0840909,
                "tempo": 120.0
            },
            {
                "start_time": 43.2568182,
                "end_time": 43.3886364,
                "pitch": 75,
                "velocity": 64,
                "duration": 0.1318182,
                "tempo": 120.0
            },
            {
                "start_time": 43.3886364,
                "end_time": 43.4704545,
                "pitch": 77,
                "velocity": 64,
                "duration": 0.0818182,
                "tempo": 120.0
            },
            {
                "start_time": 43.5022727,
                "end_time": 43.5840909,
                "pitch": 80,
                "velocity": 64,
                "duration": 0.0818182,
                "tempo": 120.0
            },
            {
                "start_time": 43.6340909,
                "end_time": 43.7159091,
                "pitch": 82,
                "velocity": 64,
                "duration": 0.0818182,
                "tempo": 120.0
            },
            {
                "start_time": 43.7159091,
                "end_time": 43.9431818,
                "pitch": 82,
                "velocity": 64,
                "duration": 0.2272727,
                "tempo": 120.0
            },
            {
                "start_time": 43.9772727,
                "end_time": 44.0659091,
                "pitch": 75,
                "velocity": 64,
                "duration": 0.0886364,
                "tempo": 120.0
            },
            {
                "start_time": 44.0659091,
                "end_time": 44.1522727,
                "pitch": 77,
                "velocity": 64,
                "duration": 0.0863636,
                "tempo": 120.0
            },
            {
                "start_time": 44.1863636,
                "end_time": 44.2818182,
                "pitch": 80,
                "velocity": 64,
                "duration": 0.0954545,
                "tempo": 120.0
            },
            {
                "start_time": 44.3136364,
                "end_time": 44.3931818,
                "pitch": 82,
                "velocity": 64,
                "duration": 0.0795455,
                "tempo": 120.0
            },
            {
                "start_time": 44.3931818,
                "end_time": 44.6022727,
                "pitch": 82,
                "velocity": 64,
                "duration": 0.2090909,
                "tempo": 120.0
            },
            {
                "start_time": 44.6363636,
                "end_time": 44.7204545,
                "pitch": 75,
                "velocity": 64,
                "duration": 0.0840909,
                "tempo": 120.0
            },
            {
                "start_time": 44.7204545,
                "end_time": 44.8590909,
                "pitch": 77,
                "velocity": 64,
                "duration": 0.1386364,
                "tempo": 120.0
            },
            {
                "start_time": 44.8590909,
                "end_time": 44.9431818,
                "pitch": 80,
                "velocity": 64,
                "duration": 0.0840909,
                "tempo": 120.0
            },
            {
                "start_time": 44.9772727,
                "end_time": 45.0636364,
                "pitch": 82,
                "velocity": 64,
                "duration": 0.0863636,
                "tempo": 120.0
            },
            {
                "start_time": 45.0636364,
                "end_time": 45.1977273,
                "pitch": 75,
                "velocity": 64,
                "duration": 0.1340909,
                "tempo": 120.0
            },
            {
                "start_time": 45.1977273,
                "end_time": 45.2818182,
                "pitch": 77,
                "velocity": 64,
                "duration": 0.0840909,
                "tempo": 120.0
            },
            {
                "start_time": 45.3136364,
                "end_time": 45.3977273,
                "pitch": 80,
                "velocity": 64,
                "duration": 0.0840909,
                "tempo": 120.0
            },
            {
                "start_time": 45.4477273,
                "end_time": 45.5318182,
                "pitch": 82,
                "velocity": 64,
                "duration": 0.0840909,
                "tempo": 120.0
            },
            {
                "start_time": 45.5318182,
                "end_time": 45.7545455,
                "pitch": 82,
                "velocity": 64,
                "duration": 0.2227273,
                "tempo": 120.0
            },
            {
                "start_time": 45.7886364,
                "end_time": 45.8727273,
                "pitch": 75,
                "velocity": 64,
                "duration": 0.0840909,
                "tempo": 120.0
            },
            {
                "start_time": 45.8727273,
                "end_time": 45.9590909,
                "pitch": 77,
                "velocity": 64,
                "duration": 0.0863636,
                "tempo": 120.0
            },
            {
                "start_time": 45.9909091,
                "end_time": 46.0886364,
                "pitch": 80,
                "velocity": 64,
                "duration": 0.0977273,
                "tempo": 120.0
            },
            {
                "start_time": 46.1204545,
                "end_time": 46.2,
                "pitch": 82,
                "velocity": 64,
                "duration": 0.0795455,
                "tempo": 120.0
            },
            {
                "start_time": 46.2,
                "end_time": 46.4068182,
                "pitch": 82,
                "velocity": 64,
                "duration": 0.2068182,
                "tempo": 120.0
            },
            {
                "start_time": 46.4409091,
                "end_time": 46.5272727,
                "pitch": 75,
                "velocity": 64,
                "duration": 0.0863636,
                "tempo": 120.0
            },
            {
                "start_time": 46.5272727,
                "end_time": 46.6636364,
                "pitch": 77,
                "velocity": 64,
                "duration": 0.1363636,
                "tempo": 120.0
            },
            {
                "start_time": 46.6636364,
                "end_time": 46.75,
                "pitch": 80,
                "velocity": 64,
                "duration": 0.0863636,
                "tempo": 120.0
            },
            {
                "start_time": 46.7840909,
                "end_time": 46.8681818,
                "pitch": 82,
                "velocity": 64,
                "duration": 0.0840909,
                "tempo": 120.0
            },
            {
                "start_time": 46.8681818,
                "end_time": 47.0022727,
                "pitch": 80,
                "velocity": 64,
                "duration": 0.1340909,
                "tempo": 120.0
            },
            {
                "start_time": 47.0022727,
                "end_time": 47.0863636,
                "pitch": 82,
                "velocity": 64,
                "duration": 0.0840909,
                "tempo": 120.0
            },
            {
                "start_time": 47.1204545,
                "end_time": 47.2022727,
                "pitch": 85,
                "velocity": 64,
                "duration": 0.0818182,
                "tempo": 120.0
            },
            {
                "start_time": 47.2522727,
                "end_time": 47.3363636,
                "pitch": 87,
                "velocity": 64,
                "duration": 0.0840909,
                "tempo": 120.0
            },
            {
                "start_time": 47.3363636,
                "end_time": 47.5590909,
                "pitch": 87,
                "velocity": 64,
                "duration": 0.2227273,
                "tempo": 120.0
            },
            {
                "start_time": 47.5931818,
                "end_time": 47.6795455,
                "pitch": 80,
                "velocity": 64,
                "duration": 0.0863636,
                "tempo": 120.0
            },
            {
                "start_time": 47.6795455,
                "end_time": 47.7636364,
                "pitch": 82,
                "velocity": 64,
                "duration": 0.0840909,
                "tempo": 120.0
            },
            {
                "start_time": 47.7977273,
                "end_time": 47.8931818,
                "pitch": 85,
                "velocity": 64,
                "duration": 0.0954545,
                "tempo": 120.0
            },
            {
                "start_time": 47.925,
                "end_time": 48.0045455,
                "pitch": 87,
                "velocity": 64,
                "duration": 0.0795455,
                "tempo": 120.0
            },
            {
                "start_time": 48.0045455,
                "end_time": 48.2136364,
                "pitch": 87,
                "velocity": 64,
                "duration": 0.2090909,
                "tempo": 120.0
            },
            {
                "start_time": 48.2477273,
                "end_time": 48.3318182,
                "pitch": 80,
                "velocity": 64,
                "duration": 0.0840909,
                "tempo": 120.0
            },
            {
                "start_time": 48.3318182,
                "end_time": 48.4681818,
                "pitch": 82,
                "velocity": 64,
                "duration": 0.1363636,
                "tempo": 120.0
            },
            {
                "start_time": 48.4681818,
                "end_time": 48.5545455,
                "pitch": 85,
                "velocity": 64,
                "duration": 0.0863636,
                "tempo": 120.0
            },
            {
                "start_time": 48.5886364,
                "end_time": 48.675,
                "pitch": 87,
                "velocity": 64,
                "duration": 0.0863636,
                "tempo": 120.0
            },
            {
                "start_time": 48.675,
                "end_time": 48.8090909,
                "pitch": 80,
                "velocity": 64,
                "duration": 0.1340909,
                "tempo": 120.0
            },
            {
                "start_time": 48.8090909,
                "end_time": 48.8909091,
                "pitch": 82,
                "velocity": 64,
                "duration": 0.0818182,
                "tempo": 120.0
            },
            {
                "start_time": 48.925,
                "end_time": 49.0090909,
                "pitch": 85,
                "velocity": 64,
                "duration": 0.0840909,
                "tempo": 120.0
            },
            {
                "start_time": 49.0590909,
                "end_time": 49.1431818,
                "pitch": 87,
                "velocity": 64,
                "duration": 0.0840909,
                "tempo": 120.0
            },
            {
                "start_time": 49.1431818,
                "end_time": 49.3636364,
                "pitch": 87,
                "velocity": 64,
                "duration": 0.2204545,
                "tempo": 120.0
            },
            {
                "start_time": 49.4,
                "end_time": 49.4840909,
                "pitch": 80,
                "velocity": 64,
                "duration": 0.0840909,
                "tempo": 120.0
            },
            {
                "start_time": 49.4840909,
                "end_time": 49.5704545,
                "pitch": 82,
                "velocity": 64,
                "duration": 0.0863636,
                "tempo": 120.0
            },
            {
                "start_time": 49.6022727,
                "end_time": 49.6977273,
                "pitch": 85,
                "velocity": 64,
                "duration": 0.0954545,
                "tempo": 120.0
            },
            {
                "start_time": 49.7295455,
                "end_time": 49.8113636,
                "pitch": 87,
                "velocity": 64,
                "duration": 0.0818182,
                "tempo": 120.0
            },
            {
                "start_time": 49.8113636,
                "end_time": 50.0181818,
                "pitch": 87,
                "velocity": 64,
                "duration": 0.2068182,
                "tempo": 120.0
            },
            {
                "start_time": 50.0522727,
                "end_time": 50.1386364,
                "pitch": 80,
                "velocity": 64,
                "duration": 0.0863636,
                "tempo": 120.0
            },
            {
                "start_time": 50.1386364,
                "end_time": 50.275,
                "pitch": 82,
                "velocity": 64,
                "duration": 0.1363636,
                "tempo": 120.0
            },
            {
                "start_time": 50.275,
                "end_time": 50.3590909,
                "pitch": 85,
                "velocity": 64,
                "duration": 0.0840909,
                "tempo": 120.0
            },
            {
                "start_time": 50.3931818,
                "end_time": 50.4795455,
                "pitch": 87,
                "velocity": 64,
                "duration": 0.0863636,
                "tempo": 120.0
            },
            {
                "start_time": 50.4795455,
                "end_time": 50.6136364,
                "pitch": 80,
                "velocity": 64,
                "duration": 0.1340909,
                "tempo": 120.0
            },
            {
                "start_time": 50.6136364,
                "end_time": 50.6977273,
                "pitch": 82,
                "velocity": 64,
                "duration": 0.0840909,
                "tempo": 120.0
            },
            {
                "start_time": 50.7295455,
                "end_time": 50.8136364,
                "pitch": 85,
                "velocity": 64,
                "duration": 0.0840909,
                "tempo": 120.0
            },
            {
                "start_time": 50.8636364,
                "end_time": 50.9477273,
                "pitch": 87,
                "velocity": 64,
                "duration": 0.0840909,
                "tempo": 120.0
            },
            {
                "start_time": 50.9477273,
                "end_time": 51.1704545,
                "pitch": 87,
                "velocity": 64,
                "duration": 0.2227273,
                "tempo": 120.0
            },
            {
                "start_time": 51.2045455,
                "end_time": 51.2909091,
                "pitch": 80,
                "velocity": 64,
                "duration": 0.0863636,
                "tempo": 120.0
            },
            {
                "start_time": 51.2909091,
                "end_time": 51.375,
                "pitch": 82,
                "velocity": 64,
                "duration": 0.0840909,
                "tempo": 120.0
            },
            {
                "start_time": 51.4068182,
                "end_time": 51.5045455,
                "pitch": 85,
                "velocity": 64,
                "duration": 0.0977273,
                "tempo": 120.0
            },
            {
                "start_time": 51.5363636,
                "end_time": 51.6159091,
                "pitch": 87,
                "velocity": 64,
                "duration": 0.0795455,
                "tempo": 120.0
            },
            {
                "start_time": 51.6159091,
                "end_time": 51.8227273,
                "pitch": 87,
                "velocity": 64,
                "duration": 0.2068182,
                "tempo": 120.0
            },
            {
                "start_time": 51.8568182,
                "end_time": 51.9431818,
                "pitch": 80,
                "velocity": 64,
                "duration": 0.0863636,
                "tempo": 120.0
            },
            {
                "start_time": 51.9431818,
                "end_time": 52.0795455,
                "pitch": 82,
                "velocity": 64,
                "duration": 0.1363636,
                "tempo": 120.0
            },
            {
                "start_time": 52.0795455,
                "end_time": 52.1659091,
                "pitch": 85,
                "velocity": 64,
                "duration": 0.0863636,
                "tempo": 120.0
            },
            {
                "start_time": 52.2,
                "end_time": 52.2840909,
                "pitch": 87,
                "velocity": 64,
                "duration": 0.0840909,
                "tempo": 120.0
            },
            {
                "start_time": 52.2840909,
                "end_time": 52.4181818,
                "pitch": 80,
                "velocity": 64,
                "duration": 0.1340909,
                "tempo": 120.0
            },
            {
                "start_time": 52.4181818,
                "end_time": 52.5022727,
                "pitch": 82,
                "velocity": 64,
                "duration": 0.0840909,
                "tempo": 120.0
            },
            {
                "start_time": 52.5363636,
                "end_time": 52.6204545,
                "pitch": 85,
                "velocity": 64,
                "duration": 0.0840909,
                "tempo": 120.0
            },
            {
                "start_time": 52.6704545,
                "end_time": 52.7522727,
                "pitch": 87,
                "velocity": 64,
                "duration": 0.0818182,
                "tempo": 120.0
            },
            {
                "start_time": 52.7522727,
                "end_time": 52.975,
                "pitch": 87,
                "velocity": 64,
                "duration": 0.2227273,
                "tempo": 120.0
            },
            {
                "start_time": 53.0090909,
                "end_time": 53.0954545,
                "pitch": 80,
                "velocity": 64,
                "duration": 0.0863636,
                "tempo": 120.0
            },
            {
                "start_time": 53.0954545,
                "end_time": 53.1818182,
                "pitch": 82,
                "velocity": 64,
                "duration": 0.0863636,
                "tempo": 120.0
            },
            {
                "start_time": 53.2136364,
                "end_time": 53.3090909,
                "pitch": 85,
                "velocity": 64,
                "duration": 0.0954545,
                "tempo": 120.0
            },
            {
                "start_time": 53.3409091,
                "end_time": 53.4204545,
                "pitch": 87,
                "velocity": 64,
                "duration": 0.0795455,
                "tempo": 120.0
            },
            {
                "start_time": 53.4204545,
                "end_time": 53.6295455,
                "pitch": 87,
                "velocity": 64,
                "duration": 0.2090909,
                "tempo": 120.0
            },
            {
                "start_time": 53.6636364,
                "end_time": 53.7477273,
                "pitch": 80,
                "velocity": 64,
                "duration": 0.0840909,
                "tempo": 120.0
            },
            {
                "start_time": 53.7477273,
                "end_time": 53.8863636,
                "pitch": 82,
                "velocity": 64,
                "duration": 0.1386364,
                "tempo": 120.0
            },
            {
                "start_time": 53.8863636,
                "end_time": 53.9704545,
                "pitch": 85,
                "velocity": 64,
                "duration": 0.0840909,
                "tempo": 120.0
            },
            {
                "start_time": 54.0045455,
                "end_time": 54.0909091,
                "pitch": 87,
                "velocity": 64,
                "duration": 0.0863636,
                "tempo": 120.0
            },
            {
                "start_time": 57.7022727,
                "end_time": 57.8340909,
                "pitch": 75,
                "velocity": 64,
                "duration": 0.1318182,
                "tempo": 120.0
            },
            {
                "start_time": 57.8340909,
                "end_time": 57.9181818,
                "pitch": 77,
                "velocity": 64,
                "duration": 0.0840909,
                "tempo": 120.0
            },
            {
                "start_time": 57.9522727,
                "end_time": 58.0363636,
                "pitch": 80,
                "velocity": 64,
                "duration": 0.0840909,
                "tempo": 120.0
            },
            {
                "start_time": 58.0863636,
                "end_time": 58.1704545,
                "pitch": 82,
                "velocity": 64,
                "duration": 0.0840909,
                "tempo": 120.0
            },
            {
                "start_time": 58.1704545,
                "end_time": 58.3909091,
                "pitch": 82,
                "velocity": 64,
                "duration": 0.2204545,
                "tempo": 120.0
            },
            {
                "start_time": 58.425,
                "end_time": 58.5113636,
                "pitch": 75,
                "velocity": 64,
                "duration": 0.0863636,
                "tempo": 120.0
            },
            {
                "start_time": 58.5113636,
                "end_time": 58.5977273,
                "pitch": 77,
                "velocity": 64,
                "duration": 0.0863636,
                "tempo": 120.0
            },
            {
                "start_time": 58.6295455,
                "end_time": 58.725,
                "pitch": 80,
                "velocity": 64,
                "duration": 0.0954545,
                "tempo": 120.0
            },
            {
                "start_time": 58.7568182,
                "end_time": 58.8363636,
                "pitch": 82,
                "velocity": 64,
                "duration": 0.0795455,
                "tempo": 120.0
            },
            {
                "start_time": 58.8363636,
                "end_time": 59.0454545,
                "pitch": 82,
                "velocity": 64,
                "duration": 0.2090909,
                "tempo": 120.0
            },
            {
                "start_time": 59.0795455,
                "end_time": 59.1659091,
                "pitch": 75,
                "velocity": 64,
                "duration": 0.0863636,
                "tempo": 120.0
            },
            {
                "start_time": 59.1659091,
                "end_time": 59.3022727,
                "pitch": 77,
                "velocity": 64,
                "duration": 0.1363636,
                "tempo": 120.0
            },
            {
                "start_time": 59.3022727,
                "end_time": 59.3863636,
                "pitch": 80,
                "velocity": 64,
                "duration": 0.0840909,
                "tempo": 120.0
            },
            {
                "start_time": 59.4204545,
                "end_time": 59.5068182,
                "pitch": 82,
                "velocity": 64,
                "duration": 0.0863636,
                "tempo": 120.0
            },
            {
                "start_time": 59.5068182,
                "end_time": 59.6363636,
                "pitch": 75,
                "velocity": 64,
                "duration": 0.1295455,
                "tempo": 120.0
            },
            {
                "start_time": 59.6363636,
                "end_time": 59.7181818,
                "pitch": 77,
                "velocity": 64,
                "duration": 0.0818182,
                "tempo": 120.0
            },
            {
                "start_time": 59.7522727,
                "end_time": 59.8340909,
                "pitch": 80,
                "velocity": 64,
                "duration": 0.0818182,
                "tempo": 120.0
            },
            {
                "start_time": 59.8818182,
                "end_time": 59.9636364,
                "pitch": 82,
                "velocity": 64,
                "duration": 0.0818182,
                "tempo": 120.0
            },
            {
                "start_time": 59.9636364,
                "end_time": 60.1909091,
                "pitch": 82,
                "velocity": 64,
                "duration": 0.2272727,
                "tempo": 120.0
            },
            {
                "start_time": 60.2272727,
                "end_time": 60.3136364,
                "pitch": 75,
                "velocity": 64,
                "duration": 0.0863636,
                "tempo": 120.0
            },
            {
                "start_time": 60.3136364,
                "end_time": 60.4022727,
                "pitch": 77,
                "velocity": 64,
                "duration": 0.0886364,
                "tempo": 120.0
            },
            {
                "start_time": 60.4340909,
                "end_time": 60.5318182,
                "pitch": 80,
                "velocity": 64,
                "duration": 0.0977273,
                "tempo": 120.0
            },
            {
                "start_time": 60.5636364,
                "end_time": 60.6431818,
                "pitch": 82,
                "velocity": 64,
                "duration": 0.0795455,
                "tempo": 120.0
            },
            {
                "start_time": 60.6431818,
                "end_time": 60.85,
                "pitch": 82,
                "velocity": 64,
                "duration": 0.2068182,
                "tempo": 120.0
            },
            {
                "start_time": 60.8840909,
                "end_time": 60.9704545,
                "pitch": 75,
                "velocity": 64,
                "duration": 0.0863636,
                "tempo": 120.0
            },
            {
                "start_time": 60.9704545,
                "end_time": 61.1068182,
                "pitch": 77,
                "velocity": 64,
                "duration": 0.1363636,
                "tempo": 120.0
            },
            {
                "start_time": 61.1068182,
                "end_time": 61.1931818,
                "pitch": 80,
                "velocity": 64,
                "duration": 0.0863636,
                "tempo": 120.0
            },
            {
                "start_time": 61.2272727,
                "end_time": 61.3113636,
                "pitch": 82,
                "velocity": 64,
                "duration": 0.0840909,
                "tempo": 120.0
            },
            {
                "start_time": 61.3113636,
                "end_time": 61.4431818,
                "pitch": 75,
                "velocity": 64,
                "duration": 0.1318182,
                "tempo": 120.0
            },
            {
                "start_time": 61.4431818,
                "end_time": 61.525,
                "pitch": 77,
                "velocity": 64,
                "duration": 0.0818182,
                "tempo": 120.0
            },
            {
                "start_time": 61.5568182,
                "end_time": 61.6386364,
                "pitch": 80,
                "velocity": 64,
                "duration": 0.0818182,
                "tempo": 120.0
            },
            {
                "start_time": 61.6886364,
                "end_time": 61.7704545,
                "pitch": 82,
                "velocity": 64,
                "duration": 0.0818182,
                "tempo": 120.0
            },
            {
                "start_time": 61.7704545,
                "end_time": 61.9977273,
                "pitch": 82,
                "velocity": 64,
                "duration": 0.2272727,
                "tempo": 120.0
            },
            {
                "start_time": 62.0318182,
                "end_time": 62.1204545,
                "pitch": 75,
                "velocity": 64,
                "duration": 0.0886364,
                "tempo": 120.0
            },
            {
                "start_time": 62.1204545,
                "end_time": 62.2068182,
                "pitch": 77,
                "velocity": 64,
                "duration": 0.0863636,
                "tempo": 120.0
            },
            {
                "start_time": 62.2409091,
                "end_time": 62.3363636,
                "pitch": 80,
                "velocity": 64,
                "duration": 0.0954545,
                "tempo": 120.0
            },
            {
                "start_time": 62.3681818,
                "end_time": 62.4477273,
                "pitch": 82,
                "velocity": 64,
                "duration": 0.0795455,
                "tempo": 120.0
            },
            {
                "start_time": 62.4477273,
                "end_time": 62.6568182,
                "pitch": 82,
                "velocity": 64,
                "duration": 0.2090909,
                "tempo": 120.0
            },
            {
                "start_time": 62.6886364,
                "end_time": 62.775,
                "pitch": 75,
                "velocity": 64,
                "duration": 0.0863636,
                "tempo": 120.0
            },
            {
                "start_time": 62.775,
                "end_time": 62.9113636,
                "pitch": 77,
                "velocity": 64,
                "duration": 0.1363636,
                "tempo": 120.0
            },
            {
                "start_time": 62.9113636,
                "end_time": 62.9977273,
                "pitch": 80,
                "velocity": 64,
                "duration": 0.0863636,
                "tempo": 120.0
            },
            {
                "start_time": 63.0318182,
                "end_time": 63.1159091,
                "pitch": 82,
                "velocity": 64,
                "duration": 0.0840909,
                "tempo": 120.0
            },
            {
                "start_time": 63.1159091,
                "end_time": 63.2477273,
                "pitch": 75,
                "velocity": 64,
                "duration": 0.1318182,
                "tempo": 120.0
            },
            {
                "start_time": 63.2477273,
                "end_time": 63.3295455,
                "pitch": 77,
                "velocity": 64,
                "duration": 0.0818182,
                "tempo": 120.0
            },
            {
                "start_time": 63.3613636,
                "end_time": 63.4431818,
                "pitch": 80,
                "velocity": 64,
                "duration": 0.0818182,
                "tempo": 120.0
            },
            {
                "start_time": 63.4931818,
                "end_time": 63.575,
                "pitch": 82,
                "velocity": 64,
                "duration": 0.0818182,
                "tempo": 120.0
            },
            {
                "start_time": 63.575,
                "end_time": 63.8022727,
                "pitch": 82,
                "velocity": 64,
                "duration": 0.2272727,
                "tempo": 120.0
            },
            {
                "start_time": 63.8363636,
                "end_time": 63.925,
                "pitch": 75,
                "velocity": 64,
                "duration": 0.0886364,
                "tempo": 120.0
            },
            {
                "start_time": 63.925,
                "end_time": 64.0113636,
                "pitch": 77,
                "velocity": 64,
                "duration": 0.0863636,
                "tempo": 120.0
            },
            {
                "start_time": 64.0454545,
                "end_time": 64.1409091,
                "pitch": 80,
                "velocity": 64,
                "duration": 0.0954545,
                "tempo": 120.0
            },
            {
                "start_time": 64.1727273,
                "end_time": 64.2522727,
                "pitch": 82,
                "velocity": 64,
                "duration": 0.0795455,
                "tempo": 120.0
            },
            {
                "start_time": 64.2522727,
                "end_time": 64.4613636,
                "pitch": 82,
                "velocity": 64,
                "duration": 0.2090909,
                "tempo": 120.0
            },
            {
                "start_time": 64.4954545,
                "end_time": 64.5772727,
                "pitch": 75,
                "velocity": 64,
                "duration": 0.0818182,
                "tempo": 120.0
            },
            {
                "start_time": 64.5772727,
                "end_time": 64.7113636,
                "pitch": 77,
                "velocity": 64,
                "duration": 0.1340909,
                "tempo": 120.0
            },
            {
                "start_time": 64.7113636,
                "end_time": 64.7954545,
                "pitch": 80,
                "velocity": 64,
                "duration": 0.0840909,
                "tempo": 120.0
            },
            {
                "start_time": 64.8295455,
                "end_time": 64.9136364,
                "pitch": 82,
                "velocity": 64,
                "duration": 0.0840909,
                "tempo": 120.0
            },
            {
                "start_time": 64.9136364,
                "end_time": 65.0454545,
                "pitch": 80,
                "velocity": 64,
                "duration": 0.1318182,
                "tempo": 120.0
            },
            {
                "start_time": 65.0454545,
                "end_time": 65.1295455,
                "pitch": 82,
                "velocity": 64,
                "duration": 0.0840909,
                "tempo": 120.0
            },
            {
                "start_time": 65.1636364,
                "end_time": 65.2477273,
                "pitch": 85,
                "velocity": 64,
                "duration": 0.0840909,
                "tempo": 120.0
            },
            {
                "start_time": 65.2977273,
                "end_time": 65.3795455,
                "pitch": 87,
                "velocity": 64,
                "duration": 0.0818182,
                "tempo": 120.0
            },
            {
                "start_time": 65.3795455,
                "end_time": 65.6090909,
                "pitch": 87,
                "velocity": 64,
                "duration": 0.2295455,
                "tempo": 120.0
            },
            {
                "start_time": 65.6431818,
                "end_time": 65.7318182,
                "pitch": 80,
                "velocity": 64,
                "duration": 0.0886364,
                "tempo": 120.0
            },
            {
                "start_time": 65.7318182,
                "end_time": 65.8181818,
                "pitch": 82,
                "velocity": 64,
                "duration": 0.0863636,
                "tempo": 120.0
            },
            {
                "start_time": 65.85,
                "end_time": 65.9477273,
                "pitch": 85,
                "velocity": 64,
                "duration": 0.0977273,
                "tempo": 120.0
            },
            {
                "start_time": 65.9795455,
                "end_time": 66.0590909,
                "pitch": 87,
                "velocity": 64,
                "duration": 0.0795455,
                "tempo": 120.0
            },
            {
                "start_time": 66.0590909,
                "end_time": 66.2659091,
                "pitch": 87,
                "velocity": 64,
                "duration": 0.2068182,
                "tempo": 120.0
            },
            {
                "start_time": 66.3,
                "end_time": 66.3863636,
                "pitch": 80,
                "velocity": 64,
                "duration": 0.0863636,
                "tempo": 120.0
            },
            {
                "start_time": 66.3863636,
                "end_time": 66.5227273,
                "pitch": 82,
                "velocity": 64,
                "duration": 0.1363636,
                "tempo": 120.0
            },
            {
                "start_time": 66.5227273,
                "end_time": 66.6090909,
                "pitch": 85,
                "velocity": 64,
                "duration": 0.0863636,
                "tempo": 120.0
            },
            {
                "start_time": 66.6431818,
                "end_time": 66.7272727,
                "pitch": 87,
                "velocity": 64,
                "duration": 0.0840909,
                "tempo": 120.0
            },
            {
                "start_time": 66.7272727,
                "end_time": 66.8613636,
                "pitch": 80,
                "velocity": 64,
                "duration": 0.1340909,
                "tempo": 120.0
            },
            {
                "start_time": 66.8613636,
                "end_time": 66.9454545,
                "pitch": 82,
                "velocity": 64,
                "duration": 0.0840909,
                "tempo": 120.0
            },
            {
                "start_time": 66.9795455,
                "end_time": 67.0636364,
                "pitch": 85,
                "velocity": 64,
                "duration": 0.0840909,
                "tempo": 120.0
            },
            {
                "start_time": 67.1136364,
                "end_time": 67.1954545,
                "pitch": 87,
                "velocity": 64,
                "duration": 0.0818182,
                "tempo": 120.0
            },
            {
                "start_time": 67.1954545,
                "end_time": 67.4181818,
                "pitch": 87,
                "velocity": 64,
                "duration": 0.2227273,
                "tempo": 120.0
            },
            {
                "start_time": 67.4522727,
                "end_time": 67.5386364,
                "pitch": 80,
                "velocity": 64,
                "duration": 0.0863636,
                "tempo": 120.0
            },
            {
                "start_time": 67.5386364,
                "end_time": 67.6227273,
                "pitch": 82,
                "velocity": 64,
                "duration": 0.0840909,
                "tempo": 120.0
            },
            {
                "start_time": 67.6568182,
                "end_time": 67.7522727,
                "pitch": 85,
                "velocity": 64,
                "duration": 0.0954545,
                "tempo": 120.0
            },
            {
                "start_time": 67.7840909,
                "end_time": 67.8636364,
                "pitch": 87,
                "velocity": 64,
                "duration": 0.0795455,
                "tempo": 120.0
            },
            {
                "start_time": 67.8636364,
                "end_time": 68.0727273,
                "pitch": 87,
                "velocity": 64,
                "duration": 0.2090909,
                "tempo": 120.0
            },
            {
                "start_time": 68.1068182,
                "end_time": 68.1909091,
                "pitch": 80,
                "velocity": 64,
                "duration": 0.0840909,
                "tempo": 120.0
            },
            {
                "start_time": 68.1909091,
                "end_time": 68.3295455,
                "pitch": 82,
                "velocity": 64,
                "duration": 0.1386364,
                "tempo": 120.0
            },
            {
                "start_time": 68.3295455,
                "end_time": 68.4136364,
                "pitch": 85,
                "velocity": 64,
                "duration": 0.0840909,
                "tempo": 120.0
            },
            {
                "start_time": 68.4477273,
                "end_time": 68.5340909,
                "pitch": 87,
                "velocity": 64,
                "duration": 0.0863636,
                "tempo": 120.0
            },
            {
                "start_time": 68.5340909,
                "end_time": 68.6681818,
                "pitch": 80,
                "velocity": 64,
                "duration": 0.1340909,
                "tempo": 120.0
            },
            {
                "start_time": 68.6681818,
                "end_time": 68.75,
                "pitch": 82,
                "velocity": 64,
                "duration": 0.0818182,
                "tempo": 120.0
            },
            {
                "start_time": 68.7840909,
                "end_time": 68.8681818,
                "pitch": 85,
                "velocity": 64,
                "duration": 0.0840909,
                "tempo": 120.0
            },
            {
                "start_time": 68.9181818,
                "end_time": 69.0022727,
                "pitch": 87,
                "velocity": 64,
                "duration": 0.0840909,
                "tempo": 120.0
            },
            {
                "start_time": 69.0022727,
                "end_time": 69.225,
                "pitch": 87,
                "velocity": 64,
                "duration": 0.2227273,
                "tempo": 120.0
            },
            {
                "start_time": 69.2590909,
                "end_time": 69.3431818,
                "pitch": 80,
                "velocity": 64,
                "duration": 0.0840909,
                "tempo": 120.0
            },
            {
                "start_time": 69.3431818,
                "end_time": 69.4295455,
                "pitch": 82,
                "velocity": 64,
                "duration": 0.0863636,
                "tempo": 120.0
            },
            {
                "start_time": 69.4613636,
                "end_time": 69.5568182,
                "pitch": 85,
                "velocity": 64,
                "duration": 0.0954545,
                "tempo": 120.0
            },
            {
                "start_time": 69.5909091,
                "end_time": 69.6704545,
                "pitch": 87,
                "velocity": 64,
                "duration": 0.0795455,
                "tempo": 120.0
            },
            {
                "start_time": 69.6704545,
                "end_time": 69.8772727,
                "pitch": 87,
                "velocity": 64,
                "duration": 0.2068182,
                "tempo": 120.0
            },
            {
                "start_time": 69.9113636,
                "end_time": 69.9977273,
                "pitch": 80,
                "velocity": 64,
                "duration": 0.0863636,
                "tempo": 120.0
            },
            {
                "start_time": 69.9977273,
                "end_time": 70.1340909,
                "pitch": 82,
                "velocity": 64,
                "duration": 0.1363636,
                "tempo": 120.0
            },
            {
                "start_time": 70.1340909,
                "end_time": 70.2204545,
                "pitch": 85,
                "velocity": 64,
                "duration": 0.0863636,
                "tempo": 120.0
            },
            {
                "start_time": 70.2545455,
                "end_time": 70.3386364,
                "pitch": 87,
                "velocity": 64,
                "duration": 0.0840909,
                "tempo": 120.0
            },
            {
                "start_time": 70.3386364,
                "end_time": 70.4727273,
                "pitch": 80,
                "velocity": 64,
                "duration": 0.1340909,
                "tempo": 120.0
            },
            {
                "start_time": 70.4727273,
                "end_time": 70.5568182,
                "pitch": 82,
                "velocity": 64,
                "duration": 0.0840909,
                "tempo": 120.0
            },
            {
                "start_time": 70.5909091,
                "end_time": 70.6727273,
                "pitch": 85,
                "velocity": 64,
                "duration": 0.0818182,
                "tempo": 120.0
            },
            {
                "start_time": 70.7227273,
                "end_time": 70.8068182,
                "pitch": 87,
                "velocity": 64,
                "duration": 0.0840909,
                "tempo": 120.0
            },
            {
                "start_time": 70.8068182,
                "end_time": 71.0295455,
                "pitch": 87,
                "velocity": 64,
                "duration": 0.2227273,
                "tempo": 120.0
            },
            {
                "start_time": 71.0636364,
                "end_time": 71.15,
                "pitch": 80,
                "velocity": 64,
                "duration": 0.0863636,
                "tempo": 120.0
            },
            {
                "start_time": 71.15,
                "end_time": 71.2340909,
                "pitch": 82,
                "velocity": 64,
                "duration": 0.0840909,
                "tempo": 120.0
            },
            {
                "start_time": 71.2681818,
                "end_time": 71.3636364,
                "pitch": 85,
                "velocity": 64,
                "duration": 0.0954545,
                "tempo": 120.0
            },
            {
                "start_time": 71.3954545,
                "end_time": 71.475,
                "pitch": 87,
                "velocity": 64,
                "duration": 0.0795455,
                "tempo": 120.0
            },
            {
                "start_time": 71.475,
                "end_time": 71.6840909,
                "pitch": 87,
                "velocity": 64,
                "duration": 0.2090909,
                "tempo": 120.0
            },
            {
                "start_time": 71.7181818,
                "end_time": 71.8022727,
                "pitch": 80,
                "velocity": 64,
                "duration": 0.0840909,
                "tempo": 120.0
            },
            {
                "start_time": 71.8022727,
                "end_time": 71.9386364,
                "pitch": 82,
                "velocity": 64,
                "duration": 0.1363636,
                "tempo": 120.0
            },
            {
                "start_time": 71.9386364,
                "end_time": 72.025,
                "pitch": 85,
                "velocity": 64,
                "duration": 0.0863636,
                "tempo": 120.0
            },
            {
                "start_time": 72.0590909,
                "end_time": 72.1454545,
                "pitch": 87,
                "velocity": 64,
                "duration": 0.0863636,
                "tempo": 120.0
            }
        ],
        "Oboe": [
            {
                "start_time": 0.0,
                "end_time": 0.0590909,
                "pitch": 76,
                "velocity": 40,
                "duration": 0.0590909,
                "tempo": 120.0
            },
            {
                "start_time": 0.075,
                "end_time": 0.1340909,
                "pitch": 70,
                "velocity": 40,
                "duration": 0.0590909,
                "tempo": 120.0
            },
            {
                "start_time": 0.1477273,
                "end_time": 0.2363636,
                "pitch": 73,
                "velocity": 40,
                "duration": 0.0886364,
                "tempo": 120.0
            },
            {
                "start_time": 0.2522727,
                "end_time": 0.3568182,
                "pitch": 75,
                "velocity": 40,
                "duration": 0.1045455,
                "tempo": 120.0
            },
            {
                "start_time": 0.3704545,
                "end_time": 0.4386364,
                "pitch": 77,
                "velocity": 40,
                "duration": 0.0681818,
                "tempo": 120.0
            },
            {
                "start_time": 0.4545455,
                "end_time": 0.6954545,
                "pitch": 77,
                "velocity": 40,
                "duration": 0.2409091,
                "tempo": 120.0
            },
            {
                "start_time": 0.7113636,
                "end_time": 0.7795455,
                "pitch": 70,
                "velocity": 40,
                "duration": 0.0681818,
                "tempo": 120.0
            },
            {
                "start_time": 0.7977273,
                "end_time": 0.9159091,
                "pitch": 73,
                "velocity": 40,
                "duration": 0.1181818,
                "tempo": 120.0
            },
            {
                "start_time": 0.9318182,
                "end_time": 1.0318182,
                "pitch": 75,
                "velocity": 40,
                "duration": 0.1,
                "tempo": 120.0
            },
            {
                "start_time": 1.05,
                "end_time": 1.1159091,
                "pitch": 77,
                "velocity": 40,
                "duration": 0.0659091,
                "tempo": 120.0
            },
            {
                "start_time": 1.1318182,
                "end_time": 1.3681818,
                "pitch": 77,
                "velocity": 40,
                "duration": 0.2363636,
                "tempo": 120.0
            },
            {
                "start_time": 1.3863636,
                "end_time": 1.4545455,
                "pitch": 70,
                "velocity": 40,
                "duration": 0.0681818,
                "tempo": 120.0
            },
            {
                "start_time": 1.5227273,
                "end_time": 1.5909091,
                "pitch": 73,
                "velocity": 40,
                "duration": 0.0681818,
                "tempo": 120.0
            },
            {
                "start_time": 1.6068182,
                "end_time": 1.7090909,
                "pitch": 75,
                "velocity": 40,
                "duration": 0.1022727,
                "tempo": 120.0
            },
            {
                "start_time": 1.7272727,
                "end_time": 1.8409091,
                "pitch": 77,
                "velocity": 40,
                "duration": 0.1136364,
                "tempo": 120.0
            },
            {
                "start_time": 1.8568182,
                "end_time": 1.9204545,
                "pitch": 70,
                "velocity": 40,
                "duration": 0.0636364,
                "tempo": 120.0
            },
            {
                "start_time": 1.9363636,
                "end_time": 2.0318182,
                "pitch": 73,
                "velocity": 40,
                "duration": 0.0954545,
                "tempo": 120.0
            },
            {
                "start_time": 2.0477273,
                "end_time": 2.1590909,
                "pitch": 75,
                "velocity": 40,
                "duration": 0.1113636,
                "tempo": 120.0
            },
            {
                "start_time": 2.175,
                "end_time": 2.2431818,
                "pitch": 77,
                "velocity": 40,
                "duration": 0.0681818,
                "tempo": 120.0
            },
            {
                "start_time": 2.2613636,
                "end_time": 2.5,
                "pitch": 77,
                "velocity": 40,
                "duration": 0.2386364,
                "tempo": 120.0
            },
            {
                "start_time": 2.5181818,
                "end_time": 2.5863636,
                "pitch": 70,
                "velocity": 40,
                "duration": 0.0681818,
                "tempo": 120.0
            },
            {
                "start_time": 2.6022727,
                "end_time": 2.7204545,
                "pitch": 73,
                "velocity": 40,
                "duration": 0.1181818,
                "tempo": 120.0
            },
            {
                "start_time": 2.7386364,
                "end_time": 2.8386364,
                "pitch": 75,
                "velocity": 40,
                "duration": 0.1,
                "tempo": 120.0
            },
            {
                "start_time": 2.8545455,
                "end_time": 2.9204545,
                "pitch": 77,
                "velocity": 40,
                "duration": 0.0659091,
                "tempo": 120.0
            },
            {
                "start_time": 2.9386364,
                "end_time": 3.1727273,
                "pitch": 77,
                "velocity": 40,
                "duration": 0.2340909,
                "tempo": 120.0
            },
            {
                "start_time": 3.1909091,
                "end_time": 3.2590909,
                "pitch": 70,
                "velocity": 40,
                "duration": 0.0681818,
                "tempo": 120.0
            },
            {
                "start_time": 3.3272727,
                "end_time": 3.3954545,
                "pitch": 73,
                "velocity": 40,
                "duration": 0.0681818,
                "tempo": 120.0
            },
            {
                "start_time": 3.4136364,
                "end_time": 3.5159091,
                "pitch": 75,
                "velocity": 40,
                "duration": 0.1022727,
                "tempo": 120.0
            },
            {
                "start_time": 3.5318182,
                "end_time": 3.6454545,
                "pitch": 77,
                "velocity": 40,
                "duration": 0.1136364,
                "tempo": 120.0
            },
            {
                "start_time": 3.6613636,
                "end_time": 3.725,
                "pitch": 70,
                "velocity": 40,
                "duration": 0.0636364,
                "tempo": 120.0
            },
            {
                "start_time": 3.7409091,
                "end_time": 3.8363636,
                "pitch": 73,
                "velocity": 40,
                "duration": 0.0954545,
                "tempo": 120.0
            },
            {
                "start_time": 3.8522727,
                "end_time": 3.9659091,
                "pitch": 75,
                "velocity": 40,
                "duration": 0.1136364,
                "tempo": 120.0
            },
            {
                "start_time": 3.9818182,
                "end_time": 4.05,
                "pitch": 77,
                "velocity": 40,
                "duration": 0.0681818,
                "tempo": 120.0
            },
            {
                "start_time": 4.0681818,
                "end_time": 4.3113636,
                "pitch": 77,
                "velocity": 40,
                "duration": 0.2431818,
                "tempo": 120.0
            },
            {
                "start_time": 4.3295455,
                "end_time": 4.4,
                "pitch": 70,
                "velocity": 40,
                "duration": 0.0704545,
                "tempo": 120.0
            },
            {
                "start_time": 4.4181818,
                "end_time": 4.5340909,
                "pitch": 73,
                "velocity": 40,
                "duration": 0.1159091,
                "tempo": 120.0
            },
            {
                "start_time": 4.55,
                "end_time": 4.6477273,
                "pitch": 75,
                "velocity": 40,
                "duration": 0.0977273,
                "tempo": 120.0
            },
            {
                "start_time": 4.6659091,
                "end_time": 4.7295455,
                "pitch": 77,
                "velocity": 40,
                "duration": 0.0636364,
                "tempo": 120.0
            },
            {
                "start_time": 4.7477273,
                "end_time": 4.9795455,
                "pitch": 77,
                "velocity": 40,
                "duration": 0.2318182,
                "tempo": 120.0
            },
            {
                "start_time": 4.9954545,
                "end_time": 5.0636364,
                "pitch": 70,
                "velocity": 40,
                "duration": 0.0681818,
                "tempo": 120.0
            },
            {
                "start_time": 5.1318182,
                "end_time": 5.2022727,
                "pitch": 73,
                "velocity": 40,
                "duration": 0.0704545,
                "tempo": 120.0
            },
            {
                "start_time": 5.2181818,
                "end_time": 5.3204545,
                "pitch": 75,
                "velocity": 40,
                "duration": 0.1022727,
                "tempo": 120.0
            },
            {
                "start_time": 5.3386364,
                "end_time": 5.45,
                "pitch": 77,
                "velocity": 40,
                "duration": 0.1113636,
                "tempo": 120.0
            },
            {
                "start_time": 5.4659091,
                "end_time": 5.5295455,
                "pitch": 70,
                "velocity": 40,
                "duration": 0.0636364,
                "tempo": 120.0
            },
            {
                "start_time": 5.5454545,
                "end_time": 5.6431818,
                "pitch": 73,
                "velocity": 40,
                "duration": 0.0977273,
                "tempo": 120.0
            },
            {
                "start_time": 5.6590909,
                "end_time": 5.7704545,
                "pitch": 75,
                "velocity": 40,
                "duration": 0.1113636,
                "tempo": 120.0
            },
            {
                "start_time": 5.7863636,
                "end_time": 5.8545455,
                "pitch": 77,
                "velocity": 40,
                "duration": 0.0681818,
                "tempo": 120.0
            },
            {
                "start_time": 5.8727273,
                "end_time": 6.1181818,
                "pitch": 77,
                "velocity": 40,
                "duration": 0.2454545,
                "tempo": 120.0
            },
            {
                "start_time": 6.1340909,
                "end_time": 6.2045455,
                "pitch": 70,
                "velocity": 40,
                "duration": 0.0704545,
                "tempo": 120.0
            },
            {
                "start_time": 6.2227273,
                "end_time": 6.3386364,
                "pitch": 73,
                "velocity": 40,
                "duration": 0.1159091,
                "tempo": 120.0
            },
            {
                "start_time": 6.3568182,
                "end_time": 6.4545455,
                "pitch": 75,
                "velocity": 40,
                "duration": 0.0977273,
                "tempo": 120.0
            },
            {
                "start_time": 6.4704545,
                "end_time": 6.5363636,
                "pitch": 77,
                "velocity": 40,
                "duration": 0.0659091,
                "tempo": 120.0
            },
            {
                "start_time": 6.5522727,
                "end_time": 6.7840909,
                "pitch": 77,
                "velocity": 40,
                "duration": 0.2318182,
                "tempo": 120.0
            },
            {
                "start_time": 6.8022727,
                "end_time": 6.8704545,
                "pitch": 70,
                "velocity": 40,
                "duration": 0.0681818,
                "tempo": 120.0
            },
            {
                "start_time": 6.9386364,
                "end_time": 7.0068182,
                "pitch": 73,
                "velocity": 40,
                "duration": 0.0681818,
                "tempo": 120.0
            },
            {
                "start_time": 7.0227273,
                "end_time": 7.125,
                "pitch": 75,
                "velocity": 40,
                "duration": 0.1022727,
                "tempo": 120.0
            },
            {
                "start_time": 7.1431818,
                "end_time": 7.2568182,
                "pitch": 77,
                "velocity": 40,
                "duration": 0.1136364,
                "tempo": 120.0
            },
            {
                "start_time": 7.2727273,
                "end_time": 7.3363636,
                "pitch": 70,
                "velocity": 40,
                "duration": 0.0636364,
                "tempo": 120.0
            },
            {
                "start_time": 7.3522727,
                "end_time": 7.4477273,
                "pitch": 73,
                "velocity": 40,
                "duration": 0.0954545,
                "tempo": 120.0
            },
            {
                "start_time": 7.4636364,
                "end_time": 7.575,
                "pitch": 75,
                "velocity": 40,
                "duration": 0.1113636,
                "tempo": 120.0
            },
            {
                "start_time": 7.5909091,
                "end_time": 7.6613636,
                "pitch": 77,
                "velocity": 40,
                "duration": 0.0704545,
                "tempo": 120.0
            },
            {
                "start_time": 7.6772727,
                "end_time": 7.9227273,
                "pitch": 77,
                "velocity": 40,
                "duration": 0.2454545,
                "tempo": 120.0
            },
            {
                "start_time": 7.9409091,
                "end_time": 8.0113636,
                "pitch": 70,
                "velocity": 40,
                "duration": 0.0704545,
                "tempo": 120.0
            },
            {
                "start_time": 8.0272727,
                "end_time": 8.1454545,
                "pitch": 73,
                "velocity": 40,
                "duration": 0.1181818,
                "tempo": 120.0
            },
            {
                "start_time": 8.1613636,
                "end_time": 8.2590909,
                "pitch": 75,
                "velocity": 40,
                "duration": 0.0977273,
                "tempo": 120.0
            },
            {
                "start_time": 8.275,
                "end_time": 8.3409091,
                "pitch": 77,
                "velocity": 40,
                "duration": 0.0659091,
                "tempo": 120.0
            },
            {
                "start_time": 8.3568182,
                "end_time": 8.5886364,
                "pitch": 77,
                "velocity": 40,
                "duration": 0.2318182,
                "tempo": 120.0
            },
            {
                "start_time": 8.6068182,
                "end_time": 8.675,
                "pitch": 70,
                "velocity": 40,
                "duration": 0.0681818,
                "tempo": 120.0
            },
            {
                "start_time": 8.7431818,
                "end_time": 8.8113636,
                "pitch": 73,
                "velocity": 40,
                "duration": 0.0681818,
                "tempo": 120.0
            },
            {
                "start_time": 8.8295455,
                "end_time": 8.9318182,
                "pitch": 75,
                "velocity": 40,
                "duration": 0.1022727,
                "tempo": 120.0
            },
            {
                "start_time": 8.9477273,
                "end_time": 9.0613636,
                "pitch": 77,
                "velocity": 40,
                "duration": 0.1136364,
                "tempo": 120.0
            },
            {
                "start_time": 9.0772727,
                "end_time": 9.1409091,
                "pitch": 70,
                "velocity": 40,
                "duration": 0.0636364,
                "tempo": 120.0
            },
            {
                "start_time": 9.1568182,
                "end_time": 9.2522727,
                "pitch": 73,
                "velocity": 40,
                "duration": 0.0954545,
                "tempo": 120.0
            },
            {
                "start_time": 9.2681818,
                "end_time": 9.3818182,
                "pitch": 75,
                "velocity": 40,
                "duration": 0.1136364,
                "tempo": 120.0
            },
            {
                "start_time": 9.3977273,
                "end_time": 9.4659091,
                "pitch": 77,
                "velocity": 40,
                "duration": 0.0681818,
                "tempo": 120.0
            },
            {
                "start_time": 9.4840909,
                "end_time": 9.7272727,
                "pitch": 77,
                "velocity": 40,
                "duration": 0.2431818,
                "tempo": 120.0
            },
            {
                "start_time": 9.7454545,
                "end_time": 9.8159091,
                "pitch": 70,
                "velocity": 40,
                "duration": 0.0704545,
                "tempo": 120.0
            },
            {
                "start_time": 9.8340909,
                "end_time": 9.95,
                "pitch": 73,
                "velocity": 40,
                "duration": 0.1159091,
                "tempo": 120.0
            },
            {
                "start_time": 9.9659091,
                "end_time": 10.0636364,
                "pitch": 75,
                "velocity": 40,
                "duration": 0.0977273,
                "tempo": 120.0
            },
            {
                "start_time": 10.0818182,
                "end_time": 10.1454545,
                "pitch": 77,
                "velocity": 40,
                "duration": 0.0636364,
                "tempo": 120.0
            },
            {
                "start_time": 10.1636364,
                "end_time": 10.3954545,
                "pitch": 77,
                "velocity": 40,
                "duration": 0.2318182,
                "tempo": 120.0
            },
            {
                "start_time": 10.4113636,
                "end_time": 10.4795455,
                "pitch": 70,
                "velocity": 40,
                "duration": 0.0681818,
                "tempo": 120.0
            },
            {
                "start_time": 10.5477273,
                "end_time": 10.6159091,
                "pitch": 73,
                "velocity": 40,
                "duration": 0.0681818,
                "tempo": 120.0
            },
            {
                "start_time": 10.6340909,
                "end_time": 10.7363636,
                "pitch": 75,
                "velocity": 40,
                "duration": 0.1022727,
                "tempo": 120.0
            },
            {
                "start_time": 10.7545455,
                "end_time": 10.8659091,
                "pitch": 77,
                "velocity": 40,
                "duration": 0.1113636,
                "tempo": 120.0
            },
            {
                "start_time": 10.8818182,
                "end_time": 10.9454545,
                "pitch": 70,
                "velocity": 40,
                "duration": 0.0636364,
                "tempo": 120.0
            },
            {
                "start_time": 10.9613636,
                "end_time": 11.0590909,
                "pitch": 73,
                "velocity": 40,
                "duration": 0.0977273,
                "tempo": 120.0
            },
            {
                "start_time": 11.075,
                "end_time": 11.1863636,
                "pitch": 75,
                "velocity": 40,
                "duration": 0.1113636,
                "tempo": 120.0
            },
            {
                "start_time": 11.2022727,
                "end_time": 11.2704545,
                "pitch": 77,
                "velocity": 40,
                "duration": 0.0681818,
                "tempo": 120.0
            },
            {
                "start_time": 11.2863636,
                "end_time": 11.5272727,
                "pitch": 77,
                "velocity": 40,
                "duration": 0.2409091,
                "tempo": 120.0
            },
            {
                "start_time": 11.5431818,
                "end_time": 11.6113636,
                "pitch": 70,
                "velocity": 40,
                "duration": 0.0681818,
                "tempo": 120.0
            },
            {
                "start_time": 11.6295455,
                "end_time": 11.7477273,
                "pitch": 73,
                "velocity": 40,
                "duration": 0.1181818,
                "tempo": 120.0
            },
            {
                "start_time": 11.7636364,
                "end_time": 11.8636364,
                "pitch": 75,
                "velocity": 40,
                "duration": 0.1,
                "tempo": 120.0
            },
            {
                "start_time": 11.8818182,
                "end_time": 11.9477273,
                "pitch": 77,
                "velocity": 40,
                "duration": 0.0659091,
                "tempo": 120.0
            },
            {
                "start_time": 11.9636364,
                "end_time": 12.2,
                "pitch": 77,
                "velocity": 40,
                "duration": 0.2363636,
                "tempo": 120.0
            },
            {
                "start_time": 12.2181818,
                "end_time": 12.2863636,
                "pitch": 70,
                "velocity": 40,
                "duration": 0.0681818,
                "tempo": 120.0
            },
            {
                "start_time": 12.3545455,
                "end_time": 12.4227273,
                "pitch": 73,
                "velocity": 40,
                "duration": 0.0681818,
                "tempo": 120.0
            },
            {
                "start_time": 12.4386364,
                "end_time": 12.5409091,
                "pitch": 75,
                "velocity": 40,
                "duration": 0.1022727,
                "tempo": 120.0
            },
            {
                "start_time": 12.5590909,
                "end_time": 12.6727273,
                "pitch": 77,
                "velocity": 40,
                "duration": 0.1136364,
                "tempo": 120.0
            },
            {
                "start_time": 12.6886364,
                "end_time": 12.7522727,
                "pitch": 70,
                "velocity": 40,
                "duration": 0.0636364,
                "tempo": 120.0
            },
            {
                "start_time": 12.7681818,
                "end_time": 12.8636364,
                "pitch": 73,
                "velocity": 40,
                "duration": 0.0954545,
                "tempo": 120.0
            },
            {
                "start_time": 12.8795455,
                "end_time": 12.9909091,
                "pitch": 75,
                "velocity": 40,
                "duration": 0.1113636,
                "tempo": 120.0
            },
            {
                "start_time": 13.0068182,
                "end_time": 13.075,
                "pitch": 77,
                "velocity": 40,
                "duration": 0.0681818,
                "tempo": 120.0
            },
            {
                "start_time": 13.0931818,
                "end_time": 13.3318182,
                "pitch": 77,
                "velocity": 40,
                "duration": 0.2386364,
                "tempo": 120.0
            },
            {
                "start_time": 13.35,
                "end_time": 13.4181818,
                "pitch": 70,
                "velocity": 40,
                "duration": 0.0681818,
                "tempo": 120.0
            },
            {
                "start_time": 13.4340909,
                "end_time": 13.5522727,
                "pitch": 73,
                "velocity": 40,
                "duration": 0.1181818,
                "tempo": 120.0
            },
            {
                "start_time": 13.5681818,
                "end_time": 13.6704545,
                "pitch": 75,
                "velocity": 40,
                "duration": 0.1022727,
                "tempo": 120.0
            },
            {
                "start_time": 13.6863636,
                "end_time": 13.7522727,
                "pitch": 77,
                "velocity": 40,
                "duration": 0.0659091,
                "tempo": 120.0
            },
            {
                "start_time": 13.7704545,
                "end_time": 14.0045455,
                "pitch": 77,
                "velocity": 40,
                "duration": 0.2340909,
                "tempo": 120.0
            },
            {
                "start_time": 14.0227273,
                "end_time": 14.0909091,
                "pitch": 70,
                "velocity": 40,
                "duration": 0.0681818,
                "tempo": 120.0
            },
            {
                "start_time": 14.1590909,
                "end_time": 14.2272727,
                "pitch": 73,
                "velocity": 40,
                "duration": 0.0681818,
                "tempo": 120.0
            },
            {
                "start_time": 14.2454545,
                "end_time": 14.3477273,
                "pitch": 75,
                "velocity": 40,
                "duration": 0.1022727,
                "tempo": 120.0
            },
            {
                "start_time": 14.3636364,
                "end_time": 14.4772727,
                "pitch": 77,
                "velocity": 40,
                "duration": 0.1136364,
                "tempo": 120.0
            },
            {
                "start_time": 14.4931818,
                "end_time": 14.5568182,
                "pitch": 75,
                "velocity": 40,
                "duration": 0.0636364,
                "tempo": 120.0
            },
            {
                "start_time": 14.5727273,
                "end_time": 14.6681818,
                "pitch": 77,
                "velocity": 40,
                "duration": 0.0954545,
                "tempo": 120.0
            },
            {
                "start_time": 14.6840909,
                "end_time": 14.7977273,
                "pitch": 80,
                "velocity": 40,
                "duration": 0.1136364,
                "tempo": 120.0
            },
            {
                "start_time": 14.8136364,
                "end_time": 14.8818182,
                "pitch": 82,
                "velocity": 40,
                "duration": 0.0681818,
                "tempo": 120.0
            },
            {
                "start_time": 14.9,
                "end_time": 15.1431818,
                "pitch": 82,
                "velocity": 40,
                "duration": 0.2431818,
                "tempo": 120.0
            },
            {
                "start_time": 15.1613636,
                "end_time": 15.2318182,
                "pitch": 75,
                "velocity": 40,
                "duration": 0.0704545,
                "tempo": 120.0
            },
            {
                "start_time": 15.25,
                "end_time": 15.3659091,
                "pitch": 77,
                "velocity": 40,
                "duration": 0.1159091,
                "tempo": 120.0
            },
            {
                "start_time": 15.3818182,
                "end_time": 15.4795455,
                "pitch": 80,
                "velocity": 40,
                "duration": 0.0977273,
                "tempo": 120.0
            },
            {
                "start_time": 15.4977273,
                "end_time": 15.5613636,
                "pitch": 82,
                "velocity": 40,
                "duration": 0.0636364,
                "tempo": 120.0
            },
            {
                "start_time": 15.5795455,
                "end_time": 15.8113636,
                "pitch": 82,
                "velocity": 40,
                "duration": 0.2318182,
                "tempo": 120.0
            },
            {
                "start_time": 15.8272727,
                "end_time": 15.8954545,
                "pitch": 75,
                "velocity": 40,
                "duration": 0.0681818,
                "tempo": 120.0
            },
            {
                "start_time": 15.9636364,
                "end_time": 16.0340909,
                "pitch": 77,
                "velocity": 40,
                "duration": 0.0704545,
                "tempo": 120.0
            },
            {
                "start_time": 16.05,
                "end_time": 16.1522727,
                "pitch": 80,
                "velocity": 40,
                "duration": 0.1022727,
                "tempo": 120.0
            },
            {
                "start_time": 16.1704545,
                "end_time": 16.2818182,
                "pitch": 82,
                "velocity": 40,
                "duration": 0.1113636,
                "tempo": 120.0
            },
            {
                "start_time": 16.2977273,
                "end_time": 16.3613636,
                "pitch": 75,
                "velocity": 40,
                "duration": 0.0636364,
                "tempo": 120.0
            },
            {
                "start_time": 16.3772727,
                "end_time": 16.475,
                "pitch": 77,
                "velocity": 40,
                "duration": 0.0977273,
                "tempo": 120.0
            },
            {
                "start_time": 16.4909091,
                "end_time": 16.6022727,
                "pitch": 80,
                "velocity": 40,
                "duration": 0.1113636,
                "tempo": 120.0
            },
            {
                "start_time": 16.6181818,
                "end_time": 16.6863636,
                "pitch": 82,
                "velocity": 40,
                "duration": 0.0681818,
                "tempo": 120.0
            },
            {
                "start_time": 16.7045455,
                "end_time": 16.9431818,
                "pitch": 82,
                "velocity": 40,
                "duration": 0.2386364,
                "tempo": 120.0
            },
            {
                "start_time": 16.9590909,
                "end_time": 17.0272727,
                "pitch": 75,
                "velocity": 40,
                "duration": 0.0681818,
                "tempo": 120.0
            },
            {
                "start_time": 17.0454545,
                "end_time": 17.1636364,
                "pitch": 77,
                "velocity": 40,
                "duration": 0.1181818,
                "tempo": 120.0
            },
            {
                "start_time": 17.1795455,
                "end_time": 17.2795455,
                "pitch": 80,
                "velocity": 40,
                "duration": 0.1,
                "tempo": 120.0
            },
            {
                "start_time": 17.2977273,
                "end_time": 17.3636364,
                "pitch": 82,
                "velocity": 40,
                "duration": 0.0659091,
                "tempo": 120.0
            },
            {
                "start_time": 17.3795455,
                "end_time": 17.6159091,
                "pitch": 82,
                "velocity": 40,
                "duration": 0.2363636,
                "tempo": 120.0
            },
            {
                "start_time": 17.6340909,
                "end_time": 17.7022727,
                "pitch": 75,
                "velocity": 40,
                "duration": 0.0681818,
                "tempo": 120.0
            },
            {
                "start_time": 17.7704545,
                "end_time": 17.8386364,
                "pitch": 77,
                "velocity": 40,
                "duration": 0.0681818,
                "tempo": 120.0
            },
            {
                "start_time": 17.8545455,
                "end_time": 17.9590909,
                "pitch": 80,
                "velocity": 40,
                "duration": 0.1045455,
                "tempo": 120.0
            },
            {
                "start_time": 17.975,
                "end_time": 18.0727273,
                "pitch": 82,
                "velocity": 40,
                "duration": 0.0977273,
                "tempo": 120.0
            },
            {
                "start_time": 18.1045455,
                "end_time": 18.1840909,
                "pitch": 75,
                "velocity": 40,
                "duration": 0.0795455,
                "tempo": 120.0
            },
            {
                "start_time": 18.1840909,
                "end_time": 18.2636364,
                "pitch": 77,
                "velocity": 40,
                "duration": 0.0795455,
                "tempo": 120.0
            },
            {
                "start_time": 18.2954545,
                "end_time": 18.3909091,
                "pitch": 80,
                "velocity": 40,
                "duration": 0.0954545,
                "tempo": 120.0
            },
            {
                "start_time": 18.4227273,
                "end_time": 18.5090909,
                "pitch": 82,
                "velocity": 40,
                "duration": 0.0863636,
                "tempo": 120.0
            },
            {
                "start_time": 18.5090909,
                "end_time": 18.7363636,
                "pitch": 82,
                "velocity": 40,
                "duration": 0.2272727,
                "tempo": 120.0
            },
            {
                "start_time": 18.7727273,
                "end_time": 18.8590909,
                "pitch": 75,
                "velocity": 40,
                "duration": 0.0863636,
                "tempo": 120.0
            },
            {
                "start_time": 18.8590909,
                "end_time": 18.9909091,
                "pitch": 77,
                "velocity": 40,
                "duration": 0.1318182,
                "tempo": 120.0
            },
            {
                "start_time": 18.9909091,
                "end_time": 19.0704545,
                "pitch": 80,
                "velocity": 40,
                "duration": 0.0795455,
                "tempo": 120.0
            },
            {
                "start_time": 19.1022727,
                "end_time": 19.1818182,
                "pitch": 82,
                "velocity": 40,
                "duration": 0.0795455,
                "tempo": 120.0
            },
            {
                "start_time": 19.1818182,
                "end_time": 19.3931818,
                "pitch": 82,
                "velocity": 40,
                "duration": 0.2113636,
                "tempo": 120.0
            },
            {
                "start_time": 19.4295455,
                "end_time": 19.5136364,
                "pitch": 75,
                "velocity": 40,
                "duration": 0.0840909,
                "tempo": 120.0
            },
            {
                "start_time": 19.5659091,
                "end_time": 19.65,
                "pitch": 77,
                "velocity": 40,
                "duration": 0.0840909,
                "tempo": 120.0
            },
            {
                "start_time": 19.65,
                "end_time": 19.7363636,
                "pitch": 80,
                "velocity": 40,
                "duration": 0.0863636,
                "tempo": 120.0
            },
            {
                "start_time": 19.7704545,
                "end_time": 19.8681818,
                "pitch": 82,
                "velocity": 40,
                "duration": 0.0977273,
                "tempo": 120.0
            },
            {
                "start_time": 19.9022727,
                "end_time": 19.9840909,
                "pitch": 75,
                "velocity": 40,
                "duration": 0.0818182,
                "tempo": 120.0
            },
            {
                "start_time": 19.9840909,
                "end_time": 20.0659091,
                "pitch": 77,
                "velocity": 40,
                "duration": 0.0818182,
                "tempo": 120.0
            },
            {
                "start_time": 20.0977273,
                "end_time": 20.1954545,
                "pitch": 80,
                "velocity": 40,
                "duration": 0.0977273,
                "tempo": 120.0
            },
            {
                "start_time": 20.2295455,
                "end_time": 20.3159091,
                "pitch": 82,
                "velocity": 40,
                "duration": 0.0863636,
                "tempo": 120.0
            },
            {
                "start_time": 20.3159091,
                "end_time": 20.5431818,
                "pitch": 82,
                "velocity": 40,
                "duration": 0.2272727,
                "tempo": 120.0
            },
            {
                "start_time": 20.5772727,
                "end_time": 20.6659091,
                "pitch": 75,
                "velocity": 40,
                "duration": 0.0886364,
                "tempo": 120.0
            },
            {
                "start_time": 20.6659091,
                "end_time": 20.7954545,
                "pitch": 77,
                "velocity": 40,
                "duration": 0.1295455,
                "tempo": 120.0
            },
            {
                "start_time": 20.7954545,
                "end_time": 20.875,
                "pitch": 80,
                "velocity": 40,
                "duration": 0.0795455,
                "tempo": 120.0
            },
            {
                "start_time": 20.9068182,
                "end_time": 20.9863636,
                "pitch": 82,
                "velocity": 40,
                "duration": 0.0795455,
                "tempo": 120.0
            },
            {
                "start_time": 20.9863636,
                "end_time": 21.1977273,
                "pitch": 82,
                "velocity": 40,
                "duration": 0.2113636,
                "tempo": 120.0
            },
            {
                "start_time": 21.2318182,
                "end_time": 21.3159091,
                "pitch": 75,
                "velocity": 40,
                "duration": 0.0840909,
                "tempo": 120.0
            },
            {
                "start_time": 21.3659091,
                "end_time": 21.45,
                "pitch": 77,
                "velocity": 40,
                "duration": 0.0840909,
                "tempo": 120.0
            },
            {
                "start_time": 21.45,
                "end_time": 21.5318182,
                "pitch": 80,
                "velocity": 40,
                "duration": 0.0818182,
                "tempo": 120.0
            },
            {
                "start_time": 21.5659091,
                "end_time": 21.6659091,
                "pitch": 82,
                "velocity": 40,
                "duration": 0.1,
                "tempo": 120.0
            },
            {
                "start_time": 21.7,
                "end_time": 21.7840909,
                "pitch": 70,
                "velocity": 40,
                "duration": 0.0840909,
                "tempo": 120.0
            },
            {
                "start_time": 21.7840909,
                "end_time": 21.8659091,
                "pitch": 73,
                "velocity": 40,
                "duration": 0.0818182,
                "tempo": 120.0
            },
            {
                "start_time": 21.9,
                "end_time": 22.0,
                "pitch": 75,
                "velocity": 40,
                "duration": 0.1,
                "tempo": 120.0
            },
            {
                "start_time": 22.0340909,
                "end_time": 22.1204545,
                "pitch": 77,
                "velocity": 40,
                "duration": 0.0863636,
                "tempo": 120.0
            },
            {
                "start_time": 22.1204545,
                "end_time": 22.3477273,
                "pitch": 77,
                "velocity": 40,
                "duration": 0.2272727,
                "tempo": 120.0
            },
            {
                "start_time": 22.3840909,
                "end_time": 22.4704545,
                "pitch": 70,
                "velocity": 40,
                "duration": 0.0863636,
                "tempo": 120.0
            },
            {
                "start_time": 22.4704545,
                "end_time": 22.6022727,
                "pitch": 73,
                "velocity": 40,
                "duration": 0.1318182,
                "tempo": 120.0
            },
            {
                "start_time": 22.6022727,
                "end_time": 22.6818182,
                "pitch": 75,
                "velocity": 40,
                "duration": 0.0795455,
                "tempo": 120.0
            },
            {
                "start_time": 22.7136364,
                "end_time": 22.7931818,
                "pitch": 77,
                "velocity": 40,
                "duration": 0.0795455,
                "tempo": 120.0
            },
            {
                "start_time": 22.7931818,
                "end_time": 23.0045455,
                "pitch": 77,
                "velocity": 40,
                "duration": 0.2113636,
                "tempo": 120.0
            },
            {
                "start_time": 23.0386364,
                "end_time": 23.125,
                "pitch": 70,
                "velocity": 40,
                "duration": 0.0863636,
                "tempo": 120.0
            },
            {
                "start_time": 23.1772727,
                "end_time": 23.2613636,
                "pitch": 73,
                "velocity": 40,
                "duration": 0.0840909,
                "tempo": 120.0
            },
            {
                "start_time": 23.2613636,
                "end_time": 23.3477273,
                "pitch": 75,
                "velocity": 40,
                "duration": 0.0863636,
                "tempo": 120.0
            },
            {
                "start_time": 23.3818182,
                "end_time": 23.4818182,
                "pitch": 77,
                "velocity": 40,
                "duration": 0.1,
                "tempo": 120.0
            },
            {
                "start_time": 23.5159091,
                "end_time": 23.6,
                "pitch": 70,
                "velocity": 40,
                "duration": 0.0840909,
                "tempo": 120.0
            },
            {
                "start_time": 23.6,
                "end_time": 23.6818182,
                "pitch": 73,
                "velocity": 40,
                "duration": 0.0818182,
                "tempo": 120.0
            },
            {
                "start_time": 23.7159091,
                "end_time": 23.8159091,
                "pitch": 75,
                "velocity": 40,
                "duration": 0.1,
                "tempo": 120.0
            },
            {
                "start_time": 23.85,
                "end_time": 23.9340909,
                "pitch": 77,
                "velocity": 40,
                "duration": 0.0840909,
                "tempo": 120.0
            },
            {
                "start_time": 23.9340909,
                "end_time": 24.1568182,
                "pitch": 77,
                "velocity": 40,
                "duration": 0.2227273,
                "tempo": 120.0
            },
            {
                "start_time": 24.1909091,
                "end_time": 24.2772727,
                "pitch": 70,
                "velocity": 40,
                "duration": 0.0863636,
                "tempo": 120.0
            },
            {
                "start_time": 24.2772727,
                "end_time": 24.4068182,
                "pitch": 73,
                "velocity": 40,
                "duration": 0.1295455,
                "tempo": 120.0
            },
            {
                "start_time": 24.4068182,
                "end_time": 24.4863636,
                "pitch": 75,
                "velocity": 40,
                "duration": 0.0795455,
                "tempo": 120.0
            },
            {
                "start_time": 24.5181818,
                "end_time": 24.5977273,
                "pitch": 77,
                "velocity": 40,
                "duration": 0.0795455,
                "tempo": 120.0
            },
            {
                "start_time": 24.5977273,
                "end_time": 24.8113636,
                "pitch": 77,
                "velocity": 40,
                "duration": 0.2136364,
                "tempo": 120.0
            },
            {
                "start_time": 24.8454545,
                "end_time": 24.9295455,
                "pitch": 70,
                "velocity": 40,
                "duration": 0.0840909,
                "tempo": 120.0
            },
            {
                "start_time": 24.9818182,
                "end_time": 25.0681818,
                "pitch": 73,
                "velocity": 40,
                "duration": 0.0863636,
                "tempo": 120.0
            },
            {
                "start_time": 25.0681818,
                "end_time": 25.1522727,
                "pitch": 75,
                "velocity": 40,
                "duration": 0.0840909,
                "tempo": 120.0
            },
            {
                "start_time": 25.1863636,
                "end_time": 25.2886364,
                "pitch": 77,
                "velocity": 40,
                "duration": 0.1022727,
                "tempo": 120.0
            },
            {
                "start_time": 25.3204545,
                "end_time": 25.4045455,
                "pitch": 70,
                "velocity": 40,
                "duration": 0.0840909,
                "tempo": 120.0
            },
            {
                "start_time": 25.4045455,
                "end_time": 25.4886364,
                "pitch": 73,
                "velocity": 40,
                "duration": 0.0840909,
                "tempo": 120.0
            },
            {
                "start_time": 25.5227273,
                "end_time": 25.6227273,
                "pitch": 75,
                "velocity": 40,
                "duration": 0.1,
                "tempo": 120.0
            },
            {
                "start_time": 25.6545455,
                "end_time": 25.7409091,
                "pitch": 77,
                "velocity": 40,
                "duration": 0.0863636,
                "tempo": 120.0
            },
            {
                "start_time": 25.7409091,
                "end_time": 25.9636364,
                "pitch": 77,
                "velocity": 40,
                "duration": 0.2227273,
                "tempo": 120.0
            },
            {
                "start_time": 25.9977273,
                "end_time": 26.0818182,
                "pitch": 70,
                "velocity": 40,
                "duration": 0.0840909,
                "tempo": 120.0
            },
            {
                "start_time": 26.0818182,
                "end_time": 26.2113636,
                "pitch": 73,
                "velocity": 40,
                "duration": 0.1295455,
                "tempo": 120.0
            },
            {
                "start_time": 26.2113636,
                "end_time": 26.2931818,
                "pitch": 75,
                "velocity": 40,
                "duration": 0.0818182,
                "tempo": 120.0
            },
            {
                "start_time": 26.325,
                "end_time": 26.4045455,
                "pitch": 77,
                "velocity": 40,
                "duration": 0.0795455,
                "tempo": 120.0
            },
            {
                "start_time": 26.4045455,
                "end_time": 26.6159091,
                "pitch": 77,
                "velocity": 40,
                "duration": 0.2113636,
                "tempo": 120.0
            },
            {
                "start_time": 26.65,
                "end_time": 26.7363636,
                "pitch": 70,
                "velocity": 40,
                "duration": 0.0863636,
                "tempo": 120.0
            },
            {
                "start_time": 26.7863636,
                "end_time": 26.8727273,
                "pitch": 73,
                "velocity": 40,
                "duration": 0.0863636,
                "tempo": 120.0
            },
            {
                "start_time": 26.8727273,
                "end_time": 26.9590909,
                "pitch": 75,
                "velocity": 40,
                "duration": 0.0863636,
                "tempo": 120.0
            },
            {
                "start_time": 26.9931818,
                "end_time": 27.0931818,
                "pitch": 77,
                "velocity": 40,
                "duration": 0.1,
                "tempo": 120.0
            },
            {
                "start_time": 27.1272727,
                "end_time": 27.2090909,
                "pitch": 70,
                "velocity": 40,
                "duration": 0.0818182,
                "tempo": 120.0
            },
            {
                "start_time": 27.2090909,
                "end_time": 27.2931818,
                "pitch": 73,
                "velocity": 40,
                "duration": 0.0840909,
                "tempo": 120.0
            },
            {
                "start_time": 27.3272727,
                "end_time": 27.4272727,
                "pitch": 75,
                "velocity": 40,
                "duration": 0.1,
                "tempo": 120.0
            },
            {
                "start_time": 27.4613636,
                "end_time": 27.5454545,
                "pitch": 77,
                "velocity": 40,
                "duration": 0.0840909,
                "tempo": 120.0
            },
            {
                "start_time": 27.5454545,
                "end_time": 27.7681818,
                "pitch": 77,
                "velocity": 40,
                "duration": 0.2227273,
                "tempo": 120.0
            },
            {
                "start_time": 27.8022727,
                "end_time": 27.8886364,
                "pitch": 70,
                "velocity": 40,
                "duration": 0.0863636,
                "tempo": 120.0
            },
            {
                "start_time": 27.8886364,
                "end_time": 28.0181818,
                "pitch": 73,
                "velocity": 40,
                "duration": 0.1295455,
                "tempo": 120.0
            },
            {
                "start_time": 28.0181818,
                "end_time": 28.0977273,
                "pitch": 75,
                "velocity": 40,
                "duration": 0.0795455,
                "tempo": 120.0
            },
            {
                "start_time": 28.1295455,
                "end_time": 28.2090909,
                "pitch": 77,
                "velocity": 40,
                "duration": 0.0795455,
                "tempo": 120.0
            },
            {
                "start_time": 28.2090909,
                "end_time": 28.4227273,
                "pitch": 77,
                "velocity": 40,
                "duration": 0.2136364,
                "tempo": 120.0
            },
            {
                "start_time": 28.4568182,
                "end_time": 28.5409091,
                "pitch": 70,
                "velocity": 40,
                "duration": 0.0840909,
                "tempo": 120.0
            },
            {
                "start_time": 28.5931818,
                "end_time": 28.6772727,
                "pitch": 73,
                "velocity": 40,
                "duration": 0.0840909,
                "tempo": 120.0
            },
            {
                "start_time": 28.6772727,
                "end_time": 28.7636364,
                "pitch": 75,
                "velocity": 40,
                "duration": 0.0863636,
                "tempo": 120.0
            },
            {
                "start_time": 28.7977273,
                "end_time": 28.8977273,
                "pitch": 77,
                "velocity": 40,
                "duration": 0.1,
                "tempo": 120.0
            },
            {
                "start_time": 28.9318182,
                "end_time": 29.0159091,
                "pitch": 70,
                "velocity": 40,
                "duration": 0.0840909,
                "tempo": 120.0
            },
            {
                "start_time": 29.0159091,
                "end_time": 29.1,
                "pitch": 73,
                "velocity": 40,
                "duration": 0.0840909,
                "tempo": 120.0
            },
            {
                "start_time": 29.1318182,
                "end_time": 29.2318182,
                "pitch": 75,
                "velocity": 40,
                "duration": 0.1,
                "tempo": 120.0
            },
            {
                "start_time": 29.2659091,
                "end_time": 29.3522727,
                "pitch": 77,
                "velocity": 40,
                "duration": 0.0863636,
                "tempo": 120.0
            },
            {
                "start_time": 29.3522727,
                "end_time": 29.5727273,
                "pitch": 77,
                "velocity": 40,
                "duration": 0.2204545,
                "tempo": 120.0
            },
            {
                "start_time": 29.6068182,
                "end_time": 29.6931818,
                "pitch": 70,
                "velocity": 40,
                "duration": 0.0863636,
                "tempo": 120.0
            },
            {
                "start_time": 29.6931818,
                "end_time": 29.8227273,
                "pitch": 73,
                "velocity": 40,
                "duration": 0.1295455,
                "tempo": 120.0
            },
            {
                "start_time": 29.8227273,
                "end_time": 29.9022727,
                "pitch": 75,
                "velocity": 40,
                "duration": 0.0795455,
                "tempo": 120.0
            },
            {
                "start_time": 29.9340909,
                "end_time": 30.0159091,
                "pitch": 77,
                "velocity": 40,
                "duration": 0.0818182,
                "tempo": 120.0
            },
            {
                "start_time": 30.0159091,
                "end_time": 30.2272727,
                "pitch": 77,
                "velocity": 40,
                "duration": 0.2113636,
                "tempo": 120.0
            },
            {
                "start_time": 30.2613636,
                "end_time": 30.3477273,
                "pitch": 70,
                "velocity": 40,
                "duration": 0.0863636,
                "tempo": 120.0
            },
            {
                "start_time": 30.3977273,
                "end_time": 30.4840909,
                "pitch": 73,
                "velocity": 40,
                "duration": 0.0863636,
                "tempo": 120.0
            },
            {
                "start_time": 30.4840909,
                "end_time": 30.5681818,
                "pitch": 75,
                "velocity": 40,
                "duration": 0.0840909,
                "tempo": 120.0
            },
            {
                "start_time": 30.6022727,
                "end_time": 30.7045455,
                "pitch": 77,
                "velocity": 40,
                "duration": 0.1022727,
                "tempo": 120.0
            },
            {
                "start_time": 30.7363636,
                "end_time": 30.8204545,
                "pitch": 70,
                "velocity": 40,
                "duration": 0.0840909,
                "tempo": 120.0
            },
            {
                "start_time": 30.8204545,
                "end_time": 30.9045455,
                "pitch": 73,
                "velocity": 40,
                "duration": 0.0840909,
                "tempo": 120.0
            },
            {
                "start_time": 30.9386364,
                "end_time": 31.0386364,
                "pitch": 75,
                "velocity": 40,
                "duration": 0.1,
                "tempo": 120.0
            },
            {
                "start_time": 31.0727273,
                "end_time": 31.1568182,
                "pitch": 77,
                "velocity": 40,
                "duration": 0.0840909,
                "tempo": 120.0
            },
            {
                "start_time": 31.1568182,
                "end_time": 31.3795455,
                "pitch": 77,
                "velocity": 40,
                "duration": 0.2227273,
                "tempo": 120.0
            },
            {
                "start_time": 31.4136364,
                "end_time": 31.4977273,
                "pitch": 70,
                "velocity": 40,
                "duration": 0.0840909,
                "tempo": 120.0
            },
            {
                "start_time": 31.4977273,
                "end_time": 31.6295455,
                "pitch": 73,
                "velocity": 40,
                "duration": 0.1318182,
                "tempo": 120.0
            },
            {
                "start_time": 31.6295455,
                "end_time": 31.7090909,
                "pitch": 75,
                "velocity": 40,
                "duration": 0.0795455,
                "tempo": 120.0
            },
            {
                "start_time": 31.7409091,
                "end_time": 31.8204545,
                "pitch": 77,
                "velocity": 40,
                "duration": 0.0795455,
                "tempo": 120.0
            },
            {
                "start_time": 31.8204545,
                "end_time": 32.0318182,
                "pitch": 77,
                "velocity": 40,
                "duration": 0.2113636,
                "tempo": 120.0
            },
            {
                "start_time": 32.0659091,
                "end_time": 32.1522727,
                "pitch": 70,
                "velocity": 40,
                "duration": 0.0863636,
                "tempo": 120.0
            },
            {
                "start_time": 32.2045455,
                "end_time": 32.2886364,
                "pitch": 73,
                "velocity": 40,
                "duration": 0.0840909,
                "tempo": 120.0
            },
            {
                "start_time": 32.2886364,
                "end_time": 32.375,
                "pitch": 75,
                "velocity": 40,
                "duration": 0.0863636,
                "tempo": 120.0
            },
            {
                "start_time": 32.4090909,
                "end_time": 32.5090909,
                "pitch": 77,
                "velocity": 40,
                "duration": 0.1,
                "tempo": 120.0
            },
            {
                "start_time": 32.5431818,
                "end_time": 32.6272727,
                "pitch": 70,
                "velocity": 40,
                "duration": 0.0840909,
                "tempo": 120.0
            },
            {
                "start_time": 32.6272727,
                "end_time": 32.7090909,
                "pitch": 73,
                "velocity": 40,
                "duration": 0.0818182,
                "tempo": 120.0
            },
            {
                "start_time": 32.7431818,
                "end_time": 32.8431818,
                "pitch": 75,
                "velocity": 40,
                "duration": 0.1,
                "tempo": 120.0
            },
            {
                "start_time": 32.8772727,
                "end_time": 32.9613636,
                "pitch": 77,
                "velocity": 40,
                "duration": 0.0840909,
                "tempo": 120.0
            },
            {
                "start_time": 32.9613636,
                "end_time": 33.1840909,
                "pitch": 77,
                "velocity": 40,
                "duration": 0.2227273,
                "tempo": 120.0
            },
            {
                "start_time": 33.2181818,
                "end_time": 33.3045455,
                "pitch": 70,
                "velocity": 40,
                "duration": 0.0863636,
                "tempo": 120.0
            },
            {
                "start_time": 33.3045455,
                "end_time": 33.4340909,
                "pitch": 73,
                "velocity": 40,
                "duration": 0.1295455,
                "tempo": 120.0
            },
            {
                "start_time": 33.4340909,
                "end_time": 33.5136364,
                "pitch": 75,
                "velocity": 40,
                "duration": 0.0795455,
                "tempo": 120.0
            },
            {
                "start_time": 33.5454545,
                "end_time": 33.625,
                "pitch": 77,
                "velocity": 40,
                "duration": 0.0795455,
                "tempo": 120.0
            },
            {
                "start_time": 33.625,
                "end_time": 33.8386364,
                "pitch": 77,
                "velocity": 40,
                "duration": 0.2136364,
                "tempo": 120.0
            },
            {
                "start_time": 33.8727273,
                "end_time": 33.9568182,
                "pitch": 70,
                "velocity": 40,
                "duration": 0.0840909,
                "tempo": 120.0
            },
            {
                "start_time": 34.0090909,
                "end_time": 34.0954545,
                "pitch": 73,
                "velocity": 40,
                "duration": 0.0863636,
                "tempo": 120.0
            },
            {
                "start_time": 34.0954545,
                "end_time": 34.1795455,
                "pitch": 75,
                "velocity": 40,
                "duration": 0.0840909,
                "tempo": 120.0
            },
            {
                "start_time": 34.2136364,
                "end_time": 34.3136364,
                "pitch": 77,
                "velocity": 40,
                "duration": 0.1,
                "tempo": 120.0
            },
            {
                "start_time": 34.3477273,
                "end_time": 34.4318182,
                "pitch": 70,
                "velocity": 40,
                "duration": 0.0840909,
                "tempo": 120.0
            },
            {
                "start_time": 34.4318182,
                "end_time": 34.5159091,
                "pitch": 73,
                "velocity": 40,
                "duration": 0.0840909,
                "tempo": 120.0
            },
            {
                "start_time": 34.5477273,
                "end_time": 34.65,
                "pitch": 75,
                "velocity": 40,
                "duration": 0.1022727,
                "tempo": 120.0
            },
            {
                "start_time": 34.6818182,
                "end_time": 34.7681818,
                "pitch": 77,
                "velocity": 40,
                "duration": 0.0863636,
                "tempo": 120.0
            },
            {
                "start_time": 34.7681818,
                "end_time": 34.9909091,
                "pitch": 77,
                "velocity": 40,
                "duration": 0.2227273,
                "tempo": 120.0
            },
            {
                "start_time": 35.025,
                "end_time": 35.1090909,
                "pitch": 70,
                "velocity": 40,
                "duration": 0.0840909,
                "tempo": 120.0
            },
            {
                "start_time": 35.1090909,
                "end_time": 35.2386364,
                "pitch": 73,
                "velocity": 40,
                "duration": 0.1295455,
                "tempo": 120.0
            },
            {
                "start_time": 35.2386364,
                "end_time": 35.3181818,
                "pitch": 75,
                "velocity": 40,
                "duration": 0.0795455,
                "tempo": 120.0
            },
            {
                "start_time": 35.3522727,
                "end_time": 35.4318182,
                "pitch": 77,
                "velocity": 40,
                "duration": 0.0795455,
                "tempo": 120.0
            },
            {
                "start_time": 35.4318182,
                "end_time": 35.6431818,
                "pitch": 77,
                "velocity": 40,
                "duration": 0.2113636,
                "tempo": 120.0
            },
            {
                "start_time": 35.6772727,
                "end_time": 35.7636364,
                "pitch": 70,
                "velocity": 40,
                "duration": 0.0863636,
                "tempo": 120.0
            },
            {
                "start_time": 35.8136364,
                "end_time": 35.9,
                "pitch": 73,
                "velocity": 40,
                "duration": 0.0863636,
                "tempo": 120.0
            },
            {
                "start_time": 35.9,
                "end_time": 35.9863636,
                "pitch": 75,
                "velocity": 40,
                "duration": 0.0863636,
                "tempo": 120.0
            },
            {
                "start_time": 36.0204545,
                "end_time": 36.1204545,
                "pitch": 77,
                "velocity": 40,
                "duration": 0.1,
                "tempo": 120.0
            },
            {
                "start_time": 36.1545455,
                "end_time": 36.2363636,
                "pitch": 75,
                "velocity": 40,
                "duration": 0.0818182,
                "tempo": 120.0
            },
            {
                "start_time": 36.2363636,
                "end_time": 36.3204545,
                "pitch": 77,
                "velocity": 40,
                "duration": 0.0840909,
                "tempo": 120.0
            },
            {
                "start_time": 36.3545455,
                "end_time": 36.4545455,
                "pitch": 80,
                "velocity": 40,
                "duration": 0.1,
                "tempo": 120.0
            },
            {
                "start_time": 36.4886364,
                "end_time": 36.5727273,
                "pitch": 82,
                "velocity": 40,
                "duration": 0.0840909,
                "tempo": 120.0
            },
            {
                "start_time": 36.5727273,
                "end_time": 36.7954545,
                "pitch": 82,
                "velocity": 40,
                "duration": 0.2227273,
                "tempo": 120.0
            },
            {
                "start_time": 36.8295455,
                "end_time": 36.9159091,
                "pitch": 75,
                "velocity": 40,
                "duration": 0.0863636,
                "tempo": 120.0
            },
            {
                "start_time": 36.9159091,
                "end_time": 37.0454545,
                "pitch": 77,
                "velocity": 40,
                "duration": 0.1295455,
                "tempo": 120.0
            },
            {
                "start_time": 37.0454545,
                "end_time": 37.125,
                "pitch": 80,
                "velocity": 40,
                "duration": 0.0795455,
                "tempo": 120.0
            },
            {
                "start_time": 37.1568182,
                "end_time": 37.2363636,
                "pitch": 82,
                "velocity": 40,
                "duration": 0.0795455,
                "tempo": 120.0
            },
            {
                "start_time": 37.2363636,
                "end_time": 37.4477273,
                "pitch": 82,
                "velocity": 40,
                "duration": 0.2113636,
                "tempo": 120.0
            },
            {
                "start_time": 37.4818182,
                "end_time": 37.5681818,
                "pitch": 75,
                "velocity": 40,
                "duration": 0.0863636,
                "tempo": 120.0
            },
            {
                "start_time": 37.6204545,
                "end_time": 37.7045455,
                "pitch": 77,
                "velocity": 40,
                "duration": 0.0840909,
                "tempo": 120.0
            },
            {
                "start_time": 37.7045455,
                "end_time": 37.7909091,
                "pitch": 80,
                "velocity": 40,
                "duration": 0.0863636,
                "tempo": 120.0
            },
            {
                "start_time": 37.825,
                "end_time": 37.9227273,
                "pitch": 82,
                "velocity": 40,
                "duration": 0.0977273,
                "tempo": 120.0
            },
            {
                "start_time": 37.9568182,
                "end_time": 38.0386364,
                "pitch": 75,
                "velocity": 40,
                "duration": 0.0818182,
                "tempo": 120.0
            },
            {
                "start_time": 38.0386364,
                "end_time": 38.1204545,
                "pitch": 77,
                "velocity": 40,
                "duration": 0.0818182,
                "tempo": 120.0
            },
            {
                "start_time": 38.1522727,
                "end_time": 38.25,
                "pitch": 80,
                "velocity": 40,
                "duration": 0.0977273,
                "tempo": 120.0
            },
            {
                "start_time": 38.2818182,
                "end_time": 38.3704545,
                "pitch": 82,
                "velocity": 40,
                "duration": 0.0886364,
                "tempo": 120.0
            },
            {
                "start_time": 38.3704545,
                "end_time": 38.5977273,
                "pitch": 82,
                "velocity": 40,
                "duration": 0.2272727,
                "tempo": 120.0
            },
            {
                "start_time": 38.6318182,
                "end_time": 38.7204545,
                "pitch": 75,
                "velocity": 40,
                "duration": 0.0886364,
                "tempo": 120.0
            },
            {
                "start_time": 38.7204545,
                "end_time": 38.85,
                "pitch": 77,
                "velocity": 40,
                "duration": 0.1295455,
                "tempo": 120.0
            },
            {
                "start_time": 38.85,
                "end_time": 38.9295455,
                "pitch": 80,
                "velocity": 40,
                "duration": 0.0795455,
                "tempo": 120.0
            },
            {
                "start_time": 38.9613636,
                "end_time": 39.0409091,
                "pitch": 82,
                "velocity": 40,
                "duration": 0.0795455,
                "tempo": 120.0
            },
            {
                "start_time": 39.0409091,
                "end_time": 39.2522727,
                "pitch": 82,
                "velocity": 40,
                "duration": 0.2113636,
                "tempo": 120.0
            },
            {
                "start_time": 39.2863636,
                "end_time": 39.3704545,
                "pitch": 75,
                "velocity": 40,
                "duration": 0.0840909,
                "tempo": 120.0
            },
            {
                "start_time": 39.4204545,
                "end_time": 39.5045455,
                "pitch": 77,
                "velocity": 40,
                "duration": 0.0840909,
                "tempo": 120.0
            },
            {
                "start_time": 39.5045455,
                "end_time": 39.5863636,
                "pitch": 80,
                "velocity": 40,
                "duration": 0.0818182,
                "tempo": 120.0
            },
            {
                "start_time": 39.6204545,
                "end_time": 39.7204545,
                "pitch": 82,
                "velocity": 40,
                "duration": 0.1,
                "tempo": 120.0
            },
            {
                "start_time": 39.7545455,
                "end_time": 39.8386364,
                "pitch": 75,
                "velocity": 40,
                "duration": 0.0840909,
                "tempo": 120.0
            },
            {
                "start_time": 39.8386364,
                "end_time": 39.9204545,
                "pitch": 77,
                "velocity": 40,
                "duration": 0.0818182,
                "tempo": 120.0
            },
            {
                "start_time": 39.9545455,
                "end_time": 40.0545455,
                "pitch": 80,
                "velocity": 40,
                "duration": 0.1,
                "tempo": 120.0
            },
            {
                "start_time": 40.0886364,
                "end_time": 40.175,
                "pitch": 82,
                "velocity": 40,
                "duration": 0.0863636,
                "tempo": 120.0
            },
            {
                "start_time": 40.175,
                "end_time": 40.4022727,
                "pitch": 82,
                "velocity": 40,
                "duration": 0.2272727,
                "tempo": 120.0
            },
            {
                "start_time": 40.4386364,
                "end_time": 40.525,
                "pitch": 75,
                "velocity": 40,
                "duration": 0.0863636,
                "tempo": 120.0
            },
            {
                "start_time": 40.525,
                "end_time": 40.6568182,
                "pitch": 77,
                "velocity": 40,
                "duration": 0.1318182,
                "tempo": 120.0
            },
            {
                "start_time": 40.6568182,
                "end_time": 40.7363636,
                "pitch": 80,
                "velocity": 40,
                "duration": 0.0795455,
                "tempo": 120.0
            },
            {
                "start_time": 40.7681818,
                "end_time": 40.8477273,
                "pitch": 82,
                "velocity": 40,
                "duration": 0.0795455,
                "tempo": 120.0
            },
            {
                "start_time": 40.8477273,
                "end_time": 41.0590909,
                "pitch": 82,
                "velocity": 40,
                "duration": 0.2113636,
                "tempo": 120.0
            },
            {
                "start_time": 41.0931818,
                "end_time": 41.1795455,
                "pitch": 75,
                "velocity": 40,
                "duration": 0.0863636,
                "tempo": 120.0
            },
            {
                "start_time": 41.2318182,
                "end_time": 41.3159091,
                "pitch": 77,
                "velocity": 40,
                "duration": 0.0840909,
                "tempo": 120.0
            },
            {
                "start_time": 41.3159091,
                "end_time": 41.4022727,
                "pitch": 80,
                "velocity": 40,
                "duration": 0.0863636,
                "tempo": 120.0
            },
            {
                "start_time": 41.4363636,
                "end_time": 41.5340909,
                "pitch": 82,
                "velocity": 40,
                "duration": 0.0977273,
                "tempo": 120.0
            },
            {
                "start_time": 41.5681818,
                "end_time": 41.6477273,
                "pitch": 75,
                "velocity": 40,
                "duration": 0.0795455,
                "tempo": 120.0
            },
            {
                "start_time": 41.6477273,
                "end_time": 41.7295455,
                "pitch": 77,
                "velocity": 40,
                "duration": 0.0818182,
                "tempo": 120.0
            },
            {
                "start_time": 41.7636364,
                "end_time": 41.8613636,
                "pitch": 80,
                "velocity": 40,
                "duration": 0.0977273,
                "tempo": 120.0
            },
            {
                "start_time": 41.8931818,
                "end_time": 41.9795455,
                "pitch": 82,
                "velocity": 40,
                "duration": 0.0863636,
                "tempo": 120.0
            },
            {
                "start_time": 41.9795455,
                "end_time": 42.2090909,
                "pitch": 82,
                "velocity": 40,
                "duration": 0.2295455,
                "tempo": 120.0
            },
            {
                "start_time": 42.2431818,
                "end_time": 42.3295455,
                "pitch": 75,
                "velocity": 40,
                "duration": 0.0863636,
                "tempo": 120.0
            },
            {
                "start_time": 42.3295455,
                "end_time": 42.4613636,
                "pitch": 77,
                "velocity": 40,
                "duration": 0.1318182,
                "tempo": 120.0
            },
            {
                "start_time": 42.4613636,
                "end_time": 42.5409091,
                "pitch": 80,
                "velocity": 40,
                "duration": 0.0795455,
                "tempo": 120.0
            },
            {
                "start_time": 42.5727273,
                "end_time": 42.6522727,
                "pitch": 82,
                "velocity": 40,
                "duration": 0.0795455,
                "tempo": 120.0
            },
            {
                "start_time": 42.6522727,
                "end_time": 42.8659091,
                "pitch": 82,
                "velocity": 40,
                "duration": 0.2136364,
                "tempo": 120.0
            },
            {
                "start_time": 42.9,
                "end_time": 42.9840909,
                "pitch": 75,
                "velocity": 40,
                "duration": 0.0840909,
                "tempo": 120.0
            },
            {
                "start_time": 43.0363636,
                "end_time": 43.1204545,
                "pitch": 77,
                "velocity": 40,
                "duration": 0.0840909,
                "tempo": 120.0
            },
            {
                "start_time": 43.1204545,
                "end_time": 43.2068182,
                "pitch": 80,
                "velocity": 40,
                "duration": 0.0863636,
                "tempo": 120.0
            },
            {
                "start_time": 43.2409091,
                "end_time": 43.3386364,
                "pitch": 82,
                "velocity": 40,
                "duration": 0.0977273,
                "tempo": 120.0
            },
            {
                "start_time": 43.3727273,
                "end_time": 43.4545455,
                "pitch": 70,
                "velocity": 40,
                "duration": 0.0818182,
                "tempo": 120.0
            },
            {
                "start_time": 43.4545455,
                "end_time": 43.5363636,
                "pitch": 73,
                "velocity": 40,
                "duration": 0.0818182,
                "tempo": 120.0
            },
            {
                "start_time": 43.5681818,
                "end_time": 43.6659091,
                "pitch": 75,
                "velocity": 40,
                "duration": 0.0977273,
                "tempo": 120.0
            },
            {
                "start_time": 43.7,
                "end_time": 43.7863636,
                "pitch": 77,
                "velocity": 40,
                "duration": 0.0863636,
                "tempo": 120.0
            },
            {
                "start_time": 43.7863636,
                "end_time": 44.0136364,
                "pitch": 77,
                "velocity": 40,
                "duration": 0.2272727,
                "tempo": 120.0
            },
            {
                "start_time": 44.0477273,
                "end_time": 44.1363636,
                "pitch": 70,
                "velocity": 40,
                "duration": 0.0886364,
                "tempo": 120.0
            },
            {
                "start_time": 44.1363636,
                "end_time": 44.2659091,
                "pitch": 73,
                "velocity": 40,
                "duration": 0.1295455,
                "tempo": 120.0
            },
            {
                "start_time": 44.2659091,
                "end_time": 44.3454545,
                "pitch": 75,
                "velocity": 40,
                "duration": 0.0795455,
                "tempo": 120.0
            },
            {
                "start_time": 44.3772727,
                "end_time": 44.4590909,
                "pitch": 77,
                "velocity": 40,
                "duration": 0.0818182,
                "tempo": 120.0
            },
            {
                "start_time": 44.4590909,
                "end_time": 44.6704545,
                "pitch": 77,
                "velocity": 40,
                "duration": 0.2113636,
                "tempo": 120.0
            },
            {
                "start_time": 44.7045455,
                "end_time": 44.7909091,
                "pitch": 70,
                "velocity": 40,
                "duration": 0.0863636,
                "tempo": 120.0
            },
            {
                "start_time": 44.8409091,
                "end_time": 44.9272727,
                "pitch": 73,
                "velocity": 40,
                "duration": 0.0863636,
                "tempo": 120.0
            },
            {
                "start_time": 44.9272727,
                "end_time": 45.0113636,
                "pitch": 75,
                "velocity": 40,
                "duration": 0.0840909,
                "tempo": 120.0
            },
            {
                "start_time": 45.0454545,
                "end_time": 45.1477273,
                "pitch": 77,
                "velocity": 40,
                "duration": 0.1022727,
                "tempo": 120.0
            },
            {
                "start_time": 45.1795455,
                "end_time": 45.2636364,
                "pitch": 70,
                "velocity": 40,
                "duration": 0.0840909,
                "tempo": 120.0
            },
            {
                "start_time": 45.2636364,
                "end_time": 45.3477273,
                "pitch": 73,
                "velocity": 40,
                "duration": 0.0840909,
                "tempo": 120.0
            },
            {
                "start_time": 45.3818182,
                "end_time": 45.4818182,
                "pitch": 75,
                "velocity": 40,
                "duration": 0.1,
                "tempo": 120.0
            },
            {
                "start_time": 45.5136364,
                "end_time": 45.6,
                "pitch": 77,
                "velocity": 40,
                "duration": 0.0863636,
                "tempo": 120.0
            },
            {
                "start_time": 45.6,
                "end_time": 45.8227273,
                "pitch": 77,
                "velocity": 40,
                "duration": 0.2227273,
                "tempo": 120.0
            },
            {
                "start_time": 45.8568182,
                "end_time": 45.9409091,
                "pitch": 70,
                "velocity": 40,
                "duration": 0.0840909,
                "tempo": 120.0
            },
            {
                "start_time": 45.9409091,
                "end_time": 46.0727273,
                "pitch": 73,
                "velocity": 40,
                "duration": 0.1318182,
                "tempo": 120.0
            },
            {
                "start_time": 46.0727273,
                "end_time": 46.1522727,
                "pitch": 75,
                "velocity": 40,
                "duration": 0.0795455,
                "tempo": 120.0
            },
            {
                "start_time": 46.1840909,
                "end_time": 46.2636364,
                "pitch": 77,
                "velocity": 40,
                "duration": 0.0795455,
                "tempo": 120.0
            },
            {
                "start_time": 46.2636364,
                "end_time": 46.475,
                "pitch": 77,
                "velocity": 40,
                "duration": 0.2113636,
                "tempo": 120.0
            },
            {
                "start_time": 46.5090909,
                "end_time": 46.5954545,
                "pitch": 70,
                "velocity": 40,
                "duration": 0.0863636,
                "tempo": 120.0
            },
            {
                "start_time": 46.6477273,
                "end_time": 46.7318182,
                "pitch": 73,
                "velocity": 40,
                "duration": 0.0840909,
                "tempo": 120.0
            },
            {
                "start_time": 46.7318182,
                "end_time": 46.8181818,
                "pitch": 75,
                "velocity": 40,
                "duration": 0.0863636,
                "tempo": 120.0
            },
            {
                "start_time": 46.8522727,
                "end_time": 46.9522727,
                "pitch": 77,
                "velocity": 40,
                "duration": 0.1,
                "tempo": 120.0
            },
            {
                "start_time": 46.9863636,
                "end_time": 47.0704545,
                "pitch": 70,
                "velocity": 40,
                "duration": 0.0840909,
                "tempo": 120.0
            },
            {
                "start_time": 47.0704545,
                "end_time": 47.1522727,
                "pitch": 73,
                "velocity": 40,
                "duration": 0.0818182,
                "tempo": 120.0
            },
            {
                "start_time": 47.1863636,
                "end_time": 47.2863636,
                "pitch": 75,
                "velocity": 40,
                "duration": 0.1,
                "tempo": 120.0
            },
            {
                "start_time": 47.3204545,
                "end_time": 47.4045455,
                "pitch": 77,
                "velocity": 40,
                "duration": 0.0840909,
                "tempo": 120.0
            },
            {
                "start_time": 47.4045455,
                "end_time": 47.6272727,
                "pitch": 77,
                "velocity": 40,
                "duration": 0.2227273,
                "tempo": 120.0
            },
            {
                "start_time": 47.6613636,
                "end_time": 47.7477273,
                "pitch": 70,
                "velocity": 40,
                "duration": 0.0863636,
                "tempo": 120.0
            },
            {
                "start_time": 47.7477273,
                "end_time": 47.8772727,
                "pitch": 73,
                "velocity": 40,
                "duration": 0.1295455,
                "tempo": 120.0
            },
            {
                "start_time": 47.8772727,
                "end_time": 47.9568182,
                "pitch": 75,
                "velocity": 40,
                "duration": 0.0795455,
                "tempo": 120.0
            },
            {
                "start_time": 47.9886364,
                "end_time": 48.0681818,
                "pitch": 77,
                "velocity": 40,
                "duration": 0.0795455,
                "tempo": 120.0
            },
            {
                "start_time": 48.0681818,
                "end_time": 48.2818182,
                "pitch": 77,
                "velocity": 40,
                "duration": 0.2136364,
                "tempo": 120.0
            },
            {
                "start_time": 48.3159091,
                "end_time": 48.4,
                "pitch": 70,
                "velocity": 40,
                "duration": 0.0840909,
                "tempo": 120.0
            },
            {
                "start_time": 48.4522727,
                "end_time": 48.5386364,
                "pitch": 73,
                "velocity": 40,
                "duration": 0.0863636,
                "tempo": 120.0
            },
            {
                "start_time": 48.5386364,
                "end_time": 48.6227273,
                "pitch": 75,
                "velocity": 40,
                "duration": 0.0840909,
                "tempo": 120.0
            },
            {
                "start_time": 48.6568182,
                "end_time": 48.7568182,
                "pitch": 77,
                "velocity": 40,
                "duration": 0.1,
                "tempo": 120.0
            },
            {
                "start_time": 48.7909091,
                "end_time": 48.875,
                "pitch": 70,
                "velocity": 40,
                "duration": 0.0840909,
                "tempo": 120.0
            },
            {
                "start_time": 48.875,
                "end_time": 48.9590909,
                "pitch": 73,
                "velocity": 40,
                "duration": 0.0840909,
                "tempo": 120.0
            },
            {
                "start_time": 48.9909091,
                "end_time": 49.0931818,
                "pitch": 75,
                "velocity": 40,
                "duration": 0.1022727,
                "tempo": 120.0
            },
            {
                "start_time": 49.125,
                "end_time": 49.2113636,
                "pitch": 77,
                "velocity": 40,
                "duration": 0.0863636,
                "tempo": 120.0
            },
            {
                "start_time": 49.2113636,
                "end_time": 49.4340909,
                "pitch": 77,
                "velocity": 40,
                "duration": 0.2227273,
                "tempo": 120.0
            },
            {
                "start_time": 49.4681818,
                "end_time": 49.5522727,
                "pitch": 70,
                "velocity": 40,
                "duration": 0.0840909,
                "tempo": 120.0
            },
            {
                "start_time": 49.5522727,
                "end_time": 49.6818182,
                "pitch": 73,
                "velocity": 40,
                "duration": 0.1295455,
                "tempo": 120.0
            },
            {
                "start_time": 49.6818182,
                "end_time": 49.7613636,
                "pitch": 75,
                "velocity": 40,
                "duration": 0.0795455,
                "tempo": 120.0
            },
            {
                "start_time": 49.7954545,
                "end_time": 49.875,
                "pitch": 77,
                "velocity": 40,
                "duration": 0.0795455,
                "tempo": 120.0
            },
            {
                "start_time": 49.875,
                "end_time": 50.0863636,
                "pitch": 77,
                "velocity": 40,
                "duration": 0.2113636,
                "tempo": 120.0
            },
            {
                "start_time": 50.1204545,
                "end_time": 50.2068182,
                "pitch": 70,
                "velocity": 40,
                "duration": 0.0863636,
                "tempo": 120.0
            },
            {
                "start_time": 50.2568182,
                "end_time": 50.3431818,
                "pitch": 73,
                "velocity": 40,
                "duration": 0.0863636,
                "tempo": 120.0
            },
            {
                "start_time": 50.3431818,
                "end_time": 50.4295455,
                "pitch": 75,
                "velocity": 40,
                "duration": 0.0863636,
                "tempo": 120.0
            },
            {
                "start_time": 50.4636364,
                "end_time": 50.5636364,
                "pitch": 77,
                "velocity": 40,
                "duration": 0.1,
                "tempo": 120.0
            },
            {
                "start_time": 50.5977273,
                "end_time": 50.6795455,
                "pitch": 70,
                "velocity": 40,
                "duration": 0.0818182,
                "tempo": 120.0
            },
            {
                "start_time": 50.6795455,
                "end_time": 50.7636364,
                "pitch": 73,
                "velocity": 40,
                "duration": 0.0840909,
                "tempo": 120.0
            },
            {
                "start_time": 50.7977273,
                "end_time": 50.8977273,
                "pitch": 75,
                "velocity": 40,
                "duration": 0.1,
                "tempo": 120.0
            },
            {
                "start_time": 50.9318182,
                "end_time": 51.0159091,
                "pitch": 77,
                "velocity": 40,
                "duration": 0.0840909,
                "tempo": 120.0
            },
            {
                "start_time": 51.0159091,
                "end_time": 51.2386364,
                "pitch": 77,
                "velocity": 40,
                "duration": 0.2227273,
                "tempo": 120.0
            },
            {
                "start_time": 51.2727273,
                "end_time": 51.3590909,
                "pitch": 70,
                "velocity": 40,
                "duration": 0.0863636,
                "tempo": 120.0
            },
            {
                "start_time": 51.3590909,
                "end_time": 51.4886364,
                "pitch": 73,
                "velocity": 40,
                "duration": 0.1295455,
                "tempo": 120.0
            },
            {
                "start_time": 51.4886364,
                "end_time": 51.5681818,
                "pitch": 75,
                "velocity": 40,
                "duration": 0.0795455,
                "tempo": 120.0
            },
            {
                "start_time": 51.6,
                "end_time": 51.6795455,
                "pitch": 77,
                "velocity": 40,
                "duration": 0.0795455,
                "tempo": 120.0
            },
            {
                "start_time": 51.6795455,
                "end_time": 51.8909091,
                "pitch": 77,
                "velocity": 40,
                "duration": 0.2113636,
                "tempo": 120.0
            },
            {
                "start_time": 51.925,
                "end_time": 52.0113636,
                "pitch": 70,
                "velocity": 40,
                "duration": 0.0863636,
                "tempo": 120.0
            },
            {
                "start_time": 52.0636364,
                "end_time": 52.1477273,
                "pitch": 73,
                "velocity": 40,
                "duration": 0.0840909,
                "tempo": 120.0
            },
            {
                "start_time": 52.1477273,
                "end_time": 52.2340909,
                "pitch": 75,
                "velocity": 40,
                "duration": 0.0863636,
                "tempo": 120.0
            },
            {
                "start_time": 52.2681818,
                "end_time": 52.3681818,
                "pitch": 77,
                "velocity": 40,
                "duration": 0.1,
                "tempo": 120.0
            },
            {
                "start_time": 52.4022727,
                "end_time": 52.4863636,
                "pitch": 70,
                "velocity": 40,
                "duration": 0.0840909,
                "tempo": 120.0
            },
            {
                "start_time": 52.4863636,
                "end_time": 52.5704545,
                "pitch": 73,
                "velocity": 40,
                "duration": 0.0840909,
                "tempo": 120.0
            },
            {
                "start_time": 52.6022727,
                "end_time": 52.7022727,
                "pitch": 75,
                "velocity": 40,
                "duration": 0.1,
                "tempo": 120.0
            },
            {
                "start_time": 52.7363636,
                "end_time": 52.8227273,
                "pitch": 77,
                "velocity": 40,
                "duration": 0.0863636,
                "tempo": 120.0
            },
            {
                "start_time": 52.8227273,
                "end_time": 53.0431818,
                "pitch": 77,
                "velocity": 40,
                "duration": 0.2204545,
                "tempo": 120.0
            },
            {
                "start_time": 53.0772727,
                "end_time": 53.1636364,
                "pitch": 70,
                "velocity": 40,
                "duration": 0.0863636,
                "tempo": 120.0
            },
            {
                "start_time": 53.1636364,
                "end_time": 53.2931818,
                "pitch": 73,
                "velocity": 40,
                "duration": 0.1295455,
                "tempo": 120.0
            },
            {
                "start_time": 53.2931818,
                "end_time": 53.3727273,
                "pitch": 75,
                "velocity": 40,
                "duration": 0.0795455,
                "tempo": 120.0
            },
            {
                "start_time": 53.4045455,
                "end_time": 53.4840909,
                "pitch": 77,
                "velocity": 40,
                "duration": 0.0795455,
                "tempo": 120.0
            },
            {
                "start_time": 53.4840909,
                "end_time": 53.6977273,
                "pitch": 77,
                "velocity": 40,
                "duration": 0.2136364,
                "tempo": 120.0
            },
            {
                "start_time": 53.7318182,
                "end_time": 53.8159091,
                "pitch": 70,
                "velocity": 40,
                "duration": 0.0840909,
                "tempo": 120.0
            },
            {
                "start_time": 53.8681818,
                "end_time": 53.9545455,
                "pitch": 73,
                "velocity": 40,
                "duration": 0.0863636,
                "tempo": 120.0
            },
            {
                "start_time": 53.9545455,
                "end_time": 54.0386364,
                "pitch": 75,
                "velocity": 40,
                "duration": 0.0840909,
                "tempo": 120.0
            },
            {
                "start_time": 54.0727273,
                "end_time": 54.175,
                "pitch": 77,
                "velocity": 40,
                "duration": 0.1022727,
                "tempo": 120.0
            },
            {
                "start_time": 54.2068182,
                "end_time": 54.2909091,
                "pitch": 70,
                "velocity": 40,
                "duration": 0.0840909,
                "tempo": 120.0
            },
            {
                "start_time": 54.2909091,
                "end_time": 54.375,
                "pitch": 73,
                "velocity": 40,
                "duration": 0.0840909,
                "tempo": 120.0
            },
            {
                "start_time": 54.4090909,
                "end_time": 54.5090909,
                "pitch": 75,
                "velocity": 40,
                "duration": 0.1,
                "tempo": 120.0
            },
            {
                "start_time": 54.5409091,
                "end_time": 54.6272727,
                "pitch": 77,
                "velocity": 40,
                "duration": 0.0863636,
                "tempo": 120.0
            },
            {
                "start_time": 54.6272727,
                "end_time": 54.85,
                "pitch": 77,
                "velocity": 40,
                "duration": 0.2227273,
                "tempo": 120.0
            },
            {
                "start_time": 54.8840909,
                "end_time": 54.9681818,
                "pitch": 70,
                "velocity": 40,
                "duration": 0.0840909,
                "tempo": 120.0
            },
            {
                "start_time": 54.9681818,
                "end_time": 55.0977273,
                "pitch": 73,
                "velocity": 40,
                "duration": 0.1295455,
                "tempo": 120.0
            },
            {
                "start_time": 55.0977273,
                "end_time": 55.1795455,
                "pitch": 75,
                "velocity": 40,
                "duration": 0.0818182,
                "tempo": 120.0
            },
            {
                "start_time": 55.2113636,
                "end_time": 55.2909091,
                "pitch": 77,
                "velocity": 40,
                "duration": 0.0795455,
                "tempo": 120.0
            },
            {
                "start_time": 55.2909091,
                "end_time": 55.5022727,
                "pitch": 77,
                "velocity": 40,
                "duration": 0.2113636,
                "tempo": 120.0
            },
            {
                "start_time": 55.5363636,
                "end_time": 55.6227273,
                "pitch": 70,
                "velocity": 40,
                "duration": 0.0863636,
                "tempo": 120.0
            },
            {
                "start_time": 55.6727273,
                "end_time": 55.7590909,
                "pitch": 73,
                "velocity": 40,
                "duration": 0.0863636,
                "tempo": 120.0
            },
            {
                "start_time": 55.7590909,
                "end_time": 55.8454545,
                "pitch": 75,
                "velocity": 40,
                "duration": 0.0863636,
                "tempo": 120.0
            },
            {
                "start_time": 55.8795455,
                "end_time": 55.9795455,
                "pitch": 77,
                "velocity": 40,
                "duration": 0.1,
                "tempo": 120.0
            },
            {
                "start_time": 56.0136364,
                "end_time": 56.0977273,
                "pitch": 70,
                "velocity": 40,
                "duration": 0.0840909,
                "tempo": 120.0
            },
            {
                "start_time": 56.0977273,
                "end_time": 56.1795455,
                "pitch": 73,
                "velocity": 40,
                "duration": 0.0818182,
                "tempo": 120.0
            },
            {
                "start_time": 56.2136364,
                "end_time": 56.3136364,
                "pitch": 75,
                "velocity": 40,
                "duration": 0.1,
                "tempo": 120.0
            },
            {
                "start_time": 56.3477273,
                "end_time": 56.4318182,
                "pitch": 77,
                "velocity": 40,
                "duration": 0.0840909,
                "tempo": 120.0
            },
            {
                "start_time": 56.4318182,
                "end_time": 56.6545455,
                "pitch": 77,
                "velocity": 40,
                "duration": 0.2227273,
                "tempo": 120.0
            },
            {
                "start_time": 56.6886364,
                "end_time": 56.775,
                "pitch": 70,
                "velocity": 40,
                "duration": 0.0863636,
                "tempo": 120.0
            },
            {
                "start_time": 56.775,
                "end_time": 56.9045455,
                "pitch": 73,
                "velocity": 40,
                "duration": 0.1295455,
                "tempo": 120.0
            },
            {
                "start_time": 56.9045455,
                "end_time": 56.9840909,
                "pitch": 75,
                "velocity": 40,
                "duration": 0.0795455,
                "tempo": 120.0
            },
            {
                "start_time": 57.0159091,
                "end_time": 57.0954545,
                "pitch": 77,
                "velocity": 40,
                "duration": 0.0795455,
                "tempo": 120.0
            },
            {
                "start_time": 57.0954545,
                "end_time": 57.3090909,
                "pitch": 77,
                "velocity": 40,
                "duration": 0.2136364,
                "tempo": 120.0
            },
            {
                "start_time": 57.3431818,
                "end_time": 57.4272727,
                "pitch": 70,
                "velocity": 40,
                "duration": 0.0840909,
                "tempo": 120.0
            },
            {
                "start_time": 57.4795455,
                "end_time": 57.5636364,
                "pitch": 73,
                "velocity": 40,
                "duration": 0.0840909,
                "tempo": 120.0
            },
            {
                "start_time": 57.5636364,
                "end_time": 57.65,
                "pitch": 75,
                "velocity": 40,
                "duration": 0.0863636,
                "tempo": 120.0
            },
            {
                "start_time": 57.6840909,
                "end_time": 57.7840909,
                "pitch": 77,
                "velocity": 40,
                "duration": 0.1,
                "tempo": 120.0
            },
            {
                "start_time": 57.8181818,
                "end_time": 57.9022727,
                "pitch": 75,
                "velocity": 40,
                "duration": 0.0840909,
                "tempo": 120.0
            },
            {
                "start_time": 57.9022727,
                "end_time": 57.9863636,
                "pitch": 77,
                "velocity": 40,
                "duration": 0.0840909,
                "tempo": 120.0
            },
            {
                "start_time": 58.0181818,
                "end_time": 58.1181818,
                "pitch": 80,
                "velocity": 40,
                "duration": 0.1,
                "tempo": 120.0
            },
            {
                "start_time": 58.1522727,
                "end_time": 58.2386364,
                "pitch": 82,
                "velocity": 40,
                "duration": 0.0863636,
                "tempo": 120.0
            },
            {
                "start_time": 58.2386364,
                "end_time": 58.4590909,
                "pitch": 82,
                "velocity": 40,
                "duration": 0.2204545,
                "tempo": 120.0
            },
            {
                "start_time": 58.4954545,
                "end_time": 58.5795455,
                "pitch": 75,
                "velocity": 40,
                "duration": 0.0840909,
                "tempo": 120.0
            },
            {
                "start_time": 58.5795455,
                "end_time": 58.7090909,
                "pitch": 77,
                "velocity": 40,
                "duration": 0.1295455,
                "tempo": 120.0
            },
            {
                "start_time": 58.7090909,
                "end_time": 58.7886364,
                "pitch": 80,
                "velocity": 40,
                "duration": 0.0795455,
                "tempo": 120.0
            },
            {
                "start_time": 58.8204545,
                "end_time": 58.9022727,
                "pitch": 82,
                "velocity": 40,
                "duration": 0.0818182,
                "tempo": 120.0
            },
            {
                "start_time": 58.9022727,
                "end_time": 59.1136364,
                "pitch": 82,
                "velocity": 40,
                "duration": 0.2113636,
                "tempo": 120.0
            },
            {
                "start_time": 59.1477273,
                "end_time": 59.2340909,
                "pitch": 75,
                "velocity": 40,
                "duration": 0.0863636,
                "tempo": 120.0
            },
            {
                "start_time": 59.2840909,
                "end_time": 59.3704545,
                "pitch": 77,
                "velocity": 40,
                "duration": 0.0863636,
                "tempo": 120.0
            },
            {
                "start_time": 59.3704545,
                "end_time": 59.4545455,
                "pitch": 80,
                "velocity": 40,
                "duration": 0.0840909,
                "tempo": 120.0
            },
            {
                "start_time": 59.4886364,
                "end_time": 59.5886364,
                "pitch": 82,
                "velocity": 40,
                "duration": 0.1,
                "tempo": 120.0
            },
            {
                "start_time": 59.6204545,
                "end_time": 59.7022727,
                "pitch": 75,
                "velocity": 40,
                "duration": 0.0818182,
                "tempo": 120.0
            },
            {
                "start_time": 59.7022727,
                "end_time": 59.7840909,
                "pitch": 77,
                "velocity": 40,
                "duration": 0.0818182,
                "tempo": 120.0
            },
            {
                "start_time": 59.8159091,
                "end_time": 59.9159091,
                "pitch": 80,
                "velocity": 40,
                "duration": 0.1,
                "tempo": 120.0
            },
            {
                "start_time": 59.9477273,
                "end_time": 60.0340909,
                "pitch": 82,
                "velocity": 40,
                "duration": 0.0863636,
                "tempo": 120.0
            },
            {
                "start_time": 60.0340909,
                "end_time": 60.2613636,
                "pitch": 82,
                "velocity": 40,
                "duration": 0.2272727,
                "tempo": 120.0
            },
            {
                "start_time": 60.2977273,
                "end_time": 60.3840909,
                "pitch": 75,
                "velocity": 40,
                "duration": 0.0863636,
                "tempo": 120.0
            },
            {
                "start_time": 60.3840909,
                "end_time": 60.5136364,
                "pitch": 77,
                "velocity": 40,
                "duration": 0.1295455,
                "tempo": 120.0
            },
            {
                "start_time": 60.5136364,
                "end_time": 60.5954545,
                "pitch": 80,
                "velocity": 40,
                "duration": 0.0818182,
                "tempo": 120.0
            },
            {
                "start_time": 60.6272727,
                "end_time": 60.7068182,
                "pitch": 82,
                "velocity": 40,
                "duration": 0.0795455,
                "tempo": 120.0
            },
            {
                "start_time": 60.7068182,
                "end_time": 60.9181818,
                "pitch": 82,
                "velocity": 40,
                "duration": 0.2113636,
                "tempo": 120.0
            },
            {
                "start_time": 60.9522727,
                "end_time": 61.0386364,
                "pitch": 75,
                "velocity": 40,
                "duration": 0.0863636,
                "tempo": 120.0
            },
            {
                "start_time": 61.0886364,
                "end_time": 61.175,
                "pitch": 77,
                "velocity": 40,
                "duration": 0.0863636,
                "tempo": 120.0
            },
            {
                "start_time": 61.175,
                "end_time": 61.2613636,
                "pitch": 80,
                "velocity": 40,
                "duration": 0.0863636,
                "tempo": 120.0
            },
            {
                "start_time": 61.2954545,
                "end_time": 61.3931818,
                "pitch": 82,
                "velocity": 40,
                "duration": 0.0977273,
                "tempo": 120.0
            },
            {
                "start_time": 61.425,
                "end_time": 61.5068182,
                "pitch": 75,
                "velocity": 40,
                "duration": 0.0818182,
                "tempo": 120.0
            },
            {
                "start_time": 61.5068182,
                "end_time": 61.5886364,
                "pitch": 77,
                "velocity": 40,
                "duration": 0.0818182,
                "tempo": 120.0
            },
            {
                "start_time": 61.6227273,
                "end_time": 61.7204545,
                "pitch": 80,
                "velocity": 40,
                "duration": 0.0977273,
                "tempo": 120.0
            },
            {
                "start_time": 61.7522727,
                "end_time": 61.8386364,
                "pitch": 82,
                "velocity": 40,
                "duration": 0.0863636,
                "tempo": 120.0
            },
            {
                "start_time": 61.8386364,
                "end_time": 62.0681818,
                "pitch": 82,
                "velocity": 40,
                "duration": 0.2295455,
                "tempo": 120.0
            },
            {
                "start_time": 62.1022727,
                "end_time": 62.1886364,
                "pitch": 75,
                "velocity": 40,
                "duration": 0.0863636,
                "tempo": 120.0
            },
            {
                "start_time": 62.1886364,
                "end_time": 62.3204545,
                "pitch": 77,
                "velocity": 40,
                "duration": 0.1318182,
                "tempo": 120.0
            },
            {
                "start_time": 62.3204545,
                "end_time": 62.4,
                "pitch": 80,
                "velocity": 40,
                "duration": 0.0795455,
                "tempo": 120.0
            },
            {
                "start_time": 62.4318182,
                "end_time": 62.5113636,
                "pitch": 82,
                "velocity": 40,
                "duration": 0.0795455,
                "tempo": 120.0
            },
            {
                "start_time": 62.5113636,
                "end_time": 62.725,
                "pitch": 82,
                "velocity": 40,
                "duration": 0.2136364,
                "tempo": 120.0
            },
            {
                "start_time": 62.7590909,
                "end_time": 62.8431818,
                "pitch": 75,
                "velocity": 40,
                "duration": 0.0840909,
                "tempo": 120.0
            },
            {
                "start_time": 62.8954545,
                "end_time": 62.9795455,
                "pitch": 77,
                "velocity": 40,
                "duration": 0.0840909,
                "tempo": 120.0
            },
            {
                "start_time": 62.9795455,
                "end_time": 63.0659091,
                "pitch": 80,
                "velocity": 40,
                "duration": 0.0863636,
                "tempo": 120.0
            },
            {
                "start_time": 63.1,
                "end_time": 63.1977273,
                "pitch": 82,
                "velocity": 40,
                "duration": 0.0977273,
                "tempo": 120.0
            },
            {
                "start_time": 63.2318182,
                "end_time": 63.3136364,
                "pitch": 75,
                "velocity": 40,
                "duration": 0.0818182,
                "tempo": 120.0
            },
            {
                "start_time": 63.3136364,
                "end_time": 63.3954545,
                "pitch": 77,
                "velocity": 40,
                "duration": 0.0818182,
                "tempo": 120.0
            },
            {
                "start_time": 63.4272727,
                "end_time": 63.525,
                "pitch": 80,
                "velocity": 40,
                "duration": 0.0977273,
                "tempo": 120.0
            },
            {
                "start_time": 63.5590909,
                "end_time": 63.6454545,
                "pitch": 82,
                "velocity": 40,
                "duration": 0.0863636,
                "tempo": 120.0
            },
            {
                "start_time": 63.6454545,
                "end_time": 63.8727273,
                "pitch": 82,
                "velocity": 40,
                "duration": 0.2272727,
                "tempo": 120.0
            },
            {
                "start_time": 63.9068182,
                "end_time": 63.9954545,
                "pitch": 75,
                "velocity": 40,
                "duration": 0.0886364,
                "tempo": 120.0
            },
            {
                "start_time": 63.9954545,
                "end_time": 64.125,
                "pitch": 77,
                "velocity": 40,
                "duration": 0.1295455,
                "tempo": 120.0
            },
            {
                "start_time": 64.125,
                "end_time": 64.2045455,
                "pitch": 80,
                "velocity": 40,
                "duration": 0.0795455,
                "tempo": 120.0
            },
            {
                "start_time": 64.2363636,
                "end_time": 64.3181818,
                "pitch": 82,
                "velocity": 40,
                "duration": 0.0818182,
                "tempo": 120.0
            },
            {
                "start_time": 64.3181818,
                "end_time": 64.5272727,
                "pitch": 82,
                "velocity": 40,
                "duration": 0.2090909,
                "tempo": 120.0
            },
            {
                "start_time": 64.5613636,
                "end_time": 64.6454545,
                "pitch": 75,
                "velocity": 40,
                "duration": 0.0840909,
                "tempo": 120.0
            },
            {
                "start_time": 64.6954545,
                "end_time": 64.7795455,
                "pitch": 77,
                "velocity": 40,
                "duration": 0.0840909,
                "tempo": 120.0
            },
            {
                "start_time": 64.7795455,
                "end_time": 64.8613636,
                "pitch": 80,
                "velocity": 40,
                "duration": 0.0818182,
                "tempo": 120.0
            },
            {
                "start_time": 64.8954545,
                "end_time": 64.9954545,
                "pitch": 82,
                "velocity": 40,
                "duration": 0.1,
                "tempo": 120.0
            },
            {
                "start_time": 65.0295455,
                "end_time": 65.1136364,
                "pitch": 70,
                "velocity": 40,
                "duration": 0.0840909,
                "tempo": 120.0
            },
            {
                "start_time": 65.1136364,
                "end_time": 65.1977273,
                "pitch": 73,
                "velocity": 40,
                "duration": 0.0840909,
                "tempo": 120.0
            },
            {
                "start_time": 65.2295455,
                "end_time": 65.3295455,
                "pitch": 75,
                "velocity": 40,
                "duration": 0.1,
                "tempo": 120.0
            },
            {
                "start_time": 65.3636364,
                "end_time": 65.45,
                "pitch": 77,
                "velocity": 40,
                "duration": 0.0863636,
                "tempo": 120.0
            },
            {
                "start_time": 65.45,
                "end_time": 65.6772727,
                "pitch": 77,
                "velocity": 40,
                "duration": 0.2272727,
                "tempo": 120.0
            },
            {
                "start_time": 65.7136364,
                "end_time": 65.8,
                "pitch": 70,
                "velocity": 40,
                "duration": 0.0863636,
                "tempo": 120.0
            },
            {
                "start_time": 65.8,
                "end_time": 65.9318182,
                "pitch": 73,
                "velocity": 40,
                "duration": 0.1318182,
                "tempo": 120.0
            },
            {
                "start_time": 65.9318182,
                "end_time": 66.0113636,
                "pitch": 75,
                "velocity": 40,
                "duration": 0.0795455,
                "tempo": 120.0
            },
            {
                "start_time": 66.0431818,
                "end_time": 66.1227273,
                "pitch": 77,
                "velocity": 40,
                "duration": 0.0795455,
                "tempo": 120.0
            },
            {
                "start_time": 66.1227273,
                "end_time": 66.3340909,
                "pitch": 77,
                "velocity": 40,
                "duration": 0.2113636,
                "tempo": 120.0
            },
            {
                "start_time": 66.3681818,
                "end_time": 66.4545455,
                "pitch": 70,
                "velocity": 40,
                "duration": 0.0863636,
                "tempo": 120.0
            },
            {
                "start_time": 66.5068182,
                "end_time": 66.5909091,
                "pitch": 73,
                "velocity": 40,
                "duration": 0.0840909,
                "tempo": 120.0
            },
            {
                "start_time": 66.5909091,
                "end_time": 66.6772727,
                "pitch": 75,
                "velocity": 40,
                "duration": 0.0863636,
                "tempo": 120.0
            },
            {
                "start_time": 66.7113636,
                "end_time": 66.8113636,
                "pitch": 77,
                "velocity": 40,
                "duration": 0.1,
                "tempo": 120.0
            },
            {
                "start_time": 66.8454545,
                "end_time": 66.9295455,
                "pitch": 70,
                "velocity": 40,
                "duration": 0.0840909,
                "tempo": 120.0
            },
            {
                "start_time": 66.9295455,
                "end_time": 67.0113636,
                "pitch": 73,
                "velocity": 40,
                "duration": 0.0818182,
                "tempo": 120.0
            },
            {
                "start_time": 67.0454545,
                "end_time": 67.1454545,
                "pitch": 75,
                "velocity": 40,
                "duration": 0.1,
                "tempo": 120.0
            },
            {
                "start_time": 67.1795455,
                "end_time": 67.2659091,
                "pitch": 77,
                "velocity": 40,
                "duration": 0.0863636,
                "tempo": 120.0
            },
            {
                "start_time": 67.2659091,
                "end_time": 67.4863636,
                "pitch": 77,
                "velocity": 40,
                "duration": 0.2204545,
                "tempo": 120.0
            },
            {
                "start_time": 67.5204545,
                "end_time": 67.6068182,
                "pitch": 70,
                "velocity": 40,
                "duration": 0.0863636,
                "tempo": 120.0
            },
            {
                "start_time": 67.6068182,
                "end_time": 67.7363636,
                "pitch": 73,
                "velocity": 40,
                "duration": 0.1295455,
                "tempo": 120.0
            },
            {
                "start_time": 67.7363636,
                "end_time": 67.8159091,
                "pitch": 75,
                "velocity": 40,
                "duration": 0.0795455,
                "tempo": 120.0
            },
            {
                "start_time": 67.8477273,
                "end_time": 67.9272727,
                "pitch": 77,
                "velocity": 40,
                "duration": 0.0795455,
                "tempo": 120.0
            },
            {
                "start_time": 67.9272727,
                "end_time": 68.1409091,
                "pitch": 77,
                "velocity": 40,
                "duration": 0.2136364,
                "tempo": 120.0
            },
            {
                "start_time": 68.175,
                "end_time": 68.2590909,
                "pitch": 70,
                "velocity": 40,
                "duration": 0.0840909,
                "tempo": 120.0
            },
            {
                "start_time": 68.3113636,
                "end_time": 68.3977273,
                "pitch": 73,
                "velocity": 40,
                "duration": 0.0863636,
                "tempo": 120.0
            },
            {
                "start_time": 68.3977273,
                "end_time": 68.4818182,
                "pitch": 75,
                "velocity": 40,
                "duration": 0.0840909,
                "tempo": 120.0
            },
            {
                "start_time": 68.5159091,
                "end_time": 68.6181818,
                "pitch": 77,
                "velocity": 40,
                "duration": 0.1022727,
                "tempo": 120.0
            },
            {
                "start_time": 68.65,
                "end_time": 68.7340909,
                "pitch": 70,
                "velocity": 40,
                "duration": 0.0840909,
                "tempo": 120.0
            },
            {
                "start_time": 68.7340909,
                "end_time": 68.8181818,
                "pitch": 73,
                "velocity": 40,
                "duration": 0.0840909,
                "tempo": 120.0
            },
            {
                "start_time": 68.8522727,
                "end_time": 68.9522727,
                "pitch": 75,
                "velocity": 40,
                "duration": 0.1,
                "tempo": 120.0
            },
            {
                "start_time": 68.9840909,
                "end_time": 69.0704545,
                "pitch": 77,
                "velocity": 40,
                "duration": 0.0863636,
                "tempo": 120.0
            },
            {
                "start_time": 69.0704545,
                "end_time": 69.2931818,
                "pitch": 77,
                "velocity": 40,
                "duration": 0.2227273,
                "tempo": 120.0
            },
            {
                "start_time": 69.3272727,
                "end_time": 69.4113636,
                "pitch": 70,
                "velocity": 40,
                "duration": 0.0840909,
                "tempo": 120.0
            },
            {
                "start_time": 69.4113636,
                "end_time": 69.5409091,
                "pitch": 73,
                "velocity": 40,
                "duration": 0.1295455,
                "tempo": 120.0
            },
            {
                "start_time": 69.5409091,
                "end_time": 69.6227273,
                "pitch": 75,
                "velocity": 40,
                "duration": 0.0818182,
                "tempo": 120.0
            },
            {
                "start_time": 69.6545455,
                "end_time": 69.7340909,
                "pitch": 77,
                "velocity": 40,
                "duration": 0.0795455,
                "tempo": 120.0
            },
            {
                "start_time": 69.7340909,
                "end_time": 69.9454545,
                "pitch": 77,
                "velocity": 40,
                "duration": 0.2113636,
                "tempo": 120.0
            },
            {
                "start_time": 69.9795455,
                "end_time": 70.0659091,
                "pitch": 70,
                "velocity": 40,
                "duration": 0.0863636,
                "tempo": 120.0
            },
            {
                "start_time": 70.1159091,
                "end_time": 70.2022727,
                "pitch": 73,
                "velocity": 40,
                "duration": 0.0863636,
                "tempo": 120.0
            },
            {
                "start_time": 70.2022727,
                "end_time": 70.2886364,
                "pitch": 75,
                "velocity": 40,
                "duration": 0.0863636,
                "tempo": 120.0
            },
            {
                "start_time": 70.3227273,
                "end_time": 70.4227273,
                "pitch": 77,
                "velocity": 40,
                "duration": 0.1,
                "tempo": 120.0
            },
            {
                "start_time": 70.4568182,
                "end_time": 70.5386364,
                "pitch": 70,
                "velocity": 40,
                "duration": 0.0818182,
                "tempo": 120.0
            },
            {
                "start_time": 70.5386364,
                "end_time": 70.6227273,
                "pitch": 73,
                "velocity": 40,
                "duration": 0.0840909,
                "tempo": 120.0
            },
            {
                "start_time": 70.6568182,
                "end_time": 70.7568182,
                "pitch": 75,
                "velocity": 40,
                "duration": 0.1,
                "tempo": 120.0
            },
            {
                "start_time": 70.7909091,
                "end_time": 70.875,
                "pitch": 77,
                "velocity": 40,
                "duration": 0.0840909,
                "tempo": 120.0
            },
            {
                "start_time": 70.875,
                "end_time": 71.0977273,
                "pitch": 77,
                "velocity": 40,
                "duration": 0.2227273,
                "tempo": 120.0
            },
            {
                "start_time": 71.1318182,
                "end_time": 71.2181818,
                "pitch": 70,
                "velocity": 40,
                "duration": 0.0863636,
                "tempo": 120.0
            },
            {
                "start_time": 71.2181818,
                "end_time": 71.3477273,
                "pitch": 73,
                "velocity": 40,
                "duration": 0.1295455,
                "tempo": 120.0
            },
            {
                "start_time": 71.3477273,
                "end_time": 71.4272727,
                "pitch": 75,
                "velocity": 40,
                "duration": 0.0795455,
                "tempo": 120.0
            },
            {
                "start_time": 71.4590909,
                "end_time": 71.5386364,
                "pitch": 77,
                "velocity": 40,
                "duration": 0.0795455,
                "tempo": 120.0
            },
            {
                "start_time": 71.5386364,
                "end_time": 71.7522727,
                "pitch": 77,
                "velocity": 40,
                "duration": 0.2136364,
                "tempo": 120.0
            },
            {
                "start_time": 71.7863636,
                "end_time": 71.8704545,
                "pitch": 70,
                "velocity": 40,
                "duration": 0.0840909,
                "tempo": 120.0
            },
            {
                "start_time": 71.9227273,
                "end_time": 72.0068182,
                "pitch": 73,
                "velocity": 40,
                "duration": 0.0840909,
                "tempo": 120.0
            },
            {
                "start_time": 72.0068182,
                "end_time": 72.0931818,
                "pitch": 75,
                "velocity": 40,
                "duration": 0.0863636,
                "tempo": 120.0
            },
            {
                "start_time": 72.1272727,
                "end_time": 72.1454545,
                "pitch": 77,
                "velocity": 40,
                "duration": 0.0181818,
                "tempo": 120.0
            }
        ]
    }
}