{
    "mood": "sad",
    "instruments": {
        "Oboe": [
            {
                "start_time": 0.3977273,
                "end_time": 0.6295455,
                "pitch": 64,
                "velocity": 25,
                "duration": 0.2318182,
                "tempo": 120.0
            },
            {
                "start_time": 0.6636364,
                "end_time": 0.8954545,
                "pitch": 64,
                "velocity": 25,
                "duration": 0.2318182,
                "tempo": 120.0
            },
            {
                "start_time": 0.9295455,
                "end_time": 1.1613636,
                "pitch": 61,
                "velocity": 25,
                "duration": 0.2318182,
                "tempo": 120.0
            },
            {
                "start_time": 1.1954545,
                "end_time": 1.4272727,
                "pitch": 62,
                "velocity": 25,
                "duration": 0.2318182,
                "tempo": 120.0
            },
            {
                "start_time": 1.4613636,
                "end_time": 1.6931818,
                "pitch": 62,
                "velocity": 25,
                "duration": 0.2318182,
                "tempo": 120.0
            },
            {
                "start_time": 1.7272727,
                "end_time": 1.9590909,
                "pitch": 62,
                "velocity": 25,
                "duration": 0.2318182,
                "tempo": 120.0
            },
            {
                "start_time": 1.9931818,
                "end_time": 5.1681818,
                "pitch": 60,
                "velocity": 25,
                "duration": 3.175,
                "tempo": 120.0
            }
        ],
        "Acoustic Bass": [
            {
                "start_time": 0.3977273,
                "end_time": 0.6295455,
                "pitch": 45,
                "velocity": 32,
                "duration": 0.2318182,
                "tempo": 120.0
            },
            {
                "start_time": 0.6636364,
                "end_time": 0.8954545,
                "pitch": 45,
                "velocity": 32,
                "duration": 0.2318182,
                "tempo": 120.0
            },
            {
                "start_time": 0.9295455,
                "end_time": 1.1613636,
                "pitch": 45,
                "velocity": 32,
                "duration": 0.2318182,
                "tempo": 120.0
            },
            {
                "start_time": 1.1954545,
                "end_time": 1.4272727,
                "pitch": 43,
                "velocity": 32,
                "duration": 0.2318182,
                "tempo": 120.0
            },
            {
                "start_time": 1.4613636,
                "end_time": 1.6931818,
                "pitch": 43,
                "velocity": 32,
                "duration": 0.2318182,
                "tempo": 120.0
            },
            {
                "start_time": 1.7272727,
                "end_time": 1.9590909,
                "pitch": 43,
                "velocity": 32,
                "duration": 0.2318182,
                "tempo": 120.0
            },
            {
                "start_time": 1.9931818,
                "end_time": 5.1681818,
                "pitch": 41,
                "velocity": 32,
                "duration": 3.175,
                "tempo": 120.0
            }
        ],
        "Harpsichord": [
            {
                "start_time": 0.3977273,
                "end_time": 0.6295455,
                "pitch": 69,
                "velocity": 20,
                "duration": 0.2318182,
                "tempo": 120.0
            },
            {
                "start_time": 0.6636364,
                "end_time": 0.8954545,
                "pitch": 68,
                "velocity": 20,
                "duration": 0.2318182,
                "tempo": 120.0
            },
            {
                "start_time": 0.9295455,
                "end_time": 1.1613636,
                "pitch": 64,
                "velocity": 20,
                "duration": 0.2318182,
                "tempo": 120.0
            },
            {
                "start_time": 1.1954545,
                "end_time": 1.4272727,
                "pitch": 67,
                "velocity": 20,
                "duration": 0.2318182,
                "tempo": 120.0
            },
            {
                "start_time": 1.4613636,
                "end_time": 1.6931818,
                "pitch": 66,
                "velocity": 20,
                "duration": 0.2318182,
                "tempo": 120.0
            },
            {
                "start_time": 1.7272727,
                "end_time": 1.9590909,
                "pitch": 65,
                "velocity": 20,
                "duration": 0.2318182,
                "tempo": 120.0
            },
            {
                "start_time": 1.9931818,
                "end_time": 5.1681818,
                "pitch": 64,
                "velocity": 20,
                "duration": 3.175,
                "tempo": 120.0
            }
        ],
        "Electric Guitar (clean)": [
            {
                "start_time": 0.3977273,
                "end_time": 0.6295455,
                "pitch": 45,
                "velocity": 20,
                "duration": 0.2318182,
                "tempo": 120.0
            },
            {
                "start_time": 0.6636364,
                "end_time": 0.8954545,
                "pitch": 45,
                "velocity": 20,
                "duration": 0.2318182,
                "tempo": 120.0
            },
            {
                "start_time": 0.9295455,
                "end_time": 1.1613636,
                "pitch": 45,
                "velocity": 20,
                "duration": 0.2318182,
                "tempo": 120.0
            },
            {
                "start_time": 1.1954545,
                "end_time": 1.4272727,
                "pitch": 43,
                "velocity": 20,
                "duration": 0.2318182,
                "tempo": 120.0
            },
            {
                "start_time": 1.4613636,
                "end_time": 1.6931818,
                "pitch": 43,
                "velocity": 20,
                "duration": 0.2318182,
                "tempo": 120.0
            },
            {
                "start_time": 1.7272727,
                "end_time": 1.9590909,
                "pitch": 43,
                "velocity": 20,
                "duration": 0.2318182,
                "tempo": 120.0
            },
            {
                "start_time": 1.9931818,
                "end_time": 5.1681818,
                "pitch": 41,
                "velocity": 20,
                "duration": 3.175,
                "tempo": 120.0
            }
        ]
    }
}