{
    "track_id": "02 Opening #2_9",
    "mood": "angry",
    "instruments": {
        "Lead 1 (square)": [
            {
                "pitch": 0,
                "velocity": 0,
                "duration": 12.4364,
                "tempo": 0
            },
            {
                "pitch": 45,
                "velocity": 15,
                "duration": 0.1,
                "tempo": 120.0
            },
            {
                "pitch": 45,
                "velocity": 15,
                "duration": 0.1023,
                "tempo": 120.0
            },
            {
                "pitch": 45,
                "velocity": 15,
                "duration": 0.1,
                "tempo": 120.0
            },
            {
                "pitch": 45,
                "velocity": 15,
                "duration": 0.1023,
                "tempo": 120.0
            },
            {
                "pitch": 45,
                "velocity": 15,
                "duration": 0.2045,
                "tempo": 120.0
            },
            {
                "pitch": 45,
                "velocity": 15,
                "duration": 0.2227,
                "tempo": 120.0
            },
            {
                "pitch": 0,
                "velocity": 0,
                "duration": 0.9841,
                "tempo": 0
            },
            {
                "pitch": 45,
                "velocity": 15,
                "duration": 0.1023,
                "tempo": 120.0
            },
            {
                "pitch": 45,
                "velocity": 15,
                "duration": 0.1045,
                "tempo": 120.0
            },
            {
                "pitch": 45,
                "velocity": 15,
                "duration": 0.2,
                "tempo": 120.0
            },
            {
                "pitch": 45,
                "velocity": 15,
                "duration": 0.2182,
                "tempo": 120.0
            },
            {
                "pitch": 0,
                "velocity": 0,
                "duration": 0.9864,
                "tempo": 0
            },
            {
                "pitch": 45,
                "velocity": 15,
                "duration": 0.1023,
                "tempo": 120.0
            },
            {
                "pitch": 45,
                "velocity": 15,
                "duration": 0.1045,
                "tempo": 120.0
            },
            {
                "pitch": 43,
                "velocity": 15,
                "duration": 0.2,
                "tempo": 120.0
            },
            {
                "pitch": 43,
                "velocity": 15,
                "duration": 0.2182,
                "tempo": 120.0
            },
            {
                "pitch": 0,
                "velocity": 0,
                "duration": 0.9864,
                "tempo": 0
            },
            {
                "pitch": 43,
                "velocity": 15,
                "duration": 0.1,
                "tempo": 120.0
            },
            {
                "pitch": 43,
                "velocity": 15,
                "duration": 0.1023,
                "tempo": 120.0
            },
            {
                "pitch": 43,
                "velocity": 15,
                "duration": 0.2,
                "tempo": 120.0
            },
            {
                "pitch": 43,
                "velocity": 15,
                "duration": 0.2182,
                "tempo": 120.0
            },
            {
                "pitch": 0,
                "velocity": 0,
                "duration": 0.9886,
                "tempo": 0
            },
            {
                "pitch": 43,
                "velocity": 15,
                "duration": 0.1,
                "tempo": 120.0
            },
            {
                "pitch": 43,
                "velocity": 15,
                "duration": 0.1,
                "tempo": 120.0
            },
            {
                "pitch": 41,
                "velocity": 15,
                "duration": 0.2,
                "tempo": 120.0
            },
            {
                "pitch": 41,
                "velocity": 15,
                "duration": 0.2159,
                "tempo": 120.0
            },
            {
                "pitch": 0,
                "velocity": 0,
                "duration": 0.9932,
                "tempo": 0
            },
            {
                "pitch": 41,
                "velocity": 15,
                "duration": 0.1023,
                "tempo": 120.0
            },
            {
                "pitch": 41,
                "velocity": 15,
                "duration": 0.1045,
                "tempo": 120.0
            },
            {
                "pitch": 41,
                "velocity": 15,
                "duration": 0.2,
                "tempo": 120.0
            },
            {
                "pitch": 41,
                "velocity": 15,
                "duration": 0.2159,
                "tempo": 120.0
            },
            {
                "pitch": 0,
                "velocity": 0,
                "duration": 0.9864,
                "tempo": 0
            },
            {
                "pitch": 41,
                "velocity": 15,
                "duration": 0.1023,
                "tempo": 120.0
            },
            {
                "pitch": 41,
                "velocity": 15,
                "duration": 0.1023,
                "tempo": 120.0
            },
            {
                "pitch": 40,
                "velocity": 15,
                "duration": 0.2,
                "tempo": 120.0
            },
            {
                "pitch": 40,
                "velocity": 15,
                "duration": 0.2159,
                "tempo": 120.0
            },
            {
                "pitch": 0,
                "velocity": 0,
                "duration": 1.1341,
                "tempo": 0
            },
            {
                "pitch": 40,
                "velocity": 15,
                "duration": 0.1205,
                "tempo": 120.0
            },
            {
                "pitch": 40,
                "velocity": 15,
                "duration": 0.1227,
                "tempo": 120.0
            },
            {
                "pitch": 40,
                "velocity": 15,
                "duration": 0.0568,
                "tempo": 120.0
            },
            {
                "pitch": 0,
                "velocity": 0,
                "duration": 0.0614,
                "tempo": 0
            },
            {
                "pitch": 40,
                "velocity": 15,
                "duration": 0.0591,
                "tempo": 120.0
            },
            {
                "pitch": 0,
                "velocity": 0,
                "duration": 0.0614,
                "tempo": 0
            },
            {
                "pitch": 52,
                "velocity": 15,
                "duration": 0.0591,
                "tempo": 120.0
            },
            {
                "pitch": 0,
                "velocity": 0,
                "duration": 0.0614,
                "tempo": 0
            },
            {
                "pitch": 40,
                "velocity": 15,
                "duration": 0.0591,
                "tempo": 120.0
            },
            {
                "pitch": 0,
                "velocity": 0,
                "duration": 0.0614,
                "tempo": 0
            },
            {
                "pitch": 40,
                "velocity": 15,
                "duration": 0.225,
                "tempo": 120.0
            },
            {
                "pitch": 0,
                "velocity": 0,
                "duration": 0.0773,
                "tempo": 0
            },
            {
                "pitch": 52,
                "velocity": 15,
                "duration": 0.075,
                "tempo": 120.0
            },
            {
                "pitch": 0,
                "velocity": 0,
                "duration": 0.0773,
                "tempo": 0
            },
            {
                "pitch": 40,
                "velocity": 15,
                "duration": 0.225,
                "tempo": 120.0
            },
            {
                "pitch": 0,
                "velocity": 0,
                "duration": 0.0773,
                "tempo": 0
            },
            {
                "pitch": 40,
                "velocity": 15,
                "duration": 0.075,
                "tempo": 120.0
            },
            {
                "pitch": 0,
                "velocity": 0,
                "duration": 0.0773,
                "tempo": 0
            },
            {
                "pitch": 40,
                "velocity": 15,
                "duration": 0.2295,
                "tempo": 120.0
            },
            {
                "pitch": 0,
                "velocity": 0,
                "duration": 0.0773,
                "tempo": 0
            },
            {
                "pitch": 40,
                "velocity": 15,
                "duration": 0.025,
                "tempo": 120.0
            },
            {
                "pitch": 0,
                "velocity": 0,
                "duration": 0.1273,
                "tempo": 0
            },
            {
                "pitch": 40,
                "velocity": 15,
                "duration": 0.025,
                "tempo": 120.0
            },
            {
                "pitch": 0,
                "velocity": 0,
                "duration": 0.1295,
                "tempo": 0
            },
            {
                "pitch": 52,
                "velocity": 15,
                "duration": 0.0227,
                "tempo": 120.0
            },
            {
                "pitch": 0,
                "velocity": 0,
                "duration": 0.1295,
                "tempo": 0
            },
            {
                "pitch": 52,
                "velocity": 15,
                "duration": 0.025,
                "tempo": 120.0
            },
            {
                "pitch": 0,
                "velocity": 0,
                "duration": 0.1318,
                "tempo": 0
            },
            {
                "pitch": 45,
                "velocity": 15,
                "duration": 0.3,
                "tempo": 120.0
            },
            {
                "pitch": 57,
                "velocity": 15,
                "duration": 0.1523,
                "tempo": 120.0
            },
            {
                "pitch": 43,
                "velocity": 15,
                "duration": 0.3023,
                "tempo": 120.0
            },
            {
                "pitch": 55,
                "velocity": 15,
                "duration": 0.1523,
                "tempo": 120.0
            },
            {
                "pitch": 36,
                "velocity": 15,
                "duration": 1.5955,
                "tempo": 120.0
            },
            {
                "pitch": 43,
                "velocity": 15,
                "duration": 0.4,
                "tempo": 120.0
            },
            {
                "pitch": 55,
                "velocity": 15,
                "duration": 0.2023,
                "tempo": 120.0
            },
            {
                "pitch": 40,
                "velocity": 15,
                "duration": 0.4,
                "tempo": 120.0
            },
            {
                "pitch": 52,
                "velocity": 15,
                "duration": 0.2,
                "tempo": 120.0
            },
            {
                "pitch": 45,
                "velocity": 15,
                "duration": 2.0295,
                "tempo": 120.0
            },
            {
                "pitch": 45,
                "velocity": 15,
                "duration": 0.4068,
                "tempo": 120.0
            },
            {
                "pitch": 57,
                "velocity": 15,
                "duration": 0.2023,
                "tempo": 120.0
            },
            {
                "pitch": 43,
                "velocity": 15,
                "duration": 0.4045,
                "tempo": 120.0
            },
            {
                "pitch": 55,
                "velocity": 15,
                "duration": 0.2045,
                "tempo": 120.0
            },
            {
                "pitch": 64,
                "velocity": 15,
                "duration": 6.0455,
                "tempo": 120.0
            },
            {
                "pitch": 36,
                "velocity": 15,
                "duration": 2.0227,
                "tempo": 120.0
            },
            {
                "pitch": 43,
                "velocity": 15,
                "duration": 0.4023,
                "tempo": 120.0
            },
            {
                "pitch": 55,
                "velocity": 15,
                "duration": 0.2,
                "tempo": 120.0
            },
            {
                "pitch": 66,
                "velocity": 15,
                "duration": 6.4727,
                "tempo": 120.0
            },
            {
                "pitch": 40,
                "velocity": 15,
                "duration": 0.4,
                "tempo": 120.0
            },
            {
                "pitch": 52,
                "velocity": 15,
                "duration": 0.2,
                "tempo": 120.0
            },
            {
                "pitch": 45,
                "velocity": 15,
                "duration": 2.0295,
                "tempo": 120.0
            },
            {
                "pitch": 45,
                "velocity": 15,
                "duration": 0.2023,
                "tempo": 120.0
            },
            {
                "pitch": 45,
                "velocity": 15,
                "duration": 0.2045,
                "tempo": 120.0
            },
            {
                "pitch": 57,
                "velocity": 15,
                "duration": 0.2023,
                "tempo": 120.0
            },
            {
                "pitch": 43,
                "velocity": 15,
                "duration": 0.2023,
                "tempo": 120.0
            },
            {
                "pitch": 43,
                "velocity": 15,
                "duration": 0.2045,
                "tempo": 120.0
            },
            {
                "pitch": 55,
                "velocity": 15,
                "duration": 0.2023,
                "tempo": 120.0
            },
            {
                "pitch": 64,
                "velocity": 15,
                "duration": 6.4727,
                "tempo": 120.0
            },
            {
                "pitch": 36,
                "velocity": 15,
                "duration": 2.0227,
                "tempo": 120.0
            },
            {
                "pitch": 0,
                "velocity": 0,
                "duration": 0.0023,
                "tempo": 0
            },
            {
                "pitch": 43,
                "velocity": 15,
                "duration": 0.2,
                "tempo": 120.0
            },
            {
                "pitch": 43,
                "velocity": 15,
                "duration": 0.2,
                "tempo": 120.0
            },
            {
                "pitch": 55,
                "velocity": 15,
                "duration": 0.2,
                "tempo": 120.0
            },
            {
                "pitch": 66,
                "velocity": 15,
                "duration": 6.4727,
                "tempo": 120.0
            },
            {
                "pitch": 40,
                "velocity": 15,
                "duration": 0.2,
                "tempo": 120.0
            },
            {
                "pitch": 40,
                "velocity": 15,
                "duration": 0.2,
                "tempo": 120.0
            },
            {
                "pitch": 52,
                "velocity": 15,
                "duration": 0.2,
                "tempo": 120.0
            },
            {
                "pitch": 0,
                "velocity": 0,
                "duration": 0.0023,
                "tempo": 0
            },
            {
                "pitch": 45,
                "velocity": 15,
                "duration": 2.0227,
                "tempo": 120.0
            },
            {
                "pitch": 45,
                "velocity": 15,
                "duration": 0.2,
                "tempo": 120.0
            },
            {
                "pitch": 45,
                "velocity": 15,
                "duration": 0.2,
                "tempo": 120.0
            },
            {
                "pitch": 57,
                "velocity": 15,
                "duration": 0.2,
                "tempo": 120.0
            },
            {
                "pitch": 43,
                "velocity": 15,
                "duration": 0.2,
                "tempo": 120.0
            },
            {
                "pitch": 43,
                "velocity": 15,
                "duration": 0.2,
                "tempo": 120.0
            },
            {
                "pitch": 55,
                "velocity": 15,
                "duration": 0.2023,
                "tempo": 120.0
            },
            {
                "pitch": 64,
                "velocity": 15,
                "duration": 6.4523,
                "tempo": 120.0
            },
            {
                "pitch": 36,
                "velocity": 15,
                "duration": 2.0227,
                "tempo": 120.0
            },
            {
                "pitch": 43,
                "velocity": 15,
                "duration": 0.2,
                "tempo": 120.0
            },
            {
                "pitch": 43,
                "velocity": 15,
                "duration": 0.2,
                "tempo": 120.0
            },
            {
                "pitch": 55,
                "velocity": 15,
                "duration": 0.2,
                "tempo": 120.0
            },
            {
                "pitch": 66,
                "velocity": 15,
                "duration": 6.45,
                "tempo": 120.0
            },
            {
                "pitch": 40,
                "velocity": 15,
                "duration": 0.2,
                "tempo": 120.0
            },
            {
                "pitch": 0,
                "velocity": 0,
                "duration": 0.0023,
                "tempo": 0
            },
            {
                "pitch": 40,
                "velocity": 15,
                "duration": 0.2318,
                "tempo": 120.0
            },
            {
                "pitch": 0,
                "velocity": 0,
                "duration": 0.1682,
                "tempo": 0
            },
            {
                "pitch": 45,
                "velocity": 15,
                "duration": 3.2568,
                "tempo": 120.0
            }
        ],
        "Lead 2 (sawtooth)": [
            {
                "pitch": 0,
                "velocity": 0,
                "duration": 12.8477,
                "tempo": 0
            },
            {
                "pitch": 45,
                "velocity": 15,
                "duration": 0.1795,
                "tempo": 120.0
            },
            {
                "pitch": 0,
                "velocity": 0,
                "duration": 0.0205,
                "tempo": 0
            },
            {
                "pitch": 45,
                "velocity": 15,
                "duration": 0.1864,
                "tempo": 120.0
            },
            {
                "pitch": 0,
                "velocity": 0,
                "duration": 0.0205,
                "tempo": 0
            },
            {
                "pitch": 60,
                "velocity": 12,
                "duration": 0.1818,
                "tempo": 120.0
            },
            {
                "pitch": 0,
                "velocity": 0,
                "duration": 0.0182,
                "tempo": 0
            },
            {
                "pitch": 45,
                "velocity": 12,
                "duration": 0.0818,
                "tempo": 120.0
            },
            {
                "pitch": 0,
                "velocity": 0,
                "duration": 0.0182,
                "tempo": 0
            },
            {
                "pitch": 59,
                "velocity": 12,
                "duration": 0.1818,
                "tempo": 120.0
            },
            {
                "pitch": 0,
                "velocity": 0,
                "duration": 0.0182,
                "tempo": 0
            },
            {
                "pitch": 45,
                "velocity": 12,
                "duration": 0.0795,
                "tempo": 120.0
            },
            {
                "pitch": 0,
                "velocity": 0,
                "duration": 0.0182,
                "tempo": 0
            },
            {
                "pitch": 57,
                "velocity": 12,
                "duration": 0.0795,
                "tempo": 120.0
            },
            {
                "pitch": 0,
                "velocity": 0,
                "duration": 0.0182,
                "tempo": 0
            },
            {
                "pitch": 45,
                "velocity": 12,
                "duration": 0.0818,
                "tempo": 120.0
            },
            {
                "pitch": 0,
                "velocity": 0,
                "duration": 0.0159,
                "tempo": 0
            },
            {
                "pitch": 55,
                "velocity": 12,
                "duration": 0.1886,
                "tempo": 120.0
            },
            {
                "pitch": 0,
                "velocity": 0,
                "duration": 0.0182,
                "tempo": 0
            },
            {
                "pitch": 52,
                "velocity": 12,
                "duration": 0.0841,
                "tempo": 120.0
            },
            {
                "pitch": 0,
                "velocity": 0,
                "duration": 0.0182,
                "tempo": 0
            },
            {
                "pitch": 55,
                "velocity": 12,
                "duration": 0.0841,
                "tempo": 120.0
            },
            {
                "pitch": 0,
                "velocity": 0,
                "duration": 0.0227,
                "tempo": 0
            },
            {
                "pitch": 45,
                "velocity": 15,
                "duration": 0.1795,
                "tempo": 120.0
            },
            {
                "pitch": 0,
                "velocity": 0,
                "duration": 0.0205,
                "tempo": 0
            },
            {
                "pitch": 45,
                "velocity": 15,
                "duration": 0.1818,
                "tempo": 120.0
            },
            {
                "pitch": 0,
                "velocity": 0,
                "duration": 0.0182,
                "tempo": 0
            },
            {
                "pitch": 60,
                "velocity": 12,
                "duration": 0.1818,
                "tempo": 120.0
            },
            {
                "pitch": 0,
                "velocity": 0,
                "duration": 0.0182,
                "tempo": 0
            },
            {
                "pitch": 45,
                "velocity": 12,
                "duration": 0.0841,
                "tempo": 120.0
            },
            {
                "pitch": 0,
                "velocity": 0,
                "duration": 0.0182,
                "tempo": 0
            },
            {
                "pitch": 59,
                "velocity": 12,
                "duration": 0.1795,
                "tempo": 120.0
            },
            {
                "pitch": 0,
                "velocity": 0,
                "duration": 0.0182,
                "tempo": 0
            },
            {
                "pitch": 45,
                "velocity": 12,
                "duration": 0.0818,
                "tempo": 120.0
            },
            {
                "pitch": 0,
                "velocity": 0,
                "duration": 0.0159,
                "tempo": 0
            },
            {
                "pitch": 57,
                "velocity": 12,
                "duration": 0.0818,
                "tempo": 120.0
            },
            {
                "pitch": 0,
                "velocity": 0,
                "duration": 0.0182,
                "tempo": 0
            },
            {
                "pitch": 45,
                "velocity": 12,
                "duration": 0.0795,
                "tempo": 120.0
            },
            {
                "pitch": 0,
                "velocity": 0,
                "duration": 0.0182,
                "tempo": 0
            },
            {
                "pitch": 55,
                "velocity": 12,
                "duration": 0.1864,
                "tempo": 120.0
            },
            {
                "pitch": 0,
                "velocity": 0,
                "duration": 0.0182,
                "tempo": 0
            },
            {
                "pitch": 52,
                "velocity": 12,
                "duration": 0.0841,
                "tempo": 120.0
            },
            {
                "pitch": 0,
                "velocity": 0,
                "duration": 0.0205,
                "tempo": 0
            },
            {
                "pitch": 55,
                "velocity": 12,
                "duration": 0.0841,
                "tempo": 120.0
            },
            {
                "pitch": 0,
                "velocity": 0,
                "duration": 0.0227,
                "tempo": 0
            },
            {
                "pitch": 43,
                "velocity": 15,
                "duration": 0.1795,
                "tempo": 120.0
            },
            {
                "pitch": 0,
                "velocity": 0,
                "duration": 0.0182,
                "tempo": 0
            },
            {
                "pitch": 43,
                "velocity": 15,
                "duration": 0.1818,
                "tempo": 120.0
            },
            {
                "pitch": 0,
                "velocity": 0,
                "duration": 0.0205,
                "tempo": 0
            },
            {
                "pitch": 59,
                "velocity": 12,
                "duration": 0.1818,
                "tempo": 120.0
            },
            {
                "pitch": 0,
                "velocity": 0,
                "duration": 0.0182,
                "tempo": 0
            },
            {
                "pitch": 43,
                "velocity": 12,
                "duration": 0.0818,
                "tempo": 120.0
            },
            {
                "pitch": 0,
                "velocity": 0,
                "duration": 0.0182,
                "tempo": 0
            },
            {
                "pitch": 57,
                "velocity": 12,
                "duration": 0.1841,
                "tempo": 120.0
            },
            {
                "pitch": 0,
                "velocity": 0,
                "duration": 0.0182,
                "tempo": 0
            },
            {
                "pitch": 43,
                "velocity": 12,
                "duration": 0.0818,
                "tempo": 120.0
            },
            {
                "pitch": 0,
                "velocity": 0,
                "duration": 0.0182,
                "tempo": 0
            },
            {
                "pitch": 55,
                "velocity": 12,
                "duration": 0.0818,
                "tempo": 120.0
            },
            {
                "pitch": 0,
                "velocity": 0,
                "duration": 0.0182,
                "tempo": 0
            },
            {
                "pitch": 43,
                "velocity": 12,
                "duration": 0.0818,
                "tempo": 120.0
            },
            {
                "pitch": 0,
                "velocity": 0,
                "duration": 0.0182,
                "tempo": 0
            },
            {
                "pitch": 53,
                "velocity": 12,
                "duration": 0.1818,
                "tempo": 120.0
            },
            {
                "pitch": 0,
                "velocity": 0,
                "duration": 0.0182,
                "tempo": 0
            },
            {
                "pitch": 55,
                "velocity": 12,
                "duration": 0.1818,
                "tempo": 120.0
            },
            {
                "pitch": 0,
                "velocity": 0,
                "duration": 0.0227,
                "tempo": 0
            },
            {
                "pitch": 43,
                "velocity": 15,
                "duration": 0.1795,
                "tempo": 120.0
            },
            {
                "pitch": 0,
                "velocity": 0,
                "duration": 0.0205,
                "tempo": 0
            },
            {
                "pitch": 43,
                "velocity": 15,
                "duration": 0.1818,
                "tempo": 120.0
            },
            {
                "pitch": 0,
                "velocity": 0,
                "duration": 0.0182,
                "tempo": 0
            },
            {
                "pitch": 59,
                "velocity": 12,
                "duration": 0.1864,
                "tempo": 120.0
            },
            {
                "pitch": 0,
                "velocity": 0,
                "duration": 0.0182,
                "tempo": 0
            },
            {
                "pitch": 43,
                "velocity": 12,
                "duration": 0.0841,
                "tempo": 120.0
            },
            {
                "pitch": 0,
                "velocity": 0,
                "duration": 0.0182,
                "tempo": 0
            },
            {
                "pitch": 57,
                "velocity": 12,
                "duration": 0.1841,
                "tempo": 120.0
            },
            {
                "pitch": 0,
                "velocity": 0,
                "duration": 0.0182,
                "tempo": 0
            },
            {
                "pitch": 43,
                "velocity": 12,
                "duration": 0.0795,
                "tempo": 120.0
            },
            {
                "pitch": 0,
                "velocity": 0,
                "duration": 0.0182,
                "tempo": 0
            },
            {
                "pitch": 55,
                "velocity": 12,
                "duration": 0.0795,
                "tempo": 120.0
            },
            {
                "pitch": 0,
                "velocity": 0,
                "duration": 0.0182,
                "tempo": 0
            },
            {
                "pitch": 43,
                "velocity": 12,
                "duration": 0.0795,
                "tempo": 120.0
            },
            {
                "pitch": 0,
                "velocity": 0,
                "duration": 0.0182,
                "tempo": 0
            },
            {
                "pitch": 53,
                "velocity": 12,
                "duration": 0.1818,
                "tempo": 120.0
            },
            {
                "pitch": 0,
                "velocity": 0,
                "duration": 0.0205,
                "tempo": 0
            },
            {
                "pitch": 55,
                "velocity": 12,
                "duration": 0.1818,
                "tempo": 120.0
            },
            {
                "pitch": 0,
                "velocity": 0,
                "duration": 0.0205,
                "tempo": 0
            },
            {
                "pitch": 41,
                "velocity": 15,
                "duration": 0.1795,
                "tempo": 120.0
            },
            {
                "pitch": 0,
                "velocity": 0,
                "duration": 0.0182,
                "tempo": 0
            },
            {
                "pitch": 41,
                "velocity": 15,
                "duration": 0.1818,
                "tempo": 120.0
            },
            {
                "pitch": 0,
                "velocity": 0,
                "duration": 0.0182,
                "tempo": 0
            },
            {
                "pitch": 57,
                "velocity": 12,
                "duration": 0.1864,
                "tempo": 120.0
            },
            {
                "pitch": 0,
                "velocity": 0,
                "duration": 0.0182,
                "tempo": 0
            },
            {
                "pitch": 41,
                "velocity": 12,
                "duration": 0.0841,
                "tempo": 120.0
            },
            {
                "pitch": 0,
                "velocity": 0,
                "duration": 0.0182,
                "tempo": 0
            },
            {
                "pitch": 55,
                "velocity": 12,
                "duration": 0.1841,
                "tempo": 120.0
            },
            {
                "pitch": 0,
                "velocity": 0,
                "duration": 0.0182,
                "tempo": 0
            },
            {
                "pitch": 41,
                "velocity": 12,
                "duration": 0.0795,
                "tempo": 120.0
            },
            {
                "pitch": 0,
                "velocity": 0,
                "duration": 0.0182,
                "tempo": 0
            },
            {
                "pitch": 53,
                "velocity": 12,
                "duration": 0.0795,
                "tempo": 120.0
            },
            {
                "pitch": 0,
                "velocity": 0,
                "duration": 0.0182,
                "tempo": 0
            },
            {
                "pitch": 41,
                "velocity": 12,
                "duration": 0.0818,
                "tempo": 120.0
            },
            {
                "pitch": 0,
                "velocity": 0,
                "duration": 0.0159,
                "tempo": 0
            },
            {
                "pitch": 52,
                "velocity": 12,
                "duration": 0.1886,
                "tempo": 120.0
            },
            {
                "pitch": 0,
                "velocity": 0,
                "duration": 0.0182,
                "tempo": 0
            },
            {
                "pitch": 50,
                "velocity": 12,
                "duration": 0.1864,
                "tempo": 120.0
            },
            {
                "pitch": 0,
                "velocity": 0,
                "duration": 0.0227,
                "tempo": 0
            },
            {
                "pitch": 41,
                "velocity": 15,
                "duration": 0.1795,
                "tempo": 120.0
            },
            {
                "pitch": 0,
                "velocity": 0,
                "duration": 0.0182,
                "tempo": 0
            },
            {
                "pitch": 41,
                "velocity": 15,
                "duration": 0.1818,
                "tempo": 120.0
            },
            {
                "pitch": 0,
                "velocity": 0,
                "duration": 0.0182,
                "tempo": 0
            },
            {
                "pitch": 57,
                "velocity": 12,
                "duration": 0.1818,
                "tempo": 120.0
            },
            {
                "pitch": 0,
                "velocity": 0,
                "duration": 0.0182,
                "tempo": 0
            },
            {
                "pitch": 41,
                "velocity": 12,
                "duration": 0.0841,
                "tempo": 120.0
            },
            {
                "pitch": 0,
                "velocity": 0,
                "duration": 0.0182,
                "tempo": 0
            },
            {
                "pitch": 55,
                "velocity": 12,
                "duration": 0.1795,
                "tempo": 120.0
            },
            {
                "pitch": 0,
                "velocity": 0,
                "duration": 0.0182,
                "tempo": 0
            },
            {
                "pitch": 41,
                "velocity": 12,
                "duration": 0.0818,
                "tempo": 120.0
            },
            {
                "pitch": 0,
                "velocity": 0,
                "duration": 0.0159,
                "tempo": 0
            },
            {
                "pitch": 53,
                "velocity": 12,
                "duration": 0.0818,
                "tempo": 120.0
            },
            {
                "pitch": 0,
                "velocity": 0,
                "duration": 0.0159,
                "tempo": 0
            },
            {
                "pitch": 41,
                "velocity": 12,
                "duration": 0.0818,
                "tempo": 120.0
            },
            {
                "pitch": 0,
                "velocity": 0,
                "duration": 0.0182,
                "tempo": 0
            },
            {
                "pitch": 52,
                "velocity": 12,
                "duration": 0.1864,
                "tempo": 120.0
            },
            {
                "pitch": 0,
                "velocity": 0,
                "duration": 0.0205,
                "tempo": 0
            },
            {
                "pitch": 50,
                "velocity": 12,
                "duration": 0.1864,
                "tempo": 120.0
            },
            {
                "pitch": 0,
                "velocity": 0,
                "duration": 0.0205,
                "tempo": 0
            },
            {
                "pitch": 40,
                "velocity": 15,
                "duration": 0.1795,
                "tempo": 120.0
            },
            {
                "pitch": 0,
                "velocity": 0,
                "duration": 0.0205,
                "tempo": 0
            },
            {
                "pitch": 40,
                "velocity": 15,
                "duration": 0.1795,
                "tempo": 120.0
            },
            {
                "pitch": 0,
                "velocity": 0,
                "duration": 0.0182,
                "tempo": 0
            },
            {
                "pitch": 52,
                "velocity": 12,
                "duration": 0.1864,
                "tempo": 120.0
            },
            {
                "pitch": 0,
                "velocity": 0,
                "duration": 0.0182,
                "tempo": 0
            },
            {
                "pitch": 40,
                "velocity": 12,
                "duration": 0.0841,
                "tempo": 120.0
            },
            {
                "pitch": 0,
                "velocity": 0,
                "duration": 0.0205,
                "tempo": 0
            },
            {
                "pitch": 52,
                "velocity": 12,
                "duration": 0.1864,
                "tempo": 120.0
            },
            {
                "pitch": 0,
                "velocity": 0,
                "duration": 0.0182,
                "tempo": 0
            },
            {
                "pitch": 40,
                "velocity": 12,
                "duration": 0.1,
                "tempo": 120.0
            },
            {
                "pitch": 0,
                "velocity": 0,
                "duration": 0.0227,
                "tempo": 0
            },
            {
                "pitch": 56,
                "velocity": 12,
                "duration": 0.2341,
                "tempo": 120.0
            },
            {
                "pitch": 0,
                "velocity": 0,
                "duration": 0.0227,
                "tempo": 0
            },
            {
                "pitch": 40,
                "velocity": 12,
                "duration": 0.1045,
                "tempo": 120.0
            },
            {
                "pitch": 0,
                "velocity": 0,
                "duration": 0.025,
                "tempo": 0
            },
            {
                "pitch": 57,
                "velocity": 12,
                "duration": 0.3455,
                "tempo": 120.0
            },
            {
                "pitch": 0,
                "velocity": 0,
                "duration": 0.025,
                "tempo": 0
            },
            {
                "pitch": 40,
                "velocity": 15,
                "duration": 0.2159,
                "tempo": 120.0
            },
            {
                "pitch": 0,
                "velocity": 0,
                "duration": 0.025,
                "tempo": 0
            },
            {
                "pitch": 40,
                "velocity": 15,
                "duration": 0.2159,
                "tempo": 120.0
            },
            {
                "pitch": 0,
                "velocity": 0,
                "duration": 0.0227,
                "tempo": 0
            },
            {
                "pitch": 52,
                "velocity": 12,
                "duration": 0.275,
                "tempo": 120.0
            },
            {
                "pitch": 0,
                "velocity": 0,
                "duration": 0.0273,
                "tempo": 0
            },
            {
                "pitch": 40,
                "velocity": 12,
                "duration": 0.1227,
                "tempo": 120.0
            },
            {
                "pitch": 0,
                "velocity": 0,
                "duration": 0.0295,
                "tempo": 0
            },
            {
                "pitch": 52,
                "velocity": 12,
                "duration": 0.275,
                "tempo": 120.0
            },
            {
                "pitch": 0,
                "velocity": 0,
                "duration": 0.0295,
                "tempo": 0
            },
            {
                "pitch": 40,
                "velocity": 12,
                "duration": 0.1227,
                "tempo": 120.0
            },
            {
                "pitch": 0,
                "velocity": 0,
                "duration": 0.0273,
                "tempo": 0
            },
            {
                "pitch": 56,
                "velocity": 12,
                "duration": 0.125,
                "tempo": 120.0
            },
            {
                "pitch": 0,
                "velocity": 0,
                "duration": 0.0273,
                "tempo": 0
            },
            {
                "pitch": 40,
                "velocity": 12,
                "duration": 0.125,
                "tempo": 120.0
            },
            {
                "pitch": 0,
                "velocity": 0,
                "duration": 0.0295,
                "tempo": 0
            },
            {
                "pitch": 57,
                "velocity": 12,
                "duration": 0.2773,
                "tempo": 120.0
            },
            {
                "pitch": 0,
                "velocity": 0,
                "duration": 0.0295,
                "tempo": 0
            },
            {
                "pitch": 59,
                "velocity": 12,
                "duration": 0.2773,
                "tempo": 120.0
            }
        ],
        "Synth Bass 1": [
            {
                "pitch": 0,
                "velocity": 0,
                "duration": 2.9909,
                "tempo": 0
            },
            {
                "pitch": 40,
                "velocity": 1,
                "duration": 0.2023,
                "tempo": 120.0
            },
            {
                "pitch": 40,
                "velocity": 1,
                "duration": 3.0114,
                "tempo": 120.0
            },
            {
                "pitch": 41,
                "velocity": 1,
                "duration": 0.2,
                "tempo": 120.0
            },
            {
                "pitch": 41,
                "velocity": 1,
                "duration": 3.025,
                "tempo": 120.0
            },
            {
                "pitch": 41,
                "velocity": 1,
                "duration": 0.2023,
                "tempo": 120.0
            }
        ],
        "Acoustic Grand Piano": [
            {
                "pitch": 0,
                "velocity": 0,
                "duration": 52.9705,
                "tempo": 0
            },
            {
                "pitch": 108,
                "velocity": 15,
                "duration": 0.1,
                "tempo": 120.0
            }
        ]
    }
}