{
    "track_id": "04 Act 1, 6_15",
    "mood": "angry",
    "instruments": {
        "Lead 1 (square)": [
            {
                "pitch": 0,
                "velocity": 0,
                "duration": 10.3932,
                "tempo": 0
            },
            {
                "pitch": 64,
                "velocity": 15,
                "duration": 0.1364,
                "tempo": 120.0
            },
            {
                "pitch": 0,
                "velocity": 0,
                "duration": 0.6795,
                "tempo": 0
            },
            {
                "pitch": 71,
                "velocity": 15,
                "duration": 0.1341,
                "tempo": 120.0
            },
            {
                "pitch": 0,
                "velocity": 0,
                "duration": 0.8341,
                "tempo": 0
            },
            {
                "pitch": 76,
                "velocity": 15,
                "duration": 0.1341,
                "tempo": 120.0
            },
            {
                "pitch": 0,
                "velocity": 0,
                "duration": 0.525,
                "tempo": 0
            },
            {
                "pitch": 74,
                "velocity": 15,
                "duration": 0.1318,
                "tempo": 120.0
            },
            {
                "pitch": 0,
                "velocity": 0,
                "duration": 0.5114,
                "tempo": 0
            },
            {
                "pitch": 74,
                "velocity": 15,
                "duration": 0.1341,
                "tempo": 120.0
            },
            {
                "pitch": 0,
                "velocity": 0,
                "duration": 0.1886,
                "tempo": 0
            },
            {
                "pitch": 73,
                "velocity": 15,
                "duration": 0.1341,
                "tempo": 120.0
            },
            {
                "pitch": 0,
                "velocity": 0,
                "duration": 0.1932,
                "tempo": 0
            },
            {
                "pitch": 71,
                "velocity": 15,
                "duration": 0.1386,
                "tempo": 120.0
            },
            {
                "pitch": 0,
                "velocity": 0,
                "duration": 0.5136,
                "tempo": 0
            },
            {
                "pitch": 71,
                "velocity": 15,
                "duration": 0.1341,
                "tempo": 120.0
            },
            {
                "pitch": 0,
                "velocity": 0,
                "duration": 0.1886,
                "tempo": 0
            },
            {
                "pitch": 69,
                "velocity": 15,
                "duration": 0.1341,
                "tempo": 120.0
            },
            {
                "pitch": 0,
                "velocity": 0,
                "duration": 0.1886,
                "tempo": 0
            },
            {
                "pitch": 66,
                "velocity": 15,
                "duration": 0.1341,
                "tempo": 120.0
            },
            {
                "pitch": 0,
                "velocity": 0,
                "duration": 1.1682,
                "tempo": 0
            },
            {
                "pitch": 62,
                "velocity": 15,
                "duration": 0.1341,
                "tempo": 120.0
            },
            {
                "pitch": 0,
                "velocity": 0,
                "duration": 0.5159,
                "tempo": 0
            },
            {
                "pitch": 64,
                "velocity": 15,
                "duration": 0.1386,
                "tempo": 120.0
            },
            {
                "pitch": 0,
                "velocity": 0,
                "duration": 0.1909,
                "tempo": 0
            },
            {
                "pitch": 64,
                "velocity": 15,
                "duration": 0.1341,
                "tempo": 120.0
            },
            {
                "pitch": 78,
                "velocity": 15,
                "duration": 6.8227,
                "tempo": 120.0
            },
            {
                "pitch": 67,
                "velocity": 15,
                "duration": 0.1341,
                "tempo": 120.0
            },
            {
                "pitch": 0,
                "velocity": 0,
                "duration": 1.1614,
                "tempo": 0
            },
            {
                "pitch": 69,
                "velocity": 15,
                "duration": 0.1386,
                "tempo": 120.0
            },
            {
                "pitch": 0,
                "velocity": 0,
                "duration": 2.4591,
                "tempo": 0
            },
            {
                "pitch": 64,
                "velocity": 15,
                "duration": 0.1341,
                "tempo": 120.0
            },
            {
                "pitch": 78,
                "velocity": 15,
                "duration": 4.7114,
                "tempo": 120.0
            },
            {
                "pitch": 71,
                "velocity": 15,
                "duration": 0.1341,
                "tempo": 120.0
            },
            {
                "pitch": 56,
                "velocity": 15,
                "duration": 11.2114,
                "tempo": 120.0
            },
            {
                "pitch": 76,
                "velocity": 15,
                "duration": 10.6864,
                "tempo": 120.0
            },
            {
                "pitch": 76,
                "velocity": 15,
                "duration": 0.1341,
                "tempo": 120.0
            },
            {
                "pitch": 0,
                "velocity": 0,
                "duration": 0.35,
                "tempo": 0
            },
            {
                "pitch": 74,
                "velocity": 15,
                "duration": 0.1341,
                "tempo": 120.0
            },
            {
                "pitch": 0,
                "velocity": 0,
                "duration": 0.5159,
                "tempo": 0
            },
            {
                "pitch": 74,
                "velocity": 15,
                "duration": 0.1386,
                "tempo": 120.0
            },
            {
                "pitch": 0,
                "velocity": 0,
                "duration": 0.1909,
                "tempo": 0
            },
            {
                "pitch": 73,
                "velocity": 15,
                "duration": 0.1341,
                "tempo": 120.0
            },
            {
                "pitch": 77,
                "velocity": 15,
                "duration": 11.0455,
                "tempo": 120.0
            },
            {
                "pitch": 71,
                "velocity": 15,
                "duration": 0.1341,
                "tempo": 120.0
            },
            {
                "pitch": 0,
                "velocity": 0,
                "duration": 0.35,
                "tempo": 0
            },
            {
                "pitch": 71,
                "velocity": 15,
                "duration": 0.1341,
                "tempo": 120.0
            },
            {
                "pitch": 0,
                "velocity": 0,
                "duration": 0.1909,
                "tempo": 0
            },
            {
                "pitch": 69,
                "velocity": 15,
                "duration": 0.1364,
                "tempo": 120.0
            }
        ],
        "Lead 2 (sawtooth)": [
            {
                "pitch": 0,
                "velocity": 0,
                "duration": 36.3886,
                "tempo": 0
            },
            {
                "pitch": 76,
                "velocity": 12,
                "duration": 0.2659,
                "tempo": 120.0
            },
            {
                "pitch": 0,
                "velocity": 0,
                "duration": 0.0545,
                "tempo": 0
            },
            {
                "pitch": 74,
                "velocity": 12,
                "duration": 0.1341,
                "tempo": 120.0
            },
            {
                "pitch": 0,
                "velocity": 0,
                "duration": 0.0273,
                "tempo": 0
            },
            {
                "pitch": 74,
                "velocity": 12,
                "duration": 0.1341,
                "tempo": 120.0
            },
            {
                "pitch": 0,
                "velocity": 0,
                "duration": 0.0273,
                "tempo": 0
            },
            {
                "pitch": 69,
                "velocity": 12,
                "duration": 0.1341,
                "tempo": 120.0
            },
            {
                "pitch": 0,
                "velocity": 0,
                "duration": 0.0273,
                "tempo": 0
            },
            {
                "pitch": 64,
                "velocity": 12,
                "duration": 0.1341,
                "tempo": 120.0
            },
            {
                "pitch": 76,
                "velocity": 12,
                "duration": 1.2364,
                "tempo": 120.0
            },
            {
                "pitch": 76,
                "velocity": 12,
                "duration": 0.4295,
                "tempo": 120.0
            },
            {
                "pitch": 0,
                "velocity": 0,
                "duration": 0.0545,
                "tempo": 0
            },
            {
                "pitch": 74,
                "velocity": 12,
                "duration": 0.1386,
                "tempo": 120.0
            },
            {
                "pitch": 0,
                "velocity": 0,
                "duration": 0.0273,
                "tempo": 0
            },
            {
                "pitch": 74,
                "velocity": 12,
                "duration": 0.1386,
                "tempo": 120.0
            },
            {
                "pitch": 77,
                "velocity": 12,
                "duration": 1.3023,
                "tempo": 120.0
            },
            {
                "pitch": 69,
                "velocity": 12,
                "duration": 0.1341,
                "tempo": 120.0
            },
            {
                "pitch": 0,
                "velocity": 0,
                "duration": 0.0273,
                "tempo": 0
            },
            {
                "pitch": 64,
                "velocity": 12,
                "duration": 0.1341,
                "tempo": 120.0
            },
            {
                "pitch": 76,
                "velocity": 12,
                "duration": 0.8182,
                "tempo": 120.0
            },
            {
                "pitch": 74,
                "velocity": 12,
                "duration": 0.4295,
                "tempo": 120.0
            },
            {
                "pitch": 0,
                "velocity": 0,
                "duration": 0.5386,
                "tempo": 0
            },
            {
                "pitch": 64,
                "velocity": 12,
                "duration": 0.1341,
                "tempo": 120.0
            },
            {
                "pitch": 76,
                "velocity": 12,
                "duration": 1.2955,
                "tempo": 120.0
            },
            {
                "pitch": 74,
                "velocity": 12,
                "duration": 1.2682,
                "tempo": 120.0
            },
            {
                "pitch": 0,
                "velocity": 0,
                "duration": 0.0273,
                "tempo": 0
            },
            {
                "pitch": 74,
                "velocity": 12,
                "duration": 0.1341,
                "tempo": 120.0
            },
            {
                "pitch": 76,
                "velocity": 12,
                "duration": 1.7341,
                "tempo": 120.0
            },
            {
                "pitch": 76,
                "velocity": 12,
                "duration": 0.2727,
                "tempo": 120.0
            },
            {
                "pitch": 74,
                "velocity": 12,
                "duration": 0.4636,
                "tempo": 120.0
            },
            {
                "pitch": 74,
                "velocity": 12,
                "duration": 0.1341,
                "tempo": 120.0
            },
            {
                "pitch": 0,
                "velocity": 0,
                "duration": 0.0273,
                "tempo": 0
            },
            {
                "pitch": 74,
                "velocity": 12,
                "duration": 0.1341,
                "tempo": 120.0
            },
            {
                "pitch": 77,
                "velocity": 12,
                "duration": 3.8932,
                "tempo": 120.0
            },
            {
                "pitch": 69,
                "velocity": 12,
                "duration": 0.1341,
                "tempo": 120.0
            },
            {
                "pitch": 0,
                "velocity": 0,
                "duration": 0.0273,
                "tempo": 0
            },
            {
                "pitch": 64,
                "velocity": 12,
                "duration": 0.1341,
                "tempo": 120.0
            },
            {
                "pitch": 76,
                "velocity": 12,
                "duration": 1.2364,
                "tempo": 120.0
            },
            {
                "pitch": 76,
                "velocity": 12,
                "duration": 0.4295,
                "tempo": 120.0
            },
            {
                "pitch": 0,
                "velocity": 0,
                "duration": 0.0545,
                "tempo": 0
            },
            {
                "pitch": 74,
                "velocity": 12,
                "duration": 0.1386,
                "tempo": 120.0
            },
            {
                "pitch": 0,
                "velocity": 0,
                "duration": 0.0295,
                "tempo": 0
            },
            {
                "pitch": 74,
                "velocity": 12,
                "duration": 0.1386,
                "tempo": 120.0
            },
            {
                "pitch": 77,
                "velocity": 12,
                "duration": 1.3023,
                "tempo": 120.0
            },
            {
                "pitch": 69,
                "velocity": 12,
                "duration": 0.1341,
                "tempo": 120.0
            },
            {
                "pitch": 0,
                "velocity": 0,
                "duration": 0.0295,
                "tempo": 0
            },
            {
                "pitch": 64,
                "velocity": 12,
                "duration": 0.1318,
                "tempo": 120.0
            },
            {
                "pitch": 76,
                "velocity": 12,
                "duration": 0.8205,
                "tempo": 120.0
            },
            {
                "pitch": 74,
                "velocity": 12,
                "duration": 0.4273,
                "tempo": 120.0
            },
            {
                "pitch": 62,
                "velocity": 12,
                "duration": 5.1955,
                "tempo": 120.0
            },
            {
                "pitch": 64,
                "velocity": 12,
                "duration": 0.1341,
                "tempo": 120.0
            },
            {
                "pitch": 76,
                "velocity": 12,
                "duration": 1.2955,
                "tempo": 120.0
            },
            {
                "pitch": 74,
                "velocity": 12,
                "duration": 32.9682,
                "tempo": 120.0
            }
        ],
        "Synth Bass 1": [
            {
                "pitch": 66,
                "velocity": 1,
                "duration": 2.0841,
                "tempo": 120.0
            },
            {
                "pitch": 0,
                "velocity": 0,
                "duration": 0.0295,
                "tempo": 0
            },
            {
                "pitch": 66,
                "velocity": 1,
                "duration": 0.1386,
                "tempo": 120.0
            },
            {
                "pitch": 0,
                "velocity": 0,
                "duration": 0.1886,
                "tempo": 0
            },
            {
                "pitch": 62,
                "velocity": 1,
                "duration": 2.5386,
                "tempo": 120.0
            },
            {
                "pitch": 66,
                "velocity": 1,
                "duration": 4.8409,
                "tempo": 120.0
            },
            {
                "pitch": 66,
                "velocity": 1,
                "duration": 2.0864,
                "tempo": 120.0
            },
            {
                "pitch": 0,
                "velocity": 0,
                "duration": 0.0273,
                "tempo": 0
            },
            {
                "pitch": 66,
                "velocity": 1,
                "duration": 0.1386,
                "tempo": 120.0
            },
            {
                "pitch": 62,
                "velocity": 1,
                "duration": 4.9818,
                "tempo": 120.0
            },
            {
                "pitch": 62,
                "velocity": 1,
                "duration": 2.5386,
                "tempo": 120.0
            },
            {
                "pitch": 66,
                "velocity": 1,
                "duration": 4.8386,
                "tempo": 120.0
            },
            {
                "pitch": 66,
                "velocity": 1,
                "duration": 2.0841,
                "tempo": 120.0
            },
            {
                "pitch": 0,
                "velocity": 0,
                "duration": 0.0295,
                "tempo": 0
            },
            {
                "pitch": 66,
                "velocity": 1,
                "duration": 0.1386,
                "tempo": 120.0
            },
            {
                "pitch": 62,
                "velocity": 1,
                "duration": 4.9795,
                "tempo": 120.0
            },
            {
                "pitch": 62,
                "velocity": 1,
                "duration": 2.5386,
                "tempo": 120.0
            },
            {
                "pitch": 66,
                "velocity": 1,
                "duration": 4.8455,
                "tempo": 120.0
            },
            {
                "pitch": 66,
                "velocity": 1,
                "duration": 2.0909,
                "tempo": 120.0
            },
            {
                "pitch": 0,
                "velocity": 0,
                "duration": 0.0273,
                "tempo": 0
            },
            {
                "pitch": 66,
                "velocity": 1,
                "duration": 0.1341,
                "tempo": 120.0
            },
            {
                "pitch": 62,
                "velocity": 1,
                "duration": 4.9818,
                "tempo": 120.0
            },
            {
                "pitch": 62,
                "velocity": 1,
                "duration": 2.5386,
                "tempo": 120.0
            },
            {
                "pitch": 66,
                "velocity": 1,
                "duration": 4.8455,
                "tempo": 120.0
            },
            {
                "pitch": 66,
                "velocity": 1,
                "duration": 2.0909,
                "tempo": 120.0
            },
            {
                "pitch": 0,
                "velocity": 0,
                "duration": 0.0273,
                "tempo": 0
            },
            {
                "pitch": 66,
                "velocity": 1,
                "duration": 0.1341,
                "tempo": 120.0
            },
            {
                "pitch": 0,
                "velocity": 0,
                "duration": 0.1886,
                "tempo": 0
            },
            {
                "pitch": 67,
                "velocity": 1,
                "duration": 2.5386,
                "tempo": 120.0
            },
            {
                "pitch": 0,
                "velocity": 0,
                "duration": 0.2159,
                "tempo": 0
            },
            {
                "pitch": 67,
                "velocity": 1,
                "duration": 2.0909,
                "tempo": 120.0
            },
            {
                "pitch": 0,
                "velocity": 0,
                "duration": 0.0273,
                "tempo": 0
            },
            {
                "pitch": 68,
                "velocity": 1,
                "duration": 0.1341,
                "tempo": 120.0
            },
            {
                "pitch": 0,
                "velocity": 0,
                "duration": 0.1886,
                "tempo": 0
            },
            {
                "pitch": 68,
                "velocity": 1,
                "duration": 2.5386,
                "tempo": 120.0
            },
            {
                "pitch": 0,
                "velocity": 0,
                "duration": 0.2182,
                "tempo": 0
            },
            {
                "pitch": 67,
                "velocity": 1,
                "duration": 2.0909,
                "tempo": 120.0
            },
            {
                "pitch": 0,
                "velocity": 0,
                "duration": 0.0273,
                "tempo": 0
            },
            {
                "pitch": 68,
                "velocity": 1,
                "duration": 0.1341,
                "tempo": 120.0
            },
            {
                "pitch": 0,
                "velocity": 0,
                "duration": 0.1886,
                "tempo": 0
            },
            {
                "pitch": 68,
                "velocity": 1,
                "duration": 2.5409,
                "tempo": 120.0
            },
            {
                "pitch": 0,
                "velocity": 0,
                "duration": 0.225,
                "tempo": 0
            },
            {
                "pitch": 66,
                "velocity": 1,
                "duration": 2.0795,
                "tempo": 120.0
            },
            {
                "pitch": 0,
                "velocity": 0,
                "duration": 0.0273,
                "tempo": 0
            },
            {
                "pitch": 66,
                "velocity": 1,
                "duration": 0.1341,
                "tempo": 120.0
            },
            {
                "pitch": 62,
                "velocity": 1,
                "duration": 20.5682,
                "tempo": 120.0
            },
            {
                "pitch": 62,
                "velocity": 1,
                "duration": 2.5386,
                "tempo": 120.0
            },
            {
                "pitch": 66,
                "velocity": 1,
                "duration": 4.8477,
                "tempo": 120.0
            },
            {
                "pitch": 66,
                "velocity": 1,
                "duration": 2.0909,
                "tempo": 120.0
            },
            {
                "pitch": 0,
                "velocity": 0,
                "duration": 0.0273,
                "tempo": 0
            },
            {
                "pitch": 66,
                "velocity": 1,
                "duration": 0.1341,
                "tempo": 120.0
            },
            {
                "pitch": 62,
                "velocity": 1,
                "duration": 4.9795,
                "tempo": 120.0
            },
            {
                "pitch": 62,
                "velocity": 1,
                "duration": 2.5386,
                "tempo": 120.0
            },
            {
                "pitch": 66,
                "velocity": 1,
                "duration": 4.8455,
                "tempo": 120.0
            },
            {
                "pitch": 66,
                "velocity": 1,
                "duration": 2.0909,
                "tempo": 120.0
            },
            {
                "pitch": 0,
                "velocity": 0,
                "duration": 0.0273,
                "tempo": 0
            },
            {
                "pitch": 66,
                "velocity": 1,
                "duration": 0.1341,
                "tempo": 120.0
            },
            {
                "pitch": 78,
                "velocity": 1,
                "duration": 25.9818,
                "tempo": 120.0
            },
            {
                "pitch": 67,
                "velocity": 1,
                "duration": 2.5386,
                "tempo": 120.0
            },
            {
                "pitch": 0,
                "velocity": 0,
                "duration": 0.2159,
                "tempo": 0
            },
            {
                "pitch": 67,
                "velocity": 1,
                "duration": 2.0932,
                "tempo": 120.0
            },
            {
                "pitch": 0,
                "velocity": 0,
                "duration": 0.0273,
                "tempo": 0
            },
            {
                "pitch": 68,
                "velocity": 1,
                "duration": 0.1341,
                "tempo": 120.0
            },
            {
                "pitch": 0,
                "velocity": 0,
                "duration": 0.1886,
                "tempo": 0
            },
            {
                "pitch": 68,
                "velocity": 1,
                "duration": 2.5386,
                "tempo": 120.0
            },
            {
                "pitch": 0,
                "velocity": 0,
                "duration": 0.2159,
                "tempo": 0
            },
            {
                "pitch": 67,
                "velocity": 1,
                "duration": 2.3864,
                "tempo": 120.0
            },
            {
                "pitch": 0,
                "velocity": 0,
                "duration": 0.2159,
                "tempo": 0
            },
            {
                "pitch": 69,
                "velocity": 1,
                "duration": 1.8409,
                "tempo": 120.0
            },
            {
                "pitch": 0,
                "velocity": 0,
                "duration": 0.2682,
                "tempo": 0
            },
            {
                "pitch": 69,
                "velocity": 1,
                "duration": 0.1341,
                "tempo": 120.0
            },
            {
                "pitch": 0,
                "velocity": 0,
                "duration": 0.35,
                "tempo": 0
            },
            {
                "pitch": 69,
                "velocity": 1,
                "duration": 4.9841,
                "tempo": 120.0
            },
            {
                "pitch": 0,
                "velocity": 0,
                "duration": 0.225,
                "tempo": 0
            },
            {
                "pitch": 66,
                "velocity": 1,
                "duration": 2.0795,
                "tempo": 120.0
            },
            {
                "pitch": 0,
                "velocity": 0,
                "duration": 0.0273,
                "tempo": 0
            },
            {
                "pitch": 66,
                "velocity": 1,
                "duration": 0.1341,
                "tempo": 120.0
            },
            {
                "pitch": 62,
                "velocity": 1,
                "duration": 25.7659,
                "tempo": 120.0
            },
            {
                "pitch": 62,
                "velocity": 1,
                "duration": 2.5386,
                "tempo": 120.0
            },
            {
                "pitch": 66,
                "velocity": 1,
                "duration": 4.8477,
                "tempo": 120.0
            },
            {
                "pitch": 66,
                "velocity": 1,
                "duration": 2.0932,
                "tempo": 120.0
            },
            {
                "pitch": 0,
                "velocity": 0,
                "duration": 0.0273,
                "tempo": 0
            },
            {
                "pitch": 66,
                "velocity": 1,
                "duration": 0.1341,
                "tempo": 120.0
            },
            {
                "pitch": 62,
                "velocity": 1,
                "duration": 4.9841,
                "tempo": 120.0
            },
            {
                "pitch": 62,
                "velocity": 1,
                "duration": 2.5409,
                "tempo": 120.0
            },
            {
                "pitch": 66,
                "velocity": 1,
                "duration": 3.0864,
                "tempo": 120.0
            },
            {
                "pitch": 66,
                "velocity": 1,
                "duration": 0.3227,
                "tempo": 120.0
            }
        ],
        "Acoustic Grand Piano": [
            {
                "pitch": 0,
                "velocity": 0,
                "duration": 78.2795,
                "tempo": 0
            },
            {
                "pitch": 108,
                "velocity": 15,
                "duration": 0.1,
                "tempo": 120.0
            }
        ]
    }
}