{
    "track_id": "05 Colonel Claud (Miniboss)_1",
    "mood": "angry",
    "instruments": {
        "Lead 1 (square)": [
            {
                "pitch": 0,
                "velocity": 0,
                "duration": 17.0318,
                "tempo": 0
            },
            {
                "pitch": 35,
                "velocity": 15,
                "duration": 0.3432,
                "tempo": 120.0
            },
            {
                "pitch": 0,
                "velocity": 0,
                "duration": 0.1159,
                "tempo": 0
            },
            {
                "pitch": 47,
                "velocity": 15,
                "duration": 0.3432,
                "tempo": 120.0
            },
            {
                "pitch": 0,
                "velocity": 0,
                "duration": 0.1159,
                "tempo": 0
            },
            {
                "pitch": 35,
                "velocity": 15,
                "duration": 0.2545,
                "tempo": 120.0
            },
            {
                "pitch": 0,
                "velocity": 0,
                "duration": 0.0523,
                "tempo": 0
            },
            {
                "pitch": 35,
                "velocity": 15,
                "duration": 0.3432,
                "tempo": 120.0
            },
            {
                "pitch": 0,
                "velocity": 0,
                "duration": 0.1136,
                "tempo": 0
            },
            {
                "pitch": 47,
                "velocity": 15,
                "duration": 0.3455,
                "tempo": 120.0
            },
            {
                "pitch": 0,
                "velocity": 0,
                "duration": 0.1136,
                "tempo": 0
            },
            {
                "pitch": 35,
                "velocity": 15,
                "duration": 0.2545,
                "tempo": 120.0
            }
        ],
        "Lead 2 (sawtooth)": [
            {
                "pitch": 0,
                "velocity": 0,
                "duration": 0.0977,
                "tempo": 0
            },
            {
                "pitch": 41,
                "velocity": 12,
                "duration": 0.1,
                "tempo": 120.0
            },
            {
                "pitch": 41,
                "velocity": 12,
                "duration": 0.1523,
                "tempo": 120.0
            },
            {
                "pitch": 41,
                "velocity": 12,
                "duration": 0.1523,
                "tempo": 120.0
            },
            {
                "pitch": 41,
                "velocity": 12,
                "duration": 0.1523,
                "tempo": 120.0
            },
            {
                "pitch": 41,
                "velocity": 12,
                "duration": 0.1545,
                "tempo": 120.0
            },
            {
                "pitch": 41,
                "velocity": 12,
                "duration": 0.1523,
                "tempo": 120.0
            },
            {
                "pitch": 41,
                "velocity": 12,
                "duration": 0.1523,
                "tempo": 120.0
            },
            {
                "pitch": 41,
                "velocity": 12,
                "duration": 0.1545,
                "tempo": 120.0
            },
            {
                "pitch": 41,
                "velocity": 12,
                "duration": 0.1523,
                "tempo": 120.0
            },
            {
                "pitch": 41,
                "velocity": 12,
                "duration": 0.1523,
                "tempo": 120.0
            },
            {
                "pitch": 41,
                "velocity": 12,
                "duration": 0.1545,
                "tempo": 120.0
            },
            {
                "pitch": 41,
                "velocity": 12,
                "duration": 0.1523,
                "tempo": 120.0
            },
            {
                "pitch": 41,
                "velocity": 12,
                "duration": 0.1545,
                "tempo": 120.0
            },
            {
                "pitch": 41,
                "velocity": 12,
                "duration": 0.0023,
                "tempo": 120.0
            },
            {
                "pitch": 0,
                "velocity": 0,
                "duration": 0.3045,
                "tempo": 0
            },
            {
                "pitch": 39,
                "velocity": 12,
                "duration": 0.0636,
                "tempo": 120.0
            },
            {
                "pitch": 0,
                "velocity": 0,
                "duration": 0.0136,
                "tempo": 0
            },
            {
                "pitch": 35,
                "velocity": 12,
                "duration": 0.0636,
                "tempo": 120.0
            },
            {
                "pitch": 0,
                "velocity": 0,
                "duration": 0.0114,
                "tempo": 0
            },
            {
                "pitch": 40,
                "velocity": 12,
                "duration": 0.0636,
                "tempo": 120.0
            },
            {
                "pitch": 42,
                "velocity": 12,
                "duration": 0.1523,
                "tempo": 120.0
            },
            {
                "pitch": 35,
                "velocity": 12,
                "duration": 0.0636,
                "tempo": 120.0
            },
            {
                "pitch": 0,
                "velocity": 0,
                "duration": 0.0136,
                "tempo": 0
            },
            {
                "pitch": 40,
                "velocity": 12,
                "duration": 0.0636,
                "tempo": 120.0
            },
            {
                "pitch": 42,
                "velocity": 12,
                "duration": 0.1523,
                "tempo": 120.0
            },
            {
                "pitch": 35,
                "velocity": 12,
                "duration": 0.0636,
                "tempo": 120.0
            },
            {
                "pitch": 0,
                "velocity": 0,
                "duration": 0.0136,
                "tempo": 0
            },
            {
                "pitch": 40,
                "velocity": 12,
                "duration": 0.0636,
                "tempo": 120.0
            },
            {
                "pitch": 42,
                "velocity": 12,
                "duration": 0.1545,
                "tempo": 120.0
            },
            {
                "pitch": 35,
                "velocity": 12,
                "duration": 0.0636,
                "tempo": 120.0
            },
            {
                "pitch": 0,
                "velocity": 0,
                "duration": 0.0114,
                "tempo": 0
            },
            {
                "pitch": 36,
                "velocity": 12,
                "duration": 0.0636,
                "tempo": 120.0
            },
            {
                "pitch": 0,
                "velocity": 0,
                "duration": 0.0136,
                "tempo": 0
            },
            {
                "pitch": 40,
                "velocity": 12,
                "duration": 0.0636,
                "tempo": 120.0
            },
            {
                "pitch": 42,
                "velocity": 12,
                "duration": 0.2295,
                "tempo": 120.0
            },
            {
                "pitch": 35,
                "velocity": 12,
                "duration": 0.0636,
                "tempo": 120.0
            },
            {
                "pitch": 0,
                "velocity": 0,
                "duration": 0.0114,
                "tempo": 0
            },
            {
                "pitch": 40,
                "velocity": 12,
                "duration": 0.0636,
                "tempo": 120.0
            },
            {
                "pitch": 42,
                "velocity": 12,
                "duration": 0.1523,
                "tempo": 120.0
            },
            {
                "pitch": 35,
                "velocity": 12,
                "duration": 0.0636,
                "tempo": 120.0
            },
            {
                "pitch": 0,
                "velocity": 0,
                "duration": 0.0136,
                "tempo": 0
            },
            {
                "pitch": 40,
                "velocity": 12,
                "duration": 0.0636,
                "tempo": 120.0
            },
            {
                "pitch": 42,
                "velocity": 12,
                "duration": 0.1545,
                "tempo": 120.0
            },
            {
                "pitch": 42,
                "velocity": 12,
                "duration": 0.0023,
                "tempo": 120.0
            },
            {
                "pitch": 35,
                "velocity": 12,
                "duration": 0.0614,
                "tempo": 120.0
            },
            {
                "pitch": 0,
                "velocity": 0,
                "duration": 0.0136,
                "tempo": 0
            },
            {
                "pitch": 40,
                "velocity": 12,
                "duration": 0.0636,
                "tempo": 120.0
            },
            {
                "pitch": 0,
                "velocity": 0,
                "duration": 0.0136,
                "tempo": 0
            },
            {
                "pitch": 35,
                "velocity": 12,
                "duration": 0.0636,
                "tempo": 120.0
            },
            {
                "pitch": 0,
                "velocity": 0,
                "duration": 0.0114,
                "tempo": 0
            },
            {
                "pitch": 40,
                "velocity": 12,
                "duration": 0.0636,
                "tempo": 120.0
            },
            {
                "pitch": 42,
                "velocity": 12,
                "duration": 0.1523,
                "tempo": 120.0
            },
            {
                "pitch": 35,
                "velocity": 12,
                "duration": 0.0636,
                "tempo": 120.0
            },
            {
                "pitch": 0,
                "velocity": 0,
                "duration": 0.0136,
                "tempo": 0
            },
            {
                "pitch": 40,
                "velocity": 12,
                "duration": 0.0636,
                "tempo": 120.0
            },
            {
                "pitch": 42,
                "velocity": 12,
                "duration": 0.1545,
                "tempo": 120.0
            },
            {
                "pitch": 35,
                "velocity": 12,
                "duration": 0.0614,
                "tempo": 120.0
            },
            {
                "pitch": 0,
                "velocity": 0,
                "duration": 0.0136,
                "tempo": 0
            },
            {
                "pitch": 40,
                "velocity": 12,
                "duration": 0.0636,
                "tempo": 120.0
            },
            {
                "pitch": 42,
                "velocity": 12,
                "duration": 0.1523,
                "tempo": 120.0
            },
            {
                "pitch": 35,
                "velocity": 12,
                "duration": 0.0636,
                "tempo": 120.0
            },
            {
                "pitch": 0,
                "velocity": 0,
                "duration": 0.0114,
                "tempo": 0
            },
            {
                "pitch": 40,
                "velocity": 12,
                "duration": 0.0636,
                "tempo": 120.0
            },
            {
                "pitch": 42,
                "velocity": 12,
                "duration": 0.1523,
                "tempo": 120.0
            },
            {
                "pitch": 35,
                "velocity": 12,
                "duration": 0.0636,
                "tempo": 120.0
            },
            {
                "pitch": 0,
                "velocity": 0,
                "duration": 0.0136,
                "tempo": 0
            },
            {
                "pitch": 40,
                "velocity": 12,
                "duration": 0.0636,
                "tempo": 120.0
            },
            {
                "pitch": 42,
                "velocity": 12,
                "duration": 0.1545,
                "tempo": 120.0
            },
            {
                "pitch": 35,
                "velocity": 12,
                "duration": 0.0614,
                "tempo": 120.0
            },
            {
                "pitch": 0,
                "velocity": 0,
                "duration": 0.0136,
                "tempo": 0
            },
            {
                "pitch": 40,
                "velocity": 12,
                "duration": 0.0636,
                "tempo": 120.0
            },
            {
                "pitch": 42,
                "velocity": 12,
                "duration": 0.1523,
                "tempo": 120.0
            },
            {
                "pitch": 35,
                "velocity": 12,
                "duration": 0.0636,
                "tempo": 120.0
            },
            {
                "pitch": 0,
                "velocity": 0,
                "duration": 0.0136,
                "tempo": 0
            },
            {
                "pitch": 40,
                "velocity": 12,
                "duration": 0.0614,
                "tempo": 120.0
            },
            {
                "pitch": 42,
                "velocity": 12,
                "duration": 0.1523,
                "tempo": 120.0
            },
            {
                "pitch": 35,
                "velocity": 12,
                "duration": 0.0636,
                "tempo": 120.0
            },
            {
                "pitch": 0,
                "velocity": 0,
                "duration": 0.0136,
                "tempo": 0
            },
            {
                "pitch": 40,
                "velocity": 12,
                "duration": 0.0636,
                "tempo": 120.0
            },
            {
                "pitch": 0,
                "velocity": 0,
                "duration": 0.0136,
                "tempo": 0
            },
            {
                "pitch": 40,
                "velocity": 12,
                "duration": 0.0614,
                "tempo": 120.0
            },
            {
                "pitch": 41,
                "velocity": 12,
                "duration": 2.6773,
                "tempo": 120.0
            },
            {
                "pitch": 41,
                "velocity": 12,
                "duration": 0.1545,
                "tempo": 120.0
            },
            {
                "pitch": 41,
                "velocity": 12,
                "duration": 0.1523,
                "tempo": 120.0
            },
            {
                "pitch": 41,
                "velocity": 12,
                "duration": 0.1523,
                "tempo": 120.0
            },
            {
                "pitch": 41,
                "velocity": 12,
                "duration": 0.1545,
                "tempo": 120.0
            },
            {
                "pitch": 41,
                "velocity": 12,
                "duration": 0.1523,
                "tempo": 120.0
            },
            {
                "pitch": 41,
                "velocity": 12,
                "duration": 0.1523,
                "tempo": 120.0
            },
            {
                "pitch": 41,
                "velocity": 12,
                "duration": 0.1545,
                "tempo": 120.0
            },
            {
                "pitch": 41,
                "velocity": 12,
                "duration": 0.1523,
                "tempo": 120.0
            },
            {
                "pitch": 41,
                "velocity": 12,
                "duration": 0.1523,
                "tempo": 120.0
            },
            {
                "pitch": 41,
                "velocity": 12,
                "duration": 0.1545,
                "tempo": 120.0
            },
            {
                "pitch": 41,
                "velocity": 12,
                "duration": 0.1523,
                "tempo": 120.0
            },
            {
                "pitch": 41,
                "velocity": 12,
                "duration": 0.1523,
                "tempo": 120.0
            },
            {
                "pitch": 41,
                "velocity": 12,
                "duration": 0.1545,
                "tempo": 120.0
            },
            {
                "pitch": 41,
                "velocity": 12,
                "duration": 0.1523,
                "tempo": 120.0
            },
            {
                "pitch": 41,
                "velocity": 12,
                "duration": 0.1523,
                "tempo": 120.0
            },
            {
                "pitch": 42,
                "velocity": 12,
                "duration": 2.6795,
                "tempo": 120.0
            },
            {
                "pitch": 35,
                "velocity": 12,
                "duration": 0.0614,
                "tempo": 120.0
            },
            {
                "pitch": 0,
                "velocity": 0,
                "duration": 0.0136,
                "tempo": 0
            },
            {
                "pitch": 40,
                "velocity": 12,
                "duration": 0.0636,
                "tempo": 120.0
            },
            {
                "pitch": 42,
                "velocity": 12,
                "duration": 0.1523,
                "tempo": 120.0
            },
            {
                "pitch": 35,
                "velocity": 12,
                "duration": 0.0636,
                "tempo": 120.0
            },
            {
                "pitch": 0,
                "velocity": 0,
                "duration": 0.0136,
                "tempo": 0
            },
            {
                "pitch": 40,
                "velocity": 12,
                "duration": 0.0614,
                "tempo": 120.0
            },
            {
                "pitch": 42,
                "velocity": 12,
                "duration": 0.1523,
                "tempo": 120.0
            },
            {
                "pitch": 35,
                "velocity": 12,
                "duration": 0.0636,
                "tempo": 120.0
            },
            {
                "pitch": 0,
                "velocity": 0,
                "duration": 0.0136,
                "tempo": 0
            },
            {
                "pitch": 40,
                "velocity": 12,
                "duration": 0.0636,
                "tempo": 120.0
            },
            {
                "pitch": 42,
                "velocity": 12,
                "duration": 0.1545,
                "tempo": 120.0
            },
            {
                "pitch": 35,
                "velocity": 12,
                "duration": 0.0614,
                "tempo": 120.0
            },
            {
                "pitch": 0,
                "velocity": 0,
                "duration": 0.0136,
                "tempo": 0
            },
            {
                "pitch": 40,
                "velocity": 12,
                "duration": 0.0636,
                "tempo": 120.0
            },
            {
                "pitch": 42,
                "velocity": 12,
                "duration": 0.1523,
                "tempo": 120.0
            },
            {
                "pitch": 35,
                "velocity": 12,
                "duration": 0.0636,
                "tempo": 120.0
            },
            {
                "pitch": 0,
                "velocity": 0,
                "duration": 0.0136,
                "tempo": 0
            },
            {
                "pitch": 40,
                "velocity": 12,
                "duration": 0.0614,
                "tempo": 120.0
            },
            {
                "pitch": 42,
                "velocity": 12,
                "duration": 0.1523,
                "tempo": 120.0
            },
            {
                "pitch": 35,
                "velocity": 12,
                "duration": 0.0636,
                "tempo": 120.0
            },
            {
                "pitch": 0,
                "velocity": 0,
                "duration": 0.0136,
                "tempo": 0
            },
            {
                "pitch": 40,
                "velocity": 12,
                "duration": 0.0636,
                "tempo": 120.0
            },
            {
                "pitch": 42,
                "velocity": 12,
                "duration": 0.1545,
                "tempo": 120.0
            },
            {
                "pitch": 35,
                "velocity": 12,
                "duration": 0.0636,
                "tempo": 120.0
            },
            {
                "pitch": 0,
                "velocity": 0,
                "duration": 0.0114,
                "tempo": 0
            },
            {
                "pitch": 40,
                "velocity": 12,
                "duration": 0.0636,
                "tempo": 120.0
            },
            {
                "pitch": 42,
                "velocity": 12,
                "duration": 0.1523,
                "tempo": 120.0
            },
            {
                "pitch": 35,
                "velocity": 12,
                "duration": 0.0636,
                "tempo": 120.0
            },
            {
                "pitch": 36,
                "velocity": 12,
                "duration": 5.4955,
                "tempo": 120.0
            },
            {
                "pitch": 36,
                "velocity": 12,
                "duration": 0.0614,
                "tempo": 120.0
            },
            {
                "pitch": 0,
                "velocity": 0,
                "duration": 0.0136,
                "tempo": 0
            },
            {
                "pitch": 35,
                "velocity": 12,
                "duration": 0.0636,
                "tempo": 120.0
            },
            {
                "pitch": 40,
                "velocity": 12,
                "duration": 0.1409,
                "tempo": 120.0
            },
            {
                "pitch": 40,
                "velocity": 12,
                "duration": 0.0636,
                "tempo": 120.0
            },
            {
                "pitch": 42,
                "velocity": 12,
                "duration": 0.3068,
                "tempo": 120.0
            },
            {
                "pitch": 35,
                "velocity": 12,
                "duration": 0.0636,
                "tempo": 120.0
            },
            {
                "pitch": 0,
                "velocity": 0,
                "duration": 0.0114,
                "tempo": 0
            },
            {
                "pitch": 40,
                "velocity": 12,
                "duration": 0.0636,
                "tempo": 120.0
            },
            {
                "pitch": 42,
                "velocity": 12,
                "duration": 0.1523,
                "tempo": 120.0
            },
            {
                "pitch": 35,
                "velocity": 12,
                "duration": 0.0636,
                "tempo": 120.0
            },
            {
                "pitch": 0,
                "velocity": 0,
                "duration": 0.0136,
                "tempo": 0
            },
            {
                "pitch": 40,
                "velocity": 12,
                "duration": 0.0636,
                "tempo": 120.0
            },
            {
                "pitch": 42,
                "velocity": 12,
                "duration": 0.1523,
                "tempo": 120.0
            },
            {
                "pitch": 35,
                "velocity": 12,
                "duration": 0.0636,
                "tempo": 120.0
            },
            {
                "pitch": 0,
                "velocity": 0,
                "duration": 0.0136,
                "tempo": 0
            },
            {
                "pitch": 40,
                "velocity": 12,
                "duration": 0.0636,
                "tempo": 120.0
            },
            {
                "pitch": 42,
                "velocity": 12,
                "duration": 0.1545,
                "tempo": 120.0
            },
            {
                "pitch": 35,
                "velocity": 12,
                "duration": 0.0636,
                "tempo": 120.0
            },
            {
                "pitch": 0,
                "velocity": 0,
                "duration": 0.0114,
                "tempo": 0
            },
            {
                "pitch": 40,
                "velocity": 12,
                "duration": 0.0636,
                "tempo": 120.0
            },
            {
                "pitch": 42,
                "velocity": 12,
                "duration": 0.1523,
                "tempo": 120.0
            },
            {
                "pitch": 35,
                "velocity": 12,
                "duration": 0.0636,
                "tempo": 120.0
            },
            {
                "pitch": 0,
                "velocity": 0,
                "duration": 0.0136,
                "tempo": 0
            },
            {
                "pitch": 40,
                "velocity": 12,
                "duration": 0.0636,
                "tempo": 120.0
            },
            {
                "pitch": 42,
                "velocity": 12,
                "duration": 0.1523,
                "tempo": 120.0
            },
            {
                "pitch": 35,
                "velocity": 12,
                "duration": 0.0636,
                "tempo": 120.0
            },
            {
                "pitch": 0,
                "velocity": 0,
                "duration": 0.0136,
                "tempo": 0
            },
            {
                "pitch": 40,
                "velocity": 12,
                "duration": 0.0636,
                "tempo": 120.0
            },
            {
                "pitch": 42,
                "velocity": 12,
                "duration": 0.1545,
                "tempo": 120.0
            },
            {
                "pitch": 35,
                "velocity": 12,
                "duration": 0.0636,
                "tempo": 120.0
            },
            {
                "pitch": 41,
                "velocity": 12,
                "duration": 2.6795,
                "tempo": 120.0
            },
            {
                "pitch": 41,
                "velocity": 12,
                "duration": 0.1523,
                "tempo": 120.0
            },
            {
                "pitch": 41,
                "velocity": 12,
                "duration": 0.1523,
                "tempo": 120.0
            },
            {
                "pitch": 41,
                "velocity": 12,
                "duration": 0.1545,
                "tempo": 120.0
            },
            {
                "pitch": 41,
                "velocity": 12,
                "duration": 0.1523,
                "tempo": 120.0
            },
            {
                "pitch": 41,
                "velocity": 12,
                "duration": 0.1523,
                "tempo": 120.0
            },
            {
                "pitch": 41,
                "velocity": 12,
                "duration": 0.1545,
                "tempo": 120.0
            },
            {
                "pitch": 41,
                "velocity": 12,
                "duration": 0.1523,
                "tempo": 120.0
            },
            {
                "pitch": 41,
                "velocity": 12,
                "duration": 0.1523,
                "tempo": 120.0
            },
            {
                "pitch": 41,
                "velocity": 12,
                "duration": 0.1545,
                "tempo": 120.0
            },
            {
                "pitch": 41,
                "velocity": 12,
                "duration": 0.1523,
                "tempo": 120.0
            },
            {
                "pitch": 41,
                "velocity": 12,
                "duration": 0.1523,
                "tempo": 120.0
            },
            {
                "pitch": 41,
                "velocity": 12,
                "duration": 0.1545,
                "tempo": 120.0
            },
            {
                "pitch": 41,
                "velocity": 12,
                "duration": 0.1523,
                "tempo": 120.0
            },
            {
                "pitch": 41,
                "velocity": 12,
                "duration": 0.1523,
                "tempo": 120.0
            },
            {
                "pitch": 0,
                "velocity": 0,
                "duration": 0.1545,
                "tempo": 0
            },
            {
                "pitch": 39,
                "velocity": 12,
                "duration": 0.0636,
                "tempo": 120.0
            },
            {
                "pitch": 42,
                "velocity": 12,
                "duration": 2.6,
                "tempo": 120.0
            },
            {
                "pitch": 35,
                "velocity": 12,
                "duration": 2.5886,
                "tempo": 120.0
            },
            {
                "pitch": 35,
                "velocity": 12,
                "duration": 0.0636,
                "tempo": 120.0
            },
            {
                "pitch": 0,
                "velocity": 0,
                "duration": 0.0136,
                "tempo": 0
            },
            {
                "pitch": 40,
                "velocity": 12,
                "duration": 0.0636,
                "tempo": 120.0
            },
            {
                "pitch": 42,
                "velocity": 12,
                "duration": 0.1545,
                "tempo": 120.0
            },
            {
                "pitch": 35,
                "velocity": 12,
                "duration": 0.0636,
                "tempo": 120.0
            },
            {
                "pitch": 0,
                "velocity": 0,
                "duration": 0.0114,
                "tempo": 0
            },
            {
                "pitch": 40,
                "velocity": 12,
                "duration": 0.0636,
                "tempo": 120.0
            },
            {
                "pitch": 42,
                "velocity": 12,
                "duration": 0.1523,
                "tempo": 120.0
            },
            {
                "pitch": 35,
                "velocity": 12,
                "duration": 0.0636,
                "tempo": 120.0
            },
            {
                "pitch": 0,
                "velocity": 0,
                "duration": 0.0136,
                "tempo": 0
            },
            {
                "pitch": 40,
                "velocity": 12,
                "duration": 0.0636,
                "tempo": 120.0
            },
            {
                "pitch": 42,
                "velocity": 12,
                "duration": 0.1523,
                "tempo": 120.0
            },
            {
                "pitch": 35,
                "velocity": 12,
                "duration": 0.0636,
                "tempo": 120.0
            },
            {
                "pitch": 0,
                "velocity": 0,
                "duration": 0.0136,
                "tempo": 0
            },
            {
                "pitch": 36,
                "velocity": 12,
                "duration": 0.0636,
                "tempo": 120.0
            },
            {
                "pitch": 0,
                "velocity": 0,
                "duration": 0.0136,
                "tempo": 0
            },
            {
                "pitch": 40,
                "velocity": 12,
                "duration": 0.0636,
                "tempo": 120.0
            },
            {
                "pitch": 42,
                "velocity": 12,
                "duration": 0.2295,
                "tempo": 120.0
            },
            {
                "pitch": 35,
                "velocity": 12,
                "duration": 0.0636,
                "tempo": 120.0
            },
            {
                "pitch": 0,
                "velocity": 0,
                "duration": 0.0136,
                "tempo": 0
            },
            {
                "pitch": 40,
                "velocity": 12,
                "duration": 0.0636,
                "tempo": 120.0
            },
            {
                "pitch": 42,
                "velocity": 12,
                "duration": 0.1545,
                "tempo": 120.0
            },
            {
                "pitch": 35,
                "velocity": 12,
                "duration": 0.0636,
                "tempo": 120.0
            },
            {
                "pitch": 0,
                "velocity": 0,
                "duration": 0.0114,
                "tempo": 0
            },
            {
                "pitch": 40,
                "velocity": 12,
                "duration": 0.0636,
                "tempo": 120.0
            },
            {
                "pitch": 42,
                "velocity": 12,
                "duration": 0.1523,
                "tempo": 120.0
            },
            {
                "pitch": 35,
                "velocity": 12,
                "duration": 0.0636,
                "tempo": 120.0
            },
            {
                "pitch": 0,
                "velocity": 0,
                "duration": 0.0136,
                "tempo": 0
            },
            {
                "pitch": 40,
                "velocity": 12,
                "duration": 0.0636,
                "tempo": 120.0
            },
            {
                "pitch": 42,
                "velocity": 12,
                "duration": 0.1523,
                "tempo": 120.0
            },
            {
                "pitch": 35,
                "velocity": 12,
                "duration": 0.0636,
                "tempo": 120.0
            },
            {
                "pitch": 0,
                "velocity": 0,
                "duration": 0.0136,
                "tempo": 0
            },
            {
                "pitch": 40,
                "velocity": 12,
                "duration": 0.0636,
                "tempo": 120.0
            },
            {
                "pitch": 42,
                "velocity": 12,
                "duration": 0.1545,
                "tempo": 120.0
            },
            {
                "pitch": 35,
                "velocity": 12,
                "duration": 0.0636,
                "tempo": 120.0
            },
            {
                "pitch": 0,
                "velocity": 0,
                "duration": 0.0114,
                "tempo": 0
            },
            {
                "pitch": 40,
                "velocity": 12,
                "duration": 0.0636,
                "tempo": 120.0
            },
            {
                "pitch": 42,
                "velocity": 12,
                "duration": 0.1523,
                "tempo": 120.0
            },
            {
                "pitch": 35,
                "velocity": 12,
                "duration": 0.0636,
                "tempo": 120.0
            },
            {
                "pitch": 0,
                "velocity": 0,
                "duration": 0.0136,
                "tempo": 0
            },
            {
                "pitch": 40,
                "velocity": 12,
                "duration": 0.0636,
                "tempo": 120.0
            },
            {
                "pitch": 42,
                "velocity": 12,
                "duration": 0.1523,
                "tempo": 120.0
            },
            {
                "pitch": 35,
                "velocity": 12,
                "duration": 0.0636,
                "tempo": 120.0
            },
            {
                "pitch": 0,
                "velocity": 0,
                "duration": 0.0136,
                "tempo": 0
            },
            {
                "pitch": 40,
                "velocity": 12,
                "duration": 0.0636,
                "tempo": 120.0
            },
            {
                "pitch": 42,
                "velocity": 12,
                "duration": 0.1545,
                "tempo": 120.0
            },
            {
                "pitch": 35,
                "velocity": 12,
                "duration": 0.0636,
                "tempo": 120.0
            },
            {
                "pitch": 0,
                "velocity": 0,
                "duration": 0.0114,
                "tempo": 0
            },
            {
                "pitch": 40,
                "velocity": 12,
                "duration": 0.0636,
                "tempo": 120.0
            },
            {
                "pitch": 42,
                "velocity": 12,
                "duration": 0.1523,
                "tempo": 120.0
            },
            {
                "pitch": 35,
                "velocity": 12,
                "duration": 0.0636,
                "tempo": 120.0
            },
            {
                "pitch": 0,
                "velocity": 0,
                "duration": 0.0136,
                "tempo": 0
            },
            {
                "pitch": 40,
                "velocity": 12,
                "duration": 0.0636,
                "tempo": 120.0
            },
            {
                "pitch": 42,
                "velocity": 12,
                "duration": 0.1523,
                "tempo": 120.0
            },
            {
                "pitch": 35,
                "velocity": 12,
                "duration": 0.0636,
                "tempo": 120.0
            },
            {
                "pitch": 0,
                "velocity": 0,
                "duration": 0.0136,
                "tempo": 0
            },
            {
                "pitch": 40,
                "velocity": 12,
                "duration": 0.0636,
                "tempo": 120.0
            },
            {
                "pitch": 42,
                "velocity": 12,
                "duration": 0.1545,
                "tempo": 120.0
            },
            {
                "pitch": 35,
                "velocity": 12,
                "duration": 0.0636,
                "tempo": 120.0
            },
            {
                "pitch": 0,
                "velocity": 0,
                "duration": 0.0114,
                "tempo": 0
            },
            {
                "pitch": 40,
                "velocity": 12,
                "duration": 0.0636,
                "tempo": 120.0
            },
            {
                "pitch": 0,
                "velocity": 0,
                "duration": 0.0136,
                "tempo": 0
            },
            {
                "pitch": 40,
                "velocity": 12,
                "duration": 0.0636,
                "tempo": 120.0
            },
            {
                "pitch": 41,
                "velocity": 12,
                "duration": 2.6795,
                "tempo": 120.0
            },
            {
                "pitch": 41,
                "velocity": 12,
                "duration": 0.1523,
                "tempo": 120.0
            },
            {
                "pitch": 41,
                "velocity": 12,
                "duration": 0.1523,
                "tempo": 120.0
            },
            {
                "pitch": 41,
                "velocity": 12,
                "duration": 0.1545,
                "tempo": 120.0
            },
            {
                "pitch": 41,
                "velocity": 12,
                "duration": 0.1523,
                "tempo": 120.0
            },
            {
                "pitch": 41,
                "velocity": 12,
                "duration": 0.1523,
                "tempo": 120.0
            },
            {
                "pitch": 41,
                "velocity": 12,
                "duration": 0.1545,
                "tempo": 120.0
            },
            {
                "pitch": 41,
                "velocity": 12,
                "duration": 0.1523,
                "tempo": 120.0
            },
            {
                "pitch": 41,
                "velocity": 12,
                "duration": 0.1523,
                "tempo": 120.0
            },
            {
                "pitch": 41,
                "velocity": 12,
                "duration": 0.1545,
                "tempo": 120.0
            },
            {
                "pitch": 41,
                "velocity": 12,
                "duration": 0.1523,
                "tempo": 120.0
            },
            {
                "pitch": 41,
                "velocity": 12,
                "duration": 0.1523,
                "tempo": 120.0
            },
            {
                "pitch": 41,
                "velocity": 12,
                "duration": 0.1545,
                "tempo": 120.0
            },
            {
                "pitch": 41,
                "velocity": 12,
                "duration": 0.1523,
                "tempo": 120.0
            },
            {
                "pitch": 41,
                "velocity": 12,
                "duration": 0.1523,
                "tempo": 120.0
            },
            {
                "pitch": 41,
                "velocity": 12,
                "duration": 0.1545,
                "tempo": 120.0
            },
            {
                "pitch": 42,
                "velocity": 12,
                "duration": 2.6773,
                "tempo": 120.0
            },
            {
                "pitch": 35,
                "velocity": 12,
                "duration": 0.0636,
                "tempo": 120.0
            },
            {
                "pitch": 0,
                "velocity": 0,
                "duration": 0.0136,
                "tempo": 0
            },
            {
                "pitch": 40,
                "velocity": 12,
                "duration": 0.0636,
                "tempo": 120.0
            },
            {
                "pitch": 42,
                "velocity": 12,
                "duration": 0.1523,
                "tempo": 120.0
            },
            {
                "pitch": 35,
                "velocity": 12,
                "duration": 0.0636,
                "tempo": 120.0
            },
            {
                "pitch": 0,
                "velocity": 0,
                "duration": 0.0136,
                "tempo": 0
            },
            {
                "pitch": 40,
                "velocity": 12,
                "duration": 0.0636,
                "tempo": 120.0
            },
            {
                "pitch": 42,
                "velocity": 12,
                "duration": 0.1545,
                "tempo": 120.0
            },
            {
                "pitch": 35,
                "velocity": 12,
                "duration": 0.0636,
                "tempo": 120.0
            },
            {
                "pitch": 0,
                "velocity": 0,
                "duration": 0.0114,
                "tempo": 0
            },
            {
                "pitch": 40,
                "velocity": 12,
                "duration": 0.0636,
                "tempo": 120.0
            },
            {
                "pitch": 42,
                "velocity": 12,
                "duration": 0.1523,
                "tempo": 120.0
            },
            {
                "pitch": 35,
                "velocity": 12,
                "duration": 0.0636,
                "tempo": 120.0
            },
            {
                "pitch": 0,
                "velocity": 0,
                "duration": 0.0136,
                "tempo": 0
            },
            {
                "pitch": 40,
                "velocity": 12,
                "duration": 0.0636,
                "tempo": 120.0
            },
            {
                "pitch": 42,
                "velocity": 12,
                "duration": 0.1523,
                "tempo": 120.0
            },
            {
                "pitch": 35,
                "velocity": 12,
                "duration": 0.0636,
                "tempo": 120.0
            },
            {
                "pitch": 0,
                "velocity": 0,
                "duration": 0.0136,
                "tempo": 0
            },
            {
                "pitch": 40,
                "velocity": 12,
                "duration": 0.0636,
                "tempo": 120.0
            },
            {
                "pitch": 42,
                "velocity": 12,
                "duration": 0.1545,
                "tempo": 120.0
            },
            {
                "pitch": 35,
                "velocity": 12,
                "duration": 0.0636,
                "tempo": 120.0
            },
            {
                "pitch": 0,
                "velocity": 0,
                "duration": 0.0114,
                "tempo": 0
            },
            {
                "pitch": 40,
                "velocity": 12,
                "duration": 0.0636,
                "tempo": 120.0
            },
            {
                "pitch": 42,
                "velocity": 12,
                "duration": 0.1523,
                "tempo": 120.0
            },
            {
                "pitch": 35,
                "velocity": 12,
                "duration": 0.0636,
                "tempo": 120.0
            },
            {
                "pitch": 0,
                "velocity": 0,
                "duration": 0.0136,
                "tempo": 0
            },
            {
                "pitch": 40,
                "velocity": 12,
                "duration": 0.0636,
                "tempo": 120.0
            },
            {
                "pitch": 42,
                "velocity": 12,
                "duration": 0.1523,
                "tempo": 120.0
            },
            {
                "pitch": 35,
                "velocity": 12,
                "duration": 0.0636,
                "tempo": 120.0
            },
            {
                "pitch": 36,
                "velocity": 12,
                "duration": 5.4955,
                "tempo": 120.0
            },
            {
                "pitch": 36,
                "velocity": 12,
                "duration": 0.0636,
                "tempo": 120.0
            },
            {
                "pitch": 0,
                "velocity": 0,
                "duration": 0.0136,
                "tempo": 0
            },
            {
                "pitch": 35,
                "velocity": 12,
                "duration": 0.0636,
                "tempo": 120.0
            },
            {
                "pitch": 40,
                "velocity": 12,
                "duration": 0.1386,
                "tempo": 120.0
            },
            {
                "pitch": 40,
                "velocity": 12,
                "duration": 0.0636,
                "tempo": 120.0
            },
            {
                "pitch": 42,
                "velocity": 12,
                "duration": 0.3068,
                "tempo": 120.0
            },
            {
                "pitch": 35,
                "velocity": 12,
                "duration": 0.0636,
                "tempo": 120.0
            },
            {
                "pitch": 0,
                "velocity": 0,
                "duration": 0.0136,
                "tempo": 0
            },
            {
                "pitch": 40,
                "velocity": 12,
                "duration": 0.0636,
                "tempo": 120.0
            },
            {
                "pitch": 42,
                "velocity": 12,
                "duration": 0.1523,
                "tempo": 120.0
            },
            {
                "pitch": 35,
                "velocity": 12,
                "duration": 0.0636,
                "tempo": 120.0
            },
            {
                "pitch": 0,
                "velocity": 0,
                "duration": 0.0136,
                "tempo": 0
            },
            {
                "pitch": 40,
                "velocity": 12,
                "duration": 0.0636,
                "tempo": 120.0
            },
            {
                "pitch": 42,
                "velocity": 12,
                "duration": 0.1545,
                "tempo": 120.0
            },
            {
                "pitch": 35,
                "velocity": 12,
                "duration": 0.0636,
                "tempo": 120.0
            },
            {
                "pitch": 0,
                "velocity": 0,
                "duration": 0.0114,
                "tempo": 0
            },
            {
                "pitch": 40,
                "velocity": 12,
                "duration": 0.0636,
                "tempo": 120.0
            },
            {
                "pitch": 42,
                "velocity": 12,
                "duration": 0.1523,
                "tempo": 120.0
            },
            {
                "pitch": 35,
                "velocity": 12,
                "duration": 0.0636,
                "tempo": 120.0
            },
            {
                "pitch": 0,
                "velocity": 0,
                "duration": 0.0136,
                "tempo": 0
            },
            {
                "pitch": 40,
                "velocity": 12,
                "duration": 0.0636,
                "tempo": 120.0
            },
            {
                "pitch": 42,
                "velocity": 12,
                "duration": 0.1523,
                "tempo": 120.0
            },
            {
                "pitch": 35,
                "velocity": 12,
                "duration": 0.0636,
                "tempo": 120.0
            },
            {
                "pitch": 0,
                "velocity": 0,
                "duration": 0.0136,
                "tempo": 0
            },
            {
                "pitch": 40,
                "velocity": 12,
                "duration": 0.0636,
                "tempo": 120.0
            },
            {
                "pitch": 42,
                "velocity": 12,
                "duration": 0.1545,
                "tempo": 120.0
            },
            {
                "pitch": 35,
                "velocity": 12,
                "duration": 0.0636,
                "tempo": 120.0
            },
            {
                "pitch": 0,
                "velocity": 0,
                "duration": 0.0136,
                "tempo": 0
            },
            {
                "pitch": 40,
                "velocity": 12,
                "duration": 0.0614,
                "tempo": 120.0
            },
            {
                "pitch": 42,
                "velocity": 12,
                "duration": 0.1523,
                "tempo": 120.0
            },
            {
                "pitch": 35,
                "velocity": 12,
                "duration": 0.0636,
                "tempo": 120.0
            },
            {
                "pitch": 42,
                "velocity": 12,
                "duration": 0.1409,
                "tempo": 120.0
            },
            {
                "pitch": 42,
                "velocity": 12,
                "duration": 0.0636,
                "tempo": 120.0
            },
            {
                "pitch": 0,
                "velocity": 0,
                "duration": 0.0114,
                "tempo": 0
            },
            {
                "pitch": 34,
                "velocity": 12,
                "duration": 0.0636,
                "tempo": 120.0
            },
            {
                "pitch": 42,
                "velocity": 12,
                "duration": 0.1409,
                "tempo": 120.0
            },
            {
                "pitch": 42,
                "velocity": 12,
                "duration": 0.0636,
                "tempo": 120.0
            },
            {
                "pitch": 0,
                "velocity": 0,
                "duration": 0.0136,
                "tempo": 0
            },
            {
                "pitch": 34,
                "velocity": 12,
                "duration": 0.0636,
                "tempo": 120.0
            },
            {
                "pitch": 42,
                "velocity": 12,
                "duration": 0.1386,
                "tempo": 120.0
            },
            {
                "pitch": 42,
                "velocity": 12,
                "duration": 0.0614,
                "tempo": 120.0
            },
            {
                "pitch": 0,
                "velocity": 0,
                "duration": 0.0136,
                "tempo": 0
            },
            {
                "pitch": 34,
                "velocity": 12,
                "duration": 0.0636,
                "tempo": 120.0
            },
            {
                "pitch": 42,
                "velocity": 12,
                "duration": 0.1409,
                "tempo": 120.0
            },
            {
                "pitch": 42,
                "velocity": 12,
                "duration": 0.0636,
                "tempo": 120.0
            },
            {
                "pitch": 0,
                "velocity": 0,
                "duration": 0.0114,
                "tempo": 0
            },
            {
                "pitch": 34,
                "velocity": 12,
                "duration": 0.0636,
                "tempo": 120.0
            },
            {
                "pitch": 42,
                "velocity": 12,
                "duration": 0.1409,
                "tempo": 120.0
            },
            {
                "pitch": 42,
                "velocity": 12,
                "duration": 0.0636,
                "tempo": 120.0
            },
            {
                "pitch": 0,
                "velocity": 0,
                "duration": 0.0136,
                "tempo": 0
            },
            {
                "pitch": 34,
                "velocity": 12,
                "duration": 0.0636,
                "tempo": 120.0
            },
            {
                "pitch": 42,
                "velocity": 12,
                "duration": 0.1386,
                "tempo": 120.0
            },
            {
                "pitch": 42,
                "velocity": 12,
                "duration": 0.0614,
                "tempo": 120.0
            },
            {
                "pitch": 0,
                "velocity": 0,
                "duration": 0.0136,
                "tempo": 0
            },
            {
                "pitch": 34,
                "velocity": 12,
                "duration": 0.0636,
                "tempo": 120.0
            },
            {
                "pitch": 42,
                "velocity": 12,
                "duration": 0.1409,
                "tempo": 120.0
            },
            {
                "pitch": 42,
                "velocity": 12,
                "duration": 0.0636,
                "tempo": 120.0
            },
            {
                "pitch": 0,
                "velocity": 0,
                "duration": 0.0114,
                "tempo": 0
            },
            {
                "pitch": 42,
                "velocity": 12,
                "duration": 0.0023,
                "tempo": 120.0
            },
            {
                "pitch": 34,
                "velocity": 12,
                "duration": 0.0614,
                "tempo": 120.0
            },
            {
                "pitch": 0,
                "velocity": 0,
                "duration": 0.0136,
                "tempo": 0
            },
            {
                "pitch": 42,
                "velocity": 12,
                "duration": 0.0636,
                "tempo": 120.0
            },
            {
                "pitch": 0,
                "velocity": 0,
                "duration": 0.0136,
                "tempo": 0
            },
            {
                "pitch": 34,
                "velocity": 12,
                "duration": 0.0636,
                "tempo": 120.0
            },
            {
                "pitch": 42,
                "velocity": 12,
                "duration": 0.1386,
                "tempo": 120.0
            },
            {
                "pitch": 42,
                "velocity": 12,
                "duration": 0.0614,
                "tempo": 120.0
            },
            {
                "pitch": 0,
                "velocity": 0,
                "duration": 0.0136,
                "tempo": 0
            },
            {
                "pitch": 34,
                "velocity": 12,
                "duration": 0.0636,
                "tempo": 120.0
            },
            {
                "pitch": 42,
                "velocity": 12,
                "duration": 0.1409,
                "tempo": 120.0
            },
            {
                "pitch": 42,
                "velocity": 12,
                "duration": 0.0636,
                "tempo": 120.0
            },
            {
                "pitch": 0,
                "velocity": 0,
                "duration": 0.0114,
                "tempo": 0
            },
            {
                "pitch": 42,
                "velocity": 12,
                "duration": 0.0023,
                "tempo": 120.0
            },
            {
                "pitch": 34,
                "velocity": 12,
                "duration": 0.0614,
                "tempo": 120.0
            },
            {
                "pitch": 0,
                "velocity": 0,
                "duration": 0.0136,
                "tempo": 0
            },
            {
                "pitch": 42,
                "velocity": 12,
                "duration": 0.0636,
                "tempo": 120.0
            },
            {
                "pitch": 0,
                "velocity": 0,
                "duration": 0.0136,
                "tempo": 0
            },
            {
                "pitch": 34,
                "velocity": 12,
                "duration": 0.0636,
                "tempo": 120.0
            },
            {
                "pitch": 42,
                "velocity": 12,
                "duration": 0.1386,
                "tempo": 120.0
            },
            {
                "pitch": 42,
                "velocity": 12,
                "duration": 0.0614,
                "tempo": 120.0
            },
            {
                "pitch": 0,
                "velocity": 0,
                "duration": 0.0136,
                "tempo": 0
            },
            {
                "pitch": 34,
                "velocity": 12,
                "duration": 0.0636,
                "tempo": 120.0
            },
            {
                "pitch": 42,
                "velocity": 12,
                "duration": 0.1409,
                "tempo": 120.0
            },
            {
                "pitch": 42,
                "velocity": 12,
                "duration": 0.0636,
                "tempo": 120.0
            },
            {
                "pitch": 0,
                "velocity": 0,
                "duration": 0.0136,
                "tempo": 0
            },
            {
                "pitch": 34,
                "velocity": 12,
                "duration": 0.0614,
                "tempo": 120.0
            },
            {
                "pitch": 42,
                "velocity": 12,
                "duration": 0.1386,
                "tempo": 120.0
            },
            {
                "pitch": 42,
                "velocity": 12,
                "duration": 0.0636,
                "tempo": 120.0
            },
            {
                "pitch": 0,
                "velocity": 0,
                "duration": 0.0136,
                "tempo": 0
            },
            {
                "pitch": 34,
                "velocity": 12,
                "duration": 0.0636,
                "tempo": 120.0
            },
            {
                "pitch": 42,
                "velocity": 12,
                "duration": 0.1386,
                "tempo": 120.0
            },
            {
                "pitch": 42,
                "velocity": 12,
                "duration": 0.0614,
                "tempo": 120.0
            },
            {
                "pitch": 0,
                "velocity": 0,
                "duration": 0.0136,
                "tempo": 0
            },
            {
                "pitch": 34,
                "velocity": 12,
                "duration": 0.0614,
                "tempo": 120.0
            },
            {
                "pitch": 42,
                "velocity": 12,
                "duration": 0.1386,
                "tempo": 120.0
            },
            {
                "pitch": 42,
                "velocity": 12,
                "duration": 0.0636,
                "tempo": 120.0
            },
            {
                "pitch": 0,
                "velocity": 0,
                "duration": 0.0114,
                "tempo": 0
            },
            {
                "pitch": 42,
                "velocity": 12,
                "duration": 0.0023,
                "tempo": 120.0
            },
            {
                "pitch": 34,
                "velocity": 12,
                "duration": 0.0614,
                "tempo": 120.0
            },
            {
                "pitch": 0,
                "velocity": 0,
                "duration": 0.0136,
                "tempo": 0
            },
            {
                "pitch": 44,
                "velocity": 12,
                "duration": 0.0614,
                "tempo": 120.0
            },
            {
                "pitch": 0,
                "velocity": 0,
                "duration": 0.0886,
                "tempo": 0
            },
            {
                "pitch": 44,
                "velocity": 12,
                "duration": 0.0636,
                "tempo": 120.0
            },
            {
                "pitch": 52,
                "velocity": 12,
                "duration": 0.1523,
                "tempo": 120.0
            },
            {
                "pitch": 44,
                "velocity": 12,
                "duration": 0.0659,
                "tempo": 120.0
            },
            {
                "pitch": 52,
                "velocity": 12,
                "duration": 0.1568,
                "tempo": 120.0
            },
            {
                "pitch": 44,
                "velocity": 12,
                "duration": 0.0636,
                "tempo": 120.0
            },
            {
                "pitch": 52,
                "velocity": 12,
                "duration": 0.1568,
                "tempo": 120.0
            },
            {
                "pitch": 44,
                "velocity": 12,
                "duration": 0.0636,
                "tempo": 120.0
            },
            {
                "pitch": 52,
                "velocity": 12,
                "duration": 0.1545,
                "tempo": 120.0
            },
            {
                "pitch": 44,
                "velocity": 12,
                "duration": 0.0659,
                "tempo": 120.0
            },
            {
                "pitch": 52,
                "velocity": 12,
                "duration": 0.1568,
                "tempo": 120.0
            },
            {
                "pitch": 44,
                "velocity": 12,
                "duration": 0.0636,
                "tempo": 120.0
            },
            {
                "pitch": 52,
                "velocity": 12,
                "duration": 0.1523,
                "tempo": 120.0
            },
            {
                "pitch": 44,
                "velocity": 12,
                "duration": 0.0636,
                "tempo": 120.0
            },
            {
                "pitch": 52,
                "velocity": 12,
                "duration": 0.1545,
                "tempo": 120.0
            },
            {
                "pitch": 44,
                "velocity": 12,
                "duration": 0.0636,
                "tempo": 120.0
            },
            {
                "pitch": 52,
                "velocity": 12,
                "duration": 0.1523,
                "tempo": 120.0
            },
            {
                "pitch": 44,
                "velocity": 12,
                "duration": 0.0636,
                "tempo": 120.0
            },
            {
                "pitch": 52,
                "velocity": 12,
                "duration": 0.1523,
                "tempo": 120.0
            },
            {
                "pitch": 44,
                "velocity": 12,
                "duration": 0.0636,
                "tempo": 120.0
            },
            {
                "pitch": 52,
                "velocity": 12,
                "duration": 0.1545,
                "tempo": 120.0
            },
            {
                "pitch": 44,
                "velocity": 12,
                "duration": 0.0636,
                "tempo": 120.0
            },
            {
                "pitch": 52,
                "velocity": 12,
                "duration": 0.1523,
                "tempo": 120.0
            },
            {
                "pitch": 44,
                "velocity": 12,
                "duration": 0.0636,
                "tempo": 120.0
            },
            {
                "pitch": 52,
                "velocity": 12,
                "duration": 0.1523,
                "tempo": 120.0
            },
            {
                "pitch": 44,
                "velocity": 12,
                "duration": 0.0636,
                "tempo": 120.0
            },
            {
                "pitch": 52,
                "velocity": 12,
                "duration": 0.1545,
                "tempo": 120.0
            },
            {
                "pitch": 44,
                "velocity": 12,
                "duration": 0.0614,
                "tempo": 120.0
            },
            {
                "pitch": 52,
                "velocity": 12,
                "duration": 0.15,
                "tempo": 120.0
            },
            {
                "pitch": 44,
                "velocity": 12,
                "duration": 0.0614,
                "tempo": 120.0
            },
            {
                "pitch": 52,
                "velocity": 12,
                "duration": 0.15,
                "tempo": 120.0
            },
            {
                "pitch": 46,
                "velocity": 12,
                "duration": 2.5136,
                "tempo": 120.0
            },
            {
                "pitch": 46,
                "velocity": 12,
                "duration": 0.0614,
                "tempo": 120.0
            },
            {
                "pitch": 0,
                "velocity": 0,
                "duration": 0.0136,
                "tempo": 0
            },
            {
                "pitch": 42,
                "velocity": 12,
                "duration": 0.0614,
                "tempo": 120.0
            },
            {
                "pitch": 0,
                "velocity": 0,
                "duration": 0.0136,
                "tempo": 0
            },
            {
                "pitch": 46,
                "velocity": 12,
                "duration": 0.0614,
                "tempo": 120.0
            },
            {
                "pitch": 0,
                "velocity": 0,
                "duration": 0.0136,
                "tempo": 0
            },
            {
                "pitch": 42,
                "velocity": 12,
                "duration": 0.0614,
                "tempo": 120.0
            },
            {
                "pitch": 54,
                "velocity": 12,
                "duration": 0.15,
                "tempo": 120.0
            },
            {
                "pitch": 46,
                "velocity": 12,
                "duration": 0.0636,
                "tempo": 120.0
            },
            {
                "pitch": 0,
                "velocity": 0,
                "duration": 0.0114,
                "tempo": 0
            },
            {
                "pitch": 42,
                "velocity": 12,
                "duration": 0.0636,
                "tempo": 120.0
            },
            {
                "pitch": 54,
                "velocity": 12,
                "duration": 0.1523,
                "tempo": 120.0
            },
            {
                "pitch": 46,
                "velocity": 12,
                "duration": 0.0636,
                "tempo": 120.0
            },
            {
                "pitch": 0,
                "velocity": 0,
                "duration": 0.0136,
                "tempo": 0
            },
            {
                "pitch": 42,
                "velocity": 12,
                "duration": 0.0636,
                "tempo": 120.0
            },
            {
                "pitch": 54,
                "velocity": 12,
                "duration": 0.1523,
                "tempo": 120.0
            },
            {
                "pitch": 46,
                "velocity": 12,
                "duration": 0.0636,
                "tempo": 120.0
            },
            {
                "pitch": 0,
                "velocity": 0,
                "duration": 0.0136,
                "tempo": 0
            },
            {
                "pitch": 42,
                "velocity": 12,
                "duration": 0.0636,
                "tempo": 120.0
            },
            {
                "pitch": 54,
                "velocity": 12,
                "duration": 0.1545,
                "tempo": 120.0
            },
            {
                "pitch": 46,
                "velocity": 12,
                "duration": 0.0636,
                "tempo": 120.0
            },
            {
                "pitch": 0,
                "velocity": 0,
                "duration": 0.0114,
                "tempo": 0
            },
            {
                "pitch": 42,
                "velocity": 12,
                "duration": 0.0636,
                "tempo": 120.0
            },
            {
                "pitch": 54,
                "velocity": 12,
                "duration": 0.1523,
                "tempo": 120.0
            },
            {
                "pitch": 46,
                "velocity": 12,
                "duration": 0.0636,
                "tempo": 120.0
            },
            {
                "pitch": 0,
                "velocity": 0,
                "duration": 0.0136,
                "tempo": 0
            },
            {
                "pitch": 42,
                "velocity": 12,
                "duration": 0.0659,
                "tempo": 120.0
            },
            {
                "pitch": 54,
                "velocity": 12,
                "duration": 0.1568,
                "tempo": 120.0
            },
            {
                "pitch": 46,
                "velocity": 12,
                "duration": 0.0636,
                "tempo": 120.0
            },
            {
                "pitch": 0,
                "velocity": 0,
                "duration": 0.0136,
                "tempo": 0
            },
            {
                "pitch": 42,
                "velocity": 12,
                "duration": 0.0659,
                "tempo": 120.0
            },
            {
                "pitch": 54,
                "velocity": 12,
                "duration": 0.1545,
                "tempo": 120.0
            },
            {
                "pitch": 46,
                "velocity": 12,
                "duration": 0.0659,
                "tempo": 120.0
            },
            {
                "pitch": 0,
                "velocity": 0,
                "duration": 0.0136,
                "tempo": 0
            },
            {
                "pitch": 42,
                "velocity": 12,
                "duration": 0.0636,
                "tempo": 120.0
            },
            {
                "pitch": 54,
                "velocity": 12,
                "duration": 0.1568,
                "tempo": 120.0
            },
            {
                "pitch": 46,
                "velocity": 12,
                "duration": 0.0659,
                "tempo": 120.0
            },
            {
                "pitch": 0,
                "velocity": 0,
                "duration": 0.0136,
                "tempo": 0
            },
            {
                "pitch": 42,
                "velocity": 12,
                "duration": 0.0636,
                "tempo": 120.0
            },
            {
                "pitch": 54,
                "velocity": 12,
                "duration": 0.1568,
                "tempo": 120.0
            },
            {
                "pitch": 46,
                "velocity": 12,
                "duration": 0.0636,
                "tempo": 120.0
            },
            {
                "pitch": 0,
                "velocity": 0,
                "duration": 0.0114,
                "tempo": 0
            },
            {
                "pitch": 42,
                "velocity": 12,
                "duration": 0.0636,
                "tempo": 120.0
            },
            {
                "pitch": 54,
                "velocity": 12,
                "duration": 0.1523,
                "tempo": 120.0
            },
            {
                "pitch": 46,
                "velocity": 12,
                "duration": 0.0614,
                "tempo": 120.0
            },
            {
                "pitch": 0,
                "velocity": 0,
                "duration": 0.0136,
                "tempo": 0
            },
            {
                "pitch": 42,
                "velocity": 12,
                "duration": 0.0636,
                "tempo": 120.0
            },
            {
                "pitch": 54,
                "velocity": 12,
                "duration": 0.15,
                "tempo": 120.0
            },
            {
                "pitch": 46,
                "velocity": 12,
                "duration": 0.0636,
                "tempo": 120.0
            },
            {
                "pitch": 0,
                "velocity": 0,
                "duration": 0.0136,
                "tempo": 0
            },
            {
                "pitch": 42,
                "velocity": 12,
                "duration": 0.0614,
                "tempo": 120.0
            },
            {
                "pitch": 54,
                "velocity": 12,
                "duration": 0.1523,
                "tempo": 120.0
            },
            {
                "pitch": 46,
                "velocity": 12,
                "duration": 0.0636,
                "tempo": 120.0
            },
            {
                "pitch": 0,
                "velocity": 0,
                "duration": 0.0114,
                "tempo": 0
            },
            {
                "pitch": 42,
                "velocity": 12,
                "duration": 0.0636,
                "tempo": 120.0
            },
            {
                "pitch": 54,
                "velocity": 12,
                "duration": 0.1523,
                "tempo": 120.0
            },
            {
                "pitch": 46,
                "velocity": 12,
                "duration": 0.0614,
                "tempo": 120.0
            },
            {
                "pitch": 0,
                "velocity": 0,
                "duration": 0.0136,
                "tempo": 0
            },
            {
                "pitch": 42,
                "velocity": 12,
                "duration": 0.0636,
                "tempo": 120.0
            },
            {
                "pitch": 54,
                "velocity": 12,
                "duration": 0.1523,
                "tempo": 120.0
            },
            {
                "pitch": 46,
                "velocity": 12,
                "duration": 0.0636,
                "tempo": 120.0
            },
            {
                "pitch": 0,
                "velocity": 0,
                "duration": 0.0136,
                "tempo": 0
            },
            {
                "pitch": 42,
                "velocity": 12,
                "duration": 0.0614,
                "tempo": 120.0
            },
            {
                "pitch": 54,
                "velocity": 12,
                "duration": 0.1523,
                "tempo": 120.0
            },
            {
                "pitch": 47,
                "velocity": 12,
                "duration": 0.0636,
                "tempo": 120.0
            },
            {
                "pitch": 0,
                "velocity": 0,
                "duration": 0.0136,
                "tempo": 0
            },
            {
                "pitch": 39,
                "velocity": 12,
                "duration": 0.0636,
                "tempo": 120.0
            },
            {
                "pitch": 0,
                "velocity": 0,
                "duration": 0.0136,
                "tempo": 0
            },
            {
                "pitch": 47,
                "velocity": 12,
                "duration": 0.0614,
                "tempo": 120.0
            },
            {
                "pitch": 0,
                "velocity": 0,
                "duration": 0.0136,
                "tempo": 0
            },
            {
                "pitch": 39,
                "velocity": 12,
                "duration": 0.0636,
                "tempo": 120.0
            },
            {
                "pitch": 53,
                "velocity": 12,
                "duration": 0.1523,
                "tempo": 120.0
            },
            {
                "pitch": 47,
                "velocity": 12,
                "duration": 0.0636,
                "tempo": 120.0
            },
            {
                "pitch": 0,
                "velocity": 0,
                "duration": 0.0136,
                "tempo": 0
            },
            {
                "pitch": 39,
                "velocity": 12,
                "duration": 0.0614,
                "tempo": 120.0
            },
            {
                "pitch": 53,
                "velocity": 12,
                "duration": 0.1523,
                "tempo": 120.0
            },
            {
                "pitch": 47,
                "velocity": 12,
                "duration": 0.0636,
                "tempo": 120.0
            },
            {
                "pitch": 0,
                "velocity": 0,
                "duration": 0.0136,
                "tempo": 0
            },
            {
                "pitch": 39,
                "velocity": 12,
                "duration": 0.0636,
                "tempo": 120.0
            },
            {
                "pitch": 53,
                "velocity": 12,
                "duration": 0.1545,
                "tempo": 120.0
            },
            {
                "pitch": 47,
                "velocity": 12,
                "duration": 0.0614,
                "tempo": 120.0
            },
            {
                "pitch": 0,
                "velocity": 0,
                "duration": 0.0136,
                "tempo": 0
            },
            {
                "pitch": 39,
                "velocity": 12,
                "duration": 0.0636,
                "tempo": 120.0
            },
            {
                "pitch": 53,
                "velocity": 12,
                "duration": 0.1523,
                "tempo": 120.0
            },
            {
                "pitch": 47,
                "velocity": 12,
                "duration": 0.0636,
                "tempo": 120.0
            },
            {
                "pitch": 0,
                "velocity": 0,
                "duration": 0.0136,
                "tempo": 0
            },
            {
                "pitch": 39,
                "velocity": 12,
                "duration": 0.0614,
                "tempo": 120.0
            },
            {
                "pitch": 53,
                "velocity": 12,
                "duration": 0.1523,
                "tempo": 120.0
            },
            {
                "pitch": 47,
                "velocity": 12,
                "duration": 0.0659,
                "tempo": 120.0
            },
            {
                "pitch": 0,
                "velocity": 0,
                "duration": 0.0136,
                "tempo": 0
            },
            {
                "pitch": 39,
                "velocity": 12,
                "duration": 0.0636,
                "tempo": 120.0
            },
            {
                "pitch": 53,
                "velocity": 12,
                "duration": 0.1568,
                "tempo": 120.0
            },
            {
                "pitch": 47,
                "velocity": 12,
                "duration": 0.0636,
                "tempo": 120.0
            },
            {
                "pitch": 0,
                "velocity": 0,
                "duration": 0.0136,
                "tempo": 0
            },
            {
                "pitch": 39,
                "velocity": 12,
                "duration": 0.0659,
                "tempo": 120.0
            },
            {
                "pitch": 53,
                "velocity": 12,
                "duration": 0.1568,
                "tempo": 120.0
            },
            {
                "pitch": 47,
                "velocity": 12,
                "duration": 0.0636,
                "tempo": 120.0
            },
            {
                "pitch": 0,
                "velocity": 0,
                "duration": 0.0136,
                "tempo": 0
            },
            {
                "pitch": 39,
                "velocity": 12,
                "duration": 0.0659,
                "tempo": 120.0
            },
            {
                "pitch": 53,
                "velocity": 12,
                "duration": 0.1545,
                "tempo": 120.0
            },
            {
                "pitch": 47,
                "velocity": 12,
                "duration": 0.0659,
                "tempo": 120.0
            },
            {
                "pitch": 0,
                "velocity": 0,
                "duration": 0.0136,
                "tempo": 0
            },
            {
                "pitch": 39,
                "velocity": 12,
                "duration": 0.0636,
                "tempo": 120.0
            },
            {
                "pitch": 53,
                "velocity": 12,
                "duration": 0.1568,
                "tempo": 120.0
            },
            {
                "pitch": 47,
                "velocity": 12,
                "duration": 0.0636,
                "tempo": 120.0
            },
            {
                "pitch": 0,
                "velocity": 0,
                "duration": 0.0136,
                "tempo": 0
            },
            {
                "pitch": 39,
                "velocity": 12,
                "duration": 0.0636,
                "tempo": 120.0
            },
            {
                "pitch": 53,
                "velocity": 12,
                "duration": 0.1545,
                "tempo": 120.0
            },
            {
                "pitch": 47,
                "velocity": 12,
                "duration": 0.0614,
                "tempo": 120.0
            },
            {
                "pitch": 0,
                "velocity": 0,
                "duration": 0.0136,
                "tempo": 0
            },
            {
                "pitch": 39,
                "velocity": 12,
                "duration": 0.0636,
                "tempo": 120.0
            },
            {
                "pitch": 53,
                "velocity": 12,
                "duration": 0.1523,
                "tempo": 120.0
            },
            {
                "pitch": 47,
                "velocity": 12,
                "duration": 0.0636,
                "tempo": 120.0
            },
            {
                "pitch": 0,
                "velocity": 0,
                "duration": 0.0136,
                "tempo": 0
            },
            {
                "pitch": 39,
                "velocity": 12,
                "duration": 0.0614,
                "tempo": 120.0
            },
            {
                "pitch": 53,
                "velocity": 12,
                "duration": 0.1523,
                "tempo": 120.0
            },
            {
                "pitch": 47,
                "velocity": 12,
                "duration": 0.0636,
                "tempo": 120.0
            },
            {
                "pitch": 0,
                "velocity": 0,
                "duration": 0.0136,
                "tempo": 0
            },
            {
                "pitch": 39,
                "velocity": 12,
                "duration": 0.0636,
                "tempo": 120.0
            },
            {
                "pitch": 53,
                "velocity": 12,
                "duration": 0.1545,
                "tempo": 120.0
            },
            {
                "pitch": 47,
                "velocity": 12,
                "duration": 0.0614,
                "tempo": 120.0
            },
            {
                "pitch": 0,
                "velocity": 0,
                "duration": 0.0136,
                "tempo": 0
            },
            {
                "pitch": 39,
                "velocity": 12,
                "duration": 0.0636,
                "tempo": 120.0
            },
            {
                "pitch": 53,
                "velocity": 12,
                "duration": 0.1523,
                "tempo": 120.0
            },
            {
                "pitch": 47,
                "velocity": 12,
                "duration": 0.0636,
                "tempo": 120.0
            },
            {
                "pitch": 0,
                "velocity": 0,
                "duration": 0.0136,
                "tempo": 0
            },
            {
                "pitch": 39,
                "velocity": 12,
                "duration": 0.0614,
                "tempo": 120.0
            }
        ],
        "Synth Bass 1": [
            {
                "pitch": 67,
                "velocity": 1,
                "duration": 0.2341,
                "tempo": 120.0
            },
            {
                "pitch": 0,
                "velocity": 0,
                "duration": 0.1159,
                "tempo": 0
            },
            {
                "pitch": 68,
                "velocity": 1,
                "duration": 0.3432,
                "tempo": 120.0
            },
            {
                "pitch": 0,
                "velocity": 0,
                "duration": 0.1159,
                "tempo": 0
            },
            {
                "pitch": 63,
                "velocity": 1,
                "duration": 0.4341,
                "tempo": 120.0
            },
            {
                "pitch": 0,
                "velocity": 0,
                "duration": 0.025,
                "tempo": 0
            },
            {
                "pitch": 63,
                "velocity": 1,
                "duration": 0.3432,
                "tempo": 120.0
            },
            {
                "pitch": 0,
                "velocity": 0,
                "duration": 0.1159,
                "tempo": 0
            },
            {
                "pitch": 59,
                "velocity": 1,
                "duration": 0.3432,
                "tempo": 120.0
            },
            {
                "pitch": 66,
                "velocity": 1,
                "duration": 1.6568,
                "tempo": 120.0
            },
            {
                "pitch": 66,
                "velocity": 1,
                "duration": 1.1977,
                "tempo": 120.0
            },
            {
                "pitch": 0,
                "velocity": 0,
                "duration": 1.4068,
                "tempo": 0
            },
            {
                "pitch": 68,
                "velocity": 1,
                "duration": 0.3409,
                "tempo": 120.0
            },
            {
                "pitch": 0,
                "velocity": 0,
                "duration": 0.1159,
                "tempo": 0
            },
            {
                "pitch": 68,
                "velocity": 1,
                "duration": 0.3432,
                "tempo": 120.0
            },
            {
                "pitch": 0,
                "velocity": 0,
                "duration": 0.1159,
                "tempo": 0
            },
            {
                "pitch": 63,
                "velocity": 1,
                "duration": 0.4318,
                "tempo": 120.0
            },
            {
                "pitch": 0,
                "velocity": 0,
                "duration": 0.0273,
                "tempo": 0
            },
            {
                "pitch": 63,
                "velocity": 1,
                "duration": 0.3432,
                "tempo": 120.0
            },
            {
                "pitch": 0,
                "velocity": 0,
                "duration": 0.1159,
                "tempo": 0
            },
            {
                "pitch": 59,
                "velocity": 1,
                "duration": 0.3432,
                "tempo": 120.0
            },
            {
                "pitch": 44,
                "velocity": 1,
                "duration": 4.8977,
                "tempo": 120.0
            },
            {
                "pitch": 66,
                "velocity": 1,
                "duration": 1.6568,
                "tempo": 120.0
            },
            {
                "pitch": 66,
                "velocity": 1,
                "duration": 1.1977,
                "tempo": 120.0
            },
            {
                "pitch": 77,
                "velocity": 1,
                "duration": 4.8955,
                "tempo": 120.0
            },
            {
                "pitch": 68,
                "velocity": 1,
                "duration": 0.3432,
                "tempo": 120.0
            },
            {
                "pitch": 0,
                "velocity": 0,
                "duration": 0.1159,
                "tempo": 0
            },
            {
                "pitch": 68,
                "velocity": 1,
                "duration": 0.3432,
                "tempo": 120.0
            },
            {
                "pitch": 0,
                "velocity": 0,
                "duration": 0.1159,
                "tempo": 0
            },
            {
                "pitch": 63,
                "velocity": 1,
                "duration": 0.4318,
                "tempo": 120.0
            },
            {
                "pitch": 0,
                "velocity": 0,
                "duration": 0.0273,
                "tempo": 0
            },
            {
                "pitch": 63,
                "velocity": 1,
                "duration": 0.3432,
                "tempo": 120.0
            },
            {
                "pitch": 0,
                "velocity": 0,
                "duration": 0.1159,
                "tempo": 0
            },
            {
                "pitch": 59,
                "velocity": 1,
                "duration": 0.3432,
                "tempo": 120.0
            },
            {
                "pitch": 44,
                "velocity": 1,
                "duration": 4.8977,
                "tempo": 120.0
            },
            {
                "pitch": 66,
                "velocity": 1,
                "duration": 1.6568,
                "tempo": 120.0
            },
            {
                "pitch": 66,
                "velocity": 1,
                "duration": 1.1977,
                "tempo": 120.0
            },
            {
                "pitch": 77,
                "velocity": 1,
                "duration": 4.8977,
                "tempo": 120.0
            },
            {
                "pitch": 68,
                "velocity": 1,
                "duration": 0.3432,
                "tempo": 120.0
            },
            {
                "pitch": 0,
                "velocity": 0,
                "duration": 0.1136,
                "tempo": 0
            },
            {
                "pitch": 68,
                "velocity": 1,
                "duration": 0.3455,
                "tempo": 120.0
            },
            {
                "pitch": 0,
                "velocity": 0,
                "duration": 0.1136,
                "tempo": 0
            },
            {
                "pitch": 63,
                "velocity": 1,
                "duration": 0.4341,
                "tempo": 120.0
            },
            {
                "pitch": 0,
                "velocity": 0,
                "duration": 0.025,
                "tempo": 0
            },
            {
                "pitch": 63,
                "velocity": 1,
                "duration": 0.3455,
                "tempo": 120.0
            },
            {
                "pitch": 0,
                "velocity": 0,
                "duration": 0.1136,
                "tempo": 0
            },
            {
                "pitch": 66,
                "velocity": 1,
                "duration": 0.0023,
                "tempo": 120.0
            },
            {
                "pitch": 59,
                "velocity": 1,
                "duration": 0.3432,
                "tempo": 120.0
            },
            {
                "pitch": 44,
                "velocity": 1,
                "duration": 4.8977,
                "tempo": 120.0
            },
            {
                "pitch": 66,
                "velocity": 1,
                "duration": 1.1977,
                "tempo": 120.0
            },
            {
                "pitch": 0,
                "velocity": 0,
                "duration": 1.7091,
                "tempo": 0
            },
            {
                "pitch": 80,
                "velocity": 1,
                "duration": 0.2545,
                "tempo": 120.0
            },
            {
                "pitch": 0,
                "velocity": 0,
                "duration": 0.0523,
                "tempo": 0
            },
            {
                "pitch": 80,
                "velocity": 1,
                "duration": 0.2523,
                "tempo": 120.0
            },
            {
                "pitch": 0,
                "velocity": 0,
                "duration": 0.0523,
                "tempo": 0
            },
            {
                "pitch": 80,
                "velocity": 1,
                "duration": 0.1273,
                "tempo": 120.0
            },
            {
                "pitch": 0,
                "velocity": 0,
                "duration": 0.0273,
                "tempo": 0
            },
            {
                "pitch": 83,
                "velocity": 1,
                "duration": 0.125,
                "tempo": 120.0
            },
            {
                "pitch": 80,
                "velocity": 1,
                "duration": 1.3477,
                "tempo": 120.0
            },
            {
                "pitch": 80,
                "velocity": 1,
                "duration": 1.0432,
                "tempo": 120.0
            },
            {
                "pitch": 0,
                "velocity": 0,
                "duration": 0.3273,
                "tempo": 0
            },
            {
                "pitch": 80,
                "velocity": 1,
                "duration": 0.2614,
                "tempo": 120.0
            },
            {
                "pitch": 0,
                "velocity": 0,
                "duration": 0.0523,
                "tempo": 0
            },
            {
                "pitch": 80,
                "velocity": 1,
                "duration": 0.2591,
                "tempo": 120.0
            },
            {
                "pitch": 0,
                "velocity": 0,
                "duration": 0.0545,
                "tempo": 0
            },
            {
                "pitch": 80,
                "velocity": 1,
                "duration": 0.125,
                "tempo": 120.0
            },
            {
                "pitch": 83,
                "velocity": 1,
                "duration": 2.2773,
                "tempo": 120.0
            },
            {
                "pitch": 83,
                "velocity": 1,
                "duration": 0.1273,
                "tempo": 120.0
            },
            {
                "pitch": 80,
                "velocity": 1,
                "duration": 1.3455,
                "tempo": 120.0
            },
            {
                "pitch": 80,
                "velocity": 1,
                "duration": 1.0386,
                "tempo": 120.0
            },
            {
                "pitch": 0,
                "velocity": 0,
                "duration": 0.325,
                "tempo": 0
            },
            {
                "pitch": 80,
                "velocity": 1,
                "duration": 0.2545,
                "tempo": 120.0
            },
            {
                "pitch": 0,
                "velocity": 0,
                "duration": 0.0523,
                "tempo": 0
            },
            {
                "pitch": 80,
                "velocity": 1,
                "duration": 0.2545,
                "tempo": 120.0
            },
            {
                "pitch": 0,
                "velocity": 0,
                "duration": 0.0523,
                "tempo": 0
            },
            {
                "pitch": 80,
                "velocity": 1,
                "duration": 0.1273,
                "tempo": 120.0
            },
            {
                "pitch": 83,
                "velocity": 1,
                "duration": 2.2614,
                "tempo": 120.0
            },
            {
                "pitch": 83,
                "velocity": 1,
                "duration": 0.1295,
                "tempo": 120.0
            },
            {
                "pitch": 80,
                "velocity": 1,
                "duration": 1.3545,
                "tempo": 120.0
            },
            {
                "pitch": 80,
                "velocity": 1,
                "duration": 1.0409,
                "tempo": 120.0
            },
            {
                "pitch": 0,
                "velocity": 0,
                "duration": 0.3318,
                "tempo": 0
            },
            {
                "pitch": 80,
                "velocity": 1,
                "duration": 0.2545,
                "tempo": 120.0
            },
            {
                "pitch": 0,
                "velocity": 0,
                "duration": 0.0523,
                "tempo": 0
            },
            {
                "pitch": 80,
                "velocity": 1,
                "duration": 0.1273,
                "tempo": 120.0
            },
            {
                "pitch": 0,
                "velocity": 0,
                "duration": 0.025,
                "tempo": 0
            },
            {
                "pitch": 78,
                "velocity": 1,
                "duration": 0.1273,
                "tempo": 120.0
            },
            {
                "pitch": 0,
                "velocity": 0,
                "duration": 0.0273,
                "tempo": 0
            },
            {
                "pitch": 80,
                "velocity": 1,
                "duration": 0.1273,
                "tempo": 120.0
            },
            {
                "pitch": 83,
                "velocity": 1,
                "duration": 2.2705,
                "tempo": 120.0
            },
            {
                "pitch": 83,
                "velocity": 1,
                "duration": 0.1295,
                "tempo": 120.0
            },
            {
                "pitch": 80,
                "velocity": 1,
                "duration": 1.3614,
                "tempo": 120.0
            },
            {
                "pitch": 80,
                "velocity": 1,
                "duration": 1.0477,
                "tempo": 120.0
            },
            {
                "pitch": 83,
                "velocity": 1,
                "duration": 6.2705,
                "tempo": 120.0
            },
            {
                "pitch": 80,
                "velocity": 1,
                "duration": 0.2545,
                "tempo": 120.0
            },
            {
                "pitch": 0,
                "velocity": 0,
                "duration": 0.0523,
                "tempo": 0
            },
            {
                "pitch": 80,
                "velocity": 1,
                "duration": 0.2545,
                "tempo": 120.0
            },
            {
                "pitch": 0,
                "velocity": 0,
                "duration": 0.0523,
                "tempo": 0
            },
            {
                "pitch": 80,
                "velocity": 1,
                "duration": 0.125,
                "tempo": 120.0
            },
            {
                "pitch": 83,
                "velocity": 1,
                "duration": 0.8932,
                "tempo": 120.0
            },
            {
                "pitch": 83,
                "velocity": 1,
                "duration": 0.1273,
                "tempo": 120.0
            },
            {
                "pitch": 80,
                "velocity": 1,
                "duration": 0.8159,
                "tempo": 120.0
            },
            {
                "pitch": 80,
                "velocity": 1,
                "duration": 0.5114,
                "tempo": 120.0
            },
            {
                "pitch": 0,
                "velocity": 0,
                "duration": 0.8659,
                "tempo": 0
            },
            {
                "pitch": 80,
                "velocity": 1,
                "duration": 0.2568,
                "tempo": 120.0
            },
            {
                "pitch": 0,
                "velocity": 0,
                "duration": 0.05,
                "tempo": 0
            },
            {
                "pitch": 80,
                "velocity": 1,
                "duration": 0.2545,
                "tempo": 120.0
            },
            {
                "pitch": 0,
                "velocity": 0,
                "duration": 0.0523,
                "tempo": 0
            },
            {
                "pitch": 80,
                "velocity": 1,
                "duration": 0.1273,
                "tempo": 120.0
            },
            {
                "pitch": 83,
                "velocity": 1,
                "duration": 2.2705,
                "tempo": 120.0
            },
            {
                "pitch": 83,
                "velocity": 1,
                "duration": 0.1273,
                "tempo": 120.0
            },
            {
                "pitch": 80,
                "velocity": 1,
                "duration": 0.8159,
                "tempo": 120.0
            },
            {
                "pitch": 80,
                "velocity": 1,
                "duration": 0.5091,
                "tempo": 120.0
            },
            {
                "pitch": 0,
                "velocity": 0,
                "duration": 0.5659,
                "tempo": 0
            },
            {
                "pitch": 68,
                "velocity": 1,
                "duration": 0.0045,
                "tempo": 120.0
            }
        ],
        "Acoustic Grand Piano": [
            {
                "pitch": 0,
                "velocity": 0,
                "duration": 39.0977,
                "tempo": 0
            },
            {
                "pitch": 108,
                "velocity": 15,
                "duration": 0.1,
                "tempo": 120.0
            }
        ]
    }
}