{
    "track_id": "05 Colonel Claud (Miniboss)_0",
    "mood": "angry",
    "instruments": {
        "Lead 1 (square)": [
            {
                "pitch": 0,
                "velocity": 0,
                "duration": 6.9295,
                "tempo": 0
            },
            {
                "pitch": 56,
                "velocity": 15,
                "duration": 0.075,
                "tempo": 120.0
            },
            {
                "pitch": 0,
                "velocity": 0,
                "duration": 0.025,
                "tempo": 0
            },
            {
                "pitch": 59,
                "velocity": 15,
                "duration": 0.0773,
                "tempo": 120.0
            },
            {
                "pitch": 0,
                "velocity": 0,
                "duration": 0.025,
                "tempo": 0
            },
            {
                "pitch": 63,
                "velocity": 15,
                "duration": 0.0773,
                "tempo": 120.0
            },
            {
                "pitch": 0,
                "velocity": 0,
                "duration": 0.025,
                "tempo": 0
            },
            {
                "pitch": 63,
                "velocity": 15,
                "duration": 2.2432,
                "tempo": 120.0
            }
        ],
        "Lead 2 (sawtooth)": [
            {
                "pitch": 0,
                "velocity": 0,
                "duration": 19.4795,
                "tempo": 0
            },
            {
                "pitch": 47,
                "velocity": 15,
                "duration": 0.125,
                "tempo": 120.0
            },
            {
                "pitch": 0,
                "velocity": 0,
                "duration": 0.025,
                "tempo": 0
            },
            {
                "pitch": 46,
                "velocity": 15,
                "duration": 0.1273,
                "tempo": 120.0
            },
            {
                "pitch": 0,
                "velocity": 0,
                "duration": 0.0273,
                "tempo": 0
            },
            {
                "pitch": 61,
                "velocity": 15,
                "duration": 0.125,
                "tempo": 120.0
            },
            {
                "pitch": 0,
                "velocity": 0,
                "duration": 0.0273,
                "tempo": 0
            },
            {
                "pitch": 61,
                "velocity": 15,
                "duration": 0.2545,
                "tempo": 120.0
            },
            {
                "pitch": 0,
                "velocity": 0,
                "duration": 0.0523,
                "tempo": 0
            },
            {
                "pitch": 51,
                "velocity": 15,
                "duration": 0.2545,
                "tempo": 120.0
            },
            {
                "pitch": 0,
                "velocity": 0,
                "duration": 0.05,
                "tempo": 0
            },
            {
                "pitch": 49,
                "velocity": 15,
                "duration": 0.1273,
                "tempo": 120.0
            },
            {
                "pitch": 0,
                "velocity": 0,
                "duration": 0.0273,
                "tempo": 0
            },
            {
                "pitch": 49,
                "velocity": 15,
                "duration": 0.3432,
                "tempo": 120.0
            },
            {
                "pitch": 0,
                "velocity": 0,
                "duration": 0.1159,
                "tempo": 0
            },
            {
                "pitch": 46,
                "velocity": 15,
                "duration": 0.7364,
                "tempo": 120.0
            }
        ],
        "Synth Bass 1": [
            {
                "pitch": 0,
                "velocity": 0,
                "duration": 29.2886,
                "tempo": 0
            },
            {
                "pitch": 56,
                "velocity": 1,
                "duration": 1.0091,
                "tempo": 120.0
            },
            {
                "pitch": 0,
                "velocity": 0,
                "duration": 0.2068,
                "tempo": 0
            },
            {
                "pitch": 56,
                "velocity": 1,
                "duration": 1.0182,
                "tempo": 120.0
            },
            {
                "pitch": 0,
                "velocity": 0,
                "duration": 0.2045,
                "tempo": 0
            },
            {
                "pitch": 56,
                "velocity": 1,
                "duration": 0.0023,
                "tempo": 120.0
            },
            {
                "pitch": 59,
                "velocity": 1,
                "duration": 1.0182,
                "tempo": 120.0
            },
            {
                "pitch": 0,
                "velocity": 0,
                "duration": 0.2045,
                "tempo": 0
            },
            {
                "pitch": 59,
                "velocity": 1,
                "duration": 1.0182,
                "tempo": 120.0
            }
        ],
        "Acoustic Grand Piano": [
            {
                "pitch": 0,
                "velocity": 0,
                "duration": 39.0955,
                "tempo": 0
            },
            {
                "pitch": 108,
                "velocity": 15,
                "duration": 0.1,
                "tempo": 120.0
            }
        ]
    }
}