{
    "track_id": "08 Act 2, 7_14",
    "mood": "angry",
    "instruments": {
        "Lead 1 (square)": [
            {
                "pitch": 0,
                "velocity": 0,
                "duration": 21.2295,
                "tempo": 0
            },
            {
                "pitch": 69,
                "velocity": 15,
                "duration": 3.2386,
                "tempo": 120.0
            },
            {
                "pitch": 0,
                "velocity": 0,
                "duration": 0.2955,
                "tempo": 0
            },
            {
                "pitch": 69,
                "velocity": 15,
                "duration": 1.4773,
                "tempo": 120.0
            },
            {
                "pitch": 0,
                "velocity": 0,
                "duration": 0.2886,
                "tempo": 0
            },
            {
                "pitch": 60,
                "velocity": 15,
                "duration": 1.4773,
                "tempo": 120.0
            },
            {
                "pitch": 0,
                "velocity": 0,
                "duration": 0.2909,
                "tempo": 0
            },
            {
                "pitch": 70,
                "velocity": 15,
                "duration": 3.2477,
                "tempo": 120.0
            },
            {
                "pitch": 0,
                "velocity": 0,
                "duration": 0.2955,
                "tempo": 0
            },
            {
                "pitch": 64,
                "velocity": 15,
                "duration": 3.2386,
                "tempo": 120.0
            },
            {
                "pitch": 0,
                "velocity": 0,
                "duration": 0.2955,
                "tempo": 0
            },
            {
                "pitch": 56,
                "velocity": 15,
                "duration": 3.2455,
                "tempo": 120.0
            },
            {
                "pitch": 0,
                "velocity": 0,
                "duration": 0.2886,
                "tempo": 0
            },
            {
                "pitch": 63,
                "velocity": 15,
                "duration": 1.4773,
                "tempo": 120.0
            },
            {
                "pitch": 0,
                "velocity": 0,
                "duration": 0.2909,
                "tempo": 0
            },
            {
                "pitch": 84,
                "velocity": 15,
                "duration": 1.4795,
                "tempo": 120.0
            },
            {
                "pitch": 0,
                "velocity": 0,
                "duration": 0.2977,
                "tempo": 0
            },
            {
                "pitch": 60,
                "velocity": 15,
                "duration": 3.2432,
                "tempo": 120.0
            },
            {
                "pitch": 0,
                "velocity": 0,
                "duration": 0.2909,
                "tempo": 0
            },
            {
                "pitch": 56,
                "velocity": 15,
                "duration": 3.2477,
                "tempo": 120.0
            },
            {
                "pitch": 0,
                "velocity": 0,
                "duration": 0.2955,
                "tempo": 0
            },
            {
                "pitch": 60,
                "velocity": 15,
                "duration": 1.4682,
                "tempo": 120.0
            },
            {
                "pitch": 0,
                "velocity": 0,
                "duration": 0.2886,
                "tempo": 0
            },
            {
                "pitch": 60,
                "velocity": 15,
                "duration": 1.4818,
                "tempo": 120.0
            },
            {
                "pitch": 76,
                "velocity": 15,
                "duration": 24.7682,
                "tempo": 120.0
            },
            {
                "pitch": 68,
                "velocity": 15,
                "duration": 1.4705,
                "tempo": 120.0
            },
            {
                "pitch": 64,
                "velocity": 15,
                "duration": 10.3182,
                "tempo": 120.0
            },
            {
                "pitch": 64,
                "velocity": 15,
                "duration": 1.475,
                "tempo": 120.0
            }
        ],
        "Lead 2 (sawtooth)": [
            {
                "pitch": 0,
                "velocity": 0,
                "duration": 22.9955,
                "tempo": 0
            },
            {
                "pitch": 68,
                "velocity": 10,
                "duration": 3.2455,
                "tempo": 120.0
            },
            {
                "pitch": 0,
                "velocity": 0,
                "duration": 0.2886,
                "tempo": 0
            },
            {
                "pitch": 56,
                "velocity": 10,
                "duration": 1.4773,
                "tempo": 120.0
            },
            {
                "pitch": 0,
                "velocity": 0,
                "duration": 3.8341,
                "tempo": 0
            },
            {
                "pitch": 83,
                "velocity": 12,
                "duration": 3.2386,
                "tempo": 120.0
            }
        ],
        "Synth Bass 1": [
            {
                "pitch": 0,
                "velocity": 0,
                "duration": 31.8409,
                "tempo": 0
            },
            {
                "pitch": 59,
                "velocity": 1,
                "duration": 0.0909,
                "tempo": 120.0
            },
            {
                "pitch": 0,
                "velocity": 0,
                "duration": 0.0182,
                "tempo": 0
            },
            {
                "pitch": 59,
                "velocity": 1,
                "duration": 0.0909,
                "tempo": 120.0
            },
            {
                "pitch": 0,
                "velocity": 0,
                "duration": 0.0205,
                "tempo": 0
            },
            {
                "pitch": 54,
                "velocity": 1,
                "duration": 0.0909,
                "tempo": 120.0
            },
            {
                "pitch": 0,
                "velocity": 0,
                "duration": 0.0182,
                "tempo": 0
            },
            {
                "pitch": 59,
                "velocity": 1,
                "duration": 0.1841,
                "tempo": 120.0
            },
            {
                "pitch": 32,
                "velocity": 1,
                "duration": 0.3318,
                "tempo": 120.0
            },
            {
                "pitch": 50,
                "velocity": 1,
                "duration": 0.0909,
                "tempo": 120.0
            },
            {
                "pitch": 0,
                "velocity": 0,
                "duration": 0.0182,
                "tempo": 0
            },
            {
                "pitch": 57,
                "velocity": 1,
                "duration": 0.0909,
                "tempo": 120.0
            },
            {
                "pitch": 0,
                "velocity": 0,
                "duration": 0.0205,
                "tempo": 0
            },
            {
                "pitch": 54,
                "velocity": 1,
                "duration": 0.0909,
                "tempo": 120.0
            },
            {
                "pitch": 66,
                "velocity": 1,
                "duration": 0.5523,
                "tempo": 120.0
            },
            {
                "pitch": 59,
                "velocity": 1,
                "duration": 0.0932,
                "tempo": 120.0
            },
            {
                "pitch": 32,
                "velocity": 1,
                "duration": 0.4409,
                "tempo": 120.0
            },
            {
                "pitch": 54,
                "velocity": 1,
                "duration": 0.1841,
                "tempo": 120.0
            },
            {
                "pitch": 66,
                "velocity": 1,
                "duration": 0.3318,
                "tempo": 120.0
            },
            {
                "pitch": 59,
                "velocity": 1,
                "duration": 0.1841,
                "tempo": 120.0
            },
            {
                "pitch": 32,
                "velocity": 1,
                "duration": 0.4409,
                "tempo": 120.0
            },
            {
                "pitch": 50,
                "velocity": 1,
                "duration": 0.0932,
                "tempo": 120.0
            },
            {
                "pitch": 0,
                "velocity": 0,
                "duration": 0.0182,
                "tempo": 0
            },
            {
                "pitch": 54,
                "velocity": 1,
                "duration": 0.0909,
                "tempo": 120.0
            },
            {
                "pitch": 66,
                "velocity": 1,
                "duration": 0.4409,
                "tempo": 120.0
            },
            {
                "pitch": 59,
                "velocity": 1,
                "duration": 0.0932,
                "tempo": 120.0
            },
            {
                "pitch": 0,
                "velocity": 0,
                "duration": 0.0182,
                "tempo": 0
            },
            {
                "pitch": 59,
                "velocity": 1,
                "duration": 0.0909,
                "tempo": 120.0
            },
            {
                "pitch": 0,
                "velocity": 0,
                "duration": 0.0205,
                "tempo": 0
            },
            {
                "pitch": 59,
                "velocity": 1,
                "duration": 0.0909,
                "tempo": 120.0
            },
            {
                "pitch": 32,
                "velocity": 1,
                "duration": 0.5523,
                "tempo": 120.0
            },
            {
                "pitch": 54,
                "velocity": 1,
                "duration": 0.0909,
                "tempo": 120.0
            },
            {
                "pitch": 66,
                "velocity": 1,
                "duration": 0.4432,
                "tempo": 120.0
            },
            {
                "pitch": 59,
                "velocity": 1,
                "duration": 0.1841,
                "tempo": 120.0
            },
            {
                "pitch": 32,
                "velocity": 1,
                "duration": 0.3318,
                "tempo": 120.0
            },
            {
                "pitch": 50,
                "velocity": 1,
                "duration": 0.8636,
                "tempo": 120.0
            },
            {
                "pitch": 50,
                "velocity": 1,
                "duration": 0.0909,
                "tempo": 120.0
            },
            {
                "pitch": 65,
                "velocity": 1,
                "duration": 1.7682,
                "tempo": 120.0
            },
            {
                "pitch": 57,
                "velocity": 1,
                "duration": 0.0909,
                "tempo": 120.0
            },
            {
                "pitch": 0,
                "velocity": 0,
                "duration": 0.0182,
                "tempo": 0
            },
            {
                "pitch": 54,
                "velocity": 1,
                "duration": 0.0909,
                "tempo": 120.0
            },
            {
                "pitch": 66,
                "velocity": 1,
                "duration": 0.5523,
                "tempo": 120.0
            },
            {
                "pitch": 59,
                "velocity": 1,
                "duration": 0.0909,
                "tempo": 120.0
            },
            {
                "pitch": 32,
                "velocity": 1,
                "duration": 0.4432,
                "tempo": 120.0
            },
            {
                "pitch": 54,
                "velocity": 1,
                "duration": 0.1818,
                "tempo": 120.0
            },
            {
                "pitch": 66,
                "velocity": 1,
                "duration": 0.3318,
                "tempo": 120.0
            },
            {
                "pitch": 59,
                "velocity": 1,
                "duration": 0.1818,
                "tempo": 120.0
            },
            {
                "pitch": 32,
                "velocity": 1,
                "duration": 0.4409,
                "tempo": 120.0
            },
            {
                "pitch": 50,
                "velocity": 1,
                "duration": 0.0909,
                "tempo": 120.0
            },
            {
                "pitch": 0,
                "velocity": 0,
                "duration": 0.0182,
                "tempo": 0
            },
            {
                "pitch": 54,
                "velocity": 1,
                "duration": 0.0932,
                "tempo": 120.0
            },
            {
                "pitch": 66,
                "velocity": 1,
                "duration": 0.4409,
                "tempo": 120.0
            },
            {
                "pitch": 59,
                "velocity": 1,
                "duration": 0.0909,
                "tempo": 120.0
            },
            {
                "pitch": 0,
                "velocity": 0,
                "duration": 0.0205,
                "tempo": 0
            },
            {
                "pitch": 63,
                "velocity": 1,
                "duration": 0.1864,
                "tempo": 120.0
            },
            {
                "pitch": 0,
                "velocity": 0,
                "duration": 0.0386,
                "tempo": 0
            },
            {
                "pitch": 63,
                "velocity": 1,
                "duration": 0.0932,
                "tempo": 120.0
            },
            {
                "pitch": 0,
                "velocity": 0,
                "duration": 0.0205,
                "tempo": 0
            },
            {
                "pitch": 63,
                "velocity": 1,
                "duration": 0.1841,
                "tempo": 120.0
            },
            {
                "pitch": 0,
                "velocity": 0,
                "duration": 0.0364,
                "tempo": 0
            },
            {
                "pitch": 63,
                "velocity": 1,
                "duration": 0.1795,
                "tempo": 120.0
            },
            {
                "pitch": 0,
                "velocity": 0,
                "duration": 0.0364,
                "tempo": 0
            },
            {
                "pitch": 63,
                "velocity": 1,
                "duration": 0.1795,
                "tempo": 120.0
            },
            {
                "pitch": 0,
                "velocity": 0,
                "duration": 0.0386,
                "tempo": 0
            },
            {
                "pitch": 63,
                "velocity": 1,
                "duration": 0.1841,
                "tempo": 120.0
            },
            {
                "pitch": 0,
                "velocity": 0,
                "duration": 0.0364,
                "tempo": 0
            },
            {
                "pitch": 63,
                "velocity": 1,
                "duration": 0.1841,
                "tempo": 120.0
            },
            {
                "pitch": 0,
                "velocity": 0,
                "duration": 0.0386,
                "tempo": 0
            },
            {
                "pitch": 63,
                "velocity": 1,
                "duration": 0.0909,
                "tempo": 120.0
            },
            {
                "pitch": 0,
                "velocity": 0,
                "duration": 0.0182,
                "tempo": 0
            },
            {
                "pitch": 63,
                "velocity": 1,
                "duration": 0.0909,
                "tempo": 120.0
            },
            {
                "pitch": 0,
                "velocity": 0,
                "duration": 0.0205,
                "tempo": 0
            },
            {
                "pitch": 63,
                "velocity": 1,
                "duration": 0.0909,
                "tempo": 120.0
            },
            {
                "pitch": 0,
                "velocity": 0,
                "duration": 0.0182,
                "tempo": 0
            },
            {
                "pitch": 63,
                "velocity": 1,
                "duration": 0.1886,
                "tempo": 120.0
            },
            {
                "pitch": 0,
                "velocity": 0,
                "duration": 0.0364,
                "tempo": 0
            },
            {
                "pitch": 63,
                "velocity": 1,
                "duration": 0.0955,
                "tempo": 120.0
            },
            {
                "pitch": 0,
                "velocity": 0,
                "duration": 0.0182,
                "tempo": 0
            },
            {
                "pitch": 63,
                "velocity": 1,
                "duration": 0.1841,
                "tempo": 120.0
            },
            {
                "pitch": 0,
                "velocity": 0,
                "duration": 0.0364,
                "tempo": 0
            },
            {
                "pitch": 63,
                "velocity": 1,
                "duration": 0.1795,
                "tempo": 120.0
            },
            {
                "pitch": 0,
                "velocity": 0,
                "duration": 0.0386,
                "tempo": 0
            },
            {
                "pitch": 63,
                "velocity": 1,
                "duration": 0.1818,
                "tempo": 120.0
            },
            {
                "pitch": 0,
                "velocity": 0,
                "duration": 0.0386,
                "tempo": 0
            },
            {
                "pitch": 63,
                "velocity": 1,
                "duration": 0.1864,
                "tempo": 120.0
            },
            {
                "pitch": 0,
                "velocity": 0,
                "duration": 0.0386,
                "tempo": 0
            },
            {
                "pitch": 63,
                "velocity": 1,
                "duration": 0.1841,
                "tempo": 120.0
            },
            {
                "pitch": 0,
                "velocity": 0,
                "duration": 0.0364,
                "tempo": 0
            },
            {
                "pitch": 63,
                "velocity": 1,
                "duration": 0.0886,
                "tempo": 120.0
            },
            {
                "pitch": 0,
                "velocity": 0,
                "duration": 0.0205,
                "tempo": 0
            },
            {
                "pitch": 63,
                "velocity": 1,
                "duration": 0.0886,
                "tempo": 120.0
            },
            {
                "pitch": 0,
                "velocity": 0,
                "duration": 0.0182,
                "tempo": 0
            },
            {
                "pitch": 63,
                "velocity": 1,
                "duration": 0.0886,
                "tempo": 120.0
            },
            {
                "pitch": 65,
                "velocity": 1,
                "duration": 4.6386,
                "tempo": 120.0
            },
            {
                "pitch": 56,
                "velocity": 1,
                "duration": 0.0932,
                "tempo": 120.0
            },
            {
                "pitch": 0,
                "velocity": 0,
                "duration": 0.0205,
                "tempo": 0
            },
            {
                "pitch": 56,
                "velocity": 1,
                "duration": 0.0955,
                "tempo": 120.0
            },
            {
                "pitch": 0,
                "velocity": 0,
                "duration": 0.0205,
                "tempo": 0
            },
            {
                "pitch": 51,
                "velocity": 1,
                "duration": 0.0955,
                "tempo": 120.0
            },
            {
                "pitch": 0,
                "velocity": 0,
                "duration": 0.0205,
                "tempo": 0
            },
            {
                "pitch": 54,
                "velocity": 1,
                "duration": 0.1864,
                "tempo": 120.0
            },
            {
                "pitch": 51,
                "velocity": 1,
                "duration": 0.3136,
                "tempo": 120.0
            },
            {
                "pitch": 51,
                "velocity": 1,
                "duration": 0.0909,
                "tempo": 120.0
            },
            {
                "pitch": 54,
                "velocity": 1,
                "duration": 0.1977,
                "tempo": 120.0
            },
            {
                "pitch": 54,
                "velocity": 1,
                "duration": 0.0886,
                "tempo": 120.0
            },
            {
                "pitch": 51,
                "velocity": 1,
                "duration": 0.1977,
                "tempo": 120.0
            },
            {
                "pitch": 51,
                "velocity": 1,
                "duration": 0.0909,
                "tempo": 120.0
            },
            {
                "pitch": 65,
                "velocity": 1,
                "duration": 0.8932,
                "tempo": 120.0
            },
            {
                "pitch": 56,
                "velocity": 1,
                "duration": 0.0909,
                "tempo": 120.0
            },
            {
                "pitch": 0,
                "velocity": 0,
                "duration": 0.0182,
                "tempo": 0
            },
            {
                "pitch": 56,
                "velocity": 1,
                "duration": 0.0932,
                "tempo": 120.0
            },
            {
                "pitch": 0,
                "velocity": 0,
                "duration": 0.0182,
                "tempo": 0
            },
            {
                "pitch": 51,
                "velocity": 1,
                "duration": 0.0909,
                "tempo": 120.0
            },
            {
                "pitch": 54,
                "velocity": 1,
                "duration": 0.6205,
                "tempo": 120.0
            },
            {
                "pitch": 54,
                "velocity": 1,
                "duration": 0.1795,
                "tempo": 120.0
            },
            {
                "pitch": 51,
                "velocity": 1,
                "duration": 0.3068,
                "tempo": 120.0
            },
            {
                "pitch": 51,
                "velocity": 1,
                "duration": 0.0886,
                "tempo": 120.0
            },
            {
                "pitch": 54,
                "velocity": 1,
                "duration": 0.1977,
                "tempo": 120.0
            },
            {
                "pitch": 54,
                "velocity": 1,
                "duration": 0.0909,
                "tempo": 120.0
            },
            {
                "pitch": 66,
                "velocity": 1,
                "duration": 5.3045,
                "tempo": 120.0
            },
            {
                "pitch": 55,
                "velocity": 1,
                "duration": 0.0886,
                "tempo": 120.0
            },
            {
                "pitch": 0,
                "velocity": 0,
                "duration": 0.0205,
                "tempo": 0
            },
            {
                "pitch": 55,
                "velocity": 1,
                "duration": 0.0909,
                "tempo": 120.0
            },
            {
                "pitch": 0,
                "velocity": 0,
                "duration": 0.0205,
                "tempo": 0
            },
            {
                "pitch": 55,
                "velocity": 1,
                "duration": 0.0932,
                "tempo": 120.0
            },
            {
                "pitch": 0,
                "velocity": 0,
                "duration": 0.0205,
                "tempo": 0
            },
            {
                "pitch": 67,
                "velocity": 1,
                "duration": 0.0932,
                "tempo": 120.0
            },
            {
                "pitch": 0,
                "velocity": 0,
                "duration": 0.0182,
                "tempo": 0
            },
            {
                "pitch": 55,
                "velocity": 1,
                "duration": 0.1864,
                "tempo": 120.0
            },
            {
                "pitch": 0,
                "velocity": 0,
                "duration": 0.0364,
                "tempo": 0
            },
            {
                "pitch": 55,
                "velocity": 1,
                "duration": 0.0932,
                "tempo": 120.0
            },
            {
                "pitch": 0,
                "velocity": 0,
                "duration": 0.0182,
                "tempo": 0
            },
            {
                "pitch": 67,
                "velocity": 1,
                "duration": 0.0909,
                "tempo": 120.0
            },
            {
                "pitch": 0,
                "velocity": 0,
                "duration": 0.0205,
                "tempo": 0
            },
            {
                "pitch": 55,
                "velocity": 1,
                "duration": 0.0909,
                "tempo": 120.0
            },
            {
                "pitch": 0,
                "velocity": 0,
                "duration": 0.0182,
                "tempo": 0
            },
            {
                "pitch": 53,
                "velocity": 1,
                "duration": 0.0932,
                "tempo": 120.0
            },
            {
                "pitch": 66,
                "velocity": 1,
                "duration": 1.1114,
                "tempo": 120.0
            },
            {
                "pitch": 58,
                "velocity": 1,
                "duration": 0.1841,
                "tempo": 120.0
            },
            {
                "pitch": 0,
                "velocity": 0,
                "duration": 0.0364,
                "tempo": 0
            },
            {
                "pitch": 58,
                "velocity": 1,
                "duration": 0.0909,
                "tempo": 120.0
            },
            {
                "pitch": 0,
                "velocity": 0,
                "duration": 0.0205,
                "tempo": 0
            },
            {
                "pitch": 52,
                "velocity": 1,
                "duration": 0.0909,
                "tempo": 120.0
            },
            {
                "pitch": 0,
                "velocity": 0,
                "duration": 0.0182,
                "tempo": 0
            },
            {
                "pitch": 52,
                "velocity": 1,
                "duration": 0.0909,
                "tempo": 120.0
            },
            {
                "pitch": 66,
                "velocity": 1,
                "duration": 0.5523,
                "tempo": 120.0
            },
            {
                "pitch": 55,
                "velocity": 1,
                "duration": 0.0909,
                "tempo": 120.0
            },
            {
                "pitch": 0,
                "velocity": 0,
                "duration": 0.0182,
                "tempo": 0
            },
            {
                "pitch": 58,
                "velocity": 1,
                "duration": 0.0932,
                "tempo": 120.0
            },
            {
                "pitch": 0,
                "velocity": 0,
                "duration": 10.6318,
                "tempo": 0
            },
            {
                "pitch": 81,
                "velocity": 1,
                "duration": 1.4705,
                "tempo": 120.0
            },
            {
                "pitch": 0,
                "velocity": 0,
                "duration": 0.2955,
                "tempo": 0
            },
            {
                "pitch": 71,
                "velocity": 1,
                "duration": 1.475,
                "tempo": 120.0
            }
        ],
        "Acoustic Grand Piano": [
            {
                "pitch": 0,
                "velocity": 0,
                "duration": 56.5159,
                "tempo": 0
            },
            {
                "pitch": 108,
                "velocity": 15,
                "duration": 0.1,
                "tempo": 120.0
            }
        ]
    }
}