{
    "track_id": "Miracle Warriors - Seal of the Dark Lord (FM) - 07 - Battle_13",
    "mood": "angry",
    "instruments": {
        "Lead 1 (square)": [
            {
                "pitch": 0,
                "velocity": 0,
                "duration": 16.0295,
                "tempo": 0
            },
            {
                "pitch": 72,
                "velocity": 8,
                "duration": 1.5886,
                "tempo": 120.0
            },
            {
                "pitch": 0,
                "velocity": 0,
                "duration": 0.0159,
                "tempo": 0
            },
            {
                "pitch": 77,
                "velocity": 8,
                "duration": 1.5886,
                "tempo": 120.0
            },
            {
                "pitch": 0,
                "velocity": 0,
                "duration": 35.2909,
                "tempo": 0
            },
            {
                "pitch": 72,
                "velocity": 8,
                "duration": 1.5864,
                "tempo": 120.0
            },
            {
                "pitch": 0,
                "velocity": 0,
                "duration": 0.0159,
                "tempo": 0
            },
            {
                "pitch": 77,
                "velocity": 8,
                "duration": 1.5864,
                "tempo": 120.0
            },
            {
                "pitch": 0,
                "velocity": 0,
                "duration": 35.3432,
                "tempo": 0
            },
            {
                "pitch": 72,
                "velocity": 8,
                "duration": 1.5886,
                "tempo": 120.0
            },
            {
                "pitch": 0,
                "velocity": 0,
                "duration": 0.0182,
                "tempo": 0
            },
            {
                "pitch": 77,
                "velocity": 8,
                "duration": 1.5886,
                "tempo": 120.0
            },
            {
                "pitch": 0,
                "velocity": 0,
                "duration": 35.3591,
                "tempo": 0
            },
            {
                "pitch": 72,
                "velocity": 8,
                "duration": 1.5909,
                "tempo": 120.0
            },
            {
                "pitch": 0,
                "velocity": 0,
                "duration": 0.0182,
                "tempo": 0
            },
            {
                "pitch": 77,
                "velocity": 8,
                "duration": 1.5909,
                "tempo": 120.0
            }
        ],
        "Lead 2 (sawtooth)": [
            {
                "pitch": 71,
                "velocity": 15,
                "duration": 1.5523,
                "tempo": 120.0
            },
            {
                "pitch": 0,
                "velocity": 0,
                "duration": 0.0159,
                "tempo": 0
            },
            {
                "pitch": 71,
                "velocity": 15,
                "duration": 1.5864,
                "tempo": 120.0
            },
            {
                "pitch": 0,
                "velocity": 0,
                "duration": 35.3318,
                "tempo": 0
            },
            {
                "pitch": 71,
                "velocity": 15,
                "duration": 1.5886,
                "tempo": 120.0
            },
            {
                "pitch": 0,
                "velocity": 0,
                "duration": 0.0182,
                "tempo": 0
            },
            {
                "pitch": 71,
                "velocity": 15,
                "duration": 1.5841,
                "tempo": 120.0
            },
            {
                "pitch": 0,
                "velocity": 0,
                "duration": 35.3045,
                "tempo": 0
            },
            {
                "pitch": 71,
                "velocity": 15,
                "duration": 1.5886,
                "tempo": 120.0
            },
            {
                "pitch": 0,
                "velocity": 0,
                "duration": 0.0159,
                "tempo": 0
            },
            {
                "pitch": 71,
                "velocity": 15,
                "duration": 1.5886,
                "tempo": 120.0
            },
            {
                "pitch": 0,
                "velocity": 0,
                "duration": 35.3545,
                "tempo": 0
            },
            {
                "pitch": 71,
                "velocity": 15,
                "duration": 1.5909,
                "tempo": 120.0
            },
            {
                "pitch": 0,
                "velocity": 0,
                "duration": 0.0182,
                "tempo": 0
            },
            {
                "pitch": 71,
                "velocity": 15,
                "duration": 1.5886,
                "tempo": 120.0
            },
            {
                "pitch": 0,
                "velocity": 0,
                "duration": 35.4,
                "tempo": 0
            },
            {
                "pitch": 71,
                "velocity": 15,
                "duration": 0.15,
                "tempo": 120.0
            }
        ],
        "Synth Bass 1": [
            {
                "pitch": 0,
                "velocity": 0,
                "duration": 0.05,
                "tempo": 0
            },
            {
                "pitch": 71,
                "velocity": 1,
                "duration": 1.5682,
                "tempo": 120.0
            },
            {
                "pitch": 0,
                "velocity": 0,
                "duration": 0.0159,
                "tempo": 0
            },
            {
                "pitch": 71,
                "velocity": 1,
                "duration": 1.5864,
                "tempo": 120.0
            },
            {
                "pitch": 0,
                "velocity": 0,
                "duration": 35.3341,
                "tempo": 0
            },
            {
                "pitch": 71,
                "velocity": 1,
                "duration": 1.5886,
                "tempo": 120.0
            },
            {
                "pitch": 0,
                "velocity": 0,
                "duration": 0.0159,
                "tempo": 0
            },
            {
                "pitch": 71,
                "velocity": 1,
                "duration": 1.5864,
                "tempo": 120.0
            },
            {
                "pitch": 0,
                "velocity": 0,
                "duration": 35.3045,
                "tempo": 0
            },
            {
                "pitch": 71,
                "velocity": 1,
                "duration": 1.5864,
                "tempo": 120.0
            },
            {
                "pitch": 0,
                "velocity": 0,
                "duration": 0.0182,
                "tempo": 0
            },
            {
                "pitch": 71,
                "velocity": 1,
                "duration": 1.5886,
                "tempo": 120.0
            },
            {
                "pitch": 0,
                "velocity": 0,
                "duration": 35.3545,
                "tempo": 0
            },
            {
                "pitch": 71,
                "velocity": 1,
                "duration": 1.5909,
                "tempo": 120.0
            },
            {
                "pitch": 0,
                "velocity": 0,
                "duration": 0.0159,
                "tempo": 0
            },
            {
                "pitch": 71,
                "velocity": 1,
                "duration": 1.5886,
                "tempo": 120.0
            },
            {
                "pitch": 0,
                "velocity": 0,
                "duration": 35.4,
                "tempo": 0
            },
            {
                "pitch": 71,
                "velocity": 1,
                "duration": 0.0841,
                "tempo": 120.0
            }
        ],
        "Acoustic Grand Piano": [
            {
                "pitch": 0,
                "velocity": 0,
                "duration": 154.2773,
                "tempo": 0
            },
            {
                "pitch": 108,
                "velocity": 15,
                "duration": 0.1,
                "tempo": 120.0
            }
        ]
    }
}