{
    "track_id": "Rastan (FM) - 04 - Re-In-Carnation_15",
    "mood": "angry",
    "instruments": {
        "Lead 1 (square)": [
            {
                "pitch": 81,
                "velocity": 12,
                "duration": 0.1795,
                "tempo": 120.0
            },
            {
                "pitch": 79,
                "velocity": 12,
                "duration": 0.1795,
                "tempo": 120.0
            },
            {
                "pitch": 77,
                "velocity": 12,
                "duration": 0.1795,
                "tempo": 120.0
            },
            {
                "pitch": 76,
                "velocity": 12,
                "duration": 0.3568,
                "tempo": 120.0
            },
            {
                "pitch": 0,
                "velocity": 0,
                "duration": 2.0932,
                "tempo": 0
            },
            {
                "pitch": 81,
                "velocity": 12,
                "duration": 0.1864,
                "tempo": 120.0
            },
            {
                "pitch": 79,
                "velocity": 12,
                "duration": 0.1886,
                "tempo": 120.0
            },
            {
                "pitch": 81,
                "velocity": 12,
                "duration": 0.1886,
                "tempo": 120.0
            },
            {
                "pitch": 83,
                "velocity": 12,
                "duration": 0.5636,
                "tempo": 120.0
            },
            {
                "pitch": 84,
                "velocity": 7,
                "duration": 5.0045,
                "tempo": 120.0
            },
            {
                "pitch": 81,
                "velocity": 7,
                "duration": 0.3955,
                "tempo": 120.0
            },
            {
                "pitch": 81,
                "velocity": 10,
                "duration": 0.3955,
                "tempo": 120.0
            },
            {
                "pitch": 0,
                "velocity": 0,
                "duration": 0.2,
                "tempo": 0
            },
            {
                "pitch": 88,
                "velocity": 12,
                "duration": 0.1409,
                "tempo": 120.0
            },
            {
                "pitch": 88,
                "velocity": 10,
                "duration": 0.1386,
                "tempo": 120.0
            },
            {
                "pitch": 88,
                "velocity": 10,
                "duration": 0.1205,
                "tempo": 120.0
            },
            {
                "pitch": 88,
                "velocity": 10,
                "duration": 0.1205,
                "tempo": 120.0
            },
            {
                "pitch": 0,
                "velocity": 0,
                "duration": 63.0455,
                "tempo": 0
            },
            {
                "pitch": 62,
                "velocity": 2,
                "duration": 0.2,
                "tempo": 120.0
            },
            {
                "pitch": 64,
                "velocity": 2,
                "duration": 0.2023,
                "tempo": 120.0
            },
            {
                "pitch": 64,
                "velocity": 2,
                "duration": 0.2023,
                "tempo": 120.0
            },
            {
                "pitch": 65,
                "velocity": 2,
                "duration": 0.175,
                "tempo": 120.0
            },
            {
                "pitch": 64,
                "velocity": 2,
                "duration": 0.175,
                "tempo": 120.0
            },
            {
                "pitch": 65,
                "velocity": 2,
                "duration": 0.175,
                "tempo": 120.0
            },
            {
                "pitch": 62,
                "velocity": 2,
                "duration": 0.175,
                "tempo": 120.0
            },
            {
                "pitch": 62,
                "velocity": 2,
                "duration": 0.175,
                "tempo": 120.0
            },
            {
                "pitch": 64,
                "velocity": 2,
                "duration": 0.175,
                "tempo": 120.0
            },
            {
                "pitch": 64,
                "velocity": 2,
                "duration": 0.175,
                "tempo": 120.0
            },
            {
                "pitch": 67,
                "velocity": 2,
                "duration": 0.1727,
                "tempo": 120.0
            },
            {
                "pitch": 65,
                "velocity": 2,
                "duration": 0.3591,
                "tempo": 120.0
            },
            {
                "pitch": 62,
                "velocity": 2,
                "duration": 0.1705,
                "tempo": 120.0
            },
            {
                "pitch": 62,
                "velocity": 3,
                "duration": 0.1705,
                "tempo": 120.0
            },
            {
                "pitch": 64,
                "velocity": 3,
                "duration": 0.1705,
                "tempo": 120.0
            },
            {
                "pitch": 64,
                "velocity": 3,
                "duration": 0.1705,
                "tempo": 120.0
            },
            {
                "pitch": 65,
                "velocity": 3,
                "duration": 0.1773,
                "tempo": 120.0
            },
            {
                "pitch": 64,
                "velocity": 3,
                "duration": 0.1795,
                "tempo": 120.0
            },
            {
                "pitch": 65,
                "velocity": 3,
                "duration": 0.1705,
                "tempo": 120.0
            },
            {
                "pitch": 62,
                "velocity": 3,
                "duration": 0.1727,
                "tempo": 120.0
            },
            {
                "pitch": 62,
                "velocity": 3,
                "duration": 0.1727,
                "tempo": 120.0
            },
            {
                "pitch": 55,
                "velocity": 2,
                "duration": 1.75,
                "tempo": 120.0
            },
            {
                "pitch": 64,
                "velocity": 3,
                "duration": 0.1773,
                "tempo": 120.0
            },
            {
                "pitch": 64,
                "velocity": 3,
                "duration": 0.1773,
                "tempo": 120.0
            },
            {
                "pitch": 67,
                "velocity": 3,
                "duration": 0.1795,
                "tempo": 120.0
            },
            {
                "pitch": 77,
                "velocity": 2,
                "duration": 1.7568,
                "tempo": 120.0
            },
            {
                "pitch": 65,
                "velocity": 3,
                "duration": 0.35,
                "tempo": 120.0
            },
            {
                "pitch": 62,
                "velocity": 3,
                "duration": 0.1705,
                "tempo": 120.0
            },
            {
                "pitch": 62,
                "velocity": 5,
                "duration": 0.1705,
                "tempo": 120.0
            },
            {
                "pitch": 64,
                "velocity": 5,
                "duration": 0.1727,
                "tempo": 120.0
            },
            {
                "pitch": 64,
                "velocity": 5,
                "duration": 0.1727,
                "tempo": 120.0
            },
            {
                "pitch": 65,
                "velocity": 5,
                "duration": 0.1773,
                "tempo": 120.0
            },
            {
                "pitch": 64,
                "velocity": 5,
                "duration": 0.1795,
                "tempo": 120.0
            },
            {
                "pitch": 65,
                "velocity": 5,
                "duration": 0.175,
                "tempo": 120.0
            },
            {
                "pitch": 62,
                "velocity": 5,
                "duration": 0.1727,
                "tempo": 120.0
            },
            {
                "pitch": 62,
                "velocity": 5,
                "duration": 0.1727,
                "tempo": 120.0
            },
            {
                "pitch": 55,
                "velocity": 3,
                "duration": 1.7523,
                "tempo": 120.0
            },
            {
                "pitch": 64,
                "velocity": 5,
                "duration": 0.175,
                "tempo": 120.0
            },
            {
                "pitch": 64,
                "velocity": 5,
                "duration": 0.175,
                "tempo": 120.0
            },
            {
                "pitch": 67,
                "velocity": 5,
                "duration": 0.1773,
                "tempo": 120.0
            },
            {
                "pitch": 77,
                "velocity": 3,
                "duration": 1.75,
                "tempo": 120.0
            },
            {
                "pitch": 65,
                "velocity": 5,
                "duration": 0.35,
                "tempo": 120.0
            },
            {
                "pitch": 62,
                "velocity": 5,
                "duration": 0.175,
                "tempo": 120.0
            },
            {
                "pitch": 62,
                "velocity": 8,
                "duration": 0.175,
                "tempo": 120.0
            },
            {
                "pitch": 64,
                "velocity": 8,
                "duration": 0.1727,
                "tempo": 120.0
            },
            {
                "pitch": 64,
                "velocity": 8,
                "duration": 0.1727,
                "tempo": 120.0
            },
            {
                "pitch": 65,
                "velocity": 8,
                "duration": 0.175,
                "tempo": 120.0
            },
            {
                "pitch": 64,
                "velocity": 8,
                "duration": 0.175,
                "tempo": 120.0
            },
            {
                "pitch": 0,
                "velocity": 0,
                "duration": 0.0023,
                "tempo": 0
            },
            {
                "pitch": 65,
                "velocity": 8,
                "duration": 0.1727,
                "tempo": 120.0
            },
            {
                "pitch": 62,
                "velocity": 8,
                "duration": 0.175,
                "tempo": 120.0
            },
            {
                "pitch": 62,
                "velocity": 8,
                "duration": 0.175,
                "tempo": 120.0
            },
            {
                "pitch": 55,
                "velocity": 5,
                "duration": 1.75,
                "tempo": 120.0
            },
            {
                "pitch": 64,
                "velocity": 8,
                "duration": 0.175,
                "tempo": 120.0
            },
            {
                "pitch": 64,
                "velocity": 8,
                "duration": 0.175,
                "tempo": 120.0
            },
            {
                "pitch": 67,
                "velocity": 8,
                "duration": 0.175,
                "tempo": 120.0
            },
            {
                "pitch": 77,
                "velocity": 5,
                "duration": 1.7477,
                "tempo": 120.0
            },
            {
                "pitch": 65,
                "velocity": 8,
                "duration": 0.35,
                "tempo": 120.0
            },
            {
                "pitch": 62,
                "velocity": 8,
                "duration": 0.175,
                "tempo": 120.0
            },
            {
                "pitch": 62,
                "velocity": 10,
                "duration": 0.175,
                "tempo": 120.0
            },
            {
                "pitch": 64,
                "velocity": 10,
                "duration": 0.175,
                "tempo": 120.0
            },
            {
                "pitch": 64,
                "velocity": 10,
                "duration": 0.175,
                "tempo": 120.0
            },
            {
                "pitch": 65,
                "velocity": 10,
                "duration": 0.175,
                "tempo": 120.0
            },
            {
                "pitch": 64,
                "velocity": 10,
                "duration": 0.175,
                "tempo": 120.0
            },
            {
                "pitch": 65,
                "velocity": 10,
                "duration": 0.1795,
                "tempo": 120.0
            },
            {
                "pitch": 62,
                "velocity": 10,
                "duration": 0.1773,
                "tempo": 120.0
            },
            {
                "pitch": 62,
                "velocity": 10,
                "duration": 0.1773,
                "tempo": 120.0
            },
            {
                "pitch": 55,
                "velocity": 8,
                "duration": 1.7545,
                "tempo": 120.0
            },
            {
                "pitch": 64,
                "velocity": 10,
                "duration": 0.1727,
                "tempo": 120.0
            },
            {
                "pitch": 64,
                "velocity": 10,
                "duration": 0.1727,
                "tempo": 120.0
            },
            {
                "pitch": 67,
                "velocity": 10,
                "duration": 0.1705,
                "tempo": 120.0
            },
            {
                "pitch": 77,
                "velocity": 8,
                "duration": 1.75,
                "tempo": 120.0
            },
            {
                "pitch": 65,
                "velocity": 10,
                "duration": 0.35,
                "tempo": 120.0
            },
            {
                "pitch": 62,
                "velocity": 10,
                "duration": 0.175,
                "tempo": 120.0
            },
            {
                "pitch": 62,
                "velocity": 12,
                "duration": 0.175,
                "tempo": 120.0
            },
            {
                "pitch": 64,
                "velocity": 12,
                "duration": 0.1727,
                "tempo": 120.0
            },
            {
                "pitch": 64,
                "velocity": 12,
                "duration": 0.1727,
                "tempo": 120.0
            },
            {
                "pitch": 65,
                "velocity": 12,
                "duration": 0.1795,
                "tempo": 120.0
            },
            {
                "pitch": 64,
                "velocity": 12,
                "duration": 0.1795,
                "tempo": 120.0
            },
            {
                "pitch": 65,
                "velocity": 12,
                "duration": 0.175,
                "tempo": 120.0
            },
            {
                "pitch": 62,
                "velocity": 12,
                "duration": 0.175,
                "tempo": 120.0
            },
            {
                "pitch": 62,
                "velocity": 12,
                "duration": 0.175,
                "tempo": 120.0
            },
            {
                "pitch": 55,
                "velocity": 10,
                "duration": 1.7477,
                "tempo": 120.0
            },
            {
                "pitch": 64,
                "velocity": 12,
                "duration": 0.1705,
                "tempo": 120.0
            },
            {
                "pitch": 64,
                "velocity": 12,
                "duration": 0.1705,
                "tempo": 120.0
            },
            {
                "pitch": 67,
                "velocity": 12,
                "duration": 0.1705,
                "tempo": 120.0
            },
            {
                "pitch": 77,
                "velocity": 10,
                "duration": 1.75,
                "tempo": 120.0
            },
            {
                "pitch": 77,
                "velocity": 12,
                "duration": 0.0023,
                "tempo": 120.0
            },
            {
                "pitch": 65,
                "velocity": 12,
                "duration": 0.3568,
                "tempo": 120.0
            },
            {
                "pitch": 74,
                "velocity": 12,
                "duration": 0.175,
                "tempo": 120.0
            },
            {
                "pitch": 76,
                "velocity": 12,
                "duration": 0.175,
                "tempo": 120.0
            },
            {
                "pitch": 76,
                "velocity": 12,
                "duration": 0.175,
                "tempo": 120.0
            },
            {
                "pitch": 77,
                "velocity": 12,
                "duration": 0.175,
                "tempo": 120.0
            },
            {
                "pitch": 76,
                "velocity": 12,
                "duration": 0.175,
                "tempo": 120.0
            },
            {
                "pitch": 77,
                "velocity": 12,
                "duration": 0.175,
                "tempo": 120.0
            },
            {
                "pitch": 74,
                "velocity": 12,
                "duration": 0.175,
                "tempo": 120.0
            },
            {
                "pitch": 74,
                "velocity": 12,
                "duration": 0.175,
                "tempo": 120.0
            },
            {
                "pitch": 76,
                "velocity": 12,
                "duration": 0.175,
                "tempo": 120.0
            },
            {
                "pitch": 76,
                "velocity": 12,
                "duration": 0.175,
                "tempo": 120.0
            },
            {
                "pitch": 79,
                "velocity": 12,
                "duration": 0.175,
                "tempo": 120.0
            },
            {
                "pitch": 89,
                "velocity": 12,
                "duration": 84.8841,
                "tempo": 120.0
            },
            {
                "pitch": 77,
                "velocity": 12,
                "duration": 0.3477,
                "tempo": 120.0
            },
            {
                "pitch": 74,
                "velocity": 12,
                "duration": 0.1773,
                "tempo": 120.0
            },
            {
                "pitch": 74,
                "velocity": 12,
                "duration": 0.1773,
                "tempo": 120.0
            },
            {
                "pitch": 76,
                "velocity": 12,
                "duration": 0.175,
                "tempo": 120.0
            },
            {
                "pitch": 76,
                "velocity": 12,
                "duration": 0.175,
                "tempo": 120.0
            },
            {
                "pitch": 77,
                "velocity": 12,
                "duration": 0.1727,
                "tempo": 120.0
            },
            {
                "pitch": 76,
                "velocity": 12,
                "duration": 0.175,
                "tempo": 120.0
            },
            {
                "pitch": 77,
                "velocity": 12,
                "duration": 0.175,
                "tempo": 120.0
            },
            {
                "pitch": 74,
                "velocity": 12,
                "duration": 0.175,
                "tempo": 120.0
            },
            {
                "pitch": 74,
                "velocity": 12,
                "duration": 0.175,
                "tempo": 120.0
            },
            {
                "pitch": 67,
                "velocity": 12,
                "duration": 1.75,
                "tempo": 120.0
            },
            {
                "pitch": 76,
                "velocity": 12,
                "duration": 0.1773,
                "tempo": 120.0
            },
            {
                "pitch": 76,
                "velocity": 12,
                "duration": 0.1773,
                "tempo": 120.0
            },
            {
                "pitch": 79,
                "velocity": 12,
                "duration": 0.175,
                "tempo": 120.0
            },
            {
                "pitch": 89,
                "velocity": 12,
                "duration": 1.75,
                "tempo": 120.0
            },
            {
                "pitch": 77,
                "velocity": 12,
                "duration": 0.3477,
                "tempo": 120.0
            },
            {
                "pitch": 74,
                "velocity": 12,
                "duration": 0.175,
                "tempo": 120.0
            },
            {
                "pitch": 74,
                "velocity": 12,
                "duration": 0.175,
                "tempo": 120.0
            },
            {
                "pitch": 76,
                "velocity": 12,
                "duration": 0.175,
                "tempo": 120.0
            },
            {
                "pitch": 76,
                "velocity": 12,
                "duration": 0.175,
                "tempo": 120.0
            },
            {
                "pitch": 77,
                "velocity": 12,
                "duration": 0.175,
                "tempo": 120.0
            },
            {
                "pitch": 76,
                "velocity": 12,
                "duration": 0.175,
                "tempo": 120.0
            },
            {
                "pitch": 77,
                "velocity": 12,
                "duration": 0.175,
                "tempo": 120.0
            },
            {
                "pitch": 74,
                "velocity": 12,
                "duration": 0.175,
                "tempo": 120.0
            },
            {
                "pitch": 74,
                "velocity": 12,
                "duration": 0.175,
                "tempo": 120.0
            },
            {
                "pitch": 67,
                "velocity": 12,
                "duration": 1.7477,
                "tempo": 120.0
            },
            {
                "pitch": 76,
                "velocity": 12,
                "duration": 0.175,
                "tempo": 120.0
            },
            {
                "pitch": 76,
                "velocity": 12,
                "duration": 0.175,
                "tempo": 120.0
            },
            {
                "pitch": 79,
                "velocity": 12,
                "duration": 0.175,
                "tempo": 120.0
            },
            {
                "pitch": 89,
                "velocity": 12,
                "duration": 1.7477,
                "tempo": 120.0
            },
            {
                "pitch": 77,
                "velocity": 12,
                "duration": 0.35,
                "tempo": 120.0
            },
            {
                "pitch": 74,
                "velocity": 12,
                "duration": 0.175,
                "tempo": 120.0
            },
            {
                "pitch": 74,
                "velocity": 12,
                "duration": 0.175,
                "tempo": 120.0
            },
            {
                "pitch": 76,
                "velocity": 12,
                "duration": 0.175,
                "tempo": 120.0
            },
            {
                "pitch": 76,
                "velocity": 12,
                "duration": 0.175,
                "tempo": 120.0
            },
            {
                "pitch": 77,
                "velocity": 12,
                "duration": 0.1795,
                "tempo": 120.0
            },
            {
                "pitch": 74,
                "velocity": 12,
                "duration": 0.1773,
                "tempo": 120.0
            },
            {
                "pitch": 74,
                "velocity": 12,
                "duration": 0.1773,
                "tempo": 120.0
            },
            {
                "pitch": 67,
                "velocity": 12,
                "duration": 1.4091,
                "tempo": 120.0
            },
            {
                "pitch": 76,
                "velocity": 12,
                "duration": 0.1773,
                "tempo": 120.0
            },
            {
                "pitch": 76,
                "velocity": 12,
                "duration": 0.1773,
                "tempo": 120.0
            },
            {
                "pitch": 79,
                "velocity": 12,
                "duration": 0.175,
                "tempo": 120.0
            },
            {
                "pitch": 89,
                "velocity": 12,
                "duration": 1.4091,
                "tempo": 120.0
            },
            {
                "pitch": 77,
                "velocity": 12,
                "duration": 0.3477,
                "tempo": 120.0
            },
            {
                "pitch": 77,
                "velocity": 12,
                "duration": 0.35,
                "tempo": 120.0
            },
            {
                "pitch": 0,
                "velocity": 0,
                "duration": 0.3432,
                "tempo": 0
            },
            {
                "pitch": 77,
                "velocity": 10,
                "duration": 0.3409,
                "tempo": 120.0
            },
            {
                "pitch": 77,
                "velocity": 10,
                "duration": 0.3682,
                "tempo": 120.0
            },
            {
                "pitch": 0,
                "velocity": 0,
                "duration": 0.3477,
                "tempo": 0
            },
            {
                "pitch": 77,
                "velocity": 8,
                "duration": 0.3318,
                "tempo": 120.0
            },
            {
                "pitch": 77,
                "velocity": 8,
                "duration": 0.3682,
                "tempo": 120.0
            },
            {
                "pitch": 0,
                "velocity": 0,
                "duration": 0.3591,
                "tempo": 0
            },
            {
                "pitch": 77,
                "velocity": 7,
                "duration": 0.3318,
                "tempo": 120.0
            },
            {
                "pitch": 77,
                "velocity": 7,
                "duration": 0.3568,
                "tempo": 120.0
            },
            {
                "pitch": 0,
                "velocity": 0,
                "duration": 0.3591,
                "tempo": 0
            },
            {
                "pitch": 77,
                "velocity": 5,
                "duration": 0.3318,
                "tempo": 120.0
            },
            {
                "pitch": 77,
                "velocity": 5,
                "duration": 0.3591,
                "tempo": 120.0
            },
            {
                "pitch": 0,
                "velocity": 0,
                "duration": 0.3568,
                "tempo": 0
            },
            {
                "pitch": 77,
                "velocity": 3,
                "duration": 0.3318,
                "tempo": 120.0
            },
            {
                "pitch": 77,
                "velocity": 3,
                "duration": 0.3682,
                "tempo": 120.0
            },
            {
                "pitch": 0,
                "velocity": 0,
                "duration": 0.3477,
                "tempo": 0
            },
            {
                "pitch": 77,
                "velocity": 2,
                "duration": 0.3341,
                "tempo": 120.0
            },
            {
                "pitch": 77,
                "velocity": 2,
                "duration": 0.3659,
                "tempo": 120.0
            },
            {
                "pitch": 0,
                "velocity": 0,
                "duration": 0.3523,
                "tempo": 0
            },
            {
                "pitch": 77,
                "velocity": 2,
                "duration": 0.3318,
                "tempo": 120.0
            },
            {
                "pitch": 77,
                "velocity": 2,
                "duration": 0.3682,
                "tempo": 120.0
            },
            {
                "pitch": 0,
                "velocity": 0,
                "duration": 0.35,
                "tempo": 0
            },
            {
                "pitch": 77,
                "velocity": 2,
                "duration": 0.3409,
                "tempo": 120.0
            }
        ],
        "Lead 2 (sawtooth)": [
            {
                "pitch": 0,
                "velocity": 0,
                "duration": 38.7318,
                "tempo": 0
            },
            {
                "pitch": 45,
                "velocity": 15,
                "duration": 0.4568,
                "tempo": 120.0
            },
            {
                "pitch": 45,
                "velocity": 15,
                "duration": 0.4523,
                "tempo": 120.0
            },
            {
                "pitch": 0,
                "velocity": 0,
                "duration": 3.975,
                "tempo": 0
            },
            {
                "pitch": 33,
                "velocity": 12,
                "duration": 0.4818,
                "tempo": 120.0
            },
            {
                "pitch": 33,
                "velocity": 12,
                "duration": 5.5773,
                "tempo": 120.0
            },
            {
                "pitch": 0,
                "velocity": 0,
                "duration": 0.0023,
                "tempo": 0
            },
            {
                "pitch": 38,
                "velocity": 12,
                "duration": 0.1182,
                "tempo": 120.0
            },
            {
                "pitch": 38,
                "velocity": 10,
                "duration": 0.1205,
                "tempo": 120.0
            },
            {
                "pitch": 38,
                "velocity": 12,
                "duration": 0.1205,
                "tempo": 120.0
            },
            {
                "pitch": 38,
                "velocity": 10,
                "duration": 11.575,
                "tempo": 120.0
            },
            {
                "pitch": 70,
                "velocity": 5,
                "duration": 0.2386,
                "tempo": 120.0
            },
            {
                "pitch": 77,
                "velocity": 5,
                "duration": 0.0023,
                "tempo": 120.0
            },
            {
                "pitch": 65,
                "velocity": 5,
                "duration": 0.2386,
                "tempo": 120.0
            },
            {
                "pitch": 70,
                "velocity": 5,
                "duration": 0.2341,
                "tempo": 120.0
            },
            {
                "pitch": 77,
                "velocity": 5,
                "duration": 0.475,
                "tempo": 120.0
            },
            {
                "pitch": 77,
                "velocity": 5,
                "duration": 0.475,
                "tempo": 120.0
            },
            {
                "pitch": 70,
                "velocity": 5,
                "duration": 0.4682,
                "tempo": 120.0
            },
            {
                "pitch": 70,
                "velocity": 5,
                "duration": 0.4682,
                "tempo": 120.0
            },
            {
                "pitch": 58,
                "velocity": 5,
                "duration": 1.4068,
                "tempo": 120.0
            },
            {
                "pitch": 65,
                "velocity": 5,
                "duration": 0.2295,
                "tempo": 120.0
            },
            {
                "pitch": 70,
                "velocity": 5,
                "duration": 0.2455,
                "tempo": 120.0
            },
            {
                "pitch": 77,
                "velocity": 5,
                "duration": 0.475,
                "tempo": 120.0
            },
            {
                "pitch": 65,
                "velocity": 5,
                "duration": 0.2455,
                "tempo": 120.0
            },
            {
                "pitch": 58,
                "velocity": 5,
                "duration": 0.4932,
                "tempo": 120.0
            },
            {
                "pitch": 58,
                "velocity": 5,
                "duration": 0.0023,
                "tempo": 120.0
            },
            {
                "pitch": 70,
                "velocity": 5,
                "duration": 0.2386,
                "tempo": 120.0
            },
            {
                "pitch": 77,
                "velocity": 5,
                "duration": 0.4864,
                "tempo": 120.0
            },
            {
                "pitch": 77,
                "velocity": 5,
                "duration": 0.4841,
                "tempo": 120.0
            },
            {
                "pitch": 77,
                "velocity": 5,
                "duration": 0.4841,
                "tempo": 120.0
            },
            {
                "pitch": 70,
                "velocity": 5,
                "duration": 0.4795,
                "tempo": 120.0
            },
            {
                "pitch": 70,
                "velocity": 5,
                "duration": 0.4795,
                "tempo": 120.0
            },
            {
                "pitch": 65,
                "velocity": 5,
                "duration": 0.2341,
                "tempo": 120.0
            },
            {
                "pitch": 70,
                "velocity": 5,
                "duration": 0.2386,
                "tempo": 120.0
            },
            {
                "pitch": 77,
                "velocity": 5,
                "duration": 0.4727,
                "tempo": 120.0
            },
            {
                "pitch": 58,
                "velocity": 5,
                "duration": 0.4795,
                "tempo": 120.0
            },
            {
                "pitch": 65,
                "velocity": 5,
                "duration": 0.2409,
                "tempo": 120.0
            },
            {
                "pitch": 70,
                "velocity": 5,
                "duration": 0.2341,
                "tempo": 120.0
            },
            {
                "pitch": 77,
                "velocity": 5,
                "duration": 0.475,
                "tempo": 120.0
            },
            {
                "pitch": 77,
                "velocity": 5,
                "duration": 0.475,
                "tempo": 120.0
            },
            {
                "pitch": 77,
                "velocity": 5,
                "duration": 0.475,
                "tempo": 120.0
            },
            {
                "pitch": 70,
                "velocity": 5,
                "duration": 0.475,
                "tempo": 120.0
            },
            {
                "pitch": 70,
                "velocity": 5,
                "duration": 0.475,
                "tempo": 120.0
            },
            {
                "pitch": 58,
                "velocity": 5,
                "duration": 1.4182,
                "tempo": 120.0
            },
            {
                "pitch": 65,
                "velocity": 5,
                "duration": 0.2341,
                "tempo": 120.0
            },
            {
                "pitch": 70,
                "velocity": 5,
                "duration": 0.1932,
                "tempo": 120.0
            },
            {
                "pitch": 72,
                "velocity": 5,
                "duration": 0.1568,
                "tempo": 120.0
            },
            {
                "pitch": 72,
                "velocity": 5,
                "duration": 0.1568,
                "tempo": 120.0
            },
            {
                "pitch": 77,
                "velocity": 5,
                "duration": 0.5841,
                "tempo": 120.0
            },
            {
                "pitch": 77,
                "velocity": 5,
                "duration": 0.1682,
                "tempo": 120.0
            },
            {
                "pitch": 77,
                "velocity": 5,
                "duration": 0.1682,
                "tempo": 120.0
            },
            {
                "pitch": 70,
                "velocity": 5,
                "duration": 0.1409,
                "tempo": 120.0
            },
            {
                "pitch": 70,
                "velocity": 5,
                "duration": 0.1409,
                "tempo": 120.0
            },
            {
                "pitch": 72,
                "velocity": 5,
                "duration": 0.1409,
                "tempo": 120.0
            },
            {
                "pitch": 72,
                "velocity": 5,
                "duration": 0.1409,
                "tempo": 120.0
            },
            {
                "pitch": 77,
                "velocity": 5,
                "duration": 0.1545,
                "tempo": 120.0
            },
            {
                "pitch": 77,
                "velocity": 5,
                "duration": 0.1545,
                "tempo": 120.0
            },
            {
                "pitch": 70,
                "velocity": 5,
                "duration": 0.1386,
                "tempo": 120.0
            },
            {
                "pitch": 70,
                "velocity": 5,
                "duration": 0.1386,
                "tempo": 120.0
            },
            {
                "pitch": 72,
                "velocity": 5,
                "duration": 0.1386,
                "tempo": 120.0
            },
            {
                "pitch": 72,
                "velocity": 5,
                "duration": 0.1386,
                "tempo": 120.0
            },
            {
                "pitch": 77,
                "velocity": 5,
                "duration": 0.1523,
                "tempo": 120.0
            },
            {
                "pitch": 77,
                "velocity": 5,
                "duration": 0.1523,
                "tempo": 120.0
            },
            {
                "pitch": 70,
                "velocity": 5,
                "duration": 0.1386,
                "tempo": 120.0
            },
            {
                "pitch": 70,
                "velocity": 5,
                "duration": 0.1386,
                "tempo": 120.0
            },
            {
                "pitch": 72,
                "velocity": 5,
                "duration": 0.1386,
                "tempo": 120.0
            },
            {
                "pitch": 72,
                "velocity": 5,
                "duration": 0.1386,
                "tempo": 120.0
            },
            {
                "pitch": 77,
                "velocity": 5,
                "duration": 0.1636,
                "tempo": 120.0
            },
            {
                "pitch": 77,
                "velocity": 5,
                "duration": 0.1636,
                "tempo": 120.0
            },
            {
                "pitch": 70,
                "velocity": 5,
                "duration": 0.1477,
                "tempo": 120.0
            },
            {
                "pitch": 70,
                "velocity": 5,
                "duration": 0.1477,
                "tempo": 120.0
            },
            {
                "pitch": 72,
                "velocity": 5,
                "duration": 0.1477,
                "tempo": 120.0
            },
            {
                "pitch": 72,
                "velocity": 5,
                "duration": 0.1477,
                "tempo": 120.0
            },
            {
                "pitch": 77,
                "velocity": 5,
                "duration": 0.1727,
                "tempo": 120.0
            },
            {
                "pitch": 77,
                "velocity": 5,
                "duration": 0.1727,
                "tempo": 120.0
            },
            {
                "pitch": 70,
                "velocity": 3,
                "duration": 0.1568,
                "tempo": 120.0
            },
            {
                "pitch": 70,
                "velocity": 5,
                "duration": 0.1568,
                "tempo": 120.0
            },
            {
                "pitch": 72,
                "velocity": 3,
                "duration": 0.1727,
                "tempo": 120.0
            },
            {
                "pitch": 72,
                "velocity": 3,
                "duration": 0.1727,
                "tempo": 120.0
            },
            {
                "pitch": 77,
                "velocity": 3,
                "duration": 0.1523,
                "tempo": 120.0
            },
            {
                "pitch": 77,
                "velocity": 3,
                "duration": 0.1523,
                "tempo": 120.0
            },
            {
                "pitch": 70,
                "velocity": 3,
                "duration": 0.15,
                "tempo": 120.0
            },
            {
                "pitch": 70,
                "velocity": 3,
                "duration": 0.15,
                "tempo": 120.0
            },
            {
                "pitch": 72,
                "velocity": 3,
                "duration": 0.1682,
                "tempo": 120.0
            },
            {
                "pitch": 72,
                "velocity": 3,
                "duration": 0.1682,
                "tempo": 120.0
            },
            {
                "pitch": 77,
                "velocity": 3,
                "duration": 0.1545,
                "tempo": 120.0
            },
            {
                "pitch": 77,
                "velocity": 3,
                "duration": 0.1545,
                "tempo": 120.0
            },
            {
                "pitch": 70,
                "velocity": 3,
                "duration": 0.1545,
                "tempo": 120.0
            },
            {
                "pitch": 70,
                "velocity": 3,
                "duration": 0.1545,
                "tempo": 120.0
            },
            {
                "pitch": 72,
                "velocity": 3,
                "duration": 0.1705,
                "tempo": 120.0
            },
            {
                "pitch": 72,
                "velocity": 3,
                "duration": 0.1705,
                "tempo": 120.0
            },
            {
                "pitch": 77,
                "velocity": 3,
                "duration": 0.15,
                "tempo": 120.0
            },
            {
                "pitch": 77,
                "velocity": 3,
                "duration": 0.15,
                "tempo": 120.0
            },
            {
                "pitch": 70,
                "velocity": 2,
                "duration": 0.1523,
                "tempo": 120.0
            },
            {
                "pitch": 70,
                "velocity": 3,
                "duration": 0.1523,
                "tempo": 120.0
            },
            {
                "pitch": 72,
                "velocity": 2,
                "duration": 0.1659,
                "tempo": 120.0
            },
            {
                "pitch": 72,
                "velocity": 2,
                "duration": 0.1659,
                "tempo": 120.0
            },
            {
                "pitch": 77,
                "velocity": 2,
                "duration": 0.0023,
                "tempo": 120.0
            },
            {
                "pitch": 77,
                "velocity": 2,
                "duration": 0.1568,
                "tempo": 120.0
            },
            {
                "pitch": 70,
                "velocity": 2,
                "duration": 0.1591,
                "tempo": 120.0
            },
            {
                "pitch": 70,
                "velocity": 2,
                "duration": 0.1591,
                "tempo": 120.0
            },
            {
                "pitch": 72,
                "velocity": 2,
                "duration": 0.175,
                "tempo": 120.0
            },
            {
                "pitch": 72,
                "velocity": 2,
                "duration": 0.175,
                "tempo": 120.0
            },
            {
                "pitch": 77,
                "velocity": 2,
                "duration": 0.1545,
                "tempo": 120.0
            },
            {
                "pitch": 77,
                "velocity": 2,
                "duration": 0.1545,
                "tempo": 120.0
            },
            {
                "pitch": 70,
                "velocity": 2,
                "duration": 0.1545,
                "tempo": 120.0
            },
            {
                "pitch": 70,
                "velocity": 2,
                "duration": 0.1545,
                "tempo": 120.0
            },
            {
                "pitch": 72,
                "velocity": 2,
                "duration": 0.1705,
                "tempo": 120.0
            },
            {
                "pitch": 72,
                "velocity": 2,
                "duration": 0.1705,
                "tempo": 120.0
            },
            {
                "pitch": 77,
                "velocity": 2,
                "duration": 0.15,
                "tempo": 120.0
            },
            {
                "pitch": 77,
                "velocity": 2,
                "duration": 0.15,
                "tempo": 120.0
            },
            {
                "pitch": 70,
                "velocity": 2,
                "duration": 0.1523,
                "tempo": 120.0
            },
            {
                "pitch": 70,
                "velocity": 2,
                "duration": 0.1523,
                "tempo": 120.0
            },
            {
                "pitch": 72,
                "velocity": 2,
                "duration": 0.1659,
                "tempo": 120.0
            },
            {
                "pitch": 72,
                "velocity": 2,
                "duration": 0.1659,
                "tempo": 120.0
            }
        ],
        "Synth Bass 1": [
            {
                "pitch": 0,
                "velocity": 0,
                "duration": 12.625,
                "tempo": 0
            },
            {
                "pitch": 93,
                "velocity": 1,
                "duration": 67.7136,
                "tempo": 120.0
            },
            {
                "pitch": 65,
                "velocity": 1,
                "duration": 0.1727,
                "tempo": 120.0
            },
            {
                "pitch": 67,
                "velocity": 1,
                "duration": 0.175,
                "tempo": 120.0
            },
            {
                "pitch": 69,
                "velocity": 1,
                "duration": 0.175,
                "tempo": 120.0
            },
            {
                "pitch": 67,
                "velocity": 1,
                "duration": 0.175,
                "tempo": 120.0
            },
            {
                "pitch": 69,
                "velocity": 1,
                "duration": 0.1795,
                "tempo": 120.0
            },
            {
                "pitch": 65,
                "velocity": 1,
                "duration": 0.1773,
                "tempo": 120.0
            },
            {
                "pitch": 55,
                "velocity": 1,
                "duration": 0.8841,
                "tempo": 120.0
            },
            {
                "pitch": 55,
                "velocity": 1,
                "duration": 0.0023,
                "tempo": 120.0
            },
            {
                "pitch": 67,
                "velocity": 1,
                "duration": 0.1705,
                "tempo": 120.0
            },
            {
                "pitch": 70,
                "velocity": 1,
                "duration": 0.1705,
                "tempo": 120.0
            },
            {
                "pitch": 70,
                "velocity": 1,
                "duration": 0.1705,
                "tempo": 120.0
            },
            {
                "pitch": 69,
                "velocity": 1,
                "duration": 0.35,
                "tempo": 120.0
            },
            {
                "pitch": 77,
                "velocity": 1,
                "duration": 0.8705,
                "tempo": 120.0
            },
            {
                "pitch": 65,
                "velocity": 1,
                "duration": 0.175,
                "tempo": 120.0
            },
            {
                "pitch": 67,
                "velocity": 1,
                "duration": 0.1727,
                "tempo": 120.0
            },
            {
                "pitch": 69,
                "velocity": 1,
                "duration": 0.1795,
                "tempo": 120.0
            },
            {
                "pitch": 67,
                "velocity": 1,
                "duration": 0.1795,
                "tempo": 120.0
            },
            {
                "pitch": 69,
                "velocity": 1,
                "duration": 0.175,
                "tempo": 120.0
            },
            {
                "pitch": 77,
                "velocity": 1,
                "duration": 0.8818,
                "tempo": 120.0
            },
            {
                "pitch": 55,
                "velocity": 1,
                "duration": 0.8818,
                "tempo": 120.0
            },
            {
                "pitch": 65,
                "velocity": 1,
                "duration": 0.175,
                "tempo": 120.0
            },
            {
                "pitch": 67,
                "velocity": 1,
                "duration": 0.1705,
                "tempo": 120.0
            },
            {
                "pitch": 70,
                "velocity": 1,
                "duration": 0.1727,
                "tempo": 120.0
            },
            {
                "pitch": 70,
                "velocity": 1,
                "duration": 0.1727,
                "tempo": 120.0
            },
            {
                "pitch": 69,
                "velocity": 1,
                "duration": 0.3568,
                "tempo": 120.0
            },
            {
                "pitch": 69,
                "velocity": 1,
                "duration": 1.4,
                "tempo": 120.0
            },
            {
                "pitch": 69,
                "velocity": 1,
                "duration": 0.35,
                "tempo": 120.0
            },
            {
                "pitch": 69,
                "velocity": 1,
                "duration": 1.4,
                "tempo": 120.0
            },
            {
                "pitch": 69,
                "velocity": 1,
                "duration": 0.3477,
                "tempo": 120.0
            },
            {
                "pitch": 69,
                "velocity": 1,
                "duration": 1.4,
                "tempo": 120.0
            },
            {
                "pitch": 69,
                "velocity": 1,
                "duration": 0.35,
                "tempo": 120.0
            },
            {
                "pitch": 69,
                "velocity": 1,
                "duration": 1.0591,
                "tempo": 120.0
            },
            {
                "pitch": 69,
                "velocity": 1,
                "duration": 0.3477,
                "tempo": 120.0
            },
            {
                "pitch": 69,
                "velocity": 1,
                "duration": 0.35,
                "tempo": 120.0
            },
            {
                "pitch": 0,
                "velocity": 0,
                "duration": 0.3432,
                "tempo": 0
            },
            {
                "pitch": 69,
                "velocity": 1,
                "duration": 0.3409,
                "tempo": 120.0
            },
            {
                "pitch": 69,
                "velocity": 1,
                "duration": 0.3682,
                "tempo": 120.0
            },
            {
                "pitch": 0,
                "velocity": 0,
                "duration": 0.3477,
                "tempo": 0
            },
            {
                "pitch": 69,
                "velocity": 1,
                "duration": 0.3318,
                "tempo": 120.0
            },
            {
                "pitch": 69,
                "velocity": 1,
                "duration": 0.3682,
                "tempo": 120.0
            },
            {
                "pitch": 0,
                "velocity": 0,
                "duration": 0.3591,
                "tempo": 0
            },
            {
                "pitch": 69,
                "velocity": 1,
                "duration": 0.3318,
                "tempo": 120.0
            },
            {
                "pitch": 69,
                "velocity": 1,
                "duration": 0.3568,
                "tempo": 120.0
            },
            {
                "pitch": 0,
                "velocity": 0,
                "duration": 0.3591,
                "tempo": 0
            },
            {
                "pitch": 69,
                "velocity": 1,
                "duration": 0.3318,
                "tempo": 120.0
            },
            {
                "pitch": 69,
                "velocity": 1,
                "duration": 0.3591,
                "tempo": 120.0
            },
            {
                "pitch": 0,
                "velocity": 0,
                "duration": 0.3568,
                "tempo": 0
            },
            {
                "pitch": 69,
                "velocity": 1,
                "duration": 0.3318,
                "tempo": 120.0
            },
            {
                "pitch": 69,
                "velocity": 1,
                "duration": 0.3682,
                "tempo": 120.0
            },
            {
                "pitch": 0,
                "velocity": 0,
                "duration": 0.3477,
                "tempo": 0
            },
            {
                "pitch": 69,
                "velocity": 1,
                "duration": 0.3341,
                "tempo": 120.0
            },
            {
                "pitch": 69,
                "velocity": 1,
                "duration": 0.3659,
                "tempo": 120.0
            },
            {
                "pitch": 0,
                "velocity": 0,
                "duration": 0.3523,
                "tempo": 0
            },
            {
                "pitch": 69,
                "velocity": 1,
                "duration": 0.3318,
                "tempo": 120.0
            },
            {
                "pitch": 69,
                "velocity": 1,
                "duration": 0.3682,
                "tempo": 120.0
            }
        ],
        "Acoustic Grand Piano": [
            {
                "pitch": 0,
                "velocity": 0,
                "duration": 98.8932,
                "tempo": 0
            },
            {
                "pitch": 108,
                "velocity": 15,
                "duration": 0.1,
                "tempo": 120.0
            }
        ]
    }
}