{
    "track_id": "01 - Game de check! Koutsuu Anzen (FM) - Instructions_1",
    "mood": "happy",
    "instruments": {
        "Lead 1 (square)": [
            {
                "pitch": 60,
                "velocity": 8,
                "duration": 0.3659,
                "tempo": 120.0
            },
            {
                "pitch": 0,
                "velocity": 0,
                "duration": 0.0182,
                "tempo": 0
            },
            {
                "pitch": 64,
                "velocity": 8,
                "duration": 0.1818,
                "tempo": 120.0
            },
            {
                "pitch": 0,
                "velocity": 0,
                "duration": 0.0182,
                "tempo": 0
            },
            {
                "pitch": 67,
                "velocity": 8,
                "duration": 0.3818,
                "tempo": 120.0
            },
            {
                "pitch": 0,
                "velocity": 0,
                "duration": 0.0182,
                "tempo": 0
            },
            {
                "pitch": 70,
                "velocity": 8,
                "duration": 0.3932,
                "tempo": 120.0
            },
            {
                "pitch": 0,
                "velocity": 0,
                "duration": 0.0159,
                "tempo": 0
            },
            {
                "pitch": 69,
                "velocity": 8,
                "duration": 0.1841,
                "tempo": 120.0
            },
            {
                "pitch": 0,
                "velocity": 0,
                "duration": 0.0159,
                "tempo": 0
            },
            {
                "pitch": 67,
                "velocity": 8,
                "duration": 0.3864,
                "tempo": 120.0
            },
            {
                "pitch": 0,
                "velocity": 0,
                "duration": 0.0159,
                "tempo": 0
            },
            {
                "pitch": 64,
                "velocity": 8,
                "duration": 0.1841,
                "tempo": 120.0
            },
            {
                "pitch": 0,
                "velocity": 0,
                "duration": 0.0182,
                "tempo": 0
            },
            {
                "pitch": 60,
                "velocity": 8,
                "duration": 0.3818,
                "tempo": 120.0
            },
            {
                "pitch": 0,
                "velocity": 0,
                "duration": 0.0182,
                "tempo": 0
            },
            {
                "pitch": 58,
                "velocity": 8,
                "duration": 0.3818,
                "tempo": 120.0
            },
            {
                "pitch": 0,
                "velocity": 0,
                "duration": 0.0182,
                "tempo": 0
            },
            {
                "pitch": 59,
                "velocity": 8,
                "duration": 0.1841,
                "tempo": 120.0
            },
            {
                "pitch": 0,
                "velocity": 0,
                "duration": 0.0159,
                "tempo": 0
            },
            {
                "pitch": 60,
                "velocity": 8,
                "duration": 0.9864,
                "tempo": 120.0
            },
            {
                "pitch": 0,
                "velocity": 0,
                "duration": 0.0182,
                "tempo": 0
            },
            {
                "pitch": 64,
                "velocity": 8,
                "duration": 0.375,
                "tempo": 120.0
            },
            {
                "pitch": 0,
                "velocity": 0,
                "duration": 0.0182,
                "tempo": 0
            },
            {
                "pitch": 62,
                "velocity": 8,
                "duration": 0.1841,
                "tempo": 120.0
            },
            {
                "pitch": 0,
                "velocity": 0,
                "duration": 0.0159,
                "tempo": 0
            },
            {
                "pitch": 60,
                "velocity": 8,
                "duration": 0.3864,
                "tempo": 120.0
            },
            {
                "pitch": 0,
                "velocity": 0,
                "duration": 0.0159,
                "tempo": 0
            },
            {
                "pitch": 58,
                "velocity": 8,
                "duration": 0.1864,
                "tempo": 120.0
            },
            {
                "pitch": 0,
                "velocity": 0,
                "duration": 0.0159,
                "tempo": 0
            },
            {
                "pitch": 59,
                "velocity": 8,
                "duration": 0.1841,
                "tempo": 120.0
            },
            {
                "pitch": 0,
                "velocity": 0,
                "duration": 0.0159,
                "tempo": 0
            },
            {
                "pitch": 60,
                "velocity": 8,
                "duration": 0.7864,
                "tempo": 120.0
            },
            {
                "pitch": 0,
                "velocity": 0,
                "duration": 0.0159,
                "tempo": 0
            },
            {
                "pitch": 60,
                "velocity": 8,
                "duration": 0.3841,
                "tempo": 120.0
            },
            {
                "pitch": 0,
                "velocity": 0,
                "duration": 0.0182,
                "tempo": 0
            },
            {
                "pitch": 64,
                "velocity": 8,
                "duration": 0.1841,
                "tempo": 120.0
            },
            {
                "pitch": 0,
                "velocity": 0,
                "duration": 0.0159,
                "tempo": 0
            },
            {
                "pitch": 67,
                "velocity": 8,
                "duration": 0.3955,
                "tempo": 120.0
            },
            {
                "pitch": 0,
                "velocity": 0,
                "duration": 0.0159,
                "tempo": 0
            },
            {
                "pitch": 70,
                "velocity": 8,
                "duration": 0.3841,
                "tempo": 120.0
            },
            {
                "pitch": 0,
                "velocity": 0,
                "duration": 0.0159,
                "tempo": 0
            },
            {
                "pitch": 69,
                "velocity": 8,
                "duration": 0.1795,
                "tempo": 120.0
            },
            {
                "pitch": 0,
                "velocity": 0,
                "duration": 0.0159,
                "tempo": 0
            },
            {
                "pitch": 67,
                "velocity": 8,
                "duration": 0.3795,
                "tempo": 120.0
            },
            {
                "pitch": 0,
                "velocity": 0,
                "duration": 0.0182,
                "tempo": 0
            },
            {
                "pitch": 64,
                "velocity": 8,
                "duration": 0.1818,
                "tempo": 120.0
            },
            {
                "pitch": 0,
                "velocity": 0,
                "duration": 0.0182,
                "tempo": 0
            },
            {
                "pitch": 60,
                "velocity": 8,
                "duration": 0.3932,
                "tempo": 120.0
            },
            {
                "pitch": 0,
                "velocity": 0,
                "duration": 0.0159,
                "tempo": 0
            },
            {
                "pitch": 76,
                "velocity": 8,
                "duration": 0.3773,
                "tempo": 120.0
            },
            {
                "pitch": 0,
                "velocity": 0,
                "duration": 0.0159,
                "tempo": 0
            },
            {
                "pitch": 74,
                "velocity": 8,
                "duration": 0.1841,
                "tempo": 120.0
            },
            {
                "pitch": 0,
                "velocity": 0,
                "duration": 0.0182,
                "tempo": 0
            },
            {
                "pitch": 72,
                "velocity": 8,
                "duration": 1.1932,
                "tempo": 120.0
            },
            {
                "pitch": 0,
                "velocity": 0,
                "duration": 0.0159,
                "tempo": 0
            },
            {
                "pitch": 70,
                "velocity": 8,
                "duration": 0.1795,
                "tempo": 120.0
            },
            {
                "pitch": 0,
                "velocity": 0,
                "duration": 0.0182,
                "tempo": 0
            },
            {
                "pitch": 71,
                "velocity": 8,
                "duration": 0.1841,
                "tempo": 120.0
            },
            {
                "pitch": 0,
                "velocity": 0,
                "duration": 0.0159,
                "tempo": 0
            },
            {
                "pitch": 72,
                "velocity": 8,
                "duration": 0.6886,
                "tempo": 120.0
            },
            {
                "pitch": 0,
                "velocity": 0,
                "duration": 0.9205,
                "tempo": 0
            },
            {
                "pitch": 65,
                "velocity": 8,
                "duration": 0.3886,
                "tempo": 120.0
            },
            {
                "pitch": 0,
                "velocity": 0,
                "duration": 0.0182,
                "tempo": 0
            },
            {
                "pitch": 64,
                "velocity": 8,
                "duration": 0.3886,
                "tempo": 120.0
            },
            {
                "pitch": 0,
                "velocity": 0,
                "duration": 0.0182,
                "tempo": 0
            },
            {
                "pitch": 60,
                "velocity": 8,
                "duration": 0.3841,
                "tempo": 120.0
            },
            {
                "pitch": 0,
                "velocity": 0,
                "duration": 0.0159,
                "tempo": 0
            },
            {
                "pitch": 58,
                "velocity": 8,
                "duration": 0.1841,
                "tempo": 120.0
            },
            {
                "pitch": 0,
                "velocity": 0,
                "duration": 0.0159,
                "tempo": 0
            },
            {
                "pitch": 59,
                "velocity": 8,
                "duration": 0.1864,
                "tempo": 120.0
            },
            {
                "pitch": 0,
                "velocity": 0,
                "duration": 0.0159,
                "tempo": 0
            },
            {
                "pitch": 60,
                "velocity": 8,
                "duration": 0.1841,
                "tempo": 120.0
            },
            {
                "pitch": 0,
                "velocity": 0,
                "duration": 0.0182,
                "tempo": 0
            },
            {
                "pitch": 64,
                "velocity": 8,
                "duration": 0.3841,
                "tempo": 120.0
            },
            {
                "pitch": 0,
                "velocity": 0,
                "duration": 0.0182,
                "tempo": 0
            },
            {
                "pitch": 60,
                "velocity": 8,
                "duration": 0.3864,
                "tempo": 120.0
            },
            {
                "pitch": 0,
                "velocity": 0,
                "duration": 0.0159,
                "tempo": 0
            },
            {
                "pitch": 58,
                "velocity": 8,
                "duration": 0.1841,
                "tempo": 120.0
            },
            {
                "pitch": 0,
                "velocity": 0,
                "duration": 0.0182,
                "tempo": 0
            },
            {
                "pitch": 59,
                "velocity": 8,
                "duration": 0.1841,
                "tempo": 120.0
            },
            {
                "pitch": 0,
                "velocity": 0,
                "duration": 0.0159,
                "tempo": 0
            },
            {
                "pitch": 60,
                "velocity": 8,
                "duration": 0.5841,
                "tempo": 120.0
            },
            {
                "pitch": 0,
                "velocity": 0,
                "duration": 0.0182,
                "tempo": 0
            },
            {
                "pitch": 64,
                "velocity": 8,
                "duration": 0.0159,
                "tempo": 120.0
            },
            {
                "pitch": 0,
                "velocity": 0,
                "duration": 0.0159,
                "tempo": 0
            },
            {
                "pitch": 65,
                "velocity": 8,
                "duration": 0.3477,
                "tempo": 120.0
            },
            {
                "pitch": 0,
                "velocity": 0,
                "duration": 0.0182,
                "tempo": 0
            },
            {
                "pitch": 64,
                "velocity": 8,
                "duration": 0.1795,
                "tempo": 120.0
            },
            {
                "pitch": 0,
                "velocity": 0,
                "duration": 0.0159,
                "tempo": 0
            },
            {
                "pitch": 60,
                "velocity": 8,
                "duration": 0.3864,
                "tempo": 120.0
            },
            {
                "pitch": 0,
                "velocity": 0,
                "duration": 0.0159,
                "tempo": 0
            },
            {
                "pitch": 69,
                "velocity": 8,
                "duration": 0.3932,
                "tempo": 120.0
            },
            {
                "pitch": 0,
                "velocity": 0,
                "duration": 0.0182,
                "tempo": 0
            },
            {
                "pitch": 67,
                "velocity": 8,
                "duration": 0.1795,
                "tempo": 120.0
            },
            {
                "pitch": 0,
                "velocity": 0,
                "duration": 0.0159,
                "tempo": 0
            },
            {
                "pitch": 64,
                "velocity": 8,
                "duration": 0.1795,
                "tempo": 120.0
            },
            {
                "pitch": 0,
                "velocity": 0,
                "duration": 0.0159,
                "tempo": 0
            },
            {
                "pitch": 60,
                "velocity": 8,
                "duration": 0.75,
                "tempo": 120.0
            },
            {
                "pitch": 0,
                "velocity": 0,
                "duration": 0.4523,
                "tempo": 0
            },
            {
                "pitch": 76,
                "velocity": 8,
                "duration": 0.1841,
                "tempo": 120.0
            },
            {
                "pitch": 0,
                "velocity": 0,
                "duration": 0.0159,
                "tempo": 0
            },
            {
                "pitch": 76,
                "velocity": 8,
                "duration": 0.1841,
                "tempo": 120.0
            },
            {
                "pitch": 0,
                "velocity": 0,
                "duration": 0.0159,
                "tempo": 0
            },
            {
                "pitch": 70,
                "velocity": 8,
                "duration": 0.1886,
                "tempo": 120.0
            },
            {
                "pitch": 0,
                "velocity": 0,
                "duration": 0.0182,
                "tempo": 0
            },
            {
                "pitch": 71,
                "velocity": 8,
                "duration": 0.1886,
                "tempo": 120.0
            },
            {
                "pitch": 0,
                "velocity": 0,
                "duration": 0.0159,
                "tempo": 0
            },
            {
                "pitch": 72,
                "velocity": 8,
                "duration": 0.3864,
                "tempo": 120.0
            },
            {
                "pitch": 0,
                "velocity": 0,
                "duration": 0.0159,
                "tempo": 0
            },
            {
                "pitch": 67,
                "velocity": 8,
                "duration": 0.3841,
                "tempo": 120.0
            },
            {
                "pitch": 0,
                "velocity": 0,
                "duration": 0.0159,
                "tempo": 0
            },
            {
                "pitch": 69,
                "velocity": 8,
                "duration": 0.3841,
                "tempo": 120.0
            },
            {
                "pitch": 0,
                "velocity": 0,
                "duration": 0.0159,
                "tempo": 0
            },
            {
                "pitch": 70,
                "velocity": 8,
                "duration": 0.3864,
                "tempo": 120.0
            },
            {
                "pitch": 0,
                "velocity": 0,
                "duration": 0.0182,
                "tempo": 0
            },
            {
                "pitch": 69,
                "velocity": 8,
                "duration": 0.1795,
                "tempo": 120.0
            },
            {
                "pitch": 0,
                "velocity": 0,
                "duration": 0.0159,
                "tempo": 0
            },
            {
                "pitch": 69,
                "velocity": 8,
                "duration": 0.3795,
                "tempo": 120.0
            },
            {
                "pitch": 0,
                "velocity": 0,
                "duration": 0.0159,
                "tempo": 0
            },
            {
                "pitch": 64,
                "velocity": 8,
                "duration": 0.3886,
                "tempo": 120.0
            },
            {
                "pitch": 0,
                "velocity": 0,
                "duration": 0.0182,
                "tempo": 0
            },
            {
                "pitch": 64,
                "velocity": 8,
                "duration": 0.1523,
                "tempo": 120.0
            },
            {
                "pitch": 0,
                "velocity": 0,
                "duration": 0.4523,
                "tempo": 0
            },
            {
                "pitch": 58,
                "velocity": 8,
                "duration": 0.1795,
                "tempo": 120.0
            },
            {
                "pitch": 0,
                "velocity": 0,
                "duration": 0.0159,
                "tempo": 0
            },
            {
                "pitch": 59,
                "velocity": 8,
                "duration": 0.1795,
                "tempo": 120.0
            },
            {
                "pitch": 0,
                "velocity": 0,
                "duration": 0.0182,
                "tempo": 0
            },
            {
                "pitch": 60,
                "velocity": 8,
                "duration": 0.3932,
                "tempo": 120.0
            },
            {
                "pitch": 0,
                "velocity": 0,
                "duration": 0.0159,
                "tempo": 0
            },
            {
                "pitch": 76,
                "velocity": 8,
                "duration": 0.1841,
                "tempo": 120.0
            },
            {
                "pitch": 0,
                "velocity": 0,
                "duration": 0.0182,
                "tempo": 0
            },
            {
                "pitch": 76,
                "velocity": 8,
                "duration": 0.1841,
                "tempo": 120.0
            },
            {
                "pitch": 0,
                "velocity": 0,
                "duration": 0.0159,
                "tempo": 0
            },
            {
                "pitch": 76,
                "velocity": 8,
                "duration": 0.9705,
                "tempo": 120.0
            }
        ],
        "Lead 2 (sawtooth)": [
            {
                "pitch": 60,
                "velocity": 12,
                "duration": 0.1659,
                "tempo": 120.0
            },
            {
                "pitch": 0,
                "velocity": 0,
                "duration": 0.0182,
                "tempo": 0
            },
            {
                "pitch": 67,
                "velocity": 12,
                "duration": 0.1818,
                "tempo": 120.0
            },
            {
                "pitch": 0,
                "velocity": 0,
                "duration": 0.0182,
                "tempo": 0
            },
            {
                "pitch": 64,
                "velocity": 12,
                "duration": 0.1818,
                "tempo": 120.0
            },
            {
                "pitch": 0,
                "velocity": 0,
                "duration": 0.0182,
                "tempo": 0
            },
            {
                "pitch": 60,
                "velocity": 12,
                "duration": 0.1818,
                "tempo": 120.0
            },
            {
                "pitch": 0,
                "velocity": 0,
                "duration": 0.0182,
                "tempo": 0
            },
            {
                "pitch": 70,
                "velocity": 12,
                "duration": 0.1818,
                "tempo": 120.0
            },
            {
                "pitch": 0,
                "velocity": 0,
                "duration": 0.0182,
                "tempo": 0
            },
            {
                "pitch": 67,
                "velocity": 12,
                "duration": 0.1864,
                "tempo": 120.0
            },
            {
                "pitch": 0,
                "velocity": 0,
                "duration": 0.0182,
                "tempo": 0
            },
            {
                "pitch": 64,
                "velocity": 12,
                "duration": 0.1886,
                "tempo": 120.0
            },
            {
                "pitch": 0,
                "velocity": 0,
                "duration": 0.0159,
                "tempo": 0
            },
            {
                "pitch": 60,
                "velocity": 12,
                "duration": 0.1841,
                "tempo": 120.0
            },
            {
                "pitch": 0,
                "velocity": 0,
                "duration": 0.0159,
                "tempo": 0
            },
            {
                "pitch": 60,
                "velocity": 12,
                "duration": 0.1841,
                "tempo": 120.0
            },
            {
                "pitch": 0,
                "velocity": 0,
                "duration": 0.0159,
                "tempo": 0
            },
            {
                "pitch": 67,
                "velocity": 12,
                "duration": 0.1864,
                "tempo": 120.0
            },
            {
                "pitch": 0,
                "velocity": 0,
                "duration": 0.0159,
                "tempo": 0
            },
            {
                "pitch": 64,
                "velocity": 12,
                "duration": 0.1841,
                "tempo": 120.0
            },
            {
                "pitch": 0,
                "velocity": 0,
                "duration": 0.0182,
                "tempo": 0
            },
            {
                "pitch": 60,
                "velocity": 12,
                "duration": 0.1818,
                "tempo": 120.0
            },
            {
                "pitch": 0,
                "velocity": 0,
                "duration": 0.0182,
                "tempo": 0
            },
            {
                "pitch": 70,
                "velocity": 12,
                "duration": 0.1818,
                "tempo": 120.0
            },
            {
                "pitch": 0,
                "velocity": 0,
                "duration": 0.0182,
                "tempo": 0
            },
            {
                "pitch": 67,
                "velocity": 12,
                "duration": 0.1818,
                "tempo": 120.0
            },
            {
                "pitch": 0,
                "velocity": 0,
                "duration": 0.0182,
                "tempo": 0
            },
            {
                "pitch": 64,
                "velocity": 12,
                "duration": 0.1818,
                "tempo": 120.0
            },
            {
                "pitch": 0,
                "velocity": 0,
                "duration": 0.0182,
                "tempo": 0
            },
            {
                "pitch": 60,
                "velocity": 12,
                "duration": 0.1841,
                "tempo": 120.0
            },
            {
                "pitch": 0,
                "velocity": 0,
                "duration": 0.0159,
                "tempo": 0
            },
            {
                "pitch": 60,
                "velocity": 12,
                "duration": 0.1841,
                "tempo": 120.0
            },
            {
                "pitch": 0,
                "velocity": 0,
                "duration": 0.0182,
                "tempo": 0
            },
            {
                "pitch": 67,
                "velocity": 12,
                "duration": 0.1795,
                "tempo": 120.0
            },
            {
                "pitch": 0,
                "velocity": 0,
                "duration": 0.0159,
                "tempo": 0
            },
            {
                "pitch": 64,
                "velocity": 12,
                "duration": 0.1795,
                "tempo": 120.0
            },
            {
                "pitch": 0,
                "velocity": 0,
                "duration": 0.0159,
                "tempo": 0
            },
            {
                "pitch": 60,
                "velocity": 12,
                "duration": 0.1886,
                "tempo": 120.0
            },
            {
                "pitch": 0,
                "velocity": 0,
                "duration": 0.0182,
                "tempo": 0
            },
            {
                "pitch": 70,
                "velocity": 12,
                "duration": 0.1864,
                "tempo": 120.0
            },
            {
                "pitch": 0,
                "velocity": 0,
                "duration": 0.0182,
                "tempo": 0
            },
            {
                "pitch": 67,
                "velocity": 12,
                "duration": 0.1795,
                "tempo": 120.0
            },
            {
                "pitch": 0,
                "velocity": 0,
                "duration": 0.0159,
                "tempo": 0
            },
            {
                "pitch": 64,
                "velocity": 12,
                "duration": 0.1795,
                "tempo": 120.0
            },
            {
                "pitch": 0,
                "velocity": 0,
                "duration": 0.0182,
                "tempo": 0
            },
            {
                "pitch": 60,
                "velocity": 12,
                "duration": 0.1841,
                "tempo": 120.0
            },
            {
                "pitch": 0,
                "velocity": 0,
                "duration": 0.0159,
                "tempo": 0
            },
            {
                "pitch": 60,
                "velocity": 12,
                "duration": 0.1841,
                "tempo": 120.0
            },
            {
                "pitch": 0,
                "velocity": 0,
                "duration": 0.0182,
                "tempo": 0
            },
            {
                "pitch": 67,
                "velocity": 12,
                "duration": 0.15,
                "tempo": 120.0
            },
            {
                "pitch": 0,
                "velocity": 0,
                "duration": 0.0182,
                "tempo": 0
            },
            {
                "pitch": 64,
                "velocity": 12,
                "duration": 0.2182,
                "tempo": 120.0
            },
            {
                "pitch": 0,
                "velocity": 0,
                "duration": 0.0159,
                "tempo": 0
            },
            {
                "pitch": 60,
                "velocity": 12,
                "duration": 0.1841,
                "tempo": 120.0
            },
            {
                "pitch": 0,
                "velocity": 0,
                "duration": 0.0159,
                "tempo": 0
            },
            {
                "pitch": 70,
                "velocity": 12,
                "duration": 0.1841,
                "tempo": 120.0
            },
            {
                "pitch": 0,
                "velocity": 0,
                "duration": 0.0159,
                "tempo": 0
            },
            {
                "pitch": 70,
                "velocity": 12,
                "duration": 0.1841,
                "tempo": 120.0
            },
            {
                "pitch": 0,
                "velocity": 0,
                "duration": 0.0159,
                "tempo": 0
            },
            {
                "pitch": 70,
                "velocity": 12,
                "duration": 0.1864,
                "tempo": 120.0
            },
            {
                "pitch": 0,
                "velocity": 0,
                "duration": 0.0159,
                "tempo": 0
            },
            {
                "pitch": 70,
                "velocity": 12,
                "duration": 0.1841,
                "tempo": 120.0
            },
            {
                "pitch": 0,
                "velocity": 0,
                "duration": 0.0159,
                "tempo": 0
            },
            {
                "pitch": 60,
                "velocity": 12,
                "duration": 0.1841,
                "tempo": 120.0
            },
            {
                "pitch": 0,
                "velocity": 0,
                "duration": 0.0159,
                "tempo": 0
            },
            {
                "pitch": 67,
                "velocity": 12,
                "duration": 0.1841,
                "tempo": 120.0
            },
            {
                "pitch": 0,
                "velocity": 0,
                "duration": 0.0182,
                "tempo": 0
            },
            {
                "pitch": 64,
                "velocity": 12,
                "duration": 0.1841,
                "tempo": 120.0
            },
            {
                "pitch": 0,
                "velocity": 0,
                "duration": 0.0159,
                "tempo": 0
            },
            {
                "pitch": 60,
                "velocity": 12,
                "duration": 0.1886,
                "tempo": 120.0
            },
            {
                "pitch": 0,
                "velocity": 0,
                "duration": 0.0182,
                "tempo": 0
            },
            {
                "pitch": 70,
                "velocity": 12,
                "duration": 0.1886,
                "tempo": 120.0
            },
            {
                "pitch": 0,
                "velocity": 0,
                "duration": 0.0159,
                "tempo": 0
            },
            {
                "pitch": 67,
                "velocity": 12,
                "duration": 0.1841,
                "tempo": 120.0
            },
            {
                "pitch": 0,
                "velocity": 0,
                "duration": 0.0159,
                "tempo": 0
            },
            {
                "pitch": 64,
                "velocity": 12,
                "duration": 0.1841,
                "tempo": 120.0
            },
            {
                "pitch": 0,
                "velocity": 0,
                "duration": 0.0159,
                "tempo": 0
            },
            {
                "pitch": 60,
                "velocity": 12,
                "duration": 0.1795,
                "tempo": 120.0
            },
            {
                "pitch": 0,
                "velocity": 0,
                "duration": 0.0159,
                "tempo": 0
            },
            {
                "pitch": 60,
                "velocity": 12,
                "duration": 0.1795,
                "tempo": 120.0
            },
            {
                "pitch": 0,
                "velocity": 0,
                "duration": 0.0182,
                "tempo": 0
            },
            {
                "pitch": 67,
                "velocity": 12,
                "duration": 0.1818,
                "tempo": 120.0
            },
            {
                "pitch": 0,
                "velocity": 0,
                "duration": 0.0182,
                "tempo": 0
            },
            {
                "pitch": 64,
                "velocity": 12,
                "duration": 0.1818,
                "tempo": 120.0
            },
            {
                "pitch": 0,
                "velocity": 0,
                "duration": 0.0182,
                "tempo": 0
            },
            {
                "pitch": 60,
                "velocity": 12,
                "duration": 0.1864,
                "tempo": 120.0
            },
            {
                "pitch": 0,
                "velocity": 0,
                "duration": 0.0182,
                "tempo": 0
            },
            {
                "pitch": 70,
                "velocity": 12,
                "duration": 0.1886,
                "tempo": 120.0
            },
            {
                "pitch": 0,
                "velocity": 0,
                "duration": 0.0159,
                "tempo": 0
            },
            {
                "pitch": 67,
                "velocity": 12,
                "duration": 0.1795,
                "tempo": 120.0
            },
            {
                "pitch": 0,
                "velocity": 0,
                "duration": 0.0182,
                "tempo": 0
            },
            {
                "pitch": 64,
                "velocity": 12,
                "duration": 0.1795,
                "tempo": 120.0
            },
            {
                "pitch": 0,
                "velocity": 0,
                "duration": 0.0159,
                "tempo": 0
            },
            {
                "pitch": 60,
                "velocity": 12,
                "duration": 0.1841,
                "tempo": 120.0
            },
            {
                "pitch": 0,
                "velocity": 0,
                "duration": 0.0182,
                "tempo": 0
            },
            {
                "pitch": 60,
                "velocity": 12,
                "duration": 0.1841,
                "tempo": 120.0
            },
            {
                "pitch": 0,
                "velocity": 0,
                "duration": 0.0159,
                "tempo": 0
            },
            {
                "pitch": 67,
                "velocity": 12,
                "duration": 0.1886,
                "tempo": 120.0
            },
            {
                "pitch": 0,
                "velocity": 0,
                "duration": 0.0159,
                "tempo": 0
            },
            {
                "pitch": 64,
                "velocity": 12,
                "duration": 0.1886,
                "tempo": 120.0
            },
            {
                "pitch": 0,
                "velocity": 0,
                "duration": 0.0182,
                "tempo": 0
            },
            {
                "pitch": 60,
                "velocity": 12,
                "duration": 0.1841,
                "tempo": 120.0
            },
            {
                "pitch": 0,
                "velocity": 0,
                "duration": 0.0182,
                "tempo": 0
            },
            {
                "pitch": 70,
                "velocity": 12,
                "duration": 0.1841,
                "tempo": 120.0
            },
            {
                "pitch": 0,
                "velocity": 0,
                "duration": 0.0159,
                "tempo": 0
            },
            {
                "pitch": 67,
                "velocity": 12,
                "duration": 0.1795,
                "tempo": 120.0
            },
            {
                "pitch": 0,
                "velocity": 0,
                "duration": 0.0159,
                "tempo": 0
            },
            {
                "pitch": 64,
                "velocity": 12,
                "duration": 0.1795,
                "tempo": 120.0
            },
            {
                "pitch": 0,
                "velocity": 0,
                "duration": 0.0182,
                "tempo": 0
            },
            {
                "pitch": 60,
                "velocity": 12,
                "duration": 0.1841,
                "tempo": 120.0
            },
            {
                "pitch": 0,
                "velocity": 0,
                "duration": 0.0159,
                "tempo": 0
            },
            {
                "pitch": 60,
                "velocity": 12,
                "duration": 0.1841,
                "tempo": 120.0
            },
            {
                "pitch": 0,
                "velocity": 0,
                "duration": 0.0182,
                "tempo": 0
            },
            {
                "pitch": 64,
                "velocity": 12,
                "duration": 0.1841,
                "tempo": 120.0
            },
            {
                "pitch": 0,
                "velocity": 0,
                "duration": 0.0159,
                "tempo": 0
            },
            {
                "pitch": 67,
                "velocity": 12,
                "duration": 0.1864,
                "tempo": 120.0
            },
            {
                "pitch": 0,
                "velocity": 0,
                "duration": 0.0159,
                "tempo": 0
            },
            {
                "pitch": 70,
                "velocity": 12,
                "duration": 0.1841,
                "tempo": 120.0
            },
            {
                "pitch": 0,
                "velocity": 0,
                "duration": 0.0159,
                "tempo": 0
            },
            {
                "pitch": 70,
                "velocity": 12,
                "duration": 0.1841,
                "tempo": 120.0
            },
            {
                "pitch": 0,
                "velocity": 0,
                "duration": 0.0159,
                "tempo": 0
            },
            {
                "pitch": 70,
                "velocity": 12,
                "duration": 0.1841,
                "tempo": 120.0
            },
            {
                "pitch": 0,
                "velocity": 0,
                "duration": 0.0182,
                "tempo": 0
            },
            {
                "pitch": 70,
                "velocity": 12,
                "duration": 0.1841,
                "tempo": 120.0
            },
            {
                "pitch": 0,
                "velocity": 0,
                "duration": 0.0159,
                "tempo": 0
            },
            {
                "pitch": 70,
                "velocity": 12,
                "duration": 0.1841,
                "tempo": 120.0
            },
            {
                "pitch": 0,
                "velocity": 0,
                "duration": 0.0182,
                "tempo": 0
            },
            {
                "pitch": 67,
                "velocity": 12,
                "duration": 0.1841,
                "tempo": 120.0
            },
            {
                "pitch": 0,
                "velocity": 0,
                "duration": 0.0159,
                "tempo": 0
            },
            {
                "pitch": 76,
                "velocity": 12,
                "duration": 0.1886,
                "tempo": 120.0
            },
            {
                "pitch": 0,
                "velocity": 0,
                "duration": 0.0182,
                "tempo": 0
            },
            {
                "pitch": 72,
                "velocity": 12,
                "duration": 0.1886,
                "tempo": 120.0
            },
            {
                "pitch": 0,
                "velocity": 0,
                "duration": 0.0159,
                "tempo": 0
            },
            {
                "pitch": 70,
                "velocity": 12,
                "duration": 0.1841,
                "tempo": 120.0
            },
            {
                "pitch": 0,
                "velocity": 0,
                "duration": 0.0182,
                "tempo": 0
            },
            {
                "pitch": 72,
                "velocity": 12,
                "duration": 0.1841,
                "tempo": 120.0
            },
            {
                "pitch": 0,
                "velocity": 0,
                "duration": 0.0159,
                "tempo": 0
            },
            {
                "pitch": 70,
                "velocity": 12,
                "duration": 0.1841,
                "tempo": 120.0
            },
            {
                "pitch": 0,
                "velocity": 0,
                "duration": 0.0159,
                "tempo": 0
            },
            {
                "pitch": 67,
                "velocity": 12,
                "duration": 0.1841,
                "tempo": 120.0
            },
            {
                "pitch": 0,
                "velocity": 0,
                "duration": 0.0159,
                "tempo": 0
            },
            {
                "pitch": 72,
                "velocity": 12,
                "duration": 0.1864,
                "tempo": 120.0
            },
            {
                "pitch": 0,
                "velocity": 0,
                "duration": 0.0159,
                "tempo": 0
            },
            {
                "pitch": 67,
                "velocity": 12,
                "duration": 0.1841,
                "tempo": 120.0
            },
            {
                "pitch": 0,
                "velocity": 0,
                "duration": 0.0182,
                "tempo": 0
            },
            {
                "pitch": 76,
                "velocity": 12,
                "duration": 0.1841,
                "tempo": 120.0
            },
            {
                "pitch": 0,
                "velocity": 0,
                "duration": 0.0159,
                "tempo": 0
            },
            {
                "pitch": 72,
                "velocity": 12,
                "duration": 0.1841,
                "tempo": 120.0
            },
            {
                "pitch": 0,
                "velocity": 0,
                "duration": 0.0182,
                "tempo": 0
            },
            {
                "pitch": 67,
                "velocity": 12,
                "duration": 0.1841,
                "tempo": 120.0
            },
            {
                "pitch": 0,
                "velocity": 0,
                "duration": 0.0159,
                "tempo": 0
            },
            {
                "pitch": 72,
                "velocity": 12,
                "duration": 0.1864,
                "tempo": 120.0
            },
            {
                "pitch": 0,
                "velocity": 0,
                "duration": 0.0159,
                "tempo": 0
            },
            {
                "pitch": 70,
                "velocity": 12,
                "duration": 0.1841,
                "tempo": 120.0
            },
            {
                "pitch": 0,
                "velocity": 0,
                "duration": 0.0182,
                "tempo": 0
            },
            {
                "pitch": 67,
                "velocity": 12,
                "duration": 0.1841,
                "tempo": 120.0
            },
            {
                "pitch": 0,
                "velocity": 0,
                "duration": 0.0159,
                "tempo": 0
            },
            {
                "pitch": 72,
                "velocity": 12,
                "duration": 0.1841,
                "tempo": 120.0
            },
            {
                "pitch": 0,
                "velocity": 0,
                "duration": 0.0159,
                "tempo": 0
            },
            {
                "pitch": 67,
                "velocity": 12,
                "duration": 0.1841,
                "tempo": 120.0
            },
            {
                "pitch": 0,
                "velocity": 0,
                "duration": 0.0159,
                "tempo": 0
            },
            {
                "pitch": 76,
                "velocity": 12,
                "duration": 0.1841,
                "tempo": 120.0
            },
            {
                "pitch": 0,
                "velocity": 0,
                "duration": 0.0182,
                "tempo": 0
            },
            {
                "pitch": 72,
                "velocity": 12,
                "duration": 0.1841,
                "tempo": 120.0
            },
            {
                "pitch": 0,
                "velocity": 0,
                "duration": 0.0159,
                "tempo": 0
            },
            {
                "pitch": 67,
                "velocity": 12,
                "duration": 0.1795,
                "tempo": 120.0
            },
            {
                "pitch": 0,
                "velocity": 0,
                "duration": 0.0182,
                "tempo": 0
            },
            {
                "pitch": 72,
                "velocity": 12,
                "duration": 0.1795,
                "tempo": 120.0
            },
            {
                "pitch": 0,
                "velocity": 0,
                "duration": 0.0159,
                "tempo": 0
            },
            {
                "pitch": 70,
                "velocity": 12,
                "duration": 0.1841,
                "tempo": 120.0
            },
            {
                "pitch": 0,
                "velocity": 0,
                "duration": 0.0159,
                "tempo": 0
            },
            {
                "pitch": 67,
                "velocity": 12,
                "duration": 0.1864,
                "tempo": 120.0
            },
            {
                "pitch": 0,
                "velocity": 0,
                "duration": 0.0159,
                "tempo": 0
            },
            {
                "pitch": 70,
                "velocity": 12,
                "duration": 0.1886,
                "tempo": 120.0
            },
            {
                "pitch": 0,
                "velocity": 0,
                "duration": 0.0159,
                "tempo": 0
            },
            {
                "pitch": 72,
                "velocity": 12,
                "duration": 0.1886,
                "tempo": 120.0
            },
            {
                "pitch": 0,
                "velocity": 0,
                "duration": 0.0182,
                "tempo": 0
            },
            {
                "pitch": 67,
                "velocity": 12,
                "duration": 0.1795,
                "tempo": 120.0
            },
            {
                "pitch": 0,
                "velocity": 0,
                "duration": 0.0159,
                "tempo": 0
            },
            {
                "pitch": 70,
                "velocity": 12,
                "duration": 0.1795,
                "tempo": 120.0
            },
            {
                "pitch": 0,
                "velocity": 0,
                "duration": 0.0159,
                "tempo": 0
            },
            {
                "pitch": 72,
                "velocity": 12,
                "duration": 0.1841,
                "tempo": 120.0
            },
            {
                "pitch": 0,
                "velocity": 0,
                "duration": 0.0159,
                "tempo": 0
            },
            {
                "pitch": 67,
                "velocity": 12,
                "duration": 0.1841,
                "tempo": 120.0
            },
            {
                "pitch": 0,
                "velocity": 0,
                "duration": 0.0159,
                "tempo": 0
            },
            {
                "pitch": 70,
                "velocity": 12,
                "duration": 0.1841,
                "tempo": 120.0
            },
            {
                "pitch": 0,
                "velocity": 0,
                "duration": 0.0159,
                "tempo": 0
            },
            {
                "pitch": 72,
                "velocity": 12,
                "duration": 0.1841,
                "tempo": 120.0
            },
            {
                "pitch": 0,
                "velocity": 0,
                "duration": 0.0159,
                "tempo": 0
            },
            {
                "pitch": 67,
                "velocity": 12,
                "duration": 0.1864,
                "tempo": 120.0
            },
            {
                "pitch": 0,
                "velocity": 0,
                "duration": 0.0159,
                "tempo": 0
            },
            {
                "pitch": 67,
                "velocity": 12,
                "duration": 0.1841,
                "tempo": 120.0
            },
            {
                "pitch": 0,
                "velocity": 0,
                "duration": 0.0159,
                "tempo": 0
            },
            {
                "pitch": 76,
                "velocity": 12,
                "duration": 0.1841,
                "tempo": 120.0
            },
            {
                "pitch": 0,
                "velocity": 0,
                "duration": 0.0159,
                "tempo": 0
            },
            {
                "pitch": 72,
                "velocity": 12,
                "duration": 0.1841,
                "tempo": 120.0
            },
            {
                "pitch": 0,
                "velocity": 0,
                "duration": 0.0159,
                "tempo": 0
            },
            {
                "pitch": 67,
                "velocity": 12,
                "duration": 0.1886,
                "tempo": 120.0
            },
            {
                "pitch": 0,
                "velocity": 0,
                "duration": 0.0182,
                "tempo": 0
            },
            {
                "pitch": 72,
                "velocity": 12,
                "duration": 0.1886,
                "tempo": 120.0
            },
            {
                "pitch": 0,
                "velocity": 0,
                "duration": 0.0159,
                "tempo": 0
            },
            {
                "pitch": 70,
                "velocity": 12,
                "duration": 0.1841,
                "tempo": 120.0
            },
            {
                "pitch": 0,
                "velocity": 0,
                "duration": 0.0182,
                "tempo": 0
            },
            {
                "pitch": 67,
                "velocity": 12,
                "duration": 0.1841,
                "tempo": 120.0
            },
            {
                "pitch": 0,
                "velocity": 0,
                "duration": 0.0159,
                "tempo": 0
            },
            {
                "pitch": 72,
                "velocity": 12,
                "duration": 0.1841,
                "tempo": 120.0
            },
            {
                "pitch": 0,
                "velocity": 0,
                "duration": 0.0159,
                "tempo": 0
            },
            {
                "pitch": 67,
                "velocity": 12,
                "duration": 0.1841,
                "tempo": 120.0
            },
            {
                "pitch": 0,
                "velocity": 0,
                "duration": 0.0159,
                "tempo": 0
            },
            {
                "pitch": 76,
                "velocity": 12,
                "duration": 0.1841,
                "tempo": 120.0
            },
            {
                "pitch": 0,
                "velocity": 0,
                "duration": 0.0159,
                "tempo": 0
            },
            {
                "pitch": 72,
                "velocity": 12,
                "duration": 0.1841,
                "tempo": 120.0
            },
            {
                "pitch": 0,
                "velocity": 0,
                "duration": 0.0159,
                "tempo": 0
            },
            {
                "pitch": 67,
                "velocity": 12,
                "duration": 0.1864,
                "tempo": 120.0
            },
            {
                "pitch": 0,
                "velocity": 0,
                "duration": 0.0159,
                "tempo": 0
            },
            {
                "pitch": 72,
                "velocity": 12,
                "duration": 0.1841,
                "tempo": 120.0
            },
            {
                "pitch": 0,
                "velocity": 0,
                "duration": 0.0182,
                "tempo": 0
            },
            {
                "pitch": 70,
                "velocity": 12,
                "duration": 0.1795,
                "tempo": 120.0
            },
            {
                "pitch": 0,
                "velocity": 0,
                "duration": 0.0159,
                "tempo": 0
            },
            {
                "pitch": 67,
                "velocity": 12,
                "duration": 0.1795,
                "tempo": 120.0
            },
            {
                "pitch": 0,
                "velocity": 0,
                "duration": 0.0159,
                "tempo": 0
            },
            {
                "pitch": 72,
                "velocity": 12,
                "duration": 0.1841,
                "tempo": 120.0
            },
            {
                "pitch": 0,
                "velocity": 0,
                "duration": 0.0159,
                "tempo": 0
            },
            {
                "pitch": 67,
                "velocity": 12,
                "duration": 0.1841,
                "tempo": 120.0
            },
            {
                "pitch": 0,
                "velocity": 0,
                "duration": 0.0159,
                "tempo": 0
            },
            {
                "pitch": 76,
                "velocity": 12,
                "duration": 0.1886,
                "tempo": 120.0
            },
            {
                "pitch": 0,
                "velocity": 0,
                "duration": 0.0182,
                "tempo": 0
            },
            {
                "pitch": 67,
                "velocity": 12,
                "duration": 0.1864,
                "tempo": 120.0
            },
            {
                "pitch": 0,
                "velocity": 0,
                "duration": 0.0182,
                "tempo": 0
            },
            {
                "pitch": 72,
                "velocity": 12,
                "duration": 0.1841,
                "tempo": 120.0
            },
            {
                "pitch": 0,
                "velocity": 0,
                "duration": 0.0159,
                "tempo": 0
            },
            {
                "pitch": 67,
                "velocity": 12,
                "duration": 0.1841,
                "tempo": 120.0
            },
            {
                "pitch": 0,
                "velocity": 0,
                "duration": 0.0159,
                "tempo": 0
            },
            {
                "pitch": 70,
                "velocity": 12,
                "duration": 0.1795,
                "tempo": 120.0
            },
            {
                "pitch": 0,
                "velocity": 0,
                "duration": 0.0159,
                "tempo": 0
            },
            {
                "pitch": 72,
                "velocity": 12,
                "duration": 0.1795,
                "tempo": 120.0
            },
            {
                "pitch": 0,
                "velocity": 0,
                "duration": 0.0182,
                "tempo": 0
            },
            {
                "pitch": 67,
                "velocity": 12,
                "duration": 0.1864,
                "tempo": 120.0
            },
            {
                "pitch": 0,
                "velocity": 0,
                "duration": 0.0182,
                "tempo": 0
            },
            {
                "pitch": 76,
                "velocity": 12,
                "duration": 0.1886,
                "tempo": 120.0
            },
            {
                "pitch": 0,
                "velocity": 0,
                "duration": 0.0159,
                "tempo": 0
            },
            {
                "pitch": 76,
                "velocity": 12,
                "duration": 0.1841,
                "tempo": 120.0
            },
            {
                "pitch": 0,
                "velocity": 0,
                "duration": 0.0182,
                "tempo": 0
            },
            {
                "pitch": 76,
                "velocity": 12,
                "duration": 0.1841,
                "tempo": 120.0
            },
            {
                "pitch": 0,
                "velocity": 0,
                "duration": 0.0159,
                "tempo": 0
            },
            {
                "pitch": 76,
                "velocity": 12,
                "duration": 0.1795,
                "tempo": 120.0
            },
            {
                "pitch": 0,
                "velocity": 0,
                "duration": 0.0182,
                "tempo": 0
            },
            {
                "pitch": 76,
                "velocity": 12,
                "duration": 0.1795,
                "tempo": 120.0
            },
            {
                "pitch": 0,
                "velocity": 0,
                "duration": 0.0159,
                "tempo": 0
            },
            {
                "pitch": 76,
                "velocity": 12,
                "duration": 0.1795,
                "tempo": 120.0
            },
            {
                "pitch": 0,
                "velocity": 0,
                "duration": 0.0159,
                "tempo": 0
            },
            {
                "pitch": 76,
                "velocity": 12,
                "duration": 0.1795,
                "tempo": 120.0
            },
            {
                "pitch": 0,
                "velocity": 0,
                "duration": 0.0182,
                "tempo": 0
            },
            {
                "pitch": 76,
                "velocity": 12,
                "duration": 0.1841,
                "tempo": 120.0
            }
        ],
        "Synth Bass 1": [
            {
                "pitch": 36,
                "velocity": 1,
                "duration": 0.1659,
                "tempo": 120.0
            },
            {
                "pitch": 0,
                "velocity": 0,
                "duration": 0.0182,
                "tempo": 0
            },
            {
                "pitch": 36,
                "velocity": 1,
                "duration": 0.1818,
                "tempo": 120.0
            },
            {
                "pitch": 0,
                "velocity": 0,
                "duration": 0.0182,
                "tempo": 0
            },
            {
                "pitch": 40,
                "velocity": 1,
                "duration": 0.1818,
                "tempo": 120.0
            },
            {
                "pitch": 0,
                "velocity": 0,
                "duration": 0.0182,
                "tempo": 0
            },
            {
                "pitch": 43,
                "velocity": 1,
                "duration": 0.1818,
                "tempo": 120.0
            },
            {
                "pitch": 0,
                "velocity": 0,
                "duration": 0.0182,
                "tempo": 0
            },
            {
                "pitch": 46,
                "velocity": 1,
                "duration": 0.1818,
                "tempo": 120.0
            },
            {
                "pitch": 0,
                "velocity": 0,
                "duration": 0.0182,
                "tempo": 0
            },
            {
                "pitch": 46,
                "velocity": 1,
                "duration": 0.1864,
                "tempo": 120.0
            },
            {
                "pitch": 0,
                "velocity": 0,
                "duration": 0.0182,
                "tempo": 0
            },
            {
                "pitch": 45,
                "velocity": 1,
                "duration": 0.1886,
                "tempo": 120.0
            },
            {
                "pitch": 0,
                "velocity": 0,
                "duration": 0.0159,
                "tempo": 0
            },
            {
                "pitch": 43,
                "velocity": 1,
                "duration": 0.1841,
                "tempo": 120.0
            },
            {
                "pitch": 0,
                "velocity": 0,
                "duration": 0.0159,
                "tempo": 0
            },
            {
                "pitch": 36,
                "velocity": 1,
                "duration": 0.1841,
                "tempo": 120.0
            },
            {
                "pitch": 0,
                "velocity": 0,
                "duration": 0.0159,
                "tempo": 0
            },
            {
                "pitch": 36,
                "velocity": 1,
                "duration": 0.1864,
                "tempo": 120.0
            },
            {
                "pitch": 0,
                "velocity": 0,
                "duration": 0.0159,
                "tempo": 0
            },
            {
                "pitch": 40,
                "velocity": 1,
                "duration": 0.1841,
                "tempo": 120.0
            },
            {
                "pitch": 0,
                "velocity": 0,
                "duration": 0.0182,
                "tempo": 0
            },
            {
                "pitch": 43,
                "velocity": 1,
                "duration": 0.3818,
                "tempo": 120.0
            },
            {
                "pitch": 0,
                "velocity": 0,
                "duration": 0.0182,
                "tempo": 0
            },
            {
                "pitch": 34,
                "velocity": 1,
                "duration": 0.1818,
                "tempo": 120.0
            },
            {
                "pitch": 0,
                "velocity": 0,
                "duration": 0.0182,
                "tempo": 0
            },
            {
                "pitch": 35,
                "velocity": 1,
                "duration": 0.1818,
                "tempo": 120.0
            },
            {
                "pitch": 0,
                "velocity": 0,
                "duration": 0.0182,
                "tempo": 0
            },
            {
                "pitch": 36,
                "velocity": 1,
                "duration": 0.1841,
                "tempo": 120.0
            },
            {
                "pitch": 0,
                "velocity": 0,
                "duration": 0.0159,
                "tempo": 0
            },
            {
                "pitch": 36,
                "velocity": 1,
                "duration": 0.1841,
                "tempo": 120.0
            },
            {
                "pitch": 0,
                "velocity": 0,
                "duration": 0.0182,
                "tempo": 0
            },
            {
                "pitch": 36,
                "velocity": 1,
                "duration": 0.1795,
                "tempo": 120.0
            },
            {
                "pitch": 0,
                "velocity": 0,
                "duration": 0.0159,
                "tempo": 0
            },
            {
                "pitch": 40,
                "velocity": 1,
                "duration": 0.1795,
                "tempo": 120.0
            },
            {
                "pitch": 0,
                "velocity": 0,
                "duration": 0.0159,
                "tempo": 0
            },
            {
                "pitch": 43,
                "velocity": 1,
                "duration": 0.1886,
                "tempo": 120.0
            },
            {
                "pitch": 0,
                "velocity": 0,
                "duration": 0.0182,
                "tempo": 0
            },
            {
                "pitch": 46,
                "velocity": 1,
                "duration": 0.1864,
                "tempo": 120.0
            },
            {
                "pitch": 0,
                "velocity": 0,
                "duration": 0.0182,
                "tempo": 0
            },
            {
                "pitch": 46,
                "velocity": 1,
                "duration": 0.1795,
                "tempo": 120.0
            },
            {
                "pitch": 0,
                "velocity": 0,
                "duration": 0.0159,
                "tempo": 0
            },
            {
                "pitch": 45,
                "velocity": 1,
                "duration": 0.1795,
                "tempo": 120.0
            },
            {
                "pitch": 0,
                "velocity": 0,
                "duration": 0.0182,
                "tempo": 0
            },
            {
                "pitch": 43,
                "velocity": 1,
                "duration": 0.3841,
                "tempo": 120.0
            },
            {
                "pitch": 0,
                "velocity": 0,
                "duration": 0.0182,
                "tempo": 0
            },
            {
                "pitch": 48,
                "velocity": 1,
                "duration": 0.1841,
                "tempo": 120.0
            },
            {
                "pitch": 0,
                "velocity": 0,
                "duration": 0.0159,
                "tempo": 0
            },
            {
                "pitch": 48,
                "velocity": 1,
                "duration": 0.1864,
                "tempo": 120.0
            },
            {
                "pitch": 0,
                "velocity": 0,
                "duration": 0.0159,
                "tempo": 0
            },
            {
                "pitch": 48,
                "velocity": 1,
                "duration": 0.1841,
                "tempo": 120.0
            },
            {
                "pitch": 0,
                "velocity": 0,
                "duration": 0.0159,
                "tempo": 0
            },
            {
                "pitch": 48,
                "velocity": 1,
                "duration": 0.1841,
                "tempo": 120.0
            },
            {
                "pitch": 0,
                "velocity": 0,
                "duration": 0.0159,
                "tempo": 0
            },
            {
                "pitch": 46,
                "velocity": 1,
                "duration": 0.1841,
                "tempo": 120.0
            },
            {
                "pitch": 0,
                "velocity": 0,
                "duration": 0.0159,
                "tempo": 0
            },
            {
                "pitch": 45,
                "velocity": 1,
                "duration": 0.1864,
                "tempo": 120.0
            },
            {
                "pitch": 0,
                "velocity": 0,
                "duration": 0.0159,
                "tempo": 0
            },
            {
                "pitch": 43,
                "velocity": 1,
                "duration": 0.1841,
                "tempo": 120.0
            },
            {
                "pitch": 0,
                "velocity": 0,
                "duration": 0.0159,
                "tempo": 0
            },
            {
                "pitch": 36,
                "velocity": 1,
                "duration": 0.1841,
                "tempo": 120.0
            },
            {
                "pitch": 0,
                "velocity": 0,
                "duration": 0.0159,
                "tempo": 0
            },
            {
                "pitch": 36,
                "velocity": 1,
                "duration": 0.1841,
                "tempo": 120.0
            },
            {
                "pitch": 0,
                "velocity": 0,
                "duration": 0.0182,
                "tempo": 0
            },
            {
                "pitch": 40,
                "velocity": 1,
                "duration": 0.1841,
                "tempo": 120.0
            },
            {
                "pitch": 0,
                "velocity": 0,
                "duration": 0.0159,
                "tempo": 0
            },
            {
                "pitch": 43,
                "velocity": 1,
                "duration": 0.1886,
                "tempo": 120.0
            },
            {
                "pitch": 0,
                "velocity": 0,
                "duration": 0.0182,
                "tempo": 0
            },
            {
                "pitch": 46,
                "velocity": 1,
                "duration": 0.1886,
                "tempo": 120.0
            },
            {
                "pitch": 0,
                "velocity": 0,
                "duration": 0.0159,
                "tempo": 0
            },
            {
                "pitch": 46,
                "velocity": 1,
                "duration": 0.1841,
                "tempo": 120.0
            },
            {
                "pitch": 0,
                "velocity": 0,
                "duration": 0.0159,
                "tempo": 0
            },
            {
                "pitch": 45,
                "velocity": 1,
                "duration": 0.1841,
                "tempo": 120.0
            },
            {
                "pitch": 0,
                "velocity": 0,
                "duration": 0.0159,
                "tempo": 0
            },
            {
                "pitch": 43,
                "velocity": 1,
                "duration": 0.1795,
                "tempo": 120.0
            },
            {
                "pitch": 0,
                "velocity": 0,
                "duration": 0.0159,
                "tempo": 0
            },
            {
                "pitch": 36,
                "velocity": 1,
                "duration": 0.1795,
                "tempo": 120.0
            },
            {
                "pitch": 0,
                "velocity": 0,
                "duration": 0.0182,
                "tempo": 0
            },
            {
                "pitch": 36,
                "velocity": 1,
                "duration": 0.1818,
                "tempo": 120.0
            },
            {
                "pitch": 0,
                "velocity": 0,
                "duration": 0.0182,
                "tempo": 0
            },
            {
                "pitch": 40,
                "velocity": 1,
                "duration": 0.1818,
                "tempo": 120.0
            },
            {
                "pitch": 0,
                "velocity": 0,
                "duration": 0.0182,
                "tempo": 0
            },
            {
                "pitch": 43,
                "velocity": 1,
                "duration": 0.3932,
                "tempo": 120.0
            },
            {
                "pitch": 0,
                "velocity": 0,
                "duration": 0.0159,
                "tempo": 0
            },
            {
                "pitch": 34,
                "velocity": 1,
                "duration": 0.1795,
                "tempo": 120.0
            },
            {
                "pitch": 0,
                "velocity": 0,
                "duration": 0.0182,
                "tempo": 0
            },
            {
                "pitch": 35,
                "velocity": 1,
                "duration": 0.1795,
                "tempo": 120.0
            },
            {
                "pitch": 0,
                "velocity": 0,
                "duration": 0.0159,
                "tempo": 0
            },
            {
                "pitch": 36,
                "velocity": 1,
                "duration": 0.1841,
                "tempo": 120.0
            },
            {
                "pitch": 0,
                "velocity": 0,
                "duration": 0.0182,
                "tempo": 0
            },
            {
                "pitch": 36,
                "velocity": 1,
                "duration": 0.1841,
                "tempo": 120.0
            },
            {
                "pitch": 0,
                "velocity": 0,
                "duration": 0.0159,
                "tempo": 0
            },
            {
                "pitch": 36,
                "velocity": 1,
                "duration": 0.1886,
                "tempo": 120.0
            },
            {
                "pitch": 0,
                "velocity": 0,
                "duration": 0.0159,
                "tempo": 0
            },
            {
                "pitch": 40,
                "velocity": 1,
                "duration": 0.1886,
                "tempo": 120.0
            },
            {
                "pitch": 0,
                "velocity": 0,
                "duration": 0.0182,
                "tempo": 0
            },
            {
                "pitch": 43,
                "velocity": 1,
                "duration": 0.1841,
                "tempo": 120.0
            },
            {
                "pitch": 0,
                "velocity": 0,
                "duration": 0.0182,
                "tempo": 0
            },
            {
                "pitch": 46,
                "velocity": 1,
                "duration": 0.1841,
                "tempo": 120.0
            },
            {
                "pitch": 0,
                "velocity": 0,
                "duration": 0.0159,
                "tempo": 0
            },
            {
                "pitch": 46,
                "velocity": 1,
                "duration": 0.1795,
                "tempo": 120.0
            },
            {
                "pitch": 0,
                "velocity": 0,
                "duration": 0.0159,
                "tempo": 0
            },
            {
                "pitch": 45,
                "velocity": 1,
                "duration": 0.1795,
                "tempo": 120.0
            },
            {
                "pitch": 0,
                "velocity": 0,
                "duration": 0.0182,
                "tempo": 0
            },
            {
                "pitch": 43,
                "velocity": 1,
                "duration": 0.3841,
                "tempo": 120.0
            },
            {
                "pitch": 0,
                "velocity": 0,
                "duration": 0.0182,
                "tempo": 0
            },
            {
                "pitch": 48,
                "velocity": 1,
                "duration": 0.3864,
                "tempo": 120.0
            },
            {
                "pitch": 0,
                "velocity": 0,
                "duration": 0.0159,
                "tempo": 0
            },
            {
                "pitch": 48,
                "velocity": 1,
                "duration": 0.3841,
                "tempo": 120.0
            },
            {
                "pitch": 0,
                "velocity": 0,
                "duration": 0.0159,
                "tempo": 0
            },
            {
                "pitch": 48,
                "velocity": 1,
                "duration": 0.1841,
                "tempo": 120.0
            },
            {
                "pitch": 0,
                "velocity": 0,
                "duration": 0.0182,
                "tempo": 0
            },
            {
                "pitch": 48,
                "velocity": 1,
                "duration": 0.3841,
                "tempo": 120.0
            },
            {
                "pitch": 0,
                "velocity": 0,
                "duration": 0.0182,
                "tempo": 0
            },
            {
                "pitch": 36,
                "velocity": 1,
                "duration": 0.1841,
                "tempo": 120.0
            },
            {
                "pitch": 0,
                "velocity": 0,
                "duration": 0.0159,
                "tempo": 0
            },
            {
                "pitch": 36,
                "velocity": 1,
                "duration": 0.1886,
                "tempo": 120.0
            },
            {
                "pitch": 0,
                "velocity": 0,
                "duration": 0.0182,
                "tempo": 0
            },
            {
                "pitch": 40,
                "velocity": 1,
                "duration": 0.1886,
                "tempo": 120.0
            },
            {
                "pitch": 0,
                "velocity": 0,
                "duration": 0.0159,
                "tempo": 0
            },
            {
                "pitch": 43,
                "velocity": 1,
                "duration": 0.1841,
                "tempo": 120.0
            },
            {
                "pitch": 0,
                "velocity": 0,
                "duration": 0.0182,
                "tempo": 0
            },
            {
                "pitch": 46,
                "velocity": 1,
                "duration": 0.1841,
                "tempo": 120.0
            },
            {
                "pitch": 0,
                "velocity": 0,
                "duration": 0.0159,
                "tempo": 0
            },
            {
                "pitch": 46,
                "velocity": 1,
                "duration": 0.1841,
                "tempo": 120.0
            },
            {
                "pitch": 0,
                "velocity": 0,
                "duration": 0.0159,
                "tempo": 0
            },
            {
                "pitch": 45,
                "velocity": 1,
                "duration": 0.1841,
                "tempo": 120.0
            },
            {
                "pitch": 0,
                "velocity": 0,
                "duration": 0.0159,
                "tempo": 0
            },
            {
                "pitch": 43,
                "velocity": 1,
                "duration": 0.1864,
                "tempo": 120.0
            },
            {
                "pitch": 0,
                "velocity": 0,
                "duration": 0.0159,
                "tempo": 0
            },
            {
                "pitch": 36,
                "velocity": 1,
                "duration": 0.1841,
                "tempo": 120.0
            },
            {
                "pitch": 0,
                "velocity": 0,
                "duration": 0.0182,
                "tempo": 0
            },
            {
                "pitch": 36,
                "velocity": 1,
                "duration": 0.1841,
                "tempo": 120.0
            },
            {
                "pitch": 0,
                "velocity": 0,
                "duration": 0.0159,
                "tempo": 0
            },
            {
                "pitch": 40,
                "velocity": 1,
                "duration": 0.1841,
                "tempo": 120.0
            },
            {
                "pitch": 0,
                "velocity": 0,
                "duration": 0.0182,
                "tempo": 0
            },
            {
                "pitch": 43,
                "velocity": 1,
                "duration": 0.3864,
                "tempo": 120.0
            },
            {
                "pitch": 0,
                "velocity": 0,
                "duration": 0.0159,
                "tempo": 0
            },
            {
                "pitch": 34,
                "velocity": 1,
                "duration": 0.1841,
                "tempo": 120.0
            },
            {
                "pitch": 0,
                "velocity": 0,
                "duration": 0.0182,
                "tempo": 0
            },
            {
                "pitch": 35,
                "velocity": 1,
                "duration": 0.1841,
                "tempo": 120.0
            },
            {
                "pitch": 0,
                "velocity": 0,
                "duration": 0.0159,
                "tempo": 0
            },
            {
                "pitch": 36,
                "velocity": 1,
                "duration": 0.1841,
                "tempo": 120.0
            },
            {
                "pitch": 0,
                "velocity": 0,
                "duration": 0.0159,
                "tempo": 0
            },
            {
                "pitch": 36,
                "velocity": 1,
                "duration": 0.1841,
                "tempo": 120.0
            },
            {
                "pitch": 0,
                "velocity": 0,
                "duration": 0.0159,
                "tempo": 0
            },
            {
                "pitch": 36,
                "velocity": 1,
                "duration": 0.1841,
                "tempo": 120.0
            },
            {
                "pitch": 0,
                "velocity": 0,
                "duration": 0.0182,
                "tempo": 0
            },
            {
                "pitch": 40,
                "velocity": 1,
                "duration": 0.1841,
                "tempo": 120.0
            },
            {
                "pitch": 0,
                "velocity": 0,
                "duration": 0.0159,
                "tempo": 0
            },
            {
                "pitch": 43,
                "velocity": 1,
                "duration": 0.1795,
                "tempo": 120.0
            },
            {
                "pitch": 0,
                "velocity": 0,
                "duration": 0.0182,
                "tempo": 0
            },
            {
                "pitch": 46,
                "velocity": 1,
                "duration": 0.1795,
                "tempo": 120.0
            },
            {
                "pitch": 0,
                "velocity": 0,
                "duration": 0.0159,
                "tempo": 0
            },
            {
                "pitch": 46,
                "velocity": 1,
                "duration": 0.1841,
                "tempo": 120.0
            },
            {
                "pitch": 0,
                "velocity": 0,
                "duration": 0.0159,
                "tempo": 0
            },
            {
                "pitch": 45,
                "velocity": 1,
                "duration": 0.1864,
                "tempo": 120.0
            },
            {
                "pitch": 0,
                "velocity": 0,
                "duration": 0.0159,
                "tempo": 0
            },
            {
                "pitch": 43,
                "velocity": 1,
                "duration": 0.3932,
                "tempo": 120.0
            },
            {
                "pitch": 0,
                "velocity": 0,
                "duration": 0.0182,
                "tempo": 0
            },
            {
                "pitch": 48,
                "velocity": 1,
                "duration": 0.1795,
                "tempo": 120.0
            },
            {
                "pitch": 0,
                "velocity": 0,
                "duration": 0.0159,
                "tempo": 0
            },
            {
                "pitch": 48,
                "velocity": 1,
                "duration": 0.1795,
                "tempo": 120.0
            },
            {
                "pitch": 0,
                "velocity": 0,
                "duration": 0.0159,
                "tempo": 0
            },
            {
                "pitch": 48,
                "velocity": 1,
                "duration": 0.1841,
                "tempo": 120.0
            },
            {
                "pitch": 0,
                "velocity": 0,
                "duration": 0.0159,
                "tempo": 0
            },
            {
                "pitch": 48,
                "velocity": 1,
                "duration": 0.1841,
                "tempo": 120.0
            },
            {
                "pitch": 0,
                "velocity": 0,
                "duration": 0.0159,
                "tempo": 0
            },
            {
                "pitch": 46,
                "velocity": 1,
                "duration": 0.1841,
                "tempo": 120.0
            },
            {
                "pitch": 0,
                "velocity": 0,
                "duration": 0.0159,
                "tempo": 0
            },
            {
                "pitch": 45,
                "velocity": 1,
                "duration": 0.1841,
                "tempo": 120.0
            },
            {
                "pitch": 0,
                "velocity": 0,
                "duration": 0.0159,
                "tempo": 0
            },
            {
                "pitch": 43,
                "velocity": 1,
                "duration": 0.1864,
                "tempo": 120.0
            },
            {
                "pitch": 0,
                "velocity": 0,
                "duration": 0.0159,
                "tempo": 0
            },
            {
                "pitch": 36,
                "velocity": 1,
                "duration": 0.1841,
                "tempo": 120.0
            },
            {
                "pitch": 0,
                "velocity": 0,
                "duration": 0.0159,
                "tempo": 0
            },
            {
                "pitch": 36,
                "velocity": 1,
                "duration": 0.1841,
                "tempo": 120.0
            },
            {
                "pitch": 0,
                "velocity": 0,
                "duration": 0.0159,
                "tempo": 0
            },
            {
                "pitch": 40,
                "velocity": 1,
                "duration": 0.1841,
                "tempo": 120.0
            },
            {
                "pitch": 0,
                "velocity": 0,
                "duration": 0.0159,
                "tempo": 0
            },
            {
                "pitch": 43,
                "velocity": 1,
                "duration": 0.1886,
                "tempo": 120.0
            },
            {
                "pitch": 0,
                "velocity": 0,
                "duration": 0.0182,
                "tempo": 0
            },
            {
                "pitch": 46,
                "velocity": 1,
                "duration": 0.1886,
                "tempo": 120.0
            },
            {
                "pitch": 0,
                "velocity": 0,
                "duration": 0.0159,
                "tempo": 0
            },
            {
                "pitch": 46,
                "velocity": 1,
                "duration": 0.1841,
                "tempo": 120.0
            },
            {
                "pitch": 0,
                "velocity": 0,
                "duration": 0.0182,
                "tempo": 0
            },
            {
                "pitch": 45,
                "velocity": 1,
                "duration": 0.1841,
                "tempo": 120.0
            },
            {
                "pitch": 0,
                "velocity": 0,
                "duration": 0.0159,
                "tempo": 0
            },
            {
                "pitch": 43,
                "velocity": 1,
                "duration": 0.1841,
                "tempo": 120.0
            },
            {
                "pitch": 0,
                "velocity": 0,
                "duration": 0.0159,
                "tempo": 0
            },
            {
                "pitch": 36,
                "velocity": 1,
                "duration": 0.1841,
                "tempo": 120.0
            },
            {
                "pitch": 0,
                "velocity": 0,
                "duration": 0.0159,
                "tempo": 0
            },
            {
                "pitch": 36,
                "velocity": 1,
                "duration": 0.1841,
                "tempo": 120.0
            },
            {
                "pitch": 0,
                "velocity": 0,
                "duration": 0.0159,
                "tempo": 0
            },
            {
                "pitch": 40,
                "velocity": 1,
                "duration": 0.1841,
                "tempo": 120.0
            },
            {
                "pitch": 0,
                "velocity": 0,
                "duration": 0.0159,
                "tempo": 0
            },
            {
                "pitch": 43,
                "velocity": 1,
                "duration": 0.3864,
                "tempo": 120.0
            },
            {
                "pitch": 0,
                "velocity": 0,
                "duration": 0.0182,
                "tempo": 0
            },
            {
                "pitch": 34,
                "velocity": 1,
                "duration": 0.1795,
                "tempo": 120.0
            },
            {
                "pitch": 0,
                "velocity": 0,
                "duration": 0.0159,
                "tempo": 0
            },
            {
                "pitch": 35,
                "velocity": 1,
                "duration": 0.1795,
                "tempo": 120.0
            },
            {
                "pitch": 0,
                "velocity": 0,
                "duration": 0.0159,
                "tempo": 0
            },
            {
                "pitch": 36,
                "velocity": 1,
                "duration": 0.1841,
                "tempo": 120.0
            },
            {
                "pitch": 0,
                "velocity": 0,
                "duration": 0.0159,
                "tempo": 0
            },
            {
                "pitch": 36,
                "velocity": 1,
                "duration": 0.1841,
                "tempo": 120.0
            },
            {
                "pitch": 0,
                "velocity": 0,
                "duration": 0.0159,
                "tempo": 0
            },
            {
                "pitch": 36,
                "velocity": 1,
                "duration": 0.1886,
                "tempo": 120.0
            },
            {
                "pitch": 0,
                "velocity": 0,
                "duration": 0.0182,
                "tempo": 0
            },
            {
                "pitch": 40,
                "velocity": 1,
                "duration": 0.1864,
                "tempo": 120.0
            },
            {
                "pitch": 0,
                "velocity": 0,
                "duration": 0.0182,
                "tempo": 0
            },
            {
                "pitch": 43,
                "velocity": 1,
                "duration": 0.1841,
                "tempo": 120.0
            },
            {
                "pitch": 0,
                "velocity": 0,
                "duration": 0.0159,
                "tempo": 0
            },
            {
                "pitch": 46,
                "velocity": 1,
                "duration": 0.1841,
                "tempo": 120.0
            },
            {
                "pitch": 0,
                "velocity": 0,
                "duration": 0.0159,
                "tempo": 0
            },
            {
                "pitch": 46,
                "velocity": 1,
                "duration": 0.1795,
                "tempo": 120.0
            },
            {
                "pitch": 0,
                "velocity": 0,
                "duration": 0.0159,
                "tempo": 0
            },
            {
                "pitch": 45,
                "velocity": 1,
                "duration": 0.1795,
                "tempo": 120.0
            },
            {
                "pitch": 0,
                "velocity": 0,
                "duration": 0.0182,
                "tempo": 0
            },
            {
                "pitch": 43,
                "velocity": 1,
                "duration": 0.3932,
                "tempo": 120.0
            },
            {
                "pitch": 0,
                "velocity": 0,
                "duration": 0.0159,
                "tempo": 0
            },
            {
                "pitch": 48,
                "velocity": 1,
                "duration": 0.3864,
                "tempo": 120.0
            },
            {
                "pitch": 0,
                "velocity": 0,
                "duration": 0.0159,
                "tempo": 0
            },
            {
                "pitch": 48,
                "velocity": 1,
                "duration": 0.3773,
                "tempo": 120.0
            },
            {
                "pitch": 0,
                "velocity": 0,
                "duration": 0.0159,
                "tempo": 0
            },
            {
                "pitch": 48,
                "velocity": 1,
                "duration": 0.1795,
                "tempo": 120.0
            },
            {
                "pitch": 0,
                "velocity": 0,
                "duration": 0.0159,
                "tempo": 0
            },
            {
                "pitch": 48,
                "velocity": 1,
                "duration": 0.3818,
                "tempo": 120.0
            }
        ],
        "Acoustic Grand Piano": [
            {
                "pitch": 0,
                "velocity": 0,
                "duration": 25.6523,
                "tempo": 0
            },
            {
                "pitch": 108,
                "velocity": 15,
                "duration": 0.1,
                "tempo": 120.0
            }
        ]
    }
}