{
    "track_id": "02 Title_15",
    "mood": "happy",
    "instruments": {
        "Lead 1 (square)": [
            {
                "pitch": 0,
                "velocity": 0,
                "duration": 0.0023,
                "tempo": 0
            },
            {
                "pitch": 72,
                "velocity": 10,
                "duration": 0.0114,
                "tempo": 120.0
            },
            {
                "pitch": 0,
                "velocity": 0,
                "duration": 0.0795,
                "tempo": 0
            },
            {
                "pitch": 72,
                "velocity": 10,
                "duration": 0.0273,
                "tempo": 120.0
            },
            {
                "pitch": 0,
                "velocity": 0,
                "duration": 0.0795,
                "tempo": 0
            },
            {
                "pitch": 70,
                "velocity": 10,
                "duration": 0.0136,
                "tempo": 120.0
            },
            {
                "pitch": 0,
                "velocity": 0,
                "duration": 0.0795,
                "tempo": 0
            },
            {
                "pitch": 72,
                "velocity": 10,
                "duration": 0.0273,
                "tempo": 120.0
            },
            {
                "pitch": 0,
                "velocity": 0,
                "duration": 0.5818,
                "tempo": 0
            },
            {
                "pitch": 67,
                "velocity": 10,
                "duration": 0.0159,
                "tempo": 120.0
            },
            {
                "pitch": 0,
                "velocity": 0,
                "duration": 0.1,
                "tempo": 0
            },
            {
                "pitch": 67,
                "velocity": 10,
                "duration": 0.0341,
                "tempo": 120.0
            },
            {
                "pitch": 0,
                "velocity": 0,
                "duration": 0.1,
                "tempo": 0
            },
            {
                "pitch": 65,
                "velocity": 10,
                "duration": 0.0159,
                "tempo": 120.0
            },
            {
                "pitch": 0,
                "velocity": 0,
                "duration": 0.1,
                "tempo": 0
            },
            {
                "pitch": 67,
                "velocity": 10,
                "duration": 0.0341,
                "tempo": 120.0
            },
            {
                "pitch": 0,
                "velocity": 0,
                "duration": 0.6,
                "tempo": 0
            },
            {
                "pitch": 63,
                "velocity": 10,
                "duration": 0.0182,
                "tempo": 120.0
            },
            {
                "pitch": 0,
                "velocity": 0,
                "duration": 0.1023,
                "tempo": 0
            },
            {
                "pitch": 63,
                "velocity": 10,
                "duration": 0.0341,
                "tempo": 120.0
            },
            {
                "pitch": 0,
                "velocity": 0,
                "duration": 0.1023,
                "tempo": 0
            },
            {
                "pitch": 62,
                "velocity": 10,
                "duration": 0.0159,
                "tempo": 120.0
            },
            {
                "pitch": 0,
                "velocity": 0,
                "duration": 0.1045,
                "tempo": 0
            },
            {
                "pitch": 63,
                "velocity": 10,
                "duration": 0.0341,
                "tempo": 120.0
            },
            {
                "pitch": 0,
                "velocity": 0,
                "duration": 0.5955,
                "tempo": 0
            },
            {
                "pitch": 60,
                "velocity": 10,
                "duration": 0.0159,
                "tempo": 120.0
            },
            {
                "pitch": 0,
                "velocity": 0,
                "duration": 0.1023,
                "tempo": 0
            },
            {
                "pitch": 60,
                "velocity": 10,
                "duration": 0.0341,
                "tempo": 120.0
            },
            {
                "pitch": 0,
                "velocity": 0,
                "duration": 0.1045,
                "tempo": 0
            },
            {
                "pitch": 58,
                "velocity": 10,
                "duration": 0.0159,
                "tempo": 120.0
            },
            {
                "pitch": 0,
                "velocity": 0,
                "duration": 0.1023,
                "tempo": 0
            },
            {
                "pitch": 60,
                "velocity": 10,
                "duration": 0.0341,
                "tempo": 120.0
            },
            {
                "pitch": 0,
                "velocity": 0,
                "duration": 0.6045,
                "tempo": 0
            },
            {
                "pitch": 72,
                "velocity": 10,
                "duration": 0.0159,
                "tempo": 120.0
            },
            {
                "pitch": 0,
                "velocity": 0,
                "duration": 0.1,
                "tempo": 0
            },
            {
                "pitch": 72,
                "velocity": 10,
                "duration": 0.0341,
                "tempo": 120.0
            },
            {
                "pitch": 0,
                "velocity": 0,
                "duration": 0.1,
                "tempo": 0
            },
            {
                "pitch": 70,
                "velocity": 10,
                "duration": 0.0159,
                "tempo": 120.0
            },
            {
                "pitch": 0,
                "velocity": 0,
                "duration": 0.1023,
                "tempo": 0
            },
            {
                "pitch": 72,
                "velocity": 10,
                "duration": 0.0318,
                "tempo": 120.0
            },
            {
                "pitch": 0,
                "velocity": 0,
                "duration": 0.6023,
                "tempo": 0
            },
            {
                "pitch": 67,
                "velocity": 10,
                "duration": 0.0159,
                "tempo": 120.0
            },
            {
                "pitch": 0,
                "velocity": 0,
                "duration": 0.1,
                "tempo": 0
            },
            {
                "pitch": 67,
                "velocity": 10,
                "duration": 0.0318,
                "tempo": 120.0
            },
            {
                "pitch": 0,
                "velocity": 0,
                "duration": 0.1023,
                "tempo": 0
            },
            {
                "pitch": 65,
                "velocity": 10,
                "duration": 0.0159,
                "tempo": 120.0
            },
            {
                "pitch": 0,
                "velocity": 0,
                "duration": 0.1,
                "tempo": 0
            },
            {
                "pitch": 67,
                "velocity": 10,
                "duration": 0.0341,
                "tempo": 120.0
            },
            {
                "pitch": 0,
                "velocity": 0,
                "duration": 0.6,
                "tempo": 0
            },
            {
                "pitch": 63,
                "velocity": 10,
                "duration": 0.0159,
                "tempo": 120.0
            },
            {
                "pitch": 0,
                "velocity": 0,
                "duration": 0.1023,
                "tempo": 0
            },
            {
                "pitch": 63,
                "velocity": 10,
                "duration": 0.0318,
                "tempo": 120.0
            },
            {
                "pitch": 0,
                "velocity": 0,
                "duration": 0.1,
                "tempo": 0
            },
            {
                "pitch": 62,
                "velocity": 10,
                "duration": 0.0159,
                "tempo": 120.0
            },
            {
                "pitch": 0,
                "velocity": 0,
                "duration": 0.1023,
                "tempo": 0
            },
            {
                "pitch": 63,
                "velocity": 10,
                "duration": 0.0318,
                "tempo": 120.0
            },
            {
                "pitch": 0,
                "velocity": 0,
                "duration": 0.6023,
                "tempo": 0
            },
            {
                "pitch": 60,
                "velocity": 10,
                "duration": 0.0159,
                "tempo": 120.0
            },
            {
                "pitch": 0,
                "velocity": 0,
                "duration": 0.1,
                "tempo": 0
            },
            {
                "pitch": 60,
                "velocity": 10,
                "duration": 0.0341,
                "tempo": 120.0
            },
            {
                "pitch": 0,
                "velocity": 0,
                "duration": 0.1,
                "tempo": 0
            },
            {
                "pitch": 58,
                "velocity": 10,
                "duration": 0.0159,
                "tempo": 120.0
            },
            {
                "pitch": 0,
                "velocity": 0,
                "duration": 0.1,
                "tempo": 0
            },
            {
                "pitch": 60,
                "velocity": 10,
                "duration": 0.0341,
                "tempo": 120.0
            },
            {
                "pitch": 0,
                "velocity": 0,
                "duration": 0.6,
                "tempo": 0
            },
            {
                "pitch": 72,
                "velocity": 10,
                "duration": 0.0182,
                "tempo": 120.0
            },
            {
                "pitch": 0,
                "velocity": 0,
                "duration": 0.1,
                "tempo": 0
            },
            {
                "pitch": 72,
                "velocity": 10,
                "duration": 0.0318,
                "tempo": 120.0
            },
            {
                "pitch": 0,
                "velocity": 0,
                "duration": 0.1023,
                "tempo": 0
            },
            {
                "pitch": 70,
                "velocity": 10,
                "duration": 0.0159,
                "tempo": 120.0
            },
            {
                "pitch": 0,
                "velocity": 0,
                "duration": 0.1,
                "tempo": 0
            },
            {
                "pitch": 72,
                "velocity": 10,
                "duration": 0.0318,
                "tempo": 120.0
            },
            {
                "pitch": 0,
                "velocity": 0,
                "duration": 0.6023,
                "tempo": 0
            },
            {
                "pitch": 67,
                "velocity": 10,
                "duration": 0.0159,
                "tempo": 120.0
            },
            {
                "pitch": 0,
                "velocity": 0,
                "duration": 0.1,
                "tempo": 0
            },
            {
                "pitch": 67,
                "velocity": 10,
                "duration": 0.0341,
                "tempo": 120.0
            },
            {
                "pitch": 0,
                "velocity": 0,
                "duration": 0.1,
                "tempo": 0
            },
            {
                "pitch": 65,
                "velocity": 10,
                "duration": 0.0159,
                "tempo": 120.0
            },
            {
                "pitch": 0,
                "velocity": 0,
                "duration": 0.1023,
                "tempo": 0
            },
            {
                "pitch": 67,
                "velocity": 10,
                "duration": 0.0318,
                "tempo": 120.0
            },
            {
                "pitch": 0,
                "velocity": 0,
                "duration": 0.6023,
                "tempo": 0
            },
            {
                "pitch": 63,
                "velocity": 10,
                "duration": 0.0159,
                "tempo": 120.0
            },
            {
                "pitch": 0,
                "velocity": 0,
                "duration": 0.1023,
                "tempo": 0
            },
            {
                "pitch": 63,
                "velocity": 10,
                "duration": 0.0341,
                "tempo": 120.0
            },
            {
                "pitch": 0,
                "velocity": 0,
                "duration": 0.1045,
                "tempo": 0
            },
            {
                "pitch": 62,
                "velocity": 10,
                "duration": 0.0159,
                "tempo": 120.0
            },
            {
                "pitch": 0,
                "velocity": 0,
                "duration": 0.1023,
                "tempo": 0
            },
            {
                "pitch": 63,
                "velocity": 10,
                "duration": 0.0341,
                "tempo": 120.0
            },
            {
                "pitch": 0,
                "velocity": 0,
                "duration": 0.5955,
                "tempo": 0
            },
            {
                "pitch": 60,
                "velocity": 10,
                "duration": 0.0159,
                "tempo": 120.0
            },
            {
                "pitch": 0,
                "velocity": 0,
                "duration": 0.1045,
                "tempo": 0
            },
            {
                "pitch": 60,
                "velocity": 10,
                "duration": 0.0341,
                "tempo": 120.0
            },
            {
                "pitch": 0,
                "velocity": 0,
                "duration": 0.1023,
                "tempo": 0
            },
            {
                "pitch": 58,
                "velocity": 10,
                "duration": 0.0159,
                "tempo": 120.0
            },
            {
                "pitch": 0,
                "velocity": 0,
                "duration": 0.1045,
                "tempo": 0
            },
            {
                "pitch": 60,
                "velocity": 10,
                "duration": 0.0318,
                "tempo": 120.0
            },
            {
                "pitch": 0,
                "velocity": 0,
                "duration": 0.6045,
                "tempo": 0
            },
            {
                "pitch": 72,
                "velocity": 10,
                "duration": 0.0159,
                "tempo": 120.0
            },
            {
                "pitch": 0,
                "velocity": 0,
                "duration": 0.1023,
                "tempo": 0
            },
            {
                "pitch": 72,
                "velocity": 10,
                "duration": 0.0318,
                "tempo": 120.0
            },
            {
                "pitch": 0,
                "velocity": 0,
                "duration": 0.1,
                "tempo": 0
            },
            {
                "pitch": 70,
                "velocity": 10,
                "duration": 0.0159,
                "tempo": 120.0
            },
            {
                "pitch": 0,
                "velocity": 0,
                "duration": 0.1023,
                "tempo": 0
            },
            {
                "pitch": 72,
                "velocity": 10,
                "duration": 0.0318,
                "tempo": 120.0
            },
            {
                "pitch": 0,
                "velocity": 0,
                "duration": 0.6023,
                "tempo": 0
            },
            {
                "pitch": 67,
                "velocity": 10,
                "duration": 0.0159,
                "tempo": 120.0
            },
            {
                "pitch": 0,
                "velocity": 0,
                "duration": 0.1,
                "tempo": 0
            },
            {
                "pitch": 67,
                "velocity": 10,
                "duration": 0.0341,
                "tempo": 120.0
            },
            {
                "pitch": 0,
                "velocity": 0,
                "duration": 0.1,
                "tempo": 0
            },
            {
                "pitch": 65,
                "velocity": 10,
                "duration": 0.0159,
                "tempo": 120.0
            },
            {
                "pitch": 0,
                "velocity": 0,
                "duration": 0.1,
                "tempo": 0
            },
            {
                "pitch": 67,
                "velocity": 10,
                "duration": 0.0341,
                "tempo": 120.0
            },
            {
                "pitch": 0,
                "velocity": 0,
                "duration": 0.6023,
                "tempo": 0
            },
            {
                "pitch": 63,
                "velocity": 10,
                "duration": 0.0159,
                "tempo": 120.0
            },
            {
                "pitch": 0,
                "velocity": 0,
                "duration": 0.1,
                "tempo": 0
            },
            {
                "pitch": 63,
                "velocity": 10,
                "duration": 0.0318,
                "tempo": 120.0
            },
            {
                "pitch": 0,
                "velocity": 0,
                "duration": 0.1,
                "tempo": 0
            },
            {
                "pitch": 62,
                "velocity": 10,
                "duration": 0.0182,
                "tempo": 120.0
            },
            {
                "pitch": 0,
                "velocity": 0,
                "duration": 0.1,
                "tempo": 0
            },
            {
                "pitch": 63,
                "velocity": 10,
                "duration": 0.0318,
                "tempo": 120.0
            },
            {
                "pitch": 0,
                "velocity": 0,
                "duration": 0.6023,
                "tempo": 0
            },
            {
                "pitch": 60,
                "velocity": 10,
                "duration": 0.0159,
                "tempo": 120.0
            },
            {
                "pitch": 0,
                "velocity": 0,
                "duration": 0.1,
                "tempo": 0
            },
            {
                "pitch": 60,
                "velocity": 10,
                "duration": 0.0341,
                "tempo": 120.0
            },
            {
                "pitch": 0,
                "velocity": 0,
                "duration": 0.1,
                "tempo": 0
            },
            {
                "pitch": 58,
                "velocity": 10,
                "duration": 0.0159,
                "tempo": 120.0
            },
            {
                "pitch": 0,
                "velocity": 0,
                "duration": 0.1,
                "tempo": 0
            },
            {
                "pitch": 60,
                "velocity": 10,
                "duration": 0.0341,
                "tempo": 120.0
            }
        ],
        "Lead 2 (sawtooth)": [
            {
                "pitch": 0,
                "velocity": 0,
                "duration": 0.0045,
                "tempo": 0
            },
            {
                "pitch": 79,
                "velocity": 8,
                "duration": 0.1409,
                "tempo": 120.0
            },
            {
                "pitch": 0,
                "velocity": 0,
                "duration": 0.2568,
                "tempo": 0
            },
            {
                "pitch": 77,
                "velocity": 8,
                "duration": 0.1818,
                "tempo": 120.0
            },
            {
                "pitch": 0,
                "velocity": 0,
                "duration": 0.3182,
                "tempo": 0
            },
            {
                "pitch": 75,
                "velocity": 8,
                "duration": 0.1818,
                "tempo": 120.0
            },
            {
                "pitch": 0,
                "velocity": 0,
                "duration": 0.3182,
                "tempo": 0
            },
            {
                "pitch": 82,
                "velocity": 8,
                "duration": 0.2659,
                "tempo": 120.0
            },
            {
                "pitch": 0,
                "velocity": 0,
                "duration": 0.1023,
                "tempo": 0
            },
            {
                "pitch": 81,
                "velocity": 8,
                "duration": 0.0977,
                "tempo": 120.0
            },
            {
                "pitch": 0,
                "velocity": 0,
                "duration": 0.9091,
                "tempo": 0
            },
            {
                "pitch": 70,
                "velocity": 8,
                "duration": 0.0977,
                "tempo": 120.0
            },
            {
                "pitch": 0,
                "velocity": 0,
                "duration": 0.0364,
                "tempo": 0
            },
            {
                "pitch": 82,
                "velocity": 8,
                "duration": 0.1841,
                "tempo": 120.0
            },
            {
                "pitch": 0,
                "velocity": 0,
                "duration": 0.0705,
                "tempo": 0
            },
            {
                "pitch": 81,
                "velocity": 8,
                "duration": 0.1864,
                "tempo": 120.0
            },
            {
                "pitch": 0,
                "velocity": 0,
                "duration": 0.0705,
                "tempo": 0
            },
            {
                "pitch": 79,
                "velocity": 8,
                "duration": 0.1818,
                "tempo": 120.0
            },
            {
                "pitch": 0,
                "velocity": 0,
                "duration": 0.0682,
                "tempo": 0
            },
            {
                "pitch": 81,
                "velocity": 8,
                "duration": 0.1818,
                "tempo": 120.0
            },
            {
                "pitch": 0,
                "velocity": 0,
                "duration": 0.0682,
                "tempo": 0
            },
            {
                "pitch": 82,
                "velocity": 8,
                "duration": 0.0841,
                "tempo": 120.0
            },
            {
                "pitch": 0,
                "velocity": 0,
                "duration": 0.0341,
                "tempo": 0
            },
            {
                "pitch": 79,
                "velocity": 8,
                "duration": 0.1818,
                "tempo": 120.0
            },
            {
                "pitch": 0,
                "velocity": 0,
                "duration": 0.0682,
                "tempo": 0
            },
            {
                "pitch": 75,
                "velocity": 8,
                "duration": 1.6364,
                "tempo": 120.0
            },
            {
                "pitch": 0,
                "velocity": 0,
                "duration": 2.0023,
                "tempo": 0
            },
            {
                "pitch": 79,
                "velocity": 8,
                "duration": 0.1818,
                "tempo": 120.0
            },
            {
                "pitch": 0,
                "velocity": 0,
                "duration": 0.3182,
                "tempo": 0
            },
            {
                "pitch": 77,
                "velocity": 8,
                "duration": 0.1818,
                "tempo": 120.0
            },
            {
                "pitch": 0,
                "velocity": 0,
                "duration": 0.3182,
                "tempo": 0
            },
            {
                "pitch": 75,
                "velocity": 8,
                "duration": 0.1841,
                "tempo": 120.0
            },
            {
                "pitch": 0,
                "velocity": 0,
                "duration": 0.3182,
                "tempo": 0
            },
            {
                "pitch": 82,
                "velocity": 8,
                "duration": 0.2659,
                "tempo": 120.0
            },
            {
                "pitch": 0,
                "velocity": 0,
                "duration": 0.1,
                "tempo": 0
            },
            {
                "pitch": 81,
                "velocity": 8,
                "duration": 0.1,
                "tempo": 120.0
            },
            {
                "pitch": 0,
                "velocity": 0,
                "duration": 0.9068,
                "tempo": 0
            },
            {
                "pitch": 70,
                "velocity": 8,
                "duration": 0.0977,
                "tempo": 120.0
            },
            {
                "pitch": 0,
                "velocity": 0,
                "duration": 0.0364,
                "tempo": 0
            },
            {
                "pitch": 82,
                "velocity": 8,
                "duration": 0.1864,
                "tempo": 120.0
            },
            {
                "pitch": 0,
                "velocity": 0,
                "duration": 0.0682,
                "tempo": 0
            },
            {
                "pitch": 81,
                "velocity": 8,
                "duration": 0.1886,
                "tempo": 120.0
            },
            {
                "pitch": 0,
                "velocity": 0,
                "duration": 0.0682,
                "tempo": 0
            },
            {
                "pitch": 79,
                "velocity": 8,
                "duration": 0.1841,
                "tempo": 120.0
            },
            {
                "pitch": 0,
                "velocity": 0,
                "duration": 0.0659,
                "tempo": 0
            },
            {
                "pitch": 81,
                "velocity": 8,
                "duration": 0.1841,
                "tempo": 120.0
            },
            {
                "pitch": 0,
                "velocity": 0,
                "duration": 0.0682,
                "tempo": 0
            },
            {
                "pitch": 82,
                "velocity": 8,
                "duration": 0.0818,
                "tempo": 120.0
            },
            {
                "pitch": 0,
                "velocity": 0,
                "duration": 0.0341,
                "tempo": 0
            },
            {
                "pitch": 79,
                "velocity": 8,
                "duration": 0.1841,
                "tempo": 120.0
            },
            {
                "pitch": 0,
                "velocity": 0,
                "duration": 0.0659,
                "tempo": 0
            },
            {
                "pitch": 75,
                "velocity": 8,
                "duration": 1.6364,
                "tempo": 120.0
            },
            {
                "pitch": 0,
                "velocity": 0,
                "duration": 0.75,
                "tempo": 0
            },
            {
                "pitch": 74,
                "velocity": 8,
                "duration": 0.0818,
                "tempo": 120.0
            },
            {
                "pitch": 0,
                "velocity": 0,
                "duration": 0.0364,
                "tempo": 0
            },
            {
                "pitch": 72,
                "velocity": 8,
                "duration": 0.0977,
                "tempo": 120.0
            },
            {
                "pitch": 0,
                "velocity": 0,
                "duration": 0.0364,
                "tempo": 0
            },
            {
                "pitch": 74,
                "velocity": 8,
                "duration": 0.1818,
                "tempo": 120.0
            },
            {
                "pitch": 0,
                "velocity": 0,
                "duration": 0.0682,
                "tempo": 0
            },
            {
                "pitch": 74,
                "velocity": 8,
                "duration": 0.1818,
                "tempo": 120.0
            },
            {
                "pitch": 0,
                "velocity": 0,
                "duration": 0.1864,
                "tempo": 0
            },
            {
                "pitch": 77,
                "velocity": 8,
                "duration": 0.2909,
                "tempo": 120.0
            },
            {
                "pitch": 0,
                "velocity": 0,
                "duration": 0.1045,
                "tempo": 0
            },
            {
                "pitch": 79,
                "velocity": 10,
                "duration": 0.2114,
                "tempo": 120.0
            },
            {
                "pitch": 0,
                "velocity": 0,
                "duration": 0.0341,
                "tempo": 0
            },
            {
                "pitch": 79,
                "velocity": 7,
                "duration": 0.0977,
                "tempo": 120.0
            },
            {
                "pitch": 0,
                "velocity": 0,
                "duration": 0.0182,
                "tempo": 0
            },
            {
                "pitch": 79,
                "velocity": 7,
                "duration": 0.1659,
                "tempo": 120.0
            },
            {
                "pitch": 0,
                "velocity": 0,
                "duration": 0.0273,
                "tempo": 0
            },
            {
                "pitch": 79,
                "velocity": 5,
                "duration": 0.0864,
                "tempo": 120.0
            },
            {
                "pitch": 0,
                "velocity": 0,
                "duration": 0.0159,
                "tempo": 0
            },
            {
                "pitch": 79,
                "velocity": 5,
                "duration": 0.1636,
                "tempo": 120.0
            },
            {
                "pitch": 0,
                "velocity": 0,
                "duration": 0.0273,
                "tempo": 0
            },
            {
                "pitch": 79,
                "velocity": 3,
                "duration": 0.075,
                "tempo": 120.0
            },
            {
                "pitch": 0,
                "velocity": 0,
                "duration": 0.0159,
                "tempo": 0
            },
            {
                "pitch": 79,
                "velocity": 3,
                "duration": 0.1568,
                "tempo": 120.0
            },
            {
                "pitch": 0,
                "velocity": 0,
                "duration": 0.0273,
                "tempo": 0
            },
            {
                "pitch": 79,
                "velocity": 2,
                "duration": 0.0841,
                "tempo": 120.0
            },
            {
                "pitch": 0,
                "velocity": 0,
                "duration": 0.0159,
                "tempo": 0
            },
            {
                "pitch": 79,
                "velocity": 2,
                "duration": 0.1636,
                "tempo": 120.0
            },
            {
                "pitch": 0,
                "velocity": 0,
                "duration": 0.025,
                "tempo": 0
            },
            {
                "pitch": 79,
                "velocity": 2,
                "duration": 0.0773,
                "tempo": 120.0
            },
            {
                "pitch": 0,
                "velocity": 0,
                "duration": 0.0136,
                "tempo": 0
            },
            {
                "pitch": 79,
                "velocity": 2,
                "duration": 0.1591,
                "tempo": 120.0
            },
            {
                "pitch": 0,
                "velocity": 0,
                "duration": 0.025,
                "tempo": 0
            },
            {
                "pitch": 79,
                "velocity": 2,
                "duration": 0.0864,
                "tempo": 120.0
            },
            {
                "pitch": 0,
                "velocity": 0,
                "duration": 0.0136,
                "tempo": 0
            },
            {
                "pitch": 79,
                "velocity": 2,
                "duration": 0.1636,
                "tempo": 120.0
            }
        ],
        "Synth Bass 1": [
            {
                "pitch": 0,
                "velocity": 0,
                "duration": 0.0068,
                "tempo": 0
            },
            {
                "pitch": 75,
                "velocity": 1,
                "duration": 0.1409,
                "tempo": 120.0
            },
            {
                "pitch": 0,
                "velocity": 0,
                "duration": 0.2545,
                "tempo": 0
            },
            {
                "pitch": 74,
                "velocity": 1,
                "duration": 0.1818,
                "tempo": 120.0
            },
            {
                "pitch": 0,
                "velocity": 0,
                "duration": 0.3205,
                "tempo": 0
            },
            {
                "pitch": 72,
                "velocity": 1,
                "duration": 0.1818,
                "tempo": 120.0
            },
            {
                "pitch": 0,
                "velocity": 0,
                "duration": 0.3182,
                "tempo": 0
            },
            {
                "pitch": 75,
                "velocity": 1,
                "duration": 0.2636,
                "tempo": 120.0
            },
            {
                "pitch": 0,
                "velocity": 0,
                "duration": 0.1023,
                "tempo": 0
            },
            {
                "pitch": 74,
                "velocity": 1,
                "duration": 0.1,
                "tempo": 120.0
            },
            {
                "pitch": 0,
                "velocity": 0,
                "duration": 0.9091,
                "tempo": 0
            },
            {
                "pitch": 67,
                "velocity": 1,
                "duration": 0.0955,
                "tempo": 120.0
            },
            {
                "pitch": 0,
                "velocity": 0,
                "duration": 0.0364,
                "tempo": 0
            },
            {
                "pitch": 79,
                "velocity": 1,
                "duration": 0.1864,
                "tempo": 120.0
            },
            {
                "pitch": 0,
                "velocity": 0,
                "duration": 0.0705,
                "tempo": 0
            },
            {
                "pitch": 77,
                "velocity": 1,
                "duration": 0.1864,
                "tempo": 120.0
            },
            {
                "pitch": 0,
                "velocity": 0,
                "duration": 0.0705,
                "tempo": 0
            },
            {
                "pitch": 75,
                "velocity": 1,
                "duration": 0.1795,
                "tempo": 120.0
            },
            {
                "pitch": 0,
                "velocity": 0,
                "duration": 0.0682,
                "tempo": 0
            },
            {
                "pitch": 77,
                "velocity": 1,
                "duration": 0.1841,
                "tempo": 120.0
            },
            {
                "pitch": 0,
                "velocity": 0,
                "duration": 0.0682,
                "tempo": 0
            },
            {
                "pitch": 79,
                "velocity": 1,
                "duration": 0.0818,
                "tempo": 120.0
            },
            {
                "pitch": 0,
                "velocity": 0,
                "duration": 0.0364,
                "tempo": 0
            },
            {
                "pitch": 75,
                "velocity": 1,
                "duration": 0.1818,
                "tempo": 120.0
            },
            {
                "pitch": 0,
                "velocity": 0,
                "duration": 0.0659,
                "tempo": 0
            },
            {
                "pitch": 72,
                "velocity": 1,
                "duration": 1.6364,
                "tempo": 120.0
            },
            {
                "pitch": 0,
                "velocity": 0,
                "duration": 2.0045,
                "tempo": 0
            },
            {
                "pitch": 75,
                "velocity": 1,
                "duration": 0.1795,
                "tempo": 120.0
            },
            {
                "pitch": 0,
                "velocity": 0,
                "duration": 0.3205,
                "tempo": 0
            },
            {
                "pitch": 74,
                "velocity": 1,
                "duration": 0.1795,
                "tempo": 120.0
            },
            {
                "pitch": 0,
                "velocity": 0,
                "duration": 0.3205,
                "tempo": 0
            },
            {
                "pitch": 72,
                "velocity": 1,
                "duration": 0.1818,
                "tempo": 120.0
            },
            {
                "pitch": 0,
                "velocity": 0,
                "duration": 0.3182,
                "tempo": 0
            },
            {
                "pitch": 75,
                "velocity": 1,
                "duration": 0.2659,
                "tempo": 120.0
            },
            {
                "pitch": 0,
                "velocity": 0,
                "duration": 0.1,
                "tempo": 0
            },
            {
                "pitch": 74,
                "velocity": 1,
                "duration": 0.1,
                "tempo": 120.0
            },
            {
                "pitch": 0,
                "velocity": 0,
                "duration": 0.9091,
                "tempo": 0
            },
            {
                "pitch": 67,
                "velocity": 1,
                "duration": 0.0977,
                "tempo": 120.0
            },
            {
                "pitch": 0,
                "velocity": 0,
                "duration": 0.0364,
                "tempo": 0
            },
            {
                "pitch": 79,
                "velocity": 1,
                "duration": 0.1841,
                "tempo": 120.0
            },
            {
                "pitch": 0,
                "velocity": 0,
                "duration": 0.0705,
                "tempo": 0
            },
            {
                "pitch": 77,
                "velocity": 1,
                "duration": 0.1864,
                "tempo": 120.0
            },
            {
                "pitch": 0,
                "velocity": 0,
                "duration": 0.0705,
                "tempo": 0
            },
            {
                "pitch": 75,
                "velocity": 1,
                "duration": 0.1818,
                "tempo": 120.0
            },
            {
                "pitch": 0,
                "velocity": 0,
                "duration": 0.0682,
                "tempo": 0
            },
            {
                "pitch": 77,
                "velocity": 1,
                "duration": 0.1818,
                "tempo": 120.0
            },
            {
                "pitch": 0,
                "velocity": 0,
                "duration": 0.0682,
                "tempo": 0
            },
            {
                "pitch": 79,
                "velocity": 1,
                "duration": 0.0841,
                "tempo": 120.0
            },
            {
                "pitch": 0,
                "velocity": 0,
                "duration": 0.0341,
                "tempo": 0
            },
            {
                "pitch": 75,
                "velocity": 1,
                "duration": 0.1818,
                "tempo": 120.0
            },
            {
                "pitch": 0,
                "velocity": 0,
                "duration": 0.0682,
                "tempo": 0
            },
            {
                "pitch": 72,
                "velocity": 1,
                "duration": 1.6341,
                "tempo": 120.0
            },
            {
                "pitch": 0,
                "velocity": 0,
                "duration": 0.7523,
                "tempo": 0
            },
            {
                "pitch": 79,
                "velocity": 1,
                "duration": 0.0818,
                "tempo": 120.0
            },
            {
                "pitch": 0,
                "velocity": 0,
                "duration": 0.0341,
                "tempo": 0
            },
            {
                "pitch": 77,
                "velocity": 1,
                "duration": 0.0977,
                "tempo": 120.0
            },
            {
                "pitch": 0,
                "velocity": 0,
                "duration": 0.0386,
                "tempo": 0
            },
            {
                "pitch": 79,
                "velocity": 1,
                "duration": 0.1795,
                "tempo": 120.0
            },
            {
                "pitch": 0,
                "velocity": 0,
                "duration": 0.0682,
                "tempo": 0
            },
            {
                "pitch": 79,
                "velocity": 1,
                "duration": 0.1818,
                "tempo": 120.0
            },
            {
                "pitch": 0,
                "velocity": 0,
                "duration": 0.1886,
                "tempo": 0
            },
            {
                "pitch": 82,
                "velocity": 1,
                "duration": 0.2886,
                "tempo": 120.0
            },
            {
                "pitch": 0,
                "velocity": 0,
                "duration": 0.1045,
                "tempo": 0
            },
            {
                "pitch": 84,
                "velocity": 1,
                "duration": 0.2114,
                "tempo": 120.0
            },
            {
                "pitch": 0,
                "velocity": 0,
                "duration": 0.0364,
                "tempo": 0
            },
            {
                "pitch": 84,
                "velocity": 1,
                "duration": 0.0955,
                "tempo": 120.0
            },
            {
                "pitch": 0,
                "velocity": 0,
                "duration": 0.0227,
                "tempo": 0
            },
            {
                "pitch": 84,
                "velocity": 1,
                "duration": 0.1614,
                "tempo": 120.0
            },
            {
                "pitch": 0,
                "velocity": 0,
                "duration": 0.0295,
                "tempo": 0
            },
            {
                "pitch": 84,
                "velocity": 1,
                "duration": 0.0864,
                "tempo": 120.0
            },
            {
                "pitch": 0,
                "velocity": 0,
                "duration": 0.0159,
                "tempo": 0
            },
            {
                "pitch": 84,
                "velocity": 1,
                "duration": 0.1614,
                "tempo": 120.0
            },
            {
                "pitch": 0,
                "velocity": 0,
                "duration": 0.0295,
                "tempo": 0
            },
            {
                "pitch": 84,
                "velocity": 1,
                "duration": 0.0727,
                "tempo": 120.0
            },
            {
                "pitch": 0,
                "velocity": 0,
                "duration": 0.0182,
                "tempo": 0
            },
            {
                "pitch": 84,
                "velocity": 1,
                "duration": 0.1568,
                "tempo": 120.0
            },
            {
                "pitch": 0,
                "velocity": 0,
                "duration": 0.0273,
                "tempo": 0
            },
            {
                "pitch": 84,
                "velocity": 1,
                "duration": 0.0841,
                "tempo": 120.0
            },
            {
                "pitch": 0,
                "velocity": 0,
                "duration": 0.0159,
                "tempo": 0
            },
            {
                "pitch": 84,
                "velocity": 1,
                "duration": 0.1614,
                "tempo": 120.0
            },
            {
                "pitch": 0,
                "velocity": 0,
                "duration": 0.0273,
                "tempo": 0
            },
            {
                "pitch": 84,
                "velocity": 1,
                "duration": 0.075,
                "tempo": 120.0
            },
            {
                "pitch": 0,
                "velocity": 0,
                "duration": 0.0159,
                "tempo": 0
            },
            {
                "pitch": 84,
                "velocity": 1,
                "duration": 0.1568,
                "tempo": 120.0
            },
            {
                "pitch": 0,
                "velocity": 0,
                "duration": 0.0273,
                "tempo": 0
            },
            {
                "pitch": 84,
                "velocity": 1,
                "duration": 0.0841,
                "tempo": 120.0
            },
            {
                "pitch": 0,
                "velocity": 0,
                "duration": 0.0182,
                "tempo": 0
            },
            {
                "pitch": 84,
                "velocity": 1,
                "duration": 0.1614,
                "tempo": 120.0
            }
        ],
        "Acoustic Grand Piano": [
            {
                "pitch": 0,
                "velocity": 0,
                "duration": 17.9227,
                "tempo": 0
            },
            {
                "pitch": 108,
                "velocity": 15,
                "duration": 0.1,
                "tempo": 120.0
            }
        ]
    }
}