{
    "track_id": "03 Life in Space_9",
    "mood": "happy",
    "instruments": {
        "Lead 1 (square)": [
            {
                "pitch": 0,
                "velocity": 0,
                "duration": 0.0045,
                "tempo": 0
            },
            {
                "pitch": 65,
                "velocity": 10,
                "duration": 0.1114,
                "tempo": 120.0
            },
            {
                "pitch": 72,
                "velocity": 10,
                "duration": 0.2364,
                "tempo": 120.0
            },
            {
                "pitch": 65,
                "velocity": 10,
                "duration": 0.1182,
                "tempo": 120.0
            },
            {
                "pitch": 77,
                "velocity": 10,
                "duration": 0.2409,
                "tempo": 120.0
            },
            {
                "pitch": 65,
                "velocity": 10,
                "duration": 0.1114,
                "tempo": 120.0
            },
            {
                "pitch": 72,
                "velocity": 10,
                "duration": 0.2295,
                "tempo": 120.0
            },
            {
                "pitch": 65,
                "velocity": 10,
                "duration": 0.1341,
                "tempo": 120.0
            },
            {
                "pitch": 72,
                "velocity": 10,
                "duration": 0.2341,
                "tempo": 120.0
            },
            {
                "pitch": 65,
                "velocity": 10,
                "duration": 0.2386,
                "tempo": 120.0
            },
            {
                "pitch": 77,
                "velocity": 10,
                "duration": 0.2568,
                "tempo": 120.0
            },
            {
                "pitch": 65,
                "velocity": 10,
                "duration": 0.1159,
                "tempo": 120.0
            },
            {
                "pitch": 70,
                "velocity": 10,
                "duration": 0.2341,
                "tempo": 120.0
            },
            {
                "pitch": 65,
                "velocity": 10,
                "duration": 0.1341,
                "tempo": 120.0
            },
            {
                "pitch": 77,
                "velocity": 10,
                "duration": 0.2386,
                "tempo": 120.0
            },
            {
                "pitch": 65,
                "velocity": 10,
                "duration": 0.1182,
                "tempo": 120.0
            },
            {
                "pitch": 70,
                "velocity": 10,
                "duration": 0.25,
                "tempo": 120.0
            },
            {
                "pitch": 65,
                "velocity": 10,
                "duration": 0.1114,
                "tempo": 120.0
            },
            {
                "pitch": 70,
                "velocity": 10,
                "duration": 0.225,
                "tempo": 120.0
            },
            {
                "pitch": 65,
                "velocity": 10,
                "duration": 0.2568,
                "tempo": 120.0
            },
            {
                "pitch": 77,
                "velocity": 10,
                "duration": 0.2409,
                "tempo": 120.0
            },
            {
                "pitch": 67,
                "velocity": 10,
                "duration": 0.1136,
                "tempo": 120.0
            },
            {
                "pitch": 72,
                "velocity": 10,
                "duration": 0.2523,
                "tempo": 120.0
            },
            {
                "pitch": 67,
                "velocity": 10,
                "duration": 0.1159,
                "tempo": 120.0
            },
            {
                "pitch": 79,
                "velocity": 10,
                "duration": 0.2386,
                "tempo": 120.0
            },
            {
                "pitch": 67,
                "velocity": 10,
                "duration": 0.1205,
                "tempo": 120.0
            },
            {
                "pitch": 72,
                "velocity": 10,
                "duration": 0.2545,
                "tempo": 120.0
            },
            {
                "pitch": 67,
                "velocity": 10,
                "duration": 0.1182,
                "tempo": 120.0
            },
            {
                "pitch": 72,
                "velocity": 10,
                "duration": 0.2341,
                "tempo": 120.0
            },
            {
                "pitch": 67,
                "velocity": 10,
                "duration": 0.2477,
                "tempo": 120.0
            },
            {
                "pitch": 79,
                "velocity": 10,
                "duration": 0.2295,
                "tempo": 120.0
            },
            {
                "pitch": 0,
                "velocity": 0,
                "duration": 0.0023,
                "tempo": 0
            },
            {
                "pitch": 67,
                "velocity": 10,
                "duration": 0.1136,
                "tempo": 120.0
            },
            {
                "pitch": 72,
                "velocity": 10,
                "duration": 0.25,
                "tempo": 120.0
            },
            {
                "pitch": 0,
                "velocity": 0,
                "duration": 0.0023,
                "tempo": 0
            },
            {
                "pitch": 67,
                "velocity": 10,
                "duration": 0.1159,
                "tempo": 120.0
            },
            {
                "pitch": 79,
                "velocity": 10,
                "duration": 0.2341,
                "tempo": 120.0
            },
            {
                "pitch": 0,
                "velocity": 0,
                "duration": 0.0023,
                "tempo": 0
            },
            {
                "pitch": 67,
                "velocity": 10,
                "duration": 0.1318,
                "tempo": 120.0
            },
            {
                "pitch": 0,
                "velocity": 0,
                "duration": 0.0023,
                "tempo": 0
            },
            {
                "pitch": 72,
                "velocity": 10,
                "duration": 0.2364,
                "tempo": 120.0
            },
            {
                "pitch": 67,
                "velocity": 10,
                "duration": 0.1205,
                "tempo": 120.0
            },
            {
                "pitch": 72,
                "velocity": 10,
                "duration": 0.2568,
                "tempo": 120.0
            },
            {
                "pitch": 67,
                "velocity": 10,
                "duration": 0.2318,
                "tempo": 120.0
            },
            {
                "pitch": 79,
                "velocity": 10,
                "duration": 0.2364,
                "tempo": 120.0
            },
            {
                "pitch": 65,
                "velocity": 10,
                "duration": 0.1295,
                "tempo": 120.0
            },
            {
                "pitch": 72,
                "velocity": 10,
                "duration": 0.2295,
                "tempo": 120.0
            },
            {
                "pitch": 65,
                "velocity": 10,
                "duration": 0.1159,
                "tempo": 120.0
            },
            {
                "pitch": 77,
                "velocity": 10,
                "duration": 0.25,
                "tempo": 120.0
            },
            {
                "pitch": 65,
                "velocity": 10,
                "duration": 0.1159,
                "tempo": 120.0
            },
            {
                "pitch": 72,
                "velocity": 10,
                "duration": 0.2364,
                "tempo": 120.0
            },
            {
                "pitch": 65,
                "velocity": 10,
                "duration": 0.1205,
                "tempo": 120.0
            },
            {
                "pitch": 72,
                "velocity": 10,
                "duration": 0.2568,
                "tempo": 120.0
            },
            {
                "pitch": 65,
                "velocity": 10,
                "duration": 0.2341,
                "tempo": 120.0
            },
            {
                "pitch": 77,
                "velocity": 10,
                "duration": 0.2545,
                "tempo": 120.0
            },
            {
                "pitch": 65,
                "velocity": 10,
                "duration": 0.1159,
                "tempo": 120.0
            },
            {
                "pitch": 72,
                "velocity": 10,
                "duration": 0.2341,
                "tempo": 120.0
            },
            {
                "pitch": 65,
                "velocity": 10,
                "duration": 0.1159,
                "tempo": 120.0
            },
            {
                "pitch": 77,
                "velocity": 10,
                "duration": 0.2455,
                "tempo": 120.0
            },
            {
                "pitch": 65,
                "velocity": 10,
                "duration": 0.1159,
                "tempo": 120.0
            },
            {
                "pitch": 72,
                "velocity": 10,
                "duration": 0.2318,
                "tempo": 120.0
            },
            {
                "pitch": 0,
                "velocity": 0,
                "duration": 0.0023,
                "tempo": 0
            },
            {
                "pitch": 65,
                "velocity": 10,
                "duration": 0.1341,
                "tempo": 120.0
            },
            {
                "pitch": 72,
                "velocity": 10,
                "duration": 0.2341,
                "tempo": 120.0
            },
            {
                "pitch": 65,
                "velocity": 10,
                "duration": 0.2409,
                "tempo": 120.0
            },
            {
                "pitch": 77,
                "velocity": 10,
                "duration": 0.2568,
                "tempo": 120.0
            },
            {
                "pitch": 67,
                "velocity": 10,
                "duration": 0.1159,
                "tempo": 120.0
            },
            {
                "pitch": 74,
                "velocity": 10,
                "duration": 0.2341,
                "tempo": 120.0
            },
            {
                "pitch": 67,
                "velocity": 10,
                "duration": 0.1318,
                "tempo": 120.0
            },
            {
                "pitch": 79,
                "velocity": 10,
                "duration": 0.2409,
                "tempo": 120.0
            },
            {
                "pitch": 67,
                "velocity": 10,
                "duration": 0.1182,
                "tempo": 120.0
            },
            {
                "pitch": 74,
                "velocity": 10,
                "duration": 0.2477,
                "tempo": 120.0
            },
            {
                "pitch": 67,
                "velocity": 10,
                "duration": 0.1136,
                "tempo": 120.0
            },
            {
                "pitch": 74,
                "velocity": 10,
                "duration": 0.225,
                "tempo": 120.0
            },
            {
                "pitch": 67,
                "velocity": 10,
                "duration": 0.2545,
                "tempo": 120.0
            },
            {
                "pitch": 79,
                "velocity": 10,
                "duration": 0.2409,
                "tempo": 120.0
            },
            {
                "pitch": 67,
                "velocity": 10,
                "duration": 0.1159,
                "tempo": 120.0
            },
            {
                "pitch": 72,
                "velocity": 10,
                "duration": 0.2523,
                "tempo": 120.0
            },
            {
                "pitch": 0,
                "velocity": 0,
                "duration": 0.0023,
                "tempo": 0
            },
            {
                "pitch": 67,
                "velocity": 10,
                "duration": 0.1159,
                "tempo": 120.0
            },
            {
                "pitch": 79,
                "velocity": 10,
                "duration": 0.2409,
                "tempo": 120.0
            },
            {
                "pitch": 67,
                "velocity": 10,
                "duration": 0.1182,
                "tempo": 120.0
            },
            {
                "pitch": 72,
                "velocity": 10,
                "duration": 0.2545,
                "tempo": 120.0
            },
            {
                "pitch": 67,
                "velocity": 10,
                "duration": 0.1182,
                "tempo": 120.0
            },
            {
                "pitch": 72,
                "velocity": 10,
                "duration": 0.2364,
                "tempo": 120.0
            },
            {
                "pitch": 67,
                "velocity": 10,
                "duration": 0.2455,
                "tempo": 120.0
            },
            {
                "pitch": 79,
                "velocity": 10,
                "duration": 0.2318,
                "tempo": 120.0
            },
            {
                "pitch": 67,
                "velocity": 10,
                "duration": 0.1159,
                "tempo": 120.0
            },
            {
                "pitch": 72,
                "velocity": 10,
                "duration": 0.2523,
                "tempo": 120.0
            },
            {
                "pitch": 67,
                "velocity": 10,
                "duration": 0.1182,
                "tempo": 120.0
            },
            {
                "pitch": 79,
                "velocity": 10,
                "duration": 0.2386,
                "tempo": 120.0
            },
            {
                "pitch": 67,
                "velocity": 10,
                "duration": 0.1364,
                "tempo": 120.0
            },
            {
                "pitch": 72,
                "velocity": 10,
                "duration": 0.2386,
                "tempo": 120.0
            },
            {
                "pitch": 67,
                "velocity": 10,
                "duration": 0.1182,
                "tempo": 120.0
            },
            {
                "pitch": 72,
                "velocity": 10,
                "duration": 0.2523,
                "tempo": 120.0
            },
            {
                "pitch": 67,
                "velocity": 10,
                "duration": 0.2386,
                "tempo": 120.0
            },
            {
                "pitch": 79,
                "velocity": 10,
                "duration": 0.2409,
                "tempo": 120.0
            },
            {
                "pitch": 64,
                "velocity": 10,
                "duration": 0.125,
                "tempo": 120.0
            },
            {
                "pitch": 0,
                "velocity": 0,
                "duration": 0.0023,
                "tempo": 0
            },
            {
                "pitch": 71,
                "velocity": 10,
                "duration": 0.225,
                "tempo": 120.0
            },
            {
                "pitch": 64,
                "velocity": 10,
                "duration": 0.1114,
                "tempo": 120.0
            },
            {
                "pitch": 76,
                "velocity": 10,
                "duration": 0.2568,
                "tempo": 120.0
            },
            {
                "pitch": 64,
                "velocity": 10,
                "duration": 0.1182,
                "tempo": 120.0
            },
            {
                "pitch": 71,
                "velocity": 10,
                "duration": 0.2386,
                "tempo": 120.0
            },
            {
                "pitch": 64,
                "velocity": 10,
                "duration": 0.1182,
                "tempo": 120.0
            },
            {
                "pitch": 71,
                "velocity": 10,
                "duration": 0.2523,
                "tempo": 120.0
            },
            {
                "pitch": 64,
                "velocity": 10,
                "duration": 0.2341,
                "tempo": 120.0
            },
            {
                "pitch": 76,
                "velocity": 10,
                "duration": 0.2545,
                "tempo": 120.0
            },
            {
                "pitch": 64,
                "velocity": 10,
                "duration": 0.1182,
                "tempo": 120.0
            },
            {
                "pitch": 69,
                "velocity": 10,
                "duration": 0.2386,
                "tempo": 120.0
            },
            {
                "pitch": 64,
                "velocity": 10,
                "duration": 0.1205,
                "tempo": 120.0
            },
            {
                "pitch": 76,
                "velocity": 10,
                "duration": 0.2455,
                "tempo": 120.0
            },
            {
                "pitch": 64,
                "velocity": 10,
                "duration": 0.1159,
                "tempo": 120.0
            },
            {
                "pitch": 69,
                "velocity": 10,
                "duration": 0.2318,
                "tempo": 120.0
            },
            {
                "pitch": 64,
                "velocity": 10,
                "duration": 0.1341,
                "tempo": 120.0
            },
            {
                "pitch": 0,
                "velocity": 0,
                "duration": 0.0023,
                "tempo": 0
            },
            {
                "pitch": 69,
                "velocity": 10,
                "duration": 0.2341,
                "tempo": 120.0
            },
            {
                "pitch": 64,
                "velocity": 10,
                "duration": 0.2364,
                "tempo": 120.0
            },
            {
                "pitch": 76,
                "velocity": 10,
                "duration": 0.2523,
                "tempo": 120.0
            },
            {
                "pitch": 0,
                "velocity": 0,
                "duration": 0.0023,
                "tempo": 0
            },
            {
                "pitch": 66,
                "velocity": 10,
                "duration": 0.1159,
                "tempo": 120.0
            },
            {
                "pitch": 71,
                "velocity": 10,
                "duration": 0.2409,
                "tempo": 120.0
            },
            {
                "pitch": 66,
                "velocity": 10,
                "duration": 0.1364,
                "tempo": 120.0
            },
            {
                "pitch": 78,
                "velocity": 10,
                "duration": 0.2341,
                "tempo": 120.0
            },
            {
                "pitch": 0,
                "velocity": 0,
                "duration": 0.0023,
                "tempo": 0
            },
            {
                "pitch": 66,
                "velocity": 10,
                "duration": 0.1159,
                "tempo": 120.0
            },
            {
                "pitch": 71,
                "velocity": 10,
                "duration": 0.25,
                "tempo": 120.0
            },
            {
                "pitch": 66,
                "velocity": 10,
                "duration": 0.1136,
                "tempo": 120.0
            },
            {
                "pitch": 0,
                "velocity": 0,
                "duration": 0.0023,
                "tempo": 0
            },
            {
                "pitch": 71,
                "velocity": 10,
                "duration": 0.2295,
                "tempo": 120.0
            },
            {
                "pitch": 66,
                "velocity": 10,
                "duration": 0.2523,
                "tempo": 120.0
            },
            {
                "pitch": 78,
                "velocity": 10,
                "duration": 0.2364,
                "tempo": 120.0
            },
            {
                "pitch": 66,
                "velocity": 10,
                "duration": 0.1159,
                "tempo": 120.0
            },
            {
                "pitch": 71,
                "velocity": 10,
                "duration": 0.2523,
                "tempo": 120.0
            },
            {
                "pitch": 66,
                "velocity": 10,
                "duration": 0.1182,
                "tempo": 120.0
            },
            {
                "pitch": 78,
                "velocity": 10,
                "duration": 0.2386,
                "tempo": 120.0
            },
            {
                "pitch": 66,
                "velocity": 10,
                "duration": 0.1205,
                "tempo": 120.0
            },
            {
                "pitch": 71,
                "velocity": 10,
                "duration": 0.2545,
                "tempo": 120.0
            },
            {
                "pitch": 66,
                "velocity": 10,
                "duration": 0.1182,
                "tempo": 120.0
            },
            {
                "pitch": 71,
                "velocity": 10,
                "duration": 0.2341,
                "tempo": 120.0
            },
            {
                "pitch": 0,
                "velocity": 0,
                "duration": 0.0023,
                "tempo": 0
            },
            {
                "pitch": 66,
                "velocity": 10,
                "duration": 0.2455,
                "tempo": 120.0
            },
            {
                "pitch": 78,
                "velocity": 10,
                "duration": 0.2318,
                "tempo": 120.0
            },
            {
                "pitch": 64,
                "velocity": 10,
                "duration": 0.1136,
                "tempo": 120.0
            },
            {
                "pitch": 71,
                "velocity": 10,
                "duration": 0.25,
                "tempo": 120.0
            },
            {
                "pitch": 0,
                "velocity": 0,
                "duration": 0.0023,
                "tempo": 0
            },
            {
                "pitch": 64,
                "velocity": 10,
                "duration": 0.1159,
                "tempo": 120.0
            },
            {
                "pitch": 76,
                "velocity": 10,
                "duration": 0.2386,
                "tempo": 120.0
            },
            {
                "pitch": 64,
                "velocity": 10,
                "duration": 0.1364,
                "tempo": 120.0
            },
            {
                "pitch": 71,
                "velocity": 10,
                "duration": 0.2386,
                "tempo": 120.0
            },
            {
                "pitch": 64,
                "velocity": 10,
                "duration": 0.1182,
                "tempo": 120.0
            },
            {
                "pitch": 71,
                "velocity": 10,
                "duration": 0.2523,
                "tempo": 120.0
            },
            {
                "pitch": 64,
                "velocity": 10,
                "duration": 0.2386,
                "tempo": 120.0
            },
            {
                "pitch": 76,
                "velocity": 10,
                "duration": 0.2409,
                "tempo": 120.0
            },
            {
                "pitch": 64,
                "velocity": 10,
                "duration": 0.125,
                "tempo": 120.0
            },
            {
                "pitch": 71,
                "velocity": 10,
                "duration": 0.225,
                "tempo": 120.0
            },
            {
                "pitch": 0,
                "velocity": 0,
                "duration": 0.0023,
                "tempo": 0
            },
            {
                "pitch": 64,
                "velocity": 10,
                "duration": 0.1114,
                "tempo": 120.0
            },
            {
                "pitch": 76,
                "velocity": 10,
                "duration": 0.2568,
                "tempo": 120.0
            },
            {
                "pitch": 64,
                "velocity": 10,
                "duration": 0.1182,
                "tempo": 120.0
            },
            {
                "pitch": 71,
                "velocity": 10,
                "duration": 0.2386,
                "tempo": 120.0
            },
            {
                "pitch": 64,
                "velocity": 10,
                "duration": 0.1182,
                "tempo": 120.0
            },
            {
                "pitch": 71,
                "velocity": 10,
                "duration": 0.2523,
                "tempo": 120.0
            },
            {
                "pitch": 64,
                "velocity": 10,
                "duration": 0.2341,
                "tempo": 120.0
            },
            {
                "pitch": 76,
                "velocity": 10,
                "duration": 0.2545,
                "tempo": 120.0
            },
            {
                "pitch": 66,
                "velocity": 10,
                "duration": 0.1182,
                "tempo": 120.0
            },
            {
                "pitch": 73,
                "velocity": 10,
                "duration": 0.2386,
                "tempo": 120.0
            },
            {
                "pitch": 66,
                "velocity": 10,
                "duration": 0.1205,
                "tempo": 120.0
            },
            {
                "pitch": 78,
                "velocity": 10,
                "duration": 0.2455,
                "tempo": 120.0
            },
            {
                "pitch": 66,
                "velocity": 10,
                "duration": 0.1159,
                "tempo": 120.0
            },
            {
                "pitch": 73,
                "velocity": 10,
                "duration": 0.2318,
                "tempo": 120.0
            },
            {
                "pitch": 66,
                "velocity": 10,
                "duration": 0.1341,
                "tempo": 120.0
            },
            {
                "pitch": 0,
                "velocity": 0,
                "duration": 0.0023,
                "tempo": 0
            },
            {
                "pitch": 73,
                "velocity": 10,
                "duration": 0.2341,
                "tempo": 120.0
            },
            {
                "pitch": 66,
                "velocity": 10,
                "duration": 0.2364,
                "tempo": 120.0
            },
            {
                "pitch": 78,
                "velocity": 10,
                "duration": 0.2523,
                "tempo": 120.0
            },
            {
                "pitch": 0,
                "velocity": 0,
                "duration": 0.0023,
                "tempo": 0
            },
            {
                "pitch": 66,
                "velocity": 10,
                "duration": 0.1159,
                "tempo": 120.0
            },
            {
                "pitch": 71,
                "velocity": 10,
                "duration": 0.2409,
                "tempo": 120.0
            },
            {
                "pitch": 66,
                "velocity": 10,
                "duration": 0.1364,
                "tempo": 120.0
            },
            {
                "pitch": 78,
                "velocity": 10,
                "duration": 0.2364,
                "tempo": 120.0
            },
            {
                "pitch": 66,
                "velocity": 10,
                "duration": 0.1159,
                "tempo": 120.0
            },
            {
                "pitch": 71,
                "velocity": 10,
                "duration": 0.25,
                "tempo": 120.0
            },
            {
                "pitch": 66,
                "velocity": 10,
                "duration": 0.1136,
                "tempo": 120.0
            },
            {
                "pitch": 0,
                "velocity": 0,
                "duration": 0.0023,
                "tempo": 0
            },
            {
                "pitch": 71,
                "velocity": 10,
                "duration": 0.2295,
                "tempo": 120.0
            },
            {
                "pitch": 66,
                "velocity": 10,
                "duration": 0.2523,
                "tempo": 120.0
            },
            {
                "pitch": 78,
                "velocity": 10,
                "duration": 0.2364,
                "tempo": 120.0
            },
            {
                "pitch": 66,
                "velocity": 10,
                "duration": 0.1182,
                "tempo": 120.0
            },
            {
                "pitch": 71,
                "velocity": 10,
                "duration": 0.2568,
                "tempo": 120.0
            },
            {
                "pitch": 66,
                "velocity": 10,
                "duration": 0.1182,
                "tempo": 120.0
            },
            {
                "pitch": 78,
                "velocity": 10,
                "duration": 0.2364,
                "tempo": 120.0
            },
            {
                "pitch": 66,
                "velocity": 10,
                "duration": 0.1182,
                "tempo": 120.0
            },
            {
                "pitch": 71,
                "velocity": 10,
                "duration": 0.2523,
                "tempo": 120.0
            },
            {
                "pitch": 66,
                "velocity": 10,
                "duration": 0.1159,
                "tempo": 120.0
            },
            {
                "pitch": 71,
                "velocity": 10,
                "duration": 0.2341,
                "tempo": 120.0
            },
            {
                "pitch": 66,
                "velocity": 10,
                "duration": 0.2523,
                "tempo": 120.0
            },
            {
                "pitch": 78,
                "velocity": 10,
                "duration": 0.2364,
                "tempo": 120.0
            },
            {
                "pitch": 79,
                "velocity": 7,
                "duration": 0.25,
                "tempo": 120.0
            },
            {
                "pitch": 67,
                "velocity": 7,
                "duration": 0.1159,
                "tempo": 120.0
            },
            {
                "pitch": 74,
                "velocity": 7,
                "duration": 0.2318,
                "tempo": 120.0
            },
            {
                "pitch": 0,
                "velocity": 0,
                "duration": 0.0023,
                "tempo": 0
            },
            {
                "pitch": 67,
                "velocity": 7,
                "duration": 0.1182,
                "tempo": 120.0
            },
            {
                "pitch": 79,
                "velocity": 7,
                "duration": 0.2523,
                "tempo": 120.0
            },
            {
                "pitch": 67,
                "velocity": 7,
                "duration": 0.1159,
                "tempo": 120.0
            },
            {
                "pitch": 74,
                "velocity": 7,
                "duration": 0.2341,
                "tempo": 120.0
            },
            {
                "pitch": 67,
                "velocity": 7,
                "duration": 0.1341,
                "tempo": 120.0
            },
            {
                "pitch": 74,
                "velocity": 7,
                "duration": 0.2386,
                "tempo": 120.0
            },
            {
                "pitch": 67,
                "velocity": 7,
                "duration": 0.2409,
                "tempo": 120.0
            },
            {
                "pitch": 79,
                "velocity": 7,
                "duration": 0.2455,
                "tempo": 120.0
            },
            {
                "pitch": 67,
                "velocity": 7,
                "duration": 0.1136,
                "tempo": 120.0
            },
            {
                "pitch": 0,
                "velocity": 0,
                "duration": 0.0023,
                "tempo": 0
            },
            {
                "pitch": 74,
                "velocity": 7,
                "duration": 0.2295,
                "tempo": 120.0
            },
            {
                "pitch": 67,
                "velocity": 7,
                "duration": 0.1364,
                "tempo": 120.0
            },
            {
                "pitch": 79,
                "velocity": 7,
                "duration": 0.2318,
                "tempo": 120.0
            },
            {
                "pitch": 67,
                "velocity": 7,
                "duration": 0.1182,
                "tempo": 120.0
            },
            {
                "pitch": 74,
                "velocity": 7,
                "duration": 0.2523,
                "tempo": 120.0
            },
            {
                "pitch": 67,
                "velocity": 7,
                "duration": 0.1182,
                "tempo": 120.0
            },
            {
                "pitch": 0,
                "velocity": 0,
                "duration": 0.0023,
                "tempo": 0
            },
            {
                "pitch": 74,
                "velocity": 7,
                "duration": 0.2364,
                "tempo": 120.0
            },
            {
                "pitch": 67,
                "velocity": 7,
                "duration": 0.2591,
                "tempo": 120.0
            },
            {
                "pitch": 79,
                "velocity": 7,
                "duration": 0.2341,
                "tempo": 120.0
            },
            {
                "pitch": 67,
                "velocity": 7,
                "duration": 0.1159,
                "tempo": 120.0
            },
            {
                "pitch": 74,
                "velocity": 7,
                "duration": 0.2477,
                "tempo": 120.0
            },
            {
                "pitch": 67,
                "velocity": 7,
                "duration": 0.1182,
                "tempo": 120.0
            },
            {
                "pitch": 79,
                "velocity": 7,
                "duration": 0.2295,
                "tempo": 120.0
            },
            {
                "pitch": 67,
                "velocity": 7,
                "duration": 0.1159,
                "tempo": 120.0
            },
            {
                "pitch": 74,
                "velocity": 7,
                "duration": 0.25,
                "tempo": 120.0
            },
            {
                "pitch": 67,
                "velocity": 7,
                "duration": 0.1182,
                "tempo": 120.0
            },
            {
                "pitch": 74,
                "velocity": 7,
                "duration": 0.2386,
                "tempo": 120.0
            },
            {
                "pitch": 67,
                "velocity": 7,
                "duration": 0.2568,
                "tempo": 120.0
            },
            {
                "pitch": 79,
                "velocity": 7,
                "duration": 0.2341,
                "tempo": 120.0
            },
            {
                "pitch": 67,
                "velocity": 7,
                "duration": 0.1182,
                "tempo": 120.0
            },
            {
                "pitch": 74,
                "velocity": 7,
                "duration": 0.25,
                "tempo": 120.0
            },
            {
                "pitch": 67,
                "velocity": 7,
                "duration": 0.1205,
                "tempo": 120.0
            },
            {
                "pitch": 79,
                "velocity": 7,
                "duration": 0.2318,
                "tempo": 120.0
            },
            {
                "pitch": 67,
                "velocity": 7,
                "duration": 0.1318,
                "tempo": 120.0
            },
            {
                "pitch": 74,
                "velocity": 7,
                "duration": 0.2295,
                "tempo": 120.0
            },
            {
                "pitch": 67,
                "velocity": 7,
                "duration": 0.1159,
                "tempo": 120.0
            },
            {
                "pitch": 74,
                "velocity": 7,
                "duration": 0.2568,
                "tempo": 120.0
            },
            {
                "pitch": 67,
                "velocity": 7,
                "duration": 0.2386,
                "tempo": 120.0
            },
            {
                "pitch": 79,
                "velocity": 7,
                "duration": 0.2318,
                "tempo": 120.0
            },
            {
                "pitch": 0,
                "velocity": 0,
                "duration": 0.0023,
                "tempo": 0
            },
            {
                "pitch": 67,
                "velocity": 7,
                "duration": 0.1318,
                "tempo": 120.0
            },
            {
                "pitch": 74,
                "velocity": 7,
                "duration": 0.2341,
                "tempo": 120.0
            },
            {
                "pitch": 67,
                "velocity": 7,
                "duration": 0.1182,
                "tempo": 120.0
            },
            {
                "pitch": 0,
                "velocity": 0,
                "duration": 0.0023,
                "tempo": 0
            },
            {
                "pitch": 79,
                "velocity": 7,
                "duration": 0.25,
                "tempo": 120.0
            },
            {
                "pitch": 67,
                "velocity": 7,
                "duration": 0.1205,
                "tempo": 120.0
            },
            {
                "pitch": 74,
                "velocity": 7,
                "duration": 0.2386,
                "tempo": 120.0
            },
            {
                "pitch": 67,
                "velocity": 7,
                "duration": 0.1205,
                "tempo": 120.0
            },
            {
                "pitch": 74,
                "velocity": 7,
                "duration": 0.2455,
                "tempo": 120.0
            },
            {
                "pitch": 67,
                "velocity": 7,
                "duration": 0.2318,
                "tempo": 120.0
            },
            {
                "pitch": 79,
                "velocity": 7,
                "duration": 0.25,
                "tempo": 120.0
            },
            {
                "pitch": 67,
                "velocity": 7,
                "duration": 0.1159,
                "tempo": 120.0
            },
            {
                "pitch": 74,
                "velocity": 7,
                "duration": 0.2318,
                "tempo": 120.0
            },
            {
                "pitch": 67,
                "velocity": 7,
                "duration": 0.1205,
                "tempo": 120.0
            },
            {
                "pitch": 0,
                "velocity": 0,
                "duration": 0.0023,
                "tempo": 0
            },
            {
                "pitch": 79,
                "velocity": 7,
                "duration": 0.25,
                "tempo": 120.0
            },
            {
                "pitch": 67,
                "velocity": 7,
                "duration": 0.1159,
                "tempo": 120.0
            },
            {
                "pitch": 74,
                "velocity": 7,
                "duration": 0.2341,
                "tempo": 120.0
            },
            {
                "pitch": 67,
                "velocity": 7,
                "duration": 0.1364,
                "tempo": 120.0
            },
            {
                "pitch": 74,
                "velocity": 7,
                "duration": 0.2386,
                "tempo": 120.0
            },
            {
                "pitch": 67,
                "velocity": 7,
                "duration": 0.2386,
                "tempo": 120.0
            },
            {
                "pitch": 79,
                "velocity": 7,
                "duration": 0.2455,
                "tempo": 120.0
            },
            {
                "pitch": 67,
                "velocity": 7,
                "duration": 0.1136,
                "tempo": 120.0
            },
            {
                "pitch": 0,
                "velocity": 0,
                "duration": 0.0023,
                "tempo": 0
            },
            {
                "pitch": 74,
                "velocity": 7,
                "duration": 0.2295,
                "tempo": 120.0
            },
            {
                "pitch": 67,
                "velocity": 7,
                "duration": 0.1364,
                "tempo": 120.0
            },
            {
                "pitch": 79,
                "velocity": 7,
                "duration": 0.2318,
                "tempo": 120.0
            },
            {
                "pitch": 67,
                "velocity": 7,
                "duration": 0.1182,
                "tempo": 120.0
            },
            {
                "pitch": 74,
                "velocity": 7,
                "duration": 0.2523,
                "tempo": 120.0
            },
            {
                "pitch": 67,
                "velocity": 7,
                "duration": 0.1182,
                "tempo": 120.0
            },
            {
                "pitch": 74,
                "velocity": 7,
                "duration": 0.2386,
                "tempo": 120.0
            },
            {
                "pitch": 67,
                "velocity": 7,
                "duration": 0.2568,
                "tempo": 120.0
            },
            {
                "pitch": 0,
                "velocity": 0,
                "duration": 0.0023,
                "tempo": 0
            },
            {
                "pitch": 79,
                "velocity": 7,
                "duration": 0.2318,
                "tempo": 120.0
            },
            {
                "pitch": 67,
                "velocity": 7,
                "duration": 0.1159,
                "tempo": 120.0
            },
            {
                "pitch": 74,
                "velocity": 7,
                "duration": 0.2455,
                "tempo": 120.0
            },
            {
                "pitch": 0,
                "velocity": 0,
                "duration": 0.0023,
                "tempo": 0
            },
            {
                "pitch": 67,
                "velocity": 7,
                "duration": 0.1159,
                "tempo": 120.0
            },
            {
                "pitch": 79,
                "velocity": 7,
                "duration": 0.2295,
                "tempo": 120.0
            },
            {
                "pitch": 67,
                "velocity": 7,
                "duration": 0.1182,
                "tempo": 120.0
            },
            {
                "pitch": 74,
                "velocity": 7,
                "duration": 0.25,
                "tempo": 120.0
            },
            {
                "pitch": 0,
                "velocity": 0,
                "duration": 0.0023,
                "tempo": 0
            },
            {
                "pitch": 67,
                "velocity": 7,
                "duration": 0.1182,
                "tempo": 120.0
            },
            {
                "pitch": 74,
                "velocity": 7,
                "duration": 0.2386,
                "tempo": 120.0
            },
            {
                "pitch": 0,
                "velocity": 0,
                "duration": 0.0023,
                "tempo": 0
            },
            {
                "pitch": 67,
                "velocity": 7,
                "duration": 0.2568,
                "tempo": 120.0
            },
            {
                "pitch": 65,
                "velocity": 10,
                "duration": 0.1136,
                "tempo": 120.0
            },
            {
                "pitch": 72,
                "velocity": 10,
                "duration": 0.2364,
                "tempo": 120.0
            },
            {
                "pitch": 65,
                "velocity": 10,
                "duration": 0.1364,
                "tempo": 120.0
            },
            {
                "pitch": 77,
                "velocity": 10,
                "duration": 0.2386,
                "tempo": 120.0
            },
            {
                "pitch": 65,
                "velocity": 10,
                "duration": 0.1182,
                "tempo": 120.0
            },
            {
                "pitch": 0,
                "velocity": 0,
                "duration": 0.0023,
                "tempo": 0
            },
            {
                "pitch": 72,
                "velocity": 10,
                "duration": 0.2455,
                "tempo": 120.0
            },
            {
                "pitch": 0,
                "velocity": 0,
                "duration": 0.0023,
                "tempo": 0
            },
            {
                "pitch": 65,
                "velocity": 10,
                "duration": 0.1114,
                "tempo": 120.0
            },
            {
                "pitch": 72,
                "velocity": 10,
                "duration": 0.225,
                "tempo": 120.0
            },
            {
                "pitch": 65,
                "velocity": 10,
                "duration": 0.2568,
                "tempo": 120.0
            },
            {
                "pitch": 77,
                "velocity": 10,
                "duration": 0.2386,
                "tempo": 120.0
            },
            {
                "pitch": 65,
                "velocity": 10,
                "duration": 0.1159,
                "tempo": 120.0
            },
            {
                "pitch": 70,
                "velocity": 10,
                "duration": 0.25,
                "tempo": 120.0
            },
            {
                "pitch": 65,
                "velocity": 10,
                "duration": 0.1182,
                "tempo": 120.0
            },
            {
                "pitch": 77,
                "velocity": 10,
                "duration": 0.2386,
                "tempo": 120.0
            },
            {
                "pitch": 65,
                "velocity": 10,
                "duration": 0.1205,
                "tempo": 120.0
            },
            {
                "pitch": 70,
                "velocity": 10,
                "duration": 0.2545,
                "tempo": 120.0
            },
            {
                "pitch": 65,
                "velocity": 10,
                "duration": 0.1159,
                "tempo": 120.0
            },
            {
                "pitch": 70,
                "velocity": 10,
                "duration": 0.2364,
                "tempo": 120.0
            },
            {
                "pitch": 65,
                "velocity": 10,
                "duration": 0.2477,
                "tempo": 120.0
            },
            {
                "pitch": 77,
                "velocity": 10,
                "duration": 0.2295,
                "tempo": 120.0
            },
            {
                "pitch": 67,
                "velocity": 10,
                "duration": 0.1159,
                "tempo": 120.0
            },
            {
                "pitch": 72,
                "velocity": 10,
                "duration": 0.2523,
                "tempo": 120.0
            },
            {
                "pitch": 67,
                "velocity": 10,
                "duration": 0.1159,
                "tempo": 120.0
            },
            {
                "pitch": 79,
                "velocity": 10,
                "duration": 0.2386,
                "tempo": 120.0
            },
            {
                "pitch": 67,
                "velocity": 10,
                "duration": 0.1386,
                "tempo": 120.0
            },
            {
                "pitch": 72,
                "velocity": 10,
                "duration": 0.2364,
                "tempo": 120.0
            },
            {
                "pitch": 67,
                "velocity": 10,
                "duration": 0.1136,
                "tempo": 120.0
            },
            {
                "pitch": 72,
                "velocity": 10,
                "duration": 0.2523,
                "tempo": 120.0
            },
            {
                "pitch": 67,
                "velocity": 10,
                "duration": 0.2386,
                "tempo": 120.0
            },
            {
                "pitch": 79,
                "velocity": 10,
                "duration": 0.2409,
                "tempo": 120.0
            },
            {
                "pitch": 67,
                "velocity": 10,
                "duration": 0.125,
                "tempo": 120.0
            },
            {
                "pitch": 72,
                "velocity": 10,
                "duration": 0.2273,
                "tempo": 120.0
            },
            {
                "pitch": 67,
                "velocity": 10,
                "duration": 0.1114,
                "tempo": 120.0
            },
            {
                "pitch": 79,
                "velocity": 10,
                "duration": 0.25,
                "tempo": 120.0
            },
            {
                "pitch": 67,
                "velocity": 10,
                "duration": 0.1182,
                "tempo": 120.0
            },
            {
                "pitch": 72,
                "velocity": 10,
                "duration": 0.2364,
                "tempo": 120.0
            },
            {
                "pitch": 67,
                "velocity": 10,
                "duration": 0.1182,
                "tempo": 120.0
            },
            {
                "pitch": 72,
                "velocity": 10,
                "duration": 0.2568,
                "tempo": 120.0
            },
            {
                "pitch": 67,
                "velocity": 10,
                "duration": 0.2364,
                "tempo": 120.0
            },
            {
                "pitch": 79,
                "velocity": 10,
                "duration": 0.2523,
                "tempo": 120.0
            },
            {
                "pitch": 65,
                "velocity": 10,
                "duration": 0.1182,
                "tempo": 120.0
            },
            {
                "pitch": 72,
                "velocity": 10,
                "duration": 0.2409,
                "tempo": 120.0
            },
            {
                "pitch": 65,
                "velocity": 10,
                "duration": 0.1205,
                "tempo": 120.0
            },
            {
                "pitch": 77,
                "velocity": 10,
                "duration": 0.2455,
                "tempo": 120.0
            },
            {
                "pitch": 65,
                "velocity": 10,
                "duration": 0.1159,
                "tempo": 120.0
            },
            {
                "pitch": 72,
                "velocity": 10,
                "duration": 0.2318,
                "tempo": 120.0
            },
            {
                "pitch": 65,
                "velocity": 10,
                "duration": 0.1341,
                "tempo": 120.0
            },
            {
                "pitch": 72,
                "velocity": 10,
                "duration": 0.2364,
                "tempo": 120.0
            },
            {
                "pitch": 65,
                "velocity": 10,
                "duration": 0.2341,
                "tempo": 120.0
            },
            {
                "pitch": 77,
                "velocity": 10,
                "duration": 0.25,
                "tempo": 120.0
            },
            {
                "pitch": 65,
                "velocity": 10,
                "duration": 0.1182,
                "tempo": 120.0
            },
            {
                "pitch": 72,
                "velocity": 10,
                "duration": 0.2386,
                "tempo": 120.0
            },
            {
                "pitch": 0,
                "velocity": 0,
                "duration": 0.0023,
                "tempo": 0
            },
            {
                "pitch": 65,
                "velocity": 10,
                "duration": 0.1364,
                "tempo": 120.0
            },
            {
                "pitch": 77,
                "velocity": 10,
                "duration": 0.2341,
                "tempo": 120.0
            },
            {
                "pitch": 65,
                "velocity": 10,
                "duration": 0.1182,
                "tempo": 120.0
            },
            {
                "pitch": 72,
                "velocity": 10,
                "duration": 0.25,
                "tempo": 120.0
            },
            {
                "pitch": 65,
                "velocity": 10,
                "duration": 0.1136,
                "tempo": 120.0
            },
            {
                "pitch": 72,
                "velocity": 10,
                "duration": 0.2295,
                "tempo": 120.0
            },
            {
                "pitch": 0,
                "velocity": 0,
                "duration": 0.0023,
                "tempo": 0
            },
            {
                "pitch": 65,
                "velocity": 10,
                "duration": 0.25,
                "tempo": 120.0
            },
            {
                "pitch": 77,
                "velocity": 10,
                "duration": 0.2341,
                "tempo": 120.0
            },
            {
                "pitch": 67,
                "velocity": 10,
                "duration": 0.1182,
                "tempo": 120.0
            },
            {
                "pitch": 74,
                "velocity": 10,
                "duration": 0.2568,
                "tempo": 120.0
            },
            {
                "pitch": 67,
                "velocity": 10,
                "duration": 0.1205,
                "tempo": 120.0
            },
            {
                "pitch": 79,
                "velocity": 10,
                "duration": 0.2318,
                "tempo": 120.0
            },
            {
                "pitch": 67,
                "velocity": 10,
                "duration": 0.1182,
                "tempo": 120.0
            },
            {
                "pitch": 74,
                "velocity": 10,
                "duration": 0.25,
                "tempo": 120.0
            },
            {
                "pitch": 67,
                "velocity": 10,
                "duration": 0.1182,
                "tempo": 120.0
            },
            {
                "pitch": 74,
                "velocity": 10,
                "duration": 0.2364,
                "tempo": 120.0
            },
            {
                "pitch": 67,
                "velocity": 10,
                "duration": 0.2477,
                "tempo": 120.0
            },
            {
                "pitch": 79,
                "velocity": 10,
                "duration": 0.2295,
                "tempo": 120.0
            },
            {
                "pitch": 67,
                "velocity": 10,
                "duration": 0.1136,
                "tempo": 120.0
            },
            {
                "pitch": 72,
                "velocity": 10,
                "duration": 0.2523,
                "tempo": 120.0
            },
            {
                "pitch": 67,
                "velocity": 10,
                "duration": 0.1159,
                "tempo": 120.0
            },
            {
                "pitch": 79,
                "velocity": 10,
                "duration": 0.2386,
                "tempo": 120.0
            },
            {
                "pitch": 0,
                "velocity": 0,
                "duration": 0.0023,
                "tempo": 0
            },
            {
                "pitch": 67,
                "velocity": 10,
                "duration": 0.1364,
                "tempo": 120.0
            },
            {
                "pitch": 72,
                "velocity": 10,
                "duration": 0.2364,
                "tempo": 120.0
            },
            {
                "pitch": 67,
                "velocity": 10,
                "duration": 0.1159,
                "tempo": 120.0
            },
            {
                "pitch": 72,
                "velocity": 10,
                "duration": 0.25,
                "tempo": 120.0
            },
            {
                "pitch": 67,
                "velocity": 10,
                "duration": 0.2364,
                "tempo": 120.0
            },
            {
                "pitch": 79,
                "velocity": 10,
                "duration": 0.2364,
                "tempo": 120.0
            },
            {
                "pitch": 67,
                "velocity": 10,
                "duration": 0.1295,
                "tempo": 120.0
            },
            {
                "pitch": 72,
                "velocity": 10,
                "duration": 0.2318,
                "tempo": 120.0
            },
            {
                "pitch": 67,
                "velocity": 10,
                "duration": 0.1136,
                "tempo": 120.0
            },
            {
                "pitch": 79,
                "velocity": 10,
                "duration": 0.2568,
                "tempo": 120.0
            },
            {
                "pitch": 67,
                "velocity": 10,
                "duration": 0.1205,
                "tempo": 120.0
            },
            {
                "pitch": 72,
                "velocity": 10,
                "duration": 0.2364,
                "tempo": 120.0
            },
            {
                "pitch": 67,
                "velocity": 10,
                "duration": 0.1159,
                "tempo": 120.0
            },
            {
                "pitch": 72,
                "velocity": 10,
                "duration": 0.2545,
                "tempo": 120.0
            },
            {
                "pitch": 67,
                "velocity": 10,
                "duration": 0.2341,
                "tempo": 120.0
            },
            {
                "pitch": 0,
                "velocity": 0,
                "duration": 0.0023,
                "tempo": 0
            },
            {
                "pitch": 79,
                "velocity": 10,
                "duration": 0.2523,
                "tempo": 120.0
            },
            {
                "pitch": 64,
                "velocity": 10,
                "duration": 0.1182,
                "tempo": 120.0
            },
            {
                "pitch": 71,
                "velocity": 10,
                "duration": 0.2386,
                "tempo": 120.0
            },
            {
                "pitch": 64,
                "velocity": 10,
                "duration": 0.1205,
                "tempo": 120.0
            },
            {
                "pitch": 76,
                "velocity": 10,
                "duration": 0.2455,
                "tempo": 120.0
            },
            {
                "pitch": 0,
                "velocity": 0,
                "duration": 0.0023,
                "tempo": 0
            },
            {
                "pitch": 64,
                "velocity": 10,
                "duration": 0.1136,
                "tempo": 120.0
            },
            {
                "pitch": 71,
                "velocity": 10,
                "duration": 0.2318,
                "tempo": 120.0
            },
            {
                "pitch": 0,
                "velocity": 0,
                "duration": 0.0023,
                "tempo": 0
            },
            {
                "pitch": 64,
                "velocity": 10,
                "duration": 0.1318,
                "tempo": 120.0
            },
            {
                "pitch": 71,
                "velocity": 10,
                "duration": 0.2364,
                "tempo": 120.0
            },
            {
                "pitch": 64,
                "velocity": 10,
                "duration": 0.2364,
                "tempo": 120.0
            },
            {
                "pitch": 76,
                "velocity": 10,
                "duration": 0.2523,
                "tempo": 120.0
            },
            {
                "pitch": 64,
                "velocity": 10,
                "duration": 0.1182,
                "tempo": 120.0
            },
            {
                "pitch": 69,
                "velocity": 10,
                "duration": 0.2409,
                "tempo": 120.0
            },
            {
                "pitch": 64,
                "velocity": 10,
                "duration": 0.1364,
                "tempo": 120.0
            },
            {
                "pitch": 76,
                "velocity": 10,
                "duration": 0.2364,
                "tempo": 120.0
            },
            {
                "pitch": 64,
                "velocity": 10,
                "duration": 0.1159,
                "tempo": 120.0
            },
            {
                "pitch": 0,
                "velocity": 0,
                "duration": 0.0023,
                "tempo": 0
            },
            {
                "pitch": 69,
                "velocity": 10,
                "duration": 0.2477,
                "tempo": 120.0
            },
            {
                "pitch": 64,
                "velocity": 10,
                "duration": 0.1136,
                "tempo": 120.0
            },
            {
                "pitch": 69,
                "velocity": 10,
                "duration": 0.2318,
                "tempo": 120.0
            },
            {
                "pitch": 64,
                "velocity": 10,
                "duration": 0.2523,
                "tempo": 120.0
            },
            {
                "pitch": 76,
                "velocity": 10,
                "duration": 0.2364,
                "tempo": 120.0
            },
            {
                "pitch": 66,
                "velocity": 10,
                "duration": 0.1182,
                "tempo": 120.0
            },
            {
                "pitch": 71,
                "velocity": 10,
                "duration": 0.2568,
                "tempo": 120.0
            },
            {
                "pitch": 66,
                "velocity": 10,
                "duration": 0.1205,
                "tempo": 120.0
            },
            {
                "pitch": 78,
                "velocity": 10,
                "duration": 0.2341,
                "tempo": 120.0
            },
            {
                "pitch": 66,
                "velocity": 10,
                "duration": 0.1205,
                "tempo": 120.0
            },
            {
                "pitch": 71,
                "velocity": 10,
                "duration": 0.25,
                "tempo": 120.0
            },
            {
                "pitch": 66,
                "velocity": 10,
                "duration": 0.1159,
                "tempo": 120.0
            },
            {
                "pitch": 71,
                "velocity": 10,
                "duration": 0.2341,
                "tempo": 120.0
            },
            {
                "pitch": 66,
                "velocity": 10,
                "duration": 0.2477,
                "tempo": 120.0
            },
            {
                "pitch": 78,
                "velocity": 10,
                "duration": 0.2295,
                "tempo": 120.0
            },
            {
                "pitch": 66,
                "velocity": 10,
                "duration": 0.1182,
                "tempo": 120.0
            },
            {
                "pitch": 71,
                "velocity": 10,
                "duration": 0.2568,
                "tempo": 120.0
            },
            {
                "pitch": 66,
                "velocity": 10,
                "duration": 0.1205,
                "tempo": 120.0
            },
            {
                "pitch": 78,
                "velocity": 10,
                "duration": 0.2341,
                "tempo": 120.0
            },
            {
                "pitch": 66,
                "velocity": 10,
                "duration": 0.1341,
                "tempo": 120.0
            },
            {
                "pitch": 71,
                "velocity": 10,
                "duration": 0.2341,
                "tempo": 120.0
            },
            {
                "pitch": 0,
                "velocity": 0,
                "duration": 0.0023,
                "tempo": 0
            },
            {
                "pitch": 66,
                "velocity": 10,
                "duration": 0.1136,
                "tempo": 120.0
            },
            {
                "pitch": 0,
                "velocity": 0,
                "duration": 0.0023,
                "tempo": 0
            },
            {
                "pitch": 71,
                "velocity": 10,
                "duration": 0.25,
                "tempo": 120.0
            },
            {
                "pitch": 66,
                "velocity": 10,
                "duration": 0.2386,
                "tempo": 120.0
            },
            {
                "pitch": 78,
                "velocity": 10,
                "duration": 0.2409,
                "tempo": 120.0
            },
            {
                "pitch": 64,
                "velocity": 10,
                "duration": 0.1295,
                "tempo": 120.0
            },
            {
                "pitch": 71,
                "velocity": 10,
                "duration": 0.2318,
                "tempo": 120.0
            },
            {
                "pitch": 64,
                "velocity": 10,
                "duration": 0.1159,
                "tempo": 120.0
            },
            {
                "pitch": 76,
                "velocity": 10,
                "duration": 0.2477,
                "tempo": 120.0
            },
            {
                "pitch": 0,
                "velocity": 0,
                "duration": 0.0023,
                "tempo": 0
            },
            {
                "pitch": 64,
                "velocity": 10,
                "duration": 0.1159,
                "tempo": 120.0
            },
            {
                "pitch": 71,
                "velocity": 10,
                "duration": 0.2341,
                "tempo": 120.0
            },
            {
                "pitch": 0,
                "velocity": 0,
                "duration": 0.0023,
                "tempo": 0
            },
            {
                "pitch": 64,
                "velocity": 10,
                "duration": 0.1159,
                "tempo": 120.0
            },
            {
                "pitch": 71,
                "velocity": 10,
                "duration": 0.2523,
                "tempo": 120.0
            },
            {
                "pitch": 64,
                "velocity": 10,
                "duration": 0.2409,
                "tempo": 120.0
            },
            {
                "pitch": 76,
                "velocity": 10,
                "duration": 0.2545,
                "tempo": 120.0
            },
            {
                "pitch": 64,
                "velocity": 10,
                "duration": 0.1159,
                "tempo": 120.0
            },
            {
                "pitch": 71,
                "velocity": 10,
                "duration": 0.2341,
                "tempo": 120.0
            },
            {
                "pitch": 64,
                "velocity": 10,
                "duration": 0.1182,
                "tempo": 120.0
            },
            {
                "pitch": 76,
                "velocity": 10,
                "duration": 0.2455,
                "tempo": 120.0
            },
            {
                "pitch": 64,
                "velocity": 10,
                "duration": 0.1159,
                "tempo": 120.0
            },
            {
                "pitch": 71,
                "velocity": 10,
                "duration": 0.2318,
                "tempo": 120.0
            },
            {
                "pitch": 64,
                "velocity": 10,
                "duration": 0.1341,
                "tempo": 120.0
            },
            {
                "pitch": 71,
                "velocity": 10,
                "duration": 0.2364,
                "tempo": 120.0
            },
            {
                "pitch": 64,
                "velocity": 10,
                "duration": 0.2409,
                "tempo": 120.0
            },
            {
                "pitch": 76,
                "velocity": 10,
                "duration": 0.2545,
                "tempo": 120.0
            },
            {
                "pitch": 66,
                "velocity": 10,
                "duration": 0.1159,
                "tempo": 120.0
            },
            {
                "pitch": 73,
                "velocity": 10,
                "duration": 0.2364,
                "tempo": 120.0
            },
            {
                "pitch": 66,
                "velocity": 10,
                "duration": 0.1364,
                "tempo": 120.0
            },
            {
                "pitch": 78,
                "velocity": 10,
                "duration": 0.2341,
                "tempo": 120.0
            },
            {
                "pitch": 66,
                "velocity": 10,
                "duration": 0.1182,
                "tempo": 120.0
            },
            {
                "pitch": 73,
                "velocity": 10,
                "duration": 0.25,
                "tempo": 120.0
            },
            {
                "pitch": 66,
                "velocity": 10,
                "duration": 0.1136,
                "tempo": 120.0
            },
            {
                "pitch": 73,
                "velocity": 10,
                "duration": 0.2318,
                "tempo": 120.0
            },
            {
                "pitch": 66,
                "velocity": 10,
                "duration": 0.2568,
                "tempo": 120.0
            },
            {
                "pitch": 78,
                "velocity": 10,
                "duration": 0.2386,
                "tempo": 120.0
            },
            {
                "pitch": 66,
                "velocity": 10,
                "duration": 0.1159,
                "tempo": 120.0
            },
            {
                "pitch": 71,
                "velocity": 10,
                "duration": 0.2523,
                "tempo": 120.0
            },
            {
                "pitch": 66,
                "velocity": 10,
                "duration": 0.1182,
                "tempo": 120.0
            },
            {
                "pitch": 78,
                "velocity": 10,
                "duration": 0.2364,
                "tempo": 120.0
            },
            {
                "pitch": 66,
                "velocity": 10,
                "duration": 0.1182,
                "tempo": 120.0
            },
            {
                "pitch": 71,
                "velocity": 10,
                "duration": 0.25,
                "tempo": 120.0
            },
            {
                "pitch": 66,
                "velocity": 10,
                "duration": 0.1159,
                "tempo": 120.0
            },
            {
                "pitch": 71,
                "velocity": 10,
                "duration": 0.2341,
                "tempo": 120.0
            },
            {
                "pitch": 66,
                "velocity": 10,
                "duration": 0.2477,
                "tempo": 120.0
            },
            {
                "pitch": 78,
                "velocity": 10,
                "duration": 0.2295,
                "tempo": 120.0
            },
            {
                "pitch": 66,
                "velocity": 10,
                "duration": 0.1182,
                "tempo": 120.0
            },
            {
                "pitch": 71,
                "velocity": 10,
                "duration": 0.2591,
                "tempo": 120.0
            },
            {
                "pitch": 66,
                "velocity": 10,
                "duration": 0.1182,
                "tempo": 120.0
            },
            {
                "pitch": 78,
                "velocity": 10,
                "duration": 0.2364,
                "tempo": 120.0
            },
            {
                "pitch": 66,
                "velocity": 10,
                "duration": 0.1341,
                "tempo": 120.0
            },
            {
                "pitch": 71,
                "velocity": 10,
                "duration": 0.2341,
                "tempo": 120.0
            },
            {
                "pitch": 66,
                "velocity": 10,
                "duration": 0.1159,
                "tempo": 120.0
            },
            {
                "pitch": 71,
                "velocity": 10,
                "duration": 0.2523,
                "tempo": 120.0
            },
            {
                "pitch": 66,
                "velocity": 10,
                "duration": 0.2386,
                "tempo": 120.0
            },
            {
                "pitch": 78,
                "velocity": 10,
                "duration": 0.2409,
                "tempo": 120.0
            }
        ],
        "Lead 2 (sawtooth)": [
            {
                "pitch": 0,
                "velocity": 0,
                "duration": 0.4705,
                "tempo": 0
            },
            {
                "pitch": 41,
                "velocity": 12,
                "duration": 0.2409,
                "tempo": 120.0
            },
            {
                "pitch": 0,
                "velocity": 0,
                "duration": 0.7091,
                "tempo": 0
            },
            {
                "pitch": 41,
                "velocity": 12,
                "duration": 0.2386,
                "tempo": 120.0
            },
            {
                "pitch": 0,
                "velocity": 0,
                "duration": 0.7409,
                "tempo": 0
            },
            {
                "pitch": 41,
                "velocity": 12,
                "duration": 0.2386,
                "tempo": 120.0
            },
            {
                "pitch": 0,
                "velocity": 0,
                "duration": 0.7045,
                "tempo": 0
            },
            {
                "pitch": 41,
                "velocity": 12,
                "duration": 0.2568,
                "tempo": 120.0
            },
            {
                "pitch": 0,
                "velocity": 0,
                "duration": 0.7227,
                "tempo": 0
            },
            {
                "pitch": 40,
                "velocity": 12,
                "duration": 0.2386,
                "tempo": 120.0
            },
            {
                "pitch": 0,
                "velocity": 0,
                "duration": 0.7295,
                "tempo": 0
            },
            {
                "pitch": 40,
                "velocity": 12,
                "duration": 0.2455,
                "tempo": 120.0
            },
            {
                "pitch": 0,
                "velocity": 0,
                "duration": 0.7136,
                "tempo": 0
            },
            {
                "pitch": 39,
                "velocity": 12,
                "duration": 0.2364,
                "tempo": 120.0
            },
            {
                "pitch": 0,
                "velocity": 0,
                "duration": 0.7477,
                "tempo": 0
            },
            {
                "pitch": 39,
                "velocity": 12,
                "duration": 0.2341,
                "tempo": 120.0
            },
            {
                "pitch": 0,
                "velocity": 0,
                "duration": 0.2341,
                "tempo": 0
            },
            {
                "pitch": 33,
                "velocity": 12,
                "duration": 0.2455,
                "tempo": 120.0
            },
            {
                "pitch": 33,
                "velocity": 12,
                "duration": 0.2295,
                "tempo": 120.0
            },
            {
                "pitch": 45,
                "velocity": 12,
                "duration": 0.25,
                "tempo": 120.0
            },
            {
                "pitch": 33,
                "velocity": 12,
                "duration": 0.2341,
                "tempo": 120.0
            },
            {
                "pitch": 33,
                "velocity": 12,
                "duration": 0.2386,
                "tempo": 120.0
            },
            {
                "pitch": 33,
                "velocity": 12,
                "duration": 0.2568,
                "tempo": 120.0
            },
            {
                "pitch": 45,
                "velocity": 12,
                "duration": 0.2364,
                "tempo": 120.0
            },
            {
                "pitch": 33,
                "velocity": 12,
                "duration": 0.2523,
                "tempo": 120.0
            },
            {
                "pitch": 0,
                "velocity": 0,
                "duration": 0.4659,
                "tempo": 0
            },
            {
                "pitch": 44,
                "velocity": 12,
                "duration": 0.2477,
                "tempo": 120.0
            },
            {
                "pitch": 0,
                "velocity": 0,
                "duration": 0.7182,
                "tempo": 0
            },
            {
                "pitch": 44,
                "velocity": 12,
                "duration": 0.2386,
                "tempo": 120.0
            },
            {
                "pitch": 0,
                "velocity": 0,
                "duration": 0.2568,
                "tempo": 0
            },
            {
                "pitch": 35,
                "velocity": 12,
                "duration": 0.2318,
                "tempo": 120.0
            },
            {
                "pitch": 35,
                "velocity": 12,
                "duration": 0.25,
                "tempo": 120.0
            },
            {
                "pitch": 47,
                "velocity": 12,
                "duration": 0.2409,
                "tempo": 120.0
            },
            {
                "pitch": 35,
                "velocity": 12,
                "duration": 0.2386,
                "tempo": 120.0
            },
            {
                "pitch": 35,
                "velocity": 12,
                "duration": 0.2409,
                "tempo": 120.0
            },
            {
                "pitch": 35,
                "velocity": 12,
                "duration": 0.225,
                "tempo": 120.0
            },
            {
                "pitch": 47,
                "velocity": 12,
                "duration": 0.2568,
                "tempo": 120.0
            },
            {
                "pitch": 35,
                "velocity": 12,
                "duration": 0.2409,
                "tempo": 120.0
            },
            {
                "pitch": 0,
                "velocity": 0,
                "duration": 0.4841,
                "tempo": 0
            },
            {
                "pitch": 36,
                "velocity": 12,
                "duration": 0.2409,
                "tempo": 120.0
            },
            {
                "pitch": 0,
                "velocity": 0,
                "duration": 0.7273,
                "tempo": 0
            },
            {
                "pitch": 36,
                "velocity": 12,
                "duration": 0.2455,
                "tempo": 120.0
            },
            {
                "pitch": 0,
                "velocity": 0,
                "duration": 0.7182,
                "tempo": 0
            },
            {
                "pitch": 40,
                "velocity": 12,
                "duration": 0.2386,
                "tempo": 120.0
            },
            {
                "pitch": 0,
                "velocity": 0,
                "duration": 0.7455,
                "tempo": 0
            },
            {
                "pitch": 40,
                "velocity": 12,
                "duration": 0.2386,
                "tempo": 120.0
            },
            {
                "pitch": 0,
                "velocity": 0,
                "duration": 0.7045,
                "tempo": 0
            },
            {
                "pitch": 40,
                "velocity": 12,
                "duration": 0.2568,
                "tempo": 120.0
            },
            {
                "pitch": 0,
                "velocity": 0,
                "duration": 0.7273,
                "tempo": 0
            },
            {
                "pitch": 40,
                "velocity": 12,
                "duration": 0.2341,
                "tempo": 120.0
            },
            {
                "pitch": 0,
                "velocity": 0,
                "duration": 0.7318,
                "tempo": 0
            },
            {
                "pitch": 40,
                "velocity": 12,
                "duration": 0.2477,
                "tempo": 120.0
            },
            {
                "pitch": 0,
                "velocity": 0,
                "duration": 0.7182,
                "tempo": 0
            },
            {
                "pitch": 40,
                "velocity": 12,
                "duration": 0.2341,
                "tempo": 120.0
            },
            {
                "pitch": 0,
                "velocity": 0,
                "duration": 0.7477,
                "tempo": 0
            },
            {
                "pitch": 39,
                "velocity": 12,
                "duration": 0.2364,
                "tempo": 120.0
            },
            {
                "pitch": 0,
                "velocity": 0,
                "duration": 0.7114,
                "tempo": 0
            },
            {
                "pitch": 39,
                "velocity": 12,
                "duration": 0.2523,
                "tempo": 120.0
            },
            {
                "pitch": 0,
                "velocity": 0,
                "duration": 0.7227,
                "tempo": 0
            },
            {
                "pitch": 38,
                "velocity": 12,
                "duration": 0.2409,
                "tempo": 120.0
            },
            {
                "pitch": 0,
                "velocity": 0,
                "duration": 0.7273,
                "tempo": 0
            },
            {
                "pitch": 38,
                "velocity": 12,
                "duration": 0.2455,
                "tempo": 120.0
            },
            {
                "pitch": 0,
                "velocity": 0,
                "duration": 0.7136,
                "tempo": 0
            },
            {
                "pitch": 44,
                "velocity": 12,
                "duration": 0.2386,
                "tempo": 120.0
            },
            {
                "pitch": 0,
                "velocity": 0,
                "duration": 0.7455,
                "tempo": 0
            },
            {
                "pitch": 44,
                "velocity": 12,
                "duration": 0.2386,
                "tempo": 120.0
            },
            {
                "pitch": 0,
                "velocity": 0,
                "duration": 0.7045,
                "tempo": 0
            },
            {
                "pitch": 43,
                "velocity": 12,
                "duration": 0.2568,
                "tempo": 120.0
            },
            {
                "pitch": 0,
                "velocity": 0,
                "duration": 0.7273,
                "tempo": 0
            },
            {
                "pitch": 43,
                "velocity": 12,
                "duration": 0.2341,
                "tempo": 120.0
            },
            {
                "pitch": 0,
                "velocity": 0,
                "duration": 0.2545,
                "tempo": 0
            },
            {
                "pitch": 34,
                "velocity": 12,
                "duration": 0.2386,
                "tempo": 120.0
            },
            {
                "pitch": 34,
                "velocity": 12,
                "duration": 0.2386,
                "tempo": 120.0
            },
            {
                "pitch": 46,
                "velocity": 12,
                "duration": 0.2477,
                "tempo": 120.0
            },
            {
                "pitch": 34,
                "velocity": 12,
                "duration": 0.2295,
                "tempo": 120.0
            },
            {
                "pitch": 34,
                "velocity": 12,
                "duration": 0.2523,
                "tempo": 120.0
            },
            {
                "pitch": 34,
                "velocity": 12,
                "duration": 0.2341,
                "tempo": 120.0
            },
            {
                "pitch": 0,
                "velocity": 0,
                "duration": 0.0023,
                "tempo": 0
            },
            {
                "pitch": 46,
                "velocity": 12,
                "duration": 0.2341,
                "tempo": 120.0
            },
            {
                "pitch": 34,
                "velocity": 12,
                "duration": 0.2545,
                "tempo": 120.0
            },
            {
                "pitch": 0,
                "velocity": 0,
                "duration": 0.4932,
                "tempo": 0
            },
            {
                "pitch": 35,
                "velocity": 12,
                "duration": 0.2364,
                "tempo": 120.0
            },
            {
                "pitch": 0,
                "velocity": 0,
                "duration": 0.7114,
                "tempo": 0
            },
            {
                "pitch": 35,
                "velocity": 12,
                "duration": 0.2523,
                "tempo": 120.0
            },
            {
                "pitch": 0,
                "velocity": 0,
                "duration": 0.7318,
                "tempo": 0
            },
            {
                "pitch": 39,
                "velocity": 12,
                "duration": 0.2341,
                "tempo": 120.0
            },
            {
                "pitch": 0,
                "velocity": 0,
                "duration": 0.7205,
                "tempo": 0
            },
            {
                "pitch": 39,
                "velocity": 12,
                "duration": 0.2523,
                "tempo": 120.0
            },
            {
                "pitch": 0,
                "velocity": 0,
                "duration": 0.4864,
                "tempo": 0
            },
            {
                "pitch": 43,
                "velocity": 8,
                "duration": 0.2341,
                "tempo": 120.0
            },
            {
                "pitch": 0,
                "velocity": 0,
                "duration": 0.2364,
                "tempo": 0
            },
            {
                "pitch": 43,
                "velocity": 8,
                "duration": 0.25,
                "tempo": 120.0
            },
            {
                "pitch": 0,
                "velocity": 0,
                "duration": 0.2341,
                "tempo": 0
            },
            {
                "pitch": 43,
                "velocity": 8,
                "duration": 0.25,
                "tempo": 120.0
            },
            {
                "pitch": 0,
                "velocity": 0,
                "duration": 0.2409,
                "tempo": 0
            },
            {
                "pitch": 43,
                "velocity": 8,
                "duration": 0.2386,
                "tempo": 120.0
            },
            {
                "pitch": 0,
                "velocity": 0,
                "duration": 0.2455,
                "tempo": 0
            },
            {
                "pitch": 43,
                "velocity": 8,
                "duration": 0.2295,
                "tempo": 120.0
            },
            {
                "pitch": 0,
                "velocity": 0,
                "duration": 0.2523,
                "tempo": 0
            },
            {
                "pitch": 43,
                "velocity": 8,
                "duration": 0.2318,
                "tempo": 120.0
            },
            {
                "pitch": 0,
                "velocity": 0,
                "duration": 0.2364,
                "tempo": 0
            },
            {
                "pitch": 43,
                "velocity": 8,
                "duration": 0.2545,
                "tempo": 120.0
            },
            {
                "pitch": 0,
                "velocity": 0,
                "duration": 0.2386,
                "tempo": 0
            },
            {
                "pitch": 43,
                "velocity": 8,
                "duration": 0.2568,
                "tempo": 120.0
            },
            {
                "pitch": 0,
                "velocity": 0,
                "duration": 0.2341,
                "tempo": 0
            },
            {
                "pitch": 43,
                "velocity": 8,
                "duration": 0.2364,
                "tempo": 120.0
            },
            {
                "pitch": 0,
                "velocity": 0,
                "duration": 0.2455,
                "tempo": 0
            },
            {
                "pitch": 43,
                "velocity": 8,
                "duration": 0.2295,
                "tempo": 120.0
            },
            {
                "pitch": 0,
                "velocity": 0,
                "duration": 0.25,
                "tempo": 0
            },
            {
                "pitch": 43,
                "velocity": 8,
                "duration": 0.2341,
                "tempo": 120.0
            },
            {
                "pitch": 0,
                "velocity": 0,
                "duration": 0.2386,
                "tempo": 0
            },
            {
                "pitch": 43,
                "velocity": 8,
                "duration": 0.2591,
                "tempo": 120.0
            },
            {
                "pitch": 0,
                "velocity": 0,
                "duration": 0.2341,
                "tempo": 0
            },
            {
                "pitch": 43,
                "velocity": 8,
                "duration": 0.2523,
                "tempo": 120.0
            },
            {
                "pitch": 0,
                "velocity": 0,
                "duration": 0.2341,
                "tempo": 0
            },
            {
                "pitch": 43,
                "velocity": 8,
                "duration": 0.2318,
                "tempo": 120.0
            },
            {
                "pitch": 0,
                "velocity": 0,
                "duration": 0.2477,
                "tempo": 0
            },
            {
                "pitch": 43,
                "velocity": 8,
                "duration": 0.2295,
                "tempo": 120.0
            },
            {
                "pitch": 0,
                "velocity": 0,
                "duration": 0.2568,
                "tempo": 0
            },
            {
                "pitch": 43,
                "velocity": 8,
                "duration": 0.2409,
                "tempo": 120.0
            },
            {
                "pitch": 0,
                "velocity": 0,
                "duration": 0.2318,
                "tempo": 0
            },
            {
                "pitch": 43,
                "velocity": 8,
                "duration": 0.25,
                "tempo": 120.0
            },
            {
                "pitch": 0,
                "velocity": 0,
                "duration": 0.2364,
                "tempo": 0
            },
            {
                "pitch": 43,
                "velocity": 8,
                "duration": 0.25,
                "tempo": 120.0
            },
            {
                "pitch": 0,
                "velocity": 0,
                "duration": 0.2409,
                "tempo": 0
            },
            {
                "pitch": 43,
                "velocity": 8,
                "duration": 0.2386,
                "tempo": 120.0
            },
            {
                "pitch": 0,
                "velocity": 0,
                "duration": 0.2477,
                "tempo": 0
            },
            {
                "pitch": 43,
                "velocity": 8,
                "duration": 0.2295,
                "tempo": 120.0
            },
            {
                "pitch": 0,
                "velocity": 0,
                "duration": 0.25,
                "tempo": 0
            },
            {
                "pitch": 43,
                "velocity": 8,
                "duration": 0.2341,
                "tempo": 120.0
            },
            {
                "pitch": 0,
                "velocity": 0,
                "duration": 0.2364,
                "tempo": 0
            },
            {
                "pitch": 43,
                "velocity": 8,
                "duration": 0.25,
                "tempo": 120.0
            },
            {
                "pitch": 0,
                "velocity": 0,
                "duration": 0.2341,
                "tempo": 0
            },
            {
                "pitch": 43,
                "velocity": 8,
                "duration": 0.2523,
                "tempo": 120.0
            },
            {
                "pitch": 0,
                "velocity": 0,
                "duration": 0.2386,
                "tempo": 0
            },
            {
                "pitch": 43,
                "velocity": 8,
                "duration": 0.2409,
                "tempo": 120.0
            },
            {
                "pitch": 0,
                "velocity": 0,
                "duration": 0.2432,
                "tempo": 0
            },
            {
                "pitch": 43,
                "velocity": 8,
                "duration": 0.2318,
                "tempo": 120.0
            },
            {
                "pitch": 0,
                "velocity": 0,
                "duration": 0.25,
                "tempo": 0
            },
            {
                "pitch": 43,
                "velocity": 8,
                "duration": 0.2318,
                "tempo": 120.0
            },
            {
                "pitch": 0,
                "velocity": 0,
                "duration": 0.2364,
                "tempo": 0
            },
            {
                "pitch": 43,
                "velocity": 8,
                "duration": 0.2523,
                "tempo": 120.0
            },
            {
                "pitch": 0,
                "velocity": 0,
                "duration": 0.2409,
                "tempo": 0
            },
            {
                "pitch": 43,
                "velocity": 8,
                "duration": 0.2568,
                "tempo": 120.0
            },
            {
                "pitch": 0,
                "velocity": 0,
                "duration": 0.2318,
                "tempo": 0
            },
            {
                "pitch": 43,
                "velocity": 8,
                "duration": 0.2341,
                "tempo": 120.0
            },
            {
                "pitch": 0,
                "velocity": 0,
                "duration": 0.2477,
                "tempo": 0
            },
            {
                "pitch": 43,
                "velocity": 8,
                "duration": 0.2273,
                "tempo": 120.0
            },
            {
                "pitch": 0,
                "velocity": 0,
                "duration": 0.2523,
                "tempo": 0
            },
            {
                "pitch": 43,
                "velocity": 8,
                "duration": 0.2386,
                "tempo": 120.0
            },
            {
                "pitch": 0,
                "velocity": 0,
                "duration": 0.2386,
                "tempo": 0
            },
            {
                "pitch": 43,
                "velocity": 8,
                "duration": 0.2568,
                "tempo": 120.0
            },
            {
                "pitch": 0,
                "velocity": 0,
                "duration": 0.4864,
                "tempo": 0
            },
            {
                "pitch": 41,
                "velocity": 12,
                "duration": 0.2386,
                "tempo": 120.0
            },
            {
                "pitch": 0,
                "velocity": 0,
                "duration": 0.7045,
                "tempo": 0
            },
            {
                "pitch": 41,
                "velocity": 12,
                "duration": 0.2568,
                "tempo": 120.0
            },
            {
                "pitch": 0,
                "velocity": 0,
                "duration": 0.7227,
                "tempo": 0
            },
            {
                "pitch": 41,
                "velocity": 12,
                "duration": 0.2386,
                "tempo": 120.0
            },
            {
                "pitch": 0,
                "velocity": 0,
                "duration": 0.7273,
                "tempo": 0
            },
            {
                "pitch": 41,
                "velocity": 12,
                "duration": 0.2477,
                "tempo": 120.0
            },
            {
                "pitch": 0,
                "velocity": 0,
                "duration": 0.7136,
                "tempo": 0
            },
            {
                "pitch": 40,
                "velocity": 12,
                "duration": 0.2386,
                "tempo": 120.0
            },
            {
                "pitch": 0,
                "velocity": 0,
                "duration": 0.7409,
                "tempo": 0
            },
            {
                "pitch": 40,
                "velocity": 12,
                "duration": 0.2409,
                "tempo": 120.0
            },
            {
                "pitch": 0,
                "velocity": 0,
                "duration": 0.7023,
                "tempo": 0
            },
            {
                "pitch": 39,
                "velocity": 12,
                "duration": 0.25,
                "tempo": 120.0
            },
            {
                "pitch": 0,
                "velocity": 0,
                "duration": 0.7295,
                "tempo": 0
            },
            {
                "pitch": 39,
                "velocity": 12,
                "duration": 0.2364,
                "tempo": 120.0
            },
            {
                "pitch": 0,
                "velocity": 0,
                "duration": 0.2545,
                "tempo": 0
            },
            {
                "pitch": 33,
                "velocity": 12,
                "duration": 0.2364,
                "tempo": 120.0
            },
            {
                "pitch": 33,
                "velocity": 12,
                "duration": 0.2409,
                "tempo": 120.0
            },
            {
                "pitch": 45,
                "velocity": 12,
                "duration": 0.2455,
                "tempo": 120.0
            },
            {
                "pitch": 33,
                "velocity": 12,
                "duration": 0.2295,
                "tempo": 120.0
            },
            {
                "pitch": 0,
                "velocity": 0,
                "duration": 0.0023,
                "tempo": 0
            },
            {
                "pitch": 33,
                "velocity": 12,
                "duration": 0.25,
                "tempo": 120.0
            },
            {
                "pitch": 33,
                "velocity": 12,
                "duration": 0.2364,
                "tempo": 120.0
            },
            {
                "pitch": 45,
                "velocity": 12,
                "duration": 0.2341,
                "tempo": 120.0
            },
            {
                "pitch": 33,
                "velocity": 12,
                "duration": 0.25,
                "tempo": 120.0
            },
            {
                "pitch": 0,
                "velocity": 0,
                "duration": 0.4955,
                "tempo": 0
            },
            {
                "pitch": 44,
                "velocity": 12,
                "duration": 0.2341,
                "tempo": 120.0
            },
            {
                "pitch": 0,
                "velocity": 0,
                "duration": 0.7136,
                "tempo": 0
            },
            {
                "pitch": 44,
                "velocity": 12,
                "duration": 0.25,
                "tempo": 120.0
            },
            {
                "pitch": 0,
                "velocity": 0,
                "duration": 0.2341,
                "tempo": 0
            },
            {
                "pitch": 35,
                "velocity": 12,
                "duration": 0.2386,
                "tempo": 120.0
            },
            {
                "pitch": 35,
                "velocity": 12,
                "duration": 0.2568,
                "tempo": 120.0
            },
            {
                "pitch": 47,
                "velocity": 12,
                "duration": 0.2341,
                "tempo": 120.0
            },
            {
                "pitch": 35,
                "velocity": 12,
                "duration": 0.25,
                "tempo": 120.0
            },
            {
                "pitch": 35,
                "velocity": 12,
                "duration": 0.2341,
                "tempo": 120.0
            },
            {
                "pitch": 35,
                "velocity": 12,
                "duration": 0.2364,
                "tempo": 120.0
            },
            {
                "pitch": 47,
                "velocity": 12,
                "duration": 0.2477,
                "tempo": 120.0
            },
            {
                "pitch": 35,
                "velocity": 12,
                "duration": 0.2295,
                "tempo": 120.0
            },
            {
                "pitch": 0,
                "velocity": 0,
                "duration": 0.4841,
                "tempo": 0
            },
            {
                "pitch": 36,
                "velocity": 12,
                "duration": 0.2386,
                "tempo": 120.0
            },
            {
                "pitch": 0,
                "velocity": 0,
                "duration": 0.7409,
                "tempo": 0
            },
            {
                "pitch": 36,
                "velocity": 12,
                "duration": 0.2341,
                "tempo": 120.0
            },
            {
                "pitch": 0,
                "velocity": 0,
                "duration": 0.7114,
                "tempo": 0
            },
            {
                "pitch": 40,
                "velocity": 12,
                "duration": 0.2568,
                "tempo": 120.0
            },
            {
                "pitch": 0,
                "velocity": 0,
                "duration": 0.7295,
                "tempo": 0
            },
            {
                "pitch": 40,
                "velocity": 12,
                "duration": 0.2341,
                "tempo": 120.0
            },
            {
                "pitch": 0,
                "velocity": 0,
                "duration": 0.7295,
                "tempo": 0
            },
            {
                "pitch": 40,
                "velocity": 12,
                "duration": 0.2477,
                "tempo": 120.0
            },
            {
                "pitch": 0,
                "velocity": 0,
                "duration": 0.7182,
                "tempo": 0
            },
            {
                "pitch": 40,
                "velocity": 12,
                "duration": 0.2341,
                "tempo": 120.0
            },
            {
                "pitch": 0,
                "velocity": 0,
                "duration": 0.7477,
                "tempo": 0
            },
            {
                "pitch": 40,
                "velocity": 12,
                "duration": 0.2364,
                "tempo": 120.0
            },
            {
                "pitch": 0,
                "velocity": 0,
                "duration": 0.7114,
                "tempo": 0
            },
            {
                "pitch": 40,
                "velocity": 12,
                "duration": 0.2523,
                "tempo": 120.0
            },
            {
                "pitch": 0,
                "velocity": 0,
                "duration": 0.7318,
                "tempo": 0
            },
            {
                "pitch": 39,
                "velocity": 12,
                "duration": 0.2364,
                "tempo": 120.0
            },
            {
                "pitch": 0,
                "velocity": 0,
                "duration": 0.7205,
                "tempo": 0
            },
            {
                "pitch": 39,
                "velocity": 12,
                "duration": 0.2455,
                "tempo": 120.0
            },
            {
                "pitch": 0,
                "velocity": 0,
                "duration": 0.725,
                "tempo": 0
            },
            {
                "pitch": 38,
                "velocity": 12,
                "duration": 0.2341,
                "tempo": 120.0
            },
            {
                "pitch": 0,
                "velocity": 0,
                "duration": 0.7364,
                "tempo": 0
            },
            {
                "pitch": 38,
                "velocity": 12,
                "duration": 0.2409,
                "tempo": 120.0
            },
            {
                "pitch": 0,
                "velocity": 0,
                "duration": 0.7159,
                "tempo": 0
            },
            {
                "pitch": 44,
                "velocity": 12,
                "duration": 0.25,
                "tempo": 120.0
            },
            {
                "pitch": 0,
                "velocity": 0,
                "duration": 0.7227,
                "tempo": 0
            },
            {
                "pitch": 44,
                "velocity": 12,
                "duration": 0.2386,
                "tempo": 120.0
            },
            {
                "pitch": 0,
                "velocity": 0,
                "duration": 0.7227,
                "tempo": 0
            },
            {
                "pitch": 43,
                "velocity": 12,
                "duration": 0.2455,
                "tempo": 120.0
            },
            {
                "pitch": 0,
                "velocity": 0,
                "duration": 0.7182,
                "tempo": 0
            },
            {
                "pitch": 43,
                "velocity": 12,
                "duration": 0.2409,
                "tempo": 120.0
            },
            {
                "pitch": 0,
                "velocity": 0,
                "duration": 0.2568,
                "tempo": 0
            },
            {
                "pitch": 34,
                "velocity": 12,
                "duration": 0.2341,
                "tempo": 120.0
            },
            {
                "pitch": 34,
                "velocity": 12,
                "duration": 0.2523,
                "tempo": 120.0
            },
            {
                "pitch": 46,
                "velocity": 12,
                "duration": 0.2341,
                "tempo": 120.0
            },
            {
                "pitch": 0,
                "velocity": 0,
                "duration": 0.0023,
                "tempo": 0
            },
            {
                "pitch": 34,
                "velocity": 12,
                "duration": 0.2341,
                "tempo": 120.0
            },
            {
                "pitch": 34,
                "velocity": 12,
                "duration": 0.2455,
                "tempo": 120.0
            },
            {
                "pitch": 34,
                "velocity": 12,
                "duration": 0.2318,
                "tempo": 120.0
            },
            {
                "pitch": 46,
                "velocity": 12,
                "duration": 0.2568,
                "tempo": 120.0
            },
            {
                "pitch": 34,
                "velocity": 12,
                "duration": 0.2386,
                "tempo": 120.0
            },
            {
                "pitch": 0,
                "velocity": 0,
                "duration": 0.4864,
                "tempo": 0
            },
            {
                "pitch": 35,
                "velocity": 12,
                "duration": 0.2364,
                "tempo": 120.0
            },
            {
                "pitch": 0,
                "velocity": 0,
                "duration": 0.7205,
                "tempo": 0
            },
            {
                "pitch": 35,
                "velocity": 12,
                "duration": 0.2455,
                "tempo": 120.0
            },
            {
                "pitch": 0,
                "velocity": 0,
                "duration": 0.725,
                "tempo": 0
            },
            {
                "pitch": 39,
                "velocity": 12,
                "duration": 0.2364,
                "tempo": 120.0
            },
            {
                "pitch": 0,
                "velocity": 0,
                "duration": 0.7364,
                "tempo": 0
            },
            {
                "pitch": 39,
                "velocity": 12,
                "duration": 0.2386,
                "tempo": 120.0
            }
        ],
        "Synth Bass 1": [
            {
                "pitch": 0,
                "velocity": 0,
                "duration": 35.2705,
                "tempo": 0
            },
            {
                "pitch": 62,
                "velocity": 1,
                "duration": 0.2364,
                "tempo": 120.0
            },
            {
                "pitch": 0,
                "velocity": 0,
                "duration": 0.4841,
                "tempo": 0
            },
            {
                "pitch": 64,
                "velocity": 1,
                "duration": 0.2523,
                "tempo": 120.0
            },
            {
                "pitch": 0,
                "velocity": 0,
                "duration": 0.4773,
                "tempo": 0
            },
            {
                "pitch": 65,
                "velocity": 1,
                "duration": 0.2477,
                "tempo": 120.0
            },
            {
                "pitch": 0,
                "velocity": 0,
                "duration": 0.4795,
                "tempo": 0
            },
            {
                "pitch": 64,
                "velocity": 1,
                "duration": 0.2341,
                "tempo": 120.0
            },
            {
                "pitch": 0,
                "velocity": 0,
                "duration": 1.4545,
                "tempo": 0
            },
            {
                "pitch": 62,
                "velocity": 1,
                "duration": 0.2455,
                "tempo": 120.0
            },
            {
                "pitch": 0,
                "velocity": 0,
                "duration": 0.4818,
                "tempo": 0
            },
            {
                "pitch": 64,
                "velocity": 1,
                "duration": 0.2318,
                "tempo": 120.0
            },
            {
                "pitch": 0,
                "velocity": 0,
                "duration": 0.4955,
                "tempo": 0
            },
            {
                "pitch": 65,
                "velocity": 1,
                "duration": 0.2364,
                "tempo": 120.0
            },
            {
                "pitch": 0,
                "velocity": 0,
                "duration": 0.4864,
                "tempo": 0
            },
            {
                "pitch": 64,
                "velocity": 1,
                "duration": 0.2318,
                "tempo": 120.0
            },
            {
                "pitch": 0,
                "velocity": 0,
                "duration": 1.4568,
                "tempo": 0
            },
            {
                "pitch": 62,
                "velocity": 1,
                "duration": 0.2364,
                "tempo": 120.0
            },
            {
                "pitch": 0,
                "velocity": 0,
                "duration": 0.4909,
                "tempo": 0
            },
            {
                "pitch": 64,
                "velocity": 1,
                "duration": 0.2386,
                "tempo": 120.0
            },
            {
                "pitch": 0,
                "velocity": 0,
                "duration": 0.4773,
                "tempo": 0
            },
            {
                "pitch": 65,
                "velocity": 1,
                "duration": 0.25,
                "tempo": 120.0
            },
            {
                "pitch": 0,
                "velocity": 0,
                "duration": 0.4705,
                "tempo": 0
            },
            {
                "pitch": 64,
                "velocity": 1,
                "duration": 0.2523,
                "tempo": 120.0
            },
            {
                "pitch": 0,
                "velocity": 0,
                "duration": 1.4386,
                "tempo": 0
            },
            {
                "pitch": 62,
                "velocity": 1,
                "duration": 0.25,
                "tempo": 120.0
            },
            {
                "pitch": 0,
                "velocity": 0,
                "duration": 0.4682,
                "tempo": 0
            },
            {
                "pitch": 64,
                "velocity": 1,
                "duration": 0.2523,
                "tempo": 120.0
            },
            {
                "pitch": 0,
                "velocity": 0,
                "duration": 0.4977,
                "tempo": 0
            },
            {
                "pitch": 65,
                "velocity": 1,
                "duration": 0.2318,
                "tempo": 120.0
            },
            {
                "pitch": 0,
                "velocity": 0,
                "duration": 0.4795,
                "tempo": 0
            },
            {
                "pitch": 64,
                "velocity": 1,
                "duration": 0.2318,
                "tempo": 120.0
            }
        ],
        "Acoustic Grand Piano": [
            {
                "pitch": 0,
                "velocity": 0,
                "duration": 85.0545,
                "tempo": 0
            },
            {
                "pitch": 108,
                "velocity": 15,
                "duration": 0.1,
                "tempo": 120.0
            }
        ]
    }
}