{
    "track_id": "07_Bonus_9",
    "mood": "happy",
    "instruments": {
        "Lead 1 (square)": [
            {
                "pitch": 74,
                "velocity": 12,
                "duration": 0.4795,
                "tempo": 120.0
            },
            {
                "pitch": 75,
                "velocity": 12,
                "duration": 0.4795,
                "tempo": 120.0
            },
            {
                "pitch": 75,
                "velocity": 12,
                "duration": 0.3205,
                "tempo": 120.0
            },
            {
                "pitch": 74,
                "velocity": 12,
                "duration": 0.4795,
                "tempo": 120.0
            },
            {
                "pitch": 75,
                "velocity": 12,
                "duration": 0.4795,
                "tempo": 120.0
            },
            {
                "pitch": 75,
                "velocity": 12,
                "duration": 0.3205,
                "tempo": 120.0
            },
            {
                "pitch": 74,
                "velocity": 12,
                "duration": 0.4795,
                "tempo": 120.0
            },
            {
                "pitch": 75,
                "velocity": 12,
                "duration": 0.4705,
                "tempo": 120.0
            },
            {
                "pitch": 75,
                "velocity": 12,
                "duration": 0.3295,
                "tempo": 120.0
            },
            {
                "pitch": 74,
                "velocity": 12,
                "duration": 0.475,
                "tempo": 120.0
            },
            {
                "pitch": 75,
                "velocity": 12,
                "duration": 0.7955,
                "tempo": 120.0
            },
            {
                "pitch": 74,
                "velocity": 12,
                "duration": 0.4795,
                "tempo": 120.0
            },
            {
                "pitch": 75,
                "velocity": 12,
                "duration": 0.8,
                "tempo": 120.0
            },
            {
                "pitch": 74,
                "velocity": 12,
                "duration": 0.4795,
                "tempo": 120.0
            },
            {
                "pitch": 75,
                "velocity": 12,
                "duration": 0.7886,
                "tempo": 120.0
            },
            {
                "pitch": 74,
                "velocity": 12,
                "duration": 0.4795,
                "tempo": 120.0
            },
            {
                "pitch": 75,
                "velocity": 12,
                "duration": 0.8,
                "tempo": 120.0
            },
            {
                "pitch": 74,
                "velocity": 12,
                "duration": 0.4795,
                "tempo": 120.0
            },
            {
                "pitch": 75,
                "velocity": 12,
                "duration": 0.8,
                "tempo": 120.0
            },
            {
                "pitch": 74,
                "velocity": 12,
                "duration": 0.4795,
                "tempo": 120.0
            },
            {
                "pitch": 75,
                "velocity": 12,
                "duration": 0.7909,
                "tempo": 120.0
            },
            {
                "pitch": 74,
                "velocity": 12,
                "duration": 0.4795,
                "tempo": 120.0
            },
            {
                "pitch": 75,
                "velocity": 12,
                "duration": 0.8,
                "tempo": 120.0
            },
            {
                "pitch": 74,
                "velocity": 12,
                "duration": 0.4795,
                "tempo": 120.0
            },
            {
                "pitch": 75,
                "velocity": 12,
                "duration": 0.7909,
                "tempo": 120.0
            },
            {
                "pitch": 74,
                "velocity": 12,
                "duration": 0.4795,
                "tempo": 120.0
            },
            {
                "pitch": 75,
                "velocity": 12,
                "duration": 0.7977,
                "tempo": 120.0
            },
            {
                "pitch": 0,
                "velocity": 0,
                "duration": 0.0023,
                "tempo": 0
            },
            {
                "pitch": 70,
                "velocity": 12,
                "duration": 2.5477,
                "tempo": 120.0
            },
            {
                "pitch": 66,
                "velocity": 12,
                "duration": 1.2795,
                "tempo": 120.0
            },
            {
                "pitch": 68,
                "velocity": 12,
                "duration": 1.2705,
                "tempo": 120.0
            },
            {
                "pitch": 74,
                "velocity": 12,
                "duration": 0.4795,
                "tempo": 120.0
            },
            {
                "pitch": 75,
                "velocity": 12,
                "duration": 0.8,
                "tempo": 120.0
            },
            {
                "pitch": 74,
                "velocity": 12,
                "duration": 0.4795,
                "tempo": 120.0
            },
            {
                "pitch": 75,
                "velocity": 12,
                "duration": 0.8,
                "tempo": 120.0
            },
            {
                "pitch": 74,
                "velocity": 12,
                "duration": 0.4727,
                "tempo": 120.0
            },
            {
                "pitch": 75,
                "velocity": 12,
                "duration": 0.7955,
                "tempo": 120.0
            },
            {
                "pitch": 74,
                "velocity": 12,
                "duration": 0.4818,
                "tempo": 120.0
            },
            {
                "pitch": 75,
                "velocity": 12,
                "duration": 0.7977,
                "tempo": 120.0
            },
            {
                "pitch": 74,
                "velocity": 12,
                "duration": 0.4818,
                "tempo": 120.0
            },
            {
                "pitch": 75,
                "velocity": 12,
                "duration": 0.7886,
                "tempo": 120.0
            },
            {
                "pitch": 74,
                "velocity": 12,
                "duration": 0.4795,
                "tempo": 120.0
            },
            {
                "pitch": 75,
                "velocity": 12,
                "duration": 0.8,
                "tempo": 120.0
            },
            {
                "pitch": 74,
                "velocity": 12,
                "duration": 0.4795,
                "tempo": 120.0
            },
            {
                "pitch": 75,
                "velocity": 12,
                "duration": 0.8,
                "tempo": 120.0
            },
            {
                "pitch": 74,
                "velocity": 12,
                "duration": 0.475,
                "tempo": 120.0
            },
            {
                "pitch": 75,
                "velocity": 12,
                "duration": 0.7955,
                "tempo": 120.0
            },
            {
                "pitch": 70,
                "velocity": 12,
                "duration": 2.5477,
                "tempo": 120.0
            },
            {
                "pitch": 79,
                "velocity": 12,
                "duration": 15.3045,
                "tempo": 120.0
            },
            {
                "pitch": 66,
                "velocity": 12,
                "duration": 1.2795,
                "tempo": 120.0
            },
            {
                "pitch": 68,
                "velocity": 12,
                "duration": 1.1205,
                "tempo": 120.0
            }
        ],
        "Lead 2 (sawtooth)": [
            {
                "pitch": 0,
                "velocity": 0,
                "duration": 36.0386,
                "tempo": 0
            },
            {
                "pitch": 70,
                "velocity": 15,
                "duration": 0.6386,
                "tempo": 120.0
            },
            {
                "pitch": 65,
                "velocity": 15,
                "duration": 1.4386,
                "tempo": 120.0
            },
            {
                "pitch": 68,
                "velocity": 15,
                "duration": 1.75,
                "tempo": 120.0
            },
            {
                "pitch": 72,
                "velocity": 15,
                "duration": 1.2795,
                "tempo": 120.0
            },
            {
                "pitch": 70,
                "velocity": 15,
                "duration": 0.6295,
                "tempo": 120.0
            },
            {
                "pitch": 65,
                "velocity": 15,
                "duration": 1.4409,
                "tempo": 120.0
            },
            {
                "pitch": 68,
                "velocity": 15,
                "duration": 1.7477,
                "tempo": 120.0
            },
            {
                "pitch": 76,
                "velocity": 15,
                "duration": 5.0977,
                "tempo": 120.0
            },
            {
                "pitch": 51,
                "velocity": 15,
                "duration": 4.7795,
                "tempo": 120.0
            },
            {
                "pitch": 72,
                "velocity": 15,
                "duration": 0.9614,
                "tempo": 120.0
            },
            {
                "pitch": 70,
                "velocity": 15,
                "duration": 2.3886,
                "tempo": 120.0
            }
        ],
        "Synth Bass 1": [
            {
                "pitch": 0,
                "velocity": 0,
                "duration": 0.3205,
                "tempo": 0
            },
            {
                "pitch": 82,
                "velocity": 1,
                "duration": 0.4795,
                "tempo": 120.0
            },
            {
                "pitch": 77,
                "velocity": 1,
                "duration": 0.8,
                "tempo": 120.0
            },
            {
                "pitch": 82,
                "velocity": 1,
                "duration": 0.4795,
                "tempo": 120.0
            },
            {
                "pitch": 90,
                "velocity": 1,
                "duration": 1.2795,
                "tempo": 120.0
            },
            {
                "pitch": 51,
                "velocity": 1,
                "duration": 1.2795,
                "tempo": 120.0
            },
            {
                "pitch": 77,
                "velocity": 1,
                "duration": 0.8,
                "tempo": 120.0
            },
            {
                "pitch": 82,
                "velocity": 1,
                "duration": 0.475,
                "tempo": 120.0
            },
            {
                "pitch": 90,
                "velocity": 1,
                "duration": 1.275,
                "tempo": 120.0
            },
            {
                "pitch": 77,
                "velocity": 1,
                "duration": 0.7932,
                "tempo": 120.0
            },
            {
                "pitch": 82,
                "velocity": 1,
                "duration": 0.6409,
                "tempo": 120.0
            },
            {
                "pitch": 75,
                "velocity": 1,
                "duration": 0.6386,
                "tempo": 120.0
            },
            {
                "pitch": 82,
                "velocity": 1,
                "duration": 0.6409,
                "tempo": 120.0
            },
            {
                "pitch": 89,
                "velocity": 1,
                "duration": 1.2795,
                "tempo": 120.0
            },
            {
                "pitch": 51,
                "velocity": 1,
                "duration": 3.8295,
                "tempo": 120.0
            },
            {
                "pitch": 75,
                "velocity": 1,
                "duration": 0.6409,
                "tempo": 120.0
            },
            {
                "pitch": 82,
                "velocity": 1,
                "duration": 0.6295,
                "tempo": 120.0
            },
            {
                "pitch": 89,
                "velocity": 1,
                "duration": 1.2705,
                "tempo": 120.0
            },
            {
                "pitch": 51,
                "velocity": 1,
                "duration": 1.2682,
                "tempo": 120.0
            },
            {
                "pitch": 75,
                "velocity": 1,
                "duration": 0.6386,
                "tempo": 120.0
            },
            {
                "pitch": 82,
                "velocity": 1,
                "duration": 0.6409,
                "tempo": 120.0
            },
            {
                "pitch": 89,
                "velocity": 1,
                "duration": 1.2795,
                "tempo": 120.0
            },
            {
                "pitch": 51,
                "velocity": 1,
                "duration": 1.2795,
                "tempo": 120.0
            },
            {
                "pitch": 75,
                "velocity": 1,
                "duration": 0.6386,
                "tempo": 120.0
            },
            {
                "pitch": 82,
                "velocity": 1,
                "duration": 0.6409,
                "tempo": 120.0
            },
            {
                "pitch": 51,
                "velocity": 1,
                "duration": 1.2795,
                "tempo": 120.0
            },
            {
                "pitch": 75,
                "velocity": 1,
                "duration": 0.6386,
                "tempo": 120.0
            },
            {
                "pitch": 82,
                "velocity": 1,
                "duration": 0.6295,
                "tempo": 120.0
            },
            {
                "pitch": 89,
                "velocity": 1,
                "duration": 2.5477,
                "tempo": 120.0
            },
            {
                "pitch": 51,
                "velocity": 1,
                "duration": 1.2705,
                "tempo": 120.0
            },
            {
                "pitch": 75,
                "velocity": 1,
                "duration": 0.6409,
                "tempo": 120.0
            },
            {
                "pitch": 82,
                "velocity": 1,
                "duration": 0.6386,
                "tempo": 120.0
            },
            {
                "pitch": 89,
                "velocity": 1,
                "duration": 1.2795,
                "tempo": 120.0
            },
            {
                "pitch": 51,
                "velocity": 1,
                "duration": 1.2795,
                "tempo": 120.0
            },
            {
                "pitch": 75,
                "velocity": 1,
                "duration": 0.6409,
                "tempo": 120.0
            },
            {
                "pitch": 82,
                "velocity": 1,
                "duration": 0.6295,
                "tempo": 120.0
            },
            {
                "pitch": 89,
                "velocity": 1,
                "duration": 1.2705,
                "tempo": 120.0
            },
            {
                "pitch": 75,
                "velocity": 1,
                "duration": 0.6386,
                "tempo": 120.0
            },
            {
                "pitch": 82,
                "velocity": 1,
                "duration": 0.6409,
                "tempo": 120.0
            },
            {
                "pitch": 89,
                "velocity": 1,
                "duration": 1.2795,
                "tempo": 120.0
            },
            {
                "pitch": 75,
                "velocity": 1,
                "duration": 0.6386,
                "tempo": 120.0
            },
            {
                "pitch": 75,
                "velocity": 1,
                "duration": 2.55,
                "tempo": 120.0
            },
            {
                "pitch": 73,
                "velocity": 1,
                "duration": 1.6,
                "tempo": 120.0
            },
            {
                "pitch": 51,
                "velocity": 1,
                "duration": 7.6455,
                "tempo": 120.0
            },
            {
                "pitch": 72,
                "velocity": 1,
                "duration": 0.9477,
                "tempo": 120.0
            },
            {
                "pitch": 82,
                "velocity": 1,
                "duration": 0.6409,
                "tempo": 120.0
            },
            {
                "pitch": 89,
                "velocity": 1,
                "duration": 6.3773,
                "tempo": 120.0
            },
            {
                "pitch": 51,
                "velocity": 1,
                "duration": 1.2818,
                "tempo": 120.0
            },
            {
                "pitch": 75,
                "velocity": 1,
                "duration": 0.6409,
                "tempo": 120.0
            },
            {
                "pitch": 82,
                "velocity": 1,
                "duration": 0.6295,
                "tempo": 120.0
            },
            {
                "pitch": 89,
                "velocity": 1,
                "duration": 1.2705,
                "tempo": 120.0
            },
            {
                "pitch": 75,
                "velocity": 1,
                "duration": 0.6386,
                "tempo": 120.0
            },
            {
                "pitch": 82,
                "velocity": 1,
                "duration": 0.6409,
                "tempo": 120.0
            },
            {
                "pitch": 89,
                "velocity": 1,
                "duration": 1.2795,
                "tempo": 120.0
            },
            {
                "pitch": 51,
                "velocity": 1,
                "duration": 2.5477,
                "tempo": 120.0
            },
            {
                "pitch": 75,
                "velocity": 1,
                "duration": 0.6386,
                "tempo": 120.0
            },
            {
                "pitch": 82,
                "velocity": 1,
                "duration": 0.6409,
                "tempo": 120.0
            },
            {
                "pitch": 75,
                "velocity": 1,
                "duration": 0.6386,
                "tempo": 120.0
            },
            {
                "pitch": 82,
                "velocity": 1,
                "duration": 0.6295,
                "tempo": 120.0
            },
            {
                "pitch": 89,
                "velocity": 1,
                "duration": 2.5477,
                "tempo": 120.0
            },
            {
                "pitch": 51,
                "velocity": 1,
                "duration": 2.55,
                "tempo": 120.0
            },
            {
                "pitch": 75,
                "velocity": 1,
                "duration": 0.6409,
                "tempo": 120.0
            },
            {
                "pitch": 82,
                "velocity": 1,
                "duration": 0.6386,
                "tempo": 120.0
            },
            {
                "pitch": 89,
                "velocity": 1,
                "duration": 1.2795,
                "tempo": 120.0
            },
            {
                "pitch": 51,
                "velocity": 1,
                "duration": 1.2795,
                "tempo": 120.0
            },
            {
                "pitch": 75,
                "velocity": 1,
                "duration": 0.6409,
                "tempo": 120.0
            },
            {
                "pitch": 82,
                "velocity": 1,
                "duration": 0.6295,
                "tempo": 120.0
            },
            {
                "pitch": 89,
                "velocity": 1,
                "duration": 1.2705,
                "tempo": 120.0
            },
            {
                "pitch": 75,
                "velocity": 1,
                "duration": 0.6386,
                "tempo": 120.0
            },
            {
                "pitch": 82,
                "velocity": 1,
                "duration": 0.6409,
                "tempo": 120.0
            },
            {
                "pitch": 89,
                "velocity": 1,
                "duration": 1.2795,
                "tempo": 120.0
            },
            {
                "pitch": 75,
                "velocity": 1,
                "duration": 0.6386,
                "tempo": 120.0
            },
            {
                "pitch": 75,
                "velocity": 1,
                "duration": 2.55,
                "tempo": 120.0
            },
            {
                "pitch": 73,
                "velocity": 1,
                "duration": 1.6,
                "tempo": 120.0
            },
            {
                "pitch": 72,
                "velocity": 1,
                "duration": 0.4795,
                "tempo": 120.0
            }
        ],
        "Acoustic Grand Piano": [
            {
                "pitch": 0,
                "velocity": 0,
                "duration": 48.3136,
                "tempo": 0
            },
            {
                "pitch": 108,
                "velocity": 15,
                "duration": 0.1,
                "tempo": 120.0
            }
        ]
    }
}