{
    "track_id": "10 Demo 1_8",
    "mood": "happy",
    "instruments": {
        "Lead 1 (square)": [
            {
                "pitch": 0,
                "velocity": 0,
                "duration": 6.0909,
                "tempo": 0
            },
            {
                "pitch": 76,
                "velocity": 10,
                "duration": 0.1932,
                "tempo": 120.0
            },
            {
                "pitch": 76,
                "velocity": 10,
                "duration": 0.3795,
                "tempo": 120.0
            },
            {
                "pitch": 64,
                "velocity": 10,
                "duration": 0.3886,
                "tempo": 120.0
            },
            {
                "pitch": 64,
                "velocity": 10,
                "duration": 0.1909,
                "tempo": 120.0
            },
            {
                "pitch": 66,
                "velocity": 10,
                "duration": 0.1818,
                "tempo": 120.0
            },
            {
                "pitch": 67,
                "velocity": 10,
                "duration": 0.2023,
                "tempo": 120.0
            },
            {
                "pitch": 69,
                "velocity": 10,
                "duration": 0.3773,
                "tempo": 120.0
            },
            {
                "pitch": 67,
                "velocity": 10,
                "duration": 0.1841,
                "tempo": 120.0
            },
            {
                "pitch": 66,
                "velocity": 10,
                "duration": 0.3909,
                "tempo": 120.0
            },
            {
                "pitch": 67,
                "velocity": 10,
                "duration": 0.1886,
                "tempo": 120.0
            },
            {
                "pitch": 66,
                "velocity": 10,
                "duration": 0.1818,
                "tempo": 120.0
            },
            {
                "pitch": 62,
                "velocity": 10,
                "duration": 0.2045,
                "tempo": 120.0
            },
            {
                "pitch": 76,
                "velocity": 10,
                "duration": 0.1886,
                "tempo": 120.0
            },
            {
                "pitch": 76,
                "velocity": 10,
                "duration": 0.3727,
                "tempo": 120.0
            },
            {
                "pitch": 64,
                "velocity": 10,
                "duration": 0.3955,
                "tempo": 120.0
            },
            {
                "pitch": 64,
                "velocity": 10,
                "duration": 0.1955,
                "tempo": 120.0
            },
            {
                "pitch": 66,
                "velocity": 10,
                "duration": 0.1818,
                "tempo": 120.0
            },
            {
                "pitch": 67,
                "velocity": 10,
                "duration": 0.2023,
                "tempo": 120.0
            },
            {
                "pitch": 69,
                "velocity": 10,
                "duration": 0.3773,
                "tempo": 120.0
            },
            {
                "pitch": 67,
                "velocity": 10,
                "duration": 0.1841,
                "tempo": 120.0
            },
            {
                "pitch": 66,
                "velocity": 10,
                "duration": 0.3909,
                "tempo": 120.0
            },
            {
                "pitch": 67,
                "velocity": 10,
                "duration": 0.1886,
                "tempo": 120.0
            },
            {
                "pitch": 69,
                "velocity": 10,
                "duration": 0.1841,
                "tempo": 120.0
            },
            {
                "pitch": 71,
                "velocity": 10,
                "duration": 0.2023,
                "tempo": 120.0
            },
            {
                "pitch": 0,
                "velocity": 0,
                "duration": 6.1068,
                "tempo": 0
            },
            {
                "pitch": 76,
                "velocity": 10,
                "duration": 0.1886,
                "tempo": 120.0
            },
            {
                "pitch": 76,
                "velocity": 10,
                "duration": 0.375,
                "tempo": 120.0
            },
            {
                "pitch": 64,
                "velocity": 10,
                "duration": 0.3932,
                "tempo": 120.0
            },
            {
                "pitch": 64,
                "velocity": 10,
                "duration": 0.1955,
                "tempo": 120.0
            },
            {
                "pitch": 66,
                "velocity": 10,
                "duration": 0.1818,
                "tempo": 120.0
            },
            {
                "pitch": 67,
                "velocity": 10,
                "duration": 0.2023,
                "tempo": 120.0
            },
            {
                "pitch": 69,
                "velocity": 10,
                "duration": 0.3773,
                "tempo": 120.0
            },
            {
                "pitch": 67,
                "velocity": 10,
                "duration": 0.1841,
                "tempo": 120.0
            },
            {
                "pitch": 66,
                "velocity": 10,
                "duration": 0.3909,
                "tempo": 120.0
            },
            {
                "pitch": 67,
                "velocity": 10,
                "duration": 0.1886,
                "tempo": 120.0
            },
            {
                "pitch": 66,
                "velocity": 10,
                "duration": 0.1841,
                "tempo": 120.0
            },
            {
                "pitch": 62,
                "velocity": 10,
                "duration": 0.2023,
                "tempo": 120.0
            },
            {
                "pitch": 76,
                "velocity": 10,
                "duration": 0.1886,
                "tempo": 120.0
            },
            {
                "pitch": 76,
                "velocity": 10,
                "duration": 0.375,
                "tempo": 120.0
            },
            {
                "pitch": 64,
                "velocity": 10,
                "duration": 0.3886,
                "tempo": 120.0
            },
            {
                "pitch": 64,
                "velocity": 10,
                "duration": 0.1909,
                "tempo": 120.0
            },
            {
                "pitch": 66,
                "velocity": 10,
                "duration": 0.1818,
                "tempo": 120.0
            },
            {
                "pitch": 67,
                "velocity": 10,
                "duration": 0.2023,
                "tempo": 120.0
            },
            {
                "pitch": 69,
                "velocity": 10,
                "duration": 0.3773,
                "tempo": 120.0
            },
            {
                "pitch": 67,
                "velocity": 10,
                "duration": 0.1841,
                "tempo": 120.0
            },
            {
                "pitch": 66,
                "velocity": 10,
                "duration": 0.3909,
                "tempo": 120.0
            },
            {
                "pitch": 67,
                "velocity": 10,
                "duration": 0.1886,
                "tempo": 120.0
            },
            {
                "pitch": 69,
                "velocity": 10,
                "duration": 0.1841,
                "tempo": 120.0
            },
            {
                "pitch": 71,
                "velocity": 10,
                "duration": 0.2,
                "tempo": 120.0
            },
            {
                "pitch": 0,
                "velocity": 0,
                "duration": 0.0023,
                "tempo": 0
            },
            {
                "pitch": 88,
                "velocity": 10,
                "duration": 0.1932,
                "tempo": 120.0
            },
            {
                "pitch": 88,
                "velocity": 8,
                "duration": 0.1955,
                "tempo": 120.0
            },
            {
                "pitch": 88,
                "velocity": 7,
                "duration": 0.1841,
                "tempo": 120.0
            },
            {
                "pitch": 88,
                "velocity": 5,
                "duration": 0.2,
                "tempo": 120.0
            },
            {
                "pitch": 88,
                "velocity": 5,
                "duration": 0.1841,
                "tempo": 120.0
            },
            {
                "pitch": 88,
                "velocity": 4,
                "duration": 0.1818,
                "tempo": 120.0
            },
            {
                "pitch": 0,
                "velocity": 0,
                "duration": 0.0023,
                "tempo": 0
            },
            {
                "pitch": 88,
                "velocity": 3,
                "duration": 0.1818,
                "tempo": 120.0
            },
            {
                "pitch": 88,
                "velocity": 3,
                "duration": 0.2023,
                "tempo": 120.0
            },
            {
                "pitch": 0,
                "velocity": 0,
                "duration": 12.2341,
                "tempo": 0
            },
            {
                "pitch": 76,
                "velocity": 10,
                "duration": 0.1886,
                "tempo": 120.0
            },
            {
                "pitch": 76,
                "velocity": 10,
                "duration": 0.375,
                "tempo": 120.0
            },
            {
                "pitch": 64,
                "velocity": 10,
                "duration": 0.3932,
                "tempo": 120.0
            },
            {
                "pitch": 64,
                "velocity": 10,
                "duration": 0.1955,
                "tempo": 120.0
            },
            {
                "pitch": 66,
                "velocity": 10,
                "duration": 0.1773,
                "tempo": 120.0
            },
            {
                "pitch": 67,
                "velocity": 10,
                "duration": 0.1977,
                "tempo": 120.0
            },
            {
                "pitch": 69,
                "velocity": 10,
                "duration": 0.3864,
                "tempo": 120.0
            },
            {
                "pitch": 67,
                "velocity": 10,
                "duration": 0.1841,
                "tempo": 120.0
            },
            {
                "pitch": 66,
                "velocity": 10,
                "duration": 0.3909,
                "tempo": 120.0
            },
            {
                "pitch": 67,
                "velocity": 10,
                "duration": 0.1886,
                "tempo": 120.0
            },
            {
                "pitch": 66,
                "velocity": 10,
                "duration": 0.1795,
                "tempo": 120.0
            },
            {
                "pitch": 62,
                "velocity": 10,
                "duration": 0.1977,
                "tempo": 120.0
            },
            {
                "pitch": 76,
                "velocity": 10,
                "duration": 0.1932,
                "tempo": 120.0
            },
            {
                "pitch": 76,
                "velocity": 10,
                "duration": 0.3795,
                "tempo": 120.0
            },
            {
                "pitch": 64,
                "velocity": 10,
                "duration": 0.3886,
                "tempo": 120.0
            },
            {
                "pitch": 64,
                "velocity": 10,
                "duration": 0.1909,
                "tempo": 120.0
            },
            {
                "pitch": 66,
                "velocity": 10,
                "duration": 0.1818,
                "tempo": 120.0
            },
            {
                "pitch": 67,
                "velocity": 10,
                "duration": 0.2023,
                "tempo": 120.0
            },
            {
                "pitch": 69,
                "velocity": 10,
                "duration": 0.3773,
                "tempo": 120.0
            },
            {
                "pitch": 67,
                "velocity": 10,
                "duration": 0.1841,
                "tempo": 120.0
            },
            {
                "pitch": 66,
                "velocity": 10,
                "duration": 0.3909,
                "tempo": 120.0
            },
            {
                "pitch": 67,
                "velocity": 10,
                "duration": 0.1886,
                "tempo": 120.0
            },
            {
                "pitch": 69,
                "velocity": 10,
                "duration": 0.1841,
                "tempo": 120.0
            },
            {
                "pitch": 71,
                "velocity": 10,
                "duration": 0.2023,
                "tempo": 120.0
            },
            {
                "pitch": 72,
                "velocity": 10,
                "duration": 1.1409,
                "tempo": 120.0
            },
            {
                "pitch": 76,
                "velocity": 10,
                "duration": 0.3841,
                "tempo": 120.0
            },
            {
                "pitch": 0,
                "velocity": 0,
                "duration": 0.0023,
                "tempo": 0
            },
            {
                "pitch": 75,
                "velocity": 10,
                "duration": 1.5386,
                "tempo": 120.0
            },
            {
                "pitch": 60,
                "velocity": 10,
                "duration": 0.7614,
                "tempo": 120.0
            },
            {
                "pitch": 64,
                "velocity": 10,
                "duration": 0.3795,
                "tempo": 120.0
            },
            {
                "pitch": 69,
                "velocity": 10,
                "duration": 0.3841,
                "tempo": 120.0
            },
            {
                "pitch": 0,
                "velocity": 0,
                "duration": 0.0023,
                "tempo": 0
            },
            {
                "pitch": 67,
                "velocity": 10,
                "duration": 0.7614,
                "tempo": 120.0
            },
            {
                "pitch": 0,
                "velocity": 0,
                "duration": 0.0023,
                "tempo": 0
            },
            {
                "pitch": 66,
                "velocity": 10,
                "duration": 0.7614,
                "tempo": 120.0
            },
            {
                "pitch": 76,
                "velocity": 10,
                "duration": 0.1886,
                "tempo": 120.0
            },
            {
                "pitch": 0,
                "velocity": 0,
                "duration": 0.0023,
                "tempo": 0
            },
            {
                "pitch": 76,
                "velocity": 8,
                "duration": 0.1886,
                "tempo": 120.0
            },
            {
                "pitch": 76,
                "velocity": 7,
                "duration": 0.1841,
                "tempo": 120.0
            },
            {
                "pitch": 76,
                "velocity": 5,
                "duration": 0.2,
                "tempo": 120.0
            },
            {
                "pitch": 76,
                "velocity": 5,
                "duration": 0.1886,
                "tempo": 120.0
            },
            {
                "pitch": 76,
                "velocity": 4,
                "duration": 0.1909,
                "tempo": 120.0
            },
            {
                "pitch": 76,
                "velocity": 3,
                "duration": 0.1841,
                "tempo": 120.0
            },
            {
                "pitch": 76,
                "velocity": 3,
                "duration": 0.2,
                "tempo": 120.0
            },
            {
                "pitch": 76,
                "velocity": 2,
                "duration": 0.1932,
                "tempo": 120.0
            },
            {
                "pitch": 76,
                "velocity": 2,
                "duration": 0.1955,
                "tempo": 120.0
            },
            {
                "pitch": 76,
                "velocity": 2,
                "duration": 0.1795,
                "tempo": 120.0
            },
            {
                "pitch": 76,
                "velocity": 2,
                "duration": 0.1955,
                "tempo": 120.0
            },
            {
                "pitch": 76,
                "velocity": 2,
                "duration": 0.7636,
                "tempo": 120.0
            },
            {
                "pitch": 0,
                "velocity": 0,
                "duration": 9.1818,
                "tempo": 0
            },
            {
                "pitch": 76,
                "velocity": 12,
                "duration": 0.75,
                "tempo": 120.0
            },
            {
                "pitch": 88,
                "velocity": 12,
                "duration": 0.7636,
                "tempo": 120.0
            },
            {
                "pitch": 83,
                "velocity": 12,
                "duration": 0.9614,
                "tempo": 120.0
            },
            {
                "pitch": 0,
                "velocity": 0,
                "duration": 0.0023,
                "tempo": 0
            },
            {
                "pitch": 79,
                "velocity": 12,
                "duration": 0.1886,
                "tempo": 120.0
            },
            {
                "pitch": 81,
                "velocity": 12,
                "duration": 0.1841,
                "tempo": 120.0
            },
            {
                "pitch": 83,
                "velocity": 12,
                "duration": 0.2023,
                "tempo": 120.0
            },
            {
                "pitch": 84,
                "velocity": 12,
                "duration": 0.95,
                "tempo": 120.0
            },
            {
                "pitch": 81,
                "velocity": 12,
                "duration": 0.1909,
                "tempo": 120.0
            },
            {
                "pitch": 83,
                "velocity": 12,
                "duration": 0.1841,
                "tempo": 120.0
            },
            {
                "pitch": 84,
                "velocity": 12,
                "duration": 0.2,
                "tempo": 120.0
            },
            {
                "pitch": 0,
                "velocity": 0,
                "duration": 0.0023,
                "tempo": 0
            },
            {
                "pitch": 83,
                "velocity": 12,
                "duration": 0.5591,
                "tempo": 120.0
            },
            {
                "pitch": 0,
                "velocity": 0,
                "duration": 0.0023,
                "tempo": 0
            },
            {
                "pitch": 84,
                "velocity": 12,
                "duration": 0.0977,
                "tempo": 120.0
            },
            {
                "pitch": 83,
                "velocity": 12,
                "duration": 0.1023,
                "tempo": 120.0
            },
            {
                "pitch": 81,
                "velocity": 12,
                "duration": 0.3795,
                "tempo": 120.0
            },
            {
                "pitch": 79,
                "velocity": 12,
                "duration": 0.1818,
                "tempo": 120.0
            },
            {
                "pitch": 78,
                "velocity": 12,
                "duration": 0.2023,
                "tempo": 120.0
            },
            {
                "pitch": 76,
                "velocity": 12,
                "duration": 0.7636,
                "tempo": 120.0
            },
            {
                "pitch": 88,
                "velocity": 12,
                "duration": 0.7636,
                "tempo": 120.0
            },
            {
                "pitch": 83,
                "velocity": 12,
                "duration": 0.9614,
                "tempo": 120.0
            },
            {
                "pitch": 79,
                "velocity": 12,
                "duration": 0.1909,
                "tempo": 120.0
            },
            {
                "pitch": 81,
                "velocity": 12,
                "duration": 0.1841,
                "tempo": 120.0
            },
            {
                "pitch": 83,
                "velocity": 12,
                "duration": 0.2,
                "tempo": 120.0
            },
            {
                "pitch": 84,
                "velocity": 12,
                "duration": 0.9523,
                "tempo": 120.0
            },
            {
                "pitch": 81,
                "velocity": 12,
                "duration": 0.1909,
                "tempo": 120.0
            },
            {
                "pitch": 83,
                "velocity": 12,
                "duration": 0.1818,
                "tempo": 120.0
            },
            {
                "pitch": 84,
                "velocity": 12,
                "duration": 0.2023,
                "tempo": 120.0
            },
            {
                "pitch": 83,
                "velocity": 12,
                "duration": 0.5614,
                "tempo": 120.0
            },
            {
                "pitch": 0,
                "velocity": 0,
                "duration": 0.0023,
                "tempo": 0
            },
            {
                "pitch": 84,
                "velocity": 12,
                "duration": 0.0977,
                "tempo": 120.0
            },
            {
                "pitch": 83,
                "velocity": 12,
                "duration": 0.1023,
                "tempo": 120.0
            },
            {
                "pitch": 81,
                "velocity": 12,
                "duration": 0.3795,
                "tempo": 120.0
            },
            {
                "pitch": 79,
                "velocity": 12,
                "duration": 0.1818,
                "tempo": 120.0
            },
            {
                "pitch": 78,
                "velocity": 12,
                "duration": 0.2023,
                "tempo": 120.0
            }
        ],
        "Lead 2 (sawtooth)": [
            {
                "pitch": 0,
                "velocity": 0,
                "duration": 6.0886,
                "tempo": 0
            },
            {
                "pitch": 76,
                "velocity": 15,
                "duration": 0.1955,
                "tempo": 120.0
            },
            {
                "pitch": 76,
                "velocity": 15,
                "duration": 0.1932,
                "tempo": 120.0
            },
            {
                "pitch": 76,
                "velocity": 12,
                "duration": 0.1841,
                "tempo": 120.0
            },
            {
                "pitch": 76,
                "velocity": 10,
                "duration": 0.2,
                "tempo": 120.0
            },
            {
                "pitch": 76,
                "velocity": 8,
                "duration": 0.1909,
                "tempo": 120.0
            },
            {
                "pitch": 76,
                "velocity": 7,
                "duration": 0.1886,
                "tempo": 120.0
            },
            {
                "pitch": 76,
                "velocity": 5,
                "duration": 0.1841,
                "tempo": 120.0
            },
            {
                "pitch": 76,
                "velocity": 5,
                "duration": 0.2,
                "tempo": 120.0
            },
            {
                "pitch": 62,
                "velocity": 15,
                "duration": 0.7636,
                "tempo": 120.0
            },
            {
                "pitch": 66,
                "velocity": 15,
                "duration": 0.7636,
                "tempo": 120.0
            },
            {
                "pitch": 76,
                "velocity": 15,
                "duration": 0.1909,
                "tempo": 120.0
            },
            {
                "pitch": 76,
                "velocity": 15,
                "duration": 0.1886,
                "tempo": 120.0
            },
            {
                "pitch": 76,
                "velocity": 12,
                "duration": 0.1841,
                "tempo": 120.0
            },
            {
                "pitch": 76,
                "velocity": 10,
                "duration": 0.2,
                "tempo": 120.0
            },
            {
                "pitch": 76,
                "velocity": 8,
                "duration": 0.1932,
                "tempo": 120.0
            },
            {
                "pitch": 0,
                "velocity": 0,
                "duration": 0.0023,
                "tempo": 0
            },
            {
                "pitch": 76,
                "velocity": 7,
                "duration": 0.1932,
                "tempo": 120.0
            },
            {
                "pitch": 76,
                "velocity": 5,
                "duration": 0.1841,
                "tempo": 120.0
            },
            {
                "pitch": 76,
                "velocity": 5,
                "duration": 0.2,
                "tempo": 120.0
            },
            {
                "pitch": 69,
                "velocity": 15,
                "duration": 0.7636,
                "tempo": 120.0
            },
            {
                "pitch": 74,
                "velocity": 15,
                "duration": 0.7636,
                "tempo": 120.0
            },
            {
                "pitch": 0,
                "velocity": 0,
                "duration": 6.1091,
                "tempo": 0
            },
            {
                "pitch": 76,
                "velocity": 15,
                "duration": 0.1886,
                "tempo": 120.0
            },
            {
                "pitch": 76,
                "velocity": 15,
                "duration": 0.1886,
                "tempo": 120.0
            },
            {
                "pitch": 76,
                "velocity": 12,
                "duration": 0.1841,
                "tempo": 120.0
            },
            {
                "pitch": 76,
                "velocity": 10,
                "duration": 0.2,
                "tempo": 120.0
            },
            {
                "pitch": 76,
                "velocity": 8,
                "duration": 0.1955,
                "tempo": 120.0
            },
            {
                "pitch": 76,
                "velocity": 7,
                "duration": 0.1932,
                "tempo": 120.0
            },
            {
                "pitch": 0,
                "velocity": 0,
                "duration": 0.0023,
                "tempo": 0
            },
            {
                "pitch": 76,
                "velocity": 5,
                "duration": 0.1818,
                "tempo": 120.0
            },
            {
                "pitch": 76,
                "velocity": 5,
                "duration": 0.2023,
                "tempo": 120.0
            },
            {
                "pitch": 62,
                "velocity": 15,
                "duration": 0.7614,
                "tempo": 120.0
            },
            {
                "pitch": 0,
                "velocity": 0,
                "duration": 0.0023,
                "tempo": 0
            },
            {
                "pitch": 66,
                "velocity": 15,
                "duration": 0.7614,
                "tempo": 120.0
            },
            {
                "pitch": 0,
                "velocity": 0,
                "duration": 0.0023,
                "tempo": 0
            },
            {
                "pitch": 76,
                "velocity": 15,
                "duration": 0.1886,
                "tempo": 120.0
            },
            {
                "pitch": 76,
                "velocity": 15,
                "duration": 0.1886,
                "tempo": 120.0
            },
            {
                "pitch": 76,
                "velocity": 12,
                "duration": 0.1841,
                "tempo": 120.0
            },
            {
                "pitch": 76,
                "velocity": 10,
                "duration": 0.2,
                "tempo": 120.0
            },
            {
                "pitch": 76,
                "velocity": 8,
                "duration": 0.1909,
                "tempo": 120.0
            },
            {
                "pitch": 76,
                "velocity": 7,
                "duration": 0.1886,
                "tempo": 120.0
            },
            {
                "pitch": 76,
                "velocity": 5,
                "duration": 0.1841,
                "tempo": 120.0
            },
            {
                "pitch": 76,
                "velocity": 5,
                "duration": 0.2,
                "tempo": 120.0
            },
            {
                "pitch": 69,
                "velocity": 15,
                "duration": 0.7636,
                "tempo": 120.0
            },
            {
                "pitch": 74,
                "velocity": 15,
                "duration": 0.7636,
                "tempo": 120.0
            },
            {
                "pitch": 0,
                "velocity": 0,
                "duration": 13.7614,
                "tempo": 0
            },
            {
                "pitch": 76,
                "velocity": 15,
                "duration": 0.1886,
                "tempo": 120.0
            },
            {
                "pitch": 76,
                "velocity": 15,
                "duration": 0.1886,
                "tempo": 120.0
            },
            {
                "pitch": 76,
                "velocity": 12,
                "duration": 0.1841,
                "tempo": 120.0
            },
            {
                "pitch": 76,
                "velocity": 10,
                "duration": 0.2,
                "tempo": 120.0
            },
            {
                "pitch": 76,
                "velocity": 8,
                "duration": 0.1955,
                "tempo": 120.0
            },
            {
                "pitch": 76,
                "velocity": 7,
                "duration": 0.1932,
                "tempo": 120.0
            },
            {
                "pitch": 76,
                "velocity": 5,
                "duration": 0.1795,
                "tempo": 120.0
            },
            {
                "pitch": 76,
                "velocity": 5,
                "duration": 0.1955,
                "tempo": 120.0
            },
            {
                "pitch": 62,
                "velocity": 15,
                "duration": 0.7727,
                "tempo": 120.0
            },
            {
                "pitch": 0,
                "velocity": 0,
                "duration": 0.0023,
                "tempo": 0
            },
            {
                "pitch": 66,
                "velocity": 15,
                "duration": 0.7523,
                "tempo": 120.0
            },
            {
                "pitch": 76,
                "velocity": 15,
                "duration": 0.1955,
                "tempo": 120.0
            },
            {
                "pitch": 76,
                "velocity": 15,
                "duration": 0.1932,
                "tempo": 120.0
            },
            {
                "pitch": 76,
                "velocity": 12,
                "duration": 0.1841,
                "tempo": 120.0
            },
            {
                "pitch": 76,
                "velocity": 10,
                "duration": 0.2,
                "tempo": 120.0
            },
            {
                "pitch": 0,
                "velocity": 0,
                "duration": 0.0023,
                "tempo": 0
            },
            {
                "pitch": 76,
                "velocity": 8,
                "duration": 0.1886,
                "tempo": 120.0
            },
            {
                "pitch": 76,
                "velocity": 7,
                "duration": 0.1886,
                "tempo": 120.0
            },
            {
                "pitch": 76,
                "velocity": 5,
                "duration": 0.1841,
                "tempo": 120.0
            },
            {
                "pitch": 76,
                "velocity": 5,
                "duration": 0.2,
                "tempo": 120.0
            },
            {
                "pitch": 69,
                "velocity": 15,
                "duration": 0.7636,
                "tempo": 120.0
            },
            {
                "pitch": 74,
                "velocity": 15,
                "duration": 0.7636,
                "tempo": 120.0
            },
            {
                "pitch": 76,
                "velocity": 15,
                "duration": 1.5273,
                "tempo": 120.0
            },
            {
                "pitch": 71,
                "velocity": 15,
                "duration": 1.5386,
                "tempo": 120.0
            },
            {
                "pitch": 69,
                "velocity": 15,
                "duration": 1.1432,
                "tempo": 120.0
            },
            {
                "pitch": 66,
                "velocity": 15,
                "duration": 0.3841,
                "tempo": 120.0
            },
            {
                "pitch": 72,
                "velocity": 15,
                "duration": 0.7636,
                "tempo": 120.0
            },
            {
                "pitch": 71,
                "velocity": 15,
                "duration": 0.7636,
                "tempo": 120.0
            }
        ],
        "Synth Bass 1": [
            {
                "pitch": 0,
                "velocity": 0,
                "duration": 25.9659,
                "tempo": 0
            },
            {
                "pitch": 47,
                "velocity": 1,
                "duration": 1.525,
                "tempo": 120.0
            },
            {
                "pitch": 0,
                "velocity": 0,
                "duration": 0.0023,
                "tempo": 0
            },
            {
                "pitch": 46,
                "velocity": 1,
                "duration": 1.5364,
                "tempo": 120.0
            },
            {
                "pitch": 47,
                "velocity": 1,
                "duration": 1.525,
                "tempo": 120.0
            },
            {
                "pitch": 0,
                "velocity": 0,
                "duration": 0.0023,
                "tempo": 0
            },
            {
                "pitch": 44,
                "velocity": 1,
                "duration": 1.525,
                "tempo": 120.0
            },
            {
                "pitch": 47,
                "velocity": 1,
                "duration": 1.5273,
                "tempo": 120.0
            },
            {
                "pitch": 46,
                "velocity": 1,
                "duration": 1.5273,
                "tempo": 120.0
            },
            {
                "pitch": 47,
                "velocity": 1,
                "duration": 1.5364,
                "tempo": 120.0
            },
            {
                "pitch": 44,
                "velocity": 1,
                "duration": 1.5273,
                "tempo": 120.0
            }
        ],
        "Acoustic Grand Piano": [
            {
                "pitch": 0,
                "velocity": 0,
                "duration": 76.2409,
                "tempo": 0
            },
            {
                "pitch": 108,
                "velocity": 15,
                "duration": 0.1,
                "tempo": 120.0
            }
        ]
    }
}