{
    "track_id": "15 Ending #2_4",
    "mood": "happy",
    "instruments": {
        "Lead 1 (square)": [
            {
                "pitch": 0,
                "velocity": 0,
                "duration": 0.0045,
                "tempo": 0
            },
            {
                "pitch": 40,
                "velocity": 15,
                "duration": 0.3909,
                "tempo": 120.0
            },
            {
                "pitch": 40,
                "velocity": 15,
                "duration": 0.4205,
                "tempo": 120.0
            },
            {
                "pitch": 41,
                "velocity": 15,
                "duration": 1.5909,
                "tempo": 120.0
            },
            {
                "pitch": 41,
                "velocity": 15,
                "duration": 0.4182,
                "tempo": 120.0
            },
            {
                "pitch": 45,
                "velocity": 15,
                "duration": 0.3955,
                "tempo": 120.0
            },
            {
                "pitch": 43,
                "velocity": 15,
                "duration": 1.2136,
                "tempo": 120.0
            },
            {
                "pitch": 43,
                "velocity": 15,
                "duration": 1.2136,
                "tempo": 120.0
            },
            {
                "pitch": 43,
                "velocity": 15,
                "duration": 0.4045,
                "tempo": 120.0
            },
            {
                "pitch": 45,
                "velocity": 15,
                "duration": 0.4,
                "tempo": 120.0
            },
            {
                "pitch": 45,
                "velocity": 15,
                "duration": 0.4,
                "tempo": 120.0
            },
            {
                "pitch": 47,
                "velocity": 15,
                "duration": 0.3932,
                "tempo": 120.0
            },
            {
                "pitch": 48,
                "velocity": 15,
                "duration": 0.8432,
                "tempo": 120.0
            },
            {
                "pitch": 48,
                "velocity": 15,
                "duration": 0.1,
                "tempo": 120.0
            },
            {
                "pitch": 50,
                "velocity": 15,
                "duration": 0.2023,
                "tempo": 120.0
            },
            {
                "pitch": 53,
                "velocity": 15,
                "duration": 0.1932,
                "tempo": 120.0
            },
            {
                "pitch": 57,
                "velocity": 15,
                "duration": 0.1909,
                "tempo": 120.0
            },
            {
                "pitch": 60,
                "velocity": 15,
                "duration": 0.1,
                "tempo": 120.0
            },
            {
                "pitch": 60,
                "velocity": 15,
                "duration": 0.4045,
                "tempo": 120.0
            },
            {
                "pitch": 59,
                "velocity": 15,
                "duration": 0.4159,
                "tempo": 120.0
            },
            {
                "pitch": 57,
                "velocity": 15,
                "duration": 0.7909,
                "tempo": 120.0
            }
        ],
        "Lead 2 (sawtooth)": [
            {
                "pitch": 0,
                "velocity": 0,
                "duration": 55.2818,
                "tempo": 0
            },
            {
                "pitch": 71,
                "velocity": 12,
                "duration": 0.2,
                "tempo": 120.0
            },
            {
                "pitch": 69,
                "velocity": 12,
                "duration": 0.2023,
                "tempo": 120.0
            },
            {
                "pitch": 69,
                "velocity": 15,
                "duration": 0.2023,
                "tempo": 120.0
            },
            {
                "pitch": 69,
                "velocity": 15,
                "duration": 0.2159,
                "tempo": 120.0
            },
            {
                "pitch": 0,
                "velocity": 0,
                "duration": 0.9864,
                "tempo": 0
            },
            {
                "pitch": 67,
                "velocity": 15,
                "duration": 0.2,
                "tempo": 120.0
            },
            {
                "pitch": 69,
                "velocity": 15,
                "duration": 0.2,
                "tempo": 120.0
            },
            {
                "pitch": 69,
                "velocity": 15,
                "duration": 0.2159,
                "tempo": 120.0
            },
            {
                "pitch": 0,
                "velocity": 0,
                "duration": 0.7886,
                "tempo": 0
            },
            {
                "pitch": 67,
                "velocity": 15,
                "duration": 0.4,
                "tempo": 120.0
            },
            {
                "pitch": 69,
                "velocity": 15,
                "duration": 0.2,
                "tempo": 120.0
            },
            {
                "pitch": 69,
                "velocity": 15,
                "duration": 0.2159,
                "tempo": 120.0
            },
            {
                "pitch": 0,
                "velocity": 0,
                "duration": 1.1886,
                "tempo": 0
            },
            {
                "pitch": 65,
                "velocity": 15,
                "duration": 0.6023,
                "tempo": 120.0
            },
            {
                "pitch": 65,
                "velocity": 15,
                "duration": 0.4,
                "tempo": 120.0
            },
            {
                "pitch": 65,
                "velocity": 15,
                "duration": 0.2,
                "tempo": 120.0
            },
            {
                "pitch": 67,
                "velocity": 15,
                "duration": 0.4114,
                "tempo": 120.0
            },
            {
                "pitch": 69,
                "velocity": 15,
                "duration": 0.2,
                "tempo": 120.0
            },
            {
                "pitch": 69,
                "velocity": 15,
                "duration": 0.2159,
                "tempo": 120.0
            },
            {
                "pitch": 0,
                "velocity": 0,
                "duration": 0.9864,
                "tempo": 0
            },
            {
                "pitch": 67,
                "velocity": 15,
                "duration": 0.2023,
                "tempo": 120.0
            },
            {
                "pitch": 69,
                "velocity": 15,
                "duration": 0.2,
                "tempo": 120.0
            },
            {
                "pitch": 69,
                "velocity": 15,
                "duration": 0.2159,
                "tempo": 120.0
            },
            {
                "pitch": 0,
                "velocity": 0,
                "duration": 0.7864,
                "tempo": 0
            },
            {
                "pitch": 67,
                "velocity": 15,
                "duration": 0.4023,
                "tempo": 120.0
            },
            {
                "pitch": 69,
                "velocity": 15,
                "duration": 0.2,
                "tempo": 120.0
            },
            {
                "pitch": 69,
                "velocity": 15,
                "duration": 0.2182,
                "tempo": 120.0
            },
            {
                "pitch": 0,
                "velocity": 0,
                "duration": 1.1909,
                "tempo": 0
            },
            {
                "pitch": 69,
                "velocity": 15,
                "duration": 0.6023,
                "tempo": 120.0
            },
            {
                "pitch": 69,
                "velocity": 15,
                "duration": 0.4023,
                "tempo": 120.0
            },
            {
                "pitch": 69,
                "velocity": 15,
                "duration": 0.2023,
                "tempo": 120.0
            }
        ],
        "Synth Bass 1": [
            {
                "pitch": 52,
                "velocity": 1,
                "duration": 0.3932,
                "tempo": 120.0
            },
            {
                "pitch": 0,
                "velocity": 0,
                "duration": 0.0023,
                "tempo": 0
            },
            {
                "pitch": 55,
                "velocity": 1,
                "duration": 0.4205,
                "tempo": 120.0
            },
            {
                "pitch": 57,
                "velocity": 1,
                "duration": 1.5886,
                "tempo": 120.0
            },
            {
                "pitch": 57,
                "velocity": 1,
                "duration": 0.4205,
                "tempo": 120.0
            },
            {
                "pitch": 60,
                "velocity": 1,
                "duration": 0.3955,
                "tempo": 120.0
            },
            {
                "pitch": 59,
                "velocity": 1,
                "duration": 1.2114,
                "tempo": 120.0
            },
            {
                "pitch": 55,
                "velocity": 1,
                "duration": 0.4045,
                "tempo": 120.0
            },
            {
                "pitch": 55,
                "velocity": 1,
                "duration": 0.4045,
                "tempo": 120.0
            },
            {
                "pitch": 64,
                "velocity": 1,
                "duration": 2.0114,
                "tempo": 120.0
            },
            {
                "pitch": 0,
                "velocity": 0,
                "duration": 0.0023,
                "tempo": 0
            },
            {
                "pitch": 60,
                "velocity": 1,
                "duration": 0.4,
                "tempo": 120.0
            },
            {
                "pitch": 62,
                "velocity": 1,
                "duration": 0.3932,
                "tempo": 120.0
            },
            {
                "pitch": 62,
                "velocity": 1,
                "duration": 0.3932,
                "tempo": 120.0
            },
            {
                "pitch": 64,
                "velocity": 1,
                "duration": 0.7955,
                "tempo": 120.0
            },
            {
                "pitch": 64,
                "velocity": 1,
                "duration": 0.8932,
                "tempo": 120.0
            },
            {
                "pitch": 64,
                "velocity": 1,
                "duration": 0.8932,
                "tempo": 120.0
            },
            {
                "pitch": 64,
                "velocity": 1,
                "duration": 0.2,
                "tempo": 120.0
            },
            {
                "pitch": 67,
                "velocity": 1,
                "duration": 0.1977,
                "tempo": 120.0
            },
            {
                "pitch": 71,
                "velocity": 1,
                "duration": 0.0955,
                "tempo": 120.0
            },
            {
                "pitch": 72,
                "velocity": 1,
                "duration": 0.0955,
                "tempo": 120.0
            },
            {
                "pitch": 74,
                "velocity": 1,
                "duration": 0.0955,
                "tempo": 120.0
            },
            {
                "pitch": 76,
                "velocity": 1,
                "duration": 0.1909,
                "tempo": 120.0
            },
            {
                "pitch": 76,
                "velocity": 1,
                "duration": 0.4045,
                "tempo": 120.0
            },
            {
                "pitch": 76,
                "velocity": 1,
                "duration": 0.4045,
                "tempo": 120.0
            },
            {
                "pitch": 74,
                "velocity": 1,
                "duration": 0.4205,
                "tempo": 120.0
            },
            {
                "pitch": 74,
                "velocity": 1,
                "duration": 0.4205,
                "tempo": 120.0
            },
            {
                "pitch": 72,
                "velocity": 1,
                "duration": 0.7864,
                "tempo": 120.0
            },
            {
                "pitch": 72,
                "velocity": 1,
                "duration": 0.7864,
                "tempo": 120.0
            },
            {
                "pitch": 74,
                "velocity": 1,
                "duration": 1.6182,
                "tempo": 120.0
            },
            {
                "pitch": 74,
                "velocity": 1,
                "duration": 1.6182,
                "tempo": 120.0
            },
            {
                "pitch": 72,
                "velocity": 1,
                "duration": 31.7727,
                "tempo": 120.0
            },
            {
                "pitch": 72,
                "velocity": 1,
                "duration": 31.7727,
                "tempo": 120.0
            },
            {
                "pitch": 72,
                "velocity": 1,
                "duration": 0.1977,
                "tempo": 120.0
            },
            {
                "pitch": 71,
                "velocity": 1,
                "duration": 0.2023,
                "tempo": 120.0
            },
            {
                "pitch": 69,
                "velocity": 1,
                "duration": 0.6023,
                "tempo": 120.0
            },
            {
                "pitch": 76,
                "velocity": 1,
                "duration": 0.4159,
                "tempo": 120.0
            },
            {
                "pitch": 0,
                "velocity": 0,
                "duration": 0.5864,
                "tempo": 0
            },
            {
                "pitch": 67,
                "velocity": 1,
                "duration": 0.6023,
                "tempo": 120.0
            },
            {
                "pitch": 78,
                "velocity": 1,
                "duration": 1.6045,
                "tempo": 120.0
            },
            {
                "pitch": 76,
                "velocity": 1,
                "duration": 0.4159,
                "tempo": 120.0
            },
            {
                "pitch": 0,
                "velocity": 0,
                "duration": 0.5977,
                "tempo": 0
            },
            {
                "pitch": 65,
                "velocity": 1,
                "duration": 0.5977,
                "tempo": 120.0
            },
            {
                "pitch": 76,
                "velocity": 1,
                "duration": 0.4205,
                "tempo": 120.0
            },
            {
                "pitch": 0,
                "velocity": 0,
                "duration": 0.5864,
                "tempo": 0
            },
            {
                "pitch": 67,
                "velocity": 1,
                "duration": 1.0023,
                "tempo": 120.0
            },
            {
                "pitch": 78,
                "velocity": 1,
                "duration": 3.6205,
                "tempo": 120.0
            },
            {
                "pitch": 64,
                "velocity": 1,
                "duration": 0.2,
                "tempo": 120.0
            },
            {
                "pitch": 65,
                "velocity": 1,
                "duration": 0.2023,
                "tempo": 120.0
            },
            {
                "pitch": 67,
                "velocity": 1,
                "duration": 0.2,
                "tempo": 120.0
            },
            {
                "pitch": 69,
                "velocity": 1,
                "duration": 0.6,
                "tempo": 120.0
            },
            {
                "pitch": 78,
                "velocity": 1,
                "duration": 1.2023,
                "tempo": 120.0
            },
            {
                "pitch": 76,
                "velocity": 1,
                "duration": 0.4159,
                "tempo": 120.0
            },
            {
                "pitch": 0,
                "velocity": 0,
                "duration": 0.5886,
                "tempo": 0
            },
            {
                "pitch": 67,
                "velocity": 1,
                "duration": 0.6,
                "tempo": 120.0
            },
            {
                "pitch": 78,
                "velocity": 1,
                "duration": 1.6045,
                "tempo": 120.0
            },
            {
                "pitch": 76,
                "velocity": 1,
                "duration": 0.4159,
                "tempo": 120.0
            },
            {
                "pitch": 0,
                "velocity": 0,
                "duration": 0.5864,
                "tempo": 0
            },
            {
                "pitch": 65,
                "velocity": 1,
                "duration": 0.6023,
                "tempo": 120.0
            },
            {
                "pitch": 76,
                "velocity": 1,
                "duration": 0.4182,
                "tempo": 120.0
            }
        ],
        "Acoustic Grand Piano": [
            {
                "pitch": 0,
                "velocity": 0,
                "duration": 84.4545,
                "tempo": 0
            },
            {
                "pitch": 108,
                "velocity": 15,
                "duration": 0.1,
                "tempo": 120.0
            }
        ]
    }
}