{
    "track_id": "16 Agnesia_4",
    "mood": "happy",
    "instruments": {
        "Lead 1 (square)": [
            {
                "pitch": 0,
                "velocity": 0,
                "duration": 68.9727,
                "tempo": 0
            },
            {
                "pitch": 55,
                "velocity": 8,
                "duration": 0.0432,
                "tempo": 120.0
            },
            {
                "pitch": 0,
                "velocity": 0,
                "duration": 0.0568,
                "tempo": 0
            },
            {
                "pitch": 59,
                "velocity": 8,
                "duration": 0.0545,
                "tempo": 120.0
            },
            {
                "pitch": 0,
                "velocity": 0,
                "duration": 0.0568,
                "tempo": 0
            },
            {
                "pitch": 60,
                "velocity": 8,
                "duration": 0.1682,
                "tempo": 120.0
            }
        ],
        "Lead 2 (sawtooth)": [
            {
                "pitch": 0,
                "velocity": 0,
                "duration": 15.7045,
                "tempo": 0
            },
            {
                "pitch": 52,
                "velocity": 8,
                "duration": 1.1841,
                "tempo": 120.0
            },
            {
                "pitch": 0,
                "velocity": 0,
                "duration": 0.0182,
                "tempo": 0
            },
            {
                "pitch": 50,
                "velocity": 8,
                "duration": 0.0818,
                "tempo": 120.0
            },
            {
                "pitch": 0,
                "velocity": 0,
                "duration": 0.1182,
                "tempo": 0
            },
            {
                "pitch": 50,
                "velocity": 8,
                "duration": 0.0818,
                "tempo": 120.0
            },
            {
                "pitch": 0,
                "velocity": 0,
                "duration": 0.1182,
                "tempo": 0
            },
            {
                "pitch": 55,
                "velocity": 8,
                "duration": 0.4932,
                "tempo": 120.0
            },
            {
                "pitch": 55,
                "velocity": 8,
                "duration": 0.1,
                "tempo": 120.0
            },
            {
                "pitch": 54,
                "velocity": 8,
                "duration": 1.0932,
                "tempo": 120.0
            },
            {
                "pitch": 54,
                "velocity": 8,
                "duration": 0.0818,
                "tempo": 120.0
            },
            {
                "pitch": 67,
                "velocity": 8,
                "duration": 0.2182,
                "tempo": 120.0
            },
            {
                "pitch": 55,
                "velocity": 8,
                "duration": 0.0818,
                "tempo": 120.0
            },
            {
                "pitch": 0,
                "velocity": 0,
                "duration": 0.2182,
                "tempo": 0
            },
            {
                "pitch": 54,
                "velocity": 8,
                "duration": 0.1841,
                "tempo": 120.0
            },
            {
                "pitch": 0,
                "velocity": 0,
                "duration": 0.0159,
                "tempo": 0
            },
            {
                "pitch": 52,
                "velocity": 8,
                "duration": 0.1841,
                "tempo": 120.0
            },
            {
                "pitch": 0,
                "velocity": 0,
                "duration": 0.0159,
                "tempo": 0
            },
            {
                "pitch": 50,
                "velocity": 8,
                "duration": 0.0841,
                "tempo": 120.0
            },
            {
                "pitch": 0,
                "velocity": 0,
                "duration": 0.0159,
                "tempo": 0
            },
            {
                "pitch": 52,
                "velocity": 8,
                "duration": 0.0841,
                "tempo": 120.0
            },
            {
                "pitch": 0,
                "velocity": 0,
                "duration": 0.0182,
                "tempo": 0
            },
            {
                "pitch": 54,
                "velocity": 8,
                "duration": 0.4432,
                "tempo": 120.0
            },
            {
                "pitch": 51,
                "velocity": 8,
                "duration": 0.0818,
                "tempo": 120.0
            },
            {
                "pitch": 54,
                "velocity": 8,
                "duration": 0.0477,
                "tempo": 120.0
            },
            {
                "pitch": 51,
                "velocity": 8,
                "duration": 0.0818,
                "tempo": 120.0
            },
            {
                "pitch": 54,
                "velocity": 8,
                "duration": 0.05,
                "tempo": 120.0
            },
            {
                "pitch": 51,
                "velocity": 8,
                "duration": 0.0818,
                "tempo": 120.0
            },
            {
                "pitch": 54,
                "velocity": 8,
                "duration": 0.05,
                "tempo": 120.0
            },
            {
                "pitch": 51,
                "velocity": 8,
                "duration": 0.0841,
                "tempo": 120.0
            },
            {
                "pitch": 54,
                "velocity": 8,
                "duration": 0.05,
                "tempo": 120.0
            },
            {
                "pitch": 51,
                "velocity": 8,
                "duration": 0.0818,
                "tempo": 120.0
            },
            {
                "pitch": 54,
                "velocity": 8,
                "duration": 0.05,
                "tempo": 120.0
            },
            {
                "pitch": 51,
                "velocity": 8,
                "duration": 0.0841,
                "tempo": 120.0
            },
            {
                "pitch": 54,
                "velocity": 8,
                "duration": 0.05,
                "tempo": 120.0
            },
            {
                "pitch": 51,
                "velocity": 8,
                "duration": 0.0841,
                "tempo": 120.0
            },
            {
                "pitch": 54,
                "velocity": 8,
                "duration": 0.05,
                "tempo": 120.0
            },
            {
                "pitch": 51,
                "velocity": 8,
                "duration": 0.0159,
                "tempo": 120.0
            },
            {
                "pitch": 0,
                "velocity": 0,
                "duration": 0.0182,
                "tempo": 0
            },
            {
                "pitch": 50,
                "velocity": 8,
                "duration": 0.0818,
                "tempo": 120.0
            },
            {
                "pitch": 0,
                "velocity": 0,
                "duration": 0.0182,
                "tempo": 0
            },
            {
                "pitch": 50,
                "velocity": 8,
                "duration": 0.0818,
                "tempo": 120.0
            },
            {
                "pitch": 66,
                "velocity": 8,
                "duration": 3.2182,
                "tempo": 120.0
            },
            {
                "pitch": 59,
                "velocity": 8,
                "duration": 0.7841,
                "tempo": 120.0
            },
            {
                "pitch": 0,
                "velocity": 0,
                "duration": 0.0159,
                "tempo": 0
            },
            {
                "pitch": 58,
                "velocity": 8,
                "duration": 0.2864,
                "tempo": 120.0
            },
            {
                "pitch": 0,
                "velocity": 0,
                "duration": 0.0159,
                "tempo": 0
            },
            {
                "pitch": 58,
                "velocity": 8,
                "duration": 0.2841,
                "tempo": 120.0
            },
            {
                "pitch": 0,
                "velocity": 0,
                "duration": 0.0182,
                "tempo": 0
            },
            {
                "pitch": 51,
                "velocity": 8,
                "duration": 0.1818,
                "tempo": 120.0
            },
            {
                "pitch": 0,
                "velocity": 0,
                "duration": 0.0182,
                "tempo": 0
            },
            {
                "pitch": 51,
                "velocity": 8,
                "duration": 0.5273,
                "tempo": 120.0
            },
            {
                "pitch": 54,
                "velocity": 8,
                "duration": 0.05,
                "tempo": 120.0
            },
            {
                "pitch": 51,
                "velocity": 8,
                "duration": 0.0841,
                "tempo": 120.0
            },
            {
                "pitch": 54,
                "velocity": 8,
                "duration": 0.05,
                "tempo": 120.0
            },
            {
                "pitch": 51,
                "velocity": 8,
                "duration": 0.0841,
                "tempo": 120.0
            },
            {
                "pitch": 54,
                "velocity": 8,
                "duration": 0.0477,
                "tempo": 120.0
            },
            {
                "pitch": 51,
                "velocity": 8,
                "duration": 0.0818,
                "tempo": 120.0
            },
            {
                "pitch": 54,
                "velocity": 8,
                "duration": 0.05,
                "tempo": 120.0
            },
            {
                "pitch": 51,
                "velocity": 8,
                "duration": 0.0818,
                "tempo": 120.0
            },
            {
                "pitch": 54,
                "velocity": 8,
                "duration": 0.05,
                "tempo": 120.0
            },
            {
                "pitch": 51,
                "velocity": 8,
                "duration": 0.0818,
                "tempo": 120.0
            },
            {
                "pitch": 0,
                "velocity": 0,
                "duration": 0.0159,
                "tempo": 0
            },
            {
                "pitch": 50,
                "velocity": 8,
                "duration": 0.0841,
                "tempo": 120.0
            },
            {
                "pitch": 0,
                "velocity": 0,
                "duration": 0.1182,
                "tempo": 0
            },
            {
                "pitch": 50,
                "velocity": 8,
                "duration": 0.0818,
                "tempo": 120.0
            },
            {
                "pitch": 66,
                "velocity": 8,
                "duration": 3.2114,
                "tempo": 120.0
            },
            {
                "pitch": 55,
                "velocity": 8,
                "duration": 0.4955,
                "tempo": 120.0
            },
            {
                "pitch": 67,
                "velocity": 8,
                "duration": 6.2136,
                "tempo": 120.0
            },
            {
                "pitch": 55,
                "velocity": 8,
                "duration": 0.1,
                "tempo": 120.0
            },
            {
                "pitch": 54,
                "velocity": 8,
                "duration": 1.0977,
                "tempo": 120.0
            },
            {
                "pitch": 54,
                "velocity": 8,
                "duration": 0.0818,
                "tempo": 120.0
            },
            {
                "pitch": 67,
                "velocity": 8,
                "duration": 0.2182,
                "tempo": 120.0
            },
            {
                "pitch": 55,
                "velocity": 8,
                "duration": 0.0818,
                "tempo": 120.0
            },
            {
                "pitch": 0,
                "velocity": 0,
                "duration": 0.2182,
                "tempo": 0
            },
            {
                "pitch": 54,
                "velocity": 8,
                "duration": 0.1818,
                "tempo": 120.0
            },
            {
                "pitch": 0,
                "velocity": 0,
                "duration": 0.0182,
                "tempo": 0
            },
            {
                "pitch": 52,
                "velocity": 8,
                "duration": 0.1841,
                "tempo": 120.0
            },
            {
                "pitch": 0,
                "velocity": 0,
                "duration": 0.0182,
                "tempo": 0
            },
            {
                "pitch": 50,
                "velocity": 8,
                "duration": 0.0818,
                "tempo": 120.0
            },
            {
                "pitch": 0,
                "velocity": 0,
                "duration": 0.0182,
                "tempo": 0
            },
            {
                "pitch": 52,
                "velocity": 8,
                "duration": 0.0841,
                "tempo": 120.0
            },
            {
                "pitch": 0,
                "velocity": 0,
                "duration": 0.0159,
                "tempo": 0
            },
            {
                "pitch": 54,
                "velocity": 8,
                "duration": 0.4341,
                "tempo": 120.0
            },
            {
                "pitch": 51,
                "velocity": 8,
                "duration": 0.0841,
                "tempo": 120.0
            },
            {
                "pitch": 54,
                "velocity": 8,
                "duration": 0.05,
                "tempo": 120.0
            },
            {
                "pitch": 51,
                "velocity": 8,
                "duration": 0.0841,
                "tempo": 120.0
            },
            {
                "pitch": 54,
                "velocity": 8,
                "duration": 0.05,
                "tempo": 120.0
            },
            {
                "pitch": 51,
                "velocity": 8,
                "duration": 0.0818,
                "tempo": 120.0
            },
            {
                "pitch": 54,
                "velocity": 8,
                "duration": 0.05,
                "tempo": 120.0
            },
            {
                "pitch": 51,
                "velocity": 8,
                "duration": 0.0841,
                "tempo": 120.0
            },
            {
                "pitch": 54,
                "velocity": 8,
                "duration": 0.05,
                "tempo": 120.0
            },
            {
                "pitch": 51,
                "velocity": 8,
                "duration": 0.0841,
                "tempo": 120.0
            },
            {
                "pitch": 54,
                "velocity": 8,
                "duration": 0.05,
                "tempo": 120.0
            },
            {
                "pitch": 51,
                "velocity": 8,
                "duration": 0.0841,
                "tempo": 120.0
            },
            {
                "pitch": 54,
                "velocity": 8,
                "duration": 0.05,
                "tempo": 120.0
            },
            {
                "pitch": 51,
                "velocity": 8,
                "duration": 0.0818,
                "tempo": 120.0
            },
            {
                "pitch": 54,
                "velocity": 8,
                "duration": 0.05,
                "tempo": 120.0
            },
            {
                "pitch": 51,
                "velocity": 8,
                "duration": 0.0182,
                "tempo": 120.0
            },
            {
                "pitch": 0,
                "velocity": 0,
                "duration": 0.0159,
                "tempo": 0
            },
            {
                "pitch": 50,
                "velocity": 8,
                "duration": 0.0841,
                "tempo": 120.0
            },
            {
                "pitch": 0,
                "velocity": 0,
                "duration": 0.0159,
                "tempo": 0
            },
            {
                "pitch": 50,
                "velocity": 8,
                "duration": 0.0841,
                "tempo": 120.0
            },
            {
                "pitch": 66,
                "velocity": 8,
                "duration": 3.2182,
                "tempo": 120.0
            },
            {
                "pitch": 59,
                "velocity": 8,
                "duration": 0.7864,
                "tempo": 120.0
            },
            {
                "pitch": 60,
                "velocity": 8,
                "duration": 6.4341,
                "tempo": 120.0
            },
            {
                "pitch": 58,
                "velocity": 8,
                "duration": 0.2841,
                "tempo": 120.0
            },
            {
                "pitch": 0,
                "velocity": 0,
                "duration": 0.0159,
                "tempo": 0
            },
            {
                "pitch": 58,
                "velocity": 8,
                "duration": 0.2841,
                "tempo": 120.0
            },
            {
                "pitch": 0,
                "velocity": 0,
                "duration": 0.0159,
                "tempo": 0
            },
            {
                "pitch": 51,
                "velocity": 8,
                "duration": 0.1841,
                "tempo": 120.0
            },
            {
                "pitch": 0,
                "velocity": 0,
                "duration": 0.0182,
                "tempo": 0
            },
            {
                "pitch": 51,
                "velocity": 8,
                "duration": 0.45,
                "tempo": 120.0
            },
            {
                "pitch": 48,
                "velocity": 8,
                "duration": 0.05,
                "tempo": 120.0
            },
            {
                "pitch": 51,
                "velocity": 8,
                "duration": 0.0841,
                "tempo": 120.0
            },
            {
                "pitch": 0,
                "velocity": 0,
                "duration": 0.0159,
                "tempo": 0
            },
            {
                "pitch": 57,
                "velocity": 8,
                "duration": 2.3909,
                "tempo": 120.0
            },
            {
                "pitch": 0,
                "velocity": 0,
                "duration": 0.0182,
                "tempo": 0
            },
            {
                "pitch": 55,
                "velocity": 8,
                "duration": 0.0818,
                "tempo": 120.0
            },
            {
                "pitch": 0,
                "velocity": 0,
                "duration": 0.0182,
                "tempo": 0
            },
            {
                "pitch": 55,
                "velocity": 8,
                "duration": 0.0818,
                "tempo": 120.0
            },
            {
                "pitch": 0,
                "velocity": 0,
                "duration": 0.0182,
                "tempo": 0
            },
            {
                "pitch": 57,
                "velocity": 8,
                "duration": 0.5114,
                "tempo": 120.0
            },
            {
                "pitch": 60,
                "velocity": 8,
                "duration": 4.6068,
                "tempo": 120.0
            },
            {
                "pitch": 60,
                "velocity": 8,
                "duration": 0.0841,
                "tempo": 120.0
            },
            {
                "pitch": 58,
                "velocity": 8,
                "duration": 1.2591,
                "tempo": 120.0
            },
            {
                "pitch": 58,
                "velocity": 8,
                "duration": 0.4455,
                "tempo": 120.0
            },
            {
                "pitch": 56,
                "velocity": 8,
                "duration": 0.0659,
                "tempo": 120.0
            },
            {
                "pitch": 58,
                "velocity": 8,
                "duration": 0.0659,
                "tempo": 120.0
            },
            {
                "pitch": 56,
                "velocity": 8,
                "duration": 0.0659,
                "tempo": 120.0
            },
            {
                "pitch": 58,
                "velocity": 8,
                "duration": 0.0682,
                "tempo": 120.0
            },
            {
                "pitch": 56,
                "velocity": 8,
                "duration": 0.0659,
                "tempo": 120.0
            },
            {
                "pitch": 58,
                "velocity": 8,
                "duration": 0.0682,
                "tempo": 120.0
            },
            {
                "pitch": 56,
                "velocity": 8,
                "duration": 0.0659,
                "tempo": 120.0
            },
            {
                "pitch": 58,
                "velocity": 8,
                "duration": 0.0682,
                "tempo": 120.0
            },
            {
                "pitch": 56,
                "velocity": 8,
                "duration": 0.0659,
                "tempo": 120.0
            },
            {
                "pitch": 58,
                "velocity": 8,
                "duration": 0.0682,
                "tempo": 120.0
            },
            {
                "pitch": 56,
                "velocity": 8,
                "duration": 0.0659,
                "tempo": 120.0
            },
            {
                "pitch": 58,
                "velocity": 8,
                "duration": 0.0659,
                "tempo": 120.0
            },
            {
                "pitch": 56,
                "velocity": 8,
                "duration": 0.0682,
                "tempo": 120.0
            },
            {
                "pitch": 58,
                "velocity": 8,
                "duration": 0.0659,
                "tempo": 120.0
            },
            {
                "pitch": 56,
                "velocity": 8,
                "duration": 0.0682,
                "tempo": 120.0
            },
            {
                "pitch": 58,
                "velocity": 8,
                "duration": 0.0682,
                "tempo": 120.0
            },
            {
                "pitch": 56,
                "velocity": 8,
                "duration": 0.0682,
                "tempo": 120.0
            },
            {
                "pitch": 58,
                "velocity": 8,
                "duration": 0.0705,
                "tempo": 120.0
            },
            {
                "pitch": 56,
                "velocity": 8,
                "duration": 0.0682,
                "tempo": 120.0
            },
            {
                "pitch": 58,
                "velocity": 8,
                "duration": 0.0682,
                "tempo": 120.0
            },
            {
                "pitch": 0,
                "velocity": 0,
                "duration": 0.0182,
                "tempo": 0
            },
            {
                "pitch": 50,
                "velocity": 8,
                "duration": 0.2841,
                "tempo": 120.0
            },
            {
                "pitch": 0,
                "velocity": 0,
                "duration": 0.0182,
                "tempo": 0
            },
            {
                "pitch": 50,
                "velocity": 8,
                "duration": 0.2841,
                "tempo": 120.0
            },
            {
                "pitch": 0,
                "velocity": 0,
                "duration": 0.0159,
                "tempo": 0
            },
            {
                "pitch": 52,
                "velocity": 8,
                "duration": 0.1841,
                "tempo": 120.0
            },
            {
                "pitch": 0,
                "velocity": 0,
                "duration": 0.0159,
                "tempo": 0
            },
            {
                "pitch": 54,
                "velocity": 8,
                "duration": 0.4455,
                "tempo": 120.0
            },
            {
                "pitch": 51,
                "velocity": 8,
                "duration": 0.0818,
                "tempo": 120.0
            },
            {
                "pitch": 54,
                "velocity": 8,
                "duration": 0.0477,
                "tempo": 120.0
            },
            {
                "pitch": 51,
                "velocity": 8,
                "duration": 0.0818,
                "tempo": 120.0
            },
            {
                "pitch": 54,
                "velocity": 8,
                "duration": 0.05,
                "tempo": 120.0
            },
            {
                "pitch": 51,
                "velocity": 8,
                "duration": 0.0818,
                "tempo": 120.0
            },
            {
                "pitch": 54,
                "velocity": 8,
                "duration": 0.05,
                "tempo": 120.0
            },
            {
                "pitch": 51,
                "velocity": 8,
                "duration": 0.0818,
                "tempo": 120.0
            },
            {
                "pitch": 54,
                "velocity": 8,
                "duration": 0.05,
                "tempo": 120.0
            },
            {
                "pitch": 51,
                "velocity": 8,
                "duration": 0.0841,
                "tempo": 120.0
            },
            {
                "pitch": 54,
                "velocity": 8,
                "duration": 0.05,
                "tempo": 120.0
            },
            {
                "pitch": 51,
                "velocity": 8,
                "duration": 0.0841,
                "tempo": 120.0
            },
            {
                "pitch": 54,
                "velocity": 8,
                "duration": 0.05,
                "tempo": 120.0
            },
            {
                "pitch": 51,
                "velocity": 8,
                "duration": 0.0841,
                "tempo": 120.0
            },
            {
                "pitch": 54,
                "velocity": 8,
                "duration": 0.05,
                "tempo": 120.0
            },
            {
                "pitch": 51,
                "velocity": 8,
                "duration": 0.0841,
                "tempo": 120.0
            },
            {
                "pitch": 54,
                "velocity": 8,
                "duration": 0.05,
                "tempo": 120.0
            },
            {
                "pitch": 51,
                "velocity": 8,
                "duration": 0.0841,
                "tempo": 120.0
            },
            {
                "pitch": 54,
                "velocity": 8,
                "duration": 0.05,
                "tempo": 120.0
            },
            {
                "pitch": 51,
                "velocity": 8,
                "duration": 0.0841,
                "tempo": 120.0
            },
            {
                "pitch": 54,
                "velocity": 8,
                "duration": 0.05,
                "tempo": 120.0
            },
            {
                "pitch": 51,
                "velocity": 8,
                "duration": 0.0841,
                "tempo": 120.0
            },
            {
                "pitch": 54,
                "velocity": 8,
                "duration": 0.05,
                "tempo": 120.0
            },
            {
                "pitch": 51,
                "velocity": 8,
                "duration": 0.0841,
                "tempo": 120.0
            },
            {
                "pitch": 54,
                "velocity": 8,
                "duration": 0.05,
                "tempo": 120.0
            },
            {
                "pitch": 51,
                "velocity": 8,
                "duration": 0.0864,
                "tempo": 120.0
            },
            {
                "pitch": 54,
                "velocity": 8,
                "duration": 0.05,
                "tempo": 120.0
            },
            {
                "pitch": 51,
                "velocity": 8,
                "duration": 0.0864,
                "tempo": 120.0
            },
            {
                "pitch": 54,
                "velocity": 8,
                "duration": 0.0523,
                "tempo": 120.0
            },
            {
                "pitch": 51,
                "velocity": 8,
                "duration": 0.0841,
                "tempo": 120.0
            },
            {
                "pitch": 54,
                "velocity": 8,
                "duration": 0.05,
                "tempo": 120.0
            },
            {
                "pitch": 51,
                "velocity": 8,
                "duration": 0.0818,
                "tempo": 120.0
            },
            {
                "pitch": 54,
                "velocity": 8,
                "duration": 0.05,
                "tempo": 120.0
            },
            {
                "pitch": 51,
                "velocity": 8,
                "duration": 0.0818,
                "tempo": 120.0
            },
            {
                "pitch": 54,
                "velocity": 8,
                "duration": 0.0477,
                "tempo": 120.0
            },
            {
                "pitch": 51,
                "velocity": 8,
                "duration": 0.0818,
                "tempo": 120.0
            },
            {
                "pitch": 54,
                "velocity": 8,
                "duration": 0.05,
                "tempo": 120.0
            },
            {
                "pitch": 51,
                "velocity": 8,
                "duration": 0.0841,
                "tempo": 120.0
            },
            {
                "pitch": 54,
                "velocity": 8,
                "duration": 0.05,
                "tempo": 120.0
            },
            {
                "pitch": 51,
                "velocity": 8,
                "duration": 0.0841,
                "tempo": 120.0
            },
            {
                "pitch": 54,
                "velocity": 8,
                "duration": 0.05,
                "tempo": 120.0
            },
            {
                "pitch": 51,
                "velocity": 8,
                "duration": 0.0841,
                "tempo": 120.0
            },
            {
                "pitch": 66,
                "velocity": 8,
                "duration": 11.7,
                "tempo": 120.0
            },
            {
                "pitch": 66,
                "velocity": 8,
                "duration": 0.4455,
                "tempo": 120.0
            },
            {
                "pitch": 63,
                "velocity": 8,
                "duration": 0.0841,
                "tempo": 120.0
            },
            {
                "pitch": 66,
                "velocity": 8,
                "duration": 0.05,
                "tempo": 120.0
            },
            {
                "pitch": 63,
                "velocity": 8,
                "duration": 0.0841,
                "tempo": 120.0
            },
            {
                "pitch": 66,
                "velocity": 8,
                "duration": 0.05,
                "tempo": 120.0
            },
            {
                "pitch": 63,
                "velocity": 8,
                "duration": 0.0841,
                "tempo": 120.0
            },
            {
                "pitch": 66,
                "velocity": 8,
                "duration": 0.05,
                "tempo": 120.0
            },
            {
                "pitch": 63,
                "velocity": 8,
                "duration": 0.0818,
                "tempo": 120.0
            },
            {
                "pitch": 66,
                "velocity": 8,
                "duration": 0.0477,
                "tempo": 120.0
            },
            {
                "pitch": 63,
                "velocity": 8,
                "duration": 0.0818,
                "tempo": 120.0
            },
            {
                "pitch": 66,
                "velocity": 8,
                "duration": 0.05,
                "tempo": 120.0
            },
            {
                "pitch": 63,
                "velocity": 8,
                "duration": 0.0818,
                "tempo": 120.0
            },
            {
                "pitch": 66,
                "velocity": 8,
                "duration": 0.05,
                "tempo": 120.0
            },
            {
                "pitch": 63,
                "velocity": 8,
                "duration": 0.0864,
                "tempo": 120.0
            },
            {
                "pitch": 66,
                "velocity": 8,
                "duration": 0.05,
                "tempo": 120.0
            },
            {
                "pitch": 63,
                "velocity": 8,
                "duration": 0.0864,
                "tempo": 120.0
            },
            {
                "pitch": 66,
                "velocity": 8,
                "duration": 0.0523,
                "tempo": 120.0
            },
            {
                "pitch": 63,
                "velocity": 8,
                "duration": 0.0841,
                "tempo": 120.0
            },
            {
                "pitch": 66,
                "velocity": 8,
                "duration": 0.05,
                "tempo": 120.0
            },
            {
                "pitch": 63,
                "velocity": 8,
                "duration": 0.0795,
                "tempo": 120.0
            },
            {
                "pitch": 66,
                "velocity": 8,
                "duration": 0.0477,
                "tempo": 120.0
            },
            {
                "pitch": 63,
                "velocity": 8,
                "duration": 0.0795,
                "tempo": 120.0
            },
            {
                "pitch": 66,
                "velocity": 8,
                "duration": 0.0477,
                "tempo": 120.0
            },
            {
                "pitch": 63,
                "velocity": 8,
                "duration": 0.0795,
                "tempo": 120.0
            },
            {
                "pitch": 66,
                "velocity": 8,
                "duration": 0.05,
                "tempo": 120.0
            },
            {
                "pitch": 63,
                "velocity": 8,
                "duration": 0.0886,
                "tempo": 120.0
            },
            {
                "pitch": 66,
                "velocity": 8,
                "duration": 0.0523,
                "tempo": 120.0
            },
            {
                "pitch": 63,
                "velocity": 8,
                "duration": 0.0886,
                "tempo": 120.0
            },
            {
                "pitch": 66,
                "velocity": 8,
                "duration": 0.0523,
                "tempo": 120.0
            },
            {
                "pitch": 63,
                "velocity": 8,
                "duration": 0.0886,
                "tempo": 120.0
            },
            {
                "pitch": 66,
                "velocity": 8,
                "duration": 0.0523,
                "tempo": 120.0
            },
            {
                "pitch": 63,
                "velocity": 8,
                "duration": 0.0841,
                "tempo": 120.0
            },
            {
                "pitch": 66,
                "velocity": 8,
                "duration": 0.05,
                "tempo": 120.0
            },
            {
                "pitch": 63,
                "velocity": 8,
                "duration": 0.0841,
                "tempo": 120.0
            },
            {
                "pitch": 66,
                "velocity": 8,
                "duration": 0.05,
                "tempo": 120.0
            },
            {
                "pitch": 63,
                "velocity": 8,
                "duration": 0.0841,
                "tempo": 120.0
            },
            {
                "pitch": 66,
                "velocity": 8,
                "duration": 0.05,
                "tempo": 120.0
            },
            {
                "pitch": 63,
                "velocity": 8,
                "duration": 0.0841,
                "tempo": 120.0
            },
            {
                "pitch": 66,
                "velocity": 8,
                "duration": 0.05,
                "tempo": 120.0
            },
            {
                "pitch": 63,
                "velocity": 8,
                "duration": 0.0841,
                "tempo": 120.0
            },
            {
                "pitch": 66,
                "velocity": 8,
                "duration": 0.05,
                "tempo": 120.0
            },
            {
                "pitch": 63,
                "velocity": 8,
                "duration": 0.0841,
                "tempo": 120.0
            },
            {
                "pitch": 0,
                "velocity": 0,
                "duration": 0.0182,
                "tempo": 0
            },
            {
                "pitch": 54,
                "velocity": 8,
                "duration": 0.4341,
                "tempo": 120.0
            },
            {
                "pitch": 51,
                "velocity": 8,
                "duration": 0.0841,
                "tempo": 120.0
            },
            {
                "pitch": 54,
                "velocity": 8,
                "duration": 0.05,
                "tempo": 120.0
            },
            {
                "pitch": 51,
                "velocity": 8,
                "duration": 0.0841,
                "tempo": 120.0
            },
            {
                "pitch": 54,
                "velocity": 8,
                "duration": 0.05,
                "tempo": 120.0
            },
            {
                "pitch": 51,
                "velocity": 8,
                "duration": 0.0841,
                "tempo": 120.0
            },
            {
                "pitch": 54,
                "velocity": 8,
                "duration": 0.05,
                "tempo": 120.0
            },
            {
                "pitch": 51,
                "velocity": 8,
                "duration": 0.0841,
                "tempo": 120.0
            },
            {
                "pitch": 54,
                "velocity": 8,
                "duration": 0.05,
                "tempo": 120.0
            },
            {
                "pitch": 51,
                "velocity": 8,
                "duration": 0.0841,
                "tempo": 120.0
            },
            {
                "pitch": 54,
                "velocity": 8,
                "duration": 0.05,
                "tempo": 120.0
            },
            {
                "pitch": 51,
                "velocity": 8,
                "duration": 0.0818,
                "tempo": 120.0
            },
            {
                "pitch": 0,
                "velocity": 0,
                "duration": 0.0182,
                "tempo": 0
            },
            {
                "pitch": 50,
                "velocity": 8,
                "duration": 0.0841,
                "tempo": 120.0
            },
            {
                "pitch": 0,
                "velocity": 0,
                "duration": 0.1182,
                "tempo": 0
            },
            {
                "pitch": 50,
                "velocity": 8,
                "duration": 0.0818,
                "tempo": 120.0
            },
            {
                "pitch": 0,
                "velocity": 0,
                "duration": 0.1182,
                "tempo": 0
            },
            {
                "pitch": 55,
                "velocity": 8,
                "duration": 0.4886,
                "tempo": 120.0
            },
            {
                "pitch": 67,
                "velocity": 8,
                "duration": 19.0841,
                "tempo": 120.0
            },
            {
                "pitch": 55,
                "velocity": 8,
                "duration": 0.1023,
                "tempo": 120.0
            },
            {
                "pitch": 54,
                "velocity": 8,
                "duration": 1.0977,
                "tempo": 120.0
            },
            {
                "pitch": 54,
                "velocity": 8,
                "duration": 0.0864,
                "tempo": 120.0
            },
            {
                "pitch": 67,
                "velocity": 8,
                "duration": 0.2227,
                "tempo": 120.0
            },
            {
                "pitch": 55,
                "velocity": 8,
                "duration": 0.0864,
                "tempo": 120.0
            },
            {
                "pitch": 0,
                "velocity": 0,
                "duration": 0.2136,
                "tempo": 0
            },
            {
                "pitch": 54,
                "velocity": 8,
                "duration": 0.1795,
                "tempo": 120.0
            },
            {
                "pitch": 0,
                "velocity": 0,
                "duration": 0.0182,
                "tempo": 0
            },
            {
                "pitch": 52,
                "velocity": 8,
                "duration": 0.1818,
                "tempo": 120.0
            },
            {
                "pitch": 0,
                "velocity": 0,
                "duration": 0.0182,
                "tempo": 0
            },
            {
                "pitch": 50,
                "velocity": 8,
                "duration": 0.0818,
                "tempo": 120.0
            },
            {
                "pitch": 0,
                "velocity": 0,
                "duration": 0.0182,
                "tempo": 0
            },
            {
                "pitch": 52,
                "velocity": 8,
                "duration": 0.0818,
                "tempo": 120.0
            },
            {
                "pitch": 0,
                "velocity": 0,
                "duration": 0.0182,
                "tempo": 0
            },
            {
                "pitch": 54,
                "velocity": 8,
                "duration": 0.4432,
                "tempo": 120.0
            },
            {
                "pitch": 51,
                "velocity": 8,
                "duration": 0.0841,
                "tempo": 120.0
            },
            {
                "pitch": 54,
                "velocity": 8,
                "duration": 0.05,
                "tempo": 120.0
            },
            {
                "pitch": 51,
                "velocity": 8,
                "duration": 0.0841,
                "tempo": 120.0
            },
            {
                "pitch": 54,
                "velocity": 8,
                "duration": 0.05,
                "tempo": 120.0
            },
            {
                "pitch": 51,
                "velocity": 8,
                "duration": 0.0841,
                "tempo": 120.0
            },
            {
                "pitch": 54,
                "velocity": 8,
                "duration": 0.0477,
                "tempo": 120.0
            },
            {
                "pitch": 51,
                "velocity": 8,
                "duration": 0.0818,
                "tempo": 120.0
            },
            {
                "pitch": 54,
                "velocity": 8,
                "duration": 0.05,
                "tempo": 120.0
            },
            {
                "pitch": 51,
                "velocity": 8,
                "duration": 0.0818,
                "tempo": 120.0
            },
            {
                "pitch": 54,
                "velocity": 8,
                "duration": 0.0477,
                "tempo": 120.0
            },
            {
                "pitch": 51,
                "velocity": 8,
                "duration": 0.0818,
                "tempo": 120.0
            },
            {
                "pitch": 54,
                "velocity": 8,
                "duration": 0.05,
                "tempo": 120.0
            },
            {
                "pitch": 51,
                "velocity": 8,
                "duration": 0.0841,
                "tempo": 120.0
            },
            {
                "pitch": 54,
                "velocity": 8,
                "duration": 0.0523,
                "tempo": 120.0
            },
            {
                "pitch": 51,
                "velocity": 8,
                "duration": 0.0159,
                "tempo": 120.0
            },
            {
                "pitch": 0,
                "velocity": 0,
                "duration": 0.0182,
                "tempo": 0
            },
            {
                "pitch": 50,
                "velocity": 8,
                "duration": 0.0818,
                "tempo": 120.0
            },
            {
                "pitch": 0,
                "velocity": 0,
                "duration": 0.0182,
                "tempo": 0
            },
            {
                "pitch": 50,
                "velocity": 8,
                "duration": 0.0841,
                "tempo": 120.0
            },
            {
                "pitch": 66,
                "velocity": 8,
                "duration": 3.2159,
                "tempo": 120.0
            },
            {
                "pitch": 59,
                "velocity": 8,
                "duration": 0.7977,
                "tempo": 120.0
            },
            {
                "pitch": 0,
                "velocity": 0,
                "duration": 0.0182,
                "tempo": 0
            },
            {
                "pitch": 58,
                "velocity": 8,
                "duration": 0.2818,
                "tempo": 120.0
            },
            {
                "pitch": 0,
                "velocity": 0,
                "duration": 0.0182,
                "tempo": 0
            },
            {
                "pitch": 58,
                "velocity": 8,
                "duration": 0.2795,
                "tempo": 120.0
            },
            {
                "pitch": 0,
                "velocity": 0,
                "duration": 0.0159,
                "tempo": 0
            },
            {
                "pitch": 51,
                "velocity": 8,
                "duration": 0.1795,
                "tempo": 120.0
            },
            {
                "pitch": 0,
                "velocity": 0,
                "duration": 0.0182,
                "tempo": 0
            },
            {
                "pitch": 51,
                "velocity": 8,
                "duration": 0.5273,
                "tempo": 120.0
            },
            {
                "pitch": 54,
                "velocity": 8,
                "duration": 0.0523,
                "tempo": 120.0
            },
            {
                "pitch": 51,
                "velocity": 8,
                "duration": 0.0818,
                "tempo": 120.0
            },
            {
                "pitch": 54,
                "velocity": 8,
                "duration": 0.0523,
                "tempo": 120.0
            },
            {
                "pitch": 51,
                "velocity": 8,
                "duration": 0.0841,
                "tempo": 120.0
            },
            {
                "pitch": 54,
                "velocity": 8,
                "duration": 0.05,
                "tempo": 120.0
            },
            {
                "pitch": 51,
                "velocity": 8,
                "duration": 0.0841,
                "tempo": 120.0
            },
            {
                "pitch": 54,
                "velocity": 8,
                "duration": 0.05,
                "tempo": 120.0
            },
            {
                "pitch": 51,
                "velocity": 8,
                "duration": 0.0841,
                "tempo": 120.0
            },
            {
                "pitch": 54,
                "velocity": 8,
                "duration": 0.05,
                "tempo": 120.0
            },
            {
                "pitch": 51,
                "velocity": 8,
                "duration": 0.0841,
                "tempo": 120.0
            },
            {
                "pitch": 0,
                "velocity": 0,
                "duration": 0.0182,
                "tempo": 0
            },
            {
                "pitch": 50,
                "velocity": 8,
                "duration": 0.0818,
                "tempo": 120.0
            },
            {
                "pitch": 0,
                "velocity": 0,
                "duration": 0.1182,
                "tempo": 0
            },
            {
                "pitch": 50,
                "velocity": 8,
                "duration": 0.0818,
                "tempo": 120.0
            },
            {
                "pitch": 66,
                "velocity": 8,
                "duration": 3.2273,
                "tempo": 120.0
            },
            {
                "pitch": 55,
                "velocity": 8,
                "duration": 0.4864,
                "tempo": 120.0
            },
            {
                "pitch": 67,
                "velocity": 8,
                "duration": 6.2182,
                "tempo": 120.0
            },
            {
                "pitch": 55,
                "velocity": 8,
                "duration": 0.1,
                "tempo": 120.0
            },
            {
                "pitch": 54,
                "velocity": 8,
                "duration": 1.0864,
                "tempo": 120.0
            },
            {
                "pitch": 54,
                "velocity": 8,
                "duration": 0.0841,
                "tempo": 120.0
            },
            {
                "pitch": 67,
                "velocity": 8,
                "duration": 0.2159,
                "tempo": 120.0
            },
            {
                "pitch": 55,
                "velocity": 8,
                "duration": 0.0841,
                "tempo": 120.0
            },
            {
                "pitch": 0,
                "velocity": 0,
                "duration": 0.2182,
                "tempo": 0
            },
            {
                "pitch": 54,
                "velocity": 8,
                "duration": 0.1841,
                "tempo": 120.0
            },
            {
                "pitch": 0,
                "velocity": 0,
                "duration": 0.0182,
                "tempo": 0
            },
            {
                "pitch": 52,
                "velocity": 8,
                "duration": 0.1841,
                "tempo": 120.0
            },
            {
                "pitch": 0,
                "velocity": 0,
                "duration": 0.0182,
                "tempo": 0
            },
            {
                "pitch": 50,
                "velocity": 8,
                "duration": 0.0818,
                "tempo": 120.0
            },
            {
                "pitch": 0,
                "velocity": 0,
                "duration": 0.0182,
                "tempo": 0
            },
            {
                "pitch": 52,
                "velocity": 8,
                "duration": 0.0841,
                "tempo": 120.0
            },
            {
                "pitch": 0,
                "velocity": 0,
                "duration": 0.0159,
                "tempo": 0
            },
            {
                "pitch": 54,
                "velocity": 8,
                "duration": 0.4455,
                "tempo": 120.0
            },
            {
                "pitch": 51,
                "velocity": 8,
                "duration": 0.0818,
                "tempo": 120.0
            },
            {
                "pitch": 54,
                "velocity": 8,
                "duration": 0.0477,
                "tempo": 120.0
            },
            {
                "pitch": 51,
                "velocity": 8,
                "duration": 0.0818,
                "tempo": 120.0
            },
            {
                "pitch": 54,
                "velocity": 8,
                "duration": 0.05,
                "tempo": 120.0
            },
            {
                "pitch": 51,
                "velocity": 8,
                "duration": 0.0818,
                "tempo": 120.0
            },
            {
                "pitch": 54,
                "velocity": 8,
                "duration": 0.05,
                "tempo": 120.0
            },
            {
                "pitch": 51,
                "velocity": 8,
                "duration": 0.0818,
                "tempo": 120.0
            },
            {
                "pitch": 54,
                "velocity": 8,
                "duration": 0.05,
                "tempo": 120.0
            },
            {
                "pitch": 51,
                "velocity": 8,
                "duration": 0.0841,
                "tempo": 120.0
            },
            {
                "pitch": 54,
                "velocity": 8,
                "duration": 0.05,
                "tempo": 120.0
            },
            {
                "pitch": 51,
                "velocity": 8,
                "duration": 0.0841,
                "tempo": 120.0
            },
            {
                "pitch": 54,
                "velocity": 8,
                "duration": 0.05,
                "tempo": 120.0
            },
            {
                "pitch": 51,
                "velocity": 8,
                "duration": 0.0841,
                "tempo": 120.0
            },
            {
                "pitch": 54,
                "velocity": 8,
                "duration": 0.05,
                "tempo": 120.0
            },
            {
                "pitch": 51,
                "velocity": 8,
                "duration": 0.0159,
                "tempo": 120.0
            },
            {
                "pitch": 0,
                "velocity": 0,
                "duration": 0.0182,
                "tempo": 0
            },
            {
                "pitch": 50,
                "velocity": 8,
                "duration": 0.0841,
                "tempo": 120.0
            },
            {
                "pitch": 0,
                "velocity": 0,
                "duration": 0.0159,
                "tempo": 0
            },
            {
                "pitch": 50,
                "velocity": 8,
                "duration": 0.0841,
                "tempo": 120.0
            },
            {
                "pitch": 66,
                "velocity": 8,
                "duration": 3.2182,
                "tempo": 120.0
            },
            {
                "pitch": 59,
                "velocity": 8,
                "duration": 0.7977,
                "tempo": 120.0
            },
            {
                "pitch": 60,
                "velocity": 8,
                "duration": 6.4432,
                "tempo": 120.0
            },
            {
                "pitch": 58,
                "velocity": 8,
                "duration": 0.2841,
                "tempo": 120.0
            },
            {
                "pitch": 0,
                "velocity": 0,
                "duration": 0.0159,
                "tempo": 0
            },
            {
                "pitch": 58,
                "velocity": 8,
                "duration": 0.2795,
                "tempo": 120.0
            },
            {
                "pitch": 0,
                "velocity": 0,
                "duration": 0.0182,
                "tempo": 0
            },
            {
                "pitch": 51,
                "velocity": 8,
                "duration": 0.1795,
                "tempo": 120.0
            },
            {
                "pitch": 0,
                "velocity": 0,
                "duration": 0.0159,
                "tempo": 0
            },
            {
                "pitch": 51,
                "velocity": 8,
                "duration": 0.4614,
                "tempo": 120.0
            },
            {
                "pitch": 48,
                "velocity": 8,
                "duration": 0.05,
                "tempo": 120.0
            },
            {
                "pitch": 51,
                "velocity": 8,
                "duration": 0.0841,
                "tempo": 120.0
            },
            {
                "pitch": 64,
                "velocity": 8,
                "duration": 25.7636,
                "tempo": 120.0
            },
            {
                "pitch": 57,
                "velocity": 8,
                "duration": 2.3932,
                "tempo": 120.0
            },
            {
                "pitch": 0,
                "velocity": 0,
                "duration": 0.0182,
                "tempo": 0
            },
            {
                "pitch": 55,
                "velocity": 8,
                "duration": 0.0841,
                "tempo": 120.0
            },
            {
                "pitch": 0,
                "velocity": 0,
                "duration": 0.0159,
                "tempo": 0
            },
            {
                "pitch": 55,
                "velocity": 8,
                "duration": 0.0841,
                "tempo": 120.0
            },
            {
                "pitch": 0,
                "velocity": 0,
                "duration": 0.0182,
                "tempo": 0
            },
            {
                "pitch": 57,
                "velocity": 8,
                "duration": 0.5091,
                "tempo": 120.0
            },
            {
                "pitch": 60,
                "velocity": 8,
                "duration": 4.6091,
                "tempo": 120.0
            },
            {
                "pitch": 60,
                "velocity": 8,
                "duration": 0.0818,
                "tempo": 120.0
            },
            {
                "pitch": 58,
                "velocity": 8,
                "duration": 1.2568,
                "tempo": 120.0
            },
            {
                "pitch": 58,
                "velocity": 8,
                "duration": 0.4477,
                "tempo": 120.0
            },
            {
                "pitch": 56,
                "velocity": 8,
                "duration": 0.0682,
                "tempo": 120.0
            },
            {
                "pitch": 58,
                "velocity": 8,
                "duration": 0.0659,
                "tempo": 120.0
            },
            {
                "pitch": 56,
                "velocity": 8,
                "duration": 0.0682,
                "tempo": 120.0
            },
            {
                "pitch": 58,
                "velocity": 8,
                "duration": 0.0659,
                "tempo": 120.0
            },
            {
                "pitch": 56,
                "velocity": 8,
                "duration": 0.0659,
                "tempo": 120.0
            },
            {
                "pitch": 58,
                "velocity": 8,
                "duration": 0.0682,
                "tempo": 120.0
            },
            {
                "pitch": 56,
                "velocity": 8,
                "duration": 0.0659,
                "tempo": 120.0
            },
            {
                "pitch": 58,
                "velocity": 8,
                "duration": 0.0682,
                "tempo": 120.0
            },
            {
                "pitch": 56,
                "velocity": 8,
                "duration": 0.0659,
                "tempo": 120.0
            },
            {
                "pitch": 58,
                "velocity": 8,
                "duration": 0.0682,
                "tempo": 120.0
            },
            {
                "pitch": 56,
                "velocity": 8,
                "duration": 0.0659,
                "tempo": 120.0
            },
            {
                "pitch": 58,
                "velocity": 8,
                "duration": 0.0682,
                "tempo": 120.0
            },
            {
                "pitch": 56,
                "velocity": 8,
                "duration": 0.0659,
                "tempo": 120.0
            },
            {
                "pitch": 58,
                "velocity": 8,
                "duration": 0.0682,
                "tempo": 120.0
            },
            {
                "pitch": 56,
                "velocity": 8,
                "duration": 0.0682,
                "tempo": 120.0
            },
            {
                "pitch": 58,
                "velocity": 8,
                "duration": 0.0682,
                "tempo": 120.0
            },
            {
                "pitch": 56,
                "velocity": 8,
                "duration": 0.0682,
                "tempo": 120.0
            },
            {
                "pitch": 58,
                "velocity": 8,
                "duration": 0.0682,
                "tempo": 120.0
            },
            {
                "pitch": 56,
                "velocity": 8,
                "duration": 0.0682,
                "tempo": 120.0
            },
            {
                "pitch": 58,
                "velocity": 8,
                "duration": 0.0705,
                "tempo": 120.0
            },
            {
                "pitch": 0,
                "velocity": 0,
                "duration": 0.0159,
                "tempo": 0
            },
            {
                "pitch": 50,
                "velocity": 8,
                "duration": 0.2795,
                "tempo": 120.0
            },
            {
                "pitch": 0,
                "velocity": 0,
                "duration": 0.0159,
                "tempo": 0
            },
            {
                "pitch": 50,
                "velocity": 8,
                "duration": 0.2818,
                "tempo": 120.0
            },
            {
                "pitch": 0,
                "velocity": 0,
                "duration": 0.0182,
                "tempo": 0
            },
            {
                "pitch": 52,
                "velocity": 8,
                "duration": 0.1841,
                "tempo": 120.0
            },
            {
                "pitch": 0,
                "velocity": 0,
                "duration": 0.0182,
                "tempo": 0
            },
            {
                "pitch": 54,
                "velocity": 8,
                "duration": 0.4432,
                "tempo": 120.0
            },
            {
                "pitch": 51,
                "velocity": 8,
                "duration": 0.0841,
                "tempo": 120.0
            },
            {
                "pitch": 54,
                "velocity": 8,
                "duration": 0.05,
                "tempo": 120.0
            },
            {
                "pitch": 51,
                "velocity": 8,
                "duration": 0.0841,
                "tempo": 120.0
            },
            {
                "pitch": 54,
                "velocity": 8,
                "duration": 0.0523,
                "tempo": 120.0
            },
            {
                "pitch": 51,
                "velocity": 8,
                "duration": 0.0841,
                "tempo": 120.0
            },
            {
                "pitch": 54,
                "velocity": 8,
                "duration": 0.0477,
                "tempo": 120.0
            },
            {
                "pitch": 51,
                "velocity": 8,
                "duration": 0.0818,
                "tempo": 120.0
            },
            {
                "pitch": 54,
                "velocity": 8,
                "duration": 0.05,
                "tempo": 120.0
            },
            {
                "pitch": 51,
                "velocity": 8,
                "duration": 0.0818,
                "tempo": 120.0
            },
            {
                "pitch": 54,
                "velocity": 8,
                "duration": 0.05,
                "tempo": 120.0
            },
            {
                "pitch": 51,
                "velocity": 8,
                "duration": 0.0818,
                "tempo": 120.0
            },
            {
                "pitch": 54,
                "velocity": 8,
                "duration": 0.0477,
                "tempo": 120.0
            },
            {
                "pitch": 51,
                "velocity": 8,
                "duration": 0.0841,
                "tempo": 120.0
            },
            {
                "pitch": 54,
                "velocity": 8,
                "duration": 0.0523,
                "tempo": 120.0
            },
            {
                "pitch": 51,
                "velocity": 8,
                "duration": 0.0841,
                "tempo": 120.0
            },
            {
                "pitch": 54,
                "velocity": 8,
                "duration": 0.05,
                "tempo": 120.0
            },
            {
                "pitch": 51,
                "velocity": 8,
                "duration": 0.0841,
                "tempo": 120.0
            },
            {
                "pitch": 54,
                "velocity": 8,
                "duration": 0.05,
                "tempo": 120.0
            },
            {
                "pitch": 51,
                "velocity": 8,
                "duration": 0.0841,
                "tempo": 120.0
            },
            {
                "pitch": 54,
                "velocity": 8,
                "duration": 0.05,
                "tempo": 120.0
            },
            {
                "pitch": 51,
                "velocity": 8,
                "duration": 0.0841,
                "tempo": 120.0
            },
            {
                "pitch": 54,
                "velocity": 8,
                "duration": 0.05,
                "tempo": 120.0
            },
            {
                "pitch": 51,
                "velocity": 8,
                "duration": 0.0841,
                "tempo": 120.0
            },
            {
                "pitch": 54,
                "velocity": 8,
                "duration": 0.0523,
                "tempo": 120.0
            },
            {
                "pitch": 51,
                "velocity": 8,
                "duration": 0.0841,
                "tempo": 120.0
            },
            {
                "pitch": 54,
                "velocity": 8,
                "duration": 0.0523,
                "tempo": 120.0
            },
            {
                "pitch": 51,
                "velocity": 8,
                "duration": 0.0864,
                "tempo": 120.0
            },
            {
                "pitch": 54,
                "velocity": 8,
                "duration": 0.05,
                "tempo": 120.0
            },
            {
                "pitch": 51,
                "velocity": 8,
                "duration": 0.0864,
                "tempo": 120.0
            },
            {
                "pitch": 54,
                "velocity": 8,
                "duration": 0.05,
                "tempo": 120.0
            },
            {
                "pitch": 51,
                "velocity": 8,
                "duration": 0.0841,
                "tempo": 120.0
            },
            {
                "pitch": 54,
                "velocity": 8,
                "duration": 0.0523,
                "tempo": 120.0
            },
            {
                "pitch": 51,
                "velocity": 8,
                "duration": 0.0841,
                "tempo": 120.0
            },
            {
                "pitch": 54,
                "velocity": 8,
                "duration": 0.05,
                "tempo": 120.0
            },
            {
                "pitch": 51,
                "velocity": 8,
                "duration": 0.0841,
                "tempo": 120.0
            },
            {
                "pitch": 54,
                "velocity": 8,
                "duration": 0.05,
                "tempo": 120.0
            },
            {
                "pitch": 51,
                "velocity": 8,
                "duration": 0.0818,
                "tempo": 120.0
            },
            {
                "pitch": 54,
                "velocity": 8,
                "duration": 0.05,
                "tempo": 120.0
            },
            {
                "pitch": 51,
                "velocity": 8,
                "duration": 0.0841,
                "tempo": 120.0
            },
            {
                "pitch": 54,
                "velocity": 8,
                "duration": 0.05,
                "tempo": 120.0
            },
            {
                "pitch": 51,
                "velocity": 8,
                "duration": 0.0841,
                "tempo": 120.0
            },
            {
                "pitch": 66,
                "velocity": 8,
                "duration": 11.7136,
                "tempo": 120.0
            },
            {
                "pitch": 66,
                "velocity": 8,
                "duration": 0.4341,
                "tempo": 120.0
            },
            {
                "pitch": 63,
                "velocity": 8,
                "duration": 0.0841,
                "tempo": 120.0
            },
            {
                "pitch": 66,
                "velocity": 8,
                "duration": 0.05,
                "tempo": 120.0
            },
            {
                "pitch": 63,
                "velocity": 8,
                "duration": 0.0841,
                "tempo": 120.0
            },
            {
                "pitch": 66,
                "velocity": 8,
                "duration": 0.05,
                "tempo": 120.0
            },
            {
                "pitch": 63,
                "velocity": 8,
                "duration": 0.0841,
                "tempo": 120.0
            },
            {
                "pitch": 66,
                "velocity": 8,
                "duration": 0.05,
                "tempo": 120.0
            },
            {
                "pitch": 63,
                "velocity": 8,
                "duration": 0.0841,
                "tempo": 120.0
            },
            {
                "pitch": 66,
                "velocity": 8,
                "duration": 0.05,
                "tempo": 120.0
            },
            {
                "pitch": 63,
                "velocity": 8,
                "duration": 0.0841,
                "tempo": 120.0
            },
            {
                "pitch": 66,
                "velocity": 8,
                "duration": 0.05,
                "tempo": 120.0
            },
            {
                "pitch": 63,
                "velocity": 8,
                "duration": 0.0841,
                "tempo": 120.0
            },
            {
                "pitch": 66,
                "velocity": 8,
                "duration": 0.05,
                "tempo": 120.0
            },
            {
                "pitch": 63,
                "velocity": 8,
                "duration": 0.0841,
                "tempo": 120.0
            },
            {
                "pitch": 66,
                "velocity": 8,
                "duration": 0.05,
                "tempo": 120.0
            },
            {
                "pitch": 63,
                "velocity": 8,
                "duration": 0.0841,
                "tempo": 120.0
            },
            {
                "pitch": 66,
                "velocity": 8,
                "duration": 0.05,
                "tempo": 120.0
            },
            {
                "pitch": 63,
                "velocity": 8,
                "duration": 0.0841,
                "tempo": 120.0
            },
            {
                "pitch": 66,
                "velocity": 8,
                "duration": 0.05,
                "tempo": 120.0
            },
            {
                "pitch": 63,
                "velocity": 8,
                "duration": 0.0818,
                "tempo": 120.0
            },
            {
                "pitch": 66,
                "velocity": 8,
                "duration": 0.05,
                "tempo": 120.0
            },
            {
                "pitch": 63,
                "velocity": 8,
                "duration": 0.0818,
                "tempo": 120.0
            },
            {
                "pitch": 66,
                "velocity": 8,
                "duration": 0.0477,
                "tempo": 120.0
            },
            {
                "pitch": 63,
                "velocity": 8,
                "duration": 0.0818,
                "tempo": 120.0
            },
            {
                "pitch": 66,
                "velocity": 8,
                "duration": 0.0523,
                "tempo": 120.0
            },
            {
                "pitch": 63,
                "velocity": 8,
                "duration": 0.0864,
                "tempo": 120.0
            },
            {
                "pitch": 66,
                "velocity": 8,
                "duration": 0.0545,
                "tempo": 120.0
            },
            {
                "pitch": 63,
                "velocity": 8,
                "duration": 0.0864,
                "tempo": 120.0
            },
            {
                "pitch": 66,
                "velocity": 8,
                "duration": 0.0545,
                "tempo": 120.0
            },
            {
                "pitch": 63,
                "velocity": 8,
                "duration": 0.0864,
                "tempo": 120.0
            },
            {
                "pitch": 66,
                "velocity": 8,
                "duration": 0.0523,
                "tempo": 120.0
            },
            {
                "pitch": 63,
                "velocity": 8,
                "duration": 0.0818,
                "tempo": 120.0
            },
            {
                "pitch": 66,
                "velocity": 8,
                "duration": 0.0477,
                "tempo": 120.0
            },
            {
                "pitch": 63,
                "velocity": 8,
                "duration": 0.0818,
                "tempo": 120.0
            },
            {
                "pitch": 66,
                "velocity": 8,
                "duration": 0.05,
                "tempo": 120.0
            },
            {
                "pitch": 63,
                "velocity": 8,
                "duration": 0.0818,
                "tempo": 120.0
            },
            {
                "pitch": 66,
                "velocity": 8,
                "duration": 0.05,
                "tempo": 120.0
            },
            {
                "pitch": 63,
                "velocity": 8,
                "duration": 0.0841,
                "tempo": 120.0
            },
            {
                "pitch": 66,
                "velocity": 8,
                "duration": 0.05,
                "tempo": 120.0
            },
            {
                "pitch": 63,
                "velocity": 8,
                "duration": 0.0841,
                "tempo": 120.0
            },
            {
                "pitch": 66,
                "velocity": 8,
                "duration": 0.05,
                "tempo": 120.0
            },
            {
                "pitch": 63,
                "velocity": 8,
                "duration": 0.0841,
                "tempo": 120.0
            }
        ],
        "Synth Bass 1": [
            {
                "pitch": 67,
                "velocity": 1,
                "duration": 2.8795,
                "tempo": 120.0
            }
        ],
        "Acoustic Grand Piano": [
            {
                "pitch": 0,
                "velocity": 0,
                "duration": 69.3523,
                "tempo": 0
            },
            {
                "pitch": 108,
                "velocity": 15,
                "duration": 0.1,
                "tempo": 120.0
            }
        ]
    }
}