{
    "track_id": "17 Ending 1_5",
    "mood": "happy",
    "instruments": {
        "Lead 1 (square)": [
            {
                "pitch": 0,
                "velocity": 0,
                "duration": 119.8568,
                "tempo": 0
            },
            {
                "pitch": 67,
                "velocity": 5,
                "duration": 0.2909,
                "tempo": 120.0
            },
            {
                "pitch": 0,
                "velocity": 0,
                "duration": 0.4795,
                "tempo": 0
            },
            {
                "pitch": 76,
                "velocity": 5,
                "duration": 0.2955,
                "tempo": 120.0
            },
            {
                "pitch": 78,
                "velocity": 5,
                "duration": 1.1591,
                "tempo": 120.0
            },
            {
                "pitch": 67,
                "velocity": 5,
                "duration": 0.2955,
                "tempo": 120.0
            },
            {
                "pitch": 74,
                "velocity": 5,
                "duration": 1.1727,
                "tempo": 120.0
            },
            {
                "pitch": 76,
                "velocity": 5,
                "duration": 0.3,
                "tempo": 120.0
            },
            {
                "pitch": 78,
                "velocity": 5,
                "duration": 1.1773,
                "tempo": 120.0
            },
            {
                "pitch": 67,
                "velocity": 5,
                "duration": 0.3023,
                "tempo": 120.0
            },
            {
                "pitch": 74,
                "velocity": 5,
                "duration": 1.1864,
                "tempo": 120.0
            },
            {
                "pitch": 76,
                "velocity": 5,
                "duration": 0.2955,
                "tempo": 120.0
            },
            {
                "pitch": 78,
                "velocity": 5,
                "duration": 1.1795,
                "tempo": 120.0
            },
            {
                "pitch": 67,
                "velocity": 5,
                "duration": 0.2977,
                "tempo": 120.0
            },
            {
                "pitch": 74,
                "velocity": 5,
                "duration": 1.1727,
                "tempo": 120.0
            },
            {
                "pitch": 76,
                "velocity": 5,
                "duration": 0.3,
                "tempo": 120.0
            },
            {
                "pitch": 78,
                "velocity": 5,
                "duration": 1.1818,
                "tempo": 120.0
            },
            {
                "pitch": 67,
                "velocity": 5,
                "duration": 0.3045,
                "tempo": 120.0
            },
            {
                "pitch": 74,
                "velocity": 5,
                "duration": 1.2023,
                "tempo": 120.0
            },
            {
                "pitch": 74,
                "velocity": 5,
                "duration": 0.0023,
                "tempo": 120.0
            },
            {
                "pitch": 76,
                "velocity": 5,
                "duration": 0.2932,
                "tempo": 120.0
            },
            {
                "pitch": 78,
                "velocity": 5,
                "duration": 1.1955,
                "tempo": 120.0
            },
            {
                "pitch": 67,
                "velocity": 5,
                "duration": 0.2932,
                "tempo": 120.0
            },
            {
                "pitch": 0,
                "velocity": 0,
                "duration": 0.4886,
                "tempo": 0
            },
            {
                "pitch": 76,
                "velocity": 5,
                "duration": 0.3,
                "tempo": 120.0
            },
            {
                "pitch": 78,
                "velocity": 5,
                "duration": 1.1795,
                "tempo": 120.0
            },
            {
                "pitch": 67,
                "velocity": 5,
                "duration": 0.2977,
                "tempo": 120.0
            },
            {
                "pitch": 74,
                "velocity": 5,
                "duration": 1.1841,
                "tempo": 120.0
            },
            {
                "pitch": 76,
                "velocity": 5,
                "duration": 0.2955,
                "tempo": 120.0
            },
            {
                "pitch": 78,
                "velocity": 5,
                "duration": 1.175,
                "tempo": 120.0
            },
            {
                "pitch": 67,
                "velocity": 5,
                "duration": 0.2955,
                "tempo": 120.0
            },
            {
                "pitch": 74,
                "velocity": 5,
                "duration": 1.1636,
                "tempo": 120.0
            },
            {
                "pitch": 76,
                "velocity": 5,
                "duration": 0.2977,
                "tempo": 120.0
            },
            {
                "pitch": 78,
                "velocity": 5,
                "duration": 1.1636,
                "tempo": 120.0
            },
            {
                "pitch": 67,
                "velocity": 5,
                "duration": 0.3023,
                "tempo": 120.0
            },
            {
                "pitch": 74,
                "velocity": 5,
                "duration": 1.1795,
                "tempo": 120.0
            },
            {
                "pitch": 76,
                "velocity": 5,
                "duration": 0.3023,
                "tempo": 120.0
            },
            {
                "pitch": 78,
                "velocity": 5,
                "duration": 1.1864,
                "tempo": 120.0
            },
            {
                "pitch": 67,
                "velocity": 5,
                "duration": 0.3023,
                "tempo": 120.0
            },
            {
                "pitch": 74,
                "velocity": 5,
                "duration": 1.1864,
                "tempo": 120.0
            },
            {
                "pitch": 76,
                "velocity": 5,
                "duration": 0.3023,
                "tempo": 120.0
            },
            {
                "pitch": 78,
                "velocity": 5,
                "duration": 1.1864,
                "tempo": 120.0
            },
            {
                "pitch": 67,
                "velocity": 5,
                "duration": 0.3023,
                "tempo": 120.0
            },
            {
                "pitch": 0,
                "velocity": 0,
                "duration": 0.0955,
                "tempo": 0
            },
            {
                "pitch": 71,
                "velocity": 5,
                "duration": 0.3,
                "tempo": 120.0
            },
            {
                "pitch": 0,
                "velocity": 0,
                "duration": 0.0977,
                "tempo": 0
            },
            {
                "pitch": 71,
                "velocity": 5,
                "duration": 0.2977,
                "tempo": 120.0
            },
            {
                "pitch": 0,
                "velocity": 0,
                "duration": 0.0955,
                "tempo": 0
            },
            {
                "pitch": 72,
                "velocity": 5,
                "duration": 0.3,
                "tempo": 120.0
            },
            {
                "pitch": 0,
                "velocity": 0,
                "duration": 0.0955,
                "tempo": 0
            },
            {
                "pitch": 76,
                "velocity": 5,
                "duration": 0.3,
                "tempo": 120.0
            },
            {
                "pitch": 78,
                "velocity": 5,
                "duration": 1.9773,
                "tempo": 120.0
            },
            {
                "pitch": 69,
                "velocity": 5,
                "duration": 0.3023,
                "tempo": 120.0
            },
            {
                "pitch": 43,
                "velocity": 5,
                "duration": 1.1841,
                "tempo": 120.0
            },
            {
                "pitch": 72,
                "velocity": 5,
                "duration": 1.0841,
                "tempo": 120.0
            },
            {
                "pitch": 72,
                "velocity": 5,
                "duration": 0.2955,
                "tempo": 120.0
            },
            {
                "pitch": 0,
                "velocity": 0,
                "duration": 0.0932,
                "tempo": 0
            },
            {
                "pitch": 76,
                "velocity": 5,
                "duration": 0.2955,
                "tempo": 120.0
            },
            {
                "pitch": 78,
                "velocity": 5,
                "duration": 1.1727,
                "tempo": 120.0
            },
            {
                "pitch": 69,
                "velocity": 5,
                "duration": 0.3,
                "tempo": 120.0
            },
            {
                "pitch": 43,
                "velocity": 5,
                "duration": 1.1727,
                "tempo": 120.0
            },
            {
                "pitch": 72,
                "velocity": 5,
                "duration": 1.0841,
                "tempo": 120.0
            },
            {
                "pitch": 72,
                "velocity": 5,
                "duration": 0.3,
                "tempo": 120.0
            },
            {
                "pitch": 0,
                "velocity": 0,
                "duration": 0.0955,
                "tempo": 0
            },
            {
                "pitch": 76,
                "velocity": 5,
                "duration": 0.2955,
                "tempo": 120.0
            },
            {
                "pitch": 78,
                "velocity": 5,
                "duration": 1.1773,
                "tempo": 120.0
            },
            {
                "pitch": 69,
                "velocity": 5,
                "duration": 0.2977,
                "tempo": 120.0
            },
            {
                "pitch": 43,
                "velocity": 5,
                "duration": 1.1727,
                "tempo": 120.0
            },
            {
                "pitch": 43,
                "velocity": 5,
                "duration": 0.0023,
                "tempo": 120.0
            },
            {
                "pitch": 72,
                "velocity": 5,
                "duration": 1.0773,
                "tempo": 120.0
            },
            {
                "pitch": 72,
                "velocity": 5,
                "duration": 0.3,
                "tempo": 120.0
            },
            {
                "pitch": 0,
                "velocity": 0,
                "duration": 0.0955,
                "tempo": 0
            },
            {
                "pitch": 76,
                "velocity": 5,
                "duration": 0.3,
                "tempo": 120.0
            },
            {
                "pitch": 78,
                "velocity": 5,
                "duration": 1.1818,
                "tempo": 120.0
            },
            {
                "pitch": 69,
                "velocity": 5,
                "duration": 0.3,
                "tempo": 120.0
            },
            {
                "pitch": 72,
                "velocity": 5,
                "duration": 1.0909,
                "tempo": 120.0
            },
            {
                "pitch": 72,
                "velocity": 5,
                "duration": 0.3,
                "tempo": 120.0
            },
            {
                "pitch": 0,
                "velocity": 0,
                "duration": 0.0955,
                "tempo": 0
            },
            {
                "pitch": 76,
                "velocity": 5,
                "duration": 0.3,
                "tempo": 120.0
            },
            {
                "pitch": 78,
                "velocity": 5,
                "duration": 1.1864,
                "tempo": 120.0
            },
            {
                "pitch": 69,
                "velocity": 5,
                "duration": 0.3,
                "tempo": 120.0
            },
            {
                "pitch": 43,
                "velocity": 5,
                "duration": 1.1864,
                "tempo": 120.0
            },
            {
                "pitch": 72,
                "velocity": 5,
                "duration": 1.0909,
                "tempo": 120.0
            },
            {
                "pitch": 72,
                "velocity": 5,
                "duration": 0.3,
                "tempo": 120.0
            },
            {
                "pitch": 0,
                "velocity": 0,
                "duration": 0.0932,
                "tempo": 0
            },
            {
                "pitch": 77,
                "velocity": 5,
                "duration": 0.3023,
                "tempo": 120.0
            },
            {
                "pitch": 78,
                "velocity": 5,
                "duration": 1.1841,
                "tempo": 120.0
            },
            {
                "pitch": 69,
                "velocity": 5,
                "duration": 0.2955,
                "tempo": 120.0
            },
            {
                "pitch": 43,
                "velocity": 5,
                "duration": 1.1773,
                "tempo": 120.0
            },
            {
                "pitch": 72,
                "velocity": 5,
                "duration": 1.0795,
                "tempo": 120.0
            },
            {
                "pitch": 72,
                "velocity": 5,
                "duration": 0.2955,
                "tempo": 120.0
            },
            {
                "pitch": 0,
                "velocity": 0,
                "duration": 0.0932,
                "tempo": 0
            },
            {
                "pitch": 77,
                "velocity": 5,
                "duration": 0.3,
                "tempo": 120.0
            },
            {
                "pitch": 78,
                "velocity": 5,
                "duration": 1.1727,
                "tempo": 120.0
            },
            {
                "pitch": 69,
                "velocity": 5,
                "duration": 0.3,
                "tempo": 120.0
            },
            {
                "pitch": 43,
                "velocity": 5,
                "duration": 1.1795,
                "tempo": 120.0
            },
            {
                "pitch": 72,
                "velocity": 5,
                "duration": 1.0909,
                "tempo": 120.0
            },
            {
                "pitch": 72,
                "velocity": 5,
                "duration": 0.3,
                "tempo": 120.0
            },
            {
                "pitch": 0,
                "velocity": 0,
                "duration": 0.0955,
                "tempo": 0
            },
            {
                "pitch": 77,
                "velocity": 5,
                "duration": 0.3,
                "tempo": 120.0
            },
            {
                "pitch": 0,
                "velocity": 0,
                "duration": 0.0955,
                "tempo": 0
            },
            {
                "pitch": 81,
                "velocity": 5,
                "duration": 0.2955,
                "tempo": 120.0
            },
            {
                "pitch": 0,
                "velocity": 0,
                "duration": 0.0909,
                "tempo": 0
            },
            {
                "pitch": 69,
                "velocity": 5,
                "duration": 0.2955,
                "tempo": 120.0
            },
            {
                "pitch": 0,
                "velocity": 0,
                "duration": 0.0932,
                "tempo": 0
            },
            {
                "pitch": 81,
                "velocity": 5,
                "duration": 0.3023,
                "tempo": 120.0
            },
            {
                "pitch": 67,
                "velocity": 5,
                "duration": 11.3136,
                "tempo": 120.0
            },
            {
                "pitch": 67,
                "velocity": 5,
                "duration": 0.3,
                "tempo": 120.0
            },
            {
                "pitch": 0,
                "velocity": 0,
                "duration": 0.0955,
                "tempo": 0
            },
            {
                "pitch": 81,
                "velocity": 5,
                "duration": 0.3,
                "tempo": 120.0
            },
            {
                "pitch": 43,
                "velocity": 5,
                "duration": 2.7523,
                "tempo": 120.0
            },
            {
                "pitch": 72,
                "velocity": 5,
                "duration": 2.6568,
                "tempo": 120.0
            },
            {
                "pitch": 72,
                "velocity": 5,
                "duration": 0.3,
                "tempo": 120.0
            },
            {
                "pitch": 0,
                "velocity": 0,
                "duration": 0.0977,
                "tempo": 0
            },
            {
                "pitch": 83,
                "velocity": 5,
                "duration": 0.2977,
                "tempo": 120.0
            },
            {
                "pitch": 74,
                "velocity": 5,
                "duration": 13.6864,
                "tempo": 120.0
            },
            {
                "pitch": 74,
                "velocity": 5,
                "duration": 0.3,
                "tempo": 120.0
            }
        ],
        "Lead 2 (sawtooth)": [
            {
                "pitch": 58,
                "velocity": 12,
                "duration": 0.5932,
                "tempo": 120.0
            },
            {
                "pitch": 51,
                "velocity": 12,
                "duration": 0.1318,
                "tempo": 120.0
            },
            {
                "pitch": 0,
                "velocity": 0,
                "duration": 0.0682,
                "tempo": 0
            },
            {
                "pitch": 57,
                "velocity": 12,
                "duration": 0.7273,
                "tempo": 120.0
            },
            {
                "pitch": 0,
                "velocity": 0,
                "duration": 0.0659,
                "tempo": 0
            },
            {
                "pitch": 53,
                "velocity": 12,
                "duration": 0.7114,
                "tempo": 120.0
            },
            {
                "pitch": 0,
                "velocity": 0,
                "duration": 0.0659,
                "tempo": 0
            },
            {
                "pitch": 57,
                "velocity": 12,
                "duration": 0.3341,
                "tempo": 120.0
            },
            {
                "pitch": 0,
                "velocity": 0,
                "duration": 0.0682,
                "tempo": 0
            },
            {
                "pitch": 51,
                "velocity": 12,
                "duration": 0.1295,
                "tempo": 120.0
            },
            {
                "pitch": 0,
                "velocity": 0,
                "duration": 0.0659,
                "tempo": 0
            },
            {
                "pitch": 53,
                "velocity": 12,
                "duration": 0.1295,
                "tempo": 120.0
            },
            {
                "pitch": 65,
                "velocity": 12,
                "duration": 2.3636,
                "tempo": 120.0
            },
            {
                "pitch": 60,
                "velocity": 12,
                "duration": 0.1273,
                "tempo": 120.0
            },
            {
                "pitch": 51,
                "velocity": 12,
                "duration": 0.7091,
                "tempo": 120.0
            },
            {
                "pitch": 51,
                "velocity": 12,
                "duration": 0.1295,
                "tempo": 120.0
            },
            {
                "pitch": 0,
                "velocity": 0,
                "duration": 0.0682,
                "tempo": 0
            },
            {
                "pitch": 53,
                "velocity": 12,
                "duration": 0.1273,
                "tempo": 120.0
            },
            {
                "pitch": 66,
                "velocity": 12,
                "duration": 1.5705,
                "tempo": 120.0
            },
            {
                "pitch": 58,
                "velocity": 12,
                "duration": 0.725,
                "tempo": 120.0
            },
            {
                "pitch": 0,
                "velocity": 0,
                "duration": 0.0682,
                "tempo": 0
            },
            {
                "pitch": 55,
                "velocity": 12,
                "duration": 0.7114,
                "tempo": 120.0
            },
            {
                "pitch": 51,
                "velocity": 12,
                "duration": 2.2955,
                "tempo": 120.0
            },
            {
                "pitch": 51,
                "velocity": 12,
                "duration": 0.1318,
                "tempo": 120.0
            },
            {
                "pitch": 0,
                "velocity": 0,
                "duration": 0.0659,
                "tempo": 0
            },
            {
                "pitch": 50,
                "velocity": 12,
                "duration": 0.1295,
                "tempo": 120.0
            },
            {
                "pitch": 65,
                "velocity": 12,
                "duration": 3.1409,
                "tempo": 120.0
            },
            {
                "pitch": 58,
                "velocity": 12,
                "duration": 1.6955,
                "tempo": 120.0
            },
            {
                "pitch": 58,
                "velocity": 12,
                "duration": 0.125,
                "tempo": 120.0
            },
            {
                "pitch": 0,
                "velocity": 0,
                "duration": 0.2591,
                "tempo": 0
            },
            {
                "pitch": 50,
                "velocity": 12,
                "duration": 0.1273,
                "tempo": 120.0
            },
            {
                "pitch": 0,
                "velocity": 0,
                "duration": 0.0682,
                "tempo": 0
            },
            {
                "pitch": 50,
                "velocity": 12,
                "duration": 0.1295,
                "tempo": 120.0
            },
            {
                "pitch": 0,
                "velocity": 0,
                "duration": 0.0682,
                "tempo": 0
            },
            {
                "pitch": 60,
                "velocity": 12,
                "duration": 0.325,
                "tempo": 120.0
            },
            {
                "pitch": 48,
                "velocity": 12,
                "duration": 3.925,
                "tempo": 120.0
            },
            {
                "pitch": 53,
                "velocity": 12,
                "duration": 0.1341,
                "tempo": 120.0
            },
            {
                "pitch": 66,
                "velocity": 12,
                "duration": 3.7318,
                "tempo": 120.0
            },
            {
                "pitch": 55,
                "velocity": 12,
                "duration": 0.1341,
                "tempo": 120.0
            },
            {
                "pitch": 0,
                "velocity": 0,
                "duration": 0.0682,
                "tempo": 0
            },
            {
                "pitch": 55,
                "velocity": 12,
                "duration": 0.1295,
                "tempo": 120.0
            },
            {
                "pitch": 0,
                "velocity": 0,
                "duration": 0.2636,
                "tempo": 0
            },
            {
                "pitch": 53,
                "velocity": 12,
                "duration": 0.1295,
                "tempo": 120.0
            },
            {
                "pitch": 66,
                "velocity": 12,
                "duration": 0.7932,
                "tempo": 120.0
            },
            {
                "pitch": 55,
                "velocity": 12,
                "duration": 0.1295,
                "tempo": 120.0
            },
            {
                "pitch": 0,
                "velocity": 0,
                "duration": 0.0682,
                "tempo": 0
            },
            {
                "pitch": 55,
                "velocity": 12,
                "duration": 0.125,
                "tempo": 120.0
            },
            {
                "pitch": 0,
                "velocity": 0,
                "duration": 0.2568,
                "tempo": 0
            },
            {
                "pitch": 53,
                "velocity": 12,
                "duration": 0.1318,
                "tempo": 120.0
            },
            {
                "pitch": 66,
                "velocity": 12,
                "duration": 0.9818,
                "tempo": 120.0
            },
            {
                "pitch": 57,
                "velocity": 12,
                "duration": 0.1295,
                "tempo": 120.0
            },
            {
                "pitch": 0,
                "velocity": 0,
                "duration": 0.2614,
                "tempo": 0
            },
            {
                "pitch": 60,
                "velocity": 12,
                "duration": 0.1341,
                "tempo": 120.0
            },
            {
                "pitch": 0,
                "velocity": 0,
                "duration": 0.2682,
                "tempo": 0
            },
            {
                "pitch": 62,
                "velocity": 12,
                "duration": 1.4977,
                "tempo": 120.0
            },
            {
                "pitch": 0,
                "velocity": 0,
                "duration": 0.0659,
                "tempo": 0
            },
            {
                "pitch": 64,
                "velocity": 12,
                "duration": 3.5477,
                "tempo": 120.0
            }
        ],
        "Synth Bass 1": [
            {
                "pitch": 0,
                "velocity": 0,
                "duration": 162.7318,
                "tempo": 0
            },
            {
                "pitch": 64,
                "velocity": 1,
                "duration": 0.325,
                "tempo": 120.0
            },
            {
                "pitch": 0,
                "velocity": 0,
                "duration": 0.0705,
                "tempo": 0
            },
            {
                "pitch": 69,
                "velocity": 1,
                "duration": 0.325,
                "tempo": 120.0
            },
            {
                "pitch": 0,
                "velocity": 0,
                "duration": 0.0705,
                "tempo": 0
            },
            {
                "pitch": 69,
                "velocity": 1,
                "duration": 0.325,
                "tempo": 120.0
            },
            {
                "pitch": 0,
                "velocity": 0,
                "duration": 0.0705,
                "tempo": 0
            },
            {
                "pitch": 72,
                "velocity": 1,
                "duration": 0.3205,
                "tempo": 120.0
            },
            {
                "pitch": 0,
                "velocity": 0,
                "duration": 0.0682,
                "tempo": 0
            },
            {
                "pitch": 71,
                "velocity": 1,
                "duration": 0.3182,
                "tempo": 120.0
            },
            {
                "pitch": 0,
                "velocity": 0,
                "duration": 0.0705,
                "tempo": 0
            },
            {
                "pitch": 71,
                "velocity": 1,
                "duration": 0.975,
                "tempo": 120.0
            },
            {
                "pitch": 69,
                "velocity": 1,
                "duration": 0.5364,
                "tempo": 120.0
            },
            {
                "pitch": 0,
                "velocity": 0,
                "duration": 0.0705,
                "tempo": 0
            },
            {
                "pitch": 69,
                "velocity": 1,
                "duration": 0.325,
                "tempo": 120.0
            },
            {
                "pitch": 0,
                "velocity": 0,
                "duration": 0.0705,
                "tempo": 0
            },
            {
                "pitch": 67,
                "velocity": 1,
                "duration": 0.7136,
                "tempo": 120.0
            },
            {
                "pitch": 0,
                "velocity": 0,
                "duration": 0.0682,
                "tempo": 0
            },
            {
                "pitch": 67,
                "velocity": 1,
                "duration": 0.3205,
                "tempo": 120.0
            },
            {
                "pitch": 0,
                "velocity": 0,
                "duration": 0.0682,
                "tempo": 0
            },
            {
                "pitch": 69,
                "velocity": 1,
                "duration": 1.1159,
                "tempo": 120.0
            },
            {
                "pitch": 0,
                "velocity": 0,
                "duration": 0.0705,
                "tempo": 0
            },
            {
                "pitch": 62,
                "velocity": 1,
                "duration": 0.325,
                "tempo": 120.0
            },
            {
                "pitch": 0,
                "velocity": 0,
                "duration": 0.0705,
                "tempo": 0
            },
            {
                "pitch": 71,
                "velocity": 1,
                "duration": 0.3205,
                "tempo": 120.0
            },
            {
                "pitch": 56,
                "velocity": 1,
                "duration": 5.8955,
                "tempo": 120.0
            },
            {
                "pitch": 74,
                "velocity": 1,
                "duration": 0.3182,
                "tempo": 120.0
            },
            {
                "pitch": 0,
                "velocity": 0,
                "duration": 0.0705,
                "tempo": 0
            },
            {
                "pitch": 72,
                "velocity": 1,
                "duration": 0.325,
                "tempo": 120.0
            },
            {
                "pitch": 76,
                "velocity": 1,
                "duration": 6.2909,
                "tempo": 120.0
            },
            {
                "pitch": 71,
                "velocity": 1,
                "duration": 0.325,
                "tempo": 120.0
            },
            {
                "pitch": 56,
                "velocity": 1,
                "duration": 1.1795,
                "tempo": 120.0
            },
            {
                "pitch": 72,
                "velocity": 1,
                "duration": 1.1159,
                "tempo": 120.0
            },
            {
                "pitch": 74,
                "velocity": 1,
                "duration": 2.3023,
                "tempo": 120.0
            },
            {
                "pitch": 74,
                "velocity": 1,
                "duration": 0.325,
                "tempo": 120.0
            },
            {
                "pitch": 72,
                "velocity": 1,
                "duration": 0.7136,
                "tempo": 120.0
            },
            {
                "pitch": 72,
                "velocity": 1,
                "duration": 0.3182,
                "tempo": 120.0
            },
            {
                "pitch": 76,
                "velocity": 1,
                "duration": 2.3636,
                "tempo": 120.0
            },
            {
                "pitch": 71,
                "velocity": 1,
                "duration": 0.3205,
                "tempo": 120.0
            },
            {
                "pitch": 0,
                "velocity": 0,
                "duration": 0.0682,
                "tempo": 0
            },
            {
                "pitch": 71,
                "velocity": 1,
                "duration": 0.9773,
                "tempo": 120.0
            },
            {
                "pitch": 69,
                "velocity": 1,
                "duration": 0.5341,
                "tempo": 120.0
            },
            {
                "pitch": 30,
                "velocity": 1,
                "duration": 6.2977,
                "tempo": 120.0
            },
            {
                "pitch": 64,
                "velocity": 1,
                "duration": 0.325,
                "tempo": 120.0
            },
            {
                "pitch": 78,
                "velocity": 1,
                "duration": 12.5955,
                "tempo": 120.0
            },
            {
                "pitch": 69,
                "velocity": 1,
                "duration": 0.3182,
                "tempo": 120.0
            },
            {
                "pitch": 0,
                "velocity": 0,
                "duration": 0.0705,
                "tempo": 0
            },
            {
                "pitch": 72,
                "velocity": 1,
                "duration": 0.7136,
                "tempo": 120.0
            },
            {
                "pitch": 76,
                "velocity": 1,
                "duration": 3.9341,
                "tempo": 120.0
            },
            {
                "pitch": 76,
                "velocity": 1,
                "duration": 0.0023,
                "tempo": 120.0
            },
            {
                "pitch": 71,
                "velocity": 1,
                "duration": 0.325,
                "tempo": 120.0
            },
            {
                "pitch": 0,
                "velocity": 0,
                "duration": 0.0682,
                "tempo": 0
            },
            {
                "pitch": 71,
                "velocity": 1,
                "duration": 1.1182,
                "tempo": 120.0
            },
            {
                "pitch": 0,
                "velocity": 0,
                "duration": 0.0682,
                "tempo": 0
            },
            {
                "pitch": 71,
                "velocity": 1,
                "duration": 0.0023,
                "tempo": 120.0
            },
            {
                "pitch": 67,
                "velocity": 1,
                "duration": 0.325,
                "tempo": 120.0
            },
            {
                "pitch": 77,
                "velocity": 1,
                "duration": 9.8341,
                "tempo": 120.0
            },
            {
                "pitch": 74,
                "velocity": 1,
                "duration": 7.0045,
                "tempo": 120.0
            },
            {
                "pitch": 74,
                "velocity": 1,
                "duration": 0.3205,
                "tempo": 120.0
            }
        ],
        "Acoustic Grand Piano": [
            {
                "pitch": 0,
                "velocity": 0,
                "duration": 180.0,
                "tempo": 0
            },
            {
                "pitch": 108,
                "velocity": 15,
                "duration": 0.1,
                "tempo": 120.0
            }
        ]
    }
}