{
    "track_id": "18 Ending_4",
    "mood": "happy",
    "instruments": {
        "Lead 1 (square)": [
            {
                "pitch": 43,
                "velocity": 7,
                "duration": 2.5682,
                "tempo": 120.0
            },
            {
                "pitch": 43,
                "velocity": 7,
                "duration": 0.1932,
                "tempo": 120.0
            },
            {
                "pitch": 42,
                "velocity": 7,
                "duration": 0.1955,
                "tempo": 120.0
            },
            {
                "pitch": 41,
                "velocity": 7,
                "duration": 2.6364,
                "tempo": 120.0
            },
            {
                "pitch": 41,
                "velocity": 7,
                "duration": 0.1886,
                "tempo": 120.0
            },
            {
                "pitch": 0,
                "velocity": 0,
                "duration": 0.0023,
                "tempo": 0
            },
            {
                "pitch": 40,
                "velocity": 7,
                "duration": 0.1727,
                "tempo": 120.0
            },
            {
                "pitch": 39,
                "velocity": 7,
                "duration": 2.9932,
                "tempo": 120.0
            },
            {
                "pitch": 38,
                "velocity": 7,
                "duration": 1.3205,
                "tempo": 120.0
            },
            {
                "pitch": 33,
                "velocity": 7,
                "duration": 0.1864,
                "tempo": 120.0
            }
        ],
        "Lead 2 (sawtooth)": [
            {
                "pitch": 0,
                "velocity": 0,
                "duration": 33.7045,
                "tempo": 0
            },
            {
                "pitch": 50,
                "velocity": 8,
                "duration": 1.3409,
                "tempo": 120.0
            },
            {
                "pitch": 50,
                "velocity": 8,
                "duration": 1.3682,
                "tempo": 120.0
            },
            {
                "pitch": 0,
                "velocity": 0,
                "duration": 0.0023,
                "tempo": 0
            },
            {
                "pitch": 52,
                "velocity": 8,
                "duration": 1.3682,
                "tempo": 120.0
            },
            {
                "pitch": 52,
                "velocity": 8,
                "duration": 1.3773,
                "tempo": 120.0
            },
            {
                "pitch": 53,
                "velocity": 8,
                "duration": 1.3523,
                "tempo": 120.0
            },
            {
                "pitch": 53,
                "velocity": 8,
                "duration": 1.3591,
                "tempo": 120.0
            },
            {
                "pitch": 55,
                "velocity": 8,
                "duration": 1.3773,
                "tempo": 120.0
            },
            {
                "pitch": 55,
                "velocity": 8,
                "duration": 1.3705,
                "tempo": 120.0
            }
        ],
        "Synth Bass 1": [
            {
                "pitch": 0,
                "velocity": 0,
                "duration": 0.0023,
                "tempo": 0
            },
            {
                "pitch": 62,
                "velocity": 1,
                "duration": 2.5659,
                "tempo": 120.0
            },
            {
                "pitch": 60,
                "velocity": 1,
                "duration": 0.1932,
                "tempo": 120.0
            },
            {
                "pitch": 0,
                "velocity": 0,
                "duration": 0.0023,
                "tempo": 0
            },
            {
                "pitch": 59,
                "velocity": 1,
                "duration": 0.1932,
                "tempo": 120.0
            },
            {
                "pitch": 60,
                "velocity": 1,
                "duration": 0.2,
                "tempo": 120.0
            },
            {
                "pitch": 59,
                "velocity": 1,
                "duration": 0.2,
                "tempo": 120.0
            },
            {
                "pitch": 55,
                "velocity": 1,
                "duration": 0.3636,
                "tempo": 120.0
            },
            {
                "pitch": 62,
                "velocity": 1,
                "duration": 1.8727,
                "tempo": 120.0
            },
            {
                "pitch": 60,
                "velocity": 1,
                "duration": 0.1909,
                "tempo": 120.0
            },
            {
                "pitch": 59,
                "velocity": 1,
                "duration": 0.1727,
                "tempo": 120.0
            },
            {
                "pitch": 58,
                "velocity": 1,
                "duration": 2.6364,
                "tempo": 120.0
            },
            {
                "pitch": 60,
                "velocity": 1,
                "duration": 0.1773,
                "tempo": 120.0
            },
            {
                "pitch": 0,
                "velocity": 0,
                "duration": 0.0023,
                "tempo": 0
            },
            {
                "pitch": 58,
                "velocity": 1,
                "duration": 0.1773,
                "tempo": 120.0
            },
            {
                "pitch": 57,
                "velocity": 1,
                "duration": 1.5068,
                "tempo": 120.0
            },
            {
                "pitch": 54,
                "velocity": 1,
                "duration": 1.3705,
                "tempo": 120.0
            }
        ],
        "Acoustic Grand Piano": [
            {
                "pitch": 0,
                "velocity": 0,
                "duration": 53.9114,
                "tempo": 0
            },
            {
                "pitch": 108,
                "velocity": 15,
                "duration": 0.1,
                "tempo": 120.0
            }
        ]
    }
}