{
    "track_id": "Super Basketball (FM) - 01 - Background Music_14",
    "mood": "happy",
    "instruments": {
        "Lead 1 (square)": [
            {
                "pitch": 76,
                "velocity": 10,
                "duration": 0.0682,
                "tempo": 120.0
            },
            {
                "pitch": 67,
                "velocity": 10,
                "duration": 0.0136,
                "tempo": 120.0
            },
            {
                "pitch": 76,
                "velocity": 10,
                "duration": 0.0136,
                "tempo": 120.0
            },
            {
                "pitch": 68,
                "velocity": 10,
                "duration": 0.0159,
                "tempo": 120.0
            },
            {
                "pitch": 76,
                "velocity": 10,
                "duration": 0.0682,
                "tempo": 120.0
            },
            {
                "pitch": 0,
                "velocity": 0,
                "duration": 0.0136,
                "tempo": 0
            },
            {
                "pitch": 68,
                "velocity": 10,
                "duration": 0.0136,
                "tempo": 120.0
            },
            {
                "pitch": 73,
                "velocity": 10,
                "duration": 0.0705,
                "tempo": 120.0
            },
            {
                "pitch": 67,
                "velocity": 10,
                "duration": 0.0273,
                "tempo": 120.0
            },
            {
                "pitch": 73,
                "velocity": 10,
                "duration": 0.0705,
                "tempo": 120.0
            },
            {
                "pitch": 0,
                "velocity": 0,
                "duration": 0.0136,
                "tempo": 0
            },
            {
                "pitch": 68,
                "velocity": 10,
                "duration": 0.7091,
                "tempo": 120.0
            },
            {
                "pitch": 0,
                "velocity": 0,
                "duration": 0.0159,
                "tempo": 0
            },
            {
                "pitch": 68,
                "velocity": 10,
                "duration": 0.0977,
                "tempo": 120.0
            },
            {
                "pitch": 0,
                "velocity": 0,
                "duration": 0.0341,
                "tempo": 0
            },
            {
                "pitch": 68,
                "velocity": 10,
                "duration": 0.0159,
                "tempo": 120.0
            },
            {
                "pitch": 73,
                "velocity": 10,
                "duration": 0.0818,
                "tempo": 120.0
            },
            {
                "pitch": 0,
                "velocity": 0,
                "duration": 0.0159,
                "tempo": 0
            },
            {
                "pitch": 68,
                "velocity": 10,
                "duration": 0.0182,
                "tempo": 120.0
            },
            {
                "pitch": 76,
                "velocity": 10,
                "duration": 0.0864,
                "tempo": 120.0
            },
            {
                "pitch": 67,
                "velocity": 10,
                "duration": 0.0341,
                "tempo": 120.0
            },
            {
                "pitch": 76,
                "velocity": 10,
                "duration": 0.0864,
                "tempo": 120.0
            },
            {
                "pitch": 0,
                "velocity": 0,
                "duration": 0.0182,
                "tempo": 0
            },
            {
                "pitch": 68,
                "velocity": 10,
                "duration": 0.0182,
                "tempo": 120.0
            },
            {
                "pitch": 76,
                "velocity": 10,
                "duration": 0.0864,
                "tempo": 120.0
            },
            {
                "pitch": 67,
                "velocity": 10,
                "duration": 0.0341,
                "tempo": 120.0
            },
            {
                "pitch": 76,
                "velocity": 10,
                "duration": 0.0864,
                "tempo": 120.0
            },
            {
                "pitch": 0,
                "velocity": 0,
                "duration": 0.0364,
                "tempo": 0
            },
            {
                "pitch": 68,
                "velocity": 10,
                "duration": 0.0159,
                "tempo": 120.0
            },
            {
                "pitch": 75,
                "velocity": 10,
                "duration": 0.0841,
                "tempo": 120.0
            },
            {
                "pitch": 67,
                "velocity": 10,
                "duration": 0.0318,
                "tempo": 120.0
            },
            {
                "pitch": 75,
                "velocity": 10,
                "duration": 0.0841,
                "tempo": 120.0
            },
            {
                "pitch": 0,
                "velocity": 0,
                "duration": 0.0159,
                "tempo": 0
            },
            {
                "pitch": 68,
                "velocity": 10,
                "duration": 0.0182,
                "tempo": 120.0
            },
            {
                "pitch": 71,
                "velocity": 10,
                "duration": 0.0818,
                "tempo": 120.0
            },
            {
                "pitch": 67,
                "velocity": 10,
                "duration": 0.0341,
                "tempo": 120.0
            },
            {
                "pitch": 71,
                "velocity": 10,
                "duration": 0.0841,
                "tempo": 120.0
            },
            {
                "pitch": 0,
                "velocity": 0,
                "duration": 0.0159,
                "tempo": 0
            },
            {
                "pitch": 56,
                "velocity": 10,
                "duration": 0.0159,
                "tempo": 120.0
            },
            {
                "pitch": 66,
                "velocity": 10,
                "duration": 0.0818,
                "tempo": 120.0
            },
            {
                "pitch": 55,
                "velocity": 10,
                "duration": 0.0159,
                "tempo": 120.0
            },
            {
                "pitch": 66,
                "velocity": 10,
                "duration": 0.0182,
                "tempo": 120.0
            },
            {
                "pitch": 56,
                "velocity": 10,
                "duration": 0.0159,
                "tempo": 120.0
            },
            {
                "pitch": 66,
                "velocity": 10,
                "duration": 0.0818,
                "tempo": 120.0
            },
            {
                "pitch": 55,
                "velocity": 10,
                "duration": 0.0318,
                "tempo": 120.0
            },
            {
                "pitch": 66,
                "velocity": 10,
                "duration": 0.0818,
                "tempo": 120.0
            },
            {
                "pitch": 55,
                "velocity": 10,
                "duration": 0.0341,
                "tempo": 120.0
            },
            {
                "pitch": 66,
                "velocity": 10,
                "duration": 0.0818,
                "tempo": 120.0
            },
            {
                "pitch": 0,
                "velocity": 0,
                "duration": 0.9864,
                "tempo": 0
            },
            {
                "pitch": 68,
                "velocity": 10,
                "duration": 0.0182,
                "tempo": 120.0
            },
            {
                "pitch": 73,
                "velocity": 10,
                "duration": 0.0864,
                "tempo": 120.0
            },
            {
                "pitch": 67,
                "velocity": 10,
                "duration": 0.0341,
                "tempo": 120.0
            },
            {
                "pitch": 73,
                "velocity": 10,
                "duration": 0.0841,
                "tempo": 120.0
            },
            {
                "pitch": 0,
                "velocity": 0,
                "duration": 0.0182,
                "tempo": 0
            },
            {
                "pitch": 68,
                "velocity": 10,
                "duration": 0.0159,
                "tempo": 120.0
            },
            {
                "pitch": 71,
                "velocity": 10,
                "duration": 0.0864,
                "tempo": 120.0
            },
            {
                "pitch": 67,
                "velocity": 10,
                "duration": 0.0341,
                "tempo": 120.0
            },
            {
                "pitch": 71,
                "velocity": 10,
                "duration": 0.0841,
                "tempo": 120.0
            },
            {
                "pitch": 0,
                "velocity": 0,
                "duration": 0.0341,
                "tempo": 0
            },
            {
                "pitch": 68,
                "velocity": 10,
                "duration": 0.0182,
                "tempo": 120.0
            },
            {
                "pitch": 73,
                "velocity": 10,
                "duration": 0.0818,
                "tempo": 120.0
            },
            {
                "pitch": 67,
                "velocity": 10,
                "duration": 0.0341,
                "tempo": 120.0
            },
            {
                "pitch": 73,
                "velocity": 10,
                "duration": 0.0841,
                "tempo": 120.0
            },
            {
                "pitch": 67,
                "velocity": 10,
                "duration": 0.0318,
                "tempo": 120.0
            },
            {
                "pitch": 73,
                "velocity": 10,
                "duration": 0.0841,
                "tempo": 120.0
            },
            {
                "pitch": 67,
                "velocity": 10,
                "duration": 0.0341,
                "tempo": 120.0
            },
            {
                "pitch": 73,
                "velocity": 10,
                "duration": 0.0818,
                "tempo": 120.0
            },
            {
                "pitch": 67,
                "velocity": 10,
                "duration": 0.0318,
                "tempo": 120.0
            },
            {
                "pitch": 73,
                "velocity": 10,
                "duration": 0.0818,
                "tempo": 120.0
            },
            {
                "pitch": 67,
                "velocity": 10,
                "duration": 0.0159,
                "tempo": 120.0
            },
            {
                "pitch": 73,
                "velocity": 10,
                "duration": 0.0159,
                "tempo": 120.0
            },
            {
                "pitch": 68,
                "velocity": 10,
                "duration": 0.0159,
                "tempo": 120.0
            },
            {
                "pitch": 73,
                "velocity": 10,
                "duration": 0.0795,
                "tempo": 120.0
            },
            {
                "pitch": 0,
                "velocity": 0,
                "duration": 0.0159,
                "tempo": 0
            },
            {
                "pitch": 68,
                "velocity": 10,
                "duration": 0.0159,
                "tempo": 120.0
            },
            {
                "pitch": 73,
                "velocity": 10,
                "duration": 0.0795,
                "tempo": 120.0
            },
            {
                "pitch": 67,
                "velocity": 10,
                "duration": 0.0341,
                "tempo": 120.0
            },
            {
                "pitch": 73,
                "velocity": 10,
                "duration": 0.0795,
                "tempo": 120.0
            },
            {
                "pitch": 0,
                "velocity": 0,
                "duration": 0.0159,
                "tempo": 0
            },
            {
                "pitch": 68,
                "velocity": 10,
                "duration": 0.0182,
                "tempo": 120.0
            },
            {
                "pitch": 75,
                "velocity": 10,
                "duration": 0.0841,
                "tempo": 120.0
            },
            {
                "pitch": 67,
                "velocity": 10,
                "duration": 0.0318,
                "tempo": 120.0
            },
            {
                "pitch": 75,
                "velocity": 10,
                "duration": 0.0841,
                "tempo": 120.0
            },
            {
                "pitch": 0,
                "velocity": 0,
                "duration": 0.0341,
                "tempo": 0
            },
            {
                "pitch": 68,
                "velocity": 10,
                "duration": 0.0159,
                "tempo": 120.0
            },
            {
                "pitch": 73,
                "velocity": 10,
                "duration": 0.0841,
                "tempo": 120.0
            },
            {
                "pitch": 67,
                "velocity": 10,
                "duration": 0.0341,
                "tempo": 120.0
            },
            {
                "pitch": 73,
                "velocity": 10,
                "duration": 0.0841,
                "tempo": 120.0
            },
            {
                "pitch": 0,
                "velocity": 0,
                "duration": 0.0182,
                "tempo": 0
            },
            {
                "pitch": 68,
                "velocity": 10,
                "duration": 0.0159,
                "tempo": 120.0
            },
            {
                "pitch": 71,
                "velocity": 10,
                "duration": 0.0864,
                "tempo": 120.0
            },
            {
                "pitch": 67,
                "velocity": 10,
                "duration": 0.0341,
                "tempo": 120.0
            },
            {
                "pitch": 71,
                "velocity": 10,
                "duration": 0.0841,
                "tempo": 120.0
            },
            {
                "pitch": 67,
                "velocity": 10,
                "duration": 0.0341,
                "tempo": 120.0
            },
            {
                "pitch": 71,
                "velocity": 10,
                "duration": 0.0864,
                "tempo": 120.0
            },
            {
                "pitch": 67,
                "velocity": 10,
                "duration": 0.0159,
                "tempo": 120.0
            },
            {
                "pitch": 71,
                "velocity": 10,
                "duration": 0.0182,
                "tempo": 120.0
            },
            {
                "pitch": 68,
                "velocity": 10,
                "duration": 0.0159,
                "tempo": 120.0
            },
            {
                "pitch": 71,
                "velocity": 10,
                "duration": 0.0864,
                "tempo": 120.0
            },
            {
                "pitch": 0,
                "velocity": 0,
                "duration": 0.0159,
                "tempo": 0
            },
            {
                "pitch": 68,
                "velocity": 10,
                "duration": 0.0182,
                "tempo": 120.0
            },
            {
                "pitch": 73,
                "velocity": 10,
                "duration": 0.0818,
                "tempo": 120.0
            },
            {
                "pitch": 67,
                "velocity": 10,
                "duration": 0.0341,
                "tempo": 120.0
            },
            {
                "pitch": 73,
                "velocity": 10,
                "duration": 0.0841,
                "tempo": 120.0
            },
            {
                "pitch": 0,
                "velocity": 0,
                "duration": 0.0159,
                "tempo": 0
            },
            {
                "pitch": 68,
                "velocity": 10,
                "duration": 0.0159,
                "tempo": 120.0
            },
            {
                "pitch": 75,
                "velocity": 10,
                "duration": 0.0841,
                "tempo": 120.0
            },
            {
                "pitch": 67,
                "velocity": 10,
                "duration": 0.0341,
                "tempo": 120.0
            },
            {
                "pitch": 75,
                "velocity": 10,
                "duration": 0.0818,
                "tempo": 120.0
            },
            {
                "pitch": 67,
                "velocity": 10,
                "duration": 0.0182,
                "tempo": 120.0
            },
            {
                "pitch": 75,
                "velocity": 10,
                "duration": 0.0159,
                "tempo": 120.0
            },
            {
                "pitch": 68,
                "velocity": 10,
                "duration": 0.0159,
                "tempo": 120.0
            },
            {
                "pitch": 75,
                "velocity": 10,
                "duration": 0.0818,
                "tempo": 120.0
            },
            {
                "pitch": 67,
                "velocity": 10,
                "duration": 0.0341,
                "tempo": 120.0
            },
            {
                "pitch": 75,
                "velocity": 10,
                "duration": 0.0818,
                "tempo": 120.0
            },
            {
                "pitch": 0,
                "velocity": 0,
                "duration": 0.0159,
                "tempo": 0
            },
            {
                "pitch": 68,
                "velocity": 10,
                "duration": 0.0159,
                "tempo": 120.0
            },
            {
                "pitch": 76,
                "velocity": 10,
                "duration": 0.0818,
                "tempo": 120.0
            },
            {
                "pitch": 67,
                "velocity": 10,
                "duration": 0.0341,
                "tempo": 120.0
            },
            {
                "pitch": 76,
                "velocity": 10,
                "duration": 0.0818,
                "tempo": 120.0
            },
            {
                "pitch": 0,
                "velocity": 0,
                "duration": 0.0159,
                "tempo": 0
            },
            {
                "pitch": 68,
                "velocity": 10,
                "duration": 0.0159,
                "tempo": 120.0
            },
            {
                "pitch": 78,
                "velocity": 10,
                "duration": 0.0864,
                "tempo": 120.0
            },
            {
                "pitch": 67,
                "velocity": 10,
                "duration": 0.0182,
                "tempo": 120.0
            },
            {
                "pitch": 78,
                "velocity": 10,
                "duration": 0.0159,
                "tempo": 120.0
            },
            {
                "pitch": 68,
                "velocity": 10,
                "duration": 0.0182,
                "tempo": 120.0
            },
            {
                "pitch": 78,
                "velocity": 10,
                "duration": 0.0841,
                "tempo": 120.0
            },
            {
                "pitch": 67,
                "velocity": 10,
                "duration": 0.0341,
                "tempo": 120.0
            },
            {
                "pitch": 78,
                "velocity": 10,
                "duration": 0.0864,
                "tempo": 120.0
            },
            {
                "pitch": 67,
                "velocity": 10,
                "duration": 0.0341,
                "tempo": 120.0
            },
            {
                "pitch": 78,
                "velocity": 10,
                "duration": 0.0841,
                "tempo": 120.0
            },
            {
                "pitch": 0,
                "velocity": 0,
                "duration": 0.0182,
                "tempo": 0
            },
            {
                "pitch": 68,
                "velocity": 10,
                "duration": 0.0159,
                "tempo": 120.0
            },
            {
                "pitch": 76,
                "velocity": 10,
                "duration": 0.0864,
                "tempo": 120.0
            },
            {
                "pitch": 67,
                "velocity": 10,
                "duration": 0.0341,
                "tempo": 120.0
            },
            {
                "pitch": 76,
                "velocity": 10,
                "duration": 0.0841,
                "tempo": 120.0
            },
            {
                "pitch": 0,
                "velocity": 0,
                "duration": 0.0364,
                "tempo": 0
            },
            {
                "pitch": 68,
                "velocity": 10,
                "duration": 0.0159,
                "tempo": 120.0
            },
            {
                "pitch": 73,
                "velocity": 10,
                "duration": 0.0864,
                "tempo": 120.0
            },
            {
                "pitch": 67,
                "velocity": 10,
                "duration": 0.0341,
                "tempo": 120.0
            },
            {
                "pitch": 73,
                "velocity": 10,
                "duration": 0.0841,
                "tempo": 120.0
            },
            {
                "pitch": 0,
                "velocity": 0,
                "duration": 0.0182,
                "tempo": 0
            },
            {
                "pitch": 68,
                "velocity": 10,
                "duration": 0.7,
                "tempo": 120.0
            },
            {
                "pitch": 0,
                "velocity": 0,
                "duration": 0.0159,
                "tempo": 0
            },
            {
                "pitch": 68,
                "velocity": 10,
                "duration": 0.2136,
                "tempo": 120.0
            },
            {
                "pitch": 0,
                "velocity": 0,
                "duration": 0.0318,
                "tempo": 0
            },
            {
                "pitch": 68,
                "velocity": 10,
                "duration": 0.0182,
                "tempo": 120.0
            },
            {
                "pitch": 76,
                "velocity": 10,
                "duration": 0.0841,
                "tempo": 120.0
            },
            {
                "pitch": 67,
                "velocity": 10,
                "duration": 0.0341,
                "tempo": 120.0
            },
            {
                "pitch": 76,
                "velocity": 10,
                "duration": 0.0864,
                "tempo": 120.0
            },
            {
                "pitch": 0,
                "velocity": 0,
                "duration": 0.0182,
                "tempo": 0
            },
            {
                "pitch": 68,
                "velocity": 10,
                "duration": 0.0159,
                "tempo": 120.0
            },
            {
                "pitch": 73,
                "velocity": 10,
                "duration": 0.0864,
                "tempo": 120.0
            },
            {
                "pitch": 67,
                "velocity": 10,
                "duration": 0.0341,
                "tempo": 120.0
            },
            {
                "pitch": 73,
                "velocity": 10,
                "duration": 0.0841,
                "tempo": 120.0
            },
            {
                "pitch": 0,
                "velocity": 0,
                "duration": 0.0182,
                "tempo": 0
            },
            {
                "pitch": 68,
                "velocity": 10,
                "duration": 0.0159,
                "tempo": 120.0
            },
            {
                "pitch": 75,
                "velocity": 10,
                "duration": 0.0818,
                "tempo": 120.0
            },
            {
                "pitch": 67,
                "velocity": 10,
                "duration": 0.0159,
                "tempo": 120.0
            },
            {
                "pitch": 75,
                "velocity": 10,
                "duration": 0.0159,
                "tempo": 120.0
            },
            {
                "pitch": 68,
                "velocity": 10,
                "duration": 0.0182,
                "tempo": 120.0
            },
            {
                "pitch": 75,
                "velocity": 10,
                "duration": 0.0818,
                "tempo": 120.0
            },
            {
                "pitch": 0,
                "velocity": 0,
                "duration": 0.0159,
                "tempo": 0
            },
            {
                "pitch": 68,
                "velocity": 10,
                "duration": 0.0159,
                "tempo": 120.0
            },
            {
                "pitch": 71,
                "velocity": 10,
                "duration": 0.0818,
                "tempo": 120.0
            },
            {
                "pitch": 67,
                "velocity": 10,
                "duration": 0.0341,
                "tempo": 120.0
            },
            {
                "pitch": 71,
                "velocity": 10,
                "duration": 0.0818,
                "tempo": 120.0
            },
            {
                "pitch": 0,
                "velocity": 0,
                "duration": 0.0159,
                "tempo": 0
            },
            {
                "pitch": 56,
                "velocity": 10,
                "duration": 0.0159,
                "tempo": 120.0
            },
            {
                "pitch": 66,
                "velocity": 10,
                "duration": 0.0841,
                "tempo": 120.0
            },
            {
                "pitch": 55,
                "velocity": 10,
                "duration": 0.0341,
                "tempo": 120.0
            },
            {
                "pitch": 66,
                "velocity": 10,
                "duration": 0.0841,
                "tempo": 120.0
            },
            {
                "pitch": 55,
                "velocity": 10,
                "duration": 0.0159,
                "tempo": 120.0
            },
            {
                "pitch": 66,
                "velocity": 10,
                "duration": 0.0182,
                "tempo": 120.0
            },
            {
                "pitch": 56,
                "velocity": 10,
                "duration": 0.0159,
                "tempo": 120.0
            },
            {
                "pitch": 66,
                "velocity": 10,
                "duration": 0.0841,
                "tempo": 120.0
            },
            {
                "pitch": 55,
                "velocity": 10,
                "duration": 0.0341,
                "tempo": 120.0
            },
            {
                "pitch": 66,
                "velocity": 10,
                "duration": 0.0841,
                "tempo": 120.0
            },
            {
                "pitch": 55,
                "velocity": 10,
                "duration": 0.0318,
                "tempo": 120.0
            },
            {
                "pitch": 66,
                "velocity": 10,
                "duration": 0.0818,
                "tempo": 120.0
            },
            {
                "pitch": 55,
                "velocity": 10,
                "duration": 0.0341,
                "tempo": 120.0
            },
            {
                "pitch": 66,
                "velocity": 10,
                "duration": 0.0818,
                "tempo": 120.0
            },
            {
                "pitch": 55,
                "velocity": 10,
                "duration": 0.0318,
                "tempo": 120.0
            },
            {
                "pitch": 66,
                "velocity": 10,
                "duration": 0.0841,
                "tempo": 120.0
            },
            {
                "pitch": 55,
                "velocity": 10,
                "duration": 0.0159,
                "tempo": 120.0
            },
            {
                "pitch": 66,
                "velocity": 10,
                "duration": 0.0159,
                "tempo": 120.0
            },
            {
                "pitch": 56,
                "velocity": 10,
                "duration": 0.0159,
                "tempo": 120.0
            },
            {
                "pitch": 66,
                "velocity": 10,
                "duration": 0.0159,
                "tempo": 120.0
            },
            {
                "pitch": 0,
                "velocity": 0,
                "duration": 0.5795,
                "tempo": 0
            },
            {
                "pitch": 68,
                "velocity": 10,
                "duration": 0.0159,
                "tempo": 120.0
            },
            {
                "pitch": 73,
                "velocity": 10,
                "duration": 0.0864,
                "tempo": 120.0
            },
            {
                "pitch": 67,
                "velocity": 10,
                "duration": 0.0341,
                "tempo": 120.0
            },
            {
                "pitch": 73,
                "velocity": 10,
                "duration": 0.0841,
                "tempo": 120.0
            },
            {
                "pitch": 0,
                "velocity": 0,
                "duration": 0.0182,
                "tempo": 0
            },
            {
                "pitch": 68,
                "velocity": 10,
                "duration": 0.0159,
                "tempo": 120.0
            },
            {
                "pitch": 71,
                "velocity": 10,
                "duration": 0.0864,
                "tempo": 120.0
            },
            {
                "pitch": 67,
                "velocity": 10,
                "duration": 0.0341,
                "tempo": 120.0
            },
            {
                "pitch": 71,
                "velocity": 10,
                "duration": 0.0841,
                "tempo": 120.0
            },
            {
                "pitch": 0,
                "velocity": 0,
                "duration": 0.0182,
                "tempo": 0
            },
            {
                "pitch": 68,
                "velocity": 10,
                "duration": 0.0159,
                "tempo": 120.0
            },
            {
                "pitch": 73,
                "velocity": 10,
                "duration": 0.0818,
                "tempo": 120.0
            },
            {
                "pitch": 67,
                "velocity": 10,
                "duration": 0.0159,
                "tempo": 120.0
            },
            {
                "pitch": 73,
                "velocity": 10,
                "duration": 0.0182,
                "tempo": 120.0
            },
            {
                "pitch": 68,
                "velocity": 10,
                "duration": 0.0159,
                "tempo": 120.0
            },
            {
                "pitch": 73,
                "velocity": 10,
                "duration": 0.0818,
                "tempo": 120.0
            },
            {
                "pitch": 0,
                "velocity": 0,
                "duration": 0.0159,
                "tempo": 0
            },
            {
                "pitch": 68,
                "velocity": 10,
                "duration": 0.0159,
                "tempo": 120.0
            },
            {
                "pitch": 76,
                "velocity": 10,
                "duration": 0.0818,
                "tempo": 120.0
            },
            {
                "pitch": 67,
                "velocity": 10,
                "duration": 0.0341,
                "tempo": 120.0
            },
            {
                "pitch": 76,
                "velocity": 10,
                "duration": 0.0818,
                "tempo": 120.0
            },
            {
                "pitch": 0,
                "velocity": 0,
                "duration": 0.0159,
                "tempo": 0
            },
            {
                "pitch": 68,
                "velocity": 10,
                "duration": 0.0182,
                "tempo": 120.0
            },
            {
                "pitch": 75,
                "velocity": 10,
                "duration": 0.0841,
                "tempo": 120.0
            },
            {
                "pitch": 0,
                "velocity": 0,
                "duration": 0.3864,
                "tempo": 0
            },
            {
                "pitch": 68,
                "velocity": 10,
                "duration": 0.0159,
                "tempo": 120.0
            },
            {
                "pitch": 71,
                "velocity": 10,
                "duration": 0.0682,
                "tempo": 120.0
            },
            {
                "pitch": 0,
                "velocity": 0,
                "duration": 0.4091,
                "tempo": 0
            },
            {
                "pitch": 68,
                "velocity": 10,
                "duration": 0.0182,
                "tempo": 120.0
            },
            {
                "pitch": 76,
                "velocity": 10,
                "duration": 0.0841,
                "tempo": 120.0
            },
            {
                "pitch": 67,
                "velocity": 10,
                "duration": 0.0341,
                "tempo": 120.0
            },
            {
                "pitch": 76,
                "velocity": 10,
                "duration": 0.0841,
                "tempo": 120.0
            },
            {
                "pitch": 0,
                "velocity": 0,
                "duration": 0.0159,
                "tempo": 0
            },
            {
                "pitch": 68,
                "velocity": 10,
                "duration": 0.0159,
                "tempo": 120.0
            },
            {
                "pitch": 76,
                "velocity": 10,
                "duration": 0.0523,
                "tempo": 120.0
            },
            {
                "pitch": 0,
                "velocity": 0,
                "duration": 0.3432,
                "tempo": 0
            },
            {
                "pitch": 75,
                "velocity": 10,
                "duration": 0.0477,
                "tempo": 120.0
            },
            {
                "pitch": 67,
                "velocity": 10,
                "duration": 0.0318,
                "tempo": 120.0
            },
            {
                "pitch": 75,
                "velocity": 10,
                "duration": 0.0795,
                "tempo": 120.0
            },
            {
                "pitch": 67,
                "velocity": 10,
                "duration": 0.0318,
                "tempo": 120.0
            },
            {
                "pitch": 75,
                "velocity": 10,
                "duration": 0.0818,
                "tempo": 120.0
            },
            {
                "pitch": 0,
                "velocity": 0,
                "duration": 0.0159,
                "tempo": 0
            },
            {
                "pitch": 69,
                "velocity": 10,
                "duration": 0.0159,
                "tempo": 120.0
            },
            {
                "pitch": 76,
                "velocity": 10,
                "duration": 0.0864,
                "tempo": 120.0
            },
            {
                "pitch": 67,
                "velocity": 10,
                "duration": 0.0159,
                "tempo": 120.0
            },
            {
                "pitch": 76,
                "velocity": 10,
                "duration": 0.0182,
                "tempo": 120.0
            },
            {
                "pitch": 68,
                "velocity": 10,
                "duration": 0.0159,
                "tempo": 120.0
            },
            {
                "pitch": 76,
                "velocity": 10,
                "duration": 0.0864,
                "tempo": 120.0
            },
            {
                "pitch": 67,
                "velocity": 10,
                "duration": 0.0341,
                "tempo": 120.0
            },
            {
                "pitch": 76,
                "velocity": 10,
                "duration": 0.0864,
                "tempo": 120.0
            },
            {
                "pitch": 67,
                "velocity": 10,
                "duration": 0.0341,
                "tempo": 120.0
            },
            {
                "pitch": 76,
                "velocity": 10,
                "duration": 0.0841,
                "tempo": 120.0
            },
            {
                "pitch": 67,
                "velocity": 10,
                "duration": 0.0341,
                "tempo": 120.0
            },
            {
                "pitch": 76,
                "velocity": 10,
                "duration": 0.0818,
                "tempo": 120.0
            },
            {
                "pitch": 67,
                "velocity": 10,
                "duration": 0.0318,
                "tempo": 120.0
            },
            {
                "pitch": 76,
                "velocity": 10,
                "duration": 0.0818,
                "tempo": 120.0
            },
            {
                "pitch": 67,
                "velocity": 10,
                "duration": 0.0159,
                "tempo": 120.0
            },
            {
                "pitch": 76,
                "velocity": 10,
                "duration": 0.0182,
                "tempo": 120.0
            },
            {
                "pitch": 68,
                "velocity": 10,
                "duration": 0.0159,
                "tempo": 120.0
            },
            {
                "pitch": 76,
                "velocity": 10,
                "duration": 0.0818,
                "tempo": 120.0
            },
            {
                "pitch": 67,
                "velocity": 10,
                "duration": 0.0318,
                "tempo": 120.0
            },
            {
                "pitch": 76,
                "velocity": 10,
                "duration": 0.0977,
                "tempo": 120.0
            }
        ],
        "Lead 2 (sawtooth)": [
            {
                "pitch": 0,
                "velocity": 0,
                "duration": 0.0136,
                "tempo": 0
            },
            {
                "pitch": 64,
                "velocity": 8,
                "duration": 0.1659,
                "tempo": 120.0
            },
            {
                "pitch": 0,
                "velocity": 0,
                "duration": 0.0136,
                "tempo": 0
            },
            {
                "pitch": 64,
                "velocity": 8,
                "duration": 0.1818,
                "tempo": 120.0
            },
            {
                "pitch": 0,
                "velocity": 0,
                "duration": 0.0136,
                "tempo": 0
            },
            {
                "pitch": 64,
                "velocity": 8,
                "duration": 0.7568,
                "tempo": 120.0
            },
            {
                "pitch": 0,
                "velocity": 0,
                "duration": 0.7182,
                "tempo": 0
            },
            {
                "pitch": 63,
                "velocity": 8,
                "duration": 0.2159,
                "tempo": 120.0
            },
            {
                "pitch": 0,
                "velocity": 0,
                "duration": 0.0159,
                "tempo": 0
            },
            {
                "pitch": 63,
                "velocity": 8,
                "duration": 0.2182,
                "tempo": 120.0
            },
            {
                "pitch": 0,
                "velocity": 0,
                "duration": 0.0159,
                "tempo": 0
            },
            {
                "pitch": 63,
                "velocity": 8,
                "duration": 1.1909,
                "tempo": 120.0
            },
            {
                "pitch": 0,
                "velocity": 0,
                "duration": 0.2545,
                "tempo": 0
            },
            {
                "pitch": 61,
                "velocity": 8,
                "duration": 0.2227,
                "tempo": 120.0
            },
            {
                "pitch": 0,
                "velocity": 0,
                "duration": 0.0182,
                "tempo": 0
            },
            {
                "pitch": 61,
                "velocity": 8,
                "duration": 0.2205,
                "tempo": 120.0
            },
            {
                "pitch": 0,
                "velocity": 0,
                "duration": 0.0341,
                "tempo": 0
            },
            {
                "pitch": 61,
                "velocity": 8,
                "duration": 1.1341,
                "tempo": 120.0
            },
            {
                "pitch": 0,
                "velocity": 0,
                "duration": 0.2864,
                "tempo": 0
            },
            {
                "pitch": 63,
                "velocity": 8,
                "duration": 0.4773,
                "tempo": 120.0
            },
            {
                "pitch": 0,
                "velocity": 0,
                "duration": 0.0159,
                "tempo": 0
            },
            {
                "pitch": 63,
                "velocity": 8,
                "duration": 0.2182,
                "tempo": 120.0
            },
            {
                "pitch": 0,
                "velocity": 0,
                "duration": 0.0159,
                "tempo": 0
            },
            {
                "pitch": 63,
                "velocity": 8,
                "duration": 0.4636,
                "tempo": 120.0
            },
            {
                "pitch": 0,
                "velocity": 0,
                "duration": 0.0159,
                "tempo": 0
            },
            {
                "pitch": 63,
                "velocity": 8,
                "duration": 0.2136,
                "tempo": 120.0
            },
            {
                "pitch": 0,
                "velocity": 0,
                "duration": 0.0159,
                "tempo": 0
            },
            {
                "pitch": 63,
                "velocity": 8,
                "duration": 0.4773,
                "tempo": 120.0
            },
            {
                "pitch": 0,
                "velocity": 0,
                "duration": 0.0182,
                "tempo": 0
            },
            {
                "pitch": 64,
                "velocity": 8,
                "duration": 0.2205,
                "tempo": 120.0
            },
            {
                "pitch": 0,
                "velocity": 0,
                "duration": 0.0364,
                "tempo": 0
            },
            {
                "pitch": 64,
                "velocity": 8,
                "duration": 0.2205,
                "tempo": 120.0
            },
            {
                "pitch": 0,
                "velocity": 0,
                "duration": 0.0182,
                "tempo": 0
            },
            {
                "pitch": 64,
                "velocity": 8,
                "duration": 1.1841,
                "tempo": 120.0
            },
            {
                "pitch": 0,
                "velocity": 0,
                "duration": 0.2568,
                "tempo": 0
            },
            {
                "pitch": 63,
                "velocity": 8,
                "duration": 0.2295,
                "tempo": 120.0
            },
            {
                "pitch": 0,
                "velocity": 0,
                "duration": 0.0159,
                "tempo": 0
            },
            {
                "pitch": 66,
                "velocity": 8,
                "duration": 0.2136,
                "tempo": 120.0
            },
            {
                "pitch": 0,
                "velocity": 0,
                "duration": 0.0159,
                "tempo": 0
            },
            {
                "pitch": 66,
                "velocity": 8,
                "duration": 1.2182,
                "tempo": 120.0
            },
            {
                "pitch": 0,
                "velocity": 0,
                "duration": 0.2409,
                "tempo": 0
            },
            {
                "pitch": 61,
                "velocity": 8,
                "duration": 0.2205,
                "tempo": 120.0
            },
            {
                "pitch": 0,
                "velocity": 0,
                "duration": 0.0182,
                "tempo": 0
            },
            {
                "pitch": 61,
                "velocity": 8,
                "duration": 0.2205,
                "tempo": 120.0
            },
            {
                "pitch": 0,
                "velocity": 0,
                "duration": 0.0182,
                "tempo": 0
            },
            {
                "pitch": 61,
                "velocity": 8,
                "duration": 0.2295,
                "tempo": 120.0
            },
            {
                "pitch": 0,
                "velocity": 0,
                "duration": 0.0159,
                "tempo": 0
            },
            {
                "pitch": 61,
                "velocity": 8,
                "duration": 0.2136,
                "tempo": 120.0
            },
            {
                "pitch": 0,
                "velocity": 0,
                "duration": 0.0159,
                "tempo": 0
            },
            {
                "pitch": 63,
                "velocity": 8,
                "duration": 0.4705,
                "tempo": 120.0
            },
            {
                "pitch": 0,
                "velocity": 0,
                "duration": 0.0182,
                "tempo": 0
            },
            {
                "pitch": 63,
                "velocity": 8,
                "duration": 0.4773,
                "tempo": 120.0
            },
            {
                "pitch": 0,
                "velocity": 0,
                "duration": 0.0159,
                "tempo": 0
            },
            {
                "pitch": 64,
                "velocity": 8,
                "duration": 0.2205,
                "tempo": 120.0
            },
            {
                "pitch": 0,
                "velocity": 0,
                "duration": 0.0159,
                "tempo": 0
            },
            {
                "pitch": 64,
                "velocity": 8,
                "duration": 0.2023,
                "tempo": 120.0
            },
            {
                "pitch": 0,
                "velocity": 0,
                "duration": 0.2727,
                "tempo": 0
            },
            {
                "pitch": 64,
                "velocity": 8,
                "duration": 0.2091,
                "tempo": 120.0
            },
            {
                "pitch": 0,
                "velocity": 0,
                "duration": 0.0159,
                "tempo": 0
            },
            {
                "pitch": 64,
                "velocity": 8,
                "duration": 0.0159,
                "tempo": 120.0
            },
            {
                "pitch": 0,
                "velocity": 0,
                "duration": 0.0182,
                "tempo": 0
            },
            {
                "pitch": 64,
                "velocity": 8,
                "duration": 0.9341,
                "tempo": 120.0
            }
        ],
        "Synth Bass 1": [
            {
                "pitch": 40,
                "velocity": 1,
                "duration": 0.1795,
                "tempo": 120.0
            },
            {
                "pitch": 0,
                "velocity": 0,
                "duration": 0.0136,
                "tempo": 0
            },
            {
                "pitch": 40,
                "velocity": 1,
                "duration": 0.1818,
                "tempo": 120.0
            },
            {
                "pitch": 0,
                "velocity": 0,
                "duration": 0.0136,
                "tempo": 0
            },
            {
                "pitch": 40,
                "velocity": 1,
                "duration": 0.5932,
                "tempo": 120.0
            },
            {
                "pitch": 0,
                "velocity": 0,
                "duration": 0.0159,
                "tempo": 0
            },
            {
                "pitch": 40,
                "velocity": 1,
                "duration": 0.1,
                "tempo": 120.0
            },
            {
                "pitch": 0,
                "velocity": 0,
                "duration": 0.0159,
                "tempo": 0
            },
            {
                "pitch": 40,
                "velocity": 1,
                "duration": 0.2295,
                "tempo": 120.0
            },
            {
                "pitch": 0,
                "velocity": 0,
                "duration": 0.0159,
                "tempo": 0
            },
            {
                "pitch": 40,
                "velocity": 1,
                "duration": 0.225,
                "tempo": 120.0
            },
            {
                "pitch": 0,
                "velocity": 0,
                "duration": 0.0182,
                "tempo": 0
            },
            {
                "pitch": 40,
                "velocity": 1,
                "duration": 0.225,
                "tempo": 120.0
            },
            {
                "pitch": 0,
                "velocity": 0,
                "duration": 0.0364,
                "tempo": 0
            },
            {
                "pitch": 47,
                "velocity": 1,
                "duration": 0.2159,
                "tempo": 120.0
            },
            {
                "pitch": 0,
                "velocity": 0,
                "duration": 0.0159,
                "tempo": 0
            },
            {
                "pitch": 47,
                "velocity": 1,
                "duration": 0.2182,
                "tempo": 120.0
            },
            {
                "pitch": 0,
                "velocity": 0,
                "duration": 0.0159,
                "tempo": 0
            },
            {
                "pitch": 47,
                "velocity": 1,
                "duration": 0.5727,
                "tempo": 120.0
            },
            {
                "pitch": 0,
                "velocity": 0,
                "duration": 0.0182,
                "tempo": 0
            },
            {
                "pitch": 47,
                "velocity": 1,
                "duration": 0.0977,
                "tempo": 120.0
            },
            {
                "pitch": 0,
                "velocity": 0,
                "duration": 0.0318,
                "tempo": 0
            },
            {
                "pitch": 47,
                "velocity": 1,
                "duration": 0.2136,
                "tempo": 120.0
            },
            {
                "pitch": 0,
                "velocity": 0,
                "duration": 0.0182,
                "tempo": 0
            },
            {
                "pitch": 45,
                "velocity": 1,
                "duration": 0.2205,
                "tempo": 120.0
            },
            {
                "pitch": 0,
                "velocity": 0,
                "duration": 0.0182,
                "tempo": 0
            },
            {
                "pitch": 47,
                "velocity": 1,
                "duration": 0.2386,
                "tempo": 120.0
            },
            {
                "pitch": 0,
                "velocity": 0,
                "duration": 0.0159,
                "tempo": 0
            },
            {
                "pitch": 49,
                "velocity": 1,
                "duration": 0.2227,
                "tempo": 120.0
            },
            {
                "pitch": 0,
                "velocity": 0,
                "duration": 0.0182,
                "tempo": 0
            },
            {
                "pitch": 49,
                "velocity": 1,
                "duration": 0.2205,
                "tempo": 120.0
            },
            {
                "pitch": 0,
                "velocity": 0,
                "duration": 0.0341,
                "tempo": 0
            },
            {
                "pitch": 49,
                "velocity": 1,
                "duration": 0.6909,
                "tempo": 120.0
            },
            {
                "pitch": 0,
                "velocity": 0,
                "duration": 0.0159,
                "tempo": 0
            },
            {
                "pitch": 49,
                "velocity": 1,
                "duration": 0.2091,
                "tempo": 120.0
            },
            {
                "pitch": 0,
                "velocity": 0,
                "duration": 0.0159,
                "tempo": 0
            },
            {
                "pitch": 51,
                "velocity": 1,
                "duration": 0.2182,
                "tempo": 120.0
            },
            {
                "pitch": 0,
                "velocity": 0,
                "duration": 0.0341,
                "tempo": 0
            },
            {
                "pitch": 49,
                "velocity": 1,
                "duration": 0.2182,
                "tempo": 120.0
            },
            {
                "pitch": 0,
                "velocity": 0,
                "duration": 0.0182,
                "tempo": 0
            },
            {
                "pitch": 47,
                "velocity": 1,
                "duration": 0.4773,
                "tempo": 120.0
            },
            {
                "pitch": 0,
                "velocity": 0,
                "duration": 0.0159,
                "tempo": 0
            },
            {
                "pitch": 47,
                "velocity": 1,
                "duration": 0.2182,
                "tempo": 120.0
            },
            {
                "pitch": 0,
                "velocity": 0,
                "duration": 0.0159,
                "tempo": 0
            },
            {
                "pitch": 47,
                "velocity": 1,
                "duration": 0.4636,
                "tempo": 120.0
            },
            {
                "pitch": 0,
                "velocity": 0,
                "duration": 0.0159,
                "tempo": 0
            },
            {
                "pitch": 47,
                "velocity": 1,
                "duration": 0.2136,
                "tempo": 120.0
            },
            {
                "pitch": 0,
                "velocity": 0,
                "duration": 0.0159,
                "tempo": 0
            },
            {
                "pitch": 47,
                "velocity": 1,
                "duration": 0.4773,
                "tempo": 120.0
            },
            {
                "pitch": 0,
                "velocity": 0,
                "duration": 0.0182,
                "tempo": 0
            },
            {
                "pitch": 40,
                "velocity": 1,
                "duration": 0.2205,
                "tempo": 120.0
            },
            {
                "pitch": 0,
                "velocity": 0,
                "duration": 0.0364,
                "tempo": 0
            },
            {
                "pitch": 40,
                "velocity": 1,
                "duration": 0.2205,
                "tempo": 120.0
            },
            {
                "pitch": 0,
                "velocity": 0,
                "duration": 0.0182,
                "tempo": 0
            },
            {
                "pitch": 40,
                "velocity": 1,
                "duration": 0.5841,
                "tempo": 120.0
            },
            {
                "pitch": 0,
                "velocity": 0,
                "duration": 0.0159,
                "tempo": 0
            },
            {
                "pitch": 40,
                "velocity": 1,
                "duration": 0.1,
                "tempo": 120.0
            },
            {
                "pitch": 0,
                "velocity": 0,
                "duration": 0.0159,
                "tempo": 0
            },
            {
                "pitch": 40,
                "velocity": 1,
                "duration": 0.2136,
                "tempo": 120.0
            },
            {
                "pitch": 0,
                "velocity": 0,
                "duration": 0.0318,
                "tempo": 0
            },
            {
                "pitch": 40,
                "velocity": 1,
                "duration": 0.2227,
                "tempo": 120.0
            },
            {
                "pitch": 0,
                "velocity": 0,
                "duration": 0.0182,
                "tempo": 0
            },
            {
                "pitch": 40,
                "velocity": 1,
                "duration": 0.2205,
                "tempo": 120.0
            },
            {
                "pitch": 0,
                "velocity": 0,
                "duration": 0.0182,
                "tempo": 0
            },
            {
                "pitch": 47,
                "velocity": 1,
                "duration": 0.2295,
                "tempo": 120.0
            },
            {
                "pitch": 0,
                "velocity": 0,
                "duration": 0.0159,
                "tempo": 0
            },
            {
                "pitch": 47,
                "velocity": 1,
                "duration": 0.2136,
                "tempo": 120.0
            },
            {
                "pitch": 0,
                "velocity": 0,
                "duration": 0.0159,
                "tempo": 0
            },
            {
                "pitch": 47,
                "velocity": 1,
                "duration": 0.5841,
                "tempo": 120.0
            },
            {
                "pitch": 0,
                "velocity": 0,
                "duration": 0.0182,
                "tempo": 0
            },
            {
                "pitch": 47,
                "velocity": 1,
                "duration": 0.0977,
                "tempo": 120.0
            },
            {
                "pitch": 0,
                "velocity": 0,
                "duration": 0.0159,
                "tempo": 0
            },
            {
                "pitch": 47,
                "velocity": 1,
                "duration": 0.2295,
                "tempo": 120.0
            },
            {
                "pitch": 0,
                "velocity": 0,
                "duration": 0.0182,
                "tempo": 0
            },
            {
                "pitch": 45,
                "velocity": 1,
                "duration": 0.2205,
                "tempo": 120.0
            },
            {
                "pitch": 0,
                "velocity": 0,
                "duration": 0.0182,
                "tempo": 0
            },
            {
                "pitch": 47,
                "velocity": 1,
                "duration": 0.2227,
                "tempo": 120.0
            },
            {
                "pitch": 0,
                "velocity": 0,
                "duration": 0.0341,
                "tempo": 0
            },
            {
                "pitch": 49,
                "velocity": 1,
                "duration": 0.2205,
                "tempo": 120.0
            },
            {
                "pitch": 0,
                "velocity": 0,
                "duration": 0.0182,
                "tempo": 0
            },
            {
                "pitch": 49,
                "velocity": 1,
                "duration": 0.2205,
                "tempo": 120.0
            },
            {
                "pitch": 0,
                "velocity": 0,
                "duration": 0.0182,
                "tempo": 0
            },
            {
                "pitch": 49,
                "velocity": 1,
                "duration": 0.2295,
                "tempo": 120.0
            },
            {
                "pitch": 0,
                "velocity": 0,
                "duration": 0.0159,
                "tempo": 0
            },
            {
                "pitch": 49,
                "velocity": 1,
                "duration": 0.2136,
                "tempo": 120.0
            },
            {
                "pitch": 0,
                "velocity": 0,
                "duration": 0.0159,
                "tempo": 0
            },
            {
                "pitch": 47,
                "velocity": 1,
                "duration": 0.4705,
                "tempo": 120.0
            },
            {
                "pitch": 0,
                "velocity": 0,
                "duration": 0.0182,
                "tempo": 0
            },
            {
                "pitch": 47,
                "velocity": 1,
                "duration": 0.4773,
                "tempo": 120.0
            },
            {
                "pitch": 0,
                "velocity": 0,
                "duration": 0.0159,
                "tempo": 0
            },
            {
                "pitch": 40,
                "velocity": 1,
                "duration": 0.2205,
                "tempo": 120.0
            },
            {
                "pitch": 0,
                "velocity": 0,
                "duration": 0.0159,
                "tempo": 0
            },
            {
                "pitch": 40,
                "velocity": 1,
                "duration": 0.3477,
                "tempo": 120.0
            },
            {
                "pitch": 0,
                "velocity": 0,
                "duration": 0.0159,
                "tempo": 0
            },
            {
                "pitch": 40,
                "velocity": 1,
                "duration": 0.0955,
                "tempo": 120.0
            },
            {
                "pitch": 0,
                "velocity": 0,
                "duration": 0.0159,
                "tempo": 0
            },
            {
                "pitch": 40,
                "velocity": 1,
                "duration": 0.2091,
                "tempo": 120.0
            },
            {
                "pitch": 0,
                "velocity": 0,
                "duration": 0.0159,
                "tempo": 0
            },
            {
                "pitch": 40,
                "velocity": 1,
                "duration": 0.9682,
                "tempo": 120.0
            }
        ],
        "Acoustic Grand Piano": [
            {
                "pitch": 0,
                "velocity": 0,
                "duration": 15.3318,
                "tempo": 0
            },
            {
                "pitch": 108,
                "velocity": 15,
                "duration": 0.1,
                "tempo": 120.0
            }
        ]
    }
}