{
    "track_id": "02 Opening 1",
    "mood": "relaxed",
    "instruments": {
        "Oboe": [
            {
                "start_time": 0.47045454545454546,
                "end_time": 0.5704545454545454,
                "pitch": 73,
                "velocity": 51,
                "duration": 0.09999999999999998,
                "tempo": 120.0
            },
            {
                "start_time": 1.1386363636363637,
                "end_time": 1.1863636363636363,
                "pitch": 61,
                "velocity": 51,
                "duration": 0.04772727272727262,
                "tempo": 120.0
            },
            {
                "start_time": 1.1863636363636363,
                "end_time": 1.2363636363636363,
                "pitch": 62,
                "velocity": 51,
                "duration": 0.050000000000000044,
                "tempo": 120.0
            },
            {
                "start_time": 1.4704545454545455,
                "end_time": 1.5704545454545453,
                "pitch": 60,
                "velocity": 51,
                "duration": 0.09999999999999987,
                "tempo": 120.0
            },
            {
                "start_time": 1.8045454545454545,
                "end_time": 1.9068181818181817,
                "pitch": 61,
                "velocity": 51,
                "duration": 0.10227272727272729,
                "tempo": 120.0
            },
            {
                "start_time": 3.1477272727272725,
                "end_time": 3.25,
                "pitch": 73,
                "velocity": 51,
                "duration": 0.10227272727272751,
                "tempo": 120.0
            },
            {
                "start_time": 3.815909090909091,
                "end_time": 3.8659090909090907,
                "pitch": 61,
                "velocity": 51,
                "duration": 0.04999999999999982,
                "tempo": 120.0
            },
            {
                "start_time": 3.8659090909090907,
                "end_time": 3.9159090909090906,
                "pitch": 62,
                "velocity": 51,
                "duration": 0.04999999999999982,
                "tempo": 120.0
            },
            {
                "start_time": 4.1477272727272725,
                "end_time": 4.247727272727272,
                "pitch": 60,
                "velocity": 51,
                "duration": 0.09999999999999964,
                "tempo": 120.0
            },
            {
                "start_time": 4.4840909090909085,
                "end_time": 4.584090909090909,
                "pitch": 61,
                "velocity": 51,
                "duration": 0.10000000000000053,
                "tempo": 120.0
            },
            {
                "start_time": 5.827272727272727,
                "end_time": 5.927272727272727,
                "pitch": 73,
                "velocity": 51,
                "duration": 0.09999999999999964,
                "tempo": 120.0
            },
            {
                "start_time": 6.5,
                "end_time": 6.55,
                "pitch": 61,
                "velocity": 51,
                "duration": 0.04999999999999982,
                "tempo": 120.0
            },
            {
                "start_time": 6.55,
                "end_time": 6.6,
                "pitch": 62,
                "velocity": 51,
                "duration": 0.04999999999999982,
                "tempo": 120.0
            },
            {
                "start_time": 6.836363636363636,
                "end_time": 6.936363636363636,
                "pitch": 60,
                "velocity": 51,
                "duration": 0.09999999999999964,
                "tempo": 120.0
            },
            {
                "start_time": 7.170454545454545,
                "end_time": 7.2704545454545455,
                "pitch": 61,
                "velocity": 51,
                "duration": 0.10000000000000053,
                "tempo": 120.0
            },
            {
                "start_time": 8.513636363636364,
                "end_time": 8.613636363636363,
                "pitch": 73,
                "velocity": 51,
                "duration": 0.09999999999999964,
                "tempo": 120.0
            },
            {
                "start_time": 9.181818181818182,
                "end_time": 9.23181818181818,
                "pitch": 61,
                "velocity": 51,
                "duration": 0.049999999999998934,
                "tempo": 120.0
            },
            {
                "start_time": 9.23181818181818,
                "end_time": 9.281818181818181,
                "pitch": 62,
                "velocity": 51,
                "duration": 0.05000000000000071,
                "tempo": 120.0
            },
            {
                "start_time": 9.513636363636364,
                "end_time": 9.613636363636363,
                "pitch": 60,
                "velocity": 51,
                "duration": 0.09999999999999964,
                "tempo": 120.0
            },
            {
                "start_time": 9.85,
                "end_time": 9.95,
                "pitch": 61,
                "velocity": 51,
                "duration": 0.09999999999999964,
                "tempo": 120.0
            },
            {
                "start_time": 11.186363636363636,
                "end_time": 11.286363636363635,
                "pitch": 73,
                "velocity": 51,
                "duration": 0.09999999999999964,
                "tempo": 120.0
            },
            {
                "start_time": 11.85681818181818,
                "end_time": 11.906818181818181,
                "pitch": 61,
                "velocity": 51,
                "duration": 0.05000000000000071,
                "tempo": 120.0
            },
            {
                "start_time": 11.906818181818181,
                "end_time": 11.956818181818182,
                "pitch": 62,
                "velocity": 51,
                "duration": 0.05000000000000071,
                "tempo": 120.0
            },
            {
                "start_time": 12.193181818181818,
                "end_time": 12.293181818181818,
                "pitch": 60,
                "velocity": 51,
                "duration": 0.09999999999999964,
                "tempo": 120.0
            },
            {
                "start_time": 12.529545454545454,
                "end_time": 12.629545454545454,
                "pitch": 61,
                "velocity": 51,
                "duration": 0.09999999999999964,
                "tempo": 120.0
            },
            {
                "start_time": 13.872727272727271,
                "end_time": 13.972727272727273,
                "pitch": 73,
                "velocity": 51,
                "duration": 0.10000000000000142,
                "tempo": 120.0
            },
            {
                "start_time": 14.540909090909091,
                "end_time": 14.588636363636363,
                "pitch": 61,
                "velocity": 51,
                "duration": 0.04772727272727195,
                "tempo": 120.0
            },
            {
                "start_time": 14.588636363636363,
                "end_time": 14.638636363636364,
                "pitch": 62,
                "velocity": 51,
                "duration": 0.05000000000000071,
                "tempo": 120.0
            },
            {
                "start_time": 14.872727272727271,
                "end_time": 14.972727272727273,
                "pitch": 60,
                "velocity": 51,
                "duration": 0.10000000000000142,
                "tempo": 120.0
            },
            {
                "start_time": 15.20681818181818,
                "end_time": 15.306818181818182,
                "pitch": 61,
                "velocity": 51,
                "duration": 0.10000000000000142,
                "tempo": 120.0
            },
            {
                "start_time": 16.543181818181818,
                "end_time": 16.643181818181816,
                "pitch": 73,
                "velocity": 51,
                "duration": 0.09999999999999787,
                "tempo": 120.0
            },
            {
                "start_time": 17.21590909090909,
                "end_time": 17.263636363636362,
                "pitch": 61,
                "velocity": 51,
                "duration": 0.04772727272727195,
                "tempo": 120.0
            },
            {
                "start_time": 17.26590909090909,
                "end_time": 17.31590909090909,
                "pitch": 62,
                "velocity": 51,
                "duration": 0.05000000000000071,
                "tempo": 120.0
            },
            {
                "start_time": 17.55,
                "end_time": 17.65,
                "pitch": 60,
                "velocity": 51,
                "duration": 0.09999999999999787,
                "tempo": 120.0
            },
            {
                "start_time": 17.886363636363637,
                "end_time": 17.986363636363635,
                "pitch": 61,
                "velocity": 51,
                "duration": 0.09999999999999787,
                "tempo": 120.0
            },
            {
                "start_time": 19.227272727272727,
                "end_time": 19.325,
                "pitch": 73,
                "velocity": 51,
                "duration": 0.09772727272727266,
                "tempo": 120.0
            },
            {
                "start_time": 19.893181818181816,
                "end_time": 19.943181818181817,
                "pitch": 61,
                "velocity": 51,
                "duration": 0.05000000000000071,
                "tempo": 120.0
            },
            {
                "start_time": 19.943181818181817,
                "end_time": 19.993181818181817,
                "pitch": 62,
                "velocity": 51,
                "duration": 0.05000000000000071,
                "tempo": 120.0
            },
            {
                "start_time": 20.229545454545452,
                "end_time": 20.329545454545453,
                "pitch": 60,
                "velocity": 51,
                "duration": 0.10000000000000142,
                "tempo": 120.0
            },
            {
                "start_time": 20.56590909090909,
                "end_time": 20.66590909090909,
                "pitch": 61,
                "velocity": 51,
                "duration": 0.09999999999999787,
                "tempo": 120.0
            },
            {
                "start_time": 21.9,
                "end_time": 22.002272727272725,
                "pitch": 73,
                "velocity": 51,
                "duration": 0.10227272727272663,
                "tempo": 120.0
            },
            {
                "start_time": 22.57272727272727,
                "end_time": 22.62272727272727,
                "pitch": 61,
                "velocity": 51,
                "duration": 0.05000000000000071,
                "tempo": 120.0
            },
            {
                "start_time": 22.62272727272727,
                "end_time": 22.672727272727272,
                "pitch": 62,
                "velocity": 51,
                "duration": 0.05000000000000071,
                "tempo": 120.0
            },
            {
                "start_time": 22.909090909090907,
                "end_time": 23.009090909090908,
                "pitch": 60,
                "velocity": 51,
                "duration": 0.10000000000000142,
                "tempo": 120.0
            },
            {
                "start_time": 23.579545454545453,
                "end_time": 23.679545454545455,
                "pitch": 73,
                "velocity": 51,
                "duration": 0.10000000000000142,
                "tempo": 120.0
            },
            {
                "start_time": 24.245454545454546,
                "end_time": 24.345454545454544,
                "pitch": 85,
                "velocity": 51,
                "duration": 0.09999999999999787,
                "tempo": 120.0
            },
            {
                "start_time": 24.922727272727272,
                "end_time": 25.02272727272727,
                "pitch": 85,
                "velocity": 51,
                "duration": 0.09999999999999787,
                "tempo": 120.0
            },
            {
                "start_time": 25.586363636363636,
                "end_time": 25.686363636363634,
                "pitch": 85,
                "velocity": 51,
                "duration": 0.09999999999999787,
                "tempo": 120.0
            },
            {
                "start_time": 26.252272727272725,
                "end_time": 26.352272727272727,
                "pitch": 85,
                "velocity": 51,
                "duration": 0.10000000000000142,
                "tempo": 120.0
            },
            {
                "start_time": 27.263636363636362,
                "end_time": 27.361363636363635,
                "pitch": 73,
                "velocity": 51,
                "duration": 0.09772727272727266,
                "tempo": 120.0
            },
            {
                "start_time": 27.929545454545455,
                "end_time": 27.979545454545452,
                "pitch": 61,
                "velocity": 51,
                "duration": 0.04999999999999716,
                "tempo": 120.0
            },
            {
                "start_time": 27.98181818181818,
                "end_time": 28.03181818181818,
                "pitch": 62,
                "velocity": 51,
                "duration": 0.05000000000000071,
                "tempo": 120.0
            },
            {
                "start_time": 28.26590909090909,
                "end_time": 28.36590909090909,
                "pitch": 60,
                "velocity": 51,
                "duration": 0.09999999999999787,
                "tempo": 120.0
            },
            {
                "start_time": 28.597727272727273,
                "end_time": 28.69772727272727,
                "pitch": 61,
                "velocity": 51,
                "duration": 0.09999999999999787,
                "tempo": 120.0
            },
            {
                "start_time": 29.95,
                "end_time": 30.052272727272726,
                "pitch": 73,
                "velocity": 51,
                "duration": 0.10227272727272663,
                "tempo": 120.0
            },
            {
                "start_time": 30.620454545454542,
                "end_time": 30.670454545454543,
                "pitch": 61,
                "velocity": 51,
                "duration": 0.05000000000000071,
                "tempo": 120.0
            },
            {
                "start_time": 30.670454545454543,
                "end_time": 30.718181818181815,
                "pitch": 62,
                "velocity": 51,
                "duration": 0.04772727272727195,
                "tempo": 120.0
            },
            {
                "start_time": 30.945454545454545,
                "end_time": 31.045454545454543,
                "pitch": 60,
                "velocity": 51,
                "duration": 0.09999999999999787,
                "tempo": 120.0
            },
            {
                "start_time": 31.28181818181818,
                "end_time": 31.38181818181818,
                "pitch": 61,
                "velocity": 51,
                "duration": 0.09999999999999787,
                "tempo": 120.0
            },
            {
                "start_time": 32.62954545454545,
                "end_time": 32.73181818181818,
                "pitch": 73,
                "velocity": 51,
                "duration": 0.10227272727272663,
                "tempo": 120.0
            },
            {
                "start_time": 33.3,
                "end_time": 33.35,
                "pitch": 61,
                "velocity": 51,
                "duration": 0.05000000000000426,
                "tempo": 120.0
            },
            {
                "start_time": 33.35,
                "end_time": 33.39772727272727,
                "pitch": 62,
                "velocity": 51,
                "duration": 0.04772727272727195,
                "tempo": 120.0
            },
            {
                "start_time": 33.625,
                "end_time": 33.725,
                "pitch": 60,
                "velocity": 51,
                "duration": 0.10000000000000142,
                "tempo": 120.0
            },
            {
                "start_time": 33.961363636363636,
                "end_time": 34.06136363636364,
                "pitch": 61,
                "velocity": 51,
                "duration": 0.10000000000000142,
                "tempo": 120.0
            },
            {
                "start_time": 35.309090909090905,
                "end_time": 35.40909090909091,
                "pitch": 73,
                "velocity": 51,
                "duration": 0.10000000000000142,
                "tempo": 120.0
            },
            {
                "start_time": 35.97272727272727,
                "end_time": 36.02045454545454,
                "pitch": 61,
                "velocity": 51,
                "duration": 0.04772727272727195,
                "tempo": 120.0
            },
            {
                "start_time": 36.02045454545454,
                "end_time": 36.070454545454545,
                "pitch": 62,
                "velocity": 51,
                "duration": 0.05000000000000426,
                "tempo": 120.0
            },
            {
                "start_time": 36.29772727272727,
                "end_time": 36.39772727272727,
                "pitch": 60,
                "velocity": 51,
                "duration": 0.10000000000000142,
                "tempo": 120.0
            },
            {
                "start_time": 36.63409090909091,
                "end_time": 36.73409090909091,
                "pitch": 61,
                "velocity": 51,
                "duration": 0.10000000000000142,
                "tempo": 120.0
            },
            {
                "start_time": 37.97954545454545,
                "end_time": 38.08181818181818,
                "pitch": 73,
                "velocity": 51,
                "duration": 0.10227272727272663,
                "tempo": 120.0
            },
            {
                "start_time": 38.64545454545454,
                "end_time": 38.69318181818181,
                "pitch": 61,
                "velocity": 51,
                "duration": 0.04772727272727195,
                "tempo": 120.0
            },
            {
                "start_time": 38.69318181818181,
                "end_time": 38.74090909090909,
                "pitch": 62,
                "velocity": 51,
                "duration": 0.04772727272727906,
                "tempo": 120.0
            },
            {
                "start_time": 38.970454545454544,
                "end_time": 39.070454545454545,
                "pitch": 60,
                "velocity": 51,
                "duration": 0.10000000000000142,
                "tempo": 120.0
            },
            {
                "start_time": 39.304545454545455,
                "end_time": 39.404545454545456,
                "pitch": 61,
                "velocity": 51,
                "duration": 0.10000000000000142,
                "tempo": 120.0
            },
            {
                "start_time": 40.652272727272724,
                "end_time": 40.752272727272725,
                "pitch": 73,
                "velocity": 51,
                "duration": 0.10000000000000142,
                "tempo": 120.0
            },
            {
                "start_time": 41.31590909090909,
                "end_time": 41.36363636363636,
                "pitch": 61,
                "velocity": 51,
                "duration": 0.04772727272727195,
                "tempo": 120.0
            },
            {
                "start_time": 41.36363636363636,
                "end_time": 41.413636363636364,
                "pitch": 62,
                "velocity": 51,
                "duration": 0.05000000000000426,
                "tempo": 120.0
            },
            {
                "start_time": 41.64090909090909,
                "end_time": 41.74090909090909,
                "pitch": 60,
                "velocity": 51,
                "duration": 0.10000000000000142,
                "tempo": 120.0
            },
            {
                "start_time": 41.97727272727273,
                "end_time": 42.07727272727273,
                "pitch": 61,
                "velocity": 51,
                "duration": 0.10000000000000142,
                "tempo": 120.0
            },
            {
                "start_time": 43.320454545454545,
                "end_time": 43.42045454545455,
                "pitch": 73,
                "velocity": 51,
                "duration": 0.10000000000000142,
                "tempo": 120.0
            },
            {
                "start_time": 43.98863636363636,
                "end_time": 44.03636363636363,
                "pitch": 61,
                "velocity": 51,
                "duration": 0.04772727272727195,
                "tempo": 120.0
            },
            {
                "start_time": 44.038636363636364,
                "end_time": 44.086363636363636,
                "pitch": 62,
                "velocity": 51,
                "duration": 0.04772727272727195,
                "tempo": 120.0
            },
            {
                "start_time": 44.320454545454545,
                "end_time": 44.42045454545455,
                "pitch": 60,
                "velocity": 51,
                "duration": 0.10000000000000142,
                "tempo": 120.0
            },
            {
                "start_time": 44.65681818181818,
                "end_time": 44.75681818181818,
                "pitch": 61,
                "velocity": 51,
                "duration": 0.10000000000000142,
                "tempo": 120.0
            },
            {
                "start_time": 46.0,
                "end_time": 46.099999999999994,
                "pitch": 73,
                "velocity": 51,
                "duration": 0.09999999999999432,
                "tempo": 120.0
            },
            {
                "start_time": 46.668181818181814,
                "end_time": 46.715909090909086,
                "pitch": 61,
                "velocity": 51,
                "duration": 0.04772727272727195,
                "tempo": 120.0
            },
            {
                "start_time": 46.715909090909086,
                "end_time": 46.76590909090909,
                "pitch": 62,
                "velocity": 51,
                "duration": 0.05000000000000426,
                "tempo": 120.0
            },
            {
                "start_time": 47.0,
                "end_time": 47.099999999999994,
                "pitch": 60,
                "velocity": 51,
                "duration": 0.09999999999999432,
                "tempo": 120.0
            },
            {
                "start_time": 47.336363636363636,
                "end_time": 47.434090909090905,
                "pitch": 61,
                "velocity": 51,
                "duration": 0.09772727272726911,
                "tempo": 120.0
            },
            {
                "start_time": 48.67727272727272,
                "end_time": 48.777272727272724,
                "pitch": 73,
                "velocity": 51,
                "duration": 0.10000000000000142,
                "tempo": 120.0
            },
            {
                "start_time": 49.345454545454544,
                "end_time": 49.39545454545454,
                "pitch": 61,
                "velocity": 51,
                "duration": 0.04999999999999716,
                "tempo": 120.0
            },
            {
                "start_time": 49.39545454545454,
                "end_time": 49.445454545454545,
                "pitch": 62,
                "velocity": 51,
                "duration": 0.05000000000000426,
                "tempo": 120.0
            },
            {
                "start_time": 49.67727272727272,
                "end_time": 49.777272727272724,
                "pitch": 60,
                "velocity": 51,
                "duration": 0.10000000000000142,
                "tempo": 120.0
            },
            {
                "start_time": 50.349999999999994,
                "end_time": 50.449999999999996,
                "pitch": 73,
                "velocity": 51,
                "duration": 0.10000000000000142,
                "tempo": 120.0
            },
            {
                "start_time": 51.02272727272727,
                "end_time": 51.12045454545454,
                "pitch": 85,
                "velocity": 51,
                "duration": 0.09772727272726911,
                "tempo": 120.0
            },
            {
                "start_time": 51.69318181818181,
                "end_time": 51.79090909090909,
                "pitch": 85,
                "velocity": 51,
                "duration": 0.09772727272727622,
                "tempo": 120.0
            },
            {
                "start_time": 52.35681818181818,
                "end_time": 52.45681818181818,
                "pitch": 85,
                "velocity": 51,
                "duration": 0.10000000000000142,
                "tempo": 120.0
            },
            {
                "start_time": 53.02954545454545,
                "end_time": 53.12954545454545,
                "pitch": 85,
                "velocity": 51,
                "duration": 0.10000000000000142,
                "tempo": 120.0
            },
            {
                "start_time": 54.03636363636363,
                "end_time": 54.13636363636363,
                "pitch": 73,
                "velocity": 51,
                "duration": 0.10000000000000142,
                "tempo": 120.0
            },
            {
                "start_time": 54.70454545454545,
                "end_time": 54.752272727272725,
                "pitch": 61,
                "velocity": 51,
                "duration": 0.04772727272727195,
                "tempo": 120.0
            },
            {
                "start_time": 54.752272727272725,
                "end_time": 54.80227272727272,
                "pitch": 62,
                "velocity": 51,
                "duration": 0.04999999999999716,
                "tempo": 120.0
            },
            {
                "start_time": 55.03636363636363,
                "end_time": 55.13636363636363,
                "pitch": 60,
                "velocity": 51,
                "duration": 0.10000000000000142,
                "tempo": 120.0
            },
            {
                "start_time": 55.37272727272727,
                "end_time": 55.47272727272727,
                "pitch": 61,
                "velocity": 51,
                "duration": 0.10000000000000142,
                "tempo": 120.0
            },
            {
                "start_time": 56.715909090909086,
                "end_time": 56.81590909090909,
                "pitch": 73,
                "velocity": 51,
                "duration": 0.10000000000000142,
                "tempo": 120.0
            },
            {
                "start_time": 57.38409090909091,
                "end_time": 57.43181818181818,
                "pitch": 61,
                "velocity": 51,
                "duration": 0.04772727272727195,
                "tempo": 120.0
            },
            {
                "start_time": 57.43181818181818,
                "end_time": 57.48181818181818,
                "pitch": 62,
                "velocity": 51,
                "duration": 0.04999999999999716,
                "tempo": 120.0
            },
            {
                "start_time": 57.715909090909086,
                "end_time": 57.81590909090909,
                "pitch": 60,
                "velocity": 51,
                "duration": 0.10000000000000142,
                "tempo": 120.0
            },
            {
                "start_time": 58.05,
                "end_time": 58.15,
                "pitch": 61,
                "velocity": 51,
                "duration": 0.10000000000000142,
                "tempo": 120.0
            },
            {
                "start_time": 59.393181818181816,
                "end_time": 59.49318181818182,
                "pitch": 73,
                "velocity": 51,
                "duration": 0.10000000000000142,
                "tempo": 120.0
            },
            {
                "start_time": 60.06590909090909,
                "end_time": 60.115909090909085,
                "pitch": 61,
                "velocity": 51,
                "duration": 0.04999999999999716,
                "tempo": 120.0
            },
            {
                "start_time": 60.115909090909085,
                "end_time": 60.16590909090909,
                "pitch": 62,
                "velocity": 51,
                "duration": 0.05000000000000426,
                "tempo": 120.0
            },
            {
                "start_time": 60.402272727272724,
                "end_time": 60.5,
                "pitch": 60,
                "velocity": 51,
                "duration": 0.09772727272727622,
                "tempo": 120.0
            },
            {
                "start_time": 60.73409090909091,
                "end_time": 60.83181818181818,
                "pitch": 61,
                "velocity": 51,
                "duration": 0.09772727272726911,
                "tempo": 120.0
            },
            {
                "start_time": 62.07272727272727,
                "end_time": 62.17272727272727,
                "pitch": 73,
                "velocity": 51,
                "duration": 0.10000000000000142,
                "tempo": 120.0
            },
            {
                "start_time": 62.74545454545454,
                "end_time": 62.793181818181814,
                "pitch": 61,
                "velocity": 51,
                "duration": 0.04772727272727195,
                "tempo": 120.0
            },
            {
                "start_time": 62.793181818181814,
                "end_time": 62.84318181818181,
                "pitch": 62,
                "velocity": 51,
                "duration": 0.04999999999999716,
                "tempo": 120.0
            },
            {
                "start_time": 63.07954545454545,
                "end_time": 63.179545454545455,
                "pitch": 60,
                "velocity": 51,
                "duration": 0.10000000000000142,
                "tempo": 120.0
            },
            {
                "start_time": 63.41136363636363,
                "end_time": 63.51136363636363,
                "pitch": 61,
                "velocity": 51,
                "duration": 0.10000000000000142,
                "tempo": 120.0
            },
            {
                "start_time": 64.75227272727273,
                "end_time": 64.85227272727272,
                "pitch": 73,
                "velocity": 51,
                "duration": 0.09999999999999432,
                "tempo": 120.0
            },
            {
                "start_time": 65.42045454545455,
                "end_time": 65.46818181818182,
                "pitch": 61,
                "velocity": 51,
                "duration": 0.04772727272727195,
                "tempo": 120.0
            },
            {
                "start_time": 65.46818181818182,
                "end_time": 65.51818181818182,
                "pitch": 62,
                "velocity": 51,
                "duration": 0.04999999999999716,
                "tempo": 120.0
            },
            {
                "start_time": 65.75227272727273,
                "end_time": 65.85227272727272,
                "pitch": 60,
                "velocity": 51,
                "duration": 0.09999999999999432,
                "tempo": 120.0
            },
            {
                "start_time": 66.08636363636363,
                "end_time": 66.18636363636364,
                "pitch": 61,
                "velocity": 51,
                "duration": 0.10000000000000853,
                "tempo": 120.0
            },
            {
                "start_time": 67.43181818181817,
                "end_time": 67.52954545454546,
                "pitch": 73,
                "velocity": 51,
                "duration": 0.09772727272728332,
                "tempo": 120.0
            },
            {
                "start_time": 68.10227272727272,
                "end_time": 68.15227272727273,
                "pitch": 61,
                "velocity": 51,
                "duration": 0.05000000000001137,
                "tempo": 120.0
            },
            {
                "start_time": 68.15227272727273,
                "end_time": 68.20227272727273,
                "pitch": 62,
                "velocity": 51,
                "duration": 0.04999999999999716,
                "tempo": 120.0
            },
            {
                "start_time": 68.43863636363636,
                "end_time": 68.53636363636363,
                "pitch": 60,
                "velocity": 51,
                "duration": 0.09772727272726911,
                "tempo": 120.0
            },
            {
                "start_time": 68.77045454545454,
                "end_time": 68.86818181818181,
                "pitch": 61,
                "velocity": 51,
                "duration": 0.09772727272726911,
                "tempo": 120.0
            },
            {
                "start_time": 70.10909090909091,
                "end_time": 70.2090909090909,
                "pitch": 73,
                "velocity": 51,
                "duration": 0.09999999999999432,
                "tempo": 120.0
            },
            {
                "start_time": 70.78181818181818,
                "end_time": 70.82954545454545,
                "pitch": 61,
                "velocity": 51,
                "duration": 0.04772727272727195,
                "tempo": 120.0
            },
            {
                "start_time": 70.83181818181818,
                "end_time": 70.88181818181818,
                "pitch": 62,
                "velocity": 51,
                "duration": 0.04999999999999716,
                "tempo": 120.0
            },
            {
                "start_time": 71.11818181818181,
                "end_time": 71.2159090909091,
                "pitch": 60,
                "velocity": 51,
                "duration": 0.09772727272728332,
                "tempo": 120.0
            },
            {
                "start_time": 71.45,
                "end_time": 71.54772727272727,
                "pitch": 61,
                "velocity": 51,
                "duration": 0.09772727272726911,
                "tempo": 120.0
            },
            {
                "start_time": 72.78863636363636,
                "end_time": 72.88863636363637,
                "pitch": 73,
                "velocity": 51,
                "duration": 0.10000000000000853,
                "tempo": 120.0
            },
            {
                "start_time": 73.4590909090909,
                "end_time": 73.5090909090909,
                "pitch": 61,
                "velocity": 51,
                "duration": 0.04999999999999716,
                "tempo": 120.0
            },
            {
                "start_time": 73.5090909090909,
                "end_time": 73.55909090909091,
                "pitch": 62,
                "velocity": 51,
                "duration": 0.05000000000001137,
                "tempo": 120.0
            },
            {
                "start_time": 73.79545454545455,
                "end_time": 73.89545454545454,
                "pitch": 60,
                "velocity": 51,
                "duration": 0.09999999999999432,
                "tempo": 120.0
            },
            {
                "start_time": 74.12727272727273,
                "end_time": 74.22727272727272,
                "pitch": 61,
                "velocity": 51,
                "duration": 0.09999999999999432,
                "tempo": 120.0
            },
            {
                "start_time": 75.46818181818182,
                "end_time": 75.56818181818181,
                "pitch": 73,
                "velocity": 51,
                "duration": 0.09999999999999432,
                "tempo": 120.0
            },
            {
                "start_time": 76.13863636363637,
                "end_time": 76.18863636363636,
                "pitch": 61,
                "velocity": 51,
                "duration": 0.04999999999999716,
                "tempo": 120.0
            },
            {
                "start_time": 76.18863636363636,
                "end_time": 76.23863636363636,
                "pitch": 62,
                "velocity": 51,
                "duration": 0.04999999999999716,
                "tempo": 120.0
            },
            {
                "start_time": 76.475,
                "end_time": 76.57272727272726,
                "pitch": 60,
                "velocity": 51,
                "duration": 0.09772727272726911,
                "tempo": 120.0
            },
            {
                "start_time": 77.13863636363637,
                "end_time": 77.23863636363636,
                "pitch": 73,
                "velocity": 51,
                "duration": 0.09999999999999432,
                "tempo": 120.0
            },
            {
                "start_time": 77.81136363636364,
                "end_time": 77.91136363636363,
                "pitch": 85,
                "velocity": 51,
                "duration": 0.09999999999999432,
                "tempo": 120.0
            },
            {
                "start_time": 78.48181818181818,
                "end_time": 78.58181818181818,
                "pitch": 85,
                "velocity": 51,
                "duration": 0.09999999999999432,
                "tempo": 120.0
            },
            {
                "start_time": 79.15454545454546,
                "end_time": 79.25227272727273,
                "pitch": 85,
                "velocity": 51,
                "duration": 0.09772727272726911,
                "tempo": 120.0
            },
            {
                "start_time": 79.81818181818181,
                "end_time": 79.91818181818181,
                "pitch": 85,
                "velocity": 51,
                "duration": 0.09999999999999432,
                "tempo": 120.0
            },
            {
                "start_time": 80.825,
                "end_time": 80.925,
                "pitch": 73,
                "velocity": 51,
                "duration": 0.09999999999999432,
                "tempo": 120.0
            },
            {
                "start_time": 81.49318181818181,
                "end_time": 81.54090909090908,
                "pitch": 61,
                "velocity": 51,
                "duration": 0.04772727272727195,
                "tempo": 120.0
            },
            {
                "start_time": 81.54318181818181,
                "end_time": 81.5909090909091,
                "pitch": 62,
                "velocity": 51,
                "duration": 0.04772727272728616,
                "tempo": 120.0
            },
            {
                "start_time": 81.825,
                "end_time": 81.925,
                "pitch": 60,
                "velocity": 51,
                "duration": 0.09999999999999432,
                "tempo": 120.0
            },
            {
                "start_time": 82.16136363636363,
                "end_time": 82.26136363636363,
                "pitch": 61,
                "velocity": 51,
                "duration": 0.09999999999999432,
                "tempo": 120.0
            },
            {
                "start_time": 83.50681818181818,
                "end_time": 83.60909090909091,
                "pitch": 73,
                "velocity": 51,
                "duration": 0.10227272727273373,
                "tempo": 120.0
            },
            {
                "start_time": 84.17954545454545,
                "end_time": 84.22954545454544,
                "pitch": 61,
                "velocity": 51,
                "duration": 0.04999999999999716,
                "tempo": 120.0
            },
            {
                "start_time": 84.22954545454544,
                "end_time": 84.27727272727272,
                "pitch": 62,
                "velocity": 51,
                "duration": 0.04772727272727195,
                "tempo": 120.0
            },
            {
                "start_time": 84.51136363636363,
                "end_time": 84.61136363636363,
                "pitch": 60,
                "velocity": 51,
                "duration": 0.10000000000000853,
                "tempo": 120.0
            },
            {
                "start_time": 84.84318181818182,
                "end_time": 84.94318181818181,
                "pitch": 61,
                "velocity": 51,
                "duration": 0.09999999999999432,
                "tempo": 120.0
            },
            {
                "start_time": 86.18636363636364,
                "end_time": 86.28863636363636,
                "pitch": 73,
                "velocity": 51,
                "duration": 0.10227272727271952,
                "tempo": 120.0
            },
            {
                "start_time": 86.85909090909091,
                "end_time": 86.90681818181818,
                "pitch": 61,
                "velocity": 51,
                "duration": 0.04772727272727195,
                "tempo": 120.0
            },
            {
                "start_time": 86.90681818181818,
                "end_time": 86.95681818181818,
                "pitch": 62,
                "velocity": 51,
                "duration": 0.04999999999999716,
                "tempo": 120.0
            },
            {
                "start_time": 87.19090909090909,
                "end_time": 87.28863636363636,
                "pitch": 60,
                "velocity": 51,
                "duration": 0.09772727272726911,
                "tempo": 120.0
            },
            {
                "start_time": 87.52272727272727,
                "end_time": 87.62045454545454,
                "pitch": 61,
                "velocity": 51,
                "duration": 0.09772727272726911,
                "tempo": 120.0
            },
            {
                "start_time": 88.86590909090908,
                "end_time": 88.9659090909091,
                "pitch": 73,
                "velocity": 51,
                "duration": 0.10000000000000853,
                "tempo": 120.0
            },
            {
                "start_time": 89.53863636363636,
                "end_time": 89.58636363636363,
                "pitch": 61,
                "velocity": 51,
                "duration": 0.04772727272727195,
                "tempo": 120.0
            },
            {
                "start_time": 89.58636363636363,
                "end_time": 89.63636363636363,
                "pitch": 62,
                "velocity": 51,
                "duration": 0.04999999999999716,
                "tempo": 120.0
            },
            {
                "start_time": 89.87045454545454,
                "end_time": 89.96818181818182,
                "pitch": 60,
                "velocity": 51,
                "duration": 0.09772727272728332,
                "tempo": 120.0
            },
            {
                "start_time": 90.20227272727273,
                "end_time": 90.3,
                "pitch": 61,
                "velocity": 51,
                "duration": 0.09772727272726911,
                "tempo": 120.0
            },
            {
                "start_time": 91.54545454545455,
                "end_time": 91.64545454545454,
                "pitch": 73,
                "velocity": 51,
                "duration": 0.09999999999999432,
                "tempo": 120.0
            },
            {
                "start_time": 92.2159090909091,
                "end_time": 92.26590909090909,
                "pitch": 61,
                "velocity": 51,
                "duration": 0.04999999999999716,
                "tempo": 120.0
            },
            {
                "start_time": 92.26590909090909,
                "end_time": 92.31590909090909,
                "pitch": 62,
                "velocity": 51,
                "duration": 0.04999999999999716,
                "tempo": 120.0
            },
            {
                "start_time": 92.55,
                "end_time": 92.64772727272727,
                "pitch": 60,
                "velocity": 51,
                "duration": 0.09772727272726911,
                "tempo": 120.0
            },
            {
                "start_time": 92.88181818181818,
                "end_time": 92.97954545454544,
                "pitch": 61,
                "velocity": 51,
                "duration": 0.09772727272726911,
                "tempo": 120.0
            },
            {
                "start_time": 94.225,
                "end_time": 94.32499999999999,
                "pitch": 73,
                "velocity": 51,
                "duration": 0.09999999999999432,
                "tempo": 120.0
            },
            {
                "start_time": 94.89545454545454,
                "end_time": 94.94545454545454,
                "pitch": 61,
                "velocity": 51,
                "duration": 0.04999999999999716,
                "tempo": 120.0
            },
            {
                "start_time": 94.94545454545454,
                "end_time": 94.99545454545454,
                "pitch": 62,
                "velocity": 51,
                "duration": 0.04999999999999716,
                "tempo": 120.0
            },
            {
                "start_time": 95.22727272727272,
                "end_time": 95.32727272727273,
                "pitch": 60,
                "velocity": 51,
                "duration": 0.10000000000000853,
                "tempo": 120.0
            },
            {
                "start_time": 95.5590909090909,
                "end_time": 95.6590909090909,
                "pitch": 61,
                "velocity": 51,
                "duration": 0.10000000000000853,
                "tempo": 120.0
            },
            {
                "start_time": 96.90227272727272,
                "end_time": 97.00454545454545,
                "pitch": 73,
                "velocity": 51,
                "duration": 0.10227272727273373,
                "tempo": 120.0
            },
            {
                "start_time": 97.57499999999999,
                "end_time": 97.625,
                "pitch": 61,
                "velocity": 51,
                "duration": 0.05000000000001137,
                "tempo": 120.0
            },
            {
                "start_time": 97.625,
                "end_time": 97.67272727272727,
                "pitch": 62,
                "velocity": 51,
                "duration": 0.04772727272727195,
                "tempo": 120.0
            },
            {
                "start_time": 97.90681818181818,
                "end_time": 98.00681818181818,
                "pitch": 60,
                "velocity": 51,
                "duration": 0.09999999999999432,
                "tempo": 120.0
            },
            {
                "start_time": 98.23863636363636,
                "end_time": 98.33863636363635,
                "pitch": 61,
                "velocity": 51,
                "duration": 0.09999999999999432,
                "tempo": 120.0
            },
            {
                "start_time": 99.57954545454545,
                "end_time": 99.67954545454545,
                "pitch": 73,
                "velocity": 51,
                "duration": 0.09999999999999432,
                "tempo": 120.0
            },
            {
                "start_time": 100.25,
                "end_time": 100.3,
                "pitch": 61,
                "velocity": 51,
                "duration": 0.04999999999999716,
                "tempo": 120.0
            },
            {
                "start_time": 100.3,
                "end_time": 100.35,
                "pitch": 62,
                "velocity": 51,
                "duration": 0.04999999999999716,
                "tempo": 120.0
            },
            {
                "start_time": 100.58636363636363,
                "end_time": 100.6840909090909,
                "pitch": 60,
                "velocity": 51,
                "duration": 0.09772727272726911,
                "tempo": 120.0
            },
            {
                "start_time": 100.91818181818181,
                "end_time": 101.01590909090909,
                "pitch": 61,
                "velocity": 51,
                "duration": 0.09772727272728332,
                "tempo": 120.0
            },
            {
                "start_time": 102.25681818181818,
                "end_time": 102.35681818181817,
                "pitch": 73,
                "velocity": 51,
                "duration": 0.09999999999999432,
                "tempo": 120.0
            },
            {
                "start_time": 102.92954545454545,
                "end_time": 102.97954545454544,
                "pitch": 61,
                "velocity": 51,
                "duration": 0.04999999999999716,
                "tempo": 120.0
            },
            {
                "start_time": 102.97954545454544,
                "end_time": 103.02954545454546,
                "pitch": 62,
                "velocity": 51,
                "duration": 0.05000000000001137,
                "tempo": 120.0
            },
            {
                "start_time": 103.26590909090909,
                "end_time": 103.36363636363636,
                "pitch": 60,
                "velocity": 51,
                "duration": 0.09772727272726911,
                "tempo": 120.0
            },
            {
                "start_time": 103.92954545454545,
                "end_time": 104.02954545454546,
                "pitch": 73,
                "velocity": 51,
                "duration": 0.10000000000000853,
                "tempo": 120.0
            },
            {
                "start_time": 104.6,
                "end_time": 104.69999999999999,
                "pitch": 85,
                "velocity": 51,
                "duration": 0.09999999999999432,
                "tempo": 120.0
            },
            {
                "start_time": 105.27272727272727,
                "end_time": 105.37272727272726,
                "pitch": 85,
                "velocity": 51,
                "duration": 0.09999999999999432,
                "tempo": 120.0
            },
            {
                "start_time": 105.94318181818181,
                "end_time": 106.04318181818181,
                "pitch": 85,
                "velocity": 51,
                "duration": 0.09999999999999432,
                "tempo": 120.0
            },
            {
                "start_time": 106.60909090909091,
                "end_time": 106.70681818181818,
                "pitch": 85,
                "velocity": 51,
                "duration": 0.09772727272726911,
                "tempo": 120.0
            }
        ],
        "Trumpet": [
            {
                "start_time": 23.911363636363635,
                "end_time": 24.027272727272727,
                "pitch": 40,
                "velocity": 80,
                "duration": 0.11590909090909207,
                "tempo": 120.0
            },
            {
                "start_time": 24.077272727272724,
                "end_time": 24.193181818181817,
                "pitch": 38,
                "velocity": 80,
                "duration": 0.11590909090909207,
                "tempo": 120.0
            },
            {
                "start_time": 24.243181818181817,
                "end_time": 24.327272727272724,
                "pitch": 37,
                "velocity": 80,
                "duration": 0.08409090909090722,
                "tempo": 120.0
            },
            {
                "start_time": 24.584090909090907,
                "end_time": 24.668181818181818,
                "pitch": 35,
                "velocity": 80,
                "duration": 0.08409090909091077,
                "tempo": 120.0
            },
            {
                "start_time": 24.922727272727272,
                "end_time": 25.004545454545454,
                "pitch": 33,
                "velocity": 80,
                "duration": 0.08181818181818201,
                "tempo": 120.0
            },
            {
                "start_time": 25.918181818181818,
                "end_time": 26.002272727272725,
                "pitch": 31,
                "velocity": 80,
                "duration": 0.08409090909090722,
                "tempo": 120.0
            },
            {
                "start_time": 26.25,
                "end_time": 26.336363636363636,
                "pitch": 30,
                "velocity": 80,
                "duration": 0.08636363636363598,
                "tempo": 120.0
            },
            {
                "start_time": 26.59090909090909,
                "end_time": 26.674999999999997,
                "pitch": 28,
                "velocity": 80,
                "duration": 0.08409090909090722,
                "tempo": 120.0
            },
            {
                "start_time": 26.929545454545455,
                "end_time": 27.013636363636362,
                "pitch": 38,
                "velocity": 80,
                "duration": 0.08409090909090722,
                "tempo": 120.0
            },
            {
                "start_time": 27.593181818181815,
                "end_time": 27.677272727272726,
                "pitch": 38,
                "velocity": 80,
                "duration": 0.08409090909091077,
                "tempo": 120.0
            },
            {
                "start_time": 28.26590909090909,
                "end_time": 28.347727272727273,
                "pitch": 38,
                "velocity": 80,
                "duration": 0.08181818181818201,
                "tempo": 120.0
            },
            {
                "start_time": 28.929545454545455,
                "end_time": 29.013636363636362,
                "pitch": 38,
                "velocity": 80,
                "duration": 0.08409090909090722,
                "tempo": 120.0
            },
            {
                "start_time": 29.26590909090909,
                "end_time": 29.602272727272727,
                "pitch": 37,
                "velocity": 80,
                "duration": 0.336363636363636,
                "tempo": 120.0
            },
            {
                "start_time": 29.602272727272727,
                "end_time": 29.688636363636363,
                "pitch": 38,
                "velocity": 80,
                "duration": 0.08636363636363598,
                "tempo": 120.0
            },
            {
                "start_time": 30.295454545454543,
                "end_time": 30.377272727272725,
                "pitch": 38,
                "velocity": 80,
                "duration": 0.08181818181818201,
                "tempo": 120.0
            },
            {
                "start_time": 30.945454545454545,
                "end_time": 31.029545454545453,
                "pitch": 38,
                "velocity": 80,
                "duration": 0.08409090909090722,
                "tempo": 120.0
            },
            {
                "start_time": 31.618181818181817,
                "end_time": 31.7,
                "pitch": 38,
                "velocity": 80,
                "duration": 0.08181818181818201,
                "tempo": 120.0
            },
            {
                "start_time": 31.95,
                "end_time": 32.28181818181818,
                "pitch": 37,
                "velocity": 80,
                "duration": 0.331818181818182,
                "tempo": 120.0
            },
            {
                "start_time": 32.28181818181818,
                "end_time": 32.36818181818182,
                "pitch": 38,
                "velocity": 80,
                "duration": 0.08636363636363598,
                "tempo": 120.0
            },
            {
                "start_time": 32.975,
                "end_time": 33.05681818181818,
                "pitch": 38,
                "velocity": 80,
                "duration": 0.08181818181817846,
                "tempo": 120.0
            },
            {
                "start_time": 33.625,
                "end_time": 33.70909090909091,
                "pitch": 38,
                "velocity": 80,
                "duration": 0.08409090909091077,
                "tempo": 120.0
            },
            {
                "start_time": 34.29772727272727,
                "end_time": 34.37954545454545,
                "pitch": 38,
                "velocity": 80,
                "duration": 0.08181818181817846,
                "tempo": 120.0
            },
            {
                "start_time": 34.63181818181818,
                "end_time": 34.96818181818182,
                "pitch": 37,
                "velocity": 80,
                "duration": 0.336363636363636,
                "tempo": 120.0
            },
            {
                "start_time": 34.96818181818182,
                "end_time": 35.05227272727272,
                "pitch": 38,
                "velocity": 80,
                "duration": 0.08409090909090366,
                "tempo": 120.0
            },
            {
                "start_time": 35.64772727272727,
                "end_time": 35.72727272727273,
                "pitch": 38,
                "velocity": 80,
                "duration": 0.07954545454545325,
                "tempo": 120.0
            },
            {
                "start_time": 36.29772727272727,
                "end_time": 36.37954545454545,
                "pitch": 38,
                "velocity": 80,
                "duration": 0.08181818181817846,
                "tempo": 120.0
            },
            {
                "start_time": 36.96818181818182,
                "end_time": 37.05227272727272,
                "pitch": 38,
                "velocity": 80,
                "duration": 0.08409090909090366,
                "tempo": 120.0
            },
            {
                "start_time": 37.304545454545455,
                "end_time": 37.64090909090909,
                "pitch": 37,
                "velocity": 80,
                "duration": 0.336363636363636,
                "tempo": 120.0
            },
            {
                "start_time": 37.64090909090909,
                "end_time": 37.725,
                "pitch": 38,
                "velocity": 80,
                "duration": 0.08409090909091077,
                "tempo": 120.0
            },
            {
                "start_time": 38.320454545454545,
                "end_time": 38.4,
                "pitch": 38,
                "velocity": 80,
                "duration": 0.07954545454545325,
                "tempo": 120.0
            },
            {
                "start_time": 38.96818181818182,
                "end_time": 39.05227272727272,
                "pitch": 38,
                "velocity": 80,
                "duration": 0.08409090909090366,
                "tempo": 120.0
            },
            {
                "start_time": 39.64090909090909,
                "end_time": 39.725,
                "pitch": 38,
                "velocity": 80,
                "duration": 0.08409090909091077,
                "tempo": 120.0
            },
            {
                "start_time": 39.97727272727273,
                "end_time": 40.31136363636364,
                "pitch": 37,
                "velocity": 80,
                "duration": 0.33409090909091077,
                "tempo": 120.0
            },
            {
                "start_time": 40.31363636363636,
                "end_time": 40.39545454545454,
                "pitch": 38,
                "velocity": 80,
                "duration": 0.08181818181817846,
                "tempo": 120.0
            },
            {
                "start_time": 40.99090909090909,
                "end_time": 41.07272727272727,
                "pitch": 38,
                "velocity": 80,
                "duration": 0.08181818181817846,
                "tempo": 120.0
            },
            {
                "start_time": 41.64090909090909,
                "end_time": 41.725,
                "pitch": 38,
                "velocity": 80,
                "duration": 0.08409090909091077,
                "tempo": 120.0
            },
            {
                "start_time": 42.31363636363636,
                "end_time": 42.39545454545454,
                "pitch": 38,
                "velocity": 80,
                "duration": 0.08181818181817846,
                "tempo": 120.0
            },
            {
                "start_time": 42.64772727272727,
                "end_time": 42.98409090909091,
                "pitch": 37,
                "velocity": 80,
                "duration": 0.336363636363636,
                "tempo": 120.0
            },
            {
                "start_time": 42.98409090909091,
                "end_time": 43.06818181818181,
                "pitch": 40,
                "velocity": 80,
                "duration": 0.08409090909090366,
                "tempo": 120.0
            },
            {
                "start_time": 43.65681818181818,
                "end_time": 43.73863636363636,
                "pitch": 45,
                "velocity": 80,
                "duration": 0.08181818181817846,
                "tempo": 120.0
            },
            {
                "start_time": 44.320454545454545,
                "end_time": 44.402272727272724,
                "pitch": 33,
                "velocity": 80,
                "duration": 0.08181818181817846,
                "tempo": 120.0
            },
            {
                "start_time": 44.99090909090909,
                "end_time": 45.074999999999996,
                "pitch": 33,
                "velocity": 80,
                "duration": 0.08409090909090366,
                "tempo": 120.0
            },
            {
                "start_time": 45.663636363636364,
                "end_time": 45.74545454545454,
                "pitch": 40,
                "velocity": 80,
                "duration": 0.08181818181817846,
                "tempo": 120.0
            },
            {
                "start_time": 46.0,
                "end_time": 46.08181818181818,
                "pitch": 45,
                "velocity": 80,
                "duration": 0.08181818181817846,
                "tempo": 120.0
            },
            {
                "start_time": 46.334090909090904,
                "end_time": 46.418181818181814,
                "pitch": 33,
                "velocity": 80,
                "duration": 0.08409090909091077,
                "tempo": 120.0
            },
            {
                "start_time": 47.0,
                "end_time": 47.08181818181818,
                "pitch": 40,
                "velocity": 80,
                "duration": 0.08181818181817846,
                "tempo": 120.0
            },
            {
                "start_time": 47.334090909090904,
                "end_time": 47.418181818181814,
                "pitch": 40,
                "velocity": 80,
                "duration": 0.08409090909091077,
                "tempo": 120.0
            },
            {
                "start_time": 48.34318181818182,
                "end_time": 48.425,
                "pitch": 40,
                "velocity": 80,
                "duration": 0.08181818181817846,
                "tempo": 120.0
            },
            {
                "start_time": 49.01363636363636,
                "end_time": 49.095454545454544,
                "pitch": 45,
                "velocity": 80,
                "duration": 0.08181818181818556,
                "tempo": 120.0
            },
            {
                "start_time": 49.67727272727272,
                "end_time": 49.76136363636363,
                "pitch": 33,
                "velocity": 80,
                "duration": 0.08409090909091077,
                "tempo": 120.0
            },
            {
                "start_time": 50.349999999999994,
                "end_time": 50.43181818181818,
                "pitch": 33,
                "velocity": 80,
                "duration": 0.08181818181818556,
                "tempo": 120.0
            },
            {
                "start_time": 50.68636363636364,
                "end_time": 50.80227272727272,
                "pitch": 40,
                "velocity": 80,
                "duration": 0.11590909090908497,
                "tempo": 120.0
            },
            {
                "start_time": 50.85227272727273,
                "end_time": 50.970454545454544,
                "pitch": 38,
                "velocity": 80,
                "duration": 0.11818181818181728,
                "tempo": 120.0
            },
            {
                "start_time": 51.02045454545454,
                "end_time": 51.10454545454545,
                "pitch": 37,
                "velocity": 80,
                "duration": 0.08409090909091077,
                "tempo": 120.0
            },
            {
                "start_time": 51.35681818181818,
                "end_time": 51.44090909090909,
                "pitch": 35,
                "velocity": 80,
                "duration": 0.08409090909091077,
                "tempo": 120.0
            },
            {
                "start_time": 51.69318181818181,
                "end_time": 51.775,
                "pitch": 33,
                "velocity": 80,
                "duration": 0.08181818181818556,
                "tempo": 120.0
            },
            {
                "start_time": 52.69318181818181,
                "end_time": 52.775,
                "pitch": 31,
                "velocity": 80,
                "duration": 0.08181818181818556,
                "tempo": 120.0
            },
            {
                "start_time": 53.027272727272724,
                "end_time": 53.111363636363635,
                "pitch": 30,
                "velocity": 80,
                "duration": 0.08409090909091077,
                "tempo": 120.0
            },
            {
                "start_time": 53.36363636363636,
                "end_time": 53.44772727272727,
                "pitch": 28,
                "velocity": 80,
                "duration": 0.08409090909091077,
                "tempo": 120.0
            },
            {
                "start_time": 53.699999999999996,
                "end_time": 54.11818181818182,
                "pitch": 26,
                "velocity": 80,
                "duration": 0.41818181818182154,
                "tempo": 120.0
            },
            {
                "start_time": 54.37045454545454,
                "end_time": 54.78636363636363,
                "pitch": 30,
                "velocity": 80,
                "duration": 0.41590909090908923,
                "tempo": 120.0
            },
            {
                "start_time": 55.03636363636363,
                "end_time": 55.45454545454545,
                "pitch": 33,
                "velocity": 80,
                "duration": 0.41818181818182154,
                "tempo": 120.0
            },
            {
                "start_time": 55.70681818181818,
                "end_time": 56.025,
                "pitch": 38,
                "velocity": 80,
                "duration": 0.3181818181818201,
                "tempo": 120.0
            },
            {
                "start_time": 56.211363636363636,
                "end_time": 56.32727272727273,
                "pitch": 38,
                "velocity": 80,
                "duration": 0.11590909090909207,
                "tempo": 120.0
            },
            {
                "start_time": 56.37954545454545,
                "end_time": 56.461363636363636,
                "pitch": 37,
                "velocity": 80,
                "duration": 0.08181818181818556,
                "tempo": 120.0
            },
            {
                "start_time": 56.71363636363636,
                "end_time": 56.79772727272727,
                "pitch": 35,
                "velocity": 80,
                "duration": 0.08409090909091077,
                "tempo": 120.0
            },
            {
                "start_time": 57.05,
                "end_time": 57.131818181818176,
                "pitch": 33,
                "velocity": 80,
                "duration": 0.08181818181817846,
                "tempo": 120.0
            },
            {
                "start_time": 57.381818181818176,
                "end_time": 57.465909090909086,
                "pitch": 31,
                "velocity": 80,
                "duration": 0.08409090909091077,
                "tempo": 120.0
            },
            {
                "start_time": 57.71363636363636,
                "end_time": 58.55227272727272,
                "pitch": 33,
                "velocity": 80,
                "duration": 0.8386363636363612,
                "tempo": 120.0
            },
            {
                "start_time": 59.05681818181818,
                "end_time": 59.47727272727273,
                "pitch": 38,
                "velocity": 80,
                "duration": 0.42045454545454675,
                "tempo": 120.0
            },
            {
                "start_time": 59.72954545454545,
                "end_time": 60.147727272727266,
                "pitch": 42,
                "velocity": 80,
                "duration": 0.41818181818181444,
                "tempo": 120.0
            },
            {
                "start_time": 60.4,
                "end_time": 60.81590909090909,
                "pitch": 45,
                "velocity": 80,
                "duration": 0.41590909090908923,
                "tempo": 120.0
            },
            {
                "start_time": 61.06590909090909,
                "end_time": 61.38409090909091,
                "pitch": 50,
                "velocity": 80,
                "duration": 0.3181818181818201,
                "tempo": 120.0
            },
            {
                "start_time": 61.56818181818181,
                "end_time": 61.68636363636363,
                "pitch": 50,
                "velocity": 80,
                "duration": 0.11818181818181728,
                "tempo": 120.0
            },
            {
                "start_time": 61.736363636363635,
                "end_time": 61.820454545454545,
                "pitch": 49,
                "velocity": 80,
                "duration": 0.08409090909091077,
                "tempo": 120.0
            },
            {
                "start_time": 62.07272727272727,
                "end_time": 62.15681818181818,
                "pitch": 47,
                "velocity": 80,
                "duration": 0.08409090909091077,
                "tempo": 120.0
            },
            {
                "start_time": 62.40909090909091,
                "end_time": 62.490909090909085,
                "pitch": 45,
                "velocity": 80,
                "duration": 0.08181818181817846,
                "tempo": 120.0
            },
            {
                "start_time": 62.74318181818182,
                "end_time": 62.82727272727272,
                "pitch": 42,
                "velocity": 80,
                "duration": 0.08409090909090366,
                "tempo": 120.0
            },
            {
                "start_time": 63.07954545454545,
                "end_time": 63.91136363636363,
                "pitch": 38,
                "velocity": 80,
                "duration": 0.8318181818181785,
                "tempo": 120.0
            },
            {
                "start_time": 64.41590909090908,
                "end_time": 64.75,
                "pitch": 38,
                "velocity": 80,
                "duration": 0.3340909090909179,
                "tempo": 120.0
            },
            {
                "start_time": 65.08636363636363,
                "end_time": 65.50227272727273,
                "pitch": 33,
                "velocity": 80,
                "duration": 0.41590909090909634,
                "tempo": 120.0
            },
            {
                "start_time": 65.75227272727273,
                "end_time": 66.08636363636363,
                "pitch": 38,
                "velocity": 80,
                "duration": 0.33409090909090366,
                "tempo": 120.0
            },
            {
                "start_time": 66.42272727272727,
                "end_time": 66.74090909090908,
                "pitch": 33,
                "velocity": 80,
                "duration": 0.318181818181813,
                "tempo": 120.0
            },
            {
                "start_time": 66.92727272727272,
                "end_time": 67.04318181818182,
                "pitch": 33,
                "velocity": 80,
                "duration": 0.11590909090909918,
                "tempo": 120.0
            },
            {
                "start_time": 67.09545454545454,
                "end_time": 67.17727272727272,
                "pitch": 38,
                "velocity": 80,
                "duration": 0.08181818181817846,
                "tempo": 120.0
            },
            {
                "start_time": 67.42954545454545,
                "end_time": 67.51363636363637,
                "pitch": 33,
                "velocity": 80,
                "duration": 0.08409090909091788,
                "tempo": 120.0
            },
            {
                "start_time": 67.76590909090909,
                "end_time": 67.85,
                "pitch": 38,
                "velocity": 80,
                "duration": 0.08409090909090366,
                "tempo": 120.0
            },
            {
                "start_time": 68.10227272727272,
                "end_time": 68.18409090909091,
                "pitch": 33,
                "velocity": 80,
                "duration": 0.08181818181819267,
                "tempo": 120.0
            },
            {
                "start_time": 68.43863636363636,
                "end_time": 68.52045454545454,
                "pitch": 39,
                "velocity": 80,
                "duration": 0.08181818181817846,
                "tempo": 120.0
            },
            {
                "start_time": 68.77045454545454,
                "end_time": 68.85227272727272,
                "pitch": 39,
                "velocity": 80,
                "duration": 0.08181818181817846,
                "tempo": 120.0
            },
            {
                "start_time": 69.10227272727272,
                "end_time": 69.18409090909091,
                "pitch": 39,
                "velocity": 80,
                "duration": 0.08181818181819267,
                "tempo": 120.0
            },
            {
                "start_time": 69.43636363636364,
                "end_time": 69.52045454545454,
                "pitch": 39,
                "velocity": 80,
                "duration": 0.08409090909090366,
                "tempo": 120.0
            },
            {
                "start_time": 69.77272727272727,
                "end_time": 69.85681818181818,
                "pitch": 40,
                "velocity": 80,
                "duration": 0.08409090909091788,
                "tempo": 120.0
            },
            {
                "start_time": 70.44545454545454,
                "end_time": 70.52727272727273,
                "pitch": 45,
                "velocity": 80,
                "duration": 0.08181818181819267,
                "tempo": 120.0
            },
            {
                "start_time": 71.11590909090908,
                "end_time": 71.2,
                "pitch": 33,
                "velocity": 80,
                "duration": 0.08409090909091788,
                "tempo": 120.0
            },
            {
                "start_time": 71.78181818181818,
                "end_time": 71.86363636363636,
                "pitch": 33,
                "velocity": 80,
                "duration": 0.08181818181817846,
                "tempo": 120.0
            },
            {
                "start_time": 72.45227272727273,
                "end_time": 72.53636363636363,
                "pitch": 40,
                "velocity": 80,
                "duration": 0.08409090909090366,
                "tempo": 120.0
            },
            {
                "start_time": 72.78863636363636,
                "end_time": 72.87045454545454,
                "pitch": 45,
                "velocity": 80,
                "duration": 0.08181818181817846,
                "tempo": 120.0
            },
            {
                "start_time": 73.125,
                "end_time": 73.20681818181818,
                "pitch": 33,
                "velocity": 80,
                "duration": 0.08181818181817846,
                "tempo": 120.0
            },
            {
                "start_time": 73.79545454545455,
                "end_time": 73.87727272727273,
                "pitch": 40,
                "velocity": 80,
                "duration": 0.08181818181817846,
                "tempo": 120.0
            },
            {
                "start_time": 74.12727272727273,
                "end_time": 74.2090909090909,
                "pitch": 40,
                "velocity": 80,
                "duration": 0.08181818181817846,
                "tempo": 120.0
            },
            {
                "start_time": 75.13181818181818,
                "end_time": 75.21363636363635,
                "pitch": 40,
                "velocity": 80,
                "duration": 0.08181818181817846,
                "tempo": 120.0
            },
            {
                "start_time": 75.80227272727272,
                "end_time": 75.88636363636363,
                "pitch": 45,
                "velocity": 80,
                "duration": 0.08409090909090366,
                "tempo": 120.0
            },
            {
                "start_time": 76.475,
                "end_time": 76.55681818181817,
                "pitch": 33,
                "velocity": 80,
                "duration": 0.08181818181817846,
                "tempo": 120.0
            },
            {
                "start_time": 77.13863636363637,
                "end_time": 77.22272727272727,
                "pitch": 33,
                "velocity": 80,
                "duration": 0.08409090909090366,
                "tempo": 120.0
            },
            {
                "start_time": 77.475,
                "end_time": 77.5909090909091,
                "pitch": 40,
                "velocity": 80,
                "duration": 0.11590909090909918,
                "tempo": 120.0
            },
            {
                "start_time": 77.64090909090909,
                "end_time": 77.7590909090909,
                "pitch": 38,
                "velocity": 80,
                "duration": 0.11818181818181017,
                "tempo": 120.0
            },
            {
                "start_time": 77.80909090909091,
                "end_time": 77.89318181818182,
                "pitch": 37,
                "velocity": 80,
                "duration": 0.08409090909090366,
                "tempo": 120.0
            },
            {
                "start_time": 78.14545454545454,
                "end_time": 78.22954545454544,
                "pitch": 35,
                "velocity": 80,
                "duration": 0.08409090909090366,
                "tempo": 120.0
            },
            {
                "start_time": 78.48181818181818,
                "end_time": 78.56590909090909,
                "pitch": 33,
                "velocity": 80,
                "duration": 0.08409090909090366,
                "tempo": 120.0
            },
            {
                "start_time": 79.48636363636363,
                "end_time": 79.56818181818181,
                "pitch": 31,
                "velocity": 80,
                "duration": 0.08181818181817846,
                "tempo": 120.0
            },
            {
                "start_time": 79.81818181818181,
                "end_time": 79.89999999999999,
                "pitch": 30,
                "velocity": 80,
                "duration": 0.08181818181817846,
                "tempo": 120.0
            },
            {
                "start_time": 80.15227272727272,
                "end_time": 80.23636363636363,
                "pitch": 28,
                "velocity": 80,
                "duration": 0.08409090909091788,
                "tempo": 120.0
            },
            {
                "start_time": 80.48863636363636,
                "end_time": 80.57272727272726,
                "pitch": 38,
                "velocity": 80,
                "duration": 0.08409090909090366,
                "tempo": 120.0
            },
            {
                "start_time": 81.16136363636363,
                "end_time": 81.24318181818181,
                "pitch": 38,
                "velocity": 80,
                "duration": 0.08181818181817846,
                "tempo": 120.0
            },
            {
                "start_time": 81.825,
                "end_time": 81.9090909090909,
                "pitch": 38,
                "velocity": 80,
                "duration": 0.08409090909090366,
                "tempo": 120.0
            },
            {
                "start_time": 82.49545454545454,
                "end_time": 82.57954545454545,
                "pitch": 38,
                "velocity": 80,
                "duration": 0.08409090909091788,
                "tempo": 120.0
            },
            {
                "start_time": 82.83181818181818,
                "end_time": 83.16818181818181,
                "pitch": 37,
                "velocity": 80,
                "duration": 0.33636363636362887,
                "tempo": 120.0
            },
            {
                "start_time": 83.16818181818181,
                "end_time": 83.25227272727273,
                "pitch": 38,
                "velocity": 80,
                "duration": 0.08409090909091788,
                "tempo": 120.0
            },
            {
                "start_time": 83.84772727272727,
                "end_time": 83.92954545454545,
                "pitch": 38,
                "velocity": 80,
                "duration": 0.08181818181817846,
                "tempo": 120.0
            },
            {
                "start_time": 84.51136363636363,
                "end_time": 84.59318181818182,
                "pitch": 38,
                "velocity": 80,
                "duration": 0.08181818181819267,
                "tempo": 120.0
            },
            {
                "start_time": 85.175,
                "end_time": 85.2590909090909,
                "pitch": 38,
                "velocity": 80,
                "duration": 0.08409090909090366,
                "tempo": 120.0
            },
            {
                "start_time": 85.51136363636363,
                "end_time": 85.84772727272727,
                "pitch": 37,
                "velocity": 80,
                "duration": 0.3363636363636431,
                "tempo": 120.0
            },
            {
                "start_time": 85.84772727272727,
                "end_time": 85.93181818181817,
                "pitch": 38,
                "velocity": 80,
                "duration": 0.08409090909090366,
                "tempo": 120.0
            },
            {
                "start_time": 86.52499999999999,
                "end_time": 86.60909090909091,
                "pitch": 38,
                "velocity": 80,
                "duration": 0.08409090909091788,
                "tempo": 120.0
            },
            {
                "start_time": 87.19090909090909,
                "end_time": 87.27272727272727,
                "pitch": 38,
                "velocity": 80,
                "duration": 0.08181818181817846,
                "tempo": 120.0
            },
            {
                "start_time": 87.85454545454544,
                "end_time": 87.93863636363636,
                "pitch": 38,
                "velocity": 80,
                "duration": 0.08409090909091788,
                "tempo": 120.0
            },
            {
                "start_time": 88.19090909090909,
                "end_time": 88.52499999999999,
                "pitch": 37,
                "velocity": 80,
                "duration": 0.33409090909090366,
                "tempo": 120.0
            },
            {
                "start_time": 88.52727272727272,
                "end_time": 88.60909090909091,
                "pitch": 38,
                "velocity": 80,
                "duration": 0.08181818181819267,
                "tempo": 120.0
            },
            {
                "start_time": 89.20454545454545,
                "end_time": 89.28863636363636,
                "pitch": 38,
                "velocity": 80,
                "duration": 0.08409090909090366,
                "tempo": 120.0
            },
            {
                "start_time": 89.87045454545454,
                "end_time": 89.95227272727273,
                "pitch": 38,
                "velocity": 80,
                "duration": 0.08181818181819267,
                "tempo": 120.0
            },
            {
                "start_time": 90.5340909090909,
                "end_time": 90.61590909090908,
                "pitch": 38,
                "velocity": 80,
                "duration": 0.08181818181817846,
                "tempo": 120.0
            },
            {
                "start_time": 90.86818181818181,
                "end_time": 91.20454545454545,
                "pitch": 37,
                "velocity": 80,
                "duration": 0.3363636363636431,
                "tempo": 120.0
            },
            {
                "start_time": 91.20454545454545,
                "end_time": 91.28863636363636,
                "pitch": 38,
                "velocity": 80,
                "duration": 0.08409090909090366,
                "tempo": 120.0
            },
            {
                "start_time": 91.8840909090909,
                "end_time": 91.9659090909091,
                "pitch": 38,
                "velocity": 80,
                "duration": 0.08181818181819267,
                "tempo": 120.0
            },
            {
                "start_time": 92.54772727272727,
                "end_time": 92.63181818181818,
                "pitch": 38,
                "velocity": 80,
                "duration": 0.08409090909090366,
                "tempo": 120.0
            },
            {
                "start_time": 93.21363636363635,
                "end_time": 93.29545454545455,
                "pitch": 38,
                "velocity": 80,
                "duration": 0.08181818181819267,
                "tempo": 120.0
            },
            {
                "start_time": 93.54772727272727,
                "end_time": 93.8840909090909,
                "pitch": 37,
                "velocity": 80,
                "duration": 0.33636363636362887,
                "tempo": 120.0
            },
            {
                "start_time": 93.8840909090909,
                "end_time": 93.96818181818182,
                "pitch": 38,
                "velocity": 80,
                "duration": 0.08409090909091788,
                "tempo": 120.0
            },
            {
                "start_time": 94.56363636363636,
                "end_time": 94.64545454545454,
                "pitch": 38,
                "velocity": 80,
                "duration": 0.08181818181817846,
                "tempo": 120.0
            },
            {
                "start_time": 95.22727272727272,
                "end_time": 95.3090909090909,
                "pitch": 38,
                "velocity": 80,
                "duration": 0.08181818181817846,
                "tempo": 120.0
            },
            {
                "start_time": 95.89090909090909,
                "end_time": 95.975,
                "pitch": 38,
                "velocity": 80,
                "duration": 0.08409090909090366,
                "tempo": 120.0
            },
            {
                "start_time": 96.22727272727272,
                "end_time": 96.56363636363636,
                "pitch": 37,
                "velocity": 80,
                "duration": 0.3363636363636431,
                "tempo": 120.0
            },
            {
                "start_time": 96.56363636363636,
                "end_time": 96.64772727272727,
                "pitch": 40,
                "velocity": 80,
                "duration": 0.08409090909090366,
                "tempo": 120.0
            },
            {
                "start_time": 97.24318181818181,
                "end_time": 97.32499999999999,
                "pitch": 45,
                "velocity": 80,
                "duration": 0.08181818181817846,
                "tempo": 120.0
            },
            {
                "start_time": 97.90681818181818,
                "end_time": 97.98863636363636,
                "pitch": 33,
                "velocity": 80,
                "duration": 0.08181818181817846,
                "tempo": 120.0
            },
            {
                "start_time": 98.57045454545454,
                "end_time": 98.65454545454546,
                "pitch": 33,
                "velocity": 80,
                "duration": 0.08409090909091788,
                "tempo": 120.0
            },
            {
                "start_time": 99.24318181818181,
                "end_time": 99.32499999999999,
                "pitch": 40,
                "velocity": 80,
                "duration": 0.08181818181817846,
                "tempo": 120.0
            },
            {
                "start_time": 99.57727272727273,
                "end_time": 99.66136363636363,
                "pitch": 45,
                "velocity": 80,
                "duration": 0.08409090909090366,
                "tempo": 120.0
            },
            {
                "start_time": 99.91363636363636,
                "end_time": 99.99772727272727,
                "pitch": 33,
                "velocity": 80,
                "duration": 0.08409090909091788,
                "tempo": 120.0
            },
            {
                "start_time": 100.58636363636363,
                "end_time": 100.66818181818181,
                "pitch": 40,
                "velocity": 80,
                "duration": 0.08181818181817846,
                "tempo": 120.0
            },
            {
                "start_time": 100.91818181818181,
                "end_time": 101.0,
                "pitch": 40,
                "velocity": 80,
                "duration": 0.08181818181819267,
                "tempo": 120.0
            },
            {
                "start_time": 101.92045454545455,
                "end_time": 102.00454545454545,
                "pitch": 40,
                "velocity": 80,
                "duration": 0.08409090909090366,
                "tempo": 120.0
            },
            {
                "start_time": 102.59318181818182,
                "end_time": 102.67727272727272,
                "pitch": 45,
                "velocity": 80,
                "duration": 0.08409090909090366,
                "tempo": 120.0
            },
            {
                "start_time": 103.26363636363637,
                "end_time": 103.34772727272727,
                "pitch": 33,
                "velocity": 80,
                "duration": 0.08409090909090366,
                "tempo": 120.0
            },
            {
                "start_time": 103.92954545454545,
                "end_time": 104.01136363636363,
                "pitch": 33,
                "velocity": 80,
                "duration": 0.08181818181817846,
                "tempo": 120.0
            },
            {
                "start_time": 104.26363636363637,
                "end_time": 104.38181818181818,
                "pitch": 40,
                "velocity": 80,
                "duration": 0.11818181818181017,
                "tempo": 120.0
            },
            {
                "start_time": 104.43181818181817,
                "end_time": 104.55,
                "pitch": 38,
                "velocity": 80,
                "duration": 0.11818181818182438,
                "tempo": 120.0
            },
            {
                "start_time": 104.6,
                "end_time": 104.6840909090909,
                "pitch": 37,
                "velocity": 80,
                "duration": 0.08409090909090366,
                "tempo": 120.0
            },
            {
                "start_time": 104.93636363636364,
                "end_time": 105.01818181818182,
                "pitch": 35,
                "velocity": 80,
                "duration": 0.08181818181817846,
                "tempo": 120.0
            },
            {
                "start_time": 105.27272727272727,
                "end_time": 105.35454545454544,
                "pitch": 33,
                "velocity": 80,
                "duration": 0.08181818181817846,
                "tempo": 120.0
            },
            {
                "start_time": 106.27499999999999,
                "end_time": 106.35681818181817,
                "pitch": 31,
                "velocity": 80,
                "duration": 0.08181818181817846,
                "tempo": 120.0
            },
            {
                "start_time": 106.60681818181817,
                "end_time": 106.69090909090909,
                "pitch": 30,
                "velocity": 80,
                "duration": 0.08409090909091788,
                "tempo": 120.0
            },
            {
                "start_time": 106.94318181818181,
                "end_time": 107.02727272727272,
                "pitch": 28,
                "velocity": 80,
                "duration": 0.08409090909090366,
                "tempo": 120.0
            }
        ],
        "Electric Piano 1": [
            {
                "start_time": 16.209090909090907,
                "end_time": 16.375,
                "pitch": 76,
                "velocity": 80,
                "duration": 0.16590909090909278,
                "tempo": 120.0
            },
            {
                "start_time": 16.375,
                "end_time": 16.543181818181818,
                "pitch": 75,
                "velocity": 51,
                "duration": 0.168181818181818,
                "tempo": 120.0
            },
            {
                "start_time": 16.543181818181818,
                "end_time": 16.711363636363636,
                "pitch": 76,
                "velocity": 64,
                "duration": 0.168181818181818,
                "tempo": 120.0
            },
            {
                "start_time": 16.711363636363636,
                "end_time": 16.879545454545454,
                "pitch": 75,
                "velocity": 40,
                "duration": 0.168181818181818,
                "tempo": 120.0
            },
            {
                "start_time": 16.879545454545454,
                "end_time": 16.995454545454546,
                "pitch": 79,
                "velocity": 80,
                "duration": 0.11590909090909207,
                "tempo": 120.0
            },
            {
                "start_time": 16.995454545454546,
                "end_time": 17.045454545454543,
                "pitch": 79,
                "velocity": 80,
                "duration": 0.04999999999999716,
                "tempo": 120.0
            },
            {
                "start_time": 17.047727272727272,
                "end_time": 17.21590909090909,
                "pitch": 78,
                "velocity": 51,
                "duration": 0.168181818181818,
                "tempo": 120.0
            },
            {
                "start_time": 17.21590909090909,
                "end_time": 17.331818181818182,
                "pitch": 79,
                "velocity": 64,
                "duration": 0.11590909090909207,
                "tempo": 120.0
            },
            {
                "start_time": 16.995454545454546,
                "end_time": 17.331818181818182,
                "pitch": 91,
                "velocity": 80,
                "duration": 0.336363636363636,
                "tempo": 120.0
            },
            {
                "start_time": 17.331818181818182,
                "end_time": 17.381818181818183,
                "pitch": 79,
                "velocity": 64,
                "duration": 0.05000000000000071,
                "tempo": 120.0
            },
            {
                "start_time": 17.381818181818183,
                "end_time": 17.552272727272726,
                "pitch": 80,
                "velocity": 64,
                "duration": 0.1704545454545432,
                "tempo": 120.0
            },
            {
                "start_time": 17.886363636363637,
                "end_time": 18.222727272727273,
                "pitch": 81,
                "velocity": 64,
                "duration": 0.336363636363636,
                "tempo": 120.0
            },
            {
                "start_time": 18.55909090909091,
                "end_time": 18.893181818181816,
                "pitch": 81,
                "velocity": 64,
                "duration": 0.3340909090909072,
                "tempo": 120.0
            },
            {
                "start_time": 18.895454545454545,
                "end_time": 19.05909090909091,
                "pitch": 76,
                "velocity": 80,
                "duration": 0.16363636363636402,
                "tempo": 120.0
            },
            {
                "start_time": 19.05909090909091,
                "end_time": 19.227272727272727,
                "pitch": 75,
                "velocity": 51,
                "duration": 0.168181818181818,
                "tempo": 120.0
            },
            {
                "start_time": 19.227272727272727,
                "end_time": 19.39090909090909,
                "pitch": 76,
                "velocity": 64,
                "duration": 0.16363636363636402,
                "tempo": 120.0
            },
            {
                "start_time": 19.39090909090909,
                "end_time": 19.55909090909091,
                "pitch": 78,
                "velocity": 64,
                "duration": 0.168181818181818,
                "tempo": 120.0
            },
            {
                "start_time": 19.55909090909091,
                "end_time": 20.229545454545452,
                "pitch": 80,
                "velocity": 80,
                "duration": 0.6704545454545432,
                "tempo": 120.0
            },
            {
                "start_time": 20.229545454545452,
                "end_time": 20.313636363636363,
                "pitch": 68,
                "velocity": 80,
                "duration": 0.08409090909091077,
                "tempo": 120.0
            },
            {
                "start_time": 20.56590909090909,
                "end_time": 20.65,
                "pitch": 80,
                "velocity": 80,
                "duration": 0.08409090909090722,
                "tempo": 120.0
            },
            {
                "start_time": 21.56590909090909,
                "end_time": 21.73181818181818,
                "pitch": 76,
                "velocity": 80,
                "duration": 0.16590909090908923,
                "tempo": 120.0
            },
            {
                "start_time": 21.73409090909091,
                "end_time": 21.902272727272727,
                "pitch": 75,
                "velocity": 51,
                "duration": 0.168181818181818,
                "tempo": 120.0
            },
            {
                "start_time": 21.902272727272727,
                "end_time": 22.068181818181817,
                "pitch": 76,
                "velocity": 64,
                "duration": 0.16590909090908923,
                "tempo": 120.0
            },
            {
                "start_time": 22.068181818181817,
                "end_time": 22.236363636363635,
                "pitch": 75,
                "velocity": 40,
                "duration": 0.168181818181818,
                "tempo": 120.0
            },
            {
                "start_time": 22.236363636363635,
                "end_time": 22.354545454545452,
                "pitch": 79,
                "velocity": 80,
                "duration": 0.11818181818181728,
                "tempo": 120.0
            },
            {
                "start_time": 17.331818181818182,
                "end_time": 22.354545454545452,
                "pitch": 91,
                "velocity": 64,
                "duration": 5.02272727272727,
                "tempo": 120.0
            },
            {
                "start_time": 22.354545454545452,
                "end_time": 22.404545454545453,
                "pitch": 79,
                "velocity": 80,
                "duration": 0.05000000000000071,
                "tempo": 120.0
            },
            {
                "start_time": 22.404545454545453,
                "end_time": 22.57272727272727,
                "pitch": 78,
                "velocity": 51,
                "duration": 0.168181818181818,
                "tempo": 120.0
            },
            {
                "start_time": 22.57272727272727,
                "end_time": 22.688636363636363,
                "pitch": 79,
                "velocity": 64,
                "duration": 0.11590909090909207,
                "tempo": 120.0
            },
            {
                "start_time": 22.354545454545452,
                "end_time": 22.688636363636363,
                "pitch": 91,
                "velocity": 80,
                "duration": 0.33409090909091077,
                "tempo": 120.0
            },
            {
                "start_time": 22.688636363636363,
                "end_time": 22.74090909090909,
                "pitch": 79,
                "velocity": 64,
                "duration": 0.052272727272725916,
                "tempo": 120.0
            },
            {
                "start_time": 22.74090909090909,
                "end_time": 22.909090909090907,
                "pitch": 80,
                "velocity": 64,
                "duration": 0.168181818181818,
                "tempo": 120.0
            },
            {
                "start_time": 22.909090909090907,
                "end_time": 22.993181818181817,
                "pitch": 68,
                "velocity": 64,
                "duration": 0.08409090909091077,
                "tempo": 120.0
            },
            {
                "start_time": 23.581818181818182,
                "end_time": 23.663636363636364,
                "pitch": 80,
                "velocity": 64,
                "duration": 0.08181818181818201,
                "tempo": 120.0
            },
            {
                "start_time": 24.245454545454546,
                "end_time": 24.329545454545453,
                "pitch": 68,
                "velocity": 64,
                "duration": 0.08409090909090722,
                "tempo": 120.0
            },
            {
                "start_time": 24.924999999999997,
                "end_time": 25.00681818181818,
                "pitch": 80,
                "velocity": 64,
                "duration": 0.08181818181818201,
                "tempo": 120.0
            },
            {
                "start_time": 25.58863636363636,
                "end_time": 25.670454545454543,
                "pitch": 68,
                "velocity": 64,
                "duration": 0.08181818181818201,
                "tempo": 120.0
            },
            {
                "start_time": 26.252272727272725,
                "end_time": 26.336363636363636,
                "pitch": 80,
                "velocity": 64,
                "duration": 0.08409090909091077,
                "tempo": 120.0
            },
            {
                "start_time": 42.986363636363635,
                "end_time": 43.152272727272724,
                "pitch": 76,
                "velocity": 80,
                "duration": 0.16590909090908923,
                "tempo": 120.0
            },
            {
                "start_time": 43.152272727272724,
                "end_time": 43.320454545454545,
                "pitch": 75,
                "velocity": 51,
                "duration": 0.16818181818182154,
                "tempo": 120.0
            },
            {
                "start_time": 43.320454545454545,
                "end_time": 43.48863636363636,
                "pitch": 76,
                "velocity": 64,
                "duration": 0.16818181818181444,
                "tempo": 120.0
            },
            {
                "start_time": 43.48863636363636,
                "end_time": 43.65681818181818,
                "pitch": 75,
                "velocity": 40,
                "duration": 0.16818181818182154,
                "tempo": 120.0
            },
            {
                "start_time": 43.65681818181818,
                "end_time": 43.77045454545454,
                "pitch": 79,
                "velocity": 80,
                "duration": 0.11363636363635976,
                "tempo": 120.0
            },
            {
                "start_time": 22.688636363636363,
                "end_time": 43.77272727272727,
                "pitch": 91,
                "velocity": 64,
                "duration": 21.08409090909091,
                "tempo": 120.0
            },
            {
                "start_time": 43.77045454545454,
                "end_time": 43.77272727272727,
                "pitch": 91,
                "velocity": 80,
                "duration": 0.002272727272732311,
                "tempo": 120.0
            },
            {
                "start_time": 43.77272727272727,
                "end_time": 43.820454545454545,
                "pitch": 79,
                "velocity": 80,
                "duration": 0.04772727272727195,
                "tempo": 120.0
            },
            {
                "start_time": 43.82272727272727,
                "end_time": 43.98863636363636,
                "pitch": 78,
                "velocity": 51,
                "duration": 0.16590909090908923,
                "tempo": 120.0
            },
            {
                "start_time": 43.98863636363636,
                "end_time": 44.10454545454545,
                "pitch": 79,
                "velocity": 64,
                "duration": 0.11590909090909207,
                "tempo": 120.0
            },
            {
                "start_time": 44.10454545454545,
                "end_time": 44.15454545454545,
                "pitch": 79,
                "velocity": 64,
                "duration": 0.04999999999999716,
                "tempo": 120.0
            },
            {
                "start_time": 44.15454545454545,
                "end_time": 44.320454545454545,
                "pitch": 80,
                "velocity": 64,
                "duration": 0.16590909090909634,
                "tempo": 120.0
            },
            {
                "start_time": 44.65681818181818,
                "end_time": 44.99090909090909,
                "pitch": 81,
                "velocity": 64,
                "duration": 0.33409090909091077,
                "tempo": 120.0
            },
            {
                "start_time": 45.32727272727273,
                "end_time": 45.663636363636364,
                "pitch": 81,
                "velocity": 64,
                "duration": 0.336363636363636,
                "tempo": 120.0
            },
            {
                "start_time": 45.663636363636364,
                "end_time": 45.83181818181818,
                "pitch": 76,
                "velocity": 80,
                "duration": 0.16818181818181444,
                "tempo": 120.0
            },
            {
                "start_time": 45.83181818181818,
                "end_time": 46.0,
                "pitch": 75,
                "velocity": 51,
                "duration": 0.16818181818182154,
                "tempo": 120.0
            },
            {
                "start_time": 46.0,
                "end_time": 46.16590909090909,
                "pitch": 76,
                "velocity": 64,
                "duration": 0.16590909090908923,
                "tempo": 120.0
            },
            {
                "start_time": 46.16590909090909,
                "end_time": 46.334090909090904,
                "pitch": 78,
                "velocity": 64,
                "duration": 0.16818181818181444,
                "tempo": 120.0
            },
            {
                "start_time": 46.336363636363636,
                "end_time": 47.0,
                "pitch": 80,
                "velocity": 80,
                "duration": 0.663636363636364,
                "tempo": 120.0
            },
            {
                "start_time": 47.0,
                "end_time": 47.08181818181818,
                "pitch": 68,
                "velocity": 80,
                "duration": 0.08181818181817846,
                "tempo": 120.0
            },
            {
                "start_time": 47.336363636363636,
                "end_time": 47.418181818181814,
                "pitch": 80,
                "velocity": 80,
                "duration": 0.08181818181817846,
                "tempo": 120.0
            },
            {
                "start_time": 48.34318181818182,
                "end_time": 48.50909090909091,
                "pitch": 76,
                "velocity": 80,
                "duration": 0.16590909090908923,
                "tempo": 120.0
            },
            {
                "start_time": 48.50909090909091,
                "end_time": 48.67727272727272,
                "pitch": 75,
                "velocity": 51,
                "duration": 0.16818181818181444,
                "tempo": 120.0
            },
            {
                "start_time": 48.679545454545455,
                "end_time": 48.845454545454544,
                "pitch": 76,
                "velocity": 64,
                "duration": 0.16590909090908923,
                "tempo": 120.0
            },
            {
                "start_time": 48.845454545454544,
                "end_time": 49.01363636363636,
                "pitch": 75,
                "velocity": 40,
                "duration": 0.16818181818181444,
                "tempo": 120.0
            },
            {
                "start_time": 49.01363636363636,
                "end_time": 49.12954545454545,
                "pitch": 79,
                "velocity": 80,
                "duration": 0.11590909090909207,
                "tempo": 120.0
            },
            {
                "start_time": 44.10454545454545,
                "end_time": 49.12954545454545,
                "pitch": 91,
                "velocity": 64,
                "duration": 5.024999999999999,
                "tempo": 120.0
            },
            {
                "start_time": 49.12954545454545,
                "end_time": 49.179545454545455,
                "pitch": 79,
                "velocity": 80,
                "duration": 0.05000000000000426,
                "tempo": 120.0
            },
            {
                "start_time": 49.179545454545455,
                "end_time": 49.345454545454544,
                "pitch": 78,
                "velocity": 51,
                "duration": 0.16590909090908923,
                "tempo": 120.0
            },
            {
                "start_time": 49.34772727272727,
                "end_time": 49.461363636363636,
                "pitch": 79,
                "velocity": 64,
                "duration": 0.11363636363636687,
                "tempo": 120.0
            },
            {
                "start_time": 49.12954545454545,
                "end_time": 49.461363636363636,
                "pitch": 91,
                "velocity": 80,
                "duration": 0.33181818181818556,
                "tempo": 120.0
            },
            {
                "start_time": 49.461363636363636,
                "end_time": 49.51136363636363,
                "pitch": 79,
                "velocity": 64,
                "duration": 0.04999999999999716,
                "tempo": 120.0
            },
            {
                "start_time": 49.51136363636363,
                "end_time": 49.679545454545455,
                "pitch": 80,
                "velocity": 64,
                "duration": 0.16818181818182154,
                "tempo": 120.0
            },
            {
                "start_time": 49.679545454545455,
                "end_time": 49.76136363636363,
                "pitch": 68,
                "velocity": 64,
                "duration": 0.08181818181817846,
                "tempo": 120.0
            },
            {
                "start_time": 50.349999999999994,
                "end_time": 50.434090909090905,
                "pitch": 80,
                "velocity": 64,
                "duration": 0.08409090909091077,
                "tempo": 120.0
            },
            {
                "start_time": 51.02272727272727,
                "end_time": 51.10454545454545,
                "pitch": 68,
                "velocity": 64,
                "duration": 0.08181818181817846,
                "tempo": 120.0
            },
            {
                "start_time": 51.69318181818181,
                "end_time": 51.775,
                "pitch": 80,
                "velocity": 64,
                "duration": 0.08181818181818556,
                "tempo": 120.0
            },
            {
                "start_time": 52.35681818181818,
                "end_time": 52.44090909090909,
                "pitch": 68,
                "velocity": 64,
                "duration": 0.08409090909091077,
                "tempo": 120.0
            },
            {
                "start_time": 53.02954545454545,
                "end_time": 53.111363636363635,
                "pitch": 80,
                "velocity": 64,
                "duration": 0.08181818181818556,
                "tempo": 120.0
            },
            {
                "start_time": 69.77499999999999,
                "end_time": 69.94090909090909,
                "pitch": 76,
                "velocity": 80,
                "duration": 0.16590909090909634,
                "tempo": 120.0
            },
            {
                "start_time": 69.94090909090909,
                "end_time": 70.10909090909091,
                "pitch": 75,
                "velocity": 51,
                "duration": 0.16818181818182154,
                "tempo": 120.0
            },
            {
                "start_time": 70.10909090909091,
                "end_time": 70.27727272727273,
                "pitch": 76,
                "velocity": 64,
                "duration": 0.16818181818182154,
                "tempo": 120.0
            },
            {
                "start_time": 70.27727272727273,
                "end_time": 70.44545454545454,
                "pitch": 75,
                "velocity": 40,
                "duration": 0.16818181818180733,
                "tempo": 120.0
            },
            {
                "start_time": 70.44545454545454,
                "end_time": 70.56136363636364,
                "pitch": 79,
                "velocity": 80,
                "duration": 0.11590909090909918,
                "tempo": 120.0
            },
            {
                "start_time": 49.461363636363636,
                "end_time": 70.56136363636364,
                "pitch": 91,
                "velocity": 64,
                "duration": 21.1,
                "tempo": 120.0
            },
            {
                "start_time": 70.56136363636364,
                "end_time": 70.61363636363636,
                "pitch": 79,
                "velocity": 80,
                "duration": 0.052272727272722364,
                "tempo": 120.0
            },
            {
                "start_time": 70.61363636363636,
                "end_time": 70.78181818181818,
                "pitch": 78,
                "velocity": 51,
                "duration": 0.16818181818182154,
                "tempo": 120.0
            },
            {
                "start_time": 70.78181818181818,
                "end_time": 70.89772727272727,
                "pitch": 79,
                "velocity": 64,
                "duration": 0.11590909090908497,
                "tempo": 120.0
            },
            {
                "start_time": 70.56136363636364,
                "end_time": 70.89772727272727,
                "pitch": 91,
                "velocity": 80,
                "duration": 0.33636363636362887,
                "tempo": 120.0
            },
            {
                "start_time": 70.89772727272727,
                "end_time": 70.94772727272726,
                "pitch": 79,
                "velocity": 64,
                "duration": 0.04999999999999716,
                "tempo": 120.0
            },
            {
                "start_time": 70.94772727272726,
                "end_time": 71.11818181818181,
                "pitch": 80,
                "velocity": 64,
                "duration": 0.17045454545454675,
                "tempo": 120.0
            },
            {
                "start_time": 71.45,
                "end_time": 71.78181818181818,
                "pitch": 81,
                "velocity": 64,
                "duration": 0.33181818181817846,
                "tempo": 120.0
            },
            {
                "start_time": 72.11590909090908,
                "end_time": 72.45227272727273,
                "pitch": 81,
                "velocity": 64,
                "duration": 0.3363636363636431,
                "tempo": 120.0
            },
            {
                "start_time": 72.45227272727273,
                "end_time": 72.62045454545454,
                "pitch": 76,
                "velocity": 80,
                "duration": 0.16818181818180733,
                "tempo": 120.0
            },
            {
                "start_time": 72.62045454545454,
                "end_time": 72.78863636363636,
                "pitch": 75,
                "velocity": 51,
                "duration": 0.16818181818182154,
                "tempo": 120.0
            },
            {
                "start_time": 72.78863636363636,
                "end_time": 72.95454545454545,
                "pitch": 76,
                "velocity": 64,
                "duration": 0.16590909090909634,
                "tempo": 120.0
            },
            {
                "start_time": 72.95681818181818,
                "end_time": 73.125,
                "pitch": 78,
                "velocity": 64,
                "duration": 0.16818181818182154,
                "tempo": 120.0
            },
            {
                "start_time": 73.125,
                "end_time": 73.79545454545455,
                "pitch": 80,
                "velocity": 80,
                "duration": 0.6704545454545467,
                "tempo": 120.0
            },
            {
                "start_time": 73.79772727272727,
                "end_time": 73.87727272727273,
                "pitch": 68,
                "velocity": 80,
                "duration": 0.07954545454545325,
                "tempo": 120.0
            },
            {
                "start_time": 74.12954545454545,
                "end_time": 74.2090909090909,
                "pitch": 80,
                "velocity": 80,
                "duration": 0.07954545454545325,
                "tempo": 120.0
            },
            {
                "start_time": 75.13181818181818,
                "end_time": 75.29772727272727,
                "pitch": 76,
                "velocity": 80,
                "duration": 0.16590909090909634,
                "tempo": 120.0
            },
            {
                "start_time": 75.3,
                "end_time": 75.46818181818182,
                "pitch": 75,
                "velocity": 51,
                "duration": 0.16818181818182154,
                "tempo": 120.0
            },
            {
                "start_time": 75.46818181818182,
                "end_time": 75.6340909090909,
                "pitch": 76,
                "velocity": 64,
                "duration": 0.16590909090908212,
                "tempo": 120.0
            },
            {
                "start_time": 75.6340909090909,
                "end_time": 75.80227272727272,
                "pitch": 75,
                "velocity": 40,
                "duration": 0.16818181818182154,
                "tempo": 120.0
            },
            {
                "start_time": 75.80454545454545,
                "end_time": 75.92045454545455,
                "pitch": 79,
                "velocity": 80,
                "duration": 0.11590909090909918,
                "tempo": 120.0
            },
            {
                "start_time": 70.89772727272727,
                "end_time": 75.92045454545455,
                "pitch": 91,
                "velocity": 64,
                "duration": 5.0227272727272805,
                "tempo": 120.0
            },
            {
                "start_time": 75.92045454545455,
                "end_time": 75.97045454545454,
                "pitch": 79,
                "velocity": 80,
                "duration": 0.04999999999999716,
                "tempo": 120.0
            },
            {
                "start_time": 75.97045454545454,
                "end_time": 76.13863636363637,
                "pitch": 78,
                "velocity": 51,
                "duration": 0.16818181818182154,
                "tempo": 120.0
            },
            {
                "start_time": 76.13863636363637,
                "end_time": 76.25454545454545,
                "pitch": 79,
                "velocity": 64,
                "duration": 0.11590909090908497,
                "tempo": 120.0
            },
            {
                "start_time": 75.92045454545455,
                "end_time": 76.25681818181818,
                "pitch": 91,
                "velocity": 80,
                "duration": 0.33636363636362887,
                "tempo": 120.0
            },
            {
                "start_time": 76.25454545454545,
                "end_time": 76.25681818181818,
                "pitch": 91,
                "velocity": 64,
                "duration": 0.0022727272727252057,
                "tempo": 120.0
            },
            {
                "start_time": 76.25681818181818,
                "end_time": 76.30681818181817,
                "pitch": 79,
                "velocity": 64,
                "duration": 0.04999999999999716,
                "tempo": 120.0
            },
            {
                "start_time": 76.30681818181817,
                "end_time": 76.475,
                "pitch": 80,
                "velocity": 64,
                "duration": 0.16818181818182154,
                "tempo": 120.0
            },
            {
                "start_time": 76.475,
                "end_time": 76.55681818181817,
                "pitch": 68,
                "velocity": 64,
                "duration": 0.08181818181817846,
                "tempo": 120.0
            },
            {
                "start_time": 77.14090909090909,
                "end_time": 77.22272727272727,
                "pitch": 80,
                "velocity": 64,
                "duration": 0.08181818181817846,
                "tempo": 120.0
            },
            {
                "start_time": 77.81136363636364,
                "end_time": 77.89318181818182,
                "pitch": 68,
                "velocity": 64,
                "duration": 0.08181818181817846,
                "tempo": 120.0
            },
            {
                "start_time": 78.48181818181818,
                "end_time": 78.56590909090909,
                "pitch": 80,
                "velocity": 64,
                "duration": 0.08409090909090366,
                "tempo": 120.0
            },
            {
                "start_time": 79.15454545454546,
                "end_time": 79.23636363636363,
                "pitch": 68,
                "velocity": 64,
                "duration": 0.08181818181817846,
                "tempo": 120.0
            },
            {
                "start_time": 79.81818181818181,
                "end_time": 79.89999999999999,
                "pitch": 80,
                "velocity": 64,
                "duration": 0.08181818181817846,
                "tempo": 120.0
            },
            {
                "start_time": 96.56590909090909,
                "end_time": 96.73181818181818,
                "pitch": 76,
                "velocity": 80,
                "duration": 0.16590909090909634,
                "tempo": 120.0
            },
            {
                "start_time": 96.73409090909091,
                "end_time": 96.90227272727272,
                "pitch": 75,
                "velocity": 51,
                "duration": 0.16818181818180733,
                "tempo": 120.0
            },
            {
                "start_time": 96.90454545454546,
                "end_time": 97.07272727272726,
                "pitch": 76,
                "velocity": 64,
                "duration": 0.16818181818180733,
                "tempo": 120.0
            },
            {
                "start_time": 97.07272727272726,
                "end_time": 97.24318181818181,
                "pitch": 75,
                "velocity": 40,
                "duration": 0.17045454545454675,
                "tempo": 120.0
            },
            {
                "start_time": 97.24318181818181,
                "end_time": 97.35909090909091,
                "pitch": 79,
                "velocity": 80,
                "duration": 0.11590909090909918,
                "tempo": 120.0
            },
            {
                "start_time": 97.35909090909091,
                "end_time": 97.4090909090909,
                "pitch": 79,
                "velocity": 80,
                "duration": 0.04999999999999716,
                "tempo": 120.0
            },
            {
                "start_time": 97.4090909090909,
                "end_time": 97.57499999999999,
                "pitch": 78,
                "velocity": 51,
                "duration": 0.16590909090908212,
                "tempo": 120.0
            },
            {
                "start_time": 97.57499999999999,
                "end_time": 97.69090909090909,
                "pitch": 79,
                "velocity": 64,
                "duration": 0.11590909090909918,
                "tempo": 120.0
            },
            {
                "start_time": 97.35909090909091,
                "end_time": 97.69090909090909,
                "pitch": 91,
                "velocity": 80,
                "duration": 0.33181818181817846,
                "tempo": 120.0
            },
            {
                "start_time": 97.69090909090909,
                "end_time": 97.74090909090908,
                "pitch": 79,
                "velocity": 64,
                "duration": 0.04999999999999716,
                "tempo": 120.0
            },
            {
                "start_time": 97.74090909090908,
                "end_time": 97.90681818181818,
                "pitch": 80,
                "velocity": 64,
                "duration": 0.16590909090909634,
                "tempo": 120.0
            },
            {
                "start_time": 98.23863636363636,
                "end_time": 98.57045454545454,
                "pitch": 81,
                "velocity": 64,
                "duration": 0.33181818181817846,
                "tempo": 120.0
            },
            {
                "start_time": 98.90681818181818,
                "end_time": 99.24318181818181,
                "pitch": 81,
                "velocity": 64,
                "duration": 0.33636363636362887,
                "tempo": 120.0
            },
            {
                "start_time": 99.24318181818181,
                "end_time": 99.4090909090909,
                "pitch": 76,
                "velocity": 80,
                "duration": 0.16590909090909634,
                "tempo": 120.0
            },
            {
                "start_time": 99.41136363636363,
                "end_time": 99.57954545454545,
                "pitch": 75,
                "velocity": 51,
                "duration": 0.16818181818182154,
                "tempo": 120.0
            },
            {
                "start_time": 99.57954545454545,
                "end_time": 99.74545454545454,
                "pitch": 76,
                "velocity": 64,
                "duration": 0.16590909090908212,
                "tempo": 120.0
            },
            {
                "start_time": 99.74545454545454,
                "end_time": 99.91363636363636,
                "pitch": 78,
                "velocity": 64,
                "duration": 0.16818181818182154,
                "tempo": 120.0
            },
            {
                "start_time": 99.91590909090908,
                "end_time": 100.58636363636363,
                "pitch": 80,
                "velocity": 80,
                "duration": 0.6704545454545467,
                "tempo": 120.0
            },
            {
                "start_time": 100.58636363636363,
                "end_time": 100.66818181818181,
                "pitch": 68,
                "velocity": 80,
                "duration": 0.08181818181817846,
                "tempo": 120.0
            },
            {
                "start_time": 100.91818181818181,
                "end_time": 101.0,
                "pitch": 80,
                "velocity": 80,
                "duration": 0.08181818181819267,
                "tempo": 120.0
            },
            {
                "start_time": 101.92272727272727,
                "end_time": 102.08863636363635,
                "pitch": 76,
                "velocity": 80,
                "duration": 0.16590909090908212,
                "tempo": 120.0
            },
            {
                "start_time": 102.08863636363635,
                "end_time": 102.25681818181818,
                "pitch": 75,
                "velocity": 51,
                "duration": 0.16818181818182154,
                "tempo": 120.0
            },
            {
                "start_time": 102.2590909090909,
                "end_time": 102.425,
                "pitch": 76,
                "velocity": 64,
                "duration": 0.16590909090909634,
                "tempo": 120.0
            },
            {
                "start_time": 102.425,
                "end_time": 102.59318181818182,
                "pitch": 75,
                "velocity": 40,
                "duration": 0.16818181818182154,
                "tempo": 120.0
            },
            {
                "start_time": 102.59318181818182,
                "end_time": 102.7090909090909,
                "pitch": 79,
                "velocity": 80,
                "duration": 0.11590909090908497,
                "tempo": 120.0
            },
            {
                "start_time": 97.69090909090909,
                "end_time": 102.7090909090909,
                "pitch": 91,
                "velocity": 64,
                "duration": 5.018181818181816,
                "tempo": 120.0
            },
            {
                "start_time": 102.7090909090909,
                "end_time": 102.76136363636363,
                "pitch": 79,
                "velocity": 80,
                "duration": 0.052272727272722364,
                "tempo": 120.0
            },
            {
                "start_time": 102.76136363636363,
                "end_time": 102.92954545454545,
                "pitch": 78,
                "velocity": 51,
                "duration": 0.16818181818182154,
                "tempo": 120.0
            },
            {
                "start_time": 102.92954545454545,
                "end_time": 103.04545454545455,
                "pitch": 79,
                "velocity": 64,
                "duration": 0.11590909090909918,
                "tempo": 120.0
            },
            {
                "start_time": 102.7090909090909,
                "end_time": 103.04545454545455,
                "pitch": 91,
                "velocity": 80,
                "duration": 0.3363636363636431,
                "tempo": 120.0
            },
            {
                "start_time": 103.04545454545455,
                "end_time": 103.09545454545454,
                "pitch": 79,
                "velocity": 64,
                "duration": 0.04999999999999716,
                "tempo": 120.0
            },
            {
                "start_time": 103.09545454545454,
                "end_time": 103.26590909090909,
                "pitch": 80,
                "velocity": 64,
                "duration": 0.17045454545454675,
                "tempo": 120.0
            },
            {
                "start_time": 103.26590909090909,
                "end_time": 103.34772727272727,
                "pitch": 68,
                "velocity": 64,
                "duration": 0.08181818181817846,
                "tempo": 120.0
            },
            {
                "start_time": 103.92954545454545,
                "end_time": 104.01136363636363,
                "pitch": 80,
                "velocity": 64,
                "duration": 0.08181818181817846,
                "tempo": 120.0
            },
            {
                "start_time": 104.60227272727272,
                "end_time": 104.6840909090909,
                "pitch": 68,
                "velocity": 64,
                "duration": 0.08181818181817846,
                "tempo": 120.0
            },
            {
                "start_time": 105.27272727272727,
                "end_time": 105.35454545454544,
                "pitch": 80,
                "velocity": 64,
                "duration": 0.08181818181817846,
                "tempo": 120.0
            },
            {
                "start_time": 105.94545454545454,
                "end_time": 106.02499999999999,
                "pitch": 68,
                "velocity": 64,
                "duration": 0.07954545454545325,
                "tempo": 120.0
            },
            {
                "start_time": 106.60909090909091,
                "end_time": 106.69090909090909,
                "pitch": 80,
                "velocity": 64,
                "duration": 0.08181818181817846,
                "tempo": 120.0
            }
        ],
        "Clarinet": [
            {
                "start_time": 0.5022727272727272,
                "end_time": 0.6045454545454545,
                "pitch": 73,
                "velocity": 40,
                "duration": 0.10227272727272729,
                "tempo": 120.0
            },
            {
                "start_time": 1.1704545454545454,
                "end_time": 1.2204545454545455,
                "pitch": 61,
                "velocity": 40,
                "duration": 0.050000000000000044,
                "tempo": 120.0
            },
            {
                "start_time": 1.2204545454545455,
                "end_time": 1.2704545454545455,
                "pitch": 62,
                "velocity": 40,
                "duration": 0.050000000000000044,
                "tempo": 120.0
            },
            {
                "start_time": 1.5022727272727272,
                "end_time": 1.6045454545454545,
                "pitch": 60,
                "velocity": 40,
                "duration": 0.10227272727272729,
                "tempo": 120.0
            },
            {
                "start_time": 1.8386363636363636,
                "end_time": 1.9386363636363635,
                "pitch": 61,
                "velocity": 40,
                "duration": 0.09999999999999987,
                "tempo": 120.0
            },
            {
                "start_time": 3.1818181818181817,
                "end_time": 3.2818181818181817,
                "pitch": 73,
                "velocity": 40,
                "duration": 0.10000000000000009,
                "tempo": 120.0
            },
            {
                "start_time": 3.8499999999999996,
                "end_time": 3.9,
                "pitch": 61,
                "velocity": 40,
                "duration": 0.050000000000000266,
                "tempo": 120.0
            },
            {
                "start_time": 3.9,
                "end_time": 3.9477272727272728,
                "pitch": 62,
                "velocity": 40,
                "duration": 0.04772727272727284,
                "tempo": 120.0
            },
            {
                "start_time": 4.181818181818182,
                "end_time": 4.281818181818181,
                "pitch": 60,
                "velocity": 40,
                "duration": 0.09999999999999964,
                "tempo": 120.0
            },
            {
                "start_time": 4.518181818181818,
                "end_time": 4.618181818181818,
                "pitch": 61,
                "velocity": 40,
                "duration": 0.10000000000000053,
                "tempo": 120.0
            }
        ],
        "Flute": [
            {
                "start_time": 5.156818181818181,
                "end_time": 5.493181818181818,
                "pitch": 74,
                "velocity": 80,
                "duration": 0.33636363636363686,
                "tempo": 120.0
            },
            {
                "start_time": 5.493181818181818,
                "end_time": 5.559090909090909,
                "pitch": 76,
                "velocity": 80,
                "duration": 0.06590909090909047,
                "tempo": 120.0
            },
            {
                "start_time": 5.559090909090909,
                "end_time": 5.625,
                "pitch": 79,
                "velocity": 80,
                "duration": 0.06590909090909136,
                "tempo": 120.0
            },
            {
                "start_time": 5.625,
                "end_time": 5.659090909090909,
                "pitch": 83,
                "velocity": 80,
                "duration": 0.03409090909090917,
                "tempo": 120.0
            },
            {
                "start_time": 5.659090909090909,
                "end_time": 7.170454545454545,
                "pitch": 85,
                "velocity": 80,
                "duration": 1.5113636363636358,
                "tempo": 120.0
            },
            {
                "start_time": 7.170454545454545,
                "end_time": 7.338636363636363,
                "pitch": 83,
                "velocity": 80,
                "duration": 0.168181818181818,
                "tempo": 120.0
            },
            {
                "start_time": 7.338636363636363,
                "end_time": 7.506818181818182,
                "pitch": 81,
                "velocity": 80,
                "duration": 0.16818181818181888,
                "tempo": 120.0
            },
            {
                "start_time": 7.506818181818182,
                "end_time": 7.840909090909091,
                "pitch": 79,
                "velocity": 80,
                "duration": 0.334090909090909,
                "tempo": 120.0
            },
            {
                "start_time": 7.843181818181818,
                "end_time": 8.009090909090908,
                "pitch": 78,
                "velocity": 80,
                "duration": 0.16590909090909012,
                "tempo": 120.0
            },
            {
                "start_time": 8.011363636363637,
                "end_time": 8.179545454545455,
                "pitch": 79,
                "velocity": 80,
                "duration": 0.168181818181818,
                "tempo": 120.0
            },
            {
                "start_time": 8.179545454545455,
                "end_time": 8.227272727272727,
                "pitch": 81,
                "velocity": 80,
                "duration": 0.04772727272727195,
                "tempo": 120.0
            },
            {
                "start_time": 8.227272727272727,
                "end_time": 8.279545454545454,
                "pitch": 83,
                "velocity": 80,
                "duration": 0.05227272727272769,
                "tempo": 120.0
            },
            {
                "start_time": 8.279545454545454,
                "end_time": 9.513636363636364,
                "pitch": 81,
                "velocity": 80,
                "duration": 1.2340909090909093,
                "tempo": 120.0
            },
            {
                "start_time": 10.518181818181818,
                "end_time": 10.85,
                "pitch": 74,
                "velocity": 80,
                "duration": 0.331818181818182,
                "tempo": 120.0
            },
            {
                "start_time": 10.85,
                "end_time": 10.915909090909091,
                "pitch": 76,
                "velocity": 80,
                "duration": 0.06590909090909136,
                "tempo": 120.0
            },
            {
                "start_time": 10.915909090909091,
                "end_time": 10.98409090909091,
                "pitch": 79,
                "velocity": 80,
                "duration": 0.06818181818181834,
                "tempo": 120.0
            },
            {
                "start_time": 10.98409090909091,
                "end_time": 11.018181818181818,
                "pitch": 83,
                "velocity": 80,
                "duration": 0.034090909090908283,
                "tempo": 120.0
            },
            {
                "start_time": 5.659090909090909,
                "end_time": 11.018181818181818,
                "pitch": 88,
                "velocity": 80,
                "duration": 5.3590909090909085,
                "tempo": 120.0
            },
            {
                "start_time": 11.018181818181818,
                "end_time": 12.529545454545454,
                "pitch": 85,
                "velocity": 80,
                "duration": 1.5113636363636367,
                "tempo": 120.0
            },
            {
                "start_time": 12.529545454545454,
                "end_time": 12.695454545454545,
                "pitch": 83,
                "velocity": 80,
                "duration": 0.165909090909091,
                "tempo": 120.0
            },
            {
                "start_time": 12.695454545454545,
                "end_time": 12.863636363636363,
                "pitch": 81,
                "velocity": 80,
                "duration": 0.168181818181818,
                "tempo": 120.0
            },
            {
                "start_time": 12.863636363636363,
                "end_time": 13.2,
                "pitch": 79,
                "velocity": 80,
                "duration": 0.336363636363636,
                "tempo": 120.0
            },
            {
                "start_time": 13.2,
                "end_time": 13.368181818181817,
                "pitch": 78,
                "velocity": 80,
                "duration": 0.168181818181818,
                "tempo": 120.0
            },
            {
                "start_time": 13.368181818181817,
                "end_time": 13.536363636363635,
                "pitch": 76,
                "velocity": 80,
                "duration": 0.168181818181818,
                "tempo": 120.0
            },
            {
                "start_time": 13.536363636363635,
                "end_time": 13.586363636363636,
                "pitch": 74,
                "velocity": 80,
                "duration": 0.05000000000000071,
                "tempo": 120.0
            },
            {
                "start_time": 13.586363636363636,
                "end_time": 13.636363636363635,
                "pitch": 76,
                "velocity": 80,
                "duration": 0.049999999999998934,
                "tempo": 120.0
            },
            {
                "start_time": 13.636363636363635,
                "end_time": 14.872727272727271,
                "pitch": 74,
                "velocity": 80,
                "duration": 1.2363636363636363,
                "tempo": 120.0
            },
            {
                "start_time": 31.95,
                "end_time": 32.28181818181818,
                "pitch": 74,
                "velocity": 80,
                "duration": 0.331818181818182,
                "tempo": 120.0
            },
            {
                "start_time": 32.28181818181818,
                "end_time": 32.35,
                "pitch": 76,
                "velocity": 80,
                "duration": 0.06818181818182012,
                "tempo": 120.0
            },
            {
                "start_time": 32.35,
                "end_time": 32.42045454545455,
                "pitch": 79,
                "velocity": 80,
                "duration": 0.07045454545454533,
                "tempo": 120.0
            },
            {
                "start_time": 32.42045454545455,
                "end_time": 32.45454545454545,
                "pitch": 83,
                "velocity": 80,
                "duration": 0.03409090909090651,
                "tempo": 120.0
            },
            {
                "start_time": 11.018181818181818,
                "end_time": 32.45454545454545,
                "pitch": 88,
                "velocity": 80,
                "duration": 21.436363636363637,
                "tempo": 120.0
            },
            {
                "start_time": 32.45454545454545,
                "end_time": 33.961363636363636,
                "pitch": 85,
                "velocity": 80,
                "duration": 1.5068181818181827,
                "tempo": 120.0
            },
            {
                "start_time": 33.961363636363636,
                "end_time": 34.12954545454545,
                "pitch": 83,
                "velocity": 80,
                "duration": 0.16818181818181444,
                "tempo": 120.0
            },
            {
                "start_time": 34.12954545454545,
                "end_time": 34.29772727272727,
                "pitch": 81,
                "velocity": 80,
                "duration": 0.16818181818182154,
                "tempo": 120.0
            },
            {
                "start_time": 34.29772727272727,
                "end_time": 34.63409090909091,
                "pitch": 79,
                "velocity": 80,
                "duration": 0.336363636363636,
                "tempo": 120.0
            },
            {
                "start_time": 34.63409090909091,
                "end_time": 34.8,
                "pitch": 78,
                "velocity": 80,
                "duration": 0.16590909090908923,
                "tempo": 120.0
            },
            {
                "start_time": 34.8,
                "end_time": 34.970454545454544,
                "pitch": 79,
                "velocity": 80,
                "duration": 0.17045454545454675,
                "tempo": 120.0
            },
            {
                "start_time": 34.970454545454544,
                "end_time": 35.018181818181816,
                "pitch": 81,
                "velocity": 80,
                "duration": 0.04772727272727195,
                "tempo": 120.0
            },
            {
                "start_time": 35.018181818181816,
                "end_time": 35.070454545454545,
                "pitch": 83,
                "velocity": 80,
                "duration": 0.05227272727272947,
                "tempo": 120.0
            },
            {
                "start_time": 35.070454545454545,
                "end_time": 36.29772727272727,
                "pitch": 81,
                "velocity": 80,
                "duration": 1.2272727272727266,
                "tempo": 120.0
            },
            {
                "start_time": 37.304545454545455,
                "end_time": 37.64090909090909,
                "pitch": 74,
                "velocity": 80,
                "duration": 0.336363636363636,
                "tempo": 120.0
            },
            {
                "start_time": 37.64090909090909,
                "end_time": 37.70909090909091,
                "pitch": 76,
                "velocity": 80,
                "duration": 0.06818181818182012,
                "tempo": 120.0
            },
            {
                "start_time": 37.70909090909091,
                "end_time": 37.775,
                "pitch": 79,
                "velocity": 80,
                "duration": 0.06590909090908781,
                "tempo": 120.0
            },
            {
                "start_time": 37.775,
                "end_time": 37.809090909090905,
                "pitch": 83,
                "velocity": 80,
                "duration": 0.03409090909090651,
                "tempo": 120.0
            },
            {
                "start_time": 32.45454545454545,
                "end_time": 37.809090909090905,
                "pitch": 88,
                "velocity": 80,
                "duration": 5.354545454545452,
                "tempo": 120.0
            },
            {
                "start_time": 37.809090909090905,
                "end_time": 39.304545454545455,
                "pitch": 85,
                "velocity": 80,
                "duration": 1.4954545454545496,
                "tempo": 120.0
            },
            {
                "start_time": 39.30681818181818,
                "end_time": 39.47272727272727,
                "pitch": 83,
                "velocity": 80,
                "duration": 0.16590909090908923,
                "tempo": 120.0
            },
            {
                "start_time": 39.47272727272727,
                "end_time": 39.64090909090909,
                "pitch": 81,
                "velocity": 80,
                "duration": 0.16818181818182154,
                "tempo": 120.0
            },
            {
                "start_time": 39.64090909090909,
                "end_time": 39.97727272727273,
                "pitch": 79,
                "velocity": 80,
                "duration": 0.336363636363636,
                "tempo": 120.0
            },
            {
                "start_time": 39.97727272727273,
                "end_time": 40.143181818181816,
                "pitch": 78,
                "velocity": 80,
                "duration": 0.16590909090908923,
                "tempo": 120.0
            },
            {
                "start_time": 40.14545454545454,
                "end_time": 40.31363636363636,
                "pitch": 76,
                "velocity": 80,
                "duration": 0.16818181818182154,
                "tempo": 120.0
            },
            {
                "start_time": 40.31363636363636,
                "end_time": 40.36363636363636,
                "pitch": 74,
                "velocity": 80,
                "duration": 0.04999999999999716,
                "tempo": 120.0
            },
            {
                "start_time": 40.36363636363636,
                "end_time": 40.413636363636364,
                "pitch": 76,
                "velocity": 80,
                "duration": 0.05000000000000426,
                "tempo": 120.0
            },
            {
                "start_time": 40.413636363636364,
                "end_time": 41.64090909090909,
                "pitch": 74,
                "velocity": 80,
                "duration": 1.2272727272727266,
                "tempo": 120.0
            },
            {
                "start_time": 58.72272727272727,
                "end_time": 59.059090909090905,
                "pitch": 74,
                "velocity": 80,
                "duration": 0.336363636363636,
                "tempo": 120.0
            },
            {
                "start_time": 59.059090909090905,
                "end_time": 59.125,
                "pitch": 76,
                "velocity": 80,
                "duration": 0.06590909090909491,
                "tempo": 120.0
            },
            {
                "start_time": 59.125,
                "end_time": 59.19090909090909,
                "pitch": 79,
                "velocity": 80,
                "duration": 0.06590909090908781,
                "tempo": 120.0
            },
            {
                "start_time": 59.19090909090909,
                "end_time": 59.224999999999994,
                "pitch": 83,
                "velocity": 80,
                "duration": 0.03409090909090651,
                "tempo": 120.0
            },
            {
                "start_time": 37.809090909090905,
                "end_time": 59.224999999999994,
                "pitch": 88,
                "velocity": 80,
                "duration": 21.41590909090909,
                "tempo": 120.0
            },
            {
                "start_time": 59.224999999999994,
                "end_time": 60.73409090909091,
                "pitch": 85,
                "velocity": 80,
                "duration": 1.509090909090915,
                "tempo": 120.0
            },
            {
                "start_time": 60.73409090909091,
                "end_time": 60.897727272727266,
                "pitch": 83,
                "velocity": 80,
                "duration": 0.16363636363635692,
                "tempo": 120.0
            },
            {
                "start_time": 60.9,
                "end_time": 61.06590909090909,
                "pitch": 81,
                "velocity": 80,
                "duration": 0.16590909090908923,
                "tempo": 120.0
            },
            {
                "start_time": 61.06590909090909,
                "end_time": 61.4,
                "pitch": 79,
                "velocity": 80,
                "duration": 0.33409090909091077,
                "tempo": 120.0
            },
            {
                "start_time": 61.4,
                "end_time": 61.56818181818181,
                "pitch": 78,
                "velocity": 80,
                "duration": 0.16818181818181444,
                "tempo": 120.0
            },
            {
                "start_time": 61.56818181818181,
                "end_time": 61.736363636363635,
                "pitch": 79,
                "velocity": 80,
                "duration": 0.16818181818182154,
                "tempo": 120.0
            },
            {
                "start_time": 61.73863636363636,
                "end_time": 61.78636363636363,
                "pitch": 81,
                "velocity": 80,
                "duration": 0.04772727272727195,
                "tempo": 120.0
            },
            {
                "start_time": 61.78636363636363,
                "end_time": 61.836363636363636,
                "pitch": 83,
                "velocity": 80,
                "duration": 0.05000000000000426,
                "tempo": 120.0
            },
            {
                "start_time": 61.836363636363636,
                "end_time": 63.08181818181818,
                "pitch": 81,
                "velocity": 80,
                "duration": 1.2454545454545425,
                "tempo": 120.0
            },
            {
                "start_time": 64.07954545454545,
                "end_time": 64.41590909090908,
                "pitch": 74,
                "velocity": 80,
                "duration": 0.33636363636362887,
                "tempo": 120.0
            },
            {
                "start_time": 64.41590909090908,
                "end_time": 64.48181818181818,
                "pitch": 76,
                "velocity": 80,
                "duration": 0.06590909090910202,
                "tempo": 120.0
            },
            {
                "start_time": 64.48181818181818,
                "end_time": 64.55,
                "pitch": 79,
                "velocity": 80,
                "duration": 0.06818181818181301,
                "tempo": 120.0
            },
            {
                "start_time": 64.55,
                "end_time": 64.5840909090909,
                "pitch": 83,
                "velocity": 80,
                "duration": 0.03409090909090651,
                "tempo": 120.0
            },
            {
                "start_time": 59.224999999999994,
                "end_time": 64.5840909090909,
                "pitch": 88,
                "velocity": 80,
                "duration": 5.359090909090909,
                "tempo": 120.0
            },
            {
                "start_time": 64.5840909090909,
                "end_time": 66.08863636363635,
                "pitch": 85,
                "velocity": 80,
                "duration": 1.5045454545454504,
                "tempo": 120.0
            },
            {
                "start_time": 66.08863636363635,
                "end_time": 66.25454545454545,
                "pitch": 83,
                "velocity": 80,
                "duration": 0.16590909090909634,
                "tempo": 120.0
            },
            {
                "start_time": 66.25454545454545,
                "end_time": 66.42272727272727,
                "pitch": 81,
                "velocity": 80,
                "duration": 0.16818181818182154,
                "tempo": 120.0
            },
            {
                "start_time": 66.42272727272727,
                "end_time": 66.7590909090909,
                "pitch": 79,
                "velocity": 80,
                "duration": 0.33636363636362887,
                "tempo": 120.0
            },
            {
                "start_time": 66.7590909090909,
                "end_time": 66.92727272727272,
                "pitch": 78,
                "velocity": 80,
                "duration": 0.16818181818182154,
                "tempo": 120.0
            },
            {
                "start_time": 66.92727272727272,
                "end_time": 67.09545454545454,
                "pitch": 76,
                "velocity": 80,
                "duration": 0.16818181818182154,
                "tempo": 120.0
            },
            {
                "start_time": 67.09545454545454,
                "end_time": 67.14545454545454,
                "pitch": 74,
                "velocity": 80,
                "duration": 0.04999999999999716,
                "tempo": 120.0
            },
            {
                "start_time": 67.14545454545454,
                "end_time": 67.19545454545454,
                "pitch": 76,
                "velocity": 80,
                "duration": 0.04999999999999716,
                "tempo": 120.0
            },
            {
                "start_time": 67.19545454545454,
                "end_time": 68.43863636363636,
                "pitch": 74,
                "velocity": 80,
                "duration": 1.2431818181818244,
                "tempo": 120.0
            },
            {
                "start_time": 85.51136363636363,
                "end_time": 85.84772727272727,
                "pitch": 74,
                "velocity": 80,
                "duration": 0.3363636363636431,
                "tempo": 120.0
            },
            {
                "start_time": 85.84772727272727,
                "end_time": 85.91363636363636,
                "pitch": 76,
                "velocity": 80,
                "duration": 0.06590909090908781,
                "tempo": 120.0
            },
            {
                "start_time": 85.91363636363636,
                "end_time": 85.98181818181818,
                "pitch": 79,
                "velocity": 80,
                "duration": 0.06818181818182723,
                "tempo": 120.0
            },
            {
                "start_time": 85.98181818181818,
                "end_time": 86.01590909090909,
                "pitch": 83,
                "velocity": 80,
                "duration": 0.03409090909090651,
                "tempo": 120.0
            },
            {
                "start_time": 64.5840909090909,
                "end_time": 86.01590909090909,
                "pitch": 88,
                "velocity": 80,
                "duration": 21.431818181818187,
                "tempo": 120.0
            },
            {
                "start_time": 86.01590909090909,
                "end_time": 87.52272727272727,
                "pitch": 85,
                "velocity": 80,
                "duration": 1.5068181818181756,
                "tempo": 120.0
            },
            {
                "start_time": 87.52272727272727,
                "end_time": 87.68863636363636,
                "pitch": 83,
                "velocity": 80,
                "duration": 0.16590909090909634,
                "tempo": 120.0
            },
            {
                "start_time": 87.68863636363636,
                "end_time": 87.85454545454544,
                "pitch": 81,
                "velocity": 80,
                "duration": 0.16590909090908212,
                "tempo": 120.0
            },
            {
                "start_time": 87.85454545454544,
                "end_time": 88.19090909090909,
                "pitch": 79,
                "velocity": 80,
                "duration": 0.3363636363636431,
                "tempo": 120.0
            },
            {
                "start_time": 88.19090909090909,
                "end_time": 88.35681818181818,
                "pitch": 78,
                "velocity": 80,
                "duration": 0.16590909090909634,
                "tempo": 120.0
            },
            {
                "start_time": 88.35909090909091,
                "end_time": 88.52727272727272,
                "pitch": 79,
                "velocity": 80,
                "duration": 0.16818181818180733,
                "tempo": 120.0
            },
            {
                "start_time": 88.52727272727272,
                "end_time": 88.57727272727273,
                "pitch": 81,
                "velocity": 80,
                "duration": 0.05000000000001137,
                "tempo": 120.0
            },
            {
                "start_time": 88.57727272727273,
                "end_time": 88.62727272727273,
                "pitch": 83,
                "velocity": 80,
                "duration": 0.04999999999999716,
                "tempo": 120.0
            },
            {
                "start_time": 88.62727272727273,
                "end_time": 89.87045454545454,
                "pitch": 81,
                "velocity": 80,
                "duration": 1.2431818181818102,
                "tempo": 120.0
            },
            {
                "start_time": 90.87045454545454,
                "end_time": 91.20681818181818,
                "pitch": 74,
                "velocity": 80,
                "duration": 0.3363636363636431,
                "tempo": 120.0
            },
            {
                "start_time": 91.20681818181818,
                "end_time": 91.27272727272727,
                "pitch": 76,
                "velocity": 80,
                "duration": 0.06590909090908781,
                "tempo": 120.0
            },
            {
                "start_time": 91.27272727272727,
                "end_time": 91.3409090909091,
                "pitch": 79,
                "velocity": 80,
                "duration": 0.06818181818182723,
                "tempo": 120.0
            },
            {
                "start_time": 91.3409090909091,
                "end_time": 91.375,
                "pitch": 83,
                "velocity": 80,
                "duration": 0.03409090909090651,
                "tempo": 120.0
            },
            {
                "start_time": 86.01590909090909,
                "end_time": 91.375,
                "pitch": 88,
                "velocity": 80,
                "duration": 5.359090909090909,
                "tempo": 120.0
            },
            {
                "start_time": 91.375,
                "end_time": 92.88181818181818,
                "pitch": 85,
                "velocity": 80,
                "duration": 1.5068181818181756,
                "tempo": 120.0
            },
            {
                "start_time": 92.88181818181818,
                "end_time": 93.04545454545455,
                "pitch": 83,
                "velocity": 80,
                "duration": 0.16363636363637113,
                "tempo": 120.0
            },
            {
                "start_time": 93.04545454545455,
                "end_time": 93.21363636363635,
                "pitch": 81,
                "velocity": 80,
                "duration": 0.16818181818180733,
                "tempo": 120.0
            },
            {
                "start_time": 93.21363636363635,
                "end_time": 93.54772727272727,
                "pitch": 79,
                "velocity": 80,
                "duration": 0.3340909090909179,
                "tempo": 120.0
            },
            {
                "start_time": 93.55,
                "end_time": 93.71590909090908,
                "pitch": 78,
                "velocity": 80,
                "duration": 0.16590909090908212,
                "tempo": 120.0
            },
            {
                "start_time": 93.71590909090908,
                "end_time": 93.8840909090909,
                "pitch": 76,
                "velocity": 80,
                "duration": 0.16818181818182154,
                "tempo": 120.0
            },
            {
                "start_time": 93.88636363636363,
                "end_time": 93.9340909090909,
                "pitch": 74,
                "velocity": 80,
                "duration": 0.04772727272727195,
                "tempo": 120.0
            },
            {
                "start_time": 93.9340909090909,
                "end_time": 93.98636363636363,
                "pitch": 76,
                "velocity": 80,
                "duration": 0.052272727272736574,
                "tempo": 120.0
            },
            {
                "start_time": 93.98636363636363,
                "end_time": 95.22954545454544,
                "pitch": 74,
                "velocity": 80,
                "duration": 1.2431818181818102,
                "tempo": 120.0
            }
        ],
        "Violin": [
            {
                "start_time": 29.604545454545452,
                "end_time": 29.688636363636363,
                "pitch": 93,
                "velocity": 101,
                "duration": 0.08409090909091077,
                "tempo": 120.0
            },
            {
                "start_time": 29.688636363636363,
                "end_time": 29.775,
                "pitch": 93,
                "velocity": 40,
                "duration": 0.08636363636363598,
                "tempo": 120.0
            },
            {
                "start_time": 29.775,
                "end_time": 29.863636363636363,
                "pitch": 98,
                "velocity": 101,
                "duration": 0.08863636363636473,
                "tempo": 120.0
            },
            {
                "start_time": 29.863636363636363,
                "end_time": 29.95,
                "pitch": 98,
                "velocity": 40,
                "duration": 0.08636363636363598,
                "tempo": 120.0
            },
            {
                "start_time": 29.95,
                "end_time": 30.12272727272727,
                "pitch": 98,
                "velocity": 101,
                "duration": 0.17272727272727195,
                "tempo": 120.0
            },
            {
                "start_time": 30.12272727272727,
                "end_time": 30.297727272727272,
                "pitch": 98,
                "velocity": 40,
                "duration": 0.1750000000000007,
                "tempo": 120.0
            },
            {
                "start_time": 30.297727272727272,
                "end_time": 30.377272727272725,
                "pitch": 93,
                "velocity": 101,
                "duration": 0.07954545454545325,
                "tempo": 120.0
            },
            {
                "start_time": 30.379545454545454,
                "end_time": 30.459090909090907,
                "pitch": 93,
                "velocity": 40,
                "duration": 0.07954545454545325,
                "tempo": 120.0
            },
            {
                "start_time": 30.459090909090907,
                "end_time": 30.54090909090909,
                "pitch": 98,
                "velocity": 101,
                "duration": 0.08181818181818201,
                "tempo": 120.0
            },
            {
                "start_time": 30.54090909090909,
                "end_time": 30.62272727272727,
                "pitch": 98,
                "velocity": 40,
                "duration": 0.08181818181818201,
                "tempo": 120.0
            },
            {
                "start_time": 30.62272727272727,
                "end_time": 30.784090909090907,
                "pitch": 98,
                "velocity": 101,
                "duration": 0.16136363636363527,
                "tempo": 120.0
            },
            {
                "start_time": 30.784090909090907,
                "end_time": 30.94772727272727,
                "pitch": 98,
                "velocity": 40,
                "duration": 0.16363636363636402,
                "tempo": 120.0
            },
            {
                "start_time": 32.28409090909091,
                "end_time": 32.36818181818182,
                "pitch": 93,
                "velocity": 101,
                "duration": 0.08409090909091077,
                "tempo": 120.0
            },
            {
                "start_time": 32.36818181818182,
                "end_time": 32.45454545454545,
                "pitch": 93,
                "velocity": 40,
                "duration": 0.08636363636363598,
                "tempo": 120.0
            },
            {
                "start_time": 32.45681818181818,
                "end_time": 32.54090909090909,
                "pitch": 98,
                "velocity": 101,
                "duration": 0.08409090909091077,
                "tempo": 120.0
            },
            {
                "start_time": 32.543181818181814,
                "end_time": 32.62954545454545,
                "pitch": 98,
                "velocity": 40,
                "duration": 0.08636363636363598,
                "tempo": 120.0
            },
            {
                "start_time": 32.62954545454545,
                "end_time": 32.80227272727272,
                "pitch": 98,
                "velocity": 101,
                "duration": 0.17272727272727195,
                "tempo": 120.0
            },
            {
                "start_time": 32.80227272727272,
                "end_time": 32.97727272727273,
                "pitch": 98,
                "velocity": 40,
                "duration": 0.17500000000000426,
                "tempo": 120.0
            },
            {
                "start_time": 32.97727272727273,
                "end_time": 33.05681818181818,
                "pitch": 93,
                "velocity": 101,
                "duration": 0.07954545454545325,
                "tempo": 120.0
            },
            {
                "start_time": 33.059090909090905,
                "end_time": 33.138636363636365,
                "pitch": 93,
                "velocity": 40,
                "duration": 0.07954545454546036,
                "tempo": 120.0
            },
            {
                "start_time": 33.138636363636365,
                "end_time": 33.220454545454544,
                "pitch": 98,
                "velocity": 101,
                "duration": 0.08181818181817846,
                "tempo": 120.0
            },
            {
                "start_time": 33.220454545454544,
                "end_time": 33.30227272727272,
                "pitch": 98,
                "velocity": 40,
                "duration": 0.08181818181817846,
                "tempo": 120.0
            },
            {
                "start_time": 33.30227272727272,
                "end_time": 33.46363636363636,
                "pitch": 98,
                "velocity": 101,
                "duration": 0.16136363636363882,
                "tempo": 120.0
            },
            {
                "start_time": 33.46363636363636,
                "end_time": 33.627272727272725,
                "pitch": 98,
                "velocity": 40,
                "duration": 0.16363636363636402,
                "tempo": 120.0
            },
            {
                "start_time": 33.96363636363636,
                "end_time": 34.04545454545455,
                "pitch": 95,
                "velocity": 101,
                "duration": 0.08181818181818556,
                "tempo": 120.0
            },
            {
                "start_time": 34.04545454545455,
                "end_time": 34.12954545454545,
                "pitch": 95,
                "velocity": 40,
                "duration": 0.08409090909090366,
                "tempo": 120.0
            },
            {
                "start_time": 34.12954545454545,
                "end_time": 34.21363636363636,
                "pitch": 93,
                "velocity": 101,
                "duration": 0.08409090909091077,
                "tempo": 120.0
            },
            {
                "start_time": 34.21363636363636,
                "end_time": 34.29772727272727,
                "pitch": 93,
                "velocity": 40,
                "duration": 0.08409090909091077,
                "tempo": 120.0
            },
            {
                "start_time": 34.3,
                "end_time": 34.38181818181818,
                "pitch": 91,
                "velocity": 101,
                "duration": 0.08181818181818556,
                "tempo": 120.0
            },
            {
                "start_time": 34.38181818181818,
                "end_time": 34.465909090909086,
                "pitch": 91,
                "velocity": 40,
                "duration": 0.08409090909090366,
                "tempo": 120.0
            },
            {
                "start_time": 34.465909090909086,
                "end_time": 34.51590909090909,
                "pitch": 91,
                "velocity": 80,
                "duration": 0.05000000000000426,
                "tempo": 120.0
            },
            {
                "start_time": 34.51590909090909,
                "end_time": 34.56590909090909,
                "pitch": 93,
                "velocity": 80,
                "duration": 0.04999999999999716,
                "tempo": 120.0
            },
            {
                "start_time": 34.56590909090909,
                "end_time": 34.63409090909091,
                "pitch": 91,
                "velocity": 80,
                "duration": 0.06818181818182012,
                "tempo": 120.0
            },
            {
                "start_time": 34.63636363636363,
                "end_time": 34.71818181818182,
                "pitch": 90,
                "velocity": 101,
                "duration": 0.08181818181818556,
                "tempo": 120.0
            },
            {
                "start_time": 34.71818181818182,
                "end_time": 34.80227272727272,
                "pitch": 90,
                "velocity": 40,
                "duration": 0.08409090909090366,
                "tempo": 120.0
            },
            {
                "start_time": 34.80227272727272,
                "end_time": 34.88636363636363,
                "pitch": 91,
                "velocity": 101,
                "duration": 0.08409090909091077,
                "tempo": 120.0
            },
            {
                "start_time": 34.88636363636363,
                "end_time": 34.970454545454544,
                "pitch": 91,
                "velocity": 40,
                "duration": 0.08409090909091077,
                "tempo": 120.0
            },
            {
                "start_time": 34.97272727272727,
                "end_time": 35.054545454545455,
                "pitch": 93,
                "velocity": 101,
                "duration": 0.08181818181818556,
                "tempo": 120.0
            },
            {
                "start_time": 35.054545454545455,
                "end_time": 35.138636363636365,
                "pitch": 93,
                "velocity": 40,
                "duration": 0.08409090909091077,
                "tempo": 120.0
            },
            {
                "start_time": 35.138636363636365,
                "end_time": 35.22272727272727,
                "pitch": 98,
                "velocity": 101,
                "duration": 0.08409090909090366,
                "tempo": 120.0
            },
            {
                "start_time": 35.225,
                "end_time": 35.309090909090905,
                "pitch": 98,
                "velocity": 40,
                "duration": 0.08409090909090366,
                "tempo": 120.0
            },
            {
                "start_time": 35.309090909090905,
                "end_time": 35.47727272727273,
                "pitch": 98,
                "velocity": 101,
                "duration": 0.16818181818182154,
                "tempo": 120.0
            },
            {
                "start_time": 35.47954545454545,
                "end_time": 35.65,
                "pitch": 98,
                "velocity": 40,
                "duration": 0.17045454545454675,
                "tempo": 120.0
            },
            {
                "start_time": 35.65,
                "end_time": 35.72954545454545,
                "pitch": 93,
                "velocity": 101,
                "duration": 0.07954545454545325,
                "tempo": 120.0
            },
            {
                "start_time": 35.72954545454545,
                "end_time": 35.81136363636364,
                "pitch": 93,
                "velocity": 40,
                "duration": 0.08181818181818556,
                "tempo": 120.0
            },
            {
                "start_time": 35.81136363636364,
                "end_time": 35.89090909090909,
                "pitch": 98,
                "velocity": 101,
                "duration": 0.07954545454545325,
                "tempo": 120.0
            },
            {
                "start_time": 35.893181818181816,
                "end_time": 35.975,
                "pitch": 98,
                "velocity": 40,
                "duration": 0.08181818181818556,
                "tempo": 120.0
            },
            {
                "start_time": 35.975,
                "end_time": 36.13636363636363,
                "pitch": 98,
                "velocity": 101,
                "duration": 0.1613636363636317,
                "tempo": 120.0
            },
            {
                "start_time": 36.13636363636363,
                "end_time": 36.3,
                "pitch": 98,
                "velocity": 40,
                "duration": 0.16363636363636402,
                "tempo": 120.0
            },
            {
                "start_time": 36.3,
                "end_time": 36.465909090909086,
                "pitch": 62,
                "velocity": 101,
                "duration": 0.16590909090908923,
                "tempo": 120.0
            },
            {
                "start_time": 36.465909090909086,
                "end_time": 36.63409090909091,
                "pitch": 62,
                "velocity": 40,
                "duration": 0.16818181818182154,
                "tempo": 120.0
            },
            {
                "start_time": 36.63409090909091,
                "end_time": 36.80227272727272,
                "pitch": 62,
                "velocity": 101,
                "duration": 0.16818181818181444,
                "tempo": 120.0
            },
            {
                "start_time": 36.80227272727272,
                "end_time": 36.970454545454544,
                "pitch": 62,
                "velocity": 40,
                "duration": 0.16818181818182154,
                "tempo": 120.0
            },
            {
                "start_time": 36.970454545454544,
                "end_time": 37.070454545454545,
                "pitch": 98,
                "velocity": 40,
                "duration": 0.10000000000000142,
                "tempo": 120.0
            },
            {
                "start_time": 37.070454545454545,
                "end_time": 37.10454545454545,
                "pitch": 95,
                "velocity": 40,
                "duration": 0.03409090909090651,
                "tempo": 120.0
            },
            {
                "start_time": 37.10454545454545,
                "end_time": 37.13636363636363,
                "pitch": 96,
                "velocity": 40,
                "duration": 0.0318181818181813,
                "tempo": 120.0
            },
            {
                "start_time": 37.13636363636363,
                "end_time": 37.27045454545454,
                "pitch": 94,
                "velocity": 40,
                "duration": 0.13409090909090793,
                "tempo": 120.0
            },
            {
                "start_time": 37.27045454545454,
                "end_time": 37.40681818181818,
                "pitch": 92,
                "velocity": 40,
                "duration": 0.13636363636364024,
                "tempo": 120.0
            },
            {
                "start_time": 37.40681818181818,
                "end_time": 37.57272727272727,
                "pitch": 89,
                "velocity": 40,
                "duration": 0.16590909090908923,
                "tempo": 120.0
            },
            {
                "start_time": 37.643181818181816,
                "end_time": 37.725,
                "pitch": 93,
                "velocity": 101,
                "duration": 0.08181818181818556,
                "tempo": 120.0
            },
            {
                "start_time": 37.72727272727273,
                "end_time": 37.81136363636364,
                "pitch": 93,
                "velocity": 40,
                "duration": 0.08409090909091077,
                "tempo": 120.0
            },
            {
                "start_time": 37.81136363636364,
                "end_time": 37.89545454545454,
                "pitch": 98,
                "velocity": 101,
                "duration": 0.08409090909090366,
                "tempo": 120.0
            },
            {
                "start_time": 37.89545454545454,
                "end_time": 37.98181818181818,
                "pitch": 98,
                "velocity": 40,
                "duration": 0.08636363636363598,
                "tempo": 120.0
            },
            {
                "start_time": 37.98181818181818,
                "end_time": 38.15,
                "pitch": 98,
                "velocity": 101,
                "duration": 0.16818181818182154,
                "tempo": 120.0
            },
            {
                "start_time": 38.15,
                "end_time": 38.320454545454545,
                "pitch": 98,
                "velocity": 40,
                "duration": 0.17045454545454675,
                "tempo": 120.0
            },
            {
                "start_time": 38.320454545454545,
                "end_time": 38.402272727272724,
                "pitch": 93,
                "velocity": 101,
                "duration": 0.08181818181817846,
                "tempo": 120.0
            },
            {
                "start_time": 38.402272727272724,
                "end_time": 38.48181818181818,
                "pitch": 93,
                "velocity": 40,
                "duration": 0.07954545454545325,
                "tempo": 120.0
            },
            {
                "start_time": 38.48181818181818,
                "end_time": 38.56363636363636,
                "pitch": 98,
                "velocity": 101,
                "duration": 0.08181818181818556,
                "tempo": 120.0
            },
            {
                "start_time": 38.56363636363636,
                "end_time": 38.64545454545454,
                "pitch": 98,
                "velocity": 40,
                "duration": 0.08181818181817846,
                "tempo": 120.0
            },
            {
                "start_time": 38.64545454545454,
                "end_time": 38.80681818181818,
                "pitch": 98,
                "velocity": 101,
                "duration": 0.16136363636363882,
                "tempo": 120.0
            },
            {
                "start_time": 38.80681818181818,
                "end_time": 38.970454545454544,
                "pitch": 98,
                "velocity": 40,
                "duration": 0.16363636363636402,
                "tempo": 120.0
            },
            {
                "start_time": 39.30681818181818,
                "end_time": 39.38863636363636,
                "pitch": 95,
                "velocity": 101,
                "duration": 0.08181818181817846,
                "tempo": 120.0
            },
            {
                "start_time": 39.39090909090909,
                "end_time": 39.47272727272727,
                "pitch": 95,
                "velocity": 40,
                "duration": 0.08181818181817846,
                "tempo": 120.0
            },
            {
                "start_time": 39.475,
                "end_time": 39.55681818181818,
                "pitch": 93,
                "velocity": 101,
                "duration": 0.08181818181817846,
                "tempo": 120.0
            },
            {
                "start_time": 39.55681818181818,
                "end_time": 39.643181818181816,
                "pitch": 93,
                "velocity": 40,
                "duration": 0.08636363636363598,
                "tempo": 120.0
            },
            {
                "start_time": 39.643181818181816,
                "end_time": 39.725,
                "pitch": 91,
                "velocity": 101,
                "duration": 0.08181818181818556,
                "tempo": 120.0
            },
            {
                "start_time": 39.725,
                "end_time": 39.809090909090905,
                "pitch": 91,
                "velocity": 40,
                "duration": 0.08409090909090366,
                "tempo": 120.0
            },
            {
                "start_time": 39.809090909090905,
                "end_time": 39.85909090909091,
                "pitch": 91,
                "velocity": 80,
                "duration": 0.05000000000000426,
                "tempo": 120.0
            },
            {
                "start_time": 39.85909090909091,
                "end_time": 39.90909090909091,
                "pitch": 93,
                "velocity": 80,
                "duration": 0.04999999999999716,
                "tempo": 120.0
            },
            {
                "start_time": 39.90909090909091,
                "end_time": 39.97954545454545,
                "pitch": 91,
                "velocity": 80,
                "duration": 0.07045454545454533,
                "tempo": 120.0
            },
            {
                "start_time": 39.97954545454545,
                "end_time": 40.06136363636364,
                "pitch": 90,
                "velocity": 101,
                "duration": 0.08181818181818556,
                "tempo": 120.0
            },
            {
                "start_time": 40.06136363636364,
                "end_time": 40.14545454545454,
                "pitch": 90,
                "velocity": 40,
                "duration": 0.08409090909090366,
                "tempo": 120.0
            },
            {
                "start_time": 40.14545454545454,
                "end_time": 40.22954545454545,
                "pitch": 88,
                "velocity": 101,
                "duration": 0.08409090909091077,
                "tempo": 120.0
            },
            {
                "start_time": 40.22954545454545,
                "end_time": 40.31590909090909,
                "pitch": 88,
                "velocity": 40,
                "duration": 0.08636363636363598,
                "tempo": 120.0
            },
            {
                "start_time": 40.31590909090909,
                "end_time": 40.39772727272727,
                "pitch": 74,
                "velocity": 101,
                "duration": 0.08181818181818556,
                "tempo": 120.0
            },
            {
                "start_time": 40.39772727272727,
                "end_time": 40.48181818181818,
                "pitch": 74,
                "velocity": 40,
                "duration": 0.08409090909090366,
                "tempo": 120.0
            },
            {
                "start_time": 40.48181818181818,
                "end_time": 40.56818181818181,
                "pitch": 74,
                "velocity": 101,
                "duration": 0.08636363636363598,
                "tempo": 120.0
            },
            {
                "start_time": 40.56818181818181,
                "end_time": 40.652272727272724,
                "pitch": 74,
                "velocity": 40,
                "duration": 0.08409090909091077,
                "tempo": 120.0
            },
            {
                "start_time": 40.654545454545456,
                "end_time": 40.82272727272727,
                "pitch": 74,
                "velocity": 101,
                "duration": 0.16818181818181444,
                "tempo": 120.0
            },
            {
                "start_time": 40.82272727272727,
                "end_time": 40.99318181818182,
                "pitch": 74,
                "velocity": 40,
                "duration": 0.17045454545454675,
                "tempo": 120.0
            },
            {
                "start_time": 40.99318181818182,
                "end_time": 41.07272727272727,
                "pitch": 74,
                "velocity": 101,
                "duration": 0.07954545454545325,
                "tempo": 120.0
            },
            {
                "start_time": 41.07272727272727,
                "end_time": 41.154545454545456,
                "pitch": 74,
                "velocity": 40,
                "duration": 0.08181818181818556,
                "tempo": 120.0
            },
            {
                "start_time": 41.154545454545456,
                "end_time": 41.236363636363635,
                "pitch": 74,
                "velocity": 101,
                "duration": 0.08181818181817846,
                "tempo": 120.0
            },
            {
                "start_time": 41.236363636363635,
                "end_time": 41.31818181818181,
                "pitch": 74,
                "velocity": 40,
                "duration": 0.08181818181817846,
                "tempo": 120.0
            },
            {
                "start_time": 41.31818181818181,
                "end_time": 41.47954545454545,
                "pitch": 74,
                "velocity": 101,
                "duration": 0.16136363636363882,
                "tempo": 120.0
            },
            {
                "start_time": 41.47954545454545,
                "end_time": 41.643181818181816,
                "pitch": 74,
                "velocity": 40,
                "duration": 0.16363636363636402,
                "tempo": 120.0
            },
            {
                "start_time": 41.643181818181816,
                "end_time": 41.809090909090905,
                "pitch": 62,
                "velocity": 101,
                "duration": 0.16590909090908923,
                "tempo": 120.0
            },
            {
                "start_time": 41.809090909090905,
                "end_time": 41.97727272727273,
                "pitch": 62,
                "velocity": 40,
                "duration": 0.16818181818182154,
                "tempo": 120.0
            },
            {
                "start_time": 41.97954545454545,
                "end_time": 42.14545454545454,
                "pitch": 62,
                "velocity": 101,
                "duration": 0.16590909090908923,
                "tempo": 120.0
            },
            {
                "start_time": 42.14545454545454,
                "end_time": 42.31363636363636,
                "pitch": 62,
                "velocity": 40,
                "duration": 0.16818181818182154,
                "tempo": 120.0
            },
            {
                "start_time": 37.070454545454545,
                "end_time": 42.413636363636364,
                "pitch": 81,
                "velocity": 40,
                "duration": 5.343181818181819,
                "tempo": 120.0
            },
            {
                "start_time": 42.31363636363636,
                "end_time": 42.413636363636364,
                "pitch": 98,
                "velocity": 40,
                "duration": 0.10000000000000142,
                "tempo": 120.0
            },
            {
                "start_time": 42.413636363636364,
                "end_time": 42.44772727272727,
                "pitch": 95,
                "velocity": 40,
                "duration": 0.03409090909090651,
                "tempo": 120.0
            },
            {
                "start_time": 37.10454545454545,
                "end_time": 42.44772727272727,
                "pitch": 100,
                "velocity": 40,
                "duration": 5.343181818181819,
                "tempo": 120.0
            },
            {
                "start_time": 37.13636363636363,
                "end_time": 42.48181818181818,
                "pitch": 76,
                "velocity": 40,
                "duration": 5.345454545454544,
                "tempo": 120.0
            },
            {
                "start_time": 42.44772727272727,
                "end_time": 42.48181818181818,
                "pitch": 96,
                "velocity": 40,
                "duration": 0.03409090909090651,
                "tempo": 120.0
            },
            {
                "start_time": 42.48181818181818,
                "end_time": 42.61590909090909,
                "pitch": 94,
                "velocity": 40,
                "duration": 0.13409090909091503,
                "tempo": 120.0
            },
            {
                "start_time": 42.61590909090909,
                "end_time": 42.75,
                "pitch": 92,
                "velocity": 40,
                "duration": 0.13409090909090793,
                "tempo": 120.0
            },
            {
                "start_time": 37.40681818181818,
                "end_time": 42.75,
                "pitch": 102,
                "velocity": 40,
                "duration": 5.343181818181819,
                "tempo": 120.0
            },
            {
                "start_time": 42.75,
                "end_time": 42.918181818181814,
                "pitch": 89,
                "velocity": 40,
                "duration": 0.16818181818181444,
                "tempo": 120.0
            },
            {
                "start_time": 43.32272727272727,
                "end_time": 43.48863636363636,
                "pitch": 97,
                "velocity": 101,
                "duration": 0.16590909090908923,
                "tempo": 120.0
            },
            {
                "start_time": 43.99090909090909,
                "end_time": 44.15454545454545,
                "pitch": 97,
                "velocity": 101,
                "duration": 0.16363636363635692,
                "tempo": 120.0
            },
            {
                "start_time": 44.65909090909091,
                "end_time": 44.824999999999996,
                "pitch": 97,
                "velocity": 101,
                "duration": 0.16590909090908923,
                "tempo": 120.0
            },
            {
                "start_time": 45.32954545454545,
                "end_time": 45.49545454545454,
                "pitch": 97,
                "velocity": 101,
                "duration": 0.16590909090908923,
                "tempo": 120.0
            },
            {
                "start_time": 46.002272727272725,
                "end_time": 46.168181818181814,
                "pitch": 97,
                "velocity": 101,
                "duration": 0.16590909090908923,
                "tempo": 120.0
            },
            {
                "start_time": 46.668181818181814,
                "end_time": 46.834090909090904,
                "pitch": 97,
                "velocity": 101,
                "duration": 0.16590909090908923,
                "tempo": 120.0
            },
            {
                "start_time": 47.002272727272725,
                "end_time": 47.168181818181814,
                "pitch": 85,
                "velocity": 101,
                "duration": 0.16590909090908923,
                "tempo": 120.0
            },
            {
                "start_time": 47.33863636363636,
                "end_time": 47.502272727272725,
                "pitch": 97,
                "velocity": 101,
                "duration": 0.16363636363636402,
                "tempo": 120.0
            },
            {
                "start_time": 48.679545454545455,
                "end_time": 48.84772727272727,
                "pitch": 97,
                "velocity": 101,
                "duration": 0.16818181818181444,
                "tempo": 120.0
            },
            {
                "start_time": 49.34772727272727,
                "end_time": 49.51363636363636,
                "pitch": 97,
                "velocity": 101,
                "duration": 0.16590909090908923,
                "tempo": 120.0
            },
            {
                "start_time": 50.01590909090909,
                "end_time": 50.18181818181818,
                "pitch": 97,
                "velocity": 101,
                "duration": 0.16590909090908923,
                "tempo": 120.0
            },
            {
                "start_time": 50.68636363636364,
                "end_time": 50.85454545454545,
                "pitch": 97,
                "velocity": 101,
                "duration": 0.16818181818181444,
                "tempo": 120.0
            },
            {
                "start_time": 51.35909090909091,
                "end_time": 51.525,
                "pitch": 97,
                "velocity": 101,
                "duration": 0.16590909090908923,
                "tempo": 120.0
            },
            {
                "start_time": 52.027272727272724,
                "end_time": 52.19090909090909,
                "pitch": 97,
                "velocity": 101,
                "duration": 0.16363636363636402,
                "tempo": 120.0
            },
            {
                "start_time": 52.695454545454545,
                "end_time": 52.861363636363635,
                "pitch": 97,
                "velocity": 101,
                "duration": 0.16590909090908923,
                "tempo": 120.0
            },
            {
                "start_time": 53.365909090909085,
                "end_time": 53.53181818181818,
                "pitch": 97,
                "velocity": 101,
                "duration": 0.16590909090909634,
                "tempo": 120.0
            },
            {
                "start_time": 56.381818181818176,
                "end_time": 56.46363636363636,
                "pitch": 93,
                "velocity": 101,
                "duration": 0.08181818181818556,
                "tempo": 120.0
            },
            {
                "start_time": 56.46363636363636,
                "end_time": 56.54772727272727,
                "pitch": 93,
                "velocity": 40,
                "duration": 0.08409090909091077,
                "tempo": 120.0
            },
            {
                "start_time": 56.54772727272727,
                "end_time": 56.631818181818176,
                "pitch": 98,
                "velocity": 101,
                "duration": 0.08409090909090366,
                "tempo": 120.0
            },
            {
                "start_time": 56.631818181818176,
                "end_time": 56.715909090909086,
                "pitch": 98,
                "velocity": 40,
                "duration": 0.08409090909091077,
                "tempo": 120.0
            },
            {
                "start_time": 56.715909090909086,
                "end_time": 56.88409090909091,
                "pitch": 98,
                "velocity": 101,
                "duration": 0.16818181818182154,
                "tempo": 120.0
            },
            {
                "start_time": 56.88409090909091,
                "end_time": 57.05227272727272,
                "pitch": 98,
                "velocity": 40,
                "duration": 0.16818181818181444,
                "tempo": 120.0
            },
            {
                "start_time": 57.05227272727272,
                "end_time": 57.13409090909091,
                "pitch": 93,
                "velocity": 101,
                "duration": 0.08181818181818556,
                "tempo": 120.0
            },
            {
                "start_time": 57.13409090909091,
                "end_time": 57.215909090909086,
                "pitch": 93,
                "velocity": 40,
                "duration": 0.08181818181817846,
                "tempo": 120.0
            },
            {
                "start_time": 57.21818181818182,
                "end_time": 57.3,
                "pitch": 98,
                "velocity": 101,
                "duration": 0.08181818181817846,
                "tempo": 120.0
            },
            {
                "start_time": 57.3,
                "end_time": 57.38409090909091,
                "pitch": 98,
                "velocity": 40,
                "duration": 0.08409090909091077,
                "tempo": 120.0
            },
            {
                "start_time": 57.38409090909091,
                "end_time": 57.55,
                "pitch": 98,
                "velocity": 101,
                "duration": 0.16590909090908923,
                "tempo": 120.0
            },
            {
                "start_time": 57.55,
                "end_time": 57.715909090909086,
                "pitch": 98,
                "velocity": 40,
                "duration": 0.16590909090908923,
                "tempo": 120.0
            },
            {
                "start_time": 59.06136363636363,
                "end_time": 59.143181818181816,
                "pitch": 93,
                "velocity": 101,
                "duration": 0.08181818181818556,
                "tempo": 120.0
            },
            {
                "start_time": 59.143181818181816,
                "end_time": 59.22727272727273,
                "pitch": 93,
                "velocity": 40,
                "duration": 0.08409090909091077,
                "tempo": 120.0
            },
            {
                "start_time": 59.22727272727273,
                "end_time": 59.309090909090905,
                "pitch": 98,
                "velocity": 101,
                "duration": 0.08181818181817846,
                "tempo": 120.0
            },
            {
                "start_time": 59.31136363636363,
                "end_time": 59.39545454545454,
                "pitch": 98,
                "velocity": 40,
                "duration": 0.08409090909091077,
                "tempo": 120.0
            },
            {
                "start_time": 59.39545454545454,
                "end_time": 59.56136363636363,
                "pitch": 98,
                "velocity": 101,
                "duration": 0.16590909090908923,
                "tempo": 120.0
            },
            {
                "start_time": 59.56363636363636,
                "end_time": 59.72954545454545,
                "pitch": 98,
                "velocity": 40,
                "duration": 0.16590909090908923,
                "tempo": 120.0
            },
            {
                "start_time": 59.73181818181818,
                "end_time": 59.81363636363636,
                "pitch": 93,
                "velocity": 101,
                "duration": 0.08181818181818556,
                "tempo": 120.0
            },
            {
                "start_time": 59.81363636363636,
                "end_time": 59.897727272727266,
                "pitch": 93,
                "velocity": 40,
                "duration": 0.08409090909090366,
                "tempo": 120.0
            },
            {
                "start_time": 59.897727272727266,
                "end_time": 59.98181818181818,
                "pitch": 98,
                "velocity": 101,
                "duration": 0.08409090909091077,
                "tempo": 120.0
            },
            {
                "start_time": 59.98181818181818,
                "end_time": 60.06590909090909,
                "pitch": 98,
                "velocity": 40,
                "duration": 0.08409090909091077,
                "tempo": 120.0
            },
            {
                "start_time": 60.06590909090909,
                "end_time": 60.23409090909091,
                "pitch": 98,
                "velocity": 101,
                "duration": 0.16818181818182154,
                "tempo": 120.0
            },
            {
                "start_time": 60.23409090909091,
                "end_time": 60.402272727272724,
                "pitch": 98,
                "velocity": 40,
                "duration": 0.16818181818181444,
                "tempo": 120.0
            },
            {
                "start_time": 60.736363636363635,
                "end_time": 60.81590909090909,
                "pitch": 95,
                "velocity": 101,
                "duration": 0.07954545454545325,
                "tempo": 120.0
            },
            {
                "start_time": 60.81590909090909,
                "end_time": 60.9,
                "pitch": 95,
                "velocity": 40,
                "duration": 0.08409090909091077,
                "tempo": 120.0
            },
            {
                "start_time": 60.9,
                "end_time": 60.98181818181818,
                "pitch": 93,
                "velocity": 101,
                "duration": 0.08181818181817846,
                "tempo": 120.0
            },
            {
                "start_time": 60.98181818181818,
                "end_time": 61.06590909090909,
                "pitch": 93,
                "velocity": 40,
                "duration": 0.08409090909091077,
                "tempo": 120.0
            },
            {
                "start_time": 61.06818181818181,
                "end_time": 61.15,
                "pitch": 91,
                "velocity": 101,
                "duration": 0.08181818181818556,
                "tempo": 120.0
            },
            {
                "start_time": 61.15,
                "end_time": 61.23409090909091,
                "pitch": 91,
                "velocity": 40,
                "duration": 0.08409090909091077,
                "tempo": 120.0
            },
            {
                "start_time": 61.23409090909091,
                "end_time": 61.28409090909091,
                "pitch": 91,
                "velocity": 80,
                "duration": 0.04999999999999716,
                "tempo": 120.0
            },
            {
                "start_time": 61.28409090909091,
                "end_time": 61.334090909090904,
                "pitch": 93,
                "velocity": 80,
                "duration": 0.04999999999999716,
                "tempo": 120.0
            },
            {
                "start_time": 61.334090909090904,
                "end_time": 61.402272727272724,
                "pitch": 91,
                "velocity": 80,
                "duration": 0.06818181818182012,
                "tempo": 120.0
            },
            {
                "start_time": 61.402272727272724,
                "end_time": 61.486363636363635,
                "pitch": 90,
                "velocity": 101,
                "duration": 0.08409090909091077,
                "tempo": 120.0
            },
            {
                "start_time": 61.486363636363635,
                "end_time": 61.570454545454545,
                "pitch": 90,
                "velocity": 40,
                "duration": 0.08409090909091077,
                "tempo": 120.0
            },
            {
                "start_time": 61.570454545454545,
                "end_time": 61.652272727272724,
                "pitch": 91,
                "velocity": 101,
                "duration": 0.08181818181817846,
                "tempo": 120.0
            },
            {
                "start_time": 61.65454545454545,
                "end_time": 61.73863636363636,
                "pitch": 91,
                "velocity": 40,
                "duration": 0.08409090909091077,
                "tempo": 120.0
            },
            {
                "start_time": 61.73863636363636,
                "end_time": 61.820454545454545,
                "pitch": 93,
                "velocity": 101,
                "duration": 0.08181818181818556,
                "tempo": 120.0
            },
            {
                "start_time": 61.820454545454545,
                "end_time": 61.90454545454545,
                "pitch": 93,
                "velocity": 40,
                "duration": 0.08409090909090366,
                "tempo": 120.0
            },
            {
                "start_time": 61.90454545454545,
                "end_time": 61.98863636363636,
                "pitch": 98,
                "velocity": 101,
                "duration": 0.08409090909091077,
                "tempo": 120.0
            },
            {
                "start_time": 61.98863636363636,
                "end_time": 62.074999999999996,
                "pitch": 98,
                "velocity": 40,
                "duration": 0.08636363636363598,
                "tempo": 120.0
            },
            {
                "start_time": 62.074999999999996,
                "end_time": 62.240909090909085,
                "pitch": 98,
                "velocity": 101,
                "duration": 0.16590909090908923,
                "tempo": 120.0
            },
            {
                "start_time": 62.240909090909085,
                "end_time": 62.40909090909091,
                "pitch": 98,
                "velocity": 40,
                "duration": 0.16818181818182154,
                "tempo": 120.0
            },
            {
                "start_time": 62.40909090909091,
                "end_time": 62.49318181818182,
                "pitch": 93,
                "velocity": 101,
                "duration": 0.08409090909091077,
                "tempo": 120.0
            },
            {
                "start_time": 62.49318181818182,
                "end_time": 62.57727272727272,
                "pitch": 93,
                "velocity": 40,
                "duration": 0.08409090909090366,
                "tempo": 120.0
            },
            {
                "start_time": 62.57727272727272,
                "end_time": 62.66136363636363,
                "pitch": 98,
                "velocity": 101,
                "duration": 0.08409090909091077,
                "tempo": 120.0
            },
            {
                "start_time": 62.66136363636363,
                "end_time": 62.74545454545454,
                "pitch": 98,
                "velocity": 40,
                "duration": 0.08409090909091077,
                "tempo": 120.0
            },
            {
                "start_time": 62.74545454545454,
                "end_time": 62.91136363636363,
                "pitch": 98,
                "velocity": 101,
                "duration": 0.16590909090908923,
                "tempo": 120.0
            },
            {
                "start_time": 62.913636363636364,
                "end_time": 63.08181818181818,
                "pitch": 98,
                "velocity": 40,
                "duration": 0.16818181818181444,
                "tempo": 120.0
            },
            {
                "start_time": 63.08181818181818,
                "end_time": 63.24545454545454,
                "pitch": 62,
                "velocity": 101,
                "duration": 0.16363636363636402,
                "tempo": 120.0
            },
            {
                "start_time": 63.24772727272727,
                "end_time": 63.413636363636364,
                "pitch": 62,
                "velocity": 40,
                "duration": 0.16590909090909634,
                "tempo": 120.0
            },
            {
                "start_time": 63.413636363636364,
                "end_time": 63.57954545454545,
                "pitch": 62,
                "velocity": 101,
                "duration": 0.16590909090908923,
                "tempo": 120.0
            },
            {
                "start_time": 63.57954545454545,
                "end_time": 63.74545454545454,
                "pitch": 62,
                "velocity": 40,
                "duration": 0.16590909090908923,
                "tempo": 120.0
            },
            {
                "start_time": 42.413636363636364,
                "end_time": 63.845454545454544,
                "pitch": 81,
                "velocity": 40,
                "duration": 21.43181818181818,
                "tempo": 120.0
            },
            {
                "start_time": 63.74545454545454,
                "end_time": 63.845454545454544,
                "pitch": 98,
                "velocity": 40,
                "duration": 0.10000000000000142,
                "tempo": 120.0
            },
            {
                "start_time": 63.845454545454544,
                "end_time": 63.87954545454545,
                "pitch": 95,
                "velocity": 40,
                "duration": 0.03409090909090651,
                "tempo": 120.0
            },
            {
                "start_time": 42.44772727272727,
                "end_time": 63.87954545454545,
                "pitch": 100,
                "velocity": 40,
                "duration": 21.43181818181818,
                "tempo": 120.0
            },
            {
                "start_time": 42.48181818181818,
                "end_time": 63.91136363636363,
                "pitch": 76,
                "velocity": 40,
                "duration": 21.429545454545455,
                "tempo": 120.0
            },
            {
                "start_time": 63.87954545454545,
                "end_time": 63.91136363636363,
                "pitch": 96,
                "velocity": 40,
                "duration": 0.0318181818181813,
                "tempo": 120.0
            },
            {
                "start_time": 63.91136363636363,
                "end_time": 64.04545454545455,
                "pitch": 94,
                "velocity": 40,
                "duration": 0.13409090909091503,
                "tempo": 120.0
            },
            {
                "start_time": 64.04545454545455,
                "end_time": 64.18181818181817,
                "pitch": 92,
                "velocity": 40,
                "duration": 0.13636363636362603,
                "tempo": 120.0
            },
            {
                "start_time": 42.75,
                "end_time": 64.18181818181817,
                "pitch": 102,
                "velocity": 40,
                "duration": 21.431818181818173,
                "tempo": 120.0
            },
            {
                "start_time": 64.18181818181817,
                "end_time": 64.34772727272727,
                "pitch": 89,
                "velocity": 40,
                "duration": 0.16590909090909634,
                "tempo": 120.0
            },
            {
                "start_time": 64.41818181818182,
                "end_time": 64.5,
                "pitch": 93,
                "velocity": 101,
                "duration": 0.08181818181817846,
                "tempo": 120.0
            },
            {
                "start_time": 64.5,
                "end_time": 64.5840909090909,
                "pitch": 93,
                "velocity": 40,
                "duration": 0.08409090909090366,
                "tempo": 120.0
            },
            {
                "start_time": 64.5840909090909,
                "end_time": 64.66818181818182,
                "pitch": 98,
                "velocity": 101,
                "duration": 0.08409090909091788,
                "tempo": 120.0
            },
            {
                "start_time": 64.66818181818182,
                "end_time": 64.75227272727273,
                "pitch": 98,
                "velocity": 40,
                "duration": 0.08409090909090366,
                "tempo": 120.0
            },
            {
                "start_time": 64.75227272727273,
                "end_time": 64.92045454545455,
                "pitch": 98,
                "velocity": 101,
                "duration": 0.16818181818182154,
                "tempo": 120.0
            },
            {
                "start_time": 64.92045454545455,
                "end_time": 65.08863636363635,
                "pitch": 98,
                "velocity": 40,
                "duration": 0.16818181818180733,
                "tempo": 120.0
            },
            {
                "start_time": 65.08863636363635,
                "end_time": 65.17045454545455,
                "pitch": 93,
                "velocity": 101,
                "duration": 0.08181818181819267,
                "tempo": 120.0
            },
            {
                "start_time": 65.17045454545455,
                "end_time": 65.25454545454545,
                "pitch": 93,
                "velocity": 40,
                "duration": 0.08409090909090366,
                "tempo": 120.0
            },
            {
                "start_time": 65.25454545454545,
                "end_time": 65.33636363636363,
                "pitch": 98,
                "velocity": 101,
                "duration": 0.08181818181817846,
                "tempo": 120.0
            },
            {
                "start_time": 65.33636363636363,
                "end_time": 65.42045454545455,
                "pitch": 98,
                "velocity": 40,
                "duration": 0.08409090909091788,
                "tempo": 120.0
            },
            {
                "start_time": 65.42045454545455,
                "end_time": 65.58636363636363,
                "pitch": 98,
                "velocity": 101,
                "duration": 0.16590909090908212,
                "tempo": 120.0
            },
            {
                "start_time": 65.58636363636363,
                "end_time": 65.75227272727273,
                "pitch": 98,
                "velocity": 40,
                "duration": 0.16590909090909634,
                "tempo": 120.0
            },
            {
                "start_time": 66.08863636363635,
                "end_time": 66.17045454545455,
                "pitch": 95,
                "velocity": 101,
                "duration": 0.08181818181819267,
                "tempo": 120.0
            },
            {
                "start_time": 66.17272727272727,
                "end_time": 66.25681818181818,
                "pitch": 95,
                "velocity": 40,
                "duration": 0.08409090909090366,
                "tempo": 120.0
            },
            {
                "start_time": 66.25681818181818,
                "end_time": 66.33863636363635,
                "pitch": 93,
                "velocity": 101,
                "duration": 0.08181818181817846,
                "tempo": 120.0
            },
            {
                "start_time": 66.33863636363635,
                "end_time": 66.425,
                "pitch": 93,
                "velocity": 40,
                "duration": 0.08636363636364308,
                "tempo": 120.0
            },
            {
                "start_time": 66.425,
                "end_time": 66.50681818181818,
                "pitch": 91,
                "velocity": 101,
                "duration": 0.08181818181817846,
                "tempo": 120.0
            },
            {
                "start_time": 66.50681818181818,
                "end_time": 66.5909090909091,
                "pitch": 91,
                "velocity": 40,
                "duration": 0.08409090909091788,
                "tempo": 120.0
            },
            {
                "start_time": 66.5909090909091,
                "end_time": 66.64090909090909,
                "pitch": 91,
                "velocity": 80,
                "duration": 0.04999999999999716,
                "tempo": 120.0
            },
            {
                "start_time": 66.64090909090909,
                "end_time": 66.69090909090909,
                "pitch": 93,
                "velocity": 80,
                "duration": 0.04999999999999716,
                "tempo": 120.0
            },
            {
                "start_time": 66.69090909090909,
                "end_time": 66.7590909090909,
                "pitch": 91,
                "velocity": 80,
                "duration": 0.06818181818181301,
                "tempo": 120.0
            },
            {
                "start_time": 66.76136363636363,
                "end_time": 66.84318181818182,
                "pitch": 90,
                "velocity": 101,
                "duration": 0.08181818181819267,
                "tempo": 120.0
            },
            {
                "start_time": 66.84318181818182,
                "end_time": 66.92727272727272,
                "pitch": 90,
                "velocity": 40,
                "duration": 0.08409090909090366,
                "tempo": 120.0
            },
            {
                "start_time": 66.92954545454545,
                "end_time": 67.01136363636363,
                "pitch": 88,
                "velocity": 101,
                "duration": 0.08181818181817846,
                "tempo": 120.0
            },
            {
                "start_time": 67.01136363636363,
                "end_time": 67.09772727272727,
                "pitch": 88,
                "velocity": 40,
                "duration": 0.08636363636364308,
                "tempo": 120.0
            },
            {
                "start_time": 67.09772727272727,
                "end_time": 67.17954545454545,
                "pitch": 74,
                "velocity": 101,
                "duration": 0.08181818181817846,
                "tempo": 120.0
            },
            {
                "start_time": 67.17954545454545,
                "end_time": 67.26363636363637,
                "pitch": 74,
                "velocity": 40,
                "duration": 0.08409090909091788,
                "tempo": 120.0
            },
            {
                "start_time": 67.26363636363637,
                "end_time": 67.34772727272727,
                "pitch": 74,
                "velocity": 101,
                "duration": 0.08409090909090366,
                "tempo": 120.0
            },
            {
                "start_time": 67.34772727272727,
                "end_time": 67.43181818181817,
                "pitch": 74,
                "velocity": 40,
                "duration": 0.08409090909090366,
                "tempo": 120.0
            },
            {
                "start_time": 67.43181818181817,
                "end_time": 67.59772727272727,
                "pitch": 74,
                "velocity": 101,
                "duration": 0.16590909090909634,
                "tempo": 120.0
            },
            {
                "start_time": 67.6,
                "end_time": 67.76818181818182,
                "pitch": 74,
                "velocity": 40,
                "duration": 0.16818181818182154,
                "tempo": 120.0
            },
            {
                "start_time": 67.76818181818182,
                "end_time": 67.85,
                "pitch": 74,
                "velocity": 101,
                "duration": 0.08181818181817846,
                "tempo": 120.0
            },
            {
                "start_time": 67.85,
                "end_time": 67.93409090909091,
                "pitch": 74,
                "velocity": 40,
                "duration": 0.08409090909091788,
                "tempo": 120.0
            },
            {
                "start_time": 67.93409090909091,
                "end_time": 68.01818181818182,
                "pitch": 74,
                "velocity": 101,
                "duration": 0.08409090909090366,
                "tempo": 120.0
            },
            {
                "start_time": 68.01818181818182,
                "end_time": 68.10454545454544,
                "pitch": 74,
                "velocity": 40,
                "duration": 0.08636363636362887,
                "tempo": 120.0
            },
            {
                "start_time": 68.10454545454544,
                "end_time": 68.27045454545454,
                "pitch": 74,
                "velocity": 101,
                "duration": 0.16590909090909634,
                "tempo": 120.0
            },
            {
                "start_time": 68.27045454545454,
                "end_time": 68.44090909090909,
                "pitch": 74,
                "velocity": 40,
                "duration": 0.17045454545454675,
                "tempo": 120.0
            },
            {
                "start_time": 68.44090909090909,
                "end_time": 68.60454545454544,
                "pitch": 62,
                "velocity": 101,
                "duration": 0.16363636363635692,
                "tempo": 120.0
            },
            {
                "start_time": 68.60454545454544,
                "end_time": 68.77045454545454,
                "pitch": 62,
                "velocity": 40,
                "duration": 0.16590909090909634,
                "tempo": 120.0
            },
            {
                "start_time": 68.77272727272727,
                "end_time": 68.93636363636364,
                "pitch": 62,
                "velocity": 101,
                "duration": 0.16363636363637113,
                "tempo": 120.0
            },
            {
                "start_time": 68.93636363636364,
                "end_time": 69.10227272727272,
                "pitch": 62,
                "velocity": 40,
                "duration": 0.16590909090908212,
                "tempo": 120.0
            },
            {
                "start_time": 63.845454545454544,
                "end_time": 69.20227272727273,
                "pitch": 81,
                "velocity": 40,
                "duration": 5.356818181818184,
                "tempo": 120.0
            },
            {
                "start_time": 69.10227272727272,
                "end_time": 69.20227272727273,
                "pitch": 98,
                "velocity": 40,
                "duration": 0.10000000000000853,
                "tempo": 120.0
            },
            {
                "start_time": 69.20227272727273,
                "end_time": 69.23636363636363,
                "pitch": 95,
                "velocity": 40,
                "duration": 0.03409090909090651,
                "tempo": 120.0
            },
            {
                "start_time": 63.87954545454545,
                "end_time": 69.23636363636363,
                "pitch": 100,
                "velocity": 40,
                "duration": 5.356818181818184,
                "tempo": 120.0
            },
            {
                "start_time": 63.91136363636363,
                "end_time": 69.27045454545454,
                "pitch": 76,
                "velocity": 40,
                "duration": 5.359090909090909,
                "tempo": 120.0
            },
            {
                "start_time": 69.23636363636363,
                "end_time": 69.27045454545454,
                "pitch": 96,
                "velocity": 40,
                "duration": 0.03409090909090651,
                "tempo": 120.0
            },
            {
                "start_time": 69.27045454545454,
                "end_time": 69.40454545454546,
                "pitch": 94,
                "velocity": 40,
                "duration": 0.13409090909091503,
                "tempo": 120.0
            },
            {
                "start_time": 69.40454545454546,
                "end_time": 69.53863636363636,
                "pitch": 92,
                "velocity": 40,
                "duration": 0.13409090909090082,
                "tempo": 120.0
            },
            {
                "start_time": 64.18181818181817,
                "end_time": 69.53863636363636,
                "pitch": 102,
                "velocity": 40,
                "duration": 5.356818181818184,
                "tempo": 120.0
            },
            {
                "start_time": 69.53863636363636,
                "end_time": 69.70681818181818,
                "pitch": 89,
                "velocity": 40,
                "duration": 0.16818181818182154,
                "tempo": 120.0
            },
            {
                "start_time": 70.11136363636363,
                "end_time": 70.27727272727273,
                "pitch": 97,
                "velocity": 101,
                "duration": 0.16590909090909634,
                "tempo": 120.0
            },
            {
                "start_time": 70.7840909090909,
                "end_time": 70.95,
                "pitch": 97,
                "velocity": 101,
                "duration": 0.16590909090909634,
                "tempo": 120.0
            },
            {
                "start_time": 71.45227272727273,
                "end_time": 71.61590909090908,
                "pitch": 97,
                "velocity": 101,
                "duration": 0.16363636363635692,
                "tempo": 120.0
            },
            {
                "start_time": 72.11818181818181,
                "end_time": 72.2840909090909,
                "pitch": 97,
                "velocity": 101,
                "duration": 0.16590909090909634,
                "tempo": 120.0
            },
            {
                "start_time": 72.79090909090908,
                "end_time": 72.95681818181818,
                "pitch": 97,
                "velocity": 101,
                "duration": 0.16590909090909634,
                "tempo": 120.0
            },
            {
                "start_time": 73.46136363636363,
                "end_time": 73.62727272727273,
                "pitch": 97,
                "velocity": 101,
                "duration": 0.16590909090909634,
                "tempo": 120.0
            },
            {
                "start_time": 73.8,
                "end_time": 73.96136363636363,
                "pitch": 85,
                "velocity": 101,
                "duration": 0.1613636363636317,
                "tempo": 120.0
            },
            {
                "start_time": 74.12954545454545,
                "end_time": 74.29318181818182,
                "pitch": 97,
                "velocity": 101,
                "duration": 0.16363636363637113,
                "tempo": 120.0
            },
            {
                "start_time": 75.47045454545454,
                "end_time": 75.63636363636363,
                "pitch": 97,
                "velocity": 101,
                "duration": 0.16590909090908212,
                "tempo": 120.0
            },
            {
                "start_time": 76.14090909090909,
                "end_time": 76.30681818181817,
                "pitch": 97,
                "velocity": 101,
                "duration": 0.16590909090908212,
                "tempo": 120.0
            },
            {
                "start_time": 76.80909090909091,
                "end_time": 76.97272727272727,
                "pitch": 97,
                "velocity": 101,
                "duration": 0.16363636363635692,
                "tempo": 120.0
            },
            {
                "start_time": 77.47727272727272,
                "end_time": 77.64318181818182,
                "pitch": 97,
                "velocity": 101,
                "duration": 0.16590909090909634,
                "tempo": 120.0
            },
            {
                "start_time": 78.14772727272727,
                "end_time": 78.31363636363636,
                "pitch": 97,
                "velocity": 101,
                "duration": 0.16590909090909634,
                "tempo": 120.0
            },
            {
                "start_time": 78.81818181818181,
                "end_time": 78.98636363636363,
                "pitch": 97,
                "velocity": 101,
                "duration": 0.16818181818182154,
                "tempo": 120.0
            },
            {
                "start_time": 79.48636363636363,
                "end_time": 79.65227272727272,
                "pitch": 97,
                "velocity": 101,
                "duration": 0.16590909090908212,
                "tempo": 120.0
            },
            {
                "start_time": 80.15454545454546,
                "end_time": 80.32045454545454,
                "pitch": 97,
                "velocity": 101,
                "duration": 0.16590909090908212,
                "tempo": 120.0
            },
            {
                "start_time": 83.17045454545455,
                "end_time": 83.25227272727273,
                "pitch": 93,
                "velocity": 101,
                "duration": 0.08181818181817846,
                "tempo": 120.0
            },
            {
                "start_time": 83.25454545454545,
                "end_time": 83.33863636363635,
                "pitch": 93,
                "velocity": 40,
                "duration": 0.08409090909090366,
                "tempo": 120.0
            },
            {
                "start_time": 83.33863636363635,
                "end_time": 83.42272727272727,
                "pitch": 98,
                "velocity": 101,
                "duration": 0.08409090909091788,
                "tempo": 120.0
            },
            {
                "start_time": 83.42272727272727,
                "end_time": 83.5090909090909,
                "pitch": 98,
                "velocity": 40,
                "duration": 0.08636363636362887,
                "tempo": 120.0
            },
            {
                "start_time": 83.5090909090909,
                "end_time": 83.67727272727272,
                "pitch": 98,
                "velocity": 101,
                "duration": 0.16818181818182154,
                "tempo": 120.0
            },
            {
                "start_time": 83.67727272727272,
                "end_time": 83.84772727272727,
                "pitch": 98,
                "velocity": 40,
                "duration": 0.17045454545454675,
                "tempo": 120.0
            },
            {
                "start_time": 83.85,
                "end_time": 83.93181818181817,
                "pitch": 93,
                "velocity": 101,
                "duration": 0.08181818181817846,
                "tempo": 120.0
            },
            {
                "start_time": 83.93181818181817,
                "end_time": 84.01363636363637,
                "pitch": 93,
                "velocity": 40,
                "duration": 0.08181818181819267,
                "tempo": 120.0
            },
            {
                "start_time": 84.01363636363637,
                "end_time": 84.09772727272727,
                "pitch": 98,
                "velocity": 101,
                "duration": 0.08409090909090366,
                "tempo": 120.0
            },
            {
                "start_time": 84.09772727272727,
                "end_time": 84.18181818181817,
                "pitch": 98,
                "velocity": 40,
                "duration": 0.08409090909090366,
                "tempo": 120.0
            },
            {
                "start_time": 84.18181818181817,
                "end_time": 84.34545454545454,
                "pitch": 98,
                "velocity": 101,
                "duration": 0.16363636363637113,
                "tempo": 120.0
            },
            {
                "start_time": 84.34545454545454,
                "end_time": 84.51363636363637,
                "pitch": 98,
                "velocity": 40,
                "duration": 0.16818181818182154,
                "tempo": 120.0
            },
            {
                "start_time": 85.85,
                "end_time": 85.93181818181817,
                "pitch": 93,
                "velocity": 101,
                "duration": 0.08181818181817846,
                "tempo": 120.0
            },
            {
                "start_time": 85.93181818181817,
                "end_time": 86.01818181818182,
                "pitch": 93,
                "velocity": 40,
                "duration": 0.08636363636364308,
                "tempo": 120.0
            },
            {
                "start_time": 86.01818181818182,
                "end_time": 86.10227272727272,
                "pitch": 98,
                "velocity": 101,
                "duration": 0.08409090909090366,
                "tempo": 120.0
            },
            {
                "start_time": 86.10227272727272,
                "end_time": 86.18863636363636,
                "pitch": 98,
                "velocity": 40,
                "duration": 0.08636363636364308,
                "tempo": 120.0
            },
            {
                "start_time": 86.18863636363636,
                "end_time": 86.35681818181818,
                "pitch": 98,
                "velocity": 101,
                "duration": 0.16818181818182154,
                "tempo": 120.0
            },
            {
                "start_time": 86.35681818181818,
                "end_time": 86.52727272727272,
                "pitch": 98,
                "velocity": 40,
                "duration": 0.17045454545453254,
                "tempo": 120.0
            },
            {
                "start_time": 86.52727272727272,
                "end_time": 86.60909090909091,
                "pitch": 93,
                "velocity": 101,
                "duration": 0.08181818181819267,
                "tempo": 120.0
            },
            {
                "start_time": 86.60909090909091,
                "end_time": 86.69318181818181,
                "pitch": 93,
                "velocity": 40,
                "duration": 0.08409090909090366,
                "tempo": 120.0
            },
            {
                "start_time": 86.69318181818181,
                "end_time": 86.77499999999999,
                "pitch": 98,
                "velocity": 101,
                "duration": 0.08181818181817846,
                "tempo": 120.0
            },
            {
                "start_time": 86.77499999999999,
                "end_time": 86.85909090909091,
                "pitch": 98,
                "velocity": 40,
                "duration": 0.08409090909091788,
                "tempo": 120.0
            },
            {
                "start_time": 86.85909090909091,
                "end_time": 87.02499999999999,
                "pitch": 98,
                "velocity": 101,
                "duration": 0.16590909090908212,
                "tempo": 120.0
            },
            {
                "start_time": 87.02499999999999,
                "end_time": 87.19090909090909,
                "pitch": 98,
                "velocity": 40,
                "duration": 0.16590909090909634,
                "tempo": 120.0
            },
            {
                "start_time": 87.52499999999999,
                "end_time": 87.60681818181818,
                "pitch": 95,
                "velocity": 101,
                "duration": 0.08181818181819267,
                "tempo": 120.0
            },
            {
                "start_time": 87.60681818181818,
                "end_time": 87.68863636363636,
                "pitch": 95,
                "velocity": 40,
                "duration": 0.08181818181817846,
                "tempo": 120.0
            },
            {
                "start_time": 87.69090909090909,
                "end_time": 87.77272727272727,
                "pitch": 93,
                "velocity": 101,
                "duration": 0.08181818181817846,
                "tempo": 120.0
            },
            {
                "start_time": 87.77272727272727,
                "end_time": 87.85681818181818,
                "pitch": 93,
                "velocity": 40,
                "duration": 0.08409090909091788,
                "tempo": 120.0
            },
            {
                "start_time": 87.85681818181818,
                "end_time": 87.93863636363636,
                "pitch": 91,
                "velocity": 101,
                "duration": 0.08181818181817846,
                "tempo": 120.0
            },
            {
                "start_time": 87.93863636363636,
                "end_time": 88.02272727272727,
                "pitch": 91,
                "velocity": 40,
                "duration": 0.08409090909090366,
                "tempo": 120.0
            },
            {
                "start_time": 88.02272727272727,
                "end_time": 88.07272727272726,
                "pitch": 91,
                "velocity": 80,
                "duration": 0.04999999999999716,
                "tempo": 120.0
            },
            {
                "start_time": 88.07272727272726,
                "end_time": 88.12272727272727,
                "pitch": 93,
                "velocity": 80,
                "duration": 0.05000000000001137,
                "tempo": 120.0
            },
            {
                "start_time": 88.12272727272727,
                "end_time": 88.19318181818181,
                "pitch": 91,
                "velocity": 80,
                "duration": 0.07045454545453822,
                "tempo": 120.0
            },
            {
                "start_time": 88.19318181818181,
                "end_time": 88.27499999999999,
                "pitch": 90,
                "velocity": 101,
                "duration": 0.08181818181817846,
                "tempo": 120.0
            },
            {
                "start_time": 88.27499999999999,
                "end_time": 88.35909090909091,
                "pitch": 90,
                "velocity": 40,
                "duration": 0.08409090909091788,
                "tempo": 120.0
            },
            {
                "start_time": 88.35909090909091,
                "end_time": 88.44318181818181,
                "pitch": 91,
                "velocity": 101,
                "duration": 0.08409090909090366,
                "tempo": 120.0
            },
            {
                "start_time": 88.44318181818181,
                "end_time": 88.52954545454546,
                "pitch": 91,
                "velocity": 40,
                "duration": 0.08636363636364308,
                "tempo": 120.0
            },
            {
                "start_time": 88.52954545454546,
                "end_time": 88.61136363636363,
                "pitch": 93,
                "velocity": 101,
                "duration": 0.08181818181817846,
                "tempo": 120.0
            },
            {
                "start_time": 88.61136363636363,
                "end_time": 88.69545454545454,
                "pitch": 93,
                "velocity": 40,
                "duration": 0.08409090909090366,
                "tempo": 120.0
            },
            {
                "start_time": 88.69772727272726,
                "end_time": 88.78181818181818,
                "pitch": 98,
                "velocity": 101,
                "duration": 0.08409090909091788,
                "tempo": 120.0
            },
            {
                "start_time": 88.78181818181818,
                "end_time": 88.86590909090908,
                "pitch": 98,
                "velocity": 40,
                "duration": 0.08409090909090366,
                "tempo": 120.0
            },
            {
                "start_time": 88.86818181818181,
                "end_time": 89.03636363636363,
                "pitch": 98,
                "velocity": 101,
                "duration": 0.16818181818182154,
                "tempo": 120.0
            },
            {
                "start_time": 89.03636363636363,
                "end_time": 89.20681818181818,
                "pitch": 98,
                "velocity": 40,
                "duration": 0.17045454545454675,
                "tempo": 120.0
            },
            {
                "start_time": 89.20681818181818,
                "end_time": 89.28863636363636,
                "pitch": 93,
                "velocity": 101,
                "duration": 0.08181818181817846,
                "tempo": 120.0
            },
            {
                "start_time": 89.28863636363636,
                "end_time": 89.37272727272727,
                "pitch": 93,
                "velocity": 40,
                "duration": 0.08409090909091788,
                "tempo": 120.0
            },
            {
                "start_time": 89.37272727272727,
                "end_time": 89.45454545454545,
                "pitch": 98,
                "velocity": 101,
                "duration": 0.08181818181817846,
                "tempo": 120.0
            },
            {
                "start_time": 89.45454545454545,
                "end_time": 89.53863636363636,
                "pitch": 98,
                "velocity": 40,
                "duration": 0.08409090909090366,
                "tempo": 120.0
            },
            {
                "start_time": 89.53863636363636,
                "end_time": 89.70454545454545,
                "pitch": 98,
                "velocity": 101,
                "duration": 0.16590909090909634,
                "tempo": 120.0
            },
            {
                "start_time": 89.70454545454545,
                "end_time": 89.87045454545454,
                "pitch": 98,
                "velocity": 40,
                "duration": 0.16590909090908212,
                "tempo": 120.0
            },
            {
                "start_time": 89.87272727272727,
                "end_time": 90.03636363636363,
                "pitch": 62,
                "velocity": 101,
                "duration": 0.16363636363635692,
                "tempo": 120.0
            },
            {
                "start_time": 90.03636363636363,
                "end_time": 90.20227272727273,
                "pitch": 62,
                "velocity": 40,
                "duration": 0.16590909090909634,
                "tempo": 120.0
            },
            {
                "start_time": 90.20227272727273,
                "end_time": 90.36818181818181,
                "pitch": 62,
                "velocity": 101,
                "duration": 0.16590909090908212,
                "tempo": 120.0
            },
            {
                "start_time": 90.36818181818181,
                "end_time": 90.5340909090909,
                "pitch": 62,
                "velocity": 40,
                "duration": 0.16590909090909634,
                "tempo": 120.0
            },
            {
                "start_time": 69.20227272727273,
                "end_time": 90.6340909090909,
                "pitch": 81,
                "velocity": 40,
                "duration": 21.431818181818173,
                "tempo": 120.0
            },
            {
                "start_time": 90.5340909090909,
                "end_time": 90.6340909090909,
                "pitch": 98,
                "velocity": 40,
                "duration": 0.09999999999999432,
                "tempo": 120.0
            },
            {
                "start_time": 90.6340909090909,
                "end_time": 90.66818181818181,
                "pitch": 95,
                "velocity": 40,
                "duration": 0.03409090909090651,
                "tempo": 120.0
            },
            {
                "start_time": 69.23636363636363,
                "end_time": 90.66818181818181,
                "pitch": 100,
                "velocity": 40,
                "duration": 21.431818181818173,
                "tempo": 120.0
            },
            {
                "start_time": 69.27045454545454,
                "end_time": 90.70227272727273,
                "pitch": 76,
                "velocity": 40,
                "duration": 21.431818181818187,
                "tempo": 120.0
            },
            {
                "start_time": 90.66818181818181,
                "end_time": 90.70227272727273,
                "pitch": 96,
                "velocity": 40,
                "duration": 0.03409090909092072,
                "tempo": 120.0
            },
            {
                "start_time": 90.70227272727273,
                "end_time": 90.83636363636363,
                "pitch": 94,
                "velocity": 40,
                "duration": 0.13409090909090082,
                "tempo": 120.0
            },
            {
                "start_time": 90.83636363636363,
                "end_time": 90.97045454545454,
                "pitch": 92,
                "velocity": 40,
                "duration": 0.13409090909091503,
                "tempo": 120.0
            },
            {
                "start_time": 69.53863636363636,
                "end_time": 90.97045454545454,
                "pitch": 102,
                "velocity": 40,
                "duration": 21.431818181818187,
                "tempo": 120.0
            },
            {
                "start_time": 90.97045454545454,
                "end_time": 91.13863636363637,
                "pitch": 89,
                "velocity": 40,
                "duration": 0.16818181818182154,
                "tempo": 120.0
            },
            {
                "start_time": 91.20681818181818,
                "end_time": 91.29090909090908,
                "pitch": 93,
                "velocity": 101,
                "duration": 0.08409090909090366,
                "tempo": 120.0
            },
            {
                "start_time": 91.29090909090908,
                "end_time": 91.375,
                "pitch": 93,
                "velocity": 40,
                "duration": 0.08409090909091788,
                "tempo": 120.0
            },
            {
                "start_time": 91.375,
                "end_time": 91.4590909090909,
                "pitch": 98,
                "velocity": 101,
                "duration": 0.08409090909090366,
                "tempo": 120.0
            },
            {
                "start_time": 91.46136363636363,
                "end_time": 91.54545454545455,
                "pitch": 98,
                "velocity": 40,
                "duration": 0.08409090909091788,
                "tempo": 120.0
            },
            {
                "start_time": 91.54545454545455,
                "end_time": 91.7159090909091,
                "pitch": 98,
                "velocity": 101,
                "duration": 0.17045454545454675,
                "tempo": 120.0
            },
            {
                "start_time": 91.7159090909091,
                "end_time": 91.88636363636363,
                "pitch": 98,
                "velocity": 40,
                "duration": 0.17045454545453254,
                "tempo": 120.0
            },
            {
                "start_time": 91.88636363636363,
                "end_time": 91.96818181818182,
                "pitch": 93,
                "velocity": 101,
                "duration": 0.08181818181819267,
                "tempo": 120.0
            },
            {
                "start_time": 91.96818181818182,
                "end_time": 92.05,
                "pitch": 93,
                "velocity": 40,
                "duration": 0.08181818181817846,
                "tempo": 120.0
            },
            {
                "start_time": 92.05227272727272,
                "end_time": 92.1340909090909,
                "pitch": 98,
                "velocity": 101,
                "duration": 0.08181818181817846,
                "tempo": 120.0
            },
            {
                "start_time": 92.1340909090909,
                "end_time": 92.21818181818182,
                "pitch": 98,
                "velocity": 40,
                "duration": 0.08409090909091788,
                "tempo": 120.0
            },
            {
                "start_time": 92.21818181818182,
                "end_time": 92.3840909090909,
                "pitch": 98,
                "velocity": 101,
                "duration": 0.16590909090908212,
                "tempo": 120.0
            },
            {
                "start_time": 92.3840909090909,
                "end_time": 92.55,
                "pitch": 98,
                "velocity": 40,
                "duration": 0.16590909090909634,
                "tempo": 120.0
            },
            {
                "start_time": 92.8840909090909,
                "end_time": 92.96363636363635,
                "pitch": 95,
                "velocity": 101,
                "duration": 0.07954545454545325,
                "tempo": 120.0
            },
            {
                "start_time": 92.96363636363635,
                "end_time": 93.04772727272727,
                "pitch": 95,
                "velocity": 40,
                "duration": 0.08409090909091788,
                "tempo": 120.0
            },
            {
                "start_time": 93.04772727272727,
                "end_time": 93.12954545454545,
                "pitch": 93,
                "velocity": 101,
                "duration": 0.08181818181817846,
                "tempo": 120.0
            },
            {
                "start_time": 93.12954545454545,
                "end_time": 93.21363636363635,
                "pitch": 93,
                "velocity": 40,
                "duration": 0.08409090909090366,
                "tempo": 120.0
            },
            {
                "start_time": 93.21363636363635,
                "end_time": 93.29772727272727,
                "pitch": 91,
                "velocity": 101,
                "duration": 0.08409090909091788,
                "tempo": 120.0
            },
            {
                "start_time": 93.29772727272727,
                "end_time": 93.38181818181818,
                "pitch": 91,
                "velocity": 40,
                "duration": 0.08409090909090366,
                "tempo": 120.0
            },
            {
                "start_time": 93.38181818181818,
                "end_time": 93.43181818181817,
                "pitch": 91,
                "velocity": 80,
                "duration": 0.04999999999999716,
                "tempo": 120.0
            },
            {
                "start_time": 93.43181818181817,
                "end_time": 93.48181818181818,
                "pitch": 93,
                "velocity": 80,
                "duration": 0.05000000000001137,
                "tempo": 120.0
            },
            {
                "start_time": 93.48181818181818,
                "end_time": 93.55,
                "pitch": 91,
                "velocity": 80,
                "duration": 0.06818181818181301,
                "tempo": 120.0
            },
            {
                "start_time": 93.55,
                "end_time": 93.63181818181818,
                "pitch": 90,
                "velocity": 101,
                "duration": 0.08181818181817846,
                "tempo": 120.0
            },
            {
                "start_time": 93.6340909090909,
                "end_time": 93.71818181818182,
                "pitch": 90,
                "velocity": 40,
                "duration": 0.08409090909091788,
                "tempo": 120.0
            },
            {
                "start_time": 93.71818181818182,
                "end_time": 93.8,
                "pitch": 88,
                "velocity": 101,
                "duration": 0.08181818181817846,
                "tempo": 120.0
            },
            {
                "start_time": 93.8,
                "end_time": 93.88636363636363,
                "pitch": 88,
                "velocity": 40,
                "duration": 0.08636363636362887,
                "tempo": 120.0
            },
            {
                "start_time": 93.88636363636363,
                "end_time": 93.97045454545454,
                "pitch": 74,
                "velocity": 101,
                "duration": 0.08409090909091788,
                "tempo": 120.0
            },
            {
                "start_time": 93.97045454545454,
                "end_time": 94.05454545454545,
                "pitch": 74,
                "velocity": 40,
                "duration": 0.08409090909090366,
                "tempo": 120.0
            },
            {
                "start_time": 94.05454545454545,
                "end_time": 94.13863636363637,
                "pitch": 74,
                "velocity": 101,
                "duration": 0.08409090909091788,
                "tempo": 120.0
            },
            {
                "start_time": 94.13863636363637,
                "end_time": 94.225,
                "pitch": 74,
                "velocity": 40,
                "duration": 0.08636363636362887,
                "tempo": 120.0
            },
            {
                "start_time": 94.225,
                "end_time": 94.39318181818182,
                "pitch": 74,
                "velocity": 101,
                "duration": 0.16818181818182154,
                "tempo": 120.0
            },
            {
                "start_time": 94.39545454545454,
                "end_time": 94.56363636363636,
                "pitch": 74,
                "velocity": 40,
                "duration": 0.16818181818182154,
                "tempo": 120.0
            },
            {
                "start_time": 94.56590909090909,
                "end_time": 94.64772727272727,
                "pitch": 74,
                "velocity": 101,
                "duration": 0.08181818181817846,
                "tempo": 120.0
            },
            {
                "start_time": 94.64772727272727,
                "end_time": 94.72954545454544,
                "pitch": 74,
                "velocity": 40,
                "duration": 0.08181818181817846,
                "tempo": 120.0
            },
            {
                "start_time": 94.72954545454544,
                "end_time": 94.81363636363636,
                "pitch": 74,
                "velocity": 101,
                "duration": 0.08409090909091788,
                "tempo": 120.0
            },
            {
                "start_time": 94.81363636363636,
                "end_time": 94.89772727272727,
                "pitch": 74,
                "velocity": 40,
                "duration": 0.08409090909090366,
                "tempo": 120.0
            },
            {
                "start_time": 94.89772727272727,
                "end_time": 95.06136363636364,
                "pitch": 74,
                "velocity": 101,
                "duration": 0.16363636363637113,
                "tempo": 120.0
            },
            {
                "start_time": 95.06136363636364,
                "end_time": 95.22954545454544,
                "pitch": 74,
                "velocity": 40,
                "duration": 0.16818181818180733,
                "tempo": 120.0
            },
            {
                "start_time": 95.22954545454544,
                "end_time": 95.39318181818182,
                "pitch": 62,
                "velocity": 101,
                "duration": 0.16363636363637113,
                "tempo": 120.0
            },
            {
                "start_time": 95.39545454545454,
                "end_time": 95.56136363636364,
                "pitch": 62,
                "velocity": 40,
                "duration": 0.16590909090909634,
                "tempo": 120.0
            },
            {
                "start_time": 95.56136363636364,
                "end_time": 95.72727272727272,
                "pitch": 62,
                "velocity": 101,
                "duration": 0.16590909090908212,
                "tempo": 120.0
            },
            {
                "start_time": 95.72727272727272,
                "end_time": 95.89318181818182,
                "pitch": 62,
                "velocity": 40,
                "duration": 0.16590909090909634,
                "tempo": 120.0
            },
            {
                "start_time": 90.6340909090909,
                "end_time": 95.99318181818181,
                "pitch": 81,
                "velocity": 40,
                "duration": 5.359090909090909,
                "tempo": 120.0
            },
            {
                "start_time": 95.89318181818182,
                "end_time": 95.99318181818181,
                "pitch": 98,
                "velocity": 40,
                "duration": 0.09999999999999432,
                "tempo": 120.0
            },
            {
                "start_time": 95.99318181818181,
                "end_time": 96.02727272727272,
                "pitch": 95,
                "velocity": 40,
                "duration": 0.03409090909090651,
                "tempo": 120.0
            },
            {
                "start_time": 90.66818181818181,
                "end_time": 96.02727272727272,
                "pitch": 100,
                "velocity": 40,
                "duration": 5.359090909090909,
                "tempo": 120.0
            },
            {
                "start_time": 90.70227272727273,
                "end_time": 96.0590909090909,
                "pitch": 76,
                "velocity": 40,
                "duration": 5.35681818181817,
                "tempo": 120.0
            },
            {
                "start_time": 96.02727272727272,
                "end_time": 96.0590909090909,
                "pitch": 96,
                "velocity": 40,
                "duration": 0.0318181818181813,
                "tempo": 120.0
            },
            {
                "start_time": 96.0590909090909,
                "end_time": 96.19318181818181,
                "pitch": 94,
                "velocity": 40,
                "duration": 0.13409090909091503,
                "tempo": 120.0
            },
            {
                "start_time": 96.19318181818181,
                "end_time": 96.32954545454545,
                "pitch": 92,
                "velocity": 40,
                "duration": 0.13636363636364024,
                "tempo": 120.0
            },
            {
                "start_time": 90.97045454545454,
                "end_time": 96.32954545454545,
                "pitch": 102,
                "velocity": 40,
                "duration": 5.359090909090909,
                "tempo": 120.0
            },
            {
                "start_time": 96.32954545454545,
                "end_time": 96.49545454545454,
                "pitch": 89,
                "velocity": 40,
                "duration": 0.16590909090908212,
                "tempo": 120.0
            },
            {
                "start_time": 96.90454545454546,
                "end_time": 97.07272727272726,
                "pitch": 97,
                "velocity": 101,
                "duration": 0.16818181818180733,
                "tempo": 120.0
            },
            {
                "start_time": 97.57727272727273,
                "end_time": 97.74090909090908,
                "pitch": 97,
                "velocity": 101,
                "duration": 0.16363636363635692,
                "tempo": 120.0
            },
            {
                "start_time": 98.24090909090908,
                "end_time": 98.40454545454546,
                "pitch": 97,
                "velocity": 101,
                "duration": 0.16363636363637113,
                "tempo": 120.0
            },
            {
                "start_time": 98.9090909090909,
                "end_time": 99.07499999999999,
                "pitch": 97,
                "velocity": 101,
                "duration": 0.16590909090908212,
                "tempo": 120.0
            },
            {
                "start_time": 99.58181818181818,
                "end_time": 99.74772727272727,
                "pitch": 97,
                "velocity": 101,
                "duration": 0.16590909090909634,
                "tempo": 120.0
            },
            {
                "start_time": 100.25227272727273,
                "end_time": 100.41818181818181,
                "pitch": 97,
                "velocity": 101,
                "duration": 0.16590909090908212,
                "tempo": 120.0
            },
            {
                "start_time": 100.58863636363635,
                "end_time": 100.75227272727273,
                "pitch": 85,
                "velocity": 101,
                "duration": 0.16363636363637113,
                "tempo": 120.0
            },
            {
                "start_time": 100.92045454545455,
                "end_time": 101.0840909090909,
                "pitch": 97,
                "velocity": 101,
                "duration": 0.16363636363635692,
                "tempo": 120.0
            },
            {
                "start_time": 102.2590909090909,
                "end_time": 102.425,
                "pitch": 97,
                "velocity": 101,
                "duration": 0.16590909090909634,
                "tempo": 120.0
            },
            {
                "start_time": 102.93181818181817,
                "end_time": 103.09772727272727,
                "pitch": 97,
                "velocity": 101,
                "duration": 0.16590909090909634,
                "tempo": 120.0
            },
            {
                "start_time": 103.59772727272727,
                "end_time": 103.76363636363637,
                "pitch": 97,
                "velocity": 101,
                "duration": 0.16590909090909634,
                "tempo": 120.0
            },
            {
                "start_time": 104.26590909090909,
                "end_time": 104.4340909090909,
                "pitch": 97,
                "velocity": 101,
                "duration": 0.16818181818180733,
                "tempo": 120.0
            },
            {
                "start_time": 104.93863636363636,
                "end_time": 105.10454545454544,
                "pitch": 97,
                "velocity": 101,
                "duration": 0.16590909090908212,
                "tempo": 120.0
            },
            {
                "start_time": 105.60909090909091,
                "end_time": 105.77499999999999,
                "pitch": 97,
                "velocity": 101,
                "duration": 0.16590909090908212,
                "tempo": 120.0
            },
            {
                "start_time": 106.27727272727272,
                "end_time": 106.44090909090909,
                "pitch": 97,
                "velocity": 101,
                "duration": 0.16363636363637113,
                "tempo": 120.0
            },
            {
                "start_time": 106.94545454545454,
                "end_time": 107.11136363636363,
                "pitch": 97,
                "velocity": 101,
                "duration": 0.16590909090909634,
                "tempo": 120.0
            }
        ]
    }
}