{
    "track_id": "03 Utility",
    "mood": "relaxed",
    "instruments": {
        "Flute": [
            {
                "start_time": 15.088636363636363,
                "end_time": 15.71590909090909,
                "pitch": 79,
                "velocity": 40,
                "duration": 0.627272727272727,
                "tempo": 120.0
            },
            {
                "start_time": 15.71590909090909,
                "end_time": 15.85,
                "pitch": 79,
                "velocity": 40,
                "duration": 0.1340909090909097,
                "tempo": 120.0
            },
            {
                "start_time": 15.71590909090909,
                "end_time": 15.85,
                "pitch": 91,
                "velocity": 40,
                "duration": 0.1340909090909097,
                "tempo": 120.0
            },
            {
                "start_time": 15.85,
                "end_time": 15.899999999999999,
                "pitch": 79,
                "velocity": 40,
                "duration": 0.049999999999998934,
                "tempo": 120.0
            },
            {
                "start_time": 15.899999999999999,
                "end_time": 17.238636363636363,
                "pitch": 79,
                "velocity": 40,
                "duration": 1.3386363636363647,
                "tempo": 120.0
            },
            {
                "start_time": 17.238636363636363,
                "end_time": 17.86590909090909,
                "pitch": 79,
                "velocity": 40,
                "duration": 0.6272727272727252,
                "tempo": 120.0
            },
            {
                "start_time": 15.85,
                "end_time": 17.86590909090909,
                "pitch": 91,
                "velocity": 40,
                "duration": 2.015909090909089,
                "tempo": 120.0
            },
            {
                "start_time": 17.86590909090909,
                "end_time": 18.0,
                "pitch": 79,
                "velocity": 40,
                "duration": 0.13409090909091148,
                "tempo": 120.0
            },
            {
                "start_time": 17.86590909090909,
                "end_time": 18.0,
                "pitch": 91,
                "velocity": 40,
                "duration": 0.13409090909091148,
                "tempo": 120.0
            },
            {
                "start_time": 18.0,
                "end_time": 18.05,
                "pitch": 79,
                "velocity": 40,
                "duration": 0.05000000000000071,
                "tempo": 120.0
            },
            {
                "start_time": 18.05,
                "end_time": 19.397727272727273,
                "pitch": 79,
                "velocity": 40,
                "duration": 1.3477272727272727,
                "tempo": 120.0
            },
            {
                "start_time": 19.397727272727273,
                "end_time": 20.209090909090907,
                "pitch": 76,
                "velocity": 40,
                "duration": 0.8113636363636338,
                "tempo": 120.0
            },
            {
                "start_time": 20.211363636363636,
                "end_time": 20.827272727272724,
                "pitch": 79,
                "velocity": 40,
                "duration": 0.6159090909090885,
                "tempo": 120.0
            },
            {
                "start_time": 18.0,
                "end_time": 20.827272727272724,
                "pitch": 91,
                "velocity": 40,
                "duration": 2.8272727272727245,
                "tempo": 120.0
            },
            {
                "start_time": 20.827272727272724,
                "end_time": 20.961363636363636,
                "pitch": 79,
                "velocity": 40,
                "duration": 0.13409090909091148,
                "tempo": 120.0
            },
            {
                "start_time": 20.827272727272724,
                "end_time": 20.961363636363636,
                "pitch": 91,
                "velocity": 40,
                "duration": 0.13409090909091148,
                "tempo": 120.0
            },
            {
                "start_time": 20.961363636363636,
                "end_time": 21.095454545454544,
                "pitch": 79,
                "velocity": 40,
                "duration": 0.13409090909090793,
                "tempo": 120.0
            },
            {
                "start_time": 20.961363636363636,
                "end_time": 21.095454545454544,
                "pitch": 91,
                "velocity": 40,
                "duration": 0.13409090909090793,
                "tempo": 120.0
            },
            {
                "start_time": 21.095454545454544,
                "end_time": 21.23181818181818,
                "pitch": 79,
                "velocity": 40,
                "duration": 0.1363636363636367,
                "tempo": 120.0
            },
            {
                "start_time": 21.095454545454544,
                "end_time": 21.23181818181818,
                "pitch": 91,
                "velocity": 40,
                "duration": 0.1363636363636367,
                "tempo": 120.0
            },
            {
                "start_time": 21.23181818181818,
                "end_time": 21.368181818181817,
                "pitch": 79,
                "velocity": 40,
                "duration": 0.1363636363636367,
                "tempo": 120.0
            },
            {
                "start_time": 21.23181818181818,
                "end_time": 21.368181818181817,
                "pitch": 91,
                "velocity": 40,
                "duration": 0.1363636363636367,
                "tempo": 120.0
            },
            {
                "start_time": 21.368181818181817,
                "end_time": 21.504545454545454,
                "pitch": 79,
                "velocity": 40,
                "duration": 0.1363636363636367,
                "tempo": 120.0
            },
            {
                "start_time": 21.368181818181817,
                "end_time": 21.504545454545454,
                "pitch": 91,
                "velocity": 40,
                "duration": 0.1363636363636367,
                "tempo": 120.0
            },
            {
                "start_time": 21.504545454545454,
                "end_time": 21.55681818181818,
                "pitch": 79,
                "velocity": 40,
                "duration": 0.052272727272725916,
                "tempo": 120.0
            }
        ],
        "Acoustic Bass": [
            {
                "start_time": 0.0022727272727272726,
                "end_time": 0.5159090909090909,
                "pitch": 36,
                "velocity": 51,
                "duration": 0.5136363636363636,
                "tempo": 120.0
            },
            {
                "start_time": 0.8022727272727272,
                "end_time": 0.9181818181818181,
                "pitch": 36,
                "velocity": 51,
                "duration": 0.11590909090909085,
                "tempo": 120.0
            },
            {
                "start_time": 0.9340909090909091,
                "end_time": 1.0522727272727272,
                "pitch": 36,
                "velocity": 51,
                "duration": 0.11818181818181817,
                "tempo": 120.0
            },
            {
                "start_time": 1.3409090909090908,
                "end_time": 1.5954545454545455,
                "pitch": 31,
                "velocity": 51,
                "duration": 0.25454545454545463,
                "tempo": 120.0
            },
            {
                "start_time": 0.0022727272727272726,
                "end_time": 1.6136363636363635,
                "pitch": 0,
                "velocity": 51,
                "duration": 1.6113636363636363,
                "tempo": 120.0
            },
            {
                "start_time": 1.6136363636363635,
                "end_time": 1.8636363636363635,
                "pitch": 36,
                "velocity": 51,
                "duration": 0.25,
                "tempo": 120.0
            },
            {
                "start_time": 1.8818181818181818,
                "end_time": 2.131818181818182,
                "pitch": 36,
                "velocity": 51,
                "duration": 0.25,
                "tempo": 120.0
            },
            {
                "start_time": 2.15,
                "end_time": 2.675,
                "pitch": 41,
                "velocity": 51,
                "duration": 0.5249999999999999,
                "tempo": 120.0
            },
            {
                "start_time": 2.9613636363636364,
                "end_time": 3.077272727272727,
                "pitch": 41,
                "velocity": 51,
                "duration": 0.11590909090909074,
                "tempo": 120.0
            },
            {
                "start_time": 3.093181818181818,
                "end_time": 3.2113636363636364,
                "pitch": 41,
                "velocity": 51,
                "duration": 0.11818181818181861,
                "tempo": 120.0
            },
            {
                "start_time": 3.495454545454545,
                "end_time": 3.745454545454545,
                "pitch": 41,
                "velocity": 51,
                "duration": 0.25,
                "tempo": 120.0
            },
            {
                "start_time": 2.15,
                "end_time": 4.018181818181818,
                "pitch": 36,
                "velocity": 51,
                "duration": 1.8681818181818177,
                "tempo": 120.0
            },
            {
                "start_time": 3.7636363636363637,
                "end_time": 4.018181818181818,
                "pitch": 36,
                "velocity": 51,
                "duration": 0.25454545454545396,
                "tempo": 120.0
            },
            {
                "start_time": 3.7636363636363637,
                "end_time": 4.290909090909091,
                "pitch": 41,
                "velocity": 51,
                "duration": 0.5272727272727273,
                "tempo": 120.0
            },
            {
                "start_time": 4.036363636363636,
                "end_time": 4.290909090909091,
                "pitch": 41,
                "velocity": 51,
                "duration": 0.25454545454545485,
                "tempo": 120.0
            },
            {
                "start_time": 4.309090909090909,
                "end_time": 4.827272727272727,
                "pitch": 41,
                "velocity": 51,
                "duration": 0.5181818181818185,
                "tempo": 120.0
            },
            {
                "start_time": 5.111363636363636,
                "end_time": 5.227272727272727,
                "pitch": 42,
                "velocity": 51,
                "duration": 0.1159090909090903,
                "tempo": 120.0
            },
            {
                "start_time": 5.243181818181818,
                "end_time": 5.361363636363636,
                "pitch": 42,
                "velocity": 51,
                "duration": 0.11818181818181817,
                "tempo": 120.0
            },
            {
                "start_time": 5.6499999999999995,
                "end_time": 5.904545454545454,
                "pitch": 42,
                "velocity": 51,
                "duration": 0.25454545454545485,
                "tempo": 120.0
            },
            {
                "start_time": 5.922727272727273,
                "end_time": 6.172727272727273,
                "pitch": 38,
                "velocity": 51,
                "duration": 0.25,
                "tempo": 120.0
            },
            {
                "start_time": 5.922727272727273,
                "end_time": 6.4409090909090905,
                "pitch": 42,
                "velocity": 51,
                "duration": 0.5181818181818176,
                "tempo": 120.0
            },
            {
                "start_time": 6.1909090909090905,
                "end_time": 6.4409090909090905,
                "pitch": 42,
                "velocity": 51,
                "duration": 0.25,
                "tempo": 120.0
            },
            {
                "start_time": 6.459090909090909,
                "end_time": 6.986363636363636,
                "pitch": 43,
                "velocity": 51,
                "duration": 0.5272727272727273,
                "tempo": 120.0
            },
            {
                "start_time": 7.2704545454545455,
                "end_time": 7.386363636363636,
                "pitch": 43,
                "velocity": 51,
                "duration": 0.1159090909090903,
                "tempo": 120.0
            },
            {
                "start_time": 7.404545454545454,
                "end_time": 7.5204545454545455,
                "pitch": 43,
                "velocity": 51,
                "duration": 0.11590909090909118,
                "tempo": 120.0
            },
            {
                "start_time": 7.811363636363636,
                "end_time": 8.065909090909091,
                "pitch": 43,
                "velocity": 51,
                "duration": 0.25454545454545574,
                "tempo": 120.0
            },
            {
                "start_time": 1.6136363636363635,
                "end_time": 8.081818181818182,
                "pitch": 0,
                "velocity": 51,
                "duration": 6.468181818181819,
                "tempo": 120.0
            },
            {
                "start_time": 6.1909090909090905,
                "end_time": 8.334090909090909,
                "pitch": 38,
                "velocity": 51,
                "duration": 2.1431818181818185,
                "tempo": 120.0
            },
            {
                "start_time": 8.081818181818182,
                "end_time": 8.334090909090909,
                "pitch": 38,
                "velocity": 51,
                "duration": 0.252272727272727,
                "tempo": 120.0
            },
            {
                "start_time": 8.35,
                "end_time": 8.6,
                "pitch": 43,
                "velocity": 51,
                "duration": 0.25,
                "tempo": 120.0
            },
            {
                "start_time": 8.081818181818182,
                "end_time": 8.618181818181817,
                "pitch": 0,
                "velocity": 51,
                "duration": 0.5363636363636353,
                "tempo": 120.0
            },
            {
                "start_time": 4.036363636363636,
                "end_time": 9.145454545454545,
                "pitch": 36,
                "velocity": 51,
                "duration": 5.1090909090909085,
                "tempo": 120.0
            },
            {
                "start_time": 8.618181818181817,
                "end_time": 9.145454545454545,
                "pitch": 36,
                "velocity": 51,
                "duration": 0.5272727272727273,
                "tempo": 120.0
            },
            {
                "start_time": 9.429545454545455,
                "end_time": 9.545454545454545,
                "pitch": 36,
                "velocity": 51,
                "duration": 0.1159090909090903,
                "tempo": 120.0
            },
            {
                "start_time": 9.563636363636363,
                "end_time": 9.679545454545455,
                "pitch": 36,
                "velocity": 51,
                "duration": 0.11590909090909207,
                "tempo": 120.0
            },
            {
                "start_time": 1.3409090909090908,
                "end_time": 9.96590909090909,
                "pitch": 40,
                "velocity": 51,
                "duration": 8.625,
                "tempo": 120.0
            },
            {
                "start_time": 9.96590909090909,
                "end_time": 10.21590909090909,
                "pitch": 31,
                "velocity": 51,
                "duration": 0.25,
                "tempo": 120.0
            },
            {
                "start_time": 8.618181818181817,
                "end_time": 10.23409090909091,
                "pitch": 0,
                "velocity": 51,
                "duration": 1.615909090909092,
                "tempo": 120.0
            },
            {
                "start_time": 10.23409090909091,
                "end_time": 10.486363636363636,
                "pitch": 36,
                "velocity": 51,
                "duration": 0.252272727272727,
                "tempo": 120.0
            },
            {
                "start_time": 10.504545454545454,
                "end_time": 10.759090909090908,
                "pitch": 36,
                "velocity": 51,
                "duration": 0.25454545454545396,
                "tempo": 120.0
            },
            {
                "start_time": 10.777272727272727,
                "end_time": 11.295454545454545,
                "pitch": 41,
                "velocity": 51,
                "duration": 0.5181818181818176,
                "tempo": 120.0
            },
            {
                "start_time": 11.579545454545453,
                "end_time": 11.695454545454545,
                "pitch": 41,
                "velocity": 51,
                "duration": 0.11590909090909207,
                "tempo": 120.0
            },
            {
                "start_time": 11.713636363636363,
                "end_time": 11.829545454545453,
                "pitch": 41,
                "velocity": 51,
                "duration": 0.1159090909090903,
                "tempo": 120.0
            },
            {
                "start_time": 12.120454545454544,
                "end_time": 12.375,
                "pitch": 41,
                "velocity": 51,
                "duration": 0.25454545454545574,
                "tempo": 120.0
            },
            {
                "start_time": 10.777272727272727,
                "end_time": 12.643181818181818,
                "pitch": 36,
                "velocity": 51,
                "duration": 1.8659090909090903,
                "tempo": 120.0
            },
            {
                "start_time": 12.39090909090909,
                "end_time": 12.643181818181818,
                "pitch": 36,
                "velocity": 51,
                "duration": 0.252272727272727,
                "tempo": 120.0
            },
            {
                "start_time": 12.39090909090909,
                "end_time": 12.909090909090908,
                "pitch": 41,
                "velocity": 51,
                "duration": 0.5181818181818176,
                "tempo": 120.0
            },
            {
                "start_time": 12.659090909090908,
                "end_time": 12.909090909090908,
                "pitch": 41,
                "velocity": 51,
                "duration": 0.25,
                "tempo": 120.0
            },
            {
                "start_time": 6.459090909090909,
                "end_time": 12.927272727272726,
                "pitch": 54,
                "velocity": 51,
                "duration": 6.468181818181817,
                "tempo": 120.0
            },
            {
                "start_time": 12.927272727272726,
                "end_time": 13.454545454545453,
                "pitch": 43,
                "velocity": 51,
                "duration": 0.5272727272727273,
                "tempo": 120.0
            },
            {
                "start_time": 13.738636363636363,
                "end_time": 13.85681818181818,
                "pitch": 43,
                "velocity": 51,
                "duration": 0.11818181818181728,
                "tempo": 120.0
            },
            {
                "start_time": 13.872727272727271,
                "end_time": 13.99090909090909,
                "pitch": 43,
                "velocity": 51,
                "duration": 0.11818181818181905,
                "tempo": 120.0
            },
            {
                "start_time": 14.274999999999999,
                "end_time": 14.524999999999999,
                "pitch": 43,
                "velocity": 51,
                "duration": 0.25,
                "tempo": 120.0
            },
            {
                "start_time": 10.23409090909091,
                "end_time": 14.543181818181818,
                "pitch": 0,
                "velocity": 51,
                "duration": 4.309090909090909,
                "tempo": 120.0
            },
            {
                "start_time": 14.543181818181818,
                "end_time": 14.797727272727272,
                "pitch": 38,
                "velocity": 51,
                "duration": 0.25454545454545396,
                "tempo": 120.0
            },
            {
                "start_time": 8.35,
                "end_time": 14.813636363636363,
                "pitch": 53,
                "velocity": 51,
                "duration": 6.463636363636363,
                "tempo": 120.0
            },
            {
                "start_time": 14.813636363636363,
                "end_time": 15.070454545454545,
                "pitch": 43,
                "velocity": 51,
                "duration": 0.2568181818181827,
                "tempo": 120.0
            },
            {
                "start_time": 15.086363636363636,
                "end_time": 15.34090909090909,
                "pitch": 43,
                "velocity": 51,
                "duration": 0.25454545454545396,
                "tempo": 120.0
            },
            {
                "start_time": 15.359090909090908,
                "end_time": 15.613636363636363,
                "pitch": 45,
                "velocity": 51,
                "duration": 0.25454545454545574,
                "tempo": 120.0
            },
            {
                "start_time": 15.631818181818181,
                "end_time": 15.881818181818181,
                "pitch": 45,
                "velocity": 51,
                "duration": 0.25,
                "tempo": 120.0
            },
            {
                "start_time": 15.899999999999999,
                "end_time": 16.15,
                "pitch": 45,
                "velocity": 51,
                "duration": 0.25,
                "tempo": 120.0
            },
            {
                "start_time": 16.168181818181818,
                "end_time": 16.418181818181818,
                "pitch": 45,
                "velocity": 51,
                "duration": 0.25,
                "tempo": 120.0
            },
            {
                "start_time": 16.43409090909091,
                "end_time": 16.68409090909091,
                "pitch": 45,
                "velocity": 51,
                "duration": 0.25,
                "tempo": 120.0
            },
            {
                "start_time": 16.702272727272728,
                "end_time": 16.952272727272728,
                "pitch": 45,
                "velocity": 51,
                "duration": 0.25,
                "tempo": 120.0
            },
            {
                "start_time": 16.970454545454544,
                "end_time": 17.220454545454544,
                "pitch": 45,
                "velocity": 51,
                "duration": 0.25,
                "tempo": 120.0
            },
            {
                "start_time": 17.236363636363635,
                "end_time": 17.49090909090909,
                "pitch": 41,
                "velocity": 51,
                "duration": 0.25454545454545396,
                "tempo": 120.0
            },
            {
                "start_time": 17.509090909090908,
                "end_time": 17.763636363636362,
                "pitch": 41,
                "velocity": 51,
                "duration": 0.25454545454545396,
                "tempo": 120.0
            },
            {
                "start_time": 17.78181818181818,
                "end_time": 18.03181818181818,
                "pitch": 41,
                "velocity": 51,
                "duration": 0.25,
                "tempo": 120.0
            },
            {
                "start_time": 18.05,
                "end_time": 18.3,
                "pitch": 41,
                "velocity": 51,
                "duration": 0.25,
                "tempo": 120.0
            },
            {
                "start_time": 18.318181818181817,
                "end_time": 18.570454545454545,
                "pitch": 41,
                "velocity": 51,
                "duration": 0.25227272727272876,
                "tempo": 120.0
            },
            {
                "start_time": 18.58863636363636,
                "end_time": 18.84318181818182,
                "pitch": 41,
                "velocity": 51,
                "duration": 0.2545454545454575,
                "tempo": 120.0
            },
            {
                "start_time": 18.861363636363635,
                "end_time": 19.111363636363635,
                "pitch": 41,
                "velocity": 51,
                "duration": 0.25,
                "tempo": 120.0
            },
            {
                "start_time": 19.129545454545454,
                "end_time": 19.379545454545454,
                "pitch": 41,
                "velocity": 51,
                "duration": 0.25,
                "tempo": 120.0
            },
            {
                "start_time": 12.659090909090908,
                "end_time": 19.65,
                "pitch": 36,
                "velocity": 51,
                "duration": 6.99090909090909,
                "tempo": 120.0
            },
            {
                "start_time": 19.397727272727273,
                "end_time": 19.65,
                "pitch": 36,
                "velocity": 51,
                "duration": 0.2522727272727252,
                "tempo": 120.0
            },
            {
                "start_time": 19.668181818181818,
                "end_time": 19.922727272727272,
                "pitch": 36,
                "velocity": 51,
                "duration": 0.25454545454545396,
                "tempo": 120.0
            },
            {
                "start_time": 19.94090909090909,
                "end_time": 20.19090909090909,
                "pitch": 36,
                "velocity": 51,
                "duration": 0.25,
                "tempo": 120.0
            },
            {
                "start_time": 20.209090909090907,
                "end_time": 20.459090909090907,
                "pitch": 36,
                "velocity": 51,
                "duration": 0.25,
                "tempo": 120.0
            },
            {
                "start_time": 20.477272727272727,
                "end_time": 20.727272727272727,
                "pitch": 36,
                "velocity": 51,
                "duration": 0.25,
                "tempo": 120.0
            },
            {
                "start_time": 20.743181818181817,
                "end_time": 20.995454545454546,
                "pitch": 36,
                "velocity": 51,
                "duration": 0.25227272727272876,
                "tempo": 120.0
            },
            {
                "start_time": 21.011363636363637,
                "end_time": 21.26590909090909,
                "pitch": 36,
                "velocity": 51,
                "duration": 0.25454545454545396,
                "tempo": 120.0
            },
            {
                "start_time": 21.284090909090907,
                "end_time": 21.538636363636364,
                "pitch": 36,
                "velocity": 51,
                "duration": 0.2545454545454575,
                "tempo": 120.0
            },
            {
                "start_time": 21.55681818181818,
                "end_time": 21.80681818181818,
                "pitch": 36,
                "velocity": 51,
                "duration": 0.25,
                "tempo": 120.0
            },
            {
                "start_time": 21.825,
                "end_time": 22.075,
                "pitch": 36,
                "velocity": 51,
                "duration": 0.25,
                "tempo": 120.0
            },
            {
                "start_time": 22.09318181818182,
                "end_time": 22.345454545454544,
                "pitch": 36,
                "velocity": 51,
                "duration": 0.2522727272727252,
                "tempo": 120.0
            },
            {
                "start_time": 22.363636363636363,
                "end_time": 22.618181818181817,
                "pitch": 36,
                "velocity": 51,
                "duration": 0.25454545454545396,
                "tempo": 120.0
            },
            {
                "start_time": 22.636363636363637,
                "end_time": 22.886363636363637,
                "pitch": 36,
                "velocity": 51,
                "duration": 0.25,
                "tempo": 120.0
            },
            {
                "start_time": 22.904545454545453,
                "end_time": 23.154545454545453,
                "pitch": 37,
                "velocity": 51,
                "duration": 0.25,
                "tempo": 120.0
            },
            {
                "start_time": 23.172727272727272,
                "end_time": 23.424999999999997,
                "pitch": 37,
                "velocity": 51,
                "duration": 0.2522727272727252,
                "tempo": 120.0
            },
            {
                "start_time": 23.443181818181817,
                "end_time": 23.69772727272727,
                "pitch": 37,
                "velocity": 51,
                "duration": 0.25454545454545396,
                "tempo": 120.0
            },
            {
                "start_time": 23.71590909090909,
                "end_time": 23.96590909090909,
                "pitch": 37,
                "velocity": 51,
                "duration": 0.25,
                "tempo": 120.0
            },
            {
                "start_time": 23.98409090909091,
                "end_time": 24.23409090909091,
                "pitch": 38,
                "velocity": 51,
                "duration": 0.25,
                "tempo": 120.0
            },
            {
                "start_time": 24.252272727272725,
                "end_time": 24.5,
                "pitch": 38,
                "velocity": 51,
                "duration": 0.2477272727272748,
                "tempo": 120.0
            },
            {
                "start_time": 24.518181818181816,
                "end_time": 24.768181818181816,
                "pitch": 38,
                "velocity": 51,
                "duration": 0.25,
                "tempo": 120.0
            },
            {
                "start_time": 24.786363636363635,
                "end_time": 25.04090909090909,
                "pitch": 50,
                "velocity": 51,
                "duration": 0.25454545454545396,
                "tempo": 120.0
            },
            {
                "start_time": 14.813636363636363,
                "end_time": 25.05909090909091,
                "pitch": 53,
                "velocity": 51,
                "duration": 10.245454545454546,
                "tempo": 120.0
            },
            {
                "start_time": 25.05909090909091,
                "end_time": 25.313636363636363,
                "pitch": 45,
                "velocity": 51,
                "duration": 0.25454545454545396,
                "tempo": 120.0
            },
            {
                "start_time": 17.236363636363635,
                "end_time": 25.331818181818182,
                "pitch": 7,
                "velocity": 51,
                "duration": 8.095454545454547,
                "tempo": 120.0
            },
            {
                "start_time": 25.331818181818182,
                "end_time": 25.581818181818182,
                "pitch": 38,
                "velocity": 51,
                "duration": 0.25,
                "tempo": 120.0
            },
            {
                "start_time": 25.05909090909091,
                "end_time": 25.597727272727273,
                "pitch": 53,
                "velocity": 51,
                "duration": 0.538636363636364,
                "tempo": 120.0
            },
            {
                "start_time": 25.597727272727273,
                "end_time": 25.847727272727273,
                "pitch": 45,
                "velocity": 51,
                "duration": 0.25,
                "tempo": 120.0
            },
            {
                "start_time": 25.86590909090909,
                "end_time": 26.11590909090909,
                "pitch": 45,
                "velocity": 51,
                "duration": 0.25,
                "tempo": 120.0
            },
            {
                "start_time": 26.134090909090908,
                "end_time": 26.384090909090908,
                "pitch": 43,
                "velocity": 51,
                "duration": 0.25,
                "tempo": 120.0
            },
            {
                "start_time": 26.4,
                "end_time": 26.654545454545453,
                "pitch": 43,
                "velocity": 51,
                "duration": 0.25454545454545396,
                "tempo": 120.0
            },
            {
                "start_time": 26.672727272727272,
                "end_time": 26.927272727272726,
                "pitch": 43,
                "velocity": 51,
                "duration": 0.25454545454545396,
                "tempo": 120.0
            },
            {
                "start_time": 26.945454545454545,
                "end_time": 27.195454545454545,
                "pitch": 43,
                "velocity": 51,
                "duration": 0.25,
                "tempo": 120.0
            },
            {
                "start_time": 27.21363636363636,
                "end_time": 27.46363636363636,
                "pitch": 43,
                "velocity": 51,
                "duration": 0.25,
                "tempo": 120.0
            },
            {
                "start_time": 14.543181818181818,
                "end_time": 27.479545454545452,
                "pitch": 0,
                "velocity": 51,
                "duration": 12.936363636363634,
                "tempo": 120.0
            },
            {
                "start_time": 19.397727272727273,
                "end_time": 27.736363636363635,
                "pitch": 41,
                "velocity": 51,
                "duration": 8.338636363636361,
                "tempo": 120.0
            },
            {
                "start_time": 27.479545454545452,
                "end_time": 27.736363636363635,
                "pitch": 41,
                "velocity": 51,
                "duration": 0.2568181818181827,
                "tempo": 120.0
            },
            {
                "start_time": 27.752272727272725,
                "end_time": 28.00681818181818,
                "pitch": 41,
                "velocity": 51,
                "duration": 0.25454545454545396,
                "tempo": 120.0
            },
            {
                "start_time": 28.025,
                "end_time": 28.275,
                "pitch": 41,
                "velocity": 51,
                "duration": 0.25,
                "tempo": 120.0
            },
            {
                "start_time": 9.96590909090909,
                "end_time": 28.543181818181818,
                "pitch": 40,
                "velocity": 51,
                "duration": 18.577272727272728,
                "tempo": 120.0
            },
            {
                "start_time": 28.293181818181818,
                "end_time": 28.543181818181818,
                "pitch": 40,
                "velocity": 51,
                "duration": 0.25,
                "tempo": 120.0
            },
            {
                "start_time": 28.561363636363634,
                "end_time": 28.815909090909088,
                "pitch": 40,
                "velocity": 51,
                "duration": 0.25454545454545396,
                "tempo": 120.0
            },
            {
                "start_time": 28.834090909090907,
                "end_time": 29.086363636363636,
                "pitch": 40,
                "velocity": 51,
                "duration": 0.25227272727272876,
                "tempo": 120.0
            },
            {
                "start_time": 29.10681818181818,
                "end_time": 29.354545454545452,
                "pitch": 52,
                "velocity": 51,
                "duration": 0.24772727272727124,
                "tempo": 120.0
            },
            {
                "start_time": 12.927272727272726,
                "end_time": 29.37272727272727,
                "pitch": 54,
                "velocity": 51,
                "duration": 16.445454545454545,
                "tempo": 120.0
            },
            {
                "start_time": 29.37272727272727,
                "end_time": 29.62272727272727,
                "pitch": 47,
                "velocity": 51,
                "duration": 0.25,
                "tempo": 120.0
            },
            {
                "start_time": 29.64090909090909,
                "end_time": 29.89090909090909,
                "pitch": 40,
                "velocity": 51,
                "duration": 0.25,
                "tempo": 120.0
            },
            {
                "start_time": 29.37272727272727,
                "end_time": 29.909090909090907,
                "pitch": 54,
                "velocity": 51,
                "duration": 0.5363636363636353,
                "tempo": 120.0
            },
            {
                "start_time": 29.909090909090907,
                "end_time": 30.159090909090907,
                "pitch": 44,
                "velocity": 51,
                "duration": 0.25,
                "tempo": 120.0
            },
            {
                "start_time": 30.174999999999997,
                "end_time": 30.429545454545455,
                "pitch": 44,
                "velocity": 51,
                "duration": 0.2545454545454575,
                "tempo": 120.0
            },
            {
                "start_time": 30.44772727272727,
                "end_time": 30.702272727272724,
                "pitch": 45,
                "velocity": 51,
                "duration": 0.25454545454545396,
                "tempo": 120.0
            },
            {
                "start_time": 30.720454545454544,
                "end_time": 30.970454545454544,
                "pitch": 45,
                "velocity": 51,
                "duration": 0.25,
                "tempo": 120.0
            },
            {
                "start_time": 30.988636363636363,
                "end_time": 31.238636363636363,
                "pitch": 45,
                "velocity": 51,
                "duration": 0.25,
                "tempo": 120.0
            },
            {
                "start_time": 31.254545454545454,
                "end_time": 31.509090909090908,
                "pitch": 45,
                "velocity": 51,
                "duration": 0.25454545454545396,
                "tempo": 120.0
            },
            {
                "start_time": 31.527272727272727,
                "end_time": 31.78181818181818,
                "pitch": 45,
                "velocity": 51,
                "duration": 0.25454545454545396,
                "tempo": 120.0
            },
            {
                "start_time": 31.799999999999997,
                "end_time": 32.05,
                "pitch": 45,
                "velocity": 51,
                "duration": 0.25,
                "tempo": 120.0
            },
            {
                "start_time": 32.06818181818182,
                "end_time": 32.31818181818182,
                "pitch": 43,
                "velocity": 51,
                "duration": 0.25,
                "tempo": 120.0
            },
            {
                "start_time": 27.479545454545452,
                "end_time": 32.33409090909091,
                "pitch": 0,
                "velocity": 51,
                "duration": 4.854545454545459,
                "tempo": 120.0
            },
            {
                "start_time": 32.33409090909091,
                "end_time": 32.58409090909091,
                "pitch": 41,
                "velocity": 51,
                "duration": 0.25,
                "tempo": 120.0
            },
            {
                "start_time": 32.60227272727273,
                "end_time": 32.85227272727273,
                "pitch": 41,
                "velocity": 51,
                "duration": 0.25,
                "tempo": 120.0
            },
            {
                "start_time": 32.87045454545454,
                "end_time": 33.125,
                "pitch": 41,
                "velocity": 51,
                "duration": 0.2545454545454575,
                "tempo": 120.0
            },
            {
                "start_time": 33.143181818181816,
                "end_time": 33.39772727272727,
                "pitch": 41,
                "velocity": 51,
                "duration": 0.2545454545454575,
                "tempo": 120.0
            },
            {
                "start_time": 33.41590909090909,
                "end_time": 33.66590909090909,
                "pitch": 41,
                "velocity": 51,
                "duration": 0.25,
                "tempo": 120.0
            },
            {
                "start_time": 33.68181818181818,
                "end_time": 33.93181818181818,
                "pitch": 41,
                "velocity": 51,
                "duration": 0.25,
                "tempo": 120.0
            },
            {
                "start_time": 33.949999999999996,
                "end_time": 34.20454545454545,
                "pitch": 41,
                "velocity": 51,
                "duration": 0.2545454545454575,
                "tempo": 120.0
            },
            {
                "start_time": 34.22272727272727,
                "end_time": 34.47727272727273,
                "pitch": 40,
                "velocity": 51,
                "duration": 0.2545454545454575,
                "tempo": 120.0
            },
            {
                "start_time": 34.49545454545454,
                "end_time": 34.74545454545454,
                "pitch": 40,
                "velocity": 51,
                "duration": 0.25,
                "tempo": 120.0
            },
            {
                "start_time": 34.763636363636365,
                "end_time": 35.01136363636363,
                "pitch": 39,
                "velocity": 51,
                "duration": 0.2477272727272677,
                "tempo": 120.0
            },
            {
                "start_time": 35.029545454545456,
                "end_time": 35.28409090909091,
                "pitch": 39,
                "velocity": 51,
                "duration": 0.2545454545454504,
                "tempo": 120.0
            },
            {
                "start_time": 35.30227272727272,
                "end_time": 35.55681818181818,
                "pitch": 39,
                "velocity": 51,
                "duration": 0.2545454545454575,
                "tempo": 120.0
            },
            {
                "start_time": 35.574999999999996,
                "end_time": 35.824999999999996,
                "pitch": 39,
                "velocity": 51,
                "duration": 0.25,
                "tempo": 120.0
            },
            {
                "start_time": 35.840909090909086,
                "end_time": 36.09318181818182,
                "pitch": 39,
                "velocity": 51,
                "duration": 0.2522727272727323,
                "tempo": 120.0
            },
            {
                "start_time": 36.10909090909091,
                "end_time": 36.35909090909091,
                "pitch": 39,
                "velocity": 51,
                "duration": 0.25,
                "tempo": 120.0
            },
            {
                "start_time": 36.377272727272725,
                "end_time": 36.627272727272725,
                "pitch": 39,
                "velocity": 51,
                "duration": 0.25,
                "tempo": 120.0
            },
            {
                "start_time": 36.64545454545454,
                "end_time": 36.9,
                "pitch": 39,
                "velocity": 51,
                "duration": 0.2545454545454575,
                "tempo": 120.0
            },
            {
                "start_time": 36.918181818181814,
                "end_time": 37.17045454545455,
                "pitch": 38,
                "velocity": 51,
                "duration": 0.2522727272727323,
                "tempo": 120.0
            },
            {
                "start_time": 37.19090909090909,
                "end_time": 37.43863636363636,
                "pitch": 38,
                "velocity": 51,
                "duration": 0.2477272727272748,
                "tempo": 120.0
            },
            {
                "start_time": 37.45681818181818,
                "end_time": 37.70681818181818,
                "pitch": 38,
                "velocity": 51,
                "duration": 0.25,
                "tempo": 120.0
            },
            {
                "start_time": 37.725,
                "end_time": 37.975,
                "pitch": 38,
                "velocity": 51,
                "duration": 0.25,
                "tempo": 120.0
            },
            {
                "start_time": 37.99318181818182,
                "end_time": 38.24318181818182,
                "pitch": 38,
                "velocity": 51,
                "duration": 0.25,
                "tempo": 120.0
            },
            {
                "start_time": 38.25909090909091,
                "end_time": 38.51363636363636,
                "pitch": 38,
                "velocity": 51,
                "duration": 0.2545454545454504,
                "tempo": 120.0
            },
            {
                "start_time": 38.53181818181818,
                "end_time": 38.78636363636363,
                "pitch": 38,
                "velocity": 51,
                "duration": 0.2545454545454504,
                "tempo": 120.0
            },
            {
                "start_time": 25.597727272727273,
                "end_time": 38.804545454545455,
                "pitch": 53,
                "velocity": 51,
                "duration": 13.206818181818182,
                "tempo": 120.0
            },
            {
                "start_time": 38.804545454545455,
                "end_time": 39.054545454545455,
                "pitch": 43,
                "velocity": 51,
                "duration": 0.25,
                "tempo": 120.0
            },
            {
                "start_time": 39.07272727272727,
                "end_time": 39.32272727272727,
                "pitch": 43,
                "velocity": 51,
                "duration": 0.25,
                "tempo": 120.0
            },
            {
                "start_time": 39.33863636363636,
                "end_time": 39.59318181818182,
                "pitch": 43,
                "velocity": 51,
                "duration": 0.2545454545454575,
                "tempo": 120.0
            },
            {
                "start_time": 39.611363636363635,
                "end_time": 39.86590909090909,
                "pitch": 43,
                "velocity": 51,
                "duration": 0.2545454545454575,
                "tempo": 120.0
            },
            {
                "start_time": 39.88409090909091,
                "end_time": 40.13409090909091,
                "pitch": 43,
                "velocity": 51,
                "duration": 0.25,
                "tempo": 120.0
            },
            {
                "start_time": 40.152272727272724,
                "end_time": 40.402272727272724,
                "pitch": 35,
                "velocity": 51,
                "duration": 0.25,
                "tempo": 120.0
            },
            {
                "start_time": 29.64090909090909,
                "end_time": 40.418181818181814,
                "pitch": 19,
                "velocity": 51,
                "duration": 10.777272727272724,
                "tempo": 120.0
            },
            {
                "start_time": 40.418181818181814,
                "end_time": 40.67045454545455,
                "pitch": 38,
                "velocity": 51,
                "duration": 0.2522727272727323,
                "tempo": 120.0
            },
            {
                "start_time": 38.804545454545455,
                "end_time": 40.68636363636364,
                "pitch": 53,
                "velocity": 51,
                "duration": 1.8818181818181827,
                "tempo": 120.0
            },
            {
                "start_time": 40.68636363636364,
                "end_time": 40.93636363636364,
                "pitch": 43,
                "velocity": 51,
                "duration": 0.25,
                "tempo": 120.0
            },
            {
                "start_time": 32.33409090909091,
                "end_time": 40.95454545454545,
                "pitch": 0,
                "velocity": 51,
                "duration": 8.620454545454542,
                "tempo": 120.0
            },
            {
                "start_time": 40.95454545454545,
                "end_time": 41.48181818181818,
                "pitch": 36,
                "velocity": 51,
                "duration": 0.5272727272727238,
                "tempo": 120.0
            }
        ],
        "Vibraphone": [
            {
                "start_time": 0.006818181818181818,
                "end_time": 0.2681818181818182,
                "pitch": 76,
                "velocity": 51,
                "duration": 0.26136363636363635,
                "tempo": 120.0
            },
            {
                "start_time": 0.2681818181818182,
                "end_time": 0.5363636363636364,
                "pitch": 71,
                "velocity": 51,
                "duration": 0.2681818181818182,
                "tempo": 120.0
            },
            {
                "start_time": 0.5363636363636364,
                "end_time": 0.8022727272727272,
                "pitch": 74,
                "velocity": 51,
                "duration": 0.2659090909090909,
                "tempo": 120.0
            },
            {
                "start_time": 0.8045454545454545,
                "end_time": 1.0704545454545453,
                "pitch": 69,
                "velocity": 51,
                "duration": 0.2659090909090909,
                "tempo": 120.0
            },
            {
                "start_time": 1.0704545454545453,
                "end_time": 1.343181818181818,
                "pitch": 69,
                "velocity": 51,
                "duration": 0.2727272727272727,
                "tempo": 120.0
            },
            {
                "start_time": 1.343181818181818,
                "end_time": 1.6159090909090907,
                "pitch": 67,
                "velocity": 51,
                "duration": 0.2727272727272727,
                "tempo": 120.0
            },
            {
                "start_time": 1.6159090909090907,
                "end_time": 1.8818181818181818,
                "pitch": 67,
                "velocity": 51,
                "duration": 0.2659090909090911,
                "tempo": 120.0
            },
            {
                "start_time": 1.884090909090909,
                "end_time": 2.15,
                "pitch": 64,
                "velocity": 51,
                "duration": 0.2659090909090909,
                "tempo": 120.0
            },
            {
                "start_time": 2.1522727272727273,
                "end_time": 2.693181818181818,
                "pitch": 72,
                "velocity": 51,
                "duration": 0.5409090909090906,
                "tempo": 120.0
            },
            {
                "start_time": 2.6954545454545453,
                "end_time": 3.2295454545454545,
                "pitch": 65,
                "velocity": 51,
                "duration": 0.5340909090909092,
                "tempo": 120.0
            },
            {
                "start_time": 3.2295454545454545,
                "end_time": 4.309090909090909,
                "pitch": 65,
                "velocity": 51,
                "duration": 1.0795454545454541,
                "tempo": 120.0
            },
            {
                "start_time": 0.8045454545454545,
                "end_time": 4.3113636363636365,
                "pitch": 77,
                "velocity": 51,
                "duration": 3.506818181818182,
                "tempo": 120.0
            },
            {
                "start_time": 2.6954545454545453,
                "end_time": 4.845454545454545,
                "pitch": 60,
                "velocity": 51,
                "duration": 2.1499999999999995,
                "tempo": 120.0
            },
            {
                "start_time": 4.3113636363636365,
                "end_time": 4.845454545454545,
                "pitch": 72,
                "velocity": 51,
                "duration": 0.5340909090909083,
                "tempo": 120.0
            },
            {
                "start_time": 4.845454545454545,
                "end_time": 5.379545454545454,
                "pitch": 66,
                "velocity": 51,
                "duration": 0.5340909090909092,
                "tempo": 120.0
            },
            {
                "start_time": 5.379545454545454,
                "end_time": 5.925,
                "pitch": 66,
                "velocity": 51,
                "duration": 0.5454545454545459,
                "tempo": 120.0
            },
            {
                "start_time": 0.2681818181818182,
                "end_time": 5.925,
                "pitch": 78,
                "velocity": 51,
                "duration": 5.656818181818181,
                "tempo": 120.0
            },
            {
                "start_time": 5.925,
                "end_time": 6.459090909090909,
                "pitch": 72,
                "velocity": 51,
                "duration": 0.5340909090909092,
                "tempo": 120.0
            },
            {
                "start_time": 6.461363636363636,
                "end_time": 7.004545454545454,
                "pitch": 79,
                "velocity": 51,
                "duration": 0.543181818181818,
                "tempo": 120.0
            },
            {
                "start_time": 7.004545454545454,
                "end_time": 7.538636363636363,
                "pitch": 79,
                "velocity": 51,
                "duration": 0.5340909090909092,
                "tempo": 120.0
            },
            {
                "start_time": 7.54090909090909,
                "end_time": 8.620454545454544,
                "pitch": 79,
                "velocity": 51,
                "duration": 1.0795454545454541,
                "tempo": 120.0
            },
            {
                "start_time": 5.925,
                "end_time": 8.89090909090909,
                "pitch": 78,
                "velocity": 51,
                "duration": 2.965909090909091,
                "tempo": 120.0
            },
            {
                "start_time": 0.5363636363636364,
                "end_time": 9.163636363636364,
                "pitch": 56,
                "velocity": 51,
                "duration": 8.627272727272727,
                "tempo": 120.0
            },
            {
                "start_time": 1.343181818181818,
                "end_time": 9.163636363636364,
                "pitch": 71,
                "velocity": 51,
                "duration": 7.820454545454546,
                "tempo": 120.0
            },
            {
                "start_time": 8.89090909090909,
                "end_time": 9.163636363636364,
                "pitch": 71,
                "velocity": 51,
                "duration": 0.2727272727272734,
                "tempo": 120.0
            },
            {
                "start_time": 9.163636363636364,
                "end_time": 9.431818181818182,
                "pitch": 74,
                "velocity": 51,
                "duration": 0.26818181818181763,
                "tempo": 120.0
            },
            {
                "start_time": 4.3113636363636365,
                "end_time": 9.431818181818182,
                "pitch": 77,
                "velocity": 51,
                "duration": 5.120454545454545,
                "tempo": 120.0
            },
            {
                "start_time": 9.431818181818182,
                "end_time": 9.7,
                "pitch": 69,
                "velocity": 51,
                "duration": 0.26818181818181763,
                "tempo": 120.0
            },
            {
                "start_time": 9.7,
                "end_time": 9.96590909090909,
                "pitch": 69,
                "velocity": 51,
                "duration": 0.26590909090909065,
                "tempo": 120.0
            },
            {
                "start_time": 9.968181818181817,
                "end_time": 10.23409090909091,
                "pitch": 67,
                "velocity": 51,
                "duration": 0.2659090909090924,
                "tempo": 120.0
            },
            {
                "start_time": 1.884090909090909,
                "end_time": 10.506818181818181,
                "pitch": 31,
                "velocity": 51,
                "duration": 8.622727272727271,
                "tempo": 120.0
            },
            {
                "start_time": 10.23409090909091,
                "end_time": 10.506818181818181,
                "pitch": 67,
                "velocity": 51,
                "duration": 0.2727272727272716,
                "tempo": 120.0
            },
            {
                "start_time": 10.506818181818181,
                "end_time": 10.779545454545454,
                "pitch": 64,
                "velocity": 51,
                "duration": 0.2727272727272734,
                "tempo": 120.0
            },
            {
                "start_time": 2.1522727272727273,
                "end_time": 10.779545454545454,
                "pitch": 76,
                "velocity": 51,
                "duration": 8.627272727272727,
                "tempo": 120.0
            },
            {
                "start_time": 4.845454545454545,
                "end_time": 11.313636363636363,
                "pitch": 60,
                "velocity": 51,
                "duration": 6.468181818181818,
                "tempo": 120.0
            },
            {
                "start_time": 10.779545454545454,
                "end_time": 11.313636363636363,
                "pitch": 72,
                "velocity": 51,
                "duration": 0.5340909090909083,
                "tempo": 120.0
            },
            {
                "start_time": 11.313636363636363,
                "end_time": 11.85,
                "pitch": 65,
                "velocity": 51,
                "duration": 0.536363636363637,
                "tempo": 120.0
            },
            {
                "start_time": 11.85,
                "end_time": 12.929545454545455,
                "pitch": 65,
                "velocity": 51,
                "duration": 1.079545454545455,
                "tempo": 120.0
            },
            {
                "start_time": 8.89090909090909,
                "end_time": 12.929545454545455,
                "pitch": 78,
                "velocity": 51,
                "duration": 4.038636363636364,
                "tempo": 120.0
            },
            {
                "start_time": 12.929545454545455,
                "end_time": 13.472727272727273,
                "pitch": 67,
                "velocity": 51,
                "duration": 0.543181818181818,
                "tempo": 120.0
            },
            {
                "start_time": 13.472727272727273,
                "end_time": 14.009090909090908,
                "pitch": 67,
                "velocity": 51,
                "duration": 0.5363636363636353,
                "tempo": 120.0
            },
            {
                "start_time": 14.543181818181818,
                "end_time": 15.088636363636363,
                "pitch": 62,
                "velocity": 51,
                "duration": 0.545454545454545,
                "tempo": 120.0
            },
            {
                "start_time": 9.431818181818182,
                "end_time": 15.088636363636363,
                "pitch": 77,
                "velocity": 51,
                "duration": 5.656818181818181,
                "tempo": 120.0
            },
            {
                "start_time": 15.088636363636363,
                "end_time": 15.361363636363636,
                "pitch": 67,
                "velocity": 51,
                "duration": 0.2727272727272734,
                "tempo": 120.0
            },
            {
                "start_time": 15.361363636363636,
                "end_time": 15.631818181818181,
                "pitch": 67,
                "velocity": 51,
                "duration": 0.2704545454545446,
                "tempo": 120.0
            },
            {
                "start_time": 15.634090909090908,
                "end_time": 15.902272727272727,
                "pitch": 67,
                "velocity": 51,
                "duration": 0.2681818181818194,
                "tempo": 120.0
            },
            {
                "start_time": 15.902272727272727,
                "end_time": 16.168181818181818,
                "pitch": 67,
                "velocity": 51,
                "duration": 0.26590909090909065,
                "tempo": 120.0
            },
            {
                "start_time": 16.168181818181818,
                "end_time": 16.436363636363634,
                "pitch": 69,
                "velocity": 51,
                "duration": 0.26818181818181586,
                "tempo": 120.0
            },
            {
                "start_time": 16.436363636363634,
                "end_time": 16.702272727272728,
                "pitch": 69,
                "velocity": 51,
                "duration": 0.2659090909090942,
                "tempo": 120.0
            },
            {
                "start_time": 16.704545454545453,
                "end_time": 16.970454545454544,
                "pitch": 69,
                "velocity": 51,
                "duration": 0.26590909090909065,
                "tempo": 120.0
            },
            {
                "start_time": 16.970454545454544,
                "end_time": 17.238636363636363,
                "pitch": 69,
                "velocity": 51,
                "duration": 0.2681818181818194,
                "tempo": 120.0
            },
            {
                "start_time": 17.238636363636363,
                "end_time": 17.511363636363637,
                "pitch": 69,
                "velocity": 51,
                "duration": 0.2727272727272734,
                "tempo": 120.0
            },
            {
                "start_time": 17.511363636363637,
                "end_time": 17.784090909090907,
                "pitch": 67,
                "velocity": 51,
                "duration": 0.2727272727272698,
                "tempo": 120.0
            },
            {
                "start_time": 17.784090909090907,
                "end_time": 18.052272727272726,
                "pitch": 67,
                "velocity": 51,
                "duration": 0.2681818181818194,
                "tempo": 120.0
            },
            {
                "start_time": 18.052272727272726,
                "end_time": 18.318181818181817,
                "pitch": 67,
                "velocity": 51,
                "duration": 0.26590909090909065,
                "tempo": 120.0
            },
            {
                "start_time": 18.318181818181817,
                "end_time": 18.59090909090909,
                "pitch": 69,
                "velocity": 51,
                "duration": 0.2727272727272734,
                "tempo": 120.0
            },
            {
                "start_time": 18.59090909090909,
                "end_time": 18.863636363636363,
                "pitch": 69,
                "velocity": 51,
                "duration": 0.2727272727272734,
                "tempo": 120.0
            },
            {
                "start_time": 18.863636363636363,
                "end_time": 19.129545454545454,
                "pitch": 69,
                "velocity": 51,
                "duration": 0.26590909090909065,
                "tempo": 120.0
            },
            {
                "start_time": 19.13181818181818,
                "end_time": 19.397727272727273,
                "pitch": 69,
                "velocity": 51,
                "duration": 0.2659090909090942,
                "tempo": 120.0
            },
            {
                "start_time": 19.4,
                "end_time": 19.670454545454543,
                "pitch": 69,
                "velocity": 51,
                "duration": 0.2704545454545446,
                "tempo": 120.0
            },
            {
                "start_time": 19.670454545454543,
                "end_time": 19.943181818181817,
                "pitch": 67,
                "velocity": 51,
                "duration": 0.2727272727272734,
                "tempo": 120.0
            },
            {
                "start_time": 19.943181818181817,
                "end_time": 20.211363636363636,
                "pitch": 67,
                "velocity": 51,
                "duration": 0.2681818181818194,
                "tempo": 120.0
            },
            {
                "start_time": 11.313636363636363,
                "end_time": 20.745454545454546,
                "pitch": 60,
                "velocity": 51,
                "duration": 9.431818181818183,
                "tempo": 120.0
            },
            {
                "start_time": 20.479545454545452,
                "end_time": 20.745454545454546,
                "pitch": 60,
                "velocity": 51,
                "duration": 0.2659090909090942,
                "tempo": 120.0
            },
            {
                "start_time": 20.745454545454546,
                "end_time": 21.013636363636362,
                "pitch": 60,
                "velocity": 51,
                "duration": 0.26818181818181586,
                "tempo": 120.0
            },
            {
                "start_time": 10.779545454545454,
                "end_time": 21.013636363636362,
                "pitch": 76,
                "velocity": 51,
                "duration": 10.234090909090908,
                "tempo": 120.0
            },
            {
                "start_time": 9.968181818181817,
                "end_time": 21.284090909090907,
                "pitch": 71,
                "velocity": 51,
                "duration": 11.31590909090909,
                "tempo": 120.0
            },
            {
                "start_time": 21.013636363636362,
                "end_time": 21.284090909090907,
                "pitch": 71,
                "velocity": 51,
                "duration": 0.2704545454545446,
                "tempo": 120.0
            },
            {
                "start_time": 21.286363636363635,
                "end_time": 21.55909090909091,
                "pitch": 71,
                "velocity": 51,
                "duration": 0.2727272727272734,
                "tempo": 120.0
            },
            {
                "start_time": 14.543181818181818,
                "end_time": 22.09318181818182,
                "pitch": 64,
                "velocity": 51,
                "duration": 7.550000000000001,
                "tempo": 120.0
            },
            {
                "start_time": 21.825,
                "end_time": 22.09318181818182,
                "pitch": 64,
                "velocity": 32,
                "duration": 0.2681818181818194,
                "tempo": 120.0
            },
            {
                "start_time": 22.09318181818182,
                "end_time": 22.36590909090909,
                "pitch": 55,
                "velocity": 32,
                "duration": 0.2727272727272698,
                "tempo": 120.0
            },
            {
                "start_time": 12.929545454545455,
                "end_time": 22.638636363636362,
                "pitch": 78,
                "velocity": 51,
                "duration": 9.709090909090907,
                "tempo": 120.0
            },
            {
                "start_time": 22.638636363636362,
                "end_time": 22.904545454545453,
                "pitch": 67,
                "velocity": 32,
                "duration": 0.26590909090909065,
                "tempo": 120.0
            },
            {
                "start_time": 21.825,
                "end_time": 23.172727272727272,
                "pitch": 44,
                "velocity": 32,
                "duration": 1.3477272727272727,
                "tempo": 120.0
            },
            {
                "start_time": 22.90681818181818,
                "end_time": 23.172727272727272,
                "pitch": 71,
                "velocity": 32,
                "duration": 0.26590909090909065,
                "tempo": 120.0
            },
            {
                "start_time": 23.172727272727272,
                "end_time": 23.445454545454545,
                "pitch": 64,
                "velocity": 32,
                "duration": 0.2727272727272734,
                "tempo": 120.0
            },
            {
                "start_time": 22.638636363636362,
                "end_time": 23.445454545454545,
                "pitch": 78,
                "velocity": 32,
                "duration": 0.8068181818181834,
                "tempo": 120.0
            },
            {
                "start_time": 22.90681818181818,
                "end_time": 23.71818181818182,
                "pitch": 67,
                "velocity": 32,
                "duration": 0.8113636363636374,
                "tempo": 120.0
            },
            {
                "start_time": 23.445454545454545,
                "end_time": 23.71818181818182,
                "pitch": 67,
                "velocity": 32,
                "duration": 0.2727272727272734,
                "tempo": 120.0
            },
            {
                "start_time": 23.71818181818182,
                "end_time": 23.986363636363635,
                "pitch": 67,
                "velocity": 40,
                "duration": 0.26818181818181586,
                "tempo": 120.0
            },
            {
                "start_time": 23.986363636363635,
                "end_time": 24.254545454545454,
                "pitch": 69,
                "velocity": 40,
                "duration": 0.2681818181818194,
                "tempo": 120.0
            },
            {
                "start_time": 24.254545454545454,
                "end_time": 24.520454545454545,
                "pitch": 69,
                "velocity": 40,
                "duration": 0.26590909090909065,
                "tempo": 120.0
            },
            {
                "start_time": 10.506818181818181,
                "end_time": 24.788636363636364,
                "pitch": 31,
                "velocity": 51,
                "duration": 14.281818181818183,
                "tempo": 120.0
            },
            {
                "start_time": 24.520454545454545,
                "end_time": 24.788636363636364,
                "pitch": 69,
                "velocity": 40,
                "duration": 0.2681818181818194,
                "tempo": 120.0
            },
            {
                "start_time": 24.788636363636364,
                "end_time": 25.061363636363634,
                "pitch": 65,
                "velocity": 40,
                "duration": 0.2727272727272698,
                "tempo": 120.0
            },
            {
                "start_time": 25.061363636363634,
                "end_time": 25.334090909090907,
                "pitch": 65,
                "velocity": 40,
                "duration": 0.2727272727272734,
                "tempo": 120.0
            },
            {
                "start_time": 25.334090909090907,
                "end_time": 25.599999999999998,
                "pitch": 65,
                "velocity": 40,
                "duration": 0.26590909090909065,
                "tempo": 120.0
            },
            {
                "start_time": 25.599999999999998,
                "end_time": 25.868181818181817,
                "pitch": 65,
                "velocity": 40,
                "duration": 0.2681818181818194,
                "tempo": 120.0
            },
            {
                "start_time": 23.445454545454545,
                "end_time": 25.868181818181817,
                "pitch": 78,
                "velocity": 32,
                "duration": 2.422727272727272,
                "tempo": 120.0
            },
            {
                "start_time": 25.868181818181817,
                "end_time": 26.136363636363637,
                "pitch": 67,
                "velocity": 40,
                "duration": 0.2681818181818194,
                "tempo": 120.0
            },
            {
                "start_time": 26.136363636363637,
                "end_time": 26.402272727272727,
                "pitch": 67,
                "velocity": 40,
                "duration": 0.26590909090909065,
                "tempo": 120.0
            },
            {
                "start_time": 26.402272727272727,
                "end_time": 26.674999999999997,
                "pitch": 67,
                "velocity": 40,
                "duration": 0.2727272727272698,
                "tempo": 120.0
            },
            {
                "start_time": 26.674999999999997,
                "end_time": 26.94772727272727,
                "pitch": 67,
                "velocity": 40,
                "duration": 0.2727272727272734,
                "tempo": 120.0
            },
            {
                "start_time": 26.94772727272727,
                "end_time": 27.21590909090909,
                "pitch": 67,
                "velocity": 40,
                "duration": 0.2681818181818194,
                "tempo": 120.0
            },
            {
                "start_time": 27.21590909090909,
                "end_time": 27.48181818181818,
                "pitch": 67,
                "velocity": 40,
                "duration": 0.26590909090909065,
                "tempo": 120.0
            },
            {
                "start_time": 27.48181818181818,
                "end_time": 27.754545454545454,
                "pitch": 67,
                "velocity": 40,
                "duration": 0.2727272727272734,
                "tempo": 120.0
            },
            {
                "start_time": 27.754545454545454,
                "end_time": 28.027272727272727,
                "pitch": 67,
                "velocity": 40,
                "duration": 0.2727272727272734,
                "tempo": 120.0
            },
            {
                "start_time": 28.027272727272727,
                "end_time": 28.295454545454543,
                "pitch": 67,
                "velocity": 40,
                "duration": 0.26818181818181586,
                "tempo": 120.0
            },
            {
                "start_time": 28.295454545454543,
                "end_time": 28.563636363636363,
                "pitch": 68,
                "velocity": 40,
                "duration": 0.2681818181818194,
                "tempo": 120.0
            },
            {
                "start_time": 28.563636363636363,
                "end_time": 28.834090909090907,
                "pitch": 68,
                "velocity": 40,
                "duration": 0.2704545454545446,
                "tempo": 120.0
            },
            {
                "start_time": 28.836363636363636,
                "end_time": 29.10681818181818,
                "pitch": 68,
                "velocity": 40,
                "duration": 0.2704545454545446,
                "tempo": 120.0
            },
            {
                "start_time": 29.10909090909091,
                "end_time": 29.375,
                "pitch": 68,
                "velocity": 40,
                "duration": 0.26590909090909065,
                "tempo": 120.0
            },
            {
                "start_time": 29.375,
                "end_time": 29.643181818181816,
                "pitch": 68,
                "velocity": 40,
                "duration": 0.26818181818181586,
                "tempo": 120.0
            },
            {
                "start_time": 29.643181818181816,
                "end_time": 29.909090909090907,
                "pitch": 68,
                "velocity": 40,
                "duration": 0.26590909090909065,
                "tempo": 120.0
            },
            {
                "start_time": 29.909090909090907,
                "end_time": 30.177272727272726,
                "pitch": 68,
                "velocity": 40,
                "duration": 0.2681818181818194,
                "tempo": 120.0
            },
            {
                "start_time": 30.177272727272726,
                "end_time": 30.45,
                "pitch": 64,
                "velocity": 40,
                "duration": 0.2727272727272734,
                "tempo": 120.0
            },
            {
                "start_time": 30.45,
                "end_time": 30.722727272727273,
                "pitch": 64,
                "velocity": 40,
                "duration": 0.2727272727272734,
                "tempo": 120.0
            },
            {
                "start_time": 30.722727272727273,
                "end_time": 30.988636363636363,
                "pitch": 64,
                "velocity": 40,
                "duration": 0.26590909090909065,
                "tempo": 120.0
            },
            {
                "start_time": 30.99090909090909,
                "end_time": 31.25681818181818,
                "pitch": 64,
                "velocity": 40,
                "duration": 0.26590909090909065,
                "tempo": 120.0
            },
            {
                "start_time": 31.25681818181818,
                "end_time": 31.529545454545453,
                "pitch": 64,
                "velocity": 40,
                "duration": 0.2727272727272734,
                "tempo": 120.0
            },
            {
                "start_time": 31.529545454545453,
                "end_time": 31.802272727272726,
                "pitch": 64,
                "velocity": 40,
                "duration": 0.2727272727272734,
                "tempo": 120.0
            },
            {
                "start_time": 31.802272727272726,
                "end_time": 32.06818181818182,
                "pitch": 64,
                "velocity": 40,
                "duration": 0.2659090909090942,
                "tempo": 120.0
            },
            {
                "start_time": 32.070454545454545,
                "end_time": 32.336363636363636,
                "pitch": 64,
                "velocity": 40,
                "duration": 0.26590909090909065,
                "tempo": 120.0
            },
            {
                "start_time": 32.336363636363636,
                "end_time": 32.60454545454545,
                "pitch": 64,
                "velocity": 40,
                "duration": 0.26818181818181586,
                "tempo": 120.0
            },
            {
                "start_time": 32.60454545454545,
                "end_time": 32.87272727272727,
                "pitch": 65,
                "velocity": 40,
                "duration": 0.26818181818181586,
                "tempo": 120.0
            },
            {
                "start_time": 32.87272727272727,
                "end_time": 33.14545454545454,
                "pitch": 65,
                "velocity": 40,
                "duration": 0.2727272727272734,
                "tempo": 120.0
            },
            {
                "start_time": 33.14545454545454,
                "end_time": 33.41590909090909,
                "pitch": 65,
                "velocity": 40,
                "duration": 0.27045454545454817,
                "tempo": 120.0
            },
            {
                "start_time": 33.418181818181814,
                "end_time": 33.684090909090905,
                "pitch": 65,
                "velocity": 40,
                "duration": 0.26590909090909065,
                "tempo": 120.0
            },
            {
                "start_time": 33.684090909090905,
                "end_time": 33.95227272727273,
                "pitch": 65,
                "velocity": 40,
                "duration": 0.26818181818182296,
                "tempo": 120.0
            },
            {
                "start_time": 25.868181818181817,
                "end_time": 33.95227272727273,
                "pitch": 78,
                "velocity": 40,
                "duration": 8.08409090909091,
                "tempo": 120.0
            },
            {
                "start_time": 33.95227272727273,
                "end_time": 34.225,
                "pitch": 67,
                "velocity": 40,
                "duration": 0.2727272727272734,
                "tempo": 120.0
            },
            {
                "start_time": 34.225,
                "end_time": 34.49545454545454,
                "pitch": 67,
                "velocity": 40,
                "duration": 0.27045454545454106,
                "tempo": 120.0
            },
            {
                "start_time": 22.09318181818182,
                "end_time": 35.03181818181818,
                "pitch": 66,
                "velocity": 32,
                "duration": 12.938636363636363,
                "tempo": 120.0
            },
            {
                "start_time": 34.76590909090909,
                "end_time": 35.03181818181818,
                "pitch": 66,
                "velocity": 40,
                "duration": 0.26590909090909065,
                "tempo": 120.0
            },
            {
                "start_time": 35.03181818181818,
                "end_time": 35.304545454545455,
                "pitch": 66,
                "velocity": 40,
                "duration": 0.2727272727272734,
                "tempo": 120.0
            },
            {
                "start_time": 35.304545454545455,
                "end_time": 35.57727272727273,
                "pitch": 66,
                "velocity": 40,
                "duration": 0.2727272727272734,
                "tempo": 120.0
            },
            {
                "start_time": 35.57727272727273,
                "end_time": 35.84318181818182,
                "pitch": 66,
                "velocity": 40,
                "duration": 0.26590909090909065,
                "tempo": 120.0
            },
            {
                "start_time": 35.84318181818182,
                "end_time": 36.111363636363635,
                "pitch": 66,
                "velocity": 40,
                "duration": 0.26818181818181586,
                "tempo": 120.0
            },
            {
                "start_time": 36.111363636363635,
                "end_time": 36.37954545454545,
                "pitch": 66,
                "velocity": 40,
                "duration": 0.26818181818181586,
                "tempo": 120.0
            },
            {
                "start_time": 36.37954545454545,
                "end_time": 36.64772727272727,
                "pitch": 66,
                "velocity": 40,
                "duration": 0.26818181818182296,
                "tempo": 120.0
            },
            {
                "start_time": 36.64772727272727,
                "end_time": 36.92045454545455,
                "pitch": 66,
                "velocity": 40,
                "duration": 0.2727272727272734,
                "tempo": 120.0
            },
            {
                "start_time": 36.92045454545455,
                "end_time": 37.19090909090909,
                "pitch": 65,
                "velocity": 40,
                "duration": 0.27045454545454106,
                "tempo": 120.0
            },
            {
                "start_time": 37.19318181818181,
                "end_time": 37.45909090909091,
                "pitch": 65,
                "velocity": 40,
                "duration": 0.26590909090909776,
                "tempo": 120.0
            },
            {
                "start_time": 37.45909090909091,
                "end_time": 37.72727272727273,
                "pitch": 65,
                "velocity": 40,
                "duration": 0.26818181818181586,
                "tempo": 120.0
            },
            {
                "start_time": 37.72727272727273,
                "end_time": 37.99318181818182,
                "pitch": 65,
                "velocity": 40,
                "duration": 0.26590909090909065,
                "tempo": 120.0
            },
            {
                "start_time": 37.99545454545454,
                "end_time": 38.26136363636363,
                "pitch": 65,
                "velocity": 40,
                "duration": 0.26590909090909065,
                "tempo": 120.0
            },
            {
                "start_time": 38.26136363636363,
                "end_time": 38.53409090909091,
                "pitch": 65,
                "velocity": 40,
                "duration": 0.2727272727272734,
                "tempo": 120.0
            },
            {
                "start_time": 38.53409090909091,
                "end_time": 38.80681818181818,
                "pitch": 65,
                "velocity": 40,
                "duration": 0.2727272727272734,
                "tempo": 120.0
            },
            {
                "start_time": 38.80681818181818,
                "end_time": 39.07272727272727,
                "pitch": 65,
                "velocity": 40,
                "duration": 0.26590909090909065,
                "tempo": 120.0
            },
            {
                "start_time": 39.074999999999996,
                "end_time": 39.340909090909086,
                "pitch": 65,
                "velocity": 40,
                "duration": 0.26590909090909065,
                "tempo": 120.0
            },
            {
                "start_time": 39.340909090909086,
                "end_time": 39.61363636363636,
                "pitch": 65,
                "velocity": 40,
                "duration": 0.2727272727272734,
                "tempo": 120.0
            },
            {
                "start_time": 39.61363636363636,
                "end_time": 39.88636363636363,
                "pitch": 65,
                "velocity": 40,
                "duration": 0.2727272727272734,
                "tempo": 120.0
            },
            {
                "start_time": 39.88636363636363,
                "end_time": 40.154545454545456,
                "pitch": 65,
                "velocity": 40,
                "duration": 0.26818181818182296,
                "tempo": 120.0
            },
            {
                "start_time": 40.154545454545456,
                "end_time": 40.42045454545455,
                "pitch": 65,
                "velocity": 40,
                "duration": 0.26590909090909065,
                "tempo": 120.0
            },
            {
                "start_time": 40.42045454545455,
                "end_time": 40.68863636363636,
                "pitch": 65,
                "velocity": 40,
                "duration": 0.26818181818181586,
                "tempo": 120.0
            },
            {
                "start_time": 40.68863636363636,
                "end_time": 40.95681818181818,
                "pitch": 65,
                "velocity": 40,
                "duration": 0.26818181818181586,
                "tempo": 120.0
            },
            {
                "start_time": 15.088636363636363,
                "end_time": 41.22727272727273,
                "pitch": 77,
                "velocity": 51,
                "duration": 26.138636363636365,
                "tempo": 120.0
            },
            {
                "start_time": 40.959090909090904,
                "end_time": 41.22727272727273,
                "pitch": 77,
                "velocity": 51,
                "duration": 0.26818181818182296,
                "tempo": 120.0
            },
            {
                "start_time": 33.95227272727273,
                "end_time": 41.22727272727273,
                "pitch": 78,
                "velocity": 40,
                "duration": 7.274999999999999,
                "tempo": 120.0
            },
            {
                "start_time": 9.163636363636364,
                "end_time": 41.5,
                "pitch": 56,
                "velocity": 51,
                "duration": 32.336363636363636,
                "tempo": 120.0
            },
            {
                "start_time": 41.22727272727273,
                "end_time": 41.5,
                "pitch": 71,
                "velocity": 51,
                "duration": 0.2727272727272734,
                "tempo": 120.0
            },
            {
                "start_time": 41.5,
                "end_time": 41.502272727272725,
                "pitch": 74,
                "velocity": 51,
                "duration": 0.0022727272727252057,
                "tempo": 120.0
            }
        ]
    }
}