{
    "track_id": "04 Driver Info",
    "mood": "relaxed",
    "instruments": {
        "Trumpet": [
            {
                "start_time": 0.20909090909090908,
                "end_time": 0.40909090909090906,
                "pitch": 64,
                "velocity": 101,
                "duration": 0.19999999999999998,
                "tempo": 120.0
            },
            {
                "start_time": 0.40909090909090906,
                "end_time": 0.8090909090909091,
                "pitch": 62,
                "velocity": 101,
                "duration": 0.4,
                "tempo": 120.0
            },
            {
                "start_time": 0.8090909090909091,
                "end_time": 1.0068181818181818,
                "pitch": 64,
                "velocity": 101,
                "duration": 0.19772727272727275,
                "tempo": 120.0
            },
            {
                "start_time": 1.0068181818181818,
                "end_time": 1.4022727272727271,
                "pitch": 62,
                "velocity": 101,
                "duration": 0.3954545454545453,
                "tempo": 120.0
            },
            {
                "start_time": 1.4022727272727271,
                "end_time": 1.7727272727272727,
                "pitch": 64,
                "velocity": 101,
                "duration": 0.3704545454545456,
                "tempo": 120.0
            },
            {
                "start_time": 1.7727272727272727,
                "end_time": 1.9749999999999999,
                "pitch": 64,
                "velocity": 101,
                "duration": 0.20227272727272716,
                "tempo": 120.0
            },
            {
                "start_time": 1.9749999999999999,
                "end_time": 2.3454545454545452,
                "pitch": 62,
                "velocity": 101,
                "duration": 0.37045454545454537,
                "tempo": 120.0
            },
            {
                "start_time": 2.3454545454545452,
                "end_time": 2.5454545454545454,
                "pitch": 65,
                "velocity": 101,
                "duration": 0.20000000000000018,
                "tempo": 120.0
            },
            {
                "start_time": 2.5454545454545454,
                "end_time": 2.9454545454545453,
                "pitch": 64,
                "velocity": 101,
                "duration": 0.3999999999999999,
                "tempo": 120.0
            },
            {
                "start_time": 2.9454545454545453,
                "end_time": 3.3454545454545452,
                "pitch": 62,
                "velocity": 101,
                "duration": 0.3999999999999999,
                "tempo": 120.0
            },
            {
                "start_time": 3.3454545454545452,
                "end_time": 3.5477272727272724,
                "pitch": 62,
                "velocity": 101,
                "duration": 0.20227272727272716,
                "tempo": 120.0
            },
            {
                "start_time": 3.5477272727272724,
                "end_time": 3.918181818181818,
                "pitch": 60,
                "velocity": 101,
                "duration": 0.3704545454545456,
                "tempo": 120.0
            },
            {
                "start_time": 3.918181818181818,
                "end_time": 4.1022727272727275,
                "pitch": 62,
                "velocity": 101,
                "duration": 0.18409090909090953,
                "tempo": 120.0
            },
            {
                "start_time": 4.1022727272727275,
                "end_time": 4.488636363636363,
                "pitch": 60,
                "velocity": 101,
                "duration": 0.3863636363636358,
                "tempo": 120.0
            },
            {
                "start_time": 4.488636363636363,
                "end_time": 4.888636363636364,
                "pitch": 62,
                "velocity": 101,
                "duration": 0.40000000000000036,
                "tempo": 120.0
            },
            {
                "start_time": 4.888636363636364,
                "end_time": 5.090909090909091,
                "pitch": 62,
                "velocity": 101,
                "duration": 0.20227272727272716,
                "tempo": 120.0
            },
            {
                "start_time": 5.090909090909091,
                "end_time": 5.493181818181818,
                "pitch": 60,
                "velocity": 101,
                "duration": 0.40227272727272734,
                "tempo": 120.0
            },
            {
                "start_time": 5.493181818181818,
                "end_time": 5.693181818181818,
                "pitch": 65,
                "velocity": 101,
                "duration": 0.20000000000000018,
                "tempo": 120.0
            },
            {
                "start_time": 5.693181818181818,
                "end_time": 6.054545454545455,
                "pitch": 64,
                "velocity": 101,
                "duration": 0.36136363636363633,
                "tempo": 120.0
            },
            {
                "start_time": 6.054545454545455,
                "end_time": 7.220454545454545,
                "pitch": 60,
                "velocity": 101,
                "duration": 1.1659090909090901,
                "tempo": 120.0
            },
            {
                "start_time": 7.220454545454545,
                "end_time": 7.627272727272727,
                "pitch": 64,
                "velocity": 101,
                "duration": 0.4068181818181822,
                "tempo": 120.0
            },
            {
                "start_time": 7.627272727272727,
                "end_time": 8.381818181818181,
                "pitch": 62,
                "velocity": 101,
                "duration": 0.754545454545454,
                "tempo": 120.0
            },
            {
                "start_time": 8.381818181818181,
                "end_time": 9.372727272727273,
                "pitch": 59,
                "velocity": 101,
                "duration": 0.9909090909090921,
                "tempo": 120.0
            },
            {
                "start_time": 9.372727272727273,
                "end_time": 9.572727272727272,
                "pitch": 60,
                "velocity": 101,
                "duration": 0.1999999999999993,
                "tempo": 120.0
            },
            {
                "start_time": 9.572727272727272,
                "end_time": 9.775,
                "pitch": 60,
                "velocity": 101,
                "duration": 0.20227272727272805,
                "tempo": 120.0
            },
            {
                "start_time": 9.775,
                "end_time": 10.177272727272726,
                "pitch": 59,
                "velocity": 101,
                "duration": 0.40227272727272556,
                "tempo": 120.0
            },
            {
                "start_time": 10.177272727272726,
                "end_time": 10.347727272727273,
                "pitch": 60,
                "velocity": 101,
                "duration": 0.17045454545454675,
                "tempo": 120.0
            },
            {
                "start_time": 10.347727272727273,
                "end_time": 10.73181818181818,
                "pitch": 59,
                "velocity": 101,
                "duration": 0.38409090909090793,
                "tempo": 120.0
            },
            {
                "start_time": 10.73181818181818,
                "end_time": 11.118181818181817,
                "pitch": 60,
                "velocity": 101,
                "duration": 0.3863636363636367,
                "tempo": 120.0
            },
            {
                "start_time": 11.118181818181817,
                "end_time": 11.320454545454545,
                "pitch": 60,
                "velocity": 101,
                "duration": 0.20227272727272805,
                "tempo": 120.0
            },
            {
                "start_time": 11.320454545454545,
                "end_time": 11.720454545454546,
                "pitch": 59,
                "velocity": 101,
                "duration": 0.40000000000000036,
                "tempo": 120.0
            },
            {
                "start_time": 11.720454545454546,
                "end_time": 11.922727272727272,
                "pitch": 60,
                "velocity": 101,
                "duration": 0.20227272727272627,
                "tempo": 120.0
            },
            {
                "start_time": 11.922727272727272,
                "end_time": 12.495454545454544,
                "pitch": 62,
                "velocity": 101,
                "duration": 0.5727272727272723,
                "tempo": 120.0
            },
            {
                "start_time": 12.495454545454544,
                "end_time": 12.670454545454545,
                "pitch": 64,
                "velocity": 101,
                "duration": 0.1750000000000007,
                "tempo": 120.0
            },
            {
                "start_time": 12.670454545454545,
                "end_time": 12.85681818181818,
                "pitch": 64,
                "velocity": 101,
                "duration": 0.18636363636363562,
                "tempo": 120.0
            },
            {
                "start_time": 12.85681818181818,
                "end_time": 13.259090909090908,
                "pitch": 62,
                "velocity": 101,
                "duration": 0.40227272727272734,
                "tempo": 120.0
            },
            {
                "start_time": 13.268181818181818,
                "end_time": 13.470454545454546,
                "pitch": 64,
                "velocity": 101,
                "duration": 0.20227272727272805,
                "tempo": 120.0
            },
            {
                "start_time": 13.470454545454546,
                "end_time": 13.872727272727271,
                "pitch": 62,
                "velocity": 101,
                "duration": 0.40227272727272556,
                "tempo": 120.0
            },
            {
                "start_time": 13.872727272727271,
                "end_time": 14.274999999999999,
                "pitch": 64,
                "velocity": 101,
                "duration": 0.40227272727272734,
                "tempo": 120.0
            },
            {
                "start_time": 14.274999999999999,
                "end_time": 14.436363636363636,
                "pitch": 64,
                "velocity": 101,
                "duration": 0.16136363636363704,
                "tempo": 120.0
            },
            {
                "start_time": 14.436363636363636,
                "end_time": 14.806818181818182,
                "pitch": 62,
                "velocity": 101,
                "duration": 0.37045454545454604,
                "tempo": 120.0
            },
            {
                "start_time": 14.806818181818182,
                "end_time": 15.009090909090908,
                "pitch": 65,
                "velocity": 101,
                "duration": 0.20227272727272627,
                "tempo": 120.0
            },
            {
                "start_time": 15.009090909090908,
                "end_time": 15.404545454545454,
                "pitch": 64,
                "velocity": 101,
                "duration": 0.3954545454545464,
                "tempo": 120.0
            },
            {
                "start_time": 15.404545454545454,
                "end_time": 15.802272727272726,
                "pitch": 62,
                "velocity": 101,
                "duration": 0.3977272727272716,
                "tempo": 120.0
            },
            {
                "start_time": 15.802272727272726,
                "end_time": 16.002272727272725,
                "pitch": 62,
                "velocity": 101,
                "duration": 0.1999999999999993,
                "tempo": 120.0
            },
            {
                "start_time": 16.002272727272725,
                "end_time": 16.404545454545453,
                "pitch": 60,
                "velocity": 101,
                "duration": 0.40227272727272734,
                "tempo": 120.0
            },
            {
                "start_time": 16.404545454545453,
                "end_time": 16.575,
                "pitch": 62,
                "velocity": 101,
                "duration": 0.17045454545454675,
                "tempo": 120.0
            },
            {
                "start_time": 16.575,
                "end_time": 16.959090909090907,
                "pitch": 60,
                "velocity": 101,
                "duration": 0.38409090909090793,
                "tempo": 120.0
            },
            {
                "start_time": 16.959090909090907,
                "end_time": 17.345454545454544,
                "pitch": 62,
                "velocity": 101,
                "duration": 0.3863636363636367,
                "tempo": 120.0
            },
            {
                "start_time": 17.345454545454544,
                "end_time": 17.547727272727272,
                "pitch": 62,
                "velocity": 101,
                "duration": 0.20227272727272805,
                "tempo": 120.0
            },
            {
                "start_time": 17.547727272727272,
                "end_time": 17.94772727272727,
                "pitch": 60,
                "velocity": 101,
                "duration": 0.3999999999999986,
                "tempo": 120.0
            },
            {
                "start_time": 17.94772727272727,
                "end_time": 18.147727272727273,
                "pitch": 65,
                "velocity": 101,
                "duration": 0.20000000000000284,
                "tempo": 120.0
            },
            {
                "start_time": 18.147727272727273,
                "end_time": 18.547727272727272,
                "pitch": 64,
                "velocity": 101,
                "duration": 0.3999999999999986,
                "tempo": 120.0
            },
            {
                "start_time": 18.547727272727272,
                "end_time": 19.69090909090909,
                "pitch": 64,
                "velocity": 101,
                "duration": 1.1431818181818194,
                "tempo": 120.0
            },
            {
                "start_time": 19.69090909090909,
                "end_time": 20.09090909090909,
                "pitch": 65,
                "velocity": 101,
                "duration": 0.3999999999999986,
                "tempo": 120.0
            },
            {
                "start_time": 20.09090909090909,
                "end_time": 20.849999999999998,
                "pitch": 64,
                "velocity": 101,
                "duration": 0.7590909090909079,
                "tempo": 120.0
            },
            {
                "start_time": 20.849999999999998,
                "end_time": 21.81590909090909,
                "pitch": 60,
                "velocity": 101,
                "duration": 0.9659090909090935,
                "tempo": 120.0
            },
            {
                "start_time": 21.81590909090909,
                "end_time": 22.020454545454545,
                "pitch": 64,
                "velocity": 101,
                "duration": 0.20454545454545325,
                "tempo": 120.0
            },
            {
                "start_time": 22.020454545454545,
                "end_time": 22.227272727272727,
                "pitch": 64,
                "velocity": 101,
                "duration": 0.206818181818182,
                "tempo": 120.0
            },
            {
                "start_time": 22.227272727272727,
                "end_time": 22.627272727272725,
                "pitch": 62,
                "velocity": 101,
                "duration": 0.3999999999999986,
                "tempo": 120.0
            },
            {
                "start_time": 22.627272727272725,
                "end_time": 22.82272727272727,
                "pitch": 64,
                "velocity": 101,
                "duration": 0.19545454545454533,
                "tempo": 120.0
            },
            {
                "start_time": 22.82272727272727,
                "end_time": 23.174999999999997,
                "pitch": 62,
                "velocity": 101,
                "duration": 0.3522727272727266,
                "tempo": 120.0
            },
            {
                "start_time": 23.174999999999997,
                "end_time": 23.55909090909091,
                "pitch": 64,
                "velocity": 101,
                "duration": 0.3840909090909115,
                "tempo": 120.0
            },
            {
                "start_time": 23.55909090909091,
                "end_time": 23.759090909090908,
                "pitch": 64,
                "velocity": 101,
                "duration": 0.1999999999999993,
                "tempo": 120.0
            },
            {
                "start_time": 23.759090909090908,
                "end_time": 24.163636363636364,
                "pitch": 62,
                "velocity": 101,
                "duration": 0.4045454545454561,
                "tempo": 120.0
            },
            {
                "start_time": 24.163636363636364,
                "end_time": 24.363636363636363,
                "pitch": 64,
                "velocity": 101,
                "duration": 0.1999999999999993,
                "tempo": 120.0
            },
            {
                "start_time": 24.363636363636363,
                "end_time": 24.93409090909091,
                "pitch": 59,
                "velocity": 101,
                "duration": 0.5704545454545453,
                "tempo": 120.0
            },
            {
                "start_time": 24.93409090909091,
                "end_time": 25.120454545454542,
                "pitch": 60,
                "velocity": 101,
                "duration": 0.18636363636363384,
                "tempo": 120.0
            },
            {
                "start_time": 25.120454545454542,
                "end_time": 25.304545454545455,
                "pitch": 60,
                "velocity": 101,
                "duration": 0.1840909090909122,
                "tempo": 120.0
            },
            {
                "start_time": 25.304545454545455,
                "end_time": 25.50681818181818,
                "pitch": 60,
                "velocity": 101,
                "duration": 0.2022727272727245,
                "tempo": 120.0
            },
            {
                "start_time": 25.50681818181818,
                "end_time": 25.709090909090907,
                "pitch": 60,
                "velocity": 101,
                "duration": 0.20227272727272805,
                "tempo": 120.0
            },
            {
                "start_time": 25.709090909090907,
                "end_time": 25.909090909090907,
                "pitch": 60,
                "velocity": 101,
                "duration": 0.1999999999999993,
                "tempo": 120.0
            },
            {
                "start_time": 25.909090909090907,
                "end_time": 26.10909090909091,
                "pitch": 60,
                "velocity": 101,
                "duration": 0.20000000000000284,
                "tempo": 120.0
            },
            {
                "start_time": 26.10909090909091,
                "end_time": 26.30909090909091,
                "pitch": 60,
                "velocity": 101,
                "duration": 0.1999999999999993,
                "tempo": 120.0
            },
            {
                "start_time": 26.30909090909091,
                "end_time": 26.511363636363637,
                "pitch": 60,
                "velocity": 101,
                "duration": 0.20227272727272805,
                "tempo": 120.0
            },
            {
                "start_time": 26.511363636363637,
                "end_time": 26.711363636363636,
                "pitch": 62,
                "velocity": 101,
                "duration": 0.1999999999999993,
                "tempo": 120.0
            },
            {
                "start_time": 26.711363636363636,
                "end_time": 26.911363636363635,
                "pitch": 62,
                "velocity": 101,
                "duration": 0.1999999999999993,
                "tempo": 120.0
            },
            {
                "start_time": 26.911363636363635,
                "end_time": 27.081818181818182,
                "pitch": 62,
                "velocity": 101,
                "duration": 0.17045454545454675,
                "tempo": 120.0
            },
            {
                "start_time": 27.081818181818182,
                "end_time": 27.270454545454545,
                "pitch": 62,
                "velocity": 101,
                "duration": 0.1886363636363626,
                "tempo": 120.0
            },
            {
                "start_time": 27.270454545454545,
                "end_time": 27.456818181818182,
                "pitch": 62,
                "velocity": 101,
                "duration": 0.1863636363636374,
                "tempo": 120.0
            },
            {
                "start_time": 27.456818181818182,
                "end_time": 27.64090909090909,
                "pitch": 62,
                "velocity": 101,
                "duration": 0.18409090909090864,
                "tempo": 120.0
            },
            {
                "start_time": 27.64090909090909,
                "end_time": 27.84090909090909,
                "pitch": 62,
                "velocity": 101,
                "duration": 0.1999999999999993,
                "tempo": 120.0
            },
            {
                "start_time": 27.84090909090909,
                "end_time": 28.052272727272726,
                "pitch": 62,
                "velocity": 101,
                "duration": 0.21136363636363598,
                "tempo": 120.0
            },
            {
                "start_time": 28.052272727272726,
                "end_time": 28.243181818181817,
                "pitch": 62,
                "velocity": 101,
                "duration": 0.19090909090909136,
                "tempo": 120.0
            },
            {
                "start_time": 28.243181818181817,
                "end_time": 28.443181818181817,
                "pitch": 62,
                "velocity": 101,
                "duration": 0.1999999999999993,
                "tempo": 120.0
            },
            {
                "start_time": 28.443181818181817,
                "end_time": 28.643181818181816,
                "pitch": 62,
                "velocity": 101,
                "duration": 0.1999999999999993,
                "tempo": 120.0
            },
            {
                "start_time": 28.643181818181816,
                "end_time": 28.854545454545452,
                "pitch": 62,
                "velocity": 101,
                "duration": 0.21136363636363598,
                "tempo": 120.0
            },
            {
                "start_time": 28.854545454545452,
                "end_time": 29.04090909090909,
                "pitch": 62,
                "velocity": 101,
                "duration": 0.1863636363636374,
                "tempo": 120.0
            },
            {
                "start_time": 29.04090909090909,
                "end_time": 29.206818181818182,
                "pitch": 62,
                "velocity": 101,
                "duration": 0.16590909090909278,
                "tempo": 120.0
            },
            {
                "start_time": 29.206818181818182,
                "end_time": 29.39090909090909,
                "pitch": 62,
                "velocity": 101,
                "duration": 0.18409090909090864,
                "tempo": 120.0
            },
            {
                "start_time": 29.39090909090909,
                "end_time": 29.577272727272724,
                "pitch": 62,
                "velocity": 101,
                "duration": 0.18636363636363384,
                "tempo": 120.0
            },
            {
                "start_time": 29.577272727272724,
                "end_time": 29.777272727272727,
                "pitch": 64,
                "velocity": 101,
                "duration": 0.20000000000000284,
                "tempo": 120.0
            },
            {
                "start_time": 29.777272727272727,
                "end_time": 29.977272727272727,
                "pitch": 64,
                "velocity": 101,
                "duration": 0.1999999999999993,
                "tempo": 120.0
            },
            {
                "start_time": 29.977272727272727,
                "end_time": 30.179545454545455,
                "pitch": 64,
                "velocity": 101,
                "duration": 0.20227272727272805,
                "tempo": 120.0
            },
            {
                "start_time": 30.179545454545455,
                "end_time": 30.379545454545454,
                "pitch": 64,
                "velocity": 101,
                "duration": 0.1999999999999993,
                "tempo": 120.0
            },
            {
                "start_time": 30.379545454545454,
                "end_time": 30.579545454545453,
                "pitch": 64,
                "velocity": 101,
                "duration": 0.1999999999999993,
                "tempo": 120.0
            },
            {
                "start_time": 30.579545454545453,
                "end_time": 30.779545454545453,
                "pitch": 64,
                "velocity": 101,
                "duration": 0.1999999999999993,
                "tempo": 120.0
            },
            {
                "start_time": 30.779545454545453,
                "end_time": 30.979545454545452,
                "pitch": 64,
                "velocity": 101,
                "duration": 0.1999999999999993,
                "tempo": 120.0
            },
            {
                "start_time": 30.979545454545452,
                "end_time": 31.179545454545455,
                "pitch": 64,
                "velocity": 101,
                "duration": 0.20000000000000284,
                "tempo": 120.0
            },
            {
                "start_time": 31.179545454545455,
                "end_time": 31.349999999999998,
                "pitch": 60,
                "velocity": 101,
                "duration": 0.1704545454545432,
                "tempo": 120.0
            },
            {
                "start_time": 31.349999999999998,
                "end_time": 31.552272727272726,
                "pitch": 60,
                "velocity": 101,
                "duration": 0.20227272727272805,
                "tempo": 120.0
            },
            {
                "start_time": 31.552272727272726,
                "end_time": 31.736363636363635,
                "pitch": 60,
                "velocity": 101,
                "duration": 0.18409090909090864,
                "tempo": 120.0
            },
            {
                "start_time": 31.736363636363635,
                "end_time": 31.922727272727272,
                "pitch": 60,
                "velocity": 101,
                "duration": 0.1863636363636374,
                "tempo": 120.0
            },
            {
                "start_time": 31.922727272727272,
                "end_time": 32.12272727272727,
                "pitch": 60,
                "velocity": 101,
                "duration": 0.19999999999999574,
                "tempo": 120.0
            },
            {
                "start_time": 32.12272727272727,
                "end_time": 32.32272727272727,
                "pitch": 60,
                "velocity": 101,
                "duration": 0.20000000000000284,
                "tempo": 120.0
            },
            {
                "start_time": 32.32272727272727,
                "end_time": 32.52272727272727,
                "pitch": 60,
                "velocity": 101,
                "duration": 0.20000000000000284,
                "tempo": 120.0
            },
            {
                "start_time": 32.52272727272727,
                "end_time": 32.72272727272727,
                "pitch": 60,
                "velocity": 101,
                "duration": 0.19999999999999574,
                "tempo": 120.0
            },
            {
                "start_time": 32.72272727272727,
                "end_time": 32.92272727272727,
                "pitch": 60,
                "velocity": 101,
                "duration": 0.20000000000000284,
                "tempo": 120.0
            },
            {
                "start_time": 32.92272727272727,
                "end_time": 33.12272727272727,
                "pitch": 60,
                "velocity": 101,
                "duration": 0.19999999999999574,
                "tempo": 120.0
            },
            {
                "start_time": 33.12272727272727,
                "end_time": 33.324999999999996,
                "pitch": 60,
                "velocity": 101,
                "duration": 0.20227272727272805,
                "tempo": 120.0
            },
            {
                "start_time": 33.324999999999996,
                "end_time": 33.49545454545454,
                "pitch": 60,
                "velocity": 101,
                "duration": 0.17045454545454675,
                "tempo": 120.0
            },
            {
                "start_time": 33.49545454545454,
                "end_time": 33.679545454545455,
                "pitch": 60,
                "velocity": 101,
                "duration": 0.1840909090909122,
                "tempo": 120.0
            },
            {
                "start_time": 33.679545454545455,
                "end_time": 33.86590909090909,
                "pitch": 60,
                "velocity": 101,
                "duration": 0.1863636363636374,
                "tempo": 120.0
            },
            {
                "start_time": 33.86590909090909,
                "end_time": 34.06590909090909,
                "pitch": 60,
                "velocity": 101,
                "duration": 0.19999999999999574,
                "tempo": 120.0
            },
            {
                "start_time": 34.06590909090909,
                "end_time": 34.26590909090909,
                "pitch": 60,
                "velocity": 101,
                "duration": 0.20000000000000284,
                "tempo": 120.0
            },
            {
                "start_time": 34.26590909090909,
                "end_time": 34.465909090909086,
                "pitch": 62,
                "velocity": 101,
                "duration": 0.19999999999999574,
                "tempo": 120.0
            },
            {
                "start_time": 34.465909090909086,
                "end_time": 34.66590909090909,
                "pitch": 62,
                "velocity": 101,
                "duration": 0.20000000000000284,
                "tempo": 120.0
            },
            {
                "start_time": 34.66590909090909,
                "end_time": 34.86590909090909,
                "pitch": 62,
                "velocity": 101,
                "duration": 0.20000000000000284,
                "tempo": 120.0
            },
            {
                "start_time": 34.86590909090909,
                "end_time": 35.06818181818181,
                "pitch": 62,
                "velocity": 101,
                "duration": 0.20227272727272094,
                "tempo": 120.0
            },
            {
                "start_time": 35.06818181818181,
                "end_time": 35.268181818181816,
                "pitch": 62,
                "velocity": 101,
                "duration": 0.20000000000000284,
                "tempo": 120.0
            },
            {
                "start_time": 35.268181818181816,
                "end_time": 35.46818181818182,
                "pitch": 62,
                "velocity": 101,
                "duration": 0.20000000000000284,
                "tempo": 120.0
            },
            {
                "start_time": 35.46818181818182,
                "end_time": 35.627272727272725,
                "pitch": 62,
                "velocity": 101,
                "duration": 0.1590909090909065,
                "tempo": 120.0
            },
            {
                "start_time": 35.627272727272725,
                "end_time": 35.82727272727273,
                "pitch": 62,
                "velocity": 101,
                "duration": 0.20000000000000284,
                "tempo": 120.0
            },
            {
                "start_time": 35.82727272727273,
                "end_time": 36.01363636363636,
                "pitch": 59,
                "velocity": 101,
                "duration": 0.1863636363636303,
                "tempo": 120.0
            },
            {
                "start_time": 36.01363636363636,
                "end_time": 36.199999999999996,
                "pitch": 59,
                "velocity": 101,
                "duration": 0.1863636363636374,
                "tempo": 120.0
            },
            {
                "start_time": 36.199999999999996,
                "end_time": 36.39545454545454,
                "pitch": 59,
                "velocity": 101,
                "duration": 0.19545454545454533,
                "tempo": 120.0
            },
            {
                "start_time": 36.39545454545454,
                "end_time": 36.590909090909086,
                "pitch": 62,
                "velocity": 101,
                "duration": 0.19545454545454533,
                "tempo": 120.0
            },
            {
                "start_time": 36.590909090909086,
                "end_time": 36.79090909090909,
                "pitch": 62,
                "velocity": 101,
                "duration": 0.20000000000000284,
                "tempo": 120.0
            },
            {
                "start_time": 36.79090909090909,
                "end_time": 36.99090909090909,
                "pitch": 62,
                "velocity": 101,
                "duration": 0.20000000000000284,
                "tempo": 120.0
            },
            {
                "start_time": 36.99090909090909,
                "end_time": 37.19772727272727,
                "pitch": 62,
                "velocity": 101,
                "duration": 0.20681818181817846,
                "tempo": 120.0
            },
            {
                "start_time": 37.19772727272727,
                "end_time": 37.402272727272724,
                "pitch": 62,
                "velocity": 101,
                "duration": 0.20454545454545325,
                "tempo": 120.0
            },
            {
                "start_time": 37.402272727272724,
                "end_time": 37.56818181818181,
                "pitch": 64,
                "velocity": 101,
                "duration": 0.16590909090908923,
                "tempo": 120.0
            },
            {
                "start_time": 37.56818181818181,
                "end_time": 37.76590909090909,
                "pitch": 65,
                "velocity": 101,
                "duration": 0.19772727272727764,
                "tempo": 120.0
            },
            {
                "start_time": 37.76590909090909,
                "end_time": 37.949999999999996,
                "pitch": 67,
                "velocity": 101,
                "duration": 0.18409090909090509,
                "tempo": 120.0
            },
            {
                "start_time": 37.949999999999996,
                "end_time": 38.13636363636363,
                "pitch": 64,
                "velocity": 101,
                "duration": 0.1863636363636374,
                "tempo": 120.0
            },
            {
                "start_time": 38.13636363636363,
                "end_time": 38.336363636363636,
                "pitch": 65,
                "velocity": 101,
                "duration": 0.20000000000000284,
                "tempo": 120.0
            },
            {
                "start_time": 38.336363636363636,
                "end_time": 38.53636363636363,
                "pitch": 67,
                "velocity": 101,
                "duration": 0.19999999999999574,
                "tempo": 120.0
            },
            {
                "start_time": 38.53636363636363,
                "end_time": 38.736363636363635,
                "pitch": 64,
                "velocity": 101,
                "duration": 0.20000000000000284,
                "tempo": 120.0
            },
            {
                "start_time": 38.736363636363635,
                "end_time": 38.93863636363636,
                "pitch": 65,
                "velocity": 101,
                "duration": 0.20227272727272805,
                "tempo": 120.0
            },
            {
                "start_time": 38.93863636363636,
                "end_time": 39.13863636363636,
                "pitch": 67,
                "velocity": 101,
                "duration": 0.19999999999999574,
                "tempo": 120.0
            },
            {
                "start_time": 39.13863636363636,
                "end_time": 39.33863636363636,
                "pitch": 64,
                "velocity": 101,
                "duration": 0.20000000000000284,
                "tempo": 120.0
            },
            {
                "start_time": 39.33863636363636,
                "end_time": 39.538636363636364,
                "pitch": 65,
                "velocity": 101,
                "duration": 0.20000000000000284,
                "tempo": 120.0
            },
            {
                "start_time": 39.538636363636364,
                "end_time": 39.70681818181818,
                "pitch": 67,
                "velocity": 101,
                "duration": 0.16818181818181444,
                "tempo": 120.0
            },
            {
                "start_time": 39.70681818181818,
                "end_time": 39.893181818181816,
                "pitch": 64,
                "velocity": 101,
                "duration": 0.1863636363636374,
                "tempo": 120.0
            },
            {
                "start_time": 39.893181818181816,
                "end_time": 40.07727272727273,
                "pitch": 65,
                "velocity": 101,
                "duration": 0.1840909090909122,
                "tempo": 120.0
            },
            {
                "start_time": 40.07727272727273,
                "end_time": 40.279545454545456,
                "pitch": 67,
                "velocity": 101,
                "duration": 0.20227272727272805,
                "tempo": 120.0
            },
            {
                "start_time": 40.279545454545456,
                "end_time": 40.48181818181818,
                "pitch": 64,
                "velocity": 101,
                "duration": 0.20227272727272094,
                "tempo": 120.0
            },
            {
                "start_time": 40.48181818181818,
                "end_time": 40.68181818181818,
                "pitch": 61,
                "velocity": 101,
                "duration": 0.20000000000000284,
                "tempo": 120.0
            },
            {
                "start_time": 40.68181818181818,
                "end_time": 40.88181818181818,
                "pitch": 62,
                "velocity": 101,
                "duration": 0.20000000000000284,
                "tempo": 120.0
            },
            {
                "start_time": 40.88181818181818,
                "end_time": 41.08181818181818,
                "pitch": 64,
                "velocity": 101,
                "duration": 0.19999999999999574,
                "tempo": 120.0
            },
            {
                "start_time": 41.08181818181818,
                "end_time": 41.28181818181818,
                "pitch": 61,
                "velocity": 101,
                "duration": 0.20000000000000284,
                "tempo": 120.0
            },
            {
                "start_time": 41.28181818181818,
                "end_time": 41.48181818181818,
                "pitch": 62,
                "velocity": 101,
                "duration": 0.19999999999999574,
                "tempo": 120.0
            },
            {
                "start_time": 41.48181818181818,
                "end_time": 41.68181818181818,
                "pitch": 64,
                "velocity": 101,
                "duration": 0.20000000000000284,
                "tempo": 120.0
            },
            {
                "start_time": 41.68181818181818,
                "end_time": 41.840909090909086,
                "pitch": 61,
                "velocity": 101,
                "duration": 0.1590909090909065,
                "tempo": 120.0
            },
            {
                "start_time": 41.840909090909086,
                "end_time": 42.04090909090909,
                "pitch": 62,
                "velocity": 101,
                "duration": 0.20000000000000284,
                "tempo": 120.0
            },
            {
                "start_time": 42.04090909090909,
                "end_time": 42.22727272727273,
                "pitch": 64,
                "velocity": 101,
                "duration": 0.1863636363636374,
                "tempo": 120.0
            },
            {
                "start_time": 42.22727272727273,
                "end_time": 42.41136363636363,
                "pitch": 65,
                "velocity": 101,
                "duration": 0.18409090909090509,
                "tempo": 120.0
            },
            {
                "start_time": 42.41136363636363,
                "end_time": 42.611363636363635,
                "pitch": 67,
                "velocity": 101,
                "duration": 0.20000000000000284,
                "tempo": 120.0
            },
            {
                "start_time": 42.611363636363635,
                "end_time": 42.81136363636364,
                "pitch": 64,
                "velocity": 101,
                "duration": 0.20000000000000284,
                "tempo": 120.0
            },
            {
                "start_time": 42.81136363636364,
                "end_time": 43.01136363636363,
                "pitch": 65,
                "velocity": 101,
                "duration": 0.19999999999999574,
                "tempo": 120.0
            },
            {
                "start_time": 43.01136363636363,
                "end_time": 43.211363636363636,
                "pitch": 67,
                "velocity": 101,
                "duration": 0.20000000000000284,
                "tempo": 120.0
            },
            {
                "start_time": 43.211363636363636,
                "end_time": 43.41136363636363,
                "pitch": 64,
                "velocity": 101,
                "duration": 0.19999999999999574,
                "tempo": 120.0
            },
            {
                "start_time": 43.41136363636363,
                "end_time": 43.611363636363635,
                "pitch": 67,
                "velocity": 101,
                "duration": 0.20000000000000284,
                "tempo": 120.0
            },
            {
                "start_time": 43.611363636363635,
                "end_time": 43.80681818181818,
                "pitch": 62,
                "velocity": 101,
                "duration": 0.19545454545454533,
                "tempo": 120.0
            },
            {
                "start_time": 43.80681818181818,
                "end_time": 43.974999999999994,
                "pitch": 64,
                "velocity": 101,
                "duration": 0.16818181818181444,
                "tempo": 120.0
            },
            {
                "start_time": 43.974999999999994,
                "end_time": 44.15909090909091,
                "pitch": 65,
                "velocity": 101,
                "duration": 0.1840909090909122,
                "tempo": 120.0
            },
            {
                "start_time": 44.15909090909091,
                "end_time": 44.345454545454544,
                "pitch": 62,
                "velocity": 101,
                "duration": 0.1863636363636374,
                "tempo": 120.0
            },
            {
                "start_time": 44.345454545454544,
                "end_time": 44.54545454545455,
                "pitch": 64,
                "velocity": 101,
                "duration": 0.20000000000000284,
                "tempo": 120.0
            },
            {
                "start_time": 44.54545454545455,
                "end_time": 44.74545454545454,
                "pitch": 65,
                "velocity": 101,
                "duration": 0.19999999999999574,
                "tempo": 120.0
            },
            {
                "start_time": 44.74545454545454,
                "end_time": 44.945454545454545,
                "pitch": 62,
                "velocity": 101,
                "duration": 0.20000000000000284,
                "tempo": 120.0
            },
            {
                "start_time": 44.945454545454545,
                "end_time": 45.14545454545454,
                "pitch": 64,
                "velocity": 101,
                "duration": 0.19999999999999574,
                "tempo": 120.0
            },
            {
                "start_time": 45.14545454545454,
                "end_time": 45.345454545454544,
                "pitch": 65,
                "velocity": 101,
                "duration": 0.20000000000000284,
                "tempo": 120.0
            },
            {
                "start_time": 45.345454545454544,
                "end_time": 45.54545454545455,
                "pitch": 62,
                "velocity": 101,
                "duration": 0.20000000000000284,
                "tempo": 120.0
            },
            {
                "start_time": 45.54545454545455,
                "end_time": 45.74545454545454,
                "pitch": 64,
                "velocity": 101,
                "duration": 0.19999999999999574,
                "tempo": 120.0
            },
            {
                "start_time": 45.74545454545454,
                "end_time": 45.945454545454545,
                "pitch": 65,
                "velocity": 101,
                "duration": 0.20000000000000284,
                "tempo": 120.0
            },
            {
                "start_time": 45.945454545454545,
                "end_time": 46.11590909090909,
                "pitch": 62,
                "velocity": 101,
                "duration": 0.17045454545454675,
                "tempo": 120.0
            },
            {
                "start_time": 46.11590909090909,
                "end_time": 46.31590909090909,
                "pitch": 64,
                "velocity": 101,
                "duration": 0.19999999999999574,
                "tempo": 120.0
            },
            {
                "start_time": 46.31590909090909,
                "end_time": 46.502272727272725,
                "pitch": 65,
                "velocity": 101,
                "duration": 0.1863636363636374,
                "tempo": 120.0
            },
            {
                "start_time": 46.502272727272725,
                "end_time": 46.68636363636364,
                "pitch": 62,
                "velocity": 101,
                "duration": 0.1840909090909122,
                "tempo": 120.0
            },
            {
                "start_time": 46.68636363636364,
                "end_time": 46.88636363636363,
                "pitch": 59,
                "velocity": 101,
                "duration": 0.19999999999999574,
                "tempo": 120.0
            },
            {
                "start_time": 46.88636363636363,
                "end_time": 47.086363636363636,
                "pitch": 60,
                "velocity": 101,
                "duration": 0.20000000000000284,
                "tempo": 120.0
            },
            {
                "start_time": 47.086363636363636,
                "end_time": 47.28636363636363,
                "pitch": 62,
                "velocity": 101,
                "duration": 0.19999999999999574,
                "tempo": 120.0
            },
            {
                "start_time": 47.28636363636363,
                "end_time": 47.486363636363635,
                "pitch": 59,
                "velocity": 101,
                "duration": 0.20000000000000284,
                "tempo": 120.0
            },
            {
                "start_time": 47.486363636363635,
                "end_time": 47.68863636363636,
                "pitch": 60,
                "velocity": 101,
                "duration": 0.20227272727272805,
                "tempo": 120.0
            },
            {
                "start_time": 47.68863636363636,
                "end_time": 47.89090909090909,
                "pitch": 62,
                "velocity": 101,
                "duration": 0.20227272727272805,
                "tempo": 120.0
            },
            {
                "start_time": 47.89090909090909,
                "end_time": 48.090909090909086,
                "pitch": 59,
                "velocity": 101,
                "duration": 0.19999999999999574,
                "tempo": 120.0
            },
            {
                "start_time": 48.090909090909086,
                "end_time": 48.25909090909091,
                "pitch": 60,
                "velocity": 101,
                "duration": 0.16818181818182154,
                "tempo": 120.0
            },
            {
                "start_time": 48.25909090909091,
                "end_time": 48.445454545454545,
                "pitch": 62,
                "velocity": 101,
                "duration": 0.1863636363636374,
                "tempo": 120.0
            },
            {
                "start_time": 48.445454545454545,
                "end_time": 48.62954545454545,
                "pitch": 59,
                "velocity": 101,
                "duration": 0.18409090909090509,
                "tempo": 120.0
            },
            {
                "start_time": 48.62954545454545,
                "end_time": 48.82954545454545,
                "pitch": 60,
                "velocity": 101,
                "duration": 0.20000000000000284,
                "tempo": 120.0
            },
            {
                "start_time": 48.82954545454545,
                "end_time": 49.02954545454545,
                "pitch": 62,
                "velocity": 101,
                "duration": 0.19999999999999574,
                "tempo": 120.0
            },
            {
                "start_time": 49.02954545454545,
                "end_time": 49.22954545454545,
                "pitch": 59,
                "velocity": 101,
                "duration": 0.20000000000000284,
                "tempo": 120.0
            },
            {
                "start_time": 49.22954545454545,
                "end_time": 49.429545454545455,
                "pitch": 60,
                "velocity": 101,
                "duration": 0.20000000000000284,
                "tempo": 120.0
            },
            {
                "start_time": 49.429545454545455,
                "end_time": 49.63181818181818,
                "pitch": 62,
                "velocity": 101,
                "duration": 0.20227272727272805,
                "tempo": 120.0
            },
            {
                "start_time": 49.63181818181818,
                "end_time": 49.834090909090904,
                "pitch": 59,
                "velocity": 101,
                "duration": 0.20227272727272094,
                "tempo": 120.0
            },
            {
                "start_time": 49.834090909090904,
                "end_time": 50.03409090909091,
                "pitch": 53,
                "velocity": 101,
                "duration": 0.20000000000000284,
                "tempo": 120.0
            },
            {
                "start_time": 50.03409090909091,
                "end_time": 50.19318181818181,
                "pitch": 55,
                "velocity": 101,
                "duration": 0.1590909090909065,
                "tempo": 120.0
            },
            {
                "start_time": 50.19318181818181,
                "end_time": 50.37954545454545,
                "pitch": 57,
                "velocity": 101,
                "duration": 0.1863636363636374,
                "tempo": 120.0
            },
            {
                "start_time": 50.37954545454545,
                "end_time": 50.56363636363636,
                "pitch": 53,
                "velocity": 101,
                "duration": 0.1840909090909122,
                "tempo": 120.0
            },
            {
                "start_time": 50.56363636363636,
                "end_time": 50.76136363636363,
                "pitch": 55,
                "velocity": 101,
                "duration": 0.19772727272727053,
                "tempo": 120.0
            },
            {
                "start_time": 50.76136363636363,
                "end_time": 50.95681818181818,
                "pitch": 57,
                "velocity": 101,
                "duration": 0.19545454545454533,
                "tempo": 120.0
            },
            {
                "start_time": 50.95681818181818,
                "end_time": 51.16136363636363,
                "pitch": 53,
                "velocity": 101,
                "duration": 0.20454545454545325,
                "tempo": 120.0
            },
            {
                "start_time": 51.16136363636363,
                "end_time": 51.365909090909085,
                "pitch": 55,
                "velocity": 101,
                "duration": 0.20454545454545325,
                "tempo": 120.0
            },
            {
                "start_time": 51.365909090909085,
                "end_time": 51.56818181818181,
                "pitch": 55,
                "velocity": 101,
                "duration": 0.20227272727272805,
                "tempo": 120.0
            },
            {
                "start_time": 51.56818181818181,
                "end_time": 51.768181818181816,
                "pitch": 57,
                "velocity": 101,
                "duration": 0.20000000000000284,
                "tempo": 120.0
            },
            {
                "start_time": 51.768181818181816,
                "end_time": 51.96363636363636,
                "pitch": 59,
                "velocity": 101,
                "duration": 0.19545454545454533,
                "tempo": 120.0
            },
            {
                "start_time": 51.96363636363636,
                "end_time": 52.15909090909091,
                "pitch": 55,
                "velocity": 101,
                "duration": 0.19545454545454533,
                "tempo": 120.0
            },
            {
                "start_time": 52.15909090909091,
                "end_time": 52.32954545454545,
                "pitch": 57,
                "velocity": 101,
                "duration": 0.17045454545454675,
                "tempo": 120.0
            },
            {
                "start_time": 52.32954545454545,
                "end_time": 52.52954545454545,
                "pitch": 59,
                "velocity": 101,
                "duration": 0.19999999999999574,
                "tempo": 120.0
            },
            {
                "start_time": 52.52954545454545,
                "end_time": 52.71363636363636,
                "pitch": 55,
                "velocity": 101,
                "duration": 0.1840909090909122,
                "tempo": 120.0
            },
            {
                "start_time": 52.71363636363636,
                "end_time": 52.9,
                "pitch": 59,
                "velocity": 101,
                "duration": 0.1863636363636374,
                "tempo": 120.0
            },
            {
                "start_time": 52.9,
                "end_time": 53.099999999999994,
                "pitch": 56,
                "velocity": 101,
                "duration": 0.19999999999999574,
                "tempo": 120.0
            },
            {
                "start_time": 53.099999999999994,
                "end_time": 53.30227272727272,
                "pitch": 57,
                "velocity": 101,
                "duration": 0.20227272727272805,
                "tempo": 120.0
            },
            {
                "start_time": 53.30227272727272,
                "end_time": 53.502272727272725,
                "pitch": 59,
                "velocity": 101,
                "duration": 0.20000000000000284,
                "tempo": 120.0
            },
            {
                "start_time": 53.502272727272725,
                "end_time": 53.70227272727273,
                "pitch": 56,
                "velocity": 101,
                "duration": 0.20000000000000284,
                "tempo": 120.0
            },
            {
                "start_time": 53.70227272727273,
                "end_time": 53.902272727272724,
                "pitch": 57,
                "velocity": 101,
                "duration": 0.19999999999999574,
                "tempo": 120.0
            },
            {
                "start_time": 53.902272727272724,
                "end_time": 54.10227272727273,
                "pitch": 59,
                "velocity": 101,
                "duration": 0.20000000000000284,
                "tempo": 120.0
            },
            {
                "start_time": 54.10227272727273,
                "end_time": 54.30227272727272,
                "pitch": 56,
                "velocity": 101,
                "duration": 0.19999999999999574,
                "tempo": 120.0
            },
            {
                "start_time": 54.30227272727272,
                "end_time": 54.47272727272727,
                "pitch": 59,
                "velocity": 101,
                "duration": 0.17045454545454675,
                "tempo": 120.0
            },
            {
                "start_time": 54.47272727272727,
                "end_time": 54.65681818181818,
                "pitch": 57,
                "velocity": 101,
                "duration": 0.1840909090909122,
                "tempo": 120.0
            },
            {
                "start_time": 54.65681818181818,
                "end_time": 54.84318181818182,
                "pitch": 59,
                "velocity": 101,
                "duration": 0.1863636363636374,
                "tempo": 120.0
            },
            {
                "start_time": 54.84318181818182,
                "end_time": 55.043181818181814,
                "pitch": 60,
                "velocity": 101,
                "duration": 0.19999999999999574,
                "tempo": 120.0
            },
            {
                "start_time": 55.043181818181814,
                "end_time": 55.24545454545454,
                "pitch": 57,
                "velocity": 101,
                "duration": 0.20227272727272805,
                "tempo": 120.0
            },
            {
                "start_time": 55.24545454545454,
                "end_time": 55.445454545454545,
                "pitch": 64,
                "velocity": 101,
                "duration": 0.20000000000000284,
                "tempo": 120.0
            },
            {
                "start_time": 55.445454545454545,
                "end_time": 55.64545454545454,
                "pitch": 62,
                "velocity": 101,
                "duration": 0.19999999999999574,
                "tempo": 120.0
            },
            {
                "start_time": 55.64545454545454,
                "end_time": 55.845454545454544,
                "pitch": 60,
                "velocity": 101,
                "duration": 0.20000000000000284,
                "tempo": 120.0
            },
            {
                "start_time": 55.845454545454544,
                "end_time": 56.04545454545454,
                "pitch": 55,
                "velocity": 101,
                "duration": 0.19999999999999574,
                "tempo": 120.0
            },
            {
                "start_time": 56.04545454545454,
                "end_time": 56.24545454545454,
                "pitch": 53,
                "velocity": 101,
                "duration": 0.20000000000000284,
                "tempo": 120.0
            },
            {
                "start_time": 56.24545454545454,
                "end_time": 56.445454545454545,
                "pitch": 55,
                "velocity": 101,
                "duration": 0.20000000000000284,
                "tempo": 120.0
            },
            {
                "start_time": 56.445454545454545,
                "end_time": 56.60454545454545,
                "pitch": 57,
                "velocity": 101,
                "duration": 0.1590909090909065,
                "tempo": 120.0
            },
            {
                "start_time": 56.60454545454545,
                "end_time": 56.804545454545455,
                "pitch": 53,
                "velocity": 101,
                "duration": 0.20000000000000284,
                "tempo": 120.0
            },
            {
                "start_time": 56.804545454545455,
                "end_time": 56.990909090909085,
                "pitch": 55,
                "velocity": 101,
                "duration": 0.1863636363636303,
                "tempo": 120.0
            },
            {
                "start_time": 56.990909090909085,
                "end_time": 57.17727272727272,
                "pitch": 57,
                "velocity": 101,
                "duration": 0.1863636363636374,
                "tempo": 120.0
            },
            {
                "start_time": 57.17727272727272,
                "end_time": 57.375,
                "pitch": 53,
                "velocity": 101,
                "duration": 0.19772727272727764,
                "tempo": 120.0
            },
            {
                "start_time": 57.375,
                "end_time": 57.574999999999996,
                "pitch": 57,
                "velocity": 101,
                "duration": 0.19999999999999574,
                "tempo": 120.0
            },
            {
                "start_time": 57.574999999999996,
                "end_time": 57.775,
                "pitch": 55,
                "velocity": 101,
                "duration": 0.20000000000000284,
                "tempo": 120.0
            },
            {
                "start_time": 57.775,
                "end_time": 57.974999999999994,
                "pitch": 57,
                "velocity": 101,
                "duration": 0.19999999999999574,
                "tempo": 120.0
            },
            {
                "start_time": 57.974999999999994,
                "end_time": 58.175,
                "pitch": 59,
                "velocity": 101,
                "duration": 0.20000000000000284,
                "tempo": 120.0
            },
            {
                "start_time": 58.175,
                "end_time": 58.375,
                "pitch": 55,
                "velocity": 101,
                "duration": 0.20000000000000284,
                "tempo": 120.0
            },
            {
                "start_time": 58.375,
                "end_time": 58.57272727272727,
                "pitch": 57,
                "velocity": 101,
                "duration": 0.19772727272727053,
                "tempo": 120.0
            },
            {
                "start_time": 58.57272727272727,
                "end_time": 58.73863636363636,
                "pitch": 59,
                "velocity": 101,
                "duration": 0.16590909090908923,
                "tempo": 120.0
            },
            {
                "start_time": 58.73863636363636,
                "end_time": 58.92272727272727,
                "pitch": 55,
                "velocity": 101,
                "duration": 0.1840909090909122,
                "tempo": 120.0
            },
            {
                "start_time": 58.92272727272727,
                "end_time": 59.10909090909091,
                "pitch": 62,
                "velocity": 101,
                "duration": 0.1863636363636374,
                "tempo": 120.0
            },
            {
                "start_time": 59.10909090909091,
                "end_time": 59.309090909090905,
                "pitch": 60,
                "velocity": 101,
                "duration": 0.19999999999999574,
                "tempo": 120.0
            },
            {
                "start_time": 59.309090909090905,
                "end_time": 59.50909090909091,
                "pitch": 60,
                "velocity": 101,
                "duration": 0.20000000000000284,
                "tempo": 120.0
            },
            {
                "start_time": 59.50909090909091,
                "end_time": 59.709090909090904,
                "pitch": 60,
                "velocity": 101,
                "duration": 0.19999999999999574,
                "tempo": 120.0
            },
            {
                "start_time": 59.709090909090904,
                "end_time": 59.90909090909091,
                "pitch": 60,
                "velocity": 101,
                "duration": 0.20000000000000284,
                "tempo": 120.0
            },
            {
                "start_time": 59.90909090909091,
                "end_time": 60.10909090909091,
                "pitch": 59,
                "velocity": 101,
                "duration": 0.20000000000000284,
                "tempo": 120.0
            },
            {
                "start_time": 60.10909090909091,
                "end_time": 60.309090909090905,
                "pitch": 59,
                "velocity": 101,
                "duration": 0.19999999999999574,
                "tempo": 120.0
            },
            {
                "start_time": 60.309090909090905,
                "end_time": 60.50909090909091,
                "pitch": 59,
                "velocity": 101,
                "duration": 0.20000000000000284,
                "tempo": 120.0
            },
            {
                "start_time": 60.50909090909091,
                "end_time": 60.711363636363636,
                "pitch": 59,
                "velocity": 101,
                "duration": 0.20227272727272805,
                "tempo": 120.0
            },
            {
                "start_time": 60.711363636363636,
                "end_time": 60.881818181818176,
                "pitch": 57,
                "velocity": 101,
                "duration": 0.17045454545453964,
                "tempo": 120.0
            },
            {
                "start_time": 60.881818181818176,
                "end_time": 61.08181818181818,
                "pitch": 57,
                "velocity": 101,
                "duration": 0.20000000000000284,
                "tempo": 120.0
            },
            {
                "start_time": 61.08181818181818,
                "end_time": 61.26590909090909,
                "pitch": 57,
                "velocity": 101,
                "duration": 0.1840909090909122,
                "tempo": 120.0
            },
            {
                "start_time": 61.26590909090909,
                "end_time": 61.45227272727272,
                "pitch": 57,
                "velocity": 101,
                "duration": 0.1863636363636303,
                "tempo": 120.0
            },
            {
                "start_time": 61.45227272727272,
                "end_time": 61.652272727272724,
                "pitch": 59,
                "velocity": 101,
                "duration": 0.20000000000000284,
                "tempo": 120.0
            },
            {
                "start_time": 61.652272727272724,
                "end_time": 61.85227272727273,
                "pitch": 59,
                "velocity": 101,
                "duration": 0.20000000000000284,
                "tempo": 120.0
            },
            {
                "start_time": 61.85227272727273,
                "end_time": 62.05227272727272,
                "pitch": 59,
                "velocity": 101,
                "duration": 0.19999999999999574,
                "tempo": 120.0
            },
            {
                "start_time": 62.05227272727272,
                "end_time": 62.252272727272725,
                "pitch": 59,
                "velocity": 101,
                "duration": 0.20000000000000284,
                "tempo": 120.0
            },
            {
                "start_time": 62.252272727272725,
                "end_time": 62.45227272727272,
                "pitch": 64,
                "velocity": 101,
                "duration": 0.19999999999999574,
                "tempo": 120.0
            },
            {
                "start_time": 62.45227272727272,
                "end_time": 62.65454545454545,
                "pitch": 64,
                "velocity": 101,
                "duration": 0.20227272727272805,
                "tempo": 120.0
            }
        ],
        "Electric Guitar (clean)": [
            {
                "start_time": 0.20909090909090908,
                "end_time": 0.40909090909090906,
                "pitch": 48,
                "velocity": 80,
                "duration": 0.19999999999999998,
                "tempo": 120.0
            },
            {
                "start_time": 0.40909090909090906,
                "end_time": 0.609090909090909,
                "pitch": 48,
                "velocity": 80,
                "duration": 0.19999999999999996,
                "tempo": 120.0
            },
            {
                "start_time": 0.609090909090909,
                "end_time": 0.8090909090909091,
                "pitch": 48,
                "velocity": 80,
                "duration": 0.20000000000000007,
                "tempo": 120.0
            },
            {
                "start_time": 0.8090909090909091,
                "end_time": 1.0068181818181818,
                "pitch": 48,
                "velocity": 80,
                "duration": 0.19772727272727275,
                "tempo": 120.0
            },
            {
                "start_time": 1.0068181818181818,
                "end_time": 1.2022727272727272,
                "pitch": 48,
                "velocity": 80,
                "duration": 0.19545454545454533,
                "tempo": 120.0
            },
            {
                "start_time": 1.2022727272727272,
                "end_time": 1.4022727272727271,
                "pitch": 48,
                "velocity": 80,
                "duration": 0.19999999999999996,
                "tempo": 120.0
            },
            {
                "start_time": 1.4022727272727271,
                "end_time": 1.7727272727272727,
                "pitch": 47,
                "velocity": 80,
                "duration": 0.3704545454545456,
                "tempo": 120.0
            },
            {
                "start_time": 1.7727272727272727,
                "end_time": 1.9749999999999999,
                "pitch": 47,
                "velocity": 80,
                "duration": 0.20227272727272716,
                "tempo": 120.0
            },
            {
                "start_time": 1.9749999999999999,
                "end_time": 2.159090909090909,
                "pitch": 47,
                "velocity": 80,
                "duration": 0.1840909090909093,
                "tempo": 120.0
            },
            {
                "start_time": 2.159090909090909,
                "end_time": 2.3454545454545452,
                "pitch": 47,
                "velocity": 80,
                "duration": 0.18636363636363606,
                "tempo": 120.0
            },
            {
                "start_time": 2.3454545454545452,
                "end_time": 2.5454545454545454,
                "pitch": 47,
                "velocity": 80,
                "duration": 0.20000000000000018,
                "tempo": 120.0
            },
            {
                "start_time": 2.5454545454545454,
                "end_time": 2.745454545454545,
                "pitch": 47,
                "velocity": 80,
                "duration": 0.19999999999999973,
                "tempo": 120.0
            },
            {
                "start_time": 2.745454545454545,
                "end_time": 2.9454545454545453,
                "pitch": 47,
                "velocity": 80,
                "duration": 0.20000000000000018,
                "tempo": 120.0
            },
            {
                "start_time": 2.9454545454545453,
                "end_time": 3.3454545454545452,
                "pitch": 45,
                "velocity": 80,
                "duration": 0.3999999999999999,
                "tempo": 120.0
            },
            {
                "start_time": 3.3454545454545452,
                "end_time": 3.5477272727272724,
                "pitch": 45,
                "velocity": 80,
                "duration": 0.20227272727272716,
                "tempo": 120.0
            },
            {
                "start_time": 3.5477272727272724,
                "end_time": 3.7477272727272726,
                "pitch": 45,
                "velocity": 80,
                "duration": 0.20000000000000018,
                "tempo": 120.0
            },
            {
                "start_time": 3.7477272727272726,
                "end_time": 3.918181818181818,
                "pitch": 45,
                "velocity": 80,
                "duration": 0.17045454545454541,
                "tempo": 120.0
            },
            {
                "start_time": 3.918181818181818,
                "end_time": 4.1022727272727275,
                "pitch": 45,
                "velocity": 80,
                "duration": 0.18409090909090953,
                "tempo": 120.0
            },
            {
                "start_time": 4.1022727272727275,
                "end_time": 4.288636363636363,
                "pitch": 45,
                "velocity": 80,
                "duration": 0.18636363636363562,
                "tempo": 120.0
            },
            {
                "start_time": 4.288636363636363,
                "end_time": 4.488636363636363,
                "pitch": 45,
                "velocity": 80,
                "duration": 0.20000000000000018,
                "tempo": 120.0
            },
            {
                "start_time": 4.488636363636363,
                "end_time": 4.888636363636364,
                "pitch": 43,
                "velocity": 80,
                "duration": 0.40000000000000036,
                "tempo": 120.0
            },
            {
                "start_time": 4.888636363636364,
                "end_time": 5.090909090909091,
                "pitch": 43,
                "velocity": 80,
                "duration": 0.20227272727272716,
                "tempo": 120.0
            },
            {
                "start_time": 5.090909090909091,
                "end_time": 5.293181818181818,
                "pitch": 43,
                "velocity": 80,
                "duration": 0.20227272727272716,
                "tempo": 120.0
            },
            {
                "start_time": 5.293181818181818,
                "end_time": 5.693181818181818,
                "pitch": 44,
                "velocity": 80,
                "duration": 0.40000000000000036,
                "tempo": 120.0
            },
            {
                "start_time": 5.693181818181818,
                "end_time": 5.893181818181818,
                "pitch": 44,
                "velocity": 80,
                "duration": 0.1999999999999993,
                "tempo": 120.0
            },
            {
                "start_time": 5.893181818181818,
                "end_time": 6.0636363636363635,
                "pitch": 44,
                "velocity": 80,
                "duration": 0.17045454545454586,
                "tempo": 120.0
            },
            {
                "start_time": 6.0636363636363635,
                "end_time": 6.436363636363636,
                "pitch": 45,
                "velocity": 80,
                "duration": 0.37272727272727213,
                "tempo": 120.0
            },
            {
                "start_time": 6.436363636363636,
                "end_time": 6.618181818181818,
                "pitch": 45,
                "velocity": 80,
                "duration": 0.18181818181818254,
                "tempo": 120.0
            },
            {
                "start_time": 6.618181818181818,
                "end_time": 6.8181818181818175,
                "pitch": 45,
                "velocity": 80,
                "duration": 0.1999999999999993,
                "tempo": 120.0
            },
            {
                "start_time": 6.8181818181818175,
                "end_time": 7.0204545454545455,
                "pitch": 45,
                "velocity": 80,
                "duration": 0.20227272727272805,
                "tempo": 120.0
            },
            {
                "start_time": 7.0204545454545455,
                "end_time": 7.2318181818181815,
                "pitch": 45,
                "velocity": 80,
                "duration": 0.21136363636363598,
                "tempo": 120.0
            },
            {
                "start_time": 7.2318181818181815,
                "end_time": 7.422727272727272,
                "pitch": 45,
                "velocity": 80,
                "duration": 0.19090909090909047,
                "tempo": 120.0
            },
            {
                "start_time": 7.422727272727272,
                "end_time": 7.638636363636364,
                "pitch": 45,
                "velocity": 80,
                "duration": 0.21590909090909172,
                "tempo": 120.0
            },
            {
                "start_time": 7.638636363636364,
                "end_time": 8.029545454545454,
                "pitch": 50,
                "velocity": 80,
                "duration": 0.39090909090909065,
                "tempo": 120.0
            },
            {
                "start_time": 8.029545454545454,
                "end_time": 8.195454545454545,
                "pitch": 50,
                "velocity": 80,
                "duration": 0.165909090909091,
                "tempo": 120.0
            },
            {
                "start_time": 8.195454545454545,
                "end_time": 8.381818181818181,
                "pitch": 50,
                "velocity": 80,
                "duration": 0.18636363636363562,
                "tempo": 120.0
            },
            {
                "start_time": 8.381818181818181,
                "end_time": 8.565909090909091,
                "pitch": 50,
                "velocity": 80,
                "duration": 0.18409090909091042,
                "tempo": 120.0
            },
            {
                "start_time": 8.565909090909091,
                "end_time": 8.768181818181818,
                "pitch": 50,
                "velocity": 80,
                "duration": 0.20227272727272627,
                "tempo": 120.0
            },
            {
                "start_time": 8.768181818181818,
                "end_time": 8.968181818181817,
                "pitch": 50,
                "velocity": 80,
                "duration": 0.1999999999999993,
                "tempo": 120.0
            },
            {
                "start_time": 8.968181818181817,
                "end_time": 9.170454545454545,
                "pitch": 50,
                "velocity": 80,
                "duration": 0.20227272727272805,
                "tempo": 120.0
            },
            {
                "start_time": 9.170454545454545,
                "end_time": 9.372727272727273,
                "pitch": 50,
                "velocity": 80,
                "duration": 0.20227272727272805,
                "tempo": 120.0
            },
            {
                "start_time": 9.372727272727273,
                "end_time": 9.572727272727272,
                "pitch": 43,
                "velocity": 80,
                "duration": 0.1999999999999993,
                "tempo": 120.0
            },
            {
                "start_time": 9.572727272727272,
                "end_time": 9.775,
                "pitch": 43,
                "velocity": 80,
                "duration": 0.20227272727272805,
                "tempo": 120.0
            },
            {
                "start_time": 9.775,
                "end_time": 9.975,
                "pitch": 43,
                "velocity": 80,
                "duration": 0.1999999999999993,
                "tempo": 120.0
            },
            {
                "start_time": 9.975,
                "end_time": 10.177272727272726,
                "pitch": 43,
                "velocity": 80,
                "duration": 0.20227272727272627,
                "tempo": 120.0
            },
            {
                "start_time": 10.177272727272726,
                "end_time": 10.347727272727273,
                "pitch": 43,
                "velocity": 80,
                "duration": 0.17045454545454675,
                "tempo": 120.0
            },
            {
                "start_time": 10.347727272727273,
                "end_time": 10.547727272727272,
                "pitch": 43,
                "velocity": 80,
                "duration": 0.1999999999999993,
                "tempo": 120.0
            },
            {
                "start_time": 10.547727272727272,
                "end_time": 10.73181818181818,
                "pitch": 43,
                "velocity": 80,
                "duration": 0.18409090909090864,
                "tempo": 120.0
            },
            {
                "start_time": 10.73181818181818,
                "end_time": 10.918181818181818,
                "pitch": 43,
                "velocity": 80,
                "duration": 0.1863636363636374,
                "tempo": 120.0
            },
            {
                "start_time": 10.918181818181818,
                "end_time": 11.118181818181817,
                "pitch": 43,
                "velocity": 80,
                "duration": 0.1999999999999993,
                "tempo": 120.0
            },
            {
                "start_time": 11.118181818181817,
                "end_time": 11.320454545454545,
                "pitch": 43,
                "velocity": 80,
                "duration": 0.20227272727272805,
                "tempo": 120.0
            },
            {
                "start_time": 11.320454545454545,
                "end_time": 11.520454545454545,
                "pitch": 43,
                "velocity": 80,
                "duration": 0.1999999999999993,
                "tempo": 120.0
            },
            {
                "start_time": 11.520454545454545,
                "end_time": 11.720454545454546,
                "pitch": 47,
                "velocity": 80,
                "duration": 0.20000000000000107,
                "tempo": 120.0
            },
            {
                "start_time": 11.720454545454546,
                "end_time": 11.922727272727272,
                "pitch": 47,
                "velocity": 80,
                "duration": 0.20227272727272627,
                "tempo": 120.0
            },
            {
                "start_time": 11.922727272727272,
                "end_time": 12.122727272727273,
                "pitch": 47,
                "velocity": 80,
                "duration": 0.20000000000000107,
                "tempo": 120.0
            },
            {
                "start_time": 12.122727272727273,
                "end_time": 12.284090909090908,
                "pitch": 50,
                "velocity": 80,
                "duration": 0.16136363636363527,
                "tempo": 120.0
            },
            {
                "start_time": 12.284090909090908,
                "end_time": 12.495454545454544,
                "pitch": 50,
                "velocity": 80,
                "duration": 0.21136363636363598,
                "tempo": 120.0
            },
            {
                "start_time": 12.495454545454544,
                "end_time": 12.681818181818182,
                "pitch": 48,
                "velocity": 80,
                "duration": 0.1863636363636374,
                "tempo": 120.0
            },
            {
                "start_time": 12.681818181818182,
                "end_time": 12.86590909090909,
                "pitch": 48,
                "velocity": 80,
                "duration": 0.18409090909090864,
                "tempo": 120.0
            },
            {
                "start_time": 12.86590909090909,
                "end_time": 13.056818181818182,
                "pitch": 48,
                "velocity": 80,
                "duration": 0.19090909090909136,
                "tempo": 120.0
            },
            {
                "start_time": 13.068181818181818,
                "end_time": 13.268181818181818,
                "pitch": 48,
                "velocity": 80,
                "duration": 0.1999999999999993,
                "tempo": 120.0
            },
            {
                "start_time": 13.268181818181818,
                "end_time": 13.470454545454546,
                "pitch": 48,
                "velocity": 80,
                "duration": 0.20227272727272805,
                "tempo": 120.0
            },
            {
                "start_time": 13.470454545454546,
                "end_time": 13.670454545454545,
                "pitch": 48,
                "velocity": 80,
                "duration": 0.1999999999999993,
                "tempo": 120.0
            },
            {
                "start_time": 13.670454545454545,
                "end_time": 13.872727272727271,
                "pitch": 48,
                "velocity": 80,
                "duration": 0.20227272727272627,
                "tempo": 120.0
            },
            {
                "start_time": 13.872727272727271,
                "end_time": 14.274999999999999,
                "pitch": 47,
                "velocity": 80,
                "duration": 0.40227272727272734,
                "tempo": 120.0
            },
            {
                "start_time": 14.274999999999999,
                "end_time": 14.436363636363636,
                "pitch": 47,
                "velocity": 80,
                "duration": 0.16136363636363704,
                "tempo": 120.0
            },
            {
                "start_time": 14.436363636363636,
                "end_time": 14.622727272727271,
                "pitch": 47,
                "velocity": 80,
                "duration": 0.18636363636363562,
                "tempo": 120.0
            },
            {
                "start_time": 14.622727272727271,
                "end_time": 14.806818181818182,
                "pitch": 47,
                "velocity": 80,
                "duration": 0.18409090909091042,
                "tempo": 120.0
            },
            {
                "start_time": 14.806818181818182,
                "end_time": 15.009090909090908,
                "pitch": 47,
                "velocity": 80,
                "duration": 0.20227272727272627,
                "tempo": 120.0
            },
            {
                "start_time": 15.009090909090908,
                "end_time": 15.209090909090909,
                "pitch": 47,
                "velocity": 80,
                "duration": 0.20000000000000107,
                "tempo": 120.0
            },
            {
                "start_time": 15.209090909090909,
                "end_time": 15.404545454545454,
                "pitch": 47,
                "velocity": 80,
                "duration": 0.19545454545454533,
                "tempo": 120.0
            },
            {
                "start_time": 15.404545454545454,
                "end_time": 15.802272727272726,
                "pitch": 45,
                "velocity": 80,
                "duration": 0.3977272727272716,
                "tempo": 120.0
            },
            {
                "start_time": 15.802272727272726,
                "end_time": 16.002272727272725,
                "pitch": 45,
                "velocity": 80,
                "duration": 0.1999999999999993,
                "tempo": 120.0
            },
            {
                "start_time": 16.002272727272725,
                "end_time": 16.202272727272728,
                "pitch": 45,
                "velocity": 80,
                "duration": 0.20000000000000284,
                "tempo": 120.0
            },
            {
                "start_time": 16.202272727272728,
                "end_time": 16.404545454545453,
                "pitch": 45,
                "velocity": 80,
                "duration": 0.2022727272727245,
                "tempo": 120.0
            },
            {
                "start_time": 16.404545454545453,
                "end_time": 16.575,
                "pitch": 45,
                "velocity": 80,
                "duration": 0.17045454545454675,
                "tempo": 120.0
            },
            {
                "start_time": 16.575,
                "end_time": 16.775,
                "pitch": 45,
                "velocity": 80,
                "duration": 0.1999999999999993,
                "tempo": 120.0
            },
            {
                "start_time": 16.775,
                "end_time": 16.959090909090907,
                "pitch": 45,
                "velocity": 80,
                "duration": 0.18409090909090864,
                "tempo": 120.0
            },
            {
                "start_time": 16.959090909090907,
                "end_time": 17.345454545454544,
                "pitch": 43,
                "velocity": 80,
                "duration": 0.3863636363636367,
                "tempo": 120.0
            },
            {
                "start_time": 17.345454545454544,
                "end_time": 17.547727272727272,
                "pitch": 43,
                "velocity": 80,
                "duration": 0.20227272727272805,
                "tempo": 120.0
            },
            {
                "start_time": 17.547727272727272,
                "end_time": 17.74772727272727,
                "pitch": 43,
                "velocity": 80,
                "duration": 0.1999999999999993,
                "tempo": 120.0
            },
            {
                "start_time": 17.74772727272727,
                "end_time": 18.147727272727273,
                "pitch": 44,
                "velocity": 80,
                "duration": 0.40000000000000213,
                "tempo": 120.0
            },
            {
                "start_time": 18.147727272727273,
                "end_time": 18.347727272727273,
                "pitch": 44,
                "velocity": 80,
                "duration": 0.1999999999999993,
                "tempo": 120.0
            },
            {
                "start_time": 18.347727272727273,
                "end_time": 18.547727272727272,
                "pitch": 44,
                "velocity": 80,
                "duration": 0.1999999999999993,
                "tempo": 120.0
            },
            {
                "start_time": 18.547727272727272,
                "end_time": 18.720454545454544,
                "pitch": 44,
                "velocity": 80,
                "duration": 0.17272727272727195,
                "tempo": 120.0
            },
            {
                "start_time": 18.720454545454544,
                "end_time": 18.904545454545453,
                "pitch": 45,
                "velocity": 80,
                "duration": 0.18409090909090864,
                "tempo": 120.0
            },
            {
                "start_time": 18.904545454545453,
                "end_time": 19.09090909090909,
                "pitch": 45,
                "velocity": 80,
                "duration": 0.1863636363636374,
                "tempo": 120.0
            },
            {
                "start_time": 19.09090909090909,
                "end_time": 19.29090909090909,
                "pitch": 45,
                "velocity": 80,
                "duration": 0.1999999999999993,
                "tempo": 120.0
            },
            {
                "start_time": 19.29090909090909,
                "end_time": 19.49090909090909,
                "pitch": 45,
                "velocity": 80,
                "duration": 0.1999999999999993,
                "tempo": 120.0
            },
            {
                "start_time": 19.49090909090909,
                "end_time": 19.69090909090909,
                "pitch": 45,
                "velocity": 80,
                "duration": 0.20000000000000284,
                "tempo": 120.0
            },
            {
                "start_time": 19.69090909090909,
                "end_time": 19.89090909090909,
                "pitch": 45,
                "velocity": 80,
                "duration": 0.1999999999999993,
                "tempo": 120.0
            },
            {
                "start_time": 19.89090909090909,
                "end_time": 20.09090909090909,
                "pitch": 45,
                "velocity": 80,
                "duration": 0.1999999999999993,
                "tempo": 120.0
            },
            {
                "start_time": 20.09090909090909,
                "end_time": 20.493181818181817,
                "pitch": 50,
                "velocity": 80,
                "duration": 0.40227272727272734,
                "tempo": 120.0
            },
            {
                "start_time": 20.493181818181817,
                "end_time": 20.693181818181817,
                "pitch": 50,
                "velocity": 80,
                "duration": 0.1999999999999993,
                "tempo": 120.0
            },
            {
                "start_time": 20.693181818181817,
                "end_time": 20.849999999999998,
                "pitch": 50,
                "velocity": 80,
                "duration": 0.1568181818181813,
                "tempo": 120.0
            },
            {
                "start_time": 20.849999999999998,
                "end_time": 21.045454545454543,
                "pitch": 50,
                "velocity": 80,
                "duration": 0.19545454545454533,
                "tempo": 120.0
            },
            {
                "start_time": 21.045454545454543,
                "end_time": 21.23181818181818,
                "pitch": 50,
                "velocity": 80,
                "duration": 0.1863636363636374,
                "tempo": 120.0
            },
            {
                "start_time": 21.23181818181818,
                "end_time": 21.41590909090909,
                "pitch": 50,
                "velocity": 80,
                "duration": 0.18409090909090864,
                "tempo": 120.0
            },
            {
                "start_time": 21.41590909090909,
                "end_time": 21.61590909090909,
                "pitch": 50,
                "velocity": 80,
                "duration": 0.1999999999999993,
                "tempo": 120.0
            },
            {
                "start_time": 21.61590909090909,
                "end_time": 21.825,
                "pitch": 50,
                "velocity": 80,
                "duration": 0.20909090909091077,
                "tempo": 120.0
            },
            {
                "start_time": 21.825,
                "end_time": 22.020454545454545,
                "pitch": 43,
                "velocity": 80,
                "duration": 0.19545454545454533,
                "tempo": 120.0
            },
            {
                "start_time": 22.020454545454545,
                "end_time": 22.227272727272727,
                "pitch": 43,
                "velocity": 80,
                "duration": 0.206818181818182,
                "tempo": 120.0
            },
            {
                "start_time": 22.227272727272727,
                "end_time": 22.427272727272726,
                "pitch": 43,
                "velocity": 80,
                "duration": 0.1999999999999993,
                "tempo": 120.0
            },
            {
                "start_time": 22.427272727272726,
                "end_time": 22.627272727272725,
                "pitch": 43,
                "velocity": 80,
                "duration": 0.1999999999999993,
                "tempo": 120.0
            },
            {
                "start_time": 22.627272727272725,
                "end_time": 22.831818181818182,
                "pitch": 43,
                "velocity": 80,
                "duration": 0.2045454545454568,
                "tempo": 120.0
            },
            {
                "start_time": 22.831818181818182,
                "end_time": 22.988636363636363,
                "pitch": 43,
                "velocity": 80,
                "duration": 0.1568181818181813,
                "tempo": 120.0
            },
            {
                "start_time": 22.988636363636363,
                "end_time": 23.174999999999997,
                "pitch": 43,
                "velocity": 80,
                "duration": 0.18636363636363384,
                "tempo": 120.0
            },
            {
                "start_time": 23.174999999999997,
                "end_time": 23.35909090909091,
                "pitch": 43,
                "velocity": 80,
                "duration": 0.1840909090909122,
                "tempo": 120.0
            },
            {
                "start_time": 23.35909090909091,
                "end_time": 23.55909090909091,
                "pitch": 43,
                "velocity": 80,
                "duration": 0.1999999999999993,
                "tempo": 120.0
            },
            {
                "start_time": 23.55909090909091,
                "end_time": 23.759090909090908,
                "pitch": 43,
                "velocity": 80,
                "duration": 0.1999999999999993,
                "tempo": 120.0
            },
            {
                "start_time": 23.759090909090908,
                "end_time": 23.961363636363636,
                "pitch": 43,
                "velocity": 80,
                "duration": 0.20227272727272805,
                "tempo": 120.0
            },
            {
                "start_time": 23.961363636363636,
                "end_time": 24.163636363636364,
                "pitch": 47,
                "velocity": 80,
                "duration": 0.20227272727272805,
                "tempo": 120.0
            },
            {
                "start_time": 24.163636363636364,
                "end_time": 24.363636363636363,
                "pitch": 47,
                "velocity": 80,
                "duration": 0.1999999999999993,
                "tempo": 120.0
            },
            {
                "start_time": 24.363636363636363,
                "end_time": 24.563636363636363,
                "pitch": 47,
                "velocity": 80,
                "duration": 0.1999999999999993,
                "tempo": 120.0
            },
            {
                "start_time": 24.563636363636363,
                "end_time": 24.763636363636362,
                "pitch": 50,
                "velocity": 80,
                "duration": 0.1999999999999993,
                "tempo": 120.0
            },
            {
                "start_time": 24.763636363636362,
                "end_time": 24.93409090909091,
                "pitch": 50,
                "velocity": 80,
                "duration": 0.17045454545454675,
                "tempo": 120.0
            },
            {
                "start_time": 24.93409090909091,
                "end_time": 25.709090909090907,
                "pitch": 41,
                "velocity": 80,
                "duration": 0.7749999999999986,
                "tempo": 120.0
            },
            {
                "start_time": 26.10909090909091,
                "end_time": 26.30909090909091,
                "pitch": 41,
                "velocity": 80,
                "duration": 0.1999999999999993,
                "tempo": 120.0
            },
            {
                "start_time": 26.30909090909091,
                "end_time": 27.270454545454545,
                "pitch": 43,
                "velocity": 80,
                "duration": 0.961363636363636,
                "tempo": 120.0
            },
            {
                "start_time": 27.652272727272727,
                "end_time": 27.852272727272727,
                "pitch": 43,
                "velocity": 80,
                "duration": 0.1999999999999993,
                "tempo": 120.0
            },
            {
                "start_time": 27.852272727272727,
                "end_time": 28.854545454545452,
                "pitch": 44,
                "velocity": 80,
                "duration": 1.0022727272727252,
                "tempo": 120.0
            },
            {
                "start_time": 29.206818181818182,
                "end_time": 29.39090909090909,
                "pitch": 44,
                "velocity": 80,
                "duration": 0.18409090909090864,
                "tempo": 120.0
            },
            {
                "start_time": 29.39090909090909,
                "end_time": 29.577272727272724,
                "pitch": 45,
                "velocity": 80,
                "duration": 0.18636363636363384,
                "tempo": 120.0
            },
            {
                "start_time": 29.577272727272724,
                "end_time": 29.977272727272727,
                "pitch": 45,
                "velocity": 80,
                "duration": 0.40000000000000213,
                "tempo": 120.0
            },
            {
                "start_time": 30.179545454545455,
                "end_time": 30.779545454545453,
                "pitch": 43,
                "velocity": 80,
                "duration": 0.5999999999999979,
                "tempo": 120.0
            },
            {
                "start_time": 31.179545454545455,
                "end_time": 31.736363636363635,
                "pitch": 41,
                "velocity": 80,
                "duration": 0.5568181818181799,
                "tempo": 120.0
            },
            {
                "start_time": 31.736363636363635,
                "end_time": 32.32272727272727,
                "pitch": 38,
                "velocity": 80,
                "duration": 0.586363636363636,
                "tempo": 120.0
            },
            {
                "start_time": 32.32272727272727,
                "end_time": 32.72272727272727,
                "pitch": 41,
                "velocity": 80,
                "duration": 0.3999999999999986,
                "tempo": 120.0
            },
            {
                "start_time": 32.72272727272727,
                "end_time": 33.324999999999996,
                "pitch": 40,
                "velocity": 80,
                "duration": 0.6022727272727266,
                "tempo": 120.0
            },
            {
                "start_time": 33.324999999999996,
                "end_time": 33.86590909090909,
                "pitch": 36,
                "velocity": 80,
                "duration": 0.5409090909090963,
                "tempo": 120.0
            },
            {
                "start_time": 33.86590909090909,
                "end_time": 34.26590909090909,
                "pitch": 40,
                "velocity": 80,
                "duration": 0.3999999999999986,
                "tempo": 120.0
            },
            {
                "start_time": 34.26590909090909,
                "end_time": 34.86590909090909,
                "pitch": 41,
                "velocity": 80,
                "duration": 0.6000000000000014,
                "tempo": 120.0
            },
            {
                "start_time": 34.86590909090909,
                "end_time": 35.46818181818182,
                "pitch": 38,
                "velocity": 80,
                "duration": 0.6022727272727266,
                "tempo": 120.0
            },
            {
                "start_time": 35.46818181818182,
                "end_time": 35.82727272727273,
                "pitch": 41,
                "velocity": 80,
                "duration": 0.35909090909090935,
                "tempo": 120.0
            },
            {
                "start_time": 35.82727272727273,
                "end_time": 36.39545454545454,
                "pitch": 43,
                "velocity": 80,
                "duration": 0.568181818181813,
                "tempo": 120.0
            },
            {
                "start_time": 36.39545454545454,
                "end_time": 36.99090909090909,
                "pitch": 47,
                "velocity": 80,
                "duration": 0.595454545454551,
                "tempo": 120.0
            },
            {
                "start_time": 36.99090909090909,
                "end_time": 37.402272727272724,
                "pitch": 50,
                "velocity": 80,
                "duration": 0.4113636363636317,
                "tempo": 120.0
            },
            {
                "start_time": 37.402272727272724,
                "end_time": 37.41136363636363,
                "pitch": 48,
                "velocity": 80,
                "duration": 0.009090909090907928,
                "tempo": 120.0
            },
            {
                "start_time": 37.41136363636363,
                "end_time": 37.56818181818181,
                "pitch": 48,
                "velocity": 80,
                "duration": 0.1568181818181813,
                "tempo": 120.0
            },
            {
                "start_time": 37.56818181818181,
                "end_time": 37.76590909090909,
                "pitch": 48,
                "velocity": 80,
                "duration": 0.19772727272727764,
                "tempo": 120.0
            },
            {
                "start_time": 37.76590909090909,
                "end_time": 37.949999999999996,
                "pitch": 48,
                "velocity": 80,
                "duration": 0.18409090909090509,
                "tempo": 120.0
            },
            {
                "start_time": 37.949999999999996,
                "end_time": 38.13636363636363,
                "pitch": 48,
                "velocity": 80,
                "duration": 0.1863636363636374,
                "tempo": 120.0
            },
            {
                "start_time": 38.13636363636363,
                "end_time": 38.336363636363636,
                "pitch": 48,
                "velocity": 80,
                "duration": 0.20000000000000284,
                "tempo": 120.0
            },
            {
                "start_time": 38.336363636363636,
                "end_time": 38.53636363636363,
                "pitch": 48,
                "velocity": 80,
                "duration": 0.19999999999999574,
                "tempo": 120.0
            },
            {
                "start_time": 38.53636363636363,
                "end_time": 38.736363636363635,
                "pitch": 48,
                "velocity": 80,
                "duration": 0.20000000000000284,
                "tempo": 120.0
            },
            {
                "start_time": 38.736363636363635,
                "end_time": 38.93863636363636,
                "pitch": 48,
                "velocity": 80,
                "duration": 0.20227272727272805,
                "tempo": 120.0
            },
            {
                "start_time": 38.93863636363636,
                "end_time": 39.13863636363636,
                "pitch": 47,
                "velocity": 80,
                "duration": 0.19999999999999574,
                "tempo": 120.0
            },
            {
                "start_time": 39.13863636363636,
                "end_time": 39.33863636363636,
                "pitch": 47,
                "velocity": 80,
                "duration": 0.20000000000000284,
                "tempo": 120.0
            },
            {
                "start_time": 39.33863636363636,
                "end_time": 39.538636363636364,
                "pitch": 47,
                "velocity": 80,
                "duration": 0.20000000000000284,
                "tempo": 120.0
            },
            {
                "start_time": 39.538636363636364,
                "end_time": 39.70681818181818,
                "pitch": 47,
                "velocity": 80,
                "duration": 0.16818181818181444,
                "tempo": 120.0
            },
            {
                "start_time": 39.70681818181818,
                "end_time": 39.893181818181816,
                "pitch": 47,
                "velocity": 80,
                "duration": 0.1863636363636374,
                "tempo": 120.0
            },
            {
                "start_time": 39.893181818181816,
                "end_time": 40.07727272727273,
                "pitch": 47,
                "velocity": 80,
                "duration": 0.1840909090909122,
                "tempo": 120.0
            },
            {
                "start_time": 40.07727272727273,
                "end_time": 40.279545454545456,
                "pitch": 47,
                "velocity": 80,
                "duration": 0.20227272727272805,
                "tempo": 120.0
            },
            {
                "start_time": 40.279545454545456,
                "end_time": 40.48181818181818,
                "pitch": 47,
                "velocity": 80,
                "duration": 0.20227272727272094,
                "tempo": 120.0
            },
            {
                "start_time": 40.48181818181818,
                "end_time": 40.68181818181818,
                "pitch": 46,
                "velocity": 80,
                "duration": 0.20000000000000284,
                "tempo": 120.0
            },
            {
                "start_time": 40.68181818181818,
                "end_time": 40.88181818181818,
                "pitch": 46,
                "velocity": 80,
                "duration": 0.20000000000000284,
                "tempo": 120.0
            },
            {
                "start_time": 40.88181818181818,
                "end_time": 41.08181818181818,
                "pitch": 46,
                "velocity": 80,
                "duration": 0.19999999999999574,
                "tempo": 120.0
            },
            {
                "start_time": 41.08181818181818,
                "end_time": 41.28181818181818,
                "pitch": 46,
                "velocity": 80,
                "duration": 0.20000000000000284,
                "tempo": 120.0
            },
            {
                "start_time": 41.28181818181818,
                "end_time": 41.48181818181818,
                "pitch": 46,
                "velocity": 80,
                "duration": 0.19999999999999574,
                "tempo": 120.0
            },
            {
                "start_time": 41.48181818181818,
                "end_time": 41.68181818181818,
                "pitch": 46,
                "velocity": 80,
                "duration": 0.20000000000000284,
                "tempo": 120.0
            },
            {
                "start_time": 41.68181818181818,
                "end_time": 41.840909090909086,
                "pitch": 46,
                "velocity": 80,
                "duration": 0.1590909090909065,
                "tempo": 120.0
            },
            {
                "start_time": 41.840909090909086,
                "end_time": 42.05,
                "pitch": 46,
                "velocity": 80,
                "duration": 0.20909090909091077,
                "tempo": 120.0
            },
            {
                "start_time": 42.05,
                "end_time": 42.22727272727273,
                "pitch": 45,
                "velocity": 80,
                "duration": 0.17727272727272947,
                "tempo": 120.0
            },
            {
                "start_time": 42.22727272727273,
                "end_time": 42.41136363636363,
                "pitch": 45,
                "velocity": 80,
                "duration": 0.18409090909090509,
                "tempo": 120.0
            },
            {
                "start_time": 42.62045454545454,
                "end_time": 42.81136363636364,
                "pitch": 47,
                "velocity": 80,
                "duration": 0.19090909090909491,
                "tempo": 120.0
            },
            {
                "start_time": 43.02045454545454,
                "end_time": 43.62045454545454,
                "pitch": 49,
                "velocity": 80,
                "duration": 0.6000000000000014,
                "tempo": 120.0
            },
            {
                "start_time": 43.62045454545454,
                "end_time": 43.80681818181818,
                "pitch": 50,
                "velocity": 80,
                "duration": 0.1863636363636374,
                "tempo": 120.0
            },
            {
                "start_time": 43.81818181818181,
                "end_time": 43.974999999999994,
                "pitch": 50,
                "velocity": 80,
                "duration": 0.1568181818181813,
                "tempo": 120.0
            },
            {
                "start_time": 43.974999999999994,
                "end_time": 44.15909090909091,
                "pitch": 50,
                "velocity": 80,
                "duration": 0.1840909090909122,
                "tempo": 120.0
            },
            {
                "start_time": 44.15909090909091,
                "end_time": 44.345454545454544,
                "pitch": 50,
                "velocity": 80,
                "duration": 0.1863636363636374,
                "tempo": 120.0
            },
            {
                "start_time": 44.345454545454544,
                "end_time": 44.54545454545455,
                "pitch": 50,
                "velocity": 80,
                "duration": 0.20000000000000284,
                "tempo": 120.0
            },
            {
                "start_time": 44.54545454545455,
                "end_time": 44.74545454545454,
                "pitch": 50,
                "velocity": 80,
                "duration": 0.19999999999999574,
                "tempo": 120.0
            },
            {
                "start_time": 44.74545454545454,
                "end_time": 44.945454545454545,
                "pitch": 50,
                "velocity": 80,
                "duration": 0.20000000000000284,
                "tempo": 120.0
            },
            {
                "start_time": 44.945454545454545,
                "end_time": 45.14545454545454,
                "pitch": 50,
                "velocity": 80,
                "duration": 0.19999999999999574,
                "tempo": 120.0
            },
            {
                "start_time": 45.14545454545454,
                "end_time": 45.345454545454544,
                "pitch": 48,
                "velocity": 80,
                "duration": 0.20000000000000284,
                "tempo": 120.0
            },
            {
                "start_time": 45.345454545454544,
                "end_time": 45.54545454545455,
                "pitch": 48,
                "velocity": 80,
                "duration": 0.20000000000000284,
                "tempo": 120.0
            },
            {
                "start_time": 45.54545454545455,
                "end_time": 45.74545454545454,
                "pitch": 48,
                "velocity": 80,
                "duration": 0.19999999999999574,
                "tempo": 120.0
            },
            {
                "start_time": 45.74545454545454,
                "end_time": 45.945454545454545,
                "pitch": 48,
                "velocity": 80,
                "duration": 0.20000000000000284,
                "tempo": 120.0
            },
            {
                "start_time": 45.945454545454545,
                "end_time": 46.11590909090909,
                "pitch": 48,
                "velocity": 80,
                "duration": 0.17045454545454675,
                "tempo": 120.0
            },
            {
                "start_time": 46.11590909090909,
                "end_time": 46.31590909090909,
                "pitch": 48,
                "velocity": 80,
                "duration": 0.19999999999999574,
                "tempo": 120.0
            },
            {
                "start_time": 46.31590909090909,
                "end_time": 46.502272727272725,
                "pitch": 48,
                "velocity": 80,
                "duration": 0.1863636363636374,
                "tempo": 120.0
            },
            {
                "start_time": 46.502272727272725,
                "end_time": 46.68636363636364,
                "pitch": 48,
                "velocity": 80,
                "duration": 0.1840909090909122,
                "tempo": 120.0
            },
            {
                "start_time": 46.68636363636364,
                "end_time": 46.88636363636363,
                "pitch": 47,
                "velocity": 80,
                "duration": 0.19999999999999574,
                "tempo": 120.0
            },
            {
                "start_time": 46.88636363636363,
                "end_time": 47.086363636363636,
                "pitch": 47,
                "velocity": 80,
                "duration": 0.20000000000000284,
                "tempo": 120.0
            },
            {
                "start_time": 47.086363636363636,
                "end_time": 47.28636363636363,
                "pitch": 47,
                "velocity": 80,
                "duration": 0.19999999999999574,
                "tempo": 120.0
            },
            {
                "start_time": 47.28636363636363,
                "end_time": 47.486363636363635,
                "pitch": 47,
                "velocity": 80,
                "duration": 0.20000000000000284,
                "tempo": 120.0
            },
            {
                "start_time": 47.486363636363635,
                "end_time": 47.68863636363636,
                "pitch": 47,
                "velocity": 80,
                "duration": 0.20227272727272805,
                "tempo": 120.0
            },
            {
                "start_time": 47.68863636363636,
                "end_time": 47.89090909090909,
                "pitch": 47,
                "velocity": 80,
                "duration": 0.20227272727272805,
                "tempo": 120.0
            },
            {
                "start_time": 47.89090909090909,
                "end_time": 48.090909090909086,
                "pitch": 47,
                "velocity": 80,
                "duration": 0.19999999999999574,
                "tempo": 120.0
            },
            {
                "start_time": 48.090909090909086,
                "end_time": 48.25909090909091,
                "pitch": 47,
                "velocity": 80,
                "duration": 0.16818181818182154,
                "tempo": 120.0
            },
            {
                "start_time": 48.25909090909091,
                "end_time": 48.445454545454545,
                "pitch": 43,
                "velocity": 80,
                "duration": 0.1863636363636374,
                "tempo": 120.0
            },
            {
                "start_time": 48.445454545454545,
                "end_time": 48.62954545454545,
                "pitch": 43,
                "velocity": 80,
                "duration": 0.18409090909090509,
                "tempo": 120.0
            },
            {
                "start_time": 48.62954545454545,
                "end_time": 48.82954545454545,
                "pitch": 43,
                "velocity": 80,
                "duration": 0.20000000000000284,
                "tempo": 120.0
            },
            {
                "start_time": 48.82954545454545,
                "end_time": 49.02954545454545,
                "pitch": 43,
                "velocity": 80,
                "duration": 0.19999999999999574,
                "tempo": 120.0
            },
            {
                "start_time": 49.02954545454545,
                "end_time": 49.22954545454545,
                "pitch": 43,
                "velocity": 80,
                "duration": 0.20000000000000284,
                "tempo": 120.0
            },
            {
                "start_time": 49.22954545454545,
                "end_time": 49.429545454545455,
                "pitch": 43,
                "velocity": 80,
                "duration": 0.20000000000000284,
                "tempo": 120.0
            },
            {
                "start_time": 49.429545454545455,
                "end_time": 49.63181818181818,
                "pitch": 43,
                "velocity": 80,
                "duration": 0.20227272727272805,
                "tempo": 120.0
            },
            {
                "start_time": 49.63181818181818,
                "end_time": 49.834090909090904,
                "pitch": 43,
                "velocity": 80,
                "duration": 0.20227272727272094,
                "tempo": 120.0
            },
            {
                "start_time": 49.834090909090904,
                "end_time": 50.03409090909091,
                "pitch": 41,
                "velocity": 80,
                "duration": 0.20000000000000284,
                "tempo": 120.0
            },
            {
                "start_time": 50.03409090909091,
                "end_time": 50.19318181818181,
                "pitch": 41,
                "velocity": 80,
                "duration": 0.1590909090909065,
                "tempo": 120.0
            },
            {
                "start_time": 50.19318181818181,
                "end_time": 50.37954545454545,
                "pitch": 41,
                "velocity": 80,
                "duration": 0.1863636363636374,
                "tempo": 120.0
            },
            {
                "start_time": 50.37954545454545,
                "end_time": 50.56363636363636,
                "pitch": 41,
                "velocity": 80,
                "duration": 0.1840909090909122,
                "tempo": 120.0
            },
            {
                "start_time": 50.56363636363636,
                "end_time": 50.76136363636363,
                "pitch": 41,
                "velocity": 80,
                "duration": 0.19772727272727053,
                "tempo": 120.0
            },
            {
                "start_time": 50.76136363636363,
                "end_time": 50.95681818181818,
                "pitch": 41,
                "velocity": 80,
                "duration": 0.19545454545454533,
                "tempo": 120.0
            },
            {
                "start_time": 50.95681818181818,
                "end_time": 51.16136363636363,
                "pitch": 41,
                "velocity": 80,
                "duration": 0.20454545454545325,
                "tempo": 120.0
            },
            {
                "start_time": 51.16136363636363,
                "end_time": 51.365909090909085,
                "pitch": 41,
                "velocity": 80,
                "duration": 0.20454545454545325,
                "tempo": 120.0
            },
            {
                "start_time": 51.365909090909085,
                "end_time": 51.56818181818181,
                "pitch": 43,
                "velocity": 80,
                "duration": 0.20227272727272805,
                "tempo": 120.0
            },
            {
                "start_time": 51.56818181818181,
                "end_time": 51.768181818181816,
                "pitch": 43,
                "velocity": 80,
                "duration": 0.20000000000000284,
                "tempo": 120.0
            },
            {
                "start_time": 51.768181818181816,
                "end_time": 51.96363636363636,
                "pitch": 43,
                "velocity": 80,
                "duration": 0.19545454545454533,
                "tempo": 120.0
            },
            {
                "start_time": 51.96363636363636,
                "end_time": 52.15909090909091,
                "pitch": 43,
                "velocity": 80,
                "duration": 0.19545454545454533,
                "tempo": 120.0
            },
            {
                "start_time": 52.15909090909091,
                "end_time": 52.32954545454545,
                "pitch": 43,
                "velocity": 80,
                "duration": 0.17045454545454675,
                "tempo": 120.0
            },
            {
                "start_time": 52.32954545454545,
                "end_time": 52.52954545454545,
                "pitch": 43,
                "velocity": 80,
                "duration": 0.19999999999999574,
                "tempo": 120.0
            },
            {
                "start_time": 52.52954545454545,
                "end_time": 52.71363636363636,
                "pitch": 43,
                "velocity": 80,
                "duration": 0.1840909090909122,
                "tempo": 120.0
            },
            {
                "start_time": 52.71363636363636,
                "end_time": 52.9,
                "pitch": 43,
                "velocity": 80,
                "duration": 0.1863636363636374,
                "tempo": 120.0
            },
            {
                "start_time": 52.9,
                "end_time": 53.099999999999994,
                "pitch": 40,
                "velocity": 80,
                "duration": 0.19999999999999574,
                "tempo": 120.0
            },
            {
                "start_time": 53.099999999999994,
                "end_time": 53.30227272727272,
                "pitch": 40,
                "velocity": 80,
                "duration": 0.20227272727272805,
                "tempo": 120.0
            },
            {
                "start_time": 53.30227272727272,
                "end_time": 53.502272727272725,
                "pitch": 40,
                "velocity": 80,
                "duration": 0.20000000000000284,
                "tempo": 120.0
            },
            {
                "start_time": 53.502272727272725,
                "end_time": 53.70227272727273,
                "pitch": 40,
                "velocity": 80,
                "duration": 0.20000000000000284,
                "tempo": 120.0
            },
            {
                "start_time": 53.70227272727273,
                "end_time": 53.902272727272724,
                "pitch": 40,
                "velocity": 80,
                "duration": 0.19999999999999574,
                "tempo": 120.0
            },
            {
                "start_time": 53.902272727272724,
                "end_time": 54.10227272727273,
                "pitch": 40,
                "velocity": 80,
                "duration": 0.20000000000000284,
                "tempo": 120.0
            },
            {
                "start_time": 54.10227272727273,
                "end_time": 54.30227272727272,
                "pitch": 40,
                "velocity": 80,
                "duration": 0.19999999999999574,
                "tempo": 120.0
            },
            {
                "start_time": 54.30227272727272,
                "end_time": 54.47272727272727,
                "pitch": 40,
                "velocity": 80,
                "duration": 0.17045454545454675,
                "tempo": 120.0
            },
            {
                "start_time": 54.47272727272727,
                "end_time": 54.65681818181818,
                "pitch": 45,
                "velocity": 80,
                "duration": 0.1840909090909122,
                "tempo": 120.0
            },
            {
                "start_time": 54.65681818181818,
                "end_time": 54.84318181818182,
                "pitch": 45,
                "velocity": 80,
                "duration": 0.1863636363636374,
                "tempo": 120.0
            },
            {
                "start_time": 54.84318181818182,
                "end_time": 55.043181818181814,
                "pitch": 45,
                "velocity": 80,
                "duration": 0.19999999999999574,
                "tempo": 120.0
            },
            {
                "start_time": 55.043181818181814,
                "end_time": 55.24545454545454,
                "pitch": 45,
                "velocity": 80,
                "duration": 0.20227272727272805,
                "tempo": 120.0
            },
            {
                "start_time": 55.24545454545454,
                "end_time": 55.445454545454545,
                "pitch": 43,
                "velocity": 80,
                "duration": 0.20000000000000284,
                "tempo": 120.0
            },
            {
                "start_time": 55.445454545454545,
                "end_time": 55.64545454545454,
                "pitch": 43,
                "velocity": 80,
                "duration": 0.19999999999999574,
                "tempo": 120.0
            },
            {
                "start_time": 55.64545454545454,
                "end_time": 55.845454545454544,
                "pitch": 43,
                "velocity": 80,
                "duration": 0.20000000000000284,
                "tempo": 120.0
            },
            {
                "start_time": 55.845454545454544,
                "end_time": 56.04545454545454,
                "pitch": 43,
                "velocity": 80,
                "duration": 0.19999999999999574,
                "tempo": 120.0
            },
            {
                "start_time": 56.04545454545454,
                "end_time": 56.24545454545454,
                "pitch": 41,
                "velocity": 80,
                "duration": 0.20000000000000284,
                "tempo": 120.0
            },
            {
                "start_time": 56.24545454545454,
                "end_time": 56.445454545454545,
                "pitch": 41,
                "velocity": 80,
                "duration": 0.20000000000000284,
                "tempo": 120.0
            },
            {
                "start_time": 56.445454545454545,
                "end_time": 56.60454545454545,
                "pitch": 41,
                "velocity": 80,
                "duration": 0.1590909090909065,
                "tempo": 120.0
            },
            {
                "start_time": 56.60454545454545,
                "end_time": 56.804545454545455,
                "pitch": 41,
                "velocity": 80,
                "duration": 0.20000000000000284,
                "tempo": 120.0
            },
            {
                "start_time": 56.804545454545455,
                "end_time": 57.0,
                "pitch": 41,
                "velocity": 80,
                "duration": 0.19545454545454533,
                "tempo": 120.0
            },
            {
                "start_time": 57.0,
                "end_time": 57.17727272727272,
                "pitch": 41,
                "velocity": 80,
                "duration": 0.17727272727272236,
                "tempo": 120.0
            },
            {
                "start_time": 57.17727272727272,
                "end_time": 57.38636363636363,
                "pitch": 41,
                "velocity": 80,
                "duration": 0.20909090909091077,
                "tempo": 120.0
            },
            {
                "start_time": 57.38636363636363,
                "end_time": 57.574999999999996,
                "pitch": 41,
                "velocity": 80,
                "duration": 0.1886363636363626,
                "tempo": 120.0
            },
            {
                "start_time": 57.574999999999996,
                "end_time": 57.775,
                "pitch": 43,
                "velocity": 80,
                "duration": 0.20000000000000284,
                "tempo": 120.0
            },
            {
                "start_time": 57.775,
                "end_time": 57.974999999999994,
                "pitch": 43,
                "velocity": 80,
                "duration": 0.19999999999999574,
                "tempo": 120.0
            },
            {
                "start_time": 57.974999999999994,
                "end_time": 58.175,
                "pitch": 43,
                "velocity": 80,
                "duration": 0.20000000000000284,
                "tempo": 120.0
            },
            {
                "start_time": 58.175,
                "end_time": 58.375,
                "pitch": 43,
                "velocity": 80,
                "duration": 0.20000000000000284,
                "tempo": 120.0
            },
            {
                "start_time": 58.375,
                "end_time": 58.58181818181818,
                "pitch": 43,
                "velocity": 80,
                "duration": 0.20681818181817846,
                "tempo": 120.0
            },
            {
                "start_time": 58.58181818181818,
                "end_time": 58.73863636363636,
                "pitch": 43,
                "velocity": 80,
                "duration": 0.1568181818181813,
                "tempo": 120.0
            },
            {
                "start_time": 58.73863636363636,
                "end_time": 58.92272727272727,
                "pitch": 43,
                "velocity": 80,
                "duration": 0.1840909090909122,
                "tempo": 120.0
            },
            {
                "start_time": 58.92272727272727,
                "end_time": 59.10909090909091,
                "pitch": 43,
                "velocity": 80,
                "duration": 0.1863636363636374,
                "tempo": 120.0
            },
            {
                "start_time": 59.10909090909091,
                "end_time": 59.309090909090905,
                "pitch": 48,
                "velocity": 80,
                "duration": 0.19999999999999574,
                "tempo": 120.0
            },
            {
                "start_time": 59.309090909090905,
                "end_time": 59.50909090909091,
                "pitch": 48,
                "velocity": 80,
                "duration": 0.20000000000000284,
                "tempo": 120.0
            },
            {
                "start_time": 59.50909090909091,
                "end_time": 59.709090909090904,
                "pitch": 48,
                "velocity": 80,
                "duration": 0.19999999999999574,
                "tempo": 120.0
            },
            {
                "start_time": 59.709090909090904,
                "end_time": 59.90909090909091,
                "pitch": 48,
                "velocity": 80,
                "duration": 0.20000000000000284,
                "tempo": 120.0
            },
            {
                "start_time": 59.90909090909091,
                "end_time": 60.10909090909091,
                "pitch": 48,
                "velocity": 80,
                "duration": 0.20000000000000284,
                "tempo": 120.0
            },
            {
                "start_time": 60.10909090909091,
                "end_time": 60.309090909090905,
                "pitch": 48,
                "velocity": 80,
                "duration": 0.19999999999999574,
                "tempo": 120.0
            },
            {
                "start_time": 60.309090909090905,
                "end_time": 60.50909090909091,
                "pitch": 48,
                "velocity": 80,
                "duration": 0.20000000000000284,
                "tempo": 120.0
            },
            {
                "start_time": 60.50909090909091,
                "end_time": 60.711363636363636,
                "pitch": 48,
                "velocity": 80,
                "duration": 0.20227272727272805,
                "tempo": 120.0
            },
            {
                "start_time": 60.711363636363636,
                "end_time": 60.881818181818176,
                "pitch": 48,
                "velocity": 80,
                "duration": 0.17045454545453964,
                "tempo": 120.0
            },
            {
                "start_time": 60.881818181818176,
                "end_time": 61.08181818181818,
                "pitch": 48,
                "velocity": 80,
                "duration": 0.20000000000000284,
                "tempo": 120.0
            },
            {
                "start_time": 61.08181818181818,
                "end_time": 61.26590909090909,
                "pitch": 48,
                "velocity": 80,
                "duration": 0.1840909090909122,
                "tempo": 120.0
            },
            {
                "start_time": 61.26590909090909,
                "end_time": 61.45227272727272,
                "pitch": 48,
                "velocity": 80,
                "duration": 0.1863636363636303,
                "tempo": 120.0
            },
            {
                "start_time": 61.45227272727272,
                "end_time": 61.652272727272724,
                "pitch": 48,
                "velocity": 80,
                "duration": 0.20000000000000284,
                "tempo": 120.0
            },
            {
                "start_time": 61.652272727272724,
                "end_time": 61.85227272727273,
                "pitch": 48,
                "velocity": 80,
                "duration": 0.20000000000000284,
                "tempo": 120.0
            },
            {
                "start_time": 61.85227272727273,
                "end_time": 62.05227272727272,
                "pitch": 48,
                "velocity": 80,
                "duration": 0.19999999999999574,
                "tempo": 120.0
            },
            {
                "start_time": 62.05227272727272,
                "end_time": 62.252272727272725,
                "pitch": 48,
                "velocity": 80,
                "duration": 0.20000000000000284,
                "tempo": 120.0
            },
            {
                "start_time": 62.252272727272725,
                "end_time": 62.45227272727272,
                "pitch": 48,
                "velocity": 80,
                "duration": 0.19999999999999574,
                "tempo": 120.0
            },
            {
                "start_time": 62.45227272727272,
                "end_time": 62.65454545454545,
                "pitch": 48,
                "velocity": 80,
                "duration": 0.20227272727272805,
                "tempo": 120.0
            }
        ],
        "Vibraphone": [
            {
                "start_time": 0.20909090909090908,
                "end_time": 0.40909090909090906,
                "pitch": 72,
                "velocity": 80,
                "duration": 0.19999999999999998,
                "tempo": 120.0
            },
            {
                "start_time": 0.40909090909090906,
                "end_time": 0.8090909090909091,
                "pitch": 71,
                "velocity": 80,
                "duration": 0.4,
                "tempo": 120.0
            },
            {
                "start_time": 0.8090909090909091,
                "end_time": 1.0068181818181818,
                "pitch": 72,
                "velocity": 80,
                "duration": 0.19772727272727275,
                "tempo": 120.0
            },
            {
                "start_time": 1.0068181818181818,
                "end_time": 1.4022727272727271,
                "pitch": 71,
                "velocity": 80,
                "duration": 0.3954545454545453,
                "tempo": 120.0
            },
            {
                "start_time": 1.4022727272727271,
                "end_time": 1.6022727272727273,
                "pitch": 72,
                "velocity": 80,
                "duration": 0.20000000000000018,
                "tempo": 120.0
            },
            {
                "start_time": 1.6022727272727273,
                "end_time": 1.7727272727272727,
                "pitch": 72,
                "velocity": 80,
                "duration": 0.17045454545454541,
                "tempo": 120.0
            },
            {
                "start_time": 1.7727272727272727,
                "end_time": 1.9749999999999999,
                "pitch": 72,
                "velocity": 80,
                "duration": 0.20227272727272716,
                "tempo": 120.0
            },
            {
                "start_time": 1.9749999999999999,
                "end_time": 2.3454545454545452,
                "pitch": 71,
                "velocity": 80,
                "duration": 0.37045454545454537,
                "tempo": 120.0
            },
            {
                "start_time": 2.3454545454545452,
                "end_time": 2.5454545454545454,
                "pitch": 74,
                "velocity": 80,
                "duration": 0.20000000000000018,
                "tempo": 120.0
            },
            {
                "start_time": 2.5454545454545454,
                "end_time": 2.9454545454545453,
                "pitch": 72,
                "velocity": 80,
                "duration": 0.3999999999999999,
                "tempo": 120.0
            },
            {
                "start_time": 2.9454545454545453,
                "end_time": 3.3454545454545452,
                "pitch": 71,
                "velocity": 80,
                "duration": 0.3999999999999999,
                "tempo": 120.0
            },
            {
                "start_time": 3.3454545454545452,
                "end_time": 3.5477272727272724,
                "pitch": 71,
                "velocity": 80,
                "duration": 0.20227272727272716,
                "tempo": 120.0
            },
            {
                "start_time": 3.5477272727272724,
                "end_time": 3.918181818181818,
                "pitch": 69,
                "velocity": 80,
                "duration": 0.3704545454545456,
                "tempo": 120.0
            },
            {
                "start_time": 3.918181818181818,
                "end_time": 4.1022727272727275,
                "pitch": 71,
                "velocity": 80,
                "duration": 0.18409090909090953,
                "tempo": 120.0
            },
            {
                "start_time": 4.1022727272727275,
                "end_time": 4.488636363636363,
                "pitch": 69,
                "velocity": 80,
                "duration": 0.3863636363636358,
                "tempo": 120.0
            },
            {
                "start_time": 4.488636363636363,
                "end_time": 4.888636363636364,
                "pitch": 71,
                "velocity": 80,
                "duration": 0.40000000000000036,
                "tempo": 120.0
            },
            {
                "start_time": 4.888636363636364,
                "end_time": 5.090909090909091,
                "pitch": 71,
                "velocity": 80,
                "duration": 0.20227272727272716,
                "tempo": 120.0
            },
            {
                "start_time": 5.090909090909091,
                "end_time": 5.493181818181818,
                "pitch": 69,
                "velocity": 80,
                "duration": 0.40227272727272734,
                "tempo": 120.0
            },
            {
                "start_time": 5.493181818181818,
                "end_time": 5.693181818181818,
                "pitch": 74,
                "velocity": 80,
                "duration": 0.20000000000000018,
                "tempo": 120.0
            },
            {
                "start_time": 5.693181818181818,
                "end_time": 6.054545454545455,
                "pitch": 72,
                "velocity": 80,
                "duration": 0.36136363636363633,
                "tempo": 120.0
            },
            {
                "start_time": 6.0636363636363635,
                "end_time": 7.2318181818181815,
                "pitch": 69,
                "velocity": 80,
                "duration": 1.168181818181818,
                "tempo": 120.0
            },
            {
                "start_time": 7.2318181818181815,
                "end_time": 7.638636363636364,
                "pitch": 72,
                "velocity": 80,
                "duration": 0.4068181818181822,
                "tempo": 120.0
            },
            {
                "start_time": 7.638636363636364,
                "end_time": 8.381818181818181,
                "pitch": 71,
                "velocity": 80,
                "duration": 0.7431818181818173,
                "tempo": 120.0
            },
            {
                "start_time": 8.381818181818181,
                "end_time": 9.372727272727273,
                "pitch": 67,
                "velocity": 80,
                "duration": 0.9909090909090921,
                "tempo": 120.0
            },
            {
                "start_time": 9.372727272727273,
                "end_time": 9.572727272727272,
                "pitch": 69,
                "velocity": 80,
                "duration": 0.1999999999999993,
                "tempo": 120.0
            },
            {
                "start_time": 9.572727272727272,
                "end_time": 9.775,
                "pitch": 69,
                "velocity": 80,
                "duration": 0.20227272727272805,
                "tempo": 120.0
            },
            {
                "start_time": 9.775,
                "end_time": 10.177272727272726,
                "pitch": 67,
                "velocity": 80,
                "duration": 0.40227272727272556,
                "tempo": 120.0
            },
            {
                "start_time": 10.177272727272726,
                "end_time": 10.347727272727273,
                "pitch": 69,
                "velocity": 80,
                "duration": 0.17045454545454675,
                "tempo": 120.0
            },
            {
                "start_time": 10.347727272727273,
                "end_time": 10.73181818181818,
                "pitch": 67,
                "velocity": 80,
                "duration": 0.38409090909090793,
                "tempo": 120.0
            },
            {
                "start_time": 10.73181818181818,
                "end_time": 11.118181818181817,
                "pitch": 69,
                "velocity": 80,
                "duration": 0.3863636363636367,
                "tempo": 120.0
            },
            {
                "start_time": 11.118181818181817,
                "end_time": 11.320454545454545,
                "pitch": 69,
                "velocity": 80,
                "duration": 0.20227272727272805,
                "tempo": 120.0
            },
            {
                "start_time": 11.320454545454545,
                "end_time": 11.720454545454546,
                "pitch": 67,
                "velocity": 80,
                "duration": 0.40000000000000036,
                "tempo": 120.0
            },
            {
                "start_time": 11.720454545454546,
                "end_time": 11.922727272727272,
                "pitch": 69,
                "velocity": 80,
                "duration": 0.20227272727272627,
                "tempo": 120.0
            },
            {
                "start_time": 11.922727272727272,
                "end_time": 12.495454545454544,
                "pitch": 71,
                "velocity": 80,
                "duration": 0.5727272727272723,
                "tempo": 120.0
            },
            {
                "start_time": 12.495454545454544,
                "end_time": 12.681818181818182,
                "pitch": 72,
                "velocity": 80,
                "duration": 0.1863636363636374,
                "tempo": 120.0
            },
            {
                "start_time": 12.681818181818182,
                "end_time": 12.86590909090909,
                "pitch": 72,
                "velocity": 80,
                "duration": 0.18409090909090864,
                "tempo": 120.0
            },
            {
                "start_time": 12.86590909090909,
                "end_time": 13.268181818181818,
                "pitch": 71,
                "velocity": 80,
                "duration": 0.40227272727272734,
                "tempo": 120.0
            },
            {
                "start_time": 13.268181818181818,
                "end_time": 13.470454545454546,
                "pitch": 72,
                "velocity": 80,
                "duration": 0.20227272727272805,
                "tempo": 120.0
            },
            {
                "start_time": 13.470454545454546,
                "end_time": 13.872727272727271,
                "pitch": 71,
                "velocity": 80,
                "duration": 0.40227272727272556,
                "tempo": 120.0
            },
            {
                "start_time": 13.872727272727271,
                "end_time": 14.274999999999999,
                "pitch": 72,
                "velocity": 80,
                "duration": 0.40227272727272734,
                "tempo": 120.0
            },
            {
                "start_time": 14.274999999999999,
                "end_time": 14.436363636363636,
                "pitch": 72,
                "velocity": 80,
                "duration": 0.16136363636363704,
                "tempo": 120.0
            },
            {
                "start_time": 14.436363636363636,
                "end_time": 14.806818181818182,
                "pitch": 71,
                "velocity": 80,
                "duration": 0.37045454545454604,
                "tempo": 120.0
            },
            {
                "start_time": 14.806818181818182,
                "end_time": 15.009090909090908,
                "pitch": 74,
                "velocity": 80,
                "duration": 0.20227272727272627,
                "tempo": 120.0
            },
            {
                "start_time": 15.009090909090908,
                "end_time": 15.404545454545454,
                "pitch": 72,
                "velocity": 80,
                "duration": 0.3954545454545464,
                "tempo": 120.0
            },
            {
                "start_time": 15.404545454545454,
                "end_time": 15.802272727272726,
                "pitch": 71,
                "velocity": 80,
                "duration": 0.3977272727272716,
                "tempo": 120.0
            },
            {
                "start_time": 15.802272727272726,
                "end_time": 16.002272727272725,
                "pitch": 71,
                "velocity": 80,
                "duration": 0.1999999999999993,
                "tempo": 120.0
            },
            {
                "start_time": 16.002272727272725,
                "end_time": 16.404545454545453,
                "pitch": 69,
                "velocity": 80,
                "duration": 0.40227272727272734,
                "tempo": 120.0
            },
            {
                "start_time": 16.404545454545453,
                "end_time": 16.575,
                "pitch": 71,
                "velocity": 80,
                "duration": 0.17045454545454675,
                "tempo": 120.0
            },
            {
                "start_time": 16.575,
                "end_time": 16.959090909090907,
                "pitch": 69,
                "velocity": 80,
                "duration": 0.38409090909090793,
                "tempo": 120.0
            },
            {
                "start_time": 16.959090909090907,
                "end_time": 17.345454545454544,
                "pitch": 71,
                "velocity": 80,
                "duration": 0.3863636363636367,
                "tempo": 120.0
            },
            {
                "start_time": 17.345454545454544,
                "end_time": 17.547727272727272,
                "pitch": 71,
                "velocity": 80,
                "duration": 0.20227272727272805,
                "tempo": 120.0
            },
            {
                "start_time": 17.547727272727272,
                "end_time": 17.94772727272727,
                "pitch": 69,
                "velocity": 80,
                "duration": 0.3999999999999986,
                "tempo": 120.0
            },
            {
                "start_time": 17.94772727272727,
                "end_time": 18.147727272727273,
                "pitch": 74,
                "velocity": 80,
                "duration": 0.20000000000000284,
                "tempo": 120.0
            },
            {
                "start_time": 18.147727272727273,
                "end_time": 18.547727272727272,
                "pitch": 72,
                "velocity": 80,
                "duration": 0.3999999999999986,
                "tempo": 120.0
            },
            {
                "start_time": 18.547727272727272,
                "end_time": 19.69090909090909,
                "pitch": 72,
                "velocity": 80,
                "duration": 1.1431818181818194,
                "tempo": 120.0
            },
            {
                "start_time": 19.69090909090909,
                "end_time": 20.09090909090909,
                "pitch": 74,
                "velocity": 80,
                "duration": 0.3999999999999986,
                "tempo": 120.0
            },
            {
                "start_time": 20.09090909090909,
                "end_time": 20.849999999999998,
                "pitch": 72,
                "velocity": 80,
                "duration": 0.7590909090909079,
                "tempo": 120.0
            },
            {
                "start_time": 20.849999999999998,
                "end_time": 21.81590909090909,
                "pitch": 69,
                "velocity": 80,
                "duration": 0.9659090909090935,
                "tempo": 120.0
            },
            {
                "start_time": 21.81590909090909,
                "end_time": 22.020454545454545,
                "pitch": 72,
                "velocity": 80,
                "duration": 0.20454545454545325,
                "tempo": 120.0
            },
            {
                "start_time": 22.020454545454545,
                "end_time": 22.227272727272727,
                "pitch": 72,
                "velocity": 80,
                "duration": 0.206818181818182,
                "tempo": 120.0
            },
            {
                "start_time": 22.227272727272727,
                "end_time": 22.627272727272725,
                "pitch": 71,
                "velocity": 80,
                "duration": 0.3999999999999986,
                "tempo": 120.0
            },
            {
                "start_time": 22.627272727272725,
                "end_time": 22.82272727272727,
                "pitch": 72,
                "velocity": 80,
                "duration": 0.19545454545454533,
                "tempo": 120.0
            },
            {
                "start_time": 22.82272727272727,
                "end_time": 23.174999999999997,
                "pitch": 71,
                "velocity": 80,
                "duration": 0.3522727272727266,
                "tempo": 120.0
            },
            {
                "start_time": 23.174999999999997,
                "end_time": 23.55909090909091,
                "pitch": 72,
                "velocity": 80,
                "duration": 0.3840909090909115,
                "tempo": 120.0
            },
            {
                "start_time": 23.55909090909091,
                "end_time": 23.759090909090908,
                "pitch": 72,
                "velocity": 80,
                "duration": 0.1999999999999993,
                "tempo": 120.0
            },
            {
                "start_time": 23.759090909090908,
                "end_time": 24.163636363636364,
                "pitch": 71,
                "velocity": 80,
                "duration": 0.4045454545454561,
                "tempo": 120.0
            },
            {
                "start_time": 24.163636363636364,
                "end_time": 24.363636363636363,
                "pitch": 72,
                "velocity": 80,
                "duration": 0.1999999999999993,
                "tempo": 120.0
            },
            {
                "start_time": 24.363636363636363,
                "end_time": 24.93409090909091,
                "pitch": 67,
                "velocity": 80,
                "duration": 0.5704545454545453,
                "tempo": 120.0
            },
            {
                "start_time": 24.93409090909091,
                "end_time": 25.304545454545455,
                "pitch": 69,
                "velocity": 80,
                "duration": 0.37045454545454604,
                "tempo": 120.0
            },
            {
                "start_time": 26.10909090909091,
                "end_time": 26.30909090909091,
                "pitch": 69,
                "velocity": 80,
                "duration": 0.1999999999999993,
                "tempo": 120.0
            },
            {
                "start_time": 26.30909090909091,
                "end_time": 26.511363636363637,
                "pitch": 71,
                "velocity": 80,
                "duration": 0.20227272727272805,
                "tempo": 120.0
            },
            {
                "start_time": 27.652272727272727,
                "end_time": 27.852272727272727,
                "pitch": 71,
                "velocity": 80,
                "duration": 0.1999999999999993,
                "tempo": 120.0
            },
            {
                "start_time": 27.852272727272727,
                "end_time": 28.052272727272726,
                "pitch": 71,
                "velocity": 80,
                "duration": 0.1999999999999993,
                "tempo": 120.0
            },
            {
                "start_time": 29.206818181818182,
                "end_time": 29.39090909090909,
                "pitch": 71,
                "velocity": 80,
                "duration": 0.18409090909090864,
                "tempo": 120.0
            },
            {
                "start_time": 29.39090909090909,
                "end_time": 29.977272727272727,
                "pitch": 72,
                "velocity": 80,
                "duration": 0.586363636363636,
                "tempo": 120.0
            },
            {
                "start_time": 30.179545454545455,
                "end_time": 30.579545454545453,
                "pitch": 71,
                "velocity": 80,
                "duration": 0.3999999999999986,
                "tempo": 120.0
            },
            {
                "start_time": 31.179545454545455,
                "end_time": 31.349999999999998,
                "pitch": 69,
                "velocity": 80,
                "duration": 0.1704545454545432,
                "tempo": 120.0
            },
            {
                "start_time": 31.349999999999998,
                "end_time": 31.552272727272726,
                "pitch": 69,
                "velocity": 80,
                "duration": 0.20227272727272805,
                "tempo": 120.0
            },
            {
                "start_time": 31.552272727272726,
                "end_time": 31.736363636363635,
                "pitch": 69,
                "velocity": 80,
                "duration": 0.18409090909090864,
                "tempo": 120.0
            },
            {
                "start_time": 31.736363636363635,
                "end_time": 31.922727272727272,
                "pitch": 65,
                "velocity": 80,
                "duration": 0.1863636363636374,
                "tempo": 120.0
            },
            {
                "start_time": 31.922727272727272,
                "end_time": 32.12272727272727,
                "pitch": 65,
                "velocity": 80,
                "duration": 0.19999999999999574,
                "tempo": 120.0
            },
            {
                "start_time": 32.12272727272727,
                "end_time": 32.32272727272727,
                "pitch": 65,
                "velocity": 80,
                "duration": 0.20000000000000284,
                "tempo": 120.0
            },
            {
                "start_time": 32.32272727272727,
                "end_time": 32.52272727272727,
                "pitch": 69,
                "velocity": 80,
                "duration": 0.20000000000000284,
                "tempo": 120.0
            },
            {
                "start_time": 32.52272727272727,
                "end_time": 32.72272727272727,
                "pitch": 69,
                "velocity": 80,
                "duration": 0.19999999999999574,
                "tempo": 120.0
            },
            {
                "start_time": 32.72272727272727,
                "end_time": 32.92272727272727,
                "pitch": 67,
                "velocity": 80,
                "duration": 0.20000000000000284,
                "tempo": 120.0
            },
            {
                "start_time": 32.92272727272727,
                "end_time": 33.12272727272727,
                "pitch": 67,
                "velocity": 80,
                "duration": 0.19999999999999574,
                "tempo": 120.0
            },
            {
                "start_time": 33.12272727272727,
                "end_time": 33.324999999999996,
                "pitch": 67,
                "velocity": 80,
                "duration": 0.20227272727272805,
                "tempo": 120.0
            },
            {
                "start_time": 33.324999999999996,
                "end_time": 33.49545454545454,
                "pitch": 64,
                "velocity": 80,
                "duration": 0.17045454545454675,
                "tempo": 120.0
            },
            {
                "start_time": 33.49545454545454,
                "end_time": 33.679545454545455,
                "pitch": 64,
                "velocity": 80,
                "duration": 0.1840909090909122,
                "tempo": 120.0
            },
            {
                "start_time": 33.679545454545455,
                "end_time": 33.86590909090909,
                "pitch": 64,
                "velocity": 80,
                "duration": 0.1863636363636374,
                "tempo": 120.0
            },
            {
                "start_time": 33.86590909090909,
                "end_time": 34.06590909090909,
                "pitch": 67,
                "velocity": 80,
                "duration": 0.19999999999999574,
                "tempo": 120.0
            },
            {
                "start_time": 34.06590909090909,
                "end_time": 34.26590909090909,
                "pitch": 67,
                "velocity": 80,
                "duration": 0.20000000000000284,
                "tempo": 120.0
            },
            {
                "start_time": 34.26590909090909,
                "end_time": 34.465909090909086,
                "pitch": 69,
                "velocity": 80,
                "duration": 0.19999999999999574,
                "tempo": 120.0
            },
            {
                "start_time": 34.465909090909086,
                "end_time": 34.66590909090909,
                "pitch": 69,
                "velocity": 80,
                "duration": 0.20000000000000284,
                "tempo": 120.0
            },
            {
                "start_time": 34.66590909090909,
                "end_time": 34.86590909090909,
                "pitch": 69,
                "velocity": 80,
                "duration": 0.20000000000000284,
                "tempo": 120.0
            },
            {
                "start_time": 34.86590909090909,
                "end_time": 35.06818181818181,
                "pitch": 65,
                "velocity": 80,
                "duration": 0.20227272727272094,
                "tempo": 120.0
            },
            {
                "start_time": 35.06818181818181,
                "end_time": 35.268181818181816,
                "pitch": 65,
                "velocity": 80,
                "duration": 0.20000000000000284,
                "tempo": 120.0
            },
            {
                "start_time": 35.268181818181816,
                "end_time": 35.46818181818182,
                "pitch": 65,
                "velocity": 80,
                "duration": 0.20000000000000284,
                "tempo": 120.0
            },
            {
                "start_time": 35.46818181818182,
                "end_time": 35.627272727272725,
                "pitch": 69,
                "velocity": 80,
                "duration": 0.1590909090909065,
                "tempo": 120.0
            },
            {
                "start_time": 35.627272727272725,
                "end_time": 35.82727272727273,
                "pitch": 69,
                "velocity": 80,
                "duration": 0.20000000000000284,
                "tempo": 120.0
            },
            {
                "start_time": 35.82727272727273,
                "end_time": 36.01363636363636,
                "pitch": 74,
                "velocity": 80,
                "duration": 0.1863636363636303,
                "tempo": 120.0
            },
            {
                "start_time": 36.01363636363636,
                "end_time": 36.199999999999996,
                "pitch": 74,
                "velocity": 80,
                "duration": 0.1863636363636374,
                "tempo": 120.0
            },
            {
                "start_time": 36.199999999999996,
                "end_time": 36.39545454545454,
                "pitch": 74,
                "velocity": 80,
                "duration": 0.19545454545454533,
                "tempo": 120.0
            },
            {
                "start_time": 36.39545454545454,
                "end_time": 36.590909090909086,
                "pitch": 71,
                "velocity": 80,
                "duration": 0.19545454545454533,
                "tempo": 120.0
            },
            {
                "start_time": 36.590909090909086,
                "end_time": 36.79090909090909,
                "pitch": 71,
                "velocity": 80,
                "duration": 0.20000000000000284,
                "tempo": 120.0
            },
            {
                "start_time": 36.79090909090909,
                "end_time": 36.99090909090909,
                "pitch": 71,
                "velocity": 80,
                "duration": 0.20000000000000284,
                "tempo": 120.0
            },
            {
                "start_time": 36.99090909090909,
                "end_time": 37.19772727272727,
                "pitch": 67,
                "velocity": 80,
                "duration": 0.20681818181817846,
                "tempo": 120.0
            },
            {
                "start_time": 37.19772727272727,
                "end_time": 37.402272727272724,
                "pitch": 67,
                "velocity": 80,
                "duration": 0.20454545454545325,
                "tempo": 120.0
            },
            {
                "start_time": 37.402272727272724,
                "end_time": 38.53636363636363,
                "pitch": 84,
                "velocity": 80,
                "duration": 1.134090909090908,
                "tempo": 120.0
            },
            {
                "start_time": 38.53636363636363,
                "end_time": 38.736363636363635,
                "pitch": 81,
                "velocity": 80,
                "duration": 0.20000000000000284,
                "tempo": 120.0
            },
            {
                "start_time": 38.736363636363635,
                "end_time": 39.70681818181818,
                "pitch": 88,
                "velocity": 80,
                "duration": 0.9704545454545439,
                "tempo": 120.0
            },
            {
                "start_time": 39.70681818181818,
                "end_time": 39.94772727272727,
                "pitch": 86,
                "velocity": 80,
                "duration": 0.24090909090909207,
                "tempo": 120.0
            },
            {
                "start_time": 39.94772727272727,
                "end_time": 40.209090909090904,
                "pitch": 85,
                "velocity": 80,
                "duration": 0.26136363636363313,
                "tempo": 120.0
            },
            {
                "start_time": 40.209090909090904,
                "end_time": 40.48181818181818,
                "pitch": 83,
                "velocity": 80,
                "duration": 0.2727272727272734,
                "tempo": 120.0
            },
            {
                "start_time": 40.48181818181818,
                "end_time": 42.05,
                "pitch": 82,
                "velocity": 80,
                "duration": 1.5681818181818201,
                "tempo": 120.0
            },
            {
                "start_time": 42.05,
                "end_time": 42.62045454545454,
                "pitch": 82,
                "velocity": 80,
                "duration": 0.5704545454545453,
                "tempo": 120.0
            },
            {
                "start_time": 42.62045454545454,
                "end_time": 43.02045454545454,
                "pitch": 83,
                "velocity": 80,
                "duration": 0.3999999999999986,
                "tempo": 120.0
            },
            {
                "start_time": 43.02045454545454,
                "end_time": 43.62045454545454,
                "pitch": 85,
                "velocity": 80,
                "duration": 0.6000000000000014,
                "tempo": 120.0
            },
            {
                "start_time": 43.62045454545454,
                "end_time": 44.54545454545455,
                "pitch": 86,
                "velocity": 80,
                "duration": 0.9250000000000043,
                "tempo": 120.0
            },
            {
                "start_time": 44.54545454545455,
                "end_time": 44.74545454545454,
                "pitch": 83,
                "velocity": 80,
                "duration": 0.19999999999999574,
                "tempo": 120.0
            },
            {
                "start_time": 44.74545454545454,
                "end_time": 44.945454545454545,
                "pitch": 84,
                "velocity": 80,
                "duration": 0.20000000000000284,
                "tempo": 120.0
            },
            {
                "start_time": 44.945454545454545,
                "end_time": 45.945454545454545,
                "pitch": 86,
                "velocity": 80,
                "duration": 1.0,
                "tempo": 120.0
            },
            {
                "start_time": 45.945454545454545,
                "end_time": 46.68636363636364,
                "pitch": 83,
                "velocity": 80,
                "duration": 0.7409090909090921,
                "tempo": 120.0
            },
            {
                "start_time": 46.68636363636364,
                "end_time": 48.090909090909086,
                "pitch": 79,
                "velocity": 80,
                "duration": 1.404545454545449,
                "tempo": 120.0
            },
            {
                "start_time": 48.090909090909086,
                "end_time": 49.834090909090904,
                "pitch": 83,
                "velocity": 80,
                "duration": 1.7431818181818173,
                "tempo": 120.0
            },
            {
                "start_time": 49.834090909090904,
                "end_time": 50.76136363636363,
                "pitch": 77,
                "velocity": 80,
                "duration": 0.9272727272727295,
                "tempo": 120.0
            },
            {
                "start_time": 50.76136363636363,
                "end_time": 50.95681818181818,
                "pitch": 77,
                "velocity": 80,
                "duration": 0.19545454545454533,
                "tempo": 120.0
            },
            {
                "start_time": 50.95681818181818,
                "end_time": 51.16136363636363,
                "pitch": 79,
                "velocity": 80,
                "duration": 0.20454545454545325,
                "tempo": 120.0
            },
            {
                "start_time": 51.16136363636363,
                "end_time": 51.365909090909085,
                "pitch": 81,
                "velocity": 80,
                "duration": 0.20454545454545325,
                "tempo": 120.0
            },
            {
                "start_time": 51.365909090909085,
                "end_time": 52.15909090909091,
                "pitch": 79,
                "velocity": 80,
                "duration": 0.7931818181818215,
                "tempo": 120.0
            },
            {
                "start_time": 52.15909090909091,
                "end_time": 52.9,
                "pitch": 74,
                "velocity": 80,
                "duration": 0.7409090909090921,
                "tempo": 120.0
            },
            {
                "start_time": 52.9,
                "end_time": 53.902272727272724,
                "pitch": 76,
                "velocity": 80,
                "duration": 1.0022727272727252,
                "tempo": 120.0
            },
            {
                "start_time": 53.902272727272724,
                "end_time": 54.10227272727273,
                "pitch": 76,
                "velocity": 80,
                "duration": 0.20000000000000284,
                "tempo": 120.0
            },
            {
                "start_time": 54.10227272727273,
                "end_time": 54.30227272727272,
                "pitch": 76,
                "velocity": 80,
                "duration": 0.19999999999999574,
                "tempo": 120.0
            },
            {
                "start_time": 54.30227272727272,
                "end_time": 54.47272727272727,
                "pitch": 76,
                "velocity": 80,
                "duration": 0.17045454545454675,
                "tempo": 120.0
            },
            {
                "start_time": 54.47272727272727,
                "end_time": 54.65681818181818,
                "pitch": 83,
                "velocity": 80,
                "duration": 0.1840909090909122,
                "tempo": 120.0
            },
            {
                "start_time": 54.65681818181818,
                "end_time": 55.445454545454545,
                "pitch": 81,
                "velocity": 80,
                "duration": 0.788636363636364,
                "tempo": 120.0
            },
            {
                "start_time": 55.445454545454545,
                "end_time": 55.64545454545454,
                "pitch": 81,
                "velocity": 80,
                "duration": 0.19999999999999574,
                "tempo": 120.0
            },
            {
                "start_time": 55.64545454545454,
                "end_time": 55.845454545454544,
                "pitch": 83,
                "velocity": 80,
                "duration": 0.20000000000000284,
                "tempo": 120.0
            },
            {
                "start_time": 55.845454545454544,
                "end_time": 56.990909090909085,
                "pitch": 84,
                "velocity": 80,
                "duration": 1.145454545454541,
                "tempo": 120.0
            },
            {
                "start_time": 56.990909090909085,
                "end_time": 57.375,
                "pitch": 86,
                "velocity": 80,
                "duration": 0.38409090909091503,
                "tempo": 120.0
            },
            {
                "start_time": 57.38636363636363,
                "end_time": 58.58181818181818,
                "pitch": 83,
                "velocity": 80,
                "duration": 1.1954545454545453,
                "tempo": 120.0
            },
            {
                "start_time": 58.58181818181818,
                "end_time": 58.73863636363636,
                "pitch": 81,
                "velocity": 80,
                "duration": 0.1568181818181813,
                "tempo": 120.0
            },
            {
                "start_time": 58.73863636363636,
                "end_time": 58.92272727272727,
                "pitch": 79,
                "velocity": 80,
                "duration": 0.1840909090909122,
                "tempo": 120.0
            },
            {
                "start_time": 58.92272727272727,
                "end_time": 62.252272727272725,
                "pitch": 79,
                "velocity": 80,
                "duration": 3.3295454545454533,
                "tempo": 120.0
            },
            {
                "start_time": 62.252272727272725,
                "end_time": 62.45227272727272,
                "pitch": 72,
                "velocity": 80,
                "duration": 0.19999999999999574,
                "tempo": 120.0
            },
            {
                "start_time": 62.45227272727272,
                "end_time": 62.65454545454545,
                "pitch": 72,
                "velocity": 80,
                "duration": 0.20227272727272805,
                "tempo": 120.0
            }
        ]
    }
}