{
    "track_id": "06 Staff Roll",
    "mood": "relaxed",
    "instruments": {
        "Acoustic Bass": [
            {
                "start_time": 0.011363636363636364,
                "end_time": 0.8999999999999999,
                "pitch": 34,
                "velocity": 64,
                "duration": 0.8886363636363636,
                "tempo": 120.0
            },
            {
                "start_time": 0.8999999999999999,
                "end_time": 2.411363636363636,
                "pitch": 33,
                "velocity": 64,
                "duration": 1.5113636363636362,
                "tempo": 120.0
            },
            {
                "start_time": 2.411363636363636,
                "end_time": 3.315909090909091,
                "pitch": 38,
                "velocity": 64,
                "duration": 0.9045454545454548,
                "tempo": 120.0
            },
            {
                "start_time": 3.315909090909091,
                "end_time": 4.222727272727273,
                "pitch": 38,
                "velocity": 64,
                "duration": 0.9068181818181817,
                "tempo": 120.0
            },
            {
                "start_time": 4.222727272727273,
                "end_time": 4.838636363636363,
                "pitch": 36,
                "velocity": 64,
                "duration": 0.6159090909090903,
                "tempo": 120.0
            },
            {
                "start_time": 4.838636363636363,
                "end_time": 5.738636363636363,
                "pitch": 34,
                "velocity": 64,
                "duration": 0.9000000000000004,
                "tempo": 120.0
            },
            {
                "start_time": 5.74090909090909,
                "end_time": 7.254545454545454,
                "pitch": 33,
                "velocity": 64,
                "duration": 1.5136363636363637,
                "tempo": 120.0
            },
            {
                "start_time": 7.254545454545454,
                "end_time": 8.156818181818181,
                "pitch": 38,
                "velocity": 64,
                "duration": 0.9022727272727273,
                "tempo": 120.0
            },
            {
                "start_time": 8.159090909090908,
                "end_time": 9.059090909090909,
                "pitch": 38,
                "velocity": 64,
                "duration": 0.9000000000000004,
                "tempo": 120.0
            },
            {
                "start_time": 9.061363636363636,
                "end_time": 9.663636363636364,
                "pitch": 36,
                "velocity": 64,
                "duration": 0.6022727272727284,
                "tempo": 120.0
            },
            {
                "start_time": 9.663636363636364,
                "end_time": 10.570454545454545,
                "pitch": 34,
                "velocity": 64,
                "duration": 0.9068181818181813,
                "tempo": 120.0
            },
            {
                "start_time": 10.570454545454545,
                "end_time": 12.077272727272726,
                "pitch": 36,
                "velocity": 64,
                "duration": 1.506818181818181,
                "tempo": 120.0
            },
            {
                "start_time": 12.079545454545453,
                "end_time": 12.972727272727273,
                "pitch": 33,
                "velocity": 64,
                "duration": 0.8931818181818194,
                "tempo": 120.0
            },
            {
                "start_time": 12.975,
                "end_time": 14.488636363636363,
                "pitch": 38,
                "velocity": 64,
                "duration": 1.5136363636363637,
                "tempo": 120.0
            },
            {
                "start_time": 14.488636363636363,
                "end_time": 16.897727272727273,
                "pitch": 34,
                "velocity": 64,
                "duration": 2.40909090909091,
                "tempo": 120.0
            },
            {
                "start_time": 16.897727272727273,
                "end_time": 19.011363636363637,
                "pitch": 48,
                "velocity": 64,
                "duration": 2.1136363636363633,
                "tempo": 120.0
            },
            {
                "start_time": 19.013636363636362,
                "end_time": 21.73409090909091,
                "pitch": 36,
                "velocity": 64,
                "duration": 2.7204545454545475,
                "tempo": 120.0
            },
            {
                "start_time": 21.73409090909091,
                "end_time": 22.636363636363637,
                "pitch": 29,
                "velocity": 64,
                "duration": 0.9022727272727273,
                "tempo": 120.0
            },
            {
                "start_time": 22.638636363636362,
                "end_time": 24.154545454545453,
                "pitch": 29,
                "velocity": 64,
                "duration": 1.5159090909090907,
                "tempo": 120.0
            },
            {
                "start_time": 24.154545454545453,
                "end_time": 25.054545454545455,
                "pitch": 33,
                "velocity": 64,
                "duration": 0.9000000000000021,
                "tempo": 120.0
            },
            {
                "start_time": 25.05681818181818,
                "end_time": 26.568181818181817,
                "pitch": 33,
                "velocity": 64,
                "duration": 1.5113636363636367,
                "tempo": 120.0
            },
            {
                "start_time": 26.570454545454545,
                "end_time": 27.479545454545452,
                "pitch": 38,
                "velocity": 64,
                "duration": 0.9090909090909065,
                "tempo": 120.0
            },
            {
                "start_time": 27.479545454545452,
                "end_time": 28.98409090909091,
                "pitch": 38,
                "velocity": 64,
                "duration": 1.5045454545454575,
                "tempo": 120.0
            },
            {
                "start_time": 28.986363636363635,
                "end_time": 29.89772727272727,
                "pitch": 31,
                "velocity": 64,
                "duration": 0.9113636363636353,
                "tempo": 120.0
            },
            {
                "start_time": 29.89772727272727,
                "end_time": 30.811363636363634,
                "pitch": 36,
                "velocity": 64,
                "duration": 0.913636363636364,
                "tempo": 120.0
            },
            {
                "start_time": 30.811363636363634,
                "end_time": 31.411363636363635,
                "pitch": 34,
                "velocity": 64,
                "duration": 0.6000000000000014,
                "tempo": 120.0
            },
            {
                "start_time": 31.41363636363636,
                "end_time": 32.31818181818182,
                "pitch": 45,
                "velocity": 64,
                "duration": 0.9045454545454596,
                "tempo": 120.0
            },
            {
                "start_time": 32.320454545454545,
                "end_time": 33.83409090909091,
                "pitch": 33,
                "velocity": 64,
                "duration": 1.5136363636363654,
                "tempo": 120.0
            },
            {
                "start_time": 33.83409090909091,
                "end_time": 34.44090909090909,
                "pitch": 38,
                "velocity": 64,
                "duration": 0.606818181818177,
                "tempo": 120.0
            },
            {
                "start_time": 34.44090909090909,
                "end_time": 35.04772727272727,
                "pitch": 40,
                "velocity": 64,
                "duration": 0.6068181818181841,
                "tempo": 120.0
            },
            {
                "start_time": 35.04772727272727,
                "end_time": 35.654545454545456,
                "pitch": 41,
                "velocity": 64,
                "duration": 0.6068181818181841,
                "tempo": 120.0
            },
            {
                "start_time": 35.654545454545456,
                "end_time": 36.26136363636363,
                "pitch": 42,
                "velocity": 64,
                "duration": 0.606818181818177,
                "tempo": 120.0
            },
            {
                "start_time": 36.26136363636363,
                "end_time": 37.16136363636363,
                "pitch": 43,
                "velocity": 64,
                "duration": 0.8999999999999986,
                "tempo": 120.0
            },
            {
                "start_time": 37.163636363636364,
                "end_time": 38.68863636363636,
                "pitch": 31,
                "velocity": 64,
                "duration": 1.5249999999999986,
                "tempo": 120.0
            },
            {
                "start_time": 38.68863636363636,
                "end_time": 39.59772727272727,
                "pitch": 48,
                "velocity": 64,
                "duration": 0.9090909090909065,
                "tempo": 120.0
            },
            {
                "start_time": 39.6,
                "end_time": 41.10909090909091,
                "pitch": 36,
                "velocity": 64,
                "duration": 1.509090909090908,
                "tempo": 120.0
            },
            {
                "start_time": 41.111363636363635,
                "end_time": 42.01590909090909,
                "pitch": 29,
                "velocity": 64,
                "duration": 0.9045454545454561,
                "tempo": 120.0
            },
            {
                "start_time": 42.018181818181816,
                "end_time": 43.52954545454545,
                "pitch": 29,
                "velocity": 64,
                "duration": 1.5113636363636331,
                "tempo": 120.0
            },
            {
                "start_time": 43.53181818181818,
                "end_time": 44.44090909090909,
                "pitch": 33,
                "velocity": 64,
                "duration": 0.9090909090909065,
                "tempo": 120.0
            },
            {
                "start_time": 44.44318181818181,
                "end_time": 45.96363636363636,
                "pitch": 33,
                "velocity": 64,
                "duration": 1.5204545454545482,
                "tempo": 120.0
            },
            {
                "start_time": 45.965909090909086,
                "end_time": 46.87272727272727,
                "pitch": 38,
                "velocity": 64,
                "duration": 0.9068181818181813,
                "tempo": 120.0
            },
            {
                "start_time": 46.87272727272727,
                "end_time": 48.38636363636363,
                "pitch": 38,
                "velocity": 64,
                "duration": 1.5136363636363654,
                "tempo": 120.0
            },
            {
                "start_time": 48.38636363636363,
                "end_time": 49.29545454545454,
                "pitch": 31,
                "velocity": 64,
                "duration": 0.9090909090909065,
                "tempo": 120.0
            },
            {
                "start_time": 49.29772727272727,
                "end_time": 50.20454545454545,
                "pitch": 36,
                "velocity": 64,
                "duration": 0.9068181818181813,
                "tempo": 120.0
            },
            {
                "start_time": 50.20681818181818,
                "end_time": 50.80681818181818,
                "pitch": 34,
                "velocity": 64,
                "duration": 0.6000000000000014,
                "tempo": 120.0
            },
            {
                "start_time": 50.80681818181818,
                "end_time": 51.71363636363636,
                "pitch": 45,
                "velocity": 64,
                "duration": 0.9068181818181813,
                "tempo": 120.0
            },
            {
                "start_time": 51.715909090909086,
                "end_time": 53.240909090909085,
                "pitch": 33,
                "velocity": 64,
                "duration": 1.5249999999999986,
                "tempo": 120.0
            },
            {
                "start_time": 53.240909090909085,
                "end_time": 53.84772727272727,
                "pitch": 38,
                "velocity": 64,
                "duration": 0.6068181818181841,
                "tempo": 120.0
            },
            {
                "start_time": 53.84772727272727,
                "end_time": 54.44772727272727,
                "pitch": 40,
                "velocity": 64,
                "duration": 0.6000000000000014,
                "tempo": 120.0
            },
            {
                "start_time": 54.449999999999996,
                "end_time": 55.054545454545455,
                "pitch": 41,
                "velocity": 64,
                "duration": 0.6045454545454589,
                "tempo": 120.0
            },
            {
                "start_time": 55.05681818181818,
                "end_time": 55.66136363636363,
                "pitch": 42,
                "velocity": 64,
                "duration": 0.6045454545454518,
                "tempo": 120.0
            },
            {
                "start_time": 55.663636363636364,
                "end_time": 56.570454545454545,
                "pitch": 43,
                "velocity": 64,
                "duration": 0.9068181818181813,
                "tempo": 120.0
            },
            {
                "start_time": 56.57272727272727,
                "end_time": 58.084090909090904,
                "pitch": 48,
                "velocity": 64,
                "duration": 1.5113636363636331,
                "tempo": 120.0
            },
            {
                "start_time": 58.084090909090904,
                "end_time": 58.99318181818182,
                "pitch": 41,
                "velocity": 64,
                "duration": 0.9090909090909136,
                "tempo": 120.0
            },
            {
                "start_time": 58.99318181818182,
                "end_time": 60.518181818181816,
                "pitch": 29,
                "velocity": 64,
                "duration": 1.5249999999999986,
                "tempo": 120.0
            },
            {
                "start_time": 60.518181818181816,
                "end_time": 61.42272727272727,
                "pitch": 46,
                "velocity": 64,
                "duration": 0.9045454545454561,
                "tempo": 120.0
            },
            {
                "start_time": 61.425,
                "end_time": 62.94090909090909,
                "pitch": 34,
                "velocity": 64,
                "duration": 1.5159090909090907,
                "tempo": 120.0
            },
            {
                "start_time": 62.94090909090909,
                "end_time": 63.849999999999994,
                "pitch": 46,
                "velocity": 64,
                "duration": 0.9090909090909065,
                "tempo": 120.0
            },
            {
                "start_time": 63.85227272727273,
                "end_time": 65.36136363636363,
                "pitch": 34,
                "velocity": 64,
                "duration": 1.509090909090908,
                "tempo": 120.0
            },
            {
                "start_time": 65.36136363636363,
                "end_time": 66.26136363636364,
                "pitch": 38,
                "velocity": 64,
                "duration": 0.9000000000000057,
                "tempo": 120.0
            },
            {
                "start_time": 66.26363636363637,
                "end_time": 67.77045454545454,
                "pitch": 38,
                "velocity": 64,
                "duration": 1.5068181818181756,
                "tempo": 120.0
            },
            {
                "start_time": 67.77045454545454,
                "end_time": 68.68636363636364,
                "pitch": 36,
                "velocity": 64,
                "duration": 0.9159090909090963,
                "tempo": 120.0
            },
            {
                "start_time": 68.68863636363636,
                "end_time": 70.19090909090909,
                "pitch": 29,
                "velocity": 64,
                "duration": 1.5022727272727252,
                "tempo": 120.0
            },
            {
                "start_time": 70.19318181818181,
                "end_time": 71.1,
                "pitch": 34,
                "velocity": 64,
                "duration": 0.9068181818181813,
                "tempo": 120.0
            },
            {
                "start_time": 71.1,
                "end_time": 72.60681818181818,
                "pitch": 36,
                "velocity": 64,
                "duration": 1.5068181818181898,
                "tempo": 120.0
            },
            {
                "start_time": 72.60681818181818,
                "end_time": 73.51136363636363,
                "pitch": 33,
                "velocity": 64,
                "duration": 0.9045454545454419,
                "tempo": 120.0
            },
            {
                "start_time": 73.51136363636363,
                "end_time": 75.02272727272727,
                "pitch": 38,
                "velocity": 64,
                "duration": 1.5113636363636402,
                "tempo": 120.0
            },
            {
                "start_time": 75.02272727272727,
                "end_time": 75.92727272727272,
                "pitch": 46,
                "velocity": 64,
                "duration": 0.9045454545454561,
                "tempo": 120.0
            },
            {
                "start_time": 75.92727272727272,
                "end_time": 77.44772727272726,
                "pitch": 34,
                "velocity": 64,
                "duration": 1.520454545454541,
                "tempo": 120.0
            },
            {
                "start_time": 77.44772727272726,
                "end_time": 79.55227272727272,
                "pitch": 48,
                "velocity": 64,
                "duration": 2.104545454545459,
                "tempo": 120.0
            },
            {
                "start_time": 79.55227272727272,
                "end_time": 82.26818181818182,
                "pitch": 36,
                "velocity": 64,
                "duration": 2.7159090909090935,
                "tempo": 120.0
            },
            {
                "start_time": 82.27045454545454,
                "end_time": 83.175,
                "pitch": 29,
                "velocity": 64,
                "duration": 0.9045454545454561,
                "tempo": 120.0
            },
            {
                "start_time": 83.17727272727272,
                "end_time": 84.68863636363636,
                "pitch": 29,
                "velocity": 64,
                "duration": 1.5113636363636402,
                "tempo": 120.0
            },
            {
                "start_time": 84.69090909090909,
                "end_time": 85.59772727272727,
                "pitch": 33,
                "velocity": 64,
                "duration": 0.9068181818181813,
                "tempo": 120.0
            },
            {
                "start_time": 85.59772727272727,
                "end_time": 87.10454545454544,
                "pitch": 33,
                "velocity": 64,
                "duration": 1.5068181818181756,
                "tempo": 120.0
            },
            {
                "start_time": 87.10681818181818,
                "end_time": 88.0090909090909,
                "pitch": 38,
                "velocity": 64,
                "duration": 0.9022727272727167,
                "tempo": 120.0
            },
            {
                "start_time": 88.0090909090909,
                "end_time": 89.51363636363637,
                "pitch": 38,
                "velocity": 64,
                "duration": 1.5045454545454646,
                "tempo": 120.0
            },
            {
                "start_time": 89.51590909090909,
                "end_time": 90.42045454545455,
                "pitch": 31,
                "velocity": 64,
                "duration": 0.9045454545454561,
                "tempo": 120.0
            },
            {
                "start_time": 90.42272727272727,
                "end_time": 91.94318181818181,
                "pitch": 31,
                "velocity": 64,
                "duration": 1.520454545454541,
                "tempo": 120.0
            },
            {
                "start_time": 91.94318181818181,
                "end_time": 92.84545454545454,
                "pitch": 36,
                "velocity": 64,
                "duration": 0.9022727272727309,
                "tempo": 120.0
            },
            {
                "start_time": 92.84545454545454,
                "end_time": 94.35,
                "pitch": 36,
                "velocity": 64,
                "duration": 1.5045454545454504,
                "tempo": 120.0
            },
            {
                "start_time": 94.35227272727272,
                "end_time": 95.2590909090909,
                "pitch": 29,
                "velocity": 64,
                "duration": 0.9068181818181813,
                "tempo": 120.0
            },
            {
                "start_time": 95.2590909090909,
                "end_time": 96.76590909090909,
                "pitch": 38,
                "velocity": 64,
                "duration": 1.5068181818181898,
                "tempo": 120.0
            },
            {
                "start_time": 96.76818181818182,
                "end_time": 97.67045454545455,
                "pitch": 31,
                "velocity": 64,
                "duration": 0.9022727272727309,
                "tempo": 120.0
            },
            {
                "start_time": 97.67272727272727,
                "end_time": 99.18863636363636,
                "pitch": 36,
                "velocity": 64,
                "duration": 1.5159090909090907,
                "tempo": 120.0
            },
            {
                "start_time": 99.18863636363636,
                "end_time": 101.6,
                "pitch": 41,
                "velocity": 64,
                "duration": 2.4113636363636317,
                "tempo": 120.0
            }
        ],
        "Vibraphone": [
            {
                "start_time": 0.00909090909090909,
                "end_time": 0.8954545454545454,
                "pitch": 69,
                "velocity": 51,
                "duration": 0.8863636363636364,
                "tempo": 120.0
            },
            {
                "start_time": 0.8977272727272727,
                "end_time": 2.4068181818181817,
                "pitch": 67,
                "velocity": 51,
                "duration": 1.509090909090909,
                "tempo": 120.0
            },
            {
                "start_time": 2.409090909090909,
                "end_time": 3.311363636363636,
                "pitch": 67,
                "velocity": 51,
                "duration": 0.9022727272727269,
                "tempo": 120.0
            },
            {
                "start_time": 3.3136363636363635,
                "end_time": 4.220454545454546,
                "pitch": 65,
                "velocity": 51,
                "duration": 0.9068181818181822,
                "tempo": 120.0
            },
            {
                "start_time": 4.222727272727273,
                "end_time": 4.834090909090909,
                "pitch": 64,
                "velocity": 51,
                "duration": 0.6113636363636363,
                "tempo": 120.0
            },
            {
                "start_time": 4.836363636363636,
                "end_time": 5.736363636363636,
                "pitch": 69,
                "velocity": 51,
                "duration": 0.9000000000000004,
                "tempo": 120.0
            },
            {
                "start_time": 5.736363636363636,
                "end_time": 7.25,
                "pitch": 67,
                "velocity": 51,
                "duration": 1.5136363636363637,
                "tempo": 120.0
            },
            {
                "start_time": 7.252272727272727,
                "end_time": 8.154545454545454,
                "pitch": 67,
                "velocity": 51,
                "duration": 0.9022727272727273,
                "tempo": 120.0
            },
            {
                "start_time": 8.154545454545454,
                "end_time": 8.756818181818181,
                "pitch": 65,
                "velocity": 51,
                "duration": 0.6022727272727266,
                "tempo": 120.0
            },
            {
                "start_time": 8.759090909090908,
                "end_time": 9.056818181818182,
                "pitch": 62,
                "velocity": 51,
                "duration": 0.29772727272727373,
                "tempo": 120.0
            },
            {
                "start_time": 9.059090909090909,
                "end_time": 9.35909090909091,
                "pitch": 64,
                "velocity": 51,
                "duration": 0.3000000000000007,
                "tempo": 120.0
            },
            {
                "start_time": 9.35909090909091,
                "end_time": 9.659090909090908,
                "pitch": 65,
                "velocity": 51,
                "duration": 0.29999999999999893,
                "tempo": 120.0
            },
            {
                "start_time": 9.661363636363635,
                "end_time": 10.56590909090909,
                "pitch": 65,
                "velocity": 51,
                "duration": 0.9045454545454543,
                "tempo": 120.0
            },
            {
                "start_time": 10.568181818181818,
                "end_time": 12.075,
                "pitch": 64,
                "velocity": 51,
                "duration": 1.506818181818181,
                "tempo": 120.0
            },
            {
                "start_time": 12.075,
                "end_time": 12.970454545454546,
                "pitch": 67,
                "velocity": 51,
                "duration": 0.8954545454545464,
                "tempo": 120.0
            },
            {
                "start_time": 12.970454545454546,
                "end_time": 13.884090909090908,
                "pitch": 65,
                "velocity": 51,
                "duration": 0.9136363636363622,
                "tempo": 120.0
            },
            {
                "start_time": 13.884090909090908,
                "end_time": 14.184090909090909,
                "pitch": 64,
                "velocity": 51,
                "duration": 0.3000000000000007,
                "tempo": 120.0
            },
            {
                "start_time": 14.184090909090909,
                "end_time": 14.484090909090908,
                "pitch": 65,
                "velocity": 51,
                "duration": 0.29999999999999893,
                "tempo": 120.0
            },
            {
                "start_time": 14.484090909090908,
                "end_time": 15.988636363636363,
                "pitch": 65,
                "velocity": 51,
                "duration": 1.5045454545454557,
                "tempo": 120.0
            },
            {
                "start_time": 15.988636363636363,
                "end_time": 16.29090909090909,
                "pitch": 58,
                "velocity": 51,
                "duration": 0.3022727272727259,
                "tempo": 120.0
            },
            {
                "start_time": 16.293181818181818,
                "end_time": 16.59318181818182,
                "pitch": 62,
                "velocity": 51,
                "duration": 0.3000000000000007,
                "tempo": 120.0
            },
            {
                "start_time": 16.59318181818182,
                "end_time": 16.893181818181816,
                "pitch": 65,
                "velocity": 51,
                "duration": 0.29999999999999716,
                "tempo": 120.0
            },
            {
                "start_time": 16.895454545454545,
                "end_time": 19.009090909090908,
                "pitch": 65,
                "velocity": 51,
                "duration": 2.1136363636363633,
                "tempo": 120.0
            },
            {
                "start_time": 19.009090909090908,
                "end_time": 21.729545454545452,
                "pitch": 67,
                "velocity": 51,
                "duration": 2.720454545454544,
                "tempo": 120.0
            },
            {
                "start_time": 21.729545454545452,
                "end_time": 24.15,
                "pitch": 67,
                "velocity": 51,
                "duration": 2.4204545454545467,
                "tempo": 120.0
            },
            {
                "start_time": 24.152272727272727,
                "end_time": 26.56590909090909,
                "pitch": 67,
                "velocity": 51,
                "duration": 2.413636363636364,
                "tempo": 120.0
            },
            {
                "start_time": 26.56590909090909,
                "end_time": 28.98181818181818,
                "pitch": 67,
                "velocity": 51,
                "duration": 2.4159090909090892,
                "tempo": 120.0
            },
            {
                "start_time": 28.98181818181818,
                "end_time": 29.893181818181816,
                "pitch": 65,
                "velocity": 51,
                "duration": 0.9113636363636353,
                "tempo": 120.0
            },
            {
                "start_time": 29.895454545454545,
                "end_time": 30.80681818181818,
                "pitch": 67,
                "velocity": 51,
                "duration": 0.9113636363636353,
                "tempo": 120.0
            },
            {
                "start_time": 30.80909090909091,
                "end_time": 31.409090909090907,
                "pitch": 65,
                "velocity": 51,
                "duration": 0.5999999999999979,
                "tempo": 120.0
            },
            {
                "start_time": 31.409090909090907,
                "end_time": 33.82954545454545,
                "pitch": 64,
                "velocity": 51,
                "duration": 2.4204545454545467,
                "tempo": 120.0
            },
            {
                "start_time": 33.83181818181818,
                "end_time": 34.43636363636364,
                "pitch": 65,
                "velocity": 51,
                "duration": 0.6045454545454589,
                "tempo": 120.0
            },
            {
                "start_time": 34.43863636363636,
                "end_time": 35.043181818181814,
                "pitch": 67,
                "velocity": 51,
                "duration": 0.6045454545454518,
                "tempo": 120.0
            },
            {
                "start_time": 35.04545454545455,
                "end_time": 35.65,
                "pitch": 69,
                "velocity": 51,
                "duration": 0.6045454545454518,
                "tempo": 120.0
            },
            {
                "start_time": 35.652272727272724,
                "end_time": 36.25681818181818,
                "pitch": 72,
                "velocity": 51,
                "duration": 0.6045454545454589,
                "tempo": 120.0
            },
            {
                "start_time": 36.25909090909091,
                "end_time": 37.77045454545454,
                "pitch": 70,
                "velocity": 51,
                "duration": 1.5113636363636331,
                "tempo": 120.0
            },
            {
                "start_time": 37.77272727272727,
                "end_time": 38.07727272727273,
                "pitch": 72,
                "velocity": 51,
                "duration": 0.3045454545454547,
                "tempo": 120.0
            },
            {
                "start_time": 38.07954545454545,
                "end_time": 38.38181818181818,
                "pitch": 70,
                "velocity": 51,
                "duration": 0.30227272727272947,
                "tempo": 120.0
            },
            {
                "start_time": 38.38181818181818,
                "end_time": 38.684090909090905,
                "pitch": 65,
                "velocity": 51,
                "duration": 0.30227272727272236,
                "tempo": 120.0
            },
            {
                "start_time": 38.68636363636364,
                "end_time": 39.595454545454544,
                "pitch": 65,
                "velocity": 51,
                "duration": 0.9090909090909065,
                "tempo": 120.0
            },
            {
                "start_time": 39.595454545454544,
                "end_time": 41.10681818181818,
                "pitch": 67,
                "velocity": 51,
                "duration": 1.5113636363636331,
                "tempo": 120.0
            },
            {
                "start_time": 41.10681818181818,
                "end_time": 43.527272727272724,
                "pitch": 67,
                "velocity": 51,
                "duration": 2.4204545454545467,
                "tempo": 120.0
            },
            {
                "start_time": 43.527272727272724,
                "end_time": 45.961363636363636,
                "pitch": 67,
                "velocity": 51,
                "duration": 2.434090909090912,
                "tempo": 120.0
            },
            {
                "start_time": 45.961363636363636,
                "end_time": 48.38181818181818,
                "pitch": 67,
                "velocity": 51,
                "duration": 2.4204545454545467,
                "tempo": 120.0
            },
            {
                "start_time": 48.38409090909091,
                "end_time": 49.293181818181814,
                "pitch": 65,
                "velocity": 51,
                "duration": 0.9090909090909065,
                "tempo": 120.0
            },
            {
                "start_time": 49.293181818181814,
                "end_time": 50.20227272727273,
                "pitch": 67,
                "velocity": 51,
                "duration": 0.9090909090909136,
                "tempo": 120.0
            },
            {
                "start_time": 50.20227272727273,
                "end_time": 50.804545454545455,
                "pitch": 65,
                "velocity": 51,
                "duration": 0.6022727272727266,
                "tempo": 120.0
            },
            {
                "start_time": 50.804545454545455,
                "end_time": 53.236363636363635,
                "pitch": 64,
                "velocity": 51,
                "duration": 2.43181818181818,
                "tempo": 120.0
            },
            {
                "start_time": 53.23863636363636,
                "end_time": 53.84318181818182,
                "pitch": 65,
                "velocity": 51,
                "duration": 0.6045454545454589,
                "tempo": 120.0
            },
            {
                "start_time": 53.845454545454544,
                "end_time": 54.445454545454545,
                "pitch": 67,
                "velocity": 51,
                "duration": 0.6000000000000014,
                "tempo": 120.0
            },
            {
                "start_time": 54.445454545454545,
                "end_time": 55.05227272727272,
                "pitch": 69,
                "velocity": 51,
                "duration": 0.606818181818177,
                "tempo": 120.0
            },
            {
                "start_time": 55.05227272727272,
                "end_time": 55.65909090909091,
                "pitch": 72,
                "velocity": 51,
                "duration": 0.6068181818181841,
                "tempo": 120.0
            },
            {
                "start_time": 55.65909090909091,
                "end_time": 56.56818181818181,
                "pitch": 70,
                "velocity": 51,
                "duration": 0.9090909090909065,
                "tempo": 120.0
            },
            {
                "start_time": 56.56818181818181,
                "end_time": 58.07954545454545,
                "pitch": 67,
                "velocity": 51,
                "duration": 1.5113636363636402,
                "tempo": 120.0
            },
            {
                "start_time": 58.08181818181818,
                "end_time": 58.990909090909085,
                "pitch": 69,
                "velocity": 51,
                "duration": 0.9090909090909065,
                "tempo": 120.0
            },
            {
                "start_time": 58.990909090909085,
                "end_time": 60.51363636363636,
                "pitch": 69,
                "velocity": 51,
                "duration": 1.5227272727272734,
                "tempo": 120.0
            },
            {
                "start_time": 60.51590909090909,
                "end_time": 61.42045454545454,
                "pitch": 69,
                "velocity": 51,
                "duration": 0.904545454545449,
                "tempo": 120.0
            },
            {
                "start_time": 61.42045454545454,
                "end_time": 62.93636363636363,
                "pitch": 65,
                "velocity": 51,
                "duration": 1.5159090909090907,
                "tempo": 120.0
            },
            {
                "start_time": 62.93636363636363,
                "end_time": 63.84772727272727,
                "pitch": 69,
                "velocity": 51,
                "duration": 0.9113636363636388,
                "tempo": 120.0
            },
            {
                "start_time": 63.84772727272727,
                "end_time": 64.45,
                "pitch": 67,
                "velocity": 51,
                "duration": 0.6022727272727337,
                "tempo": 120.0
            },
            {
                "start_time": 64.45227272727273,
                "end_time": 65.35909090909091,
                "pitch": 69,
                "velocity": 51,
                "duration": 0.9068181818181813,
                "tempo": 120.0
            },
            {
                "start_time": 65.35909090909091,
                "end_time": 66.2590909090909,
                "pitch": 67,
                "velocity": 51,
                "duration": 0.8999999999999915,
                "tempo": 120.0
            },
            {
                "start_time": 66.2590909090909,
                "end_time": 67.76590909090909,
                "pitch": 65,
                "velocity": 51,
                "duration": 1.5068181818181898,
                "tempo": 120.0
            },
            {
                "start_time": 67.76818181818182,
                "end_time": 68.68409090909091,
                "pitch": 67,
                "velocity": 51,
                "duration": 0.9159090909090963,
                "tempo": 120.0
            },
            {
                "start_time": 68.68409090909091,
                "end_time": 69.28636363636363,
                "pitch": 67,
                "velocity": 51,
                "duration": 0.6022727272727195,
                "tempo": 120.0
            },
            {
                "start_time": 69.28863636363636,
                "end_time": 70.18863636363636,
                "pitch": 69,
                "velocity": 51,
                "duration": 0.9000000000000057,
                "tempo": 120.0
            },
            {
                "start_time": 70.18863636363636,
                "end_time": 71.09545454545454,
                "pitch": 69,
                "velocity": 51,
                "duration": 0.9068181818181813,
                "tempo": 120.0
            },
            {
                "start_time": 71.09545454545454,
                "end_time": 72.60227272727272,
                "pitch": 67,
                "velocity": 51,
                "duration": 1.5068181818181756,
                "tempo": 120.0
            },
            {
                "start_time": 72.60454545454544,
                "end_time": 73.50681818181818,
                "pitch": 67,
                "velocity": 51,
                "duration": 0.9022727272727309,
                "tempo": 120.0
            },
            {
                "start_time": 73.5090909090909,
                "end_time": 75.01818181818182,
                "pitch": 65,
                "velocity": 51,
                "duration": 1.509090909090915,
                "tempo": 120.0
            },
            {
                "start_time": 75.02045454545454,
                "end_time": 77.44318181818181,
                "pitch": 65,
                "velocity": 51,
                "duration": 2.422727272727272,
                "tempo": 120.0
            },
            {
                "start_time": 77.44545454545454,
                "end_time": 79.54772727272727,
                "pitch": 65,
                "velocity": 51,
                "duration": 2.1022727272727337,
                "tempo": 120.0
            },
            {
                "start_time": 79.55,
                "end_time": 82.26590909090909,
                "pitch": 67,
                "velocity": 51,
                "duration": 2.7159090909090935,
                "tempo": 120.0
            },
            {
                "start_time": 82.26590909090909,
                "end_time": 83.17272727272727,
                "pitch": 69,
                "velocity": 51,
                "duration": 0.9068181818181813,
                "tempo": 120.0
            },
            {
                "start_time": 83.17272727272727,
                "end_time": 84.68636363636364,
                "pitch": 65,
                "velocity": 51,
                "duration": 1.5136363636363654,
                "tempo": 120.0
            },
            {
                "start_time": 84.68636363636364,
                "end_time": 85.59318181818182,
                "pitch": 67,
                "velocity": 51,
                "duration": 0.9068181818181813,
                "tempo": 120.0
            },
            {
                "start_time": 85.59545454545454,
                "end_time": 87.10227272727272,
                "pitch": 67,
                "velocity": 51,
                "duration": 1.5068181818181756,
                "tempo": 120.0
            },
            {
                "start_time": 87.10227272727272,
                "end_time": 88.00454545454545,
                "pitch": 69,
                "velocity": 51,
                "duration": 0.9022727272727309,
                "tempo": 120.0
            },
            {
                "start_time": 88.00681818181818,
                "end_time": 89.51136363636363,
                "pitch": 72,
                "velocity": 51,
                "duration": 1.5045454545454504,
                "tempo": 120.0
            },
            {
                "start_time": 89.51136363636363,
                "end_time": 90.41818181818181,
                "pitch": 70,
                "velocity": 51,
                "duration": 0.9068181818181813,
                "tempo": 120.0
            },
            {
                "start_time": 90.41818181818181,
                "end_time": 91.02499999999999,
                "pitch": 69,
                "velocity": 51,
                "duration": 0.6068181818181841,
                "tempo": 120.0
            },
            {
                "start_time": 91.02499999999999,
                "end_time": 91.93863636363636,
                "pitch": 67,
                "velocity": 51,
                "duration": 0.9136363636363711,
                "tempo": 120.0
            },
            {
                "start_time": 91.93863636363636,
                "end_time": 92.8409090909091,
                "pitch": 67,
                "velocity": 51,
                "duration": 0.9022727272727309,
                "tempo": 120.0
            },
            {
                "start_time": 92.84318181818182,
                "end_time": 94.34772727272727,
                "pitch": 70,
                "velocity": 51,
                "duration": 1.5045454545454504,
                "tempo": 120.0
            },
            {
                "start_time": 94.34772727272727,
                "end_time": 95.25454545454545,
                "pitch": 69,
                "velocity": 64,
                "duration": 0.9068181818181813,
                "tempo": 120.0
            },
            {
                "start_time": 95.25681818181818,
                "end_time": 96.76363636363637,
                "pitch": 69,
                "velocity": 64,
                "duration": 1.5068181818181898,
                "tempo": 120.0
            },
            {
                "start_time": 96.76363636363637,
                "end_time": 97.66818181818181,
                "pitch": 65,
                "velocity": 51,
                "duration": 0.9045454545454419,
                "tempo": 120.0
            },
            {
                "start_time": 97.66818181818181,
                "end_time": 99.1840909090909,
                "pitch": 67,
                "velocity": 51,
                "duration": 1.5159090909090907,
                "tempo": 120.0
            },
            {
                "start_time": 99.18636363636364,
                "end_time": 101.59772727272727,
                "pitch": 65,
                "velocity": 51,
                "duration": 2.4113636363636317,
                "tempo": 120.0
            },
            {
                "start_time": 101.60909090909091,
                "end_time": 101.61136363636363,
                "pitch": 69,
                "velocity": 51,
                "duration": 0.0022727272727252057,
                "tempo": 120.0
            }
        ],
        "Flute": [
            {
                "start_time": 62.025,
                "end_time": 62.04090909090909,
                "pitch": 66,
                "velocity": 101,
                "duration": 0.01590909090909065,
                "tempo": 120.0
            },
            {
                "start_time": 62.04090909090909,
                "end_time": 62.324999999999996,
                "pitch": 67,
                "velocity": 101,
                "duration": 0.2840909090909065,
                "tempo": 120.0
            },
            {
                "start_time": 62.32727272727272,
                "end_time": 62.62954545454545,
                "pitch": 68,
                "velocity": 101,
                "duration": 0.30227272727272947,
                "tempo": 120.0
            },
            {
                "start_time": 62.631818181818176,
                "end_time": 62.93181818181818,
                "pitch": 68,
                "velocity": 101,
                "duration": 0.30000000000000426,
                "tempo": 120.0
            },
            {
                "start_time": 62.934090909090905,
                "end_time": 62.96818181818181,
                "pitch": 68,
                "velocity": 101,
                "duration": 0.03409090909090651,
                "tempo": 120.0
            },
            {
                "start_time": 62.96818181818181,
                "end_time": 63.538636363636364,
                "pitch": 71,
                "velocity": 101,
                "duration": 0.5704545454545524,
                "tempo": 120.0
            },
            {
                "start_time": 63.54090909090909,
                "end_time": 63.84318181818181,
                "pitch": 71,
                "velocity": 101,
                "duration": 0.30227272727272236,
                "tempo": 120.0
            },
            {
                "start_time": 63.845454545454544,
                "end_time": 64.44545454545454,
                "pitch": 69,
                "velocity": 101,
                "duration": 0.5999999999999943,
                "tempo": 120.0
            },
            {
                "start_time": 64.44772727272726,
                "end_time": 64.83181818181818,
                "pitch": 68,
                "velocity": 101,
                "duration": 0.38409090909091503,
                "tempo": 120.0
            },
            {
                "start_time": 62.04090909090909,
                "end_time": 64.8840909090909,
                "pitch": 55,
                "velocity": 101,
                "duration": 2.8431818181818116,
                "tempo": 120.0
            },
            {
                "start_time": 64.83181818181818,
                "end_time": 64.8840909090909,
                "pitch": 67,
                "velocity": 101,
                "duration": 0.052272727272722364,
                "tempo": 120.0
            },
            {
                "start_time": 64.8840909090909,
                "end_time": 65.0,
                "pitch": 67,
                "velocity": 101,
                "duration": 0.11590909090909918,
                "tempo": 120.0
            },
            {
                "start_time": 64.83181818181818,
                "end_time": 65.0,
                "pitch": 79,
                "velocity": 101,
                "duration": 0.16818181818182154,
                "tempo": 120.0
            },
            {
                "start_time": 64.8840909090909,
                "end_time": 65.05227272727272,
                "pitch": 55,
                "velocity": 101,
                "duration": 0.16818181818182154,
                "tempo": 120.0
            },
            {
                "start_time": 65.0,
                "end_time": 65.05227272727272,
                "pitch": 67,
                "velocity": 101,
                "duration": 0.052272727272722364,
                "tempo": 120.0
            },
            {
                "start_time": 65.05227272727272,
                "end_time": 65.17045454545455,
                "pitch": 67,
                "velocity": 101,
                "duration": 0.11818181818182438,
                "tempo": 120.0
            },
            {
                "start_time": 65.0,
                "end_time": 65.17045454545455,
                "pitch": 79,
                "velocity": 101,
                "duration": 0.17045454545454675,
                "tempo": 120.0
            },
            {
                "start_time": 65.05227272727272,
                "end_time": 65.22045454545454,
                "pitch": 55,
                "velocity": 101,
                "duration": 0.16818181818182154,
                "tempo": 120.0
            },
            {
                "start_time": 65.17045454545455,
                "end_time": 65.22045454545454,
                "pitch": 67,
                "velocity": 101,
                "duration": 0.04999999999999716,
                "tempo": 120.0
            },
            {
                "start_time": 65.22045454545454,
                "end_time": 65.33863636363635,
                "pitch": 67,
                "velocity": 101,
                "duration": 0.11818181818181017,
                "tempo": 120.0
            },
            {
                "start_time": 65.17045454545455,
                "end_time": 65.33863636363635,
                "pitch": 79,
                "velocity": 101,
                "duration": 0.16818181818180733,
                "tempo": 120.0
            },
            {
                "start_time": 65.33863636363635,
                "end_time": 65.35454545454544,
                "pitch": 67,
                "velocity": 101,
                "duration": 0.01590909090909065,
                "tempo": 120.0
            },
            {
                "start_time": 65.35681818181818,
                "end_time": 65.65454545454546,
                "pitch": 68,
                "velocity": 101,
                "duration": 0.29772727272727195,
                "tempo": 120.0
            },
            {
                "start_time": 65.65681818181818,
                "end_time": 65.95454545454545,
                "pitch": 69,
                "velocity": 101,
                "duration": 0.29772727272727195,
                "tempo": 120.0
            },
            {
                "start_time": 65.95681818181818,
                "end_time": 66.25454545454545,
                "pitch": 68,
                "velocity": 101,
                "duration": 0.29772727272727195,
                "tempo": 120.0
            },
            {
                "start_time": 66.25681818181818,
                "end_time": 66.85909090909091,
                "pitch": 68,
                "velocity": 101,
                "duration": 0.6022727272727337,
                "tempo": 120.0
            },
            {
                "start_time": 66.86136363636363,
                "end_time": 66.87727272727273,
                "pitch": 68,
                "velocity": 101,
                "duration": 0.01590909090909065,
                "tempo": 120.0
            },
            {
                "start_time": 65.33863636363635,
                "end_time": 66.87727272727273,
                "pitch": 79,
                "velocity": 101,
                "duration": 1.5386363636363711,
                "tempo": 120.0
            },
            {
                "start_time": 66.87727272727273,
                "end_time": 67.22954545454544,
                "pitch": 67,
                "velocity": 101,
                "duration": 0.3522727272727195,
                "tempo": 120.0
            },
            {
                "start_time": 67.22954545454544,
                "end_time": 67.76363636363637,
                "pitch": 65,
                "velocity": 101,
                "duration": 0.5340909090909207,
                "tempo": 120.0
            },
            {
                "start_time": 67.76590909090909,
                "end_time": 67.77954545454546,
                "pitch": 66,
                "velocity": 101,
                "duration": 0.013636363636365445,
                "tempo": 120.0
            },
            {
                "start_time": 65.22045454545454,
                "end_time": 67.78181818181818,
                "pitch": 55,
                "velocity": 101,
                "duration": 2.5613636363636374,
                "tempo": 120.0
            },
            {
                "start_time": 67.77954545454546,
                "end_time": 67.78181818181818,
                "pitch": 55,
                "velocity": 101,
                "duration": 0.0022727272727252057,
                "tempo": 120.0
            },
            {
                "start_time": 67.78181818181818,
                "end_time": 67.81590909090909,
                "pitch": 67,
                "velocity": 101,
                "duration": 0.03409090909090651,
                "tempo": 120.0
            },
            {
                "start_time": 67.81590909090909,
                "end_time": 67.84772727272727,
                "pitch": 70,
                "velocity": 101,
                "duration": 0.0318181818181813,
                "tempo": 120.0
            },
            {
                "start_time": 67.84772727272727,
                "end_time": 68.375,
                "pitch": 72,
                "velocity": 101,
                "duration": 0.5272727272727309,
                "tempo": 120.0
            },
            {
                "start_time": 68.37727272727273,
                "end_time": 68.67954545454545,
                "pitch": 71,
                "velocity": 101,
                "duration": 0.30227272727272236,
                "tempo": 120.0
            },
            {
                "start_time": 68.68181818181817,
                "end_time": 69.2840909090909,
                "pitch": 69,
                "velocity": 101,
                "duration": 0.6022727272727337,
                "tempo": 120.0
            },
            {
                "start_time": 69.28636363636363,
                "end_time": 69.61818181818181,
                "pitch": 68,
                "velocity": 101,
                "duration": 0.33181818181817846,
                "tempo": 120.0
            },
            {
                "start_time": 66.87727272727273,
                "end_time": 69.61818181818181,
                "pitch": 79,
                "velocity": 101,
                "duration": 2.740909090909085,
                "tempo": 120.0
            },
            {
                "start_time": 69.61818181818181,
                "end_time": 69.66818181818182,
                "pitch": 67,
                "velocity": 101,
                "duration": 0.05000000000001137,
                "tempo": 120.0
            },
            {
                "start_time": 69.66818181818182,
                "end_time": 69.7840909090909,
                "pitch": 67,
                "velocity": 101,
                "duration": 0.11590909090908497,
                "tempo": 120.0
            },
            {
                "start_time": 69.61818181818181,
                "end_time": 69.7840909090909,
                "pitch": 79,
                "velocity": 101,
                "duration": 0.16590909090909634,
                "tempo": 120.0
            },
            {
                "start_time": 69.66818181818182,
                "end_time": 69.8340909090909,
                "pitch": 55,
                "velocity": 101,
                "duration": 0.16590909090908212,
                "tempo": 120.0
            },
            {
                "start_time": 69.7840909090909,
                "end_time": 69.8340909090909,
                "pitch": 67,
                "velocity": 101,
                "duration": 0.04999999999999716,
                "tempo": 120.0
            },
            {
                "start_time": 69.8340909090909,
                "end_time": 69.95227272727273,
                "pitch": 67,
                "velocity": 101,
                "duration": 0.11818181818182438,
                "tempo": 120.0
            },
            {
                "start_time": 69.7840909090909,
                "end_time": 69.95227272727273,
                "pitch": 79,
                "velocity": 101,
                "duration": 0.16818181818182154,
                "tempo": 120.0
            },
            {
                "start_time": 69.8340909090909,
                "end_time": 70.00227272727273,
                "pitch": 55,
                "velocity": 101,
                "duration": 0.16818181818182154,
                "tempo": 120.0
            },
            {
                "start_time": 69.95227272727273,
                "end_time": 70.00227272727273,
                "pitch": 67,
                "velocity": 101,
                "duration": 0.04999999999999716,
                "tempo": 120.0
            },
            {
                "start_time": 70.00227272727273,
                "end_time": 70.11818181818181,
                "pitch": 67,
                "velocity": 101,
                "duration": 0.11590909090908497,
                "tempo": 120.0
            },
            {
                "start_time": 69.95227272727273,
                "end_time": 70.11818181818181,
                "pitch": 79,
                "velocity": 101,
                "duration": 0.16590909090908212,
                "tempo": 120.0
            },
            {
                "start_time": 70.00227272727273,
                "end_time": 70.16818181818182,
                "pitch": 55,
                "velocity": 101,
                "duration": 0.16590909090909634,
                "tempo": 120.0
            },
            {
                "start_time": 70.11818181818181,
                "end_time": 70.16818181818182,
                "pitch": 67,
                "velocity": 101,
                "duration": 0.05000000000001137,
                "tempo": 120.0
            },
            {
                "start_time": 70.16818181818182,
                "end_time": 70.18409090909091,
                "pitch": 67,
                "velocity": 101,
                "duration": 0.01590909090909065,
                "tempo": 120.0
            },
            {
                "start_time": 70.18636363636364,
                "end_time": 70.48863636363636,
                "pitch": 68,
                "velocity": 101,
                "duration": 0.30227272727272236,
                "tempo": 120.0
            },
            {
                "start_time": 70.49090909090908,
                "end_time": 70.79090909090908,
                "pitch": 71,
                "velocity": 101,
                "duration": 0.29999999999999716,
                "tempo": 120.0
            },
            {
                "start_time": 70.79318181818182,
                "end_time": 71.0909090909091,
                "pitch": 71,
                "velocity": 101,
                "duration": 0.29772727272727195,
                "tempo": 120.0
            },
            {
                "start_time": 71.09318181818182,
                "end_time": 71.47727272727272,
                "pitch": 69,
                "velocity": 101,
                "duration": 0.3840909090909008,
                "tempo": 120.0
            },
            {
                "start_time": 70.11818181818181,
                "end_time": 71.47727272727272,
                "pitch": 79,
                "velocity": 101,
                "duration": 1.3590909090909093,
                "tempo": 120.0
            },
            {
                "start_time": 70.16818181818182,
                "end_time": 71.52727272727273,
                "pitch": 55,
                "velocity": 101,
                "duration": 1.3590909090909093,
                "tempo": 120.0
            },
            {
                "start_time": 71.47727272727272,
                "end_time": 71.52727272727273,
                "pitch": 67,
                "velocity": 101,
                "duration": 0.05000000000001137,
                "tempo": 120.0
            },
            {
                "start_time": 71.52727272727273,
                "end_time": 71.64545454545454,
                "pitch": 67,
                "velocity": 101,
                "duration": 0.11818181818181017,
                "tempo": 120.0
            },
            {
                "start_time": 71.47727272727272,
                "end_time": 71.64545454545454,
                "pitch": 79,
                "velocity": 101,
                "duration": 0.16818181818182154,
                "tempo": 120.0
            },
            {
                "start_time": 71.52727272727273,
                "end_time": 71.69772727272726,
                "pitch": 55,
                "velocity": 101,
                "duration": 0.17045454545453254,
                "tempo": 120.0
            },
            {
                "start_time": 71.64545454545454,
                "end_time": 71.69772727272726,
                "pitch": 67,
                "velocity": 101,
                "duration": 0.052272727272722364,
                "tempo": 120.0
            },
            {
                "start_time": 71.69772727272726,
                "end_time": 71.81363636363636,
                "pitch": 67,
                "velocity": 101,
                "duration": 0.11590909090909918,
                "tempo": 120.0
            },
            {
                "start_time": 71.64545454545454,
                "end_time": 71.81363636363636,
                "pitch": 79,
                "velocity": 101,
                "duration": 0.16818181818182154,
                "tempo": 120.0
            },
            {
                "start_time": 71.69772727272726,
                "end_time": 71.86590909090908,
                "pitch": 55,
                "velocity": 101,
                "duration": 0.16818181818182154,
                "tempo": 120.0
            },
            {
                "start_time": 71.81363636363636,
                "end_time": 71.86590909090908,
                "pitch": 67,
                "velocity": 101,
                "duration": 0.052272727272722364,
                "tempo": 120.0
            },
            {
                "start_time": 71.86590909090908,
                "end_time": 71.98409090909091,
                "pitch": 67,
                "velocity": 101,
                "duration": 0.11818181818182438,
                "tempo": 120.0
            },
            {
                "start_time": 71.81363636363636,
                "end_time": 71.98409090909091,
                "pitch": 79,
                "velocity": 101,
                "duration": 0.17045454545454675,
                "tempo": 120.0
            },
            {
                "start_time": 71.98409090909091,
                "end_time": 71.99772727272727,
                "pitch": 67,
                "velocity": 101,
                "duration": 0.013636363636365445,
                "tempo": 120.0
            },
            {
                "start_time": 72.0,
                "end_time": 72.0340909090909,
                "pitch": 68,
                "velocity": 101,
                "duration": 0.03409090909090651,
                "tempo": 120.0
            },
            {
                "start_time": 72.0340909090909,
                "end_time": 72.6,
                "pitch": 71,
                "velocity": 101,
                "duration": 0.5659090909090878,
                "tempo": 120.0
            },
            {
                "start_time": 72.60227272727272,
                "end_time": 72.89999999999999,
                "pitch": 72,
                "velocity": 101,
                "duration": 0.29772727272727195,
                "tempo": 120.0
            },
            {
                "start_time": 72.90227272727272,
                "end_time": 73.2,
                "pitch": 73,
                "velocity": 101,
                "duration": 0.29772727272728616,
                "tempo": 120.0
            },
            {
                "start_time": 73.20227272727273,
                "end_time": 73.50454545454545,
                "pitch": 73,
                "velocity": 101,
                "duration": 0.30227272727272236,
                "tempo": 120.0
            },
            {
                "start_time": 73.50681818181818,
                "end_time": 73.85909090909091,
                "pitch": 71,
                "velocity": 101,
                "duration": 0.35227272727273373,
                "tempo": 120.0
            },
            {
                "start_time": 73.85909090909091,
                "end_time": 74.40681818181818,
                "pitch": 69,
                "velocity": 101,
                "duration": 0.547727272727272,
                "tempo": 120.0
            },
            {
                "start_time": 74.4090909090909,
                "end_time": 74.79545454545455,
                "pitch": 70,
                "velocity": 101,
                "duration": 0.38636363636364024,
                "tempo": 120.0
            },
            {
                "start_time": 74.79545454545455,
                "end_time": 75.01590909090909,
                "pitch": 72,
                "velocity": 101,
                "duration": 0.2204545454545439,
                "tempo": 120.0
            },
            {
                "start_time": 75.01818181818182,
                "end_time": 76.5340909090909,
                "pitch": 70,
                "velocity": 101,
                "duration": 1.5159090909090907,
                "tempo": 120.0
            },
            {
                "start_time": 76.53636363636363,
                "end_time": 76.54772727272727,
                "pitch": 68,
                "velocity": 101,
                "duration": 0.01136363636364024,
                "tempo": 120.0
            },
            {
                "start_time": 76.54772727272727,
                "end_time": 76.58181818181818,
                "pitch": 66,
                "velocity": 101,
                "duration": 0.03409090909090651,
                "tempo": 120.0
            },
            {
                "start_time": 76.58181818181818,
                "end_time": 76.82954545454545,
                "pitch": 63,
                "velocity": 101,
                "duration": 0.2477272727272748,
                "tempo": 120.0
            },
            {
                "start_time": 71.86590909090908,
                "end_time": 76.86590909090908,
                "pitch": 55,
                "velocity": 101,
                "duration": 5.0,
                "tempo": 120.0
            },
            {
                "start_time": 76.83181818181818,
                "end_time": 76.86590909090908,
                "pitch": 64,
                "velocity": 101,
                "duration": 0.03409090909090651,
                "tempo": 120.0
            },
            {
                "start_time": 76.86590909090908,
                "end_time": 76.89999999999999,
                "pitch": 67,
                "velocity": 101,
                "duration": 0.03409090909090651,
                "tempo": 120.0
            },
            {
                "start_time": 76.89999999999999,
                "end_time": 77.13863636363637,
                "pitch": 71,
                "velocity": 101,
                "duration": 0.23863636363637397,
                "tempo": 120.0
            },
            {
                "start_time": 77.14090909090909,
                "end_time": 77.44090909090909,
                "pitch": 70,
                "velocity": 101,
                "duration": 0.29999999999999716,
                "tempo": 120.0
            },
            {
                "start_time": 77.44318181818181,
                "end_time": 77.475,
                "pitch": 69,
                "velocity": 101,
                "duration": 0.0318181818181813,
                "tempo": 120.0
            },
            {
                "start_time": 71.98409090909091,
                "end_time": 77.475,
                "pitch": 79,
                "velocity": 101,
                "duration": 5.490909090909085,
                "tempo": 120.0
            },
            {
                "start_time": 77.475,
                "end_time": 79.54545454545455,
                "pitch": 67,
                "velocity": 101,
                "duration": 2.0704545454545524,
                "tempo": 120.0
            },
            {
                "start_time": 79.54772727272727,
                "end_time": 79.56136363636364,
                "pitch": 66,
                "velocity": 101,
                "duration": 0.013636363636365445,
                "tempo": 120.0
            },
            {
                "start_time": 76.86590909090908,
                "end_time": 79.56363636363636,
                "pitch": 55,
                "velocity": 101,
                "duration": 2.6977272727272776,
                "tempo": 120.0
            },
            {
                "start_time": 79.56136363636364,
                "end_time": 79.56363636363636,
                "pitch": 55,
                "velocity": 101,
                "duration": 0.0022727272727252057,
                "tempo": 120.0
            },
            {
                "start_time": 79.56363636363636,
                "end_time": 79.96363636363635,
                "pitch": 67,
                "velocity": 101,
                "duration": 0.3999999999999915,
                "tempo": 120.0
            },
            {
                "start_time": 77.475,
                "end_time": 79.96363636363635,
                "pitch": 79,
                "velocity": 101,
                "duration": 2.4886363636363598,
                "tempo": 120.0
            },
            {
                "start_time": 79.96363636363635,
                "end_time": 80.01590909090909,
                "pitch": 67,
                "velocity": 101,
                "duration": 0.052272727272736574,
                "tempo": 120.0
            },
            {
                "start_time": 80.01590909090909,
                "end_time": 80.13181818181818,
                "pitch": 67,
                "velocity": 101,
                "duration": 0.11590909090908497,
                "tempo": 120.0
            },
            {
                "start_time": 79.96363636363635,
                "end_time": 80.1340909090909,
                "pitch": 79,
                "velocity": 101,
                "duration": 0.17045454545454675,
                "tempo": 120.0
            },
            {
                "start_time": 80.13181818181818,
                "end_time": 80.1340909090909,
                "pitch": 79,
                "velocity": 101,
                "duration": 0.0022727272727252057,
                "tempo": 120.0
            },
            {
                "start_time": 80.01590909090909,
                "end_time": 80.18409090909091,
                "pitch": 55,
                "velocity": 101,
                "duration": 0.16818181818182154,
                "tempo": 120.0
            },
            {
                "start_time": 80.1340909090909,
                "end_time": 80.18409090909091,
                "pitch": 67,
                "velocity": 101,
                "duration": 0.05000000000001137,
                "tempo": 120.0
            },
            {
                "start_time": 80.18409090909091,
                "end_time": 80.30227272727272,
                "pitch": 67,
                "velocity": 101,
                "duration": 0.11818181818181017,
                "tempo": 120.0
            },
            {
                "start_time": 80.18409090909091,
                "end_time": 80.35227272727272,
                "pitch": 55,
                "velocity": 101,
                "duration": 0.16818181818180733,
                "tempo": 120.0
            },
            {
                "start_time": 80.30227272727272,
                "end_time": 80.35227272727272,
                "pitch": 67,
                "velocity": 101,
                "duration": 0.04999999999999716,
                "tempo": 120.0
            },
            {
                "start_time": 80.35227272727272,
                "end_time": 80.47045454545454,
                "pitch": 67,
                "velocity": 101,
                "duration": 0.11818181818182438,
                "tempo": 120.0
            },
            {
                "start_time": 80.30227272727272,
                "end_time": 80.47045454545454,
                "pitch": 79,
                "velocity": 101,
                "duration": 0.16818181818182154,
                "tempo": 120.0
            },
            {
                "start_time": 80.35227272727272,
                "end_time": 80.52045454545454,
                "pitch": 55,
                "velocity": 101,
                "duration": 0.16818181818182154,
                "tempo": 120.0
            },
            {
                "start_time": 80.47045454545454,
                "end_time": 80.52045454545454,
                "pitch": 67,
                "velocity": 101,
                "duration": 0.04999999999999716,
                "tempo": 120.0
            },
            {
                "start_time": 80.52045454545454,
                "end_time": 80.63636363636363,
                "pitch": 67,
                "velocity": 101,
                "duration": 0.11590909090908497,
                "tempo": 120.0
            },
            {
                "start_time": 80.47045454545454,
                "end_time": 80.63636363636363,
                "pitch": 79,
                "velocity": 101,
                "duration": 0.16590909090908212,
                "tempo": 120.0
            },
            {
                "start_time": 80.52045454545454,
                "end_time": 80.68636363636364,
                "pitch": 55,
                "velocity": 101,
                "duration": 0.16590909090909634,
                "tempo": 120.0
            },
            {
                "start_time": 80.63636363636363,
                "end_time": 80.68636363636364,
                "pitch": 67,
                "velocity": 101,
                "duration": 0.05000000000001137,
                "tempo": 120.0
            },
            {
                "start_time": 80.68636363636364,
                "end_time": 80.80454545454545,
                "pitch": 67,
                "velocity": 101,
                "duration": 0.11818181818181017,
                "tempo": 120.0
            },
            {
                "start_time": 80.63636363636363,
                "end_time": 80.80454545454545,
                "pitch": 79,
                "velocity": 101,
                "duration": 0.16818181818182154,
                "tempo": 120.0
            },
            {
                "start_time": 80.68636363636364,
                "end_time": 80.85454545454544,
                "pitch": 55,
                "velocity": 101,
                "duration": 0.16818181818180733,
                "tempo": 120.0
            },
            {
                "start_time": 80.80454545454545,
                "end_time": 80.85454545454544,
                "pitch": 67,
                "velocity": 101,
                "duration": 0.04999999999999716,
                "tempo": 120.0
            },
            {
                "start_time": 80.85454545454544,
                "end_time": 80.97045454545454,
                "pitch": 67,
                "velocity": 101,
                "duration": 0.11590909090909918,
                "tempo": 120.0
            },
            {
                "start_time": 80.80454545454545,
                "end_time": 80.97045454545454,
                "pitch": 79,
                "velocity": 101,
                "duration": 0.16590909090909634,
                "tempo": 120.0
            },
            {
                "start_time": 80.85454545454544,
                "end_time": 81.02045454545454,
                "pitch": 55,
                "velocity": 101,
                "duration": 0.16590909090909634,
                "tempo": 120.0
            },
            {
                "start_time": 80.97045454545454,
                "end_time": 81.02045454545454,
                "pitch": 67,
                "velocity": 101,
                "duration": 0.04999999999999716,
                "tempo": 120.0
            },
            {
                "start_time": 81.02045454545454,
                "end_time": 81.13863636363637,
                "pitch": 67,
                "velocity": 101,
                "duration": 0.11818181818182438,
                "tempo": 120.0
            },
            {
                "start_time": 80.97045454545454,
                "end_time": 81.13863636363637,
                "pitch": 79,
                "velocity": 101,
                "duration": 0.16818181818182154,
                "tempo": 120.0
            },
            {
                "start_time": 81.02045454545454,
                "end_time": 81.18863636363636,
                "pitch": 55,
                "velocity": 101,
                "duration": 0.16818181818182154,
                "tempo": 120.0
            },
            {
                "start_time": 81.13863636363637,
                "end_time": 81.18863636363636,
                "pitch": 67,
                "velocity": 101,
                "duration": 0.04999999999999716,
                "tempo": 120.0
            },
            {
                "start_time": 81.18863636363636,
                "end_time": 81.30681818181817,
                "pitch": 67,
                "velocity": 101,
                "duration": 0.11818181818181017,
                "tempo": 120.0
            },
            {
                "start_time": 81.13863636363637,
                "end_time": 81.30681818181817,
                "pitch": 79,
                "velocity": 101,
                "duration": 0.16818181818180733,
                "tempo": 120.0
            },
            {
                "start_time": 81.18863636363636,
                "end_time": 81.35681818181818,
                "pitch": 55,
                "velocity": 101,
                "duration": 0.16818181818182154,
                "tempo": 120.0
            },
            {
                "start_time": 81.30681818181817,
                "end_time": 81.35681818181818,
                "pitch": 67,
                "velocity": 101,
                "duration": 0.05000000000001137,
                "tempo": 120.0
            },
            {
                "start_time": 81.35681818181818,
                "end_time": 81.475,
                "pitch": 67,
                "velocity": 101,
                "duration": 0.11818181818181017,
                "tempo": 120.0
            },
            {
                "start_time": 81.30681818181817,
                "end_time": 81.475,
                "pitch": 79,
                "velocity": 101,
                "duration": 0.16818181818182154,
                "tempo": 120.0
            },
            {
                "start_time": 81.35681818181818,
                "end_time": 81.52499999999999,
                "pitch": 55,
                "velocity": 101,
                "duration": 0.16818181818180733,
                "tempo": 120.0
            },
            {
                "start_time": 81.475,
                "end_time": 81.52499999999999,
                "pitch": 67,
                "velocity": 101,
                "duration": 0.04999999999999716,
                "tempo": 120.0
            },
            {
                "start_time": 81.52499999999999,
                "end_time": 81.64318181818182,
                "pitch": 67,
                "velocity": 101,
                "duration": 0.11818181818182438,
                "tempo": 120.0
            },
            {
                "start_time": 81.475,
                "end_time": 81.64318181818182,
                "pitch": 79,
                "velocity": 101,
                "duration": 0.16818181818182154,
                "tempo": 120.0
            },
            {
                "start_time": 81.52499999999999,
                "end_time": 81.69318181818181,
                "pitch": 55,
                "velocity": 101,
                "duration": 0.16818181818182154,
                "tempo": 120.0
            },
            {
                "start_time": 81.64318181818182,
                "end_time": 81.69318181818181,
                "pitch": 67,
                "velocity": 101,
                "duration": 0.04999999999999716,
                "tempo": 120.0
            },
            {
                "start_time": 81.69318181818181,
                "end_time": 81.81136363636364,
                "pitch": 67,
                "velocity": 101,
                "duration": 0.11818181818182438,
                "tempo": 120.0
            },
            {
                "start_time": 81.64318181818182,
                "end_time": 81.81136363636364,
                "pitch": 79,
                "velocity": 101,
                "duration": 0.16818181818182154,
                "tempo": 120.0
            },
            {
                "start_time": 81.69318181818181,
                "end_time": 81.86136363636363,
                "pitch": 55,
                "velocity": 101,
                "duration": 0.16818181818182154,
                "tempo": 120.0
            },
            {
                "start_time": 81.81136363636364,
                "end_time": 81.86136363636363,
                "pitch": 67,
                "velocity": 101,
                "duration": 0.04999999999999716,
                "tempo": 120.0
            },
            {
                "start_time": 81.86136363636363,
                "end_time": 81.97727272727272,
                "pitch": 67,
                "velocity": 101,
                "duration": 0.11590909090908497,
                "tempo": 120.0
            },
            {
                "start_time": 81.81136363636364,
                "end_time": 81.97727272727272,
                "pitch": 79,
                "velocity": 101,
                "duration": 0.16590909090908212,
                "tempo": 120.0
            },
            {
                "start_time": 81.86136363636363,
                "end_time": 82.02727272727272,
                "pitch": 55,
                "velocity": 101,
                "duration": 0.16590909090908212,
                "tempo": 120.0
            },
            {
                "start_time": 81.97727272727272,
                "end_time": 82.02727272727272,
                "pitch": 67,
                "velocity": 101,
                "duration": 0.04999999999999716,
                "tempo": 120.0
            },
            {
                "start_time": 82.02727272727272,
                "end_time": 82.14545454545454,
                "pitch": 67,
                "velocity": 101,
                "duration": 0.11818181818182438,
                "tempo": 120.0
            },
            {
                "start_time": 81.97727272727272,
                "end_time": 82.14545454545454,
                "pitch": 79,
                "velocity": 101,
                "duration": 0.16818181818182154,
                "tempo": 120.0
            },
            {
                "start_time": 82.02727272727272,
                "end_time": 82.19545454545454,
                "pitch": 55,
                "velocity": 101,
                "duration": 0.16818181818182154,
                "tempo": 120.0
            },
            {
                "start_time": 82.14545454545454,
                "end_time": 82.19545454545454,
                "pitch": 67,
                "velocity": 101,
                "duration": 0.04999999999999716,
                "tempo": 120.0
            },
            {
                "start_time": 82.19545454545454,
                "end_time": 82.26136363636363,
                "pitch": 67,
                "velocity": 101,
                "duration": 0.06590909090908781,
                "tempo": 120.0
            }
        ],
        "Acoustic Guitar (nylon)": [
            {
                "start_time": 21.93181818181818,
                "end_time": 22.23181818181818,
                "pitch": 67,
                "velocity": 40,
                "duration": 0.3000000000000007,
                "tempo": 120.0
            },
            {
                "start_time": 22.23409090909091,
                "end_time": 22.534090909090907,
                "pitch": 60,
                "velocity": 40,
                "duration": 0.29999999999999716,
                "tempo": 120.0
            },
            {
                "start_time": 22.536363636363635,
                "end_time": 22.834090909090907,
                "pitch": 64,
                "velocity": 40,
                "duration": 0.29772727272727195,
                "tempo": 120.0
            },
            {
                "start_time": 22.836363636363636,
                "end_time": 23.44090909090909,
                "pitch": 69,
                "velocity": 40,
                "duration": 0.6045454545454554,
                "tempo": 120.0
            },
            {
                "start_time": 23.44090909090909,
                "end_time": 24.347727272727273,
                "pitch": 65,
                "velocity": 40,
                "duration": 0.9068181818181813,
                "tempo": 120.0
            },
            {
                "start_time": 24.349999999999998,
                "end_time": 24.64772727272727,
                "pitch": 67,
                "velocity": 40,
                "duration": 0.29772727272727195,
                "tempo": 120.0
            },
            {
                "start_time": 24.65,
                "end_time": 24.95,
                "pitch": 60,
                "velocity": 40,
                "duration": 0.3000000000000007,
                "tempo": 120.0
            },
            {
                "start_time": 24.952272727272724,
                "end_time": 25.254545454545454,
                "pitch": 64,
                "velocity": 40,
                "duration": 0.30227272727272947,
                "tempo": 120.0
            },
            {
                "start_time": 25.25681818181818,
                "end_time": 25.85681818181818,
                "pitch": 72,
                "velocity": 40,
                "duration": 0.6000000000000014,
                "tempo": 120.0
            },
            {
                "start_time": 25.85909090909091,
                "end_time": 26.76590909090909,
                "pitch": 64,
                "velocity": 40,
                "duration": 0.9068181818181813,
                "tempo": 120.0
            },
            {
                "start_time": 26.768181818181816,
                "end_time": 27.068181818181817,
                "pitch": 67,
                "velocity": 40,
                "duration": 0.3000000000000007,
                "tempo": 120.0
            },
            {
                "start_time": 27.070454545454545,
                "end_time": 27.375,
                "pitch": 65,
                "velocity": 40,
                "duration": 0.3045454545454547,
                "tempo": 120.0
            },
            {
                "start_time": 27.377272727272725,
                "end_time": 27.68181818181818,
                "pitch": 64,
                "velocity": 40,
                "duration": 0.3045454545454547,
                "tempo": 120.0
            },
            {
                "start_time": 27.68181818181818,
                "end_time": 29.18181818181818,
                "pitch": 65,
                "velocity": 40,
                "duration": 1.5,
                "tempo": 120.0
            },
            {
                "start_time": 29.18181818181818,
                "end_time": 29.48409090909091,
                "pitch": 69,
                "velocity": 40,
                "duration": 0.30227272727272947,
                "tempo": 120.0
            },
            {
                "start_time": 29.486363636363635,
                "end_time": 29.79090909090909,
                "pitch": 70,
                "velocity": 40,
                "duration": 0.3045454545454547,
                "tempo": 120.0
            },
            {
                "start_time": 29.79090909090909,
                "end_time": 30.095454545454544,
                "pitch": 69,
                "velocity": 40,
                "duration": 0.3045454545454547,
                "tempo": 120.0
            },
            {
                "start_time": 30.097727272727273,
                "end_time": 30.486363636363635,
                "pitch": 67,
                "velocity": 40,
                "duration": 0.3886363636363619,
                "tempo": 120.0
            },
            {
                "start_time": 30.486363636363635,
                "end_time": 30.502272727272725,
                "pitch": 67,
                "velocity": 40,
                "duration": 0.01590909090909065,
                "tempo": 120.0
            },
            {
                "start_time": 30.502272727272725,
                "end_time": 30.620454545454542,
                "pitch": 67,
                "velocity": 40,
                "duration": 0.11818181818181728,
                "tempo": 120.0
            },
            {
                "start_time": 30.486363636363635,
                "end_time": 30.620454545454542,
                "pitch": 79,
                "velocity": 40,
                "duration": 0.13409090909090793,
                "tempo": 120.0
            },
            {
                "start_time": 30.620454545454542,
                "end_time": 30.670454545454543,
                "pitch": 67,
                "velocity": 40,
                "duration": 0.05000000000000071,
                "tempo": 120.0
            },
            {
                "start_time": 30.502272727272725,
                "end_time": 30.672727272727272,
                "pitch": 55,
                "velocity": 40,
                "duration": 0.17045454545454675,
                "tempo": 120.0
            },
            {
                "start_time": 30.670454545454543,
                "end_time": 30.672727272727272,
                "pitch": 55,
                "velocity": 40,
                "duration": 0.0022727272727287584,
                "tempo": 120.0
            },
            {
                "start_time": 30.672727272727272,
                "end_time": 30.78863636363636,
                "pitch": 67,
                "velocity": 40,
                "duration": 0.11590909090908852,
                "tempo": 120.0
            },
            {
                "start_time": 30.620454545454542,
                "end_time": 30.78863636363636,
                "pitch": 79,
                "velocity": 40,
                "duration": 0.168181818181818,
                "tempo": 120.0
            },
            {
                "start_time": 30.78863636363636,
                "end_time": 30.84090909090909,
                "pitch": 67,
                "velocity": 40,
                "duration": 0.05227272727272947,
                "tempo": 120.0
            },
            {
                "start_time": 30.84090909090909,
                "end_time": 30.956818181818182,
                "pitch": 67,
                "velocity": 40,
                "duration": 0.11590909090909207,
                "tempo": 120.0
            },
            {
                "start_time": 30.78863636363636,
                "end_time": 30.956818181818182,
                "pitch": 79,
                "velocity": 40,
                "duration": 0.16818181818182154,
                "tempo": 120.0
            },
            {
                "start_time": 30.84090909090909,
                "end_time": 31.00681818181818,
                "pitch": 55,
                "velocity": 40,
                "duration": 0.16590909090908923,
                "tempo": 120.0
            },
            {
                "start_time": 30.956818181818182,
                "end_time": 31.00681818181818,
                "pitch": 67,
                "velocity": 40,
                "duration": 0.04999999999999716,
                "tempo": 120.0
            },
            {
                "start_time": 31.00681818181818,
                "end_time": 31.12272727272727,
                "pitch": 67,
                "velocity": 40,
                "duration": 0.11590909090909207,
                "tempo": 120.0
            },
            {
                "start_time": 30.956818181818182,
                "end_time": 31.12272727272727,
                "pitch": 79,
                "velocity": 40,
                "duration": 0.16590909090908923,
                "tempo": 120.0
            },
            {
                "start_time": 31.00681818181818,
                "end_time": 31.172727272727272,
                "pitch": 55,
                "velocity": 40,
                "duration": 0.16590909090909278,
                "tempo": 120.0
            },
            {
                "start_time": 31.12272727272727,
                "end_time": 31.172727272727272,
                "pitch": 67,
                "velocity": 40,
                "duration": 0.05000000000000071,
                "tempo": 120.0
            },
            {
                "start_time": 31.172727272727272,
                "end_time": 31.29090909090909,
                "pitch": 67,
                "velocity": 40,
                "duration": 0.11818181818181728,
                "tempo": 120.0
            },
            {
                "start_time": 31.12272727272727,
                "end_time": 31.29090909090909,
                "pitch": 79,
                "velocity": 40,
                "duration": 0.168181818181818,
                "tempo": 120.0
            },
            {
                "start_time": 31.172727272727272,
                "end_time": 31.34090909090909,
                "pitch": 55,
                "velocity": 40,
                "duration": 0.168181818181818,
                "tempo": 120.0
            },
            {
                "start_time": 31.29090909090909,
                "end_time": 31.34090909090909,
                "pitch": 67,
                "velocity": 40,
                "duration": 0.05000000000000071,
                "tempo": 120.0
            },
            {
                "start_time": 31.34090909090909,
                "end_time": 31.456818181818182,
                "pitch": 67,
                "velocity": 40,
                "duration": 0.11590909090909207,
                "tempo": 120.0
            },
            {
                "start_time": 31.29090909090909,
                "end_time": 31.456818181818182,
                "pitch": 79,
                "velocity": 40,
                "duration": 0.16590909090909278,
                "tempo": 120.0
            },
            {
                "start_time": 31.34090909090909,
                "end_time": 31.509090909090908,
                "pitch": 55,
                "velocity": 40,
                "duration": 0.168181818181818,
                "tempo": 120.0
            },
            {
                "start_time": 31.456818181818182,
                "end_time": 31.509090909090908,
                "pitch": 67,
                "velocity": 40,
                "duration": 0.052272727272725916,
                "tempo": 120.0
            },
            {
                "start_time": 31.509090909090908,
                "end_time": 31.609090909090906,
                "pitch": 67,
                "velocity": 40,
                "duration": 0.09999999999999787,
                "tempo": 120.0
            },
            {
                "start_time": 31.611363636363635,
                "end_time": 31.99772727272727,
                "pitch": 67,
                "velocity": 40,
                "duration": 0.3863636363636367,
                "tempo": 120.0
            },
            {
                "start_time": 31.456818181818182,
                "end_time": 31.99772727272727,
                "pitch": 79,
                "velocity": 40,
                "duration": 0.5409090909090892,
                "tempo": 120.0
            },
            {
                "start_time": 31.509090909090908,
                "end_time": 32.03181818181818,
                "pitch": 55,
                "velocity": 40,
                "duration": 0.5227272727272734,
                "tempo": 120.0
            },
            {
                "start_time": 31.99772727272727,
                "end_time": 32.03181818181818,
                "pitch": 67,
                "velocity": 40,
                "duration": 0.03409090909091006,
                "tempo": 120.0
            },
            {
                "start_time": 32.03181818181818,
                "end_time": 32.15,
                "pitch": 67,
                "velocity": 40,
                "duration": 0.11818181818181728,
                "tempo": 120.0
            },
            {
                "start_time": 31.99772727272727,
                "end_time": 32.15,
                "pitch": 79,
                "velocity": 40,
                "duration": 0.15227272727272734,
                "tempo": 120.0
            },
            {
                "start_time": 32.03181818181818,
                "end_time": 32.199999999999996,
                "pitch": 55,
                "velocity": 40,
                "duration": 0.16818181818181444,
                "tempo": 120.0
            },
            {
                "start_time": 32.15,
                "end_time": 32.199999999999996,
                "pitch": 67,
                "velocity": 40,
                "duration": 0.04999999999999716,
                "tempo": 120.0
            },
            {
                "start_time": 32.199999999999996,
                "end_time": 32.31818181818182,
                "pitch": 67,
                "velocity": 40,
                "duration": 0.11818181818182438,
                "tempo": 120.0
            },
            {
                "start_time": 32.15,
                "end_time": 32.31818181818182,
                "pitch": 79,
                "velocity": 40,
                "duration": 0.16818181818182154,
                "tempo": 120.0
            },
            {
                "start_time": 32.199999999999996,
                "end_time": 32.36818181818182,
                "pitch": 55,
                "velocity": 40,
                "duration": 0.16818181818182154,
                "tempo": 120.0
            },
            {
                "start_time": 32.31818181818182,
                "end_time": 32.36818181818182,
                "pitch": 67,
                "velocity": 40,
                "duration": 0.04999999999999716,
                "tempo": 120.0
            },
            {
                "start_time": 32.36818181818182,
                "end_time": 32.486363636363635,
                "pitch": 67,
                "velocity": 40,
                "duration": 0.11818181818181728,
                "tempo": 120.0
            },
            {
                "start_time": 32.31818181818182,
                "end_time": 32.486363636363635,
                "pitch": 79,
                "velocity": 40,
                "duration": 0.16818181818181444,
                "tempo": 120.0
            },
            {
                "start_time": 32.36818181818182,
                "end_time": 32.53636363636363,
                "pitch": 55,
                "velocity": 40,
                "duration": 0.16818181818181444,
                "tempo": 120.0
            },
            {
                "start_time": 32.486363636363635,
                "end_time": 32.53636363636363,
                "pitch": 67,
                "velocity": 40,
                "duration": 0.04999999999999716,
                "tempo": 120.0
            },
            {
                "start_time": 32.53636363636363,
                "end_time": 32.654545454545456,
                "pitch": 67,
                "velocity": 40,
                "duration": 0.11818181818182438,
                "tempo": 120.0
            },
            {
                "start_time": 32.486363636363635,
                "end_time": 32.654545454545456,
                "pitch": 79,
                "velocity": 40,
                "duration": 0.16818181818182154,
                "tempo": 120.0
            },
            {
                "start_time": 32.53636363636363,
                "end_time": 32.70454545454545,
                "pitch": 55,
                "velocity": 40,
                "duration": 0.16818181818182154,
                "tempo": 120.0
            },
            {
                "start_time": 32.654545454545456,
                "end_time": 32.70454545454545,
                "pitch": 67,
                "velocity": 40,
                "duration": 0.04999999999999716,
                "tempo": 120.0
            },
            {
                "start_time": 32.70454545454545,
                "end_time": 32.82272727272727,
                "pitch": 67,
                "velocity": 40,
                "duration": 0.11818181818181728,
                "tempo": 120.0
            },
            {
                "start_time": 32.654545454545456,
                "end_time": 32.82272727272727,
                "pitch": 79,
                "velocity": 40,
                "duration": 0.16818181818181444,
                "tempo": 120.0
            },
            {
                "start_time": 32.70454545454545,
                "end_time": 32.87272727272727,
                "pitch": 55,
                "velocity": 40,
                "duration": 0.16818181818181444,
                "tempo": 120.0
            },
            {
                "start_time": 32.82272727272727,
                "end_time": 32.87272727272727,
                "pitch": 67,
                "velocity": 40,
                "duration": 0.04999999999999716,
                "tempo": 120.0
            },
            {
                "start_time": 32.87272727272727,
                "end_time": 32.99090909090909,
                "pitch": 67,
                "velocity": 40,
                "duration": 0.11818181818182438,
                "tempo": 120.0
            },
            {
                "start_time": 32.82272727272727,
                "end_time": 32.99090909090909,
                "pitch": 79,
                "velocity": 40,
                "duration": 0.16818181818182154,
                "tempo": 120.0
            },
            {
                "start_time": 32.87272727272727,
                "end_time": 33.043181818181814,
                "pitch": 55,
                "velocity": 40,
                "duration": 0.17045454545454675,
                "tempo": 120.0
            },
            {
                "start_time": 32.99090909090909,
                "end_time": 33.043181818181814,
                "pitch": 67,
                "velocity": 40,
                "duration": 0.052272727272722364,
                "tempo": 120.0
            },
            {
                "start_time": 33.043181818181814,
                "end_time": 33.125,
                "pitch": 67,
                "velocity": 40,
                "duration": 0.08181818181818556,
                "tempo": 120.0
            },
            {
                "start_time": 33.127272727272725,
                "end_time": 33.42727272727272,
                "pitch": 61,
                "velocity": 40,
                "duration": 0.29999999999999716,
                "tempo": 120.0
            },
            {
                "start_time": 33.429545454545455,
                "end_time": 33.72727272727273,
                "pitch": 62,
                "velocity": 40,
                "duration": 0.29772727272727195,
                "tempo": 120.0
            },
            {
                "start_time": 33.72954545454545,
                "end_time": 34.029545454545456,
                "pitch": 64,
                "velocity": 40,
                "duration": 0.30000000000000426,
                "tempo": 120.0
            },
            {
                "start_time": 34.03181818181818,
                "end_time": 34.63636363636363,
                "pitch": 65,
                "velocity": 40,
                "duration": 0.6045454545454518,
                "tempo": 120.0
            },
            {
                "start_time": 34.638636363636365,
                "end_time": 35.043181818181814,
                "pitch": 67,
                "velocity": 40,
                "duration": 0.404545454545449,
                "tempo": 120.0
            },
            {
                "start_time": 32.99090909090909,
                "end_time": 35.043181818181814,
                "pitch": 79,
                "velocity": 40,
                "duration": 2.0522727272727224,
                "tempo": 120.0
            },
            {
                "start_time": 33.043181818181814,
                "end_time": 35.09318181818182,
                "pitch": 55,
                "velocity": 40,
                "duration": 2.0500000000000043,
                "tempo": 120.0
            },
            {
                "start_time": 35.043181818181814,
                "end_time": 35.09318181818182,
                "pitch": 67,
                "velocity": 40,
                "duration": 0.05000000000000426,
                "tempo": 120.0
            },
            {
                "start_time": 35.09318181818182,
                "end_time": 35.211363636363636,
                "pitch": 67,
                "velocity": 40,
                "duration": 0.11818181818181728,
                "tempo": 120.0
            },
            {
                "start_time": 35.043181818181814,
                "end_time": 35.211363636363636,
                "pitch": 79,
                "velocity": 40,
                "duration": 0.16818181818182154,
                "tempo": 120.0
            },
            {
                "start_time": 35.211363636363636,
                "end_time": 35.24318181818182,
                "pitch": 67,
                "velocity": 40,
                "duration": 0.0318181818181813,
                "tempo": 120.0
            },
            {
                "start_time": 35.24545454545454,
                "end_time": 35.85,
                "pitch": 69,
                "velocity": 40,
                "duration": 0.6045454545454589,
                "tempo": 120.0
            },
            {
                "start_time": 35.85227272727273,
                "end_time": 36.45454545454545,
                "pitch": 72,
                "velocity": 40,
                "duration": 0.6022727272727266,
                "tempo": 120.0
            },
            {
                "start_time": 36.45681818181818,
                "end_time": 37.97272727272727,
                "pitch": 70,
                "velocity": 40,
                "duration": 1.5159090909090907,
                "tempo": 120.0
            },
            {
                "start_time": 37.975,
                "end_time": 38.277272727272724,
                "pitch": 62,
                "velocity": 40,
                "duration": 0.30227272727272236,
                "tempo": 120.0
            },
            {
                "start_time": 38.279545454545456,
                "end_time": 38.58181818181818,
                "pitch": 62,
                "velocity": 40,
                "duration": 0.30227272727272236,
                "tempo": 120.0
            },
            {
                "start_time": 38.584090909090904,
                "end_time": 38.88409090909091,
                "pitch": 65,
                "velocity": 40,
                "duration": 0.30000000000000426,
                "tempo": 120.0
            },
            {
                "start_time": 38.88636363636363,
                "end_time": 39.79545454545455,
                "pitch": 65,
                "velocity": 40,
                "duration": 0.9090909090909136,
                "tempo": 120.0
            },
            {
                "start_time": 39.79772727272727,
                "end_time": 40.18181818181818,
                "pitch": 67,
                "velocity": 40,
                "duration": 0.38409090909090793,
                "tempo": 120.0
            },
            {
                "start_time": 35.211363636363636,
                "end_time": 40.18181818181818,
                "pitch": 79,
                "velocity": 40,
                "duration": 4.970454545454544,
                "tempo": 120.0
            },
            {
                "start_time": 35.09318181818182,
                "end_time": 40.23181818181818,
                "pitch": 55,
                "velocity": 40,
                "duration": 5.138636363636358,
                "tempo": 120.0
            },
            {
                "start_time": 40.18181818181818,
                "end_time": 40.23181818181818,
                "pitch": 67,
                "velocity": 40,
                "duration": 0.04999999999999716,
                "tempo": 120.0
            },
            {
                "start_time": 40.23181818181818,
                "end_time": 40.34772727272727,
                "pitch": 67,
                "velocity": 40,
                "duration": 0.11590909090909207,
                "tempo": 120.0
            },
            {
                "start_time": 40.18181818181818,
                "end_time": 40.34772727272727,
                "pitch": 79,
                "velocity": 40,
                "duration": 0.16590909090908923,
                "tempo": 120.0
            },
            {
                "start_time": 40.23181818181818,
                "end_time": 40.39772727272727,
                "pitch": 55,
                "velocity": 40,
                "duration": 0.16590909090909634,
                "tempo": 120.0
            },
            {
                "start_time": 40.34772727272727,
                "end_time": 40.39772727272727,
                "pitch": 67,
                "velocity": 40,
                "duration": 0.05000000000000426,
                "tempo": 120.0
            },
            {
                "start_time": 40.39772727272727,
                "end_time": 40.51363636363636,
                "pitch": 67,
                "velocity": 40,
                "duration": 0.11590909090908497,
                "tempo": 120.0
            },
            {
                "start_time": 40.34772727272727,
                "end_time": 40.51590909090909,
                "pitch": 79,
                "velocity": 40,
                "duration": 0.16818181818182154,
                "tempo": 120.0
            },
            {
                "start_time": 40.51363636363636,
                "end_time": 40.51590909090909,
                "pitch": 79,
                "velocity": 40,
                "duration": 0.002272727272732311,
                "tempo": 120.0
            },
            {
                "start_time": 40.39772727272727,
                "end_time": 40.56590909090909,
                "pitch": 55,
                "velocity": 40,
                "duration": 0.16818181818181444,
                "tempo": 120.0
            },
            {
                "start_time": 40.51590909090909,
                "end_time": 40.56590909090909,
                "pitch": 67,
                "velocity": 40,
                "duration": 0.04999999999999716,
                "tempo": 120.0
            },
            {
                "start_time": 40.56590909090909,
                "end_time": 40.684090909090905,
                "pitch": 67,
                "velocity": 40,
                "duration": 0.11818181818181728,
                "tempo": 120.0
            },
            {
                "start_time": 40.684090909090905,
                "end_time": 40.699999999999996,
                "pitch": 67,
                "velocity": 40,
                "duration": 0.01590909090909065,
                "tempo": 120.0
            },
            {
                "start_time": 40.70227272727273,
                "end_time": 41.30681818181818,
                "pitch": 64,
                "velocity": 40,
                "duration": 0.6045454545454518,
                "tempo": 120.0
            },
            {
                "start_time": 41.30681818181818,
                "end_time": 41.60909090909091,
                "pitch": 67,
                "velocity": 40,
                "duration": 0.30227272727272947,
                "tempo": 120.0
            },
            {
                "start_time": 41.611363636363635,
                "end_time": 41.913636363636364,
                "pitch": 60,
                "velocity": 40,
                "duration": 0.30227272727272947,
                "tempo": 120.0
            },
            {
                "start_time": 41.91590909090909,
                "end_time": 42.215909090909086,
                "pitch": 64,
                "velocity": 40,
                "duration": 0.29999999999999716,
                "tempo": 120.0
            },
            {
                "start_time": 42.21818181818182,
                "end_time": 42.82272727272727,
                "pitch": 69,
                "velocity": 40,
                "duration": 0.6045454545454518,
                "tempo": 120.0
            },
            {
                "start_time": 42.824999999999996,
                "end_time": 43.72727272727273,
                "pitch": 65,
                "velocity": 40,
                "duration": 0.9022727272727309,
                "tempo": 120.0
            },
            {
                "start_time": 43.72954545454545,
                "end_time": 44.02954545454545,
                "pitch": 67,
                "velocity": 40,
                "duration": 0.29999999999999716,
                "tempo": 120.0
            },
            {
                "start_time": 44.03181818181818,
                "end_time": 44.336363636363636,
                "pitch": 60,
                "velocity": 40,
                "duration": 0.3045454545454547,
                "tempo": 120.0
            },
            {
                "start_time": 44.33863636363636,
                "end_time": 44.643181818181816,
                "pitch": 64,
                "velocity": 40,
                "duration": 0.3045454545454547,
                "tempo": 120.0
            },
            {
                "start_time": 44.64545454545454,
                "end_time": 45.25,
                "pitch": 72,
                "velocity": 40,
                "duration": 0.6045454545454589,
                "tempo": 120.0
            },
            {
                "start_time": 45.252272727272725,
                "end_time": 46.16136363636363,
                "pitch": 64,
                "velocity": 40,
                "duration": 0.9090909090909065,
                "tempo": 120.0
            },
            {
                "start_time": 46.163636363636364,
                "end_time": 46.46363636363636,
                "pitch": 67,
                "velocity": 40,
                "duration": 0.29999999999999716,
                "tempo": 120.0
            },
            {
                "start_time": 46.465909090909086,
                "end_time": 46.768181818181816,
                "pitch": 65,
                "velocity": 40,
                "duration": 0.30227272727272947,
                "tempo": 120.0
            },
            {
                "start_time": 46.77045454545454,
                "end_time": 47.070454545454545,
                "pitch": 64,
                "velocity": 40,
                "duration": 0.30000000000000426,
                "tempo": 120.0
            },
            {
                "start_time": 47.07272727272727,
                "end_time": 48.58181818181818,
                "pitch": 65,
                "velocity": 40,
                "duration": 1.509090909090908,
                "tempo": 120.0
            },
            {
                "start_time": 48.584090909090904,
                "end_time": 48.88636363636363,
                "pitch": 69,
                "velocity": 40,
                "duration": 0.30227272727272947,
                "tempo": 120.0
            },
            {
                "start_time": 48.88863636363636,
                "end_time": 49.18863636363636,
                "pitch": 70,
                "velocity": 40,
                "duration": 0.30000000000000426,
                "tempo": 120.0
            },
            {
                "start_time": 49.19090909090909,
                "end_time": 49.49318181818182,
                "pitch": 69,
                "velocity": 40,
                "duration": 0.30227272727272947,
                "tempo": 120.0
            },
            {
                "start_time": 49.49318181818182,
                "end_time": 49.89772727272727,
                "pitch": 67,
                "velocity": 40,
                "duration": 0.4045454545454561,
                "tempo": 120.0
            },
            {
                "start_time": 40.684090909090905,
                "end_time": 49.89772727272727,
                "pitch": 79,
                "velocity": 40,
                "duration": 9.213636363636368,
                "tempo": 120.0
            },
            {
                "start_time": 40.56590909090909,
                "end_time": 49.94772727272727,
                "pitch": 55,
                "velocity": 40,
                "duration": 9.381818181818183,
                "tempo": 120.0
            },
            {
                "start_time": 49.89772727272727,
                "end_time": 49.94772727272727,
                "pitch": 67,
                "velocity": 40,
                "duration": 0.04999999999999716,
                "tempo": 120.0
            },
            {
                "start_time": 49.94772727272727,
                "end_time": 50.06590909090909,
                "pitch": 67,
                "velocity": 40,
                "duration": 0.11818181818181728,
                "tempo": 120.0
            },
            {
                "start_time": 49.89772727272727,
                "end_time": 50.06590909090909,
                "pitch": 79,
                "velocity": 40,
                "duration": 0.16818181818181444,
                "tempo": 120.0
            },
            {
                "start_time": 49.94772727272727,
                "end_time": 50.11818181818182,
                "pitch": 55,
                "velocity": 40,
                "duration": 0.17045454545454675,
                "tempo": 120.0
            },
            {
                "start_time": 50.06590909090909,
                "end_time": 50.11818181818182,
                "pitch": 67,
                "velocity": 40,
                "duration": 0.05227272727272947,
                "tempo": 120.0
            },
            {
                "start_time": 50.11818181818182,
                "end_time": 50.23409090909091,
                "pitch": 67,
                "velocity": 40,
                "duration": 0.11590909090909207,
                "tempo": 120.0
            },
            {
                "start_time": 50.06590909090909,
                "end_time": 50.23409090909091,
                "pitch": 79,
                "velocity": 40,
                "duration": 0.16818181818182154,
                "tempo": 120.0
            },
            {
                "start_time": 50.11818181818182,
                "end_time": 50.28409090909091,
                "pitch": 55,
                "velocity": 40,
                "duration": 0.16590909090908923,
                "tempo": 120.0
            },
            {
                "start_time": 50.23409090909091,
                "end_time": 50.28409090909091,
                "pitch": 67,
                "velocity": 40,
                "duration": 0.04999999999999716,
                "tempo": 120.0
            },
            {
                "start_time": 50.28409090909091,
                "end_time": 50.402272727272724,
                "pitch": 67,
                "velocity": 40,
                "duration": 0.11818181818181728,
                "tempo": 120.0
            },
            {
                "start_time": 50.23409090909091,
                "end_time": 50.402272727272724,
                "pitch": 79,
                "velocity": 40,
                "duration": 0.16818181818181444,
                "tempo": 120.0
            },
            {
                "start_time": 50.28409090909091,
                "end_time": 50.45227272727273,
                "pitch": 55,
                "velocity": 40,
                "duration": 0.16818181818182154,
                "tempo": 120.0
            },
            {
                "start_time": 50.402272727272724,
                "end_time": 50.45227272727273,
                "pitch": 67,
                "velocity": 40,
                "duration": 0.05000000000000426,
                "tempo": 120.0
            },
            {
                "start_time": 50.45227272727273,
                "end_time": 50.56818181818181,
                "pitch": 67,
                "velocity": 40,
                "duration": 0.11590909090908497,
                "tempo": 120.0
            },
            {
                "start_time": 50.402272727272724,
                "end_time": 50.56818181818181,
                "pitch": 79,
                "velocity": 40,
                "duration": 0.16590909090908923,
                "tempo": 120.0
            },
            {
                "start_time": 50.45227272727273,
                "end_time": 50.61818181818182,
                "pitch": 55,
                "velocity": 40,
                "duration": 0.16590909090908923,
                "tempo": 120.0
            },
            {
                "start_time": 50.56818181818181,
                "end_time": 50.61818181818182,
                "pitch": 67,
                "velocity": 40,
                "duration": 0.05000000000000426,
                "tempo": 120.0
            },
            {
                "start_time": 50.61818181818182,
                "end_time": 50.736363636363635,
                "pitch": 67,
                "velocity": 40,
                "duration": 0.11818181818181728,
                "tempo": 120.0
            },
            {
                "start_time": 50.56818181818181,
                "end_time": 50.736363636363635,
                "pitch": 79,
                "velocity": 40,
                "duration": 0.16818181818182154,
                "tempo": 120.0
            },
            {
                "start_time": 50.61818181818182,
                "end_time": 50.78636363636363,
                "pitch": 55,
                "velocity": 40,
                "duration": 0.16818181818181444,
                "tempo": 120.0
            },
            {
                "start_time": 50.736363636363635,
                "end_time": 50.78636363636363,
                "pitch": 67,
                "velocity": 40,
                "duration": 0.04999999999999716,
                "tempo": 120.0
            },
            {
                "start_time": 50.78636363636363,
                "end_time": 50.902272727272724,
                "pitch": 67,
                "velocity": 40,
                "duration": 0.11590909090909207,
                "tempo": 120.0
            },
            {
                "start_time": 50.736363636363635,
                "end_time": 50.90454545454545,
                "pitch": 79,
                "velocity": 40,
                "duration": 0.16818181818181444,
                "tempo": 120.0
            },
            {
                "start_time": 50.902272727272724,
                "end_time": 50.90454545454545,
                "pitch": 79,
                "velocity": 40,
                "duration": 0.0022727272727252057,
                "tempo": 120.0
            },
            {
                "start_time": 50.78636363636363,
                "end_time": 50.95454545454545,
                "pitch": 55,
                "velocity": 40,
                "duration": 0.16818181818182154,
                "tempo": 120.0
            },
            {
                "start_time": 50.90454545454545,
                "end_time": 50.95454545454545,
                "pitch": 67,
                "velocity": 40,
                "duration": 0.05000000000000426,
                "tempo": 120.0
            },
            {
                "start_time": 50.95454545454545,
                "end_time": 51.00454545454545,
                "pitch": 67,
                "velocity": 40,
                "duration": 0.04999999999999716,
                "tempo": 120.0
            },
            {
                "start_time": 51.00454545454545,
                "end_time": 51.425,
                "pitch": 67,
                "velocity": 40,
                "duration": 0.42045454545454675,
                "tempo": 120.0
            },
            {
                "start_time": 50.95454545454545,
                "end_time": 51.47727272727273,
                "pitch": 55,
                "velocity": 40,
                "duration": 0.5227272727272734,
                "tempo": 120.0
            },
            {
                "start_time": 51.425,
                "end_time": 51.47727272727273,
                "pitch": 67,
                "velocity": 40,
                "duration": 0.05227272727272947,
                "tempo": 120.0
            },
            {
                "start_time": 51.47727272727273,
                "end_time": 51.595454545454544,
                "pitch": 67,
                "velocity": 40,
                "duration": 0.11818181818181728,
                "tempo": 120.0
            },
            {
                "start_time": 51.425,
                "end_time": 51.595454545454544,
                "pitch": 79,
                "velocity": 40,
                "duration": 0.17045454545454675,
                "tempo": 120.0
            },
            {
                "start_time": 51.47727272727273,
                "end_time": 51.64545454545454,
                "pitch": 55,
                "velocity": 40,
                "duration": 0.16818181818181444,
                "tempo": 120.0
            },
            {
                "start_time": 51.595454545454544,
                "end_time": 51.64545454545454,
                "pitch": 67,
                "velocity": 40,
                "duration": 0.04999999999999716,
                "tempo": 120.0
            },
            {
                "start_time": 51.64545454545454,
                "end_time": 51.76363636363636,
                "pitch": 67,
                "velocity": 40,
                "duration": 0.11818181818181728,
                "tempo": 120.0
            },
            {
                "start_time": 51.595454545454544,
                "end_time": 51.76363636363636,
                "pitch": 79,
                "velocity": 40,
                "duration": 0.16818181818181444,
                "tempo": 120.0
            },
            {
                "start_time": 51.64545454545454,
                "end_time": 51.81363636363636,
                "pitch": 55,
                "velocity": 40,
                "duration": 0.16818181818182154,
                "tempo": 120.0
            },
            {
                "start_time": 51.76363636363636,
                "end_time": 51.81363636363636,
                "pitch": 67,
                "velocity": 40,
                "duration": 0.05000000000000426,
                "tempo": 120.0
            },
            {
                "start_time": 51.81363636363636,
                "end_time": 51.93181818181818,
                "pitch": 67,
                "velocity": 40,
                "duration": 0.11818181818181728,
                "tempo": 120.0
            },
            {
                "start_time": 51.76363636363636,
                "end_time": 51.93181818181818,
                "pitch": 79,
                "velocity": 40,
                "duration": 0.16818181818182154,
                "tempo": 120.0
            },
            {
                "start_time": 51.81363636363636,
                "end_time": 51.98181818181818,
                "pitch": 55,
                "velocity": 40,
                "duration": 0.16818181818181444,
                "tempo": 120.0
            },
            {
                "start_time": 51.93181818181818,
                "end_time": 51.98181818181818,
                "pitch": 67,
                "velocity": 40,
                "duration": 0.04999999999999716,
                "tempo": 120.0
            },
            {
                "start_time": 51.98181818181818,
                "end_time": 52.099999999999994,
                "pitch": 67,
                "velocity": 40,
                "duration": 0.11818181818181728,
                "tempo": 120.0
            },
            {
                "start_time": 51.93181818181818,
                "end_time": 52.099999999999994,
                "pitch": 79,
                "velocity": 40,
                "duration": 0.16818181818181444,
                "tempo": 120.0
            },
            {
                "start_time": 51.98181818181818,
                "end_time": 52.15,
                "pitch": 55,
                "velocity": 40,
                "duration": 0.16818181818182154,
                "tempo": 120.0
            },
            {
                "start_time": 52.099999999999994,
                "end_time": 52.15,
                "pitch": 67,
                "velocity": 40,
                "duration": 0.05000000000000426,
                "tempo": 120.0
            },
            {
                "start_time": 52.15,
                "end_time": 52.268181818181816,
                "pitch": 67,
                "velocity": 40,
                "duration": 0.11818181818181728,
                "tempo": 120.0
            },
            {
                "start_time": 52.099999999999994,
                "end_time": 52.268181818181816,
                "pitch": 79,
                "velocity": 40,
                "duration": 0.16818181818182154,
                "tempo": 120.0
            },
            {
                "start_time": 52.15,
                "end_time": 52.320454545454545,
                "pitch": 55,
                "velocity": 40,
                "duration": 0.17045454545454675,
                "tempo": 120.0
            },
            {
                "start_time": 52.268181818181816,
                "end_time": 52.320454545454545,
                "pitch": 67,
                "velocity": 40,
                "duration": 0.05227272727272947,
                "tempo": 120.0
            },
            {
                "start_time": 52.320454545454545,
                "end_time": 52.43636363636363,
                "pitch": 67,
                "velocity": 40,
                "duration": 0.11590909090908497,
                "tempo": 120.0
            },
            {
                "start_time": 52.268181818181816,
                "end_time": 52.43636363636363,
                "pitch": 79,
                "velocity": 40,
                "duration": 0.16818181818181444,
                "tempo": 120.0
            },
            {
                "start_time": 52.320454545454545,
                "end_time": 52.48863636363636,
                "pitch": 55,
                "velocity": 40,
                "duration": 0.16818181818181444,
                "tempo": 120.0
            },
            {
                "start_time": 52.43636363636363,
                "end_time": 52.48863636363636,
                "pitch": 67,
                "velocity": 40,
                "duration": 0.05227272727272947,
                "tempo": 120.0
            },
            {
                "start_time": 52.48863636363636,
                "end_time": 52.52045454545454,
                "pitch": 67,
                "velocity": 40,
                "duration": 0.0318181818181813,
                "tempo": 120.0
            },
            {
                "start_time": 52.52272727272727,
                "end_time": 52.824999999999996,
                "pitch": 61,
                "velocity": 40,
                "duration": 0.30227272727272236,
                "tempo": 120.0
            },
            {
                "start_time": 52.82727272727273,
                "end_time": 53.13181818181818,
                "pitch": 62,
                "velocity": 40,
                "duration": 0.3045454545454547,
                "tempo": 120.0
            },
            {
                "start_time": 53.13409090909091,
                "end_time": 53.43636363636363,
                "pitch": 64,
                "velocity": 40,
                "duration": 0.30227272727272236,
                "tempo": 120.0
            },
            {
                "start_time": 53.43863636363636,
                "end_time": 54.04090909090909,
                "pitch": 65,
                "velocity": 40,
                "duration": 0.6022727272727266,
                "tempo": 120.0
            },
            {
                "start_time": 54.043181818181814,
                "end_time": 54.49318181818182,
                "pitch": 67,
                "velocity": 40,
                "duration": 0.45000000000000284,
                "tempo": 120.0
            },
            {
                "start_time": 52.43636363636363,
                "end_time": 54.49318181818182,
                "pitch": 79,
                "velocity": 40,
                "duration": 2.056818181818187,
                "tempo": 120.0
            },
            {
                "start_time": 52.48863636363636,
                "end_time": 54.54545454545454,
                "pitch": 55,
                "velocity": 40,
                "duration": 2.05681818181818,
                "tempo": 120.0
            },
            {
                "start_time": 54.49318181818182,
                "end_time": 54.54545454545454,
                "pitch": 67,
                "velocity": 40,
                "duration": 0.052272727272722364,
                "tempo": 120.0
            },
            {
                "start_time": 54.54545454545454,
                "end_time": 54.64545454545454,
                "pitch": 67,
                "velocity": 40,
                "duration": 0.10000000000000142,
                "tempo": 120.0
            },
            {
                "start_time": 54.64772727272727,
                "end_time": 55.252272727272725,
                "pitch": 69,
                "velocity": 40,
                "duration": 0.6045454545454518,
                "tempo": 120.0
            },
            {
                "start_time": 55.25454545454545,
                "end_time": 55.85909090909091,
                "pitch": 72,
                "velocity": 40,
                "duration": 0.6045454545454589,
                "tempo": 120.0
            },
            {
                "start_time": 55.861363636363635,
                "end_time": 57.37045454545454,
                "pitch": 70,
                "velocity": 40,
                "duration": 1.509090909090908,
                "tempo": 120.0
            },
            {
                "start_time": 57.37272727272727,
                "end_time": 57.67272727272727,
                "pitch": 62,
                "velocity": 40,
                "duration": 0.30000000000000426,
                "tempo": 120.0
            },
            {
                "start_time": 57.675,
                "end_time": 57.97727272727273,
                "pitch": 65,
                "velocity": 40,
                "duration": 0.30227272727272947,
                "tempo": 120.0
            },
            {
                "start_time": 57.97727272727273,
                "end_time": 58.27954545454545,
                "pitch": 67,
                "velocity": 40,
                "duration": 0.30227272727272236,
                "tempo": 120.0
            },
            {
                "start_time": 58.28181818181818,
                "end_time": 58.584090909090904,
                "pitch": 67,
                "velocity": 40,
                "duration": 0.30227272727272236,
                "tempo": 120.0
            },
            {
                "start_time": 58.584090909090904,
                "end_time": 58.88636363636363,
                "pitch": 69,
                "velocity": 40,
                "duration": 0.30227272727272947,
                "tempo": 120.0
            },
            {
                "start_time": 58.88863636363636,
                "end_time": 59.19090909090909,
                "pitch": 67,
                "velocity": 40,
                "duration": 0.30227272727272947,
                "tempo": 120.0
            },
            {
                "start_time": 59.19090909090909,
                "end_time": 60.51136363636363,
                "pitch": 65,
                "velocity": 40,
                "duration": 1.3204545454545453,
                "tempo": 120.0
            }
        ],
        "Harpsichord": [
            {
                "start_time": 60.51363636363636,
                "end_time": 60.81363636363636,
                "pitch": 82,
                "velocity": 25,
                "duration": 0.30000000000000426,
                "tempo": 120.0
            },
            {
                "start_time": 60.81590909090909,
                "end_time": 61.11818181818182,
                "pitch": 82,
                "velocity": 25,
                "duration": 0.30227272727272947,
                "tempo": 120.0
            },
            {
                "start_time": 61.12045454545454,
                "end_time": 61.418181818181814,
                "pitch": 82,
                "velocity": 25,
                "duration": 0.29772727272727195,
                "tempo": 120.0
            },
            {
                "start_time": 61.42045454545454,
                "end_time": 61.71818181818182,
                "pitch": 82,
                "velocity": 25,
                "duration": 0.29772727272727906,
                "tempo": 120.0
            },
            {
                "start_time": 61.720454545454544,
                "end_time": 62.025,
                "pitch": 82,
                "velocity": 25,
                "duration": 0.3045454545454547,
                "tempo": 120.0
            },
            {
                "start_time": 62.025,
                "end_time": 62.32727272727272,
                "pitch": 82,
                "velocity": 25,
                "duration": 0.30227272727272236,
                "tempo": 120.0
            },
            {
                "start_time": 62.32954545454545,
                "end_time": 62.631818181818176,
                "pitch": 82,
                "velocity": 25,
                "duration": 0.30227272727272236,
                "tempo": 120.0
            },
            {
                "start_time": 62.63409090909091,
                "end_time": 62.934090909090905,
                "pitch": 82,
                "velocity": 25,
                "duration": 0.29999999999999716,
                "tempo": 120.0
            },
            {
                "start_time": 62.93636363636363,
                "end_time": 63.236363636363635,
                "pitch": 82,
                "velocity": 25,
                "duration": 0.30000000000000426,
                "tempo": 120.0
            },
            {
                "start_time": 63.23863636363636,
                "end_time": 63.54090909090909,
                "pitch": 82,
                "velocity": 25,
                "duration": 0.30227272727272947,
                "tempo": 120.0
            },
            {
                "start_time": 63.543181818181814,
                "end_time": 63.845454545454544,
                "pitch": 82,
                "velocity": 25,
                "duration": 0.30227272727272947,
                "tempo": 120.0
            },
            {
                "start_time": 63.84772727272727,
                "end_time": 64.14772727272727,
                "pitch": 82,
                "velocity": 25,
                "duration": 0.29999999999999716,
                "tempo": 120.0
            },
            {
                "start_time": 64.14999999999999,
                "end_time": 64.44772727272726,
                "pitch": 82,
                "velocity": 25,
                "duration": 0.29772727272727195,
                "tempo": 120.0
            },
            {
                "start_time": 64.45,
                "end_time": 64.74772727272727,
                "pitch": 82,
                "velocity": 25,
                "duration": 0.29772727272727195,
                "tempo": 120.0
            },
            {
                "start_time": 64.75,
                "end_time": 65.05227272727272,
                "pitch": 82,
                "velocity": 25,
                "duration": 0.30227272727272236,
                "tempo": 120.0
            },
            {
                "start_time": 65.05454545454545,
                "end_time": 65.35681818181818,
                "pitch": 82,
                "velocity": 25,
                "duration": 0.3022727272727366,
                "tempo": 120.0
            },
            {
                "start_time": 65.35681818181818,
                "end_time": 65.65681818181818,
                "pitch": 84,
                "velocity": 25,
                "duration": 0.29999999999999716,
                "tempo": 120.0
            },
            {
                "start_time": 65.6590909090909,
                "end_time": 65.95681818181818,
                "pitch": 84,
                "velocity": 25,
                "duration": 0.29772727272727195,
                "tempo": 120.0
            },
            {
                "start_time": 65.9590909090909,
                "end_time": 66.25681818181818,
                "pitch": 84,
                "velocity": 25,
                "duration": 0.29772727272727195,
                "tempo": 120.0
            },
            {
                "start_time": 66.2590909090909,
                "end_time": 66.55681818181817,
                "pitch": 84,
                "velocity": 25,
                "duration": 0.29772727272727195,
                "tempo": 120.0
            },
            {
                "start_time": 66.55909090909091,
                "end_time": 66.86136363636363,
                "pitch": 84,
                "velocity": 25,
                "duration": 0.30227272727272236,
                "tempo": 120.0
            },
            {
                "start_time": 66.86363636363636,
                "end_time": 67.16363636363636,
                "pitch": 84,
                "velocity": 25,
                "duration": 0.29999999999999716,
                "tempo": 120.0
            },
            {
                "start_time": 67.16590909090908,
                "end_time": 67.46363636363635,
                "pitch": 84,
                "velocity": 25,
                "duration": 0.29772727272727195,
                "tempo": 120.0
            },
            {
                "start_time": 67.4659090909091,
                "end_time": 67.76590909090909,
                "pitch": 84,
                "velocity": 25,
                "duration": 0.29999999999999716,
                "tempo": 120.0
            },
            {
                "start_time": 67.76590909090909,
                "end_time": 68.07045454545454,
                "pitch": 84,
                "velocity": 25,
                "duration": 0.30454545454544757,
                "tempo": 120.0
            },
            {
                "start_time": 68.07272727272726,
                "end_time": 68.37727272727273,
                "pitch": 84,
                "velocity": 25,
                "duration": 0.3045454545454618,
                "tempo": 120.0
            },
            {
                "start_time": 68.37954545454545,
                "end_time": 68.68181818181817,
                "pitch": 84,
                "velocity": 25,
                "duration": 0.30227272727272236,
                "tempo": 120.0
            },
            {
                "start_time": 68.68409090909091,
                "end_time": 68.98409090909091,
                "pitch": 84,
                "velocity": 25,
                "duration": 0.29999999999999716,
                "tempo": 120.0
            },
            {
                "start_time": 68.98636363636363,
                "end_time": 69.28636363636363,
                "pitch": 84,
                "velocity": 25,
                "duration": 0.29999999999999716,
                "tempo": 120.0
            },
            {
                "start_time": 69.28636363636363,
                "end_time": 69.58636363636363,
                "pitch": 84,
                "velocity": 25,
                "duration": 0.29999999999999716,
                "tempo": 120.0
            },
            {
                "start_time": 69.58636363636363,
                "end_time": 69.88636363636363,
                "pitch": 84,
                "velocity": 25,
                "duration": 0.29999999999999716,
                "tempo": 120.0
            },
            {
                "start_time": 69.88636363636363,
                "end_time": 70.18636363636364,
                "pitch": 84,
                "velocity": 25,
                "duration": 0.30000000000001137,
                "tempo": 120.0
            },
            {
                "start_time": 70.18863636363636,
                "end_time": 70.49090909090908,
                "pitch": 89,
                "velocity": 25,
                "duration": 0.30227272727272236,
                "tempo": 120.0
            },
            {
                "start_time": 70.49090909090908,
                "end_time": 70.79318181818182,
                "pitch": 89,
                "velocity": 25,
                "duration": 0.3022727272727366,
                "tempo": 120.0
            },
            {
                "start_time": 70.79545454545455,
                "end_time": 71.09318181818182,
                "pitch": 89,
                "velocity": 25,
                "duration": 0.29772727272727195,
                "tempo": 120.0
            },
            {
                "start_time": 71.09545454545454,
                "end_time": 71.39318181818182,
                "pitch": 88,
                "velocity": 25,
                "duration": 0.29772727272727195,
                "tempo": 120.0
            },
            {
                "start_time": 71.39545454545454,
                "end_time": 71.69772727272726,
                "pitch": 88,
                "velocity": 25,
                "duration": 0.30227272727272236,
                "tempo": 120.0
            },
            {
                "start_time": 71.69772727272726,
                "end_time": 72.0,
                "pitch": 88,
                "velocity": 25,
                "duration": 0.3022727272727366,
                "tempo": 120.0
            },
            {
                "start_time": 72.00227272727273,
                "end_time": 72.3,
                "pitch": 88,
                "velocity": 25,
                "duration": 0.29772727272727195,
                "tempo": 120.0
            },
            {
                "start_time": 72.30227272727272,
                "end_time": 72.60227272727272,
                "pitch": 88,
                "velocity": 25,
                "duration": 0.29999999999999716,
                "tempo": 120.0
            },
            {
                "start_time": 72.60227272727272,
                "end_time": 72.90227272727272,
                "pitch": 88,
                "velocity": 25,
                "duration": 0.29999999999999716,
                "tempo": 120.0
            },
            {
                "start_time": 72.90454545454546,
                "end_time": 73.20227272727273,
                "pitch": 88,
                "velocity": 25,
                "duration": 0.29772727272727195,
                "tempo": 120.0
            },
            {
                "start_time": 73.20454545454545,
                "end_time": 73.50681818181818,
                "pitch": 88,
                "velocity": 25,
                "duration": 0.30227272727272236,
                "tempo": 120.0
            },
            {
                "start_time": 73.50681818181818,
                "end_time": 73.80909090909091,
                "pitch": 89,
                "velocity": 25,
                "duration": 0.3022727272727366,
                "tempo": 120.0
            },
            {
                "start_time": 73.80909090909091,
                "end_time": 74.10909090909091,
                "pitch": 89,
                "velocity": 25,
                "duration": 0.29999999999999716,
                "tempo": 120.0
            },
            {
                "start_time": 74.11136363636363,
                "end_time": 74.41136363636363,
                "pitch": 89,
                "velocity": 25,
                "duration": 0.29999999999999716,
                "tempo": 120.0
            },
            {
                "start_time": 74.41136363636363,
                "end_time": 74.71363636363635,
                "pitch": 89,
                "velocity": 25,
                "duration": 0.30227272727272236,
                "tempo": 120.0
            },
            {
                "start_time": 74.71363636363635,
                "end_time": 75.01818181818182,
                "pitch": 89,
                "velocity": 25,
                "duration": 0.3045454545454618,
                "tempo": 120.0
            },
            {
                "start_time": 75.01818181818182,
                "end_time": 75.31590909090909,
                "pitch": 89,
                "velocity": 25,
                "duration": 0.29772727272727195,
                "tempo": 120.0
            },
            {
                "start_time": 75.31818181818181,
                "end_time": 75.61818181818181,
                "pitch": 89,
                "velocity": 25,
                "duration": 0.29999999999999716,
                "tempo": 120.0
            },
            {
                "start_time": 75.61818181818181,
                "end_time": 75.92272727272727,
                "pitch": 89,
                "velocity": 25,
                "duration": 0.3045454545454618,
                "tempo": 120.0
            },
            {
                "start_time": 75.925,
                "end_time": 76.22954545454544,
                "pitch": 89,
                "velocity": 25,
                "duration": 0.30454545454544757,
                "tempo": 120.0
            },
            {
                "start_time": 76.23181818181818,
                "end_time": 76.53636363636363,
                "pitch": 89,
                "velocity": 25,
                "duration": 0.30454545454544757,
                "tempo": 120.0
            },
            {
                "start_time": 76.53636363636363,
                "end_time": 76.83181818181818,
                "pitch": 89,
                "velocity": 25,
                "duration": 0.29545454545454675,
                "tempo": 120.0
            },
            {
                "start_time": 76.8340909090909,
                "end_time": 77.14090909090909,
                "pitch": 89,
                "velocity": 25,
                "duration": 0.306818181818187,
                "tempo": 120.0
            },
            {
                "start_time": 77.14090909090909,
                "end_time": 77.44318181818181,
                "pitch": 89,
                "velocity": 25,
                "duration": 0.30227272727272236,
                "tempo": 120.0
            },
            {
                "start_time": 77.44318181818181,
                "end_time": 77.73863636363636,
                "pitch": 86,
                "velocity": 25,
                "duration": 0.29545454545454675,
                "tempo": 120.0
            },
            {
                "start_time": 77.74090909090908,
                "end_time": 78.03863636363636,
                "pitch": 86,
                "velocity": 25,
                "duration": 0.29772727272727195,
                "tempo": 120.0
            },
            {
                "start_time": 78.04090909090908,
                "end_time": 78.3409090909091,
                "pitch": 86,
                "velocity": 25,
                "duration": 0.30000000000001137,
                "tempo": 120.0
            },
            {
                "start_time": 78.34318181818182,
                "end_time": 78.64545454545454,
                "pitch": 86,
                "velocity": 25,
                "duration": 0.30227272727272236,
                "tempo": 120.0
            },
            {
                "start_time": 78.64772727272727,
                "end_time": 78.94545454545454,
                "pitch": 86,
                "velocity": 25,
                "duration": 0.29772727272727195,
                "tempo": 120.0
            },
            {
                "start_time": 78.94772727272726,
                "end_time": 79.24545454545454,
                "pitch": 86,
                "velocity": 25,
                "duration": 0.29772727272727195,
                "tempo": 120.0
            },
            {
                "start_time": 79.24772727272727,
                "end_time": 79.54772727272727,
                "pitch": 86,
                "velocity": 25,
                "duration": 0.29999999999999716,
                "tempo": 120.0
            },
            {
                "start_time": 79.54772727272727,
                "end_time": 79.84772727272727,
                "pitch": 88,
                "velocity": 25,
                "duration": 0.29999999999999716,
                "tempo": 120.0
            },
            {
                "start_time": 79.84772727272727,
                "end_time": 80.14999999999999,
                "pitch": 88,
                "velocity": 25,
                "duration": 0.30227272727272236,
                "tempo": 120.0
            },
            {
                "start_time": 80.15227272727272,
                "end_time": 80.45454545454545,
                "pitch": 88,
                "velocity": 25,
                "duration": 0.3022727272727366,
                "tempo": 120.0
            },
            {
                "start_time": 80.45454545454545,
                "end_time": 80.75454545454545,
                "pitch": 88,
                "velocity": 25,
                "duration": 0.29999999999999716,
                "tempo": 120.0
            },
            {
                "start_time": 80.75454545454545,
                "end_time": 81.05454545454545,
                "pitch": 88,
                "velocity": 25,
                "duration": 0.29999999999999716,
                "tempo": 120.0
            },
            {
                "start_time": 81.05681818181817,
                "end_time": 81.35681818181818,
                "pitch": 88,
                "velocity": 25,
                "duration": 0.30000000000001137,
                "tempo": 120.0
            },
            {
                "start_time": 81.35909090909091,
                "end_time": 81.66136363636363,
                "pitch": 88,
                "velocity": 25,
                "duration": 0.30227272727272236,
                "tempo": 120.0
            },
            {
                "start_time": 81.66363636363636,
                "end_time": 81.96136363636363,
                "pitch": 88,
                "velocity": 25,
                "duration": 0.29772727272727195,
                "tempo": 120.0
            },
            {
                "start_time": 81.96363636363635,
                "end_time": 82.26363636363637,
                "pitch": 88,
                "velocity": 25,
                "duration": 0.30000000000001137,
                "tempo": 120.0
            }
        ],
        "French Horn": [
            {
                "start_time": 82.26363636363637,
                "end_time": 82.29545454545455,
                "pitch": 69,
                "velocity": 80,
                "duration": 0.0318181818181813,
                "tempo": 120.0
            },
            {
                "start_time": 82.29545454545455,
                "end_time": 82.86136363636363,
                "pitch": 72,
                "velocity": 80,
                "duration": 0.5659090909090878,
                "tempo": 120.0
            },
            {
                "start_time": 82.86363636363636,
                "end_time": 83.16818181818181,
                "pitch": 70,
                "velocity": 80,
                "duration": 0.30454545454544757,
                "tempo": 120.0
            },
            {
                "start_time": 83.17045454545455,
                "end_time": 83.18636363636364,
                "pitch": 67,
                "velocity": 80,
                "duration": 0.01590909090909065,
                "tempo": 120.0
            },
            {
                "start_time": 83.18636363636364,
                "end_time": 84.68181818181817,
                "pitch": 66,
                "velocity": 80,
                "duration": 1.4954545454545354,
                "tempo": 120.0
            },
            {
                "start_time": 84.6840909090909,
                "end_time": 84.7,
                "pitch": 67,
                "velocity": 80,
                "duration": 0.01590909090910486,
                "tempo": 120.0
            },
            {
                "start_time": 84.7,
                "end_time": 84.73409090909091,
                "pitch": 68,
                "velocity": 80,
                "duration": 0.03409090909090651,
                "tempo": 120.0
            },
            {
                "start_time": 84.73409090909091,
                "end_time": 85.28863636363636,
                "pitch": 72,
                "velocity": 80,
                "duration": 0.5545454545454476,
                "tempo": 120.0
            },
            {
                "start_time": 85.29090909090908,
                "end_time": 85.32272727272726,
                "pitch": 70,
                "velocity": 80,
                "duration": 0.0318181818181813,
                "tempo": 120.0
            },
            {
                "start_time": 85.32272727272726,
                "end_time": 85.58863636363635,
                "pitch": 67,
                "velocity": 80,
                "duration": 0.26590909090909065,
                "tempo": 120.0
            },
            {
                "start_time": 85.5909090909091,
                "end_time": 87.09772727272727,
                "pitch": 65,
                "velocity": 80,
                "duration": 1.5068181818181756,
                "tempo": 120.0
            },
            {
                "start_time": 87.1,
                "end_time": 87.11590909090908,
                "pitch": 66,
                "velocity": 80,
                "duration": 0.01590909090909065,
                "tempo": 120.0
            },
            {
                "start_time": 87.11590909090908,
                "end_time": 87.14772727272727,
                "pitch": 67,
                "velocity": 80,
                "duration": 0.0318181818181813,
                "tempo": 120.0
            },
            {
                "start_time": 87.14772727272727,
                "end_time": 88.60454545454544,
                "pitch": 71,
                "velocity": 80,
                "duration": 1.4568181818181785,
                "tempo": 120.0
            },
            {
                "start_time": 88.60681818181818,
                "end_time": 88.90454545454546,
                "pitch": 74,
                "velocity": 80,
                "duration": 0.29772727272727195,
                "tempo": 120.0
            },
            {
                "start_time": 88.90681818181818,
                "end_time": 89.20681818181818,
                "pitch": 74,
                "velocity": 80,
                "duration": 0.29999999999999716,
                "tempo": 120.0
            },
            {
                "start_time": 89.2090909090909,
                "end_time": 89.50681818181818,
                "pitch": 72,
                "velocity": 80,
                "duration": 0.29772727272727195,
                "tempo": 120.0
            },
            {
                "start_time": 89.5090909090909,
                "end_time": 90.11363636363636,
                "pitch": 72,
                "velocity": 80,
                "duration": 0.6045454545454589,
                "tempo": 120.0
            },
            {
                "start_time": 90.11590909090908,
                "end_time": 90.41363636363636,
                "pitch": 70,
                "velocity": 80,
                "duration": 0.29772727272727195,
                "tempo": 120.0
            },
            {
                "start_time": 90.41590909090908,
                "end_time": 91.02045454545454,
                "pitch": 69,
                "velocity": 80,
                "duration": 0.6045454545454589,
                "tempo": 120.0
            },
            {
                "start_time": 91.02272727272727,
                "end_time": 91.9340909090909,
                "pitch": 70,
                "velocity": 80,
                "duration": 0.9113636363636317,
                "tempo": 120.0
            },
            {
                "start_time": 91.93636363636364,
                "end_time": 92.38636363636363,
                "pitch": 68,
                "velocity": 80,
                "duration": 0.44999999999998863,
                "tempo": 120.0
            },
            {
                "start_time": 87.11590909090908,
                "end_time": 92.43636363636364,
                "pitch": 55,
                "velocity": 80,
                "duration": 5.320454545454552,
                "tempo": 120.0
            },
            {
                "start_time": 92.38636363636363,
                "end_time": 92.43636363636364,
                "pitch": 67,
                "velocity": 80,
                "duration": 0.05000000000001137,
                "tempo": 120.0
            },
            {
                "start_time": 92.43636363636364,
                "end_time": 92.55227272727272,
                "pitch": 67,
                "velocity": 80,
                "duration": 0.11590909090908497,
                "tempo": 120.0
            },
            {
                "start_time": 92.38636363636363,
                "end_time": 92.55227272727272,
                "pitch": 79,
                "velocity": 80,
                "duration": 0.16590909090909634,
                "tempo": 120.0
            },
            {
                "start_time": 92.43636363636364,
                "end_time": 92.60227272727272,
                "pitch": 55,
                "velocity": 80,
                "duration": 0.16590909090908212,
                "tempo": 120.0
            },
            {
                "start_time": 92.55227272727272,
                "end_time": 92.60227272727272,
                "pitch": 67,
                "velocity": 80,
                "duration": 0.04999999999999716,
                "tempo": 120.0
            },
            {
                "start_time": 92.60227272727272,
                "end_time": 92.72045454545454,
                "pitch": 67,
                "velocity": 80,
                "duration": 0.11818181818182438,
                "tempo": 120.0
            },
            {
                "start_time": 92.55227272727272,
                "end_time": 92.72045454545454,
                "pitch": 79,
                "velocity": 80,
                "duration": 0.16818181818182154,
                "tempo": 120.0
            },
            {
                "start_time": 92.60227272727272,
                "end_time": 92.77272727272727,
                "pitch": 55,
                "velocity": 80,
                "duration": 0.17045454545454675,
                "tempo": 120.0
            },
            {
                "start_time": 92.72045454545454,
                "end_time": 92.77272727272727,
                "pitch": 67,
                "velocity": 80,
                "duration": 0.052272727272722364,
                "tempo": 120.0
            },
            {
                "start_time": 92.77272727272727,
                "end_time": 92.88863636363637,
                "pitch": 67,
                "velocity": 80,
                "duration": 0.11590909090909918,
                "tempo": 120.0
            },
            {
                "start_time": 92.72045454545454,
                "end_time": 92.89090909090909,
                "pitch": 79,
                "velocity": 80,
                "duration": 0.17045454545454675,
                "tempo": 120.0
            },
            {
                "start_time": 92.88863636363637,
                "end_time": 92.89090909090909,
                "pitch": 79,
                "velocity": 80,
                "duration": 0.0022727272727252057,
                "tempo": 120.0
            },
            {
                "start_time": 92.77272727272727,
                "end_time": 92.94090909090909,
                "pitch": 55,
                "velocity": 80,
                "duration": 0.16818181818182154,
                "tempo": 120.0
            },
            {
                "start_time": 92.89090909090909,
                "end_time": 92.94090909090909,
                "pitch": 67,
                "velocity": 80,
                "duration": 0.04999999999999716,
                "tempo": 120.0
            },
            {
                "start_time": 92.94090909090909,
                "end_time": 93.0590909090909,
                "pitch": 67,
                "velocity": 80,
                "duration": 0.11818181818181017,
                "tempo": 120.0
            },
            {
                "start_time": 92.94090909090909,
                "end_time": 93.10909090909091,
                "pitch": 55,
                "velocity": 80,
                "duration": 0.16818181818182154,
                "tempo": 120.0
            },
            {
                "start_time": 93.0590909090909,
                "end_time": 93.10909090909091,
                "pitch": 67,
                "velocity": 80,
                "duration": 0.05000000000001137,
                "tempo": 120.0
            },
            {
                "start_time": 93.10909090909091,
                "end_time": 93.225,
                "pitch": 67,
                "velocity": 80,
                "duration": 0.11590909090908497,
                "tempo": 120.0
            },
            {
                "start_time": 93.0590909090909,
                "end_time": 93.22727272727272,
                "pitch": 79,
                "velocity": 80,
                "duration": 0.16818181818182154,
                "tempo": 120.0
            },
            {
                "start_time": 93.225,
                "end_time": 93.22727272727272,
                "pitch": 79,
                "velocity": 80,
                "duration": 0.0022727272727252057,
                "tempo": 120.0
            },
            {
                "start_time": 93.22727272727272,
                "end_time": 93.27499999999999,
                "pitch": 67,
                "velocity": 80,
                "duration": 0.04772727272727195,
                "tempo": 120.0
            },
            {
                "start_time": 93.10909090909091,
                "end_time": 93.27727272727272,
                "pitch": 55,
                "velocity": 80,
                "duration": 0.16818181818180733,
                "tempo": 120.0
            },
            {
                "start_time": 93.27499999999999,
                "end_time": 93.27727272727272,
                "pitch": 55,
                "velocity": 80,
                "duration": 0.0022727272727252057,
                "tempo": 120.0
            },
            {
                "start_time": 93.27727272727272,
                "end_time": 93.39318181818182,
                "pitch": 67,
                "velocity": 80,
                "duration": 0.11590909090909918,
                "tempo": 120.0
            },
            {
                "start_time": 93.39318181818182,
                "end_time": 93.44090909090909,
                "pitch": 67,
                "velocity": 80,
                "duration": 0.04772727272727195,
                "tempo": 120.0
            },
            {
                "start_time": 93.44318181818181,
                "end_time": 93.74090909090908,
                "pitch": 67,
                "velocity": 80,
                "duration": 0.29772727272727195,
                "tempo": 120.0
            },
            {
                "start_time": 93.74318181818181,
                "end_time": 94.04318181818181,
                "pitch": 69,
                "velocity": 80,
                "duration": 0.29999999999999716,
                "tempo": 120.0
            },
            {
                "start_time": 94.04545454545455,
                "end_time": 94.34318181818182,
                "pitch": 70,
                "velocity": 80,
                "duration": 0.29772727272727195,
                "tempo": 120.0
            },
            {
                "start_time": 94.34545454545454,
                "end_time": 95.25,
                "pitch": 72,
                "velocity": 80,
                "duration": 0.9045454545454561,
                "tempo": 120.0
            },
            {
                "start_time": 95.25227272727273,
                "end_time": 96.7590909090909,
                "pitch": 74,
                "velocity": 80,
                "duration": 1.5068181818181756,
                "tempo": 120.0
            },
            {
                "start_time": 96.76136363636363,
                "end_time": 97.0590909090909,
                "pitch": 74,
                "velocity": 80,
                "duration": 0.29772727272727195,
                "tempo": 120.0
            },
            {
                "start_time": 97.06136363636364,
                "end_time": 97.35909090909091,
                "pitch": 72,
                "velocity": 80,
                "duration": 0.29772727272727195,
                "tempo": 120.0
            },
            {
                "start_time": 97.36136363636363,
                "end_time": 97.66136363636363,
                "pitch": 70,
                "velocity": 80,
                "duration": 0.29999999999999716,
                "tempo": 120.0
            },
            {
                "start_time": 97.66363636363636,
                "end_time": 98.13636363636363,
                "pitch": 68,
                "velocity": 80,
                "duration": 0.4727272727272691,
                "tempo": 120.0
            },
            {
                "start_time": 93.39318181818182,
                "end_time": 98.13636363636363,
                "pitch": 79,
                "velocity": 80,
                "duration": 4.74318181818181,
                "tempo": 120.0
            },
            {
                "start_time": 98.13636363636363,
                "end_time": 98.18863636363636,
                "pitch": 67,
                "velocity": 80,
                "duration": 0.052272727272736574,
                "tempo": 120.0
            },
            {
                "start_time": 98.18863636363636,
                "end_time": 98.30681818181817,
                "pitch": 67,
                "velocity": 80,
                "duration": 0.11818181818181017,
                "tempo": 120.0
            },
            {
                "start_time": 98.13636363636363,
                "end_time": 98.30681818181817,
                "pitch": 79,
                "velocity": 80,
                "duration": 0.17045454545454675,
                "tempo": 120.0
            },
            {
                "start_time": 98.18863636363636,
                "end_time": 98.35909090909091,
                "pitch": 55,
                "velocity": 80,
                "duration": 0.17045454545454675,
                "tempo": 120.0
            },
            {
                "start_time": 98.30681818181817,
                "end_time": 98.35909090909091,
                "pitch": 67,
                "velocity": 80,
                "duration": 0.052272727272736574,
                "tempo": 120.0
            },
            {
                "start_time": 98.35909090909091,
                "end_time": 98.47727272727272,
                "pitch": 67,
                "velocity": 80,
                "duration": 0.11818181818181017,
                "tempo": 120.0
            },
            {
                "start_time": 98.30681818181817,
                "end_time": 98.47727272727272,
                "pitch": 79,
                "velocity": 80,
                "duration": 0.17045454545454675,
                "tempo": 120.0
            },
            {
                "start_time": 98.35909090909091,
                "end_time": 98.52954545454546,
                "pitch": 55,
                "velocity": 80,
                "duration": 0.17045454545454675,
                "tempo": 120.0
            },
            {
                "start_time": 98.47727272727272,
                "end_time": 98.52954545454546,
                "pitch": 67,
                "velocity": 80,
                "duration": 0.052272727272736574,
                "tempo": 120.0
            },
            {
                "start_time": 98.52954545454546,
                "end_time": 98.57954545454545,
                "pitch": 67,
                "velocity": 80,
                "duration": 0.04999999999999716,
                "tempo": 120.0
            },
            {
                "start_time": 98.57954545454545,
                "end_time": 99.17954545454545,
                "pitch": 69,
                "velocity": 80,
                "duration": 0.5999999999999943,
                "tempo": 120.0
            },
            {
                "start_time": 99.18181818181817,
                "end_time": 99.19772727272726,
                "pitch": 67,
                "velocity": 80,
                "duration": 0.01590909090909065,
                "tempo": 120.0
            },
            {
                "start_time": 83.18636363636364,
                "end_time": 99.19772727272726,
                "pitch": 78,
                "velocity": 80,
                "duration": 16.011363636363626,
                "tempo": 120.0
            },
            {
                "start_time": 99.19772727272726,
                "end_time": 101.59545454545454,
                "pitch": 66,
                "velocity": 80,
                "duration": 2.3977272727272805,
                "tempo": 120.0
            },
            {
                "start_time": 101.59545454545454,
                "end_time": 101.60227272727272,
                "pitch": 65,
                "velocity": 80,
                "duration": 0.006818181818175617,
                "tempo": 120.0
            }
        ],
        "Clarinet": [
            {
                "start_time": 0.006818181818181818,
                "end_time": 0.3,
                "pitch": 69,
                "velocity": 51,
                "duration": 0.29318181818181815,
                "tempo": 120.0
            },
            {
                "start_time": 0.30227272727272725,
                "end_time": 0.6,
                "pitch": 70,
                "velocity": 51,
                "duration": 0.29772727272727273,
                "tempo": 120.0
            },
            {
                "start_time": 0.6022727272727273,
                "end_time": 0.8931818181818182,
                "pitch": 69,
                "velocity": 51,
                "duration": 0.2909090909090909,
                "tempo": 120.0
            },
            {
                "start_time": 0.8931818181818182,
                "end_time": 1.2704545454545455,
                "pitch": 67,
                "velocity": 51,
                "duration": 0.3772727272727273,
                "tempo": 120.0
            },
            {
                "start_time": 1.2704545454545455,
                "end_time": 1.2863636363636364,
                "pitch": 67,
                "velocity": 51,
                "duration": 0.015909090909090873,
                "tempo": 120.0
            },
            {
                "start_time": 1.2863636363636364,
                "end_time": 1.4068181818181817,
                "pitch": 67,
                "velocity": 51,
                "duration": 0.12045454545454537,
                "tempo": 120.0
            },
            {
                "start_time": 1.2704545454545455,
                "end_time": 1.4068181818181817,
                "pitch": 79,
                "velocity": 51,
                "duration": 0.13636363636363624,
                "tempo": 120.0
            },
            {
                "start_time": 1.2863636363636364,
                "end_time": 1.4568181818181818,
                "pitch": 55,
                "velocity": 51,
                "duration": 0.17045454545454541,
                "tempo": 120.0
            },
            {
                "start_time": 1.4068181818181817,
                "end_time": 1.4568181818181818,
                "pitch": 67,
                "velocity": 51,
                "duration": 0.050000000000000044,
                "tempo": 120.0
            },
            {
                "start_time": 1.4568181818181818,
                "end_time": 1.5772727272727272,
                "pitch": 67,
                "velocity": 51,
                "duration": 0.12045454545454537,
                "tempo": 120.0
            },
            {
                "start_time": 1.4068181818181817,
                "end_time": 1.5772727272727272,
                "pitch": 79,
                "velocity": 51,
                "duration": 0.17045454545454541,
                "tempo": 120.0
            },
            {
                "start_time": 1.4568181818181818,
                "end_time": 1.6272727272727272,
                "pitch": 55,
                "velocity": 51,
                "duration": 0.17045454545454541,
                "tempo": 120.0
            },
            {
                "start_time": 1.5772727272727272,
                "end_time": 1.6272727272727272,
                "pitch": 67,
                "velocity": 51,
                "duration": 0.050000000000000044,
                "tempo": 120.0
            },
            {
                "start_time": 1.6272727272727272,
                "end_time": 1.7477272727272726,
                "pitch": 67,
                "velocity": 51,
                "duration": 0.12045454545454537,
                "tempo": 120.0
            },
            {
                "start_time": 1.5772727272727272,
                "end_time": 1.7477272727272726,
                "pitch": 79,
                "velocity": 51,
                "duration": 0.17045454545454541,
                "tempo": 120.0
            },
            {
                "start_time": 1.6272727272727272,
                "end_time": 1.7977272727272726,
                "pitch": 55,
                "velocity": 51,
                "duration": 0.17045454545454541,
                "tempo": 120.0
            },
            {
                "start_time": 1.7477272727272726,
                "end_time": 1.7977272727272726,
                "pitch": 67,
                "velocity": 51,
                "duration": 0.050000000000000044,
                "tempo": 120.0
            },
            {
                "start_time": 1.7977272727272726,
                "end_time": 1.9159090909090908,
                "pitch": 67,
                "velocity": 51,
                "duration": 0.11818181818181817,
                "tempo": 120.0
            },
            {
                "start_time": 1.7477272727272726,
                "end_time": 1.9159090909090908,
                "pitch": 79,
                "velocity": 51,
                "duration": 0.1681818181818182,
                "tempo": 120.0
            },
            {
                "start_time": 1.7977272727272726,
                "end_time": 1.9659090909090908,
                "pitch": 55,
                "velocity": 51,
                "duration": 0.1681818181818182,
                "tempo": 120.0
            },
            {
                "start_time": 1.9159090909090908,
                "end_time": 1.9659090909090908,
                "pitch": 67,
                "velocity": 51,
                "duration": 0.050000000000000044,
                "tempo": 120.0
            },
            {
                "start_time": 1.9659090909090908,
                "end_time": 2.084090909090909,
                "pitch": 67,
                "velocity": 51,
                "duration": 0.11818181818181817,
                "tempo": 120.0
            },
            {
                "start_time": 1.9159090909090908,
                "end_time": 2.084090909090909,
                "pitch": 79,
                "velocity": 51,
                "duration": 0.1681818181818182,
                "tempo": 120.0
            },
            {
                "start_time": 2.084090909090909,
                "end_time": 2.134090909090909,
                "pitch": 67,
                "velocity": 51,
                "duration": 0.04999999999999982,
                "tempo": 120.0
            },
            {
                "start_time": 1.9659090909090908,
                "end_time": 2.1363636363636362,
                "pitch": 55,
                "velocity": 51,
                "duration": 0.17045454545454541,
                "tempo": 120.0
            },
            {
                "start_time": 2.134090909090909,
                "end_time": 2.1363636363636362,
                "pitch": 55,
                "velocity": 51,
                "duration": 0.002272727272727426,
                "tempo": 120.0
            },
            {
                "start_time": 2.1363636363636362,
                "end_time": 2.252272727272727,
                "pitch": 67,
                "velocity": 51,
                "duration": 0.11590909090909074,
                "tempo": 120.0
            },
            {
                "start_time": 2.084090909090909,
                "end_time": 2.252272727272727,
                "pitch": 79,
                "velocity": 51,
                "duration": 0.168181818181818,
                "tempo": 120.0
            },
            {
                "start_time": 2.252272727272727,
                "end_time": 2.3045454545454542,
                "pitch": 67,
                "velocity": 51,
                "duration": 0.05227272727272725,
                "tempo": 120.0
            },
            {
                "start_time": 2.3045454545454542,
                "end_time": 2.4045454545454543,
                "pitch": 67,
                "velocity": 51,
                "duration": 0.10000000000000009,
                "tempo": 120.0
            },
            {
                "start_time": 2.4068181818181817,
                "end_time": 2.793181818181818,
                "pitch": 67,
                "velocity": 51,
                "duration": 0.38636363636363624,
                "tempo": 120.0
            },
            {
                "start_time": 2.252272727272727,
                "end_time": 2.793181818181818,
                "pitch": 79,
                "velocity": 51,
                "duration": 0.540909090909091,
                "tempo": 120.0
            },
            {
                "start_time": 2.3045454545454542,
                "end_time": 2.827272727272727,
                "pitch": 55,
                "velocity": 51,
                "duration": 0.5227272727272729,
                "tempo": 120.0
            },
            {
                "start_time": 2.793181818181818,
                "end_time": 2.827272727272727,
                "pitch": 67,
                "velocity": 51,
                "duration": 0.03409090909090917,
                "tempo": 120.0
            },
            {
                "start_time": 2.827272727272727,
                "end_time": 2.943181818181818,
                "pitch": 67,
                "velocity": 51,
                "duration": 0.11590909090909074,
                "tempo": 120.0
            },
            {
                "start_time": 2.793181818181818,
                "end_time": 2.9454545454545453,
                "pitch": 79,
                "velocity": 51,
                "duration": 0.15227272727272734,
                "tempo": 120.0
            },
            {
                "start_time": 2.943181818181818,
                "end_time": 2.9454545454545453,
                "pitch": 79,
                "velocity": 51,
                "duration": 0.002272727272727426,
                "tempo": 120.0
            },
            {
                "start_time": 2.827272727272727,
                "end_time": 2.995454545454545,
                "pitch": 55,
                "velocity": 51,
                "duration": 0.168181818181818,
                "tempo": 120.0
            },
            {
                "start_time": 2.9454545454545453,
                "end_time": 2.995454545454545,
                "pitch": 67,
                "velocity": 51,
                "duration": 0.04999999999999982,
                "tempo": 120.0
            },
            {
                "start_time": 2.995454545454545,
                "end_time": 3.1113636363636363,
                "pitch": 67,
                "velocity": 51,
                "duration": 0.11590909090909118,
                "tempo": 120.0
            },
            {
                "start_time": 3.1113636363636363,
                "end_time": 3.1590909090909087,
                "pitch": 67,
                "velocity": 51,
                "duration": 0.047727272727272396,
                "tempo": 120.0
            },
            {
                "start_time": 2.995454545454545,
                "end_time": 3.161363636363636,
                "pitch": 55,
                "velocity": 51,
                "duration": 0.165909090909091,
                "tempo": 120.0
            },
            {
                "start_time": 3.1590909090909087,
                "end_time": 3.161363636363636,
                "pitch": 55,
                "velocity": 51,
                "duration": 0.002272727272727426,
                "tempo": 120.0
            },
            {
                "start_time": 3.161363636363636,
                "end_time": 3.275,
                "pitch": 67,
                "velocity": 51,
                "duration": 0.11363636363636376,
                "tempo": 120.0
            },
            {
                "start_time": 3.1113636363636363,
                "end_time": 3.275,
                "pitch": 79,
                "velocity": 51,
                "duration": 0.16363636363636358,
                "tempo": 120.0
            },
            {
                "start_time": 3.275,
                "end_time": 3.309090909090909,
                "pitch": 67,
                "velocity": 51,
                "duration": 0.03409090909090917,
                "tempo": 120.0
            },
            {
                "start_time": 3.309090909090909,
                "end_time": 4.831818181818182,
                "pitch": 65,
                "velocity": 51,
                "duration": 1.522727272727273,
                "tempo": 120.0
            },
            {
                "start_time": 4.834090909090909,
                "end_time": 5.129545454545454,
                "pitch": 69,
                "velocity": 51,
                "duration": 0.29545454545454497,
                "tempo": 120.0
            },
            {
                "start_time": 5.129545454545454,
                "end_time": 5.425,
                "pitch": 70,
                "velocity": 51,
                "duration": 0.29545454545454586,
                "tempo": 120.0
            },
            {
                "start_time": 5.427272727272727,
                "end_time": 5.7318181818181815,
                "pitch": 69,
                "velocity": 51,
                "duration": 0.3045454545454547,
                "tempo": 120.0
            },
            {
                "start_time": 5.7340909090909085,
                "end_time": 6.172727272727273,
                "pitch": 67,
                "velocity": 51,
                "duration": 0.4386363636363644,
                "tempo": 120.0
            },
            {
                "start_time": 3.275,
                "end_time": 6.172727272727273,
                "pitch": 79,
                "velocity": 51,
                "duration": 2.897727272727273,
                "tempo": 120.0
            },
            {
                "start_time": 6.172727272727273,
                "end_time": 6.222727272727273,
                "pitch": 67,
                "velocity": 51,
                "duration": 0.04999999999999982,
                "tempo": 120.0
            },
            {
                "start_time": 6.222727272727273,
                "end_time": 6.340909090909091,
                "pitch": 67,
                "velocity": 51,
                "duration": 0.11818181818181817,
                "tempo": 120.0
            },
            {
                "start_time": 6.172727272727273,
                "end_time": 6.340909090909091,
                "pitch": 79,
                "velocity": 51,
                "duration": 0.168181818181818,
                "tempo": 120.0
            },
            {
                "start_time": 6.222727272727273,
                "end_time": 6.390909090909091,
                "pitch": 55,
                "velocity": 51,
                "duration": 0.168181818181818,
                "tempo": 120.0
            },
            {
                "start_time": 6.340909090909091,
                "end_time": 6.390909090909091,
                "pitch": 67,
                "velocity": 51,
                "duration": 0.04999999999999982,
                "tempo": 120.0
            },
            {
                "start_time": 6.390909090909091,
                "end_time": 6.506818181818182,
                "pitch": 67,
                "velocity": 51,
                "duration": 0.11590909090909118,
                "tempo": 120.0
            },
            {
                "start_time": 6.340909090909091,
                "end_time": 6.506818181818182,
                "pitch": 79,
                "velocity": 51,
                "duration": 0.165909090909091,
                "tempo": 120.0
            },
            {
                "start_time": 6.390909090909091,
                "end_time": 6.556818181818182,
                "pitch": 55,
                "velocity": 51,
                "duration": 0.165909090909091,
                "tempo": 120.0
            },
            {
                "start_time": 6.506818181818182,
                "end_time": 6.556818181818182,
                "pitch": 67,
                "velocity": 51,
                "duration": 0.04999999999999982,
                "tempo": 120.0
            },
            {
                "start_time": 6.556818181818182,
                "end_time": 6.640909090909091,
                "pitch": 67,
                "velocity": 51,
                "duration": 0.084090909090909,
                "tempo": 120.0
            },
            {
                "start_time": 6.640909090909091,
                "end_time": 7.247727272727272,
                "pitch": 72,
                "velocity": 51,
                "duration": 0.6068181818181815,
                "tempo": 120.0
            },
            {
                "start_time": 7.247727272727272,
                "end_time": 7.715909090909091,
                "pitch": 67,
                "velocity": 51,
                "duration": 0.4681818181818187,
                "tempo": 120.0
            },
            {
                "start_time": 6.506818181818182,
                "end_time": 7.715909090909091,
                "pitch": 79,
                "velocity": 51,
                "duration": 1.209090909090909,
                "tempo": 120.0
            },
            {
                "start_time": 6.556818181818182,
                "end_time": 7.765909090909091,
                "pitch": 55,
                "velocity": 51,
                "duration": 1.209090909090909,
                "tempo": 120.0
            },
            {
                "start_time": 7.715909090909091,
                "end_time": 7.765909090909091,
                "pitch": 67,
                "velocity": 51,
                "duration": 0.04999999999999982,
                "tempo": 120.0
            },
            {
                "start_time": 7.765909090909091,
                "end_time": 7.881818181818182,
                "pitch": 67,
                "velocity": 51,
                "duration": 0.11590909090909118,
                "tempo": 120.0
            },
            {
                "start_time": 7.715909090909091,
                "end_time": 7.881818181818182,
                "pitch": 79,
                "velocity": 51,
                "duration": 0.165909090909091,
                "tempo": 120.0
            },
            {
                "start_time": 7.765909090909091,
                "end_time": 7.931818181818182,
                "pitch": 55,
                "velocity": 51,
                "duration": 0.165909090909091,
                "tempo": 120.0
            },
            {
                "start_time": 7.881818181818182,
                "end_time": 7.931818181818182,
                "pitch": 67,
                "velocity": 51,
                "duration": 0.04999999999999982,
                "tempo": 120.0
            },
            {
                "start_time": 7.931818181818182,
                "end_time": 8.049999999999999,
                "pitch": 67,
                "velocity": 51,
                "duration": 0.11818181818181728,
                "tempo": 120.0
            },
            {
                "start_time": 7.881818181818182,
                "end_time": 8.049999999999999,
                "pitch": 79,
                "velocity": 51,
                "duration": 0.1681818181818171,
                "tempo": 120.0
            },
            {
                "start_time": 7.931818181818182,
                "end_time": 8.102272727272727,
                "pitch": 55,
                "velocity": 51,
                "duration": 0.17045454545454497,
                "tempo": 120.0
            },
            {
                "start_time": 8.049999999999999,
                "end_time": 8.102272727272727,
                "pitch": 67,
                "velocity": 51,
                "duration": 0.05227272727272769,
                "tempo": 120.0
            },
            {
                "start_time": 8.102272727272727,
                "end_time": 8.152272727272727,
                "pitch": 67,
                "velocity": 51,
                "duration": 0.05000000000000071,
                "tempo": 120.0
            },
            {
                "start_time": 8.152272727272727,
                "end_time": 9.656818181818181,
                "pitch": 65,
                "velocity": 51,
                "duration": 1.504545454545454,
                "tempo": 120.0
            },
            {
                "start_time": 9.656818181818181,
                "end_time": 9.956818181818182,
                "pitch": 65,
                "velocity": 51,
                "duration": 0.3000000000000007,
                "tempo": 120.0
            },
            {
                "start_time": 9.956818181818182,
                "end_time": 10.256818181818181,
                "pitch": 62,
                "velocity": 51,
                "duration": 0.29999999999999893,
                "tempo": 120.0
            },
            {
                "start_time": 10.259090909090908,
                "end_time": 10.563636363636363,
                "pitch": 64,
                "velocity": 51,
                "duration": 0.3045454545454547,
                "tempo": 120.0
            },
            {
                "start_time": 10.56590909090909,
                "end_time": 10.954545454545453,
                "pitch": 67,
                "velocity": 51,
                "duration": 0.38863636363636367,
                "tempo": 120.0
            },
            {
                "start_time": 8.049999999999999,
                "end_time": 10.954545454545453,
                "pitch": 79,
                "velocity": 51,
                "duration": 2.9045454545454543,
                "tempo": 120.0
            },
            {
                "start_time": 10.954545454545453,
                "end_time": 10.986363636363636,
                "pitch": 67,
                "velocity": 51,
                "duration": 0.03181818181818308,
                "tempo": 120.0
            },
            {
                "start_time": 8.102272727272727,
                "end_time": 10.988636363636363,
                "pitch": 55,
                "velocity": 51,
                "duration": 2.8863636363636367,
                "tempo": 120.0
            },
            {
                "start_time": 10.986363636363636,
                "end_time": 10.988636363636363,
                "pitch": 55,
                "velocity": 51,
                "duration": 0.002272727272726982,
                "tempo": 120.0
            },
            {
                "start_time": 10.988636363636363,
                "end_time": 11.104545454545454,
                "pitch": 67,
                "velocity": 51,
                "duration": 0.1159090909090903,
                "tempo": 120.0
            },
            {
                "start_time": 10.954545454545453,
                "end_time": 11.104545454545454,
                "pitch": 79,
                "velocity": 51,
                "duration": 0.15000000000000036,
                "tempo": 120.0
            },
            {
                "start_time": 11.104545454545454,
                "end_time": 11.154545454545454,
                "pitch": 67,
                "velocity": 51,
                "duration": 0.05000000000000071,
                "tempo": 120.0
            },
            {
                "start_time": 11.154545454545454,
                "end_time": 11.270454545454545,
                "pitch": 67,
                "velocity": 51,
                "duration": 0.1159090909090903,
                "tempo": 120.0
            },
            {
                "start_time": 11.104545454545454,
                "end_time": 11.270454545454545,
                "pitch": 79,
                "velocity": 51,
                "duration": 0.165909090909091,
                "tempo": 120.0
            },
            {
                "start_time": 11.154545454545454,
                "end_time": 11.320454545454545,
                "pitch": 55,
                "velocity": 51,
                "duration": 0.165909090909091,
                "tempo": 120.0
            },
            {
                "start_time": 11.270454545454545,
                "end_time": 11.320454545454545,
                "pitch": 67,
                "velocity": 51,
                "duration": 0.05000000000000071,
                "tempo": 120.0
            },
            {
                "start_time": 11.320454545454545,
                "end_time": 11.438636363636363,
                "pitch": 67,
                "velocity": 51,
                "duration": 0.11818181818181728,
                "tempo": 120.0
            },
            {
                "start_time": 11.270454545454545,
                "end_time": 11.438636363636363,
                "pitch": 79,
                "velocity": 51,
                "duration": 0.168181818181818,
                "tempo": 120.0
            },
            {
                "start_time": 11.438636363636363,
                "end_time": 11.470454545454546,
                "pitch": 67,
                "velocity": 51,
                "duration": 0.03181818181818308,
                "tempo": 120.0
            },
            {
                "start_time": 11.472727272727273,
                "end_time": 12.070454545454545,
                "pitch": 72,
                "velocity": 51,
                "duration": 0.5977272727272727,
                "tempo": 120.0
            },
            {
                "start_time": 12.072727272727272,
                "end_time": 12.468181818181817,
                "pitch": 67,
                "velocity": 51,
                "duration": 0.3954545454545446,
                "tempo": 120.0
            },
            {
                "start_time": 11.438636363636363,
                "end_time": 12.468181818181817,
                "pitch": 79,
                "velocity": 51,
                "duration": 1.0295454545454543,
                "tempo": 120.0
            },
            {
                "start_time": 11.320454545454545,
                "end_time": 12.518181818181818,
                "pitch": 55,
                "velocity": 51,
                "duration": 1.1977272727272723,
                "tempo": 120.0
            },
            {
                "start_time": 12.468181818181817,
                "end_time": 12.518181818181818,
                "pitch": 67,
                "velocity": 51,
                "duration": 0.05000000000000071,
                "tempo": 120.0
            },
            {
                "start_time": 12.518181818181818,
                "end_time": 12.634090909090908,
                "pitch": 67,
                "velocity": 51,
                "duration": 0.1159090909090903,
                "tempo": 120.0
            },
            {
                "start_time": 12.468181818181817,
                "end_time": 12.634090909090908,
                "pitch": 79,
                "velocity": 51,
                "duration": 0.165909090909091,
                "tempo": 120.0
            },
            {
                "start_time": 12.518181818181818,
                "end_time": 12.684090909090909,
                "pitch": 55,
                "velocity": 51,
                "duration": 0.165909090909091,
                "tempo": 120.0
            },
            {
                "start_time": 12.634090909090908,
                "end_time": 12.684090909090909,
                "pitch": 67,
                "velocity": 51,
                "duration": 0.05000000000000071,
                "tempo": 120.0
            },
            {
                "start_time": 12.684090909090909,
                "end_time": 12.799999999999999,
                "pitch": 67,
                "velocity": 51,
                "duration": 0.1159090909090903,
                "tempo": 120.0
            },
            {
                "start_time": 12.634090909090908,
                "end_time": 12.799999999999999,
                "pitch": 79,
                "velocity": 51,
                "duration": 0.165909090909091,
                "tempo": 120.0
            },
            {
                "start_time": 12.684090909090909,
                "end_time": 12.85,
                "pitch": 55,
                "velocity": 51,
                "duration": 0.165909090909091,
                "tempo": 120.0
            },
            {
                "start_time": 12.799999999999999,
                "end_time": 12.85,
                "pitch": 67,
                "velocity": 51,
                "duration": 0.05000000000000071,
                "tempo": 120.0
            },
            {
                "start_time": 12.85,
                "end_time": 12.96590909090909,
                "pitch": 67,
                "velocity": 51,
                "duration": 0.1159090909090903,
                "tempo": 120.0
            },
            {
                "start_time": 12.968181818181817,
                "end_time": 13.879545454545454,
                "pitch": 69,
                "velocity": 51,
                "duration": 0.911363636363637,
                "tempo": 120.0
            },
            {
                "start_time": 13.881818181818181,
                "end_time": 14.48181818181818,
                "pitch": 65,
                "velocity": 51,
                "duration": 0.5999999999999996,
                "tempo": 120.0
            },
            {
                "start_time": 14.48181818181818,
                "end_time": 15.681818181818182,
                "pitch": 69,
                "velocity": 51,
                "duration": 1.200000000000001,
                "tempo": 120.0
            },
            {
                "start_time": 15.684090909090909,
                "end_time": 15.986363636363636,
                "pitch": 72,
                "velocity": 51,
                "duration": 0.3022727272727277,
                "tempo": 120.0
            },
            {
                "start_time": 15.986363636363636,
                "end_time": 16.288636363636364,
                "pitch": 70,
                "velocity": 51,
                "duration": 0.3022727272727277,
                "tempo": 120.0
            },
            {
                "start_time": 16.29090909090909,
                "end_time": 16.58863636363636,
                "pitch": 65,
                "velocity": 51,
                "duration": 0.29772727272727195,
                "tempo": 120.0
            },
            {
                "start_time": 16.59090909090909,
                "end_time": 16.89090909090909,
                "pitch": 62,
                "velocity": 51,
                "duration": 0.3000000000000007,
                "tempo": 120.0
            },
            {
                "start_time": 16.89090909090909,
                "end_time": 19.004545454545454,
                "pitch": 65,
                "velocity": 51,
                "duration": 2.1136363636363633,
                "tempo": 120.0
            },
            {
                "start_time": 19.00681818181818,
                "end_time": 19.425,
                "pitch": 67,
                "velocity": 51,
                "duration": 0.41818181818182154,
                "tempo": 120.0
            },
            {
                "start_time": 12.799999999999999,
                "end_time": 19.425,
                "pitch": 79,
                "velocity": 51,
                "duration": 6.625000000000002,
                "tempo": 120.0
            },
            {
                "start_time": 12.85,
                "end_time": 19.474999999999998,
                "pitch": 55,
                "velocity": 51,
                "duration": 6.624999999999998,
                "tempo": 120.0
            },
            {
                "start_time": 19.425,
                "end_time": 19.474999999999998,
                "pitch": 67,
                "velocity": 51,
                "duration": 0.04999999999999716,
                "tempo": 120.0
            },
            {
                "start_time": 19.474999999999998,
                "end_time": 19.59318181818182,
                "pitch": 67,
                "velocity": 51,
                "duration": 0.11818181818182083,
                "tempo": 120.0
            },
            {
                "start_time": 19.425,
                "end_time": 19.59318181818182,
                "pitch": 79,
                "velocity": 51,
                "duration": 0.168181818181818,
                "tempo": 120.0
            },
            {
                "start_time": 19.474999999999998,
                "end_time": 19.643181818181816,
                "pitch": 55,
                "velocity": 51,
                "duration": 0.168181818181818,
                "tempo": 120.0
            },
            {
                "start_time": 19.59318181818182,
                "end_time": 19.643181818181816,
                "pitch": 67,
                "velocity": 51,
                "duration": 0.04999999999999716,
                "tempo": 120.0
            },
            {
                "start_time": 19.643181818181816,
                "end_time": 19.761363636363637,
                "pitch": 67,
                "velocity": 51,
                "duration": 0.11818181818182083,
                "tempo": 120.0
            },
            {
                "start_time": 19.59318181818182,
                "end_time": 19.761363636363637,
                "pitch": 79,
                "velocity": 51,
                "duration": 0.168181818181818,
                "tempo": 120.0
            },
            {
                "start_time": 19.643181818181816,
                "end_time": 19.811363636363634,
                "pitch": 55,
                "velocity": 51,
                "duration": 0.168181818181818,
                "tempo": 120.0
            },
            {
                "start_time": 19.761363636363637,
                "end_time": 19.811363636363634,
                "pitch": 67,
                "velocity": 51,
                "duration": 0.04999999999999716,
                "tempo": 120.0
            },
            {
                "start_time": 19.811363636363634,
                "end_time": 19.929545454545455,
                "pitch": 67,
                "velocity": 51,
                "duration": 0.11818181818182083,
                "tempo": 120.0
            },
            {
                "start_time": 19.761363636363637,
                "end_time": 19.929545454545455,
                "pitch": 79,
                "velocity": 51,
                "duration": 0.168181818181818,
                "tempo": 120.0
            },
            {
                "start_time": 19.811363636363634,
                "end_time": 19.979545454545452,
                "pitch": 55,
                "velocity": 51,
                "duration": 0.168181818181818,
                "tempo": 120.0
            },
            {
                "start_time": 19.929545454545455,
                "end_time": 19.979545454545452,
                "pitch": 67,
                "velocity": 51,
                "duration": 0.04999999999999716,
                "tempo": 120.0
            },
            {
                "start_time": 19.979545454545452,
                "end_time": 20.095454545454544,
                "pitch": 67,
                "velocity": 51,
                "duration": 0.11590909090909207,
                "tempo": 120.0
            },
            {
                "start_time": 19.929545454545455,
                "end_time": 20.095454545454544,
                "pitch": 79,
                "velocity": 51,
                "duration": 0.16590909090908923,
                "tempo": 120.0
            },
            {
                "start_time": 19.979545454545452,
                "end_time": 20.145454545454545,
                "pitch": 55,
                "velocity": 51,
                "duration": 0.16590909090909278,
                "tempo": 120.0
            },
            {
                "start_time": 20.095454545454544,
                "end_time": 20.145454545454545,
                "pitch": 67,
                "velocity": 51,
                "duration": 0.05000000000000071,
                "tempo": 120.0
            },
            {
                "start_time": 20.145454545454545,
                "end_time": 20.263636363636362,
                "pitch": 67,
                "velocity": 51,
                "duration": 0.11818181818181728,
                "tempo": 120.0
            },
            {
                "start_time": 20.095454545454544,
                "end_time": 20.263636363636362,
                "pitch": 79,
                "velocity": 51,
                "duration": 0.168181818181818,
                "tempo": 120.0
            },
            {
                "start_time": 20.145454545454545,
                "end_time": 20.313636363636363,
                "pitch": 55,
                "velocity": 51,
                "duration": 0.168181818181818,
                "tempo": 120.0
            },
            {
                "start_time": 20.263636363636362,
                "end_time": 20.313636363636363,
                "pitch": 67,
                "velocity": 51,
                "duration": 0.05000000000000071,
                "tempo": 120.0
            },
            {
                "start_time": 20.313636363636363,
                "end_time": 20.429545454545455,
                "pitch": 67,
                "velocity": 51,
                "duration": 0.11590909090909207,
                "tempo": 120.0
            },
            {
                "start_time": 20.263636363636362,
                "end_time": 20.429545454545455,
                "pitch": 79,
                "velocity": 51,
                "duration": 0.16590909090909278,
                "tempo": 120.0
            },
            {
                "start_time": 20.313636363636363,
                "end_time": 20.479545454545452,
                "pitch": 55,
                "velocity": 51,
                "duration": 0.16590909090908923,
                "tempo": 120.0
            },
            {
                "start_time": 20.429545454545455,
                "end_time": 20.479545454545452,
                "pitch": 67,
                "velocity": 51,
                "duration": 0.04999999999999716,
                "tempo": 120.0
            },
            {
                "start_time": 20.479545454545452,
                "end_time": 20.597727272727273,
                "pitch": 67,
                "velocity": 51,
                "duration": 0.11818181818182083,
                "tempo": 120.0
            },
            {
                "start_time": 20.429545454545455,
                "end_time": 20.597727272727273,
                "pitch": 79,
                "velocity": 51,
                "duration": 0.168181818181818,
                "tempo": 120.0
            },
            {
                "start_time": 20.479545454545452,
                "end_time": 20.65,
                "pitch": 55,
                "velocity": 51,
                "duration": 0.17045454545454675,
                "tempo": 120.0
            },
            {
                "start_time": 20.597727272727273,
                "end_time": 20.65,
                "pitch": 67,
                "velocity": 51,
                "duration": 0.052272727272725916,
                "tempo": 120.0
            },
            {
                "start_time": 20.65,
                "end_time": 20.768181818181816,
                "pitch": 67,
                "velocity": 51,
                "duration": 0.11818181818181728,
                "tempo": 120.0
            },
            {
                "start_time": 20.597727272727273,
                "end_time": 20.768181818181816,
                "pitch": 79,
                "velocity": 51,
                "duration": 0.1704545454545432,
                "tempo": 120.0
            },
            {
                "start_time": 20.65,
                "end_time": 20.820454545454545,
                "pitch": 55,
                "velocity": 51,
                "duration": 0.17045454545454675,
                "tempo": 120.0
            },
            {
                "start_time": 20.768181818181816,
                "end_time": 20.820454545454545,
                "pitch": 67,
                "velocity": 51,
                "duration": 0.05227272727272947,
                "tempo": 120.0
            },
            {
                "start_time": 20.820454545454545,
                "end_time": 20.938636363636363,
                "pitch": 67,
                "velocity": 51,
                "duration": 0.11818181818181728,
                "tempo": 120.0
            },
            {
                "start_time": 20.768181818181816,
                "end_time": 20.938636363636363,
                "pitch": 79,
                "velocity": 51,
                "duration": 0.17045454545454675,
                "tempo": 120.0
            },
            {
                "start_time": 20.820454545454545,
                "end_time": 20.99090909090909,
                "pitch": 55,
                "velocity": 51,
                "duration": 0.1704545454545432,
                "tempo": 120.0
            },
            {
                "start_time": 20.938636363636363,
                "end_time": 20.99090909090909,
                "pitch": 67,
                "velocity": 51,
                "duration": 0.052272727272725916,
                "tempo": 120.0
            },
            {
                "start_time": 20.99090909090909,
                "end_time": 21.10909090909091,
                "pitch": 67,
                "velocity": 51,
                "duration": 0.11818181818182083,
                "tempo": 120.0
            },
            {
                "start_time": 20.938636363636363,
                "end_time": 21.10909090909091,
                "pitch": 79,
                "velocity": 51,
                "duration": 0.17045454545454675,
                "tempo": 120.0
            },
            {
                "start_time": 20.99090909090909,
                "end_time": 21.159090909090907,
                "pitch": 55,
                "velocity": 51,
                "duration": 0.168181818181818,
                "tempo": 120.0
            },
            {
                "start_time": 21.10909090909091,
                "end_time": 21.159090909090907,
                "pitch": 67,
                "velocity": 51,
                "duration": 0.04999999999999716,
                "tempo": 120.0
            },
            {
                "start_time": 21.159090909090907,
                "end_time": 21.277272727272727,
                "pitch": 67,
                "velocity": 51,
                "duration": 0.11818181818182083,
                "tempo": 120.0
            },
            {
                "start_time": 21.10909090909091,
                "end_time": 21.277272727272727,
                "pitch": 79,
                "velocity": 51,
                "duration": 0.168181818181818,
                "tempo": 120.0
            },
            {
                "start_time": 21.159090909090907,
                "end_time": 21.327272727272724,
                "pitch": 55,
                "velocity": 51,
                "duration": 0.168181818181818,
                "tempo": 120.0
            },
            {
                "start_time": 21.277272727272727,
                "end_time": 21.327272727272724,
                "pitch": 67,
                "velocity": 51,
                "duration": 0.04999999999999716,
                "tempo": 120.0
            },
            {
                "start_time": 21.327272727272724,
                "end_time": 21.443181818181817,
                "pitch": 67,
                "velocity": 51,
                "duration": 0.11590909090909207,
                "tempo": 120.0
            },
            {
                "start_time": 21.277272727272727,
                "end_time": 21.443181818181817,
                "pitch": 79,
                "velocity": 51,
                "duration": 0.16590909090908923,
                "tempo": 120.0
            },
            {
                "start_time": 21.327272727272724,
                "end_time": 21.493181818181817,
                "pitch": 55,
                "velocity": 51,
                "duration": 0.16590909090909278,
                "tempo": 120.0
            },
            {
                "start_time": 21.443181818181817,
                "end_time": 21.493181818181817,
                "pitch": 67,
                "velocity": 51,
                "duration": 0.05000000000000071,
                "tempo": 120.0
            },
            {
                "start_time": 21.493181818181817,
                "end_time": 21.611363636363635,
                "pitch": 67,
                "velocity": 51,
                "duration": 0.11818181818181728,
                "tempo": 120.0
            },
            {
                "start_time": 21.443181818181817,
                "end_time": 21.611363636363635,
                "pitch": 79,
                "velocity": 51,
                "duration": 0.168181818181818,
                "tempo": 120.0
            },
            {
                "start_time": 21.493181818181817,
                "end_time": 21.661363636363635,
                "pitch": 55,
                "velocity": 51,
                "duration": 0.168181818181818,
                "tempo": 120.0
            },
            {
                "start_time": 21.611363636363635,
                "end_time": 21.661363636363635,
                "pitch": 67,
                "velocity": 51,
                "duration": 0.05000000000000071,
                "tempo": 120.0
            },
            {
                "start_time": 21.661363636363635,
                "end_time": 21.727272727272727,
                "pitch": 67,
                "velocity": 51,
                "duration": 0.06590909090909136,
                "tempo": 120.0
            },
            {
                "start_time": 101.60681818181817,
                "end_time": 101.61136363636363,
                "pitch": 69,
                "velocity": 51,
                "duration": 0.004545454545464622,
                "tempo": 120.0
            }
        ]
    }
}