{
    "track_id": "07 Love in Space",
    "mood": "relaxed",
    "instruments": {
        "Electric Piano 1": [
            {
                "start_time": 0.013636363636363636,
                "end_time": 0.3704545454545454,
                "pitch": 72,
                "velocity": 64,
                "duration": 0.3568181818181818,
                "tempo": 120.0
            },
            {
                "start_time": 0.3704545454545454,
                "end_time": 0.7295454545454545,
                "pitch": 72,
                "velocity": 64,
                "duration": 0.35909090909090907,
                "tempo": 120.0
            },
            {
                "start_time": 0.7295454545454545,
                "end_time": 1.0727272727272728,
                "pitch": 72,
                "velocity": 64,
                "duration": 0.34318181818181825,
                "tempo": 120.0
            },
            {
                "start_time": 1.5681818181818181,
                "end_time": 1.934090909090909,
                "pitch": 72,
                "velocity": 32,
                "duration": 0.36590909090909096,
                "tempo": 120.0
            },
            {
                "start_time": 1.9363636363636363,
                "end_time": 2.284090909090909,
                "pitch": 74,
                "velocity": 64,
                "duration": 0.3477272727272729,
                "tempo": 120.0
            },
            {
                "start_time": 2.284090909090909,
                "end_time": 2.6522727272727273,
                "pitch": 74,
                "velocity": 64,
                "duration": 0.36818181818181817,
                "tempo": 120.0
            },
            {
                "start_time": 2.6545454545454543,
                "end_time": 3.0227272727272725,
                "pitch": 74,
                "velocity": 64,
                "duration": 0.36818181818181817,
                "tempo": 120.0
            },
            {
                "start_time": 3.4909090909090907,
                "end_time": 3.859090909090909,
                "pitch": 74,
                "velocity": 32,
                "duration": 0.36818181818181817,
                "tempo": 120.0
            },
            {
                "start_time": 3.859090909090909,
                "end_time": 4.222727272727273,
                "pitch": 72,
                "velocity": 64,
                "duration": 0.36363636363636376,
                "tempo": 120.0
            },
            {
                "start_time": 4.225,
                "end_time": 4.579545454545454,
                "pitch": 72,
                "velocity": 64,
                "duration": 0.3545454545454545,
                "tempo": 120.0
            },
            {
                "start_time": 4.579545454545454,
                "end_time": 4.954545454545454,
                "pitch": 72,
                "velocity": 64,
                "duration": 0.375,
                "tempo": 120.0
            },
            {
                "start_time": 5.4386363636363635,
                "end_time": 5.784090909090909,
                "pitch": 72,
                "velocity": 32,
                "duration": 0.3454545454545457,
                "tempo": 120.0
            },
            {
                "start_time": 5.784090909090909,
                "end_time": 6.1499999999999995,
                "pitch": 72,
                "velocity": 64,
                "duration": 0.3659090909090903,
                "tempo": 120.0
            },
            {
                "start_time": 6.1499999999999995,
                "end_time": 6.506818181818182,
                "pitch": 72,
                "velocity": 64,
                "duration": 0.35681818181818237,
                "tempo": 120.0
            },
            {
                "start_time": 6.506818181818182,
                "end_time": 6.763636363636364,
                "pitch": 72,
                "velocity": 64,
                "duration": 0.25681818181818183,
                "tempo": 120.0
            },
            {
                "start_time": 6.763636363636364,
                "end_time": 7.11590909090909,
                "pitch": 74,
                "velocity": 64,
                "duration": 0.3522727272727266,
                "tempo": 120.0
            },
            {
                "start_time": 7.11590909090909,
                "end_time": 7.4840909090909085,
                "pitch": 74,
                "velocity": 64,
                "duration": 0.36818181818181817,
                "tempo": 120.0
            },
            {
                "start_time": 7.4840909090909085,
                "end_time": 7.720454545454545,
                "pitch": 74,
                "velocity": 64,
                "duration": 0.23636363636363633,
                "tempo": 120.0
            },
            {
                "start_time": 7.720454545454545,
                "end_time": 8.079545454545455,
                "pitch": 72,
                "velocity": 64,
                "duration": 0.35909090909091024,
                "tempo": 120.0
            },
            {
                "start_time": 8.079545454545455,
                "end_time": 8.45,
                "pitch": 72,
                "velocity": 64,
                "duration": 0.37045454545454426,
                "tempo": 120.0
            },
            {
                "start_time": 8.45,
                "end_time": 8.806818181818182,
                "pitch": 72,
                "velocity": 64,
                "duration": 0.35681818181818237,
                "tempo": 120.0
            },
            {
                "start_time": 9.295454545454545,
                "end_time": 9.668181818181818,
                "pitch": 72,
                "velocity": 32,
                "duration": 0.372727272727273,
                "tempo": 120.0
            },
            {
                "start_time": 9.668181818181818,
                "end_time": 10.025,
                "pitch": 74,
                "velocity": 64,
                "duration": 0.35681818181818237,
                "tempo": 120.0
            },
            {
                "start_time": 10.025,
                "end_time": 10.395454545454545,
                "pitch": 74,
                "velocity": 64,
                "duration": 0.37045454545454426,
                "tempo": 120.0
            },
            {
                "start_time": 10.395454545454545,
                "end_time": 10.743181818181817,
                "pitch": 74,
                "velocity": 64,
                "duration": 0.34772727272727266,
                "tempo": 120.0
            },
            {
                "start_time": 11.222727272727273,
                "end_time": 11.593181818181817,
                "pitch": 74,
                "velocity": 32,
                "duration": 0.37045454545454426,
                "tempo": 120.0
            },
            {
                "start_time": 11.595454545454546,
                "end_time": 11.943181818181818,
                "pitch": 72,
                "velocity": 64,
                "duration": 0.34772727272727266,
                "tempo": 120.0
            },
            {
                "start_time": 11.943181818181818,
                "end_time": 12.311363636363636,
                "pitch": 72,
                "velocity": 64,
                "duration": 0.3681818181818173,
                "tempo": 120.0
            },
            {
                "start_time": 12.313636363636363,
                "end_time": 12.681818181818182,
                "pitch": 72,
                "velocity": 64,
                "duration": 0.36818181818181905,
                "tempo": 120.0
            },
            {
                "start_time": 13.154545454545454,
                "end_time": 13.524999999999999,
                "pitch": 72,
                "velocity": 32,
                "duration": 0.37045454545454426,
                "tempo": 120.0
            },
            {
                "start_time": 13.524999999999999,
                "end_time": 13.899999999999999,
                "pitch": 72,
                "velocity": 64,
                "duration": 0.375,
                "tempo": 120.0
            },
            {
                "start_time": 13.899999999999999,
                "end_time": 14.254545454545454,
                "pitch": 72,
                "velocity": 64,
                "duration": 0.3545454545454554,
                "tempo": 120.0
            },
            {
                "start_time": 14.254545454545454,
                "end_time": 14.504545454545454,
                "pitch": 72,
                "velocity": 64,
                "duration": 0.25,
                "tempo": 120.0
            },
            {
                "start_time": 14.504545454545454,
                "end_time": 14.863636363636363,
                "pitch": 72,
                "velocity": 64,
                "duration": 0.35909090909090935,
                "tempo": 120.0
            },
            {
                "start_time": 15.125,
                "end_time": 15.511363636363635,
                "pitch": 72,
                "velocity": 64,
                "duration": 0.3863636363636349,
                "tempo": 120.0
            },
            {
                "start_time": 15.513636363636364,
                "end_time": 15.918181818181818,
                "pitch": 72,
                "velocity": 64,
                "duration": 0.4045454545454543,
                "tempo": 120.0
            },
            {
                "start_time": 15.918181818181818,
                "end_time": 16.297727272727272,
                "pitch": 72,
                "velocity": 64,
                "duration": 0.37954545454545396,
                "tempo": 120.0
            },
            {
                "start_time": 16.79090909090909,
                "end_time": 17.15681818181818,
                "pitch": 72,
                "velocity": 40,
                "duration": 0.36590909090909207,
                "tempo": 120.0
            },
            {
                "start_time": 17.15681818181818,
                "end_time": 17.511363636363637,
                "pitch": 74,
                "velocity": 64,
                "duration": 0.3545454545454554,
                "tempo": 120.0
            },
            {
                "start_time": 17.511363636363637,
                "end_time": 17.884090909090908,
                "pitch": 74,
                "velocity": 64,
                "duration": 0.37272727272727124,
                "tempo": 120.0
            },
            {
                "start_time": 17.884090909090908,
                "end_time": 18.254545454545454,
                "pitch": 74,
                "velocity": 64,
                "duration": 0.37045454545454604,
                "tempo": 120.0
            },
            {
                "start_time": 18.71818181818182,
                "end_time": 19.08863636363636,
                "pitch": 74,
                "velocity": 40,
                "duration": 0.3704545454545425,
                "tempo": 120.0
            },
            {
                "start_time": 19.08863636363636,
                "end_time": 19.456818181818182,
                "pitch": 72,
                "velocity": 64,
                "duration": 0.36818181818182083,
                "tempo": 120.0
            },
            {
                "start_time": 19.459090909090907,
                "end_time": 19.81590909090909,
                "pitch": 72,
                "velocity": 64,
                "duration": 0.35681818181818414,
                "tempo": 120.0
            },
            {
                "start_time": 19.81590909090909,
                "end_time": 20.188636363636363,
                "pitch": 72,
                "velocity": 64,
                "duration": 0.37272727272727124,
                "tempo": 120.0
            },
            {
                "start_time": 20.675,
                "end_time": 21.018181818181816,
                "pitch": 72,
                "velocity": 40,
                "duration": 0.34318181818181515,
                "tempo": 120.0
            },
            {
                "start_time": 21.018181818181816,
                "end_time": 21.388636363636362,
                "pitch": 72,
                "velocity": 64,
                "duration": 0.37045454545454604,
                "tempo": 120.0
            },
            {
                "start_time": 21.388636363636362,
                "end_time": 21.745454545454546,
                "pitch": 72,
                "velocity": 64,
                "duration": 0.35681818181818414,
                "tempo": 120.0
            },
            {
                "start_time": 21.745454545454546,
                "end_time": 22.002272727272725,
                "pitch": 72,
                "velocity": 64,
                "duration": 0.25681818181817917,
                "tempo": 120.0
            },
            {
                "start_time": 22.002272727272725,
                "end_time": 22.354545454545452,
                "pitch": 74,
                "velocity": 64,
                "duration": 0.3522727272727266,
                "tempo": 120.0
            },
            {
                "start_time": 22.35681818181818,
                "end_time": 22.722727272727273,
                "pitch": 74,
                "velocity": 64,
                "duration": 0.36590909090909207,
                "tempo": 120.0
            },
            {
                "start_time": 22.724999999999998,
                "end_time": 22.956818181818182,
                "pitch": 74,
                "velocity": 64,
                "duration": 0.23181818181818414,
                "tempo": 120.0
            },
            {
                "start_time": 22.956818181818182,
                "end_time": 23.318181818181817,
                "pitch": 72,
                "velocity": 64,
                "duration": 0.36136363636363455,
                "tempo": 120.0
            },
            {
                "start_time": 23.318181818181817,
                "end_time": 23.686363636363634,
                "pitch": 72,
                "velocity": 64,
                "duration": 0.3681818181818173,
                "tempo": 120.0
            },
            {
                "start_time": 23.686363636363634,
                "end_time": 24.04090909090909,
                "pitch": 72,
                "velocity": 64,
                "duration": 0.3545454545454554,
                "tempo": 120.0
            },
            {
                "start_time": 24.536363636363635,
                "end_time": 24.904545454545453,
                "pitch": 72,
                "velocity": 40,
                "duration": 0.3681818181818173,
                "tempo": 120.0
            },
            {
                "start_time": 24.904545454545453,
                "end_time": 25.263636363636362,
                "pitch": 74,
                "velocity": 64,
                "duration": 0.35909090909090935,
                "tempo": 120.0
            },
            {
                "start_time": 25.263636363636362,
                "end_time": 25.625,
                "pitch": 74,
                "velocity": 64,
                "duration": 0.3613636363636381,
                "tempo": 120.0
            },
            {
                "start_time": 25.625,
                "end_time": 25.968181818181815,
                "pitch": 74,
                "velocity": 64,
                "duration": 0.34318181818181515,
                "tempo": 120.0
            },
            {
                "start_time": 26.461363636363636,
                "end_time": 26.829545454545453,
                "pitch": 74,
                "velocity": 40,
                "duration": 0.3681818181818173,
                "tempo": 120.0
            },
            {
                "start_time": 26.829545454545453,
                "end_time": 27.186363636363634,
                "pitch": 72,
                "velocity": 64,
                "duration": 0.3568181818181806,
                "tempo": 120.0
            },
            {
                "start_time": 27.188636363636363,
                "end_time": 27.55909090909091,
                "pitch": 72,
                "velocity": 64,
                "duration": 0.37045454545454604,
                "tempo": 120.0
            },
            {
                "start_time": 27.55909090909091,
                "end_time": 27.927272727272726,
                "pitch": 72,
                "velocity": 64,
                "duration": 0.3681818181818173,
                "tempo": 120.0
            },
            {
                "start_time": 28.388636363636362,
                "end_time": 28.752272727272725,
                "pitch": 72,
                "velocity": 40,
                "duration": 0.3636363636363633,
                "tempo": 120.0
            },
            {
                "start_time": 28.752272727272725,
                "end_time": 29.075,
                "pitch": 72,
                "velocity": 64,
                "duration": 0.3227272727272741,
                "tempo": 120.0
            },
            {
                "start_time": 29.075,
                "end_time": 29.388636363636362,
                "pitch": 72,
                "velocity": 64,
                "duration": 0.3136363636363626,
                "tempo": 120.0
            },
            {
                "start_time": 29.388636363636362,
                "end_time": 29.625,
                "pitch": 72,
                "velocity": 64,
                "duration": 0.2363636363636381,
                "tempo": 120.0
            },
            {
                "start_time": 29.625,
                "end_time": 29.970454545454544,
                "pitch": 72,
                "velocity": 64,
                "duration": 0.3454545454545439,
                "tempo": 120.0
            },
            {
                "start_time": 29.970454545454544,
                "end_time": 30.345454545454544,
                "pitch": 72,
                "velocity": 64,
                "duration": 0.375,
                "tempo": 120.0
            },
            {
                "start_time": 30.347727272727273,
                "end_time": 30.702272727272724,
                "pitch": 72,
                "velocity": 64,
                "duration": 0.35454545454545183,
                "tempo": 120.0
            },
            {
                "start_time": 30.702272727272724,
                "end_time": 31.070454545454545,
                "pitch": 72,
                "velocity": 64,
                "duration": 0.36818181818182083,
                "tempo": 120.0
            },
            {
                "start_time": 31.55909090909091,
                "end_time": 31.91363636363636,
                "pitch": 72,
                "velocity": 32,
                "duration": 0.35454545454545183,
                "tempo": 120.0
            },
            {
                "start_time": 31.91363636363636,
                "end_time": 32.275,
                "pitch": 74,
                "velocity": 64,
                "duration": 0.3613636363636381,
                "tempo": 120.0
            },
            {
                "start_time": 32.275,
                "end_time": 32.64545454545454,
                "pitch": 74,
                "velocity": 64,
                "duration": 0.3704545454545425,
                "tempo": 120.0
            },
            {
                "start_time": 32.64545454545454,
                "end_time": 33.002272727272725,
                "pitch": 74,
                "velocity": 64,
                "duration": 0.35681818181818414,
                "tempo": 120.0
            },
            {
                "start_time": 33.486363636363635,
                "end_time": 33.85681818181818,
                "pitch": 74,
                "velocity": 32,
                "duration": 0.3704545454545425,
                "tempo": 120.0
            },
            {
                "start_time": 33.85681818181818,
                "end_time": 34.215909090909086,
                "pitch": 72,
                "velocity": 64,
                "duration": 0.35909090909090935,
                "tempo": 120.0
            },
            {
                "start_time": 34.215909090909086,
                "end_time": 34.58181818181818,
                "pitch": 72,
                "velocity": 64,
                "duration": 0.36590909090909207,
                "tempo": 120.0
            },
            {
                "start_time": 34.58181818181818,
                "end_time": 34.92727272727272,
                "pitch": 72,
                "velocity": 64,
                "duration": 0.3454545454545439,
                "tempo": 120.0
            },
            {
                "start_time": 35.413636363636364,
                "end_time": 35.78409090909091,
                "pitch": 72,
                "velocity": 32,
                "duration": 0.3704545454545425,
                "tempo": 120.0
            },
            {
                "start_time": 35.78409090909091,
                "end_time": 36.143181818181816,
                "pitch": 72,
                "velocity": 64,
                "duration": 0.35909090909090935,
                "tempo": 120.0
            },
            {
                "start_time": 36.143181818181816,
                "end_time": 36.51363636363636,
                "pitch": 72,
                "velocity": 64,
                "duration": 0.3704545454545425,
                "tempo": 120.0
            },
            {
                "start_time": 36.51363636363636,
                "end_time": 36.75,
                "pitch": 72,
                "velocity": 64,
                "duration": 0.23636363636364166,
                "tempo": 120.0
            },
            {
                "start_time": 36.75,
                "end_time": 37.111363636363635,
                "pitch": 74,
                "velocity": 64,
                "duration": 0.36136363636363455,
                "tempo": 120.0
            },
            {
                "start_time": 37.111363636363635,
                "end_time": 37.47727272727273,
                "pitch": 74,
                "velocity": 64,
                "duration": 0.36590909090909207,
                "tempo": 120.0
            },
            {
                "start_time": 37.47727272727273,
                "end_time": 37.711363636363636,
                "pitch": 74,
                "velocity": 64,
                "duration": 0.23409090909090935,
                "tempo": 120.0
            },
            {
                "start_time": 37.711363636363636,
                "end_time": 38.086363636363636,
                "pitch": 72,
                "velocity": 64,
                "duration": 0.375,
                "tempo": 120.0
            },
            {
                "start_time": 38.086363636363636,
                "end_time": 38.43863636363636,
                "pitch": 72,
                "velocity": 64,
                "duration": 0.3522727272727266,
                "tempo": 120.0
            },
            {
                "start_time": 38.44090909090909,
                "end_time": 38.80681818181818,
                "pitch": 72,
                "velocity": 64,
                "duration": 0.36590909090909207,
                "tempo": 120.0
            },
            {
                "start_time": 39.293181818181814,
                "end_time": 39.63636363636363,
                "pitch": 72,
                "velocity": 32,
                "duration": 0.3431818181818187,
                "tempo": 120.0
            },
            {
                "start_time": 39.63863636363636,
                "end_time": 40.01363636363636,
                "pitch": 74,
                "velocity": 64,
                "duration": 0.375,
                "tempo": 120.0
            },
            {
                "start_time": 40.01363636363636,
                "end_time": 40.36590909090909,
                "pitch": 74,
                "velocity": 64,
                "duration": 0.35227272727273373,
                "tempo": 120.0
            },
            {
                "start_time": 40.36590909090909,
                "end_time": 40.73409090909091,
                "pitch": 74,
                "velocity": 64,
                "duration": 0.3681818181818173,
                "tempo": 120.0
            },
            {
                "start_time": 41.225,
                "end_time": 41.584090909090904,
                "pitch": 74,
                "velocity": 32,
                "duration": 0.35909090909090224,
                "tempo": 120.0
            },
            {
                "start_time": 41.584090909090904,
                "end_time": 41.945454545454545,
                "pitch": 72,
                "velocity": 64,
                "duration": 0.36136363636364166,
                "tempo": 120.0
            },
            {
                "start_time": 41.945454545454545,
                "end_time": 42.309090909090905,
                "pitch": 72,
                "velocity": 64,
                "duration": 0.36363636363635976,
                "tempo": 120.0
            },
            {
                "start_time": 42.31136363636364,
                "end_time": 42.66136363636363,
                "pitch": 72,
                "velocity": 64,
                "duration": 0.3499999999999943,
                "tempo": 120.0
            },
            {
                "start_time": 43.14772727272727,
                "end_time": 43.52272727272727,
                "pitch": 72,
                "velocity": 32,
                "duration": 0.375,
                "tempo": 120.0
            },
            {
                "start_time": 43.52272727272727,
                "end_time": 43.877272727272725,
                "pitch": 72,
                "velocity": 64,
                "duration": 0.35454545454545183,
                "tempo": 120.0
            },
            {
                "start_time": 43.877272727272725,
                "end_time": 44.24090909090909,
                "pitch": 72,
                "velocity": 64,
                "duration": 0.36363636363636687,
                "tempo": 120.0
            },
            {
                "start_time": 44.24090909090909,
                "end_time": 44.470454545454544,
                "pitch": 72,
                "velocity": 64,
                "duration": 0.22954545454545183,
                "tempo": 120.0
            },
            {
                "start_time": 44.470454545454544,
                "end_time": 44.83863636363636,
                "pitch": 72,
                "velocity": 64,
                "duration": 0.3681818181818173,
                "tempo": 120.0
            },
            {
                "start_time": 44.83863636363636,
                "end_time": 45.19318181818181,
                "pitch": 72,
                "velocity": 64,
                "duration": 0.35454545454545183,
                "tempo": 120.0
            },
            {
                "start_time": 45.19318181818181,
                "end_time": 45.449999999999996,
                "pitch": 72,
                "velocity": 64,
                "duration": 0.2568181818181827,
                "tempo": 120.0
            },
            {
                "start_time": 45.449999999999996,
                "end_time": 45.8,
                "pitch": 72,
                "velocity": 64,
                "duration": 0.3500000000000014,
                "tempo": 120.0
            },
            {
                "start_time": 45.8,
                "end_time": 46.17045454545455,
                "pitch": 72,
                "velocity": 64,
                "duration": 0.3704545454545496,
                "tempo": 120.0
            },
            {
                "start_time": 46.17045454545455,
                "end_time": 46.53636363636363,
                "pitch": 72,
                "velocity": 64,
                "duration": 0.36590909090908497,
                "tempo": 120.0
            },
            {
                "start_time": 46.99772727272727,
                "end_time": 47.36590909090909,
                "pitch": 72,
                "velocity": 32,
                "duration": 0.3681818181818244,
                "tempo": 120.0
            },
            {
                "start_time": 47.36590909090909,
                "end_time": 47.74090909090909,
                "pitch": 74,
                "velocity": 64,
                "duration": 0.375,
                "tempo": 120.0
            },
            {
                "start_time": 47.74090909090909,
                "end_time": 48.09772727272727,
                "pitch": 74,
                "velocity": 64,
                "duration": 0.35681818181817704,
                "tempo": 120.0
            },
            {
                "start_time": 48.09772727272727,
                "end_time": 48.46818181818182,
                "pitch": 74,
                "velocity": 64,
                "duration": 0.3704545454545496,
                "tempo": 120.0
            },
            {
                "start_time": 48.95681818181818,
                "end_time": 49.293181818181814,
                "pitch": 74,
                "velocity": 32,
                "duration": 0.336363636363636,
                "tempo": 120.0
            },
            {
                "start_time": 49.293181818181814,
                "end_time": 49.668181818181814,
                "pitch": 72,
                "velocity": 64,
                "duration": 0.375,
                "tempo": 120.0
            },
            {
                "start_time": 49.668181818181814,
                "end_time": 50.02272727272727,
                "pitch": 72,
                "velocity": 64,
                "duration": 0.35454545454545894,
                "tempo": 120.0
            },
            {
                "start_time": 50.02272727272727,
                "end_time": 50.39090909090909,
                "pitch": 72,
                "velocity": 64,
                "duration": 0.3681818181818173,
                "tempo": 120.0
            },
            {
                "start_time": 50.87954545454545,
                "end_time": 51.23863636363636,
                "pitch": 72,
                "velocity": 32,
                "duration": 0.35909090909090935,
                "tempo": 120.0
            },
            {
                "start_time": 51.23863636363636,
                "end_time": 51.599999999999994,
                "pitch": 72,
                "velocity": 64,
                "duration": 0.36136363636363455,
                "tempo": 120.0
            },
            {
                "start_time": 51.599999999999994,
                "end_time": 51.965909090909086,
                "pitch": 72,
                "velocity": 64,
                "duration": 0.36590909090909207,
                "tempo": 120.0
            },
            {
                "start_time": 51.965909090909086,
                "end_time": 52.199999999999996,
                "pitch": 72,
                "velocity": 64,
                "duration": 0.23409090909090935,
                "tempo": 120.0
            },
            {
                "start_time": 52.199999999999996,
                "end_time": 52.56590909090909,
                "pitch": 74,
                "velocity": 64,
                "duration": 0.36590909090909207,
                "tempo": 120.0
            },
            {
                "start_time": 52.56590909090909,
                "end_time": 52.92272727272727,
                "pitch": 74,
                "velocity": 64,
                "duration": 0.35681818181818414,
                "tempo": 120.0
            },
            {
                "start_time": 52.92272727272727,
                "end_time": 53.179545454545455,
                "pitch": 74,
                "velocity": 64,
                "duration": 0.2568181818181827,
                "tempo": 120.0
            },
            {
                "start_time": 53.179545454545455,
                "end_time": 53.53181818181818,
                "pitch": 72,
                "velocity": 64,
                "duration": 0.3522727272727266,
                "tempo": 120.0
            },
            {
                "start_time": 53.53181818181818,
                "end_time": 53.89545454545454,
                "pitch": 72,
                "velocity": 64,
                "duration": 0.36363636363635976,
                "tempo": 120.0
            },
            {
                "start_time": 53.89545454545454,
                "end_time": 54.24318181818182,
                "pitch": 72,
                "velocity": 64,
                "duration": 0.3477272727272762,
                "tempo": 120.0
            },
            {
                "start_time": 54.72954545454545,
                "end_time": 55.10681818181818,
                "pitch": 72,
                "velocity": 32,
                "duration": 0.3772727272727252,
                "tempo": 120.0
            },
            {
                "start_time": 55.10681818181818,
                "end_time": 55.45681818181818,
                "pitch": 74,
                "velocity": 64,
                "duration": 0.3500000000000014,
                "tempo": 120.0
            },
            {
                "start_time": 55.45681818181818,
                "end_time": 55.82954545454545,
                "pitch": 74,
                "velocity": 64,
                "duration": 0.3727272727272748,
                "tempo": 120.0
            },
            {
                "start_time": 55.82954545454545,
                "end_time": 56.195454545454545,
                "pitch": 74,
                "velocity": 64,
                "duration": 0.36590909090909207,
                "tempo": 120.0
            },
            {
                "start_time": 56.652272727272724,
                "end_time": 57.02954545454545,
                "pitch": 74,
                "velocity": 32,
                "duration": 0.3772727272727252,
                "tempo": 120.0
            },
            {
                "start_time": 57.02954545454545,
                "end_time": 57.39545454545454,
                "pitch": 72,
                "velocity": 64,
                "duration": 0.36590909090909207,
                "tempo": 120.0
            },
            {
                "start_time": 57.39545454545454,
                "end_time": 57.74772727272727,
                "pitch": 72,
                "velocity": 64,
                "duration": 0.3522727272727266,
                "tempo": 120.0
            },
            {
                "start_time": 57.74772727272727,
                "end_time": 58.12045454545454,
                "pitch": 72,
                "velocity": 64,
                "duration": 0.3727272727272748,
                "tempo": 120.0
            },
            {
                "start_time": 58.611363636363635,
                "end_time": 58.95681818181818,
                "pitch": 72,
                "velocity": 32,
                "duration": 0.3454545454545439,
                "tempo": 120.0
            },
            {
                "start_time": 58.95681818181818,
                "end_time": 59.324999999999996,
                "pitch": 72,
                "velocity": 64,
                "duration": 0.3681818181818173,
                "tempo": 120.0
            },
            {
                "start_time": 59.32727272727272,
                "end_time": 59.67727272727272,
                "pitch": 72,
                "velocity": 64,
                "duration": 0.3500000000000014,
                "tempo": 120.0
            },
            {
                "start_time": 59.67727272727272,
                "end_time": 59.92727272727272,
                "pitch": 72,
                "velocity": 64,
                "duration": 0.25,
                "tempo": 120.0
            },
            {
                "start_time": 59.92727272727272,
                "end_time": 60.28636363636363,
                "pitch": 72,
                "velocity": 64,
                "duration": 0.35909090909090935,
                "tempo": 120.0
            },
            {
                "start_time": 60.28636363636363,
                "end_time": 60.65909090909091,
                "pitch": 72,
                "velocity": 64,
                "duration": 0.3727272727272748,
                "tempo": 120.0
            },
            {
                "start_time": 60.65909090909091,
                "end_time": 60.89545454545454,
                "pitch": 72,
                "velocity": 64,
                "duration": 0.23636363636363455,
                "tempo": 120.0
            },
            {
                "start_time": 60.89545454545454,
                "end_time": 61.25454545454545,
                "pitch": 74,
                "velocity": 64,
                "duration": 0.35909090909090935,
                "tempo": 120.0
            },
            {
                "start_time": 61.256818181818176,
                "end_time": 61.62045454545454,
                "pitch": 74,
                "velocity": 64,
                "duration": 0.36363636363636687,
                "tempo": 120.0
            },
            {
                "start_time": 61.62045454545454,
                "end_time": 61.85454545454545,
                "pitch": 74,
                "velocity": 64,
                "duration": 0.23409090909090935,
                "tempo": 120.0
            },
            {
                "start_time": 61.85454545454545,
                "end_time": 62.22954545454545,
                "pitch": 76,
                "velocity": 64,
                "duration": 0.375,
                "tempo": 120.0
            },
            {
                "start_time": 62.23181818181818,
                "end_time": 62.584090909090904,
                "pitch": 76,
                "velocity": 64,
                "duration": 0.3522727272727266,
                "tempo": 120.0
            },
            {
                "start_time": 62.584090909090904,
                "end_time": 62.834090909090904,
                "pitch": 76,
                "velocity": 64,
                "duration": 0.25,
                "tempo": 120.0
            },
            {
                "start_time": 62.834090909090904,
                "end_time": 63.19318181818181,
                "pitch": 77,
                "velocity": 64,
                "duration": 0.35909090909090935,
                "tempo": 120.0
            },
            {
                "start_time": 63.19318181818181,
                "end_time": 63.55227272727272,
                "pitch": 77,
                "velocity": 64,
                "duration": 0.35909090909090935,
                "tempo": 120.0
            },
            {
                "start_time": 63.554545454545455,
                "end_time": 63.777272727272724,
                "pitch": 77,
                "velocity": 64,
                "duration": 0.2227272727272691,
                "tempo": 120.0
            },
            {
                "start_time": 63.777272727272724,
                "end_time": 64.15454545454546,
                "pitch": 84,
                "velocity": 64,
                "duration": 0.3772727272727323,
                "tempo": 120.0
            },
            {
                "start_time": 64.15454545454546,
                "end_time": 64.50681818181818,
                "pitch": 84,
                "velocity": 64,
                "duration": 0.3522727272727195,
                "tempo": 120.0
            },
            {
                "start_time": 64.50681818181818,
                "end_time": 64.75681818181818,
                "pitch": 84,
                "velocity": 64,
                "duration": 0.25,
                "tempo": 120.0
            },
            {
                "start_time": 64.75681818181818,
                "end_time": 65.10681818181818,
                "pitch": 84,
                "velocity": 64,
                "duration": 0.3500000000000085,
                "tempo": 120.0
            },
            {
                "start_time": 65.72045454545454,
                "end_time": 66.07272727272726,
                "pitch": 84,
                "velocity": 64,
                "duration": 0.3522727272727195,
                "tempo": 120.0
            },
            {
                "start_time": 66.44090909090909,
                "end_time": 67.28863636363636,
                "pitch": 84,
                "velocity": 64,
                "duration": 0.8477272727272691,
                "tempo": 120.0
            },
            {
                "start_time": 67.66363636363636,
                "end_time": 68.38181818181818,
                "pitch": 84,
                "velocity": 64,
                "duration": 0.7181818181818187,
                "tempo": 120.0
            },
            {
                "start_time": 68.61136363636363,
                "end_time": 68.98636363636363,
                "pitch": 72,
                "velocity": 64,
                "duration": 0.375,
                "tempo": 120.0
            },
            {
                "start_time": 68.98863636363636,
                "end_time": 69.3409090909091,
                "pitch": 72,
                "velocity": 64,
                "duration": 0.35227272727273373,
                "tempo": 120.0
            },
            {
                "start_time": 69.3409090909091,
                "end_time": 69.7090909090909,
                "pitch": 72,
                "velocity": 64,
                "duration": 0.36818181818181017,
                "tempo": 120.0
            },
            {
                "start_time": 70.19772727272726,
                "end_time": 70.55,
                "pitch": 72,
                "velocity": 32,
                "duration": 0.35227272727273373,
                "tempo": 120.0
            },
            {
                "start_time": 70.55,
                "end_time": 70.91136363636363,
                "pitch": 74,
                "velocity": 64,
                "duration": 0.36136363636363455,
                "tempo": 120.0
            },
            {
                "start_time": 70.91136363636363,
                "end_time": 71.28181818181818,
                "pitch": 74,
                "velocity": 64,
                "duration": 0.3704545454545496,
                "tempo": 120.0
            },
            {
                "start_time": 71.28181818181818,
                "end_time": 71.63863636363637,
                "pitch": 74,
                "velocity": 64,
                "duration": 0.35681818181818414,
                "tempo": 120.0
            },
            {
                "start_time": 72.12727272727273,
                "end_time": 72.49772727272727,
                "pitch": 74,
                "velocity": 32,
                "duration": 0.3704545454545496,
                "tempo": 120.0
            },
            {
                "start_time": 72.49772727272727,
                "end_time": 72.85681818181818,
                "pitch": 72,
                "velocity": 64,
                "duration": 0.35909090909090935,
                "tempo": 120.0
            },
            {
                "start_time": 72.85681818181818,
                "end_time": 73.22272727272727,
                "pitch": 72,
                "velocity": 64,
                "duration": 0.36590909090908497,
                "tempo": 120.0
            },
            {
                "start_time": 73.22272727272727,
                "end_time": 73.57045454545454,
                "pitch": 72,
                "velocity": 64,
                "duration": 0.3477272727272691,
                "tempo": 120.0
            },
            {
                "start_time": 74.05909090909091,
                "end_time": 74.42954545454545,
                "pitch": 72,
                "velocity": 32,
                "duration": 0.3704545454545354,
                "tempo": 120.0
            },
            {
                "start_time": 74.42954545454545,
                "end_time": 74.78636363636363,
                "pitch": 72,
                "velocity": 64,
                "duration": 0.35681818181818414,
                "tempo": 120.0
            },
            {
                "start_time": 74.78636363636363,
                "end_time": 75.1590909090909,
                "pitch": 72,
                "velocity": 64,
                "duration": 0.3727272727272748,
                "tempo": 120.0
            },
            {
                "start_time": 75.1590909090909,
                "end_time": 75.39545454545454,
                "pitch": 72,
                "velocity": 64,
                "duration": 0.23636363636363455,
                "tempo": 120.0
            },
            {
                "start_time": 75.39545454545454,
                "end_time": 75.75681818181818,
                "pitch": 74,
                "velocity": 64,
                "duration": 0.36136363636363455,
                "tempo": 120.0
            },
            {
                "start_time": 75.75681818181818,
                "end_time": 76.12272727272727,
                "pitch": 74,
                "velocity": 64,
                "duration": 0.3659090909090992,
                "tempo": 120.0
            },
            {
                "start_time": 76.12272727272727,
                "end_time": 76.35454545454544,
                "pitch": 74,
                "velocity": 64,
                "duration": 0.23181818181816993,
                "tempo": 120.0
            },
            {
                "start_time": 76.35454545454544,
                "end_time": 76.73181818181818,
                "pitch": 72,
                "velocity": 64,
                "duration": 0.3772727272727394,
                "tempo": 120.0
            },
            {
                "start_time": 76.73181818181818,
                "end_time": 77.08636363636363,
                "pitch": 72,
                "velocity": 64,
                "duration": 0.3545454545454447,
                "tempo": 120.0
            },
            {
                "start_time": 77.08636363636363,
                "end_time": 77.45454545454545,
                "pitch": 72,
                "velocity": 64,
                "duration": 0.3681818181818244,
                "tempo": 120.0
            },
            {
                "start_time": 77.93863636363636,
                "end_time": 78.28181818181818,
                "pitch": 72,
                "velocity": 32,
                "duration": 0.3431818181818187,
                "tempo": 120.0
            },
            {
                "start_time": 78.28181818181818,
                "end_time": 78.6590909090909,
                "pitch": 74,
                "velocity": 64,
                "duration": 0.3772727272727252,
                "tempo": 120.0
            },
            {
                "start_time": 78.6590909090909,
                "end_time": 79.01136363636363,
                "pitch": 74,
                "velocity": 64,
                "duration": 0.3522727272727195,
                "tempo": 120.0
            },
            {
                "start_time": 79.01136363636363,
                "end_time": 79.37954545454545,
                "pitch": 74,
                "velocity": 64,
                "duration": 0.3681818181818244,
                "tempo": 120.0
            },
            {
                "start_time": 79.87045454545454,
                "end_time": 80.22954545454544,
                "pitch": 74,
                "velocity": 32,
                "duration": 0.35909090909090935,
                "tempo": 120.0
            },
            {
                "start_time": 80.22954545454544,
                "end_time": 80.58863636363635,
                "pitch": 72,
                "velocity": 64,
                "duration": 0.35909090909090935,
                "tempo": 120.0
            },
            {
                "start_time": 80.5909090909091,
                "end_time": 80.95454545454545,
                "pitch": 72,
                "velocity": 64,
                "duration": 0.36363636363635976,
                "tempo": 120.0
            },
            {
                "start_time": 80.95454545454545,
                "end_time": 81.30681818181817,
                "pitch": 72,
                "velocity": 64,
                "duration": 0.3522727272727195,
                "tempo": 120.0
            },
            {
                "start_time": 81.79545454545455,
                "end_time": 82.17272727272727,
                "pitch": 72,
                "velocity": 32,
                "duration": 0.3772727272727252,
                "tempo": 120.0
            },
            {
                "start_time": 82.17272727272727,
                "end_time": 82.52499999999999,
                "pitch": 72,
                "velocity": 64,
                "duration": 0.3522727272727195,
                "tempo": 120.0
            },
            {
                "start_time": 82.52499999999999,
                "end_time": 82.88863636363637,
                "pitch": 72,
                "velocity": 64,
                "duration": 0.36363636363637397,
                "tempo": 120.0
            },
            {
                "start_time": 82.89090909090909,
                "end_time": 83.12045454545454,
                "pitch": 72,
                "velocity": 64,
                "duration": 0.22954545454544473,
                "tempo": 120.0
            },
            {
                "start_time": 83.12045454545454,
                "end_time": 83.48863636363636,
                "pitch": 72,
                "velocity": 64,
                "duration": 0.3681818181818244,
                "tempo": 120.0
            },
            {
                "start_time": 83.49090909090908,
                "end_time": 83.84772727272727,
                "pitch": 72,
                "velocity": 64,
                "duration": 0.35681818181818414,
                "tempo": 120.0
            },
            {
                "start_time": 83.84772727272727,
                "end_time": 84.10227272727272,
                "pitch": 72,
                "velocity": 64,
                "duration": 0.2545454545454504,
                "tempo": 120.0
            },
            {
                "start_time": 84.10454545454544,
                "end_time": 84.45681818181818,
                "pitch": 72,
                "velocity": 64,
                "duration": 0.35227272727273373,
                "tempo": 120.0
            },
            {
                "start_time": 84.45681818181818,
                "end_time": 84.82727272727273,
                "pitch": 72,
                "velocity": 64,
                "duration": 0.3704545454545496,
                "tempo": 120.0
            },
            {
                "start_time": 84.82727272727273,
                "end_time": 85.19318181818181,
                "pitch": 72,
                "velocity": 64,
                "duration": 0.36590909090908497,
                "tempo": 120.0
            },
            {
                "start_time": 85.65454545454546,
                "end_time": 86.02272727272727,
                "pitch": 72,
                "velocity": 32,
                "duration": 0.36818181818181017,
                "tempo": 120.0
            },
            {
                "start_time": 86.02272727272727,
                "end_time": 86.39772727272727,
                "pitch": 74,
                "velocity": 64,
                "duration": 0.375,
                "tempo": 120.0
            },
            {
                "start_time": 86.39772727272727,
                "end_time": 86.75227272727273,
                "pitch": 74,
                "velocity": 64,
                "duration": 0.35454545454545894,
                "tempo": 120.0
            },
            {
                "start_time": 86.75454545454545,
                "end_time": 87.125,
                "pitch": 74,
                "velocity": 64,
                "duration": 0.3704545454545496,
                "tempo": 120.0
            },
            {
                "start_time": 87.61363636363636,
                "end_time": 87.94999999999999,
                "pitch": 74,
                "velocity": 32,
                "duration": 0.33636363636362887,
                "tempo": 120.0
            },
            {
                "start_time": 87.94999999999999,
                "end_time": 88.32499999999999,
                "pitch": 72,
                "velocity": 64,
                "duration": 0.375,
                "tempo": 120.0
            },
            {
                "start_time": 88.32499999999999,
                "end_time": 88.67954545454545,
                "pitch": 72,
                "velocity": 64,
                "duration": 0.35454545454545894,
                "tempo": 120.0
            },
            {
                "start_time": 88.67954545454545,
                "end_time": 89.04772727272727,
                "pitch": 72,
                "velocity": 64,
                "duration": 0.3681818181818244,
                "tempo": 120.0
            },
            {
                "start_time": 89.53636363636363,
                "end_time": 89.89545454545454,
                "pitch": 72,
                "velocity": 32,
                "duration": 0.35909090909090935,
                "tempo": 120.0
            },
            {
                "start_time": 89.89545454545454,
                "end_time": 90.25681818181818,
                "pitch": 72,
                "velocity": 64,
                "duration": 0.36136363636363455,
                "tempo": 120.0
            },
            {
                "start_time": 90.25681818181818,
                "end_time": 90.62272727272727,
                "pitch": 72,
                "velocity": 64,
                "duration": 0.3659090909090992,
                "tempo": 120.0
            },
            {
                "start_time": 90.62272727272727,
                "end_time": 90.85681818181818,
                "pitch": 72,
                "velocity": 64,
                "duration": 0.23409090909090935,
                "tempo": 120.0
            },
            {
                "start_time": 90.85681818181818,
                "end_time": 91.225,
                "pitch": 74,
                "velocity": 64,
                "duration": 0.36818181818181017,
                "tempo": 120.0
            },
            {
                "start_time": 91.22727272727272,
                "end_time": 91.5840909090909,
                "pitch": 74,
                "velocity": 64,
                "duration": 0.35681818181818414,
                "tempo": 120.0
            },
            {
                "start_time": 91.5840909090909,
                "end_time": 91.83863636363635,
                "pitch": 74,
                "velocity": 64,
                "duration": 0.2545454545454504,
                "tempo": 120.0
            },
            {
                "start_time": 91.83863636363635,
                "end_time": 92.19318181818181,
                "pitch": 72,
                "velocity": 64,
                "duration": 0.35454545454545894,
                "tempo": 120.0
            },
            {
                "start_time": 92.19318181818181,
                "end_time": 92.55681818181817,
                "pitch": 72,
                "velocity": 64,
                "duration": 0.36363636363635976,
                "tempo": 120.0
            },
            {
                "start_time": 92.55681818181817,
                "end_time": 92.90454545454546,
                "pitch": 72,
                "velocity": 64,
                "duration": 0.3477272727272833,
                "tempo": 120.0
            },
            {
                "start_time": 93.39545454545454,
                "end_time": 93.77045454545454,
                "pitch": 72,
                "velocity": 32,
                "duration": 0.375,
                "tempo": 120.0
            },
            {
                "start_time": 93.77045454545454,
                "end_time": 94.12272727272727,
                "pitch": 74,
                "velocity": 64,
                "duration": 0.35227272727273373,
                "tempo": 120.0
            },
            {
                "start_time": 94.125,
                "end_time": 94.49772727272727,
                "pitch": 74,
                "velocity": 64,
                "duration": 0.3727272727272748,
                "tempo": 120.0
            },
            {
                "start_time": 94.49772727272727,
                "end_time": 94.86590909090908,
                "pitch": 74,
                "velocity": 64,
                "duration": 0.36818181818181017,
                "tempo": 120.0
            },
            {
                "start_time": 95.32272727272726,
                "end_time": 95.69772727272726,
                "pitch": 74,
                "velocity": 32,
                "duration": 0.375,
                "tempo": 120.0
            },
            {
                "start_time": 95.69772727272726,
                "end_time": 96.06818181818181,
                "pitch": 72,
                "velocity": 64,
                "duration": 0.3704545454545496,
                "tempo": 120.0
            },
            {
                "start_time": 96.06818181818181,
                "end_time": 96.425,
                "pitch": 72,
                "velocity": 64,
                "duration": 0.35681818181818414,
                "tempo": 120.0
            },
            {
                "start_time": 96.425,
                "end_time": 96.79772727272727,
                "pitch": 72,
                "velocity": 64,
                "duration": 0.3727272727272748,
                "tempo": 120.0
            },
            {
                "start_time": 97.2840909090909,
                "end_time": 97.62954545454545,
                "pitch": 72,
                "velocity": 32,
                "duration": 0.3454545454545439,
                "tempo": 120.0
            },
            {
                "start_time": 97.62954545454545,
                "end_time": 97.99772727272727,
                "pitch": 72,
                "velocity": 64,
                "duration": 0.3681818181818244,
                "tempo": 120.0
            },
            {
                "start_time": 97.99772727272727,
                "end_time": 98.35454545454544,
                "pitch": 72,
                "velocity": 64,
                "duration": 0.35681818181816993,
                "tempo": 120.0
            },
            {
                "start_time": 98.35681818181818,
                "end_time": 98.61136363636363,
                "pitch": 72,
                "velocity": 64,
                "duration": 0.2545454545454504,
                "tempo": 120.0
            },
            {
                "start_time": 98.61136363636363,
                "end_time": 98.96590909090908,
                "pitch": 72,
                "velocity": 64,
                "duration": 0.3545454545454447,
                "tempo": 120.0
            },
            {
                "start_time": 98.96590909090908,
                "end_time": 99.33636363636363,
                "pitch": 72,
                "velocity": 64,
                "duration": 0.3704545454545496,
                "tempo": 120.0
            },
            {
                "start_time": 99.33636363636363,
                "end_time": 99.57045454545454,
                "pitch": 72,
                "velocity": 64,
                "duration": 0.23409090909090935,
                "tempo": 120.0
            },
            {
                "start_time": 99.57045454545454,
                "end_time": 99.93181818181817,
                "pitch": 74,
                "velocity": 64,
                "duration": 0.36136363636363455,
                "tempo": 120.0
            },
            {
                "start_time": 99.93181818181817,
                "end_time": 100.29772727272727,
                "pitch": 74,
                "velocity": 64,
                "duration": 0.3659090909090992,
                "tempo": 120.0
            },
            {
                "start_time": 100.29772727272727,
                "end_time": 100.53181818181818,
                "pitch": 74,
                "velocity": 64,
                "duration": 0.23409090909090935,
                "tempo": 120.0
            },
            {
                "start_time": 100.53181818181818,
                "end_time": 100.90681818181818,
                "pitch": 76,
                "velocity": 64,
                "duration": 0.375,
                "tempo": 120.0
            },
            {
                "start_time": 100.90681818181818,
                "end_time": 101.26136363636363,
                "pitch": 76,
                "velocity": 64,
                "duration": 0.3545454545454447,
                "tempo": 120.0
            },
            {
                "start_time": 101.26136363636363,
                "end_time": 101.51136363636363,
                "pitch": 76,
                "velocity": 64,
                "duration": 0.25,
                "tempo": 120.0
            },
            {
                "start_time": 101.51136363636363,
                "end_time": 101.86363636363636,
                "pitch": 77,
                "velocity": 64,
                "duration": 0.35227272727273373,
                "tempo": 120.0
            },
            {
                "start_time": 101.86363636363636,
                "end_time": 102.22727272727272,
                "pitch": 77,
                "velocity": 64,
                "duration": 0.36363636363635976,
                "tempo": 120.0
            },
            {
                "start_time": 102.22727272727272,
                "end_time": 102.4590909090909,
                "pitch": 77,
                "velocity": 64,
                "duration": 0.23181818181818414,
                "tempo": 120.0
            },
            {
                "start_time": 102.4590909090909,
                "end_time": 102.8340909090909,
                "pitch": 84,
                "velocity": 64,
                "duration": 0.375,
                "tempo": 120.0
            },
            {
                "start_time": 102.8340909090909,
                "end_time": 103.18636363636364,
                "pitch": 84,
                "velocity": 64,
                "duration": 0.35227272727273373,
                "tempo": 120.0
            },
            {
                "start_time": 103.18863636363636,
                "end_time": 103.43863636363636,
                "pitch": 84,
                "velocity": 64,
                "duration": 0.25,
                "tempo": 120.0
            },
            {
                "start_time": 103.43863636363636,
                "end_time": 103.79090909090908,
                "pitch": 84,
                "velocity": 64,
                "duration": 0.3522727272727195,
                "tempo": 120.0
            },
            {
                "start_time": 104.40454545454546,
                "end_time": 104.75681818181818,
                "pitch": 84,
                "velocity": 64,
                "duration": 0.3522727272727195,
                "tempo": 120.0
            },
            {
                "start_time": 105.125,
                "end_time": 105.97272727272727,
                "pitch": 84,
                "velocity": 64,
                "duration": 0.8477272727272691,
                "tempo": 120.0
            },
            {
                "start_time": 106.34772727272727,
                "end_time": 107.06590909090909,
                "pitch": 84,
                "velocity": 64,
                "duration": 0.7181818181818187,
                "tempo": 120.0
            },
            {
                "start_time": 115.03636363636363,
                "end_time": 115.40681818181818,
                "pitch": 72,
                "velocity": 64,
                "duration": 0.3704545454545496,
                "tempo": 120.0
            },
            {
                "start_time": 115.40681818181818,
                "end_time": 115.76363636363635,
                "pitch": 72,
                "velocity": 64,
                "duration": 0.35681818181816993,
                "tempo": 120.0
            },
            {
                "start_time": 115.76363636363635,
                "end_time": 116.13636363636363,
                "pitch": 72,
                "velocity": 64,
                "duration": 0.3727272727272748,
                "tempo": 120.0
            },
            {
                "start_time": 116.62272727272726,
                "end_time": 116.96818181818182,
                "pitch": 72,
                "velocity": 32,
                "duration": 0.3454545454545581,
                "tempo": 120.0
            },
            {
                "start_time": 116.96818181818182,
                "end_time": 117.34318181818182,
                "pitch": 74,
                "velocity": 64,
                "duration": 0.375,
                "tempo": 120.0
            },
            {
                "start_time": 117.34318181818182,
                "end_time": 117.69772727272726,
                "pitch": 74,
                "velocity": 64,
                "duration": 0.3545454545454447,
                "tempo": 120.0
            },
            {
                "start_time": 117.69772727272726,
                "end_time": 118.06818181818181,
                "pitch": 74,
                "velocity": 64,
                "duration": 0.3704545454545496,
                "tempo": 120.0
            },
            {
                "start_time": 118.55681818181817,
                "end_time": 118.9090909090909,
                "pitch": 74,
                "velocity": 32,
                "duration": 0.35227272727273373,
                "tempo": 120.0
            },
            {
                "start_time": 118.9090909090909,
                "end_time": 119.27727272727272,
                "pitch": 72,
                "velocity": 64,
                "duration": 0.36818181818181017,
                "tempo": 120.0
            },
            {
                "start_time": 119.27727272727272,
                "end_time": 119.64545454545454,
                "pitch": 72,
                "velocity": 64,
                "duration": 0.3681818181818244,
                "tempo": 120.0
            },
            {
                "start_time": 119.64545454545454,
                "end_time": 119.99772727272726,
                "pitch": 72,
                "velocity": 64,
                "duration": 0.3522727272727195,
                "tempo": 120.0
            },
            {
                "start_time": 120.48636363636363,
                "end_time": 120.85681818181817,
                "pitch": 72,
                "velocity": 32,
                "duration": 0.3704545454545354,
                "tempo": 120.0
            },
            {
                "start_time": 120.85681818181817,
                "end_time": 121.21590909090908,
                "pitch": 72,
                "velocity": 64,
                "duration": 0.35909090909090935,
                "tempo": 120.0
            },
            {
                "start_time": 121.21590909090908,
                "end_time": 121.57499999999999,
                "pitch": 72,
                "velocity": 64,
                "duration": 0.35909090909090935,
                "tempo": 120.0
            },
            {
                "start_time": 121.57499999999999,
                "end_time": 121.8,
                "pitch": 72,
                "velocity": 64,
                "duration": 0.22500000000000853,
                "tempo": 120.0
            },
            {
                "start_time": 121.8,
                "end_time": 122.17727272727272,
                "pitch": 74,
                "velocity": 64,
                "duration": 0.3772727272727252,
                "tempo": 120.0
            },
            {
                "start_time": 122.17727272727272,
                "end_time": 122.52954545454544,
                "pitch": 74,
                "velocity": 64,
                "duration": 0.3522727272727195,
                "tempo": 120.0
            },
            {
                "start_time": 122.52954545454544,
                "end_time": 122.77954545454544,
                "pitch": 74,
                "velocity": 64,
                "duration": 0.25,
                "tempo": 120.0
            },
            {
                "start_time": 122.77954545454544,
                "end_time": 123.13863636363635,
                "pitch": 72,
                "velocity": 64,
                "duration": 0.35909090909090935,
                "tempo": 120.0
            },
            {
                "start_time": 123.13863636363635,
                "end_time": 123.5090909090909,
                "pitch": 72,
                "velocity": 64,
                "duration": 0.3704545454545496,
                "tempo": 120.0
            },
            {
                "start_time": 123.5090909090909,
                "end_time": 123.875,
                "pitch": 72,
                "velocity": 64,
                "duration": 0.3659090909090992,
                "tempo": 120.0
            },
            {
                "start_time": 124.33636363636363,
                "end_time": 124.70227272727273,
                "pitch": 72,
                "velocity": 32,
                "duration": 0.3659090909090992,
                "tempo": 120.0
            },
            {
                "start_time": 124.70454545454545,
                "end_time": 125.07954545454545,
                "pitch": 74,
                "velocity": 64,
                "duration": 0.375,
                "tempo": 120.0
            },
            {
                "start_time": 125.07954545454545,
                "end_time": 125.43181818181817,
                "pitch": 74,
                "velocity": 64,
                "duration": 0.3522727272727195,
                "tempo": 120.0
            },
            {
                "start_time": 125.43181818181817,
                "end_time": 125.8,
                "pitch": 74,
                "velocity": 64,
                "duration": 0.3681818181818244,
                "tempo": 120.0
            },
            {
                "start_time": 126.28636363636363,
                "end_time": 126.62954545454545,
                "pitch": 74,
                "velocity": 32,
                "duration": 0.3431818181818187,
                "tempo": 120.0
            },
            {
                "start_time": 126.62954545454545,
                "end_time": 127.00681818181818,
                "pitch": 72,
                "velocity": 64,
                "duration": 0.3772727272727252,
                "tempo": 120.0
            },
            {
                "start_time": 127.00681818181818,
                "end_time": 127.35909090909091,
                "pitch": 72,
                "velocity": 64,
                "duration": 0.35227272727273373,
                "tempo": 120.0
            },
            {
                "start_time": 127.35909090909091,
                "end_time": 127.72727272727272,
                "pitch": 72,
                "velocity": 64,
                "duration": 0.36818181818181017,
                "tempo": 120.0
            },
            {
                "start_time": 128.21818181818182,
                "end_time": 128.5772727272727,
                "pitch": 72,
                "velocity": 32,
                "duration": 0.35909090909089514,
                "tempo": 120.0
            },
            {
                "start_time": 128.5772727272727,
                "end_time": 128.93636363636364,
                "pitch": 72,
                "velocity": 64,
                "duration": 0.35909090909092356,
                "tempo": 120.0
            },
            {
                "start_time": 128.93863636363636,
                "end_time": 129.30454545454546,
                "pitch": 72,
                "velocity": 64,
                "duration": 0.3659090909090992,
                "tempo": 120.0
            },
            {
                "start_time": 129.30454545454546,
                "end_time": 129.54090909090908,
                "pitch": 72,
                "velocity": 64,
                "duration": 0.23636363636362034,
                "tempo": 120.0
            },
            {
                "start_time": 129.54090909090908,
                "end_time": 129.90681818181818,
                "pitch": 74,
                "velocity": 64,
                "duration": 0.3659090909090992,
                "tempo": 120.0
            },
            {
                "start_time": 129.90681818181818,
                "end_time": 130.26363636363635,
                "pitch": 74,
                "velocity": 64,
                "duration": 0.35681818181816993,
                "tempo": 120.0
            },
            {
                "start_time": 130.26363636363635,
                "end_time": 130.52045454545453,
                "pitch": 74,
                "velocity": 64,
                "duration": 0.2568181818181756,
                "tempo": 120.0
            },
            {
                "start_time": 130.52045454545453,
                "end_time": 130.87045454545455,
                "pitch": 72,
                "velocity": 64,
                "duration": 0.35000000000002274,
                "tempo": 120.0
            },
            {
                "start_time": 130.87045454545455,
                "end_time": 131.2340909090909,
                "pitch": 72,
                "velocity": 64,
                "duration": 0.36363636363634555,
                "tempo": 120.0
            },
            {
                "start_time": 131.2340909090909,
                "end_time": 131.57954545454544,
                "pitch": 72,
                "velocity": 64,
                "duration": 0.3454545454545439,
                "tempo": 120.0
            },
            {
                "start_time": 132.0681818181818,
                "end_time": 132.4431818181818,
                "pitch": 72,
                "velocity": 32,
                "duration": 0.375,
                "tempo": 120.0
            },
            {
                "start_time": 132.4431818181818,
                "end_time": 132.7931818181818,
                "pitch": 74,
                "velocity": 64,
                "duration": 0.3499999999999943,
                "tempo": 120.0
            },
            {
                "start_time": 132.7931818181818,
                "end_time": 133.16590909090908,
                "pitch": 74,
                "velocity": 64,
                "duration": 0.3727272727272748,
                "tempo": 120.0
            },
            {
                "start_time": 133.16590909090908,
                "end_time": 133.5340909090909,
                "pitch": 74,
                "velocity": 64,
                "duration": 0.3681818181818244,
                "tempo": 120.0
            },
            {
                "start_time": 133.99090909090907,
                "end_time": 134.36590909090907,
                "pitch": 74,
                "velocity": 32,
                "duration": 0.375,
                "tempo": 120.0
            },
            {
                "start_time": 134.36590909090907,
                "end_time": 134.73636363636362,
                "pitch": 72,
                "velocity": 64,
                "duration": 0.3704545454545496,
                "tempo": 120.0
            },
            {
                "start_time": 134.73636363636362,
                "end_time": 135.09318181818182,
                "pitch": 72,
                "velocity": 64,
                "duration": 0.35681818181819835,
                "tempo": 120.0
            },
            {
                "start_time": 135.09318181818182,
                "end_time": 135.4659090909091,
                "pitch": 72,
                "velocity": 64,
                "duration": 0.3727272727272748,
                "tempo": 120.0
            },
            {
                "start_time": 135.95,
                "end_time": 136.2931818181818,
                "pitch": 72,
                "velocity": 32,
                "duration": 0.3431818181818187,
                "tempo": 120.0
            },
            {
                "start_time": 136.2931818181818,
                "end_time": 136.66136363636363,
                "pitch": 72,
                "velocity": 64,
                "duration": 0.3681818181818244,
                "tempo": 120.0
            },
            {
                "start_time": 136.66136363636363,
                "end_time": 137.01363636363635,
                "pitch": 72,
                "velocity": 64,
                "duration": 0.3522727272727195,
                "tempo": 120.0
            },
            {
                "start_time": 137.01363636363635,
                "end_time": 137.26590909090908,
                "pitch": 72,
                "velocity": 64,
                "duration": 0.2522727272727252,
                "tempo": 120.0
            },
            {
                "start_time": 137.26590909090908,
                "end_time": 137.625,
                "pitch": 72,
                "velocity": 64,
                "duration": 0.35909090909092356,
                "tempo": 120.0
            },
            {
                "start_time": 137.625,
                "end_time": 137.99772727272727,
                "pitch": 72,
                "velocity": 64,
                "duration": 0.3727272727272748,
                "tempo": 120.0
            },
            {
                "start_time": 137.99772727272727,
                "end_time": 138.23181818181817,
                "pitch": 72,
                "velocity": 64,
                "duration": 0.23409090909089514,
                "tempo": 120.0
            },
            {
                "start_time": 138.23181818181817,
                "end_time": 138.59318181818182,
                "pitch": 74,
                "velocity": 64,
                "duration": 0.36136363636364877,
                "tempo": 120.0
            },
            {
                "start_time": 138.59318181818182,
                "end_time": 138.9590909090909,
                "pitch": 74,
                "velocity": 64,
                "duration": 0.36590909090907076,
                "tempo": 120.0
            },
            {
                "start_time": 138.9590909090909,
                "end_time": 139.1931818181818,
                "pitch": 74,
                "velocity": 64,
                "duration": 0.23409090909092356,
                "tempo": 120.0
            },
            {
                "start_time": 139.1931818181818,
                "end_time": 139.5681818181818,
                "pitch": 76,
                "velocity": 64,
                "duration": 0.375,
                "tempo": 120.0
            },
            {
                "start_time": 139.5681818181818,
                "end_time": 139.92045454545453,
                "pitch": 76,
                "velocity": 64,
                "duration": 0.3522727272727195,
                "tempo": 120.0
            },
            {
                "start_time": 139.92272727272726,
                "end_time": 140.17272727272726,
                "pitch": 76,
                "velocity": 64,
                "duration": 0.25,
                "tempo": 120.0
            },
            {
                "start_time": 140.17272727272726,
                "end_time": 140.52272727272725,
                "pitch": 77,
                "velocity": 64,
                "duration": 0.3499999999999943,
                "tempo": 120.0
            },
            {
                "start_time": 140.52272727272725,
                "end_time": 140.88636363636363,
                "pitch": 77,
                "velocity": 64,
                "duration": 0.36363636363637397,
                "tempo": 120.0
            },
            {
                "start_time": 140.88636363636363,
                "end_time": 141.11590909090907,
                "pitch": 77,
                "velocity": 64,
                "duration": 0.22954545454544473,
                "tempo": 120.0
            },
            {
                "start_time": 141.11590909090907,
                "end_time": 141.49090909090907,
                "pitch": 84,
                "velocity": 64,
                "duration": 0.375,
                "tempo": 120.0
            },
            {
                "start_time": 141.49090909090907,
                "end_time": 141.84772727272727,
                "pitch": 84,
                "velocity": 64,
                "duration": 0.35681818181819835,
                "tempo": 120.0
            },
            {
                "start_time": 141.84772727272727,
                "end_time": 142.09772727272727,
                "pitch": 84,
                "velocity": 64,
                "duration": 0.25,
                "tempo": 120.0
            },
            {
                "start_time": 142.1,
                "end_time": 142.45,
                "pitch": 84,
                "velocity": 64,
                "duration": 0.3499999999999943,
                "tempo": 120.0
            },
            {
                "start_time": 143.06136363636364,
                "end_time": 143.41363636363636,
                "pitch": 84,
                "velocity": 64,
                "duration": 0.3522727272727195,
                "tempo": 120.0
            },
            {
                "start_time": 143.78181818181818,
                "end_time": 144.625,
                "pitch": 84,
                "velocity": 64,
                "duration": 0.8431818181818187,
                "tempo": 120.0
            },
            {
                "start_time": 145.00227272727273,
                "end_time": 145.7159090909091,
                "pitch": 84,
                "velocity": 64,
                "duration": 0.7136363636363683,
                "tempo": 120.0
            },
            {
                "start_time": 145.94545454545454,
                "end_time": 146.3159090909091,
                "pitch": 72,
                "velocity": 64,
                "duration": 0.3704545454545496,
                "tempo": 120.0
            },
            {
                "start_time": 146.3159090909091,
                "end_time": 146.67272727272726,
                "pitch": 72,
                "velocity": 64,
                "duration": 0.35681818181816993,
                "tempo": 120.0
            },
            {
                "start_time": 146.67272727272726,
                "end_time": 147.04545454545453,
                "pitch": 72,
                "velocity": 64,
                "duration": 0.3727272727272748,
                "tempo": 120.0
            },
            {
                "start_time": 147.5340909090909,
                "end_time": 147.8840909090909,
                "pitch": 72,
                "velocity": 32,
                "duration": 0.3499999999999943,
                "tempo": 120.0
            },
            {
                "start_time": 147.8840909090909,
                "end_time": 148.24545454545455,
                "pitch": 74,
                "velocity": 64,
                "duration": 0.36136363636364877,
                "tempo": 120.0
            },
            {
                "start_time": 148.24545454545455,
                "end_time": 148.61590909090907,
                "pitch": 74,
                "velocity": 64,
                "duration": 0.37045454545452117,
                "tempo": 120.0
            },
            {
                "start_time": 148.61590909090907,
                "end_time": 148.97272727272727,
                "pitch": 74,
                "velocity": 64,
                "duration": 0.35681818181819835,
                "tempo": 120.0
            },
            {
                "start_time": 149.45681818181816,
                "end_time": 149.8272727272727,
                "pitch": 74,
                "velocity": 32,
                "duration": 0.3704545454545496,
                "tempo": 120.0
            },
            {
                "start_time": 149.8272727272727,
                "end_time": 150.18636363636364,
                "pitch": 72,
                "velocity": 64,
                "duration": 0.35909090909092356,
                "tempo": 120.0
            },
            {
                "start_time": 150.18636363636364,
                "end_time": 150.54545454545453,
                "pitch": 72,
                "velocity": 64,
                "duration": 0.35909090909089514,
                "tempo": 120.0
            },
            {
                "start_time": 150.54772727272726,
                "end_time": 150.89090909090908,
                "pitch": 72,
                "velocity": 64,
                "duration": 0.3431818181818187,
                "tempo": 120.0
            },
            {
                "start_time": 151.3840909090909,
                "end_time": 151.75,
                "pitch": 72,
                "velocity": 32,
                "duration": 0.3659090909090992,
                "tempo": 120.0
            },
            {
                "start_time": 151.75227272727273,
                "end_time": 152.1090909090909,
                "pitch": 72,
                "velocity": 64,
                "duration": 0.35681818181816993,
                "tempo": 120.0
            },
            {
                "start_time": 152.1090909090909,
                "end_time": 152.47954545454544,
                "pitch": 72,
                "velocity": 64,
                "duration": 0.3704545454545496,
                "tempo": 120.0
            },
            {
                "start_time": 152.47954545454544,
                "end_time": 152.71363636363637,
                "pitch": 72,
                "velocity": 64,
                "duration": 0.23409090909092356,
                "tempo": 120.0
            },
            {
                "start_time": 152.71363636363637,
                "end_time": 153.075,
                "pitch": 74,
                "velocity": 64,
                "duration": 0.36136363636362034,
                "tempo": 120.0
            },
            {
                "start_time": 153.075,
                "end_time": 153.4431818181818,
                "pitch": 74,
                "velocity": 64,
                "duration": 0.3681818181818244,
                "tempo": 120.0
            },
            {
                "start_time": 153.4431818181818,
                "end_time": 153.6772727272727,
                "pitch": 74,
                "velocity": 64,
                "duration": 0.23409090909089514,
                "tempo": 120.0
            },
            {
                "start_time": 153.6772727272727,
                "end_time": 154.05454545454543,
                "pitch": 72,
                "velocity": 64,
                "duration": 0.3772727272727252,
                "tempo": 120.0
            },
            {
                "start_time": 154.05454545454543,
                "end_time": 154.4090909090909,
                "pitch": 72,
                "velocity": 64,
                "duration": 0.35454545454547315,
                "tempo": 120.0
            },
            {
                "start_time": 154.4090909090909,
                "end_time": 154.77727272727273,
                "pitch": 72,
                "velocity": 64,
                "duration": 0.3681818181818244,
                "tempo": 120.0
            },
            {
                "start_time": 155.26136363636363,
                "end_time": 155.60454545454544,
                "pitch": 72,
                "velocity": 32,
                "duration": 0.3431818181818187,
                "tempo": 120.0
            },
            {
                "start_time": 155.60454545454544,
                "end_time": 155.97954545454544,
                "pitch": 74,
                "velocity": 64,
                "duration": 0.375,
                "tempo": 120.0
            },
            {
                "start_time": 155.98181818181817,
                "end_time": 156.3340909090909,
                "pitch": 74,
                "velocity": 64,
                "duration": 0.3522727272727195,
                "tempo": 120.0
            },
            {
                "start_time": 156.3340909090909,
                "end_time": 156.7,
                "pitch": 74,
                "velocity": 64,
                "duration": 0.3659090909090992,
                "tempo": 120.0
            },
            {
                "start_time": 157.18863636363636,
                "end_time": 157.54772727272726,
                "pitch": 74,
                "velocity": 32,
                "duration": 0.35909090909089514,
                "tempo": 120.0
            },
            {
                "start_time": 157.54772727272726,
                "end_time": 157.9090909090909,
                "pitch": 72,
                "velocity": 64,
                "duration": 0.36136363636364877,
                "tempo": 120.0
            },
            {
                "start_time": 157.9090909090909,
                "end_time": 158.27272727272725,
                "pitch": 72,
                "velocity": 64,
                "duration": 0.36363636363634555,
                "tempo": 120.0
            },
            {
                "start_time": 158.275,
                "end_time": 158.625,
                "pitch": 72,
                "velocity": 64,
                "duration": 0.3499999999999943,
                "tempo": 120.0
            },
            {
                "start_time": 159.11136363636362,
                "end_time": 159.47954545454544,
                "pitch": 72,
                "velocity": 32,
                "duration": 0.3681818181818244,
                "tempo": 120.0
            },
            {
                "start_time": 159.47954545454544,
                "end_time": 159.83863636363637,
                "pitch": 72,
                "velocity": 64,
                "duration": 0.35909090909092356,
                "tempo": 120.0
            },
            {
                "start_time": 159.83863636363637,
                "end_time": 160.20454545454544,
                "pitch": 72,
                "velocity": 64,
                "duration": 0.36590909090907076,
                "tempo": 120.0
            },
            {
                "start_time": 160.20454545454544,
                "end_time": 160.4340909090909,
                "pitch": 72,
                "velocity": 64,
                "duration": 0.22954545454547315,
                "tempo": 120.0
            },
            {
                "start_time": 160.4340909090909,
                "end_time": 160.8022727272727,
                "pitch": 72,
                "velocity": 64,
                "duration": 0.36818181818179596,
                "tempo": 120.0
            },
            {
                "start_time": 160.8022727272727,
                "end_time": 161.15454545454546,
                "pitch": 72,
                "velocity": 64,
                "duration": 0.35227272727274794,
                "tempo": 120.0
            },
            {
                "start_time": 161.15454545454546,
                "end_time": 161.40681818181818,
                "pitch": 72,
                "velocity": 64,
                "duration": 0.2522727272727252,
                "tempo": 120.0
            },
            {
                "start_time": 161.40681818181818,
                "end_time": 161.76590909090908,
                "pitch": 74,
                "velocity": 64,
                "duration": 0.35909090909089514,
                "tempo": 120.0
            },
            {
                "start_time": 161.76590909090908,
                "end_time": 162.13636363636363,
                "pitch": 74,
                "velocity": 64,
                "duration": 0.3704545454545496,
                "tempo": 120.0
            },
            {
                "start_time": 162.13636363636363,
                "end_time": 162.37272727272727,
                "pitch": 74,
                "velocity": 64,
                "duration": 0.23636363636364877,
                "tempo": 120.0
            },
            {
                "start_time": 162.37272727272727,
                "end_time": 162.7340909090909,
                "pitch": 76,
                "velocity": 64,
                "duration": 0.36136363636362034,
                "tempo": 120.0
            },
            {
                "start_time": 162.7340909090909,
                "end_time": 163.1,
                "pitch": 76,
                "velocity": 64,
                "duration": 0.3659090909090992,
                "tempo": 120.0
            },
            {
                "start_time": 163.1,
                "end_time": 163.33181818181816,
                "pitch": 76,
                "velocity": 64,
                "duration": 0.23181818181816993,
                "tempo": 120.0
            },
            {
                "start_time": 163.3340909090909,
                "end_time": 163.7090909090909,
                "pitch": 77,
                "velocity": 64,
                "duration": 0.375,
                "tempo": 120.0
            },
            {
                "start_time": 163.7090909090909,
                "end_time": 164.06136363636364,
                "pitch": 77,
                "velocity": 64,
                "duration": 0.35227272727274794,
                "tempo": 120.0
            },
            {
                "start_time": 164.06136363636364,
                "end_time": 164.31363636363636,
                "pitch": 77,
                "velocity": 64,
                "duration": 0.2522727272727252,
                "tempo": 120.0
            },
            {
                "start_time": 164.31363636363636,
                "end_time": 164.67045454545453,
                "pitch": 84,
                "velocity": 64,
                "duration": 0.35681818181816993,
                "tempo": 120.0
            },
            {
                "start_time": 164.67272727272726,
                "end_time": 165.03181818181818,
                "pitch": 84,
                "velocity": 64,
                "duration": 0.35909090909092356,
                "tempo": 120.0
            },
            {
                "start_time": 165.03181818181818,
                "end_time": 165.25681818181818,
                "pitch": 84,
                "velocity": 64,
                "duration": 0.22499999999999432,
                "tempo": 120.0
            },
            {
                "start_time": 165.25681818181818,
                "end_time": 165.63181818181818,
                "pitch": 84,
                "velocity": 64,
                "duration": 0.375,
                "tempo": 120.0
            },
            {
                "start_time": 166.24090909090907,
                "end_time": 166.5909090909091,
                "pitch": 84,
                "velocity": 64,
                "duration": 0.35000000000002274,
                "tempo": 120.0
            },
            {
                "start_time": 166.96363636363637,
                "end_time": 167.79545454545453,
                "pitch": 84,
                "velocity": 64,
                "duration": 0.8318181818181642,
                "tempo": 120.0
            },
            {
                "start_time": 168.16363636363636,
                "end_time": 168.88636363636363,
                "pitch": 84,
                "velocity": 64,
                "duration": 0.7227272727272691,
                "tempo": 120.0
            },
            {
                "start_time": 169.1431818181818,
                "end_time": 169.4931818181818,
                "pitch": 74,
                "velocity": 64,
                "duration": 0.3499999999999943,
                "tempo": 120.0
            },
            {
                "start_time": 169.4931818181818,
                "end_time": 169.85681818181817,
                "pitch": 74,
                "velocity": 64,
                "duration": 0.36363636363637397,
                "tempo": 120.0
            },
            {
                "start_time": 169.85681818181817,
                "end_time": 170.08636363636361,
                "pitch": 74,
                "velocity": 64,
                "duration": 0.22954545454544473,
                "tempo": 120.0
            },
            {
                "start_time": 170.08636363636361,
                "end_time": 170.45681818181816,
                "pitch": 76,
                "velocity": 64,
                "duration": 0.3704545454545496,
                "tempo": 120.0
            },
            {
                "start_time": 170.45681818181816,
                "end_time": 170.81363636363636,
                "pitch": 76,
                "velocity": 64,
                "duration": 0.35681818181819835,
                "tempo": 120.0
            },
            {
                "start_time": 170.81363636363636,
                "end_time": 171.07045454545454,
                "pitch": 76,
                "velocity": 64,
                "duration": 0.2568181818181756,
                "tempo": 120.0
            },
            {
                "start_time": 171.07045454545454,
                "end_time": 171.42272727272726,
                "pitch": 77,
                "velocity": 64,
                "duration": 0.3522727272727195,
                "tempo": 120.0
            },
            {
                "start_time": 171.42272727272726,
                "end_time": 171.79090909090908,
                "pitch": 77,
                "velocity": 64,
                "duration": 0.3681818181818244,
                "tempo": 120.0
            },
            {
                "start_time": 171.79090909090908,
                "end_time": 172.025,
                "pitch": 77,
                "velocity": 64,
                "duration": 0.23409090909092356,
                "tempo": 120.0
            },
            {
                "start_time": 172.025,
                "end_time": 172.38636363636363,
                "pitch": 84,
                "velocity": 64,
                "duration": 0.36136363636362034,
                "tempo": 120.0
            },
            {
                "start_time": 172.38636363636363,
                "end_time": 172.75681818181818,
                "pitch": 84,
                "velocity": 64,
                "duration": 0.3704545454545496,
                "tempo": 120.0
            },
            {
                "start_time": 172.75681818181818,
                "end_time": 172.99545454545455,
                "pitch": 84,
                "velocity": 64,
                "duration": 0.23863636363637397,
                "tempo": 120.0
            },
            {
                "start_time": 172.99545454545455,
                "end_time": 173.36363636363635,
                "pitch": 84,
                "velocity": 64,
                "duration": 0.36818181818179596,
                "tempo": 120.0
            },
            {
                "start_time": 173.96818181818182,
                "end_time": 174.3272727272727,
                "pitch": 84,
                "velocity": 64,
                "duration": 0.35909090909089514,
                "tempo": 120.0
            },
            {
                "start_time": 174.6931818181818,
                "end_time": 175.52727272727273,
                "pitch": 84,
                "velocity": 64,
                "duration": 0.8340909090909179,
                "tempo": 120.0
            },
            {
                "start_time": 175.89545454545453,
                "end_time": 176.625,
                "pitch": 84,
                "velocity": 64,
                "duration": 0.7295454545454731,
                "tempo": 120.0
            }
        ],
        "Acoustic Bass": [
            {
                "start_time": 29.972727272727273,
                "end_time": 30.08863636363636,
                "pitch": 36,
                "velocity": 80,
                "duration": 0.11590909090908852,
                "tempo": 120.0
            },
            {
                "start_time": 30.08863636363636,
                "end_time": 30.227272727272727,
                "pitch": 36,
                "velocity": 80,
                "duration": 0.13863636363636545,
                "tempo": 120.0
            },
            {
                "start_time": 30.227272727272727,
                "end_time": 30.347727272727273,
                "pitch": 48,
                "velocity": 80,
                "duration": 0.12045454545454604,
                "tempo": 120.0
            },
            {
                "start_time": 30.347727272727273,
                "end_time": 30.46590909090909,
                "pitch": 36,
                "velocity": 80,
                "duration": 0.11818181818181728,
                "tempo": 120.0
            },
            {
                "start_time": 30.46590909090909,
                "end_time": 30.584090909090907,
                "pitch": 36,
                "velocity": 80,
                "duration": 0.11818181818181728,
                "tempo": 120.0
            },
            {
                "start_time": 30.584090909090907,
                "end_time": 30.702272727272724,
                "pitch": 48,
                "velocity": 80,
                "duration": 0.11818181818181728,
                "tempo": 120.0
            },
            {
                "start_time": 30.702272727272724,
                "end_time": 30.836363636363636,
                "pitch": 36,
                "velocity": 80,
                "duration": 0.13409090909091148,
                "tempo": 120.0
            },
            {
                "start_time": 30.836363636363636,
                "end_time": 30.954545454545453,
                "pitch": 36,
                "velocity": 80,
                "duration": 0.11818181818181728,
                "tempo": 120.0
            },
            {
                "start_time": 30.954545454545453,
                "end_time": 31.07272727272727,
                "pitch": 48,
                "velocity": 80,
                "duration": 0.11818181818181728,
                "tempo": 120.0
            },
            {
                "start_time": 31.07272727272727,
                "end_time": 31.188636363636363,
                "pitch": 36,
                "velocity": 80,
                "duration": 0.11590909090909207,
                "tempo": 120.0
            },
            {
                "start_time": 31.190909090909088,
                "end_time": 31.30681818181818,
                "pitch": 36,
                "velocity": 80,
                "duration": 0.11590909090909207,
                "tempo": 120.0
            },
            {
                "start_time": 31.30681818181818,
                "end_time": 31.440909090909088,
                "pitch": 48,
                "velocity": 80,
                "duration": 0.13409090909090793,
                "tempo": 120.0
            },
            {
                "start_time": 31.440909090909088,
                "end_time": 31.561363636363634,
                "pitch": 36,
                "velocity": 80,
                "duration": 0.12045454545454604,
                "tempo": 120.0
            },
            {
                "start_time": 31.561363636363634,
                "end_time": 31.677272727272726,
                "pitch": 36,
                "velocity": 80,
                "duration": 0.11590909090909207,
                "tempo": 120.0
            },
            {
                "start_time": 31.677272727272726,
                "end_time": 31.795454545454543,
                "pitch": 48,
                "velocity": 80,
                "duration": 0.11818181818181728,
                "tempo": 120.0
            },
            {
                "start_time": 31.795454545454543,
                "end_time": 31.91363636363636,
                "pitch": 36,
                "velocity": 80,
                "duration": 0.11818181818181728,
                "tempo": 120.0
            },
            {
                "start_time": 31.91363636363636,
                "end_time": 32.043181818181814,
                "pitch": 35,
                "velocity": 80,
                "duration": 0.12954545454545396,
                "tempo": 120.0
            },
            {
                "start_time": 32.043181818181814,
                "end_time": 32.15909090909091,
                "pitch": 35,
                "velocity": 80,
                "duration": 0.11590909090909207,
                "tempo": 120.0
            },
            {
                "start_time": 32.15909090909091,
                "end_time": 32.275,
                "pitch": 47,
                "velocity": 80,
                "duration": 0.11590909090909207,
                "tempo": 120.0
            },
            {
                "start_time": 32.275,
                "end_time": 32.388636363636365,
                "pitch": 35,
                "velocity": 80,
                "duration": 0.11363636363636687,
                "tempo": 120.0
            },
            {
                "start_time": 32.388636363636365,
                "end_time": 32.50909090909091,
                "pitch": 35,
                "velocity": 80,
                "duration": 0.12045454545454248,
                "tempo": 120.0
            },
            {
                "start_time": 32.50909090909091,
                "end_time": 32.64545454545454,
                "pitch": 47,
                "velocity": 80,
                "duration": 0.13636363636363313,
                "tempo": 120.0
            },
            {
                "start_time": 32.64772727272727,
                "end_time": 32.76590909090909,
                "pitch": 35,
                "velocity": 80,
                "duration": 0.11818181818181728,
                "tempo": 120.0
            },
            {
                "start_time": 32.76590909090909,
                "end_time": 32.88409090909091,
                "pitch": 35,
                "velocity": 80,
                "duration": 0.11818181818181728,
                "tempo": 120.0
            },
            {
                "start_time": 32.88409090909091,
                "end_time": 33.002272727272725,
                "pitch": 47,
                "velocity": 80,
                "duration": 0.11818181818181728,
                "tempo": 120.0
            },
            {
                "start_time": 33.002272727272725,
                "end_time": 33.11818181818182,
                "pitch": 35,
                "velocity": 80,
                "duration": 0.11590909090909207,
                "tempo": 120.0
            },
            {
                "start_time": 33.11818181818182,
                "end_time": 33.252272727272725,
                "pitch": 35,
                "velocity": 80,
                "duration": 0.13409090909090793,
                "tempo": 120.0
            },
            {
                "start_time": 33.252272727272725,
                "end_time": 33.36818181818182,
                "pitch": 47,
                "velocity": 80,
                "duration": 0.11590909090909207,
                "tempo": 120.0
            },
            {
                "start_time": 33.36818181818182,
                "end_time": 33.486363636363635,
                "pitch": 35,
                "velocity": 80,
                "duration": 0.11818181818181728,
                "tempo": 120.0
            },
            {
                "start_time": 33.486363636363635,
                "end_time": 33.60454545454545,
                "pitch": 35,
                "velocity": 80,
                "duration": 0.11818181818181728,
                "tempo": 120.0
            },
            {
                "start_time": 33.60454545454545,
                "end_time": 33.72272727272727,
                "pitch": 47,
                "velocity": 80,
                "duration": 0.11818181818181728,
                "tempo": 120.0
            },
            {
                "start_time": 33.72272727272727,
                "end_time": 33.85681818181818,
                "pitch": 35,
                "velocity": 80,
                "duration": 0.13409090909090793,
                "tempo": 120.0
            },
            {
                "start_time": 33.85909090909091,
                "end_time": 33.975,
                "pitch": 33,
                "velocity": 80,
                "duration": 0.11590909090909207,
                "tempo": 120.0
            },
            {
                "start_time": 33.975,
                "end_time": 34.095454545454544,
                "pitch": 33,
                "velocity": 80,
                "duration": 0.12045454545454248,
                "tempo": 120.0
            },
            {
                "start_time": 34.095454545454544,
                "end_time": 34.215909090909086,
                "pitch": 45,
                "velocity": 80,
                "duration": 0.12045454545454248,
                "tempo": 120.0
            },
            {
                "start_time": 34.215909090909086,
                "end_time": 34.33409090909091,
                "pitch": 33,
                "velocity": 80,
                "duration": 0.11818181818182438,
                "tempo": 120.0
            },
            {
                "start_time": 34.33409090909091,
                "end_time": 34.465909090909086,
                "pitch": 33,
                "velocity": 80,
                "duration": 0.13181818181817562,
                "tempo": 120.0
            },
            {
                "start_time": 34.465909090909086,
                "end_time": 34.58181818181818,
                "pitch": 45,
                "velocity": 80,
                "duration": 0.11590909090909207,
                "tempo": 120.0
            },
            {
                "start_time": 34.58181818181818,
                "end_time": 34.69772727272727,
                "pitch": 33,
                "velocity": 80,
                "duration": 0.11590909090909207,
                "tempo": 120.0
            },
            {
                "start_time": 34.69772727272727,
                "end_time": 34.81136363636364,
                "pitch": 33,
                "velocity": 80,
                "duration": 0.11363636363636687,
                "tempo": 120.0
            },
            {
                "start_time": 34.81136363636364,
                "end_time": 34.929545454545455,
                "pitch": 45,
                "velocity": 80,
                "duration": 0.11818181818181728,
                "tempo": 120.0
            },
            {
                "start_time": 34.929545454545455,
                "end_time": 35.06136363636364,
                "pitch": 33,
                "velocity": 80,
                "duration": 0.13181818181818272,
                "tempo": 120.0
            },
            {
                "start_time": 35.06136363636364,
                "end_time": 35.179545454545455,
                "pitch": 33,
                "velocity": 80,
                "duration": 0.11818181818181728,
                "tempo": 120.0
            },
            {
                "start_time": 35.179545454545455,
                "end_time": 35.29545454545455,
                "pitch": 45,
                "velocity": 80,
                "duration": 0.11590909090909207,
                "tempo": 120.0
            },
            {
                "start_time": 35.29545454545455,
                "end_time": 35.413636363636364,
                "pitch": 33,
                "velocity": 80,
                "duration": 0.11818181818181728,
                "tempo": 120.0
            },
            {
                "start_time": 35.413636363636364,
                "end_time": 35.53181818181818,
                "pitch": 33,
                "velocity": 80,
                "duration": 0.11818181818181728,
                "tempo": 120.0
            },
            {
                "start_time": 35.53181818181818,
                "end_time": 35.66590909090909,
                "pitch": 45,
                "velocity": 80,
                "duration": 0.13409090909090793,
                "tempo": 120.0
            },
            {
                "start_time": 35.66590909090909,
                "end_time": 35.78409090909091,
                "pitch": 33,
                "velocity": 80,
                "duration": 0.11818181818181728,
                "tempo": 120.0
            },
            {
                "start_time": 35.78409090909091,
                "end_time": 35.902272727272724,
                "pitch": 29,
                "velocity": 80,
                "duration": 0.11818181818181728,
                "tempo": 120.0
            },
            {
                "start_time": 35.902272727272724,
                "end_time": 36.02272727272727,
                "pitch": 29,
                "velocity": 80,
                "duration": 0.12045454545454959,
                "tempo": 120.0
            },
            {
                "start_time": 36.02272727272727,
                "end_time": 36.143181818181816,
                "pitch": 41,
                "velocity": 80,
                "duration": 0.12045454545454248,
                "tempo": 120.0
            },
            {
                "start_time": 36.143181818181816,
                "end_time": 36.279545454545456,
                "pitch": 29,
                "velocity": 80,
                "duration": 0.13636363636364024,
                "tempo": 120.0
            },
            {
                "start_time": 36.279545454545456,
                "end_time": 36.39545454545454,
                "pitch": 29,
                "velocity": 80,
                "duration": 0.11590909090908497,
                "tempo": 120.0
            },
            {
                "start_time": 36.39545454545454,
                "end_time": 36.51590909090909,
                "pitch": 41,
                "velocity": 80,
                "duration": 0.12045454545454959,
                "tempo": 120.0
            },
            {
                "start_time": 36.51590909090909,
                "end_time": 36.63181818181818,
                "pitch": 29,
                "velocity": 80,
                "duration": 0.11590909090909207,
                "tempo": 120.0
            },
            {
                "start_time": 36.63181818181818,
                "end_time": 36.75,
                "pitch": 29,
                "velocity": 80,
                "duration": 0.11818181818181728,
                "tempo": 120.0
            },
            {
                "start_time": 36.75,
                "end_time": 36.88181818181818,
                "pitch": 43,
                "velocity": 80,
                "duration": 0.13181818181818272,
                "tempo": 120.0
            },
            {
                "start_time": 36.88181818181818,
                "end_time": 36.99772727272727,
                "pitch": 31,
                "velocity": 80,
                "duration": 0.11590909090908497,
                "tempo": 120.0
            },
            {
                "start_time": 36.99772727272727,
                "end_time": 37.111363636363635,
                "pitch": 31,
                "velocity": 80,
                "duration": 0.11363636363636687,
                "tempo": 120.0
            },
            {
                "start_time": 37.11363636363636,
                "end_time": 37.22727272727273,
                "pitch": 43,
                "velocity": 80,
                "duration": 0.11363636363636687,
                "tempo": 120.0
            },
            {
                "start_time": 37.22727272727273,
                "end_time": 37.34318181818182,
                "pitch": 31,
                "velocity": 80,
                "duration": 0.11590909090909207,
                "tempo": 120.0
            },
            {
                "start_time": 37.34318181818182,
                "end_time": 37.47727272727273,
                "pitch": 31,
                "velocity": 80,
                "duration": 0.13409090909090793,
                "tempo": 120.0
            },
            {
                "start_time": 37.47727272727273,
                "end_time": 37.59318181818182,
                "pitch": 43,
                "velocity": 80,
                "duration": 0.11590909090909207,
                "tempo": 120.0
            },
            {
                "start_time": 37.59318181818182,
                "end_time": 37.711363636363636,
                "pitch": 31,
                "velocity": 80,
                "duration": 0.11818181818181728,
                "tempo": 120.0
            },
            {
                "start_time": 37.711363636363636,
                "end_time": 37.82954545454545,
                "pitch": 36,
                "velocity": 80,
                "duration": 0.11818181818181728,
                "tempo": 120.0
            },
            {
                "start_time": 37.82954545454545,
                "end_time": 37.949999999999996,
                "pitch": 36,
                "velocity": 80,
                "duration": 0.12045454545454248,
                "tempo": 120.0
            },
            {
                "start_time": 37.949999999999996,
                "end_time": 38.086363636363636,
                "pitch": 48,
                "velocity": 80,
                "duration": 0.13636363636364024,
                "tempo": 120.0
            },
            {
                "start_time": 38.08863636363636,
                "end_time": 38.20681818181818,
                "pitch": 36,
                "velocity": 80,
                "duration": 0.11818181818181728,
                "tempo": 120.0
            },
            {
                "start_time": 38.20681818181818,
                "end_time": 38.32272727272727,
                "pitch": 36,
                "velocity": 80,
                "duration": 0.11590909090909207,
                "tempo": 120.0
            },
            {
                "start_time": 38.32272727272727,
                "end_time": 38.44090909090909,
                "pitch": 48,
                "velocity": 80,
                "duration": 0.11818181818181728,
                "tempo": 120.0
            },
            {
                "start_time": 38.44090909090909,
                "end_time": 38.55681818181818,
                "pitch": 36,
                "velocity": 80,
                "duration": 0.11590909090909207,
                "tempo": 120.0
            },
            {
                "start_time": 38.55681818181818,
                "end_time": 38.68863636363636,
                "pitch": 36,
                "velocity": 80,
                "duration": 0.13181818181818272,
                "tempo": 120.0
            },
            {
                "start_time": 38.69090909090909,
                "end_time": 38.809090909090905,
                "pitch": 48,
                "velocity": 80,
                "duration": 0.11818181818181728,
                "tempo": 120.0
            },
            {
                "start_time": 38.809090909090905,
                "end_time": 38.925,
                "pitch": 36,
                "velocity": 80,
                "duration": 0.11590909090909207,
                "tempo": 120.0
            },
            {
                "start_time": 38.925,
                "end_time": 39.043181818181814,
                "pitch": 36,
                "velocity": 80,
                "duration": 0.11818181818181728,
                "tempo": 120.0
            },
            {
                "start_time": 39.043181818181814,
                "end_time": 39.16136363636363,
                "pitch": 48,
                "velocity": 80,
                "duration": 0.11818181818181728,
                "tempo": 120.0
            },
            {
                "start_time": 39.16136363636363,
                "end_time": 39.293181818181814,
                "pitch": 36,
                "velocity": 80,
                "duration": 0.13181818181818272,
                "tempo": 120.0
            },
            {
                "start_time": 39.293181818181814,
                "end_time": 39.40681818181818,
                "pitch": 36,
                "velocity": 80,
                "duration": 0.11363636363636687,
                "tempo": 120.0
            },
            {
                "start_time": 39.40681818181818,
                "end_time": 39.52272727272727,
                "pitch": 48,
                "velocity": 80,
                "duration": 0.11590909090909207,
                "tempo": 120.0
            },
            {
                "start_time": 39.52272727272727,
                "end_time": 39.63863636363636,
                "pitch": 36,
                "velocity": 80,
                "duration": 0.11590909090908497,
                "tempo": 120.0
            },
            {
                "start_time": 39.63863636363636,
                "end_time": 39.75681818181818,
                "pitch": 35,
                "velocity": 80,
                "duration": 0.11818181818182438,
                "tempo": 120.0
            },
            {
                "start_time": 39.75681818181818,
                "end_time": 39.893181818181816,
                "pitch": 35,
                "velocity": 80,
                "duration": 0.13636363636363313,
                "tempo": 120.0
            },
            {
                "start_time": 39.893181818181816,
                "end_time": 40.01363636363636,
                "pitch": 47,
                "velocity": 80,
                "duration": 0.12045454545454248,
                "tempo": 120.0
            },
            {
                "start_time": 40.01363636363636,
                "end_time": 40.13181818181818,
                "pitch": 35,
                "velocity": 80,
                "duration": 0.11818181818182438,
                "tempo": 120.0
            },
            {
                "start_time": 40.13181818181818,
                "end_time": 40.25,
                "pitch": 35,
                "velocity": 80,
                "duration": 0.11818181818181728,
                "tempo": 120.0
            },
            {
                "start_time": 40.25,
                "end_time": 40.36818181818182,
                "pitch": 47,
                "velocity": 80,
                "duration": 0.11818181818181728,
                "tempo": 120.0
            },
            {
                "start_time": 40.36818181818182,
                "end_time": 40.5,
                "pitch": 35,
                "velocity": 80,
                "duration": 0.13181818181818272,
                "tempo": 120.0
            },
            {
                "start_time": 40.5,
                "end_time": 40.61590909090909,
                "pitch": 35,
                "velocity": 80,
                "duration": 0.11590909090909207,
                "tempo": 120.0
            },
            {
                "start_time": 40.61590909090909,
                "end_time": 40.736363636363635,
                "pitch": 47,
                "velocity": 80,
                "duration": 0.12045454545454248,
                "tempo": 120.0
            },
            {
                "start_time": 40.736363636363635,
                "end_time": 40.85227272727273,
                "pitch": 35,
                "velocity": 80,
                "duration": 0.11590909090909207,
                "tempo": 120.0
            },
            {
                "start_time": 40.85227272727273,
                "end_time": 40.970454545454544,
                "pitch": 35,
                "velocity": 80,
                "duration": 0.11818181818181728,
                "tempo": 120.0
            },
            {
                "start_time": 40.970454545454544,
                "end_time": 41.10454545454545,
                "pitch": 47,
                "velocity": 80,
                "duration": 0.13409090909090793,
                "tempo": 120.0
            },
            {
                "start_time": 41.10454545454545,
                "end_time": 41.225,
                "pitch": 35,
                "velocity": 80,
                "duration": 0.12045454545454959,
                "tempo": 120.0
            },
            {
                "start_time": 41.225,
                "end_time": 41.34318181818182,
                "pitch": 35,
                "velocity": 80,
                "duration": 0.11818181818181728,
                "tempo": 120.0
            },
            {
                "start_time": 41.345454545454544,
                "end_time": 41.46363636363636,
                "pitch": 47,
                "velocity": 80,
                "duration": 0.11818181818181728,
                "tempo": 120.0
            },
            {
                "start_time": 41.46363636363636,
                "end_time": 41.584090909090904,
                "pitch": 35,
                "velocity": 80,
                "duration": 0.12045454545454248,
                "tempo": 120.0
            },
            {
                "start_time": 41.584090909090904,
                "end_time": 41.71363636363636,
                "pitch": 33,
                "velocity": 80,
                "duration": 0.12954545454545752,
                "tempo": 120.0
            },
            {
                "start_time": 41.71363636363636,
                "end_time": 41.82954545454545,
                "pitch": 33,
                "velocity": 80,
                "duration": 0.11590909090909207,
                "tempo": 120.0
            },
            {
                "start_time": 41.82954545454545,
                "end_time": 41.945454545454545,
                "pitch": 45,
                "velocity": 80,
                "duration": 0.11590909090909207,
                "tempo": 120.0
            },
            {
                "start_time": 41.945454545454545,
                "end_time": 42.059090909090905,
                "pitch": 33,
                "velocity": 80,
                "duration": 0.11363636363635976,
                "tempo": 120.0
            },
            {
                "start_time": 42.059090909090905,
                "end_time": 42.175,
                "pitch": 33,
                "velocity": 80,
                "duration": 0.11590909090909207,
                "tempo": 120.0
            },
            {
                "start_time": 42.17727272727272,
                "end_time": 42.31136363636364,
                "pitch": 45,
                "velocity": 80,
                "duration": 0.13409090909091503,
                "tempo": 120.0
            },
            {
                "start_time": 42.31136363636364,
                "end_time": 42.42727272727272,
                "pitch": 33,
                "velocity": 80,
                "duration": 0.11590909090908497,
                "tempo": 120.0
            },
            {
                "start_time": 42.42727272727272,
                "end_time": 42.543181818181814,
                "pitch": 33,
                "velocity": 80,
                "duration": 0.11590909090909207,
                "tempo": 120.0
            },
            {
                "start_time": 42.543181818181814,
                "end_time": 42.66136363636363,
                "pitch": 45,
                "velocity": 80,
                "duration": 0.11818181818181728,
                "tempo": 120.0
            },
            {
                "start_time": 42.66136363636363,
                "end_time": 42.777272727272724,
                "pitch": 33,
                "velocity": 80,
                "duration": 0.11590909090909207,
                "tempo": 120.0
            },
            {
                "start_time": 42.777272727272724,
                "end_time": 42.91136363636363,
                "pitch": 33,
                "velocity": 80,
                "duration": 0.13409090909090793,
                "tempo": 120.0
            },
            {
                "start_time": 42.91136363636363,
                "end_time": 43.027272727272724,
                "pitch": 45,
                "velocity": 80,
                "duration": 0.11590909090909207,
                "tempo": 120.0
            },
            {
                "start_time": 43.027272727272724,
                "end_time": 43.14772727272727,
                "pitch": 33,
                "velocity": 80,
                "duration": 0.12045454545454959,
                "tempo": 120.0
            },
            {
                "start_time": 43.14772727272727,
                "end_time": 43.26590909090909,
                "pitch": 33,
                "velocity": 80,
                "duration": 0.11818181818181728,
                "tempo": 120.0
            },
            {
                "start_time": 43.268181818181816,
                "end_time": 43.38636363636363,
                "pitch": 45,
                "velocity": 80,
                "duration": 0.11818181818181728,
                "tempo": 120.0
            },
            {
                "start_time": 43.38636363636363,
                "end_time": 43.525,
                "pitch": 33,
                "velocity": 80,
                "duration": 0.13863636363636545,
                "tempo": 120.0
            },
            {
                "start_time": 43.525,
                "end_time": 43.64090909090909,
                "pitch": 29,
                "velocity": 80,
                "duration": 0.11590909090909207,
                "tempo": 120.0
            },
            {
                "start_time": 43.64090909090909,
                "end_time": 43.75909090909091,
                "pitch": 29,
                "velocity": 80,
                "duration": 0.11818181818181728,
                "tempo": 120.0
            },
            {
                "start_time": 43.75909090909091,
                "end_time": 43.877272727272725,
                "pitch": 41,
                "velocity": 80,
                "duration": 0.11818181818181728,
                "tempo": 120.0
            },
            {
                "start_time": 43.877272727272725,
                "end_time": 43.99318181818182,
                "pitch": 29,
                "velocity": 80,
                "duration": 0.11590909090909207,
                "tempo": 120.0
            },
            {
                "start_time": 43.99318181818182,
                "end_time": 44.125,
                "pitch": 29,
                "velocity": 80,
                "duration": 0.13181818181818272,
                "tempo": 120.0
            },
            {
                "start_time": 44.125,
                "end_time": 44.24090909090909,
                "pitch": 41,
                "velocity": 80,
                "duration": 0.11590909090909207,
                "tempo": 120.0
            },
            {
                "start_time": 44.24090909090909,
                "end_time": 44.35681818181818,
                "pitch": 29,
                "velocity": 80,
                "duration": 0.11590909090908497,
                "tempo": 120.0
            },
            {
                "start_time": 44.35681818181818,
                "end_time": 44.470454545454544,
                "pitch": 29,
                "velocity": 80,
                "duration": 0.11363636363636687,
                "tempo": 120.0
            },
            {
                "start_time": 44.470454545454544,
                "end_time": 44.58863636363636,
                "pitch": 41,
                "velocity": 80,
                "duration": 0.11818181818181728,
                "tempo": 120.0
            },
            {
                "start_time": 44.58863636363636,
                "end_time": 44.720454545454544,
                "pitch": 29,
                "velocity": 80,
                "duration": 0.13181818181818272,
                "tempo": 120.0
            },
            {
                "start_time": 44.720454545454544,
                "end_time": 44.83863636363636,
                "pitch": 29,
                "velocity": 80,
                "duration": 0.11818181818181728,
                "tempo": 120.0
            },
            {
                "start_time": 44.83863636363636,
                "end_time": 44.95454545454545,
                "pitch": 41,
                "velocity": 80,
                "duration": 0.11590909090909207,
                "tempo": 120.0
            },
            {
                "start_time": 44.95454545454545,
                "end_time": 45.074999999999996,
                "pitch": 29,
                "velocity": 80,
                "duration": 0.12045454545454248,
                "tempo": 120.0
            },
            {
                "start_time": 45.074999999999996,
                "end_time": 45.195454545454545,
                "pitch": 29,
                "velocity": 80,
                "duration": 0.12045454545454959,
                "tempo": 120.0
            },
            {
                "start_time": 45.195454545454545,
                "end_time": 45.33181818181818,
                "pitch": 41,
                "velocity": 80,
                "duration": 0.13636363636363313,
                "tempo": 120.0
            },
            {
                "start_time": 45.33181818181818,
                "end_time": 45.45227272727273,
                "pitch": 29,
                "velocity": 80,
                "duration": 0.12045454545454959,
                "tempo": 120.0
            },
            {
                "start_time": 45.45227272727273,
                "end_time": 45.56590909090909,
                "pitch": 36,
                "velocity": 80,
                "duration": 0.11363636363635976,
                "tempo": 120.0
            },
            {
                "start_time": 45.56590909090909,
                "end_time": 45.684090909090905,
                "pitch": 36,
                "velocity": 80,
                "duration": 0.11818181818181728,
                "tempo": 120.0
            },
            {
                "start_time": 45.684090909090905,
                "end_time": 45.80227272727272,
                "pitch": 48,
                "velocity": 80,
                "duration": 0.11818181818181728,
                "tempo": 120.0
            },
            {
                "start_time": 45.80227272727272,
                "end_time": 45.934090909090905,
                "pitch": 36,
                "velocity": 80,
                "duration": 0.13181818181818272,
                "tempo": 120.0
            },
            {
                "start_time": 45.934090909090905,
                "end_time": 46.05227272727272,
                "pitch": 36,
                "velocity": 80,
                "duration": 0.11818181818181728,
                "tempo": 120.0
            },
            {
                "start_time": 46.05227272727272,
                "end_time": 46.17045454545455,
                "pitch": 48,
                "velocity": 80,
                "duration": 0.11818181818182438,
                "tempo": 120.0
            },
            {
                "start_time": 46.17045454545455,
                "end_time": 46.288636363636364,
                "pitch": 36,
                "velocity": 80,
                "duration": 0.11818181818181728,
                "tempo": 120.0
            },
            {
                "start_time": 46.288636363636364,
                "end_time": 46.40454545454545,
                "pitch": 36,
                "velocity": 80,
                "duration": 0.11590909090908497,
                "tempo": 120.0
            },
            {
                "start_time": 46.40454545454545,
                "end_time": 46.53636363636363,
                "pitch": 48,
                "velocity": 80,
                "duration": 0.13181818181818272,
                "tempo": 120.0
            },
            {
                "start_time": 46.538636363636364,
                "end_time": 46.652272727272724,
                "pitch": 36,
                "velocity": 80,
                "duration": 0.11363636363635976,
                "tempo": 120.0
            },
            {
                "start_time": 46.652272727272724,
                "end_time": 46.76590909090909,
                "pitch": 36,
                "velocity": 80,
                "duration": 0.11363636363636687,
                "tempo": 120.0
            },
            {
                "start_time": 46.76590909090909,
                "end_time": 46.88181818181818,
                "pitch": 48,
                "velocity": 80,
                "duration": 0.11590909090909207,
                "tempo": 120.0
            },
            {
                "start_time": 46.88181818181818,
                "end_time": 47.0,
                "pitch": 36,
                "velocity": 80,
                "duration": 0.11818181818181728,
                "tempo": 120.0
            },
            {
                "start_time": 47.0,
                "end_time": 47.13181818181818,
                "pitch": 36,
                "velocity": 80,
                "duration": 0.13181818181818272,
                "tempo": 120.0
            },
            {
                "start_time": 47.13181818181818,
                "end_time": 47.24772727272727,
                "pitch": 48,
                "velocity": 80,
                "duration": 0.11590909090908497,
                "tempo": 120.0
            },
            {
                "start_time": 47.25,
                "end_time": 47.36590909090909,
                "pitch": 36,
                "velocity": 80,
                "duration": 0.11590909090909207,
                "tempo": 120.0
            },
            {
                "start_time": 47.36818181818182,
                "end_time": 47.48409090909091,
                "pitch": 35,
                "velocity": 80,
                "duration": 0.11590909090909207,
                "tempo": 120.0
            },
            {
                "start_time": 47.48409090909091,
                "end_time": 47.60454545454545,
                "pitch": 35,
                "velocity": 80,
                "duration": 0.12045454545454248,
                "tempo": 120.0
            },
            {
                "start_time": 47.60454545454545,
                "end_time": 47.74318181818182,
                "pitch": 47,
                "velocity": 80,
                "duration": 0.13863636363636545,
                "tempo": 120.0
            },
            {
                "start_time": 47.74318181818182,
                "end_time": 47.861363636363635,
                "pitch": 35,
                "velocity": 80,
                "duration": 0.11818181818181728,
                "tempo": 120.0
            },
            {
                "start_time": 47.861363636363635,
                "end_time": 47.97954545454545,
                "pitch": 35,
                "velocity": 80,
                "duration": 0.11818181818181728,
                "tempo": 120.0
            },
            {
                "start_time": 47.97954545454545,
                "end_time": 48.09772727272727,
                "pitch": 47,
                "velocity": 80,
                "duration": 0.11818181818181728,
                "tempo": 120.0
            },
            {
                "start_time": 48.09772727272727,
                "end_time": 48.21363636363636,
                "pitch": 35,
                "velocity": 80,
                "duration": 0.11590909090909207,
                "tempo": 120.0
            },
            {
                "start_time": 48.215909090909086,
                "end_time": 48.34772727272727,
                "pitch": 35,
                "velocity": 80,
                "duration": 0.13181818181818272,
                "tempo": 120.0
            },
            {
                "start_time": 48.349999999999994,
                "end_time": 48.470454545454544,
                "pitch": 47,
                "velocity": 80,
                "duration": 0.12045454545454959,
                "tempo": 120.0
            },
            {
                "start_time": 48.470454545454544,
                "end_time": 48.58863636363636,
                "pitch": 35,
                "velocity": 80,
                "duration": 0.11818181818181728,
                "tempo": 120.0
            },
            {
                "start_time": 48.58863636363636,
                "end_time": 48.709090909090904,
                "pitch": 35,
                "velocity": 80,
                "duration": 0.12045454545454248,
                "tempo": 120.0
            },
            {
                "start_time": 48.709090909090904,
                "end_time": 48.82727272727273,
                "pitch": 47,
                "velocity": 80,
                "duration": 0.11818181818182438,
                "tempo": 120.0
            },
            {
                "start_time": 48.82727272727273,
                "end_time": 48.95681818181818,
                "pitch": 35,
                "velocity": 80,
                "duration": 0.1295454545454504,
                "tempo": 120.0
            },
            {
                "start_time": 48.95681818181818,
                "end_time": 49.06818181818181,
                "pitch": 35,
                "velocity": 80,
                "duration": 0.11136363636363455,
                "tempo": 120.0
            },
            {
                "start_time": 49.06818181818181,
                "end_time": 49.179545454545455,
                "pitch": 47,
                "velocity": 80,
                "duration": 0.11136363636364166,
                "tempo": 120.0
            },
            {
                "start_time": 49.18181818181818,
                "end_time": 49.293181818181814,
                "pitch": 35,
                "velocity": 80,
                "duration": 0.11136363636363455,
                "tempo": 120.0
            },
            {
                "start_time": 49.293181818181814,
                "end_time": 49.41136363636363,
                "pitch": 33,
                "velocity": 80,
                "duration": 0.11818181818181728,
                "tempo": 120.0
            },
            {
                "start_time": 49.41136363636363,
                "end_time": 49.55,
                "pitch": 33,
                "velocity": 80,
                "duration": 0.13863636363636545,
                "tempo": 120.0
            },
            {
                "start_time": 49.55,
                "end_time": 49.67045454545454,
                "pitch": 45,
                "velocity": 80,
                "duration": 0.12045454545454248,
                "tempo": 120.0
            },
            {
                "start_time": 49.67045454545454,
                "end_time": 49.788636363636364,
                "pitch": 33,
                "velocity": 80,
                "duration": 0.11818181818182438,
                "tempo": 120.0
            },
            {
                "start_time": 49.788636363636364,
                "end_time": 49.90454545454545,
                "pitch": 33,
                "velocity": 80,
                "duration": 0.11590909090908497,
                "tempo": 120.0
            },
            {
                "start_time": 49.90454545454545,
                "end_time": 50.02272727272727,
                "pitch": 45,
                "velocity": 80,
                "duration": 0.11818181818182438,
                "tempo": 120.0
            },
            {
                "start_time": 50.02272727272727,
                "end_time": 50.15454545454545,
                "pitch": 33,
                "velocity": 80,
                "duration": 0.13181818181817562,
                "tempo": 120.0
            },
            {
                "start_time": 50.15681818181818,
                "end_time": 50.27272727272727,
                "pitch": 33,
                "velocity": 80,
                "duration": 0.11590909090909207,
                "tempo": 120.0
            },
            {
                "start_time": 50.27272727272727,
                "end_time": 50.39090909090909,
                "pitch": 45,
                "velocity": 80,
                "duration": 0.11818181818181728,
                "tempo": 120.0
            },
            {
                "start_time": 50.39090909090909,
                "end_time": 50.50909090909091,
                "pitch": 33,
                "velocity": 80,
                "duration": 0.11818181818181728,
                "tempo": 120.0
            },
            {
                "start_time": 50.50909090909091,
                "end_time": 50.625,
                "pitch": 33,
                "velocity": 80,
                "duration": 0.11590909090909207,
                "tempo": 120.0
            },
            {
                "start_time": 50.625,
                "end_time": 50.75909090909091,
                "pitch": 45,
                "velocity": 80,
                "duration": 0.13409090909090793,
                "tempo": 120.0
            },
            {
                "start_time": 50.75909090909091,
                "end_time": 50.87954545454545,
                "pitch": 33,
                "velocity": 80,
                "duration": 0.12045454545454248,
                "tempo": 120.0
            },
            {
                "start_time": 50.88181818181818,
                "end_time": 51.0,
                "pitch": 33,
                "velocity": 80,
                "duration": 0.11818181818181728,
                "tempo": 120.0
            },
            {
                "start_time": 51.0,
                "end_time": 51.11818181818182,
                "pitch": 45,
                "velocity": 80,
                "duration": 0.11818181818181728,
                "tempo": 120.0
            },
            {
                "start_time": 51.12045454545454,
                "end_time": 51.240909090909085,
                "pitch": 33,
                "velocity": 80,
                "duration": 0.12045454545454248,
                "tempo": 120.0
            },
            {
                "start_time": 51.240909090909085,
                "end_time": 51.37045454545454,
                "pitch": 29,
                "velocity": 80,
                "duration": 0.12954545454545752,
                "tempo": 120.0
            },
            {
                "start_time": 51.37045454545454,
                "end_time": 51.486363636363635,
                "pitch": 29,
                "velocity": 80,
                "duration": 0.11590909090909207,
                "tempo": 120.0
            },
            {
                "start_time": 51.486363636363635,
                "end_time": 51.60227272727273,
                "pitch": 41,
                "velocity": 80,
                "duration": 0.11590909090909207,
                "tempo": 120.0
            },
            {
                "start_time": 51.60227272727273,
                "end_time": 51.715909090909086,
                "pitch": 29,
                "velocity": 80,
                "duration": 0.11363636363635976,
                "tempo": 120.0
            },
            {
                "start_time": 51.715909090909086,
                "end_time": 51.83181818181818,
                "pitch": 29,
                "velocity": 80,
                "duration": 0.11590909090909207,
                "tempo": 120.0
            },
            {
                "start_time": 51.83181818181818,
                "end_time": 51.965909090909086,
                "pitch": 41,
                "velocity": 80,
                "duration": 0.13409090909090793,
                "tempo": 120.0
            },
            {
                "start_time": 51.965909090909086,
                "end_time": 52.08181818181818,
                "pitch": 29,
                "velocity": 80,
                "duration": 0.11590909090909207,
                "tempo": 120.0
            },
            {
                "start_time": 52.08181818181818,
                "end_time": 52.199999999999996,
                "pitch": 29,
                "velocity": 80,
                "duration": 0.11818181818181728,
                "tempo": 120.0
            },
            {
                "start_time": 52.199999999999996,
                "end_time": 52.31590909090909,
                "pitch": 43,
                "velocity": 80,
                "duration": 0.11590909090909207,
                "tempo": 120.0
            },
            {
                "start_time": 52.31590909090909,
                "end_time": 52.434090909090905,
                "pitch": 31,
                "velocity": 80,
                "duration": 0.11818181818181728,
                "tempo": 120.0
            },
            {
                "start_time": 52.434090909090905,
                "end_time": 52.56818181818181,
                "pitch": 31,
                "velocity": 80,
                "duration": 0.13409090909090793,
                "tempo": 120.0
            },
            {
                "start_time": 52.56818181818181,
                "end_time": 52.68181818181818,
                "pitch": 43,
                "velocity": 80,
                "duration": 0.11363636363636687,
                "tempo": 120.0
            },
            {
                "start_time": 52.684090909090905,
                "end_time": 52.80227272727272,
                "pitch": 31,
                "velocity": 80,
                "duration": 0.11818181818181728,
                "tempo": 120.0
            },
            {
                "start_time": 52.80227272727272,
                "end_time": 52.92272727272727,
                "pitch": 31,
                "velocity": 80,
                "duration": 0.12045454545454959,
                "tempo": 120.0
            },
            {
                "start_time": 52.925,
                "end_time": 53.043181818181814,
                "pitch": 43,
                "velocity": 80,
                "duration": 0.11818181818181728,
                "tempo": 120.0
            },
            {
                "start_time": 53.043181818181814,
                "end_time": 53.179545454545455,
                "pitch": 31,
                "velocity": 80,
                "duration": 0.13636363636364024,
                "tempo": 120.0
            },
            {
                "start_time": 53.179545454545455,
                "end_time": 53.29545454545454,
                "pitch": 36,
                "velocity": 80,
                "duration": 0.11590909090908497,
                "tempo": 120.0
            },
            {
                "start_time": 53.29545454545454,
                "end_time": 53.413636363636364,
                "pitch": 36,
                "velocity": 80,
                "duration": 0.11818181818182438,
                "tempo": 120.0
            },
            {
                "start_time": 53.413636363636364,
                "end_time": 53.53409090909091,
                "pitch": 48,
                "velocity": 80,
                "duration": 0.12045454545454248,
                "tempo": 120.0
            },
            {
                "start_time": 53.53409090909091,
                "end_time": 53.65,
                "pitch": 36,
                "velocity": 80,
                "duration": 0.11590909090909207,
                "tempo": 120.0
            },
            {
                "start_time": 53.65,
                "end_time": 53.78181818181818,
                "pitch": 36,
                "velocity": 80,
                "duration": 0.13181818181818272,
                "tempo": 120.0
            },
            {
                "start_time": 53.78181818181818,
                "end_time": 53.89772727272727,
                "pitch": 48,
                "velocity": 80,
                "duration": 0.11590909090909207,
                "tempo": 120.0
            },
            {
                "start_time": 53.89772727272727,
                "end_time": 54.01136363636363,
                "pitch": 36,
                "velocity": 80,
                "duration": 0.11363636363635976,
                "tempo": 120.0
            },
            {
                "start_time": 54.01136363636363,
                "end_time": 54.125,
                "pitch": 36,
                "velocity": 80,
                "duration": 0.11363636363636687,
                "tempo": 120.0
            },
            {
                "start_time": 54.125,
                "end_time": 54.24318181818182,
                "pitch": 48,
                "velocity": 80,
                "duration": 0.11818181818181728,
                "tempo": 120.0
            },
            {
                "start_time": 54.24318181818182,
                "end_time": 54.377272727272725,
                "pitch": 36,
                "velocity": 80,
                "duration": 0.13409090909090793,
                "tempo": 120.0
            },
            {
                "start_time": 54.377272727272725,
                "end_time": 54.49318181818182,
                "pitch": 36,
                "velocity": 80,
                "duration": 0.11590909090909207,
                "tempo": 120.0
            },
            {
                "start_time": 54.49318181818182,
                "end_time": 54.60909090909091,
                "pitch": 48,
                "velocity": 80,
                "duration": 0.11590909090909207,
                "tempo": 120.0
            },
            {
                "start_time": 54.60909090909091,
                "end_time": 54.72954545454545,
                "pitch": 36,
                "velocity": 80,
                "duration": 0.12045454545454248,
                "tempo": 120.0
            },
            {
                "start_time": 54.73181818181818,
                "end_time": 54.849999999999994,
                "pitch": 36,
                "velocity": 80,
                "duration": 0.11818181818181728,
                "tempo": 120.0
            },
            {
                "start_time": 54.849999999999994,
                "end_time": 54.986363636363635,
                "pitch": 48,
                "velocity": 80,
                "duration": 0.13636363636364024,
                "tempo": 120.0
            },
            {
                "start_time": 54.986363636363635,
                "end_time": 55.10681818181818,
                "pitch": 36,
                "velocity": 80,
                "duration": 0.12045454545454248,
                "tempo": 120.0
            },
            {
                "start_time": 55.10681818181818,
                "end_time": 55.22272727272727,
                "pitch": 35,
                "velocity": 80,
                "duration": 0.11590909090909207,
                "tempo": 120.0
            },
            {
                "start_time": 55.22272727272727,
                "end_time": 55.33863636363636,
                "pitch": 35,
                "velocity": 80,
                "duration": 0.11590909090909207,
                "tempo": 120.0
            },
            {
                "start_time": 55.33863636363636,
                "end_time": 55.45681818181818,
                "pitch": 47,
                "velocity": 80,
                "duration": 0.11818181818181728,
                "tempo": 120.0
            },
            {
                "start_time": 55.45681818181818,
                "end_time": 55.58863636363636,
                "pitch": 35,
                "velocity": 80,
                "duration": 0.13181818181818272,
                "tempo": 120.0
            },
            {
                "start_time": 55.58863636363636,
                "end_time": 55.709090909090904,
                "pitch": 35,
                "velocity": 80,
                "duration": 0.12045454545454248,
                "tempo": 120.0
            },
            {
                "start_time": 55.709090909090904,
                "end_time": 55.82954545454545,
                "pitch": 47,
                "velocity": 80,
                "duration": 0.12045454545454959,
                "tempo": 120.0
            },
            {
                "start_time": 55.82954545454545,
                "end_time": 55.94772727272727,
                "pitch": 35,
                "velocity": 80,
                "duration": 0.11818181818181728,
                "tempo": 120.0
            },
            {
                "start_time": 55.949999999999996,
                "end_time": 56.06818181818181,
                "pitch": 35,
                "velocity": 80,
                "duration": 0.11818181818181728,
                "tempo": 120.0
            },
            {
                "start_time": 56.06818181818181,
                "end_time": 56.19772727272727,
                "pitch": 47,
                "velocity": 80,
                "duration": 0.12954545454545752,
                "tempo": 120.0
            },
            {
                "start_time": 56.19772727272727,
                "end_time": 56.309090909090905,
                "pitch": 35,
                "velocity": 80,
                "duration": 0.11136363636363455,
                "tempo": 120.0
            },
            {
                "start_time": 56.309090909090905,
                "end_time": 56.42045454545454,
                "pitch": 35,
                "velocity": 80,
                "duration": 0.11136363636363455,
                "tempo": 120.0
            },
            {
                "start_time": 56.42045454545454,
                "end_time": 56.53409090909091,
                "pitch": 47,
                "velocity": 80,
                "duration": 0.11363636363636687,
                "tempo": 120.0
            },
            {
                "start_time": 56.53409090909091,
                "end_time": 56.65454545454545,
                "pitch": 35,
                "velocity": 80,
                "duration": 0.12045454545454248,
                "tempo": 120.0
            },
            {
                "start_time": 56.65454545454545,
                "end_time": 56.79090909090909,
                "pitch": 35,
                "velocity": 80,
                "duration": 0.13636363636364024,
                "tempo": 120.0
            },
            {
                "start_time": 56.79090909090909,
                "end_time": 56.90909090909091,
                "pitch": 47,
                "velocity": 80,
                "duration": 0.11818181818181728,
                "tempo": 120.0
            },
            {
                "start_time": 56.90909090909091,
                "end_time": 57.02954545454545,
                "pitch": 35,
                "velocity": 80,
                "duration": 0.12045454545454248,
                "tempo": 120.0
            },
            {
                "start_time": 57.02954545454545,
                "end_time": 57.14545454545454,
                "pitch": 33,
                "velocity": 80,
                "duration": 0.11590909090909207,
                "tempo": 120.0
            },
            {
                "start_time": 57.14545454545454,
                "end_time": 57.26363636363636,
                "pitch": 33,
                "velocity": 80,
                "duration": 0.11818181818181728,
                "tempo": 120.0
            },
            {
                "start_time": 57.26363636363636,
                "end_time": 57.39772727272727,
                "pitch": 45,
                "velocity": 80,
                "duration": 0.13409090909091503,
                "tempo": 120.0
            },
            {
                "start_time": 57.39772727272727,
                "end_time": 57.51363636363636,
                "pitch": 33,
                "velocity": 80,
                "duration": 0.11590909090908497,
                "tempo": 120.0
            },
            {
                "start_time": 57.51363636363636,
                "end_time": 57.62954545454545,
                "pitch": 33,
                "velocity": 80,
                "duration": 0.11590909090909207,
                "tempo": 120.0
            },
            {
                "start_time": 57.62954545454545,
                "end_time": 57.75,
                "pitch": 45,
                "velocity": 80,
                "duration": 0.12045454545454959,
                "tempo": 120.0
            },
            {
                "start_time": 57.75,
                "end_time": 57.865909090909085,
                "pitch": 33,
                "velocity": 80,
                "duration": 0.11590909090908497,
                "tempo": 120.0
            },
            {
                "start_time": 57.865909090909085,
                "end_time": 58.0,
                "pitch": 33,
                "velocity": 80,
                "duration": 0.13409090909091503,
                "tempo": 120.0
            },
            {
                "start_time": 58.0,
                "end_time": 58.12045454545454,
                "pitch": 45,
                "velocity": 80,
                "duration": 0.12045454545454248,
                "tempo": 120.0
            },
            {
                "start_time": 58.12272727272727,
                "end_time": 58.240909090909085,
                "pitch": 33,
                "velocity": 80,
                "duration": 0.11818181818181728,
                "tempo": 120.0
            },
            {
                "start_time": 58.240909090909085,
                "end_time": 58.35909090909091,
                "pitch": 33,
                "velocity": 80,
                "duration": 0.11818181818182438,
                "tempo": 120.0
            },
            {
                "start_time": 58.35909090909091,
                "end_time": 58.47954545454545,
                "pitch": 45,
                "velocity": 80,
                "duration": 0.12045454545454248,
                "tempo": 120.0
            },
            {
                "start_time": 58.47954545454545,
                "end_time": 58.611363636363635,
                "pitch": 33,
                "velocity": 80,
                "duration": 0.13181818181818272,
                "tempo": 120.0
            },
            {
                "start_time": 58.611363636363635,
                "end_time": 58.724999999999994,
                "pitch": 33,
                "velocity": 80,
                "duration": 0.11363636363635976,
                "tempo": 120.0
            },
            {
                "start_time": 58.72727272727273,
                "end_time": 58.840909090909086,
                "pitch": 45,
                "velocity": 80,
                "duration": 0.11363636363635976,
                "tempo": 120.0
            },
            {
                "start_time": 58.840909090909086,
                "end_time": 58.95681818181818,
                "pitch": 33,
                "velocity": 80,
                "duration": 0.11590909090909207,
                "tempo": 120.0
            },
            {
                "start_time": 58.95681818181818,
                "end_time": 59.07272727272727,
                "pitch": 29,
                "velocity": 80,
                "duration": 0.11590909090909207,
                "tempo": 120.0
            },
            {
                "start_time": 59.07272727272727,
                "end_time": 59.209090909090904,
                "pitch": 29,
                "velocity": 80,
                "duration": 0.13636363636363313,
                "tempo": 120.0
            },
            {
                "start_time": 59.209090909090904,
                "end_time": 59.32727272727272,
                "pitch": 41,
                "velocity": 80,
                "duration": 0.11818181818181728,
                "tempo": 120.0
            },
            {
                "start_time": 59.32727272727272,
                "end_time": 59.44318181818181,
                "pitch": 29,
                "velocity": 80,
                "duration": 0.11590909090909207,
                "tempo": 120.0
            },
            {
                "start_time": 59.44318181818181,
                "end_time": 59.559090909090905,
                "pitch": 29,
                "velocity": 80,
                "duration": 0.11590909090909207,
                "tempo": 120.0
            },
            {
                "start_time": 59.56136363636363,
                "end_time": 59.67727272727272,
                "pitch": 41,
                "velocity": 80,
                "duration": 0.11590909090909207,
                "tempo": 120.0
            },
            {
                "start_time": 59.679545454545455,
                "end_time": 59.81136363636363,
                "pitch": 29,
                "velocity": 80,
                "duration": 0.13181818181817562,
                "tempo": 120.0
            },
            {
                "start_time": 59.81136363636363,
                "end_time": 59.92727272727272,
                "pitch": 29,
                "velocity": 80,
                "duration": 0.11590909090909207,
                "tempo": 120.0
            },
            {
                "start_time": 59.929545454545455,
                "end_time": 60.04772727272727,
                "pitch": 41,
                "velocity": 80,
                "duration": 0.11818181818181728,
                "tempo": 120.0
            },
            {
                "start_time": 60.04772727272727,
                "end_time": 60.168181818181814,
                "pitch": 29,
                "velocity": 80,
                "duration": 0.12045454545454248,
                "tempo": 120.0
            },
            {
                "start_time": 60.168181818181814,
                "end_time": 60.288636363636364,
                "pitch": 29,
                "velocity": 80,
                "duration": 0.12045454545454959,
                "tempo": 120.0
            },
            {
                "start_time": 60.288636363636364,
                "end_time": 60.42272727272727,
                "pitch": 41,
                "velocity": 80,
                "duration": 0.13409090909090793,
                "tempo": 120.0
            },
            {
                "start_time": 60.42272727272727,
                "end_time": 60.54090909090909,
                "pitch": 29,
                "velocity": 80,
                "duration": 0.11818181818181728,
                "tempo": 120.0
            },
            {
                "start_time": 60.54090909090909,
                "end_time": 60.65909090909091,
                "pitch": 29,
                "velocity": 80,
                "duration": 0.11818181818181728,
                "tempo": 120.0
            },
            {
                "start_time": 60.66136363636363,
                "end_time": 60.777272727272724,
                "pitch": 41,
                "velocity": 80,
                "duration": 0.11590909090909207,
                "tempo": 120.0
            },
            {
                "start_time": 60.777272727272724,
                "end_time": 60.89545454545454,
                "pitch": 29,
                "velocity": 80,
                "duration": 0.11818181818181728,
                "tempo": 120.0
            },
            {
                "start_time": 60.89545454545454,
                "end_time": 61.025,
                "pitch": 26,
                "velocity": 80,
                "duration": 0.12954545454545752,
                "tempo": 120.0
            },
            {
                "start_time": 61.025,
                "end_time": 61.14090909090909,
                "pitch": 26,
                "velocity": 80,
                "duration": 0.11590909090909207,
                "tempo": 120.0
            },
            {
                "start_time": 61.14090909090909,
                "end_time": 61.256818181818176,
                "pitch": 38,
                "velocity": 80,
                "duration": 0.11590909090908497,
                "tempo": 120.0
            },
            {
                "start_time": 61.256818181818176,
                "end_time": 61.37045454545454,
                "pitch": 26,
                "velocity": 80,
                "duration": 0.11363636363636687,
                "tempo": 120.0
            },
            {
                "start_time": 61.37045454545454,
                "end_time": 61.486363636363635,
                "pitch": 26,
                "velocity": 80,
                "duration": 0.11590909090909207,
                "tempo": 120.0
            },
            {
                "start_time": 61.486363636363635,
                "end_time": 61.62272727272727,
                "pitch": 38,
                "velocity": 80,
                "duration": 0.13636363636363313,
                "tempo": 120.0
            },
            {
                "start_time": 61.62272727272727,
                "end_time": 61.73863636363636,
                "pitch": 26,
                "velocity": 80,
                "duration": 0.11590909090909207,
                "tempo": 120.0
            },
            {
                "start_time": 61.73863636363636,
                "end_time": 61.85681818181818,
                "pitch": 26,
                "velocity": 80,
                "duration": 0.11818181818181728,
                "tempo": 120.0
            },
            {
                "start_time": 61.85681818181818,
                "end_time": 61.974999999999994,
                "pitch": 40,
                "velocity": 80,
                "duration": 0.11818181818181728,
                "tempo": 120.0
            },
            {
                "start_time": 61.974999999999994,
                "end_time": 62.09318181818182,
                "pitch": 28,
                "velocity": 80,
                "duration": 0.11818181818182438,
                "tempo": 120.0
            },
            {
                "start_time": 62.095454545454544,
                "end_time": 62.23181818181818,
                "pitch": 28,
                "velocity": 80,
                "duration": 0.13636363636363313,
                "tempo": 120.0
            },
            {
                "start_time": 62.23181818181818,
                "end_time": 62.349999999999994,
                "pitch": 40,
                "velocity": 80,
                "duration": 0.11818181818181728,
                "tempo": 120.0
            },
            {
                "start_time": 62.349999999999994,
                "end_time": 62.465909090909086,
                "pitch": 28,
                "velocity": 80,
                "duration": 0.11590909090909207,
                "tempo": 120.0
            },
            {
                "start_time": 62.465909090909086,
                "end_time": 62.584090909090904,
                "pitch": 28,
                "velocity": 80,
                "duration": 0.11818181818181728,
                "tempo": 120.0
            },
            {
                "start_time": 62.584090909090904,
                "end_time": 62.699999999999996,
                "pitch": 40,
                "velocity": 80,
                "duration": 0.11590909090909207,
                "tempo": 120.0
            },
            {
                "start_time": 62.699999999999996,
                "end_time": 62.836363636363636,
                "pitch": 28,
                "velocity": 80,
                "duration": 0.13636363636364024,
                "tempo": 120.0
            },
            {
                "start_time": 62.836363636363636,
                "end_time": 62.95227272727272,
                "pitch": 41,
                "velocity": 80,
                "duration": 0.11590909090908497,
                "tempo": 120.0
            },
            {
                "start_time": 62.95454545454545,
                "end_time": 63.07272727272727,
                "pitch": 29,
                "velocity": 80,
                "duration": 0.11818181818181728,
                "tempo": 120.0
            },
            {
                "start_time": 63.07272727272727,
                "end_time": 63.19318181818181,
                "pitch": 29,
                "velocity": 80,
                "duration": 0.12045454545454248,
                "tempo": 120.0
            },
            {
                "start_time": 63.195454545454545,
                "end_time": 63.31136363636363,
                "pitch": 41,
                "velocity": 80,
                "duration": 0.11590909090908497,
                "tempo": 120.0
            },
            {
                "start_time": 63.31363636363636,
                "end_time": 63.44090909090909,
                "pitch": 29,
                "velocity": 80,
                "duration": 0.1272727272727252,
                "tempo": 120.0
            },
            {
                "start_time": 63.44090909090909,
                "end_time": 63.554545454545455,
                "pitch": 29,
                "velocity": 80,
                "duration": 0.11363636363636687,
                "tempo": 120.0
            },
            {
                "start_time": 63.554545454545455,
                "end_time": 63.66590909090909,
                "pitch": 41,
                "velocity": 80,
                "duration": 0.11136363636363455,
                "tempo": 120.0
            },
            {
                "start_time": 63.66590909090909,
                "end_time": 63.77954545454545,
                "pitch": 29,
                "velocity": 80,
                "duration": 0.11363636363635976,
                "tempo": 120.0
            },
            {
                "start_time": 63.77954545454545,
                "end_time": 63.897727272727266,
                "pitch": 42,
                "velocity": 80,
                "duration": 0.11818181818181728,
                "tempo": 120.0
            },
            {
                "start_time": 63.897727272727266,
                "end_time": 64.0340909090909,
                "pitch": 30,
                "velocity": 80,
                "duration": 0.13636363636364024,
                "tempo": 120.0
            },
            {
                "start_time": 64.0340909090909,
                "end_time": 64.15454545454546,
                "pitch": 30,
                "velocity": 80,
                "duration": 0.12045454545454959,
                "tempo": 120.0
            },
            {
                "start_time": 64.15454545454546,
                "end_time": 64.27272727272727,
                "pitch": 42,
                "velocity": 80,
                "duration": 0.11818181818181017,
                "tempo": 120.0
            },
            {
                "start_time": 64.27272727272727,
                "end_time": 64.39090909090909,
                "pitch": 30,
                "velocity": 80,
                "duration": 0.11818181818182438,
                "tempo": 120.0
            },
            {
                "start_time": 64.39090909090909,
                "end_time": 64.5090909090909,
                "pitch": 30,
                "velocity": 80,
                "duration": 0.11818181818181017,
                "tempo": 120.0
            },
            {
                "start_time": 64.5090909090909,
                "end_time": 64.64090909090909,
                "pitch": 42,
                "velocity": 80,
                "duration": 0.13181818181818983,
                "tempo": 120.0
            },
            {
                "start_time": 64.64090909090909,
                "end_time": 64.7590909090909,
                "pitch": 30,
                "velocity": 80,
                "duration": 0.11818181818181017,
                "tempo": 120.0
            },
            {
                "start_time": 64.7590909090909,
                "end_time": 64.87272727272727,
                "pitch": 43,
                "velocity": 80,
                "duration": 0.11363636363637397,
                "tempo": 120.0
            },
            {
                "start_time": 64.875,
                "end_time": 64.99090909090908,
                "pitch": 31,
                "velocity": 80,
                "duration": 0.11590909090908497,
                "tempo": 120.0
            },
            {
                "start_time": 64.99090909090908,
                "end_time": 65.10909090909091,
                "pitch": 31,
                "velocity": 80,
                "duration": 0.11818181818182438,
                "tempo": 120.0
            },
            {
                "start_time": 65.10909090909091,
                "end_time": 65.24090909090908,
                "pitch": 43,
                "velocity": 80,
                "duration": 0.13181818181817562,
                "tempo": 120.0
            },
            {
                "start_time": 65.24318181818181,
                "end_time": 65.36136363636363,
                "pitch": 31,
                "velocity": 80,
                "duration": 0.11818181818182438,
                "tempo": 120.0
            },
            {
                "start_time": 65.36136363636363,
                "end_time": 65.48181818181818,
                "pitch": 31,
                "velocity": 80,
                "duration": 0.12045454545454959,
                "tempo": 120.0
            },
            {
                "start_time": 65.48181818181818,
                "end_time": 65.6,
                "pitch": 43,
                "velocity": 80,
                "duration": 0.11818181818181017,
                "tempo": 120.0
            },
            {
                "start_time": 65.6,
                "end_time": 65.72045454545454,
                "pitch": 31,
                "velocity": 80,
                "duration": 0.12045454545454959,
                "tempo": 120.0
            },
            {
                "start_time": 65.72045454545454,
                "end_time": 65.84772727272727,
                "pitch": 31,
                "velocity": 80,
                "duration": 0.1272727272727252,
                "tempo": 120.0
            },
            {
                "start_time": 65.84772727272727,
                "end_time": 65.96136363636363,
                "pitch": 43,
                "velocity": 80,
                "duration": 0.11363636363635976,
                "tempo": 120.0
            },
            {
                "start_time": 65.96136363636363,
                "end_time": 66.07272727272726,
                "pitch": 31,
                "velocity": 80,
                "duration": 0.11136363636363455,
                "tempo": 120.0
            },
            {
                "start_time": 66.07272727272726,
                "end_time": 66.18636363636364,
                "pitch": 31,
                "velocity": 80,
                "duration": 0.11363636363637397,
                "tempo": 120.0
            },
            {
                "start_time": 66.18636363636364,
                "end_time": 66.30454545454545,
                "pitch": 43,
                "velocity": 80,
                "duration": 0.11818181818181017,
                "tempo": 120.0
            },
            {
                "start_time": 66.30454545454545,
                "end_time": 66.44318181818181,
                "pitch": 31,
                "velocity": 80,
                "duration": 0.13863636363636545,
                "tempo": 120.0
            },
            {
                "start_time": 66.44318181818181,
                "end_time": 66.56136363636364,
                "pitch": 43,
                "velocity": 80,
                "duration": 0.11818181818182438,
                "tempo": 120.0
            },
            {
                "start_time": 66.56136363636364,
                "end_time": 66.68181818181817,
                "pitch": 31,
                "velocity": 80,
                "duration": 0.12045454545453538,
                "tempo": 120.0
            },
            {
                "start_time": 66.68181818181817,
                "end_time": 66.79772727272727,
                "pitch": 43,
                "velocity": 80,
                "duration": 0.11590909090909918,
                "tempo": 120.0
            },
            {
                "start_time": 66.79772727272727,
                "end_time": 66.91590909090908,
                "pitch": 31,
                "velocity": 80,
                "duration": 0.11818181818181017,
                "tempo": 120.0
            },
            {
                "start_time": 66.91590909090908,
                "end_time": 67.05,
                "pitch": 31,
                "velocity": 80,
                "duration": 0.13409090909091503,
                "tempo": 120.0
            },
            {
                "start_time": 67.05,
                "end_time": 67.16818181818182,
                "pitch": 43,
                "velocity": 80,
                "duration": 0.11818181818182438,
                "tempo": 120.0
            },
            {
                "start_time": 67.17045454545455,
                "end_time": 67.28863636363636,
                "pitch": 31,
                "velocity": 80,
                "duration": 0.11818181818181017,
                "tempo": 120.0
            },
            {
                "start_time": 67.28863636363636,
                "end_time": 67.4090909090909,
                "pitch": 31,
                "velocity": 80,
                "duration": 0.12045454545454959,
                "tempo": 120.0
            },
            {
                "start_time": 67.4090909090909,
                "end_time": 67.52727272727273,
                "pitch": 43,
                "velocity": 80,
                "duration": 0.11818181818182438,
                "tempo": 120.0
            },
            {
                "start_time": 67.52727272727273,
                "end_time": 67.66590909090908,
                "pitch": 31,
                "velocity": 80,
                "duration": 0.13863636363635123,
                "tempo": 120.0
            },
            {
                "start_time": 67.66590909090908,
                "end_time": 67.78181818181818,
                "pitch": 31,
                "velocity": 80,
                "duration": 0.11590909090909918,
                "tempo": 120.0
            },
            {
                "start_time": 67.78181818181818,
                "end_time": 67.89999999999999,
                "pitch": 43,
                "velocity": 80,
                "duration": 0.11818181818181017,
                "tempo": 120.0
            },
            {
                "start_time": 67.89999999999999,
                "end_time": 68.01818181818182,
                "pitch": 31,
                "velocity": 80,
                "duration": 0.11818181818182438,
                "tempo": 120.0
            },
            {
                "start_time": 68.01818181818182,
                "end_time": 68.1340909090909,
                "pitch": 31,
                "velocity": 80,
                "duration": 0.11590909090908497,
                "tempo": 120.0
            },
            {
                "start_time": 68.13636363636363,
                "end_time": 68.26590909090909,
                "pitch": 43,
                "velocity": 80,
                "duration": 0.12954545454546462,
                "tempo": 120.0
            },
            {
                "start_time": 68.26590909090909,
                "end_time": 68.38181818181818,
                "pitch": 31,
                "velocity": 80,
                "duration": 0.11590909090908497,
                "tempo": 120.0
            },
            {
                "start_time": 68.3840909090909,
                "end_time": 68.49772727272727,
                "pitch": 43,
                "velocity": 80,
                "duration": 0.11363636363637397,
                "tempo": 120.0
            },
            {
                "start_time": 68.49772727272727,
                "end_time": 68.61363636363636,
                "pitch": 31,
                "velocity": 80,
                "duration": 0.11590909090908497,
                "tempo": 120.0
            },
            {
                "start_time": 68.61363636363636,
                "end_time": 68.72954545454544,
                "pitch": 36,
                "velocity": 80,
                "duration": 0.11590909090908497,
                "tempo": 120.0
            },
            {
                "start_time": 68.73181818181818,
                "end_time": 68.86818181818181,
                "pitch": 36,
                "velocity": 80,
                "duration": 0.13636363636362603,
                "tempo": 120.0
            },
            {
                "start_time": 68.86818181818181,
                "end_time": 68.98863636363636,
                "pitch": 48,
                "velocity": 80,
                "duration": 0.12045454545454959,
                "tempo": 120.0
            },
            {
                "start_time": 68.98863636363636,
                "end_time": 69.10681818181818,
                "pitch": 36,
                "velocity": 80,
                "duration": 0.11818181818182438,
                "tempo": 120.0
            },
            {
                "start_time": 69.10681818181818,
                "end_time": 69.22272727272727,
                "pitch": 36,
                "velocity": 80,
                "duration": 0.11590909090908497,
                "tempo": 120.0
            },
            {
                "start_time": 69.22272727272727,
                "end_time": 69.3409090909091,
                "pitch": 48,
                "velocity": 80,
                "duration": 0.11818181818182438,
                "tempo": 120.0
            },
            {
                "start_time": 69.34318181818182,
                "end_time": 69.475,
                "pitch": 36,
                "velocity": 80,
                "duration": 0.13181818181817562,
                "tempo": 120.0
            },
            {
                "start_time": 69.475,
                "end_time": 69.5909090909091,
                "pitch": 36,
                "velocity": 80,
                "duration": 0.11590909090909918,
                "tempo": 120.0
            },
            {
                "start_time": 69.5909090909091,
                "end_time": 69.7090909090909,
                "pitch": 48,
                "velocity": 80,
                "duration": 0.11818181818181017,
                "tempo": 120.0
            },
            {
                "start_time": 69.7090909090909,
                "end_time": 69.82727272727273,
                "pitch": 36,
                "velocity": 80,
                "duration": 0.11818181818182438,
                "tempo": 120.0
            },
            {
                "start_time": 69.82727272727273,
                "end_time": 69.94545454545454,
                "pitch": 36,
                "velocity": 80,
                "duration": 0.11818181818181017,
                "tempo": 120.0
            },
            {
                "start_time": 69.94545454545454,
                "end_time": 70.07954545454545,
                "pitch": 48,
                "velocity": 80,
                "duration": 0.13409090909091503,
                "tempo": 120.0
            },
            {
                "start_time": 70.07954545454545,
                "end_time": 70.19772727272726,
                "pitch": 36,
                "velocity": 80,
                "duration": 0.11818181818181017,
                "tempo": 120.0
            },
            {
                "start_time": 70.19772727272726,
                "end_time": 70.31363636363636,
                "pitch": 36,
                "velocity": 80,
                "duration": 0.11590909090909918,
                "tempo": 120.0
            },
            {
                "start_time": 70.31363636363636,
                "end_time": 70.43181818181817,
                "pitch": 48,
                "velocity": 80,
                "duration": 0.11818181818181017,
                "tempo": 120.0
            },
            {
                "start_time": 70.43181818181817,
                "end_time": 70.55227272727272,
                "pitch": 36,
                "velocity": 80,
                "duration": 0.12045454545454959,
                "tempo": 120.0
            },
            {
                "start_time": 70.55227272727272,
                "end_time": 70.68181818181817,
                "pitch": 35,
                "velocity": 80,
                "duration": 0.1295454545454504,
                "tempo": 120.0
            },
            {
                "start_time": 70.68181818181817,
                "end_time": 70.79545454545455,
                "pitch": 35,
                "velocity": 80,
                "duration": 0.11363636363637397,
                "tempo": 120.0
            },
            {
                "start_time": 70.79545454545455,
                "end_time": 70.91136363636363,
                "pitch": 47,
                "velocity": 80,
                "duration": 0.11590909090908497,
                "tempo": 120.0
            },
            {
                "start_time": 70.91136363636363,
                "end_time": 71.02499999999999,
                "pitch": 35,
                "velocity": 80,
                "duration": 0.11363636363635976,
                "tempo": 120.0
            },
            {
                "start_time": 71.02499999999999,
                "end_time": 71.14545454545454,
                "pitch": 35,
                "velocity": 80,
                "duration": 0.12045454545454959,
                "tempo": 120.0
            },
            {
                "start_time": 71.14545454545454,
                "end_time": 71.2840909090909,
                "pitch": 47,
                "velocity": 80,
                "duration": 0.13863636363636545,
                "tempo": 120.0
            },
            {
                "start_time": 71.2840909090909,
                "end_time": 71.40227272727273,
                "pitch": 35,
                "velocity": 80,
                "duration": 0.11818181818182438,
                "tempo": 120.0
            },
            {
                "start_time": 71.40227272727273,
                "end_time": 71.52045454545454,
                "pitch": 35,
                "velocity": 80,
                "duration": 0.11818181818181017,
                "tempo": 120.0
            },
            {
                "start_time": 71.52272727272727,
                "end_time": 71.64090909090909,
                "pitch": 47,
                "velocity": 80,
                "duration": 0.11818181818182438,
                "tempo": 120.0
            },
            {
                "start_time": 71.64090909090909,
                "end_time": 71.75681818181818,
                "pitch": 35,
                "velocity": 80,
                "duration": 0.11590909090908497,
                "tempo": 120.0
            },
            {
                "start_time": 71.75681818181818,
                "end_time": 71.89090909090909,
                "pitch": 35,
                "velocity": 80,
                "duration": 0.13409090909091503,
                "tempo": 120.0
            },
            {
                "start_time": 71.89318181818182,
                "end_time": 72.0090909090909,
                "pitch": 47,
                "velocity": 80,
                "duration": 0.11590909090908497,
                "tempo": 120.0
            },
            {
                "start_time": 72.0090909090909,
                "end_time": 72.12727272727273,
                "pitch": 35,
                "velocity": 80,
                "duration": 0.11818181818182438,
                "tempo": 120.0
            },
            {
                "start_time": 72.12727272727273,
                "end_time": 72.24545454545454,
                "pitch": 35,
                "velocity": 80,
                "duration": 0.11818181818181017,
                "tempo": 120.0
            },
            {
                "start_time": 72.24545454545454,
                "end_time": 72.36363636363636,
                "pitch": 47,
                "velocity": 80,
                "duration": 0.11818181818182438,
                "tempo": 120.0
            },
            {
                "start_time": 72.36363636363636,
                "end_time": 72.49772727272727,
                "pitch": 35,
                "velocity": 80,
                "duration": 0.13409090909091503,
                "tempo": 120.0
            },
            {
                "start_time": 72.5,
                "end_time": 72.61590909090908,
                "pitch": 33,
                "velocity": 80,
                "duration": 0.11590909090908497,
                "tempo": 120.0
            },
            {
                "start_time": 72.61590909090908,
                "end_time": 72.73636363636363,
                "pitch": 33,
                "velocity": 80,
                "duration": 0.12045454545454959,
                "tempo": 120.0
            },
            {
                "start_time": 72.73636363636363,
                "end_time": 72.85681818181818,
                "pitch": 45,
                "velocity": 80,
                "duration": 0.12045454545454959,
                "tempo": 120.0
            },
            {
                "start_time": 72.85681818181818,
                "end_time": 72.975,
                "pitch": 33,
                "velocity": 80,
                "duration": 0.11818181818181017,
                "tempo": 120.0
            },
            {
                "start_time": 72.975,
                "end_time": 73.10681818181818,
                "pitch": 33,
                "velocity": 80,
                "duration": 0.13181818181818983,
                "tempo": 120.0
            },
            {
                "start_time": 73.10681818181818,
                "end_time": 73.22272727272727,
                "pitch": 45,
                "velocity": 80,
                "duration": 0.11590909090908497,
                "tempo": 120.0
            },
            {
                "start_time": 73.225,
                "end_time": 73.33863636363635,
                "pitch": 33,
                "velocity": 80,
                "duration": 0.11363636363635976,
                "tempo": 120.0
            },
            {
                "start_time": 73.33863636363635,
                "end_time": 73.45227272727273,
                "pitch": 33,
                "velocity": 80,
                "duration": 0.11363636363637397,
                "tempo": 120.0
            },
            {
                "start_time": 73.45227272727273,
                "end_time": 73.57045454545454,
                "pitch": 45,
                "velocity": 80,
                "duration": 0.11818181818181017,
                "tempo": 120.0
            },
            {
                "start_time": 73.57045454545454,
                "end_time": 73.70454545454545,
                "pitch": 33,
                "velocity": 80,
                "duration": 0.13409090909091503,
                "tempo": 120.0
            },
            {
                "start_time": 73.70454545454545,
                "end_time": 73.82272727272726,
                "pitch": 33,
                "velocity": 80,
                "duration": 0.11818181818181017,
                "tempo": 120.0
            },
            {
                "start_time": 73.82272727272726,
                "end_time": 73.94090909090909,
                "pitch": 45,
                "velocity": 80,
                "duration": 0.11818181818182438,
                "tempo": 120.0
            },
            {
                "start_time": 73.94090909090909,
                "end_time": 74.05909090909091,
                "pitch": 33,
                "velocity": 80,
                "duration": 0.11818181818182438,
                "tempo": 120.0
            },
            {
                "start_time": 74.05909090909091,
                "end_time": 74.175,
                "pitch": 33,
                "velocity": 80,
                "duration": 0.11590909090908497,
                "tempo": 120.0
            },
            {
                "start_time": 74.17727272727272,
                "end_time": 74.31136363636364,
                "pitch": 45,
                "velocity": 80,
                "duration": 0.13409090909091503,
                "tempo": 120.0
            },
            {
                "start_time": 74.31136363636364,
                "end_time": 74.42954545454545,
                "pitch": 33,
                "velocity": 80,
                "duration": 0.11818181818181017,
                "tempo": 120.0
            },
            {
                "start_time": 74.42954545454545,
                "end_time": 74.54772727272727,
                "pitch": 29,
                "velocity": 80,
                "duration": 0.11818181818182438,
                "tempo": 120.0
            },
            {
                "start_time": 74.54772727272727,
                "end_time": 74.66818181818182,
                "pitch": 29,
                "velocity": 80,
                "duration": 0.12045454545454959,
                "tempo": 120.0
            },
            {
                "start_time": 74.66818181818182,
                "end_time": 74.78863636363636,
                "pitch": 41,
                "velocity": 80,
                "duration": 0.12045454545453538,
                "tempo": 120.0
            },
            {
                "start_time": 74.78863636363636,
                "end_time": 74.92272727272727,
                "pitch": 29,
                "velocity": 80,
                "duration": 0.13409090909091503,
                "tempo": 120.0
            },
            {
                "start_time": 74.925,
                "end_time": 75.04090909090908,
                "pitch": 29,
                "velocity": 80,
                "duration": 0.11590909090908497,
                "tempo": 120.0
            },
            {
                "start_time": 75.04090909090908,
                "end_time": 75.16136363636363,
                "pitch": 41,
                "velocity": 80,
                "duration": 0.12045454545454959,
                "tempo": 120.0
            },
            {
                "start_time": 75.16136363636363,
                "end_time": 75.27727272727272,
                "pitch": 29,
                "velocity": 80,
                "duration": 0.11590909090908497,
                "tempo": 120.0
            },
            {
                "start_time": 75.27727272727272,
                "end_time": 75.39545454545454,
                "pitch": 29,
                "velocity": 80,
                "duration": 0.11818181818182438,
                "tempo": 120.0
            },
            {
                "start_time": 75.39545454545454,
                "end_time": 75.52727272727272,
                "pitch": 43,
                "velocity": 80,
                "duration": 0.13181818181817562,
                "tempo": 120.0
            },
            {
                "start_time": 75.52727272727272,
                "end_time": 75.64090909090909,
                "pitch": 31,
                "velocity": 80,
                "duration": 0.11363636363637397,
                "tempo": 120.0
            },
            {
                "start_time": 75.64090909090909,
                "end_time": 75.75681818181818,
                "pitch": 31,
                "velocity": 80,
                "duration": 0.11590909090908497,
                "tempo": 120.0
            },
            {
                "start_time": 75.75681818181818,
                "end_time": 75.87045454545454,
                "pitch": 43,
                "velocity": 80,
                "duration": 0.11363636363635976,
                "tempo": 120.0
            },
            {
                "start_time": 75.87045454545454,
                "end_time": 75.98863636363636,
                "pitch": 31,
                "velocity": 80,
                "duration": 0.11818181818182438,
                "tempo": 120.0
            },
            {
                "start_time": 75.98863636363636,
                "end_time": 76.12272727272727,
                "pitch": 31,
                "velocity": 80,
                "duration": 0.13409090909091503,
                "tempo": 120.0
            },
            {
                "start_time": 76.12272727272727,
                "end_time": 76.23863636363636,
                "pitch": 43,
                "velocity": 80,
                "duration": 0.11590909090908497,
                "tempo": 120.0
            },
            {
                "start_time": 76.23863636363636,
                "end_time": 76.35681818181818,
                "pitch": 31,
                "velocity": 80,
                "duration": 0.11818181818182438,
                "tempo": 120.0
            },
            {
                "start_time": 76.35681818181818,
                "end_time": 76.475,
                "pitch": 36,
                "velocity": 80,
                "duration": 0.11818181818181017,
                "tempo": 120.0
            },
            {
                "start_time": 76.475,
                "end_time": 76.59545454545454,
                "pitch": 36,
                "velocity": 80,
                "duration": 0.12045454545454959,
                "tempo": 120.0
            },
            {
                "start_time": 76.59545454545454,
                "end_time": 76.73181818181818,
                "pitch": 48,
                "velocity": 80,
                "duration": 0.13636363636364024,
                "tempo": 120.0
            },
            {
                "start_time": 76.73181818181818,
                "end_time": 76.85,
                "pitch": 36,
                "velocity": 80,
                "duration": 0.11818181818181017,
                "tempo": 120.0
            },
            {
                "start_time": 76.85,
                "end_time": 76.96818181818182,
                "pitch": 36,
                "velocity": 80,
                "duration": 0.11818181818182438,
                "tempo": 120.0
            },
            {
                "start_time": 76.96818181818182,
                "end_time": 77.08636363636363,
                "pitch": 48,
                "velocity": 80,
                "duration": 0.11818181818181017,
                "tempo": 120.0
            },
            {
                "start_time": 77.08863636363635,
                "end_time": 77.20454545454545,
                "pitch": 36,
                "velocity": 80,
                "duration": 0.11590909090909918,
                "tempo": 120.0
            },
            {
                "start_time": 77.20454545454545,
                "end_time": 77.33863636363635,
                "pitch": 36,
                "velocity": 80,
                "duration": 0.13409090909090082,
                "tempo": 120.0
            },
            {
                "start_time": 77.33863636363635,
                "end_time": 77.45681818181818,
                "pitch": 48,
                "velocity": 80,
                "duration": 0.11818181818182438,
                "tempo": 120.0
            },
            {
                "start_time": 77.45681818181818,
                "end_time": 77.57272727272726,
                "pitch": 36,
                "velocity": 80,
                "duration": 0.11590909090908497,
                "tempo": 120.0
            },
            {
                "start_time": 77.57272727272726,
                "end_time": 77.68863636363636,
                "pitch": 36,
                "velocity": 80,
                "duration": 0.11590909090909918,
                "tempo": 120.0
            },
            {
                "start_time": 77.68863636363636,
                "end_time": 77.80454545454545,
                "pitch": 48,
                "velocity": 80,
                "duration": 0.11590909090908497,
                "tempo": 120.0
            },
            {
                "start_time": 77.80681818181817,
                "end_time": 77.93863636363636,
                "pitch": 36,
                "velocity": 80,
                "duration": 0.13181818181818983,
                "tempo": 120.0
            },
            {
                "start_time": 77.93863636363636,
                "end_time": 78.05227272727272,
                "pitch": 36,
                "velocity": 80,
                "duration": 0.11363636363635976,
                "tempo": 120.0
            },
            {
                "start_time": 78.05227272727272,
                "end_time": 78.16818181818181,
                "pitch": 48,
                "velocity": 80,
                "duration": 0.11590909090908497,
                "tempo": 120.0
            },
            {
                "start_time": 78.16818181818181,
                "end_time": 78.2840909090909,
                "pitch": 36,
                "velocity": 80,
                "duration": 0.11590909090909918,
                "tempo": 120.0
            },
            {
                "start_time": 78.2840909090909,
                "end_time": 78.40227272727272,
                "pitch": 35,
                "velocity": 80,
                "duration": 0.11818181818181017,
                "tempo": 120.0
            },
            {
                "start_time": 78.40227272727272,
                "end_time": 78.53863636363636,
                "pitch": 35,
                "velocity": 80,
                "duration": 0.13636363636364024,
                "tempo": 120.0
            },
            {
                "start_time": 78.53863636363636,
                "end_time": 78.6590909090909,
                "pitch": 47,
                "velocity": 80,
                "duration": 0.12045454545454959,
                "tempo": 120.0
            },
            {
                "start_time": 78.6590909090909,
                "end_time": 78.77727272727272,
                "pitch": 35,
                "velocity": 80,
                "duration": 0.11818181818181017,
                "tempo": 120.0
            },
            {
                "start_time": 78.77727272727272,
                "end_time": 78.89318181818182,
                "pitch": 35,
                "velocity": 80,
                "duration": 0.11590909090909918,
                "tempo": 120.0
            },
            {
                "start_time": 78.89545454545454,
                "end_time": 79.01136363636363,
                "pitch": 47,
                "velocity": 80,
                "duration": 0.11590909090908497,
                "tempo": 120.0
            },
            {
                "start_time": 79.01363636363637,
                "end_time": 79.14545454545454,
                "pitch": 35,
                "velocity": 80,
                "duration": 0.13181818181817562,
                "tempo": 120.0
            },
            {
                "start_time": 79.14545454545454,
                "end_time": 79.26136363636363,
                "pitch": 35,
                "velocity": 80,
                "duration": 0.11590909090908497,
                "tempo": 120.0
            },
            {
                "start_time": 79.26136363636363,
                "end_time": 79.37954545454545,
                "pitch": 47,
                "velocity": 80,
                "duration": 0.11818181818182438,
                "tempo": 120.0
            },
            {
                "start_time": 79.37954545454545,
                "end_time": 79.49772727272727,
                "pitch": 35,
                "velocity": 80,
                "duration": 0.11818181818182438,
                "tempo": 120.0
            },
            {
                "start_time": 79.49772727272727,
                "end_time": 79.61590909090908,
                "pitch": 35,
                "velocity": 80,
                "duration": 0.11818181818181017,
                "tempo": 120.0
            },
            {
                "start_time": 79.61590909090908,
                "end_time": 79.75,
                "pitch": 47,
                "velocity": 80,
                "duration": 0.13409090909091503,
                "tempo": 120.0
            },
            {
                "start_time": 79.75,
                "end_time": 79.87045454545454,
                "pitch": 35,
                "velocity": 80,
                "duration": 0.12045454545453538,
                "tempo": 120.0
            },
            {
                "start_time": 79.87045454545454,
                "end_time": 79.98863636363636,
                "pitch": 35,
                "velocity": 80,
                "duration": 0.11818181818182438,
                "tempo": 120.0
            },
            {
                "start_time": 79.98863636363636,
                "end_time": 80.10909090909091,
                "pitch": 47,
                "velocity": 80,
                "duration": 0.12045454545454959,
                "tempo": 120.0
            },
            {
                "start_time": 80.10909090909091,
                "end_time": 80.22954545454544,
                "pitch": 35,
                "velocity": 80,
                "duration": 0.12045454545453538,
                "tempo": 120.0
            },
            {
                "start_time": 80.22954545454544,
                "end_time": 80.35909090909091,
                "pitch": 33,
                "velocity": 80,
                "duration": 0.12954545454546462,
                "tempo": 120.0
            },
            {
                "start_time": 80.35909090909091,
                "end_time": 80.475,
                "pitch": 33,
                "velocity": 80,
                "duration": 0.11590909090908497,
                "tempo": 120.0
            },
            {
                "start_time": 80.475,
                "end_time": 80.5909090909091,
                "pitch": 45,
                "velocity": 80,
                "duration": 0.11590909090909918,
                "tempo": 120.0
            },
            {
                "start_time": 80.5909090909091,
                "end_time": 80.70454545454545,
                "pitch": 33,
                "velocity": 80,
                "duration": 0.11363636363635976,
                "tempo": 120.0
            },
            {
                "start_time": 80.70454545454545,
                "end_time": 80.82045454545454,
                "pitch": 33,
                "velocity": 80,
                "duration": 0.11590909090908497,
                "tempo": 120.0
            },
            {
                "start_time": 80.82045454545454,
                "end_time": 80.95681818181818,
                "pitch": 45,
                "velocity": 80,
                "duration": 0.13636363636364024,
                "tempo": 120.0
            },
            {
                "start_time": 80.95681818181818,
                "end_time": 81.07272727272726,
                "pitch": 33,
                "velocity": 80,
                "duration": 0.11590909090908497,
                "tempo": 120.0
            },
            {
                "start_time": 81.07272727272726,
                "end_time": 81.18863636363636,
                "pitch": 33,
                "velocity": 80,
                "duration": 0.11590909090909918,
                "tempo": 120.0
            },
            {
                "start_time": 81.18863636363636,
                "end_time": 81.30681818181817,
                "pitch": 45,
                "velocity": 80,
                "duration": 0.11818181818181017,
                "tempo": 120.0
            },
            {
                "start_time": 81.30681818181817,
                "end_time": 81.425,
                "pitch": 33,
                "velocity": 80,
                "duration": 0.11818181818182438,
                "tempo": 120.0
            },
            {
                "start_time": 81.425,
                "end_time": 81.55909090909091,
                "pitch": 33,
                "velocity": 80,
                "duration": 0.13409090909091503,
                "tempo": 120.0
            },
            {
                "start_time": 81.55909090909091,
                "end_time": 81.67727272727272,
                "pitch": 45,
                "velocity": 80,
                "duration": 0.11818181818181017,
                "tempo": 120.0
            },
            {
                "start_time": 81.67727272727272,
                "end_time": 81.79772727272727,
                "pitch": 33,
                "velocity": 80,
                "duration": 0.12045454545454959,
                "tempo": 120.0
            },
            {
                "start_time": 81.79772727272727,
                "end_time": 81.91590909090908,
                "pitch": 33,
                "velocity": 80,
                "duration": 0.11818181818181017,
                "tempo": 120.0
            },
            {
                "start_time": 81.91590909090908,
                "end_time": 82.03636363636363,
                "pitch": 45,
                "velocity": 80,
                "duration": 0.12045454545454959,
                "tempo": 120.0
            },
            {
                "start_time": 82.03636363636363,
                "end_time": 82.17272727272727,
                "pitch": 33,
                "velocity": 80,
                "duration": 0.13636363636364024,
                "tempo": 120.0
            },
            {
                "start_time": 82.17272727272727,
                "end_time": 82.28863636363636,
                "pitch": 29,
                "velocity": 80,
                "duration": 0.11590909090908497,
                "tempo": 120.0
            },
            {
                "start_time": 82.28863636363636,
                "end_time": 82.40681818181818,
                "pitch": 29,
                "velocity": 80,
                "duration": 0.11818181818182438,
                "tempo": 120.0
            },
            {
                "start_time": 82.4090909090909,
                "end_time": 82.52727272727272,
                "pitch": 41,
                "velocity": 80,
                "duration": 0.11818181818181017,
                "tempo": 120.0
            },
            {
                "start_time": 82.52727272727272,
                "end_time": 82.64318181818182,
                "pitch": 29,
                "velocity": 80,
                "duration": 0.11590909090909918,
                "tempo": 120.0
            },
            {
                "start_time": 82.64318181818182,
                "end_time": 82.77499999999999,
                "pitch": 29,
                "velocity": 80,
                "duration": 0.13181818181817562,
                "tempo": 120.0
            },
            {
                "start_time": 82.77499999999999,
                "end_time": 82.89090909090909,
                "pitch": 41,
                "velocity": 80,
                "duration": 0.11590909090909918,
                "tempo": 120.0
            },
            {
                "start_time": 82.89090909090909,
                "end_time": 83.00454545454545,
                "pitch": 29,
                "velocity": 80,
                "duration": 0.11363636363635976,
                "tempo": 120.0
            },
            {
                "start_time": 83.00454545454545,
                "end_time": 83.12045454545454,
                "pitch": 29,
                "velocity": 80,
                "duration": 0.11590909090908497,
                "tempo": 120.0
            },
            {
                "start_time": 83.12045454545454,
                "end_time": 83.23636363636363,
                "pitch": 41,
                "velocity": 80,
                "duration": 0.11590909090909918,
                "tempo": 120.0
            },
            {
                "start_time": 83.23863636363636,
                "end_time": 83.37272727272727,
                "pitch": 29,
                "velocity": 80,
                "duration": 0.13409090909091503,
                "tempo": 120.0
            },
            {
                "start_time": 83.37272727272727,
                "end_time": 83.49090909090908,
                "pitch": 29,
                "velocity": 80,
                "duration": 0.11818181818181017,
                "tempo": 120.0
            },
            {
                "start_time": 83.49090909090908,
                "end_time": 83.60681818181818,
                "pitch": 41,
                "velocity": 80,
                "duration": 0.11590909090909918,
                "tempo": 120.0
            },
            {
                "start_time": 83.60681818181818,
                "end_time": 83.72727272727272,
                "pitch": 29,
                "velocity": 80,
                "duration": 0.12045454545453538,
                "tempo": 120.0
            },
            {
                "start_time": 83.72727272727272,
                "end_time": 83.84772727272727,
                "pitch": 29,
                "velocity": 80,
                "duration": 0.12045454545454959,
                "tempo": 120.0
            },
            {
                "start_time": 83.84772727272727,
                "end_time": 83.98409090909091,
                "pitch": 41,
                "velocity": 80,
                "duration": 0.13636363636364024,
                "tempo": 120.0
            },
            {
                "start_time": 83.98409090909091,
                "end_time": 84.10454545454544,
                "pitch": 29,
                "velocity": 80,
                "duration": 0.12045454545453538,
                "tempo": 120.0
            },
            {
                "start_time": 84.10454545454544,
                "end_time": 84.22045454545454,
                "pitch": 36,
                "velocity": 80,
                "duration": 0.11590909090909918,
                "tempo": 120.0
            },
            {
                "start_time": 84.22045454545454,
                "end_time": 84.33863636363635,
                "pitch": 36,
                "velocity": 80,
                "duration": 0.11818181818181017,
                "tempo": 120.0
            },
            {
                "start_time": 84.33863636363635,
                "end_time": 84.45681818181818,
                "pitch": 48,
                "velocity": 80,
                "duration": 0.11818181818182438,
                "tempo": 120.0
            },
            {
                "start_time": 84.45681818181818,
                "end_time": 84.5909090909091,
                "pitch": 36,
                "velocity": 80,
                "duration": 0.13409090909091503,
                "tempo": 120.0
            },
            {
                "start_time": 84.5909090909091,
                "end_time": 84.7090909090909,
                "pitch": 36,
                "velocity": 80,
                "duration": 0.11818181818181017,
                "tempo": 120.0
            },
            {
                "start_time": 84.7090909090909,
                "end_time": 84.82727272727273,
                "pitch": 48,
                "velocity": 80,
                "duration": 0.11818181818182438,
                "tempo": 120.0
            },
            {
                "start_time": 84.82727272727273,
                "end_time": 84.94318181818181,
                "pitch": 36,
                "velocity": 80,
                "duration": 0.11590909090908497,
                "tempo": 120.0
            },
            {
                "start_time": 84.94545454545454,
                "end_time": 85.06136363636364,
                "pitch": 36,
                "velocity": 80,
                "duration": 0.11590909090909918,
                "tempo": 120.0
            },
            {
                "start_time": 85.06136363636364,
                "end_time": 85.19318181818181,
                "pitch": 48,
                "velocity": 80,
                "duration": 0.13181818181817562,
                "tempo": 120.0
            },
            {
                "start_time": 85.19545454545454,
                "end_time": 85.3090909090909,
                "pitch": 36,
                "velocity": 80,
                "duration": 0.11363636363635976,
                "tempo": 120.0
            },
            {
                "start_time": 85.3090909090909,
                "end_time": 85.42272727272727,
                "pitch": 36,
                "velocity": 80,
                "duration": 0.11363636363637397,
                "tempo": 120.0
            },
            {
                "start_time": 85.42272727272727,
                "end_time": 85.53863636363636,
                "pitch": 48,
                "velocity": 80,
                "duration": 0.11590909090908497,
                "tempo": 120.0
            },
            {
                "start_time": 85.53863636363636,
                "end_time": 85.65681818181818,
                "pitch": 36,
                "velocity": 80,
                "duration": 0.11818181818182438,
                "tempo": 120.0
            },
            {
                "start_time": 85.65681818181818,
                "end_time": 85.78863636363636,
                "pitch": 36,
                "velocity": 80,
                "duration": 0.13181818181817562,
                "tempo": 120.0
            },
            {
                "start_time": 85.78863636363636,
                "end_time": 85.90454545454546,
                "pitch": 48,
                "velocity": 80,
                "duration": 0.11590909090909918,
                "tempo": 120.0
            },
            {
                "start_time": 85.90681818181818,
                "end_time": 86.02272727272727,
                "pitch": 36,
                "velocity": 80,
                "duration": 0.11590909090908497,
                "tempo": 120.0
            },
            {
                "start_time": 86.02272727272727,
                "end_time": 86.14090909090909,
                "pitch": 35,
                "velocity": 80,
                "duration": 0.11818181818182438,
                "tempo": 120.0
            },
            {
                "start_time": 86.14090909090909,
                "end_time": 86.26136363636363,
                "pitch": 35,
                "velocity": 80,
                "duration": 0.12045454545453538,
                "tempo": 120.0
            },
            {
                "start_time": 86.26136363636363,
                "end_time": 86.39999999999999,
                "pitch": 47,
                "velocity": 80,
                "duration": 0.13863636363636545,
                "tempo": 120.0
            },
            {
                "start_time": 86.39999999999999,
                "end_time": 86.51818181818182,
                "pitch": 35,
                "velocity": 80,
                "duration": 0.11818181818182438,
                "tempo": 120.0
            },
            {
                "start_time": 86.51818181818182,
                "end_time": 86.63636363636363,
                "pitch": 35,
                "velocity": 80,
                "duration": 0.11818181818181017,
                "tempo": 120.0
            },
            {
                "start_time": 86.63636363636363,
                "end_time": 86.75454545454545,
                "pitch": 47,
                "velocity": 80,
                "duration": 0.11818181818182438,
                "tempo": 120.0
            },
            {
                "start_time": 86.75454545454545,
                "end_time": 86.87045454545454,
                "pitch": 35,
                "velocity": 80,
                "duration": 0.11590909090908497,
                "tempo": 120.0
            },
            {
                "start_time": 86.87045454545454,
                "end_time": 87.00454545454545,
                "pitch": 35,
                "velocity": 80,
                "duration": 0.13409090909091503,
                "tempo": 120.0
            },
            {
                "start_time": 87.00454545454545,
                "end_time": 87.12727272727273,
                "pitch": 47,
                "velocity": 80,
                "duration": 0.1227272727272748,
                "tempo": 120.0
            },
            {
                "start_time": 87.12727272727273,
                "end_time": 87.24545454545454,
                "pitch": 35,
                "velocity": 80,
                "duration": 0.11818181818181017,
                "tempo": 120.0
            },
            {
                "start_time": 87.24545454545454,
                "end_time": 87.36590909090908,
                "pitch": 35,
                "velocity": 80,
                "duration": 0.12045454545454959,
                "tempo": 120.0
            },
            {
                "start_time": 87.36590909090908,
                "end_time": 87.48409090909091,
                "pitch": 47,
                "velocity": 80,
                "duration": 0.11818181818182438,
                "tempo": 120.0
            },
            {
                "start_time": 87.48409090909091,
                "end_time": 87.61363636363636,
                "pitch": 35,
                "velocity": 80,
                "duration": 0.1295454545454504,
                "tempo": 120.0
            },
            {
                "start_time": 87.61363636363636,
                "end_time": 87.725,
                "pitch": 35,
                "velocity": 80,
                "duration": 0.11136363636363455,
                "tempo": 120.0
            },
            {
                "start_time": 87.725,
                "end_time": 87.83636363636363,
                "pitch": 47,
                "velocity": 80,
                "duration": 0.11136363636363455,
                "tempo": 120.0
            },
            {
                "start_time": 87.83636363636363,
                "end_time": 87.94999999999999,
                "pitch": 35,
                "velocity": 80,
                "duration": 0.11363636363635976,
                "tempo": 120.0
            },
            {
                "start_time": 87.94999999999999,
                "end_time": 88.06818181818181,
                "pitch": 33,
                "velocity": 80,
                "duration": 0.11818181818182438,
                "tempo": 120.0
            },
            {
                "start_time": 88.06818181818181,
                "end_time": 88.20681818181818,
                "pitch": 33,
                "velocity": 80,
                "duration": 0.13863636363636545,
                "tempo": 120.0
            },
            {
                "start_time": 88.20681818181818,
                "end_time": 88.32727272727273,
                "pitch": 45,
                "velocity": 80,
                "duration": 0.12045454545454959,
                "tempo": 120.0
            },
            {
                "start_time": 88.32727272727273,
                "end_time": 88.44545454545454,
                "pitch": 33,
                "velocity": 80,
                "duration": 0.11818181818181017,
                "tempo": 120.0
            },
            {
                "start_time": 88.44545454545454,
                "end_time": 88.56136363636364,
                "pitch": 33,
                "velocity": 80,
                "duration": 0.11590909090909918,
                "tempo": 120.0
            },
            {
                "start_time": 88.56136363636364,
                "end_time": 88.67954545454545,
                "pitch": 45,
                "velocity": 80,
                "duration": 0.11818181818181017,
                "tempo": 120.0
            },
            {
                "start_time": 88.67954545454545,
                "end_time": 88.81136363636364,
                "pitch": 33,
                "velocity": 80,
                "duration": 0.13181818181818983,
                "tempo": 120.0
            },
            {
                "start_time": 88.81363636363636,
                "end_time": 88.92954545454545,
                "pitch": 33,
                "velocity": 80,
                "duration": 0.11590909090908497,
                "tempo": 120.0
            },
            {
                "start_time": 88.92954545454545,
                "end_time": 89.04772727272727,
                "pitch": 45,
                "velocity": 80,
                "duration": 0.11818181818182438,
                "tempo": 120.0
            },
            {
                "start_time": 89.04772727272727,
                "end_time": 89.16590909090908,
                "pitch": 33,
                "velocity": 80,
                "duration": 0.11818181818181017,
                "tempo": 120.0
            },
            {
                "start_time": 89.16590909090908,
                "end_time": 89.28181818181818,
                "pitch": 33,
                "velocity": 80,
                "duration": 0.11590909090909918,
                "tempo": 120.0
            },
            {
                "start_time": 89.28181818181818,
                "end_time": 89.41590909090908,
                "pitch": 45,
                "velocity": 80,
                "duration": 0.13409090909090082,
                "tempo": 120.0
            },
            {
                "start_time": 89.41590909090908,
                "end_time": 89.53636363636363,
                "pitch": 33,
                "velocity": 80,
                "duration": 0.12045454545454959,
                "tempo": 120.0
            },
            {
                "start_time": 89.53863636363636,
                "end_time": 89.65681818181818,
                "pitch": 33,
                "velocity": 80,
                "duration": 0.11818181818182438,
                "tempo": 120.0
            },
            {
                "start_time": 89.65681818181818,
                "end_time": 89.77499999999999,
                "pitch": 45,
                "velocity": 80,
                "duration": 0.11818181818181017,
                "tempo": 120.0
            },
            {
                "start_time": 89.77727272727272,
                "end_time": 89.89772727272727,
                "pitch": 33,
                "velocity": 80,
                "duration": 0.12045454545454959,
                "tempo": 120.0
            },
            {
                "start_time": 89.89772727272727,
                "end_time": 90.02727272727272,
                "pitch": 29,
                "velocity": 80,
                "duration": 0.1295454545454504,
                "tempo": 120.0
            },
            {
                "start_time": 90.02727272727272,
                "end_time": 90.14318181818182,
                "pitch": 29,
                "velocity": 80,
                "duration": 0.11590909090909918,
                "tempo": 120.0
            },
            {
                "start_time": 90.14318181818182,
                "end_time": 90.2590909090909,
                "pitch": 41,
                "velocity": 80,
                "duration": 0.11590909090908497,
                "tempo": 120.0
            },
            {
                "start_time": 90.2590909090909,
                "end_time": 90.37272727272727,
                "pitch": 29,
                "velocity": 80,
                "duration": 0.11363636363637397,
                "tempo": 120.0
            },
            {
                "start_time": 90.37272727272727,
                "end_time": 90.48863636363636,
                "pitch": 29,
                "velocity": 80,
                "duration": 0.11590909090908497,
                "tempo": 120.0
            },
            {
                "start_time": 90.48863636363636,
                "end_time": 90.62272727272727,
                "pitch": 41,
                "velocity": 80,
                "duration": 0.13409090909091503,
                "tempo": 120.0
            },
            {
                "start_time": 90.62272727272727,
                "end_time": 90.73863636363636,
                "pitch": 29,
                "velocity": 80,
                "duration": 0.11590909090908497,
                "tempo": 120.0
            },
            {
                "start_time": 90.73863636363636,
                "end_time": 90.85681818181818,
                "pitch": 29,
                "velocity": 80,
                "duration": 0.11818181818182438,
                "tempo": 120.0
            },
            {
                "start_time": 90.85681818181818,
                "end_time": 90.97272727272727,
                "pitch": 43,
                "velocity": 80,
                "duration": 0.11590909090908497,
                "tempo": 120.0
            },
            {
                "start_time": 90.975,
                "end_time": 91.0909090909091,
                "pitch": 31,
                "velocity": 80,
                "duration": 0.11590909090909918,
                "tempo": 120.0
            },
            {
                "start_time": 91.0909090909091,
                "end_time": 91.22727272727272,
                "pitch": 31,
                "velocity": 80,
                "duration": 0.13636363636362603,
                "tempo": 120.0
            },
            {
                "start_time": 91.22727272727272,
                "end_time": 91.34318181818182,
                "pitch": 43,
                "velocity": 80,
                "duration": 0.11590909090909918,
                "tempo": 120.0
            },
            {
                "start_time": 91.34318181818182,
                "end_time": 91.46363636363635,
                "pitch": 31,
                "velocity": 80,
                "duration": 0.12045454545453538,
                "tempo": 120.0
            },
            {
                "start_time": 91.46363636363635,
                "end_time": 91.5840909090909,
                "pitch": 31,
                "velocity": 80,
                "duration": 0.12045454545454959,
                "tempo": 120.0
            },
            {
                "start_time": 91.5840909090909,
                "end_time": 91.70227272727273,
                "pitch": 43,
                "velocity": 80,
                "duration": 0.11818181818182438,
                "tempo": 120.0
            },
            {
                "start_time": 91.70227272727273,
                "end_time": 91.8409090909091,
                "pitch": 31,
                "velocity": 80,
                "duration": 0.13863636363636545,
                "tempo": 120.0
            },
            {
                "start_time": 91.8409090909091,
                "end_time": 91.95681818181818,
                "pitch": 36,
                "velocity": 80,
                "duration": 0.11590909090908497,
                "tempo": 120.0
            },
            {
                "start_time": 91.95681818181818,
                "end_time": 92.07499999999999,
                "pitch": 36,
                "velocity": 80,
                "duration": 0.11818181818181017,
                "tempo": 120.0
            },
            {
                "start_time": 92.07499999999999,
                "end_time": 92.19318181818181,
                "pitch": 48,
                "velocity": 80,
                "duration": 0.11818181818182438,
                "tempo": 120.0
            },
            {
                "start_time": 92.19318181818181,
                "end_time": 92.31136363636364,
                "pitch": 36,
                "velocity": 80,
                "duration": 0.11818181818182438,
                "tempo": 120.0
            },
            {
                "start_time": 92.31136363636364,
                "end_time": 92.44090909090909,
                "pitch": 36,
                "velocity": 80,
                "duration": 0.1295454545454504,
                "tempo": 120.0
            },
            {
                "start_time": 92.44090909090909,
                "end_time": 92.55681818181817,
                "pitch": 48,
                "velocity": 80,
                "duration": 0.11590909090908497,
                "tempo": 120.0
            },
            {
                "start_time": 92.5590909090909,
                "end_time": 92.67272727272727,
                "pitch": 36,
                "velocity": 80,
                "duration": 0.11363636363637397,
                "tempo": 120.0
            },
            {
                "start_time": 92.67272727272727,
                "end_time": 92.78636363636363,
                "pitch": 36,
                "velocity": 80,
                "duration": 0.11363636363635976,
                "tempo": 120.0
            },
            {
                "start_time": 92.78636363636363,
                "end_time": 92.90454545454546,
                "pitch": 48,
                "velocity": 80,
                "duration": 0.11818181818182438,
                "tempo": 120.0
            },
            {
                "start_time": 92.90681818181818,
                "end_time": 93.03863636363636,
                "pitch": 36,
                "velocity": 80,
                "duration": 0.13181818181817562,
                "tempo": 120.0
            },
            {
                "start_time": 93.03863636363636,
                "end_time": 93.15681818181818,
                "pitch": 36,
                "velocity": 80,
                "duration": 0.11818181818182438,
                "tempo": 120.0
            },
            {
                "start_time": 93.15681818181818,
                "end_time": 93.27499999999999,
                "pitch": 48,
                "velocity": 80,
                "duration": 0.11818181818181017,
                "tempo": 120.0
            },
            {
                "start_time": 93.27499999999999,
                "end_time": 93.39545454545454,
                "pitch": 36,
                "velocity": 80,
                "duration": 0.12045454545454959,
                "tempo": 120.0
            },
            {
                "start_time": 93.39545454545454,
                "end_time": 93.51363636363637,
                "pitch": 36,
                "velocity": 80,
                "duration": 0.11818181818182438,
                "tempo": 120.0
            },
            {
                "start_time": 93.51363636363637,
                "end_time": 93.64999999999999,
                "pitch": 48,
                "velocity": 80,
                "duration": 0.13636363636362603,
                "tempo": 120.0
            },
            {
                "start_time": 93.64999999999999,
                "end_time": 93.77272727272727,
                "pitch": 36,
                "velocity": 80,
                "duration": 0.1227272727272748,
                "tempo": 120.0
            },
            {
                "start_time": 93.77272727272727,
                "end_time": 93.88863636363637,
                "pitch": 35,
                "velocity": 80,
                "duration": 0.11590909090909918,
                "tempo": 120.0
            },
            {
                "start_time": 93.88863636363637,
                "end_time": 94.00681818181818,
                "pitch": 35,
                "velocity": 80,
                "duration": 0.11818181818181017,
                "tempo": 120.0
            },
            {
                "start_time": 94.00681818181818,
                "end_time": 94.125,
                "pitch": 47,
                "velocity": 80,
                "duration": 0.11818181818182438,
                "tempo": 120.0
            },
            {
                "start_time": 94.125,
                "end_time": 94.2590909090909,
                "pitch": 35,
                "velocity": 80,
                "duration": 0.13409090909090082,
                "tempo": 120.0
            },
            {
                "start_time": 94.2590909090909,
                "end_time": 94.37727272727273,
                "pitch": 35,
                "velocity": 80,
                "duration": 0.11818181818182438,
                "tempo": 120.0
            },
            {
                "start_time": 94.37727272727273,
                "end_time": 94.49772727272727,
                "pitch": 47,
                "velocity": 80,
                "duration": 0.12045454545454959,
                "tempo": 120.0
            },
            {
                "start_time": 94.5,
                "end_time": 94.61818181818181,
                "pitch": 35,
                "velocity": 80,
                "duration": 0.11818181818181017,
                "tempo": 120.0
            },
            {
                "start_time": 94.61818181818181,
                "end_time": 94.73636363636363,
                "pitch": 35,
                "velocity": 80,
                "duration": 0.11818181818182438,
                "tempo": 120.0
            },
            {
                "start_time": 94.73636363636363,
                "end_time": 94.86590909090908,
                "pitch": 47,
                "velocity": 80,
                "duration": 0.1295454545454504,
                "tempo": 120.0
            },
            {
                "start_time": 94.86590909090908,
                "end_time": 94.97727272727272,
                "pitch": 35,
                "velocity": 80,
                "duration": 0.11136363636363455,
                "tempo": 120.0
            },
            {
                "start_time": 94.97727272727272,
                "end_time": 95.08863636363635,
                "pitch": 35,
                "velocity": 80,
                "duration": 0.11136363636363455,
                "tempo": 120.0
            },
            {
                "start_time": 95.09090909090908,
                "end_time": 95.20227272727273,
                "pitch": 47,
                "velocity": 80,
                "duration": 0.11136363636364877,
                "tempo": 120.0
            },
            {
                "start_time": 95.20227272727273,
                "end_time": 95.32272727272726,
                "pitch": 35,
                "velocity": 80,
                "duration": 0.12045454545453538,
                "tempo": 120.0
            },
            {
                "start_time": 95.32272727272726,
                "end_time": 95.4590909090909,
                "pitch": 35,
                "velocity": 80,
                "duration": 0.13636363636364024,
                "tempo": 120.0
            },
            {
                "start_time": 95.4590909090909,
                "end_time": 95.57727272727273,
                "pitch": 47,
                "velocity": 80,
                "duration": 0.11818181818182438,
                "tempo": 120.0
            },
            {
                "start_time": 95.57727272727273,
                "end_time": 95.69999999999999,
                "pitch": 35,
                "velocity": 80,
                "duration": 0.12272727272726058,
                "tempo": 120.0
            },
            {
                "start_time": 95.69999999999999,
                "end_time": 95.81590909090909,
                "pitch": 33,
                "velocity": 80,
                "duration": 0.11590909090909918,
                "tempo": 120.0
            },
            {
                "start_time": 95.81590909090909,
                "end_time": 95.9340909090909,
                "pitch": 33,
                "velocity": 80,
                "duration": 0.11818181818181017,
                "tempo": 120.0
            },
            {
                "start_time": 95.9340909090909,
                "end_time": 96.06818181818181,
                "pitch": 45,
                "velocity": 80,
                "duration": 0.13409090909091503,
                "tempo": 120.0
            },
            {
                "start_time": 96.06818181818181,
                "end_time": 96.1840909090909,
                "pitch": 33,
                "velocity": 80,
                "duration": 0.11590909090908497,
                "tempo": 120.0
            },
            {
                "start_time": 96.18636363636364,
                "end_time": 96.30454545454545,
                "pitch": 33,
                "velocity": 80,
                "duration": 0.11818181818181017,
                "tempo": 120.0
            },
            {
                "start_time": 96.30454545454545,
                "end_time": 96.425,
                "pitch": 45,
                "velocity": 80,
                "duration": 0.12045454545454959,
                "tempo": 120.0
            },
            {
                "start_time": 96.425,
                "end_time": 96.54545454545455,
                "pitch": 33,
                "velocity": 80,
                "duration": 0.12045454545454959,
                "tempo": 120.0
            },
            {
                "start_time": 96.54545454545455,
                "end_time": 96.68181818181817,
                "pitch": 33,
                "velocity": 80,
                "duration": 0.13636363636362603,
                "tempo": 120.0
            },
            {
                "start_time": 96.68181818181817,
                "end_time": 96.8,
                "pitch": 45,
                "velocity": 80,
                "duration": 0.11818181818182438,
                "tempo": 120.0
            },
            {
                "start_time": 96.8,
                "end_time": 96.91590909090908,
                "pitch": 33,
                "velocity": 80,
                "duration": 0.11590909090908497,
                "tempo": 120.0
            },
            {
                "start_time": 96.91818181818181,
                "end_time": 97.0340909090909,
                "pitch": 33,
                "velocity": 80,
                "duration": 0.11590909090909918,
                "tempo": 120.0
            },
            {
                "start_time": 97.0340909090909,
                "end_time": 97.15227272727272,
                "pitch": 45,
                "velocity": 80,
                "duration": 0.11818181818181017,
                "tempo": 120.0
            },
            {
                "start_time": 97.15227272727272,
                "end_time": 97.2840909090909,
                "pitch": 33,
                "velocity": 80,
                "duration": 0.13181818181818983,
                "tempo": 120.0
            },
            {
                "start_time": 97.2840909090909,
                "end_time": 97.39772727272727,
                "pitch": 33,
                "velocity": 80,
                "duration": 0.11363636363635976,
                "tempo": 120.0
            },
            {
                "start_time": 97.39999999999999,
                "end_time": 97.51363636363637,
                "pitch": 45,
                "velocity": 80,
                "duration": 0.11363636363637397,
                "tempo": 120.0
            },
            {
                "start_time": 97.51363636363637,
                "end_time": 97.62954545454545,
                "pitch": 33,
                "velocity": 80,
                "duration": 0.11590909090908497,
                "tempo": 120.0
            },
            {
                "start_time": 97.62954545454545,
                "end_time": 97.74545454545454,
                "pitch": 29,
                "velocity": 80,
                "duration": 0.11590909090908497,
                "tempo": 120.0
            },
            {
                "start_time": 97.74545454545454,
                "end_time": 97.88181818181818,
                "pitch": 29,
                "velocity": 80,
                "duration": 0.13636363636364024,
                "tempo": 120.0
            },
            {
                "start_time": 97.88181818181818,
                "end_time": 98.0,
                "pitch": 41,
                "velocity": 80,
                "duration": 0.11818181818182438,
                "tempo": 120.0
            },
            {
                "start_time": 98.0,
                "end_time": 98.11590909090908,
                "pitch": 29,
                "velocity": 80,
                "duration": 0.11590909090908497,
                "tempo": 120.0
            },
            {
                "start_time": 98.11590909090908,
                "end_time": 98.23636363636363,
                "pitch": 29,
                "velocity": 80,
                "duration": 0.12045454545454959,
                "tempo": 120.0
            },
            {
                "start_time": 98.23636363636363,
                "end_time": 98.35681818181818,
                "pitch": 41,
                "velocity": 80,
                "duration": 0.12045454545454959,
                "tempo": 120.0
            },
            {
                "start_time": 98.35681818181818,
                "end_time": 98.49318181818181,
                "pitch": 29,
                "velocity": 80,
                "duration": 0.13636363636362603,
                "tempo": 120.0
            },
            {
                "start_time": 98.49318181818181,
                "end_time": 98.61363636363636,
                "pitch": 29,
                "velocity": 80,
                "duration": 0.12045454545454959,
                "tempo": 120.0
            },
            {
                "start_time": 98.61363636363636,
                "end_time": 98.72954545454544,
                "pitch": 41,
                "velocity": 80,
                "duration": 0.11590909090908497,
                "tempo": 120.0
            },
            {
                "start_time": 98.72954545454544,
                "end_time": 98.84772727272727,
                "pitch": 29,
                "velocity": 80,
                "duration": 0.11818181818182438,
                "tempo": 120.0
            },
            {
                "start_time": 98.84772727272727,
                "end_time": 98.96590909090908,
                "pitch": 29,
                "velocity": 80,
                "duration": 0.11818181818181017,
                "tempo": 120.0
            },
            {
                "start_time": 98.96590909090908,
                "end_time": 99.1,
                "pitch": 41,
                "velocity": 80,
                "duration": 0.13409090909091503,
                "tempo": 120.0
            },
            {
                "start_time": 99.1,
                "end_time": 99.21818181818182,
                "pitch": 29,
                "velocity": 80,
                "duration": 0.11818181818182438,
                "tempo": 120.0
            },
            {
                "start_time": 99.21818181818182,
                "end_time": 99.33636363636363,
                "pitch": 29,
                "velocity": 80,
                "duration": 0.11818181818181017,
                "tempo": 120.0
            },
            {
                "start_time": 99.33636363636363,
                "end_time": 99.45454545454545,
                "pitch": 41,
                "velocity": 80,
                "duration": 0.11818181818182438,
                "tempo": 120.0
            },
            {
                "start_time": 99.45454545454545,
                "end_time": 99.57272727272726,
                "pitch": 29,
                "velocity": 80,
                "duration": 0.11818181818181017,
                "tempo": 120.0
            },
            {
                "start_time": 99.57272727272726,
                "end_time": 99.70227272727273,
                "pitch": 26,
                "velocity": 80,
                "duration": 0.12954545454546462,
                "tempo": 120.0
            },
            {
                "start_time": 99.70227272727273,
                "end_time": 99.81818181818181,
                "pitch": 26,
                "velocity": 80,
                "duration": 0.11590909090908497,
                "tempo": 120.0
            },
            {
                "start_time": 99.81818181818181,
                "end_time": 99.9340909090909,
                "pitch": 38,
                "velocity": 80,
                "duration": 0.11590909090908497,
                "tempo": 120.0
            },
            {
                "start_time": 99.9340909090909,
                "end_time": 100.04772727272727,
                "pitch": 26,
                "velocity": 80,
                "duration": 0.11363636363637397,
                "tempo": 120.0
            },
            {
                "start_time": 100.04772727272727,
                "end_time": 100.16363636363636,
                "pitch": 26,
                "velocity": 80,
                "duration": 0.11590909090908497,
                "tempo": 120.0
            },
            {
                "start_time": 100.16363636363636,
                "end_time": 100.29772727272727,
                "pitch": 38,
                "velocity": 80,
                "duration": 0.13409090909091503,
                "tempo": 120.0
            },
            {
                "start_time": 100.29772727272727,
                "end_time": 100.41363636363636,
                "pitch": 26,
                "velocity": 80,
                "duration": 0.11590909090908497,
                "tempo": 120.0
            },
            {
                "start_time": 100.41363636363636,
                "end_time": 100.53181818181818,
                "pitch": 26,
                "velocity": 80,
                "duration": 0.11818181818182438,
                "tempo": 120.0
            },
            {
                "start_time": 100.53181818181818,
                "end_time": 100.64999999999999,
                "pitch": 40,
                "velocity": 80,
                "duration": 0.11818181818181017,
                "tempo": 120.0
            },
            {
                "start_time": 100.64999999999999,
                "end_time": 100.77045454545454,
                "pitch": 28,
                "velocity": 80,
                "duration": 0.12045454545454959,
                "tempo": 120.0
            },
            {
                "start_time": 100.77045454545454,
                "end_time": 100.9090909090909,
                "pitch": 28,
                "velocity": 80,
                "duration": 0.13863636363636545,
                "tempo": 120.0
            },
            {
                "start_time": 100.9090909090909,
                "end_time": 101.02727272727272,
                "pitch": 40,
                "velocity": 80,
                "duration": 0.11818181818181017,
                "tempo": 120.0
            },
            {
                "start_time": 101.02727272727272,
                "end_time": 101.14318181818182,
                "pitch": 28,
                "velocity": 80,
                "duration": 0.11590909090909918,
                "tempo": 120.0
            },
            {
                "start_time": 101.14318181818182,
                "end_time": 101.26136363636363,
                "pitch": 28,
                "velocity": 80,
                "duration": 0.11818181818181017,
                "tempo": 120.0
            },
            {
                "start_time": 101.26136363636363,
                "end_time": 101.37727272727273,
                "pitch": 40,
                "velocity": 80,
                "duration": 0.11590909090909918,
                "tempo": 120.0
            },
            {
                "start_time": 101.37727272727273,
                "end_time": 101.51136363636363,
                "pitch": 28,
                "velocity": 80,
                "duration": 0.13409090909090082,
                "tempo": 120.0
            },
            {
                "start_time": 101.51136363636363,
                "end_time": 101.62727272727273,
                "pitch": 41,
                "velocity": 80,
                "duration": 0.11590909090909918,
                "tempo": 120.0
            },
            {
                "start_time": 101.62727272727273,
                "end_time": 101.74545454545454,
                "pitch": 29,
                "velocity": 80,
                "duration": 0.11818181818181017,
                "tempo": 120.0
            },
            {
                "start_time": 101.74772727272727,
                "end_time": 101.86590909090908,
                "pitch": 29,
                "velocity": 80,
                "duration": 0.11818181818181017,
                "tempo": 120.0
            },
            {
                "start_time": 101.86590909090908,
                "end_time": 101.98181818181817,
                "pitch": 41,
                "velocity": 80,
                "duration": 0.11590909090908497,
                "tempo": 120.0
            },
            {
                "start_time": 101.98181818181817,
                "end_time": 102.11363636363636,
                "pitch": 29,
                "velocity": 80,
                "duration": 0.13181818181818983,
                "tempo": 120.0
            },
            {
                "start_time": 102.11363636363636,
                "end_time": 102.22954545454544,
                "pitch": 29,
                "velocity": 80,
                "duration": 0.11590909090908497,
                "tempo": 120.0
            },
            {
                "start_time": 102.22954545454544,
                "end_time": 102.34318181818182,
                "pitch": 41,
                "velocity": 80,
                "duration": 0.11363636363637397,
                "tempo": 120.0
            },
            {
                "start_time": 102.34318181818182,
                "end_time": 102.4590909090909,
                "pitch": 29,
                "velocity": 80,
                "duration": 0.11590909090908497,
                "tempo": 120.0
            },
            {
                "start_time": 102.4590909090909,
                "end_time": 102.57727272727273,
                "pitch": 42,
                "velocity": 80,
                "duration": 0.11818181818182438,
                "tempo": 120.0
            },
            {
                "start_time": 102.57727272727273,
                "end_time": 102.71363636363635,
                "pitch": 30,
                "velocity": 80,
                "duration": 0.13636363636362603,
                "tempo": 120.0
            },
            {
                "start_time": 102.71590909090908,
                "end_time": 102.8340909090909,
                "pitch": 30,
                "velocity": 80,
                "duration": 0.11818181818182438,
                "tempo": 120.0
            },
            {
                "start_time": 102.83636363636363,
                "end_time": 102.95454545454545,
                "pitch": 42,
                "velocity": 80,
                "duration": 0.11818181818182438,
                "tempo": 120.0
            },
            {
                "start_time": 102.95454545454545,
                "end_time": 103.07045454545454,
                "pitch": 30,
                "velocity": 80,
                "duration": 0.11590909090908497,
                "tempo": 120.0
            },
            {
                "start_time": 103.07045454545454,
                "end_time": 103.18863636363636,
                "pitch": 30,
                "velocity": 80,
                "duration": 0.11818181818182438,
                "tempo": 120.0
            },
            {
                "start_time": 103.18863636363636,
                "end_time": 103.32045454545454,
                "pitch": 42,
                "velocity": 80,
                "duration": 0.13181818181817562,
                "tempo": 120.0
            },
            {
                "start_time": 103.32045454545454,
                "end_time": 103.43863636363636,
                "pitch": 30,
                "velocity": 80,
                "duration": 0.11818181818182438,
                "tempo": 120.0
            },
            {
                "start_time": 103.43863636363636,
                "end_time": 103.55454545454545,
                "pitch": 43,
                "velocity": 80,
                "duration": 0.11590909090908497,
                "tempo": 120.0
            },
            {
                "start_time": 103.55454545454545,
                "end_time": 103.67272727272727,
                "pitch": 31,
                "velocity": 80,
                "duration": 0.11818181818182438,
                "tempo": 120.0
            },
            {
                "start_time": 103.67272727272727,
                "end_time": 103.79090909090908,
                "pitch": 31,
                "velocity": 80,
                "duration": 0.11818181818181017,
                "tempo": 120.0
            },
            {
                "start_time": 103.79318181818181,
                "end_time": 103.925,
                "pitch": 43,
                "velocity": 80,
                "duration": 0.13181818181818983,
                "tempo": 120.0
            },
            {
                "start_time": 103.92727272727272,
                "end_time": 104.04545454545455,
                "pitch": 31,
                "velocity": 80,
                "duration": 0.11818181818182438,
                "tempo": 120.0
            },
            {
                "start_time": 104.04545454545455,
                "end_time": 104.16590909090908,
                "pitch": 31,
                "velocity": 80,
                "duration": 0.12045454545453538,
                "tempo": 120.0
            },
            {
                "start_time": 104.16590909090908,
                "end_time": 104.2840909090909,
                "pitch": 43,
                "velocity": 80,
                "duration": 0.11818181818182438,
                "tempo": 120.0
            },
            {
                "start_time": 104.2840909090909,
                "end_time": 104.40454545454546,
                "pitch": 31,
                "velocity": 80,
                "duration": 0.12045454545454959,
                "tempo": 120.0
            },
            {
                "start_time": 104.40454545454546,
                "end_time": 104.53181818181818,
                "pitch": 31,
                "velocity": 80,
                "duration": 0.1272727272727252,
                "tempo": 120.0
            },
            {
                "start_time": 104.53181818181818,
                "end_time": 104.64545454545454,
                "pitch": 43,
                "velocity": 80,
                "duration": 0.11363636363635976,
                "tempo": 120.0
            },
            {
                "start_time": 104.64545454545454,
                "end_time": 104.75681818181818,
                "pitch": 31,
                "velocity": 80,
                "duration": 0.11136363636363455,
                "tempo": 120.0
            },
            {
                "start_time": 104.75681818181818,
                "end_time": 104.87045454545454,
                "pitch": 31,
                "velocity": 80,
                "duration": 0.11363636363635976,
                "tempo": 120.0
            },
            {
                "start_time": 104.87045454545454,
                "end_time": 104.98863636363636,
                "pitch": 43,
                "velocity": 80,
                "duration": 0.11818181818182438,
                "tempo": 120.0
            },
            {
                "start_time": 104.98863636363636,
                "end_time": 105.12727272727273,
                "pitch": 31,
                "velocity": 80,
                "duration": 0.13863636363636545,
                "tempo": 120.0
            },
            {
                "start_time": 105.12727272727273,
                "end_time": 105.24545454545454,
                "pitch": 43,
                "velocity": 80,
                "duration": 0.11818181818181017,
                "tempo": 120.0
            },
            {
                "start_time": 105.24545454545454,
                "end_time": 105.36590909090908,
                "pitch": 31,
                "velocity": 80,
                "duration": 0.12045454545454959,
                "tempo": 120.0
            },
            {
                "start_time": 105.36590909090908,
                "end_time": 105.48181818181817,
                "pitch": 43,
                "velocity": 80,
                "duration": 0.11590909090908497,
                "tempo": 120.0
            },
            {
                "start_time": 105.48181818181817,
                "end_time": 105.6,
                "pitch": 31,
                "velocity": 80,
                "duration": 0.11818181818182438,
                "tempo": 120.0
            },
            {
                "start_time": 105.6,
                "end_time": 105.73409090909091,
                "pitch": 31,
                "velocity": 80,
                "duration": 0.13409090909091503,
                "tempo": 120.0
            },
            {
                "start_time": 105.73409090909091,
                "end_time": 105.85227272727272,
                "pitch": 43,
                "velocity": 80,
                "duration": 0.11818181818181017,
                "tempo": 120.0
            },
            {
                "start_time": 105.85454545454544,
                "end_time": 105.97272727272727,
                "pitch": 31,
                "velocity": 80,
                "duration": 0.11818181818182438,
                "tempo": 120.0
            },
            {
                "start_time": 105.97272727272727,
                "end_time": 106.09318181818182,
                "pitch": 31,
                "velocity": 80,
                "duration": 0.12045454545454959,
                "tempo": 120.0
            },
            {
                "start_time": 106.09318181818182,
                "end_time": 106.21136363636363,
                "pitch": 43,
                "velocity": 80,
                "duration": 0.11818181818181017,
                "tempo": 120.0
            },
            {
                "start_time": 106.21136363636363,
                "end_time": 106.35,
                "pitch": 31,
                "velocity": 80,
                "duration": 0.13863636363636545,
                "tempo": 120.0
            },
            {
                "start_time": 106.35,
                "end_time": 106.46590909090908,
                "pitch": 31,
                "velocity": 80,
                "duration": 0.11590909090908497,
                "tempo": 120.0
            },
            {
                "start_time": 106.46590909090908,
                "end_time": 106.5840909090909,
                "pitch": 43,
                "velocity": 80,
                "duration": 0.11818181818182438,
                "tempo": 120.0
            },
            {
                "start_time": 106.5840909090909,
                "end_time": 106.70227272727273,
                "pitch": 31,
                "velocity": 80,
                "duration": 0.11818181818182438,
                "tempo": 120.0
            },
            {
                "start_time": 106.70227272727273,
                "end_time": 106.81818181818181,
                "pitch": 31,
                "velocity": 80,
                "duration": 0.11590909090908497,
                "tempo": 120.0
            },
            {
                "start_time": 106.82045454545454,
                "end_time": 106.94999999999999,
                "pitch": 43,
                "velocity": 80,
                "duration": 0.1295454545454504,
                "tempo": 120.0
            },
            {
                "start_time": 106.94999999999999,
                "end_time": 107.06590909090909,
                "pitch": 31,
                "velocity": 80,
                "duration": 0.11590909090909918,
                "tempo": 120.0
            },
            {
                "start_time": 107.06818181818181,
                "end_time": 107.18181818181817,
                "pitch": 43,
                "velocity": 80,
                "duration": 0.11363636363635976,
                "tempo": 120.0
            },
            {
                "start_time": 107.18181818181817,
                "end_time": 107.29772727272727,
                "pitch": 31,
                "velocity": 80,
                "duration": 0.11590909090909918,
                "tempo": 120.0
            },
            {
                "start_time": 122.78181818181818,
                "end_time": 122.89999999999999,
                "pitch": 36,
                "velocity": 80,
                "duration": 0.11818181818181017,
                "tempo": 120.0
            },
            {
                "start_time": 122.89999999999999,
                "end_time": 123.01818181818182,
                "pitch": 36,
                "velocity": 80,
                "duration": 0.11818181818182438,
                "tempo": 120.0
            },
            {
                "start_time": 123.02045454545454,
                "end_time": 123.14090909090909,
                "pitch": 48,
                "velocity": 80,
                "duration": 0.12045454545454959,
                "tempo": 120.0
            },
            {
                "start_time": 123.14090909090909,
                "end_time": 123.27499999999999,
                "pitch": 36,
                "velocity": 80,
                "duration": 0.13409090909090082,
                "tempo": 120.0
            },
            {
                "start_time": 123.27499999999999,
                "end_time": 123.39090909090909,
                "pitch": 36,
                "velocity": 80,
                "duration": 0.11590909090909918,
                "tempo": 120.0
            },
            {
                "start_time": 123.39318181818182,
                "end_time": 123.5090909090909,
                "pitch": 48,
                "velocity": 80,
                "duration": 0.11590909090908497,
                "tempo": 120.0
            },
            {
                "start_time": 123.51136363636363,
                "end_time": 123.625,
                "pitch": 36,
                "velocity": 80,
                "duration": 0.11363636363637397,
                "tempo": 120.0
            },
            {
                "start_time": 123.62727272727273,
                "end_time": 123.74318181818181,
                "pitch": 36,
                "velocity": 80,
                "duration": 0.11590909090908497,
                "tempo": 120.0
            },
            {
                "start_time": 123.74318181818181,
                "end_time": 123.875,
                "pitch": 48,
                "velocity": 80,
                "duration": 0.13181818181818983,
                "tempo": 120.0
            },
            {
                "start_time": 123.875,
                "end_time": 123.98863636363636,
                "pitch": 36,
                "velocity": 80,
                "duration": 0.11363636363635976,
                "tempo": 120.0
            },
            {
                "start_time": 123.98863636363636,
                "end_time": 124.10454545454544,
                "pitch": 36,
                "velocity": 80,
                "duration": 0.11590909090908497,
                "tempo": 120.0
            },
            {
                "start_time": 124.10454545454544,
                "end_time": 124.21818181818182,
                "pitch": 48,
                "velocity": 80,
                "duration": 0.11363636363637397,
                "tempo": 120.0
            },
            {
                "start_time": 124.21818181818182,
                "end_time": 124.33636363636363,
                "pitch": 36,
                "velocity": 80,
                "duration": 0.11818181818181017,
                "tempo": 120.0
            },
            {
                "start_time": 124.33636363636363,
                "end_time": 124.47045454545454,
                "pitch": 36,
                "velocity": 80,
                "duration": 0.13409090909091503,
                "tempo": 120.0
            },
            {
                "start_time": 124.47045454545454,
                "end_time": 124.58636363636363,
                "pitch": 48,
                "velocity": 80,
                "duration": 0.11590909090908497,
                "tempo": 120.0
            },
            {
                "start_time": 124.58636363636363,
                "end_time": 124.70454545454545,
                "pitch": 36,
                "velocity": 80,
                "duration": 0.11818181818182438,
                "tempo": 120.0
            },
            {
                "start_time": 124.70454545454545,
                "end_time": 124.82272727272726,
                "pitch": 35,
                "velocity": 80,
                "duration": 0.11818181818181017,
                "tempo": 120.0
            },
            {
                "start_time": 124.82272727272726,
                "end_time": 124.94318181818181,
                "pitch": 35,
                "velocity": 80,
                "duration": 0.12045454545454959,
                "tempo": 120.0
            },
            {
                "start_time": 124.94318181818181,
                "end_time": 125.07954545454545,
                "pitch": 47,
                "velocity": 80,
                "duration": 0.13636363636364024,
                "tempo": 120.0
            },
            {
                "start_time": 125.07954545454545,
                "end_time": 125.19772727272726,
                "pitch": 35,
                "velocity": 80,
                "duration": 0.11818181818181017,
                "tempo": 120.0
            },
            {
                "start_time": 125.19772727272726,
                "end_time": 125.31590909090909,
                "pitch": 35,
                "velocity": 80,
                "duration": 0.11818181818182438,
                "tempo": 120.0
            },
            {
                "start_time": 125.31590909090909,
                "end_time": 125.4340909090909,
                "pitch": 47,
                "velocity": 80,
                "duration": 0.11818181818181017,
                "tempo": 120.0
            },
            {
                "start_time": 125.4340909090909,
                "end_time": 125.55,
                "pitch": 35,
                "velocity": 80,
                "duration": 0.11590909090909918,
                "tempo": 120.0
            },
            {
                "start_time": 125.55,
                "end_time": 125.68181818181817,
                "pitch": 35,
                "velocity": 80,
                "duration": 0.13181818181817562,
                "tempo": 120.0
            },
            {
                "start_time": 125.68181818181817,
                "end_time": 125.80227272727272,
                "pitch": 47,
                "velocity": 80,
                "duration": 0.12045454545454959,
                "tempo": 120.0
            },
            {
                "start_time": 125.80227272727272,
                "end_time": 125.91818181818181,
                "pitch": 35,
                "velocity": 80,
                "duration": 0.11590909090908497,
                "tempo": 120.0
            },
            {
                "start_time": 125.91818181818181,
                "end_time": 126.03636363636363,
                "pitch": 35,
                "velocity": 80,
                "duration": 0.11818181818182438,
                "tempo": 120.0
            },
            {
                "start_time": 126.03636363636363,
                "end_time": 126.15227272727272,
                "pitch": 47,
                "velocity": 80,
                "duration": 0.11590909090908497,
                "tempo": 120.0
            },
            {
                "start_time": 126.15454545454544,
                "end_time": 126.28636363636363,
                "pitch": 35,
                "velocity": 80,
                "duration": 0.13181818181818983,
                "tempo": 120.0
            },
            {
                "start_time": 126.28636363636363,
                "end_time": 126.39999999999999,
                "pitch": 35,
                "velocity": 80,
                "duration": 0.11363636363635976,
                "tempo": 120.0
            },
            {
                "start_time": 126.39999999999999,
                "end_time": 126.51590909090909,
                "pitch": 47,
                "velocity": 80,
                "duration": 0.11590909090909918,
                "tempo": 120.0
            },
            {
                "start_time": 126.51590909090909,
                "end_time": 126.63181818181818,
                "pitch": 35,
                "velocity": 80,
                "duration": 0.11590909090908497,
                "tempo": 120.0
            },
            {
                "start_time": 126.63181818181818,
                "end_time": 126.75,
                "pitch": 33,
                "velocity": 80,
                "duration": 0.11818181818182438,
                "tempo": 120.0
            },
            {
                "start_time": 126.75,
                "end_time": 126.88636363636363,
                "pitch": 33,
                "velocity": 80,
                "duration": 0.13636363636362603,
                "tempo": 120.0
            },
            {
                "start_time": 126.88636363636363,
                "end_time": 127.00681818181818,
                "pitch": 45,
                "velocity": 80,
                "duration": 0.12045454545454959,
                "tempo": 120.0
            },
            {
                "start_time": 127.00681818181818,
                "end_time": 127.125,
                "pitch": 33,
                "velocity": 80,
                "duration": 0.11818181818182438,
                "tempo": 120.0
            },
            {
                "start_time": 127.125,
                "end_time": 127.24090909090908,
                "pitch": 33,
                "velocity": 80,
                "duration": 0.11590909090908497,
                "tempo": 120.0
            },
            {
                "start_time": 127.24318181818181,
                "end_time": 127.36136363636363,
                "pitch": 45,
                "velocity": 80,
                "duration": 0.11818181818182438,
                "tempo": 120.0
            },
            {
                "start_time": 127.36136363636363,
                "end_time": 127.49318181818181,
                "pitch": 33,
                "velocity": 80,
                "duration": 0.13181818181817562,
                "tempo": 120.0
            },
            {
                "start_time": 127.49318181818181,
                "end_time": 127.60909090909091,
                "pitch": 33,
                "velocity": 80,
                "duration": 0.11590909090909918,
                "tempo": 120.0
            },
            {
                "start_time": 127.60909090909091,
                "end_time": 127.72727272727272,
                "pitch": 45,
                "velocity": 80,
                "duration": 0.11818181818181017,
                "tempo": 120.0
            },
            {
                "start_time": 127.72954545454544,
                "end_time": 127.84545454545454,
                "pitch": 33,
                "velocity": 80,
                "duration": 0.11590909090909918,
                "tempo": 120.0
            },
            {
                "start_time": 127.84545454545454,
                "end_time": 127.96363636363635,
                "pitch": 33,
                "velocity": 80,
                "duration": 0.11818181818181017,
                "tempo": 120.0
            },
            {
                "start_time": 127.96363636363635,
                "end_time": 128.09772727272727,
                "pitch": 45,
                "velocity": 80,
                "duration": 0.13409090909091503,
                "tempo": 120.0
            },
            {
                "start_time": 128.09772727272727,
                "end_time": 128.21818181818182,
                "pitch": 33,
                "velocity": 80,
                "duration": 0.12045454545454959,
                "tempo": 120.0
            },
            {
                "start_time": 128.21818181818182,
                "end_time": 128.33636363636364,
                "pitch": 33,
                "velocity": 80,
                "duration": 0.11818181818182438,
                "tempo": 120.0
            },
            {
                "start_time": 128.33636363636364,
                "end_time": 128.45681818181816,
                "pitch": 45,
                "velocity": 80,
                "duration": 0.12045454545452117,
                "tempo": 120.0
            },
            {
                "start_time": 128.45681818181816,
                "end_time": 128.5772727272727,
                "pitch": 33,
                "velocity": 80,
                "duration": 0.12045454545454959,
                "tempo": 120.0
            },
            {
                "start_time": 128.5772727272727,
                "end_time": 128.70681818181816,
                "pitch": 29,
                "velocity": 80,
                "duration": 0.1295454545454504,
                "tempo": 120.0
            },
            {
                "start_time": 128.70681818181816,
                "end_time": 128.82272727272726,
                "pitch": 29,
                "velocity": 80,
                "duration": 0.11590909090909918,
                "tempo": 120.0
            },
            {
                "start_time": 128.82272727272726,
                "end_time": 128.93863636363636,
                "pitch": 41,
                "velocity": 80,
                "duration": 0.11590909090909918,
                "tempo": 120.0
            },
            {
                "start_time": 128.93863636363636,
                "end_time": 129.0522727272727,
                "pitch": 29,
                "velocity": 80,
                "duration": 0.11363636363634555,
                "tempo": 120.0
            },
            {
                "start_time": 129.0522727272727,
                "end_time": 129.17045454545453,
                "pitch": 29,
                "velocity": 80,
                "duration": 0.11818181818182438,
                "tempo": 120.0
            },
            {
                "start_time": 129.17045454545453,
                "end_time": 129.3068181818182,
                "pitch": 41,
                "velocity": 80,
                "duration": 0.13636363636365445,
                "tempo": 120.0
            },
            {
                "start_time": 129.3068181818182,
                "end_time": 129.42272727272726,
                "pitch": 29,
                "velocity": 80,
                "duration": 0.11590909090907076,
                "tempo": 120.0
            },
            {
                "start_time": 129.42272727272726,
                "end_time": 129.54090909090908,
                "pitch": 29,
                "velocity": 80,
                "duration": 0.11818181818182438,
                "tempo": 120.0
            },
            {
                "start_time": 129.54090909090908,
                "end_time": 129.65681818181818,
                "pitch": 43,
                "velocity": 80,
                "duration": 0.11590909090909918,
                "tempo": 120.0
            },
            {
                "start_time": 129.65681818181818,
                "end_time": 129.775,
                "pitch": 31,
                "velocity": 80,
                "duration": 0.11818181818182438,
                "tempo": 120.0
            },
            {
                "start_time": 129.775,
                "end_time": 129.9090909090909,
                "pitch": 31,
                "velocity": 80,
                "duration": 0.13409090909090082,
                "tempo": 120.0
            },
            {
                "start_time": 129.9090909090909,
                "end_time": 130.025,
                "pitch": 43,
                "velocity": 80,
                "duration": 0.11590909090909918,
                "tempo": 120.0
            },
            {
                "start_time": 130.025,
                "end_time": 130.1431818181818,
                "pitch": 31,
                "velocity": 80,
                "duration": 0.11818181818179596,
                "tempo": 120.0
            },
            {
                "start_time": 130.1431818181818,
                "end_time": 130.26363636363635,
                "pitch": 31,
                "velocity": 80,
                "duration": 0.12045454545454959,
                "tempo": 120.0
            },
            {
                "start_time": 130.26590909090908,
                "end_time": 130.3840909090909,
                "pitch": 43,
                "velocity": 80,
                "duration": 0.11818181818182438,
                "tempo": 120.0
            },
            {
                "start_time": 130.3840909090909,
                "end_time": 130.52045454545453,
                "pitch": 31,
                "velocity": 80,
                "duration": 0.13636363636362603,
                "tempo": 120.0
            },
            {
                "start_time": 130.52045454545453,
                "end_time": 130.63636363636363,
                "pitch": 36,
                "velocity": 80,
                "duration": 0.11590909090909918,
                "tempo": 120.0
            },
            {
                "start_time": 130.63636363636363,
                "end_time": 130.75454545454545,
                "pitch": 36,
                "velocity": 80,
                "duration": 0.11818181818182438,
                "tempo": 120.0
            },
            {
                "start_time": 130.75454545454545,
                "end_time": 130.87045454545455,
                "pitch": 48,
                "velocity": 80,
                "duration": 0.11590909090909918,
                "tempo": 120.0
            },
            {
                "start_time": 130.87272727272727,
                "end_time": 130.98636363636362,
                "pitch": 36,
                "velocity": 80,
                "duration": 0.11363636363634555,
                "tempo": 120.0
            },
            {
                "start_time": 130.98636363636362,
                "end_time": 131.11818181818182,
                "pitch": 36,
                "velocity": 80,
                "duration": 0.13181818181820404,
                "tempo": 120.0
            },
            {
                "start_time": 131.11818181818182,
                "end_time": 131.2340909090909,
                "pitch": 48,
                "velocity": 80,
                "duration": 0.11590909090907076,
                "tempo": 120.0
            },
            {
                "start_time": 131.2340909090909,
                "end_time": 131.34772727272727,
                "pitch": 36,
                "velocity": 80,
                "duration": 0.11363636363637397,
                "tempo": 120.0
            },
            {
                "start_time": 131.34772727272727,
                "end_time": 131.46363636363637,
                "pitch": 36,
                "velocity": 80,
                "duration": 0.11590909090909918,
                "tempo": 120.0
            },
            {
                "start_time": 131.46363636363637,
                "end_time": 131.58181818181816,
                "pitch": 48,
                "velocity": 80,
                "duration": 0.11818181818179596,
                "tempo": 120.0
            },
            {
                "start_time": 131.58181818181816,
                "end_time": 131.71363636363637,
                "pitch": 36,
                "velocity": 80,
                "duration": 0.13181818181820404,
                "tempo": 120.0
            },
            {
                "start_time": 131.71363636363637,
                "end_time": 131.82954545454544,
                "pitch": 36,
                "velocity": 80,
                "duration": 0.11590909090907076,
                "tempo": 120.0
            },
            {
                "start_time": 131.83181818181816,
                "end_time": 131.94772727272726,
                "pitch": 48,
                "velocity": 80,
                "duration": 0.11590909090909918,
                "tempo": 120.0
            },
            {
                "start_time": 131.94772727272726,
                "end_time": 132.0681818181818,
                "pitch": 36,
                "velocity": 80,
                "duration": 0.12045454545454959,
                "tempo": 120.0
            },
            {
                "start_time": 132.0681818181818,
                "end_time": 132.18636363636364,
                "pitch": 36,
                "velocity": 80,
                "duration": 0.11818181818182438,
                "tempo": 120.0
            },
            {
                "start_time": 132.18636363636364,
                "end_time": 132.32272727272726,
                "pitch": 48,
                "velocity": 80,
                "duration": 0.13636363636362603,
                "tempo": 120.0
            },
            {
                "start_time": 132.32272727272726,
                "end_time": 132.44545454545454,
                "pitch": 36,
                "velocity": 80,
                "duration": 0.1227272727272748,
                "tempo": 120.0
            },
            {
                "start_time": 132.44545454545454,
                "end_time": 132.5590909090909,
                "pitch": 35,
                "velocity": 80,
                "duration": 0.11363636363637397,
                "tempo": 120.0
            },
            {
                "start_time": 132.5590909090909,
                "end_time": 132.6772727272727,
                "pitch": 35,
                "velocity": 80,
                "duration": 0.11818181818179596,
                "tempo": 120.0
            },
            {
                "start_time": 132.6772727272727,
                "end_time": 132.79545454545453,
                "pitch": 47,
                "velocity": 80,
                "duration": 0.11818181818182438,
                "tempo": 120.0
            },
            {
                "start_time": 132.79545454545453,
                "end_time": 132.9272727272727,
                "pitch": 35,
                "velocity": 80,
                "duration": 0.13181818181817562,
                "tempo": 120.0
            },
            {
                "start_time": 132.9272727272727,
                "end_time": 133.04545454545453,
                "pitch": 35,
                "velocity": 80,
                "duration": 0.11818181818182438,
                "tempo": 120.0
            },
            {
                "start_time": 133.04545454545453,
                "end_time": 133.1681818181818,
                "pitch": 47,
                "velocity": 80,
                "duration": 0.1227272727272748,
                "tempo": 120.0
            },
            {
                "start_time": 133.1681818181818,
                "end_time": 133.28636363636363,
                "pitch": 35,
                "velocity": 80,
                "duration": 0.11818181818182438,
                "tempo": 120.0
            },
            {
                "start_time": 133.28636363636363,
                "end_time": 133.40454545454546,
                "pitch": 35,
                "velocity": 80,
                "duration": 0.11818181818182438,
                "tempo": 120.0
            },
            {
                "start_time": 133.40454545454546,
                "end_time": 133.5340909090909,
                "pitch": 47,
                "velocity": 80,
                "duration": 0.1295454545454504,
                "tempo": 120.0
            },
            {
                "start_time": 133.5340909090909,
                "end_time": 133.64545454545453,
                "pitch": 35,
                "velocity": 80,
                "duration": 0.11136363636362034,
                "tempo": 120.0
            },
            {
                "start_time": 133.64772727272725,
                "end_time": 133.7590909090909,
                "pitch": 35,
                "velocity": 80,
                "duration": 0.11136363636364877,
                "tempo": 120.0
            },
            {
                "start_time": 133.7590909090909,
                "end_time": 133.87045454545455,
                "pitch": 47,
                "velocity": 80,
                "duration": 0.11136363636364877,
                "tempo": 120.0
            },
            {
                "start_time": 133.87045454545455,
                "end_time": 133.99090909090907,
                "pitch": 35,
                "velocity": 80,
                "duration": 0.12045454545452117,
                "tempo": 120.0
            },
            {
                "start_time": 133.99090909090907,
                "end_time": 134.12727272727273,
                "pitch": 35,
                "velocity": 80,
                "duration": 0.13636363636365445,
                "tempo": 120.0
            },
            {
                "start_time": 134.12727272727273,
                "end_time": 134.24772727272727,
                "pitch": 47,
                "velocity": 80,
                "duration": 0.12045454545454959,
                "tempo": 120.0
            },
            {
                "start_time": 134.24772727272727,
                "end_time": 134.36818181818182,
                "pitch": 35,
                "velocity": 80,
                "duration": 0.12045454545454959,
                "tempo": 120.0
            },
            {
                "start_time": 134.36818181818182,
                "end_time": 134.4840909090909,
                "pitch": 33,
                "velocity": 80,
                "duration": 0.11590909090907076,
                "tempo": 120.0
            },
            {
                "start_time": 134.4840909090909,
                "end_time": 134.60227272727272,
                "pitch": 33,
                "velocity": 80,
                "duration": 0.11818181818182438,
                "tempo": 120.0
            },
            {
                "start_time": 134.60227272727272,
                "end_time": 134.73636363636362,
                "pitch": 45,
                "velocity": 80,
                "duration": 0.13409090909090082,
                "tempo": 120.0
            },
            {
                "start_time": 134.73863636363635,
                "end_time": 134.85454545454544,
                "pitch": 33,
                "velocity": 80,
                "duration": 0.11590909090909918,
                "tempo": 120.0
            },
            {
                "start_time": 134.85454545454544,
                "end_time": 134.97272727272727,
                "pitch": 33,
                "velocity": 80,
                "duration": 0.11818181818182438,
                "tempo": 120.0
            },
            {
                "start_time": 134.97272727272727,
                "end_time": 135.09545454545454,
                "pitch": 45,
                "velocity": 80,
                "duration": 0.1227272727272748,
                "tempo": 120.0
            },
            {
                "start_time": 135.09545454545454,
                "end_time": 135.21363636363637,
                "pitch": 33,
                "velocity": 80,
                "duration": 0.11818181818182438,
                "tempo": 120.0
            },
            {
                "start_time": 135.21363636363637,
                "end_time": 135.35,
                "pitch": 33,
                "velocity": 80,
                "duration": 0.13636363636362603,
                "tempo": 120.0
            },
            {
                "start_time": 135.35,
                "end_time": 135.46818181818182,
                "pitch": 45,
                "velocity": 80,
                "duration": 0.11818181818182438,
                "tempo": 120.0
            },
            {
                "start_time": 135.46818181818182,
                "end_time": 135.5840909090909,
                "pitch": 33,
                "velocity": 80,
                "duration": 0.11590909090907076,
                "tempo": 120.0
            },
            {
                "start_time": 135.5840909090909,
                "end_time": 135.7,
                "pitch": 33,
                "velocity": 80,
                "duration": 0.11590909090909918,
                "tempo": 120.0
            },
            {
                "start_time": 135.7,
                "end_time": 135.8159090909091,
                "pitch": 45,
                "velocity": 80,
                "duration": 0.11590909090909918,
                "tempo": 120.0
            },
            {
                "start_time": 135.8181818181818,
                "end_time": 135.95,
                "pitch": 33,
                "velocity": 80,
                "duration": 0.13181818181817562,
                "tempo": 120.0
            },
            {
                "start_time": 135.95,
                "end_time": 136.06363636363636,
                "pitch": 33,
                "velocity": 80,
                "duration": 0.11363636363637397,
                "tempo": 120.0
            },
            {
                "start_time": 136.06363636363636,
                "end_time": 136.17954545454546,
                "pitch": 45,
                "velocity": 80,
                "duration": 0.11590909090909918,
                "tempo": 120.0
            },
            {
                "start_time": 136.17954545454546,
                "end_time": 136.29545454545453,
                "pitch": 33,
                "velocity": 80,
                "duration": 0.11590909090907076,
                "tempo": 120.0
            },
            {
                "start_time": 136.29545454545453,
                "end_time": 136.4090909090909,
                "pitch": 29,
                "velocity": 80,
                "duration": 0.11363636363637397,
                "tempo": 120.0
            },
            {
                "start_time": 136.4090909090909,
                "end_time": 136.5431818181818,
                "pitch": 29,
                "velocity": 80,
                "duration": 0.13409090909090082,
                "tempo": 120.0
            },
            {
                "start_time": 136.5431818181818,
                "end_time": 136.66136363636363,
                "pitch": 41,
                "velocity": 80,
                "duration": 0.11818181818182438,
                "tempo": 120.0
            },
            {
                "start_time": 136.66136363636363,
                "end_time": 136.77727272727273,
                "pitch": 29,
                "velocity": 80,
                "duration": 0.11590909090909918,
                "tempo": 120.0
            },
            {
                "start_time": 136.77727272727273,
                "end_time": 136.89545454545453,
                "pitch": 29,
                "velocity": 80,
                "duration": 0.11818181818179596,
                "tempo": 120.0
            },
            {
                "start_time": 136.89545454545453,
                "end_time": 137.01363636363635,
                "pitch": 41,
                "velocity": 80,
                "duration": 0.11818181818182438,
                "tempo": 120.0
            },
            {
                "start_time": 137.01363636363635,
                "end_time": 137.14772727272725,
                "pitch": 29,
                "velocity": 80,
                "duration": 0.13409090909090082,
                "tempo": 120.0
            },
            {
                "start_time": 137.14772727272725,
                "end_time": 137.26590909090908,
                "pitch": 29,
                "velocity": 80,
                "duration": 0.11818181818182438,
                "tempo": 120.0
            },
            {
                "start_time": 137.26590909090908,
                "end_time": 137.3840909090909,
                "pitch": 41,
                "velocity": 80,
                "duration": 0.11818181818182438,
                "tempo": 120.0
            },
            {
                "start_time": 137.3840909090909,
                "end_time": 137.50454545454545,
                "pitch": 29,
                "velocity": 80,
                "duration": 0.12045454545454959,
                "tempo": 120.0
            },
            {
                "start_time": 137.50454545454545,
                "end_time": 137.625,
                "pitch": 29,
                "velocity": 80,
                "duration": 0.12045454545454959,
                "tempo": 120.0
            },
            {
                "start_time": 137.625,
                "end_time": 137.76136363636363,
                "pitch": 41,
                "velocity": 80,
                "duration": 0.13636363636362603,
                "tempo": 120.0
            },
            {
                "start_time": 137.76136363636363,
                "end_time": 137.87954545454545,
                "pitch": 29,
                "velocity": 80,
                "duration": 0.11818181818182438,
                "tempo": 120.0
            },
            {
                "start_time": 137.87954545454545,
                "end_time": 137.99772727272727,
                "pitch": 29,
                "velocity": 80,
                "duration": 0.11818181818182438,
                "tempo": 120.0
            },
            {
                "start_time": 137.99772727272727,
                "end_time": 138.11363636363635,
                "pitch": 41,
                "velocity": 80,
                "duration": 0.11590909090907076,
                "tempo": 120.0
            },
            {
                "start_time": 138.11590909090907,
                "end_time": 138.2340909090909,
                "pitch": 29,
                "velocity": 80,
                "duration": 0.11818181818182438,
                "tempo": 120.0
            },
            {
                "start_time": 138.2340909090909,
                "end_time": 138.36363636363635,
                "pitch": 26,
                "velocity": 80,
                "duration": 0.1295454545454504,
                "tempo": 120.0
            },
            {
                "start_time": 138.36363636363635,
                "end_time": 138.47954545454544,
                "pitch": 26,
                "velocity": 80,
                "duration": 0.11590909090909918,
                "tempo": 120.0
            },
            {
                "start_time": 138.47954545454544,
                "end_time": 138.59545454545454,
                "pitch": 38,
                "velocity": 80,
                "duration": 0.11590909090909918,
                "tempo": 120.0
            },
            {
                "start_time": 138.59545454545454,
                "end_time": 138.7090909090909,
                "pitch": 26,
                "velocity": 80,
                "duration": 0.11363636363634555,
                "tempo": 120.0
            },
            {
                "start_time": 138.7090909090909,
                "end_time": 138.825,
                "pitch": 26,
                "velocity": 80,
                "duration": 0.11590909090909918,
                "tempo": 120.0
            },
            {
                "start_time": 138.825,
                "end_time": 138.9590909090909,
                "pitch": 38,
                "velocity": 80,
                "duration": 0.13409090909090082,
                "tempo": 120.0
            },
            {
                "start_time": 138.9590909090909,
                "end_time": 139.075,
                "pitch": 26,
                "velocity": 80,
                "duration": 0.11590909090909918,
                "tempo": 120.0
            },
            {
                "start_time": 139.075,
                "end_time": 139.1931818181818,
                "pitch": 26,
                "velocity": 80,
                "duration": 0.11818181818182438,
                "tempo": 120.0
            },
            {
                "start_time": 139.1931818181818,
                "end_time": 139.31136363636364,
                "pitch": 40,
                "velocity": 80,
                "duration": 0.11818181818182438,
                "tempo": 120.0
            },
            {
                "start_time": 139.31136363636364,
                "end_time": 139.4318181818182,
                "pitch": 28,
                "velocity": 80,
                "duration": 0.12045454545454959,
                "tempo": 120.0
            },
            {
                "start_time": 139.4318181818182,
                "end_time": 139.57045454545454,
                "pitch": 28,
                "velocity": 80,
                "duration": 0.13863636363635123,
                "tempo": 120.0
            },
            {
                "start_time": 139.57045454545454,
                "end_time": 139.68863636363636,
                "pitch": 40,
                "velocity": 80,
                "duration": 0.11818181818182438,
                "tempo": 120.0
            },
            {
                "start_time": 139.68863636363636,
                "end_time": 139.80454545454546,
                "pitch": 28,
                "velocity": 80,
                "duration": 0.11590909090909918,
                "tempo": 120.0
            },
            {
                "start_time": 139.80454545454546,
                "end_time": 139.92272727272726,
                "pitch": 28,
                "velocity": 80,
                "duration": 0.11818181818179596,
                "tempo": 120.0
            },
            {
                "start_time": 139.92272727272726,
                "end_time": 140.03863636363636,
                "pitch": 40,
                "velocity": 80,
                "duration": 0.11590909090909918,
                "tempo": 120.0
            },
            {
                "start_time": 140.03863636363636,
                "end_time": 140.17272727272726,
                "pitch": 28,
                "velocity": 80,
                "duration": 0.13409090909090082,
                "tempo": 120.0
            },
            {
                "start_time": 140.17272727272726,
                "end_time": 140.28863636363636,
                "pitch": 41,
                "velocity": 80,
                "duration": 0.11590909090909918,
                "tempo": 120.0
            },
            {
                "start_time": 140.28863636363636,
                "end_time": 140.40454545454546,
                "pitch": 29,
                "velocity": 80,
                "duration": 0.11590909090909918,
                "tempo": 120.0
            },
            {
                "start_time": 140.40681818181818,
                "end_time": 140.52272727272725,
                "pitch": 29,
                "velocity": 80,
                "duration": 0.11590909090907076,
                "tempo": 120.0
            },
            {
                "start_time": 140.52272727272725,
                "end_time": 140.63863636363635,
                "pitch": 41,
                "velocity": 80,
                "duration": 0.11590909090909918,
                "tempo": 120.0
            },
            {
                "start_time": 140.63863636363635,
                "end_time": 140.77045454545453,
                "pitch": 29,
                "velocity": 80,
                "duration": 0.13181818181817562,
                "tempo": 120.0
            },
            {
                "start_time": 140.77045454545453,
                "end_time": 140.88636363636363,
                "pitch": 29,
                "velocity": 80,
                "duration": 0.11590909090909918,
                "tempo": 120.0
            },
            {
                "start_time": 140.88636363636363,
                "end_time": 141.0,
                "pitch": 41,
                "velocity": 80,
                "duration": 0.11363636363637397,
                "tempo": 120.0
            },
            {
                "start_time": 141.0,
                "end_time": 141.11590909090907,
                "pitch": 29,
                "velocity": 80,
                "duration": 0.11590909090907076,
                "tempo": 120.0
            },
            {
                "start_time": 141.11590909090907,
                "end_time": 141.2340909090909,
                "pitch": 42,
                "velocity": 80,
                "duration": 0.11818181818182438,
                "tempo": 120.0
            },
            {
                "start_time": 141.2340909090909,
                "end_time": 141.37272727272727,
                "pitch": 30,
                "velocity": 80,
                "duration": 0.13863636363637966,
                "tempo": 120.0
            },
            {
                "start_time": 141.37272727272727,
                "end_time": 141.49318181818182,
                "pitch": 30,
                "velocity": 80,
                "duration": 0.12045454545454959,
                "tempo": 120.0
            },
            {
                "start_time": 141.49318181818182,
                "end_time": 141.61136363636362,
                "pitch": 42,
                "velocity": 80,
                "duration": 0.11818181818179596,
                "tempo": 120.0
            },
            {
                "start_time": 141.61136363636362,
                "end_time": 141.72727272727272,
                "pitch": 30,
                "velocity": 80,
                "duration": 0.11590909090909918,
                "tempo": 120.0
            },
            {
                "start_time": 141.72954545454544,
                "end_time": 141.84772727272727,
                "pitch": 30,
                "velocity": 80,
                "duration": 0.11818181818182438,
                "tempo": 120.0
            },
            {
                "start_time": 141.84772727272727,
                "end_time": 141.98181818181817,
                "pitch": 42,
                "velocity": 80,
                "duration": 0.13409090909090082,
                "tempo": 120.0
            },
            {
                "start_time": 141.98181818181817,
                "end_time": 142.1,
                "pitch": 30,
                "velocity": 80,
                "duration": 0.11818181818182438,
                "tempo": 120.0
            },
            {
                "start_time": 142.1,
                "end_time": 142.2159090909091,
                "pitch": 43,
                "velocity": 80,
                "duration": 0.11590909090909918,
                "tempo": 120.0
            },
            {
                "start_time": 142.2159090909091,
                "end_time": 142.33181818181816,
                "pitch": 31,
                "velocity": 80,
                "duration": 0.11590909090907076,
                "tempo": 120.0
            },
            {
                "start_time": 142.33181818181816,
                "end_time": 142.45,
                "pitch": 31,
                "velocity": 80,
                "duration": 0.11818181818182438,
                "tempo": 120.0
            },
            {
                "start_time": 142.45,
                "end_time": 142.5840909090909,
                "pitch": 43,
                "velocity": 80,
                "duration": 0.13409090909090082,
                "tempo": 120.0
            },
            {
                "start_time": 142.5840909090909,
                "end_time": 142.7022727272727,
                "pitch": 31,
                "velocity": 80,
                "duration": 0.11818181818182438,
                "tempo": 120.0
            },
            {
                "start_time": 142.7022727272727,
                "end_time": 142.82272727272726,
                "pitch": 31,
                "velocity": 80,
                "duration": 0.12045454545454959,
                "tempo": 120.0
            },
            {
                "start_time": 142.82272727272726,
                "end_time": 142.9409090909091,
                "pitch": 43,
                "velocity": 80,
                "duration": 0.11818181818182438,
                "tempo": 120.0
            },
            {
                "start_time": 142.9409090909091,
                "end_time": 143.06136363636364,
                "pitch": 31,
                "velocity": 80,
                "duration": 0.12045454545454959,
                "tempo": 120.0
            },
            {
                "start_time": 143.06136363636364,
                "end_time": 143.18863636363636,
                "pitch": 31,
                "velocity": 80,
                "duration": 0.1272727272727252,
                "tempo": 120.0
            },
            {
                "start_time": 143.18863636363636,
                "end_time": 143.3022727272727,
                "pitch": 43,
                "velocity": 80,
                "duration": 0.11363636363634555,
                "tempo": 120.0
            },
            {
                "start_time": 143.3022727272727,
                "end_time": 143.41590909090908,
                "pitch": 31,
                "velocity": 80,
                "duration": 0.11363636363637397,
                "tempo": 120.0
            },
            {
                "start_time": 143.41590909090908,
                "end_time": 143.52727272727273,
                "pitch": 31,
                "velocity": 80,
                "duration": 0.11136363636364877,
                "tempo": 120.0
            },
            {
                "start_time": 143.52727272727273,
                "end_time": 143.64545454545453,
                "pitch": 43,
                "velocity": 80,
                "duration": 0.11818181818179596,
                "tempo": 120.0
            },
            {
                "start_time": 143.64545454545453,
                "end_time": 143.7840909090909,
                "pitch": 31,
                "velocity": 80,
                "duration": 0.13863636363637966,
                "tempo": 120.0
            },
            {
                "start_time": 143.7840909090909,
                "end_time": 143.90227272727273,
                "pitch": 43,
                "velocity": 80,
                "duration": 0.11818181818182438,
                "tempo": 120.0
            },
            {
                "start_time": 143.90227272727273,
                "end_time": 144.02272727272725,
                "pitch": 31,
                "velocity": 80,
                "duration": 0.12045454545452117,
                "tempo": 120.0
            },
            {
                "start_time": 144.02272727272725,
                "end_time": 144.13863636363635,
                "pitch": 43,
                "velocity": 80,
                "duration": 0.11590909090909918,
                "tempo": 120.0
            },
            {
                "start_time": 144.13863636363635,
                "end_time": 144.25454545454545,
                "pitch": 31,
                "velocity": 80,
                "duration": 0.11590909090909918,
                "tempo": 120.0
            },
            {
                "start_time": 144.25681818181818,
                "end_time": 144.38863636363635,
                "pitch": 31,
                "velocity": 80,
                "duration": 0.13181818181817562,
                "tempo": 120.0
            },
            {
                "start_time": 144.38863636363635,
                "end_time": 144.50681818181818,
                "pitch": 43,
                "velocity": 80,
                "duration": 0.11818181818182438,
                "tempo": 120.0
            },
            {
                "start_time": 144.50681818181818,
                "end_time": 144.625,
                "pitch": 31,
                "velocity": 80,
                "duration": 0.11818181818182438,
                "tempo": 120.0
            },
            {
                "start_time": 144.62727272727273,
                "end_time": 144.74545454545455,
                "pitch": 31,
                "velocity": 80,
                "duration": 0.11818181818182438,
                "tempo": 120.0
            },
            {
                "start_time": 144.74545454545455,
                "end_time": 144.86590909090907,
                "pitch": 43,
                "velocity": 80,
                "duration": 0.12045454545452117,
                "tempo": 120.0
            },
            {
                "start_time": 144.86590909090907,
                "end_time": 145.00227272727273,
                "pitch": 31,
                "velocity": 80,
                "duration": 0.13636363636365445,
                "tempo": 120.0
            },
            {
                "start_time": 145.00227272727273,
                "end_time": 145.11818181818182,
                "pitch": 31,
                "velocity": 80,
                "duration": 0.11590909090909918,
                "tempo": 120.0
            },
            {
                "start_time": 145.11818181818182,
                "end_time": 145.23636363636362,
                "pitch": 43,
                "velocity": 80,
                "duration": 0.11818181818179596,
                "tempo": 120.0
            },
            {
                "start_time": 145.23636363636362,
                "end_time": 145.35227272727272,
                "pitch": 31,
                "velocity": 80,
                "duration": 0.11590909090909918,
                "tempo": 120.0
            },
            {
                "start_time": 145.35227272727272,
                "end_time": 145.46818181818182,
                "pitch": 31,
                "velocity": 80,
                "duration": 0.11590909090909918,
                "tempo": 120.0
            },
            {
                "start_time": 145.46818181818182,
                "end_time": 145.6,
                "pitch": 43,
                "velocity": 80,
                "duration": 0.13181818181817562,
                "tempo": 120.0
            },
            {
                "start_time": 145.6,
                "end_time": 145.7159090909091,
                "pitch": 31,
                "velocity": 80,
                "duration": 0.11590909090909918,
                "tempo": 120.0
            },
            {
                "start_time": 145.7159090909091,
                "end_time": 145.82954545454544,
                "pitch": 43,
                "velocity": 80,
                "duration": 0.11363636363634555,
                "tempo": 120.0
            },
            {
                "start_time": 145.83181818181816,
                "end_time": 145.94772727272726,
                "pitch": 31,
                "velocity": 80,
                "duration": 0.11590909090909918,
                "tempo": 120.0
            },
            {
                "start_time": 145.94772727272726,
                "end_time": 146.06363636363636,
                "pitch": 36,
                "velocity": 80,
                "duration": 0.11590909090909918,
                "tempo": 120.0
            },
            {
                "start_time": 146.06363636363636,
                "end_time": 146.19772727272726,
                "pitch": 36,
                "velocity": 80,
                "duration": 0.13409090909090082,
                "tempo": 120.0
            },
            {
                "start_time": 146.19772727272726,
                "end_time": 146.3159090909091,
                "pitch": 48,
                "velocity": 80,
                "duration": 0.11818181818182438,
                "tempo": 120.0
            },
            {
                "start_time": 146.3159090909091,
                "end_time": 146.4318181818182,
                "pitch": 36,
                "velocity": 80,
                "duration": 0.11590909090909918,
                "tempo": 120.0
            },
            {
                "start_time": 146.4340909090909,
                "end_time": 146.5522727272727,
                "pitch": 36,
                "velocity": 80,
                "duration": 0.11818181818179596,
                "tempo": 120.0
            },
            {
                "start_time": 146.5522727272727,
                "end_time": 146.67272727272726,
                "pitch": 48,
                "velocity": 80,
                "duration": 0.12045454545454959,
                "tempo": 120.0
            },
            {
                "start_time": 146.67272727272726,
                "end_time": 146.8090909090909,
                "pitch": 36,
                "velocity": 80,
                "duration": 0.13636363636365445,
                "tempo": 120.0
            },
            {
                "start_time": 146.8090909090909,
                "end_time": 146.9272727272727,
                "pitch": 36,
                "velocity": 80,
                "duration": 0.11818181818179596,
                "tempo": 120.0
            },
            {
                "start_time": 146.92954545454543,
                "end_time": 147.04772727272726,
                "pitch": 48,
                "velocity": 80,
                "duration": 0.11818181818182438,
                "tempo": 120.0
            },
            {
                "start_time": 147.04772727272726,
                "end_time": 147.16363636363636,
                "pitch": 36,
                "velocity": 80,
                "duration": 0.11590909090909918,
                "tempo": 120.0
            },
            {
                "start_time": 147.16363636363636,
                "end_time": 147.28181818181818,
                "pitch": 36,
                "velocity": 80,
                "duration": 0.11818181818182438,
                "tempo": 120.0
            },
            {
                "start_time": 147.28181818181818,
                "end_time": 147.41590909090908,
                "pitch": 48,
                "velocity": 80,
                "duration": 0.13409090909090082,
                "tempo": 120.0
            },
            {
                "start_time": 147.41590909090908,
                "end_time": 147.5340909090909,
                "pitch": 36,
                "velocity": 80,
                "duration": 0.11818181818182438,
                "tempo": 120.0
            },
            {
                "start_time": 147.5340909090909,
                "end_time": 147.65,
                "pitch": 36,
                "velocity": 80,
                "duration": 0.11590909090909918,
                "tempo": 120.0
            },
            {
                "start_time": 147.65,
                "end_time": 147.76590909090908,
                "pitch": 48,
                "velocity": 80,
                "duration": 0.11590909090907076,
                "tempo": 120.0
            },
            {
                "start_time": 147.7681818181818,
                "end_time": 147.8840909090909,
                "pitch": 36,
                "velocity": 80,
                "duration": 0.11590909090909918,
                "tempo": 120.0
            },
            {
                "start_time": 147.88636363636363,
                "end_time": 148.01363636363635,
                "pitch": 35,
                "velocity": 80,
                "duration": 0.1272727272727252,
                "tempo": 120.0
            },
            {
                "start_time": 148.01590909090908,
                "end_time": 148.12954545454545,
                "pitch": 35,
                "velocity": 80,
                "duration": 0.11363636363637397,
                "tempo": 120.0
            },
            {
                "start_time": 148.12954545454545,
                "end_time": 148.24545454545455,
                "pitch": 47,
                "velocity": 80,
                "duration": 0.11590909090909918,
                "tempo": 120.0
            },
            {
                "start_time": 148.24545454545455,
                "end_time": 148.3590909090909,
                "pitch": 35,
                "velocity": 80,
                "duration": 0.11363636363634555,
                "tempo": 120.0
            },
            {
                "start_time": 148.3590909090909,
                "end_time": 148.47954545454544,
                "pitch": 35,
                "velocity": 80,
                "duration": 0.12045454545454959,
                "tempo": 120.0
            },
            {
                "start_time": 148.47954545454544,
                "end_time": 148.61818181818182,
                "pitch": 47,
                "velocity": 80,
                "duration": 0.13863636363637966,
                "tempo": 120.0
            },
            {
                "start_time": 148.61818181818182,
                "end_time": 148.73636363636362,
                "pitch": 35,
                "velocity": 80,
                "duration": 0.11818181818179596,
                "tempo": 120.0
            },
            {
                "start_time": 148.73636363636362,
                "end_time": 148.85454545454544,
                "pitch": 35,
                "velocity": 80,
                "duration": 0.11818181818182438,
                "tempo": 120.0
            },
            {
                "start_time": 148.85454545454544,
                "end_time": 148.97272727272727,
                "pitch": 47,
                "velocity": 80,
                "duration": 0.11818181818182438,
                "tempo": 120.0
            },
            {
                "start_time": 148.97272727272727,
                "end_time": 149.08863636363637,
                "pitch": 35,
                "velocity": 80,
                "duration": 0.11590909090909918,
                "tempo": 120.0
            },
            {
                "start_time": 149.0909090909091,
                "end_time": 149.22272727272727,
                "pitch": 35,
                "velocity": 80,
                "duration": 0.13181818181817562,
                "tempo": 120.0
            },
            {
                "start_time": 149.22272727272727,
                "end_time": 149.33863636363637,
                "pitch": 47,
                "velocity": 80,
                "duration": 0.11590909090909918,
                "tempo": 120.0
            },
            {
                "start_time": 149.33863636363637,
                "end_time": 149.4590909090909,
                "pitch": 35,
                "velocity": 80,
                "duration": 0.12045454545452117,
                "tempo": 120.0
            },
            {
                "start_time": 149.4590909090909,
                "end_time": 149.575,
                "pitch": 35,
                "velocity": 80,
                "duration": 0.11590909090909918,
                "tempo": 120.0
            },
            {
                "start_time": 149.575,
                "end_time": 149.6931818181818,
                "pitch": 47,
                "velocity": 80,
                "duration": 0.11818181818182438,
                "tempo": 120.0
            },
            {
                "start_time": 149.6931818181818,
                "end_time": 149.82954545454544,
                "pitch": 35,
                "velocity": 80,
                "duration": 0.13636363636362603,
                "tempo": 120.0
            },
            {
                "start_time": 149.82954545454544,
                "end_time": 149.94772727272726,
                "pitch": 33,
                "velocity": 80,
                "duration": 0.11818181818182438,
                "tempo": 120.0
            },
            {
                "start_time": 149.94772727272726,
                "end_time": 150.0659090909091,
                "pitch": 33,
                "velocity": 80,
                "duration": 0.11818181818182438,
                "tempo": 120.0
            },
            {
                "start_time": 150.0659090909091,
                "end_time": 150.18636363636364,
                "pitch": 45,
                "velocity": 80,
                "duration": 0.12045454545454959,
                "tempo": 120.0
            },
            {
                "start_time": 150.18863636363636,
                "end_time": 150.30454545454543,
                "pitch": 33,
                "velocity": 80,
                "duration": 0.11590909090907076,
                "tempo": 120.0
            },
            {
                "start_time": 150.3068181818182,
                "end_time": 150.4340909090909,
                "pitch": 33,
                "velocity": 80,
                "duration": 0.1272727272727252,
                "tempo": 120.0
            },
            {
                "start_time": 150.4340909090909,
                "end_time": 150.54772727272726,
                "pitch": 45,
                "velocity": 80,
                "duration": 0.11363636363634555,
                "tempo": 120.0
            },
            {
                "start_time": 150.54772727272726,
                "end_time": 150.6590909090909,
                "pitch": 33,
                "velocity": 80,
                "duration": 0.11136363636364877,
                "tempo": 120.0
            },
            {
                "start_time": 150.6590909090909,
                "end_time": 150.77045454545453,
                "pitch": 33,
                "velocity": 80,
                "duration": 0.11136363636362034,
                "tempo": 120.0
            },
            {
                "start_time": 150.77045454545453,
                "end_time": 150.89090909090908,
                "pitch": 45,
                "velocity": 80,
                "duration": 0.12045454545454959,
                "tempo": 120.0
            },
            {
                "start_time": 150.89090909090908,
                "end_time": 151.02727272727273,
                "pitch": 33,
                "velocity": 80,
                "duration": 0.13636363636365445,
                "tempo": 120.0
            },
            {
                "start_time": 151.02727272727273,
                "end_time": 151.14772727272725,
                "pitch": 33,
                "velocity": 80,
                "duration": 0.12045454545452117,
                "tempo": 120.0
            },
            {
                "start_time": 151.14772727272725,
                "end_time": 151.26590909090908,
                "pitch": 45,
                "velocity": 80,
                "duration": 0.11818181818182438,
                "tempo": 120.0
            },
            {
                "start_time": 151.26590909090908,
                "end_time": 151.3840909090909,
                "pitch": 33,
                "velocity": 80,
                "duration": 0.11818181818182438,
                "tempo": 120.0
            },
            {
                "start_time": 151.3840909090909,
                "end_time": 151.5,
                "pitch": 33,
                "velocity": 80,
                "duration": 0.11590909090909918,
                "tempo": 120.0
            },
            {
                "start_time": 151.5,
                "end_time": 151.6340909090909,
                "pitch": 45,
                "velocity": 80,
                "duration": 0.13409090909090082,
                "tempo": 120.0
            },
            {
                "start_time": 151.6340909090909,
                "end_time": 151.75227272727273,
                "pitch": 33,
                "velocity": 80,
                "duration": 0.11818181818182438,
                "tempo": 120.0
            },
            {
                "start_time": 151.75227272727273,
                "end_time": 151.87045454545455,
                "pitch": 29,
                "velocity": 80,
                "duration": 0.11818181818182438,
                "tempo": 120.0
            },
            {
                "start_time": 151.87045454545455,
                "end_time": 151.99090909090907,
                "pitch": 29,
                "velocity": 80,
                "duration": 0.12045454545452117,
                "tempo": 120.0
            },
            {
                "start_time": 151.99090909090907,
                "end_time": 152.11136363636362,
                "pitch": 41,
                "velocity": 80,
                "duration": 0.12045454545454959,
                "tempo": 120.0
            },
            {
                "start_time": 152.11136363636362,
                "end_time": 152.24545454545455,
                "pitch": 29,
                "velocity": 80,
                "duration": 0.13409090909092924,
                "tempo": 120.0
            },
            {
                "start_time": 152.24545454545455,
                "end_time": 152.36363636363635,
                "pitch": 29,
                "velocity": 80,
                "duration": 0.11818181818179596,
                "tempo": 120.0
            },
            {
                "start_time": 152.36363636363635,
                "end_time": 152.48181818181817,
                "pitch": 41,
                "velocity": 80,
                "duration": 0.11818181818182438,
                "tempo": 120.0
            },
            {
                "start_time": 152.48181818181817,
                "end_time": 152.59772727272727,
                "pitch": 29,
                "velocity": 80,
                "duration": 0.11590909090909918,
                "tempo": 120.0
            },
            {
                "start_time": 152.59772727272727,
                "end_time": 152.71363636363637,
                "pitch": 29,
                "velocity": 80,
                "duration": 0.11590909090909918,
                "tempo": 120.0
            },
            {
                "start_time": 152.71363636363637,
                "end_time": 152.84545454545454,
                "pitch": 43,
                "velocity": 80,
                "duration": 0.13181818181817562,
                "tempo": 120.0
            },
            {
                "start_time": 152.84545454545454,
                "end_time": 152.96136363636364,
                "pitch": 31,
                "velocity": 80,
                "duration": 0.11590909090909918,
                "tempo": 120.0
            },
            {
                "start_time": 152.96136363636364,
                "end_time": 153.075,
                "pitch": 31,
                "velocity": 80,
                "duration": 0.11363636363634555,
                "tempo": 120.0
            },
            {
                "start_time": 153.0772727272727,
                "end_time": 153.18863636363636,
                "pitch": 43,
                "velocity": 80,
                "duration": 0.11136363636364877,
                "tempo": 120.0
            },
            {
                "start_time": 153.1909090909091,
                "end_time": 153.3068181818182,
                "pitch": 31,
                "velocity": 80,
                "duration": 0.11590909090909918,
                "tempo": 120.0
            },
            {
                "start_time": 153.3068181818182,
                "end_time": 153.4431818181818,
                "pitch": 31,
                "velocity": 80,
                "duration": 0.13636363636362603,
                "tempo": 120.0
            },
            {
                "start_time": 153.4431818181818,
                "end_time": 153.5590909090909,
                "pitch": 43,
                "velocity": 80,
                "duration": 0.11590909090909918,
                "tempo": 120.0
            },
            {
                "start_time": 153.56136363636364,
                "end_time": 153.67954545454543,
                "pitch": 31,
                "velocity": 80,
                "duration": 0.11818181818179596,
                "tempo": 120.0
            },
            {
                "start_time": 153.67954545454543,
                "end_time": 153.79772727272726,
                "pitch": 36,
                "velocity": 80,
                "duration": 0.11818181818182438,
                "tempo": 120.0
            },
            {
                "start_time": 153.79772727272726,
                "end_time": 153.9181818181818,
                "pitch": 36,
                "velocity": 80,
                "duration": 0.12045454545454959,
                "tempo": 120.0
            },
            {
                "start_time": 153.9181818181818,
                "end_time": 154.05454545454543,
                "pitch": 48,
                "velocity": 80,
                "duration": 0.13636363636362603,
                "tempo": 120.0
            },
            {
                "start_time": 154.05454545454543,
                "end_time": 154.17272727272726,
                "pitch": 36,
                "velocity": 80,
                "duration": 0.11818181818182438,
                "tempo": 120.0
            },
            {
                "start_time": 154.17272727272726,
                "end_time": 154.29090909090908,
                "pitch": 36,
                "velocity": 80,
                "duration": 0.11818181818182438,
                "tempo": 120.0
            },
            {
                "start_time": 154.29090909090908,
                "end_time": 154.4090909090909,
                "pitch": 48,
                "velocity": 80,
                "duration": 0.11818181818182438,
                "tempo": 120.0
            },
            {
                "start_time": 154.41136363636363,
                "end_time": 154.52727272727273,
                "pitch": 36,
                "velocity": 80,
                "duration": 0.11590909090909918,
                "tempo": 120.0
            },
            {
                "start_time": 154.52727272727273,
                "end_time": 154.66136363636363,
                "pitch": 36,
                "velocity": 80,
                "duration": 0.13409090909090082,
                "tempo": 120.0
            },
            {
                "start_time": 154.66136363636363,
                "end_time": 154.77954545454546,
                "pitch": 48,
                "velocity": 80,
                "duration": 0.11818181818182438,
                "tempo": 120.0
            },
            {
                "start_time": 154.77954545454546,
                "end_time": 154.89545454545453,
                "pitch": 36,
                "velocity": 80,
                "duration": 0.11590909090907076,
                "tempo": 120.0
            },
            {
                "start_time": 154.89545454545453,
                "end_time": 155.01136363636363,
                "pitch": 36,
                "velocity": 80,
                "duration": 0.11590909090909918,
                "tempo": 120.0
            },
            {
                "start_time": 155.01136363636363,
                "end_time": 155.12727272727273,
                "pitch": 48,
                "velocity": 80,
                "duration": 0.11590909090909918,
                "tempo": 120.0
            },
            {
                "start_time": 155.12954545454545,
                "end_time": 155.26136363636363,
                "pitch": 36,
                "velocity": 80,
                "duration": 0.13181818181817562,
                "tempo": 120.0
            },
            {
                "start_time": 155.26136363636363,
                "end_time": 155.375,
                "pitch": 36,
                "velocity": 80,
                "duration": 0.11363636363637397,
                "tempo": 120.0
            },
            {
                "start_time": 155.375,
                "end_time": 155.49090909090907,
                "pitch": 48,
                "velocity": 80,
                "duration": 0.11590909090907076,
                "tempo": 120.0
            },
            {
                "start_time": 155.49090909090907,
                "end_time": 155.60681818181817,
                "pitch": 36,
                "velocity": 80,
                "duration": 0.11590909090909918,
                "tempo": 120.0
            },
            {
                "start_time": 155.60681818181817,
                "end_time": 155.72272727272727,
                "pitch": 35,
                "velocity": 80,
                "duration": 0.11590909090909918,
                "tempo": 120.0
            },
            {
                "start_time": 155.725,
                "end_time": 155.86136363636362,
                "pitch": 35,
                "velocity": 80,
                "duration": 0.13636363636362603,
                "tempo": 120.0
            },
            {
                "start_time": 155.86136363636362,
                "end_time": 155.98181818181817,
                "pitch": 47,
                "velocity": 80,
                "duration": 0.12045454545454959,
                "tempo": 120.0
            },
            {
                "start_time": 155.98181818181817,
                "end_time": 156.1,
                "pitch": 35,
                "velocity": 80,
                "duration": 0.11818181818182438,
                "tempo": 120.0
            },
            {
                "start_time": 156.1,
                "end_time": 156.2159090909091,
                "pitch": 35,
                "velocity": 80,
                "duration": 0.11590909090909918,
                "tempo": 120.0
            },
            {
                "start_time": 156.2159090909091,
                "end_time": 156.3340909090909,
                "pitch": 47,
                "velocity": 80,
                "duration": 0.11818181818179596,
                "tempo": 120.0
            },
            {
                "start_time": 156.33636363636361,
                "end_time": 156.46818181818182,
                "pitch": 35,
                "velocity": 80,
                "duration": 0.13181818181820404,
                "tempo": 120.0
            },
            {
                "start_time": 156.46818181818182,
                "end_time": 156.5840909090909,
                "pitch": 35,
                "velocity": 80,
                "duration": 0.11590909090907076,
                "tempo": 120.0
            },
            {
                "start_time": 156.5840909090909,
                "end_time": 156.7022727272727,
                "pitch": 47,
                "velocity": 80,
                "duration": 0.11818181818182438,
                "tempo": 120.0
            },
            {
                "start_time": 156.7022727272727,
                "end_time": 156.8181818181818,
                "pitch": 35,
                "velocity": 80,
                "duration": 0.11590909090909918,
                "tempo": 120.0
            },
            {
                "start_time": 156.8181818181818,
                "end_time": 156.9340909090909,
                "pitch": 35,
                "velocity": 80,
                "duration": 0.11590909090909918,
                "tempo": 120.0
            },
            {
                "start_time": 156.9340909090909,
                "end_time": 157.0681818181818,
                "pitch": 47,
                "velocity": 80,
                "duration": 0.13409090909090082,
                "tempo": 120.0
            },
            {
                "start_time": 157.0681818181818,
                "end_time": 157.18863636363636,
                "pitch": 35,
                "velocity": 80,
                "duration": 0.12045454545454959,
                "tempo": 120.0
            },
            {
                "start_time": 157.18863636363636,
                "end_time": 157.3068181818182,
                "pitch": 35,
                "velocity": 80,
                "duration": 0.11818181818182438,
                "tempo": 120.0
            },
            {
                "start_time": 157.3090909090909,
                "end_time": 157.4272727272727,
                "pitch": 47,
                "velocity": 80,
                "duration": 0.11818181818179596,
                "tempo": 120.0
            },
            {
                "start_time": 157.4272727272727,
                "end_time": 157.54772727272726,
                "pitch": 35,
                "velocity": 80,
                "duration": 0.12045454545454959,
                "tempo": 120.0
            },
            {
                "start_time": 157.54772727272726,
                "end_time": 157.6772727272727,
                "pitch": 33,
                "velocity": 80,
                "duration": 0.1295454545454504,
                "tempo": 120.0
            },
            {
                "start_time": 157.6772727272727,
                "end_time": 157.7931818181818,
                "pitch": 33,
                "velocity": 80,
                "duration": 0.11590909090909918,
                "tempo": 120.0
            },
            {
                "start_time": 157.7931818181818,
                "end_time": 157.9090909090909,
                "pitch": 45,
                "velocity": 80,
                "duration": 0.11590909090909918,
                "tempo": 120.0
            },
            {
                "start_time": 157.9090909090909,
                "end_time": 158.02272727272725,
                "pitch": 33,
                "velocity": 80,
                "duration": 0.11363636363634555,
                "tempo": 120.0
            },
            {
                "start_time": 158.02272727272725,
                "end_time": 158.13863636363635,
                "pitch": 33,
                "velocity": 80,
                "duration": 0.11590909090909918,
                "tempo": 120.0
            },
            {
                "start_time": 158.14090909090908,
                "end_time": 158.275,
                "pitch": 45,
                "velocity": 80,
                "duration": 0.13409090909092924,
                "tempo": 120.0
            },
            {
                "start_time": 158.275,
                "end_time": 158.39090909090908,
                "pitch": 33,
                "velocity": 80,
                "duration": 0.11590909090907076,
                "tempo": 120.0
            },
            {
                "start_time": 158.39090909090908,
                "end_time": 158.50681818181818,
                "pitch": 33,
                "velocity": 80,
                "duration": 0.11590909090909918,
                "tempo": 120.0
            },
            {
                "start_time": 158.50681818181818,
                "end_time": 158.625,
                "pitch": 45,
                "velocity": 80,
                "duration": 0.11818181818182438,
                "tempo": 120.0
            },
            {
                "start_time": 158.62727272727273,
                "end_time": 158.74318181818182,
                "pitch": 33,
                "velocity": 80,
                "duration": 0.11590909090909918,
                "tempo": 120.0
            },
            {
                "start_time": 158.74318181818182,
                "end_time": 158.87727272727273,
                "pitch": 33,
                "velocity": 80,
                "duration": 0.13409090909090082,
                "tempo": 120.0
            },
            {
                "start_time": 158.87727272727273,
                "end_time": 158.99545454545455,
                "pitch": 45,
                "velocity": 80,
                "duration": 0.11818181818182438,
                "tempo": 120.0
            },
            {
                "start_time": 158.99545454545455,
                "end_time": 159.11363636363635,
                "pitch": 33,
                "velocity": 80,
                "duration": 0.11818181818179596,
                "tempo": 120.0
            },
            {
                "start_time": 159.11363636363635,
                "end_time": 159.22954545454544,
                "pitch": 33,
                "velocity": 80,
                "duration": 0.11590909090909918,
                "tempo": 120.0
            },
            {
                "start_time": 159.22954545454544,
                "end_time": 159.34545454545454,
                "pitch": 45,
                "velocity": 80,
                "duration": 0.11590909090909918,
                "tempo": 120.0
            },
            {
                "start_time": 159.34545454545454,
                "end_time": 159.47954545454544,
                "pitch": 33,
                "velocity": 80,
                "duration": 0.13409090909090082,
                "tempo": 120.0
            },
            {
                "start_time": 159.47954545454544,
                "end_time": 159.59772727272727,
                "pitch": 29,
                "velocity": 80,
                "duration": 0.11818181818182438,
                "tempo": 120.0
            },
            {
                "start_time": 159.59772727272727,
                "end_time": 159.71818181818182,
                "pitch": 29,
                "velocity": 80,
                "duration": 0.12045454545454959,
                "tempo": 120.0
            },
            {
                "start_time": 159.71818181818182,
                "end_time": 159.83863636363637,
                "pitch": 41,
                "velocity": 80,
                "duration": 0.12045454545454959,
                "tempo": 120.0
            },
            {
                "start_time": 159.83863636363637,
                "end_time": 159.95681818181816,
                "pitch": 29,
                "velocity": 80,
                "duration": 0.11818181818179596,
                "tempo": 120.0
            },
            {
                "start_time": 159.95681818181816,
                "end_time": 160.08863636363637,
                "pitch": 29,
                "velocity": 80,
                "duration": 0.13181818181820404,
                "tempo": 120.0
            },
            {
                "start_time": 160.08863636363637,
                "end_time": 160.20454545454544,
                "pitch": 41,
                "velocity": 80,
                "duration": 0.11590909090907076,
                "tempo": 120.0
            },
            {
                "start_time": 160.20454545454544,
                "end_time": 160.3181818181818,
                "pitch": 29,
                "velocity": 80,
                "duration": 0.11363636363637397,
                "tempo": 120.0
            },
            {
                "start_time": 160.32045454545454,
                "end_time": 160.4340909090909,
                "pitch": 29,
                "velocity": 80,
                "duration": 0.11363636363637397,
                "tempo": 120.0
            },
            {
                "start_time": 160.4340909090909,
                "end_time": 160.54999999999998,
                "pitch": 41,
                "velocity": 80,
                "duration": 0.11590909090907076,
                "tempo": 120.0
            },
            {
                "start_time": 160.5522727272727,
                "end_time": 160.6840909090909,
                "pitch": 29,
                "velocity": 80,
                "duration": 0.13181818181820404,
                "tempo": 120.0
            },
            {
                "start_time": 160.6840909090909,
                "end_time": 160.8022727272727,
                "pitch": 29,
                "velocity": 80,
                "duration": 0.11818181818179596,
                "tempo": 120.0
            },
            {
                "start_time": 160.8022727272727,
                "end_time": 160.9181818181818,
                "pitch": 41,
                "velocity": 80,
                "duration": 0.11590909090909918,
                "tempo": 120.0
            },
            {
                "start_time": 160.9181818181818,
                "end_time": 161.03636363636363,
                "pitch": 29,
                "velocity": 80,
                "duration": 0.11818181818182438,
                "tempo": 120.0
            },
            {
                "start_time": 161.03636363636363,
                "end_time": 161.15454545454546,
                "pitch": 29,
                "velocity": 80,
                "duration": 0.11818181818182438,
                "tempo": 120.0
            },
            {
                "start_time": 161.15454545454546,
                "end_time": 161.28863636363636,
                "pitch": 41,
                "velocity": 80,
                "duration": 0.13409090909090082,
                "tempo": 120.0
            },
            {
                "start_time": 161.28863636363636,
                "end_time": 161.40681818181818,
                "pitch": 29,
                "velocity": 80,
                "duration": 0.11818181818182438,
                "tempo": 120.0
            },
            {
                "start_time": 161.40681818181818,
                "end_time": 161.525,
                "pitch": 26,
                "velocity": 80,
                "duration": 0.11818181818182438,
                "tempo": 120.0
            },
            {
                "start_time": 161.525,
                "end_time": 161.64545454545453,
                "pitch": 26,
                "velocity": 80,
                "duration": 0.12045454545452117,
                "tempo": 120.0
            },
            {
                "start_time": 161.64545454545453,
                "end_time": 161.76590909090908,
                "pitch": 38,
                "velocity": 80,
                "duration": 0.12045454545454959,
                "tempo": 120.0
            },
            {
                "start_time": 161.76590909090908,
                "end_time": 161.90227272727273,
                "pitch": 26,
                "velocity": 80,
                "duration": 0.13636363636365445,
                "tempo": 120.0
            },
            {
                "start_time": 161.90227272727273,
                "end_time": 162.0181818181818,
                "pitch": 26,
                "velocity": 80,
                "duration": 0.11590909090907076,
                "tempo": 120.0
            },
            {
                "start_time": 162.0181818181818,
                "end_time": 162.13863636363635,
                "pitch": 38,
                "velocity": 80,
                "duration": 0.12045454545454959,
                "tempo": 120.0
            },
            {
                "start_time": 162.13863636363635,
                "end_time": 162.25454545454545,
                "pitch": 26,
                "velocity": 80,
                "duration": 0.11590909090909918,
                "tempo": 120.0
            },
            {
                "start_time": 162.25454545454545,
                "end_time": 162.37272727272727,
                "pitch": 26,
                "velocity": 80,
                "duration": 0.11818181818182438,
                "tempo": 120.0
            },
            {
                "start_time": 162.375,
                "end_time": 162.50454545454545,
                "pitch": 40,
                "velocity": 80,
                "duration": 0.1295454545454504,
                "tempo": 120.0
            },
            {
                "start_time": 162.50454545454545,
                "end_time": 162.61818181818182,
                "pitch": 28,
                "velocity": 80,
                "duration": 0.11363636363637397,
                "tempo": 120.0
            },
            {
                "start_time": 162.62045454545455,
                "end_time": 162.7340909090909,
                "pitch": 28,
                "velocity": 80,
                "duration": 0.11363636363634555,
                "tempo": 120.0
            },
            {
                "start_time": 162.73636363636362,
                "end_time": 162.84772727272727,
                "pitch": 40,
                "velocity": 80,
                "duration": 0.11136363636364877,
                "tempo": 120.0
            },
            {
                "start_time": 162.85,
                "end_time": 162.9659090909091,
                "pitch": 28,
                "velocity": 80,
                "duration": 0.11590909090909918,
                "tempo": 120.0
            },
            {
                "start_time": 162.9659090909091,
                "end_time": 163.1,
                "pitch": 28,
                "velocity": 80,
                "duration": 0.13409090909090082,
                "tempo": 120.0
            },
            {
                "start_time": 163.1,
                "end_time": 163.2159090909091,
                "pitch": 40,
                "velocity": 80,
                "duration": 0.11590909090909918,
                "tempo": 120.0
            },
            {
                "start_time": 163.2159090909091,
                "end_time": 163.3340909090909,
                "pitch": 28,
                "velocity": 80,
                "duration": 0.11818181818179596,
                "tempo": 120.0
            },
            {
                "start_time": 163.3340909090909,
                "end_time": 163.4522727272727,
                "pitch": 41,
                "velocity": 80,
                "duration": 0.11818181818182438,
                "tempo": 120.0
            },
            {
                "start_time": 163.4522727272727,
                "end_time": 163.57272727272726,
                "pitch": 29,
                "velocity": 80,
                "duration": 0.12045454545454959,
                "tempo": 120.0
            },
            {
                "start_time": 163.57272727272726,
                "end_time": 163.7090909090909,
                "pitch": 29,
                "velocity": 80,
                "duration": 0.13636363636362603,
                "tempo": 120.0
            },
            {
                "start_time": 163.71136363636361,
                "end_time": 163.8272727272727,
                "pitch": 41,
                "velocity": 80,
                "duration": 0.11590909090909918,
                "tempo": 120.0
            },
            {
                "start_time": 163.82954545454544,
                "end_time": 163.94545454545454,
                "pitch": 29,
                "velocity": 80,
                "duration": 0.11590909090909918,
                "tempo": 120.0
            },
            {
                "start_time": 163.94545454545454,
                "end_time": 164.06363636363636,
                "pitch": 29,
                "velocity": 80,
                "duration": 0.11818181818182438,
                "tempo": 120.0
            },
            {
                "start_time": 164.06363636363636,
                "end_time": 164.17954545454543,
                "pitch": 41,
                "velocity": 80,
                "duration": 0.11590909090907076,
                "tempo": 120.0
            },
            {
                "start_time": 164.17954545454543,
                "end_time": 164.31363636363636,
                "pitch": 29,
                "velocity": 80,
                "duration": 0.13409090909092924,
                "tempo": 120.0
            },
            {
                "start_time": 164.31363636363636,
                "end_time": 164.4318181818182,
                "pitch": 42,
                "velocity": 80,
                "duration": 0.11818181818182438,
                "tempo": 120.0
            },
            {
                "start_time": 164.4318181818182,
                "end_time": 164.5522727272727,
                "pitch": 30,
                "velocity": 80,
                "duration": 0.12045454545452117,
                "tempo": 120.0
            },
            {
                "start_time": 164.5522727272727,
                "end_time": 164.67272727272726,
                "pitch": 30,
                "velocity": 80,
                "duration": 0.12045454545454959,
                "tempo": 120.0
            },
            {
                "start_time": 164.67272727272726,
                "end_time": 164.79090909090908,
                "pitch": 42,
                "velocity": 80,
                "duration": 0.11818181818182438,
                "tempo": 120.0
            },
            {
                "start_time": 164.79090909090908,
                "end_time": 164.9181818181818,
                "pitch": 30,
                "velocity": 80,
                "duration": 0.1272727272727252,
                "tempo": 120.0
            },
            {
                "start_time": 164.9181818181818,
                "end_time": 165.03181818181818,
                "pitch": 30,
                "velocity": 80,
                "duration": 0.11363636363637397,
                "tempo": 120.0
            },
            {
                "start_time": 165.0340909090909,
                "end_time": 165.1431818181818,
                "pitch": 42,
                "velocity": 80,
                "duration": 0.10909090909089514,
                "tempo": 120.0
            },
            {
                "start_time": 165.1431818181818,
                "end_time": 165.25681818181818,
                "pitch": 30,
                "velocity": 80,
                "duration": 0.11363636363637397,
                "tempo": 120.0
            },
            {
                "start_time": 165.25681818181818,
                "end_time": 165.375,
                "pitch": 43,
                "velocity": 80,
                "duration": 0.11818181818182438,
                "tempo": 120.0
            },
            {
                "start_time": 165.375,
                "end_time": 165.51363636363635,
                "pitch": 31,
                "velocity": 80,
                "duration": 0.13863636363635123,
                "tempo": 120.0
            },
            {
                "start_time": 165.51363636363635,
                "end_time": 165.6340909090909,
                "pitch": 31,
                "velocity": 80,
                "duration": 0.12045454545454959,
                "tempo": 120.0
            },
            {
                "start_time": 165.6340909090909,
                "end_time": 165.75227272727273,
                "pitch": 43,
                "velocity": 80,
                "duration": 0.11818181818182438,
                "tempo": 120.0
            },
            {
                "start_time": 165.75227272727273,
                "end_time": 165.8681818181818,
                "pitch": 31,
                "velocity": 80,
                "duration": 0.11590909090907076,
                "tempo": 120.0
            },
            {
                "start_time": 165.87045454545455,
                "end_time": 165.98636363636362,
                "pitch": 31,
                "velocity": 80,
                "duration": 0.11590909090907076,
                "tempo": 120.0
            },
            {
                "start_time": 165.98863636363635,
                "end_time": 166.12272727272727,
                "pitch": 43,
                "velocity": 80,
                "duration": 0.13409090909092924,
                "tempo": 120.0
            },
            {
                "start_time": 166.12272727272727,
                "end_time": 166.24090909090907,
                "pitch": 31,
                "velocity": 80,
                "duration": 0.11818181818179596,
                "tempo": 120.0
            },
            {
                "start_time": 166.24090909090907,
                "end_time": 166.35681818181817,
                "pitch": 31,
                "velocity": 80,
                "duration": 0.11590909090909918,
                "tempo": 120.0
            },
            {
                "start_time": 166.35681818181817,
                "end_time": 166.47272727272727,
                "pitch": 43,
                "velocity": 80,
                "duration": 0.11590909090909918,
                "tempo": 120.0
            },
            {
                "start_time": 166.47272727272727,
                "end_time": 166.5909090909091,
                "pitch": 31,
                "velocity": 80,
                "duration": 0.11818181818182438,
                "tempo": 120.0
            },
            {
                "start_time": 166.5909090909091,
                "end_time": 166.725,
                "pitch": 31,
                "velocity": 80,
                "duration": 0.13409090909090082,
                "tempo": 120.0
            },
            {
                "start_time": 166.725,
                "end_time": 166.84318181818182,
                "pitch": 43,
                "velocity": 80,
                "duration": 0.11818181818182438,
                "tempo": 120.0
            },
            {
                "start_time": 166.84318181818182,
                "end_time": 166.96363636363637,
                "pitch": 31,
                "velocity": 80,
                "duration": 0.12045454545454959,
                "tempo": 120.0
            },
            {
                "start_time": 166.96363636363637,
                "end_time": 167.08181818181816,
                "pitch": 43,
                "velocity": 80,
                "duration": 0.11818181818179596,
                "tempo": 120.0
            },
            {
                "start_time": 167.08181818181816,
                "end_time": 167.2022727272727,
                "pitch": 31,
                "velocity": 80,
                "duration": 0.12045454545454959,
                "tempo": 120.0
            },
            {
                "start_time": 167.20454545454544,
                "end_time": 167.3340909090909,
                "pitch": 43,
                "velocity": 80,
                "duration": 0.1295454545454504,
                "tempo": 120.0
            },
            {
                "start_time": 167.3340909090909,
                "end_time": 167.44772727272726,
                "pitch": 31,
                "velocity": 80,
                "duration": 0.11363636363637397,
                "tempo": 120.0
            },
            {
                "start_time": 167.45,
                "end_time": 167.56363636363636,
                "pitch": 31,
                "velocity": 80,
                "duration": 0.11363636363637397,
                "tempo": 120.0
            },
            {
                "start_time": 167.56363636363636,
                "end_time": 167.67954545454543,
                "pitch": 43,
                "velocity": 80,
                "duration": 0.11590909090907076,
                "tempo": 120.0
            },
            {
                "start_time": 167.67954545454543,
                "end_time": 167.79545454545453,
                "pitch": 31,
                "velocity": 80,
                "duration": 0.11590909090909918,
                "tempo": 120.0
            },
            {
                "start_time": 167.79545454545453,
                "end_time": 167.92954545454543,
                "pitch": 31,
                "velocity": 80,
                "duration": 0.13409090909090082,
                "tempo": 120.0
            },
            {
                "start_time": 167.92954545454543,
                "end_time": 168.04545454545453,
                "pitch": 43,
                "velocity": 80,
                "duration": 0.11590909090909918,
                "tempo": 120.0
            },
            {
                "start_time": 168.04545454545453,
                "end_time": 168.16363636363636,
                "pitch": 31,
                "velocity": 80,
                "duration": 0.11818181818182438,
                "tempo": 120.0
            },
            {
                "start_time": 168.16363636363636,
                "end_time": 168.27954545454546,
                "pitch": 31,
                "velocity": 80,
                "duration": 0.11590909090909918,
                "tempo": 120.0
            },
            {
                "start_time": 168.27954545454546,
                "end_time": 168.39545454545453,
                "pitch": 43,
                "velocity": 80,
                "duration": 0.11590909090907076,
                "tempo": 120.0
            },
            {
                "start_time": 168.39772727272725,
                "end_time": 168.52954545454546,
                "pitch": 31,
                "velocity": 80,
                "duration": 0.13181818181820404,
                "tempo": 120.0
            },
            {
                "start_time": 168.52954545454546,
                "end_time": 168.64545454545453,
                "pitch": 31,
                "velocity": 80,
                "duration": 0.11590909090907076,
                "tempo": 120.0
            },
            {
                "start_time": 168.64545454545453,
                "end_time": 168.76590909090908,
                "pitch": 43,
                "velocity": 80,
                "duration": 0.12045454545454959,
                "tempo": 120.0
            },
            {
                "start_time": 168.76590909090908,
                "end_time": 168.88636363636363,
                "pitch": 31,
                "velocity": 80,
                "duration": 0.12045454545454959,
                "tempo": 120.0
            },
            {
                "start_time": 168.88636363636363,
                "end_time": 169.00681818181818,
                "pitch": 43,
                "velocity": 80,
                "duration": 0.12045454545454959,
                "tempo": 120.0
            },
            {
                "start_time": 169.00681818181818,
                "end_time": 169.1431818181818,
                "pitch": 31,
                "velocity": 80,
                "duration": 0.13636363636362603,
                "tempo": 120.0
            },
            {
                "start_time": 169.1431818181818,
                "end_time": 169.2590909090909,
                "pitch": 26,
                "velocity": 80,
                "duration": 0.11590909090909918,
                "tempo": 120.0
            },
            {
                "start_time": 169.2590909090909,
                "end_time": 169.375,
                "pitch": 26,
                "velocity": 80,
                "duration": 0.11590909090909918,
                "tempo": 120.0
            },
            {
                "start_time": 169.375,
                "end_time": 169.4931818181818,
                "pitch": 38,
                "velocity": 80,
                "duration": 0.11818181818179596,
                "tempo": 120.0
            },
            {
                "start_time": 169.4931818181818,
                "end_time": 169.6090909090909,
                "pitch": 26,
                "velocity": 80,
                "duration": 0.11590909090909918,
                "tempo": 120.0
            },
            {
                "start_time": 169.6090909090909,
                "end_time": 169.74090909090907,
                "pitch": 26,
                "velocity": 80,
                "duration": 0.13181818181817562,
                "tempo": 120.0
            },
            {
                "start_time": 169.74090909090907,
                "end_time": 169.85681818181817,
                "pitch": 38,
                "velocity": 80,
                "duration": 0.11590909090909918,
                "tempo": 120.0
            },
            {
                "start_time": 169.85681818181817,
                "end_time": 169.97045454545454,
                "pitch": 26,
                "velocity": 80,
                "duration": 0.11363636363637397,
                "tempo": 120.0
            },
            {
                "start_time": 169.97045454545454,
                "end_time": 170.08636363636361,
                "pitch": 26,
                "velocity": 80,
                "duration": 0.11590909090907076,
                "tempo": 120.0
            },
            {
                "start_time": 170.08636363636361,
                "end_time": 170.20454545454544,
                "pitch": 40,
                "velocity": 80,
                "duration": 0.11818181818182438,
                "tempo": 120.0
            },
            {
                "start_time": 170.20454545454544,
                "end_time": 170.33863636363637,
                "pitch": 28,
                "velocity": 80,
                "duration": 0.13409090909092924,
                "tempo": 120.0
            },
            {
                "start_time": 170.33863636363637,
                "end_time": 170.45681818181816,
                "pitch": 28,
                "velocity": 80,
                "duration": 0.11818181818179596,
                "tempo": 120.0
            },
            {
                "start_time": 170.45681818181816,
                "end_time": 170.57272727272726,
                "pitch": 40,
                "velocity": 80,
                "duration": 0.11590909090909918,
                "tempo": 120.0
            },
            {
                "start_time": 170.57272727272726,
                "end_time": 170.6931818181818,
                "pitch": 28,
                "velocity": 80,
                "duration": 0.12045454545454959,
                "tempo": 120.0
            },
            {
                "start_time": 170.6931818181818,
                "end_time": 170.81363636363636,
                "pitch": 28,
                "velocity": 80,
                "duration": 0.12045454545454959,
                "tempo": 120.0
            },
            {
                "start_time": 170.81363636363636,
                "end_time": 170.95,
                "pitch": 40,
                "velocity": 80,
                "duration": 0.13636363636362603,
                "tempo": 120.0
            },
            {
                "start_time": 170.95,
                "end_time": 171.07045454545454,
                "pitch": 28,
                "velocity": 80,
                "duration": 0.12045454545454959,
                "tempo": 120.0
            },
            {
                "start_time": 171.07045454545454,
                "end_time": 171.18636363636364,
                "pitch": 41,
                "velocity": 80,
                "duration": 0.11590909090909918,
                "tempo": 120.0
            },
            {
                "start_time": 171.18636363636364,
                "end_time": 171.30454545454543,
                "pitch": 29,
                "velocity": 80,
                "duration": 0.11818181818179596,
                "tempo": 120.0
            },
            {
                "start_time": 171.30454545454543,
                "end_time": 171.42272727272726,
                "pitch": 29,
                "velocity": 80,
                "duration": 0.11818181818182438,
                "tempo": 120.0
            },
            {
                "start_time": 171.42499999999998,
                "end_time": 171.5568181818182,
                "pitch": 41,
                "velocity": 80,
                "duration": 0.13181818181820404,
                "tempo": 120.0
            },
            {
                "start_time": 171.5568181818182,
                "end_time": 171.67272727272726,
                "pitch": 29,
                "velocity": 80,
                "duration": 0.11590909090907076,
                "tempo": 120.0
            },
            {
                "start_time": 171.67272727272726,
                "end_time": 171.79090909090908,
                "pitch": 29,
                "velocity": 80,
                "duration": 0.11818181818182438,
                "tempo": 120.0
            },
            {
                "start_time": 171.79090909090908,
                "end_time": 171.90681818181818,
                "pitch": 41,
                "velocity": 80,
                "duration": 0.11590909090909918,
                "tempo": 120.0
            },
            {
                "start_time": 171.90681818181818,
                "end_time": 172.025,
                "pitch": 29,
                "velocity": 80,
                "duration": 0.11818181818182438,
                "tempo": 120.0
            },
            {
                "start_time": 172.025,
                "end_time": 172.15681818181818,
                "pitch": 42,
                "velocity": 80,
                "duration": 0.13181818181817562,
                "tempo": 120.0
            },
            {
                "start_time": 172.15681818181818,
                "end_time": 172.27045454545453,
                "pitch": 30,
                "velocity": 80,
                "duration": 0.11363636363634555,
                "tempo": 120.0
            },
            {
                "start_time": 172.27045454545453,
                "end_time": 172.38636363636363,
                "pitch": 30,
                "velocity": 80,
                "duration": 0.11590909090909918,
                "tempo": 120.0
            },
            {
                "start_time": 172.38636363636363,
                "end_time": 172.5,
                "pitch": 42,
                "velocity": 80,
                "duration": 0.11363636363637397,
                "tempo": 120.0
            },
            {
                "start_time": 172.5,
                "end_time": 172.62045454545455,
                "pitch": 30,
                "velocity": 80,
                "duration": 0.12045454545454959,
                "tempo": 120.0
            },
            {
                "start_time": 172.62045454545455,
                "end_time": 172.7590909090909,
                "pitch": 30,
                "velocity": 80,
                "duration": 0.13863636363635123,
                "tempo": 120.0
            },
            {
                "start_time": 172.7590909090909,
                "end_time": 172.87727272727273,
                "pitch": 42,
                "velocity": 80,
                "duration": 0.11818181818182438,
                "tempo": 120.0
            },
            {
                "start_time": 172.87727272727273,
                "end_time": 172.99772727272727,
                "pitch": 30,
                "velocity": 80,
                "duration": 0.12045454545454959,
                "tempo": 120.0
            },
            {
                "start_time": 172.99772727272727,
                "end_time": 173.11363636363635,
                "pitch": 43,
                "velocity": 80,
                "duration": 0.11590909090907076,
                "tempo": 120.0
            },
            {
                "start_time": 173.11363636363635,
                "end_time": 173.22954545454544,
                "pitch": 31,
                "velocity": 80,
                "duration": 0.11590909090909918,
                "tempo": 120.0
            },
            {
                "start_time": 173.22954545454544,
                "end_time": 173.36363636363635,
                "pitch": 31,
                "velocity": 80,
                "duration": 0.13409090909090082,
                "tempo": 120.0
            },
            {
                "start_time": 173.36363636363635,
                "end_time": 173.48181818181817,
                "pitch": 43,
                "velocity": 80,
                "duration": 0.11818181818182438,
                "tempo": 120.0
            },
            {
                "start_time": 173.48181818181817,
                "end_time": 173.59772727272727,
                "pitch": 31,
                "velocity": 80,
                "duration": 0.11590909090909918,
                "tempo": 120.0
            },
            {
                "start_time": 173.59772727272727,
                "end_time": 173.7159090909091,
                "pitch": 31,
                "velocity": 80,
                "duration": 0.11818181818182438,
                "tempo": 120.0
            },
            {
                "start_time": 173.7159090909091,
                "end_time": 173.8340909090909,
                "pitch": 43,
                "velocity": 80,
                "duration": 0.11818181818179596,
                "tempo": 120.0
            },
            {
                "start_time": 173.8340909090909,
                "end_time": 173.96818181818182,
                "pitch": 31,
                "velocity": 80,
                "duration": 0.13409090909092924,
                "tempo": 120.0
            },
            {
                "start_time": 173.97045454545454,
                "end_time": 174.08863636363637,
                "pitch": 31,
                "velocity": 80,
                "duration": 0.11818181818182438,
                "tempo": 120.0
            },
            {
                "start_time": 174.08863636363637,
                "end_time": 174.20681818181816,
                "pitch": 43,
                "velocity": 80,
                "duration": 0.11818181818179596,
                "tempo": 120.0
            },
            {
                "start_time": 174.20681818181816,
                "end_time": 174.3272727272727,
                "pitch": 31,
                "velocity": 80,
                "duration": 0.12045454545454959,
                "tempo": 120.0
            },
            {
                "start_time": 174.3272727272727,
                "end_time": 174.44772727272726,
                "pitch": 31,
                "velocity": 80,
                "duration": 0.12045454545454959,
                "tempo": 120.0
            },
            {
                "start_time": 174.44772727272726,
                "end_time": 174.5772727272727,
                "pitch": 43,
                "velocity": 80,
                "duration": 0.1295454545454504,
                "tempo": 120.0
            },
            {
                "start_time": 174.5772727272727,
                "end_time": 174.6931818181818,
                "pitch": 31,
                "velocity": 80,
                "duration": 0.11590909090909918,
                "tempo": 120.0
            },
            {
                "start_time": 174.69545454545454,
                "end_time": 174.8090909090909,
                "pitch": 43,
                "velocity": 80,
                "duration": 0.11363636363637397,
                "tempo": 120.0
            },
            {
                "start_time": 174.8090909090909,
                "end_time": 174.92499999999998,
                "pitch": 31,
                "velocity": 80,
                "duration": 0.11590909090907076,
                "tempo": 120.0
            },
            {
                "start_time": 174.92499999999998,
                "end_time": 175.04090909090908,
                "pitch": 43,
                "velocity": 80,
                "duration": 0.11590909090909918,
                "tempo": 120.0
            },
            {
                "start_time": 175.04090909090908,
                "end_time": 175.17499999999998,
                "pitch": 31,
                "velocity": 80,
                "duration": 0.13409090909090082,
                "tempo": 120.0
            },
            {
                "start_time": 175.17499999999998,
                "end_time": 175.2931818181818,
                "pitch": 31,
                "velocity": 80,
                "duration": 0.11818181818182438,
                "tempo": 120.0
            },
            {
                "start_time": 175.2931818181818,
                "end_time": 175.41136363636363,
                "pitch": 43,
                "velocity": 80,
                "duration": 0.11818181818182438,
                "tempo": 120.0
            },
            {
                "start_time": 175.41136363636363,
                "end_time": 175.52727272727273,
                "pitch": 31,
                "velocity": 80,
                "duration": 0.11590909090909918,
                "tempo": 120.0
            },
            {
                "start_time": 175.52727272727273,
                "end_time": 175.64545454545453,
                "pitch": 31,
                "velocity": 80,
                "duration": 0.11818181818179596,
                "tempo": 120.0
            },
            {
                "start_time": 175.64545454545453,
                "end_time": 175.77727272727273,
                "pitch": 43,
                "velocity": 80,
                "duration": 0.13181818181820404,
                "tempo": 120.0
            },
            {
                "start_time": 175.77954545454546,
                "end_time": 175.89545454545453,
                "pitch": 31,
                "velocity": 80,
                "duration": 0.11590909090907076,
                "tempo": 120.0
            },
            {
                "start_time": 175.89545454545453,
                "end_time": 176.01363636363635,
                "pitch": 31,
                "velocity": 80,
                "duration": 0.11818181818182438,
                "tempo": 120.0
            },
            {
                "start_time": 176.01363636363635,
                "end_time": 176.1340909090909,
                "pitch": 43,
                "velocity": 80,
                "duration": 0.12045454545454959,
                "tempo": 120.0
            },
            {
                "start_time": 176.1340909090909,
                "end_time": 176.25454545454545,
                "pitch": 31,
                "velocity": 80,
                "duration": 0.12045454545454959,
                "tempo": 120.0
            },
            {
                "start_time": 176.25454545454545,
                "end_time": 176.39090909090908,
                "pitch": 31,
                "velocity": 80,
                "duration": 0.13636363636362603,
                "tempo": 120.0
            },
            {
                "start_time": 176.39090909090908,
                "end_time": 176.50681818181818,
                "pitch": 43,
                "velocity": 80,
                "duration": 0.11590909090909918,
                "tempo": 120.0
            },
            {
                "start_time": 176.50681818181818,
                "end_time": 176.625,
                "pitch": 31,
                "velocity": 80,
                "duration": 0.11818181818182438,
                "tempo": 120.0
            },
            {
                "start_time": 176.625,
                "end_time": 176.74090909090907,
                "pitch": 43,
                "velocity": 80,
                "duration": 0.11590909090907076,
                "tempo": 120.0
            },
            {
                "start_time": 176.74090909090907,
                "end_time": 176.85681818181817,
                "pitch": 31,
                "velocity": 80,
                "duration": 0.11590909090909918,
                "tempo": 120.0
            }
        ],
        "Clarinet": [
            {
                "start_time": 122.7840909090909,
                "end_time": 124.22045454545454,
                "pitch": 60,
                "velocity": 80,
                "duration": 1.4363636363636374,
                "tempo": 120.0
            },
            {
                "start_time": 124.22045454545454,
                "end_time": 124.70454545454545,
                "pitch": 62,
                "velocity": 80,
                "duration": 0.48409090909090935,
                "tempo": 120.0
            },
            {
                "start_time": 124.70681818181818,
                "end_time": 125.4340909090909,
                "pitch": 60,
                "velocity": 80,
                "duration": 0.7272727272727195,
                "tempo": 120.0
            },
            {
                "start_time": 125.4340909090909,
                "end_time": 125.59772727272727,
                "pitch": 64,
                "velocity": 80,
                "duration": 0.16363636363637113,
                "tempo": 120.0
            },
            {
                "start_time": 125.59772727272727,
                "end_time": 125.92045454545453,
                "pitch": 67,
                "velocity": 80,
                "duration": 0.3227272727272634,
                "tempo": 120.0
            },
            {
                "start_time": 125.92045454545453,
                "end_time": 126.40227272727272,
                "pitch": 67,
                "velocity": 80,
                "duration": 0.48181818181818414,
                "tempo": 120.0
            },
            {
                "start_time": 126.40227272727272,
                "end_time": 126.63181818181818,
                "pitch": 67,
                "velocity": 80,
                "duration": 0.22954545454545894,
                "tempo": 120.0
            },
            {
                "start_time": 126.63181818181818,
                "end_time": 127.36136363636363,
                "pitch": 65,
                "velocity": 80,
                "duration": 0.7295454545454589,
                "tempo": 120.0
            },
            {
                "start_time": 127.36136363636363,
                "end_time": 128.33863636363637,
                "pitch": 60,
                "velocity": 80,
                "duration": 0.9772727272727337,
                "tempo": 120.0
            },
            {
                "start_time": 128.33863636363637,
                "end_time": 128.45681818181816,
                "pitch": 67,
                "velocity": 80,
                "duration": 0.11818181818179596,
                "tempo": 120.0
            },
            {
                "start_time": 128.45681818181816,
                "end_time": 128.57954545454544,
                "pitch": 69,
                "velocity": 80,
                "duration": 0.1227272727272748,
                "tempo": 120.0
            },
            {
                "start_time": 128.57954545454544,
                "end_time": 128.82272727272726,
                "pitch": 71,
                "velocity": 80,
                "duration": 0.24318181818182438,
                "tempo": 120.0
            },
            {
                "start_time": 128.82272727272726,
                "end_time": 128.93863636363636,
                "pitch": 71,
                "velocity": 80,
                "duration": 0.11590909090909918,
                "tempo": 120.0
            },
            {
                "start_time": 128.93863636363636,
                "end_time": 129.0522727272727,
                "pitch": 72,
                "velocity": 80,
                "duration": 0.11363636363634555,
                "tempo": 120.0
            },
            {
                "start_time": 129.0522727272727,
                "end_time": 129.3068181818182,
                "pitch": 74,
                "velocity": 80,
                "duration": 0.25454545454547883,
                "tempo": 120.0
            },
            {
                "start_time": 129.3068181818182,
                "end_time": 129.42272727272726,
                "pitch": 72,
                "velocity": 80,
                "duration": 0.11590909090907076,
                "tempo": 120.0
            },
            {
                "start_time": 129.42272727272726,
                "end_time": 129.54090909090908,
                "pitch": 74,
                "velocity": 80,
                "duration": 0.11818181818182438,
                "tempo": 120.0
            },
            {
                "start_time": 129.54090909090908,
                "end_time": 129.775,
                "pitch": 76,
                "velocity": 80,
                "duration": 0.23409090909092356,
                "tempo": 120.0
            },
            {
                "start_time": 129.775,
                "end_time": 129.9090909090909,
                "pitch": 74,
                "velocity": 80,
                "duration": 0.13409090909090082,
                "tempo": 120.0
            },
            {
                "start_time": 129.9090909090909,
                "end_time": 130.025,
                "pitch": 76,
                "velocity": 80,
                "duration": 0.11590909090909918,
                "tempo": 120.0
            },
            {
                "start_time": 130.025,
                "end_time": 130.26590909090908,
                "pitch": 77,
                "velocity": 80,
                "duration": 0.24090909090907076,
                "tempo": 120.0
            },
            {
                "start_time": 130.26590909090908,
                "end_time": 130.3840909090909,
                "pitch": 76,
                "velocity": 80,
                "duration": 0.11818181818182438,
                "tempo": 120.0
            },
            {
                "start_time": 130.3840909090909,
                "end_time": 130.52272727272728,
                "pitch": 77,
                "velocity": 80,
                "duration": 0.13863636363637966,
                "tempo": 120.0
            },
            {
                "start_time": 130.52272727272728,
                "end_time": 131.31363636363636,
                "pitch": 79,
                "velocity": 80,
                "duration": 0.7909090909090821,
                "tempo": 120.0
            },
            {
                "start_time": 131.31363636363636,
                "end_time": 131.37954545454545,
                "pitch": 77,
                "velocity": 80,
                "duration": 0.06590909090908781,
                "tempo": 120.0
            },
            {
                "start_time": 131.37954545454545,
                "end_time": 131.46363636363637,
                "pitch": 74,
                "velocity": 80,
                "duration": 0.08409090909091788,
                "tempo": 120.0
            },
            {
                "start_time": 131.46363636363637,
                "end_time": 131.94772727272726,
                "pitch": 60,
                "velocity": 80,
                "duration": 0.48409090909089514,
                "tempo": 120.0
            },
            {
                "start_time": 131.94772727272726,
                "end_time": 132.44545454545454,
                "pitch": 60,
                "velocity": 80,
                "duration": 0.4977272727272748,
                "tempo": 120.0
            },
            {
                "start_time": 132.44545454545454,
                "end_time": 132.9272727272727,
                "pitch": 60,
                "velocity": 80,
                "duration": 0.48181818181816993,
                "tempo": 120.0
            },
            {
                "start_time": 132.9272727272727,
                "end_time": 133.40681818181818,
                "pitch": 60,
                "velocity": 80,
                "duration": 0.47954545454547315,
                "tempo": 120.0
            },
            {
                "start_time": 133.40681818181818,
                "end_time": 133.64772727272725,
                "pitch": 60,
                "velocity": 80,
                "duration": 0.24090909090907076,
                "tempo": 120.0
            },
            {
                "start_time": 133.64772727272725,
                "end_time": 134.12727272727273,
                "pitch": 60,
                "velocity": 80,
                "duration": 0.47954545454547315,
                "tempo": 120.0
            },
            {
                "start_time": 134.12954545454545,
                "end_time": 138.0,
                "pitch": 53,
                "velocity": 80,
                "duration": 3.8704545454545496,
                "tempo": 120.0
            },
            {
                "start_time": 138.0,
                "end_time": 138.11590909090907,
                "pitch": 53,
                "velocity": 80,
                "duration": 0.11590909090907076,
                "tempo": 120.0
            },
            {
                "start_time": 138.11590909090907,
                "end_time": 138.2340909090909,
                "pitch": 53,
                "velocity": 80,
                "duration": 0.11818181818182438,
                "tempo": 120.0
            },
            {
                "start_time": 138.23636363636362,
                "end_time": 138.47954545454544,
                "pitch": 60,
                "velocity": 80,
                "duration": 0.24318181818182438,
                "tempo": 120.0
            },
            {
                "start_time": 138.47954545454544,
                "end_time": 139.19545454545454,
                "pitch": 62,
                "velocity": 80,
                "duration": 0.7159090909090935,
                "tempo": 120.0
            },
            {
                "start_time": 139.19545454545454,
                "end_time": 140.17499999999998,
                "pitch": 60,
                "velocity": 80,
                "duration": 0.9795454545454447,
                "tempo": 120.0
            },
            {
                "start_time": 140.17499999999998,
                "end_time": 141.61136363636362,
                "pitch": 57,
                "velocity": 80,
                "duration": 1.4363636363636374,
                "tempo": 120.0
            },
            {
                "start_time": 141.61136363636362,
                "end_time": 141.77727272727273,
                "pitch": 63,
                "velocity": 80,
                "duration": 0.16590909090911055,
                "tempo": 120.0
            },
            {
                "start_time": 141.77727272727273,
                "end_time": 141.85,
                "pitch": 66,
                "velocity": 80,
                "duration": 0.07272727272726343,
                "tempo": 120.0
            },
            {
                "start_time": 141.85,
                "end_time": 143.52727272727273,
                "pitch": 62,
                "velocity": 80,
                "duration": 1.6772727272727366,
                "tempo": 120.0
            },
            {
                "start_time": 143.52727272727273,
                "end_time": 143.7840909090909,
                "pitch": 60,
                "velocity": 80,
                "duration": 0.2568181818181756,
                "tempo": 120.0
            },
            {
                "start_time": 143.7840909090909,
                "end_time": 145.47045454545454,
                "pitch": 59,
                "velocity": 80,
                "duration": 1.6863636363636374,
                "tempo": 120.0
            },
            {
                "start_time": 145.94772727272726,
                "end_time": 147.4181818181818,
                "pitch": 60,
                "velocity": 80,
                "duration": 1.470454545454544,
                "tempo": 120.0
            },
            {
                "start_time": 147.4181818181818,
                "end_time": 147.88636363636363,
                "pitch": 62,
                "velocity": 80,
                "duration": 0.4681818181818187,
                "tempo": 120.0
            },
            {
                "start_time": 147.88636363636363,
                "end_time": 148.61818181818182,
                "pitch": 60,
                "velocity": 80,
                "duration": 0.7318181818181984,
                "tempo": 120.0
            },
            {
                "start_time": 148.61818181818182,
                "end_time": 148.7681818181818,
                "pitch": 64,
                "velocity": 80,
                "duration": 0.14999999999997726,
                "tempo": 120.0
            },
            {
                "start_time": 148.7681818181818,
                "end_time": 149.0909090909091,
                "pitch": 67,
                "velocity": 80,
                "duration": 0.32272727272729185,
                "tempo": 120.0
            },
            {
                "start_time": 149.0909090909091,
                "end_time": 149.5772727272727,
                "pitch": 67,
                "velocity": 80,
                "duration": 0.48636363636362034,
                "tempo": 120.0
            },
            {
                "start_time": 149.5772727272727,
                "end_time": 149.82954545454544,
                "pitch": 67,
                "velocity": 80,
                "duration": 0.2522727272727252,
                "tempo": 120.0
            },
            {
                "start_time": 149.82954545454544,
                "end_time": 150.54772727272726,
                "pitch": 65,
                "velocity": 80,
                "duration": 0.7181818181818187,
                "tempo": 120.0
            },
            {
                "start_time": 150.54772727272726,
                "end_time": 151.50227272727273,
                "pitch": 60,
                "velocity": 80,
                "duration": 0.9545454545454675,
                "tempo": 120.0
            },
            {
                "start_time": 151.50227272727273,
                "end_time": 151.6340909090909,
                "pitch": 67,
                "velocity": 80,
                "duration": 0.13181818181817562,
                "tempo": 120.0
            },
            {
                "start_time": 151.6340909090909,
                "end_time": 151.75227272727273,
                "pitch": 69,
                "velocity": 80,
                "duration": 0.11818181818182438,
                "tempo": 120.0
            },
            {
                "start_time": 151.75227272727273,
                "end_time": 151.99090909090907,
                "pitch": 71,
                "velocity": 80,
                "duration": 0.23863636363634555,
                "tempo": 120.0
            },
            {
                "start_time": 151.99090909090907,
                "end_time": 152.11136363636362,
                "pitch": 71,
                "velocity": 80,
                "duration": 0.12045454545454959,
                "tempo": 120.0
            },
            {
                "start_time": 152.11136363636362,
                "end_time": 152.24772727272727,
                "pitch": 72,
                "velocity": 80,
                "duration": 0.13636363636365445,
                "tempo": 120.0
            },
            {
                "start_time": 152.24772727272727,
                "end_time": 152.48181818181817,
                "pitch": 74,
                "velocity": 80,
                "duration": 0.23409090909089514,
                "tempo": 120.0
            },
            {
                "start_time": 152.48181818181817,
                "end_time": 152.59772727272727,
                "pitch": 72,
                "velocity": 80,
                "duration": 0.11590909090909918,
                "tempo": 120.0
            },
            {
                "start_time": 152.59772727272727,
                "end_time": 152.7159090909091,
                "pitch": 74,
                "velocity": 80,
                "duration": 0.11818181818182438,
                "tempo": 120.0
            },
            {
                "start_time": 152.7159090909091,
                "end_time": 152.96136363636364,
                "pitch": 76,
                "velocity": 80,
                "duration": 0.2454545454545496,
                "tempo": 120.0
            },
            {
                "start_time": 152.96136363636364,
                "end_time": 153.0772727272727,
                "pitch": 74,
                "velocity": 80,
                "duration": 0.11590909090907076,
                "tempo": 120.0
            },
            {
                "start_time": 153.0772727272727,
                "end_time": 153.1909090909091,
                "pitch": 76,
                "velocity": 80,
                "duration": 0.11363636363637397,
                "tempo": 120.0
            },
            {
                "start_time": 153.1909090909091,
                "end_time": 153.4431818181818,
                "pitch": 77,
                "velocity": 80,
                "duration": 0.2522727272727252,
                "tempo": 120.0
            },
            {
                "start_time": 153.44545454545454,
                "end_time": 153.56136363636364,
                "pitch": 76,
                "velocity": 80,
                "duration": 0.11590909090909918,
                "tempo": 120.0
            },
            {
                "start_time": 153.56136363636364,
                "end_time": 153.67954545454543,
                "pitch": 77,
                "velocity": 80,
                "duration": 0.11818181818179596,
                "tempo": 120.0
            },
            {
                "start_time": 153.67954545454543,
                "end_time": 154.49090909090907,
                "pitch": 79,
                "velocity": 80,
                "duration": 0.8113636363636374,
                "tempo": 120.0
            },
            {
                "start_time": 154.49090909090907,
                "end_time": 154.575,
                "pitch": 77,
                "velocity": 80,
                "duration": 0.08409090909091788,
                "tempo": 120.0
            },
            {
                "start_time": 154.575,
                "end_time": 154.66136363636363,
                "pitch": 74,
                "velocity": 80,
                "duration": 0.08636363636364308,
                "tempo": 120.0
            },
            {
                "start_time": 154.66136363636363,
                "end_time": 155.12954545454545,
                "pitch": 60,
                "velocity": 80,
                "duration": 0.4681818181818187,
                "tempo": 120.0
            },
            {
                "start_time": 155.12954545454545,
                "end_time": 155.60681818181817,
                "pitch": 60,
                "velocity": 80,
                "duration": 0.4772727272727195,
                "tempo": 120.0
            },
            {
                "start_time": 155.60681818181817,
                "end_time": 156.10227272727272,
                "pitch": 60,
                "velocity": 80,
                "duration": 0.4954545454545496,
                "tempo": 120.0
            },
            {
                "start_time": 156.10227272727272,
                "end_time": 156.5840909090909,
                "pitch": 60,
                "velocity": 80,
                "duration": 0.48181818181816993,
                "tempo": 120.0
            },
            {
                "start_time": 156.58636363636361,
                "end_time": 156.82045454545454,
                "pitch": 60,
                "velocity": 80,
                "duration": 0.23409090909092356,
                "tempo": 120.0
            },
            {
                "start_time": 156.82045454545454,
                "end_time": 157.3090909090909,
                "pitch": 60,
                "velocity": 80,
                "duration": 0.48863636363637397,
                "tempo": 120.0
            },
            {
                "start_time": 157.3090909090909,
                "end_time": 161.15681818181818,
                "pitch": 53,
                "velocity": 80,
                "duration": 3.847727272727269,
                "tempo": 120.0
            },
            {
                "start_time": 161.15681818181818,
                "end_time": 161.28863636363636,
                "pitch": 53,
                "velocity": 80,
                "duration": 0.13181818181817562,
                "tempo": 120.0
            },
            {
                "start_time": 161.29090909090908,
                "end_time": 161.4090909090909,
                "pitch": 53,
                "velocity": 80,
                "duration": 0.11818181818182438,
                "tempo": 120.0
            },
            {
                "start_time": 161.4090909090909,
                "end_time": 161.64545454545453,
                "pitch": 60,
                "velocity": 80,
                "duration": 0.23636363636362034,
                "tempo": 120.0
            },
            {
                "start_time": 161.64545454545453,
                "end_time": 162.375,
                "pitch": 62,
                "velocity": 80,
                "duration": 0.7295454545454731,
                "tempo": 120.0
            },
            {
                "start_time": 162.375,
                "end_time": 163.3340909090909,
                "pitch": 60,
                "velocity": 80,
                "duration": 0.9590909090908895,
                "tempo": 120.0
            },
            {
                "start_time": 163.33636363636361,
                "end_time": 164.79090909090908,
                "pitch": 57,
                "velocity": 80,
                "duration": 1.4545454545454675,
                "tempo": 120.0
            },
            {
                "start_time": 164.7931818181818,
                "end_time": 164.95,
                "pitch": 63,
                "velocity": 80,
                "duration": 0.1568181818181813,
                "tempo": 120.0
            },
            {
                "start_time": 164.95,
                "end_time": 165.0340909090909,
                "pitch": 66,
                "velocity": 80,
                "duration": 0.08409090909091788,
                "tempo": 120.0
            },
            {
                "start_time": 165.0340909090909,
                "end_time": 166.725,
                "pitch": 62,
                "velocity": 80,
                "duration": 1.6909090909090878,
                "tempo": 120.0
            },
            {
                "start_time": 166.725,
                "end_time": 166.96363636363637,
                "pitch": 60,
                "velocity": 80,
                "duration": 0.23863636363637397,
                "tempo": 120.0
            },
            {
                "start_time": 166.9659090909091,
                "end_time": 168.64772727272725,
                "pitch": 59,
                "velocity": 80,
                "duration": 1.6818181818181586,
                "tempo": 120.0
            }
        ],
        "Lead 2 (sawtooth)": [
            {
                "start_time": 68.61363636363636,
                "end_time": 68.73181818181818,
                "pitch": 61,
                "velocity": 80,
                "duration": 0.11818181818182438,
                "tempo": 120.0
            },
            {
                "start_time": 68.73181818181818,
                "end_time": 70.07954545454545,
                "pitch": 63,
                "velocity": 80,
                "duration": 1.347727272727269,
                "tempo": 120.0
            },
            {
                "start_time": 70.07954545454545,
                "end_time": 70.55227272727272,
                "pitch": 65,
                "velocity": 80,
                "duration": 0.4727272727272691,
                "tempo": 120.0
            },
            {
                "start_time": 70.55227272727272,
                "end_time": 70.71363636363635,
                "pitch": 64,
                "velocity": 80,
                "duration": 0.1613636363636317,
                "tempo": 120.0
            },
            {
                "start_time": 70.71363636363635,
                "end_time": 71.2840909090909,
                "pitch": 67,
                "velocity": 80,
                "duration": 0.5704545454545524,
                "tempo": 120.0
            },
            {
                "start_time": 71.2840909090909,
                "end_time": 71.40227272727273,
                "pitch": 72,
                "velocity": 80,
                "duration": 0.11818181818182438,
                "tempo": 120.0
            },
            {
                "start_time": 71.40227272727273,
                "end_time": 71.7590909090909,
                "pitch": 74,
                "velocity": 80,
                "duration": 0.35681818181816993,
                "tempo": 120.0
            },
            {
                "start_time": 71.7590909090909,
                "end_time": 72.24545454545454,
                "pitch": 72,
                "velocity": 80,
                "duration": 0.48636363636363455,
                "tempo": 120.0
            },
            {
                "start_time": 72.24545454545454,
                "end_time": 72.5,
                "pitch": 71,
                "velocity": 80,
                "duration": 0.2545454545454646,
                "tempo": 120.0
            },
            {
                "start_time": 72.5,
                "end_time": 73.225,
                "pitch": 72,
                "velocity": 80,
                "duration": 0.7249999999999943,
                "tempo": 120.0
            },
            {
                "start_time": 73.225,
                "end_time": 75.87045454545454,
                "pitch": 65,
                "velocity": 80,
                "duration": 2.645454545454541,
                "tempo": 120.0
            },
            {
                "start_time": 76.35681818181818,
                "end_time": 76.475,
                "pitch": 61,
                "velocity": 80,
                "duration": 0.11818181818181017,
                "tempo": 120.0
            },
            {
                "start_time": 76.475,
                "end_time": 77.80681818181817,
                "pitch": 63,
                "velocity": 80,
                "duration": 1.3318181818181785,
                "tempo": 120.0
            },
            {
                "start_time": 77.80681818181817,
                "end_time": 78.2840909090909,
                "pitch": 65,
                "velocity": 80,
                "duration": 0.47727272727273373,
                "tempo": 120.0
            },
            {
                "start_time": 78.2840909090909,
                "end_time": 78.45227272727273,
                "pitch": 64,
                "velocity": 80,
                "duration": 0.16818181818182154,
                "tempo": 120.0
            },
            {
                "start_time": 78.45227272727273,
                "end_time": 78.77727272727272,
                "pitch": 67,
                "velocity": 80,
                "duration": 0.32499999999998863,
                "tempo": 120.0
            },
            {
                "start_time": 78.77727272727272,
                "end_time": 79.26136363636363,
                "pitch": 65,
                "velocity": 80,
                "duration": 0.48409090909090935,
                "tempo": 120.0
            },
            {
                "start_time": 79.26136363636363,
                "end_time": 79.49772727272727,
                "pitch": 64,
                "velocity": 80,
                "duration": 0.23636363636364877,
                "tempo": 120.0
            },
            {
                "start_time": 79.49772727272727,
                "end_time": 79.98863636363636,
                "pitch": 62,
                "velocity": 80,
                "duration": 0.49090909090908497,
                "tempo": 120.0
            },
            {
                "start_time": 79.99090909090908,
                "end_time": 83.60681818181818,
                "pitch": 60,
                "velocity": 80,
                "duration": 3.615909090909099,
                "tempo": 120.0
            },
            {
                "start_time": 83.60681818181818,
                "end_time": 83.84772727272727,
                "pitch": 60,
                "velocity": 80,
                "duration": 0.24090909090908497,
                "tempo": 120.0
            },
            {
                "start_time": 83.84772727272727,
                "end_time": 83.98409090909091,
                "pitch": 60,
                "velocity": 80,
                "duration": 0.13636363636364024,
                "tempo": 120.0
            },
            {
                "start_time": 83.98409090909091,
                "end_time": 84.10454545454544,
                "pitch": 62,
                "velocity": 80,
                "duration": 0.12045454545453538,
                "tempo": 120.0
            },
            {
                "start_time": 84.10681818181818,
                "end_time": 84.22045454545454,
                "pitch": 61,
                "velocity": 80,
                "duration": 0.11363636363635976,
                "tempo": 120.0
            },
            {
                "start_time": 84.22045454545454,
                "end_time": 85.53863636363636,
                "pitch": 63,
                "velocity": 80,
                "duration": 1.318181818181813,
                "tempo": 120.0
            },
            {
                "start_time": 85.53863636363636,
                "end_time": 86.02499999999999,
                "pitch": 65,
                "velocity": 80,
                "duration": 0.48636363636363455,
                "tempo": 120.0
            },
            {
                "start_time": 86.02499999999999,
                "end_time": 86.19090909090909,
                "pitch": 64,
                "velocity": 80,
                "duration": 0.16590909090909634,
                "tempo": 120.0
            },
            {
                "start_time": 86.19090909090909,
                "end_time": 86.75454545454545,
                "pitch": 67,
                "velocity": 80,
                "duration": 0.5636363636363626,
                "tempo": 120.0
            },
            {
                "start_time": 86.75454545454545,
                "end_time": 86.87272727272727,
                "pitch": 72,
                "velocity": 80,
                "duration": 0.11818181818182438,
                "tempo": 120.0
            },
            {
                "start_time": 86.87272727272727,
                "end_time": 87.24545454545454,
                "pitch": 74,
                "velocity": 80,
                "duration": 0.3727272727272606,
                "tempo": 120.0
            },
            {
                "start_time": 87.24545454545454,
                "end_time": 87.725,
                "pitch": 72,
                "velocity": 80,
                "duration": 0.47954545454545894,
                "tempo": 120.0
            },
            {
                "start_time": 87.725,
                "end_time": 87.95227272727273,
                "pitch": 71,
                "velocity": 80,
                "duration": 0.22727272727273373,
                "tempo": 120.0
            },
            {
                "start_time": 87.95227272727273,
                "end_time": 88.67954545454545,
                "pitch": 72,
                "velocity": 80,
                "duration": 0.7272727272727195,
                "tempo": 120.0
            },
            {
                "start_time": 88.67954545454545,
                "end_time": 91.34318181818182,
                "pitch": 65,
                "velocity": 80,
                "duration": 2.663636363636371,
                "tempo": 120.0
            },
            {
                "start_time": 91.8409090909091,
                "end_time": 91.95681818181818,
                "pitch": 61,
                "velocity": 80,
                "duration": 0.11590909090908497,
                "tempo": 120.0
            },
            {
                "start_time": 91.95681818181818,
                "end_time": 93.27499999999999,
                "pitch": 63,
                "velocity": 80,
                "duration": 1.318181818181813,
                "tempo": 120.0
            },
            {
                "start_time": 93.27499999999999,
                "end_time": 93.77272727272727,
                "pitch": 65,
                "velocity": 80,
                "duration": 0.4977272727272748,
                "tempo": 120.0
            },
            {
                "start_time": 93.77272727272727,
                "end_time": 93.92045454545455,
                "pitch": 64,
                "velocity": 80,
                "duration": 0.14772727272728048,
                "tempo": 120.0
            },
            {
                "start_time": 93.92045454545455,
                "end_time": 94.2590909090909,
                "pitch": 67,
                "velocity": 80,
                "duration": 0.3386363636363541,
                "tempo": 120.0
            },
            {
                "start_time": 94.2590909090909,
                "end_time": 94.73636363636363,
                "pitch": 65,
                "velocity": 80,
                "duration": 0.47727272727273373,
                "tempo": 120.0
            },
            {
                "start_time": 94.73636363636363,
                "end_time": 94.97727272727272,
                "pitch": 64,
                "velocity": 80,
                "duration": 0.24090909090908497,
                "tempo": 120.0
            },
            {
                "start_time": 94.97727272727272,
                "end_time": 95.4590909090909,
                "pitch": 62,
                "velocity": 80,
                "duration": 0.48181818181818414,
                "tempo": 120.0
            },
            {
                "start_time": 95.4590909090909,
                "end_time": 99.1,
                "pitch": 60,
                "velocity": 80,
                "duration": 3.6409090909090907,
                "tempo": 120.0
            },
            {
                "start_time": 99.1,
                "end_time": 99.33636363636363,
                "pitch": 60,
                "velocity": 80,
                "duration": 0.23636363636363455,
                "tempo": 120.0
            },
            {
                "start_time": 99.33863636363635,
                "end_time": 99.45454545454545,
                "pitch": 60,
                "velocity": 80,
                "duration": 0.11590909090909918,
                "tempo": 120.0
            },
            {
                "start_time": 99.45454545454545,
                "end_time": 99.57272727272726,
                "pitch": 62,
                "velocity": 80,
                "duration": 0.11818181818181017,
                "tempo": 120.0
            },
            {
                "start_time": 99.57272727272726,
                "end_time": 99.73409090909091,
                "pitch": 62,
                "velocity": 80,
                "duration": 0.16136363636364592,
                "tempo": 120.0
            },
            {
                "start_time": 99.73409090909091,
                "end_time": 100.53181818181818,
                "pitch": 64,
                "velocity": 80,
                "duration": 0.797727272727272,
                "tempo": 120.0
            },
            {
                "start_time": 100.5340909090909,
                "end_time": 101.51363636363637,
                "pitch": 64,
                "velocity": 80,
                "duration": 0.9795454545454589,
                "tempo": 120.0
            },
            {
                "start_time": 101.51363636363637,
                "end_time": 102.95454545454545,
                "pitch": 60,
                "velocity": 80,
                "duration": 1.4409090909090878,
                "tempo": 120.0
            },
            {
                "start_time": 102.95454545454545,
                "end_time": 103.07045454545454,
                "pitch": 65,
                "velocity": 80,
                "duration": 0.11590909090908497,
                "tempo": 120.0
            },
            {
                "start_time": 103.07045454545454,
                "end_time": 103.18863636363636,
                "pitch": 68,
                "velocity": 80,
                "duration": 0.11818181818182438,
                "tempo": 120.0
            },
            {
                "start_time": 103.18863636363636,
                "end_time": 106.82045454545454,
                "pitch": 67,
                "velocity": 80,
                "duration": 3.6318181818181756,
                "tempo": 120.0
            },
            {
                "start_time": 169.14545454545453,
                "end_time": 169.29090909090908,
                "pitch": 62,
                "velocity": 80,
                "duration": 0.14545454545455527,
                "tempo": 120.0
            },
            {
                "start_time": 169.29090909090908,
                "end_time": 170.08636363636361,
                "pitch": 64,
                "velocity": 80,
                "duration": 0.7954545454545325,
                "tempo": 120.0
            },
            {
                "start_time": 170.08863636363637,
                "end_time": 171.07045454545454,
                "pitch": 64,
                "velocity": 80,
                "duration": 0.9818181818181699,
                "tempo": 120.0
            },
            {
                "start_time": 171.07045454545454,
                "end_time": 172.5,
                "pitch": 60,
                "velocity": 80,
                "duration": 1.4295454545454618,
                "tempo": 120.0
            },
            {
                "start_time": 172.50227272727273,
                "end_time": 172.62045454545455,
                "pitch": 65,
                "velocity": 80,
                "duration": 0.11818181818182438,
                "tempo": 120.0
            },
            {
                "start_time": 172.62045454545455,
                "end_time": 172.7590909090909,
                "pitch": 68,
                "velocity": 80,
                "duration": 0.13863636363635123,
                "tempo": 120.0
            },
            {
                "start_time": 172.7590909090909,
                "end_time": 176.39090909090908,
                "pitch": 67,
                "velocity": 80,
                "duration": 3.6318181818181756,
                "tempo": 120.0
            }
        ]
    }
}