{
    "track_id": "09 Change 3",
    "mood": "relaxed",
    "instruments": {
        "Acoustic Grand Piano": [
            {
                "start_time": 0.0022727272727272726,
                "end_time": 0.06363636363636363,
                "pitch": 79,
                "velocity": 51,
                "duration": 0.061363636363636356,
                "tempo": 120.0
            },
            {
                "start_time": 0.06363636363636363,
                "end_time": 0.6227272727272727,
                "pitch": 81,
                "velocity": 51,
                "duration": 0.5590909090909091,
                "tempo": 120.0
            },
            {
                "start_time": 0.6227272727272727,
                "end_time": 0.825,
                "pitch": 81,
                "velocity": 51,
                "duration": 0.20227272727272727,
                "tempo": 120.0
            },
            {
                "start_time": 0.825,
                "end_time": 1.0295454545454545,
                "pitch": 81,
                "velocity": 51,
                "duration": 0.20454545454545459,
                "tempo": 120.0
            },
            {
                "start_time": 1.0295454545454545,
                "end_time": 1.2340909090909091,
                "pitch": 78,
                "velocity": 51,
                "duration": 0.20454545454545459,
                "tempo": 120.0
            },
            {
                "start_time": 1.2340909090909091,
                "end_time": 1.8363636363636362,
                "pitch": 81,
                "velocity": 51,
                "duration": 0.6022727272727271,
                "tempo": 120.0
            },
            {
                "start_time": 1.8363636363636362,
                "end_time": 2.036363636363636,
                "pitch": 81,
                "velocity": 51,
                "duration": 0.19999999999999996,
                "tempo": 120.0
            },
            {
                "start_time": 2.036363636363636,
                "end_time": 2.2386363636363633,
                "pitch": 83,
                "velocity": 51,
                "duration": 0.20227272727272716,
                "tempo": 120.0
            },
            {
                "start_time": 2.2386363636363633,
                "end_time": 2.443181818181818,
                "pitch": 85,
                "velocity": 51,
                "duration": 0.20454545454545459,
                "tempo": 120.0
            },
            {
                "start_time": 2.443181818181818,
                "end_time": 2.745454545454545,
                "pitch": 85,
                "velocity": 51,
                "duration": 0.30227272727272725,
                "tempo": 120.0
            },
            {
                "start_time": 2.745454545454545,
                "end_time": 3.0477272727272724,
                "pitch": 78,
                "velocity": 51,
                "duration": 0.30227272727272725,
                "tempo": 120.0
            },
            {
                "start_time": 1.2340909090909091,
                "end_time": 3.0477272727272724,
                "pitch": 90,
                "velocity": 51,
                "duration": 1.8136363636363633,
                "tempo": 120.0
            },
            {
                "start_time": 3.0477272727272724,
                "end_time": 3.2477272727272726,
                "pitch": 80,
                "velocity": 51,
                "duration": 0.20000000000000018,
                "tempo": 120.0
            },
            {
                "start_time": 3.2477272727272726,
                "end_time": 3.4477272727272728,
                "pitch": 80,
                "velocity": 51,
                "duration": 0.20000000000000018,
                "tempo": 120.0
            },
            {
                "start_time": 2.036363636363636,
                "end_time": 3.4477272727272728,
                "pitch": 81,
                "velocity": 51,
                "duration": 1.4113636363636366,
                "tempo": 120.0
            },
            {
                "start_time": 2.2386363636363633,
                "end_time": 3.65,
                "pitch": 83,
                "velocity": 51,
                "duration": 1.4113636363636366,
                "tempo": 120.0
            },
            {
                "start_time": 3.4477272727272728,
                "end_time": 3.65,
                "pitch": 83,
                "velocity": 51,
                "duration": 0.20227272727272716,
                "tempo": 120.0
            }
        ],
        "Vibraphone": [
            {
                "start_time": 0.0022727272727272726,
                "end_time": 0.06363636363636363,
                "pitch": 67,
                "velocity": 64,
                "duration": 0.061363636363636356,
                "tempo": 120.0
            },
            {
                "start_time": 0.06363636363636363,
                "end_time": 0.6227272727272727,
                "pitch": 69,
                "velocity": 64,
                "duration": 0.5590909090909091,
                "tempo": 120.0
            },
            {
                "start_time": 0.6227272727272727,
                "end_time": 0.825,
                "pitch": 69,
                "velocity": 64,
                "duration": 0.20227272727272727,
                "tempo": 120.0
            },
            {
                "start_time": 0.825,
                "end_time": 1.0295454545454545,
                "pitch": 69,
                "velocity": 64,
                "duration": 0.20454545454545459,
                "tempo": 120.0
            },
            {
                "start_time": 1.0295454545454545,
                "end_time": 1.2340909090909091,
                "pitch": 66,
                "velocity": 64,
                "duration": 0.20454545454545459,
                "tempo": 120.0
            },
            {
                "start_time": 1.2340909090909091,
                "end_time": 1.8363636363636362,
                "pitch": 69,
                "velocity": 64,
                "duration": 0.6022727272727271,
                "tempo": 120.0
            },
            {
                "start_time": 1.8363636363636362,
                "end_time": 2.0386363636363636,
                "pitch": 69,
                "velocity": 64,
                "duration": 0.20227272727272738,
                "tempo": 120.0
            },
            {
                "start_time": 2.0386363636363636,
                "end_time": 2.1045454545454545,
                "pitch": 69,
                "velocity": 64,
                "duration": 0.06590909090909092,
                "tempo": 120.0
            },
            {
                "start_time": 2.1045454545454545,
                "end_time": 2.2386363636363633,
                "pitch": 71,
                "velocity": 64,
                "duration": 0.13409090909090882,
                "tempo": 120.0
            },
            {
                "start_time": 2.2409090909090907,
                "end_time": 2.443181818181818,
                "pitch": 73,
                "velocity": 64,
                "duration": 0.20227272727272716,
                "tempo": 120.0
            },
            {
                "start_time": 2.443181818181818,
                "end_time": 2.745454545454545,
                "pitch": 73,
                "velocity": 64,
                "duration": 0.30227272727272725,
                "tempo": 120.0
            },
            {
                "start_time": 2.745454545454545,
                "end_time": 3.0477272727272724,
                "pitch": 66,
                "velocity": 64,
                "duration": 0.30227272727272725,
                "tempo": 120.0
            },
            {
                "start_time": 1.2340909090909091,
                "end_time": 3.0477272727272724,
                "pitch": 78,
                "velocity": 64,
                "duration": 1.8136363636363633,
                "tempo": 120.0
            },
            {
                "start_time": 3.0477272727272724,
                "end_time": 3.2477272727272726,
                "pitch": 68,
                "velocity": 64,
                "duration": 0.20000000000000018,
                "tempo": 120.0
            },
            {
                "start_time": 3.2477272727272726,
                "end_time": 3.4477272727272728,
                "pitch": 68,
                "velocity": 64,
                "duration": 0.20000000000000018,
                "tempo": 120.0
            },
            {
                "start_time": 3.4477272727272728,
                "end_time": 3.5136363636363637,
                "pitch": 69,
                "velocity": 64,
                "duration": 0.06590909090909092,
                "tempo": 120.0
            },
            {
                "start_time": 2.2409090909090907,
                "end_time": 3.65,
                "pitch": 71,
                "velocity": 64,
                "duration": 1.4090909090909092,
                "tempo": 120.0
            },
            {
                "start_time": 3.5136363636363637,
                "end_time": 3.65,
                "pitch": 71,
                "velocity": 64,
                "duration": 0.13636363636363624,
                "tempo": 120.0
            }
        ],
        "Acoustic Bass": [
            {
                "start_time": 0.004545454545454545,
                "end_time": 0.3181818181818182,
                "pitch": 45,
                "velocity": 51,
                "duration": 0.31363636363636366,
                "tempo": 120.0
            },
            {
                "start_time": 0.3181818181818182,
                "end_time": 0.6227272727272727,
                "pitch": 45,
                "velocity": 51,
                "duration": 0.3045454545454545,
                "tempo": 120.0
            },
            {
                "start_time": 0.6227272727272727,
                "end_time": 0.9272727272727272,
                "pitch": 45,
                "velocity": 51,
                "duration": 0.30454545454545456,
                "tempo": 120.0
            },
            {
                "start_time": 0.9272727272727272,
                "end_time": 1.2363636363636363,
                "pitch": 45,
                "velocity": 51,
                "duration": 0.3090909090909091,
                "tempo": 120.0
            },
            {
                "start_time": 1.2363636363636363,
                "end_time": 1.534090909090909,
                "pitch": 42,
                "velocity": 51,
                "duration": 0.2977272727272726,
                "tempo": 120.0
            },
            {
                "start_time": 1.534090909090909,
                "end_time": 1.8363636363636362,
                "pitch": 42,
                "velocity": 51,
                "duration": 0.30227272727272725,
                "tempo": 120.0
            },
            {
                "start_time": 1.8363636363636362,
                "end_time": 2.1386363636363637,
                "pitch": 42,
                "velocity": 51,
                "duration": 0.30227272727272747,
                "tempo": 120.0
            },
            {
                "start_time": 2.1386363636363637,
                "end_time": 2.443181818181818,
                "pitch": 42,
                "velocity": 51,
                "duration": 0.30454545454545423,
                "tempo": 120.0
            },
            {
                "start_time": 2.443181818181818,
                "end_time": 2.745454545454545,
                "pitch": 38,
                "velocity": 51,
                "duration": 0.30227272727272725,
                "tempo": 120.0
            },
            {
                "start_time": 2.745454545454545,
                "end_time": 3.05,
                "pitch": 38,
                "velocity": 51,
                "duration": 0.3045454545454547,
                "tempo": 120.0
            },
            {
                "start_time": 3.05,
                "end_time": 3.3499999999999996,
                "pitch": 40,
                "velocity": 51,
                "duration": 0.2999999999999998,
                "tempo": 120.0
            },
            {
                "start_time": 3.3499999999999996,
                "end_time": 3.65,
                "pitch": 40,
                "velocity": 51,
                "duration": 0.30000000000000027,
                "tempo": 120.0
            }
        ]
    }
}