{
    "track_id": "10 Ending",
    "mood": "relaxed",
    "instruments": {
        "Electric Piano 1": [
            {
                "start_time": 0.015909090909090907,
                "end_time": 1.940909090909091,
                "pitch": 48,
                "velocity": 101,
                "duration": 1.925,
                "tempo": 120.0
            },
            {
                "start_time": 1.940909090909091,
                "end_time": 3.852272727272727,
                "pitch": 41,
                "velocity": 101,
                "duration": 1.9113636363636362,
                "tempo": 120.0
            },
            {
                "start_time": 3.852272727272727,
                "end_time": 5.786363636363636,
                "pitch": 43,
                "velocity": 101,
                "duration": 1.934090909090909,
                "tempo": 120.0
            },
            {
                "start_time": 5.786363636363636,
                "end_time": 7.247727272727272,
                "pitch": 48,
                "velocity": 101,
                "duration": 1.461363636363636,
                "tempo": 120.0
            },
            {
                "start_time": 7.247727272727272,
                "end_time": 7.725,
                "pitch": 47,
                "velocity": 101,
                "duration": 0.4772727272727275,
                "tempo": 120.0
            },
            {
                "start_time": 7.725,
                "end_time": 9.670454545454545,
                "pitch": 45,
                "velocity": 101,
                "duration": 1.9454545454545453,
                "tempo": 120.0
            },
            {
                "start_time": 9.670454545454545,
                "end_time": 11.593181818181817,
                "pitch": 41,
                "velocity": 101,
                "duration": 1.922727272727272,
                "tempo": 120.0
            },
            {
                "start_time": 11.593181818181817,
                "end_time": 13.527272727272727,
                "pitch": 42,
                "velocity": 101,
                "duration": 1.9340909090909104,
                "tempo": 120.0
            },
            {
                "start_time": 13.527272727272727,
                "end_time": 15.454545454545453,
                "pitch": 43,
                "velocity": 101,
                "duration": 1.927272727272726,
                "tempo": 120.0
            },
            {
                "start_time": 15.454545454545453,
                "end_time": 17.393181818181816,
                "pitch": 48,
                "velocity": 101,
                "duration": 1.9386363636363626,
                "tempo": 120.0
            },
            {
                "start_time": 17.393181818181816,
                "end_time": 19.34090909090909,
                "pitch": 41,
                "velocity": 101,
                "duration": 1.947727272727274,
                "tempo": 120.0
            },
            {
                "start_time": 19.34090909090909,
                "end_time": 21.268181818181816,
                "pitch": 42,
                "velocity": 101,
                "duration": 1.927272727272726,
                "tempo": 120.0
            },
            {
                "start_time": 21.268181818181816,
                "end_time": 23.19772727272727,
                "pitch": 43,
                "velocity": 101,
                "duration": 1.9295454545454547,
                "tempo": 120.0
            },
            {
                "start_time": 23.19772727272727,
                "end_time": 25.125,
                "pitch": 48,
                "velocity": 101,
                "duration": 1.9272727272727295,
                "tempo": 120.0
            },
            {
                "start_time": 25.125,
                "end_time": 27.068181818181817,
                "pitch": 41,
                "velocity": 101,
                "duration": 1.9431818181818166,
                "tempo": 120.0
            },
            {
                "start_time": 27.068181818181817,
                "end_time": 29.01590909090909,
                "pitch": 43,
                "velocity": 101,
                "duration": 1.947727272727274,
                "tempo": 120.0
            },
            {
                "start_time": 29.01590909090909,
                "end_time": 30.459090909090907,
                "pitch": 48,
                "velocity": 101,
                "duration": 1.4431818181818166,
                "tempo": 120.0
            },
            {
                "start_time": 30.459090909090907,
                "end_time": 30.945454545454545,
                "pitch": 47,
                "velocity": 101,
                "duration": 0.4863636363636381,
                "tempo": 120.0
            },
            {
                "start_time": 30.945454545454545,
                "end_time": 32.877272727272725,
                "pitch": 45,
                "velocity": 101,
                "duration": 1.9318181818181799,
                "tempo": 120.0
            },
            {
                "start_time": 32.877272727272725,
                "end_time": 34.8,
                "pitch": 41,
                "velocity": 101,
                "duration": 1.922727272727272,
                "tempo": 120.0
            },
            {
                "start_time": 34.8,
                "end_time": 36.74090909090909,
                "pitch": 42,
                "velocity": 101,
                "duration": 1.940909090909095,
                "tempo": 120.0
            },
            {
                "start_time": 36.74318181818182,
                "end_time": 38.68181818181818,
                "pitch": 43,
                "velocity": 101,
                "duration": 1.9386363636363626,
                "tempo": 120.0
            },
            {
                "start_time": 38.68181818181818,
                "end_time": 40.60909090909091,
                "pitch": 45,
                "velocity": 101,
                "duration": 1.9272727272727295,
                "tempo": 120.0
            },
            {
                "start_time": 40.60909090909091,
                "end_time": 42.525,
                "pitch": 43,
                "velocity": 101,
                "duration": 1.9159090909090892,
                "tempo": 120.0
            },
            {
                "start_time": 42.525,
                "end_time": 44.459090909090904,
                "pitch": 42,
                "velocity": 101,
                "duration": 1.934090909090905,
                "tempo": 120.0
            },
            {
                "start_time": 44.459090909090904,
                "end_time": 46.393181818181816,
                "pitch": 43,
                "velocity": 101,
                "duration": 1.9340909090909122,
                "tempo": 120.0
            },
            {
                "start_time": 46.39545454545454,
                "end_time": 48.334090909090904,
                "pitch": 44,
                "velocity": 101,
                "duration": 1.9386363636363626,
                "tempo": 120.0
            },
            {
                "start_time": 48.334090909090904,
                "end_time": 50.26136363636363,
                "pitch": 45,
                "velocity": 101,
                "duration": 1.9272727272727295,
                "tempo": 120.0
            },
            {
                "start_time": 50.26136363636363,
                "end_time": 52.184090909090905,
                "pitch": 47,
                "velocity": 101,
                "duration": 1.922727272727272,
                "tempo": 120.0
            },
            {
                "start_time": 52.18636363636363,
                "end_time": 54.10454545454545,
                "pitch": 48,
                "velocity": 101,
                "duration": 1.9181818181818215,
                "tempo": 120.0
            },
            {
                "start_time": 54.10454545454545,
                "end_time": 56.04545454545454,
                "pitch": 50,
                "velocity": 101,
                "duration": 1.9409090909090878,
                "tempo": 120.0
            },
            {
                "start_time": 56.04545454545454,
                "end_time": 57.990909090909085,
                "pitch": 43,
                "velocity": 101,
                "duration": 1.9454545454545453,
                "tempo": 120.0
            },
            {
                "start_time": 57.990909090909085,
                "end_time": 59.90681818181818,
                "pitch": 43,
                "velocity": 101,
                "duration": 1.9159090909090963,
                "tempo": 120.0
            },
            {
                "start_time": 59.90681818181818,
                "end_time": 59.90909090909091,
                "pitch": 48,
                "velocity": 101,
                "duration": 0.0022727272727252057,
                "tempo": 120.0
            }
        ],
        "Acoustic Grand Piano": [
            {
                "start_time": 0.48636363636363633,
                "end_time": 0.7318181818181818,
                "pitch": 64,
                "velocity": 25,
                "duration": 0.24545454545454548,
                "tempo": 120.0
            },
            {
                "start_time": 0.7318181818181818,
                "end_time": 0.9613636363636363,
                "pitch": 60,
                "velocity": 25,
                "duration": 0.2295454545454545,
                "tempo": 120.0
            },
            {
                "start_time": 0.9636363636363636,
                "end_time": 1.2136363636363636,
                "pitch": 55,
                "velocity": 25,
                "duration": 0.25,
                "tempo": 120.0
            },
            {
                "start_time": 1.2136363636363636,
                "end_time": 1.4454545454545453,
                "pitch": 60,
                "velocity": 25,
                "duration": 0.2318181818181817,
                "tempo": 120.0
            },
            {
                "start_time": 1.4477272727272728,
                "end_time": 1.6863636363636363,
                "pitch": 67,
                "velocity": 25,
                "duration": 0.23863636363636354,
                "tempo": 120.0
            },
            {
                "start_time": 1.6863636363636363,
                "end_time": 1.9431818181818181,
                "pitch": 60,
                "velocity": 25,
                "duration": 0.25681818181818183,
                "tempo": 120.0
            },
            {
                "start_time": 1.9431818181818181,
                "end_time": 2.175,
                "pitch": 55,
                "velocity": 25,
                "duration": 0.2318181818181817,
                "tempo": 120.0
            },
            {
                "start_time": 2.175,
                "end_time": 2.425,
                "pitch": 60,
                "velocity": 25,
                "duration": 0.25,
                "tempo": 120.0
            },
            {
                "start_time": 2.4272727272727272,
                "end_time": 2.659090909090909,
                "pitch": 67,
                "velocity": 25,
                "duration": 0.23181818181818192,
                "tempo": 120.0
            },
            {
                "start_time": 2.659090909090909,
                "end_time": 2.893181818181818,
                "pitch": 60,
                "velocity": 25,
                "duration": 0.2340909090909089,
                "tempo": 120.0
            },
            {
                "start_time": 2.893181818181818,
                "end_time": 3.1386363636363637,
                "pitch": 55,
                "velocity": 25,
                "duration": 0.2454545454545456,
                "tempo": 120.0
            },
            {
                "start_time": 3.1409090909090907,
                "end_time": 3.370454545454545,
                "pitch": 60,
                "velocity": 25,
                "duration": 0.2295454545454545,
                "tempo": 120.0
            },
            {
                "start_time": 3.370454545454545,
                "end_time": 3.620454545454545,
                "pitch": 65,
                "velocity": 25,
                "duration": 0.25,
                "tempo": 120.0
            },
            {
                "start_time": 3.620454545454545,
                "end_time": 3.8545454545454545,
                "pitch": 60,
                "velocity": 25,
                "duration": 0.23409090909090935,
                "tempo": 120.0
            },
            {
                "start_time": 3.8545454545454545,
                "end_time": 4.086363636363636,
                "pitch": 64,
                "velocity": 25,
                "duration": 0.23181818181818148,
                "tempo": 120.0
            },
            {
                "start_time": 4.086363636363636,
                "end_time": 4.336363636363636,
                "pitch": 60,
                "velocity": 25,
                "duration": 0.25,
                "tempo": 120.0
            },
            {
                "start_time": 4.338636363636364,
                "end_time": 4.577272727272727,
                "pitch": 62,
                "velocity": 25,
                "duration": 0.2386363636363633,
                "tempo": 120.0
            },
            {
                "start_time": 4.577272727272727,
                "end_time": 4.834090909090909,
                "pitch": 59,
                "velocity": 25,
                "duration": 0.25681818181818183,
                "tempo": 120.0
            },
            {
                "start_time": 4.834090909090909,
                "end_time": 5.068181818181818,
                "pitch": 55,
                "velocity": 25,
                "duration": 0.23409090909090935,
                "tempo": 120.0
            },
            {
                "start_time": 5.068181818181818,
                "end_time": 5.304545454545455,
                "pitch": 59,
                "velocity": 25,
                "duration": 0.23636363636363633,
                "tempo": 120.0
            },
            {
                "start_time": 5.304545454545455,
                "end_time": 5.554545454545455,
                "pitch": 65,
                "velocity": 25,
                "duration": 0.25,
                "tempo": 120.0
            },
            {
                "start_time": 5.554545454545455,
                "end_time": 5.788636363636363,
                "pitch": 59,
                "velocity": 25,
                "duration": 0.23409090909090846,
                "tempo": 120.0
            },
            {
                "start_time": 5.788636363636363,
                "end_time": 6.034090909090909,
                "pitch": 55,
                "velocity": 25,
                "duration": 0.24545454545454604,
                "tempo": 120.0
            },
            {
                "start_time": 6.034090909090909,
                "end_time": 6.263636363636364,
                "pitch": 59,
                "velocity": 25,
                "duration": 0.2295454545454545,
                "tempo": 120.0
            },
            {
                "start_time": 6.263636363636364,
                "end_time": 6.504545454545454,
                "pitch": 65,
                "velocity": 25,
                "duration": 0.2409090909090903,
                "tempo": 120.0
            },
            {
                "start_time": 6.504545454545454,
                "end_time": 6.759090909090909,
                "pitch": 60,
                "velocity": 25,
                "duration": 0.25454545454545485,
                "tempo": 120.0
            },
            {
                "start_time": 6.761363636363636,
                "end_time": 6.995454545454545,
                "pitch": 55,
                "velocity": 25,
                "duration": 0.23409090909090935,
                "tempo": 120.0
            },
            {
                "start_time": 6.995454545454545,
                "end_time": 7.247727272727272,
                "pitch": 60,
                "velocity": 25,
                "duration": 0.252272727272727,
                "tempo": 120.0
            },
            {
                "start_time": 7.247727272727272,
                "end_time": 7.486363636363636,
                "pitch": 64,
                "velocity": 25,
                "duration": 0.2386363636363642,
                "tempo": 120.0
            },
            {
                "start_time": 7.486363636363636,
                "end_time": 7.727272727272727,
                "pitch": 60,
                "velocity": 25,
                "duration": 0.2409090909090903,
                "tempo": 120.0
            },
            {
                "start_time": 7.727272727272727,
                "end_time": 7.965909090909091,
                "pitch": 62,
                "velocity": 25,
                "duration": 0.2386363636363642,
                "tempo": 120.0
            },
            {
                "start_time": 7.968181818181818,
                "end_time": 8.190909090909091,
                "pitch": 59,
                "velocity": 25,
                "duration": 0.22272727272727355,
                "tempo": 120.0
            },
            {
                "start_time": 8.190909090909091,
                "end_time": 8.447727272727272,
                "pitch": 60,
                "velocity": 25,
                "duration": 0.25681818181818095,
                "tempo": 120.0
            },
            {
                "start_time": 8.447727272727272,
                "end_time": 8.686363636363636,
                "pitch": 57,
                "velocity": 25,
                "duration": 0.2386363636363633,
                "tempo": 120.0
            },
            {
                "start_time": 8.686363636363636,
                "end_time": 8.922727272727272,
                "pitch": 53,
                "velocity": 25,
                "duration": 0.23636363636363633,
                "tempo": 120.0
            },
            {
                "start_time": 8.922727272727272,
                "end_time": 9.174999999999999,
                "pitch": 57,
                "velocity": 25,
                "duration": 0.252272727272727,
                "tempo": 120.0
            },
            {
                "start_time": 9.174999999999999,
                "end_time": 9.413636363636364,
                "pitch": 64,
                "velocity": 25,
                "duration": 0.2386363636363651,
                "tempo": 120.0
            },
            {
                "start_time": 9.413636363636364,
                "end_time": 9.672727272727272,
                "pitch": 57,
                "velocity": 25,
                "duration": 0.25909090909090793,
                "tempo": 120.0
            },
            {
                "start_time": 10.14090909090909,
                "end_time": 10.388636363636364,
                "pitch": 64,
                "velocity": 25,
                "duration": 0.24772727272727302,
                "tempo": 120.0
            },
            {
                "start_time": 10.388636363636364,
                "end_time": 10.618181818181817,
                "pitch": 57,
                "velocity": 25,
                "duration": 0.2295454545454536,
                "tempo": 120.0
            },
            {
                "start_time": 10.618181818181817,
                "end_time": 10.870454545454544,
                "pitch": 53,
                "velocity": 25,
                "duration": 0.252272727272727,
                "tempo": 120.0
            },
            {
                "start_time": 10.870454545454544,
                "end_time": 11.10681818181818,
                "pitch": 57,
                "velocity": 25,
                "duration": 0.23636363636363633,
                "tempo": 120.0
            },
            {
                "start_time": 11.10681818181818,
                "end_time": 11.34090909090909,
                "pitch": 62,
                "velocity": 25,
                "duration": 0.23409090909090935,
                "tempo": 120.0
            },
            {
                "start_time": 11.34090909090909,
                "end_time": 11.593181818181817,
                "pitch": 57,
                "velocity": 25,
                "duration": 0.252272727272727,
                "tempo": 120.0
            },
            {
                "start_time": 11.595454545454546,
                "end_time": 11.834090909090909,
                "pitch": 60,
                "velocity": 25,
                "duration": 0.2386363636363633,
                "tempo": 120.0
            },
            {
                "start_time": 11.834090909090909,
                "end_time": 12.088636363636363,
                "pitch": 57,
                "velocity": 25,
                "duration": 0.25454545454545396,
                "tempo": 120.0
            },
            {
                "start_time": 12.088636363636363,
                "end_time": 12.322727272727272,
                "pitch": 60,
                "velocity": 25,
                "duration": 0.23409090909090935,
                "tempo": 120.0
            },
            {
                "start_time": 12.322727272727272,
                "end_time": 12.556818181818182,
                "pitch": 57,
                "velocity": 25,
                "duration": 0.23409090909090935,
                "tempo": 120.0
            },
            {
                "start_time": 12.556818181818182,
                "end_time": 12.802272727272726,
                "pitch": 54,
                "velocity": 25,
                "duration": 0.24545454545454426,
                "tempo": 120.0
            },
            {
                "start_time": 12.802272727272726,
                "end_time": 13.034090909090908,
                "pitch": 57,
                "velocity": 25,
                "duration": 0.23181818181818237,
                "tempo": 120.0
            },
            {
                "start_time": 13.034090909090908,
                "end_time": 13.288636363636362,
                "pitch": 60,
                "velocity": 25,
                "duration": 0.25454545454545396,
                "tempo": 120.0
            },
            {
                "start_time": 13.288636363636362,
                "end_time": 13.529545454545454,
                "pitch": 57,
                "velocity": 25,
                "duration": 0.24090909090909207,
                "tempo": 120.0
            },
            {
                "start_time": 13.529545454545454,
                "end_time": 13.763636363636364,
                "pitch": 54,
                "velocity": 25,
                "duration": 0.23409090909090935,
                "tempo": 120.0
            },
            {
                "start_time": 13.763636363636364,
                "end_time": 14.01590909090909,
                "pitch": 57,
                "velocity": 25,
                "duration": 0.252272727272727,
                "tempo": 120.0
            },
            {
                "start_time": 14.01590909090909,
                "end_time": 14.25,
                "pitch": 62,
                "velocity": 25,
                "duration": 0.23409090909090935,
                "tempo": 120.0
            },
            {
                "start_time": 14.25,
                "end_time": 14.5,
                "pitch": 60,
                "velocity": 25,
                "duration": 0.25,
                "tempo": 120.0
            },
            {
                "start_time": 14.5,
                "end_time": 14.738636363636363,
                "pitch": 55,
                "velocity": 25,
                "duration": 0.2386363636363633,
                "tempo": 120.0
            },
            {
                "start_time": 14.74090909090909,
                "end_time": 14.979545454545454,
                "pitch": 60,
                "velocity": 25,
                "duration": 0.2386363636363633,
                "tempo": 120.0
            },
            {
                "start_time": 14.979545454545454,
                "end_time": 15.225,
                "pitch": 62,
                "velocity": 25,
                "duration": 0.24545454545454604,
                "tempo": 120.0
            },
            {
                "start_time": 15.225,
                "end_time": 15.45681818181818,
                "pitch": 59,
                "velocity": 25,
                "duration": 0.2318181818181806,
                "tempo": 120.0
            },
            {
                "start_time": 15.45681818181818,
                "end_time": 15.70681818181818,
                "pitch": 55,
                "velocity": 25,
                "duration": 0.25,
                "tempo": 120.0
            },
            {
                "start_time": 15.709090909090909,
                "end_time": 15.943181818181817,
                "pitch": 59,
                "velocity": 25,
                "duration": 0.23409090909090757,
                "tempo": 120.0
            },
            {
                "start_time": 15.943181818181817,
                "end_time": 16.177272727272726,
                "pitch": 72,
                "velocity": 25,
                "duration": 0.23409090909090935,
                "tempo": 120.0
            },
            {
                "start_time": 16.177272727272726,
                "end_time": 16.427272727272726,
                "pitch": 67,
                "velocity": 25,
                "duration": 0.25,
                "tempo": 120.0
            },
            {
                "start_time": 16.427272727272726,
                "end_time": 16.663636363636364,
                "pitch": 64,
                "velocity": 25,
                "duration": 0.2363636363636381,
                "tempo": 120.0
            },
            {
                "start_time": 16.663636363636364,
                "end_time": 16.91590909090909,
                "pitch": 67,
                "velocity": 25,
                "duration": 0.2522727272727252,
                "tempo": 120.0
            },
            {
                "start_time": 16.91590909090909,
                "end_time": 17.154545454545453,
                "pitch": 72,
                "velocity": 25,
                "duration": 0.2386363636363633,
                "tempo": 120.0
            },
            {
                "start_time": 17.154545454545453,
                "end_time": 17.393181818181816,
                "pitch": 76,
                "velocity": 25,
                "duration": 0.2386363636363633,
                "tempo": 120.0
            },
            {
                "start_time": 17.395454545454545,
                "end_time": 17.64090909090909,
                "pitch": 72,
                "velocity": 25,
                "duration": 0.24545454545454604,
                "tempo": 120.0
            },
            {
                "start_time": 17.64090909090909,
                "end_time": 17.870454545454546,
                "pitch": 67,
                "velocity": 25,
                "duration": 0.22954545454545539,
                "tempo": 120.0
            },
            {
                "start_time": 17.870454545454546,
                "end_time": 18.12272727272727,
                "pitch": 76,
                "velocity": 25,
                "duration": 0.2522727272727252,
                "tempo": 120.0
            },
            {
                "start_time": 18.12272727272727,
                "end_time": 18.35909090909091,
                "pitch": 72,
                "velocity": 25,
                "duration": 0.2363636363636381,
                "tempo": 120.0
            },
            {
                "start_time": 18.35909090909091,
                "end_time": 18.597727272727273,
                "pitch": 69,
                "velocity": 25,
                "duration": 0.2386363636363633,
                "tempo": 120.0
            },
            {
                "start_time": 18.597727272727273,
                "end_time": 18.854545454545455,
                "pitch": 65,
                "velocity": 25,
                "duration": 0.2568181818181827,
                "tempo": 120.0
            },
            {
                "start_time": 18.854545454545455,
                "end_time": 19.08863636363636,
                "pitch": 69,
                "velocity": 25,
                "duration": 0.2340909090909058,
                "tempo": 120.0
            },
            {
                "start_time": 19.08863636363636,
                "end_time": 19.34318181818182,
                "pitch": 72,
                "velocity": 25,
                "duration": 0.2545454545454575,
                "tempo": 120.0
            },
            {
                "start_time": 19.80909090909091,
                "end_time": 20.054545454545455,
                "pitch": 74,
                "velocity": 25,
                "duration": 0.24545454545454604,
                "tempo": 120.0
            },
            {
                "start_time": 20.054545454545455,
                "end_time": 20.284090909090907,
                "pitch": 72,
                "velocity": 25,
                "duration": 0.22954545454545183,
                "tempo": 120.0
            },
            {
                "start_time": 20.286363636363635,
                "end_time": 20.538636363636364,
                "pitch": 69,
                "velocity": 25,
                "duration": 0.25227272727272876,
                "tempo": 120.0
            },
            {
                "start_time": 20.538636363636364,
                "end_time": 20.772727272727273,
                "pitch": 66,
                "velocity": 25,
                "duration": 0.23409090909090935,
                "tempo": 120.0
            },
            {
                "start_time": 20.772727272727273,
                "end_time": 21.011363636363637,
                "pitch": 69,
                "velocity": 25,
                "duration": 0.2386363636363633,
                "tempo": 120.0
            },
            {
                "start_time": 21.011363636363637,
                "end_time": 21.268181818181816,
                "pitch": 72,
                "velocity": 25,
                "duration": 0.25681818181817917,
                "tempo": 120.0
            },
            {
                "start_time": 21.270454545454545,
                "end_time": 21.504545454545454,
                "pitch": 74,
                "velocity": 25,
                "duration": 0.23409090909090935,
                "tempo": 120.0
            },
            {
                "start_time": 21.504545454545454,
                "end_time": 21.75681818181818,
                "pitch": 72,
                "velocity": 25,
                "duration": 0.2522727272727252,
                "tempo": 120.0
            },
            {
                "start_time": 21.75681818181818,
                "end_time": 21.995454545454546,
                "pitch": 72,
                "velocity": 25,
                "duration": 0.23863636363636687,
                "tempo": 120.0
            },
            {
                "start_time": 21.995454545454546,
                "end_time": 22.236363636363635,
                "pitch": 67,
                "velocity": 25,
                "duration": 0.24090909090908852,
                "tempo": 120.0
            },
            {
                "start_time": 22.236363636363635,
                "end_time": 22.48181818181818,
                "pitch": 62,
                "velocity": 25,
                "duration": 0.24545454545454604,
                "tempo": 120.0
            },
            {
                "start_time": 22.48181818181818,
                "end_time": 22.711363636363636,
                "pitch": 67,
                "velocity": 25,
                "duration": 0.22954545454545539,
                "tempo": 120.0
            },
            {
                "start_time": 22.711363636363636,
                "end_time": 22.96363636363636,
                "pitch": 71,
                "velocity": 25,
                "duration": 0.2522727272727252,
                "tempo": 120.0
            },
            {
                "start_time": 22.96363636363636,
                "end_time": 23.2,
                "pitch": 67,
                "velocity": 25,
                "duration": 0.2363636363636381,
                "tempo": 120.0
            },
            {
                "start_time": 23.2,
                "end_time": 23.43409090909091,
                "pitch": 62,
                "velocity": 25,
                "duration": 0.23409090909090935,
                "tempo": 120.0
            },
            {
                "start_time": 23.43409090909091,
                "end_time": 23.68409090909091,
                "pitch": 67,
                "velocity": 25,
                "duration": 0.25,
                "tempo": 120.0
            },
            {
                "start_time": 23.68409090909091,
                "end_time": 23.922727272727272,
                "pitch": 76,
                "velocity": 25,
                "duration": 0.2386363636363633,
                "tempo": 120.0
            },
            {
                "start_time": 23.922727272727272,
                "end_time": 24.179545454545455,
                "pitch": 72,
                "velocity": 25,
                "duration": 0.2568181818181827,
                "tempo": 120.0
            },
            {
                "start_time": 24.179545454545455,
                "end_time": 24.413636363636364,
                "pitch": 67,
                "velocity": 25,
                "duration": 0.23409090909090935,
                "tempo": 120.0
            },
            {
                "start_time": 24.41590909090909,
                "end_time": 24.65,
                "pitch": 72,
                "velocity": 25,
                "duration": 0.23409090909090935,
                "tempo": 120.0
            },
            {
                "start_time": 24.65,
                "end_time": 24.895454545454545,
                "pitch": 79,
                "velocity": 25,
                "duration": 0.24545454545454604,
                "tempo": 120.0
            },
            {
                "start_time": 24.89772727272727,
                "end_time": 25.127272727272725,
                "pitch": 72,
                "velocity": 25,
                "duration": 0.22954545454545539,
                "tempo": 120.0
            },
            {
                "start_time": 25.127272727272725,
                "end_time": 25.379545454545454,
                "pitch": 67,
                "velocity": 25,
                "duration": 0.25227272727272876,
                "tempo": 120.0
            },
            {
                "start_time": 25.379545454545454,
                "end_time": 25.613636363636363,
                "pitch": 72,
                "velocity": 25,
                "duration": 0.23409090909090935,
                "tempo": 120.0
            },
            {
                "start_time": 25.613636363636363,
                "end_time": 25.854545454545452,
                "pitch": 79,
                "velocity": 25,
                "duration": 0.24090909090908852,
                "tempo": 120.0
            },
            {
                "start_time": 25.854545454545452,
                "end_time": 26.10909090909091,
                "pitch": 72,
                "velocity": 25,
                "duration": 0.2545454545454575,
                "tempo": 120.0
            },
            {
                "start_time": 26.10909090909091,
                "end_time": 26.345454545454544,
                "pitch": 69,
                "velocity": 25,
                "duration": 0.23636363636363455,
                "tempo": 120.0
            },
            {
                "start_time": 26.345454545454544,
                "end_time": 26.597727272727273,
                "pitch": 72,
                "velocity": 25,
                "duration": 0.25227272727272876,
                "tempo": 120.0
            },
            {
                "start_time": 26.597727272727273,
                "end_time": 26.834090909090907,
                "pitch": 77,
                "velocity": 25,
                "duration": 0.23636363636363455,
                "tempo": 120.0
            },
            {
                "start_time": 26.834090909090907,
                "end_time": 27.068181818181817,
                "pitch": 72,
                "velocity": 25,
                "duration": 0.23409090909090935,
                "tempo": 120.0
            },
            {
                "start_time": 27.070454545454545,
                "end_time": 27.315909090909088,
                "pitch": 76,
                "velocity": 25,
                "duration": 0.24545454545454248,
                "tempo": 120.0
            },
            {
                "start_time": 27.315909090909088,
                "end_time": 27.545454545454543,
                "pitch": 72,
                "velocity": 25,
                "duration": 0.22954545454545539,
                "tempo": 120.0
            },
            {
                "start_time": 27.545454545454543,
                "end_time": 27.802272727272726,
                "pitch": 74,
                "velocity": 25,
                "duration": 0.2568181818181827,
                "tempo": 120.0
            },
            {
                "start_time": 27.802272727272726,
                "end_time": 28.04090909090909,
                "pitch": 71,
                "velocity": 25,
                "duration": 0.2386363636363633,
                "tempo": 120.0
            },
            {
                "start_time": 28.04090909090909,
                "end_time": 28.277272727272727,
                "pitch": 67,
                "velocity": 25,
                "duration": 0.2363636363636381,
                "tempo": 120.0
            },
            {
                "start_time": 28.277272727272727,
                "end_time": 28.529545454545453,
                "pitch": 71,
                "velocity": 25,
                "duration": 0.2522727272727252,
                "tempo": 120.0
            },
            {
                "start_time": 28.529545454545453,
                "end_time": 28.763636363636362,
                "pitch": 77,
                "velocity": 25,
                "duration": 0.23409090909090935,
                "tempo": 120.0
            },
            {
                "start_time": 28.763636363636362,
                "end_time": 29.018181818181816,
                "pitch": 71,
                "velocity": 25,
                "duration": 0.25454545454545396,
                "tempo": 120.0
            },
            {
                "start_time": 29.486363636363635,
                "end_time": 29.73409090909091,
                "pitch": 77,
                "velocity": 25,
                "duration": 0.2477272727272748,
                "tempo": 120.0
            },
            {
                "start_time": 29.73409090909091,
                "end_time": 29.96363636363636,
                "pitch": 72,
                "velocity": 25,
                "duration": 0.22954545454545183,
                "tempo": 120.0
            },
            {
                "start_time": 29.96363636363636,
                "end_time": 30.220454545454544,
                "pitch": 67,
                "velocity": 25,
                "duration": 0.2568181818181827,
                "tempo": 120.0
            },
            {
                "start_time": 30.220454545454544,
                "end_time": 30.459090909090907,
                "pitch": 72,
                "velocity": 25,
                "duration": 0.2386363636363633,
                "tempo": 120.0
            },
            {
                "start_time": 30.459090909090907,
                "end_time": 30.695454545454545,
                "pitch": 76,
                "velocity": 25,
                "duration": 0.2363636363636381,
                "tempo": 120.0
            },
            {
                "start_time": 30.695454545454545,
                "end_time": 30.94772727272727,
                "pitch": 72,
                "velocity": 25,
                "duration": 0.2522727272727252,
                "tempo": 120.0
            },
            {
                "start_time": 30.94772727272727,
                "end_time": 31.18181818181818,
                "pitch": 74,
                "velocity": 25,
                "duration": 0.23409090909090935,
                "tempo": 120.0
            },
            {
                "start_time": 31.18181818181818,
                "end_time": 31.43409090909091,
                "pitch": 71,
                "velocity": 25,
                "duration": 0.25227272727272876,
                "tempo": 120.0
            },
            {
                "start_time": 31.43409090909091,
                "end_time": 31.674999999999997,
                "pitch": 72,
                "velocity": 25,
                "duration": 0.24090909090908852,
                "tempo": 120.0
            },
            {
                "start_time": 31.674999999999997,
                "end_time": 31.91363636363636,
                "pitch": 69,
                "velocity": 25,
                "duration": 0.2386363636363633,
                "tempo": 120.0
            },
            {
                "start_time": 31.91363636363636,
                "end_time": 32.15909090909091,
                "pitch": 64,
                "velocity": 25,
                "duration": 0.24545454545454604,
                "tempo": 120.0
            },
            {
                "start_time": 32.16136363636363,
                "end_time": 32.39090909090909,
                "pitch": 69,
                "velocity": 25,
                "duration": 0.22954545454545894,
                "tempo": 120.0
            },
            {
                "start_time": 32.39090909090909,
                "end_time": 32.643181818181816,
                "pitch": 76,
                "velocity": 25,
                "duration": 0.2522727272727252,
                "tempo": 120.0
            },
            {
                "start_time": 32.643181818181816,
                "end_time": 32.877272727272725,
                "pitch": 69,
                "velocity": 25,
                "duration": 0.23409090909090935,
                "tempo": 120.0
            },
            {
                "start_time": 32.87954545454545,
                "end_time": 33.111363636363635,
                "pitch": 64,
                "velocity": 25,
                "duration": 0.23181818181818414,
                "tempo": 120.0
            },
            {
                "start_time": 33.111363636363635,
                "end_time": 33.361363636363635,
                "pitch": 69,
                "velocity": 25,
                "duration": 0.25,
                "tempo": 120.0
            },
            {
                "start_time": 33.361363636363635,
                "end_time": 33.6,
                "pitch": 76,
                "velocity": 25,
                "duration": 0.23863636363636687,
                "tempo": 120.0
            },
            {
                "start_time": 33.60227272727273,
                "end_time": 33.85681818181818,
                "pitch": 69,
                "velocity": 25,
                "duration": 0.2545454545454504,
                "tempo": 120.0
            },
            {
                "start_time": 33.85681818181818,
                "end_time": 34.090909090909086,
                "pitch": 65,
                "velocity": 25,
                "duration": 0.23409090909090935,
                "tempo": 120.0
            },
            {
                "start_time": 34.090909090909086,
                "end_time": 34.324999999999996,
                "pitch": 69,
                "velocity": 25,
                "duration": 0.23409090909090935,
                "tempo": 120.0
            },
            {
                "start_time": 34.324999999999996,
                "end_time": 34.570454545454545,
                "pitch": 74,
                "velocity": 25,
                "duration": 0.2454545454545496,
                "tempo": 120.0
            },
            {
                "start_time": 34.570454545454545,
                "end_time": 34.80227272727272,
                "pitch": 69,
                "velocity": 25,
                "duration": 0.23181818181817704,
                "tempo": 120.0
            },
            {
                "start_time": 34.80227272727272,
                "end_time": 35.05227272727272,
                "pitch": 65,
                "velocity": 25,
                "duration": 0.25,
                "tempo": 120.0
            },
            {
                "start_time": 35.05227272727272,
                "end_time": 35.28409090909091,
                "pitch": 72,
                "velocity": 25,
                "duration": 0.23181818181818414,
                "tempo": 120.0
            },
            {
                "start_time": 35.28409090909091,
                "end_time": 35.525,
                "pitch": 72,
                "velocity": 25,
                "duration": 0.24090909090909207,
                "tempo": 120.0
            },
            {
                "start_time": 35.525,
                "end_time": 35.779545454545456,
                "pitch": 69,
                "velocity": 25,
                "duration": 0.2545454545454575,
                "tempo": 120.0
            },
            {
                "start_time": 35.78181818181818,
                "end_time": 36.01363636363636,
                "pitch": 66,
                "velocity": 25,
                "duration": 0.23181818181817704,
                "tempo": 120.0
            },
            {
                "start_time": 36.01363636363636,
                "end_time": 36.26363636363636,
                "pitch": 69,
                "velocity": 25,
                "duration": 0.25,
                "tempo": 120.0
            },
            {
                "start_time": 36.26590909090909,
                "end_time": 36.50454545454545,
                "pitch": 72,
                "velocity": 25,
                "duration": 0.23863636363635976,
                "tempo": 120.0
            },
            {
                "start_time": 36.50454545454545,
                "end_time": 36.74318181818182,
                "pitch": 69,
                "velocity": 25,
                "duration": 0.23863636363636687,
                "tempo": 120.0
            },
            {
                "start_time": 36.74318181818182,
                "end_time": 36.98409090909091,
                "pitch": 66,
                "velocity": 25,
                "duration": 0.24090909090909207,
                "tempo": 120.0
            },
            {
                "start_time": 36.98409090909091,
                "end_time": 37.20909090909091,
                "pitch": 72,
                "velocity": 25,
                "duration": 0.22500000000000142,
                "tempo": 120.0
            },
            {
                "start_time": 37.20909090909091,
                "end_time": 37.46363636363636,
                "pitch": 72,
                "velocity": 25,
                "duration": 0.2545454545454504,
                "tempo": 120.0
            },
            {
                "start_time": 37.46363636363636,
                "end_time": 37.70454545454545,
                "pitch": 67,
                "velocity": 25,
                "duration": 0.24090909090909207,
                "tempo": 120.0
            },
            {
                "start_time": 37.70454545454545,
                "end_time": 37.93636363636364,
                "pitch": 62,
                "velocity": 25,
                "duration": 0.23181818181818414,
                "tempo": 120.0
            },
            {
                "start_time": 37.93863636363636,
                "end_time": 38.18863636363636,
                "pitch": 67,
                "velocity": 25,
                "duration": 0.25,
                "tempo": 120.0
            },
            {
                "start_time": 38.18863636363636,
                "end_time": 38.42727272727272,
                "pitch": 71,
                "velocity": 25,
                "duration": 0.23863636363635976,
                "tempo": 120.0
            },
            {
                "start_time": 38.42727272727272,
                "end_time": 38.684090909090905,
                "pitch": 67,
                "velocity": 25,
                "duration": 0.2568181818181827,
                "tempo": 120.0
            },
            {
                "start_time": 39.15,
                "end_time": 39.39772727272727,
                "pitch": 72,
                "velocity": 25,
                "duration": 0.2477272727272748,
                "tempo": 120.0
            },
            {
                "start_time": 39.39772727272727,
                "end_time": 39.627272727272725,
                "pitch": 69,
                "velocity": 25,
                "duration": 0.22954545454545183,
                "tempo": 120.0
            },
            {
                "start_time": 39.627272727272725,
                "end_time": 39.87954545454545,
                "pitch": 64,
                "velocity": 25,
                "duration": 0.2522727272727252,
                "tempo": 120.0
            },
            {
                "start_time": 39.87954545454545,
                "end_time": 40.11590909090909,
                "pitch": 69,
                "velocity": 25,
                "duration": 0.23636363636364166,
                "tempo": 120.0
            },
            {
                "start_time": 40.11590909090909,
                "end_time": 40.35454545454545,
                "pitch": 72,
                "velocity": 25,
                "duration": 0.23863636363635976,
                "tempo": 120.0
            },
            {
                "start_time": 40.35454545454545,
                "end_time": 40.611363636363635,
                "pitch": 69,
                "velocity": 25,
                "duration": 0.2568181818181827,
                "tempo": 120.0
            },
            {
                "start_time": 40.611363636363635,
                "end_time": 40.845454545454544,
                "pitch": 71,
                "velocity": 25,
                "duration": 0.23409090909090935,
                "tempo": 120.0
            },
            {
                "start_time": 40.845454545454544,
                "end_time": 41.09772727272727,
                "pitch": 69,
                "velocity": 25,
                "duration": 0.2522727272727252,
                "tempo": 120.0
            },
            {
                "start_time": 41.09772727272727,
                "end_time": 41.33181818181818,
                "pitch": 72,
                "velocity": 25,
                "duration": 0.23409090909090935,
                "tempo": 120.0
            },
            {
                "start_time": 41.33181818181818,
                "end_time": 41.56590909090909,
                "pitch": 69,
                "velocity": 25,
                "duration": 0.23409090909090935,
                "tempo": 120.0
            },
            {
                "start_time": 41.56590909090909,
                "end_time": 41.81136363636364,
                "pitch": 64,
                "velocity": 25,
                "duration": 0.2454545454545496,
                "tempo": 120.0
            },
            {
                "start_time": 41.81136363636364,
                "end_time": 42.04090909090909,
                "pitch": 69,
                "velocity": 25,
                "duration": 0.22954545454545183,
                "tempo": 120.0
            },
            {
                "start_time": 42.043181818181814,
                "end_time": 42.293181818181814,
                "pitch": 72,
                "velocity": 25,
                "duration": 0.25,
                "tempo": 120.0
            },
            {
                "start_time": 42.293181818181814,
                "end_time": 42.527272727272724,
                "pitch": 69,
                "velocity": 25,
                "duration": 0.23409090909090935,
                "tempo": 120.0
            },
            {
                "start_time": 42.527272727272724,
                "end_time": 42.75909090909091,
                "pitch": 71,
                "velocity": 25,
                "duration": 0.23181818181818414,
                "tempo": 120.0
            },
            {
                "start_time": 42.75909090909091,
                "end_time": 43.00909090909091,
                "pitch": 69,
                "velocity": 25,
                "duration": 0.25,
                "tempo": 120.0
            },
            {
                "start_time": 43.00909090909091,
                "end_time": 43.25,
                "pitch": 72,
                "velocity": 25,
                "duration": 0.24090909090909207,
                "tempo": 120.0
            },
            {
                "start_time": 43.25,
                "end_time": 43.50454545454545,
                "pitch": 69,
                "velocity": 25,
                "duration": 0.2545454545454504,
                "tempo": 120.0
            },
            {
                "start_time": 43.50681818181818,
                "end_time": 43.74090909090909,
                "pitch": 66,
                "velocity": 25,
                "duration": 0.23409090909090935,
                "tempo": 120.0
            },
            {
                "start_time": 43.74090909090909,
                "end_time": 43.97727272727273,
                "pitch": 69,
                "velocity": 25,
                "duration": 0.23636363636363455,
                "tempo": 120.0
            },
            {
                "start_time": 43.97727272727273,
                "end_time": 44.22727272727273,
                "pitch": 74,
                "velocity": 25,
                "duration": 0.25,
                "tempo": 120.0
            },
            {
                "start_time": 44.22727272727273,
                "end_time": 44.461363636363636,
                "pitch": 69,
                "velocity": 25,
                "duration": 0.23409090909090935,
                "tempo": 120.0
            },
            {
                "start_time": 44.461363636363636,
                "end_time": 44.70681818181818,
                "pitch": 66,
                "velocity": 25,
                "duration": 0.24545454545454248,
                "tempo": 120.0
            },
            {
                "start_time": 44.70681818181818,
                "end_time": 44.93636363636364,
                "pitch": 69,
                "velocity": 25,
                "duration": 0.22954545454545894,
                "tempo": 120.0
            },
            {
                "start_time": 44.93636363636364,
                "end_time": 45.175,
                "pitch": 72,
                "velocity": 25,
                "duration": 0.23863636363635976,
                "tempo": 120.0
            },
            {
                "start_time": 45.17727272727272,
                "end_time": 45.43181818181818,
                "pitch": 67,
                "velocity": 25,
                "duration": 0.2545454545454575,
                "tempo": 120.0
            },
            {
                "start_time": 45.43181818181818,
                "end_time": 45.67272727272727,
                "pitch": 62,
                "velocity": 25,
                "duration": 0.24090909090909207,
                "tempo": 120.0
            },
            {
                "start_time": 45.67272727272727,
                "end_time": 45.92727272727272,
                "pitch": 67,
                "velocity": 25,
                "duration": 0.2545454545454504,
                "tempo": 120.0
            },
            {
                "start_time": 45.929545454545455,
                "end_time": 46.16136363636363,
                "pitch": 71,
                "velocity": 25,
                "duration": 0.23181818181817704,
                "tempo": 120.0
            },
            {
                "start_time": 46.16136363636363,
                "end_time": 46.39545454545454,
                "pitch": 67,
                "velocity": 25,
                "duration": 0.23409090909090935,
                "tempo": 120.0
            },
            {
                "start_time": 46.39545454545454,
                "end_time": 46.63636363636363,
                "pitch": 62,
                "velocity": 25,
                "duration": 0.24090909090909207,
                "tempo": 120.0
            },
            {
                "start_time": 46.63636363636363,
                "end_time": 46.861363636363635,
                "pitch": 67,
                "velocity": 25,
                "duration": 0.22500000000000142,
                "tempo": 120.0
            },
            {
                "start_time": 46.861363636363635,
                "end_time": 47.11590909090909,
                "pitch": 71,
                "velocity": 25,
                "duration": 0.2545454545454575,
                "tempo": 120.0
            },
            {
                "start_time": 47.11818181818182,
                "end_time": 47.35681818181818,
                "pitch": 68,
                "velocity": 25,
                "duration": 0.23863636363635976,
                "tempo": 120.0
            },
            {
                "start_time": 47.35681818181818,
                "end_time": 47.590909090909086,
                "pitch": 64,
                "velocity": 25,
                "duration": 0.23409090909090935,
                "tempo": 120.0
            },
            {
                "start_time": 47.590909090909086,
                "end_time": 47.840909090909086,
                "pitch": 68,
                "velocity": 25,
                "duration": 0.25,
                "tempo": 120.0
            },
            {
                "start_time": 47.840909090909086,
                "end_time": 48.07954545454545,
                "pitch": 71,
                "velocity": 25,
                "duration": 0.23863636363636687,
                "tempo": 120.0
            },
            {
                "start_time": 48.07954545454545,
                "end_time": 48.336363636363636,
                "pitch": 68,
                "velocity": 25,
                "duration": 0.2568181818181827,
                "tempo": 120.0
            },
            {
                "start_time": 48.80227272727272,
                "end_time": 49.05,
                "pitch": 74,
                "velocity": 25,
                "duration": 0.2477272727272748,
                "tempo": 120.0
            },
            {
                "start_time": 49.05,
                "end_time": 49.27954545454545,
                "pitch": 69,
                "velocity": 25,
                "duration": 0.22954545454545183,
                "tempo": 120.0
            },
            {
                "start_time": 49.27954545454545,
                "end_time": 49.53181818181818,
                "pitch": 64,
                "velocity": 25,
                "duration": 0.2522727272727323,
                "tempo": 120.0
            },
            {
                "start_time": 49.53181818181818,
                "end_time": 49.768181818181816,
                "pitch": 69,
                "velocity": 25,
                "duration": 0.23636363636363455,
                "tempo": 120.0
            },
            {
                "start_time": 49.768181818181816,
                "end_time": 50.00681818181818,
                "pitch": 72,
                "velocity": 25,
                "duration": 0.23863636363636687,
                "tempo": 120.0
            },
            {
                "start_time": 50.00681818181818,
                "end_time": 50.26363636363636,
                "pitch": 69,
                "velocity": 25,
                "duration": 0.2568181818181756,
                "tempo": 120.0
            },
            {
                "start_time": 50.26363636363636,
                "end_time": 50.49772727272727,
                "pitch": 64,
                "velocity": 25,
                "duration": 0.23409090909090935,
                "tempo": 120.0
            },
            {
                "start_time": 50.49772727272727,
                "end_time": 50.74772727272727,
                "pitch": 69,
                "velocity": 25,
                "duration": 0.25,
                "tempo": 120.0
            },
            {
                "start_time": 50.74772727272727,
                "end_time": 50.986363636363635,
                "pitch": 74,
                "velocity": 25,
                "duration": 0.23863636363636687,
                "tempo": 120.0
            },
            {
                "start_time": 50.986363636363635,
                "end_time": 51.224999999999994,
                "pitch": 71,
                "velocity": 25,
                "duration": 0.23863636363635976,
                "tempo": 120.0
            },
            {
                "start_time": 51.224999999999994,
                "end_time": 51.465909090909086,
                "pitch": 67,
                "velocity": 25,
                "duration": 0.24090909090909207,
                "tempo": 120.0
            },
            {
                "start_time": 51.465909090909086,
                "end_time": 51.69090909090909,
                "pitch": 71,
                "velocity": 25,
                "duration": 0.22500000000000142,
                "tempo": 120.0
            },
            {
                "start_time": 51.69090909090909,
                "end_time": 51.94772727272727,
                "pitch": 74,
                "velocity": 25,
                "duration": 0.2568181818181827,
                "tempo": 120.0
            },
            {
                "start_time": 51.94772727272727,
                "end_time": 52.18636363636363,
                "pitch": 71,
                "velocity": 25,
                "duration": 0.23863636363635976,
                "tempo": 120.0
            },
            {
                "start_time": 52.18636363636363,
                "end_time": 52.42272727272727,
                "pitch": 77,
                "velocity": 25,
                "duration": 0.23636363636364166,
                "tempo": 120.0
            },
            {
                "start_time": 52.42272727272727,
                "end_time": 52.675,
                "pitch": 74,
                "velocity": 25,
                "duration": 0.2522727272727252,
                "tempo": 120.0
            },
            {
                "start_time": 52.675,
                "end_time": 52.90681818181818,
                "pitch": 77,
                "velocity": 25,
                "duration": 0.23181818181818414,
                "tempo": 120.0
            },
            {
                "start_time": 52.90681818181818,
                "end_time": 53.15909090909091,
                "pitch": 72,
                "velocity": 25,
                "duration": 0.2522727272727252,
                "tempo": 120.0
            },
            {
                "start_time": 53.15909090909091,
                "end_time": 53.393181818181816,
                "pitch": 67,
                "velocity": 25,
                "duration": 0.23409090909090935,
                "tempo": 120.0
            },
            {
                "start_time": 53.393181818181816,
                "end_time": 53.62954545454545,
                "pitch": 72,
                "velocity": 25,
                "duration": 0.23636363636363455,
                "tempo": 120.0
            },
            {
                "start_time": 53.62954545454545,
                "end_time": 53.875,
                "pitch": 76,
                "velocity": 25,
                "duration": 0.2454545454545496,
                "tempo": 120.0
            },
            {
                "start_time": 53.875,
                "end_time": 54.10681818181818,
                "pitch": 72,
                "velocity": 25,
                "duration": 0.23181818181817704,
                "tempo": 120.0
            },
            {
                "start_time": 54.10681818181818,
                "end_time": 54.361363636363635,
                "pitch": 67,
                "velocity": 25,
                "duration": 0.2545454545454575,
                "tempo": 120.0
            },
            {
                "start_time": 54.361363636363635,
                "end_time": 54.599999999999994,
                "pitch": 72,
                "velocity": 25,
                "duration": 0.23863636363635976,
                "tempo": 120.0
            },
            {
                "start_time": 54.60227272727273,
                "end_time": 54.834090909090904,
                "pitch": 66,
                "velocity": 25,
                "duration": 0.23181818181817704,
                "tempo": 120.0
            },
            {
                "start_time": 54.834090909090904,
                "end_time": 55.084090909090904,
                "pitch": 62,
                "velocity": 25,
                "duration": 0.25,
                "tempo": 120.0
            },
            {
                "start_time": 55.084090909090904,
                "end_time": 55.31818181818181,
                "pitch": 57,
                "velocity": 25,
                "duration": 0.23409090909090935,
                "tempo": 120.0
            },
            {
                "start_time": 55.31818181818181,
                "end_time": 55.56818181818181,
                "pitch": 62,
                "velocity": 25,
                "duration": 0.25,
                "tempo": 120.0
            },
            {
                "start_time": 55.56818181818181,
                "end_time": 55.809090909090905,
                "pitch": 66,
                "velocity": 25,
                "duration": 0.24090909090909207,
                "tempo": 120.0
            },
            {
                "start_time": 55.809090909090905,
                "end_time": 56.04772727272727,
                "pitch": 62,
                "velocity": 25,
                "duration": 0.23863636363636687,
                "tempo": 120.0
            },
            {
                "start_time": 56.04772727272727,
                "end_time": 56.293181818181814,
                "pitch": 57,
                "velocity": 25,
                "duration": 0.24545454545454248,
                "tempo": 120.0
            },
            {
                "start_time": 56.293181818181814,
                "end_time": 56.52272727272727,
                "pitch": 62,
                "velocity": 25,
                "duration": 0.22954545454545894,
                "tempo": 120.0
            },
            {
                "start_time": 56.525,
                "end_time": 56.777272727272724,
                "pitch": 67,
                "velocity": 25,
                "duration": 0.2522727272727252,
                "tempo": 120.0
            },
            {
                "start_time": 56.777272727272724,
                "end_time": 57.01136363636363,
                "pitch": 62,
                "velocity": 25,
                "duration": 0.23409090909090935,
                "tempo": 120.0
            },
            {
                "start_time": 57.01136363636363,
                "end_time": 57.24545454545454,
                "pitch": 60,
                "velocity": 25,
                "duration": 0.23409090909090935,
                "tempo": 120.0
            },
            {
                "start_time": 57.24545454545454,
                "end_time": 57.49545454545454,
                "pitch": 62,
                "velocity": 25,
                "duration": 0.25,
                "tempo": 120.0
            },
            {
                "start_time": 57.49545454545454,
                "end_time": 57.73409090909091,
                "pitch": 67,
                "velocity": 25,
                "duration": 0.23863636363636687,
                "tempo": 120.0
            },
            {
                "start_time": 57.73409090909091,
                "end_time": 57.990909090909085,
                "pitch": 62,
                "velocity": 25,
                "duration": 0.2568181818181756,
                "tempo": 120.0
            },
            {
                "start_time": 57.990909090909085,
                "end_time": 58.22272727272727,
                "pitch": 60,
                "velocity": 25,
                "duration": 0.23181818181818414,
                "tempo": 120.0
            },
            {
                "start_time": 58.22272727272727,
                "end_time": 58.45681818181818,
                "pitch": 57,
                "velocity": 25,
                "duration": 0.23409090909090935,
                "tempo": 120.0
            },
            {
                "start_time": 58.45681818181818,
                "end_time": 59.90909090909091,
                "pitch": 59,
                "velocity": 25,
                "duration": 1.452272727272728,
                "tempo": 120.0
            }
        ],
        "Trumpet": [
            {
                "start_time": 0.01818181818181818,
                "end_time": 0.9636363636363636,
                "pitch": 64,
                "velocity": 64,
                "duration": 0.9454545454545454,
                "tempo": 120.0
            },
            {
                "start_time": 0.9636363636363636,
                "end_time": 1.9431818181818181,
                "pitch": 67,
                "velocity": 64,
                "duration": 0.9795454545454545,
                "tempo": 120.0
            },
            {
                "start_time": 1.9431818181818181,
                "end_time": 2.893181818181818,
                "pitch": 67,
                "velocity": 64,
                "duration": 0.95,
                "tempo": 120.0
            },
            {
                "start_time": 2.893181818181818,
                "end_time": 3.370454545454545,
                "pitch": 65,
                "velocity": 64,
                "duration": 0.47727272727272707,
                "tempo": 120.0
            },
            {
                "start_time": 3.370454545454545,
                "end_time": 3.8545454545454545,
                "pitch": 64,
                "velocity": 64,
                "duration": 0.48409090909090935,
                "tempo": 120.0
            },
            {
                "start_time": 3.8545454545454545,
                "end_time": 4.834090909090909,
                "pitch": 62,
                "velocity": 64,
                "duration": 0.9795454545454545,
                "tempo": 120.0
            },
            {
                "start_time": 4.834090909090909,
                "end_time": 5.788636363636363,
                "pitch": 65,
                "velocity": 64,
                "duration": 0.9545454545454541,
                "tempo": 120.0
            },
            {
                "start_time": 5.788636363636363,
                "end_time": 6.761363636363636,
                "pitch": 65,
                "velocity": 64,
                "duration": 0.9727272727272727,
                "tempo": 120.0
            },
            {
                "start_time": 6.761363636363636,
                "end_time": 7.25,
                "pitch": 64,
                "velocity": 64,
                "duration": 0.4886363636363642,
                "tempo": 120.0
            },
            {
                "start_time": 7.25,
                "end_time": 7.727272727272727,
                "pitch": 62,
                "velocity": 64,
                "duration": 0.4772727272727266,
                "tempo": 120.0
            },
            {
                "start_time": 7.727272727272727,
                "end_time": 8.688636363636363,
                "pitch": 60,
                "velocity": 64,
                "duration": 0.961363636363636,
                "tempo": 120.0
            },
            {
                "start_time": 8.688636363636363,
                "end_time": 9.672727272727272,
                "pitch": 64,
                "velocity": 64,
                "duration": 0.9840909090909093,
                "tempo": 120.0
            },
            {
                "start_time": 9.672727272727272,
                "end_time": 10.618181818181817,
                "pitch": 64,
                "velocity": 64,
                "duration": 0.9454545454545453,
                "tempo": 120.0
            },
            {
                "start_time": 10.618181818181817,
                "end_time": 11.10681818181818,
                "pitch": 62,
                "velocity": 64,
                "duration": 0.4886363636363633,
                "tempo": 120.0
            },
            {
                "start_time": 11.10681818181818,
                "end_time": 11.595454545454546,
                "pitch": 60,
                "velocity": 64,
                "duration": 0.4886363636363651,
                "tempo": 120.0
            },
            {
                "start_time": 11.595454545454546,
                "end_time": 12.556818181818182,
                "pitch": 60,
                "velocity": 64,
                "duration": 0.961363636363636,
                "tempo": 120.0
            },
            {
                "start_time": 12.556818181818182,
                "end_time": 13.290909090909091,
                "pitch": 60,
                "velocity": 64,
                "duration": 0.7340909090909093,
                "tempo": 120.0
            },
            {
                "start_time": 13.290909090909091,
                "end_time": 13.529545454545454,
                "pitch": 62,
                "velocity": 64,
                "duration": 0.2386363636363633,
                "tempo": 120.0
            },
            {
                "start_time": 13.529545454545454,
                "end_time": 15.45681818181818,
                "pitch": 62,
                "velocity": 64,
                "duration": 1.927272727272726,
                "tempo": 120.0
            },
            {
                "start_time": 15.45681818181818,
                "end_time": 16.427272727272726,
                "pitch": 72,
                "velocity": 64,
                "duration": 0.9704545454545457,
                "tempo": 120.0
            },
            {
                "start_time": 16.427272727272726,
                "end_time": 16.91590909090909,
                "pitch": 72,
                "velocity": 64,
                "duration": 0.4886363636363633,
                "tempo": 120.0
            },
            {
                "start_time": 16.91590909090909,
                "end_time": 17.395454545454545,
                "pitch": 71,
                "velocity": 64,
                "duration": 0.4795454545454554,
                "tempo": 120.0
            },
            {
                "start_time": 17.395454545454545,
                "end_time": 18.35909090909091,
                "pitch": 72,
                "velocity": 64,
                "duration": 0.9636363636363647,
                "tempo": 120.0
            },
            {
                "start_time": 18.35909090909091,
                "end_time": 18.854545454545455,
                "pitch": 72,
                "velocity": 64,
                "duration": 0.49545454545454604,
                "tempo": 120.0
            },
            {
                "start_time": 18.854545454545455,
                "end_time": 19.34318181818182,
                "pitch": 71,
                "velocity": 64,
                "duration": 0.4886363636363633,
                "tempo": 120.0
            },
            {
                "start_time": 19.34318181818182,
                "end_time": 20.286363636363635,
                "pitch": 72,
                "velocity": 64,
                "duration": 0.9431818181818166,
                "tempo": 120.0
            },
            {
                "start_time": 20.286363636363635,
                "end_time": 21.270454545454545,
                "pitch": 74,
                "velocity": 64,
                "duration": 0.9840909090909093,
                "tempo": 120.0
            }
        ],
        "Clarinet": [
            {
                "start_time": 23.2,
                "end_time": 24.179545454545455,
                "pitch": 76,
                "velocity": 80,
                "duration": 0.9795454545454554,
                "tempo": 120.0
            },
            {
                "start_time": 24.179545454545455,
                "end_time": 25.127272727272725,
                "pitch": 79,
                "velocity": 80,
                "duration": 0.9477272727272705,
                "tempo": 120.0
            },
            {
                "start_time": 25.127272727272725,
                "end_time": 26.111363636363635,
                "pitch": 79,
                "velocity": 80,
                "duration": 0.9840909090909093,
                "tempo": 120.0
            },
            {
                "start_time": 26.111363636363635,
                "end_time": 26.597727272727273,
                "pitch": 77,
                "velocity": 80,
                "duration": 0.4863636363636381,
                "tempo": 120.0
            },
            {
                "start_time": 26.597727272727273,
                "end_time": 27.070454545454545,
                "pitch": 76,
                "velocity": 80,
                "duration": 0.47272727272727266,
                "tempo": 120.0
            },
            {
                "start_time": 27.070454545454545,
                "end_time": 28.04090909090909,
                "pitch": 74,
                "velocity": 80,
                "duration": 0.9704545454545439,
                "tempo": 120.0
            },
            {
                "start_time": 28.04090909090909,
                "end_time": 29.018181818181816,
                "pitch": 77,
                "velocity": 80,
                "duration": 0.9772727272727266,
                "tempo": 120.0
            },
            {
                "start_time": 29.018181818181816,
                "end_time": 29.96363636363636,
                "pitch": 77,
                "velocity": 80,
                "duration": 0.9454545454545453,
                "tempo": 120.0
            },
            {
                "start_time": 29.96363636363636,
                "end_time": 30.459090909090907,
                "pitch": 76,
                "velocity": 80,
                "duration": 0.49545454545454604,
                "tempo": 120.0
            },
            {
                "start_time": 30.461363636363636,
                "end_time": 30.94772727272727,
                "pitch": 74,
                "velocity": 80,
                "duration": 0.48636363636363455,
                "tempo": 120.0
            },
            {
                "start_time": 30.94772727272727,
                "end_time": 31.91363636363636,
                "pitch": 72,
                "velocity": 80,
                "duration": 0.9659090909090899,
                "tempo": 120.0
            },
            {
                "start_time": 31.91363636363636,
                "end_time": 32.87954545454545,
                "pitch": 76,
                "velocity": 80,
                "duration": 0.9659090909090899,
                "tempo": 120.0
            },
            {
                "start_time": 32.87954545454545,
                "end_time": 33.85681818181818,
                "pitch": 76,
                "velocity": 80,
                "duration": 0.9772727272727266,
                "tempo": 120.0
            },
            {
                "start_time": 33.85909090909091,
                "end_time": 34.324999999999996,
                "pitch": 74,
                "velocity": 80,
                "duration": 0.4659090909090864,
                "tempo": 120.0
            },
            {
                "start_time": 34.324999999999996,
                "end_time": 34.80227272727272,
                "pitch": 72,
                "velocity": 80,
                "duration": 0.4772727272727266,
                "tempo": 120.0
            },
            {
                "start_time": 34.80227272727272,
                "end_time": 35.78181818181818,
                "pitch": 72,
                "velocity": 80,
                "duration": 0.9795454545454589,
                "tempo": 120.0
            },
            {
                "start_time": 35.78181818181818,
                "end_time": 36.50454545454545,
                "pitch": 72,
                "velocity": 80,
                "duration": 0.7227272727272691,
                "tempo": 120.0
            },
            {
                "start_time": 36.50454545454545,
                "end_time": 36.74318181818182,
                "pitch": 74,
                "velocity": 80,
                "duration": 0.23863636363636687,
                "tempo": 120.0
            },
            {
                "start_time": 36.74318181818182,
                "end_time": 38.684090909090905,
                "pitch": 74,
                "velocity": 80,
                "duration": 1.9409090909090878,
                "tempo": 120.0
            },
            {
                "start_time": 38.684090909090905,
                "end_time": 39.627272727272725,
                "pitch": 72,
                "velocity": 80,
                "duration": 0.9431818181818201,
                "tempo": 120.0
            },
            {
                "start_time": 39.627272727272725,
                "end_time": 40.11590909090909,
                "pitch": 72,
                "velocity": 80,
                "duration": 0.48863636363636687,
                "tempo": 120.0
            },
            {
                "start_time": 40.11590909090909,
                "end_time": 40.18181818181818,
                "pitch": 72,
                "velocity": 80,
                "duration": 0.06590909090908781,
                "tempo": 120.0
            },
            {
                "start_time": 40.18181818181818,
                "end_time": 40.611363636363635,
                "pitch": 72,
                "velocity": 80,
                "duration": 0.4295454545454547,
                "tempo": 120.0
            },
            {
                "start_time": 40.611363636363635,
                "end_time": 41.56590909090909,
                "pitch": 72,
                "velocity": 80,
                "duration": 0.9545454545454533,
                "tempo": 120.0
            },
            {
                "start_time": 41.56590909090909,
                "end_time": 42.043181818181814,
                "pitch": 72,
                "velocity": 80,
                "duration": 0.4772727272727266,
                "tempo": 120.0
            },
            {
                "start_time": 42.043181818181814,
                "end_time": 42.10681818181818,
                "pitch": 72,
                "velocity": 80,
                "duration": 0.0636363636363626,
                "tempo": 120.0
            },
            {
                "start_time": 40.18181818181818,
                "end_time": 42.10681818181818,
                "pitch": 84,
                "velocity": 80,
                "duration": 1.9249999999999972,
                "tempo": 120.0
            },
            {
                "start_time": 42.10681818181818,
                "end_time": 42.527272727272724,
                "pitch": 72,
                "velocity": 80,
                "duration": 0.42045454545454675,
                "tempo": 120.0
            },
            {
                "start_time": 42.527272727272724,
                "end_time": 43.50681818181818,
                "pitch": 72,
                "velocity": 80,
                "duration": 0.9795454545454589,
                "tempo": 120.0
            },
            {
                "start_time": 43.50681818181818,
                "end_time": 44.461363636363636,
                "pitch": 74,
                "velocity": 80,
                "duration": 0.9545454545454533,
                "tempo": 120.0
            },
            {
                "start_time": 44.461363636363636,
                "end_time": 45.434090909090905,
                "pitch": 72,
                "velocity": 80,
                "duration": 0.9727272727272691,
                "tempo": 120.0
            },
            {
                "start_time": 45.434090909090905,
                "end_time": 46.39545454545454,
                "pitch": 71,
                "velocity": 80,
                "duration": 0.961363636363636,
                "tempo": 120.0
            },
            {
                "start_time": 46.39772727272727,
                "end_time": 47.35681818181818,
                "pitch": 71,
                "velocity": 80,
                "duration": 0.9590909090909037,
                "tempo": 120.0
            },
            {
                "start_time": 47.35681818181818,
                "end_time": 48.336363636363636,
                "pitch": 74,
                "velocity": 80,
                "duration": 0.9795454545454589,
                "tempo": 120.0
            },
            {
                "start_time": 48.33863636363636,
                "end_time": 49.27954545454545,
                "pitch": 74,
                "velocity": 64,
                "duration": 0.9409090909090878,
                "tempo": 120.0
            },
            {
                "start_time": 49.27954545454545,
                "end_time": 50.26363636363636,
                "pitch": 72,
                "velocity": 64,
                "duration": 0.9840909090909093,
                "tempo": 120.0
            },
            {
                "start_time": 50.26363636363636,
                "end_time": 51.224999999999994,
                "pitch": 74,
                "velocity": 64,
                "duration": 0.961363636363636,
                "tempo": 120.0
            },
            {
                "start_time": 51.22727272727273,
                "end_time": 52.18636363636363,
                "pitch": 77,
                "velocity": 64,
                "duration": 0.9590909090909037,
                "tempo": 120.0
            },
            {
                "start_time": 52.18863636363636,
                "end_time": 53.15909090909091,
                "pitch": 77,
                "velocity": 64,
                "duration": 0.9704545454545439,
                "tempo": 120.0
            },
            {
                "start_time": 53.15909090909091,
                "end_time": 54.10681818181818,
                "pitch": 76,
                "velocity": 64,
                "duration": 0.9477272727272705,
                "tempo": 120.0
            },
            {
                "start_time": 54.10681818181818,
                "end_time": 55.809090909090905,
                "pitch": 78,
                "velocity": 64,
                "duration": 1.702272727272728,
                "tempo": 120.0
            },
            {
                "start_time": 55.809090909090905,
                "end_time": 56.04772727272727,
                "pitch": 79,
                "velocity": 64,
                "duration": 0.23863636363636687,
                "tempo": 120.0
            },
            {
                "start_time": 56.04772727272727,
                "end_time": 59.90909090909091,
                "pitch": 79,
                "velocity": 64,
                "duration": 3.8613636363636346,
                "tempo": 120.0
            }
        ]
    }
}