{
    "track_id": "11 Voice of God",
    "mood": "relaxed",
    "instruments": {
        "French Horn": [
            {
                "start_time": 55.543181818181814,
                "end_time": 56.293181818181814,
                "pitch": 40,
                "velocity": 32,
                "duration": 0.75,
                "tempo": 120.0
            },
            {
                "start_time": 56.74772727272727,
                "end_time": 58.711363636363636,
                "pitch": 40,
                "velocity": 32,
                "duration": 1.9636363636363683,
                "tempo": 120.0
            },
            {
                "start_time": 58.76363636363636,
                "end_time": 59.52954545454545,
                "pitch": 40,
                "velocity": 32,
                "duration": 0.7659090909090907,
                "tempo": 120.0
            },
            {
                "start_time": 59.97272727272727,
                "end_time": 61.929545454545455,
                "pitch": 40,
                "velocity": 32,
                "duration": 1.9568181818181856,
                "tempo": 120.0
            },
            {
                "start_time": 61.97954545454545,
                "end_time": 62.752272727272725,
                "pitch": 40,
                "velocity": 32,
                "duration": 0.7727272727272734,
                "tempo": 120.0
            },
            {
                "start_time": 63.19772727272727,
                "end_time": 65.15227272727273,
                "pitch": 40,
                "velocity": 32,
                "duration": 1.9545454545454604,
                "tempo": 120.0
            },
            {
                "start_time": 65.20227272727273,
                "end_time": 65.9659090909091,
                "pitch": 40,
                "velocity": 32,
                "duration": 0.7636363636363654,
                "tempo": 120.0
            },
            {
                "start_time": 66.4090909090909,
                "end_time": 68.38181818181818,
                "pitch": 40,
                "velocity": 32,
                "duration": 1.972727272727269,
                "tempo": 120.0
            },
            {
                "start_time": 68.43181818181817,
                "end_time": 69.17272727272727,
                "pitch": 40,
                "velocity": 32,
                "duration": 0.7409090909090992,
                "tempo": 120.0
            },
            {
                "start_time": 69.62954545454545,
                "end_time": 71.59772727272727,
                "pitch": 40,
                "velocity": 32,
                "duration": 1.9681818181818187,
                "tempo": 120.0
            },
            {
                "start_time": 71.64999999999999,
                "end_time": 72.40681818181818,
                "pitch": 40,
                "velocity": 32,
                "duration": 0.7568181818181898,
                "tempo": 120.0
            },
            {
                "start_time": 72.85681818181818,
                "end_time": 74.81590909090909,
                "pitch": 40,
                "velocity": 32,
                "duration": 1.9590909090909037,
                "tempo": 120.0
            },
            {
                "start_time": 74.86818181818181,
                "end_time": 75.63636363636363,
                "pitch": 40,
                "velocity": 32,
                "duration": 0.7681818181818159,
                "tempo": 120.0
            },
            {
                "start_time": 76.08863636363635,
                "end_time": 78.05,
                "pitch": 40,
                "velocity": 32,
                "duration": 1.961363636363643,
                "tempo": 120.0
            },
            {
                "start_time": 78.10227272727272,
                "end_time": 78.4590909090909,
                "pitch": 40,
                "velocity": 32,
                "duration": 0.35681818181818414,
                "tempo": 120.0
            },
            {
                "start_time": 78.51363636363637,
                "end_time": 78.87045454545454,
                "pitch": 50,
                "velocity": 80,
                "duration": 0.35681818181816993,
                "tempo": 120.0
            },
            {
                "start_time": 78.51363636363637,
                "end_time": 79.65681818181818,
                "pitch": 52,
                "velocity": 80,
                "duration": 1.1431818181818159,
                "tempo": 120.0
            },
            {
                "start_time": 78.925,
                "end_time": 79.65681818181818,
                "pitch": 52,
                "velocity": 80,
                "duration": 0.7318181818181841,
                "tempo": 120.0
            },
            {
                "start_time": 81.73181818181818,
                "end_time": 82.07954545454545,
                "pitch": 55,
                "velocity": 80,
                "duration": 0.3477272727272691,
                "tempo": 120.0
            },
            {
                "start_time": 81.73181818181818,
                "end_time": 84.95454545454545,
                "pitch": 66,
                "velocity": 80,
                "duration": 3.222727272727269,
                "tempo": 120.0
            },
            {
                "start_time": 84.95454545454545,
                "end_time": 85.30681818181817,
                "pitch": 57,
                "velocity": 80,
                "duration": 0.3522727272727195,
                "tempo": 120.0
            },
            {
                "start_time": 78.925,
                "end_time": 86.50454545454545,
                "pitch": 50,
                "velocity": 80,
                "duration": 7.579545454545453,
                "tempo": 120.0
            },
            {
                "start_time": 86.16136363636363,
                "end_time": 86.50454545454545,
                "pitch": 50,
                "velocity": 80,
                "duration": 0.3431818181818187,
                "tempo": 120.0
            },
            {
                "start_time": 88.17272727272727,
                "end_time": 88.53181818181818,
                "pitch": 55,
                "velocity": 80,
                "duration": 0.35909090909090935,
                "tempo": 120.0
            },
            {
                "start_time": 90.1840909090909,
                "end_time": 90.54318181818181,
                "pitch": 47,
                "velocity": 80,
                "duration": 0.35909090909090935,
                "tempo": 120.0
            },
            {
                "start_time": 91.79318181818181,
                "end_time": 92.14999999999999,
                "pitch": 47,
                "velocity": 80,
                "duration": 0.35681818181818414,
                "tempo": 120.0
            },
            {
                "start_time": 94.61363636363636,
                "end_time": 94.96363636363635,
                "pitch": 55,
                "velocity": 80,
                "duration": 0.3499999999999943,
                "tempo": 120.0
            },
            {
                "start_time": 84.95454545454545,
                "end_time": 97.83181818181818,
                "pitch": 66,
                "velocity": 80,
                "duration": 12.877272727272725,
                "tempo": 120.0
            },
            {
                "start_time": 97.83181818181818,
                "end_time": 98.18863636363636,
                "pitch": 57,
                "velocity": 80,
                "duration": 0.35681818181818414,
                "tempo": 120.0
            },
            {
                "start_time": 86.16136363636363,
                "end_time": 99.03863636363636,
                "pitch": 19,
                "velocity": 80,
                "duration": 12.877272727272725,
                "tempo": 120.0
            },
            {
                "start_time": 99.03863636363636,
                "end_time": 99.39772727272727,
                "pitch": 50,
                "velocity": 80,
                "duration": 0.35909090909090935,
                "tempo": 120.0
            },
            {
                "start_time": 88.17272727272727,
                "end_time": 101.05681818181817,
                "pitch": 65,
                "velocity": 80,
                "duration": 12.8840909090909,
                "tempo": 120.0
            },
            {
                "start_time": 101.05681818181817,
                "end_time": 101.41590909090908,
                "pitch": 55,
                "velocity": 80,
                "duration": 0.35909090909090935,
                "tempo": 120.0
            },
            {
                "start_time": 90.1840909090909,
                "end_time": 103.06590909090909,
                "pitch": 54,
                "velocity": 80,
                "duration": 12.88181818181819,
                "tempo": 120.0
            },
            {
                "start_time": 103.06590909090909,
                "end_time": 103.425,
                "pitch": 47,
                "velocity": 80,
                "duration": 0.35909090909090935,
                "tempo": 120.0
            },
            {
                "start_time": 104.675,
                "end_time": 105.02272727272727,
                "pitch": 47,
                "velocity": 80,
                "duration": 0.3477272727272691,
                "tempo": 120.0
            },
            {
                "start_time": 94.61363636363636,
                "end_time": 107.48863636363636,
                "pitch": 59,
                "velocity": 80,
                "duration": 12.875,
                "tempo": 120.0
            },
            {
                "start_time": 107.48863636363636,
                "end_time": 107.84772727272727,
                "pitch": 55,
                "velocity": 80,
                "duration": 0.35909090909090935,
                "tempo": 120.0
            },
            {
                "start_time": 97.83181818181818,
                "end_time": 110.71590909090908,
                "pitch": 66,
                "velocity": 80,
                "duration": 12.8840909090909,
                "tempo": 120.0
            },
            {
                "start_time": 110.71590909090908,
                "end_time": 111.07499999999999,
                "pitch": 57,
                "velocity": 80,
                "duration": 0.35909090909090935,
                "tempo": 120.0
            },
            {
                "start_time": 99.03863636363636,
                "end_time": 111.92045454545455,
                "pitch": 19,
                "velocity": 80,
                "duration": 12.88181818181819,
                "tempo": 120.0
            },
            {
                "start_time": 111.92045454545455,
                "end_time": 112.27954545454546,
                "pitch": 50,
                "velocity": 80,
                "duration": 0.35909090909090935,
                "tempo": 120.0
            },
            {
                "start_time": 101.05681818181817,
                "end_time": 113.52954545454546,
                "pitch": 65,
                "velocity": 80,
                "duration": 12.472727272727283,
                "tempo": 120.0
            },
            {
                "start_time": 113.52954545454546,
                "end_time": 113.88636363636363,
                "pitch": 55,
                "velocity": 80,
                "duration": 0.35681818181816993,
                "tempo": 120.0
            },
            {
                "start_time": 103.06590909090909,
                "end_time": 114.33181818181818,
                "pitch": 54,
                "velocity": 80,
                "duration": 11.26590909090909,
                "tempo": 120.0
            },
            {
                "start_time": 114.33181818181818,
                "end_time": 114.69090909090909,
                "pitch": 50,
                "velocity": 80,
                "duration": 0.35909090909090935,
                "tempo": 120.0
            },
            {
                "start_time": 115.13636363636363,
                "end_time": 115.50227272727273,
                "pitch": 52,
                "velocity": 80,
                "duration": 0.3659090909090992,
                "tempo": 120.0
            },
            {
                "start_time": 115.55681818181817,
                "end_time": 115.89999999999999,
                "pitch": 52,
                "velocity": 80,
                "duration": 0.3431818181818187,
                "tempo": 120.0
            },
            {
                "start_time": 110.71590909090908,
                "end_time": 115.94999999999999,
                "pitch": 66,
                "velocity": 80,
                "duration": 5.234090909090909,
                "tempo": 120.0
            },
            {
                "start_time": 115.94999999999999,
                "end_time": 116.3090909090909,
                "pitch": 57,
                "velocity": 80,
                "duration": 0.35909090909090935,
                "tempo": 120.0
            }
        ],
        "Acoustic Guitar (nylon)": [
            {
                "start_time": 55.84318181818182,
                "end_time": 56.19318181818181,
                "pitch": 50,
                "velocity": 32,
                "duration": 0.3499999999999943,
                "tempo": 120.0
            },
            {
                "start_time": 56.24318181818182,
                "end_time": 56.595454545454544,
                "pitch": 59,
                "velocity": 32,
                "duration": 0.3522727272727266,
                "tempo": 120.0
            },
            {
                "start_time": 56.64545454545454,
                "end_time": 56.99772727272727,
                "pitch": 59,
                "velocity": 32,
                "duration": 0.3522727272727266,
                "tempo": 120.0
            },
            {
                "start_time": 57.04772727272727,
                "end_time": 57.39772727272727,
                "pitch": 62,
                "velocity": 32,
                "duration": 0.3500000000000014,
                "tempo": 120.0
            },
            {
                "start_time": 57.44772727272727,
                "end_time": 57.804545454545455,
                "pitch": 59,
                "velocity": 32,
                "duration": 0.35681818181818414,
                "tempo": 120.0
            },
            {
                "start_time": 56.24318181818182,
                "end_time": 60.627272727272725,
                "pitch": 66,
                "velocity": 32,
                "duration": 4.384090909090908,
                "tempo": 120.0
            },
            {
                "start_time": 58.25454545454545,
                "end_time": 60.627272727272725,
                "pitch": 66,
                "velocity": 32,
                "duration": 2.372727272727275,
                "tempo": 120.0
            },
            {
                "start_time": 60.67727272727272,
                "end_time": 61.025,
                "pitch": 66,
                "velocity": 32,
                "duration": 0.3477272727272762,
                "tempo": 120.0
            },
            {
                "start_time": 61.074999999999996,
                "end_time": 61.425,
                "pitch": 57,
                "velocity": 32,
                "duration": 0.3500000000000014,
                "tempo": 120.0
            },
            {
                "start_time": 61.47727272727273,
                "end_time": 63.45227272727272,
                "pitch": 57,
                "velocity": 32,
                "duration": 1.9749999999999943,
                "tempo": 120.0
            },
            {
                "start_time": 57.04772727272727,
                "end_time": 68.71818181818182,
                "pitch": 32,
                "velocity": 32,
                "duration": 11.670454545454547,
                "tempo": 120.0
            },
            {
                "start_time": 68.71818181818182,
                "end_time": 69.07045454545454,
                "pitch": 52,
                "velocity": 32,
                "duration": 0.3522727272727195,
                "tempo": 120.0
            },
            {
                "start_time": 61.074999999999996,
                "end_time": 69.12272727272727,
                "pitch": 66,
                "velocity": 32,
                "duration": 8.047727272727279,
                "tempo": 120.0
            },
            {
                "start_time": 69.12045454545454,
                "end_time": 69.12272727272727,
                "pitch": 66,
                "velocity": 32,
                "duration": 0.0022727272727394165,
                "tempo": 120.0
            },
            {
                "start_time": 69.12272727272727,
                "end_time": 69.47727272727272,
                "pitch": 59,
                "velocity": 32,
                "duration": 0.3545454545454447,
                "tempo": 120.0
            },
            {
                "start_time": 69.52727272727273,
                "end_time": 69.87727272727273,
                "pitch": 59,
                "velocity": 32,
                "duration": 0.3499999999999943,
                "tempo": 120.0
            },
            {
                "start_time": 68.71818181818182,
                "end_time": 69.92727272727272,
                "pitch": 32,
                "velocity": 32,
                "duration": 1.2090909090909037,
                "tempo": 120.0
            },
            {
                "start_time": 69.92727272727272,
                "end_time": 70.27954545454546,
                "pitch": 62,
                "velocity": 32,
                "duration": 0.35227272727273373,
                "tempo": 120.0
            },
            {
                "start_time": 57.44772727272727,
                "end_time": 70.33181818181818,
                "pitch": 65,
                "velocity": 32,
                "duration": 12.884090909090908,
                "tempo": 120.0
            },
            {
                "start_time": 70.33181818181818,
                "end_time": 70.68409090909091,
                "pitch": 59,
                "velocity": 32,
                "duration": 0.35227272727273373,
                "tempo": 120.0
            },
            {
                "start_time": 58.25454545454545,
                "end_time": 71.12954545454545,
                "pitch": 44,
                "velocity": 32,
                "duration": 12.875,
                "tempo": 120.0
            },
            {
                "start_time": 71.12954545454545,
                "end_time": 73.50454545454545,
                "pitch": 66,
                "velocity": 32,
                "duration": 2.375,
                "tempo": 120.0
            },
            {
                "start_time": 73.55454545454545,
                "end_time": 73.90227272727272,
                "pitch": 67,
                "velocity": 32,
                "duration": 0.3477272727272691,
                "tempo": 120.0
            },
            {
                "start_time": 73.95454545454545,
                "end_time": 74.30454545454545,
                "pitch": 67,
                "velocity": 32,
                "duration": 0.3499999999999943,
                "tempo": 120.0
            },
            {
                "start_time": 69.92727272727272,
                "end_time": 74.35681818181818,
                "pitch": 32,
                "velocity": 32,
                "duration": 4.429545454545462,
                "tempo": 120.0
            },
            {
                "start_time": 74.35681818181818,
                "end_time": 76.35,
                "pitch": 66,
                "velocity": 32,
                "duration": 1.9931818181818102,
                "tempo": 120.0
            }
        ],
        "Oboe": [
            {
                "start_time": 80.0090909090909,
                "end_time": 80.7840909090909,
                "pitch": 69,
                "velocity": 40,
                "duration": 0.7750000000000057,
                "tempo": 120.0
            },
            {
                "start_time": 80.81818181818181,
                "end_time": 80.98181818181818,
                "pitch": 69,
                "velocity": 40,
                "duration": 0.16363636363637113,
                "tempo": 120.0
            },
            {
                "start_time": 81.22272727272727,
                "end_time": 83.20454545454545,
                "pitch": 66,
                "velocity": 40,
                "duration": 1.9818181818181841,
                "tempo": 120.0
            },
            {
                "start_time": 83.23636363636363,
                "end_time": 84.00681818181818,
                "pitch": 69,
                "velocity": 40,
                "duration": 0.7704545454545411,
                "tempo": 120.0
            },
            {
                "start_time": 84.04090909090908,
                "end_time": 84.20454545454545,
                "pitch": 69,
                "velocity": 40,
                "duration": 0.16363636363637113,
                "tempo": 120.0
            },
            {
                "start_time": 84.44090909090909,
                "end_time": 86.42272727272727,
                "pitch": 66,
                "velocity": 40,
                "duration": 1.9818181818181841,
                "tempo": 120.0
            },
            {
                "start_time": 86.45454545454545,
                "end_time": 86.82727272727273,
                "pitch": 64,
                "velocity": 40,
                "duration": 0.3727272727272748,
                "tempo": 120.0
            },
            {
                "start_time": 80.0090909090909,
                "end_time": 86.86136363636363,
                "pitch": 79,
                "velocity": 40,
                "duration": 6.852272727272734,
                "tempo": 120.0
            },
            {
                "start_time": 86.86136363636363,
                "end_time": 87.23181818181818,
                "pitch": 67,
                "velocity": 40,
                "duration": 0.3704545454545496,
                "tempo": 120.0
            },
            {
                "start_time": 92.89090909090909,
                "end_time": 93.66590909090908,
                "pitch": 71,
                "velocity": 40,
                "duration": 0.7749999999999915,
                "tempo": 120.0
            },
            {
                "start_time": 93.69999999999999,
                "end_time": 93.86590909090908,
                "pitch": 69,
                "velocity": 40,
                "duration": 0.16590909090909634,
                "tempo": 120.0
            },
            {
                "start_time": 94.10681818181818,
                "end_time": 96.08636363636363,
                "pitch": 66,
                "velocity": 40,
                "duration": 1.9795454545454447,
                "tempo": 120.0
            },
            {
                "start_time": 83.23636363636363,
                "end_time": 96.12045454545454,
                "pitch": 78,
                "velocity": 40,
                "duration": 12.8840909090909,
                "tempo": 120.0
            },
            {
                "start_time": 96.12045454545454,
                "end_time": 96.89090909090909,
                "pitch": 69,
                "velocity": 40,
                "duration": 0.7704545454545553,
                "tempo": 120.0
            },
            {
                "start_time": 96.925,
                "end_time": 97.09318181818182,
                "pitch": 69,
                "velocity": 40,
                "duration": 0.16818181818182154,
                "tempo": 120.0
            },
            {
                "start_time": 97.32499999999999,
                "end_time": 98.90227272727272,
                "pitch": 66,
                "velocity": 40,
                "duration": 1.577272727272728,
                "tempo": 120.0
            },
            {
                "start_time": 98.93636363636364,
                "end_time": 100.51818181818182,
                "pitch": 64,
                "velocity": 40,
                "duration": 1.5818181818181785,
                "tempo": 120.0
            },
            {
                "start_time": 100.55227272727272,
                "end_time": 103.74318181818181,
                "pitch": 62,
                "velocity": 40,
                "duration": 3.190909090909088,
                "tempo": 120.0
            },
            {
                "start_time": 105.77045454545454,
                "end_time": 106.55454545454545,
                "pitch": 81,
                "velocity": 40,
                "duration": 0.7840909090909065,
                "tempo": 120.0
            },
            {
                "start_time": 106.58863636363635,
                "end_time": 106.75681818181818,
                "pitch": 81,
                "velocity": 40,
                "duration": 0.16818181818182154,
                "tempo": 120.0
            },
            {
                "start_time": 96.12045454545454,
                "end_time": 106.95454545454545,
                "pitch": 78,
                "velocity": 40,
                "duration": 10.834090909090918,
                "tempo": 120.0
            },
            {
                "start_time": 106.79090909090908,
                "end_time": 106.95454545454545,
                "pitch": 78,
                "velocity": 40,
                "duration": 0.16363636363637113,
                "tempo": 120.0
            },
            {
                "start_time": 106.98636363636363,
                "end_time": 108.97272727272727,
                "pitch": 78,
                "velocity": 40,
                "duration": 1.9863636363636346,
                "tempo": 120.0
            },
            {
                "start_time": 105.77045454545454,
                "end_time": 109.00681818181818,
                "pitch": 90,
                "velocity": 40,
                "duration": 3.2363636363636346,
                "tempo": 120.0
            },
            {
                "start_time": 109.00681818181818,
                "end_time": 109.77727272727272,
                "pitch": 81,
                "velocity": 40,
                "duration": 0.7704545454545411,
                "tempo": 120.0
            },
            {
                "start_time": 109.81136363636364,
                "end_time": 109.975,
                "pitch": 81,
                "velocity": 40,
                "duration": 0.16363636363635692,
                "tempo": 120.0
            },
            {
                "start_time": 106.79090909090908,
                "end_time": 110.0090909090909,
                "pitch": 2,
                "velocity": 40,
                "duration": 3.2181818181818187,
                "tempo": 120.0
            },
            {
                "start_time": 110.0090909090909,
                "end_time": 110.17272727272727,
                "pitch": 78,
                "velocity": 40,
                "duration": 0.16363636363637113,
                "tempo": 120.0
            },
            {
                "start_time": 110.20454545454545,
                "end_time": 111.78636363636363,
                "pitch": 78,
                "velocity": 40,
                "duration": 1.5818181818181785,
                "tempo": 120.0
            },
            {
                "start_time": 111.82045454545454,
                "end_time": 114.19999999999999,
                "pitch": 74,
                "velocity": 40,
                "duration": 2.3795454545454504,
                "tempo": 120.0
            },
            {
                "start_time": 114.23409090909091,
                "end_time": 115.00454545454545,
                "pitch": 69,
                "velocity": 40,
                "duration": 0.7704545454545411,
                "tempo": 120.0
            },
            {
                "start_time": 115.03636363636363,
                "end_time": 115.81818181818181,
                "pitch": 66,
                "velocity": 40,
                "duration": 0.7818181818181813,
                "tempo": 120.0
            },
            {
                "start_time": 115.85227272727272,
                "end_time": 116.61590909090908,
                "pitch": 62,
                "velocity": 40,
                "duration": 0.7636363636363654,
                "tempo": 120.0
            }
        ],
        "Flute": [
            {
                "start_time": 0.6181818181818182,
                "end_time": 0.975,
                "pitch": 78,
                "velocity": 40,
                "duration": 0.3568181818181818,
                "tempo": 120.0
            },
            {
                "start_time": 1.025,
                "end_time": 1.375,
                "pitch": 79,
                "velocity": 40,
                "duration": 0.3500000000000001,
                "tempo": 120.0
            },
            {
                "start_time": 1.4249999999999998,
                "end_time": 3.375,
                "pitch": 83,
                "velocity": 40,
                "duration": 1.9500000000000002,
                "tempo": 120.0
            },
            {
                "start_time": 3.836363636363636,
                "end_time": 4.193181818181818,
                "pitch": 78,
                "velocity": 40,
                "duration": 0.35681818181818237,
                "tempo": 120.0
            },
            {
                "start_time": 1.025,
                "end_time": 4.243181818181818,
                "pitch": 90,
                "velocity": 40,
                "duration": 3.2181818181818183,
                "tempo": 120.0
            },
            {
                "start_time": 1.4249999999999998,
                "end_time": 4.595454545454545,
                "pitch": 79,
                "velocity": 40,
                "duration": 3.170454545454545,
                "tempo": 120.0
            },
            {
                "start_time": 4.243181818181818,
                "end_time": 4.595454545454545,
                "pitch": 79,
                "velocity": 40,
                "duration": 0.3522727272727266,
                "tempo": 120.0
            },
            {
                "start_time": 4.6454545454545455,
                "end_time": 4.997727272727272,
                "pitch": 88,
                "velocity": 40,
                "duration": 0.3522727272727266,
                "tempo": 120.0
            },
            {
                "start_time": 5.047727272727273,
                "end_time": 6.588636363636363,
                "pitch": 86,
                "velocity": 40,
                "duration": 1.5409090909090901,
                "tempo": 120.0
            },
            {
                "start_time": 7.047727272727272,
                "end_time": 7.3999999999999995,
                "pitch": 78,
                "velocity": 40,
                "duration": 0.3522727272727275,
                "tempo": 120.0
            },
            {
                "start_time": 4.243181818181818,
                "end_time": 7.449999999999999,
                "pitch": 90,
                "velocity": 40,
                "duration": 3.206818181818181,
                "tempo": 120.0
            },
            {
                "start_time": 7.449999999999999,
                "end_time": 7.802272727272727,
                "pitch": 79,
                "velocity": 40,
                "duration": 0.3522727272727275,
                "tempo": 120.0
            },
            {
                "start_time": 7.852272727272727,
                "end_time": 8.611363636363636,
                "pitch": 83,
                "velocity": 40,
                "duration": 0.7590909090909097,
                "tempo": 120.0
            },
            {
                "start_time": 8.661363636363635,
                "end_time": 9.418181818181818,
                "pitch": 83,
                "velocity": 40,
                "duration": 0.7568181818181827,
                "tempo": 120.0
            },
            {
                "start_time": 9.470454545454546,
                "end_time": 10.225,
                "pitch": 78,
                "velocity": 40,
                "duration": 0.754545454545454,
                "tempo": 120.0
            },
            {
                "start_time": 7.449999999999999,
                "end_time": 10.275,
                "pitch": 90,
                "velocity": 40,
                "duration": 2.825000000000001,
                "tempo": 120.0
            },
            {
                "start_time": 7.852272727272727,
                "end_time": 10.625,
                "pitch": 79,
                "velocity": 40,
                "duration": 2.7727272727272734,
                "tempo": 120.0
            },
            {
                "start_time": 10.275,
                "end_time": 10.625,
                "pitch": 79,
                "velocity": 40,
                "duration": 0.34999999999999964,
                "tempo": 120.0
            },
            {
                "start_time": 10.677272727272726,
                "end_time": 13.043181818181818,
                "pitch": 79,
                "velocity": 40,
                "duration": 2.365909090909092,
                "tempo": 120.0
            },
            {
                "start_time": 10.275,
                "end_time": 13.911363636363635,
                "pitch": 90,
                "velocity": 40,
                "duration": 3.636363636363635,
                "tempo": 120.0
            },
            {
                "start_time": 13.911363636363635,
                "end_time": 14.26590909090909,
                "pitch": 79,
                "velocity": 40,
                "duration": 0.3545454545454554,
                "tempo": 120.0
            },
            {
                "start_time": 14.31590909090909,
                "end_time": 16.263636363636362,
                "pitch": 83,
                "velocity": 40,
                "duration": 1.9477272727272723,
                "tempo": 120.0
            },
            {
                "start_time": 3.836363636363636,
                "end_time": 16.722727272727273,
                "pitch": 56,
                "velocity": 40,
                "duration": 12.886363636363637,
                "tempo": 120.0
            },
            {
                "start_time": 16.722727272727273,
                "end_time": 17.075,
                "pitch": 78,
                "velocity": 40,
                "duration": 0.3522727272727266,
                "tempo": 120.0
            },
            {
                "start_time": 13.911363636363635,
                "end_time": 17.127272727272725,
                "pitch": 90,
                "velocity": 40,
                "duration": 3.21590909090909,
                "tempo": 120.0
            },
            {
                "start_time": 14.31590909090909,
                "end_time": 17.48409090909091,
                "pitch": 79,
                "velocity": 40,
                "duration": 3.1681818181818198,
                "tempo": 120.0
            },
            {
                "start_time": 17.127272727272725,
                "end_time": 17.48409090909091,
                "pitch": 79,
                "velocity": 40,
                "duration": 0.35681818181818414,
                "tempo": 120.0
            },
            {
                "start_time": 4.6454545454545455,
                "end_time": 17.536363636363635,
                "pitch": 7,
                "velocity": 40,
                "duration": 12.89090909090909,
                "tempo": 120.0
            },
            {
                "start_time": 5.047727272727273,
                "end_time": 17.888636363636362,
                "pitch": 88,
                "velocity": 40,
                "duration": 12.84090909090909,
                "tempo": 120.0
            },
            {
                "start_time": 17.536363636363635,
                "end_time": 17.888636363636362,
                "pitch": 88,
                "velocity": 40,
                "duration": 0.3522727272727266,
                "tempo": 120.0
            },
            {
                "start_time": 17.938636363636363,
                "end_time": 19.474999999999998,
                "pitch": 86,
                "velocity": 40,
                "duration": 1.5363636363636353,
                "tempo": 120.0
            },
            {
                "start_time": 7.047727272727272,
                "end_time": 19.93181818181818,
                "pitch": 74,
                "velocity": 40,
                "duration": 12.884090909090908,
                "tempo": 120.0
            },
            {
                "start_time": 19.93181818181818,
                "end_time": 20.288636363636364,
                "pitch": 78,
                "velocity": 40,
                "duration": 0.35681818181818414,
                "tempo": 120.0
            },
            {
                "start_time": 17.127272727272725,
                "end_time": 20.33863636363636,
                "pitch": 90,
                "velocity": 40,
                "duration": 3.211363636363636,
                "tempo": 120.0
            },
            {
                "start_time": 20.33863636363636,
                "end_time": 20.69090909090909,
                "pitch": 79,
                "velocity": 40,
                "duration": 0.3522727272727302,
                "tempo": 120.0
            },
            {
                "start_time": 20.74090909090909,
                "end_time": 21.493181818181817,
                "pitch": 83,
                "velocity": 40,
                "duration": 0.7522727272727288,
                "tempo": 120.0
            },
            {
                "start_time": 21.545454545454543,
                "end_time": 22.302272727272726,
                "pitch": 83,
                "velocity": 40,
                "duration": 0.7568181818181827,
                "tempo": 120.0
            },
            {
                "start_time": 9.470454545454546,
                "end_time": 22.352272727272727,
                "pitch": 43,
                "velocity": 40,
                "duration": 12.881818181818181,
                "tempo": 120.0
            },
            {
                "start_time": 22.352272727272727,
                "end_time": 23.10681818181818,
                "pitch": 78,
                "velocity": 40,
                "duration": 0.754545454545454,
                "tempo": 120.0
            },
            {
                "start_time": 20.33863636363636,
                "end_time": 23.15681818181818,
                "pitch": 90,
                "velocity": 40,
                "duration": 2.81818181818182,
                "tempo": 120.0
            },
            {
                "start_time": 20.74090909090909,
                "end_time": 23.502272727272725,
                "pitch": 79,
                "velocity": 40,
                "duration": 2.7613636363636367,
                "tempo": 120.0
            },
            {
                "start_time": 23.15681818181818,
                "end_time": 23.502272727272725,
                "pitch": 79,
                "velocity": 40,
                "duration": 0.3454545454545439,
                "tempo": 120.0
            },
            {
                "start_time": 23.552272727272726,
                "end_time": 24.311363636363634,
                "pitch": 83,
                "velocity": 40,
                "duration": 0.7590909090909079,
                "tempo": 120.0
            },
            {
                "start_time": 24.361363636363635,
                "end_time": 25.11590909090909,
                "pitch": 83,
                "velocity": 40,
                "duration": 0.754545454545454,
                "tempo": 120.0
            },
            {
                "start_time": 22.352272727272727,
                "end_time": 25.16590909090909,
                "pitch": 43,
                "velocity": 40,
                "duration": 2.8136363636363626,
                "tempo": 120.0
            },
            {
                "start_time": 25.16590909090909,
                "end_time": 28.893181818181816,
                "pitch": 78,
                "velocity": 40,
                "duration": 3.7272727272727266,
                "tempo": 120.0
            },
            {
                "start_time": 19.93181818181818,
                "end_time": 29.068181818181817,
                "pitch": 74,
                "velocity": 40,
                "duration": 9.136363636363637,
                "tempo": 120.0
            },
            {
                "start_time": 28.893181818181816,
                "end_time": 29.068181818181817,
                "pitch": 74,
                "velocity": 40,
                "duration": 0.1750000000000007,
                "tempo": 120.0
            },
            {
                "start_time": 23.552272727272726,
                "end_time": 30.35909090909091,
                "pitch": 79,
                "velocity": 40,
                "duration": 6.806818181818183,
                "tempo": 120.0
            },
            {
                "start_time": 30.211363636363636,
                "end_time": 30.35909090909091,
                "pitch": 79,
                "velocity": 80,
                "duration": 0.14772727272727337,
                "tempo": 120.0
            },
            {
                "start_time": 23.15681818181818,
                "end_time": 33.44090909090909,
                "pitch": 90,
                "velocity": 40,
                "duration": 10.284090909090907,
                "tempo": 120.0
            },
            {
                "start_time": 33.44090909090909,
                "end_time": 33.586363636363636,
                "pitch": 81,
                "velocity": 80,
                "duration": 0.14545454545454817,
                "tempo": 120.0
            },
            {
                "start_time": 25.16590909090909,
                "end_time": 34.638636363636365,
                "pitch": 43,
                "velocity": 40,
                "duration": 9.472727272727276,
                "tempo": 120.0
            },
            {
                "start_time": 34.638636363636365,
                "end_time": 34.78636363636363,
                "pitch": 74,
                "velocity": 80,
                "duration": 0.14772727272726627,
                "tempo": 120.0
            },
            {
                "start_time": 30.211363636363636,
                "end_time": 36.65681818181818,
                "pitch": 89,
                "velocity": 80,
                "duration": 6.445454545454545,
                "tempo": 120.0
            },
            {
                "start_time": 36.65681818181818,
                "end_time": 36.804545454545455,
                "pitch": 79,
                "velocity": 80,
                "duration": 0.14772727272727337,
                "tempo": 120.0
            },
            {
                "start_time": 33.44090909090909,
                "end_time": 38.64545454545454,
                "pitch": 90,
                "velocity": 80,
                "duration": 5.204545454545453,
                "tempo": 120.0
            },
            {
                "start_time": 38.64545454545454,
                "end_time": 38.8,
                "pitch": 81,
                "velocity": 80,
                "duration": 0.1545454545454561,
                "tempo": 120.0
            },
            {
                "start_time": 34.638636363636365,
                "end_time": 40.252272727272725,
                "pitch": 43,
                "velocity": 80,
                "duration": 5.61363636363636,
                "tempo": 120.0
            },
            {
                "start_time": 40.252272727272725,
                "end_time": 40.4,
                "pitch": 74,
                "velocity": 80,
                "duration": 0.14772727272727337,
                "tempo": 120.0
            },
            {
                "start_time": 36.65681818181818,
                "end_time": 43.08181818181818,
                "pitch": 89,
                "velocity": 80,
                "duration": 6.424999999999997,
                "tempo": 120.0
            },
            {
                "start_time": 43.08181818181818,
                "end_time": 43.22954545454545,
                "pitch": 79,
                "velocity": 80,
                "duration": 0.14772727272727337,
                "tempo": 120.0
            },
            {
                "start_time": 38.64545454545454,
                "end_time": 46.31590909090909,
                "pitch": 90,
                "velocity": 80,
                "duration": 7.670454545454547,
                "tempo": 120.0
            },
            {
                "start_time": 46.31590909090909,
                "end_time": 46.461363636363636,
                "pitch": 81,
                "velocity": 80,
                "duration": 0.14545454545454817,
                "tempo": 120.0
            },
            {
                "start_time": 40.252272727272725,
                "end_time": 47.502272727272725,
                "pitch": 43,
                "velocity": 80,
                "duration": 7.25,
                "tempo": 120.0
            },
            {
                "start_time": 47.502272727272725,
                "end_time": 47.65454545454545,
                "pitch": 74,
                "velocity": 80,
                "duration": 0.15227272727272378,
                "tempo": 120.0
            },
            {
                "start_time": 43.08181818181818,
                "end_time": 49.51136363636363,
                "pitch": 89,
                "velocity": 80,
                "duration": 6.429545454545455,
                "tempo": 120.0
            },
            {
                "start_time": 49.51136363636363,
                "end_time": 49.66136363636363,
                "pitch": 79,
                "velocity": 80,
                "duration": 0.14999999999999858,
                "tempo": 120.0
            },
            {
                "start_time": 46.31590909090909,
                "end_time": 51.527272727272724,
                "pitch": 90,
                "velocity": 80,
                "duration": 5.211363636363636,
                "tempo": 120.0
            },
            {
                "start_time": 51.527272727272724,
                "end_time": 51.675,
                "pitch": 81,
                "velocity": 80,
                "duration": 0.14772727272727337,
                "tempo": 120.0
            },
            {
                "start_time": 47.502272727272725,
                "end_time": 53.12272727272727,
                "pitch": 43,
                "velocity": 80,
                "duration": 5.6204545454545425,
                "tempo": 120.0
            },
            {
                "start_time": 53.12272727272727,
                "end_time": 55.08181818181818,
                "pitch": 74,
                "velocity": 80,
                "duration": 1.9590909090909108,
                "tempo": 120.0
            }
        ],
        "Trumpet": [
            {
                "start_time": 0.20681818181818182,
                "end_time": 1.7613636363636362,
                "pitch": 59,
                "velocity": 32,
                "duration": 1.5545454545454545,
                "tempo": 120.0
            },
            {
                "start_time": 2.2295454545454545,
                "end_time": 2.5522727272727272,
                "pitch": 62,
                "velocity": 32,
                "duration": 0.32272727272727275,
                "tempo": 120.0
            },
            {
                "start_time": 2.620454545454545,
                "end_time": 2.952272727272727,
                "pitch": 62,
                "velocity": 32,
                "duration": 0.331818181818182,
                "tempo": 120.0
            },
            {
                "start_time": 3.0204545454545455,
                "end_time": 4.9795454545454545,
                "pitch": 67,
                "velocity": 32,
                "duration": 1.959090909090909,
                "tempo": 120.0
            },
            {
                "start_time": 5.831818181818181,
                "end_time": 6.165909090909091,
                "pitch": 62,
                "velocity": 32,
                "duration": 0.3340909090909099,
                "tempo": 120.0
            },
            {
                "start_time": 3.0204545454545455,
                "end_time": 6.2340909090909085,
                "pitch": 78,
                "velocity": 32,
                "duration": 3.213636363636363,
                "tempo": 120.0
            },
            {
                "start_time": 6.2340909090909085,
                "end_time": 6.570454545454545,
                "pitch": 71,
                "velocity": 32,
                "duration": 0.33636363636363686,
                "tempo": 120.0
            },
            {
                "start_time": 6.638636363636364,
                "end_time": 6.9795454545454545,
                "pitch": 71,
                "velocity": 32,
                "duration": 0.34090909090909083,
                "tempo": 120.0
            },
            {
                "start_time": 7.047727272727272,
                "end_time": 7.381818181818182,
                "pitch": 62,
                "velocity": 32,
                "duration": 0.3340909090909099,
                "tempo": 120.0
            },
            {
                "start_time": 7.449999999999999,
                "end_time": 7.786363636363636,
                "pitch": 62,
                "velocity": 32,
                "duration": 0.33636363636363686,
                "tempo": 120.0
            },
            {
                "start_time": 6.2340909090909085,
                "end_time": 7.852272727272727,
                "pitch": 78,
                "velocity": 32,
                "duration": 1.6181818181818182,
                "tempo": 120.0
            },
            {
                "start_time": 7.852272727272727,
                "end_time": 8.595454545454546,
                "pitch": 67,
                "velocity": 32,
                "duration": 0.743181818181819,
                "tempo": 120.0
            },
            {
                "start_time": 9.468181818181817,
                "end_time": 9.470454545454546,
                "pitch": 66,
                "velocity": 32,
                "duration": 0.0022727272727287584,
                "tempo": 120.0
            },
            {
                "start_time": 9.470454545454546,
                "end_time": 10.206818181818182,
                "pitch": 62,
                "velocity": 32,
                "duration": 0.7363636363636363,
                "tempo": 120.0
            },
            {
                "start_time": 10.275,
                "end_time": 10.60909090909091,
                "pitch": 62,
                "velocity": 32,
                "duration": 0.334090909090909,
                "tempo": 120.0
            },
            {
                "start_time": 10.677272727272726,
                "end_time": 11.009090909090908,
                "pitch": 64,
                "velocity": 32,
                "duration": 0.331818181818182,
                "tempo": 120.0
            },
            {
                "start_time": 7.852272727272727,
                "end_time": 11.075,
                "pitch": 78,
                "velocity": 32,
                "duration": 3.2227272727272727,
                "tempo": 120.0
            },
            {
                "start_time": 11.075,
                "end_time": 11.404545454545454,
                "pitch": 67,
                "velocity": 32,
                "duration": 0.32954545454545503,
                "tempo": 120.0
            },
            {
                "start_time": 11.875,
                "end_time": 12.622727272727271,
                "pitch": 62,
                "velocity": 32,
                "duration": 0.7477272727272712,
                "tempo": 120.0
            },
            {
                "start_time": 12.69090909090909,
                "end_time": 13.024999999999999,
                "pitch": 57,
                "velocity": 32,
                "duration": 0.334090909090909,
                "tempo": 120.0
            },
            {
                "start_time": 13.093181818181817,
                "end_time": 14.643181818181818,
                "pitch": 57,
                "velocity": 32,
                "duration": 1.5500000000000007,
                "tempo": 120.0
            },
            {
                "start_time": 2.2295454545454545,
                "end_time": 15.109090909090908,
                "pitch": 44,
                "velocity": 32,
                "duration": 12.879545454545454,
                "tempo": 120.0
            },
            {
                "start_time": 15.109090909090908,
                "end_time": 15.438636363636363,
                "pitch": 62,
                "velocity": 32,
                "duration": 0.32954545454545503,
                "tempo": 120.0
            },
            {
                "start_time": 15.506818181818181,
                "end_time": 15.84090909090909,
                "pitch": 62,
                "velocity": 32,
                "duration": 0.334090909090909,
                "tempo": 120.0
            },
            {
                "start_time": 11.075,
                "end_time": 15.909090909090908,
                "pitch": 78,
                "velocity": 32,
                "duration": 4.834090909090909,
                "tempo": 120.0
            },
            {
                "start_time": 15.909090909090908,
                "end_time": 17.870454545454546,
                "pitch": 67,
                "velocity": 32,
                "duration": 1.9613636363636378,
                "tempo": 120.0
            },
            {
                "start_time": 18.722727272727273,
                "end_time": 19.05681818181818,
                "pitch": 62,
                "velocity": 32,
                "duration": 0.3340909090909072,
                "tempo": 120.0
            },
            {
                "start_time": 15.909090909090908,
                "end_time": 19.125,
                "pitch": 78,
                "velocity": 32,
                "duration": 3.2159090909090917,
                "tempo": 120.0
            },
            {
                "start_time": 19.125,
                "end_time": 19.459090909090907,
                "pitch": 71,
                "velocity": 32,
                "duration": 0.3340909090909072,
                "tempo": 120.0
            },
            {
                "start_time": 19.525,
                "end_time": 19.861363636363635,
                "pitch": 71,
                "velocity": 32,
                "duration": 0.336363636363636,
                "tempo": 120.0
            },
            {
                "start_time": 7.047727272727272,
                "end_time": 19.929545454545455,
                "pitch": 32,
                "velocity": 32,
                "duration": 12.881818181818183,
                "tempo": 120.0
            },
            {
                "start_time": 19.929545454545455,
                "end_time": 20.270454545454545,
                "pitch": 62,
                "velocity": 32,
                "duration": 0.34090909090908994,
                "tempo": 120.0
            },
            {
                "start_time": 20.33863636363636,
                "end_time": 20.672727272727272,
                "pitch": 62,
                "velocity": 32,
                "duration": 0.33409090909091077,
                "tempo": 120.0
            },
            {
                "start_time": 19.125,
                "end_time": 20.74090909090909,
                "pitch": 78,
                "velocity": 32,
                "duration": 1.6159090909090885,
                "tempo": 120.0
            },
            {
                "start_time": 20.74090909090909,
                "end_time": 21.477272727272727,
                "pitch": 67,
                "velocity": 32,
                "duration": 0.7363636363636381,
                "tempo": 120.0
            },
            {
                "start_time": 11.875,
                "end_time": 22.352272727272727,
                "pitch": 66,
                "velocity": 32,
                "duration": 10.477272727272727,
                "tempo": 120.0
            },
            {
                "start_time": 22.352272727272727,
                "end_time": 23.09090909090909,
                "pitch": 62,
                "velocity": 32,
                "duration": 0.7386363636363633,
                "tempo": 120.0
            },
            {
                "start_time": 23.15681818181818,
                "end_time": 23.48409090909091,
                "pitch": 62,
                "velocity": 32,
                "duration": 0.32727272727272805,
                "tempo": 120.0
            },
            {
                "start_time": 20.74090909090909,
                "end_time": 23.552272727272726,
                "pitch": 78,
                "velocity": 32,
                "duration": 2.8113636363636374,
                "tempo": 120.0
            },
            {
                "start_time": 23.552272727272726,
                "end_time": 24.295454545454543,
                "pitch": 67,
                "velocity": 32,
                "duration": 0.7431818181818173,
                "tempo": 120.0
            },
            {
                "start_time": 22.352272727272727,
                "end_time": 25.163636363636364,
                "pitch": 66,
                "velocity": 32,
                "duration": 2.8113636363636374,
                "tempo": 120.0
            },
            {
                "start_time": 25.163636363636364,
                "end_time": 25.495454545454542,
                "pitch": 62,
                "velocity": 32,
                "duration": 0.33181818181817846,
                "tempo": 120.0
            },
            {
                "start_time": 25.56590909090909,
                "end_time": 25.902272727272727,
                "pitch": 62,
                "velocity": 32,
                "duration": 0.336363636363636,
                "tempo": 120.0
            },
            {
                "start_time": 23.552272727272726,
                "end_time": 25.968181818181815,
                "pitch": 78,
                "velocity": 32,
                "duration": 2.4159090909090892,
                "tempo": 120.0
            },
            {
                "start_time": 25.968181818181815,
                "end_time": 26.706818181818182,
                "pitch": 69,
                "velocity": 32,
                "duration": 0.7386363636363669,
                "tempo": 120.0
            },
            {
                "start_time": 19.929545454545455,
                "end_time": 26.77272727272727,
                "pitch": 32,
                "velocity": 32,
                "duration": 6.843181818181815,
                "tempo": 120.0
            },
            {
                "start_time": 25.163636363636364,
                "end_time": 27.502272727272725,
                "pitch": 66,
                "velocity": 32,
                "duration": 2.338636363636361,
                "tempo": 120.0
            },
            {
                "start_time": 26.77272727272727,
                "end_time": 27.502272727272725,
                "pitch": 66,
                "velocity": 32,
                "duration": 0.7295454545454554,
                "tempo": 120.0
            },
            {
                "start_time": 27.57272727272727,
                "end_time": 29.047727272727272,
                "pitch": 62,
                "velocity": 32,
                "duration": 1.4750000000000014,
                "tempo": 120.0
            },
            {
                "start_time": 30.30909090909091,
                "end_time": 30.440909090909088,
                "pitch": 67,
                "velocity": 32,
                "duration": 0.13181818181817917,
                "tempo": 120.0
            },
            {
                "start_time": 33.538636363636364,
                "end_time": 33.668181818181814,
                "pitch": 69,
                "velocity": 32,
                "duration": 0.1295454545454504,
                "tempo": 120.0
            },
            {
                "start_time": 26.77272727272727,
                "end_time": 34.736363636363635,
                "pitch": 32,
                "velocity": 32,
                "duration": 7.963636363636365,
                "tempo": 120.0
            },
            {
                "start_time": 34.736363636363635,
                "end_time": 34.87045454545454,
                "pitch": 62,
                "velocity": 32,
                "duration": 0.13409090909090793,
                "tempo": 120.0
            },
            {
                "start_time": 30.30909090909091,
                "end_time": 36.75454545454545,
                "pitch": 77,
                "velocity": 32,
                "duration": 6.445454545454542,
                "tempo": 120.0
            },
            {
                "start_time": 36.75454545454545,
                "end_time": 36.88409090909091,
                "pitch": 67,
                "velocity": 32,
                "duration": 0.12954545454545752,
                "tempo": 120.0
            },
            {
                "start_time": 33.538636363636364,
                "end_time": 38.74772727272727,
                "pitch": 79,
                "velocity": 32,
                "duration": 5.209090909090904,
                "tempo": 120.0
            },
            {
                "start_time": 38.74772727272727,
                "end_time": 38.88863636363636,
                "pitch": 69,
                "velocity": 32,
                "duration": 0.14090909090909065,
                "tempo": 120.0
            },
            {
                "start_time": 34.736363636363635,
                "end_time": 40.35,
                "pitch": 32,
                "velocity": 32,
                "duration": 5.613636363636367,
                "tempo": 120.0
            },
            {
                "start_time": 40.35,
                "end_time": 40.48409090909091,
                "pitch": 62,
                "velocity": 32,
                "duration": 0.13409090909090793,
                "tempo": 120.0
            },
            {
                "start_time": 36.75454545454545,
                "end_time": 43.08181818181818,
                "pitch": 77,
                "velocity": 32,
                "duration": 6.327272727272728,
                "tempo": 120.0
            },
            {
                "start_time": 43.08181818181818,
                "end_time": 43.21363636363636,
                "pitch": 71,
                "velocity": 51,
                "duration": 0.13181818181818272,
                "tempo": 120.0
            },
            {
                "start_time": 44.304545454545455,
                "end_time": 44.43181818181818,
                "pitch": 71,
                "velocity": 51,
                "duration": 0.1272727272727252,
                "tempo": 120.0
            },
            {
                "start_time": 15.109090909090908,
                "end_time": 46.31590909090909,
                "pitch": 44,
                "velocity": 32,
                "duration": 31.20681818181818,
                "tempo": 120.0
            },
            {
                "start_time": 46.31590909090909,
                "end_time": 46.445454545454545,
                "pitch": 74,
                "velocity": 51,
                "duration": 0.12954545454545752,
                "tempo": 120.0
            },
            {
                "start_time": 43.08181818181818,
                "end_time": 47.5,
                "pitch": 77,
                "velocity": 51,
                "duration": 4.4181818181818215,
                "tempo": 120.0
            },
            {
                "start_time": 47.5,
                "end_time": 47.63636363636363,
                "pitch": 69,
                "velocity": 51,
                "duration": 0.13636363636363313,
                "tempo": 120.0
            },
            {
                "start_time": 49.50909090909091,
                "end_time": 49.64545454545454,
                "pitch": 69,
                "velocity": 51,
                "duration": 0.13636363636363313,
                "tempo": 120.0
            },
            {
                "start_time": 50.73181818181818,
                "end_time": 50.86363636363636,
                "pitch": 71,
                "velocity": 51,
                "duration": 0.13181818181818272,
                "tempo": 120.0
            },
            {
                "start_time": 46.31590909090909,
                "end_time": 51.527272727272724,
                "pitch": 44,
                "velocity": 51,
                "duration": 5.211363636363636,
                "tempo": 120.0
            },
            {
                "start_time": 51.527272727272724,
                "end_time": 51.65909090909091,
                "pitch": 74,
                "velocity": 51,
                "duration": 0.13181818181818272,
                "tempo": 120.0
            },
            {
                "start_time": 12.69090909090909,
                "end_time": 53.12272727272727,
                "pitch": 65,
                "velocity": 32,
                "duration": 40.43181818181818,
                "tempo": 120.0
            },
            {
                "start_time": 53.12272727272727,
                "end_time": 55.06363636363636,
                "pitch": 57,
                "velocity": 51,
                "duration": 1.940909090909095,
                "tempo": 120.0
            }
        ],
        "Vibraphone": [
            {
                "start_time": 29.35909090909091,
                "end_time": 29.55909090909091,
                "pitch": 42,
                "velocity": 80,
                "duration": 0.1999999999999993,
                "tempo": 120.0
            },
            {
                "start_time": 29.55909090909091,
                "end_time": 30.972727272727273,
                "pitch": 40,
                "velocity": 80,
                "duration": 1.413636363636364,
                "tempo": 120.0
            },
            {
                "start_time": 31.429545454545455,
                "end_time": 32.98409090909091,
                "pitch": 35,
                "velocity": 80,
                "duration": 1.5545454545454547,
                "tempo": 120.0
            },
            {
                "start_time": 33.83409090909091,
                "end_time": 35.38181818181818,
                "pitch": 40,
                "velocity": 80,
                "duration": 1.547727272727272,
                "tempo": 120.0
            },
            {
                "start_time": 31.429545454545455,
                "end_time": 35.83181818181818,
                "pitch": 42,
                "velocity": 80,
                "duration": 4.402272727272724,
                "tempo": 120.0
            },
            {
                "start_time": 35.83181818181818,
                "end_time": 37.40909090909091,
                "pitch": 35,
                "velocity": 80,
                "duration": 1.577272727272728,
                "tempo": 120.0
            },
            {
                "start_time": 33.83409090909091,
                "end_time": 38.26136363636363,
                "pitch": 21,
                "velocity": 80,
                "duration": 4.427272727272722,
                "tempo": 120.0
            },
            {
                "start_time": 38.26136363636363,
                "end_time": 39.81818181818181,
                "pitch": 40,
                "velocity": 80,
                "duration": 1.5568181818181799,
                "tempo": 120.0
            },
            {
                "start_time": 35.83181818181818,
                "end_time": 40.252272727272725,
                "pitch": 42,
                "velocity": 80,
                "duration": 4.420454545454547,
                "tempo": 120.0
            },
            {
                "start_time": 40.252272727272725,
                "end_time": 41.81363636363636,
                "pitch": 35,
                "velocity": 80,
                "duration": 1.5613636363636374,
                "tempo": 120.0
            },
            {
                "start_time": 38.26136363636363,
                "end_time": 42.695454545454545,
                "pitch": 21,
                "velocity": 80,
                "duration": 4.434090909090912,
                "tempo": 120.0
            },
            {
                "start_time": 42.695454545454545,
                "end_time": 44.25454545454545,
                "pitch": 40,
                "velocity": 80,
                "duration": 1.559090909090905,
                "tempo": 120.0
            },
            {
                "start_time": 40.252272727272725,
                "end_time": 44.68636363636364,
                "pitch": 42,
                "velocity": 80,
                "duration": 4.434090909090912,
                "tempo": 120.0
            },
            {
                "start_time": 44.68636363636364,
                "end_time": 46.26363636363636,
                "pitch": 35,
                "velocity": 80,
                "duration": 1.577272727272721,
                "tempo": 120.0
            },
            {
                "start_time": 42.695454545454545,
                "end_time": 47.11818181818182,
                "pitch": 21,
                "velocity": 80,
                "duration": 4.422727272727272,
                "tempo": 120.0
            },
            {
                "start_time": 47.11818181818182,
                "end_time": 48.65454545454545,
                "pitch": 40,
                "velocity": 80,
                "duration": 1.5363636363636317,
                "tempo": 120.0
            },
            {
                "start_time": 44.68636363636364,
                "end_time": 49.125,
                "pitch": 42,
                "velocity": 80,
                "duration": 4.438636363636363,
                "tempo": 120.0
            },
            {
                "start_time": 49.125,
                "end_time": 50.68181818181818,
                "pitch": 35,
                "velocity": 80,
                "duration": 1.5568181818181799,
                "tempo": 120.0
            },
            {
                "start_time": 47.11818181818182,
                "end_time": 51.527272727272724,
                "pitch": 21,
                "velocity": 80,
                "duration": 4.4090909090909065,
                "tempo": 120.0
            },
            {
                "start_time": 51.527272727272724,
                "end_time": 53.07272727272727,
                "pitch": 40,
                "velocity": 80,
                "duration": 1.5454545454545467,
                "tempo": 120.0
            },
            {
                "start_time": 53.54090909090909,
                "end_time": 55.08181818181818,
                "pitch": 38,
                "velocity": 80,
                "duration": 1.5409090909090892,
                "tempo": 120.0
            }
        ],
        "Acoustic Grand Piano": [
            {
                "start_time": 0.011363636363636364,
                "end_time": 2.3727272727272726,
                "pitch": 47,
                "velocity": 25,
                "duration": 2.3613636363636363,
                "tempo": 120.0
            },
            {
                "start_time": 3.2227272727272727,
                "end_time": 5.584090909090909,
                "pitch": 47,
                "velocity": 25,
                "duration": 2.3613636363636363,
                "tempo": 120.0
            },
            {
                "start_time": 6.436363636363636,
                "end_time": 8.806818181818182,
                "pitch": 47,
                "velocity": 25,
                "duration": 2.370454545454546,
                "tempo": 120.0
            },
            {
                "start_time": 9.672727272727272,
                "end_time": 12.027272727272727,
                "pitch": 47,
                "velocity": 25,
                "duration": 2.3545454545454554,
                "tempo": 120.0
            },
            {
                "start_time": 12.895454545454545,
                "end_time": 15.256818181818181,
                "pitch": 47,
                "velocity": 25,
                "duration": 2.3613636363636363,
                "tempo": 120.0
            },
            {
                "start_time": 16.113636363636363,
                "end_time": 18.474999999999998,
                "pitch": 47,
                "velocity": 25,
                "duration": 2.3613636363636346,
                "tempo": 120.0
            },
            {
                "start_time": 19.327272727272728,
                "end_time": 21.693181818181817,
                "pitch": 47,
                "velocity": 25,
                "duration": 2.3659090909090885,
                "tempo": 120.0
            },
            {
                "start_time": 22.549999999999997,
                "end_time": 24.111363636363635,
                "pitch": 47,
                "velocity": 25,
                "duration": 1.5613636363636374,
                "tempo": 120.0
            },
            {
                "start_time": 25.77272727272727,
                "end_time": 27.311363636363634,
                "pitch": 45,
                "velocity": 25,
                "duration": 1.538636363636364,
                "tempo": 120.0
            },
            {
                "start_time": 55.13863636363636,
                "end_time": 55.893181818181816,
                "pitch": 59,
                "velocity": 25,
                "duration": 0.7545454545454575,
                "tempo": 120.0
            },
            {
                "start_time": 56.345454545454544,
                "end_time": 57.90909090909091,
                "pitch": 59,
                "velocity": 25,
                "duration": 1.5636363636363626,
                "tempo": 120.0
            },
            {
                "start_time": 58.35454545454545,
                "end_time": 59.131818181818176,
                "pitch": 59,
                "velocity": 25,
                "duration": 0.7772727272727238,
                "tempo": 120.0
            },
            {
                "start_time": 59.58181818181818,
                "end_time": 61.127272727272725,
                "pitch": 59,
                "velocity": 25,
                "duration": 1.5454545454545467,
                "tempo": 120.0
            },
            {
                "start_time": 61.57954545454545,
                "end_time": 62.340909090909086,
                "pitch": 59,
                "velocity": 25,
                "duration": 0.7613636363636331,
                "tempo": 120.0
            },
            {
                "start_time": 62.804545454545455,
                "end_time": 64.35909090909091,
                "pitch": 59,
                "velocity": 25,
                "duration": 1.5545454545454547,
                "tempo": 120.0
            },
            {
                "start_time": 64.81136363636364,
                "end_time": 65.56136363636364,
                "pitch": 59,
                "velocity": 25,
                "duration": 0.75,
                "tempo": 120.0
            },
            {
                "start_time": 66.01818181818182,
                "end_time": 67.55909090909091,
                "pitch": 59,
                "velocity": 25,
                "duration": 1.5409090909090963,
                "tempo": 120.0
            },
            {
                "start_time": 68.02954545454546,
                "end_time": 68.76590909090909,
                "pitch": 59,
                "velocity": 25,
                "duration": 0.7363636363636346,
                "tempo": 120.0
            },
            {
                "start_time": 69.22727272727272,
                "end_time": 70.7840909090909,
                "pitch": 59,
                "velocity": 25,
                "duration": 1.556818181818187,
                "tempo": 120.0
            },
            {
                "start_time": 71.22954545454544,
                "end_time": 72.00454545454545,
                "pitch": 59,
                "velocity": 25,
                "duration": 0.7750000000000057,
                "tempo": 120.0
            },
            {
                "start_time": 72.4590909090909,
                "end_time": 74.00454545454545,
                "pitch": 59,
                "velocity": 25,
                "duration": 1.5454545454545467,
                "tempo": 120.0
            },
            {
                "start_time": 74.4590909090909,
                "end_time": 75.23863636363636,
                "pitch": 59,
                "velocity": 25,
                "duration": 0.7795454545454561,
                "tempo": 120.0
            },
            {
                "start_time": 75.68636363636364,
                "end_time": 77.24772727272727,
                "pitch": 59,
                "velocity": 25,
                "duration": 1.5613636363636374,
                "tempo": 120.0
            },
            {
                "start_time": 77.7090909090909,
                "end_time": 78.4590909090909,
                "pitch": 59,
                "velocity": 25,
                "duration": 0.75,
                "tempo": 120.0
            },
            {
                "start_time": 78.925,
                "end_time": 80.47045454545454,
                "pitch": 59,
                "velocity": 25,
                "duration": 1.5454545454545467,
                "tempo": 120.0
            },
            {
                "start_time": 80.91818181818181,
                "end_time": 81.67954545454545,
                "pitch": 60,
                "velocity": 25,
                "duration": 0.7613636363636402,
                "tempo": 120.0
            },
            {
                "start_time": 82.13181818181818,
                "end_time": 82.89318181818182,
                "pitch": 60,
                "velocity": 25,
                "duration": 0.7613636363636402,
                "tempo": 120.0
            },
            {
                "start_time": 83.33863636363635,
                "end_time": 84.0909090909091,
                "pitch": 60,
                "velocity": 25,
                "duration": 0.7522727272727394,
                "tempo": 120.0
            },
            {
                "start_time": 84.14318181818182,
                "end_time": 84.90227272727272,
                "pitch": 60,
                "velocity": 25,
                "duration": 0.7590909090909008,
                "tempo": 120.0
            },
            {
                "start_time": 85.35909090909091,
                "end_time": 86.10909090909091,
                "pitch": 60,
                "velocity": 25,
                "duration": 0.75,
                "tempo": 120.0
            },
            {
                "start_time": 86.55681818181817,
                "end_time": 87.31818181818181,
                "pitch": 62,
                "velocity": 25,
                "duration": 0.7613636363636402,
                "tempo": 120.0
            },
            {
                "start_time": 87.37045454545454,
                "end_time": 88.12272727272727,
                "pitch": 59,
                "velocity": 25,
                "duration": 0.7522727272727394,
                "tempo": 120.0
            },
            {
                "start_time": 88.5840909090909,
                "end_time": 89.33636363636363,
                "pitch": 59,
                "velocity": 25,
                "duration": 0.7522727272727252,
                "tempo": 120.0
            },
            {
                "start_time": 89.79318181818181,
                "end_time": 90.54318181818181,
                "pitch": 59,
                "velocity": 25,
                "duration": 0.75,
                "tempo": 120.0
            },
            {
                "start_time": 90.59545454545454,
                "end_time": 91.33181818181818,
                "pitch": 59,
                "velocity": 25,
                "duration": 0.7363636363636346,
                "tempo": 120.0
            },
            {
                "start_time": 91.79318181818181,
                "end_time": 92.54545454545455,
                "pitch": 59,
                "velocity": 25,
                "duration": 0.7522727272727394,
                "tempo": 120.0
            },
            {
                "start_time": 92.99090909090908,
                "end_time": 93.75,
                "pitch": 59,
                "velocity": 25,
                "duration": 0.759090909090915,
                "tempo": 120.0
            },
            {
                "start_time": 80.91818181818181,
                "end_time": 93.80227272727272,
                "pitch": 44,
                "velocity": 25,
                "duration": 12.884090909090915,
                "tempo": 120.0
            },
            {
                "start_time": 86.55681818181817,
                "end_time": 94.56136363636364,
                "pitch": 60,
                "velocity": 25,
                "duration": 8.004545454545465,
                "tempo": 120.0
            },
            {
                "start_time": 93.80227272727272,
                "end_time": 94.56136363636364,
                "pitch": 60,
                "velocity": 25,
                "duration": 0.759090909090915,
                "tempo": 120.0
            },
            {
                "start_time": 95.01590909090909,
                "end_time": 95.77045454545454,
                "pitch": 60,
                "velocity": 25,
                "duration": 0.7545454545454504,
                "tempo": 120.0
            },
            {
                "start_time": 96.225,
                "end_time": 96.975,
                "pitch": 60,
                "velocity": 25,
                "duration": 0.75,
                "tempo": 120.0
            },
            {
                "start_time": 55.13863636363636,
                "end_time": 97.77954545454546,
                "pitch": 57,
                "velocity": 25,
                "duration": 42.6409090909091,
                "tempo": 120.0
            },
            {
                "start_time": 97.02954545454546,
                "end_time": 97.77954545454546,
                "pitch": 57,
                "velocity": 25,
                "duration": 0.75,
                "tempo": 120.0
            },
            {
                "start_time": 98.24318181818181,
                "end_time": 98.98636363636363,
                "pitch": 57,
                "velocity": 25,
                "duration": 0.7431818181818244,
                "tempo": 120.0
            },
            {
                "start_time": 99.85454545454544,
                "end_time": 100.19545454545454,
                "pitch": 57,
                "velocity": 25,
                "duration": 0.3409090909090935,
                "tempo": 120.0
            },
            {
                "start_time": 100.24772727272727,
                "end_time": 101.00681818181818,
                "pitch": 59,
                "velocity": 25,
                "duration": 0.7590909090909008,
                "tempo": 120.0
            },
            {
                "start_time": 101.47045454545454,
                "end_time": 102.2090909090909,
                "pitch": 59,
                "velocity": 25,
                "duration": 0.7386363636363598,
                "tempo": 120.0
            },
            {
                "start_time": 102.675,
                "end_time": 103.425,
                "pitch": 59,
                "velocity": 25,
                "duration": 0.75,
                "tempo": 120.0
            },
            {
                "start_time": 103.47954545454544,
                "end_time": 104.22045454545454,
                "pitch": 59,
                "velocity": 25,
                "duration": 0.7409090909090992,
                "tempo": 120.0
            },
            {
                "start_time": 104.675,
                "end_time": 106.22954545454544,
                "pitch": 59,
                "velocity": 25,
                "duration": 1.5545454545454476,
                "tempo": 120.0
            },
            {
                "start_time": 93.80227272727272,
                "end_time": 106.69545454545454,
                "pitch": 44,
                "velocity": 25,
                "duration": 12.893181818181816,
                "tempo": 120.0
            },
            {
                "start_time": 106.69545454545454,
                "end_time": 107.43863636363636,
                "pitch": 60,
                "velocity": 25,
                "duration": 0.7431818181818244,
                "tempo": 120.0
            },
            {
                "start_time": 107.89999999999999,
                "end_time": 108.64999999999999,
                "pitch": 60,
                "velocity": 25,
                "duration": 0.75,
                "tempo": 120.0
            },
            {
                "start_time": 108.70681818181818,
                "end_time": 109.46136363636363,
                "pitch": 60,
                "velocity": 25,
                "duration": 0.7545454545454504,
                "tempo": 120.0
            },
            {
                "start_time": 97.02954545454546,
                "end_time": 109.91363636363636,
                "pitch": 64,
                "velocity": 25,
                "duration": 12.8840909090909,
                "tempo": 120.0
            },
            {
                "start_time": 100.24772727272727,
                "end_time": 110.66363636363636,
                "pitch": 57,
                "velocity": 25,
                "duration": 10.415909090909082,
                "tempo": 120.0
            },
            {
                "start_time": 109.91363636363636,
                "end_time": 110.66363636363636,
                "pitch": 57,
                "velocity": 25,
                "duration": 0.75,
                "tempo": 120.0
            },
            {
                "start_time": 111.12954545454545,
                "end_time": 111.87045454545454,
                "pitch": 57,
                "velocity": 25,
                "duration": 0.740909090909085,
                "tempo": 120.0
            },
            {
                "start_time": 112.3340909090909,
                "end_time": 113.0840909090909,
                "pitch": 57,
                "velocity": 25,
                "duration": 0.75,
                "tempo": 120.0
            },
            {
                "start_time": 113.13636363636363,
                "end_time": 113.88636363636363,
                "pitch": 62,
                "velocity": 25,
                "duration": 0.75,
                "tempo": 120.0
            },
            {
                "start_time": 114.3340909090909,
                "end_time": 116.3090909090909,
                "pitch": 62,
                "velocity": 25,
                "duration": 1.9749999999999943,
                "tempo": 120.0
            }
        ]
    }
}