{
    "track_id": "11 Your Rank",
    "mood": "relaxed",
    "instruments": {
        "Trumpet": [
            {
                "start_time": 0.03409090909090909,
                "end_time": 0.4318181818181818,
                "pitch": 68,
                "velocity": 64,
                "duration": 0.3977272727272727,
                "tempo": 120.0
            },
            {
                "start_time": 0.4340909090909091,
                "end_time": 0.5659090909090909,
                "pitch": 68,
                "velocity": 64,
                "duration": 0.13181818181818183,
                "tempo": 120.0
            },
            {
                "start_time": 0.5681818181818181,
                "end_time": 0.7,
                "pitch": 68,
                "velocity": 64,
                "duration": 0.13181818181818183,
                "tempo": 120.0
            },
            {
                "start_time": 0.7,
                "end_time": 0.8318181818181818,
                "pitch": 68,
                "velocity": 64,
                "duration": 0.13181818181818183,
                "tempo": 120.0
            },
            {
                "start_time": 0.8340909090909091,
                "end_time": 1.034090909090909,
                "pitch": 68,
                "velocity": 64,
                "duration": 0.19999999999999984,
                "tempo": 120.0
            },
            {
                "start_time": 1.034090909090909,
                "end_time": 1.2340909090909091,
                "pitch": 68,
                "velocity": 64,
                "duration": 0.20000000000000018,
                "tempo": 120.0
            },
            {
                "start_time": 1.2340909090909091,
                "end_time": 1.434090909090909,
                "pitch": 68,
                "velocity": 64,
                "duration": 0.19999999999999996,
                "tempo": 120.0
            },
            {
                "start_time": 1.434090909090909,
                "end_time": 1.634090909090909,
                "pitch": 68,
                "velocity": 64,
                "duration": 0.19999999999999996,
                "tempo": 120.0
            },
            {
                "start_time": 1.634090909090909,
                "end_time": 2.034090909090909,
                "pitch": 70,
                "velocity": 64,
                "duration": 0.40000000000000013,
                "tempo": 120.0
            },
            {
                "start_time": 2.036363636363636,
                "end_time": 2.1704545454545454,
                "pitch": 70,
                "velocity": 64,
                "duration": 0.13409090909090926,
                "tempo": 120.0
            },
            {
                "start_time": 2.172727272727273,
                "end_time": 2.309090909090909,
                "pitch": 70,
                "velocity": 64,
                "duration": 0.13636363636363624,
                "tempo": 120.0
            },
            {
                "start_time": 2.309090909090909,
                "end_time": 2.4454545454545453,
                "pitch": 70,
                "velocity": 64,
                "duration": 0.13636363636363624,
                "tempo": 120.0
            },
            {
                "start_time": 2.4454545454545453,
                "end_time": 2.6409090909090907,
                "pitch": 70,
                "velocity": 64,
                "duration": 0.19545454545454533,
                "tempo": 120.0
            },
            {
                "start_time": 2.643181818181818,
                "end_time": 2.8386363636363634,
                "pitch": 70,
                "velocity": 64,
                "duration": 0.19545454545454533,
                "tempo": 120.0
            },
            {
                "start_time": 2.8386363636363634,
                "end_time": 3.0386363636363636,
                "pitch": 70,
                "velocity": 64,
                "duration": 0.20000000000000018,
                "tempo": 120.0
            },
            {
                "start_time": 3.0386363636363636,
                "end_time": 3.2386363636363633,
                "pitch": 70,
                "velocity": 64,
                "duration": 0.19999999999999973,
                "tempo": 120.0
            },
            {
                "start_time": 3.2409090909090907,
                "end_time": 3.65,
                "pitch": 72,
                "velocity": 64,
                "duration": 0.40909090909090917,
                "tempo": 120.0
            },
            {
                "start_time": 3.652272727272727,
                "end_time": 3.7840909090909087,
                "pitch": 72,
                "velocity": 64,
                "duration": 0.13181818181818183,
                "tempo": 120.0
            },
            {
                "start_time": 3.7840909090909087,
                "end_time": 3.918181818181818,
                "pitch": 72,
                "velocity": 64,
                "duration": 0.13409090909090926,
                "tempo": 120.0
            },
            {
                "start_time": 3.918181818181818,
                "end_time": 4.05,
                "pitch": 72,
                "velocity": 64,
                "duration": 0.13181818181818183,
                "tempo": 120.0
            },
            {
                "start_time": 4.052272727272727,
                "end_time": 4.25,
                "pitch": 72,
                "velocity": 64,
                "duration": 0.1977272727272732,
                "tempo": 120.0
            },
            {
                "start_time": 4.252272727272727,
                "end_time": 4.452272727272727,
                "pitch": 72,
                "velocity": 64,
                "duration": 0.20000000000000018,
                "tempo": 120.0
            },
            {
                "start_time": 4.452272727272727,
                "end_time": 4.652272727272727,
                "pitch": 72,
                "velocity": 64,
                "duration": 0.20000000000000018,
                "tempo": 120.0
            },
            {
                "start_time": 4.654545454545454,
                "end_time": 4.8545454545454545,
                "pitch": 72,
                "velocity": 64,
                "duration": 0.20000000000000018,
                "tempo": 120.0
            },
            {
                "start_time": 4.8545454545454545,
                "end_time": 5.054545454545455,
                "pitch": 72,
                "velocity": 64,
                "duration": 0.20000000000000018,
                "tempo": 120.0
            },
            {
                "start_time": 5.054545454545455,
                "end_time": 5.254545454545454,
                "pitch": 73,
                "velocity": 64,
                "duration": 0.1999999999999993,
                "tempo": 120.0
            },
            {
                "start_time": 5.256818181818182,
                "end_time": 5.456818181818181,
                "pitch": 75,
                "velocity": 64,
                "duration": 0.1999999999999993,
                "tempo": 120.0
            },
            {
                "start_time": 5.456818181818181,
                "end_time": 5.659090909090909,
                "pitch": 77,
                "velocity": 64,
                "duration": 0.20227272727272805,
                "tempo": 120.0
            },
            {
                "start_time": 5.659090909090909,
                "end_time": 5.8590909090909085,
                "pitch": 78,
                "velocity": 64,
                "duration": 0.1999999999999993,
                "tempo": 120.0
            },
            {
                "start_time": 5.8590909090909085,
                "end_time": 6.059090909090909,
                "pitch": 80,
                "velocity": 64,
                "duration": 0.20000000000000018,
                "tempo": 120.0
            },
            {
                "start_time": 6.059090909090909,
                "end_time": 6.259090909090909,
                "pitch": 82,
                "velocity": 64,
                "duration": 0.20000000000000018,
                "tempo": 120.0
            },
            {
                "start_time": 6.261363636363636,
                "end_time": 6.463636363636363,
                "pitch": 84,
                "velocity": 64,
                "duration": 0.20227272727272716,
                "tempo": 120.0
            },
            {
                "start_time": 32.220454545454544,
                "end_time": 32.22727272727273,
                "pitch": 68,
                "velocity": 64,
                "duration": 0.0068181818181827225,
                "tempo": 120.0
            }
        ],
        "French Horn": [
            {
                "start_time": 6.463636363636363,
                "end_time": 6.86590909090909,
                "pitch": 56,
                "velocity": 101,
                "duration": 0.40227272727272734,
                "tempo": 120.0
            },
            {
                "start_time": 6.86590909090909,
                "end_time": 6.997727272727272,
                "pitch": 61,
                "velocity": 101,
                "duration": 0.13181818181818183,
                "tempo": 120.0
            },
            {
                "start_time": 7.0,
                "end_time": 7.131818181818182,
                "pitch": 60,
                "velocity": 101,
                "duration": 0.13181818181818183,
                "tempo": 120.0
            },
            {
                "start_time": 7.131818181818182,
                "end_time": 7.265909090909091,
                "pitch": 61,
                "velocity": 101,
                "duration": 0.13409090909090882,
                "tempo": 120.0
            },
            {
                "start_time": 7.265909090909091,
                "end_time": 7.668181818181818,
                "pitch": 60,
                "velocity": 101,
                "duration": 0.40227272727272734,
                "tempo": 120.0
            },
            {
                "start_time": 7.670454545454545,
                "end_time": 8.068181818181818,
                "pitch": 56,
                "velocity": 101,
                "duration": 0.3977272727272734,
                "tempo": 120.0
            },
            {
                "start_time": 8.070454545454545,
                "end_time": 8.872727272727273,
                "pitch": 58,
                "velocity": 101,
                "duration": 0.8022727272727277,
                "tempo": 120.0
            },
            {
                "start_time": 8.872727272727273,
                "end_time": 9.275,
                "pitch": 54,
                "velocity": 101,
                "duration": 0.40227272727272734,
                "tempo": 120.0
            },
            {
                "start_time": 9.277272727272727,
                "end_time": 9.679545454545455,
                "pitch": 58,
                "velocity": 101,
                "duration": 0.40227272727272734,
                "tempo": 120.0
            },
            {
                "start_time": 9.679545454545455,
                "end_time": 10.48181818181818,
                "pitch": 61,
                "velocity": 101,
                "duration": 0.8022727272727259,
                "tempo": 120.0
            },
            {
                "start_time": 10.48409090909091,
                "end_time": 11.297727272727272,
                "pitch": 60,
                "velocity": 101,
                "duration": 0.8136363636363626,
                "tempo": 120.0
            },
            {
                "start_time": 11.297727272727272,
                "end_time": 11.69090909090909,
                "pitch": 57,
                "velocity": 101,
                "duration": 0.39318181818181763,
                "tempo": 120.0
            },
            {
                "start_time": 11.69090909090909,
                "end_time": 12.102272727272727,
                "pitch": 60,
                "velocity": 101,
                "duration": 0.41136363636363704,
                "tempo": 120.0
            },
            {
                "start_time": 12.102272727272727,
                "end_time": 12.504545454545454,
                "pitch": 61,
                "velocity": 101,
                "duration": 0.40227272727272734,
                "tempo": 120.0
            },
            {
                "start_time": 12.504545454545454,
                "end_time": 12.904545454545454,
                "pitch": 63,
                "velocity": 101,
                "duration": 0.40000000000000036,
                "tempo": 120.0
            },
            {
                "start_time": 12.906818181818181,
                "end_time": 13.711363636363636,
                "pitch": 61,
                "velocity": 101,
                "duration": 0.8045454545454547,
                "tempo": 120.0
            },
            {
                "start_time": 13.711363636363636,
                "end_time": 14.11590909090909,
                "pitch": 60,
                "velocity": 101,
                "duration": 0.4045454545454543,
                "tempo": 120.0
            },
            {
                "start_time": 14.11590909090909,
                "end_time": 14.518181818181818,
                "pitch": 58,
                "velocity": 101,
                "duration": 0.40227272727272734,
                "tempo": 120.0
            },
            {
                "start_time": 14.518181818181818,
                "end_time": 15.322727272727272,
                "pitch": 56,
                "velocity": 101,
                "duration": 0.8045454545454547,
                "tempo": 120.0
            },
            {
                "start_time": 15.322727272727272,
                "end_time": 15.725,
                "pitch": 54,
                "velocity": 101,
                "duration": 0.40227272727272734,
                "tempo": 120.0
            },
            {
                "start_time": 15.725,
                "end_time": 16.129545454545454,
                "pitch": 58,
                "velocity": 101,
                "duration": 0.4045454545454543,
                "tempo": 120.0
            },
            {
                "start_time": 16.129545454545454,
                "end_time": 16.53181818181818,
                "pitch": 54,
                "velocity": 101,
                "duration": 0.40227272727272734,
                "tempo": 120.0
            },
            {
                "start_time": 16.53181818181818,
                "end_time": 16.66590909090909,
                "pitch": 58,
                "velocity": 101,
                "duration": 0.13409090909090793,
                "tempo": 120.0
            },
            {
                "start_time": 16.66590909090909,
                "end_time": 16.797727272727272,
                "pitch": 60,
                "velocity": 101,
                "duration": 0.13181818181818272,
                "tempo": 120.0
            },
            {
                "start_time": 16.8,
                "end_time": 16.93181818181818,
                "pitch": 61,
                "velocity": 101,
                "duration": 0.13181818181817917,
                "tempo": 120.0
            },
            {
                "start_time": 16.93181818181818,
                "end_time": 17.334090909090907,
                "pitch": 60,
                "velocity": 101,
                "duration": 0.40227272727272734,
                "tempo": 120.0
            },
            {
                "start_time": 17.336363636363636,
                "end_time": 17.736363636363635,
                "pitch": 58,
                "velocity": 101,
                "duration": 0.3999999999999986,
                "tempo": 120.0
            },
            {
                "start_time": 17.736363636363635,
                "end_time": 18.547727272727272,
                "pitch": 58,
                "velocity": 101,
                "duration": 0.8113636363636374,
                "tempo": 120.0
            },
            {
                "start_time": 18.547727272727272,
                "end_time": 19.352272727272727,
                "pitch": 56,
                "velocity": 101,
                "duration": 0.8045454545454547,
                "tempo": 120.0
            },
            {
                "start_time": 19.352272727272727,
                "end_time": 19.754545454545454,
                "pitch": 56,
                "velocity": 101,
                "duration": 0.40227272727272734,
                "tempo": 120.0
            },
            {
                "start_time": 19.754545454545454,
                "end_time": 19.888636363636362,
                "pitch": 61,
                "velocity": 101,
                "duration": 0.13409090909090793,
                "tempo": 120.0
            },
            {
                "start_time": 19.888636363636362,
                "end_time": 20.020454545454545,
                "pitch": 60,
                "velocity": 101,
                "duration": 0.13181818181818272,
                "tempo": 120.0
            },
            {
                "start_time": 20.022727272727273,
                "end_time": 20.154545454545453,
                "pitch": 61,
                "velocity": 101,
                "duration": 0.13181818181817917,
                "tempo": 120.0
            },
            {
                "start_time": 20.15681818181818,
                "end_time": 20.554545454545455,
                "pitch": 60,
                "velocity": 101,
                "duration": 0.3977272727272734,
                "tempo": 120.0
            },
            {
                "start_time": 20.55681818181818,
                "end_time": 20.959090909090907,
                "pitch": 56,
                "velocity": 101,
                "duration": 0.40227272727272734,
                "tempo": 120.0
            },
            {
                "start_time": 20.959090909090907,
                "end_time": 21.761363636363637,
                "pitch": 58,
                "velocity": 101,
                "duration": 0.8022727272727295,
                "tempo": 120.0
            },
            {
                "start_time": 21.763636363636362,
                "end_time": 22.163636363636364,
                "pitch": 54,
                "velocity": 101,
                "duration": 0.40000000000000213,
                "tempo": 120.0
            },
            {
                "start_time": 22.163636363636364,
                "end_time": 22.563636363636363,
                "pitch": 58,
                "velocity": 101,
                "duration": 0.3999999999999986,
                "tempo": 120.0
            },
            {
                "start_time": 22.563636363636363,
                "end_time": 23.368181818181817,
                "pitch": 61,
                "velocity": 101,
                "duration": 0.8045454545454547,
                "tempo": 120.0
            },
            {
                "start_time": 23.368181818181817,
                "end_time": 24.170454545454543,
                "pitch": 60,
                "velocity": 101,
                "duration": 0.8022727272727259,
                "tempo": 120.0
            },
            {
                "start_time": 24.172727272727272,
                "end_time": 24.570454545454545,
                "pitch": 57,
                "velocity": 101,
                "duration": 0.3977272727272734,
                "tempo": 120.0
            },
            {
                "start_time": 24.57272727272727,
                "end_time": 24.974999999999998,
                "pitch": 60,
                "velocity": 101,
                "duration": 0.40227272727272734,
                "tempo": 120.0
            },
            {
                "start_time": 24.974999999999998,
                "end_time": 25.375,
                "pitch": 61,
                "velocity": 101,
                "duration": 0.40000000000000213,
                "tempo": 120.0
            },
            {
                "start_time": 25.375,
                "end_time": 25.779545454545453,
                "pitch": 63,
                "velocity": 101,
                "duration": 0.40454545454545254,
                "tempo": 120.0
            },
            {
                "start_time": 25.779545454545453,
                "end_time": 26.59090909090909,
                "pitch": 61,
                "velocity": 101,
                "duration": 0.8113636363636374,
                "tempo": 120.0
            },
            {
                "start_time": 26.59090909090909,
                "end_time": 26.99090909090909,
                "pitch": 60,
                "velocity": 101,
                "duration": 0.3999999999999986,
                "tempo": 120.0
            },
            {
                "start_time": 26.99090909090909,
                "end_time": 27.393181818181816,
                "pitch": 58,
                "velocity": 101,
                "duration": 0.40227272727272734,
                "tempo": 120.0
            },
            {
                "start_time": 27.395454545454545,
                "end_time": 28.19772727272727,
                "pitch": 56,
                "velocity": 101,
                "duration": 0.8022727272727259,
                "tempo": 120.0
            },
            {
                "start_time": 28.19772727272727,
                "end_time": 28.597727272727273,
                "pitch": 54,
                "velocity": 101,
                "duration": 0.40000000000000213,
                "tempo": 120.0
            },
            {
                "start_time": 28.599999999999998,
                "end_time": 29.0,
                "pitch": 58,
                "velocity": 101,
                "duration": 0.40000000000000213,
                "tempo": 120.0
            },
            {
                "start_time": 29.0,
                "end_time": 29.402272727272727,
                "pitch": 54,
                "velocity": 101,
                "duration": 0.40227272727272734,
                "tempo": 120.0
            },
            {
                "start_time": 29.402272727272727,
                "end_time": 29.536363636363635,
                "pitch": 58,
                "velocity": 101,
                "duration": 0.13409090909090793,
                "tempo": 120.0
            },
            {
                "start_time": 29.536363636363635,
                "end_time": 29.668181818181818,
                "pitch": 60,
                "velocity": 101,
                "duration": 0.13181818181818272,
                "tempo": 120.0
            },
            {
                "start_time": 29.670454545454543,
                "end_time": 29.802272727272726,
                "pitch": 61,
                "velocity": 101,
                "duration": 0.13181818181818272,
                "tempo": 120.0
            },
            {
                "start_time": 29.804545454545455,
                "end_time": 30.206818181818182,
                "pitch": 60,
                "velocity": 101,
                "duration": 0.40227272727272734,
                "tempo": 120.0
            },
            {
                "start_time": 30.206818181818182,
                "end_time": 30.60681818181818,
                "pitch": 56,
                "velocity": 101,
                "duration": 0.3999999999999986,
                "tempo": 120.0
            },
            {
                "start_time": 30.60681818181818,
                "end_time": 32.21363636363636,
                "pitch": 61,
                "velocity": 101,
                "duration": 1.6068181818181806,
                "tempo": 120.0
            }
        ],
        "Vibraphone": [
            {
                "start_time": 6.465909090909091,
                "end_time": 6.868181818181818,
                "pitch": 80,
                "velocity": 51,
                "duration": 0.40227272727272734,
                "tempo": 120.0
            },
            {
                "start_time": 8.072727272727272,
                "end_time": 8.470454545454546,
                "pitch": 82,
                "velocity": 51,
                "duration": 0.3977272727272734,
                "tempo": 120.0
            },
            {
                "start_time": 9.681818181818182,
                "end_time": 10.084090909090909,
                "pitch": 82,
                "velocity": 51,
                "duration": 0.40227272727272734,
                "tempo": 120.0
            },
            {
                "start_time": 10.486363636363636,
                "end_time": 10.895454545454545,
                "pitch": 84,
                "velocity": 51,
                "duration": 0.4090909090909083,
                "tempo": 120.0
            },
            {
                "start_time": 11.299999999999999,
                "end_time": 11.693181818181818,
                "pitch": 81,
                "velocity": 51,
                "duration": 0.3931818181818194,
                "tempo": 120.0
            },
            {
                "start_time": 11.693181818181818,
                "end_time": 12.104545454545454,
                "pitch": 84,
                "velocity": 51,
                "duration": 0.41136363636363527,
                "tempo": 120.0
            },
            {
                "start_time": 12.104545454545454,
                "end_time": 12.506818181818181,
                "pitch": 85,
                "velocity": 51,
                "duration": 0.40227272727272734,
                "tempo": 120.0
            },
            {
                "start_time": 12.506818181818181,
                "end_time": 12.906818181818181,
                "pitch": 87,
                "velocity": 51,
                "duration": 0.40000000000000036,
                "tempo": 120.0
            },
            {
                "start_time": 12.909090909090908,
                "end_time": 13.309090909090909,
                "pitch": 85,
                "velocity": 51,
                "duration": 0.40000000000000036,
                "tempo": 120.0
            },
            {
                "start_time": 14.520454545454545,
                "end_time": 14.918181818181818,
                "pitch": 80,
                "velocity": 51,
                "duration": 0.3977272727272734,
                "tempo": 120.0
            },
            {
                "start_time": 16.131818181818183,
                "end_time": 16.53409090909091,
                "pitch": 78,
                "velocity": 51,
                "duration": 0.40227272727272734,
                "tempo": 120.0
            },
            {
                "start_time": 16.93409090909091,
                "end_time": 17.33863636363636,
                "pitch": 84,
                "velocity": 51,
                "duration": 0.40454545454545254,
                "tempo": 120.0
            },
            {
                "start_time": 17.738636363636363,
                "end_time": 18.147727272727273,
                "pitch": 82,
                "velocity": 51,
                "duration": 0.40909090909091006,
                "tempo": 120.0
            },
            {
                "start_time": 18.55,
                "end_time": 18.952272727272728,
                "pitch": 82,
                "velocity": 51,
                "duration": 0.40227272727272734,
                "tempo": 120.0
            },
            {
                "start_time": 19.354545454545452,
                "end_time": 19.75681818181818,
                "pitch": 80,
                "velocity": 51,
                "duration": 0.40227272727272734,
                "tempo": 120.0
            },
            {
                "start_time": 20.961363636363636,
                "end_time": 21.35909090909091,
                "pitch": 82,
                "velocity": 51,
                "duration": 0.3977272727272734,
                "tempo": 120.0
            },
            {
                "start_time": 22.568181818181817,
                "end_time": 22.96818181818182,
                "pitch": 82,
                "velocity": 51,
                "duration": 0.40000000000000213,
                "tempo": 120.0
            },
            {
                "start_time": 23.370454545454546,
                "end_time": 23.770454545454545,
                "pitch": 84,
                "velocity": 51,
                "duration": 0.3999999999999986,
                "tempo": 120.0
            },
            {
                "start_time": 24.174999999999997,
                "end_time": 24.57272727272727,
                "pitch": 81,
                "velocity": 51,
                "duration": 0.3977272727272734,
                "tempo": 120.0
            },
            {
                "start_time": 24.575,
                "end_time": 24.977272727272727,
                "pitch": 84,
                "velocity": 51,
                "duration": 0.40227272727272734,
                "tempo": 120.0
            },
            {
                "start_time": 24.977272727272727,
                "end_time": 25.377272727272725,
                "pitch": 85,
                "velocity": 51,
                "duration": 0.3999999999999986,
                "tempo": 120.0
            },
            {
                "start_time": 25.377272727272725,
                "end_time": 25.78181818181818,
                "pitch": 87,
                "velocity": 51,
                "duration": 0.4045454545454561,
                "tempo": 120.0
            },
            {
                "start_time": 25.78181818181818,
                "end_time": 26.179545454545455,
                "pitch": 85,
                "velocity": 51,
                "duration": 0.3977272727272734,
                "tempo": 120.0
            },
            {
                "start_time": 27.39772727272727,
                "end_time": 27.786363636363635,
                "pitch": 80,
                "velocity": 51,
                "duration": 0.38863636363636545,
                "tempo": 120.0
            },
            {
                "start_time": 29.002272727272725,
                "end_time": 29.404545454545453,
                "pitch": 78,
                "velocity": 51,
                "duration": 0.40227272727272734,
                "tempo": 120.0
            },
            {
                "start_time": 29.80681818181818,
                "end_time": 30.209090909090907,
                "pitch": 82,
                "velocity": 51,
                "duration": 0.40227272727272734,
                "tempo": 120.0
            },
            {
                "start_time": 30.60909090909091,
                "end_time": 31.00681818181818,
                "pitch": 85,
                "velocity": 51,
                "duration": 0.3977272727272698,
                "tempo": 120.0
            }
        ],
        "Flute": [
            {
                "start_time": 6.465909090909091,
                "end_time": 6.86590909090909,
                "pitch": 68,
                "velocity": 101,
                "duration": 0.39999999999999947,
                "tempo": 120.0
            },
            {
                "start_time": 6.868181818181818,
                "end_time": 7.0,
                "pitch": 73,
                "velocity": 101,
                "duration": 0.13181818181818183,
                "tempo": 120.0
            },
            {
                "start_time": 7.0,
                "end_time": 7.131818181818182,
                "pitch": 72,
                "velocity": 101,
                "duration": 0.13181818181818183,
                "tempo": 120.0
            },
            {
                "start_time": 7.134090909090909,
                "end_time": 7.265909090909091,
                "pitch": 73,
                "velocity": 101,
                "duration": 0.13181818181818183,
                "tempo": 120.0
            },
            {
                "start_time": 7.268181818181818,
                "end_time": 7.670454545454545,
                "pitch": 72,
                "velocity": 101,
                "duration": 0.40227272727272734,
                "tempo": 120.0
            },
            {
                "start_time": 7.670454545454545,
                "end_time": 8.070454545454545,
                "pitch": 68,
                "velocity": 101,
                "duration": 0.40000000000000036,
                "tempo": 120.0
            },
            {
                "start_time": 8.070454545454545,
                "end_time": 8.872727272727273,
                "pitch": 70,
                "velocity": 101,
                "duration": 0.8022727272727277,
                "tempo": 120.0
            },
            {
                "start_time": 8.875,
                "end_time": 9.277272727272727,
                "pitch": 66,
                "velocity": 101,
                "duration": 0.40227272727272734,
                "tempo": 120.0
            },
            {
                "start_time": 9.277272727272727,
                "end_time": 9.679545454545455,
                "pitch": 70,
                "velocity": 101,
                "duration": 0.40227272727272734,
                "tempo": 120.0
            },
            {
                "start_time": 9.681818181818182,
                "end_time": 10.48409090909091,
                "pitch": 73,
                "velocity": 101,
                "duration": 0.8022727272727277,
                "tempo": 120.0
            },
            {
                "start_time": 10.48409090909091,
                "end_time": 11.297727272727272,
                "pitch": 72,
                "velocity": 101,
                "duration": 0.8136363636363626,
                "tempo": 120.0
            },
            {
                "start_time": 11.299999999999999,
                "end_time": 11.69090909090909,
                "pitch": 69,
                "velocity": 101,
                "duration": 0.39090909090909065,
                "tempo": 120.0
            },
            {
                "start_time": 11.693181818181818,
                "end_time": 12.102272727272727,
                "pitch": 72,
                "velocity": 101,
                "duration": 0.4090909090909083,
                "tempo": 120.0
            },
            {
                "start_time": 12.104545454545454,
                "end_time": 12.504545454545454,
                "pitch": 73,
                "velocity": 101,
                "duration": 0.40000000000000036,
                "tempo": 120.0
            },
            {
                "start_time": 12.506818181818181,
                "end_time": 12.906818181818181,
                "pitch": 75,
                "velocity": 101,
                "duration": 0.40000000000000036,
                "tempo": 120.0
            },
            {
                "start_time": 12.906818181818181,
                "end_time": 13.713636363636363,
                "pitch": 73,
                "velocity": 101,
                "duration": 0.8068181818181817,
                "tempo": 120.0
            },
            {
                "start_time": 13.713636363636363,
                "end_time": 14.11590909090909,
                "pitch": 72,
                "velocity": 101,
                "duration": 0.40227272727272734,
                "tempo": 120.0
            },
            {
                "start_time": 14.118181818181817,
                "end_time": 14.518181818181818,
                "pitch": 70,
                "velocity": 101,
                "duration": 0.40000000000000036,
                "tempo": 120.0
            },
            {
                "start_time": 14.520454545454545,
                "end_time": 15.322727272727272,
                "pitch": 68,
                "velocity": 101,
                "duration": 0.8022727272727277,
                "tempo": 120.0
            },
            {
                "start_time": 15.322727272727272,
                "end_time": 15.725,
                "pitch": 66,
                "velocity": 101,
                "duration": 0.40227272727272734,
                "tempo": 120.0
            },
            {
                "start_time": 15.727272727272727,
                "end_time": 16.129545454545454,
                "pitch": 70,
                "velocity": 101,
                "duration": 0.40227272727272734,
                "tempo": 120.0
            },
            {
                "start_time": 16.129545454545454,
                "end_time": 16.53181818181818,
                "pitch": 66,
                "velocity": 101,
                "duration": 0.40227272727272734,
                "tempo": 120.0
            },
            {
                "start_time": 16.53409090909091,
                "end_time": 16.66590909090909,
                "pitch": 70,
                "velocity": 101,
                "duration": 0.13181818181817917,
                "tempo": 120.0
            },
            {
                "start_time": 16.668181818181818,
                "end_time": 16.8,
                "pitch": 72,
                "velocity": 101,
                "duration": 0.13181818181818272,
                "tempo": 120.0
            },
            {
                "start_time": 16.8,
                "end_time": 16.93181818181818,
                "pitch": 73,
                "velocity": 101,
                "duration": 0.13181818181817917,
                "tempo": 120.0
            },
            {
                "start_time": 16.93409090909091,
                "end_time": 17.336363636363636,
                "pitch": 72,
                "velocity": 101,
                "duration": 0.40227272727272734,
                "tempo": 120.0
            },
            {
                "start_time": 17.336363636363636,
                "end_time": 17.736363636363635,
                "pitch": 70,
                "velocity": 101,
                "duration": 0.3999999999999986,
                "tempo": 120.0
            },
            {
                "start_time": 17.738636363636363,
                "end_time": 18.547727272727272,
                "pitch": 70,
                "velocity": 101,
                "duration": 0.8090909090909086,
                "tempo": 120.0
            },
            {
                "start_time": 18.55,
                "end_time": 19.352272727272727,
                "pitch": 68,
                "velocity": 101,
                "duration": 0.8022727272727259,
                "tempo": 120.0
            },
            {
                "start_time": 19.354545454545452,
                "end_time": 19.754545454545454,
                "pitch": 68,
                "velocity": 101,
                "duration": 0.40000000000000213,
                "tempo": 120.0
            },
            {
                "start_time": 19.75681818181818,
                "end_time": 19.888636363636362,
                "pitch": 73,
                "velocity": 101,
                "duration": 0.13181818181818272,
                "tempo": 120.0
            },
            {
                "start_time": 19.89090909090909,
                "end_time": 20.022727272727273,
                "pitch": 72,
                "velocity": 101,
                "duration": 0.13181818181818272,
                "tempo": 120.0
            },
            {
                "start_time": 20.022727272727273,
                "end_time": 20.15681818181818,
                "pitch": 73,
                "velocity": 101,
                "duration": 0.13409090909090793,
                "tempo": 120.0
            },
            {
                "start_time": 20.15681818181818,
                "end_time": 20.55681818181818,
                "pitch": 72,
                "velocity": 101,
                "duration": 0.3999999999999986,
                "tempo": 120.0
            },
            {
                "start_time": 20.55681818181818,
                "end_time": 20.959090909090907,
                "pitch": 68,
                "velocity": 101,
                "duration": 0.40227272727272734,
                "tempo": 120.0
            },
            {
                "start_time": 20.961363636363636,
                "end_time": 21.763636363636362,
                "pitch": 70,
                "velocity": 101,
                "duration": 0.8022727272727259,
                "tempo": 120.0
            },
            {
                "start_time": 21.763636363636362,
                "end_time": 22.163636363636364,
                "pitch": 66,
                "velocity": 101,
                "duration": 0.40000000000000213,
                "tempo": 120.0
            },
            {
                "start_time": 22.16590909090909,
                "end_time": 22.56590909090909,
                "pitch": 70,
                "velocity": 101,
                "duration": 0.40000000000000213,
                "tempo": 120.0
            },
            {
                "start_time": 22.56590909090909,
                "end_time": 23.368181818181817,
                "pitch": 73,
                "velocity": 101,
                "duration": 0.8022727272727259,
                "tempo": 120.0
            },
            {
                "start_time": 23.370454545454546,
                "end_time": 24.172727272727272,
                "pitch": 72,
                "velocity": 101,
                "duration": 0.8022727272727259,
                "tempo": 120.0
            },
            {
                "start_time": 24.172727272727272,
                "end_time": 24.57272727272727,
                "pitch": 69,
                "velocity": 101,
                "duration": 0.3999999999999986,
                "tempo": 120.0
            },
            {
                "start_time": 24.57272727272727,
                "end_time": 24.974999999999998,
                "pitch": 72,
                "velocity": 101,
                "duration": 0.40227272727272734,
                "tempo": 120.0
            },
            {
                "start_time": 24.977272727272727,
                "end_time": 25.375,
                "pitch": 73,
                "velocity": 101,
                "duration": 0.3977272727272734,
                "tempo": 120.0
            },
            {
                "start_time": 25.377272727272725,
                "end_time": 25.779545454545453,
                "pitch": 75,
                "velocity": 101,
                "duration": 0.40227272727272734,
                "tempo": 120.0
            },
            {
                "start_time": 25.78181818181818,
                "end_time": 26.59090909090909,
                "pitch": 73,
                "velocity": 101,
                "duration": 0.8090909090909086,
                "tempo": 120.0
            },
            {
                "start_time": 26.593181818181815,
                "end_time": 26.99090909090909,
                "pitch": 72,
                "velocity": 101,
                "duration": 0.3977272727272734,
                "tempo": 120.0
            },
            {
                "start_time": 26.993181818181817,
                "end_time": 27.395454545454545,
                "pitch": 70,
                "velocity": 101,
                "duration": 0.40227272727272734,
                "tempo": 120.0
            },
            {
                "start_time": 27.395454545454545,
                "end_time": 28.19772727272727,
                "pitch": 68,
                "velocity": 101,
                "duration": 0.8022727272727259,
                "tempo": 120.0
            },
            {
                "start_time": 28.2,
                "end_time": 28.599999999999998,
                "pitch": 66,
                "velocity": 101,
                "duration": 0.3999999999999986,
                "tempo": 120.0
            },
            {
                "start_time": 28.599999999999998,
                "end_time": 29.0,
                "pitch": 70,
                "velocity": 101,
                "duration": 0.40000000000000213,
                "tempo": 120.0
            },
            {
                "start_time": 29.002272727272725,
                "end_time": 29.402272727272727,
                "pitch": 66,
                "velocity": 101,
                "duration": 0.40000000000000213,
                "tempo": 120.0
            },
            {
                "start_time": 29.404545454545453,
                "end_time": 29.536363636363635,
                "pitch": 70,
                "velocity": 101,
                "duration": 0.13181818181818272,
                "tempo": 120.0
            },
            {
                "start_time": 29.53863636363636,
                "end_time": 29.670454545454543,
                "pitch": 72,
                "velocity": 101,
                "duration": 0.13181818181818272,
                "tempo": 120.0
            },
            {
                "start_time": 29.670454545454543,
                "end_time": 29.804545454545455,
                "pitch": 73,
                "velocity": 101,
                "duration": 0.13409090909091148,
                "tempo": 120.0
            },
            {
                "start_time": 29.804545454545455,
                "end_time": 30.206818181818182,
                "pitch": 72,
                "velocity": 101,
                "duration": 0.40227272727272734,
                "tempo": 120.0
            },
            {
                "start_time": 30.209090909090907,
                "end_time": 30.60681818181818,
                "pitch": 68,
                "velocity": 101,
                "duration": 0.3977272727272734,
                "tempo": 120.0
            },
            {
                "start_time": 30.60909090909091,
                "end_time": 32.21363636363636,
                "pitch": 73,
                "velocity": 101,
                "duration": 1.6045454545454518,
                "tempo": 120.0
            }
        ]
    }
}