{
    "track_id": "12 Event Clear",
    "mood": "relaxed",
    "instruments": {
        "Vibraphone": [
            {
                "start_time": 0.0,
                "end_time": 0.09545454545454544,
                "pitch": 71,
                "velocity": 64,
                "duration": 0.09545454545454544,
                "tempo": 120.0
            },
            {
                "start_time": 0.12954545454545455,
                "end_time": 0.22954545454545452,
                "pitch": 76,
                "velocity": 64,
                "duration": 0.09999999999999998,
                "tempo": 120.0
            },
            {
                "start_time": 0.2636363636363636,
                "end_time": 0.36363636363636365,
                "pitch": 83,
                "velocity": 64,
                "duration": 0.10000000000000003,
                "tempo": 120.0
            },
            {
                "start_time": 0.12954545454545455,
                "end_time": 0.3977272727272727,
                "pitch": 56,
                "velocity": 64,
                "duration": 0.2681818181818182,
                "tempo": 120.0
            },
            {
                "start_time": 0.3977272727272727,
                "end_time": 0.4977272727272727,
                "pitch": 76,
                "velocity": 64,
                "duration": 0.09999999999999998,
                "tempo": 120.0
            },
            {
                "start_time": 0.5318181818181817,
                "end_time": 0.6318181818181818,
                "pitch": 71,
                "velocity": 64,
                "duration": 0.10000000000000009,
                "tempo": 120.0
            },
            {
                "start_time": 0.3977272727272727,
                "end_time": 0.6636363636363636,
                "pitch": 56,
                "velocity": 64,
                "duration": 0.2659090909090909,
                "tempo": 120.0
            },
            {
                "start_time": 0.6636363636363636,
                "end_time": 0.7636363636363636,
                "pitch": 76,
                "velocity": 64,
                "duration": 0.09999999999999998,
                "tempo": 120.0
            },
            {
                "start_time": 0.2636363636363636,
                "end_time": 0.7977272727272727,
                "pitch": 90,
                "velocity": 64,
                "duration": 0.5340909090909092,
                "tempo": 120.0
            },
            {
                "start_time": 0.7977272727272727,
                "end_time": 0.8977272727272727,
                "pitch": 83,
                "velocity": 64,
                "duration": 0.09999999999999998,
                "tempo": 120.0
            },
            {
                "start_time": 0.6636363636363636,
                "end_time": 0.9318181818181818,
                "pitch": 56,
                "velocity": 64,
                "duration": 0.2681818181818182,
                "tempo": 120.0
            },
            {
                "start_time": 0.9318181818181818,
                "end_time": 1.0318181818181817,
                "pitch": 76,
                "velocity": 64,
                "duration": 0.09999999999999998,
                "tempo": 120.0
            },
            {
                "start_time": 0.5318181818181817,
                "end_time": 1.065909090909091,
                "pitch": 78,
                "velocity": 64,
                "duration": 0.5340909090909092,
                "tempo": 120.0
            },
            {
                "start_time": 1.065909090909091,
                "end_time": 1.1659090909090908,
                "pitch": 71,
                "velocity": 64,
                "duration": 0.09999999999999987,
                "tempo": 120.0
            },
            {
                "start_time": 0.9318181818181818,
                "end_time": 1.2,
                "pitch": 56,
                "velocity": 64,
                "duration": 0.2681818181818182,
                "tempo": 120.0
            },
            {
                "start_time": 1.2,
                "end_time": 1.3,
                "pitch": 76,
                "velocity": 64,
                "duration": 0.10000000000000009,
                "tempo": 120.0
            },
            {
                "start_time": 0.7977272727272727,
                "end_time": 1.334090909090909,
                "pitch": 90,
                "velocity": 64,
                "duration": 0.5363636363636363,
                "tempo": 120.0
            },
            {
                "start_time": 1.334090909090909,
                "end_time": 1.434090909090909,
                "pitch": 83,
                "velocity": 64,
                "duration": 0.10000000000000009,
                "tempo": 120.0
            },
            {
                "start_time": 1.2,
                "end_time": 1.468181818181818,
                "pitch": 56,
                "velocity": 64,
                "duration": 0.2681818181818181,
                "tempo": 120.0
            },
            {
                "start_time": 1.468181818181818,
                "end_time": 1.5681818181818181,
                "pitch": 76,
                "velocity": 64,
                "duration": 0.10000000000000009,
                "tempo": 120.0
            },
            {
                "start_time": 1.065909090909091,
                "end_time": 1.5999999999999999,
                "pitch": 78,
                "velocity": 64,
                "duration": 0.534090909090909,
                "tempo": 120.0
            },
            {
                "start_time": 1.5999999999999999,
                "end_time": 1.7,
                "pitch": 71,
                "velocity": 64,
                "duration": 0.10000000000000009,
                "tempo": 120.0
            },
            {
                "start_time": 1.468181818181818,
                "end_time": 1.734090909090909,
                "pitch": 56,
                "velocity": 64,
                "duration": 0.2659090909090909,
                "tempo": 120.0
            },
            {
                "start_time": 1.734090909090909,
                "end_time": 1.834090909090909,
                "pitch": 76,
                "velocity": 64,
                "duration": 0.10000000000000009,
                "tempo": 120.0
            },
            {
                "start_time": 1.334090909090909,
                "end_time": 1.8681818181818182,
                "pitch": 90,
                "velocity": 64,
                "duration": 0.5340909090909092,
                "tempo": 120.0
            },
            {
                "start_time": 1.8681818181818182,
                "end_time": 1.968181818181818,
                "pitch": 83,
                "velocity": 64,
                "duration": 0.09999999999999987,
                "tempo": 120.0
            },
            {
                "start_time": 1.734090909090909,
                "end_time": 2.002272727272727,
                "pitch": 56,
                "velocity": 64,
                "duration": 0.2681818181818181,
                "tempo": 120.0
            },
            {
                "start_time": 2.002272727272727,
                "end_time": 2.102272727272727,
                "pitch": 76,
                "velocity": 64,
                "duration": 0.10000000000000009,
                "tempo": 120.0
            },
            {
                "start_time": 1.5999999999999999,
                "end_time": 2.1363636363636362,
                "pitch": 78,
                "velocity": 64,
                "duration": 0.5363636363636364,
                "tempo": 120.0
            },
            {
                "start_time": 2.1363636363636362,
                "end_time": 2.2386363636363633,
                "pitch": 69,
                "velocity": 64,
                "duration": 0.10227272727272707,
                "tempo": 120.0
            },
            {
                "start_time": 2.2727272727272725,
                "end_time": 2.3727272727272726,
                "pitch": 76,
                "velocity": 64,
                "duration": 0.10000000000000009,
                "tempo": 120.0
            },
            {
                "start_time": 1.8681818181818182,
                "end_time": 2.409090909090909,
                "pitch": 90,
                "velocity": 64,
                "duration": 0.540909090909091,
                "tempo": 120.0
            },
            {
                "start_time": 2.409090909090909,
                "end_time": 2.509090909090909,
                "pitch": 81,
                "velocity": 64,
                "duration": 0.09999999999999964,
                "tempo": 120.0
            },
            {
                "start_time": 2.2727272727272725,
                "end_time": 2.5454545454545454,
                "pitch": 43,
                "velocity": 64,
                "duration": 0.27272727272727293,
                "tempo": 120.0
            },
            {
                "start_time": 2.5454545454545454,
                "end_time": 2.6454545454545455,
                "pitch": 76,
                "velocity": 64,
                "duration": 0.10000000000000009,
                "tempo": 120.0
            },
            {
                "start_time": 2.1363636363636362,
                "end_time": 2.6818181818181817,
                "pitch": 78,
                "velocity": 64,
                "duration": 0.5454545454545454,
                "tempo": 120.0
            },
            {
                "start_time": 2.6795454545454542,
                "end_time": 2.6818181818181817,
                "pitch": 78,
                "velocity": 64,
                "duration": 0.002272727272727426,
                "tempo": 120.0
            },
            {
                "start_time": 2.6818181818181817,
                "end_time": 2.7818181818181817,
                "pitch": 69,
                "velocity": 64,
                "duration": 0.10000000000000009,
                "tempo": 120.0
            },
            {
                "start_time": 2.5454545454545454,
                "end_time": 2.815909090909091,
                "pitch": 43,
                "velocity": 64,
                "duration": 0.2704545454545455,
                "tempo": 120.0
            },
            {
                "start_time": 2.815909090909091,
                "end_time": 2.918181818181818,
                "pitch": 76,
                "velocity": 64,
                "duration": 0.10227272727272707,
                "tempo": 120.0
            },
            {
                "start_time": 2.409090909090909,
                "end_time": 2.952272727272727,
                "pitch": 90,
                "velocity": 64,
                "duration": 0.543181818181818,
                "tempo": 120.0
            },
            {
                "start_time": 2.952272727272727,
                "end_time": 3.0545454545454542,
                "pitch": 81,
                "velocity": 64,
                "duration": 0.10227272727272707,
                "tempo": 120.0
            },
            {
                "start_time": 2.815909090909091,
                "end_time": 3.0886363636363634,
                "pitch": 43,
                "velocity": 64,
                "duration": 0.2727272727272725,
                "tempo": 120.0
            },
            {
                "start_time": 3.0886363636363634,
                "end_time": 3.190909090909091,
                "pitch": 76,
                "velocity": 64,
                "duration": 0.10227272727272751,
                "tempo": 120.0
            },
            {
                "start_time": 3.2249999999999996,
                "end_time": 3.3249999999999997,
                "pitch": 69,
                "velocity": 64,
                "duration": 0.10000000000000009,
                "tempo": 120.0
            },
            {
                "start_time": 3.0886363636363634,
                "end_time": 3.359090909090909,
                "pitch": 43,
                "velocity": 64,
                "duration": 0.2704545454545455,
                "tempo": 120.0
            },
            {
                "start_time": 3.359090909090909,
                "end_time": 3.459090909090909,
                "pitch": 76,
                "velocity": 64,
                "duration": 0.10000000000000009,
                "tempo": 120.0
            },
            {
                "start_time": 2.952272727272727,
                "end_time": 3.493181818181818,
                "pitch": 90,
                "velocity": 64,
                "duration": 0.540909090909091,
                "tempo": 120.0
            },
            {
                "start_time": 3.493181818181818,
                "end_time": 3.593181818181818,
                "pitch": 81,
                "velocity": 64,
                "duration": 0.09999999999999964,
                "tempo": 120.0
            },
            {
                "start_time": 3.359090909090909,
                "end_time": 3.627272727272727,
                "pitch": 43,
                "velocity": 64,
                "duration": 0.2681818181818181,
                "tempo": 120.0
            },
            {
                "start_time": 3.627272727272727,
                "end_time": 3.727272727272727,
                "pitch": 76,
                "velocity": 64,
                "duration": 0.10000000000000009,
                "tempo": 120.0
            },
            {
                "start_time": 3.2249999999999996,
                "end_time": 3.7613636363636362,
                "pitch": 78,
                "velocity": 64,
                "duration": 0.5363636363636366,
                "tempo": 120.0
            },
            {
                "start_time": 3.7613636363636362,
                "end_time": 3.8613636363636363,
                "pitch": 69,
                "velocity": 64,
                "duration": 0.10000000000000009,
                "tempo": 120.0
            },
            {
                "start_time": 3.627272727272727,
                "end_time": 3.895454545454545,
                "pitch": 43,
                "velocity": 64,
                "duration": 0.2681818181818181,
                "tempo": 120.0
            },
            {
                "start_time": 3.895454545454545,
                "end_time": 3.995454545454545,
                "pitch": 74,
                "velocity": 64,
                "duration": 0.10000000000000009,
                "tempo": 120.0
            },
            {
                "start_time": 4.027272727272727,
                "end_time": 4.127272727272727,
                "pitch": 81,
                "velocity": 64,
                "duration": 0.09999999999999964,
                "tempo": 120.0
            },
            {
                "start_time": 4.161363636363636,
                "end_time": 4.261363636363636,
                "pitch": 86,
                "velocity": 64,
                "duration": 0.09999999999999964,
                "tempo": 120.0
            },
            {
                "start_time": 4.295454545454545,
                "end_time": 4.3977272727272725,
                "pitch": 92,
                "velocity": 64,
                "duration": 0.10227272727272751,
                "tempo": 120.0
            },
            {
                "start_time": 3.895454545454545,
                "end_time": 4.431818181818182,
                "pitch": 43,
                "velocity": 64,
                "duration": 0.5363636363636366,
                "tempo": 120.0
            },
            {
                "start_time": 3.493181818181818,
                "end_time": 4.534090909090909,
                "pitch": 90,
                "velocity": 64,
                "duration": 1.040909090909091,
                "tempo": 120.0
            },
            {
                "start_time": 4.431818181818182,
                "end_time": 4.534090909090909,
                "pitch": 90,
                "velocity": 64,
                "duration": 0.10227272727272751,
                "tempo": 120.0
            },
            {
                "start_time": 4.568181818181818,
                "end_time": 4.670454545454545,
                "pitch": 90,
                "velocity": 64,
                "duration": 0.10227272727272663,
                "tempo": 120.0
            },
            {
                "start_time": 4.704545454545454,
                "end_time": 4.806818181818182,
                "pitch": 83,
                "velocity": 64,
                "duration": 0.10227272727272751,
                "tempo": 120.0
            },
            {
                "start_time": 4.840909090909091,
                "end_time": 4.9386363636363635,
                "pitch": 80,
                "velocity": 64,
                "duration": 0.09772727272727266,
                "tempo": 120.0
            },
            {
                "start_time": 3.7613636363636362,
                "end_time": 5.070454545454545,
                "pitch": 78,
                "velocity": 64,
                "duration": 1.309090909090909,
                "tempo": 120.0
            },
            {
                "start_time": 4.972727272727273,
                "end_time": 5.070454545454545,
                "pitch": 78,
                "velocity": 64,
                "duration": 0.09772727272727266,
                "tempo": 120.0
            },
            {
                "start_time": 5.102272727272727,
                "end_time": 5.202272727272727,
                "pitch": 78,
                "velocity": 64,
                "duration": 0.10000000000000053,
                "tempo": 120.0
            },
            {
                "start_time": 5.2340909090909085,
                "end_time": 5.334090909090909,
                "pitch": 71,
                "velocity": 64,
                "duration": 0.10000000000000053,
                "tempo": 120.0
            },
            {
                "start_time": 5.36590909090909,
                "end_time": 6.402272727272727,
                "pitch": 64,
                "velocity": 64,
                "duration": 1.036363636363637,
                "tempo": 120.0
            }
        ],
        "Acoustic Bass": [
            {
                "start_time": 0.0022727272727272726,
                "end_time": 1.065909090909091,
                "pitch": 40,
                "velocity": 80,
                "duration": 1.0636363636363637,
                "tempo": 120.0
            },
            {
                "start_time": 1.065909090909091,
                "end_time": 2.1363636363636362,
                "pitch": 38,
                "velocity": 80,
                "duration": 1.0704545454545453,
                "tempo": 120.0
            },
            {
                "start_time": 2.1363636363636362,
                "end_time": 3.2249999999999996,
                "pitch": 38,
                "velocity": 80,
                "duration": 1.0886363636363634,
                "tempo": 120.0
            },
            {
                "start_time": 3.2249999999999996,
                "end_time": 3.7613636363636362,
                "pitch": 37,
                "velocity": 80,
                "duration": 0.5363636363636366,
                "tempo": 120.0
            },
            {
                "start_time": 3.7613636363636362,
                "end_time": 4.295454545454545,
                "pitch": 38,
                "velocity": 80,
                "duration": 0.5340909090909087,
                "tempo": 120.0
            },
            {
                "start_time": 1.065909090909091,
                "end_time": 6.436363636363636,
                "pitch": 40,
                "velocity": 80,
                "duration": 5.370454545454544,
                "tempo": 120.0
            },
            {
                "start_time": 4.295454545454545,
                "end_time": 6.436363636363636,
                "pitch": 40,
                "velocity": 80,
                "duration": 2.1409090909090907,
                "tempo": 120.0
            }
        ],
        "Trumpet": [
            {
                "start_time": 0.5340909090909091,
                "end_time": 0.7659090909090909,
                "pitch": 71,
                "velocity": 51,
                "duration": 0.2318181818181818,
                "tempo": 120.0
            },
            {
                "start_time": 0.7999999999999999,
                "end_time": 1.0318181818181817,
                "pitch": 76,
                "velocity": 51,
                "duration": 0.2318181818181818,
                "tempo": 120.0
            },
            {
                "start_time": 1.0681818181818181,
                "end_time": 1.3,
                "pitch": 76,
                "velocity": 51,
                "duration": 0.23181818181818192,
                "tempo": 120.0
            },
            {
                "start_time": 1.3363636363636362,
                "end_time": 1.5681818181818181,
                "pitch": 80,
                "velocity": 51,
                "duration": 0.23181818181818192,
                "tempo": 120.0
            },
            {
                "start_time": 1.6045454545454545,
                "end_time": 1.8363636363636362,
                "pitch": 76,
                "velocity": 51,
                "duration": 0.2318181818181817,
                "tempo": 120.0
            },
            {
                "start_time": 1.8704545454545454,
                "end_time": 2.102272727272727,
                "pitch": 76,
                "velocity": 51,
                "duration": 0.2318181818181817,
                "tempo": 120.0
            },
            {
                "start_time": 1.3363636363636362,
                "end_time": 2.1386363636363637,
                "pitch": 91,
                "velocity": 51,
                "duration": 0.8022727272727275,
                "tempo": 120.0
            },
            {
                "start_time": 2.1386363636363637,
                "end_time": 2.375,
                "pitch": 80,
                "velocity": 51,
                "duration": 0.23636363636363633,
                "tempo": 120.0
            },
            {
                "start_time": 2.411363636363636,
                "end_time": 3.190909090909091,
                "pitch": 80,
                "velocity": 51,
                "duration": 0.7795454545454548,
                "tempo": 120.0
            },
            {
                "start_time": 3.227272727272727,
                "end_time": 3.327272727272727,
                "pitch": 81,
                "velocity": 51,
                "duration": 0.10000000000000009,
                "tempo": 120.0
            },
            {
                "start_time": 1.6045454545454545,
                "end_time": 3.3613636363636363,
                "pitch": 33,
                "velocity": 51,
                "duration": 1.7568181818181818,
                "tempo": 120.0
            },
            {
                "start_time": 3.3613636363636363,
                "end_time": 3.459090909090909,
                "pitch": 78,
                "velocity": 51,
                "duration": 0.09772727272727266,
                "tempo": 120.0
            },
            {
                "start_time": 2.1386363636363637,
                "end_time": 3.495454545454545,
                "pitch": 91,
                "velocity": 51,
                "duration": 1.3568181818181815,
                "tempo": 120.0
            },
            {
                "start_time": 3.495454545454545,
                "end_time": 3.727272727272727,
                "pitch": 79,
                "velocity": 51,
                "duration": 0.23181818181818192,
                "tempo": 120.0
            },
            {
                "start_time": 3.7636363636363637,
                "end_time": 3.995454545454545,
                "pitch": 78,
                "velocity": 51,
                "duration": 0.23181818181818148,
                "tempo": 120.0
            },
            {
                "start_time": 4.031818181818181,
                "end_time": 4.263636363636364,
                "pitch": 78,
                "velocity": 51,
                "duration": 0.23181818181818237,
                "tempo": 120.0
            },
            {
                "start_time": 4.297727272727273,
                "end_time": 4.534090909090909,
                "pitch": 74,
                "velocity": 51,
                "duration": 0.23636363636363633,
                "tempo": 120.0
            },
            {
                "start_time": 4.568181818181818,
                "end_time": 4.570454545454545,
                "pitch": 74,
                "velocity": 51,
                "duration": 0.002272727272726982,
                "tempo": 120.0
            },
            {
                "start_time": 4.297727272727273,
                "end_time": 6.136363636363636,
                "pitch": 76,
                "velocity": 51,
                "duration": 1.838636363636363,
                "tempo": 120.0
            },
            {
                "start_time": 4.570454545454545,
                "end_time": 6.136363636363636,
                "pitch": 76,
                "velocity": 51,
                "duration": 1.5659090909090905,
                "tempo": 120.0
            }
        ],
        "French Horn": [
            {
                "start_time": 0.006818181818181818,
                "end_time": 0.4977272727272727,
                "pitch": 55,
                "velocity": 64,
                "duration": 0.49090909090909085,
                "tempo": 120.0
            },
            {
                "start_time": 0.5340909090909091,
                "end_time": 1.034090909090909,
                "pitch": 47,
                "velocity": 64,
                "duration": 0.4999999999999999,
                "tempo": 120.0
            },
            {
                "start_time": 1.0704545454545453,
                "end_time": 1.5681818181818181,
                "pitch": 50,
                "velocity": 64,
                "duration": 0.4977272727272728,
                "tempo": 120.0
            },
            {
                "start_time": 1.6045454545454545,
                "end_time": 2.1045454545454545,
                "pitch": 45,
                "velocity": 64,
                "duration": 0.5,
                "tempo": 120.0
            },
            {
                "start_time": 2.1409090909090907,
                "end_time": 2.6477272727272725,
                "pitch": 49,
                "velocity": 64,
                "duration": 0.5068181818181818,
                "tempo": 120.0
            },
            {
                "start_time": 2.684090909090909,
                "end_time": 3.193181818181818,
                "pitch": 47,
                "velocity": 64,
                "duration": 0.5090909090909088,
                "tempo": 120.0
            },
            {
                "start_time": 3.2295454545454545,
                "end_time": 3.727272727272727,
                "pitch": 43,
                "velocity": 64,
                "duration": 0.4977272727272726,
                "tempo": 120.0
            },
            {
                "start_time": 3.7659090909090907,
                "end_time": 4.263636363636364,
                "pitch": 43,
                "velocity": 64,
                "duration": 0.497727272727273,
                "tempo": 120.0
            },
            {
                "start_time": 3.2295454545454545,
                "end_time": 6.404545454545454,
                "pitch": 47,
                "velocity": 64,
                "duration": 3.175,
                "tempo": 120.0
            },
            {
                "start_time": 4.3,
                "end_time": 6.404545454545454,
                "pitch": 47,
                "velocity": 64,
                "duration": 2.1045454545454545,
                "tempo": 120.0
            }
        ],
        "Flute": [
            {
                "start_time": 0.00909090909090909,
                "end_time": 1.034090909090909,
                "pitch": 83,
                "velocity": 80,
                "duration": 1.025,
                "tempo": 120.0
            },
            {
                "start_time": 1.0704545454545453,
                "end_time": 3.193181818181818,
                "pitch": 88,
                "velocity": 80,
                "duration": 2.1227272727272726,
                "tempo": 120.0
            },
            {
                "start_time": 3.2295454545454545,
                "end_time": 4.263636363636364,
                "pitch": 86,
                "velocity": 80,
                "duration": 1.0340909090909092,
                "tempo": 120.0
            },
            {
                "start_time": 3.2295454545454545,
                "end_time": 6.404545454545454,
                "pitch": 88,
                "velocity": 80,
                "duration": 3.175,
                "tempo": 120.0
            },
            {
                "start_time": 4.3,
                "end_time": 6.404545454545454,
                "pitch": 88,
                "velocity": 80,
                "duration": 2.1045454545454545,
                "tempo": 120.0
            }
        ]
    }
}