{
    "track_id": "12_Credits",
    "mood": "relaxed",
    "instruments": {
        "Electric Piano 1": [
            {
                "start_time": 0.08863636363636364,
                "end_time": 0.22727272727272727,
                "pitch": 28,
                "velocity": 127,
                "duration": 0.1386363636363636,
                "tempo": 120.0
            },
            {
                "start_time": 0.22727272727272727,
                "end_time": 0.36818181818181817,
                "pitch": 28,
                "velocity": 127,
                "duration": 0.1409090909090909,
                "tempo": 120.0
            },
            {
                "start_time": 0.36818181818181817,
                "end_time": 0.5068181818181818,
                "pitch": 40,
                "velocity": 127,
                "duration": 0.13863636363636367,
                "tempo": 120.0
            },
            {
                "start_time": 0.5068181818181818,
                "end_time": 0.6477272727272727,
                "pitch": 40,
                "velocity": 127,
                "duration": 0.14090909090909087,
                "tempo": 120.0
            },
            {
                "start_time": 0.6477272727272727,
                "end_time": 0.7863636363636364,
                "pitch": 28,
                "velocity": 127,
                "duration": 0.13863636363636367,
                "tempo": 120.0
            },
            {
                "start_time": 0.7863636363636364,
                "end_time": 0.9272727272727272,
                "pitch": 28,
                "velocity": 127,
                "duration": 0.14090909090909087,
                "tempo": 120.0
            },
            {
                "start_time": 0.9272727272727272,
                "end_time": 1.065909090909091,
                "pitch": 40,
                "velocity": 127,
                "duration": 0.13863636363636367,
                "tempo": 120.0
            },
            {
                "start_time": 1.065909090909091,
                "end_time": 1.2068181818181818,
                "pitch": 40,
                "velocity": 127,
                "duration": 0.14090909090909087,
                "tempo": 120.0
            },
            {
                "start_time": 1.2068181818181818,
                "end_time": 1.3454545454545455,
                "pitch": 28,
                "velocity": 127,
                "duration": 0.13863636363636367,
                "tempo": 120.0
            },
            {
                "start_time": 1.3454545454545455,
                "end_time": 1.4863636363636363,
                "pitch": 28,
                "velocity": 127,
                "duration": 0.14090909090909087,
                "tempo": 120.0
            },
            {
                "start_time": 1.4863636363636363,
                "end_time": 1.625,
                "pitch": 40,
                "velocity": 127,
                "duration": 0.13863636363636367,
                "tempo": 120.0
            },
            {
                "start_time": 1.625,
                "end_time": 1.7636363636363634,
                "pitch": 40,
                "velocity": 127,
                "duration": 0.13863636363636345,
                "tempo": 120.0
            },
            {
                "start_time": 1.7636363636363634,
                "end_time": 1.9045454545454545,
                "pitch": 28,
                "velocity": 127,
                "duration": 0.1409090909090911,
                "tempo": 120.0
            },
            {
                "start_time": 1.9045454545454545,
                "end_time": 2.043181818181818,
                "pitch": 28,
                "velocity": 127,
                "duration": 0.13863636363636345,
                "tempo": 120.0
            },
            {
                "start_time": 2.043181818181818,
                "end_time": 2.184090909090909,
                "pitch": 40,
                "velocity": 127,
                "duration": 0.1409090909090911,
                "tempo": 120.0
            },
            {
                "start_time": 2.184090909090909,
                "end_time": 2.3227272727272728,
                "pitch": 40,
                "velocity": 127,
                "duration": 0.13863636363636367,
                "tempo": 120.0
            },
            {
                "start_time": 2.3227272727272728,
                "end_time": 2.4636363636363634,
                "pitch": 26,
                "velocity": 127,
                "duration": 0.14090909090909065,
                "tempo": 120.0
            },
            {
                "start_time": 2.4636363636363634,
                "end_time": 2.602272727272727,
                "pitch": 26,
                "velocity": 127,
                "duration": 0.13863636363636367,
                "tempo": 120.0
            },
            {
                "start_time": 2.602272727272727,
                "end_time": 2.743181818181818,
                "pitch": 38,
                "velocity": 127,
                "duration": 0.1409090909090911,
                "tempo": 120.0
            },
            {
                "start_time": 2.743181818181818,
                "end_time": 2.881818181818182,
                "pitch": 38,
                "velocity": 127,
                "duration": 0.13863636363636367,
                "tempo": 120.0
            },
            {
                "start_time": 2.881818181818182,
                "end_time": 3.0204545454545455,
                "pitch": 26,
                "velocity": 127,
                "duration": 0.13863636363636367,
                "tempo": 120.0
            },
            {
                "start_time": 3.0204545454545455,
                "end_time": 3.1568181818181817,
                "pitch": 26,
                "velocity": 127,
                "duration": 0.13636363636363624,
                "tempo": 120.0
            },
            {
                "start_time": 3.1568181818181817,
                "end_time": 3.293181818181818,
                "pitch": 38,
                "velocity": 127,
                "duration": 0.13636363636363624,
                "tempo": 120.0
            },
            {
                "start_time": 3.293181818181818,
                "end_time": 3.4318181818181817,
                "pitch": 38,
                "velocity": 127,
                "duration": 0.13863636363636367,
                "tempo": 120.0
            },
            {
                "start_time": 3.4318181818181817,
                "end_time": 3.5727272727272728,
                "pitch": 26,
                "velocity": 127,
                "duration": 0.1409090909090911,
                "tempo": 120.0
            },
            {
                "start_time": 3.5727272727272728,
                "end_time": 3.715909090909091,
                "pitch": 26,
                "velocity": 127,
                "duration": 0.14318181818181808,
                "tempo": 120.0
            },
            {
                "start_time": 3.715909090909091,
                "end_time": 3.8568181818181815,
                "pitch": 38,
                "velocity": 127,
                "duration": 0.14090909090909065,
                "tempo": 120.0
            },
            {
                "start_time": 3.8568181818181815,
                "end_time": 4.0,
                "pitch": 38,
                "velocity": 127,
                "duration": 0.14318181818181852,
                "tempo": 120.0
            },
            {
                "start_time": 4.0,
                "end_time": 4.136363636363636,
                "pitch": 26,
                "velocity": 127,
                "duration": 0.1363636363636358,
                "tempo": 120.0
            },
            {
                "start_time": 4.136363636363636,
                "end_time": 4.2749999999999995,
                "pitch": 26,
                "velocity": 127,
                "duration": 0.13863636363636367,
                "tempo": 120.0
            },
            {
                "start_time": 4.2749999999999995,
                "end_time": 4.411363636363636,
                "pitch": 38,
                "velocity": 127,
                "duration": 0.1363636363636367,
                "tempo": 120.0
            },
            {
                "start_time": 4.411363636363636,
                "end_time": 4.547727272727273,
                "pitch": 38,
                "velocity": 127,
                "duration": 0.1363636363636367,
                "tempo": 120.0
            },
            {
                "start_time": 4.547727272727273,
                "end_time": 4.6886363636363635,
                "pitch": 21,
                "velocity": 127,
                "duration": 0.14090909090909065,
                "tempo": 120.0
            },
            {
                "start_time": 4.6886363636363635,
                "end_time": 4.827272727272727,
                "pitch": 21,
                "velocity": 127,
                "duration": 0.13863636363636367,
                "tempo": 120.0
            },
            {
                "start_time": 4.827272727272727,
                "end_time": 4.968181818181818,
                "pitch": 33,
                "velocity": 127,
                "duration": 0.14090909090909065,
                "tempo": 120.0
            },
            {
                "start_time": 4.968181818181818,
                "end_time": 5.1068181818181815,
                "pitch": 33,
                "velocity": 127,
                "duration": 0.13863636363636367,
                "tempo": 120.0
            },
            {
                "start_time": 5.1068181818181815,
                "end_time": 5.247727272727272,
                "pitch": 21,
                "velocity": 127,
                "duration": 0.14090909090909065,
                "tempo": 120.0
            },
            {
                "start_time": 5.247727272727272,
                "end_time": 5.386363636363636,
                "pitch": 21,
                "velocity": 127,
                "duration": 0.13863636363636367,
                "tempo": 120.0
            },
            {
                "start_time": 5.386363636363636,
                "end_time": 5.527272727272727,
                "pitch": 33,
                "velocity": 127,
                "duration": 0.14090909090909154,
                "tempo": 120.0
            },
            {
                "start_time": 5.527272727272727,
                "end_time": 5.665909090909091,
                "pitch": 33,
                "velocity": 127,
                "duration": 0.13863636363636367,
                "tempo": 120.0
            },
            {
                "start_time": 5.665909090909091,
                "end_time": 5.806818181818182,
                "pitch": 21,
                "velocity": 127,
                "duration": 0.14090909090909065,
                "tempo": 120.0
            },
            {
                "start_time": 5.806818181818182,
                "end_time": 5.945454545454545,
                "pitch": 21,
                "velocity": 127,
                "duration": 0.13863636363636367,
                "tempo": 120.0
            },
            {
                "start_time": 5.945454545454545,
                "end_time": 6.086363636363636,
                "pitch": 33,
                "velocity": 127,
                "duration": 0.14090909090909065,
                "tempo": 120.0
            },
            {
                "start_time": 6.086363636363636,
                "end_time": 6.225,
                "pitch": 33,
                "velocity": 127,
                "duration": 0.13863636363636367,
                "tempo": 120.0
            },
            {
                "start_time": 6.225,
                "end_time": 6.363636363636363,
                "pitch": 21,
                "velocity": 127,
                "duration": 0.13863636363636367,
                "tempo": 120.0
            },
            {
                "start_time": 6.363636363636363,
                "end_time": 6.5,
                "pitch": 21,
                "velocity": 127,
                "duration": 0.1363636363636367,
                "tempo": 120.0
            },
            {
                "start_time": 6.5,
                "end_time": 6.636363636363636,
                "pitch": 33,
                "velocity": 127,
                "duration": 0.1363636363636358,
                "tempo": 120.0
            },
            {
                "start_time": 6.636363636363636,
                "end_time": 6.7727272727272725,
                "pitch": 33,
                "velocity": 127,
                "duration": 0.1363636363636367,
                "tempo": 120.0
            },
            {
                "start_time": 6.7727272727272725,
                "end_time": 6.913636363636363,
                "pitch": 24,
                "velocity": 127,
                "duration": 0.14090909090909065,
                "tempo": 120.0
            },
            {
                "start_time": 6.913636363636363,
                "end_time": 7.052272727272727,
                "pitch": 24,
                "velocity": 127,
                "duration": 0.13863636363636367,
                "tempo": 120.0
            },
            {
                "start_time": 7.052272727272727,
                "end_time": 7.1931818181818175,
                "pitch": 36,
                "velocity": 127,
                "duration": 0.14090909090909065,
                "tempo": 120.0
            },
            {
                "start_time": 7.1931818181818175,
                "end_time": 7.331818181818181,
                "pitch": 36,
                "velocity": 127,
                "duration": 0.13863636363636367,
                "tempo": 120.0
            },
            {
                "start_time": 7.331818181818181,
                "end_time": 7.472727272727273,
                "pitch": 24,
                "velocity": 127,
                "duration": 0.14090909090909154,
                "tempo": 120.0
            },
            {
                "start_time": 7.472727272727273,
                "end_time": 7.611363636363636,
                "pitch": 24,
                "velocity": 127,
                "duration": 0.13863636363636367,
                "tempo": 120.0
            },
            {
                "start_time": 7.611363636363636,
                "end_time": 7.752272727272727,
                "pitch": 36,
                "velocity": 127,
                "duration": 0.14090909090909065,
                "tempo": 120.0
            },
            {
                "start_time": 7.752272727272727,
                "end_time": 7.890909090909091,
                "pitch": 36,
                "velocity": 127,
                "duration": 0.13863636363636367,
                "tempo": 120.0
            },
            {
                "start_time": 7.890909090909091,
                "end_time": 8.034090909090908,
                "pitch": 26,
                "velocity": 127,
                "duration": 0.14318181818181763,
                "tempo": 120.0
            },
            {
                "start_time": 8.034090909090908,
                "end_time": 8.174999999999999,
                "pitch": 26,
                "velocity": 127,
                "duration": 0.14090909090909065,
                "tempo": 120.0
            },
            {
                "start_time": 8.174999999999999,
                "end_time": 8.318181818181818,
                "pitch": 38,
                "velocity": 127,
                "duration": 0.1431818181818194,
                "tempo": 120.0
            },
            {
                "start_time": 8.318181818181818,
                "end_time": 8.461363636363636,
                "pitch": 38,
                "velocity": 127,
                "duration": 0.14318181818181763,
                "tempo": 120.0
            },
            {
                "start_time": 8.461363636363636,
                "end_time": 8.597727272727273,
                "pitch": 26,
                "velocity": 127,
                "duration": 0.1363636363636367,
                "tempo": 120.0
            },
            {
                "start_time": 8.597727272727273,
                "end_time": 8.736363636363636,
                "pitch": 26,
                "velocity": 127,
                "duration": 0.13863636363636367,
                "tempo": 120.0
            },
            {
                "start_time": 8.736363636363636,
                "end_time": 8.872727272727273,
                "pitch": 38,
                "velocity": 127,
                "duration": 0.1363636363636367,
                "tempo": 120.0
            },
            {
                "start_time": 8.872727272727273,
                "end_time": 9.009090909090908,
                "pitch": 38,
                "velocity": 127,
                "duration": 0.1363636363636349,
                "tempo": 120.0
            },
            {
                "start_time": 9.009090909090908,
                "end_time": 9.15,
                "pitch": 28,
                "velocity": 127,
                "duration": 0.14090909090909243,
                "tempo": 120.0
            },
            {
                "start_time": 9.15,
                "end_time": 9.288636363636364,
                "pitch": 28,
                "velocity": 127,
                "duration": 0.13863636363636367,
                "tempo": 120.0
            },
            {
                "start_time": 6.7727272727272725,
                "end_time": 9.429545454545455,
                "pitch": 40,
                "velocity": 127,
                "duration": 2.656818181818182,
                "tempo": 120.0
            },
            {
                "start_time": 9.288636363636364,
                "end_time": 9.429545454545455,
                "pitch": 40,
                "velocity": 127,
                "duration": 0.14090909090909065,
                "tempo": 120.0
            },
            {
                "start_time": 9.429545454545455,
                "end_time": 9.568181818181818,
                "pitch": 40,
                "velocity": 127,
                "duration": 0.13863636363636367,
                "tempo": 120.0
            },
            {
                "start_time": 9.568181818181818,
                "end_time": 9.706818181818182,
                "pitch": 28,
                "velocity": 127,
                "duration": 0.13863636363636367,
                "tempo": 120.0
            },
            {
                "start_time": 9.706818181818182,
                "end_time": 9.843181818181817,
                "pitch": 28,
                "velocity": 127,
                "duration": 0.1363636363636349,
                "tempo": 120.0
            },
            {
                "start_time": 9.843181818181817,
                "end_time": 9.979545454545454,
                "pitch": 40,
                "velocity": 127,
                "duration": 0.1363636363636367,
                "tempo": 120.0
            },
            {
                "start_time": 9.979545454545454,
                "end_time": 10.11590909090909,
                "pitch": 40,
                "velocity": 127,
                "duration": 0.1363636363636367,
                "tempo": 120.0
            },
            {
                "start_time": 10.118181818181817,
                "end_time": 10.256818181818181,
                "pitch": 28,
                "velocity": 127,
                "duration": 0.13863636363636367,
                "tempo": 120.0
            },
            {
                "start_time": 10.256818181818181,
                "end_time": 10.397727272727272,
                "pitch": 28,
                "velocity": 127,
                "duration": 0.14090909090909065,
                "tempo": 120.0
            },
            {
                "start_time": 10.397727272727272,
                "end_time": 10.536363636363635,
                "pitch": 40,
                "velocity": 127,
                "duration": 0.13863636363636367,
                "tempo": 120.0
            },
            {
                "start_time": 10.536363636363635,
                "end_time": 10.677272727272726,
                "pitch": 40,
                "velocity": 127,
                "duration": 0.14090909090909065,
                "tempo": 120.0
            },
            {
                "start_time": 10.677272727272726,
                "end_time": 10.81590909090909,
                "pitch": 28,
                "velocity": 127,
                "duration": 0.13863636363636367,
                "tempo": 120.0
            },
            {
                "start_time": 10.81590909090909,
                "end_time": 10.954545454545453,
                "pitch": 28,
                "velocity": 127,
                "duration": 0.13863636363636367,
                "tempo": 120.0
            },
            {
                "start_time": 10.954545454545453,
                "end_time": 11.095454545454546,
                "pitch": 40,
                "velocity": 127,
                "duration": 0.14090909090909243,
                "tempo": 120.0
            },
            {
                "start_time": 11.095454545454546,
                "end_time": 11.23409090909091,
                "pitch": 40,
                "velocity": 127,
                "duration": 0.13863636363636367,
                "tempo": 120.0
            },
            {
                "start_time": 11.23409090909091,
                "end_time": 11.375,
                "pitch": 26,
                "velocity": 127,
                "duration": 0.14090909090909065,
                "tempo": 120.0
            },
            {
                "start_time": 11.375,
                "end_time": 11.513636363636364,
                "pitch": 26,
                "velocity": 127,
                "duration": 0.13863636363636367,
                "tempo": 120.0
            },
            {
                "start_time": 11.513636363636364,
                "end_time": 11.654545454545454,
                "pitch": 38,
                "velocity": 127,
                "duration": 0.14090909090909065,
                "tempo": 120.0
            },
            {
                "start_time": 11.654545454545454,
                "end_time": 11.793181818181818,
                "pitch": 38,
                "velocity": 127,
                "duration": 0.13863636363636367,
                "tempo": 120.0
            },
            {
                "start_time": 11.793181818181818,
                "end_time": 11.934090909090909,
                "pitch": 26,
                "velocity": 127,
                "duration": 0.14090909090909065,
                "tempo": 120.0
            },
            {
                "start_time": 11.934090909090909,
                "end_time": 12.072727272727272,
                "pitch": 26,
                "velocity": 127,
                "duration": 0.13863636363636367,
                "tempo": 120.0
            },
            {
                "start_time": 12.072727272727272,
                "end_time": 12.213636363636363,
                "pitch": 38,
                "velocity": 127,
                "duration": 0.14090909090909065,
                "tempo": 120.0
            },
            {
                "start_time": 12.213636363636363,
                "end_time": 12.352272727272727,
                "pitch": 38,
                "velocity": 127,
                "duration": 0.13863636363636367,
                "tempo": 120.0
            },
            {
                "start_time": 12.352272727272727,
                "end_time": 12.493181818181817,
                "pitch": 26,
                "velocity": 127,
                "duration": 0.14090909090909065,
                "tempo": 120.0
            },
            {
                "start_time": 12.493181818181817,
                "end_time": 12.631818181818181,
                "pitch": 26,
                "velocity": 127,
                "duration": 0.13863636363636367,
                "tempo": 120.0
            },
            {
                "start_time": 12.631818181818181,
                "end_time": 12.772727272727272,
                "pitch": 38,
                "velocity": 127,
                "duration": 0.14090909090909065,
                "tempo": 120.0
            },
            {
                "start_time": 12.772727272727272,
                "end_time": 12.911363636363635,
                "pitch": 38,
                "velocity": 127,
                "duration": 0.13863636363636367,
                "tempo": 120.0
            },
            {
                "start_time": 12.911363636363635,
                "end_time": 13.047727272727272,
                "pitch": 26,
                "velocity": 127,
                "duration": 0.1363636363636367,
                "tempo": 120.0
            },
            {
                "start_time": 13.047727272727272,
                "end_time": 13.186363636363636,
                "pitch": 26,
                "velocity": 127,
                "duration": 0.13863636363636367,
                "tempo": 120.0
            },
            {
                "start_time": 13.186363636363636,
                "end_time": 13.322727272727272,
                "pitch": 38,
                "velocity": 127,
                "duration": 0.1363636363636367,
                "tempo": 120.0
            },
            {
                "start_time": 4.547727272727273,
                "end_time": 13.459090909090909,
                "pitch": 7,
                "velocity": 127,
                "duration": 8.911363636363635,
                "tempo": 120.0
            },
            {
                "start_time": 13.322727272727272,
                "end_time": 13.459090909090909,
                "pitch": 38,
                "velocity": 127,
                "duration": 0.1363636363636367,
                "tempo": 120.0
            },
            {
                "start_time": 13.459090909090909,
                "end_time": 13.6,
                "pitch": 21,
                "velocity": 127,
                "duration": 0.14090909090909065,
                "tempo": 120.0
            },
            {
                "start_time": 13.6,
                "end_time": 13.738636363636363,
                "pitch": 21,
                "velocity": 127,
                "duration": 0.13863636363636367,
                "tempo": 120.0
            },
            {
                "start_time": 13.738636363636363,
                "end_time": 13.879545454545454,
                "pitch": 33,
                "velocity": 127,
                "duration": 0.14090909090909065,
                "tempo": 120.0
            },
            {
                "start_time": 13.879545454545454,
                "end_time": 14.018181818181818,
                "pitch": 33,
                "velocity": 127,
                "duration": 0.13863636363636367,
                "tempo": 120.0
            },
            {
                "start_time": 14.018181818181818,
                "end_time": 14.159090909090908,
                "pitch": 21,
                "velocity": 127,
                "duration": 0.14090909090909065,
                "tempo": 120.0
            },
            {
                "start_time": 14.159090909090908,
                "end_time": 14.297727272727272,
                "pitch": 21,
                "velocity": 127,
                "duration": 0.13863636363636367,
                "tempo": 120.0
            },
            {
                "start_time": 14.297727272727272,
                "end_time": 14.438636363636363,
                "pitch": 33,
                "velocity": 127,
                "duration": 0.14090909090909065,
                "tempo": 120.0
            },
            {
                "start_time": 14.438636363636363,
                "end_time": 14.577272727272726,
                "pitch": 33,
                "velocity": 127,
                "duration": 0.13863636363636367,
                "tempo": 120.0
            },
            {
                "start_time": 14.577272727272726,
                "end_time": 14.718181818181817,
                "pitch": 21,
                "velocity": 127,
                "duration": 0.14090909090909065,
                "tempo": 120.0
            },
            {
                "start_time": 14.718181818181817,
                "end_time": 14.85681818181818,
                "pitch": 21,
                "velocity": 127,
                "duration": 0.13863636363636367,
                "tempo": 120.0
            },
            {
                "start_time": 14.85681818181818,
                "end_time": 14.997727272727271,
                "pitch": 33,
                "velocity": 127,
                "duration": 0.14090909090909065,
                "tempo": 120.0
            },
            {
                "start_time": 14.997727272727271,
                "end_time": 15.136363636363635,
                "pitch": 33,
                "velocity": 127,
                "duration": 0.13863636363636367,
                "tempo": 120.0
            },
            {
                "start_time": 15.136363636363635,
                "end_time": 15.277272727272727,
                "pitch": 21,
                "velocity": 127,
                "duration": 0.14090909090909243,
                "tempo": 120.0
            },
            {
                "start_time": 15.277272727272727,
                "end_time": 15.415909090909091,
                "pitch": 21,
                "velocity": 127,
                "duration": 0.13863636363636367,
                "tempo": 120.0
            },
            {
                "start_time": 15.415909090909091,
                "end_time": 15.556818181818182,
                "pitch": 33,
                "velocity": 127,
                "duration": 0.14090909090909065,
                "tempo": 120.0
            },
            {
                "start_time": 15.556818181818182,
                "end_time": 15.695454545454545,
                "pitch": 33,
                "velocity": 127,
                "duration": 0.13863636363636367,
                "tempo": 120.0
            },
            {
                "start_time": 15.695454545454545,
                "end_time": 15.83181818181818,
                "pitch": 24,
                "velocity": 127,
                "duration": 0.1363636363636349,
                "tempo": 120.0
            },
            {
                "start_time": 15.83181818181818,
                "end_time": 15.970454545454544,
                "pitch": 24,
                "velocity": 127,
                "duration": 0.13863636363636367,
                "tempo": 120.0
            },
            {
                "start_time": 15.970454545454544,
                "end_time": 16.10681818181818,
                "pitch": 36,
                "velocity": 127,
                "duration": 0.1363636363636367,
                "tempo": 120.0
            },
            {
                "start_time": 16.10681818181818,
                "end_time": 16.243181818181817,
                "pitch": 36,
                "velocity": 127,
                "duration": 0.1363636363636367,
                "tempo": 120.0
            },
            {
                "start_time": 16.243181818181817,
                "end_time": 16.384090909090908,
                "pitch": 24,
                "velocity": 127,
                "duration": 0.14090909090909065,
                "tempo": 120.0
            },
            {
                "start_time": 16.384090909090908,
                "end_time": 16.522727272727273,
                "pitch": 24,
                "velocity": 127,
                "duration": 0.13863636363636545,
                "tempo": 120.0
            },
            {
                "start_time": 16.522727272727273,
                "end_time": 16.663636363636364,
                "pitch": 36,
                "velocity": 127,
                "duration": 0.14090909090909065,
                "tempo": 120.0
            },
            {
                "start_time": 16.663636363636364,
                "end_time": 16.802272727272726,
                "pitch": 36,
                "velocity": 127,
                "duration": 0.1386363636363619,
                "tempo": 120.0
            },
            {
                "start_time": 16.802272727272726,
                "end_time": 16.943181818181817,
                "pitch": 24,
                "velocity": 127,
                "duration": 0.14090909090909065,
                "tempo": 120.0
            },
            {
                "start_time": 16.943181818181817,
                "end_time": 17.081818181818182,
                "pitch": 24,
                "velocity": 127,
                "duration": 0.13863636363636545,
                "tempo": 120.0
            },
            {
                "start_time": 17.081818181818182,
                "end_time": 17.222727272727273,
                "pitch": 36,
                "velocity": 127,
                "duration": 0.14090909090909065,
                "tempo": 120.0
            },
            {
                "start_time": 17.222727272727273,
                "end_time": 17.361363636363635,
                "pitch": 36,
                "velocity": 127,
                "duration": 0.1386363636363619,
                "tempo": 120.0
            },
            {
                "start_time": 17.361363636363635,
                "end_time": 17.502272727272725,
                "pitch": 24,
                "velocity": 127,
                "duration": 0.14090909090909065,
                "tempo": 120.0
            },
            {
                "start_time": 17.502272727272725,
                "end_time": 17.64090909090909,
                "pitch": 24,
                "velocity": 127,
                "duration": 0.13863636363636545,
                "tempo": 120.0
            },
            {
                "start_time": 17.64090909090909,
                "end_time": 17.78181818181818,
                "pitch": 36,
                "velocity": 127,
                "duration": 0.14090909090909065,
                "tempo": 120.0
            },
            {
                "start_time": 17.78181818181818,
                "end_time": 17.920454545454543,
                "pitch": 36,
                "velocity": 127,
                "duration": 0.1386363636363619,
                "tempo": 120.0
            }
        ],
        "Lead 2 (sawtooth)": [
            {
                "start_time": 0.22727272727272727,
                "end_time": 2.4636363636363634,
                "pitch": 64,
                "velocity": 51,
                "duration": 2.2363636363636363,
                "tempo": 120.0
            },
            {
                "start_time": 2.4636363636363634,
                "end_time": 4.6886363636363635,
                "pitch": 62,
                "velocity": 51,
                "duration": 2.225,
                "tempo": 120.0
            },
            {
                "start_time": 4.6886363636363635,
                "end_time": 6.913636363636363,
                "pitch": 61,
                "velocity": 51,
                "duration": 2.2249999999999996,
                "tempo": 120.0
            },
            {
                "start_time": 6.913636363636363,
                "end_time": 7.334090909090909,
                "pitch": 64,
                "velocity": 51,
                "duration": 0.42045454545454586,
                "tempo": 120.0
            },
            {
                "start_time": 6.913636363636363,
                "end_time": 7.334090909090909,
                "pitch": 64,
                "velocity": 51,
                "duration": 0.42045454545454586,
                "tempo": 120.0
            },
            {
                "start_time": 7.334090909090909,
                "end_time": 7.472727272727273,
                "pitch": 64,
                "velocity": 51,
                "duration": 0.13863636363636367,
                "tempo": 120.0
            },
            {
                "start_time": 7.752272727272727,
                "end_time": 8.034090909090908,
                "pitch": 64,
                "velocity": 51,
                "duration": 0.2818181818181813,
                "tempo": 120.0
            },
            {
                "start_time": 8.034090909090908,
                "end_time": 8.461363636363636,
                "pitch": 66,
                "velocity": 51,
                "duration": 0.4272727272727277,
                "tempo": 120.0
            },
            {
                "start_time": 8.034090909090908,
                "end_time": 8.461363636363636,
                "pitch": 66,
                "velocity": 51,
                "duration": 0.4272727272727277,
                "tempo": 120.0
            },
            {
                "start_time": 8.461363636363636,
                "end_time": 8.597727272727273,
                "pitch": 66,
                "velocity": 51,
                "duration": 0.1363636363636367,
                "tempo": 120.0
            },
            {
                "start_time": 8.872727272727273,
                "end_time": 9.15,
                "pitch": 66,
                "velocity": 51,
                "duration": 0.27727272727272734,
                "tempo": 120.0
            },
            {
                "start_time": 9.15,
                "end_time": 11.375,
                "pitch": 68,
                "velocity": 51,
                "duration": 2.2249999999999996,
                "tempo": 120.0
            },
            {
                "start_time": 11.375,
                "end_time": 13.6,
                "pitch": 71,
                "velocity": 51,
                "duration": 2.2249999999999996,
                "tempo": 120.0
            },
            {
                "start_time": 11.375,
                "end_time": 13.6,
                "pitch": 71,
                "velocity": 51,
                "duration": 2.2249999999999996,
                "tempo": 120.0
            },
            {
                "start_time": 13.6,
                "end_time": 14.438636363636363,
                "pitch": 69,
                "velocity": 51,
                "duration": 0.838636363636363,
                "tempo": 120.0
            },
            {
                "start_time": 13.6,
                "end_time": 14.438636363636363,
                "pitch": 69,
                "velocity": 51,
                "duration": 0.838636363636363,
                "tempo": 120.0
            },
            {
                "start_time": 14.438636363636363,
                "end_time": 15.277272727272727,
                "pitch": 64,
                "velocity": 51,
                "duration": 0.8386363636363647,
                "tempo": 120.0
            },
            {
                "start_time": 15.277272727272727,
                "end_time": 15.834090909090909,
                "pitch": 66,
                "velocity": 51,
                "duration": 0.5568181818181817,
                "tempo": 120.0
            },
            {
                "start_time": 15.277272727272727,
                "end_time": 15.834090909090909,
                "pitch": 66,
                "velocity": 51,
                "duration": 0.5568181818181817,
                "tempo": 120.0
            },
            {
                "start_time": 15.834090909090909,
                "end_time": 16.943181818181817,
                "pitch": 64,
                "velocity": 51,
                "duration": 1.1090909090909076,
                "tempo": 120.0
            },
            {
                "start_time": 15.834090909090909,
                "end_time": 16.943181818181817,
                "pitch": 64,
                "velocity": 51,
                "duration": 1.1090909090909076,
                "tempo": 120.0
            },
            {
                "start_time": 16.943181818181817,
                "end_time": 17.920454545454543,
                "pitch": 66,
                "velocity": 51,
                "duration": 0.9772727272727266,
                "tempo": 120.0
            },
            {
                "start_time": 16.943181818181817,
                "end_time": 17.920454545454543,
                "pitch": 66,
                "velocity": 51,
                "duration": 0.9772727272727266,
                "tempo": 120.0
            }
        ],
        "Acoustic Guitar (nylon)": [
            {
                "start_time": 0.08863636363636364,
                "end_time": 1.9045454545454545,
                "pitch": 64,
                "velocity": 127,
                "duration": 1.815909090909091,
                "tempo": 120.0
            },
            {
                "start_time": 1.9045454545454545,
                "end_time": 2.043181818181818,
                "pitch": 59,
                "velocity": 127,
                "duration": 0.13863636363636345,
                "tempo": 120.0
            },
            {
                "start_time": 2.043181818181818,
                "end_time": 2.0454545454545454,
                "pitch": 66,
                "velocity": 127,
                "duration": 0.002272727272727426,
                "tempo": 120.0
            },
            {
                "start_time": 2.0454545454545454,
                "end_time": 2.184090909090909,
                "pitch": 64,
                "velocity": 127,
                "duration": 0.13863636363636367,
                "tempo": 120.0
            },
            {
                "start_time": 2.184090909090909,
                "end_time": 2.3249999999999997,
                "pitch": 69,
                "velocity": 127,
                "duration": 0.14090909090909065,
                "tempo": 120.0
            },
            {
                "start_time": 2.3249999999999997,
                "end_time": 3.1568181818181817,
                "pitch": 68,
                "velocity": 127,
                "duration": 0.831818181818182,
                "tempo": 120.0
            },
            {
                "start_time": 3.1568181818181817,
                "end_time": 3.4318181818181817,
                "pitch": 64,
                "velocity": 127,
                "duration": 0.2749999999999999,
                "tempo": 120.0
            },
            {
                "start_time": 3.4318181818181817,
                "end_time": 4.0,
                "pitch": 66,
                "velocity": 127,
                "duration": 0.5681818181818183,
                "tempo": 120.0
            },
            {
                "start_time": 3.4318181818181817,
                "end_time": 4.0,
                "pitch": 66,
                "velocity": 127,
                "duration": 0.5681818181818183,
                "tempo": 120.0
            },
            {
                "start_time": 4.0,
                "end_time": 4.55,
                "pitch": 68,
                "velocity": 127,
                "duration": 0.5499999999999998,
                "tempo": 120.0
            },
            {
                "start_time": 4.55,
                "end_time": 4.968181818181818,
                "pitch": 71,
                "velocity": 127,
                "duration": 0.418181818181818,
                "tempo": 120.0
            },
            {
                "start_time": 4.55,
                "end_time": 4.968181818181818,
                "pitch": 71,
                "velocity": 127,
                "duration": 0.418181818181818,
                "tempo": 120.0
            },
            {
                "start_time": 4.968181818181818,
                "end_time": 5.386363636363636,
                "pitch": 69,
                "velocity": 127,
                "duration": 0.418181818181818,
                "tempo": 120.0
            },
            {
                "start_time": 4.968181818181818,
                "end_time": 5.386363636363636,
                "pitch": 69,
                "velocity": 127,
                "duration": 0.418181818181818,
                "tempo": 120.0
            },
            {
                "start_time": 5.386363636363636,
                "end_time": 6.5,
                "pitch": 64,
                "velocity": 127,
                "duration": 1.1136363636363642,
                "tempo": 120.0
            },
            {
                "start_time": 6.5,
                "end_time": 6.7749999999999995,
                "pitch": 61,
                "velocity": 127,
                "duration": 0.27499999999999947,
                "tempo": 120.0
            },
            {
                "start_time": 6.5,
                "end_time": 6.7749999999999995,
                "pitch": 61,
                "velocity": 127,
                "duration": 0.27499999999999947,
                "tempo": 120.0
            },
            {
                "start_time": 6.7749999999999995,
                "end_time": 7.1931818181818175,
                "pitch": 71,
                "velocity": 127,
                "duration": 0.418181818181818,
                "tempo": 120.0
            },
            {
                "start_time": 7.1931818181818175,
                "end_time": 7.613636363636363,
                "pitch": 69,
                "velocity": 127,
                "duration": 0.42045454545454586,
                "tempo": 120.0
            },
            {
                "start_time": 7.1931818181818175,
                "end_time": 7.613636363636363,
                "pitch": 69,
                "velocity": 127,
                "duration": 0.42045454545454586,
                "tempo": 120.0
            },
            {
                "start_time": 7.613636363636363,
                "end_time": 8.054545454545455,
                "pitch": 67,
                "velocity": 127,
                "duration": 0.44090909090909136,
                "tempo": 120.0
            },
            {
                "start_time": 8.054545454545455,
                "end_time": 8.177272727272728,
                "pitch": 67,
                "velocity": 127,
                "duration": 0.12272727272727302,
                "tempo": 120.0
            },
            {
                "start_time": 8.177272727272728,
                "end_time": 8.461363636363636,
                "pitch": 66,
                "velocity": 127,
                "duration": 0.2840909090909083,
                "tempo": 120.0
            },
            {
                "start_time": 8.461363636363636,
                "end_time": 8.736363636363636,
                "pitch": 67,
                "velocity": 127,
                "duration": 0.27500000000000036,
                "tempo": 120.0
            },
            {
                "start_time": 8.736363636363636,
                "end_time": 9.011363636363637,
                "pitch": 69,
                "velocity": 127,
                "duration": 0.27500000000000036,
                "tempo": 120.0
            },
            {
                "start_time": 9.011363636363637,
                "end_time": 9.843181818181817,
                "pitch": 71,
                "velocity": 127,
                "duration": 0.8318181818181802,
                "tempo": 120.0
            },
            {
                "start_time": 9.011363636363637,
                "end_time": 9.843181818181817,
                "pitch": 71,
                "velocity": 127,
                "duration": 0.8318181818181802,
                "tempo": 120.0
            },
            {
                "start_time": 9.843181818181817,
                "end_time": 11.236363636363636,
                "pitch": 76,
                "velocity": 127,
                "duration": 1.3931818181818194,
                "tempo": 120.0
            },
            {
                "start_time": 11.236363636363636,
                "end_time": 11.793181818181818,
                "pitch": 71,
                "velocity": 127,
                "duration": 0.5568181818181817,
                "tempo": 120.0
            },
            {
                "start_time": 6.7749999999999995,
                "end_time": 12.072727272727272,
                "pitch": 44,
                "velocity": 127,
                "duration": 5.297727272727273,
                "tempo": 120.0
            },
            {
                "start_time": 11.793181818181818,
                "end_time": 12.072727272727272,
                "pitch": 76,
                "velocity": 127,
                "duration": 0.2795454545454543,
                "tempo": 120.0
            },
            {
                "start_time": 12.072727272727272,
                "end_time": 12.631818181818181,
                "pitch": 81,
                "velocity": 127,
                "duration": 0.5590909090909086,
                "tempo": 120.0
            },
            {
                "start_time": 12.631818181818181,
                "end_time": 12.911363636363635,
                "pitch": 80,
                "velocity": 127,
                "duration": 0.2795454545454543,
                "tempo": 120.0
            },
            {
                "start_time": 5.386363636363636,
                "end_time": 13.186363636363636,
                "pitch": 78,
                "velocity": 127,
                "duration": 7.8,
                "tempo": 120.0
            },
            {
                "start_time": 12.911363636363635,
                "end_time": 13.186363636363636,
                "pitch": 78,
                "velocity": 127,
                "duration": 0.27500000000000036,
                "tempo": 120.0
            },
            {
                "start_time": 13.186363636363636,
                "end_time": 13.461363636363636,
                "pitch": 80,
                "velocity": 127,
                "duration": 0.27500000000000036,
                "tempo": 120.0
            },
            {
                "start_time": 13.461363636363636,
                "end_time": 13.879545454545454,
                "pitch": 83,
                "velocity": 127,
                "duration": 0.418181818181818,
                "tempo": 120.0
            },
            {
                "start_time": 13.461363636363636,
                "end_time": 13.879545454545454,
                "pitch": 83,
                "velocity": 127,
                "duration": 0.418181818181818,
                "tempo": 120.0
            },
            {
                "start_time": 13.879545454545454,
                "end_time": 14.299999999999999,
                "pitch": 81,
                "velocity": 127,
                "duration": 0.42045454545454497,
                "tempo": 120.0
            },
            {
                "start_time": 13.879545454545454,
                "end_time": 14.299999999999999,
                "pitch": 81,
                "velocity": 127,
                "duration": 0.42045454545454497,
                "tempo": 120.0
            },
            {
                "start_time": 14.299999999999999,
                "end_time": 15.136363636363635,
                "pitch": 76,
                "velocity": 127,
                "duration": 0.836363636363636,
                "tempo": 120.0
            },
            {
                "start_time": 15.136363636363635,
                "end_time": 15.695454545454545,
                "pitch": 78,
                "velocity": 127,
                "duration": 0.5590909090909104,
                "tempo": 120.0
            },
            {
                "start_time": 8.177272727272728,
                "end_time": 16.127272727272725,
                "pitch": 79,
                "velocity": 127,
                "duration": 7.9499999999999975,
                "tempo": 120.0
            },
            {
                "start_time": 15.695454545454545,
                "end_time": 16.127272727272725,
                "pitch": 79,
                "velocity": 127,
                "duration": 0.4318181818181799,
                "tempo": 120.0
            },
            {
                "start_time": 12.911363636363635,
                "end_time": 16.127272727272725,
                "pitch": 91,
                "velocity": 127,
                "duration": 3.21590909090909,
                "tempo": 120.0
            },
            {
                "start_time": 16.127272727272725,
                "end_time": 16.245454545454546,
                "pitch": 79,
                "velocity": 127,
                "duration": 0.11818181818182083,
                "tempo": 120.0
            },
            {
                "start_time": 16.245454545454546,
                "end_time": 16.804545454545455,
                "pitch": 78,
                "velocity": 127,
                "duration": 0.5590909090909086,
                "tempo": 120.0
            },
            {
                "start_time": 16.804545454545455,
                "end_time": 17.361363636363635,
                "pitch": 76,
                "velocity": 127,
                "duration": 0.5568181818181799,
                "tempo": 120.0
            },
            {
                "start_time": 16.804545454545455,
                "end_time": 17.361363636363635,
                "pitch": 76,
                "velocity": 127,
                "duration": 0.5568181818181799,
                "tempo": 120.0
            },
            {
                "start_time": 17.361363636363635,
                "end_time": 17.920454545454543,
                "pitch": 72,
                "velocity": 127,
                "duration": 0.5590909090909086,
                "tempo": 120.0
            },
            {
                "start_time": 17.361363636363635,
                "end_time": 17.920454545454543,
                "pitch": 72,
                "velocity": 127,
                "duration": 0.5590909090909086,
                "tempo": 120.0
            }
        ]
    }
}