{
    "track_id": "13 Ship",
    "mood": "relaxed",
    "instruments": {
        "Acoustic Grand Piano": [
            {
                "start_time": 0.004545454545454545,
                "end_time": 1.2704545454545455,
                "pitch": 50,
                "velocity": 40,
                "duration": 1.2659090909090909,
                "tempo": 120.0
            },
            {
                "start_time": 1.2704545454545455,
                "end_time": 1.4045454545454545,
                "pitch": 50,
                "velocity": 40,
                "duration": 0.13409090909090904,
                "tempo": 120.0
            },
            {
                "start_time": 1.6727272727272726,
                "end_time": 2.0795454545454546,
                "pitch": 50,
                "velocity": 40,
                "duration": 0.40681818181818197,
                "tempo": 120.0
            },
            {
                "start_time": 2.0795454545454546,
                "end_time": 3.4295454545454542,
                "pitch": 50,
                "velocity": 40,
                "duration": 1.3499999999999996,
                "tempo": 120.0
            },
            {
                "start_time": 3.4318181818181817,
                "end_time": 3.561363636363636,
                "pitch": 50,
                "velocity": 40,
                "duration": 0.1295454545454544,
                "tempo": 120.0
            },
            {
                "start_time": 3.8249999999999997,
                "end_time": 4.2295454545454545,
                "pitch": 50,
                "velocity": 40,
                "duration": 0.40454545454545476,
                "tempo": 120.0
            },
            {
                "start_time": 4.2295454545454545,
                "end_time": 5.590909090909091,
                "pitch": 52,
                "velocity": 40,
                "duration": 1.3613636363636363,
                "tempo": 120.0
            },
            {
                "start_time": 5.590909090909091,
                "end_time": 5.720454545454545,
                "pitch": 52,
                "velocity": 40,
                "duration": 0.12954545454545396,
                "tempo": 120.0
            },
            {
                "start_time": 6.118181818181818,
                "end_time": 7.74090909090909,
                "pitch": 52,
                "velocity": 40,
                "duration": 1.6227272727272721,
                "tempo": 120.0
            },
            {
                "start_time": 7.74090909090909,
                "end_time": 7.875,
                "pitch": 51,
                "velocity": 40,
                "duration": 0.1340909090909097,
                "tempo": 120.0
            },
            {
                "start_time": 8.009090909090908,
                "end_time": 8.277272727272727,
                "pitch": 51,
                "velocity": 40,
                "duration": 0.2681818181818194,
                "tempo": 120.0
            },
            {
                "start_time": 8.277272727272727,
                "end_time": 9.36590909090909,
                "pitch": 53,
                "velocity": 40,
                "duration": 1.088636363636363,
                "tempo": 120.0
            },
            {
                "start_time": 8.277272727272727,
                "end_time": 9.902272727272727,
                "pitch": 51,
                "velocity": 40,
                "duration": 1.625,
                "tempo": 120.0
            },
            {
                "start_time": 9.36590909090909,
                "end_time": 9.902272727272727,
                "pitch": 51,
                "velocity": 40,
                "duration": 0.536363636363637,
                "tempo": 120.0
            },
            {
                "start_time": 11.527272727272727,
                "end_time": 12.049999999999999,
                "pitch": 48,
                "velocity": 40,
                "duration": 0.5227272727272716,
                "tempo": 120.0
            },
            {
                "start_time": 4.2295454545454545,
                "end_time": 12.325,
                "pitch": 50,
                "velocity": 40,
                "duration": 8.095454545454544,
                "tempo": 120.0
            },
            {
                "start_time": 12.052272727272726,
                "end_time": 12.325,
                "pitch": 50,
                "velocity": 40,
                "duration": 0.2727272727272734,
                "tempo": 120.0
            },
            {
                "start_time": 9.36590909090909,
                "end_time": 12.595454545454546,
                "pitch": 53,
                "velocity": 40,
                "duration": 3.2295454545454554,
                "tempo": 120.0
            },
            {
                "start_time": 12.325,
                "end_time": 12.595454545454546,
                "pitch": 53,
                "velocity": 40,
                "duration": 0.2704545454545464,
                "tempo": 120.0
            },
            {
                "start_time": 12.325,
                "end_time": 14.779545454545454,
                "pitch": 50,
                "velocity": 40,
                "duration": 2.454545454545455,
                "tempo": 120.0
            },
            {
                "start_time": 12.595454545454546,
                "end_time": 14.779545454545454,
                "pitch": 50,
                "velocity": 40,
                "duration": 2.1840909090909086,
                "tempo": 120.0
            },
            {
                "start_time": 0.004545454545454545,
                "end_time": 85.7,
                "pitch": 0,
                "velocity": 40,
                "duration": 85.69545454545455,
                "tempo": 120.0
            },
            {
                "start_time": 85.7,
                "end_time": 86.18636363636364,
                "pitch": 50,
                "velocity": 40,
                "duration": 0.48636363636363455,
                "tempo": 120.0
            }
        ],
        "Flute": [
            {
                "start_time": 9.902272727272727,
                "end_time": 10.434090909090909,
                "pitch": 75,
                "velocity": 40,
                "duration": 0.5318181818181813,
                "tempo": 120.0
            },
            {
                "start_time": 10.436363636363636,
                "end_time": 10.979545454545454,
                "pitch": 79,
                "velocity": 40,
                "duration": 0.543181818181818,
                "tempo": 120.0
            },
            {
                "start_time": 23.395454545454545,
                "end_time": 23.75,
                "pitch": 66,
                "velocity": 64,
                "duration": 0.3545454545454554,
                "tempo": 120.0
            },
            {
                "start_time": 23.938636363636363,
                "end_time": 24.154545454545453,
                "pitch": 66,
                "velocity": 64,
                "duration": 0.21590909090908994,
                "tempo": 120.0
            },
            {
                "start_time": 24.206818181818182,
                "end_time": 25.502272727272725,
                "pitch": 63,
                "velocity": 64,
                "duration": 1.2954545454545432,
                "tempo": 120.0
            },
            {
                "start_time": 30.677272727272726,
                "end_time": 31.159090909090907,
                "pitch": 72,
                "velocity": 64,
                "duration": 0.4818181818181806,
                "tempo": 120.0
            },
            {
                "start_time": 31.211363636363636,
                "end_time": 31.427272727272726,
                "pitch": 71,
                "velocity": 64,
                "duration": 0.21590909090908994,
                "tempo": 120.0
            },
            {
                "start_time": 24.206818181818182,
                "end_time": 31.69772727272727,
                "pitch": 66,
                "velocity": 64,
                "duration": 7.4909090909090885,
                "tempo": 120.0
            },
            {
                "start_time": 31.479545454545452,
                "end_time": 31.69772727272727,
                "pitch": 66,
                "velocity": 64,
                "duration": 0.2181818181818187,
                "tempo": 120.0
            },
            {
                "start_time": 31.752272727272725,
                "end_time": 34.12272727272727,
                "pitch": 67,
                "velocity": 64,
                "duration": 2.3704545454545425,
                "tempo": 120.0
            },
            {
                "start_time": 41.18863636363636,
                "end_time": 41.40454545454545,
                "pitch": 66,
                "velocity": 64,
                "duration": 0.2159090909090864,
                "tempo": 120.0
            },
            {
                "start_time": 41.45681818181818,
                "end_time": 42.75,
                "pitch": 63,
                "velocity": 64,
                "duration": 1.2931818181818215,
                "tempo": 120.0
            },
            {
                "start_time": 44.309090909090905,
                "end_time": 44.48409090909091,
                "pitch": 63,
                "velocity": 64,
                "duration": 0.17500000000000426,
                "tempo": 120.0
            },
            {
                "start_time": 44.525,
                "end_time": 44.95454545454545,
                "pitch": 64,
                "velocity": 64,
                "duration": 0.4295454545454547,
                "tempo": 120.0
            },
            {
                "start_time": 45.0,
                "end_time": 45.215909090909086,
                "pitch": 63,
                "velocity": 64,
                "duration": 0.2159090909090864,
                "tempo": 120.0
            },
            {
                "start_time": 31.752272727272725,
                "end_time": 45.268181818181816,
                "pitch": 78,
                "velocity": 64,
                "duration": 13.51590909090909,
                "tempo": 120.0
            },
            {
                "start_time": 45.268181818181816,
                "end_time": 45.48181818181818,
                "pitch": 67,
                "velocity": 64,
                "duration": 0.21363636363636118,
                "tempo": 120.0
            },
            {
                "start_time": 45.53636363636363,
                "end_time": 46.018181818181816,
                "pitch": 67,
                "velocity": 64,
                "duration": 0.48181818181818414,
                "tempo": 120.0
            },
            {
                "start_time": 46.070454545454545,
                "end_time": 46.288636363636364,
                "pitch": 69,
                "velocity": 64,
                "duration": 0.2181818181818187,
                "tempo": 120.0
            },
            {
                "start_time": 46.34318181818182,
                "end_time": 46.56136363636364,
                "pitch": 67,
                "velocity": 64,
                "duration": 0.2181818181818187,
                "tempo": 120.0
            },
            {
                "start_time": 46.61590909090909,
                "end_time": 48.71363636363636,
                "pitch": 69,
                "velocity": 64,
                "duration": 2.097727272727269,
                "tempo": 120.0
            }
        ],
        "Vibraphone": [
            {
                "start_time": 65.68181818181817,
                "end_time": 65.89772727272727,
                "pitch": 79,
                "velocity": 32,
                "duration": 0.2159090909090935,
                "tempo": 120.0
            },
            {
                "start_time": 65.95,
                "end_time": 66.16590909090908,
                "pitch": 78,
                "velocity": 32,
                "duration": 0.21590909090907928,
                "tempo": 120.0
            },
            {
                "start_time": 66.2159090909091,
                "end_time": 66.43409090909091,
                "pitch": 74,
                "velocity": 32,
                "duration": 0.2181818181818187,
                "tempo": 120.0
            },
            {
                "start_time": 66.48409090909091,
                "end_time": 66.70454545454545,
                "pitch": 71,
                "velocity": 32,
                "duration": 0.2204545454545439,
                "tempo": 120.0
            },
            {
                "start_time": 66.75454545454545,
                "end_time": 66.97727272727272,
                "pitch": 67,
                "velocity": 32,
                "duration": 0.2227272727272691,
                "tempo": 120.0
            },
            {
                "start_time": 67.56363636363636,
                "end_time": 68.59318181818182,
                "pitch": 62,
                "velocity": 32,
                "duration": 1.029545454545456,
                "tempo": 120.0
            }
        ],
        "French Horn": [
            {
                "start_time": 49.845454545454544,
                "end_time": 49.92727272727272,
                "pitch": 42,
                "velocity": 40,
                "duration": 0.08181818181817846,
                "tempo": 120.0
            },
            {
                "start_time": 49.98181818181818,
                "end_time": 50.06363636363636,
                "pitch": 38,
                "velocity": 40,
                "duration": 0.08181818181818556,
                "tempo": 120.0
            },
            {
                "start_time": 50.115909090909085,
                "end_time": 50.199999999999996,
                "pitch": 43,
                "velocity": 40,
                "duration": 0.08409090909091077,
                "tempo": 120.0
            },
            {
                "start_time": 49.845454545454544,
                "end_time": 50.252272727272725,
                "pitch": 0,
                "velocity": 40,
                "duration": 0.4068181818181813,
                "tempo": 120.0
            },
            {
                "start_time": 49.98181818181818,
                "end_time": 50.336363636363636,
                "pitch": 42,
                "velocity": 40,
                "duration": 0.35454545454545894,
                "tempo": 120.0
            },
            {
                "start_time": 50.252272727272725,
                "end_time": 50.336363636363636,
                "pitch": 42,
                "velocity": 40,
                "duration": 0.08409090909091077,
                "tempo": 120.0
            },
            {
                "start_time": 50.38863636363636,
                "end_time": 50.474999999999994,
                "pitch": 45,
                "velocity": 40,
                "duration": 0.08636363636363598,
                "tempo": 120.0
            },
            {
                "start_time": 50.52954545454545,
                "end_time": 50.615909090909085,
                "pitch": 45,
                "velocity": 40,
                "duration": 0.08636363636363598,
                "tempo": 120.0
            },
            {
                "start_time": 50.252272727272725,
                "end_time": 50.67045454545454,
                "pitch": 0,
                "velocity": 40,
                "duration": 0.41818181818181444,
                "tempo": 120.0
            },
            {
                "start_time": 50.67045454545454,
                "end_time": 50.75681818181818,
                "pitch": 48,
                "velocity": 40,
                "duration": 0.08636363636364308,
                "tempo": 120.0
            },
            {
                "start_time": 50.81136363636364,
                "end_time": 50.89772727272727,
                "pitch": 47,
                "velocity": 40,
                "duration": 0.08636363636363598,
                "tempo": 120.0
            },
            {
                "start_time": 50.38863636363636,
                "end_time": 51.084090909090904,
                "pitch": 54,
                "velocity": 40,
                "duration": 0.6954545454545453,
                "tempo": 120.0
            },
            {
                "start_time": 50.95454545454545,
                "end_time": 51.084090909090904,
                "pitch": 54,
                "velocity": 40,
                "duration": 0.1295454545454504,
                "tempo": 120.0
            },
            {
                "start_time": 51.084090909090904,
                "end_time": 51.163636363636364,
                "pitch": 50,
                "velocity": 40,
                "duration": 0.07954545454546036,
                "tempo": 120.0
            },
            {
                "start_time": 50.115909090909085,
                "end_time": 51.21363636363636,
                "pitch": 53,
                "velocity": 40,
                "duration": 1.0977272727272762,
                "tempo": 120.0
            },
            {
                "start_time": 51.21363636363636,
                "end_time": 51.945454545454545,
                "pitch": 47,
                "velocity": 40,
                "duration": 0.7318181818181841,
                "tempo": 120.0
            },
            {
                "start_time": 57.959090909090904,
                "end_time": 58.434090909090905,
                "pitch": 55,
                "velocity": 51,
                "duration": 0.4750000000000014,
                "tempo": 120.0
            },
            {
                "start_time": 50.67045454545454,
                "end_time": 58.486363636363635,
                "pitch": 0,
                "velocity": 40,
                "duration": 7.815909090909095,
                "tempo": 120.0
            },
            {
                "start_time": 58.486363636363635,
                "end_time": 58.961363636363636,
                "pitch": 51,
                "velocity": 51,
                "duration": 0.4750000000000014,
                "tempo": 120.0
            },
            {
                "start_time": 59.01136363636363,
                "end_time": 59.502272727272725,
                "pitch": 54,
                "velocity": 51,
                "duration": 0.49090909090909207,
                "tempo": 120.0
            },
            {
                "start_time": 59.554545454545455,
                "end_time": 59.77272727272727,
                "pitch": 54,
                "velocity": 51,
                "duration": 0.2181818181818187,
                "tempo": 120.0
            },
            {
                "start_time": 50.81136363636364,
                "end_time": 63.865909090909085,
                "pitch": 52,
                "velocity": 40,
                "duration": 13.054545454545448,
                "tempo": 120.0
            },
            {
                "start_time": 63.865909090909085,
                "end_time": 65.16363636363636,
                "pitch": 47,
                "velocity": 51,
                "duration": 1.297727272727272,
                "tempo": 120.0
            },
            {
                "start_time": 50.95454545454545,
                "end_time": 65.21363636363635,
                "pitch": 32,
                "velocity": 40,
                "duration": 14.2590909090909,
                "tempo": 120.0
            },
            {
                "start_time": 65.21363636363635,
                "end_time": 66.23409090909091,
                "pitch": 48,
                "velocity": 51,
                "duration": 1.0204545454545553,
                "tempo": 120.0
            },
            {
                "start_time": 66.2840909090909,
                "end_time": 68.39318181818182,
                "pitch": 50,
                "velocity": 51,
                "duration": 2.1090909090909093,
                "tempo": 120.0
            },
            {
                "start_time": 68.44545454545454,
                "end_time": 69.22045454545454,
                "pitch": 54,
                "velocity": 51,
                "duration": 0.7750000000000057,
                "tempo": 120.0
            }
        ],
        "Acoustic Bass": [
            {
                "start_time": 0.0022727272727272726,
                "end_time": 0.6840909090909091,
                "pitch": 43,
                "velocity": 64,
                "duration": 0.6818181818181818,
                "tempo": 120.0
            },
            {
                "start_time": 0.734090909090909,
                "end_time": 1.7545454545454544,
                "pitch": 43,
                "velocity": 64,
                "duration": 1.0204545454545455,
                "tempo": 120.0
            },
            {
                "start_time": 1.8045454545454545,
                "end_time": 1.8886363636363634,
                "pitch": 43,
                "velocity": 64,
                "duration": 0.084090909090909,
                "tempo": 120.0
            },
            {
                "start_time": 1.940909090909091,
                "end_time": 2.025,
                "pitch": 43,
                "velocity": 64,
                "duration": 0.084090909090909,
                "tempo": 120.0
            },
            {
                "start_time": 2.077272727272727,
                "end_time": 2.8431818181818183,
                "pitch": 41,
                "velocity": 64,
                "duration": 0.7659090909090911,
                "tempo": 120.0
            },
            {
                "start_time": 2.893181818181818,
                "end_time": 3.9045454545454543,
                "pitch": 41,
                "velocity": 64,
                "duration": 1.0113636363636362,
                "tempo": 120.0
            },
            {
                "start_time": 3.954545454545454,
                "end_time": 4.038636363636363,
                "pitch": 41,
                "velocity": 64,
                "duration": 0.084090909090909,
                "tempo": 120.0
            },
            {
                "start_time": 4.090909090909091,
                "end_time": 4.175,
                "pitch": 41,
                "velocity": 64,
                "duration": 0.084090909090909,
                "tempo": 120.0
            },
            {
                "start_time": 4.227272727272727,
                "end_time": 4.993181818181818,
                "pitch": 41,
                "velocity": 64,
                "duration": 0.7659090909090915,
                "tempo": 120.0
            },
            {
                "start_time": 5.043181818181818,
                "end_time": 6.0659090909090905,
                "pitch": 40,
                "velocity": 64,
                "duration": 1.0227272727272725,
                "tempo": 120.0
            },
            {
                "start_time": 6.11590909090909,
                "end_time": 6.197727272727272,
                "pitch": 40,
                "velocity": 64,
                "duration": 0.08181818181818201,
                "tempo": 120.0
            },
            {
                "start_time": 6.247727272727272,
                "end_time": 6.331818181818181,
                "pitch": 40,
                "velocity": 64,
                "duration": 0.084090909090909,
                "tempo": 120.0
            },
            {
                "start_time": 6.381818181818182,
                "end_time": 7.143181818181818,
                "pitch": 40,
                "velocity": 64,
                "duration": 0.7613636363636358,
                "tempo": 120.0
            },
            {
                "start_time": 7.195454545454545,
                "end_time": 8.225,
                "pitch": 39,
                "velocity": 64,
                "duration": 1.0295454545454543,
                "tempo": 120.0
            },
            {
                "start_time": 8.275,
                "end_time": 9.313636363636363,
                "pitch": 41,
                "velocity": 64,
                "duration": 1.0386363636363622,
                "tempo": 120.0
            },
            {
                "start_time": 8.275,
                "end_time": 10.11590909090909,
                "pitch": 39,
                "velocity": 64,
                "duration": 1.84090909090909,
                "tempo": 120.0
            },
            {
                "start_time": 9.36590909090909,
                "end_time": 10.11590909090909,
                "pitch": 39,
                "velocity": 64,
                "duration": 0.75,
                "tempo": 120.0
            },
            {
                "start_time": 9.36590909090909,
                "end_time": 10.168181818181818,
                "pitch": 41,
                "velocity": 64,
                "duration": 0.8022727272727277,
                "tempo": 120.0
            },
            {
                "start_time": 10.168181818181818,
                "end_time": 10.654545454545454,
                "pitch": 34,
                "velocity": 64,
                "duration": 0.48636363636363633,
                "tempo": 120.0
            },
            {
                "start_time": 10.706818181818182,
                "end_time": 11.472727272727273,
                "pitch": 39,
                "velocity": 64,
                "duration": 0.7659090909090907,
                "tempo": 120.0
            },
            {
                "start_time": 11.524999999999999,
                "end_time": 12.270454545454545,
                "pitch": 39,
                "velocity": 64,
                "duration": 0.745454545454546,
                "tempo": 120.0
            },
            {
                "start_time": 10.168181818181818,
                "end_time": 12.811363636363636,
                "pitch": 41,
                "velocity": 64,
                "duration": 2.6431818181818176,
                "tempo": 120.0
            },
            {
                "start_time": 12.322727272727272,
                "end_time": 12.811363636363636,
                "pitch": 41,
                "velocity": 64,
                "duration": 0.4886363636363633,
                "tempo": 120.0
            },
            {
                "start_time": 12.861363636363636,
                "end_time": 13.534090909090908,
                "pitch": 43,
                "velocity": 64,
                "duration": 0.672727272727272,
                "tempo": 120.0
            },
            {
                "start_time": 13.581818181818182,
                "end_time": 14.245454545454544,
                "pitch": 43,
                "velocity": 64,
                "duration": 0.6636363636363622,
                "tempo": 120.0
            },
            {
                "start_time": 2.077272727272727,
                "end_time": 14.288636363636362,
                "pitch": 0,
                "velocity": 64,
                "duration": 12.211363636363636,
                "tempo": 120.0
            },
            {
                "start_time": 14.288636363636362,
                "end_time": 14.729545454545454,
                "pitch": 38,
                "velocity": 64,
                "duration": 0.44090909090909136,
                "tempo": 120.0
            },
            {
                "start_time": 14.777272727272727,
                "end_time": 15.513636363636364,
                "pitch": 43,
                "velocity": 64,
                "duration": 0.7363636363636363,
                "tempo": 120.0
            },
            {
                "start_time": 15.561363636363636,
                "end_time": 16.334090909090907,
                "pitch": 43,
                "velocity": 64,
                "duration": 0.7727272727272716,
                "tempo": 120.0
            },
            {
                "start_time": 14.288636363636362,
                "end_time": 16.388636363636362,
                "pitch": 0,
                "velocity": 64,
                "duration": 2.0999999999999996,
                "tempo": 120.0
            },
            {
                "start_time": 16.388636363636362,
                "end_time": 16.87272727272727,
                "pitch": 42,
                "velocity": 64,
                "duration": 0.48409090909090935,
                "tempo": 120.0
            },
            {
                "start_time": 16.925,
                "end_time": 17.679545454545455,
                "pitch": 42,
                "velocity": 64,
                "duration": 0.754545454545454,
                "tempo": 120.0
            },
            {
                "start_time": 17.73181818181818,
                "end_time": 18.488636363636363,
                "pitch": 40,
                "velocity": 64,
                "duration": 0.7568181818181827,
                "tempo": 120.0
            },
            {
                "start_time": 18.538636363636364,
                "end_time": 19.03181818181818,
                "pitch": 35,
                "velocity": 64,
                "duration": 0.4931818181818173,
                "tempo": 120.0
            },
            {
                "start_time": 19.084090909090907,
                "end_time": 19.845454545454544,
                "pitch": 40,
                "velocity": 64,
                "duration": 0.7613636363636367,
                "tempo": 120.0
            },
            {
                "start_time": 19.895454545454545,
                "end_time": 20.647727272727273,
                "pitch": 40,
                "velocity": 64,
                "duration": 0.7522727272727288,
                "tempo": 120.0
            },
            {
                "start_time": 20.69772727272727,
                "end_time": 21.19090909090909,
                "pitch": 37,
                "velocity": 64,
                "duration": 0.49318181818182083,
                "tempo": 120.0
            },
            {
                "start_time": 21.243181818181817,
                "end_time": 21.995454545454546,
                "pitch": 38,
                "velocity": 64,
                "duration": 0.7522727272727288,
                "tempo": 120.0
            },
            {
                "start_time": 12.322727272727272,
                "end_time": 22.797727272727272,
                "pitch": 39,
                "velocity": 64,
                "duration": 10.475,
                "tempo": 120.0
            },
            {
                "start_time": 22.045454545454543,
                "end_time": 22.797727272727272,
                "pitch": 39,
                "velocity": 64,
                "duration": 0.7522727272727288,
                "tempo": 120.0
            },
            {
                "start_time": 22.847727272727273,
                "end_time": 22.849999999999998,
                "pitch": 41,
                "velocity": 64,
                "duration": 0.0022727272727252057,
                "tempo": 120.0
            },
            {
                "start_time": 22.849999999999998,
                "end_time": 23.34090909090909,
                "pitch": 35,
                "velocity": 64,
                "duration": 0.49090909090909207,
                "tempo": 120.0
            },
            {
                "start_time": 19.084090909090907,
                "end_time": 23.393181818181816,
                "pitch": 19,
                "velocity": 64,
                "duration": 4.309090909090909,
                "tempo": 120.0
            },
            {
                "start_time": 23.393181818181816,
                "end_time": 24.154545454545453,
                "pitch": 39,
                "velocity": 64,
                "duration": 0.7613636363636367,
                "tempo": 120.0
            },
            {
                "start_time": 24.206818181818182,
                "end_time": 24.956818181818182,
                "pitch": 39,
                "velocity": 64,
                "duration": 0.75,
                "tempo": 120.0
            },
            {
                "start_time": 25.009090909090908,
                "end_time": 25.5,
                "pitch": 35,
                "velocity": 64,
                "duration": 0.49090909090909207,
                "tempo": 120.0
            },
            {
                "start_time": 23.393181818181816,
                "end_time": 25.552272727272726,
                "pitch": 19,
                "velocity": 64,
                "duration": 2.15909090909091,
                "tempo": 120.0
            },
            {
                "start_time": 25.552272727272726,
                "end_time": 26.30909090909091,
                "pitch": 36,
                "velocity": 64,
                "duration": 0.7568181818181827,
                "tempo": 120.0
            },
            {
                "start_time": 26.361363636363635,
                "end_time": 27.11590909090909,
                "pitch": 36,
                "velocity": 64,
                "duration": 0.754545454545454,
                "tempo": 120.0
            },
            {
                "start_time": 20.69772727272727,
                "end_time": 27.168181818181818,
                "pitch": 40,
                "velocity": 64,
                "duration": 6.4704545454545475,
                "tempo": 120.0
            },
            {
                "start_time": 27.168181818181818,
                "end_time": 27.661363636363635,
                "pitch": 31,
                "velocity": 64,
                "duration": 0.4931818181818173,
                "tempo": 120.0
            },
            {
                "start_time": 16.388636363636362,
                "end_time": 27.71363636363636,
                "pitch": 0,
                "velocity": 64,
                "duration": 11.325,
                "tempo": 120.0
            },
            {
                "start_time": 27.71363636363636,
                "end_time": 28.46363636363636,
                "pitch": 36,
                "velocity": 64,
                "duration": 0.75,
                "tempo": 120.0
            },
            {
                "start_time": 28.51590909090909,
                "end_time": 29.26590909090909,
                "pitch": 36,
                "velocity": 64,
                "duration": 0.75,
                "tempo": 120.0
            },
            {
                "start_time": 27.168181818181818,
                "end_time": 29.54090909090909,
                "pitch": 40,
                "velocity": 64,
                "duration": 2.3727272727272712,
                "tempo": 120.0
            },
            {
                "start_time": 29.318181818181817,
                "end_time": 29.54090909090909,
                "pitch": 40,
                "velocity": 64,
                "duration": 0.22272727272727266,
                "tempo": 120.0
            },
            {
                "start_time": 29.595454545454544,
                "end_time": 29.818181818181817,
                "pitch": 40,
                "velocity": 64,
                "duration": 0.22272727272727266,
                "tempo": 120.0
            },
            {
                "start_time": 12.861363636363636,
                "end_time": 29.87272727272727,
                "pitch": 54,
                "velocity": 64,
                "duration": 17.011363636363633,
                "tempo": 120.0
            },
            {
                "start_time": 29.87272727272727,
                "end_time": 30.625,
                "pitch": 43,
                "velocity": 64,
                "duration": 0.7522727272727288,
                "tempo": 120.0
            },
            {
                "start_time": 30.674999999999997,
                "end_time": 31.427272727272726,
                "pitch": 43,
                "velocity": 64,
                "duration": 0.7522727272727288,
                "tempo": 120.0
            },
            {
                "start_time": 27.71363636363636,
                "end_time": 31.479545454545452,
                "pitch": 0,
                "velocity": 64,
                "duration": 3.7659090909090907,
                "tempo": 120.0
            },
            {
                "start_time": 31.479545454545452,
                "end_time": 31.970454545454544,
                "pitch": 38,
                "velocity": 64,
                "duration": 0.49090909090909207,
                "tempo": 120.0
            },
            {
                "start_time": 14.777272727272727,
                "end_time": 32.02272727272727,
                "pitch": 53,
                "velocity": 64,
                "duration": 17.245454545454546,
                "tempo": 120.0
            },
            {
                "start_time": 32.02272727272727,
                "end_time": 32.779545454545456,
                "pitch": 43,
                "velocity": 64,
                "duration": 0.7568181818181827,
                "tempo": 120.0
            },
            {
                "start_time": 32.83181818181818,
                "end_time": 33.586363636363636,
                "pitch": 43,
                "velocity": 64,
                "duration": 0.7545454545454575,
                "tempo": 120.0
            },
            {
                "start_time": 31.479545454545452,
                "end_time": 33.638636363636365,
                "pitch": 0,
                "velocity": 64,
                "duration": 2.1590909090909136,
                "tempo": 120.0
            },
            {
                "start_time": 18.538636363636364,
                "end_time": 34.12272727272727,
                "pitch": 42,
                "velocity": 64,
                "duration": 15.584090909090904,
                "tempo": 120.0
            },
            {
                "start_time": 33.638636363636365,
                "end_time": 34.12272727272727,
                "pitch": 42,
                "velocity": 64,
                "duration": 0.48409090909090224,
                "tempo": 120.0
            },
            {
                "start_time": 34.17272727272727,
                "end_time": 34.934090909090905,
                "pitch": 42,
                "velocity": 64,
                "duration": 0.7613636363636331,
                "tempo": 120.0
            },
            {
                "start_time": 34.986363636363635,
                "end_time": 35.736363636363635,
                "pitch": 40,
                "velocity": 64,
                "duration": 0.75,
                "tempo": 120.0
            },
            {
                "start_time": 35.788636363636364,
                "end_time": 36.279545454545456,
                "pitch": 35,
                "velocity": 64,
                "duration": 0.49090909090909207,
                "tempo": 120.0
            },
            {
                "start_time": 25.552272727272726,
                "end_time": 36.33181818181818,
                "pitch": 19,
                "velocity": 64,
                "duration": 10.779545454545453,
                "tempo": 120.0
            },
            {
                "start_time": 36.33181818181818,
                "end_time": 37.09318181818182,
                "pitch": 40,
                "velocity": 64,
                "duration": 0.7613636363636402,
                "tempo": 120.0
            },
            {
                "start_time": 37.14545454545454,
                "end_time": 37.89545454545454,
                "pitch": 40,
                "velocity": 64,
                "duration": 0.75,
                "tempo": 120.0
            },
            {
                "start_time": 37.94772727272727,
                "end_time": 38.44090909090909,
                "pitch": 37,
                "velocity": 64,
                "duration": 0.4931818181818173,
                "tempo": 120.0
            },
            {
                "start_time": 38.49318181818182,
                "end_time": 39.24318181818182,
                "pitch": 38,
                "velocity": 64,
                "duration": 0.75,
                "tempo": 120.0
            },
            {
                "start_time": 39.29545454545455,
                "end_time": 40.054545454545455,
                "pitch": 39,
                "velocity": 64,
                "duration": 0.7590909090909079,
                "tempo": 120.0
            },
            {
                "start_time": 25.009090909090908,
                "end_time": 40.10681818181818,
                "pitch": 41,
                "velocity": 64,
                "duration": 15.097727272727269,
                "tempo": 120.0
            },
            {
                "start_time": 40.10681818181818,
                "end_time": 40.590909090909086,
                "pitch": 35,
                "velocity": 64,
                "duration": 0.48409090909090935,
                "tempo": 120.0
            },
            {
                "start_time": 36.33181818181818,
                "end_time": 40.643181818181816,
                "pitch": 19,
                "velocity": 64,
                "duration": 4.311363636363637,
                "tempo": 120.0
            },
            {
                "start_time": 40.643181818181816,
                "end_time": 41.402272727272724,
                "pitch": 39,
                "velocity": 64,
                "duration": 0.7590909090909079,
                "tempo": 120.0
            },
            {
                "start_time": 41.45454545454545,
                "end_time": 42.20681818181818,
                "pitch": 39,
                "velocity": 64,
                "duration": 0.7522727272727252,
                "tempo": 120.0
            },
            {
                "start_time": 40.10681818181818,
                "end_time": 42.25681818181818,
                "pitch": 41,
                "velocity": 64,
                "duration": 2.1500000000000057,
                "tempo": 120.0
            },
            {
                "start_time": 42.25681818181818,
                "end_time": 42.75,
                "pitch": 35,
                "velocity": 64,
                "duration": 0.4931818181818173,
                "tempo": 120.0
            },
            {
                "start_time": 40.643181818181816,
                "end_time": 42.80227272727272,
                "pitch": 19,
                "velocity": 64,
                "duration": 2.1590909090909065,
                "tempo": 120.0
            },
            {
                "start_time": 29.318181818181817,
                "end_time": 43.55227272727272,
                "pitch": 36,
                "velocity": 64,
                "duration": 14.234090909090906,
                "tempo": 120.0
            },
            {
                "start_time": 42.80227272727272,
                "end_time": 43.55227272727272,
                "pitch": 36,
                "velocity": 64,
                "duration": 0.75,
                "tempo": 120.0
            },
            {
                "start_time": 43.60454545454545,
                "end_time": 44.26590909090909,
                "pitch": 36,
                "velocity": 64,
                "duration": 0.6613636363636388,
                "tempo": 120.0
            },
            {
                "start_time": 44.30681818181818,
                "end_time": 44.48181818181818,
                "pitch": 38,
                "velocity": 64,
                "duration": 0.17499999999999716,
                "tempo": 120.0
            },
            {
                "start_time": 44.525,
                "end_time": 45.48181818181818,
                "pitch": 38,
                "velocity": 64,
                "duration": 0.9568181818181785,
                "tempo": 120.0
            },
            {
                "start_time": 45.53409090909091,
                "end_time": 46.288636363636364,
                "pitch": 39,
                "velocity": 64,
                "duration": 0.7545454545454575,
                "tempo": 120.0
            },
            {
                "start_time": 42.25681818181818,
                "end_time": 46.56136363636364,
                "pitch": 41,
                "velocity": 64,
                "duration": 4.304545454545455,
                "tempo": 120.0
            },
            {
                "start_time": 46.340909090909086,
                "end_time": 46.56136363636364,
                "pitch": 41,
                "velocity": 64,
                "duration": 0.220454545454551,
                "tempo": 120.0
            },
            {
                "start_time": 29.87272727272727,
                "end_time": 46.61363636363636,
                "pitch": 54,
                "velocity": 64,
                "duration": 16.74090909090909,
                "tempo": 120.0
            },
            {
                "start_time": 46.61363636363636,
                "end_time": 47.63181818181818,
                "pitch": 43,
                "velocity": 64,
                "duration": 1.018181818181823,
                "tempo": 120.0
            },
            {
                "start_time": 47.684090909090905,
                "end_time": 48.445454545454545,
                "pitch": 43,
                "velocity": 64,
                "duration": 0.7613636363636402,
                "tempo": 120.0
            },
            {
                "start_time": 33.638636363636365,
                "end_time": 48.49545454545454,
                "pitch": 0,
                "velocity": 64,
                "duration": 14.856818181818177,
                "tempo": 120.0
            },
            {
                "start_time": 48.49545454545454,
                "end_time": 48.97954545454545,
                "pitch": 38,
                "velocity": 64,
                "duration": 0.48409090909090935,
                "tempo": 120.0
            },
            {
                "start_time": 32.02272727272727,
                "end_time": 49.03181818181818,
                "pitch": 53,
                "velocity": 64,
                "duration": 17.009090909090908,
                "tempo": 120.0
            },
            {
                "start_time": 49.03181818181818,
                "end_time": 49.79090909090909,
                "pitch": 43,
                "velocity": 64,
                "duration": 0.7590909090909079,
                "tempo": 120.0
            },
            {
                "start_time": 49.84318181818182,
                "end_time": 50.615909090909085,
                "pitch": 43,
                "velocity": 64,
                "duration": 0.7727272727272663,
                "tempo": 120.0
            },
            {
                "start_time": 50.668181818181814,
                "end_time": 50.89772727272727,
                "pitch": 43,
                "velocity": 64,
                "duration": 0.22954545454545894,
                "tempo": 120.0
            },
            {
                "start_time": 50.95227272727273,
                "end_time": 51.16136363636363,
                "pitch": 45,
                "velocity": 64,
                "duration": 0.20909090909090366,
                "tempo": 120.0
            },
            {
                "start_time": 51.211363636363636,
                "end_time": 51.55,
                "pitch": 46,
                "velocity": 64,
                "duration": 0.3386363636363612,
                "tempo": 120.0
            },
            {
                "start_time": 51.599999999999994,
                "end_time": 51.68181818181818,
                "pitch": 59,
                "velocity": 64,
                "duration": 0.08181818181818556,
                "tempo": 120.0
            },
            {
                "start_time": 51.99545454545454,
                "end_time": 52.48863636363636,
                "pitch": 47,
                "velocity": 64,
                "duration": 0.4931818181818173,
                "tempo": 120.0
            },
            {
                "start_time": 52.54090909090909,
                "end_time": 52.89545454545454,
                "pitch": 47,
                "velocity": 64,
                "duration": 0.35454545454545183,
                "tempo": 120.0
            },
            {
                "start_time": 42.80227272727272,
                "end_time": 52.94772727272727,
                "pitch": 19,
                "velocity": 64,
                "duration": 10.145454545454548,
                "tempo": 120.0
            },
            {
                "start_time": 35.788636363636364,
                "end_time": 53.3,
                "pitch": 42,
                "velocity": 64,
                "duration": 17.511363636363633,
                "tempo": 120.0
            },
            {
                "start_time": 52.94772727272727,
                "end_time": 53.3,
                "pitch": 42,
                "velocity": 64,
                "duration": 0.3522727272727266,
                "tempo": 120.0
            },
            {
                "start_time": 46.61363636363636,
                "end_time": 53.35227272727273,
                "pitch": 54,
                "velocity": 64,
                "duration": 6.738636363636367,
                "tempo": 120.0
            },
            {
                "start_time": 53.35227272727273,
                "end_time": 53.70454545454545,
                "pitch": 47,
                "velocity": 64,
                "duration": 0.3522727272727266,
                "tempo": 120.0
            },
            {
                "start_time": 53.75681818181818,
                "end_time": 53.84318181818182,
                "pitch": 59,
                "velocity": 64,
                "duration": 0.08636363636363598,
                "tempo": 120.0
            },
            {
                "start_time": 54.175,
                "end_time": 54.65,
                "pitch": 47,
                "velocity": 64,
                "duration": 0.4750000000000014,
                "tempo": 120.0
            },
            {
                "start_time": 54.699999999999996,
                "end_time": 55.05681818181818,
                "pitch": 47,
                "velocity": 64,
                "duration": 0.35681818181818414,
                "tempo": 120.0
            },
            {
                "start_time": 52.94772727272727,
                "end_time": 55.10681818181818,
                "pitch": 19,
                "velocity": 64,
                "duration": 2.1590909090909065,
                "tempo": 120.0
            },
            {
                "start_time": 46.340909090909086,
                "end_time": 55.461363636363636,
                "pitch": 39,
                "velocity": 64,
                "duration": 9.12045454545455,
                "tempo": 120.0
            },
            {
                "start_time": 55.10681818181818,
                "end_time": 55.461363636363636,
                "pitch": 39,
                "velocity": 64,
                "duration": 0.35454545454545894,
                "tempo": 120.0
            },
            {
                "start_time": 55.51136363636363,
                "end_time": 55.86363636363636,
                "pitch": 39,
                "velocity": 64,
                "duration": 0.3522727272727266,
                "tempo": 120.0
            },
            {
                "start_time": 55.91590909090909,
                "end_time": 56.002272727272725,
                "pitch": 52,
                "velocity": 64,
                "duration": 0.08636363636363598,
                "tempo": 120.0
            },
            {
                "start_time": 37.94772727272727,
                "end_time": 56.809090909090905,
                "pitch": 40,
                "velocity": 64,
                "duration": 18.861363636363635,
                "tempo": 120.0
            },
            {
                "start_time": 56.334090909090904,
                "end_time": 56.809090909090905,
                "pitch": 40,
                "velocity": 64,
                "duration": 0.4750000000000014,
                "tempo": 120.0
            },
            {
                "start_time": 56.85909090909091,
                "end_time": 57.215909090909086,
                "pitch": 40,
                "velocity": 64,
                "duration": 0.35681818181817704,
                "tempo": 120.0
            },
            {
                "start_time": 57.26590909090909,
                "end_time": 57.268181818181816,
                "pitch": 42,
                "velocity": 64,
                "duration": 0.0022727272727252057,
                "tempo": 120.0
            },
            {
                "start_time": 57.268181818181816,
                "end_time": 57.627272727272725,
                "pitch": 35,
                "velocity": 64,
                "duration": 0.35909090909090935,
                "tempo": 120.0
            },
            {
                "start_time": 55.10681818181818,
                "end_time": 57.679545454545455,
                "pitch": 19,
                "velocity": 64,
                "duration": 2.5727272727272776,
                "tempo": 120.0
            },
            {
                "start_time": 57.679545454545455,
                "end_time": 58.04090909090909,
                "pitch": 40,
                "velocity": 64,
                "duration": 0.36136363636363455,
                "tempo": 120.0
            },
            {
                "start_time": 58.090909090909086,
                "end_time": 58.17272727272727,
                "pitch": 52,
                "velocity": 64,
                "duration": 0.08181818181818556,
                "tempo": 120.0
            },
            {
                "start_time": 58.48409090909091,
                "end_time": 58.961363636363636,
                "pitch": 40,
                "velocity": 64,
                "duration": 0.4772727272727266,
                "tempo": 120.0
            },
            {
                "start_time": 59.01136363636363,
                "end_time": 59.365909090909085,
                "pitch": 40,
                "velocity": 64,
                "duration": 0.35454545454545183,
                "tempo": 120.0
            },
            {
                "start_time": 59.418181818181814,
                "end_time": 59.77272727272727,
                "pitch": 40,
                "velocity": 64,
                "duration": 0.35454545454545894,
                "tempo": 120.0
            },
            {
                "start_time": 59.82272727272727,
                "end_time": 60.175,
                "pitch": 39,
                "velocity": 64,
                "duration": 0.3522727272727266,
                "tempo": 120.0
            },
            {
                "start_time": 60.22727272727273,
                "end_time": 60.31363636363636,
                "pitch": 50,
                "velocity": 64,
                "duration": 0.08636363636363598,
                "tempo": 120.0
            },
            {
                "start_time": 60.64545454545454,
                "end_time": 61.12045454545454,
                "pitch": 38,
                "velocity": 64,
                "duration": 0.4750000000000014,
                "tempo": 120.0
            },
            {
                "start_time": 61.17045454545454,
                "end_time": 61.52045454545454,
                "pitch": 38,
                "velocity": 64,
                "duration": 0.3500000000000014,
                "tempo": 120.0
            },
            {
                "start_time": 61.570454545454545,
                "end_time": 61.918181818181814,
                "pitch": 33,
                "velocity": 64,
                "duration": 0.3477272727272691,
                "tempo": 120.0
            },
            {
                "start_time": 61.96818181818182,
                "end_time": 62.31818181818181,
                "pitch": 38,
                "velocity": 64,
                "duration": 0.3499999999999943,
                "tempo": 120.0
            },
            {
                "start_time": 62.37045454545454,
                "end_time": 62.461363636363636,
                "pitch": 50,
                "velocity": 64,
                "duration": 0.09090909090909349,
                "tempo": 120.0
            },
            {
                "start_time": 62.804545454545455,
                "end_time": 63.272727272727266,
                "pitch": 38,
                "velocity": 64,
                "duration": 0.4681818181818116,
                "tempo": 120.0
            },
            {
                "start_time": 63.32272727272727,
                "end_time": 63.67727272727272,
                "pitch": 40,
                "velocity": 64,
                "duration": 0.35454545454545183,
                "tempo": 120.0
            },
            {
                "start_time": 63.72954545454545,
                "end_time": 64.08636363636363,
                "pitch": 40,
                "velocity": 64,
                "duration": 0.35681818181817704,
                "tempo": 120.0
            },
            {
                "start_time": 53.35227272727273,
                "end_time": 64.13863636363637,
                "pitch": 54,
                "velocity": 64,
                "duration": 10.786363636363639,
                "tempo": 120.0
            },
            {
                "start_time": 64.13863636363637,
                "end_time": 64.49318181818181,
                "pitch": 43,
                "velocity": 64,
                "duration": 0.3545454545454447,
                "tempo": 120.0
            },
            {
                "start_time": 64.54318181818182,
                "end_time": 64.62727272727273,
                "pitch": 55,
                "velocity": 64,
                "duration": 0.08409090909090366,
                "tempo": 120.0
            },
            {
                "start_time": 64.94545454545454,
                "end_time": 65.42954545454545,
                "pitch": 43,
                "velocity": 64,
                "duration": 0.48409090909090935,
                "tempo": 120.0
            },
            {
                "start_time": 65.48181818181818,
                "end_time": 65.83181818181818,
                "pitch": 43,
                "velocity": 64,
                "duration": 0.3499999999999943,
                "tempo": 120.0
            },
            {
                "start_time": 48.49545454545454,
                "end_time": 65.88181818181818,
                "pitch": 0,
                "velocity": 64,
                "duration": 17.386363636363633,
                "tempo": 120.0
            },
            {
                "start_time": 63.32272727272727,
                "end_time": 66.23181818181818,
                "pitch": 38,
                "velocity": 64,
                "duration": 2.9090909090909136,
                "tempo": 120.0
            },
            {
                "start_time": 65.88181818181818,
                "end_time": 66.23181818181818,
                "pitch": 38,
                "velocity": 64,
                "duration": 0.3500000000000085,
                "tempo": 120.0
            },
            {
                "start_time": 49.03181818181818,
                "end_time": 66.2840909090909,
                "pitch": 53,
                "velocity": 64,
                "duration": 17.252272727272725,
                "tempo": 120.0
            },
            {
                "start_time": 66.2840909090909,
                "end_time": 66.63636363636363,
                "pitch": 43,
                "velocity": 64,
                "duration": 0.3522727272727195,
                "tempo": 120.0
            },
            {
                "start_time": 66.68636363636364,
                "end_time": 66.77045454545454,
                "pitch": 55,
                "velocity": 64,
                "duration": 0.08409090909090366,
                "tempo": 120.0
            },
            {
                "start_time": 67.09545454545454,
                "end_time": 67.57954545454545,
                "pitch": 43,
                "velocity": 64,
                "duration": 0.48409090909090935,
                "tempo": 120.0
            },
            {
                "start_time": 67.63181818181818,
                "end_time": 67.98636363636363,
                "pitch": 43,
                "velocity": 64,
                "duration": 0.35454545454545894,
                "tempo": 120.0
            },
            {
                "start_time": 68.03863636363636,
                "end_time": 68.39318181818182,
                "pitch": 43,
                "velocity": 64,
                "duration": 0.35454545454545894,
                "tempo": 120.0
            },
            {
                "start_time": 68.44318181818181,
                "end_time": 68.79545454545455,
                "pitch": 47,
                "velocity": 64,
                "duration": 0.35227272727273373,
                "tempo": 120.0
            },
            {
                "start_time": 68.85,
                "end_time": 68.93863636363636,
                "pitch": 59,
                "velocity": 64,
                "duration": 0.08863636363636829,
                "tempo": 120.0
            },
            {
                "start_time": 69.27499999999999,
                "end_time": 69.74318181818181,
                "pitch": 47,
                "velocity": 64,
                "duration": 0.4681818181818187,
                "tempo": 120.0
            },
            {
                "start_time": 69.79090909090908,
                "end_time": 70.14772727272727,
                "pitch": 47,
                "velocity": 64,
                "duration": 0.35681818181818414,
                "tempo": 120.0
            },
            {
                "start_time": 57.679545454545455,
                "end_time": 70.2,
                "pitch": 19,
                "velocity": 64,
                "duration": 12.520454545454548,
                "tempo": 120.0
            },
            {
                "start_time": 70.2,
                "end_time": 70.55227272727272,
                "pitch": 42,
                "velocity": 64,
                "duration": 0.3522727272727195,
                "tempo": 120.0
            },
            {
                "start_time": 64.13863636363637,
                "end_time": 70.60227272727272,
                "pitch": 54,
                "velocity": 64,
                "duration": 6.463636363636354,
                "tempo": 120.0
            },
            {
                "start_time": 70.60227272727272,
                "end_time": 70.95681818181818,
                "pitch": 47,
                "velocity": 64,
                "duration": 0.35454545454545894,
                "tempo": 120.0
            },
            {
                "start_time": 71.0090909090909,
                "end_time": 71.09545454545454,
                "pitch": 59,
                "velocity": 64,
                "duration": 0.08636363636364308,
                "tempo": 120.0
            },
            {
                "start_time": 71.425,
                "end_time": 71.90227272727272,
                "pitch": 47,
                "velocity": 64,
                "duration": 0.4772727272727195,
                "tempo": 120.0
            },
            {
                "start_time": 68.44318181818181,
                "end_time": 72.17045454545455,
                "pitch": 45,
                "velocity": 64,
                "duration": 3.7272727272727337,
                "tempo": 120.0
            },
            {
                "start_time": 71.95227272727273,
                "end_time": 72.17045454545455,
                "pitch": 45,
                "velocity": 64,
                "duration": 0.2181818181818187,
                "tempo": 120.0
            },
            {
                "start_time": 72.22272727272727,
                "end_time": 72.44318181818181,
                "pitch": 45,
                "velocity": 64,
                "duration": 0.2204545454545439,
                "tempo": 120.0
            },
            {
                "start_time": 65.88181818181818,
                "end_time": 72.49545454545454,
                "pitch": 0,
                "velocity": 64,
                "duration": 6.61363636363636,
                "tempo": 120.0
            },
            {
                "start_time": 72.49545454545454,
                "end_time": 72.7090909090909,
                "pitch": 39,
                "velocity": 64,
                "duration": 0.2136363636363683,
                "tempo": 120.0
            },
            {
                "start_time": 72.7590909090909,
                "end_time": 73.10454545454544,
                "pitch": 39,
                "velocity": 64,
                "duration": 0.3454545454545439,
                "tempo": 120.0
            },
            {
                "start_time": 73.15681818181818,
                "end_time": 73.24090909090908,
                "pitch": 52,
                "velocity": 64,
                "duration": 0.08409090909090366,
                "tempo": 120.0
            },
            {
                "start_time": 73.56590909090909,
                "end_time": 74.05,
                "pitch": 40,
                "velocity": 64,
                "duration": 0.48409090909090935,
                "tempo": 120.0
            },
            {
                "start_time": 74.1,
                "end_time": 74.45681818181818,
                "pitch": 40,
                "velocity": 64,
                "duration": 0.35681818181818414,
                "tempo": 120.0
            },
            {
                "start_time": 74.5090909090909,
                "end_time": 74.86590909090908,
                "pitch": 40,
                "velocity": 64,
                "duration": 0.35681818181818414,
                "tempo": 120.0
            },
            {
                "start_time": 74.91818181818182,
                "end_time": 75.27045454545454,
                "pitch": 39,
                "velocity": 64,
                "duration": 0.3522727272727195,
                "tempo": 120.0
            },
            {
                "start_time": 75.32045454545454,
                "end_time": 75.40227272727272,
                "pitch": 50,
                "velocity": 64,
                "duration": 0.08181818181817846,
                "tempo": 120.0
            },
            {
                "start_time": 75.7159090909091,
                "end_time": 76.2090909090909,
                "pitch": 38,
                "velocity": 64,
                "duration": 0.49318181818181017,
                "tempo": 120.0
            },
            {
                "start_time": 76.2590909090909,
                "end_time": 76.61136363636363,
                "pitch": 37,
                "velocity": 64,
                "duration": 0.35227272727273373,
                "tempo": 120.0
            },
            {
                "start_time": 76.66136363636363,
                "end_time": 77.01590909090909,
                "pitch": 37,
                "velocity": 64,
                "duration": 0.35454545454545894,
                "tempo": 120.0
            },
            {
                "start_time": 77.06818181818181,
                "end_time": 77.425,
                "pitch": 37,
                "velocity": 64,
                "duration": 0.35681818181818414,
                "tempo": 120.0
            },
            {
                "start_time": 77.47954545454544,
                "end_time": 77.56363636363636,
                "pitch": 48,
                "velocity": 64,
                "duration": 0.08409090909091788,
                "tempo": 120.0
            },
            {
                "start_time": 44.30681818181818,
                "end_time": 78.37045454545454,
                "pitch": 36,
                "velocity": 64,
                "duration": 34.063636363636355,
                "tempo": 120.0
            },
            {
                "start_time": 77.89545454545454,
                "end_time": 78.37045454545454,
                "pitch": 36,
                "velocity": 64,
                "duration": 0.4749999999999943,
                "tempo": 120.0
            },
            {
                "start_time": 78.42045454545455,
                "end_time": 78.50454545454545,
                "pitch": 48,
                "velocity": 64,
                "duration": 0.08409090909090366,
                "tempo": 120.0
            },
            {
                "start_time": 78.69318181818181,
                "end_time": 78.77727272727272,
                "pitch": 36,
                "velocity": 64,
                "duration": 0.08409090909090366,
                "tempo": 120.0
            },
            {
                "start_time": 78.82954545454545,
                "end_time": 79.17727272727272,
                "pitch": 36,
                "velocity": 64,
                "duration": 0.3477272727272691,
                "tempo": 120.0
            },
            {
                "start_time": 79.22954545454544,
                "end_time": 79.575,
                "pitch": 37,
                "velocity": 64,
                "duration": 0.3454545454545581,
                "tempo": 120.0
            },
            {
                "start_time": 79.62954545454545,
                "end_time": 79.71363636363635,
                "pitch": 50,
                "velocity": 64,
                "duration": 0.08409090909090366,
                "tempo": 120.0
            },
            {
                "start_time": 80.04545454545455,
                "end_time": 80.52045454545454,
                "pitch": 38,
                "velocity": 64,
                "duration": 0.4749999999999943,
                "tempo": 120.0
            },
            {
                "start_time": 80.57045454545454,
                "end_time": 80.65454545454546,
                "pitch": 50,
                "velocity": 64,
                "duration": 0.08409090909091788,
                "tempo": 120.0
            },
            {
                "start_time": 80.98636363636363,
                "end_time": 81.33863636363635,
                "pitch": 38,
                "velocity": 64,
                "duration": 0.3522727272727195,
                "tempo": 120.0
            },
            {
                "start_time": 66.2840909090909,
                "end_time": 81.38863636363637,
                "pitch": 53,
                "velocity": 64,
                "duration": 15.104545454545459,
                "tempo": 120.0
            },
            {
                "start_time": 81.38863636363637,
                "end_time": 81.73409090909091,
                "pitch": 43,
                "velocity": 64,
                "duration": 0.3454545454545439,
                "tempo": 120.0
            },
            {
                "start_time": 81.78636363636363,
                "end_time": 81.87045454545454,
                "pitch": 55,
                "velocity": 64,
                "duration": 0.08409090909090366,
                "tempo": 120.0
            },
            {
                "start_time": 82.19545454545454,
                "end_time": 82.67954545454545,
                "pitch": 43,
                "velocity": 64,
                "duration": 0.48409090909090935,
                "tempo": 120.0
            },
            {
                "start_time": 82.72954545454544,
                "end_time": 82.81363636363636,
                "pitch": 55,
                "velocity": 64,
                "duration": 0.08409090909091788,
                "tempo": 120.0
            },
            {
                "start_time": 72.49545454545454,
                "end_time": 83.13181818181818,
                "pitch": 0,
                "velocity": 64,
                "duration": 10.63636363636364,
                "tempo": 120.0
            },
            {
                "start_time": 83.13181818181818,
                "end_time": 83.48863636363636,
                "pitch": 38,
                "velocity": 64,
                "duration": 0.35681818181818414,
                "tempo": 120.0
            },
            {
                "start_time": 81.38863636363637,
                "end_time": 83.54318181818181,
                "pitch": 53,
                "velocity": 64,
                "duration": 2.154545454545442,
                "tempo": 120.0
            },
            {
                "start_time": 83.54318181818181,
                "end_time": 83.90454545454546,
                "pitch": 43,
                "velocity": 64,
                "duration": 0.36136363636364877,
                "tempo": 120.0
            },
            {
                "start_time": 83.95681818181818,
                "end_time": 84.04090909090908,
                "pitch": 43,
                "velocity": 64,
                "duration": 0.08409090909090366,
                "tempo": 120.0
            },
            {
                "start_time": 84.36590909090908,
                "end_time": 85.64090909090909,
                "pitch": 43,
                "velocity": 64,
                "duration": 1.2750000000000057,
                "tempo": 120.0
            },
            {
                "start_time": 85.69545454545454,
                "end_time": 86.18636363636364,
                "pitch": 43,
                "velocity": 64,
                "duration": 0.4909090909090992,
                "tempo": 120.0
            }
        ],
        "Clarinet": [
            {
                "start_time": 51.99772727272727,
                "end_time": 52.14772727272727,
                "pitch": 71,
                "velocity": 51,
                "duration": 0.15000000000000568,
                "tempo": 120.0
            },
            {
                "start_time": 52.268181818181816,
                "end_time": 52.42045454545454,
                "pitch": 69,
                "velocity": 51,
                "duration": 0.15227272727272378,
                "tempo": 120.0
            },
            {
                "start_time": 52.54090909090909,
                "end_time": 52.69318181818181,
                "pitch": 69,
                "velocity": 51,
                "duration": 0.15227272727272378,
                "tempo": 120.0
            },
            {
                "start_time": 52.81363636363636,
                "end_time": 53.03181818181818,
                "pitch": 69,
                "velocity": 51,
                "duration": 0.2181818181818187,
                "tempo": 120.0
            },
            {
                "start_time": 53.084090909090904,
                "end_time": 53.30227272727272,
                "pitch": 63,
                "velocity": 51,
                "duration": 0.2181818181818187,
                "tempo": 120.0
            },
            {
                "start_time": 53.35227272727273,
                "end_time": 53.98181818181818,
                "pitch": 69,
                "velocity": 51,
                "duration": 0.6295454545454504,
                "tempo": 120.0
            },
            {
                "start_time": 54.175,
                "end_time": 54.25681818181818,
                "pitch": 69,
                "velocity": 51,
                "duration": 0.08181818181818556,
                "tempo": 120.0
            },
            {
                "start_time": 54.43863636363636,
                "end_time": 54.65,
                "pitch": 69,
                "velocity": 51,
                "duration": 0.21136363636363598,
                "tempo": 120.0
            },
            {
                "start_time": 53.084090909090904,
                "end_time": 54.70227272727273,
                "pitch": 31,
                "velocity": 51,
                "duration": 1.6181818181818244,
                "tempo": 120.0
            },
            {
                "start_time": 54.70227272727273,
                "end_time": 54.92045454545454,
                "pitch": 63,
                "velocity": 51,
                "duration": 0.2181818181818116,
                "tempo": 120.0
            },
            {
                "start_time": 53.35227272727273,
                "end_time": 54.97272727272727,
                "pitch": 77,
                "velocity": 51,
                "duration": 1.6204545454545425,
                "tempo": 120.0
            },
            {
                "start_time": 54.97272727272727,
                "end_time": 55.19318181818181,
                "pitch": 69,
                "velocity": 51,
                "duration": 0.2204545454545439,
                "tempo": 120.0
            },
            {
                "start_time": 55.24545454545454,
                "end_time": 55.32727272727273,
                "pitch": 75,
                "velocity": 51,
                "duration": 0.08181818181818556,
                "tempo": 120.0
            },
            {
                "start_time": 55.51363636363636,
                "end_time": 56.00454545454545,
                "pitch": 75,
                "velocity": 51,
                "duration": 0.49090909090909207,
                "tempo": 120.0
            },
            {
                "start_time": 54.97272727272727,
                "end_time": 56.05681818181818,
                "pitch": 77,
                "velocity": 51,
                "duration": 1.0840909090909108,
                "tempo": 120.0
            },
            {
                "start_time": 56.05681818181818,
                "end_time": 56.28181818181818,
                "pitch": 71,
                "velocity": 51,
                "duration": 0.22500000000000142,
                "tempo": 120.0
            },
            {
                "start_time": 56.334090909090904,
                "end_time": 57.35227272727273,
                "pitch": 76,
                "velocity": 51,
                "duration": 1.018181818181823,
                "tempo": 120.0
            },
            {
                "start_time": 60.647727272727266,
                "end_time": 60.72727272727273,
                "pitch": 69,
                "velocity": 51,
                "duration": 0.07954545454546036,
                "tempo": 120.0
            },
            {
                "start_time": 60.90909090909091,
                "end_time": 60.98863636363636,
                "pitch": 69,
                "velocity": 51,
                "duration": 0.07954545454545325,
                "tempo": 120.0
            },
            {
                "start_time": 61.17272727272727,
                "end_time": 61.252272727272725,
                "pitch": 69,
                "velocity": 51,
                "duration": 0.07954545454545325,
                "tempo": 120.0
            },
            {
                "start_time": 54.70227272727273,
                "end_time": 61.70454545454545,
                "pitch": 31,
                "velocity": 51,
                "duration": 7.002272727272725,
                "tempo": 120.0
            },
            {
                "start_time": 61.43863636363636,
                "end_time": 61.70454545454545,
                "pitch": 69,
                "velocity": 51,
                "duration": 0.26590909090909065,
                "tempo": 120.0
            },
            {
                "start_time": 61.70454545454545,
                "end_time": 61.918181818181814,
                "pitch": 66,
                "velocity": 51,
                "duration": 0.21363636363636118,
                "tempo": 120.0
            },
            {
                "start_time": 60.647727272727266,
                "end_time": 61.96818181818182,
                "pitch": 78,
                "velocity": 51,
                "duration": 1.3204545454545524,
                "tempo": 120.0
            },
            {
                "start_time": 61.96818181818182,
                "end_time": 62.75,
                "pitch": 69,
                "velocity": 51,
                "duration": 0.7818181818181813,
                "tempo": 120.0
            },
            {
                "start_time": 63.06363636363636,
                "end_time": 63.272727272727266,
                "pitch": 69,
                "velocity": 51,
                "duration": 0.20909090909090366,
                "tempo": 120.0
            },
            {
                "start_time": 55.24545454545454,
                "end_time": 63.32272727272727,
                "pitch": 43,
                "velocity": 51,
                "duration": 8.077272727272728,
                "tempo": 120.0
            },
            {
                "start_time": 63.32272727272727,
                "end_time": 63.81363636363636,
                "pitch": 72,
                "velocity": 51,
                "duration": 0.49090909090909207,
                "tempo": 120.0
            },
            {
                "start_time": 61.96818181818182,
                "end_time": 69.27727272727273,
                "pitch": 78,
                "velocity": 51,
                "duration": 7.309090909090912,
                "tempo": 120.0
            },
            {
                "start_time": 69.27727272727273,
                "end_time": 69.42045454545455,
                "pitch": 69,
                "velocity": 51,
                "duration": 0.14318181818181586,
                "tempo": 120.0
            },
            {
                "start_time": 69.5340909090909,
                "end_time": 69.67727272727272,
                "pitch": 69,
                "velocity": 51,
                "duration": 0.14318181818181586,
                "tempo": 120.0
            },
            {
                "start_time": 69.79318181818182,
                "end_time": 69.94318181818181,
                "pitch": 69,
                "velocity": 51,
                "duration": 0.14999999999999147,
                "tempo": 120.0
            },
            {
                "start_time": 70.06363636363636,
                "end_time": 70.2840909090909,
                "pitch": 69,
                "velocity": 51,
                "duration": 0.2204545454545439,
                "tempo": 120.0
            },
            {
                "start_time": 61.70454545454545,
                "end_time": 70.33636363636363,
                "pitch": 31,
                "velocity": 51,
                "duration": 8.631818181818176,
                "tempo": 120.0
            },
            {
                "start_time": 70.33636363636363,
                "end_time": 70.55227272727272,
                "pitch": 63,
                "velocity": 51,
                "duration": 0.2159090909090935,
                "tempo": 120.0
            },
            {
                "start_time": 56.05681818181818,
                "end_time": 70.60454545454544,
                "pitch": 77,
                "velocity": 51,
                "duration": 14.547727272727265,
                "tempo": 120.0
            },
            {
                "start_time": 70.60454545454544,
                "end_time": 71.23409090909091,
                "pitch": 69,
                "velocity": 51,
                "duration": 0.6295454545454646,
                "tempo": 120.0
            },
            {
                "start_time": 72.7590909090909,
                "end_time": 73.51363636363637,
                "pitch": 69,
                "velocity": 51,
                "duration": 0.7545454545454646,
                "tempo": 120.0
            },
            {
                "start_time": 73.56818181818181,
                "end_time": 74.32272727272726,
                "pitch": 71,
                "velocity": 51,
                "duration": 0.7545454545454504,
                "tempo": 120.0
            },
            {
                "start_time": 74.375,
                "end_time": 74.86590909090908,
                "pitch": 71,
                "velocity": 51,
                "duration": 0.49090909090908497,
                "tempo": 120.0
            },
            {
                "start_time": 74.92045454545455,
                "end_time": 75.66590909090908,
                "pitch": 71,
                "velocity": 51,
                "duration": 0.7454545454545354,
                "tempo": 120.0
            },
            {
                "start_time": 75.71818181818182,
                "end_time": 76.47727272727272,
                "pitch": 71,
                "velocity": 51,
                "duration": 0.7590909090909008,
                "tempo": 120.0
            },
            {
                "start_time": 76.52954545454546,
                "end_time": 77.01590909090909,
                "pitch": 71,
                "velocity": 51,
                "duration": 0.48636363636363455,
                "tempo": 120.0
            },
            {
                "start_time": 77.07045454545454,
                "end_time": 77.425,
                "pitch": 64,
                "velocity": 51,
                "duration": 0.35454545454545894,
                "tempo": 120.0
            },
            {
                "start_time": 69.27727272727273,
                "end_time": 77.47954545454544,
                "pitch": 78,
                "velocity": 51,
                "duration": 8.202272727272714,
                "tempo": 120.0
            },
            {
                "start_time": 77.47954545454544,
                "end_time": 77.84318181818182,
                "pitch": 71,
                "velocity": 51,
                "duration": 0.36363636363637397,
                "tempo": 120.0
            },
            {
                "start_time": 77.89545454545454,
                "end_time": 78.10909090909091,
                "pitch": 67,
                "velocity": 51,
                "duration": 0.2136363636363683,
                "tempo": 120.0
            },
            {
                "start_time": 77.47954545454544,
                "end_time": 78.55681818181817,
                "pitch": 78,
                "velocity": 51,
                "duration": 1.077272727272728,
                "tempo": 120.0
            },
            {
                "start_time": 77.89545454545454,
                "end_time": 78.91363636363636,
                "pitch": 71,
                "velocity": 51,
                "duration": 1.0181818181818159,
                "tempo": 120.0
            },
            {
                "start_time": 78.55681818181817,
                "end_time": 78.91363636363636,
                "pitch": 71,
                "velocity": 51,
                "duration": 0.35681818181818414,
                "tempo": 120.0
            },
            {
                "start_time": 78.9659090909091,
                "end_time": 79.17954545454545,
                "pitch": 67,
                "velocity": 51,
                "duration": 0.21363636363635408,
                "tempo": 120.0
            },
            {
                "start_time": 78.55681818181817,
                "end_time": 79.62954545454545,
                "pitch": 78,
                "velocity": 51,
                "duration": 1.0727272727272776,
                "tempo": 120.0
            },
            {
                "start_time": 79.62954545454545,
                "end_time": 79.99318181818181,
                "pitch": 74,
                "velocity": 51,
                "duration": 0.36363636363635976,
                "tempo": 120.0
            },
            {
                "start_time": 70.60454545454544,
                "end_time": 80.04545454545455,
                "pitch": 77,
                "velocity": 51,
                "duration": 9.440909090909102,
                "tempo": 120.0
            },
            {
                "start_time": 80.04545454545455,
                "end_time": 80.2590909090909,
                "pitch": 69,
                "velocity": 51,
                "duration": 0.21363636363635408,
                "tempo": 120.0
            },
            {
                "start_time": 70.33636363636363,
                "end_time": 80.30909090909091,
                "pitch": 31,
                "velocity": 51,
                "duration": 9.972727272727283,
                "tempo": 120.0
            },
            {
                "start_time": 80.30909090909091,
                "end_time": 80.65681818181818,
                "pitch": 66,
                "velocity": 51,
                "duration": 0.3477272727272691,
                "tempo": 120.0
            },
            {
                "start_time": 79.62954545454545,
                "end_time": 80.7090909090909,
                "pitch": 78,
                "velocity": 51,
                "duration": 1.0795454545454533,
                "tempo": 120.0
            },
            {
                "start_time": 80.7090909090909,
                "end_time": 81.07272727272726,
                "pitch": 74,
                "velocity": 51,
                "duration": 0.36363636363635976,
                "tempo": 120.0
            },
            {
                "start_time": 80.04545454545455,
                "end_time": 81.125,
                "pitch": 77,
                "velocity": 51,
                "duration": 1.0795454545454533,
                "tempo": 120.0
            },
            {
                "start_time": 81.125,
                "end_time": 81.33863636363635,
                "pitch": 69,
                "velocity": 51,
                "duration": 0.21363636363635408,
                "tempo": 120.0
            },
            {
                "start_time": 80.30909090909091,
                "end_time": 81.38863636363637,
                "pitch": 31,
                "velocity": 51,
                "duration": 1.0795454545454533,
                "tempo": 120.0
            },
            {
                "start_time": 81.38863636363637,
                "end_time": 81.73409090909091,
                "pitch": 62,
                "velocity": 51,
                "duration": 0.3454545454545439,
                "tempo": 120.0
            },
            {
                "start_time": 81.78863636363636,
                "end_time": 82.14318181818182,
                "pitch": 66,
                "velocity": 51,
                "duration": 0.35454545454545894,
                "tempo": 120.0
            },
            {
                "start_time": 80.7090909090909,
                "end_time": 82.19545454545454,
                "pitch": 78,
                "velocity": 51,
                "duration": 1.4863636363636346,
                "tempo": 120.0
            },
            {
                "start_time": 82.19545454545454,
                "end_time": 83.48863636363636,
                "pitch": 67,
                "velocity": 51,
                "duration": 1.2931818181818215,
                "tempo": 120.0
            },
            {
                "start_time": 82.19545454545454,
                "end_time": 84.31363636363636,
                "pitch": 78,
                "velocity": 51,
                "duration": 2.1181818181818244,
                "tempo": 120.0
            },
            {
                "start_time": 83.95681818181818,
                "end_time": 84.31363636363636,
                "pitch": 78,
                "velocity": 32,
                "duration": 0.35681818181818414,
                "tempo": 120.0
            },
            {
                "start_time": 84.36590909090908,
                "end_time": 85.64090909090909,
                "pitch": 79,
                "velocity": 32,
                "duration": 1.2750000000000057,
                "tempo": 120.0
            }
        ]
    }
}