{
    "track_id": "14 Conspirators",
    "mood": "relaxed",
    "instruments": {
        "Vibraphone": [
            {
                "start_time": 0.4113636363636363,
                "end_time": 0.41363636363636364,
                "pitch": 36,
                "velocity": 127,
                "duration": 0.002272727272727315,
                "tempo": 120.0
            },
            {
                "start_time": 0.41363636363636364,
                "end_time": 0.8795454545454545,
                "pitch": 39,
                "velocity": 127,
                "duration": 0.4659090909090909,
                "tempo": 120.0
            },
            {
                "start_time": 0.9318181818181818,
                "end_time": 1.3977272727272727,
                "pitch": 42,
                "velocity": 127,
                "duration": 0.46590909090909094,
                "tempo": 120.0
            },
            {
                "start_time": 1.4318181818181817,
                "end_time": 3.9499999999999997,
                "pitch": 45,
                "velocity": 127,
                "duration": 2.518181818181818,
                "tempo": 120.0
            }
        ],
        "Electric Guitar (clean)": [
            {
                "start_time": 0.0,
                "end_time": 3.9499999999999997,
                "pitch": 36,
                "velocity": 127,
                "duration": 3.9499999999999997,
                "tempo": 120.0
            }
        ],
        "Church Organ": [
            {
                "start_time": 2.065909090909091,
                "end_time": 2.168181818181818,
                "pitch": 57,
                "velocity": 101,
                "duration": 0.10227272727272707,
                "tempo": 120.0
            },
            {
                "start_time": 2.202272727272727,
                "end_time": 2.3045454545454542,
                "pitch": 60,
                "velocity": 101,
                "duration": 0.10227272727272707,
                "tempo": 120.0
            },
            {
                "start_time": 2.3227272727272728,
                "end_time": 2.425,
                "pitch": 63,
                "velocity": 127,
                "duration": 0.10227272727272707,
                "tempo": 120.0
            },
            {
                "start_time": 2.459090909090909,
                "end_time": 2.561363636363636,
                "pitch": 66,
                "velocity": 127,
                "duration": 0.10227272727272707,
                "tempo": 120.0
            },
            {
                "start_time": 2.577272727272727,
                "end_time": 2.6954545454545453,
                "pitch": 57,
                "velocity": 127,
                "duration": 0.11818181818181817,
                "tempo": 120.0
            },
            {
                "start_time": 2.202272727272727,
                "end_time": 2.7136363636363634,
                "pitch": 31,
                "velocity": 101,
                "duration": 0.5113636363636362,
                "tempo": 120.0
            },
            {
                "start_time": 2.3227272727272728,
                "end_time": 2.815909090909091,
                "pitch": 60,
                "velocity": 127,
                "duration": 0.49318181818181817,
                "tempo": 120.0
            },
            {
                "start_time": 2.7136363636363634,
                "end_time": 2.815909090909091,
                "pitch": 60,
                "velocity": 127,
                "duration": 0.10227272727272751,
                "tempo": 120.0
            },
            {
                "start_time": 2.459090909090909,
                "end_time": 2.952272727272727,
                "pitch": 63,
                "velocity": 127,
                "duration": 0.49318181818181817,
                "tempo": 120.0
            },
            {
                "start_time": 2.834090909090909,
                "end_time": 2.952272727272727,
                "pitch": 63,
                "velocity": 127,
                "duration": 0.11818181818181817,
                "tempo": 120.0
            },
            {
                "start_time": 2.577272727272727,
                "end_time": 3.068181818181818,
                "pitch": 66,
                "velocity": 127,
                "duration": 0.49090909090909074,
                "tempo": 120.0
            },
            {
                "start_time": 2.9704545454545452,
                "end_time": 3.068181818181818,
                "pitch": 66,
                "velocity": 127,
                "duration": 0.09772727272727266,
                "tempo": 120.0
            },
            {
                "start_time": 3.0863636363636364,
                "end_time": 3.202272727272727,
                "pitch": 57,
                "velocity": 127,
                "duration": 0.11590909090909074,
                "tempo": 120.0
            },
            {
                "start_time": 2.7136363636363634,
                "end_time": 3.218181818181818,
                "pitch": 31,
                "velocity": 127,
                "duration": 0.5045454545454544,
                "tempo": 120.0
            },
            {
                "start_time": 2.834090909090909,
                "end_time": 3.318181818181818,
                "pitch": 60,
                "velocity": 127,
                "duration": 0.4840909090909089,
                "tempo": 120.0
            },
            {
                "start_time": 3.218181818181818,
                "end_time": 3.318181818181818,
                "pitch": 60,
                "velocity": 127,
                "duration": 0.10000000000000009,
                "tempo": 120.0
            },
            {
                "start_time": 2.9704545454545452,
                "end_time": 3.452272727272727,
                "pitch": 63,
                "velocity": 127,
                "duration": 0.4818181818181819,
                "tempo": 120.0
            },
            {
                "start_time": 3.352272727272727,
                "end_time": 3.452272727272727,
                "pitch": 63,
                "velocity": 127,
                "duration": 0.10000000000000009,
                "tempo": 120.0
            },
            {
                "start_time": 3.0863636363636364,
                "end_time": 3.568181818181818,
                "pitch": 66,
                "velocity": 127,
                "duration": 0.4818181818181815,
                "tempo": 120.0
            },
            {
                "start_time": 3.468181818181818,
                "end_time": 3.568181818181818,
                "pitch": 66,
                "velocity": 127,
                "duration": 0.10000000000000009,
                "tempo": 120.0
            },
            {
                "start_time": 3.602272727272727,
                "end_time": 3.6999999999999997,
                "pitch": 57,
                "velocity": 127,
                "duration": 0.09772727272727266,
                "tempo": 120.0
            },
            {
                "start_time": 3.218181818181818,
                "end_time": 3.718181818181818,
                "pitch": 31,
                "velocity": 127,
                "duration": 0.5,
                "tempo": 120.0
            },
            {
                "start_time": 3.352272727272727,
                "end_time": 3.834090909090909,
                "pitch": 60,
                "velocity": 127,
                "duration": 0.4818181818181819,
                "tempo": 120.0
            },
            {
                "start_time": 3.718181818181818,
                "end_time": 3.834090909090909,
                "pitch": 60,
                "velocity": 127,
                "duration": 0.11590909090909118,
                "tempo": 120.0
            },
            {
                "start_time": 3.468181818181818,
                "end_time": 3.9499999999999997,
                "pitch": 63,
                "velocity": 127,
                "duration": 0.4818181818181819,
                "tempo": 120.0
            },
            {
                "start_time": 3.8499999999999996,
                "end_time": 3.9499999999999997,
                "pitch": 63,
                "velocity": 101,
                "duration": 0.10000000000000009,
                "tempo": 120.0
            }
        ]
    }
}