{
    "track_id": "15 Staff Roll (Ending Credits)",
    "mood": "relaxed",
    "instruments": {
        "Electric Piano 1": [
            {
                "start_time": 0.22272727272727272,
                "end_time": 0.42272727272727273,
                "pitch": 58,
                "velocity": 51,
                "duration": 0.2,
                "tempo": 120.0
            },
            {
                "start_time": 0.425,
                "end_time": 0.625,
                "pitch": 57,
                "velocity": 51,
                "duration": 0.2,
                "tempo": 120.0
            },
            {
                "start_time": 0.625,
                "end_time": 0.8272727272727273,
                "pitch": 58,
                "velocity": 51,
                "duration": 0.20227272727272727,
                "tempo": 120.0
            },
            {
                "start_time": 0.8272727272727273,
                "end_time": 1.093181818181818,
                "pitch": 58,
                "velocity": 51,
                "duration": 0.26590909090909076,
                "tempo": 120.0
            },
            {
                "start_time": 1.093181818181818,
                "end_time": 1.3613636363636363,
                "pitch": 57,
                "velocity": 51,
                "duration": 0.2681818181818183,
                "tempo": 120.0
            },
            {
                "start_time": 1.3636363636363635,
                "end_time": 1.6318181818181818,
                "pitch": 58,
                "velocity": 51,
                "duration": 0.2681818181818183,
                "tempo": 120.0
            },
            {
                "start_time": 1.6318181818181818,
                "end_time": 1.9022727272727271,
                "pitch": 58,
                "velocity": 51,
                "duration": 0.2704545454545453,
                "tempo": 120.0
            },
            {
                "start_time": 1.9022727272727271,
                "end_time": 2.168181818181818,
                "pitch": 57,
                "velocity": 51,
                "duration": 0.2659090909090909,
                "tempo": 120.0
            },
            {
                "start_time": 2.168181818181818,
                "end_time": 2.434090909090909,
                "pitch": 58,
                "velocity": 51,
                "duration": 0.2659090909090911,
                "tempo": 120.0
            },
            {
                "start_time": 2.434090909090909,
                "end_time": 2.6999999999999997,
                "pitch": 58,
                "velocity": 51,
                "duration": 0.26590909090909065,
                "tempo": 120.0
            },
            {
                "start_time": 2.6999999999999997,
                "end_time": 2.965909090909091,
                "pitch": 57,
                "velocity": 51,
                "duration": 0.2659090909090911,
                "tempo": 120.0
            },
            {
                "start_time": 2.9681818181818183,
                "end_time": 3.2318181818181815,
                "pitch": 58,
                "velocity": 51,
                "duration": 0.2636363636363632,
                "tempo": 120.0
            },
            {
                "start_time": 3.2318181818181815,
                "end_time": 3.4977272727272726,
                "pitch": 58,
                "velocity": 51,
                "duration": 0.2659090909090911,
                "tempo": 120.0
            },
            {
                "start_time": 3.5,
                "end_time": 3.7636363636363637,
                "pitch": 57,
                "velocity": 51,
                "duration": 0.26363636363636367,
                "tempo": 120.0
            },
            {
                "start_time": 3.7659090909090907,
                "end_time": 4.029545454545454,
                "pitch": 58,
                "velocity": 51,
                "duration": 0.26363636363636367,
                "tempo": 120.0
            },
            {
                "start_time": 4.031818181818181,
                "end_time": 4.295454545454545,
                "pitch": 58,
                "velocity": 51,
                "duration": 0.26363636363636367,
                "tempo": 120.0
            },
            {
                "start_time": 4.297727272727273,
                "end_time": 4.5636363636363635,
                "pitch": 57,
                "velocity": 51,
                "duration": 0.26590909090909065,
                "tempo": 120.0
            },
            {
                "start_time": 4.5636363636363635,
                "end_time": 4.829545454545454,
                "pitch": 58,
                "velocity": 51,
                "duration": 0.26590909090909065,
                "tempo": 120.0
            },
            {
                "start_time": 4.829545454545454,
                "end_time": 5.095454545454545,
                "pitch": 58,
                "velocity": 51,
                "duration": 0.26590909090909065,
                "tempo": 120.0
            },
            {
                "start_time": 5.095454545454545,
                "end_time": 5.363636363636363,
                "pitch": 57,
                "velocity": 51,
                "duration": 0.2681818181818185,
                "tempo": 120.0
            },
            {
                "start_time": 5.36590909090909,
                "end_time": 5.634090909090909,
                "pitch": 58,
                "velocity": 51,
                "duration": 0.2681818181818185,
                "tempo": 120.0
            },
            {
                "start_time": 5.634090909090909,
                "end_time": 5.904545454545454,
                "pitch": 58,
                "velocity": 51,
                "duration": 0.2704545454545455,
                "tempo": 120.0
            },
            {
                "start_time": 5.904545454545454,
                "end_time": 6.175,
                "pitch": 57,
                "velocity": 51,
                "duration": 0.2704545454545455,
                "tempo": 120.0
            },
            {
                "start_time": 6.175,
                "end_time": 6.4431818181818175,
                "pitch": 58,
                "velocity": 51,
                "duration": 0.26818181818181763,
                "tempo": 120.0
            },
            {
                "start_time": 6.4431818181818175,
                "end_time": 6.713636363636363,
                "pitch": 60,
                "velocity": 51,
                "duration": 0.2704545454545455,
                "tempo": 120.0
            },
            {
                "start_time": 6.713636363636363,
                "end_time": 6.9818181818181815,
                "pitch": 58,
                "velocity": 51,
                "duration": 0.2681818181818185,
                "tempo": 120.0
            },
            {
                "start_time": 6.9840909090909085,
                "end_time": 7.252272727272727,
                "pitch": 60,
                "velocity": 51,
                "duration": 0.2681818181818185,
                "tempo": 120.0
            },
            {
                "start_time": 7.252272727272727,
                "end_time": 7.518181818181818,
                "pitch": 58,
                "velocity": 51,
                "duration": 0.26590909090909065,
                "tempo": 120.0
            },
            {
                "start_time": 7.5204545454545455,
                "end_time": 7.784090909090908,
                "pitch": 57,
                "velocity": 51,
                "duration": 0.2636363636363628,
                "tempo": 120.0
            },
            {
                "start_time": 7.786363636363636,
                "end_time": 8.049999999999999,
                "pitch": 58,
                "velocity": 51,
                "duration": 0.2636363636363628,
                "tempo": 120.0
            },
            {
                "start_time": 8.052272727272728,
                "end_time": 8.315909090909091,
                "pitch": 57,
                "velocity": 51,
                "duration": 0.26363636363636367,
                "tempo": 120.0
            },
            {
                "start_time": 8.318181818181818,
                "end_time": 8.581818181818182,
                "pitch": 55,
                "velocity": 51,
                "duration": 0.26363636363636367,
                "tempo": 120.0
            },
            {
                "start_time": 8.584090909090909,
                "end_time": 8.85,
                "pitch": 57,
                "velocity": 51,
                "duration": 0.26590909090909065,
                "tempo": 120.0
            },
            {
                "start_time": 8.85,
                "end_time": 9.11590909090909,
                "pitch": 55,
                "velocity": 51,
                "duration": 0.26590909090909065,
                "tempo": 120.0
            },
            {
                "start_time": 9.11590909090909,
                "end_time": 9.381818181818181,
                "pitch": 53,
                "velocity": 51,
                "duration": 0.26590909090909065,
                "tempo": 120.0
            },
            {
                "start_time": 9.381818181818181,
                "end_time": 9.65,
                "pitch": 52,
                "velocity": 51,
                "duration": 0.2681818181818194,
                "tempo": 120.0
            },
            {
                "start_time": 9.652272727272727,
                "end_time": 9.920454545454545,
                "pitch": 62,
                "velocity": 51,
                "duration": 0.26818181818181763,
                "tempo": 120.0
            },
            {
                "start_time": 9.920454545454545,
                "end_time": 10.19090909090909,
                "pitch": 63,
                "velocity": 51,
                "duration": 0.2704545454545446,
                "tempo": 120.0
            },
            {
                "start_time": 10.19090909090909,
                "end_time": 10.388636363636364,
                "pitch": 62,
                "velocity": 51,
                "duration": 0.19772727272727408,
                "tempo": 120.0
            },
            {
                "start_time": 10.39090909090909,
                "end_time": 10.586363636363636,
                "pitch": 60,
                "velocity": 51,
                "duration": 0.19545454545454533,
                "tempo": 120.0
            },
            {
                "start_time": 10.588636363636363,
                "end_time": 10.786363636363635,
                "pitch": 58,
                "velocity": 51,
                "duration": 0.1977272727272723,
                "tempo": 120.0
            },
            {
                "start_time": 10.786363636363635,
                "end_time": 10.988636363636363,
                "pitch": 57,
                "velocity": 51,
                "duration": 0.20227272727272805,
                "tempo": 120.0
            },
            {
                "start_time": 10.988636363636363,
                "end_time": 11.19090909090909,
                "pitch": 54,
                "velocity": 51,
                "duration": 0.20227272727272627,
                "tempo": 120.0
            },
            {
                "start_time": 11.193181818181818,
                "end_time": 11.395454545454545,
                "pitch": 51,
                "velocity": 51,
                "duration": 0.20227272727272627,
                "tempo": 120.0
            },
            {
                "start_time": 11.395454545454545,
                "end_time": 11.595454545454546,
                "pitch": 50,
                "velocity": 51,
                "duration": 0.20000000000000107,
                "tempo": 120.0
            },
            {
                "start_time": 11.595454545454546,
                "end_time": 11.795454545454545,
                "pitch": 48,
                "velocity": 51,
                "duration": 0.1999999999999993,
                "tempo": 120.0
            },
            {
                "start_time": 11.795454545454545,
                "end_time": 11.995454545454544,
                "pitch": 46,
                "velocity": 51,
                "duration": 0.1999999999999993,
                "tempo": 120.0
            },
            {
                "start_time": 11.995454545454544,
                "end_time": 12.195454545454545,
                "pitch": 45,
                "velocity": 51,
                "duration": 0.20000000000000107,
                "tempo": 120.0
            },
            {
                "start_time": 12.197727272727272,
                "end_time": 12.397727272727272,
                "pitch": 55,
                "velocity": 51,
                "duration": 0.1999999999999993,
                "tempo": 120.0
            },
            {
                "start_time": 12.397727272727272,
                "end_time": 12.6,
                "pitch": 65,
                "velocity": 51,
                "duration": 0.20227272727272805,
                "tempo": 120.0
            },
            {
                "start_time": 12.6,
                "end_time": 12.797727272727272,
                "pitch": 63,
                "velocity": 51,
                "duration": 0.1977272727272723,
                "tempo": 120.0
            },
            {
                "start_time": 12.799999999999999,
                "end_time": 12.997727272727271,
                "pitch": 62,
                "velocity": 51,
                "duration": 0.1977272727272723,
                "tempo": 120.0
            },
            {
                "start_time": 13.0,
                "end_time": 13.197727272727272,
                "pitch": 60,
                "velocity": 51,
                "duration": 0.1977272727272723,
                "tempo": 120.0
            },
            {
                "start_time": 13.2,
                "end_time": 13.397727272727272,
                "pitch": 58,
                "velocity": 51,
                "duration": 0.1977272727272723,
                "tempo": 120.0
            },
            {
                "start_time": 13.397727272727272,
                "end_time": 13.613636363636363,
                "pitch": 60,
                "velocity": 51,
                "duration": 0.21590909090909172,
                "tempo": 120.0
            },
            {
                "start_time": 13.613636363636363,
                "end_time": 13.663636363636362,
                "pitch": 60,
                "velocity": 51,
                "duration": 0.049999999999998934,
                "tempo": 120.0
            },
            {
                "start_time": 13.613636363636363,
                "end_time": 13.747727272727271,
                "pitch": 48,
                "velocity": 51,
                "duration": 0.13409090909090793,
                "tempo": 120.0
            },
            {
                "start_time": 13.663636363636362,
                "end_time": 13.747727272727271,
                "pitch": 60,
                "velocity": 51,
                "duration": 0.084090909090909,
                "tempo": 120.0
            },
            {
                "start_time": 13.747727272727271,
                "end_time": 13.797727272727272,
                "pitch": 60,
                "velocity": 51,
                "duration": 0.05000000000000071,
                "tempo": 120.0
            },
            {
                "start_time": 13.663636363636362,
                "end_time": 13.797727272727272,
                "pitch": 64,
                "velocity": 51,
                "duration": 0.1340909090909097,
                "tempo": 120.0
            },
            {
                "start_time": 13.747727272727271,
                "end_time": 13.879545454545454,
                "pitch": 48,
                "velocity": 51,
                "duration": 0.13181818181818272,
                "tempo": 120.0
            },
            {
                "start_time": 13.797727272727272,
                "end_time": 13.879545454545454,
                "pitch": 60,
                "velocity": 51,
                "duration": 0.08181818181818201,
                "tempo": 120.0
            },
            {
                "start_time": 13.879545454545454,
                "end_time": 13.929545454545455,
                "pitch": 60,
                "velocity": 51,
                "duration": 0.05000000000000071,
                "tempo": 120.0
            },
            {
                "start_time": 13.797727272727272,
                "end_time": 13.929545454545455,
                "pitch": 64,
                "velocity": 51,
                "duration": 0.13181818181818272,
                "tempo": 120.0
            },
            {
                "start_time": 13.929545454545455,
                "end_time": 13.993181818181817,
                "pitch": 60,
                "velocity": 51,
                "duration": 0.0636363636363626,
                "tempo": 120.0
            },
            {
                "start_time": 13.995454545454544,
                "end_time": 14.19090909090909,
                "pitch": 58,
                "velocity": 51,
                "duration": 0.19545454545454533,
                "tempo": 120.0
            },
            {
                "start_time": 14.193181818181818,
                "end_time": 14.39090909090909,
                "pitch": 57,
                "velocity": 51,
                "duration": 0.1977272727272723,
                "tempo": 120.0
            },
            {
                "start_time": 14.39090909090909,
                "end_time": 14.593181818181817,
                "pitch": 58,
                "velocity": 51,
                "duration": 0.20227272727272627,
                "tempo": 120.0
            },
            {
                "start_time": 14.593181818181817,
                "end_time": 14.795454545454545,
                "pitch": 55,
                "velocity": 51,
                "duration": 0.20227272727272805,
                "tempo": 120.0
            },
            {
                "start_time": 14.797727272727272,
                "end_time": 15.0,
                "pitch": 65,
                "velocity": 51,
                "duration": 0.20227272727272805,
                "tempo": 120.0
            },
            {
                "start_time": 15.0,
                "end_time": 15.197727272727272,
                "pitch": 63,
                "velocity": 51,
                "duration": 0.1977272727272723,
                "tempo": 120.0
            },
            {
                "start_time": 15.197727272727272,
                "end_time": 15.395454545454545,
                "pitch": 62,
                "velocity": 51,
                "duration": 0.1977272727272723,
                "tempo": 120.0
            },
            {
                "start_time": 15.395454545454545,
                "end_time": 15.593181818181817,
                "pitch": 60,
                "velocity": 51,
                "duration": 0.1977272727272723,
                "tempo": 120.0
            },
            {
                "start_time": 15.593181818181817,
                "end_time": 15.793181818181818,
                "pitch": 58,
                "velocity": 51,
                "duration": 0.20000000000000107,
                "tempo": 120.0
            },
            {
                "start_time": 13.879545454545454,
                "end_time": 16.013636363636362,
                "pitch": 48,
                "velocity": 51,
                "duration": 2.134090909090908,
                "tempo": 120.0
            },
            {
                "start_time": 15.795454545454545,
                "end_time": 16.013636363636362,
                "pitch": 60,
                "velocity": 51,
                "duration": 0.21818181818181692,
                "tempo": 120.0
            },
            {
                "start_time": 16.013636363636362,
                "end_time": 16.063636363636363,
                "pitch": 60,
                "velocity": 51,
                "duration": 0.05000000000000071,
                "tempo": 120.0
            },
            {
                "start_time": 13.929545454545455,
                "end_time": 16.063636363636363,
                "pitch": 64,
                "velocity": 51,
                "duration": 2.134090909090908,
                "tempo": 120.0
            },
            {
                "start_time": 16.063636363636363,
                "end_time": 16.147727272727273,
                "pitch": 60,
                "velocity": 51,
                "duration": 0.08409090909091077,
                "tempo": 120.0
            },
            {
                "start_time": 16.147727272727273,
                "end_time": 16.19772727272727,
                "pitch": 60,
                "velocity": 51,
                "duration": 0.04999999999999716,
                "tempo": 120.0
            },
            {
                "start_time": 16.063636363636363,
                "end_time": 16.19772727272727,
                "pitch": 64,
                "velocity": 51,
                "duration": 0.13409090909090793,
                "tempo": 120.0
            },
            {
                "start_time": 16.013636363636362,
                "end_time": 16.28181818181818,
                "pitch": 48,
                "velocity": 51,
                "duration": 0.2681818181818194,
                "tempo": 120.0
            },
            {
                "start_time": 16.19772727272727,
                "end_time": 16.28181818181818,
                "pitch": 60,
                "velocity": 51,
                "duration": 0.08409090909091077,
                "tempo": 120.0
            },
            {
                "start_time": 16.28181818181818,
                "end_time": 16.329545454545453,
                "pitch": 60,
                "velocity": 51,
                "duration": 0.04772727272727195,
                "tempo": 120.0
            },
            {
                "start_time": 16.19772727272727,
                "end_time": 16.331818181818182,
                "pitch": 64,
                "velocity": 51,
                "duration": 0.13409090909091148,
                "tempo": 120.0
            },
            {
                "start_time": 16.329545454545453,
                "end_time": 16.331818181818182,
                "pitch": 64,
                "velocity": 51,
                "duration": 0.0022727272727287584,
                "tempo": 120.0
            },
            {
                "start_time": 16.331818181818182,
                "end_time": 16.397727272727273,
                "pitch": 60,
                "velocity": 51,
                "duration": 0.06590909090909136,
                "tempo": 120.0
            },
            {
                "start_time": 16.397727272727273,
                "end_time": 16.597727272727273,
                "pitch": 58,
                "velocity": 51,
                "duration": 0.1999999999999993,
                "tempo": 120.0
            },
            {
                "start_time": 16.597727272727273,
                "end_time": 16.797727272727272,
                "pitch": 57,
                "velocity": 51,
                "duration": 0.1999999999999993,
                "tempo": 120.0
            },
            {
                "start_time": 16.797727272727272,
                "end_time": 16.995454545454546,
                "pitch": 58,
                "velocity": 51,
                "duration": 0.19772727272727408,
                "tempo": 120.0
            },
            {
                "start_time": 16.995454545454546,
                "end_time": 17.211363636363636,
                "pitch": 55,
                "velocity": 51,
                "duration": 0.21590909090908994,
                "tempo": 120.0
            },
            {
                "start_time": 17.211363636363636,
                "end_time": 17.261363636363637,
                "pitch": 55,
                "velocity": 51,
                "duration": 0.05000000000000071,
                "tempo": 120.0
            },
            {
                "start_time": 17.261363636363637,
                "end_time": 17.345454545454544,
                "pitch": 55,
                "velocity": 51,
                "duration": 0.08409090909090722,
                "tempo": 120.0
            },
            {
                "start_time": 17.211363636363636,
                "end_time": 17.345454545454544,
                "pitch": 67,
                "velocity": 51,
                "duration": 0.13409090909090793,
                "tempo": 120.0
            },
            {
                "start_time": 17.261363636363637,
                "end_time": 17.395454545454545,
                "pitch": 0,
                "velocity": 51,
                "duration": 0.13409090909090793,
                "tempo": 120.0
            },
            {
                "start_time": 17.345454545454544,
                "end_time": 17.395454545454545,
                "pitch": 55,
                "velocity": 51,
                "duration": 0.05000000000000071,
                "tempo": 120.0
            },
            {
                "start_time": 17.395454545454545,
                "end_time": 17.477272727272727,
                "pitch": 55,
                "velocity": 51,
                "duration": 0.08181818181818201,
                "tempo": 120.0
            },
            {
                "start_time": 17.345454545454544,
                "end_time": 17.477272727272727,
                "pitch": 67,
                "velocity": 51,
                "duration": 0.13181818181818272,
                "tempo": 120.0
            },
            {
                "start_time": 17.395454545454545,
                "end_time": 17.527272727272727,
                "pitch": 0,
                "velocity": 51,
                "duration": 0.13181818181818272,
                "tempo": 120.0
            },
            {
                "start_time": 17.477272727272727,
                "end_time": 17.527272727272727,
                "pitch": 55,
                "velocity": 51,
                "duration": 0.05000000000000071,
                "tempo": 120.0
            },
            {
                "start_time": 17.527272727272727,
                "end_time": 17.611363636363635,
                "pitch": 55,
                "velocity": 51,
                "duration": 0.08409090909090722,
                "tempo": 120.0
            },
            {
                "start_time": 17.477272727272727,
                "end_time": 17.611363636363635,
                "pitch": 67,
                "velocity": 51,
                "duration": 0.13409090909090793,
                "tempo": 120.0
            },
            {
                "start_time": 17.527272727272727,
                "end_time": 17.661363636363635,
                "pitch": 0,
                "velocity": 51,
                "duration": 0.13409090909090793,
                "tempo": 120.0
            },
            {
                "start_time": 17.611363636363635,
                "end_time": 17.661363636363635,
                "pitch": 55,
                "velocity": 51,
                "duration": 0.05000000000000071,
                "tempo": 120.0
            },
            {
                "start_time": 17.661363636363635,
                "end_time": 17.745454545454546,
                "pitch": 55,
                "velocity": 51,
                "duration": 0.08409090909091077,
                "tempo": 120.0
            },
            {
                "start_time": 17.611363636363635,
                "end_time": 17.745454545454546,
                "pitch": 67,
                "velocity": 51,
                "duration": 0.13409090909091148,
                "tempo": 120.0
            },
            {
                "start_time": 17.661363636363635,
                "end_time": 17.793181818181818,
                "pitch": 0,
                "velocity": 51,
                "duration": 0.13181818181818272,
                "tempo": 120.0
            },
            {
                "start_time": 17.745454545454546,
                "end_time": 17.793181818181818,
                "pitch": 55,
                "velocity": 51,
                "duration": 0.04772727272727195,
                "tempo": 120.0
            },
            {
                "start_time": 17.793181818181818,
                "end_time": 17.877272727272725,
                "pitch": 55,
                "velocity": 51,
                "duration": 0.08409090909090722,
                "tempo": 120.0
            },
            {
                "start_time": 17.745454545454546,
                "end_time": 17.877272727272725,
                "pitch": 67,
                "velocity": 51,
                "duration": 0.13181818181817917,
                "tempo": 120.0
            },
            {
                "start_time": 17.793181818181818,
                "end_time": 17.927272727272726,
                "pitch": 0,
                "velocity": 51,
                "duration": 0.13409090909090793,
                "tempo": 120.0
            },
            {
                "start_time": 17.877272727272725,
                "end_time": 17.927272727272726,
                "pitch": 55,
                "velocity": 51,
                "duration": 0.05000000000000071,
                "tempo": 120.0
            },
            {
                "start_time": 17.927272727272726,
                "end_time": 18.011363636363637,
                "pitch": 55,
                "velocity": 51,
                "duration": 0.08409090909091077,
                "tempo": 120.0
            },
            {
                "start_time": 17.877272727272725,
                "end_time": 18.011363636363637,
                "pitch": 67,
                "velocity": 51,
                "duration": 0.13409090909091148,
                "tempo": 120.0
            },
            {
                "start_time": 17.927272727272726,
                "end_time": 18.061363636363634,
                "pitch": 0,
                "velocity": 51,
                "duration": 0.13409090909090793,
                "tempo": 120.0
            },
            {
                "start_time": 18.011363636363637,
                "end_time": 18.061363636363634,
                "pitch": 55,
                "velocity": 51,
                "duration": 0.04999999999999716,
                "tempo": 120.0
            },
            {
                "start_time": 18.061363636363634,
                "end_time": 18.143181818181816,
                "pitch": 55,
                "velocity": 51,
                "duration": 0.08181818181818201,
                "tempo": 120.0
            },
            {
                "start_time": 18.011363636363637,
                "end_time": 18.143181818181816,
                "pitch": 67,
                "velocity": 51,
                "duration": 0.13181818181817917,
                "tempo": 120.0
            },
            {
                "start_time": 18.061363636363634,
                "end_time": 18.193181818181817,
                "pitch": 0,
                "velocity": 51,
                "duration": 0.13181818181818272,
                "tempo": 120.0
            },
            {
                "start_time": 18.143181818181816,
                "end_time": 18.193181818181817,
                "pitch": 55,
                "velocity": 51,
                "duration": 0.05000000000000071,
                "tempo": 120.0
            },
            {
                "start_time": 18.193181818181817,
                "end_time": 18.277272727272727,
                "pitch": 55,
                "velocity": 51,
                "duration": 0.08409090909091077,
                "tempo": 120.0
            },
            {
                "start_time": 18.143181818181816,
                "end_time": 18.277272727272727,
                "pitch": 67,
                "velocity": 51,
                "duration": 0.13409090909091148,
                "tempo": 120.0
            },
            {
                "start_time": 18.193181818181817,
                "end_time": 18.327272727272728,
                "pitch": 0,
                "velocity": 51,
                "duration": 0.13409090909091148,
                "tempo": 120.0
            },
            {
                "start_time": 18.277272727272727,
                "end_time": 18.327272727272728,
                "pitch": 55,
                "velocity": 51,
                "duration": 0.05000000000000071,
                "tempo": 120.0
            },
            {
                "start_time": 18.327272727272728,
                "end_time": 18.409090909090907,
                "pitch": 55,
                "velocity": 51,
                "duration": 0.08181818181817846,
                "tempo": 120.0
            },
            {
                "start_time": 18.277272727272727,
                "end_time": 18.409090909090907,
                "pitch": 67,
                "velocity": 51,
                "duration": 0.13181818181817917,
                "tempo": 120.0
            },
            {
                "start_time": 18.327272727272728,
                "end_time": 18.459090909090907,
                "pitch": 0,
                "velocity": 51,
                "duration": 0.13181818181817917,
                "tempo": 120.0
            },
            {
                "start_time": 18.409090909090907,
                "end_time": 18.459090909090907,
                "pitch": 55,
                "velocity": 51,
                "duration": 0.05000000000000071,
                "tempo": 120.0
            },
            {
                "start_time": 18.459090909090907,
                "end_time": 18.543181818181818,
                "pitch": 55,
                "velocity": 51,
                "duration": 0.08409090909091077,
                "tempo": 120.0
            },
            {
                "start_time": 18.409090909090907,
                "end_time": 18.543181818181818,
                "pitch": 67,
                "velocity": 51,
                "duration": 0.13409090909091148,
                "tempo": 120.0
            },
            {
                "start_time": 18.459090909090907,
                "end_time": 18.59318181818182,
                "pitch": 0,
                "velocity": 51,
                "duration": 0.13409090909091148,
                "tempo": 120.0
            },
            {
                "start_time": 18.543181818181818,
                "end_time": 18.59318181818182,
                "pitch": 55,
                "velocity": 51,
                "duration": 0.05000000000000071,
                "tempo": 120.0
            },
            {
                "start_time": 18.59318181818182,
                "end_time": 18.675,
                "pitch": 55,
                "velocity": 51,
                "duration": 0.08181818181818201,
                "tempo": 120.0
            },
            {
                "start_time": 18.543181818181818,
                "end_time": 18.675,
                "pitch": 67,
                "velocity": 51,
                "duration": 0.13181818181818272,
                "tempo": 120.0
            },
            {
                "start_time": 18.59318181818182,
                "end_time": 18.724999999999998,
                "pitch": 0,
                "velocity": 51,
                "duration": 0.13181818181817917,
                "tempo": 120.0
            },
            {
                "start_time": 18.675,
                "end_time": 18.724999999999998,
                "pitch": 55,
                "velocity": 51,
                "duration": 0.04999999999999716,
                "tempo": 120.0
            },
            {
                "start_time": 18.724999999999998,
                "end_time": 18.80909090909091,
                "pitch": 55,
                "velocity": 51,
                "duration": 0.08409090909091077,
                "tempo": 120.0
            },
            {
                "start_time": 18.675,
                "end_time": 18.80909090909091,
                "pitch": 67,
                "velocity": 51,
                "duration": 0.13409090909090793,
                "tempo": 120.0
            },
            {
                "start_time": 18.724999999999998,
                "end_time": 18.85909090909091,
                "pitch": 0,
                "velocity": 51,
                "duration": 0.13409090909091148,
                "tempo": 120.0
            },
            {
                "start_time": 18.80909090909091,
                "end_time": 18.85909090909091,
                "pitch": 55,
                "velocity": 51,
                "duration": 0.05000000000000071,
                "tempo": 120.0
            },
            {
                "start_time": 18.85909090909091,
                "end_time": 18.94090909090909,
                "pitch": 55,
                "velocity": 51,
                "duration": 0.08181818181818201,
                "tempo": 120.0
            },
            {
                "start_time": 18.80909090909091,
                "end_time": 18.94090909090909,
                "pitch": 67,
                "velocity": 51,
                "duration": 0.13181818181818272,
                "tempo": 120.0
            },
            {
                "start_time": 18.85909090909091,
                "end_time": 18.99090909090909,
                "pitch": 0,
                "velocity": 51,
                "duration": 0.13181818181817917,
                "tempo": 120.0
            },
            {
                "start_time": 18.94090909090909,
                "end_time": 18.99090909090909,
                "pitch": 55,
                "velocity": 51,
                "duration": 0.04999999999999716,
                "tempo": 120.0
            },
            {
                "start_time": 18.99090909090909,
                "end_time": 19.075,
                "pitch": 55,
                "velocity": 51,
                "duration": 0.08409090909091077,
                "tempo": 120.0
            },
            {
                "start_time": 18.94090909090909,
                "end_time": 19.075,
                "pitch": 67,
                "velocity": 51,
                "duration": 0.13409090909090793,
                "tempo": 120.0
            },
            {
                "start_time": 18.99090909090909,
                "end_time": 19.125,
                "pitch": 0,
                "velocity": 51,
                "duration": 0.13409090909091148,
                "tempo": 120.0
            },
            {
                "start_time": 19.075,
                "end_time": 19.125,
                "pitch": 55,
                "velocity": 51,
                "duration": 0.05000000000000071,
                "tempo": 120.0
            },
            {
                "start_time": 19.125,
                "end_time": 19.206818181818182,
                "pitch": 55,
                "velocity": 51,
                "duration": 0.08181818181818201,
                "tempo": 120.0
            },
            {
                "start_time": 19.075,
                "end_time": 19.206818181818182,
                "pitch": 67,
                "velocity": 51,
                "duration": 0.13181818181818272,
                "tempo": 120.0
            },
            {
                "start_time": 19.125,
                "end_time": 19.25681818181818,
                "pitch": 0,
                "velocity": 51,
                "duration": 0.13181818181817917,
                "tempo": 120.0
            },
            {
                "start_time": 19.206818181818182,
                "end_time": 19.25681818181818,
                "pitch": 55,
                "velocity": 51,
                "duration": 0.04999999999999716,
                "tempo": 120.0
            },
            {
                "start_time": 19.25681818181818,
                "end_time": 19.33863636363636,
                "pitch": 55,
                "velocity": 51,
                "duration": 0.08181818181818201,
                "tempo": 120.0
            },
            {
                "start_time": 19.33863636363636,
                "end_time": 19.388636363636362,
                "pitch": 55,
                "velocity": 51,
                "duration": 0.05000000000000071,
                "tempo": 120.0
            },
            {
                "start_time": 19.388636363636362,
                "end_time": 19.586363636363636,
                "pitch": 63,
                "velocity": 51,
                "duration": 0.19772727272727408,
                "tempo": 120.0
            },
            {
                "start_time": 19.586363636363636,
                "end_time": 19.784090909090907,
                "pitch": 62,
                "velocity": 51,
                "duration": 0.19772727272727053,
                "tempo": 120.0
            },
            {
                "start_time": 19.784090909090907,
                "end_time": 19.98409090909091,
                "pitch": 60,
                "velocity": 51,
                "duration": 0.20000000000000284,
                "tempo": 120.0
            },
            {
                "start_time": 19.986363636363635,
                "end_time": 20.186363636363634,
                "pitch": 62,
                "velocity": 51,
                "duration": 0.1999999999999993,
                "tempo": 120.0
            },
            {
                "start_time": 20.186363636363634,
                "end_time": 20.388636363636362,
                "pitch": 65,
                "velocity": 51,
                "duration": 0.20227272727272805,
                "tempo": 120.0
            },
            {
                "start_time": 19.206818181818182,
                "end_time": 20.58863636363636,
                "pitch": 67,
                "velocity": 51,
                "duration": 1.3818181818181792,
                "tempo": 120.0
            },
            {
                "start_time": 20.388636363636362,
                "end_time": 20.58863636363636,
                "pitch": 67,
                "velocity": 51,
                "duration": 0.1999999999999993,
                "tempo": 120.0
            },
            {
                "start_time": 20.59090909090909,
                "end_time": 20.79090909090909,
                "pitch": 69,
                "velocity": 51,
                "duration": 0.1999999999999993,
                "tempo": 120.0
            },
            {
                "start_time": 20.79090909090909,
                "end_time": 20.993181818181817,
                "pitch": 70,
                "velocity": 51,
                "duration": 0.20227272727272805,
                "tempo": 120.0
            },
            {
                "start_time": 20.993181818181817,
                "end_time": 21.193181818181817,
                "pitch": 69,
                "velocity": 51,
                "duration": 0.1999999999999993,
                "tempo": 120.0
            },
            {
                "start_time": 21.193181818181817,
                "end_time": 21.393181818181816,
                "pitch": 66,
                "velocity": 51,
                "duration": 0.1999999999999993,
                "tempo": 120.0
            },
            {
                "start_time": 21.393181818181816,
                "end_time": 21.59318181818182,
                "pitch": 62,
                "velocity": 51,
                "duration": 0.20000000000000284,
                "tempo": 120.0
            },
            {
                "start_time": 21.59318181818182,
                "end_time": 21.793181818181818,
                "pitch": 60,
                "velocity": 51,
                "duration": 0.1999999999999993,
                "tempo": 120.0
            },
            {
                "start_time": 21.793181818181818,
                "end_time": 21.995454545454546,
                "pitch": 55,
                "velocity": 51,
                "duration": 0.20227272727272805,
                "tempo": 120.0
            },
            {
                "start_time": 21.995454545454546,
                "end_time": 22.195454545454545,
                "pitch": 65,
                "velocity": 51,
                "duration": 0.1999999999999993,
                "tempo": 120.0
            },
            {
                "start_time": 22.19772727272727,
                "end_time": 22.395454545454545,
                "pitch": 63,
                "velocity": 51,
                "duration": 0.19772727272727408,
                "tempo": 120.0
            },
            {
                "start_time": 22.397727272727273,
                "end_time": 22.595454545454544,
                "pitch": 62,
                "velocity": 51,
                "duration": 0.19772727272727053,
                "tempo": 120.0
            },
            {
                "start_time": 22.595454545454544,
                "end_time": 22.795454545454543,
                "pitch": 60,
                "velocity": 51,
                "duration": 0.1999999999999993,
                "tempo": 120.0
            },
            {
                "start_time": 22.795454545454543,
                "end_time": 22.995454545454546,
                "pitch": 58,
                "velocity": 51,
                "duration": 0.20000000000000284,
                "tempo": 120.0
            },
            {
                "start_time": 16.28181818181818,
                "end_time": 23.21590909090909,
                "pitch": 48,
                "velocity": 51,
                "duration": 6.934090909090909,
                "tempo": 120.0
            },
            {
                "start_time": 22.99772727272727,
                "end_time": 23.21590909090909,
                "pitch": 60,
                "velocity": 51,
                "duration": 0.2181818181818187,
                "tempo": 120.0
            },
            {
                "start_time": 23.21590909090909,
                "end_time": 23.26590909090909,
                "pitch": 60,
                "velocity": 51,
                "duration": 0.05000000000000071,
                "tempo": 120.0
            },
            {
                "start_time": 23.21590909090909,
                "end_time": 23.349999999999998,
                "pitch": 48,
                "velocity": 51,
                "duration": 0.13409090909090793,
                "tempo": 120.0
            },
            {
                "start_time": 23.26590909090909,
                "end_time": 23.349999999999998,
                "pitch": 60,
                "velocity": 51,
                "duration": 0.08409090909090722,
                "tempo": 120.0
            },
            {
                "start_time": 23.349999999999998,
                "end_time": 23.4,
                "pitch": 60,
                "velocity": 51,
                "duration": 0.05000000000000071,
                "tempo": 120.0
            },
            {
                "start_time": 23.26590909090909,
                "end_time": 23.4,
                "pitch": 64,
                "velocity": 51,
                "duration": 0.13409090909090793,
                "tempo": 120.0
            },
            {
                "start_time": 23.349999999999998,
                "end_time": 23.48181818181818,
                "pitch": 48,
                "velocity": 51,
                "duration": 0.13181818181818272,
                "tempo": 120.0
            },
            {
                "start_time": 23.4,
                "end_time": 23.48181818181818,
                "pitch": 60,
                "velocity": 51,
                "duration": 0.08181818181818201,
                "tempo": 120.0
            },
            {
                "start_time": 23.48181818181818,
                "end_time": 23.53181818181818,
                "pitch": 60,
                "velocity": 51,
                "duration": 0.05000000000000071,
                "tempo": 120.0
            },
            {
                "start_time": 23.4,
                "end_time": 23.53181818181818,
                "pitch": 64,
                "velocity": 51,
                "duration": 0.13181818181818272,
                "tempo": 120.0
            },
            {
                "start_time": 23.53181818181818,
                "end_time": 23.597727272727273,
                "pitch": 60,
                "velocity": 51,
                "duration": 0.06590909090909136,
                "tempo": 120.0
            },
            {
                "start_time": 23.597727272727273,
                "end_time": 23.795454545454543,
                "pitch": 58,
                "velocity": 51,
                "duration": 0.19772727272727053,
                "tempo": 120.0
            },
            {
                "start_time": 23.795454545454543,
                "end_time": 23.993181818181817,
                "pitch": 57,
                "velocity": 51,
                "duration": 0.19772727272727408,
                "tempo": 120.0
            },
            {
                "start_time": 23.993181818181817,
                "end_time": 24.193181818181817,
                "pitch": 58,
                "velocity": 51,
                "duration": 0.1999999999999993,
                "tempo": 120.0
            },
            {
                "start_time": 24.195454545454545,
                "end_time": 24.395454545454545,
                "pitch": 55,
                "velocity": 51,
                "duration": 0.1999999999999993,
                "tempo": 120.0
            },
            {
                "start_time": 24.395454545454545,
                "end_time": 24.597727272727273,
                "pitch": 65,
                "velocity": 51,
                "duration": 0.20227272727272805,
                "tempo": 120.0
            },
            {
                "start_time": 24.597727272727273,
                "end_time": 24.797727272727272,
                "pitch": 63,
                "velocity": 51,
                "duration": 0.1999999999999993,
                "tempo": 120.0
            },
            {
                "start_time": 24.797727272727272,
                "end_time": 24.99772727272727,
                "pitch": 62,
                "velocity": 51,
                "duration": 0.1999999999999993,
                "tempo": 120.0
            },
            {
                "start_time": 24.99772727272727,
                "end_time": 25.195454545454545,
                "pitch": 60,
                "velocity": 51,
                "duration": 0.19772727272727408,
                "tempo": 120.0
            },
            {
                "start_time": 25.19772727272727,
                "end_time": 25.39772727272727,
                "pitch": 58,
                "velocity": 51,
                "duration": 0.1999999999999993,
                "tempo": 120.0
            },
            {
                "start_time": 23.48181818181818,
                "end_time": 25.61590909090909,
                "pitch": 48,
                "velocity": 51,
                "duration": 2.134090909090908,
                "tempo": 120.0
            },
            {
                "start_time": 25.39772727272727,
                "end_time": 25.61590909090909,
                "pitch": 60,
                "velocity": 51,
                "duration": 0.2181818181818187,
                "tempo": 120.0
            },
            {
                "start_time": 25.61590909090909,
                "end_time": 25.66590909090909,
                "pitch": 60,
                "velocity": 51,
                "duration": 0.05000000000000071,
                "tempo": 120.0
            },
            {
                "start_time": 23.53181818181818,
                "end_time": 25.66590909090909,
                "pitch": 64,
                "velocity": 51,
                "duration": 2.134090909090908,
                "tempo": 120.0
            },
            {
                "start_time": 25.66590909090909,
                "end_time": 25.75,
                "pitch": 60,
                "velocity": 51,
                "duration": 0.08409090909091077,
                "tempo": 120.0
            },
            {
                "start_time": 25.75,
                "end_time": 25.802272727272726,
                "pitch": 60,
                "velocity": 51,
                "duration": 0.052272727272725916,
                "tempo": 120.0
            },
            {
                "start_time": 25.66590909090909,
                "end_time": 25.802272727272726,
                "pitch": 64,
                "velocity": 51,
                "duration": 0.1363636363636367,
                "tempo": 120.0
            },
            {
                "start_time": 25.61590909090909,
                "end_time": 25.884090909090908,
                "pitch": 48,
                "velocity": 51,
                "duration": 0.2681818181818194,
                "tempo": 120.0
            },
            {
                "start_time": 25.802272727272726,
                "end_time": 25.884090909090908,
                "pitch": 60,
                "velocity": 51,
                "duration": 0.08181818181818201,
                "tempo": 120.0
            },
            {
                "start_time": 25.884090909090908,
                "end_time": 25.93409090909091,
                "pitch": 60,
                "velocity": 51,
                "duration": 0.05000000000000071,
                "tempo": 120.0
            },
            {
                "start_time": 25.802272727272726,
                "end_time": 25.93409090909091,
                "pitch": 64,
                "velocity": 51,
                "duration": 0.13181818181818272,
                "tempo": 120.0
            },
            {
                "start_time": 25.93409090909091,
                "end_time": 26.0,
                "pitch": 60,
                "velocity": 51,
                "duration": 0.06590909090909136,
                "tempo": 120.0
            },
            {
                "start_time": 26.002272727272725,
                "end_time": 26.2,
                "pitch": 58,
                "velocity": 51,
                "duration": 0.19772727272727408,
                "tempo": 120.0
            },
            {
                "start_time": 26.2,
                "end_time": 26.4,
                "pitch": 57,
                "velocity": 51,
                "duration": 0.1999999999999993,
                "tempo": 120.0
            },
            {
                "start_time": 26.4,
                "end_time": 26.599999999999998,
                "pitch": 58,
                "velocity": 51,
                "duration": 0.1999999999999993,
                "tempo": 120.0
            },
            {
                "start_time": 26.602272727272727,
                "end_time": 26.820454545454545,
                "pitch": 55,
                "velocity": 51,
                "duration": 0.2181818181818187,
                "tempo": 120.0
            },
            {
                "start_time": 19.25681818181818,
                "end_time": 26.870454545454542,
                "pitch": 0,
                "velocity": 51,
                "duration": 7.613636363636363,
                "tempo": 120.0
            },
            {
                "start_time": 26.820454545454545,
                "end_time": 26.870454545454542,
                "pitch": 55,
                "velocity": 51,
                "duration": 0.04999999999999716,
                "tempo": 120.0
            },
            {
                "start_time": 26.870454545454542,
                "end_time": 26.954545454545453,
                "pitch": 55,
                "velocity": 51,
                "duration": 0.08409090909091077,
                "tempo": 120.0
            },
            {
                "start_time": 26.820454545454545,
                "end_time": 26.954545454545453,
                "pitch": 67,
                "velocity": 51,
                "duration": 0.13409090909090793,
                "tempo": 120.0
            },
            {
                "start_time": 26.870454545454542,
                "end_time": 27.004545454545454,
                "pitch": 0,
                "velocity": 51,
                "duration": 0.13409090909091148,
                "tempo": 120.0
            },
            {
                "start_time": 26.954545454545453,
                "end_time": 27.004545454545454,
                "pitch": 55,
                "velocity": 51,
                "duration": 0.05000000000000071,
                "tempo": 120.0
            },
            {
                "start_time": 27.004545454545454,
                "end_time": 27.08863636363636,
                "pitch": 55,
                "velocity": 51,
                "duration": 0.08409090909090722,
                "tempo": 120.0
            },
            {
                "start_time": 26.954545454545453,
                "end_time": 27.08863636363636,
                "pitch": 67,
                "velocity": 51,
                "duration": 0.13409090909090793,
                "tempo": 120.0
            },
            {
                "start_time": 27.004545454545454,
                "end_time": 27.138636363636362,
                "pitch": 0,
                "velocity": 51,
                "duration": 0.13409090909090793,
                "tempo": 120.0
            },
            {
                "start_time": 27.08863636363636,
                "end_time": 27.138636363636362,
                "pitch": 55,
                "velocity": 51,
                "duration": 0.05000000000000071,
                "tempo": 120.0
            },
            {
                "start_time": 27.138636363636362,
                "end_time": 27.222727272727273,
                "pitch": 55,
                "velocity": 51,
                "duration": 0.08409090909091077,
                "tempo": 120.0
            },
            {
                "start_time": 27.08863636363636,
                "end_time": 27.222727272727273,
                "pitch": 67,
                "velocity": 51,
                "duration": 0.13409090909091148,
                "tempo": 120.0
            },
            {
                "start_time": 27.138636363636362,
                "end_time": 27.27272727272727,
                "pitch": 0,
                "velocity": 51,
                "duration": 0.13409090909090793,
                "tempo": 120.0
            },
            {
                "start_time": 27.222727272727273,
                "end_time": 27.27272727272727,
                "pitch": 55,
                "velocity": 51,
                "duration": 0.04999999999999716,
                "tempo": 120.0
            },
            {
                "start_time": 27.27272727272727,
                "end_time": 27.35681818181818,
                "pitch": 55,
                "velocity": 51,
                "duration": 0.08409090909091077,
                "tempo": 120.0
            },
            {
                "start_time": 27.222727272727273,
                "end_time": 27.35681818181818,
                "pitch": 67,
                "velocity": 51,
                "duration": 0.13409090909090793,
                "tempo": 120.0
            },
            {
                "start_time": 27.27272727272727,
                "end_time": 27.40681818181818,
                "pitch": 0,
                "velocity": 51,
                "duration": 0.13409090909091148,
                "tempo": 120.0
            },
            {
                "start_time": 27.35681818181818,
                "end_time": 27.40681818181818,
                "pitch": 55,
                "velocity": 51,
                "duration": 0.05000000000000071,
                "tempo": 120.0
            },
            {
                "start_time": 27.40681818181818,
                "end_time": 27.49090909090909,
                "pitch": 55,
                "velocity": 51,
                "duration": 0.08409090909090722,
                "tempo": 120.0
            },
            {
                "start_time": 27.35681818181818,
                "end_time": 27.49090909090909,
                "pitch": 67,
                "velocity": 51,
                "duration": 0.13409090909090793,
                "tempo": 120.0
            },
            {
                "start_time": 27.40681818181818,
                "end_time": 27.54090909090909,
                "pitch": 0,
                "velocity": 51,
                "duration": 0.13409090909090793,
                "tempo": 120.0
            },
            {
                "start_time": 27.49090909090909,
                "end_time": 27.54090909090909,
                "pitch": 55,
                "velocity": 51,
                "duration": 0.05000000000000071,
                "tempo": 120.0
            },
            {
                "start_time": 27.54090909090909,
                "end_time": 27.625,
                "pitch": 55,
                "velocity": 51,
                "duration": 0.08409090909091077,
                "tempo": 120.0
            },
            {
                "start_time": 27.49090909090909,
                "end_time": 27.625,
                "pitch": 67,
                "velocity": 51,
                "duration": 0.13409090909091148,
                "tempo": 120.0
            },
            {
                "start_time": 27.54090909090909,
                "end_time": 27.674999999999997,
                "pitch": 0,
                "velocity": 51,
                "duration": 0.13409090909090793,
                "tempo": 120.0
            },
            {
                "start_time": 27.625,
                "end_time": 27.674999999999997,
                "pitch": 55,
                "velocity": 51,
                "duration": 0.04999999999999716,
                "tempo": 120.0
            },
            {
                "start_time": 27.674999999999997,
                "end_time": 27.75681818181818,
                "pitch": 55,
                "velocity": 51,
                "duration": 0.08181818181818201,
                "tempo": 120.0
            },
            {
                "start_time": 27.625,
                "end_time": 27.75681818181818,
                "pitch": 67,
                "velocity": 51,
                "duration": 0.13181818181817917,
                "tempo": 120.0
            },
            {
                "start_time": 27.674999999999997,
                "end_time": 27.80681818181818,
                "pitch": 0,
                "velocity": 51,
                "duration": 0.13181818181818272,
                "tempo": 120.0
            },
            {
                "start_time": 27.75681818181818,
                "end_time": 27.80681818181818,
                "pitch": 55,
                "velocity": 51,
                "duration": 0.05000000000000071,
                "tempo": 120.0
            },
            {
                "start_time": 27.80681818181818,
                "end_time": 27.888636363636362,
                "pitch": 55,
                "velocity": 51,
                "duration": 0.08181818181818201,
                "tempo": 120.0
            },
            {
                "start_time": 27.75681818181818,
                "end_time": 27.888636363636362,
                "pitch": 67,
                "velocity": 51,
                "duration": 0.13181818181818272,
                "tempo": 120.0
            },
            {
                "start_time": 27.80681818181818,
                "end_time": 27.938636363636363,
                "pitch": 0,
                "velocity": 51,
                "duration": 0.13181818181818272,
                "tempo": 120.0
            },
            {
                "start_time": 27.888636363636362,
                "end_time": 27.938636363636363,
                "pitch": 55,
                "velocity": 51,
                "duration": 0.05000000000000071,
                "tempo": 120.0
            },
            {
                "start_time": 27.938636363636363,
                "end_time": 28.020454545454545,
                "pitch": 55,
                "velocity": 51,
                "duration": 0.08181818181818201,
                "tempo": 120.0
            },
            {
                "start_time": 27.888636363636362,
                "end_time": 28.020454545454545,
                "pitch": 67,
                "velocity": 51,
                "duration": 0.13181818181818272,
                "tempo": 120.0
            },
            {
                "start_time": 27.938636363636363,
                "end_time": 28.070454545454545,
                "pitch": 0,
                "velocity": 51,
                "duration": 0.13181818181818272,
                "tempo": 120.0
            },
            {
                "start_time": 28.020454545454545,
                "end_time": 28.070454545454545,
                "pitch": 55,
                "velocity": 51,
                "duration": 0.05000000000000071,
                "tempo": 120.0
            },
            {
                "start_time": 28.070454545454545,
                "end_time": 28.152272727272727,
                "pitch": 55,
                "velocity": 51,
                "duration": 0.08181818181818201,
                "tempo": 120.0
            },
            {
                "start_time": 28.020454545454545,
                "end_time": 28.152272727272727,
                "pitch": 67,
                "velocity": 51,
                "duration": 0.13181818181818272,
                "tempo": 120.0
            },
            {
                "start_time": 28.070454545454545,
                "end_time": 28.202272727272724,
                "pitch": 0,
                "velocity": 51,
                "duration": 0.13181818181817917,
                "tempo": 120.0
            },
            {
                "start_time": 28.152272727272727,
                "end_time": 28.202272727272724,
                "pitch": 55,
                "velocity": 51,
                "duration": 0.04999999999999716,
                "tempo": 120.0
            },
            {
                "start_time": 28.202272727272724,
                "end_time": 28.284090909090907,
                "pitch": 55,
                "velocity": 51,
                "duration": 0.08181818181818201,
                "tempo": 120.0
            },
            {
                "start_time": 28.152272727272727,
                "end_time": 28.284090909090907,
                "pitch": 67,
                "velocity": 51,
                "duration": 0.13181818181817917,
                "tempo": 120.0
            },
            {
                "start_time": 28.202272727272724,
                "end_time": 28.334090909090907,
                "pitch": 0,
                "velocity": 51,
                "duration": 0.13181818181818272,
                "tempo": 120.0
            },
            {
                "start_time": 28.284090909090907,
                "end_time": 28.334090909090907,
                "pitch": 55,
                "velocity": 51,
                "duration": 0.05000000000000071,
                "tempo": 120.0
            },
            {
                "start_time": 28.334090909090907,
                "end_time": 28.418181818181818,
                "pitch": 55,
                "velocity": 51,
                "duration": 0.08409090909091077,
                "tempo": 120.0
            },
            {
                "start_time": 28.284090909090907,
                "end_time": 28.418181818181818,
                "pitch": 67,
                "velocity": 51,
                "duration": 0.13409090909091148,
                "tempo": 120.0
            },
            {
                "start_time": 28.334090909090907,
                "end_time": 28.468181818181815,
                "pitch": 0,
                "velocity": 51,
                "duration": 0.13409090909090793,
                "tempo": 120.0
            },
            {
                "start_time": 28.418181818181818,
                "end_time": 28.468181818181815,
                "pitch": 55,
                "velocity": 51,
                "duration": 0.04999999999999716,
                "tempo": 120.0
            },
            {
                "start_time": 28.468181818181815,
                "end_time": 28.549999999999997,
                "pitch": 55,
                "velocity": 51,
                "duration": 0.08181818181818201,
                "tempo": 120.0
            },
            {
                "start_time": 28.418181818181818,
                "end_time": 28.549999999999997,
                "pitch": 67,
                "velocity": 51,
                "duration": 0.13181818181817917,
                "tempo": 120.0
            },
            {
                "start_time": 28.468181818181815,
                "end_time": 28.599999999999998,
                "pitch": 0,
                "velocity": 51,
                "duration": 0.13181818181818272,
                "tempo": 120.0
            },
            {
                "start_time": 28.549999999999997,
                "end_time": 28.599999999999998,
                "pitch": 55,
                "velocity": 51,
                "duration": 0.05000000000000071,
                "tempo": 120.0
            },
            {
                "start_time": 28.599999999999998,
                "end_time": 28.68409090909091,
                "pitch": 55,
                "velocity": 51,
                "duration": 0.08409090909091077,
                "tempo": 120.0
            },
            {
                "start_time": 28.549999999999997,
                "end_time": 28.68409090909091,
                "pitch": 67,
                "velocity": 51,
                "duration": 0.13409090909091148,
                "tempo": 120.0
            },
            {
                "start_time": 28.599999999999998,
                "end_time": 28.73409090909091,
                "pitch": 0,
                "velocity": 51,
                "duration": 0.13409090909091148,
                "tempo": 120.0
            },
            {
                "start_time": 28.68409090909091,
                "end_time": 28.73409090909091,
                "pitch": 55,
                "velocity": 51,
                "duration": 0.05000000000000071,
                "tempo": 120.0
            },
            {
                "start_time": 28.73409090909091,
                "end_time": 28.815909090909088,
                "pitch": 55,
                "velocity": 51,
                "duration": 0.08181818181817846,
                "tempo": 120.0
            },
            {
                "start_time": 28.68409090909091,
                "end_time": 28.815909090909088,
                "pitch": 67,
                "velocity": 51,
                "duration": 0.13181818181817917,
                "tempo": 120.0
            },
            {
                "start_time": 28.73409090909091,
                "end_time": 28.868181818181817,
                "pitch": 0,
                "velocity": 51,
                "duration": 0.13409090909090793,
                "tempo": 120.0
            },
            {
                "start_time": 28.815909090909088,
                "end_time": 28.868181818181817,
                "pitch": 55,
                "velocity": 51,
                "duration": 0.05227272727272947,
                "tempo": 120.0
            },
            {
                "start_time": 28.868181818181817,
                "end_time": 28.952272727272724,
                "pitch": 55,
                "velocity": 51,
                "duration": 0.08409090909090722,
                "tempo": 120.0
            },
            {
                "start_time": 28.952272727272724,
                "end_time": 29.002272727272725,
                "pitch": 55,
                "velocity": 51,
                "duration": 0.05000000000000071,
                "tempo": 120.0
            },
            {
                "start_time": 29.002272727272725,
                "end_time": 29.202272727272724,
                "pitch": 63,
                "velocity": 51,
                "duration": 0.1999999999999993,
                "tempo": 120.0
            },
            {
                "start_time": 29.204545454545453,
                "end_time": 29.404545454545453,
                "pitch": 62,
                "velocity": 51,
                "duration": 0.1999999999999993,
                "tempo": 120.0
            },
            {
                "start_time": 29.40681818181818,
                "end_time": 29.604545454545452,
                "pitch": 60,
                "velocity": 51,
                "duration": 0.19772727272727053,
                "tempo": 120.0
            },
            {
                "start_time": 29.604545454545452,
                "end_time": 29.804545454545455,
                "pitch": 62,
                "velocity": 51,
                "duration": 0.20000000000000284,
                "tempo": 120.0
            },
            {
                "start_time": 29.804545454545455,
                "end_time": 30.004545454545454,
                "pitch": 65,
                "velocity": 51,
                "duration": 0.1999999999999993,
                "tempo": 120.0
            },
            {
                "start_time": 28.815909090909088,
                "end_time": 30.204545454545453,
                "pitch": 67,
                "velocity": 51,
                "duration": 1.3886363636363654,
                "tempo": 120.0
            },
            {
                "start_time": 30.004545454545454,
                "end_time": 30.204545454545453,
                "pitch": 67,
                "velocity": 51,
                "duration": 0.1999999999999993,
                "tempo": 120.0
            },
            {
                "start_time": 30.206818181818182,
                "end_time": 30.40681818181818,
                "pitch": 69,
                "velocity": 51,
                "duration": 0.1999999999999993,
                "tempo": 120.0
            },
            {
                "start_time": 30.40681818181818,
                "end_time": 30.60909090909091,
                "pitch": 66,
                "velocity": 51,
                "duration": 0.20227272727272805,
                "tempo": 120.0
            },
            {
                "start_time": 30.60909090909091,
                "end_time": 30.80909090909091,
                "pitch": 62,
                "velocity": 51,
                "duration": 0.1999999999999993,
                "tempo": 120.0
            },
            {
                "start_time": 30.811363636363634,
                "end_time": 31.011363636363633,
                "pitch": 60,
                "velocity": 51,
                "duration": 0.1999999999999993,
                "tempo": 120.0
            },
            {
                "start_time": 31.011363636363633,
                "end_time": 31.21363636363636,
                "pitch": 58,
                "velocity": 51,
                "duration": 0.20227272727272805,
                "tempo": 120.0
            },
            {
                "start_time": 31.21363636363636,
                "end_time": 31.41363636363636,
                "pitch": 57,
                "velocity": 51,
                "duration": 0.1999999999999993,
                "tempo": 120.0
            },
            {
                "start_time": 31.41363636363636,
                "end_time": 31.611363636363635,
                "pitch": 58,
                "velocity": 51,
                "duration": 0.19772727272727408,
                "tempo": 120.0
            },
            {
                "start_time": 31.613636363636363,
                "end_time": 31.811363636363634,
                "pitch": 55,
                "velocity": 51,
                "duration": 0.19772727272727053,
                "tempo": 120.0
            },
            {
                "start_time": 31.813636363636363,
                "end_time": 32.00909090909091,
                "pitch": 57,
                "velocity": 51,
                "duration": 0.19545454545454533,
                "tempo": 120.0
            },
            {
                "start_time": 32.01136363636363,
                "end_time": 32.20681818181818,
                "pitch": 67,
                "velocity": 51,
                "duration": 0.19545454545454533,
                "tempo": 120.0
            },
            {
                "start_time": 32.20909090909091,
                "end_time": 32.404545454545456,
                "pitch": 65,
                "velocity": 51,
                "duration": 0.19545454545454533,
                "tempo": 120.0
            },
            {
                "start_time": 32.40681818181818,
                "end_time": 32.60681818181818,
                "pitch": 63,
                "velocity": 51,
                "duration": 0.19999999999999574,
                "tempo": 120.0
            },
            {
                "start_time": 32.60909090909091,
                "end_time": 32.81136363636364,
                "pitch": 62,
                "velocity": 51,
                "duration": 0.20227272727272805,
                "tempo": 120.0
            },
            {
                "start_time": 32.81136363636364,
                "end_time": 33.01590909090909,
                "pitch": 60,
                "velocity": 51,
                "duration": 0.20454545454545325,
                "tempo": 120.0
            },
            {
                "start_time": 33.01590909090909,
                "end_time": 33.21363636363636,
                "pitch": 58,
                "velocity": 51,
                "duration": 0.19772727272727053,
                "tempo": 120.0
            },
            {
                "start_time": 33.21363636363636,
                "end_time": 33.41136363636363,
                "pitch": 57,
                "velocity": 51,
                "duration": 0.19772727272727053,
                "tempo": 120.0
            },
            {
                "start_time": 33.41136363636363,
                "end_time": 33.60909090909091,
                "pitch": 58,
                "velocity": 51,
                "duration": 0.19772727272727764,
                "tempo": 120.0
            },
            {
                "start_time": 33.60909090909091,
                "end_time": 33.809090909090905,
                "pitch": 60,
                "velocity": 51,
                "duration": 0.19999999999999574,
                "tempo": 120.0
            },
            {
                "start_time": 33.809090909090905,
                "end_time": 36.21818181818182,
                "pitch": 62,
                "velocity": 51,
                "duration": 2.4090909090909136,
                "tempo": 120.0
            },
            {
                "start_time": 36.220454545454544,
                "end_time": 36.41590909090909,
                "pitch": 62,
                "velocity": 51,
                "duration": 0.19545454545454533,
                "tempo": 120.0
            },
            {
                "start_time": 36.41590909090909,
                "end_time": 36.61363636363636,
                "pitch": 60,
                "velocity": 51,
                "duration": 0.19772727272727053,
                "tempo": 120.0
            },
            {
                "start_time": 36.61590909090909,
                "end_time": 36.81590909090909,
                "pitch": 62,
                "velocity": 51,
                "duration": 0.19999999999999574,
                "tempo": 120.0
            },
            {
                "start_time": 36.81590909090909,
                "end_time": 37.01590909090909,
                "pitch": 55,
                "velocity": 51,
                "duration": 0.20000000000000284,
                "tempo": 120.0
            },
            {
                "start_time": 37.018181818181816,
                "end_time": 37.21818181818182,
                "pitch": 62,
                "velocity": 51,
                "duration": 0.20000000000000284,
                "tempo": 120.0
            },
            {
                "start_time": 37.220454545454544,
                "end_time": 37.42045454545455,
                "pitch": 60,
                "velocity": 51,
                "duration": 0.20000000000000284,
                "tempo": 120.0
            },
            {
                "start_time": 37.42045454545455,
                "end_time": 37.62045454545454,
                "pitch": 62,
                "velocity": 51,
                "duration": 0.19999999999999574,
                "tempo": 120.0
            },
            {
                "start_time": 37.62272727272727,
                "end_time": 37.82272727272727,
                "pitch": 60,
                "velocity": 51,
                "duration": 0.20000000000000284,
                "tempo": 120.0
            },
            {
                "start_time": 37.824999999999996,
                "end_time": 38.02272727272727,
                "pitch": 62,
                "velocity": 51,
                "duration": 0.19772727272727764,
                "tempo": 120.0
            },
            {
                "start_time": 38.02272727272727,
                "end_time": 38.22272727272727,
                "pitch": 55,
                "velocity": 51,
                "duration": 0.19999999999999574,
                "tempo": 120.0
            },
            {
                "start_time": 38.22272727272727,
                "end_time": 38.42272727272727,
                "pitch": 62,
                "velocity": 51,
                "duration": 0.20000000000000284,
                "tempo": 120.0
            },
            {
                "start_time": 38.42272727272727,
                "end_time": 38.62272727272727,
                "pitch": 60,
                "velocity": 51,
                "duration": 0.19999999999999574,
                "tempo": 120.0
            },
            {
                "start_time": 38.625,
                "end_time": 38.824999999999996,
                "pitch": 69,
                "velocity": 51,
                "duration": 0.19999999999999574,
                "tempo": 120.0
            },
            {
                "start_time": 38.824999999999996,
                "end_time": 39.027272727272724,
                "pitch": 66,
                "velocity": 51,
                "duration": 0.20227272727272805,
                "tempo": 120.0
            },
            {
                "start_time": 39.027272727272724,
                "end_time": 39.22727272727273,
                "pitch": 63,
                "velocity": 51,
                "duration": 0.20000000000000284,
                "tempo": 120.0
            },
            {
                "start_time": 39.22954545454545,
                "end_time": 39.429545454545455,
                "pitch": 62,
                "velocity": 51,
                "duration": 0.20000000000000284,
                "tempo": 120.0
            },
            {
                "start_time": 39.429545454545455,
                "end_time": 39.63181818181818,
                "pitch": 60,
                "velocity": 51,
                "duration": 0.20227272727272805,
                "tempo": 120.0
            },
            {
                "start_time": 39.63181818181818,
                "end_time": 39.83181818181818,
                "pitch": 58,
                "velocity": 51,
                "duration": 0.19999999999999574,
                "tempo": 120.0
            },
            {
                "start_time": 39.834090909090904,
                "end_time": 40.03409090909091,
                "pitch": 57,
                "velocity": 51,
                "duration": 0.20000000000000284,
                "tempo": 120.0
            },
            {
                "start_time": 40.03409090909091,
                "end_time": 40.236363636363635,
                "pitch": 54,
                "velocity": 51,
                "duration": 0.20227272727272805,
                "tempo": 120.0
            },
            {
                "start_time": 40.236363636363635,
                "end_time": 40.43863636363636,
                "pitch": 51,
                "velocity": 51,
                "duration": 0.20227272727272805,
                "tempo": 120.0
            },
            {
                "start_time": 40.43863636363636,
                "end_time": 41.04090909090909,
                "pitch": 50,
                "velocity": 51,
                "duration": 0.6022727272727266,
                "tempo": 120.0
            },
            {
                "start_time": 41.04090909090909,
                "end_time": 41.24090909090909,
                "pitch": 58,
                "velocity": 51,
                "duration": 0.20000000000000284,
                "tempo": 120.0
            },
            {
                "start_time": 41.24090909090909,
                "end_time": 41.44090909090909,
                "pitch": 55,
                "velocity": 51,
                "duration": 0.19999999999999574,
                "tempo": 120.0
            },
            {
                "start_time": 41.44090909090909,
                "end_time": 41.63636363636363,
                "pitch": 57,
                "velocity": 51,
                "duration": 0.19545454545454533,
                "tempo": 120.0
            },
            {
                "start_time": 41.63863636363636,
                "end_time": 41.834090909090904,
                "pitch": 67,
                "velocity": 51,
                "duration": 0.19545454545454533,
                "tempo": 120.0
            },
            {
                "start_time": 41.836363636363636,
                "end_time": 42.03409090909091,
                "pitch": 65,
                "velocity": 51,
                "duration": 0.19772727272727053,
                "tempo": 120.0
            },
            {
                "start_time": 42.03409090909091,
                "end_time": 42.23409090909091,
                "pitch": 63,
                "velocity": 51,
                "duration": 0.20000000000000284,
                "tempo": 120.0
            },
            {
                "start_time": 42.23409090909091,
                "end_time": 42.43636363636364,
                "pitch": 62,
                "velocity": 51,
                "duration": 0.20227272727272805,
                "tempo": 120.0
            },
            {
                "start_time": 42.43636363636364,
                "end_time": 42.63863636363636,
                "pitch": 60,
                "velocity": 51,
                "duration": 0.20227272727272094,
                "tempo": 120.0
            },
            {
                "start_time": 42.63863636363636,
                "end_time": 42.836363636363636,
                "pitch": 58,
                "velocity": 51,
                "duration": 0.19772727272727764,
                "tempo": 120.0
            },
            {
                "start_time": 42.836363636363636,
                "end_time": 43.03636363636363,
                "pitch": 57,
                "velocity": 51,
                "duration": 0.19999999999999574,
                "tempo": 120.0
            },
            {
                "start_time": 43.03636363636363,
                "end_time": 43.236363636363635,
                "pitch": 58,
                "velocity": 51,
                "duration": 0.20000000000000284,
                "tempo": 120.0
            },
            {
                "start_time": 43.236363636363635,
                "end_time": 43.43636363636364,
                "pitch": 60,
                "velocity": 51,
                "duration": 0.20000000000000284,
                "tempo": 120.0
            },
            {
                "start_time": 43.43863636363636,
                "end_time": 45.85227272727273,
                "pitch": 62,
                "velocity": 51,
                "duration": 2.413636363636364,
                "tempo": 120.0
            },
            {
                "start_time": 45.85227272727273,
                "end_time": 46.05,
                "pitch": 62,
                "velocity": 51,
                "duration": 0.19772727272727053,
                "tempo": 120.0
            },
            {
                "start_time": 46.05,
                "end_time": 46.24772727272727,
                "pitch": 60,
                "velocity": 51,
                "duration": 0.19772727272727053,
                "tempo": 120.0
            },
            {
                "start_time": 46.24772727272727,
                "end_time": 46.449999999999996,
                "pitch": 62,
                "velocity": 51,
                "duration": 0.20227272727272805,
                "tempo": 120.0
            },
            {
                "start_time": 46.449999999999996,
                "end_time": 46.65,
                "pitch": 55,
                "velocity": 51,
                "duration": 0.20000000000000284,
                "tempo": 120.0
            },
            {
                "start_time": 46.652272727272724,
                "end_time": 46.85227272727273,
                "pitch": 62,
                "velocity": 51,
                "duration": 0.20000000000000284,
                "tempo": 120.0
            },
            {
                "start_time": 46.85227272727273,
                "end_time": 47.054545454545455,
                "pitch": 60,
                "velocity": 51,
                "duration": 0.20227272727272805,
                "tempo": 120.0
            },
            {
                "start_time": 47.054545454545455,
                "end_time": 47.25454545454545,
                "pitch": 62,
                "velocity": 51,
                "duration": 0.19999999999999574,
                "tempo": 120.0
            },
            {
                "start_time": 47.25681818181818,
                "end_time": 47.45681818181818,
                "pitch": 60,
                "velocity": 51,
                "duration": 0.19999999999999574,
                "tempo": 120.0
            },
            {
                "start_time": 47.45681818181818,
                "end_time": 47.65909090909091,
                "pitch": 62,
                "velocity": 51,
                "duration": 0.20227272727272805,
                "tempo": 120.0
            },
            {
                "start_time": 47.65909090909091,
                "end_time": 47.85909090909091,
                "pitch": 55,
                "velocity": 51,
                "duration": 0.20000000000000284,
                "tempo": 120.0
            },
            {
                "start_time": 47.861363636363635,
                "end_time": 48.06136363636364,
                "pitch": 62,
                "velocity": 51,
                "duration": 0.20000000000000284,
                "tempo": 120.0
            },
            {
                "start_time": 48.06363636363636,
                "end_time": 48.26136363636363,
                "pitch": 60,
                "velocity": 51,
                "duration": 0.19772727272727053,
                "tempo": 120.0
            },
            {
                "start_time": 48.26136363636363,
                "end_time": 48.461363636363636,
                "pitch": 69,
                "velocity": 51,
                "duration": 0.20000000000000284,
                "tempo": 120.0
            },
            {
                "start_time": 48.461363636363636,
                "end_time": 48.66136363636363,
                "pitch": 66,
                "velocity": 51,
                "duration": 0.19999999999999574,
                "tempo": 120.0
            },
            {
                "start_time": 48.66136363636363,
                "end_time": 48.861363636363635,
                "pitch": 63,
                "velocity": 51,
                "duration": 0.20000000000000284,
                "tempo": 120.0
            },
            {
                "start_time": 48.86363636363636,
                "end_time": 49.06363636363636,
                "pitch": 62,
                "velocity": 51,
                "duration": 0.20000000000000284,
                "tempo": 120.0
            },
            {
                "start_time": 49.06363636363636,
                "end_time": 49.26590909090909,
                "pitch": 60,
                "velocity": 51,
                "duration": 0.20227272727272805,
                "tempo": 120.0
            },
            {
                "start_time": 49.26590909090909,
                "end_time": 49.465909090909086,
                "pitch": 58,
                "velocity": 51,
                "duration": 0.19999999999999574,
                "tempo": 120.0
            },
            {
                "start_time": 49.46818181818182,
                "end_time": 49.668181818181814,
                "pitch": 57,
                "velocity": 51,
                "duration": 0.19999999999999574,
                "tempo": 120.0
            },
            {
                "start_time": 49.668181818181814,
                "end_time": 49.87045454545454,
                "pitch": 54,
                "velocity": 51,
                "duration": 0.20227272727272805,
                "tempo": 120.0
            },
            {
                "start_time": 49.87045454545454,
                "end_time": 50.070454545454545,
                "pitch": 51,
                "velocity": 51,
                "duration": 0.20000000000000284,
                "tempo": 120.0
            },
            {
                "start_time": 50.07272727272727,
                "end_time": 50.27272727272727,
                "pitch": 50,
                "velocity": 51,
                "duration": 0.20000000000000284,
                "tempo": 120.0
            },
            {
                "start_time": 25.884090909090908,
                "end_time": 50.474999999999994,
                "pitch": 48,
                "velocity": 51,
                "duration": 24.590909090909086,
                "tempo": 120.0
            },
            {
                "start_time": 50.27272727272727,
                "end_time": 50.474999999999994,
                "pitch": 48,
                "velocity": 51,
                "duration": 0.20227272727272094,
                "tempo": 120.0
            },
            {
                "start_time": 50.474999999999994,
                "end_time": 50.675,
                "pitch": 46,
                "velocity": 51,
                "duration": 0.20000000000000284,
                "tempo": 120.0
            },
            {
                "start_time": 50.67727272727272,
                "end_time": 51.87272727272727,
                "pitch": 45,
                "velocity": 51,
                "duration": 1.1954545454545453,
                "tempo": 120.0
            },
            {
                "start_time": 51.875,
                "end_time": 52.074999999999996,
                "pitch": 62,
                "velocity": 51,
                "duration": 0.19999999999999574,
                "tempo": 120.0
            },
            {
                "start_time": 52.074999999999996,
                "end_time": 52.277272727272724,
                "pitch": 63,
                "velocity": 51,
                "duration": 0.20227272727272805,
                "tempo": 120.0
            },
            {
                "start_time": 52.277272727272724,
                "end_time": 52.47727272727273,
                "pitch": 62,
                "velocity": 51,
                "duration": 0.20000000000000284,
                "tempo": 120.0
            },
            {
                "start_time": 52.47954545454545,
                "end_time": 52.679545454545455,
                "pitch": 63,
                "velocity": 51,
                "duration": 0.20000000000000284,
                "tempo": 120.0
            },
            {
                "start_time": 52.679545454545455,
                "end_time": 52.88181818181818,
                "pitch": 59,
                "velocity": 51,
                "duration": 0.20227272727272805,
                "tempo": 120.0
            },
            {
                "start_time": 52.88181818181818,
                "end_time": 53.084090909090904,
                "pitch": 60,
                "velocity": 51,
                "duration": 0.20227272727272094,
                "tempo": 120.0
            },
            {
                "start_time": 53.084090909090904,
                "end_time": 53.28409090909091,
                "pitch": 62,
                "velocity": 51,
                "duration": 0.20000000000000284,
                "tempo": 120.0
            },
            {
                "start_time": 53.28636363636363,
                "end_time": 53.486363636363635,
                "pitch": 55,
                "velocity": 51,
                "duration": 0.20000000000000284,
                "tempo": 120.0
            },
            {
                "start_time": 53.486363636363635,
                "end_time": 53.68636363636363,
                "pitch": 57,
                "velocity": 51,
                "duration": 0.19999999999999574,
                "tempo": 120.0
            },
            {
                "start_time": 53.68636363636363,
                "end_time": 53.88636363636363,
                "pitch": 59,
                "velocity": 51,
                "duration": 0.20000000000000284,
                "tempo": 120.0
            },
            {
                "start_time": 53.88636363636363,
                "end_time": 54.086363636363636,
                "pitch": 60,
                "velocity": 51,
                "duration": 0.20000000000000284,
                "tempo": 120.0
            },
            {
                "start_time": 54.086363636363636,
                "end_time": 54.28636363636363,
                "pitch": 62,
                "velocity": 51,
                "duration": 0.19999999999999574,
                "tempo": 120.0
            },
            {
                "start_time": 54.28636363636363,
                "end_time": 54.48863636363636,
                "pitch": 62,
                "velocity": 51,
                "duration": 0.20227272727272805,
                "tempo": 120.0
            },
            {
                "start_time": 54.48863636363636,
                "end_time": 54.69090909090909,
                "pitch": 63,
                "velocity": 51,
                "duration": 0.20227272727272805,
                "tempo": 120.0
            },
            {
                "start_time": 54.69090909090909,
                "end_time": 54.88636363636363,
                "pitch": 62,
                "velocity": 51,
                "duration": 0.19545454545454533,
                "tempo": 120.0
            },
            {
                "start_time": 54.88863636363636,
                "end_time": 55.084090909090904,
                "pitch": 63,
                "velocity": 51,
                "duration": 0.19545454545454533,
                "tempo": 120.0
            },
            {
                "start_time": 55.086363636363636,
                "end_time": 55.28409090909091,
                "pitch": 59,
                "velocity": 51,
                "duration": 0.19772727272727053,
                "tempo": 120.0
            },
            {
                "start_time": 55.28409090909091,
                "end_time": 55.48181818181818,
                "pitch": 60,
                "velocity": 51,
                "duration": 0.19772727272727053,
                "tempo": 120.0
            },
            {
                "start_time": 55.48181818181818,
                "end_time": 55.68181818181818,
                "pitch": 62,
                "velocity": 51,
                "duration": 0.20000000000000284,
                "tempo": 120.0
            },
            {
                "start_time": 55.68181818181818,
                "end_time": 55.881818181818176,
                "pitch": 55,
                "velocity": 51,
                "duration": 0.19999999999999574,
                "tempo": 120.0
            },
            {
                "start_time": 55.881818181818176,
                "end_time": 56.08181818181818,
                "pitch": 57,
                "velocity": 51,
                "duration": 0.20000000000000284,
                "tempo": 120.0
            },
            {
                "start_time": 56.084090909090904,
                "end_time": 56.28409090909091,
                "pitch": 59,
                "velocity": 51,
                "duration": 0.20000000000000284,
                "tempo": 120.0
            },
            {
                "start_time": 56.28409090909091,
                "end_time": 56.486363636363635,
                "pitch": 60,
                "velocity": 51,
                "duration": 0.20227272727272805,
                "tempo": 120.0
            },
            {
                "start_time": 56.486363636363635,
                "end_time": 56.68636363636363,
                "pitch": 62,
                "velocity": 51,
                "duration": 0.19999999999999574,
                "tempo": 120.0
            },
            {
                "start_time": 56.68863636363636,
                "end_time": 56.88863636363636,
                "pitch": 62,
                "velocity": 51,
                "duration": 0.19999999999999574,
                "tempo": 120.0
            },
            {
                "start_time": 56.88863636363636,
                "end_time": 57.090909090909086,
                "pitch": 60,
                "velocity": 51,
                "duration": 0.20227272727272805,
                "tempo": 120.0
            },
            {
                "start_time": 57.090909090909086,
                "end_time": 57.293181818181814,
                "pitch": 62,
                "velocity": 51,
                "duration": 0.20227272727272805,
                "tempo": 120.0
            },
            {
                "start_time": 57.293181818181814,
                "end_time": 57.49318181818182,
                "pitch": 55,
                "velocity": 51,
                "duration": 0.20000000000000284,
                "tempo": 120.0
            },
            {
                "start_time": 57.49545454545454,
                "end_time": 57.695454545454545,
                "pitch": 62,
                "velocity": 51,
                "duration": 0.20000000000000284,
                "tempo": 120.0
            },
            {
                "start_time": 57.695454545454545,
                "end_time": 57.89772727272727,
                "pitch": 60,
                "velocity": 51,
                "duration": 0.20227272727272805,
                "tempo": 120.0
            },
            {
                "start_time": 57.89772727272727,
                "end_time": 58.09772727272727,
                "pitch": 62,
                "velocity": 51,
                "duration": 0.19999999999999574,
                "tempo": 120.0
            },
            {
                "start_time": 58.099999999999994,
                "end_time": 58.3,
                "pitch": 60,
                "velocity": 51,
                "duration": 0.20000000000000284,
                "tempo": 120.0
            },
            {
                "start_time": 58.30227272727272,
                "end_time": 58.5,
                "pitch": 62,
                "velocity": 51,
                "duration": 0.19772727272727764,
                "tempo": 120.0
            },
            {
                "start_time": 58.5,
                "end_time": 58.699999999999996,
                "pitch": 55,
                "velocity": 51,
                "duration": 0.19999999999999574,
                "tempo": 120.0
            },
            {
                "start_time": 58.699999999999996,
                "end_time": 58.9,
                "pitch": 62,
                "velocity": 51,
                "duration": 0.20000000000000284,
                "tempo": 120.0
            },
            {
                "start_time": 58.9,
                "end_time": 59.099999999999994,
                "pitch": 60,
                "velocity": 51,
                "duration": 0.19999999999999574,
                "tempo": 120.0
            },
            {
                "start_time": 59.099999999999994,
                "end_time": 59.30227272727272,
                "pitch": 62,
                "velocity": 51,
                "duration": 0.20227272727272805,
                "tempo": 120.0
            },
            {
                "start_time": 59.30227272727272,
                "end_time": 59.50454545454545,
                "pitch": 55,
                "velocity": 51,
                "duration": 0.20227272727272805,
                "tempo": 120.0
            },
            {
                "start_time": 59.50454545454545,
                "end_time": 59.70454545454545,
                "pitch": 57,
                "velocity": 51,
                "duration": 0.20000000000000284,
                "tempo": 120.0
            },
            {
                "start_time": 59.70681818181818,
                "end_time": 59.90681818181818,
                "pitch": 58,
                "velocity": 51,
                "duration": 0.20000000000000284,
                "tempo": 120.0
            },
            {
                "start_time": 59.90681818181818,
                "end_time": 60.10909090909091,
                "pitch": 60,
                "velocity": 51,
                "duration": 0.20227272727272805,
                "tempo": 120.0
            },
            {
                "start_time": 60.10909090909091,
                "end_time": 60.309090909090905,
                "pitch": 62,
                "velocity": 51,
                "duration": 0.19999999999999574,
                "tempo": 120.0
            },
            {
                "start_time": 60.31136363636363,
                "end_time": 60.51136363636363,
                "pitch": 60,
                "velocity": 51,
                "duration": 0.20000000000000284,
                "tempo": 120.0
            },
            {
                "start_time": 60.51136363636363,
                "end_time": 60.71363636363636,
                "pitch": 58,
                "velocity": 51,
                "duration": 0.20227272727272805,
                "tempo": 120.0
            },
            {
                "start_time": 60.71363636363636,
                "end_time": 60.91136363636363,
                "pitch": 57,
                "velocity": 51,
                "duration": 0.19772727272727053,
                "tempo": 120.0
            },
            {
                "start_time": 60.91136363636363,
                "end_time": 61.10909090909091,
                "pitch": 55,
                "velocity": 51,
                "duration": 0.19772727272727764,
                "tempo": 120.0
            },
            {
                "start_time": 61.10909090909091,
                "end_time": 61.30681818181818,
                "pitch": 57,
                "velocity": 51,
                "duration": 0.19772727272727053,
                "tempo": 120.0
            },
            {
                "start_time": 61.30681818181818,
                "end_time": 61.506818181818176,
                "pitch": 53,
                "velocity": 51,
                "duration": 0.19999999999999574,
                "tempo": 120.0
            },
            {
                "start_time": 61.50909090909091,
                "end_time": 61.709090909090904,
                "pitch": 62,
                "velocity": 51,
                "duration": 0.19999999999999574,
                "tempo": 120.0
            },
            {
                "start_time": 61.709090909090904,
                "end_time": 61.91136363636363,
                "pitch": 63,
                "velocity": 51,
                "duration": 0.20227272727272805,
                "tempo": 120.0
            },
            {
                "start_time": 61.91136363636363,
                "end_time": 62.111363636363635,
                "pitch": 62,
                "velocity": 51,
                "duration": 0.20000000000000284,
                "tempo": 120.0
            },
            {
                "start_time": 62.11363636363636,
                "end_time": 62.31363636363636,
                "pitch": 63,
                "velocity": 51,
                "duration": 0.20000000000000284,
                "tempo": 120.0
            },
            {
                "start_time": 62.31363636363636,
                "end_time": 62.51590909090909,
                "pitch": 59,
                "velocity": 51,
                "duration": 0.20227272727272805,
                "tempo": 120.0
            },
            {
                "start_time": 62.51590909090909,
                "end_time": 62.715909090909086,
                "pitch": 60,
                "velocity": 51,
                "duration": 0.19999999999999574,
                "tempo": 120.0
            },
            {
                "start_time": 62.71818181818181,
                "end_time": 62.918181818181814,
                "pitch": 62,
                "velocity": 51,
                "duration": 0.20000000000000284,
                "tempo": 120.0
            },
            {
                "start_time": 62.918181818181814,
                "end_time": 63.12045454545454,
                "pitch": 55,
                "velocity": 51,
                "duration": 0.20227272727272805,
                "tempo": 120.0
            },
            {
                "start_time": 63.12045454545454,
                "end_time": 63.320454545454545,
                "pitch": 57,
                "velocity": 51,
                "duration": 0.20000000000000284,
                "tempo": 120.0
            },
            {
                "start_time": 63.32272727272727,
                "end_time": 63.522727272727266,
                "pitch": 59,
                "velocity": 51,
                "duration": 0.19999999999999574,
                "tempo": 120.0
            },
            {
                "start_time": 63.522727272727266,
                "end_time": 63.724999999999994,
                "pitch": 60,
                "velocity": 51,
                "duration": 0.20227272727272805,
                "tempo": 120.0
            },
            {
                "start_time": 63.724999999999994,
                "end_time": 63.92272727272727,
                "pitch": 62,
                "velocity": 51,
                "duration": 0.19772727272727764,
                "tempo": 120.0
            },
            {
                "start_time": 63.92272727272727,
                "end_time": 64.12045454545454,
                "pitch": 62,
                "velocity": 51,
                "duration": 0.19772727272726343,
                "tempo": 120.0
            },
            {
                "start_time": 64.12045454545454,
                "end_time": 64.31818181818181,
                "pitch": 63,
                "velocity": 51,
                "duration": 0.19772727272727764,
                "tempo": 120.0
            },
            {
                "start_time": 64.31818181818181,
                "end_time": 64.51818181818182,
                "pitch": 62,
                "velocity": 51,
                "duration": 0.20000000000000284,
                "tempo": 120.0
            },
            {
                "start_time": 64.52045454545454,
                "end_time": 64.72045454545454,
                "pitch": 63,
                "velocity": 51,
                "duration": 0.20000000000000284,
                "tempo": 120.0
            },
            {
                "start_time": 64.72045454545454,
                "end_time": 64.92272727272727,
                "pitch": 59,
                "velocity": 51,
                "duration": 0.20227272727272805,
                "tempo": 120.0
            },
            {
                "start_time": 64.92272727272727,
                "end_time": 65.12272727272727,
                "pitch": 60,
                "velocity": 51,
                "duration": 0.20000000000000284,
                "tempo": 120.0
            },
            {
                "start_time": 65.125,
                "end_time": 65.325,
                "pitch": 62,
                "velocity": 51,
                "duration": 0.20000000000000284,
                "tempo": 120.0
            },
            {
                "start_time": 65.325,
                "end_time": 65.52727272727273,
                "pitch": 55,
                "velocity": 51,
                "duration": 0.20227272727272805,
                "tempo": 120.0
            },
            {
                "start_time": 65.52727272727273,
                "end_time": 65.72727272727272,
                "pitch": 57,
                "velocity": 51,
                "duration": 0.19999999999998863,
                "tempo": 120.0
            },
            {
                "start_time": 65.72727272727272,
                "end_time": 65.92727272727272,
                "pitch": 59,
                "velocity": 51,
                "duration": 0.20000000000000284,
                "tempo": 120.0
            },
            {
                "start_time": 65.92727272727272,
                "end_time": 66.12727272727273,
                "pitch": 60,
                "velocity": 51,
                "duration": 0.20000000000000284,
                "tempo": 120.0
            },
            {
                "start_time": 66.12727272727273,
                "end_time": 66.32727272727273,
                "pitch": 62,
                "velocity": 51,
                "duration": 0.20000000000000284,
                "tempo": 120.0
            },
            {
                "start_time": 66.32727272727273,
                "end_time": 66.52954545454546,
                "pitch": 62,
                "velocity": 51,
                "duration": 0.20227272727272805,
                "tempo": 120.0
            },
            {
                "start_time": 66.52954545454546,
                "end_time": 66.73181818181818,
                "pitch": 60,
                "velocity": 51,
                "duration": 0.20227272727272805,
                "tempo": 120.0
            },
            {
                "start_time": 66.73181818181818,
                "end_time": 66.93181818181817,
                "pitch": 62,
                "velocity": 51,
                "duration": 0.19999999999998863,
                "tempo": 120.0
            },
            {
                "start_time": 66.93181818181817,
                "end_time": 67.1340909090909,
                "pitch": 55,
                "velocity": 51,
                "duration": 0.20227272727272805,
                "tempo": 120.0
            },
            {
                "start_time": 67.1340909090909,
                "end_time": 67.33636363636363,
                "pitch": 62,
                "velocity": 51,
                "duration": 0.20227272727272805,
                "tempo": 120.0
            },
            {
                "start_time": 67.33636363636363,
                "end_time": 67.5340909090909,
                "pitch": 60,
                "velocity": 51,
                "duration": 0.19772727272727764,
                "tempo": 120.0
            },
            {
                "start_time": 67.53636363636363,
                "end_time": 67.73409090909091,
                "pitch": 62,
                "velocity": 51,
                "duration": 0.19772727272727764,
                "tempo": 120.0
            },
            {
                "start_time": 67.73409090909091,
                "end_time": 67.93409090909091,
                "pitch": 60,
                "velocity": 51,
                "duration": 0.20000000000000284,
                "tempo": 120.0
            },
            {
                "start_time": 67.93409090909091,
                "end_time": 68.13636363636363,
                "pitch": 62,
                "velocity": 51,
                "duration": 0.20227272727271384,
                "tempo": 120.0
            },
            {
                "start_time": 68.13636363636363,
                "end_time": 68.33636363636363,
                "pitch": 55,
                "velocity": 51,
                "duration": 0.20000000000000284,
                "tempo": 120.0
            },
            {
                "start_time": 68.33863636363635,
                "end_time": 68.53863636363636,
                "pitch": 62,
                "velocity": 51,
                "duration": 0.20000000000000284,
                "tempo": 120.0
            },
            {
                "start_time": 68.53863636363636,
                "end_time": 68.73636363636363,
                "pitch": 60,
                "velocity": 51,
                "duration": 0.19772727272727764,
                "tempo": 120.0
            },
            {
                "start_time": 68.73636363636363,
                "end_time": 68.93409090909091,
                "pitch": 62,
                "velocity": 51,
                "duration": 0.19772727272727764,
                "tempo": 120.0
            },
            {
                "start_time": 68.93409090909091,
                "end_time": 69.13181818181818,
                "pitch": 55,
                "velocity": 51,
                "duration": 0.19772727272726343,
                "tempo": 120.0
            },
            {
                "start_time": 69.13181818181818,
                "end_time": 69.33181818181818,
                "pitch": 57,
                "velocity": 51,
                "duration": 0.20000000000000284,
                "tempo": 120.0
            },
            {
                "start_time": 69.33181818181818,
                "end_time": 69.53181818181818,
                "pitch": 58,
                "velocity": 51,
                "duration": 0.20000000000000284,
                "tempo": 120.0
            },
            {
                "start_time": 69.53181818181818,
                "end_time": 69.72954545454544,
                "pitch": 60,
                "velocity": 51,
                "duration": 0.19772727272726343,
                "tempo": 120.0
            },
            {
                "start_time": 69.73181818181818,
                "end_time": 69.92954545454545,
                "pitch": 62,
                "velocity": 51,
                "duration": 0.19772727272726343,
                "tempo": 120.0
            },
            {
                "start_time": 69.92954545454545,
                "end_time": 70.12954545454545,
                "pitch": 60,
                "velocity": 51,
                "duration": 0.20000000000000284,
                "tempo": 120.0
            },
            {
                "start_time": 70.12954545454545,
                "end_time": 70.32954545454545,
                "pitch": 58,
                "velocity": 51,
                "duration": 0.20000000000000284,
                "tempo": 120.0
            },
            {
                "start_time": 70.32954545454545,
                "end_time": 70.52954545454546,
                "pitch": 57,
                "velocity": 51,
                "duration": 0.20000000000000284,
                "tempo": 120.0
            },
            {
                "start_time": 70.53181818181818,
                "end_time": 70.73181818181818,
                "pitch": 55,
                "velocity": 51,
                "duration": 0.20000000000000284,
                "tempo": 120.0
            },
            {
                "start_time": 70.73181818181818,
                "end_time": 70.93409090909091,
                "pitch": 57,
                "velocity": 51,
                "duration": 0.20227272727272805,
                "tempo": 120.0
            },
            {
                "start_time": 70.93409090909091,
                "end_time": 71.1340909090909,
                "pitch": 53,
                "velocity": 51,
                "duration": 0.19999999999998863,
                "tempo": 120.0
            },
            {
                "start_time": 71.1340909090909,
                "end_time": 71.33181818181818,
                "pitch": 55,
                "velocity": 51,
                "duration": 0.19772727272727764,
                "tempo": 120.0
            },
            {
                "start_time": 71.3340909090909,
                "end_time": 71.53181818181818,
                "pitch": 65,
                "velocity": 51,
                "duration": 0.19772727272727764,
                "tempo": 120.0
            },
            {
                "start_time": 71.5340909090909,
                "end_time": 71.73409090909091,
                "pitch": 63,
                "velocity": 51,
                "duration": 0.20000000000000284,
                "tempo": 120.0
            },
            {
                "start_time": 71.73409090909091,
                "end_time": 71.93409090909091,
                "pitch": 62,
                "velocity": 51,
                "duration": 0.20000000000000284,
                "tempo": 120.0
            },
            {
                "start_time": 71.93636363636364,
                "end_time": 72.13636363636363,
                "pitch": 60,
                "velocity": 51,
                "duration": 0.19999999999998863,
                "tempo": 120.0
            },
            {
                "start_time": 72.13863636363637,
                "end_time": 72.33636363636363,
                "pitch": 58,
                "velocity": 51,
                "duration": 0.19772727272726343,
                "tempo": 120.0
            },
            {
                "start_time": 72.33636363636363,
                "end_time": 72.55227272727272,
                "pitch": 60,
                "velocity": 51,
                "duration": 0.2159090909090935,
                "tempo": 120.0
            },
            {
                "start_time": 72.55227272727272,
                "end_time": 72.60227272727272,
                "pitch": 60,
                "velocity": 51,
                "duration": 0.04999999999999716,
                "tempo": 120.0
            },
            {
                "start_time": 25.93409090909091,
                "end_time": 72.60227272727272,
                "pitch": 64,
                "velocity": 51,
                "duration": 46.66818181818181,
                "tempo": 120.0
            },
            {
                "start_time": 72.55227272727272,
                "end_time": 72.68636363636364,
                "pitch": 48,
                "velocity": 51,
                "duration": 0.13409090909091503,
                "tempo": 120.0
            },
            {
                "start_time": 72.60227272727272,
                "end_time": 72.68636363636364,
                "pitch": 60,
                "velocity": 51,
                "duration": 0.08409090909091788,
                "tempo": 120.0
            },
            {
                "start_time": 72.68636363636364,
                "end_time": 72.73636363636363,
                "pitch": 60,
                "velocity": 51,
                "duration": 0.04999999999999716,
                "tempo": 120.0
            },
            {
                "start_time": 72.60227272727272,
                "end_time": 72.73636363636363,
                "pitch": 64,
                "velocity": 51,
                "duration": 0.13409090909091503,
                "tempo": 120.0
            },
            {
                "start_time": 72.68636363636364,
                "end_time": 72.81818181818181,
                "pitch": 48,
                "velocity": 51,
                "duration": 0.13181818181817562,
                "tempo": 120.0
            },
            {
                "start_time": 72.73636363636363,
                "end_time": 72.81818181818181,
                "pitch": 60,
                "velocity": 51,
                "duration": 0.08181818181817846,
                "tempo": 120.0
            },
            {
                "start_time": 72.81818181818181,
                "end_time": 72.86818181818181,
                "pitch": 60,
                "velocity": 51,
                "duration": 0.04999999999999716,
                "tempo": 120.0
            },
            {
                "start_time": 72.73636363636363,
                "end_time": 72.86818181818181,
                "pitch": 64,
                "velocity": 51,
                "duration": 0.13181818181817562,
                "tempo": 120.0
            },
            {
                "start_time": 72.86818181818181,
                "end_time": 72.93409090909091,
                "pitch": 60,
                "velocity": 51,
                "duration": 0.06590909090910202,
                "tempo": 120.0
            },
            {
                "start_time": 72.93409090909091,
                "end_time": 73.13181818181818,
                "pitch": 58,
                "velocity": 51,
                "duration": 0.19772727272726343,
                "tempo": 120.0
            },
            {
                "start_time": 73.13181818181818,
                "end_time": 73.32954545454545,
                "pitch": 57,
                "velocity": 51,
                "duration": 0.19772727272727764,
                "tempo": 120.0
            },
            {
                "start_time": 73.32954545454545,
                "end_time": 73.53181818181818,
                "pitch": 58,
                "velocity": 51,
                "duration": 0.20227272727272805,
                "tempo": 120.0
            },
            {
                "start_time": 73.53181818181818,
                "end_time": 73.73636363636363,
                "pitch": 55,
                "velocity": 51,
                "duration": 0.20454545454545325,
                "tempo": 120.0
            },
            {
                "start_time": 73.73636363636363,
                "end_time": 73.93863636363636,
                "pitch": 65,
                "velocity": 51,
                "duration": 0.20227272727272805,
                "tempo": 120.0
            },
            {
                "start_time": 73.94090909090909,
                "end_time": 74.13636363636363,
                "pitch": 63,
                "velocity": 51,
                "duration": 0.19545454545453822,
                "tempo": 120.0
            },
            {
                "start_time": 74.13863636363637,
                "end_time": 74.3340909090909,
                "pitch": 62,
                "velocity": 51,
                "duration": 0.19545454545453822,
                "tempo": 120.0
            },
            {
                "start_time": 74.33636363636363,
                "end_time": 74.53181818181818,
                "pitch": 60,
                "velocity": 51,
                "duration": 0.19545454545455243,
                "tempo": 120.0
            },
            {
                "start_time": 74.5340909090909,
                "end_time": 74.73181818181818,
                "pitch": 58,
                "velocity": 51,
                "duration": 0.19772727272727764,
                "tempo": 120.0
            },
            {
                "start_time": 72.81818181818181,
                "end_time": 74.94772727272726,
                "pitch": 48,
                "velocity": 51,
                "duration": 2.1295454545454504,
                "tempo": 120.0
            },
            {
                "start_time": 74.73181818181818,
                "end_time": 74.94772727272726,
                "pitch": 60,
                "velocity": 51,
                "duration": 0.21590909090907928,
                "tempo": 120.0
            },
            {
                "start_time": 74.94772727272726,
                "end_time": 74.99772727272727,
                "pitch": 60,
                "velocity": 51,
                "duration": 0.05000000000001137,
                "tempo": 120.0
            },
            {
                "start_time": 72.86818181818181,
                "end_time": 74.99772727272727,
                "pitch": 64,
                "velocity": 51,
                "duration": 2.1295454545454646,
                "tempo": 120.0
            },
            {
                "start_time": 74.94772727272726,
                "end_time": 75.08181818181818,
                "pitch": 48,
                "velocity": 51,
                "duration": 0.13409090909091503,
                "tempo": 120.0
            },
            {
                "start_time": 74.99772727272727,
                "end_time": 75.08181818181818,
                "pitch": 60,
                "velocity": 51,
                "duration": 0.08409090909090366,
                "tempo": 120.0
            },
            {
                "start_time": 75.08181818181818,
                "end_time": 75.13181818181818,
                "pitch": 60,
                "velocity": 51,
                "duration": 0.04999999999999716,
                "tempo": 120.0
            },
            {
                "start_time": 74.99772727272727,
                "end_time": 75.13181818181818,
                "pitch": 64,
                "velocity": 51,
                "duration": 0.13409090909090082,
                "tempo": 120.0
            },
            {
                "start_time": 75.08181818181818,
                "end_time": 75.21363636363635,
                "pitch": 48,
                "velocity": 51,
                "duration": 0.13181818181817562,
                "tempo": 120.0
            },
            {
                "start_time": 75.13181818181818,
                "end_time": 75.21363636363635,
                "pitch": 60,
                "velocity": 51,
                "duration": 0.08181818181817846,
                "tempo": 120.0
            },
            {
                "start_time": 75.21363636363635,
                "end_time": 75.26363636363637,
                "pitch": 60,
                "velocity": 51,
                "duration": 0.05000000000001137,
                "tempo": 120.0
            },
            {
                "start_time": 75.13181818181818,
                "end_time": 75.26363636363637,
                "pitch": 64,
                "velocity": 51,
                "duration": 0.13181818181818983,
                "tempo": 120.0
            },
            {
                "start_time": 75.26363636363637,
                "end_time": 75.32954545454545,
                "pitch": 60,
                "velocity": 51,
                "duration": 0.06590909090908781,
                "tempo": 120.0
            },
            {
                "start_time": 75.33181818181818,
                "end_time": 75.52954545454546,
                "pitch": 58,
                "velocity": 51,
                "duration": 0.19772727272727764,
                "tempo": 120.0
            },
            {
                "start_time": 75.52954545454546,
                "end_time": 75.72954545454544,
                "pitch": 57,
                "velocity": 51,
                "duration": 0.19999999999998863,
                "tempo": 120.0
            },
            {
                "start_time": 75.72954545454544,
                "end_time": 75.92954545454545,
                "pitch": 58,
                "velocity": 51,
                "duration": 0.20000000000000284,
                "tempo": 120.0
            },
            {
                "start_time": 75.93181818181817,
                "end_time": 76.14999999999999,
                "pitch": 55,
                "velocity": 51,
                "duration": 0.2181818181818187,
                "tempo": 120.0
            },
            {
                "start_time": 28.868181818181817,
                "end_time": 76.2,
                "pitch": 0,
                "velocity": 51,
                "duration": 47.331818181818186,
                "tempo": 120.0
            },
            {
                "start_time": 76.14999999999999,
                "end_time": 76.2,
                "pitch": 55,
                "velocity": 51,
                "duration": 0.05000000000001137,
                "tempo": 120.0
            },
            {
                "start_time": 76.2,
                "end_time": 76.2840909090909,
                "pitch": 55,
                "velocity": 51,
                "duration": 0.08409090909090366,
                "tempo": 120.0
            },
            {
                "start_time": 76.14999999999999,
                "end_time": 76.2840909090909,
                "pitch": 67,
                "velocity": 51,
                "duration": 0.13409090909091503,
                "tempo": 120.0
            },
            {
                "start_time": 76.2,
                "end_time": 76.3340909090909,
                "pitch": 0,
                "velocity": 51,
                "duration": 0.13409090909090082,
                "tempo": 120.0
            },
            {
                "start_time": 76.2840909090909,
                "end_time": 76.3340909090909,
                "pitch": 55,
                "velocity": 51,
                "duration": 0.04999999999999716,
                "tempo": 120.0
            },
            {
                "start_time": 76.3340909090909,
                "end_time": 76.41818181818182,
                "pitch": 55,
                "velocity": 51,
                "duration": 0.08409090909091788,
                "tempo": 120.0
            },
            {
                "start_time": 76.2840909090909,
                "end_time": 76.41818181818182,
                "pitch": 67,
                "velocity": 51,
                "duration": 0.13409090909091503,
                "tempo": 120.0
            },
            {
                "start_time": 76.3340909090909,
                "end_time": 76.46818181818182,
                "pitch": 0,
                "velocity": 51,
                "duration": 0.13409090909091503,
                "tempo": 120.0
            },
            {
                "start_time": 76.41818181818182,
                "end_time": 76.46818181818182,
                "pitch": 55,
                "velocity": 51,
                "duration": 0.04999999999999716,
                "tempo": 120.0
            },
            {
                "start_time": 76.46818181818182,
                "end_time": 76.55,
                "pitch": 55,
                "velocity": 51,
                "duration": 0.08181818181817846,
                "tempo": 120.0
            },
            {
                "start_time": 76.41818181818182,
                "end_time": 76.55,
                "pitch": 67,
                "velocity": 51,
                "duration": 0.13181818181817562,
                "tempo": 120.0
            },
            {
                "start_time": 76.46818181818182,
                "end_time": 76.6,
                "pitch": 0,
                "velocity": 51,
                "duration": 0.13181818181817562,
                "tempo": 120.0
            },
            {
                "start_time": 76.55,
                "end_time": 76.6,
                "pitch": 55,
                "velocity": 51,
                "duration": 0.04999999999999716,
                "tempo": 120.0
            },
            {
                "start_time": 76.6,
                "end_time": 76.68409090909091,
                "pitch": 55,
                "velocity": 51,
                "duration": 0.08409090909091788,
                "tempo": 120.0
            },
            {
                "start_time": 76.55,
                "end_time": 76.68409090909091,
                "pitch": 67,
                "velocity": 51,
                "duration": 0.13409090909091503,
                "tempo": 120.0
            },
            {
                "start_time": 76.6,
                "end_time": 76.73409090909091,
                "pitch": 0,
                "velocity": 51,
                "duration": 0.13409090909091503,
                "tempo": 120.0
            },
            {
                "start_time": 76.68409090909091,
                "end_time": 76.73409090909091,
                "pitch": 55,
                "velocity": 51,
                "duration": 0.04999999999999716,
                "tempo": 120.0
            },
            {
                "start_time": 76.73409090909091,
                "end_time": 76.81590909090909,
                "pitch": 55,
                "velocity": 51,
                "duration": 0.08181818181817846,
                "tempo": 120.0
            },
            {
                "start_time": 76.68409090909091,
                "end_time": 76.81590909090909,
                "pitch": 67,
                "velocity": 51,
                "duration": 0.13181818181817562,
                "tempo": 120.0
            },
            {
                "start_time": 76.73409090909091,
                "end_time": 76.86590909090908,
                "pitch": 0,
                "velocity": 51,
                "duration": 0.13181818181817562,
                "tempo": 120.0
            },
            {
                "start_time": 76.81590909090909,
                "end_time": 76.86590909090908,
                "pitch": 55,
                "velocity": 51,
                "duration": 0.04999999999999716,
                "tempo": 120.0
            },
            {
                "start_time": 76.86590909090908,
                "end_time": 76.95,
                "pitch": 55,
                "velocity": 51,
                "duration": 0.08409090909091788,
                "tempo": 120.0
            },
            {
                "start_time": 76.81590909090909,
                "end_time": 76.95,
                "pitch": 67,
                "velocity": 51,
                "duration": 0.13409090909091503,
                "tempo": 120.0
            },
            {
                "start_time": 76.86590909090908,
                "end_time": 77.0,
                "pitch": 0,
                "velocity": 51,
                "duration": 0.13409090909091503,
                "tempo": 120.0
            },
            {
                "start_time": 76.95,
                "end_time": 77.0,
                "pitch": 55,
                "velocity": 51,
                "duration": 0.04999999999999716,
                "tempo": 120.0
            },
            {
                "start_time": 77.0,
                "end_time": 77.0840909090909,
                "pitch": 55,
                "velocity": 51,
                "duration": 0.08409090909090366,
                "tempo": 120.0
            },
            {
                "start_time": 76.95,
                "end_time": 77.0840909090909,
                "pitch": 67,
                "velocity": 51,
                "duration": 0.13409090909090082,
                "tempo": 120.0
            },
            {
                "start_time": 77.0,
                "end_time": 77.1340909090909,
                "pitch": 0,
                "velocity": 51,
                "duration": 0.13409090909090082,
                "tempo": 120.0
            },
            {
                "start_time": 77.0840909090909,
                "end_time": 77.1340909090909,
                "pitch": 55,
                "velocity": 51,
                "duration": 0.04999999999999716,
                "tempo": 120.0
            },
            {
                "start_time": 77.1340909090909,
                "end_time": 77.21818181818182,
                "pitch": 55,
                "velocity": 51,
                "duration": 0.08409090909091788,
                "tempo": 120.0
            },
            {
                "start_time": 77.0840909090909,
                "end_time": 77.21818181818182,
                "pitch": 67,
                "velocity": 51,
                "duration": 0.13409090909091503,
                "tempo": 120.0
            },
            {
                "start_time": 77.1340909090909,
                "end_time": 77.26818181818182,
                "pitch": 0,
                "velocity": 51,
                "duration": 0.13409090909091503,
                "tempo": 120.0
            },
            {
                "start_time": 77.21818181818182,
                "end_time": 77.26818181818182,
                "pitch": 55,
                "velocity": 51,
                "duration": 0.04999999999999716,
                "tempo": 120.0
            },
            {
                "start_time": 77.26818181818182,
                "end_time": 77.35227272727272,
                "pitch": 55,
                "velocity": 51,
                "duration": 0.08409090909090366,
                "tempo": 120.0
            },
            {
                "start_time": 77.21818181818182,
                "end_time": 77.35227272727272,
                "pitch": 67,
                "velocity": 51,
                "duration": 0.13409090909090082,
                "tempo": 120.0
            },
            {
                "start_time": 77.26818181818182,
                "end_time": 77.40227272727272,
                "pitch": 0,
                "velocity": 51,
                "duration": 0.13409090909090082,
                "tempo": 120.0
            },
            {
                "start_time": 77.35227272727272,
                "end_time": 77.40227272727272,
                "pitch": 55,
                "velocity": 51,
                "duration": 0.04999999999999716,
                "tempo": 120.0
            },
            {
                "start_time": 77.40227272727272,
                "end_time": 77.48636363636363,
                "pitch": 55,
                "velocity": 51,
                "duration": 0.08409090909091788,
                "tempo": 120.0
            },
            {
                "start_time": 77.35227272727272,
                "end_time": 77.48636363636363,
                "pitch": 67,
                "velocity": 51,
                "duration": 0.13409090909091503,
                "tempo": 120.0
            },
            {
                "start_time": 77.40227272727272,
                "end_time": 77.53863636363636,
                "pitch": 0,
                "velocity": 51,
                "duration": 0.13636363636364024,
                "tempo": 120.0
            },
            {
                "start_time": 77.48636363636363,
                "end_time": 77.53863636363636,
                "pitch": 55,
                "velocity": 51,
                "duration": 0.052272727272722364,
                "tempo": 120.0
            },
            {
                "start_time": 77.53863636363636,
                "end_time": 77.62045454545454,
                "pitch": 55,
                "velocity": 51,
                "duration": 0.08181818181817846,
                "tempo": 120.0
            },
            {
                "start_time": 77.48636363636363,
                "end_time": 77.62045454545454,
                "pitch": 67,
                "velocity": 51,
                "duration": 0.13409090909090082,
                "tempo": 120.0
            },
            {
                "start_time": 77.53863636363636,
                "end_time": 77.67045454545455,
                "pitch": 0,
                "velocity": 51,
                "duration": 0.13181818181818983,
                "tempo": 120.0
            },
            {
                "start_time": 77.62045454545454,
                "end_time": 77.67045454545455,
                "pitch": 55,
                "velocity": 51,
                "duration": 0.05000000000001137,
                "tempo": 120.0
            },
            {
                "start_time": 77.67045454545455,
                "end_time": 77.75454545454545,
                "pitch": 55,
                "velocity": 51,
                "duration": 0.08409090909090366,
                "tempo": 120.0
            },
            {
                "start_time": 77.62045454545454,
                "end_time": 77.75454545454545,
                "pitch": 67,
                "velocity": 51,
                "duration": 0.13409090909091503,
                "tempo": 120.0
            },
            {
                "start_time": 77.67045454545455,
                "end_time": 77.80454545454545,
                "pitch": 0,
                "velocity": 51,
                "duration": 0.13409090909090082,
                "tempo": 120.0
            },
            {
                "start_time": 77.75454545454545,
                "end_time": 77.80454545454545,
                "pitch": 55,
                "velocity": 51,
                "duration": 0.04999999999999716,
                "tempo": 120.0
            },
            {
                "start_time": 77.80454545454545,
                "end_time": 77.88636363636363,
                "pitch": 55,
                "velocity": 51,
                "duration": 0.08181818181817846,
                "tempo": 120.0
            },
            {
                "start_time": 77.75454545454545,
                "end_time": 77.88636363636363,
                "pitch": 67,
                "velocity": 51,
                "duration": 0.13181818181817562,
                "tempo": 120.0
            },
            {
                "start_time": 77.80454545454545,
                "end_time": 77.93636363636364,
                "pitch": 0,
                "velocity": 51,
                "duration": 0.13181818181818983,
                "tempo": 120.0
            },
            {
                "start_time": 77.88636363636363,
                "end_time": 77.93636363636364,
                "pitch": 55,
                "velocity": 51,
                "duration": 0.05000000000001137,
                "tempo": 120.0
            },
            {
                "start_time": 77.93636363636364,
                "end_time": 78.02045454545454,
                "pitch": 55,
                "velocity": 51,
                "duration": 0.08409090909090366,
                "tempo": 120.0
            },
            {
                "start_time": 77.88636363636363,
                "end_time": 78.02045454545454,
                "pitch": 67,
                "velocity": 51,
                "duration": 0.13409090909091503,
                "tempo": 120.0
            },
            {
                "start_time": 77.93636363636364,
                "end_time": 78.07045454545454,
                "pitch": 0,
                "velocity": 51,
                "duration": 0.13409090909090082,
                "tempo": 120.0
            },
            {
                "start_time": 78.02045454545454,
                "end_time": 78.07045454545454,
                "pitch": 55,
                "velocity": 51,
                "duration": 0.04999999999999716,
                "tempo": 120.0
            },
            {
                "start_time": 78.07045454545454,
                "end_time": 78.15227272727272,
                "pitch": 55,
                "velocity": 51,
                "duration": 0.08181818181817846,
                "tempo": 120.0
            },
            {
                "start_time": 78.02045454545454,
                "end_time": 78.15227272727272,
                "pitch": 67,
                "velocity": 51,
                "duration": 0.13181818181817562,
                "tempo": 120.0
            },
            {
                "start_time": 78.07045454545454,
                "end_time": 78.20227272727273,
                "pitch": 0,
                "velocity": 51,
                "duration": 0.13181818181818983,
                "tempo": 120.0
            },
            {
                "start_time": 78.15227272727272,
                "end_time": 78.20227272727273,
                "pitch": 55,
                "velocity": 51,
                "duration": 0.05000000000001137,
                "tempo": 120.0
            },
            {
                "start_time": 78.20227272727273,
                "end_time": 78.2840909090909,
                "pitch": 55,
                "velocity": 51,
                "duration": 0.08181818181817846,
                "tempo": 120.0
            },
            {
                "start_time": 78.2840909090909,
                "end_time": 78.3340909090909,
                "pitch": 55,
                "velocity": 51,
                "duration": 0.04999999999999716,
                "tempo": 120.0
            },
            {
                "start_time": 78.3340909090909,
                "end_time": 78.53181818181818,
                "pitch": 63,
                "velocity": 51,
                "duration": 0.19772727272727764,
                "tempo": 120.0
            },
            {
                "start_time": 78.53181818181818,
                "end_time": 78.72954545454544,
                "pitch": 62,
                "velocity": 51,
                "duration": 0.19772727272726343,
                "tempo": 120.0
            },
            {
                "start_time": 78.72954545454544,
                "end_time": 78.92727272727272,
                "pitch": 60,
                "velocity": 51,
                "duration": 0.19772727272727764,
                "tempo": 120.0
            },
            {
                "start_time": 78.92954545454545,
                "end_time": 79.12727272727273,
                "pitch": 62,
                "velocity": 51,
                "duration": 0.19772727272727764,
                "tempo": 120.0
            },
            {
                "start_time": 79.12954545454545,
                "end_time": 79.32727272727273,
                "pitch": 65,
                "velocity": 51,
                "duration": 0.19772727272727764,
                "tempo": 120.0
            },
            {
                "start_time": 78.15227272727272,
                "end_time": 79.52954545454546,
                "pitch": 67,
                "velocity": 51,
                "duration": 1.3772727272727394,
                "tempo": 120.0
            },
            {
                "start_time": 79.32954545454545,
                "end_time": 79.52954545454546,
                "pitch": 67,
                "velocity": 51,
                "duration": 0.20000000000000284,
                "tempo": 120.0
            },
            {
                "start_time": 79.52954545454546,
                "end_time": 79.72954545454544,
                "pitch": 69,
                "velocity": 51,
                "duration": 0.19999999999998863,
                "tempo": 120.0
            },
            {
                "start_time": 79.73181818181818,
                "end_time": 79.93181818181817,
                "pitch": 70,
                "velocity": 51,
                "duration": 0.19999999999998863,
                "tempo": 120.0
            },
            {
                "start_time": 79.93181818181817,
                "end_time": 80.13181818181818,
                "pitch": 69,
                "velocity": 51,
                "duration": 0.20000000000000284,
                "tempo": 120.0
            },
            {
                "start_time": 80.13181818181818,
                "end_time": 80.33181818181818,
                "pitch": 66,
                "velocity": 51,
                "duration": 0.20000000000000284,
                "tempo": 120.0
            },
            {
                "start_time": 80.33181818181818,
                "end_time": 80.53181818181818,
                "pitch": 62,
                "velocity": 51,
                "duration": 0.20000000000000284,
                "tempo": 120.0
            },
            {
                "start_time": 80.53181818181818,
                "end_time": 80.72954545454544,
                "pitch": 60,
                "velocity": 51,
                "duration": 0.19772727272726343,
                "tempo": 120.0
            },
            {
                "start_time": 80.73181818181818,
                "end_time": 80.92954545454545,
                "pitch": 55,
                "velocity": 51,
                "duration": 0.19772727272726343,
                "tempo": 120.0
            },
            {
                "start_time": 80.93181818181817,
                "end_time": 81.12954545454545,
                "pitch": 65,
                "velocity": 51,
                "duration": 0.19772727272727764,
                "tempo": 120.0
            },
            {
                "start_time": 81.12954545454545,
                "end_time": 81.33181818181818,
                "pitch": 63,
                "velocity": 51,
                "duration": 0.20227272727272805,
                "tempo": 120.0
            },
            {
                "start_time": 81.33181818181818,
                "end_time": 81.53181818181818,
                "pitch": 62,
                "velocity": 51,
                "duration": 0.20000000000000284,
                "tempo": 120.0
            },
            {
                "start_time": 81.5340909090909,
                "end_time": 81.73409090909091,
                "pitch": 60,
                "velocity": 51,
                "duration": 0.20000000000000284,
                "tempo": 120.0
            },
            {
                "start_time": 81.73636363636363,
                "end_time": 81.93409090909091,
                "pitch": 58,
                "velocity": 51,
                "duration": 0.19772727272727764,
                "tempo": 120.0
            },
            {
                "start_time": 75.21363636363635,
                "end_time": 82.14999999999999,
                "pitch": 48,
                "velocity": 51,
                "duration": 6.936363636363637,
                "tempo": 120.0
            },
            {
                "start_time": 81.93409090909091,
                "end_time": 82.14999999999999,
                "pitch": 60,
                "velocity": 51,
                "duration": 0.21590909090907928,
                "tempo": 120.0
            },
            {
                "start_time": 82.14999999999999,
                "end_time": 82.2,
                "pitch": 60,
                "velocity": 51,
                "duration": 0.05000000000001137,
                "tempo": 120.0
            },
            {
                "start_time": 75.26363636363637,
                "end_time": 82.2,
                "pitch": 64,
                "velocity": 51,
                "duration": 6.936363636363637,
                "tempo": 120.0
            },
            {
                "start_time": 82.14999999999999,
                "end_time": 82.2840909090909,
                "pitch": 48,
                "velocity": 51,
                "duration": 0.13409090909091503,
                "tempo": 120.0
            },
            {
                "start_time": 82.2,
                "end_time": 82.2840909090909,
                "pitch": 60,
                "velocity": 51,
                "duration": 0.08409090909090366,
                "tempo": 120.0
            },
            {
                "start_time": 82.2840909090909,
                "end_time": 82.3340909090909,
                "pitch": 60,
                "velocity": 51,
                "duration": 0.04999999999999716,
                "tempo": 120.0
            },
            {
                "start_time": 82.2,
                "end_time": 82.3340909090909,
                "pitch": 64,
                "velocity": 51,
                "duration": 0.13409090909090082,
                "tempo": 120.0
            },
            {
                "start_time": 82.2840909090909,
                "end_time": 82.41590909090908,
                "pitch": 48,
                "velocity": 51,
                "duration": 0.13181818181817562,
                "tempo": 120.0
            },
            {
                "start_time": 82.3340909090909,
                "end_time": 82.41590909090908,
                "pitch": 60,
                "velocity": 51,
                "duration": 0.08181818181817846,
                "tempo": 120.0
            },
            {
                "start_time": 82.41590909090908,
                "end_time": 82.46818181818182,
                "pitch": 60,
                "velocity": 51,
                "duration": 0.052272727272736574,
                "tempo": 120.0
            },
            {
                "start_time": 82.46818181818182,
                "end_time": 82.5340909090909,
                "pitch": 60,
                "velocity": 51,
                "duration": 0.06590909090908781,
                "tempo": 120.0
            },
            {
                "start_time": 82.5340909090909,
                "end_time": 82.73636363636363,
                "pitch": 58,
                "velocity": 51,
                "duration": 0.20227272727272805,
                "tempo": 120.0
            },
            {
                "start_time": 82.73636363636363,
                "end_time": 82.93863636363636,
                "pitch": 57,
                "velocity": 51,
                "duration": 0.20227272727272805,
                "tempo": 120.0
            },
            {
                "start_time": 82.93863636363636,
                "end_time": 83.13636363636363,
                "pitch": 58,
                "velocity": 51,
                "duration": 0.19772727272726343,
                "tempo": 120.0
            },
            {
                "start_time": 83.13863636363637,
                "end_time": 83.33636363636363,
                "pitch": 55,
                "velocity": 51,
                "duration": 0.19772727272726343,
                "tempo": 120.0
            },
            {
                "start_time": 83.33863636363635,
                "end_time": 83.53636363636363,
                "pitch": 65,
                "velocity": 51,
                "duration": 0.19772727272727764,
                "tempo": 120.0
            },
            {
                "start_time": 83.53863636363636,
                "end_time": 83.73409090909091,
                "pitch": 63,
                "velocity": 51,
                "duration": 0.19545454545455243,
                "tempo": 120.0
            },
            {
                "start_time": 83.73409090909091,
                "end_time": 83.93181818181817,
                "pitch": 62,
                "velocity": 51,
                "duration": 0.19772727272726343,
                "tempo": 120.0
            },
            {
                "start_time": 83.93181818181817,
                "end_time": 84.12954545454545,
                "pitch": 60,
                "velocity": 51,
                "duration": 0.19772727272727764,
                "tempo": 120.0
            },
            {
                "start_time": 84.12954545454545,
                "end_time": 84.32954545454545,
                "pitch": 58,
                "velocity": 51,
                "duration": 0.20000000000000284,
                "tempo": 120.0
            },
            {
                "start_time": 82.41590909090908,
                "end_time": 84.54545454545455,
                "pitch": 48,
                "velocity": 51,
                "duration": 2.1295454545454646,
                "tempo": 120.0
            },
            {
                "start_time": 84.32954545454545,
                "end_time": 84.54545454545455,
                "pitch": 60,
                "velocity": 51,
                "duration": 0.2159090909090935,
                "tempo": 120.0
            },
            {
                "start_time": 84.54545454545455,
                "end_time": 84.59545454545454,
                "pitch": 60,
                "velocity": 51,
                "duration": 0.04999999999999716,
                "tempo": 120.0
            },
            {
                "start_time": 82.3340909090909,
                "end_time": 84.59545454545454,
                "pitch": 64,
                "velocity": 51,
                "duration": 2.2613636363636402,
                "tempo": 120.0
            },
            {
                "start_time": 84.54545454545455,
                "end_time": 84.67727272727272,
                "pitch": 48,
                "velocity": 51,
                "duration": 0.13181818181817562,
                "tempo": 120.0
            },
            {
                "start_time": 84.59545454545454,
                "end_time": 84.67727272727272,
                "pitch": 60,
                "velocity": 51,
                "duration": 0.08181818181817846,
                "tempo": 120.0
            },
            {
                "start_time": 84.67727272727272,
                "end_time": 84.72954545454544,
                "pitch": 60,
                "velocity": 51,
                "duration": 0.052272727272722364,
                "tempo": 120.0
            },
            {
                "start_time": 84.59545454545454,
                "end_time": 84.72954545454544,
                "pitch": 64,
                "velocity": 51,
                "duration": 0.13409090909090082,
                "tempo": 120.0
            },
            {
                "start_time": 84.67727272727272,
                "end_time": 84.81136363636364,
                "pitch": 48,
                "velocity": 51,
                "duration": 0.13409090909091503,
                "tempo": 120.0
            },
            {
                "start_time": 84.72954545454544,
                "end_time": 84.81136363636364,
                "pitch": 60,
                "velocity": 51,
                "duration": 0.08181818181819267,
                "tempo": 120.0
            },
            {
                "start_time": 84.81136363636364,
                "end_time": 84.86136363636363,
                "pitch": 60,
                "velocity": 51,
                "duration": 0.04999999999999716,
                "tempo": 120.0
            },
            {
                "start_time": 84.72954545454544,
                "end_time": 84.86136363636363,
                "pitch": 64,
                "velocity": 51,
                "duration": 0.13181818181818983,
                "tempo": 120.0
            },
            {
                "start_time": 84.86136363636363,
                "end_time": 84.92727272727272,
                "pitch": 60,
                "velocity": 51,
                "duration": 0.06590909090908781,
                "tempo": 120.0
            },
            {
                "start_time": 84.92727272727272,
                "end_time": 85.12727272727273,
                "pitch": 58,
                "velocity": 51,
                "duration": 0.20000000000000284,
                "tempo": 120.0
            },
            {
                "start_time": 85.12727272727273,
                "end_time": 85.32727272727273,
                "pitch": 57,
                "velocity": 51,
                "duration": 0.20000000000000284,
                "tempo": 120.0
            },
            {
                "start_time": 85.32727272727273,
                "end_time": 85.52727272727272,
                "pitch": 58,
                "velocity": 51,
                "duration": 0.19999999999998863,
                "tempo": 120.0
            },
            {
                "start_time": 85.52727272727272,
                "end_time": 85.74545454545454,
                "pitch": 55,
                "velocity": 51,
                "duration": 0.2181818181818187,
                "tempo": 120.0
            },
            {
                "start_time": 78.20227272727273,
                "end_time": 85.79772727272727,
                "pitch": 0,
                "velocity": 51,
                "duration": 7.595454545454544,
                "tempo": 120.0
            },
            {
                "start_time": 85.74545454545454,
                "end_time": 85.79772727272727,
                "pitch": 55,
                "velocity": 51,
                "duration": 0.052272727272736574,
                "tempo": 120.0
            },
            {
                "start_time": 85.79772727272727,
                "end_time": 85.88181818181818,
                "pitch": 55,
                "velocity": 51,
                "duration": 0.08409090909090366,
                "tempo": 120.0
            },
            {
                "start_time": 85.74545454545454,
                "end_time": 85.88181818181818,
                "pitch": 67,
                "velocity": 51,
                "duration": 0.13636363636364024,
                "tempo": 120.0
            },
            {
                "start_time": 85.79772727272727,
                "end_time": 85.93181818181817,
                "pitch": 0,
                "velocity": 51,
                "duration": 0.13409090909090082,
                "tempo": 120.0
            },
            {
                "start_time": 85.88181818181818,
                "end_time": 85.93181818181817,
                "pitch": 55,
                "velocity": 51,
                "duration": 0.04999999999999716,
                "tempo": 120.0
            },
            {
                "start_time": 85.93181818181817,
                "end_time": 86.01363636363637,
                "pitch": 55,
                "velocity": 51,
                "duration": 0.08181818181819267,
                "tempo": 120.0
            },
            {
                "start_time": 85.88181818181818,
                "end_time": 86.01363636363637,
                "pitch": 67,
                "velocity": 51,
                "duration": 0.13181818181818983,
                "tempo": 120.0
            },
            {
                "start_time": 85.93181818181817,
                "end_time": 86.06363636363636,
                "pitch": 0,
                "velocity": 51,
                "duration": 0.13181818181818983,
                "tempo": 120.0
            },
            {
                "start_time": 86.01363636363637,
                "end_time": 86.06363636363636,
                "pitch": 55,
                "velocity": 51,
                "duration": 0.04999999999999716,
                "tempo": 120.0
            },
            {
                "start_time": 86.06363636363636,
                "end_time": 86.14772727272727,
                "pitch": 55,
                "velocity": 51,
                "duration": 0.08409090909090366,
                "tempo": 120.0
            },
            {
                "start_time": 86.01363636363637,
                "end_time": 86.14772727272727,
                "pitch": 67,
                "velocity": 51,
                "duration": 0.13409090909090082,
                "tempo": 120.0
            },
            {
                "start_time": 86.06363636363636,
                "end_time": 86.19772727272726,
                "pitch": 0,
                "velocity": 51,
                "duration": 0.13409090909090082,
                "tempo": 120.0
            },
            {
                "start_time": 86.14772727272727,
                "end_time": 86.19772727272726,
                "pitch": 55,
                "velocity": 51,
                "duration": 0.04999999999999716,
                "tempo": 120.0
            },
            {
                "start_time": 86.19772727272726,
                "end_time": 86.28181818181818,
                "pitch": 55,
                "velocity": 51,
                "duration": 0.08409090909091788,
                "tempo": 120.0
            },
            {
                "start_time": 86.14772727272727,
                "end_time": 86.28181818181818,
                "pitch": 67,
                "velocity": 51,
                "duration": 0.13409090909091503,
                "tempo": 120.0
            },
            {
                "start_time": 86.19772727272726,
                "end_time": 86.32954545454545,
                "pitch": 0,
                "velocity": 51,
                "duration": 0.13181818181818983,
                "tempo": 120.0
            },
            {
                "start_time": 86.28181818181818,
                "end_time": 86.32954545454545,
                "pitch": 55,
                "velocity": 51,
                "duration": 0.04772727272727195,
                "tempo": 120.0
            },
            {
                "start_time": 86.32954545454545,
                "end_time": 86.41363636363636,
                "pitch": 55,
                "velocity": 51,
                "duration": 0.08409090909090366,
                "tempo": 120.0
            },
            {
                "start_time": 86.28181818181818,
                "end_time": 86.41363636363636,
                "pitch": 67,
                "velocity": 51,
                "duration": 0.13181818181817562,
                "tempo": 120.0
            },
            {
                "start_time": 86.32954545454545,
                "end_time": 86.46363636363635,
                "pitch": 0,
                "velocity": 51,
                "duration": 0.13409090909090082,
                "tempo": 120.0
            },
            {
                "start_time": 86.41363636363636,
                "end_time": 86.46363636363635,
                "pitch": 55,
                "velocity": 51,
                "duration": 0.04999999999999716,
                "tempo": 120.0
            },
            {
                "start_time": 86.46363636363635,
                "end_time": 86.54772727272727,
                "pitch": 55,
                "velocity": 51,
                "duration": 0.08409090909091788,
                "tempo": 120.0
            },
            {
                "start_time": 86.41363636363636,
                "end_time": 86.54772727272727,
                "pitch": 67,
                "velocity": 51,
                "duration": 0.13409090909091503,
                "tempo": 120.0
            },
            {
                "start_time": 86.46363636363635,
                "end_time": 86.59772727272727,
                "pitch": 0,
                "velocity": 51,
                "duration": 0.13409090909091503,
                "tempo": 120.0
            },
            {
                "start_time": 86.54772727272727,
                "end_time": 86.59772727272727,
                "pitch": 55,
                "velocity": 51,
                "duration": 0.04999999999999716,
                "tempo": 120.0
            },
            {
                "start_time": 86.59772727272727,
                "end_time": 86.68181818181817,
                "pitch": 55,
                "velocity": 51,
                "duration": 0.08409090909090366,
                "tempo": 120.0
            },
            {
                "start_time": 86.54772727272727,
                "end_time": 86.68181818181817,
                "pitch": 67,
                "velocity": 51,
                "duration": 0.13409090909090082,
                "tempo": 120.0
            },
            {
                "start_time": 86.59772727272727,
                "end_time": 86.73181818181818,
                "pitch": 0,
                "velocity": 51,
                "duration": 0.13409090909091503,
                "tempo": 120.0
            },
            {
                "start_time": 86.68181818181817,
                "end_time": 86.73181818181818,
                "pitch": 55,
                "velocity": 51,
                "duration": 0.05000000000001137,
                "tempo": 120.0
            },
            {
                "start_time": 86.73181818181818,
                "end_time": 86.81590909090909,
                "pitch": 55,
                "velocity": 51,
                "duration": 0.08409090909090366,
                "tempo": 120.0
            },
            {
                "start_time": 86.68181818181817,
                "end_time": 86.81590909090909,
                "pitch": 67,
                "velocity": 51,
                "duration": 0.13409090909091503,
                "tempo": 120.0
            },
            {
                "start_time": 86.73181818181818,
                "end_time": 86.86590909090908,
                "pitch": 0,
                "velocity": 51,
                "duration": 0.13409090909090082,
                "tempo": 120.0
            },
            {
                "start_time": 86.81590909090909,
                "end_time": 86.86590909090908,
                "pitch": 55,
                "velocity": 51,
                "duration": 0.04999999999999716,
                "tempo": 120.0
            },
            {
                "start_time": 86.86590909090908,
                "end_time": 86.95,
                "pitch": 55,
                "velocity": 51,
                "duration": 0.08409090909091788,
                "tempo": 120.0
            },
            {
                "start_time": 86.81590909090909,
                "end_time": 86.95,
                "pitch": 67,
                "velocity": 51,
                "duration": 0.13409090909091503,
                "tempo": 120.0
            },
            {
                "start_time": 86.86590909090908,
                "end_time": 87.0,
                "pitch": 0,
                "velocity": 51,
                "duration": 0.13409090909091503,
                "tempo": 120.0
            },
            {
                "start_time": 86.95,
                "end_time": 87.0,
                "pitch": 55,
                "velocity": 51,
                "duration": 0.04999999999999716,
                "tempo": 120.0
            },
            {
                "start_time": 87.0,
                "end_time": 87.0840909090909,
                "pitch": 55,
                "velocity": 51,
                "duration": 0.08409090909090366,
                "tempo": 120.0
            },
            {
                "start_time": 86.95,
                "end_time": 87.0840909090909,
                "pitch": 67,
                "velocity": 51,
                "duration": 0.13409090909090082,
                "tempo": 120.0
            },
            {
                "start_time": 87.0,
                "end_time": 87.1340909090909,
                "pitch": 0,
                "velocity": 51,
                "duration": 0.13409090909090082,
                "tempo": 120.0
            },
            {
                "start_time": 87.0840909090909,
                "end_time": 87.1340909090909,
                "pitch": 55,
                "velocity": 51,
                "duration": 0.04999999999999716,
                "tempo": 120.0
            },
            {
                "start_time": 87.1340909090909,
                "end_time": 87.21818181818182,
                "pitch": 55,
                "velocity": 51,
                "duration": 0.08409090909091788,
                "tempo": 120.0
            },
            {
                "start_time": 87.0840909090909,
                "end_time": 87.21818181818182,
                "pitch": 67,
                "velocity": 51,
                "duration": 0.13409090909091503,
                "tempo": 120.0
            },
            {
                "start_time": 87.1340909090909,
                "end_time": 87.26590909090909,
                "pitch": 0,
                "velocity": 51,
                "duration": 0.13181818181818983,
                "tempo": 120.0
            },
            {
                "start_time": 87.21818181818182,
                "end_time": 87.26590909090909,
                "pitch": 55,
                "velocity": 51,
                "duration": 0.04772727272727195,
                "tempo": 120.0
            },
            {
                "start_time": 87.26590909090909,
                "end_time": 87.35,
                "pitch": 55,
                "velocity": 51,
                "duration": 0.08409090909090366,
                "tempo": 120.0
            },
            {
                "start_time": 87.21818181818182,
                "end_time": 87.35,
                "pitch": 67,
                "velocity": 51,
                "duration": 0.13181818181817562,
                "tempo": 120.0
            },
            {
                "start_time": 87.26590909090909,
                "end_time": 87.39772727272727,
                "pitch": 0,
                "velocity": 51,
                "duration": 0.13181818181817562,
                "tempo": 120.0
            },
            {
                "start_time": 87.35,
                "end_time": 87.39772727272727,
                "pitch": 55,
                "velocity": 51,
                "duration": 0.04772727272727195,
                "tempo": 120.0
            },
            {
                "start_time": 87.39772727272727,
                "end_time": 87.47954545454544,
                "pitch": 55,
                "velocity": 51,
                "duration": 0.08181818181817846,
                "tempo": 120.0
            },
            {
                "start_time": 87.35,
                "end_time": 87.47954545454544,
                "pitch": 67,
                "velocity": 51,
                "duration": 0.1295454545454504,
                "tempo": 120.0
            },
            {
                "start_time": 87.39772727272727,
                "end_time": 87.52954545454546,
                "pitch": 0,
                "velocity": 51,
                "duration": 0.13181818181818983,
                "tempo": 120.0
            },
            {
                "start_time": 87.47954545454544,
                "end_time": 87.52954545454546,
                "pitch": 55,
                "velocity": 51,
                "duration": 0.05000000000001137,
                "tempo": 120.0
            },
            {
                "start_time": 87.52954545454546,
                "end_time": 87.61136363636363,
                "pitch": 55,
                "velocity": 51,
                "duration": 0.08181818181817846,
                "tempo": 120.0
            },
            {
                "start_time": 87.47954545454544,
                "end_time": 87.61136363636363,
                "pitch": 67,
                "velocity": 51,
                "duration": 0.13181818181818983,
                "tempo": 120.0
            },
            {
                "start_time": 87.52954545454546,
                "end_time": 87.66136363636363,
                "pitch": 0,
                "velocity": 51,
                "duration": 0.13181818181817562,
                "tempo": 120.0
            },
            {
                "start_time": 87.61136363636363,
                "end_time": 87.66136363636363,
                "pitch": 55,
                "velocity": 51,
                "duration": 0.04999999999999716,
                "tempo": 120.0
            },
            {
                "start_time": 87.66136363636363,
                "end_time": 87.74318181818181,
                "pitch": 55,
                "velocity": 51,
                "duration": 0.08181818181817846,
                "tempo": 120.0
            },
            {
                "start_time": 87.61136363636363,
                "end_time": 87.74318181818181,
                "pitch": 67,
                "velocity": 51,
                "duration": 0.13181818181817562,
                "tempo": 120.0
            },
            {
                "start_time": 87.66136363636363,
                "end_time": 87.79545454545455,
                "pitch": 0,
                "velocity": 51,
                "duration": 0.13409090909091503,
                "tempo": 120.0
            },
            {
                "start_time": 87.74318181818181,
                "end_time": 87.79545454545455,
                "pitch": 55,
                "velocity": 51,
                "duration": 0.052272727272736574,
                "tempo": 120.0
            },
            {
                "start_time": 87.79545454545455,
                "end_time": 87.87954545454545,
                "pitch": 55,
                "velocity": 51,
                "duration": 0.08409090909090366,
                "tempo": 120.0
            },
            {
                "start_time": 87.87954545454545,
                "end_time": 87.92954545454545,
                "pitch": 55,
                "velocity": 51,
                "duration": 0.04999999999999716,
                "tempo": 120.0
            },
            {
                "start_time": 87.92954545454545,
                "end_time": 88.12954545454545,
                "pitch": 63,
                "velocity": 51,
                "duration": 0.20000000000000284,
                "tempo": 120.0
            },
            {
                "start_time": 88.13181818181818,
                "end_time": 88.33181818181818,
                "pitch": 62,
                "velocity": 51,
                "duration": 0.20000000000000284,
                "tempo": 120.0
            },
            {
                "start_time": 88.33181818181818,
                "end_time": 88.53181818181818,
                "pitch": 60,
                "velocity": 51,
                "duration": 0.20000000000000284,
                "tempo": 120.0
            },
            {
                "start_time": 88.53181818181818,
                "end_time": 88.73181818181818,
                "pitch": 62,
                "velocity": 51,
                "duration": 0.20000000000000284,
                "tempo": 120.0
            },
            {
                "start_time": 88.73181818181818,
                "end_time": 88.93181818181817,
                "pitch": 65,
                "velocity": 51,
                "duration": 0.19999999999998863,
                "tempo": 120.0
            },
            {
                "start_time": 87.74318181818181,
                "end_time": 89.13181818181818,
                "pitch": 67,
                "velocity": 51,
                "duration": 1.3886363636363654,
                "tempo": 120.0
            },
            {
                "start_time": 88.93181818181817,
                "end_time": 89.13181818181818,
                "pitch": 67,
                "velocity": 51,
                "duration": 0.20000000000000284,
                "tempo": 120.0
            },
            {
                "start_time": 89.13181818181818,
                "end_time": 89.3340909090909,
                "pitch": 69,
                "velocity": 51,
                "duration": 0.20227272727272805,
                "tempo": 120.0
            },
            {
                "start_time": 89.3340909090909,
                "end_time": 89.53636363636363,
                "pitch": 66,
                "velocity": 51,
                "duration": 0.20227272727272805,
                "tempo": 120.0
            },
            {
                "start_time": 89.53636363636363,
                "end_time": 89.73409090909091,
                "pitch": 62,
                "velocity": 51,
                "duration": 0.19772727272727764,
                "tempo": 120.0
            },
            {
                "start_time": 89.73636363636363,
                "end_time": 89.9340909090909,
                "pitch": 60,
                "velocity": 51,
                "duration": 0.19772727272726343,
                "tempo": 120.0
            },
            {
                "start_time": 89.93636363636364,
                "end_time": 90.1340909090909,
                "pitch": 58,
                "velocity": 51,
                "duration": 0.19772727272726343,
                "tempo": 120.0
            },
            {
                "start_time": 90.13636363636363,
                "end_time": 90.3340909090909,
                "pitch": 57,
                "velocity": 51,
                "duration": 0.19772727272727764,
                "tempo": 120.0
            },
            {
                "start_time": 90.3340909090909,
                "end_time": 90.5340909090909,
                "pitch": 58,
                "velocity": 51,
                "duration": 0.20000000000000284,
                "tempo": 120.0
            },
            {
                "start_time": 90.5340909090909,
                "end_time": 90.73409090909091,
                "pitch": 55,
                "velocity": 51,
                "duration": 0.20000000000000284,
                "tempo": 120.0
            },
            {
                "start_time": 90.73409090909091,
                "end_time": 90.92954545454545,
                "pitch": 57,
                "velocity": 51,
                "duration": 0.19545454545453822,
                "tempo": 120.0
            },
            {
                "start_time": 90.93181818181817,
                "end_time": 91.12727272727273,
                "pitch": 67,
                "velocity": 51,
                "duration": 0.19545454545455243,
                "tempo": 120.0
            },
            {
                "start_time": 91.12954545454545,
                "end_time": 91.32727272727273,
                "pitch": 65,
                "velocity": 51,
                "duration": 0.19772727272727764,
                "tempo": 120.0
            },
            {
                "start_time": 91.32727272727273,
                "end_time": 91.52954545454546,
                "pitch": 63,
                "velocity": 51,
                "duration": 0.20227272727272805,
                "tempo": 120.0
            },
            {
                "start_time": 91.52954545454546,
                "end_time": 91.73181818181818,
                "pitch": 62,
                "velocity": 51,
                "duration": 0.20227272727272805,
                "tempo": 120.0
            },
            {
                "start_time": 91.73409090909091,
                "end_time": 91.93636363636364,
                "pitch": 60,
                "velocity": 51,
                "duration": 0.20227272727272805,
                "tempo": 120.0
            },
            {
                "start_time": 91.93636363636364,
                "end_time": 92.13863636363637,
                "pitch": 58,
                "velocity": 51,
                "duration": 0.20227272727272805,
                "tempo": 120.0
            },
            {
                "start_time": 92.13863636363637,
                "end_time": 92.33863636363635,
                "pitch": 57,
                "velocity": 51,
                "duration": 0.19999999999998863,
                "tempo": 120.0
            },
            {
                "start_time": 92.3409090909091,
                "end_time": 92.54090909090908,
                "pitch": 58,
                "velocity": 51,
                "duration": 0.19999999999998863,
                "tempo": 120.0
            },
            {
                "start_time": 92.54318181818181,
                "end_time": 92.73863636363636,
                "pitch": 60,
                "velocity": 51,
                "duration": 0.19545454545455243,
                "tempo": 120.0
            },
            {
                "start_time": 92.73863636363636,
                "end_time": 95.14090909090909,
                "pitch": 62,
                "velocity": 51,
                "duration": 2.402272727272731,
                "tempo": 120.0
            },
            {
                "start_time": 95.14318181818182,
                "end_time": 95.34090909090908,
                "pitch": 62,
                "velocity": 51,
                "duration": 0.19772727272726343,
                "tempo": 120.0
            },
            {
                "start_time": 95.34090909090908,
                "end_time": 95.54090909090908,
                "pitch": 60,
                "velocity": 51,
                "duration": 0.20000000000000284,
                "tempo": 120.0
            },
            {
                "start_time": 95.54090909090908,
                "end_time": 95.73863636363636,
                "pitch": 62,
                "velocity": 51,
                "duration": 0.19772727272727764,
                "tempo": 120.0
            },
            {
                "start_time": 95.73863636363636,
                "end_time": 95.93636363636364,
                "pitch": 55,
                "velocity": 51,
                "duration": 0.19772727272727764,
                "tempo": 120.0
            },
            {
                "start_time": 95.93636363636364,
                "end_time": 96.1340909090909,
                "pitch": 62,
                "velocity": 51,
                "duration": 0.19772727272726343,
                "tempo": 120.0
            },
            {
                "start_time": 96.1340909090909,
                "end_time": 96.3340909090909,
                "pitch": 60,
                "velocity": 51,
                "duration": 0.20000000000000284,
                "tempo": 120.0
            },
            {
                "start_time": 96.3340909090909,
                "end_time": 96.53181818181818,
                "pitch": 62,
                "velocity": 51,
                "duration": 0.19772727272727764,
                "tempo": 120.0
            },
            {
                "start_time": 96.5340909090909,
                "end_time": 96.73181818181818,
                "pitch": 60,
                "velocity": 51,
                "duration": 0.19772727272727764,
                "tempo": 120.0
            },
            {
                "start_time": 96.73409090909091,
                "end_time": 96.9340909090909,
                "pitch": 62,
                "velocity": 51,
                "duration": 0.19999999999998863,
                "tempo": 120.0
            },
            {
                "start_time": 96.9340909090909,
                "end_time": 97.1340909090909,
                "pitch": 55,
                "velocity": 51,
                "duration": 0.20000000000000284,
                "tempo": 120.0
            },
            {
                "start_time": 97.13636363636363,
                "end_time": 97.33636363636363,
                "pitch": 62,
                "velocity": 51,
                "duration": 0.20000000000000284,
                "tempo": 120.0
            },
            {
                "start_time": 97.33863636363635,
                "end_time": 97.53636363636363,
                "pitch": 60,
                "velocity": 51,
                "duration": 0.19772727272727764,
                "tempo": 120.0
            },
            {
                "start_time": 97.53636363636363,
                "end_time": 97.73636363636363,
                "pitch": 69,
                "velocity": 51,
                "duration": 0.20000000000000284,
                "tempo": 120.0
            },
            {
                "start_time": 97.73636363636363,
                "end_time": 97.93636363636364,
                "pitch": 66,
                "velocity": 51,
                "duration": 0.20000000000000284,
                "tempo": 120.0
            },
            {
                "start_time": 97.93636363636364,
                "end_time": 98.1340909090909,
                "pitch": 63,
                "velocity": 51,
                "duration": 0.19772727272726343,
                "tempo": 120.0
            },
            {
                "start_time": 98.13636363636363,
                "end_time": 98.3340909090909,
                "pitch": 62,
                "velocity": 51,
                "duration": 0.19772727272727764,
                "tempo": 120.0
            },
            {
                "start_time": 98.33636363636363,
                "end_time": 98.5340909090909,
                "pitch": 60,
                "velocity": 51,
                "duration": 0.19772727272727764,
                "tempo": 120.0
            },
            {
                "start_time": 98.53636363636363,
                "end_time": 98.73636363636363,
                "pitch": 58,
                "velocity": 51,
                "duration": 0.20000000000000284,
                "tempo": 120.0
            },
            {
                "start_time": 98.73636363636363,
                "end_time": 98.93636363636364,
                "pitch": 57,
                "velocity": 51,
                "duration": 0.20000000000000284,
                "tempo": 120.0
            },
            {
                "start_time": 98.93863636363636,
                "end_time": 99.13863636363637,
                "pitch": 54,
                "velocity": 51,
                "duration": 0.20000000000000284,
                "tempo": 120.0
            },
            {
                "start_time": 99.14090909090909,
                "end_time": 99.33863636363635,
                "pitch": 51,
                "velocity": 51,
                "duration": 0.19772727272726343,
                "tempo": 120.0
            },
            {
                "start_time": 99.33863636363635,
                "end_time": 99.93863636363636,
                "pitch": 50,
                "velocity": 51,
                "duration": 0.6000000000000085,
                "tempo": 120.0
            },
            {
                "start_time": 99.94090909090909,
                "end_time": 100.14090909090909,
                "pitch": 58,
                "velocity": 51,
                "duration": 0.20000000000000284,
                "tempo": 120.0
            },
            {
                "start_time": 100.14090909090909,
                "end_time": 100.34318181818182,
                "pitch": 55,
                "velocity": 51,
                "duration": 0.20227272727272805,
                "tempo": 120.0
            },
            {
                "start_time": 100.34318181818182,
                "end_time": 100.54090909090908,
                "pitch": 57,
                "velocity": 51,
                "duration": 0.19772727272726343,
                "tempo": 120.0
            },
            {
                "start_time": 100.54090909090908,
                "end_time": 100.73863636363636,
                "pitch": 67,
                "velocity": 51,
                "duration": 0.19772727272727764,
                "tempo": 120.0
            },
            {
                "start_time": 100.73863636363636,
                "end_time": 100.93636363636364,
                "pitch": 65,
                "velocity": 51,
                "duration": 0.19772727272727764,
                "tempo": 120.0
            },
            {
                "start_time": 100.93636363636364,
                "end_time": 101.13863636363637,
                "pitch": 63,
                "velocity": 51,
                "duration": 0.20227272727272805,
                "tempo": 120.0
            },
            {
                "start_time": 101.13863636363637,
                "end_time": 101.34090909090908,
                "pitch": 62,
                "velocity": 51,
                "duration": 0.20227272727271384,
                "tempo": 120.0
            },
            {
                "start_time": 101.34318181818182,
                "end_time": 101.54545454545455,
                "pitch": 60,
                "velocity": 51,
                "duration": 0.20227272727272805,
                "tempo": 120.0
            },
            {
                "start_time": 101.54772727272727,
                "end_time": 101.74772727272727,
                "pitch": 58,
                "velocity": 51,
                "duration": 0.20000000000000284,
                "tempo": 120.0
            },
            {
                "start_time": 101.74772727272727,
                "end_time": 101.94999999999999,
                "pitch": 57,
                "velocity": 51,
                "duration": 0.20227272727271384,
                "tempo": 120.0
            },
            {
                "start_time": 101.94999999999999,
                "end_time": 102.14999999999999,
                "pitch": 58,
                "velocity": 51,
                "duration": 0.20000000000000284,
                "tempo": 120.0
            },
            {
                "start_time": 102.15227272727272,
                "end_time": 102.34772727272727,
                "pitch": 60,
                "velocity": 51,
                "duration": 0.19545454545455243,
                "tempo": 120.0
            },
            {
                "start_time": 102.35,
                "end_time": 104.74318181818181,
                "pitch": 62,
                "velocity": 51,
                "duration": 2.393181818181816,
                "tempo": 120.0
            },
            {
                "start_time": 104.74318181818181,
                "end_time": 104.94090909090909,
                "pitch": 62,
                "velocity": 51,
                "duration": 0.19772727272727764,
                "tempo": 120.0
            },
            {
                "start_time": 104.94090909090909,
                "end_time": 105.13863636363637,
                "pitch": 60,
                "velocity": 51,
                "duration": 0.19772727272727764,
                "tempo": 120.0
            },
            {
                "start_time": 105.13863636363637,
                "end_time": 105.33863636363635,
                "pitch": 62,
                "velocity": 51,
                "duration": 0.19999999999998863,
                "tempo": 120.0
            },
            {
                "start_time": 105.34090909090908,
                "end_time": 105.54090909090908,
                "pitch": 55,
                "velocity": 51,
                "duration": 0.20000000000000284,
                "tempo": 120.0
            },
            {
                "start_time": 105.54090909090908,
                "end_time": 105.74318181818181,
                "pitch": 62,
                "velocity": 51,
                "duration": 0.20227272727272805,
                "tempo": 120.0
            },
            {
                "start_time": 105.74318181818181,
                "end_time": 105.94318181818181,
                "pitch": 60,
                "velocity": 51,
                "duration": 0.20000000000000284,
                "tempo": 120.0
            },
            {
                "start_time": 105.94318181818181,
                "end_time": 106.14090909090909,
                "pitch": 62,
                "velocity": 51,
                "duration": 0.19772727272727764,
                "tempo": 120.0
            },
            {
                "start_time": 106.14318181818182,
                "end_time": 106.34090909090908,
                "pitch": 60,
                "velocity": 51,
                "duration": 0.19772727272726343,
                "tempo": 120.0
            },
            {
                "start_time": 106.34318181818182,
                "end_time": 106.54318181818181,
                "pitch": 62,
                "velocity": 51,
                "duration": 0.19999999999998863,
                "tempo": 120.0
            },
            {
                "start_time": 106.54318181818181,
                "end_time": 106.74545454545454,
                "pitch": 55,
                "velocity": 51,
                "duration": 0.20227272727272805,
                "tempo": 120.0
            },
            {
                "start_time": 106.74545454545454,
                "end_time": 106.94772727272726,
                "pitch": 62,
                "velocity": 51,
                "duration": 0.20227272727272805,
                "tempo": 120.0
            },
            {
                "start_time": 106.94772727272726,
                "end_time": 107.14545454545454,
                "pitch": 60,
                "velocity": 51,
                "duration": 0.19772727272727764,
                "tempo": 120.0
            },
            {
                "start_time": 107.14772727272727,
                "end_time": 107.34545454545454,
                "pitch": 69,
                "velocity": 51,
                "duration": 0.19772727272727764,
                "tempo": 120.0
            },
            {
                "start_time": 107.34545454545454,
                "end_time": 107.54545454545455,
                "pitch": 66,
                "velocity": 51,
                "duration": 0.20000000000000284,
                "tempo": 120.0
            },
            {
                "start_time": 107.54545454545455,
                "end_time": 107.74545454545454,
                "pitch": 63,
                "velocity": 51,
                "duration": 0.19999999999998863,
                "tempo": 120.0
            },
            {
                "start_time": 107.74545454545454,
                "end_time": 107.94318181818181,
                "pitch": 62,
                "velocity": 51,
                "duration": 0.19772727272727764,
                "tempo": 120.0
            },
            {
                "start_time": 107.94545454545454,
                "end_time": 108.14318181818182,
                "pitch": 60,
                "velocity": 51,
                "duration": 0.19772727272727764,
                "tempo": 120.0
            },
            {
                "start_time": 108.14545454545454,
                "end_time": 108.34545454545454,
                "pitch": 58,
                "velocity": 51,
                "duration": 0.20000000000000284,
                "tempo": 120.0
            },
            {
                "start_time": 108.34545454545454,
                "end_time": 108.54772727272727,
                "pitch": 57,
                "velocity": 51,
                "duration": 0.20227272727272805,
                "tempo": 120.0
            },
            {
                "start_time": 108.54772727272727,
                "end_time": 108.74772727272726,
                "pitch": 54,
                "velocity": 51,
                "duration": 0.19999999999998863,
                "tempo": 120.0
            },
            {
                "start_time": 108.75,
                "end_time": 108.94772727272726,
                "pitch": 51,
                "velocity": 51,
                "duration": 0.19772727272726343,
                "tempo": 120.0
            },
            {
                "start_time": 108.94772727272726,
                "end_time": 109.14772727272727,
                "pitch": 50,
                "velocity": 51,
                "duration": 0.20000000000000284,
                "tempo": 120.0
            },
            {
                "start_time": 84.81136363636364,
                "end_time": 109.34772727272727,
                "pitch": 48,
                "velocity": 51,
                "duration": 24.53636363636363,
                "tempo": 120.0
            },
            {
                "start_time": 109.14772727272727,
                "end_time": 109.34772727272727,
                "pitch": 48,
                "velocity": 51,
                "duration": 0.20000000000000284,
                "tempo": 120.0
            },
            {
                "start_time": 109.34772727272727,
                "end_time": 109.54772727272727,
                "pitch": 46,
                "velocity": 51,
                "duration": 0.20000000000000284,
                "tempo": 120.0
            },
            {
                "start_time": 109.55,
                "end_time": 110.74545454545454,
                "pitch": 45,
                "velocity": 51,
                "duration": 1.1954545454545382,
                "tempo": 120.0
            },
            {
                "start_time": 110.74772727272726,
                "end_time": 110.94772727272726,
                "pitch": 62,
                "velocity": 51,
                "duration": 0.20000000000000284,
                "tempo": 120.0
            },
            {
                "start_time": 110.94772727272726,
                "end_time": 111.14999999999999,
                "pitch": 63,
                "velocity": 51,
                "duration": 0.20227272727272805,
                "tempo": 120.0
            },
            {
                "start_time": 111.14999999999999,
                "end_time": 111.34772727272727,
                "pitch": 62,
                "velocity": 51,
                "duration": 0.19772727272727764,
                "tempo": 120.0
            },
            {
                "start_time": 111.35,
                "end_time": 111.54772727272727,
                "pitch": 63,
                "velocity": 51,
                "duration": 0.19772727272727764,
                "tempo": 120.0
            },
            {
                "start_time": 111.55,
                "end_time": 111.74772727272726,
                "pitch": 59,
                "velocity": 51,
                "duration": 0.19772727272726343,
                "tempo": 120.0
            },
            {
                "start_time": 111.75,
                "end_time": 111.94999999999999,
                "pitch": 60,
                "velocity": 51,
                "duration": 0.19999999999998863,
                "tempo": 120.0
            },
            {
                "start_time": 111.94999999999999,
                "end_time": 112.14999999999999,
                "pitch": 62,
                "velocity": 51,
                "duration": 0.20000000000000284,
                "tempo": 120.0
            },
            {
                "start_time": 112.15227272727272,
                "end_time": 112.35227272727272,
                "pitch": 55,
                "velocity": 51,
                "duration": 0.20000000000000284,
                "tempo": 120.0
            },
            {
                "start_time": 112.35454545454544,
                "end_time": 112.55227272727272,
                "pitch": 57,
                "velocity": 51,
                "duration": 0.19772727272727764,
                "tempo": 120.0
            },
            {
                "start_time": 112.55227272727272,
                "end_time": 112.75227272727273,
                "pitch": 59,
                "velocity": 51,
                "duration": 0.20000000000000284,
                "tempo": 120.0
            },
            {
                "start_time": 112.75227272727273,
                "end_time": 112.95227272727273,
                "pitch": 60,
                "velocity": 51,
                "duration": 0.20000000000000284,
                "tempo": 120.0
            },
            {
                "start_time": 112.95227272727273,
                "end_time": 113.14999999999999,
                "pitch": 62,
                "velocity": 51,
                "duration": 0.19772727272726343,
                "tempo": 120.0
            },
            {
                "start_time": 113.15227272727272,
                "end_time": 113.35,
                "pitch": 62,
                "velocity": 51,
                "duration": 0.19772727272727764,
                "tempo": 120.0
            },
            {
                "start_time": 113.35227272727272,
                "end_time": 113.55,
                "pitch": 63,
                "velocity": 51,
                "duration": 0.19772727272727764,
                "tempo": 120.0
            },
            {
                "start_time": 113.55227272727272,
                "end_time": 113.75227272727273,
                "pitch": 62,
                "velocity": 51,
                "duration": 0.20000000000000284,
                "tempo": 120.0
            },
            {
                "start_time": 113.75227272727273,
                "end_time": 113.95227272727273,
                "pitch": 63,
                "velocity": 51,
                "duration": 0.20000000000000284,
                "tempo": 120.0
            },
            {
                "start_time": 113.95454545454545,
                "end_time": 114.15454545454546,
                "pitch": 59,
                "velocity": 51,
                "duration": 0.20000000000000284,
                "tempo": 120.0
            },
            {
                "start_time": 114.15681818181818,
                "end_time": 114.35227272727272,
                "pitch": 60,
                "velocity": 51,
                "duration": 0.19545454545453822,
                "tempo": 120.0
            },
            {
                "start_time": 114.35227272727272,
                "end_time": 114.55,
                "pitch": 62,
                "velocity": 51,
                "duration": 0.19772727272727764,
                "tempo": 120.0
            },
            {
                "start_time": 114.55,
                "end_time": 114.74772727272726,
                "pitch": 55,
                "velocity": 51,
                "duration": 0.19772727272726343,
                "tempo": 120.0
            },
            {
                "start_time": 114.74772727272726,
                "end_time": 114.94999999999999,
                "pitch": 57,
                "velocity": 51,
                "duration": 0.20227272727272805,
                "tempo": 120.0
            },
            {
                "start_time": 114.95227272727273,
                "end_time": 115.15454545454544,
                "pitch": 59,
                "velocity": 51,
                "duration": 0.20227272727271384,
                "tempo": 120.0
            },
            {
                "start_time": 115.15454545454544,
                "end_time": 115.35909090909091,
                "pitch": 60,
                "velocity": 51,
                "duration": 0.20454545454546746,
                "tempo": 120.0
            },
            {
                "start_time": 115.35909090909091,
                "end_time": 115.55681818181817,
                "pitch": 62,
                "velocity": 51,
                "duration": 0.19772727272726343,
                "tempo": 120.0
            },
            {
                "start_time": 115.55681818181817,
                "end_time": 115.75454545454545,
                "pitch": 62,
                "velocity": 51,
                "duration": 0.19772727272727764,
                "tempo": 120.0
            },
            {
                "start_time": 115.75454545454545,
                "end_time": 115.95227272727273,
                "pitch": 60,
                "velocity": 51,
                "duration": 0.19772727272727764,
                "tempo": 120.0
            },
            {
                "start_time": 115.95227272727273,
                "end_time": 116.15227272727272,
                "pitch": 62,
                "velocity": 51,
                "duration": 0.19999999999998863,
                "tempo": 120.0
            },
            {
                "start_time": 116.15227272727272,
                "end_time": 116.35454545454544,
                "pitch": 55,
                "velocity": 51,
                "duration": 0.20227272727272805,
                "tempo": 120.0
            },
            {
                "start_time": 116.35454545454544,
                "end_time": 116.55681818181817,
                "pitch": 62,
                "velocity": 51,
                "duration": 0.20227272727272805,
                "tempo": 120.0
            },
            {
                "start_time": 116.55681818181817,
                "end_time": 116.75454545454545,
                "pitch": 60,
                "velocity": 51,
                "duration": 0.19772727272727764,
                "tempo": 120.0
            },
            {
                "start_time": 116.75681818181818,
                "end_time": 116.95454545454545,
                "pitch": 62,
                "velocity": 51,
                "duration": 0.19772727272727764,
                "tempo": 120.0
            },
            {
                "start_time": 116.95454545454545,
                "end_time": 117.15454545454544,
                "pitch": 60,
                "velocity": 51,
                "duration": 0.19999999999998863,
                "tempo": 120.0
            },
            {
                "start_time": 117.15454545454544,
                "end_time": 117.35681818181817,
                "pitch": 62,
                "velocity": 51,
                "duration": 0.20227272727272805,
                "tempo": 120.0
            },
            {
                "start_time": 117.35681818181817,
                "end_time": 117.55681818181817,
                "pitch": 55,
                "velocity": 51,
                "duration": 0.20000000000000284,
                "tempo": 120.0
            },
            {
                "start_time": 117.5590909090909,
                "end_time": 117.7590909090909,
                "pitch": 62,
                "velocity": 51,
                "duration": 0.20000000000000284,
                "tempo": 120.0
            },
            {
                "start_time": 117.7590909090909,
                "end_time": 117.9590909090909,
                "pitch": 60,
                "velocity": 51,
                "duration": 0.20000000000000284,
                "tempo": 120.0
            },
            {
                "start_time": 117.9590909090909,
                "end_time": 118.1590909090909,
                "pitch": 62,
                "velocity": 51,
                "duration": 0.20000000000000284,
                "tempo": 120.0
            },
            {
                "start_time": 118.1590909090909,
                "end_time": 118.35909090909091,
                "pitch": 55,
                "velocity": 51,
                "duration": 0.20000000000000284,
                "tempo": 120.0
            },
            {
                "start_time": 118.35909090909091,
                "end_time": 118.55681818181817,
                "pitch": 57,
                "velocity": 51,
                "duration": 0.19772727272726343,
                "tempo": 120.0
            },
            {
                "start_time": 118.5590909090909,
                "end_time": 118.75681818181818,
                "pitch": 58,
                "velocity": 51,
                "duration": 0.19772727272727764,
                "tempo": 120.0
            },
            {
                "start_time": 118.75681818181818,
                "end_time": 118.95681818181818,
                "pitch": 60,
                "velocity": 51,
                "duration": 0.20000000000000284,
                "tempo": 120.0
            },
            {
                "start_time": 118.95681818181818,
                "end_time": 119.15681818181818,
                "pitch": 62,
                "velocity": 51,
                "duration": 0.20000000000000284,
                "tempo": 120.0
            },
            {
                "start_time": 119.1590909090909,
                "end_time": 119.35909090909091,
                "pitch": 60,
                "velocity": 51,
                "duration": 0.20000000000000284,
                "tempo": 120.0
            },
            {
                "start_time": 119.35909090909091,
                "end_time": 119.56136363636364,
                "pitch": 58,
                "velocity": 51,
                "duration": 0.20227272727272805,
                "tempo": 120.0
            },
            {
                "start_time": 119.56136363636364,
                "end_time": 119.76136363636363,
                "pitch": 57,
                "velocity": 51,
                "duration": 0.19999999999998863,
                "tempo": 120.0
            },
            {
                "start_time": 119.76136363636363,
                "end_time": 119.96136363636363,
                "pitch": 55,
                "velocity": 51,
                "duration": 0.20000000000000284,
                "tempo": 120.0
            },
            {
                "start_time": 119.96136363636363,
                "end_time": 120.16136363636363,
                "pitch": 57,
                "velocity": 51,
                "duration": 0.20000000000000284,
                "tempo": 120.0
            },
            {
                "start_time": 120.16136363636363,
                "end_time": 120.35681818181817,
                "pitch": 53,
                "velocity": 51,
                "duration": 0.19545454545453822,
                "tempo": 120.0
            },
            {
                "start_time": 120.35909090909091,
                "end_time": 120.55454545454545,
                "pitch": 62,
                "velocity": 51,
                "duration": 0.19545454545453822,
                "tempo": 120.0
            },
            {
                "start_time": 120.55681818181817,
                "end_time": 120.75454545454545,
                "pitch": 63,
                "velocity": 51,
                "duration": 0.19772727272727764,
                "tempo": 120.0
            },
            {
                "start_time": 120.75454545454545,
                "end_time": 120.95227272727273,
                "pitch": 62,
                "velocity": 51,
                "duration": 0.19772727272727764,
                "tempo": 120.0
            },
            {
                "start_time": 120.95227272727273,
                "end_time": 121.15227272727272,
                "pitch": 63,
                "velocity": 51,
                "duration": 0.19999999999998863,
                "tempo": 120.0
            },
            {
                "start_time": 121.15227272727272,
                "end_time": 121.35227272727272,
                "pitch": 59,
                "velocity": 51,
                "duration": 0.20000000000000284,
                "tempo": 120.0
            },
            {
                "start_time": 121.35227272727272,
                "end_time": 121.55227272727272,
                "pitch": 60,
                "velocity": 51,
                "duration": 0.20000000000000284,
                "tempo": 120.0
            },
            {
                "start_time": 121.55454545454545,
                "end_time": 121.75454545454545,
                "pitch": 62,
                "velocity": 51,
                "duration": 0.20000000000000284,
                "tempo": 120.0
            },
            {
                "start_time": 121.75454545454545,
                "end_time": 121.95681818181818,
                "pitch": 55,
                "velocity": 51,
                "duration": 0.20227272727272805,
                "tempo": 120.0
            },
            {
                "start_time": 121.95681818181818,
                "end_time": 122.15681818181818,
                "pitch": 57,
                "velocity": 51,
                "duration": 0.20000000000000284,
                "tempo": 120.0
            },
            {
                "start_time": 122.15681818181818,
                "end_time": 122.35454545454544,
                "pitch": 59,
                "velocity": 51,
                "duration": 0.19772727272726343,
                "tempo": 120.0
            },
            {
                "start_time": 122.35681818181817,
                "end_time": 122.55454545454545,
                "pitch": 60,
                "velocity": 51,
                "duration": 0.19772727272727764,
                "tempo": 120.0
            },
            {
                "start_time": 122.55681818181817,
                "end_time": 122.75681818181818,
                "pitch": 62,
                "velocity": 51,
                "duration": 0.20000000000000284,
                "tempo": 120.0
            },
            {
                "start_time": 122.75681818181818,
                "end_time": 122.95681818181818,
                "pitch": 62,
                "velocity": 51,
                "duration": 0.20000000000000284,
                "tempo": 120.0
            },
            {
                "start_time": 122.9590909090909,
                "end_time": 123.1590909090909,
                "pitch": 63,
                "velocity": 51,
                "duration": 0.20000000000000284,
                "tempo": 120.0
            },
            {
                "start_time": 123.16136363636363,
                "end_time": 123.35909090909091,
                "pitch": 62,
                "velocity": 51,
                "duration": 0.19772727272727764,
                "tempo": 120.0
            },
            {
                "start_time": 123.35909090909091,
                "end_time": 123.5590909090909,
                "pitch": 63,
                "velocity": 51,
                "duration": 0.19999999999998863,
                "tempo": 120.0
            },
            {
                "start_time": 123.5590909090909,
                "end_time": 123.7590909090909,
                "pitch": 59,
                "velocity": 51,
                "duration": 0.20000000000000284,
                "tempo": 120.0
            },
            {
                "start_time": 123.7590909090909,
                "end_time": 123.95681818181818,
                "pitch": 60,
                "velocity": 51,
                "duration": 0.19772727272727764,
                "tempo": 120.0
            },
            {
                "start_time": 123.95681818181818,
                "end_time": 124.15454545454544,
                "pitch": 62,
                "velocity": 51,
                "duration": 0.19772727272726343,
                "tempo": 120.0
            },
            {
                "start_time": 124.15454545454544,
                "end_time": 124.35227272727272,
                "pitch": 55,
                "velocity": 51,
                "duration": 0.19772727272727764,
                "tempo": 120.0
            },
            {
                "start_time": 124.35227272727272,
                "end_time": 124.55,
                "pitch": 57,
                "velocity": 51,
                "duration": 0.19772727272727764,
                "tempo": 120.0
            },
            {
                "start_time": 124.55227272727272,
                "end_time": 124.75,
                "pitch": 59,
                "velocity": 51,
                "duration": 0.19772727272727764,
                "tempo": 120.0
            },
            {
                "start_time": 124.75,
                "end_time": 124.94999999999999,
                "pitch": 60,
                "velocity": 51,
                "duration": 0.19999999999998863,
                "tempo": 120.0
            },
            {
                "start_time": 124.94999999999999,
                "end_time": 125.15227272727272,
                "pitch": 62,
                "velocity": 51,
                "duration": 0.20227272727272805,
                "tempo": 120.0
            },
            {
                "start_time": 125.15227272727272,
                "end_time": 125.35227272727272,
                "pitch": 62,
                "velocity": 51,
                "duration": 0.20000000000000284,
                "tempo": 120.0
            },
            {
                "start_time": 125.35454545454544,
                "end_time": 125.55454545454545,
                "pitch": 60,
                "velocity": 51,
                "duration": 0.20000000000000284,
                "tempo": 120.0
            },
            {
                "start_time": 125.55681818181817,
                "end_time": 125.75454545454545,
                "pitch": 62,
                "velocity": 51,
                "duration": 0.19772727272727764,
                "tempo": 120.0
            },
            {
                "start_time": 125.75454545454545,
                "end_time": 125.95454545454545,
                "pitch": 55,
                "velocity": 51,
                "duration": 0.20000000000000284,
                "tempo": 120.0
            },
            {
                "start_time": 125.95454545454545,
                "end_time": 126.15454545454544,
                "pitch": 62,
                "velocity": 51,
                "duration": 0.19999999999998863,
                "tempo": 120.0
            },
            {
                "start_time": 126.15454545454544,
                "end_time": 126.35227272727272,
                "pitch": 60,
                "velocity": 51,
                "duration": 0.19772727272727764,
                "tempo": 120.0
            },
            {
                "start_time": 126.35454545454544,
                "end_time": 126.55227272727272,
                "pitch": 62,
                "velocity": 51,
                "duration": 0.19772727272727764,
                "tempo": 120.0
            },
            {
                "start_time": 126.55227272727272,
                "end_time": 126.75227272727273,
                "pitch": 60,
                "velocity": 51,
                "duration": 0.20000000000000284,
                "tempo": 120.0
            },
            {
                "start_time": 126.75227272727273,
                "end_time": 126.95454545454545,
                "pitch": 62,
                "velocity": 51,
                "duration": 0.20227272727272805,
                "tempo": 120.0
            },
            {
                "start_time": 126.95454545454545,
                "end_time": 127.15454545454544,
                "pitch": 55,
                "velocity": 51,
                "duration": 0.19999999999998863,
                "tempo": 120.0
            },
            {
                "start_time": 127.15681818181818,
                "end_time": 127.35681818181817,
                "pitch": 62,
                "velocity": 51,
                "duration": 0.19999999999998863,
                "tempo": 120.0
            },
            {
                "start_time": 127.35681818181817,
                "end_time": 127.55681818181817,
                "pitch": 60,
                "velocity": 51,
                "duration": 0.20000000000000284,
                "tempo": 120.0
            },
            {
                "start_time": 127.55681818181817,
                "end_time": 127.75681818181818,
                "pitch": 62,
                "velocity": 51,
                "duration": 0.20000000000000284,
                "tempo": 120.0
            },
            {
                "start_time": 127.75681818181818,
                "end_time": 127.95681818181818,
                "pitch": 55,
                "velocity": 51,
                "duration": 0.20000000000000284,
                "tempo": 120.0
            },
            {
                "start_time": 127.95681818181818,
                "end_time": 128.15681818181818,
                "pitch": 57,
                "velocity": 51,
                "duration": 0.20000000000000284,
                "tempo": 120.0
            },
            {
                "start_time": 128.15681818181818,
                "end_time": 128.3590909090909,
                "pitch": 58,
                "velocity": 51,
                "duration": 0.20227272727271384,
                "tempo": 120.0
            },
            {
                "start_time": 128.3590909090909,
                "end_time": 128.56136363636364,
                "pitch": 60,
                "velocity": 51,
                "duration": 0.20227272727274226,
                "tempo": 120.0
            },
            {
                "start_time": 128.56136363636364,
                "end_time": 128.7590909090909,
                "pitch": 62,
                "velocity": 51,
                "duration": 0.19772727272726343,
                "tempo": 120.0
            },
            {
                "start_time": 128.76136363636363,
                "end_time": 128.9590909090909,
                "pitch": 60,
                "velocity": 51,
                "duration": 0.19772727272726343,
                "tempo": 120.0
            },
            {
                "start_time": 128.9590909090909,
                "end_time": 129.1590909090909,
                "pitch": 58,
                "velocity": 51,
                "duration": 0.20000000000001705,
                "tempo": 120.0
            },
            {
                "start_time": 129.1590909090909,
                "end_time": 129.3590909090909,
                "pitch": 57,
                "velocity": 51,
                "duration": 0.19999999999998863,
                "tempo": 120.0
            },
            {
                "start_time": 129.3590909090909,
                "end_time": 129.5590909090909,
                "pitch": 55,
                "velocity": 51,
                "duration": 0.20000000000001705,
                "tempo": 120.0
            },
            {
                "start_time": 129.5590909090909,
                "end_time": 129.7590909090909,
                "pitch": 57,
                "velocity": 51,
                "duration": 0.19999999999998863,
                "tempo": 120.0
            },
            {
                "start_time": 129.7590909090909,
                "end_time": 129.95454545454544,
                "pitch": 53,
                "velocity": 51,
                "duration": 0.19545454545453822,
                "tempo": 120.0
            },
            {
                "start_time": 129.95681818181816,
                "end_time": 130.1681818181818,
                "pitch": 53,
                "velocity": 51,
                "duration": 0.21136363636364308,
                "tempo": 120.0
            },
            {
                "start_time": 130.17045454545453,
                "end_time": 130.4,
                "pitch": 62,
                "velocity": 51,
                "duration": 0.22954545454547315,
                "tempo": 120.0
            },
            {
                "start_time": 130.4,
                "end_time": 130.63181818181818,
                "pitch": 60,
                "velocity": 51,
                "duration": 0.23181818181816993,
                "tempo": 120.0
            },
            {
                "start_time": 130.6340909090909,
                "end_time": 130.86818181818182,
                "pitch": 62,
                "velocity": 51,
                "duration": 0.23409090909092356,
                "tempo": 120.0
            },
            {
                "start_time": 130.86818181818182,
                "end_time": 131.10227272727272,
                "pitch": 55,
                "velocity": 51,
                "duration": 0.23409090909089514,
                "tempo": 120.0
            },
            {
                "start_time": 131.10227272727272,
                "end_time": 131.12045454545455,
                "pitch": 55,
                "velocity": 51,
                "duration": 0.018181818181830067,
                "tempo": 120.0
            },
            {
                "start_time": 131.12272727272727,
                "end_time": 131.36590909090907,
                "pitch": 62,
                "velocity": 51,
                "duration": 0.24318181818179596,
                "tempo": 120.0
            },
            {
                "start_time": 131.36590909090907,
                "end_time": 131.61136363636362,
                "pitch": 60,
                "velocity": 51,
                "duration": 0.2454545454545496,
                "tempo": 120.0
            },
            {
                "start_time": 131.61136363636362,
                "end_time": 131.62954545454545,
                "pitch": 60,
                "velocity": 51,
                "duration": 0.018181818181830067,
                "tempo": 120.0
            },
            {
                "start_time": 131.62954545454545,
                "end_time": 131.76136363636363,
                "pitch": 60,
                "velocity": 51,
                "duration": 0.13181818181817562,
                "tempo": 120.0
            },
            {
                "start_time": 131.76363636363635,
                "end_time": 131.8931818181818,
                "pitch": 62,
                "velocity": 51,
                "duration": 0.1295454545454504,
                "tempo": 120.0
            },
            {
                "start_time": 131.89545454545453,
                "end_time": 132.12954545454545,
                "pitch": 67,
                "velocity": 51,
                "duration": 0.23409090909092356,
                "tempo": 120.0
            },
            {
                "start_time": 132.12954545454545,
                "end_time": 132.275,
                "pitch": 67,
                "velocity": 51,
                "duration": 0.14545454545455527,
                "tempo": 120.0
            },
            {
                "start_time": 132.12954545454545,
                "end_time": 132.275,
                "pitch": 79,
                "velocity": 51,
                "duration": 0.14545454545455527,
                "tempo": 120.0
            },
            {
                "start_time": 132.275,
                "end_time": 132.4181818181818,
                "pitch": 67,
                "velocity": 51,
                "duration": 0.14318181818180165,
                "tempo": 120.0
            },
            {
                "start_time": 132.275,
                "end_time": 132.4181818181818,
                "pitch": 79,
                "velocity": 51,
                "duration": 0.14318181818180165,
                "tempo": 120.0
            },
            {
                "start_time": 132.4181818181818,
                "end_time": 132.56363636363636,
                "pitch": 67,
                "velocity": 51,
                "duration": 0.14545454545455527,
                "tempo": 120.0
            },
            {
                "start_time": 132.4181818181818,
                "end_time": 132.56363636363636,
                "pitch": 79,
                "velocity": 51,
                "duration": 0.14545454545455527,
                "tempo": 120.0
            },
            {
                "start_time": 132.56363636363636,
                "end_time": 132.7022727272727,
                "pitch": 67,
                "velocity": 51,
                "duration": 0.13863636363635123,
                "tempo": 120.0
            },
            {
                "start_time": 132.56363636363636,
                "end_time": 132.7022727272727,
                "pitch": 79,
                "velocity": 51,
                "duration": 0.13863636363635123,
                "tempo": 120.0
            },
            {
                "start_time": 132.7022727272727,
                "end_time": 132.8409090909091,
                "pitch": 67,
                "velocity": 51,
                "duration": 0.13863636363637966,
                "tempo": 120.0
            },
            {
                "start_time": 132.8409090909091,
                "end_time": 132.97954545454544,
                "pitch": 67,
                "velocity": 51,
                "duration": 0.13863636363635123,
                "tempo": 120.0
            },
            {
                "start_time": 132.7022727272727,
                "end_time": 132.97954545454544,
                "pitch": 79,
                "velocity": 51,
                "duration": 0.2772727272727309,
                "tempo": 120.0
            },
            {
                "start_time": 132.97954545454544,
                "end_time": 133.11818181818182,
                "pitch": 67,
                "velocity": 51,
                "duration": 0.13863636363637966,
                "tempo": 120.0
            },
            {
                "start_time": 132.97954545454544,
                "end_time": 133.11818181818182,
                "pitch": 79,
                "velocity": 51,
                "duration": 0.13863636363637966,
                "tempo": 120.0
            },
            {
                "start_time": 133.11818181818182,
                "end_time": 133.25681818181818,
                "pitch": 67,
                "velocity": 51,
                "duration": 0.13863636363635123,
                "tempo": 120.0
            },
            {
                "start_time": 133.11818181818182,
                "end_time": 133.25681818181818,
                "pitch": 79,
                "velocity": 51,
                "duration": 0.13863636363635123,
                "tempo": 120.0
            },
            {
                "start_time": 133.25681818181818,
                "end_time": 133.40454545454546,
                "pitch": 67,
                "velocity": 51,
                "duration": 0.14772727272728048,
                "tempo": 120.0
            }
        ]
    }
}