{
    "track_id": "16 Again (Game Over)",
    "mood": "relaxed",
    "instruments": {
        "Vibraphone": [
            {
                "start_time": 0.13636363636363635,
                "end_time": 0.5045454545454545,
                "pitch": 84,
                "velocity": 64,
                "duration": 0.36818181818181817,
                "tempo": 120.0
            },
            {
                "start_time": 0.5045454545454545,
                "end_time": 0.8704545454545454,
                "pitch": 84,
                "velocity": 64,
                "duration": 0.36590909090909085,
                "tempo": 120.0
            },
            {
                "start_time": 0.8704545454545454,
                "end_time": 1.2931818181818182,
                "pitch": 78,
                "velocity": 64,
                "duration": 0.42272727272727284,
                "tempo": 120.0
            },
            {
                "start_time": 1.2931818181818182,
                "end_time": 1.6954545454545453,
                "pitch": 81,
                "velocity": 64,
                "duration": 0.4022727272727271,
                "tempo": 120.0
            },
            {
                "start_time": 1.6954545454545453,
                "end_time": 1.7136363636363636,
                "pitch": 79,
                "velocity": 64,
                "duration": 0.0181818181818183,
                "tempo": 120.0
            },
            {
                "start_time": 1.7136363636363636,
                "end_time": 1.7477272727272726,
                "pitch": 79,
                "velocity": 64,
                "duration": 0.03409090909090895,
                "tempo": 120.0
            },
            {
                "start_time": 1.7477272727272726,
                "end_time": 1.8568181818181817,
                "pitch": 79,
                "velocity": 64,
                "duration": 0.10909090909090913,
                "tempo": 120.0
            },
            {
                "start_time": 1.8568181818181817,
                "end_time": 1.8909090909090909,
                "pitch": 79,
                "velocity": 64,
                "duration": 0.03409090909090917,
                "tempo": 120.0
            },
            {
                "start_time": 1.8568181818181817,
                "end_time": 2.0,
                "pitch": 0,
                "velocity": 64,
                "duration": 0.1431818181818183,
                "tempo": 120.0
            },
            {
                "start_time": 1.8909090909090909,
                "end_time": 2.0,
                "pitch": 79,
                "velocity": 64,
                "duration": 0.10909090909090913,
                "tempo": 120.0
            },
            {
                "start_time": 2.0,
                "end_time": 2.036363636363636,
                "pitch": 79,
                "velocity": 64,
                "duration": 0.036363636363636154,
                "tempo": 120.0
            },
            {
                "start_time": 2.036363636363636,
                "end_time": 2.106818181818182,
                "pitch": 79,
                "velocity": 64,
                "duration": 0.07045454545454577,
                "tempo": 120.0
            }
        ],
        "Flute": [
            {
                "start_time": 2.377272727272727,
                "end_time": 3.7295454545454545,
                "pitch": 55,
                "velocity": 80,
                "duration": 1.3522727272727275,
                "tempo": 120.0
            },
            {
                "start_time": 3.7295454545454545,
                "end_time": 4.390909090909091,
                "pitch": 48,
                "velocity": 80,
                "duration": 0.6613636363636362,
                "tempo": 120.0
            },
            {
                "start_time": 4.390909090909091,
                "end_time": 5.040909090909091,
                "pitch": 52,
                "velocity": 80,
                "duration": 0.6500000000000004,
                "tempo": 120.0
            },
            {
                "start_time": 5.040909090909091,
                "end_time": 6.3159090909090905,
                "pitch": 54,
                "velocity": 80,
                "duration": 1.2749999999999995,
                "tempo": 120.0
            },
            {
                "start_time": 6.3159090909090905,
                "end_time": 7.597727272727273,
                "pitch": 50,
                "velocity": 80,
                "duration": 1.2818181818181822,
                "tempo": 120.0
            },
            {
                "start_time": 5.040909090909091,
                "end_time": 8.893181818181818,
                "pitch": 52,
                "velocity": 80,
                "duration": 3.8522727272727266,
                "tempo": 120.0
            },
            {
                "start_time": 7.597727272727273,
                "end_time": 8.893181818181818,
                "pitch": 52,
                "velocity": 80,
                "duration": 1.295454545454545,
                "tempo": 120.0
            },
            {
                "start_time": 8.893181818181818,
                "end_time": 9.218181818181817,
                "pitch": 45,
                "velocity": 80,
                "duration": 0.3249999999999993,
                "tempo": 120.0
            },
            {
                "start_time": 9.218181818181817,
                "end_time": 9.545454545454545,
                "pitch": 48,
                "velocity": 80,
                "duration": 0.32727272727272805,
                "tempo": 120.0
            },
            {
                "start_time": 9.545454545454545,
                "end_time": 9.86590909090909,
                "pitch": 52,
                "velocity": 80,
                "duration": 0.3204545454545453,
                "tempo": 120.0
            },
            {
                "start_time": 9.86590909090909,
                "end_time": 10.188636363636363,
                "pitch": 59,
                "velocity": 80,
                "duration": 0.3227272727272723,
                "tempo": 120.0
            },
            {
                "start_time": 7.597727272727273,
                "end_time": 11.463636363636363,
                "pitch": 50,
                "velocity": 80,
                "duration": 3.8659090909090903,
                "tempo": 120.0
            },
            {
                "start_time": 10.188636363636363,
                "end_time": 11.463636363636363,
                "pitch": 50,
                "velocity": 80,
                "duration": 1.2750000000000004,
                "tempo": 120.0
            },
            {
                "start_time": 11.463636363636363,
                "end_time": 12.759090909090908,
                "pitch": 47,
                "velocity": 80,
                "duration": 1.295454545454545,
                "tempo": 120.0
            },
            {
                "start_time": 3.7295454545454545,
                "end_time": 15.593181818181817,
                "pitch": 43,
                "velocity": 80,
                "duration": 11.863636363636363,
                "tempo": 120.0
            },
            {
                "start_time": 12.759090909090908,
                "end_time": 15.593181818181817,
                "pitch": 55,
                "velocity": 80,
                "duration": 2.834090909090909,
                "tempo": 120.0
            },
            {
                "start_time": 6.3159090909090905,
                "end_time": 18.8,
                "pitch": 54,
                "velocity": 80,
                "duration": 12.48409090909091,
                "tempo": 120.0
            },
            {
                "start_time": 15.593181818181817,
                "end_time": 18.8,
                "pitch": 54,
                "velocity": 80,
                "duration": 3.206818181818184,
                "tempo": 120.0
            }
        ],
        "Acoustic Bass": [
            {
                "start_time": 2.377272727272727,
                "end_time": 2.4477272727272728,
                "pitch": 55,
                "velocity": 101,
                "duration": 0.07045454545454577,
                "tempo": 120.0
            },
            {
                "start_time": 2.4477272727272728,
                "end_time": 2.518181818181818,
                "pitch": 55,
                "velocity": 101,
                "duration": 0.07045454545454533,
                "tempo": 120.0
            },
            {
                "start_time": 2.377272727272727,
                "end_time": 2.5204545454545455,
                "pitch": 0,
                "velocity": 101,
                "duration": 0.14318181818181852,
                "tempo": 120.0
            },
            {
                "start_time": 2.518181818181818,
                "end_time": 2.5204545454545455,
                "pitch": 0,
                "velocity": 101,
                "duration": 0.002272727272727426,
                "tempo": 120.0
            },
            {
                "start_time": 2.5204545454545455,
                "end_time": 2.590909090909091,
                "pitch": 55,
                "velocity": 101,
                "duration": 0.07045454545454533,
                "tempo": 120.0
            },
            {
                "start_time": 2.590909090909091,
                "end_time": 2.661363636363636,
                "pitch": 55,
                "velocity": 101,
                "duration": 0.07045454545454533,
                "tempo": 120.0
            },
            {
                "start_time": 2.661363636363636,
                "end_time": 2.734090909090909,
                "pitch": 55,
                "velocity": 101,
                "duration": 0.07272727272727275,
                "tempo": 120.0
            },
            {
                "start_time": 2.734090909090909,
                "end_time": 2.8068181818181817,
                "pitch": 55,
                "velocity": 101,
                "duration": 0.07272727272727275,
                "tempo": 120.0
            },
            {
                "start_time": 2.8068181818181817,
                "end_time": 2.877272727272727,
                "pitch": 55,
                "velocity": 101,
                "duration": 0.07045454545454533,
                "tempo": 120.0
            },
            {
                "start_time": 2.4477272727272728,
                "end_time": 2.877272727272727,
                "pitch": 67,
                "velocity": 101,
                "duration": 0.42954545454545423,
                "tempo": 120.0
            },
            {
                "start_time": 2.661363636363636,
                "end_time": 2.9499999999999997,
                "pitch": 0,
                "velocity": 101,
                "duration": 0.2886363636363636,
                "tempo": 120.0
            },
            {
                "start_time": 2.877272727272727,
                "end_time": 2.9499999999999997,
                "pitch": 55,
                "velocity": 101,
                "duration": 0.07272727272727275,
                "tempo": 120.0
            },
            {
                "start_time": 2.9499999999999997,
                "end_time": 3.0204545454545455,
                "pitch": 55,
                "velocity": 101,
                "duration": 0.07045454545454577,
                "tempo": 120.0
            },
            {
                "start_time": 2.877272727272727,
                "end_time": 3.0204545454545455,
                "pitch": 67,
                "velocity": 101,
                "duration": 0.14318181818181852,
                "tempo": 120.0
            },
            {
                "start_time": 3.0204545454545455,
                "end_time": 3.093181818181818,
                "pitch": 55,
                "velocity": 101,
                "duration": 0.07272727272727231,
                "tempo": 120.0
            },
            {
                "start_time": 3.093181818181818,
                "end_time": 3.1568181818181817,
                "pitch": 55,
                "velocity": 101,
                "duration": 0.06363636363636394,
                "tempo": 120.0
            },
            {
                "start_time": 3.1568181818181817,
                "end_time": 3.2204545454545452,
                "pitch": 55,
                "velocity": 101,
                "duration": 0.06363636363636349,
                "tempo": 120.0
            },
            {
                "start_time": 3.2204545454545452,
                "end_time": 3.2840909090909087,
                "pitch": 55,
                "velocity": 101,
                "duration": 0.06363636363636349,
                "tempo": 120.0
            },
            {
                "start_time": 3.0204545454545455,
                "end_time": 3.2840909090909087,
                "pitch": 67,
                "velocity": 101,
                "duration": 0.2636363636363632,
                "tempo": 120.0
            },
            {
                "start_time": 2.9499999999999997,
                "end_time": 3.3477272727272727,
                "pitch": 0,
                "velocity": 101,
                "duration": 0.39772727272727293,
                "tempo": 120.0
            },
            {
                "start_time": 3.2840909090909087,
                "end_time": 3.3477272727272727,
                "pitch": 55,
                "velocity": 101,
                "duration": 0.06363636363636394,
                "tempo": 120.0
            },
            {
                "start_time": 3.3477272727272727,
                "end_time": 3.411363636363636,
                "pitch": 55,
                "velocity": 101,
                "duration": 0.06363636363636349,
                "tempo": 120.0
            },
            {
                "start_time": 3.2840909090909087,
                "end_time": 3.411363636363636,
                "pitch": 67,
                "velocity": 101,
                "duration": 0.12727272727272743,
                "tempo": 120.0
            },
            {
                "start_time": 3.3477272727272727,
                "end_time": 3.4749999999999996,
                "pitch": 0,
                "velocity": 101,
                "duration": 0.12727272727272698,
                "tempo": 120.0
            },
            {
                "start_time": 3.411363636363636,
                "end_time": 3.4749999999999996,
                "pitch": 55,
                "velocity": 101,
                "duration": 0.06363636363636349,
                "tempo": 120.0
            },
            {
                "start_time": 3.4749999999999996,
                "end_time": 3.5386363636363636,
                "pitch": 55,
                "velocity": 101,
                "duration": 0.06363636363636394,
                "tempo": 120.0
            },
            {
                "start_time": 3.411363636363636,
                "end_time": 3.5386363636363636,
                "pitch": 67,
                "velocity": 101,
                "duration": 0.12727272727272743,
                "tempo": 120.0
            },
            {
                "start_time": 3.5386363636363636,
                "end_time": 3.602272727272727,
                "pitch": 55,
                "velocity": 101,
                "duration": 0.06363636363636349,
                "tempo": 120.0
            },
            {
                "start_time": 3.602272727272727,
                "end_time": 3.6659090909090906,
                "pitch": 55,
                "velocity": 101,
                "duration": 0.06363636363636349,
                "tempo": 120.0
            },
            {
                "start_time": 3.5386363636363636,
                "end_time": 3.6659090909090906,
                "pitch": 67,
                "velocity": 101,
                "duration": 0.12727272727272698,
                "tempo": 120.0
            },
            {
                "start_time": 3.6659090909090906,
                "end_time": 3.7295454545454545,
                "pitch": 55,
                "velocity": 101,
                "duration": 0.06363636363636394,
                "tempo": 120.0
            },
            {
                "start_time": 3.7295454545454545,
                "end_time": 4.390909090909091,
                "pitch": 48,
                "velocity": 101,
                "duration": 0.6613636363636362,
                "tempo": 120.0
            },
            {
                "start_time": 4.390909090909091,
                "end_time": 5.040909090909091,
                "pitch": 52,
                "velocity": 101,
                "duration": 0.6500000000000004,
                "tempo": 120.0
            },
            {
                "start_time": 5.040909090909091,
                "end_time": 5.1045454545454545,
                "pitch": 52,
                "velocity": 101,
                "duration": 0.06363636363636349,
                "tempo": 120.0
            },
            {
                "start_time": 5.1045454545454545,
                "end_time": 6.3159090909090905,
                "pitch": 54,
                "velocity": 101,
                "duration": 1.211363636363636,
                "tempo": 120.0
            },
            {
                "start_time": 6.3159090909090905,
                "end_time": 7.597727272727273,
                "pitch": 50,
                "velocity": 101,
                "duration": 1.2818181818181822,
                "tempo": 120.0
            },
            {
                "start_time": 7.597727272727273,
                "end_time": 8.893181818181818,
                "pitch": 52,
                "velocity": 101,
                "duration": 1.295454545454545,
                "tempo": 120.0
            },
            {
                "start_time": 8.893181818181818,
                "end_time": 9.218181818181817,
                "pitch": 45,
                "velocity": 101,
                "duration": 0.3249999999999993,
                "tempo": 120.0
            },
            {
                "start_time": 4.390909090909091,
                "end_time": 9.545454545454545,
                "pitch": 48,
                "velocity": 101,
                "duration": 5.154545454545454,
                "tempo": 120.0
            },
            {
                "start_time": 9.218181818181817,
                "end_time": 9.545454545454545,
                "pitch": 48,
                "velocity": 101,
                "duration": 0.32727272727272805,
                "tempo": 120.0
            },
            {
                "start_time": 8.893181818181818,
                "end_time": 9.86590909090909,
                "pitch": 52,
                "velocity": 101,
                "duration": 0.9727272727272727,
                "tempo": 120.0
            },
            {
                "start_time": 9.545454545454545,
                "end_time": 9.86590909090909,
                "pitch": 52,
                "velocity": 101,
                "duration": 0.3204545454545453,
                "tempo": 120.0
            },
            {
                "start_time": 9.86590909090909,
                "end_time": 10.188636363636363,
                "pitch": 59,
                "velocity": 101,
                "duration": 0.3227272727272723,
                "tempo": 120.0
            },
            {
                "start_time": 7.597727272727273,
                "end_time": 11.463636363636363,
                "pitch": 50,
                "velocity": 101,
                "duration": 3.8659090909090903,
                "tempo": 120.0
            },
            {
                "start_time": 10.188636363636363,
                "end_time": 11.463636363636363,
                "pitch": 50,
                "velocity": 101,
                "duration": 1.2750000000000004,
                "tempo": 120.0
            },
            {
                "start_time": 10.188636363636363,
                "end_time": 12.759090909090908,
                "pitch": 47,
                "velocity": 101,
                "duration": 2.5704545454545453,
                "tempo": 120.0
            },
            {
                "start_time": 11.463636363636363,
                "end_time": 12.759090909090908,
                "pitch": 47,
                "velocity": 101,
                "duration": 1.295454545454545,
                "tempo": 120.0
            },
            {
                "start_time": 12.759090909090908,
                "end_time": 12.825,
                "pitch": 55,
                "velocity": 101,
                "duration": 0.06590909090909136,
                "tempo": 120.0
            },
            {
                "start_time": 3.6659090909090906,
                "end_time": 12.825,
                "pitch": 67,
                "velocity": 101,
                "duration": 9.159090909090908,
                "tempo": 120.0
            },
            {
                "start_time": 12.825,
                "end_time": 12.888636363636364,
                "pitch": 55,
                "velocity": 101,
                "duration": 0.06363636363636438,
                "tempo": 120.0
            },
            {
                "start_time": 12.888636363636364,
                "end_time": 12.954545454545453,
                "pitch": 55,
                "velocity": 101,
                "duration": 0.06590909090908958,
                "tempo": 120.0
            },
            {
                "start_time": 3.4749999999999996,
                "end_time": 13.020454545454545,
                "pitch": 0,
                "velocity": 101,
                "duration": 9.545454545454545,
                "tempo": 120.0
            },
            {
                "start_time": 12.954545454545453,
                "end_time": 13.020454545454545,
                "pitch": 55,
                "velocity": 101,
                "duration": 0.06590909090909136,
                "tempo": 120.0
            },
            {
                "start_time": 13.020454545454545,
                "end_time": 13.084090909090909,
                "pitch": 55,
                "velocity": 101,
                "duration": 0.06363636363636438,
                "tempo": 120.0
            },
            {
                "start_time": 12.825,
                "end_time": 13.084090909090909,
                "pitch": 67,
                "velocity": 101,
                "duration": 0.2590909090909097,
                "tempo": 120.0
            },
            {
                "start_time": 13.020454545454545,
                "end_time": 13.149999999999999,
                "pitch": 0,
                "velocity": 101,
                "duration": 0.12954545454545396,
                "tempo": 120.0
            },
            {
                "start_time": 13.084090909090909,
                "end_time": 13.149999999999999,
                "pitch": 55,
                "velocity": 101,
                "duration": 0.06590909090908958,
                "tempo": 120.0
            },
            {
                "start_time": 13.149999999999999,
                "end_time": 13.21590909090909,
                "pitch": 55,
                "velocity": 101,
                "duration": 0.06590909090909136,
                "tempo": 120.0
            },
            {
                "start_time": 13.084090909090909,
                "end_time": 13.21590909090909,
                "pitch": 67,
                "velocity": 101,
                "duration": 0.13181818181818095,
                "tempo": 120.0
            },
            {
                "start_time": 13.149999999999999,
                "end_time": 13.279545454545454,
                "pitch": 0,
                "velocity": 101,
                "duration": 0.12954545454545574,
                "tempo": 120.0
            },
            {
                "start_time": 13.21590909090909,
                "end_time": 13.279545454545454,
                "pitch": 55,
                "velocity": 101,
                "duration": 0.06363636363636438,
                "tempo": 120.0
            },
            {
                "start_time": 13.279545454545454,
                "end_time": 13.345454545454546,
                "pitch": 55,
                "velocity": 101,
                "duration": 0.06590909090909136,
                "tempo": 120.0
            },
            {
                "start_time": 13.345454545454546,
                "end_time": 13.411363636363635,
                "pitch": 55,
                "velocity": 101,
                "duration": 0.06590909090908958,
                "tempo": 120.0
            },
            {
                "start_time": 13.411363636363635,
                "end_time": 13.477272727272727,
                "pitch": 55,
                "velocity": 101,
                "duration": 0.06590909090909136,
                "tempo": 120.0
            },
            {
                "start_time": 13.279545454545454,
                "end_time": 13.543181818181818,
                "pitch": 0,
                "velocity": 101,
                "duration": 0.26363636363636367,
                "tempo": 120.0
            },
            {
                "start_time": 13.477272727272727,
                "end_time": 13.543181818181818,
                "pitch": 55,
                "velocity": 101,
                "duration": 0.06590909090909136,
                "tempo": 120.0
            },
            {
                "start_time": 13.543181818181818,
                "end_time": 13.611363636363636,
                "pitch": 55,
                "velocity": 101,
                "duration": 0.06818181818181834,
                "tempo": 120.0
            },
            {
                "start_time": 13.21590909090909,
                "end_time": 13.611363636363636,
                "pitch": 67,
                "velocity": 101,
                "duration": 0.3954545454545464,
                "tempo": 120.0
            },
            {
                "start_time": 13.611363636363636,
                "end_time": 13.679545454545455,
                "pitch": 55,
                "velocity": 101,
                "duration": 0.06818181818181834,
                "tempo": 120.0
            },
            {
                "start_time": 13.679545454545455,
                "end_time": 13.745454545454544,
                "pitch": 55,
                "velocity": 101,
                "duration": 0.06590909090908958,
                "tempo": 120.0
            },
            {
                "start_time": 13.611363636363636,
                "end_time": 13.747727272727271,
                "pitch": 67,
                "velocity": 101,
                "duration": 0.1363636363636349,
                "tempo": 120.0
            },
            {
                "start_time": 13.745454545454544,
                "end_time": 13.747727272727271,
                "pitch": 67,
                "velocity": 101,
                "duration": 0.002272727272726982,
                "tempo": 120.0
            },
            {
                "start_time": 13.543181818181818,
                "end_time": 13.813636363636363,
                "pitch": 0,
                "velocity": 101,
                "duration": 0.2704545454545446,
                "tempo": 120.0
            },
            {
                "start_time": 13.747727272727271,
                "end_time": 13.813636363636363,
                "pitch": 55,
                "velocity": 101,
                "duration": 0.06590909090909136,
                "tempo": 120.0
            },
            {
                "start_time": 13.813636363636363,
                "end_time": 13.881818181818181,
                "pitch": 55,
                "velocity": 101,
                "duration": 0.06818181818181834,
                "tempo": 120.0
            },
            {
                "start_time": 13.813636363636363,
                "end_time": 13.95,
                "pitch": 0,
                "velocity": 101,
                "duration": 0.1363636363636367,
                "tempo": 120.0
            },
            {
                "start_time": 13.881818181818181,
                "end_time": 13.95,
                "pitch": 55,
                "velocity": 101,
                "duration": 0.06818181818181834,
                "tempo": 120.0
            },
            {
                "start_time": 13.95,
                "end_time": 14.01590909090909,
                "pitch": 55,
                "velocity": 101,
                "duration": 0.06590909090909136,
                "tempo": 120.0
            },
            {
                "start_time": 13.95,
                "end_time": 14.084090909090909,
                "pitch": 0,
                "velocity": 101,
                "duration": 0.1340909090909097,
                "tempo": 120.0
            },
            {
                "start_time": 14.01590909090909,
                "end_time": 14.084090909090909,
                "pitch": 55,
                "velocity": 101,
                "duration": 0.06818181818181834,
                "tempo": 120.0
            },
            {
                "start_time": 14.084090909090909,
                "end_time": 14.152272727272727,
                "pitch": 55,
                "velocity": 101,
                "duration": 0.06818181818181834,
                "tempo": 120.0
            },
            {
                "start_time": 13.881818181818181,
                "end_time": 14.152272727272727,
                "pitch": 67,
                "velocity": 101,
                "duration": 0.2704545454545464,
                "tempo": 120.0
            },
            {
                "start_time": 14.152272727272727,
                "end_time": 14.218181818181817,
                "pitch": 55,
                "velocity": 101,
                "duration": 0.06590909090908958,
                "tempo": 120.0
            },
            {
                "start_time": 14.218181818181817,
                "end_time": 14.284090909090908,
                "pitch": 55,
                "velocity": 101,
                "duration": 0.06590909090909136,
                "tempo": 120.0
            },
            {
                "start_time": 14.152272727272727,
                "end_time": 14.284090909090908,
                "pitch": 67,
                "velocity": 101,
                "duration": 0.13181818181818095,
                "tempo": 120.0
            },
            {
                "start_time": 14.284090909090908,
                "end_time": 14.352272727272727,
                "pitch": 55,
                "velocity": 101,
                "duration": 0.06818181818181834,
                "tempo": 120.0
            },
            {
                "start_time": 14.352272727272727,
                "end_time": 14.418181818181818,
                "pitch": 55,
                "velocity": 101,
                "duration": 0.06590909090909136,
                "tempo": 120.0
            },
            {
                "start_time": 14.284090909090908,
                "end_time": 14.418181818181818,
                "pitch": 67,
                "velocity": 101,
                "duration": 0.1340909090909097,
                "tempo": 120.0
            },
            {
                "start_time": 14.084090909090909,
                "end_time": 14.484090909090908,
                "pitch": 0,
                "velocity": 101,
                "duration": 0.3999999999999986,
                "tempo": 120.0
            },
            {
                "start_time": 14.418181818181818,
                "end_time": 14.484090909090908,
                "pitch": 55,
                "velocity": 101,
                "duration": 0.06590909090908958,
                "tempo": 120.0
            },
            {
                "start_time": 14.484090909090908,
                "end_time": 14.549999999999999,
                "pitch": 55,
                "velocity": 101,
                "duration": 0.06590909090909136,
                "tempo": 120.0
            },
            {
                "start_time": 14.418181818181818,
                "end_time": 14.549999999999999,
                "pitch": 67,
                "velocity": 101,
                "duration": 0.13181818181818095,
                "tempo": 120.0
            },
            {
                "start_time": 14.484090909090908,
                "end_time": 14.618181818181817,
                "pitch": 0,
                "velocity": 101,
                "duration": 0.1340909090909097,
                "tempo": 120.0
            },
            {
                "start_time": 14.549999999999999,
                "end_time": 14.618181818181817,
                "pitch": 55,
                "velocity": 101,
                "duration": 0.06818181818181834,
                "tempo": 120.0
            },
            {
                "start_time": 14.618181818181817,
                "end_time": 14.684090909090909,
                "pitch": 55,
                "velocity": 101,
                "duration": 0.06590909090909136,
                "tempo": 120.0
            },
            {
                "start_time": 14.549999999999999,
                "end_time": 14.684090909090909,
                "pitch": 67,
                "velocity": 101,
                "duration": 0.1340909090909097,
                "tempo": 120.0
            },
            {
                "start_time": 14.684090909090909,
                "end_time": 14.752272727272727,
                "pitch": 55,
                "velocity": 101,
                "duration": 0.06818181818181834,
                "tempo": 120.0
            },
            {
                "start_time": 14.752272727272727,
                "end_time": 14.818181818181818,
                "pitch": 55,
                "velocity": 101,
                "duration": 0.06590909090909136,
                "tempo": 120.0
            },
            {
                "start_time": 14.684090909090909,
                "end_time": 14.818181818181818,
                "pitch": 67,
                "velocity": 101,
                "duration": 0.1340909090909097,
                "tempo": 120.0
            },
            {
                "start_time": 14.618181818181817,
                "end_time": 14.884090909090908,
                "pitch": 0,
                "velocity": 101,
                "duration": 0.26590909090909065,
                "tempo": 120.0
            },
            {
                "start_time": 14.818181818181818,
                "end_time": 14.884090909090908,
                "pitch": 55,
                "velocity": 101,
                "duration": 0.06590909090908958,
                "tempo": 120.0
            },
            {
                "start_time": 14.884090909090908,
                "end_time": 14.954545454545453,
                "pitch": 55,
                "velocity": 101,
                "duration": 0.07045454545454533,
                "tempo": 120.0
            },
            {
                "start_time": 14.818181818181818,
                "end_time": 14.954545454545453,
                "pitch": 67,
                "velocity": 101,
                "duration": 0.1363636363636349,
                "tempo": 120.0
            },
            {
                "start_time": 14.884090909090908,
                "end_time": 15.022727272727272,
                "pitch": 0,
                "velocity": 101,
                "duration": 0.13863636363636367,
                "tempo": 120.0
            },
            {
                "start_time": 14.954545454545453,
                "end_time": 15.022727272727272,
                "pitch": 55,
                "velocity": 101,
                "duration": 0.06818181818181834,
                "tempo": 120.0
            },
            {
                "start_time": 15.022727272727272,
                "end_time": 15.093181818181817,
                "pitch": 55,
                "velocity": 101,
                "duration": 0.07045454545454533,
                "tempo": 120.0
            },
            {
                "start_time": 14.954545454545453,
                "end_time": 15.093181818181817,
                "pitch": 67,
                "velocity": 101,
                "duration": 0.13863636363636367,
                "tempo": 120.0
            },
            {
                "start_time": 15.093181818181817,
                "end_time": 15.161363636363635,
                "pitch": 55,
                "velocity": 101,
                "duration": 0.06818181818181834,
                "tempo": 120.0
            },
            {
                "start_time": 15.161363636363635,
                "end_time": 15.229545454545454,
                "pitch": 55,
                "velocity": 101,
                "duration": 0.06818181818181834,
                "tempo": 120.0
            },
            {
                "start_time": 15.093181818181817,
                "end_time": 15.229545454545454,
                "pitch": 67,
                "velocity": 101,
                "duration": 0.1363636363636367,
                "tempo": 120.0
            },
            {
                "start_time": 15.022727272727272,
                "end_time": 15.299999999999999,
                "pitch": 0,
                "velocity": 101,
                "duration": 0.27727272727272734,
                "tempo": 120.0
            },
            {
                "start_time": 15.229545454545454,
                "end_time": 15.299999999999999,
                "pitch": 55,
                "velocity": 101,
                "duration": 0.07045454545454533,
                "tempo": 120.0
            },
            {
                "start_time": 15.299999999999999,
                "end_time": 15.368181818181817,
                "pitch": 55,
                "velocity": 101,
                "duration": 0.06818181818181834,
                "tempo": 120.0
            },
            {
                "start_time": 15.229545454545454,
                "end_time": 15.368181818181817,
                "pitch": 67,
                "velocity": 101,
                "duration": 0.13863636363636367,
                "tempo": 120.0
            },
            {
                "start_time": 15.368181818181817,
                "end_time": 15.438636363636363,
                "pitch": 55,
                "velocity": 101,
                "duration": 0.07045454545454533,
                "tempo": 120.0
            },
            {
                "start_time": 15.438636363636363,
                "end_time": 15.506818181818181,
                "pitch": 55,
                "velocity": 101,
                "duration": 0.06818181818181834,
                "tempo": 120.0
            },
            {
                "start_time": 15.368181818181817,
                "end_time": 15.506818181818181,
                "pitch": 67,
                "velocity": 101,
                "duration": 0.13863636363636367,
                "tempo": 120.0
            },
            {
                "start_time": 15.299999999999999,
                "end_time": 15.575,
                "pitch": 0,
                "velocity": 101,
                "duration": 0.27500000000000036,
                "tempo": 120.0
            },
            {
                "start_time": 15.506818181818181,
                "end_time": 15.575,
                "pitch": 55,
                "velocity": 101,
                "duration": 0.06818181818181834,
                "tempo": 120.0
            },
            {
                "start_time": 15.575,
                "end_time": 15.593181818181817,
                "pitch": 55,
                "velocity": 101,
                "duration": 0.018181818181817633,
                "tempo": 120.0
            },
            {
                "start_time": 15.593181818181817,
                "end_time": 18.8,
                "pitch": 55,
                "velocity": 101,
                "duration": 3.206818181818184,
                "tempo": 120.0
            }
        ]
    }
}