{
    "track_id": "16 Game Over",
    "mood": "relaxed",
    "instruments": {
        "Vibraphone": [
            {
                "start_time": 0.006818181818181818,
                "end_time": 0.5886363636363636,
                "pitch": 84,
                "velocity": 80,
                "duration": 0.5818181818181818,
                "tempo": 120.0
            },
            {
                "start_time": 0.5886363636363636,
                "end_time": 1.1795454545454545,
                "pitch": 83,
                "velocity": 80,
                "duration": 0.5909090909090908,
                "tempo": 120.0
            },
            {
                "start_time": 1.1795454545454545,
                "end_time": 1.4772727272727273,
                "pitch": 81,
                "velocity": 80,
                "duration": 0.29772727272727284,
                "tempo": 120.0
            },
            {
                "start_time": 1.4772727272727273,
                "end_time": 1.775,
                "pitch": 83,
                "velocity": 80,
                "duration": 0.2977272727272726,
                "tempo": 120.0
            },
            {
                "start_time": 1.775,
                "end_time": 2.0749999999999997,
                "pitch": 79,
                "velocity": 80,
                "duration": 0.2999999999999998,
                "tempo": 120.0
            },
            {
                "start_time": 1.775,
                "end_time": 2.0749999999999997,
                "pitch": 79,
                "velocity": 80,
                "duration": 0.2999999999999998,
                "tempo": 120.0
            },
            {
                "start_time": 2.0749999999999997,
                "end_time": 2.377272727272727,
                "pitch": 77,
                "velocity": 80,
                "duration": 0.30227272727272725,
                "tempo": 120.0
            },
            {
                "start_time": 2.377272727272727,
                "end_time": 2.675,
                "pitch": 76,
                "velocity": 80,
                "duration": 0.29772727272727284,
                "tempo": 120.0
            },
            {
                "start_time": 2.675,
                "end_time": 2.9727272727272727,
                "pitch": 74,
                "velocity": 80,
                "duration": 0.29772727272727284,
                "tempo": 120.0
            },
            {
                "start_time": 2.675,
                "end_time": 2.9727272727272727,
                "pitch": 74,
                "velocity": 80,
                "duration": 0.29772727272727284,
                "tempo": 120.0
            },
            {
                "start_time": 2.9727272727272727,
                "end_time": 4.181818181818182,
                "pitch": 76,
                "velocity": 80,
                "duration": 1.209090909090909,
                "tempo": 120.0
            },
            {
                "start_time": 2.9727272727272727,
                "end_time": 4.181818181818182,
                "pitch": 76,
                "velocity": 80,
                "duration": 1.209090909090909,
                "tempo": 120.0
            },
            {
                "start_time": 4.181818181818182,
                "end_time": 4.970454545454545,
                "pitch": 77,
                "velocity": 80,
                "duration": 0.7886363636363631,
                "tempo": 120.0
            },
            {
                "start_time": 4.970454545454545,
                "end_time": 13.043181818181818,
                "pitch": 76,
                "velocity": 80,
                "duration": 8.072727272727274,
                "tempo": 120.0
            }
        ],
        "Acoustic Bass": [
            {
                "start_time": 0.0022727272727272726,
                "end_time": 0.5886363636363636,
                "pitch": 40,
                "velocity": 101,
                "duration": 0.5863636363636363,
                "tempo": 120.0
            },
            {
                "start_time": 0.5886363636363636,
                "end_time": 1.1772727272727272,
                "pitch": 38,
                "velocity": 101,
                "duration": 0.5886363636363636,
                "tempo": 120.0
            },
            {
                "start_time": 0.5886363636363636,
                "end_time": 1.1772727272727272,
                "pitch": 38,
                "velocity": 101,
                "duration": 0.5886363636363636,
                "tempo": 120.0
            },
            {
                "start_time": 1.1772727272727272,
                "end_time": 1.775,
                "pitch": 36,
                "velocity": 101,
                "duration": 0.5977272727272727,
                "tempo": 120.0
            },
            {
                "start_time": 1.1772727272727272,
                "end_time": 1.775,
                "pitch": 36,
                "velocity": 101,
                "duration": 0.5977272727272727,
                "tempo": 120.0
            },
            {
                "start_time": 1.775,
                "end_time": 2.375,
                "pitch": 35,
                "velocity": 101,
                "duration": 0.6000000000000001,
                "tempo": 120.0
            },
            {
                "start_time": 2.375,
                "end_time": 2.6727272727272724,
                "pitch": 33,
                "velocity": 101,
                "duration": 0.2977272727272724,
                "tempo": 120.0
            },
            {
                "start_time": 2.375,
                "end_time": 2.6727272727272724,
                "pitch": 33,
                "velocity": 101,
                "duration": 0.2977272727272724,
                "tempo": 120.0
            },
            {
                "start_time": 2.6727272727272724,
                "end_time": 2.9727272727272727,
                "pitch": 31,
                "velocity": 101,
                "duration": 0.30000000000000027,
                "tempo": 120.0
            },
            {
                "start_time": 2.9727272727272727,
                "end_time": 4.181818181818182,
                "pitch": 33,
                "velocity": 101,
                "duration": 1.209090909090909,
                "tempo": 120.0
            },
            {
                "start_time": 4.181818181818182,
                "end_time": 4.968181818181818,
                "pitch": 35,
                "velocity": 101,
                "duration": 0.7863636363636362,
                "tempo": 120.0
            },
            {
                "start_time": 4.181818181818182,
                "end_time": 4.968181818181818,
                "pitch": 35,
                "velocity": 101,
                "duration": 0.7863636363636362,
                "tempo": 120.0
            },
            {
                "start_time": 4.968181818181818,
                "end_time": 13.043181818181818,
                "pitch": 36,
                "velocity": 101,
                "duration": 8.075,
                "tempo": 120.0
            }
        ]
    }
}