{
    "track_id": "16 Visual Wedding (Hidden Ending)",
    "mood": "relaxed",
    "instruments": {
        "Electric Piano 1": [
            {
                "start_time": 0.04772727272727272,
                "end_time": 1.3295454545454546,
                "pitch": 69,
                "velocity": 51,
                "duration": 1.281818181818182,
                "tempo": 120.0
            },
            {
                "start_time": 1.3295454545454546,
                "end_time": 1.4795454545454545,
                "pitch": 69,
                "velocity": 51,
                "duration": 0.1499999999999999,
                "tempo": 120.0
            },
            {
                "start_time": 1.4795454545454545,
                "end_time": 1.6136363636363635,
                "pitch": 69,
                "velocity": 51,
                "duration": 0.13409090909090904,
                "tempo": 120.0
            },
            {
                "start_time": 1.6136363636363635,
                "end_time": 1.7636363636363634,
                "pitch": 69,
                "velocity": 51,
                "duration": 0.1499999999999999,
                "tempo": 120.0
            },
            {
                "start_time": 1.7636363636363634,
                "end_time": 2.2068181818181816,
                "pitch": 71,
                "velocity": 51,
                "duration": 0.4431818181818181,
                "tempo": 120.0
            },
            {
                "start_time": 2.2068181818181816,
                "end_time": 2.6227272727272726,
                "pitch": 74,
                "velocity": 51,
                "duration": 0.415909090909091,
                "tempo": 120.0
            },
            {
                "start_time": 2.625,
                "end_time": 3.036363636363636,
                "pitch": 74,
                "velocity": 51,
                "duration": 0.41136363636363615,
                "tempo": 120.0
            },
            {
                "start_time": 3.036363636363636,
                "end_time": 3.4704545454545452,
                "pitch": 71,
                "velocity": 51,
                "duration": 0.4340909090909091,
                "tempo": 120.0
            },
            {
                "start_time": 3.4727272727272727,
                "end_time": 3.895454545454545,
                "pitch": 74,
                "velocity": 51,
                "duration": 0.4227272727272724,
                "tempo": 120.0
            },
            {
                "start_time": 3.8977272727272725,
                "end_time": 4.309090909090909,
                "pitch": 73,
                "velocity": 51,
                "duration": 0.41136363636363615,
                "tempo": 120.0
            },
            {
                "start_time": 4.3113636363636365,
                "end_time": 4.743181818181818,
                "pitch": 71,
                "velocity": 51,
                "duration": 0.43181818181818166,
                "tempo": 120.0
            },
            {
                "start_time": 4.745454545454545,
                "end_time": 5.1886363636363635,
                "pitch": 69,
                "velocity": 51,
                "duration": 0.44318181818181834,
                "tempo": 120.0
            },
            {
                "start_time": 5.1886363636363635,
                "end_time": 5.6045454545454545,
                "pitch": 78,
                "velocity": 51,
                "duration": 0.415909090909091,
                "tempo": 120.0
            },
            {
                "start_time": 5.6045454545454545,
                "end_time": 6.018181818181818,
                "pitch": 76,
                "velocity": 51,
                "duration": 0.41363636363636314,
                "tempo": 120.0
            },
            {
                "start_time": 6.018181818181818,
                "end_time": 6.459090909090909,
                "pitch": 74,
                "velocity": 51,
                "duration": 0.44090909090909136,
                "tempo": 120.0
            },
            {
                "start_time": 6.461363636363636,
                "end_time": 6.559090909090909,
                "pitch": 73,
                "velocity": 51,
                "duration": 0.09772727272727266,
                "tempo": 120.0
            },
            {
                "start_time": 6.561363636363636,
                "end_time": 6.677272727272727,
                "pitch": 74,
                "velocity": 51,
                "duration": 0.11590909090909118,
                "tempo": 120.0
            },
            {
                "start_time": 6.677272727272727,
                "end_time": 6.877272727272727,
                "pitch": 73,
                "velocity": 51,
                "duration": 0.20000000000000018,
                "tempo": 120.0
            },
            {
                "start_time": 7.302272727272727,
                "end_time": 7.518181818181818,
                "pitch": 71,
                "velocity": 51,
                "duration": 0.21590909090909083,
                "tempo": 120.0
            },
            {
                "start_time": 7.5204545454545455,
                "end_time": 7.736363636363636,
                "pitch": 73,
                "velocity": 51,
                "duration": 0.21590909090909083,
                "tempo": 120.0
            },
            {
                "start_time": 7.736363636363636,
                "end_time": 8.170454545454545,
                "pitch": 74,
                "velocity": 51,
                "duration": 0.43409090909090864,
                "tempo": 120.0
            },
            {
                "start_time": 8.170454545454545,
                "end_time": 8.586363636363636,
                "pitch": 76,
                "velocity": 51,
                "duration": 0.415909090909091,
                "tempo": 120.0
            },
            {
                "start_time": 8.588636363636363,
                "end_time": 9.011363636363637,
                "pitch": 76,
                "velocity": 51,
                "duration": 0.42272727272727373,
                "tempo": 120.0
            },
            {
                "start_time": 9.011363636363637,
                "end_time": 9.445454545454545,
                "pitch": 78,
                "velocity": 51,
                "duration": 0.43409090909090864,
                "tempo": 120.0
            },
            {
                "start_time": 9.445454545454545,
                "end_time": 10.297727272727272,
                "pitch": 73,
                "velocity": 51,
                "duration": 0.8522727272727266,
                "tempo": 120.0
            },
            {
                "start_time": 10.297727272727272,
                "end_time": 10.411363636363635,
                "pitch": 79,
                "velocity": 51,
                "duration": 0.11363636363636331,
                "tempo": 120.0
            },
            {
                "start_time": 10.411363636363635,
                "end_time": 10.540909090909091,
                "pitch": 79,
                "velocity": 51,
                "duration": 0.12954545454545574,
                "tempo": 120.0
            },
            {
                "start_time": 10.540909090909091,
                "end_time": 10.672727272727272,
                "pitch": 79,
                "velocity": 51,
                "duration": 0.13181818181818095,
                "tempo": 120.0
            },
            {
                "start_time": 10.672727272727272,
                "end_time": 10.720454545454546,
                "pitch": 79,
                "velocity": 51,
                "duration": 0.04772727272727373,
                "tempo": 120.0
            },
            {
                "start_time": 10.722727272727273,
                "end_time": 11.154545454545454,
                "pitch": 78,
                "velocity": 51,
                "duration": 0.43181818181818166,
                "tempo": 120.0
            },
            {
                "start_time": 11.154545454545454,
                "end_time": 11.570454545454545,
                "pitch": 76,
                "velocity": 51,
                "duration": 0.415909090909091,
                "tempo": 120.0
            },
            {
                "start_time": 11.572727272727272,
                "end_time": 11.997727272727273,
                "pitch": 74,
                "velocity": 51,
                "duration": 0.4250000000000007,
                "tempo": 120.0
            },
            {
                "start_time": 11.997727272727273,
                "end_time": 13.706818181818182,
                "pitch": 74,
                "velocity": 51,
                "duration": 1.709090909090909,
                "tempo": 120.0
            },
            {
                "start_time": 13.706818181818182,
                "end_time": 14.98181818181818,
                "pitch": 69,
                "velocity": 51,
                "duration": 1.2749999999999986,
                "tempo": 120.0
            },
            {
                "start_time": 14.984090909090908,
                "end_time": 15.131818181818181,
                "pitch": 69,
                "velocity": 51,
                "duration": 0.14772727272727337,
                "tempo": 120.0
            },
            {
                "start_time": 15.134090909090908,
                "end_time": 15.26590909090909,
                "pitch": 69,
                "velocity": 51,
                "duration": 0.13181818181818272,
                "tempo": 120.0
            },
            {
                "start_time": 15.26590909090909,
                "end_time": 15.415909090909091,
                "pitch": 69,
                "velocity": 51,
                "duration": 0.15000000000000036,
                "tempo": 120.0
            },
            {
                "start_time": 15.415909090909091,
                "end_time": 15.83181818181818,
                "pitch": 71,
                "velocity": 51,
                "duration": 0.41590909090908923,
                "tempo": 120.0
            },
            {
                "start_time": 15.834090909090909,
                "end_time": 16.256818181818183,
                "pitch": 74,
                "velocity": 51,
                "duration": 0.42272727272727373,
                "tempo": 120.0
            },
            {
                "start_time": 16.259090909090908,
                "end_time": 16.69090909090909,
                "pitch": 74,
                "velocity": 51,
                "duration": 0.43181818181818343,
                "tempo": 120.0
            },
            {
                "start_time": 16.693181818181817,
                "end_time": 17.125,
                "pitch": 71,
                "velocity": 51,
                "duration": 0.43181818181818343,
                "tempo": 120.0
            },
            {
                "start_time": 17.127272727272725,
                "end_time": 17.55,
                "pitch": 74,
                "velocity": 51,
                "duration": 0.4227272727272755,
                "tempo": 120.0
            },
            {
                "start_time": 17.552272727272726,
                "end_time": 17.96363636363636,
                "pitch": 73,
                "velocity": 51,
                "duration": 0.41136363636363527,
                "tempo": 120.0
            },
            {
                "start_time": 17.96590909090909,
                "end_time": 18.397727272727273,
                "pitch": 71,
                "velocity": 51,
                "duration": 0.43181818181818343,
                "tempo": 120.0
            },
            {
                "start_time": 18.4,
                "end_time": 18.81590909090909,
                "pitch": 69,
                "velocity": 51,
                "duration": 0.4159090909090928,
                "tempo": 120.0
            },
            {
                "start_time": 18.818181818181817,
                "end_time": 19.24090909090909,
                "pitch": 78,
                "velocity": 51,
                "duration": 0.42272727272727195,
                "tempo": 120.0
            },
            {
                "start_time": 19.24090909090909,
                "end_time": 19.675,
                "pitch": 76,
                "velocity": 51,
                "duration": 0.4340909090909122,
                "tempo": 120.0
            },
            {
                "start_time": 19.675,
                "end_time": 20.10681818181818,
                "pitch": 74,
                "velocity": 51,
                "duration": 0.4318181818181799,
                "tempo": 120.0
            },
            {
                "start_time": 20.10909090909091,
                "end_time": 20.206818181818182,
                "pitch": 73,
                "velocity": 51,
                "duration": 0.09772727272727266,
                "tempo": 120.0
            },
            {
                "start_time": 20.209090909090907,
                "end_time": 20.30681818181818,
                "pitch": 74,
                "velocity": 51,
                "duration": 0.09772727272727266,
                "tempo": 120.0
            },
            {
                "start_time": 20.30909090909091,
                "end_time": 20.525,
                "pitch": 73,
                "velocity": 51,
                "duration": 0.21590909090908994,
                "tempo": 120.0
            },
            {
                "start_time": 20.95,
                "end_time": 21.16590909090909,
                "pitch": 71,
                "velocity": 51,
                "duration": 0.21590909090908994,
                "tempo": 120.0
            },
            {
                "start_time": 21.168181818181818,
                "end_time": 21.384090909090908,
                "pitch": 73,
                "velocity": 51,
                "duration": 0.21590909090908994,
                "tempo": 120.0
            },
            {
                "start_time": 21.384090909090908,
                "end_time": 21.8,
                "pitch": 74,
                "velocity": 51,
                "duration": 0.4159090909090928,
                "tempo": 120.0
            },
            {
                "start_time": 21.802272727272726,
                "end_time": 22.224999999999998,
                "pitch": 76,
                "velocity": 51,
                "duration": 0.42272727272727195,
                "tempo": 120.0
            },
            {
                "start_time": 22.227272727272727,
                "end_time": 22.659090909090907,
                "pitch": 76,
                "velocity": 51,
                "duration": 0.4318181818181799,
                "tempo": 120.0
            },
            {
                "start_time": 22.659090909090907,
                "end_time": 23.09318181818182,
                "pitch": 78,
                "velocity": 51,
                "duration": 0.4340909090909122,
                "tempo": 120.0
            },
            {
                "start_time": 23.09318181818182,
                "end_time": 23.943181818181817,
                "pitch": 73,
                "velocity": 51,
                "duration": 0.8499999999999979,
                "tempo": 120.0
            },
            {
                "start_time": 23.945454545454545,
                "end_time": 24.05909090909091,
                "pitch": 79,
                "velocity": 51,
                "duration": 0.11363636363636331,
                "tempo": 120.0
            },
            {
                "start_time": 24.05909090909091,
                "end_time": 24.188636363636363,
                "pitch": 79,
                "velocity": 51,
                "duration": 0.12954545454545396,
                "tempo": 120.0
            },
            {
                "start_time": 24.188636363636363,
                "end_time": 24.320454545454545,
                "pitch": 79,
                "velocity": 51,
                "duration": 0.13181818181818272,
                "tempo": 120.0
            },
            {
                "start_time": 24.320454545454545,
                "end_time": 24.368181818181817,
                "pitch": 79,
                "velocity": 51,
                "duration": 0.04772727272727195,
                "tempo": 120.0
            },
            {
                "start_time": 24.368181818181817,
                "end_time": 24.786363636363635,
                "pitch": 78,
                "velocity": 51,
                "duration": 0.418181818181818,
                "tempo": 120.0
            },
            {
                "start_time": 24.786363636363635,
                "end_time": 25.209090909090907,
                "pitch": 76,
                "velocity": 51,
                "duration": 0.42272727272727195,
                "tempo": 120.0
            },
            {
                "start_time": 25.211363636363636,
                "end_time": 25.645454545454545,
                "pitch": 74,
                "velocity": 51,
                "duration": 0.43409090909090864,
                "tempo": 120.0
            },
            {
                "start_time": 25.645454545454545,
                "end_time": 26.086363636363636,
                "pitch": 73,
                "velocity": 51,
                "duration": 0.44090909090909136,
                "tempo": 120.0
            },
            {
                "start_time": 26.08863636363636,
                "end_time": 26.504545454545454,
                "pitch": 74,
                "velocity": 51,
                "duration": 0.4159090909090928,
                "tempo": 120.0
            },
            {
                "start_time": 26.504545454545454,
                "end_time": 26.918181818181818,
                "pitch": 76,
                "velocity": 51,
                "duration": 0.413636363636364,
                "tempo": 120.0
            },
            {
                "start_time": 26.918181818181818,
                "end_time": 27.352272727272727,
                "pitch": 73,
                "velocity": 51,
                "duration": 0.43409090909090864,
                "tempo": 120.0
            },
            {
                "start_time": 27.352272727272727,
                "end_time": 27.777272727272727,
                "pitch": 74,
                "velocity": 51,
                "duration": 0.4250000000000007,
                "tempo": 120.0
            },
            {
                "start_time": 27.777272727272727,
                "end_time": 28.190909090909088,
                "pitch": 71,
                "velocity": 51,
                "duration": 0.41363636363636047,
                "tempo": 120.0
            },
            {
                "start_time": 28.190909090909088,
                "end_time": 28.625,
                "pitch": 73,
                "velocity": 51,
                "duration": 0.4340909090909122,
                "tempo": 120.0
            },
            {
                "start_time": 28.625,
                "end_time": 28.84090909090909,
                "pitch": 83,
                "velocity": 51,
                "duration": 0.21590909090908994,
                "tempo": 120.0
            },
            {
                "start_time": 28.84090909090909,
                "end_time": 29.48409090909091,
                "pitch": 81,
                "velocity": 51,
                "duration": 0.6431818181818194,
                "tempo": 120.0
            },
            {
                "start_time": 29.48409090909091,
                "end_time": 29.595454545454544,
                "pitch": 79,
                "velocity": 51,
                "duration": 0.11136363636363455,
                "tempo": 120.0
            },
            {
                "start_time": 24.320454545454545,
                "end_time": 29.595454545454544,
                "pitch": 91,
                "velocity": 51,
                "duration": 5.274999999999999,
                "tempo": 120.0
            },
            {
                "start_time": 29.595454545454544,
                "end_time": 29.722727272727273,
                "pitch": 79,
                "velocity": 51,
                "duration": 0.12727272727272876,
                "tempo": 120.0
            },
            {
                "start_time": 29.595454545454544,
                "end_time": 29.722727272727273,
                "pitch": 91,
                "velocity": 51,
                "duration": 0.12727272727272876,
                "tempo": 120.0
            },
            {
                "start_time": 29.722727272727273,
                "end_time": 29.849999999999998,
                "pitch": 79,
                "velocity": 51,
                "duration": 0.1272727272727252,
                "tempo": 120.0
            },
            {
                "start_time": 29.722727272727273,
                "end_time": 29.849999999999998,
                "pitch": 91,
                "velocity": 51,
                "duration": 0.1272727272727252,
                "tempo": 120.0
            },
            {
                "start_time": 29.849999999999998,
                "end_time": 29.89772727272727,
                "pitch": 79,
                "velocity": 51,
                "duration": 0.04772727272727195,
                "tempo": 120.0
            },
            {
                "start_time": 29.89772727272727,
                "end_time": 30.34090909090909,
                "pitch": 78,
                "velocity": 51,
                "duration": 0.4431818181818201,
                "tempo": 120.0
            },
            {
                "start_time": 30.34090909090909,
                "end_time": 30.55681818181818,
                "pitch": 76,
                "velocity": 51,
                "duration": 0.21590909090908994,
                "tempo": 120.0
            },
            {
                "start_time": 30.55681818181818,
                "end_time": 33.324999999999996,
                "pitch": 78,
                "velocity": 51,
                "duration": 2.768181818181816,
                "tempo": 120.0
            },
            {
                "start_time": 33.32727272727273,
                "end_time": 33.74318181818182,
                "pitch": 78,
                "velocity": 51,
                "duration": 0.41590909090908923,
                "tempo": 120.0
            },
            {
                "start_time": 33.74318181818182,
                "end_time": 34.15681818181818,
                "pitch": 76,
                "velocity": 51,
                "duration": 0.413636363636364,
                "tempo": 120.0
            },
            {
                "start_time": 34.15681818181818,
                "end_time": 34.59772727272727,
                "pitch": 71,
                "velocity": 51,
                "duration": 0.4409090909090878,
                "tempo": 120.0
            },
            {
                "start_time": 34.6,
                "end_time": 35.03181818181818,
                "pitch": 73,
                "velocity": 51,
                "duration": 0.4318181818181799,
                "tempo": 120.0
            },
            {
                "start_time": 35.03181818181818,
                "end_time": 35.449999999999996,
                "pitch": 74,
                "velocity": 51,
                "duration": 0.41818181818181444,
                "tempo": 120.0
            },
            {
                "start_time": 35.449999999999996,
                "end_time": 35.66136363636363,
                "pitch": 76,
                "velocity": 51,
                "duration": 0.21136363636363598,
                "tempo": 120.0
            },
            {
                "start_time": 35.663636363636364,
                "end_time": 36.30681818181818,
                "pitch": 78,
                "velocity": 51,
                "duration": 0.6431818181818159,
                "tempo": 120.0
            },
            {
                "start_time": 36.309090909090905,
                "end_time": 36.725,
                "pitch": 76,
                "velocity": 51,
                "duration": 0.41590909090909634,
                "tempo": 120.0
            },
            {
                "start_time": 36.725,
                "end_time": 37.13863636363636,
                "pitch": 74,
                "velocity": 51,
                "duration": 0.4136363636363569,
                "tempo": 120.0
            },
            {
                "start_time": 37.13863636363636,
                "end_time": 37.35909090909091,
                "pitch": 76,
                "velocity": 51,
                "duration": 0.220454545454551,
                "tempo": 120.0
            },
            {
                "start_time": 37.35909090909091,
                "end_time": 38.43181818181818,
                "pitch": 73,
                "velocity": 51,
                "duration": 1.0727272727272705,
                "tempo": 120.0
            },
            {
                "start_time": 38.43181818181818,
                "end_time": 39.29090909090909,
                "pitch": 71,
                "velocity": 51,
                "duration": 0.8590909090909093,
                "tempo": 120.0
            },
            {
                "start_time": 39.29090909090909,
                "end_time": 41.0,
                "pitch": 70,
                "velocity": 51,
                "duration": 1.7090909090909108,
                "tempo": 120.0
            },
            {
                "start_time": 41.002272727272725,
                "end_time": 41.425,
                "pitch": 74,
                "velocity": 51,
                "duration": 0.42272727272727195,
                "tempo": 120.0
            },
            {
                "start_time": 41.42727272727272,
                "end_time": 41.83863636363636,
                "pitch": 71,
                "velocity": 51,
                "duration": 0.4113636363636388,
                "tempo": 120.0
            },
            {
                "start_time": 41.840909090909086,
                "end_time": 42.27272727272727,
                "pitch": 73,
                "velocity": 51,
                "duration": 0.431818181818187,
                "tempo": 120.0
            },
            {
                "start_time": 42.275,
                "end_time": 42.49090909090909,
                "pitch": 83,
                "velocity": 51,
                "duration": 0.2159090909090935,
                "tempo": 120.0
            },
            {
                "start_time": 42.49090909090909,
                "end_time": 43.11590909090909,
                "pitch": 81,
                "velocity": 51,
                "duration": 0.625,
                "tempo": 120.0
            },
            {
                "start_time": 43.11590909090909,
                "end_time": 43.23181818181818,
                "pitch": 79,
                "velocity": 51,
                "duration": 0.11590909090908497,
                "tempo": 120.0
            },
            {
                "start_time": 43.23181818181818,
                "end_time": 43.36590909090909,
                "pitch": 79,
                "velocity": 51,
                "duration": 0.13409090909091503,
                "tempo": 120.0
            },
            {
                "start_time": 29.849999999999998,
                "end_time": 43.36590909090909,
                "pitch": 91,
                "velocity": 51,
                "duration": 13.515909090909094,
                "tempo": 120.0
            },
            {
                "start_time": 43.36590909090909,
                "end_time": 43.5,
                "pitch": 79,
                "velocity": 51,
                "duration": 0.13409090909090793,
                "tempo": 120.0
            },
            {
                "start_time": 43.5,
                "end_time": 43.54772727272727,
                "pitch": 79,
                "velocity": 51,
                "duration": 0.04772727272727195,
                "tempo": 120.0
            },
            {
                "start_time": 43.55,
                "end_time": 43.99090909090909,
                "pitch": 78,
                "velocity": 51,
                "duration": 0.4409090909090949,
                "tempo": 120.0
            },
            {
                "start_time": 43.99318181818182,
                "end_time": 44.18863636363636,
                "pitch": 76,
                "velocity": 51,
                "duration": 0.19545454545454533,
                "tempo": 120.0
            },
            {
                "start_time": 44.18863636363636,
                "end_time": 46.97727272727273,
                "pitch": 78,
                "velocity": 51,
                "duration": 2.788636363636364,
                "tempo": 120.0
            },
            {
                "start_time": 46.97727272727273,
                "end_time": 47.38636363636363,
                "pitch": 78,
                "velocity": 51,
                "duration": 0.4090909090909065,
                "tempo": 120.0
            },
            {
                "start_time": 47.38636363636363,
                "end_time": 47.81136363636364,
                "pitch": 76,
                "velocity": 51,
                "duration": 0.42500000000000426,
                "tempo": 120.0
            },
            {
                "start_time": 47.81136363636364,
                "end_time": 48.252272727272725,
                "pitch": 71,
                "velocity": 51,
                "duration": 0.4409090909090878,
                "tempo": 120.0
            },
            {
                "start_time": 48.25454545454545,
                "end_time": 48.67045454545454,
                "pitch": 73,
                "velocity": 51,
                "duration": 0.41590909090908923,
                "tempo": 120.0
            },
            {
                "start_time": 48.67045454545454,
                "end_time": 49.084090909090904,
                "pitch": 74,
                "velocity": 51,
                "duration": 0.413636363636364,
                "tempo": 120.0
            },
            {
                "start_time": 49.084090909090904,
                "end_time": 49.3,
                "pitch": 76,
                "velocity": 51,
                "duration": 0.2159090909090935,
                "tempo": 120.0
            },
            {
                "start_time": 49.30227272727272,
                "end_time": 49.961363636363636,
                "pitch": 78,
                "velocity": 51,
                "duration": 0.6590909090909136,
                "tempo": 120.0
            },
            {
                "start_time": 49.961363636363636,
                "end_time": 50.377272727272725,
                "pitch": 76,
                "velocity": 51,
                "duration": 0.41590909090908923,
                "tempo": 120.0
            },
            {
                "start_time": 50.37954545454545,
                "end_time": 50.79090909090909,
                "pitch": 74,
                "velocity": 51,
                "duration": 0.4113636363636388,
                "tempo": 120.0
            },
            {
                "start_time": 50.79090909090909,
                "end_time": 51.00681818181818,
                "pitch": 76,
                "velocity": 51,
                "duration": 0.2159090909090935,
                "tempo": 120.0
            },
            {
                "start_time": 51.00909090909091,
                "end_time": 52.07727272727273,
                "pitch": 73,
                "velocity": 51,
                "duration": 1.0681818181818201,
                "tempo": 120.0
            },
            {
                "start_time": 52.07727272727273,
                "end_time": 52.94318181818181,
                "pitch": 71,
                "velocity": 51,
                "duration": 0.865909090909085,
                "tempo": 120.0
            },
            {
                "start_time": 52.945454545454545,
                "end_time": 54.63636363636363,
                "pitch": 70,
                "velocity": 51,
                "duration": 1.6909090909090878,
                "tempo": 120.0
            }
        ]
    }
}