{
    "track_id": "25 Save",
    "mood": "relaxed",
    "instruments": {
        "Electric Piano 1": [
            {
                "start_time": 0.5363636363636364,
                "end_time": 1.7363636363636363,
                "pitch": 41,
                "velocity": 80,
                "duration": 1.2,
                "tempo": 120.0
            },
            {
                "start_time": 1.7386363636363635,
                "end_time": 2.1386363636363637,
                "pitch": 41,
                "velocity": 80,
                "duration": 0.40000000000000013,
                "tempo": 120.0
            },
            {
                "start_time": 2.1386363636363637,
                "end_time": 2.940909090909091,
                "pitch": 36,
                "velocity": 80,
                "duration": 0.8022727272727272,
                "tempo": 120.0
            },
            {
                "start_time": 2.940909090909091,
                "end_time": 3.7409090909090907,
                "pitch": 36,
                "velocity": 80,
                "duration": 0.7999999999999998,
                "tempo": 120.0
            },
            {
                "start_time": 3.743181818181818,
                "end_time": 5.345454545454545,
                "pitch": 41,
                "velocity": 80,
                "duration": 1.6022727272727266,
                "tempo": 120.0
            }
        ],
        "Acoustic Guitar (nylon)": [
            {
                "start_time": 5.345454545454545,
                "end_time": 5.4409090909090905,
                "pitch": 84,
                "velocity": 25,
                "duration": 0.09545454545454568,
                "tempo": 120.0
            },
            {
                "start_time": 5.4409090909090905,
                "end_time": 5.540909090909091,
                "pitch": 86,
                "velocity": 25,
                "duration": 0.10000000000000053,
                "tempo": 120.0
            },
            {
                "start_time": 5.540909090909091,
                "end_time": 5.638636363636364,
                "pitch": 88,
                "velocity": 25,
                "duration": 0.09772727272727266,
                "tempo": 120.0
            },
            {
                "start_time": 5.638636363636364,
                "end_time": 5.738636363636363,
                "pitch": 89,
                "velocity": 25,
                "duration": 0.09999999999999964,
                "tempo": 120.0
            }
        ],
        "Clarinet": [
            {
                "start_time": 0.5363636363636364,
                "end_time": 0.6659090909090909,
                "pitch": 65,
                "velocity": 8,
                "duration": 0.12954545454545452,
                "tempo": 120.0
            },
            {
                "start_time": 0.6659090909090909,
                "end_time": 0.7999999999999999,
                "pitch": 67,
                "velocity": 8,
                "duration": 0.13409090909090904,
                "tempo": 120.0
            },
            {
                "start_time": 0.7999999999999999,
                "end_time": 0.9340909090909091,
                "pitch": 65,
                "velocity": 10,
                "duration": 0.13409090909090915,
                "tempo": 120.0
            },
            {
                "start_time": 0.9340909090909091,
                "end_time": 1.065909090909091,
                "pitch": 67,
                "velocity": 10,
                "duration": 0.13181818181818183,
                "tempo": 120.0
            },
            {
                "start_time": 1.065909090909091,
                "end_time": 1.2,
                "pitch": 65,
                "velocity": 13,
                "duration": 0.13409090909090904,
                "tempo": 120.0
            },
            {
                "start_time": 1.2,
                "end_time": 1.3363636363636362,
                "pitch": 67,
                "velocity": 13,
                "duration": 0.13636363636363624,
                "tempo": 120.0
            },
            {
                "start_time": 1.3363636363636362,
                "end_time": 1.4659090909090908,
                "pitch": 65,
                "velocity": 16,
                "duration": 0.12954545454545463,
                "tempo": 120.0
            },
            {
                "start_time": 1.468181818181818,
                "end_time": 1.6022727272727273,
                "pitch": 67,
                "velocity": 16,
                "duration": 0.13409090909090926,
                "tempo": 120.0
            },
            {
                "start_time": 1.6022727272727273,
                "end_time": 1.7363636363636363,
                "pitch": 65,
                "velocity": 20,
                "duration": 0.13409090909090904,
                "tempo": 120.0
            },
            {
                "start_time": 1.7363636363636363,
                "end_time": 1.8681818181818182,
                "pitch": 67,
                "velocity": 20,
                "duration": 0.13181818181818183,
                "tempo": 120.0
            },
            {
                "start_time": 1.8681818181818182,
                "end_time": 2.002272727272727,
                "pitch": 65,
                "velocity": 25,
                "duration": 0.13409090909090882,
                "tempo": 120.0
            },
            {
                "start_time": 2.0045454545454544,
                "end_time": 2.1363636363636362,
                "pitch": 67,
                "velocity": 25,
                "duration": 0.13181818181818183,
                "tempo": 120.0
            },
            {
                "start_time": 2.1386363636363637,
                "end_time": 2.268181818181818,
                "pitch": 65,
                "velocity": 32,
                "duration": 0.1295454545454544,
                "tempo": 120.0
            },
            {
                "start_time": 2.268181818181818,
                "end_time": 2.4045454545454543,
                "pitch": 67,
                "velocity": 32,
                "duration": 0.13636363636363624,
                "tempo": 120.0
            },
            {
                "start_time": 2.4045454545454543,
                "end_time": 2.536363636363636,
                "pitch": 65,
                "velocity": 32,
                "duration": 0.13181818181818183,
                "tempo": 120.0
            },
            {
                "start_time": 2.5386363636363636,
                "end_time": 2.6704545454545454,
                "pitch": 67,
                "velocity": 32,
                "duration": 0.13181818181818183,
                "tempo": 120.0
            },
            {
                "start_time": 2.6704545454545454,
                "end_time": 2.8022727272727272,
                "pitch": 65,
                "velocity": 25,
                "duration": 0.13181818181818183,
                "tempo": 120.0
            },
            {
                "start_time": 2.8045454545454542,
                "end_time": 2.9386363636363635,
                "pitch": 67,
                "velocity": 25,
                "duration": 0.13409090909090926,
                "tempo": 120.0
            },
            {
                "start_time": 2.9386363636363635,
                "end_time": 3.0704545454545453,
                "pitch": 65,
                "velocity": 25,
                "duration": 0.13181818181818183,
                "tempo": 120.0
            },
            {
                "start_time": 3.0704545454545453,
                "end_time": 3.2045454545454546,
                "pitch": 67,
                "velocity": 25,
                "duration": 0.13409090909090926,
                "tempo": 120.0
            },
            {
                "start_time": 3.2068181818181816,
                "end_time": 3.3386363636363634,
                "pitch": 70,
                "velocity": 25,
                "duration": 0.13181818181818183,
                "tempo": 120.0
            },
            {
                "start_time": 3.3386363636363634,
                "end_time": 3.4704545454545452,
                "pitch": 69,
                "velocity": 25,
                "duration": 0.13181818181818183,
                "tempo": 120.0
            },
            {
                "start_time": 3.4727272727272727,
                "end_time": 3.6045454545454545,
                "pitch": 67,
                "velocity": 25,
                "duration": 0.13181818181818183,
                "tempo": 120.0
            },
            {
                "start_time": 3.6068181818181815,
                "end_time": 3.7409090909090907,
                "pitch": 65,
                "velocity": 25,
                "duration": 0.13409090909090926,
                "tempo": 120.0
            },
            {
                "start_time": 3.7409090909090907,
                "end_time": 3.8727272727272726,
                "pitch": 67,
                "velocity": 25,
                "duration": 0.13181818181818183,
                "tempo": 120.0
            },
            {
                "start_time": 3.8727272727272726,
                "end_time": 4.006818181818182,
                "pitch": 64,
                "velocity": 25,
                "duration": 0.13409090909090926,
                "tempo": 120.0
            },
            {
                "start_time": 4.009090909090909,
                "end_time": 4.140909090909091,
                "pitch": 65,
                "velocity": 25,
                "duration": 0.13181818181818183,
                "tempo": 120.0
            }
        ],
        "Acoustic Bass": [
            {
                "start_time": 0.5386363636363636,
                "end_time": 1.7386363636363635,
                "pitch": 41,
                "velocity": 64,
                "duration": 1.2,
                "tempo": 120.0
            },
            {
                "start_time": 1.7386363636363635,
                "end_time": 2.1386363636363637,
                "pitch": 41,
                "velocity": 64,
                "duration": 0.40000000000000013,
                "tempo": 120.0
            },
            {
                "start_time": 2.1409090909090907,
                "end_time": 2.940909090909091,
                "pitch": 36,
                "velocity": 64,
                "duration": 0.8000000000000003,
                "tempo": 120.0
            },
            {
                "start_time": 2.940909090909091,
                "end_time": 3.743181818181818,
                "pitch": 36,
                "velocity": 64,
                "duration": 0.8022727272727272,
                "tempo": 120.0
            },
            {
                "start_time": 3.743181818181818,
                "end_time": 5.345454545454545,
                "pitch": 41,
                "velocity": 64,
                "duration": 1.6022727272727266,
                "tempo": 120.0
            }
        ]
    }
}