{
    "track_id": "44 End Logo",
    "mood": "relaxed",
    "instruments": {
        "Acoustic Guitar (nylon)": [
            {
                "start_time": 0.18636363636363634,
                "end_time": 0.2590909090909091,
                "pitch": 103,
                "velocity": 8,
                "duration": 0.07272727272727275,
                "tempo": 120.0
            },
            {
                "start_time": 0.2590909090909091,
                "end_time": 0.35909090909090907,
                "pitch": 100,
                "velocity": 8,
                "duration": 0.09999999999999998,
                "tempo": 120.0
            },
            {
                "start_time": 0.35909090909090907,
                "end_time": 0.45909090909090905,
                "pitch": 96,
                "velocity": 10,
                "duration": 0.09999999999999998,
                "tempo": 120.0
            },
            {
                "start_time": 0.45909090909090905,
                "end_time": 0.5590909090909091,
                "pitch": 101,
                "velocity": 10,
                "duration": 0.10000000000000003,
                "tempo": 120.0
            },
            {
                "start_time": 0.5613636363636363,
                "end_time": 0.6590909090909091,
                "pitch": 100,
                "velocity": 13,
                "duration": 0.09772727272727277,
                "tempo": 120.0
            },
            {
                "start_time": 0.6613636363636364,
                "end_time": 0.7613636363636364,
                "pitch": 107,
                "velocity": 16,
                "duration": 0.09999999999999998,
                "tempo": 120.0
            },
            {
                "start_time": 0.7613636363636364,
                "end_time": 0.8613636363636363,
                "pitch": 103,
                "velocity": 16,
                "duration": 0.09999999999999998,
                "tempo": 120.0
            },
            {
                "start_time": 0.8613636363636363,
                "end_time": 0.9636363636363636,
                "pitch": 100,
                "velocity": 16,
                "duration": 0.10227272727272729,
                "tempo": 120.0
            },
            {
                "start_time": 0.9636363636363636,
                "end_time": 1.0681818181818181,
                "pitch": 96,
                "velocity": 16,
                "duration": 0.1045454545454545,
                "tempo": 120.0
            },
            {
                "start_time": 1.0681818181818181,
                "end_time": 1.1727272727272726,
                "pitch": 101,
                "velocity": 16,
                "duration": 0.1045454545454545,
                "tempo": 120.0
            },
            {
                "start_time": 1.1727272727272726,
                "end_time": 1.275,
                "pitch": 100,
                "velocity": 16,
                "duration": 0.10227272727272729,
                "tempo": 120.0
            },
            {
                "start_time": 1.275,
                "end_time": 1.3795454545454544,
                "pitch": 107,
                "velocity": 16,
                "duration": 0.1045454545454545,
                "tempo": 120.0
            },
            {
                "start_time": 1.3795454545454544,
                "end_time": 1.4818181818181817,
                "pitch": 103,
                "velocity": 13,
                "duration": 0.10227272727272729,
                "tempo": 120.0
            },
            {
                "start_time": 1.4840909090909091,
                "end_time": 1.5863636363636362,
                "pitch": 100,
                "velocity": 13,
                "duration": 0.10227272727272707,
                "tempo": 120.0
            },
            {
                "start_time": 1.5863636363636362,
                "end_time": 1.6818181818181817,
                "pitch": 96,
                "velocity": 13,
                "duration": 0.09545454545454546,
                "tempo": 120.0
            },
            {
                "start_time": 1.6818181818181817,
                "end_time": 1.7795454545454545,
                "pitch": 101,
                "velocity": 13,
                "duration": 0.09772727272727288,
                "tempo": 120.0
            },
            {
                "start_time": 1.7795454545454545,
                "end_time": 1.8772727272727272,
                "pitch": 100,
                "velocity": 13,
                "duration": 0.09772727272727266,
                "tempo": 120.0
            },
            {
                "start_time": 1.8772727272727272,
                "end_time": 1.9749999999999999,
                "pitch": 107,
                "velocity": 13,
                "duration": 0.09772727272727266,
                "tempo": 120.0
            },
            {
                "start_time": 1.9749999999999999,
                "end_time": 2.0704545454545453,
                "pitch": 103,
                "velocity": 10,
                "duration": 0.09545454545454546,
                "tempo": 120.0
            },
            {
                "start_time": 2.0727272727272728,
                "end_time": 2.168181818181818,
                "pitch": 100,
                "velocity": 10,
                "duration": 0.09545454545454524,
                "tempo": 120.0
            },
            {
                "start_time": 2.1704545454545454,
                "end_time": 2.268181818181818,
                "pitch": 96,
                "velocity": 10,
                "duration": 0.09772727272727266,
                "tempo": 120.0
            },
            {
                "start_time": 2.268181818181818,
                "end_time": 2.368181818181818,
                "pitch": 101,
                "velocity": 10,
                "duration": 0.10000000000000009,
                "tempo": 120.0
            },
            {
                "start_time": 2.368181818181818,
                "end_time": 2.465909090909091,
                "pitch": 100,
                "velocity": 10,
                "duration": 0.09772727272727266,
                "tempo": 120.0
            },
            {
                "start_time": 2.465909090909091,
                "end_time": 2.565909090909091,
                "pitch": 107,
                "velocity": 10,
                "duration": 0.10000000000000009,
                "tempo": 120.0
            },
            {
                "start_time": 2.568181818181818,
                "end_time": 2.6659090909090906,
                "pitch": 103,
                "velocity": 8,
                "duration": 0.09772727272727266,
                "tempo": 120.0
            },
            {
                "start_time": 2.6659090909090906,
                "end_time": 2.7659090909090907,
                "pitch": 100,
                "velocity": 8,
                "duration": 0.10000000000000009,
                "tempo": 120.0
            },
            {
                "start_time": 2.7659090909090907,
                "end_time": 2.8636363636363633,
                "pitch": 96,
                "velocity": 8,
                "duration": 0.09772727272727266,
                "tempo": 120.0
            },
            {
                "start_time": 2.8659090909090907,
                "end_time": 2.965909090909091,
                "pitch": 101,
                "velocity": 8,
                "duration": 0.10000000000000009,
                "tempo": 120.0
            },
            {
                "start_time": 2.965909090909091,
                "end_time": 3.065909090909091,
                "pitch": 100,
                "velocity": 8,
                "duration": 0.10000000000000009,
                "tempo": 120.0
            },
            {
                "start_time": 3.065909090909091,
                "end_time": 3.1659090909090906,
                "pitch": 107,
                "velocity": 8,
                "duration": 0.09999999999999964,
                "tempo": 120.0
            },
            {
                "start_time": 3.168181818181818,
                "end_time": 3.2659090909090907,
                "pitch": 103,
                "velocity": 6,
                "duration": 0.09772727272727266,
                "tempo": 120.0
            },
            {
                "start_time": 3.2659090909090907,
                "end_time": 3.368181818181818,
                "pitch": 100,
                "velocity": 6,
                "duration": 0.10227272727272751,
                "tempo": 120.0
            },
            {
                "start_time": 3.368181818181818,
                "end_time": 3.465909090909091,
                "pitch": 96,
                "velocity": 6,
                "duration": 0.09772727272727266,
                "tempo": 120.0
            },
            {
                "start_time": 3.465909090909091,
                "end_time": 3.561363636363636,
                "pitch": 101,
                "velocity": 6,
                "duration": 0.09545454545454524,
                "tempo": 120.0
            },
            {
                "start_time": 3.561363636363636,
                "end_time": 3.6545454545454543,
                "pitch": 100,
                "velocity": 6,
                "duration": 0.09318181818181825,
                "tempo": 120.0
            },
            {
                "start_time": 3.6545454545454543,
                "end_time": 3.75,
                "pitch": 107,
                "velocity": 6,
                "duration": 0.09545454545454568,
                "tempo": 120.0
            },
            {
                "start_time": 3.75,
                "end_time": 3.843181818181818,
                "pitch": 103,
                "velocity": 5,
                "duration": 0.09318181818181781,
                "tempo": 120.0
            },
            {
                "start_time": 3.843181818181818,
                "end_time": 3.9386363636363635,
                "pitch": 100,
                "velocity": 5,
                "duration": 0.09545454545454568,
                "tempo": 120.0
            },
            {
                "start_time": 3.9386363636363635,
                "end_time": 4.031818181818181,
                "pitch": 96,
                "velocity": 5,
                "duration": 0.09318181818181781,
                "tempo": 120.0
            },
            {
                "start_time": 4.031818181818181,
                "end_time": 4.131818181818182,
                "pitch": 101,
                "velocity": 5,
                "duration": 0.10000000000000053,
                "tempo": 120.0
            },
            {
                "start_time": 4.134090909090909,
                "end_time": 4.2340909090909085,
                "pitch": 100,
                "velocity": 5,
                "duration": 0.09999999999999964,
                "tempo": 120.0
            },
            {
                "start_time": 4.2340909090909085,
                "end_time": 4.338636363636364,
                "pitch": 107,
                "velocity": 5,
                "duration": 0.10454545454545539,
                "tempo": 120.0
            },
            {
                "start_time": 4.338636363636364,
                "end_time": 4.4409090909090905,
                "pitch": 103,
                "velocity": 4,
                "duration": 0.10227272727272663,
                "tempo": 120.0
            },
            {
                "start_time": 4.4409090909090905,
                "end_time": 4.543181818181818,
                "pitch": 100,
                "velocity": 4,
                "duration": 0.10227272727272751,
                "tempo": 120.0
            },
            {
                "start_time": 4.543181818181818,
                "end_time": 4.6454545454545455,
                "pitch": 96,
                "velocity": 4,
                "duration": 0.10227272727272751,
                "tempo": 120.0
            },
            {
                "start_time": 4.6454545454545455,
                "end_time": 4.745454545454545,
                "pitch": 101,
                "velocity": 4,
                "duration": 0.09999999999999964,
                "tempo": 120.0
            },
            {
                "start_time": 4.745454545454545,
                "end_time": 4.840909090909091,
                "pitch": 100,
                "velocity": 4,
                "duration": 0.09545454545454568,
                "tempo": 120.0
            },
            {
                "start_time": 4.840909090909091,
                "end_time": 4.9386363636363635,
                "pitch": 107,
                "velocity": 4,
                "duration": 0.09772727272727266,
                "tempo": 120.0
            }
        ]
    }
}