{
    "track_id": "Columns (FM) - 03 - Clotho",
    "mood": "relaxed",
    "instruments": {
        "Church Organ": [
            {
                "start_time": 0.024999999999999998,
                "end_time": 0.2909090909090909,
                "pitch": 57,
                "velocity": 4,
                "duration": 0.2659090909090909,
                "tempo": 120.0
            },
            {
                "start_time": 0.2909090909090909,
                "end_time": 0.5568181818181818,
                "pitch": 52,
                "velocity": 4,
                "duration": 0.2659090909090909,
                "tempo": 120.0
            },
            {
                "start_time": 0.5568181818181818,
                "end_time": 0.825,
                "pitch": 60,
                "velocity": 4,
                "duration": 0.2681818181818182,
                "tempo": 120.0
            },
            {
                "start_time": 0.825,
                "end_time": 1.0909090909090908,
                "pitch": 52,
                "velocity": 4,
                "duration": 0.2659090909090909,
                "tempo": 120.0
            },
            {
                "start_time": 0.5568181818181818,
                "end_time": 1.0909090909090908,
                "pitch": 64,
                "velocity": 4,
                "duration": 0.5340909090909091,
                "tempo": 120.0
            },
            {
                "start_time": 1.0909090909090908,
                "end_time": 1.3636363636363635,
                "pitch": 59,
                "velocity": 4,
                "duration": 0.2727272727272727,
                "tempo": 120.0
            },
            {
                "start_time": 1.3636363636363635,
                "end_time": 1.6363636363636362,
                "pitch": 52,
                "velocity": 4,
                "duration": 0.2727272727272727,
                "tempo": 120.0
            },
            {
                "start_time": 1.0909090909090908,
                "end_time": 1.6363636363636362,
                "pitch": 64,
                "velocity": 4,
                "duration": 0.5454545454545454,
                "tempo": 120.0
            },
            {
                "start_time": 0.2909090909090909,
                "end_time": 1.9022727272727271,
                "pitch": 45,
                "velocity": 4,
                "duration": 1.6113636363636363,
                "tempo": 120.0
            },
            {
                "start_time": 1.6363636363636362,
                "end_time": 1.9022727272727271,
                "pitch": 57,
                "velocity": 4,
                "duration": 0.2659090909090909,
                "tempo": 120.0
            },
            {
                "start_time": 1.9022727272727271,
                "end_time": 2.1704545454545454,
                "pitch": 52,
                "velocity": 4,
                "duration": 0.2681818181818183,
                "tempo": 120.0
            },
            {
                "start_time": 1.6363636363636362,
                "end_time": 2.172727272727273,
                "pitch": 64,
                "velocity": 4,
                "duration": 0.5363636363636366,
                "tempo": 120.0
            },
            {
                "start_time": 2.1704545454545454,
                "end_time": 2.172727272727273,
                "pitch": 64,
                "velocity": 4,
                "duration": 0.002272727272727426,
                "tempo": 120.0
            },
            {
                "start_time": 2.172727272727273,
                "end_time": 2.440909090909091,
                "pitch": 56,
                "velocity": 4,
                "duration": 0.2681818181818181,
                "tempo": 120.0
            },
            {
                "start_time": 2.440909090909091,
                "end_time": 2.7136363636363634,
                "pitch": 52,
                "velocity": 4,
                "duration": 0.2727272727272725,
                "tempo": 120.0
            },
            {
                "start_time": 1.3636363636363635,
                "end_time": 2.9818181818181815,
                "pitch": 47,
                "velocity": 4,
                "duration": 1.618181818181818,
                "tempo": 120.0
            },
            {
                "start_time": 2.7136363636363634,
                "end_time": 2.9818181818181815,
                "pitch": 59,
                "velocity": 4,
                "duration": 0.2681818181818181,
                "tempo": 120.0
            },
            {
                "start_time": 2.9818181818181815,
                "end_time": 3.2477272727272726,
                "pitch": 52,
                "velocity": 4,
                "duration": 0.2659090909090911,
                "tempo": 120.0
            },
            {
                "start_time": 2.7136363636363634,
                "end_time": 3.2477272727272726,
                "pitch": 64,
                "velocity": 4,
                "duration": 0.5340909090909092,
                "tempo": 120.0
            },
            {
                "start_time": 1.9022727272727271,
                "end_time": 3.5159090909090907,
                "pitch": 45,
                "velocity": 4,
                "duration": 1.6136363636363635,
                "tempo": 120.0
            },
            {
                "start_time": 3.2477272727272726,
                "end_time": 3.5159090909090907,
                "pitch": 57,
                "velocity": 4,
                "duration": 0.2681818181818181,
                "tempo": 120.0
            },
            {
                "start_time": 3.5159090909090907,
                "end_time": 3.7818181818181817,
                "pitch": 52,
                "velocity": 4,
                "duration": 0.2659090909090911,
                "tempo": 120.0
            },
            {
                "start_time": 3.2477272727272726,
                "end_time": 3.7818181818181817,
                "pitch": 64,
                "velocity": 4,
                "duration": 0.5340909090909092,
                "tempo": 120.0
            },
            {
                "start_time": 2.440909090909091,
                "end_time": 4.054545454545455,
                "pitch": 44,
                "velocity": 4,
                "duration": 1.6136363636363638,
                "tempo": 120.0
            },
            {
                "start_time": 3.7818181818181817,
                "end_time": 4.054545454545455,
                "pitch": 56,
                "velocity": 4,
                "duration": 0.27272727272727293,
                "tempo": 120.0
            },
            {
                "start_time": 4.054545454545455,
                "end_time": 4.327272727272727,
                "pitch": 52,
                "velocity": 4,
                "duration": 0.2727272727272725,
                "tempo": 120.0
            },
            {
                "start_time": 3.7818181818181817,
                "end_time": 4.327272727272727,
                "pitch": 64,
                "velocity": 4,
                "duration": 0.5454545454545454,
                "tempo": 120.0
            },
            {
                "start_time": 4.327272727272727,
                "end_time": 4.593181818181818,
                "pitch": 55,
                "velocity": 4,
                "duration": 0.26590909090909065,
                "tempo": 120.0
            },
            {
                "start_time": 4.593181818181818,
                "end_time": 4.861363636363636,
                "pitch": 50,
                "velocity": 4,
                "duration": 0.2681818181818185,
                "tempo": 120.0
            },
            {
                "start_time": 0.024999999999999998,
                "end_time": 4.861363636363636,
                "pitch": 62,
                "velocity": 4,
                "duration": 4.836363636363636,
                "tempo": 120.0
            },
            {
                "start_time": 2.9818181818181815,
                "end_time": 5.127272727272727,
                "pitch": 47,
                "velocity": 4,
                "duration": 2.1454545454545455,
                "tempo": 120.0
            },
            {
                "start_time": 4.861363636363636,
                "end_time": 5.127272727272727,
                "pitch": 59,
                "velocity": 4,
                "duration": 0.26590909090909065,
                "tempo": 120.0
            },
            {
                "start_time": 5.127272727272727,
                "end_time": 5.3954545454545455,
                "pitch": 50,
                "velocity": 4,
                "duration": 0.2681818181818185,
                "tempo": 120.0
            },
            {
                "start_time": 4.861363636363636,
                "end_time": 5.3954545454545455,
                "pitch": 62,
                "velocity": 4,
                "duration": 0.5340909090909092,
                "tempo": 120.0
            },
            {
                "start_time": 3.5159090909090907,
                "end_time": 5.663636363636363,
                "pitch": 45,
                "velocity": 4,
                "duration": 2.1477272727272725,
                "tempo": 120.0
            },
            {
                "start_time": 5.3954545454545455,
                "end_time": 5.663636363636363,
                "pitch": 57,
                "velocity": 4,
                "duration": 0.26818181818181763,
                "tempo": 120.0
            },
            {
                "start_time": 5.663636363636363,
                "end_time": 5.929545454545455,
                "pitch": 50,
                "velocity": 4,
                "duration": 0.26590909090909154,
                "tempo": 120.0
            },
            {
                "start_time": 5.3954545454545455,
                "end_time": 5.929545454545455,
                "pitch": 62,
                "velocity": 4,
                "duration": 0.5340909090909092,
                "tempo": 120.0
            },
            {
                "start_time": 4.593181818181818,
                "end_time": 6.202272727272727,
                "pitch": 43,
                "velocity": 4,
                "duration": 1.6090909090909093,
                "tempo": 120.0
            },
            {
                "start_time": 5.929545454545455,
                "end_time": 6.202272727272727,
                "pitch": 55,
                "velocity": 4,
                "duration": 0.2727272727272725,
                "tempo": 120.0
            },
            {
                "start_time": 6.202272727272727,
                "end_time": 6.475,
                "pitch": 50,
                "velocity": 4,
                "duration": 0.2727272727272725,
                "tempo": 120.0
            },
            {
                "start_time": 6.475,
                "end_time": 6.74090909090909,
                "pitch": 54,
                "velocity": 4,
                "duration": 0.26590909090909065,
                "tempo": 120.0
            },
            {
                "start_time": 6.475,
                "end_time": 7.009090909090909,
                "pitch": 50,
                "velocity": 4,
                "duration": 0.5340909090909092,
                "tempo": 120.0
            },
            {
                "start_time": 6.74090909090909,
                "end_time": 7.009090909090909,
                "pitch": 50,
                "velocity": 4,
                "duration": 0.2681818181818185,
                "tempo": 120.0
            },
            {
                "start_time": 5.929545454545455,
                "end_time": 7.009090909090909,
                "pitch": 62,
                "velocity": 4,
                "duration": 1.0795454545454541,
                "tempo": 120.0
            },
            {
                "start_time": 6.202272727272727,
                "end_time": 7.2749999999999995,
                "pitch": 43,
                "velocity": 4,
                "duration": 1.0727272727272723,
                "tempo": 120.0
            },
            {
                "start_time": 7.009090909090909,
                "end_time": 7.2749999999999995,
                "pitch": 55,
                "velocity": 4,
                "duration": 0.26590909090909065,
                "tempo": 120.0
            },
            {
                "start_time": 7.2749999999999995,
                "end_time": 7.543181818181818,
                "pitch": 50,
                "velocity": 4,
                "duration": 0.2681818181818185,
                "tempo": 120.0
            },
            {
                "start_time": 7.009090909090909,
                "end_time": 7.543181818181818,
                "pitch": 62,
                "velocity": 4,
                "duration": 0.5340909090909092,
                "tempo": 120.0
            },
            {
                "start_time": 5.663636363636363,
                "end_time": 7.8136363636363635,
                "pitch": 45,
                "velocity": 4,
                "duration": 2.1500000000000004,
                "tempo": 120.0
            },
            {
                "start_time": 7.543181818181818,
                "end_time": 7.8136363636363635,
                "pitch": 57,
                "velocity": 4,
                "duration": 0.2704545454545455,
                "tempo": 120.0
            },
            {
                "start_time": 7.8136363636363635,
                "end_time": 8.086363636363636,
                "pitch": 50,
                "velocity": 4,
                "duration": 0.2727272727272725,
                "tempo": 120.0
            },
            {
                "start_time": 7.543181818181818,
                "end_time": 8.086363636363636,
                "pitch": 62,
                "velocity": 4,
                "duration": 0.543181818181818,
                "tempo": 120.0
            },
            {
                "start_time": 7.2749999999999995,
                "end_time": 8.354545454545454,
                "pitch": 43,
                "velocity": 4,
                "duration": 1.0795454545454541,
                "tempo": 120.0
            },
            {
                "start_time": 8.086363636363636,
                "end_time": 8.354545454545454,
                "pitch": 55,
                "velocity": 4,
                "duration": 0.26818181818181763,
                "tempo": 120.0
            },
            {
                "start_time": 8.354545454545454,
                "end_time": 8.622727272727273,
                "pitch": 50,
                "velocity": 4,
                "duration": 0.2681818181818194,
                "tempo": 120.0
            },
            {
                "start_time": 8.086363636363636,
                "end_time": 8.622727272727273,
                "pitch": 62,
                "velocity": 4,
                "duration": 0.536363636363637,
                "tempo": 120.0
            },
            {
                "start_time": 7.8136363636363635,
                "end_time": 8.893181818181818,
                "pitch": 45,
                "velocity": 4,
                "duration": 1.0795454545454541,
                "tempo": 120.0
            },
            {
                "start_time": 8.622727272727273,
                "end_time": 8.893181818181818,
                "pitch": 57,
                "velocity": 4,
                "duration": 0.2704545454545446,
                "tempo": 120.0
            },
            {
                "start_time": 8.893181818181818,
                "end_time": 9.165909090909091,
                "pitch": 52,
                "velocity": 4,
                "duration": 0.2727272727272734,
                "tempo": 120.0
            },
            {
                "start_time": 4.327272727272727,
                "end_time": 9.165909090909091,
                "pitch": 64,
                "velocity": 4,
                "duration": 4.838636363636364,
                "tempo": 120.0
            },
            {
                "start_time": 0.825,
                "end_time": 9.431818181818182,
                "pitch": 48,
                "velocity": 4,
                "duration": 8.606818181818182,
                "tempo": 120.0
            },
            {
                "start_time": 9.165909090909091,
                "end_time": 9.431818181818182,
                "pitch": 60,
                "velocity": 4,
                "duration": 0.26590909090909065,
                "tempo": 120.0
            },
            {
                "start_time": 9.431818181818182,
                "end_time": 9.7,
                "pitch": 52,
                "velocity": 4,
                "duration": 0.26818181818181763,
                "tempo": 120.0
            },
            {
                "start_time": 9.165909090909091,
                "end_time": 9.7,
                "pitch": 64,
                "velocity": 4,
                "duration": 0.5340909090909083,
                "tempo": 120.0
            },
            {
                "start_time": 5.127272727272727,
                "end_time": 9.96590909090909,
                "pitch": 47,
                "velocity": 4,
                "duration": 4.838636363636363,
                "tempo": 120.0
            },
            {
                "start_time": 9.7,
                "end_time": 9.96590909090909,
                "pitch": 59,
                "velocity": 4,
                "duration": 0.26590909090909065,
                "tempo": 120.0
            },
            {
                "start_time": 9.96590909090909,
                "end_time": 10.23409090909091,
                "pitch": 52,
                "velocity": 4,
                "duration": 0.2681818181818194,
                "tempo": 120.0
            },
            {
                "start_time": 9.7,
                "end_time": 10.23409090909091,
                "pitch": 64,
                "velocity": 4,
                "duration": 0.5340909090909101,
                "tempo": 120.0
            },
            {
                "start_time": 8.893181818181818,
                "end_time": 10.506818181818181,
                "pitch": 45,
                "velocity": 4,
                "duration": 1.6136363636363633,
                "tempo": 120.0
            },
            {
                "start_time": 10.23409090909091,
                "end_time": 10.506818181818181,
                "pitch": 57,
                "velocity": 4,
                "duration": 0.2727272727272716,
                "tempo": 120.0
            },
            {
                "start_time": 10.506818181818181,
                "end_time": 10.779545454545454,
                "pitch": 52,
                "velocity": 4,
                "duration": 0.2727272727272734,
                "tempo": 120.0
            },
            {
                "start_time": 10.23409090909091,
                "end_time": 10.779545454545454,
                "pitch": 64,
                "velocity": 4,
                "duration": 0.545454545454545,
                "tempo": 120.0
            },
            {
                "start_time": 8.622727272727273,
                "end_time": 11.045454545454545,
                "pitch": 62,
                "velocity": 4,
                "duration": 2.422727272727272,
                "tempo": 120.0
            },
            {
                "start_time": 10.779545454545454,
                "end_time": 11.045454545454545,
                "pitch": 62,
                "velocity": 4,
                "duration": 0.26590909090909065,
                "tempo": 120.0
            },
            {
                "start_time": 11.045454545454545,
                "end_time": 11.313636363636363,
                "pitch": 52,
                "velocity": 4,
                "duration": 0.26818181818181763,
                "tempo": 120.0
            },
            {
                "start_time": 10.779545454545454,
                "end_time": 11.313636363636363,
                "pitch": 64,
                "velocity": 4,
                "duration": 0.5340909090909083,
                "tempo": 120.0
            },
            {
                "start_time": 9.96590909090909,
                "end_time": 11.579545454545453,
                "pitch": 47,
                "velocity": 4,
                "duration": 1.6136363636363633,
                "tempo": 120.0
            },
            {
                "start_time": 11.313636363636363,
                "end_time": 11.579545454545453,
                "pitch": 59,
                "velocity": 4,
                "duration": 0.26590909090909065,
                "tempo": 120.0
            },
            {
                "start_time": 11.579545454545453,
                "end_time": 11.847727272727273,
                "pitch": 52,
                "velocity": 4,
                "duration": 0.2681818181818194,
                "tempo": 120.0
            },
            {
                "start_time": 11.313636363636363,
                "end_time": 11.847727272727273,
                "pitch": 64,
                "velocity": 4,
                "duration": 0.5340909090909101,
                "tempo": 120.0
            },
            {
                "start_time": 4.054545454545455,
                "end_time": 12.113636363636363,
                "pitch": 44,
                "velocity": 4,
                "duration": 8.059090909090909,
                "tempo": 120.0
            },
            {
                "start_time": 11.847727272727273,
                "end_time": 12.113636363636363,
                "pitch": 56,
                "velocity": 4,
                "duration": 0.26590909090909065,
                "tempo": 120.0
            },
            {
                "start_time": 12.113636363636363,
                "end_time": 12.381818181818181,
                "pitch": 52,
                "velocity": 4,
                "duration": 0.26818181818181763,
                "tempo": 120.0
            },
            {
                "start_time": 11.847727272727273,
                "end_time": 12.381818181818181,
                "pitch": 64,
                "velocity": 4,
                "duration": 0.5340909090909083,
                "tempo": 120.0
            },
            {
                "start_time": 11.579545454545453,
                "end_time": 12.652272727272727,
                "pitch": 47,
                "velocity": 4,
                "duration": 1.072727272727274,
                "tempo": 120.0
            },
            {
                "start_time": 12.381818181818181,
                "end_time": 12.652272727272727,
                "pitch": 59,
                "velocity": 4,
                "duration": 0.2704545454545464,
                "tempo": 120.0
            },
            {
                "start_time": 12.652272727272727,
                "end_time": 12.927272727272726,
                "pitch": 52,
                "velocity": 4,
                "duration": 0.2749999999999986,
                "tempo": 120.0
            },
            {
                "start_time": 12.381818181818181,
                "end_time": 12.927272727272726,
                "pitch": 64,
                "velocity": 4,
                "duration": 0.545454545454545,
                "tempo": 120.0
            },
            {
                "start_time": 8.354545454545454,
                "end_time": 13.193181818181818,
                "pitch": 43,
                "velocity": 4,
                "duration": 4.838636363636365,
                "tempo": 120.0
            },
            {
                "start_time": 12.927272727272726,
                "end_time": 13.193181818181818,
                "pitch": 55,
                "velocity": 4,
                "duration": 0.2659090909090924,
                "tempo": 120.0
            },
            {
                "start_time": 11.045454545454545,
                "end_time": 13.459090909090909,
                "pitch": 50,
                "velocity": 4,
                "duration": 2.413636363636364,
                "tempo": 120.0
            },
            {
                "start_time": 13.193181818181818,
                "end_time": 13.459090909090909,
                "pitch": 50,
                "velocity": 4,
                "duration": 0.26590909090909065,
                "tempo": 120.0
            },
            {
                "start_time": 12.652272727272727,
                "end_time": 13.73181818181818,
                "pitch": 47,
                "velocity": 4,
                "duration": 1.0795454545454533,
                "tempo": 120.0
            },
            {
                "start_time": 13.459090909090909,
                "end_time": 13.73181818181818,
                "pitch": 59,
                "velocity": 4,
                "duration": 0.2727272727272716,
                "tempo": 120.0
            },
            {
                "start_time": 13.73181818181818,
                "end_time": 14.004545454545454,
                "pitch": 50,
                "velocity": 4,
                "duration": 0.2727272727272734,
                "tempo": 120.0
            },
            {
                "start_time": 13.459090909090909,
                "end_time": 14.004545454545454,
                "pitch": 62,
                "velocity": 4,
                "duration": 0.545454545454545,
                "tempo": 120.0
            },
            {
                "start_time": 10.506818181818181,
                "end_time": 14.270454545454545,
                "pitch": 45,
                "velocity": 4,
                "duration": 3.7636363636363637,
                "tempo": 120.0
            },
            {
                "start_time": 14.004545454545454,
                "end_time": 14.270454545454545,
                "pitch": 57,
                "velocity": 4,
                "duration": 0.26590909090909065,
                "tempo": 120.0
            },
            {
                "start_time": 14.270454545454545,
                "end_time": 14.538636363636362,
                "pitch": 50,
                "velocity": 4,
                "duration": 0.26818181818181763,
                "tempo": 120.0
            },
            {
                "start_time": 14.004545454545454,
                "end_time": 14.538636363636362,
                "pitch": 62,
                "velocity": 4,
                "duration": 0.5340909090909083,
                "tempo": 120.0
            },
            {
                "start_time": 9.431818181818182,
                "end_time": 14.804545454545455,
                "pitch": 48,
                "velocity": 4,
                "duration": 5.372727272727273,
                "tempo": 120.0
            },
            {
                "start_time": 14.538636363636362,
                "end_time": 14.804545454545455,
                "pitch": 60,
                "velocity": 4,
                "duration": 0.2659090909090924,
                "tempo": 120.0
            },
            {
                "start_time": 14.804545454545455,
                "end_time": 15.072727272727272,
                "pitch": 50,
                "velocity": 4,
                "duration": 0.26818181818181763,
                "tempo": 120.0
            },
            {
                "start_time": 14.538636363636362,
                "end_time": 15.072727272727272,
                "pitch": 62,
                "velocity": 4,
                "duration": 0.5340909090909101,
                "tempo": 120.0
            },
            {
                "start_time": 13.73181818181818,
                "end_time": 15.343181818181817,
                "pitch": 47,
                "velocity": 4,
                "duration": 1.6113636363636363,
                "tempo": 120.0
            },
            {
                "start_time": 15.072727272727272,
                "end_time": 15.343181818181817,
                "pitch": 59,
                "velocity": 4,
                "duration": 0.2704545454545446,
                "tempo": 120.0
            },
            {
                "start_time": 15.343181818181817,
                "end_time": 15.61590909090909,
                "pitch": 50,
                "velocity": 4,
                "duration": 0.2727272727272734,
                "tempo": 120.0
            },
            {
                "start_time": 15.072727272727272,
                "end_time": 15.61590909090909,
                "pitch": 62,
                "velocity": 4,
                "duration": 0.543181818181818,
                "tempo": 120.0
            },
            {
                "start_time": 13.193181818181818,
                "end_time": 15.884090909090908,
                "pitch": 43,
                "velocity": 4,
                "duration": 2.6909090909090896,
                "tempo": 120.0
            },
            {
                "start_time": 15.61590909090909,
                "end_time": 15.884090909090908,
                "pitch": 55,
                "velocity": 4,
                "duration": 0.26818181818181763,
                "tempo": 120.0
            },
            {
                "start_time": 15.884090909090908,
                "end_time": 16.15,
                "pitch": 50,
                "velocity": 4,
                "duration": 0.26590909090909065,
                "tempo": 120.0
            },
            {
                "start_time": 6.74090909090909,
                "end_time": 16.418181818181818,
                "pitch": 54,
                "velocity": 4,
                "duration": 9.677272727272728,
                "tempo": 120.0
            },
            {
                "start_time": 16.15,
                "end_time": 16.418181818181818,
                "pitch": 54,
                "velocity": 4,
                "duration": 0.2681818181818194,
                "tempo": 120.0
            },
            {
                "start_time": 16.15,
                "end_time": 16.686363636363634,
                "pitch": 50,
                "velocity": 4,
                "duration": 0.5363636363636353,
                "tempo": 120.0
            },
            {
                "start_time": 16.418181818181818,
                "end_time": 16.686363636363634,
                "pitch": 50,
                "velocity": 4,
                "duration": 0.26818181818181586,
                "tempo": 120.0
            },
            {
                "start_time": 15.61590909090909,
                "end_time": 16.686363636363634,
                "pitch": 62,
                "velocity": 4,
                "duration": 1.0704545454545435,
                "tempo": 120.0
            },
            {
                "start_time": 15.884090909090908,
                "end_time": 16.956818181818182,
                "pitch": 43,
                "velocity": 4,
                "duration": 1.072727272727274,
                "tempo": 120.0
            },
            {
                "start_time": 16.686363636363634,
                "end_time": 16.956818181818182,
                "pitch": 55,
                "velocity": 4,
                "duration": 0.27045454545454817,
                "tempo": 120.0
            },
            {
                "start_time": 16.956818181818182,
                "end_time": 17.23181818181818,
                "pitch": 50,
                "velocity": 4,
                "duration": 0.2749999999999986,
                "tempo": 120.0
            },
            {
                "start_time": 16.686363636363634,
                "end_time": 17.23181818181818,
                "pitch": 62,
                "velocity": 4,
                "duration": 0.5454545454545467,
                "tempo": 120.0
            },
            {
                "start_time": 17.23181818181818,
                "end_time": 17.243181818181817,
                "pitch": 57,
                "velocity": 4,
                "duration": 0.011363636363636687,
                "tempo": 120.0
            },
            {
                "start_time": 14.270454545454545,
                "end_time": 17.49772727272727,
                "pitch": 45,
                "velocity": 4,
                "duration": 3.2272727272727266,
                "tempo": 120.0
            },
            {
                "start_time": 17.243181818181817,
                "end_time": 17.49772727272727,
                "pitch": 57,
                "velocity": 64,
                "duration": 0.25454545454545396,
                "tempo": 120.0
            },
            {
                "start_time": 17.49772727272727,
                "end_time": 17.763636363636362,
                "pitch": 52,
                "velocity": 4,
                "duration": 0.26590909090909065,
                "tempo": 120.0
            },
            {
                "start_time": 12.927272727272726,
                "end_time": 17.763636363636362,
                "pitch": 64,
                "velocity": 4,
                "duration": 4.836363636363636,
                "tempo": 120.0
            },
            {
                "start_time": 14.804545454545455,
                "end_time": 18.03181818181818,
                "pitch": 48,
                "velocity": 4,
                "duration": 3.2272727272727266,
                "tempo": 120.0
            },
            {
                "start_time": 17.763636363636362,
                "end_time": 18.03181818181818,
                "pitch": 60,
                "velocity": 4,
                "duration": 0.2681818181818194,
                "tempo": 120.0
            },
            {
                "start_time": 18.03181818181818,
                "end_time": 18.297727272727272,
                "pitch": 52,
                "velocity": 4,
                "duration": 0.26590909090909065,
                "tempo": 120.0
            },
            {
                "start_time": 17.763636363636362,
                "end_time": 18.297727272727272,
                "pitch": 64,
                "velocity": 4,
                "duration": 0.5340909090909101,
                "tempo": 120.0
            },
            {
                "start_time": 15.343181818181817,
                "end_time": 18.56590909090909,
                "pitch": 47,
                "velocity": 4,
                "duration": 3.2227272727272744,
                "tempo": 120.0
            },
            {
                "start_time": 18.297727272727272,
                "end_time": 18.56590909090909,
                "pitch": 59,
                "velocity": 4,
                "duration": 0.2681818181818194,
                "tempo": 120.0
            },
            {
                "start_time": 18.56590909090909,
                "end_time": 18.834090909090907,
                "pitch": 52,
                "velocity": 4,
                "duration": 0.26818181818181586,
                "tempo": 120.0
            },
            {
                "start_time": 18.297727272727272,
                "end_time": 18.834090909090907,
                "pitch": 64,
                "velocity": 4,
                "duration": 0.5363636363636353,
                "tempo": 120.0
            },
            {
                "start_time": 16.956818181818182,
                "end_time": 19.104545454545455,
                "pitch": 43,
                "velocity": 4,
                "duration": 2.1477272727272734,
                "tempo": 120.0
            },
            {
                "start_time": 18.834090909090907,
                "end_time": 19.104545454545455,
                "pitch": 55,
                "velocity": 4,
                "duration": 0.27045454545454817,
                "tempo": 120.0
            },
            {
                "start_time": 19.104545454545455,
                "end_time": 19.377272727272725,
                "pitch": 52,
                "velocity": 4,
                "duration": 0.2727272727272698,
                "tempo": 120.0
            },
            {
                "start_time": 18.834090909090907,
                "end_time": 19.377272727272725,
                "pitch": 64,
                "velocity": 4,
                "duration": 0.543181818181818,
                "tempo": 120.0
            },
            {
                "start_time": 12.113636363636363,
                "end_time": 19.647727272727273,
                "pitch": 44,
                "velocity": 4,
                "duration": 7.53409090909091,
                "tempo": 120.0
            },
            {
                "start_time": 19.377272727272725,
                "end_time": 19.647727272727273,
                "pitch": 56,
                "velocity": 4,
                "duration": 0.27045454545454817,
                "tempo": 120.0
            },
            {
                "start_time": 19.647727272727273,
                "end_time": 19.920454545454543,
                "pitch": 52,
                "velocity": 4,
                "duration": 0.2727272727272698,
                "tempo": 120.0
            },
            {
                "start_time": 19.377272727272725,
                "end_time": 19.920454545454543,
                "pitch": 64,
                "velocity": 4,
                "duration": 0.543181818181818,
                "tempo": 120.0
            },
            {
                "start_time": 18.56590909090909,
                "end_time": 20.188636363636363,
                "pitch": 47,
                "velocity": 4,
                "duration": 1.6227272727272712,
                "tempo": 120.0
            },
            {
                "start_time": 19.920454545454543,
                "end_time": 20.188636363636363,
                "pitch": 59,
                "velocity": 4,
                "duration": 0.2681818181818194,
                "tempo": 120.0
            },
            {
                "start_time": 20.188636363636363,
                "end_time": 20.454545454545453,
                "pitch": 52,
                "velocity": 4,
                "duration": 0.26590909090909065,
                "tempo": 120.0
            },
            {
                "start_time": 19.920454545454543,
                "end_time": 20.454545454545453,
                "pitch": 64,
                "velocity": 4,
                "duration": 0.5340909090909101,
                "tempo": 120.0
            },
            {
                "start_time": 17.23181818181818,
                "end_time": 20.722727272727273,
                "pitch": 62,
                "velocity": 4,
                "duration": 3.490909090909092,
                "tempo": 120.0
            },
            {
                "start_time": 20.454545454545453,
                "end_time": 20.722727272727273,
                "pitch": 62,
                "velocity": 4,
                "duration": 0.2681818181818194,
                "tempo": 120.0
            },
            {
                "start_time": 20.722727272727273,
                "end_time": 20.988636363636363,
                "pitch": 52,
                "velocity": 4,
                "duration": 0.26590909090909065,
                "tempo": 120.0
            },
            {
                "start_time": 20.454545454545453,
                "end_time": 20.988636363636363,
                "pitch": 64,
                "velocity": 4,
                "duration": 0.5340909090909101,
                "tempo": 120.0
            },
            {
                "start_time": 20.988636363636363,
                "end_time": 21.261363636363637,
                "pitch": 60,
                "velocity": 4,
                "duration": 0.2727272727272734,
                "tempo": 120.0
            },
            {
                "start_time": 21.261363636363637,
                "end_time": 21.534090909090907,
                "pitch": 60,
                "velocity": 4,
                "duration": 0.2727272727272698,
                "tempo": 120.0
            },
            {
                "start_time": 19.104545454545455,
                "end_time": 21.8,
                "pitch": 43,
                "velocity": 4,
                "duration": 2.6954545454545453,
                "tempo": 120.0
            },
            {
                "start_time": 21.534090909090907,
                "end_time": 21.8,
                "pitch": 55,
                "velocity": 4,
                "duration": 0.2659090909090942,
                "tempo": 120.0
            },
            {
                "start_time": 20.722727272727273,
                "end_time": 22.068181818181817,
                "pitch": 50,
                "velocity": 4,
                "duration": 1.345454545454544,
                "tempo": 120.0
            },
            {
                "start_time": 21.8,
                "end_time": 22.068181818181817,
                "pitch": 50,
                "velocity": 4,
                "duration": 0.26818181818181586,
                "tempo": 120.0
            },
            {
                "start_time": 22.068181818181817,
                "end_time": 22.33863636363636,
                "pitch": 55,
                "velocity": 4,
                "duration": 0.2704545454545446,
                "tempo": 120.0
            },
            {
                "start_time": 22.33863636363636,
                "end_time": 22.611363636363635,
                "pitch": 55,
                "velocity": 4,
                "duration": 0.2727272727272734,
                "tempo": 120.0
            },
            {
                "start_time": 21.534090909090907,
                "end_time": 22.884090909090908,
                "pitch": 59,
                "velocity": 4,
                "duration": 1.3500000000000014,
                "tempo": 120.0
            },
            {
                "start_time": 22.611363636363635,
                "end_time": 22.884090909090908,
                "pitch": 59,
                "velocity": 4,
                "duration": 0.2727272727272734,
                "tempo": 120.0
            },
            {
                "start_time": 22.611363636363635,
                "end_time": 23.15681818181818,
                "pitch": 57,
                "velocity": 4,
                "duration": 0.5454545454545467,
                "tempo": 120.0
            },
            {
                "start_time": 22.884090909090908,
                "end_time": 23.15681818181818,
                "pitch": 57,
                "velocity": 4,
                "duration": 0.2727272727272734,
                "tempo": 120.0
            },
            {
                "start_time": 23.15681818181818,
                "end_time": 23.418181818181818,
                "pitch": 57,
                "velocity": 4,
                "duration": 0.2613636363636367,
                "tempo": 120.0
            },
            {
                "start_time": 17.49772727272727,
                "end_time": 23.68181818181818,
                "pitch": 45,
                "velocity": 4,
                "duration": 6.184090909090909,
                "tempo": 120.0
            },
            {
                "start_time": 23.418181818181818,
                "end_time": 23.68181818181818,
                "pitch": 55,
                "velocity": 4,
                "duration": 0.2636363636363619,
                "tempo": 120.0
            },
            {
                "start_time": 16.418181818181818,
                "end_time": 23.94772727272727,
                "pitch": 54,
                "velocity": 4,
                "duration": 7.5295454545454525,
                "tempo": 120.0
            },
            {
                "start_time": 23.68181818181818,
                "end_time": 23.94772727272727,
                "pitch": 54,
                "velocity": 4,
                "duration": 0.26590909090909065,
                "tempo": 120.0
            },
            {
                "start_time": 23.94772727272727,
                "end_time": 24.21590909090909,
                "pitch": 55,
                "velocity": 4,
                "duration": 0.2681818181818194,
                "tempo": 120.0
            },
            {
                "start_time": 23.68181818181818,
                "end_time": 24.49090909090909,
                "pitch": 45,
                "velocity": 4,
                "duration": 0.8090909090909086,
                "tempo": 120.0
            },
            {
                "start_time": 24.21590909090909,
                "end_time": 24.49090909090909,
                "pitch": 55,
                "velocity": 4,
                "duration": 0.2749999999999986,
                "tempo": 120.0
            },
            {
                "start_time": 24.49090909090909,
                "end_time": 24.770454545454545,
                "pitch": 54,
                "velocity": 4,
                "duration": 0.2795454545454561,
                "tempo": 120.0
            },
            {
                "start_time": 24.770454545454545,
                "end_time": 25.03181818181818,
                "pitch": 50,
                "velocity": 4,
                "duration": 0.2613636363636367,
                "tempo": 120.0
            },
            {
                "start_time": 25.03181818181818,
                "end_time": 25.295454545454543,
                "pitch": 52,
                "velocity": 4,
                "duration": 0.2636363636363619,
                "tempo": 120.0
            },
            {
                "start_time": 24.770454545454545,
                "end_time": 25.570454545454545,
                "pitch": 54,
                "velocity": 4,
                "duration": 0.8000000000000007,
                "tempo": 120.0
            },
            {
                "start_time": 25.295454545454543,
                "end_time": 25.570454545454545,
                "pitch": 54,
                "velocity": 4,
                "duration": 0.27500000000000213,
                "tempo": 120.0
            },
            {
                "start_time": 25.03181818181818,
                "end_time": 25.847727272727273,
                "pitch": 50,
                "velocity": 4,
                "duration": 0.8159090909090914,
                "tempo": 120.0
            },
            {
                "start_time": 25.570454545454545,
                "end_time": 25.847727272727273,
                "pitch": 50,
                "velocity": 4,
                "duration": 0.27727272727272734,
                "tempo": 120.0
            },
            {
                "start_time": 22.068181818181817,
                "end_time": 25.847727272727273,
                "pitch": 62,
                "velocity": 4,
                "duration": 3.779545454545456,
                "tempo": 120.0
            },
            {
                "start_time": 24.49090909090909,
                "end_time": 26.10909090909091,
                "pitch": 45,
                "velocity": 4,
                "duration": 1.6181818181818208,
                "tempo": 120.0
            },
            {
                "start_time": 25.847727272727273,
                "end_time": 26.10909090909091,
                "pitch": 57,
                "velocity": 4,
                "duration": 0.2613636363636367,
                "tempo": 120.0
            },
            {
                "start_time": 25.295454545454543,
                "end_time": 26.37272727272727,
                "pitch": 52,
                "velocity": 4,
                "duration": 1.077272727272728,
                "tempo": 120.0
            },
            {
                "start_time": 26.10909090909091,
                "end_time": 26.37272727272727,
                "pitch": 52,
                "velocity": 4,
                "duration": 0.2636363636363619,
                "tempo": 120.0
            },
            {
                "start_time": 20.988636363636363,
                "end_time": 26.37272727272727,
                "pitch": 64,
                "velocity": 4,
                "duration": 5.384090909090908,
                "tempo": 120.0
            },
            {
                "start_time": 26.37272727272727,
                "end_time": 26.634090909090908,
                "pitch": 57,
                "velocity": 4,
                "duration": 0.2613636363636367,
                "tempo": 120.0
            },
            {
                "start_time": 26.634090909090908,
                "end_time": 26.89772727272727,
                "pitch": 60,
                "velocity": 4,
                "duration": 0.2636363636363619,
                "tempo": 120.0
            },
            {
                "start_time": 22.884090909090908,
                "end_time": 27.168181818181818,
                "pitch": 59,
                "velocity": 4,
                "duration": 4.28409090909091,
                "tempo": 120.0
            },
            {
                "start_time": 26.89772727272727,
                "end_time": 27.168181818181818,
                "pitch": 60,
                "velocity": 4,
                "duration": 0.27045454545454817,
                "tempo": 120.0
            },
            {
                "start_time": 27.168181818181818,
                "end_time": 27.440909090909088,
                "pitch": 56,
                "velocity": 4,
                "duration": 0.2727272727272698,
                "tempo": 120.0
            },
            {
                "start_time": 25.847727272727273,
                "end_time": 27.706818181818182,
                "pitch": 62,
                "velocity": 4,
                "duration": 1.8590909090909093,
                "tempo": 120.0
            },
            {
                "start_time": 27.440909090909088,
                "end_time": 27.706818181818182,
                "pitch": 62,
                "velocity": 4,
                "duration": 0.2659090909090942,
                "tempo": 120.0
            },
            {
                "start_time": 27.168181818181818,
                "end_time": 27.977272727272727,
                "pitch": 59,
                "velocity": 4,
                "duration": 0.8090909090909086,
                "tempo": 120.0
            },
            {
                "start_time": 27.706818181818182,
                "end_time": 27.977272727272727,
                "pitch": 59,
                "velocity": 4,
                "duration": 0.2704545454545446,
                "tempo": 120.0
            },
            {
                "start_time": 27.706818181818182,
                "end_time": 28.24772727272727,
                "pitch": 62,
                "velocity": 4,
                "duration": 0.5409090909090892,
                "tempo": 120.0
            },
            {
                "start_time": 27.977272727272727,
                "end_time": 28.24772727272727,
                "pitch": 62,
                "velocity": 4,
                "duration": 0.2704545454545446,
                "tempo": 120.0
            },
            {
                "start_time": 27.977272727272727,
                "end_time": 28.520454545454545,
                "pitch": 59,
                "velocity": 4,
                "duration": 0.543181818181818,
                "tempo": 120.0
            },
            {
                "start_time": 28.24772727272727,
                "end_time": 28.520454545454545,
                "pitch": 59,
                "velocity": 4,
                "duration": 0.2727272727272734,
                "tempo": 120.0
            },
            {
                "start_time": 19.647727272727273,
                "end_time": 28.786363636363635,
                "pitch": 44,
                "velocity": 4,
                "duration": 9.138636363636362,
                "tempo": 120.0
            },
            {
                "start_time": 27.440909090909088,
                "end_time": 28.786363636363635,
                "pitch": 56,
                "velocity": 4,
                "duration": 1.3454545454545475,
                "tempo": 120.0
            },
            {
                "start_time": 28.520454545454545,
                "end_time": 28.786363636363635,
                "pitch": 56,
                "velocity": 4,
                "duration": 0.26590909090909065,
                "tempo": 120.0
            },
            {
                "start_time": 28.786363636363635,
                "end_time": 29.054545454545455,
                "pitch": 52,
                "velocity": 4,
                "duration": 0.2681818181818194,
                "tempo": 120.0
            },
            {
                "start_time": 26.37272727272727,
                "end_time": 29.054545454545455,
                "pitch": 64,
                "velocity": 4,
                "duration": 2.6818181818181834,
                "tempo": 120.0
            },
            {
                "start_time": 29.054545454545455,
                "end_time": 29.325,
                "pitch": 56,
                "velocity": 4,
                "duration": 0.2704545454545446,
                "tempo": 120.0
            },
            {
                "start_time": 28.520454545454545,
                "end_time": 29.597727272727273,
                "pitch": 59,
                "velocity": 4,
                "duration": 1.077272727272728,
                "tempo": 120.0
            },
            {
                "start_time": 29.325,
                "end_time": 29.597727272727273,
                "pitch": 59,
                "velocity": 4,
                "duration": 0.2727272727272734,
                "tempo": 120.0
            },
            {
                "start_time": 28.24772727272727,
                "end_time": 29.863636363636363,
                "pitch": 62,
                "velocity": 4,
                "duration": 1.615909090909092,
                "tempo": 120.0
            },
            {
                "start_time": 29.597727272727273,
                "end_time": 29.863636363636363,
                "pitch": 62,
                "velocity": 4,
                "duration": 0.26590909090909065,
                "tempo": 120.0
            },
            {
                "start_time": 29.597727272727273,
                "end_time": 30.134090909090908,
                "pitch": 59,
                "velocity": 4,
                "duration": 0.5363636363636353,
                "tempo": 120.0
            },
            {
                "start_time": 29.863636363636363,
                "end_time": 30.134090909090908,
                "pitch": 59,
                "velocity": 4,
                "duration": 0.2704545454545446,
                "tempo": 120.0
            },
            {
                "start_time": 30.134090909090908,
                "end_time": 30.4,
                "pitch": 55,
                "velocity": 4,
                "duration": 0.26590909090909065,
                "tempo": 120.0
            },
            {
                "start_time": 30.4,
                "end_time": 30.668181818181818,
                "pitch": 55,
                "velocity": 4,
                "duration": 0.2681818181818194,
                "tempo": 120.0
            },
            {
                "start_time": 26.634090909090908,
                "end_time": 30.668181818181818,
                "pitch": 57,
                "velocity": 4,
                "duration": 4.03409090909091,
                "tempo": 120.0
            },
            {
                "start_time": 20.188636363636363,
                "end_time": 30.93409090909091,
                "pitch": 47,
                "velocity": 4,
                "duration": 10.745454545454546,
                "tempo": 120.0
            },
            {
                "start_time": 30.134090909090908,
                "end_time": 30.93409090909091,
                "pitch": 59,
                "velocity": 4,
                "duration": 0.8000000000000007,
                "tempo": 120.0
            },
            {
                "start_time": 30.668181818181818,
                "end_time": 30.93409090909091,
                "pitch": 59,
                "velocity": 4,
                "duration": 0.26590909090909065,
                "tempo": 120.0
            },
            {
                "start_time": 30.93409090909091,
                "end_time": 31.202272727272724,
                "pitch": 52,
                "velocity": 4,
                "duration": 0.26818181818181586,
                "tempo": 120.0
            },
            {
                "start_time": 29.054545454545455,
                "end_time": 31.202272727272724,
                "pitch": 64,
                "velocity": 4,
                "duration": 2.14772727272727,
                "tempo": 120.0
            },
            {
                "start_time": 30.668181818181818,
                "end_time": 31.472727272727273,
                "pitch": 57,
                "velocity": 4,
                "duration": 0.8045454545454547,
                "tempo": 120.0
            },
            {
                "start_time": 31.202272727272724,
                "end_time": 31.472727272727273,
                "pitch": 57,
                "velocity": 4,
                "duration": 0.27045454545454817,
                "tempo": 120.0
            },
            {
                "start_time": 31.472727272727273,
                "end_time": 31.745454545454542,
                "pitch": 59,
                "velocity": 4,
                "duration": 0.2727272727272698,
                "tempo": 120.0
            },
            {
                "start_time": 31.745454545454542,
                "end_time": 32.01136363636363,
                "pitch": 59,
                "velocity": 4,
                "duration": 0.26590909090909065,
                "tempo": 120.0
            },
            {
                "start_time": 26.10909090909091,
                "end_time": 32.28181818181818,
                "pitch": 45,
                "velocity": 4,
                "duration": 6.172727272727272,
                "tempo": 120.0
            },
            {
                "start_time": 31.472727272727273,
                "end_time": 32.28181818181818,
                "pitch": 57,
                "velocity": 4,
                "duration": 0.8090909090909086,
                "tempo": 120.0
            },
            {
                "start_time": 32.01136363636363,
                "end_time": 32.28181818181818,
                "pitch": 57,
                "velocity": 4,
                "duration": 0.27045454545454817,
                "tempo": 120.0
            },
            {
                "start_time": 25.570454545454545,
                "end_time": 32.54772727272727,
                "pitch": 54,
                "velocity": 4,
                "duration": 6.977272727272727,
                "tempo": 120.0
            },
            {
                "start_time": 32.28181818181818,
                "end_time": 32.54772727272727,
                "pitch": 54,
                "velocity": 4,
                "duration": 0.26590909090909065,
                "tempo": 120.0
            },
            {
                "start_time": 23.94772727272727,
                "end_time": 32.54772727272727,
                "pitch": 66,
                "velocity": 4,
                "duration": 8.600000000000001,
                "tempo": 120.0
            },
            {
                "start_time": 32.54772727272727,
                "end_time": 32.81363636363636,
                "pitch": 55,
                "velocity": 4,
                "duration": 0.26590909090909065,
                "tempo": 120.0
            },
            {
                "start_time": 32.28181818181818,
                "end_time": 33.086363636363636,
                "pitch": 45,
                "velocity": 4,
                "duration": 0.8045454545454547,
                "tempo": 120.0
            },
            {
                "start_time": 32.81363636363636,
                "end_time": 33.086363636363636,
                "pitch": 55,
                "velocity": 4,
                "duration": 0.2727272727272734,
                "tempo": 120.0
            },
            {
                "start_time": 33.086363636363636,
                "end_time": 33.35909090909091,
                "pitch": 50,
                "velocity": 4,
                "duration": 0.2727272727272734,
                "tempo": 120.0
            },
            {
                "start_time": 29.863636363636363,
                "end_time": 33.35909090909091,
                "pitch": 62,
                "velocity": 4,
                "duration": 3.495454545454546,
                "tempo": 120.0
            },
            {
                "start_time": 33.35909090909091,
                "end_time": 33.625,
                "pitch": 59,
                "velocity": 4,
                "duration": 0.26590909090909065,
                "tempo": 120.0
            },
            {
                "start_time": 33.625,
                "end_time": 33.893181818181816,
                "pitch": 57,
                "velocity": 4,
                "duration": 0.26818181818181586,
                "tempo": 120.0
            },
            {
                "start_time": 33.893181818181816,
                "end_time": 34.15909090909091,
                "pitch": 57,
                "velocity": 4,
                "duration": 0.26590909090909065,
                "tempo": 120.0
            },
            {
                "start_time": 34.15909090909091,
                "end_time": 34.42727272727272,
                "pitch": 55,
                "velocity": 4,
                "duration": 0.26818181818181586,
                "tempo": 120.0
            },
            {
                "start_time": 34.42727272727272,
                "end_time": 36.595454545454544,
                "pitch": 57,
                "velocity": 4,
                "duration": 2.1681818181818215,
                "tempo": 120.0
            },
            {
                "start_time": 33.625,
                "end_time": 36.85454545454545,
                "pitch": 59,
                "velocity": 4,
                "duration": 3.229545454545452,
                "tempo": 120.0
            },
            {
                "start_time": 36.595454545454544,
                "end_time": 36.85454545454545,
                "pitch": 59,
                "velocity": 4,
                "duration": 0.25909090909090793,
                "tempo": 120.0
            },
            {
                "start_time": 36.85454545454545,
                "end_time": 37.11818181818182,
                "pitch": 59,
                "velocity": 4,
                "duration": 0.26363636363636545,
                "tempo": 120.0
            },
            {
                "start_time": 32.01136363636363,
                "end_time": 37.11818181818182,
                "pitch": 60,
                "velocity": 4,
                "duration": 5.106818181818184,
                "tempo": 120.0
            },
            {
                "start_time": 33.35909090909091,
                "end_time": 37.38409090909091,
                "pitch": 62,
                "velocity": 4,
                "duration": 4.024999999999999,
                "tempo": 120.0
            },
            {
                "start_time": 37.11818181818182,
                "end_time": 37.38409090909091,
                "pitch": 62,
                "velocity": 4,
                "duration": 0.26590909090909065,
                "tempo": 120.0
            },
            {
                "start_time": 29.325,
                "end_time": 37.652272727272724,
                "pitch": 56,
                "velocity": 4,
                "duration": 8.327272727272724,
                "tempo": 120.0
            },
            {
                "start_time": 37.38409090909091,
                "end_time": 37.652272727272724,
                "pitch": 56,
                "velocity": 4,
                "duration": 0.26818181818181586,
                "tempo": 120.0
            },
            {
                "start_time": 37.652272727272724,
                "end_time": 37.918181818181814,
                "pitch": 56,
                "velocity": 4,
                "duration": 0.26590909090909065,
                "tempo": 120.0
            },
            {
                "start_time": 37.918181818181814,
                "end_time": 38.18636363636364,
                "pitch": 59,
                "velocity": 4,
                "duration": 0.26818181818182296,
                "tempo": 120.0
            },
            {
                "start_time": 18.03181818181818,
                "end_time": 38.45227272727273,
                "pitch": 48,
                "velocity": 4,
                "duration": 20.420454545454547,
                "tempo": 120.0
            },
            {
                "start_time": 38.18636363636364,
                "end_time": 38.45227272727273,
                "pitch": 59,
                "velocity": 4,
                "duration": 0.26590909090909065,
                "tempo": 120.0
            },
            {
                "start_time": 38.45227272727273,
                "end_time": 38.72272727272727,
                "pitch": 54,
                "velocity": 4,
                "duration": 0.27045454545454106,
                "tempo": 120.0
            },
            {
                "start_time": 32.54772727272727,
                "end_time": 38.72272727272727,
                "pitch": 66,
                "velocity": 4,
                "duration": 6.174999999999997,
                "tempo": 120.0
            },
            {
                "start_time": 38.72272727272727,
                "end_time": 38.99772727272727,
                "pitch": 59,
                "velocity": 4,
                "duration": 0.2749999999999986,
                "tempo": 120.0
            },
            {
                "start_time": 21.8,
                "end_time": 39.275,
                "pitch": 43,
                "velocity": 4,
                "duration": 17.474999999999998,
                "tempo": 120.0
            },
            {
                "start_time": 36.595454545454544,
                "end_time": 39.275,
                "pitch": 55,
                "velocity": 4,
                "duration": 2.6795454545454547,
                "tempo": 120.0
            },
            {
                "start_time": 38.99772727272727,
                "end_time": 39.275,
                "pitch": 55,
                "velocity": 4,
                "duration": 0.2772727272727309,
                "tempo": 120.0
            },
            {
                "start_time": 39.275,
                "end_time": 39.543181818181814,
                "pitch": 52,
                "velocity": 4,
                "duration": 0.26818181818181586,
                "tempo": 120.0
            },
            {
                "start_time": 31.202272727272724,
                "end_time": 39.543181818181814,
                "pitch": 64,
                "velocity": 4,
                "duration": 8.34090909090909,
                "tempo": 120.0
            },
            {
                "start_time": 37.918181818181814,
                "end_time": 39.809090909090905,
                "pitch": 57,
                "velocity": 4,
                "duration": 1.8909090909090907,
                "tempo": 120.0
            },
            {
                "start_time": 39.543181818181814,
                "end_time": 39.809090909090905,
                "pitch": 57,
                "velocity": 4,
                "duration": 0.26590909090909065,
                "tempo": 120.0
            },
            {
                "start_time": 39.275,
                "end_time": 40.35454545454545,
                "pitch": 43,
                "velocity": 4,
                "duration": 1.0795454545454533,
                "tempo": 120.0
            },
            {
                "start_time": 39.809090909090905,
                "end_time": 40.35454545454545,
                "pitch": 57,
                "velocity": 4,
                "duration": 0.5454545454545467,
                "tempo": 120.0
            },
            {
                "start_time": 40.35454545454545,
                "end_time": 40.87954545454545,
                "pitch": 54,
                "velocity": 4,
                "duration": 0.5249999999999986,
                "tempo": 120.0
            },
            {
                "start_time": 40.87954545454545,
                "end_time": 41.15,
                "pitch": 52,
                "velocity": 4,
                "duration": 0.27045454545454817,
                "tempo": 120.0
            },
            {
                "start_time": 39.543181818181814,
                "end_time": 41.15,
                "pitch": 64,
                "velocity": 4,
                "duration": 1.6068181818181841,
                "tempo": 120.0
            },
            {
                "start_time": 33.086363636363636,
                "end_time": 41.42272727272727,
                "pitch": 45,
                "velocity": 4,
                "duration": 8.336363636363636,
                "tempo": 120.0
            },
            {
                "start_time": 41.15,
                "end_time": 41.42272727272727,
                "pitch": 57,
                "velocity": 4,
                "duration": 0.2727272727272734,
                "tempo": 120.0
            },
            {
                "start_time": 40.87954545454545,
                "end_time": 41.68863636363636,
                "pitch": 54,
                "velocity": 4,
                "duration": 0.8090909090909122,
                "tempo": 120.0
            },
            {
                "start_time": 41.42272727272727,
                "end_time": 41.68863636363636,
                "pitch": 54,
                "velocity": 4,
                "duration": 0.26590909090909065,
                "tempo": 120.0
            },
            {
                "start_time": 41.68863636363636,
                "end_time": 41.959090909090904,
                "pitch": 50,
                "velocity": 4,
                "duration": 0.27045454545454106,
                "tempo": 120.0
            },
            {
                "start_time": 41.959090909090904,
                "end_time": 42.22272727272727,
                "pitch": 52,
                "velocity": 4,
                "duration": 0.26363636363636545,
                "tempo": 120.0
            },
            {
                "start_time": 41.15,
                "end_time": 42.22272727272727,
                "pitch": 64,
                "velocity": 4,
                "duration": 1.0727272727272705,
                "tempo": 120.0
            },
            {
                "start_time": 41.42272727272727,
                "end_time": 42.49318181818182,
                "pitch": 45,
                "velocity": 4,
                "duration": 1.0704545454545453,
                "tempo": 120.0
            },
            {
                "start_time": 42.22272727272727,
                "end_time": 42.49318181818182,
                "pitch": 57,
                "velocity": 4,
                "duration": 0.27045454545454817,
                "tempo": 120.0
            },
            {
                "start_time": 41.68863636363636,
                "end_time": 42.76363636363636,
                "pitch": 54,
                "velocity": 4,
                "duration": 1.0749999999999957,
                "tempo": 120.0
            },
            {
                "start_time": 42.49318181818182,
                "end_time": 42.76363636363636,
                "pitch": 54,
                "velocity": 4,
                "duration": 0.27045454545454106,
                "tempo": 120.0
            },
            {
                "start_time": 41.959090909090904,
                "end_time": 43.03636363636363,
                "pitch": 50,
                "velocity": 4,
                "duration": 1.077272727272728,
                "tempo": 120.0
            },
            {
                "start_time": 42.76363636363636,
                "end_time": 43.03636363636363,
                "pitch": 50,
                "velocity": 4,
                "duration": 0.2727272727272734,
                "tempo": 120.0
            },
            {
                "start_time": 37.38409090909091,
                "end_time": 43.03636363636363,
                "pitch": 62,
                "velocity": 4,
                "duration": 5.652272727272724,
                "tempo": 120.0
            },
            {
                "start_time": 38.99772727272727,
                "end_time": 43.30227272727272,
                "pitch": 59,
                "velocity": 4,
                "duration": 4.304545454545455,
                "tempo": 120.0
            },
            {
                "start_time": 43.03636363636363,
                "end_time": 43.30227272727272,
                "pitch": 59,
                "velocity": 4,
                "duration": 0.26590909090909065,
                "tempo": 120.0
            },
            {
                "start_time": 43.30227272727272,
                "end_time": 43.570454545454545,
                "pitch": 55,
                "velocity": 4,
                "duration": 0.26818181818182296,
                "tempo": 120.0
            },
            {
                "start_time": 43.570454545454545,
                "end_time": 43.836363636363636,
                "pitch": 55,
                "velocity": 4,
                "duration": 0.26590909090909065,
                "tempo": 120.0
            },
            {
                "start_time": 40.35454545454545,
                "end_time": 44.10454545454545,
                "pitch": 43,
                "velocity": 4,
                "duration": 3.75,
                "tempo": 120.0
            },
            {
                "start_time": 43.836363636363636,
                "end_time": 44.10454545454545,
                "pitch": 57,
                "velocity": 4,
                "duration": 0.26818181818181586,
                "tempo": 120.0
            },
            {
                "start_time": 42.76363636363636,
                "end_time": 45.211363636363636,
                "pitch": 54,
                "velocity": 4,
                "duration": 2.4477272727272776,
                "tempo": 120.0
            },
            {
                "start_time": 44.10454545454545,
                "end_time": 45.211363636363636,
                "pitch": 54,
                "velocity": 4,
                "duration": 1.1068181818181841,
                "tempo": 120.0
            },
            {
                "start_time": 38.72272727272727,
                "end_time": 45.211363636363636,
                "pitch": 66,
                "velocity": 4,
                "duration": 6.488636363636367,
                "tempo": 120.0
            },
            {
                "start_time": 43.30227272727272,
                "end_time": 45.461363636363636,
                "pitch": 59,
                "velocity": 4,
                "duration": 2.1590909090909136,
                "tempo": 120.0
            },
            {
                "start_time": 45.211363636363636,
                "end_time": 45.461363636363636,
                "pitch": 59,
                "velocity": 4,
                "duration": 0.25,
                "tempo": 120.0
            },
            {
                "start_time": 45.46363636363636,
                "end_time": 45.71363636363636,
                "pitch": 59,
                "velocity": 4,
                "duration": 0.25,
                "tempo": 120.0
            },
            {
                "start_time": 37.11818181818182,
                "end_time": 45.71363636363636,
                "pitch": 60,
                "velocity": 4,
                "duration": 8.595454545454544,
                "tempo": 120.0
            },
            {
                "start_time": 43.03636363636363,
                "end_time": 45.986363636363635,
                "pitch": 62,
                "velocity": 4,
                "duration": 2.950000000000003,
                "tempo": 120.0
            },
            {
                "start_time": 45.71363636363636,
                "end_time": 45.986363636363635,
                "pitch": 62,
                "velocity": 4,
                "duration": 0.2727272727272734,
                "tempo": 120.0
            },
            {
                "start_time": 45.986363636363635,
                "end_time": 46.25681818181818,
                "pitch": 56,
                "velocity": 4,
                "duration": 0.27045454545454817,
                "tempo": 120.0
            },
            {
                "start_time": 46.25681818181818,
                "end_time": 46.525,
                "pitch": 56,
                "velocity": 4,
                "duration": 0.26818181818181586,
                "tempo": 120.0
            },
            {
                "start_time": 46.525,
                "end_time": 46.79090909090909,
                "pitch": 59,
                "velocity": 4,
                "duration": 0.26590909090909065,
                "tempo": 120.0
            },
            {
                "start_time": 38.45227272727273,
                "end_time": 47.059090909090905,
                "pitch": 48,
                "velocity": 4,
                "duration": 8.606818181818177,
                "tempo": 120.0
            },
            {
                "start_time": 46.793181818181814,
                "end_time": 47.059090909090905,
                "pitch": 59,
                "velocity": 4,
                "duration": 0.26590909090909065,
                "tempo": 120.0
            },
            {
                "start_time": 47.059090909090905,
                "end_time": 47.32727272727273,
                "pitch": 54,
                "velocity": 4,
                "duration": 0.26818181818182296,
                "tempo": 120.0
            },
            {
                "start_time": 45.211363636363636,
                "end_time": 47.32727272727273,
                "pitch": 66,
                "velocity": 4,
                "duration": 2.115909090909092,
                "tempo": 120.0
            },
            {
                "start_time": 47.32727272727273,
                "end_time": 47.59772727272727,
                "pitch": 55,
                "velocity": 4,
                "duration": 0.27045454545454106,
                "tempo": 120.0
            },
            {
                "start_time": 47.59772727272727,
                "end_time": 47.87045454545454,
                "pitch": 59,
                "velocity": 4,
                "duration": 0.2727272727272734,
                "tempo": 120.0
            },
            {
                "start_time": 46.525,
                "end_time": 48.13863636363636,
                "pitch": 57,
                "velocity": 4,
                "duration": 1.6136363636363598,
                "tempo": 120.0
            },
            {
                "start_time": 47.87045454545454,
                "end_time": 48.13863636363636,
                "pitch": 57,
                "velocity": 4,
                "duration": 0.26818181818181586,
                "tempo": 120.0
            },
            {
                "start_time": 44.10454545454545,
                "end_time": 48.40454545454545,
                "pitch": 43,
                "velocity": 4,
                "duration": 4.299999999999997,
                "tempo": 120.0
            },
            {
                "start_time": 48.13863636363636,
                "end_time": 48.40454545454545,
                "pitch": 57,
                "velocity": 4,
                "duration": 0.26590909090909065,
                "tempo": 120.0
            },
            {
                "start_time": 48.40454545454545,
                "end_time": 48.67727272727272,
                "pitch": 54,
                "velocity": 4,
                "duration": 0.2727272727272734,
                "tempo": 120.0
            },
            {
                "start_time": 47.32727272727273,
                "end_time": 48.67727272727272,
                "pitch": 66,
                "velocity": 4,
                "duration": 1.3499999999999943,
                "tempo": 120.0
            },
            {
                "start_time": 48.67727272727272,
                "end_time": 48.94772727272727,
                "pitch": 57,
                "velocity": 4,
                "duration": 0.27045454545454817,
                "tempo": 120.0
            },
            {
                "start_time": 48.40454545454545,
                "end_time": 49.211363636363636,
                "pitch": 43,
                "velocity": 4,
                "duration": 0.806818181818187,
                "tempo": 120.0
            },
            {
                "start_time": 48.94772727272727,
                "end_time": 49.211363636363636,
                "pitch": 57,
                "velocity": 4,
                "duration": 0.26363636363636545,
                "tempo": 120.0
            },
            {
                "start_time": 49.211363636363636,
                "end_time": 49.474999999999994,
                "pitch": 54,
                "velocity": 4,
                "duration": 0.26363636363635834,
                "tempo": 120.0
            },
            {
                "start_time": 49.474999999999994,
                "end_time": 49.75,
                "pitch": 52,
                "velocity": 4,
                "duration": 0.2750000000000057,
                "tempo": 120.0
            },
            {
                "start_time": 42.22272727272727,
                "end_time": 49.75,
                "pitch": 64,
                "velocity": 4,
                "duration": 7.527272727272731,
                "tempo": 120.0
            },
            {
                "start_time": 42.49318181818182,
                "end_time": 50.027272727272724,
                "pitch": 45,
                "velocity": 4,
                "duration": 7.5340909090909065,
                "tempo": 120.0
            },
            {
                "start_time": 49.75,
                "end_time": 50.027272727272724,
                "pitch": 57,
                "velocity": 4,
                "duration": 0.2772727272727238,
                "tempo": 120.0
            },
            {
                "start_time": 49.474999999999994,
                "end_time": 50.288636363636364,
                "pitch": 54,
                "velocity": 4,
                "duration": 0.8136363636363697,
                "tempo": 120.0
            },
            {
                "start_time": 50.027272727272724,
                "end_time": 50.288636363636364,
                "pitch": 54,
                "velocity": 4,
                "duration": 0.26136363636364024,
                "tempo": 120.0
            },
            {
                "start_time": 50.288636363636364,
                "end_time": 50.55227272727272,
                "pitch": 50,
                "velocity": 4,
                "duration": 0.26363636363635834,
                "tempo": 120.0
            },
            {
                "start_time": 50.55227272727272,
                "end_time": 50.82272727272727,
                "pitch": 52,
                "velocity": 4,
                "duration": 0.27045454545454817,
                "tempo": 120.0
            },
            {
                "start_time": 49.75,
                "end_time": 50.82272727272727,
                "pitch": 64,
                "velocity": 4,
                "duration": 1.0727272727272705,
                "tempo": 120.0
            },
            {
                "start_time": 50.027272727272724,
                "end_time": 51.09772727272727,
                "pitch": 45,
                "velocity": 4,
                "duration": 1.0704545454545453,
                "tempo": 120.0
            },
            {
                "start_time": 50.82272727272727,
                "end_time": 51.09772727272727,
                "pitch": 57,
                "velocity": 4,
                "duration": 0.2749999999999986,
                "tempo": 120.0
            },
            {
                "start_time": 50.288636363636364,
                "end_time": 51.361363636363635,
                "pitch": 54,
                "velocity": 4,
                "duration": 1.0727272727272705,
                "tempo": 120.0
            },
            {
                "start_time": 51.09772727272727,
                "end_time": 51.361363636363635,
                "pitch": 54,
                "velocity": 4,
                "duration": 0.26363636363636545,
                "tempo": 120.0
            },
            {
                "start_time": 51.361363636363635,
                "end_time": 51.36363636363636,
                "pitch": 54,
                "velocity": 4,
                "duration": 0.0022727272727252057,
                "tempo": 120.0
            },
            {
                "start_time": 50.55227272727272,
                "end_time": 51.63181818181818,
                "pitch": 50,
                "velocity": 4,
                "duration": 1.0795454545454604,
                "tempo": 120.0
            },
            {
                "start_time": 51.36363636363636,
                "end_time": 51.63181818181818,
                "pitch": 50,
                "velocity": 4,
                "duration": 0.26818181818182296,
                "tempo": 120.0
            },
            {
                "start_time": 51.63181818181818,
                "end_time": 51.89772727272727,
                "pitch": 52,
                "velocity": 4,
                "duration": 0.26590909090909065,
                "tempo": 120.0
            },
            {
                "start_time": 50.82272727272727,
                "end_time": 51.89772727272727,
                "pitch": 64,
                "velocity": 4,
                "duration": 1.0750000000000028,
                "tempo": 120.0
            },
            {
                "start_time": 51.09772727272727,
                "end_time": 52.16590909090909,
                "pitch": 45,
                "velocity": 4,
                "duration": 1.0681818181818201,
                "tempo": 120.0
            },
            {
                "start_time": 51.89772727272727,
                "end_time": 52.16590909090909,
                "pitch": 57,
                "velocity": 4,
                "duration": 0.26818181818181586,
                "tempo": 120.0
            },
            {
                "start_time": 52.16590909090909,
                "end_time": 52.43636363636363,
                "pitch": 54,
                "velocity": 4,
                "duration": 0.27045454545454106,
                "tempo": 120.0
            },
            {
                "start_time": 51.63181818181818,
                "end_time": 52.709090909090904,
                "pitch": 50,
                "velocity": 4,
                "duration": 1.077272727272721,
                "tempo": 120.0
            },
            {
                "start_time": 52.43636363636363,
                "end_time": 52.709090909090904,
                "pitch": 50,
                "velocity": 4,
                "duration": 0.2727272727272734,
                "tempo": 120.0
            },
            {
                "start_time": 52.709090909090904,
                "end_time": 53.78636363636363,
                "pitch": 52,
                "velocity": 4,
                "duration": 1.077272727272728,
                "tempo": 120.0
            },
            {
                "start_time": 51.89772727272727,
                "end_time": 53.78636363636363,
                "pitch": 64,
                "velocity": 4,
                "duration": 1.8886363636363583,
                "tempo": 120.0
            },
            {
                "start_time": 53.78636363636363,
                "end_time": 54.04772727272727,
                "pitch": 57,
                "velocity": 4,
                "duration": 0.26136363636364024,
                "tempo": 120.0
            },
            {
                "start_time": 47.87045454545454,
                "end_time": 54.31136363636363,
                "pitch": 59,
                "velocity": 4,
                "duration": 6.440909090909088,
                "tempo": 120.0
            },
            {
                "start_time": 54.04772727272727,
                "end_time": 54.31136363636363,
                "pitch": 59,
                "velocity": 4,
                "duration": 0.26363636363635834,
                "tempo": 120.0
            },
            {
                "start_time": 47.059090909090905,
                "end_time": 54.584090909090904,
                "pitch": 48,
                "velocity": 4,
                "duration": 7.524999999999999,
                "tempo": 120.0
            },
            {
                "start_time": 54.31136363636363,
                "end_time": 54.584090909090904,
                "pitch": 59,
                "velocity": 4,
                "duration": 0.2727272727272734,
                "tempo": 120.0
            },
            {
                "start_time": 54.584090909090904,
                "end_time": 57.025,
                "pitch": 53,
                "velocity": 4,
                "duration": 2.440909090909095,
                "tempo": 120.0
            },
            {
                "start_time": 49.211363636363636,
                "end_time": 57.55,
                "pitch": 43,
                "velocity": 4,
                "duration": 8.338636363636361,
                "tempo": 120.0
            },
            {
                "start_time": 47.59772727272727,
                "end_time": 57.55,
                "pitch": 55,
                "velocity": 4,
                "duration": 9.952272727272728,
                "tempo": 120.0
            },
            {
                "start_time": 57.025,
                "end_time": 57.55,
                "pitch": 55,
                "velocity": 4,
                "duration": 0.5249999999999986,
                "tempo": 120.0
            },
            {
                "start_time": 57.55,
                "end_time": 58.10227272727273,
                "pitch": 53,
                "velocity": 4,
                "duration": 0.5522727272727295,
                "tempo": 120.0
            },
            {
                "start_time": 58.10227272727273,
                "end_time": 62.36363636363636,
                "pitch": 53,
                "velocity": 4,
                "duration": 4.261363636363633,
                "tempo": 120.0
            },
            {
                "start_time": 53.78636363636363,
                "end_time": 62.36363636363636,
                "pitch": 64,
                "velocity": 4,
                "duration": 8.577272727272728,
                "tempo": 120.0
            },
            {
                "start_time": 54.04772727272727,
                "end_time": 62.63863636363636,
                "pitch": 57,
                "velocity": 4,
                "duration": 8.590909090909086,
                "tempo": 120.0
            },
            {
                "start_time": 62.36363636363636,
                "end_time": 62.63863636363636,
                "pitch": 57,
                "velocity": 4,
                "duration": 0.2749999999999986,
                "tempo": 120.0
            },
            {
                "start_time": 62.63863636363636,
                "end_time": 62.918181818181814,
                "pitch": 59,
                "velocity": 4,
                "duration": 0.2795454545454561,
                "tempo": 120.0
            },
            {
                "start_time": 54.584090909090904,
                "end_time": 63.184090909090905,
                "pitch": 48,
                "velocity": 4,
                "duration": 8.600000000000001,
                "tempo": 120.0
            },
            {
                "start_time": 62.918181818181814,
                "end_time": 63.184090909090905,
                "pitch": 59,
                "velocity": 4,
                "duration": 0.26590909090909065,
                "tempo": 120.0
            },
            {
                "start_time": 63.184090909090905,
                "end_time": 64.55227272727272,
                "pitch": 53,
                "velocity": 4,
                "duration": 1.3681818181818173,
                "tempo": 120.0
            },
            {
                "start_time": 57.025,
                "end_time": 64.55227272727272,
                "pitch": 65,
                "velocity": 4,
                "duration": 7.527272727272724,
                "tempo": 120.0
            },
            {
                "start_time": 45.986363636363635,
                "end_time": 65.07727272727273,
                "pitch": 62,
                "velocity": 4,
                "duration": 19.090909090909093,
                "tempo": 120.0
            },
            {
                "start_time": 64.55227272727272,
                "end_time": 65.07727272727273,
                "pitch": 62,
                "velocity": 4,
                "duration": 0.5250000000000057,
                "tempo": 120.0
            },
            {
                "start_time": 45.71363636363636,
                "end_time": 65.61136363636363,
                "pitch": 60,
                "velocity": 4,
                "duration": 19.897727272727273,
                "tempo": 120.0
            },
            {
                "start_time": 65.07727272727273,
                "end_time": 65.61136363636363,
                "pitch": 60,
                "velocity": 4,
                "duration": 0.5340909090909065,
                "tempo": 120.0
            },
            {
                "start_time": 65.61136363636363,
                "end_time": 68.85681818181818,
                "pitch": 60,
                "velocity": 4,
                "duration": 3.2454545454545496,
                "tempo": 120.0
            },
            {
                "start_time": 62.36363636363636,
                "end_time": 69.11363636363636,
                "pitch": 64,
                "velocity": 4,
                "duration": 6.75,
                "tempo": 120.0
            },
            {
                "start_time": 68.85681818181818,
                "end_time": 69.11363636363636,
                "pitch": 64,
                "velocity": 4,
                "duration": 0.2568181818181756,
                "tempo": 120.0
            },
            {
                "start_time": 69.11363636363636,
                "end_time": 69.37272727272727,
                "pitch": 60,
                "velocity": 4,
                "duration": 0.25909090909091503,
                "tempo": 120.0
            },
            {
                "start_time": 65.07727272727273,
                "end_time": 69.63863636363637,
                "pitch": 62,
                "velocity": 4,
                "duration": 4.561363636363637,
                "tempo": 120.0
            },
            {
                "start_time": 69.37272727272727,
                "end_time": 69.63863636363637,
                "pitch": 62,
                "velocity": 4,
                "duration": 0.26590909090909065,
                "tempo": 120.0
            },
            {
                "start_time": 68.85681818181818,
                "end_time": 69.90681818181818,
                "pitch": 59,
                "velocity": 4,
                "duration": 1.0499999999999972,
                "tempo": 120.0
            },
            {
                "start_time": 69.63863636363637,
                "end_time": 69.90681818181818,
                "pitch": 59,
                "velocity": 4,
                "duration": 0.26818181818181586,
                "tempo": 120.0
            },
            {
                "start_time": 69.90681818181818,
                "end_time": 70.17727272727272,
                "pitch": 59,
                "velocity": 4,
                "duration": 0.27045454545454106,
                "tempo": 120.0
            },
            {
                "start_time": 69.37272727272727,
                "end_time": 70.17727272727272,
                "pitch": 60,
                "velocity": 4,
                "duration": 0.8045454545454476,
                "tempo": 120.0
            },
            {
                "start_time": 62.63863636363636,
                "end_time": 70.45,
                "pitch": 57,
                "velocity": 4,
                "duration": 7.8113636363636445,
                "tempo": 120.0
            },
            {
                "start_time": 70.17727272727272,
                "end_time": 70.45,
                "pitch": 57,
                "velocity": 4,
                "duration": 0.2727272727272805,
                "tempo": 120.0
            },
            {
                "start_time": 70.45,
                "end_time": 70.71818181818182,
                "pitch": 57,
                "velocity": 4,
                "duration": 0.26818181818181586,
                "tempo": 120.0
            },
            {
                "start_time": 70.71818181818182,
                "end_time": 70.98636363636363,
                "pitch": 56,
                "velocity": 4,
                "duration": 0.26818181818181586,
                "tempo": 120.0
            },
            {
                "start_time": 70.98636363636363,
                "end_time": 73.15681818181818,
                "pitch": 59,
                "velocity": 4,
                "duration": 2.1704545454545467,
                "tempo": 120.0
            },
            {
                "start_time": 73.15681818181818,
                "end_time": 73.41363636363636,
                "pitch": 56,
                "velocity": 4,
                "duration": 0.2568181818181756,
                "tempo": 120.0
            },
            {
                "start_time": 73.41363636363636,
                "end_time": 73.67272727272727,
                "pitch": 56,
                "velocity": 4,
                "duration": 0.25909090909091503,
                "tempo": 120.0
            },
            {
                "start_time": 70.98636363636363,
                "end_time": 73.67272727272727,
                "pitch": 57,
                "velocity": 4,
                "duration": 2.6863636363636374,
                "tempo": 120.0
            },
            {
                "start_time": 73.15681818181818,
                "end_time": 73.93863636363636,
                "pitch": 59,
                "velocity": 4,
                "duration": 0.7818181818181813,
                "tempo": 120.0
            },
            {
                "start_time": 73.67272727272727,
                "end_time": 73.93863636363636,
                "pitch": 59,
                "velocity": 4,
                "duration": 0.26590909090909065,
                "tempo": 120.0
            },
            {
                "start_time": 73.93863636363636,
                "end_time": 74.20681818181818,
                "pitch": 56,
                "velocity": 4,
                "duration": 0.26818181818181586,
                "tempo": 120.0
            },
            {
                "start_time": 74.20681818181818,
                "end_time": 74.47272727272727,
                "pitch": 56,
                "velocity": 4,
                "duration": 0.26590909090909065,
                "tempo": 120.0
            },
            {
                "start_time": 73.67272727272727,
                "end_time": 74.47272727272727,
                "pitch": 57,
                "velocity": 4,
                "duration": 0.7999999999999972,
                "tempo": 120.0
            },
            {
                "start_time": 73.93863636363636,
                "end_time": 74.74090909090908,
                "pitch": 59,
                "velocity": 4,
                "duration": 0.8022727272727224,
                "tempo": 120.0
            },
            {
                "start_time": 74.47272727272727,
                "end_time": 74.74090909090908,
                "pitch": 59,
                "velocity": 4,
                "duration": 0.26818181818181586,
                "tempo": 120.0
            },
            {
                "start_time": 74.74090909090908,
                "end_time": 75.01363636363637,
                "pitch": 56,
                "velocity": 4,
                "duration": 0.2727272727272805,
                "tempo": 120.0
            },
            {
                "start_time": 75.01363636363637,
                "end_time": 75.28636363636363,
                "pitch": 56,
                "velocity": 4,
                "duration": 0.27272727272726627,
                "tempo": 120.0
            },
            {
                "start_time": 74.47272727272727,
                "end_time": 75.55681818181817,
                "pitch": 57,
                "velocity": 4,
                "duration": 1.0840909090909037,
                "tempo": 120.0
            },
            {
                "start_time": 75.28636363636363,
                "end_time": 75.55681818181817,
                "pitch": 57,
                "velocity": 4,
                "duration": 0.27045454545454106,
                "tempo": 120.0
            },
            {
                "start_time": 74.74090909090908,
                "end_time": 75.82954545454545,
                "pitch": 59,
                "velocity": 4,
                "duration": 1.0886363636363683,
                "tempo": 120.0
            },
            {
                "start_time": 75.55681818181817,
                "end_time": 75.82954545454545,
                "pitch": 59,
                "velocity": 4,
                "duration": 0.2727272727272805,
                "tempo": 120.0
            },
            {
                "start_time": 75.82954545454545,
                "end_time": 76.0909090909091,
                "pitch": 59,
                "velocity": 4,
                "duration": 0.26136363636364024,
                "tempo": 120.0
            },
            {
                "start_time": 70.17727272727272,
                "end_time": 76.0909090909091,
                "pitch": 60,
                "velocity": 4,
                "duration": 5.913636363636371,
                "tempo": 120.0
            },
            {
                "start_time": 75.55681818181817,
                "end_time": 76.35454545454544,
                "pitch": 57,
                "velocity": 4,
                "duration": 0.797727272727272,
                "tempo": 120.0
            },
            {
                "start_time": 76.0909090909091,
                "end_time": 76.35454545454544,
                "pitch": 57,
                "velocity": 4,
                "duration": 0.26363636363635123,
                "tempo": 120.0
            },
            {
                "start_time": 76.35454545454544,
                "end_time": 76.625,
                "pitch": 59,
                "velocity": 4,
                "duration": 0.2704545454545553,
                "tempo": 120.0
            },
            {
                "start_time": 76.625,
                "end_time": 76.89772727272727,
                "pitch": 59,
                "velocity": 4,
                "duration": 0.27272727272726627,
                "tempo": 120.0
            },
            {
                "start_time": 76.0909090909091,
                "end_time": 76.89772727272727,
                "pitch": 60,
                "velocity": 4,
                "duration": 0.8068181818181728,
                "tempo": 120.0
            },
            {
                "start_time": 76.35454545454544,
                "end_time": 77.16590909090908,
                "pitch": 57,
                "velocity": 4,
                "duration": 0.8113636363636374,
                "tempo": 120.0
            },
            {
                "start_time": 76.89772727272727,
                "end_time": 77.16590909090908,
                "pitch": 57,
                "velocity": 4,
                "duration": 0.26818181818181586,
                "tempo": 120.0
            },
            {
                "start_time": 77.16590909090908,
                "end_time": 77.43409090909091,
                "pitch": 59,
                "velocity": 4,
                "duration": 0.26818181818183007,
                "tempo": 120.0
            },
            {
                "start_time": 77.43409090909091,
                "end_time": 77.70454545454545,
                "pitch": 59,
                "velocity": 4,
                "duration": 0.27045454545454106,
                "tempo": 120.0
            },
            {
                "start_time": 77.70454545454545,
                "end_time": 77.975,
                "pitch": 59,
                "velocity": 4,
                "duration": 0.27045454545454106,
                "tempo": 120.0
            },
            {
                "start_time": 76.89772727272727,
                "end_time": 77.975,
                "pitch": 60,
                "velocity": 4,
                "duration": 1.077272727272728,
                "tempo": 120.0
            },
            {
                "start_time": 69.63863636363637,
                "end_time": 78.24318181818181,
                "pitch": 62,
                "velocity": 4,
                "duration": 8.604545454545445,
                "tempo": 120.0
            },
            {
                "start_time": 77.975,
                "end_time": 78.24318181818181,
                "pitch": 62,
                "velocity": 4,
                "duration": 0.26818181818181586,
                "tempo": 120.0
            },
            {
                "start_time": 78.24318181818181,
                "end_time": 78.5090909090909,
                "pitch": 59,
                "velocity": 4,
                "duration": 0.26590909090909065,
                "tempo": 120.0
            },
            {
                "start_time": 78.5090909090909,
                "end_time": 78.77727272727272,
                "pitch": 59,
                "velocity": 4,
                "duration": 0.26818181818181586,
                "tempo": 120.0
            },
            {
                "start_time": 77.975,
                "end_time": 78.77727272727272,
                "pitch": 60,
                "velocity": 4,
                "duration": 0.8022727272727224,
                "tempo": 120.0
            },
            {
                "start_time": 78.24318181818181,
                "end_time": 79.04545454545455,
                "pitch": 62,
                "velocity": 4,
                "duration": 0.8022727272727366,
                "tempo": 120.0
            },
            {
                "start_time": 78.77727272727272,
                "end_time": 79.04545454545455,
                "pitch": 62,
                "velocity": 4,
                "duration": 0.26818181818183007,
                "tempo": 120.0
            },
            {
                "start_time": 79.04545454545455,
                "end_time": 79.31363636363636,
                "pitch": 59,
                "velocity": 4,
                "duration": 0.26818181818181586,
                "tempo": 120.0
            },
            {
                "start_time": 79.31363636363636,
                "end_time": 79.58181818181818,
                "pitch": 59,
                "velocity": 4,
                "duration": 0.26818181818181586,
                "tempo": 120.0
            },
            {
                "start_time": 78.77727272727272,
                "end_time": 79.58181818181818,
                "pitch": 60,
                "velocity": 4,
                "duration": 0.8045454545454618,
                "tempo": 120.0
            },
            {
                "start_time": 79.04545454545455,
                "end_time": 79.85227272727272,
                "pitch": 62,
                "velocity": 4,
                "duration": 0.8068181818181728,
                "tempo": 120.0
            },
            {
                "start_time": 79.58181818181818,
                "end_time": 79.85227272727272,
                "pitch": 62,
                "velocity": 4,
                "duration": 0.27045454545454106,
                "tempo": 120.0
            },
            {
                "start_time": 69.11363636363636,
                "end_time": 80.125,
                "pitch": 64,
                "velocity": 4,
                "duration": 11.01136363636364,
                "tempo": 120.0
            },
            {
                "start_time": 79.85227272727272,
                "end_time": 80.125,
                "pitch": 64,
                "velocity": 4,
                "duration": 0.2727272727272805,
                "tempo": 120.0
            },
            {
                "start_time": 79.58181818181818,
                "end_time": 80.39090909090909,
                "pitch": 60,
                "velocity": 4,
                "duration": 0.8090909090909122,
                "tempo": 120.0
            },
            {
                "start_time": 80.125,
                "end_time": 80.39090909090909,
                "pitch": 60,
                "velocity": 4,
                "duration": 0.26590909090909065,
                "tempo": 120.0
            },
            {
                "start_time": 79.85227272727272,
                "end_time": 80.6590909090909,
                "pitch": 62,
                "velocity": 4,
                "duration": 0.806818181818187,
                "tempo": 120.0
            },
            {
                "start_time": 80.39090909090909,
                "end_time": 80.6590909090909,
                "pitch": 62,
                "velocity": 4,
                "duration": 0.26818181818181586,
                "tempo": 120.0
            },
            {
                "start_time": 80.6590909090909,
                "end_time": 80.92727272727272,
                "pitch": 59,
                "velocity": 4,
                "duration": 0.26818181818181586,
                "tempo": 120.0
            },
            {
                "start_time": 80.92727272727272,
                "end_time": 81.19318181818181,
                "pitch": 59,
                "velocity": 4,
                "duration": 0.26590909090909065,
                "tempo": 120.0
            },
            {
                "start_time": 80.39090909090909,
                "end_time": 81.19318181818181,
                "pitch": 60,
                "velocity": 4,
                "duration": 0.8022727272727224,
                "tempo": 120.0
            },
            {
                "start_time": 77.16590909090908,
                "end_time": 81.4659090909091,
                "pitch": 57,
                "velocity": 4,
                "duration": 4.300000000000011,
                "tempo": 120.0
            },
            {
                "start_time": 81.19318181818181,
                "end_time": 81.4659090909091,
                "pitch": 57,
                "velocity": 4,
                "duration": 0.2727272727272805,
                "tempo": 120.0
            },
            {
                "start_time": 81.4659090909091,
                "end_time": 81.73863636363636,
                "pitch": 59,
                "velocity": 4,
                "duration": 0.27272727272726627,
                "tempo": 120.0
            },
            {
                "start_time": 81.73863636363636,
                "end_time": 82.00227272727273,
                "pitch": 56,
                "velocity": 4,
                "duration": 0.26363636363636545,
                "tempo": 120.0
            },
            {
                "start_time": 82.00227272727273,
                "end_time": 82.27045454545454,
                "pitch": 56,
                "velocity": 4,
                "duration": 0.26818181818181586,
                "tempo": 120.0
            },
            {
                "start_time": 81.4659090909091,
                "end_time": 82.27045454545454,
                "pitch": 57,
                "velocity": 4,
                "duration": 0.8045454545454476,
                "tempo": 120.0
            },
            {
                "start_time": 81.73863636363636,
                "end_time": 82.54090909090908,
                "pitch": 59,
                "velocity": 4,
                "duration": 0.8022727272727224,
                "tempo": 120.0
            },
            {
                "start_time": 82.27045454545454,
                "end_time": 82.54090909090908,
                "pitch": 59,
                "velocity": 4,
                "duration": 0.27045454545454106,
                "tempo": 120.0
            },
            {
                "start_time": 82.54090909090908,
                "end_time": 82.81363636363636,
                "pitch": 56,
                "velocity": 4,
                "duration": 0.2727272727272805,
                "tempo": 120.0
            },
            {
                "start_time": 82.81363636363636,
                "end_time": 83.08181818181818,
                "pitch": 56,
                "velocity": 4,
                "duration": 0.26818181818181586,
                "tempo": 120.0
            },
            {
                "start_time": 82.27045454545454,
                "end_time": 83.08181818181818,
                "pitch": 57,
                "velocity": 4,
                "duration": 0.8113636363636374,
                "tempo": 120.0
            },
            {
                "start_time": 82.54090909090908,
                "end_time": 83.35,
                "pitch": 59,
                "velocity": 4,
                "duration": 0.8090909090909122,
                "tempo": 120.0
            },
            {
                "start_time": 83.08181818181818,
                "end_time": 83.35,
                "pitch": 59,
                "velocity": 4,
                "duration": 0.26818181818181586,
                "tempo": 120.0
            },
            {
                "start_time": 83.35,
                "end_time": 83.61590909090908,
                "pitch": 56,
                "velocity": 4,
                "duration": 0.26590909090909065,
                "tempo": 120.0
            },
            {
                "start_time": 83.61590909090908,
                "end_time": 83.8840909090909,
                "pitch": 56,
                "velocity": 4,
                "duration": 0.26818181818181586,
                "tempo": 120.0
            },
            {
                "start_time": 83.08181818181818,
                "end_time": 84.14999999999999,
                "pitch": 57,
                "velocity": 4,
                "duration": 1.068181818181813,
                "tempo": 120.0
            },
            {
                "start_time": 83.8840909090909,
                "end_time": 84.14999999999999,
                "pitch": 57,
                "velocity": 4,
                "duration": 0.26590909090909065,
                "tempo": 120.0
            },
            {
                "start_time": 83.35,
                "end_time": 84.41818181818181,
                "pitch": 59,
                "velocity": 4,
                "duration": 1.068181818181813,
                "tempo": 120.0
            },
            {
                "start_time": 84.14999999999999,
                "end_time": 84.41818181818181,
                "pitch": 59,
                "velocity": 4,
                "duration": 0.26818181818181586,
                "tempo": 120.0
            },
            {
                "start_time": 84.41818181818181,
                "end_time": 84.68863636363636,
                "pitch": 59,
                "velocity": 4,
                "duration": 0.2704545454545553,
                "tempo": 120.0
            },
            {
                "start_time": 81.19318181818181,
                "end_time": 84.68863636363636,
                "pitch": 60,
                "velocity": 4,
                "duration": 3.4954545454545496,
                "tempo": 120.0
            },
            {
                "start_time": 84.14999999999999,
                "end_time": 84.96136363636363,
                "pitch": 57,
                "velocity": 4,
                "duration": 0.8113636363636374,
                "tempo": 120.0
            },
            {
                "start_time": 84.68863636363636,
                "end_time": 84.96136363636363,
                "pitch": 57,
                "velocity": 4,
                "duration": 0.27272727272726627,
                "tempo": 120.0
            },
            {
                "start_time": 84.96136363636363,
                "end_time": 85.22727272727272,
                "pitch": 59,
                "velocity": 4,
                "duration": 0.26590909090909065,
                "tempo": 120.0
            },
            {
                "start_time": 85.22727272727272,
                "end_time": 85.49545454545454,
                "pitch": 59,
                "velocity": 4,
                "duration": 0.26818181818181586,
                "tempo": 120.0
            },
            {
                "start_time": 84.68863636363636,
                "end_time": 85.49545454545454,
                "pitch": 60,
                "velocity": 4,
                "duration": 0.8068181818181728,
                "tempo": 120.0
            },
            {
                "start_time": 84.96136363636363,
                "end_time": 85.76363636363637,
                "pitch": 57,
                "velocity": 4,
                "duration": 0.8022727272727366,
                "tempo": 120.0
            },
            {
                "start_time": 85.49545454545454,
                "end_time": 85.76363636363637,
                "pitch": 57,
                "velocity": 4,
                "duration": 0.26818181818183007,
                "tempo": 120.0
            },
            {
                "start_time": 85.76363636363637,
                "end_time": 86.03181818181818,
                "pitch": 59,
                "velocity": 4,
                "duration": 0.26818181818181586,
                "tempo": 120.0
            },
            {
                "start_time": 80.125,
                "end_time": 86.30227272727272,
                "pitch": 64,
                "velocity": 4,
                "duration": 6.177272727272722,
                "tempo": 120.0
            },
            {
                "start_time": 86.03181818181818,
                "end_time": 86.30227272727272,
                "pitch": 64,
                "velocity": 4,
                "duration": 0.27045454545454106,
                "tempo": 120.0
            },
            {
                "start_time": 85.49545454545454,
                "end_time": 86.575,
                "pitch": 60,
                "velocity": 4,
                "duration": 1.0795454545454675,
                "tempo": 120.0
            },
            {
                "start_time": 86.30227272727272,
                "end_time": 86.575,
                "pitch": 60,
                "velocity": 4,
                "duration": 0.2727272727272805,
                "tempo": 120.0
            },
            {
                "start_time": 80.6590909090909,
                "end_time": 86.8409090909091,
                "pitch": 62,
                "velocity": 4,
                "duration": 6.181818181818187,
                "tempo": 120.0
            },
            {
                "start_time": 86.575,
                "end_time": 86.8409090909091,
                "pitch": 62,
                "velocity": 4,
                "duration": 0.26590909090909065,
                "tempo": 120.0
            },
            {
                "start_time": 86.03181818181818,
                "end_time": 87.10909090909091,
                "pitch": 59,
                "velocity": 4,
                "duration": 1.077272727272728,
                "tempo": 120.0
            },
            {
                "start_time": 86.8409090909091,
                "end_time": 87.10909090909091,
                "pitch": 59,
                "velocity": 4,
                "duration": 0.26818181818181586,
                "tempo": 120.0
            },
            {
                "start_time": 87.10909090909091,
                "end_time": 87.925,
                "pitch": 56,
                "velocity": 4,
                "duration": 0.8159090909090878,
                "tempo": 120.0
            },
            {
                "start_time": 87.925,
                "end_time": 88.20681818181818,
                "pitch": 56,
                "velocity": 4,
                "duration": 0.2818181818181813,
                "tempo": 120.0
            },
            {
                "start_time": 85.76363636363637,
                "end_time": 90.35681818181818,
                "pitch": 57,
                "velocity": 4,
                "duration": 4.593181818181819,
                "tempo": 120.0
            },
            {
                "start_time": 88.2090909090909,
                "end_time": 90.35681818181818,
                "pitch": 57,
                "velocity": 4,
                "duration": 2.1477272727272805,
                "tempo": 120.0
            },
            {
                "start_time": 52.16590909090909,
                "end_time": 90.61136363636363,
                "pitch": 45,
                "velocity": 4,
                "duration": 38.445454545454545,
                "tempo": 120.0
            },
            {
                "start_time": 90.35681818181818,
                "end_time": 90.61136363636363,
                "pitch": 57,
                "velocity": 4,
                "duration": 0.2545454545454504,
                "tempo": 120.0
            },
            {
                "start_time": 90.61136363636363,
                "end_time": 90.87045454545454,
                "pitch": 52,
                "velocity": 4,
                "duration": 0.2590909090909008,
                "tempo": 120.0
            },
            {
                "start_time": 86.30227272727272,
                "end_time": 90.87045454545454,
                "pitch": 64,
                "velocity": 4,
                "duration": 4.568181818181813,
                "tempo": 120.0
            },
            {
                "start_time": 63.184090909090905,
                "end_time": 91.13636363636363,
                "pitch": 48,
                "velocity": 4,
                "duration": 27.95227272727272,
                "tempo": 120.0
            },
            {
                "start_time": 86.575,
                "end_time": 91.13636363636363,
                "pitch": 60,
                "velocity": 4,
                "duration": 4.561363636363623,
                "tempo": 120.0
            },
            {
                "start_time": 90.87045454545454,
                "end_time": 91.13636363636363,
                "pitch": 60,
                "velocity": 4,
                "duration": 0.26590909090909065,
                "tempo": 120.0
            },
            {
                "start_time": 91.13636363636363,
                "end_time": 91.40454545454546,
                "pitch": 52,
                "velocity": 4,
                "duration": 0.26818181818183007,
                "tempo": 120.0
            },
            {
                "start_time": 90.87045454545454,
                "end_time": 91.40454545454546,
                "pitch": 64,
                "velocity": 4,
                "duration": 0.5340909090909207,
                "tempo": 120.0
            },
            {
                "start_time": 30.93409090909091,
                "end_time": 91.675,
                "pitch": 47,
                "velocity": 4,
                "duration": 60.740909090909085,
                "tempo": 120.0
            },
            {
                "start_time": 87.10909090909091,
                "end_time": 91.675,
                "pitch": 59,
                "velocity": 4,
                "duration": 4.565909090909088,
                "tempo": 120.0
            },
            {
                "start_time": 91.40454545454546,
                "end_time": 91.675,
                "pitch": 59,
                "velocity": 4,
                "duration": 0.27045454545454106,
                "tempo": 120.0
            },
            {
                "start_time": 91.675,
                "end_time": 91.94772727272726,
                "pitch": 52,
                "velocity": 4,
                "duration": 0.27272727272726627,
                "tempo": 120.0
            },
            {
                "start_time": 91.40454545454546,
                "end_time": 91.94772727272726,
                "pitch": 64,
                "velocity": 4,
                "duration": 0.5431818181818073,
                "tempo": 120.0
            },
            {
                "start_time": 90.61136363636363,
                "end_time": 92.2159090909091,
                "pitch": 45,
                "velocity": 4,
                "duration": 1.604545454545459,
                "tempo": 120.0
            },
            {
                "start_time": 91.94772727272726,
                "end_time": 92.2159090909091,
                "pitch": 57,
                "velocity": 4,
                "duration": 0.26818181818183007,
                "tempo": 120.0
            },
            {
                "start_time": 92.2159090909091,
                "end_time": 92.48409090909091,
                "pitch": 52,
                "velocity": 4,
                "duration": 0.26818181818181586,
                "tempo": 120.0
            },
            {
                "start_time": 91.94772727272726,
                "end_time": 92.48409090909091,
                "pitch": 64,
                "velocity": 4,
                "duration": 0.5363636363636459,
                "tempo": 120.0
            },
            {
                "start_time": 28.786363636363635,
                "end_time": 92.75454545454545,
                "pitch": 44,
                "velocity": 4,
                "duration": 63.96818181818182,
                "tempo": 120.0
            },
            {
                "start_time": 92.48409090909091,
                "end_time": 92.75454545454545,
                "pitch": 56,
                "velocity": 4,
                "duration": 0.27045454545454106,
                "tempo": 120.0
            },
            {
                "start_time": 92.75454545454545,
                "end_time": 93.02727272727272,
                "pitch": 52,
                "velocity": 4,
                "duration": 0.27272727272726627,
                "tempo": 120.0
            },
            {
                "start_time": 92.48409090909091,
                "end_time": 93.02727272727272,
                "pitch": 64,
                "velocity": 4,
                "duration": 0.5431818181818073,
                "tempo": 120.0
            },
            {
                "start_time": 91.675,
                "end_time": 93.29318181818181,
                "pitch": 47,
                "velocity": 4,
                "duration": 1.6181818181818102,
                "tempo": 120.0
            },
            {
                "start_time": 93.02727272727272,
                "end_time": 93.29318181818181,
                "pitch": 59,
                "velocity": 4,
                "duration": 0.26590909090909065,
                "tempo": 120.0
            },
            {
                "start_time": 93.29318181818181,
                "end_time": 93.56136363636364,
                "pitch": 52,
                "velocity": 4,
                "duration": 0.26818181818183007,
                "tempo": 120.0
            },
            {
                "start_time": 93.02727272727272,
                "end_time": 93.56136363636364,
                "pitch": 64,
                "velocity": 4,
                "duration": 0.5340909090909207,
                "tempo": 120.0
            },
            {
                "start_time": 92.2159090909091,
                "end_time": 93.82727272727273,
                "pitch": 45,
                "velocity": 4,
                "duration": 1.6113636363636346,
                "tempo": 120.0
            },
            {
                "start_time": 93.56136363636364,
                "end_time": 93.82727272727273,
                "pitch": 57,
                "velocity": 4,
                "duration": 0.26590909090909065,
                "tempo": 120.0
            },
            {
                "start_time": 93.82727272727273,
                "end_time": 94.09545454545454,
                "pitch": 52,
                "velocity": 4,
                "duration": 0.26818181818181586,
                "tempo": 120.0
            },
            {
                "start_time": 93.56136363636364,
                "end_time": 94.09545454545454,
                "pitch": 64,
                "velocity": 4,
                "duration": 0.5340909090909065,
                "tempo": 120.0
            },
            {
                "start_time": 92.75454545454545,
                "end_time": 94.36136363636363,
                "pitch": 44,
                "velocity": 4,
                "duration": 1.6068181818181841,
                "tempo": 120.0
            },
            {
                "start_time": 94.09545454545454,
                "end_time": 94.36136363636363,
                "pitch": 56,
                "velocity": 4,
                "duration": 0.26590909090909065,
                "tempo": 120.0
            },
            {
                "start_time": 94.36136363636363,
                "end_time": 94.63181818181818,
                "pitch": 52,
                "velocity": 4,
                "duration": 0.27045454545454106,
                "tempo": 120.0
            },
            {
                "start_time": 94.09545454545454,
                "end_time": 94.63181818181818,
                "pitch": 64,
                "velocity": 4,
                "duration": 0.5363636363636317,
                "tempo": 120.0
            },
            {
                "start_time": 57.55,
                "end_time": 94.90227272727272,
                "pitch": 43,
                "velocity": 4,
                "duration": 37.35227272727272,
                "tempo": 120.0
            },
            {
                "start_time": 94.63181818181818,
                "end_time": 94.90227272727272,
                "pitch": 55,
                "velocity": 4,
                "duration": 0.27045454545454106,
                "tempo": 120.0
            },
            {
                "start_time": 52.709090909090904,
                "end_time": 95.17272727272727,
                "pitch": 50,
                "velocity": 4,
                "duration": 42.46363636363637,
                "tempo": 120.0
            },
            {
                "start_time": 94.90227272727272,
                "end_time": 95.17272727272727,
                "pitch": 50,
                "velocity": 4,
                "duration": 0.2704545454545553,
                "tempo": 120.0
            },
            {
                "start_time": 86.8409090909091,
                "end_time": 95.17272727272727,
                "pitch": 62,
                "velocity": 4,
                "duration": 8.331818181818178,
                "tempo": 120.0
            },
            {
                "start_time": 93.29318181818181,
                "end_time": 95.44090909090909,
                "pitch": 47,
                "velocity": 4,
                "duration": 2.1477272727272805,
                "tempo": 120.0
            },
            {
                "start_time": 95.17272727272727,
                "end_time": 95.44090909090909,
                "pitch": 59,
                "velocity": 4,
                "duration": 0.26818181818181586,
                "tempo": 120.0
            },
            {
                "start_time": 95.44090909090909,
                "end_time": 95.70681818181818,
                "pitch": 50,
                "velocity": 4,
                "duration": 0.26590909090909065,
                "tempo": 120.0
            },
            {
                "start_time": 95.17272727272727,
                "end_time": 95.70681818181818,
                "pitch": 62,
                "velocity": 4,
                "duration": 0.5340909090909065,
                "tempo": 120.0
            },
            {
                "start_time": 93.82727272727273,
                "end_time": 95.975,
                "pitch": 45,
                "velocity": 4,
                "duration": 2.1477272727272663,
                "tempo": 120.0
            },
            {
                "start_time": 95.70681818181818,
                "end_time": 95.975,
                "pitch": 57,
                "velocity": 4,
                "duration": 0.26818181818181586,
                "tempo": 120.0
            },
            {
                "start_time": 95.975,
                "end_time": 96.24318181818181,
                "pitch": 50,
                "velocity": 4,
                "duration": 0.26818181818181586,
                "tempo": 120.0
            },
            {
                "start_time": 95.70681818181818,
                "end_time": 96.24318181818181,
                "pitch": 62,
                "velocity": 4,
                "duration": 0.5363636363636317,
                "tempo": 120.0
            },
            {
                "start_time": 94.90227272727272,
                "end_time": 96.51363636363637,
                "pitch": 43,
                "velocity": 4,
                "duration": 1.6113636363636488,
                "tempo": 120.0
            },
            {
                "start_time": 96.24318181818181,
                "end_time": 96.51363636363637,
                "pitch": 55,
                "velocity": 4,
                "duration": 0.2704545454545553,
                "tempo": 120.0
            },
            {
                "start_time": 96.51363636363637,
                "end_time": 96.78863636363636,
                "pitch": 50,
                "velocity": 4,
                "duration": 0.2749999999999915,
                "tempo": 120.0
            },
            {
                "start_time": 52.43636363636363,
                "end_time": 97.05454545454545,
                "pitch": 54,
                "velocity": 4,
                "duration": 44.61818181818182,
                "tempo": 120.0
            },
            {
                "start_time": 96.78863636363636,
                "end_time": 97.05454545454545,
                "pitch": 54,
                "velocity": 4,
                "duration": 0.26590909090909065,
                "tempo": 120.0
            },
            {
                "start_time": 96.78863636363636,
                "end_time": 97.32045454545454,
                "pitch": 50,
                "velocity": 4,
                "duration": 0.5318181818181813,
                "tempo": 120.0
            },
            {
                "start_time": 97.05454545454545,
                "end_time": 97.32045454545454,
                "pitch": 50,
                "velocity": 4,
                "duration": 0.26590909090909065,
                "tempo": 120.0
            },
            {
                "start_time": 96.24318181818181,
                "end_time": 97.32045454545454,
                "pitch": 62,
                "velocity": 4,
                "duration": 1.077272727272728,
                "tempo": 120.0
            },
            {
                "start_time": 96.51363636363637,
                "end_time": 97.58863636363635,
                "pitch": 43,
                "velocity": 4,
                "duration": 1.0749999999999886,
                "tempo": 120.0
            },
            {
                "start_time": 97.32045454545454,
                "end_time": 97.58863636363635,
                "pitch": 55,
                "velocity": 4,
                "duration": 0.26818181818181586,
                "tempo": 120.0
            },
            {
                "start_time": 97.58863636363635,
                "end_time": 97.85454545454544,
                "pitch": 50,
                "velocity": 4,
                "duration": 0.26590909090909065,
                "tempo": 120.0
            },
            {
                "start_time": 97.32045454545454,
                "end_time": 97.85454545454544,
                "pitch": 62,
                "velocity": 4,
                "duration": 0.5340909090909065,
                "tempo": 120.0
            },
            {
                "start_time": 95.975,
                "end_time": 98.12727272727273,
                "pitch": 45,
                "velocity": 4,
                "duration": 2.152272727272731,
                "tempo": 120.0
            },
            {
                "start_time": 97.85454545454544,
                "end_time": 98.12727272727273,
                "pitch": 57,
                "velocity": 4,
                "duration": 0.2727272727272805,
                "tempo": 120.0
            },
            {
                "start_time": 98.12727272727273,
                "end_time": 98.39772727272727,
                "pitch": 50,
                "velocity": 4,
                "duration": 0.27045454545454106,
                "tempo": 120.0
            },
            {
                "start_time": 97.85454545454544,
                "end_time": 98.39772727272727,
                "pitch": 62,
                "velocity": 4,
                "duration": 0.5431818181818215,
                "tempo": 120.0
            },
            {
                "start_time": 97.58863636363635,
                "end_time": 98.66590909090908,
                "pitch": 43,
                "velocity": 4,
                "duration": 1.077272727272728,
                "tempo": 120.0
            },
            {
                "start_time": 98.39772727272727,
                "end_time": 98.66590909090908,
                "pitch": 55,
                "velocity": 4,
                "duration": 0.26818181818181586,
                "tempo": 120.0
            },
            {
                "start_time": 98.66590909090908,
                "end_time": 98.93636363636364,
                "pitch": 50,
                "velocity": 4,
                "duration": 0.2704545454545553,
                "tempo": 120.0
            },
            {
                "start_time": 98.39772727272727,
                "end_time": 98.93636363636364,
                "pitch": 62,
                "velocity": 4,
                "duration": 0.5386363636363711,
                "tempo": 120.0
            },
            {
                "start_time": 98.12727272727273,
                "end_time": 99.20454545454545,
                "pitch": 45,
                "velocity": 4,
                "duration": 1.077272727272728,
                "tempo": 120.0
            },
            {
                "start_time": 98.93636363636364,
                "end_time": 99.20454545454545,
                "pitch": 57,
                "velocity": 4,
                "duration": 0.26818181818181586,
                "tempo": 120.0
            },
            {
                "start_time": 99.20454545454545,
                "end_time": 99.47727272727272,
                "pitch": 52,
                "velocity": 4,
                "duration": 0.27272727272726627,
                "tempo": 120.0
            },
            {
                "start_time": 94.63181818181818,
                "end_time": 99.47727272727272,
                "pitch": 64,
                "velocity": 4,
                "duration": 4.845454545454544,
                "tempo": 120.0
            },
            {
                "start_time": 91.13636363636363,
                "end_time": 99.74545454545454,
                "pitch": 48,
                "velocity": 4,
                "duration": 8.60909090909091,
                "tempo": 120.0
            },
            {
                "start_time": 99.47727272727272,
                "end_time": 99.74545454545454,
                "pitch": 60,
                "velocity": 4,
                "duration": 0.26818181818181586,
                "tempo": 120.0
            },
            {
                "start_time": 99.74545454545454,
                "end_time": 100.01363636363637,
                "pitch": 52,
                "velocity": 4,
                "duration": 0.26818181818183007,
                "tempo": 120.0
            },
            {
                "start_time": 99.47727272727272,
                "end_time": 100.01363636363637,
                "pitch": 64,
                "velocity": 4,
                "duration": 0.5363636363636459,
                "tempo": 120.0
            },
            {
                "start_time": 95.44090909090909,
                "end_time": 100.2840909090909,
                "pitch": 47,
                "velocity": 4,
                "duration": 4.843181818181819,
                "tempo": 120.0
            },
            {
                "start_time": 100.01363636363637,
                "end_time": 100.2840909090909,
                "pitch": 59,
                "velocity": 4,
                "duration": 0.27045454545454106,
                "tempo": 120.0
            },
            {
                "start_time": 100.2840909090909,
                "end_time": 100.55681818181817,
                "pitch": 52,
                "velocity": 4,
                "duration": 0.27272727272726627,
                "tempo": 120.0
            },
            {
                "start_time": 100.01363636363637,
                "end_time": 100.55681818181817,
                "pitch": 64,
                "velocity": 4,
                "duration": 0.5431818181818073,
                "tempo": 120.0
            },
            {
                "start_time": 99.20454545454545,
                "end_time": 100.82272727272726,
                "pitch": 45,
                "velocity": 4,
                "duration": 1.6181818181818102,
                "tempo": 120.0
            },
            {
                "start_time": 100.55681818181817,
                "end_time": 100.82272727272726,
                "pitch": 57,
                "velocity": 4,
                "duration": 0.26590909090909065,
                "tempo": 120.0
            },
            {
                "start_time": 100.82272727272726,
                "end_time": 101.09090909090908,
                "pitch": 52,
                "velocity": 4,
                "duration": 0.26818181818181586,
                "tempo": 120.0
            },
            {
                "start_time": 100.55681818181817,
                "end_time": 101.09090909090908,
                "pitch": 64,
                "velocity": 4,
                "duration": 0.5340909090909065,
                "tempo": 120.0
            },
            {
                "start_time": 98.93636363636364,
                "end_time": 101.35681818181817,
                "pitch": 62,
                "velocity": 4,
                "duration": 2.4204545454545325,
                "tempo": 120.0
            },
            {
                "start_time": 101.09090909090908,
                "end_time": 101.35681818181817,
                "pitch": 62,
                "velocity": 4,
                "duration": 0.26590909090909065,
                "tempo": 120.0
            },
            {
                "start_time": 101.35681818181817,
                "end_time": 101.625,
                "pitch": 52,
                "velocity": 4,
                "duration": 0.26818181818183007,
                "tempo": 120.0
            },
            {
                "start_time": 101.09090909090908,
                "end_time": 101.625,
                "pitch": 64,
                "velocity": 4,
                "duration": 0.5340909090909207,
                "tempo": 120.0
            },
            {
                "start_time": 100.2840909090909,
                "end_time": 101.89090909090909,
                "pitch": 47,
                "velocity": 4,
                "duration": 1.6068181818181841,
                "tempo": 120.0
            },
            {
                "start_time": 101.625,
                "end_time": 101.89090909090909,
                "pitch": 59,
                "velocity": 4,
                "duration": 0.26590909090909065,
                "tempo": 120.0
            },
            {
                "start_time": 101.89090909090909,
                "end_time": 102.1590909090909,
                "pitch": 52,
                "velocity": 4,
                "duration": 0.26818181818181586,
                "tempo": 120.0
            },
            {
                "start_time": 101.625,
                "end_time": 102.1590909090909,
                "pitch": 64,
                "velocity": 4,
                "duration": 0.5340909090909065,
                "tempo": 120.0
            },
            {
                "start_time": 102.1590909090909,
                "end_time": 102.425,
                "pitch": 56,
                "velocity": 4,
                "duration": 0.26590909090909065,
                "tempo": 120.0
            },
            {
                "start_time": 94.36136363636363,
                "end_time": 102.42727272727272,
                "pitch": 44,
                "velocity": 4,
                "duration": 8.065909090909088,
                "tempo": 120.0
            },
            {
                "start_time": 102.42727272727272,
                "end_time": 102.69318181818181,
                "pitch": 52,
                "velocity": 4,
                "duration": 0.26590909090909065,
                "tempo": 120.0
            },
            {
                "start_time": 102.1590909090909,
                "end_time": 102.69318181818181,
                "pitch": 64,
                "velocity": 4,
                "duration": 0.5340909090909065,
                "tempo": 120.0
            },
            {
                "start_time": 101.89090909090909,
                "end_time": 102.96590909090908,
                "pitch": 47,
                "velocity": 4,
                "duration": 1.0749999999999886,
                "tempo": 120.0
            },
            {
                "start_time": 102.69318181818181,
                "end_time": 102.96590909090908,
                "pitch": 59,
                "velocity": 4,
                "duration": 0.27272727272726627,
                "tempo": 120.0
            },
            {
                "start_time": 102.96590909090908,
                "end_time": 103.23863636363636,
                "pitch": 52,
                "velocity": 4,
                "duration": 0.2727272727272805,
                "tempo": 120.0
            },
            {
                "start_time": 102.69318181818181,
                "end_time": 103.23863636363636,
                "pitch": 64,
                "velocity": 4,
                "duration": 0.5454545454545467,
                "tempo": 120.0
            },
            {
                "start_time": 98.66590909090908,
                "end_time": 103.50454545454545,
                "pitch": 43,
                "velocity": 4,
                "duration": 4.838636363636368,
                "tempo": 120.0
            },
            {
                "start_time": 103.23863636363636,
                "end_time": 103.50454545454545,
                "pitch": 55,
                "velocity": 4,
                "duration": 0.26590909090909065,
                "tempo": 120.0
            },
            {
                "start_time": 101.35681818181817,
                "end_time": 103.77272727272727,
                "pitch": 50,
                "velocity": 4,
                "duration": 2.4159090909090963,
                "tempo": 120.0
            },
            {
                "start_time": 103.50454545454545,
                "end_time": 103.77272727272727,
                "pitch": 50,
                "velocity": 4,
                "duration": 0.26818181818181586,
                "tempo": 120.0
            },
            {
                "start_time": 102.96590909090908,
                "end_time": 104.04318181818181,
                "pitch": 47,
                "velocity": 4,
                "duration": 1.077272727272728,
                "tempo": 120.0
            },
            {
                "start_time": 103.77272727272727,
                "end_time": 104.04318181818181,
                "pitch": 59,
                "velocity": 4,
                "duration": 0.27045454545454106,
                "tempo": 120.0
            },
            {
                "start_time": 104.04318181818181,
                "end_time": 104.31590909090909,
                "pitch": 50,
                "velocity": 4,
                "duration": 0.2727272727272805,
                "tempo": 120.0
            },
            {
                "start_time": 103.77272727272727,
                "end_time": 104.31590909090909,
                "pitch": 62,
                "velocity": 4,
                "duration": 0.5431818181818215,
                "tempo": 120.0
            },
            {
                "start_time": 100.82272727272726,
                "end_time": 104.58181818181818,
                "pitch": 45,
                "velocity": 4,
                "duration": 3.759090909090915,
                "tempo": 120.0
            },
            {
                "start_time": 104.31590909090909,
                "end_time": 104.58181818181818,
                "pitch": 57,
                "velocity": 4,
                "duration": 0.26590909090909065,
                "tempo": 120.0
            },
            {
                "start_time": 104.58181818181818,
                "end_time": 104.85,
                "pitch": 50,
                "velocity": 4,
                "duration": 0.26818181818181586,
                "tempo": 120.0
            },
            {
                "start_time": 104.31590909090909,
                "end_time": 104.85,
                "pitch": 62,
                "velocity": 4,
                "duration": 0.5340909090909065,
                "tempo": 120.0
            },
            {
                "start_time": 99.74545454545454,
                "end_time": 105.11818181818181,
                "pitch": 48,
                "velocity": 4,
                "duration": 5.372727272727275,
                "tempo": 120.0
            },
            {
                "start_time": 104.85,
                "end_time": 105.11818181818181,
                "pitch": 60,
                "velocity": 4,
                "duration": 0.26818181818181586,
                "tempo": 120.0
            },
            {
                "start_time": 105.11818181818181,
                "end_time": 105.38636363636363,
                "pitch": 50,
                "velocity": 4,
                "duration": 0.26818181818181586,
                "tempo": 120.0
            },
            {
                "start_time": 104.85,
                "end_time": 105.38636363636363,
                "pitch": 62,
                "velocity": 4,
                "duration": 0.5363636363636317,
                "tempo": 120.0
            },
            {
                "start_time": 104.04318181818181,
                "end_time": 105.65681818181818,
                "pitch": 47,
                "velocity": 4,
                "duration": 1.613636363636374,
                "tempo": 120.0
            },
            {
                "start_time": 105.38636363636363,
                "end_time": 105.65681818181818,
                "pitch": 59,
                "velocity": 4,
                "duration": 0.2704545454545553,
                "tempo": 120.0
            },
            {
                "start_time": 105.65681818181818,
                "end_time": 105.92954545454545,
                "pitch": 50,
                "velocity": 4,
                "duration": 0.27272727272726627,
                "tempo": 120.0
            },
            {
                "start_time": 105.38636363636363,
                "end_time": 105.92954545454545,
                "pitch": 62,
                "velocity": 4,
                "duration": 0.5431818181818215,
                "tempo": 120.0
            },
            {
                "start_time": 103.50454545454545,
                "end_time": 106.19545454545454,
                "pitch": 43,
                "velocity": 4,
                "duration": 2.690909090909088,
                "tempo": 120.0
            },
            {
                "start_time": 105.92954545454545,
                "end_time": 106.19545454545454,
                "pitch": 55,
                "velocity": 4,
                "duration": 0.26590909090909065,
                "tempo": 120.0
            },
            {
                "start_time": 106.19545454545454,
                "end_time": 106.46363636363635,
                "pitch": 50,
                "velocity": 4,
                "duration": 0.26818181818181586,
                "tempo": 120.0
            },
            {
                "start_time": 97.05454545454545,
                "end_time": 106.72954545454544,
                "pitch": 54,
                "velocity": 4,
                "duration": 9.674999999999997,
                "tempo": 120.0
            },
            {
                "start_time": 106.46363636363635,
                "end_time": 106.72954545454544,
                "pitch": 54,
                "velocity": 4,
                "duration": 0.26590909090909065,
                "tempo": 120.0
            },
            {
                "start_time": 106.46363636363635,
                "end_time": 106.99772727272726,
                "pitch": 50,
                "velocity": 4,
                "duration": 0.5340909090909065,
                "tempo": 120.0
            },
            {
                "start_time": 106.72954545454544,
                "end_time": 106.99772727272726,
                "pitch": 50,
                "velocity": 4,
                "duration": 0.26818181818181586,
                "tempo": 120.0
            },
            {
                "start_time": 105.92954545454545,
                "end_time": 106.99772727272726,
                "pitch": 62,
                "velocity": 4,
                "duration": 1.068181818181813,
                "tempo": 120.0
            },
            {
                "start_time": 106.19545454545454,
                "end_time": 107.26818181818182,
                "pitch": 43,
                "velocity": 4,
                "duration": 1.0727272727272776,
                "tempo": 120.0
            },
            {
                "start_time": 106.99772727272726,
                "end_time": 107.26818181818182,
                "pitch": 55,
                "velocity": 4,
                "duration": 0.2704545454545553,
                "tempo": 120.0
            },
            {
                "start_time": 107.26818181818182,
                "end_time": 107.54318181818181,
                "pitch": 50,
                "velocity": 4,
                "duration": 0.2749999999999915,
                "tempo": 120.0
            },
            {
                "start_time": 106.99772727272726,
                "end_time": 107.54318181818181,
                "pitch": 62,
                "velocity": 4,
                "duration": 0.5454545454545467,
                "tempo": 120.0
            },
            {
                "start_time": 107.54318181818181,
                "end_time": 107.55681818181817,
                "pitch": 57,
                "velocity": 4,
                "duration": 0.013636363636365445,
                "tempo": 120.0
            }
        ]
    }
}